<svg width="101" height="101" viewBox="0 0 101 101" fill="none" xmlns="http://www.w3.org/2000/svg">
<path d="M50.4961 15.9373C69.849 15.9373 85.4961 31.5843 85.4961 50.9373C85.4961 70.2902 69.849 85.9373 50.4961 85.9373C31.1432 85.9373 15.4961 70.2902 15.4961 50.9373C15.4961 31.5843 31.1432 15.9373 50.4961 15.9373ZM50.4961 22.114C34.5773 22.114 21.6729 35.0185 21.6729 50.9373C21.6729 66.856 34.5773 79.7605 50.4961 79.7605C66.4148 79.7604 79.3193 66.856 79.3193 50.9373C79.3193 35.0185 66.4148 22.1141 50.4961 22.114Z" fill="#E4E4E4"/>
<path d="M43.9064 54.2311C45.7257 54.2311 47.2005 52.7562 47.2005 50.9369C47.2005 49.1176 45.7257 47.6428 43.9064 47.6428C42.0871 47.6428 40.6123 49.1176 40.6123 50.9369C40.6123 52.7562 42.0871 54.2311 43.9064 54.2311Z" fill="#E4E4E4"/>
<path d="M35.2593 41.8787H33.6122C32.7887 41.8787 32.377 42.2904 32.377 43.114V66.5845C32.377 67.8198 33.6122 69.0551 34.8475 69.0551H57.9064C58.7299 69.0551 59.1417 68.6434 59.1417 67.8198V66.1728C59.1417 65.3492 58.7299 64.9375 57.9064 64.9375H37.3181C36.9064 64.9375 36.9064 64.5257 36.9064 64.5257V43.114C36.4946 42.2904 36.0828 41.8787 35.2593 41.8787Z" fill="#E4E4E4"/>
<path d="M56.674 54.2311C58.4933 54.2311 59.9681 52.7562 59.9681 50.9369C59.9681 49.1176 58.4933 47.6428 56.674 47.6428C54.8547 47.6428 53.3799 49.1176 53.3799 50.9369C53.3799 52.7562 54.8547 54.2311 56.674 54.2311Z" fill="#E4E4E4"/>
<path d="M64.4976 32.8201H43.0859C42.2624 32.8201 41.8506 33.2318 41.8506 34.0554V35.7024C41.8506 36.526 42.2624 36.9377 43.0859 36.9377H63.6741C64.0859 36.9377 64.0859 37.3495 64.0859 37.3495V58.7612C64.0859 59.5848 64.4976 59.9965 65.3212 59.9965H66.9682C67.7918 59.9965 68.2035 59.5848 68.2035 58.7612V35.2907C68.2035 34.0554 66.9682 32.8201 65.7329 32.8201H64.4976Z" fill="#E4E4E4"/>
</svg>
