<svg width="101" height="101" viewBox="0 0 101 101" fill="none" xmlns="http://www.w3.org/2000/svg">
<g clip-path="url(#clip0_2358_7206)">
<mask id="mask0_2358_7206" style="mask-type:luminance" maskUnits="userSpaceOnUse" x="0" y="38" width="22" height="26">
<path d="M20.1934 43.1718L11.6769 38.339C11.4055 38.1844 11.0974 38.103 10.7837 38.103C10.47 38.103 10.1619 38.1844 9.89046 38.339L1.37251 43.1718C1.10147 43.3268 0.876548 43.5491 0.720188 43.8163C0.563829 44.0836 0.481507 44.3865 0.481445 44.6949V54.3675C0.481684 54.6752 0.56412 54.9775 0.7205 55.244C0.87688 55.5105 1.10172 55.732 1.37251 55.8863L5.63366 58.3083V63.2465C5.63402 63.3389 5.65905 63.4295 5.70625 63.5094C5.75345 63.5892 5.82116 63.6555 5.90259 63.7015C5.98403 63.7475 6.07633 63.7717 6.17026 63.7716C6.26419 63.7715 6.35644 63.7472 6.43779 63.701L20.2021 55.8905C20.4732 55.7366 20.6983 55.5152 20.8547 55.2486C21.0111 54.982 21.0934 54.6796 21.0932 54.3717V44.6934C21.0916 44.3846 21.0076 44.0816 20.8497 43.8146C20.6919 43.5476 20.4656 43.326 20.1934 43.1718Z" fill="white"/>
</mask>
<g mask="url(#mask0_2358_7206)">
<path d="M21.0845 44.2422L10.7859 50.0908L0.481445 44.2422V55.9394L5.63366 58.8615V64.7116L21.0845 55.9394V44.2422Z" fill="#E4E4E4"/>
<path d="M10.7859 49.5304L0.481445 43.6818L10.7859 37.8333L21.0845 43.6818L10.7859 49.5304Z" fill="#E4E4E4"/>
<path d="M10.6033 49.3523L0.546645 43.6434L0.481445 43.6818L10.7859 49.5304L21.0845 43.6818L20.8425 43.5408L10.6033 49.3523Z" fill="#E4E4E4"/>
<path d="M10.7859 49.6031V49.5305L0.546645 43.7161L0.481445 43.7545L10.7859 49.6031Z" fill="#E4E4E4"/>
</g>
<path d="M97.8936 55.3552H96.3577L94.3641 49.3128L92.3864 55.3552H90.8665L88.2846 47.482H89.8537L91.6344 53.4275H91.6503L93.6281 47.482H95.1784L97.1561 53.4275H97.172L98.9454 47.482H100.481L97.8936 55.3552ZM80.9953 48.4223C81.768 47.6245 82.7537 47.2255 83.9524 47.2255C85.1512 47.2255 86.1369 47.6245 86.9096 48.4223C87.6824 49.2202 88.0687 50.2175 88.0687 51.4143C88.0687 52.6111 87.6824 53.6084 86.9096 54.4063C86.1369 55.2041 85.1512 55.6031 83.9524 55.6031C82.7537 55.6031 81.768 55.2041 80.9953 54.4063C80.2226 53.6084 79.8362 52.6111 79.8362 51.4143C79.8362 50.2175 80.2226 49.2202 80.9953 48.4223ZM82.1153 53.4845C82.3516 53.7307 82.6366 53.9268 82.9528 54.0609C83.2689 54.195 83.6096 54.2641 83.9539 54.2641C84.2982 54.2641 84.6389 54.195 84.955 54.0609C85.2712 53.9268 85.5562 53.7307 85.7925 53.4845C86.3093 52.9649 86.5682 52.2768 86.5691 51.42C86.5701 50.5633 86.3112 49.8751 85.7925 49.3555C85.5562 49.1093 85.2712 48.9132 84.955 48.7791C84.6389 48.645 84.2982 48.5759 83.9539 48.5759C83.6096 48.5759 83.2689 48.645 82.9528 48.7791C82.6366 48.9132 82.3516 49.1093 82.1153 49.3555C81.5975 49.8751 81.3387 50.5633 81.3387 51.42C81.3387 52.2768 81.5971 52.9649 82.1138 53.4845H82.1153ZM78.6887 55.3552H77.1862V43.8532H78.6901L78.6887 55.3552ZM74.8491 43.7534C75.2607 43.742 75.6703 43.8127 76.0532 43.9614L75.5301 45.2309C75.3142 45.1371 75.0792 45.0932 74.8433 45.1027C74.4885 45.0896 74.1425 45.2139 73.8798 45.4489C73.6287 45.6797 73.5036 46.0121 73.5046 46.4462V47.4435H75.5968V48.7928H73.5089V55.3224H72.005V48.7985H70.5025V47.4492H72.0065V46.4049C72.0065 45.6013 72.2677 44.9588 72.7903 44.4772C73.3129 43.9956 73.9991 43.7544 74.8491 43.7534ZM65.2387 59.051C64.2912 59.051 63.5184 58.8178 62.9205 58.3514C62.3602 57.934 61.9161 57.3841 61.6296 56.7528L63.0017 56.1901C63.1606 56.627 63.455 57.0037 63.8435 57.2672C64.2503 57.5534 64.74 57.7033 65.2402 57.6946C66.068 57.6946 66.719 57.451 67.1933 56.9637C67.6675 56.4764 67.9047 55.8149 67.9047 54.979V54.2239H67.8395C67.5549 54.63 67.1733 54.9613 66.7282 55.1885C66.2308 55.4501 65.6738 55.583 65.1098 55.5746C64.0743 55.5746 63.1808 55.1728 62.4294 54.3692C61.6779 53.5657 61.3021 52.5684 61.3021 51.3773C61.3021 50.1881 61.6779 49.1907 62.4294 48.3853C63.1808 47.5798 64.0743 47.1781 65.1098 47.18C65.6738 47.1719 66.2306 47.3047 66.7282 47.5661C67.1733 47.7933 67.5549 48.1245 67.8395 48.5306H67.9047V47.4378H69.342V54.9092C69.342 56.2589 68.9445 57.2847 68.1495 57.9867C67.3531 58.6939 66.3116 59.0747 65.2387 59.051ZM65.3532 54.231C65.6924 54.2355 66.0288 54.1692 66.34 54.0363C66.6512 53.9034 66.9302 53.7071 67.1585 53.4602C67.654 52.9464 67.9018 52.2554 67.9018 51.3872C67.9018 50.5191 67.654 49.8281 67.1585 49.3142C66.9282 49.0703 66.6491 48.8759 66.3387 48.7432C66.0283 48.6106 65.6934 48.5425 65.3549 48.5433C65.0165 48.5441 64.6819 48.6138 64.3721 48.7479C64.0624 48.8821 63.7842 49.0778 63.5551 49.3228C63.0538 49.8423 62.8032 50.5305 62.8032 51.3872C62.8032 52.244 63.0538 52.9321 63.5551 53.4517C63.7817 53.6992 64.0592 53.8965 64.3692 54.0306C64.6791 54.1648 65.0146 54.2326 65.3532 54.2296V54.231ZM53.1609 48.3881C53.9336 47.5903 54.9193 47.1913 56.118 47.1913C57.3167 47.1913 58.3025 47.5903 59.0752 48.3881C59.8479 49.186 60.2343 50.1833 60.2343 51.3801C60.2343 52.5769 59.8479 53.5742 59.0752 54.3721C58.3025 55.1699 57.3167 55.5689 56.118 55.5689C54.9193 55.5689 53.9336 55.1733 53.1609 54.3821C52.3881 53.5842 52.0018 52.5869 52.0018 51.3901C52.0018 50.1933 52.3881 49.1926 53.1609 48.3881ZM54.2809 53.4503C54.5172 53.6965 54.8022 53.8926 55.1183 54.0267C55.4345 54.1608 55.7752 54.2299 56.1195 54.2299C56.4638 54.2299 56.8045 54.1608 57.1206 54.0267C57.4368 53.8926 57.7218 53.6965 57.9581 53.4503C58.4749 52.9307 58.7338 52.2426 58.7347 51.3858C58.7357 50.5291 58.4768 49.8409 57.9581 49.3213C57.7218 49.0751 57.4368 48.879 57.1206 48.7449C56.8045 48.6108 56.4638 48.5417 56.1195 48.5417C55.7752 48.5417 55.4345 48.6108 55.1183 48.7449C54.8022 48.879 54.5172 49.0751 54.2809 49.3213C53.7631 49.8409 53.5043 50.5291 53.5043 51.3858C53.5043 52.2426 53.7641 52.9307 54.2838 53.4503H54.2809ZM50.7137 55.3224H49.2112V43.8175H50.7152L50.7137 55.3224ZM43.8113 55.5788C43.034 55.6037 42.2747 55.3461 41.6785 54.8551C41.3978 54.6209 41.1748 54.3272 41.0262 53.996C40.8777 53.6648 40.8074 53.3048 40.8208 52.9431C40.8062 52.5506 40.8913 52.1608 41.0684 51.8088C41.2455 51.4568 41.5089 51.1538 41.835 50.927C42.5111 50.4398 43.3442 50.1961 44.3343 50.1961C45.2172 50.1961 45.9416 50.3567 46.5076 50.6777V50.4526C46.5184 50.1912 46.4697 49.9308 46.3652 49.6902C46.2607 49.4497 46.1029 49.2351 45.9035 49.062C45.4921 48.7107 44.9616 48.5241 44.4169 48.5392C44.0011 48.5337 43.5916 48.6391 43.2317 48.8441C42.8958 49.0274 42.6385 49.3239 42.5073 49.679L41.1352 49.1034C41.3206 48.6284 41.6858 48.192 42.2305 47.794C42.7753 47.396 43.4944 47.1951 44.3879 47.1913C45.4118 47.1913 46.2613 47.4858 46.9365 48.0747C47.6117 48.6636 47.9497 49.4937 47.9507 50.5652V55.3224H46.5134V54.2296H46.4482C45.8455 55.1291 44.9665 55.5788 43.8113 55.5788ZM44.0561 54.2296C44.6895 54.2241 45.2961 53.9774 45.7484 53.5415C45.9863 53.3425 46.1774 53.0951 46.3085 52.8164C46.4396 52.5377 46.5075 52.2343 46.5076 51.9272C46.0826 51.5843 45.4451 51.4129 44.5951 51.4129C43.8649 51.4129 43.3148 51.5682 42.9448 51.8788C42.7743 52.0078 42.6358 52.1732 42.5397 52.3625C42.4436 52.5518 42.3924 52.76 42.3899 52.9716C42.3861 53.1544 42.4309 53.3351 42.5198 53.4958C42.6087 53.6565 42.7388 53.7915 42.897 53.8877C43.2392 54.1157 43.6443 54.2351 44.0576 54.2296H44.0561ZM39.3965 45.4731C39.2227 45.6449 38.9936 45.7521 38.7484 45.7764C38.5032 45.8007 38.257 45.7406 38.0518 45.6063C37.8466 45.4721 37.6951 45.272 37.6232 45.0403C37.5512 44.8085 37.5632 44.5593 37.6572 44.3353C37.7511 44.1112 37.9212 43.9261 38.1384 43.8116C38.3555 43.6971 38.6064 43.6601 38.8482 43.7071C39.09 43.7541 39.3077 43.8821 39.4642 44.0693C39.6207 44.2565 39.7064 44.4913 39.7066 44.7337C39.709 44.8712 39.6827 45.0078 39.6294 45.1349C39.5761 45.2621 39.4968 45.3772 39.3965 45.4731ZM39.3965 55.3224H37.8969V47.4492H39.3965V55.3224ZM27.1709 55.3224V43.8175H30.7496C32.5472 43.8175 33.985 44.3504 35.0629 45.4161C36.1409 46.4818 36.6804 47.8662 36.6813 49.5693C36.6813 51.2723 36.1419 52.6567 35.0629 53.7224C33.984 54.7881 32.5462 55.3214 30.7496 55.3224H27.1709ZM28.6748 53.909H30.7496C32.1019 53.909 33.1722 53.5291 33.9603 52.7692C34.7485 52.0094 35.1436 50.9437 35.1455 49.5721C35.1455 48.2119 34.7505 47.1486 33.9603 46.3821C33.1702 45.6156 32.1 45.2328 30.7496 45.2337H28.6748V53.909Z" fill="#E4E4E4"/>
</g>
<defs>
<clipPath id="clip0_2358_7206">
<rect width="100" height="100" fill="white" transform="translate(0.481445 0.937256)"/>
</clipPath>
</defs>
</svg>
