<svg width="101" height="101" viewBox="0 0 101 101" fill="none" xmlns="http://www.w3.org/2000/svg">
<path fill-rule="evenodd" clip-rule="evenodd" d="M46.7133 81.7676C49.976 83.9922 55.315 85.3269 60.5057 85.3269C70.1455 85.3269 77.4125 81.1744 77.4125 71.8311C77.4125 63.8227 72.9633 59.9667 62.7303 57.7422C57.5396 56.4074 55.6116 54.7761 55.6116 51.9583C55.6116 49.1405 57.9845 46.9159 62.2854 46.9159C67.0311 46.9159 70.887 48.5472 74.743 51.365V42.3184C71.0354 40.0939 67.0311 39.0557 61.9887 39.0557C52.9421 39.0557 45.9718 43.5049 45.9718 52.5515C45.9718 60.2633 49.976 63.971 59.1709 66.0472C64.9548 67.5303 67.6243 68.865 67.6243 72.4244C67.6243 75.9837 64.6582 77.4667 60.2091 77.4667C55.6116 77.4667 50.7176 75.5388 46.565 72.4244L46.7133 81.7676ZM44.6371 48.3989H40.0396V84.4371H30.1032V48.3989H23.1328V40.0939H30.1032V31.6405C30.1032 20.6659 36.1837 15.3269 45.6752 15.3269C49.2345 15.3269 51.904 16.0684 54.4252 17.5515V26.5981C52.0523 24.9667 49.8277 24.0769 46.7133 24.0769C42.4125 24.0769 40.0396 26.1532 40.0396 31.6405V40.0939H50.8659C47.6032 41.7252 45.3786 44.6913 44.6371 48.3989Z" fill="#E4E4E4"/>
</svg>
