<svg width="101" height="101" viewBox="0 0 101 101" fill="none" xmlns="http://www.w3.org/2000/svg">
<g clip-path="url(#clip0_2358_7230)">
<path d="M26.4414 56.9863V37.4332H29.4752V45.1511C30.4254 43.7342 31.8756 43.0174 33.7759 43.0174C35.4095 43.0174 36.6764 43.5008 37.5599 44.4676C38.4433 45.4345 38.8934 46.7847 38.8934 48.5016V57.003H35.8763V48.935C35.8763 46.7013 34.8761 45.5845 32.8924 45.5845C31.8923 45.5845 31.0755 45.8845 30.4421 46.4846C29.8086 47.0847 29.4919 47.9349 29.4919 49.0184V56.9863H26.4414ZM53.2791 55.3027C51.9288 56.6529 50.2286 57.3364 48.1782 57.3364C46.1279 57.3364 44.4276 56.6529 43.0774 55.3027C41.7105 53.9525 41.0438 52.2356 41.0438 50.1519C41.0438 48.0682 41.7272 46.3513 43.0774 45.0177C44.4443 43.6842 46.1446 43.0007 48.1782 43.0007C50.2286 43.0007 51.9288 43.6675 53.2791 45.0177C54.6293 46.3513 55.3127 48.0682 55.3127 50.1519C55.2961 52.2356 54.6293 53.9525 53.2791 55.3027ZM45.2944 53.5858C46.0112 54.4359 46.978 54.8526 48.1782 54.8526C49.3784 54.8526 50.3453 54.4359 51.062 53.5858C51.7788 52.7356 52.1456 51.6021 52.1456 50.1519C52.1456 48.7183 51.7788 47.5848 51.0454 46.7513C50.3119 45.9012 49.3618 45.4845 48.1782 45.4845C46.978 45.4845 46.0112 45.9012 45.2944 46.7347C44.5777 47.5681 44.2109 48.7017 44.2109 50.1519C44.2109 51.6021 44.5777 52.7356 45.2944 53.5858ZM62.3305 57.3197C59.5301 57.3197 58.1298 55.8195 58.1298 52.819V45.9012H56.0128V43.3341H58.2132L58.9133 39.3168H61.2137V43.3341H66.6479V45.9012H61.2137V52.7356C61.2137 53.9858 61.6804 54.6193 62.5972 54.6193C63.464 54.6193 64.2308 53.8358 64.9309 52.2522L67.298 53.4691C66.1311 56.0362 64.4809 57.3197 62.3305 57.3197ZM68.2648 63.2373C66.9146 63.2373 65.7978 62.8539 64.9143 62.1038L66.0478 59.7201C66.5979 60.3535 67.1813 60.6703 67.8147 60.6703C68.6649 60.6703 69.0816 60.1202 69.0816 59.0367V43.3341H72.1154V59.0867C72.1154 60.5536 71.7487 61.6037 71.0319 62.2538C70.3151 62.9039 69.3983 63.2373 68.2648 63.2373ZM70.5985 41.0338C70.0984 41.0504 69.615 40.8671 69.2483 40.5337C69.0649 40.367 68.9316 40.1669 68.8482 39.9502C68.7482 39.7335 68.7149 39.4835 68.7149 39.2501C68.7149 39.0001 68.7482 38.7667 68.8482 38.5334C68.9483 38.3 69.0816 38.0999 69.2483 37.9333C69.615 37.5999 70.0984 37.4165 70.5985 37.4165C71.0986 37.4165 71.582 37.5999 71.9487 37.9333C72.1321 38.0999 72.2655 38.3 72.3655 38.5334C72.4655 38.7667 72.4988 39.0001 72.4988 39.2501C72.4988 39.4835 72.4488 39.7335 72.3655 39.9502C72.2655 40.1669 72.1321 40.367 71.9487 40.5337C71.7654 40.7004 71.5653 40.8337 71.332 40.9337C71.0986 41.0004 70.8486 41.0338 70.5985 41.0338ZM79.6667 57.3197C78.1164 57.3197 76.8495 56.9363 75.8827 56.1529C74.9159 55.3694 74.4325 54.3359 74.4325 53.019C74.4325 51.8188 74.9326 50.802 75.9327 49.9685C76.9329 49.1351 78.1997 48.7183 79.7167 48.7183C81.2669 48.7183 82.5838 49.2184 83.6506 50.2019V48.535C83.6506 47.5515 83.4006 46.8014 82.9005 46.2679C82.4004 45.7345 81.7003 45.4678 80.7835 45.4678C78.9332 45.4678 77.7663 46.418 77.3163 48.3016L74.5325 47.7182C74.8992 46.2513 75.6493 45.1011 76.7495 44.2509C77.8497 43.4008 79.2332 42.9841 80.8835 42.9841C82.6838 42.9841 84.1007 43.4508 85.1509 44.401C86.1844 45.3511 86.7178 46.7347 86.7178 48.5516V56.9863H83.7673V55.2694C82.7838 56.6363 81.4169 57.3197 79.6667 57.3197ZM80.2334 55.0693C81.5836 55.0693 82.7338 54.3859 83.6673 53.0357V52.619C82.7338 51.4854 81.5836 50.9354 80.2334 50.9354C79.45 50.9354 78.7999 51.1354 78.3164 51.5188C78.0831 51.6855 77.8997 51.9188 77.7663 52.1689C77.633 52.4189 77.583 52.7023 77.583 53.0024C77.583 53.2857 77.633 53.5858 77.7663 53.8358C77.883 54.1025 78.0831 54.3192 78.2998 54.5026C78.7832 54.886 79.4166 55.0693 80.2334 55.0693ZM89.6849 56.9863V43.3341H92.6354V45.7012C93.3855 43.9676 94.6857 43.1174 96.5194 43.1174C97.6029 43.1174 98.503 43.4675 99.2198 44.1843C99.9366 44.901 100.287 45.8512 100.287 47.0514C100.287 47.7682 100.153 48.485 99.9199 49.1684L97.1361 48.885C97.1861 48.5183 97.2362 48.1349 97.2528 47.7515C97.2528 46.3513 96.6694 45.6345 95.5025 45.6345C94.7191 45.6345 94.0523 46.0512 93.5189 46.8847C92.9855 47.7182 92.7188 48.8183 92.7188 50.1852V56.9863H89.6849Z" fill="#E4E4E4"/>
<path d="M7.4716 45.4344C9.73863 44.1842 12.8391 42.4506 12.8391 37.4331H9.08853C9.08853 40.2336 7.72164 41.0003 5.65464 42.1505C3.38761 43.4174 0.287109 45.1343 0.287109 50.1518H4.03771C4.03771 47.3347 5.4046 46.5846 7.4716 45.4344ZM13.9726 44.2675C13.9726 47.068 12.6058 47.8348 10.5388 48.985C8.27173 50.2352 5.17123 51.9688 5.17123 56.9863H8.92183C8.92183 54.1858 10.2887 53.419 12.3557 52.2688C14.6228 51.0186 17.7233 49.285 17.7233 44.2675H13.9726Z" fill="#E4E4E4"/>
</g>
<defs>
<clipPath id="clip0_2358_7230">
<rect width="100" height="100" fill="white" transform="translate(0.287109 0.326904)"/>
</clipPath>
</defs>
</svg>
