<svg width="101" height="101" viewBox="0 0 101 101" fill="none" xmlns="http://www.w3.org/2000/svg">
<g clip-path="url(#clip0_2358_6856)">
<path d="M11.1319 41.4534V49.4487H3.78666V41.4534H0.301758V60.5392H3.78761V52.8034H11.131V60.5392H14.6178V41.4534H11.1319ZM25.7753 54.3704C25.7753 55.1354 25.4714 55.869 24.9305 56.41C24.3896 56.9509 23.6559 57.2548 22.8909 57.2548C22.1259 57.2548 21.3922 56.9509 20.8513 56.41C20.3104 55.869 20.0065 55.1354 20.0065 54.3704V46.1949H16.6999V54.3704C16.6999 56.0107 17.3515 57.5838 18.5114 58.7437C19.6713 59.9036 21.2444 60.5553 22.8848 60.5553C24.5251 60.5553 26.0983 59.9036 27.2582 58.7437C28.4181 57.5838 29.0697 56.0107 29.0697 54.3704V46.1949H25.7753V54.3704ZM50.2763 47.0373C50.2763 45.3609 51.3848 44.8298 52.5989 44.8298C53.5782 44.8298 54.8706 45.5751 55.7169 46.4788L57.8819 43.926C56.8008 42.4637 54.6084 41.4534 52.8131 41.4534C49.2253 41.4534 46.631 43.5543 46.631 47.0373C46.631 53.4996 54.5291 51.4487 54.5291 55.0656C54.5291 56.1807 53.4461 57.1656 52.2065 57.1656C50.2508 57.1656 49.6169 56.21 48.7187 55.1987L46.315 57.6977C47.8527 59.5845 49.7489 60.543 52.0197 60.543C55.4282 60.543 58.1697 58.4166 58.1697 55.092C58.1697 47.9185 50.2706 50.1477 50.2706 47.0373M99.1385 57.4902C97.1848 57.4902 96.6291 56.6449 96.6291 55.3505V49.6194H99.6669V46.7156H96.6291V42.8845L93.2763 44.3892V56.0628C93.2763 59.0487 95.3367 60.5534 98.1612 60.5534C98.6046 60.5609 99.048 60.5251 99.4838 60.4477L100.302 57.4364C99.9329 57.4619 99.5093 57.4873 99.1385 57.4873M38.3621 46.2902C36.7244 46.2902 35.581 46.7656 34.4753 47.8496V41.5675H31.164V53.2119C31.164 57.5704 34.315 60.5571 37.8565 60.5571C41.7848 60.5571 45.2404 57.5175 45.2404 53.4251C45.2404 49.3836 42.0602 46.293 38.3621 46.293M38.3414 57.2241C37.8479 57.2241 37.3592 57.1269 36.9032 56.9381C36.4473 56.7492 36.033 56.4724 35.6841 56.1234C35.3351 55.7745 35.0583 55.3602 34.8694 54.9042C34.6806 54.4483 34.5834 53.9596 34.5834 53.4661C34.5834 52.9726 34.6806 52.4839 34.8694 52.028C35.0583 51.572 35.3351 51.1577 35.6841 50.8088C36.033 50.4598 36.4473 50.183 36.9032 49.9941C37.3592 49.8053 37.8479 49.7081 38.3414 49.7081C39.3381 49.7081 40.2939 50.104 40.9987 50.8088C41.7035 51.5136 42.0994 52.4694 42.0994 53.4661C42.0994 54.4628 41.7035 55.4187 40.9987 56.1234C40.2939 56.8282 39.3381 57.2241 38.3414 57.2241ZM74.3244 53.2515C74.3244 49.1515 70.8763 46.1194 66.9404 46.1194C63.3999 46.1194 60.248 49.1053 60.248 53.4647V65.1156H63.5593V58.8251C64.6631 59.9071 65.8084 60.3845 67.4442 60.3845C71.1423 60.3845 74.3244 57.2939 74.3244 53.2515ZM71.1885 53.21C71.1885 54.2067 70.7926 55.1625 70.0879 55.8673C69.3831 56.5721 68.4272 56.968 67.4305 56.968C66.4338 56.968 65.478 56.5721 64.7732 55.8673C64.0684 55.1625 63.6725 54.2067 63.6725 53.21C63.6725 52.2133 64.0684 51.2574 64.7732 50.5527C65.478 49.8479 66.4338 49.452 67.4305 49.452C68.4272 49.452 69.3831 49.8479 70.0879 50.5527C70.7926 51.2574 71.1885 52.2133 71.1885 53.21Z" fill="#E4E4E4"/>
<path d="M85.0247 45.959V42.6317C85.4644 42.4262 85.8367 42.1 86.0982 41.6912C86.3598 41.2823 86.4998 40.8076 86.502 40.3222V40.2458C86.502 38.8307 85.3549 37.6836 83.9398 37.6836H83.8634C83.1838 37.6836 82.5321 37.9535 82.0516 38.434C81.571 38.9145 81.3011 39.5663 81.3011 40.2458V40.3222C81.3033 40.8076 81.4434 41.2823 81.7049 41.6912C81.9665 42.1 82.3388 42.4262 82.7785 42.6317V45.959C81.5147 46.1525 80.3246 46.6765 79.3284 47.4779L70.203 40.3704C70.2681 40.1354 70.302 39.8939 70.3058 39.6515C70.3069 39.0805 70.1387 38.5219 69.8223 38.0465C69.506 37.5711 69.0557 37.2002 68.5285 36.9808C68.0014 36.7613 67.4209 36.7031 66.8607 36.8135C66.3004 36.924 65.7855 37.1981 65.3811 37.6012C64.9766 38.0043 64.7008 38.5184 64.5886 39.0782C64.4763 39.6381 64.5326 40.2187 64.7504 40.7466C64.9681 41.2745 65.3375 41.726 65.8119 42.0439C66.2862 42.3618 66.8442 42.5319 67.4152 42.5326C67.9148 42.5303 68.405 42.3969 68.8369 42.1458L77.8228 49.1383C77.0156 50.3578 76.5944 51.7922 76.6143 53.2545C76.6341 54.7168 77.0941 56.1393 77.9341 57.3364L75.2011 60.0704C74.9802 59.9997 74.75 59.9622 74.5181 59.959C74.0493 59.9594 73.5912 60.0987 73.2017 60.3594C72.8121 60.62 72.5085 60.9903 72.3293 61.4234C72.1501 61.8565 72.1033 62.3331 72.1948 62.7928C72.2864 63.2525 72.5121 63.6747 72.8436 64.0062C73.175 64.3376 73.5973 64.5634 74.057 64.6549C74.5167 64.7464 74.9932 64.6996 75.4263 64.5204C75.8595 64.3412 76.2297 64.0377 76.4904 63.6481C76.751 63.2585 76.8903 62.8004 76.8907 62.3317C76.8877 62.0997 76.8502 61.8696 76.7794 61.6487L79.4832 58.9439C80.3648 59.6227 81.3902 60.0907 82.4807 60.312C83.5712 60.5333 84.6978 60.502 85.7743 60.2206C86.8509 59.9392 87.8487 59.4152 88.6914 58.6886C89.5341 57.962 90.1993 57.0521 90.6361 56.0287C91.0728 55.0053 91.2695 53.8955 91.2111 52.7843C91.1527 51.6732 90.8407 50.5901 90.2991 49.6181C89.7575 48.6462 89.0005 47.8111 88.0863 47.1768C87.1721 46.5426 86.1248 46.126 85.0247 45.959ZM83.9039 56.9024C83.4042 56.9162 82.9069 56.8296 82.4412 56.6479C81.9755 56.4662 81.551 56.193 81.1927 55.8444C80.8344 55.4958 80.5496 55.079 80.3551 54.6185C80.1607 54.158 80.0605 53.6632 80.0605 53.1633C80.0605 52.6634 80.1607 52.1686 80.3551 51.7081C80.5496 51.2476 80.8344 50.8307 81.1927 50.4822C81.551 50.1336 81.9755 49.8604 82.4412 49.6787C82.9069 49.4969 83.4042 49.4104 83.9039 49.4241C84.8724 49.458 85.7899 49.8665 86.4632 50.5634C87.1365 51.2604 87.5131 52.1914 87.5136 53.1605C87.5141 54.1296 87.1385 55.061 86.4658 55.7586C85.7932 56.4563 84.8761 56.8657 83.9077 56.9005" fill="#E4E4E4"/>
</g>
<defs>
<clipPath id="clip0_2358_6856">
<rect width="100" height="100" fill="white" transform="translate(0.301758 0.937256)"/>
</clipPath>
</defs>
</svg>
