<svg width="101" height="101" viewBox="0 0 101 101" fill="none" xmlns="http://www.w3.org/2000/svg">
<g clip-path="url(#clip0_2358_7226)">
<path d="M24.6226 15.3269C19.7895 15.3269 15.873 19.2448 15.873 24.0772V76.5774C15.873 81.4097 19.7895 85.3269 24.6226 85.3269H77.1228C81.9551 85.3269 85.873 81.4097 85.873 76.5774V24.0772C85.873 19.2448 81.9551 15.3269 77.1228 15.3269H24.6226ZM50.6575 24.6561C50.9807 24.6262 51.3066 24.6641 51.6143 24.7672C51.9221 24.8704 52.2049 25.0367 52.4447 25.2554C52.6846 25.4741 52.8762 25.7404 53.0072 26.0374C53.1383 26.3343 53.206 26.6553 53.2059 26.9799V60.813C53.1996 61.4276 52.951 62.015 52.5141 62.4474C52.0772 62.8798 51.4874 63.1223 50.8727 63.1223C50.258 63.1223 49.6681 62.8798 49.2313 62.4474C48.7944 62.015 48.5458 61.4276 48.5395 60.813V26.9799C48.5394 26.3983 48.7565 25.8376 49.1483 25.4077C49.5401 24.9779 50.0783 24.7098 50.6575 24.6561ZM39.2059 25.8271C39.5124 25.827 39.8158 25.8873 40.099 26.0045C40.3821 26.1217 40.6394 26.2936 40.8562 26.5102C41.0729 26.7269 41.2448 26.9842 41.3621 27.2673C41.4794 27.5504 41.5398 27.8538 41.5398 28.1603V59.3319C41.5398 59.9508 41.294 60.5443 40.8564 60.982C40.4187 61.4196 39.8252 61.6654 39.2063 61.6654C38.5874 61.6654 37.9938 61.4196 37.5562 60.982C37.1185 60.5443 36.8727 59.9508 36.8727 59.3319V28.1603C36.8727 27.5415 37.1186 26.9481 37.5561 26.5105C37.9937 26.073 38.5871 25.8271 39.2059 25.8271ZM62.5395 25.8271C63.1583 25.8271 63.7517 26.073 64.1893 26.5105C64.6268 26.9481 64.8727 27.5415 64.8727 28.1603V59.3319C64.8664 59.9465 64.6177 60.5338 64.1809 60.9662C63.744 61.3986 63.1541 61.6412 62.5395 61.6412C61.9248 61.6412 61.335 61.3986 60.8981 60.9662C60.4612 60.5338 60.2126 59.9465 60.2063 59.3319V28.1603C60.2063 27.5415 60.4521 26.9481 60.8897 26.5105C61.3272 26.073 61.9207 25.8271 62.5395 25.8271ZM27.3652 30.5C27.6854 30.476 28.0071 30.5184 28.3102 30.6244C28.6133 30.7304 28.8913 30.8979 29.1267 31.1163C29.3621 31.3347 29.5499 31.5993 29.6783 31.8936C29.8067 32.188 29.873 32.5056 29.873 32.8267V53.8133C29.873 54.4322 29.6272 55.0258 29.1896 55.4634C28.7519 55.901 28.1584 56.1469 27.5395 56.1469C26.9206 56.1469 26.327 55.901 25.8894 55.4634C25.4518 55.0258 25.2059 54.4322 25.2059 53.8133V32.8267C25.2059 32.238 25.4285 31.6711 25.8289 31.2396C26.2294 30.8081 26.7782 30.5439 27.3652 30.5ZM74.0316 30.5C74.3518 30.476 74.6736 30.5184 74.9767 30.6244C75.2798 30.7304 75.5577 30.8979 75.7931 31.1163C76.0285 31.3347 76.2163 31.5993 76.3447 31.8936C76.4732 32.188 76.5395 32.5056 76.5395 32.8267V53.8133C76.5332 54.428 76.2846 55.0154 75.8477 55.4478C75.4108 55.8802 74.821 56.1228 74.2063 56.1228C73.5916 56.1228 73.0017 55.8802 72.5648 55.4478C72.1279 55.0154 71.8793 54.428 71.873 53.8133V32.8267C71.8731 32.2382 72.0955 31.6713 72.4958 31.2399C72.8961 30.8084 73.4447 30.5441 74.0316 30.5ZM74.0186 64.3207C74.5098 64.2813 75.0008 64.3983 75.4214 64.6551C75.8419 64.9118 76.1704 65.2951 76.3598 65.75C76.5492 66.2049 76.5897 66.7081 76.4755 67.1874C76.3613 67.6667 76.0984 68.0976 75.7243 68.4184C75.3642 68.7271 66.7207 75.9796 50.8727 75.9796C35.0247 75.9796 26.3805 68.7264 26.0204 68.4176C25.5539 68.0145 25.266 67.443 25.2195 66.8282C25.173 66.2134 25.3718 65.6052 25.7723 65.1364C26.1729 64.6677 26.7427 64.3766 27.3573 64.3266C27.9718 64.2767 28.5811 64.4721 29.0521 64.87C29.189 64.9843 36.9077 71.3131 50.8727 71.3131C65.0127 71.3131 72.6121 64.9389 72.6875 64.8743C73.0617 64.5539 73.5276 64.3602 74.0186 64.3207Z" fill="#E4E4E4"/>
</g>
<defs>
<clipPath id="clip0_2358_7226">
<rect width="70" height="70" fill="white" transform="translate(15.873 15.3269)"/>
</clipPath>
</defs>
</svg>
