<svg width="101" height="101" viewBox="0 0 101 101" fill="none" xmlns="http://www.w3.org/2000/svg">
<g clip-path="url(#clip0_2374_8206)">
<path d="M0.216797 57.4648H6.21517V56.8279H5.76499C4.88872 56.8279 4.67643 56.5885 4.67643 55.7138V47.8048C5.28771 46.769 6.10978 46.105 7.14564 46.105C8.44649 46.105 9.24296 47.0595 9.24296 48.8663V55.7168C9.24296 56.593 9.02917 56.8309 8.1815 56.8309H7.70272V57.4678H13.5686V56.8309H13.144C12.2677 56.8309 12.0555 56.5915 12.0555 55.7168V48.5727C12.0555 48.3333 12.0555 48.0939 12.0299 47.856C12.6125 46.7946 13.4903 46.105 14.5262 46.105C15.827 46.105 16.6235 47.0595 16.6235 48.8663V55.7168C16.6235 56.593 16.4097 56.8309 15.562 56.8309H15.0833V57.4678H20.9491V56.8309H20.5516C19.6483 56.8309 19.4375 56.5915 19.4375 55.7168V48.5727C19.4375 45.8912 17.9259 44.4052 15.7216 44.4052C14.076 44.4052 12.6426 45.3085 11.8718 47.1122C11.4216 45.3612 10.0936 44.4052 8.33959 44.4052C6.77225 44.4052 5.42021 45.2543 4.67493 46.9526V44.7228H0.216797V45.3597H0.748279C1.65165 45.3597 1.86244 45.5991 1.86244 46.4739V55.7123C1.86244 56.5885 1.64864 56.8264 0.748279 56.8264H0.216797V57.4648ZM24.4813 42.5999C25.4359 42.5999 26.2323 41.8035 26.2323 40.8489C26.2323 39.8944 25.4359 39.0979 24.4813 39.0979C23.5267 39.0979 22.7303 39.8944 22.7303 40.8489C22.7288 41.8035 23.5252 42.5999 24.4813 42.5999ZM21.5092 57.4648H27.4022V56.8279H27.0047C26.1285 56.8279 25.9162 56.5885 25.9162 55.7138V44.7228H21.455V45.3597H21.9865C22.8899 45.3597 23.1007 45.5991 23.1007 46.4739V55.7123C23.1007 56.5885 22.8869 56.8264 21.9865 56.8264H21.5077V57.4633H21.5092V57.4648ZM31.7022 49.9804H33.4021C32.9775 49.7154 32.8194 49.3435 32.6056 48.6525L31.9687 46.2902C31.6766 45.2287 31.4373 44.7228 30.2689 44.7228H27.8268V45.3597H28.1731C28.8882 45.3597 28.9695 45.6247 29.1833 46.4212L29.7404 48.4929C30.0325 49.5031 30.4842 49.9789 31.7053 49.9789H31.7022V49.9804ZM35.6319 49.9804H37.3317C38.5528 49.9804 38.9774 49.5016 39.271 48.4944L39.828 46.4227C40.0418 45.6262 40.1457 45.3612 40.8383 45.3612H41.1846V44.7243H38.7696C37.5756 44.7243 37.3363 45.2031 37.0698 46.2917L36.4329 48.654C36.2176 49.3691 36.0565 49.7139 35.6319 49.9804ZM33.4021 52.2102H35.6319V49.9804H33.4021V52.2102ZM27.8268 57.4678H30.2689C31.4373 57.4678 31.6766 56.9634 31.9687 55.9005L32.6056 53.5382C32.8194 52.8486 32.9775 52.4767 33.4021 52.2102H31.7022C30.4812 52.2102 30.0295 52.689 29.7374 53.6963L29.1803 55.768C28.9665 56.5644 28.8882 56.8294 28.1701 56.8294H27.8238V57.4663H27.8268V57.4678ZM38.7636 57.4678H41.1786V56.8309H40.8323C40.1427 56.8309 40.0358 56.5659 39.822 55.7695L39.2649 53.6978C38.9729 52.6875 38.5483 52.2117 37.3257 52.2117H35.6304C36.055 52.4767 36.2101 52.823 36.4223 53.5397L37.0592 55.902C37.3242 56.9905 37.5636 57.4693 38.7591 57.4693H38.7636V57.4678ZM41.5249 62.7766H47.6828V62.1397H47.046C46.1968 62.1397 45.9845 61.9003 45.9845 61.0255V55.9562C46.7554 57.0989 48.0562 57.7885 49.595 57.7885C52.4888 57.7885 54.7984 55.241 54.7984 50.8341C54.7984 46.8518 52.6228 44.4112 49.8073 44.4112C48.1616 44.4112 46.781 45.3657 45.9845 47.0656V44.7289H41.5234V45.3657H42.0549C42.9311 45.3657 43.169 45.6051 43.169 46.4799V61.024C43.169 61.9003 42.9296 62.1382 42.0549 62.1382H41.5234V62.775L41.5249 62.7766ZM48.7985 46.0523C50.5239 46.0523 51.9317 47.6708 51.9317 50.8823C51.9317 54.3858 50.6308 56.2979 48.8527 56.2979C47.7099 56.2979 46.7027 55.6867 45.9845 54.6252V48.0412C46.6741 46.7404 47.6573 46.0508 48.7985 46.0508V46.0523ZM58.993 57.7328C60.7185 57.7328 62.0976 56.9107 63.1335 55.0513V55.3434C63.1335 56.9363 64.1437 57.6259 65.815 57.6259C66.3194 57.6259 66.9577 57.5732 67.3823 57.4407V56.7767C67.1685 56.8294 67.0104 56.8565 66.8508 56.8565C66.1869 56.8565 65.9746 56.459 65.9746 55.8207V49.0229C65.9746 45.8897 64.2235 44.4037 61.2771 44.4037C59.3122 44.4037 57.4016 45.307 56.1805 46.2616L56.6051 47.0053C57.8804 46.1291 59.127 45.6262 60.4806 45.6262C62.2316 45.6262 63.135 46.5808 63.135 48.8121V49.3947L59.8693 50.67C56.8972 51.891 55.8072 53.0323 55.8072 54.7592C55.8072 56.4846 57.0282 57.7313 58.993 57.7313V57.7328ZM58.5956 54.0681C58.5956 52.7402 59.3664 51.7856 60.9323 51.0961L63.1365 50.1415V54.2819C62.3144 55.4247 61.3584 56.0872 60.3225 56.0872C59.2866 56.0872 58.5971 55.3705 58.5971 54.0696L58.5956 54.0681ZM67.9123 57.4678H73.9664V56.8309H73.462C72.5857 56.8309 72.3734 56.5915 72.3734 55.7168V47.8319C72.9847 46.7705 73.8851 46.1065 74.948 46.1065C76.3272 46.1065 77.205 47.061 77.205 48.8678V55.7183C77.205 56.5945 76.9912 56.8324 76.1435 56.8324H75.6391V57.4693H81.6646V56.8324H81.1331C80.2297 56.8324 80.019 56.593 80.019 55.7183V48.5742C80.019 45.8927 78.426 44.4067 76.1691 44.4067C74.5235 44.4067 73.1428 45.2558 72.3719 46.9541V44.7243H67.9108V45.3612H68.4423C69.3457 45.3612 69.5564 45.6006 69.5564 46.4754V55.7138C69.5564 56.59 69.3426 56.8279 68.4423 56.8279H67.9108V57.4648L67.9123 57.4678ZM88.5648 57.7855C90.3159 57.7855 91.963 56.989 93.1585 56.0345L92.761 55.4518C91.6995 56.2227 90.5041 56.5659 89.3899 56.5659C86.6828 56.5659 85.0899 54.6553 85.0899 50.9395V50.4607H93.4777C93.425 46.8774 91.2207 44.4353 88.0093 44.4353C84.7978 44.4353 82.2217 47.329 82.2217 51.1518C82.2217 55.3464 84.6111 57.7885 88.5663 57.7885L88.5648 57.7855ZM88.0334 45.0947C89.6263 45.0947 90.608 46.8202 90.7691 49.741H85.1426C85.382 46.7946 86.4961 45.0947 88.0364 45.0947H88.0334ZM94.0588 57.4648H100.217V56.8279H99.6055C98.7293 56.8279 98.517 56.5885 98.517 55.7138V39.4141H94.0558V40.0509H94.5873C95.4636 40.0509 95.7015 40.2903 95.7015 41.1651V55.7138C95.7015 56.59 95.4621 56.8279 94.5873 56.8279H94.0558V57.4648H94.0588Z" fill="#E4E4E4"/>
</g>
<defs>
<clipPath id="clip0_2374_8206">
<rect width="100" height="100" fill="white" transform="translate(0.216797 0.937256)"/>
</clipPath>
</defs>
</svg>
