<svg width="101" height="101" viewBox="0 0 101 101" fill="none" xmlns="http://www.w3.org/2000/svg">
<g clip-path="url(#clip0_2358_7238)">
<path d="M15.3147 63.9434C7.84807 63.9434 1.79811 57.8934 1.79811 50.4268C1.78144 42.9602 7.84807 36.8936 15.3147 36.8936C22.7813 36.8936 28.8313 42.9435 28.8313 50.4102C28.8313 57.8768 22.7813 63.9434 15.3147 63.9434ZM15.298 35.5769C7.13141 35.5769 0.481445 42.1935 0.481445 50.3268C0.481445 58.4601 7.13141 65.0767 15.298 65.0767C23.4647 65.0767 30.1146 58.4601 30.1146 50.3268C30.1313 42.1935 23.4813 35.5769 15.298 35.5769Z" fill="#E4E4E4"/>
<path d="M11.5482 56.9601C9.31488 55.9101 7.76489 53.5435 7.76489 50.7935C7.76489 49.3435 8.19822 47.9935 8.93155 46.9102L13.7982 54.1768H16.7482L21.6148 46.9102C22.3481 48.0102 22.7815 49.3602 22.7815 50.7935C22.7815 53.3602 21.4315 55.5768 19.4482 56.7268L20.3815 60.3268C23.9648 58.4768 26.3981 54.7601 26.3981 50.4602C26.3981 46.3935 24.2148 42.8602 20.9648 40.9269L15.2982 49.6602L9.69821 40.8936C6.4149 42.8269 4.19824 46.3935 4.19824 50.4602C4.19824 54.9101 6.81489 58.7601 10.5982 60.5101L11.5482 56.9601Z" fill="#E4E4E4"/>
<path d="M41.298 51.877L37.6646 44.1104H35.7646V56.5769H37.6646V48.2437L40.598 54.327H42.0146L44.8646 48.2437V56.5769H46.7646V44.1104H44.8646L41.298 51.877Z" fill="#E4E4E4"/>
<path d="M53.8648 53.1102C53.8648 54.4769 53.0315 55.0936 52.0315 55.0936C51.0315 55.0936 50.2482 54.4936 50.2482 53.1102V47.6936H48.4648V53.3769C48.4648 54.3769 48.6815 55.2269 49.3648 55.8936C49.8982 56.3936 50.6482 56.6936 51.5482 56.6936C52.4482 56.6936 53.2981 56.3602 53.9148 55.6936V56.5936H55.6648V47.7103H53.8815V53.1102H53.8648Z" fill="#E4E4E4"/>
<path d="M59.1486 54.027V44.1104H57.3652V54.127C57.3652 55.4436 58.0986 56.5769 59.7986 56.5769H60.8985V55.0603H60.1152C59.3986 55.0603 59.1486 54.7103 59.1486 54.027Z" fill="#E4E4E4"/>
<path d="M63.214 51.4102C63.2307 50.8768 63.264 50.6102 63.4473 50.2102C63.7307 49.5435 64.3807 49.0935 65.214 49.0935C66.0473 49.0935 66.6806 49.5435 66.964 50.2102C67.1306 50.6102 67.1973 50.8768 67.214 51.4102H63.214ZM65.1973 47.5935C62.9307 47.5935 61.4307 49.2602 61.4307 52.1268C61.4307 55.5101 63.1973 56.6768 65.4306 56.6768C66.9973 56.6768 67.8473 56.2101 68.7473 55.2935L67.5973 54.2268C66.964 54.8601 66.4306 55.1435 65.4473 55.1435C63.9973 55.1435 63.1807 54.1935 63.1807 52.6601H68.9473V51.8768C68.964 49.3602 67.5806 47.5935 65.1973 47.5935Z" fill="#E4E4E4"/>
<path d="M77.7817 50.4601C77.2483 49.9934 76.5983 49.7101 75.4483 49.5268L74.0317 49.3101C73.465 49.2268 72.9484 49.0101 72.6317 48.7434C72.2984 48.4434 72.165 48.0434 72.165 47.5768C72.165 46.4768 72.965 45.6268 74.4317 45.6268C75.4817 45.6268 76.3817 45.8601 77.1483 46.5768L78.3483 45.3935C77.2817 44.4101 76.1317 43.9768 74.4817 43.9768C71.8817 43.9768 70.315 45.4601 70.315 47.6435C70.315 48.6601 70.615 49.4434 71.2317 50.0268C71.765 50.5434 72.5817 50.8768 73.5984 51.0268L75.065 51.2434C75.7983 51.3434 76.115 51.4768 76.4317 51.7768C76.765 52.0768 76.9317 52.5268 76.9317 53.0768C76.9317 54.2767 75.9817 54.9767 74.365 54.9767C73.0817 54.9767 72.0984 54.6934 71.1817 53.7934L69.915 55.0267C71.0984 56.2267 72.4484 56.6767 74.3317 56.6767C76.9483 56.6767 78.815 55.3101 78.815 53.0101C78.7983 51.9601 78.465 51.0768 77.7817 50.4601Z" fill="#E4E4E4"/>
<path d="M84.8301 54.5768C84.4968 54.9101 84.0468 55.0935 83.5135 55.0935C82.9801 55.0935 82.5468 54.9101 82.2135 54.5768C81.6635 54.0435 81.5968 53.1101 81.5968 52.1435C81.5968 51.1768 81.6635 50.2602 82.2135 49.7102C82.5468 49.3768 82.9801 49.1935 83.5135 49.1935C84.0301 49.1935 84.4968 49.3602 84.8301 49.7102C85.3635 50.2435 85.4468 51.1768 85.4468 52.1435C85.4468 53.0935 85.3635 54.0268 84.8301 54.5768ZM83.5135 47.5935C82.3135 47.5935 81.4468 48.0435 80.8635 48.6435C80.0301 49.5268 79.8135 50.6435 79.8135 52.1268C79.8135 53.6268 80.0301 54.7601 80.8635 55.6268C81.4301 56.2268 82.2968 56.6768 83.5135 56.6768C84.7135 56.6768 85.5968 56.2268 86.1801 55.6268C87.0134 54.7435 87.2301 53.6268 87.2301 52.1268C87.2301 50.6435 87.0134 49.5102 86.1801 48.6435C85.5968 48.0602 84.7135 47.5935 83.5135 47.5935Z" fill="#E4E4E4"/>
<path d="M89.0303 46.4936V47.8602H88.0137V49.2269H89.0303V56.5769H90.8137V49.2269H92.5803V47.8602H90.8137V46.5769C90.8137 45.9269 91.1303 45.5436 91.797 45.5436H92.5803V44.0103H91.4637C89.797 44.0269 89.0303 45.2269 89.0303 46.4936Z" fill="#E4E4E4"/>
<path d="M96.4982 45.1602H94.7149V47.8601H93.6982V49.2268H94.7149V54.1101C94.7149 55.3934 95.4816 56.5768 97.1482 56.5768H98.2149V55.0601H97.4816C96.8149 55.0601 96.4982 54.6768 96.4982 54.0268V49.2268H98.2149V47.8601H96.4982V45.1602Z" fill="#E4E4E4"/>
<path d="M100.264 47.2435C100.231 47.3435 100.181 47.4268 100.098 47.4935C100.014 47.5601 99.9478 47.6268 99.8478 47.6601C99.7644 47.7101 99.6478 47.7268 99.5311 47.7268C99.4144 47.7268 99.3145 47.7101 99.2145 47.6601C99.1145 47.6101 99.0311 47.5601 98.9645 47.4935C98.8978 47.4268 98.8311 47.3268 98.7978 47.2435C98.7645 47.1435 98.7311 47.0268 98.7311 46.9101C98.7311 46.7935 98.7478 46.6935 98.7978 46.5935C98.8311 46.4935 98.8811 46.4101 98.9645 46.3435C99.0478 46.2768 99.1145 46.2101 99.2145 46.1768C99.3145 46.1268 99.4144 46.1101 99.5311 46.1101C99.6478 46.1101 99.7478 46.1268 99.8478 46.1768C99.9311 46.2268 100.031 46.2768 100.098 46.3435C100.164 46.4101 100.231 46.4935 100.264 46.5935C100.298 46.6935 100.331 46.8101 100.331 46.9101C100.314 47.0435 100.298 47.1435 100.264 47.2435ZM100.414 46.5435C100.364 46.4268 100.298 46.3268 100.198 46.2435C100.114 46.1601 100.014 46.0935 99.8978 46.0435C99.7811 45.9935 99.6644 45.9768 99.5311 45.9768C99.3978 45.9768 99.2811 46.0101 99.1645 46.0435C99.0478 46.0935 98.9478 46.1601 98.8478 46.2435C98.7645 46.3268 98.6978 46.4268 98.6311 46.5435C98.5811 46.6601 98.5645 46.7768 98.5645 46.9101C98.5645 47.0435 98.5978 47.1768 98.6311 47.2935C98.6811 47.4101 98.7478 47.5101 98.8478 47.5935C98.9311 47.6768 99.0311 47.7435 99.1645 47.7935C99.2811 47.8435 99.3978 47.8601 99.5311 47.8601C99.6644 47.8601 99.7811 47.8268 99.8978 47.7935C100.014 47.7435 100.114 47.6768 100.198 47.5935C100.281 47.5101 100.348 47.4101 100.414 47.2935C100.464 47.1768 100.481 47.0435 100.481 46.9101C100.481 46.7768 100.464 46.6601 100.414 46.5435Z" fill="#E4E4E4"/>
<path d="M99.5141 46.86H99.3308V46.51H99.5641C99.5975 46.51 99.6141 46.51 99.6475 46.5267C99.6808 46.5267 99.6975 46.5434 99.7308 46.56C99.7641 46.5767 99.7808 46.5934 99.7808 46.61C99.7975 46.6267 99.7975 46.66 99.7975 46.6934C99.7975 46.7434 99.7808 46.7767 99.7641 46.7934C99.7475 46.8267 99.7308 46.8434 99.6975 46.8434C99.6641 46.86 99.6475 46.86 99.6141 46.86C99.5975 46.86 99.5641 46.86 99.5141 46.86ZM99.8975 46.91C99.9475 46.86 99.9808 46.7934 99.9808 46.6934C99.9808 46.5767 99.9475 46.51 99.8808 46.46C99.8141 46.41 99.7141 46.3767 99.5808 46.3767H99.1475V47.4934H99.3141V47.01H99.4975L99.7975 47.4934H99.9808L99.6641 46.9934C99.7808 46.9767 99.8475 46.96 99.8975 46.91Z" fill="#E4E4E4"/>
</g>
<defs>
<clipPath id="clip0_2358_7238">
<rect width="100" height="100" fill="white" transform="translate(0.481445 0.326904)"/>
</clipPath>
</defs>
</svg>
