<svg width="101" height="101" viewBox="0 0 101 101" fill="none" xmlns="http://www.w3.org/2000/svg">
<g clip-path="url(#clip0_2358_6449)">
<path d="M26.4531 16.0388C32.7328 16.0389 38.3515 19.0255 41.877 23.6609L42.1787 23.3308C45.378 20.1641 49.7402 18.2185 54.543 18.2185C61.1532 18.2185 66.882 21.8826 69.9668 27.3425C72.705 26.1211 75.6715 25.4904 78.6709 25.4919C90.5692 25.4922 100.228 35.2029 100.228 47.1853C100.227 59.1677 90.5691 68.8784 78.6709 68.8787C77.2166 68.8787 75.7983 68.7323 74.4102 68.4568C71.711 73.2571 66.5516 76.5183 60.6758 76.5183C58.2835 76.523 55.9217 75.9816 53.7715 74.9353C51.0356 81.348 44.6643 85.8552 37.2461 85.8552C29.4974 85.8552 22.9236 80.982 20.3896 74.1296C19.262 74.3671 18.1125 74.4868 16.96 74.4861C7.74228 74.4861 0.287109 66.9367 0.287109 57.6658C0.287207 51.4365 3.64353 46.0133 8.62305 43.0818C7.56662 40.6534 7.0236 38.0338 7.02637 35.3865C7.02637 24.6864 15.7298 16.0388 26.4531 16.0388ZM58.584 40.3923C57.5363 40.3923 56.7098 40.6879 56.1299 41.2712C55.5542 41.8502 55.1623 42.732 54.9658 43.8923L54.8955 44.2839H53.5801C53.5801 44.2839 53.4197 44.2775 53.3857 44.4519L53.1699 45.6541C53.1549 45.7691 53.2043 45.8412 53.3584 45.8406H54.6387L53.3398 53.075C53.2382 53.6574 53.122 54.1367 52.9932 54.4998C52.8661 54.8581 52.7416 55.1271 52.5889 55.322C52.4409 55.5107 52.3005 55.6492 52.0586 55.7302C51.8588 55.7973 51.6289 55.8289 51.377 55.8289C51.2367 55.8289 51.0498 55.8046 50.9121 55.7771C50.7746 55.75 50.7027 55.7197 50.5996 55.6765C50.5934 55.6742 50.4485 55.6224 50.3906 55.7693C50.3425 55.892 50.0015 56.8278 49.9609 56.9441C49.9199 57.0582 49.9773 57.1484 50.0498 57.1746C50.2201 57.2354 50.3472 57.2743 50.5791 57.3289C50.9014 57.4047 51.1733 57.4099 51.4277 57.4099C51.9608 57.4099 52.4468 57.3352 52.8496 57.1902C53.255 57.044 53.6087 56.7889 53.9209 56.4441C54.2583 56.0722 54.4698 55.6823 54.6729 55.1511C54.8737 54.6245 55.0456 53.9706 55.1826 53.2087L56.4873 45.8406H58.3955C58.3955 45.8406 58.5562 45.8462 58.5898 45.6726L58.8057 44.4705C58.8207 44.3555 58.7718 44.2833 58.6172 44.2839H56.7646C56.774 44.2411 56.8579 43.5916 57.0703 42.9802C57.1609 42.7192 57.3319 42.5087 57.4766 42.364C57.6117 42.2262 57.7783 42.1223 57.9619 42.0623C58.1632 42.0002 58.3733 41.9705 58.584 41.9734C58.7583 41.9734 58.9293 41.9941 59.0596 42.0212C59.2391 42.0593 59.3094 42.0796 59.3564 42.0935C59.5447 42.1508 59.5704 42.0948 59.6074 42.0037L60.0498 40.7898C60.0952 40.6595 59.9845 40.6047 59.9434 40.5886C59.7555 40.532 59.5644 40.4865 59.3711 40.4529C59.111 40.4096 58.8476 40.3895 58.584 40.3923ZM18.2734 44.0808C16.3969 44.0808 15.0859 45.2131 15.0859 46.8328V46.8669C15.0859 48.5745 16.5324 49.1316 17.8838 49.5164L18.1016 49.5837C19.0857 49.8857 19.9375 50.1488 19.9375 50.8376V50.8718C19.9374 51.5057 19.3828 51.9783 18.4941 51.9783C18.1484 51.9783 17.0468 51.972 15.8535 51.2195C15.7095 51.1357 15.6268 51.0753 15.5156 51.0076C15.4566 50.972 15.3099 50.9087 15.2461 51.1003L14.8428 52.2214L14.8271 52.28C14.8018 52.3962 14.8691 52.4256 14.8867 52.4509C15.0743 52.5864 15.2652 52.6844 15.4561 52.7947C16.4769 53.3333 17.4391 53.491 18.4453 53.491C20.4944 53.4909 21.7685 52.4026 21.7686 50.6511V50.6169C21.7686 48.9975 20.3293 48.4075 18.9854 47.9861L18.8086 47.9285C17.7916 47.5995 16.9141 47.313 16.9141 46.6462V46.6121C16.9142 46.0405 17.4285 45.6189 18.2217 45.6189C19.1029 45.6189 20.1532 45.9116 20.8252 46.282C20.8252 46.282 21.0242 46.4106 21.0967 46.2195C21.136 46.1158 21.4789 45.2 21.5156 45.0974C21.5542 44.9904 21.4859 44.9097 21.416 44.8679C20.6448 44.3989 19.5793 44.0798 18.4775 44.0798L18.2734 44.0808ZM48.2725 44.0779C46.3959 44.0779 45.085 45.2102 45.085 46.8298V46.864C45.085 48.5716 46.5324 49.1287 47.8838 49.5134L48.1006 49.5808C49.0884 49.8827 49.9365 50.1458 49.9365 50.8347V50.8689C49.9365 51.5028 49.3818 51.9753 48.4932 51.9753C48.1467 51.9753 47.0423 51.9691 45.8525 51.2166C45.7084 51.1328 45.624 51.0749 45.5146 51.0046C45.4775 50.9812 45.3042 50.9142 45.2451 51.0974L44.8418 52.2185L44.8291 52.2771C44.8038 52.3933 44.8713 52.4227 44.8896 52.448C45.0763 52.5833 45.2673 52.6816 45.458 52.7917C46.4788 53.3303 47.4412 53.488 48.4473 53.488C50.4965 53.488 51.7715 52.3998 51.7715 50.6482V50.614C51.7715 48.9943 50.3351 48.4046 48.9873 47.9832L48.8115 47.9255C47.7944 47.5965 46.917 47.3102 46.917 46.6433V46.6091C46.9171 46.0377 47.4307 45.6161 48.2236 45.616C49.105 45.616 50.1524 45.9086 50.8281 46.2791C50.8307 46.2807 51.0273 46.4064 51.0996 46.2166C51.1385 46.1129 51.4816 45.1971 51.5146 45.0945C51.5537 44.9873 51.4847 44.9067 51.415 44.865C50.6439 44.396 49.5792 44.0769 48.4775 44.0769L48.2725 44.0779ZM63.1152 44.1091C62.4176 44.1091 61.8044 44.2325 61.2793 44.4753C60.7578 44.7187 60.3127 45.0547 59.9639 45.4724C59.6159 45.89 59.3544 46.3881 59.1855 46.9558C59.0185 47.52 58.9336 48.136 58.9336 48.7917C58.9336 49.4475 59.0185 50.0635 59.1855 50.6277C59.3533 51.1955 59.6151 51.6944 59.9639 52.1121C60.3131 52.5298 60.7578 52.8631 61.2793 53.1013C61.8044 53.3387 62.4212 53.4597 63.1152 53.4597C63.8093 53.4597 64.4268 53.3388 64.9482 53.1013C65.4695 52.8639 65.9139 52.5297 66.2627 52.1121C66.6111 51.6943 66.8721 51.1956 67.041 50.6277C67.2077 50.0635 67.293 49.4476 67.293 48.7917C67.2929 48.1396 67.2077 47.52 67.041 46.9558L66.9775 46.7468C66.8099 46.2652 66.5718 45.8379 66.2666 45.4724C65.9174 45.0547 65.4763 44.7172 64.9512 44.4753C64.4297 44.2317 63.8129 44.1091 63.1152 44.1091ZM39.9805 44.1033C39.2571 44.1033 38.5998 44.2253 38.0674 44.4734C37.535 44.7233 37.0869 45.063 36.7344 45.488C36.383 45.913 36.1172 46.4148 35.9482 46.99C35.7797 47.558 35.6953 48.1815 35.6953 48.8337C35.6953 49.5006 35.7829 50.1198 35.958 50.6804C36.1335 51.2447 36.4167 51.7397 36.7949 52.1501C37.1768 52.5642 37.6654 52.8868 38.2529 53.114C38.8368 53.3394 39.5422 53.4554 40.3574 53.4529C42.0318 53.4474 42.9135 53.0763 43.2734 52.8748C43.3373 52.8389 43.3981 52.7766 43.3223 52.5984L42.9443 51.5388C42.8869 51.3835 42.7307 51.4365 42.7256 51.4382C42.3106 51.5929 41.7228 51.8706 40.3457 51.8669C39.4497 51.8655 38.781 51.6005 38.3623 51.1853C37.9364 50.7602 37.7235 50.1408 37.6904 49.2615L43.4932 49.2664C43.4991 49.2662 43.6455 49.2614 43.6611 49.116C43.6674 49.0544 43.8603 47.9285 43.4883 46.6277L43.4844 46.6267C43.3389 46.0807 42.9772 45.527 42.7422 45.2742C42.3677 44.8749 42.0041 44.5931 41.6406 44.4392C41.1157 44.2165 40.5508 44.1023 39.9805 44.1033ZM86.3633 44.1033C85.6398 44.1033 84.9817 44.2253 84.4492 44.4734C83.9169 44.7233 83.4687 45.0631 83.1162 45.488C82.7642 45.913 82.5 46.415 82.3311 46.99C82.1621 47.558 82.0762 48.1815 82.0762 48.8337C82.0762 49.5006 82.1648 50.1198 82.3389 50.6804C82.5148 51.2447 82.7978 51.7397 83.1797 52.1501C83.5616 52.5642 84.0502 52.8868 84.6377 53.114C85.2216 53.3394 85.9306 53.4554 86.7422 53.4529C88.4166 53.4474 89.2982 53.0763 89.6582 52.8748C89.7224 52.8389 89.7825 52.7767 89.707 52.5984L89.3291 51.5388C89.2726 51.3854 89.1197 51.4354 89.1113 51.4382C88.6964 51.5929 88.1084 51.8706 86.7314 51.8669C85.8317 51.8655 85.1667 51.6005 84.748 51.1853C84.3221 50.7602 84.1092 50.1409 84.0762 49.2615L89.8789 49.2664C89.8879 49.2661 90.0314 49.2598 90.0469 49.116C90.0531 49.0544 90.2456 47.9285 89.874 46.6277L89.8662 46.6267C89.7204 46.0808 89.36 45.5271 89.125 45.2742C88.7504 44.8748 88.386 44.5931 88.0225 44.4392C87.4977 44.2166 86.9335 44.1023 86.3633 44.1033ZM78.915 44.0857C78.1956 44.0857 77.5568 44.2078 77.0098 44.4509C76.4626 44.6939 75.9991 45.0303 75.6318 45.448C75.2647 45.8657 74.9861 46.3645 74.7988 46.9324C74.6134 47.4965 74.5196 48.1155 74.5195 48.7712C74.5195 50.1857 74.9017 51.3335 75.6582 52.1726C76.4147 53.0151 77.5529 53.4401 79.0361 53.4402C79.9137 53.4402 80.8136 53.2629 81.46 53.0076C81.46 53.0076 81.5839 52.9481 81.5303 52.8044L81.1074 51.6472L81.0811 51.5945C81.0123 51.4952 80.8877 51.5437 80.8877 51.5437C80.6391 51.6386 80.3735 51.7263 80.0908 51.7703C79.8059 51.815 79.4885 51.8376 79.1543 51.8376C78.3281 51.8376 77.6673 51.5912 77.1973 51.1042C76.7235 50.6169 76.4592 49.8329 76.4629 48.7703C76.4655 47.8029 76.6996 47.0773 77.1201 46.5203C77.5351 45.9707 78.174 45.6843 79.0186 45.6843C79.7236 45.6843 80.2636 45.7665 80.8291 45.9431C80.8335 45.945 80.9642 45.9982 81.0273 45.825C81.1775 45.411 81.2881 45.1141 81.4492 44.6599C81.4948 44.5298 81.3835 44.4745 81.3428 44.4587C81.1209 44.3723 80.5968 44.2304 80.2002 44.1707C79.8294 44.1143 79.3996 44.0857 78.915 44.0857ZM26.7236 44.0896C26.2903 44.0896 25.5886 44.1483 25.1699 44.2322C25.1598 44.2341 23.9041 44.4787 23.3848 44.8845C23.3779 44.889 23.2728 44.9599 23.333 45.114L23.7441 46.2136C23.7947 46.3548 23.932 46.3083 23.9346 46.3074C23.9346 46.3074 23.978 46.2899 24.0293 46.2595C25.142 45.6549 26.5527 45.6736 26.5527 45.6736C27.177 45.6736 27.6622 45.8003 27.9854 46.0476C28.3011 46.2898 28.4619 46.6557 28.4619 47.4246V47.6697C27.9744 47.5991 27.5226 47.5577 27.5078 47.5564L27.502 47.5427C27.2669 47.5255 26.9622 47.5173 26.5986 47.5173C26.103 47.5173 25.6218 47.5781 25.1738 47.699C24.7221 47.8206 24.3147 48.0099 23.9658 48.2605C23.616 48.5095 23.3274 48.8349 23.124 49.2126C22.9188 49.5937 22.8145 50.041 22.8145 50.5466C22.8145 51.0596 22.9038 51.5032 23.0801 51.866C23.2528 52.2258 23.5132 52.5371 23.8369 52.7712C24.1589 53.0049 24.5568 53.1775 25.0156 53.28C25.471 53.3837 25.9853 53.4363 26.5508 53.4363C27.1456 53.4363 27.7368 53.3861 28.3096 53.2898C28.7975 53.2058 29.2837 53.1122 29.7676 53.0076C29.9563 52.9642 30.1654 52.9076 30.1748 52.905C30.318 52.8688 30.3076 52.7156 30.3076 52.7156L30.3037 47.4392C30.3037 46.2813 29.9937 45.4198 29.3818 44.8884C28.7723 44.3573 27.8802 44.0896 26.7236 44.0896ZM32.3604 40.5789C32.2633 40.579 32.1945 40.6566 32.1943 40.7527V53.0906C32.1944 53.1871 32.2633 53.2662 32.3604 53.2664H33.8965C33.9934 53.2664 34.0624 53.1872 34.0625 53.0906V40.7527C34.0623 40.6565 33.9933 40.5789 33.8965 40.5789H32.3604ZM73.085 44.1912C72.3578 44.1457 71.9534 44.2677 71.5898 44.4304C71.2308 44.592 70.8336 44.8517 70.6133 45.1521L70.6123 44.449C70.6123 44.3523 70.5438 44.2743 70.4463 44.2742H68.9629C68.8667 44.2742 68.7969 44.3522 68.7969 44.449V53.0603C68.797 53.1067 68.8148 53.1515 68.8477 53.1843C68.8806 53.2172 68.926 53.236 68.9727 53.2361H70.4932C70.5396 53.2359 70.5844 53.2171 70.6172 53.1843C70.65 53.1515 70.6679 53.1067 70.668 53.0603V48.7361C70.668 48.1574 70.7321 47.5823 70.8594 47.2195C70.985 46.8608 71.1558 46.5741 71.3662 46.3689C71.5669 46.1708 71.8125 46.0237 72.082 45.9402C72.3352 45.8677 72.598 45.8308 72.8613 45.8308C73.1604 45.8309 73.4878 45.907 73.4961 45.9089C73.6077 45.9214 73.6702 45.853 73.708 45.7527C73.8075 45.4886 74.0892 44.698 74.1445 44.5398L74.1543 44.5027C74.1544 44.4817 74.1497 44.4606 74.1416 44.4412C74.1335 44.4217 74.1215 44.4041 74.1064 44.3894C74.0914 44.3747 74.0733 44.3629 74.0537 44.3552C73.954 44.3177 73.4626 44.2146 73.085 44.1912ZM26.8877 48.9802C27.4139 48.9896 27.9388 49.0344 28.459 49.114V51.7419H28.46C28.4472 51.7447 27.7182 51.8996 26.8955 51.949C25.7336 52.0187 25.2105 51.6224 25.1992 51.6121L25.1953 51.6101C24.9682 51.4293 24.9365 51.3849 24.8613 51.2673C24.7464 51.0904 24.6876 50.8386 24.6875 50.5164C24.6875 50.0107 24.8572 49.6437 25.2061 49.3982C25.2183 49.3856 25.724 48.9658 26.8877 48.9802ZM63.1191 45.6775C63.8829 45.6775 64.4263 45.9405 64.7861 46.4802C65.1503 47.0261 65.333 47.8027 65.333 48.7917L65.3242 49.1501C65.2838 49.9697 65.1029 50.628 64.7861 51.1121C64.4248 51.6578 63.8791 51.9255 63.1191 51.9255C62.359 51.9255 61.8152 51.6595 61.459 51.115C61.1003 50.5653 60.9189 49.781 60.9189 48.7917C60.919 47.8027 61.1014 47.0261 61.459 46.4802C61.8145 45.9379 62.3553 45.6775 63.1191 45.6775ZM39.8447 45.6335C40.6048 45.6335 41.1079 45.9317 41.4678 46.4724C41.7061 46.8297 41.8103 47.3044 41.8496 47.8357L37.7188 47.8347C37.8007 47.2855 37.9518 46.8276 38.1885 46.4724C38.5439 45.9302 39.0846 45.6336 39.8447 45.6335ZM86.2266 45.6335C86.9867 45.6335 87.4907 45.9315 87.8506 46.4724C88.0893 46.8297 88.1935 47.3044 88.2324 47.8357L84.1006 47.8347C84.1825 47.2855 84.3333 46.8276 84.5703 46.4724C84.9254 45.9302 85.4666 45.6337 86.2266 45.6335Z" fill="white"/>
</g>
<defs>
<clipPath id="clip0_2358_6449">
<rect width="100" height="100" fill="white" transform="translate(0.287109 0.937256)"/>
</clipPath>
</defs>
</svg>
