<svg width="101" height="101" viewBox="0 0 101 101" fill="none" xmlns="http://www.w3.org/2000/svg">
<g clip-path="url(#clip0_2358_549)">
<g clip-path="url(#clip1_2358_549)">
<mask id="mask0_2358_549" style="mask-type:luminance" maskUnits="userSpaceOnUse" x="0" y="36" width="101" height="30">
<path d="M100.873 36.2705H0.873047V65.6038H100.873V36.2705Z" fill="white"/>
</mask>
<g mask="url(#mask0_2358_549)">
<path d="M15.913 36.2705C24.243 36.2705 30.963 42.8247 30.963 50.9372C30.963 59.0496 24.243 65.6038 15.913 65.6038C7.61305 65.6136 0.883047 59.0594 0.873047 50.9761C0.873047 50.9664 0.873047 50.9469 0.873047 50.9372C0.873047 42.8247 7.59305 36.2705 15.913 36.2705ZM15.913 40.1855C9.83305 40.1758 4.89305 44.9673 4.88305 50.8885C4.88305 50.908 4.88305 50.9177 4.88305 50.9372C4.86305 56.8584 9.78305 61.6791 15.863 61.6888C15.883 61.6888 15.893 61.6888 15.913 61.6888C21.993 61.7083 26.943 56.9168 26.953 50.9956C26.953 50.9761 26.953 50.9567 26.953 50.9372C26.973 45.016 22.053 40.1953 15.973 40.1855C15.953 40.1855 15.933 40.1855 15.913 40.1855ZM41.503 42.0359C41.703 41.9482 41.903 42.1333 41.903 42.2404V46.4378H49.933C50.023 46.4378 50.233 46.6424 50.233 46.73L50.833 49.1744L51.433 51.6189L51.523 51.9111L51.613 51.6189L53.123 46.7203C53.123 46.5255 53.333 46.4281 53.433 46.4281H57.4431C57.5331 46.4281 57.743 46.6326 57.743 46.7203L59.343 51.9111L59.4431 51.6189L60.753 46.7203C60.753 46.5255 60.943 46.4281 61.053 46.4281H71.273C71.373 46.4281 71.483 46.6326 71.483 46.7203V59.7411C71.483 59.9358 71.273 60.0332 71.183 60.0332H66.063C65.873 60.0332 65.7631 59.8385 65.7631 59.7411V47.4215L61.9631 59.7411C61.9631 59.9164 61.813 60.0138 61.7131 60.0332H57.453C57.363 60.0332 57.153 59.8385 57.153 59.7411L56.353 57.1018L55.453 54.2581L53.633 59.7411C53.633 59.9358 53.433 60.0332 53.333 60.0332H49.123C49.023 60.0332 48.823 59.8385 48.823 59.7411L45.013 47.4215V50.5476C45.013 50.7521 44.803 50.8398 44.713 50.8398H41.793V54.1705C41.793 55.1541 42.303 55.5436 43.203 55.5436C43.603 55.5436 44.103 55.4462 44.603 55.2417C44.693 55.1541 44.903 55.2417 44.903 55.4462V59.3515C44.003 59.8482 42.703 60.1404 41.293 60.1404C37.993 60.1404 36.183 58.6698 36.183 55.4462V50.8398H34.873C34.683 50.8398 34.573 50.645 34.573 50.5476V46.8371C34.573 46.6424 34.783 46.545 34.873 46.545H36.183V43.896C36.183 43.7012 36.273 43.6038 36.483 43.6038L41.503 42.0359ZM93.253 46.1457C97.663 46.1457 100.873 49.3692 100.873 53.0895C100.873 56.7999 97.663 60.0332 93.153 60.0332C88.733 60.0332 85.533 56.8097 85.533 53.0895C85.533 49.3692 88.733 46.1457 93.253 46.1457ZM78.003 42.0456C78.213 42.0456 78.303 42.143 78.303 42.2501V59.6437C78.303 59.8482 78.113 59.9358 78.003 59.9358H72.8931C72.693 59.9358 72.593 59.7411 72.593 59.6437V42.3281C72.593 42.1333 72.7931 42.0359 72.8931 42.0359L78.003 42.0456ZM84.723 46.4476C84.933 46.4476 85.023 46.6521 85.023 46.7397V59.556C85.023 59.7508 84.8231 59.8482 84.723 59.8482H79.6131C79.413 59.8482 79.313 59.6437 79.313 59.556V46.7203C79.313 46.5255 79.5131 46.4281 79.6131 46.4281L84.723 46.4476ZM12.203 51.5312C13.903 51.5312 15.313 52.9044 15.313 54.56C15.313 56.2254 13.913 57.5985 12.203 57.5985C10.493 57.5985 9.09305 56.2351 9.09305 54.5698C9.10305 52.8947 10.503 51.5312 12.203 51.5312ZM19.633 51.5312C21.323 51.5312 22.743 52.9044 22.743 54.56C22.743 56.2254 21.333 57.5985 19.633 57.5985C17.933 57.5985 16.523 56.2351 16.523 54.5698C16.523 52.8947 17.933 51.5312 19.633 51.5312ZM93.253 50.8495C91.953 50.8495 91.053 51.9305 91.053 53.1966C91.053 54.4724 92.053 55.5436 93.253 55.5436C94.563 55.5436 95.4631 54.4724 95.4631 53.1966C95.4631 51.8234 94.453 50.7521 93.253 50.8495ZM19.633 44.2953C21.323 44.2953 22.743 45.6587 22.743 47.3241C22.743 48.9894 21.333 50.3626 19.633 50.3626C17.933 50.3626 16.523 48.9894 16.523 47.3338C16.523 45.6587 17.933 44.2953 19.633 44.2953ZM12.203 44.2953C13.903 44.2953 15.313 45.6587 15.313 47.3241C15.313 48.9894 13.913 50.3626 12.203 50.3626C10.493 50.3626 9.09305 48.9894 9.09305 47.3338C9.10305 45.6587 10.503 44.2953 12.203 44.2953ZM71.383 42.0359C71.473 42.0359 71.583 42.1333 71.683 42.2404V45.3666C71.683 45.5613 71.483 45.6587 71.383 45.6587H66.063C65.873 45.6587 65.7631 45.464 65.7631 45.3666V42.3378C65.7631 42.1333 65.9731 42.0359 66.063 42.0359H71.383ZM84.8231 42.0359C85.023 42.0359 85.123 42.1333 85.123 42.2404V45.3666C85.123 45.5613 84.923 45.6587 84.8231 45.6587H79.503C79.303 45.6587 79.203 45.464 79.203 45.3666V42.3378C79.203 42.1333 79.413 42.0359 79.503 42.0359H84.8231Z" fill="#E4E4E4"/>
</g>
</g>
</g>
<defs>
<clipPath id="clip0_2358_549">
<rect width="100" height="100" fill="white" transform="translate(0.873047 0.937256)"/>
</clipPath>
<clipPath id="clip1_2358_549">
<rect width="100" height="29.3333" fill="white" transform="translate(0.873047 36.2705)"/>
</clipPath>
</defs>
</svg>
