<svg width="101" height="101" viewBox="0 0 101 101" fill="none" xmlns="http://www.w3.org/2000/svg">
<g clip-path="url(#clip0_2358_6854)">
<path d="M60.554 47.3973H58.0613C58.0101 47.1987 57.9719 46.9684 57.9465 46.707C57.8958 46.1982 57.8958 45.6858 57.9465 45.1769C57.9719 44.9161 58.0101 44.686 58.0613 44.4862H64.2734V63.6323C63.9624 63.6849 63.6489 63.7221 63.334 63.7436C63.0212 63.767 62.7077 63.7793 62.394 63.7806C62.0935 63.7788 61.7931 63.7664 61.4936 63.7436C61.1788 63.7219 60.8654 63.6846 60.5546 63.6317V47.3965V47.3969L60.554 47.3973ZM82.1795 52.2122C82.1795 51.5153 82.0835 50.8499 81.8923 50.2149C81.7003 49.5809 81.4183 49.0274 81.0487 48.5544C80.6773 48.0821 80.2047 47.7023 79.6295 47.4164C79.0545 47.1302 78.3705 46.9869 77.5781 46.9869C76.0189 46.9869 74.8237 47.4479 73.9931 48.3681C73.1623 49.2885 72.6577 50.5698 72.4784 52.2122H82.1797H82.1795ZM72.4402 54.9737C72.4914 57.0637 73.0475 58.5941 74.1083 59.564C75.1687 60.5342 76.7347 61.0201 78.8053 61.0201C80.6197 61.0201 82.3453 60.7086 83.9813 60.0866C84.1853 60.4598 84.3513 60.914 84.4793 61.4489C84.6049 61.9697 84.6819 62.5005 84.7093 63.0349C83.8663 63.3841 82.9389 63.6442 81.9299 63.8188C80.9195 63.9924 79.8013 64.08 78.5751 64.08C76.7851 64.08 75.2511 63.8367 73.9737 63.352C72.6953 62.8663 71.6408 62.182 70.81 61.2992C69.9794 60.4162 69.372 59.371 68.9886 58.1641C68.6054 56.9578 68.4132 55.6327 68.4132 54.1896C68.4132 52.7715 68.5984 51.4464 68.9692 50.2145C69.3392 48.9836 69.9092 47.9135 70.6752 47.0054C71.4424 46.0969 72.4072 45.3757 73.5705 44.8407C74.7331 44.3058 76.1069 44.0379 77.6925 44.0379C79.0471 44.0379 80.2357 44.2622 81.2585 44.7099C82.2805 45.1576 83.1371 45.7736 83.8275 46.5573C84.5175 47.3412 85.0415 48.2743 85.3996 49.356C85.7572 50.4388 85.9368 51.6142 85.9368 52.8834C85.9368 53.2318 85.9232 53.5986 85.8978 53.984C85.8768 54.314 85.8513 54.6436 85.8214 54.9729H72.4394L72.4398 54.9735L72.4402 54.9737ZM90.1184 44.4862C90.3852 44.4391 90.6538 44.4018 90.9236 44.3745C91.1786 44.3502 91.4476 44.3375 91.7288 44.3375C92.01 44.3375 92.2908 44.3502 92.5724 44.3745C92.8534 44.3998 93.1092 44.4372 93.3394 44.4862C93.4154 44.8596 93.4922 45.3515 93.5686 45.9605C93.6452 46.5702 93.6842 47.086 93.6842 47.5092C94.2208 46.6636 94.9302 45.9291 95.8118 45.307C96.6938 44.6854 97.8249 44.3739 99.2051 44.3739C99.4095 44.3739 99.6203 44.3805 99.8377 44.393C100.024 44.4027 100.21 44.421 100.394 44.4485C100.444 44.6727 100.484 44.9094 100.509 45.1578C100.534 45.4064 100.547 45.6679 100.547 45.9414C100.547 46.2402 100.528 46.5515 100.49 46.8742C100.453 47.1862 100.408 47.4972 100.356 47.8071C100.149 47.7574 99.936 47.7324 99.7227 47.7325H99.2047C98.5147 47.7325 97.8562 47.8259 97.23 48.0122C96.6032 48.1991 96.0412 48.5289 95.5428 49.0011C95.0448 49.4742 94.6482 50.1213 94.3548 50.9424C94.0602 51.7635 93.9136 52.8209 93.9136 54.1145V63.6317C93.6026 63.6843 93.289 63.7218 92.974 63.7434C92.6294 63.7684 92.316 63.7804 92.035 63.7804C91.7215 63.7792 91.408 63.7669 91.0954 63.7434C90.7679 63.7203 90.4416 63.683 90.1174 63.6319V44.4864L90.1184 44.4862ZM63.2074 34.2631C63.2074 34.7098 63.1245 35.1529 62.9628 35.5709C62.5331 35.7284 62.0778 35.8091 61.6188 35.8092H61.6132C61.1541 35.8092 60.6988 35.7286 60.2692 35.5711C60.1071 35.153 60.0241 34.7098 60.0242 34.2629V34.2571C60.0242 33.7967 60.111 33.3558 60.2682 32.9489C60.6978 32.7912 61.1533 32.7106 61.6126 32.7109H61.6178C62.091 32.7109 62.5438 32.7953 62.9618 32.9489C63.1237 33.3671 63.2066 33.8102 63.2064 34.2571V34.2629H63.207L63.2074 34.2631ZM67.8926 33.2275H64.1774L66.8042 30.6706C66.3911 30.1059 65.884 29.6125 65.3038 29.2106L62.6766 31.7675V28.1512C62.3272 28.094 61.9736 28.0651 61.6194 28.0649H61.6126C61.2522 28.0649 60.8992 28.0949 60.5552 28.1512V31.7675L57.9273 29.2104C57.6379 29.4108 57.3663 29.6346 57.1153 29.8792L57.1141 29.8804C56.8631 30.1249 56.6335 30.3892 56.4275 30.6707L59.0553 33.2275H55.3393C55.3393 33.2275 55.2509 33.9069 55.2509 34.2581V34.2623C55.2509 34.6135 55.2815 34.9577 55.3395 35.2927H59.0555L56.4273 37.8493C56.8407 38.4138 57.3478 38.9074 57.9279 39.3097L60.5554 36.7529V40.3694C60.899 40.4255 61.2514 40.4551 61.6114 40.4555H61.6204C61.9742 40.4552 62.3274 40.4264 62.6764 40.3694V36.7529L65.304 39.3103C65.5934 39.1096 65.8652 38.8859 66.1166 38.6414H66.1172C66.3681 38.3966 66.5976 38.1321 66.8036 37.8504L64.1768 35.2929H67.8928C67.9504 34.9581 67.9808 34.6151 67.9808 34.2647V34.2557C67.9808 33.9112 67.9512 33.5676 67.8928 33.2279L67.8926 33.2275ZM0.546875 63.11L10.8998 47.4347H1.77368C1.69728 46.9869 1.65908 46.4898 1.65908 45.9422C1.65908 45.4199 1.69788 44.9342 1.77448 44.486H16.5366L16.7286 44.9721L6.29912 60.6841H16.0764C16.153 61.1818 16.1916 61.6915 16.1916 62.2138C16.1916 62.7121 16.1532 63.1846 16.0766 63.6323H0.738877L0.546875 63.1094V63.11ZM30.4163 54.6375C30.0329 54.5883 29.5471 54.539 28.9593 54.4886C28.3713 54.4394 27.8729 54.414 27.4645 54.414C25.8793 54.414 24.6715 54.7002 23.8413 55.2725C23.0099 55.8452 22.5953 56.7156 22.5953 57.885C22.5953 58.6313 22.7353 59.2161 23.0167 59.6389C23.2975 60.0625 23.6493 60.3853 24.0711 60.6093C24.4931 60.8332 24.9591 60.9702 25.4701 61.0201C25.9811 61.0697 26.4671 61.0944 26.9271 61.0944C27.5151 61.0944 28.1221 61.0633 28.7485 61.001C29.3745 60.9393 29.9305 60.8456 30.4165 60.7212V54.6375H30.4163ZM30.4163 51.0179C30.4163 49.5493 30.0329 48.5293 29.2663 47.957C28.4991 47.3846 27.3873 47.0985 25.9303 47.0985C25.0349 47.0985 24.1983 47.1674 23.4189 47.304C22.6476 47.4388 21.8855 47.6193 21.1368 47.8446C20.6508 47.0235 20.4088 46.0414 20.4088 44.8962C21.2768 44.6229 22.2352 44.4115 23.2839 44.2622C24.3319 44.1127 25.3415 44.0379 26.3133 44.0379C28.8693 44.0379 30.8119 44.6044 32.1413 45.7364C33.4701 46.8694 34.1353 48.6792 34.1353 51.1668V63.147C33.2401 63.3459 32.1541 63.5511 30.8761 63.7627C29.5839 63.9751 28.2756 64.0812 26.9651 64.08C25.7127 64.08 24.5811 63.9685 23.5719 63.7444C22.5619 63.52 21.7054 63.16 21.0026 62.6617C20.299 62.1645 19.7566 61.5299 19.3726 60.7588C18.9894 59.9874 18.7976 59.0545 18.7976 57.9595C18.7976 56.89 19.0212 55.9506 19.4686 55.1415C19.9082 54.3422 20.5317 53.6525 21.2902 53.1263C22.057 52.5922 22.9389 52.1935 23.9359 51.9326C24.9331 51.6712 25.9807 51.5404 27.0799 51.5404C27.8979 51.5404 28.5689 51.5595 29.0931 51.5968C29.6167 51.6338 30.0579 51.6774 30.4159 51.7273V51.0181L30.4163 51.0179ZM42.0724 60.4966C42.5565 60.6707 43.0576 60.7958 43.568 60.87C44.0792 60.9449 44.7432 60.9821 45.562 60.9821C46.482 60.9821 47.3252 60.8394 48.0921 60.5532C48.8593 60.2677 49.5173 59.8256 50.0669 59.2282C50.6165 58.6313 51.0509 57.8791 51.3705 56.97C51.6899 56.0625 51.8501 54.9868 51.8501 53.7421C51.8501 51.7518 51.4725 50.1719 50.7189 49.0023C49.9643 47.8331 48.7309 47.2484 47.0188 47.2484C46.3798 47.2484 45.7658 47.3601 45.1788 47.5844C44.59 47.8082 44.0664 48.1442 43.6062 48.592C43.1462 49.0397 42.7756 49.6062 42.4946 50.2902C42.2126 50.9751 42.0726 51.7892 42.0726 52.7349V60.4972V60.4968L42.0724 60.4966ZM38.2764 44.4859C38.5364 44.436 38.7984 44.3988 39.0624 44.3741C39.3365 44.3494 39.6117 44.3371 39.887 44.3371C40.1418 44.3371 40.41 44.35 40.6918 44.3741C40.9726 44.3994 41.241 44.437 41.497 44.486C41.5222 44.5367 41.5546 44.6914 41.593 44.9529C41.631 45.2143 41.6694 45.494 41.708 45.7923C41.7464 46.0911 41.7846 46.3778 41.823 46.6507C41.8614 46.9248 41.8806 47.0991 41.8806 47.1736C42.1356 46.7759 42.4426 46.3899 42.8006 46.0167C43.1586 45.6433 43.5872 45.3075 44.0856 45.0093C44.584 44.7105 45.146 44.4744 45.7726 44.2999C46.3986 44.1259 47.0952 44.0381 47.8623 44.0381C49.0123 44.0381 50.0797 44.225 51.0643 44.5984C52.0479 44.9721 52.8909 45.5497 53.5943 46.3336C54.2969 47.1176 54.8463 48.1129 55.2429 49.3192C55.6389 50.5269 55.8369 51.9511 55.8369 53.5929C55.8369 56.877 54.9229 59.4466 53.0949 61.2998C51.2669 63.1536 48.6795 64.08 45.3308 64.08C44.7682 64.08 44.1934 64.0427 43.6054 63.9681C43.017 63.8931 42.5062 63.7935 42.0714 63.6697V72.4402C41.7475 72.4915 41.4215 72.5288 41.0942 72.5521C40.7488 72.5764 40.4354 72.5891 40.1542 72.5891C39.8408 72.5878 39.5275 72.5755 39.215 72.5521C38.9002 72.5304 38.5867 72.493 38.2758 72.4402V44.486L38.2764 44.4859Z" fill="white"/>
</g>
<defs>
<clipPath id="clip0_2358_6854">
<rect width="100" height="100" fill="white" transform="translate(0.546875 0.326904)"/>
</clipPath>
</defs>
</svg>
