<svg width="101" height="101" viewBox="0 0 101 101" fill="none" xmlns="http://www.w3.org/2000/svg">
<g clip-path="url(#clip0_2358_7236)">
<path d="M48.1971 25.788V56.8254H22.4585L48.1971 25.788ZM48.1971 14.6501C48.1971 18.0592 46.8413 21.3286 44.4278 23.7392C42.0143 26.1498 38.741 27.504 35.3278 27.504C31.9147 27.504 28.6413 26.1498 26.2279 23.7392C23.8144 21.3286 22.4585 18.0592 22.4585 14.6501L48.1971 14.6501ZM52.4373 56.8281C52.4373 53.4191 53.7932 50.1496 56.2067 47.7391C58.6201 45.3285 61.8935 43.9743 65.3066 43.9743C68.7198 43.9743 71.9931 45.3285 74.4066 47.7391C76.8201 50.1496 78.1759 53.4191 78.1759 56.8281H52.4373ZM52.4373 45.6903V14.6501H78.1814L52.4373 45.6876V45.6903ZM66.832 83.3829C68.1556 83.4125 69.4373 82.9182 70.3976 82.0079L72.1653 83.9137C70.9979 85.1127 69.3789 86.0037 66.8623 86.0037C62.5477 86.0037 59.7586 83.1437 59.7586 79.277C59.7411 78.3908 59.9025 77.5102 60.2332 76.6877C60.5638 75.8651 61.057 75.1175 61.6832 74.4895C62.3094 73.8615 63.0559 73.3658 63.8781 73.0322C64.7002 72.6986 65.5812 72.5338 66.4686 72.5476C70.7528 72.5476 73.1813 75.8037 72.9665 80.3193H62.8396C63.1975 82.1949 64.5192 83.3912 66.8237 83.3912M69.9075 78.166C69.6322 76.4142 68.5859 75.1244 66.4933 75.1244C64.5467 75.1244 63.1893 76.2245 62.8396 78.166H69.9103H69.9075ZM0.337891 83.2372L8.12995 75.3279H0.522367V72.8474H11.7451V75.3774L3.95308 83.2839H11.8553V85.7672H0.337891V83.2372ZM20.6028 83.3802C21.9264 83.4097 23.2081 82.9155 24.1684 82.0051L25.9361 83.9109C24.7686 85.11 23.1496 86.001 20.6331 86.001C16.3185 86.001 13.5293 83.1409 13.5293 79.2743C13.5118 78.3881 13.6733 77.5075 14.0039 76.6849C14.3346 75.8624 14.8277 75.1148 15.454 74.4868C16.0802 73.8587 16.8266 73.3631 17.6488 73.0295C18.471 72.6958 19.352 72.531 20.2393 72.5448C24.5236 72.5448 26.9521 75.8009 26.7373 80.3166H16.6159C16.9738 82.1921 18.2954 83.3884 20.6 83.3884M23.6838 78.1633C23.4085 76.4115 22.3622 75.1217 20.2696 75.1217C18.323 75.1217 16.9655 76.2217 16.6159 78.1633H23.6866H23.6838ZM43.5715 79.2715C43.5715 75.1464 46.6635 72.5503 50.0694 72.5503C50.8867 72.5395 51.6964 72.7074 52.4417 73.0423C53.1871 73.3773 53.85 73.8711 54.384 74.4891V66.8659H57.1374V85.7315H54.384V83.9522C53.8602 84.5956 53.1983 85.1131 52.4471 85.4664C51.696 85.8196 50.8749 85.9995 50.0447 85.9927C46.7406 85.9927 43.5742 83.3802 43.5742 79.2743M54.5382 79.2468C54.5165 78.4402 54.2572 77.6579 53.7927 76.9977C53.3283 76.3375 52.6792 75.8288 51.9268 75.5351C51.1743 75.2414 50.3519 75.1758 49.5623 75.3466C48.7727 75.5173 48.0511 75.9168 47.4877 76.4951C46.9242 77.0733 46.544 77.8046 46.3945 78.5976C46.245 79.3906 46.3329 80.2099 46.6473 80.9532C46.9616 81.6966 47.4884 82.3308 48.1617 82.7766C48.835 83.2225 49.625 83.4602 50.4329 83.4599C52.8008 83.4599 54.5354 81.5734 54.5354 79.2468M74.7673 82.9869L77.2618 81.6944C77.5916 82.2816 78.0757 82.7677 78.6619 83.1001C79.2481 83.4326 79.914 83.5989 80.5879 83.5809C82.1463 83.5809 82.9558 82.7834 82.9558 81.8759C82.9558 80.8418 81.4497 80.6108 79.8114 80.2726C77.6087 79.8051 75.3152 79.0818 75.3152 76.4225C75.3152 74.3791 77.2618 72.4898 80.3263 72.5173C82.741 72.5173 84.539 73.4744 85.5577 75.0199L83.2449 76.285C82.9254 75.8123 82.4904 75.4288 81.9812 75.1709C81.4719 74.913 80.9052 74.7891 80.3346 74.8109C78.8533 74.8109 78.0988 75.5342 78.0988 76.3619C78.0988 77.2915 79.2938 77.55 81.1661 77.9652C83.2972 78.4328 85.7092 79.1285 85.7092 81.8154C85.7092 83.5974 84.1508 86.001 80.4612 85.9762C77.7629 85.9762 75.8631 84.89 74.77 82.9786M93.1901 79.9893L91.0067 82.3681V85.7232H88.2533V66.8577H91.0067V79.2138L96.8521 72.8061H100.206L95.1395 78.3338L100.338 85.726H97.2211L93.1929 79.9893H93.1901ZM35.2507 72.5476C31.9742 72.5476 29.2346 74.6652 29.2346 78.1853V85.7342H32.0431V78.5345C32.0431 76.417 33.2628 75.1464 35.3471 75.1464C37.4314 75.1464 38.4667 76.4115 38.4667 78.5345V85.7342H41.2586V78.1853C41.2586 74.6707 38.5052 72.5476 35.2425 72.5476" fill="#E4E4E4"/>
</g>
<defs>
<clipPath id="clip0_2358_7236">
<rect width="100" height="100" fill="white" transform="translate(0.337891 0.326904)"/>
</clipPath>
</defs>
</svg>
