<svg width="101" height="101" viewBox="0 0 101 101" fill="none" xmlns="http://www.w3.org/2000/svg">
<path d="M50.4961 15.9722C69.849 15.9722 85.4961 31.6192 85.4961 50.9722C85.4961 70.3251 69.849 85.9722 50.4961 85.9722C31.1432 85.9722 15.4961 70.3251 15.4961 50.9722C15.4961 31.6192 31.1432 15.9722 50.4961 15.9722ZM50.4951 22.1489C34.5764 22.149 21.6719 35.0534 21.6719 50.9722C21.6719 66.8909 34.5764 79.7953 50.4951 79.7954C66.4139 79.7954 79.3193 66.891 79.3193 50.9722C79.3193 35.0534 66.4139 22.1489 50.4951 22.1489Z" fill="#191919"/>
<path d="M43.9064 54.2661C45.7257 54.2661 47.2005 52.7913 47.2005 50.972C47.2005 49.1527 45.7257 47.6779 43.9064 47.6779C42.0871 47.6779 40.6123 49.1527 40.6123 50.972C40.6123 52.7913 42.0871 54.2661 43.9064 54.2661Z" fill="#191919"/>
<path d="M35.2593 41.9136H33.6122C32.7887 41.9136 32.377 42.3253 32.377 43.1489V66.6195C32.377 67.8548 33.6122 69.09 34.8475 69.09H57.9064C58.7299 69.09 59.1417 68.6783 59.1417 67.8548V66.2077C59.1417 65.3842 58.7299 64.9724 57.9064 64.9724H37.3181C36.9064 64.9724 36.9064 64.5606 36.9064 64.5606V43.1489C36.4946 42.3253 36.0828 41.9136 35.2593 41.9136Z" fill="#191919"/>
<path d="M56.674 54.2661C58.4933 54.2661 59.9681 52.7913 59.9681 50.972C59.9681 49.1527 58.4933 47.6779 56.674 47.6779C54.8547 47.6779 53.3799 49.1527 53.3799 50.972C53.3799 52.7913 54.8547 54.2661 56.674 54.2661Z" fill="#191919"/>
<path d="M64.4976 32.855H43.0859C42.2624 32.855 41.8506 33.2667 41.8506 34.0903V35.7373C41.8506 36.5609 42.2624 36.9726 43.0859 36.9726H63.6741C64.0859 36.9726 64.0859 37.3844 64.0859 37.3844V58.7962C64.0859 59.6197 64.4976 60.0314 65.3212 60.0314H66.9682C67.7918 60.0314 68.2035 59.6197 68.2035 58.7962V35.3256C68.2035 34.0903 66.9682 32.855 65.7329 32.855H64.4976Z" fill="#191919"/>
</svg>
