<svg width="101" height="101" viewBox="0 0 101 101" fill="none" xmlns="http://www.w3.org/2000/svg">
<g clip-path="url(#clip0_2358_6471)">
<mask id="mask0_2358_6471" style="mask-type:luminance" maskUnits="userSpaceOnUse" x="0" y="38" width="22" height="26">
<path d="M20.1934 43.2066L11.6769 38.3738C11.4055 38.2192 11.0974 38.1378 10.7837 38.1378C10.47 38.1378 10.1619 38.2192 9.89046 38.3738L1.37251 43.2066C1.10147 43.3616 0.876548 43.5839 0.720188 43.8511C0.563829 44.1184 0.481507 44.4213 0.481445 44.7296V54.4023C0.481684 54.71 0.56412 55.0123 0.7205 55.2788C0.87688 55.5453 1.10172 55.7668 1.37251 55.921L5.63366 58.3431V63.2813C5.63402 63.3737 5.65905 63.4643 5.70625 63.5442C5.75345 63.624 5.82116 63.6903 5.90259 63.7363C5.98403 63.7823 6.07633 63.8065 6.17026 63.8064C6.26419 63.8063 6.35644 63.782 6.43779 63.7358L20.2021 55.9253C20.4732 55.7714 20.6983 55.55 20.8547 55.2834C21.0111 55.0168 21.0934 54.7143 21.0932 54.4065V44.7282C21.0916 44.4194 21.0076 44.1164 20.8497 43.8494C20.6919 43.5824 20.4656 43.3608 20.1934 43.2066Z" fill="white"/>
</mask>
<g mask="url(#mask0_2358_6471)">
<path d="M21.0845 44.2771L10.7859 50.1257L0.481445 44.2771V55.9743L5.63366 58.8965V64.7465L21.0845 55.9743V44.2771Z" fill="#191919"/>
<path d="M10.7859 49.5654L0.481445 43.7168L10.7859 37.8682L21.0845 43.7168L10.7859 49.5654Z" fill="#191919"/>
<path d="M10.6033 49.3874L0.546645 43.6784L0.481445 43.7169L10.7859 49.5655L21.0845 43.7169L20.8425 43.5758L10.6033 49.3874Z" fill="#191919"/>
<path d="M10.7859 49.638V49.5654L0.546645 43.751L0.481445 43.7894L10.7859 49.638Z" fill="#191919"/>
</g>
<path d="M97.8936 55.3901H96.3577L94.3641 49.3477L92.3864 55.3901H90.8665L88.2846 47.5169H89.8537L91.6344 53.4624H91.6503L93.6281 47.5169H95.1784L97.1561 53.4624H97.172L98.9454 47.5169H100.481L97.8936 55.3901ZM80.9953 48.4572C81.768 47.6594 82.7537 47.2605 83.9524 47.2605C85.1512 47.2605 86.1369 47.6594 86.9096 48.4572C87.6824 49.2551 88.0687 50.2524 88.0687 51.4492C88.0687 52.646 87.6824 53.6433 86.9096 54.4412C86.1369 55.2391 85.1512 55.638 83.9524 55.638C82.7537 55.638 81.768 55.2391 80.9953 54.4412C80.2226 53.6433 79.8362 52.646 79.8362 51.4492C79.8362 50.2524 80.2226 49.2551 80.9953 48.4572ZM82.1153 53.5194C82.3516 53.7656 82.6366 53.9618 82.9528 54.0958C83.2689 54.2299 83.6096 54.299 83.9539 54.299C84.2982 54.299 84.6389 54.2299 84.955 54.0958C85.2712 53.9618 85.5562 53.7656 85.7925 53.5194C86.3093 52.9998 86.5682 52.3117 86.5691 51.4549C86.5701 50.5982 86.3112 49.91 85.7925 49.3905C85.5562 49.1442 85.2712 48.9481 84.955 48.814C84.6389 48.6799 84.2982 48.6108 83.9539 48.6108C83.6096 48.6108 83.2689 48.6799 82.9528 48.814C82.6366 48.9481 82.3516 49.1442 82.1153 49.3905C81.5975 49.91 81.3387 50.5982 81.3387 51.4549C81.3387 52.3117 81.5971 52.9998 82.1138 53.5194H82.1153ZM78.6887 55.3901H77.1862V43.8881H78.6901L78.6887 55.3901ZM74.8491 43.7883C75.2607 43.7769 75.6703 43.8476 76.0532 43.9964L75.5301 45.2658C75.3142 45.172 75.0792 45.1281 74.8433 45.1376C74.4885 45.1245 74.1425 45.2488 73.8798 45.4838C73.6287 45.7146 73.5036 46.047 73.5046 46.4811V47.4784H75.5968V48.8277H73.5089V55.3573H72.005V48.8334H70.5025V47.4841H72.0065V46.4398C72.0065 45.6362 72.2677 44.9937 72.7903 44.5121C73.3129 44.0305 73.9991 43.7893 74.8491 43.7883ZM65.2387 59.0859C64.2912 59.0859 63.5184 58.8527 62.9205 58.3863C62.3602 57.9689 61.9161 57.419 61.6296 56.7878L63.0017 56.225C63.1606 56.6619 63.455 57.0387 63.8435 57.3021C64.2503 57.5883 64.74 57.7382 65.2402 57.7295C66.068 57.7295 66.719 57.4859 67.1933 56.9986C67.6675 56.5114 67.9047 55.8498 67.9047 55.0139V54.2588H67.8395C67.5549 54.665 67.1733 54.9962 66.7282 55.2234C66.2308 55.485 65.6738 55.6179 65.1098 55.6095C64.0743 55.6095 63.1808 55.2077 62.4294 54.4041C61.6779 53.6006 61.3021 52.6033 61.3021 51.4122C61.3021 50.223 61.6779 49.2257 62.4294 48.4202C63.1808 47.6147 64.0743 47.213 65.1098 47.2149C65.6738 47.2068 66.2306 47.3397 66.7282 47.601C67.1733 47.8282 67.5549 48.1594 67.8395 48.5655H67.9047V47.4727H69.342V54.9441C69.342 56.2938 68.9445 57.3197 68.1495 58.0216C67.3531 58.7289 66.3116 59.1097 65.2387 59.0859ZM65.3532 54.2659C65.6924 54.2705 66.0288 54.2041 66.34 54.0712C66.6512 53.9383 66.9302 53.742 67.1585 53.4952C67.654 52.9813 67.9018 52.2903 67.9018 51.4221C67.9018 50.554 67.654 49.863 67.1585 49.3491C66.9282 49.1052 66.6491 48.9108 66.3387 48.7781C66.0283 48.6455 65.6934 48.5774 65.3549 48.5782C65.0165 48.579 64.6819 48.6487 64.3721 48.7828C64.0624 48.917 63.7842 49.1127 63.5551 49.3577C63.0538 49.8772 62.8032 50.5654 62.8032 51.4221C62.8032 52.2789 63.0538 52.9671 63.5551 53.4866C63.7817 53.7341 64.0592 53.9315 64.3692 54.0656C64.6791 54.1997 65.0146 54.2675 65.3532 54.2645V54.2659ZM53.1609 48.4231C53.9336 47.6252 54.9193 47.2263 56.118 47.2263C57.3167 47.2263 58.3025 47.6252 59.0752 48.4231C59.8479 49.2209 60.2343 50.2182 60.2343 51.415C60.2343 52.6118 59.8479 53.6091 59.0752 54.407C58.3025 55.2049 57.3167 55.6038 56.118 55.6038C54.9193 55.6038 53.9336 55.2082 53.1609 54.417C52.3881 53.6191 52.0018 52.6218 52.0018 51.425C52.0018 50.2282 52.3881 49.2276 53.1609 48.4231ZM54.2809 53.4852C54.5172 53.7314 54.8022 53.9276 55.1183 54.0616C55.4345 54.1957 55.7752 54.2648 56.1195 54.2648C56.4638 54.2648 56.8045 54.1957 57.1206 54.0616C57.4368 53.9276 57.7218 53.7314 57.9581 53.4852C58.4749 52.9656 58.7338 52.2775 58.7347 51.4207C58.7357 50.564 58.4768 49.8758 57.9581 49.3563C57.7218 49.11 57.4368 48.9139 57.1206 48.7798C56.8045 48.6458 56.4638 48.5766 56.1195 48.5766C55.7752 48.5766 55.4345 48.6458 55.1183 48.7798C54.8022 48.9139 54.5172 49.11 54.2809 49.3563C53.7631 49.8758 53.5043 50.564 53.5043 51.4207C53.5043 52.2775 53.7641 52.9656 54.2838 53.4852H54.2809ZM50.7137 55.3573H49.2112V43.8525H50.7152L50.7137 55.3573ZM43.8113 55.6138C43.034 55.6387 42.2747 55.381 41.6785 54.89C41.3978 54.6558 41.1748 54.3621 41.0262 54.0309C40.8777 53.6997 40.8074 53.3397 40.8208 52.978C40.8062 52.5855 40.8913 52.1957 41.0684 51.8437C41.2455 51.4917 41.5089 51.1887 41.835 50.962C42.5111 50.4747 43.3442 50.2311 44.3343 50.2311C45.2172 50.2311 45.9416 50.3916 46.5076 50.7126V50.4875C46.5184 50.2261 46.4697 49.9657 46.3652 49.7252C46.2607 49.4846 46.1029 49.27 45.9035 49.097C45.4921 48.7456 44.9616 48.559 44.4169 48.5741C44.0011 48.5687 43.5916 48.674 43.2317 48.879C42.8958 49.0623 42.6385 49.3588 42.5073 49.7139L41.1352 49.1383C41.3206 48.6634 41.6858 48.2269 42.2305 47.8289C42.7753 47.4309 43.4944 47.2301 44.3879 47.2263C45.4118 47.2263 46.2613 47.5207 46.9365 48.1096C47.6117 48.6985 47.9497 49.5287 47.9507 50.6001V55.3573H46.5134V54.2645H46.4482C45.8455 55.164 44.9665 55.6138 43.8113 55.6138ZM44.0561 54.2645C44.6895 54.259 45.2961 54.0124 45.7484 53.5764C45.9863 53.3774 46.1774 53.13 46.3085 52.8513C46.4396 52.5726 46.5075 52.2692 46.5076 51.9621C46.0826 51.6192 45.4451 51.4478 44.5951 51.4478C43.8649 51.4478 43.3148 51.6031 42.9448 51.9137C42.7743 52.0427 42.6358 52.2081 42.5397 52.3974C42.4436 52.5867 42.3924 52.7949 42.3899 53.0065C42.3861 53.1894 42.4309 53.3701 42.5198 53.5307C42.6087 53.6914 42.7388 53.8265 42.897 53.9226C43.2392 54.1507 43.6443 54.27 44.0576 54.2645H44.0561ZM39.3965 45.508C39.2227 45.6798 38.9936 45.787 38.7484 45.8113C38.5032 45.8356 38.257 45.7755 38.0518 45.6412C37.8466 45.507 37.6951 45.307 37.6232 45.0752C37.5512 44.8434 37.5632 44.5942 37.6572 44.3702C37.7511 44.1461 37.9212 43.9611 38.1384 43.8465C38.3555 43.732 38.6064 43.6951 38.8482 43.7421C39.09 43.789 39.3077 43.9171 39.4642 44.1042C39.6207 44.2914 39.7064 44.5262 39.7066 44.7686C39.709 44.9061 39.6827 45.0427 39.6294 45.1699C39.5761 45.297 39.4968 45.4121 39.3965 45.508ZM39.3965 55.3573H37.8969V47.4841H39.3965V55.3573ZM27.1709 55.3573V43.8525H30.7496C32.5472 43.8525 33.985 44.3853 35.0629 45.451C36.1409 46.5167 36.6804 47.9011 36.6813 49.6042C36.6813 51.3072 36.1419 52.6916 35.0629 53.7573C33.984 54.823 32.5462 55.3564 30.7496 55.3573H27.1709ZM28.6748 53.944H30.7496C32.1019 53.944 33.1722 53.564 33.9603 52.8042C34.7485 52.0443 35.1436 50.9786 35.1455 49.607C35.1455 48.2469 34.7505 47.1835 33.9603 46.417C33.1702 45.6505 32.1 45.2677 30.7496 45.2687H28.6748V53.944Z" fill="#191919"/>
</g>
<defs>
<clipPath id="clip0_2358_6471">
<rect width="100" height="100" fill="white" transform="translate(0.481445 0.972168)"/>
</clipPath>
</defs>
</svg>
