<svg width="101" height="101" viewBox="0 0 101 101" fill="none" xmlns="http://www.w3.org/2000/svg">
<path fill-rule="evenodd" clip-rule="evenodd" d="M46.7133 81.8024C49.976 84.0269 55.315 85.3617 60.5057 85.3617C70.1455 85.3617 77.4125 81.2091 77.4125 71.8659C77.4125 63.8575 72.9633 60.0015 62.7303 57.7769C57.5396 56.4422 55.6116 54.8108 55.6116 51.9931C55.6116 49.1753 57.9845 46.9507 62.2854 46.9507C67.0311 46.9507 70.887 48.582 74.743 51.3998V42.3532C71.0354 40.1286 67.0311 39.0905 61.9887 39.0905C52.9421 39.0905 45.9718 43.5397 45.9718 52.5863C45.9718 60.2981 49.976 64.0058 59.1709 66.082C64.9548 67.5651 67.6243 68.8998 67.6243 72.4592C67.6243 76.0185 64.6582 77.5015 60.2091 77.5015C55.6116 77.5015 50.7176 75.5736 46.565 72.4592L46.7133 81.8024ZM44.6371 48.4337H40.0396V84.4719H30.1032V48.4337H23.1328V40.1286H30.1032V31.6753C30.1032 20.7007 36.1837 15.3617 45.6752 15.3617C49.2345 15.3617 51.904 16.1032 54.4252 17.5863V26.6329C52.0523 25.0015 49.8277 24.1117 46.7133 24.1117C42.4125 24.1117 40.0396 26.188 40.0396 31.6753V40.1286H50.8659C47.6032 41.76 45.3786 44.7261 44.6371 48.4337Z" fill="#191919"/>
</svg>
