<svg width="101" height="101" viewBox="0 0 101 101" fill="none" xmlns="http://www.w3.org/2000/svg">
<g clip-path="url(#clip0_2358_6839)">
<path d="M26.4414 57.0211V37.468H29.4752V45.1859C30.4254 43.769 31.8756 43.0522 33.7759 43.0522C35.4095 43.0522 36.6764 43.5356 37.5599 44.5024C38.4433 45.4693 38.8934 46.8195 38.8934 48.5364V57.0378H35.8763V48.9698C35.8763 46.7361 34.8761 45.6193 32.8924 45.6193C31.8923 45.6193 31.0755 45.9193 30.4421 46.5194C29.8086 47.1195 29.4919 47.9697 29.4919 49.0532V57.0211H26.4414ZM53.2791 55.3375C51.9288 56.6877 50.2286 57.3712 48.1782 57.3712C46.1279 57.3712 44.4276 56.6877 43.0774 55.3375C41.7105 53.9873 41.0438 52.2703 41.0438 50.1867C41.0438 48.103 41.7272 46.3861 43.0774 45.0525C44.4443 43.719 46.1446 43.0355 48.1782 43.0355C50.2286 43.0355 51.9288 43.7023 53.2791 45.0525C54.6293 46.3861 55.3127 48.103 55.3127 50.1867C55.2961 52.2703 54.6293 53.9873 53.2791 55.3375ZM45.2944 53.6206C46.0112 54.4707 46.978 54.8874 48.1782 54.8874C49.3784 54.8874 50.3453 54.4707 51.062 53.6206C51.7788 52.7704 52.1456 51.6369 52.1456 50.1867C52.1456 48.7531 51.7788 47.6196 51.0454 46.7861C50.3119 45.936 49.3618 45.5193 48.1782 45.5193C46.978 45.5193 46.0112 45.936 45.2944 46.7695C44.5777 47.6029 44.2109 48.7364 44.2109 50.1867C44.2109 51.6369 44.5777 52.7704 45.2944 53.6206ZM62.3305 57.3545C59.5301 57.3545 58.1298 55.8543 58.1298 52.8538V45.936H56.0128V43.3689H58.2132L58.9133 39.3516H61.2137V43.3689H66.6479V45.936H61.2137V52.7704C61.2137 54.0206 61.6804 54.6541 62.5972 54.6541C63.464 54.6541 64.2308 53.8706 64.9309 52.287L67.298 53.5039C66.1311 56.071 64.4809 57.3545 62.3305 57.3545ZM68.2648 63.2721C66.9146 63.2721 65.7978 62.8887 64.9143 62.1386L66.0478 59.7549C66.5979 60.3883 67.1813 60.705 67.8147 60.705C68.6649 60.705 69.0816 60.155 69.0816 59.0714V43.3689H72.1154V59.1215C72.1154 60.5884 71.7487 61.6385 71.0319 62.2886C70.3151 62.9387 69.3983 63.2721 68.2648 63.2721ZM70.5985 41.0685C70.0984 41.0852 69.615 40.9018 69.2483 40.5685C69.0649 40.4018 68.9316 40.2017 68.8482 39.985C68.7482 39.7683 68.7149 39.5183 68.7149 39.2849C68.7149 39.0349 68.7482 38.8015 68.8482 38.5681C68.9483 38.3348 69.0816 38.1347 69.2483 37.968C69.615 37.6347 70.0984 37.4513 70.5985 37.4513C71.0986 37.4513 71.582 37.6347 71.9487 37.968C72.1321 38.1347 72.2655 38.3348 72.3655 38.5681C72.4655 38.8015 72.4988 39.0349 72.4988 39.2849C72.4988 39.5183 72.4488 39.7683 72.3655 39.985C72.2655 40.2017 72.1321 40.4018 71.9487 40.5685C71.7654 40.7352 71.5653 40.8685 71.332 40.9685C71.0986 41.0352 70.8486 41.0685 70.5985 41.0685ZM79.6667 57.3545C78.1164 57.3545 76.8495 56.9711 75.8827 56.1876C74.9159 55.4042 74.4325 54.3707 74.4325 53.0538C74.4325 51.8536 74.9326 50.8368 75.9327 50.0033C76.9329 49.1698 78.1997 48.7531 79.7167 48.7531C81.2669 48.7531 82.5838 49.2532 83.6506 50.2367V48.5698C83.6506 47.5863 83.4006 46.8361 82.9005 46.3027C82.4004 45.7693 81.7003 45.5026 80.7835 45.5026C78.9332 45.5026 77.7663 46.4527 77.3163 48.3364L74.5325 47.753C74.8992 46.286 75.6493 45.1359 76.7495 44.2857C77.8497 43.4356 79.2332 43.0189 80.8835 43.0189C82.6838 43.0189 84.1007 43.4856 85.1509 44.4358C86.1844 45.3859 86.7178 46.7695 86.7178 48.5864V57.0211H83.7673V55.3042C82.7838 56.6711 81.4169 57.3545 79.6667 57.3545ZM80.2334 55.1041C81.5836 55.1041 82.7338 54.4207 83.6673 53.0705V52.6537C82.7338 51.5202 81.5836 50.9701 80.2334 50.9701C79.45 50.9701 78.7999 51.1702 78.3164 51.5536C78.0831 51.7203 77.8997 51.9536 77.7663 52.2037C77.633 52.4537 77.583 52.7371 77.583 53.0371C77.583 53.3205 77.633 53.6206 77.7663 53.8706C77.883 54.1373 78.0831 54.354 78.2998 54.5374C78.7832 54.9208 79.4166 55.1041 80.2334 55.1041ZM89.6849 57.0211V43.3689H92.6354V45.736C93.3855 44.0023 94.6857 43.1522 96.5194 43.1522C97.6029 43.1522 98.503 43.5023 99.2198 44.2191C99.9366 44.9358 100.287 45.886 100.287 47.0862C100.287 47.803 100.153 48.5197 99.9199 49.2032L97.1361 48.9198C97.1861 48.5531 97.2362 48.1697 97.2528 47.7863C97.2528 46.3861 96.6694 45.6693 95.5025 45.6693C94.7191 45.6693 94.0523 46.086 93.5189 46.9195C92.9855 47.753 92.7188 48.8531 92.7188 50.22V57.0211H89.6849Z" fill="#191919"/>
<path d="M7.4716 45.4693C9.73863 44.2191 12.8391 42.4855 12.8391 37.468H9.08853C9.08853 40.2685 7.72164 41.0353 5.65464 42.1854C3.38761 43.4523 0.287109 45.1693 0.287109 50.1867H4.03771C4.03771 47.3696 5.4046 46.6195 7.4716 45.4693ZM13.9726 44.3025C13.9726 47.1029 12.6058 47.8697 10.5388 49.0199C8.27173 50.2701 5.17123 52.0037 5.17123 57.0212H8.92183C8.92183 54.2207 10.2887 53.4539 12.3557 52.3037C14.6228 51.0535 17.7233 49.3199 17.7233 44.3025H13.9726Z" fill="#191919"/>
</g>
<defs>
<clipPath id="clip0_2358_6839">
<rect width="100" height="100" fill="white" transform="translate(0.287109 0.361694)"/>
</clipPath>
</defs>
</svg>
