<svg width="101" height="101" viewBox="0 0 101 101" fill="none" xmlns="http://www.w3.org/2000/svg">
<g clip-path="url(#clip0_2358_6458)">
<path d="M11.1319 41.488V49.4833H3.78666V41.488H0.301758V60.5739H3.78761V52.838H11.131V60.5739H14.6178V41.488H11.1319ZM25.7753 54.405C25.7753 55.17 25.4714 55.9037 24.9305 56.4446C24.3896 56.9856 23.6559 57.2895 22.8909 57.2895C22.1259 57.2895 21.3922 56.9856 20.8513 56.4446C20.3104 55.9037 20.0065 55.17 20.0065 54.405V46.2295H16.6999V54.405C16.6999 56.0454 17.3515 57.6185 18.5114 58.7784C19.6713 59.9383 21.2444 60.5899 22.8848 60.5899C24.5251 60.5899 26.0983 59.9383 27.2582 58.7784C28.4181 57.6185 29.0697 56.0454 29.0697 54.405V46.2295H25.7753V54.405ZM50.2763 47.072C50.2763 45.3956 51.3848 44.8645 52.5989 44.8645C53.5782 44.8645 54.8706 45.6097 55.7169 46.5135L57.8819 43.9607C56.8008 42.4984 54.6084 41.488 52.8131 41.488C49.2253 41.488 46.631 43.589 46.631 47.072C46.631 53.5343 54.5291 51.4833 54.5291 55.1003C54.5291 56.2154 53.4461 57.2003 52.2065 57.2003C50.2508 57.2003 49.6169 56.2446 48.7187 55.2333L46.315 57.7324C47.8527 59.6192 49.7489 60.5777 52.0197 60.5777C55.4282 60.5777 58.1697 58.4512 58.1697 55.1267C58.1697 47.9531 50.2706 50.1824 50.2706 47.072M99.1385 57.5248C97.1848 57.5248 96.6291 56.6795 96.6291 55.3852V49.6541H99.6669V46.7503H96.6291V42.9192L93.2763 44.4239V56.0975C93.2763 59.0833 95.3367 60.588 98.1612 60.588C98.6046 60.5956 99.048 60.5597 99.4838 60.4824L100.302 57.4711C99.9329 57.4965 99.5093 57.522 99.1385 57.522M38.3621 46.3248C36.7244 46.3248 35.581 46.8003 34.4753 47.8843V41.6022H31.164V53.2465C31.164 57.605 34.315 60.5918 37.8565 60.5918C41.7848 60.5918 45.2404 57.5522 45.2404 53.4597C45.2404 49.4182 42.0602 46.3277 38.3621 46.3277M38.3414 57.2588C37.8479 57.2588 37.3592 57.1616 36.9032 56.9727C36.4473 56.7839 36.033 56.5071 35.6841 56.1581C35.3351 55.8091 35.0583 55.3948 34.8694 54.9389C34.6806 54.483 34.5834 53.9943 34.5834 53.5008C34.5834 53.0073 34.6806 52.5186 34.8694 52.0626C35.0583 51.6067 35.3351 51.1924 35.6841 50.8435C36.033 50.4945 36.4473 50.2177 36.9032 50.0288C37.3592 49.84 37.8479 49.7428 38.3414 49.7428C39.3381 49.7428 40.2939 50.1387 40.9987 50.8435C41.7035 51.5482 42.0994 52.5041 42.0994 53.5008C42.0994 54.4975 41.7035 55.4533 40.9987 56.1581C40.2939 56.8629 39.3381 57.2588 38.3414 57.2588ZM74.3244 53.2861C74.3244 49.1862 70.8763 46.1541 66.9404 46.1541C63.3999 46.1541 60.248 49.1399 60.248 53.4994V65.1503H63.5593V58.8597C64.6631 59.9418 65.8084 60.4192 67.4442 60.4192C71.1423 60.4192 74.3244 57.3286 74.3244 53.2861ZM71.1885 53.2446C71.1885 54.2413 70.7926 55.1972 70.0879 55.902C69.3831 56.6067 68.4272 57.0027 67.4305 57.0027C66.4338 57.0027 65.478 56.6067 64.7732 55.902C64.0684 55.1972 63.6725 54.2413 63.6725 53.2446C63.6725 52.248 64.0684 51.2921 64.7732 50.5873C65.478 49.8826 66.4338 49.4866 67.4305 49.4866C68.4272 49.4866 69.3831 49.8826 70.0879 50.5873C70.7926 51.2921 71.1885 52.248 71.1885 53.2446Z" fill="#191919"/>
<path d="M85.0247 45.9938V42.6665C85.4644 42.461 85.8367 42.1348 86.0982 41.726C86.3598 41.3171 86.4998 40.8424 86.502 40.357V40.2806C86.502 38.8655 85.3549 37.7184 83.9398 37.7184H83.8634C83.1838 37.7184 82.5321 37.9883 82.0516 38.4688C81.571 38.9493 81.3011 39.6011 81.3011 40.2806V40.357C81.3033 40.8424 81.4434 41.3171 81.7049 41.726C81.9665 42.1348 82.3388 42.461 82.7785 42.6665V45.9938C81.5147 46.1873 80.3246 46.7113 79.3284 47.5127L70.203 40.4051C70.2681 40.1702 70.302 39.9287 70.3058 39.6863C70.3069 39.1152 70.1387 38.5567 69.8223 38.0813C69.506 37.6059 69.0557 37.235 68.5285 37.0156C68.0014 36.7961 67.4209 36.7379 66.8607 36.8483C66.3004 36.9588 65.7855 37.2329 65.3811 37.636C64.9766 38.0391 64.7008 38.5531 64.5886 39.113C64.4763 39.6729 64.5326 40.2535 64.7504 40.7814C64.9681 41.3093 65.3375 41.7608 65.8119 42.0787C66.2862 42.3966 66.8442 42.5667 67.4152 42.5674C67.9148 42.5651 68.405 42.4317 68.8369 42.1806L77.8228 49.1731C77.0156 50.3926 76.5944 51.827 76.6143 53.2893C76.6341 54.7516 77.0941 56.1741 77.9341 57.3712L75.2011 60.1051C74.9802 60.0345 74.75 59.997 74.5181 59.9938C74.0493 59.9942 73.5912 60.1335 73.2017 60.3942C72.8121 60.6548 72.5085 61.0251 72.3293 61.4582C72.1501 61.8913 72.1033 62.3678 72.1948 62.8276C72.2864 63.2873 72.5121 63.7095 72.8436 64.041C73.175 64.3724 73.5973 64.5982 74.057 64.6897C74.5167 64.7812 74.9932 64.7344 75.4263 64.5552C75.8595 64.376 76.2297 64.0725 76.4904 63.6829C76.751 63.2933 76.8903 62.8352 76.8907 62.3665C76.8877 62.1345 76.8502 61.9043 76.7794 61.6834L79.4832 58.9787C80.3648 59.6575 81.3902 60.1255 82.4807 60.3468C83.5712 60.5681 84.6978 60.5368 85.7743 60.2554C86.8509 59.974 87.8487 59.45 88.6914 58.7234C89.5341 57.9967 90.1993 57.0869 90.6361 56.0635C91.0728 55.0401 91.2695 53.9303 91.2111 52.8191C91.1527 51.708 90.8407 50.6249 90.2991 49.6529C89.7575 48.681 89.0005 47.8459 88.0863 47.2116C87.1721 46.5774 86.1248 46.1608 85.0247 45.9938ZM83.9039 56.9372C83.4042 56.951 82.9069 56.8644 82.4412 56.6827C81.9755 56.501 81.551 56.2277 81.1927 55.8792C80.8344 55.5306 80.5496 55.1138 80.3551 54.6533C80.1607 54.1928 80.0605 53.6979 80.0605 53.1981C80.0605 52.6982 80.1607 52.2034 80.3551 51.7429C80.5496 51.2824 80.8344 50.8655 81.1927 50.517C81.551 50.1684 81.9755 49.8952 82.4412 49.7134C82.9069 49.5317 83.4042 49.4452 83.9039 49.4589C84.8724 49.4928 85.7899 49.9013 86.4632 50.5982C87.1365 51.2952 87.5131 52.2262 87.5136 53.1953C87.5141 54.1644 87.1385 55.0958 86.4658 55.7934C85.7932 56.4911 84.8761 56.9004 83.9077 56.9353" fill="#191919"/>
</g>
<defs>
<clipPath id="clip0_2358_6458">
<rect width="100" height="100" fill="white" transform="translate(0.301758 0.972168)"/>
</clipPath>
</defs>
</svg>
