<svg width="101" height="101" viewBox="0 0 101 101" fill="none" xmlns="http://www.w3.org/2000/svg">
<g clip-path="url(#clip0_2358_6831)">
<path d="M24.6226 15.3617C19.7895 15.3617 15.873 19.2796 15.873 24.112V76.6122C15.873 81.4445 19.7895 85.3617 24.6226 85.3617H77.1228C81.9551 85.3617 85.873 81.4445 85.873 76.6122V24.112C85.873 19.2796 81.9551 15.3617 77.1228 15.3617H24.6226ZM50.6575 24.6909C50.9807 24.661 51.3066 24.6988 51.6143 24.802C51.9221 24.9052 52.2049 25.0715 52.4447 25.2902C52.6846 25.5089 52.8762 25.7752 53.0072 26.0722C53.1383 26.3691 53.206 26.6901 53.2059 27.0147V60.8477C53.1996 61.4624 52.951 62.0497 52.5141 62.4822C52.0772 62.9146 51.4874 63.1571 50.8727 63.1571C50.258 63.1571 49.6681 62.9146 49.2313 62.4822C48.7944 62.0497 48.5458 61.4624 48.5395 60.8477V27.0147C48.5394 26.4331 48.7565 25.8724 49.1483 25.4425C49.5401 25.0126 50.0783 24.7446 50.6575 24.6909ZM39.2059 25.8619C39.5124 25.8618 39.8158 25.9221 40.099 26.0393C40.3821 26.1565 40.6394 26.3284 40.8562 26.545C41.0729 26.7617 41.2448 27.0189 41.3621 27.3021C41.4794 27.5852 41.5398 27.8886 41.5398 28.1951V59.3667C41.5398 59.9856 41.294 60.5791 40.8564 61.0168C40.4187 61.4544 39.8252 61.7002 39.2063 61.7002C38.5874 61.7002 37.9938 61.4544 37.5562 61.0168C37.1185 60.5791 36.8727 59.9856 36.8727 59.3667V28.1951C36.8727 27.5763 37.1186 26.9829 37.5561 26.5453C37.9937 26.1077 38.5871 25.8619 39.2059 25.8619ZM62.5395 25.8619C63.1583 25.8619 63.7517 26.1077 64.1893 26.5453C64.6268 26.9829 64.8727 27.5763 64.8727 28.1951V59.3667C64.8664 59.9813 64.6177 60.5686 64.1809 61.001C63.744 61.4334 63.1541 61.676 62.5395 61.676C61.9248 61.676 61.335 61.4334 60.8981 61.001C60.4612 60.5686 60.2126 59.9813 60.2063 59.3667V28.1951C60.2063 27.5763 60.4521 26.9829 60.8897 26.5453C61.3272 26.1077 61.9207 25.8619 62.5395 25.8619ZM27.3652 30.5348C27.6854 30.5108 28.0071 30.5531 28.3102 30.6592C28.6133 30.7652 28.8913 30.9327 29.1267 31.1511C29.3621 31.3695 29.5499 31.6341 29.6783 31.9284C29.8067 32.2227 29.873 32.5404 29.873 32.8615V53.8481C29.873 54.467 29.6272 55.0606 29.1896 55.4982C28.7519 55.9358 28.1584 56.1817 27.5395 56.1817C26.9206 56.1817 26.327 55.9358 25.8894 55.4982C25.4518 55.0606 25.2059 54.467 25.2059 53.8481V32.8615C25.2059 32.2728 25.4285 31.7059 25.8289 31.2744C26.2294 30.8429 26.7782 30.5787 27.3652 30.5348ZM74.0316 30.5348C74.3518 30.5108 74.6736 30.5531 74.9767 30.6592C75.2798 30.7652 75.5577 30.9327 75.7931 31.1511C76.0285 31.3695 76.2163 31.6341 76.3447 31.9284C76.4732 32.2227 76.5395 32.5404 76.5395 32.8615V53.8481C76.5332 54.4628 76.2846 55.0501 75.8477 55.4826C75.4108 55.915 74.821 56.1576 74.2063 56.1576C73.5916 56.1576 73.0017 55.915 72.5648 55.4826C72.1279 55.0501 71.8793 54.4628 71.873 53.8481V32.8615C71.8731 32.2729 72.0955 31.7061 72.4958 31.2746C72.8961 30.8432 73.4447 30.5789 74.0316 30.5348ZM74.0186 64.3555C74.5098 64.3161 75.0008 64.4331 75.4214 64.6899C75.8419 64.9466 76.1704 65.3299 76.3598 65.7848C76.5492 66.2397 76.5897 66.7429 76.4755 67.2222C76.3613 67.7015 76.0984 68.1324 75.7243 68.4532C75.3642 68.7619 66.7207 76.0144 50.8727 76.0144C35.0247 76.0144 26.3805 68.7612 26.0204 68.4524C25.5539 68.0492 25.266 67.4778 25.2195 66.863C25.173 66.2482 25.3718 65.64 25.7723 65.1712C26.1729 64.7025 26.7427 64.4114 27.3573 64.3614C27.9718 64.3115 28.5811 64.5069 29.0521 64.9048C29.189 65.0191 36.9077 71.3479 50.8727 71.3479C65.0127 71.3479 72.6121 64.9737 72.6875 64.9091C73.0617 64.5887 73.5276 64.395 74.0186 64.3555Z" fill="#191919"/>
</g>
<defs>
<clipPath id="clip0_2358_6831">
<rect width="70" height="70" fill="white" transform="translate(15.873 15.3617)"/>
</clipPath>
</defs>
</svg>
