<svg width="101" height="101" viewBox="0 0 101 101" fill="none" xmlns="http://www.w3.org/2000/svg">
<g clip-path="url(#clip0_2374_8197)">
<path d="M0.216797 57.4997H6.21517V56.8628H5.76499C4.88872 56.8628 4.67643 56.6234 4.67643 55.7487V47.8397C5.28771 46.8039 6.10978 46.1399 7.14564 46.1399C8.44649 46.1399 9.24296 47.0945 9.24296 48.9012V55.7517C9.24296 56.6279 9.02917 56.8658 8.1815 56.8658H7.70272V57.5027H13.5686V56.8658H13.144C12.2677 56.8658 12.0555 56.6264 12.0555 55.7517V48.6076C12.0555 48.3682 12.0555 48.1288 12.0299 47.8909C12.6125 46.8295 13.4903 46.1399 14.5262 46.1399C15.827 46.1399 16.6235 47.0945 16.6235 48.9012V55.7517C16.6235 56.6279 16.4097 56.8658 15.562 56.8658H15.0833V57.5027H20.9491V56.8658H20.5516C19.6483 56.8658 19.4375 56.6264 19.4375 55.7517V48.6076C19.4375 45.9261 17.9259 44.4401 15.7216 44.4401C14.076 44.4401 12.6426 45.3434 11.8718 47.1471C11.4216 45.3961 10.0936 44.4401 8.33959 44.4401C6.77225 44.4401 5.42021 45.2892 4.67493 46.9876V44.7578H0.216797V45.3946H0.748279C1.65165 45.3946 1.86244 45.634 1.86244 46.5088V55.7472C1.86244 56.6234 1.64864 56.8613 0.748279 56.8613H0.216797V57.4997ZM24.4813 42.6349C25.4359 42.6349 26.2323 41.8384 26.2323 40.8838C26.2323 39.9293 25.4359 39.1328 24.4813 39.1328C23.5267 39.1328 22.7303 39.9293 22.7303 40.8838C22.7288 41.8384 23.5252 42.6349 24.4813 42.6349ZM21.5092 57.4997H27.4022V56.8628H27.0047C26.1285 56.8628 25.9162 56.6234 25.9162 55.7487V44.7578H21.455V45.3946H21.9865C22.8899 45.3946 23.1007 45.634 23.1007 46.5088V55.7472C23.1007 56.6234 22.8869 56.8613 21.9865 56.8613H21.5077V57.4982H21.5092V57.4997ZM31.7022 50.0153H33.4021C32.9775 49.7503 32.8194 49.3785 32.6056 48.6874L31.9687 46.3251C31.6766 45.2636 31.4373 44.7578 30.2689 44.7578H27.8268V45.3946H28.1731C28.8882 45.3946 28.9695 45.6596 29.1833 46.4561L29.7404 48.5278C30.0325 49.5381 30.4842 50.0138 31.7053 50.0138H31.7022V50.0153ZM35.6319 50.0153H37.3317C38.5528 50.0153 38.9774 49.5365 39.271 48.5293L39.828 46.4576C40.0418 45.6611 40.1457 45.3961 40.8383 45.3961H41.1846V44.7593H38.7696C37.5756 44.7593 37.3363 45.238 37.0698 46.3266L36.4329 48.6889C36.2176 49.4041 36.0565 49.7488 35.6319 50.0153ZM33.4021 52.2451H35.6319V50.0153H33.4021V52.2451ZM27.8268 57.5027H30.2689C31.4373 57.5027 31.6766 56.9983 31.9687 55.9354L32.6056 53.5731C32.8194 52.8835 32.9775 52.5116 33.4021 52.2451H31.7022C30.4812 52.2451 30.0295 52.7239 29.7374 53.7312L29.1803 55.8029C28.9665 56.5993 28.8882 56.8643 28.1701 56.8643H27.8238V57.5012H27.8268V57.5027ZM38.7636 57.5027H41.1786V56.8658H40.8323C40.1427 56.8658 40.0358 56.6008 39.822 55.8044L39.2649 53.7327C38.9729 52.7224 38.5483 52.2466 37.3257 52.2466H35.6304C36.055 52.5116 36.2101 52.8579 36.4223 53.5746L37.0592 55.9369C37.3242 57.0254 37.5636 57.5042 38.7591 57.5042H38.7636V57.5027ZM41.5249 62.8115H47.6828V62.1746H47.046C46.1968 62.1746 45.9845 61.9352 45.9845 61.0604V55.9911C46.7554 57.1338 48.0562 57.8234 49.595 57.8234C52.4888 57.8234 54.7984 55.2759 54.7984 50.869C54.7984 46.8867 52.6228 44.4461 49.8073 44.4461C48.1616 44.4461 46.781 45.4006 45.9845 47.1005V44.7638H41.5234V45.4006H42.0549C42.9311 45.4006 43.169 45.64 43.169 46.5148V61.0589C43.169 61.9352 42.9296 62.1731 42.0549 62.1731H41.5234V62.81L41.5249 62.8115ZM48.7985 46.0872C50.5239 46.0872 51.9317 47.7057 51.9317 50.9172C51.9317 54.4207 50.6308 56.3328 48.8527 56.3328C47.7099 56.3328 46.7027 55.7216 45.9845 54.6601V48.0761C46.6741 46.7753 47.6573 46.0857 48.7985 46.0857V46.0872ZM58.993 57.7677C60.7185 57.7677 62.0976 56.9456 63.1335 55.0862V55.3783C63.1335 56.9712 64.1437 57.6608 65.815 57.6608C66.3194 57.6608 66.9577 57.6081 67.3823 57.4756V56.8116C67.1685 56.8643 67.0104 56.8914 66.8508 56.8914C66.1869 56.8914 65.9746 56.4939 65.9746 55.8556V49.0578C65.9746 45.9246 64.2235 44.4386 61.2771 44.4386C59.3122 44.4386 57.4016 45.3419 56.1805 46.2965L56.6051 47.0403C57.8804 46.164 59.127 45.6611 60.4806 45.6611C62.2316 45.6611 63.135 46.6157 63.135 48.847V49.4296L59.8693 50.7049C56.8972 51.9259 55.8072 53.0672 55.8072 54.7941C55.8072 56.5195 57.0282 57.7662 58.993 57.7662V57.7677ZM58.5956 54.103C58.5956 52.7751 59.3664 51.8206 60.9323 51.131L63.1365 50.1764V54.3168C62.3144 55.4596 61.3584 56.1221 60.3225 56.1221C59.2866 56.1221 58.5971 55.4054 58.5971 54.1046L58.5956 54.103ZM67.9123 57.5027H73.9664V56.8658H73.462C72.5857 56.8658 72.3734 56.6264 72.3734 55.7517V47.8668C72.9847 46.8054 73.8851 46.1414 74.948 46.1414C76.3272 46.1414 77.205 47.096 77.205 48.9027V55.7532C77.205 56.6295 76.9912 56.8673 76.1435 56.8673H75.6391V57.5042H81.6646V56.8673H81.1331C80.2297 56.8673 80.019 56.6279 80.019 55.7532V48.6091C80.019 45.9276 78.426 44.4416 76.1691 44.4416C74.5235 44.4416 73.1428 45.2907 72.3719 46.9891V44.7593H67.9108V45.3961H68.4423C69.3457 45.3961 69.5564 45.6355 69.5564 46.5103V55.7487C69.5564 56.6249 69.3426 56.8628 68.4423 56.8628H67.9108V57.4997L67.9123 57.5027ZM88.5648 57.8204C90.3159 57.8204 91.963 57.0239 93.1585 56.0694L92.761 55.4867C91.6995 56.2576 90.5041 56.6008 89.3899 56.6008C86.6828 56.6008 85.0899 54.6902 85.0899 50.9744V50.4956H93.4777C93.425 46.9123 91.2207 44.4702 88.0093 44.4702C84.7978 44.4702 82.2217 47.364 82.2217 51.1867C82.2217 55.3813 84.6111 57.8234 88.5663 57.8234L88.5648 57.8204ZM88.0334 45.1296C89.6263 45.1296 90.608 46.8551 90.7691 49.7759H85.1426C85.382 46.8295 86.4961 45.1296 88.0364 45.1296H88.0334ZM94.0588 57.4997H100.217V56.8628H99.6055C98.7293 56.8628 98.517 56.6234 98.517 55.7487V39.449H94.0558V40.0859H94.5873C95.4636 40.0859 95.7015 40.3253 95.7015 41.2V55.7487C95.7015 56.6249 95.4621 56.8628 94.5873 56.8628H94.0558V57.4997H94.0588Z" fill="#191919"/>
</g>
<defs>
<clipPath id="clip0_2374_8197">
<rect width="100" height="100" fill="white" transform="translate(0.216797 0.972168)"/>
</clipPath>
</defs>
</svg>
