<svg width="101" height="101" viewBox="0 0 101 101" fill="none" xmlns="http://www.w3.org/2000/svg">
<g clip-path="url(#clip0_2358_6850)">
<path d="M15.3147 63.9783C7.84807 63.9783 1.79811 57.9284 1.79811 50.4617C1.78144 42.9951 7.84807 36.9285 15.3147 36.9285C22.7813 36.9285 28.8313 42.9784 28.8313 50.4451C28.8313 57.9117 22.7813 63.9783 15.3147 63.9783ZM15.298 35.6118C7.13141 35.6118 0.481445 42.2284 0.481445 50.3617C0.481445 58.495 7.13141 65.1117 15.298 65.1117C23.4647 65.1117 30.1146 58.495 30.1146 50.3617C30.1313 42.2284 23.4813 35.6118 15.298 35.6118Z" fill="#191919"/>
<path d="M11.5482 56.9952C9.31488 55.9452 7.76489 53.5785 7.76489 50.8285C7.76489 49.3785 8.19822 48.0285 8.93155 46.9452L13.7982 54.2118H16.7482L21.6148 46.9452C22.3481 48.0452 22.7815 49.3952 22.7815 50.8285C22.7815 53.3952 21.4315 55.6118 19.4482 56.7618L20.3815 60.3618C23.9648 58.5118 26.3981 54.7952 26.3981 50.4952C26.3981 46.4286 24.2148 42.8952 20.9648 40.9619L15.2982 49.6952L9.69821 40.9286C6.4149 42.8619 4.19824 46.4286 4.19824 50.4952C4.19824 54.9452 6.81489 58.7952 10.5982 60.5451L11.5482 56.9952Z" fill="#191919"/>
<path d="M41.298 51.9118L37.6646 44.1451H35.7646V56.6117H37.6646V48.2785L40.598 54.3618H42.0146L44.8646 48.2785V56.6117H46.7646V44.1451H44.8646L41.298 51.9118Z" fill="#191919"/>
<path d="M53.8648 53.1452C53.8648 54.5118 53.0315 55.1285 52.0315 55.1285C51.0315 55.1285 50.2482 54.5285 50.2482 53.1452V47.7285H48.4648V53.4118C48.4648 54.4118 48.6815 55.2618 49.3648 55.9285C49.8982 56.4285 50.6482 56.7285 51.5482 56.7285C52.4482 56.7285 53.2981 56.3951 53.9148 55.7285V56.6285H55.6648V47.7452H53.8815V53.1452H53.8648Z" fill="#191919"/>
<path d="M59.1486 54.0618V44.1451H57.3652V54.1618C57.3652 55.4784 58.0986 56.6117 59.7986 56.6117H60.8985V55.0951H60.1152C59.3986 55.0951 59.1486 54.7451 59.1486 54.0618Z" fill="#191919"/>
<path d="M63.214 51.4452C63.2307 50.9119 63.264 50.6452 63.4473 50.2452C63.7307 49.5785 64.3807 49.1285 65.214 49.1285C66.0473 49.1285 66.6806 49.5785 66.964 50.2452C67.1306 50.6452 67.1973 50.9119 67.214 51.4452H63.214ZM65.1973 47.6285C62.9307 47.6285 61.4307 49.2952 61.4307 52.1619C61.4307 55.5452 63.1973 56.7118 65.4306 56.7118C66.9973 56.7118 67.8473 56.2452 68.7473 55.3285L67.5973 54.2618C66.964 54.8952 66.4306 55.1785 65.4473 55.1785C63.9973 55.1785 63.1807 54.2285 63.1807 52.6952H68.9473V51.9119C68.964 49.3952 67.5806 47.6285 65.1973 47.6285Z" fill="#191919"/>
<path d="M77.7817 50.495C77.2483 50.0284 76.5983 49.745 75.4483 49.5617L74.0317 49.345C73.465 49.2617 72.9484 49.045 72.6317 48.7784C72.2984 48.4784 72.165 48.0784 72.165 47.6117C72.165 46.5117 72.965 45.6617 74.4317 45.6617C75.4817 45.6617 76.3817 45.895 77.1483 46.6117L78.3483 45.4284C77.2817 44.445 76.1317 44.0117 74.4817 44.0117C71.8817 44.0117 70.315 45.495 70.315 47.6784C70.315 48.695 70.615 49.4784 71.2317 50.0617C71.765 50.5783 72.5817 50.9117 73.5984 51.0617L75.065 51.2783C75.7983 51.3783 76.115 51.5117 76.4317 51.8117C76.765 52.1117 76.9317 52.5617 76.9317 53.1117C76.9317 54.3117 75.9817 55.0117 74.365 55.0117C73.0817 55.0117 72.0984 54.7283 71.1817 53.8283L69.915 55.0617C71.0984 56.2617 72.4484 56.7116 74.3317 56.7116C76.9483 56.7116 78.815 55.345 78.815 53.045C78.7983 51.995 78.465 51.1117 77.7817 50.495Z" fill="#191919"/>
<path d="M84.8301 54.6118C84.4968 54.9452 84.0468 55.1285 83.5135 55.1285C82.9801 55.1285 82.5468 54.9452 82.2135 54.6118C81.6635 54.0785 81.5968 53.1452 81.5968 52.1785C81.5968 51.2119 81.6635 50.2952 82.2135 49.7452C82.5468 49.4119 82.9801 49.2285 83.5135 49.2285C84.0301 49.2285 84.4968 49.3952 84.8301 49.7452C85.3635 50.2785 85.4468 51.2119 85.4468 52.1785C85.4468 53.1285 85.3635 54.0618 84.8301 54.6118ZM83.5135 47.6285C82.3135 47.6285 81.4468 48.0785 80.8635 48.6785C80.0301 49.5619 79.8135 50.6785 79.8135 52.1619C79.8135 53.6618 80.0301 54.7952 80.8635 55.6618C81.4301 56.2618 82.2968 56.7118 83.5135 56.7118C84.7135 56.7118 85.5968 56.2618 86.1801 55.6618C87.0134 54.7785 87.2301 53.6618 87.2301 52.1619C87.2301 50.6785 87.0134 49.5452 86.1801 48.6785C85.5968 48.0952 84.7135 47.6285 83.5135 47.6285Z" fill="#191919"/>
<path d="M89.0303 46.5285V47.8951H88.0137V49.2618H89.0303V56.6118H90.8137V49.2618H92.5803V47.8951H90.8137V46.6118C90.8137 45.9618 91.1303 45.5785 91.797 45.5785H92.5803V44.0452H91.4637C89.797 44.0618 89.0303 45.2618 89.0303 46.5285Z" fill="#191919"/>
<path d="M96.4982 45.1951H94.7149V47.8951H93.6982V49.2617H94.7149V54.145C94.7149 55.4283 95.4816 56.6117 97.1482 56.6117H98.2149V55.095H97.4816C96.8149 55.095 96.4982 54.7117 96.4982 54.0617V49.2617H98.2149V47.8951H96.4982V45.1951Z" fill="#191919"/>
<path d="M100.264 47.2784C100.231 47.3784 100.181 47.4617 100.098 47.5284C100.014 47.595 99.9478 47.6617 99.8478 47.695C99.7644 47.745 99.6478 47.7617 99.5311 47.7617C99.4144 47.7617 99.3145 47.745 99.2145 47.695C99.1145 47.645 99.0311 47.595 98.9645 47.5284C98.8978 47.4617 98.8311 47.3617 98.7978 47.2784C98.7645 47.1784 98.7311 47.0617 98.7311 46.945C98.7311 46.8284 98.7478 46.7284 98.7978 46.6284C98.8311 46.5284 98.8811 46.445 98.9645 46.3784C99.0478 46.3117 99.1145 46.245 99.2145 46.2117C99.3145 46.1617 99.4144 46.145 99.5311 46.145C99.6478 46.145 99.7478 46.1617 99.8478 46.2117C99.9311 46.2617 100.031 46.3117 100.098 46.3784C100.164 46.445 100.231 46.5284 100.264 46.6284C100.298 46.7284 100.331 46.845 100.331 46.945C100.314 47.0784 100.298 47.1784 100.264 47.2784ZM100.414 46.5784C100.364 46.4617 100.298 46.3617 100.198 46.2784C100.114 46.195 100.014 46.1284 99.8978 46.0784C99.7811 46.0284 99.6644 46.0117 99.5311 46.0117C99.3978 46.0117 99.2811 46.0451 99.1645 46.0784C99.0478 46.1284 98.9478 46.195 98.8478 46.2784C98.7645 46.3617 98.6978 46.4617 98.6311 46.5784C98.5811 46.695 98.5645 46.8117 98.5645 46.945C98.5645 47.0784 98.5978 47.2117 98.6311 47.3284C98.6811 47.445 98.7478 47.545 98.8478 47.6284C98.9311 47.7117 99.0311 47.7784 99.1645 47.8284C99.2811 47.8784 99.3978 47.895 99.5311 47.895C99.6644 47.895 99.7811 47.8617 99.8978 47.8284C100.014 47.7784 100.114 47.7117 100.198 47.6284C100.281 47.545 100.348 47.445 100.414 47.3284C100.464 47.2117 100.481 47.0784 100.481 46.945C100.481 46.8117 100.464 46.695 100.414 46.5784Z" fill="#191919"/>
<path d="M99.5141 46.8951H99.3308V46.5451H99.5641C99.5975 46.5451 99.6141 46.5451 99.6475 46.5617C99.6808 46.5617 99.6975 46.5784 99.7308 46.5951C99.7641 46.6117 99.7808 46.6284 99.7808 46.6451C99.7975 46.6617 99.7975 46.6951 99.7975 46.7284C99.7975 46.7784 99.7808 46.8117 99.7641 46.8284C99.7475 46.8617 99.7308 46.8784 99.6975 46.8784C99.6641 46.8951 99.6475 46.8951 99.6141 46.8951C99.5975 46.8951 99.5641 46.8951 99.5141 46.8951ZM99.8975 46.9451C99.9475 46.8951 99.9808 46.8284 99.9808 46.7284C99.9808 46.6117 99.9475 46.5451 99.8808 46.4951C99.8141 46.4451 99.7141 46.4117 99.5808 46.4117H99.1475V47.5284H99.3141V47.0451H99.4975L99.7975 47.5284H99.9808L99.6641 47.0284C99.7808 47.0117 99.8475 46.9951 99.8975 46.9451Z" fill="#191919"/>
</g>
<defs>
<clipPath id="clip0_2358_6850">
<rect width="100" height="100" fill="white" transform="translate(0.481445 0.361694)"/>
</clipPath>
</defs>
</svg>
