<svg width="101" height="101" viewBox="0 0 101 101" fill="none" xmlns="http://www.w3.org/2000/svg">
<g clip-path="url(#clip0_2358_6440)">
<path d="M26.4531 16.0737C32.7328 16.0738 38.3515 19.0604 41.877 23.6958L42.1787 23.3657C45.378 20.1991 49.7402 18.2534 54.543 18.2534C61.1532 18.2534 66.882 21.9175 69.9668 27.3774C72.705 26.156 75.6715 25.5253 78.6709 25.5269C90.5692 25.5271 100.228 35.2378 100.228 47.2202C100.227 59.2026 90.5691 68.9133 78.6709 68.9136C77.2166 68.9136 75.7983 68.7673 74.4102 68.4917C71.711 73.2921 66.5516 76.5532 60.6758 76.5532C58.2835 76.5579 55.9217 76.0165 53.7715 74.9702C51.0356 81.3829 44.6642 85.8901 37.2461 85.8901C29.4974 85.8901 22.9236 81.0169 20.3896 74.1646C19.262 74.402 18.1125 74.5217 16.96 74.521C7.74228 74.521 0.287109 66.9716 0.287109 57.7007C0.287207 51.4714 3.64353 46.0482 8.62305 43.1167C7.56662 40.6883 7.0236 38.0687 7.02637 35.4214C7.02637 24.7213 15.7298 16.0737 26.4531 16.0737ZM58.584 40.4272C57.5363 40.4272 56.7098 40.7228 56.1299 41.3062C55.5542 41.8851 55.1623 42.767 54.9658 43.9272L54.8955 44.3188H53.5801C53.5801 44.3188 53.4197 44.3124 53.3857 44.4868L53.1699 45.689C53.1549 45.804 53.2043 45.8762 53.3584 45.8755H54.6387L53.3398 53.1099C53.2382 53.6923 53.122 54.1716 52.9932 54.5347C52.8661 54.893 52.7416 55.162 52.5889 55.3569C52.4409 55.5456 52.3005 55.6842 52.0586 55.7651C51.8588 55.8322 51.6289 55.8638 51.377 55.8638C51.2367 55.8638 51.0498 55.8395 50.9121 55.812C50.7746 55.7849 50.7027 55.7546 50.5996 55.7114C50.5934 55.7091 50.4485 55.6573 50.3906 55.8042C50.3425 55.9269 50.0015 56.8627 49.9609 56.979C49.9199 57.0931 49.9773 57.1833 50.0498 57.2095C50.2201 57.2703 50.3472 57.3092 50.5791 57.3638C50.9014 57.4396 51.1733 57.4448 51.4277 57.4448C51.9608 57.4448 52.4468 57.3701 52.8496 57.2251C53.255 57.0789 53.6087 56.8238 53.9209 56.479C54.2583 56.1071 54.4698 55.7173 54.6729 55.186C54.8737 54.6595 55.0456 54.0055 55.1826 53.2437L56.4873 45.8755H58.3955C58.3955 45.8755 58.5562 45.8811 58.5898 45.7075L58.8057 44.5054C58.8207 44.3904 58.7718 44.3183 58.6172 44.3188H56.7646C56.774 44.276 56.8579 43.6265 57.0703 43.0151C57.1609 42.7541 57.3319 42.5437 57.4766 42.3989C57.6117 42.2611 57.7783 42.1572 57.9619 42.0972C58.1632 42.0351 58.3733 42.0054 58.584 42.0083C58.7583 42.0083 58.9293 42.0291 59.0596 42.0562C59.2391 42.0943 59.3094 42.1145 59.3564 42.1284C59.5447 42.1857 59.5704 42.1297 59.6074 42.0386L60.0498 40.8247C60.0952 40.6944 59.9845 40.6397 59.9434 40.6235C59.7555 40.5669 59.5644 40.5214 59.3711 40.4878C59.111 40.4445 58.8476 40.4244 58.584 40.4272ZM18.2734 44.1147C16.3969 44.1147 15.086 45.2471 15.0859 46.8667V46.9019C15.086 48.6093 16.5324 49.1665 17.8838 49.5513L18.1016 49.6187C19.0856 49.9206 19.9374 50.1828 19.9375 50.8716V50.9058C19.9375 51.5397 19.3829 52.0132 18.4941 52.0132C18.1484 52.0132 17.0468 52.0069 15.8535 51.2544C15.7093 51.1705 15.6268 51.1102 15.5156 51.0425C15.4568 51.0069 15.31 50.9424 15.2461 51.1343L14.8428 52.2554L14.8271 52.314C14.8016 52.4304 14.8689 52.4595 14.8867 52.4849C15.0744 52.6204 15.2651 52.7193 15.4561 52.8296C16.4768 53.3681 17.4392 53.5259 18.4453 53.5259C20.4944 53.5258 21.7686 52.4366 21.7686 50.6851V50.6509C21.7684 49.0315 20.3293 48.4414 18.9854 48.02L18.8086 47.9634C17.7917 47.6344 16.9144 47.3477 16.9141 46.6812V46.647C16.9141 46.0753 17.4284 45.6538 18.2217 45.6538C19.103 45.6539 20.1532 45.9465 20.8252 46.3169C20.8279 46.3186 21.0248 46.4437 21.0967 46.2534C21.1361 46.1495 21.4788 45.2351 21.5156 45.1323C21.5545 45.025 21.4861 44.9437 21.416 44.9019C20.6448 44.4328 19.5793 44.1138 18.4775 44.1138L18.2734 44.1147ZM48.2725 44.1118C46.396 44.1119 45.085 45.2442 45.085 46.8638V46.8989C45.0851 48.6064 46.5324 49.1636 47.8838 49.5483L48.1006 49.6157C49.0883 49.9176 49.9364 50.1799 49.9365 50.8687V50.9028C49.9365 51.5368 49.3819 52.0103 48.4932 52.0103C48.1467 52.0103 47.0423 52.004 45.8525 51.2515C45.7084 51.1677 45.6239 51.1098 45.5146 51.0396C45.4776 51.0161 45.3043 50.9482 45.2451 51.1313L44.8418 52.2524L44.8291 52.311C44.8035 52.4276 44.8713 52.4566 44.8896 52.4819C45.0765 52.6174 45.2672 52.7164 45.458 52.8267C46.4788 53.3652 47.4412 53.5229 48.4473 53.5229C50.4965 53.5229 51.7715 52.4337 51.7715 50.6821V50.6479C51.7714 49.0284 50.335 48.4385 48.9873 48.0171L48.8115 47.9604C47.7945 47.6315 46.9174 47.3448 46.917 46.6782V46.644C46.917 46.0725 47.4307 45.651 48.2236 45.6509C49.105 45.6509 50.1524 45.9435 50.8281 46.314C50.836 46.3189 51.0284 46.4382 51.0996 46.2505C51.1386 46.1467 51.4813 45.2327 51.5146 45.1294C51.5539 45.022 51.4848 44.9407 51.415 44.8989C50.6439 44.43 49.5791 44.1108 48.4775 44.1108L48.2725 44.1118ZM63.1152 44.1431C62.4175 44.1431 61.8044 44.2673 61.2793 44.5103C60.7578 44.7536 60.3127 45.0886 59.9639 45.5063C59.6157 45.9241 59.3545 46.4228 59.1855 46.9907C59.0185 47.555 58.9336 48.1708 58.9336 48.8267C58.9336 49.4826 59.0185 50.0983 59.1855 50.6626C59.3534 51.2305 59.615 51.7292 59.9639 52.147C60.3131 52.5647 60.7578 52.898 61.2793 53.1362C61.8044 53.3736 62.4213 53.4946 63.1152 53.4946C63.8093 53.4946 64.4268 53.3737 64.9482 53.1362C65.4695 52.8988 65.9139 52.5646 66.2627 52.147C66.6112 51.7293 66.8721 51.2305 67.041 50.6626C67.2077 50.0983 67.293 49.4826 67.293 48.8267C67.293 48.1744 67.2077 47.555 67.041 46.9907L66.9775 46.7808C66.8099 46.2992 66.5718 45.8718 66.2666 45.5063C65.9174 45.0886 65.4763 44.7521 64.9512 44.5103C64.4297 44.2666 63.813 44.1431 63.1152 44.1431ZM39.9805 44.1372C39.2571 44.1372 38.5998 44.2593 38.0674 44.5073C37.535 44.7572 37.0869 45.097 36.7344 45.522C36.3829 45.947 36.1172 46.4496 35.9482 47.0249C35.7797 47.5928 35.6953 48.2156 35.6953 48.8677C35.6953 49.5346 35.7828 50.1547 35.958 50.7153C36.1335 51.2793 36.4169 51.7738 36.7949 52.1841C37.1768 52.5981 37.6655 52.9208 38.2529 53.1479C38.8368 53.3733 39.5422 53.4904 40.3574 53.4878C42.032 53.4823 42.9135 53.1102 43.2734 52.9087C43.3373 52.8728 43.3983 52.8107 43.3223 52.6323L42.9443 51.5737C42.8874 51.4196 42.733 51.4696 42.7256 51.4722C42.3106 51.6268 41.7228 51.9055 40.3457 51.9019C39.4497 51.9004 38.781 51.6354 38.3623 51.2202C37.9364 50.7952 37.7235 50.1756 37.6904 49.2964L43.4932 49.3003C43.4993 49.3002 43.6457 49.2956 43.6611 49.1499C43.6678 49.0861 43.8599 47.9611 43.4883 46.6616L43.4844 46.6606C43.3389 46.1148 42.9772 45.5619 42.7422 45.3091C42.3676 44.9097 42.0042 44.627 41.6406 44.4731C41.1157 44.2505 40.5508 44.1362 39.9805 44.1372ZM86.3633 44.1372C85.6398 44.1372 84.9817 44.2592 84.4492 44.5073C83.9169 44.7572 83.4687 45.097 83.1162 45.522C82.764 45.947 82.5 46.4496 82.3311 47.0249C82.1622 47.5928 82.0762 48.2155 82.0762 48.8677C82.0762 49.5346 82.1648 50.1547 82.3389 50.7153C82.5147 51.2794 82.798 51.7738 83.1797 52.1841C83.5616 52.5981 84.0502 52.9208 84.6377 53.1479C85.2216 53.3733 85.9306 53.4904 86.7422 53.4878C88.4168 53.4823 89.2983 53.1102 89.6582 52.9087C89.7224 52.8728 89.7827 52.8107 89.707 52.6323L89.3291 51.5737C89.273 51.4209 89.1212 51.4688 89.1113 51.4722C88.6964 51.6268 88.1084 51.9055 86.7314 51.9019C85.8318 51.9004 85.1667 51.6353 84.748 51.2202C84.3221 50.7952 84.1093 50.1756 84.0762 49.2964L89.8789 49.3003C89.888 49.3001 90.0316 49.294 90.0469 49.1499C90.0536 49.0858 90.2452 47.9609 89.874 46.6616L89.8662 46.6606C89.7204 46.115 89.36 45.5621 89.125 45.3091C88.7504 44.9097 88.386 44.627 88.0225 44.4731C87.4978 44.2506 86.9334 44.1363 86.3633 44.1372ZM78.915 44.1196C78.1955 44.1197 77.5568 44.2426 77.0098 44.4858C76.4626 44.7288 75.9991 45.0652 75.6318 45.4829C75.2648 45.9005 74.9861 46.3986 74.7988 46.9663C74.6134 47.5306 74.5195 48.1502 74.5195 48.8062C74.5195 50.2206 74.9017 51.3674 75.6582 52.2065C76.4147 53.0492 77.5527 53.4741 79.0361 53.4741C79.9137 53.4741 80.8137 53.2978 81.46 53.0425C81.46 53.0425 81.5836 52.9828 81.5303 52.8394L81.1074 51.6812L81.0811 51.6294C81.013 51.5305 80.8898 51.5768 80.8877 51.5776C80.6391 51.6725 80.3736 51.7602 80.0908 51.8042C79.8058 51.8489 79.4885 51.8716 79.1543 51.8716C78.3282 51.8716 77.6673 51.6259 77.1973 51.1392C76.7235 50.6518 76.4592 49.8669 76.4629 48.8042C76.4655 47.837 76.6997 47.1111 77.1201 46.5542C77.5351 46.0048 78.1741 45.7192 79.0186 45.7192C79.7236 45.7192 80.2636 45.8004 80.8291 45.9771C80.8291 45.9771 80.963 46.0358 81.0273 45.8599C81.1775 45.4458 81.288 45.1482 81.4492 44.6938C81.4945 44.564 81.3836 44.5095 81.3428 44.4937C81.121 44.4072 80.5968 44.2653 80.2002 44.2056C79.8294 44.1492 79.3996 44.1196 78.915 44.1196ZM26.7236 44.1245C26.2903 44.1245 25.5886 44.1832 25.1699 44.2671C25.154 44.2702 23.9029 44.5136 23.3848 44.9185C23.3804 44.9212 23.2718 44.9927 23.333 45.1489L23.7441 46.2476C23.7952 46.3901 23.9346 46.3413 23.9346 46.3413C23.9372 46.3403 23.9797 46.3237 24.0293 46.2944C25.142 45.6898 26.5527 45.7075 26.5527 45.7075C27.177 45.7075 27.6622 45.8342 27.9854 46.0815C28.3014 46.3238 28.4619 46.6902 28.4619 47.4595V47.7036C27.974 47.6329 27.5217 47.5916 27.5078 47.5903L27.502 47.5767C27.2669 47.5594 26.9621 47.5513 26.5986 47.5513C26.1029 47.5513 25.6218 47.613 25.1738 47.7339C24.7222 47.8555 24.3146 48.0439 23.9658 48.2944C23.616 48.5435 23.3274 48.8698 23.124 49.2476C22.9189 49.6286 22.8145 50.076 22.8145 50.5815C22.8145 51.0942 22.9039 51.5373 23.0801 51.8999C23.2528 52.2597 23.5132 52.571 23.8369 52.8052C24.159 53.0389 24.5566 53.2124 25.0156 53.3149C25.4709 53.4186 25.9853 53.4712 26.5508 53.4712C27.1456 53.4712 27.7368 53.4211 28.3096 53.3247C28.7975 53.2407 29.2837 53.1461 29.7676 53.0415C29.9572 52.998 30.1673 52.941 30.1748 52.939C30.3135 52.9038 30.3081 52.7596 30.3076 52.7505L30.3037 47.4731C30.3037 46.3153 29.9936 45.4547 29.3818 44.9233C28.7723 44.392 27.8803 44.1245 26.7236 44.1245ZM32.3604 40.6138C32.2633 40.6139 32.1945 40.6915 32.1943 40.7876V53.1255C32.1944 53.222 32.2633 53.3011 32.3604 53.3013H33.8965C33.9934 53.3013 34.0624 53.2221 34.0625 53.1255V40.7876C34.0623 40.6914 33.9933 40.6138 33.8965 40.6138H32.3604ZM73.085 44.2251C72.3578 44.1797 71.9534 44.3026 71.5898 44.4653C71.2308 44.6269 70.8336 44.8866 70.6133 45.187L70.6123 44.4829C70.6122 44.3864 70.5438 44.3082 70.4463 44.3081H68.9629C68.8668 44.3081 68.797 44.3863 68.7969 44.4829V53.0942C68.797 53.1406 68.8149 53.1854 68.8477 53.2183C68.8806 53.2512 68.926 53.2699 68.9727 53.27H70.4932C70.5396 53.2698 70.5844 53.2511 70.6172 53.2183C70.6499 53.1854 70.668 53.1406 70.668 53.0942V48.771C70.668 48.192 70.7319 47.6162 70.8594 47.2534C70.985 46.8947 71.1558 46.608 71.3662 46.4028C71.5669 46.2048 71.8125 46.0576 72.082 45.9741C72.3352 45.9016 72.598 45.8657 72.8613 45.8657C73.1592 45.8658 73.4854 45.9404 73.4961 45.9429C73.6077 45.9553 73.6702 45.887 73.708 45.7866C73.8076 45.5221 74.0895 44.7312 74.1445 44.5737L74.1543 44.5366C74.1544 44.5156 74.1497 44.4945 74.1416 44.4751C74.1335 44.4558 74.1214 44.438 74.1064 44.4233C74.0914 44.4088 74.0732 44.3978 74.0537 44.3901C73.9543 44.3527 73.4628 44.2486 73.085 44.2251ZM26.8877 49.0151C27.4139 49.0245 27.9388 49.0693 28.459 49.1489V51.7759H28.46C28.4518 51.7776 27.7208 51.9343 26.8955 51.9839C25.7168 52.0546 25.1955 51.6449 25.1992 51.646L25.1953 51.644C24.9684 51.4633 24.9366 51.4188 24.8613 51.3013C24.7465 51.1243 24.6875 50.8726 24.6875 50.5503C24.6875 50.0446 24.8572 49.6786 25.2061 49.4331C25.2024 49.4338 25.7052 49.0005 26.8877 49.0151ZM63.1191 45.7114C63.8828 45.7115 64.4263 45.9745 64.7861 46.5142C65.1504 47.0602 65.333 47.8373 65.333 48.8267L65.3242 49.1841C65.2838 50.0038 65.1029 50.6618 64.7861 51.146C64.4248 51.6919 63.8792 51.9594 63.1191 51.9595C62.359 51.9595 61.8152 51.6944 61.459 51.1499C61.1002 50.6003 60.919 49.816 60.9189 48.8267C60.9189 47.8373 61.1013 47.0602 61.459 46.5142C61.8145 45.9719 62.3553 45.7114 63.1191 45.7114ZM39.8447 45.6675C40.6049 45.6675 41.1079 45.9665 41.4678 46.5073C41.7061 46.8646 41.8103 47.3393 41.8496 47.8706L37.7188 47.8696C37.8006 47.3204 37.9518 46.8626 38.1885 46.5073C38.5439 45.965 39.0846 45.6675 39.8447 45.6675ZM86.2266 45.6675C86.9867 45.6675 87.4907 45.9665 87.8506 46.5073C88.0891 46.8646 88.1935 47.3395 88.2324 47.8706L84.1006 47.8696C84.1825 47.3204 84.3333 46.8626 84.5703 46.5073C84.9254 45.9651 85.4666 45.6676 86.2266 45.6675Z" fill="#191919"/>
</g>
<defs>
<clipPath id="clip0_2358_6440">
<rect width="100" height="100" fill="white" transform="translate(0.287109 0.972168)"/>
</clipPath>
</defs>
</svg>
