<svg width="101" height="101" viewBox="0 0 101 101" fill="none" xmlns="http://www.w3.org/2000/svg">
<g clip-path="url(#clip0_2358_541)">
<g clip-path="url(#clip1_2358_541)">
<mask id="mask0_2358_541" style="mask-type:luminance" maskUnits="userSpaceOnUse" x="0" y="36" width="101" height="30">
<path d="M100.873 36.3055H0.873047V65.6389H100.873V36.3055Z" fill="white"/>
</mask>
<g mask="url(#mask0_2358_541)">
<path d="M15.913 36.3055C24.243 36.3055 30.963 42.8598 30.963 50.9722C30.963 59.0846 24.243 65.6389 15.913 65.6389C7.61305 65.6486 0.883047 59.0944 0.873047 51.0112C0.873047 51.0014 0.873047 50.9819 0.873047 50.9722C0.873047 42.8598 7.59305 36.3055 15.913 36.3055ZM15.913 40.2205C9.83305 40.2108 4.89305 45.0023 4.88305 50.9235C4.88305 50.943 4.88305 50.9527 4.88305 50.9722C4.86305 56.8934 9.78305 61.7141 15.863 61.7239C15.883 61.7239 15.893 61.7239 15.913 61.7239C21.993 61.7433 26.943 56.9518 26.953 51.0306C26.953 51.0112 26.953 50.9917 26.953 50.9722C26.973 45.051 22.053 40.2303 15.973 40.2205C15.953 40.2205 15.933 40.2205 15.913 40.2205ZM41.503 42.0709C41.703 41.9833 41.903 42.1683 41.903 42.2754V46.4729H49.933C50.023 46.4729 50.233 46.6774 50.233 46.765L50.833 49.2095L51.433 51.6539L51.523 51.9461L51.613 51.6539L53.123 46.7553C53.123 46.5605 53.333 46.4631 53.433 46.4631H57.4431C57.5331 46.4631 57.743 46.6676 57.743 46.7553L59.343 51.9461L59.4431 51.6539L60.753 46.7553C60.753 46.5605 60.943 46.4631 61.053 46.4631H71.273C71.373 46.4631 71.483 46.6676 71.483 46.7553V59.7761C71.483 59.9709 71.273 60.0683 71.183 60.0683H66.063C65.873 60.0683 65.7631 59.8735 65.7631 59.7761V47.4565L61.9631 59.7761C61.9631 59.9514 61.813 60.0488 61.7131 60.0683H57.453C57.363 60.0683 57.153 59.8735 57.153 59.7761L56.353 57.1369L55.453 54.2931L53.633 59.7761C53.633 59.9709 53.433 60.0683 53.333 60.0683H49.123C49.023 60.0683 48.823 59.8735 48.823 59.7761L45.013 47.4565V50.5827C45.013 50.7872 44.803 50.8748 44.713 50.8748H41.793V54.2055C41.793 55.1891 42.303 55.5787 43.203 55.5787C43.603 55.5787 44.103 55.4813 44.603 55.2768C44.693 55.1891 44.903 55.2768 44.903 55.4813V59.3866C44.003 59.8832 42.703 60.1754 41.293 60.1754C37.993 60.1754 36.183 58.7048 36.183 55.4813V50.8748H34.873C34.683 50.8748 34.573 50.68 34.573 50.5827V46.8722C34.573 46.6774 34.783 46.58 34.873 46.58H36.183V43.931C36.183 43.7363 36.273 43.6389 36.483 43.6389L41.503 42.0709ZM93.253 46.1807C97.663 46.1807 100.873 49.4043 100.873 53.1245C100.873 56.835 97.663 60.0683 93.153 60.0683C88.733 60.0683 85.533 56.8447 85.533 53.1245C85.533 49.4043 88.733 46.1807 93.253 46.1807ZM78.003 42.0807C78.213 42.0807 78.303 42.1781 78.303 42.2852V59.6787C78.303 59.8832 78.113 59.9709 78.003 59.9709H72.8931C72.693 59.9709 72.593 59.7761 72.593 59.6787V42.3631C72.593 42.1683 72.7931 42.0709 72.8931 42.0709L78.003 42.0807ZM84.723 46.4826C84.933 46.4826 85.023 46.6871 85.023 46.7748V59.5911C85.023 59.7858 84.8231 59.8832 84.723 59.8832H79.6131C79.413 59.8832 79.313 59.6787 79.313 59.5911V46.7553C79.313 46.5605 79.5131 46.4631 79.6131 46.4631L84.723 46.4826ZM12.203 51.5663C13.903 51.5663 15.313 52.9395 15.313 54.5951C15.313 56.2604 13.913 57.6336 12.203 57.6336C10.493 57.6336 9.09305 56.2701 9.09305 54.6048C9.10305 52.9297 10.503 51.5663 12.203 51.5663ZM19.633 51.5663C21.323 51.5663 22.743 52.9395 22.743 54.5951C22.743 56.2604 21.333 57.6336 19.633 57.6336C17.933 57.6336 16.523 56.2701 16.523 54.6048C16.523 52.9297 17.933 51.5663 19.633 51.5663ZM93.253 50.8846C91.953 50.8846 91.053 51.9656 91.053 53.2316C91.053 54.5074 92.053 55.5787 93.253 55.5787C94.563 55.5787 95.4631 54.5074 95.4631 53.2316C95.4631 51.8584 94.453 50.7872 93.253 50.8846ZM19.633 44.3303C21.323 44.3303 22.743 45.6938 22.743 47.3591C22.743 49.0244 21.333 50.3976 19.633 50.3976C17.933 50.3976 16.523 49.0244 16.523 47.3688C16.523 45.6938 17.933 44.3303 19.633 44.3303ZM12.203 44.3303C13.903 44.3303 15.313 45.6938 15.313 47.3591C15.313 49.0244 13.913 50.3976 12.203 50.3976C10.493 50.3976 9.09305 49.0244 9.09305 47.3688C9.10305 45.6938 10.503 44.3303 12.203 44.3303ZM71.383 42.0709C71.473 42.0709 71.583 42.1683 71.683 42.2754V45.4016C71.683 45.5964 71.483 45.6938 71.383 45.6938H66.063C65.873 45.6938 65.7631 45.499 65.7631 45.4016V42.3728C65.7631 42.1683 65.9731 42.0709 66.063 42.0709H71.383ZM84.8231 42.0709C85.023 42.0709 85.123 42.1683 85.123 42.2754V45.4016C85.123 45.5964 84.923 45.6938 84.8231 45.6938H79.503C79.303 45.6938 79.203 45.499 79.203 45.4016V42.3728C79.203 42.1683 79.413 42.0709 79.503 42.0709H84.8231Z" fill="#191919"/>
</g>
</g>
</g>
<defs>
<clipPath id="clip0_2358_541">
<rect width="100" height="100" fill="white" transform="translate(0.873047 0.972168)"/>
</clipPath>
<clipPath id="clip1_2358_541">
<rect width="100" height="29.3333" fill="white" transform="translate(0.873047 36.3055)"/>
</clipPath>
</defs>
</svg>
