<svg width="101" height="101" viewBox="0 0 101 101" fill="none" xmlns="http://www.w3.org/2000/svg">
<g clip-path="url(#clip0_2358_6852)">
<path d="M60.6321 47.432H58.1395C58.0883 47.2334 58.0501 47.0031 58.0247 46.7417C57.9739 46.2328 57.9739 45.7204 58.0247 45.2116C58.0501 44.9507 58.0883 44.7206 58.1395 44.5209H64.3515V63.667C64.0405 63.7196 63.727 63.7568 63.4121 63.7783C63.0993 63.8017 62.7858 63.814 62.4721 63.8153C62.1716 63.8134 61.8713 63.8011 61.5717 63.7783C61.2569 63.7566 60.9435 63.7192 60.6327 63.6664V47.4312V47.4316L60.6321 47.432ZM82.2577 52.2468C82.2577 51.5499 82.1617 50.8846 81.9705 50.2496C81.7785 49.6155 81.4964 49.0621 81.1268 48.5891C80.7554 48.1168 80.2828 47.737 79.7076 47.451C79.1326 47.1649 78.4486 47.0216 77.6562 47.0216C76.097 47.0216 74.9018 47.4826 74.0712 48.4028C73.2404 49.3231 72.7358 50.6044 72.5566 52.2468H82.2579H82.2577ZM72.5184 55.0084C72.5696 57.0983 73.1256 58.6288 74.1864 59.5986C75.2468 60.5688 76.8128 61.0547 78.8834 61.0547C80.6978 61.0547 82.4235 60.7433 84.0595 60.1213C84.2635 60.4945 84.4295 60.9486 84.5575 61.4836C84.6831 62.0044 84.76 62.5352 84.7875 63.0695C83.9445 63.4188 83.0171 63.6788 82.008 63.8535C80.9976 64.0271 79.8794 64.1147 78.6532 64.1147C76.8632 64.1147 75.3292 63.8714 74.0518 63.3866C72.7734 62.9009 71.719 62.2167 70.8882 61.3339C70.0575 60.4509 69.4501 59.4057 69.0667 58.1988C68.6835 56.9924 68.4913 55.6673 68.4913 54.2243C68.4913 52.8061 68.6765 51.481 69.0473 50.2492C69.4174 49.0183 69.9874 47.9482 70.7534 47.0401C71.5206 46.1316 72.4854 45.4103 73.6486 44.8754C74.8112 44.3405 76.185 44.0726 77.7706 44.0726C79.1252 44.0726 80.3138 44.2969 81.3366 44.7446C82.3587 45.1923 83.2153 45.8082 83.9057 46.592C84.5957 47.3759 85.1197 48.3089 85.4777 49.3907C85.8353 50.4734 86.0149 51.6488 86.0149 52.9181C86.0149 53.2665 86.0013 53.6333 85.9759 54.0187C85.9549 54.3486 85.9294 54.6783 85.8995 55.0076H72.5176L72.518 55.0082L72.5184 55.0084ZM90.1965 44.5209C90.4634 44.4738 90.732 44.4365 91.0017 44.4092C91.2567 44.3848 91.5257 44.3722 91.8069 44.3722C92.0881 44.3722 92.3689 44.3848 92.6505 44.4092C92.9315 44.4345 93.1873 44.4719 93.4175 44.5209C93.4935 44.8943 93.5703 45.3862 93.6467 45.9951C93.7233 46.6048 93.7623 47.1207 93.7623 47.5439C94.299 46.6983 95.0084 45.9638 95.89 45.3416C96.772 44.7201 97.903 44.4086 99.2832 44.4086C99.4876 44.4086 99.6984 44.4152 99.9158 44.4277C100.102 44.4374 100.288 44.4557 100.472 44.4831C100.523 44.7074 100.562 44.9441 100.587 45.1925C100.612 45.4411 100.625 45.7025 100.625 45.976C100.625 46.2749 100.606 46.5861 100.568 46.9089C100.531 47.2208 100.486 47.5319 100.434 47.8417C100.227 47.7921 100.014 47.7671 99.8008 47.7672H99.2828C98.5928 47.7672 97.9344 47.8606 97.3082 48.0469C96.6814 48.2338 96.1194 48.5636 95.621 49.0358C95.123 49.5089 94.7264 50.1559 94.433 50.977C94.1384 51.7981 93.9917 52.8556 93.9917 54.1491V63.6664C93.6807 63.7189 93.3671 63.7565 93.0521 63.7781C92.7075 63.803 92.3941 63.8151 92.1131 63.8151C91.7996 63.8139 91.4862 63.8016 91.1735 63.7781C90.846 63.7549 90.5197 63.7177 90.1955 63.6666V44.5211L90.1965 44.5209ZM63.2855 34.2978C63.2855 34.7445 63.2027 35.1875 63.0409 35.6056C62.6113 35.763 62.156 35.8437 61.6969 35.8438H61.6913C61.2322 35.8439 60.7769 35.7632 60.3473 35.6058C60.1852 35.1877 60.1022 34.7445 60.1023 34.2976V34.2918C60.1023 33.8314 60.1891 33.3905 60.3463 32.9836C60.776 32.8259 61.2315 32.7452 61.6907 32.7455H61.6959C62.1691 32.7455 62.6219 32.83 63.0399 32.9836C63.2019 33.4017 63.2847 33.8449 63.2845 34.2918V34.2976H63.2851L63.2855 34.2978ZM67.9707 33.2622H64.2555L66.8823 30.7052C66.4693 30.1406 65.9621 29.6471 65.3819 29.2452L62.7547 31.8022V28.1858C62.4054 28.1287 62.0517 28.0998 61.6975 28.0996H61.6907C61.3303 28.0996 60.9773 28.1296 60.6333 28.1858V31.8022L58.0055 29.245C57.7161 29.4455 57.4444 29.6693 57.1935 29.9139L57.1923 29.9151C56.9413 30.1595 56.7116 30.4239 56.5056 30.7054L59.1335 33.2622H55.4174C55.4174 33.2622 55.329 33.9416 55.329 34.2927V34.297C55.329 34.6482 55.3596 34.9924 55.4176 35.3274H59.1337L56.5054 37.8839C56.9188 38.4485 57.426 38.9421 58.0061 39.3443L60.6335 36.7876V40.4041C60.9771 40.4602 61.3295 40.4898 61.6895 40.4901H61.6985C62.0523 40.4898 62.4055 40.461 62.7545 40.4041V36.7876L65.3821 39.3449C65.6716 39.1443 65.9434 38.9205 66.1947 38.676H66.1953C66.4462 38.4313 66.6758 38.1668 66.8817 37.8851L64.2549 35.3276H67.9709C68.0285 34.9928 68.0589 34.6498 68.0589 34.2994V34.2904C68.0589 33.9458 68.0293 33.6023 67.9709 33.2626L67.9707 33.2622ZM0.625 63.1447L10.9779 47.4693H1.85181C1.77541 47.0216 1.73721 46.5244 1.73721 45.9768C1.73721 45.4545 1.77601 44.9688 1.85261 44.5207H16.6147L16.8067 45.0068L6.37725 60.7187H16.1545C16.2311 61.2165 16.2697 61.7261 16.2697 62.2484C16.2697 62.7468 16.2313 63.2192 16.1547 63.667H0.817002L0.625 63.1441V63.1447ZM30.4944 54.6722C30.111 54.6229 29.6252 54.5737 29.0374 54.5233C28.4494 54.474 27.951 54.4487 27.5426 54.4487C25.9574 54.4487 24.7496 54.7349 23.9194 55.3072C23.088 55.8799 22.6734 56.7503 22.6734 57.9196C22.6734 58.666 22.8134 59.2508 23.0948 59.6736C23.3756 60.0972 23.7274 60.4199 24.1492 60.644C24.5712 60.8679 25.0372 61.0049 25.5482 61.0547C26.0592 61.1044 26.5452 61.1291 27.0052 61.1291C27.5932 61.1291 28.2002 61.0979 28.8266 61.0357C29.4526 60.9739 30.0086 60.8803 30.4946 60.7559V54.6722H30.4944ZM30.4944 51.0526C30.4944 49.584 30.111 48.5639 29.3444 47.9916C28.5772 47.4193 27.4654 47.1331 26.0084 47.1331C25.113 47.1331 24.2764 47.2021 23.497 47.3387C22.7257 47.4734 21.9636 47.654 21.215 47.8793C20.729 47.0582 20.487 46.0761 20.487 44.9309C21.355 44.6576 22.3134 44.4462 23.362 44.2969C24.41 44.1473 25.4196 44.0726 26.3914 44.0726C28.9474 44.0726 30.89 44.6391 32.2195 45.7711C33.5483 46.904 34.2135 48.7138 34.2135 51.2015V63.1817C33.3183 63.3806 32.2323 63.5858 30.9542 63.7974C29.662 64.0098 28.3537 64.1159 27.0432 64.1147C25.7908 64.1147 24.6592 64.0032 23.65 63.7791C22.64 63.5546 21.7836 63.1947 21.0808 62.6964C20.3772 62.1992 19.8348 61.5646 19.4508 60.7935C19.0675 60.022 18.8757 59.0892 18.8757 57.9942C18.8757 56.9247 19.0993 55.9852 19.5468 55.1762C19.9864 54.3769 20.6098 53.6872 21.3684 53.161C22.1352 52.6268 23.017 52.2282 24.014 51.9673C25.0112 51.7059 26.0588 51.575 27.158 51.575C27.976 51.575 28.647 51.5941 29.1712 51.6315C29.6948 51.6685 30.136 51.7121 30.494 51.7619V51.0528L30.4944 51.0526ZM42.1505 60.5313C42.6346 60.7053 43.1358 60.8304 43.6461 60.9046C44.1573 60.9796 44.8214 61.0168 45.6402 61.0168C46.5602 61.0168 47.4034 60.8741 48.1702 60.5879C48.9374 60.3023 49.5954 59.8603 50.145 59.2628C50.6946 58.666 51.129 57.9138 51.4486 57.0047C51.768 56.0972 51.9282 55.0214 51.9282 53.7767C51.9282 51.7865 51.5506 50.2065 50.797 49.037C50.0424 47.8678 48.809 47.283 47.097 47.283C46.458 47.283 45.844 47.3948 45.257 47.619C44.6682 47.8429 44.1445 48.1789 43.6843 48.6266C43.2243 49.0744 42.8537 49.6408 42.5727 50.3249C42.2907 51.0097 42.1507 51.8238 42.1507 52.7695V60.5319V60.5315L42.1505 60.5313ZM38.3545 44.5205C38.6145 44.4707 38.8765 44.4335 39.1405 44.4088C39.4146 44.3841 39.6898 44.3718 39.9651 44.3718C40.2199 44.3718 40.4881 44.3846 40.7699 44.4088C41.0507 44.4341 41.3191 44.4717 41.5751 44.5207C41.6003 44.5713 41.6327 44.7261 41.6711 44.9875C41.7091 45.249 41.7475 45.5287 41.7861 45.8269C41.8245 46.1257 41.8627 46.4125 41.9011 46.6854C41.9395 46.9595 41.9587 47.1337 41.9587 47.2083C42.2137 46.8106 42.5207 46.4246 42.8787 46.0514C43.2367 45.678 43.6653 45.3422 44.1637 45.044C44.6622 44.7452 45.2242 44.509 45.8508 44.3346C46.4768 44.1606 47.1734 44.0728 47.9404 44.0728C49.0904 44.0728 50.1578 44.2597 51.1424 44.633C52.126 45.0068 52.969 45.5844 53.6724 46.3683C54.375 47.1522 54.9244 48.1476 55.321 49.3539C55.717 50.5616 55.915 51.9858 55.915 53.6276C55.915 56.9116 55.001 59.4812 53.173 61.3345C51.345 63.1883 48.7576 64.1147 45.409 64.1147C44.8464 64.1147 44.2715 64.0773 43.6835 64.0028C43.0951 63.9278 42.5843 63.8281 42.1495 63.7043V72.4748C41.8256 72.5261 41.4996 72.5635 41.1723 72.5868C40.8269 72.6111 40.5135 72.6238 40.2323 72.6238C39.9189 72.6225 39.6056 72.6101 39.2931 72.5868C38.9783 72.5651 38.6648 72.5277 38.3539 72.4748V44.5207L38.3545 44.5205Z" fill="#191919"/>
</g>
<defs>
<clipPath id="clip0_2358_6852">
<rect width="100" height="100" fill="white" transform="translate(0.625 0.361694)"/>
</clipPath>
</defs>
</svg>
