<svg width="101" height="101" viewBox="0 0 101 101" fill="none" xmlns="http://www.w3.org/2000/svg">
<g clip-path="url(#clip0_2358_6848)">
<path d="M48.1971 25.8228V56.8602H22.4585L48.1971 25.8228ZM48.1971 14.6849C48.1971 18.094 46.8413 21.3634 44.4278 23.774C42.0144 26.1846 38.741 27.5388 35.3278 27.5388C31.9147 27.5388 28.6413 26.1846 26.2279 23.774C23.8144 21.3634 22.4585 18.094 22.4585 14.6849L48.1971 14.6849ZM52.4373 56.8629C52.4373 53.4539 53.7932 50.1844 56.2067 47.7739C58.6201 45.3633 61.8935 44.009 65.3066 44.009C68.7198 44.009 71.9931 45.3633 74.4066 47.7739C76.8201 50.1844 78.1759 53.4539 78.1759 56.8629H52.4373ZM52.4373 45.7251V14.6849H78.1815L52.4373 45.7223V45.7251ZM66.832 83.4177C68.1557 83.4473 69.4373 82.953 70.3976 82.0427L72.1653 83.9485C70.9979 85.1475 69.3789 86.0385 66.8623 86.0385C62.5478 86.0385 59.7586 83.1784 59.7586 79.3118C59.7411 78.4256 59.9025 77.545 60.2332 76.7225C60.5638 75.8999 61.057 75.1523 61.6832 74.5243C62.3094 73.8963 63.0559 73.4006 63.8781 73.067C64.7002 72.7334 65.5812 72.5685 66.4686 72.5824C70.7528 72.5824 73.1813 75.8385 72.9665 80.3541H62.8396C63.1976 82.2297 64.5192 83.4259 66.8238 83.4259M69.9075 78.2008C69.6322 76.449 68.5859 75.1592 66.4934 75.1592C64.5467 75.1592 63.1893 76.2592 62.8396 78.2008H69.9103H69.9075ZM0.337891 83.2719L8.12996 75.3627H0.522367V72.8821H11.7451V75.4122L3.95308 83.3187H11.8553V85.802H0.337891V83.2719ZM20.6028 83.4149C21.9264 83.4445 23.2081 82.9502 24.1684 82.0399L25.9361 83.9457C24.7686 85.1448 23.1496 86.0358 20.6331 86.0358C16.3185 86.0358 13.5293 83.1757 13.5293 79.3091C13.5118 78.4229 13.6733 77.5422 14.0039 76.7197C14.3346 75.8972 14.8277 75.1496 15.454 74.5215C16.0802 73.8935 16.8266 73.3979 17.6488 73.0643C18.471 72.7306 19.352 72.5658 20.2393 72.5796C24.5236 72.5796 26.9521 75.8357 26.7373 80.3514H16.6159C16.9738 82.2269 18.2954 83.4232 20.6 83.4232M23.6838 78.198C23.4085 76.4462 22.3622 75.1565 20.2696 75.1565C18.323 75.1565 16.9656 76.2565 16.6159 78.198H23.6866H23.6838ZM43.5715 79.3063C43.5715 75.1812 46.6635 72.5851 50.0694 72.5851C50.8867 72.5743 51.6964 72.7422 52.4418 73.0771C53.1871 73.4121 53.85 73.9059 54.384 74.5239V66.9007H57.1374V85.7663H54.384V83.987C53.8603 84.6304 53.1983 85.1479 52.4471 85.5011C51.696 85.8544 50.8749 86.0343 50.0447 86.0275C46.7406 86.0275 43.5742 83.415 43.5742 79.3091M54.5382 79.2816C54.5165 78.475 54.2572 77.6927 53.7928 77.0325C53.3283 76.3723 52.6792 75.8635 51.9268 75.5699C51.1743 75.2762 50.3519 75.2106 49.5623 75.3814C48.7727 75.5521 48.0511 75.9516 47.4877 76.5299C46.9242 77.1081 46.544 77.8394 46.3945 78.6324C46.245 79.4253 46.3329 80.2447 46.6473 80.988C46.9616 81.7313 47.4884 82.3656 48.1617 82.8114C48.835 83.2573 49.625 83.495 50.4329 83.4947C52.8008 83.4947 54.5354 81.6081 54.5354 79.2816M74.7673 83.0217L77.2618 81.7291C77.5916 82.3164 78.0757 82.8025 78.6619 83.1349C79.2481 83.4674 79.914 83.6336 80.5879 83.6157C82.1463 83.6157 82.9558 82.8182 82.9558 81.9107C82.9558 80.8766 81.4497 80.6456 79.8115 80.3074C77.6088 79.8398 75.3152 79.1166 75.3152 76.4572C75.3152 74.4139 77.2618 72.5246 80.3263 72.5521C82.741 72.5521 84.539 73.5092 85.5578 75.0547L83.2449 76.3197C82.9254 75.8471 82.4904 75.4636 81.9812 75.2057C81.4719 74.9478 80.9052 74.8238 80.3346 74.8457C78.8533 74.8457 78.0988 75.569 78.0988 76.3967C78.0988 77.3263 79.2938 77.5848 81.1661 78C83.2972 78.4676 85.7092 79.1633 85.7092 81.8502C85.7092 83.6322 84.1508 86.0358 80.4612 86.011C77.7629 86.011 75.8631 84.9247 74.77 83.0134M93.1901 80.0241L91.0067 82.4029V85.758H88.2533V66.8925H91.0067V79.2486L96.8521 72.8409H100.206L95.1395 78.3686L100.338 85.7608H97.2211L93.1929 80.0241H93.1901ZM35.2507 72.5824C31.9742 72.5824 29.2346 74.6999 29.2346 78.22V85.769H32.0431V78.5693C32.0431 76.4517 33.2628 75.1812 35.3471 75.1812C37.4314 75.1812 38.4667 76.4462 38.4667 78.5693V85.769H41.2586V78.22C41.2586 74.7054 38.5052 72.5824 35.2425 72.5824" fill="#191919"/>
</g>
<defs>
<clipPath id="clip0_2358_6848">
<rect width="100" height="100" fill="white" transform="translate(0.337891 0.361694)"/>
</clipPath>
</defs>
</svg>
