<svg width="101" height="101" viewBox="0 0 101 101" fill="none" xmlns="http://www.w3.org/2000/svg">
<g clip-path="url(#clip0_2358_6256)">
<path d="M28.5871 42.5613C28.5871 43.8011 28.7205 44.8062 28.9532 45.5433C29.2486 46.3726 29.6042 47.1788 30.0172 47.9554C30.1836 48.2234 30.2499 48.4913 30.2499 48.7261C30.2499 49.0609 30.0506 49.396 29.6182 49.7312L27.5231 51.1382C27.2237 51.3394 26.9243 51.4398 26.6579 51.4398C26.3256 51.4398 25.9929 51.2722 25.6602 50.9706C25.2117 50.4859 24.8108 49.9585 24.4631 49.396C24.1304 48.8269 23.7977 48.1898 23.432 47.4195C20.8375 50.5015 17.5781 52.0426 13.6538 52.0429C10.8602 52.0429 8.63168 51.2386 7.00185 49.6308C5.37241 48.0222 4.54102 45.8781 4.54102 43.198C4.54102 40.3504 5.53877 38.0387 7.56762 36.2965C9.59608 34.5543 12.2904 33.6832 15.716 33.6832C16.8468 33.6832 18.0109 33.7836 19.2413 33.9512C20.4721 34.1188 21.7359 34.3867 23.0663 34.6883V32.2426C23.0663 29.6961 22.5339 27.9208 21.5028 26.8821C20.4387 25.8434 18.6426 25.3407 16.0817 25.3407C14.9176 25.3407 13.7205 25.4751 12.4897 25.7766C11.2589 26.0782 10.0618 26.4465 8.8977 26.9157C8.36567 27.1501 7.96664 27.284 7.73359 27.3512C7.50053 27.4184 7.33456 27.4516 7.20156 27.4516C6.73583 27.4516 6.50317 27.1165 6.50317 26.413V24.7712C6.50317 24.2352 6.56987 23.8333 6.73583 23.5989C6.90219 23.3641 7.20156 23.1298 7.66728 22.8954C8.83126 22.292 10.228 21.7894 11.8576 21.3876C13.4878 20.952 15.2173 20.7513 17.0465 20.7513C21.0045 20.7513 23.8981 21.6556 25.7606 23.4649C27.5898 25.2739 28.5212 28.0211 28.5212 31.7067V42.5613H28.5871ZM15.0839 47.6538C16.1817 47.6538 17.3125 47.4531 18.5095 47.0507C19.707 46.6488 20.7715 45.9117 21.6692 44.9066C22.2016 44.2703 22.6006 43.5668 22.7999 42.7625C22.9996 41.9586 23.1326 40.9867 23.1326 39.8476V38.4406C22.124 38.1935 21.1024 38.0034 20.0727 37.8711C19.0358 37.7386 17.9916 37.6714 16.9464 37.6699C14.7179 37.6699 13.0884 38.1055 11.991 39.0101C10.8936 39.9148 10.3612 41.1879 10.3612 42.8629C10.3612 44.4375 10.7602 45.6101 11.5916 46.4144C12.39 47.2519 13.5541 47.6538 15.0839 47.6538ZM41.791 51.2722C41.1922 51.2722 40.7932 51.1718 40.5272 50.937C40.2612 50.7362 40.0281 50.2671 39.8288 49.6308L32.0131 23.7329C31.813 23.0626 31.7134 22.627 31.7134 22.3927C31.7134 21.8567 31.9794 21.5548 32.5118 21.5548H35.7711C36.4028 21.5548 36.8355 21.6556 37.0682 21.8899C37.3342 22.0911 37.5339 22.5602 37.7332 23.1966L43.3207 45.3757L48.5092 23.1966C48.6756 22.5266 48.8753 22.0911 49.1409 21.8899C49.4073 21.6892 49.873 21.5552 50.4717 21.5552H53.1323C53.764 21.5552 54.1967 21.6556 54.4624 21.8899C54.7288 22.0911 54.9614 22.5602 55.0944 23.1966L60.3496 45.6437L66.1031 23.1966C66.3024 22.5266 66.5354 22.0911 66.7681 21.8899C67.0341 21.6892 67.4665 21.5552 68.0652 21.5552H71.1581C71.6906 21.5552 71.9899 21.8231 71.9899 22.3927C71.9899 22.5602 71.9566 22.7278 71.9232 22.9286C71.8899 23.1294 71.8236 23.3977 71.6906 23.7665L63.6748 49.664C63.4755 50.3343 63.2427 50.7698 62.9764 50.9706C62.7104 51.1718 62.278 51.3058 61.713 51.3058H58.8528C58.2207 51.3058 57.7883 51.2054 57.5219 50.9706C57.2559 50.7362 57.0233 50.3007 56.8902 49.6308L51.7347 28.0211L46.613 49.5968C46.447 50.2671 46.2473 50.7026 45.9813 50.937C45.7153 51.1718 45.2495 51.2722 44.6512 51.2722H41.791ZM84.5287 52.1769C82.7992 52.1769 81.0697 51.9757 79.407 51.5737C77.7438 51.1718 76.447 50.7358 75.5823 50.2339C75.0499 49.9319 74.6838 49.5972 74.5512 49.2956C74.4219 48.9998 74.3539 48.6805 74.3515 48.3573V46.6488C74.3515 45.9453 74.6175 45.6101 75.1166 45.6101C75.3203 45.6109 75.5225 45.6449 75.7153 45.7109C75.9146 45.7781 76.214 45.9117 76.5467 46.0456C77.7213 46.5664 78.9476 46.9595 80.205 47.2183C81.5078 47.4844 82.8337 47.619 84.163 47.6202C86.2582 47.6202 87.888 47.2519 89.0188 46.5148C90.1496 45.7777 90.7483 44.7058 90.7483 43.332C90.7483 42.3941 90.4489 41.6234 89.8502 40.9867C89.2515 40.35 88.1207 39.7808 86.4913 39.2445L81.6685 37.7371C79.2406 36.9664 77.4448 35.8273 76.347 34.3195C75.2496 32.8453 74.6842 31.2039 74.6842 29.4618C74.6842 28.0547 74.9836 26.815 75.5823 25.7426C76.1806 24.6708 76.9791 23.7329 77.9768 22.9958C78.9746 22.2251 80.1053 21.6556 81.4358 21.2536C82.7659 20.8517 84.1627 20.6841 85.6261 20.6841C86.3579 20.6841 87.123 20.7177 87.8547 20.8181C88.6198 20.9185 89.3182 21.0524 90.0165 21.1864C90.6816 21.354 91.3137 21.5216 91.9124 21.7227C92.5109 21.9235 92.9765 22.1244 93.3092 22.3255C93.7749 22.5938 94.1072 22.8618 94.3069 23.1634C94.5065 23.4313 94.6063 23.7998 94.6063 24.2688V25.8434C94.6063 26.5469 94.3403 26.9157 93.8412 26.9157C93.5752 26.9157 93.1428 26.7813 92.5778 26.5133C90.6815 25.6423 88.5528 25.2067 86.1919 25.2067C84.2961 25.2067 82.7992 25.5083 81.7681 26.145C80.7374 26.7813 80.205 27.7532 80.205 29.1266C80.205 30.0649 80.5377 30.8688 81.2027 31.5055C81.8678 32.1422 83.0986 32.7785 84.8614 33.3481L89.5842 34.8559C91.9787 35.6266 93.7082 36.6984 94.7393 38.0719C95.7704 39.4453 96.2695 41.0203 96.2695 42.7625C96.2695 44.2031 95.9697 45.5097 95.4043 46.6488C94.806 47.7878 94.0076 48.7929 92.9765 49.5972C91.9454 50.4347 90.7149 51.0378 89.2848 51.4734C87.788 51.9425 86.2249 52.1769 84.5287 52.1769Z" fill="#E4E4E4"/>
<path d="M90.8151 68.4587C79.8731 76.6001 63.975 80.9219 50.3059 80.9219C31.1485 80.9219 13.8873 73.7857 0.84985 61.9256C-0.181252 60.9877 0.7498 59.7147 1.98022 60.4514C16.0821 68.6935 33.4767 73.6853 51.47 73.6853C63.6094 73.6853 76.9462 71.1392 89.219 65.9127C91.0481 65.0748 92.6113 67.1189 90.8151 68.4587ZM95.3718 63.2322C93.9751 61.4232 86.1257 62.3611 82.567 62.7967C81.5026 62.931 81.3362 61.9928 82.301 61.2892C88.5536 56.8666 98.8308 58.1401 100.028 59.6139C101.225 61.1217 99.6952 71.474 93.8417 76.4325C92.944 77.2032 92.0792 76.8013 92.4782 75.7962C93.8083 72.479 96.7686 65.008 95.3718 63.2322Z" fill="#E4E4E4"/>
</g>
<defs>
<clipPath id="clip0_2358_6256">
<rect width="100" height="100" fill="white" transform="translate(0.406738 0.802979)"/>
</clipPath>
</defs>
</svg>
