<svg width="101" height="101" viewBox="0 0 101 101" fill="none" xmlns="http://www.w3.org/2000/svg">
<g clip-path="url(#clip0_2358_6370)">
<path d="M27.8668 43.1143L28.6269 43.6647C29.9492 44.7311 30.7094 45.9352 30.8746 47.3111C32.2959 47.0359 34.1136 47.2424 34.907 47.7928L35.6342 48.24L35.5019 48.5154C35.2705 49.0313 35.2045 49.169 35.1715 49.2377C33.8824 51.8178 31.3373 51.8522 30.1474 51.8178C27.1396 59.3516 20.7275 63.5141 12.0674 63.5141C8.06813 63.5141 5.02731 62.2412 2.9779 59.7299C0.267739 56.4277 0.267739 52.1273 0.498989 50.7514L0.5652 50.476H24.4623C25.7181 50.476 26.6769 50.1322 27.1396 49.8568C26.6437 49.1 26.4785 48.24 26.4455 47.7584C26.3463 46.3824 26.6769 44.9375 27.3381 43.9055L27.8668 43.1143ZM48.5726 44.7117C48.8393 44.7117 49.0651 44.8011 49.25 44.9799C49.4349 45.1587 49.5273 45.3844 49.5273 45.657V54.1654C49.5273 55.5834 49.0303 56.7833 48.0363 57.765C47.0303 58.7589 45.8305 59.2559 44.4367 59.2559C43.0307 59.2559 41.8308 58.7589 40.8371 57.765C39.8432 56.7712 39.3463 55.5713 39.3463 54.1654C39.3463 52.7596 39.8432 51.5597 40.8371 50.5658C41.8308 49.5718 43.0307 49.0749 44.4367 49.075C45.6427 49.075 46.7062 49.4477 47.6273 50.193V45.657C47.6273 45.3844 47.7167 45.1587 47.8955 44.9799C48.0743 44.8011 48.3 44.7117 48.5726 44.7117ZM55.6996 49.075C57.0935 49.075 58.2933 49.5719 59.2992 50.5656C59.7963 51.0628 60.1676 51.6112 60.4129 52.2109C60.6583 52.8109 60.7841 53.4624 60.7902 54.1654C60.7902 55.5834 60.2933 56.7833 59.2994 57.765C58.2935 58.7589 57.0937 59.2559 55.6998 59.2559C54.2938 59.2559 53.0939 58.7589 52.1002 57.765C51.1062 56.7712 50.6092 55.5713 50.6092 54.1654C50.6092 52.7596 51.1061 51.5597 52.1 50.5658C53.0939 49.5718 54.2937 49.0749 55.6996 49.075ZM66.9445 49.075C68.2232 49.075 69.3292 49.4871 70.2625 50.3113C70.4806 50.5051 70.5896 50.7444 70.5896 51.0293C70.5896 51.3021 70.5003 51.5293 70.3215 51.7109C70.1427 51.8928 69.917 51.9838 69.6443 51.9838C69.4191 51.9856 69.2004 51.9084 69.0262 51.7656C68.7172 51.505 68.393 51.308 68.0535 51.1748C67.7141 51.0416 67.3444 50.9749 66.9445 50.9748C66.5022 50.9748 66.0871 51.0581 65.6992 51.2248C65.3198 51.3857 64.9743 51.617 64.681 51.9065C64.3885 52.1964 64.1553 52.5408 63.9947 52.9201C63.828 53.3078 63.7447 53.7229 63.7447 54.1654C63.7447 54.6078 63.828 55.0229 63.9947 55.4107C64.1553 55.7901 64.3885 56.1344 64.681 56.4244C64.9743 56.7139 65.3198 56.9452 65.6992 57.1061C66.0871 57.2727 66.5022 57.3561 66.9445 57.3561C67.3445 57.3561 67.7142 57.291 68.0535 57.1607C68.393 57.0303 68.7141 56.8348 69.017 56.5742C69.1868 56.447 69.3868 56.3803 69.617 56.3742C69.8896 56.3742 70.1154 56.4636 70.2941 56.6424C70.4729 56.8212 70.5623 57.0469 70.5623 57.3197C70.5623 57.5864 70.4624 57.8197 70.2625 58.0195C69.3232 58.8438 68.2172 59.2559 66.9445 59.2559C65.5385 59.2559 64.3387 58.7589 63.3449 57.765C62.351 56.7712 61.8541 55.5713 61.8541 54.1654C61.8541 52.7596 62.351 51.5597 63.3449 50.5658C64.3388 49.5719 65.5387 49.075 66.9445 49.075ZM72.6172 44.7117C72.8777 44.7117 73.1004 44.8042 73.2851 44.9891C73.47 45.1737 73.5625 45.3994 73.5625 45.6662V52.7565L78.9984 49.2203C79.1499 49.1234 79.3195 49.075 79.5074 49.075C79.6407 49.075 79.765 49.0992 79.8801 49.1477C79.9953 49.1961 80.0953 49.2643 80.1801 49.3522C80.2648 49.44 80.333 49.5416 80.3846 49.6568C80.4361 49.7721 80.4619 49.8932 80.4619 50.0201C80.4619 50.3596 80.3407 50.6111 80.0982 50.7748L76.2896 53.2475L80.1982 57.6469C80.374 57.8408 80.4619 58.062 80.4619 58.3106C80.4619 58.4378 80.4361 58.5589 80.3846 58.674C80.3347 58.7868 80.2655 58.8899 80.1801 58.9787C80.0953 59.0666 79.9953 59.1347 79.8801 59.183C79.762 59.2319 79.6353 59.2567 79.5074 59.2559C79.2529 59.2559 79.0407 59.174 78.8711 59.0104L74.6715 54.2926L73.5625 55.0199V58.3014C73.5625 58.5619 73.47 58.7861 73.2851 58.974C73.1003 59.1619 72.8776 59.2559 72.6172 59.2559C72.3505 59.2559 72.1247 59.1619 71.9398 58.974C71.7549 58.7861 71.6625 58.5619 71.6625 58.3014V45.6662C71.6625 45.3995 71.7549 45.1738 71.9398 44.9889C72.1247 44.804 72.3505 44.7117 72.6172 44.7117ZM86.5799 49.0748C87.9736 49.0748 89.1735 49.5717 90.1795 50.5654C90.6764 51.0563 91.0491 51.6033 91.2977 52.2063C91.5461 52.8091 91.6703 53.4621 91.6703 54.1652C91.6703 54.4379 91.5779 54.6636 91.393 54.8424C91.2081 55.0212 90.9824 55.1106 90.7158 55.1106H83.5166C83.6167 55.438 83.7703 55.7467 83.9711 56.024C84.1671 56.296 84.4048 56.5352 84.6754 56.733C84.947 56.9311 85.2475 57.086 85.5664 57.1922C85.8906 57.3013 86.2284 57.3559 86.5799 57.3559C86.9799 57.3559 87.3465 57.2953 87.6797 57.174C88.013 57.0529 88.3221 56.8711 88.607 56.6285C88.7825 56.4797 89.004 56.3962 89.234 56.3922C89.5068 56.3922 89.7326 56.4816 89.9113 56.6604C90.0901 56.8391 90.1795 57.0649 90.1795 57.3377C90.1795 57.6042 90.0886 57.8315 89.9068 58.0193C88.9675 58.8436 87.8585 59.2557 86.5799 59.2557C85.1739 59.2557 83.974 58.7587 82.9803 57.7649C81.9864 56.771 81.4894 55.5711 81.4894 54.1652C81.4894 52.7594 81.9864 51.5595 82.9803 50.5656C83.9742 49.5717 85.174 49.0748 86.5799 49.0748ZM97.8064 49.0748C98.0731 49.0748 98.3594 49.093 98.6654 49.1293C98.9714 49.1658 99.2533 49.2309 99.5109 49.3246C99.7685 49.4185 99.982 49.5473 100.152 49.7109C100.321 49.8746 100.406 50.0867 100.406 50.3473C100.406 50.4807 100.38 50.605 100.329 50.7201C100.279 50.8328 100.21 50.9358 100.124 51.0246C100.04 51.1125 99.9397 51.1807 99.8244 51.2291C99.7063 51.278 99.5796 51.3027 99.4518 51.3018C99.3365 51.3018 99.2032 51.2684 99.0518 51.2018C98.67 51.0503 98.2549 50.9746 97.8064 50.9746C97.3641 50.9746 96.949 51.0579 96.5611 51.2246C96.1734 51.3913 95.8355 51.6185 95.5475 51.9063C95.2597 52.1941 95.0325 52.532 94.8658 52.9199C94.6992 53.3076 94.6158 53.7227 94.6158 54.1652V58.3104C94.6158 58.5709 94.5234 58.7936 94.3385 58.9783C94.1536 59.1631 93.9309 59.2555 93.6705 59.2557C93.4038 59.2557 93.1781 59.1632 92.9934 58.9783C92.8086 58.7934 92.7161 58.5708 92.716 58.3104V50.0203C92.716 49.7596 92.8085 49.537 92.9934 49.3523C93.1783 49.1675 93.404 49.075 93.6705 49.075C93.9311 49.075 94.1537 49.1675 94.3385 49.3523C94.5234 49.537 94.6158 49.7596 94.6158 50.0203V50.202C95.0606 49.844 95.5611 49.5616 96.0975 49.3658C96.6307 49.1718 97.2003 49.0748 97.8064 49.0748ZM44.4367 50.9746C43.9883 50.9746 43.5701 51.0594 43.1822 51.2291C42.7943 51.3988 42.458 51.6275 42.1732 51.9154C41.8885 52.2033 41.6627 52.5412 41.4961 52.9291C41.3294 53.317 41.2461 53.729 41.2461 54.1652C41.2461 54.6014 41.3294 55.0135 41.4961 55.4016C41.6627 55.7896 41.8885 56.1274 42.1732 56.415C42.458 56.7027 42.7943 56.9315 43.1822 57.1014C43.5701 57.2709 43.9883 57.3557 44.4367 57.3559C44.879 57.3559 45.2941 57.271 45.682 57.1014C46.0608 56.9376 46.4049 56.7031 46.6957 56.4104C46.9843 56.1182 47.2155 55.7744 47.3773 55.3969C47.544 55.0121 47.6273 54.6016 47.6273 54.1652C47.6273 53.7289 47.544 53.3183 47.3773 52.9334C47.2155 52.5559 46.9843 52.2121 46.6957 51.9199C46.4048 51.6272 46.0608 51.3928 45.682 51.2291C45.2943 51.0594 44.8792 50.9746 44.4367 50.9746ZM55.6998 50.9746C55.2514 50.9746 54.8332 51.0594 54.4453 51.2291C54.0574 51.3988 53.7211 51.6275 53.4363 51.9154C53.1515 52.2033 52.9258 52.5412 52.759 52.9291C52.5922 53.317 52.5088 53.729 52.509 54.1652C52.5091 54.6014 52.5924 55.0135 52.759 55.4016C52.9258 55.7893 53.1515 56.1272 53.4363 56.415C53.7211 56.7029 54.0574 56.9317 54.4453 57.1014C54.8332 57.271 55.2514 57.3559 55.6998 57.3559C56.1421 57.3559 56.5572 57.271 56.9451 57.1014C57.3239 56.9376 57.6679 56.7031 57.9588 56.4104C58.2474 56.1182 58.4786 55.7744 58.6404 55.3969C58.8071 55.0121 58.8904 54.6016 58.8904 54.1652C58.8904 53.7289 58.8071 53.3183 58.6404 52.9334C58.4786 52.5559 58.2474 52.2121 57.9588 51.9199C57.6679 51.6272 57.3239 51.3928 56.9451 51.2291C56.5572 51.0594 56.1421 50.9746 55.6998 50.9746ZM86.5799 50.9746C86.2344 50.9746 85.8981 51.0291 85.5709 51.1381C85.2492 51.2443 84.9457 51.3991 84.6709 51.5971C84.3982 51.794 84.1588 52.0335 83.9619 52.3063C83.7617 52.5827 83.6111 52.8918 83.5166 53.2197H89.6432C89.5427 52.8916 89.3875 52.5827 89.1842 52.3063C88.9856 52.035 88.7464 51.7959 88.4752 51.5973C88.2037 51.3993 87.9032 51.2445 87.5844 51.1383C87.2607 51.0292 86.9214 50.9739 86.5799 50.9746ZM6.77907 46.3477V49.7879H3.14333V46.3481L6.77907 46.3477ZM11.0759 46.3477V49.7879H7.4402V46.3481L11.0759 46.3477ZM15.3728 46.3477V49.7879H11.7369V46.3481L15.3728 46.3477ZM19.6697 46.3477V49.7879H16.0338V46.3481L19.6697 46.3477ZM23.9666 46.3477V49.7879H20.3306V46.3481L23.9666 46.3477ZM19.6697 42.2197V45.6598H16.0338V42.2199L19.6697 42.2197ZM15.3728 42.2197V45.6598H11.7369V42.2199L15.3728 42.2197ZM11.0759 42.2197V45.6598H7.4402V42.2199L11.0759 42.2197ZM19.6697 38.0918V41.5318H16.0338V38.0918H19.6697Z" fill="#E4E4E4"/>
</g>
<defs>
<clipPath id="clip0_2358_6370">
<rect width="100" height="100" fill="white" transform="translate(0.40625 0.802979)"/>
</clipPath>
</defs>
</svg>
