<svg width="101" height="101" viewBox="0 0 101 101" fill="none" xmlns="http://www.w3.org/2000/svg">
<g clip-path="url(#clip0_2358_6431)">
<path fill-rule="evenodd" clip-rule="evenodd" d="M50.4064 20.429L76.5325 35.5128V65.6807L50.4064 80.7646L24.2803 65.6807V35.5128L50.4064 20.429ZM27.2117 37.2053V59.3644L46.402 26.1258L27.2117 37.2053ZM50.4064 25.0528L28.2846 63.3688H72.5281L50.4064 25.0528ZM69.5967 66.3002H31.216L50.4064 77.3797L69.5967 66.3002ZM73.6011 59.3644L54.4107 26.1258L73.6011 37.2053V59.3644Z" fill="#E4E4E4"/>
<path d="M50.4064 28.2953C53.8162 28.2953 56.5804 25.5311 56.5804 22.1213C56.5804 18.7115 53.8162 15.9473 50.4064 15.9473C46.9966 15.9473 44.2324 18.7115 44.2324 22.1213C44.2324 25.5311 46.9966 28.2953 50.4064 28.2953Z" fill="#E4E4E4"/>
<path d="M75.0666 42.5331C78.4764 42.5331 81.2406 39.7689 81.2406 36.3591C81.2406 32.9493 78.4764 30.1851 75.0666 30.1851C71.6568 30.1851 68.8926 32.9493 68.8926 36.3591C68.8926 39.7689 71.6568 42.5331 75.0666 42.5331Z" fill="#E4E4E4"/>
<path d="M75.0666 71.0084C78.4764 71.0084 81.2406 68.2442 81.2406 64.8344C81.2406 61.4246 78.4764 58.6604 75.0666 58.6604C71.6568 58.6604 68.8926 61.4246 68.8926 64.8344C68.8926 68.2442 71.6568 71.0084 75.0666 71.0084Z" fill="#E4E4E4"/>
<path d="M50.4064 85.2459C53.8162 85.2459 56.5804 82.4818 56.5804 79.0719C56.5804 75.6621 53.8162 72.8979 50.4064 72.8979C46.9966 72.8979 44.2324 75.6621 44.2324 79.0719C44.2324 82.4818 46.9966 85.2459 50.4064 85.2459Z" fill="#E4E4E4"/>
<path d="M25.7424 71.0084C29.1522 71.0084 31.9164 68.2442 31.9164 64.8344C31.9164 61.4246 29.1522 58.6604 25.7424 58.6604C22.3326 58.6604 19.5684 61.4246 19.5684 64.8344C19.5684 68.2442 22.3326 71.0084 25.7424 71.0084Z" fill="#E4E4E4"/>
<path d="M25.7424 42.5331C29.1522 42.5331 31.9164 39.7689 31.9164 36.3591C31.9164 32.9493 29.1522 30.1851 25.7424 30.1851C22.3326 30.1851 19.5684 32.9493 19.5684 36.3591C19.5684 39.7689 22.3326 42.5331 25.7424 42.5331Z" fill="#E4E4E4"/>
</g>
<defs>
<clipPath id="clip0_2358_6431">
<rect width="70" height="70" fill="white" transform="translate(15.4062 15.5967)"/>
</clipPath>
</defs>
</svg>
