<svg width="101" height="101" viewBox="0 0 101 101" fill="none" xmlns="http://www.w3.org/2000/svg">
<path d="M48.0635 15.6155C47.9096 15.6292 47.42 15.6771 46.9793 15.7113C36.816 16.6076 27.2963 21.9714 21.2669 30.2155C17.9094 34.7994 15.762 39.999 14.9507 45.5065C14.6639 47.429 14.6289 47.9969 14.6289 50.6035C14.6289 53.2102 14.6639 53.778 14.9507 55.7005C16.8952 68.8433 26.4569 79.8856 39.425 83.9769C41.7473 84.709 44.1954 85.2084 46.9793 85.5094C48.0635 85.6258 52.7499 85.6258 53.8341 85.5094C58.6394 84.9895 62.7103 83.8264 66.7253 81.8218C67.3408 81.5139 67.4597 81.4318 67.3758 81.3634C67.3198 81.3224 64.6968 77.8811 61.5492 73.7213L55.8276 66.1614L48.658 55.7826C44.713 50.0767 41.4675 45.4107 41.4395 45.4107C41.4115 45.4039 41.3836 50.0152 41.3696 55.6458C41.3486 65.5046 41.3416 65.9014 41.2157 66.134C41.0338 66.4692 40.8939 66.6061 40.6001 66.7566C40.3763 66.866 40.1805 66.8866 39.1243 66.8866H37.9142L37.5924 66.6882C37.3826 66.5582 37.2287 66.3871 37.1238 66.1887L36.9769 65.8809L36.9909 52.1634L37.0119 38.4391L37.2287 38.1723C37.3406 38.0286 37.5784 37.8439 37.7463 37.755C38.0331 37.6181 38.145 37.6045 39.3551 37.6045C40.782 37.6045 41.0198 37.6592 41.3905 38.056C41.4955 38.1655 45.3775 43.8851 50.022 50.7746C54.6664 57.6641 61.0176 67.0713 64.1372 71.6894L69.8029 80.084L70.0897 79.8993C72.6288 78.2847 75.3147 75.9859 77.4411 73.5914C81.9667 68.508 84.8835 62.3095 85.8627 55.7005C86.1495 53.778 86.1845 53.2102 86.1845 50.6035C86.1845 47.9969 86.1495 47.429 85.8627 45.5065C83.9182 32.3638 74.3565 21.3214 61.3883 17.2301C59.1011 16.5049 56.6669 16.0055 53.939 15.7045C53.2675 15.636 48.644 15.5608 48.0635 15.6155ZM62.7103 36.7835C63.0461 36.9477 63.3189 37.2624 63.4168 37.5908C63.4727 37.7687 63.4867 41.5726 63.4727 50.1451L63.4518 62.4464L61.2344 59.1213L59.0101 55.7963V46.8543C59.0101 41.0732 59.0381 37.8234 59.0801 37.666C59.192 37.2829 59.4368 36.9819 59.7726 36.804C60.0593 36.6603 60.1643 36.6466 61.2624 36.6466C62.2976 36.6466 62.4795 36.6603 62.7103 36.7835Z" fill="white"/>
</svg>
