<svg width="101" height="101" viewBox="0 0 101 101" fill="none" xmlns="http://www.w3.org/2000/svg">
<g clip-path="url(#clip0_2358_6291)">
<path d="M89.7119 43.7644C89.6716 43.7644 89.6321 43.7763 89.5986 43.7988L87.7658 44.8691C87.7313 44.8904 87.703 44.9204 87.6835 44.956C87.6641 44.9916 87.6542 45.0316 87.6549 45.0722V47.2128C87.6549 47.3034 87.6979 47.3722 87.7658 47.4175L89.5986 48.4862C89.6321 48.5087 89.6716 48.5208 89.7119 48.5208C89.7523 48.5208 89.7917 48.5087 89.8252 48.4862L91.6549 47.4175C91.6896 47.3956 91.7182 47.3653 91.738 47.3294C91.7579 47.2935 91.7682 47.2531 91.7681 47.212V45.0738C91.7686 45.033 91.7584 44.9928 91.7385 44.9572C91.7186 44.9215 91.6898 44.8917 91.6549 44.8706L89.8244 43.7996C89.7911 43.7773 89.752 43.7645 89.7119 43.7644ZM49.7959 56.5643C49.4623 56.5643 49.1303 56.6455 48.8475 56.8049L39.8249 62.0603C39.5358 62.2301 39.2962 62.4726 39.1298 62.7637C38.9634 63.0548 38.8761 63.3844 38.8765 63.7197V74.2063C38.8765 74.8891 39.2374 75.5266 39.8249 75.8688L42.1999 77.2328C43.353 77.8016 43.76 77.8 44.2795 77.8C45.9748 77.8 46.9475 76.7539 46.9475 74.9563V64.6087C46.9465 64.5367 46.9176 64.4679 46.8669 64.4168C46.8162 64.3656 46.7476 64.3361 46.6756 64.3345H45.5241C45.4518 64.3357 45.3828 64.365 45.3318 64.4162C45.2807 64.4674 45.2516 64.5365 45.2506 64.6087V74.9586C45.2506 75.7547 44.4155 76.5524 43.0819 75.8703L40.6171 74.4368C40.5265 74.3915 40.4804 74.2758 40.4804 74.1852V63.6962C40.4804 63.6056 40.5265 63.4931 40.6171 63.447L49.6365 58.215C49.7045 58.1697 49.8186 58.1697 49.9092 58.215L58.931 63.447C59.0208 63.4931 59.0653 63.583 59.0653 63.697V74.1844C59.0653 74.2977 59.0208 74.3907 58.931 74.436L49.9092 79.6914C49.8412 79.7367 49.7271 79.7367 49.6365 79.6914L47.3311 78.3016C47.2631 78.2563 47.1725 78.2336 47.1045 78.2789C46.4717 78.643 46.3608 78.6906 45.7498 78.8953C45.6139 78.9406 45.3881 79.0305 45.8397 79.2805L48.8475 81.0789C49.1412 81.2375 49.4568 81.3281 49.7959 81.3281C50.135 81.3281 50.4732 81.2383 50.7443 81.125L59.7669 75.8696C60.0564 75.6995 60.2964 75.4565 60.4628 75.1648C60.6292 74.8731 60.7163 74.5429 60.7153 74.2071V63.7197C60.7153 63.0369 60.3544 62.4017 59.7669 62.0603L50.7443 56.8049C50.4537 56.6455 50.1273 56.5627 49.7959 56.5643ZM63.8817 61.3533C63.4187 61.3552 62.9753 61.5408 62.6491 61.8694C62.3229 62.1979 62.1404 62.6426 62.1419 63.1056C62.1406 63.5685 62.3231 64.013 62.6494 64.3414C62.9756 64.6698 63.4188 64.8553 63.8817 64.8572C64.8325 64.8572 65.6223 64.0611 65.6223 63.1056C65.6199 62.6437 65.436 62.2013 65.1105 61.8736C64.7849 61.546 64.3436 61.3586 63.8817 61.3533ZM63.8583 61.6494C64.0509 61.647 64.242 61.6829 64.4206 61.7551C64.5992 61.8272 64.7616 61.9342 64.8985 62.0697C65.0354 62.2052 65.144 62.3666 65.2179 62.5444C65.2919 62.7222 65.3298 62.913 65.3293 63.1056C65.3293 63.9025 64.6731 64.5853 63.859 64.5853C63.0684 64.5853 62.4122 63.9244 62.4122 63.1056C62.4122 62.2869 63.0903 61.6494 63.8583 61.6494ZM63.2262 62.1267V64.1283H63.6122V63.3345H63.9512C64.0872 63.3345 64.1317 63.3798 64.1543 63.4931C64.1543 63.5166 64.2215 64.0166 64.2215 64.1072H64.6278C64.5825 64.0166 64.5598 63.7431 64.5372 63.5837C64.5153 63.3337 64.4934 63.1517 64.2215 63.1291C64.3575 63.083 64.5833 63.015 64.5833 62.6509C64.5833 62.1275 64.1301 62.1275 63.9051 62.1275L63.2262 62.1267ZM63.5661 62.4455H63.8817C63.9958 62.4455 64.1754 62.4455 64.1754 62.7181C64.1754 62.8088 64.1317 62.9923 63.8817 62.9923H63.5653L63.5661 62.4455ZM52.2615 64.0158C49.6834 64.0158 48.1459 65.1079 48.1459 66.9509C48.1459 68.9306 49.6834 69.4743 52.1482 69.7251C55.1091 70.0212 55.3357 70.454 55.3357 71.0454C55.3357 72.0688 54.5201 72.5016 52.6209 72.5016C50.224 72.5016 49.7045 71.9094 49.5232 70.704C49.5232 70.5673 49.4123 70.4774 49.2764 70.4774H48.1006C48.0288 70.4782 47.9601 70.5073 47.9095 70.5583C47.859 70.6094 47.8305 70.6782 47.8303 70.7501C47.8303 72.2969 48.6436 74.1172 52.6013 74.1172C55.449 74.1172 57.0997 72.9782 57.0997 70.9766C57.0997 69.0196 55.7872 68.497 53.0076 68.1329C50.2029 67.7689 49.91 67.5642 49.91 66.9048C49.91 66.3587 50.1584 65.6314 52.2381 65.6314C54.0919 65.6314 54.7919 66.0415 55.0638 67.2923C55.0774 67.3487 55.1092 67.3992 55.1542 67.4358C55.1992 67.4725 55.255 67.4935 55.313 67.4954H56.5107C56.5794 67.4954 56.6474 67.4509 56.6935 67.4056C56.7345 67.3447 56.7575 67.2735 56.7599 67.2001C56.5794 65.0165 55.156 64.0158 52.2615 64.0158Z" fill="#E4E4E4"/>
<path d="M67.6499 19.865C67.5537 19.8636 67.4588 19.8876 67.3749 19.9346C67.2876 19.9858 67.2149 20.0585 67.1636 20.1457C67.1124 20.233 67.0842 20.3319 67.0819 20.433V35.2212C67.0819 35.3571 67.0116 35.4946 66.8764 35.5852C66.814 35.6187 66.7442 35.6363 66.6733 35.6363C66.6024 35.6363 66.5327 35.6187 66.4702 35.5852L64.0749 34.1985C63.8991 34.0981 63.7001 34.0452 63.4976 34.0452C63.2951 34.0452 63.0961 34.0981 62.9202 34.1985L53.336 39.7727C53.1586 39.8727 53.0108 40.0177 52.9075 40.1932C52.8042 40.3687 52.7491 40.5683 52.7477 40.7719V51.8968C52.7477 52.3061 52.9742 52.6936 53.336 52.8983L62.9218 58.4725C63.0975 58.5728 63.2964 58.6255 63.4987 58.6255C63.7011 58.6255 63.9 58.5728 64.0757 58.4725L73.6608 52.8983C74.0225 52.6936 74.249 52.3061 74.249 51.8968V24.165C74.249 23.733 74.0225 23.3447 73.6608 23.1408L67.9421 19.9346C67.8516 19.8892 67.7511 19.8654 67.6499 19.865ZM11.0996 33.7446C10.9192 33.7446 10.7387 33.8102 10.5809 33.9009L0.995058 39.4547C0.8149 39.5572 0.665386 39.706 0.561966 39.8856C0.458547 40.0653 0.404974 40.2693 0.406783 40.4766L0.43022 55.3999C0.43022 55.6053 0.541938 55.81 0.723186 55.9014C0.80721 55.9565 0.905508 55.9859 1.006 55.9859C1.10648 55.9859 1.20478 55.9565 1.28881 55.9014L6.98719 52.6257C7.3489 52.421 7.57312 52.0335 7.57312 51.6241V44.6398C7.57312 44.2304 7.79968 43.8429 8.16218 43.6383L10.5809 42.2281C10.7614 42.1141 10.9661 42.0687 11.1692 42.0687C11.3723 42.0687 11.5762 42.1141 11.7348 42.2281L14.1535 43.6383C14.5152 43.8429 14.7418 44.2304 14.7418 44.6398V51.6241C14.7418 52.0335 14.9668 52.421 15.3277 52.6257L20.9808 55.9014C21.0687 55.9575 21.1707 55.9873 21.2749 55.9873C21.3792 55.9873 21.4812 55.9575 21.5691 55.9014C21.6591 55.8525 21.734 55.7799 21.7858 55.6915C21.8375 55.6031 21.8642 55.5023 21.8628 55.3999V40.4766C21.8628 40.0672 21.6363 39.6797 21.2738 39.4742L11.7114 33.9009C11.5503 33.8154 11.3741 33.762 11.1926 33.7438L11.0996 33.7446ZM89.745 33.9087C89.5473 33.9087 89.3512 33.9602 89.17 34.0634L79.5826 39.6344C79.2209 39.8391 78.9966 40.2266 78.9966 40.6367V51.7616C78.9966 52.171 79.2209 52.5585 79.5826 52.7632L89.1012 58.2217C89.2726 58.3222 89.4678 58.3752 89.6665 58.3752C89.8652 58.3752 90.0603 58.3222 90.2317 58.2217L95.9973 54.9928C96.0871 54.9438 96.1619 54.8712 96.2135 54.7828C96.2651 54.6944 96.2916 54.5936 96.2902 54.4913C96.2914 54.3892 96.2647 54.2887 96.2131 54.2006C96.1615 54.1126 96.0869 54.0402 95.9973 53.9913L86.3669 48.4163C86.2793 48.3649 86.2064 48.2918 86.1551 48.2042C86.1038 48.1165 86.0758 48.0171 86.0739 47.9156V44.4343C86.0728 44.3323 86.0994 44.2318 86.1511 44.1437C86.2027 44.0556 86.2773 43.9833 86.3669 43.9343L89.3747 42.2047C89.4625 42.1486 89.5646 42.1188 89.6688 42.1188C89.773 42.1188 89.8751 42.1486 89.9629 42.2047L92.9676 43.9336C93.0556 43.9847 93.129 44.0576 93.1807 44.1453C93.2325 44.233 93.2608 44.3326 93.2629 44.4343V47.1648C93.2629 47.3703 93.3754 47.5749 93.5559 47.6656C93.6438 47.7218 93.746 47.7516 93.8504 47.7516C93.9548 47.7516 94.057 47.7218 94.1449 47.6656L99.841 44.3218C100.016 44.2199 100.16 44.0734 100.259 43.8972C100.359 43.7211 100.41 43.5217 100.407 43.3195V40.6125C100.407 40.2031 100.18 39.818 99.841 39.6125L90.3223 34.0626C90.1467 33.9621 89.9481 33.9088 89.7458 33.9079L89.745 33.9087ZM63.4976 42.2164C63.5484 42.2164 63.5999 42.2281 63.646 42.2516L66.9225 44.1625C67.0132 44.2078 67.0593 44.3203 67.0593 44.4117V48.2335C67.0593 48.3476 67.0132 48.4398 66.9225 48.4851L63.6452 50.396C63.5993 50.4185 63.5488 50.4302 63.4976 50.4302C63.4464 50.4302 63.3959 50.4185 63.3499 50.396L60.0726 48.4851C59.982 48.4398 59.9359 48.3249 59.9359 48.2335V44.4117C59.9359 44.2976 59.9828 44.2078 60.0726 44.1617L63.3499 42.2516C63.3957 42.2278 63.446 42.2157 63.4976 42.2164Z" fill="#E4E4E4"/>
<path d="M37.8923 34.1071C37.7169 34.0062 37.5181 33.9531 37.3157 33.9531C37.1134 33.9531 36.9146 34.0062 36.7392 34.1071L27.2205 39.636C27.0461 39.7378 26.9018 39.8841 26.8024 40.0599C26.703 40.2357 26.6521 40.4348 26.6549 40.6368V51.7156C26.6549 52.1257 26.8815 52.5124 27.2205 52.7171L36.7392 58.2452C36.9146 58.3461 37.1134 58.3992 37.3157 58.3992C37.5181 58.3992 37.7169 58.3461 37.8923 58.2452L47.4102 52.7171C47.7719 52.5124 47.9758 52.1257 47.9758 51.7156V40.6368C47.9758 40.2274 47.7492 39.8399 47.4102 39.636L37.8923 34.1071Z" fill="#E4E4E4"/>
<path d="M47.4324 39.6358L37.8692 34.1069C37.7754 34.0594 37.677 34.0214 37.5755 33.9937L26.8584 52.4435C26.949 52.5575 27.0615 52.6482 27.1748 52.7169L36.7388 58.245C37.0099 58.4044 37.3263 58.4497 37.62 58.3583L47.6816 39.8405C47.6155 39.7539 47.5302 39.6838 47.4324 39.6358Z" fill="#E4E4E4"/>
<path d="M47.434 52.7133C47.7059 52.5539 47.909 52.2813 47.9996 51.9852L37.531 33.9674C37.2606 33.9221 36.9661 33.9447 36.7177 34.1041L27.2217 39.6095L37.4638 58.4007C37.5989 58.3781 37.7575 58.3328 37.8935 58.264L47.434 52.7133Z" fill="#E4E4E4"/>
</g>
<defs>
<clipPath id="clip0_2358_6291">
<rect width="100" height="100" fill="white" transform="translate(0.406738 0.59668)"/>
</clipPath>
</defs>
</svg>
