<svg width="101" height="101" viewBox="0 0 101 101" fill="none" xmlns="http://www.w3.org/2000/svg">
<g clip-path="url(#clip0_2358_6411)">
<path d="M77.4288 44.1484H71.9333C71.5687 44.1484 71.2301 44.4089 71.178 44.7996L68.9642 58.7336C68.9382 58.8638 68.9903 58.9941 69.0684 59.0983C69.1465 59.2024 69.2768 59.2545 69.407 59.2545H72.2198C72.4803 59.2545 72.7147 59.0722 72.7407 58.8118L73.3658 54.8529C73.4179 54.4883 73.7565 54.2018 74.1211 54.2278H75.8661C79.4863 54.2278 81.5699 52.4828 82.1168 49.0709C82.3512 47.5603 82.1168 46.3883 81.4136 45.5549C80.6583 44.6433 79.278 44.1484 77.4288 44.1484ZM78.0538 49.2533C77.7413 51.2066 76.2568 51.2066 74.7983 51.2066H73.9648L74.5378 47.5603C74.5639 47.3259 74.7722 47.1697 74.9806 47.1697H75.3712C76.3609 47.1697 77.2985 47.1697 77.7934 47.7166C78.0799 48.0552 78.1841 48.55 78.0538 49.2533ZM38.2054 44.1484H32.7099C32.3453 44.1484 32.0067 44.4089 31.9546 44.7996L29.7148 58.7336C29.6887 58.8638 29.7408 58.9941 29.819 59.0983C29.8971 59.2024 30.0273 59.2545 30.1575 59.2545H32.7881C33.1527 59.2545 33.4913 58.9941 33.5434 58.6294L34.1424 54.879C34.1945 54.5143 34.5331 54.2278 34.8977 54.2539H36.6427C40.2629 54.2539 42.3465 52.5089 42.8934 49.097C43.1278 47.5864 42.8934 46.4144 42.1902 45.5809C41.4349 44.6433 40.0546 44.1484 38.2054 44.1484ZM38.8565 49.2533C38.544 51.2066 37.0594 51.2066 35.6009 51.2066H34.7675L35.3405 47.5603C35.3665 47.3259 35.5749 47.1697 35.7832 47.1697H36.1739C37.1636 47.1697 38.1012 47.1697 38.596 47.7166C38.8565 48.0552 38.9607 48.55 38.8565 49.2533ZM54.6396 49.1751H52.0091C51.7747 49.1751 51.5924 49.3314 51.5663 49.5658L51.4622 50.2951L51.2798 50.0346C50.7069 49.2272 49.4307 48.9407 48.1805 48.9407C45.2635 48.9407 42.7893 51.1285 42.2944 54.1758C42.034 55.7124 42.3986 57.1449 43.2841 58.1606C44.0915 59.0983 45.2375 59.4889 46.5918 59.4889C47.9461 59.515 49.2744 58.968 50.2381 58.0044L50.0818 58.7336C50.0557 58.8638 50.1078 58.9941 50.186 59.0983C50.2641 59.2024 50.3943 59.2545 50.5245 59.2545H52.8946C53.2592 59.2545 53.5978 58.9941 53.6499 58.6294L55.0824 49.7221C55.1084 49.5918 55.0563 49.4616 54.9782 49.3574C54.9001 49.2533 54.7698 49.1751 54.6396 49.1751ZM50.9673 54.2539C50.7329 55.7124 49.4828 56.7803 47.9982 56.7282C47.321 56.7803 46.696 56.5198 46.2272 56.0249C45.8365 55.504 45.6802 54.8529 45.8104 54.2018C46.0188 52.7433 47.295 51.6754 48.7535 51.7015C49.4046 51.6494 50.0557 51.9098 50.4985 52.4047C50.9673 52.9256 51.1236 53.6028 50.9673 54.2539ZM93.863 49.1751H91.2325C90.9981 49.1751 90.8158 49.3314 90.7897 49.5658L90.6856 50.2951L90.5032 50.0346C89.9303 49.2272 88.6541 48.9407 87.4039 48.9407C84.4869 48.9407 82.0127 51.1285 81.5178 54.1758C81.2574 55.7124 81.622 57.1449 82.5075 58.1606C83.3149 59.0983 84.4609 59.4889 85.8152 59.4889C87.1695 59.515 88.4978 58.968 89.4615 58.0044L89.3573 58.7336C89.3312 58.8638 89.3833 58.9941 89.4615 59.0983C89.5396 59.2024 89.6698 59.2545 89.8 59.2545H92.1701C92.5347 59.2545 92.8733 58.968 92.9254 58.6034L94.3579 49.696C94.3839 49.5658 94.3318 49.4356 94.2537 49.3314C94.1235 49.2272 93.9932 49.1751 93.863 49.1751ZM90.1907 54.2539C89.9563 55.7124 88.7062 56.7803 87.2216 56.7282C86.5444 56.7803 85.9194 56.5198 85.4506 56.0249C85.0599 55.504 84.9036 54.8529 85.0338 54.2018C85.2422 52.7433 86.5184 51.6754 87.9769 51.7015C88.628 51.6494 89.2791 51.9098 89.7219 52.4047C90.1907 52.9256 90.347 53.6028 90.1907 54.2539ZM68.6777 49.1751H66.0212C65.7607 49.1751 65.5263 49.3053 65.3961 49.5137L61.7498 54.8269L60.2132 49.7221C60.109 49.4095 59.8225 49.1751 59.4839 49.1751H56.8795C56.7232 49.1751 56.593 49.2533 56.5148 49.3574C56.4367 49.4877 56.4107 49.6179 56.4627 49.7742L59.3798 58.2127L56.593 62.0413C56.4888 62.1716 56.4888 62.3539 56.5669 62.5101C56.6451 62.6664 56.8013 62.7445 56.9836 62.7445H59.6402C59.9007 62.7445 60.1351 62.6143 60.2653 62.432L69.0684 49.8783C69.1726 49.7481 69.1726 49.5658 69.0945 49.4095C68.9903 49.2793 68.834 49.1751 68.6777 49.1751ZM96.9623 44.5391L94.6964 58.7076C94.6704 58.8378 94.7225 58.968 94.8006 59.0722C94.8788 59.1764 95.009 59.2285 95.1392 59.2285H97.4051C97.7697 59.2285 98.1083 58.968 98.1604 58.6034L100.4 44.6954C100.426 44.5652 100.374 44.4349 100.296 44.3308C100.218 44.2266 100.088 44.1745 99.9575 44.1745H97.4051C97.1967 44.1484 97.0144 44.3047 96.9623 44.5391Z" fill="white"/>
<path d="M8.46108 43.7838C8.64339 43.6796 8.87779 43.6535 9.08615 43.6535H14.9983C15.6755 43.6535 16.3526 43.7056 17.0298 43.8098C17.2121 43.8358 17.3684 43.8619 17.5507 43.914C17.733 43.94 17.8893 43.9921 18.0455 44.0442L18.28 44.1223C18.3581 44.1484 18.4362 44.1744 18.5144 44.2005C18.6446 42.6117 18.1758 41.4918 17.3944 40.6323C16.2485 39.3821 14.243 38.8352 11.6385 38.8352H4.60645C4.08556 38.8352 3.61675 39.2259 3.53862 39.7207L0.41325 59.4107C0.387205 59.5931 0.439294 59.7754 0.569518 59.9316C0.699741 60.0879 0.882055 60.166 1.06437 60.14H5.20548L7.65369 44.8776C7.73182 44.3828 8.01832 43.9661 8.46108 43.7838Z" fill="white"/>
<path d="M17.9677 45.0077L17.7593 44.9556C17.6291 44.9035 17.4729 44.8775 17.3166 44.8514C17.1603 44.8254 17.004 44.7993 16.8478 44.7733C16.2227 44.6691 15.5976 44.6431 14.9726 44.6431H9.47712C9.34689 44.6431 9.19062 44.6691 9.0604 44.7212C8.77391 44.8514 8.5916 45.1119 8.53951 45.4244L7.5498 51.6492C7.65398 51.6231 7.78421 51.6231 7.88839 51.6231H10.1022C11.17 51.6492 12.2118 51.4929 13.2536 51.2324C15.5976 50.5553 17.1603 49.0707 17.9677 46.6746C18.124 46.1797 18.2542 45.6849 18.3584 45.19C18.2542 45.1119 18.0979 45.0598 17.9677 45.0077Z" fill="white"/>
<path d="M19.9992 46.1539C19.7908 45.9455 19.5825 45.7632 19.322 45.6069C18.723 48.524 16.8738 52.6391 10.0501 52.6391H8.35719C7.83629 52.6391 7.36749 53.0298 7.28935 53.5246C7.28935 53.5246 5.96107 61.7288 5.90898 62.1455C5.88294 62.3018 5.93503 62.458 6.0392 62.5883C6.14338 62.7185 6.29965 62.7706 6.45592 62.7706H9.86778C10.3366 62.7706 10.7273 62.432 10.8054 61.9892L11.6388 56.9105C11.717 56.4677 12.1076 56.1291 12.5764 56.1291H13.1494C16.952 56.1291 19.9211 54.5924 20.8066 50.1908C20.8326 50.0606 20.8587 49.9304 20.8847 49.8002C21.041 48.2896 20.8066 47.0654 19.9992 46.1539Z" fill="white"/>
</g>
<defs>
<clipPath id="clip0_2358_6411">
<rect width="100" height="100" fill="white" transform="translate(0.406738 0.802979)"/>
</clipPath>
</defs>
</svg>
