<svg width="101" height="101" viewBox="0 0 101 101" fill="none" xmlns="http://www.w3.org/2000/svg">
<path fill-rule="evenodd" clip-rule="evenodd" d="M43.4829 27.2724C45.6204 27.2724 47.758 27.3054 49.8927 27.2497C50.4589 27.2349 51.4747 27.7032 51.4292 26.5263C51.3945 25.5685 50.5061 25.9151 49.9678 25.9066C47.5565 25.8685 45.1373 25.7768 42.7357 25.9276C41.0267 26.0341 40.523 25.3853 40.7376 23.818C40.8115 23.2773 40.7404 22.7174 40.7518 22.1665C40.8269 18.4981 41.7136 17.2495 45.2716 16.3446C49.1915 15.3487 53.2031 15.3817 57.1122 16.2399C60.6264 17.0116 62.0862 19.7455 61.9086 22.2746C61.6923 25.3608 61.8597 28.4738 61.8568 31.5754C61.8517 35.4754 59.8365 37.5452 55.9046 37.5993C52.6664 37.6437 49.4243 37.6789 46.1878 37.589C42.3305 37.4809 39.5009 40.6849 39.4816 44.3158C39.4816 44.5912 39.5288 44.8758 39.4742 45.1415C39.1964 46.4749 40.3062 48.6301 38.8926 49.0262C36.7414 49.6306 34.2225 49.6306 32.3252 47.711C31.6821 47.0622 31.1403 46.3355 30.8546 45.4955C29.33 41.0196 29.0893 36.4867 30.5245 31.9407C31.4192 29.1032 33.8526 27.3384 36.8671 27.2878C39.0718 27.2508 41.2771 27.2804 43.4818 27.2804L43.4829 27.2724ZM47.4108 20.944C47.3186 19.8611 46.7364 19.0706 45.5351 19.0376C44.221 19.0034 43.5421 19.7979 43.5404 21.0909C43.5392 22.2894 44.192 23.0571 45.3848 23.0918C46.6955 23.13 47.33 22.3178 47.4108 20.944Z" fill="#E4E4E4"/>
<path fill-rule="evenodd" clip-rule="evenodd" d="M59.9811 49.213C57.5682 49.213 55.154 49.192 52.7411 49.2301C52.1976 49.2369 51.2859 48.8932 51.2574 49.8225C51.2256 50.8765 52.2038 50.6022 52.8253 50.6085C55.2383 50.6386 57.6535 50.6642 60.0659 50.5971C61.3054 50.5629 61.8114 50.8003 61.9041 52.2617C62.3235 58.8775 59.4524 59.4494 54.157 60.6531C51.1191 61.3434 47.8622 60.9774 44.8665 59.6355C42.3892 58.5275 40.8691 56.9306 41.0609 53.9405C41.251 50.9892 41.2828 47.9997 41.0558 45.0512C40.7826 41.4927 42.9964 38.8754 47.3016 38.8742C50.1983 38.8737 53.1144 38.6529 55.9861 38.9169C60.0921 39.2937 63.3115 35.7345 63.4526 31.596C63.4583 31.4589 63.423 31.3115 63.4583 31.184C63.8203 29.9121 62.533 28.0215 64.2551 27.379C66.8575 26.4087 69.7924 27.4285 71.1218 29.4033C72.7978 31.8897 73.0243 34.8154 73.2952 37.6723C73.5883 40.7517 72.7244 43.6507 71.4308 46.4284C70.5521 48.3122 69.0748 49.2227 67.0163 49.2256C64.6716 49.2273 62.3275 49.2256 59.9823 49.2256L59.9811 49.213ZM59.3529 55.3593C59.095 54.1835 58.5646 53.3811 57.1988 53.3475C55.7783 53.3134 55.4118 54.3759 55.4192 55.3246C55.4272 56.333 55.7083 57.5737 57.246 57.4576C58.5242 57.3597 59.1474 56.5681 59.3529 55.3593Z" fill="#E4E4E4"/>
<path fill-rule="evenodd" clip-rule="evenodd" d="M22.0254 79.5345C22.0254 81.0039 22.092 82.38 21.9941 83.7441C21.952 84.3326 22.6008 85.44 21.3664 85.4389C20.2783 85.4389 19.9988 84.5727 20.0336 83.5262C20.1001 81.5286 20.0529 79.5271 20.0529 77.5279V72.9762C20.0529 70.2332 20.7888 69.3044 23.4123 68.7364C25.8515 68.206 27.7682 69.0272 28.7539 71.1625C29.7395 73.2983 29.8158 75.499 28.8295 77.6718C27.8575 79.8128 26.0671 80.6118 23.7737 79.9773C23.2512 79.835 22.7237 79.7115 22.0254 79.5345ZM22.0254 74.1577C22.0254 74.9146 22.1278 75.6863 22.0043 76.4227C21.7187 78.1248 22.8056 78.5443 24.0872 78.847C25.3546 79.1464 26.2236 78.6074 26.7318 77.4909C27.5861 75.6185 27.7295 73.6876 27.0807 71.7077C26.5048 69.948 25.1748 69.742 23.6223 69.9606C22.0891 70.1785 21.8814 71.2211 22.0152 72.5101C22.0721 73.0536 22.0254 73.6085 22.0254 74.1577ZM38.5219 79.4434C37.4719 79.7166 36.5602 80.008 35.6269 80.1833C33.5838 80.5651 32.0711 79.4434 31.539 77.3981C30.8789 74.8668 31.4377 72.3451 31.4548 69.8194C31.4622 68.6681 32.5275 69.1172 33.2645 68.5002C33.2645 71.2035 33.2748 73.5368 33.2611 75.8684C33.2537 77.0396 33.5565 78.0025 34.6639 78.62C35.8864 79.3017 36.8891 78.6524 37.9533 78.2148C38.7159 77.9012 38.6209 77.2609 38.622 76.652C38.6277 74.4485 38.6215 72.2472 38.6288 70.0436C38.63 69.5002 38.5736 68.836 39.3761 68.8628C40.0914 68.8861 40.4027 69.3112 40.3908 70.0909C40.339 73.7371 40.442 77.3884 40.294 81.0295C40.1819 83.7828 38.2396 85.4645 35.4453 85.588C35.027 85.6056 34.5888 85.6443 34.4323 85.1253C34.1939 84.3263 34.8409 84.4771 35.266 84.3411C38.3397 83.3634 38.7415 82.7795 38.5219 79.4434ZM51.511 69.9822C52.3242 69.598 52.7914 69.2463 53.3053 69.1513C56.1889 68.6181 58.3987 68.8212 58.3931 72.7053C58.3891 74.7057 58.3942 76.7066 58.3891 78.7065C58.3879 79.2664 58.4238 79.8116 57.5889 79.86C56.7085 79.9124 56.515 79.4087 56.519 78.7184C56.5293 76.7909 56.5816 74.8633 56.5799 72.9364C56.5788 71.4396 56.2732 70.1148 54.3695 70.1193C52.6998 70.1222 51.5172 71.3685 51.5087 73.0883C51.4991 74.95 51.4997 76.8118 51.5104 78.6734C51.5121 79.3347 51.5263 79.9147 50.5702 79.86C49.7092 79.8088 49.815 79.2283 49.815 78.6939C49.8094 73.7997 49.8333 68.9003 49.7917 64.0027C49.7843 63.1445 50.1229 62.6118 50.8844 62.5754C51.9588 62.5259 51.4666 63.4654 51.4825 63.9367C51.5525 65.8551 51.511 67.7781 51.511 69.9822ZM60.6108 74.3705C60.5021 70.549 62.3147 68.5088 65.5961 68.6272C67.2431 68.6875 68.4786 69.4182 69.2759 70.8409C70.6844 73.3575 70.4938 75.8752 68.9698 78.2318C67.9226 79.8503 66.3121 80.6135 64.3487 80.1969C62.4126 79.7872 60.8965 78.044 60.6222 76.0123C60.5494 75.4746 60.6108 74.9174 60.6108 74.3705ZM68.1912 74.4598C68.1047 73.7929 68.1201 72.863 67.8424 72.0332C67.4628 70.895 66.7708 69.9788 65.3588 69.9162C63.9344 69.8547 63.2236 70.6873 62.7484 71.8397C62.0023 73.6489 62.0507 75.4654 62.8588 77.2422C63.3778 78.3866 64.1791 79.2243 65.5677 78.9921C66.9352 78.7639 67.7422 77.8676 68.0216 76.5376C68.1485 75.9349 68.1281 75.3032 68.1912 74.4598ZM72.1789 74.9692C72.1789 74.2794 72.1658 73.5908 72.1812 72.9045C72.213 71.5813 71.7913 70.1154 73.5755 69.4393C75.6185 68.6676 77.6434 68.0894 79.7001 69.2839C80.4695 69.7312 80.7529 70.5439 80.7609 71.4066C80.782 73.8145 80.7501 76.2235 80.7825 78.6313C80.7939 79.4713 80.5731 79.8913 79.629 79.8686C78.5943 79.8441 78.8123 79.1384 78.8191 78.575C78.8436 76.6514 78.9773 74.7296 78.9409 72.8089C78.8931 70.3902 77.566 69.404 75.305 69.9975C74.3671 70.2445 73.7809 70.6998 73.827 71.8608C73.9186 74.1269 73.8481 76.401 73.8566 78.6712C73.8589 79.3291 73.8685 79.9118 72.9193 79.8566C72.0497 79.8065 72.192 79.205 72.1852 78.6831C72.1692 77.4448 72.1806 76.2058 72.1789 74.9692ZM47.3844 69.606C47.2422 69.7745 47.1226 70.0385 46.9974 70.0408C44.7415 70.0721 45.3675 71.7561 45.3095 73.0052C45.2543 74.169 45.3095 75.3385 45.293 76.5058C45.2759 77.6656 45.3766 78.7434 46.788 79.0513C47.1926 79.139 47.377 79.3723 47.2928 79.7764C47.2 80.2225 46.8444 80.2049 46.4921 80.2003C44.8701 80.1719 43.6676 79.0252 43.6198 77.3463C43.5709 75.631 43.6375 73.9118 43.5971 72.1982C43.576 71.3844 43.9989 70.3458 42.6865 70.0232C42.5425 69.9884 42.4913 69.5804 42.3974 69.3476C44.148 68.7985 43.4218 67.2886 43.662 66.143C43.7758 65.6007 44.2908 65.4522 44.7774 65.4061C45.2697 65.3594 45.2736 65.7578 45.2896 66.0907C45.3545 67.411 44.671 69.178 47.1016 69.0819C47.183 69.079 47.278 69.4023 47.3844 69.606Z" fill="#E4E4E4"/>
</svg>
