<svg width="101" height="101" viewBox="0 0 101 101" fill="none" xmlns="http://www.w3.org/2000/svg">
<path d="M50.4067 46.4334C53.2392 46.4334 55.5355 44.0861 55.5355 41.1906C55.5355 38.295 53.2392 35.9478 50.4067 35.9478C47.5741 35.9478 45.2778 38.295 45.2778 41.1906C45.2778 44.0861 47.5741 46.4334 50.4067 46.4334Z" fill="white"/>
<path d="M50.4066 60.4705C54.4325 64.4731 58.4032 66.8408 61.6018 66.8408C62.6496 66.8408 63.6423 66.6153 64.4695 66.108C67.3373 64.4167 68.3851 60.1887 67.3924 54.1566C67.227 53.0855 67.0064 52.0144 66.7306 50.8869C67.8336 50.5487 68.8263 50.2104 69.8189 49.8722C75.389 47.6736 78.4773 44.6294 78.4773 41.3033C78.4773 37.9209 75.389 34.8767 69.8189 32.7344C68.8263 32.3398 67.8336 32.0016 66.7306 31.7197C67.0064 30.5922 67.227 29.5211 67.3924 28.45C68.3299 22.3052 67.2821 18.0208 64.4144 16.3295C63.5871 15.8222 62.5945 15.5967 61.5466 15.5967C58.4032 15.5967 54.3773 17.9644 50.3515 21.967C46.3808 17.9644 42.4101 15.5967 39.2114 15.5967C38.1636 15.5967 37.1709 15.8222 36.3437 16.3295C33.476 18.0208 32.4281 22.2488 33.4208 28.2809C33.5863 29.352 33.8069 30.4231 34.0826 31.5506C32.9796 31.8888 31.987 32.2271 30.9943 32.5653C25.4243 34.7639 22.3359 37.8081 22.3359 41.1342C22.3359 44.5166 25.4243 47.5609 30.9943 49.7031C31.987 50.0977 32.9796 50.4359 34.0826 50.7178C33.8069 51.8453 33.5863 52.9164 33.4208 53.9875C32.4833 60.0196 33.5311 64.304 36.3437 65.9388C37.1709 66.4462 38.1636 66.6717 39.2114 66.6717C42.4101 66.7845 46.3808 64.4167 50.4066 60.4705ZM47.3183 52.86C48.311 52.9164 49.3588 52.9164 50.4066 52.9164C51.4544 52.9164 52.5023 52.9164 53.4949 52.86C52.5023 54.213 51.4544 55.4532 50.4066 56.6371C49.3588 55.4532 48.311 54.213 47.3183 52.86ZM40.4799 47.0535C41.0313 48.0118 41.5277 48.9138 42.1343 49.8158C40.4247 49.5903 38.8254 49.3085 37.2812 48.9702C37.7776 47.4481 38.3291 45.8696 38.9908 44.2911C39.432 45.1931 39.9284 46.1515 40.4799 47.0535ZM37.2812 33.4673C38.8254 33.1291 40.4247 32.8472 42.1343 32.6217C41.5828 33.5237 41.0313 34.4257 40.4799 35.384C39.9284 36.3424 39.432 37.2444 38.9908 38.2027C38.2739 36.5679 37.7224 34.9894 37.2812 33.4673ZM40.3144 41.1906C41.0313 39.6685 41.8034 38.1464 42.6858 36.6243C43.513 35.1585 44.4506 33.6928 45.3881 32.2271C47.0425 32.1143 48.697 32.0579 50.4066 32.0579C52.1714 32.0579 53.8258 32.1143 55.4251 32.2271C56.4178 33.6928 57.3002 35.1585 58.1274 36.6243C59.0098 38.1464 59.7819 39.6685 60.4988 41.1906C59.7819 42.7127 59.0098 44.2348 58.1274 45.7569C57.3002 47.2226 56.3627 48.6883 55.4251 50.1541C53.7707 50.2668 52.1162 50.3232 50.4066 50.3232C48.6419 50.3232 46.9874 50.2668 45.3881 50.1541C44.3954 48.6883 43.513 47.2226 42.6858 45.7569C41.8034 44.2348 41.0313 42.7127 40.3144 41.1906ZM61.8775 38.1464L60.3885 35.3276C59.837 34.3693 59.3407 33.4673 58.7341 32.5653C60.4437 32.7908 62.043 33.0727 63.5871 33.4109C63.0908 34.9894 62.5393 36.5679 61.8775 38.1464ZM61.8775 44.2348C62.5393 45.8133 63.0908 47.3917 63.5871 48.9138C62.043 49.2521 60.4437 49.534 58.7341 49.7594C59.2855 48.8575 59.837 47.9555 60.3885 46.9971C60.8849 46.1515 61.3812 45.1931 61.8775 44.2348ZM63.146 63.7966C62.7048 64.0785 62.1533 64.1912 61.5466 64.1912C58.8444 64.1912 55.4803 61.9363 52.1714 58.5538C53.7707 56.8062 55.3148 54.8331 56.859 52.6345C59.451 52.409 61.9327 52.0144 64.2489 51.4507C64.5247 52.4654 64.6901 53.4801 64.8556 54.4949C65.6276 59.2867 65.021 62.7255 63.146 63.7966ZM66.0137 34.0874C72.1903 35.8914 75.8853 38.6537 75.8853 41.1906C75.8853 43.3892 73.3485 45.5878 68.8814 47.3354C67.999 47.6736 67.0064 48.0118 66.0137 48.2937C65.2968 45.9824 64.4144 43.6147 63.3114 41.1906C64.4144 38.7665 65.3519 36.3988 66.0137 34.0874ZM61.6018 18.1899C62.2084 18.1899 62.7048 18.3026 63.2011 18.5845C65.021 19.6556 65.6828 23.0381 64.9107 27.8863C64.7453 28.8446 64.5247 29.8594 64.3041 30.9305C61.9878 30.4231 59.5061 30.0285 56.9142 29.7466C55.4251 27.548 53.8258 25.5749 52.2265 23.8273C55.5354 20.5012 58.8995 18.1899 61.6018 18.1899ZM53.4949 29.5211C52.5023 29.4647 51.4544 29.4647 50.4066 29.4647C49.3588 29.4647 48.311 29.4647 47.3183 29.5211C48.311 28.1681 49.3588 26.9279 50.4066 25.744C51.4544 26.9279 52.5023 28.2245 53.4949 29.5211ZM37.6673 18.5845C38.1085 18.3026 38.6599 18.1899 39.2666 18.1899C41.9689 18.1899 45.3329 20.4449 48.6419 23.8273C47.0425 25.5749 45.4984 27.548 43.9542 29.7466C41.3622 29.9721 38.8805 30.3667 36.5643 30.9305C36.2886 29.9157 36.1231 28.901 35.9577 27.8863C35.1856 23.0944 35.7922 19.712 37.6673 18.5845ZM34.7995 48.2937C28.6229 46.4897 24.9279 43.7274 24.9279 41.1906C24.9279 38.992 27.4648 36.7934 31.9318 35.0458C32.8142 34.7075 33.8069 34.3693 34.7995 34.0874C35.5165 36.3988 36.3988 38.7665 37.5018 41.1906C36.3988 43.6147 35.4613 46.0387 34.7995 48.2937ZM35.9577 54.4949C36.1231 53.5365 36.3437 52.5218 36.5643 51.4507C38.8805 51.958 41.3622 52.3527 43.9542 52.6345C45.4432 54.8331 47.0425 56.8062 48.6419 58.5538C45.3329 61.8799 41.9689 64.1912 39.2666 64.1912C38.6599 64.1912 38.1636 64.0785 37.6673 63.7966C35.7922 62.7255 35.1856 59.2867 35.9577 54.4949ZM33.6414 77.7211C34.8547 76.199 34.9098 74.5077 34.2481 72.8165C33.5863 71.1253 32.2075 70.336 30.4979 70.2797C28.4574 70.2233 26.3618 70.2797 24.3213 70.2797H23.9352V84.8806H25.5897V79.3559H28.1817C28.5126 79.3559 28.7883 79.4687 28.9538 79.7505L32.2627 84.9933C32.3178 85.1061 32.4833 85.2752 32.5936 85.2752H34.7444C33.4208 83.1893 32.1524 81.2163 30.8288 79.1868C31.987 79.0177 32.9796 78.623 33.6414 77.7211ZM25.5897 77.6083V72.0273H26.1963C27.4648 72.0273 28.7883 71.9709 30.0568 72.0836C31.5458 72.14 32.5936 73.3239 32.5936 74.846C32.5936 76.3681 31.3803 77.5519 29.8913 77.6083C28.5677 77.6647 27.2442 77.6083 25.5897 77.6083ZM46.9322 78.3412C46.0499 74.395 42.5204 73.3802 39.8181 74.6205C37.7224 75.5788 36.7849 77.4392 36.7297 79.7505C36.6746 81.4981 37.1709 83.0766 38.4945 84.2605C39.9835 85.6134 41.8034 85.7826 43.6785 85.4443C44.7263 85.2188 45.6638 84.7115 46.3808 83.9222C46.105 83.5276 45.8293 83.133 45.5535 82.7947C44.0094 84.1477 42.2998 84.5987 40.4247 83.6967C39.2114 83.0766 38.6048 81.5545 38.4945 80.427H47.0425V79.6942C47.0977 79.1868 47.0425 78.7358 46.9322 78.3412ZM38.6048 79.2432C38.4393 77.5519 40.0938 75.748 41.9137 75.748C44.0094 75.6916 45.3329 76.9882 45.3881 79.2432H38.6048ZM55.5354 74.3386C54.7082 74.1695 53.8258 74.1131 52.9986 74.1695C51.675 74.2822 50.5169 74.9023 49.5794 75.9171C49.8551 76.3117 50.0757 76.7063 50.4066 77.1573C50.5169 77.0446 50.6272 76.9318 50.7375 76.8754C51.6199 76.0298 52.6677 75.5788 53.9361 75.6916C54.9288 75.748 55.8663 76.0862 56.1421 77.1009C56.3627 77.8902 56.3075 78.7358 56.3627 79.5814C56.1972 79.5814 56.1421 79.525 56.0869 79.4687C54.7634 78.3412 53.2743 78.1157 51.675 78.5103C50.186 78.9049 49.2485 80.0888 49.1382 81.6109C49.0279 83.3585 49.8 84.6551 51.289 85.2752C52.2265 85.6698 53.2743 85.6698 54.267 85.4443C55.0391 85.2752 55.37 84.8242 56.473 84.2041V84.937H58.0171C58.0171 82.682 58.0723 79.9196 58.0171 77.3264C58.0171 75.6916 57.0796 74.6768 55.5354 74.3386ZM56.3075 81.4418C56.2524 81.6109 56.3075 81.78 56.3075 81.9491C56.3075 83.133 56.0318 83.5276 54.9288 83.9786C54.1567 84.2605 53.3295 84.3732 52.5023 84.0913C51.5647 83.8095 50.903 82.9639 50.903 82.0055C50.8478 81.0471 51.4544 80.0888 52.392 79.8069C53.6604 79.3559 54.8185 79.6378 55.8663 80.427C56.1972 80.7089 56.4178 80.9908 56.3075 81.4418ZM64.9107 75.8607C66.3446 75.4097 67.6681 75.6916 68.6608 76.9318L68.8263 77.0446C69.2123 76.7063 69.5432 76.3681 69.9844 75.9735C69.8189 75.8043 69.7638 75.6916 69.6535 75.5225C68.0542 73.7749 64.9107 73.5494 62.9805 74.9587C60.2782 76.9882 60.3334 80.9344 61.6569 83.0202C62.9254 84.9933 64.7453 85.6698 66.8961 85.3879C68.1645 85.2188 69.2123 84.5987 70.0395 83.5276C69.6535 83.1893 69.2675 82.8511 68.8814 82.4565C68.7711 82.5692 68.716 82.6256 68.6608 82.7384C67.1718 84.4296 64.6901 84.2605 63.3666 82.4565C62.5945 81.3854 62.429 80.1451 62.6496 78.9049C62.7599 77.4956 63.4769 76.3681 64.9107 75.8607ZM76.3816 83.5276C76.2713 83.584 76.2162 83.6403 76.2162 83.6403C75.775 83.9786 75.3338 84.035 74.8375 83.8658C74.3411 83.6403 74.286 83.1893 74.2308 82.7384V76.3117C74.2308 76.199 74.2308 76.4244 74.286 75.8607H76.3816V74.1695H74.1757V71.3508H72.5212V74.395H71.0874C70.9771 74.395 70.8116 74.5077 70.8116 74.6205C70.7565 75.0151 70.8116 75.297 70.8116 75.8607H72.5764V83.0766C72.5764 83.9786 72.797 84.7678 73.5691 85.2188C74.3963 85.7262 75.9956 85.6134 76.7125 84.9933C76.8228 84.9369 76.878 84.7115 76.878 84.6551C76.7125 84.3168 76.5471 83.9222 76.3816 83.5276Z" fill="white"/>
</svg>
