<svg width="101" height="101" viewBox="0 0 101 101" fill="none" xmlns="http://www.w3.org/2000/svg">
<g clip-path="url(#clip0_2358_6418)">
<path d="M26.5723 15.9045C32.8519 15.9046 38.4707 18.8912 41.9961 23.5266L42.2979 23.1965C45.4972 20.0299 49.8593 18.0842 54.6621 18.0842C61.2724 18.0843 67.0011 21.7483 70.0859 27.2083C72.8242 25.9868 75.7906 25.3561 78.79 25.3577C90.6883 25.3579 100.347 35.0686 100.347 47.051C100.347 59.0334 90.6883 68.7441 78.79 68.7444C77.3358 68.7444 75.9175 68.5981 74.5293 68.3225C71.8301 73.1229 66.6707 76.384 60.7949 76.384C58.4027 76.3888 56.0408 75.8473 53.8906 74.801C51.1547 81.2137 44.7834 85.7209 37.3652 85.7209C29.6166 85.7209 23.0428 80.8477 20.5088 73.9954C19.3811 74.2328 18.2316 74.3525 17.0791 74.3518C7.86142 74.3518 0.40625 66.8024 0.40625 57.5315C0.406347 51.3023 3.76268 45.879 8.74219 42.9475C7.68576 40.5191 7.14274 37.8995 7.14551 35.2522C7.14552 24.5522 15.8489 15.9045 26.5723 15.9045ZM58.7031 40.2581C57.6554 40.2581 56.8289 40.5536 56.249 41.137C55.6734 41.7159 55.2814 42.5978 55.085 43.7581L55.0146 44.1497H53.6992C53.6992 44.1497 53.5388 44.1432 53.5049 44.3176L53.2891 45.5198C53.274 45.6348 53.3235 45.707 53.4775 45.7063H54.7578L53.459 52.9407C53.3573 53.5231 53.2412 54.0024 53.1123 54.3655C52.9852 54.7239 52.8608 54.9928 52.708 55.1877C52.56 55.3764 52.4197 55.515 52.1777 55.5959C51.978 55.663 51.748 55.6946 51.4961 55.6946C51.3558 55.6946 51.169 55.6703 51.0312 55.6428C50.8938 55.6157 50.8218 55.5854 50.7188 55.5422C50.7125 55.54 50.5677 55.4881 50.5098 55.635C50.4617 55.7577 50.1207 56.6935 50.0801 56.8098C50.039 56.924 50.0964 57.0141 50.1689 57.0403C50.3393 57.1011 50.4663 57.14 50.6982 57.1946C51.0206 57.2704 51.2925 57.2756 51.5469 57.2756C52.0799 57.2756 52.566 57.2009 52.9688 57.0559C53.3742 56.9097 53.7279 56.6546 54.04 56.3098C54.3774 55.9379 54.5889 55.5481 54.792 55.0168C54.9929 54.4903 55.1648 53.8363 55.3018 53.0745L56.6064 45.7063H58.5146C58.5146 45.7063 58.6754 45.7119 58.709 45.5383L58.9248 44.3362C58.9398 44.2212 58.8909 44.1491 58.7363 44.1497H56.8838C56.8931 44.1068 56.977 43.4573 57.1895 42.8459C57.2801 42.5849 57.4511 42.3745 57.5957 42.2297C57.7308 42.0919 57.8974 41.988 58.0811 41.928C58.2823 41.8659 58.4925 41.8363 58.7031 41.8391C58.8775 41.8391 59.0484 41.8599 59.1787 41.887C59.3583 41.9251 59.4286 41.9453 59.4756 41.9592C59.6639 42.0165 59.6895 41.9605 59.7266 41.8694L60.1689 40.6555C60.2143 40.5252 60.1036 40.4705 60.0625 40.4543C59.8746 40.3977 59.6836 40.3522 59.4902 40.3186C59.2302 40.2753 58.9668 40.2552 58.7031 40.2581ZM18.3926 43.9465C16.516 43.9465 15.2051 45.0788 15.2051 46.6985V46.7336C15.2053 48.4409 16.6516 48.9983 18.0029 49.3831L18.2207 49.4504C19.2048 49.7523 20.0566 50.0145 20.0566 50.7034V50.7375C20.0566 51.3715 19.502 51.844 18.6133 51.844C18.2675 51.844 17.166 51.8387 15.9727 51.0862C15.8284 51.0023 15.746 50.9411 15.6348 50.8733C15.5757 50.8377 15.429 50.7745 15.3652 50.9661L14.9619 52.0872L14.9463 52.1458C14.9208 52.2621 14.9882 52.2913 15.0059 52.3167C15.1935 52.4522 15.3843 52.5501 15.5752 52.6604C16.5961 53.199 17.5582 53.3567 18.5645 53.3567C20.6135 53.3566 21.8877 52.2684 21.8877 50.5168V50.4827C21.8877 48.8632 20.4485 48.2732 19.1045 47.8518L18.9277 47.7952C17.9106 47.4661 17.0332 47.1788 17.0332 46.512V46.4778C17.0334 45.9063 17.5478 45.4856 18.3408 45.4856C19.2221 45.4856 20.2723 45.7782 20.9443 46.1487C20.9503 46.1524 21.1445 46.2737 21.2158 46.0852C21.2551 45.9816 21.5976 45.068 21.6348 44.9641C21.6736 44.8569 21.6052 44.7755 21.5352 44.7336C20.764 44.2646 19.6984 43.9456 18.5967 43.9456L18.3926 43.9465ZM48.3916 43.9436C46.5151 43.9436 45.2041 45.0759 45.2041 46.6956V46.7307C45.2043 48.438 46.6516 48.9954 48.0029 49.3801L48.2197 49.4475C49.2074 49.7494 50.0557 50.0116 50.0557 50.7004V50.7346C50.0557 51.3686 49.501 51.8411 48.6123 51.8411C48.2659 51.8411 47.1614 51.8358 45.9717 51.0833C45.8274 50.9994 45.7432 50.9407 45.6338 50.8704C45.5964 50.8468 45.4233 50.7801 45.3643 50.9631L44.9609 52.0842L44.9482 52.1428C44.9228 52.2592 44.9905 52.2884 45.0088 52.3137C45.1955 52.4491 45.3864 52.5473 45.5771 52.6575C46.5979 53.1961 47.5603 53.3537 48.5664 53.3538C50.6156 53.3538 51.8906 52.2655 51.8906 50.5139V50.4797C51.8906 48.8601 50.4542 48.2703 49.1064 47.8489L48.9307 47.7922C47.9134 47.4632 47.0361 47.1759 47.0361 46.509V46.4749C47.0364 45.9035 47.55 45.4828 48.3428 45.4827C49.2241 45.4827 50.2715 45.7753 50.9473 46.1458C50.9567 46.1517 51.1478 46.2689 51.2188 46.0823C51.2576 45.9787 51.6001 45.0656 51.6338 44.9612C51.6731 44.8538 51.604 44.7725 51.5342 44.7307C50.763 44.2618 49.6983 43.9426 48.5967 43.9426L48.3916 43.9436ZM63.2344 43.9749C62.5368 43.9749 61.9235 44.0982 61.3984 44.3411C60.877 44.5844 60.4319 44.9204 60.083 45.3381C59.735 45.7558 59.4736 46.2546 59.3047 46.8225C59.1377 47.3867 59.0527 48.0026 59.0527 48.6584C59.0528 49.3143 59.1376 49.9302 59.3047 50.4944C59.4725 51.0621 59.7344 51.5602 60.083 51.9778C60.4323 52.3955 60.877 52.7289 61.3984 52.967C61.9236 53.2045 62.5403 53.3254 63.2344 53.3254C63.9285 53.3254 64.5459 53.2045 65.0674 52.967C65.5886 52.7296 66.0331 52.3954 66.3818 51.9778C66.7302 51.5602 66.9913 51.0621 67.1602 50.4944C67.3269 49.9302 67.4121 49.3143 67.4121 48.6584C67.4121 48.0063 67.3268 47.3868 67.1602 46.8225L67.0967 46.6125C66.929 46.131 66.691 45.7036 66.3857 45.3381C66.0365 44.9204 65.5955 44.5829 65.0703 44.3411C64.5489 44.0975 63.932 43.9749 63.2344 43.9749ZM40.0996 43.969C39.3762 43.969 38.719 44.0911 38.1865 44.3391C37.6541 44.589 37.206 44.9288 36.8535 45.3538C36.5021 45.7788 36.2363 46.2814 36.0674 46.8567C35.8989 47.4246 35.8145 48.0474 35.8145 48.6995C35.8145 49.3663 35.902 49.9855 36.0771 50.5461C36.2527 51.1104 36.5359 51.6055 36.9141 52.0159C37.296 52.4299 37.7846 52.7525 38.3721 52.9797C38.956 53.2051 39.6613 53.3221 40.4766 53.3196C42.1511 53.3141 43.0327 52.942 43.3926 52.7405C43.4565 52.7046 43.5173 52.6425 43.4414 52.4641L43.0635 51.4045C43.0062 51.2502 42.8511 51.3018 42.8447 51.304C42.4297 51.4586 41.842 51.7363 40.4648 51.7327C39.5688 51.7312 38.9001 51.4662 38.4814 51.051C38.0557 50.626 37.8426 50.0064 37.8096 49.1272L43.6123 49.1321C43.6184 49.132 43.7648 49.1274 43.7803 48.9817C43.7865 48.9201 43.9794 47.7943 43.6074 46.4934L43.6035 46.4924C43.4581 45.9464 43.0964 45.3927 42.8613 45.1399C42.4869 44.7406 42.1232 44.4588 41.7598 44.3049C41.2349 44.0822 40.67 43.968 40.0996 43.969ZM86.4824 43.969C85.759 43.969 85.1009 44.091 84.5684 44.3391C84.036 44.589 83.5878 44.9288 83.2354 45.3538C82.8832 45.7788 82.6191 46.2814 82.4502 46.8567C82.2813 47.4246 82.1953 48.0473 82.1953 48.6995C82.1953 49.3663 82.284 49.9856 82.458 50.5461C82.6339 51.1104 82.917 51.6055 83.2988 52.0159C83.6807 52.4299 84.1693 52.7525 84.7568 52.9797C85.3407 53.2051 86.0498 53.3221 86.8613 53.3196C88.5359 53.3141 89.4174 52.942 89.7773 52.7405C89.8416 52.7046 89.9018 52.6426 89.8262 52.4641L89.4482 51.4045C89.3919 51.2518 89.2396 51.3009 89.2305 51.304C88.8155 51.4586 88.2276 51.7363 86.8506 51.7327C85.9509 51.7312 85.2858 51.4662 84.8672 51.051C84.4413 50.626 84.2284 50.0065 84.1953 49.1272L89.998 49.1321C90.0071 49.1318 90.1507 49.1258 90.166 48.9817C90.1723 48.9201 90.3648 47.7943 89.9932 46.4934L89.9854 46.4924C89.8395 45.9465 89.4792 45.3927 89.2441 45.1399C88.8696 44.7405 88.5052 44.4588 88.1416 44.3049C87.6169 44.0823 87.0526 43.9681 86.4824 43.969ZM79.0342 43.9514C78.3146 43.9514 77.676 44.0744 77.1289 44.3176C76.5817 44.5606 76.1182 44.896 75.751 45.3137C75.3838 45.7314 75.1053 46.2301 74.918 46.7981C74.7325 47.3624 74.6387 47.982 74.6387 48.6379C74.6387 50.0522 75.0209 51.1992 75.7773 52.0383C76.5338 52.8809 77.6719 53.3058 79.1553 53.3059C80.0329 53.3059 80.9328 53.1287 81.5791 52.8733C81.5791 52.8733 81.703 52.8138 81.6494 52.6702L81.2266 51.5129L81.2002 51.4602C81.1315 51.3611 81.0068 51.4094 81.0068 51.4094C80.7582 51.5043 80.4927 51.592 80.21 51.636C79.925 51.6807 79.6076 51.7034 79.2734 51.7034C78.4472 51.7034 77.7865 51.457 77.3164 50.97C76.8427 50.4826 76.5784 49.6986 76.582 48.636C76.5846 47.6687 76.8188 46.9429 77.2393 46.386C77.6542 45.8365 78.2932 45.551 79.1377 45.551C79.8428 45.551 80.3827 45.6322 80.9482 45.8088C80.9504 45.8098 81.0827 45.8655 81.1465 45.6907C81.2966 45.2768 81.4072 44.9799 81.5684 44.5256C81.6138 44.3958 81.5028 44.3413 81.4619 44.3254C81.2401 44.239 80.716 44.0971 80.3193 44.0374C79.9485 43.981 79.5188 43.9514 79.0342 43.9514ZM26.8428 43.9553C26.4094 43.9553 25.7077 44.014 25.2891 44.0979C25.284 44.0989 24.0243 44.3436 23.5039 44.7502C23.4981 44.7539 23.3917 44.8249 23.4521 44.9797L23.8633 46.0793C23.9143 46.2219 24.0537 46.1731 24.0537 46.1731C24.0553 46.1725 24.098 46.155 24.1484 46.1252C25.2612 45.5206 26.6719 45.5393 26.6719 45.5393C27.2961 45.5393 27.7813 45.666 28.1045 45.9133C28.4204 46.1555 28.5811 46.5221 28.5811 47.2913V47.5354C28.0933 47.4648 27.6413 47.4234 27.627 47.4221L27.6211 47.4084C27.3861 47.3912 27.0813 47.3831 26.7178 47.3831C26.222 47.3831 25.741 47.4448 25.293 47.5657C24.8413 47.6873 24.4338 47.8756 24.085 48.1262C23.7352 48.3752 23.4466 48.7007 23.2432 49.0784C23.0379 49.4594 22.9336 49.9068 22.9336 50.4124C22.9336 50.9253 23.023 51.3689 23.1992 51.7317C23.372 52.0915 23.6323 52.4028 23.9561 52.637C24.2781 52.8707 24.6758 53.0442 25.1348 53.1467C25.5901 53.2504 26.1045 53.302 26.6699 53.302C27.2647 53.302 27.8559 53.2528 28.4287 53.1565C28.9166 53.0725 29.4028 52.9779 29.8867 52.8733C30.0759 52.8299 30.2854 52.7731 30.2939 52.7708C30.4372 52.7345 30.4268 52.5813 30.4268 52.5813L30.4229 47.3049C30.4229 46.147 30.1128 45.2855 29.501 44.7542C28.8914 44.2231 27.9992 43.9554 26.8428 43.9553ZM32.4795 40.4446C32.3825 40.4447 32.3137 40.5223 32.3135 40.6184V52.9563C32.3136 53.0528 32.3824 53.1319 32.4795 53.1321H34.0156C34.1125 53.1321 34.1815 53.0529 34.1816 52.9563V40.6184C34.1815 40.5222 34.1124 40.4446 34.0156 40.4446H32.4795ZM73.2041 44.0569C72.477 44.0114 72.0725 44.1334 71.709 44.2961C71.35 44.4577 70.9528 44.7175 70.7324 45.0178L70.7314 44.3147C70.7314 44.218 70.663 44.14 70.5654 44.1399H69.082C68.9858 44.1399 68.916 44.218 68.916 44.3147V52.926C68.9161 52.9725 68.934 53.0172 68.9668 53.05C68.9998 53.0829 69.0452 53.1017 69.0918 53.1018H70.6123C70.6587 53.1016 70.7035 53.0828 70.7363 53.05C70.7691 53.0172 70.7871 52.9724 70.7871 52.926V48.6018C70.7871 48.023 70.8512 47.4479 70.9785 47.0852C71.1041 46.7265 71.2749 46.4398 71.4854 46.2346C71.686 46.0365 71.9316 45.8894 72.2012 45.8059C72.4543 45.7334 72.7171 45.6965 72.9805 45.6965C73.2789 45.6966 73.6057 45.7724 73.6152 45.7747C73.7269 45.7871 73.7893 45.7188 73.8271 45.6184C73.9267 45.3541 74.2086 44.5632 74.2637 44.4055L74.2734 44.3684C74.2736 44.3474 74.2689 44.3263 74.2607 44.3069C74.2526 44.2875 74.2406 44.2698 74.2256 44.2551C74.2106 44.2405 74.1924 44.2286 74.1729 44.2209C74.0729 44.1834 73.5817 44.0803 73.2041 44.0569ZM27.0068 48.8469C27.533 48.8563 28.0579 48.9011 28.5781 48.9807V51.6077H28.5791C28.5684 51.61 27.8385 51.7662 27.0146 51.8157C25.8359 51.8864 25.3147 51.4767 25.3184 51.4778L25.3145 51.4758C25.0874 51.295 25.0557 51.2506 24.9805 51.1331C24.8656 50.9561 24.8067 50.7044 24.8066 50.3821C24.8066 49.8764 24.9763 49.5094 25.3252 49.2639C25.3404 49.2489 25.8466 48.8325 27.0068 48.8469ZM63.2383 45.5432C64.002 45.5433 64.5454 45.8062 64.9053 46.3459C65.2696 46.8919 65.4521 47.6691 65.4521 48.6584L65.4434 49.0159C65.403 49.8355 65.2221 50.4937 64.9053 50.9778C64.5439 51.5237 63.9983 51.7912 63.2383 51.7913C62.4782 51.7913 61.9344 51.5261 61.5781 50.9817C61.2194 50.4321 61.0381 49.6477 61.0381 48.6584C61.0381 47.6691 61.2205 46.8919 61.5781 46.3459C61.9336 45.8036 62.4744 45.5432 63.2383 45.5432ZM39.9639 45.4993C40.7239 45.4993 41.227 45.7975 41.5869 46.3381C41.8252 46.6953 41.9294 47.1702 41.9688 47.7014H37.8379C37.9198 47.1519 38.0708 46.6935 38.3076 46.3381C38.6631 45.796 39.2039 45.4993 39.9639 45.4993ZM86.3457 45.4993C87.1058 45.4993 87.6098 45.7973 87.9697 46.3381C88.2084 46.6954 88.3126 47.1702 88.3516 47.7014H84.2197C84.3016 47.1519 84.4523 46.6935 84.6895 46.3381C85.0445 45.796 85.5858 45.4994 86.3457 45.4993Z" fill="white"/>
</g>
<defs>
<clipPath id="clip0_2358_6418">
<rect width="100" height="100" fill="white" transform="translate(0.40625 0.802979)"/>
</clipPath>
</defs>
</svg>
