<svg width="101" height="101" viewBox="0 0 101 101" fill="none" xmlns="http://www.w3.org/2000/svg">
<g clip-path="url(#clip0_2358_6381)">
<path opacity="0.7" d="M75.0398 47.9434V60.2942H70.9443V50.0524L75.0398 47.9434Z" fill="white"/>
<path opacity="0.7" d="M20.2314 60.6045L29.8011 55.6442L28.6209 52.6152L22.3205 55.5272L20.2314 60.6045Z" fill="white"/>
<path opacity="0.5" d="M70.9453 50.0415L81.3283 44.7749L79.574 41.8342L70.9453 46.0139V50.0415Z" fill="white"/>
<path opacity="0.7" d="M41.7039 46.9658V60.294H37.7983V41.312L41.7039 46.9658Z" fill="white"/>
<path opacity="0.5" d="M26.1498 46.2287L20.2325 60.6045L17.1885 58.0074L24.2389 41.312L26.1498 46.2287Z" fill="white"/>
<path d="M24.2393 41.312H28.2736L35.7349 60.294H31.6051L24.2393 41.312Z" fill="white"/>
<path d="M42.308 41.312L50.9088 54.2808V60.294L37.7983 41.312H42.308Z" fill="white"/>
<path d="M62.3402 41.312H58.2759V60.2972H62.3402V41.312Z" fill="white"/>
<path d="M70.945 44.7749H64.6875V41.312H79.2604L81.3269 44.7749H75.0394H70.945Z" fill="white"/>
<path opacity="0.5" d="M93.3283 53.0906V60.2928H89.2939V53.0906" fill="white"/>
<path d="M89.2939 53.0907L96.1201 41.312H100.407L93.3283 53.0907H89.2939Z" fill="white"/>
<path opacity="0.7" d="M89.294 53.0907L82.2769 41.312H86.691L91.4442 49.3842L89.294 53.0907Z" fill="white"/>
<path d="M2.04526 43.5029C2.04526 46.1458 3.72122 47.7188 7.07743 48.5483L10.6332 49.3513C13.8092 50.0618 15.7426 51.8262 15.7426 54.7009C15.7673 55.9527 15.3488 57.1757 14.5581 58.1638C14.5581 55.2954 13.0345 53.7458 9.3596 52.8142L5.8682 52.041C3.07208 51.4199 0.914366 49.9692 0.914366 46.8467C0.901491 45.6406 1.29849 44.4644 2.04526 43.5029Z" fill="white"/>
<path opacity="0.7" d="M50.9087 53.3055V41.312H54.8143V60.294H50.9087V53.3055Z" fill="white"/>
<path opacity="0.7" d="M12.3745 53.9969C13.8906 54.9414 14.5558 56.2633 14.5558 58.1596C13.3005 59.7251 11.0945 60.6047 8.50219 60.6047C4.13848 60.6047 1.08485 58.5127 0.406738 54.8786H4.59663C5.13633 56.5473 6.56443 57.3205 8.47108 57.3205C10.7983 57.3205 12.3455 56.1113 12.3766 53.9895" fill="white"/>
<path opacity="0.7" d="M4.2245 47.421C3.53244 47.02 2.96377 46.4446 2.57965 45.7544C2.19661 45.0642 2.01206 44.2867 2.04532 43.5029C3.25669 41.9501 5.36398 41.0015 7.93263 41.0015C12.3779 41.0015 14.9498 43.2881 15.5839 46.5063H11.5528C11.1086 45.2375 9.99485 44.2495 7.96589 44.2495C5.79745 44.2495 4.31892 45.4789 4.23308 47.421" fill="white"/>
</g>
<defs>
<clipPath id="clip0_2358_6381">
<rect width="100" height="100" fill="white" transform="translate(0.406738 0.802979)"/>
</clipPath>
</defs>
</svg>
