<svg width="101" height="101" viewBox="0 0 101 101" fill="none" xmlns="http://www.w3.org/2000/svg">
<g clip-path="url(#clip0_2358_6267)">
<path fill-rule="evenodd" clip-rule="evenodd" d="M21.9776 41.6116H7.45215V48.9773H14.5994C14.854 48.9773 15.0606 49.1862 15.0606 49.4437V56.5724H22.4388V42.0789C22.439 41.955 22.3905 41.8361 22.304 41.7485C22.2175 41.6608 22.1001 41.6116 21.9776 41.6116Z" fill="white"/>
<path opacity="0.405" fill-rule="evenodd" clip-rule="evenodd" d="M7.45154 41.6116V48.9773H0.637354C0.543717 48.9771 0.459443 48.9198 0.423967 48.8322C0.388492 48.7445 0.408833 48.6439 0.475472 48.5774L7.45154 41.6116ZM15.4537 63.5459C15.3874 63.6118 15.2884 63.631 15.2026 63.5947C15.1169 63.5584 15.061 63.4736 15.0608 63.3796V56.5724H22.439L15.4537 63.545V63.5459Z" fill="white"/>
<path opacity="0.405" fill-rule="evenodd" clip-rule="evenodd" d="M7.45215 48.9773H14.8312C14.9577 48.9773 15.0614 49.0813 15.0614 49.2101V56.5724H7.91418C7.65947 56.5724 7.45299 56.3636 7.45299 56.106V48.9773H7.45215Z" fill="white"/>
<path fill-rule="evenodd" clip-rule="evenodd" d="M96.8414 41.1468C97.2537 41.5595 97.7402 41.765 98.3017 41.765C98.8809 41.765 99.3767 41.5595 99.789 41.1468C100.201 40.7341 100.407 40.248 100.407 39.6861C100.407 39.125 100.201 38.6339 99.789 38.2126C99.4017 37.802 98.8628 37.573 98.3017 37.5808C97.7402 37.5808 97.2537 37.7914 96.8414 38.2118C96.4291 38.6339 96.2234 39.1242 96.2234 39.687C96.2234 40.248 96.4291 40.7341 96.8414 41.1468ZM52.1049 46.5291C52.1049 46.5718 52.0694 46.6076 52.0264 46.6076H49.1303V52.082C49.1303 52.5382 49.245 52.8716 49.4726 53.0822C49.7002 53.2928 50.0341 53.4105 50.4726 53.4369C50.8739 53.4617 51.3629 53.46 51.9404 53.4327L52.0222 53.4284C52.0435 53.4272 52.0644 53.435 52.0798 53.4498C52.0953 53.4647 52.104 53.4853 52.104 53.5069V56.4325C52.1042 56.4727 52.0744 56.5066 52.0349 56.511L51.9818 56.5169C49.7137 56.7582 48.1093 56.534 47.17 55.845C46.2139 55.1432 45.7367 53.8889 45.7367 52.082V46.6076H43.5243C43.4815 46.6076 43.4467 46.5724 43.4467 46.5291V43.4227C43.4467 43.38 43.4813 43.3442 43.5243 43.3442H45.7358V41.1724C45.7358 41.1093 45.7729 41.053 45.8294 41.0274L49.0215 39.623C49.0456 39.612 49.0735 39.6141 49.0957 39.6286C49.1178 39.643 49.1312 39.6679 49.1311 39.6946V43.3442H52.0264C52.0686 43.3442 52.104 43.3792 52.104 43.4227V46.5291H52.1049ZM58.2597 45.6082C58.575 44.7657 59.0969 44.1338 59.8246 43.7126C60.5424 43.2993 61.3542 43.0818 62.1803 43.0816C62.2233 43.0816 62.2587 43.1166 62.2587 43.1609V46.7295C62.2587 46.7656 62.2435 46.8 62.217 46.8242C62.1905 46.8484 62.1551 46.8602 62.1196 46.8566C61.1407 46.7679 60.2613 46.9836 59.4823 47.5029C58.667 48.0461 58.2597 48.95 58.2597 50.2137V56.4248C58.2597 56.4458 58.2514 56.4659 58.2367 56.4806C58.222 56.4954 58.202 56.5035 58.1813 56.5033H54.942C54.8992 56.5033 54.8644 56.4682 54.8644 56.4248V43.4218C54.8644 43.3792 54.899 43.3434 54.942 43.3434H58.1813C58.2235 43.3434 58.2589 43.3783 58.2589 43.4218V45.6065L58.2597 45.6082ZM74.3096 43.3442C74.2888 43.344 74.2689 43.3522 74.2542 43.3669C74.2394 43.3816 74.2311 43.4017 74.2312 43.4227V44.8979C73.2143 43.6163 71.7844 42.9759 69.9421 42.9759C68.1884 42.9759 66.6834 43.6469 65.4297 44.9891C64.1751 46.3313 63.5478 47.9762 63.5478 49.9238C63.5478 51.8714 64.1751 53.5162 65.4297 54.8584C66.6834 56.2006 68.1884 56.8717 69.9421 56.8717C71.7844 56.8717 73.2135 56.2313 74.2312 54.9505V56.4248C74.2312 56.4675 74.2666 56.5033 74.3096 56.5033H77.548C77.591 56.5033 77.6264 56.4683 77.6264 56.4248V43.4218C77.6264 43.4009 77.6181 43.3808 77.6034 43.3661C77.5887 43.3513 77.5687 43.3432 77.548 43.3434H74.3096V43.3442ZM67.9692 52.6081C68.653 53.2928 69.5206 53.6348 70.5745 53.6348C71.6267 53.6348 72.4994 53.2877 73.1924 52.5945C73.8855 51.9021 74.2312 51.0118 74.2312 49.9238C74.2312 48.8357 73.8855 47.9455 73.1924 47.2522C72.4994 46.5598 71.6267 46.2128 70.5736 46.2128C69.5214 46.2128 68.653 46.5598 67.9684 47.2531C67.2854 47.9455 66.9423 48.8357 66.9423 49.9238C66.9423 51.0118 67.2846 51.9063 67.9692 52.6081ZM92.7151 44.9891C91.4605 43.6469 89.9471 42.9759 88.1757 42.9759C86.3335 42.9759 84.9128 43.6163 83.9128 44.897V43.4227C83.9128 43.3794 83.8781 43.3442 83.8353 43.3442H80.5959C80.5531 43.3442 80.5184 43.3794 80.5184 43.4227V61.6878C80.5184 61.7313 80.5529 61.7671 80.5959 61.7671H83.8353C83.8774 61.7671 83.9128 61.7313 83.9128 61.6878V54.9505C84.9128 56.2313 86.3335 56.8717 88.1757 56.8717C89.9471 56.8717 91.4605 56.2006 92.7151 54.8584C93.9688 53.5162 94.5961 51.8714 94.5961 49.9238C94.5961 47.9762 93.9688 46.3313 92.7151 44.9891ZM84.9389 52.6081C85.6235 53.2928 86.4911 53.6348 87.5442 53.6348C88.5964 53.6348 89.4691 53.2877 90.1621 52.5945C90.8552 51.9021 91.2017 51.0118 91.2017 49.9238C91.2017 48.8357 90.8552 47.9455 90.1621 47.2522C89.4691 46.5598 88.5964 46.2128 87.5442 46.2128C86.4911 46.2128 85.6235 46.5598 84.9389 47.2531C84.2551 47.9455 83.9128 48.8357 83.9128 49.9238C83.9128 51.0118 84.2551 51.9063 84.9389 52.6081ZM96.6955 56.5033C96.6527 56.5033 96.618 56.4682 96.618 56.4248V43.4218C96.618 43.3792 96.6525 43.3434 96.6955 43.3434H99.9348C99.9778 43.3434 100.012 43.3783 100.012 43.4218V56.4257C100.012 56.469 99.9777 56.5041 99.9348 56.5041H96.6955V56.5033ZM36.1714 47.9369C35.706 47.7178 35.4741 47.4321 35.4741 47.0817C35.4741 46.7483 35.6183 46.4848 35.9083 46.2921C36.1975 46.0993 36.5617 46.0021 37.0002 46.0021C37.8408 46.0021 38.4756 46.3304 38.9056 46.9862C38.9352 47.0321 38.9931 47.0501 39.0431 47.0288L41.908 45.7608C41.9281 45.7517 41.9434 45.7345 41.9501 45.7134C41.9569 45.6922 41.9544 45.6692 41.9434 45.65C41.9104 45.5944 41.8767 45.5392 41.8423 45.4845C41.3524 44.7128 40.7175 44.1373 39.9208 43.6998C39.0439 43.2172 38.0701 42.9759 37.0002 42.9759C35.5786 42.9759 34.3907 43.3485 33.4337 44.0946C32.4785 44.8399 32.0004 45.8623 32.0004 47.1601C32.0004 48.0205 32.2331 48.7351 32.6977 49.3055C33.1466 49.864 33.7315 50.2948 34.3949 50.5556C35.061 50.8183 35.7279 51.0383 36.3948 51.2131C37.0609 51.3887 37.6275 51.5866 38.092 51.8057C38.5566 52.0248 38.7893 52.3097 38.7893 52.661C38.7893 53.4156 38.1839 53.7925 36.974 53.7925C35.8215 53.7925 35.023 53.3662 34.5787 52.5152C34.5417 52.4407 34.4538 52.4082 34.378 52.441L31.5215 53.7072C31.5022 53.7158 31.4873 53.7319 31.4799 53.7518C31.4726 53.7717 31.4736 53.7938 31.4827 53.813L31.5148 53.8786C32.513 55.874 34.3325 56.8717 36.974 56.8717C38.4824 56.8717 39.7412 56.5076 40.7496 55.7802C41.7588 55.0511 42.263 54.0117 42.263 52.661C42.263 51.7656 42.0303 51.0203 41.5657 50.4235C41.1277 49.8474 40.5401 49.4058 39.8685 49.1478C39.2148 48.8974 38.547 48.6864 37.8686 48.5159C37.2017 48.3488 36.6359 48.1561 36.1714 47.9361V47.9369Z" fill="white"/>
</g>
<defs>
<clipPath id="clip0_2358_6267">
<rect width="100" height="100" fill="white" transform="translate(0.406738 0.59668)"/>
</clipPath>
</defs>
</svg>
