<svg width="101" height="101" viewBox="0 0 101 101" fill="none" xmlns="http://www.w3.org/2000/svg">
<g clip-path="url(#clip0_2358_6402)">
<path fill-rule="evenodd" clip-rule="evenodd" d="M100.407 51.5008C100.407 44.3559 96.9625 38.718 90.3792 38.718C83.7681 38.718 79.7681 44.3559 79.7681 51.445C79.7681 59.846 84.4903 64.0883 91.2681 64.0883C94.5736 64.0883 97.0736 63.3347 98.9625 62.2741V56.6921C97.0736 57.6411 94.9069 58.2272 92.1569 58.2272C89.4625 58.2272 87.0736 57.2782 86.7681 53.9848H100.351C100.351 53.622 100.407 52.1707 100.407 51.5008ZM86.6847 48.8494C86.6847 45.6955 88.6014 44.3838 90.3514 44.3838C92.0458 44.3838 93.8514 45.6955 93.8514 48.8494H86.6847Z" fill="white"/>
<path fill-rule="evenodd" clip-rule="evenodd" d="M69.0451 38.718C66.3229 38.718 64.5729 40.0019 63.6006 40.895L63.2395 39.1646H57.1284V71.7078L64.0729 70.2285L64.1006 62.33C65.1006 63.0556 66.5729 64.0883 69.0173 64.0883C73.9895 64.0883 78.5173 60.0693 78.5173 51.2217C78.4895 43.1278 73.9062 38.718 69.0451 38.718ZM67.3784 57.9481C65.7395 57.9481 64.7673 57.362 64.1006 56.6363L64.0729 46.2817C64.7951 45.4723 65.7951 44.9141 67.3784 44.9141C69.9062 44.9141 71.6562 47.7609 71.6562 51.4171C71.6562 55.1571 69.934 57.9481 67.3784 57.9481Z" fill="white"/>
<path fill-rule="evenodd" clip-rule="evenodd" d="M47.5737 37.0713L54.546 35.5642V29.8984L47.5737 31.3777V37.0713Z" fill="white"/>
<path d="M54.546 39.1924H47.5737V63.6137H54.546V39.1924Z" fill="white"/>
<path fill-rule="evenodd" clip-rule="evenodd" d="M40.1017 41.2579L39.6572 39.1925H33.6572V63.6139H40.6017V47.0632C42.2406 44.9141 45.0183 45.3049 45.8794 45.6119V39.1925C44.9906 38.8576 41.7406 38.2436 40.1017 41.2579Z" fill="white"/>
<path fill-rule="evenodd" clip-rule="evenodd" d="M26.2118 33.136L19.434 34.5873L19.4062 56.9433C19.4062 61.074 22.4896 64.1162 26.6007 64.1162C28.8785 64.1162 30.5451 63.6976 31.4618 63.1952V57.5294C30.5729 57.8923 26.184 59.1761 26.184 55.0454V45.1373H31.4618V39.1925H26.184L26.2118 33.136Z" fill="white"/>
<path fill-rule="evenodd" clip-rule="evenodd" d="M7.43452 46.2817C7.43452 45.1932 8.32341 44.7745 9.79563 44.7745C11.9067 44.7745 14.5734 45.4164 16.6845 46.5608V40.0019C14.379 39.0808 12.1012 38.718 9.79563 38.718C4.15674 38.718 0.406738 41.6765 0.406738 46.6166C0.406738 54.3198 10.9623 53.0917 10.9623 56.413C10.9623 57.6969 9.85118 58.1155 8.29563 58.1155C5.99007 58.1155 3.04563 57.1666 0.712293 55.8827V62.5253C3.29563 63.6417 5.90674 64.1162 8.29563 64.1162C14.0734 64.1162 18.0456 61.2415 18.0456 56.2456C18.0179 47.9284 7.43452 49.4076 7.43452 46.2817Z" fill="white"/>
</g>
<defs>
<clipPath id="clip0_2358_6402">
<rect width="100" height="100" fill="white" transform="translate(0.406738 0.802979)"/>
</clipPath>
</defs>
</svg>
