<svg width="101" height="101" viewBox="0 0 101 101" fill="none" xmlns="http://www.w3.org/2000/svg">
<g clip-path="url(#clip0_2358_6376)">
<g clip-path="url(#clip1_2358_6376)">
<path d="M100.093 59.1021L97.7417 59.4201C97.7417 59.4201 97.5849 58.4662 96.8012 57.8303C96.0175 57.1944 93.353 57.3534 93.353 58.9432C93.353 60.374 94.4501 60.215 96.6445 60.6919C98.6821 61.1689 100.406 61.8048 100.406 64.6665C100.406 66.2563 99.3091 68.164 95.8608 68.164C90.2182 68.164 90.6884 63.8716 90.6884 63.8716H93.1962C93.1962 63.8716 93.353 65.3024 94.2934 65.6203C95.3906 66.0973 97.2715 65.9383 97.5849 64.9844C97.8984 64.0305 97.8984 62.9177 94.9204 62.5997C91.9423 62.1228 90.6884 60.8509 90.6884 58.7842C90.8451 56.8764 91.9423 55.2866 95.8608 55.2866C99.7793 55.4456 100.093 59.1021 100.093 59.1021ZM89.2777 59.1021L86.9266 59.4201C86.9266 59.4201 86.7699 58.4662 85.9862 57.8303C85.2025 57.1944 82.5379 57.3534 82.5379 58.9432C82.5379 60.374 83.6351 60.215 85.8295 60.6919C87.8671 61.1689 89.5912 61.8048 89.5912 64.6665C89.5912 66.2563 88.494 68.164 85.0458 68.164C79.4031 68.164 79.8733 63.8716 79.8733 63.8716H82.5379C82.5379 63.8716 82.6947 65.3024 83.6351 65.6203C84.7323 66.0973 86.6132 65.9383 86.9266 64.9844C87.2401 64.0305 87.2401 62.9177 84.2621 62.5997C81.5975 62.2818 80.1868 61.1689 80.1868 59.4201V58.7842C80.3436 56.8764 81.4407 55.2866 85.2025 55.2866C88.8075 55.4456 89.2777 59.1021 89.2777 59.1021ZM75.9548 63.5536H78.6194V63.7126C78.4627 64.6665 77.9925 68.005 73.447 68.005C69.3718 68.005 67.9611 64.8254 67.9611 61.4868C67.9611 57.9893 69.9987 55.4456 73.7605 55.4456C77.9925 55.4456 78.3059 59.5791 78.3059 59.5791L75.7981 59.897C75.7981 59.897 75.6414 57.6713 73.447 57.6713C71.2526 57.6713 70.4689 59.4201 70.4689 61.4868C70.4689 63.5536 71.0959 65.9383 73.2903 65.9383C75.4846 65.9383 75.9548 63.5536 75.9548 63.5536ZM62.632 55.7636V67.8461H60.4376V66.7332C60.4376 66.7332 59.6539 68.164 57.773 68.164C55.7354 68.164 54.3247 67.2101 54.168 63.5536C54.168 59.7381 56.5191 58.7842 58.0865 58.7842C59.4972 58.7842 60.4376 59.897 60.4376 59.897V55.7636H62.632ZM60.4376 63.3946C60.4376 62.1228 60.2809 60.6919 58.4 60.6919C56.5191 60.6919 56.5191 62.9177 56.5191 63.5536C56.5191 64.3485 56.6758 66.0973 58.4 66.0973C60.1241 66.0973 60.4376 64.6665 60.4376 63.3946ZM52.4439 61.8048V67.6871H50.0928V61.9638C50.0928 61.1689 49.6226 60.533 48.6821 60.533C47.7417 60.533 46.8012 61.3279 46.8012 62.1228V67.6871H44.4501V58.7842H46.8012V60.056C46.8012 60.056 47.5849 58.4662 49.936 58.6252C52.6006 58.9432 52.4439 61.4869 52.4439 61.8048ZM40.2182 58.9432H42.5693V67.8461H40.2182V58.9432ZM40.2182 55.7636H42.5693V57.8303H40.2182V55.7636ZM39.2777 58.9432L36.7699 67.8461H34.4188L32.8514 61.9638L31.284 67.8461H29.0896L26.5818 58.9432H29.0896L30.3436 64.6665L32.0677 58.9432H34.1053L35.516 64.8254L36.7699 58.9432H39.2777ZM23.1335 55.6046H25.4846V67.6871H23.1335V55.6046ZM18.9015 58.9432H21.2526V67.8461H18.9015V58.9432ZM18.9015 55.7636H21.2526V57.8303H18.9015V55.7636ZM17.0207 62.1228V67.6871H14.8263V66.5742C14.8263 66.5742 14.1994 67.3691 13.2589 67.6871C11.8483 68.164 9.81064 67.8461 9.18368 66.2563C8.71346 64.9844 9.18368 63.5536 10.4376 62.9177C12.005 62.1228 14.6696 62.2817 14.6696 62.2817C14.6696 62.2817 14.8263 61.6458 14.5128 61.1689C14.3561 60.6919 13.8859 60.533 13.2589 60.533C11.6915 60.533 11.6915 61.6458 11.6915 61.6458L9.49716 61.4868C9.49716 61.4868 9.49716 60.374 10.5943 59.5791C11.2213 59.1021 12.005 58.9432 13.4157 58.9432C15.1398 58.9432 17.0207 59.5791 17.0207 62.1228ZM13.4157 66.0973C14.9831 65.7793 14.8263 63.8716 14.8263 63.8716H14.1994C13.7291 63.8716 13.1022 63.8716 12.632 64.0305C11.8483 64.1895 11.5348 64.5075 11.378 64.8254C11.2213 65.3024 11.378 65.7793 11.8483 66.0973C12.1617 66.2563 12.632 66.2563 13.4157 66.0973ZM10.1241 55.6046V57.9893H6.5191V67.8461H3.85453V57.8303H0.40625V55.6046H10.1241Z" fill="white"/>
<path d="M67.9612 36.6858C67.9612 36.6858 65.7668 40.0244 62.0051 39.3885C58.2433 38.7526 57.6164 33.0293 50.8766 33.0293C42.5693 33.0293 41.6289 40.1834 41.6289 40.1834C41.6289 40.1834 43.98 36.6858 47.585 37.3218C51.19 37.9577 52.6007 43.681 59.9675 43.681C67.3342 43.681 67.9612 36.6858 67.9612 36.6858Z" fill="white"/>
<path d="M59.1839 47.3375C59.1839 47.3375 56.9895 50.676 53.2277 50.0401C49.466 49.4042 48.839 43.6809 42.0992 43.6809C33.792 43.6809 32.8516 50.835 32.8516 50.835C32.8516 50.835 35.2027 47.3375 38.8077 47.9734C42.256 48.6093 43.8234 54.3326 51.1901 54.3326C58.5569 54.3326 59.1839 47.3375 59.1839 47.3375Z" fill="white"/>
</g>
</g>
<defs>
<clipPath id="clip0_2358_6376">
<rect width="100" height="100" fill="white" transform="translate(0.40625 0.59668)"/>
</clipPath>
<clipPath id="clip1_2358_6376">
<rect width="100" height="35.1351" fill="white" transform="translate(0.40625 33.0291)"/>
</clipPath>
</defs>
</svg>
