<svg width="101" height="101" viewBox="0 0 101 101" fill="none" xmlns="http://www.w3.org/2000/svg">
<g clip-path="url(#clip0_2377_9406)">
<path d="M49.6906 15.2017C51.6067 15.1496 53.4026 15.1625 55.2698 15.6574C55.409 15.6917 55.5482 15.726 55.6874 15.7603C58.3937 16.4615 61.2604 17.9893 63.1548 20.0762C63.7404 20.7174 64.121 21.0473 65.018 21.1703C65.9037 21.3035 66.6488 21.7699 67.3427 22.3111C67.4056 22.3587 67.4684 22.4063 67.5332 22.4553C68.7037 23.4009 69.502 24.839 69.7208 26.3215C69.8469 27.8101 69.544 29.1639 68.7147 30.4231C68.6615 30.4814 68.6083 30.5398 68.5535 30.5999C68.0383 31.1776 67.986 31.6241 68.0001 32.3827C68.0005 33.0671 67.9771 33.6786 67.8001 34.3423C67.2918 34.5069 66.8118 34.5703 66.28 34.6094C66.1941 34.6162 66.1082 34.6231 66.0197 34.6301C65.8342 34.6448 65.6486 34.6592 65.4631 34.6734C65.1693 34.6958 64.8756 34.719 64.582 34.7425C63.853 34.8006 63.1239 34.8573 62.3947 34.9139C61.7777 34.9619 61.1607 35.0104 60.5438 35.0597C60.2546 35.0826 59.9653 35.1046 59.6761 35.1266C59.4988 35.1407 59.3215 35.1549 59.1442 35.1691C59.0639 35.1749 58.9836 35.1808 58.9008 35.1869C58.5118 35.2189 58.1865 35.2617 57.8307 35.4361C57.8268 35.588 57.827 35.74 57.8307 35.8918C57.9859 36.0465 58.1903 36.0186 58.4035 36.0387C58.5105 36.0488 58.6175 36.0589 58.7278 36.0694C58.8495 36.0804 58.9712 36.0913 59.093 36.1022C59.1558 36.108 59.2187 36.1138 59.2835 36.1197C61.6077 36.3326 63.9362 36.4989 66.2633 36.6753C66.7844 36.7148 67.3055 36.7548 67.8266 36.795C68.0224 36.8101 68.2182 36.8249 68.4141 36.8396C71.2511 37.0523 71.2512 37.0523 71.4585 37.259C71.4757 37.5723 71.4757 37.5723 71.4585 37.897C71.1933 38.1613 70.8789 38.1804 70.5225 38.2516C70.4427 38.2681 70.363 38.2846 70.2808 38.3016C70.0104 38.3574 69.7398 38.412 69.4692 38.4667C69.2765 38.5061 69.0838 38.5456 68.8911 38.5852C66.8526 39.002 64.8116 39.4068 62.7706 39.8112C62.5743 39.8501 62.378 39.889 62.1817 39.928C62.0533 39.9534 61.9249 39.9788 61.7965 40.0042C61.1054 40.1408 60.4149 40.2802 59.7258 40.4269C59.6039 40.4527 59.4819 40.4784 59.36 40.5042C59.1334 40.5524 58.9069 40.6011 58.6807 40.6506C57.9418 40.8073 57.3061 40.9345 56.5842 40.6417C56.4844 40.6022 56.3845 40.5626 56.2817 40.5219C56.1722 40.4772 56.0628 40.4325 55.95 40.3864C55.7679 40.3138 55.5855 40.2417 55.4031 40.1696C55.2656 40.1152 55.1282 40.0607 54.9908 40.0061C53.9796 39.6052 52.9613 39.2223 51.9442 38.8366C51.4934 38.6656 51.0428 38.4944 50.5922 38.3231C50.388 38.2455 50.1838 38.1679 49.9796 38.0904C49.888 38.0556 49.7964 38.0208 49.702 37.9849C49.6222 37.9546 49.5424 37.9243 49.4602 37.8931C49.3032 37.8327 49.1473 37.7693 48.9925 37.7035C48.7716 37.6078 48.7716 37.6078 48.5016 37.6236C48.3563 37.8221 48.2314 38.0161 48.1072 38.2274C48.0271 38.3601 47.9468 38.4927 47.8664 38.6251C47.8225 38.6977 47.7786 38.7703 47.7334 38.845C47.5728 39.1048 47.4066 39.3603 47.239 39.6156C47.1802 39.7056 47.1214 39.7956 47.0608 39.8883C46.9437 40.0672 46.8259 40.2458 46.7074 40.4239C46.654 40.5061 46.6006 40.5883 46.5455 40.6731C46.4731 40.783 46.4731 40.783 46.3992 40.8952C46.2743 41.0967 46.2743 41.0967 46.398 41.3606C46.585 41.491 46.7653 41.6036 46.9639 41.7138C47.0207 41.7457 47.0774 41.7776 47.1359 41.8104C48.1511 42.3635 49.3418 42.8183 50.5138 42.6366C50.7403 42.5068 50.9147 42.3568 51.1086 42.1827C51.3893 41.9564 51.6827 41.8031 52.0057 41.6454C52.1129 41.593 52.2201 41.5406 52.3305 41.4866C53.0533 41.1691 53.9072 41.1339 54.6635 41.3627C55.2947 41.6528 55.8202 42.0379 56.1844 42.6366C56.3169 43.0271 56.3227 43.3255 56.1844 43.7133C55.7728 44.1619 55.3245 44.3352 54.7278 44.3776C54.4469 44.3639 54.2952 44.272 54.0808 44.0949C54.0279 44.031 53.9751 43.9671 53.9207 43.9013C53.609 43.6424 53.2893 43.6329 52.8918 43.6392C52.6211 43.6843 52.6211 43.6843 52.4345 43.8215C52.3419 44.0457 52.3294 44.1492 52.4141 44.3787C52.4491 44.4449 52.4841 44.511 52.5202 44.5792C52.6967 44.9537 52.7817 45.2252 52.7088 45.6444C52.4723 45.9802 52.3366 46.0835 51.9314 46.1628C51.5901 46.096 51.4606 46.0139 51.2566 45.7347C51.136 45.5215 51.0468 45.305 50.9578 45.0769C50.9258 44.9953 50.8938 44.9137 50.8607 44.8296C50.8368 44.7676 50.8128 44.7057 50.7881 44.6418C50.733 44.6433 50.6779 44.6447 50.6212 44.6462C48.0551 44.7037 45.2547 44.3642 43.3069 42.5174C42.4914 41.711 42.4914 41.711 42.4337 41.1416C42.5735 39.6837 43.7492 38.2279 44.5562 37.0469C44.7029 36.8318 44.8473 36.6154 44.9917 36.3988C45.0642 36.2906 45.1366 36.1823 45.209 36.0741C44.812 36.0011 44.4861 35.9536 44.0943 36.0684C42.795 37.0179 41.9753 39.2472 41.459 40.7225C41.3884 41.3795 41.5706 41.9143 41.9735 42.4315C42.6891 43.1975 43.6532 43.7881 44.5859 44.2545C45.0984 44.519 45.391 44.7753 45.6663 45.2798C45.7245 45.3829 45.7245 45.3829 45.7838 45.4881C46.5847 47.0673 46.783 48.9117 46.7638 50.6574C46.9792 50.5757 46.9792 50.5757 47.0554 50.2872C47.2735 49.7574 47.6553 49.2672 48.1815 49.0168C48.605 48.8962 48.9482 48.8394 49.359 49.0225C49.5859 49.2921 49.6052 49.4891 49.5991 49.8371C49.3215 50.206 49.0064 50.3741 48.5931 50.5663C48.379 50.7417 48.379 50.7417 48.3758 51.0505C48.4152 51.4363 48.5047 51.572 48.776 51.8423C49.0768 51.9922 49.3668 51.9928 49.6906 51.9335C50.0494 51.7513 50.3786 51.5295 50.6556 51.2367C50.8859 51.022 51.1236 51.0325 51.4284 51.022C51.9522 51.2163 52.1056 51.6427 52.343 52.1158C52.4094 52.7306 52.4174 53.2683 52.0393 53.7792C51.3996 54.4434 50.7042 54.6672 49.8049 54.6963C48.6283 54.6713 47.58 54.2804 46.7009 53.4944C46.2274 52.9923 45.9614 52.3929 45.6731 51.776C45.1579 50.6899 44.6075 49.6717 43.837 48.7434C43.7848 48.6755 43.7326 48.6076 43.6788 48.5376C43.0869 47.8007 42.3479 47.3505 41.414 47.1936C41.135 47.194 40.9738 47.2455 40.7273 47.3762C40.4071 47.9961 40.4103 48.7451 40.4186 49.427C40.4176 49.514 40.4165 49.6011 40.4154 49.6908C40.4191 50.596 40.646 51.4041 41.0589 52.2069C41.1063 52.2998 41.1063 52.2998 41.1547 52.3946C42.4851 54.9091 45.4813 56.267 48.0826 57.1093C49.1784 57.4413 50.2934 57.6272 51.4284 57.7668C51.5253 57.7789 51.6222 57.791 51.7221 57.8035C51.9597 57.8288 52.1957 57.8461 52.4345 57.858C52.5206 57.8628 52.6068 57.8676 52.6956 57.8726C57.0081 57.993 61.6553 56.3188 64.8415 53.4189C65.3126 52.9701 65.6962 52.469 66.0623 51.9335C66.1422 51.817 66.1422 51.817 66.2238 51.6981C67.1692 50.2254 67.4593 48.5293 67.2088 46.8112C67.0059 46.0491 66.5404 45.3503 65.8794 44.9153C65.004 44.4711 64.0561 44.4079 63.1069 44.6532C62.3176 44.9279 61.7211 45.3817 61.3348 46.1229C61.0947 46.8067 61.067 47.416 61.3063 48.1054C61.5963 48.6835 62.0733 48.9982 62.6782 49.1991C63.2702 49.2434 63.8234 49.2842 64.3245 48.9257C64.6562 48.5609 64.7237 48.2085 64.7157 47.7297C64.7024 47.5417 64.7024 47.5417 64.5417 47.3705C64.2443 47.2535 64.0824 47.2906 63.7757 47.3762C63.6399 47.4495 63.6399 47.4495 63.5013 47.5243C63.1721 47.6747 63.0206 47.6647 62.6782 47.5585C62.5067 47.4559 62.5067 47.4559 62.4038 47.285C62.3544 46.9124 62.3799 46.6976 62.541 46.3565C62.9007 45.9532 63.4093 45.6967 63.9504 45.6195C64.6428 45.5869 65.1805 45.8138 65.7039 46.2639C66.179 46.7622 66.3771 47.272 66.4681 47.9459C66.3452 48.9956 65.9896 49.8383 65.1591 50.5036C64.5843 50.9363 63.963 51.0716 63.2555 51.0619C63.1482 51.0609 63.1482 51.0609 63.0387 51.0598C61.7912 51.025 60.7549 50.5508 59.8947 49.6538C59.1012 48.6501 59.0087 47.508 59.1112 46.2824C59.2509 45.5092 59.5485 44.8966 60.0258 44.2772C60.105 44.1588 60.105 44.1588 60.1859 44.038C61.0972 43.0793 62.4727 42.5572 63.7757 42.4543C63.8344 42.4494 63.8932 42.4445 63.9537 42.4394C65.3821 42.3798 66.7697 42.8381 67.8458 43.7759C67.9849 43.9107 68.1223 44.0473 68.2574 44.1861C68.3097 44.2374 68.3621 44.2888 68.416 44.3417C69.5238 45.5111 69.7718 47.1939 69.7458 48.7359C69.6439 51.3264 68.4759 53.8395 66.8854 55.8528C66.8295 55.9241 66.8295 55.9241 66.7724 55.9969C65.2963 57.8585 63.5193 59.3649 61.4892 60.5923C61.3913 60.6529 61.2935 60.7134 61.1926 60.7757C56.869 63.3559 51.5021 64.0365 46.5809 63.2356C46.5021 63.2234 46.4233 63.2112 46.3421 63.1986C42.5706 62.5992 39.0261 60.7125 36.2457 58.1314C36.1184 58.0208 35.9908 57.9107 35.8627 57.801C35.2685 57.2822 34.7565 56.7281 34.2618 56.1137C34.128 55.9484 33.9922 55.7846 33.8538 55.6231C33.2083 54.8659 32.665 54.0466 32.1299 53.2095C32.0951 53.1556 32.0603 53.1018 32.0245 53.0462C30.1763 50.148 29.4574 46.6197 29.4547 43.2291C29.4546 43.1593 29.4545 43.0895 29.4545 43.0177C29.4611 38.2288 30.8749 33.6904 33.9592 29.9673C34.0021 29.9153 34.045 29.8633 34.0892 29.8097C37.1745 26.0923 41.6124 23.5056 46.398 22.6757C46.5145 22.6669 46.5145 22.6669 46.6334 22.6579C47.1857 22.6029 47.5621 22.3625 47.9928 22.032C48.0481 21.9935 48.1033 21.9551 48.1602 21.9156C48.7229 21.4466 48.7469 20.7643 48.8361 20.0834C48.8808 19.7505 48.9338 19.419 48.986 19.0873C49.0281 18.8192 49.0693 18.551 49.1102 18.2827C49.1307 18.1482 49.1307 18.1482 49.1516 18.0109C49.1797 17.8263 49.2076 17.6417 49.2354 17.4571C49.2763 17.1863 49.3178 16.9155 49.3594 16.6447C49.3716 16.5627 49.3838 16.4807 49.3964 16.3962C49.4606 15.981 49.5412 15.5969 49.6906 15.2017ZM48.8674 24.3163C47.7084 25.7015 47.372 27.2956 47.4955 29.0559C47.6472 30.4146 48.3539 31.5795 49.3248 32.5194C49.3808 32.5771 49.4368 32.6348 49.4945 32.6942C50.5856 33.7445 52.1424 34.16 53.6235 34.16C55.0344 34.0629 56.2651 33.5712 57.3734 32.7017C57.3734 32.6416 57.3734 32.5814 57.3734 32.5194C57.4254 32.4997 57.4774 32.4799 57.531 32.4596C58.3286 31.9906 58.8984 30.8038 59.1283 29.9424C59.5268 28.3352 59.4501 26.8173 58.6539 25.3189C57.6866 23.7685 56.3785 22.8066 54.607 22.3492C52.4147 22.0176 50.3628 22.6894 48.8674 24.3163ZM66.0623 23.9517C66.1249 24.4125 66.3172 24.8114 66.5024 25.2335C66.7866 25.8917 67.0423 26.5467 67.2513 27.233C67.7217 26.956 68.0652 26.6858 68.2181 26.1328C68.3041 25.6093 68.2482 25.1453 67.983 24.6809C67.6871 24.3536 67.399 24.0919 66.9769 23.9517C66.8189 23.9455 66.6606 23.944 66.5024 23.946C66.42 23.9468 66.3376 23.9477 66.2527 23.9485C66.1584 23.9501 66.1584 23.9501 66.0623 23.9517Z" fill="#E4E4E4"/>
<path d="M40.0219 70.5778C40.2055 70.5785 40.3892 70.5758 40.5728 70.573C40.7478 70.5731 40.7478 70.5731 40.9263 70.5732C41.0328 70.573 41.1393 70.5729 41.2491 70.5727C41.7841 70.6538 42.1182 70.9641 42.4365 71.3818C42.5292 71.5014 42.5292 71.5014 42.6237 71.6235C42.7263 71.7576 42.7263 71.7576 42.831 71.8945C42.9961 72.1057 43.1622 72.3163 43.3283 72.5268C43.3711 72.5812 43.4139 72.6356 43.458 72.6917C43.7893 73.1123 44.1274 73.527 44.4683 73.9399C44.6484 74.1587 44.8262 74.3791 45.0032 74.6003C45.33 75.009 45.6609 75.4143 45.9921 75.8194C46.3573 76.2664 46.7198 76.7146 47.0718 77.172C47.3136 77.4816 47.5648 77.7837 47.8153 78.0863C47.9528 78.2747 47.9528 78.2747 47.9528 78.457C48.0434 78.457 48.1339 78.457 48.2272 78.457C48.2263 78.3157 48.2263 78.3157 48.2254 78.1716C48.2198 77.2851 48.2157 76.3986 48.213 75.512C48.2116 75.0562 48.2096 74.6004 48.2065 74.1446C48.2035 73.705 48.2019 73.2653 48.2012 72.8256C48.2007 72.6576 48.1997 72.4897 48.1982 72.3218C48.1962 72.087 48.1959 71.8522 48.1961 71.6173C48.1951 71.5476 48.1941 71.4778 48.1931 71.406C48.1958 70.939 48.1958 70.939 48.3468 70.712C48.6104 70.5526 48.8998 70.5796 49.199 70.5821C49.267 70.5818 49.335 70.5816 49.405 70.5813C49.5486 70.5811 49.6922 70.5816 49.8358 70.5828C50.0557 70.5842 50.2753 70.5828 50.4952 70.581C50.6348 70.5812 50.7743 70.5816 50.9139 70.5821C50.9796 70.5815 51.0454 70.581 51.1131 70.5804C51.5642 70.5868 51.5642 70.5868 51.7659 70.7223C51.9394 70.9678 51.92 71.1542 51.9199 71.4529C51.9206 71.5704 51.9212 71.6878 51.9219 71.8088C51.9212 71.9393 51.9205 72.0697 51.9197 72.2001C51.92 72.3373 51.9203 72.4744 51.9207 72.6115C51.9216 72.9842 51.9207 73.3569 51.9195 73.7295C51.9185 74.1191 51.9189 74.5086 51.919 74.8982C51.9191 75.5523 51.9181 76.2064 51.9164 76.8605C51.9145 77.6175 51.9142 78.3745 51.9147 79.1315C51.9153 79.8589 51.9148 80.5863 51.9137 81.3138C51.9133 81.6237 51.9132 81.9337 51.9134 82.2436C51.9136 82.6083 51.9128 82.973 51.9114 83.3377C51.911 83.4719 51.9109 83.606 51.9112 83.7401C51.9115 83.9226 51.9105 84.1051 51.9095 84.2877C51.9092 84.4411 51.9092 84.4411 51.909 84.5977C51.8857 84.8372 51.8857 84.8372 51.7028 85.0195C51.3055 85.0602 50.9068 85.0572 50.5077 85.0582C50.3099 85.0593 50.1124 85.0638 49.9146 85.0684C49.788 85.0693 49.6614 85.0699 49.5348 85.0704C49.3627 85.0722 49.3627 85.0722 49.1871 85.0741C48.6294 84.9788 48.3191 84.5957 47.9814 84.1593C47.9192 84.0797 47.8569 84.0002 47.7928 83.9182C47.6909 83.7866 47.6909 83.7866 47.587 83.6523C47.4292 83.4507 47.2709 83.2495 47.1125 83.0484C47.0707 82.9952 47.0288 82.9419 46.9857 82.8871C46.5521 82.3369 46.1087 81.7948 45.6652 81.2526C45.3934 80.9203 45.1247 80.5856 44.8567 80.2503C44.6999 80.0557 44.5421 79.8619 44.3837 79.6686C44.3087 79.5771 44.3087 79.5771 44.2323 79.4838C44.1293 79.358 44.0262 79.2322 43.923 79.1065C43.6774 78.8059 43.4353 78.5037 43.2011 78.1942C43.1596 78.1394 43.1182 78.0847 43.0755 78.0282C42.9636 77.8793 42.8526 77.7297 42.7416 77.58C42.5705 77.3416 42.5705 77.3416 42.2822 77.2721C42.2826 77.3664 42.283 77.4608 42.2834 77.558C42.2871 78.4459 42.2899 79.3338 42.2917 80.2217C42.2926 80.6782 42.2939 81.1347 42.296 81.5913C42.298 82.0315 42.2991 82.4718 42.2995 82.9121C42.2999 83.0803 42.3005 83.2486 42.3015 83.4169C42.3028 83.6519 42.303 83.887 42.303 84.122C42.3036 84.1921 42.3043 84.2622 42.3049 84.3344C42.303 84.8164 42.303 84.8164 42.0993 85.0195C41.8522 85.0377 41.6147 85.045 41.3676 85.0437C41.2952 85.0438 41.2228 85.044 41.1482 85.0442C40.995 85.0443 40.8419 85.044 40.6887 85.0432C40.4539 85.0422 40.2191 85.0432 39.9842 85.0444C39.8356 85.0443 39.687 85.044 39.5383 85.0437C39.4326 85.0442 39.4326 85.0442 39.3247 85.0448C38.8277 85.0404 38.8277 85.0404 38.6237 84.8372C38.6004 84.5977 38.6004 84.5977 38.5999 84.2877C38.5992 84.1705 38.5986 84.0533 38.5979 83.9325C38.5981 83.8019 38.5983 83.6713 38.5986 83.5407C38.5982 83.4037 38.5977 83.2667 38.5972 83.1298C38.5959 82.7571 38.5959 82.3844 38.5961 82.0117C38.5962 81.7009 38.5958 81.3902 38.5953 81.0794C38.5943 80.3464 38.5943 79.6134 38.5948 78.8804C38.5954 78.1234 38.5943 77.3665 38.5923 76.6095C38.5907 75.9603 38.5902 75.3111 38.5905 74.6619C38.5906 74.2739 38.5904 73.8858 38.5891 73.4978C38.588 73.1329 38.5881 72.7681 38.5893 72.4032C38.5895 72.2692 38.5893 72.1351 38.5885 72.001C38.5876 71.8183 38.5885 71.6356 38.5895 71.4529C38.5895 71.3506 38.5895 71.2482 38.5894 71.1428C38.6237 70.8919 38.6237 70.8919 38.7464 70.7224C39.096 70.4828 39.6131 70.5751 40.0219 70.5778Z" fill="#E4E4E4"/>
<path d="M35.3676 72.0554C36.3585 72.9035 36.3585 72.9035 36.4287 73.4439C35.7313 74.0127 34.986 74.5016 34.2336 74.9934C34.143 75.0536 34.0525 75.1137 33.9592 75.1757C33.6676 75.227 33.6676 75.227 33.3189 75.1757C33.124 75.0313 32.955 74.8704 32.7795 74.7032C32.4748 74.4408 32.1409 74.3053 31.7641 74.1731C31.706 74.1525 31.6478 74.132 31.588 74.1108C30.5171 73.7904 29.4593 74.0129 28.4729 74.4864C27.5715 75.0025 26.9882 75.7894 26.6997 76.7832C26.4786 77.9616 26.6021 79.0264 27.2467 80.0602C27.8263 80.8563 28.6762 81.4656 29.6605 81.647C30.9423 81.7288 31.9527 81.6082 32.9531 80.7356C33.0861 80.62 33.0861 80.62 33.2218 80.502C33.4222 80.2659 33.4848 80.1306 33.5019 79.8241C33.3197 79.6426 32.9575 79.7162 32.7077 79.7138C32.5629 79.7112 32.4181 79.7086 32.2734 79.7059C32.0442 79.7022 31.815 79.6988 31.5857 79.6964C31.3651 79.6939 31.1447 79.6897 30.9241 79.6853C30.821 79.6848 30.821 79.6848 30.7157 79.6844C30.5224 79.6798 30.5224 79.6798 30.2092 79.6418C29.9129 79.1988 29.9926 78.7099 29.992 78.1892C29.9898 78.0805 29.9875 77.9717 29.9852 77.8597C29.9849 77.7552 29.9845 77.6507 29.9842 77.543C29.9834 77.4474 29.9827 77.3517 29.9819 77.2532C30.0391 76.9255 30.1302 76.8369 30.3922 76.634C30.6733 76.5877 30.6733 76.5877 31.0072 76.5869C31.0682 76.5862 31.1293 76.5856 31.1921 76.5849C31.3933 76.5833 31.5944 76.5844 31.7955 76.5856C31.9356 76.5854 32.0757 76.585 32.2158 76.5845C32.5092 76.584 32.8026 76.5848 33.096 76.5865C33.4718 76.5886 33.8476 76.5874 34.2234 76.5852C34.5127 76.5839 34.8019 76.5843 35.0911 76.5852C35.2297 76.5855 35.3682 76.5852 35.5068 76.5843C35.7006 76.5834 35.8942 76.5848 36.088 76.5869C36.2533 76.5873 36.2533 76.5873 36.4219 76.5877C36.7591 76.6433 36.8684 76.7266 37.0689 76.9986C37.0991 77.2466 37.1078 77.4542 37.0975 77.7007C37.0958 77.7696 37.0941 77.8384 37.0924 77.9094C37.0883 78.0556 37.0834 78.2018 37.0775 78.3479C37.0691 78.5663 37.0643 78.7846 37.06 79.0031C37.0125 80.7219 36.6378 82.119 35.4454 83.413C34.6914 84.1092 33.738 84.5995 32.7702 84.9283C32.7014 84.952 32.6327 84.9756 32.5619 85C31.8895 85.2093 31.2493 85.2469 30.5472 85.2424C30.3648 85.2416 30.1824 85.2444 30.0001 85.2471C28.0214 85.2462 26.318 84.3833 24.893 83.0484C23.4966 81.6081 22.8336 79.8298 22.8466 77.8474C22.8467 77.7829 22.8468 77.7183 22.847 77.6518C22.8519 76.6685 22.9223 75.8036 23.3496 74.9023C23.3893 74.8141 23.4291 74.726 23.47 74.6352C24.3917 72.7878 25.9891 71.435 27.9266 70.7327C30.4798 69.8824 33.2722 70.3872 35.3676 72.0554Z" fill="#E4E4E4"/>
<path d="M63.5928 71.7121C64.3969 72.4534 64.9804 73.3576 65.073 74.465C65.0791 74.6629 65.0791 74.6629 65.0562 74.9933C64.8268 75.2219 64.6847 75.199 64.3715 75.2033C64.3033 75.2032 64.2351 75.2031 64.1648 75.203C64.0947 75.2034 64.0245 75.2038 63.9523 75.2042C63.8038 75.2047 63.6553 75.2048 63.5069 75.2044C63.2796 75.2041 63.0525 75.2062 62.8252 75.2085C62.6811 75.2088 62.5369 75.2088 62.3927 75.2087C62.3247 75.2096 62.2567 75.2104 62.1866 75.2113C61.717 75.2071 61.717 75.2071 61.4974 75.0532C61.3977 74.9022 61.3977 74.9022 61.2777 74.6401C61.0208 74.1661 60.6858 73.9229 60.1916 73.7344C59.425 73.5101 58.5532 73.5396 57.8307 73.8996C57.6296 74.1206 57.5618 74.2357 57.5049 74.5319C57.5751 74.913 57.7994 75.0565 58.1051 75.2668C58.3765 75.4048 58.3765 75.4048 58.6767 75.5117C58.7334 75.5335 58.7901 75.5552 58.8486 75.5776C59.0576 75.6575 59.2673 75.7357 59.477 75.8136C62.7646 77.0378 62.7646 77.0378 63.8672 78.0011C63.9322 78.0573 63.9971 78.1135 64.0641 78.1713C64.7657 78.8198 65.2216 79.683 65.2667 80.649C65.2684 80.7785 65.2688 80.908 65.2677 81.0374C65.2672 81.1056 65.2667 81.1737 65.2662 81.2439C65.2411 82.384 64.8167 83.1969 63.9987 83.9883C63.4907 84.4238 62.9404 84.702 62.3124 84.9282C62.2465 84.9527 62.1806 84.9772 62.1127 85.0024C61.3449 85.2519 60.5809 85.2463 59.7818 85.2423C59.5473 85.2415 59.3131 85.2442 59.0787 85.2471C57.3219 85.2546 55.7668 84.8367 54.4609 83.5902C53.7802 82.8603 53.4147 82.0861 53.4041 81.0862C53.4406 80.9178 53.4406 80.9178 53.7149 80.7355C53.942 80.7144 54.1586 80.7034 54.3859 80.7017C54.4514 80.7009 54.5169 80.7 54.5844 80.6992C54.723 80.6979 54.8615 80.6971 55.0001 80.6967C55.2113 80.6956 55.4223 80.6912 55.6335 80.6866C55.7683 80.6857 55.9031 80.685 56.0379 80.6846C56.1007 80.6828 56.1635 80.681 56.2282 80.6792C56.58 80.6825 56.7213 80.7258 56.996 80.952C57.1905 81.1912 57.1905 81.1912 57.3391 81.4248C57.85 81.9473 58.5184 82.0314 59.2226 82.0495C59.3373 82.0505 59.3373 82.0505 59.4542 82.0514C59.5277 82.0523 59.6012 82.0533 59.677 82.0542C60.2386 82.046 60.6429 81.9234 61.1234 81.6242C61.2408 81.45 61.2408 81.45 61.2148 81.1514C61.1014 80.7488 61.0239 80.676 60.666 80.4621C59.979 80.1249 59.2741 79.8618 58.551 79.6133C57.2064 79.139 55.9183 78.6495 54.8125 77.7277C54.7518 77.6785 54.691 77.6292 54.6285 77.5785C53.9507 76.9734 53.5708 76.1135 53.5102 75.2183C53.486 73.9288 53.7194 72.8699 54.6296 71.8944C56.9981 69.8022 61.1111 69.7802 63.5928 71.7121Z" fill="#E4E4E4"/>
<path d="M76.7973 71.7932C77.5529 72.479 78.0208 73.2493 78.1024 74.2677C78.1464 75.3054 78.1497 76.2365 77.495 77.0897C77.4448 77.1576 77.3946 77.2255 77.3428 77.2954C77.1978 77.477 77.1978 77.477 76.9463 77.7277C76.8859 77.7277 76.8255 77.7277 76.7633 77.7277C76.8043 77.7719 76.8452 77.816 76.8873 77.8616C77.7224 78.7843 78.0772 79.4983 78.0838 80.7469C78.0883 80.8942 78.0883 80.8942 78.0929 81.0445C78.0992 81.9858 77.7778 82.8627 77.1292 83.561C75.7243 84.8784 74.029 85.2749 72.1617 85.2529C72.0916 85.2526 72.0215 85.2522 71.9493 85.2518C70.8742 85.2441 69.8994 85.1642 68.8976 84.7459C68.7935 84.7031 68.6894 84.6604 68.5822 84.6163C67.4527 84.1013 66.6562 83.2862 66.2052 82.1255C65.9903 81.468 65.9903 81.468 66.0623 81.1001C66.2031 80.9064 66.2031 80.9064 66.4282 80.7355C66.6805 80.6981 66.8958 80.6822 67.1481 80.6839C67.2175 80.6833 67.287 80.6827 67.3585 80.6822C67.5051 80.6815 67.6517 80.6818 67.7983 80.683C68.022 80.6842 68.2454 80.6811 68.4691 80.6776C68.6118 80.6776 68.7545 80.6777 68.8973 80.6782C68.9638 80.677 69.0303 80.6758 69.0988 80.6745C69.4581 80.681 69.6127 80.7218 69.8934 80.9523C70.0178 81.1061 70.1379 81.2635 70.2524 81.4248C70.6307 81.8449 71.1731 82.0647 71.7337 82.1212C72.4232 82.1364 73.1981 82.0018 73.7451 81.5558C74.0233 81.1448 74.1048 80.7635 74.0195 80.2798C73.8455 79.9122 73.713 79.7659 73.3564 79.5677C72.5489 79.3129 71.6948 79.3431 70.8553 79.3291C70.7605 79.3263 70.6656 79.3235 70.5679 79.3206C70.482 79.3188 70.3961 79.317 70.3077 79.3151C70.0866 79.2772 70.0866 79.2772 69.9216 79.1712C69.766 78.9329 69.7767 78.7512 69.7758 78.4682C69.7755 78.3634 69.7751 78.2586 69.7747 78.1507C69.7758 78.0412 69.7769 77.9316 69.7779 77.8188C69.7769 77.7093 69.7758 77.5998 69.7747 77.487C69.7751 77.3822 69.7754 77.2774 69.7758 77.1694C69.7761 77.0733 69.7764 76.9772 69.7767 76.8782C69.8122 76.6339 69.8122 76.6339 69.9166 76.4663C70.1626 76.3132 70.3593 76.3238 70.6479 76.3203C70.8149 76.3166 70.8149 76.3166 70.9854 76.313C71.1019 76.3117 71.2184 76.3105 71.3385 76.3092C72.758 76.3258 72.758 76.3258 73.928 75.6313C74.0971 75.2943 74.0499 74.9062 74.0195 74.5376C73.8923 74.1732 73.7161 74.05 73.385 73.8768C72.7197 73.5651 71.9429 73.5043 71.2278 73.6842C71.0578 73.7487 70.8919 73.8234 70.7269 73.8996C70.6363 73.9296 70.5458 73.9597 70.4525 73.9907C70.3531 74.1578 70.3531 74.1578 70.2696 74.3553C70.193 74.4834 70.1148 74.6107 70.0352 74.737C69.9955 74.8003 69.9557 74.8636 69.9148 74.9289C69.8122 75.0845 69.8122 75.0845 69.7208 75.1756C69.4735 75.1882 69.2287 75.195 68.9812 75.1973C68.9069 75.1981 68.8326 75.1988 68.756 75.1995C68.5984 75.2008 68.4407 75.2018 68.2831 75.2025C68.0418 75.2041 67.8006 75.2081 67.5593 75.2121C67.4064 75.213 67.2535 75.2138 67.1005 75.2144C67.0282 75.216 66.9559 75.2176 66.8814 75.2192C66.3823 75.2173 66.3823 75.2173 66.1539 75.0087C65.9236 74.5117 66.0802 73.9901 66.2417 73.4937C66.4021 73.1018 66.6281 72.7759 66.8855 72.4412C66.956 72.3468 66.956 72.3468 67.028 72.2504C69.1719 69.5862 74.3155 69.8212 76.7973 71.7932Z" fill="#E4E4E4"/>
<path d="M53.3612 25.5381C53.9263 25.9786 54.1924 26.4836 54.298 27.1883C54.3312 27.847 54.1717 28.4674 53.7331 28.9717C53.1225 29.5341 52.5402 29.7557 51.7085 29.7308C50.9762 29.634 50.4467 29.2569 49.996 28.6873C49.6171 28.1357 49.6252 27.516 49.6906 26.8683C49.8516 26.2101 50.2322 25.7843 50.7881 25.4099C51.617 24.9438 52.5799 25.0247 53.3612 25.5381Z" fill="#E4E4E4"/>
</g>
<defs>
<clipPath id="clip0_2377_9406">
<rect width="55.1515" height="70" fill="white" transform="translate(22.8923 15.2017)"/>
</clipPath>
</defs>
</svg>
