<svg width="101" height="101" viewBox="0 0 101 101" fill="none" xmlns="http://www.w3.org/2000/svg">
<g clip-path="url(#clip0_2377_9176)">
<path d="M49.6906 15.0323C51.6067 14.9802 53.4026 14.9931 55.2698 15.488C55.409 15.5223 55.5482 15.5566 55.6874 15.5909C58.3937 16.2921 61.2604 17.8198 63.1548 19.9068C63.7404 20.5479 64.121 20.8779 65.018 21.0009C65.9037 21.1341 66.6488 21.6004 67.3427 22.1417C67.4056 22.1892 67.4684 22.2368 67.5332 22.2859C68.7037 23.2315 69.502 24.6696 69.7208 26.1521C69.8469 27.6406 69.544 28.9945 68.7147 30.2536C68.6615 30.312 68.6083 30.3703 68.5535 30.4305C68.0383 31.0082 67.986 31.4547 68.0001 32.2133C68.0005 32.8977 67.9771 33.5092 67.8001 34.1729C67.2918 34.3375 66.8118 34.4008 66.28 34.4399C66.1941 34.4468 66.1082 34.4536 66.0197 34.4607C65.8342 34.4754 65.6486 34.4898 65.4631 34.5039C65.1693 34.5264 64.8756 34.5496 64.582 34.5731C63.853 34.6311 63.1239 34.6878 62.3947 34.7445C61.7777 34.7924 61.1607 34.841 60.5438 34.8903C60.2546 34.9132 59.9653 34.9352 59.6761 34.9572C59.4988 34.9713 59.3215 34.9854 59.1442 34.9996C59.0639 35.0055 58.9836 35.0114 58.9008 35.0174C58.5118 35.0495 58.1865 35.0923 57.8307 35.2667C57.8268 35.4185 57.827 35.5705 57.8307 35.7224C57.9859 35.8771 58.1903 35.8492 58.4035 35.8692C58.5105 35.8794 58.6175 35.8895 58.7278 35.8999C58.8495 35.9109 58.9712 35.9219 59.093 35.9328C59.1558 35.9386 59.2187 35.9443 59.2835 35.9503C61.6077 36.1632 63.9362 36.3295 66.2633 36.5059C66.7844 36.5454 67.3055 36.5854 67.8266 36.6256C68.0224 36.6406 68.2182 36.6555 68.4141 36.6702C71.2511 36.8829 71.2512 36.8829 71.4585 37.0896C71.4757 37.4029 71.4757 37.4029 71.4585 37.7276C71.1933 37.9919 70.8789 38.011 70.5225 38.0822C70.4427 38.0987 70.363 38.1152 70.2808 38.1322C70.0104 38.1879 69.7398 38.2426 69.4692 38.2973C69.2765 38.3367 69.0838 38.3762 68.8911 38.4157C66.8526 38.8325 64.8116 39.2373 62.7706 39.6417C62.5743 39.6807 62.378 39.7196 62.1817 39.7586C62.0533 39.784 61.9249 39.8094 61.7965 39.8348C61.1054 39.9714 60.4149 40.1108 59.7258 40.2574C59.6039 40.2832 59.4819 40.309 59.36 40.3348C59.1334 40.3829 58.9069 40.4317 58.6807 40.4811C57.9418 40.6379 57.3061 40.7651 56.5842 40.4723C56.4844 40.4327 56.3845 40.3932 56.2817 40.3524C56.1722 40.3078 56.0628 40.2631 55.95 40.217C55.7679 40.1444 55.5855 40.0722 55.4031 40.0001C55.2656 39.9458 55.1282 39.8913 54.9908 39.8367C53.9796 39.4358 52.9613 39.0528 51.9442 38.6671C51.4934 38.4962 51.0428 38.325 50.5922 38.1537C50.388 38.0761 50.1838 37.9985 49.9796 37.921C49.888 37.8862 49.7964 37.8514 49.702 37.8155C49.6222 37.7852 49.5424 37.7549 49.4602 37.7237C49.3032 37.6633 49.1473 37.5999 48.9925 37.5341C48.7716 37.4383 48.7716 37.4383 48.5016 37.4542C48.3563 37.6527 48.2314 37.8467 48.1072 38.058C48.0271 38.1907 47.9468 38.3232 47.8664 38.4557C47.8225 38.5283 47.7786 38.6008 47.7334 38.6756C47.5728 38.9354 47.4066 39.1909 47.239 39.4462C47.1802 39.5362 47.1214 39.6262 47.0608 39.7189C46.9437 39.8978 46.8259 40.0763 46.7074 40.2544C46.654 40.3367 46.6006 40.4189 46.5455 40.5036C46.4731 40.6136 46.4731 40.6136 46.3992 40.7257C46.2743 40.9273 46.2743 40.9273 46.398 41.1911C46.585 41.3216 46.7653 41.4342 46.9639 41.5443C47.0207 41.5762 47.0774 41.6081 47.1359 41.641C48.1511 42.194 49.3418 42.6488 50.5138 42.4672C50.7403 42.3374 50.9147 42.1873 51.1086 42.0132C51.3893 41.7869 51.6827 41.6337 52.0057 41.476C52.1129 41.4236 52.2201 41.3712 52.3305 41.3172C53.0533 40.9996 53.9072 40.9645 54.6635 41.1933C55.2947 41.4834 55.8202 41.8685 56.1844 42.4672C56.3169 42.8576 56.3227 43.1561 56.1844 43.5438C55.7728 43.9925 55.3245 44.1658 54.7278 44.2082C54.4469 44.1945 54.2952 44.1025 54.0808 43.9255C54.0279 43.8616 53.9751 43.7977 53.9207 43.7318C53.609 43.4729 53.2893 43.4634 52.8918 43.4698C52.6211 43.5149 52.6211 43.5149 52.4345 43.6521C52.3419 43.8762 52.3294 43.9797 52.4141 44.2093C52.4491 44.2754 52.4841 44.3416 52.5202 44.4097C52.6967 44.7843 52.7817 45.0558 52.7088 45.475C52.4723 45.8107 52.3366 45.9141 51.9314 45.9934C51.5901 45.9266 51.4606 45.8444 51.2566 45.5653C51.136 45.3521 51.0468 45.1356 50.9578 44.9075C50.9258 44.8259 50.8938 44.7442 50.8607 44.6602C50.8368 44.5982 50.8128 44.5362 50.7881 44.4724C50.733 44.4738 50.6779 44.4753 50.6212 44.4767C48.0551 44.5342 45.2547 44.1948 43.3069 42.348C42.4914 41.5416 42.4914 41.5416 42.4337 40.9722C42.5735 39.5142 43.7492 38.0585 44.5562 36.8775C44.7029 36.6624 44.8473 36.4459 44.9917 36.2294C45.0642 36.1212 45.1366 36.0129 45.209 35.9047C44.812 35.8317 44.4861 35.7841 44.0943 35.899C42.795 36.8485 41.9753 39.0777 41.459 40.5531C41.3884 41.2101 41.5706 41.7449 41.9735 42.2621C42.6891 43.0281 43.6532 43.6187 44.5859 44.085C45.0984 44.3496 45.391 44.6059 45.6663 45.1104C45.7245 45.2135 45.7245 45.2135 45.7838 45.3187C46.5847 46.8979 46.783 48.7423 46.7638 50.488C46.9792 50.4062 46.9792 50.4062 47.0554 50.1177C47.2735 49.588 47.6553 49.0978 48.1815 48.8474C48.605 48.7268 48.9482 48.6699 49.359 48.8531C49.5859 49.1227 49.6052 49.3196 49.5991 49.6677C49.3215 50.0365 49.0064 50.2047 48.5931 50.3969C48.379 50.5723 48.379 50.5723 48.3758 50.8811C48.4152 51.2669 48.5047 51.4025 48.776 51.6729C49.0768 51.8228 49.3668 51.8233 49.6906 51.7641C50.0494 51.5818 50.3786 51.36 50.6556 51.0673C50.8859 50.8526 51.1236 50.8631 51.4284 50.8526C51.9522 51.0468 52.1056 51.4733 52.343 51.9463C52.4094 52.5611 52.4174 53.0989 52.0393 53.6098C51.3996 54.2739 50.7042 54.4978 49.8049 54.5269C48.6283 54.5018 47.58 54.111 46.7009 53.3249C46.2274 52.8229 45.9614 52.2234 45.6731 51.6066C45.1579 50.5205 44.6075 49.5023 43.837 48.574C43.7848 48.506 43.7326 48.4381 43.6788 48.3682C43.0869 47.6312 42.3479 47.1811 41.414 47.0241C41.135 47.0245 40.9738 47.0761 40.7273 47.2068C40.4071 47.8266 40.4103 48.5756 40.4186 49.2575C40.4176 49.3446 40.4165 49.4317 40.4154 49.5214C40.4191 50.4265 40.646 51.2346 41.0589 52.0375C41.1063 52.1304 41.1063 52.1304 41.1547 52.2251C42.4851 54.7397 45.4813 56.0976 48.0826 56.9399C49.1784 57.2719 50.2934 57.4578 51.4284 57.5974C51.5253 57.6095 51.6222 57.6216 51.7221 57.6341C51.9597 57.6594 52.1957 57.6766 52.4345 57.6885C52.5206 57.6934 52.6068 57.6982 52.6956 57.7031C57.0081 57.8235 61.6553 56.1494 64.8415 53.2494C65.3126 52.8006 65.6962 52.2996 66.0623 51.7641C66.1422 51.6476 66.1422 51.6476 66.2238 51.5287C67.1692 50.056 67.4593 48.3599 67.2088 46.6417C67.0059 45.8797 66.5404 45.1808 65.8794 44.7458C65.004 44.3016 64.0561 44.2385 63.1069 44.4838C62.3176 44.7585 61.7211 45.2122 61.3348 45.9535C61.0947 46.6372 61.067 47.2466 61.3063 47.9359C61.5963 48.514 62.0733 48.8288 62.6782 49.0297C63.2702 49.0739 63.8234 49.1148 64.3245 48.7562C64.6562 48.3914 64.7237 48.0391 64.7157 47.5603C64.7024 47.3723 64.7024 47.3723 64.5417 47.2011C64.2443 47.0841 64.0824 47.1212 63.7757 47.2068C63.6399 47.2801 63.6399 47.2801 63.5013 47.3549C63.1721 47.5052 63.0206 47.4952 62.6782 47.3891C62.5067 47.2865 62.5067 47.2865 62.4038 47.1156C62.3544 46.743 62.3799 46.5281 62.541 46.1871C62.9007 45.7838 63.4093 45.5273 63.9504 45.4501C64.6428 45.4175 65.1805 45.6443 65.7039 46.0945C66.179 46.5928 66.3771 47.1026 66.4681 47.7764C66.3452 48.8261 65.9896 49.6689 65.1591 50.3342C64.5843 50.7669 63.963 50.9021 63.2555 50.8925C63.1482 50.8914 63.1482 50.8914 63.0387 50.8904C61.7912 50.8555 60.7549 50.3814 59.8947 49.4843C59.1012 48.4807 59.0087 47.3385 59.1112 46.113C59.2509 45.3398 59.5485 44.7271 60.0258 44.1078C60.105 43.9894 60.105 43.9894 60.1859 43.8685C61.0972 42.9099 62.4727 42.3878 63.7757 42.2849C63.8344 42.28 63.8932 42.275 63.9537 42.2699C65.3821 42.2104 66.7697 42.6686 67.8458 43.6065C67.9849 43.7413 68.1223 43.8778 68.2574 44.0167C68.3097 44.068 68.3621 44.1193 68.416 44.1722C69.5238 45.3416 69.7718 47.0244 69.7458 48.5665C69.6439 51.1569 68.4759 53.67 66.8854 55.6833C66.8295 55.7547 66.8295 55.7547 66.7724 55.8275C65.2963 57.6891 63.5193 59.1954 61.4892 60.4229C61.3913 60.4834 61.2935 60.5439 61.1926 60.6063C56.869 63.1864 51.5021 63.8671 46.5809 63.0661C46.5021 63.0539 46.4233 63.0417 46.3421 63.0292C42.5706 62.4297 39.0261 60.5431 36.2457 57.962C36.1184 57.8514 35.9908 57.7412 35.8627 57.6316C35.2685 57.1128 34.7565 56.5587 34.2618 55.9443C34.128 55.779 33.9922 55.6152 33.8538 55.4537C33.2083 54.6964 32.665 53.8772 32.1299 53.0401C32.0951 52.9862 32.0603 52.9323 32.0245 52.8768C30.1763 49.9786 29.4574 46.4503 29.4547 43.0596C29.4546 42.9899 29.4545 42.9201 29.4545 42.8482C29.4611 38.0594 30.8749 33.5209 33.9592 29.7979C34.0021 29.7459 34.045 29.6939 34.0892 29.6403C37.1745 25.9229 41.6124 23.3362 46.398 22.5062C46.5145 22.4974 46.5145 22.4974 46.6334 22.4884C47.1857 22.4335 47.5621 22.1931 47.9928 21.8625C48.0481 21.8241 48.1033 21.7857 48.1602 21.7461C48.7229 21.2772 48.7469 20.5949 48.8361 19.914C48.8808 19.5811 48.9338 19.2496 48.986 18.9178C49.0281 18.6497 49.0693 18.3815 49.1102 18.1133C49.1307 17.9787 49.1307 17.9787 49.1516 17.8415C49.1797 17.6569 49.2076 17.4723 49.2354 17.2877C49.2763 17.0168 49.3178 16.7461 49.3594 16.4753C49.3716 16.3933 49.3838 16.3112 49.3964 16.2267C49.4606 15.8116 49.5412 15.4275 49.6906 15.0323ZM48.8674 24.1469C47.7084 25.5321 47.372 27.1262 47.4955 28.8864C47.6472 30.2452 48.3539 31.41 49.3248 32.35C49.3808 32.4077 49.4368 32.4654 49.4945 32.5248C50.5856 33.5751 52.1424 33.9906 53.6235 33.9906C55.0344 33.8934 56.2651 33.4017 57.3734 32.5323C57.3734 32.4721 57.3734 32.412 57.3734 32.35C57.4254 32.3303 57.4774 32.3105 57.531 32.2902C58.3286 31.8212 58.8984 30.6344 59.1283 29.773C59.5268 28.1658 59.4501 26.6478 58.6539 25.1495C57.6866 23.5991 56.3785 22.6372 54.607 22.1798C52.4147 21.8482 50.3628 22.52 48.8674 24.1469ZM66.0623 23.7823C66.1249 24.243 66.3172 24.642 66.5024 25.064C66.7866 25.7223 67.0423 26.3772 67.2513 27.0635C67.7217 26.7865 68.0652 26.5164 68.2181 25.9634C68.3041 25.4398 68.2482 24.9759 67.983 24.5114C67.6871 24.1842 67.399 23.9225 66.9769 23.7823C66.8189 23.7761 66.6606 23.7745 66.5024 23.7766C66.42 23.7774 66.3376 23.7782 66.2527 23.7791C66.1584 23.7807 66.1584 23.7807 66.0623 23.7823Z" fill="#191919"/>
<path d="M40.0219 70.4083C40.2055 70.4091 40.3892 70.4064 40.5728 70.4036C40.7478 70.4037 40.7478 70.4037 40.9263 70.4038C41.0328 70.4036 41.1393 70.4034 41.2491 70.4033C41.7841 70.4844 42.1182 70.7946 42.4365 71.2123C42.5292 71.332 42.5292 71.332 42.6237 71.4541C42.7263 71.5882 42.7263 71.5882 42.831 71.725C42.9961 71.9363 43.1622 72.1468 43.3283 72.3573C43.3711 72.4118 43.4139 72.4662 43.458 72.5222C43.7893 72.9429 44.1274 73.3576 44.4683 73.7705C44.6484 73.9893 44.8262 74.2096 45.0032 74.4309C45.33 74.8396 45.6609 75.2449 45.9921 75.65C46.3573 76.0969 46.7198 76.5452 47.0718 77.0026C47.3136 77.3122 47.5648 77.6142 47.8153 77.9169C47.9528 78.1052 47.9528 78.1052 47.9528 78.2875C48.0434 78.2875 48.1339 78.2875 48.2272 78.2875C48.2263 78.1463 48.2263 78.1463 48.2254 78.0022C48.2198 77.1156 48.2157 76.2291 48.213 75.3426C48.2116 74.8868 48.2096 74.431 48.2065 73.9752C48.2035 73.5355 48.2019 73.0958 48.2012 72.6561C48.2007 72.4882 48.1997 72.3203 48.1982 72.1524C48.1962 71.9175 48.1959 71.6827 48.1961 71.4479C48.1951 71.3782 48.1941 71.3084 48.1931 71.2365C48.1958 70.7696 48.1958 70.7696 48.3468 70.5426C48.6104 70.3832 48.8998 70.4101 49.199 70.4127C49.267 70.4124 49.335 70.4121 49.405 70.4119C49.5486 70.4117 49.6922 70.4122 49.8358 70.4133C50.0557 70.4148 50.2753 70.4133 50.4952 70.4116C50.6348 70.4118 50.7743 70.4121 50.9139 70.4127C50.9796 70.4121 51.0454 70.4116 51.1131 70.411C51.5642 70.4173 51.5642 70.4173 51.7659 70.5528C51.9394 70.7984 51.92 70.9848 51.9199 71.2835C51.9206 71.4009 51.9212 71.5184 51.9219 71.6394C51.9212 71.7698 51.9205 71.9003 51.9197 72.0307C51.92 72.1678 51.9203 72.305 51.9207 72.4421C51.9216 72.8148 51.9207 73.1874 51.9195 73.5601C51.9185 73.9496 51.9189 74.3392 51.919 74.7287C51.9191 75.3829 51.9181 76.037 51.9164 76.6911C51.9145 77.4481 51.9142 78.2051 51.9147 78.9621C51.9153 79.6895 51.9148 80.4169 51.9137 81.1443C51.9133 81.4543 51.9132 81.7642 51.9134 82.0742C51.9136 82.4389 51.9128 82.8036 51.9114 83.1683C51.911 83.3024 51.9109 83.4365 51.9112 83.5707C51.9115 83.7532 51.9105 83.9357 51.9095 84.1182C51.9092 84.2717 51.9092 84.2717 51.909 84.4283C51.8857 84.6677 51.8857 84.6677 51.7028 84.85C51.3055 84.8908 50.9068 84.8878 50.5077 84.8888C50.3099 84.8899 50.1124 84.8944 49.9146 84.899C49.788 84.8998 49.6614 84.9005 49.5348 84.9009C49.3627 84.9028 49.3627 84.9028 49.1871 84.9047C48.6294 84.8093 48.3191 84.4262 47.9814 83.9898C47.9192 83.9103 47.8569 83.8307 47.7928 83.7488C47.6909 83.6171 47.6909 83.6171 47.587 83.4828C47.4292 83.2812 47.2709 83.0801 47.1125 82.879C47.0707 82.8257 47.0288 82.7725 46.9857 82.7176C46.5521 82.1674 46.1087 81.6253 45.6652 81.0831C45.3934 80.7508 45.1247 80.4162 44.8567 80.0809C44.6999 79.8862 44.5421 79.6925 44.3837 79.4991C44.3087 79.4077 44.3087 79.4077 44.2323 79.3144C44.1293 79.1886 44.0262 79.0628 43.923 78.9371C43.6774 78.6365 43.4353 78.3343 43.2011 78.0248C43.1596 77.97 43.1182 77.9152 43.0755 77.8588C42.9636 77.7099 42.8526 77.5603 42.7416 77.4106C42.5705 77.1722 42.5705 77.1722 42.2822 77.1026C42.2826 77.197 42.283 77.2914 42.2834 77.3886C42.2871 78.2765 42.2899 79.1644 42.2917 80.0523C42.2926 80.5088 42.2939 80.9653 42.296 81.4218C42.298 81.8621 42.2991 82.3024 42.2995 82.7427C42.2999 82.9109 42.3005 83.0792 42.3015 83.2474C42.3028 83.4825 42.303 83.7175 42.303 83.9526C42.3036 84.0227 42.3043 84.0928 42.3049 84.165C42.303 84.6469 42.303 84.6469 42.0993 84.85C41.8522 84.8682 41.6147 84.8755 41.3676 84.8742C41.2952 84.8744 41.2228 84.8746 41.1482 84.8748C40.995 84.8749 40.8419 84.8745 40.6887 84.8738C40.4539 84.8728 40.2191 84.8738 39.9842 84.8749C39.8356 84.8748 39.687 84.8746 39.5383 84.8742C39.4326 84.8748 39.4326 84.8748 39.3247 84.8754C38.8277 84.871 38.8277 84.871 38.6237 84.6677C38.6004 84.4283 38.6004 84.4283 38.5999 84.1182C38.5992 84.001 38.5986 83.8838 38.5979 83.7631C38.5981 83.6325 38.5983 83.5019 38.5986 83.3712C38.5982 83.2343 38.5977 83.0973 38.5972 82.9603C38.5959 82.5876 38.5959 82.215 38.5961 81.8423C38.5962 81.5315 38.5958 81.2207 38.5953 80.91C38.5943 80.1769 38.5943 79.4439 38.5948 78.7109C38.5954 77.954 38.5943 77.197 38.5923 76.4401C38.5907 75.7909 38.5902 75.1417 38.5905 74.4925C38.5906 74.1044 38.5904 73.7164 38.5891 73.3284C38.588 72.9635 38.5881 72.5987 38.5893 72.2338C38.5895 72.0997 38.5893 71.9657 38.5885 71.8316C38.5876 71.6489 38.5885 71.4662 38.5895 71.2835C38.5895 71.1811 38.5895 71.0788 38.5894 70.9733C38.6237 70.7224 38.6237 70.7224 38.7464 70.5529C39.096 70.3134 39.6131 70.4057 40.0219 70.4083Z" fill="#191919"/>
<path d="M35.3676 71.8859C36.3585 72.7341 36.3585 72.7341 36.4287 73.2745C35.7313 73.8432 34.986 74.3322 34.2336 74.824C34.143 74.8841 34.0525 74.9443 33.9592 75.0063C33.6676 75.0575 33.6676 75.0575 33.3189 75.0063C33.124 74.8618 32.955 74.701 32.7795 74.5338C32.4748 74.2713 32.1409 74.1359 31.7641 74.0037C31.706 73.9831 31.6478 73.9625 31.588 73.9413C30.5171 73.621 29.4593 73.8435 28.4729 74.317C27.5715 74.8331 26.9882 75.62 26.6997 76.6138C26.4786 77.7921 26.6021 78.8569 27.2467 79.8908C27.8263 80.6869 28.6762 81.2962 29.6605 81.4776C30.9423 81.5594 31.9527 81.4387 32.9531 80.5662C33.0861 80.4505 33.0861 80.4505 33.2218 80.3326C33.4222 80.0965 33.4848 79.9612 33.5019 79.6547C33.3197 79.4732 32.9575 79.5467 32.7077 79.5443C32.5629 79.5418 32.4181 79.5392 32.2734 79.5365C32.0442 79.5327 31.815 79.5294 31.5857 79.527C31.3651 79.5245 31.1447 79.5203 30.9241 79.5158C30.821 79.5154 30.821 79.5154 30.7157 79.5149C30.5224 79.5104 30.5224 79.5104 30.2092 79.4724C29.9129 79.0294 29.9926 78.5405 29.992 78.0198C29.9898 77.911 29.9875 77.8023 29.9852 77.6903C29.9849 77.5857 29.9845 77.4812 29.9842 77.3736C29.9834 77.2779 29.9827 77.1823 29.9819 77.0838C30.0391 76.7561 30.1302 76.6675 30.3922 76.4646C30.6733 76.4183 30.6733 76.4183 31.0072 76.4174C31.0682 76.4168 31.1293 76.4161 31.1921 76.4155C31.3933 76.4139 31.5944 76.4149 31.7955 76.4162C31.9356 76.4159 32.0757 76.4156 32.2158 76.4151C32.5092 76.4146 32.8026 76.4154 33.096 76.4171C33.4718 76.4191 33.8476 76.4179 34.2234 76.4158C34.5127 76.4144 34.8019 76.4149 35.0911 76.4158C35.2297 76.416 35.3682 76.4158 35.5068 76.4149C35.7006 76.414 35.8942 76.4154 36.088 76.4174C36.2533 76.4179 36.2533 76.4179 36.4219 76.4183C36.7591 76.4738 36.8684 76.5572 37.0689 76.8292C37.0991 77.0772 37.1078 77.2847 37.0975 77.5313C37.0958 77.6001 37.0941 77.669 37.0924 77.7399C37.0883 77.8861 37.0834 78.0323 37.0775 78.1785C37.0691 78.3969 37.0643 78.6151 37.06 78.8337C37.0125 80.5524 36.6378 81.9496 35.4454 83.2436C34.6914 83.9398 33.738 84.43 32.7702 84.7589C32.7014 84.7825 32.6327 84.8062 32.5619 84.8306C31.8895 85.0399 31.2493 85.0775 30.5472 85.073C30.3648 85.0722 30.1824 85.0749 30.0001 85.0777C28.0214 85.0767 26.318 84.2139 24.893 82.879C23.4966 81.4387 22.8336 79.6604 22.8466 77.678C22.8467 77.6134 22.8468 77.5489 22.847 77.4824C22.8519 76.499 22.9223 75.6341 23.3496 74.7328C23.3893 74.6447 23.4291 74.5566 23.47 74.4658C24.3917 72.6184 25.9891 71.2656 27.9266 70.5633C30.4798 69.713 33.2722 70.2177 35.3676 71.8859Z" fill="#191919"/>
<path d="M63.5928 71.5426C64.3969 72.284 64.9804 73.1881 65.073 74.2955C65.0791 74.4935 65.0791 74.4935 65.0562 74.8239C64.8268 75.0525 64.6847 75.0295 64.3715 75.0338C64.3033 75.0338 64.2351 75.0337 64.1648 75.0336C64.0947 75.034 64.0245 75.0344 63.9523 75.0348C63.8038 75.0353 63.6553 75.0353 63.5069 75.035C63.2796 75.0347 63.0525 75.0368 62.8252 75.0391C62.6811 75.0393 62.5369 75.0394 62.3927 75.0393C62.3247 75.0401 62.2567 75.041 62.1866 75.0418C61.717 75.0376 61.717 75.0376 61.4974 74.8838C61.3977 74.7327 61.3977 74.7327 61.2777 74.4707C61.0208 73.9966 60.6858 73.7535 60.1916 73.5649C59.425 73.3406 58.5532 73.3701 57.8307 73.7301C57.6296 73.9511 57.5618 74.0663 57.5049 74.3625C57.5751 74.7436 57.7994 74.8871 58.1051 75.0973C58.3765 75.2354 58.3765 75.2354 58.6767 75.3423C58.7334 75.364 58.7901 75.3858 58.8486 75.4082C59.0576 75.4881 59.2673 75.5662 59.477 75.6442C62.7646 76.8684 62.7646 76.8684 63.8672 77.8317C63.9322 77.8879 63.9971 77.944 64.0641 78.0019C64.7657 78.6503 65.2216 79.5136 65.2667 80.4796C65.2684 80.609 65.2688 80.7385 65.2677 80.868C65.2672 80.9361 65.2667 81.0043 65.2662 81.0745C65.2411 82.2146 64.8167 83.0275 63.9987 83.8188C63.4907 84.2544 62.9404 84.5326 62.3124 84.7588C62.2465 84.7833 62.1806 84.8077 62.1127 84.833C61.3449 85.0825 60.5809 85.0769 59.7818 85.0729C59.5473 85.0721 59.3131 85.0747 59.0787 85.0776C57.3219 85.0852 55.7668 84.6672 54.4609 83.4208C53.7802 82.6908 53.4147 81.9167 53.4041 80.9168C53.4406 80.7484 53.4406 80.7484 53.7149 80.5661C53.942 80.545 54.1586 80.534 54.3859 80.5323C54.4514 80.5314 54.5169 80.5306 54.5844 80.5298C54.723 80.5284 54.8615 80.5276 55.0001 80.5273C55.2113 80.5262 55.4223 80.5217 55.6335 80.5171C55.7683 80.5163 55.9031 80.5156 56.0379 80.5152C56.1007 80.5134 56.1635 80.5116 56.2282 80.5098C56.58 80.513 56.7213 80.5563 56.996 80.7825C57.1905 81.0218 57.1905 81.0218 57.3391 81.2554C57.85 81.7778 58.5184 81.8619 59.2226 81.8801C59.3373 81.881 59.3373 81.881 59.4542 81.882C59.5277 81.8829 59.6012 81.8838 59.677 81.8848C60.2386 81.8766 60.6429 81.754 61.1234 81.4547C61.2408 81.2805 61.2408 81.2805 61.2148 80.9819C61.1014 80.5794 61.0239 80.5066 60.666 80.2926C59.979 79.9555 59.2741 79.6924 58.551 79.4438C57.2064 78.9696 55.9183 78.4801 54.8125 77.5583C54.7518 77.509 54.691 77.4598 54.6285 77.4091C53.9507 76.8039 53.5708 75.9441 53.5102 75.0489C53.486 73.7594 53.7194 72.7004 54.6296 71.7249C56.9981 69.6328 61.1111 69.6107 63.5928 71.5426Z" fill="#191919"/>
<path d="M76.7973 71.6238C77.5529 72.3095 78.0208 73.0799 78.1024 74.0983C78.1464 75.136 78.1497 76.067 77.495 76.9202C77.4448 76.9881 77.3946 77.056 77.3428 77.126C77.1978 77.3076 77.1978 77.3076 76.9463 77.5582C76.8859 77.5582 76.8255 77.5582 76.7633 77.5582C76.8043 77.6024 76.8452 77.6466 76.8873 77.6921C77.7224 78.6148 78.0772 79.3288 78.0838 80.5775C78.0883 80.7248 78.0883 80.7248 78.0929 80.8751C78.0992 81.8164 77.7778 82.6933 77.1292 83.3916C75.7243 84.7089 74.029 85.1054 72.1617 85.0835C72.0916 85.0831 72.0215 85.0828 71.9493 85.0824C70.8742 85.0747 69.8994 84.9948 68.8976 84.5765C68.7935 84.5337 68.6894 84.4909 68.5822 84.4469C67.4527 83.9319 66.6562 83.1168 66.2052 81.956C65.9903 81.2986 65.9903 81.2986 66.0623 80.9306C66.2031 80.737 66.2031 80.737 66.4282 80.5661C66.6805 80.5287 66.8958 80.5127 67.1481 80.5144C67.2175 80.5139 67.287 80.5133 67.3585 80.5127C67.5051 80.5121 67.6517 80.5124 67.7983 80.5135C68.022 80.5148 68.2454 80.5117 68.4691 80.5082C68.6118 80.5081 68.7545 80.5083 68.8973 80.5087C68.9638 80.5075 69.0303 80.5063 69.0988 80.5051C69.4581 80.5116 69.6127 80.5524 69.8934 80.7829C70.0178 80.9367 70.1379 81.0941 70.2524 81.2554C70.6307 81.6755 71.1731 81.8953 71.7337 81.9518C72.4232 81.967 73.1981 81.8324 73.7451 81.3864C74.0233 80.9754 74.1048 80.5941 74.0195 80.1103C73.8455 79.7427 73.713 79.5965 73.3564 79.3983C72.5489 79.1434 71.6948 79.1736 70.8553 79.1597C70.7605 79.1569 70.6656 79.1541 70.5679 79.1512C70.482 79.1494 70.3961 79.1475 70.3077 79.1457C70.0866 79.1077 70.0866 79.1077 69.9216 79.0018C69.766 78.7634 69.7767 78.5817 69.7758 78.2988C69.7755 78.194 69.7751 78.0892 69.7747 77.9812C69.7758 77.8717 69.7769 77.7622 69.7779 77.6494C69.7769 77.5399 69.7758 77.4304 69.7747 77.3176C69.7751 77.2128 69.7754 77.108 69.7758 77C69.7761 76.9039 69.7764 76.8078 69.7767 76.7087C69.8122 76.4645 69.8122 76.4645 69.9166 76.2968C70.1626 76.1438 70.3593 76.1543 70.6479 76.1508C70.8149 76.1472 70.8149 76.1472 70.9854 76.1435C71.1019 76.1423 71.2184 76.1411 71.3385 76.1398C72.758 76.1563 72.758 76.1563 73.928 75.4619C74.0971 75.1249 74.0499 74.7367 74.0195 74.3681C73.8923 74.0038 73.7161 73.8806 73.385 73.7073C72.7197 73.3956 71.9429 73.3349 71.2278 73.5147C71.0578 73.5792 70.8919 73.654 70.7269 73.7301C70.6363 73.7602 70.5458 73.7903 70.4525 73.8213C70.3531 73.9883 70.3531 73.9883 70.2696 74.1859C70.193 74.314 70.1148 74.4412 70.0352 74.5675C69.9955 74.6309 69.9557 74.6942 69.9148 74.7594C69.8122 74.915 69.8122 74.915 69.7208 75.0062C69.4735 75.0188 69.2287 75.0256 68.9812 75.0279C68.9069 75.0286 68.8326 75.0294 68.756 75.0301C68.5984 75.0314 68.4407 75.0324 68.2831 75.0331C68.0418 75.0346 67.8006 75.0386 67.5593 75.0427C67.4064 75.0436 67.2535 75.0444 67.1005 75.045C67.0282 75.0466 66.9559 75.0482 66.8814 75.0498C66.3823 75.0478 66.3823 75.0478 66.1539 74.8392C65.9236 74.3423 66.0802 73.8206 66.2417 73.3242C66.4021 72.9323 66.6281 72.6065 66.8855 72.2718C66.956 72.1773 66.956 72.1773 67.028 72.081C69.1719 69.4168 74.3155 69.6518 76.7973 71.6238Z" fill="#191919"/>
<path d="M53.3612 25.3687C53.9263 25.8092 54.1924 26.3142 54.298 27.0189C54.3312 27.6776 54.1717 28.298 53.7331 28.8023C53.1225 29.3647 52.5402 29.5862 51.7085 29.5614C50.9762 29.4646 50.4467 29.0874 49.996 28.5178C49.6171 27.9663 49.6252 27.3466 49.6906 26.6988C49.8516 26.0407 50.2322 25.6149 50.7881 25.2405C51.617 24.7744 52.5799 24.8553 53.3612 25.3687Z" fill="#191919"/>
</g>
<defs>
<clipPath id="clip0_2377_9176">
<rect width="55.1515" height="70" fill="white" transform="translate(22.8923 15.0322)"/>
</clipPath>
</defs>
</svg>
