<svg width="101" height="101" viewBox="0 0 101 101" fill="none" xmlns="http://www.w3.org/2000/svg">
<g clip-path="url(#clip0_2377_9095)">
<g clip-path="url(#clip1_2377_9095)">
<path fill-rule="evenodd" clip-rule="evenodd" d="M49.5332 58.3162H50.1454L53.2988 62.6862V58.3162H53.8453V63.6184H53.3318L50.073 59.1095V63.6184H49.5332V58.3162ZM55.1948 58.3162H58.684V58.8517H55.7478V60.6103H58.6115V61.1392H55.7478V63.1094H58.7103V63.625H55.1948V58.3162ZM59.5332 58.8583V58.3294H64.0691V58.8583H62.0809V63.6316H61.5082V58.8583H59.5332ZM64.7472 58.3162H65.3331L66.7221 62.6995L68.1441 58.3162H68.6313L70.0467 62.6995L71.4489 58.3162H71.9953L70.2969 63.6647H69.7965L68.3614 59.2351L66.946 63.6647H66.4588L64.7472 58.3162ZM72.4957 60.9673C72.4957 59.0831 73.4568 58.2302 75.1487 58.2302C76.8472 58.2302 77.8216 59.0831 77.8216 60.9673C77.8216 62.8647 76.8472 63.7044 75.1487 63.7044C73.4568 63.7176 72.4957 62.8647 72.4957 60.9673ZM77.2488 60.9805C77.2488 59.5393 76.5839 58.7724 75.1487 58.7724C73.7202 58.7724 73.0618 59.5393 73.0618 60.9805C73.0618 62.4152 73.7202 63.2019 75.1487 63.2019C76.5839 63.1887 77.2488 62.4152 77.2488 60.9805ZM81.0869 61.4565H79.5069V63.6184H78.9473V58.3162H81.2251C82.4496 58.3162 83.0092 58.8054 83.0092 59.8632C83.0092 60.7822 82.5747 61.3177 81.6596 61.4433L82.9368 63.6184H82.3377L81.0869 61.4565ZM81.258 60.9409C82.0085 60.9409 82.4693 60.7161 82.4693 59.8764C82.4693 59.0566 82.0217 58.8451 81.2317 58.8451H79.5069V60.9541H81.258V60.9409ZM85.8334 60.8152L84.7735 61.9722V63.6383H84.2337V58.3294H84.7735V61.2648L87.4463 58.3294H88.098L86.2087 60.3987L88.3614 63.625H87.7228L85.8334 60.8152ZM88.8222 63.0895L89.1185 62.6532C89.757 63.0565 90.3693 63.1821 91.0079 63.1821C92.1073 63.1821 92.5813 62.878 92.5813 62.1507C92.5813 61.397 91.9559 61.2846 91.0079 61.1194C89.869 60.921 89.1053 60.7293 89.1053 59.6517C89.1053 58.6335 89.757 58.2302 91.0079 58.2302C91.8439 58.2302 92.4298 58.4087 92.8446 58.7062L92.5418 59.1624C92.1599 58.9112 91.5938 58.7459 90.9947 58.7459C90.0467 58.7459 89.6451 59.0104 89.6451 59.6384C89.6451 60.3062 90.2047 60.4318 91.1329 60.6169C92.2916 60.8285 93.1211 60.9937 93.1211 62.1375C93.1211 63.1821 92.4562 63.7044 91.0079 63.7044C90.2179 63.6911 89.5069 63.5325 88.8222 63.0895Z" fill="#E4E4E4"/>
<path fill-rule="evenodd" clip-rule="evenodd" d="M100.422 36.4526V38.1318C99.8953 38.0591 99.3094 38.0327 98.6576 38.0327C92.522 38.0327 92.6602 40.8821 92.6602 44.439V56.0153H90.9091V44.439C90.9091 39.7185 91.2317 36.3864 98.6576 36.3864C99.2962 36.3864 99.8821 36.4129 100.422 36.4526ZM46.2811 44.3001V56.0153H44.4838V44.2737C44.4838 40.8953 44.5233 38.0459 38.3482 38.0459C32.2192 38.0459 32.3574 40.8953 32.3574 44.4522V56.0286H30.6063V44.439C30.6063 39.7185 30.9223 36.3864 38.3482 36.3864C45.8202 36.3864 46.2811 39.7318 46.2811 44.3001ZM49.5332 36.803H51.2448V56.0153H49.5332V36.803ZM54.4575 36.803H63.4107C67.861 36.803 69.8689 39.0177 69.8689 42.9581C69.8689 46.9248 67.8742 49.3379 63.3844 49.3379H56.1691V56.0087H54.4575V36.803ZM63.4437 47.6256C66.5444 47.6256 68.0717 46.1183 68.0717 43.044C68.0717 39.9896 66.4193 38.5351 63.3581 38.5351H56.1691V47.6256H63.4437ZM71.8703 46.343C71.8703 40.6706 73.4832 36.3137 80.6984 36.3137C88.1704 36.3137 88.4206 41.3449 88.3811 46.6604H73.5951C73.6346 51.3346 74.7932 54.8253 80.8564 54.8253C84.0822 54.8253 85.5569 53.946 87.1237 52.789L88.1112 54.0848C86.3601 55.3873 84.2863 56.4054 80.8564 56.4054C73.2725 56.4054 71.8703 52.0089 71.8703 46.343ZM73.6346 45.0406H86.6826C86.4983 41.1995 86.2613 37.9335 80.6853 37.9335C75.3199 37.9335 73.8452 40.8557 73.6346 45.0406Z" fill="#E4E4E4"/>
<path d="M11.969 48.4852V36.7766H13.7597V48.5315C13.7597 51.9098 13.7333 54.7593 19.8953 54.7593C26.0243 54.7593 25.8861 51.9098 25.8861 48.3464V36.7766H27.6438V48.3464C27.6438 53.0668 27.3212 56.4055 19.8953 56.4055C12.4233 56.4055 11.969 53.0668 11.969 48.4852ZM0.533875 60.1872V58.5277C0.744539 58.541 0.961788 58.541 1.19879 58.541C7.3344 58.541 7.19615 55.6915 7.19615 52.1346V36.7766H8.9473V52.1346C8.9473 56.8485 8.63131 60.1872 1.19879 60.1872C0.961788 60.1872 0.757706 60.1872 0.533875 60.1872Z" fill="#E4E4E4"/>
<path fill-rule="evenodd" clip-rule="evenodd" d="M96.4983 56.108C95.8334 56.108 95.2936 55.5659 95.2936 54.8981C95.2936 54.2238 95.8334 53.6816 96.4983 53.6816C97.1698 53.6816 97.7096 54.2238 97.7096 54.8981C97.7096 55.5659 97.1698 56.108 96.4983 56.108ZM97.5582 54.8981C97.5582 54.3097 97.0842 53.8337 96.4983 53.8337C95.919 53.8337 95.445 54.3097 95.445 54.8981C95.445 55.4799 95.919 55.9559 96.4983 55.9559C97.0842 55.9559 97.5582 55.4799 97.5582 54.8981ZM96.5839 55.0502H96.1955V55.5791H96.0112V54.1841H96.6234C96.9723 54.1841 97.1106 54.3229 97.1106 54.6006C97.1106 54.8254 97.0118 54.9775 96.7814 55.0237L97.0974 55.5659H96.9065L96.5839 55.0502ZM96.6234 54.8849C96.8209 54.8849 96.9131 54.8254 96.9131 54.6204C96.9131 54.4221 96.8011 54.3692 96.6102 54.3692H96.1757V54.8717H96.6234V54.8849Z" fill="#E4E4E4"/>
</g>
</g>
<defs>
<clipPath id="clip0_2377_9095">
<rect width="100" height="100" fill="white" transform="translate(0.468018 0.0322266)"/>
</clipPath>
<clipPath id="clip1_2377_9095">
<rect width="100" height="27.4368" fill="white" transform="translate(0.468018 36.3137)"/>
</clipPath>
</defs>
</svg>
