<svg width="101" height="101" viewBox="0 0 101 101" fill="none" xmlns="http://www.w3.org/2000/svg">
<g clip-path="url(#clip0_2377_9080)">
<g clip-path="url(#clip1_2377_9080)">
<path fill-rule="evenodd" clip-rule="evenodd" d="M49.5332 59.147H50.1454L53.2988 63.517V59.147H53.8453V64.4492H53.3318L50.073 59.9403V64.4492H49.5332V59.147ZM55.1948 59.147H58.684V59.6825H55.7478V61.4411H58.6115V61.97H55.7478V63.9402H58.7103V64.4558H55.1948V59.147ZM59.5332 59.6891V59.1602H64.0691V59.6891H62.0809V64.4625H61.5082V59.6891H59.5332ZM64.7472 59.147H65.3331L66.7221 63.5303L68.1441 59.147H68.6313L70.0467 63.5303L71.4489 59.147H71.9953L70.2969 64.4955H69.7965L68.3614 60.066L66.946 64.4955H66.4588L64.7472 59.147ZM72.4957 61.7981C72.4957 59.9139 73.4568 59.061 75.1487 59.061C76.8472 59.061 77.8216 59.9139 77.8216 61.7981C77.8216 63.6955 76.8472 64.5352 75.1487 64.5352C73.4568 64.5484 72.4957 63.6955 72.4957 61.7981ZM77.2488 61.8113C77.2488 60.3701 76.5839 59.6032 75.1487 59.6032C73.7202 59.6032 73.0618 60.3701 73.0618 61.8113C73.0618 63.246 73.7202 64.0327 75.1487 64.0327C76.5839 64.0195 77.2488 63.246 77.2488 61.8113ZM81.0869 62.2873H79.5069V64.4492H78.9473V59.147H81.2251C82.4496 59.147 83.0092 59.6362 83.0092 60.694C83.0092 61.613 82.5747 62.1485 81.6596 62.2741L82.9368 64.4492H82.3377L81.0869 62.2873ZM81.258 61.7717C82.0085 61.7717 82.4693 61.5469 82.4693 60.7072C82.4693 59.8874 82.0217 59.6759 81.2317 59.6759H79.5069V61.7849H81.258V61.7717ZM85.8334 61.646L84.7735 62.803V64.4691H84.2337V59.1602H84.7735V62.0956L87.4463 59.1602H88.098L86.2087 61.2295L88.3614 64.4558H87.7228L85.8334 61.646ZM88.8222 63.9203L89.1185 63.484C89.757 63.8873 90.3693 64.0129 91.0079 64.0129C92.1073 64.0129 92.5813 63.7088 92.5813 62.9815C92.5813 62.2278 91.9559 62.1154 91.0079 61.9502C89.869 61.7518 89.1053 61.5601 89.1053 60.4825C89.1053 59.4643 89.757 59.061 91.0079 59.061C91.8439 59.061 92.4298 59.2395 92.8446 59.537L92.5418 59.9932C92.1599 59.742 91.5938 59.5767 90.9947 59.5767C90.0467 59.5767 89.6451 59.8412 89.6451 60.4692C89.6451 61.137 90.2047 61.2626 91.1329 61.4477C92.2916 61.6593 93.1211 61.8246 93.1211 62.9683C93.1211 64.0129 92.4562 64.5352 91.0079 64.5352C90.2179 64.522 89.5069 64.3633 88.8222 63.9203Z" fill="#191919"/>
<path fill-rule="evenodd" clip-rule="evenodd" d="M100.422 37.2834V38.9626C99.8953 38.8899 99.3094 38.8635 98.6576 38.8635C92.522 38.8635 92.6602 41.7129 92.6602 45.2698V56.8462H90.9091V45.2698C90.9091 40.5493 91.2317 37.2173 98.6576 37.2173C99.2962 37.2173 99.8821 37.2437 100.422 37.2834ZM46.2811 45.131V56.8462H44.4838V45.1045C44.4838 41.7262 44.5233 38.8767 38.3482 38.8767C32.2192 38.8767 32.3574 41.7262 32.3574 45.283V56.8594H30.6063V45.2698C30.6063 40.5493 30.9223 37.2173 38.3482 37.2173C45.8202 37.2173 46.2811 40.5626 46.2811 45.131ZM49.5332 37.6338H51.2448V56.8462H49.5332V37.6338ZM54.4575 37.6338H63.4107C67.861 37.6338 69.8689 39.8485 69.8689 43.7889C69.8689 47.7556 67.8742 50.1688 63.3844 50.1688H56.1691V56.8395H54.4575V37.6338ZM63.4437 48.4564C66.5444 48.4564 68.0717 46.9491 68.0717 43.8748C68.0717 40.8204 66.4193 39.3659 63.3581 39.3659H56.1691V48.4564H63.4437ZM71.8703 47.1738C71.8703 41.5014 73.4832 37.1445 80.6984 37.1445C88.1704 37.1445 88.4206 42.1757 88.3811 47.4912H73.5951C73.6346 52.1654 74.7932 55.6561 80.8564 55.6561C84.0822 55.6561 85.5569 54.7768 87.1237 53.6198L88.1112 54.9157C86.3601 56.2181 84.2863 57.2362 80.8564 57.2362C73.2725 57.2362 71.8703 52.8397 71.8703 47.1738ZM73.6346 45.8714H86.6826C86.4983 42.0303 86.2613 38.7643 80.6853 38.7643C75.3199 38.7643 73.8452 41.6865 73.6346 45.8714Z" fill="#191919"/>
<path d="M11.969 49.316V37.6074H13.7597V49.3623C13.7597 52.7406 13.7333 55.5901 19.8953 55.5901C26.0243 55.5901 25.8861 52.7406 25.8861 49.1772V37.6074H27.6438V49.1772C27.6438 53.8976 27.3212 57.2363 19.8953 57.2363C12.4233 57.2363 11.969 53.8976 11.969 49.316ZM0.533875 61.018V59.3585C0.744539 59.3718 0.961788 59.3718 1.19879 59.3718C7.3344 59.3718 7.19615 56.5223 7.19615 52.9654V37.6074H8.9473V52.9654C8.9473 57.6793 8.63131 61.018 1.19879 61.018C0.961788 61.018 0.757706 61.018 0.533875 61.018Z" fill="#191919"/>
<path fill-rule="evenodd" clip-rule="evenodd" d="M96.4983 56.9388C95.8334 56.9388 95.2936 56.3967 95.2936 55.7289C95.2936 55.0546 95.8334 54.5125 96.4983 54.5125C97.1698 54.5125 97.7096 55.0546 97.7096 55.7289C97.7096 56.3967 97.1698 56.9388 96.4983 56.9388ZM97.5582 55.7289C97.5582 55.1405 97.0842 54.6645 96.4983 54.6645C95.919 54.6645 95.445 55.1405 95.445 55.7289C95.445 56.3107 95.919 56.7867 96.4983 56.7867C97.0842 56.7867 97.5582 56.3107 97.5582 55.7289ZM96.5839 55.881H96.1955V56.4099H96.0112V55.0149H96.6234C96.9723 55.0149 97.1106 55.1537 97.1106 55.4314C97.1106 55.6562 97.0118 55.8083 96.7814 55.8545L97.0974 56.3967H96.9065L96.5839 55.881ZM96.6234 55.7157C96.8209 55.7157 96.9131 55.6562 96.9131 55.4513C96.9131 55.2529 96.8011 55.2 96.6102 55.2H96.1757V55.7025H96.6234V55.7157Z" fill="#191919"/>
</g>
</g>
<defs>
<clipPath id="clip0_2377_9080">
<rect width="100" height="100" fill="white" transform="translate(0.468018 0.863037)"/>
</clipPath>
<clipPath id="clip1_2377_9080">
<rect width="100" height="27.4368" fill="white" transform="translate(0.468018 37.1445)"/>
</clipPath>
</defs>
</svg>
