<svg width="101" height="101" viewBox="0 0 101 101" fill="none" xmlns="http://www.w3.org/2000/svg">
<g clip-path="url(#clip0_2377_9138)">
<g clip-path="url(#clip1_2377_9138)">
<path d="M0.468018 55.5411V40.7458H4.12418V52.4325H9.8418V55.5411H0.468018Z" fill="#E4E4E4"/>
<path d="M28.4338 43.4806V47.4745H31.7788C33.0818 47.4745 33.743 46.8056 33.743 45.4874C33.743 44.1495 33.1013 43.5003 31.7788 43.5003H28.4338V43.4806ZM24.7776 55.5411V40.7458H32.09C35.6295 40.7458 37.3992 42.3592 37.3992 45.6055C37.3992 46.5695 37.1269 47.3958 36.5824 48.1041C36.0379 48.8124 35.2988 49.3239 34.3848 49.5994L37.7298 55.5411H33.6458L30.7675 50.2093H28.4338V55.5411H24.7776Z" fill="#E4E4E4"/>
<path d="M45.6644 50.9372V50.1699L43.5057 50.7995C42.475 51.0946 41.9693 51.5668 41.9693 52.2357C41.9693 53.062 42.475 53.4752 43.4668 53.4752C44.128 53.4752 44.6531 53.2588 45.0615 52.8259C45.4505 52.3734 45.6644 51.7438 45.6644 50.9372ZM48.7371 47.3958V53.2391C48.7371 54.2818 48.8344 55.0491 49.0288 55.541H46.0728C45.9561 55.1869 45.8978 54.8131 45.8783 54.3999H45.8394C45.5866 54.8131 45.1004 55.1672 44.4197 55.4426C43.7974 55.6984 43.1751 55.8361 42.5528 55.8361C41.4637 55.8361 40.608 55.5607 39.9468 54.9901C39.2467 54.3999 38.8966 53.5736 38.8966 52.5505C38.8966 51.2913 39.4022 50.3273 40.3941 49.678C41.2498 49.1271 42.6111 48.714 44.4975 48.4582L45.6644 48.3008V47.3761C45.6644 46.5891 45.1588 46.1956 44.1475 46.1956C43.6224 46.1956 43.2334 46.3137 42.9806 46.5301C42.7278 46.7465 42.5528 47.14 42.475 47.6712H39.3633C39.4217 45.3496 40.9386 44.2085 43.8752 44.2085C45.4699 44.2085 46.6562 44.4249 47.4341 44.8774C48.3093 45.3693 48.7371 46.2153 48.7371 47.3958Z" fill="#E4E4E4"/>
<path d="M16.8041 46.668C15.9289 46.668 15.2677 46.9827 14.8204 47.632C14.412 48.2222 14.1981 49.0092 14.1981 50.0126C14.1981 51.016 14.412 51.803 14.8204 52.3932C15.2677 53.0425 15.9289 53.3573 16.8041 53.3573C18.5543 53.3573 19.41 52.1965 19.41 49.8749C19.41 48.9305 19.1961 48.1632 18.7877 47.5927C18.3404 46.9827 17.6792 46.668 16.8041 46.668ZM16.8041 44.189C18.5543 44.189 19.9546 44.7005 21.0242 45.7236C22.0938 46.7466 22.6189 48.1829 22.6189 50.0126C22.6189 51.8423 22.0938 53.2786 21.0242 54.3017C19.9546 55.3247 18.5543 55.8363 16.8041 55.8363C15.0538 55.8363 13.6535 55.3247 12.5839 54.3017C11.5143 53.2786 10.9892 51.8423 10.9892 50.0126C10.9892 48.1829 11.5143 46.7466 12.5839 45.7236C13.673 44.7005 15.0732 44.189 16.8041 44.189Z" fill="#E4E4E4"/>
<path d="M16.7069 41.9853C18.3016 41.9853 19.799 42.4575 21.0437 43.2838L21.666 42.3788C20.2269 41.4344 18.5349 40.8835 16.7069 40.8835C14.9566 40.8835 13.323 41.3951 11.9227 42.2608L12.5451 43.1658C13.7703 42.3985 15.1899 41.9853 16.7069 41.9853Z" fill="#E4E4E4"/>
<path d="M9.97791 39.4277L10.8142 40.6278C12.5256 39.5261 14.5481 38.8965 16.7068 38.8965C18.9627 38.8965 21.0436 39.5851 22.7939 40.7459L23.6302 39.5457C21.6465 38.2079 19.2545 37.4209 16.7068 37.4209C14.2369 37.4209 11.9227 38.1685 9.97791 39.4277Z" fill="#E4E4E4"/>
<path d="M16.7069 35.7486C19.624 35.7486 22.3272 36.6339 24.6026 38.1685L25.6528 36.6536C23.1052 34.9026 20.013 33.8992 16.7069 33.8992C13.498 33.8992 10.4836 34.8632 7.97485 36.5159L9.02503 38.0308C11.2421 36.5946 13.8675 35.7486 16.7069 35.7486Z" fill="#E4E4E4"/>
<path d="M16.9208 58.079C15.3261 58.079 13.8286 57.6068 12.5839 56.7805L11.9616 57.6855C13.4007 58.6299 15.0927 59.1808 16.9402 59.1808C18.6905 59.1808 20.3241 58.6693 21.7243 57.8036L21.102 56.8986C19.8574 57.6659 18.4377 58.079 16.9208 58.079Z" fill="#E4E4E4"/>
<path d="M23.6497 60.6368L22.8134 59.4366C21.102 60.5384 19.0794 61.168 16.9208 61.168C14.6648 61.168 12.5839 60.4794 10.8336 59.3186L9.99738 60.5187C11.981 61.8566 14.3537 62.6436 16.9208 62.6436C19.3906 62.6436 21.7049 61.896 23.6497 60.6368Z" fill="#E4E4E4"/>
<path d="M16.9208 64.316C14.0036 64.316 11.3004 63.4306 9.02503 61.896L7.97485 63.4109C10.5225 65.1423 13.6147 66.1654 16.9208 66.1654C20.1297 66.1654 23.144 65.2013 25.6528 63.5487L24.6026 62.0337C22.3856 63.47 19.7407 64.316 16.9208 64.316Z" fill="#E4E4E4"/>
<path fill-rule="evenodd" clip-rule="evenodd" d="M50.9736 40.6672H54.5326V48.9895L60.2113 40.6672C60.2113 40.6672 62.0977 40.6672 63.0506 40.6672C63.0506 43.4217 63.0506 48.9895 63.0506 48.9895L68.7294 40.6672H72.9884L63.0506 55.4428H59.4917V48.2616L54.5326 55.4428H50.9931V40.6672H50.9736Z" fill="#E4E4E4"/>
<path fill-rule="evenodd" clip-rule="evenodd" d="M94.5559 40.6672V55.4428H90.7636L85.6489 47.691V55.4428H82.1483V40.6672H85.785L91.0165 48.7928V40.6672H94.5559Z" fill="#E4E4E4"/>
<path fill-rule="evenodd" clip-rule="evenodd" d="M79.5617 40.6672V55.4428H76.1V53.3179H71.2965L69.8379 55.4625H65.7733L75.9639 40.6869H79.5617V40.6672ZM73.3579 50.2684H76.1V46.1958L73.3579 50.2684Z" fill="#E4E4E4"/>
<path d="M100.468 42.8313C100.468 43.9527 99.5929 44.8381 98.4649 44.8381C97.3369 44.8381 96.4618 43.9527 96.4618 42.8313C96.4618 41.7295 97.3564 40.8638 98.4649 40.8638C99.5929 40.8442 100.468 41.7295 100.468 42.8313ZM96.948 42.8313C96.948 43.7166 97.5898 44.4053 98.4649 44.4053C99.3206 44.4053 99.9624 43.697 99.9624 42.8313C99.9624 41.9459 99.34 41.2377 98.4649 41.2377C97.5898 41.2377 96.948 41.9459 96.948 42.8313ZM98.1537 43.8544H97.7064V41.8869C97.8815 41.8476 98.1343 41.8279 98.4649 41.8279C98.8344 41.8279 99.0094 41.8869 99.1456 41.9656C99.2623 42.0443 99.34 42.2017 99.34 42.3985C99.34 42.6149 99.165 42.7919 98.9316 42.851V42.8706C99.1261 42.9493 99.2234 43.0871 99.2817 43.3428C99.34 43.638 99.3789 43.756 99.4178 43.8347H98.9316C98.8733 43.756 98.8344 43.5789 98.7761 43.3625C98.7372 43.1461 98.6205 43.0477 98.3677 43.0477H98.1537V43.8544ZM98.1732 42.7329H98.3871C98.6399 42.7329 98.8344 42.6542 98.8344 42.4378C98.8344 42.2607 98.6983 42.1427 98.426 42.1427C98.3093 42.1427 98.2315 42.1624 98.1732 42.1624V42.7329Z" fill="#E4E4E4"/>
</g>
</g>
<defs>
<clipPath id="clip0_2377_9138">
<rect width="100" height="100" fill="white" transform="translate(0.468018 0.0322266)"/>
</clipPath>
<clipPath id="clip1_2377_9138">
<rect width="100" height="32.6203" fill="white" transform="translate(0.468018 33.7222)"/>
</clipPath>
</defs>
</svg>
