<svg width="101" height="101" viewBox="0 0 101 101" fill="none" xmlns="http://www.w3.org/2000/svg">
<g clip-path="url(#clip0_2377_9118)">
<g clip-path="url(#clip1_2377_9118)">
<path d="M0.468018 56.3719V41.5767H4.12418V53.2633H9.8418V56.3719H0.468018Z" fill="#191919"/>
<path d="M28.4338 44.3114V48.3053H31.7788C33.0818 48.3053 33.743 47.6364 33.743 46.3182C33.743 44.9803 33.1013 44.3311 31.7788 44.3311H28.4338V44.3114ZM24.7776 56.3719V41.5767H32.09C35.6295 41.5767 37.3992 43.19 37.3992 46.4363C37.3992 47.4003 37.1269 48.2266 36.5824 48.9349C36.0379 49.6432 35.2988 50.1547 34.3848 50.4302L37.7298 56.3719H33.6458L30.7675 51.0401H28.4338V56.3719H24.7776Z" fill="#191919"/>
<path d="M45.6644 51.768V51.0007L43.5057 51.6303C42.475 51.9254 41.9693 52.3976 41.9693 53.0665C41.9693 53.8928 42.475 54.306 43.4668 54.306C44.128 54.306 44.6531 54.0896 45.0615 53.6567C45.4505 53.2042 45.6644 52.5746 45.6644 51.768ZM48.7371 48.2266V54.0699C48.7371 55.1127 48.8344 55.88 49.0288 56.3718H46.0728C45.9561 56.0177 45.8978 55.6439 45.8783 55.2307H45.8394C45.5866 55.6439 45.1004 55.998 44.4197 56.2734C43.7974 56.5292 43.1751 56.6669 42.5528 56.6669C41.4637 56.6669 40.608 56.3915 39.9468 55.8209C39.2467 55.2307 38.8966 54.4044 38.8966 53.3813C38.8966 52.1221 39.4022 51.1581 40.3941 50.5088C41.2498 49.9579 42.6111 49.5448 44.4975 49.289L45.6644 49.1316V48.2069C45.6644 47.4199 45.1588 47.0264 44.1475 47.0264C43.6224 47.0264 43.2334 47.1445 42.9806 47.3609C42.7278 47.5773 42.5528 47.9708 42.475 48.502H39.3633C39.4217 46.1804 40.9386 45.0393 43.8752 45.0393C45.4699 45.0393 46.6562 45.2557 47.4341 45.7082C48.3093 46.2001 48.7371 47.0461 48.7371 48.2266Z" fill="#191919"/>
<path d="M16.8041 47.4988C15.9289 47.4988 15.2677 47.8136 14.8204 48.4628C14.412 49.053 14.1981 49.84 14.1981 50.8434C14.1981 51.8468 14.412 52.6338 14.8204 53.224C15.2677 53.8733 15.9289 54.1881 16.8041 54.1881C18.5543 54.1881 19.41 53.0273 19.41 50.7057C19.41 49.7613 19.1961 48.994 18.7877 48.4235C18.3404 47.8136 17.6792 47.4988 16.8041 47.4988ZM16.8041 45.0198C18.5543 45.0198 19.9546 45.5313 21.0242 46.5544C22.0938 47.5775 22.6189 49.0137 22.6189 50.8434C22.6189 52.6732 22.0938 54.1094 21.0242 55.1325C19.9546 56.1555 18.5543 56.6671 16.8041 56.6671C15.0538 56.6671 13.6535 56.1555 12.5839 55.1325C11.5143 54.1094 10.9892 52.6732 10.9892 50.8434C10.9892 49.0137 11.5143 47.5775 12.5839 46.5544C13.673 45.5313 15.0732 45.0198 16.8041 45.0198Z" fill="#191919"/>
<path d="M16.7069 42.8161C18.3016 42.8161 19.799 43.2883 21.0437 44.1146L21.666 43.2096C20.2269 42.2652 18.5349 41.7144 16.7069 41.7144C14.9566 41.7144 13.323 42.2259 11.9227 43.0916L12.5451 43.9966C13.7703 43.2293 15.1899 42.8161 16.7069 42.8161Z" fill="#191919"/>
<path d="M9.97791 40.2585L10.8142 41.4587C12.5256 40.3569 14.5481 39.7273 16.7068 39.7273C18.9627 39.7273 21.0436 40.4159 22.7939 41.5767L23.6302 40.3766C21.6465 39.0387 19.2545 38.2517 16.7068 38.2517C14.2369 38.2517 11.9227 38.9993 9.97791 40.2585Z" fill="#191919"/>
<path d="M16.7069 36.5794C19.624 36.5794 22.3272 37.4647 24.6026 38.9993L25.6528 37.4844C23.1052 35.7334 20.013 34.73 16.7069 34.73C13.498 34.73 10.4836 35.694 7.97485 37.3467L9.02503 38.8616C11.2421 37.4254 13.8675 36.5794 16.7069 36.5794Z" fill="#191919"/>
<path d="M16.9208 58.9098C15.3261 58.9098 13.8286 58.4377 12.5839 57.6113L11.9616 58.5164C13.4007 59.4607 15.0927 60.0116 16.9402 60.0116C18.6905 60.0116 20.3241 59.5001 21.7243 58.6344L21.102 57.7294C19.8574 58.4967 18.4377 58.9098 16.9208 58.9098Z" fill="#191919"/>
<path d="M23.6497 61.4676L22.8134 60.2675C21.102 61.3692 19.0794 61.9988 16.9208 61.9988C14.6648 61.9988 12.5839 61.3102 10.8336 60.1494L9.99738 61.3496C11.981 62.6874 14.3537 63.4744 16.9208 63.4744C19.3906 63.4744 21.7049 62.7268 23.6497 61.4676Z" fill="#191919"/>
<path d="M16.9208 65.1468C14.0036 65.1468 11.3004 64.2614 9.02503 62.7268L7.97485 64.2417C10.5225 65.9731 13.6147 66.9962 16.9208 66.9962C20.1297 66.9962 23.144 66.0321 25.6528 64.3795L24.6026 62.8645C22.3856 64.3008 19.7407 65.1468 16.9208 65.1468Z" fill="#191919"/>
<path fill-rule="evenodd" clip-rule="evenodd" d="M50.9736 41.498H54.5326V49.8204L60.2113 41.498C60.2113 41.498 62.0977 41.498 63.0506 41.498C63.0506 44.2525 63.0506 49.8204 63.0506 49.8204L68.7294 41.498H72.9884L63.0506 56.2736H59.4917V49.0924L54.5326 56.2736H50.9931V41.498H50.9736Z" fill="#191919"/>
<path fill-rule="evenodd" clip-rule="evenodd" d="M94.5559 41.498V56.2736H90.7636L85.6489 48.5218V56.2736H82.1483V41.498H85.785L91.0165 49.6236V41.498H94.5559Z" fill="#191919"/>
<path fill-rule="evenodd" clip-rule="evenodd" d="M79.5617 41.498V56.2736H76.1V54.1488H71.2965L69.8379 56.2933H65.7733L75.9639 41.5177H79.5617V41.498ZM73.3579 51.0992H76.1V47.0266L73.3579 51.0992Z" fill="#191919"/>
<path d="M100.468 43.6621C100.468 44.7836 99.5929 45.6689 98.4649 45.6689C97.3369 45.6689 96.4618 44.7836 96.4618 43.6621C96.4618 42.5603 97.3564 41.6947 98.4649 41.6947C99.5929 41.675 100.468 42.5603 100.468 43.6621ZM96.948 43.6621C96.948 44.5475 97.5898 45.2361 98.4649 45.2361C99.3206 45.2361 99.9624 44.5278 99.9624 43.6621C99.9624 42.7768 99.34 42.0685 98.4649 42.0685C97.5898 42.0685 96.948 42.7768 96.948 43.6621ZM98.1537 44.6852H97.7064V42.7177C97.8815 42.6784 98.1343 42.6587 98.4649 42.6587C98.8344 42.6587 99.0094 42.7177 99.1456 42.7964C99.2623 42.8751 99.34 43.0325 99.34 43.2293C99.34 43.4457 99.165 43.6228 98.9316 43.6818V43.7015C99.1261 43.7802 99.2234 43.9179 99.2817 44.1736C99.34 44.4688 99.3789 44.5868 99.4178 44.6655H98.9316C98.8733 44.5868 98.8344 44.4097 98.7761 44.1933C98.7372 43.9769 98.6205 43.8785 98.3677 43.8785H98.1537V44.6852ZM98.1732 43.5637H98.3871C98.6399 43.5637 98.8344 43.485 98.8344 43.2686C98.8344 43.0915 98.6983 42.9735 98.426 42.9735C98.3093 42.9735 98.2315 42.9932 98.1732 42.9932V43.5637Z" fill="#191919"/>
</g>
</g>
<defs>
<clipPath id="clip0_2377_9118">
<rect width="100" height="100" fill="white" transform="translate(0.468018 0.863037)"/>
</clipPath>
<clipPath id="clip1_2377_9118">
<rect width="100" height="32.6203" fill="white" transform="translate(0.468018 34.553)"/>
</clipPath>
</defs>
</svg>
