<svg width="101" height="101" viewBox="0 0 101 101" fill="none" xmlns="http://www.w3.org/2000/svg">
<g clip-path="url(#clip0_2377_9114)">
<path d="M3.0834 61.3914C2.20694 61.4043 1.33626 61.2476 0.5193 60.9299V59.5965C1.35232 59.8621 2.21232 60.0341 3.0834 60.1093C3.90391 60.1093 4.77571 59.9555 4.77571 58.9299C4.77571 58.1606 4.21161 57.9555 3.49366 57.7504L2.77571 57.5965C1.90391 57.3401 0.468018 56.9811 0.468018 55.2376C0.468018 53.2888 2.05776 52.8273 3.69879 52.8273C4.49364 52.7971 5.28436 52.9553 6.00648 53.2888V54.5709C5.26199 54.2451 4.46007 54.0707 3.6475 54.0581C2.62186 54.0581 1.9552 54.2632 1.9552 55.135C1.9552 55.9042 2.57058 56.1093 3.28853 56.2632L4.05776 56.5196C5.03212 56.776 6.21161 57.3401 6.21161 58.8786C6.26289 60.8273 4.82699 61.3914 3.0834 61.3914ZM11.8014 61.3914C13.3398 61.3914 15.6475 60.9299 15.6475 57.0837C15.6475 53.2888 13.2885 52.776 11.8014 52.776C10.2116 52.776 7.9552 53.3914 7.9552 57.0837C7.9552 60.8786 10.1603 61.3914 11.8014 61.3914ZM11.8014 53.9555C12.6731 53.9555 14.109 54.1606 14.109 57.0837C14.109 59.9042 12.5706 60.2119 11.8014 60.2119C11.186 60.2119 9.49366 60.0068 9.49366 57.0837C9.49366 54.2119 10.9296 53.9555 11.8014 53.9555ZM17.6475 61.2376H19.186V50.2119H17.6475V61.2376ZM28.2629 61.2376V55.6478C28.2629 53.494 27.0321 52.8273 25.186 52.8273C24.1191 52.8394 23.0617 53.0301 22.0578 53.3914V54.6735C22.9837 54.3511 23.9505 54.1612 24.9296 54.1093C26.0065 54.1093 26.6219 54.3658 26.6219 55.4427V56.1606H24.7757C23.4424 56.1606 21.2885 56.6222 21.2885 58.8786C21.2885 60.9811 22.6731 61.4427 23.9552 61.4427C24.9951 61.4381 25.9837 60.9905 26.6731 60.2119L26.827 61.2888L28.2629 61.2376ZM26.7244 59.0837C26.7244 59.0837 25.5962 60.1606 24.468 60.1606C23.6475 60.1606 22.9808 59.8529 22.9808 58.776C22.9808 57.4427 23.8013 57.0837 25.2372 57.0324H26.7244V59.0837ZM33.9039 54.2119C34.3446 54.2056 34.7816 54.293 35.186 54.4683V53.0324C34.8346 52.8656 34.4453 52.7948 34.0578 52.8273C33.2128 52.835 32.4506 53.3365 32.109 54.1093L31.9039 52.9811H30.7244V61.2376H32.2629V55.1863C32.2629 55.1863 32.9808 54.2119 33.9039 54.2119ZM49.6988 52.9299H47.9552L46.9808 57.6991C46.7244 58.9299 46.468 60.5196 46.468 60.5196C46.468 60.5196 46.109 58.776 45.8013 57.6991L44.3654 52.9299H42.109L40.6731 57.6991C40.3654 58.776 40.0065 60.5196 40.0065 60.5196C40.0065 60.5196 39.7501 58.8273 39.4937 57.6991L38.468 52.9299H36.6731L38.9296 61.2376H41.0834L42.3655 56.8273C42.6731 55.6991 43.2372 53.7504 43.2372 53.7504C43.2372 53.7504 43.7501 55.6991 44.0578 56.8786L45.3398 61.2888H47.4937L49.6988 52.9299ZM51.6475 61.2376H53.186V52.8786H51.6475V61.2376ZM62.9808 61.2376V55.5965C62.9808 53.494 61.8013 52.8273 60.3142 52.8273C59.1495 52.9005 58.0453 53.3711 57.186 54.1606L56.8783 52.9811H55.6988V61.2376H57.2372V55.1863C58.0281 54.5943 58.9705 54.2387 59.9552 54.1606C61.0321 54.1606 61.4424 54.5709 61.4424 55.5965V61.2376H62.9808ZM72.3142 61.2376V50.2119H70.7757V53.5965C70.1831 53.034 69.3867 52.7377 68.5706 52.776C67.4424 52.776 64.827 53.2888 64.827 57.0837C64.827 60.776 66.9808 61.3914 68.2629 61.3914C69.2838 61.4187 70.2629 60.9856 70.9296 60.2119L71.0834 61.2376H72.3142ZM70.7757 59.1863C70.1614 59.7349 69.3898 60.0758 68.5706 60.1606C67.5962 60.1606 66.3654 59.8529 66.3654 57.0837C66.3654 54.4683 67.5449 54.0581 68.7244 54.0581C69.482 54.0885 70.2062 54.3781 70.7757 54.8786V59.1863ZM77.1347 61.3914C78.8783 61.3914 80.2629 60.8786 80.2629 58.8786C80.2629 57.3401 79.0321 56.776 78.109 56.5196L77.2885 56.3145C76.5706 56.1093 75.9552 55.9555 75.9552 55.1863C75.9552 54.3145 76.6219 54.1093 77.6475 54.1093C78.4601 54.122 79.262 54.2963 80.0065 54.6222V53.3401C79.2844 53.0066 78.4936 52.8484 77.6988 52.8786C76.0578 52.8786 74.468 53.3401 74.468 55.2888C74.468 57.0324 75.9039 57.3914 76.7757 57.6478L77.4424 57.8529C78.1603 58.0581 78.7244 58.2119 78.7244 59.0324C78.7244 60.0581 77.9039 60.2119 77.0321 60.2119C76.161 60.1367 75.301 59.9647 74.468 59.6991V61.0324C74.5193 60.9299 75.5962 61.3914 77.1347 61.3914Z" fill="#E4E4E4"/>
<path d="M87.5449 47.9041C86.4167 48.2118 85.2885 48.4682 84.1603 48.8272C81.8358 46.7332 78.9114 45.4235 75.8013 45.0836C80.4066 41.7766 85.9267 39.9843 91.5962 39.9554L89.6475 41.7503C89.6475 41.7503 97.9039 41.4426 99.9552 38.6221C99.8935 38.9191 99.8077 39.2107 99.6988 39.4939C99.1112 41.1693 98.0624 42.6447 96.6731 43.7503C95.3758 44.765 93.9432 45.5935 92.4167 46.2118C90.8986 46.8742 89.3399 47.4395 87.75 47.9041C87.6988 47.8528 87.5962 47.9041 87.5449 47.9041ZM100.468 47.6477C95.2323 47.4104 89.9945 48.0695 84.9808 49.5964C86.0403 50.7021 86.9225 51.9649 87.5962 53.34C91.7501 51.0323 97.4936 48.058 100.468 47.6477ZM88.109 54.5195C88.6024 55.7853 88.9132 57.1149 89.0321 58.4682L96.2629 51.0323L88.109 54.5195Z" fill="#E4E4E4"/>
</g>
<defs>
<clipPath id="clip0_2377_9114">
<rect width="100" height="100" fill="white" transform="translate(0.468018 0.0322266)"/>
</clipPath>
</defs>
</svg>
