<svg width="101" height="101" viewBox="0 0 101 101" fill="none" xmlns="http://www.w3.org/2000/svg">
<g clip-path="url(#clip0_2377_9110)">
<path d="M3.0834 62.2222C2.20694 62.2351 1.33626 62.0784 0.5193 61.7607V60.4273C1.35232 60.6929 2.21232 60.8649 3.0834 60.9402C3.90391 60.9402 4.77571 60.7863 4.77571 59.7607C4.77571 58.9914 4.21161 58.7863 3.49366 58.5812L2.77571 58.4273C1.90391 58.1709 0.468018 57.812 0.468018 56.0684C0.468018 54.1196 2.05776 53.6581 3.69879 53.6581C4.49364 53.628 5.28436 53.7861 6.00648 54.1196V55.4017C5.26199 55.0759 4.46007 54.9015 3.6475 54.8889C2.62186 54.8889 1.9552 55.094 1.9552 55.9658C1.9552 56.735 2.57058 56.9402 3.28853 57.094L4.05776 57.3504C5.03212 57.6068 6.21161 58.1709 6.21161 59.7094C6.26289 61.6581 4.82699 62.2222 3.0834 62.2222ZM11.8014 62.2222C13.3398 62.2222 15.6475 61.7607 15.6475 57.9145C15.6475 54.1196 13.2885 53.6068 11.8014 53.6068C10.2116 53.6068 7.9552 54.2222 7.9552 57.9145C7.9552 61.7094 10.1603 62.2222 11.8014 62.2222ZM11.8014 54.7863C12.6731 54.7863 14.109 54.9914 14.109 57.9145C14.109 60.735 12.5706 61.0427 11.8014 61.0427C11.186 61.0427 9.49366 60.8376 9.49366 57.9145C9.49366 55.0427 10.9296 54.7863 11.8014 54.7863ZM17.6475 62.0684H19.186V51.0427H17.6475V62.0684ZM28.2629 62.0684V56.4786C28.2629 54.3248 27.0321 53.6581 25.186 53.6581C24.1191 53.6702 23.0617 53.8609 22.0578 54.2222V55.5043C22.9837 55.1819 23.9505 54.992 24.9296 54.9402C26.0065 54.9402 26.6219 55.1966 26.6219 56.2735V56.9914H24.7757C23.4424 56.9914 21.2885 57.453 21.2885 59.7094C21.2885 61.812 22.6731 62.2735 23.9552 62.2735C24.9951 62.2689 25.9837 61.8213 26.6731 61.0427L26.827 62.1196L28.2629 62.0684ZM26.7244 59.9145C26.7244 59.9145 25.5962 60.9914 24.468 60.9914C23.6475 60.9914 22.9808 60.6837 22.9808 59.6068C22.9808 58.2735 23.8013 57.9145 25.2372 57.8632H26.7244V59.9145ZM33.9039 55.0427C34.3446 55.0364 34.7816 55.1238 35.186 55.2991V53.8632C34.8346 53.6964 34.4453 53.6257 34.0578 53.6581C33.2128 53.6658 32.4506 54.1673 32.109 54.9402L31.9039 53.812H30.7244V62.0684H32.2629V56.0171C32.2629 56.0171 32.9808 55.0427 33.9039 55.0427ZM49.6988 53.7607H47.9552L46.9808 58.5299C46.7244 59.7607 46.468 61.3504 46.468 61.3504C46.468 61.3504 46.109 59.6068 45.8013 58.5299L44.3654 53.7607H42.109L40.6731 58.5299C40.3654 59.6068 40.0065 61.3504 40.0065 61.3504C40.0065 61.3504 39.7501 59.6581 39.4937 58.5299L38.468 53.7607H36.6731L38.9296 62.0684H41.0834L42.3655 57.6581C42.6731 56.5299 43.2372 54.5812 43.2372 54.5812C43.2372 54.5812 43.7501 56.5299 44.0578 57.7094L45.3398 62.1196H47.4937L49.6988 53.7607ZM51.6475 62.0684H53.186V53.7094H51.6475V62.0684ZM62.9808 62.0684V56.4273C62.9808 54.3248 61.8013 53.6581 60.3142 53.6581C59.1495 53.7313 58.0453 54.202 57.186 54.9914L56.8783 53.812H55.6988V62.0684H57.2372V56.0171C58.0281 55.4252 58.9705 55.0695 59.9552 54.9914C61.0321 54.9914 61.4424 55.4017 61.4424 56.4273V62.0684H62.9808ZM72.3142 62.0684V51.0427H70.7757V54.4273C70.1831 53.8649 69.3867 53.5685 68.5706 53.6068C67.4424 53.6068 64.827 54.1196 64.827 57.9145C64.827 61.6068 66.9808 62.2222 68.2629 62.2222C69.2838 62.2495 70.2629 61.8164 70.9296 61.0427L71.0834 62.0684H72.3142ZM70.7757 60.0171C70.1614 60.5657 69.3898 60.9067 68.5706 60.9914C67.5962 60.9914 66.3654 60.6837 66.3654 57.9145C66.3654 55.2991 67.5449 54.8889 68.7244 54.8889C69.482 54.9193 70.2062 55.2089 70.7757 55.7094V60.0171ZM77.1347 62.2222C78.8783 62.2222 80.2629 61.7094 80.2629 59.7094C80.2629 58.1709 79.0321 57.6068 78.109 57.3504L77.2885 57.1453C76.5706 56.9402 75.9552 56.7863 75.9552 56.0171C75.9552 55.1453 76.6219 54.9402 77.6475 54.9402C78.4601 54.9528 79.262 55.1271 80.0065 55.453V54.1709C79.2844 53.8374 78.4936 53.6792 77.6988 53.7094C76.0578 53.7094 74.468 54.1709 74.468 56.1196C74.468 57.8632 75.9039 58.2222 76.7757 58.4786L77.4424 58.6837C78.1603 58.8889 78.7244 59.0427 78.7244 59.8632C78.7244 60.8889 77.9039 61.0427 77.0321 61.0427C76.161 60.9675 75.301 60.7955 74.468 60.5299V61.8632C74.5193 61.7607 75.5962 62.2222 77.1347 62.2222Z" fill="#191919"/>
<path d="M87.5449 48.7349C86.4167 49.0426 85.2885 49.299 84.1603 49.658C81.8358 47.564 78.9114 46.2543 75.8013 45.9144C80.4066 42.6074 85.9267 40.8151 91.5962 40.7862L89.6475 42.5811C89.6475 42.5811 97.9039 42.2734 99.9552 39.4529C99.8935 39.7499 99.8077 40.0415 99.6988 40.3247C99.1112 42.0001 98.0624 43.4755 96.6731 44.5811C95.3758 45.5958 93.9432 46.4243 92.4167 47.0426C90.8986 47.705 89.3399 48.2703 87.75 48.7349C87.6988 48.6836 87.5962 48.7349 87.5449 48.7349ZM100.468 48.4785C95.2323 48.2412 89.9945 48.9003 84.9808 50.4272C86.0403 51.5329 86.9225 52.7957 87.5962 54.1708C91.7501 51.8631 97.4936 48.8888 100.468 48.4785ZM88.109 55.3503C88.6024 56.6161 88.9132 57.9457 89.0321 59.299L96.2629 51.8631L88.109 55.3503Z" fill="#191919"/>
</g>
<defs>
<clipPath id="clip0_2377_9110">
<rect width="100" height="100" fill="white" transform="translate(0.468018 0.863037)"/>
</clipPath>
</defs>
</svg>
