<svg width="101" height="101" viewBox="0 0 101 101" fill="none" xmlns="http://www.w3.org/2000/svg">
<g clip-path="url(#clip0_2377_9166)">
<g clip-path="url(#clip1_2377_9166)">
<path d="M49.7758 36.5019C50.5843 36.3448 51.4069 36.2489 52.231 36.2454C52.5126 36.2433 52.7618 36.4929 52.7623 36.7737C52.7706 36.9711 52.643 37.1333 52.5484 37.2945C51.6303 38.8007 51.2131 40.5732 51.1823 42.3259C51.1444 43.9766 51.4225 45.6223 51.8988 47.1997C52.0434 47.6589 52.1885 48.119 52.3801 48.5611C68.4079 48.5606 84.4354 48.5616 100.463 48.5611C100.464 48.9248 100.463 49.2884 100.464 49.6521H52.0737C51.8235 49.6722 51.5812 49.5151 51.4963 49.2803C50.7981 47.6397 50.3511 45.893 50.1681 44.1196C49.928 41.8355 50.21 39.4513 51.2527 37.3835C49.5169 37.5359 47.805 38.0982 46.3711 39.0988C44.9519 40.0823 43.8183 41.4431 42.9981 42.9544C42.4369 43.9585 42.0031 45.0304 41.6735 46.1315C41.3768 47.1185 41.1522 48.1292 41.0365 49.1541C41.0107 49.3919 40.8109 49.5986 40.5723 49.6264C40.4302 49.6425 40.2866 49.634 40.1445 49.6354C26.9707 49.6349 13.7974 49.6354 0.623629 49.6349C0.623118 49.2717 0.623629 48.908 0.623118 48.5444C13.7534 48.5433 26.8838 48.5454 40.0141 48.5433C40.3194 46.5132 40.9454 44.5292 41.8908 42.7052C42.6973 41.1733 43.7681 39.759 45.1266 38.6734C46.4663 37.5808 48.0842 36.8453 49.7758 36.5019ZM42.9286 51.781C43.6855 51.284 44.6102 51.1219 45.5025 51.1208C46.3812 51.1203 47.2918 51.2481 48.0623 51.6961C48.7388 52.0906 49.2475 52.7447 49.5043 53.4801C49.659 53.9156 49.7282 54.3766 49.7449 54.8369C49.0021 54.8733 48.2599 54.9096 47.5177 54.9455C47.4368 54.4581 47.2913 53.9428 46.9151 53.5978C46.5485 53.2684 46.0343 53.1807 45.5575 53.172C44.9912 53.1629 44.3831 53.2645 43.9401 53.6433C43.5938 53.9297 43.526 54.4686 43.7389 54.854C43.8901 55.1368 44.1798 55.3044 44.463 55.4328C45.3169 55.8157 46.2471 55.9713 47.128 56.2774C47.6962 56.4744 48.2711 56.693 48.7524 57.0623C49.3475 57.5165 49.7732 58.1832 49.939 58.9125C50.1479 59.8384 50.1024 60.844 49.6858 61.7084C49.3783 62.3827 48.8531 62.9605 48.1891 63.2979C47.4122 63.6995 46.5212 63.8146 45.6561 63.8187C44.7592 63.8198 43.8324 63.6753 43.0503 63.2131C42.3657 62.813 41.851 62.1645 41.5426 61.4412C41.2913 60.8608 41.1579 60.2354 41.0901 59.6086C41.8121 59.5303 42.534 59.4525 43.2566 59.3743C43.3673 60.0173 43.568 60.688 44.0504 61.1538C44.4478 61.5412 45.0105 61.7114 45.5561 61.723C46.0677 61.7352 46.6057 61.6725 47.0495 61.3987C47.5182 61.1033 47.8545 60.5698 47.8307 60.0051C47.8353 59.6389 47.6643 59.2712 47.3605 59.0601C46.9318 58.753 46.4075 58.6333 45.911 58.4822C44.966 58.2049 43.9872 57.9831 43.1297 57.4805C42.4481 57.0921 41.9274 56.4422 41.6731 55.703C41.4875 55.1546 41.4461 54.5606 41.533 53.9892C41.6762 53.1079 42.1697 52.2684 42.9286 51.781ZM0.472107 51.3294C0.971107 51.328 1.47016 51.3294 1.96865 51.3289C2.40852 53.4286 2.84538 55.5289 3.28377 57.6287C3.57592 59.044 3.89298 60.4547 4.11538 61.8826C4.28733 61.0957 4.44913 60.3061 4.63515 59.5222C5.32727 56.7911 6.019 54.0599 6.71117 51.3288C7.29813 51.3288 7.88515 51.3282 8.47206 51.3293C8.98581 53.3478 9.49946 55.3661 10.0126 57.3847C10.3964 58.8655 10.7114 60.3653 10.9106 61.8826C11.0946 60.9002 11.3029 59.9233 11.5188 58.9475C12.0765 56.4077 12.6326 53.8681 13.1914 51.3289C13.6808 51.3289 14.1697 51.3284 14.6586 51.3294C13.6494 55.4203 12.6423 59.5117 11.6327 63.6031C11.164 63.6031 10.6948 63.6031 10.2261 63.6026C9.62436 61.185 9.02372 58.7672 8.42212 56.3497C8.13343 55.1708 7.82653 53.9958 7.55402 52.8129C7.33763 53.8751 7.06001 54.9227 6.79913 55.9744L4.88951 63.6026C4.393 63.6036 3.8965 63.6031 3.40005 63.6031C2.42373 59.5117 1.44843 55.4203 0.472107 51.3294ZM16.2614 51.3289H17.7215C17.7215 55.4203 17.7215 59.5117 17.721 63.6026C17.2346 63.6031 16.7482 63.6031 16.2614 63.6026C16.2609 59.5117 16.2614 55.4203 16.2614 51.3289ZM20.3123 51.3289C21.6996 51.3284 23.0864 51.3289 24.4738 51.3289C25.165 51.3304 25.8602 51.3112 26.5453 51.4194C27.0382 51.4952 27.5383 51.638 27.9371 51.9493C28.514 52.3958 28.8664 53.0792 29.0317 53.7788C29.246 54.7578 29.1262 55.8539 28.5246 56.6791C27.9618 57.4975 26.9704 57.8737 26.0229 58.0182C26.3383 58.1935 26.6529 58.3808 26.9092 58.6375C27.5154 59.2522 27.9694 59.9937 28.3906 60.7418C28.9387 61.6953 29.4873 62.6485 30.0343 63.6032C29.4226 63.6037 28.8108 63.6032 28.1996 63.6032C27.6267 62.6117 27.0685 61.612 26.4881 60.6246C26.1346 60.0412 25.7879 59.4481 25.347 58.9243C25.0745 58.5972 24.713 58.3374 24.3009 58.2192C24.0269 58.152 23.7423 58.1571 23.4622 58.152C22.8979 58.151 22.3336 58.151 21.7694 58.152C21.7689 59.9688 21.7699 61.7863 21.7689 63.6031C21.283 63.6031 20.7976 63.6036 20.3123 63.6026C20.3118 59.5117 20.3118 55.4203 20.3123 51.3289ZM21.7694 52.6862C21.7694 54.0399 21.7689 55.3931 21.7694 56.7467C22.8559 56.7457 23.9424 56.7508 25.029 56.7442C25.6276 56.7276 26.2646 56.6827 26.7844 56.3538C27.8118 55.6799 27.921 53.9979 26.9952 53.1913C26.5417 52.7957 25.9138 52.6968 25.3308 52.6871C24.1436 52.6841 22.9565 52.6866 21.7694 52.6862ZM31.4561 51.3289H39.4353V52.777C37.2623 52.777 35.0893 52.7765 32.9168 52.777C32.9162 54.0298 32.9162 55.2823 32.9168 56.5346C34.9507 56.5351 36.9848 56.5346 39.0187 56.5351C39.0193 57.0154 39.0187 57.4957 39.0187 57.9756C36.9848 57.9767 34.9507 57.9756 32.9168 57.9762C32.9162 59.3693 32.9156 60.7624 32.9168 62.1554C35.1747 62.1549 37.4327 62.1549 39.6906 62.1554C39.6913 62.6378 39.6913 63.1203 39.6906 63.6031H31.456C31.4556 59.5117 31.4561 55.4203 31.4561 51.3289ZM51.9565 51.3289C52.6992 51.3289 53.4414 51.3284 54.1842 51.3294C54.1842 52.9397 54.1837 54.5505 54.1842 56.1609C55.6394 56.1614 57.0943 56.1609 58.5495 56.1614C58.5506 54.5506 58.5495 52.9398 58.5506 51.329C59.2927 51.329 60.0349 51.3285 60.7772 51.3295C60.7777 55.4204 60.7777 59.5118 60.7772 63.6028C60.0349 63.6033 59.2927 63.6033 58.5506 63.6033C58.5495 61.8142 58.5506 60.0251 58.5495 58.236C57.0943 58.2355 55.6394 58.2355 54.1842 58.236C54.1831 60.0251 54.1847 61.8142 54.1837 63.6033C53.4408 63.6033 52.6988 63.6039 51.9565 63.6028C51.9559 59.5117 51.9565 55.4203 51.9565 51.3289ZM66.2638 51.3294C67.049 51.328 67.8342 51.3294 68.6195 51.3289C70.0928 55.4199 71.5656 59.5112 73.0378 63.6026C72.2303 63.6036 71.4229 63.6026 70.6154 63.6031C70.2934 62.6743 69.9724 61.7453 69.6522 60.8159C68.1814 60.8139 66.7107 60.8144 65.2398 60.8154C64.9371 61.7449 64.6336 62.6741 64.3293 63.6031C63.5415 63.6031 62.7544 63.6036 61.9672 63.6026C63.3986 59.5112 64.8325 55.4207 66.2638 51.3294ZM65.9261 58.7469C66.9292 58.7475 67.9327 58.7475 68.9359 58.7469C68.4297 57.2292 67.9227 55.7112 67.4161 54.1939C66.9181 55.7112 66.4221 57.2292 65.9261 58.7469ZM74.2356 51.3289C75.7482 51.3284 77.2611 51.3294 78.7738 51.3289C79.4255 51.3294 80.0808 51.345 80.7255 51.4536C81.1384 51.5238 81.5531 51.6426 81.9044 51.8784C82.5875 52.333 83.0061 53.1049 83.1705 53.8948C83.3146 54.6323 83.2857 55.4126 83.0411 56.1259C82.796 56.834 82.2848 57.4549 81.6072 57.7873C81.2134 57.9918 80.7815 58.109 80.3467 58.1858C80.8135 58.4968 81.2547 58.857 81.6052 59.298C82.0748 59.9102 82.4516 60.5865 82.8333 61.2553C83.2732 62.0376 83.7146 62.8196 84.1534 63.6025C83.2662 63.6035 82.3782 63.6025 81.491 63.6029C80.7251 62.3478 79.9837 61.0769 79.1997 59.8328C78.8902 59.3671 78.5808 58.8377 78.0362 58.6186C77.5321 58.4458 76.9876 58.4862 76.4634 58.4781C76.4623 60.1864 76.4634 61.8947 76.4628 63.6025C75.7201 63.6029 74.9779 63.6029 74.2356 63.6025C74.2351 59.5117 74.2356 55.4203 74.2356 51.3289ZM76.4632 53.4069C76.4627 54.4439 76.4632 55.481 76.4627 56.518C77.2332 56.5159 78.0036 56.5239 78.7742 56.5109C79.1893 56.4917 79.61 56.4917 80.017 56.3966C80.4785 56.2795 80.8193 55.8642 80.9118 55.4066C81.0024 54.944 80.9863 54.4277 80.7284 54.0186C80.4867 53.6322 80.0251 53.4292 79.5787 53.4271C78.5407 53.3933 77.5017 53.411 76.4632 53.4069ZM85.3945 51.3294C86.1379 51.3289 86.881 51.3289 87.6243 51.3294C87.6253 53.1452 87.6237 54.9607 87.6253 56.7765C89.1258 54.9612 90.624 53.1432 92.1256 51.3284C93.1237 51.3294 94.1217 51.3284 95.1199 51.3289C93.7345 52.9221 92.3501 54.5157 90.9654 56.1088C92.424 58.6076 93.8861 61.1043 95.3449 63.6027C94.3842 63.6037 93.4241 63.6032 92.4639 63.6032C91.4512 61.6843 90.442 59.7629 89.4293 57.844C89.0461 58.2778 88.6622 58.7112 88.2816 59.1471C88.0676 59.4027 87.8239 59.6371 87.6288 59.9047C87.6186 61.1372 87.6283 62.3701 87.6243 63.6027C86.881 63.6032 86.1379 63.6032 85.3945 63.6027C85.3941 59.5117 85.3941 55.4203 85.3945 51.3294Z" fill="#191919"/>
</g>
</g>
<defs>
<clipPath id="clip0_2377_9166">
<rect width="100" height="100" fill="white" transform="translate(0.468018 0.0322266)"/>
</clipPath>
<clipPath id="clip1_2377_9166">
<rect width="100" height="27.5735" fill="white" transform="translate(0.468018 36.2454)"/>
</clipPath>
</defs>
</svg>
