<svg width="101" height="101" viewBox="0 0 101 101" fill="none" xmlns="http://www.w3.org/2000/svg">
<g clip-path="url(#clip0_2377_9169)">
<g clip-path="url(#clip1_2377_9169)">
<path d="M49.7758 36.6714C50.5843 36.5143 51.4069 36.4183 52.231 36.4148C52.5126 36.4128 52.7618 36.6623 52.7623 36.9432C52.7706 37.1406 52.643 37.3028 52.5484 37.464C51.6303 38.9701 51.2131 40.7426 51.1823 42.4953C51.1444 44.1461 51.4225 45.7918 51.8988 47.3691C52.0434 47.8284 52.1885 48.2884 52.3801 48.7305C68.4079 48.73 84.4354 48.731 100.463 48.7305C100.464 49.0942 100.463 49.4578 100.464 49.8215H52.0737C51.8235 49.8417 51.5812 49.6846 51.4963 49.4497C50.7981 47.8091 50.3511 46.0624 50.1681 44.289C49.928 42.005 50.21 39.6208 51.2527 37.5529C49.5169 37.7054 47.805 38.2676 46.3711 39.2683C44.9519 40.2517 43.8183 41.6125 42.9981 43.1238C42.4369 44.1279 42.0031 45.1998 41.6735 46.3009C41.3768 47.2879 41.1522 48.2987 41.0365 49.3235C41.0107 49.5614 40.8109 49.768 40.5723 49.7958C40.4302 49.8119 40.2866 49.8034 40.1445 49.8048C26.9707 49.8043 13.7974 49.8048 0.623629 49.8043C0.623118 49.4412 0.623629 49.0775 0.623118 48.7138C13.7534 48.7127 26.8838 48.7149 40.0141 48.7127C40.3194 46.6827 40.9454 44.6986 41.8908 42.8747C42.6973 41.3427 43.7681 39.9284 45.1266 38.8428C46.4663 37.7503 48.0842 37.0148 49.7758 36.6714ZM42.9286 51.9505C43.6855 51.4534 44.6102 51.2913 45.5025 51.2902C46.3812 51.2897 47.2918 51.4175 48.0623 51.8655C48.7388 52.26 49.2475 52.9142 49.5043 53.6496C49.659 54.085 49.7282 54.5461 49.7449 55.0063C49.0021 55.0428 48.2599 55.079 47.5177 55.1149C47.4368 54.6275 47.2913 54.1122 46.9151 53.7673C46.5485 53.4379 46.0343 53.3501 45.5575 53.3414C44.9912 53.3323 44.3831 53.4339 43.9401 53.8127C43.5938 54.0991 43.526 54.638 43.7389 55.0234C43.8901 55.3062 44.1798 55.4738 44.463 55.6023C45.3169 55.9851 46.2471 56.1407 47.128 56.4468C47.6962 56.6438 48.2711 56.8625 48.7524 57.2317C49.3475 57.6859 49.7732 58.3527 49.939 59.082C50.1479 60.0079 50.1024 61.0135 49.6858 61.8778C49.3783 62.5521 48.8531 63.13 48.1891 63.4674C47.4122 63.8689 46.5212 63.984 45.6561 63.9882C44.7592 63.9892 43.8324 63.8447 43.0503 63.3825C42.3657 62.9824 41.851 62.3339 41.5426 61.6106C41.2913 61.0302 41.1579 60.4048 41.0901 59.778C41.8121 59.6997 42.534 59.6219 43.2566 59.5437C43.3673 60.1867 43.568 60.8575 44.0504 61.3232C44.4478 61.7107 45.0105 61.8808 45.5561 61.8925C46.0677 61.9046 46.6057 61.8419 47.0495 61.5681C47.5182 61.2727 47.8545 60.7392 47.8307 60.1746C47.8353 59.8084 47.6643 59.4406 47.3605 59.2295C46.9318 58.9224 46.4075 58.8027 45.911 58.6517C44.966 58.3743 43.9872 58.1526 43.1297 57.65C42.4481 57.2616 41.9274 56.6116 41.6731 55.8725C41.4875 55.324 41.4461 54.73 41.533 54.1586C41.6762 53.2773 42.1697 52.4378 42.9286 51.9505ZM0.472107 51.4988C0.971107 51.4974 1.47016 51.4988 1.96865 51.4983C2.40852 53.5981 2.84538 55.6984 3.28377 57.7981C3.57592 59.2134 3.89298 60.6242 4.11538 62.0521C4.28733 61.2651 4.44913 60.4756 4.63515 59.6916C5.32727 56.9606 6.019 54.2294 6.71117 51.4982C7.29813 51.4982 7.88515 51.4977 8.47206 51.4987C8.98581 53.5172 9.49946 55.5355 10.0126 57.5541C10.3964 59.035 10.7114 60.5347 10.9106 62.0521C11.0946 61.0697 11.3029 60.0927 11.5188 59.1169C12.0765 56.5772 12.6326 54.0375 13.1914 51.4983C13.6808 51.4983 14.1697 51.4978 14.6586 51.4988C13.6494 55.5897 12.6423 59.6811 11.6327 63.7725C11.164 63.7725 10.6948 63.7725 10.2261 63.772C9.62436 61.3544 9.02372 58.9366 8.42212 56.5191C8.13343 55.3402 7.82653 54.1652 7.55402 52.9823C7.33763 54.0445 7.06001 55.0922 6.79913 56.1438L4.88951 63.772C4.393 63.7731 3.8965 63.7725 3.40005 63.7725C2.42373 59.6811 1.44843 55.5897 0.472107 51.4988ZM16.2614 51.4983H17.7215C17.7215 55.5897 17.7215 59.6811 17.721 63.772C17.2346 63.7725 16.7482 63.7725 16.2614 63.772C16.2609 59.6811 16.2614 55.5897 16.2614 51.4983ZM20.3123 51.4983C21.6996 51.4978 23.0864 51.4983 24.4738 51.4983C25.165 51.4998 25.8602 51.4807 26.5453 51.5888C27.0382 51.6646 27.5383 51.8075 27.9371 52.1187C28.514 52.5652 28.8664 53.2487 29.0317 53.9482C29.246 54.9272 29.1262 56.0233 28.5246 56.8485C27.9618 57.6669 26.9704 58.0432 26.0229 58.1876C26.3383 58.3629 26.6529 58.5502 26.9092 58.8069C27.5154 59.4216 27.9694 60.1631 28.3906 60.9112C28.9387 61.8648 29.4873 62.818 30.0343 63.7726C29.4226 63.7732 28.8108 63.7726 28.1996 63.7726C27.6267 62.7811 27.0685 61.7815 26.4881 60.794C26.1346 60.2106 25.7879 59.6176 25.347 59.0938C25.0745 58.7666 24.713 58.5069 24.3009 58.3887C24.0269 58.3214 23.7423 58.3265 23.4622 58.3214C22.8979 58.3204 22.3336 58.3204 21.7694 58.3214C21.7689 60.1382 21.7699 61.9558 21.7689 63.7725C21.283 63.7725 20.7976 63.7731 20.3123 63.772C20.3118 59.6811 20.3118 55.5897 20.3123 51.4983ZM21.7694 52.8556C21.7694 54.2094 21.7689 55.5625 21.7694 56.9162C22.8559 56.9151 23.9424 56.9202 25.029 56.9137C25.6276 56.897 26.2646 56.8521 26.7844 56.5232C27.8118 55.8493 27.921 54.1673 26.9952 53.3607C26.5417 52.9651 25.9138 52.8662 25.3308 52.8566C24.1436 52.8535 22.9565 52.856 21.7694 52.8556ZM31.4561 51.4983H39.4353V52.9465C37.2623 52.9465 35.0893 52.946 32.9168 52.9465C32.9162 54.1992 32.9162 55.4518 32.9168 56.704C34.9507 56.7045 36.9848 56.704 39.0187 56.7045C39.0193 57.1848 39.0187 57.6652 39.0187 58.145C36.9848 58.1461 34.9507 58.145 32.9168 58.1456C32.9162 59.5387 32.9156 60.9318 32.9168 62.3248C35.1747 62.3243 37.4327 62.3243 39.6906 62.3248C39.6913 62.8073 39.6913 63.2897 39.6906 63.7725H31.456C31.4556 59.6811 31.4561 55.5897 31.4561 51.4983ZM51.9565 51.4983C52.6992 51.4983 53.4414 51.4978 54.1842 51.4988C54.1842 53.1091 54.1837 54.7199 54.1842 56.3303C55.6394 56.3308 57.0943 56.3303 58.5495 56.3308C58.5506 54.72 58.5495 53.1092 58.5506 51.4984C59.2927 51.4984 60.0349 51.4979 60.7772 51.4989C60.7777 55.5898 60.7777 59.6812 60.7772 63.7723C60.0349 63.7727 59.2927 63.7727 58.5506 63.7727C58.5495 61.9836 58.5506 60.1946 58.5495 58.4054C57.0943 58.4049 55.6394 58.4049 54.1842 58.4054C54.1831 60.1946 54.1847 61.9836 54.1837 63.7727C53.4408 63.7727 52.6988 63.7733 51.9565 63.7723C51.9559 59.6811 51.9565 55.5897 51.9565 51.4983ZM66.2638 51.4988C67.049 51.4974 67.8342 51.4988 68.6195 51.4983C70.0928 55.5893 71.5656 59.6806 73.0378 63.772C72.2303 63.7731 71.4229 63.772 70.6154 63.7725C70.2934 62.8438 69.9724 61.9147 69.6522 60.9854C68.1814 60.9833 66.7107 60.9838 65.2398 60.9848C64.9371 61.9143 64.6336 62.8435 64.3293 63.7725C63.5415 63.7725 62.7544 63.7731 61.9672 63.772C63.3986 59.6806 64.8325 55.5902 66.2638 51.4988ZM65.9261 58.9164C66.9292 58.9169 67.9327 58.9169 68.9359 58.9164C68.4297 57.3986 67.9227 55.8806 67.4161 54.3633C66.9181 55.8806 66.4221 57.3986 65.9261 58.9164ZM74.2356 51.4983C75.7482 51.4978 77.2611 51.4988 78.7738 51.4983C79.4255 51.4988 80.0808 51.5145 80.7255 51.623C81.1384 51.6933 81.5531 51.812 81.9044 52.0479C82.5875 52.5024 83.0061 53.2743 83.1705 54.0642C83.3146 54.8017 83.2857 55.582 83.0411 56.2953C82.796 57.0035 82.2848 57.6243 81.6072 57.9567C81.2134 58.1613 80.7815 58.2784 80.3467 58.3552C80.8135 58.6662 81.2547 59.0265 81.6052 59.4675C82.0748 60.0796 82.4516 60.756 82.8333 61.4247C83.2732 62.2071 83.7146 62.989 84.1534 63.7719C83.2662 63.773 82.3782 63.7719 81.491 63.7724C80.7251 62.5172 79.9837 61.2463 79.1997 60.0023C78.8902 59.5366 78.5808 59.0071 78.0362 58.788C77.5321 58.6152 76.9876 58.6556 76.4634 58.6475C76.4623 60.3559 76.4634 62.0642 76.4628 63.7719C75.7201 63.7724 74.9779 63.7724 74.2356 63.7719C74.2351 59.6811 74.2356 55.5897 74.2356 51.4983ZM76.4632 53.5764C76.4627 54.6134 76.4632 55.6504 76.4627 56.6874C77.2332 56.6854 78.0036 56.6933 78.7742 56.6803C79.1893 56.6611 79.61 56.6611 80.017 56.5661C80.4785 56.4489 80.8193 56.0336 80.9118 55.5761C81.0024 55.1134 80.9863 54.5971 80.7284 54.188C80.4867 53.8017 80.0251 53.5986 79.5787 53.5965C78.5407 53.5628 77.5017 53.5804 76.4632 53.5764ZM85.3945 51.4988C86.1379 51.4983 86.881 51.4983 87.6243 51.4988C87.6253 53.3147 87.6237 55.1301 87.6253 56.9459C89.1258 55.1306 90.624 53.3127 92.1256 51.4978C93.1237 51.4988 94.1217 51.4978 95.1199 51.4983C93.7345 53.0915 92.3501 54.6851 90.9654 56.2782C92.424 58.777 93.8861 61.2738 95.3449 63.7722C94.3842 63.7732 93.4241 63.7726 92.4639 63.7726C91.4512 61.8538 90.442 59.9323 89.4293 58.0134C89.0461 58.4472 88.6622 58.8807 88.2816 59.3165C88.0676 59.5721 87.8239 59.8065 87.6288 60.0741C87.6186 61.3066 87.6283 62.5395 87.6243 63.7722C86.881 63.7726 86.1379 63.7726 85.3945 63.7722C85.3941 59.6811 85.3941 55.5897 85.3945 51.4988Z" fill="#E4E4E4"/>
</g>
</g>
<defs>
<clipPath id="clip0_2377_9169">
<rect width="100" height="100" fill="white" transform="translate(0.468018 0.20166)"/>
</clipPath>
<clipPath id="clip1_2377_9169">
<rect width="100" height="27.5735" fill="white" transform="translate(0.468018 36.4148)"/>
</clipPath>
</defs>
</svg>
