<svg width="101" height="101" viewBox="0 0 101 101" fill="none" xmlns="http://www.w3.org/2000/svg">
<path d="M64.5415 25.999C72.5828 28.1655 73.0815 31.5378 74.2085 34.833C69.4398 39.775 38.8306 71.338 38.8306 71.338C38.8306 71.338 57.9073 73.3977 79.9328 69.5827C79.931 69.6335 79.9293 69.6667 79.9275 69.7157C83.4188 64.2697 85.468 57.8105 85.468 50.863C85.468 31.5325 69.7985 15.863 50.4681 15.863C40.6086 15.863 31.7168 19.9545 25.3556 26.5153C35.5738 24.83 55.5256 23.5683 64.5415 25.999Z" fill="#191919"/>
<path d="M34.235 74.1117C30.7665 73.5045 26.864 70.3825 25.9978 64.8332C28.5125 62.665 60.9872 28.946 60.9872 28.946C48.7232 28.204 35.4915 28.1323 22.0725 30.458C17.932 36.2068 15.468 43.24 15.468 50.863C15.468 70.1935 31.1375 85.8629 50.468 85.8629C61.2707 85.8629 70.9237 80.963 77.3444 73.2717C70.5685 74.1905 49.1677 76.7087 34.235 74.1117Z" fill="#191919"/>
</svg>
