<svg width="101" height="101" viewBox="0 0 101 101" fill="none" xmlns="http://www.w3.org/2000/svg">
<path d="M64.5415 25.1682C72.5828 27.3347 73.0815 30.707 74.2085 34.0022C69.4398 38.9442 38.8306 70.5072 38.8306 70.5072C38.8306 70.5072 57.9073 72.5669 79.9328 68.7519C79.931 68.8027 79.9293 68.8359 79.9275 68.8849C83.4188 63.4389 85.468 56.9797 85.468 50.0322C85.468 30.7017 69.7985 15.0322 50.4681 15.0322C40.6086 15.0322 31.7168 19.1237 25.3556 25.6845C35.5738 23.9992 55.5256 22.7375 64.5415 25.1682Z" fill="#E4E4E4"/>
<path d="M34.235 73.2809C30.7665 72.6736 26.864 69.5517 25.9978 64.0024C28.5125 61.8342 60.9872 28.1152 60.9872 28.1152C48.7232 27.3732 35.4915 27.3015 22.0725 29.6272C17.932 35.3759 15.468 42.4092 15.468 50.0322C15.468 69.3627 31.1375 85.0321 50.468 85.0321C61.2707 85.0321 70.9237 80.1321 77.3444 72.4409C70.5685 73.3596 49.1677 75.8779 34.235 73.2809Z" fill="#E4E4E4"/>
</svg>
