<svg width="101" height="100" viewBox="0 0 101 100" fill="none" xmlns="http://www.w3.org/2000/svg">
<path d="M61.4592 15C60.5453 15.0791 59.5919 15.1582 58.678 15.2769C54.7788 15.711 50.9864 16.8278 47.4742 18.5764C43.8537 20.3487 40.5624 22.7262 37.7421 25.6064C37.6234 25.7647 37.3861 25.8438 37.1843 25.8042C35.2258 25.5131 33.243 25.4203 31.2659 25.5273C27.2331 25.7255 23.2844 26.753 19.6665 28.5458C12.672 32.0431 7.74664 37.4867 4.88635 44.7977C3.84279 47.5068 3.22619 50.3615 3.05862 53.2599C3.05862 53.4577 3.01905 53.6159 2.97949 53.7742V56.8323C3.05862 57.6274 3.1773 58.3831 3.25642 59.1783C3.65204 62.3946 4.56986 65.4923 6.03759 68.3961C9.29745 74.9079 14.302 79.675 21.0155 82.6144C24.0813 83.9661 27.3635 84.7606 30.7081 84.9604C30.8347 84.9604 30.9455 84.9763 31.0483 85H64.9762C65.7002 84.9327 66.4083 84.8615 67.1402 84.7626C71.0128 84.3279 74.7778 83.2108 78.2609 81.4632C84.2096 78.5597 89.2116 74.0269 92.685 68.3921C95.0637 64.675 96.6577 60.5111 97.3691 56.1558C97.5669 54.8107 97.6856 53.4181 97.8478 52.0651C97.8478 51.8673 97.8874 51.7091 97.9269 51.5508V48.4096C97.8478 47.4997 97.7291 46.6215 97.7291 45.7907C97.2947 41.9167 96.1777 38.1503 94.4297 34.666C91.4833 28.7225 86.9269 23.7261 81.2795 20.2458C77.5817 17.8959 73.4484 16.3149 69.1262 15.5974C67.6941 15.36 66.3055 15.2413 64.8734 15.0831C64.6755 15.0831 64.5173 15.0435 64.3195 15.004L61.4592 15ZM62.919 21.6978C71.3298 21.7175 78.4667 24.9655 84.2624 31.4101C87.544 35.1328 89.7536 39.6764 90.6555 44.5563C91.249 47.5788 91.3716 50.6765 90.9325 53.7346C90.1808 59.0596 88.1553 63.8228 84.6976 67.9965C80.6799 72.9289 75.1033 76.3471 68.8849 77.6891C65.5587 78.4172 62.13 78.5511 58.7572 78.0847C54.4252 77.5308 50.4532 76.1026 46.8769 73.5193C45.928 72.8404 45.0386 72.082 44.2183 71.2524C39.3681 66.4852 34.5653 61.6785 29.7151 56.9114C28.5243 55.7245 28.4452 54.4111 29.003 53.2163C29.2947 52.5786 29.7847 52.0522 30.3999 51.7157C31.0152 51.3791 31.7228 51.2505 32.4172 51.349C33.2479 51.4282 33.8888 51.9069 34.4823 52.5042C38.8538 56.9114 43.1858 61.2434 47.5534 65.6545C50.8326 68.9986 55.1436 71.1395 59.7897 71.7311C67.4963 72.7637 74.0516 70.3821 79.2539 64.6179C82.0747 61.4807 83.7837 57.7066 84.4998 53.4972C85.5284 47.2188 84.0646 41.5774 80.1678 36.6124C76.7141 32.2013 72.1843 29.4597 66.7011 28.4667C61.0992 27.4777 55.8177 28.5458 51.011 31.6079C50.8923 31.687 50.6154 31.7266 50.4928 31.6475C48.7452 30.3546 46.8834 29.2237 44.9304 28.2689C44.9304 28.2689 44.8909 28.2293 44.8513 28.1502C46.3772 26.8798 48.0429 25.7874 49.8163 24.8943C53.0441 23.142 56.6033 22.0855 60.2644 21.7927C61.1464 21.726 62.0306 21.6943 62.9151 21.6978H62.919ZM32.8326 32.233C38.5887 32.138 43.8741 34.3099 48.5859 38.6815C51.9645 41.8543 55.0621 45.1537 58.318 48.4531C59.2319 49.3631 59.4297 50.5183 58.9945 51.7486C58.5594 52.979 57.5624 53.5764 56.2925 53.7742C55.8332 53.8368 55.3655 53.7866 54.9299 53.6281C54.4943 53.4696 54.1038 53.2074 53.7922 52.8642C50.6906 49.7626 47.5929 46.7045 44.5348 43.5673C42.0306 40.9839 39.0516 39.5123 35.5544 38.8753C27.8082 37.4867 19.983 41.9769 17.2018 49.3235C13.6255 58.66 19.2669 69.2269 28.999 71.4542C30.9059 71.8893 32.9354 71.8893 34.9214 71.8498C35.4753 71.8102 35.7917 72.008 36.1874 72.3641C38.0982 74.2353 40.1237 76.1026 42.1097 77.966C42.2284 78.0847 42.3866 78.2033 42.5053 78.322C42.268 78.322 42.1097 78.3616 41.9515 78.3616H32.8523C27.6025 78.3605 22.5099 76.5694 18.4152 73.2839C14.3205 69.9984 11.4685 65.4148 10.33 60.2899C7.74665 48.651 14.4207 36.8498 25.8618 33.3961C28.1187 32.6808 30.4657 32.2892 32.8326 32.233Z" fill="#191919"/>
</svg>
