<svg width="101" height="100" viewBox="0 0 101 100" fill="none" xmlns="http://www.w3.org/2000/svg">
<g clip-path="url(#clip0_2359_7555)">
<path d="M0.365623 54.8895L9.09234 49.4558H13.6214C13.761 49.4558 13.8888 49.5665 13.8888 49.7235C13.8888 49.8516 13.8307 49.9038 13.761 49.9446L9.47601 52.5159C9.19713 52.6847 9.09826 53.0162 9.09826 53.2665L9.09234 54.8895H14.5402V45.471C14.5402 45.2907 14.4006 45.1337 14.1914 45.1337H8.99347L0.290039 50.5437V54.8895H0.365623Z" fill="#191919"/>
<path d="M71.9238 54.8895H79.7729V52.7777H74.4121V51.0092H78.7263V48.8918H74.4121V47.2455H79.7729V45.1337H71.9238V54.8895Z" fill="#191919"/>
<path d="M22.6037 45.1337L18.8652 54.8895H21.4353L22.0863 53.0628H26.2607L26.9002 54.8895H29.5573L25.7722 45.1337H22.6037ZM22.8247 50.9858L24.1909 47.164L25.5341 50.9858H22.8247Z" fill="#191919"/>
<path d="M40.2207 47.2455H43.3659V54.8895H45.8486V47.2455H48.9823V45.1337H40.2207V47.2455Z" fill="#191919"/>
<path d="M36.6046 51.1313C36.6046 52.3996 35.8255 52.9114 34.4941 52.9114C33.2035 52.9114 32.3603 52.3763 32.3603 51.1313V45.0985H29.8721V51.4165C29.8721 54.2322 32.3836 55.1105 34.4882 55.1105C36.5813 55.1105 39.0814 54.2322 39.0814 51.4165V45.0985H36.5928V51.1313H36.6046Z" fill="#191919"/>
<path d="M100.29 45.1337H97.3308L93.7845 49.0951V45.1337H91.2959L91.3074 54.8895H93.7845V51.1836L97.1448 54.8895H100.29L95.7554 50.0727L100.29 45.1337Z" fill="#191919"/>
<path d="M66.0756 45.1337H61.5176V54.8895H66.0756C69.57 54.8895 70.535 53.5864 70.535 49.9386C70.535 46.5123 69.6104 45.1337 66.0756 45.1337ZM65.9767 52.7777H63.9999V47.2455H65.9767C67.535 47.2455 68.0002 47.6698 68.0002 49.9386C68.0002 52.0097 67.4769 52.7777 65.9767 52.7777Z" fill="#191919"/>
<path d="M87.2906 49.1477L85.0231 48.8918C83.6977 48.7463 83.3663 48.4145 83.3663 47.9668C83.3663 47.4665 84.0466 47.0185 85.3779 47.0185C86.657 47.0185 87.3255 47.4954 87.4476 48.2109H89.8837C89.7615 46.1457 88.035 44.866 85.5116 44.866C82.5116 44.866 81.0058 46.0587 81.0058 48.1701C81.0058 49.8864 82.0057 50.6951 84.0755 50.9162L86.3778 51.1606C87.2558 51.2595 87.6569 51.5968 87.6569 52.039C87.6569 52.5392 87.0696 52.9873 85.6568 52.9873C84.0232 52.9873 83.3663 52.574 83.2556 51.7423H80.8662C80.9766 53.9878 82.436 55.1339 85.5697 55.1339C88.4301 55.1339 90.0289 53.8771 90.0289 51.9864C90.0289 50.3401 89.0812 49.3513 87.2906 49.1477Z" fill="#191919"/>
<path d="M54.7673 44.866C51.221 44.866 49.3838 47.0474 49.3838 49.9853C49.3838 52.9347 51.221 55.128 54.7673 55.128C58.3257 55.128 60.1629 52.9347 60.1629 49.9853C60.1685 47.0474 58.3257 44.866 54.7673 44.866ZM54.7673 52.9347C52.9301 52.9347 51.9187 51.812 51.9187 49.9853C51.9187 48.1935 52.9301 47.0592 54.7673 47.0592C56.6222 47.0592 57.6162 48.1935 57.6162 49.9853C57.6221 51.8179 56.6222 52.9347 54.7673 52.9347Z" fill="#191919"/>
</g>
<defs>
<clipPath id="clip0_2359_7555">
<rect width="100" height="100" fill="white" transform="translate(0.290039)"/>
</clipPath>
</defs>
</svg>
