<svg width="101" height="100" viewBox="0 0 101 100" fill="none" xmlns="http://www.w3.org/2000/svg">
<path d="M52.3627 54.0857C52.5253 51.2131 53.9424 48.6749 56.0895 46.8815C58.1905 45.1184 61.0124 44.0393 64.1104 44.0393C67.193 44.0393 70.0149 45.1169 72.116 46.8815C74.2631 48.6749 75.674 51.2131 75.8427 54.0857C76.0053 57.0343 74.8075 59.7852 72.7141 61.8219C70.567 63.8889 67.5304 65.196 64.1104 65.196C60.6904 65.196 57.6384 63.898 55.5067 61.8219C53.4056 59.7852 52.2094 57.0495 52.3781 54.1009L52.3627 54.0857Z" fill="#191919"/>
<path d="M33.9583 60.1652C33.9782 61.2899 34.3402 63.4785 34.8831 65.1807C36.0241 68.7981 37.9657 72.1418 40.6496 75.0752C43.4101 78.0997 46.8148 80.5316 50.7409 82.2642C54.8664 84.0729 59.3446 85 63.9915 85C68.6384 84.9939 73.1167 84.0516 77.2421 82.2186C81.1683 80.4708 84.573 78.039 87.3335 74.9992C90.0327 72.0354 91.9651 68.6917 93.0999 65.0744C93.6751 63.2505 94.0385 61.3963 94.1842 59.542C94.3269 57.7181 94.2671 55.8791 94.0048 54.04C93.4926 50.4683 92.2411 47.1094 90.3241 44.0696C88.5757 41.2579 86.3059 38.8108 83.6067 36.7438L83.6129 36.7393L56.4675 16.0689C56.443 16.0506 56.423 16.0309 56.3969 16.0141C54.6179 14.6584 51.612 14.663 49.6643 16.0217C47.6859 17.3957 47.4559 19.6695 49.2195 21.0981L49.2119 21.1058L60.5454 30.2402L26.0386 30.2767H25.9926C23.14 30.2797 20.3948 32.131 19.858 34.4868C19.2998 36.873 21.2383 38.864 24.2136 38.864L24.209 38.8747L41.6924 38.8412L10.4062 62.5514C10.3664 62.5803 10.3234 62.6106 10.2866 62.6395C7.34203 64.8737 6.39117 68.5975 8.24687 70.9381C10.1332 73.3243 14.136 73.3395 17.1113 70.9517L34.1347 57.1209C34.1347 57.1209 33.8862 58.9903 33.9062 60.0998L33.9583 60.1652ZM77.8203 66.4118C74.3083 69.9532 69.3853 71.9746 64.0789 71.9746C58.7572 71.9837 53.8342 69.9988 50.3222 66.4575C48.6045 64.7248 47.347 62.749 46.5648 60.6363C45.8026 58.5541 45.5066 56.3503 45.7029 54.1312C45.8885 51.9578 46.5418 49.8756 47.5893 48.0061C48.6137 46.1671 50.0278 44.4952 51.7608 43.0817C55.1808 40.3307 59.521 38.826 64.0605 38.826C68.6155 38.8199 72.9556 40.2988 76.3756 43.0513C78.1086 44.4557 79.5196 46.1215 80.5471 47.9605C81.5946 49.83 82.2495 51.897 82.4335 54.0856C82.6268 56.3047 82.3308 58.5085 81.5686 60.5907C80.7895 62.7186 79.5288 64.6944 77.8111 66.4271L77.8203 66.4118Z" fill="#191919"/>
</svg>
