<svg width="101" height="100" viewBox="0 0 101 100" fill="none" xmlns="http://www.w3.org/2000/svg">
<path d="M52.542 15C52.8143 15.0787 53.0961 15.0353 53.3682 15.0615C54.7758 15.184 56.1741 15.3607 57.5625 15.6328C61.9328 16.4944 65.9859 18.1297 69.7324 20.5459C72.6432 22.4182 75.2103 24.6775 77.4521 27.3057C79.2551 29.4156 80.7842 31.7105 82.0332 34.1885C83.5103 37.1163 84.5658 40.1833 85.165 43.4092C85.4811 45.1142 85.7185 46.8375 85.7266 48.5781C85.7266 48.6935 85.753 48.8164 85.7617 48.9297V51.0049C85.7268 51.1361 85.7265 51.2773 85.7178 51.418C85.7178 51.7516 85.7176 52.0865 85.6914 52.4199C85.5321 54.5477 85.1998 56.6483 84.6719 58.7227C83.6609 62.6172 82.0331 66.2305 79.7734 69.5615C78.0937 72.0406 76.1332 74.2737 73.8818 76.251C71.6399 78.2203 69.1851 79.8824 66.5205 81.2266C63.4511 82.7731 60.2243 83.8466 56.8389 84.4346C55.538 84.6629 54.2277 84.8123 52.9092 84.8916C52.5618 84.9318 52.1931 84.923 51.832 85H49.7568C49.6606 84.965 49.5639 84.9561 49.4668 84.9561C48.3589 84.9036 47.2591 84.8142 46.1689 84.666C44.1295 84.4021 42.1238 83.9536 40.1719 83.3301C36.822 82.258 33.7004 80.7196 30.8076 78.7148C28.1251 76.8508 25.7522 74.6532 23.6855 72.1221C21.2491 69.1507 19.3498 65.8719 18.0039 62.2686C16.7989 59.0687 16.0787 55.7549 15.8584 52.335C15.8584 52.1504 15.8229 51.9658 15.7617 51.7812V48.168C15.8229 48.0088 15.8496 47.8425 15.8584 47.6758C15.9021 46.858 15.989 46.0396 16.0957 45.2314C16.6237 41.3287 17.784 37.6267 19.5693 34.1191C20.8003 31.7015 22.2949 29.4517 24.0527 27.376C25.794 25.3194 27.7467 23.4813 29.9092 21.873C33.4353 19.2531 37.3132 17.3638 41.5508 16.2041C43.6081 15.6422 45.7108 15.2731 47.8379 15.0967C48.2154 15.0617 48.6117 15.0961 48.9893 15H52.542ZM43.0889 50.7061C40.9861 50.2453 38.8659 49.9496 36.7041 50.0225C36.0934 50.047 35.4836 50.1128 34.8809 50.2197C33.1324 50.5245 31.6477 51.3302 30.4355 52.6045C28.3649 54.7759 27.5421 57.3671 28.0527 60.3203C28.7866 64.5402 32.5308 67.5418 36.7861 67.5088C37.3301 67.5253 37.9412 67.4578 38.5518 67.3281C40.3582 66.9327 41.8931 66.1115 43.0723 64.6553C43.7892 63.7674 44.3916 62.8049 44.9111 61.793C45.522 60.6005 46.0324 59.3582 46.4775 58.1006C47.0215 56.5793 47.4834 55.0244 47.8389 53.4531C48.0363 52.5728 47.8144 52.021 46.8408 51.7178C45.6043 51.3314 44.3586 50.9862 43.0889 50.7061ZM64.1289 50.0225C61.9672 49.9496 59.8478 50.2453 57.7451 50.7061C56.475 50.9862 55.2289 51.3313 53.9922 51.7178C53.0186 52.021 52.7967 52.5728 52.9941 53.4531C53.3497 55.0244 53.8115 56.5792 54.3555 58.1006C54.8006 59.3582 55.311 60.6005 55.9219 61.793C56.4415 62.805 57.0447 63.7673 57.7617 64.6553C58.9408 66.1113 60.475 66.9326 62.2812 67.3281C62.8918 67.4578 63.5029 67.5253 64.0469 67.5088C68.3024 67.542 72.0474 64.5404 72.7812 60.3203C73.2918 57.367 72.4682 54.7759 70.3975 52.6045C69.1852 51.3301 67.7008 50.5245 65.9521 50.2197C65.3493 50.1128 64.7397 50.047 64.1289 50.0225ZM56.1416 28.5303C54.1148 26.688 51.7535 25.9496 49.0967 26.3604C44.7752 27.0301 41.6417 31.0099 41.6582 35.4775C41.6337 36.1206 41.748 36.8241 41.9375 37.5273C42.2985 38.8652 42.8971 40.0911 43.6025 41.249C45.2096 43.8824 47.2348 46.1373 49.4326 48.2305C49.6126 48.4025 49.8272 48.5474 50.0566 48.6582C50.2863 48.7776 50.5156 48.7781 50.7529 48.6758C50.9823 48.5734 51.1881 48.4275 51.3604 48.2383C52.123 47.4498 52.8768 46.6596 53.5986 45.8447C54.6153 44.6867 55.5835 43.4948 56.4609 42.2168C57.2569 41.059 57.9698 39.8411 58.4941 38.5205C59.0184 37.208 59.2736 35.8542 59.1016 34.4307C58.8145 32.0817 57.8557 30.091 56.1416 28.5303Z" fill="#191919"/>
</svg>
