<svg width="101" height="100" viewBox="0 0 101 100" fill="none" xmlns="http://www.w3.org/2000/svg">
<path fill-rule="evenodd" clip-rule="evenodd" d="M47.6161 20.4475H39.5811C35.1435 20.4475 31.5461 24.0449 31.5461 28.4825C31.5461 32.9201 35.1435 36.5175 39.5811 36.5175H47.6161V20.4475ZM47.6161 15H53.0636H61.0986C68.545 15 74.5808 21.0363 74.5808 28.4825C74.5808 32.8766 72.4792 36.7798 69.2254 39.2412C72.4792 41.7027 74.5808 45.6059 74.5808 50C74.5808 57.4462 68.545 63.4825 61.0986 63.4825C58.0878 63.4825 55.3076 62.4956 53.0636 60.8277V63.4825V71.5175C53.0636 78.9637 47.0273 85 39.5811 85C32.1349 85 26.0986 78.9637 26.0986 71.5175C26.0986 67.1231 28.2007 63.2202 31.4541 60.7587C28.2007 58.2973 26.0986 54.3941 26.0986 50C26.0986 45.6059 28.2008 41.7027 31.4543 39.2413C28.2008 36.7798 26.0986 32.8766 26.0986 28.4825C26.0986 21.0363 32.1349 15 39.5811 15H47.6161ZM53.0636 20.4475V36.5175H61.0986C65.5364 36.5175 69.1333 32.9201 69.1333 28.4825C69.1333 24.0449 65.5364 20.4475 61.0986 20.4475H53.0636ZM39.5811 58.0349H47.6161V50.0207V50V49.9793V41.965H39.5811C35.1435 41.965 31.5461 45.5624 31.5461 50C31.5461 54.427 35.1263 58.0178 39.5492 58.035L39.5811 58.0349ZM31.5461 71.5175C31.5461 67.0904 35.1263 63.4997 39.5492 63.4825L39.5811 63.4825H47.6161V71.5175C47.6161 75.955 44.0187 79.5525 39.5811 79.5525C35.1435 79.5525 31.5461 75.955 31.5461 71.5175ZM53.0636 49.984C53.0723 45.5538 56.6663 41.965 61.0986 41.965C65.5364 41.965 69.1333 45.5624 69.1333 50C69.1333 54.4376 65.5364 58.035 61.0986 58.035C56.6663 58.035 53.0723 54.4463 53.0636 50.016V49.984Z" fill="#191919"/>
</svg>
