<svg width="101" height="100" viewBox="0 0 101 100" fill="none" xmlns="http://www.w3.org/2000/svg">
<g clip-path="url(#clip0_2358_7273)">
<path d="M0.648438 42.2899H4.13941V48.5517H10.5601V42.2899H14.0413V58.1161H10.5503V51.766H4.13941V58.118H0.648438V42.2899Z" fill="#191919"/>
<path d="M15.7393 52.1252V52.0801C15.7393 48.5989 18.5434 45.7732 22.3189 45.7732C26.0944 45.7732 28.8535 48.5538 28.8535 52.035V52.0801C28.8535 55.5613 26.0493 58.387 22.2738 58.387C18.4983 58.387 15.7393 55.6064 15.7393 52.1252ZM25.4606 52.1252V52.0801C25.4606 50.2944 24.1714 48.7343 22.2738 48.7343C20.3115 48.7343 19.1341 50.2493 19.1341 52.035V52.0801C19.1341 53.8658 20.4233 55.4259 22.3209 55.4259C24.2852 55.4259 25.4606 53.911 25.4606 52.1252Z" fill="#191919"/>
<path d="M30.3418 53.8442V45.9949H33.77V52.7551C33.77 54.3838 34.5392 55.2198 35.85 55.2198C37.1609 55.2198 37.9988 54.3838 37.9988 52.7551V45.9988H41.4427V58.1161H38.0066V56.3972C37.2217 57.4156 36.1974 58.3418 34.4568 58.3418C31.8567 58.3418 30.3418 56.6248 30.3418 53.8442Z" fill="#191919"/>
<path d="M43.0703 52.0801V52.0349C43.0703 47.9886 45.7155 45.7732 48.5844 45.7732C50.4153 45.7732 51.5456 46.6091 52.36 47.5824V41.613H55.796V58.1162H52.3619V56.3756C51.526 57.5059 50.3721 58.3379 48.5864 58.3379C45.7607 58.3418 43.0703 56.1264 43.0703 52.0801ZM52.4051 52.0801V52.0349C52.4051 50.0236 51.0707 48.6892 49.4616 48.6892C47.8525 48.6892 46.5024 50 46.5024 52.0349V52.0801C46.5024 54.0915 47.8564 55.4258 49.4616 55.4258C51.0668 55.4258 52.4129 54.0915 52.4129 52.0801H52.4051Z" fill="#191919"/>
<path d="M58.0342 41.613H61.6507V44.6645H58.0342V41.613ZM58.1244 45.9988H61.5605V58.1162H58.1244V45.9988Z" fill="#191919"/>
<path d="M63.8896 45.9989H67.3257V47.7179C68.1106 46.7014 69.1349 45.7732 70.8755 45.7732C73.4756 45.7732 74.9964 47.4922 74.9964 50.2728V58.1221H71.5545V51.356C71.5545 49.7292 70.7853 48.8913 69.4744 48.8913C68.1636 48.8913 67.3257 49.7292 67.3257 51.356V58.1162H63.8896V45.9989Z" fill="#191919"/>
<path d="M77.1387 41.613H80.7552V44.6645H77.1387V41.613ZM77.2289 45.9988H80.6709V58.1162H77.2289V45.9988Z" fill="#191919"/>
<path d="M83.2969 55.9106V58.1163H85.2278C84.3498 57.6248 83.6679 56.8459 83.2969 55.9106Z" fill="#191919"/>
<path d="M91.3954 53.6125C91.3766 52.5333 90.9388 51.5037 90.1745 50.7416C89.4101 49.9794 88.3793 49.5445 87.3 49.5289C85.5594 49.4681 84.2035 50.1078 83.2949 51.0517V53.1788C83.9131 51.3951 85.6144 50.5748 87.041 50.5905C88.8228 50.6082 90.1964 51.9524 90.2062 53.4712C90.2062 54.9233 89.6058 55.9928 87.9633 56.2557C87.0685 56.399 85.6674 55.8751 85.7302 54.523C85.7329 54.3726 85.7669 54.2244 85.8298 54.0877C85.8927 53.9511 85.9832 53.8289 86.0957 53.729C86.2081 53.6291 86.3401 53.5535 86.4832 53.5071C86.6263 53.4607 86.7775 53.4445 86.9272 53.4594C86.3189 54.2758 87.1234 54.8743 87.6944 54.7506C87.9805 54.6872 88.2358 54.5266 88.4168 54.2962C88.5978 54.0658 88.6934 53.7798 88.6874 53.4869C88.6874 52.9747 88.2047 52.1466 87.0057 52.1741C85.5222 52.2094 84.5881 53.2769 84.5567 54.5956C84.5174 56.2577 86.0716 57.3429 87.667 57.3684C90.01 57.3978 91.3993 55.8613 91.3954 53.6125Z" fill="#191919"/>
<path d="M83.2969 45.9988V49.4858C84.4477 48.6125 85.8574 48.149 87.302 48.1691C90.74 48.1691 92.924 50.573 92.9221 53.6047C92.9221 55.7103 91.9409 57.2939 90.4005 58.1181H95.4162V45.9988H83.2969Z" fill="#191919"/>
<path d="M97.2431 46.4069H96.6309V45.9988H98.2949V46.4069H97.6846V48.0082H97.2431V46.4069Z" fill="#191919"/>
<path d="M98.6348 45.9988H99.1155L99.6434 46.8485L100.171 45.9988H100.648V48.0082H100.209V46.6954L99.6434 47.5529H99.6316L99.0724 46.7033V48.0062H98.6387V45.9988H98.6348Z" fill="#191919"/>
</g>
<defs>
<clipPath id="clip0_2358_7273">
<rect width="100" height="100" fill="white" transform="translate(0.648438)"/>
</clipPath>
</defs>
</svg>
