<svg width="101" height="100" viewBox="0 0 101 100" fill="none" xmlns="http://www.w3.org/2000/svg">
<path d="M50.3238 15C31.1482 15 15.6191 30.6647 15.6191 50C15.6191 69.3353 31.1482 85 50.3238 85C69.4863 85 85.0285 69.3353 85.0285 50C85.0285 30.6647 69.4885 15 50.3129 15H50.3238ZM50.3238 16.5378C59.1766 16.5378 67.5154 20.0247 73.7826 26.3356C80.0366 32.6247 83.5235 41.1362 83.5016 50C83.5016 58.9316 80.0498 67.3403 73.7826 73.6644C67.5963 79.9425 59.1416 83.4731 50.3238 83.4622C41.506 83.4731 33.0513 79.9425 26.8651 73.6644C20.611 67.3753 17.1132 58.8638 17.1351 50C17.1351 41.0684 20.5979 32.6597 26.8541 26.3356C33.0404 20.0466 41.506 16.5138 50.3238 16.5378ZM48.5804 28.8534C42.9301 30.3694 37.6998 33.2744 30.7282 41.2719C23.7566 49.2694 25.0779 55.8778 25.0779 55.8778C25.0779 55.8778 27.0029 51.3322 31.6295 46.5459C33.8279 44.2797 35.4576 43.5163 36.5863 43.5163C37.5882 43.4594 38.4326 44.2688 38.4326 45.2706V61.5063C38.4326 63.1119 37.3957 63.4663 36.4398 63.4422C35.6304 63.4313 34.8779 63.1469 34.8779 63.1469C39.6291 70.0506 50.9998 71.0197 50.9998 71.0197L55.9895 65.6866L56.1032 65.7894L60.6729 69.6853C69.0357 64.7175 73.0695 55.5125 73.0695 55.5125C69.3332 59.4544 66.962 60.3775 65.5488 60.3775C64.2954 60.3666 63.8054 59.6359 63.8054 59.6359C63.7376 59.2947 63.6238 54.3487 63.5779 49.405C63.532 44.2884 63.5779 39.1631 63.8295 39.15C65.2754 36.4375 69.8801 30.9688 69.8801 30.9688C61.2788 32.6663 56.5954 38.3056 56.5954 38.3056C55.2063 37.2119 52.3801 37.3934 52.3801 37.3934C53.7013 38.1219 55.0226 40.2416 55.0226 41.9959V59.2684C55.0226 59.2684 52.1395 61.8081 49.9191 61.8081C48.5979 61.8081 47.7885 61.0906 47.3445 60.4978C47.1738 60.2703 47.0251 60.0187 46.9113 59.7453V38.4172C46.6029 38.6447 46.2266 38.7694 45.8526 38.7825C45.3735 38.7825 44.8835 38.5441 44.5532 37.8484C44.3016 37.3234 44.142 36.5381 44.142 35.3875C44.142 31.4566 48.5848 28.8469 48.5848 28.8469L48.5804 28.8534Z" fill="#191919"/>
</svg>
