<svg width="101" height="100" viewBox="0 0 101 100" fill="none" xmlns="http://www.w3.org/2000/svg">
<g clip-path="url(#clip0_2359_7531)">
<path d="M35.056 38.4778L34.892 37.9563C34.81 37.7922 34.7006 37.2981 35.3861 37.2981H36.2631H37.7162C38.099 37.2981 38.1536 37.6536 38.2376 37.8196L42.1282 49.001C42.1282 49.001 42.429 49.9873 42.677 49.9873C42.9504 49.9873 43.2532 49.001 43.2532 49.001L47.0617 37.8196C47.1437 37.6555 47.1984 37.2981 47.7199 37.2981H49.9113C50.5148 37.2981 50.4874 37.6536 50.4327 37.8196L50.214 38.3957L43.5559 57.6337C43.4192 58.2646 41.802 58.2372 41.72 57.6337L35.056 38.4778Z" fill="#191919"/>
<path d="M89.6153 58.1806L82.7638 37.7922C82.6818 37.6282 82.6818 37.2708 83.2853 37.2708H85.8341C85.9981 37.2708 86.2442 37.3528 86.3556 37.7922C86.3556 37.7922 90.7676 51.1104 90.9043 51.5479C91.0684 52.0147 91.2324 52.5342 91.4258 52.5615C91.5899 52.5889 91.7813 52.2061 91.9473 51.794C92.1387 51.2451 97.3183 37.8996 97.3183 37.8996C97.373 37.7356 97.455 37.5989 97.4823 37.5168C97.537 37.4348 97.6464 37.3801 97.8105 37.3801H99.4276H100.414C101.045 37.3801 100.99 37.7356 100.935 37.9016L91.7012 61.6883L89.3985 67.2507C89.3165 67.4148 89.2618 67.5515 89.1797 67.6062C89.1524 67.7156 89.043 67.7703 88.879 67.7703H86.5489C86.3849 67.7703 86.2208 67.7156 86.0821 67.6062C85.9728 67.5242 85.9728 67.4148 86.0274 67.2507L89.6153 58.1806Z" fill="#191919"/>
<path d="M49.2773 49.3293C49.2773 48.8352 49.4414 48.425 49.7715 48.0696C50.1269 47.7141 50.5664 47.5208 51.0859 47.5208C51.58 47.5208 51.9902 47.7122 52.3457 48.0696C52.7011 48.425 52.8945 48.8645 52.8945 49.3293C52.8945 49.8508 52.7031 50.2883 52.3457 50.6437C51.9902 50.9719 51.5507 51.1379 51.0859 51.1379C50.5644 51.1379 50.1543 50.9738 49.7988 50.6164C49.4414 50.2609 49.2773 49.8508 49.2773 49.3293Z" fill="#191919"/>
<path d="M61.5536 40.7532C61.1161 40.9172 60.7587 41.22 60.4032 41.4934C60.2939 41.5481 60.1845 41.6575 60.1025 41.7395L59.8564 41.9856C59.5556 42.3684 59.3076 42.7805 59.1435 43.218C58.8974 43.7668 58.788 44.3684 58.788 45.0266V57.4678C58.788 57.8232 58.624 57.9892 58.2666 57.9892H56.1846C55.8291 57.9892 55.6631 57.8252 55.6631 57.4678V45.0539C55.6631 44.5598 55.6904 44.0949 55.7725 43.6008C55.8818 43.052 56.0459 42.5325 56.2939 42.0383C56.7041 41.0793 57.2529 40.2298 57.9384 39.5442C58.624 38.8587 59.4462 38.3118 60.3779 37.8997C60.8993 37.681 61.4189 37.5442 61.9403 37.4329C62.2411 37.3509 62.5712 37.3236 62.872 37.2689H63.4481C67.6414 37.1868 69.614 39.7903 70.1629 40.2825C70.4089 40.5286 70.4363 40.968 70.0261 41.1321L68.1629 41.6262C67.6414 41.8176 67.3133 41.7356 66.9305 41.3801C66.786 41.2727 64.4032 39.5735 61.5536 40.7532Z" fill="#191919"/>
<path d="M79.0643 54.8917H73.5839C72.7069 54.8644 70.4882 54.3429 70.4882 51.796C70.4882 50.8918 70.871 50.0148 71.3925 49.548C72.4335 48.6437 73.5839 48.6984 73.5839 48.6984H78.5447C78.8182 48.6984 78.9822 48.8352 79.0662 49.1086V54.8917H79.0643ZM81.5584 42.013C81.1482 41.054 80.5994 40.2318 79.8865 39.5462C79.201 38.8607 76.6795 36.806 71.5019 37.6283C70.9804 37.8197 71.0644 38.1498 71.5566 38.642C71.7753 38.8334 72.6249 39.7923 72.9276 40.0404C73.5038 40.5072 73.8319 40.4505 74.0507 40.4232C78.6541 40.1771 79.0662 44.3684 79.0662 45.0266V45.1907C78.9842 45.4368 78.8201 45.5461 78.5447 45.5461H73.5839C72.7616 45.5461 71.9667 45.7102 71.1992 46.0403C70.4316 46.3684 69.7734 46.8078 69.1992 47.3547C68.623 47.9035 68.1855 48.5598 67.8555 49.3273C67.5273 50.0949 67.3613 50.8898 67.3613 51.7667C67.3613 52.589 67.5254 53.3839 67.8555 54.1515C68.1836 54.919 68.623 55.5772 69.1992 56.1514C69.7754 56.7276 70.4316 57.1651 71.1992 57.4952C71.9667 57.8252 72.7616 57.9893 73.5839 57.9893H79.449H79.6131H81.6951C82.0505 57.9893 82.2166 57.8252 82.2166 57.4678V45.054C82.1892 43.9856 81.9705 42.972 81.5584 42.013Z" fill="#191919"/>
<path d="M16.6941 36.9974C18.8581 36.9974 20.6393 36.4485 20.6393 35.7923C20.6667 35.1341 18.9128 34.5872 16.7488 34.5872C14.5847 34.5872 12.8035 35.1361 12.8035 35.7923C12.7762 36.4232 14.5301 36.9974 16.6941 36.9974ZM16.366 60.6747C8.77429 60.6747 2.63767 54.5361 2.63767 46.9464C2.63767 42.507 4.74701 38.5891 8.00868 36.0677C2.5283 42.261 8.66687 55.6064 12.202 55.9619C16.614 56.2353 18.2859 42.3156 23.4655 40.5344C27.356 39.0813 30.2896 44.8918 28.5083 51.4405C26.6978 57.0302 22.0924 60.5653 16.366 60.6747ZM10.036 35.6009C11.077 34.4232 12.8309 33.5189 15.2156 33.2709C15.5984 33.2435 15.9832 33.2162 16.366 33.2162C20.2565 33.2162 23.7369 34.8333 26.231 37.4095C25.8756 37.3001 25.3814 37.136 24.4498 37.136C16.8581 37.136 14.284 52.1534 12.0086 52.0987C10.5008 52.1514 5.35052 40.8625 10.036 35.6009ZM16.366 32.2299C7.84266 32.2299 0.96582 39.136 0.96582 47.63C0.96582 56.124 7.87196 63.0302 16.366 63.0302C24.86 63.0302 31.7661 56.124 31.7661 47.63C31.7661 39.136 24.8873 32.2299 16.366 32.2299Z" fill="#191919"/>
</g>
<defs>
<clipPath id="clip0_2359_7531">
<rect width="100" height="100" fill="white" transform="translate(0.96582)"/>
</clipPath>
</defs>
</svg>
