<svg width="100" height="100" viewBox="0 0 100 100" fill="none" xmlns="http://www.w3.org/2000/svg">
<rect width="100" height="100" fill="white"/>
<path fill-rule="evenodd" clip-rule="evenodd" d="M8.32445 40.246C7.66868 40.6363 7.62311 40.9939 7.66584 45.4178L7.70431 49.387H8.20801H8.71171L8.68486 45.4178C8.66382 42.3154 8.6948 41.4003 8.8266 41.2277C8.9837 41.0217 9.59636 41.178 17.8236 43.5238C22.6791 44.9082 26.6717 46.0603 26.6959 46.084C26.7953 46.1811 26.7465 57.1852 26.6462 57.2831C26.5863 57.3415 25.644 57.134 24.5519 56.8219C23.46 56.5098 22.5192 56.2543 22.4612 56.2543C22.4032 56.2543 22.3559 56.4778 22.3559 56.7507V57.2472L23.4208 57.5597C26.3908 58.4311 26.3819 58.4292 26.8848 58.2822C27.8588 57.9973 27.8372 58.1355 27.8821 51.8896C27.9253 45.8767 27.9049 45.6649 27.2398 45.2491C27.074 45.1455 25.0506 44.5211 22.7431 43.8616C11.607 40.6785 9.18495 39.9995 8.96976 40C8.84171 40.0003 8.55139 40.1109 8.32445 40.246ZM38.4597 44.7535L37.9756 44.803V50.1573V55.5115L38.6533 55.4734L39.331 55.4353L39.3664 53.3247L39.4017 51.2141H40.4725C42.9868 51.2141 44.4935 50.1045 44.6556 48.1335C44.7904 46.4948 43.96 45.2978 42.39 44.8678C41.6759 44.6722 39.7924 44.6175 38.4597 44.7535ZM84.2861 44.7467L83.802 44.803V50.1633V55.5238L85.9642 55.4744C87.868 55.431 88.2055 55.3908 88.7871 55.1383C90.0002 54.6117 90.6622 53.649 90.6622 52.4111C90.6622 51.2639 90.1554 50.484 89.052 49.9334L88.5578 49.6866L89.122 49.3218C89.9593 48.7805 90.2977 48.1108 90.2333 47.1234C90.1692 46.1385 89.7668 45.5656 88.7962 45.0769C88.1816 44.7673 87.9883 44.7376 86.4483 44.715C85.5253 44.7016 84.5524 44.7158 84.2861 44.7467ZM92.6661 44.7458C92.6188 44.7919 92.58 47.2301 92.58 50.1641V55.4983H93.29H94V50.08V44.6617H93.3761C93.0329 44.6617 92.7134 44.6995 92.6661 44.7458ZM85.6415 45.7559L85.222 45.8118V47.5048V49.198H86.2588C87.4127 49.198 87.9629 49.0255 88.4492 48.511C88.7163 48.2285 88.7719 48.0434 88.7719 47.4369C88.7719 46.6198 88.5486 46.2596 87.8683 45.9798C87.4158 45.7935 86.2429 45.6756 85.6415 45.7559ZM39.3955 47.9261V50.08L40.396 50.0704C41.864 50.0563 42.5645 49.7359 43.0157 48.8721C43.5065 47.9322 43.2637 46.8498 42.421 46.222C41.9736 45.8885 41.8299 45.8553 40.6646 45.8155L39.3955 45.7722V47.9261ZM19.3779 46.7271C19.0744 46.8229 18.864 47.0056 18.7094 47.3079C18.5045 47.708 18.4836 48.2708 18.4835 53.369L18.4832 58.9892L18.776 59.4133C19.1678 59.9809 19.7591 60.1483 20.3689 59.8644C21.1852 59.4845 21.1942 59.4135 21.1933 53.3917C21.1929 50.1404 21.1407 47.8186 21.0619 47.5414C20.8571 46.822 20.1544 46.4822 19.3779 46.7271ZM48.1363 47.7766C47.3289 48.0392 46.4384 48.8159 46.0183 49.6235C45.5376 50.5478 45.4511 52.2427 45.8341 53.2302C46.1878 54.142 46.704 54.7333 47.5292 55.1717C49.328 56.1273 51.7784 55.4657 52.7245 53.7687C53.3899 52.5755 53.4285 50.7384 52.8143 49.5C52.0445 47.9477 49.9649 47.1816 48.1363 47.7766ZM68.8749 47.6971C68.6522 47.7601 68.188 47.996 67.8432 48.2213C66.0752 49.3765 65.6786 52.7263 67.1159 54.3653C67.3634 54.6475 67.8642 55.0299 68.229 55.2152C68.809 55.5098 69.0462 55.5526 70.1186 55.5567C70.7931 55.5592 71.655 55.4836 72.0342 55.3886L72.7232 55.2158L72.6356 54.7595C72.5123 54.1185 72.5099 54.117 71.8409 54.3135C70.9843 54.5652 69.6531 54.5359 69.0112 54.2513C68.2235 53.9021 67.886 53.4061 67.6112 52.1932L67.5332 51.849L70.3427 51.8151L73.1522 51.7811L73.1216 50.8991C73.0389 48.5072 71.1214 47.0615 68.8749 47.6971ZM77.5106 47.8047C77.1408 47.9707 76.8399 48.2406 76.5816 48.6381L76.1995 49.2262L76.1603 48.4876L76.1212 47.7489L75.5061 47.7105L74.8912 47.6719L74.9252 51.5537L74.9594 55.4353L75.6219 55.4729L76.2845 55.5104L76.3394 53.0157C76.3895 50.7389 76.4194 50.4738 76.6825 49.9806C77.0418 49.307 77.6237 48.9471 78.3547 48.9465L78.9102 48.946L78.8711 48.2844C78.8336 47.6501 78.8162 47.6216 78.4448 47.5911C78.2318 47.5736 77.8114 47.6698 77.5106 47.8047ZM54.1116 47.8212C54.1116 47.8957 54.6081 49.5542 55.215 51.5069C55.8217 53.4596 56.3494 55.1594 56.3875 55.284C56.4444 55.4707 56.5726 55.5041 57.112 55.473L57.7674 55.4353L58.4658 53.4192C58.8498 52.3103 59.2945 50.9282 59.454 50.3477L59.7439 49.2922L60.0341 50.3477C60.1938 50.9282 60.6278 52.3103 60.9985 53.4192L61.6727 55.4353L62.3208 55.4726L62.9688 55.5098L64.2226 51.6924C64.9123 49.5928 65.4754 47.8324 65.474 47.7804C65.4726 47.7284 65.1797 47.6859 64.8233 47.6859C64.2737 47.6859 64.1561 47.7291 64.0512 47.9694C63.9407 48.2223 62.664 52.7149 62.4309 53.6712L62.3387 54.0492L62.2209 53.6082C62.1559 53.3656 61.7188 51.9312 61.2495 50.4205L60.3961 47.6737L59.8034 47.7114L59.2106 47.7489L58.6588 49.387C58.3553 50.2879 57.9294 51.6205 57.7124 52.3481C57.4954 53.0758 57.2898 53.7563 57.2555 53.8602C57.2211 53.9642 56.8839 52.8585 56.5061 51.4031C56.1283 49.9477 55.7522 48.5159 55.6704 48.2214L55.5217 47.6859H54.8166C54.4003 47.6859 54.1116 47.7413 54.1116 47.8212ZM15.4248 48.0652C14.7325 48.3374 14.7213 48.4251 14.7349 53.4177C14.7438 56.696 14.791 58.1021 14.8979 58.2692C15.2144 58.764 16.2445 58.9419 16.7586 58.5905C17.3035 58.2179 17.3329 57.9204 17.2939 53.1823L17.2569 48.673L16.8353 48.3055C16.4031 47.9287 15.9627 47.8536 15.4248 48.0652ZM49.0772 48.6956C48.1243 48.8595 47.5166 49.4576 47.1906 50.5522C46.5256 52.7849 48.0463 54.9705 49.9204 54.476C51.656 54.018 52.3817 51.2903 51.2142 49.6132C50.6784 48.8434 49.9744 48.5411 49.0772 48.6956ZM69.0214 48.7459C68.5226 48.9622 68.1168 49.3967 67.8658 49.9833C67.4899 50.8613 67.4349 50.8361 69.7314 50.8361C72.0347 50.8361 71.9676 50.8673 71.6497 49.9413C71.2694 48.8327 70.0742 48.2891 69.0214 48.7459ZM11.2443 49.5663L10.867 49.9346V53.3562V56.7778L11.2443 57.1461C11.8443 57.7318 12.8824 57.5879 13.2648 56.8661C13.5412 56.3443 13.5319 50.3503 13.2538 49.8255C12.8601 49.0824 11.8708 48.9548 11.2443 49.5663ZM85.222 52.3347C85.222 54.5559 85.1947 54.4903 86.1146 54.4903C86.3809 54.4903 86.9356 54.4242 87.3473 54.3436C89.1789 53.9845 89.8275 52.105 88.5094 50.9753C87.9552 50.5003 87.3454 50.3337 86.1579 50.3328L85.222 50.332V52.3347ZM7.70431 50.6043C7.04441 50.9585 7 51.1358 7 53.4192C7 55.7177 7.04699 55.8996 7.72806 56.2396C8.32032 56.5352 9.09111 56.3002 9.39214 55.7321C9.63057 55.282 9.65419 51.6452 9.42183 51.1476C9.15062 50.5663 8.28508 50.2926 7.70431 50.6043Z" fill="#191919"/>
</svg>
