<svg width="100" height="100" viewBox="0 0 100 100" fill="none" xmlns="http://www.w3.org/2000/svg">
<rect width="100" height="100" fill="white"/>
<path d="M6.53541 42.3417V43.6833H3.97754V44.5251H6.53541V47.2499H7.48398V44.5251H10.0801V43.6833H7.48398V41H6.53541V42.3417Z" fill="white"/>
<path d="M17.254 42.3417V43.6833H14.6963V44.5666H17.254V47.2499H18.241V44.5666H20.7987V43.6833H18.241V41H17.254V42.3417Z" fill="white"/>
<path d="M11.8127 46.9174V48.4207H8.9668V49.5407H11.8127V52.5471H12.9647V49.5407H15.8105V48.4207H12.9647V45.4141H11.8127V46.9174Z" fill="white"/>
<path d="M20.1804 47.6738V48.6171H18.4482V49.3801H20.1804V51.263H21.0444V49.3801H22.7765V48.6171H21.0444V46.7344H20.1804V47.6738Z" fill="white"/>
<path d="M3.68975 47.7536V48.6556H2V49.2945H3.68975V51.0984H4.35031V49.2945L6.08244 49.2343V48.6556H4.35031V46.8516H3.68975V47.7536Z" fill="white"/>
<path d="M6.53541 52.0057V53.3474H3.97754V54.2307H6.53541V56.914H7.52241V54.2307H10.0801V53.3474H7.52241V50.6641H6.53541V52.0057Z" fill="white"/>
<path d="M17.254 52.0057V53.3474H14.6963V54.1892H17.254V56.914H18.241V54.1892H20.7987V53.3474H18.241V50.6641H17.254V52.0057Z" fill="white"/>
<path d="M11.9771 55.4122V56.3517H10.2451V57.1146H11.9771V58.9976H12.8412V57.1146H14.5732V56.3517H12.8412V54.4688H11.9771V55.4122Z" fill="white"/>
<path d="M65.2367 43.0859V54.5111H63.9195V43.0859H65.2367ZM32.5046 44.6907V48.3362H36.0493V49.539H32.5046V53.4663H31.1873V49.539H27.6426V48.3362H31.1873V44.6907H32.5046ZM73.7318 47.1938C73.9699 47.2048 74.2733 47.2426 74.4116 47.2764C74.5801 47.322 74.7445 47.3811 74.9031 47.4531C75.0415 47.5133 75.2642 47.6447 75.3986 47.7461C75.5368 47.8476 75.7288 48.0357 75.8288 48.1634C75.9285 48.2911 76.0706 48.5241 76.1475 48.6782C76.2244 48.8324 76.3241 49.103 76.3703 49.2795C76.4162 49.4562 76.47 49.8133 76.5124 50.5423H71.9575L71.9845 50.6927C71.9959 50.7753 72.0458 50.952 72.0842 51.0836C72.1266 51.2151 72.2342 51.4217 72.3186 51.5382C72.403 51.6547 72.5297 51.7938 72.595 51.8428C72.6643 51.8916 72.8025 51.9742 72.9062 52.0269C73.0325 52.0851 73.1635 52.1328 73.2979 52.1696C73.413 52.1997 73.7203 52.2259 73.9969 52.2259C74.2695 52.2259 74.6612 52.1997 74.8648 52.1659C75.0685 52.1322 75.3563 52.0645 75.5023 52.0191C75.6482 51.9742 75.8402 51.9028 75.9248 51.8614C76.0091 51.8201 76.0975 51.7825 76.1205 51.7825C76.1464 51.7825 76.1616 51.9927 76.1627 52.865V52.9852L75.9362 53.0867C75.8094 53.143 75.5483 53.2333 75.3486 53.2896C75.1489 53.3423 74.7842 53.4098 74.5345 53.4362C74.1926 53.47 73.9622 53.47 73.605 53.4362C73.344 53.4098 72.9638 53.3423 72.7601 53.2858C72.5567 53.2294 72.261 53.1168 72.1073 53.034C71.9498 52.9514 71.6848 52.7597 71.5159 52.6056C71.343 52.4514 71.128 52.1997 71.0282 52.0456C70.9283 51.8914 70.8055 51.6285 70.7477 51.4632C70.6901 51.2977 70.6211 51.0083 70.5941 50.8241C70.5634 50.6175 70.5557 50.3281 70.5711 50.1026C70.5827 49.8922 70.6326 49.5764 70.6787 49.3999C70.7248 49.2234 70.8362 48.9338 70.9243 48.7571C71.0128 48.5806 71.1778 48.3287 71.2855 48.1971C71.3968 48.0656 71.6156 47.8626 71.7731 47.7461C71.9306 47.6296 72.1956 47.4832 72.3608 47.4155C72.522 47.3478 72.8025 47.2689 72.9791 47.2351C73.1903 47.1975 73.4438 47.1825 73.7318 47.1938ZM87.4155 47.1336V49.148C87.4155 50.2568 87.4039 51.5834 87.3538 53.0303L87.0236 53.128C86.8431 53.1806 86.4782 53.2634 86.2095 53.3047C85.8677 53.3648 85.5413 53.3872 85.0995 53.3872C84.75 53.3872 84.3469 53.3685 84.2008 53.3459C84.0549 53.3197 83.767 53.2483 83.5633 53.1845C83.3445 53.1166 83.0603 52.9852 82.8836 52.8725C82.7108 52.7634 82.4726 52.5716 82.3498 52.4402C82.2308 52.3125 82.0618 52.087 81.981 51.9441C81.9004 51.8014 81.789 51.5382 81.7354 51.3654C81.6548 51.1136 81.6317 50.9182 81.6124 50.4634C81.601 50.0988 81.6124 49.7757 81.6431 49.5991C81.67 49.445 81.7391 49.1856 81.7969 49.0202C81.8505 48.8549 81.9773 48.5918 82.0772 48.4377C82.1732 48.2836 82.3806 48.0393 82.5379 47.8964C82.7147 47.7386 82.9451 47.5771 83.1332 47.4869C83.3021 47.408 83.548 47.3102 83.6863 47.2727C83.8208 47.2388 84.1549 47.1975 84.4275 47.1863C84.7924 47.1713 85.0035 47.1863 85.23 47.2313C85.4029 47.2689 85.6603 47.3516 85.81 47.4191C85.956 47.4832 86.0828 47.5395 86.0865 47.5357C86.0936 47.5357 86.0974 47.4599 86.098 47.3634V47.1336H87.4155ZM46.6451 47.1336V49.6397L46.6446 49.9014C46.6418 51.0775 46.6251 52.232 46.5836 53.0303L46.2535 53.128C46.0729 53.1806 45.6928 53.2634 45.4086 53.3122C44.9745 53.3836 44.7786 53.3911 44.1527 53.376C43.5728 53.361 43.3386 53.3384 43.0811 53.2746C42.8968 53.2258 42.582 53.1092 42.3784 53.0114C42.1633 52.9063 41.9059 52.741 41.76 52.6169C41.6256 52.4966 41.4338 52.2825 41.3415 52.1434C41.2455 52.0004 41.1188 51.7751 41.065 51.6436C41.0111 51.512 40.9305 51.2489 40.8921 51.0647C40.8385 50.7942 40.8268 50.5949 40.8422 50.1215C40.8613 49.6665 40.8883 49.4448 40.9536 49.2195C41.0035 49.054 41.1186 48.7836 41.2071 48.618C41.2952 48.4529 41.472 48.201 41.6027 48.0619C41.737 47.9191 41.956 47.7311 42.0902 47.641C42.2248 47.5546 42.4476 47.438 42.5858 47.3854C42.7631 47.3199 42.9455 47.2684 43.1312 47.2313C43.2962 47.2012 43.6035 47.1749 43.8109 47.1749C44.022 47.1749 44.3216 47.205 44.4829 47.2351C44.6404 47.2689 44.89 47.3516 45.0398 47.4191C45.1858 47.4832 45.3126 47.5395 45.3163 47.5357C45.3201 47.5357 45.3278 47.4456 45.3278 47.3366V47.1336H46.6451ZM54.3529 44.2887L54.3531 46.1984C54.3544 47.3764 54.3656 47.4516 54.4258 47.4342C54.4682 47.4191 54.6677 47.3667 54.8713 47.3102C55.1132 47.2463 55.4051 47.205 55.7162 47.1863C56.0696 47.1713 56.2768 47.1826 56.5382 47.2313C56.761 47.2727 57.0257 47.3628 57.2601 47.4757C57.4637 47.5733 57.7326 47.7386 57.8593 47.8476C57.9821 47.9529 58.1781 48.1746 58.2895 48.3401C58.4046 48.5052 58.5467 48.7685 58.6082 48.93C58.6735 49.0878 58.7541 49.3848 58.7925 49.5914C58.8386 49.8621 58.8501 50.0951 58.8347 50.4634C58.8233 50.7377 58.7809 51.0799 58.7425 51.2226C58.708 51.3654 58.6159 51.6098 58.5428 51.7639C58.4698 51.9179 58.324 52.1547 58.2203 52.2861C58.1203 52.4177 57.9169 52.6131 57.7708 52.7221C57.6289 52.8311 57.3677 52.9814 57.1988 53.0566C57.0296 53.1355 56.7493 53.2333 56.5804 53.2784C56.3155 53.3498 56.1463 53.361 55.386 53.3647C54.6679 53.3685 54.4335 53.3536 54.1495 53.2933C53.9138 53.2409 53.6794 53.1833 53.4465 53.1204C53.2545 53.0678 53.0856 53.0078 53.0702 52.9927C53.0548 52.9777 53.0357 51.0158 53.028 48.6294L53.0126 44.2887H54.3529ZM93.8903 47.2953L93.8865 49.3096V49.828C93.8878 51.0786 93.8959 51.3191 93.9461 51.5116L93.9518 51.532C93.9565 51.549 93.9616 51.5661 93.9671 51.5834C94.017 51.7338 94.1093 51.9103 94.1861 52.0004C94.2591 52.0832 94.4126 52.196 94.5278 52.2485C94.6391 52.3012 94.8542 52.3614 95.0003 52.3801C95.1578 52.4026 95.3805 52.4026 95.5378 52.3801C95.6839 52.3614 95.899 52.3012 96.0103 52.2485C96.1255 52.196 96.279 52.0834 96.3521 52.0004C96.429 51.9103 96.5248 51.7336 96.5709 51.5834C96.5771 51.5637 96.5828 51.5448 96.588 51.5248L96.5918 51.5096C96.6398 51.3114 96.6493 50.9536 96.6512 48.7267V48.547L96.6514 48.4542V47.9595L96.6516 47.8542V47.2953H97.9999L97.9922 49.4713C97.9888 51.2869 97.9853 51.5982 97.932 51.8036L97.9271 51.8219L97.9191 51.8483L97.9135 51.8661L97.9076 51.8841C97.8615 52.0155 97.7655 52.2147 97.6926 52.3237C97.6194 52.4364 97.4929 52.5905 97.4046 52.6733C97.3202 52.7558 97.1357 52.8874 97.0015 52.9663C96.8668 53.0452 96.6058 53.1544 96.4253 53.2107C96.2179 53.2746 95.9413 53.3234 95.6841 53.3423C95.4535 53.3535 95.0848 53.3535 94.8583 53.3386C94.6011 53.3234 94.3206 53.2746 94.1171 53.2107C93.9328 53.1544 93.6754 53.0454 93.5372 52.9663C93.4028 52.8874 93.2222 52.7558 93.1341 52.6733C93.0495 52.5907 92.9188 52.4366 92.8459 52.3237C92.7767 52.2147 92.6809 52.0155 92.6348 51.8841L92.6316 51.8751L92.6256 51.8577C92.6195 51.8401 92.614 51.8222 92.6091 51.8043L92.6042 51.7856C92.5528 51.5782 92.5485 51.223 92.5386 49.4713L92.5234 47.2951L93.8903 47.2953ZM84.777 48.3814C84.6309 48.3814 84.4082 48.4114 84.2854 48.4415C84.1586 48.4753 83.9666 48.5505 83.8553 48.6105C83.7439 48.6705 83.5826 48.7947 83.4943 48.8887C83.406 48.9826 83.2907 49.148 83.2331 49.2608C83.1754 49.3698 83.1025 49.5727 83.068 49.7118C83.0335 49.847 83.0065 50.1138 83.0065 50.3017C83.0065 50.4896 83.0335 50.7566 83.068 50.8918C83.1025 51.0309 83.1679 51.2188 83.2178 51.3127C83.2676 51.4067 83.3944 51.572 83.4981 51.6773C83.6018 51.7863 83.7707 51.914 83.8706 51.963C83.9743 52.0155 84.1586 52.087 84.2854 52.1208C84.4275 52.1621 84.6617 52.1847 84.9343 52.1847C85.1649 52.1847 85.4912 52.1659 85.6525 52.1434C85.8176 52.1208 85.9751 52.087 85.9982 52.0718C86.0327 52.0531 86.052 51.5683 86.0635 50.407L86.0751 48.7648C85.6603 48.558 85.4299 48.4716 85.2915 48.4377C85.1571 48.4039 84.9266 48.3775 84.777 48.3814ZM43.5113 48.4415C43.3885 48.4753 43.1963 48.5505 43.0851 48.6105C42.9739 48.6705 42.8123 48.7947 42.724 48.8887C42.6356 48.9826 42.5166 49.148 42.463 49.2608C42.4052 49.3698 42.3323 49.5727 42.2978 49.7118C42.2631 49.847 42.2363 50.0951 42.2363 50.2604C42.2363 50.4258 42.2556 50.6702 42.2785 50.8017C42.3055 50.9331 42.3745 51.1511 42.4397 51.2826C42.5166 51.4404 42.6396 51.6021 42.7971 51.745C42.9506 51.8841 43.1312 52.0004 43.2885 52.0606C43.4805 52.1358 43.6343 52.1584 44.0297 52.1771C44.3102 52.1885 44.6635 52.1735 44.8517 52.147C45.0321 52.1208 45.2012 52.087 45.228 52.0718C45.2588 52.0531 45.2818 51.5307 45.3011 50.4107L45.3278 48.7797C44.9899 48.5993 44.8016 48.5166 44.6865 48.479C44.5751 48.4377 44.314 48.4001 44.1105 48.3927C43.857 48.3814 43.6688 48.3964 43.5113 48.4415ZM55.6125 48.3814C55.455 48.385 55.2476 48.4039 55.1593 48.4226C55.0673 48.4415 54.856 48.5052 54.6831 48.5656L54.376 48.6707V52.0045C55.0211 52.1698 55.1593 52.1812 55.5895 52.1698C56.0119 52.1586 56.1501 52.1397 56.3537 52.0647C56.4881 52.012 56.6762 51.9142 56.7647 51.8428C56.857 51.7753 56.9875 51.6474 57.0566 51.561C57.1256 51.4746 57.2254 51.2942 57.2755 51.1626C57.3293 51.0311 57.3908 50.7791 57.4138 50.6026C57.4483 50.3623 57.4483 50.1968 57.4101 49.9412C57.3811 49.722 57.3162 49.5089 57.2179 49.31C57.141 49.1481 57.0066 48.9491 56.9222 48.8663C56.8378 48.7837 56.6841 48.6672 56.5804 48.6107C56.4805 48.5507 56.2847 48.4755 56.1463 48.4417C56.0119 48.4041 55.77 48.3775 55.6125 48.3814ZM73.2748 48.4379C73.1518 48.4718 72.9523 48.5582 72.8293 48.6296C72.7063 48.701 72.5336 48.8401 72.4414 48.9379C72.3533 49.0391 72.234 49.2047 72.1802 49.3098C72.1264 49.4149 72.0805 49.5166 72.0805 49.5391C72.0805 49.5641 72.5507 49.579 73.4215 49.5802H75.0298C74.9876 49.2836 74.9492 49.1369 74.9185 49.058C74.884 48.9828 74.784 48.8401 74.6957 48.7461C74.5883 48.6296 74.4576 48.5469 74.308 48.4905C74.1812 48.4492 73.9508 48.4041 73.7933 48.3927C73.609 48.3854 73.4207 48.4002 73.2748 48.4379Z" fill="white"/>
</svg>
