<svg width="100" height="100" viewBox="0 0 100 100" fill="none" xmlns="http://www.w3.org/2000/svg">
<rect width="100" height="100" fill="white"/>
<path d="M52.6686 44.1504C53.6793 43.9631 54.6164 43.4935 55.3714 42.796C56.1264 42.0985 56.6686 41.2014 56.9351 40.2087C57.2017 39.216 57.1819 38.168 56.8778 37.1861C56.5738 36.2042 55.9981 35.3284 55.2171 34.66C54.4362 33.9915 53.4821 33.5578 52.465 33.409C51.4479 33.2601 50.4095 33.4022 49.4698 33.8188C48.53 34.2353 47.7274 34.9094 47.1548 35.763C46.5821 36.6166 46.2627 37.6149 46.2336 38.6424H48.8841C50.9744 38.6424 52.6686 40.3367 52.6686 42.4269V44.1504ZM43.0049 61.5609H48.8841C50.9744 61.5609 52.6686 59.8666 52.6686 57.7764V45.9121H58.9304C59.3473 45.9228 59.7431 46.0983 60.0307 46.4004C60.3184 46.7024 60.4745 47.1062 60.4649 47.5231V57.1846C60.5229 59.6863 59.5856 62.1087 57.8589 63.9198C56.1321 65.7308 53.7572 66.7826 51.2556 66.8439C47.6151 66.7539 44.5056 64.6164 43.0049 61.5564V61.5609ZM67.1631 40.4739C67.1631 40.9687 67.0657 41.4586 66.8763 41.9157C66.687 42.3728 66.4095 42.7882 66.0596 43.138C65.7098 43.4879 65.2944 43.7654 64.8373 43.9547C64.3802 44.1441 63.8903 44.2415 63.3955 44.2415C62.9007 44.2415 62.4108 44.1441 61.9537 43.9547C61.4966 43.7654 61.0812 43.4879 60.7314 43.138C60.3815 42.7882 60.104 42.3728 59.9147 41.9157C59.7253 41.4586 59.6279 40.9687 59.6279 40.4739C59.6279 39.4747 60.0248 38.5164 60.7314 37.8098C61.438 37.1032 62.3963 36.7063 63.3955 36.7063C64.3947 36.7063 65.353 37.1032 66.0596 37.8098C66.7662 38.5164 67.1631 39.4747 67.1631 40.4739ZM62.1276 61.8219L61.8576 61.8174C62.4579 60.3396 62.7496 58.7546 62.7149 57.1599V47.5456C62.7236 46.9837 62.6083 46.4268 62.3774 45.9144H66.4094C67.2869 45.9144 68.0001 46.6277 68.0001 47.5051V55.9764C67.9989 57.5264 67.3827 59.0125 66.2867 60.1085C65.1907 61.2045 63.7046 61.8207 62.1546 61.8219H62.1276Z" fill="white"/>
<path d="M33.5345 40.8929H48.884C49.7323 40.8929 50.4185 41.5791 50.4185 42.4274V57.7769C50.4191 57.9785 50.3798 58.1784 50.3029 58.3648C50.226 58.5512 50.113 58.7206 49.9704 58.8632C49.8278 59.0059 49.6584 59.1189 49.4719 59.1958C49.2855 59.2727 49.0857 59.312 48.884 59.3114H33.5345C33.3328 59.312 33.133 59.2727 32.9466 59.1958C32.7601 59.1189 32.5907 59.0059 32.4481 58.8632C32.3055 58.7206 32.1925 58.5512 32.1156 58.3648C32.0387 58.1784 31.9994 57.9785 32 57.7769V42.4251C32 41.5769 32.6863 40.8929 33.5345 40.8929ZM45.248 46.7339V45.1139H37.1705V46.7339H40.2238V55.0926H42.1813V46.7339H45.248Z" fill="white"/>
</svg>
