<svg width="100" height="100" viewBox="0 0 100 100" fill="none" xmlns="http://www.w3.org/2000/svg">
<rect width="100" height="100" fill="white"/>
<path d="M60.6224 47.5572C63.2315 47.5572 64.7112 49.5986 64.5784 52.4321H58.4239C58.6014 53.6322 59.6669 54.4786 60.8458 54.356C61.2452 54.3657 61.6425 54.2941 62.0146 54.1454C62.3868 53.9968 62.7265 53.7739 63.0141 53.4899L64.0891 54.6839C63.6719 55.1244 63.1681 55.4692 62.6111 55.6953C62.0541 55.9214 61.4565 56.0237 60.858 55.9954C58.2307 55.9954 56.5335 54.2013 56.5335 51.7762C56.5212 51.2214 56.6184 50.6696 56.8192 50.1541C57.0199 49.6386 57.3202 49.1698 57.7019 48.7759C58.0837 48.382 58.5391 48.0711 59.0409 47.8617C59.5427 47.6522 60.0806 47.5487 60.6224 47.5572ZM32.4597 47.5572C35.0689 47.5572 36.5485 49.5986 36.4157 52.4321H30.2673C30.4448 53.6295 31.5064 54.4749 32.6831 54.356C33.0825 54.3657 33.4798 54.2941 33.852 54.1454C34.2242 53.9968 34.5639 53.774 34.8515 53.4899L35.9265 54.6839C35.5093 55.1244 35.0055 55.4692 34.4485 55.6953C33.8914 55.9214 33.2938 56.0237 32.6953 55.9954C30.068 55.9954 28.3709 54.2013 28.3709 51.7762C28.3587 51.2214 28.4558 50.6697 28.6566 50.1542C28.8574 49.6386 29.1576 49.1699 29.5393 48.776C29.9211 48.3822 30.3765 48.0712 30.8783 47.8618C31.3801 47.6524 31.9179 47.5487 32.4597 47.5572ZM72.1943 49.073L70.787 49.9143C70.5931 49.6191 70.3287 49.3795 70.019 49.2182C69.7094 49.0568 69.3646 48.9792 69.0174 48.9925C68.1176 48.9925 67.6585 49.444 67.6585 49.9639C67.6585 50.4834 68.3832 50.7061 69.5247 50.9659L69.6029 50.9836L69.6813 51.0017C69.7206 51.0107 69.76 51.02 69.7994 51.0296L69.8782 51.0489C69.9045 51.0554 69.9308 51.062 69.9572 51.0688L70.0362 51.0893L70.115 51.1105C71.2306 51.4165 72.2909 51.9483 72.2909 53.3787C72.2909 54.4984 71.3426 56.0017 69.0959 55.9893C68.4046 56.0413 67.713 55.8931 67.0999 55.5617C66.4869 55.2302 65.9773 54.7288 65.6292 54.1148L67.1451 53.2797C67.3453 53.6468 67.6396 53.9508 67.9961 54.1591C68.3527 54.3673 68.7581 54.4718 69.1684 54.4613C70.1167 54.4613 70.6058 53.9602 70.6058 53.391C70.6058 52.8218 69.6878 52.5991 68.6912 52.3889L68.6104 52.3712L68.5295 52.3531L68.489 52.3438L68.4083 52.325C67.1568 52.0289 65.9554 51.5296 65.9554 49.9762C65.9554 48.6956 67.1632 47.5016 69.0114 47.5016C69.6287 47.4635 70.2453 47.588 70.8024 47.863C71.3596 48.1381 71.8387 48.5547 72.1943 49.073ZM54.9451 44V55.8283H53.2661V54.7147C52.9484 55.1176 52.5461 55.4419 52.0892 55.6637C51.6323 55.8854 51.1325 55.9988 50.6269 55.9954C50.0954 55.9907 49.5702 55.8771 49.0822 55.6611C48.5943 55.4452 48.1535 55.1313 47.786 54.7381C47.4184 54.3448 47.1314 53.8801 46.9419 53.3714C46.7525 52.8628 46.6645 52.3204 46.683 51.7762C46.6601 51.2303 46.7456 50.6853 46.9343 50.1742C47.123 49.6631 47.411 49.1965 47.7808 48.8027C48.1506 48.4089 48.5946 48.096 49.0858 47.883C49.5771 47.67 50.1055 47.5613 50.6389 47.5634C51.1386 47.5597 51.633 47.6686 52.087 47.8824C52.5411 48.0962 52.9436 48.4098 53.2661 48.8008V44H54.9451ZM26.9455 47.755V49.3388L22.1984 54.288H27.0301V55.8469H20V54.2693L24.7472 49.3203H20.1087V47.7552L26.9455 47.755ZM75.3288 44V51.7454L78.8861 47.7118H80.9276L77.8413 51.1824L81 55.8283H79.1096L76.6576 52.234L75.3288 53.725V55.8345H73.6499V44H75.3288ZM41.6943 47.5634C43.6875 47.5634 45.3665 48.8934 45.3665 51.0958V55.8283H43.6392V51.3124C43.6392 49.9885 43.0111 49.1904 41.7427 49.1904C41.4687 49.1697 41.1935 49.2109 40.9368 49.3113C40.6801 49.4117 40.4482 49.5687 40.2574 49.7713C40.0665 49.9738 39.9216 50.2168 39.8328 50.4832C39.744 50.7495 39.7135 51.0326 39.7435 51.3124V55.8284H38.0343V51.0959C38.0343 48.8935 39.7011 47.5634 41.6943 47.5634ZM50.8565 49.2151C49.4756 49.2151 48.3561 50.3617 48.3561 51.7762C48.3561 53.1908 49.4755 54.3374 50.8565 54.3374C52.2374 54.3374 53.3569 53.1908 53.3569 51.7762C53.3569 50.3617 52.2374 49.2151 50.8565 49.2151ZM58.4181 51.0772L62.7243 51.0833C62.6658 49.9679 61.7357 49.1121 60.6466 49.1718C59.5291 49.1046 58.5533 49.939 58.4181 51.0772ZM30.2675 51.0772L34.5616 51.0833C34.4999 49.9704 33.5708 49.1183 32.484 49.178C31.373 49.1172 30.4054 49.9464 30.2675 51.0772Z" fill="#191919"/>
</svg>
