<svg width="101" height="101" viewBox="0 0 101 101" fill="none" xmlns="http://www.w3.org/2000/svg">
<g clip-path="url(#clip0_2336_13759)">
<path d="M16.9986 39.0532C13.9105 39.1654 11.3148 40.8546 9.84918 43.424L0.393311 61.0463L7.54878 61.0403L9.22565 57.2264H14.5771L14.3713 61.0463H21.5328L20.7035 39.0532L16.9986 39.0532ZM28.3493 39.0532L22.8465 61.0463H29.0515L34.5725 39.0532H28.3493ZM37.5085 39.2712L33.0348 57.0024C32.5582 58.7905 32.7016 59.9436 33.4586 60.4712C34.1328 60.9886 35.4149 61.2337 37.3088 61.2158C38.3997 61.2158 39.5696 61.1629 40.8199 61.0584L41.7522 57.3596H40.717C39.6834 57.3723 39.2679 56.9352 39.482 56.052L41.4616 48.1096H44.0647L44.9909 44.3744H42.406L43.7257 39.2712H37.5085ZM15.3157 43.8356L14.8072 53.007H11.0781L15.3157 43.8356ZM86.5435 43.9143C84.2672 43.9143 82.4964 44.7443 81.2283 46.4024H81.1557L81.6521 44.3684H75.3804L71.1973 61.0403H77.4205L80.181 50.0407C80.5226 48.705 81.2943 48.0468 82.4935 48.0672C83.6826 48.0468 84.0975 48.7085 83.7406 50.0467L80.9801 61.0403H87.1852L89.9456 50.0407C90.2936 48.705 91.0815 48.0468 92.3126 48.0672C93.5132 48.0468 93.9255 48.705 93.5597 50.0407L90.8113 61.0403H93.5536C95.4998 61.0403 97.3506 59.7531 97.7852 57.9892L100.176 48.4607C100.593 46.7133 100.409 45.4995 99.6255 44.8163C98.8162 44.2046 97.6782 43.9067 96.2112 43.9143C95.2235 43.9143 94.2575 44.1074 93.3055 44.4834C92.3203 44.8747 91.4489 45.5415 90.6842 46.4872C90.5313 45.6231 90.1384 44.9747 89.5037 44.5439C88.8576 44.1246 87.8702 43.9143 86.5435 43.9143ZM47.2852 44.3805L43.1203 61.0463H49.3193L53.5024 44.3805H47.2852ZM56.3234 44.3805L53.1755 56.9722C52.7702 58.7118 52.9795 59.9047 53.799 60.5317C54.5663 61.1728 55.6635 61.4758 57.0922 61.458C59.3557 61.458 61.1122 60.6538 62.365 59.0365H62.4376L61.9473 61.0524H68.1463L72.3112 44.3805H66.1001L63.3396 55.38C62.9955 56.7157 62.2223 57.3784 61.009 57.3657C59.8364 57.3784 59.428 56.7157 59.7861 55.38L62.5406 44.3805H56.3234Z" fill="#E4E4E4"/>
</g>
<defs>
<clipPath id="clip0_2336_13759">
<rect width="100" height="100" fill="white" transform="translate(0.393311 0.255981)"/>
</clipPath>
</defs>
</svg>
