<svg width="101" height="101" viewBox="0 0 101 101" fill="none" xmlns="http://www.w3.org/2000/svg">
<g clip-path="url(#clip0_2336_13601)">
<path d="M55.7815 42.9675C55.773 42.8143 55.7788 42.6598 55.7628 42.5073C55.743 42.3172 55.6413 42.2661 55.4783 42.3561C55.4302 42.3828 55.3803 42.4165 55.3473 42.4595C55.0262 42.8733 54.5755 42.9133 54.101 42.9133C52.8155 42.9139 51.53 42.9296 50.2445 42.9296C47.855 42.9296 45.4658 42.9187 43.0763 42.9218C42.597 42.9225 42.1514 42.8798 41.8539 42.4394C41.8389 42.4172 41.8136 42.4005 41.7908 42.3848C41.6274 42.2715 41.5342 42.3019 41.4919 42.4923C41.4708 42.5868 41.4694 42.686 41.4622 42.7836C41.3944 43.7027 41.3251 44.6218 41.2603 45.5409C41.2316 45.9448 41.2122 46.3491 41.1876 46.7534C41.1801 46.8769 41.2091 46.9782 41.3459 47.0082C41.4732 47.0362 41.5622 46.9748 41.6219 46.8684C41.6489 46.8203 41.6669 46.7667 41.6854 46.7142C41.8648 46.199 42.107 45.7122 42.3459 45.2229C42.8112 44.2701 43.571 43.7842 44.6187 43.6778C45.3713 43.6014 46.1232 43.5775 46.8775 43.5642C47.4742 43.5536 47.464 43.5393 47.4633 44.1653C47.4613 47.9229 47.465 51.6805 47.4602 55.4377C47.4592 56.2893 47.4346 57.1411 47.4159 57.9927C47.408 58.3577 47.363 58.7163 47.1413 59.0261C46.6435 59.519 46.0233 59.7237 45.3437 59.7944C45.1922 59.8101 45.0424 59.8513 44.894 59.8889C44.6818 59.9424 44.6726 60.1052 44.6808 60.285C44.69 60.4883 44.8063 60.5459 44.9848 60.5415C45.0687 60.5395 45.1526 60.5419 45.2362 60.5419C47.5008 60.5419 49.7651 60.5419 52.0298 60.5415C52.1137 60.5415 52.1976 60.5381 52.2812 60.5412C52.4559 60.5473 52.5313 60.4402 52.5671 60.2921C52.6074 60.1236 52.561 59.9823 52.3996 59.9056C52.3269 59.8708 52.2386 59.8681 52.1567 59.8531C51.6644 59.7616 51.1697 59.6941 50.6945 59.5109C50.1551 59.3027 49.9187 58.8899 49.8426 58.3663C49.7829 57.9535 49.7505 57.5335 49.7491 57.1162C49.7375 53.4975 49.7351 49.8785 49.7314 46.2597C49.7307 45.4911 49.7365 44.7228 49.7351 43.9541C49.7348 43.8013 49.7433 43.67 49.946 43.672C50.9507 43.6812 51.9592 43.6205 52.956 43.7911C53.3269 43.8545 53.6912 43.9617 54.0031 44.1916C54.0614 44.2346 54.1211 44.2653 54.1958 44.2469C54.434 44.3895 54.5643 44.6239 54.7001 44.8497C54.9675 45.2939 55.1507 45.778 55.3415 46.2577C55.4189 46.4522 55.4847 46.651 55.5615 46.8459C55.5994 46.9427 55.6686 47.0157 55.7822 47.0041C55.9156 46.9905 55.9729 46.8929 55.9822 46.7732C55.9907 46.6626 55.9828 46.5504 55.9764 46.4392C55.9126 45.2816 55.8464 44.1247 55.7815 42.9675Z" fill="#E4E4E4"/>
<path d="M86.4907 59.9342C86.3321 59.8871 86.1724 59.8435 86.0155 59.7916C85.5269 59.6313 85.0486 59.4532 84.7279 59.0144C84.6549 58.7429 84.4679 58.53 84.3492 58.2809C83.8467 57.2271 83.4847 56.1176 83.0467 55.0385C82.8808 54.6301 82.8102 54.1822 82.5472 53.8137C82.3299 53.2259 82.1177 52.6364 81.8939 52.0513C81.5616 51.1834 81.2736 50.2987 80.9004 49.4465C80.8977 49.4199 80.8874 49.394 80.8666 49.368C80.8271 49.2353 80.7957 49.0995 80.7462 48.9706C80.3979 48.0628 80.0454 47.1563 79.6954 46.2491C79.2655 45.1356 78.8408 44.0203 78.4031 42.9098C78.3482 42.7706 78.3311 42.5612 78.0943 42.5745C77.9074 42.5642 77.8084 42.698 77.7542 42.8344C77.5225 43.4144 77.2366 43.9736 77.0794 44.5822C77.0937 44.5918 77.1077 44.6013 77.122 44.6105C77.12 44.6119 77.1183 44.6132 77.1162 44.6146C77.1039 44.6037 77.0916 44.5931 77.0794 44.5822C76.9429 44.7859 76.8695 45.0134 76.8232 45.2516C76.657 45.6709 76.4909 46.0898 76.3247 46.5088C76.2892 46.5667 76.2442 46.621 76.22 46.6834C75.9426 47.4057 75.6683 48.1289 75.3933 48.8522C75.409 48.8652 75.4244 48.8778 75.4401 48.8908C75.4394 48.8914 75.4387 48.8918 75.4377 48.8921C75.423 48.8788 75.408 48.8655 75.393 48.8522C75.3312 48.9256 75.3176 49.0143 75.3101 49.1053C75.1856 49.3162 75.0931 49.5386 75.0686 49.7849C74.8168 50.4277 74.5646 51.0704 74.3129 51.7129C73.693 53.0195 73.2501 54.3961 72.7145 55.7362C72.721 55.7413 72.7271 55.7461 72.7336 55.7512C72.7329 55.7512 72.7323 55.7512 72.7316 55.7516C72.7312 55.7516 72.7145 55.7362 72.7145 55.7362C72.6651 55.7857 72.6415 55.8443 72.6514 55.9146C72.4419 56.4271 72.2417 56.9439 72.0206 57.4512C71.6999 58.1875 71.4045 58.9435 70.7115 59.4354C70.3451 59.5661 69.991 59.7295 69.6127 59.8302C69.4694 59.8684 69.3145 59.9182 69.2783 60.1048C69.2241 60.3852 69.3479 60.5248 69.6795 60.5251C71.3519 60.5275 73.0243 60.5265 74.6967 60.5254C74.8065 60.5254 74.9222 60.5428 75.0099 60.449C75.1784 60.0656 75.1518 59.9864 74.8086 59.8581C74.7441 59.8339 74.6779 59.8114 74.6107 59.7974C74.1611 59.7053 73.736 59.548 73.3344 59.3269C73.3027 59.3017 73.271 59.2768 73.2392 59.2515C73.1055 59.0588 73.0731 58.8476 73.0956 58.6156C73.1389 58.1707 73.2171 57.7351 73.33 57.3015C73.4136 56.9804 73.5797 56.6778 73.5678 56.3332C73.6346 56.2664 73.6531 56.1821 73.6555 56.0917C73.9403 55.4401 74.0932 54.7431 74.3467 54.0802C74.4916 53.7001 74.4998 53.679 74.9143 53.6793C76.4097 53.68 77.905 53.6817 79.4003 53.6838C80.1069 53.6848 80.1068 53.6858 80.3716 54.3149C80.5439 55.0491 80.8874 55.7229 81.1232 56.4346C81.3896 57.2394 81.7397 58.0155 81.9007 58.8565C81.9488 59.1069 81.8734 59.2597 81.6987 59.3979C81.566 59.503 81.4111 59.5569 81.2467 59.6026C80.94 59.6882 80.6217 59.7462 80.3371 59.897C80.1147 60.0151 80.0581 60.2327 80.1833 60.418C80.2802 60.5616 80.4279 60.5275 80.5633 60.5272C82.4599 60.5244 84.3564 60.52 86.2529 60.5156C86.3225 60.5156 86.3935 60.5203 86.4614 60.5091C86.6299 60.4814 86.6797 60.3416 86.705 60.2051C86.736 60.0505 86.6831 59.9301 86.4907 59.9342ZM75.1525 49.7853C75.1525 49.787 75.1532 49.789 75.1532 49.7907C75.1532 49.7907 75.1532 49.7907 75.1532 49.7911C75.1494 49.789 75.1457 49.7873 75.1419 49.7856L75.1525 49.7853ZM75.6707 50.3847V50.3844C75.6721 50.3837 75.6728 50.3823 75.6738 50.3813C75.7236 50.3427 75.7482 50.2933 75.7451 50.2319C75.7744 50.2257 75.8014 50.2124 75.8256 50.192C76.0818 49.8348 76.1302 49.3919 76.3189 49.0061C76.3786 48.8846 76.4312 48.7478 76.3496 48.6086C76.4905 48.5574 76.5178 48.4172 76.5697 48.2992C76.6928 48.0181 76.7808 47.7233 76.8941 47.4381C76.9194 47.3477 76.9306 47.2545 76.9583 47.1651C76.9654 47.1419 76.9722 47.1184 76.977 47.0952C77.1408 47.0642 77.1118 46.8772 77.179 46.7691C77.2414 46.6684 77.2158 46.5047 77.3496 46.4552C77.6607 47.5749 78.1179 48.6427 78.5334 49.7239C78.7463 50.2783 78.8637 50.8753 79.2089 51.3761C79.2287 51.3911 79.2495 51.4017 79.272 51.4068C79.2659 51.4778 79.2727 51.544 79.3205 51.5975L79.3208 51.5979C79.3246 51.602 79.3283 51.6061 79.3324 51.6098C79.3386 51.6156 79.3447 51.6211 79.3522 51.6262C79.3546 51.6282 79.3573 51.63 79.36 51.632C79.3604 51.6351 79.3607 51.6381 79.3614 51.6412C79.3488 51.6491 79.3375 51.661 79.3273 51.6757C79.2597 51.8828 79.3658 52.0585 79.4354 52.2365C79.5334 52.4856 79.4699 52.6081 79.1919 52.607C78.9411 52.6057 78.6907 52.6074 78.4396 52.6077C77.4922 52.6077 76.5444 52.6101 75.597 52.6064C75.0996 52.6043 75.0945 52.5941 75.2016 52.1199C75.2234 52.023 75.2405 51.9288 75.1961 51.835C75.1886 51.8234 75.1805 51.8138 75.1723 51.8074C75.5428 51.4188 75.6352 50.9251 75.6912 50.4185C75.6843 50.4083 75.6769 50.4001 75.6687 50.3932C75.669 50.3905 75.6697 50.3878 75.6707 50.3847ZM70.8255 59.4525C70.8214 59.4573 70.817 59.4617 70.8125 59.4665C70.8125 59.4665 70.8125 59.4665 70.8122 59.4665C70.8102 59.4603 70.8078 59.4545 70.805 59.4494C70.8122 59.4508 70.819 59.4515 70.8255 59.4525C70.8258 59.4525 70.8258 59.4525 70.8255 59.4525ZM80.8502 49.5608C80.8472 49.557 80.8444 49.5533 80.8421 49.5495C80.8451 49.5499 80.8482 49.5499 80.8513 49.5499C80.8506 49.5536 80.8506 49.5574 80.8502 49.5608ZM72.7336 55.9225C72.7336 55.9228 72.7336 55.9228 72.7336 55.9232L72.7364 55.9228C72.735 55.9266 72.734 55.9307 72.7326 55.9344V55.9348V55.9351C72.7251 55.9286 72.7169 55.9235 72.7077 55.9201C72.7162 55.9211 72.7251 55.9218 72.7336 55.9225ZM73.2938 59.3754C73.2931 59.3767 73.2928 59.3785 73.2925 59.3798L73.2921 59.3795C73.2918 59.3791 73.2918 59.3791 73.2914 59.3788C73.2918 59.3778 73.2928 59.3767 73.2938 59.3754Z" fill="#E4E4E4"/>
<path d="M43.8784 59.9186C43.8582 59.9415 43.8477 59.9657 43.846 59.9909C43.8426 59.9841 43.8395 59.978 43.8357 59.9711C43.8497 59.9534 43.864 59.936 43.8784 59.9186C43.82 59.894 43.7617 59.8695 43.703 59.8446C43.6921 59.8565 43.6812 59.8688 43.6703 59.8807C43.6812 59.8688 43.6921 59.8565 43.7034 59.8446C43.5993 59.7664 43.4799 59.762 43.3574 59.7716C43.2738 59.7426 43.2001 59.6829 43.105 59.6914C42.6986 59.5007 42.3121 59.283 42.031 58.9187C41.8191 58.5093 41.6038 58.1016 41.4322 57.6727C41.2446 57.1924 41.1146 56.6885 40.8454 56.2419C40.6762 55.7308 40.5183 55.215 40.2501 54.7435C40.1986 54.5985 40.1471 54.4535 40.0956 54.3085C40.1092 54.2116 40.0785 54.1263 40.0253 54.0472C39.8717 53.603 39.7554 53.1441 39.5309 52.7272C39.5217 52.7016 39.5077 52.676 39.4883 52.6508L39.4876 52.6494C39.5088 52.5706 39.4859 52.5123 39.4088 52.4789C39.0315 51.4383 38.6616 50.395 38.2365 49.3722C38.1393 48.9922 37.9916 48.6305 37.8316 48.2733C37.8367 48.1768 37.8306 48.0837 37.747 48.0161C37.7456 47.9909 37.7371 47.9687 37.7211 47.9492C37.7333 47.8776 37.7095 47.8213 37.6494 47.7804V47.78C37.5812 47.4174 37.443 47.082 37.2656 46.762C37.2612 46.7395 37.2485 46.717 37.2277 46.6938C37.1496 46.485 37.0742 46.2751 36.9934 46.0674C36.5833 45.0169 36.1718 43.9672 35.76 42.9178C35.7055 42.7786 35.6823 42.6025 35.4895 42.5838C35.2872 42.5643 35.1801 42.7175 35.1159 42.8676C35.0184 43.0955 34.8962 43.3186 34.8689 43.5728C34.8178 43.6209 34.7857 43.6772 34.7935 43.7502C34.2037 45.2469 33.6094 46.7419 33.0263 48.2416C32.7401 48.9778 32.4269 49.7042 32.1969 50.4616C32.1031 50.553 32.0714 50.6755 32.0253 50.7921C31.7285 51.5437 31.4228 52.2919 31.1332 53.0466C30.7787 53.9694 30.4372 54.897 30.0899 55.8226C30.0138 55.8915 29.9903 55.9782 30.0033 56.0771C29.9507 56.19 29.8982 56.303 29.8456 56.4159C29.5638 57.0344 29.2742 57.6499 29.004 58.2735C28.9054 58.5011 28.7085 58.6785 28.6744 58.9364C28.6744 58.9364 28.6744 58.9364 28.6748 58.9364C28.5878 59.0435 28.5015 59.151 28.4148 59.2581C28.4148 59.2581 28.4148 59.2581 28.4145 59.2585C28.4145 59.2585 28.4148 59.2585 28.4148 59.2581C28.0054 59.4925 27.5841 59.702 27.1324 59.8432C27.13 59.8439 27.1279 59.8446 27.1255 59.8456C26.5776 59.8729 26.0495 59.7559 25.5238 59.6232C24.7108 59.4178 24.2905 58.9558 24.1888 58.1207C24.11 57.4732 24.052 56.8229 24.0568 56.1689C24.0636 56.044 24.0783 55.9188 24.0759 55.7939C24.0544 54.6923 24.0752 53.5907 24.0032 52.4888C23.9497 51.6679 23.9797 50.842 23.9647 50.018C23.9602 49.769 24.0022 49.5155 23.9121 49.2719C23.8964 49.2839 23.8807 49.2955 23.865 49.3071C23.864 49.3013 23.8627 49.2958 23.8616 49.29C23.8784 49.2839 23.8954 49.2781 23.9121 49.2719C23.8835 48.1147 23.9084 46.9571 23.8391 45.7992C23.7842 44.8808 23.8251 43.9569 23.8163 43.0355C23.8125 42.6547 23.8876 42.2873 23.9708 41.9199C24.0541 41.5524 24.2915 41.3044 24.6081 41.1328C24.778 41.0407 24.9667 40.9762 25.1536 40.9237C25.5023 40.8261 25.8551 40.7521 26.2187 40.7152C26.5077 40.6859 26.6275 40.5102 26.6073 40.2662C26.5855 40.0052 26.5401 39.9711 26.1713 39.9708C24.8162 39.9694 23.4615 39.9701 22.1064 39.9704C22.0228 39.9704 21.9385 39.9701 21.8556 39.979C21.7103 39.9943 21.6318 40.08 21.6188 40.2253C20.9948 41.5442 20.3668 42.8611 19.7479 44.1824C19.2174 45.3148 18.6978 46.4522 18.1731 47.5873C18.1683 47.5944 18.1649 47.6016 18.1618 47.6088C17.7459 48.4054 17.3717 49.2218 17.0094 50.044C16.6873 50.7092 16.3397 51.3626 16.0957 52.063C15.5308 53.2605 14.9661 54.4579 14.4012 55.6554C14.2726 55.724 14.3142 55.9226 14.1624 55.9734C14.072 55.9621 14.0617 55.8813 14.0341 55.8236C13.623 54.9578 13.2252 54.0851 12.8025 53.225C12.4722 52.5532 12.2068 51.8494 11.8148 51.2077C11.6067 50.7707 11.4085 50.3285 11.1854 49.8993C11.0926 49.7206 11.0731 49.4961 10.8855 49.3705C10.8855 49.3705 10.8855 49.3702 10.8851 49.3702C10.2127 47.9458 9.54062 46.5211 8.86853 45.0968V45.0964C8.91663 44.9589 8.83066 44.8545 8.77846 44.7437C8.08044 43.2685 7.37423 41.7974 6.68918 40.316C6.57045 40.0592 6.42853 39.967 6.15116 39.9715C5.11778 39.9875 4.08405 39.9814 3.05067 39.9834C2.68767 39.9841 2.32433 39.9855 1.96134 39.9834C1.78803 39.9824 1.65565 40.0271 1.64644 40.2311C1.56013 40.4743 1.67988 40.6036 1.8989 40.6633C2.03196 40.6995 2.17081 40.7149 2.30727 40.7384C2.98141 40.8564 3.64054 41.01 4.15775 41.506C4.3621 41.7987 4.47742 42.1256 4.51426 42.4777C4.58829 43.1859 4.62036 43.8962 4.58829 44.6086C4.52108 46.0991 4.44671 47.5896 4.37472 49.0802C4.27681 51.1002 4.20892 53.1219 4.01923 55.1362C3.92917 56.0935 3.82648 57.0504 3.59005 57.9876C3.428 58.63 3.09639 59.1332 2.49458 59.4386C2.39598 59.4256 2.29943 59.4178 2.24791 59.5304C2.17217 59.5133 2.11145 59.5328 2.07324 59.6044H2.0729C2.06641 59.6112 2.05993 59.6167 2.05311 59.6215C2.05959 59.6157 2.06641 59.6109 2.0729 59.6044C1.95178 59.5945 1.82453 59.5631 1.74197 59.6945C1.55637 59.6552 1.38477 59.7317 1.21351 59.7733C0.843002 59.863 0.778524 60.2171 1.06442 60.5228C1.06442 60.5228 1.06442 60.5228 1.06442 60.5231C1.10604 60.5272 1.14766 60.5347 1.18962 60.5347C3.44062 60.5354 5.69196 60.5358 7.94296 60.5361C7.99891 60.5361 8.05485 60.5358 8.1108 60.533C8.27729 60.5249 8.3561 60.4351 8.37862 60.2707C8.42433 59.9377 8.33392 59.8309 7.98355 59.7716C7.29406 59.6542 6.61207 59.5096 6.02254 59.0988C5.67524 58.7819 5.5067 58.3735 5.447 57.9208C5.30474 56.84 5.25629 55.7537 5.26039 54.6633C5.26721 52.876 5.32282 51.0913 5.40743 49.3054C5.47532 47.8701 5.47669 46.43 5.52684 44.9924C5.53878 44.6498 5.55174 44.3077 5.56402 43.9651C5.78407 44.3148 5.94407 44.6788 6.10783 45.0415C6.47629 45.8555 6.83042 46.6764 7.22241 47.4784C7.43496 47.9134 7.56324 48.3917 7.86926 48.78V48.7806C7.84709 48.8615 7.86824 48.9215 7.95251 48.9502C8.03234 49.1266 8.11046 49.3036 8.19234 49.479C8.55568 50.2555 8.92004 51.0313 9.28441 51.8071C9.26735 51.9071 9.33115 51.9797 9.3697 52.0609C9.35844 52.1476 9.38607 52.2257 9.42121 52.3028C9.86643 53.2792 10.312 54.2553 10.7558 55.2324C11.142 56.0822 11.5129 56.9389 11.9168 57.7802C12.1014 58.1647 12.1986 58.5946 12.4862 58.9282C12.6213 59.2175 12.7605 59.5048 12.8898 59.7965C12.9581 59.9503 13.0543 60.0523 13.2317 60.0506C13.4012 60.0493 13.4732 59.9203 13.5288 59.7951C13.8778 59.0097 14.2835 58.2496 14.5881 57.4445C14.8174 57.1108 14.9562 56.7318 15.1241 56.3678C16.1203 54.2069 17.1151 52.0452 18.1103 49.8836C18.1949 49.8423 18.2113 49.7543 18.2454 49.6806C18.8162 48.4426 19.39 47.2062 19.9516 45.964C20.0938 45.6488 20.2886 45.3557 20.3681 45.0125C20.6513 44.4182 20.8939 43.8041 21.2077 43.2248C21.3108 43.2777 21.3029 43.3374 21.3026 43.3896C21.2951 45.094 21.305 46.7981 21.3466 48.5023C21.3722 49.5496 21.3885 50.5977 21.3848 51.6457C21.3769 53.9636 21.4827 56.2832 21.2882 58.5983C21.1692 58.818 21.0498 59.0377 20.9307 59.2578C20.7021 59.4215 20.4596 59.5617 20.1856 59.6286C19.8195 59.718 19.4541 59.8111 19.0775 59.8545C18.8411 59.8818 18.7616 59.9858 18.7786 60.1724C18.7964 60.3635 18.8878 60.4385 19.1222 60.4402C19.8772 60.4454 20.6318 60.4491 21.3868 60.4508C24.9523 60.46 28.5175 60.4675 32.083 60.4805C32.2382 60.4812 32.3556 60.4757 32.3982 60.2935C32.4416 60.1083 32.3747 59.9913 32.2048 59.9333C32.0598 59.8838 31.9076 59.8558 31.7613 59.8091C31.3522 59.6788 30.9097 59.618 30.6047 59.2663C30.617 59.1889 30.5918 59.1329 30.5136 59.1066L30.5133 59.106C30.5396 58.7607 30.4935 58.4137 30.5716 58.0681C30.8749 56.7246 31.285 55.4132 31.7514 54.1188C31.8919 53.7292 31.7933 53.7306 32.3075 53.7302C34.0331 53.7296 35.759 53.7279 37.4846 53.7265C37.488 53.7282 37.4908 53.7302 37.4942 53.7323C37.6566 53.9629 37.7067 54.2406 37.8142 54.4945C37.7903 54.5948 37.8265 54.6807 37.8783 54.7626C38.0104 55.1256 38.1383 55.4903 38.2768 55.8506C38.3396 56.0133 38.3218 56.2153 38.4969 56.3268C38.6043 56.6107 38.7118 56.8945 38.8193 57.1787C38.7954 57.338 38.8715 57.4718 38.9216 57.6151C39.1075 58.1486 39.3187 58.6788 39.243 59.2639C39.0625 59.4191 38.8626 59.5437 38.6296 59.5972C38.4801 59.6317 38.3331 59.6627 38.2076 59.7562H38.2072C38.066 59.7572 37.9315 59.7883 37.8057 59.8521C37.6716 59.92 37.4952 59.9647 37.5027 60.153C37.5092 60.3191 37.6204 60.428 37.7917 60.4607C37.9316 60.5501 38.0888 60.5225 38.2403 60.5238C38.9656 60.5293 39.6909 60.5317 40.4162 60.5327C41.5042 60.5344 42.5922 60.5337 43.6805 60.5344C43.8402 60.5344 43.9923 60.5266 44.037 60.3266C44.0742 60.153 44.1035 59.9875 43.8784 59.9186ZM32.6138 51.5506C32.6159 51.5485 32.6179 51.5468 32.62 51.5448C32.6309 51.5352 32.6418 51.526 32.6524 51.5161C32.6538 51.514 32.6544 51.5113 32.6555 51.5093C32.767 51.3861 32.8025 51.2353 32.7933 51.0681C32.8104 51.0634 32.8267 51.0555 32.8421 51.0446C32.9683 50.8437 33.1324 50.6533 33.043 50.3868C33.1761 50.4015 33.2307 50.2958 33.2638 50.2013C33.4947 49.5363 33.8219 48.9045 33.9573 48.2068C33.9556 48.1874 33.9526 48.1686 33.9478 48.1505C34.2436 47.837 34.6079 46.8292 34.5476 46.4614C34.566 46.4526 34.5824 46.4409 34.5967 46.4249C34.5974 46.4232 34.6277 46.4065 34.6277 46.4065C34.6277 46.4065 34.6622 46.4072 34.6625 46.4048C34.6803 46.4215 34.6929 46.4433 34.7014 46.4662C34.7202 46.5286 34.7318 46.5948 34.7505 46.6579C35.1494 47.8278 35.6185 48.9727 36.0517 50.1306C36.2401 50.6342 36.3799 51.1623 36.6658 51.6277C36.6853 51.6427 36.7061 51.6532 36.7283 51.6584C36.7208 51.7457 36.7283 51.8279 36.8091 51.8873L36.8108 51.889C36.8108 51.8897 36.8108 51.8904 36.8112 51.891C36.8061 51.8941 36.8016 51.8979 36.7968 51.9023C36.7327 52.0091 36.7573 52.1227 36.8071 52.2162C36.9852 52.5508 36.8194 52.6529 36.5171 52.6754C35.3391 52.7003 34.16 52.7136 32.9803 52.6702C32.8786 52.6481 32.7769 52.6341 32.6729 52.6464C32.6087 52.6522 32.5521 52.6904 32.4852 52.6846C32.4583 52.6754 32.4347 52.6604 32.4136 52.6419C32.3969 52.6194 32.3846 52.5935 32.374 52.5679C32.3679 52.5294 32.3645 52.4898 32.358 52.4509C32.6275 52.2281 32.6626 51.9156 32.6445 51.583C32.635 51.5707 32.6241 51.5615 32.6125 51.5553C32.6135 51.5533 32.6135 51.5523 32.6138 51.5506ZM30.1186 55.8465C30.1182 55.8468 30.1179 55.8468 30.1172 55.8468C30.1165 55.8461 30.0896 55.8219 30.0892 55.8216C30.0991 55.8301 30.109 55.8383 30.1186 55.8465Z" fill="#E4E4E4"/>
<path d="M69.5697 56.4435C69.6028 56.2869 69.567 56.1675 69.4114 56.102C69.2596 56.0382 69.133 56.0802 69.0504 56.216C68.9658 56.3552 68.8369 56.4794 68.8628 56.6656C68.6755 57.0071 68.494 57.3517 68.2995 57.6888C67.9659 58.2681 67.6462 58.8614 67.0133 59.1848C66.7612 59.2162 66.5548 59.3724 66.3153 59.44C65.08 59.788 63.8252 59.7385 62.5762 59.5747C62.088 59.5106 61.6905 59.2155 61.5554 58.6952C61.4715 58.3728 61.3964 58.047 61.3964 57.7069C61.3964 53.9926 61.3886 50.2787 61.391 46.5645C61.3913 46.0073 61.3835 45.4489 61.4834 44.8941C61.5646 44.4431 61.7564 44.0781 62.1466 43.8277C62.1494 43.8277 62.1521 43.8266 62.1548 43.8246C62.6099 43.6482 63.0859 43.5595 63.5652 43.4786C63.8299 43.4343 63.9361 43.319 63.9176 43.145C63.8995 42.9727 63.7859 42.9024 63.5028 42.8939C62.8887 42.8758 62.2749 42.8512 61.6608 42.8451C60.8222 42.8366 59.9837 42.8431 59.1451 42.8431C58.4324 42.8431 57.7194 42.8437 57.0067 42.8413C56.8091 42.8407 56.688 42.915 56.6713 43.1269C56.6549 43.3313 56.7467 43.4517 56.9443 43.4769C57.4997 43.5479 58.0309 43.7011 58.544 43.9215C58.7442 44.0689 58.864 44.279 58.9302 44.5059C59.0236 44.8262 59.1024 45.1517 59.1076 45.4918C59.1608 48.8854 59.1407 52.2793 59.1362 55.6732C59.1352 56.3992 59.1256 57.1255 59.1011 57.8512C59.085 58.3254 59.0595 58.8054 58.7227 59.1933C58.2997 59.5355 57.8122 59.7184 57.2762 59.7893C57.1524 59.8057 57.0299 59.8412 56.9108 59.8808C56.6976 59.9517 56.6502 60.0578 56.6737 60.3024C56.6938 60.5119 56.8242 60.5464 56.9947 60.5402C57.0507 60.5382 57.1066 60.5389 57.1626 60.5389C60.2952 60.5375 63.4274 60.5368 66.5599 60.5348C67.1191 60.5344 67.6786 60.5194 68.2378 60.5293C68.4974 60.5337 68.6854 60.4338 68.7635 60.2011C68.8556 59.9268 68.9651 59.6505 68.946 59.3499C68.9498 59.3243 68.9532 59.2987 68.9559 59.2731C69.0484 59.1759 69.048 59.0568 69.0347 58.9351C69.0938 58.6771 69.1565 58.4199 69.2115 58.1609C69.3329 57.5888 69.4489 57.0157 69.5697 56.4435Z" fill="#E4E4E4"/>
<path d="M98.0162 51.2043C97.9221 51.0907 97.7726 51.0989 97.6532 51.0409C97.354 50.7949 96.9511 50.8334 96.6168 50.6854C96.6546 50.5626 96.7519 50.5759 96.8262 50.5469C97.6699 50.2217 98.4253 49.7707 98.9742 49.0287C99.8466 47.9666 100.011 46.7821 99.5654 45.5031C99.4112 45.0606 99.2352 44.6205 98.8203 44.3394C98.7357 44.2585 98.6508 44.1773 98.5662 44.0961C98.5037 43.8662 98.2943 43.7932 98.1196 43.6908C97.2322 43.1702 96.2514 42.9642 95.2422 42.9256C94.1437 42.8836 93.0451 42.8198 91.9425 42.8785C91.094 42.9236 90.2411 42.8867 89.3902 42.8877C88.8464 42.8884 88.3023 42.8884 87.7585 42.8956C87.6172 42.8973 87.4323 42.8407 87.406 43.0767C87.3501 43.3118 87.4691 43.4036 87.6837 43.4466C87.9983 43.5093 88.3135 43.5663 88.6209 43.6659C89.0736 43.812 89.3377 44.1108 89.4827 44.5577C89.6239 44.9934 89.6274 45.4403 89.6338 45.8842C89.6908 49.7253 89.686 53.5668 89.6359 57.408C89.628 58.0067 89.6284 58.612 89.3309 59.1629C89.1211 59.4147 88.8543 59.5652 88.5424 59.6706C88.1982 59.7869 87.841 59.8289 87.4927 59.9173C87.1863 59.9947 87.1587 60.0411 87.3047 60.3321C87.3081 60.3423 87.3129 60.3526 87.3207 60.3638L87.3225 60.3662C87.3764 60.5075 87.5016 60.4737 87.606 60.4747C88.2992 60.4832 88.9935 60.5095 89.686 60.4853C90.1278 60.4696 90.5727 60.5215 91.0125 60.4409C91.6242 60.4969 92.2359 60.4454 92.8469 60.4331C93.8902 60.4119 94.9355 60.3939 95.9651 60.1895C96.2367 60.2192 96.4967 60.1967 96.7252 60.0261L96.7229 60.022C96.73 60.0152 96.7375 60.0097 96.7454 60.0049C96.7379 60.0104 96.7304 60.0155 96.7229 60.022C96.8477 60.0462 96.9712 60.0646 97.0565 59.9357C97.1561 59.9561 97.2452 59.9425 97.3114 59.8562C97.3656 59.8555 97.425 59.8692 97.4731 59.8514C98.035 59.6464 98.5617 59.3745 99.0383 59.0104C99.5245 58.6393 99.9721 58.2336 100.24 57.6673C100.598 57.0303 100.861 56.3596 100.881 55.621C100.9 54.8861 100.891 54.1502 100.5 53.4856C100.019 52.3468 99.1264 51.657 98.0162 51.2043ZM96.9736 58.844C96.8958 58.8293 96.8423 58.8784 96.7873 58.9187C95.6202 59.7767 94.3023 59.7866 92.9496 59.6003C92.91 59.5287 92.8496 59.5109 92.7736 59.5324L92.7688 59.5304C92.4031 59.3243 92.1294 59.0456 92.0551 58.614C92.0053 58.3257 91.9445 58.0405 91.9452 57.7444C91.9483 56.4452 91.9394 55.1464 91.9367 53.8476C91.9353 53.1076 91.9367 52.3676 91.9415 51.627C91.9432 51.3175 91.9486 51.3066 92.2352 51.3087C92.9605 51.3135 93.6855 51.2681 94.4101 51.3721C95.493 51.5284 96.4537 51.9153 97.2087 52.7368C97.2902 52.8255 97.3431 52.9558 97.4878 52.9715C98.094 53.7453 98.3025 54.6548 98.2823 55.6022C98.2564 56.8338 97.9333 57.9747 96.9736 58.844ZM97.0862 46.1636C97.137 47.2154 97.2121 48.271 96.6789 49.2463C96.6529 49.2941 96.6898 49.233 96.6765 49.2869C96.6795 49.3122 96.6874 49.334 96.7007 49.3524C96.4168 49.42 96.2616 49.6295 96.1344 49.8693C96.1251 49.8577 96.1118 49.8478 96.0941 49.8396C95.9935 49.8103 95.8969 49.8325 95.8099 49.8782C94.7663 50.4319 93.6288 50.4012 92.4976 50.421C92.1994 50.4264 92.0626 50.3084 92.0673 50.003C92.1015 47.926 91.9947 45.8477 92.1281 43.772C92.196 43.8188 92.2737 43.812 92.3519 43.8051C92.9097 43.7574 93.4692 43.7731 94.0277 43.7857C95.3647 43.815 96.3561 44.3906 96.8934 45.6553C96.9429 45.773 96.9589 45.9326 97.137 45.9408C97.0824 46.0053 97.0821 46.0838 97.0862 46.1636Z" fill="#E4E4E4"/>
</g>
<defs>
<clipPath id="clip0_2336_13601">
<rect width="100" height="100" fill="white" transform="translate(0.886322 0.255981)"/>
</clipPath>
</defs>
</svg>
