<svg width="101" height="101" viewBox="0 0 101 101" fill="none" xmlns="http://www.w3.org/2000/svg">
<path d="M61.4592 15.4629C60.5453 15.542 59.5919 15.6211 58.678 15.7398C54.7788 16.1739 50.9864 17.2907 47.4742 19.0392C43.8537 20.8116 40.5624 23.1891 37.7421 26.0693C37.6234 26.2276 37.3861 26.3067 37.1843 26.2671C35.2258 25.976 33.243 25.8832 31.2659 25.9902C27.2331 26.1884 23.2844 27.2159 19.6665 29.0087C12.672 32.506 7.74664 37.9496 4.88635 45.2606C3.84279 47.9697 3.22619 50.8244 3.05862 53.7228C3.05862 53.9206 3.01905 54.0788 2.97949 54.2371V57.2952C3.05862 58.0903 3.1773 58.846 3.25642 59.6411C3.65204 62.8575 4.56986 65.9551 6.03759 68.859C9.29745 75.3708 14.302 80.1379 21.0155 83.0773C24.0813 84.429 27.3635 85.2234 30.7081 85.4233C30.8347 85.4233 30.9455 85.4392 31.0483 85.4629H64.9762C65.7002 85.3956 66.4083 85.3244 67.1402 85.2255C71.0128 84.7908 74.7778 83.6737 78.2609 81.9261C84.2096 79.0226 89.2116 74.4898 92.685 68.855C95.0637 65.1379 96.6577 60.9739 97.3691 56.6186C97.5669 55.2736 97.6856 53.881 97.8478 52.528C97.8478 52.3302 97.8874 52.1719 97.9269 52.0137V48.8725C97.8478 47.9626 97.7291 47.0843 97.7291 46.2536C97.2947 42.3796 96.1777 38.6132 94.4297 35.1289C91.4833 29.1854 86.9269 24.189 81.2795 20.7087C77.5817 18.3588 73.4484 16.7778 69.1262 16.0603C67.6941 15.8229 66.3055 15.7042 64.8734 15.546C64.6755 15.546 64.5173 15.5064 64.3195 15.4668L61.4592 15.4629ZM62.919 22.1606C71.3298 22.1804 78.4667 25.4284 84.2624 31.873C87.544 35.5957 89.7536 40.1393 90.6555 45.0192C91.249 48.0417 91.3716 51.1394 90.9325 54.1975C90.1808 59.5225 88.1553 64.2857 84.6976 68.4594C80.6799 73.3917 75.1033 76.81 68.8849 78.1519C65.5587 78.8801 62.13 79.014 58.7572 78.5476C54.4252 77.9937 50.4532 76.5655 46.8769 73.9822C45.928 73.3033 45.0386 72.5449 44.2183 71.7153C39.3681 66.9481 34.5653 62.1414 29.7151 57.3743C28.5243 56.1874 28.4452 54.874 29.003 53.6792C29.2947 53.0415 29.7847 52.5151 30.3999 52.1785C31.0152 51.842 31.7228 51.7134 32.4172 51.8119C33.2479 51.8911 33.8888 52.3698 34.4823 52.9671C38.8538 57.3743 43.1858 61.7063 47.5534 66.1174C50.8326 69.4615 55.1436 71.6024 59.7897 72.194C67.4963 73.2265 74.0516 70.8449 79.2539 65.0808C82.0747 61.9436 83.7837 58.1695 84.4998 53.9601C85.5284 47.6817 84.0646 42.0403 80.1678 37.0753C76.7141 32.6642 72.1843 29.9226 66.7011 28.9296C61.0992 27.9406 55.8177 29.0087 51.011 32.0708C50.8923 32.1499 50.6154 32.1895 50.4928 32.1103C48.7452 30.8175 46.8834 29.6866 44.9304 28.7318C44.9304 28.7318 44.8909 28.6922 44.8513 28.6131C46.3772 27.3426 48.0429 26.2503 49.8163 25.3572C53.0441 23.6049 56.6033 22.5484 60.2644 22.2556C61.1464 22.1889 62.0306 22.1572 62.9151 22.1606H62.919ZM32.8326 32.6959C38.5887 32.6009 43.8741 34.7728 48.5859 39.1444C51.9645 42.3172 55.0621 45.6166 58.318 48.916C59.2319 49.826 59.4297 50.9811 58.9945 52.2115C58.5594 53.4419 57.5624 54.0392 56.2925 54.2371C55.8332 54.2997 55.3655 54.2495 54.9299 54.091C54.4943 53.9325 54.1038 53.6703 53.7922 53.3271C50.6906 50.2255 47.5929 47.1674 44.5348 44.0302C42.0306 41.4468 39.0516 39.9752 35.5544 39.3382C27.8082 37.9496 19.983 42.4398 17.2018 49.7864C13.6255 59.1229 19.2669 69.6897 28.999 71.9171C30.9059 72.3522 32.9354 72.3522 34.9214 72.3127C35.4753 72.2731 35.7917 72.4709 36.1874 72.827C38.0982 74.6982 40.1237 76.5655 42.1097 78.4289C42.2284 78.5476 42.3866 78.6662 42.5053 78.7849C42.268 78.7849 42.1097 78.8245 41.9515 78.8245H32.8523C27.6025 78.8234 22.5099 77.0323 18.4152 73.7468C14.3205 70.4613 11.4685 65.8777 10.33 60.7528C7.74665 49.1138 14.4207 37.3127 25.8618 33.859C28.1187 33.1437 30.4657 32.7521 32.8326 32.6959Z" fill="#E4E4E4"/>
</svg>
