<svg width="101" height="101" viewBox="0 0 101 101" fill="none" xmlns="http://www.w3.org/2000/svg">
<g clip-path="url(#clip0_2359_7655)">
<path d="M0.365623 55.3522L9.09234 49.9186H13.6214C13.761 49.9186 13.8888 50.0293 13.8888 50.1863C13.8888 50.3144 13.8307 50.3666 13.761 50.4073L9.47601 52.9787C9.19713 53.1475 9.09826 53.4789 9.09826 53.7292L9.09234 55.3522H14.5402V45.9338C14.5402 45.7534 14.4006 45.5964 14.1914 45.5964H8.99347L0.290039 51.0065V55.3522H0.365623Z" fill="#E4E4E4"/>
<path d="M71.9238 55.3522H79.7729V53.2405H74.4121V51.4719H78.7263V49.3546H74.4121V47.7082H79.7729V45.5964H71.9238V55.3522Z" fill="#E4E4E4"/>
<path d="M22.6037 45.5964L18.8652 55.3522H21.4353L22.0863 53.5256H26.2607L26.9002 55.3522H29.5573L25.7722 45.5964H22.6037ZM22.8247 51.4486L24.1909 47.6268L25.5341 51.4486H22.8247Z" fill="#E4E4E4"/>
<path d="M40.2207 47.7082H43.3659V55.3522H45.8486V47.7082H48.9823V45.5964H40.2207V47.7082Z" fill="#E4E4E4"/>
<path d="M36.6046 51.5944C36.6046 52.8626 35.8255 53.3744 34.4941 53.3744C33.2035 53.3744 32.3603 52.8393 32.3603 51.5944V45.5615H29.8721V51.8795C29.8721 54.6952 32.3836 55.5735 34.4882 55.5735C36.5813 55.5735 39.0814 54.6952 39.0814 51.8795V45.5615H36.5928V51.5944H36.6046Z" fill="#E4E4E4"/>
<path d="M100.29 45.5964H97.3308L93.7845 49.5579V45.5964H91.2959L91.3074 55.3522H93.7845V51.6464L97.1448 55.3522H100.29L95.7554 50.5354L100.29 45.5964Z" fill="#E4E4E4"/>
<path d="M66.0756 45.5964H61.5176V55.3522H66.0756C69.57 55.3522 70.535 54.0492 70.535 50.4014C70.535 46.9751 69.6104 45.5964 66.0756 45.5964ZM65.9767 53.2405H63.9999V47.7082H65.9767C67.535 47.7082 68.0002 48.1326 68.0002 50.4014C68.0002 52.4725 67.4769 53.2405 65.9767 53.2405Z" fill="#E4E4E4"/>
<path d="M87.2906 49.6106L85.0231 49.3547C83.6977 49.2092 83.3663 48.8774 83.3663 48.4297C83.3663 47.9294 84.0466 47.4814 85.3779 47.4814C86.657 47.4814 87.3255 47.9583 87.4476 48.6738H89.8837C89.7615 46.6086 88.035 45.3289 85.5116 45.3289C82.5116 45.3289 81.0058 46.5216 81.0058 48.633C81.0058 50.3493 82.0057 51.158 84.0755 51.3791L86.3778 51.6235C87.2558 51.7224 87.6569 52.0597 87.6569 52.5018C87.6569 53.0021 87.0696 53.4502 85.6568 53.4502C84.0232 53.4502 83.3663 53.0369 83.2556 52.2052H80.8662C80.9766 54.4507 82.436 55.5968 85.5697 55.5968C88.4301 55.5968 90.0289 54.34 90.0289 52.4493C90.0289 50.803 89.0812 49.8142 87.2906 49.6106Z" fill="#E4E4E4"/>
<path d="M54.7673 45.3289C51.221 45.3289 49.3838 47.5103 49.3838 50.4482C49.3838 53.3976 51.221 55.5909 54.7673 55.5909C58.3257 55.5909 60.1629 53.3976 60.1629 50.4482C60.1685 47.5103 58.3257 45.3289 54.7673 45.3289ZM54.7673 53.3976C52.9301 53.3976 51.9187 52.2749 51.9187 50.4482C51.9187 48.6563 52.9301 47.5221 54.7673 47.5221C56.6222 47.5221 57.6162 48.6563 57.6162 50.4482C57.6221 52.2808 56.6222 53.3976 54.7673 53.3976Z" fill="#E4E4E4"/>
</g>
<defs>
<clipPath id="clip0_2359_7655">
<rect width="100" height="100" fill="white" transform="translate(0.290039 0.462891)"/>
</clipPath>
</defs>
</svg>
