<svg width="101" height="101" viewBox="0 0 101 101" fill="none" xmlns="http://www.w3.org/2000/svg">
<path d="M52.3627 54.5486C52.5253 51.676 53.9424 49.1378 56.0895 47.3444C58.1905 45.5813 61.0124 44.5022 64.1104 44.5022C67.193 44.5022 70.0149 45.5798 72.116 47.3444C74.2631 49.1378 75.674 51.676 75.8427 54.5486C76.0053 57.4972 74.8075 60.2481 72.7141 62.2848C70.567 64.3518 67.5304 65.6589 64.1104 65.6589C60.6904 65.6589 57.6384 64.3609 55.5067 62.2848C53.4056 60.2481 52.2094 57.5124 52.3781 54.5638L52.3627 54.5486Z" fill="#E4E4E4"/>
<path d="M33.9583 60.6281C33.9782 61.7528 34.3402 63.9414 34.8831 65.6436C36.0241 69.261 37.9657 72.6047 40.6496 75.5381C43.4101 78.5626 46.8148 80.9945 50.7409 82.7271C54.8664 84.5358 59.3446 85.4629 63.9915 85.4629C68.6384 85.4568 73.1167 84.5145 77.2421 82.6815C81.1683 80.9337 84.573 78.5019 87.3335 75.4621C90.0327 72.4983 91.9651 69.1546 93.0999 65.5373C93.6751 63.7134 94.0385 61.8592 94.1842 60.0049C94.3269 58.181 94.2671 56.342 94.0048 54.5029C93.4926 50.9312 92.2411 47.5723 90.3241 44.5325C88.5757 41.7207 86.3059 39.2737 83.6067 37.2067L83.6129 37.2021L56.4675 16.5318C56.443 16.5135 56.423 16.4938 56.3969 16.477C54.6179 15.1213 51.612 15.1259 49.6643 16.4846C47.6859 17.8586 47.4559 20.1323 49.2195 21.561L49.2119 21.5686L60.5454 30.7031L26.0386 30.7396H25.9926C23.14 30.7426 20.3948 32.5939 19.858 34.9497C19.2998 37.3359 21.2383 39.3269 24.2136 39.3269L24.209 39.3376L41.6924 39.3041L10.4062 63.0143C10.3664 63.0432 10.3234 63.0735 10.2866 63.1024C7.34203 65.3366 6.39117 69.0604 8.24687 71.401C10.1332 73.7872 14.136 73.8024 17.1113 71.4146L34.1347 57.5837C34.1347 57.5837 33.8862 59.4532 33.9062 60.5627L33.9583 60.6281ZM77.8203 66.8747C74.3083 70.4161 69.3853 72.4375 64.0789 72.4375C58.7572 72.4466 53.8342 70.4617 50.3222 66.9204C48.6045 65.1877 47.347 63.2118 46.5648 61.0992C45.8026 59.017 45.5066 56.8132 45.7029 54.5941C45.8885 52.4207 46.5418 50.3385 47.5893 48.469C48.6137 46.63 50.0278 44.9581 51.7608 43.5446C55.1808 40.7936 59.521 39.2889 64.0605 39.2889C68.6155 39.2828 72.9556 40.7617 76.3756 43.5142C78.1086 44.9186 79.5196 46.5844 80.5471 48.4234C81.5946 50.2929 82.2495 52.3599 82.4335 54.5485C82.6268 56.7676 82.3308 58.9714 81.5686 61.0536C80.7895 63.1814 79.5288 65.1573 77.8111 66.89L77.8203 66.8747Z" fill="#E4E4E4"/>
</svg>
