<svg width="101" height="101" viewBox="0 0 101 101" fill="none" xmlns="http://www.w3.org/2000/svg">
<path d="M52.542 15.4629C52.8143 15.5416 53.0961 15.4982 53.3682 15.5244C54.7758 15.6469 56.1741 15.8236 57.5625 16.0957C61.9328 16.9572 65.9859 18.5926 69.7324 21.0088C72.6432 22.881 75.2103 25.1404 77.4521 27.7686C79.2551 29.8785 80.7842 32.1734 82.0332 34.6514C83.5103 37.5792 84.5658 40.6462 85.165 43.8721C85.4811 45.5771 85.7185 47.3004 85.7266 49.041C85.7266 49.1564 85.753 49.2793 85.7617 49.3926V51.4678C85.7268 51.599 85.7265 51.7402 85.7178 51.8809C85.7178 52.2144 85.7176 52.5494 85.6914 52.8828C85.5321 55.0106 85.1998 57.1112 84.6719 59.1855C83.6609 63.0801 82.0331 66.6934 79.7734 70.0244C78.0937 72.5035 76.1332 74.7366 73.8818 76.7139C71.6399 78.6831 69.1851 80.3453 66.5205 81.6895C63.4511 83.236 60.2243 84.3095 56.8389 84.8975C55.538 85.1258 54.2277 85.2752 52.9092 85.3545C52.5618 85.3947 52.1931 85.3859 51.832 85.4629H49.7568C49.6606 85.4279 49.5639 85.4189 49.4668 85.4189C48.3589 85.3664 47.2591 85.2771 46.1689 85.1289C44.1295 84.865 42.1238 84.4165 40.1719 83.793C36.822 82.7209 33.7004 81.1825 30.8076 79.1777C28.1251 77.3137 25.7522 75.1161 23.6855 72.585C21.2491 69.6135 19.3498 66.3348 18.0039 62.7314C16.7989 59.5316 16.0787 56.2178 15.8584 52.7979C15.8584 52.6133 15.8229 52.4287 15.7617 52.2441V48.6309C15.8229 48.4717 15.8496 48.3054 15.8584 48.1387C15.9021 47.3209 15.989 46.5025 16.0957 45.6943C16.6237 41.7916 17.784 38.0896 19.5693 34.582C20.8003 32.1644 22.2949 29.9146 24.0527 27.8389C25.794 25.7823 27.7467 23.9442 29.9092 22.3359C33.4353 19.716 37.3132 17.8267 41.5508 16.667C43.6081 16.1051 45.7108 15.736 47.8379 15.5596C48.2154 15.5246 48.6117 15.559 48.9893 15.4629H52.542ZM43.0889 51.1689C40.9861 50.7082 38.8659 50.4135 36.7041 50.4863C36.0934 50.5108 35.4836 50.5757 34.8809 50.6826C33.1323 50.9874 31.6478 51.794 30.4355 53.0684C28.365 55.2397 27.5421 57.831 28.0527 60.7842C28.7867 65.0039 32.5309 68.0057 36.7861 67.9727C37.3301 67.9892 37.9412 67.9217 38.5518 67.792C40.3582 67.3965 41.8931 66.5753 43.0723 65.1191C43.7892 64.2313 44.3916 63.2688 44.9111 62.2568C45.522 61.0643 46.0324 59.8212 46.4775 58.5635C47.0214 57.0423 47.4834 55.4881 47.8389 53.917C48.0363 53.0367 47.8144 52.4849 46.8408 52.1816C45.6043 51.7953 44.3587 51.4491 43.0889 51.1689ZM64.1309 50.4863C61.969 50.4135 59.8488 50.7082 57.7461 51.1689C56.4762 51.4491 55.2307 51.7953 53.9941 52.1816C53.0205 52.4849 52.7977 53.0367 52.9951 53.917C53.3506 55.488 53.8126 57.0424 54.3564 58.5635C54.8016 59.8212 55.3129 61.0643 55.9238 62.2568C56.4434 63.2688 57.0457 64.2313 57.7627 65.1191C58.9418 66.5753 60.4767 67.3965 62.2832 67.792C62.8936 67.9216 63.5041 67.9891 64.0479 67.9727C68.3033 68.0059 72.0482 65.0041 72.7822 60.7842C73.2929 57.8309 72.4692 55.2398 70.3984 53.0684C69.1862 51.794 67.7018 50.9873 65.9531 50.6826C65.3505 50.5758 64.7413 50.5108 64.1309 50.4863ZM56.1416 28.9922C54.1148 27.1499 51.7535 26.4125 49.0967 26.8232C44.7752 27.493 41.6416 31.4727 41.6582 35.9404C41.6337 36.5835 41.748 37.287 41.9375 37.9902C42.2985 39.3281 42.8971 40.554 43.6025 41.7119C45.2096 44.3452 47.2348 46.6002 49.4326 48.6934C49.6126 48.8654 49.8272 49.0103 50.0566 49.1211C50.2864 49.2406 50.5155 49.2401 50.7529 49.1377C50.9824 49.0353 51.188 48.8895 51.3604 48.7002C52.1229 47.9118 52.8768 47.1224 53.5986 46.3076C54.6153 45.1496 55.5835 43.9577 56.4609 42.6797C57.2569 41.5219 57.9698 40.304 58.4941 38.9834C59.0185 37.6707 59.2737 36.3162 59.1016 34.8926C58.8144 32.5436 57.8558 30.5528 56.1416 28.9922Z" fill="#E4E4E4"/>
</svg>
