<svg width="101" height="101" viewBox="0 0 101 101" fill="none" xmlns="http://www.w3.org/2000/svg">
<path fill-rule="evenodd" clip-rule="evenodd" d="M47.6161 20.9104H39.5811C35.1435 20.9104 31.5461 24.5078 31.5461 28.9454C31.5461 33.383 35.1435 36.9804 39.5811 36.9804H47.6161V20.9104ZM47.6161 15.4629H53.0636H61.0986C68.545 15.4629 74.5808 21.4992 74.5808 28.9454C74.5808 33.3395 72.4792 37.2427 69.2254 39.7041C72.4792 42.1656 74.5808 46.0688 74.5808 50.4629C74.5808 57.9091 68.545 63.9454 61.0986 63.9454C58.0878 63.9454 55.3076 62.9585 53.0636 61.2906V63.9454V71.9804C53.0636 79.4266 47.0273 85.4629 39.5811 85.4629C32.1349 85.4629 26.0986 79.4266 26.0986 71.9804C26.0986 67.5859 28.2007 63.6831 31.4541 61.2216C28.2007 58.7602 26.0986 54.857 26.0986 50.4629C26.0986 46.0688 28.2008 42.1656 31.4543 39.7042C28.2008 37.2427 26.0986 33.3395 26.0986 28.9454C26.0986 21.4992 32.1349 15.4629 39.5811 15.4629H47.6161ZM53.0636 20.9104V36.9804H61.0986C65.5364 36.9804 69.1333 33.383 69.1333 28.9454C69.1333 24.5078 65.5364 20.9104 61.0986 20.9104H53.0636ZM39.5811 58.4978H47.6161V50.4836V50.4629V50.4422V42.4279H39.5811C35.1435 42.4279 31.5461 46.0253 31.5461 50.4629C31.5461 54.8899 35.1263 58.4807 39.5492 58.4979L39.5811 58.4978ZM31.5461 71.9804C31.5461 67.5533 35.1263 63.9626 39.5492 63.9453L39.5811 63.9454H47.6161V71.9804C47.6161 76.4179 44.0187 80.0154 39.5811 80.0154C35.1435 80.0154 31.5461 76.4179 31.5461 71.9804ZM53.0636 50.4469C53.0723 46.0166 56.6663 42.4279 61.0986 42.4279C65.5364 42.4279 69.1333 46.0253 69.1333 50.4629C69.1333 54.9005 65.5364 58.4979 61.0986 58.4979C56.6663 58.4979 53.0723 54.9092 53.0636 50.4789V50.4469Z" fill="#E4E4E4"/>
</svg>
