<svg width="101" height="101" viewBox="0 0 101 101" fill="none" xmlns="http://www.w3.org/2000/svg">
<g clip-path="url(#clip0_2359_7626)">
<path d="M0.648438 42.7528H4.13941V49.0146H10.5601V42.7528H14.0413V58.579H10.5503V52.2289H4.13941V58.5809H0.648438V42.7528Z" fill="#E4E4E4"/>
<path d="M15.7393 52.5881V52.543C15.7393 49.0618 18.5434 46.2361 22.3189 46.2361C26.0944 46.2361 28.8535 49.0167 28.8535 52.4979V52.543C28.8535 56.0242 26.0493 58.8499 22.2738 58.8499C18.4983 58.8499 15.7393 56.0693 15.7393 52.5881ZM25.4606 52.5881V52.543C25.4606 50.7573 24.1714 49.1972 22.2738 49.1972C20.3115 49.1972 19.1341 50.7121 19.1341 52.4979V52.543C19.1341 54.3287 20.4233 55.8888 22.3209 55.8888C24.2852 55.8888 25.4606 54.3738 25.4606 52.5881Z" fill="#E4E4E4"/>
<path d="M30.3418 54.3071V46.4578H33.77V53.218C33.77 54.8467 34.5392 55.6827 35.85 55.6827C37.1609 55.6827 37.9988 54.8467 37.9988 53.218V46.4617H41.4427V58.579H38.0066V56.86C37.2217 57.8785 36.1974 58.8047 34.4568 58.8047C31.8567 58.8047 30.3418 57.0877 30.3418 54.3071Z" fill="#E4E4E4"/>
<path d="M43.0703 52.543V52.4978C43.0703 48.4515 45.7155 46.2361 48.5844 46.2361C50.4153 46.2361 51.5456 47.072 52.36 48.0453V42.0759H55.796V58.5791H52.3619V56.8385C51.526 57.9688 50.3721 58.8008 48.5864 58.8008C45.7607 58.8047 43.0703 56.5893 43.0703 52.543ZM52.4051 52.543V52.4978C52.4051 50.4864 51.0707 49.1521 49.4616 49.1521C47.8525 49.1521 46.5024 50.4629 46.5024 52.4978V52.543C46.5024 54.5543 47.8564 55.8887 49.4616 55.8887C51.0668 55.8887 52.4129 54.5543 52.4129 52.543H52.4051Z" fill="#E4E4E4"/>
<path d="M58.0342 42.0759H61.6507V45.1273H58.0342V42.0759ZM58.1244 46.4617H61.5605V58.5791H58.1244V46.4617Z" fill="#E4E4E4"/>
<path d="M63.8896 46.4618H67.3257V48.1807C68.1106 47.1643 69.1349 46.2361 70.8755 46.2361C73.4756 46.2361 74.9964 47.9551 74.9964 50.7357V58.585H71.5545V51.8189C71.5545 50.1921 70.7853 49.3542 69.4744 49.3542C68.1636 49.3542 67.3257 50.1921 67.3257 51.8189V58.5791H63.8896V46.4618Z" fill="#E4E4E4"/>
<path d="M77.1387 42.0759H80.7552V45.1273H77.1387V42.0759ZM77.2289 46.4617H80.6709V58.5791H77.2289V46.4617Z" fill="#E4E4E4"/>
<path d="M83.2969 56.3735V58.5792H85.2278C84.3498 58.0877 83.6679 57.3088 83.2969 56.3735Z" fill="#E4E4E4"/>
<path d="M91.3954 54.0754C91.3766 52.9962 90.9388 51.9666 90.1745 51.2044C89.4101 50.4423 88.3793 50.0074 87.3 49.9918C85.5594 49.931 84.2035 50.5707 83.2949 51.5146V53.6417C83.9131 51.858 85.6144 51.0377 87.041 51.0534C88.8228 51.0711 90.1964 52.4153 90.2062 53.9341C90.2062 55.3862 89.6058 56.4557 87.9633 56.7186C87.0685 56.8619 85.6674 56.3379 85.7302 54.9859C85.7329 54.8355 85.7669 54.6873 85.8298 54.5506C85.8927 54.414 85.9832 54.2918 86.0957 54.1919C86.2081 54.092 86.3401 54.0164 86.4832 53.97C86.6263 53.9236 86.7775 53.9074 86.9272 53.9223C86.3189 54.7387 87.1234 55.3372 87.6944 55.2135C87.9805 55.1501 88.2358 54.9895 88.4168 54.7591C88.5978 54.5287 88.6934 54.2427 88.6874 53.9498C88.6874 53.4376 88.2047 52.6095 87.0057 52.637C85.5222 52.6723 84.5881 53.7398 84.5567 55.0585C84.5174 56.7206 86.0716 57.8058 87.667 57.8313C90.01 57.8607 91.3993 56.3242 91.3954 54.0754Z" fill="#E4E4E4"/>
<path d="M83.2969 46.4617V49.9487C84.4477 49.0753 85.8574 48.6119 87.302 48.632C90.74 48.632 92.924 51.0358 92.9221 54.0676C92.9221 56.1732 91.9409 57.7568 90.4005 58.581H95.4162V46.4617H83.2969Z" fill="#E4E4E4"/>
<path d="M97.2431 46.8698H96.6309V46.4617H98.2949V46.8698H97.6846V48.4711H97.2431V46.8698Z" fill="#E4E4E4"/>
<path d="M98.6348 46.4617H99.1155L99.6434 47.3114L100.171 46.4617H100.648V48.4711H100.209V47.1583L99.6434 48.0158H99.6316L99.0724 47.1661V48.4691H98.6387V46.4617H98.6348Z" fill="#E4E4E4"/>
</g>
<defs>
<clipPath id="clip0_2359_7626">
<rect width="100" height="100" fill="white" transform="translate(0.648438 0.462891)"/>
</clipPath>
</defs>
</svg>
