<svg width="101" height="101" viewBox="0 0 101 101" fill="none" xmlns="http://www.w3.org/2000/svg">
<path d="M50.3238 15.4629C31.1482 15.4629 15.6191 31.1276 15.6191 50.4629C15.6191 69.7982 31.1482 85.4629 50.3238 85.4629C69.4863 85.4629 85.0285 69.7982 85.0285 50.4629C85.0285 31.1276 69.4885 15.4629 50.3129 15.4629H50.3238ZM50.3238 17.0007C59.1766 17.0007 67.5154 20.4876 73.7826 26.7985C80.0366 33.0876 83.5235 41.5991 83.5016 50.4629C83.5016 59.3945 80.0498 67.8032 73.7826 74.1273C67.5963 80.4054 59.1416 83.936 50.3238 83.9251C41.506 83.936 33.0513 80.4054 26.8651 74.1273C20.611 67.8382 17.1132 59.3266 17.1351 50.4629C17.1351 41.5313 20.5979 33.1226 26.8541 26.7985C33.0404 20.5095 41.506 16.9766 50.3238 17.0007ZM48.5804 29.3163C42.9301 30.8323 37.6998 33.7373 30.7282 41.7348C23.7566 49.7323 25.0779 56.3407 25.0779 56.3407C25.0779 56.3407 27.0029 51.7951 31.6295 47.0088C33.8279 44.7426 35.4576 43.9791 36.5863 43.9791C37.5882 43.9223 38.4326 44.7316 38.4326 45.7335V61.9691C38.4326 63.5748 37.3957 63.9291 36.4398 63.9051C35.6304 63.8941 34.8779 63.6098 34.8779 63.6098C39.6291 70.5135 50.9998 71.4826 50.9998 71.4826L55.9895 66.1495L56.1032 66.2523L60.6729 70.1482C69.0357 65.1804 73.0695 55.9754 73.0695 55.9754C69.3332 59.9173 66.962 60.8404 65.5488 60.8404C64.2954 60.8295 63.8054 60.0988 63.8054 60.0988C63.7376 59.7576 63.6238 54.8116 63.5779 49.8679C63.532 44.7513 63.5779 39.626 63.8295 39.6129C65.2754 36.9004 69.8801 31.4316 69.8801 31.4316C61.2788 33.1291 56.5954 38.7685 56.5954 38.7685C55.2063 37.6748 52.3801 37.8563 52.3801 37.8563C53.7013 38.5848 55.0226 40.7045 55.0226 42.4588V59.7313C55.0226 59.7313 52.1395 62.271 49.9191 62.271C48.5979 62.271 47.7885 61.5535 47.3445 60.9607C47.1738 60.7332 47.0251 60.4816 46.9113 60.2082V38.8801C46.6029 39.1076 46.2266 39.2323 45.8526 39.2454C45.3735 39.2454 44.8835 39.007 44.5532 38.3113C44.3016 37.7863 44.142 37.001 44.142 35.8504C44.142 31.9195 48.5848 29.3098 48.5848 29.3098L48.5804 29.3163Z" fill="#E4E4E4"/>
</svg>
