<svg width="101" height="101" viewBox="0 0 101 101" fill="none" xmlns="http://www.w3.org/2000/svg">
<g clip-path="url(#clip0_2359_7647)">
<path d="M35.056 38.9407L34.892 38.4192C34.81 38.2551 34.7006 37.761 35.3861 37.761H36.2631H37.7162C38.099 37.761 38.1536 38.1164 38.2376 38.2825L42.1282 49.4639C42.1282 49.4639 42.429 50.4502 42.677 50.4502C42.9504 50.4502 43.2532 49.4639 43.2532 49.4639L47.0617 38.2825C47.1437 38.1184 47.1984 37.761 47.7199 37.761H49.9113C50.5148 37.761 50.4874 38.1164 50.4327 38.2825L50.214 38.8586L43.5559 58.0966C43.4192 58.7275 41.802 58.7001 41.72 58.0966L35.056 38.9407Z" fill="#E4E4E4"/>
<path d="M89.6153 58.6435L82.7638 38.2551C82.6818 38.0911 82.6818 37.7336 83.2853 37.7336H85.8341C85.9981 37.7336 86.2442 37.8157 86.3556 38.2551C86.3556 38.2551 90.7676 51.5733 90.9043 52.0108C91.0684 52.4775 91.2324 52.9971 91.4258 53.0244C91.5899 53.0518 91.7813 52.669 91.9473 52.2569C92.1387 51.708 97.3183 38.3625 97.3183 38.3625C97.373 38.1985 97.455 38.0618 97.4823 37.9797C97.537 37.8977 97.6464 37.843 97.8105 37.843H99.4276H100.414C101.045 37.843 100.99 38.1985 100.935 38.3645L91.7012 62.1512L89.3985 67.7136C89.3165 67.8777 89.2618 68.0144 89.1797 68.0691C89.1524 68.1785 89.043 68.2332 88.879 68.2332H86.5489C86.3849 68.2332 86.2208 68.1785 86.0821 68.0691C85.9728 67.9871 85.9728 67.8777 86.0274 67.7136L89.6153 58.6435Z" fill="#E4E4E4"/>
<path d="M49.2773 49.7922C49.2773 49.2981 49.4414 48.8879 49.7715 48.5325C50.1269 48.177 50.5664 47.9836 51.0859 47.9836C51.58 47.9836 51.9902 48.175 52.3457 48.5325C52.7011 48.8879 52.8945 49.3274 52.8945 49.7922C52.8945 50.3137 52.7031 50.7512 52.3457 51.1066C51.9902 51.4348 51.5507 51.6008 51.0859 51.6008C50.5644 51.6008 50.1543 51.4367 49.7988 51.0793C49.4414 50.7238 49.2773 50.3137 49.2773 49.7922Z" fill="#E4E4E4"/>
<path d="M61.5536 41.2161C61.1161 41.3801 60.7587 41.6829 60.4032 41.9563C60.2939 42.011 60.1845 42.1204 60.1025 42.2024L59.8564 42.4485C59.5556 42.8313 59.3076 43.2434 59.1435 43.6809C58.8974 44.2297 58.788 44.8313 58.788 45.4894V57.9307C58.788 58.2861 58.624 58.4521 58.2666 58.4521H56.1846C55.8291 58.4521 55.6631 58.2881 55.6631 57.9307V45.5168C55.6631 45.0227 55.6904 44.5578 55.7725 44.0637C55.8818 43.5149 56.0459 42.9953 56.2939 42.5012C56.7041 41.5422 57.2529 40.6926 57.9384 40.0071C58.624 39.3216 59.4462 38.7747 60.3779 38.3626C60.8993 38.1439 61.4189 38.0071 61.9403 37.8958C62.2411 37.8138 62.5712 37.7864 62.872 37.7318H63.4481C67.6414 37.6497 69.614 40.2532 70.1629 40.7454C70.4089 40.9915 70.4363 41.4309 70.0261 41.595L68.1629 42.0891C67.6414 42.2805 67.3133 42.1985 66.9305 41.843C66.786 41.7356 64.4032 40.0364 61.5536 41.2161Z" fill="#E4E4E4"/>
<path d="M79.0643 55.3546H73.5839C72.7069 55.3272 70.4882 54.8058 70.4882 52.2589C70.4882 51.3546 70.871 50.4777 71.3925 50.0109C72.4335 49.1066 73.5839 49.1613 73.5839 49.1613H78.5447C78.8182 49.1613 78.9822 49.298 79.0662 49.5715V55.3546H79.0643ZM81.5584 42.4759C81.1482 41.5169 80.5994 40.6947 79.8865 40.0091C79.201 39.3236 76.6795 37.2689 71.5019 38.0912C70.9804 38.2826 71.0644 38.6127 71.5566 39.1048C71.7753 39.2962 72.6249 40.2552 72.9276 40.5033C73.5038 40.97 73.8319 40.9134 74.0507 40.8861C78.6541 40.64 79.0662 44.8313 79.0662 45.4895V45.6536C78.9842 45.8997 78.8201 46.009 78.5447 46.009H73.5839C72.7616 46.009 71.9667 46.1731 71.1992 46.5032C70.4316 46.8313 69.7734 47.2707 69.1992 47.8176C68.623 48.3664 68.1855 49.0227 67.8555 49.7902C67.5273 50.5578 67.3613 51.3527 67.3613 52.2296C67.3613 53.0519 67.5254 53.8468 67.8555 54.6144C68.1836 55.3819 68.623 56.0401 69.1992 56.6143C69.7754 57.1905 70.4316 57.628 71.1992 57.9581C71.9667 58.2881 72.7616 58.4522 73.5839 58.4522H79.449H79.6131H81.6951C82.0505 58.4522 82.2166 58.2881 82.2166 57.9307V45.5169C82.1892 44.4485 81.9705 43.4349 81.5584 42.4759Z" fill="#E4E4E4"/>
<path d="M16.6941 37.4603C18.8581 37.4603 20.6393 36.9114 20.6393 36.2552C20.6667 35.597 18.9128 35.0501 16.7488 35.0501C14.5847 35.0501 12.8035 35.599 12.8035 36.2552C12.7762 36.886 14.5301 37.4603 16.6941 37.4603ZM16.366 61.1376C8.77429 61.1376 2.63767 54.999 2.63767 47.4093C2.63767 42.9699 4.74701 39.052 8.00868 36.5306C2.5283 42.7238 8.66687 56.0693 12.202 56.4248C16.614 56.6982 18.2859 42.7785 23.4655 40.9973C27.356 39.5442 30.2896 45.3547 28.5083 51.9034C26.6978 57.4931 22.0924 61.0282 16.366 61.1376ZM10.036 36.0638C11.077 34.8861 12.8309 33.9818 15.2156 33.7337C15.5984 33.7064 15.9832 33.6791 16.366 33.6791C20.2565 33.6791 23.7369 35.2962 26.231 37.8724C25.8756 37.763 25.3814 37.5989 24.4498 37.5989C16.8581 37.5989 14.284 52.6163 12.0086 52.5616C10.5008 52.6143 5.35052 41.3254 10.036 36.0638ZM16.366 32.6927C7.84266 32.6927 0.96582 39.5989 0.96582 48.0929C0.96582 56.5869 7.87196 63.493 16.366 63.493C24.86 63.493 31.7661 56.5869 31.7661 48.0929C31.7661 39.5989 24.8873 32.6927 16.366 32.6927Z" fill="#E4E4E4"/>
</g>
<defs>
<clipPath id="clip0_2359_7647">
<rect width="100" height="100" fill="white" transform="translate(0.96582 0.462891)"/>
</clipPath>
</defs>
</svg>
