<svg width="101" height="101" viewBox="0 0 101 101" fill="none" xmlns="http://www.w3.org/2000/svg">
<g clip-path="url(#clip0_2336_10021)">
<path d="M18.6543 58.4628C17.6873 58.9251 15.4194 59.493 12.5537 59.493C4.30829 59.493 0.0537109 54.3225 0.0537109 47.4905C0.0537109 39.3471 5.87298 34.8534 13.0811 34.8534C15.8941 34.8534 18.0038 35.4195 18.9707 35.9153L17.828 40.1611C16.7731 39.7022 15.2436 39.2767 13.2921 39.2767C9.05512 39.2767 5.73234 41.8611 5.73234 47.2075C5.73234 51.986 8.56286 54.9941 13.3449 54.9941C14.9975 54.9941 16.7731 54.6741 17.8631 54.2152L18.6543 58.4628Z" fill="#191919"/>
<path d="M27.8498 59.493C22.7865 59.493 18.9011 56.1631 18.9011 50.5689C18.9011 44.9764 22.5755 41.4022 28.1662 41.4022C33.4405 41.4022 36.9918 45.0485 36.9918 50.2858C36.9918 56.5886 32.4911 59.493 27.885 59.493H27.8498ZM27.9553 55.6304C30.0826 55.6304 31.3835 53.5436 31.3835 50.4282C31.3835 47.879 30.399 45.2612 27.9553 45.2612C25.4061 45.2612 24.4215 47.879 24.4215 50.4634C24.4215 53.4029 25.6522 55.6304 27.9201 55.6304H27.9553Z" fill="#191919"/>
<path d="M38.9251 47.4905C38.9251 44.9413 38.8899 43.2781 38.7844 41.7908H43.3906L43.6016 45.0116H43.7422C44.6213 42.4623 46.7134 41.4022 48.4187 41.4022C48.911 41.4022 49.1571 41.4374 49.5439 41.5077V46.5692C49.0868 46.5007 48.6649 46.4286 48.0671 46.4286C46.0805 46.4286 44.7268 47.4536 44.3751 49.1554C44.3048 49.5088 44.2697 49.8973 44.2697 50.3579V59.1027H38.8899L38.9251 47.4905Z" fill="#191919"/>
<path d="M58.4582 37.0844V41.7908H62.326V45.7552H58.4582V52.058C58.4582 54.1466 58.9856 55.1012 60.5855 55.1012C61.3239 55.1012 61.6755 55.0661 62.1678 54.9606L62.2029 59.0306C61.5349 59.2785 60.2339 59.4929 58.7395 59.4929C56.999 59.4929 55.5574 58.8899 54.6783 58.0038C53.6762 56.9771 53.184 55.3122 53.184 52.872V45.7552H50.8809V41.7908H53.184V38.533L58.4582 37.0844Z" fill="#191919"/>
<path d="M67.2132 52.1266C67.389 54.3927 69.5866 55.4546 72.1007 55.4546C73.9467 55.4546 75.4235 55.205 76.8827 54.711L77.5859 58.3607C75.8278 59.1027 73.6654 59.456 71.3271 59.456C65.4551 59.456 62.0796 56.0576 62.0796 50.6058C62.0796 46.2159 64.8398 41.3671 70.8349 41.3671C76.4256 41.3671 78.5529 45.7201 78.5529 50.0028C78.5529 50.924 78.4474 51.738 78.3595 52.1635L67.2132 52.1266ZM73.5599 48.4451C73.5599 47.1705 72.9797 44.9413 70.5536 44.9413C68.2505 44.9413 67.3187 47.0281 67.178 48.4451H73.5599Z" fill="#191919"/>
<path d="M84.0381 41.7909L85.7258 44.6935C86.2357 45.5778 86.6928 46.4287 87.1499 47.2779H87.2202C87.6773 46.3215 88.0992 45.4706 88.5564 44.588L90.0859 41.7909H95.9227L90.2265 50.0381L95.9931 59.101H89.9101L88.1696 55.9875C87.6773 55.1365 87.2202 54.2522 86.8334 53.3661H86.7279C86.306 54.2874 85.8313 55.1365 85.4094 55.9875L83.7919 59.101H77.8672L83.7568 50.286L78.0078 41.7909H84.0381Z" fill="#191919"/>
<path d="M72.7163 38.0707H77.2698V33.5243H72.7163V38.0707Z" fill="#191919"/>
<path d="M59.9524 38.0707H64.5058V33.5243H59.9524V38.0707Z" fill="#191919"/>
<path d="M47.1885 38.0707H51.7419V33.5243H47.1885V38.0707Z" fill="#191919"/>
<path d="M34.4246 38.0707H38.978V33.5243H34.4246V38.0707Z" fill="#191919"/>
<path d="M85.6201 32.4062H90.1736V27.8597H85.6201V32.4062Z" fill="#191919"/>
<path d="M91.1758 37.9564H95.7292V33.41H91.1758V37.9564Z" fill="#191919"/>
<path d="M91.1758 32.4062H95.7292V27.8597H91.1758V32.4062Z" fill="#191919"/>
<path d="M85.6201 37.9564H90.1736V33.41H85.6201V37.9564Z" fill="#191919"/>
<path d="M0.318115 70.7271H1.09167V65.3632H0.318115V70.7271Z" fill="#191919"/>
<path d="M2.8673 67.6611H2.88488C3.14859 67.3218 3.55295 67.1249 3.93973 67.1249C4.6078 67.1249 5.15281 67.582 5.15281 68.5489V70.7272H4.44957V68.5419C4.44957 68.0215 4.18586 67.6839 3.74634 67.6839C3.44747 67.6839 3.20133 67.8264 2.8673 68.1956V70.7272H2.18164V67.197H2.8673V67.6611Z" fill="#191919"/>
<path d="M6.94601 67.1971H8.0536V67.8265H6.94601V69.6338C6.94601 70.0504 7.24488 70.17 7.43827 70.17C7.68441 70.17 7.94812 70.0821 8.22941 69.9098V70.562C8.00086 70.6957 7.61408 70.7976 7.38553 70.7976C6.62955 70.7976 6.24277 70.3265 6.24277 69.69V67.8265H5.62744V67.7473L6.94601 66.4657V67.1971Z" fill="#191919"/>
<path d="M11.6929 70.3809C11.2709 70.6639 10.8842 70.7975 10.2864 70.7975C9.17881 70.7975 8.56348 69.8939 8.56348 68.9181C8.56348 67.8492 9.24914 67.1249 10.2161 67.1249C11.1479 67.1249 11.7456 67.7631 11.7456 69.0676H9.26671C9.3722 69.7673 9.77656 70.1294 10.4622 70.1294C10.8842 70.1294 11.2709 69.973 11.6929 69.7058V70.3809ZM11.06 68.6034C11.0424 68.069 10.7259 67.7314 10.2337 67.7314C9.70623 67.7314 9.3722 68.0461 9.28429 68.6034H11.06Z" fill="#191919"/>
<path d="M12.5193 70.7271H13.2225V65.3632H12.5193V70.7271Z" fill="#191919"/>
<path d="M14.2422 70.7271H14.9454V65.3632H14.2422V70.7271Z" fill="#191919"/>
<mask id="mask0_2336_10021" style="mask-type:luminance" maskUnits="userSpaceOnUse" x="0" y="27" width="101" height="46">
<path d="M0.0537109 27.8598H100.054V72.4801H0.0537109V27.8598Z" fill="white"/>
</mask>
<g mask="url(#mask0_2336_10021)">
<path d="M16.317 66.5429C16.0884 66.5429 15.9126 66.3548 15.9126 66.1263C15.9126 65.8995 16.0884 65.7096 16.317 65.7096C16.5455 65.7096 16.7389 65.8995 16.7389 66.1263C16.7389 66.3548 16.5455 66.5429 16.317 66.5429ZM16.6686 70.7272H15.9653V67.1969H16.6686V70.7272Z" fill="#191919"/>
<path d="M20.4837 67.7384H19.7629C20.0442 68.0145 20.132 68.2114 20.132 68.5102C20.132 68.8003 19.9738 69.1396 19.798 69.3049C19.3409 69.8077 18.374 69.5563 18.374 69.973C18.374 70.1699 18.7432 70.2877 19.4464 70.4283C20.2024 70.5777 20.4661 70.9628 20.4661 71.4111C20.4661 72.1108 19.8507 72.5363 18.8135 72.5363C17.8465 72.5363 17.1785 72.0879 17.1785 71.4673C17.1785 70.9469 17.4598 70.641 18.0751 70.4916C17.829 70.3422 17.7059 70.1998 17.7059 70.0433C17.7059 69.8147 17.9344 69.6178 18.2685 69.5405V69.5247C18.0048 69.4139 17.8114 69.2645 17.6883 69.0763C17.5653 68.8953 17.4949 68.6755 17.4949 68.4153C17.4949 67.6611 18.0751 67.1969 19.042 67.1969H20.4837V67.7384ZM18.6377 70.9012C18.163 70.9012 17.8465 71.121 17.8465 71.4357C17.8465 71.7891 18.1806 71.9772 18.8135 71.9772C19.4288 71.9772 19.798 71.7891 19.798 71.4673C19.798 71.019 19.0772 70.9012 18.6377 70.9012ZM18.8135 67.8017C18.4443 67.8017 18.1278 68.0936 18.1278 68.4399C18.1278 68.8249 18.4091 69.0834 18.8311 69.0834C19.2179 69.0834 19.4992 68.8091 19.4992 68.4241C19.4992 68.0848 19.1827 67.8017 18.8135 67.8017Z" fill="#191919"/>
</g>
<path d="M23.9819 70.3809C23.56 70.6639 23.1732 70.7975 22.5755 70.7975C21.4679 70.7975 20.8525 69.8939 20.8525 68.9181C20.8525 67.8492 21.5382 67.1249 22.5051 67.1249C23.4369 67.1249 24.0523 67.7631 24.0523 69.0676H21.5558C21.6613 69.7673 22.0656 70.1294 22.7513 70.1294C23.1732 70.1294 23.5776 69.973 23.9819 69.7058V70.3809ZM23.349 68.6034C23.3314 68.069 23.015 67.7314 22.5227 67.7314C21.9953 67.7314 21.6613 68.0461 21.5734 68.6034H23.349Z" fill="#191919"/>
<path d="M25.4759 67.6611H25.4935C25.7572 67.3218 26.1616 67.1249 26.5484 67.1249C27.2165 67.1249 27.7615 67.582 27.7615 68.5489V70.7272H27.0582V68.5419C27.0582 68.0215 26.7945 67.6839 26.3726 67.6839C26.0561 67.6839 25.81 67.8264 25.4759 68.1956V70.7272H24.7903V67.197H25.4759V67.6611Z" fill="#191919"/>
<path d="M29.5549 67.1971H30.6625V67.8265H29.5549V69.6338C29.5549 70.0504 29.8538 70.17 30.0472 70.17C30.3109 70.17 30.557 70.0821 30.8383 69.9098V70.562C30.6097 70.6957 30.223 70.7976 29.9944 70.7976C29.2384 70.7976 28.8517 70.3265 28.8517 69.69V67.8265H28.2363V67.7473L29.5549 66.4657V67.1971Z" fill="#191919"/>
<path d="M35.2688 65.3632C36.4292 65.3632 36.9742 66.0558 36.9742 66.905C36.9742 67.7471 36.4116 68.4082 35.1633 68.4082H34.3546V70.7271H33.5986V65.3632H35.2688ZM34.3546 67.7155H35.2336C35.8138 67.7155 36.183 67.4096 36.183 66.8734C36.183 66.4813 35.9721 66.0558 35.2688 66.0558H34.3546V67.7155Z" fill="#191919"/>
<path d="M38.2923 67.197V68.0057H38.3099C38.6615 67.3851 38.9956 67.1249 39.3296 67.1249C39.6109 67.1249 39.8746 67.2585 40.1735 67.5345L39.8043 68.1393C39.5933 67.9354 39.312 67.7947 39.1538 67.7947C38.6791 67.7947 38.2923 68.2747 38.2923 68.8794V70.7272H37.5891V67.197H38.2923Z" fill="#191919"/>
<path d="M44.0238 68.9269C44.0238 70.0433 43.2502 70.7975 42.1075 70.7975C41.035 70.7975 40.2439 70.0117 40.2439 68.9269C40.2439 67.9125 41.0526 67.1249 42.1075 67.1249C43.2326 67.1249 44.0238 67.8809 44.0238 68.9269ZM40.9647 68.9269C40.9647 69.6741 41.4394 70.1699 42.1075 70.1699C42.8459 70.1699 43.303 69.697 43.303 68.9339C43.303 68.2501 42.8107 67.7543 42.1075 67.7543C41.4394 67.7543 40.9647 68.2501 40.9647 68.9269Z" fill="#191919"/>
<path d="M47.3998 68.1164C46.9955 67.8492 46.7318 67.7701 46.4329 67.7701C45.7824 67.7701 45.3429 68.2501 45.3429 68.9656C45.3429 69.697 45.8176 70.1382 46.5384 70.1382C46.8373 70.1382 47.1186 70.0591 47.4702 69.9009V70.5936C47.2416 70.7043 46.8021 70.7975 46.4329 70.7975C45.378 70.7975 44.6396 70.0662 44.6396 69.0289C44.6396 67.865 45.3077 67.1249 46.3802 67.1249C46.7845 67.1249 47.0658 67.2198 47.3998 67.3693V68.1164Z" fill="#191919"/>
<path d="M51.1968 70.3809C50.7748 70.6639 50.3881 70.7975 49.7903 70.7975C48.6827 70.7975 48.0674 69.8939 48.0674 68.9181C48.0674 67.8492 48.753 67.1249 49.7376 67.1249C50.6694 67.1249 51.2671 67.7631 51.2671 69.0676H48.7706C48.8937 69.7673 49.2805 70.1294 49.9661 70.1294C50.3881 70.1294 50.7924 69.973 51.1968 69.7058V70.3809ZM50.5639 68.6034C50.5463 68.069 50.2474 67.7314 49.7376 67.7314C49.2101 67.7314 48.8937 68.0461 48.7882 68.6034H50.5639Z" fill="#191919"/>
<path d="M54.0628 68.1094C53.6761 67.8492 53.3069 67.7385 53.0432 67.7385C52.7619 67.7385 52.5861 67.8721 52.5861 68.0619C52.5861 68.2184 52.8146 68.4083 53.4475 68.7687C54.0277 69.1537 54.2387 69.3981 54.2387 69.7603C54.2387 70.3809 53.7464 70.7975 53.0783 70.7975C52.6388 70.7975 52.3048 70.7114 51.8477 70.4758V69.7216C52.3048 70.0363 52.7091 70.1839 52.9904 70.1839C53.2893 70.1699 53.5178 70.0363 53.5178 69.7831C53.5178 69.2961 51.8652 69.0359 51.8652 68.0848C51.8652 67.487 52.3223 67.1249 53.0256 67.1249C53.3596 67.1249 53.6937 67.2198 54.0628 67.4167V68.1094Z" fill="#191919"/>
<path d="M57.1041 68.1094C56.6997 67.8492 56.3305 67.7385 56.0668 67.7385C55.7855 67.7385 55.6097 67.8721 55.6097 68.0619C55.6097 68.2184 55.8383 68.4083 56.4712 68.7687C57.0514 69.1537 57.2623 69.3981 57.2623 69.7603C57.2623 70.3809 56.7701 70.7975 56.102 70.7975C55.6625 70.7975 55.3284 70.7114 54.8713 70.4758V69.7216C55.3284 70.0363 55.7504 70.1839 56.0317 70.1839C56.313 70.1699 56.5415 70.0363 56.5415 69.7831C56.5415 69.2961 54.8889 69.0359 54.8889 68.0848C54.8889 67.487 55.346 67.1249 56.0493 67.1249C56.3833 67.1249 56.7349 67.2198 57.1041 67.4167V68.1094Z" fill="#191919"/>
<path d="M61.6402 68.9269C61.6402 70.0433 60.8491 70.7975 59.7239 70.7975C58.6339 70.7975 57.8604 70.0117 57.8604 68.9269C57.8604 67.9125 58.6691 67.1249 59.7239 67.1249C60.8315 67.1249 61.6402 67.8809 61.6402 68.9269ZM58.5812 68.9269C58.5812 69.6741 59.0383 70.1699 59.7063 70.1699C60.4623 70.1699 60.9194 69.697 60.9194 68.9339C60.9194 68.2501 60.4096 67.7543 59.7063 67.7543C59.0558 67.7543 58.5812 68.2501 58.5812 68.9269Z" fill="#191919"/>
<path d="M63.1522 67.197V68.0057H63.1698C63.5214 67.3851 63.873 67.1249 64.1895 67.1249C64.4884 67.1249 64.7521 67.2585 65.0334 67.5345L64.6642 68.1393C64.4532 67.9354 64.1895 67.7947 64.0137 67.7947C63.539 67.7947 63.1522 68.2747 63.1522 68.8794V70.7272H62.4666V67.197H63.1522Z" fill="#191919"/>
<path d="M67.5826 68.1094C67.1958 67.8492 66.8266 67.7385 66.5629 67.7385C66.2816 67.7385 66.0883 67.8721 66.0883 68.0619C66.0883 68.2184 66.3344 68.4083 66.9497 68.7687C67.5299 69.1537 67.7409 69.3981 67.7409 69.7603C67.7409 70.3809 67.2486 70.7975 66.5805 70.7975C66.141 70.7975 65.807 70.7114 65.3499 70.4758V69.7216C65.807 70.0363 66.2289 70.1839 66.5102 70.1839C66.7915 70.1699 67.0376 70.0363 67.0376 69.7831C67.0376 69.2961 65.385 69.0359 65.385 68.0848C65.385 67.487 65.8245 67.1249 66.5454 67.1249C66.8794 67.1249 67.2134 67.2198 67.5826 67.4167V68.1094Z" fill="#191919"/>
<path d="M71.4154 67.4482C71.7143 67.2285 72.0307 67.1248 72.3823 67.1248C73.2614 67.1248 73.9119 67.8719 73.9119 68.8864C73.9119 70.0819 73.2086 70.7974 72.0307 70.7974C71.556 70.7974 71.0638 70.6954 70.7122 70.5302V65.3632H71.4154V67.4482ZM71.4154 70.0274C71.6088 70.0907 71.9077 70.1381 72.1186 70.1381C72.7515 70.1381 73.1911 69.6582 73.1911 68.9901C73.1911 68.2429 72.8043 67.7542 72.2065 67.7542C71.9252 67.7542 71.7143 67.8491 71.4154 68.1163V70.0274Z" fill="#191919"/>
<path d="M75.0543 72.5363H74.2632L75.4763 69.973L74.105 67.197H74.8961L75.8455 69.1854L76.7597 67.197H77.5508L75.0543 72.5363Z" fill="#191919"/>
<path d="M84.9701 70.7272H84.1965L83.4757 69.1467H81.1902L80.5221 70.7272H79.731L82.034 65.3334H82.5791L84.9701 70.7272ZM81.489 68.454H83.1592L82.2978 66.5131L81.489 68.454Z" fill="#191919"/>
<path d="M86.9387 65.3632C88.0111 65.3632 88.6968 65.9381 88.6968 66.8663C88.6968 67.4869 88.3803 67.9511 87.8002 68.1796C88.2924 68.5013 88.5913 68.9971 88.9957 69.6652C89.2242 70.0362 89.3649 70.2155 89.7341 70.7271H88.8023L88.099 69.6265C87.3958 68.526 87.0618 68.3994 86.675 68.3994H86.3585V70.7271H85.585V65.3632H86.9387ZM86.3585 67.7084H86.8508C87.6771 67.7084 87.9056 67.283 87.9056 66.8347C87.8881 66.3319 87.5892 66.0242 86.8508 66.0242H86.3585V67.7084Z" fill="#191919"/>
<path d="M95.3074 70.7271H94.5339V66.5516H94.5163L92.8637 68.6279H92.7406L91.088 66.5516H91.0704V70.7271H90.2969V65.3632H91.0177L92.7934 67.566L94.5866 65.3632H95.3074V70.7271Z" fill="#191919"/>
<path d="M96.7489 67.3218C96.2567 67.3218 95.8699 66.9262 95.8699 66.4375C95.8699 65.9487 96.2567 65.5549 96.7489 65.5549C97.2412 65.5549 97.6455 65.9487 97.6455 66.4375C97.6455 66.9262 97.2412 67.3218 96.7489 67.3218ZM96.7489 65.7009C96.3446 65.7009 96.0105 66.0296 96.0105 66.4375C96.0105 66.8454 96.3446 67.1759 96.7489 67.1759C97.1533 67.1759 97.4873 66.8454 97.4873 66.4375C97.4873 66.0296 97.1533 65.7009 96.7489 65.7009ZM96.3621 65.9769H96.7841C97.0302 65.9769 97.1005 66.1228 97.1005 66.2265C97.1005 66.3795 96.995 66.4902 96.8368 66.499V66.5043C96.9071 66.5324 96.9775 66.6151 97.0478 66.7416L97.1709 66.9262H96.9775L96.8896 66.7786C96.7841 66.5641 96.7313 66.5236 96.6083 66.5236H96.5204V66.9262H96.3621V65.9769ZM96.7489 66.3918C96.8544 66.3918 96.9423 66.3461 96.9423 66.2476C96.9423 66.1615 96.872 66.107 96.7665 66.107H96.5204V66.3918H96.7489Z" fill="#191919"/>
<path d="M98.5773 41.8507V42.0142H98.1905V43.1359H97.9971V42.0142H97.5928V41.8507H98.5773ZM99.8255 43.1359L99.7728 42.3606C99.7552 42.2603 99.7728 42.1373 99.7728 42.0125H99.7552C99.7201 42.132 99.6849 42.2674 99.6497 42.3799L99.386 43.1183H99.2278L98.9641 42.3606C98.9289 42.2568 98.9113 42.132 98.8762 42.0125H98.8586C98.8586 42.1338 98.8586 42.2445 98.8586 42.3606L98.8058 43.1359H98.63L98.718 41.8507H98.9817L99.2278 42.5469C99.2629 42.6436 99.2805 42.7508 99.3157 42.8704H99.3333C99.3509 42.7508 99.386 42.6383 99.4212 42.5452L99.6673 41.8507H99.9134L100.019 43.1359H99.8255Z" fill="#191919"/>
</g>
<defs>
<clipPath id="clip0_2336_10021">
<rect width="100" height="100" fill="white" transform="translate(0.0537109 0.197998)"/>
</clipPath>
</defs>
</svg>
