<svg width="101" height="101" viewBox="0 0 101 101" fill="none" xmlns="http://www.w3.org/2000/svg">
<g clip-path="url(#clip0_2336_10017)">
<path d="M26.9699 44.0342C29.6231 44.0342 30.9177 45.3535 30.9177 47.4837C30.9177 49.084 30.2009 50.0464 28.7351 50.414C30.6609 50.7384 31.6131 51.7981 31.6131 53.658C31.6131 55.7666 30.2009 57.2048 27.2908 57.2048H21.9094V44.0342H26.9699ZM23.6961 45.7535V49.6787H26.7345C28.4249 49.6787 29.1203 48.9002 29.1203 47.6242C29.1203 46.3483 28.3714 45.7427 26.7345 45.7427L23.6961 45.7535ZM23.6961 51.2899V55.3881H27.3443C29.0561 55.3881 29.8264 54.761 29.8264 53.4418C29.8264 52.036 29.0882 51.2791 27.3122 51.2791L23.6961 51.2899ZM34.5231 43.3314C35.1329 43.2881 35.6679 43.7531 35.7106 44.3694V44.5316C35.7106 45.1913 35.1757 45.7319 34.5231 45.7319C33.8705 45.7319 33.3355 45.1913 33.3355 44.5316C33.2928 43.9153 33.7528 43.3746 34.3626 43.3314C34.4161 43.3206 34.4696 43.3206 34.5231 43.3314ZM33.6565 47.1809H35.3683V57.2048H33.6565V47.1809ZM41.8731 55.5179C42.2368 55.5071 42.5899 55.4638 42.9429 55.3773V57.0426C42.5685 57.1507 42.1833 57.2048 41.7982 57.2048C39.6691 57.2048 38.6421 55.9396 38.6421 54.0797V48.7812H37.0373V47.1809H38.6421V45.0507H40.3004V47.1809H42.9429V48.7812H40.3004V54.0473C40.3004 54.9232 40.8139 55.5179 41.8731 55.5179ZM49.9826 57.3994C48.5383 57.3994 47.4256 56.7398 46.8265 55.4314V57.1939H45.1147V42.9854H46.8372V48.9759C47.4684 47.6567 48.6667 46.9754 50.1859 46.9754C52.8284 46.9754 54.1551 49.2354 54.1551 52.1874C54.1444 55.0205 52.7642 57.3994 49.9826 57.3994ZM49.7258 48.5758C48.1959 48.5758 46.8372 49.5598 46.8372 51.7873V52.5875C46.8372 54.815 48.0889 55.799 49.544 55.799C51.4697 55.799 52.4647 54.5123 52.4647 52.1874C52.4433 49.7869 51.4911 48.5758 49.7258 48.5758ZM55.931 47.1809H57.6428V53.2471C57.6428 55.0529 58.3596 55.8531 59.9858 55.8531C61.5692 55.8531 62.6605 54.7934 62.6605 52.7605V47.1809H64.3722V57.2048H62.6605V55.5612C62.04 56.7182 60.831 57.4318 59.5258 57.4102C57.247 57.4102 55.931 55.8099 55.931 53.0525V47.1809ZM73.9475 56.9452C73.3484 57.2696 72.439 57.3994 71.5296 57.3994C67.9991 57.3994 66.3408 55.2368 66.3408 52.155C66.3408 49.1273 67.9884 46.9646 71.5296 46.9646C72.3427 46.943 73.1558 47.1052 73.894 47.462V49.0624C73.1879 48.7272 72.4176 48.565 71.6366 48.5866C69.0582 48.5866 68.0098 50.2302 68.0098 52.1766C68.0098 54.123 69.0796 55.7666 71.6794 55.7666C72.4497 55.7882 73.2093 55.6693 73.9368 55.4098L73.9475 56.9452ZM75.8947 57.2048V42.9854H77.6064V51.8738L81.8752 47.1809H84.1005L79.4359 52.1009L84.2931 57.2048H81.9715L77.6064 52.5118V57.2048H75.8947ZM89.942 57.3994C86.2295 57.3994 84.6033 55.2368 84.6033 52.155C84.6033 49.1273 86.2723 46.9646 89.2893 46.9646C92.3492 46.9646 93.5688 49.1165 93.5688 52.155V52.9335H86.3258C86.5612 54.642 87.6525 55.745 89.9955 55.745C91.0225 55.745 92.0496 55.5612 93.0125 55.2043V56.8047C92.2101 57.248 90.9583 57.3994 89.942 57.3994ZM86.3151 51.4737H91.8463C91.75 49.6139 90.9155 48.5434 89.2038 48.5434C87.3957 48.5325 86.4863 49.722 86.3044 51.4629V51.4737H86.3151ZM99.5279 55.5179C99.8917 55.5071 100.245 55.4638 100.598 55.3773V57.0426C100.223 57.1507 99.8382 57.2048 99.453 57.2048C97.324 57.2048 96.2969 55.9396 96.2969 54.0797V48.7812H94.6921V47.1809H96.2969V45.0507H97.9659V47.1809H100.608V48.7812H97.9659V54.0473C97.9552 54.9232 98.4688 55.5179 99.5279 55.5179Z" fill="#191919"/>
<path d="M1.06819 44.4125C0.811428 44.4125 0.608154 44.6071 0.608154 44.8666C0.608154 44.8883 0.608154 44.9207 0.618853 44.9423L2.53391 56.6855C2.5874 56.9775 2.83347 57.2045 3.13303 57.2045H12.3124C12.5371 57.2045 12.7297 57.0423 12.7618 56.8261L14.6768 44.9531C14.7196 44.7044 14.5485 44.4665 14.3024 44.4341C14.281 44.4341 14.2489 44.4233 14.2275 44.4233L1.06819 44.4125ZM9.12426 52.9009H6.19283L5.40114 48.7053H9.84106L9.12426 52.9009Z" fill="#191919"/>
<path d="M14.0678 48.7054H9.84188L9.13577 52.901H6.19365L2.72729 57.0533C2.83428 57.1506 2.97336 57.2047 3.12314 57.2047H12.3133C12.5379 57.2047 12.7305 57.0425 12.7626 56.8262L14.0678 48.7054Z" fill="#191919"/>
</g>
<defs>
<clipPath id="clip0_2336_10017">
<rect width="100" height="100" fill="white" transform="translate(0.608398 0.197998)"/>
</clipPath>
</defs>
</svg>
