<svg width="100" height="101" viewBox="0 0 100 101" fill="none" xmlns="http://www.w3.org/2000/svg">
<path d="M81.1321 35.7779C81.1316 34.6011 80.8798 33.561 80.3706 32.6684C79.8709 31.7906 79.1218 31.0549 78.1175 30.4732C69.8262 25.6923 61.5263 20.926 53.2377 16.1403C51.0031 14.8501 48.8366 14.897 46.6183 16.2059C43.318 18.1523 26.795 27.6187 21.871 30.4705C19.8435 31.6444 18.8567 33.4409 18.8562 35.7755C18.853 45.3905 18.8562 55.0051 18.853 64.6202C18.853 65.7709 19.0946 66.791 19.5812 67.6703C20.0814 68.5746 20.8407 69.3305 21.8684 69.9254C26.7926 72.7772 43.3178 82.2431 46.6173 84.1897C48.8363 85.4991 51.0031 85.546 53.2384 84.2554C61.5273 79.4694 69.8274 74.7033 78.1202 69.9224C79.1478 69.3278 79.9071 68.5714 80.4073 67.6679C80.8932 66.7886 81.1353 65.7687 81.1353 64.6172C81.1353 64.6172 81.1353 45.393 81.1321 35.7779Z" fill="#393939"/>
<path d="M50.0886 50.1025L19.5801 67.6686C20.0805 68.5729 20.8398 69.3288 21.8675 69.9236C26.7917 72.7755 43.3169 82.2414 46.6164 84.188C48.8355 85.4973 51.0022 85.5443 53.2375 84.2536C61.5264 79.4676 69.8265 74.7016 78.1193 69.9207C79.147 69.3261 79.9063 68.5697 80.4065 67.6661L50.0886 50.1025Z" fill="#191919"/>
<path d="M41.0537 55.3058C42.829 58.4048 46.1662 60.4952 49.9946 60.4952C53.8466 60.4952 57.2028 58.3785 58.9691 55.2459L50.09 50.1025L41.0537 55.3058Z" fill="#191919"/>
<path d="M81.1315 35.7782C81.131 34.6014 80.8792 33.5613 80.37 32.6687L50.0889 50.1046L80.4067 67.6682C80.8925 66.7889 81.1341 65.769 81.1346 64.6175C81.1346 64.6175 81.1346 45.3933 81.1315 35.7782Z" fill="#272727"/>
<path d="M79.4657 51.3588H77.0966V53.7284H74.7269V51.3588H72.358V48.9901H74.7269V46.621H77.0966V48.9901H79.4657V51.3588ZM49.9948 29.514C57.5697 29.514 64.1927 33.5867 67.7963 39.6614L67.9044 39.8461L58.9024 45.0299C57.1184 41.9622 53.7987 39.8979 49.9948 39.8979C44.3067 39.8979 39.6956 44.509 39.6956 50.1968C39.6937 51.9896 40.1621 53.7515 41.0539 55.3067C42.8292 58.4057 46.1664 60.496 49.9948 60.496C53.8045 60.496 57.1293 58.4256 58.9107 55.3497L58.9693 55.2468L67.9581 60.4547C64.3939 66.6822 57.6845 70.8799 49.9948 70.8799C42.3193 70.8799 35.6203 66.699 32.0512 60.4897C30.3088 57.4586 29.3118 53.9442 29.3118 50.1968C29.3118 38.7744 38.5716 29.514 49.9948 29.514ZM68.452 46.6207V48.9899H70.8209V51.3588H68.452V53.7284H66.0829V51.3588H63.7137V48.9901H66.0829V46.621L68.452 46.6207Z" fill="#E4E4E4"/>
</svg>
