<svg width="101" height="100" viewBox="0 0 101 100" fill="none" xmlns="http://www.w3.org/2000/svg">
<g clip-path="url(#clip0_2336_9956)">
<g clip-path="url(#clip1_2336_9956)">
<path d="M97.5994 35.207C97.5994 34.3869 96.7909 33.4125 95.3921 33.4125H5.60912C4.21033 33.4125 3.40187 34.3869 3.40187 35.207V64.793C3.40187 65.6131 4.21033 66.5879 5.60912 66.5879H95.3921C96.7909 66.5879 97.5994 65.6131 97.5994 64.793V35.207ZM100.501 64.793C100.501 67.5809 98.0338 69.5313 95.3921 69.5313H5.60912C2.96745 69.5313 0.500488 67.5809 0.500488 64.793V35.207C0.500488 32.4191 2.96745 30.4686 5.60912 30.4686H95.3921C98.0338 30.4686 100.501 32.4191 100.501 35.207V64.793Z" fill="#191919"/>
<path d="M85.6378 41.1901C85.5608 40.4023 85.2304 39.7903 84.6464 39.3541C84.0625 38.9179 83.2701 38.6998 82.269 38.6998C81.5889 38.6998 81.0146 38.7974 80.5462 38.9928C80.0777 39.1816 79.7184 39.4453 79.4681 39.7838C79.2243 40.1224 79.1024 40.5065 79.1024 40.9362C79.0896 41.2943 79.1633 41.6068 79.3238 41.8737C79.4906 42.1407 79.7184 42.3718 80.0071 42.5671C80.2959 42.7559 80.6296 42.922 81.0082 43.0652C81.3867 43.2019 81.791 43.3191 82.2209 43.4168L83.9919 43.8465C84.8518 44.0418 85.641 44.3022 86.3597 44.6278C87.0784 44.9533 87.7008 45.3537 88.227 45.829C88.7532 46.3042 89.1606 46.8642 89.4494 47.5087C89.7445 48.1533 89.8953 48.8922 89.9018 49.7256C89.8953 50.9496 89.5873 52.0109 88.9777 52.9093C88.3746 53.8013 87.5019 54.4947 86.3597 54.9895C85.224 55.4778 83.854 55.7219 82.2498 55.7219C80.6584 55.7219 79.2724 55.4745 78.0917 54.9797C76.9175 54.4849 75.9999 53.7525 75.339 52.7824C74.6845 51.8058 74.3412 50.598 74.3091 49.1592H78.342C78.3869 49.8298 78.5762 50.3897 78.9099 50.8389C79.25 51.2817 79.7024 51.617 80.267 51.8448C80.8381 52.0662 81.483 52.1769 82.2017 52.1769C82.9075 52.1769 83.5203 52.0727 84.0401 51.8644C84.5662 51.656 84.9737 51.3663 85.2625 50.9952C85.5512 50.6241 85.6956 50.1976 85.6956 49.7158C85.6956 49.2666 85.564 48.889 85.301 48.583C85.0443 48.277 84.6657 48.0166 84.1652 47.8017C83.6711 47.5869 83.0647 47.3915 82.346 47.2157L80.1996 46.6688C78.5377 46.2587 77.2255 45.6174 76.263 44.7449C75.3005 43.8725 74.8224 42.6973 74.8288 41.2194C74.8224 40.0084 75.1401 38.9504 75.7817 38.0455C76.4298 37.1405 77.3185 36.4341 78.4479 35.9262C79.5772 35.4184 80.8606 35.1645 82.2979 35.1645C83.7609 35.1645 85.0379 35.4184 86.1287 35.9262C87.226 36.4341 88.0794 37.1405 88.689 38.0455C89.2986 38.9504 89.613 39.9987 89.6323 41.1901H85.6378Z" fill="#191919"/>
<path d="M71.857 45.4383C71.857 47.6194 71.4495 49.4749 70.6346 51.005C69.8261 52.535 68.7224 53.7036 67.3235 54.511C65.9311 55.3118 64.3654 55.7122 62.6265 55.7122C60.8747 55.7122 59.3026 55.3085 57.9102 54.5012C56.5177 53.6939 55.4173 52.5252 54.6088 50.9952C53.8002 49.4652 53.396 47.6129 53.396 45.4383C53.396 43.2573 53.8002 41.4017 54.6088 39.8717C55.4173 38.3417 56.5177 37.1763 57.9102 36.3755C59.3026 35.5682 60.8747 35.1645 62.6265 35.1645C64.3654 35.1645 65.9311 35.5682 67.3235 36.3755C68.7224 37.1763 69.8261 38.3417 70.6346 39.8717C71.4495 41.4017 71.857 43.2573 71.857 45.4383ZM67.6315 45.4383C67.6315 44.0255 67.423 42.8341 67.0059 41.864C66.5952 40.8939 66.0145 40.1582 65.2638 39.6569C64.513 39.1555 63.6339 38.9049 62.6265 38.9049C61.619 38.9049 60.74 39.1555 59.9892 39.6569C59.2384 40.1582 58.6545 40.8939 58.2374 41.864C57.8268 42.8341 57.6214 44.0255 57.6214 45.4383C57.6214 46.8511 57.8268 48.0426 58.2374 49.0127C58.6545 49.9828 59.2384 50.7185 59.9892 51.2198C60.74 51.7211 61.619 51.9718 62.6265 51.9718C63.6339 51.9718 64.513 51.7211 65.2638 51.2198C66.0145 50.7185 66.5952 49.9828 67.0059 49.0127C67.423 48.0426 67.6315 46.8511 67.6315 45.4383Z" fill="#191919"/>
<path d="M35.7869 38.9244V35.4379H51.9763V38.9244H45.9414V55.4387H41.8218V38.9244H35.7869Z" fill="#191919"/>
<path d="M18.7505 55.4387V35.4379H26.5276C28.0163 35.4379 29.2868 35.7081 30.3391 36.2485C31.3979 36.7824 32.2032 37.5409 32.755 38.524C33.3133 39.5006 33.5924 40.6497 33.5924 41.9714C33.5924 43.2996 33.3101 44.4422 32.7454 45.3993C32.1807 46.3498 31.3626 47.079 30.291 47.5868C29.2258 48.0947 27.936 48.3486 26.4217 48.3486H21.2145V44.95H25.7479C26.5436 44.95 27.2045 44.8393 27.7307 44.618C28.2569 44.3966 28.6483 44.0646 28.905 43.6218C29.1681 43.1791 29.2996 42.629 29.2996 41.9714C29.2996 41.3073 29.1681 40.7474 28.905 40.2916C28.6483 39.8359 28.2537 39.4908 27.7211 39.2564C27.1949 39.0155 26.5308 38.8951 25.7287 38.8951H22.9182V55.4387H18.7505ZM29.3959 46.3368L34.295 55.4387H29.6942L24.9009 46.3368H29.3959Z" fill="#191919"/>
<path d="M12.7567 40.8026L13.0607 38.965C13.7248 39.2013 14.2314 39.5753 14.5807 40.0873C14.9257 40.5948 15.0982 41.2314 15.0982 41.9971C15.0982 43.209 14.7079 44.1059 13.9274 44.6878C13.3022 45.1473 12.513 45.377 11.5601 45.377C10.4217 45.377 9.5312 45.0751 8.88869 44.4713C8.24187 43.8675 7.91846 43.104 7.91846 42.1808C7.91846 41.1439 8.25696 40.3257 8.93397 39.7263C9.60666 39.1269 10.6394 38.8403 12.0322 38.8666V43.4868C12.5713 43.4737 12.9917 43.325 13.2935 43.0406C13.5911 42.7562 13.7399 42.4018 13.7399 41.9774C13.7399 41.6886 13.6622 41.4458 13.507 41.2489C13.3518 41.052 13.1017 40.9032 12.7567 40.8026ZM10.9197 40.6976C10.3936 40.7107 9.99475 40.8486 9.72309 41.1111C9.44711 41.3736 9.30912 41.693 9.30912 42.0693C9.30912 42.4718 9.45358 42.8043 9.74249 43.0668C10.0314 43.3293 10.4238 43.4584 10.9197 43.454V40.6976Z" fill="#191919"/>
<path d="M12.7567 48.2843L13.0607 46.4467C13.7248 46.683 14.2314 47.057 14.5807 47.5689C14.9257 48.0765 15.0982 48.7131 15.0982 49.4787C15.0982 50.6907 14.7079 51.5876 13.9274 52.1695C13.3022 52.6289 12.513 52.8586 11.5601 52.8586C10.4217 52.8586 9.5312 52.5567 8.88869 51.953C8.24187 51.3492 7.91846 50.5857 7.91846 49.6625C7.91846 48.6256 8.25696 47.8074 8.93397 47.208C9.60666 46.6086 10.6394 46.322 12.0322 46.3482V50.9685C12.5713 50.9554 12.9917 50.8066 13.2935 50.5222C13.5911 50.2379 13.7399 49.8835 13.7399 49.4591C13.7399 49.1703 13.6622 48.9275 13.507 48.7306C13.3518 48.5337 13.1017 48.3849 12.7567 48.2843ZM10.9197 48.1793C10.3936 48.1924 9.99475 48.3302 9.72309 48.5928C9.44711 48.8553 9.30912 49.1747 9.30912 49.5509C9.30912 49.9535 9.45358 50.286 9.74249 50.5485C10.0314 50.811 10.4238 50.9401 10.9197 50.9357V48.1793Z" fill="#191919"/>
<path d="M14.9429 55.7923V57.6365H8.07369V55.9236H9.05039C8.589 55.6304 8.28499 55.3679 8.13838 55.136C7.99176 54.8997 7.91846 54.6329 7.91846 54.3353C7.91846 53.9153 8.03273 53.5106 8.26127 53.1212L9.84599 53.6922C9.64763 54.0028 9.54845 54.2916 9.54845 54.5585C9.54845 54.8166 9.6196 55.0354 9.7619 55.2148C9.89989 55.3941 10.1521 55.5363 10.5187 55.6414C10.8852 55.742 11.6528 55.7923 12.8214 55.7923H14.9429Z" fill="#191919"/>
<path d="M8.07369 62.8408V61.817H7.55624C6.97841 61.817 6.54719 61.7558 6.26259 61.6332C5.97799 61.5064 5.74729 61.2767 5.57049 60.9441C5.38938 60.6072 5.29883 60.1828 5.29883 59.6709C5.29883 59.1459 5.37645 58.6318 5.53168 58.1287L6.79945 58.378C6.73046 58.6712 6.69596 58.9534 6.69596 59.2247C6.69596 59.4916 6.75849 59.6841 6.88354 59.8022C7.00428 59.916 7.23929 59.9728 7.58858 59.9728H8.07369V58.5946H9.50317V59.9728H14.9429V61.817H9.50317V62.8408H8.07369Z" fill="#191919"/>
<path d="M94.1566 60.2664H19.4211V63.1626H94.1566V60.2664Z" fill="#191919"/>
</g>
</g>
<defs>
<clipPath id="clip0_2336_9956">
<rect width="100" height="100" fill="white" transform="translate(0.500488)"/>
</clipPath>
<clipPath id="clip1_2336_9956">
<rect width="100" height="39.0625" fill="white" transform="translate(0.500488 30.4688)"/>
</clipPath>
</defs>
</svg>
