<svg width="101" height="101" viewBox="0 0 101 101" fill="none" xmlns="http://www.w3.org/2000/svg">
<g clip-path="url(#clip0_2336_9995)">
<path d="M60.5385 43.533C58.3459 43.533 56.7131 44.6091 56.7131 47.1991C56.7131 49.1505 57.7892 50.5054 60.4202 50.5054C62.6504 50.5054 64.1653 49.1916 64.1653 47.1181C64.1653 44.7685 62.8099 43.533 60.5385 43.533ZM56.1548 61.8209C55.6357 62.4572 55.1186 63.1339 55.1186 63.9316C55.1186 65.5242 57.1502 66.0035 59.9411 66.0035C62.2524 66.0035 65.4013 65.8414 65.4013 63.6931C65.4013 62.4161 63.8864 62.3374 61.9723 62.2176L56.1548 61.8209ZM67.9516 43.6532C68.6677 44.5696 69.4261 45.845 69.4261 47.6773C69.4261 52.0992 65.9587 54.6884 60.9381 54.6884C59.6614 54.6884 58.5057 54.5294 57.7892 54.3305L56.4733 56.4412L60.3787 56.68C67.2742 57.1194 71.3379 57.3191 71.3379 62.6154C71.3379 67.1979 67.3138 69.7859 60.3787 69.7859C53.1654 69.7859 50.4153 67.9533 50.4153 64.8064C50.4153 63.0137 51.2125 62.0594 52.6075 60.7424C51.292 60.1868 50.854 59.1913 50.854 58.1148C50.854 57.2377 51.292 56.4416 52.0105 55.6838C52.7274 54.928 53.5242 54.1703 54.4809 53.2939C52.5284 52.3376 51.0531 50.2661 51.0531 47.3174C51.0531 42.7369 54.0825 39.5908 60.1789 39.5908C61.8932 39.5908 62.9297 39.7483 63.8464 39.9891H71.6187V43.374L67.9516 43.6532ZM78.6303 36.4138C76.3581 36.4138 75.043 35.0981 75.043 32.8264C75.043 30.5579 76.3577 29.3217 78.6303 29.3217C80.9416 29.3217 82.2571 30.5579 82.2571 32.8264C82.2571 35.0981 80.942 36.4138 78.6303 36.4138ZM73.4882 60.3548V57.2091L75.5214 56.9311C76.0796 56.8508 76.1587 56.7317 76.1587 56.133V44.4204C76.1587 43.9834 76.0396 43.703 75.6397 43.5847L73.4882 42.827L73.9262 39.601H82.1768V56.133C82.1768 56.7713 82.2152 56.8508 82.815 56.9314L84.8474 57.2095V60.3548H73.4882ZM100.608 58.8103C98.8935 59.6464 96.3828 60.4033 94.1103 60.4033C89.3678 60.4033 87.5751 58.4931 87.5751 53.989V43.5526C87.5751 43.3137 87.5751 43.1544 87.2551 43.1544H84.4658V39.6077C87.9739 39.2083 89.3678 37.4555 89.8061 33.1131H93.5928V38.7716C93.5928 39.0497 93.5928 39.1699 93.9121 39.1699H99.5309V43.1536H93.5928V52.6744C93.5928 55.0248 94.1514 55.9403 96.3025 55.9403C97.4198 55.9403 98.5743 55.6623 99.5305 55.3036L100.608 58.8103Z" fill="#191919"/>
<path d="M41.5571 48.3565L23.3344 30.1422C23.0849 29.8927 22.7886 29.6947 22.4625 29.5597C22.1364 29.4246 21.7869 29.3551 21.4339 29.3551C21.0809 29.3551 20.7314 29.4246 20.4053 29.5597C20.0791 29.6947 19.7829 29.8927 19.5333 30.1422L15.7494 33.925L20.5495 38.7228C21.1137 38.5313 21.7204 38.5014 22.3008 38.6365C22.8811 38.7717 23.4121 39.0665 23.8335 39.4876C24.257 39.9117 24.5527 40.4462 24.6868 41.0302C24.8209 41.6142 24.788 42.2241 24.592 42.7903L29.2173 47.4147C30.3366 47.0293 31.6282 47.2788 32.5218 48.1736C32.8189 48.4703 33.0546 48.8227 33.2154 49.2106C33.3763 49.5985 33.459 50.0142 33.459 50.4341C33.459 50.8539 33.3763 51.2697 33.2154 51.6575C33.0546 52.0454 32.8189 52.3978 32.5218 52.6945C31.9991 53.2175 31.3112 53.5433 30.5753 53.6163C29.8394 53.6894 29.1009 53.5053 28.4855 53.0953C27.8701 52.6853 27.4159 52.0748 27.2001 51.3678C26.9843 50.6607 27.0204 49.9007 27.3021 49.2172L22.9881 44.9049L22.9877 56.2534C23.3003 56.4082 23.5859 56.6124 23.8335 56.858C24.1306 57.1549 24.3662 57.5073 24.527 57.8953C24.6878 58.2832 24.7705 58.699 24.7705 59.1189C24.7705 59.5388 24.6878 59.9545 24.527 60.3425C24.3662 60.7304 24.1306 61.0829 23.8335 61.3797C22.5838 62.6289 20.5585 62.6289 19.3108 61.3797C18.938 61.0074 18.6631 60.5488 18.5104 60.0446C18.3577 59.5404 18.332 59.0064 18.4356 58.4899C18.5392 57.9734 18.7688 57.4905 19.1041 57.0841C19.4394 56.6777 19.87 56.3605 20.3575 56.1606V44.7064C19.9655 44.546 19.6096 44.3087 19.3108 44.0086C18.3643 43.0637 18.1367 41.6755 18.6217 40.5136L13.8901 35.7831L1.39567 48.2719C1.146 48.5214 0.947946 48.8177 0.812824 49.1438C0.677701 49.4699 0.608154 49.8193 0.608154 50.1723C0.608154 50.5252 0.677701 50.8747 0.812824 51.2008C0.947946 51.5269 1.146 51.8231 1.39567 52.0727L19.6183 70.2873C19.8679 70.5369 20.1642 70.7348 20.4903 70.8699C20.8164 71.0049 21.1659 71.0744 21.5189 71.0744C21.8719 71.0744 22.2214 71.0049 22.5475 70.8699C22.8736 70.7348 23.1699 70.5369 23.4195 70.2873L41.5571 52.1577C42.0611 51.6535 42.3443 50.9699 42.3443 50.2571C42.3443 49.5443 42.0611 48.8606 41.5571 48.3565Z" fill="#191919"/>
</g>
<defs>
<clipPath id="clip0_2336_9995">
<rect width="100" height="100" fill="white" transform="translate(0.608154 0.197998)"/>
</clipPath>
</defs>
</svg>
