<svg width="101" height="100" viewBox="0 0 101 100" fill="none" xmlns="http://www.w3.org/2000/svg">
<path d="M71.2218 43.3909C71.2218 55.0604 61.9694 64.5295 50.5499 64.5295C39.1304 64.5295 29.8782 55.0604 29.8782 43.3909C29.8782 31.7212 39.1305 22.2521 50.5499 22.2521C61.9696 22.2521 71.2219 31.7212 71.2219 43.3909" fill="#E4E4E4"/>
<path d="M30.7284 48.6255C30.7284 48.6255 29.2281 26.5868 49.5499 25.9531L48.1329 23.5858L37.1134 27.2868L33.9627 30.9044L31.212 36.1723L29.6448 42.3073L30.1117 46.4084" fill="#636363"/>
<path d="M36.3961 28.9704C32.7787 32.6879 30.528 37.806 30.528 43.4741C30.528 49.1421 32.7787 54.26 36.3961 57.9776C40.0303 61.6952 45.0151 63.9791 50.5497 63.9791C56.0843 63.9791 61.069 61.6952 64.7032 57.9778C68.3208 54.26 70.5714 49.1421 70.5714 43.4741C70.5714 37.8059 68.3208 32.6879 64.7032 28.9704C61.0692 25.2694 56.0845 22.969 50.5497 22.969C45.0317 22.969 40.0305 25.2528 36.3961 28.9704ZM35.4793 58.8612C31.6285 54.9269 29.2444 49.4756 29.2444 43.4741C29.2444 37.4725 31.6285 32.0211 35.4793 28.0702C39.3302 24.1358 44.6649 21.6852 50.5498 21.6852C56.4348 21.6852 61.7693 24.1358 65.6202 28.0702C69.4712 32.0045 71.8551 37.4557 71.8551 43.4741C71.8551 49.4754 69.471 54.9269 65.6202 58.8612C61.7693 62.8121 56.4346 65.2461 50.5497 65.2461C44.6648 65.2461 39.3302 62.8121 35.4793 58.8612Z" fill="#191919"/>
<path d="M59.252 43.5073L56.1012 43.9741L51.8502 44.4576L49.0995 44.5243L46.4155 44.441L44.3649 43.8076L42.5477 41.8402L41.1307 37.8225L40.814 36.9556L38.9303 36.3222L37.8298 34.5052L37.0464 31.9043L37.9133 29.6206L39.9639 28.9037L41.6143 29.6873L42.3977 31.4211L43.348 31.2709L43.6647 30.8709L43.348 29.0537L43.2646 26.7698L43.7314 23.6191L43.7147 21.8187L45.1484 19.5181L47.6657 17.7009L52.0669 15.8171L56.9515 16.5339L61.2025 19.6014L63.1697 22.7521L64.4365 25.0361L64.7534 30.7041L63.8031 35.5887L62.0692 39.9232L60.4357 42.2404" fill="#E4E4E4"/>
<path d="M56.5848 57.1276L45.332 57.5943V59.478L46.2822 66.0965L45.8153 66.6466L37.9467 63.9626L37.3967 63.0123L36.6131 54.1101L34.7626 48.7754L34.3625 47.5084L40.6641 43.1741L42.6314 42.3905L44.3651 44.5242L45.8654 45.8581L47.5993 46.4081L48.3827 46.6417L49.333 50.7427L50.0499 51.6096L51.8669 50.976L50.6 53.4265L57.435 56.6607L56.5848 57.1276Z" fill="#393939"/>
<path d="M37.9141 29.6539L39.9647 28.9372L41.6151 29.7206L42.3985 31.4545L43.3488 31.3045L43.5823 30.3542L43.1154 28.537L43.5821 24.2026L43.1821 21.8354L44.5991 20.185L47.6665 17.751L46.7995 16.5674L42.4652 18.7011L40.6482 20.1183L39.6312 22.3187L38.0641 24.4526L37.5974 26.9699L37.9141 29.6539Z" fill="#393939"/>
<path d="M41.1483 22.2514C41.1483 22.2514 42.3318 19.334 47.0497 17.917C51.7674 16.5 47.2832 16.9001 47.2832 16.9001L42.165 18.8673L40.1981 20.8344L39.3311 22.4014L41.1483 22.2514ZM38.781 29.1032C38.781 29.1032 37.1305 23.585 43.4321 22.8016L43.1987 21.8513L38.8644 22.8683L37.5974 26.9695L37.9141 29.6533L38.781 29.1032Z" fill="#E4E4E4"/>
<path d="M41.2972 36.4228L42.3306 35.4224C42.3306 35.4224 42.7975 35.4725 42.8809 36.0226C42.9642 36.5726 43.1976 41.5407 46.5818 44.208C46.8985 44.458 44.0645 43.8078 44.0645 43.8078L41.547 39.8735M55.7841 34.9222C55.7841 34.9222 55.9674 32.5383 56.6176 32.7218C57.2678 32.9051 57.2678 33.5551 57.2678 33.5551C57.2678 33.5551 55.7008 34.5555 55.7841 34.9222ZM62.3191 26.1869C62.3191 26.1869 61.0187 26.4535 60.9021 27.6039C60.7853 28.7541 62.3191 27.8372 62.5524 27.7539M52.8001 26.2702C52.8001 26.2702 51.0662 26.5036 51.0662 27.6039C51.0662 28.7042 53.0334 28.6207 53.5835 28.1539M42.0973 31.3881C42.0973 31.3881 39.1134 29.5709 38.7967 31.3048C38.48 33.0387 37.7797 34.2887 39.2634 36.1059L38.2465 35.7892L37.2964 33.3552L36.9795 30.9879L38.7967 29.1042L40.8471 29.2542L42.0307 30.2045L42.0973 31.3881ZM43.5144 26.4202C43.5144 26.4202 44.8479 19.4851 51.6164 18.1514C57.1843 17.0511 60.1185 18.3849 61.2188 19.6517C61.2188 19.6517 56.2508 13.7504 51.5329 15.5508C46.8152 17.368 43.3476 20.6687 43.4309 22.786C43.5643 26.4201 43.5143 26.4201 43.5143 26.4201M61.7688 20.4353C61.7688 20.4353 59.485 20.352 59.4015 22.4024C59.4015 22.4024 59.4015 22.7193 59.5518 23.036C59.5518 23.036 61.3688 20.9854 62.4691 22.0857" fill="#BCBCBC"/>
<path d="M51.7834 23.2526C51.7834 23.2526 51.3834 20.1185 48.716 21.9355C46.9821 23.1192 47.1488 24.7695 47.449 25.0864C47.7657 25.4031 47.6824 26.0365 47.9158 25.6032C48.1491 25.1699 48.0824 23.7527 48.9494 23.3525C49.7995 22.9525 51.2333 22.5192 51.7834 23.2526Z" fill="#DADADA"/>
<path d="M44.3818 44.5241L36.9795 47.8247C36.9795 47.8247 40.0471 60.0278 38.4799 63.8121L37.3797 63.4121L37.2964 58.7609L35.2458 49.9588L34.3789 47.5246L42.0975 42.3234L44.3818 44.5241ZM45.1318 51.2757L46.182 52.5594V57.2772H44.9318C44.9318 57.2772 44.7818 53.9764 44.7818 53.5764C44.7818 53.1764 44.9318 51.7592 44.9318 51.7592M45.1652 57.9941L41.6143 58.1441L42.6313 58.861L45.1484 59.2612" fill="#7C7C7C"/>
<path d="M57.2844 57.2105L60.2016 57.1272L60.9185 64.3622L57.9345 64.7625L57.2844 57.2105Z" fill="#393939"/>
<path d="M58.0679 57.2094L62.4689 56.9759C62.4689 56.9759 64.2861 52.4082 64.2861 52.1748C64.2861 51.9413 65.8532 45.5565 65.8532 45.5565L62.3022 41.8556L61.5853 41.2222L59.7016 43.1059V50.4245L58.0679 57.2094Z" fill="#393939"/>
<path d="M60.0351 56.6605L57.2844 57.2107L57.6846 59.4113C58.7014 59.8781 60.4353 58.6277 60.4353 58.6277M60.1184 42.8738L65.6366 46.9748L65.7866 45.0909L61.6189 41.2401L60.1184 42.8738Z" fill="#7C7C7C"/>
<path d="M47.8985 72.7147L46.2647 66.0964L45.4479 61.2119L45.3145 57.5942L52.6995 57.1942H57.284L56.8674 65.4629L57.5841 71.8478L57.5008 73.0314L51.5159 73.4983L47.8985 72.7147Z" fill="#E4E4E4"/>
<path d="M56.2675 57.1267C56.2675 57.1267 55.8675 65.3122 57.0511 71.1469C57.0511 71.1469 54.6839 72.6472 51.2329 73.0306L57.8514 72.7972L58.6348 72.3305L57.6847 59.4273L57.4345 56.6598" fill="#E4E4E4"/>
<path d="M61.0358 63.7451L64.1032 62.8782L69.9214 62.5615L70.7883 59.8775L69.2211 55.2263L67.4041 54.9929L64.8868 55.7765L62.4861 56.9602L61.2025 56.7266L60.2021 57.1268" fill="#E4E4E4"/>
<path d="M60.9858 62.1618C60.9858 62.1618 63.0364 61.2115 63.3531 61.2948L62.4862 56.9605L63.5031 56.5603C63.5031 56.5603 64.22 60.6614 64.22 61.1282C64.22 61.1282 68.6211 61.3615 69.0211 61.3615C69.0211 61.3615 69.9714 59.5443 69.738 57.6606L70.605 60.1779L70.6883 61.5949L69.4213 63.4787L68.0043 63.7955L65.6371 63.7122L64.8534 62.6952L62.1028 63.0953L61.2358 63.4121" fill="#E4E4E4"/>
<path d="M57.8851 56.5775L56.1513 52.1764L54.3342 49.5756C54.3342 49.5756 54.7344 48.4755 55.2845 48.4755H57.1017L58.8356 49.1089L58.6854 52.0264L57.8851 56.5775Z" fill="#E4E4E4"/>
<path d="M58.2344 55.0769C58.2344 55.0769 56.0338 50.8259 56.0338 50.1924C56.0338 50.1924 56.434 49.2421 56.9841 49.4756C57.5343 49.709 58.718 50.3426 58.718 50.3426V48.8421L56.0338 48.292L54.2168 48.5254L57.2842 55.7938L57.9176 55.8772" fill="#E4E4E4"/>
<path d="M48.5989 44.6907L46.4151 44.4571L44.3645 43.8237V44.5406L45.3647 45.6409L48.5155 47.0579" fill="#E4E4E4"/>
<path d="M45.0832 44.9248C45.0832 44.9248 47.517 45.9418 48.3174 45.7084L48.4006 46.6587L46.2001 46.1918L44.8665 45.2415L45.0832 44.9248Z" fill="#E4E4E4"/>
<path d="M61.0355 48.7427C59.7019 48.7092 58.4848 48.5426 57.4345 48.2425C57.5012 47.809 57.3678 47.3924 57.4846 47.0755C57.7847 46.8588 58.268 46.8588 58.7181 46.8089C58.3347 46.6254 57.7847 46.5421 57.3512 46.6588C57.3344 46.3588 57.2012 46.1753 57.1177 45.9419C57.868 45.6751 59.6351 43.9248 60.6353 44.4915C61.1189 44.7749 61.319 46.342 61.3522 47.1256C61.3855 47.759 61.2855 48.3925 61.0355 48.7427Z" fill="#E4E4E4"/>
<path d="M61.0355 48.7427C59.7019 48.7092 58.4848 48.5426 57.4345 48.2425C57.5012 47.809 57.3678 47.3924 57.4846 47.0755C57.7847 46.8588 58.268 46.8588 58.7181 46.8089C58.3347 46.6254 57.7847 46.5421 57.3512 46.6588C57.3344 46.3588 57.2012 46.1753 57.1177 45.9419C57.868 45.6751 59.6351 43.9248 60.6353 44.4915C61.1189 44.7749 61.319 46.342 61.3522 47.1256C61.3855 47.759 61.2855 48.3925 61.0355 48.7427Z" fill="#191919" stroke="#E4E4E4" stroke-width="2"/>
<path d="M54.6499 46.5582C54.6499 46.6584 54.6499 46.7582 54.6331 46.8583C54.2165 47.1251 53.5495 47.1251 53.0827 47.3585C53.7497 47.3917 54.2832 47.5584 54.7499 47.7751C54.7331 48.0253 54.7331 48.2921 54.7166 48.5421C53.9497 49.0589 53.2496 49.8425 52.3494 50.3425C51.9159 50.5761 50.4322 51.1762 49.9821 51.0594C49.7319 50.9927 49.6987 50.676 49.5987 50.3759C49.382 49.7425 48.8818 48.7088 48.8317 47.7419C48.7817 46.525 48.6484 44.4744 49.9653 44.7244C51.0322 44.9245 52.2659 45.408 53.0827 45.8581C53.5995 46.1582 53.883 46.4915 54.6499 46.5582Z" fill="#E4E4E4"/>
<path d="M54.6499 46.5582C54.6499 46.6584 54.6499 46.7582 54.6331 46.8583C54.2165 47.1251 53.5495 47.1251 53.0827 47.3585C53.7497 47.3917 54.2832 47.5584 54.7499 47.7751C54.7331 48.0253 54.7331 48.2921 54.7166 48.5421C53.9497 49.0589 53.2496 49.8425 52.3494 50.3425C51.9159 50.5761 50.4322 51.1762 49.9821 51.0594C49.7319 50.9927 49.6987 50.676 49.5987 50.3759C49.382 49.7425 48.8818 48.7088 48.8317 47.7419C48.7817 46.525 48.6484 44.4744 49.9653 44.7244C51.0322 44.9245 52.2659 45.408 53.0827 45.8581C53.5995 46.1582 53.883 46.4915 54.6499 46.5582Z" fill="#191919" stroke="#E4E4E4" stroke-width="2"/>
<path d="M55.4014 48.0087C55.2846 47.3417 55.1512 47.1586 55.2013 46.5749C56.985 45.3912 57.3019 48.6088 55.4014 48.0087Z" fill="#E4E4E4"/>
<path d="M55.4014 48.0087C55.2846 47.3417 55.1512 47.1586 55.2013 46.5749C56.985 45.3912 57.3019 48.6088 55.4014 48.0087Z" fill="#191919" stroke="#E4E4E4" stroke-width="2"/>
<path d="M57.9682 48.5427C57.9682 48.5427 57.4181 47.759 57.8181 47.5257C58.2182 47.2923 58.6017 47.5257 58.8351 47.1256C59.0687 46.7254 58.8351 46.4922 58.9185 46.0253C59.0018 45.5586 59.3852 45.4753 59.7854 45.3919C60.1854 45.3084 61.2857 45.1584 61.4358 45.542L60.969 44.1248L60.0188 43.8081L57.0347 45.542L56.8847 46.4089V48.1426M49.6995 51.1433C49.5996 49.9096 49.4996 48.6927 49.3995 47.459C49.2328 45.6253 49.8329 45.9418 51.4332 45.9418C51.6834 45.9418 52.9336 46.2254 53.0171 46.4089C53.4505 47.2923 52.3002 47.0922 53.5171 47.759C54.534 48.3093 56.3512 47.4257 55.9344 46.1754C55.7009 45.8919 54.7341 46.092 54.384 45.9086L52.5335 44.9585C51.7501 44.5583 49.9495 43.9581 49.116 44.525C46.9988 45.9586 49.2494 49.5596 49.9996 51.06" fill="#636363"/>
<path d="M51.7844 23.252C49.6338 22.7518 48.567 24.1522 47.9168 25.6025C47.3333 25.4692 47.5666 24.669 47.7168 24.269C48.1001 23.2187 49.6506 21.8016 50.9174 22.0017C51.4509 22.0684 52.1844 22.5685 51.7844 23.252ZM62.237 25.6858H62.337C62.8205 26.6862 63.2372 27.7532 63.8541 28.6534C63.4374 29.6203 60.7533 30.4538 60.7866 28.7534C61.3701 28.5034 62.3704 28.7033 62.8872 28.37C62.5871 27.5531 62.1703 26.8526 62.237 25.6858ZM52.868 25.7194C53.3348 26.5696 53.4846 27.4531 54.1348 28.0867C54.4351 28.37 55.0018 28.7201 54.7185 29.5202C54.6518 29.7036 54.1683 30.1205 53.8848 30.2038C52.868 30.5039 50.484 30.2705 51.2842 28.9867C52.1343 29.0202 53.2681 29.537 53.9016 28.92C53.4181 28.1532 52.5512 26.6194 52.868 25.7194ZM61.8536 34.288C60.3198 35.2717 58.6026 36.3553 56.0688 36.1052C55.5354 35.6384 55.3186 34.588 55.8521 33.9047C56.1187 34.3715 55.952 35.2384 56.719 35.3716C58.1527 35.6218 59.8197 34.4881 60.8533 34.1048C61.4867 33.0212 60.8034 32.6378 60.2199 31.9375C59.0362 30.5205 57.4692 28.7534 57.5191 26.6363C58.0026 26.2861 58.0359 27.1697 58.1026 27.3197C58.7194 28.7534 60.2699 30.6038 61.3867 31.8375C61.6701 32.1376 62.1202 32.4377 62.1703 32.6378C62.3203 33.2045 61.7869 33.9044 61.8536 34.288ZM41.5483 33.2545C41.0649 32.9711 40.9483 31.7708 40.3815 31.7374C39.5646 31.6875 39.7146 33.3046 39.7146 34.2547C39.1646 33.7547 39.0644 32.1875 39.4646 31.3874C38.9979 31.1539 38.7976 31.6374 38.531 31.8041C38.8811 29.3869 42.0817 30.6872 41.5483 33.2545ZM62.8205 35.3049C62.1036 36.672 61.0866 38.1724 58.9862 38.2224C58.9361 37.789 58.9028 37.1055 58.9862 36.8387C60.6033 36.672 61.6034 35.8552 62.8205 35.3049ZM52.7513 36.1885C54.0849 36.8888 56.5522 36.9721 58.386 36.922C58.486 37.3222 58.486 37.8222 58.486 38.3058C56.1355 38.4057 53.368 37.8222 52.7513 36.1885ZM52.5013 37.4889C53.4347 39.8227 56.6189 39.5561 59.3029 39.4894C59.1863 39.7895 58.9361 40.1563 58.6028 40.2728C57.7358 40.623 55.3685 40.8898 54.1683 40.2562C53.4181 39.8562 52.9179 38.9392 52.5013 38.4057C52.3178 38.1557 51.3176 37.5055 52.5013 37.4889Z" fill="#191919"/>
<path d="M61.7357 50.3413C60.652 52.2084 59.602 54.1256 58.3184 55.7593C58.8516 54.1757 59.085 51.5083 59.1685 49.4745C60.3021 48.9409 61.269 49.591 61.7357 50.3413Z" fill="#7C7C7C"/>
<path d="M67.5871 57.0443C66.3702 57.2943 65.5198 58.4779 64.3196 58.3946C64.9864 57.4776 66.12 57.0776 67.5871 57.0443ZM68.1205 58.9447C67.1203 59.0448 65.9533 59.2115 64.9531 59.1282C65.4365 58.3946 67.2704 58.6612 68.1205 58.9447ZM68.4706 60.5952C67.3537 60.6119 65.9699 60.5952 64.9031 60.5117C65.5365 59.8283 67.7537 60.2617 68.4706 60.5952Z" fill="#191919"/>
<path d="M59.6362 65.0953C59.8029 66.4957 60.3531 67.9128 60.2864 69.4464C59.6695 69.6464 59.3195 69.8298 58.4858 69.8298C58.4359 68.5294 58.2524 66.5291 58.3025 65.2787C58.7026 65.312 59.3027 64.9953 59.6362 65.0953Z" fill="#E4E4E4"/>
<path d="M57.8335 44.423C57.2667 44.7896 56.7999 45.2397 56.2497 45.6399C55.0494 45.7066 54.3992 45.5566 53.5325 44.8731C53.5491 44.8231 53.6324 44.8397 53.6324 44.773C54.916 45.3399 56.5498 44.5398 57.8335 44.423Z" fill="#E4E4E4"/>
<path d="M51.1335 53.1419C51.4837 51.6248 52.8674 50.8247 54.1176 49.9912C55.4012 51.6249 56.1848 53.7254 57.0517 55.7592C55.0012 55.1424 52.9173 54.1589 51.1335 53.1419Z" fill="#7C7C7C"/>
<path d="M58.301 65.2959C58.251 66.5462 58.4176 68.5301 58.4843 69.847C59.318 69.847 59.668 69.6637 60.2849 69.4636C60.3516 67.9298 59.8014 66.5128 59.6347 65.1124C59.3012 64.9958 58.7011 65.3125 58.301 65.2959ZM45.4311 58.2275C45.9813 63.2453 46.7647 67.4463 48.215 71.8975C51.4326 72.8811 55.3002 72.9644 58.151 72.0808C57.6342 69.5803 57.8509 66.5296 57.5509 63.8455C57.3173 61.8283 57.4341 59.8112 57.1174 57.7606C53.6665 57.0439 48.7987 57.5939 45.4311 58.2275ZM57.9343 57.794C57.9008 59.9446 58.0342 62.0783 58.2011 64.2289C59.0344 64.1123 59.5846 64.0289 60.3516 63.8455C60.1014 61.7782 60.1349 59.4278 59.6181 57.5939C59.0346 57.6107 58.5176 57.5941 57.9343 57.794ZM62.1186 57.4437C61.7185 57.3604 61.2684 57.4437 60.9017 57.4437C61.085 59.1942 61.5018 61.128 61.6518 62.9785C62.2353 62.9951 62.552 62.7117 63.0356 62.6284C63.0688 61.0113 62.9022 58.7774 62.1186 57.4437ZM68.4702 63.2452C69.7039 62.9451 70.4707 61.4447 70.1206 59.8943C69.8872 58.8607 69.4872 56.8937 69.0369 56.2267C68.7202 55.7433 67.8367 55.0931 67.1199 55.5432C65.9696 56.2767 63.9524 56.4935 63.1189 57.377C63.5356 58.7774 63.669 60.6779 63.8356 62.4449C65.2695 62.5284 67.0198 62.0451 68.2202 62.5617C67.3866 62.8285 66.3197 62.8285 65.6028 63.2285C66.2029 63.512 67.57 63.4621 68.4702 63.2453M57.0341 55.7601C56.1671 53.7263 55.3837 51.6259 54.0999 49.9921C52.8496 50.8255 51.4827 51.6259 51.1159 53.1428C52.9163 54.1598 55.0003 55.1433 57.0341 55.7601ZM59.1678 49.4753C59.0845 51.5091 58.8511 54.1764 58.3177 55.7601C59.6013 54.1097 60.6517 52.2092 61.7352 50.3421C61.2684 49.5919 60.3015 48.9417 59.168 49.4752M56.7508 48.625C56.2673 48.5748 55.8506 49.1917 55.217 48.9249C55.067 49.0916 54.9336 49.2584 54.7836 49.4251C56.1839 51.1254 56.8341 53.5262 57.9178 55.5099C58.5013 53.5929 58.4346 51.5089 58.568 49.4251C57.7678 49.4584 57.3177 48.6749 56.7508 48.6248M55.2004 46.5741C55.1503 47.1576 55.2837 47.3411 55.4003 48.0079C57.3009 48.608 56.9842 45.3905 55.2004 46.5741ZM53.0831 45.874C52.2663 45.4237 51.0327 44.9404 49.9657 44.7404C48.6488 44.4903 48.782 46.5408 48.8321 47.7579C48.8822 48.7246 49.3823 49.7416 49.5991 50.3918C49.699 50.6919 49.7323 51.0086 49.9825 51.0753C50.4326 51.1754 51.9329 50.5919 52.3498 50.3584C53.25 49.875 53.9501 49.0916 54.717 48.558C54.7337 48.308 54.7337 48.0412 54.7503 47.7912C54.2836 47.5576 53.7668 47.4078 53.0831 47.3745C53.5334 47.141 54.2169 47.141 54.6335 46.8743C54.6335 46.7742 54.6335 46.6742 54.6503 46.5741C53.8834 46.4908 53.5999 46.1574 53.0831 45.874ZM45.2479 44.457C44.5645 45.1571 47.1649 46.0907 47.982 46.1408C47.982 45.7073 48.232 45.2907 48.1819 44.9738C47.1984 44.8071 45.9148 44.9237 45.2479 44.457ZM53.6502 44.7737C53.6502 44.8404 53.5667 44.8238 53.55 44.8738C54.4336 45.5573 55.0836 45.7072 56.2673 45.6406C56.8009 45.2572 57.2842 44.7905 57.8511 44.4236C56.5507 44.5403 54.917 45.3406 53.65 44.7737M61.3518 47.108C61.3185 46.3411 61.1182 44.7574 60.6349 44.474C59.6347 43.8905 57.8676 45.6576 57.1174 45.9244C57.2007 46.1578 57.3341 46.3411 57.3508 46.6411C57.801 46.5245 58.3343 46.6079 58.7177 46.7912C58.2676 46.8412 57.7842 46.8412 57.4842 47.058C57.384 47.3747 57.5174 47.7915 57.4341 48.225C58.4843 48.525 59.7014 48.6751 61.0351 48.725C61.2851 48.3917 61.385 47.7581 61.3518 47.108ZM44.0974 45.1242C43.8807 44.9741 42.4304 43.0902 42.2303 43.1736C39.613 44.2073 37.1624 45.9911 34.9784 47.6914C37.0623 52.1759 37.9126 57.6606 38.0626 62.9453C40.4467 64.0622 42.547 65.6793 45.7978 65.846C45.4144 63.1954 45.0811 60.8113 44.8644 58.3107C44.0475 57.9607 42.8805 58.3275 42.1137 58.2107C42.1137 57.2939 43.2805 57.8107 43.3805 57.1939C43.4474 56.727 42.7303 56.6937 42.9638 55.9602C43.564 56.1769 43.8807 56.6603 44.5142 56.8438C45.0977 55.5768 44.5142 53.3263 44.5976 52.2593C44.6144 52.0593 44.6975 51.159 45.1476 51.309C45.5478 51.4424 45.131 53.7263 45.1644 54.7265C45.1977 55.6601 45.0477 56.5437 45.4311 57.1272C48.5653 56.6937 51.7495 56.4269 55.1502 56.327C54.4 56.0103 53.5164 55.7102 52.5495 55.16C52.0161 54.8599 50.3657 54.2431 50.2157 53.743C49.9655 52.9427 50.8491 52.5261 50.9991 51.8424C49.4154 52.7094 49.1154 51.0091 48.732 49.8253C48.3985 48.7416 48.1985 47.9249 48.1152 47.308C46.7315 46.6079 45.2644 45.9577 44.0974 45.1242ZM59.968 43.3903C62.152 42.3402 62.552 47.3414 61.6851 48.9585C61.8185 49.4419 62.2686 49.6254 62.4521 50.0587C61.235 52.2426 59.8849 54.2764 58.6344 56.4269C59.5514 55.8434 60.885 56.327 61.9685 55.8935C62.3687 55.7435 62.6522 54.8266 62.9522 54.0931C63.7856 52.0926 64.6525 49.5585 65.0361 47.6583C65.1194 47.2248 65.3694 46.2744 65.3027 45.891C65.2028 45.1909 64.2691 44.6741 63.7856 44.2572C62.9022 43.457 62.3519 42.7737 61.4183 42.0234C61.0683 42.5736 60.2681 42.9402 59.968 43.3905M39.1129 24.0356C38.0792 25.186 38.296 27.3199 38.4128 28.8535C40.2965 27.67 42.7805 28.9536 42.7637 30.9541C43.6639 30.9373 43.0972 29.8372 42.9306 29.1203C42.397 26.8031 43.8308 24.3024 42.9971 22.1853C41.3802 22.3186 40.0631 22.9686 39.1129 24.0356ZM46.548 17.3842C44.1975 18.0511 41.1801 19.7682 40.2132 21.8853C40.9633 21.7687 41.4801 21.4019 42.2137 21.3518C42.4971 21.3352 42.8639 21.4686 43.1806 21.3853C43.814 21.2186 44.3642 19.7848 44.8476 19.2514C45.3145 18.7345 45.8812 18.5012 46.2647 18.0344C46.5147 17.9177 46.8813 17.9177 46.8981 17.5509C46.7982 17.4341 46.6814 17.351 46.548 17.3842ZM58.801 18.0176C56.3506 16.6341 52.2162 15.6005 49.6155 16.9007C47.5149 17.9509 44.6811 19.6847 43.714 21.8688C44.6142 23.9857 43.4474 25.9195 43.3639 28.0701C43.3306 29.2204 43.8975 30.2041 43.9474 31.4545C43.6307 31.9713 42.697 32.0212 42.047 31.9879C41.8303 30.8874 41.4469 29.6539 40.3131 29.5205C38.7128 29.3372 37.5292 30.6709 37.4625 32.0546C37.3791 33.6884 38.7128 36.389 40.6132 36.2057C41.3467 36.139 41.5302 35.4054 42.3303 35.4054C42.7637 36.2724 41.6636 36.539 41.5468 37.1558C41.5134 37.3226 41.6302 37.9394 41.7135 38.2394C42.0636 39.6564 42.8304 41.5069 43.5806 42.5906C44.5475 43.9741 46.4314 44.1742 48.4652 44.3076C48.8319 43.524 50.1656 43.5907 51.0324 43.7908C49.9823 43.3742 49.0154 42.3738 48.2152 41.4903C47.2982 40.4733 46.3647 39.3898 46.3146 38.0561C48.0651 40.4733 49.4988 42.5906 52.6663 43.6576C55.0668 44.4577 57.8676 43.2907 59.718 41.9904C60.4848 41.4568 60.9349 40.5901 61.4852 39.8231C63.5189 36.8891 64.4692 32.7213 64.2691 28.6704C64.1858 27.0034 64.1858 25.3362 63.6189 24.2193C63.0356 23.0523 61.0517 21.9854 59.8847 23.0523C59.668 21.9021 60.8516 21.2018 62.2352 21.6186C61.2518 20.335 60.2182 18.8179 58.801 18.0176ZM63.3689 55.7105C65.2861 54.7603 68.8536 53.1598 70.0373 55.7105C70.4875 56.6606 71.0042 58.2445 71.2209 59.228C71.5376 60.5951 70.8708 63.4958 69.4538 63.9458C68.2034 64.346 66.7532 64.3293 65.2528 64.0293C65.0694 63.8792 64.8861 63.6291 64.736 63.3623C63.6692 63.329 62.6522 63.4125 61.8185 63.8626C61.9018 64.6627 61.3684 64.7794 60.8516 64.9463C60.4848 66.4298 61.6018 68.3636 61.3351 69.6973C61.1517 70.6642 59.968 70.8142 59.1013 70.9809C59.0678 71.5145 59.1345 71.9646 59.2012 72.4147C59.0013 73.1482 58.1176 73.5649 57.2674 73.665C54.4835 73.9983 50.2657 74.1484 47.5984 73.1815C46.8481 71.3478 46.2647 69.1306 45.6478 67.0467C43.0472 67.33 40.9301 65.9296 38.9462 64.9962C38.2627 64.6795 37.3124 64.496 37.0456 63.9459C36.7956 63.4125 36.8956 62.3955 36.8289 61.4452C36.6789 58.9946 36.5288 56.6274 35.8954 54.1267C35.612 52.9931 35.0952 52.0096 34.7451 50.9261C34.4117 49.9258 33.8449 48.6754 33.6948 47.6751C33.4781 46.1915 34.8785 46.108 35.762 45.4578C37.1458 44.4577 38.2293 43.9074 39.7296 43.0072C40.1799 42.7406 41.5134 42.0738 41.6634 41.7569C41.9637 41.1403 41.1468 40.2734 40.9301 39.7898C40.5799 39.023 40.3965 38.3728 40.3466 37.6225C39.0962 37.4226 38.1293 36.6724 37.5626 35.8389C36.6122 34.4385 35.9453 31.8545 36.779 29.9041C36.8457 29.754 37.1624 29.4372 37.2125 29.2038C37.3124 28.7371 37.029 28.1201 37.0124 27.6201C36.929 25.0694 37.4458 22.8688 39.1629 22.102C39.863 19.3181 42.3635 18.4012 44.7143 17.0175C45.5979 16.5007 46.5648 16.1673 47.565 15.8004C51.1491 14.4835 56.6673 14.7335 59.6513 16.984C60.9183 17.9343 62.9354 19.9515 63.6523 21.4185C65.5694 25.2695 65.4195 31.7211 64.0858 36.4224C63.9023 37.0558 63.6523 37.9726 63.2856 38.7396C63.0356 39.273 62.252 40.3233 62.3353 40.79C62.4354 41.2735 64.1359 42.5571 64.5027 42.9073C65.1529 43.5407 66.403 44.3743 66.503 45.1746C66.6198 46.0247 66.1364 47.1917 65.8864 48.0086C65.086 50.7426 64.2859 53.2599 63.3689 55.7105Z" fill="#191919"/>
<path d="M50.617 36.7722C50.7169 36.6388 51.2836 36.4223 52.0839 36.8057C52.0839 36.8057 51.1336 36.9557 51.2169 38.5395L50.8169 38.456C50.8337 38.4728 50.4169 37.039 50.617 36.7722Z" fill="#DADADA"/>
<path d="M57.5173 50.3086C57.5173 50.542 57.3174 50.7421 57.0839 50.7421C56.8505 50.7421 56.6504 50.542 56.6504 50.3086C56.6504 50.0752 56.8505 49.8751 57.0839 49.8751C57.334 49.8751 57.5173 50.0751 57.5173 50.3086ZM57.9508 52.3257C57.9508 52.5593 57.7509 52.7592 57.5173 52.7592C57.284 52.7592 57.0839 52.5593 57.0839 52.3257C57.0839 52.0922 57.284 51.8923 57.5173 51.8923C57.7675 51.8923 57.9508 52.0757 57.9508 52.3257Z" fill="#191919"/>
<path d="M35.2461 77.8315C35.1127 77.8483 34.996 77.865 34.896 77.8816C34.796 77.8984 34.696 77.9148 34.5625 77.9483C34.4124 77.9815 34.3291 78.0482 34.2958 78.1482C34.2624 78.2483 34.2291 78.3483 34.2291 78.4817V82.5492C34.2292 82.9069 34.1494 83.2601 33.9956 83.583C33.8457 83.8997 33.6456 84.1497 33.379 84.3665C33.1122 84.5666 32.8121 84.7332 32.4786 84.8334C32.1453 84.9333 31.7952 85 31.4286 85C30.7784 85 30.2614 84.85 29.8614 84.5333C29.4613 84.2166 29.2612 83.7998 29.2612 83.2497C29.2612 82.9328 29.3446 82.666 29.528 82.4493C29.7113 82.2325 29.9615 82.1326 30.2782 82.1326C30.5783 82.1326 30.8116 82.2159 30.9949 82.3994C31.1784 82.5827 31.2617 82.7994 31.2617 83.0496C31.2617 83.2663 31.1784 83.4831 31.0282 83.6662C30.8783 83.8497 30.6949 84.0331 30.4949 84.1832V84.2499C30.5282 84.3166 30.5949 84.3833 30.6949 84.4332C30.795 84.4832 30.9116 84.4999 31.0117 84.4999C31.4284 84.4999 31.7619 84.3498 31.9953 84.0498C32.2287 83.7497 32.3454 83.2996 32.3454 82.6995V78.5318C32.3454 78.415 32.3286 78.2982 32.2953 78.2149C32.2619 78.1316 32.1619 78.0649 32.0119 77.9982C31.9119 77.9483 31.7784 77.9148 31.6285 77.8816C31.4785 77.8481 31.3617 77.8315 31.2617 77.8149V77.4148H35.196V77.8315H35.2461ZM41.4143 83.5664C41.2975 83.7663 41.1475 83.9498 40.9808 84.1331C40.8142 84.3164 40.6141 84.4498 40.3973 84.5834C40.1639 84.7166 39.9305 84.8166 39.6972 84.8833C39.4637 84.95 39.1804 84.9834 38.8804 84.9834C38.3636 84.9834 37.9301 84.9167 37.5467 84.7667C37.1799 84.6166 36.8632 84.4332 36.6297 84.1832C36.3797 83.933 36.213 83.6497 36.0796 83.3162C35.9582 82.9678 35.8962 82.6015 35.8961 82.2326C35.8961 81.8826 35.9628 81.5324 36.0962 81.2157C36.2296 80.899 36.4129 80.599 36.6465 80.3488C36.8799 80.0988 37.18 79.8988 37.5467 79.7487C37.9276 79.593 38.3354 79.5136 38.747 79.5151C39.2303 79.5151 39.6305 79.582 39.9472 79.6986C40.2639 79.8152 40.5141 79.982 40.714 80.1821C40.9141 80.3821 41.0475 80.6156 41.1475 80.8822C41.2308 81.149 41.2809 81.4325 41.2809 81.7324V82.0659H37.7634C37.7634 82.7828 37.8967 83.3162 38.1801 83.683C38.4469 84.0498 38.897 84.2332 39.4805 84.2332C39.8138 84.2332 40.0973 84.1497 40.3641 83.9664C40.6304 83.7862 40.8573 83.5537 41.0309 83.283L41.4143 83.5664ZM39.4304 81.5825C39.4304 81.3826 39.4136 81.1658 39.3972 80.9491C39.3804 80.7324 39.3471 80.5489 39.2804 80.4155C39.2137 80.2488 39.147 80.1321 39.0304 80.0487C38.9303 79.9654 38.7969 79.9321 38.647 79.9321C38.3802 79.9321 38.1635 80.0654 38.0134 80.332C37.8468 80.599 37.7634 81.0323 37.7466 81.6158L39.4304 81.5825ZM48.7661 84.7999H45.632V84.4165C45.6987 84.4165 45.7821 84.3997 45.8654 84.3833C45.9654 84.3665 46.0321 84.3498 46.0821 84.3332C46.1488 84.2998 46.1987 84.2332 46.2322 84.1665C46.2654 84.0998 46.2822 83.9831 46.2822 83.8497V81.4158C46.2822 81.0657 46.2155 80.799 46.0821 80.6156C45.9487 80.4321 45.7654 80.3488 45.4986 80.3488C45.3652 80.3488 45.2318 80.3656 45.1152 80.4155C44.9985 80.4488 44.8817 80.5155 44.7651 80.599C44.6651 80.6655 44.5818 80.7322 44.5151 80.8157C44.4483 80.8822 44.3983 80.9489 44.3651 81.0156V83.7996C44.3651 83.9163 44.3817 84.0164 44.415 84.0998C44.4484 84.1832 44.5151 84.2499 44.5818 84.2831C44.6423 84.3238 44.7103 84.3521 44.7817 84.3665L45.0319 84.4165V84.7999H41.8644V84.4165C41.9477 84.4165 42.0311 84.3997 42.1312 84.3833C42.2145 84.3665 42.2979 84.3498 42.3646 84.3332C42.4812 84.2998 42.5479 84.2332 42.5979 84.1497C42.6312 84.0664 42.6646 83.9664 42.6646 83.833V80.7989C42.6646 80.6989 42.6312 80.5822 42.5813 80.4822C42.5312 80.3822 42.4479 80.2987 42.3646 80.2322C42.2979 80.1988 42.2312 80.1487 42.131 80.1321C42.0289 80.0981 41.9219 80.0812 41.8143 80.0822V79.6986L44.2984 79.5654L44.3817 79.6487V80.3989H44.3985C44.52 80.2988 44.6368 80.1932 44.7485 80.0822C44.8712 79.9758 44.9991 79.8756 45.1319 79.7819C45.2653 79.6986 45.4319 79.6319 45.632 79.5652C45.832 79.4987 46.0655 79.4819 46.2989 79.4819C46.8656 79.4819 47.2824 79.6487 47.5657 79.9654C47.8493 80.2821 47.9825 80.7156 47.9825 81.249V83.7999C47.9825 83.9332 47.9992 84.0332 48.0326 84.1C48.066 84.1833 48.1493 84.2334 48.2493 84.2833C48.2994 84.3001 48.3661 84.3334 48.4492 84.35C48.5327 84.3668 48.6161 84.3834 48.7328 84.4001V84.8001L48.7661 84.7999ZM55.9346 84.7999H53.484C53.2256 84.3381 52.9474 83.8876 52.6504 83.4496C52.4004 83.0829 52.167 82.7327 51.9503 82.4326L51.6502 82.6995V83.833C51.6502 83.9498 51.667 84.0666 51.7002 84.1331C51.7335 84.2164 51.8002 84.2665 51.917 84.3166C51.9835 84.3498 52.0502 84.3665 52.1337 84.3833C52.2171 84.3999 52.3004 84.4165 52.3837 84.4165V84.7999H49.1495V84.4165C49.2328 84.4165 49.3162 84.3997 49.4163 84.3833C49.4996 84.3665 49.583 84.3498 49.6497 84.3332C49.7664 84.2998 49.833 84.2332 49.8832 84.1497C49.9165 84.0664 49.9497 83.9664 49.9497 83.833V78.0316C49.9497 77.9148 49.9165 77.7981 49.8664 77.6815C49.8163 77.5649 49.7496 77.4647 49.6497 77.398C49.583 77.3648 49.483 77.3147 49.3496 77.2981C49.2162 77.2648 49.0996 77.248 48.9828 77.248V76.8646L51.5669 76.7312L51.6502 76.8145V82.1825C51.9002 81.9493 52.2002 81.6825 52.5171 81.3824C52.8338 81.0823 53.1005 80.8323 53.2839 80.6322C53.4007 80.5155 53.4672 80.4323 53.4672 80.3654C53.484 80.2987 53.484 80.2655 53.484 80.2488C53.484 80.1821 53.434 80.1321 53.3172 80.0988C53.2006 80.0654 53.0506 80.0155 52.8172 79.982V79.6153H55.4511V79.982C55.101 80.0822 54.8343 80.1655 54.6509 80.2488C54.4676 80.3322 54.2675 80.4488 54.0507 80.5822C53.909 80.6783 53.7701 80.7783 53.6341 80.8822C53.5007 80.9824 53.3506 81.1158 53.1672 81.2656C53.5007 81.7658 53.8174 82.2159 54.1008 82.6328C54.3842 83.0494 54.6843 83.4997 55.001 83.9664C55.101 84.1331 55.2345 84.2332 55.401 84.2998C55.5679 84.3498 55.7179 84.3833 55.8846 84.3999V84.7999H55.9346ZM59.2688 84.7999H55.9845V84.4165C56.0679 84.4165 56.168 84.3997 56.2513 84.3833C56.3347 84.3665 56.418 84.3498 56.4681 84.3332C56.5847 84.2998 56.6514 84.2332 56.7014 84.1497C56.7515 84.0664 56.7681 83.9664 56.7681 83.833V80.7989C56.7681 80.6823 56.7347 80.5655 56.6848 80.4822C56.6412 80.3917 56.5716 80.3162 56.4849 80.2655C56.418 80.2322 56.3347 80.1821 56.2013 80.1487C56.0679 80.1153 55.9513 80.0822 55.8513 80.0822V79.6986L58.4019 79.5654L58.4852 79.6487V83.783C58.4852 83.8997 58.5186 83.9997 58.5685 84.0998C58.6186 84.1832 58.7019 84.2499 58.7853 84.2831C58.8592 84.3209 58.9377 84.3489 59.0188 84.3665C59.102 84.3833 59.1855 84.3999 59.2854 84.4165V84.7999H59.2688ZM58.5186 77.7149C58.5186 77.9815 58.4185 78.1983 58.2184 78.3817C58.0185 78.565 57.7683 78.665 57.5017 78.665C57.2182 78.665 56.9849 78.565 56.7681 78.3817C56.5682 78.1983 56.4681 77.9649 56.4681 77.7147C56.4681 77.4481 56.568 77.2314 56.7681 77.0313C56.9681 76.848 57.2182 76.748 57.5017 76.748C57.7851 76.748 58.0185 76.848 58.2184 77.0313C58.4185 77.2147 58.5186 77.4481 58.5186 77.7149ZM66.6206 84.7999H63.4864V84.4165C63.5529 84.4165 63.6364 84.3997 63.7197 84.3833C63.8197 84.3665 63.8864 84.3498 63.9365 84.3332C64.003 84.2998 64.0531 84.2332 64.0865 84.1665C64.1198 84.0998 64.1364 83.9831 64.1364 83.8497V81.4158C64.1364 81.0657 64.0698 80.799 63.9365 80.6156C63.8031 80.4321 63.6196 80.3488 63.353 80.3488C63.2196 80.3488 63.0862 80.3656 62.9696 80.4155C62.8528 80.4656 62.736 80.5155 62.6194 80.599C62.5193 80.6655 62.436 80.7322 62.3693 80.8157C62.3027 80.8822 62.2527 80.9489 62.2192 81.0156V83.7996C62.2192 83.9163 62.2359 84.0164 62.2693 84.0998C62.3027 84.1832 62.3693 84.2499 62.436 84.2831C62.486 84.3166 62.5527 84.3498 62.6361 84.3665L62.8861 84.4165V84.7999H59.7187V84.4165C59.8021 84.4165 59.8854 84.3997 59.9854 84.3833C60.0687 84.3665 60.1522 84.3498 60.2189 84.3332C60.3355 84.2998 60.402 84.2332 60.4523 84.1497C60.4855 84.0664 60.519 83.9664 60.519 83.833V80.7989C60.519 80.6989 60.4855 80.5822 60.4355 80.4822C60.3856 80.3822 60.3022 80.2987 60.2187 80.2322C60.1522 80.1988 60.0855 80.1487 59.9854 80.1321C59.8833 80.0981 59.7763 80.0812 59.6687 80.0822V79.6986L62.1527 79.5654L62.236 79.6487V80.3989H62.2527C62.3743 80.2988 62.4911 80.1932 62.6028 80.0822C62.7255 79.9758 62.8535 79.8756 62.9862 79.7819C63.1196 79.6986 63.2863 79.6319 63.4864 79.5652C63.6863 79.4987 63.9198 79.4819 64.1532 79.4819C64.7199 79.4819 65.1367 79.6487 65.42 79.9654C65.7034 80.2821 65.8368 80.7156 65.8368 81.249V83.7999C65.8368 83.9332 65.8535 84.0332 65.8869 84.1C65.9202 84.1833 66.0035 84.2334 66.1036 84.2833C66.1535 84.3001 66.2202 84.3334 66.3036 84.35C66.3871 84.3668 66.4704 84.3834 66.587 84.4001V84.8001L66.6206 84.7999ZM69.5045 84.9834C69.1712 84.9834 68.8379 84.9333 68.521 84.8334C68.2043 84.7332 67.9543 84.6333 67.7708 84.5165L67.6208 84.8666H67.2208L67.1541 82.9328H67.5375C67.5875 83.0829 67.6709 83.2662 67.8043 83.4663C67.9209 83.6662 68.0709 83.833 68.2209 83.9997C68.3929 84.1556 68.5833 84.29 68.7878 84.3999C69.0045 84.4999 69.2213 84.5666 69.4546 84.5666C69.7713 84.5666 70.0047 84.4999 70.1547 84.3833C70.3048 84.2665 70.3883 84.0664 70.3883 83.8164C70.3883 83.6831 70.3549 83.5664 70.2881 83.4663C70.2214 83.3829 70.1215 83.2996 70.0047 83.2329C69.8715 83.1662 69.7214 83.0995 69.5546 83.0496C69.3879 82.9995 69.1878 82.9495 68.9545 82.8661C68.7211 82.7994 68.521 82.7327 68.3543 82.6494C68.1877 82.5827 68.0042 82.4661 67.8375 82.316C67.6875 82.1826 67.5541 82.016 67.4708 81.8325C67.3708 81.6492 67.3374 81.4158 67.3374 81.149C67.3374 80.6655 67.5375 80.2655 67.9543 79.9654C68.3711 79.6653 68.9046 79.5151 69.5714 79.5151C69.8881 79.5151 70.1715 79.5487 70.4383 79.6153C70.705 79.682 70.9217 79.7487 71.105 79.832L71.2218 79.5319H71.6218L71.7051 81.2991H71.3384C71.2218 80.9323 71.005 80.6322 70.7218 80.3654C70.4216 80.0989 70.1048 79.9655 69.7713 79.9654C69.5047 79.9654 69.288 80.0155 69.1379 80.1321C68.9879 80.2488 68.9044 80.3989 68.9044 80.599C68.9044 80.8656 69.0212 81.0491 69.2379 81.1657C69.4546 81.2823 69.7713 81.3992 70.1715 81.4992C70.7883 81.6658 71.2384 81.8826 71.5385 82.1494C71.8219 82.4327 71.9719 82.7828 71.9719 83.1995C71.9719 83.7663 71.7552 84.2164 71.3051 84.5167C70.8049 84.8166 70.2213 84.9834 69.5045 84.9834Z" fill="#191919"/>
</svg>
