<svg width="101" height="100" viewBox="0 0 101 100" fill="none" xmlns="http://www.w3.org/2000/svg">
<g clip-path="url(#clip0_2336_9941)">
<path d="M54.9498 42.7115C54.9412 42.5583 54.947 42.4038 54.931 42.2513C54.9112 42.0613 54.8096 42.0101 54.6465 42.1002C54.5984 42.1268 54.5486 42.1605 54.5155 42.2035C54.1944 42.6174 53.7438 42.6573 53.2692 42.6573C51.9837 42.658 50.6982 42.6737 49.4127 42.6737C47.0232 42.6737 44.634 42.6627 42.2445 42.6658C41.7652 42.6665 41.3196 42.6238 41.0221 42.1834C41.0071 42.1612 40.9819 42.1445 40.959 42.1288C40.7956 42.0156 40.7024 42.0459 40.6601 42.2363C40.639 42.3308 40.6376 42.4301 40.6305 42.5276C40.5626 43.4467 40.4933 44.3658 40.4285 45.2849C40.3998 45.6889 40.3804 46.0931 40.3558 46.4974C40.3483 46.6209 40.3773 46.7222 40.5141 46.7523C40.6414 46.7802 40.7304 46.7188 40.7901 46.6124C40.8171 46.5643 40.8352 46.5107 40.8536 46.4582C41.033 45.943 41.2753 45.4562 41.5141 44.967C41.9794 44.0141 42.7392 43.5283 43.7869 43.4218C44.5395 43.3454 45.2914 43.3215 46.0457 43.3082C46.6424 43.2976 46.6322 43.2833 46.6315 43.9093C46.6295 47.6669 46.6332 51.4245 46.6285 55.1817C46.6274 56.0333 46.6029 56.8852 46.5841 57.7367C46.5763 58.1017 46.5312 58.4603 46.3095 58.7701C45.8117 59.2631 45.1915 59.4678 44.5119 59.5384C44.3604 59.5541 44.2106 59.5954 44.0622 59.6329C43.85 59.6864 43.8408 59.8492 43.849 60.029C43.8582 60.2323 43.9745 60.29 44.153 60.2855C44.2369 60.2835 44.3208 60.2859 44.4044 60.2859C46.669 60.2859 48.9334 60.2859 51.198 60.2855C51.2819 60.2855 51.3658 60.2821 51.4494 60.2852C51.6241 60.2913 51.6995 60.1842 51.7353 60.0361C51.7756 59.8676 51.7292 59.7264 51.5678 59.6496C51.4951 59.6148 51.4068 59.6121 51.3249 59.5971C50.8326 59.5056 50.3379 59.4381 49.8627 59.2549C49.3233 59.0468 49.0869 58.634 49.0108 58.1103C48.9511 57.6975 48.9187 57.2775 48.9173 56.8603C48.9057 53.2415 48.9033 49.6225 48.8996 46.0038C48.8989 45.2351 48.9047 44.4668 48.9033 43.6982C48.903 43.5453 48.9115 43.414 49.1142 43.416C50.1189 43.4252 51.1274 43.3645 52.1243 43.5351C52.4951 43.5985 52.8595 43.7057 53.1713 43.9356C53.2296 43.9786 53.2893 44.0093 53.364 43.9909C53.6022 44.1335 53.7325 44.3679 53.8683 44.5937C54.1358 45.0379 54.319 45.522 54.5097 46.0017C54.5871 46.1962 54.653 46.3951 54.7297 46.5899C54.7676 46.6868 54.8368 46.7598 54.9504 46.7482C55.0838 46.7345 55.1412 46.6369 55.1504 46.5172C55.1589 46.4067 55.1511 46.2944 55.1446 46.1832C55.0808 45.0256 55.0146 43.8687 54.9498 42.7115Z" fill="#191919"/>
<path d="M85.6587 59.6782C85.5001 59.6311 85.3404 59.5875 85.1835 59.5356C84.695 59.3753 84.2166 59.1972 83.896 58.7585C83.8229 58.4869 83.636 58.274 83.5173 58.025C83.0147 56.9711 82.6528 55.8616 82.2147 54.7825C82.0489 54.3742 81.9783 53.9262 81.7152 53.5578C81.4979 52.9699 81.2857 52.3804 81.0619 51.7953C80.7296 50.9274 80.4417 50.0428 80.0684 49.1905C80.0657 49.1639 80.0555 49.138 80.0347 49.1121C79.9951 48.9793 79.9637 48.8436 79.9142 48.7146C79.5659 47.8068 79.2135 46.9003 78.8635 45.9931C78.4336 44.8796 78.0088 43.7643 77.5711 42.6538C77.5162 42.5146 77.4991 42.3052 77.2624 42.3185C77.0754 42.3082 76.9765 42.442 76.9222 42.5784C76.6906 43.1584 76.4047 43.7176 76.2474 44.3262C76.2617 44.3358 76.2757 44.3453 76.2901 44.3545C76.288 44.3559 76.2863 44.3573 76.2843 44.3586C76.272 44.3477 76.2597 44.3371 76.2474 44.3262C76.1109 44.5299 76.0376 44.7575 75.9912 44.9956C75.825 45.4149 75.6589 45.8338 75.4928 46.2528C75.4573 46.3108 75.4122 46.365 75.388 46.4274C75.1107 47.1497 74.8364 47.873 74.5614 48.5962C74.5771 48.6092 74.5924 48.6218 74.6081 48.6348C74.6074 48.6355 74.6068 48.6358 74.6057 48.6361C74.5911 48.6228 74.5761 48.6095 74.561 48.5962C74.4993 48.6696 74.4856 48.7583 74.4781 48.8494C74.3536 49.0602 74.2612 49.2826 74.2366 49.529C73.9848 50.1717 73.7327 50.8145 73.4809 51.4569C72.861 52.7635 72.4182 54.1401 71.8826 55.4802C71.889 55.4853 71.8952 55.4901 71.9017 55.4952C71.901 55.4952 71.9003 55.4952 71.8996 55.4956C71.8993 55.4956 71.8826 55.4802 71.8826 55.4802C71.8331 55.5297 71.8096 55.5884 71.8195 55.6586C71.61 56.1711 71.4097 56.6879 71.1886 57.1952C70.8679 57.9315 70.5725 58.6875 69.8796 59.1795C69.5132 59.3101 69.1591 59.4735 68.7807 59.5742C68.6374 59.6124 68.4825 59.6622 68.4464 59.8488C68.3921 60.1292 68.516 60.2688 68.8476 60.2691C70.52 60.2715 72.1923 60.2705 73.8647 60.2695C73.9746 60.2695 74.0902 60.2869 74.1779 60.193C74.3465 59.8096 74.3198 59.7304 73.9766 59.6021C73.9121 59.5779 73.846 59.5554 73.7788 59.5414C73.3291 59.4493 72.904 59.292 72.5025 59.071C72.4707 59.0457 72.439 59.0208 72.4073 58.9956C72.2735 58.8028 72.2411 58.5916 72.2636 58.3596C72.307 57.9148 72.3851 57.4791 72.498 57.0455C72.5816 56.7244 72.7478 56.4218 72.7358 56.0772C72.8027 56.0104 72.8211 55.9261 72.8235 55.8357C73.1084 55.1841 73.2612 54.4871 73.5147 53.8242C73.6597 53.4441 73.6679 53.423 74.0824 53.4233C75.5777 53.424 77.073 53.4257 78.5683 53.4278C79.2749 53.4288 79.2749 53.4298 79.5396 54.0589C79.7119 54.7931 80.0555 55.4669 80.2912 56.1786C80.5577 56.9834 80.9077 57.7595 81.0687 58.6005C81.1168 58.8509 81.0414 59.0037 80.8668 59.1419C80.7341 59.247 80.5792 59.3009 80.4147 59.3466C80.108 59.4323 79.7897 59.4903 79.5052 59.641C79.2827 59.7591 79.2261 59.9767 79.3513 60.162C79.4482 60.3056 79.5959 60.2715 79.7314 60.2712C81.6279 60.2684 83.5244 60.264 85.421 60.2596C85.4906 60.2596 85.5615 60.2643 85.6294 60.2531C85.7979 60.2255 85.8478 60.0856 85.873 59.9491C85.904 59.7946 85.8512 59.6741 85.6587 59.6782ZM74.3205 49.5293C74.3205 49.531 74.3212 49.5331 74.3212 49.5348C74.3212 49.5348 74.3212 49.5348 74.3212 49.5351C74.3175 49.5331 74.3137 49.5313 74.3099 49.5296L74.3205 49.5293ZM74.8387 50.1287V50.1284C74.8401 50.1277 74.8408 50.1263 74.8418 50.1253C74.8916 50.0868 74.9162 50.0373 74.9131 49.9759C74.9425 49.9697 74.9694 49.9564 74.9936 49.936C75.2499 49.5788 75.2983 49.1359 75.487 48.7501C75.5467 48.6286 75.5992 48.4918 75.5177 48.3526C75.6586 48.3015 75.6859 48.1612 75.7377 48.0432C75.8609 47.7621 75.9489 47.4673 76.0622 47.1821C76.0874 47.0917 76.0987 46.9986 76.1263 46.9092C76.1335 46.886 76.1403 46.8624 76.1451 46.8392C76.3088 46.8082 76.2798 46.6212 76.347 46.5131C76.4095 46.4124 76.3839 46.2487 76.5176 46.1992C76.8288 47.3189 77.2859 48.3867 77.7014 49.4679C77.9143 50.0223 78.0317 50.6193 78.377 51.1201C78.3967 51.1352 78.4176 51.1457 78.4401 51.1509C78.4339 51.2218 78.4408 51.288 78.4885 51.3416L78.4889 51.3419C78.4926 51.346 78.4964 51.3501 78.5005 51.3538C78.5066 51.3596 78.5127 51.3651 78.5202 51.3702C78.5226 51.3723 78.5254 51.374 78.5281 51.376C78.5284 51.3791 78.5288 51.3822 78.5295 51.3852C78.5168 51.3931 78.5056 51.405 78.4953 51.4197C78.4278 51.6268 78.5339 51.8025 78.6035 51.9806C78.7014 52.2296 78.6379 52.3521 78.3599 52.3511C78.1091 52.3497 77.8587 52.3514 77.6076 52.3518C76.6602 52.3518 75.7125 52.3541 74.7651 52.3504C74.2676 52.3483 74.2625 52.3381 74.3696 51.8639C74.3915 51.767 74.4085 51.6728 74.3642 51.579C74.3567 51.5674 74.3485 51.5579 74.3403 51.5514C74.7108 51.1628 74.8033 50.6691 74.8592 50.1625C74.8524 50.1523 74.8449 50.1441 74.8367 50.1373C74.837 50.1345 74.8377 50.1318 74.8387 50.1287ZM69.9935 59.1965C69.9895 59.2013 69.985 59.2057 69.9806 59.2105C69.9806 59.2105 69.9806 59.2105 69.9802 59.2105C69.9782 59.2043 69.9758 59.1986 69.9731 59.1934C69.9802 59.1948 69.9871 59.1955 69.9935 59.1965C69.9939 59.1965 69.9939 59.1965 69.9935 59.1965ZM80.0183 49.3048C80.0152 49.3011 80.0125 49.2973 80.0101 49.2936C80.0132 49.2939 80.0162 49.2939 80.0193 49.2939C80.0186 49.2977 80.0186 49.3014 80.0183 49.3048ZM71.9017 55.6665C71.9017 55.6668 71.9017 55.6668 71.9017 55.6672L71.9044 55.6668C71.903 55.6706 71.902 55.6747 71.9007 55.6784V55.6788V55.6791C71.8931 55.6726 71.885 55.6675 71.8757 55.6641C71.8843 55.6651 71.8931 55.6658 71.9017 55.6665ZM72.4619 59.1194C72.4612 59.1208 72.4608 59.1225 72.4605 59.1238L72.4602 59.1235C72.4598 59.1232 72.4598 59.1232 72.4595 59.1228C72.4598 59.1218 72.4608 59.1208 72.4619 59.1194Z" fill="#191919"/>
<path d="M43.0465 59.6626C43.0264 59.6855 43.0158 59.7097 43.0141 59.735C43.0107 59.7281 43.0076 59.722 43.0038 59.7152C43.0178 59.6974 43.0322 59.68 43.0465 59.6626C42.9882 59.6381 42.9298 59.6135 42.8711 59.5886C42.8602 59.6005 42.8493 59.6128 42.8384 59.6248C42.8493 59.6128 42.8602 59.6005 42.8715 59.5886C42.7674 59.5105 42.648 59.506 42.5255 59.5156C42.442 59.4866 42.3683 59.4269 42.2731 59.4354C41.8668 59.2447 41.4802 59.027 41.1991 58.6627C40.9872 58.2533 40.772 57.8456 40.6003 57.4167C40.4127 56.9364 40.2827 56.4325 40.0135 55.9859C39.8443 55.4748 39.6864 54.959 39.4182 54.4875C39.3667 54.3425 39.3152 54.1975 39.2637 54.0525C39.2773 53.9556 39.2466 53.8704 39.1934 53.7912C39.0399 53.347 38.9235 52.8881 38.699 52.4712C38.6898 52.4457 38.6758 52.4201 38.6564 52.3948L38.6557 52.3935C38.6769 52.3146 38.654 52.2563 38.5769 52.2229C38.1996 51.1823 37.8298 50.1391 37.4047 49.1162C37.3074 48.7362 37.1597 48.3746 36.9997 48.0174C37.0048 47.9208 36.9987 47.8277 36.9151 47.7601C36.9137 47.7349 36.9052 47.7127 36.8892 47.6933C36.9015 47.6216 36.8776 47.5653 36.8175 47.5244V47.524C36.7493 47.1614 36.6111 46.826 36.4337 46.506C36.4293 46.4835 36.4167 46.461 36.3959 46.4378C36.3177 46.229 36.2423 46.0192 36.1615 45.8114C35.7514 44.761 35.34 43.7112 34.9282 42.6618C34.8736 42.5226 34.8504 42.3465 34.6576 42.3278C34.4553 42.3083 34.3482 42.4615 34.284 42.6116C34.1865 42.8395 34.0643 43.0626 34.037 43.3168C33.9859 43.3649 33.9538 43.4212 33.9617 43.4942C33.3718 44.9909 32.7775 46.4859 32.1944 47.9856C31.9082 48.7219 31.595 49.4482 31.3651 50.2056C31.2712 50.297 31.2395 50.4195 31.1935 50.5362C30.8966 51.2878 30.591 52.0359 30.3013 52.7906C29.9468 53.7134 29.6053 54.641 29.258 55.5666C29.182 55.6355 29.1584 55.7222 29.1714 55.8211C29.1188 55.934 29.0663 56.047 29.0138 56.1599C28.732 56.7784 28.4423 57.3939 28.1721 58.0175C28.0735 58.2451 27.8767 58.4225 27.8426 58.6804C27.8426 58.6804 27.8426 58.6804 27.8429 58.6804C27.7559 58.7875 27.6696 58.895 27.5829 59.0021C27.5829 59.0021 27.5829 59.0021 27.5826 59.0025C27.5826 59.0025 27.5829 59.0025 27.5829 59.0021C27.1735 59.2365 26.7522 59.446 26.3005 59.5872C26.2981 59.5879 26.2961 59.5886 26.2937 59.5896C25.7458 59.6169 25.2176 59.4999 24.6919 59.3672C23.8789 59.1618 23.4586 58.6999 23.3569 57.8647C23.2781 57.2172 23.2201 56.5669 23.2249 55.9129C23.2317 55.788 23.2464 55.6628 23.244 55.538C23.2225 54.4363 23.2433 53.3347 23.1713 52.2328C23.1178 51.4119 23.1478 50.586 23.1328 49.7621C23.1284 49.513 23.1703 49.2595 23.0802 49.0159C23.0646 49.0279 23.0489 49.0395 23.0332 49.0511C23.0321 49.0453 23.0308 49.0398 23.0298 49.034C23.0465 49.0279 23.0635 49.0221 23.0802 49.0159C23.0516 47.8587 23.0765 46.7011 23.0072 45.5432C22.9523 44.6248 22.9933 43.701 22.9844 42.7795C22.9806 42.3987 23.0557 42.0313 23.1389 41.6639C23.2222 41.2964 23.4596 41.0484 23.7762 40.8768C23.9461 40.7847 24.1348 40.7202 24.3217 40.6677C24.6704 40.5701 25.0232 40.4961 25.3869 40.4592C25.6758 40.4299 25.7956 40.2542 25.7754 40.0103C25.7536 39.7493 25.7082 39.7151 25.3394 39.7148C23.9843 39.7134 22.6296 39.7141 21.2745 39.7145C21.1909 39.7145 21.1066 39.7141 21.0237 39.723C20.8784 39.7383 20.7999 39.824 20.787 39.9693C20.163 41.2883 19.5349 42.6051 18.916 43.9265C18.3855 45.0588 17.8659 46.1962 17.3412 47.3313C17.3364 47.3384 17.333 47.3456 17.3299 47.3528C16.9141 48.1494 16.5398 48.9658 16.1775 49.788C15.8554 50.4533 15.5078 51.1066 15.2639 51.807C14.6989 53.0045 14.1343 54.202 13.5693 55.3994C13.4407 55.468 13.4823 55.6666 13.3305 55.7174C13.2401 55.7062 13.2298 55.6253 13.2022 55.5676C12.7911 54.7018 12.3933 53.8291 11.9706 52.969C11.6404 52.2973 11.3749 51.5934 10.9829 50.9517C10.7748 50.5147 10.5766 50.0725 10.3535 49.6433C10.2607 49.4646 10.2413 49.2401 10.0536 49.1145C10.0536 49.1145 10.0536 49.1142 10.0533 49.1142C9.38083 47.6898 8.70874 46.2651 8.03665 44.8408V44.8404C8.08476 44.703 7.99878 44.5986 7.94658 44.4877C7.24856 43.0125 6.54236 41.5414 5.8573 40.0601C5.73857 39.8032 5.59665 39.7111 5.31928 39.7155C4.2859 39.7315 3.25217 39.7254 2.21879 39.7274C1.85579 39.7281 1.49246 39.7295 1.12946 39.7274C0.956147 39.7264 0.823774 39.7711 0.814562 39.9751C0.728248 40.2184 0.847998 40.3477 1.06703 40.4074C1.20008 40.4435 1.33893 40.4589 1.47539 40.4824C2.14953 40.6005 2.80866 40.754 3.32587 41.25C3.53023 41.5428 3.64554 41.8696 3.68238 42.2217C3.75642 42.9299 3.78848 43.6402 3.75641 44.3526C3.68921 45.8431 3.61483 47.3337 3.54284 48.8242C3.44493 50.8442 3.37704 52.866 3.18735 54.8802C3.09729 55.8375 2.9946 56.7945 2.75817 57.7316C2.59612 58.3741 2.26451 58.8773 1.6627 59.1826C1.5641 59.1696 1.46755 59.1618 1.41603 59.2744C1.3403 59.2573 1.27957 59.2768 1.24136 59.3484H1.24102C1.23453 59.3552 1.22805 59.3607 1.22123 59.3655C1.22771 59.3597 1.23453 59.3549 1.24102 59.3484C1.1199 59.3385 0.992649 59.3071 0.910088 59.4385C0.724495 59.3992 0.552891 59.4757 0.381627 59.5173C0.0111235 59.607 -0.0533551 59.9611 0.23254 60.2668C0.23254 60.2668 0.23254 60.2668 0.23254 60.2672C0.274162 60.2713 0.31578 60.2788 0.357743 60.2788C2.60874 60.2794 4.86008 60.2798 7.11108 60.2801C7.16703 60.2801 7.22297 60.2798 7.27892 60.2771C7.44541 60.2689 7.52422 60.1791 7.54674 60.0147C7.59246 59.6817 7.50205 59.5749 7.15167 59.5156C6.46218 59.3982 5.78019 59.2536 5.19066 58.8428C4.84336 58.5259 4.67483 58.1175 4.61512 57.6648C4.47286 56.584 4.42441 55.4977 4.42851 54.4073C4.43533 52.62 4.49094 50.8354 4.57555 49.0494C4.64344 47.6141 4.64481 46.1741 4.69496 44.7364C4.7069 44.3939 4.71986 44.0517 4.73214 43.7091C4.95219 44.0588 5.1122 44.4229 5.27595 44.7855C5.64441 45.5995 5.99854 46.4204 6.39053 47.2224C6.60308 47.6574 6.73136 48.1357 7.03738 48.524V48.5247C7.01521 48.6055 7.03636 48.6656 7.12063 48.6942C7.20046 48.8706 7.27858 49.0477 7.36046 49.223C7.7238 49.9995 8.08817 50.7753 8.45253 51.5511C8.43547 51.6511 8.49927 51.7238 8.53782 51.805C8.52656 51.8916 8.55419 51.9697 8.58933 52.0468C9.03455 53.0232 9.48011 53.9993 9.92397 54.9764C10.3102 55.8262 10.681 56.6829 11.0849 57.5242C11.2695 57.9087 11.3667 58.3386 11.6543 58.6722C11.7894 58.9615 11.9286 59.2488 12.0579 59.5405C12.1262 59.6944 12.2224 59.7964 12.3998 59.7947C12.5693 59.7933 12.6413 59.6643 12.6969 59.5391C13.0459 58.7538 13.4516 57.9936 13.7563 57.1885C13.9855 56.8548 14.1244 56.4758 14.2922 56.1118C15.2884 53.9509 16.2832 51.7893 17.2784 49.6276C17.363 49.5864 17.3794 49.4983 17.4135 49.4247C17.9843 48.1866 18.5581 46.9502 19.1197 45.708C19.2619 45.3928 19.4568 45.0997 19.5362 44.7565C19.8194 44.1622 20.062 43.5481 20.3758 42.9688C20.4789 43.0217 20.471 43.0814 20.4707 43.1336C20.4632 44.8381 20.4731 46.5422 20.5147 48.2463C20.5403 49.2936 20.5567 50.3417 20.5529 51.3898C20.5451 53.7076 20.6508 56.0272 20.4564 58.3423C20.3373 58.562 20.2179 58.7817 20.0988 59.0018C19.8702 59.1655 19.6277 59.3058 19.3537 59.3726C18.9877 59.462 18.6223 59.5552 18.2456 59.5985C18.0092 59.6258 17.9297 59.7298 17.9468 59.9164C17.9645 60.1075 18.0559 60.1826 18.2903 60.1843C19.0453 60.1894 19.8 60.1931 20.555 60.1948C24.1205 60.2041 27.6856 60.2116 31.2511 60.2245C31.4063 60.2252 31.5237 60.2197 31.5664 60.0376C31.6097 59.8523 31.5428 59.7353 31.3729 59.6773C31.2279 59.6278 31.0758 59.5999 30.9294 59.5531C30.5203 59.4228 30.0778 59.3621 29.7728 59.0103C29.7851 58.9329 29.7599 58.8769 29.6818 58.8507L29.6814 58.85C29.7077 58.5047 29.6616 58.1577 29.7398 57.8122C30.0431 56.4686 30.4531 55.1572 30.9195 53.8628C31.0601 53.4732 30.9615 53.4746 31.4756 53.4743C33.2012 53.4736 34.9272 53.4719 36.6528 53.4705C36.6562 53.4722 36.6589 53.4743 36.6623 53.4763C36.8247 53.7069 36.8749 53.9846 36.9823 54.2385C36.9584 54.3388 36.9946 54.4247 37.0465 54.5066C37.1785 54.8696 37.3064 55.2343 37.4449 55.5946C37.5077 55.7573 37.49 55.9593 37.665 56.0709C37.7724 56.3547 37.8799 56.6386 37.9874 56.9227C37.9635 57.0821 38.0396 57.2158 38.0897 57.3591C38.2757 57.8927 38.4868 58.4228 38.4111 59.0079C38.2306 59.1632 38.0307 59.2877 37.7977 59.3413C37.6483 59.3757 37.5012 59.4067 37.3757 59.5002H37.3753C37.2341 59.5012 37.0997 59.5323 36.9738 59.5961C36.8397 59.664 36.6633 59.7087 36.6708 59.897C36.6773 60.0632 36.7885 60.172 36.9598 60.2047C37.0997 60.2941 37.257 60.2665 37.4084 60.2678C38.1337 60.2733 38.8591 60.2757 39.5844 60.2767C40.6723 60.2784 41.7603 60.2777 42.8486 60.2784C43.0083 60.2784 43.1604 60.2706 43.2051 60.0707C43.2423 59.897 43.2717 59.7315 43.0465 59.6626ZM31.782 51.2946C31.784 51.2925 31.7861 51.2908 31.7881 51.2888C31.799 51.2792 31.8099 51.27 31.8205 51.2601C31.8219 51.2581 31.8226 51.2553 31.8236 51.2533C31.9351 51.1301 31.9706 50.9793 31.9614 50.8122C31.9785 50.8074 31.9949 50.7995 32.0102 50.7886C32.1364 50.5877 32.3005 50.3973 32.2111 50.1309C32.3442 50.1455 32.3988 50.0398 32.4319 49.9453C32.6628 49.2803 32.99 48.6485 33.1255 47.9508C33.1238 47.9314 33.1207 47.9126 33.1159 47.8945C33.4117 47.581 33.7761 46.5732 33.7157 46.2054C33.7341 46.1966 33.7505 46.185 33.7648 46.1689C33.7655 46.1672 33.7958 46.1505 33.7958 46.1505C33.7958 46.1505 33.8303 46.1512 33.8307 46.1488C33.8484 46.1655 33.861 46.1874 33.8695 46.2102C33.8883 46.2726 33.8999 46.3388 33.9187 46.4019C34.3175 47.5718 34.7866 48.7167 35.2199 49.8746C35.4082 50.3782 35.5481 50.9063 35.834 51.3717C35.8534 51.3867 35.8742 51.3973 35.8964 51.4024C35.8889 51.4897 35.8964 51.5719 35.9772 51.6313L35.979 51.633C35.979 51.6337 35.979 51.6344 35.9793 51.6351C35.9742 51.6381 35.9697 51.6419 35.965 51.6463C35.9008 51.7531 35.9254 51.8667 35.9752 51.9602C36.1533 52.2949 35.9875 52.3969 35.6852 52.4194C34.5072 52.4443 33.3281 52.4576 32.1484 52.4143C32.0467 52.3921 31.945 52.3781 31.841 52.3904C31.7768 52.3962 31.7202 52.4344 31.6533 52.4286C31.6264 52.4194 31.6028 52.4044 31.5817 52.3859C31.565 52.3634 31.5527 52.3375 31.5421 52.3119C31.536 52.2734 31.5326 52.2338 31.5261 52.1949C31.7956 51.9721 31.8307 51.6596 31.8127 51.327C31.8031 51.3147 31.7922 51.3055 31.7806 51.2993C31.7816 51.2973 31.7816 51.2963 31.782 51.2946ZM29.2867 55.5905C29.2864 55.5908 29.286 55.5908 29.2853 55.5908C29.2846 55.5902 29.2577 55.5659 29.2574 55.5656C29.2673 55.5741 29.2771 55.5823 29.2867 55.5905Z" fill="#191919"/>
<path d="M68.7379 56.1876C68.771 56.031 68.7352 55.9115 68.5796 55.846C68.4278 55.7822 68.3012 55.8242 68.2186 55.96C68.134 56.0992 68.0051 56.2234 68.031 56.4096C67.8437 56.7512 67.6622 57.0957 67.4677 57.4328C67.1341 58.0121 66.8144 58.6054 66.1815 58.9288C65.9294 58.9602 65.723 59.1164 65.4835 59.184C64.2482 59.532 62.9934 59.4825 61.7444 59.3188C61.2562 59.2546 60.8587 58.9595 60.7236 58.4392C60.6397 58.1168 60.5646 57.791 60.5646 57.4509C60.5646 53.7366 60.5568 50.0227 60.5592 46.3085C60.5595 45.7514 60.5517 45.1929 60.6516 44.6381C60.7328 44.1871 60.9246 43.8221 61.3148 43.5717C61.3176 43.5717 61.3203 43.5706 61.323 43.5686C61.7781 43.3922 62.2541 43.3035 62.7334 43.2227C62.9981 43.1783 63.1043 43.063 63.0858 42.889C63.0677 42.7167 62.9541 42.6464 62.671 42.6379C62.0569 42.6198 61.4431 42.5953 60.829 42.5891C59.9904 42.5806 59.1519 42.5871 58.3133 42.5871C57.6006 42.5871 56.8876 42.5878 56.1749 42.5854C55.9773 42.5847 55.8562 42.6591 55.8395 42.8709C55.8231 43.0753 55.9149 43.1957 56.1125 43.221C56.6679 43.2919 57.1991 43.4451 57.7122 43.6655C57.9124 43.8129 58.0322 44.023 58.0984 44.2499C58.1918 44.5703 58.2706 44.8957 58.2758 45.2359C58.329 48.6294 58.3089 52.0233 58.3044 55.4172C58.3034 56.1432 58.2938 56.8695 58.2693 57.5952C58.2532 58.0694 58.2277 58.5494 57.8909 58.9373C57.4679 59.2795 56.9804 59.4624 56.4444 59.5333C56.3206 59.5497 56.1981 59.5852 56.079 59.6248C55.8658 59.6957 55.8184 59.8018 55.8419 60.0465C55.862 60.2559 55.9924 60.2904 56.1629 60.2842C56.2189 60.2822 56.2748 60.2829 56.3308 60.2829C59.4634 60.2815 62.5956 60.2808 65.7281 60.2788C66.2873 60.2784 66.8468 60.2634 67.406 60.2733C67.6656 60.2778 67.8536 60.1778 67.9317 59.9451C68.0238 59.6708 68.1333 59.3945 68.1142 59.0939C68.118 59.0683 68.1214 59.0427 68.1241 59.0172C68.2166 58.9199 68.2162 58.8009 68.2029 58.6791C68.262 58.4212 68.3247 58.1639 68.3797 57.905C68.5011 57.3328 68.6171 56.7597 68.7379 56.1876Z" fill="#191919"/>
<path d="M97.1844 50.9483C97.0903 50.8347 96.9408 50.8429 96.8214 50.7849C96.5222 50.5389 96.1193 50.5775 95.785 50.4294C95.8228 50.3066 95.9201 50.3199 95.9945 50.2909C96.8381 49.9657 97.5935 49.5147 98.1424 48.7727C99.0148 47.7107 99.1792 46.5261 98.7336 45.2471C98.5794 44.8046 98.4034 44.3645 97.9886 44.0834C97.9039 44.0026 97.819 43.9214 97.7344 43.8402C97.672 43.6102 97.4625 43.5372 97.2878 43.4349C96.4004 42.9142 95.4196 42.7082 94.4104 42.6696C93.3119 42.6277 92.2133 42.5639 91.1107 42.6225C90.2622 42.6676 89.4093 42.6307 88.5584 42.6318C88.0146 42.6324 87.4705 42.6324 86.9267 42.6396C86.7854 42.6413 86.6005 42.5847 86.5742 42.8208C86.5183 43.0558 86.6374 43.1476 86.852 43.1906C87.1665 43.2534 87.4817 43.3103 87.7891 43.41C88.2419 43.556 88.5059 43.8548 88.6509 44.3018C88.7922 44.7374 88.7956 45.1843 88.802 45.6282C88.859 49.4694 88.8542 53.3109 88.8041 57.152C88.7962 57.7508 88.7966 58.356 88.4991 58.907C88.2893 59.1587 88.0225 59.3092 87.7107 59.4146C87.3664 59.5309 87.0092 59.5729 86.6609 59.6613C86.3545 59.7387 86.3269 59.7851 86.4729 60.0761C86.4763 60.0864 86.4811 60.0966 86.489 60.1079L86.4907 60.1102C86.5446 60.2515 86.6698 60.2177 86.7742 60.2187C87.4674 60.2273 88.1617 60.2535 88.8542 60.2293C89.296 60.2136 89.7409 60.2655 90.1807 60.185C90.7924 60.2409 91.4041 60.1894 92.0151 60.1771C93.0584 60.156 94.1037 60.1379 95.1333 59.9335C95.4049 59.9632 95.6649 59.9407 95.8935 59.7701L95.8911 59.766C95.8982 59.7592 95.9057 59.7537 95.9136 59.7489C95.9061 59.7544 95.8986 59.7595 95.8911 59.766C96.0159 59.7902 96.1394 59.8086 96.2247 59.6797C96.3244 59.7002 96.4134 59.6865 96.4796 59.6002C96.5338 59.5995 96.5932 59.6132 96.6413 59.5954C97.2032 59.3904 97.73 59.1185 98.2066 58.7545C98.6927 58.3833 99.1403 57.9776 99.4081 57.4113C99.7663 56.7743 100.029 56.1036 100.049 55.365C100.068 54.6301 100.059 53.8942 99.6678 53.2297C99.1867 52.0909 98.2946 51.401 97.1844 50.9483ZM96.1418 58.588C96.0641 58.5733 96.0105 58.6224 95.9556 58.6627C94.7884 59.5207 93.4705 59.5306 92.1178 59.3443C92.0782 59.2727 92.0179 59.2549 91.9418 59.2764L91.937 59.2744C91.5713 59.0683 91.2976 58.7896 91.2233 58.358C91.1735 58.0697 91.1127 57.7845 91.1134 57.4884C91.1165 56.1893 91.1076 54.8904 91.1049 53.5916C91.1035 52.8516 91.1049 52.1117 91.1097 51.371C91.1114 51.0616 91.1168 51.0506 91.4034 51.0527C92.1287 51.0575 92.8537 51.0121 93.5783 51.1162C94.6612 51.2724 95.6219 51.6593 96.3769 52.4808C96.4584 52.5695 96.5113 52.6998 96.656 52.7155C97.2622 53.4893 97.4707 54.3988 97.4505 55.3462C97.4246 56.5778 97.1015 57.7187 96.1418 58.588ZM96.2544 45.9076C96.3052 46.9594 96.3803 48.015 95.8471 48.9904C95.8211 49.0381 95.858 48.9771 95.8447 49.031C95.8478 49.0562 95.8556 49.078 95.8689 49.0965C95.5851 49.164 95.4298 49.3735 95.3026 49.6133C95.2934 49.6017 95.2801 49.5918 95.2623 49.5836C95.1617 49.5543 95.0651 49.5765 94.9781 49.6222C93.9345 50.1759 92.7971 50.1452 91.6658 50.165C91.3676 50.1704 91.2308 50.0524 91.2356 49.7471C91.2697 47.6701 91.1629 45.5917 91.2963 43.5161C91.3642 43.5628 91.442 43.556 91.5201 43.5491C92.0779 43.5014 92.6374 43.5171 93.1959 43.5297C94.5329 43.559 95.5243 44.1346 96.0617 45.3993C96.1111 45.517 96.1272 45.6766 96.3052 45.6848C96.2507 45.7493 96.2503 45.8278 96.2544 45.9076Z" fill="#191919"/>
</g>
<defs>
<clipPath id="clip0_2336_9941">
<rect width="100" height="100" fill="white" transform="translate(0.0544434)"/>
</clipPath>
</defs>
</svg>
