<svg width="101" height="100" viewBox="0 0 101 100" fill="none" xmlns="http://www.w3.org/2000/svg">
<path d="M20.127 15H81.0895V75.1565H20.127V15Z" fill="#E4E4E4"/>
<mask id="mask0_2336_9919" style="mask-type:luminance" maskUnits="userSpaceOnUse" x="20" y="15" width="62" height="61">
<path d="M20.127 15H81.0895V75.1565H20.127V15Z" fill="white"/>
</mask>
<g mask="url(#mask0_2336_9919)">
<path d="M70.2154 4.30218L80.1271 6.95863L59.148 71.5098L89.7545 10.8852L98.6398 16.0147L61.669 72.938L106.925 22.2999L114.181 29.555L63.7359 74.9675L120.554 37.7703L125.684 46.6554L65.2058 77.466L129.715 56.2402L132.371 66.1529L65.9814 80.2582L133.784 76.4523V86.7121L57.062 82.6872L57.0096 82.8839L57.0342 82.9137L56.9893 82.9564L56.938 83.1507L56.8205 83.1263L56.7736 83.1731L56.6592 83.373L56.6752 83.406L56.6218 83.436L56.5214 83.6091L56.4168 83.5578L56.3591 83.5899L56.1957 83.7522L56.202 83.7896L56.1412 83.8035L56.0012 83.9445L55.9137 83.8665L55.8474 83.8815L55.6498 83.9978L55.6455 84.0352H55.5857L55.4105 84.1356L55.3454 84.0352H55.2813L55.0569 84.0961L55.0452 84.1293L54.9865 84.1143L54.7921 84.1656L54.7559 84.0513L54.6917 84.0352H54.4609L54.4406 84.0662L54.3862 84.0352H54.1874L54.1812 83.9177L54.1233 83.8815L53.9012 83.8228L53.8745 83.8483L53.8285 83.8035L53.6351 83.7522L53.6598 83.6358L53.6127 83.5899L53.4131 83.4713L53.3821 83.4914L53.35 83.436L53.1758 83.3377L53.2303 83.231L53.1982 83.1731L53.035 83.0088L52.9974 83.0173L52.9815 82.9564L52.8672 82.841L-23.8142 87.1479V76.887L43.9687 80.4451L-22.5127 66.5704L-19.8581 56.661L44.694 77.6401L-15.9311 47.0304L-10.7995 38.1474L46.1227 75.1181L-4.51589 29.8626L2.74064 22.6074L48.1522 73.05L10.955 16.2305L19.8397 11.1021L50.6519 71.5804L29.4254 7.0687L39.3361 4.41419L53.444 70.8048L49.637 3.00208H59.8991L56.342 70.7834L70.2154 4.30218Z" fill="#191919"/>
</g>
<path fill-rule="evenodd" clip-rule="evenodd" d="M20.127 83.861V84.6942C20.127 84.8053 20.127 84.7914 20.2262 84.7914H22.0176C22.1062 84.7914 22.1157 84.7851 22.1157 84.6942V83.861H20.127ZM28.6626 83.861C29.3793 84.5714 30.3792 85.0019 31.5088 84.9816C32.5871 84.9624 33.5325 84.5361 34.2162 83.861H28.6626ZM36.9608 83.861V84.6942C36.9608 84.8053 36.9608 84.7914 37.0607 84.7914H41.736C41.8263 84.7914 41.8263 84.7851 41.8263 84.6942V83.861H36.9608ZM43.3817 83.861C43.2535 84.126 43.1312 84.3866 43.0121 84.6388C42.9694 84.7498 42.9796 84.7914 43.0671 84.7914H44.9038C45.0476 84.7914 45.0689 84.7604 45.1014 84.6739C45.1965 84.4463 45.3145 84.1366 45.432 83.861H43.3817ZM48.2204 83.861C48.3252 84.1227 48.4618 84.4539 48.5729 84.7049C48.6071 84.7849 48.652 84.7914 48.7075 84.7914H50.7732C50.8737 84.7914 50.8844 84.7851 50.818 84.6388C50.6899 84.3846 50.5618 84.1248 50.4305 83.861H48.2204ZM52.2808 83.861V84.6942C52.2808 84.8053 52.2808 84.7914 52.3705 84.7914H54.1831C54.2623 84.7914 54.2718 84.7851 54.2718 84.6942V83.861H52.2808ZM56.3258 83.861C56.4742 84.1142 56.6185 84.3664 56.7263 84.5714C56.8246 84.7711 56.8694 84.7914 56.9571 84.7914H58.9139C59.0356 84.7914 59.0699 84.7156 58.9374 84.4934C58.8072 84.285 58.6778 84.0715 58.5508 83.861H56.3258ZM61.0696 83.861V84.6942C61.0696 84.8053 61.0696 84.7914 61.1712 84.7914H63.0031C63.1046 84.7914 63.1143 84.7851 63.1143 84.6942V83.861H61.0696ZM65.9213 83.861C66.622 84.5534 67.594 84.9816 68.6985 84.9816C69.8031 84.9816 70.7729 84.5532 71.4735 83.861H65.9213ZM74.7542 83.861C74.7583 84.1248 74.7637 84.3983 74.768 84.6824C74.768 84.7263 74.8043 84.7914 74.8812 84.7914H76.5497C76.6501 84.7914 76.6501 84.7914 76.6501 84.6942V83.861H74.7542ZM79.5513 83.861C80.0321 84.2605 80.5095 84.6451 80.9272 84.9601C81.0511 85.0478 81.0597 84.9816 81.0597 84.848C81.065 84.5297 81.0693 84.1975 81.0724 83.8608H79.5513V83.861Z" fill="#191919"/>
<path fill-rule="evenodd" clip-rule="evenodd" d="M22.1157 83.8612V82.9137C22.1157 82.9137 23.3655 82.9031 23.6859 82.8689C25.1017 82.7055 26.1743 81.9844 26.1743 80.1707C26.1743 78.4691 25.1899 77.2973 23.5422 77.2973H20.2262C20.1819 77.2973 20.127 77.2856 20.127 77.3977V81.0573V83.8612H22.1157ZM34.2162 83.8612C34.949 83.1369 35.3843 82.12 35.3649 81.0007C35.3259 78.8343 33.605 77.105 31.3726 77.1445C29.1402 77.184 27.4786 78.9702 27.516 81.1353C27.5351 82.2065 27.9635 83.1657 28.6628 83.8612H34.2162ZM41.8263 83.8612V83.0932C41.8263 83.0035 41.8135 82.9801 41.727 82.9801L38.9502 83.0357V77.3977C38.9502 77.3091 38.9402 77.2973 38.8514 77.2973H37.0605C36.9606 77.2973 36.9606 77.2856 36.9606 77.3977V81.0573V83.8612H41.8263ZM45.432 83.8612C45.4507 83.8131 45.4705 83.7661 45.4892 83.7202H48.165C48.1821 83.765 48.2003 83.8109 48.2204 83.8612H50.4306C49.2951 81.571 47.9877 78.908 47.037 77.0559C47.0262 77.0312 46.7829 77.0217 46.7711 77.0559C45.8684 78.7415 44.4863 81.539 43.3817 83.8612H45.432ZM54.2718 83.8612V82.6051L55.5429 82.5827C55.5429 82.5827 55.9542 83.2289 56.3258 83.8612H58.5508C58.0552 83.0302 57.6066 82.2473 57.3779 81.8851C58.0519 81.5668 58.4075 80.8469 58.4075 79.8311C58.4075 78.4691 57.4996 77.2975 55.7959 77.2975H52.3702C52.337 77.2975 52.2804 77.2857 52.2804 77.3979V81.0574V83.8613L54.2718 83.8612ZM63.1142 83.8612V81.0573V77.3977C63.1142 77.3091 63.1045 77.2973 63.003 77.2973H61.171C61.0695 77.2973 61.0695 77.2856 61.0695 77.3977V81.0573V83.8612H63.1142ZM71.4737 83.8612C72.1915 83.153 72.6231 82.1628 72.6231 81.0669C72.6231 78.9006 70.9301 77.1445 68.6986 77.1445C66.4641 77.1445 64.772 78.9007 64.772 81.0669C64.772 82.1628 65.2057 83.153 65.9215 83.8612H71.4737ZM76.6501 83.8612V81.3116C76.6501 81.3116 78.1144 82.6586 79.5512 83.8612H81.0722C81.0946 81.7453 81.0979 79.2872 81.0595 77.4298C81.0595 77.3207 81.0595 77.2973 80.9494 77.2973H79.2691C79.1805 77.2973 79.1805 77.3091 79.1805 77.4298V80.7507C79.1805 80.7507 76.4705 78.2383 74.8897 77.1104C74.8364 77.0772 74.768 77.0654 74.768 77.1851C74.7284 79.8108 74.7168 81.4974 74.7542 83.8612H76.6501ZM68.6986 79.033C69.8693 79.033 70.5552 79.9293 70.5552 81.0669C70.5552 82.2065 69.8695 83.0932 68.6986 83.0932C67.5034 83.0932 66.8411 82.2065 66.8411 81.0669C66.8411 79.9291 67.5033 79.033 68.6986 79.033ZM54.2718 81.1127V78.9454H55.3666C56.0075 78.9454 56.3055 79.3876 56.3055 79.975C56.3055 80.6139 55.9733 81.0571 55.3774 81.0806L54.2718 81.1127ZM46.0415 82.2845L46.7945 80.6042L47.5796 82.2845H46.0415ZM31.4404 79.033C32.6123 79.033 33.297 79.9293 33.297 81.0669C33.297 82.2065 32.6123 83.0932 31.4404 83.0932C30.2462 83.0932 29.5835 82.2065 29.5835 81.0669C29.5835 79.9291 30.2462 79.033 31.4404 79.033ZM23.0232 78.9454C23.6972 78.9454 24.1283 79.3684 24.1283 80.1064C24.1283 80.7377 23.819 81.2226 23.0456 81.2569L22.1157 81.289V78.9454H23.0232Z" fill="#191919"/>
</svg>
