<svg width="101" height="101" viewBox="0 0 101 101" fill="none" xmlns="http://www.w3.org/2000/svg">
<g clip-path="url(#clip0_2336_13378)">
<g clip-path="url(#clip1_2336_13378)">
<path d="M27.0729 23.2663C27.2001 23.2662 27.3272 23.2661 27.4543 23.2659C27.8043 23.2656 28.1542 23.2657 28.5041 23.2659C28.8846 23.266 29.265 23.2657 29.6455 23.2655C30.3125 23.2651 30.9795 23.265 31.6465 23.2651C32.3621 23.2652 33.0777 23.2651 33.7933 23.2649C33.8385 23.2648 33.8837 23.2648 33.9303 23.2648C34.1144 23.2647 34.2986 23.2647 34.4827 23.2646C36.4033 23.2639 38.3238 23.2637 40.2443 23.2637C40.451 23.2637 40.6577 23.2637 40.8643 23.2637C40.9156 23.2637 40.9669 23.2637 41.0197 23.2637C42.1561 23.2637 43.2926 23.2635 44.429 23.2633C44.8969 23.2633 45.3648 23.2632 45.8327 23.2631C45.8844 23.2631 45.9361 23.2631 45.9894 23.2631C48.9516 23.2627 51.9138 23.2624 54.876 23.2624C54.9869 23.2625 55.0977 23.2625 55.2086 23.2625C55.709 23.2625 56.2095 23.2625 56.7099 23.2625C56.9331 23.2625 57.1563 23.2625 57.3794 23.2625C57.4911 23.2625 57.6028 23.2625 57.7145 23.2625C61.2485 23.2625 64.7824 23.262 68.3163 23.2611C69.2071 23.2609 70.0979 23.2606 70.9886 23.2604C71.0709 23.2604 71.0709 23.2604 71.1549 23.2604C72.8445 23.26 74.534 23.2597 76.2236 23.2596C76.2767 23.2596 76.3297 23.2596 76.3843 23.2596C77.5481 23.2596 78.7119 23.2596 79.8757 23.2596C80.2921 23.2596 80.7085 23.2596 81.1248 23.2596C81.2284 23.2596 81.332 23.2596 81.4356 23.2596C83.0878 23.2596 84.74 23.2592 86.3922 23.2586C88.0554 23.2581 89.7186 23.2579 91.3818 23.2584C91.6113 23.2584 91.8409 23.2585 92.0704 23.2585C92.1154 23.2585 92.1604 23.2586 92.2068 23.2586C92.8771 23.2587 93.5474 23.2585 94.2177 23.258C94.9626 23.2575 95.7075 23.2575 96.4524 23.258C96.8278 23.2583 97.2032 23.2583 97.5787 23.2578C97.9196 23.2573 98.2606 23.2574 98.6016 23.2581C98.7247 23.2582 98.8478 23.2581 98.971 23.2577C99.1372 23.2573 99.3034 23.2576 99.4697 23.2582C99.5419 23.2577 99.5419 23.2577 99.6155 23.2572C99.8563 23.259 100.039 23.2688 100.241 23.4083C100.433 23.6377 100.473 23.8505 100.468 24.1485C100.4 24.5979 100.185 25.0169 100.006 25.4309C99.961 25.537 99.9161 25.6431 99.8714 25.7493C99.7782 25.9703 99.6845 26.1911 99.5905 26.4117C99.3883 26.8872 99.1925 27.3654 98.9965 27.8435C98.9344 27.9948 98.872 28.1459 98.8095 28.2969C98.6243 28.7448 98.4407 29.193 98.2628 29.6438C98.2331 29.7184 98.2034 29.793 98.1727 29.8699C98.1188 30.0054 98.0657 30.1412 98.0134 30.2774C97.8827 30.6045 97.782 30.8272 97.4705 31.0148C97.2433 31.0914 97.069 31.0899 96.8293 31.0899C96.7609 31.0901 96.7609 31.0901 96.6911 31.0902C96.5369 31.0905 96.3826 31.0903 96.2284 31.09C96.1168 31.0901 96.0052 31.0902 95.8936 31.0904C95.5846 31.0907 95.2756 31.0906 94.9667 31.0904C94.6314 31.0902 94.2961 31.0905 93.9608 31.0907C93.3724 31.0911 92.7839 31.0911 92.1955 31.0911C91.3204 31.091 90.4453 31.0912 89.5702 31.0916C88.4574 31.0921 87.3446 31.0924 86.2319 31.0926C86.1877 31.0926 86.1435 31.0926 86.098 31.0926C85.9185 31.0927 85.7391 31.0927 85.5596 31.0927C83.3659 31.0931 81.1721 31.094 78.9783 31.0953C78.465 31.0956 77.9516 31.0959 77.4382 31.0962C77.3442 31.0962 77.2501 31.0963 77.1561 31.0963C76.9674 31.0964 76.7787 31.0965 76.5901 31.0967C76.4007 31.0968 76.2113 31.0969 76.0219 31.097C73.8365 31.0982 71.6511 31.0993 69.4657 31.1003C69.3175 31.1004 69.1694 31.1005 69.0212 31.1006C66.7407 31.1016 64.4602 31.1025 62.1797 31.1029C62.1062 31.1029 62.1062 31.1029 62.0313 31.1029C61.2414 31.1031 60.4515 31.1032 59.6616 31.1033C57.3848 31.1037 55.1081 31.1042 52.8313 31.1056C52.7844 31.1056 52.7376 31.1057 52.6893 31.1057C51.7061 31.1063 50.723 31.107 49.7399 31.1077C49.2794 31.108 48.8189 31.1084 48.3584 31.1087C48.2904 31.1088 48.2904 31.1088 48.221 31.1088C46.7634 31.1098 45.3058 31.11 43.8483 31.1097C42.3376 31.1094 40.8269 31.11 39.3162 31.1117C38.4462 31.1126 37.5762 31.1128 36.7062 31.112C36.1239 31.1114 35.5416 31.1119 34.9593 31.1131C34.6283 31.1138 34.2972 31.1141 33.9662 31.1132C30.0818 31.1031 26.4304 31.8957 23.5859 34.7527C21.7854 36.6241 20.7038 39.1172 20.3597 41.6906C20.3535 41.7337 20.3474 41.7767 20.3411 41.8211C19.9464 44.8926 20.6941 48.2553 22.5653 50.7234C22.7639 50.9785 22.7639 50.9785 22.984 51.2139C23.0642 51.2989 23.0642 51.2989 23.0642 51.4323C23.1077 51.4323 23.1512 51.4323 23.1961 51.4323C23.2798 51.5209 23.2798 51.5209 23.3816 51.6492C23.6045 51.915 23.8457 52.1518 24.099 52.3873C24.1542 52.4389 24.1542 52.4389 24.2106 52.4915C24.3603 52.6297 24.5089 52.7621 24.6733 52.8823C24.7082 52.9102 24.7432 52.9382 24.7792 52.967C24.7792 53.011 24.7792 53.055 24.7792 53.1004C24.8149 53.1146 24.8506 53.1288 24.8874 53.1434C25.0993 53.2666 25.2545 53.4367 25.4223 53.6133C25.6871 53.887 25.9556 54.1481 26.244 54.3966C26.4063 54.5407 26.5556 54.6964 26.7068 54.8522C26.8284 54.973 26.9545 55.0857 27.0838 55.198C27.269 55.3594 27.4441 55.5264 27.6156 55.7026C27.7831 55.8747 27.9536 56.0377 28.1351 56.1947C28.4148 56.4373 28.671 56.7012 28.9282 56.9678C29.0556 57.1066 29.0556 57.1066 29.1987 57.1706C29.1987 57.2146 29.1987 57.2586 29.1987 57.304C29.2354 57.3192 29.272 57.3343 29.3098 57.3499C29.5065 57.4626 29.6398 57.6066 29.7965 57.7711C29.9675 57.95 30.1151 58.0999 30.3201 58.2381C30.3201 58.2822 30.3201 58.3262 30.3201 58.3716C30.3578 58.3879 30.3956 58.4041 30.4345 58.4209C30.6106 58.5201 30.725 58.6372 30.8643 58.7845C31.0509 58.9778 31.2383 59.1636 31.4415 59.3391C31.6862 59.5513 31.9118 59.7786 32.1361 60.0126C32.314 60.188 32.4997 60.3515 32.6872 60.5161C32.9119 60.7161 33.1288 60.9242 33.3461 61.1323C33.703 61.4731 34.063 61.8079 34.4345 62.1324C34.5417 62.2416 34.5417 62.2416 34.5417 62.375C34.598 62.399 34.598 62.399 34.6554 62.4235C34.8361 62.5257 34.9552 62.6493 35.0983 62.8004C35.2524 62.9609 35.3943 63.1053 35.5724 63.2383C36.1156 63.7155 36.3712 64.3665 36.4797 65.0734C36.5093 65.6144 36.3078 66.1327 35.9641 66.5411C35.887 66.6216 35.8088 66.7011 35.7291 66.7788C35.6801 66.8283 35.6311 66.8779 35.5806 66.9289C34.8656 67.3892 34.1233 67.3506 33.3069 67.3469C33.1673 67.3473 33.0276 67.3478 32.888 67.3483C32.5053 67.3496 32.1226 67.3492 31.74 67.3485C31.3269 67.348 30.9138 67.3491 30.5007 67.3499C29.7387 67.3513 28.9767 67.3514 28.2147 67.3509C27.5109 67.3504 26.8071 67.3504 26.1033 67.3509C26.0088 67.351 25.9143 67.351 25.8199 67.3511C25.6775 67.3512 25.5352 67.3513 25.3928 67.3514C24.0699 67.3522 22.7471 67.3526 21.4242 67.3518C21.3494 67.3518 21.3494 67.3518 21.2732 67.3517C20.8684 67.3515 20.4637 67.3512 20.059 67.351C18.4793 67.35 16.8997 67.3506 15.32 67.3524C13.5448 67.3545 11.7696 67.3555 9.99437 67.3548C9.80519 67.3548 9.61601 67.3547 9.42683 67.3546C9.38025 67.3546 9.33367 67.3546 9.28568 67.3546C8.58208 67.3544 7.87848 67.355 7.17487 67.356C6.37516 67.3572 5.57545 67.3572 4.77573 67.3557C4.36754 67.3549 3.95938 67.3547 3.55119 67.356C3.17781 67.3571 2.80446 67.3567 2.43107 67.355C2.29575 67.3547 2.16041 67.3549 2.02509 67.3558C1.84158 67.3568 1.65819 67.3559 1.47469 67.3544C1.42175 67.3552 1.36882 67.356 1.31428 67.3568C0.935655 67.3505 0.769448 67.2538 0.504791 66.979C0.359136 66.6843 0.400362 66.3135 0.488171 66.0048C0.559765 65.8193 0.637815 65.6382 0.719171 65.4568C0.780648 65.3139 0.842056 65.1709 0.903404 65.0278C0.935662 64.9536 0.967921 64.8794 1.00116 64.803C1.16128 64.431 1.31294 64.0556 1.46538 63.6803C1.53233 63.5164 1.59932 63.3526 1.66636 63.1887C1.7023 63.1008 1.73825 63.0129 1.77419 62.925C2.45295 61.2656 3.13387 59.6071 3.81721 57.9496C4.07155 57.3327 4.32566 56.7157 4.57979 56.0986C4.64164 55.9485 4.70349 55.7983 4.76533 55.6482C4.79487 55.5765 4.79487 55.5765 4.82501 55.5033C4.93647 55.2327 5.04799 54.9621 5.15957 54.6916C5.50136 53.8628 5.84173 53.0334 6.18174 52.2038C6.20558 52.1456 6.22943 52.0874 6.254 52.0275C6.49957 51.4283 6.74507 50.8291 6.9904 50.2299C7.10973 49.9384 7.22908 49.647 7.34846 49.3555C7.37201 49.298 7.39557 49.2405 7.41984 49.1813C7.71586 48.4588 8.01342 47.737 8.31317 47.016C8.68869 46.1127 9.05856 45.207 9.42793 44.3011C9.86782 43.2223 10.3104 42.1447 10.7545 41.0677C11.1416 40.129 11.5276 39.1899 11.9123 38.2502C12.2642 37.3906 12.618 36.532 12.9746 35.6744C13.2028 35.1251 13.4287 34.5749 13.6537 34.0243C13.8459 33.5537 14.0388 33.0834 14.2323 32.6133C14.3298 32.3763 14.4272 32.1393 14.5233 31.9017C15.2807 30.0313 16.3122 28.501 17.7211 27.0781C17.7616 27.0341 17.8021 26.99 17.8438 26.9447C18.6374 26.0955 19.6231 25.448 20.6235 24.8762C20.687 24.8398 20.687 24.8398 20.7518 24.8026C22.6941 23.7077 24.8709 23.2636 27.0729 23.2663Z" fill="#191919"/>
<path d="M32.739 40.998C32.7999 40.9977 32.8608 40.9974 32.9236 40.9971C33.1268 40.9963 33.3301 40.9969 33.5333 40.9975C33.6808 40.9972 33.8284 40.9969 33.9759 40.9964C34.3807 40.9955 34.7854 40.9958 35.1902 40.9962C35.582 40.9965 35.9739 40.9959 36.3658 40.9952C37.2164 40.9939 38.0671 40.9938 38.9178 40.9941C39.6621 40.9944 40.4063 40.9944 41.1505 40.994C41.2504 40.994 41.3503 40.9939 41.4501 40.9939C41.6006 40.9938 41.7511 40.9937 41.9015 40.9936C43.3001 40.9929 44.6986 40.9926 46.0972 40.9931C46.1499 40.9931 46.2026 40.9932 46.2569 40.9932C46.6848 40.9933 47.1128 40.9935 47.5407 40.9937C49.2112 40.9944 50.8816 40.9938 52.5521 40.9923C54.4289 40.9905 56.3057 40.9897 58.1825 40.9901C58.3825 40.9902 58.5825 40.9902 58.7825 40.9903C58.8317 40.9903 58.8809 40.9903 58.9317 40.9903C59.6757 40.9905 60.4198 40.9899 61.1638 40.9891C62.0095 40.9881 62.8551 40.988 63.7007 40.9892C64.1324 40.9898 64.5641 40.9899 64.9958 40.9889C65.3906 40.988 65.7853 40.9883 66.1801 40.9896C66.3233 40.9898 66.4665 40.9896 66.6097 40.9889C66.8036 40.9881 66.9975 40.9888 67.1914 40.99C67.2476 40.9893 67.3038 40.9887 67.3617 40.988C67.627 40.9914 67.7555 41.0026 67.9842 41.1514C68.1813 41.3572 68.242 41.4735 68.2667 41.761C68.2447 42.0923 68.1432 42.3425 68.0144 42.6451C67.9897 42.7051 67.9649 42.7651 67.9394 42.827C67.8579 43.024 67.7753 43.2205 67.6926 43.4171C67.6353 43.5552 67.578 43.6933 67.5208 43.8315C67.4035 44.1148 67.2857 44.3979 67.1677 44.6808C66.9384 45.2309 66.713 45.7827 66.4876 46.3344C66.3729 46.6151 66.2579 46.8956 66.1427 47.1761C66.1092 47.2578 66.1092 47.2578 66.075 47.3411C65.8163 47.9712 65.5568 48.6009 65.2972 49.2306C64.9258 50.1316 64.5564 51.0333 64.1878 51.9354C63.4109 53.837 62.634 55.7387 61.8508 57.6376C61.1907 59.2385 60.5338 60.8406 59.8842 62.4459C59.2963 63.8987 58.6983 65.3473 58.1004 66.7959C57.9061 67.2669 57.7119 67.7381 57.5178 68.2092C57.4983 68.2566 57.4787 68.3041 57.4586 68.353C56.8325 69.8726 56.2097 71.3936 55.5877 72.9149C55.3122 73.5887 55.0365 74.2625 54.7597 74.9358C54.7204 75.0317 54.7204 75.0317 54.6803 75.1296C54.5629 75.4148 54.4444 75.6995 54.3227 75.9828C54.3028 76.0292 54.2829 76.0756 54.2624 76.1234C54.0279 76.6051 53.6366 76.8945 53.1437 77.0831C52.6582 77.2225 52.1193 77.1721 51.62 77.1664C51.4801 77.1663 51.3403 77.1664 51.2005 77.1666C50.8229 77.1667 50.4453 77.1644 50.0677 77.1616C49.6723 77.1591 49.277 77.1589 48.8816 77.1584C48.1338 77.1571 47.386 77.1539 46.6383 77.1498C45.7866 77.1454 44.9349 77.1432 44.0832 77.1411C42.332 77.137 40.5808 77.1299 38.8297 77.121C38.8201 76.9623 38.8201 76.9623 38.8297 76.7874C38.9619 76.6753 39.0749 76.6021 39.2254 76.5205C40.3822 75.8918 41.3692 75.1642 42.3257 74.2519C42.4033 74.1789 42.4033 74.1789 42.4824 74.1044C44.6406 72.0069 46.1694 68.6555 46.2309 65.6223C46.2488 64.121 46.2488 64.121 46.0196 62.6419C46 62.5596 46 62.5596 45.9799 62.4755C45.4354 60.2688 44.3949 58.3432 42.9194 56.6368C42.8626 56.5668 42.8059 56.4968 42.7493 56.4267C42.6171 56.2692 42.4892 56.1358 42.3339 56.0029C42.2669 55.9447 42.2669 55.9447 42.1984 55.8853C42.1077 55.8083 42.0167 55.7317 41.9253 55.6555C41.8833 55.6201 41.8413 55.5848 41.798 55.5483C41.7599 55.5169 41.7218 55.4856 41.6826 55.4532C41.6001 55.369 41.6001 55.369 41.6001 55.2356C41.5414 55.2091 41.5414 55.2091 41.4816 55.1821C41.331 55.0992 41.239 55.0151 41.1219 54.8894C40.9602 54.7207 40.7955 54.5625 40.6189 54.4099C40.3717 54.1946 40.1431 53.9648 39.916 53.728C39.7385 53.5531 39.5532 53.39 39.3661 53.2257C39.1338 53.0188 38.9099 52.803 38.6854 52.5875C38.349 52.2659 38.0119 51.9452 37.6712 51.6283C37.3548 51.334 37.0405 51.0376 36.7271 50.7401C36.6831 50.6983 36.6392 50.6566 36.5939 50.6137C36.4136 50.4425 36.2333 50.2714 36.0531 50.1C35.9192 49.9727 35.7851 49.8455 35.6511 49.7183C35.6107 49.6799 35.5704 49.6415 35.5288 49.6019C35.3595 49.4415 35.1922 49.2897 35.0087 49.1457C34.9635 49.1076 34.9184 49.0695 34.8719 49.0303C34.8719 48.9862 34.8719 48.9422 34.8719 48.8968C34.8362 48.8826 34.8005 48.8684 34.7637 48.8538C34.5518 48.7307 34.3964 48.5607 34.2287 48.3839C33.9711 48.114 33.7054 47.8614 33.4248 47.6161C33.1965 47.4139 32.9771 47.2022 32.7569 46.991C32.6588 46.8972 32.5606 46.8035 32.4624 46.7098C32.3888 46.6395 32.3888 46.6395 32.3138 46.5678C32.0868 46.3511 31.8593 46.135 31.6314 45.9193C31.5925 45.8822 31.5535 45.8452 31.5134 45.807C31.3246 45.6284 31.1335 45.4559 30.9342 45.2893C30.441 44.8646 30.1126 44.2337 30.036 43.5844C30.0059 42.9139 30.2222 42.3404 30.6474 41.8288C31.24 41.2213 31.9077 40.9913 32.739 40.998Z" fill="#191919"/>
<path d="M80.2013 41.0051C80.2814 41.0046 80.2814 41.0046 80.3631 41.0041C80.5414 41.0031 80.7198 41.003 80.8981 41.003C81.0262 41.0025 81.1543 41.0019 81.2824 41.0013C81.6299 40.9998 81.9774 40.9992 82.3249 40.9989C82.5421 40.9987 82.7592 40.9982 82.9763 40.9978C83.7338 40.9961 84.4913 40.9953 85.2488 40.995C85.9549 40.9948 86.6611 40.9928 87.3672 40.99C87.9736 40.9877 88.5799 40.9867 89.1863 40.9866C89.5484 40.9866 89.9105 40.986 90.2727 40.9841C90.6131 40.9823 90.9535 40.9822 91.294 40.9832C91.4189 40.9834 91.5439 40.9829 91.6688 40.9819C91.8394 40.9805 92.0098 40.9812 92.1804 40.9824C92.2298 40.9815 92.2792 40.9806 92.3301 40.9797C92.708 40.9859 92.8616 41.095 93.117 41.357C93.2455 41.617 93.2186 41.9045 93.1379 42.176C93.0694 42.3515 92.9953 42.5235 92.9191 42.6957C92.8584 42.8377 92.7979 42.9797 92.7374 43.1218C92.7036 43.2009 92.6697 43.28 92.6349 43.3615C92.4396 43.821 92.255 44.2851 92.0683 44.7483C91.752 45.5327 91.4335 46.316 91.1051 47.0953C90.8146 47.7851 90.5323 48.4781 90.2517 49.1721C89.8486 50.1689 89.4414 51.164 89.0314 52.158C89.0036 52.2254 88.9757 52.2929 88.9471 52.3624C88.9192 52.4299 88.8914 52.4974 88.8627 52.5669C88.8068 52.7025 88.7508 52.8381 88.6949 52.9738C88.6674 53.0405 88.6398 53.1072 88.6115 53.176C88.3354 53.8454 88.0608 54.5154 87.7863 55.1856C87.3138 56.3393 86.8394 57.4923 86.3642 58.6449C86.1848 59.0801 86.0056 59.5152 85.8264 59.9504C85.7026 60.2512 85.5786 60.5518 85.4544 60.8524C85.0576 61.8136 84.6647 62.7764 84.272 63.7393C83.9572 64.5111 83.6415 65.2824 83.3238 66.053C83.2793 66.1608 83.2793 66.1608 83.234 66.2708C83.0912 66.617 82.9483 66.9631 82.8053 67.3092C82.7529 67.4361 82.7005 67.5629 82.6482 67.6898C82.6233 67.7501 82.5984 67.8104 82.5727 67.8725C82.4273 68.2258 82.2859 68.5804 82.1473 68.9364C82.0088 69.2887 81.86 69.6279 81.6806 69.9607C81.6555 70.008 81.6303 70.0553 81.6044 70.104C81.3766 70.5254 81.1241 70.9253 80.8479 71.3161C80.8019 71.3817 80.7559 71.4473 80.7085 71.5149C80.3952 71.95 80.0566 72.3469 79.6922 72.7379C79.5284 72.9133 79.5284 72.9133 79.3895 73.0944C79.1982 73.3346 78.9689 73.5192 78.737 73.7181C78.6743 73.7741 78.6115 73.8301 78.5469 73.8878C78.0254 74.35 77.4805 74.7518 76.8901 75.1193C76.8462 75.1467 76.8023 75.1742 76.757 75.2024C74.493 76.5946 71.9462 77.1413 69.3242 77.1435C69.1966 77.1439 69.069 77.1443 68.9414 77.1448C68.6765 77.1456 68.4116 77.1458 68.1466 77.1458C67.8077 77.1457 67.4687 77.1476 67.1297 77.1499C66.8673 77.1514 66.6049 77.1516 66.3425 77.1516C66.2175 77.1517 66.0924 77.1523 65.9674 77.1533C65.7932 77.1546 65.619 77.1543 65.4448 77.1535C65.3937 77.1542 65.3426 77.155 65.29 77.1557C64.9473 77.1517 64.7535 77.0722 64.489 76.8541C64.3174 76.6252 64.3448 76.3994 64.3571 76.1202C64.5307 75.4643 64.8278 74.8315 65.0911 74.2077C65.208 73.9305 65.324 73.6529 65.4401 73.3754C65.4646 73.3168 65.4891 73.2582 65.5143 73.1978C65.8018 72.5097 66.0834 71.8191 66.3648 71.1284C66.4179 70.9982 66.471 70.868 66.524 70.7379C66.6034 70.5431 66.6828 70.3483 66.7622 70.1535C67.0316 69.4926 67.302 68.8321 67.5728 68.1717C67.5959 68.1152 67.6191 68.0588 67.6429 68.0006C67.982 67.1736 68.3222 66.3472 68.663 65.5209C69.0564 64.5671 69.4464 63.612 69.8362 62.6567C70.1464 61.8964 70.4568 61.1363 70.7702 60.3773C70.94 59.9659 71.1091 59.554 71.2778 59.1421C71.3011 59.0851 71.3245 59.0281 71.3485 58.9694C71.3969 58.8512 71.4454 58.7329 71.4938 58.6146C71.5182 58.5551 71.5426 58.4955 71.5677 58.4342C71.592 58.3747 71.6164 58.3152 71.6415 58.2539C71.9503 57.5 72.2607 56.7468 72.5736 55.9946C72.9082 55.1902 73.2364 54.3832 73.5631 53.5754C73.9387 52.6468 74.3189 51.7202 74.7009 50.7943C75.1428 49.7234 75.5827 48.6518 76.0202 47.579C76.4943 46.4165 76.9696 45.2545 77.4499 44.0947C77.5591 43.8306 77.6669 43.5661 77.7735 43.3009C77.8229 43.178 77.8728 43.0553 77.9227 42.9325C77.9821 42.7863 78.0409 42.6398 78.0989 42.493C78.2991 42.0041 78.5381 41.5788 79.0009 41.3028C79.0621 41.265 79.0621 41.265 79.1246 41.2265C79.4822 41.0489 79.8069 41.0038 80.2013 41.0051Z" fill="#191919"/>
</g>
</g>
<defs>
<clipPath id="clip0_2336_13378">
<rect width="100" height="100" fill="white" transform="translate(0.438965 0.197998)"/>
</clipPath>
<clipPath id="clip1_2336_13378">
<rect width="100" height="53.8462" fill="white" transform="translate(0.438965 23.2749)"/>
</clipPath>
</defs>
</svg>
