<svg width="101" height="101" viewBox="0 0 101 101" fill="none" xmlns="http://www.w3.org/2000/svg">
<g clip-path="url(#clip0_2377_8892)">
<path d="M16.6198 39.0532C13.5317 39.1654 10.936 40.8546 9.47034 43.424L0.0144653 61.0463L7.16994 61.0403L8.84681 57.2264H14.1983L13.9925 61.0463H21.154L20.3246 39.0532L16.6198 39.0532ZM27.9704 39.0532L22.4676 61.0463H28.6727L34.1936 39.0532H27.9704ZM37.1297 39.2712L32.656 57.0024C32.1793 58.7905 32.3227 59.9436 33.0798 60.4712C33.754 60.9886 35.036 61.2337 36.9299 61.2158C38.0209 61.2158 39.1908 61.1629 40.4411 61.0584L41.3733 57.3596H40.3381C39.3045 57.3723 38.8891 56.9352 39.1032 56.052L41.0827 48.1096H43.6858L44.612 44.3744H42.0271L43.3468 39.2712H37.1297ZM14.9368 43.8356L14.4283 53.007H10.6992L14.9368 43.8356ZM86.1646 43.9143C83.8884 43.9143 82.1176 44.7443 80.8495 46.4024H80.7768L81.2732 44.3684H75.0016L70.8185 61.0403H77.0417L79.8022 50.0407C80.1437 48.705 80.9154 48.0468 82.1147 48.0672C83.3038 48.0468 83.7186 48.7085 83.3618 50.0467L80.6013 61.0403H86.8063L89.5668 50.0407C89.9147 48.705 90.7026 48.0468 91.9338 48.0672C93.1344 48.0468 93.5466 48.705 93.1809 50.0407L90.4325 61.0403H93.1748C95.1209 61.0403 96.9717 59.7531 97.4063 57.9892L99.7975 48.4607C100.214 46.7133 100.03 45.4995 99.2467 44.8163C98.4374 44.2046 97.2993 43.9067 95.8324 43.9143C94.8447 43.9143 93.8786 44.1074 92.9266 44.4834C91.9414 44.8747 91.07 45.5415 90.3054 46.4872C90.1524 45.6231 89.7596 44.9747 89.1249 44.5439C88.4787 44.1246 87.4914 43.9143 86.1646 43.9143ZM46.9064 44.3805L42.7415 61.0463H48.9404L53.1235 44.3805H46.9064ZM55.9446 44.3805L52.7966 56.9722C52.3914 58.7118 52.6007 59.9047 53.4202 60.5317C54.1874 61.1728 55.2847 61.4758 56.7134 61.458C58.9769 61.458 60.7333 60.6538 61.9862 59.0365H62.0588L61.5685 61.0524H67.7674L71.9324 44.3805H65.7213L62.9608 55.38C62.6167 56.7157 61.8434 57.3784 60.6301 57.3657C59.4576 57.3784 59.0492 56.7157 59.4073 55.38L62.1617 44.3805H55.9446Z" fill="#191919"/>
</g>
<defs>
<clipPath id="clip0_2377_8892">
<rect width="100" height="100" fill="white" transform="translate(0.0144653 0.255859)"/>
</clipPath>
</defs>
</svg>
