<svg width="100" height="101" viewBox="0 0 100 101" fill="none" xmlns="http://www.w3.org/2000/svg">
<path d="M4.58043 43.7118C5.00097 43.6951 5.42129 43.6828 5.84211 43.6747C5.98512 43.6713 6.12811 43.6666 6.27104 43.6608C7.44769 43.6137 7.44769 43.6137 7.76006 43.8331C7.87543 44.0143 7.93933 44.1863 8.007 44.3887C8.08213 44.5356 8.15909 44.6817 8.23755 44.827C8.31857 44.9881 8.39914 45.1492 8.47903 45.3108C8.51102 45.3753 8.51102 45.3753 8.54367 45.4412C8.95583 46.2743 9.33759 47.1154 9.68532 47.9758C9.72206 48.0656 9.75882 48.1554 9.79558 48.2453C10.4499 49.8513 10.9563 51.48 11.4132 53.1479C11.5336 53.5873 11.658 54.0255 11.7857 54.4629C11.8023 54.5201 11.819 54.5773 11.8361 54.6362C11.8992 54.8528 11.9624 55.0693 12.026 55.2856C12.0682 55.4296 12.11 55.5736 12.1517 55.7177C12.1752 55.7981 12.1987 55.8785 12.223 55.9614C12.2727 56.1653 12.2727 56.1653 12.2727 56.436C11.4767 56.7265 10.3576 56.9633 9.52497 56.7025C9.27318 56.5696 9.14191 56.4662 8.98602 56.233C8.91057 55.9596 8.88838 55.7072 8.87539 55.4258C8.85155 55.0123 8.74103 54.6228 8.632 54.2237C8.59472 54.0867 8.55748 53.9496 8.52028 53.8126C8.50395 53.754 8.48763 53.6954 8.47082 53.635C8.42251 53.4417 8.38826 53.2483 8.35665 53.0519C8.27362 53.0632 8.19058 53.0744 8.10503 53.086C5.06791 53.497 5.06791 53.497 3.8112 53.6611C3.72686 54.0759 3.66341 54.4778 3.6615 54.9013C3.64897 56.0931 3.64897 56.0931 3.33917 56.4101C2.81284 56.8144 2.22215 56.8419 1.57343 56.7744C1.4997 56.7726 1.42596 56.7708 1.34999 56.7689C0.837583 56.7518 0.475063 56.6155 0.0349731 56.3684C0.0731999 55.7292 0.239987 55.1308 0.410847 54.5156C0.426315 54.4594 0.441784 54.4032 0.457721 54.3453C1.46938 50.6751 2.69322 47.0547 4.58043 43.7118ZM6.04896 47.299C5.78066 47.9092 5.52969 48.5252 5.28453 49.1444C5.22212 49.3018 5.15921 49.459 5.0963 49.6162C5.05643 49.7167 5.01659 49.8172 4.97679 49.9177C4.958 49.9644 4.93921 50.0112 4.91985 50.0593C4.84288 50.2551 4.79022 50.4039 4.79022 50.6154C5.19 50.4682 5.56198 50.2739 5.93922 50.0799C6.02432 50.0363 6.10964 49.9931 6.19517 49.9503C6.31919 49.8882 6.4425 49.8249 6.56579 49.7614C6.63937 49.724 6.71295 49.6866 6.78876 49.648C6.96167 49.5485 6.96167 49.5485 7.02636 49.4081C7.02865 49.2015 6.96459 49.0496 6.88675 48.8575C6.85561 48.7799 6.82446 48.7023 6.79238 48.6223C6.75907 48.5416 6.72576 48.4609 6.69144 48.3777C6.65894 48.2966 6.62645 48.2156 6.59297 48.1322C6.42199 47.7003 6.42199 47.7003 6.18882 47.299C6.14267 47.299 6.09651 47.299 6.04896 47.299Z" fill="#E4E4E4"/>
<path d="M79.0559 51.4953C81.8811 51.4953 81.8811 51.4953 82.4825 51.969C82.8904 52.4812 82.8709 52.9629 82.8322 53.5934C82.7613 53.9845 82.4927 54.207 82.1916 54.454C82.0629 54.5409 82.0629 54.5409 81.9231 54.5409C82.0403 54.7761 82.1606 55.0097 82.2815 55.2431C82.3146 55.3098 82.3478 55.3765 82.382 55.4451C82.5753 55.833 82.5753 55.833 82.9278 56.0749C82.9885 56.0824 83.0493 56.0899 83.1119 56.0976C83.1138 56.209 83.1151 56.3204 83.1163 56.4318C83.1171 56.4938 83.1179 56.5559 83.1187 56.6198C83.1119 56.7744 83.1119 56.7744 83.042 56.8421C82.8816 56.8583 82.8816 56.8583 82.6792 56.8633C82.5804 56.8671 82.5804 56.8671 82.4795 56.8709C82.2111 56.8335 82.04 56.7574 81.8531 56.5714C81.6874 56.333 81.5517 56.0822 81.4161 55.8269C81.3791 55.7594 81.3422 55.6918 81.3041 55.6223C81.1575 55.3536 81.0145 55.0835 80.8741 54.8117C80.6203 54.7893 80.3664 54.767 80.1049 54.744C80.1049 55.414 80.1049 56.0841 80.1049 56.7744C79.7587 56.7744 79.4126 56.7744 79.0559 56.7744C79.0559 55.0323 79.0559 53.2902 79.0559 51.4953ZM80.1049 52.2398C80.1049 52.8205 80.1049 53.4012 80.1049 53.9995C80.3688 54.0079 80.3688 54.0079 80.6381 54.0164C80.6927 54.0189 80.7473 54.0213 80.8036 54.0239C81.1614 54.0293 81.3605 53.9573 81.6434 53.7288C81.8521 53.4257 81.816 53.1363 81.7832 52.7812C81.6882 52.5053 81.6033 52.4583 81.3374 52.3201C80.9229 52.2033 80.9229 52.2033 80.1049 52.2398Z" fill="#E4E4E4"/>
<path d="M35.9591 51.9294C36.5409 52.5421 36.5511 53.3396 36.5516 54.1222C36.5524 54.1918 36.5533 54.2615 36.5542 54.3333C36.5556 55.0818 36.4708 55.7769 35.937 56.3541C35.431 56.808 34.7914 56.9369 34.112 56.9241C33.3916 56.8602 32.8853 56.6402 32.3907 56.1357C31.9879 55.5436 31.9783 54.9806 31.9762 54.2942C31.9755 54.1576 31.9734 54.021 31.9712 53.8843C31.9681 53.1432 32.0366 52.4849 32.5896 51.9291C33.5014 51.1088 35.0213 51.1809 35.9591 51.9294ZM33.3348 52.5655C32.9854 53.0582 33.0186 53.5496 33.0201 54.1264C33.019 54.2104 33.0179 54.2944 33.0167 54.381C33.0164 54.9394 33.0381 55.3735 33.4178 55.8184C33.7249 56.059 33.9677 56.1267 34.3671 56.1143C34.715 56.0739 34.944 55.9452 35.1967 55.7169C35.5422 55.2707 35.5115 54.6627 35.507 54.1306C35.5075 54.0669 35.5081 54.0032 35.5086 53.9375C35.507 53.3848 35.4581 52.8777 35.0699 52.4428C34.4851 52.0457 33.8542 52.0628 33.3348 52.5655Z" fill="#E4E4E4"/>
<path d="M47.7972 51.4953C50.7276 51.4953 50.7276 51.4953 51.3697 52.0914C51.8595 52.6343 51.8696 53.2059 51.8738 53.899C51.8746 53.9905 51.876 54.0821 51.8781 54.1736C51.896 54.9649 51.8122 55.6585 51.2282 56.2518C50.2448 57.0467 49.0462 56.7744 47.7972 56.7744C47.7972 55.0323 47.7972 53.2902 47.7972 51.4953ZM48.8462 52.3074C48.8462 53.5135 48.8462 54.7196 48.8462 55.9623C49.7415 56.035 49.7415 56.035 50.4256 55.7206C50.8891 55.2671 50.8191 54.7096 50.8217 54.1137C50.8231 54.0317 50.8246 53.9498 50.8261 53.8653C50.8314 53.1776 50.8314 53.1776 50.4871 52.5956C49.8678 52.1511 49.9288 52.3074 48.8462 52.3074Z" fill="#E4E4E4"/>
<path d="M22.1329 51.4953C22.479 51.4953 22.8252 51.4953 23.1818 51.4953C23.1828 51.612 23.1839 51.7288 23.1849 51.8492C23.1885 52.236 23.1931 52.6229 23.1983 53.0097C23.2014 53.2441 23.2042 53.4786 23.2061 53.713C23.2082 53.9828 23.2121 54.2526 23.216 54.5224C23.2164 54.6062 23.2169 54.69 23.2173 54.7763C23.2204 55.3322 23.2204 55.3322 23.4615 55.8269C23.7231 56.0035 23.9639 56.0702 24.2849 56.0588C24.5954 56.0013 24.8774 55.8592 25.1399 55.6915C25.2994 55.4599 25.2984 55.3716 25.302 55.0989C25.3034 55.0189 25.3048 54.939 25.3062 54.8567C25.307 54.7704 25.3078 54.6841 25.3087 54.5951C25.31 54.5068 25.3114 54.4184 25.3128 54.3274C25.3164 54.0928 25.3191 53.8581 25.3217 53.6234C25.3245 53.3839 25.3281 53.1443 25.3316 52.9048C25.3384 52.435 25.3442 51.9651 25.3497 51.4953C25.6727 51.4953 25.9958 51.4953 26.3287 51.4953C26.3287 53.2374 26.3287 54.9795 26.3287 56.7744C26.0287 56.7744 25.7287 56.7744 25.4196 56.7744C25.3965 56.6628 25.3734 56.5511 25.3497 56.436C25.3166 56.4589 25.2835 56.4818 25.2494 56.5053C24.7129 56.8555 24.1517 56.9939 23.5053 56.8807C23.0438 56.7704 22.7162 56.5889 22.4126 56.233C22.1147 55.686 22.0951 55.1486 22.1056 54.5423C22.106 54.4547 22.1063 54.3671 22.1068 54.2769C22.1078 54.0466 22.1105 53.8165 22.1137 53.5863C22.1166 53.3503 22.1178 53.1143 22.1192 52.8784C22.1222 52.4173 22.1271 51.9563 22.1329 51.4953Z" fill="#E4E4E4"/>
<path d="M18.493 51.4876C18.5512 51.4879 18.6094 51.4883 18.6694 51.4886C18.7323 51.4889 18.7952 51.4891 18.86 51.4893C18.9591 51.4902 18.9591 51.4902 19.0603 51.491C19.1267 51.4913 19.1931 51.4916 19.2615 51.492C19.4261 51.4928 19.5907 51.4939 19.7553 51.4953C20.2155 52.8158 20.6664 54.1388 21.1014 55.4673C21.1217 55.5291 21.1419 55.5909 21.1628 55.6545C21.22 55.8292 21.2771 56.004 21.3341 56.1788C21.3514 56.2314 21.3686 56.284 21.3863 56.3382C21.5035 56.6989 21.5035 56.6989 21.5035 56.7744C21.1343 56.7744 20.765 56.7744 20.3846 56.7744C20.3144 56.5743 20.2445 56.3741 20.1748 56.1738C20.1548 56.1168 20.1348 56.0598 20.1142 56.0011C20.0953 55.9466 20.0763 55.8921 20.0568 55.8359C20.0392 55.7856 20.0217 55.7352 20.0036 55.6834C19.965 55.5562 19.965 55.5562 19.965 55.4208C19.365 55.4208 18.765 55.4208 18.1469 55.4208C18.1021 55.5939 18.0574 55.767 18.0114 55.9453C17.94 56.2217 17.8686 56.4981 17.7972 56.7744C17.428 56.7744 17.0588 56.7744 16.6783 56.7744C16.8442 56.1735 17.0259 55.5777 17.2121 54.9825C17.243 54.8835 17.2739 54.7846 17.3048 54.6857C17.369 54.4801 17.4333 54.2745 17.4977 54.069C17.5803 53.8051 17.6626 53.5412 17.7448 53.2772C17.8082 53.0737 17.8719 52.8703 17.9356 52.6669C17.966 52.5695 17.9964 52.472 18.0267 52.3746C18.0688 52.2393 18.1112 52.1041 18.1537 51.9689C18.1778 51.8919 18.2018 51.8149 18.2266 51.7357C18.3093 51.4979 18.3093 51.4979 18.493 51.4876ZM18.986 52.3751C18.9059 52.6496 18.8262 52.9241 18.747 53.1988C18.72 53.2922 18.6929 53.3856 18.6656 53.4789C18.6264 53.6132 18.5876 53.7476 18.549 53.8821C18.5255 53.9629 18.5021 54.0437 18.4779 54.127C18.4159 54.3457 18.4159 54.3457 18.4266 54.6086C18.842 54.6086 19.2574 54.6086 19.6853 54.6086C19.5916 54.1271 19.4751 53.6583 19.3357 53.1873C19.3175 53.1237 19.2993 53.0601 19.2805 52.9946C19.2626 52.9339 19.2448 52.8733 19.2264 52.8108C19.2025 52.729 19.2025 52.729 19.1781 52.6456C19.1319 52.4976 19.1319 52.4976 18.986 52.3751Z" fill="#E4E4E4"/>
<path d="M43.7413 51.4953C44.2028 51.4953 44.6643 51.4953 45.1399 51.4953C45.3568 52.0032 45.5417 52.5154 45.7149 53.0387C45.7419 53.12 45.769 53.2012 45.7968 53.2849C45.8537 53.4559 45.9104 53.6268 45.967 53.7979C46.0387 54.0147 46.1109 54.2314 46.1832 54.4481C46.2532 54.6579 46.3227 54.8678 46.3923 55.0776C46.4179 55.1542 46.4435 55.2308 46.4698 55.3097C46.6296 55.7942 46.7654 56.2799 46.8881 56.7744C46.5189 56.7744 46.1497 56.7744 45.7692 56.7744C45.6308 56.3501 45.4923 55.9257 45.3497 55.4885C44.4497 55.455 44.4497 55.455 43.5315 55.4208C43.4853 55.6442 43.4392 55.8675 43.3916 56.0976C43.3282 56.3258 43.2551 56.5489 43.1818 56.7744C42.8357 56.7744 42.4895 56.7744 42.1329 56.7744C42.1837 56.4303 42.2412 56.1474 42.3444 55.8203C42.3587 55.7749 42.3729 55.7295 42.3875 55.6828C42.4341 55.5343 42.4813 55.3859 42.5284 55.2376C42.5611 55.1339 42.5938 55.0302 42.6264 54.9265C42.6946 54.71 42.763 54.4935 42.8317 54.2771C42.9197 53.9995 43.0073 53.7217 43.0948 53.4439C43.1621 53.2301 43.2296 53.0164 43.2971 52.8027C43.3295 52.7003 43.3618 52.5978 43.3941 52.4953C43.4392 52.3526 43.4844 52.2099 43.5297 52.0672C43.5554 51.9859 43.5811 51.9047 43.6076 51.821C43.6713 51.6306 43.6713 51.6306 43.7413 51.4953ZM44.4406 52.4428C44.2713 52.8615 44.1345 53.2836 44.0079 53.7161C43.9793 53.8115 43.9793 53.8115 43.9501 53.9089C43.9321 53.97 43.9141 54.031 43.8956 54.0939C43.8794 54.1489 43.8631 54.2039 43.8464 54.2606C43.8032 54.4137 43.8032 54.4137 43.8112 54.6086C44.2497 54.6086 44.6881 54.6086 45.1399 54.6086C44.9322 53.8939 44.7245 53.1792 44.5105 52.4428C44.4874 52.4428 44.4643 52.4428 44.4406 52.4428Z" fill="#E4E4E4"/>
<path d="M92.6224 51.4953C93.107 51.4953 93.5916 51.4953 94.0909 51.4953C94.3149 52.1727 94.5389 52.8502 94.7629 53.5277C94.7872 53.6012 94.8115 53.6748 94.8366 53.7506C94.8859 53.8997 94.9351 54.0488 94.9844 54.1979C95.1126 54.5863 95.2415 54.9744 95.3718 55.3621C95.3978 55.4398 95.4238 55.5175 95.4505 55.5975C95.5003 55.7462 95.5503 55.8948 95.6005 56.0434C95.6227 56.1098 95.6449 56.1762 95.6678 56.2446C95.6874 56.303 95.7071 56.3614 95.7273 56.4216C95.7692 56.5714 95.7692 56.5714 95.7692 56.7744C95.4231 56.7744 95.0769 56.7744 94.7203 56.7744C94.511 56.3018 94.409 55.945 94.3007 55.4208C93.6776 55.4208 93.0546 55.4208 92.4126 55.4208C92.3895 55.5772 92.3664 55.7335 92.3427 55.8946C92.2582 56.1909 92.1597 56.4815 92.0629 56.7744C91.7168 56.7744 91.3706 56.7744 91.014 56.7744C91.1119 56.2519 91.2534 55.7545 91.4177 55.2482C91.4433 55.1686 91.4688 55.089 91.4951 55.007C91.5762 54.7543 91.6579 54.5017 91.7395 54.2491C91.7938 54.0803 91.8481 53.9115 91.9023 53.7426C92.0027 53.4304 92.1032 53.1181 92.204 52.806C92.3448 52.3695 92.4837 51.9324 92.6224 51.4953ZM93.3217 52.3751C93.2427 52.6331 93.1641 52.8911 93.0857 53.1492C93.0635 53.2216 93.0413 53.294 93.0185 53.3685C92.9968 53.4399 92.9752 53.5112 92.9529 53.5847C92.9331 53.6495 92.9134 53.7144 92.893 53.7812C92.8168 54.0547 92.7558 54.3321 92.6923 54.6086C93.1308 54.6086 93.5692 54.6086 94.021 54.6086C93.9442 54.3231 93.8673 54.0376 93.7896 53.7523C93.7633 53.6552 93.7371 53.5581 93.7111 53.461C93.6736 53.3213 93.6357 53.1817 93.5976 53.0422C93.5749 52.9582 93.5522 52.8742 93.5288 52.7876C93.47 52.5697 93.47 52.5697 93.3217 52.3751Z" fill="#E4E4E4"/>
<path d="M65.2098 51.4953C66.2713 51.4953 67.3329 51.4953 68.4266 51.4953C68.4266 51.7633 68.4266 52.0313 68.4266 52.3074C67.7112 52.3074 66.9958 52.3074 66.2587 52.3074C66.2587 52.7765 66.2587 53.2455 66.2587 53.7288C66.928 53.7288 67.5972 53.7288 68.2867 53.7288C68.2867 53.9744 68.2867 54.2201 68.2867 54.4733C67.6175 54.4733 66.9483 54.4733 66.2587 54.4733C66.2587 54.9646 66.2587 55.456 66.2587 55.9623C66.9741 55.9623 67.6895 55.9623 68.4266 55.9623C68.4266 56.2303 68.4266 56.4983 68.4266 56.7744C67.365 56.7744 66.3035 56.7744 65.2098 56.7744C65.2098 55.0323 65.2098 53.2902 65.2098 51.4953Z" fill="#E4E4E4"/>
<path d="M56.6783 51.4953C57.7399 51.4953 58.8014 51.4953 59.8951 51.4953C59.8951 51.7633 59.8951 52.0313 59.8951 52.3074C59.1797 52.3074 58.4643 52.3074 57.7273 52.3074C57.7273 52.7765 57.7273 53.2455 57.7273 53.7288C58.3965 53.7288 59.0657 53.7288 59.7553 53.7288C59.7553 53.9744 59.7553 54.2201 59.7553 54.4733C59.086 54.4733 58.4168 54.4733 57.7273 54.4733C57.7273 54.9646 57.7273 55.456 57.7273 55.9623C58.4427 55.9623 59.1581 55.9623 59.8951 55.9623C59.8951 56.2303 59.8951 56.4983 59.8951 56.7744C58.8336 56.7744 57.772 56.7744 56.6783 56.7744C56.6783 55.0323 56.6783 53.2902 56.6783 51.4953Z" fill="#E4E4E4"/>
<path d="M41.1274 51.8596C41.4578 52.207 41.5734 52.5923 41.5734 53.0519C41.2504 53.0519 40.9273 53.0519 40.5944 53.0519C40.5569 52.9556 40.5194 52.8593 40.4808 52.7601C40.3769 52.5357 40.3279 52.4522 40.118 52.3032C39.7626 52.202 39.5045 52.2138 39.1477 52.3074C38.8459 52.4838 38.7329 52.6642 38.6364 52.9843C38.6011 53.3166 38.5961 53.6447 38.5999 53.9785C38.6014 54.1345 38.5999 54.2903 38.5981 54.4463C38.5971 54.9602 38.5994 55.3926 38.9161 55.8269C39.2553 56.0436 39.5521 56.0589 39.9437 56.0054C40.194 55.9384 40.306 55.826 40.4546 55.6238C40.5007 55.4898 40.5469 55.3558 40.5944 55.2178C40.9175 55.2178 41.2406 55.2178 41.5734 55.2178C41.5464 55.7758 41.4046 56.1321 40.9878 56.5249C40.4035 56.8884 39.7936 56.9681 39.1029 56.8802C38.5896 56.7703 38.1974 56.6264 37.8868 56.2055C37.5864 55.7392 37.5062 55.4034 37.5008 54.8556C37.5003 54.8005 37.4997 54.7454 37.4991 54.6886C37.4982 54.572 37.4974 54.4553 37.4969 54.3387C37.496 54.2204 37.4946 54.1022 37.4925 53.9839C37.4792 53.2241 37.4915 52.6303 37.9292 51.9743C38.7603 51.1832 40.2421 51.1287 41.1274 51.8596Z" fill="#E4E4E4"/>
<path d="M72.8322 51.766C73.1314 52.013 73.3018 52.3468 73.3916 52.7135C73.3916 52.8252 73.3916 52.9369 73.3916 53.0519C73.0685 53.0519 72.7455 53.0519 72.4126 53.0519C72.3751 52.9556 72.3376 52.8593 72.299 52.7601C72.1951 52.5357 72.1461 52.4522 71.9362 52.3032C71.4992 52.1788 71.1947 52.2287 70.79 52.405C70.5307 52.6227 70.4613 52.9233 70.4263 53.2407C70.4245 53.3321 70.4238 53.4235 70.4242 53.5149C70.4237 53.5886 70.4237 53.5886 70.4231 53.6637C70.4227 53.767 70.4228 53.8702 70.4234 53.9734C70.424 54.13 70.422 54.2864 70.4197 54.443C70.4172 54.9583 70.4158 55.3915 70.7343 55.8269C71.0734 56.0436 71.3703 56.0589 71.7619 56.0054C72.0122 55.9384 72.1242 55.826 72.2727 55.6239C72.3189 55.4898 72.365 55.3558 72.4126 55.2178C72.7357 55.2178 73.0587 55.2178 73.3916 55.2178C73.3646 55.7758 73.2227 56.1321 72.806 56.5249C72.1687 56.9213 71.4603 56.988 70.7168 56.8506C70.2096 56.7056 69.8123 56.4076 69.535 55.971C69.2679 55.4421 69.2933 54.8834 69.2992 54.3081C69.3007 54.1352 69.2992 53.9625 69.2974 53.7896C69.2963 53.1139 69.3187 52.531 69.7727 51.9817C70.6743 51.2876 71.8314 51.0961 72.8322 51.766Z" fill="#E4E4E4"/>
<path d="M90.0265 51.8794C90.376 52.247 90.4546 52.5488 90.4546 53.0519C90.1315 53.0519 89.8084 53.0519 89.4755 53.0519C89.438 52.9556 89.4005 52.8593 89.3619 52.7601C89.258 52.5357 89.209 52.4522 88.9991 52.3032C88.6437 52.202 88.3856 52.2138 88.0289 52.3074C87.727 52.4838 87.614 52.6642 87.5175 52.9843C87.4822 53.3166 87.4772 53.6447 87.481 53.9785C87.4825 54.1345 87.481 54.2903 87.4793 54.4463C87.4782 54.9602 87.4805 55.3926 87.7972 55.8269C88.1364 56.0436 88.4333 56.0589 88.8249 56.0054C89.0751 55.9384 89.1872 55.826 89.3357 55.6239C89.3818 55.4898 89.428 55.3558 89.4755 55.2178C89.7986 55.2178 90.1217 55.2178 90.4546 55.2178C90.4186 55.7839 90.3064 56.137 89.8689 56.5249C89.4116 56.9077 88.7926 56.9035 88.2168 56.9098C87.6451 56.8654 87.1871 56.6176 86.7963 56.2161C86.3432 55.642 86.3636 54.9962 86.3674 54.3071C86.368 54.1441 86.366 53.9813 86.3638 53.8184C86.3604 53.1137 86.3961 52.4599 86.9012 51.9056C87.747 51.1747 89.1742 51.1437 90.0265 51.8794Z" fill="#E4E4E4"/>
<path d="M35.3778 43.9598C35.8597 44.3393 36.0864 44.7484 36.1888 45.3362C36.2039 45.631 36.2048 45.9258 36.2056 46.221C36.2063 46.3625 36.2085 46.504 36.2107 46.6456C36.2165 47.355 36.157 47.9692 35.6807 48.5339C35.229 48.9761 34.7016 49.1303 34.0691 49.1475C33.3824 49.1331 32.9095 49.0008 32.4066 48.5347C31.8995 47.9557 31.9082 47.2857 31.9063 46.5645C31.9056 46.4126 31.9034 46.2607 31.9012 46.1087C31.8948 45.2863 31.9672 44.6687 32.5825 44.0598C33.3219 43.4638 34.5895 43.4313 35.3778 43.9598ZM32.8803 44.6002C32.5397 45.1617 32.5196 45.7482 32.5262 46.3853C32.5254 46.4637 32.5246 46.5421 32.5238 46.623C32.5257 47.1816 32.5541 47.7266 32.9283 48.1746C33.4193 48.5479 33.8227 48.643 34.4406 48.5849C34.8321 48.4735 35.1465 48.2559 35.3497 47.9081C35.5592 47.414 35.5899 46.9435 35.5813 46.4149C35.5815 46.3456 35.5817 46.2762 35.582 46.2048C35.5777 45.6088 35.5423 45.0677 35.1399 44.5917C34.7255 44.2033 34.3953 44.1617 33.8325 44.1666C33.4287 44.1998 33.1742 44.3387 32.8803 44.6002Z" fill="#E4E4E4"/>
<path d="M37.6573 43.7118C40.2746 43.7118 40.2746 43.7118 40.9886 44.3567C41.6009 45.0846 41.4909 46.2176 41.4336 47.0959C41.3532 47.7387 41.1141 48.1497 40.6469 48.6019C39.7116 49.1779 38.7738 49.0587 37.6573 49.0587C37.6573 47.2942 37.6573 45.5298 37.6573 43.7118ZM38.2867 44.2533C38.2867 45.6604 38.2867 47.0675 38.2867 48.5173C39.3217 48.5367 39.3217 48.5367 40.2317 48.2085C40.747 47.6527 40.7891 47.0737 40.778 46.3514C40.7793 46.2633 40.7807 46.1752 40.7821 46.0844C40.7793 45.547 40.7252 45.0991 40.3846 44.6594C39.7291 44.1316 39.1982 44.2533 38.2867 44.2533Z" fill="#E4E4E4"/>
<path d="M50.0503 43.9495C50.369 44.1982 50.5498 44.4136 50.6643 44.7947C50.6775 45.0274 50.6775 45.0274 50.6643 45.2008C50.4567 45.2008 50.249 45.2008 50.035 45.2008C50.0061 45.1171 49.9773 45.0333 49.9476 44.947C49.829 44.6434 49.698 44.4603 49.3895 44.3154C48.9578 44.177 48.4618 44.1978 48.0332 44.3337C47.8393 44.4769 47.75 44.5757 47.6574 44.7947C47.6228 45.0623 47.619 45.2085 47.7666 45.4398C47.9739 45.6431 48.1834 45.7222 48.4572 45.81C48.5575 45.8444 48.6579 45.8789 48.7582 45.9133C48.8575 45.9466 48.9567 45.9798 49.056 46.013C50.2859 46.4371 50.2859 46.4371 50.59 46.8929C50.7529 47.343 50.7548 47.9125 50.5507 48.348C50.286 48.7706 49.9533 48.9687 49.469 49.0923C48.7211 49.2178 48.0264 49.1478 47.3558 48.8049C47.07 48.5733 46.8665 48.3191 46.7483 47.9758C46.7455 47.8179 46.7452 47.6599 46.7483 47.502C46.956 47.502 47.1636 47.502 47.3776 47.502C47.405 47.5969 47.4324 47.6919 47.4607 47.7897C47.5606 48.079 47.6595 48.222 47.9371 48.3819C48.3804 48.585 48.9013 48.599 49.372 48.4683C49.5926 48.3705 49.7335 48.2702 49.8951 48.0942C50.0149 47.7755 50.0149 47.4993 49.8951 47.1805C49.5164 46.7682 48.8432 46.6329 48.3162 46.4687C47.8274 46.3101 47.4076 46.1358 47.0657 45.7523C46.8662 45.3573 46.8964 44.952 46.958 44.524C47.1221 44.1365 47.4097 43.9288 47.7953 43.7586C48.5102 43.5226 49.4148 43.5304 50.0503 43.9495Z" fill="#E4E4E4"/>
<path d="M51.993 43.7118C52.2007 43.7118 52.4084 43.7118 52.6224 43.7118C52.6455 44.5829 52.6685 45.454 52.6923 46.3514C53.273 45.6758 53.8411 44.9955 54.3887 44.2945C54.4385 44.2316 54.4385 44.2316 54.4893 44.1674C54.5701 44.0635 54.6469 43.9567 54.723 43.8496C54.8601 43.7118 54.8601 43.7118 55.0404 43.6788C55.1329 43.6847 55.1329 43.6847 55.2273 43.6907C55.2897 43.6937 55.352 43.6968 55.4163 43.6999C55.4636 43.7039 55.5108 43.7078 55.5594 43.7118C55.5179 43.9231 55.4531 44.0483 55.3109 44.2126C55.274 44.2557 55.2371 44.2989 55.199 44.3434C55.1593 44.389 55.1196 44.4347 55.0787 44.4817C54.9964 44.5786 54.9142 44.6754 54.832 44.7723C54.7087 44.9165 54.585 45.0603 54.4599 45.2031C54.349 45.3299 54.2396 45.4577 54.1303 45.5858C54.096 45.6239 54.0617 45.662 54.0263 45.7013C53.9206 45.8207 53.9206 45.8207 53.8112 46.013C53.863 46.3371 54.1394 46.6262 54.3357 46.8887C54.4117 46.9909 54.4878 47.0931 54.5638 47.1953C54.6018 47.2465 54.6399 47.2976 54.6791 47.3503C54.7836 47.493 54.8843 47.6374 54.9839 47.7833C55.014 47.8266 55.0441 47.8699 55.0751 47.9145C55.1313 47.9954 55.1864 48.0769 55.2404 48.1591C55.452 48.4591 55.6257 48.5187 55.979 48.5849C55.979 48.7413 55.979 48.8976 55.979 49.0587C55.8597 49.068 55.7402 49.0745 55.6206 49.0799C55.5541 49.0838 55.4876 49.0877 55.419 49.0918C55.0484 49.0332 54.8716 48.8262 54.6568 48.5467C54.5081 48.3375 54.3644 48.1257 54.222 47.9123C54.1729 47.8398 54.1238 47.7673 54.0732 47.6925C53.9794 47.5539 53.8858 47.4152 53.7926 47.2763C53.6605 47.0798 53.5266 46.8845 53.3916 46.6898C53.0496 46.8356 52.8578 47.0436 52.6923 47.3667C52.6342 47.6606 52.6304 47.9479 52.6311 48.2465C52.6297 48.3248 52.6282 48.403 52.6268 48.4837C52.6235 48.6754 52.6221 48.867 52.6224 49.0587C52.4147 49.0587 52.207 49.0587 51.993 49.0587C51.993 47.2942 51.993 45.5298 51.993 43.7118Z" fill="#E4E4E4"/>
<path d="M74.021 51.4953C75.3595 51.4953 76.6979 51.4953 78.0769 51.4953C78.0769 51.7633 78.0769 52.0313 78.0769 52.3074C77.5923 52.3074 77.1077 52.3074 76.6084 52.3074C76.6084 53.7815 76.6084 55.2557 76.6084 56.7744C76.2623 56.7744 75.9161 56.7744 75.5594 56.7744C75.5594 55.3003 75.5594 53.8262 75.5594 52.3074C75.0518 52.3074 74.5441 52.3074 74.021 52.3074C74.021 52.0394 74.021 51.7714 74.021 51.4953Z" fill="#E4E4E4"/>
<path d="M18.5664 43.7118C18.8664 43.7118 19.1664 43.7118 19.4755 43.7118C19.5008 43.7835 19.5261 43.8552 19.5521 43.929C19.6284 44.1455 19.7048 44.3621 19.7812 44.5786C19.8693 44.8284 19.9574 45.0783 20.0454 45.3282C20.2644 45.9497 20.4842 46.5709 20.7064 47.1914C20.7643 47.3533 20.8221 47.5152 20.8799 47.6771C20.9168 47.7802 20.9538 47.8832 20.9909 47.9861C21.0424 48.1291 21.0935 48.2721 21.1446 48.4152C21.1735 48.4957 21.2024 48.5762 21.2322 48.6592C21.2937 48.8557 21.2937 48.8557 21.2937 49.0587C21.0629 49.0587 20.8322 49.0587 20.5944 49.0587C20.5124 48.8262 20.4309 48.5935 20.3497 48.3607C20.3263 48.2946 20.303 48.2286 20.2789 48.1605C20.2458 48.0653 20.2458 48.0653 20.212 47.9681C20.1915 47.9096 20.171 47.8512 20.1498 47.7909C20.1049 47.6374 20.1049 47.6374 20.1049 47.4343C19.4126 47.4343 18.7203 47.4343 18.007 47.4343C17.9378 47.68 17.8685 47.9257 17.7972 48.1788C17.7472 48.3413 17.6964 48.5035 17.6442 48.6653C17.6202 48.7403 17.5961 48.8152 17.5713 48.8924C17.5535 48.9473 17.5358 49.0022 17.5175 49.0587C17.2867 49.0587 17.056 49.0587 16.8182 49.0587C17.0009 48.2762 17.2694 47.5251 17.535 46.766C17.6258 46.5054 17.7165 46.2447 17.807 45.9839C17.8293 45.92 17.8515 45.8562 17.8743 45.7903C18.1134 45.1001 18.3406 44.4062 18.5664 43.7118ZM18.986 44.321C18.8761 44.6545 18.7665 44.9881 18.6574 45.3219C18.6202 45.4355 18.5829 45.549 18.5454 45.6624C18.4917 45.8255 18.4383 45.9886 18.3851 46.1518C18.3598 46.228 18.3598 46.228 18.3341 46.3057C18.2681 46.5088 18.2168 46.6786 18.2168 46.8929C18.7706 46.8929 19.3245 46.8929 19.8951 46.8929C19.7884 46.5591 19.6816 46.2255 19.5741 45.892C19.5377 45.7785 19.5013 45.665 19.4651 45.5514C19.413 45.3882 19.3604 45.2251 19.3078 45.062C19.2917 45.0113 19.2756 44.9605 19.259 44.9082C19.1875 44.688 19.1192 44.5144 18.986 44.321Z" fill="#E4E4E4"/>
<path d="M22.2028 43.7118C22.4105 43.7118 22.6182 43.7118 22.8322 43.7118C22.8326 43.7608 22.833 43.8098 22.8334 43.8602C22.8375 44.3233 22.8425 44.7863 22.8487 45.2492C22.8518 45.4872 22.8545 45.7252 22.8564 45.9632C22.8586 46.2373 22.8624 46.5113 22.8663 46.7853C22.8668 46.8702 22.8672 46.9551 22.8677 47.0426C22.8751 47.4702 22.8878 47.8051 23.1119 48.1788C23.4674 48.5057 23.767 48.5411 24.2409 48.5363C24.7192 48.4907 25.0354 48.2491 25.3497 47.9081C25.3727 47.8858 25.3958 47.8634 25.4196 47.8404C25.4282 47.7117 25.432 47.5827 25.4339 47.4538C25.4353 47.3711 25.4367 47.2885 25.4382 47.2033C25.4394 47.1124 25.4405 47.0216 25.4417 46.9307C25.4432 46.8382 25.4446 46.7458 25.4461 46.6533C25.45 46.4095 25.4534 46.1657 25.4568 45.9219C25.4603 45.6733 25.4642 45.4247 25.4681 45.1761C25.4756 44.688 25.4827 44.1999 25.4895 43.7118C25.6972 43.7118 25.9049 43.7118 26.1189 43.7118C26.1189 45.4763 26.1189 47.2408 26.1189 49.0587C25.9343 49.0587 25.7497 49.0587 25.5595 49.0587C25.5248 48.7907 25.5248 48.7907 25.4895 48.5173C25.4289 48.5689 25.3684 48.6206 25.306 48.6738C24.7693 49.1052 24.2095 49.1758 23.5315 49.1264C23.1069 49.0461 22.8336 48.913 22.5525 48.5849C22.494 48.52 22.494 48.52 22.4345 48.4538C22.2305 48.1436 22.1854 47.8387 22.1869 47.4768C22.1869 47.3928 22.187 47.3088 22.187 47.2223C22.1877 47.1317 22.1884 47.0411 22.1891 46.9505C22.1894 46.857 22.1896 46.7635 22.1897 46.67C22.1903 46.425 22.1917 46.18 22.1932 45.935C22.1946 45.6846 22.1953 45.4341 22.196 45.1837C22.1975 44.693 22.1999 44.2024 22.2028 43.7118Z" fill="#E4E4E4"/>
<path d="M27.3077 51.4953C28.6462 51.4953 29.9846 51.4953 31.3636 51.4953C31.3636 51.7633 31.3636 52.0313 31.3636 52.3074C30.856 52.3074 30.3483 52.3074 29.8252 52.3074C29.8252 53.7815 29.8252 55.2557 29.8252 56.7744C29.5021 56.7744 29.179 56.7744 28.8462 56.7744C28.8462 55.3003 28.8462 53.8262 28.8462 52.3074C28.3385 52.3074 27.8308 52.3074 27.3077 52.3074C27.3077 52.0394 27.3077 51.7714 27.3077 51.4953Z" fill="#E4E4E4"/>
<path d="M42.8322 43.7118C43.8245 43.7118 44.8168 43.7118 45.8392 43.7118C45.8392 43.8905 45.8392 44.0692 45.8392 44.2533C45.0546 44.2533 44.2699 44.2533 43.4615 44.2533C43.4615 44.834 43.4615 45.4147 43.4615 46.013C44.1769 46.013 44.8923 46.013 45.6294 46.013C45.6294 46.1917 45.6294 46.3704 45.6294 46.5545C44.914 46.5545 44.1986 46.5545 43.4615 46.5545C43.4615 47.2022 43.4615 47.8499 43.4615 48.5173C44.2462 48.5173 45.0308 48.5173 45.8392 48.5173C45.8392 48.6959 45.8392 48.8746 45.8392 49.0587C44.8469 49.0587 43.8546 49.0587 42.8322 49.0587C42.8322 47.2942 42.8322 45.5298 42.8322 43.7118Z" fill="#E4E4E4"/>
<path d="M96.7483 51.4953C97.0713 51.4953 97.3944 51.4953 97.7273 51.4953C97.7273 52.9694 97.7273 54.4435 97.7273 55.9623C98.4657 55.9623 99.2042 55.9623 99.965 55.9623C99.965 56.2303 99.965 56.4983 99.965 56.7744C98.9035 56.7744 97.842 56.7744 96.7483 56.7744C96.7483 55.0323 96.7483 53.2902 96.7483 51.4953Z" fill="#E4E4E4"/>
<path d="M61.0839 51.4953C61.407 51.4953 61.7301 51.4953 62.0629 51.4953C62.0629 52.9694 62.0629 54.4435 62.0629 55.9623C62.8014 55.9623 63.5399 55.9623 64.3007 55.9623C64.3007 56.2303 64.3007 56.4983 64.3007 56.7744C63.2392 56.7744 62.1776 56.7744 61.0839 56.7744C61.0839 55.0323 61.0839 53.2902 61.0839 51.4953Z" fill="#E4E4E4"/>
<path d="M84.1608 51.4953C84.507 51.4953 84.8531 51.4953 85.2098 51.4953C85.2098 53.2374 85.2098 54.9795 85.2098 56.7744C84.8636 56.7744 84.5175 56.7744 84.1608 56.7744C84.1608 55.0323 84.1608 53.2902 84.1608 51.4953Z" fill="#E4E4E4"/>
<path d="M27.3077 43.7118C28.5769 43.7118 29.8462 43.7118 31.1539 43.7118C31.1539 43.8905 31.1539 44.0692 31.1539 44.2533C30.6231 44.2533 30.0923 44.2533 29.5455 44.2533C29.5455 45.8391 29.5455 47.4249 29.5455 49.0587C29.3378 49.0587 29.1301 49.0587 28.9161 49.0587C28.9161 47.4729 28.9161 45.8871 28.9161 44.2533C28.3853 44.2533 27.8546 44.2533 27.3077 44.2533C27.3077 44.0746 27.3077 43.8959 27.3077 43.7118Z" fill="#E4E4E4"/>
<path d="M53.3916 51.5629C53.5664 51.6602 53.5664 51.6602 53.6713 51.8337C53.7096 52.0656 53.712 52.2787 53.6713 52.5105C53.5395 52.6849 53.448 52.7539 53.2518 52.8489C52.723 52.8773 52.723 52.8773 52.4825 52.7135C52.2855 52.4275 52.2954 52.1697 52.3427 51.8337C52.6146 51.4615 52.9593 51.4585 53.3916 51.5629ZM52.7622 51.6983C52.7622 51.7206 52.7622 51.743 52.7622 51.766C52.9238 51.8107 53.0853 51.8553 53.2518 51.9013C53.2287 52.0354 53.2056 52.1694 53.1818 52.3074C53.2741 52.3744 53.3664 52.4414 53.4615 52.5105C53.5609 52.3182 53.5535 52.1819 53.5315 51.969C53.431 51.7985 53.431 51.7985 53.2518 51.6983C52.9953 51.6757 52.9953 51.6757 52.7622 51.6983ZM52.6224 51.766C52.4837 51.9634 52.4834 52.0451 52.5087 52.2905C52.5232 52.3631 52.5376 52.4357 52.5525 52.5105C52.6217 52.5328 52.6909 52.5552 52.7622 52.5782C52.7622 52.3101 52.7622 52.0421 52.7622 51.766C52.7161 51.766 52.6699 51.766 52.6224 51.766ZM52.9021 51.9013C52.9021 51.9684 52.9021 52.0354 52.9021 52.1044C52.9713 52.1044 53.0406 52.1044 53.1119 52.1044C53.0888 52.0374 53.0657 51.9704 53.042 51.9013C52.9958 51.9013 52.9497 51.9013 52.9021 51.9013ZM52.9021 52.3074C52.9021 52.3968 52.9021 52.4861 52.9021 52.5782C52.8329 52.6117 52.8329 52.6117 52.7622 52.6458C52.9268 52.6924 52.9268 52.6924 53.1119 52.7135C53.1811 52.6689 53.2504 52.6242 53.3217 52.5782C53.2315 52.4851 53.138 52.3949 53.042 52.3074C52.9958 52.3074 52.9497 52.3074 52.9021 52.3074Z" fill="#E4E4E4"/>
<path d="M57.028 43.7795C57.2421 43.8684 57.2421 43.8684 57.3776 44.0502C57.4264 44.3072 57.4264 44.5378 57.3776 44.7947C57.2264 44.9978 57.1287 45.0475 56.8769 45.0924C56.5858 45.1122 56.4347 45.0876 56.1844 44.9343C56.0021 44.6554 55.9763 44.4395 56.049 44.1179C56.2974 43.7378 56.5972 43.7026 57.028 43.7795ZM56.2588 44.1179C56.2192 44.3276 56.2192 44.5174 56.2588 44.7271C56.4109 44.9139 56.5067 44.9256 56.7483 44.9597C56.9613 44.9443 56.9613 44.9443 57.1241 44.8244C57.2814 44.5961 57.2775 44.4546 57.2378 44.1856C57.1343 44.0121 57.1343 44.0121 56.958 43.9149C56.6615 43.873 56.4503 43.8827 56.2588 44.1179Z" fill="#E4E4E4"/>
<path d="M56.4685 44.0502C56.6317 44.0474 56.7949 44.0475 56.958 44.0502C57.0911 44.1791 57.028 44.4191 57.028 44.5917C57.0511 44.6587 57.0741 44.7257 57.0979 44.7947C56.8269 44.7355 56.8269 44.7355 56.7483 44.6594C56.7252 44.7041 56.7021 44.7487 56.6783 44.7947C56.6091 44.7947 56.5399 44.7947 56.4685 44.7947C56.4685 44.5491 56.4685 44.3034 56.4685 44.0502ZM56.6783 44.1856C56.6783 44.2526 56.6783 44.3196 56.6783 44.3887C56.7476 44.3663 56.8168 44.344 56.8881 44.321C56.865 44.2763 56.842 44.2316 56.8182 44.1856C56.772 44.1856 56.7259 44.1856 56.6783 44.1856Z" fill="#E4E4E4"/>
</svg>
