<svg width="101" height="101" viewBox="0 0 101 101" fill="none" xmlns="http://www.w3.org/2000/svg">
<g clip-path="url(#clip0_2377_8876)">
<path d="M18.4695 25.6907C18.7645 25.6901 19.0592 25.685 19.3542 25.6797C21.9606 25.658 24.4497 26.3814 26.372 28.228C28.3874 30.2619 29.1201 32.8427 29.1897 35.6544C29.1663 37.6431 28.9734 42.7375 27.4903 44.2352C27.2392 44.2487 26.9877 44.2523 26.7363 44.2521C26.5727 44.2523 26.4091 44.2525 26.2405 44.2527C26.0594 44.2522 25.8783 44.2516 25.6917 44.2511C25.5003 44.2511 25.3089 44.2511 25.1176 44.2512C24.5965 44.2512 24.0755 44.2504 23.5544 44.2494C23.0104 44.2486 22.4665 44.2485 21.9225 44.2483C20.8917 44.2479 19.861 44.2467 18.8302 44.2453C17.657 44.2437 16.4838 44.243 15.3106 44.2423C12.8966 44.2408 10.4826 44.2383 8.06859 44.2352C8.0462 44.4135 8.02382 44.5918 8.00076 44.7755C7.98187 44.926 7.98187 44.926 7.9626 45.0794C7.77452 46.668 7.80376 48.2275 8.69394 49.6015C9.51451 50.6538 10.5645 50.9962 11.8413 51.1962C14.7681 51.5255 17.5868 50.6816 19.8947 48.8533C20.0545 48.7242 20.213 48.5935 20.37 48.461C20.5621 48.3029 20.7655 48.159 20.9701 48.0178C21.5182 48.2023 21.728 48.5577 22.0626 49.0072C22.1975 49.1851 22.3326 49.3627 22.4679 49.5403C22.5751 49.681 22.5751 49.681 22.6844 49.8247C23.1569 50.4354 23.6487 51.0306 24.1396 51.6261C24.2128 51.716 24.286 51.8058 24.3613 51.8983C24.4265 51.9776 24.4916 52.0568 24.5587 52.1384C24.7157 52.3608 24.7157 52.3608 24.8545 52.7811C24.3509 53.1619 23.8413 53.5338 23.3285 53.9018C23.2378 53.9671 23.1471 54.0323 23.0536 54.0996C18.6523 57.2383 13.5966 58.6384 8.21991 57.7402C5.82938 57.2807 3.56858 56.1762 2.14671 54.1382C0.835119 52.181 0.492571 50.1841 0.508 47.8427C0.508337 47.7388 0.508673 47.635 0.50902 47.528C0.544699 41.814 2.71589 35.966 6.40387 31.6266C6.51599 31.493 6.62812 31.3593 6.74364 31.2217C8.94842 28.6563 11.89 26.8788 15.1436 26.0228C15.238 25.9976 15.3324 25.9725 15.4296 25.9466C16.436 25.7088 17.4407 25.6904 18.4695 25.6907ZM11.5367 34.8488C10.176 36.5772 10.176 36.5772 9.59458 38.6314C13.5774 38.6314 17.5602 38.6314 21.6638 38.6314C22.001 36.5878 22.0768 35.0335 20.9528 33.264C19.8403 32.2138 18.5882 31.9977 17.114 32.0179C14.9572 32.1587 12.9599 33.2284 11.5367 34.8488Z" fill="#191919"/>
<path d="M27.875 53.7334C28.1661 53.7327 28.4572 53.7315 28.7483 53.7297C29.5446 53.7266 30.3407 53.7322 31.1371 53.7392C31.9971 53.7453 32.8571 53.7432 33.7172 53.7422C35.2061 53.7414 36.6949 53.7458 38.1838 53.7537C39.7447 53.762 41.3055 53.7674 42.8664 53.7689C43.0121 53.769 43.0121 53.769 43.1609 53.7692C43.6545 53.7697 44.1481 53.7701 44.6417 53.7705C48.1345 53.7734 51.6273 53.7829 55.12 53.7961C58.5124 53.809 61.9047 53.8189 65.297 53.8249C65.4017 53.825 65.5063 53.8252 65.6141 53.8254C66.665 53.8273 67.7159 53.8291 68.7667 53.8308C70.9073 53.8344 73.0479 53.8383 75.1884 53.8425C75.2868 53.8427 75.3853 53.8429 75.4866 53.8431C82.054 53.856 88.6214 53.8783 95.1887 53.9018C95.1887 55.2425 95.1887 56.5833 95.1887 57.9646C91.7095 58.0108 88.2302 58.0571 84.6455 58.1047C84.8744 58.2896 85.1033 58.4745 85.3392 58.6651C85.9187 59.543 85.9754 60.568 85.816 61.5896C85.4963 62.9801 84.783 64.3789 83.5704 65.1532C83.4595 65.2249 83.3487 65.2966 83.2344 65.3705C83.1507 65.4231 83.067 65.4756 82.9808 65.5298C83.0787 65.6037 83.0787 65.6037 83.1786 65.6792C83.911 66.2656 84.3024 66.78 84.4114 67.7281C84.4915 69.6656 83.6611 71.3705 82.4259 72.8147C80.8707 74.1588 79.3544 74.7996 77.3364 74.8198C77.2038 74.8239 77.0712 74.828 76.9346 74.8322C75.7955 74.8424 75.0131 74.5423 74.0676 73.918C73.3145 73.1228 72.9526 72.3272 72.9145 71.2211C72.9825 69.6802 73.54 68.2573 74.5185 67.0708C75.2687 66.3969 76.069 65.8696 77.0156 65.5298C76.9069 65.4517 76.7981 65.3737 76.6861 65.2933C76.322 64.9694 76.322 64.9694 76.0445 64.2689C75.2205 64.2689 74.3964 64.2689 73.5474 64.2689C73.5029 64.5327 73.5029 64.5327 73.4575 64.8019C73.219 66.006 72.841 67.175 72.4896 68.3492C72.4173 68.5925 72.3451 68.8358 72.2729 69.0792C72.0974 69.6708 71.9206 70.2621 71.744 70.8534C70.7826 70.8534 69.8212 70.8534 68.8307 70.8534C68.9252 70.09 69.0182 69.4852 69.2289 68.7665C69.2549 68.677 69.2808 68.5875 69.3076 68.4953C69.3928 68.2026 69.4791 67.9104 69.5656 67.6181C69.626 67.4115 69.6863 67.2048 69.7466 66.9982C69.9052 66.4553 70.0648 65.9127 70.2247 65.3702C70.3533 64.9331 70.4812 64.4958 70.6089 64.0585C70.7638 63.5287 70.9189 62.9991 71.0742 62.4695C71.1029 62.3717 71.1315 62.2739 71.1611 62.1731C71.1891 62.0777 71.2171 61.9822 71.2459 61.8838C71.2702 61.8012 71.2944 61.7185 71.3194 61.6334C71.6818 60.4066 72.0594 59.187 72.4376 57.9646C68.4548 57.9646 64.472 57.9646 60.3684 57.9646C60.1624 58.7968 60.1624 58.7968 59.9522 59.6457C59.9065 59.7382 59.8607 59.8307 59.8135 59.9259C59.2184 59.9259 58.6232 59.9259 58.0101 59.9259C58.0847 59.1972 58.1906 58.6786 58.4263 57.9646C48.08 57.9646 37.7338 57.9646 27.0741 57.9646C27.0283 58.3344 26.9825 58.7043 26.9354 59.0854C26.8564 59.4094 26.7697 59.7316 26.6759 60.0515C26.65 60.141 26.624 60.2305 26.5972 60.3227C26.5121 60.6153 26.4257 60.9076 26.3393 61.1999C26.2789 61.4065 26.2185 61.6131 26.1582 61.8198C25.9996 62.3627 25.84 62.9053 25.6801 63.4478C25.5515 63.8849 25.4237 64.3222 25.2959 64.7595C25.1411 65.2892 24.9859 65.8189 24.8306 66.3484C24.802 66.4463 24.7733 66.5441 24.7438 66.6448C24.331 68.0518 23.904 69.4538 23.4672 70.8534C22.8721 70.8534 22.2769 70.8534 21.6638 70.8534C21.7489 69.7663 22.0615 68.7562 22.3682 67.7149C22.4255 67.5181 22.4828 67.3212 22.5399 67.1244C22.6904 66.6071 22.8418 66.0901 22.9934 65.5732C23.1453 65.055 23.2962 64.5365 23.4472 64.018C23.6764 63.231 23.9063 62.4442 24.1367 61.6575C24.3164 61.0439 24.4954 60.4302 24.6727 59.8159C24.7218 59.6459 24.7218 59.6459 24.7719 59.4724C24.8529 59.1918 24.9335 58.911 25.0142 58.6303C25.1319 58.2448 25.1319 58.2448 25.2707 57.9646C23.119 57.9646 20.9674 57.9646 18.7505 57.9646C18.7505 57.8721 18.7505 57.7797 18.7505 57.6844C18.9522 57.6026 18.9522 57.6026 19.158 57.5191C20.1846 57.0912 21.1628 56.6238 22.106 56.0295C22.188 55.9783 22.2699 55.9272 22.3544 55.8744C22.7855 55.5955 23.1691 55.3229 23.5399 54.9623C24.9009 53.711 26.0929 53.7054 27.875 53.7334ZM75.3509 57.9646C75.011 58.7533 75.011 58.7533 74.7423 59.5522C74.7124 59.6552 74.6824 59.7582 74.6516 59.8644C74.6072 60.0205 74.6072 60.0205 74.5619 60.1799C74.5307 60.2867 74.4995 60.3935 74.4673 60.5036C74.3008 61.0463 74.3008 61.0463 74.2411 61.6071C74.882 61.6071 75.5229 61.6071 76.1832 61.6071C76.3592 61.2603 76.3592 61.2603 76.5387 60.9066C77.2999 59.5139 78.0875 58.7918 79.5127 58.1047C79.5127 58.0585 79.5127 58.0122 79.5127 57.9646C78.1393 57.9646 76.7659 57.9646 75.3509 57.9646ZM79.0965 60.7665C79.0965 60.859 79.0965 60.9514 79.0965 61.0467C79.6256 60.8831 79.6256 60.8831 79.9722 60.4688C80.0037 60.3821 80.0351 60.2954 80.0676 60.2061C79.7203 60.2061 79.3636 60.5714 79.0965 60.7665ZM82.9808 60.4863C82.9076 60.6209 82.9076 60.6209 82.8329 60.7583C81.9255 62.3637 80.9187 63.1372 79.2352 63.8486C78.8288 63.946 78.8288 63.946 78.5416 63.9887C78.8972 64.3642 79.0901 64.5364 79.6178 64.5825C80.7503 64.6077 81.5168 64.5378 82.3858 63.7824C82.9833 63.1599 83.2557 62.4561 83.397 61.6071C83.3639 60.9671 83.3638 60.9671 82.9808 60.4863ZM76.322 68.1916C75.7936 69.0051 75.4278 69.8665 75.4896 70.8534C75.7036 71.5857 75.9654 71.9783 76.5994 72.3944C77.6481 72.7475 78.7637 72.6115 79.7554 72.1493C80.8577 71.5309 81.4598 70.6645 81.8179 69.4398C81.9333 68.8583 81.9452 68.361 81.7063 67.8151C81.3189 67.316 80.9428 66.9918 80.345 66.7906C78.8077 66.6465 77.3531 66.9542 76.322 68.1916Z" fill="#191919"/>
<path d="M55.0968 30.3658C55.2312 30.9084 55.2404 31.0432 55.1057 31.5492C55.0573 31.7351 55.0573 31.7351 55.0078 31.9247C54.9712 32.0596 54.9346 32.1945 54.8969 32.3334C54.8405 32.5477 54.8405 32.5477 54.7829 32.7664C54.6579 33.2393 54.5311 33.7116 54.4043 34.1839C54.3172 34.5119 54.2302 34.8399 54.1434 35.1679C53.9143 36.032 53.6836 36.8956 53.4525 37.7591C53.2176 38.6384 52.9844 39.518 52.7509 40.3976C52.41 41.681 52.0686 42.9642 51.7257 44.247C51.6897 44.3822 51.6536 44.5173 51.6165 44.6566C51.5834 44.7801 51.5504 44.9037 51.5163 45.031C51.4876 45.1383 51.4589 45.2457 51.4293 45.3563C51.3636 45.5917 51.2891 45.8245 51.2125 46.0565C52.2686 46.1042 53.3238 46.1307 54.3809 46.1428C54.7397 46.1494 55.0985 46.1607 55.457 46.177C57.4061 46.336 57.4061 46.336 59.1617 45.665C59.6946 45.0471 60.0318 44.357 60.3472 43.6075C60.6184 43.0092 60.9818 42.472 61.3395 41.9236C61.4786 41.7021 61.6174 41.4803 61.7557 41.2582C62.588 39.9273 63.4204 38.5964 64.2528 37.2655C64.3215 37.1556 64.3902 37.0458 64.4609 36.9326C64.5993 36.7113 64.7377 36.4901 64.8761 36.2688C65.2283 35.7057 65.5804 35.1425 65.9321 34.579C66.5805 33.5406 67.2297 32.5026 67.8857 31.469C67.9376 31.3869 67.9896 31.3047 68.0432 31.2201C68.398 30.6626 68.398 30.6626 68.5533 30.5059C68.7902 30.4936 69.0276 30.4909 69.2648 30.4922C69.48 30.4929 69.48 30.4929 69.6997 30.4935C69.8507 30.4947 70.0017 30.4959 70.1573 30.4971C70.3846 30.498 70.3846 30.498 70.6166 30.499C70.9924 30.5007 71.3682 30.5031 71.744 30.5059C71.9375 31.7044 72.0913 32.9002 72.2057 34.109C72.222 34.2767 72.2383 34.4443 72.2551 34.6171C72.299 35.0705 72.3425 35.524 72.3857 35.9775C72.4313 36.4543 72.4774 36.9311 72.5235 37.4078C72.6005 38.2064 72.6772 39.005 72.7536 39.8036C72.8419 40.7266 72.9307 41.6495 73.0198 42.5723C73.115 43.5579 73.2098 44.5434 73.3045 45.529C73.3317 45.8123 73.359 46.0956 73.3863 46.3788C73.437 46.9053 73.4874 47.4317 73.5377 47.9582C73.5529 48.115 73.568 48.2717 73.5836 48.4332C73.5972 48.5762 73.6108 48.7191 73.6248 48.8664C73.6367 48.9907 73.6487 49.115 73.6609 49.2431C73.6861 49.5589 73.6861 49.5589 73.6861 49.9791C72.267 49.9791 70.8478 49.9791 69.3856 49.9791C69.3399 49.5602 69.2941 49.1412 69.2469 48.7095C69.2324 48.5795 69.2179 48.4495 69.203 48.3155C69.1917 48.2098 69.1805 48.1042 69.1689 47.9954C69.1572 47.889 69.1456 47.7826 69.1337 47.673C69.1018 47.2286 69.1082 46.7822 69.1082 46.3367C67.0939 46.3367 65.0796 46.3367 63.0042 46.3367C62.9127 46.5678 62.8211 46.799 62.7268 47.0371C61.6511 49.6375 61.6511 49.6375 60.5694 50.1453C59.5593 50.3938 58.5298 50.317 57.5001 50.2665C57.1699 50.261 56.8397 50.2568 56.5095 50.2538C55.6451 50.2427 54.7823 50.2138 53.9185 50.1812C53.0352 50.1509 52.1517 50.1376 51.268 50.1228C49.5379 50.0914 47.8089 50.0412 46.0796 49.9791C46.1704 49.2359 46.3241 48.5309 46.5155 47.808C46.5455 47.6927 46.5756 47.5775 46.6065 47.4587C46.706 47.0776 46.8063 46.6967 46.9065 46.3159C46.9774 46.0452 47.0482 45.7745 47.1189 45.5039C47.3062 44.7878 47.4942 44.072 47.6823 43.3561C47.831 42.7898 47.9793 42.2233 48.1275 41.6568C49.1006 37.9374 50.0841 34.2208 51.0738 30.5059C52.4014 30.4596 53.729 30.4134 55.0968 30.3658ZM68.4145 37.3705C68.2095 37.7095 68.0116 38.0504 67.8163 38.395C67.1986 39.4728 66.55 40.5277 65.8842 41.5758C65.8162 41.6833 65.7481 41.7909 65.678 41.9018C65.617 41.9974 65.5561 42.093 65.4934 42.1915C65.3508 42.3909 65.3508 42.3909 65.3626 42.5541C66.5071 42.5541 67.6516 42.5541 68.8307 42.5541C68.8341 41.3035 68.8341 41.3035 68.77 40.0657C68.7575 39.9064 68.745 39.747 68.7321 39.5828C68.7189 39.422 68.7056 39.2612 68.692 39.0955C68.6788 38.9287 68.6655 38.7619 68.6519 38.5901C68.6196 38.1835 68.5867 37.777 68.5533 37.3705C68.5075 37.3705 68.4617 37.3705 68.4145 37.3705Z" fill="#191919"/>
<path d="M80.345 30.5059C81.5353 30.5059 82.7255 30.5059 83.9519 30.5059C84.9267 32.9527 85.8787 35.4069 86.8131 37.8696C86.9405 38.2046 87.0678 38.5397 87.1952 38.8747C87.5016 39.6807 87.8078 40.4869 88.1137 41.2932C88.471 40.2638 88.7556 39.2189 89.0321 38.165C89.1133 37.8552 89.1951 37.5456 89.277 37.236C89.48 36.4685 89.6821 35.7009 89.8841 34.9333C90.0557 34.2811 90.2277 33.6291 90.4003 32.9772C90.4809 32.6718 90.5611 32.3662 90.6412 32.0606C90.6903 31.8749 90.7394 31.6892 90.7886 31.5035C90.8314 31.3409 90.8742 31.1782 90.9183 31.0107C91.0269 30.646 91.0269 30.646 91.1657 30.5059C91.4633 30.4936 91.7614 30.4909 92.0593 30.4922C92.2403 30.4926 92.4214 30.4931 92.6079 30.4935C92.8006 30.4947 92.9932 30.4959 93.1859 30.4971C93.3791 30.4978 93.5722 30.4984 93.7654 30.499C94.2399 30.5007 94.7143 30.503 95.1887 30.5059C95.1016 31.2061 94.9643 31.8767 94.7827 32.5586C94.7558 32.6614 94.7289 32.7643 94.7011 32.8703C94.612 33.2102 94.5221 33.5498 94.4322 33.8895C94.3688 34.1307 94.3054 34.372 94.2421 34.6133C94.073 35.2568 93.9031 35.9003 93.7331 36.5436C93.5932 37.0734 93.4536 37.6034 93.3141 38.1333C92.9067 39.6798 92.4981 41.226 92.0887 42.772C92.0032 43.0949 91.9177 43.4178 91.8323 43.7407C91.565 44.7504 91.2971 45.76 91.0278 46.7691C90.9523 47.0521 90.8769 47.3351 90.8017 47.6181C90.7001 48 90.5978 48.3816 90.4953 48.7632C90.4518 48.9273 90.4518 48.9273 90.4073 49.0948C90.2105 49.8229 90.2105 49.8229 90.0559 49.9791C89.8088 49.9914 89.5613 49.9941 89.314 49.9928C89.1642 49.9924 89.0145 49.9919 88.8602 49.9915C88.7025 49.9903 88.5449 49.9891 88.3825 49.9879C88.2243 49.9873 88.0661 49.9866 87.9032 49.986C87.5109 49.9843 87.1187 49.982 86.7264 49.9791C86.2843 49.1222 85.9221 48.2525 85.5798 47.3507C85.4971 47.135 85.4971 47.135 85.4128 46.9149C85.2375 46.4568 85.0629 45.9983 84.8883 45.5399C84.7733 45.2391 84.6582 44.9384 84.5431 44.6377C83.8317 42.7779 83.1271 40.9155 82.4259 39.0517C81.7123 41.4648 81.0596 43.8908 80.4317 46.3279C80.2607 46.9919 80.089 47.6556 79.9169 48.3193C79.8782 48.4705 79.8395 48.6216 79.7996 48.7773C79.7638 48.9151 79.7281 49.0529 79.6913 49.1949C79.66 49.3164 79.6287 49.4378 79.5965 49.5629C79.5126 49.839 79.5127 49.839 79.3739 49.9791C79.0763 49.9914 78.7782 49.9941 78.4803 49.9928C78.2993 49.9924 78.1182 49.9919 77.9317 49.9915C77.739 49.9903 77.5464 49.9891 77.3537 49.9879C77.1605 49.9872 76.9673 49.9866 76.7742 49.986C76.2997 49.9843 75.8253 49.982 75.3509 49.9791C75.4354 49.1619 75.5892 48.3969 75.8017 47.6045C75.8333 47.4842 75.8649 47.364 75.8975 47.24C76.002 46.8433 76.1075 46.4469 76.213 46.0504C76.2873 45.7692 76.3615 45.488 76.4357 45.2068C76.6318 44.464 76.8288 43.7214 77.026 42.9789C77.2211 42.2432 77.4154 41.5073 77.6098 40.7714C78.5146 37.3477 79.4272 33.9261 80.345 30.5059Z" fill="#191919"/>
<path d="M73.6861 54.0419C74.6632 54.024 75.6403 54.0118 76.6175 54.0034C76.9493 53.9999 77.2811 53.9952 77.6128 53.9891C78.0922 53.9805 78.5715 53.9766 79.051 53.9735C79.1971 53.9699 79.3433 53.9663 79.4939 53.9626C80.6755 53.9621 81.8279 54.2174 82.7413 55.0193C83.397 55.722 83.7931 56.4175 83.8392 57.3955C83.8263 57.6078 83.8263 57.6078 83.8132 57.8245C83.9362 57.8592 84.0592 57.8938 84.186 57.9296C84.8264 58.1736 85.2015 58.4565 85.5819 59.0328C86.0444 60.2939 85.9502 61.5182 85.4318 62.7448C84.9571 63.7365 84.5108 64.5527 83.5704 65.1532C83.4595 65.2249 83.3487 65.2966 83.2344 65.3705C83.1507 65.4231 83.067 65.4756 82.9808 65.5298C83.0461 65.5791 83.1114 65.6284 83.1786 65.6792C83.911 66.2656 84.3024 66.78 84.4114 67.7281C84.4915 69.6656 83.6611 71.3705 82.4259 72.8147C80.8707 74.1588 79.3544 74.7996 77.3364 74.8198C77.2038 74.8239 77.0712 74.828 76.9346 74.8322C75.7955 74.8424 75.0131 74.5423 74.0676 73.918C73.3145 73.1228 72.9526 72.3272 72.9145 71.2211C72.9825 69.6802 73.54 68.2573 74.5185 67.0708C75.2687 66.3969 76.069 65.8696 77.0156 65.5298C76.9069 65.4517 76.7981 65.3737 76.6861 65.2933C76.322 64.9694 76.322 64.9694 76.0445 64.2689C75.2205 64.2689 74.3964 64.2689 73.5474 64.2689C73.5177 64.4448 73.4881 64.6207 73.4575 64.8019C73.219 66.006 72.841 67.175 72.4896 68.3492C72.4173 68.5925 72.3451 68.8358 72.2729 69.0792C72.0974 69.6708 71.9206 70.2621 71.744 70.8534C70.7826 70.8534 69.8212 70.8534 68.8307 70.8534C68.9252 70.09 69.0182 69.4852 69.2289 68.7665C69.2549 68.677 69.2808 68.5875 69.3076 68.4953C69.3928 68.2026 69.4791 67.9104 69.5656 67.6181C69.626 67.4115 69.6863 67.2048 69.7466 66.9982C69.9052 66.4553 70.0648 65.9127 70.2247 65.3702C70.3533 64.9331 70.4812 64.4958 70.6089 64.0585C70.7638 63.5287 70.9189 62.9991 71.0742 62.4695C71.1029 62.3717 71.1315 62.2739 71.1611 62.1731C71.3536 61.5169 71.5478 60.8612 71.744 60.2061C71.7736 60.1071 71.8032 60.0081 71.8338 59.906C71.924 59.6055 72.0152 59.3053 72.1066 59.0052C72.1601 58.8289 72.2137 58.6527 72.2688 58.4711C72.4394 57.9593 72.6402 57.4785 72.8538 56.9839C72.9548 56.6588 73.0502 56.3318 73.1399 56.0033C73.1844 55.8414 73.229 55.6796 73.2748 55.5129C73.3411 55.2702 73.3411 55.2702 73.4087 55.0226C73.501 54.6956 73.5935 54.3687 73.6861 54.0419ZM75.3509 57.9646C75.011 58.7533 75.011 58.7533 74.7423 59.5522C74.7124 59.6552 74.6824 59.7582 74.6516 59.8644C74.6072 60.0205 74.6072 60.0205 74.5619 60.1799C74.5307 60.2867 74.4995 60.3935 74.4673 60.5036C74.3008 61.0463 74.3008 61.0463 74.2411 61.6071C74.882 61.6071 75.5229 61.6071 76.1832 61.6071C76.3592 61.2603 76.3592 61.2603 76.5387 60.9066C77.2999 59.5139 78.0875 58.7918 79.5127 58.1047C79.5127 58.0585 79.5127 58.0122 79.5127 57.9646C78.1393 57.9646 76.7659 57.9646 75.3509 57.9646ZM79.0965 60.7665C79.0965 60.859 79.0965 60.9514 79.0965 61.0467C79.6256 60.8831 79.6256 60.8831 79.9722 60.4688C80.0037 60.3821 80.0351 60.2954 80.0676 60.2061C79.7203 60.2061 79.3636 60.5714 79.0965 60.7665ZM82.9808 60.4863C82.9076 60.6209 82.9076 60.6209 82.8329 60.7583C81.9255 62.3637 80.9187 63.1372 79.2352 63.8486C78.8288 63.946 78.8288 63.946 78.5416 63.9887C78.8972 64.3642 79.0901 64.5364 79.6178 64.5825C80.7503 64.6077 81.5168 64.5378 82.3858 63.7824C82.9833 63.1599 83.2557 62.4561 83.397 61.6071C83.3639 60.9671 83.3638 60.9671 82.9808 60.4863ZM76.322 68.1916C75.7936 69.0051 75.4278 69.8665 75.4896 70.8534C75.7036 71.5857 75.9654 71.9783 76.5994 72.3944C77.6481 72.7475 78.7637 72.6115 79.7554 72.1493C80.8577 71.5309 81.4598 70.6645 81.8179 69.4398C81.9333 68.8583 81.9452 68.361 81.7063 67.8151C81.3189 67.316 80.9428 66.9918 80.345 66.7906C78.8077 66.6465 77.3531 66.9542 76.322 68.1916Z" fill="#191919"/>
<path d="M35.1202 30.5059C36.2334 30.4928 37.3465 30.4829 38.4597 30.4768C38.9768 30.4739 39.4938 30.47 40.0108 30.4636C40.511 30.4574 41.011 30.4541 41.5112 30.4527C41.7008 30.4517 41.8905 30.4497 42.0801 30.4466C43.6445 30.4224 45.0043 30.6401 46.2481 31.6589C47.2076 32.6194 47.6433 33.6918 47.6663 35.0502C47.6582 37.1779 46.782 38.9696 45.354 40.5052C43.7021 42.0641 41.706 42.865 39.4478 42.8479C39.3474 42.8478 39.247 42.8476 39.1435 42.8473C38.8255 42.8466 38.5075 42.8448 38.1895 42.843C37.9728 42.8423 37.756 42.8417 37.5393 42.8411C37.0104 42.8396 36.4815 42.8372 35.9526 42.8343C35.9368 42.9912 35.9209 43.1482 35.9046 43.3099C35.8194 43.9946 35.6514 44.6464 35.4714 45.3111C35.438 45.4364 35.4047 45.5616 35.3703 45.6906C35.3002 45.9533 35.2298 46.2158 35.159 46.4783C35.0505 46.881 34.943 47.2841 34.8357 47.6873C34.7673 47.943 34.6989 48.1988 34.6303 48.4545C34.5981 48.5752 34.5659 48.6959 34.5327 48.8202C34.5026 48.9316 34.4725 49.0429 34.4415 49.1577C34.4151 49.2557 34.3887 49.3537 34.3615 49.4547C34.2879 49.699 34.2879 49.699 34.1491 49.9791C32.8215 49.9791 31.4939 49.9791 30.1261 49.9791C30.2821 48.7183 30.2821 48.7183 30.4162 48.2084C30.4463 48.0925 30.4764 47.9766 30.5074 47.8572C30.5402 47.734 30.573 47.6108 30.6068 47.4839C30.6415 47.3508 30.6763 47.2178 30.7121 47.0808C30.827 46.6423 30.9428 46.2041 31.0587 45.7659C31.1399 45.4569 31.221 45.1478 31.302 44.8387C31.4725 44.1896 31.6433 43.5406 31.8146 42.8918C32.0308 42.0724 32.2463 41.2529 32.4615 40.4333C33.3314 37.1196 34.2045 33.807 35.1202 30.5059ZM38.3109 34.2884C37.9653 35.3934 37.645 36.4983 37.3745 37.6245C37.3439 37.7499 37.3134 37.8753 37.2819 38.0045C37.2082 38.3068 37.1351 38.6091 37.0624 38.9116C37.6837 38.928 38.305 38.9379 38.9265 38.9466C39.1887 38.9537 39.1887 38.9537 39.4562 38.9608C40.6621 38.9736 41.5726 38.8698 42.5199 38.0809C43.2069 37.2361 43.5202 36.533 43.498 35.4262C43.4083 34.9343 43.1348 34.7176 42.7502 34.4285C42.2761 34.2689 41.913 34.2726 41.4133 34.2748C41.2331 34.2752 41.053 34.2757 40.8673 34.2761C40.677 34.2773 40.4867 34.2785 40.2965 34.2797C40.1045 34.2804 39.9126 34.281 39.7207 34.2816C39.2508 34.2832 38.7808 34.2856 38.3109 34.2884Z" fill="#191919"/>
<path d="M73.6861 54.0419C74.6632 54.024 75.6403 54.0118 76.6175 54.0034C76.9493 53.9999 77.2811 53.9952 77.6128 53.9891C78.0922 53.9805 78.5715 53.9766 79.051 53.9735C79.1971 53.9699 79.3433 53.9663 79.4939 53.9626C80.6772 53.9621 81.8435 54.2127 82.746 55.0335C83.5903 55.9644 83.6744 56.4684 83.6744 57.8245C82.7588 57.7783 81.8433 57.732 80.8999 57.6844C80.7626 57.3377 80.7626 57.3377 80.6225 56.9839C80.3081 56.8031 80.3081 56.8031 79.9288 56.7037C79.737 56.6327 79.737 56.6327 79.5413 56.5601C79.0936 56.4226 78.7228 56.3801 78.2565 56.3655C78.1027 56.3601 77.9489 56.3547 77.7905 56.3491C77.5528 56.3426 77.5528 56.3426 77.3104 56.336C77.1487 56.3306 76.9871 56.3251 76.8205 56.3196C76.4231 56.3064 76.0257 56.2944 75.6283 56.2834C75.6026 56.4481 75.6026 56.4481 75.5763 56.6162C75.3689 57.8307 75.0904 58.9817 74.7093 60.1536C74.6642 60.2943 74.6191 60.4349 74.5727 60.5799C74.4628 60.9225 74.3523 61.2649 74.2411 61.6071C74.8451 61.6193 75.4491 61.6268 76.0532 61.6333C76.2237 61.6369 76.3942 61.6404 76.5699 61.644C77.7293 61.6535 78.5109 61.558 79.4606 60.8541C79.542 60.7946 79.6234 60.7352 79.7072 60.674C79.9624 60.4713 79.9624 60.4713 80.2323 60.0923C80.777 59.6645 81.2107 59.6979 81.8856 59.724C82.4353 59.8086 82.708 59.9768 83.1195 60.3462C82.448 61.9786 81.4187 63.0456 79.8259 63.7961C77.9105 64.5035 75.56 64.3146 73.5474 64.2689C73.5177 64.4448 73.4881 64.6207 73.4575 64.8019C73.219 66.006 72.841 67.175 72.4896 68.3492C72.4173 68.5925 72.3451 68.8358 72.2729 69.0792C72.0974 69.6708 71.9206 70.2621 71.744 70.8534C70.7826 70.8534 69.8212 70.8534 68.8307 70.8534C68.9252 70.09 69.0182 69.4852 69.2289 68.7665C69.2549 68.677 69.2808 68.5875 69.3076 68.4953C69.3928 68.2026 69.4791 67.9104 69.5656 67.6181C69.626 67.4115 69.6863 67.2048 69.7466 66.9982C69.9052 66.4553 70.0648 65.9127 70.2247 65.3702C70.3533 64.9331 70.4812 64.4958 70.6089 64.0585C70.7638 63.5287 70.9189 62.9991 71.0742 62.4695C71.1029 62.3717 71.1315 62.2739 71.1611 62.1731C71.3536 61.5169 71.5478 60.8612 71.744 60.2061C71.7736 60.1071 71.8032 60.0081 71.8338 59.906C71.924 59.6055 72.0152 59.3053 72.1066 59.0052C72.1601 58.8289 72.2137 58.6527 72.2688 58.4711C72.4394 57.9593 72.6402 57.4785 72.8538 56.9839C72.9548 56.6588 73.0502 56.3318 73.1399 56.0033C73.1844 55.8414 73.229 55.6796 73.2748 55.5129C73.3411 55.2702 73.3411 55.2702 73.4087 55.0226C73.501 54.6956 73.5935 54.3687 73.6861 54.0419Z" fill="#191919"/>
<path d="M47.6056 58.6651C48.2465 58.6651 48.8874 58.6651 49.5478 58.6651C49.4586 59.0329 49.3689 59.4007 49.279 59.7683C49.2537 59.8729 49.2284 59.9774 49.2023 60.0852C49.0086 60.8749 49.0086 60.8749 48.8541 61.1868C52.3792 61.1406 55.9042 61.0943 59.5361 61.0467C59.0675 62.7819 59.0675 62.7819 58.8583 63.5064C58.8116 63.6685 58.7649 63.8306 58.7167 63.9976C58.6677 64.167 58.6187 64.3363 58.5682 64.5108C58.5428 64.5988 58.5173 64.6869 58.4911 64.7776C58.357 65.2411 58.2228 65.7045 58.0885 66.1679C57.9499 66.6463 57.8118 67.1248 57.6738 67.6033C57.5417 68.0611 57.409 68.5187 57.2763 68.9763C57.2268 69.1485 57.1772 69.3207 57.1261 69.4981C57.0803 69.6558 57.0344 69.8135 56.9872 69.9759C56.9468 70.1153 56.9065 70.2547 56.8649 70.3983C56.7615 70.7133 56.7615 70.7133 56.6228 70.8534C56.3195 70.8636 56.0159 70.8651 55.7124 70.8621C55.4632 70.8602 55.4632 70.8602 55.209 70.8583C55.0161 70.8559 55.0161 70.8559 54.8194 70.8534C54.9986 69.8666 55.2348 68.909 55.5135 67.9464C55.5528 67.8091 55.5922 67.6718 55.6327 67.5304C55.715 67.2431 55.7977 66.9558 55.8806 66.6686C56.0079 66.2277 56.1343 65.7866 56.2606 65.3453C56.341 65.0653 56.4214 64.7853 56.502 64.5053C56.5588 64.3072 56.5588 64.3072 56.6167 64.1051C56.6519 63.9835 56.6871 63.8618 56.7234 63.7364C56.7543 63.6293 56.7852 63.5221 56.817 63.4117C56.9003 63.1481 56.9003 63.1481 57.039 62.8679C55.2924 63.0082 55.2924 63.0082 53.7096 63.7085C53.5865 63.7836 53.4635 63.8588 53.3367 63.9362C52.2699 65.0427 51.9843 66.7468 51.594 68.1916C51.5015 68.5291 51.4085 68.8666 51.3154 69.2039C51.258 69.4124 51.201 69.621 51.1445 69.8298C50.9501 70.5428 50.9501 70.5428 50.7963 70.8534C50.2012 70.8534 49.606 70.8534 48.9929 70.8534C49.0783 69.9139 49.3032 69.0547 49.57 68.1522C49.6129 68.0045 49.6558 67.8568 49.7 67.7047C49.8363 67.2363 49.9738 66.7683 50.1113 66.3003C50.2044 65.9814 50.2973 65.6626 50.3901 65.3437C50.6171 64.5649 50.8451 63.7864 51.0738 63.008C50.1582 62.9618 49.2426 62.9156 48.2992 62.8679C48.2526 63.1361 48.2526 63.1361 48.2049 63.4097C47.977 64.5606 47.6346 65.6819 47.3108 66.8081C47.2452 67.038 47.1796 67.2678 47.1141 67.4977C46.9548 68.056 46.7949 68.6142 46.6345 69.1722C47.0923 69.1722 47.5501 69.1722 48.0218 69.1722C47.9559 69.4263 47.8893 69.6802 47.8224 69.934C47.7853 70.0754 47.7483 70.2168 47.7102 70.3625C47.6056 70.7133 47.6056 70.7133 47.4669 70.8534C47.1292 70.8788 46.7992 70.8923 46.4611 70.8972C46.3219 70.9033 46.3219 70.9033 46.1799 70.9095C45.7223 70.9154 45.39 70.8552 44.972 70.6668C44.5319 70.0785 44.6372 69.4671 44.6923 68.752C44.7803 68.271 44.9122 67.8114 45.0565 67.345C45.0934 67.2197 45.1304 67.0944 45.1685 66.9652C45.2853 66.5708 45.4049 66.1772 45.5247 65.7837C45.6051 65.514 45.6853 65.2443 45.7653 64.9746C45.9604 64.3184 46.158 63.663 46.3571 63.008C45.9908 62.9618 45.6246 62.9156 45.2472 62.8679C45.3846 62.3132 45.5219 61.7584 45.6634 61.1868C46.1212 61.1868 46.579 61.1868 47.0507 61.1868C47.065 61.0308 47.0793 60.8747 47.094 60.714C47.1799 60.0021 47.3899 59.347 47.6056 58.6651Z" fill="#191919"/>
<path d="M19.2447 60.8453C19.3447 60.8422 19.4447 60.839 19.5477 60.8358C20.3117 60.8392 20.7553 61.0317 21.3863 61.467C22.1375 62.2871 22.3472 63.0292 22.3574 64.1288C22.274 65.0254 22.1346 65.8121 21.8025 66.6505C19.6051 66.6505 17.4076 66.6505 15.1436 66.6505C15.0283 67.9458 15.0283 67.9458 15.5598 68.8921C16.2725 69.2782 17.0127 69.2164 17.7794 69.0321C18.4129 68.754 18.8092 68.4577 19.184 67.8676C19.6908 67.3892 19.9171 67.4379 20.5973 67.4386C20.9067 67.452 21.2161 67.4683 21.525 67.4911C20.7576 69.1385 19.6107 70.2075 17.9182 70.8534C16.7017 71.113 15.4437 71.1461 14.3113 70.5732C13.6969 70.0907 13.2821 69.5053 13.0627 68.752C12.8119 66.6745 13.4922 64.7479 14.7014 63.0819C15.3458 62.2961 16.0491 61.7855 16.9471 61.3269C17.0302 61.2792 17.1134 61.2315 17.1991 61.1824C17.8516 60.864 18.5327 60.8593 19.2447 60.8453ZM16.0145 64.1337C15.7984 64.4366 15.7984 64.4366 15.6985 64.9694C17.255 64.9694 18.8116 64.9694 20.4152 64.9694C20.51 63.748 20.51 63.7479 19.9991 62.8679C18.5197 61.9716 16.979 62.9763 16.0145 64.1337Z" fill="#191919"/>
<path d="M34.1491 61.3269C34.83 61.9219 35.226 62.5755 35.2958 63.4918C35.2866 65.7541 35.2866 65.7541 34.8428 66.6505C32.6453 66.6505 30.4479 66.6505 28.1839 66.6505C28.0475 68.2881 28.0475 68.2881 28.418 68.9358C29.1647 69.32 29.8626 69.3074 30.681 69.1722C31.4149 68.8827 31.9429 68.5674 32.3197 67.8588C32.6232 67.4911 32.6231 67.4911 33.0561 67.4386C33.5158 67.4386 33.9684 67.455 34.4266 67.4911C34.2955 68.5103 33.5896 69.2399 32.835 69.8864C31.7451 70.6877 30.7815 71.0676 29.4324 71.0548C29.3277 71.0576 29.2229 71.0604 29.1149 71.0633C28.1983 71.0625 27.5049 70.7858 26.7934 70.2033C26.1008 69.3704 25.9279 68.6149 25.973 67.5436C26.1881 65.5635 27.1052 63.6614 28.5389 62.2873C30.108 61.083 32.2938 60.3231 34.1491 61.3269ZM29.0379 64.1507C28.8301 64.4683 28.8301 64.4683 28.6001 65.1095C30.1566 65.1095 31.7131 65.1095 33.3168 65.1095C33.5299 64.6791 33.4869 64.3246 33.4555 63.8486C33.2397 63.255 33.2397 63.255 32.7868 62.8482C31.369 62.2837 29.9362 63.0326 29.0379 64.1507Z" fill="#191919"/>
<path d="M80.345 53.9018C85.2434 53.9018 90.1419 53.9018 95.1887 53.9018C95.1887 55.2425 95.1887 56.5833 95.1887 57.9646C93.7465 57.9678 92.3043 57.9703 90.8621 57.9719C90.1924 57.9726 89.5228 57.9736 88.8532 57.9752C88.2074 57.9767 87.5615 57.9775 86.9157 57.9779C86.6689 57.9781 86.4221 57.9787 86.1753 57.9794C85.8305 57.9804 85.4857 57.9806 85.1409 57.9805C84.9867 57.9813 84.9867 57.9813 84.8294 57.982C84.1223 57.9806 84.1223 57.9806 83.8132 57.8245C83.7498 57.5438 83.7498 57.5438 83.7005 57.1853C83.5046 56.1051 83.038 55.3761 82.1485 54.7424C81.8381 54.6028 81.5227 54.4744 81.2034 54.3571C81.0423 54.2972 80.8811 54.2372 80.7151 54.1754C80.593 54.1314 80.4708 54.0873 80.345 54.0419C80.345 53.9957 80.345 53.9495 80.345 53.9018Z" fill="#191919"/>
<path d="M43.5825 61.3269C44.1639 61.8667 44.5372 62.3415 44.572 63.1624C44.5717 63.3253 44.5713 63.4881 44.571 63.656C44.5715 63.9014 44.5715 63.9014 44.572 64.1518C44.5536 64.5491 44.5536 64.5491 44.4149 64.6892C44.1116 64.6994 43.808 64.7009 43.5045 64.6979C43.2553 64.696 43.2553 64.696 43.0011 64.6941C42.8725 64.6925 42.7439 64.6909 42.6114 64.6892C42.6079 64.5929 42.6043 64.4967 42.6006 64.3975C42.5927 64.2713 42.5849 64.145 42.5768 64.015C42.5703 63.8898 42.5639 63.7647 42.5573 63.6357C42.5001 63.2741 42.5001 63.2741 42.2299 63.0365C41.6773 62.738 41.1399 62.7856 40.5306 62.8679C39.5118 63.1835 38.9285 63.86 38.4323 64.7943C37.8879 65.9743 37.5611 67.1612 37.756 68.4718C37.9818 68.9567 37.9818 68.9567 38.4497 69.1722C39.1263 69.2981 39.7493 69.2675 40.3658 68.9446C41.0252 68.4485 41.4072 67.962 41.7791 67.2109C42.42 67.2109 43.0609 67.2109 43.7213 67.2109C43.2002 68.7896 42.2249 69.8566 40.8427 70.7259C39.8293 71.2216 38.3078 71.1785 37.2374 70.8917C36.4647 70.5302 36.0416 69.9835 35.7098 69.216C35.1971 67.694 35.6718 66.0744 36.3254 64.6717C37.1439 63.1181 38.2229 61.8684 39.8716 61.2043C41.0824 60.8375 42.4471 60.6355 43.5825 61.3269Z" fill="#191919"/>
<path d="M67.166 61.3269C67.7564 61.8056 68.0163 62.404 68.1371 63.1481C68.1176 63.6687 68.0617 64.1711 67.9984 64.6892C67.4032 64.6892 66.8081 64.6892 66.1949 64.6892C66.1136 64.1009 66.1136 64.1009 66.0323 63.5126C65.9524 63.1371 65.9524 63.1371 65.6714 62.9615C64.9493 62.7427 64.2206 62.7791 63.5158 63.0343C62.1665 63.9533 61.6966 65.1649 61.2978 66.6948C61.1506 67.4779 61.0934 68.1762 61.4782 68.8921C62.105 69.314 62.6867 69.2832 63.4204 69.1722C64.1701 68.8564 64.6345 68.4582 64.9811 67.7188C65.1323 67.4309 65.1323 67.4309 65.3626 67.2109C65.9735 67.1127 66.5527 67.1456 67.166 67.2109C66.9926 68.4433 66.0549 69.4255 65.135 70.1956C63.9275 71.0718 62.6398 71.1429 61.2008 70.9935C60.265 70.7436 59.7561 70.1551 59.2434 69.3512C58.727 68.0175 59.1461 66.2204 59.6748 64.9694C60.599 63.0156 61.8596 61.8331 63.8366 61.0467C64.9774 60.8015 66.1073 60.7747 67.166 61.3269Z" fill="#191919"/>
<path d="M25.2707 57.8245C25.9116 57.8245 26.5525 57.8245 27.2128 57.8245C26.6258 60.1724 25.9491 62.4937 25.274 64.8169C25.1532 65.2328 25.0329 65.6489 24.9126 66.065C24.7955 66.4701 24.6781 66.8751 24.5606 67.2801C24.5051 67.4714 24.4497 67.6628 24.3943 67.8541C24.103 68.8606 23.8038 69.8614 23.4672 70.8534C22.8721 70.8534 22.2769 70.8534 21.6638 70.8534C21.7491 69.7714 22.0582 68.7662 22.3634 67.7297C22.4203 67.5339 22.4772 67.338 22.5341 67.1421C22.6837 66.6271 22.8344 66.1124 22.9854 65.5977C23.1359 65.0836 23.2854 64.5693 23.435 64.0549C24.0401 61.9761 24.6508 59.8989 25.2707 57.8245Z" fill="#191919"/>
<path d="M99.7673 30.6536C100.065 30.8983 100.288 31.1388 100.46 31.4865C100.544 32.3182 100.567 33.0798 100.091 33.7893C99.4966 34.4911 98.8504 35.0729 97.9139 35.1591C97.219 35.185 96.7121 35.182 96.1598 34.7087C95.7471 34.3068 95.6457 33.8923 95.5973 33.3182C95.6203 32.4368 96.1628 31.7872 96.7321 31.1691C97.4897 30.4614 98.8146 30.1473 99.7673 30.6536ZM97.6858 31.3464C97.8138 31.3567 97.8138 31.3567 97.9443 31.3672C98.0564 31.3777 98.1685 31.3882 98.2841 31.399C98.4506 31.4136 98.4506 31.4136 98.6206 31.4285C98.9343 31.4865 98.9343 31.4865 99.3505 31.7667C99.3124 32.3315 99.2763 32.5469 98.8563 32.94C98.7447 33.0151 98.6331 33.0903 98.5182 33.1677C98.6555 33.4451 98.7928 33.7225 98.9343 34.0082C99.4878 33.5376 99.7465 33.1607 99.8843 32.4568C99.9155 32.0581 99.8377 31.8234 99.628 31.4865C99.2775 31.1063 99.0992 31.0686 98.5789 31.0225C98.0854 31.0292 98.0854 31.0292 97.6858 31.3464ZM97.2696 31.4865C96.6685 32.1096 96.3258 32.6974 96.2985 33.588C96.4212 33.9003 96.4212 33.9003 96.576 34.1483C96.9022 34.0237 96.9022 34.0237 97.0068 33.5852C97.0563 33.4099 97.1059 33.2345 97.1569 33.0538C97.2328 32.7924 97.2328 32.7924 97.3103 32.5258C97.3989 32.0933 97.4269 31.8882 97.2696 31.4865ZM97.9633 31.9068C97.9175 32.0917 97.8717 32.2767 97.8245 32.4672C98.0992 32.4672 98.3739 32.4672 98.6569 32.4672C98.7027 32.3285 98.7485 32.1898 98.7956 32.0469C98.3836 31.9776 98.3836 31.9776 97.9633 31.9068ZM97.6858 33.1677C97.5957 33.4017 97.5957 33.4017 97.5037 33.6405C97.2696 34.1483 97.2696 34.1483 96.8535 34.4285C97.7809 34.5928 97.7809 34.5928 98.6569 34.2884C98.5196 34.2422 98.3822 34.196 98.2407 34.1483C98.2207 34.0385 98.2007 33.9287 98.18 33.8156C98.1189 33.4529 98.1189 33.4529 97.9633 33.1677C97.8717 33.1677 97.7801 33.1677 97.6858 33.1677Z" fill="#191919"/>
<path d="M75.6283 56.2834C76.1803 56.267 76.7322 56.2572 77.2844 56.2484C77.4393 56.2437 77.5943 56.239 77.7539 56.2342C78.9144 56.2204 79.785 56.3886 80.7005 57.1328C80.8999 57.4042 80.8999 57.4042 80.8999 57.8245C80.163 57.9291 79.4566 57.9813 78.7106 57.9783C78.6137 57.9781 78.5167 57.9779 78.4168 57.9777C78.1116 57.9769 77.8064 57.9751 77.5011 57.9733C77.2923 57.9726 77.0835 57.972 76.8747 57.9714C76.3667 57.9699 75.8588 57.9675 75.3509 57.9646C75.19 57.4772 75.2434 57.3563 75.4116 56.8876C75.4714 56.7178 75.4714 56.7178 75.5324 56.5445C75.5641 56.4583 75.5957 56.3722 75.6283 56.2834Z" fill="#191919"/>
<path d="M58.4263 57.8245C59.0672 57.8245 59.7081 57.8245 60.3684 57.8245C60.2289 58.5795 60.0973 59.2095 59.8135 59.9259C59.2184 59.9259 58.6232 59.9259 58.0101 59.9259C58.0866 59.192 58.2083 58.5287 58.4263 57.8245Z" fill="#191919"/>
</g>
<defs>
<clipPath id="clip0_2377_8876">
<rect width="100" height="100" fill="white" transform="translate(0.507507 0.255859)"/>
</clipPath>
</defs>
</svg>
