<svg width="101" height="101" viewBox="0 0 101 101" fill="none" xmlns="http://www.w3.org/2000/svg">
<g clip-path="url(#clip0_2377_8880)">
<path d="M85.3857 42.941L85.2942 42.6684L75.3232 16.8916C75.1098 16.3767 74.7743 15.9526 74.2865 15.6497C73.8291 15.3468 73.2802 15.2257 72.7314 15.256C72.1825 15.256 71.6641 15.468 71.2372 15.8315C70.8103 16.1647 70.5054 16.6493 70.353 17.1642L63.6141 37.6099H36.4149L29.6761 17.1642C29.5236 16.6493 29.2187 16.1647 28.7918 15.8315C28.3649 15.4983 27.8465 15.2863 27.2976 15.256C26.7488 15.256 26.1999 15.3771 25.7425 15.6497C25.2851 15.9526 24.9192 16.3767 24.7058 16.8916L14.7348 42.7289L14.6433 42.9713C13.2101 46.6969 13.0272 50.7558 14.1554 54.6026C15.2531 58.4191 17.5706 61.7813 20.7723 64.2045H20.8028L20.8942 64.2953L36.0795 75.5935L43.5806 81.2274L48.1545 84.6502C48.7033 85.0439 49.3437 85.256 50.0145 85.256C50.6853 85.256 51.3257 85.0439 51.8745 84.6502L56.4484 81.2274L63.9495 75.5935L79.2262 64.2348H79.2567C82.4584 61.8116 84.8064 58.4494 85.9041 54.6026C87.0018 50.7558 86.8494 46.6969 85.4162 42.9713L85.3857 42.941Z" fill="#191919"/>
<path d="M85.3857 42.9408L85.2942 42.6682C80.4459 43.6678 75.872 45.6972 71.908 48.6656L50.0754 65.113C57.5156 70.7167 64.0105 75.5631 64.0105 75.5631L79.2567 64.2043H79.2872C82.4889 61.7811 84.8063 58.3887 85.904 54.5721C87.0018 50.7253 86.8188 46.6665 85.3857 42.9408Z" fill="#272727"/>
<path d="M36.0794 75.5631L43.5806 81.197L48.1544 84.6197C48.7033 85.0135 49.3436 85.2255 50.0145 85.2255C50.6853 85.2255 51.3256 85.0135 51.8745 84.6197L56.4484 81.197L63.9495 75.5631C63.9495 75.5631 57.4546 70.6864 50.0145 65.113L36.1099 75.5631H36.0794Z" fill="#393939"/>
<path d="M28.1514 48.6656C24.1874 45.7275 19.6135 43.6678 14.7652 42.6985L14.6737 42.9408C13.2406 46.6665 13.0576 50.7556 14.1554 54.5721C15.2531 58.3887 17.601 61.7811 20.8027 64.174H20.8332L20.9247 64.2649L36.1099 75.563L50.0754 65.113L28.1819 48.6959L28.1514 48.6656Z" fill="#272727"/>
</g>
<defs>
<clipPath id="clip0_2377_8880">
<rect width="73.1818" height="70" fill="white" transform="translate(13.4236 15.2559)"/>
</clipPath>
</defs>
</svg>
