<svg width="100" height="101" viewBox="0 0 100 101" fill="none" xmlns="http://www.w3.org/2000/svg">
<path d="M74.3519 15.2559H48.7867C48.7867 21.629 53.9461 26.7873 60.3165 26.7873H65.0202V31.3387C65.0202 37.7119 70.1791 42.8707 76.5523 42.8707V17.4557C76.5517 16.8724 76.3197 16.3131 75.9071 15.9006C75.4946 15.4882 74.9352 15.2563 74.3519 15.2559Z" fill="#E4E4E4"/>
<path d="M61.6839 28.0007H36.1187C36.1187 34.3739 41.2753 39.531 47.6485 39.531H52.3517V44.0836C52.3517 50.4567 57.5106 55.6162 63.8838 55.6162V30.2012C63.8833 29.6178 63.6514 29.0585 63.239 28.6459C62.8265 28.2334 62.2673 28.0013 61.6839 28.0007Z" fill="#E4E4E4"/>
<path d="M49.0151 40.7454H23.4477C23.4477 47.1185 28.6066 52.2774 34.9792 52.2774H39.6835V56.8305C39.6835 63.2014 44.8418 68.3602 51.215 68.3602V42.9458C51.2145 42.3624 50.9826 41.8031 50.5702 41.3905C50.1577 40.978 49.5985 40.746 49.0151 40.7454Z" fill="#E4E4E4"/>
<path d="M39.9947 71.2178H41.9387V80.8302C41.9387 83.3669 40.7821 85.1359 38.0971 85.1359C37.0894 85.1359 36.2997 84.9678 35.758 84.7776V82.9355C36.3507 83.1744 37.0645 83.2938 37.779 83.2938C39.4286 83.2938 39.9947 82.3388 39.9947 80.9502V71.2178ZM45.5096 70.4751C46.2728 70.4751 46.8145 70.9302 46.8145 71.742C46.8145 72.5312 46.2728 73.0112 45.5096 73.0112C44.7471 73.0112 44.2053 72.5555 44.2053 71.742C44.2053 70.9551 44.7471 70.4751 45.5096 70.4751ZM44.5501 74.517H46.4211V85.0408H44.5501V74.517ZM51.049 85.0408H49.2278V74.517H51.0495V76.3591C51.6909 75.1143 52.7744 74.23 54.8905 74.3495V76.1202C52.5027 75.8813 51.0495 76.5737 51.0495 78.8228L51.049 85.0408ZM63.634 83.1501C62.9439 84.5387 61.639 85.2559 59.9628 85.2559C57.0842 85.2559 55.631 82.8868 55.631 79.7778C55.631 76.8126 57.1566 74.3025 60.1864 74.3025C61.7607 74.3025 62.9926 74.9948 63.634 76.3591V74.517H65.5049V85.0408H63.634V83.1501ZM60.4564 83.5814C62.1304 83.5814 63.6074 82.5534 63.6074 80.2092V79.373C63.6074 77.0294 62.2544 76.0008 60.6529 76.0008C58.5611 76.0008 57.4771 77.339 57.4771 79.7778C57.502 82.3139 58.5368 83.5814 60.4564 83.5814Z" fill="#E4E4E4"/>
</svg>
