<svg width="101" height="101" viewBox="0 0 101 101" fill="none" xmlns="http://www.w3.org/2000/svg">
<g clip-path="url(#clip0_2377_9043)">
<g clip-path="url(#clip1_2377_9043)">
<path d="M43.9645 27.6284C44.06 27.629 44.1555 27.6296 44.2538 27.6302C44.4868 27.6318 44.7198 27.6342 44.9527 27.6368C44.7468 27.7701 44.7468 27.7701 44.5367 27.906C39.4571 31.8529 37.1342 39.2192 34.9839 44.9461C34.9275 45.0952 34.9275 45.0952 34.87 45.2474C34.1498 47.1577 33.4573 49.1139 33.1896 51.1394C33.1735 51.257 33.1573 51.3746 33.1407 51.4958C32.7243 54.7687 33.2155 58.1264 35.2435 60.8617C37.3305 63.4402 40.3115 65.1683 43.5658 66.0084C43.6928 66.0417 43.8197 66.075 43.9506 66.1093C45.3894 66.4485 46.7721 66.4762 48.2457 66.4812C48.5041 66.4834 48.7626 66.4859 49.021 66.4885C49.6945 66.4948 50.368 66.4989 51.0416 66.5024C51.7315 66.5065 52.4215 66.5127 53.1114 66.5188C54.4603 66.5303 55.8091 66.5394 57.158 66.5469C56.9864 67.059 56.8067 67.5247 56.5382 67.9964C56.471 68.1151 56.4039 68.2339 56.3347 68.3563C56.2631 68.4812 56.1915 68.6061 56.1178 68.7348C56.0443 68.8641 55.9709 68.9934 55.8952 69.1267C55.7439 69.3929 55.5922 69.659 55.4402 69.9249C55.227 70.2979 55.0148 70.6715 54.8029 71.0452C54.6778 71.2652 54.5526 71.4852 54.4274 71.7052C54.3397 71.8595 54.3397 71.8595 54.2503 72.0169C53.8455 72.7245 53.8455 72.7245 53.6906 72.8749C53.4108 72.888 53.1305 72.8915 52.8504 72.8914C52.7613 72.8916 52.6721 72.8917 52.5803 72.8919C52.2779 72.8923 51.9755 72.8917 51.6731 72.8911C51.4555 72.8911 51.238 72.8912 51.0205 72.8914C50.4199 72.8917 49.8193 72.8912 49.2187 72.8905C48.5721 72.8899 47.9255 72.8901 47.2789 72.8902C46.1577 72.8903 45.0365 72.8899 43.9153 72.8891C42.2941 72.888 40.673 72.8877 39.0519 72.8875C36.422 72.8872 33.7922 72.8863 31.1623 72.885C28.607 72.8838 26.0516 72.8828 23.4962 72.8823C23.3388 72.8822 23.1814 72.8822 23.0193 72.8822C22.2297 72.882 21.4402 72.8818 20.6506 72.8816C14.0958 72.8802 7.54089 72.8779 0.986023 72.8749C1.47725 72.6247 1.94532 72.4973 2.48568 72.37C7.33588 71.1607 11.3764 68.0222 14.4396 64.2581C14.559 64.1154 14.6785 63.9729 14.7982 63.8305C16.9847 61.2085 18.7815 58.2842 20.2696 55.239C20.4061 54.9629 20.548 54.6898 20.6901 54.4164C21.4492 52.9116 21.9692 51.3566 22.4753 49.7593C24.161 44.4401 26.4642 39.2874 30.2509 35.0418C30.3487 34.932 30.4465 34.8221 30.5473 34.7089C33.9159 31.0044 38.63 27.5631 43.9645 27.6284Z" fill="#191919"/>
<path d="M48.1427 27.6367C65.581 27.6367 83.0193 27.6367 100.986 27.6367C100.986 27.6811 100.986 27.7256 100.986 27.7714C100.724 27.8278 100.724 27.8278 100.457 27.8855C98.8822 28.2381 97.4358 28.6779 95.993 29.387C95.9022 29.4314 95.8115 29.4758 95.718 29.5216C93.4732 30.6403 91.5579 32.1323 89.7516 33.83C89.6479 33.9253 89.5442 34.0206 89.4374 34.1188C88.6881 34.8217 88.0378 35.5945 87.3938 36.3881C87.3263 36.4703 87.2589 36.5524 87.1894 36.637C85.3907 38.8324 83.8924 41.1825 82.5394 43.6585C82.4916 43.746 82.4438 43.8335 82.3945 43.9236C82.0573 44.5463 81.7392 45.1766 81.4298 45.8127C81.3755 45.9239 81.3211 46.035 81.2651 46.1495C80.392 47.9552 79.7525 49.7707 79.1901 51.6873C77.7405 56.6015 75.2459 61.6363 71.7211 65.4698C71.6616 65.5347 71.6022 65.5996 71.5409 65.6665C71.0998 66.1464 70.6494 66.617 70.1954 67.0854C70.0993 67.1876 70.0031 67.2899 69.904 67.3952C68.3282 69.0105 66.4032 70.2553 64.3702 71.2592C64.2383 71.3251 64.1063 71.3911 63.9704 71.459C61.7572 72.498 59.4704 72.9382 57.0193 72.8748C57.1566 72.786 57.2939 72.6971 57.4354 72.6055C63.371 67.9935 67.3023 57.1318 68.6698 49.9865C68.6874 49.8951 68.705 49.8037 68.7232 49.7096C69.3332 46.3913 68.9075 42.9013 67.0054 40.0233C66.6574 39.5545 66.2876 39.112 65.8959 38.677C65.8238 38.5957 65.7518 38.5145 65.6775 38.4308C63.6518 36.3109 60.6761 35.0935 57.8515 34.3686C57.7664 34.3455 57.6813 34.3224 57.5937 34.2985C56.343 34.0042 55.0592 34.0514 53.7805 34.0436C53.5213 34.041 53.2621 34.0384 53.0028 34.0357C52.3248 34.0288 51.6467 34.0234 50.9686 34.0184C50.2749 34.013 49.5813 34.0061 48.8877 33.9994C47.5298 33.9864 46.1719 33.975 44.814 33.9647C44.9853 33.4535 45.1642 32.9898 45.4338 32.5199C45.5018 32.4005 45.5697 32.281 45.6397 32.1578C45.7105 32.0349 45.7813 31.9119 45.8542 31.7852C46.6397 30.4131 47.3891 29.0268 48.1427 27.6367Z" fill="#191919"/>
</g>
</g>
<defs>
<clipPath id="clip0_2377_9043">
<rect width="100" height="100" fill="white" transform="translate(0.986023 0.255859)"/>
</clipPath>
<clipPath id="clip1_2377_9043">
<rect width="100" height="45.2381" fill="white" transform="translate(0.986023 27.6367)"/>
</clipPath>
</defs>
</svg>
