<svg width="101" height="101" viewBox="0 0 101 101" fill="none" xmlns="http://www.w3.org/2000/svg">
<g clip-path="url(#clip0_2377_8869)">
<path d="M55.4027 42.9675C55.3942 42.8143 55.4 42.6598 55.384 42.5073C55.3642 42.3172 55.2625 42.2661 55.0994 42.3561C55.0513 42.3828 55.0015 42.4165 54.9684 42.4595C54.6474 42.8733 54.1967 42.9133 53.7222 42.9133C52.4367 42.9139 51.1512 42.9296 49.8657 42.9296C47.4762 42.9296 45.087 42.9187 42.6975 42.9218C42.2181 42.9225 41.7726 42.8798 41.4751 42.4394C41.4601 42.4172 41.4348 42.4005 41.412 42.3848C41.2485 42.2715 41.1554 42.3019 41.1131 42.4923C41.092 42.5868 41.0906 42.686 41.0834 42.7836C41.0155 43.7027 40.9463 44.6218 40.8815 45.5409C40.8528 45.9448 40.8334 46.3491 40.8088 46.7534C40.8013 46.8769 40.8303 46.9782 40.9671 47.0082C41.0943 47.0362 41.1834 46.9748 41.2431 46.8684C41.27 46.8203 41.2881 46.7667 41.3066 46.7142C41.486 46.199 41.7282 45.7122 41.967 45.2229C42.4324 44.2701 43.1922 43.7842 44.2399 43.6778C44.9925 43.6014 45.7444 43.5775 46.4987 43.5642C47.0954 43.5536 47.0852 43.5393 47.0845 44.1653C47.0824 47.9229 47.0862 51.6805 47.0814 55.4377C47.0804 56.2893 47.0558 57.1411 47.0371 57.9927C47.0292 58.3577 46.9842 58.7163 46.7624 59.0261C46.2647 59.519 45.6444 59.7237 44.9648 59.7944C44.8134 59.8101 44.6636 59.8513 44.5152 59.8889C44.303 59.9424 44.2938 60.1052 44.302 60.285C44.3112 60.4883 44.4275 60.5459 44.6059 60.5415C44.6899 60.5395 44.7738 60.5419 44.8574 60.5419C47.122 60.5419 49.3863 60.5419 51.651 60.5415C51.7349 60.5415 51.8188 60.5381 51.9024 60.5412C52.0771 60.5473 52.1525 60.4402 52.1883 60.2921C52.2286 60.1236 52.1822 59.9823 52.0208 59.9056C51.9481 59.8708 51.8598 59.8681 51.7779 59.8531C51.2856 59.7616 50.7909 59.6941 50.3157 59.5109C49.7763 59.3027 49.5398 58.8899 49.4638 58.3663C49.4041 57.9535 49.3716 57.5335 49.3703 57.1162C49.3587 53.4975 49.3563 49.8785 49.3526 46.2597C49.3519 45.4911 49.3577 44.7228 49.3563 43.9541C49.356 43.8013 49.3645 43.67 49.5671 43.672C50.5719 43.6812 51.5803 43.6205 52.5772 43.7911C52.9481 43.8545 53.3124 43.9617 53.6243 44.1916C53.6826 44.2346 53.7423 44.2653 53.817 44.2469C54.0551 44.3895 54.1855 44.6239 54.3213 44.8497C54.5887 45.2939 54.7719 45.778 54.9626 46.2577C55.0401 46.4522 55.1059 46.651 55.1827 46.8459C55.2206 46.9427 55.2898 47.0157 55.4034 47.0041C55.5368 46.9905 55.5941 46.8929 55.6033 46.7732C55.6119 46.6626 55.604 46.5504 55.5975 46.4392C55.5337 45.2816 55.4676 44.1247 55.4027 42.9675Z" fill="#191919"/>
<path d="M86.1119 59.9343C85.9532 59.8872 85.7936 59.8436 85.6366 59.7917C85.1481 59.6314 84.6698 59.4533 84.3491 59.0146C84.2761 58.743 84.0891 58.5301 83.9704 58.2811C83.4679 57.2272 83.1059 56.1177 82.6678 55.0386C82.502 54.6303 82.4314 54.1823 82.1684 53.8139C81.9511 53.226 81.7389 52.6365 81.515 52.0514C81.1828 51.1835 80.8948 50.2989 80.5216 49.4466C80.5189 49.42 80.5086 49.3941 80.4878 49.3682C80.4482 49.2354 80.4168 49.0997 80.3674 48.9707C80.0191 48.0629 79.6666 47.1564 79.3166 46.2492C78.8867 45.1357 78.462 44.0204 78.0243 42.9099C77.9693 42.7707 77.9523 42.5613 77.7155 42.5746C77.5286 42.5643 77.4296 42.6981 77.3754 42.8345C77.1437 43.4145 76.8578 43.9737 76.7006 44.5823C76.7149 44.5919 76.7289 44.6014 76.7432 44.6106C76.7411 44.612 76.7394 44.6134 76.7374 44.6147C76.7251 44.6038 76.7128 44.5932 76.7006 44.5823C76.5641 44.786 76.4907 45.0136 76.4443 45.2517C76.2782 45.671 76.112 46.0899 75.9459 46.5089C75.9104 46.5669 75.8654 46.6211 75.8412 46.6835C75.5638 47.4058 75.2895 48.1291 75.0145 48.8523C75.0302 48.8653 75.0456 48.8779 75.0613 48.8909C75.0606 48.8916 75.0599 48.8919 75.0589 48.8922C75.0442 48.8789 75.0292 48.8656 75.0142 48.8523C74.9524 48.9257 74.9388 49.0144 74.9313 49.1055C74.8068 49.3163 74.7143 49.5387 74.6897 49.7851C74.438 50.4278 74.1858 51.0706 73.9341 51.713C73.3142 53.0196 72.8713 54.3962 72.3357 55.7363C72.3422 55.7414 72.3483 55.7462 72.3548 55.7513C72.3541 55.7513 72.3535 55.7513 72.3528 55.7517C72.3524 55.7517 72.3357 55.7363 72.3357 55.7363C72.2862 55.7858 72.2627 55.8445 72.2726 55.9147C72.0631 56.4272 71.8629 56.944 71.6418 57.4513C71.3211 58.1876 71.0256 58.9436 70.3327 59.4356C69.9663 59.5662 69.6122 59.7296 69.2339 59.8303C69.0906 59.8685 68.9357 59.9183 68.8995 60.1049C68.8453 60.3853 68.9691 60.5249 69.3007 60.5252C70.9731 60.5276 72.6455 60.5266 74.3179 60.5256C74.4277 60.5256 74.5434 60.543 74.6311 60.4491C74.7996 60.0657 74.773 59.9865 74.4298 59.8583C74.3653 59.834 74.2991 59.8115 74.2319 59.7975C73.7822 59.7054 73.3572 59.5481 72.9556 59.3271C72.9239 59.3018 72.8922 59.2769 72.8604 59.2517C72.7267 59.0589 72.6943 58.8477 72.7168 58.6157C72.7601 58.1709 72.8382 57.7352 72.9512 57.3016C73.0348 56.9805 73.2009 56.6779 73.189 56.3334C73.2558 56.2665 73.2743 56.1822 73.2766 56.0918C73.5615 55.4402 73.7144 54.7432 73.9678 54.0803C74.1128 53.7003 74.121 53.6791 74.5355 53.6794C76.0308 53.6801 77.5262 53.6818 79.0215 53.6839C79.728 53.6849 79.728 53.6859 79.9928 54.315C80.1651 55.0492 80.5086 55.723 80.7444 56.4347C81.0108 57.2395 81.3608 58.0156 81.5219 58.8566C81.57 59.107 81.4946 59.2599 81.3199 59.398C81.1872 59.5031 81.0323 59.557 80.8679 59.6027C80.5612 59.6884 80.2429 59.7464 79.9583 59.8972C79.7359 60.0152 79.6792 60.2328 79.8045 60.4181C79.9013 60.5617 80.0491 60.5276 80.1845 60.5273C82.081 60.5245 83.9776 60.5201 85.8741 60.5157C85.9437 60.5157 86.0147 60.5204 86.0825 60.5092C86.2511 60.4816 86.3009 60.3417 86.3261 60.2052C86.3572 60.0507 86.3043 59.9302 86.1119 59.9343ZM74.7737 49.7854C74.7737 49.7871 74.7743 49.7892 74.7743 49.7909C74.7743 49.7909 74.7743 49.7909 74.7743 49.7912C74.7706 49.7892 74.7668 49.7875 74.7631 49.7857L74.7737 49.7854ZM75.2919 50.3848V50.3845C75.2933 50.3838 75.2939 50.3824 75.295 50.3814C75.3448 50.3429 75.3693 50.2934 75.3663 50.232C75.3956 50.2258 75.4226 50.2125 75.4468 50.1921C75.703 49.8349 75.7514 49.392 75.9401 49.0062C75.9998 48.8847 76.0523 48.7479 75.9708 48.6087C76.1117 48.5576 76.139 48.4173 76.1909 48.2993C76.314 48.0182 76.402 47.7234 76.5153 47.4382C76.5405 47.3478 76.5518 47.2547 76.5794 47.1653C76.5866 47.1421 76.5934 47.1185 76.5982 47.0953C76.762 47.0643 76.733 46.8773 76.8002 46.7692C76.8626 46.6685 76.837 46.5048 76.9708 46.4553C77.2819 47.575 77.7391 48.6428 78.1546 49.724C78.3675 50.2784 78.4848 50.8754 78.8301 51.3763C78.8499 51.3913 78.8707 51.4018 78.8932 51.407C78.8871 51.4779 78.8939 51.5441 78.9417 51.5977L78.942 51.598C78.9458 51.6021 78.9495 51.6062 78.9536 51.6099C78.9597 51.6157 78.9659 51.6212 78.9734 51.6263C78.9758 51.6284 78.9785 51.6301 78.9812 51.6321C78.9816 51.6352 78.9819 51.6383 78.9826 51.6413C78.97 51.6492 78.9587 51.6611 78.9485 51.6758C78.8809 51.8829 78.987 52.0586 79.0566 52.2367C79.1545 52.4857 79.0911 52.6082 78.813 52.6072C78.5623 52.6058 78.3119 52.6075 78.0608 52.6079C77.1134 52.6079 76.1656 52.6102 75.2182 52.6065C74.7208 52.6044 74.7157 52.5942 74.8228 52.12C74.8446 52.0231 74.8617 51.9289 74.8173 51.8351C74.8098 51.8235 74.8016 51.814 74.7934 51.8075C75.164 51.4189 75.2564 50.9252 75.3124 50.4186C75.3055 50.4084 75.298 50.4002 75.2898 50.3934C75.2902 50.3906 75.2909 50.3879 75.2919 50.3848ZM70.4467 59.4526C70.4426 59.4574 70.4382 59.4618 70.4337 59.4666C70.4337 59.4666 70.4337 59.4666 70.4334 59.4666C70.4313 59.4605 70.4289 59.4547 70.4262 59.4495C70.4334 59.4509 70.4402 59.4516 70.4467 59.4526C70.447 59.4526 70.447 59.4526 70.4467 59.4526ZM80.4714 49.5609C80.4684 49.5572 80.4656 49.5534 80.4632 49.5497C80.4663 49.55 80.4694 49.55 80.4725 49.55C80.4718 49.5538 80.4718 49.5575 80.4714 49.5609ZM72.3548 55.9226C72.3548 55.9229 72.3548 55.9229 72.3548 55.9233L72.3575 55.9229C72.3562 55.9267 72.3552 55.9308 72.3538 55.9345V55.9349V55.9352C72.3463 55.9287 72.3381 55.9236 72.3289 55.9202C72.3374 55.9212 72.3463 55.9219 72.3548 55.9226ZM72.915 59.3755C72.9143 59.3769 72.914 59.3786 72.9136 59.3799L72.9133 59.3796C72.913 59.3793 72.913 59.3793 72.9126 59.3789C72.913 59.3779 72.914 59.3769 72.915 59.3755Z" fill="#191919"/>
<path d="M43.4996 59.9186C43.4794 59.9415 43.4689 59.9657 43.4671 59.9909C43.4637 59.9841 43.4607 59.978 43.4569 59.9711C43.4709 59.9534 43.4852 59.936 43.4996 59.9186C43.4412 59.894 43.3829 59.8695 43.3242 59.8446C43.3133 59.8565 43.3024 59.8688 43.2914 59.8807C43.3024 59.8688 43.3133 59.8565 43.3245 59.8446C43.2205 59.7664 43.1011 59.762 42.9786 59.7716C42.895 59.7426 42.8213 59.6829 42.7261 59.6914C42.3198 59.5007 41.9333 59.283 41.6522 58.9187C41.4403 58.5093 41.225 58.1016 41.0534 57.6727C40.8658 57.1924 40.7358 56.6885 40.4666 56.2419C40.2974 55.7308 40.1394 55.215 39.8713 54.7435C39.8198 54.5985 39.7683 54.4535 39.7167 54.3085C39.7304 54.2116 39.6997 54.1263 39.6465 54.0472C39.4929 53.603 39.3766 53.1441 39.1521 52.7272C39.1429 52.7016 39.1289 52.676 39.1095 52.6508L39.1088 52.6494C39.1299 52.5706 39.1071 52.5123 39.03 52.4789C38.6526 51.4383 38.2828 50.395 37.8577 49.3722C37.7605 48.9922 37.6128 48.6305 37.4528 48.2733C37.4579 48.1768 37.4518 48.0837 37.3682 48.0161C37.3668 47.9909 37.3583 47.9687 37.3422 47.9492C37.3545 47.8776 37.3306 47.8213 37.2706 47.7804V47.78C37.2024 47.4174 37.0642 47.082 36.8868 46.762C36.8824 46.7395 36.8697 46.717 36.8489 46.6938C36.7708 46.485 36.6954 46.2751 36.6145 46.0674C36.2045 45.0169 35.793 43.9672 35.3812 42.9178C35.3266 42.7786 35.3034 42.6025 35.1107 42.5838C34.9084 42.5643 34.8013 42.7175 34.7371 42.8676C34.6395 43.0955 34.5174 43.3186 34.4901 43.5728C34.4389 43.6209 34.4069 43.6772 34.4147 43.7502C33.8249 45.2469 33.2305 46.7419 32.6475 48.2416C32.3613 48.9778 32.0481 49.7042 31.8181 50.4616C31.7243 50.553 31.6926 50.6755 31.6465 50.7921C31.3497 51.5437 31.044 52.2919 30.7544 53.0466C30.3999 53.9694 30.0584 54.897 29.7111 55.8226C29.635 55.8915 29.6115 55.9782 29.6244 56.0771C29.5719 56.19 29.5194 56.303 29.4668 56.4159C29.185 57.0344 28.8954 57.6499 28.6252 58.2735C28.5266 58.5011 28.3297 58.6785 28.2956 58.9364C28.2956 58.9364 28.2956 58.9364 28.296 58.9364C28.209 59.0435 28.1226 59.151 28.036 59.2581C28.036 59.2581 28.036 59.2581 28.0357 59.2585C28.0357 59.2585 28.036 59.2585 28.036 59.2581C27.6266 59.4925 27.2052 59.702 26.7535 59.8432C26.7512 59.8439 26.7491 59.8446 26.7467 59.8456C26.1988 59.8729 25.6707 59.7559 25.145 59.6232C24.332 59.4178 23.9117 58.9558 23.81 58.1207C23.7312 57.4732 23.6732 56.8229 23.678 56.1689C23.6848 56.044 23.6995 55.9188 23.6971 55.7939C23.6756 54.6923 23.6964 53.5907 23.6244 52.4888C23.5708 51.6679 23.6009 50.842 23.5859 50.018C23.5814 49.769 23.6234 49.5155 23.5333 49.2719C23.5176 49.2839 23.5019 49.2955 23.4862 49.3071C23.4852 49.3013 23.4838 49.2958 23.4828 49.29C23.4995 49.2839 23.5166 49.2781 23.5333 49.2719C23.5047 48.1147 23.5296 46.9571 23.4603 45.7992C23.4054 44.8808 23.4463 43.9569 23.4374 43.0355C23.4337 42.6547 23.5087 42.2873 23.592 41.9199C23.6752 41.5524 23.9127 41.3044 24.2293 41.1328C24.3992 41.0407 24.5878 40.9762 24.7748 40.9237C25.1235 40.8261 25.4762 40.7521 25.8399 40.7152C26.1289 40.6859 26.2486 40.5102 26.2285 40.2662C26.2067 40.0052 26.1613 39.9711 25.7925 39.9708C24.4374 39.9694 23.0826 39.9701 21.7275 39.9704C21.644 39.9704 21.5597 39.9701 21.4768 39.979C21.3314 39.9943 21.253 40.08 21.24 40.2253C20.616 41.5442 19.9879 42.8611 19.3691 44.1824C18.8386 45.3148 18.319 46.4522 17.7943 47.5873C17.7895 47.5944 17.7861 47.6016 17.783 47.6088C17.3671 48.4054 16.9929 49.2218 16.6306 50.044C16.3085 50.7092 15.9608 51.3626 15.7169 52.063C15.152 53.2605 14.5873 54.4579 14.0224 55.6554C13.8937 55.724 13.9354 55.9226 13.7835 55.9734C13.6931 55.9621 13.6829 55.8813 13.6553 55.8236C13.2442 54.9578 12.8464 54.0851 12.4237 53.225C12.0934 52.5532 11.828 51.8494 11.436 51.2077C11.2279 50.7707 11.0297 50.3285 10.8066 49.8993C10.7138 49.7206 10.6943 49.4961 10.5067 49.3705C10.5067 49.3705 10.5067 49.3702 10.5063 49.3702C9.8339 47.9458 9.16181 46.5211 8.48972 45.0968V45.0964C8.53782 44.9589 8.45184 44.8545 8.39965 44.7437C7.70163 43.2685 6.99542 41.7974 6.31036 40.316C6.19164 40.0592 6.04971 39.967 5.77235 39.9715C4.73896 39.9875 3.70524 39.9814 2.67185 39.9834C2.30886 39.9841 1.94552 39.9855 1.58252 39.9834C1.40921 39.9824 1.27684 40.0271 1.26763 40.2311C1.18131 40.4743 1.30106 40.6036 1.52009 40.6633C1.65314 40.6995 1.79199 40.7149 1.92846 40.7384C2.6026 40.8564 3.26173 41.01 3.77893 41.506C3.98329 41.7987 4.0986 42.1256 4.13545 42.4777C4.20948 43.1859 4.24155 43.8962 4.20948 44.6086C4.14227 46.0991 4.06789 47.5896 3.99591 49.0802C3.89799 51.1002 3.83011 53.1219 3.64042 55.1362C3.55035 56.0935 3.44766 57.0504 3.21124 57.9876C3.04918 58.63 2.71757 59.1332 2.11576 59.4386C2.01716 59.4256 1.92061 59.4178 1.8691 59.5304C1.79336 59.5133 1.73263 59.5328 1.69442 59.6044H1.69408C1.6876 59.6112 1.68112 59.6167 1.67429 59.6215C1.68078 59.6157 1.6876 59.6109 1.69408 59.6044C1.57297 59.5945 1.44571 59.5631 1.36315 59.6945C1.17756 59.6552 1.00595 59.7317 0.834691 59.7733C0.464187 59.863 0.399709 60.2171 0.685604 60.5228C0.685604 60.5228 0.685604 60.5228 0.685604 60.5231C0.727226 60.5272 0.768844 60.5347 0.810807 60.5347C3.0618 60.5354 5.31314 60.5358 7.56414 60.5361C7.62009 60.5361 7.67604 60.5358 7.73199 60.533C7.89848 60.5249 7.97729 60.4351 7.9998 60.2707C8.04552 59.9377 7.95511 59.8309 7.60473 59.7716C6.91524 59.6542 6.23326 59.5096 5.64373 59.0988C5.29642 58.7819 5.12789 58.3735 5.06819 57.9208C4.92592 56.84 4.87748 55.7537 4.88157 54.6633C4.88839 52.876 4.944 51.0913 5.02861 49.3054C5.0965 47.8701 5.09787 46.43 5.14802 44.9924C5.15996 44.6498 5.17292 44.3077 5.18521 43.9651C5.40526 44.3148 5.56526 44.6788 5.72902 45.0415C6.09747 45.8555 6.4516 46.6764 6.8436 47.4784C7.05614 47.9134 7.18442 48.3917 7.49045 48.78V48.7806C7.46827 48.8615 7.48943 48.9215 7.57369 48.9502C7.65352 49.1266 7.73165 49.3036 7.81353 49.479C8.17687 50.2555 8.54123 51.0313 8.90559 51.8071C8.88853 51.9071 8.95233 51.9797 8.99088 52.0609C8.97962 52.1476 9.00726 52.2257 9.0424 52.3028C9.48762 53.2792 9.93318 54.2553 10.377 55.2324C10.7632 56.0822 11.1341 56.9389 11.538 57.7802C11.7226 58.1647 11.8198 58.5946 12.1074 58.9282C12.2425 59.2175 12.3817 59.5048 12.511 59.7965C12.5792 59.9503 12.6754 60.0523 12.8529 60.0506C13.0224 60.0493 13.0944 59.9203 13.15 59.7951C13.499 59.0097 13.9047 58.2496 14.2093 57.4445C14.4386 57.1108 14.5774 56.7318 14.7453 56.3678C15.7415 54.2069 16.7363 52.0452 17.7315 49.8836C17.8161 49.8423 17.8325 49.7543 17.8666 49.6806C18.4374 48.4426 19.0112 47.2062 19.5727 45.964C19.715 45.6488 19.9098 45.3557 19.9893 45.0125C20.2725 44.4182 20.515 43.8041 20.8289 43.2248C20.9319 43.2777 20.9241 43.3374 20.9238 43.3896C20.9163 45.094 20.9261 46.7981 20.9678 48.5023C20.9934 49.5496 21.0097 50.5977 21.006 51.6457C20.9981 53.9636 21.1039 56.2832 20.9094 58.5983C20.7904 58.818 20.671 59.0377 20.5519 59.2578C20.3233 59.4215 20.0807 59.5617 19.8068 59.6286C19.4407 59.718 19.0753 59.8111 18.6987 59.8545C18.4623 59.8818 18.3828 59.9858 18.3998 60.1724C18.4176 60.3635 18.509 60.4385 18.7434 60.4402C19.4984 60.4454 20.253 60.4491 21.008 60.4508C24.5735 60.46 28.1387 60.4675 31.7042 60.4805C31.8594 60.4812 31.9768 60.4757 32.0194 60.2935C32.0627 60.1083 31.9959 59.9913 31.826 59.9333C31.681 59.8838 31.5288 59.8558 31.3825 59.8091C30.9734 59.6788 30.5309 59.618 30.2259 59.2663C30.2382 59.1889 30.2129 59.1329 30.1348 59.1066L30.1345 59.106C30.1607 58.7607 30.1147 58.4137 30.1928 58.0681C30.4961 56.7246 30.9062 55.4132 31.3726 54.1188C31.5131 53.7292 31.4145 53.7306 31.9287 53.7302C33.6543 53.7296 35.3802 53.7279 37.1058 53.7265C37.1092 53.7282 37.112 53.7302 37.1154 53.7323C37.2778 53.9629 37.3279 54.2406 37.4354 54.4945C37.4115 54.5948 37.4477 54.6807 37.4995 54.7626C37.6315 55.1256 37.7595 55.4903 37.898 55.8506C37.9608 56.0133 37.943 56.2153 38.118 56.3268C38.2255 56.6107 38.333 56.8945 38.4404 57.1787C38.4166 57.338 38.4926 57.4718 38.5428 57.6151C38.7287 58.1486 38.9399 58.6788 38.8642 59.2639C38.6837 59.4191 38.4838 59.5437 38.2508 59.5972C38.1013 59.6317 37.9543 59.6627 37.8287 59.7562H37.8284C37.6872 59.7572 37.5527 59.7883 37.4268 59.8521C37.2928 59.92 37.1164 59.9647 37.1239 60.153C37.1304 60.3191 37.2416 60.428 37.4129 60.4607C37.5527 60.5501 37.71 60.5225 37.8615 60.5238C38.5868 60.5293 39.3121 60.5317 40.0374 60.5327C41.1254 60.5344 42.2134 60.5337 43.3017 60.5344C43.4613 60.5344 43.6135 60.5266 43.6582 60.3266C43.6954 60.153 43.7247 59.9875 43.4996 59.9186ZM32.235 51.5506C32.2371 51.5485 32.2391 51.5468 32.2412 51.5448C32.2521 51.5352 32.263 51.526 32.2736 51.5161C32.2749 51.514 32.2756 51.5113 32.2767 51.5093C32.3882 51.3861 32.4237 51.2353 32.4145 51.0681C32.4315 51.0634 32.4479 51.0555 32.4633 51.0446C32.5895 50.8437 32.7536 50.6533 32.6642 50.3868C32.7973 50.4015 32.8518 50.2958 32.8849 50.2013C33.1159 49.5363 33.4431 48.9045 33.5785 48.2068C33.5768 48.1874 33.5738 48.1686 33.569 48.1505C33.8648 47.837 34.2291 46.8292 34.1687 46.4614C34.1872 46.4526 34.2035 46.4409 34.2179 46.4249C34.2186 46.4232 34.2489 46.4065 34.2489 46.4065C34.2489 46.4065 34.2834 46.4072 34.2837 46.4048C34.3015 46.4215 34.3141 46.4433 34.3226 46.4662C34.3414 46.5286 34.353 46.5948 34.3717 46.6579C34.7706 47.8278 35.2397 48.9727 35.6729 50.1306C35.8613 50.6342 36.0011 51.1623 36.287 51.6277C36.3065 51.6427 36.3273 51.6532 36.3495 51.6584C36.3419 51.7457 36.3495 51.8279 36.4303 51.8873L36.432 51.889C36.432 51.8897 36.432 51.8904 36.4324 51.891C36.4272 51.8941 36.4228 51.8979 36.418 51.9023C36.3539 52.0091 36.3784 52.1227 36.4283 52.2162C36.6063 52.5508 36.4406 52.6529 36.1383 52.6754C34.9602 52.7003 33.7812 52.7136 32.6014 52.6702C32.4998 52.6481 32.3981 52.6341 32.294 52.6464C32.2299 52.6522 32.1733 52.6904 32.1064 52.6846C32.0795 52.6754 32.0559 52.6604 32.0348 52.6419C32.018 52.6194 32.0058 52.5935 31.9952 52.5679C31.989 52.5294 31.9856 52.4898 31.9792 52.4509C32.2487 52.2281 32.2838 51.9156 32.2657 51.583C32.2562 51.5707 32.2453 51.5615 32.2337 51.5553C32.2347 51.5533 32.2347 51.5523 32.235 51.5506ZM29.7398 55.8465C29.7394 55.8468 29.7391 55.8468 29.7384 55.8468C29.7377 55.8461 29.7108 55.8219 29.7104 55.8216C29.7203 55.8301 29.7302 55.8383 29.7398 55.8465Z" fill="#191919"/>
<path d="M69.1909 56.4434C69.224 56.2868 69.1881 56.1674 69.0326 56.1019C68.8808 56.0381 68.7542 56.0801 68.6716 56.2159C68.587 56.3551 68.458 56.4792 68.484 56.6655C68.2967 57.007 68.1152 57.3516 67.9207 57.6887C67.5871 58.2679 67.2674 58.8612 66.6345 59.1847C66.3824 59.216 66.176 59.3723 65.9365 59.4399C64.7012 59.7878 63.4464 59.7384 62.1974 59.5746C61.7092 59.5105 61.3117 59.2154 61.1766 58.6951C61.0927 58.3727 61.0176 58.0469 61.0176 57.7067C61.0176 53.9925 61.0098 50.2786 61.0122 46.5643C61.0125 46.0072 61.0047 45.4487 61.1046 44.894C61.1858 44.443 61.3775 44.0779 61.7678 43.8275C61.7706 43.8275 61.7733 43.8265 61.776 43.8245C62.2311 43.6481 62.7071 43.5594 63.1864 43.4785C63.4511 43.4342 63.5572 43.3189 63.5388 43.1449C63.5207 42.9726 63.4071 42.9023 63.124 42.8938C62.5099 42.8757 61.8961 42.8511 61.282 42.845C60.4434 42.8365 59.6049 42.8429 58.7663 42.8429C58.0536 42.8429 57.3406 42.8436 56.6279 42.8412C56.4303 42.8405 56.3092 42.9149 56.2925 43.1268C56.2761 43.3311 56.3679 43.4516 56.5654 43.4768C57.1208 43.5478 57.652 43.701 58.1651 43.9214C58.3654 44.0687 58.4852 44.2789 58.5513 44.5058C58.6448 44.8261 58.7236 45.1516 58.7287 45.4917C58.782 48.8853 58.7618 52.2792 58.7574 55.6731C58.7564 56.3991 58.7468 57.1254 58.7223 57.8511C58.7062 58.3253 58.6806 58.8053 58.3439 59.1932C57.9209 59.5354 57.4334 59.7182 56.8974 59.7892C56.7735 59.8056 56.6511 59.8411 56.532 59.8806C56.3188 59.9516 56.2714 60.0577 56.2949 60.3023C56.315 60.5118 56.4453 60.5462 56.6159 60.5401C56.6719 60.5381 56.7278 60.5387 56.7838 60.5387C59.9163 60.5374 63.0486 60.5367 66.1811 60.5346C66.7403 60.5343 67.2998 60.5193 67.859 60.5292C68.1186 60.5336 68.3066 60.4337 68.3847 60.201C68.4768 59.9267 68.5863 59.6504 68.5672 59.3498C68.571 59.3242 68.5744 59.2986 68.5771 59.273C68.6696 59.1758 68.6692 59.0567 68.6559 58.9349C68.7149 58.677 68.7777 58.4198 68.8326 58.1608C68.9541 57.5887 69.0701 57.0155 69.1909 56.4434Z" fill="#191919"/>
<path d="M97.6374 51.2042C97.5432 51.0906 97.3938 51.0987 97.2744 51.0407C96.9752 50.7948 96.5723 50.8333 96.2379 50.6853C96.2758 50.5624 96.373 50.5757 96.4474 50.5467C97.2911 50.2216 98.0465 49.7706 98.5954 49.0286C99.4677 47.9665 99.6322 46.782 99.1866 45.503C99.0324 45.0605 98.8564 44.6204 98.4415 44.3393C98.3569 44.2584 98.272 44.1772 98.1874 44.096C98.1249 43.8661 97.9154 43.7931 97.7408 43.6907C96.8534 43.1701 95.8726 42.964 94.8634 42.9255C93.7649 42.8835 92.6663 42.8197 91.5637 42.8784C90.7152 42.9234 89.8623 42.8866 89.0114 42.8876C88.4676 42.8883 87.9235 42.8883 87.3796 42.8955C87.2384 42.8972 87.0535 42.8405 87.0272 43.0766C86.9713 43.3117 87.0903 43.4035 87.3049 43.4464C87.6195 43.5092 87.9347 43.5662 88.2421 43.6658C88.6948 43.8118 88.9589 44.1107 89.1039 44.5576C89.2451 44.9933 89.2485 45.4402 89.255 45.8841C89.312 49.7252 89.3072 53.5667 89.2571 57.4079C89.2492 58.0066 89.2496 58.6118 88.9521 59.1628C88.7422 59.4146 88.4755 59.5651 88.1636 59.6705C87.8194 59.7868 87.4622 59.8288 87.1139 59.9171C86.8075 59.9946 86.7799 60.041 86.9259 60.332C86.9293 60.3422 86.9341 60.3525 86.9419 60.3637L86.9436 60.3661C86.9975 60.5073 87.1227 60.4736 87.2271 60.4746C87.9204 60.4831 88.6146 60.5094 89.3072 60.4852C89.749 60.4695 90.1939 60.5213 90.6337 60.4408C91.2454 60.4968 91.8571 60.4452 92.4681 60.433C93.5114 60.4118 94.5567 60.3937 95.5863 60.1894C95.8579 60.2191 96.1179 60.1965 96.3464 60.026L96.344 60.0219C96.3512 60.015 96.3587 60.0096 96.3666 60.0048C96.3591 60.0103 96.3516 60.0154 96.344 60.0219C96.4689 60.0461 96.5924 60.0645 96.6777 59.9355C96.7773 59.956 96.8664 59.9424 96.9326 59.8561C96.9868 59.8554 97.0462 59.869 97.0943 59.8513C97.6562 59.6462 98.1829 59.3743 98.6595 59.0103C99.1457 58.6391 99.5933 58.2335 99.8611 57.6672C100.219 57.0302 100.482 56.3595 100.502 55.6209C100.521 54.886 100.512 54.1501 100.121 53.4855C99.6397 52.3467 98.7475 51.6569 97.6374 51.2042ZM96.5948 58.8438C96.517 58.8292 96.4635 58.8783 96.4085 58.9185C95.2414 59.7766 93.9235 59.7865 92.5708 59.6002C92.5312 59.5285 92.4708 59.5108 92.3947 59.5323L92.39 59.5303C92.0242 59.3242 91.7506 59.0455 91.6762 58.6139C91.6264 58.3256 91.5657 58.0404 91.5664 57.7443C91.5695 56.4451 91.5606 55.1463 91.5579 53.8475C91.5565 53.1075 91.5579 52.3675 91.5626 51.6269C91.5644 51.3174 91.5698 51.3065 91.8564 51.3086C92.5817 51.3133 93.3067 51.268 94.0313 51.372C95.1142 51.5283 96.0749 51.9151 96.8299 52.7367C96.9114 52.8254 96.9643 52.9557 97.1089 52.9714C97.7152 53.7451 97.9236 54.6547 97.9035 55.6021C97.8776 56.8337 97.5545 57.9745 96.5948 58.8438ZM96.7074 46.1635C96.7582 47.2153 96.8333 48.2708 96.3 49.2462C96.2741 49.294 96.311 49.2329 96.2977 49.2868C96.3007 49.3121 96.3086 49.3339 96.3219 49.3523C96.038 49.4199 95.8828 49.6294 95.7555 49.8692C95.7463 49.8576 95.733 49.8477 95.7153 49.8395C95.6146 49.8102 95.5181 49.8323 95.4311 49.8781C94.3875 50.4318 93.25 50.4011 92.1187 50.4208C91.8206 50.4263 91.6838 50.3083 91.6885 50.0029C91.7227 47.9259 91.6159 45.8476 91.7493 43.7719C91.8172 43.8187 91.8949 43.8118 91.9731 43.805C92.5309 43.7572 93.0904 43.7729 93.6489 43.7856C94.9859 43.8149 95.9773 44.3904 96.5146 45.6551C96.5641 45.7728 96.5801 45.9325 96.7582 45.9407C96.7036 46.0052 96.7033 46.0836 96.7074 46.1635Z" fill="#191919"/>
</g>
<defs>
<clipPath id="clip0_2377_8869">
<rect width="100" height="100" fill="white" transform="translate(0.507507 0.255859)"/>
</clipPath>
</defs>
</svg>
