<svg width="20" height="20" viewBox="0 0 20 20" fill="none" xmlns="http://www.w3.org/2000/svg">
  <g clipPath="url(#clip0_66_1330)">
    <path
      d="M20.0001 10.061C20.0001 4.50354 15.5226 -0.00146484 10.0001 -0.00146484C4.47506 -0.000214844 -0.00244141 4.50354 -0.00244141 10.0623C-0.00244141 15.0835 3.65506 19.246 8.43506 20.001V12.9698H5.89756V10.0623H8.43756V7.84354C8.43756 5.32229 9.93131 3.92979 12.2151 3.92979C13.3101 3.92979 14.4538 4.12604 14.4538 4.12604V6.60104H13.1926C11.9513 6.60104 11.5638 7.37729 11.5638 8.17354V10.061H14.3363L13.8938 12.9685H11.5626V19.9998C16.3426 19.2448 20.0001 15.0823 20.0001 10.061Z"
      fill="var(--foreground)" />
  </g>
  <defs>
    <clipPath id="clip0_66_1330">
      <rect width="20" height="20" fill="var(--background)" />
    </clipPath>
  </defs>
</svg>