<svg width="101" height="101" viewBox="0 0 101 101" fill="none" xmlns="http://www.w3.org/2000/svg">
<g clip-path="url(#clip0_2336_9670)">
<path d="M25.3101 51.8291C25.3101 51.8291 25.2466 51.8291 25.183 51.8925C25.1188 51.8925 25.1188 51.8925 25.055 51.8925H24.9909C24.9909 51.9559 24.9267 51.9559 24.8631 51.9559C24.7992 51.9559 24.7356 51.9559 24.6719 51.9559C24.6719 51.9559 24.608 51.9559 24.5439 51.9559C24.48 51.9559 24.48 51.9559 24.4159 51.9559H24.3523C24.3523 51.8925 24.2882 51.8925 24.2248 51.8925C24.2248 51.8925 24.1611 51.8925 24.1611 51.8291H24.097C24.097 51.8291 24.0331 51.8291 24.0331 51.7645H23.9675C23.9675 51.7645 23.9033 51.7645 23.9033 51.7011H23.8395C23.0083 51.1255 23.0083 49.8467 23.8395 49.2711C23.9033 49.2711 23.9033 49.2711 23.9033 49.2711L23.9675 49.2075H24.0314C24.0314 49.2075 24.0314 49.2075 24.0955 49.1435C24.0955 49.1435 24.0955 49.1435 24.1591 49.1435L24.2233 49.0796C24.2866 49.0796 24.2866 49.0796 24.2866 49.0796H24.3506C24.4144 49.0796 24.4144 49.0796 24.4144 49.0796C24.4783 49.0796 24.4783 49.0155 24.5424 49.0155C24.6063 49.0155 24.6702 49.0155 24.6702 49.0155C24.734 49.0155 24.7975 49.0155 24.8614 49.0155V49.0796C24.9255 49.0796 24.9894 49.0796 24.9894 49.0796H25.0532C25.0532 49.0796 25.1174 49.0796 25.1812 49.0796V49.1435C25.2451 49.1435 25.2451 49.1435 25.3085 49.2075C26.4611 49.7189 26.4611 51.3172 25.3101 51.8291ZM20.0033 57.1354V51.2537H21.9855C22.1767 52.0207 22.7519 52.7241 23.5198 53.0437C22.8805 54.8334 21.6658 56.3039 20.0033 57.1354ZM17.1901 58.0305V45.0508C18.0211 44.7952 18.6606 44.2196 18.9802 43.4524C21.0897 44.2196 22.6881 45.882 23.5197 47.928C22.7524 48.3116 22.1766 48.9513 21.9854 49.7185H19.2359C18.8522 49.7185 18.4687 50.038 18.4687 50.4858V57.7742C18.085 57.9024 17.6376 58.0305 17.1901 58.0305ZM14.2486 57.7743V50.4862C14.2486 50.0386 13.8651 49.7189 13.4813 49.7189H10.6041C10.4125 48.9519 9.90099 48.3756 9.19758 47.9925C9.9648 45.8826 11.6272 44.22 13.7371 43.4527C14.1208 44.2841 14.824 44.8595 15.6552 45.0514V58.0947C15.2077 58.0305 14.6962 57.9664 14.2486 57.7743ZM9.19758 52.979C9.90094 52.6596 10.4125 52.0207 10.6041 51.2537H12.7141V57.1354C11.0517 56.2404 9.77296 54.7696 9.19758 52.979ZM6.44837 50.4862C6.44837 49.8467 6.83169 49.3351 7.40728 49.1435C7.40728 49.0796 7.47119 49.0796 7.53526 49.0796H7.59939C7.66303 49.0796 7.66303 49.0155 7.66303 49.0155C7.72689 49.0155 7.72689 49.0155 7.72689 49.0155C7.79102 49.0155 7.85467 49.0155 7.91879 49.0155C7.91879 49.0155 7.98265 49.0155 8.04678 49.0155C8.04678 49.0155 8.04678 49.0155 8.11085 49.0155C8.11085 49.0155 8.11085 49.0796 8.1745 49.0796H8.23841H8.30248H8.36613C8.36613 49.1435 8.43025 49.1435 8.43025 49.1435H8.49411L8.55824 49.2075H8.6221C8.6221 49.2075 8.6221 49.2711 8.68601 49.2711C8.68601 49.2711 8.68601 49.2711 8.74987 49.2711V49.3352C8.814 49.3352 8.814 49.3352 8.814 49.3993C9.51714 49.9747 9.51714 51.0618 8.814 51.6368C8.74987 51.7011 8.74987 51.7011 8.74987 51.7011C8.68601 51.7011 8.68601 51.7011 8.68601 51.7645H8.6221C8.6221 51.7645 8.55824 51.7645 8.55824 51.8291H8.49417H8.43031C8.43031 51.8925 8.36618 51.8925 8.36618 51.8925H8.30253C8.30253 51.8925 8.23846 51.8925 8.23846 51.9559H8.17455C8.1109 51.9559 8.1109 51.9559 8.1109 51.9559C8.04683 51.9559 8.04683 51.9559 8.04683 51.9559C7.9827 51.9559 7.91884 51.9559 7.91884 51.9559C7.85472 51.9559 7.79107 51.9559 7.72695 51.9559H7.66309C7.66309 51.9559 7.66309 51.9559 7.59944 51.9559L7.53531 51.8925H7.47124H7.40733C6.83169 51.6368 6.44837 51.125 6.44837 50.4862ZM16.3585 40.8954C16.8703 40.8954 17.3818 41.1511 17.6376 41.5986C17.8933 42.0464 17.8933 42.6216 17.6376 43.0695C17.0622 44.0922 15.6552 44.0922 15.0797 43.0695C14.5046 42.1097 15.2077 40.8954 16.3585 40.8954ZM27.5477 50.4862C27.5477 49.0155 26.3972 47.8006 24.9904 47.6729C24.0313 44.9873 21.9216 42.8774 19.1719 41.9823C18.7245 38.7214 13.9931 38.7214 13.5455 41.9823C10.7962 42.8137 8.68612 44.9873 7.72689 47.6729C4.21041 47.8647 4.14628 53.1074 7.72689 53.2995C8.49417 55.7289 10.3484 57.7743 12.7141 58.7973V61.1632C12.7141 62.1869 14.2486 62.1869 14.2486 61.1632V59.3095C14.6962 59.4374 15.2077 59.5009 15.6551 59.5009V61.1632C15.6551 62.1869 17.1901 62.1869 17.1901 61.1632V59.5009C17.6375 59.5009 18.0849 59.4374 18.4687 59.3095V61.1632C18.4687 62.1869 20.0032 62.1869 20.0032 61.1632V58.7973C22.3689 57.7743 24.2231 55.7284 24.9904 53.2995C26.3972 53.1712 27.5477 51.956 27.5477 50.4862Z" fill="#E4E4E4"/>
<path d="M34.2616 52.2756H37.3304L35.7962 47.6721M38.0339 54.3216H33.5582L32.7271 56.8794H30.0415L34.5813 44.5392H36.9469L41.5506 56.8794H38.865L38.0339 54.3216Z" fill="#E4E4E4"/>
<path d="M51.9728 53.2986L53.6347 44.5392H56.1927L53.4435 56.8794H50.8854L48.9035 48.6319L46.8574 56.8794H44.3L41.6147 44.5392H44.1082L45.7705 53.2986L47.8164 44.5392H49.9904" fill="#E4E4E4"/>
<path d="M63.9289 53.6188C63.9289 53.171 63.801 52.7875 63.4175 52.5315C63.0975 52.2764 62.4584 52.0206 61.627 51.7644C60.7322 51.445 60.0286 51.189 59.5176 50.8696C58.1108 50.1662 57.4073 49.1434 57.4073 47.8646C57.4073 47.1613 57.5993 46.5856 57.9825 46.0743C58.3667 45.5628 58.8778 45.1152 59.5812 44.8594C60.2848 44.5398 61.1162 44.412 61.9471 44.412C62.8421 44.412 63.6096 44.5398 64.3122 44.8594C65.0153 45.1793 65.5268 45.6267 65.9106 46.2021C66.2945 46.7775 66.4862 47.4809 66.4862 48.1842H63.9289C63.9289 47.6091 63.801 47.2251 63.4175 46.9052C63.0341 46.5856 62.5866 46.3939 61.9471 46.3939C61.3076 46.3939 60.7963 46.5219 60.4761 46.8416C60.1559 47.0975 59.9642 47.4167 59.9642 47.8646C59.9642 48.2479 60.1559 48.568 60.5396 48.8235C60.9879 49.1434 61.5627 49.3991 62.3301 49.591C63.8006 50.0387 64.8234 50.6138 65.5268 51.2535C66.1665 51.8924 66.4861 52.6599 66.4861 53.6188C66.4861 54.7055 66.1024 55.5369 65.2715 56.1126C64.4401 56.7512 63.3531 57.0719 62.0109 57.0719C61.0516 57.0719 60.2207 56.88 59.4532 56.5599C58.6861 56.1759 58.0462 55.7283 57.6631 55.0894C57.2156 54.514 57.0236 53.8102 57.0236 52.9788H59.5812C59.5812 54.3857 60.4125 55.0258 62.0109 55.0258C62.65 55.0258 63.0987 54.8981 63.418 54.7055C63.801 54.4507 63.9289 54.0664 63.9289 53.6188Z" fill="#E4E4E4"/>
<path d="M75.1824 44.4753H73.5839V56.816H75.1824V44.4753Z" fill="#E4E4E4"/>
<path d="M79.082 52.3399C79.082 53.3629 79.3378 54.1299 79.7853 54.7699C80.2333 55.4098 80.8719 55.6653 81.6396 55.6653C82.4706 55.6653 83.1101 55.4097 83.5574 54.7699C84.0055 54.1299 84.2608 53.2353 84.2608 52.1484C84.2608 51.1254 84.0055 50.2942 83.5574 49.7188C83.046 49.0795 82.4706 48.7595 81.6396 48.7595C80.8719 48.7595 80.232 49.0795 79.7853 49.6547C79.338 50.2938 79.082 51.1888 79.082 52.3399ZM77.4836 52.1483C77.4836 51.2525 77.6751 50.4216 77.9956 49.7184C78.3792 49.0148 78.8907 48.4394 79.4661 48.0559C80.1051 47.6722 80.8727 47.4803 81.6399 47.4803C82.9181 47.4803 83.8774 47.9279 84.6451 48.7593C85.4126 49.6546 85.86 50.8054 85.86 52.212V52.34C85.86 53.235 85.6678 54.0014 85.2844 54.7051C84.9652 55.4081 84.5178 55.9834 83.8774 56.3674C83.2385 56.7511 82.4706 56.943 81.6399 56.943C80.4252 56.943 79.4022 56.559 78.6348 55.6645C77.8677 54.8326 77.4837 53.6822 77.4837 52.2757L77.4836 52.1483Z" fill="#E4E4E4"/>
<path d="M96.5377 45.8183H92.5735V56.816H90.9749V45.8183H87.011V44.4753H96.5377" fill="#E4E4E4"/>
<mask id="mask0_2336_9670" style="mask-type:luminance" maskUnits="userSpaceOnUse" x="0" y="32" width="101" height="38">
<path d="M100.694 32.2631H0.693726V69.2831H100.694V32.2631Z" fill="white"/>
</mask>
<g mask="url(#mask0_2336_9670)">
<path d="M1.52502 33.0942H100.118V68.3882H1.52502V33.0942ZM1.52502 33.0942H3.44326" stroke="#E4E4E4" stroke-width="2.88" stroke-miterlimit="10" stroke-linecap="round" stroke-linejoin="round"/>
</g>
</g>
<defs>
<clipPath id="clip0_2336_9670">
<rect width="100" height="100" fill="white" transform="translate(0.693726 0.773071)"/>
</clipPath>
</defs>
</svg>
