<svg width="101" height="101" viewBox="0 0 101 101" fill="none" xmlns="http://www.w3.org/2000/svg">
<path fill-rule="evenodd" clip-rule="evenodd" d="M38.2251 26.5249C38.2251 22.7564 41.2491 19.7228 45.0063 19.7228C48.7635 19.7228 51.7875 22.7564 51.7875 26.5249C51.7875 30.2935 48.7635 33.3271 45.0063 33.3271C41.2491 33.3271 38.2251 30.2935 38.2251 26.5249ZM52.4437 48.4688C52.4437 43.9705 56.053 40.3498 60.5374 40.3498C65.0217 40.3498 68.631 43.9714 68.631 48.4688C68.631 52.9662 65.0217 56.5878 60.5374 56.5878C56.053 56.5878 52.4437 52.9671 52.4437 48.4688ZM67.756 72.6062C67.756 69.0809 70.5849 66.2424 74.0997 66.2424C77.6145 66.2424 80.4434 69.0809 80.4434 72.6062C80.4434 76.1316 77.6145 78.97 74.0997 78.97C70.5849 78.97 67.756 76.1316 67.756 72.6062ZM43.4751 68.2182C43.4751 65.1793 45.9145 62.732 48.9437 62.732C51.973 62.732 54.4124 65.1785 54.4124 68.2182C54.4124 71.2579 51.9738 73.7044 48.9437 73.7044C45.9137 73.7044 43.4751 71.2579 43.4751 68.2182ZM21.3816 51.5409C21.3816 48.502 23.8211 46.0547 26.8503 46.0547C29.8795 46.0547 32.319 48.5012 32.319 51.5409C32.319 54.5806 29.8804 57.0271 26.8503 57.0271C23.8202 57.0271 21.3816 54.5806 21.3816 51.5409Z" fill="#E4E4E4"/>
<path fill-rule="evenodd" clip-rule="evenodd" d="M46.1911 25.2203L61.6644 47.3016L58.8014 49.3202L43.3281 27.2398L46.1911 25.2203Z" fill="#E4E4E4"/>
<path fill-rule="evenodd" clip-rule="evenodd" d="M61.8857 47.3112L75.5784 71.3069L72.5405 73.0507L58.8486 49.055L61.8857 47.3112Z" fill="#E4E4E4"/>
<path fill-rule="evenodd" clip-rule="evenodd" d="M60.0326 46.5806L60.3222 50.0796L26.9676 52.8577L26.678 49.3587L60.0326 46.5806Z" fill="#E4E4E4"/>
<path fill-rule="evenodd" clip-rule="evenodd" d="M58.8093 47.4599L61.807 49.272L50.0655 68.8184L47.0678 67.0063L58.8093 47.4599ZM84.5996 15.7731H66.8811C66.2248 15.7731 65.7873 16.2114 65.7873 17.0899V23.4537C65.7873 24.1117 66.2248 24.551 66.8811 24.551H76.9434V34.4252C76.9434 35.0832 77.3809 35.5224 78.2559 35.5224H84.5996C85.2558 35.5224 85.6933 35.0841 85.6933 34.4252V16.8703C85.6933 16.2114 85.2558 15.7731 84.5996 15.7731ZM16.788 85.7731H34.5065C35.1627 85.7731 35.6002 85.3338 35.6002 84.4562V78.0924C35.6002 77.4344 35.1627 76.9952 34.5065 76.9952H24.4441V67.1209C24.4441 66.4621 24.0066 66.0237 23.1316 66.0237H16.788C16.1317 66.0237 15.6942 66.4621 15.6942 67.1209V84.6758C15.6942 85.3338 16.1317 85.7731 16.788 85.7731Z" fill="#E4E4E4"/>
</svg>
