<svg width="101" height="101" viewBox="0 0 101 101" fill="none" xmlns="http://www.w3.org/2000/svg">
<g clip-path="url(#clip0_2336_13590)">
<g clip-path="url(#clip1_2336_13590)">
<path d="M43.6722 27.9627C43.7677 27.9633 43.8632 27.9639 43.9615 27.9645C44.1945 27.9661 44.4275 27.9685 44.6604 27.9711C44.4545 28.1044 44.4545 28.1044 44.2444 28.2404C39.1648 32.1873 36.8419 39.5535 34.6916 45.2804C34.6352 45.4296 34.6352 45.4296 34.5777 45.5818C33.8575 47.492 33.165 49.4483 32.8973 51.4737C32.8812 51.5914 32.865 51.709 32.8484 51.8302C32.4321 55.103 32.9232 58.4608 34.9512 61.196C37.0382 63.7745 40.0192 65.5027 43.2735 66.3427C43.4005 66.376 43.5274 66.4093 43.6583 66.4437C45.0971 66.7828 46.4798 66.8106 47.9534 66.8155C48.2118 66.8178 48.4703 66.8202 48.7287 66.8228C49.4022 66.8292 50.0757 66.8332 50.7493 66.8368C51.4392 66.8408 52.1292 66.8471 52.8191 66.8531C54.168 66.8647 55.5168 66.8737 56.8657 66.8813C56.6941 67.3934 56.5144 67.8591 56.2459 68.3307C56.1787 68.4495 56.1116 68.5683 56.0424 68.6906C55.9708 68.8155 55.8992 68.9404 55.8255 69.0691C55.752 69.1985 55.6786 69.3278 55.6029 69.461C55.4516 69.7273 55.2999 69.9933 55.1479 70.2592C54.9347 70.6323 54.7225 71.0058 54.5106 71.3795C54.3855 71.5996 54.2603 71.8196 54.1351 72.0396C54.0474 72.1939 54.0474 72.1939 53.958 72.3513C53.5532 73.0588 53.5532 73.0588 53.3983 73.2092C53.1185 73.2224 52.8382 73.2259 52.5581 73.2258C52.469 73.2259 52.3798 73.2261 52.288 73.2263C51.9856 73.2266 51.6832 73.226 51.3808 73.2254C51.1632 73.2255 50.9457 73.2256 50.7282 73.2258C50.1276 73.2261 49.527 73.2255 48.9264 73.2248C48.2798 73.2243 47.6332 73.2245 46.9866 73.2246C45.8654 73.2246 44.7442 73.2242 43.623 73.2235C42.0019 73.2224 40.3807 73.222 38.7596 73.2218C36.1297 73.2215 33.4999 73.2206 30.87 73.2194C28.3147 73.2181 25.7593 73.2172 23.2039 73.2166C23.0465 73.2166 22.8891 73.2165 22.727 73.2165C21.9374 73.2163 21.1479 73.2162 20.3583 73.216C13.8035 73.2146 7.24859 73.2122 0.693726 73.2092C1.18495 72.959 1.65302 72.8317 2.19338 72.7043C7.04358 71.495 11.0841 68.3566 14.1473 64.5924C14.2667 64.4498 14.3862 64.3073 14.5059 64.1649C16.6924 61.5429 18.4892 58.6186 19.9773 55.5734C20.1138 55.2973 20.2557 55.0242 20.3978 54.7508C21.1569 53.246 21.6769 51.6909 22.183 50.0937C23.8687 44.7744 26.1719 39.6217 29.9586 35.3762C30.0564 35.2663 30.1542 35.1564 30.255 35.0433C33.6236 31.3387 38.3377 27.8975 43.6722 27.9627Z" fill="#E4E4E4"/>
<path d="M47.8504 27.9711C65.2887 27.9711 82.727 27.9711 100.694 27.9711C100.694 28.0155 100.694 28.0599 100.694 28.1057C100.432 28.1622 100.432 28.1622 100.165 28.2198C98.5899 28.5725 97.1435 29.0122 95.7007 29.7214C95.6099 29.7658 95.5192 29.8102 95.4257 29.8559C93.1809 30.9747 91.2656 32.4666 89.4593 34.1644C89.3556 34.2597 89.2519 34.3549 89.1451 34.4531C88.3958 35.1561 87.7455 35.9289 87.1015 36.7225C87.034 36.8046 86.9666 36.8867 86.8971 36.9713C85.0984 39.1667 83.6001 41.5168 82.2471 43.9929C82.1993 44.0804 82.1515 44.1678 82.1022 44.258C81.765 44.8806 81.4469 45.511 81.1375 46.1471C81.0832 46.2582 81.0288 46.3693 80.9728 46.4838C80.0997 48.2895 79.4602 50.105 78.8978 52.0217C77.4482 56.9358 74.9537 61.9706 71.4288 65.8041C71.3693 65.8691 71.3099 65.934 71.2486 66.0009C70.8075 66.4808 70.3571 66.9513 69.9031 67.4198C69.807 67.522 69.7108 67.6242 69.6117 67.7295C68.0359 69.3448 66.1109 70.5897 64.0779 71.5935C63.946 71.6595 63.814 71.7254 63.6781 71.7934C61.4649 72.8323 59.1781 73.2725 56.727 73.2092C56.8643 73.1203 57.0016 73.0314 57.1431 72.9399C63.0787 68.3278 67.01 57.4661 68.3775 50.3208C68.3951 50.2295 68.4127 50.1381 68.4309 50.0439C69.0409 46.7256 68.6152 43.2356 66.7131 40.3577C66.3651 39.8888 65.9953 39.4464 65.6036 39.0113C65.5315 38.9301 65.4595 38.8489 65.3852 38.7652C63.3595 36.6452 60.3838 35.4279 57.5592 34.7029C57.4741 34.6798 57.389 34.6567 57.3014 34.6329C56.0507 34.3385 54.7669 34.3858 53.4882 34.3779C53.229 34.3754 52.9698 34.3727 52.7106 34.37C52.0325 34.3631 51.3544 34.3578 50.6763 34.3528C49.9826 34.3473 49.289 34.3405 48.5954 34.3337C47.2375 34.3207 45.8796 34.3094 44.5217 34.299C44.693 33.7878 44.8719 33.3242 45.1415 32.8543C45.2095 32.7348 45.2774 32.6153 45.3474 32.4922C45.4182 32.3692 45.489 32.2463 45.562 32.1196C46.3474 30.7474 47.0968 29.3611 47.8504 27.9711Z" fill="#E4E4E4"/>
</g>
</g>
<defs>
<clipPath id="clip0_2336_13590">
<rect width="100" height="100" fill="white" transform="translate(0.693726 0.590088)"/>
</clipPath>
<clipPath id="clip1_2336_13590">
<rect width="100" height="45.2381" fill="white" transform="translate(0.693726 27.9711)"/>
</clipPath>
</defs>
</svg>
