<svg width="101" height="101" viewBox="0 0 101 101" fill="none" xmlns="http://www.w3.org/2000/svg">
<g clip-path="url(#clip0_2336_9599)">
<path d="M55.5889 43.4846C55.5804 43.3314 55.5862 43.1769 55.5702 43.0244C55.5504 42.8343 55.4487 42.7832 55.2856 42.8732C55.2375 42.8998 55.1877 42.9336 55.1546 42.9766C54.8336 43.3904 54.3829 43.4304 53.9084 43.4304C52.6228 43.431 51.3374 43.4467 50.0518 43.4467C47.6623 43.4467 45.2732 43.4358 42.8837 43.4389C42.4043 43.4396 41.9588 43.3969 41.6613 42.9565C41.6463 42.9343 41.621 42.9176 41.5982 42.9019C41.4347 42.7886 41.3416 42.819 41.2993 43.0094C41.2782 43.1039 41.2768 43.2031 41.2696 43.3007C41.2017 44.2198 41.1325 45.1389 41.0676 46.058C41.039 46.4619 41.0196 46.8662 40.995 47.2705C40.9875 47.394 41.0165 47.4953 41.1533 47.5253C41.2805 47.5533 41.3696 47.4919 41.4293 47.3855C41.4562 47.3374 41.4743 47.2838 41.4927 47.2313C41.6722 46.7161 41.9144 46.2293 42.1532 45.74C42.6186 44.7872 43.3783 44.3013 44.4261 44.1949C45.1787 44.1185 45.9306 44.0946 46.6849 44.0813C47.2816 44.0707 47.2714 44.0564 47.2707 44.6824C47.2686 48.44 47.2724 52.1976 47.2676 55.9548C47.2666 56.8063 47.242 57.6582 47.2233 58.5098C47.2154 58.8748 47.1704 59.2334 46.9486 59.5432C46.4509 60.0361 45.8306 60.2408 45.151 60.3115C44.9996 60.3271 44.8498 60.3684 44.7014 60.406C44.4892 60.4595 44.48 60.6223 44.4882 60.802C44.4974 61.0054 44.6137 61.063 44.7921 61.0586C44.8761 61.0566 44.96 61.0589 45.0436 61.0589C47.3082 61.0589 49.5725 61.0589 51.8372 61.0586C51.9211 61.0586 52.005 61.0552 52.0886 61.0583C52.2633 61.0644 52.3387 60.9573 52.3745 60.8092C52.4147 60.6407 52.3683 60.4994 52.207 60.4227C52.1343 60.3879 52.0459 60.3852 51.9641 60.3701C51.4718 60.2787 50.9771 60.2112 50.5018 60.0279C49.9625 59.8198 49.726 59.407 49.65 58.8834C49.5903 58.4705 49.5578 58.0506 49.5565 57.6333C49.5449 54.0146 49.5425 50.3955 49.5387 46.7768C49.5381 46.0082 49.5439 45.2399 49.5425 44.4712C49.5421 44.3184 49.5507 44.1871 49.7533 44.1891C50.7581 44.1983 51.7665 44.1376 52.7634 44.3082C53.1343 44.3716 53.4986 44.4787 53.8104 44.7087C53.8688 44.7517 53.9285 44.7824 54.0032 44.764C54.2413 44.9066 54.3717 45.1409 54.5074 45.3668C54.7749 45.811 54.9581 46.2951 55.1488 46.7748C55.2263 46.9692 55.2921 47.1681 55.3689 47.3629C55.4067 47.4598 55.476 47.5328 55.5896 47.5212C55.723 47.5076 55.7803 47.41 55.7895 47.2903C55.7981 47.1797 55.7902 47.0675 55.7837 46.9563C55.7199 45.7987 55.6537 44.6418 55.5889 43.4846Z" fill="#E4E4E4"/>
<path d="M86.2981 60.4513C86.1395 60.4042 85.9798 60.3605 85.8229 60.3087C85.3344 60.1483 84.8561 59.9703 84.5354 59.5315C84.4623 59.26 84.2754 59.0471 84.1567 58.798C83.6541 57.7442 83.2922 56.6347 82.8541 55.5556C82.6883 55.1472 82.6177 54.6993 82.3546 54.3308C82.1373 53.743 81.9251 53.1535 81.7013 52.5684C81.369 51.7005 81.0811 50.8158 80.7078 49.9636C80.7051 49.937 80.6949 49.9111 80.6741 49.8851C80.6345 49.7524 80.6031 49.6166 80.5536 49.4877C80.2053 48.5798 79.8529 47.6734 79.5029 46.7662C79.073 45.6527 78.6482 44.5374 78.2105 43.4269C78.1556 43.2877 78.1385 43.0782 77.9018 43.0915C77.7148 43.0813 77.6159 43.215 77.5616 43.3515C77.33 43.9315 77.0441 44.4907 76.8868 45.0993C76.9011 45.1088 76.9151 45.1184 76.9295 45.1276C76.9274 45.129 76.9257 45.1303 76.9237 45.1317C76.9114 45.1208 76.8991 45.1102 76.8868 45.0993C76.7504 45.303 76.677 45.5305 76.6306 45.7687C76.4645 46.1879 76.2983 46.6069 76.1322 47.0258C76.0967 47.0838 76.0517 47.1381 76.0274 47.2005C75.7501 47.9228 75.4758 48.646 75.2008 49.3693C75.2165 49.3823 75.2318 49.3949 75.2475 49.4078C75.2468 49.4085 75.2462 49.4089 75.2451 49.4092C75.2305 49.3959 75.2155 49.3826 75.2004 49.3693C75.1387 49.4426 75.125 49.5313 75.1175 49.6224C74.993 49.8333 74.9006 50.0557 74.876 50.302C74.6242 50.9448 74.3721 51.5875 74.1203 52.2299C73.5004 53.5366 73.0576 54.9132 72.522 56.2533C72.5285 56.2584 72.5346 56.2632 72.5411 56.2683C72.5404 56.2683 72.5397 56.2683 72.539 56.2686C72.5387 56.2686 72.522 56.2533 72.522 56.2533C72.4725 56.3028 72.449 56.3614 72.4589 56.4317C72.2494 56.9441 72.0491 57.461 71.828 57.9683C71.5074 58.7045 71.2119 59.4606 70.519 59.9525C70.1526 60.0832 69.7985 60.2466 69.4201 60.3472C69.2768 60.3855 69.1219 60.4353 69.0858 60.6219C69.0315 60.9023 69.1554 61.0419 69.487 61.0422C71.1594 61.0446 72.8317 61.0436 74.5041 61.0425C74.614 61.0425 74.7296 61.0599 74.8173 60.9661C74.9859 60.5826 74.9592 60.5035 74.616 60.3752C74.5516 60.351 74.4854 60.3285 74.4182 60.3145C73.9685 60.2224 73.5434 60.0651 73.1419 59.844C73.1101 59.8188 73.0784 59.7939 73.0467 59.7686C72.913 59.5759 72.8805 59.3647 72.9031 59.1327C72.9464 58.6878 73.0245 58.2522 73.1374 57.8185C73.221 57.4975 73.3872 57.1949 73.3752 56.8503C73.4421 56.7835 73.4605 56.6992 73.4629 56.6088C73.7478 55.9572 73.9006 55.2602 74.1541 54.5973C74.2991 54.2172 74.3073 54.1961 74.7218 54.1964C76.2171 54.1971 77.7124 54.1988 79.2078 54.2008C79.9143 54.2019 79.9143 54.2029 80.179 54.832C80.3513 55.5662 80.6949 56.24 80.9306 56.9516C81.1971 57.7564 81.5471 58.5326 81.7081 59.3736C81.7562 59.624 81.6808 59.7768 81.5062 59.915C81.3735 60.0201 81.2186 60.074 81.0541 60.1197C80.7474 60.2053 80.4291 60.2633 80.1446 60.4141C79.9221 60.5322 79.8655 60.7498 79.9907 60.9351C80.0876 61.0787 80.2353 61.0446 80.3708 61.0442C82.2673 61.0415 84.1638 61.0371 86.0604 61.0326C86.13 61.0326 86.2009 61.0374 86.2688 61.0262C86.4373 60.9985 86.4872 60.8586 86.5124 60.7222C86.5435 60.5676 86.4906 60.4472 86.2981 60.4513ZM74.9599 50.3024C74.9599 50.3041 74.9606 50.3061 74.9606 50.3078C74.9606 50.3078 74.9606 50.3078 74.9606 50.3082C74.9569 50.3061 74.9531 50.3044 74.9494 50.3027L74.9599 50.3024ZM75.4782 50.9018V50.9015C75.4795 50.9008 75.4802 50.8994 75.4812 50.8984C75.531 50.8598 75.5556 50.8104 75.5525 50.749C75.5819 50.7428 75.6088 50.7295 75.633 50.709C75.8893 50.3518 75.9377 49.909 76.1264 49.5232C76.1861 49.4017 76.2386 49.2649 76.1571 49.1257C76.298 49.0745 76.3253 48.9343 76.3771 48.8163C76.5003 48.5351 76.5883 48.2404 76.7016 47.9552C76.7268 47.8648 76.7381 47.7716 76.7657 47.6822C76.7729 47.659 76.7797 47.6355 76.7845 47.6123C76.9482 47.5813 76.9192 47.3943 76.9864 47.2861C77.0489 47.1855 77.0233 47.0217 77.157 46.9723C77.4682 48.092 77.9253 49.1598 78.3409 50.241C78.5537 50.7954 78.6711 51.3924 79.0164 51.8932C79.0361 51.9082 79.057 51.9188 79.0795 51.9239C79.0733 51.9949 79.0802 52.0611 79.1279 52.1146L79.1283 52.115C79.132 52.1191 79.1358 52.1232 79.1399 52.1269C79.146 52.1327 79.1521 52.1382 79.1597 52.1433C79.162 52.1453 79.1648 52.147 79.1675 52.1491C79.1678 52.1522 79.1682 52.1552 79.1689 52.1583C79.1562 52.1662 79.145 52.1781 79.1347 52.1928C79.0672 52.3998 79.1733 52.5755 79.2429 52.7536C79.3408 53.0027 79.2774 53.1252 78.9993 53.1241C78.7485 53.1228 78.4981 53.1245 78.247 53.1248C77.2996 53.1248 76.3519 53.1272 75.4045 53.1234C74.907 53.1214 74.9019 53.1112 75.0091 52.637C75.0309 52.5401 75.0479 52.4459 75.0036 52.3521C74.9961 52.3405 74.9879 52.3309 74.9797 52.3245C75.3502 51.9359 75.4427 51.4422 75.4986 50.9356C75.4918 50.9253 75.4843 50.9172 75.4761 50.9103C75.4765 50.9076 75.4771 50.9049 75.4782 50.9018ZM70.633 59.9696C70.6289 59.9744 70.6244 59.9788 70.62 59.9836C70.62 59.9836 70.62 59.9836 70.6196 59.9836C70.6176 59.9774 70.6152 59.9716 70.6125 59.9665C70.6196 59.9679 70.6265 59.9686 70.633 59.9696C70.6333 59.9696 70.6333 59.9696 70.633 59.9696ZM80.6577 50.0779C80.6546 50.0741 80.6519 50.0704 80.6495 50.0666C80.6526 50.067 80.6556 50.067 80.6587 50.067C80.658 50.0707 80.658 50.0745 80.6577 50.0779ZM72.5411 56.4396C72.5411 56.4399 72.5411 56.4399 72.5411 56.4402L72.5438 56.4399C72.5424 56.4437 72.5414 56.4477 72.5401 56.4515V56.4518V56.4522C72.5325 56.4457 72.5244 56.4406 72.5152 56.4372C72.5237 56.4382 72.5325 56.4389 72.5411 56.4396ZM73.1013 59.8925C73.1006 59.8938 73.1002 59.8955 73.0999 59.8969L73.0996 59.8966C73.0992 59.8962 73.0992 59.8962 73.0989 59.8959C73.0992 59.8949 73.1002 59.8938 73.1013 59.8925Z" fill="#E4E4E4"/>
<path d="M43.6858 60.4357C43.6656 60.4586 43.6551 60.4828 43.6534 60.508C43.65 60.5012 43.6469 60.4951 43.6431 60.4882C43.6571 60.4705 43.6714 60.4531 43.6858 60.4357C43.6274 60.4111 43.5691 60.3866 43.5104 60.3617C43.4995 60.3736 43.4886 60.3859 43.4777 60.3978C43.4886 60.3859 43.4995 60.3736 43.5108 60.3617C43.4067 60.2835 43.2873 60.2791 43.1648 60.2887C43.0812 60.2597 43.0075 60.2 42.9124 60.2085C42.506 60.0178 42.1195 59.8001 41.8384 59.4357C41.6265 59.0264 41.4112 58.6187 41.2396 58.1898C41.052 57.7095 40.922 57.2056 40.6528 56.759C40.4836 56.2479 40.3257 55.7321 40.0575 55.2606C40.006 55.1156 39.9545 54.9706 39.903 54.8256C39.9166 54.7287 39.8859 54.6434 39.8327 54.5643C39.6792 54.1201 39.5628 53.6612 39.3383 53.2443C39.3291 53.2187 39.3151 53.1931 39.2957 53.1679L39.295 53.1665C39.3162 53.0877 39.2933 53.0294 39.2162 52.9959C38.8389 51.9554 38.469 50.9121 38.044 49.8893C37.9467 49.5093 37.799 49.1476 37.639 48.7904C37.6441 48.6939 37.638 48.6007 37.5544 48.5332C37.553 48.5079 37.5445 48.4858 37.5285 48.4663C37.5407 48.3947 37.5169 48.3384 37.4568 48.2974V48.2971C37.3886 47.9344 37.2504 47.5991 37.073 47.2791C37.0686 47.2566 37.0559 47.234 37.0351 47.2108C36.957 47.0021 36.8816 46.7922 36.8008 46.5845C36.3907 45.534 35.9792 44.4843 35.5674 43.4348C35.5129 43.2957 35.4897 43.1196 35.2969 43.1008C35.0946 43.0814 34.9875 43.2346 34.9233 43.3847C34.8258 43.6126 34.7036 43.8357 34.6763 44.0899C34.6252 44.138 34.5931 44.1943 34.6009 44.2673C34.0111 45.764 33.4168 47.2589 32.8337 48.7587C32.5475 49.4949 32.2343 50.2213 32.0043 50.9786C31.9105 51.0701 31.8788 51.1926 31.8327 51.3092C31.5359 52.0608 31.2302 52.809 30.9406 53.5636C30.5861 54.4865 30.2446 55.4141 29.8973 56.3397C29.8212 56.4086 29.7977 56.4953 29.8107 56.5942C29.7581 56.7071 29.7056 56.82 29.653 56.933C29.3712 57.5515 29.0816 58.167 28.8114 58.7906C28.7128 59.0182 28.5159 59.1956 28.4818 59.4535C28.4818 59.4535 28.4818 59.4535 28.4822 59.4535C28.3952 59.5606 28.3089 59.6681 28.2222 59.7752C28.2222 59.7752 28.2222 59.7752 28.2219 59.7755C28.2219 59.7755 28.2222 59.7755 28.2222 59.7752C27.8128 60.0096 27.3915 60.2191 26.9398 60.3603C26.9374 60.361 26.9353 60.3617 26.9329 60.3627C26.385 60.39 25.8569 60.273 25.3312 60.1402C24.5182 59.9349 24.0979 59.4729 23.9962 58.6378C23.9174 57.9902 23.8594 57.34 23.8642 56.686C23.871 56.5611 23.8857 56.4359 23.8833 56.311C23.8618 55.2094 23.8826 54.1078 23.8106 53.0058C23.7571 52.185 23.7871 51.359 23.7721 50.5351C23.7676 50.2861 23.8096 50.0326 23.7195 49.789C23.7038 49.801 23.6881 49.8126 23.6725 49.8242C23.6714 49.8184 23.6701 49.8129 23.669 49.8071C23.6858 49.801 23.7028 49.7952 23.7195 49.789C23.6909 48.6318 23.7158 47.4742 23.6465 46.3163C23.5916 45.3979 23.6325 44.474 23.6237 43.5525C23.6199 43.1718 23.695 42.8044 23.7782 42.4369C23.8615 42.0695 24.0989 41.8215 24.4155 41.6499C24.5854 41.5578 24.7741 41.4933 24.961 41.4407C25.3097 41.3432 25.6625 41.2691 26.0261 41.2323C26.3151 41.203 26.4349 41.0273 26.4147 40.7833C26.3929 40.5223 26.3475 40.4882 25.9787 40.4879C24.6236 40.4865 23.2689 40.4872 21.9138 40.4875C21.8302 40.4875 21.7459 40.4872 21.663 40.4961C21.5177 40.5114 21.4392 40.597 21.4262 40.7424C20.8022 42.0613 20.1742 43.3782 19.5553 44.6995C19.0248 45.8319 18.5052 46.9693 17.9805 48.1043C17.9757 48.1115 17.9723 48.1187 17.9692 48.1258C17.5533 48.9225 17.1791 49.7389 16.8168 50.5611C16.4947 51.2263 16.1471 51.8797 15.9031 52.5801C15.3382 53.7776 14.7735 54.975 14.2086 56.1725C14.08 56.2411 14.1216 56.4397 13.9698 56.4905C13.8794 56.4792 13.8691 56.3984 13.8415 56.3407C13.4304 55.4748 13.0326 54.6021 12.6099 53.7421C12.2796 53.0703 12.0142 52.3665 11.6222 51.7248C11.4141 51.2877 11.2159 50.8456 10.9928 50.4164C10.9 50.2376 10.8805 50.0132 10.6929 49.8876C10.6929 49.8876 10.6929 49.8873 10.6925 49.8873C10.0201 48.4629 9.34803 47.0382 8.67593 45.6139V45.6135C8.72404 45.476 8.63806 45.3716 8.58586 45.2608C7.88784 43.7856 7.18164 42.3145 6.49658 40.8331C6.37786 40.5762 6.23593 40.4841 5.95856 40.4886C4.92518 40.5046 3.89146 40.4985 2.85807 40.5005C2.49507 40.5012 2.13174 40.5025 1.76874 40.5005C1.59543 40.4995 1.46306 40.5442 1.45384 40.7482C1.36753 40.9914 1.48728 41.1207 1.70631 41.1804C1.83936 41.2166 1.97821 41.232 2.11468 41.2555C2.78882 41.3735 3.44795 41.5271 3.96515 42.0231C4.16951 42.3158 4.28482 42.6427 4.32167 42.9947C4.3957 43.703 4.42777 44.4133 4.3957 45.1257C4.32849 46.6162 4.25411 48.1067 4.18213 49.5973C4.08421 51.6173 4.01632 53.639 3.82664 55.6533C3.73657 56.6106 3.63388 57.5675 3.39745 58.5047C3.2354 59.1471 2.90379 59.6503 2.30198 59.9557C2.20338 59.9427 2.10683 59.9349 2.05532 60.0475C1.97958 60.0304 1.91885 60.0498 1.88064 60.1215H1.8803C1.87382 60.1283 1.86733 60.1338 1.86051 60.1385C1.86699 60.1327 1.87382 60.128 1.8803 60.1215C1.75919 60.1116 1.63193 60.0802 1.54937 60.2115C1.36378 60.1723 1.19217 60.2487 1.02091 60.2904C0.650406 60.3801 0.585927 60.7342 0.871822 61.0399C0.871822 61.0399 0.871822 61.0399 0.871822 61.0402C0.913444 61.0443 0.955062 61.0518 0.997025 61.0518C3.24802 61.0525 5.49936 61.0529 7.75036 61.0532C7.80631 61.0532 7.86226 61.0529 7.91821 61.0501C8.08469 61.0419 8.1635 60.9522 8.18602 60.7878C8.23174 60.4548 8.14133 60.348 7.79095 60.2887C7.10146 60.1713 6.41948 60.0266 5.82995 59.6159C5.48264 59.2989 5.31411 58.8906 5.2544 58.4378C5.11214 57.357 5.06369 56.2708 5.06779 55.1804C5.07461 53.3931 5.13022 51.6084 5.21483 49.8224C5.28272 48.3872 5.28409 46.9471 5.33424 45.5095C5.34618 45.1669 5.35914 44.8247 5.37142 44.4822C5.59147 44.8319 5.75148 45.1959 5.91524 45.5586C6.28369 46.3726 6.63782 47.1934 7.02982 47.9955C7.24236 48.4305 7.37064 48.9088 7.67667 49.2971V49.2977C7.65449 49.3786 7.67564 49.4386 7.75991 49.4673C7.83974 49.6437 7.91787 49.8207 7.99974 49.9961C8.36308 50.7726 8.72745 51.5484 9.09181 52.3242C9.07475 52.4242 9.13855 52.4968 9.1771 52.578C9.16584 52.6647 9.19348 52.7428 9.22862 52.8199C9.67383 53.7963 10.1194 54.7724 10.5632 55.7495C10.9494 56.5993 11.3203 57.456 11.7242 58.2973C11.9088 58.6818 12.006 59.1116 12.2936 59.4453C12.4287 59.7346 12.5679 60.0219 12.6972 60.3136C12.7655 60.4674 12.8617 60.5694 13.0391 60.5677C13.2086 60.5664 13.2806 60.4374 13.3362 60.3122C13.6852 59.5268 14.0909 58.7667 14.3955 57.9616C14.6248 57.6279 14.7637 57.2489 14.9315 56.8849C15.9277 54.7239 16.9225 52.5623 17.9177 50.4007C18.0023 50.3594 18.0187 50.2714 18.0528 50.1977C18.6236 48.9596 19.1974 47.7233 19.759 46.4811C19.9012 46.1659 20.096 45.8728 20.1755 45.5296C20.4587 44.9353 20.7013 44.3212 21.0151 43.7419C21.1182 43.7948 21.1103 43.8545 21.11 43.9067C21.1025 45.6111 21.1124 47.3152 21.154 49.0193C21.1796 50.0667 21.1959 51.1148 21.1922 52.1628C21.1843 54.4807 21.2901 56.8003 21.0956 59.1154C20.9766 59.3351 20.8572 59.5548 20.7381 59.7749C20.5095 59.9386 20.267 60.0788 19.993 60.1457C19.6269 60.2351 19.2615 60.3282 18.8849 60.3716C18.6485 60.3989 18.569 60.5029 18.586 60.6895C18.6038 60.8806 18.6952 60.9556 18.9296 60.9573C19.6846 60.9625 20.4392 60.9662 21.1942 60.9679C24.7597 60.9771 28.3249 60.9846 31.8904 60.9976C32.0456 60.9983 32.163 60.9928 32.2056 60.8106C32.249 60.6254 32.1821 60.5084 32.0122 60.4504C31.8672 60.4009 31.715 60.3729 31.5687 60.3262C31.1596 60.1959 30.7171 60.1351 30.4121 59.7834C30.4244 59.706 30.3992 59.65 30.321 59.6237L30.3207 59.623C30.347 59.2778 30.3009 58.9308 30.379 58.5852C30.6823 57.2417 31.0924 55.9303 31.5588 54.6359C31.6993 54.2463 31.6007 54.2477 32.1149 54.2473C33.8405 54.2466 35.5664 54.2449 37.292 54.2436C37.2954 54.2453 37.2982 54.2473 37.3016 54.2494C37.464 54.48 37.5141 54.7577 37.6216 55.0115C37.5977 55.1118 37.6339 55.1978 37.6857 55.2797C37.8178 55.6427 37.9457 56.0074 38.0842 56.3677C38.147 56.5304 38.1292 56.7324 38.3043 56.8439C38.4117 57.1278 38.5192 57.4116 38.6267 57.6958C38.6028 57.8551 38.6789 57.9889 38.729 58.1322C38.9149 58.6657 39.1261 59.1959 39.0504 59.781C38.8699 59.9362 38.67 60.0608 38.437 60.1143C38.2875 60.1488 38.1405 60.1798 38.015 60.2733H38.0146C37.8734 60.2743 37.739 60.3054 37.6131 60.3692C37.479 60.4371 37.3026 60.4818 37.3101 60.6701C37.3166 60.8362 37.4278 60.945 37.5991 60.9778C37.739 61.0672 37.8962 61.0396 38.0477 61.0409C38.773 61.0464 39.4983 61.0488 40.2236 61.0498C41.3116 61.0515 42.3996 61.0508 43.4879 61.0515C43.6476 61.0515 43.7997 61.0437 43.8444 60.8437C43.8816 60.6701 43.9109 60.5046 43.6858 60.4357ZM32.4212 52.0676C32.4233 52.0656 32.4253 52.0639 32.4274 52.0618C32.4383 52.0523 32.4492 52.0431 32.4598 52.0332C32.4612 52.0311 32.4618 52.0284 32.4629 52.0264C32.5744 51.9032 32.6099 51.7524 32.6007 51.5852C32.6178 51.5805 32.6341 51.5726 32.6495 51.5617C32.7757 51.3608 32.9398 51.1704 32.8504 50.9039C32.9835 50.9186 33.0381 50.8128 33.0712 50.7183C33.3021 50.0534 33.6293 49.4216 33.7647 48.7239C33.763 48.7045 33.76 48.6857 33.7552 48.6676C34.051 48.3541 34.4153 47.3463 34.355 46.9785C34.3734 46.9696 34.3898 46.958 34.4041 46.942C34.4048 46.9403 34.4351 46.9236 34.4351 46.9236C34.4351 46.9236 34.4696 46.9243 34.4699 46.9219C34.4877 46.9386 34.5003 46.9604 34.5088 46.9833C34.5276 47.0457 34.5392 47.1119 34.5579 47.175C34.9568 48.3449 35.4259 49.4898 35.8591 50.6477C36.0475 51.1513 36.1873 51.6794 36.4732 52.1447C36.4927 52.1598 36.5135 52.1703 36.5357 52.1754C36.5282 52.2628 36.5357 52.345 36.6165 52.4044L36.6182 52.4061C36.6182 52.4068 36.6182 52.4074 36.6186 52.4081C36.6135 52.4112 36.609 52.4149 36.6042 52.4194C36.5401 52.5262 36.5647 52.6398 36.6145 52.7333C36.7926 53.0679 36.6268 53.1699 36.3245 53.1925C35.1465 53.2174 33.9674 53.2307 32.7877 53.1873C32.686 53.1652 32.5843 53.1512 32.4803 53.1635C32.4161 53.1693 32.3595 53.2075 32.2926 53.2017C32.2657 53.1925 32.2421 53.1774 32.221 53.159C32.2043 53.1365 32.192 53.1106 32.1814 53.085C32.1753 53.0464 32.1719 53.0069 32.1654 52.968C32.4349 52.7452 32.47 52.4327 32.4519 52.1001C32.4424 52.0878 32.4315 52.0786 32.4199 52.0724C32.4209 52.0704 32.4209 52.0693 32.4212 52.0676ZM29.926 56.3636C29.9256 56.3639 29.9253 56.3639 29.9246 56.3639C29.9239 56.3632 29.897 56.339 29.8966 56.3387C29.9065 56.3472 29.9164 56.3554 29.926 56.3636Z" fill="#E4E4E4"/>
<path d="M69.377 56.9606C69.4101 56.804 69.3743 56.6846 69.2187 56.6191C69.0669 56.5553 68.9404 56.5973 68.8578 56.7331C68.7732 56.8723 68.6442 56.9964 68.6702 57.1827C68.4829 57.5242 68.3014 57.8688 68.1069 58.2059C67.7732 58.7852 67.4536 59.3784 66.8207 59.7019C66.5686 59.7333 66.3622 59.8895 66.1227 59.9571C64.8873 60.3051 63.6325 60.2556 62.3835 60.0918C61.8953 60.0277 61.4979 59.7326 61.3628 59.2123C61.2788 58.8899 61.2038 58.5641 61.2038 58.224C61.2038 54.5097 61.1959 50.7958 61.1983 47.0816C61.1987 46.5244 61.1908 45.966 61.2908 45.4112C61.372 44.9602 61.5637 44.5952 61.954 44.3447C61.9567 44.3447 61.9595 44.3437 61.9622 44.3417C62.4173 44.1653 62.8932 44.0766 63.3726 43.9957C63.6373 43.9514 63.7434 43.8361 63.725 43.6621C63.7069 43.4898 63.5933 43.4195 63.3101 43.411C62.696 43.3929 62.0823 43.3683 61.4682 43.3622C60.6296 43.3537 59.791 43.3601 58.9525 43.3601C58.2398 43.3601 57.5267 43.3608 56.814 43.3584C56.6165 43.3578 56.4954 43.4321 56.4787 43.644C56.4623 43.8484 56.5541 43.9688 56.7516 43.994C57.307 44.065 57.8382 44.2182 58.3513 44.4386C58.5516 44.5859 58.6713 44.7961 58.7375 45.023C58.831 45.3433 58.9098 45.6688 58.9149 46.0089C58.9681 49.4025 58.948 52.7964 58.9436 56.1903C58.9426 56.9163 58.933 57.6426 58.9084 58.3683C58.8924 58.8425 58.8668 59.3225 58.5301 59.7104C58.107 60.0526 57.6195 60.2355 57.0836 60.3064C56.9597 60.3228 56.8372 60.3583 56.7182 60.3978C56.5049 60.4688 56.4575 60.5749 56.4811 60.8195C56.5012 61.029 56.6315 61.0635 56.8021 61.0573C56.858 61.0553 56.914 61.0559 56.97 61.0559C60.1025 61.0546 63.2347 61.0539 66.3673 61.0519C66.9265 61.0515 67.486 61.0365 68.0451 61.0464C68.3048 61.0508 68.4927 60.9509 68.5709 60.7182C68.663 60.4439 68.7725 60.1676 68.7534 59.867C68.7571 59.8414 68.7606 59.8158 68.7633 59.7902C68.8557 59.693 68.8554 59.5739 68.8421 59.4521C68.9011 59.1942 68.9639 58.937 69.0188 58.678C69.1403 58.1059 69.2563 57.5328 69.377 56.9606Z" fill="#E4E4E4"/>
<path d="M97.8236 51.7214C97.7294 51.6078 97.58 51.616 97.4606 51.558C97.1614 51.312 96.7585 51.3505 96.4241 51.2025C96.462 51.0796 96.5592 51.0929 96.6336 51.0639C97.4773 50.7388 98.2326 50.2878 98.7816 49.5458C99.6539 48.4837 99.8184 47.2992 99.3728 46.0202C99.2186 45.5777 99.0426 45.1376 98.6277 44.8565C98.5431 44.7756 98.4582 44.6944 98.3735 44.6132C98.3111 44.3833 98.1016 44.3103 97.927 44.2079C97.0396 43.6873 96.0587 43.4813 95.0496 43.4427C93.951 43.4007 92.8525 43.3369 91.7499 43.3956C90.9014 43.4407 90.0485 43.4038 89.1976 43.4048C88.6538 43.4055 88.1096 43.4055 87.5658 43.4127C87.4246 43.4144 87.2397 43.3578 87.2134 43.5938C87.1575 43.8289 87.2765 43.9207 87.4911 43.9637C87.8057 44.0264 88.1209 44.0834 88.4283 44.183C88.881 44.329 89.1451 44.6279 89.2901 45.0748C89.4313 45.5105 89.4347 45.9574 89.4412 46.4013C89.4982 50.2424 89.4934 54.0839 89.4432 57.9251C89.4354 58.5238 89.4357 59.1291 89.1383 59.68C88.9284 59.9318 88.6616 60.0823 88.3498 60.1877C88.0056 60.304 87.6484 60.346 87.3001 60.4343C86.9937 60.5118 86.9661 60.5582 87.1121 60.8492C87.1155 60.8594 87.1203 60.8697 87.1281 60.8809L87.1298 60.8833C87.1837 61.0246 87.3089 60.9908 87.4133 60.9918C88.1066 61.0003 88.8008 61.0266 89.4934 61.0024C89.9352 60.9867 90.3801 61.0385 90.8198 60.958C91.4315 61.014 92.0433 60.9625 92.6543 60.9502C93.6976 60.929 94.7429 60.9109 95.7725 60.7066C96.0441 60.7363 96.304 60.7138 96.5326 60.5432L96.5302 60.5391C96.5374 60.5323 96.5449 60.5268 96.5528 60.522C96.5452 60.5275 96.5377 60.5326 96.5302 60.5391C96.6551 60.5633 96.7786 60.5817 96.8639 60.4528C96.9635 60.4732 97.0526 60.4596 97.1187 60.3733C97.173 60.3726 97.2324 60.3862 97.2805 60.3685C97.8424 60.1635 98.3691 59.8916 98.8457 59.5275C99.3319 59.1563 99.7795 58.7507 100.047 58.1844C100.406 57.5474 100.669 56.8767 100.688 56.1381C100.707 55.4032 100.698 54.6673 100.307 54.0027C99.8259 52.8639 98.9337 52.1741 97.8236 51.7214ZM96.781 59.361C96.7032 59.3464 96.6496 59.3955 96.5947 59.4358C95.4276 60.2938 94.1097 60.3037 92.757 60.1174C92.7174 60.0458 92.657 60.028 92.5809 60.0495L92.5762 60.0475C92.2104 59.8414 91.9368 59.5627 91.8624 59.1311C91.8126 58.8428 91.7519 58.5576 91.7526 58.2615C91.7557 56.9623 91.7468 55.6635 91.7441 54.3647C91.7427 53.6247 91.7441 52.8847 91.7488 52.1441C91.7505 51.8346 91.756 51.8237 92.0426 51.8258C92.7679 51.8305 93.4929 51.7852 94.2175 51.8892C95.3003 52.0455 96.2611 52.4324 97.0161 53.2539C97.0976 53.3426 97.1505 53.4729 97.2951 53.4886C97.9014 54.2624 98.1098 55.1719 98.0897 56.1193C98.0638 57.3509 97.7407 58.4918 96.781 59.361ZM96.8936 46.6807C96.9444 47.7325 97.0195 48.788 96.4862 49.7634C96.4603 49.8112 96.4971 49.7501 96.4838 49.804C96.4869 49.8293 96.4948 49.8511 96.5081 49.8695C96.2242 49.9371 96.069 50.1466 95.9417 50.3864C95.9325 50.3748 95.9192 50.3649 95.9015 50.3567C95.8008 50.3274 95.7043 50.3496 95.6173 50.3953C94.5737 50.949 93.4362 50.9183 92.3049 50.9381C92.0067 50.9435 91.8699 50.8255 91.8747 50.5201C91.9088 48.4431 91.8021 46.3648 91.9355 44.2891C92.0033 44.3359 92.0811 44.329 92.1592 44.3222C92.717 44.2745 93.2766 44.2902 93.835 44.3028C95.1721 44.3321 96.1635 44.9077 96.7008 46.1723C96.7503 46.2901 96.7663 46.4497 96.9444 46.4579C96.8898 46.5224 96.8895 46.6009 96.8936 46.6807Z" fill="#E4E4E4"/>
</g>
<defs>
<clipPath id="clip0_2336_9599">
<rect width="100" height="100" fill="white" transform="translate(0.693726 0.773071)"/>
</clipPath>
</defs>
</svg>
