<svg width="101" height="101" viewBox="0 0 101 101" fill="none" xmlns="http://www.w3.org/2000/svg">
<g clip-path="url(#clip0_2336_9606)">
<path d="M28.6054 51.0479C28.6054 44.9657 23.4397 40.0332 17.0575 40.0332C10.6753 40.0332 5.50952 44.9657 5.50952 51.0479C5.50952 57.1302 10.6753 62.0626 17.0575 62.0626C23.4397 62.046 28.6054 57.1302 28.6054 51.0479Z" fill="#7C7C7C"/>
<path d="M18.2574 39.1335C18.2574 41.4997 16.3411 43.4327 13.9582 43.4327C11.5919 43.4327 9.65894 41.5164 9.65894 39.1335C9.65894 36.7672 11.5753 34.8342 13.9582 34.8342C16.3244 34.8342 18.2574 36.7672 18.2574 39.1335Z" fill="#BCBCBC"/>
<path d="M30.1886 42.7829C30.1886 45.1491 28.2722 47.0821 25.8893 47.0821C23.5231 47.0821 21.5901 45.1658 21.5901 42.7829C21.5901 40.4166 23.5064 38.4836 25.8893 38.4836C28.2722 38.4836 30.1886 40.4166 30.1886 42.7829Z" fill="#BCBCBC"/>
<path d="M34.2879 54.1141C34.2879 56.4803 32.3716 58.4133 29.9887 58.4133C27.6224 58.4133 25.6895 56.497 25.6895 54.1141C25.6895 51.7478 27.6058 49.8148 29.9887 49.8148C32.3716 49.8315 34.2879 51.7478 34.2879 54.1141Z" fill="#BCBCBC"/>
<path d="M25.1895 62.4125C25.1895 64.7788 23.2732 66.7118 20.8903 66.7118C18.5241 66.7118 16.5911 64.7954 16.5911 62.4125C16.5911 60.0463 18.5074 58.1133 20.8903 58.1133C23.2565 58.1133 25.1895 60.0296 25.1895 62.4125Z" fill="#BCBCBC"/>
<path d="M12.7583 59.4298C12.7583 61.7961 10.8419 63.7291 8.45903 63.7291C6.09278 63.7291 4.15979 61.8128 4.15979 59.4298C4.15979 57.0636 6.07612 55.1306 8.45903 55.1306C10.8253 55.1306 12.7583 57.0636 12.7583 59.4298Z" fill="#BCBCBC"/>
<path d="M9.2922 47.7151C9.2922 50.0814 7.37587 52.0144 4.99296 52.0144C2.62672 52.0144 0.693726 50.098 0.693726 47.7151C0.693726 45.3489 2.61005 43.4159 4.99296 43.4159C7.35921 43.4159 9.2922 45.3489 9.2922 47.7151Z" fill="#BCBCBC"/>
<path d="M17.9243 48.5318L17.6077 47.4319L16.9411 48.6984L14.5582 40.4665L15.758 41.1664L15.4581 40.1166L13.7917 39.2001L12.8585 40.8664L13.1751 41.9163L13.8084 40.6831L16.2079 48.915L14.9748 48.1985L15.2914 49.2983L16.9745 50.1981L17.9243 48.5318Z" fill="#E4E4E4"/>
<path d="M19.9905 50.5482L20.7237 49.865L19.3906 49.765L24.9896 44.5826V45.8824L25.6895 45.2325L25.6561 43.4161L23.8565 43.2495L23.1566 43.9161L24.4564 43.9994L18.8573 49.1985L18.874 47.8487L18.1241 48.5486L18.1741 50.3649L19.9905 50.5482Z" fill="#E4E4E4"/>
<path d="M10.7255 59.4298L11.4753 58.6799L10.1089 58.6466L15.7246 53.1142L15.7412 54.4473L16.4578 53.7474L16.4078 51.8978L14.5581 51.8145L13.8582 52.5143L15.1747 52.5477L9.55901 58.0967L9.54235 56.7302L8.79248 57.4634L8.8758 59.3131L10.7255 59.4298Z" fill="#E4E4E4"/>
<path d="M15.1578 49.2316L14.0913 48.8983L14.7745 50.1314L6.72593 47.6652L7.94238 47.0319L6.92589 46.7153L5.25952 47.6152L6.1427 49.2982L7.15918 49.6148L6.5093 48.415L14.5412 50.8813L13.2914 51.5145L14.3579 51.8478L16.0243 50.9312L15.1578 49.2316Z" fill="#E4E4E4"/>
<path d="M21.6902 60.3465L21.3569 59.3633L20.7237 60.5631L18.2741 53.1978L19.4739 53.7477L19.1573 52.8145L17.4742 52.0813L16.5911 53.6644L16.9077 54.5975L17.5242 53.4477L19.9905 60.8131L18.7573 60.2299L19.0906 61.213L20.7737 61.9462L21.6902 60.3465Z" fill="#E4E4E4"/>
<path d="M27.639 52.6311L26.6392 52.3311L27.2557 53.5476L19.7904 51.3813L20.9235 50.7147L19.9903 50.4481L18.424 51.398L19.2405 53.031L20.1736 53.3143L19.5737 52.1312L27.0391 54.2808L25.8726 54.964L26.8724 55.2639L28.4222 54.2808L27.639 52.6311Z" fill="#E4E4E4"/>
<path d="M18.6405 56.7803L21.0067 44.999H26.4058L28.8387 52.0811L34.1211 44.999H39.5368L37.1372 56.7803H33.8045L35.4375 48.4484L29.2553 56.7803H26.6391L23.6896 48.4651L22.0566 56.7803H18.6405Z" fill="#E4E4E4"/>
<path d="M50.385 48.9982C49.9185 48.5316 48.2854 48.3317 46.3858 48.3317C43.4196 48.3317 41.9532 48.8149 41.07 49.6981C40.1869 50.5813 39.7536 53.914 39.7536 54.2806C39.7536 54.6305 39.6203 55.5804 40.2702 56.2303C40.9201 56.8802 42.4864 56.9301 44.9027 56.9301C47.3189 56.9301 48.652 56.5135 49.5519 55.897C50.4517 55.2971 50.9849 52.1143 51.0849 51.1312C51.1682 50.1313 50.8516 49.4481 50.385 48.9982ZM48.0188 52.7142C47.7688 53.5974 47.6689 53.964 47.3689 54.1806C47.069 54.3973 45.5359 54.5472 45.2026 54.5472C44.8694 54.5472 43.2363 54.5139 42.903 54.1806C42.5698 53.8474 43.0697 51.3645 43.5529 51.0978C44.0362 50.8312 45.036 50.7479 45.7525 50.7646C46.8523 50.7812 47.6855 50.8146 47.9188 51.0479C48.1521 51.3145 48.2687 51.831 48.0188 52.7142Z" fill="#E4E4E4"/>
<path d="M61.8663 44.999L60.9498 49.6815C60.5165 48.6484 59.7 48.3318 57.9503 48.3318C54.9842 48.3318 54.4676 48.815 53.5844 49.6982C52.7013 50.5814 52.268 53.9141 52.268 54.2807C52.268 54.6306 52.1347 55.5805 52.7846 56.2304C53.4345 56.8803 53.951 56.9302 56.3006 56.9302C58.5669 56.9302 59.3834 56.1637 59.7833 55.6471L59.5667 56.7803H62.5328L64.8324 44.999H61.8663ZM59.7 54.1974C59.4001 54.414 57.867 54.564 57.5171 54.564C57.1671 54.564 55.5507 54.5307 55.2175 54.1974C54.8842 53.8641 55.3841 51.3812 55.8674 51.1146C56.3506 50.848 57.3504 50.7647 58.067 50.7813C59.1668 50.798 60 50.8313 60.2499 51.0646C60.3999 51.2146 60.4999 51.4979 60.4832 51.9145L60.2832 52.8976C60.0833 53.6642 59.9833 53.9974 59.7 54.1974Z" fill="#E4E4E4"/>
<path d="M75.7474 48.8316C75.3808 48.515 74.4476 48.3317 72.6813 48.3317C70.465 48.3317 69.5485 48.7816 68.8486 49.7315L69.7651 45.0156H66.8656L64.5327 56.7802H67.4822L67.7155 55.5804C68.0654 56.3969 68.5987 56.9302 71.0482 56.9302C73.4645 56.9302 74.1143 56.8135 74.8809 56.0303C75.6974 55.2138 76.3306 52.131 76.4139 51.1312C76.4973 50.148 76.3639 49.3482 75.7474 48.8316ZM73.4311 52.7143C73.1812 53.5974 73.0812 53.964 72.7812 54.1807C72.4813 54.3973 70.9482 54.5473 70.615 54.5473C70.2817 54.5473 68.6487 54.5139 68.3154 54.1807C67.9821 53.8474 68.482 51.3645 68.9653 51.0979C69.4485 50.8313 70.4483 50.7479 71.1649 50.7646C72.2647 50.7813 73.0979 50.8146 73.3312 51.0479C73.5811 51.3145 73.6811 51.8311 73.4311 52.7143Z" fill="#E4E4E4"/>
<path d="M86.3953 48.4318H86.2787C86.2787 48.4318 85.4955 53.0143 84.7789 53.7308C84.0624 54.4474 83.0126 54.4974 82.646 54.4974C82.296 54.4974 81.2795 54.3474 80.9129 53.9808C80.463 53.5142 81.4462 49.1983 81.6295 48.4318H78.7467C78.7467 48.4318 77.5802 53.7142 77.5802 54.5307C77.5802 55.1806 77.6469 56.3804 79.4465 56.7969C79.8631 56.8969 80.363 56.9469 80.9796 56.9469C81.4628 56.9469 81.9128 56.8969 82.3127 56.7969C83.7124 56.4637 84.5956 55.6638 85.0789 55.0639L84.7456 56.7969H87.4951L89.1281 48.4484H86.3953V48.4318Z" fill="#E4E4E4"/>
<path d="M97.9596 51.0312H100.643C100.643 51.0312 100.692 50.3813 100.692 50.1147C100.692 49.8314 100.742 49.4648 100.176 48.8982C99.6094 48.3316 96.5432 48.3483 96.0267 48.3483C95.5101 48.3483 92.7272 48.2983 91.944 48.9482C91.2775 49.4814 90.7276 50.1813 90.7276 51.5477C90.7276 52.9308 91.6441 53.4641 93.4604 53.4641H96.7099C97.1598 53.4641 97.7264 53.5974 97.7264 54.014C97.7264 54.4306 97.4097 54.9971 96.2766 54.9971H94.127C93.6104 54.9971 92.6773 54.9138 92.6773 54.3306V54.064H89.9944C89.9944 54.064 89.8611 54.5305 89.8611 54.9305C89.8611 55.3304 89.9277 55.847 90.3777 56.2969C90.8276 56.7468 92.7106 56.9468 94.6436 56.9468C96.5766 56.9468 98.6595 56.8635 99.3594 56.1469C100.076 55.4304 100.393 54.0973 100.393 53.3974C100.393 52.6975 100.159 52.3643 99.926 52.131C99.7093 51.9143 99.0428 51.5144 96.0933 51.5144C93.4604 51.5144 93.3771 51.2644 93.3771 51.0145C93.3771 50.8145 93.4105 50.3146 95.4934 50.3146C97.5764 50.298 97.9596 50.3979 97.9596 51.0312Z" fill="#E4E4E4"/>
</g>
<defs>
<clipPath id="clip0_2336_9606">
<rect width="100" height="100" fill="white" transform="translate(0.693726 0.773071)"/>
</clipPath>
</defs>
</svg>
