<svg width="101" height="101" viewBox="0 0 101 101" fill="none" xmlns="http://www.w3.org/2000/svg">
<g clip-path="url(#clip0_2336_9627)">
<path d="M35.8598 51.0218C36.0288 51.3897 36.1879 51.7675 36.337 52.1552C36.4861 51.7575 36.6452 51.3797 36.8242 51.0019C36.9932 50.634 37.1721 50.2662 37.3511 49.9182L42.372 40.0256C42.4615 39.8565 42.5509 39.7273 42.6504 39.6279C42.7399 39.5384 42.8492 39.4688 42.9685 39.4191C43.0878 39.3694 43.2171 39.3495 43.3662 39.3495C43.5154 39.3495 43.6844 39.3495 43.8832 39.3495H47.3432V58.8961H43.3463V47.6613C43.3463 47.1145 43.3762 46.5279 43.4259 45.8915L38.2459 55.9432C38.0868 56.2614 37.8681 56.4901 37.5997 56.6591C37.3312 56.8182 37.0131 56.8977 36.6651 56.8977H36.0487C35.7007 56.8977 35.3925 56.8182 35.1141 56.6591C34.8456 56.5 34.6269 56.2614 34.4678 55.9432L29.2382 45.8717C29.2779 46.1898 29.2978 46.498 29.3177 46.8062C29.3376 47.1145 29.3475 47.4028 29.3475 47.6613V58.9061H25.3507V39.3594H28.8106C29.0095 39.3594 29.1785 39.3594 29.3276 39.3594C29.4768 39.3594 29.606 39.3793 29.7253 39.429C29.8446 39.4787 29.9441 39.5384 30.0435 39.6378C30.133 39.7273 30.2324 39.8665 30.3219 40.0355L35.3527 49.9679C35.5217 50.3059 35.6907 50.6539 35.8598 51.0218Z" fill="#E4E4E4"/>
<path d="M68.7788 49.1228C68.7788 49.9679 68.6893 50.7732 68.5203 51.5487C68.3413 52.3242 68.0928 53.05 67.7647 53.7261C67.4366 54.4022 67.0389 55.0385 66.5517 55.6151C66.0745 56.2017 65.5276 56.7088 64.9212 57.1562L69.8724 62.5648H66.1441C65.6072 62.5648 65.12 62.4952 64.6826 62.366C64.2451 62.2367 63.8573 61.9782 63.5193 61.5805L61.0834 58.8663C60.6857 58.9458 60.288 59.0055 59.8804 59.0552C59.4728 59.0949 59.0552 59.1248 58.6277 59.1248C57.1065 59.1248 55.7245 58.8663 54.4718 58.3592C53.219 57.8522 52.1453 57.1462 51.2604 56.2415C50.3656 55.3467 49.6796 54.2829 49.1924 53.0699C48.7052 51.8569 48.4567 50.5346 48.4567 49.1228C48.4567 47.711 48.7052 46.3986 49.1924 45.1757C49.6796 43.9627 50.3656 42.8989 51.2604 42.0041C52.1552 41.1093 53.219 40.4034 54.4718 39.8963C55.7245 39.3892 57.1065 39.1307 58.6277 39.1307C60.1488 39.1307 61.5308 39.3892 62.7836 39.9062C64.0363 40.4232 65.1001 41.1291 65.985 42.024C66.8699 42.9188 67.5559 43.9727 68.0431 45.1956C68.5302 46.4085 68.7788 47.711 68.7788 49.1228ZM64.1357 49.1228C64.1357 48.1584 64.0065 47.2835 63.7579 46.5079C63.5094 45.7324 63.1514 45.0763 62.6742 44.5394C62.2069 44.0025 61.6303 43.5948 60.9542 43.3065C60.2781 43.0182 59.5026 42.879 58.6277 42.879C57.7527 42.879 56.9673 43.0182 56.2813 43.3065C55.5953 43.5948 55.0186 44.0025 54.5513 44.5394C54.084 45.0763 53.7261 45.7324 53.4676 46.5079C53.219 47.2835 53.0898 48.1484 53.0898 49.1228C53.0898 50.0971 53.219 50.9721 53.4676 51.7476C53.7162 52.5231 54.0741 53.1793 54.5513 53.7161C55.0186 54.253 55.5953 54.6607 56.2813 54.949C56.9673 55.2274 57.7428 55.3765 58.6277 55.3765C59.4927 55.3765 60.2682 55.2373 60.9542 54.949C61.6303 54.6706 62.2069 54.253 62.6742 53.7161C63.1415 53.1793 63.4994 52.5231 63.7579 51.7476C64.0065 50.9721 64.1357 50.0971 64.1357 49.1228Z" fill="#E4E4E4"/>
<path d="M83.3445 39.3495V42.9486H78.0452V58.9061H73.5115V42.9486H68.2123V39.3495H83.3445Z" fill="#E4E4E4"/>
<path d="M100.694 39.3495V42.9486H95.1956V58.9061H90.6619V42.9486H85.3627V39.3495H100.694Z" fill="#E4E4E4"/>
<path d="M0.75338 50.4152C0.733495 50.4152 0.71361 50.4152 0.693726 50.4152V58.1304C0.693726 58.6872 1.15107 59.1445 1.70784 59.1445H9.65177C9.58217 54.3225 5.61518 50.4152 0.75338 50.4152Z" fill="#E4E4E4"/>
<path d="M0.75338 44.0521C0.733495 44.0521 0.71361 44.0521 0.693726 44.0521V47.3331C7.24572 47.3629 12.5748 52.6324 12.6444 59.1446H16.0447C15.985 50.8129 9.14471 44.0521 0.75338 44.0521Z" fill="#E4E4E4"/>
<path d="M20.8667 58.1403V51.1707C18.5601 45.5235 13.917 41.0693 8.13059 38.9814H1.70784C1.15107 38.9814 0.693726 39.4388 0.693726 39.9956V40.9699C10.7753 40.9997 18.9777 49.1226 19.0373 59.1445H19.8526C20.4094 59.1445 20.8667 58.6971 20.8667 58.1403Z" fill="#E4E4E4"/>
<path d="M18.2123 41.7951C19.1469 42.7297 20.1013 43.9128 20.8669 44.9568V39.9856C20.8669 39.4289 20.4195 38.9814 19.8627 38.9814H14.7424C15.9256 39.8067 17.1584 40.7512 18.2123 41.7951Z" fill="#E4E4E4"/>
</g>
<defs>
<clipPath id="clip0_2336_9627">
<rect width="100" height="100" fill="white" transform="translate(0.693726 0.773071)"/>
</clipPath>
</defs>
</svg>
