<svg width="101" height="101" viewBox="0 0 101 101" fill="none" xmlns="http://www.w3.org/2000/svg">
<g clip-path="url(#clip0_2336_9638)">
<path d="M98.3797 36.7568C97.3023 36.7568 96.5266 35.9164 96.5266 34.8175C96.5266 33.654 97.3885 32.8783 98.3797 32.8783C99.3708 32.8783 100.211 33.654 100.211 34.8175C100.211 35.9811 99.3708 36.7568 98.3797 36.7568ZM98.3797 33.223C97.5609 33.223 96.936 33.8695 96.936 34.8175C96.936 35.701 97.4962 36.412 98.3797 36.412C99.1769 36.412 99.8233 35.7656 99.8233 34.8175C99.8233 33.891 99.1984 33.223 98.3797 33.223ZM98.0134 35.938H97.6901V33.7833H98.4874C98.983 33.7833 99.2415 33.9556 99.2415 34.4081C99.2415 34.796 99.0045 34.9468 98.7029 34.9899L99.2846 35.938H98.8968L98.3581 35.033H98.0349V35.938H98.0134ZM98.4012 34.7098C98.6598 34.7098 98.8968 34.6882 98.8968 34.365C98.8968 34.1065 98.6382 34.0849 98.4443 34.0849H98.0134V34.7098H98.4012Z" fill="#E4E4E4"/>
<path d="M6.80459 51.6459C6.7615 52.2707 6.7615 52.7017 6.7615 53.0895C6.7615 55.9768 8.5499 57.9376 12.2345 57.9376C14.9709 57.9376 16.3284 56.1061 17.3196 54.5332H24.15C21.9953 60.1139 18.44 63.0874 11.2648 63.0874C4.62833 63.0874 0.211182 59.2951 0.211182 52.2276C0.211182 44.2983 5.44712 36.8861 13.9151 36.8861C20.8317 36.8861 25.5075 40.5491 25.5075 47.7458C25.5075 49.0818 25.3566 50.4392 25.1196 51.6459H6.80459ZM18.914 47.3149C18.914 44.7723 18.2892 42.0359 14.303 42.0359C10.4676 42.0359 8.52836 44.5353 7.51564 47.3149H18.914Z" fill="#E4E4E4"/>
<path d="M39.5345 37.5541H44.4473L43.3914 42.122H38.5433L36.0008 54.4685C35.9146 55.0072 35.8069 55.4381 35.8069 55.6321C35.8069 57.4205 37.0997 57.4636 38.1124 57.4636C38.9312 57.4636 39.75 57.4205 40.5688 57.3127L39.4052 62.5918C38.0047 62.7426 36.561 62.8288 35.1174 62.8288C31.9499 62.8288 28.524 61.8161 28.6317 57.7868C28.6317 57.1619 28.7825 56.3 28.9764 55.4381L31.756 42.122H27.2958L28.3516 37.5541H32.7256L34.2555 30.0126H41.0859L39.5345 37.5541Z" fill="#E4E4E4"/>
<path d="M45.6969 45.117C46.5588 38.8684 51.8594 36.9076 57.4832 36.9076C61.9003 36.9076 67.9119 37.8772 67.8258 43.4364C67.8258 44.4922 67.5887 46.0867 67.2871 47.6165L65.0677 57.6143C64.8307 58.4762 64.723 60.0276 64.723 60.9757C64.723 61.4066 64.8092 61.9884 64.96 62.4193H58.1296V59.963C56.255 62.0746 53.3246 63.0873 50.545 63.0873C45.1151 63.0873 42.4648 60.0061 42.4648 56.5585C42.4648 51.7966 46.0632 48.8231 51.9887 48.0905C58.4312 47.3148 61.4478 47.6596 61.4478 44.4922C61.4478 42.0358 58.8622 41.454 57.1169 41.454C54.6605 41.454 52.5058 42.6176 52.0748 45.117H45.6969ZM60.1119 50.5038C58.3881 51.5165 56.3196 51.5596 54.3373 51.7104C51.7516 51.9906 49.2953 52.6154 49.2953 55.7397C49.2953 57.6143 51.0837 58.5193 53.0445 58.5193C57.2677 58.5193 58.6682 55.5889 59.4439 52.8955L60.1119 50.5038Z" fill="#E4E4E4"/>
<path d="M73.5573 37.5541H80.1507L79.4828 40.6353L79.569 40.7215C81.0988 38.0281 83.9861 36.8861 87.0242 36.8861C92.9928 36.8861 96.4403 40.7215 96.4403 46.69C96.4403 54.8564 92.1093 63.0874 82.9303 63.0874C80.043 63.0874 77.0264 61.8376 75.9706 59.1011H75.8198L73.2341 71.1675H66.4037L73.5573 37.5541ZM77.2634 52.5508C77.2634 55.7183 78.8579 57.9376 82.1761 57.9376C87.3259 57.9376 89.6314 51.926 89.6314 47.5519C89.6314 44.5784 87.9939 42.0143 84.7833 42.0143C79.6767 42.0359 77.2634 48.2845 77.2634 52.5508Z" fill="#E4E4E4"/>
</g>
<defs>
<clipPath id="clip0_2336_9638">
<rect width="100" height="100" fill="white" transform="translate(0.211182 0.590088)"/>
</clipPath>
</defs>
</svg>
