<svg width="101" height="101" viewBox="0 0 101 101" fill="none" xmlns="http://www.w3.org/2000/svg">
<g clip-path="url(#clip0_2336_13542)">
<path d="M87.5935 42.4768C87.9642 42.4754 88.3348 42.4694 88.7055 42.4634C88.9425 42.4623 89.1795 42.4614 89.4166 42.4608C89.5267 42.4585 89.6368 42.4562 89.7503 42.4537C90.2972 42.4576 90.5258 42.4681 90.9681 42.817C91.3969 43.388 91.3826 43.869 91.3215 44.5678C91.1364 45.0613 91.0411 45.2347 90.6015 45.5278C90.3559 45.5596 90.3559 45.5596 90.0711 45.5622C89.9106 45.5646 89.9106 45.5646 89.7468 45.5671C89.6314 45.5677 89.5159 45.5684 89.3969 45.569C89.2774 45.5708 89.158 45.5725 89.0349 45.5743C88.6521 45.5799 88.2694 45.584 87.8866 45.5878C87.385 45.5927 86.8835 45.5992 86.382 45.6065C86.2109 45.6075 86.2109 45.6075 86.0364 45.6084C85.1889 45.6209 84.3642 45.6585 83.6342 46.1203C83.2835 46.6747 83.2608 47.1713 83.4017 47.8077C83.6147 48.1831 83.8591 48.3389 84.2417 48.5277C85.3546 48.8079 86.5016 48.8029 87.6413 48.8043C87.9419 48.8047 88.2424 48.8068 88.543 48.8092C89.3964 48.8157 90.2499 48.8195 91.1033 48.8224C91.6288 48.8244 92.1542 48.828 92.6796 48.8326C92.8773 48.834 93.075 48.8347 93.2727 48.8347C95.3815 48.8349 97.5697 48.9901 99.1939 50.5076C100.194 51.5829 100.244 52.893 100.201 54.2875C100.198 54.4142 100.198 54.4142 100.195 54.5435C100.135 55.3937 99.7412 56.1476 99.1888 56.7849C99.0873 56.8716 98.9858 56.9582 98.8813 57.0474C98.7699 57.1489 98.6585 57.2504 98.5438 57.3549C97.0262 58.5774 94.9704 58.6262 93.1088 58.621C92.9373 58.621 92.7657 58.621 92.5942 58.6211C92.1304 58.6211 91.6666 58.6204 91.2028 58.6196C90.7174 58.6188 90.2319 58.6187 89.7465 58.6186C88.8282 58.6182 87.9098 58.6172 86.9915 58.616C85.9456 58.6147 84.8997 58.614 83.8539 58.6134C81.7032 58.6122 79.5526 58.6101 77.4019 58.6074C77.405 58.7212 77.4082 58.835 77.4114 58.9523C77.4217 59.3754 77.4292 59.7984 77.4349 60.2216C77.4379 60.4046 77.442 60.5876 77.4472 60.7705C77.4545 61.0338 77.4579 61.297 77.4605 61.5604C77.4636 61.7188 77.4668 61.8771 77.47 62.0403C77.4019 62.4473 77.4019 62.4473 77.1236 62.739C76.7135 62.979 76.4349 62.9874 75.9619 62.9798C75.8184 62.9796 75.6749 62.9795 75.527 62.9793C75.097 62.9241 74.8661 62.826 74.522 62.5673C74.3293 62.1819 74.3822 61.7618 74.3808 61.3383C74.38 61.236 74.3792 61.1338 74.3784 61.0284C74.376 60.6892 74.3746 60.35 74.3734 60.0108C74.3729 59.8951 74.3724 59.7794 74.3719 59.6602C74.3694 59.0481 74.3677 58.4361 74.3666 57.824C74.3652 57.191 74.3611 56.558 74.3564 55.925C74.3532 55.4389 74.3522 54.9529 74.3518 54.4668C74.3512 54.2334 74.3498 54 74.3476 53.7666C74.3447 53.4402 74.3448 53.114 74.3456 52.7876C74.3441 52.691 74.3425 52.5943 74.3409 52.4948C74.3449 52.0676 74.3639 51.8187 74.623 51.4713C75.1828 51.0742 75.817 51.1022 76.4696 51.2131C77.1172 51.3629 77.1172 51.3629 77.4019 51.6476C77.4229 51.9487 77.4297 52.2363 77.4253 52.5373C77.425 52.6248 77.4247 52.7124 77.4243 52.8026C77.423 53.0826 77.42 53.3625 77.4169 53.6425C77.4157 53.8322 77.4146 54.0219 77.4136 54.2116C77.411 54.6769 77.4068 55.1422 77.4019 55.6075C79.5205 55.5974 81.6391 55.586 83.7576 55.573C84.7415 55.567 85.7253 55.5614 86.7091 55.5569C87.5671 55.5529 88.4251 55.5481 89.2832 55.5423C89.737 55.5393 90.1908 55.5367 90.6446 55.5351C91.0729 55.5335 91.5011 55.5309 91.9294 55.5274C92.1592 55.5258 92.3891 55.5254 92.619 55.525C94.3902 55.5252 94.3902 55.5252 96.0014 54.8875C96.258 54.4937 96.2805 54.1519 96.2864 53.6875C96.2898 53.5638 96.2932 53.44 96.2967 53.3125C96.2259 52.8713 96.1168 52.7544 95.7614 52.4876C94.9524 52.0248 94.1483 52.0747 93.2344 52.0746C93.0676 52.0732 92.9009 52.0716 92.7341 52.0698C92.2947 52.0655 91.8553 52.0631 91.4159 52.0612C90.6371 52.0579 89.8583 52.0524 89.0795 52.0446C88.9955 52.0438 88.9114 52.0429 88.8248 52.0421C82.6849 51.9736 82.6849 51.9736 80.617 50.0914C79.6086 48.9491 79.6031 47.5892 79.6603 46.1513C79.703 45.628 79.8619 45.233 80.1618 44.8078C80.2382 44.6967 80.2382 44.6967 80.316 44.5833C81.1615 43.4882 82.3185 43.0396 83.6417 42.7679C83.7927 42.7359 83.7927 42.7359 83.9466 42.7034C85.1561 42.4819 86.3672 42.4791 87.5935 42.4768Z" fill="#E4E4E4"/>
<path d="M64.6544 42.3716C64.9831 42.3718 65.3118 42.3712 65.6405 42.3706C66.4154 42.3693 67.1903 42.3692 67.9653 42.3699C68.7625 42.3707 69.5597 42.3692 70.3569 42.3666C71.0452 42.3645 71.7335 42.3638 72.4219 42.3642C72.8314 42.3644 73.2409 42.3641 73.6504 42.3624C74.1055 42.361 74.5606 42.3618 75.0157 42.3632C75.1502 42.3622 75.2847 42.3613 75.4232 42.3604C76.2039 42.3657 76.7743 42.4203 77.3795 42.9628C77.6432 43.4902 77.7275 44.0307 77.5628 44.6029C77.2802 45.2309 77.2802 45.2309 76.8911 45.418C76.5483 45.5323 76.2881 45.5584 75.928 45.5595C75.7398 45.561 75.7398 45.561 75.5478 45.5625C75.4114 45.5624 75.275 45.5623 75.1345 45.5622C74.9899 45.563 74.8452 45.5638 74.6961 45.5647C74.3819 45.5663 74.0677 45.5675 73.7535 45.568C73.2549 45.5688 72.7564 45.5714 72.2578 45.5743C71.1976 45.5802 70.1374 45.584 69.0772 45.5877C67.9365 45.5917 66.7958 45.5961 65.6551 45.6026C65.2415 45.605 64.828 45.6068 64.4145 45.6075C61.3027 45.4577 58.7024 46.2675 58.4809 46.5191C58.2595 46.7707 58.2776 47.0545 58.2779 47.4329C58.2771 47.5779 58.2764 47.7228 58.2756 47.8722C58.2767 48.0289 58.2778 48.1857 58.2789 48.3472C58.279 48.5096 58.2789 48.6721 58.2788 48.8345C58.2788 49.175 58.28 49.5154 58.2822 49.8558C58.2849 50.2918 58.285 50.7276 58.2842 51.1636C58.2838 51.4991 58.2846 51.8346 58.2857 52.17C58.2864 52.4088 58.2863 52.6476 58.2861 52.8863C58.2878 53.1043 58.2878 53.1043 58.2896 53.3268C58.2904 53.5186 58.2904 53.5186 58.2913 53.7143C58.3229 54.0512 58.3797 54.2455 58.5625 54.5275C59.5579 55.2704 60.6693 55.3848 61.8643 55.4666C62.2265 55.4919 62.5881 55.5222 62.9499 55.5526C63.0738 55.563 63.1977 55.5734 63.3254 55.5841C63.4168 55.5918 63.5082 55.5995 63.6024 55.6074C63.6005 55.4894 63.5986 55.3713 63.5967 55.2496C63.5901 54.8116 63.586 54.3735 63.5826 53.9354C63.5808 53.7458 63.5783 53.5562 63.5752 53.3666C63.5709 53.094 63.5688 52.8215 63.5672 52.5489C63.5654 52.4642 63.5635 52.3794 63.5616 52.2921C63.5615 51.9455 63.5629 51.7061 63.7599 51.414C64.1076 51.1968 64.4035 51.2477 64.8023 51.2876C65.1844 51.4333 65.1844 51.4333 65.5748 51.6401C65.6462 51.6774 65.7176 51.7148 65.7911 51.7533C66.0229 51.8757 66.2527 52.0011 66.4823 52.1275C66.5606 52.1705 66.6389 52.2135 66.7195 52.2579C67.2835 52.5691 67.8433 52.8873 68.4022 53.2075C68.5336 53.2825 68.6649 53.3576 68.8002 53.4348C69.0658 53.5867 69.3312 53.7387 69.5966 53.8909C69.9841 54.1125 70.3733 54.331 70.7628 54.549C70.8841 54.6171 71.0055 54.6852 71.1305 54.7554C71.3705 54.89 71.6108 55.0244 71.8512 55.1583C73.8509 56.2813 73.8509 56.2813 74.0796 56.8149C74.0308 57.2736 73.8722 57.4299 73.5621 57.7674C73.2498 57.9836 73.2498 57.9836 72.896 58.1817C72.766 58.2555 72.636 58.3292 72.502 58.4052C72.3643 58.4818 72.2265 58.5584 72.0846 58.6374C71.9419 58.7179 71.7993 58.7987 71.6567 58.8795C71.377 59.0382 71.097 59.1965 70.8169 59.3545C70.3652 59.611 69.9187 59.8752 69.4747 60.1448C69.3369 60.2281 69.1991 60.3114 69.0613 60.3946C68.9938 60.4354 68.9263 60.4762 68.8568 60.5182C68.1949 60.9164 67.5284 61.3067 66.8607 61.6952C66.5975 61.8501 66.3367 62.0085 66.0759 62.1674C65.9064 62.2683 65.7369 62.369 65.5673 62.4697C65.4907 62.5176 65.414 62.5655 65.3351 62.6148C64.9348 62.8489 64.6897 62.9274 64.222 62.9183C63.8424 62.8072 63.8424 62.8072 63.6024 62.4472C63.5818 62.1508 63.5745 61.8682 63.5789 61.5721C63.5793 61.4874 63.5796 61.4027 63.58 61.3154C63.5813 61.0452 63.5843 60.775 63.5874 60.5048C63.5886 60.3214 63.5897 60.1381 63.5907 59.9547C63.5933 59.5056 63.5974 59.0565 63.6024 58.6074C63.5295 58.6086 63.4565 58.6099 63.3814 58.6112C57.8103 58.6941 57.8103 58.6941 55.7126 56.8824C54.5738 55.5538 54.4253 54.0186 54.4391 52.3094C54.439 52.1628 54.4389 52.0162 54.4389 51.8652C54.4392 51.5583 54.4403 51.2513 54.4423 50.9444C54.4452 50.4771 54.4448 50.0098 54.444 49.5425C54.4446 49.2423 54.4455 48.9422 54.4466 48.642C54.4464 48.5039 54.4463 48.3657 54.4462 48.2234C54.4595 46.7006 54.6928 45.3427 55.7426 44.1778C57.9846 42.0956 61.8215 42.3694 64.6544 42.3716Z" fill="#E4E4E4"/>
<path d="M1.42253 44.2079C3.74295 42.0284 7.82993 42.365 10.779 42.3701C11.2438 42.3704 11.7087 42.3672 12.1735 42.3642C19.4417 42.3455 19.4416 42.3463 22.0085 44.8456C22.6392 45.8887 22.6191 47.0422 22.6159 48.2236C22.6164 48.4016 22.6171 48.5797 22.6178 48.7577C22.6189 49.1292 22.619 49.5006 22.6178 49.872C22.6165 50.3446 22.6182 50.8174 22.6217 51.29C22.624 51.6571 22.6244 52.0244 22.6237 52.3915C22.6237 52.5656 22.6241 52.74 22.6257 52.914C22.6359 54.2989 22.4699 55.635 21.484 56.6874C19.4193 58.6768 16.2373 58.5415 13.5856 58.5224C13.3065 58.5217 13.0269 58.5218 12.7477 58.5214C12.0209 58.5201 11.2939 58.5166 10.5671 58.5126C9.82209 58.5089 9.07668 58.5066 8.33171 58.5048C6.87596 58.501 5.42024 58.4949 3.96452 58.4872C3.9664 58.5967 3.96844 58.7065 3.97038 58.8193C3.97653 59.2274 3.98064 59.6357 3.98405 60.0439C3.98585 60.2202 3.98874 60.3969 3.99186 60.5732C3.99624 60.8271 3.99809 61.0809 3.99967 61.3349C4.00156 61.4876 4.00359 61.6405 4.00553 61.7978C3.96169 62.2372 3.86952 62.4589 3.60417 62.8076C3.11461 63.0959 2.59932 63.0917 2.0446 63.0927C1.96085 63.0956 1.87696 63.0985 1.79069 63.1015C1.36604 63.1039 1.10684 63.0601 0.739908 62.8417C0.316236 62.3853 0.214057 61.9523 0.213541 61.3398C0.212865 61.216 0.212284 61.0923 0.211588 60.9648C0.212073 60.8302 0.213041 60.6953 0.213541 60.5566C0.21312 60.4137 0.212998 60.2702 0.212564 60.123C0.21169 59.7318 0.211803 59.3404 0.212564 58.9492C0.213173 58.5383 0.211964 58.1275 0.211588 57.7167C0.211151 57.026 0.212398 56.3352 0.213541 55.6445C0.214842 54.849 0.213888 54.0532 0.212564 53.2577C0.21147 52.5726 0.211939 51.8872 0.212564 51.2021C0.212936 50.7939 0.212387 50.3857 0.211588 49.9775C0.210974 49.5209 0.212211 49.0639 0.213541 48.6074C0.213056 48.4746 0.212087 48.3418 0.211588 48.205C0.219742 46.683 0.364236 45.3708 1.42253 44.2079ZM9.31706 45.496C7.76483 45.4915 5.77708 45.3249 4.44401 46.248C4.11514 46.5838 3.97477 46.7775 3.9069 47.248C3.908 47.4047 3.90876 47.5568 3.90983 47.7089C3.90961 47.9764 3.91024 48.2442 3.91374 48.5117C3.91632 48.7021 3.91773 48.8925 3.91862 49.0829C3.91986 49.5831 3.92317 50.0837 3.92838 50.5839C3.93382 51.102 3.93662 51.6205 3.93913 52.1386C3.94434 53.2547 3.95339 54.3712 3.96452 55.4872C5.37066 55.4898 6.77712 55.4918 8.18327 55.4931C8.90067 55.4937 9.61821 55.4948 10.3356 55.496C11.0378 55.4974 11.7399 55.4985 12.4421 55.499C12.7097 55.4991 12.9781 55.4987 13.2458 55.499C13.6299 55.4999 14.014 55.5008 14.3981 55.5009H15.2223C16.317 55.4911 17.4032 55.3992 18.3493 54.7822C18.7116 54.4198 18.9392 54.106 19.0104 53.5908C19.0111 53.4644 19.0117 53.3413 19.0124 53.2187C19.0139 53.0749 19.0157 52.9354 19.0173 52.7958C19.0169 52.6416 19.0166 52.4915 19.0163 52.3417C19.0179 51.9413 19.0193 51.54 19.0182 51.1396C19.0167 50.7213 19.0168 50.303 19.0202 49.8847C19.0229 49.5575 19.0243 49.2304 19.0241 48.9033C19.0239 48.7437 19.0233 48.5884 19.0231 48.4335C19.0245 48.2792 19.0266 48.1292 19.028 47.9794C19.0268 47.8357 19.0252 47.6961 19.0241 47.5566C19.024 46.9532 18.9013 46.6861 18.484 46.248C17.4211 45.4888 17.4207 45.4885 14.5465 45.4951C14.3525 45.4956 14.1585 45.4962 13.9645 45.496H11.1549C10.7412 45.4949 10.3274 45.4947 9.91374 45.4951C9.71491 45.4954 9.51589 45.4959 9.31706 45.496Z" fill="#E4E4E4"/>
<path d="M26.8234 38.103C26.9781 38.1083 27.1328 38.1136 27.2921 38.119C27.8269 38.2294 27.9833 38.3869 28.3234 38.808C28.3985 39.1781 28.3985 39.1781 28.3987 39.6005C28.4 39.7175 28.4 39.7175 28.4013 39.8368C28.4034 40.0973 28.4013 40.3576 28.3991 40.618C28.3997 40.8051 28.4006 40.9922 28.4017 41.1793C28.4039 41.6868 28.4024 42.1943 28.4 42.7018C28.398 43.233 28.3991 43.7643 28.3997 44.2956C28.4003 45.1877 28.3984 46.0798 28.395 46.9719C28.3912 48.0032 28.3912 49.0344 28.3932 50.0656C28.3951 51.0579 28.3943 52.0501 28.3923 53.0424C28.3914 53.4646 28.3916 53.8867 28.3925 54.3089C28.3934 54.8061 28.3919 55.3033 28.3886 55.8005C28.3878 55.9829 28.3878 56.1653 28.3887 56.3477C28.3897 56.5969 28.3878 56.8459 28.3851 57.095C28.3848 57.2344 28.3845 57.3737 28.3841 57.5173C28.3105 57.9656 28.1572 58.1651 27.8434 58.4874C27.2346 58.7918 26.1662 58.6852 25.5063 58.5437C25.21 58.4277 25.0047 58.3086 24.8254 58.0423C24.6924 57.6836 24.6921 57.3822 24.6906 56.9994C24.6894 56.8412 24.6882 56.6831 24.6869 56.5202C24.6868 56.3451 24.6868 56.1701 24.6867 55.995C24.6858 55.8105 24.6848 55.626 24.6837 55.4415C24.681 54.9404 24.68 54.4393 24.6794 53.9383C24.6789 53.6252 24.6782 53.3121 24.6773 52.999C24.6744 51.9066 24.6728 50.8141 24.6724 49.7217C24.672 48.7036 24.6684 47.6856 24.6634 46.6675C24.6592 45.7932 24.6573 44.919 24.6573 44.0447C24.6572 43.5226 24.6561 43.0005 24.6527 42.4785C24.6496 41.9874 24.6493 41.4963 24.6512 41.0052C24.6514 40.8252 24.6506 40.6451 24.6487 40.4651C24.6335 38.9354 24.6335 38.9354 25.0104 38.4619C25.5805 37.9996 26.1101 38.0702 26.8234 38.103Z" fill="#E4E4E4"/>
<path d="M44.8644 42.3624C47.3669 42.3482 49.9543 42.7261 51.8429 44.5158C52.6588 45.3885 52.7019 46.3011 52.7111 47.4357C52.712 47.5503 52.713 47.6652 52.714 47.7833C52.7156 48.0252 52.7169 48.2671 52.7179 48.5089C52.7193 48.7559 52.7222 49.0032 52.7257 49.2501C52.7308 49.6078 52.7323 49.9657 52.7335 50.3234C52.7356 50.4333 52.7382 50.5432 52.7404 50.6564C52.738 51.3432 52.655 51.7218 52.2023 52.2472C51.8759 52.4103 51.6205 52.3823 51.255 52.382C51.1042 52.3821 50.9533 52.3828 50.798 52.3829C50.63 52.3825 50.462 52.3814 50.2941 52.381C50.118 52.381 49.9419 52.3809 49.7657 52.381C49.2866 52.381 48.8074 52.3809 48.3282 52.38C47.8278 52.3793 47.3268 52.3792 46.8263 52.379C45.8784 52.3787 44.9305 52.3773 43.9825 52.3761C42.9033 52.3748 41.8235 52.3738 40.7443 52.3732C38.5239 52.3719 36.3035 52.37 34.0831 52.3673C34.139 52.5791 34.1955 52.7914 34.2521 53.0031C34.2833 53.1207 34.3146 53.2383 34.3468 53.3595C34.5542 54.0648 34.878 54.4125 35.4933 54.7902C36.6541 55.3675 37.8154 55.488 39.0929 55.5138C39.1754 55.5156 39.2579 55.5178 39.3429 55.5197C39.7635 55.5282 40.1839 55.5324 40.6046 55.5304C40.7608 55.532 40.9173 55.5337 41.0782 55.5353C41.2187 55.5349 41.3593 55.5347 41.504 55.5343C41.9934 55.6291 42.1694 55.8291 42.4825 56.2072C42.65 56.542 42.6414 56.8318 42.6554 57.2052C42.6627 57.3408 42.6704 57.4767 42.6779 57.6163C42.5934 58.0596 42.4521 58.2092 42.1017 58.4835C41.7178 58.7015 41.3187 58.6852 40.8907 58.674C40.7958 58.6737 40.7005 58.6743 40.6027 58.674C40.4015 58.6728 40.2003 58.6701 39.9991 58.6662C39.699 58.6603 39.399 58.658 39.0988 58.6574C38.114 58.6505 37.1377 58.6053 36.1583 58.5001C36.0309 58.4867 36.0307 58.4866 35.9005 58.4728C33.9741 58.2439 32.4699 57.5193 31.1925 56.0343C30.5544 55.1826 30.3501 54.3034 30.3458 53.2482C30.3451 53.1177 30.3447 52.9871 30.3439 52.8527C30.3437 52.7133 30.343 52.5734 30.3429 52.4298C30.3425 52.2846 30.3423 52.139 30.3419 51.9894C30.3413 51.6825 30.3409 51.3754 30.3409 51.0685C30.3407 50.6015 30.3383 50.1341 30.3361 49.6671C30.3357 49.3681 30.3362 49.0687 30.3361 48.7697C30.3352 48.6311 30.334 48.4925 30.3331 48.3497C30.3374 46.8312 30.5409 45.7793 31.5822 44.6456C33.6976 42.5886 36.9456 42.3694 39.7482 42.3722C39.9429 42.3717 40.1384 42.3708 40.3331 42.3703C40.7386 42.3694 41.1445 42.3696 41.5499 42.3703C42.0639 42.3709 42.5779 42.3691 43.0919 42.3663C43.4935 42.3646 43.8955 42.364 44.297 42.3644C44.4861 42.3643 44.6753 42.3637 44.8644 42.3624ZM49.0831 46.7277C46.5066 44.4299 37.1467 44.5151 34.3234 46.4874C33.9634 46.9745 33.963 46.9752 33.963 49.1281H49.2032C49.2032 48.3271 49.4412 47.4441 49.0831 46.7277Z" fill="#E4E4E4"/>
</g>
<defs>
<clipPath id="clip0_2336_13542">
<rect width="100" height="100" fill="white" transform="translate(0.211304 0.590088)"/>
</clipPath>
</defs>
</svg>
