<svg width="101" height="101" viewBox="0 0 101 101" fill="none" xmlns="http://www.w3.org/2000/svg">
<g clip-path="url(#clip0_2336_13583)">
<g clip-path="url(#clip1_2336_13583)">
<path d="M24.8882 27.796C49.7448 27.796 74.6015 27.796 100.211 27.796C100.211 42.8401 100.211 57.8843 100.211 73.3843C75.3547 73.3843 50.4981 73.3843 24.8882 73.3843C24.8882 72.4855 24.8882 71.5868 24.8882 70.6608C48.8529 70.6608 72.8177 70.6608 97.5086 70.6608C97.5086 57.4142 97.5086 44.1675 97.5086 30.5195C73.5439 30.5195 49.5791 30.5195 24.8882 30.5195C24.8882 29.6207 24.8882 28.722 24.8882 27.796Z" fill="#E4E4E4"/>
<path d="M65.6637 35.019C67.2536 35.019 68.8435 35.019 70.4816 35.019C71.3531 36.8287 72.2177 38.6393 73.0548 40.4653C73.5745 41.5981 74.1016 42.7273 74.6311 43.8555C74.7161 44.0366 74.8011 44.2178 74.8861 44.399C75.0141 44.6718 75.1422 44.9447 75.2702 45.2175C75.9891 46.7496 76.7059 48.2827 77.4202 49.8169C77.4952 49.9781 77.5703 50.1392 77.6454 50.3003C77.8634 50.7683 78.0811 51.2366 78.2981 51.7051C78.3957 51.9156 78.4936 52.126 78.5916 52.3364C78.65 52.4629 78.7085 52.5893 78.7687 52.7196C78.8195 52.8292 78.8703 52.9388 78.9226 53.0516C79.0672 53.3903 79.1838 53.7321 79.2947 54.0832C79.3723 54.0832 79.4498 54.0832 79.5297 54.0832C79.5703 53.9452 79.6109 53.8072 79.6528 53.6651C79.9081 52.8949 80.2636 52.1714 80.6113 51.4405C80.8249 50.9913 81.0363 50.5412 81.2478 50.091C81.2912 49.9987 81.3346 49.9065 81.3793 49.8114C81.8031 48.9085 82.2137 47.9998 82.6217 47.0896C83.282 45.618 83.9517 44.151 84.6267 42.6862C85.3343 41.1502 86.0406 39.6138 86.7425 38.0752C86.8292 37.8851 86.916 37.6951 87.0028 37.5051C87.1228 37.2423 87.2426 36.9794 87.3624 36.7166C87.3972 36.6404 87.432 36.5643 87.4678 36.4859C87.6891 35.9998 87.8987 35.5109 88.1079 35.019C89.6978 35.019 91.2877 35.019 92.9257 35.019C92.9257 45.2959 92.9257 55.5728 92.9257 66.1611C91.3746 66.1611 89.8235 66.1611 88.2254 66.1611C88.1866 59.4792 88.1478 52.7973 88.1079 45.9129C87.6038 47.007 87.0997 48.1011 86.5803 49.2284C86.1979 50.0286 85.8155 50.8289 85.4318 51.6285C85.0579 52.4112 84.6943 53.1984 84.3329 53.987C83.7206 55.3225 83.0995 56.6538 82.4739 57.983C82.3719 58.1999 82.2699 58.4169 82.1681 58.6338C82.0251 58.9381 81.8819 59.2422 81.7385 59.5463C81.6952 59.6388 81.6518 59.7312 81.6071 59.8265C81.3058 60.4638 81.3058 60.4638 81.1749 60.5958C80.9056 60.6062 80.636 60.6085 80.3665 60.6074C80.2455 60.6071 80.2455 60.6071 80.122 60.6069C79.8634 60.6062 79.6048 60.6047 79.3461 60.6032C79.1712 60.6026 78.9962 60.6021 78.8212 60.6016C78.3915 60.6003 77.9618 60.5982 77.5321 60.5958C77.4921 60.5123 77.4521 60.4287 77.4109 60.3426C76.5913 58.6303 75.7704 56.9186 74.9469 55.2081C74.3557 53.9802 73.7656 52.7517 73.1769 51.5226C72.3189 49.731 71.4589 47.9404 70.5991 46.1497C70.5603 52.7535 70.5215 59.3572 70.4816 66.1611C68.8917 66.1611 67.3018 66.1611 65.6637 66.1611C65.6637 55.8842 65.6637 45.6074 65.6637 35.019Z" fill="#E4E4E4"/>
<path d="M0.211304 35.019C16.475 35.019 16.475 35.019 19.4088 37.8974C21.2842 39.8892 21.916 42.4026 21.8623 45.0826C21.7705 47.5189 20.8114 49.6345 19.1302 51.3598C19.0507 51.4428 18.9712 51.5258 18.8892 51.6114C17.2989 53.1566 14.914 53.982 12.729 53.9782C12.6428 53.9783 12.5565 53.9783 12.4676 53.9783C12.1905 53.9782 11.9134 53.9773 11.6363 53.9764C11.4643 53.9762 11.2924 53.9761 11.1204 53.976C10.4854 53.9754 9.85042 53.9737 9.21542 53.9722C7.08506 53.9685 7.08506 53.9685 4.91166 53.9648C4.91166 57.9896 4.91166 62.0144 4.91166 66.1611C3.36054 66.1611 1.80942 66.1611 0.211304 66.1611C0.211304 55.8842 0.211304 45.6074 0.211304 35.019ZM4.91166 39.4002C4.91166 42.7608 4.91166 46.1213 4.91166 49.5836C6.81299 49.5982 6.81299 49.5982 8.75273 49.6132C9.14985 49.6175 9.54697 49.6218 9.95613 49.6263C10.2752 49.6277 10.5943 49.6289 10.9133 49.6298C10.994 49.6311 11.0747 49.6323 11.1578 49.6336C12.8488 49.6582 14.4157 49.3421 15.722 48.1932C16.8141 47.0524 17.0736 45.5955 17.0477 44.0747C16.9986 42.9198 16.6313 41.8983 15.84 41.058C15.7651 40.9765 15.6903 40.895 15.6132 40.811C14.6055 39.8104 13.2843 39.3841 11.8886 39.3868C11.8117 39.3868 11.7347 39.3868 11.6554 39.3868C11.4081 39.3869 11.1607 39.3878 10.9133 39.3887C10.6855 39.3889 10.6855 39.3889 10.4531 39.389C9.88632 39.3897 9.31952 39.3913 8.75273 39.3928C7.48517 39.3953 6.21762 39.3977 4.91166 39.4002Z" fill="#E4E4E4"/>
<path d="M44.6516 37.3652C44.8403 37.5302 45.0289 37.6954 45.2171 37.861C45.3726 37.981 45.5289 38.1 45.6872 38.2162C45.501 38.679 45.1858 38.9887 44.838 39.3319C44.7485 39.4216 44.7485 39.4216 44.6572 39.513C44.4674 39.703 44.2768 39.8921 44.0861 40.0812C43.9569 40.2102 43.8278 40.3393 43.6987 40.4684C43.3829 40.784 43.0664 41.0989 42.7494 41.4133C42.4246 41.2544 42.1612 41.09 41.8828 40.8583C39.706 39.2061 37.0171 38.849 34.361 39.2006C33.1271 39.4294 32.0886 40.0402 31.301 41.0225C30.519 42.1742 30.3543 43.3685 30.5285 44.7288C30.781 45.8019 31.3117 46.4746 32.2251 47.0527C33.8083 48.0194 35.8167 48.1281 37.6097 48.382C40.4995 48.7949 43.3829 49.3944 45.2612 51.8779C46.7128 54.0226 47.0989 56.7181 46.6644 59.2587C46.341 60.7865 45.6505 62.0403 44.6296 63.201C44.5685 63.2736 44.5075 63.3463 44.4446 63.4211C42.4568 65.6209 39.2106 66.392 36.3714 66.5294C31.9121 66.681 28 65.5755 24.6531 62.4905C24.8415 62.0162 25.1726 61.6998 25.528 61.3489C25.5902 61.2865 25.6525 61.2241 25.7166 61.1598C25.9148 60.9614 26.1139 60.7639 26.3129 60.5663C26.4477 60.4316 26.5825 60.2969 26.7173 60.162C27.047 59.8324 27.3775 59.5035 27.7083 59.175C28.0865 59.3574 28.3676 59.5637 28.6851 59.841C31.0721 61.7865 34.1434 62.3035 37.1433 61.9886C38.6557 61.7738 40.0569 61.3046 41.0795 60.1144C41.8688 59.0193 42.0754 57.7686 41.8718 56.4501C41.7005 55.6314 41.4411 55.046 40.8693 54.4385C40.7786 54.3401 40.7786 54.3401 40.6861 54.2396C39.6602 53.243 38.178 53.1323 36.8321 52.9422C36.3195 52.8695 35.8078 52.7918 35.2959 52.7146C35.1966 52.6998 35.0974 52.6849 34.9951 52.6696C32.1304 52.2388 29.0077 51.6425 27.1541 49.1563C25.7052 47.0897 25.3995 44.4955 25.7873 42.0318C26.2071 39.8616 27.3779 38.0245 29.1184 36.6769C33.5041 33.7092 40.5291 33.9803 44.6516 37.3652Z" fill="#E4E4E4"/>
<path d="M52.9728 35.019C54.5239 35.019 56.075 35.019 57.6731 35.019C57.6731 45.2959 57.6731 55.5728 57.6731 66.1611C56.122 66.1611 54.5709 66.1611 52.9728 66.1611C52.9728 55.8842 52.9728 45.6074 52.9728 35.019Z" fill="#E4E4E4"/>
</g>
</g>
<defs>
<clipPath id="clip0_2336_13583">
<rect width="100" height="100" fill="white" transform="translate(0.211304 0.590088)"/>
</clipPath>
<clipPath id="clip1_2336_13583">
<rect width="100" height="45.5882" fill="white" transform="translate(0.211304 27.796)"/>
</clipPath>
</defs>
</svg>
