<svg width="101" height="101" viewBox="0 0 101 101" fill="none" xmlns="http://www.w3.org/2000/svg">
<g clip-path="url(#clip0_2358_6200)">
<path d="M11.7744 42.8064C11.9602 42.7863 12.1366 42.851 12.3398 43.0291C12.5483 43.2117 12.7713 43.5016 13.043 43.905C13.5129 44.6028 14.1186 45.626 15.0166 46.905L15.4189 47.4685C15.6251 47.7514 15.9143 47.9754 16.2373 48.1755C16.5594 48.3751 16.9295 48.5586 17.2979 48.7517C18.0417 49.1418 18.8016 49.5823 19.334 50.324V50.325C19.3726 50.381 19.3771 50.4517 19.3496 50.5105L19.3115 50.5642L19.3096 50.5662L1.05566 69.2771C1.01156 69.3228 0.949793 69.3458 0.888672 69.3406L0.828125 69.3259C0.749935 69.2941 0.69925 69.2178 0.699219 69.1335C0.748422 65.5492 0.908779 61.6255 1.5293 58.115C2.1313 54.7095 3.16237 51.7172 4.9209 49.7976L5.09375 49.615L11.6875 42.8552L11.6904 42.8523C11.7125 42.8283 11.742 42.8117 11.7744 42.8064Z" fill="#E4E4E4" stroke="black" stroke-width="0.3"/>
<path d="M19.6475 50.7329L19.7021 50.771L19.7041 50.7729L38.415 69.0278C38.4748 69.087 38.4927 69.1766 38.4609 69.2544C38.429 69.3321 38.353 69.3823 38.2686 69.3823C34.6848 69.3331 30.7619 69.1727 27.252 68.5522C23.8464 67.9502 20.8542 66.9192 18.9346 65.1606L18.752 64.9888L11.9922 58.395L11.8877 58.5015L11.9922 58.394L11.9883 58.3911L11.959 58.3521C11.9516 58.3381 11.9459 58.323 11.9434 58.3071C11.9236 58.1216 11.9882 57.9456 12.166 57.7427C12.3487 57.5342 12.6386 57.3112 13.042 57.0396C13.7398 56.5696 14.763 55.9639 16.042 55.0659L16.6055 54.6636C16.8883 54.4574 17.1124 54.1681 17.3125 53.8452C17.5121 53.5231 17.6955 53.153 17.8887 52.7847C18.2788 52.0408 18.719 51.2803 19.4609 50.7476L19.4619 50.7485C19.518 50.7098 19.5886 50.7055 19.6475 50.7329Z" fill="#E4E4E4" stroke="black" stroke-width="0.3"/>
<path d="M19.2998 50.7805C17.3911 54.8313 16.6535 57.8761 16.6562 60.178C16.658 61.6254 16.9534 62.7774 17.4297 63.6985L11.9189 58.3235C11.6903 58.1 11.6126 57.7164 11.7656 57.175C11.9181 56.636 12.2932 55.972 12.917 55.2415C14.1159 53.8375 16.2108 52.2124 19.2998 50.7805Z" fill="#E4E4E4" stroke="black" stroke-width="0.3"/>
<path d="M38.3945 31.6194C38.4533 31.6433 38.4975 31.6924 38.5156 31.7512L38.5244 31.8127C38.4752 35.3968 38.3148 39.3202 37.6943 42.8303C37.0923 46.2359 36.0613 49.2281 34.3027 51.1477L34.1299 51.3303L27.5361 58.0901L27.5332 58.093C27.5112 58.1171 27.4814 58.1329 27.4492 58.1379C27.2636 58.1581 27.0879 58.0941 26.8848 57.9163C26.6762 57.7336 26.4525 57.443 26.1807 57.0393C25.7107 56.3416 25.1049 55.319 24.207 54.0403L23.8037 53.4768C23.5973 53.1939 23.3084 52.969 22.9854 52.7688C22.6633 52.5693 22.2939 52.3857 21.9258 52.1926C21.2278 51.8265 20.5155 51.4165 19.9902 50.7542L19.8877 50.6174C19.8506 50.5619 19.8469 50.4927 19.874 50.4348L19.9121 50.3811L19.9141 50.3782L38.167 31.6682V31.6672C38.2112 31.6218 38.2729 31.5996 38.334 31.6047L38.3945 31.6194Z" fill="#E4E4E4" stroke="black" stroke-width="0.3"/>
<path d="M19.9219 50.7825C23.9733 52.6913 27.0182 53.4297 29.3203 53.427C30.768 53.4253 31.9197 53.1291 32.8408 52.6526L27.4648 58.1643C27.2414 58.3931 26.8578 58.4716 26.3164 58.3186C25.7773 58.1661 25.1126 57.7903 24.3818 57.1663C22.9777 55.9672 21.3538 53.8719 19.9219 50.7825Z" fill="#E4E4E4" stroke="black" stroke-width="0.3"/>
<path d="M0.948242 31.5601C4.53277 31.6093 8.45705 31.7695 11.9678 32.3901C15.3734 32.9922 18.3655 34.0231 20.2852 35.7817L20.4678 35.9546L27.2275 42.5483L27.2305 42.5513C27.2544 42.5734 27.27 42.603 27.2754 42.6353C27.2955 42.8211 27.2318 42.9974 27.0537 43.2007C26.871 43.4092 26.5804 43.632 26.1768 43.9038C25.479 44.3737 24.4565 44.9796 23.1777 45.8774L22.6143 46.2798C22.3313 46.486 22.1064 46.7751 21.9062 47.0981C21.7067 47.4202 21.5232 47.7904 21.3301 48.1587C20.94 48.9025 20.4997 49.6621 19.7578 50.1948C19.7018 50.2334 19.631 50.2378 19.5723 50.2104L19.5186 50.1724L19.5166 50.1704L0.805664 31.9175L0.804688 31.9165L0.766602 31.8677C0.746716 31.8317 0.737713 31.7905 0.741211 31.7495L0.755859 31.689C0.787639 31.6108 0.863868 31.5602 0.948242 31.5601Z" fill="#E4E4E4" stroke="black" stroke-width="0.3"/>
<path d="M27.3057 42.6218C27.5345 42.8451 27.6131 43.2287 27.46 43.7703C27.3075 44.3093 26.9316 44.9731 26.3076 45.7039C25.1086 47.108 23.0132 48.7318 19.9238 50.1638C21.8324 46.1129 22.5711 43.0683 22.5684 40.7664C22.5666 39.3183 22.2707 38.1661 21.7939 37.2449L27.3057 42.6218Z" fill="#E4E4E4" stroke="black" stroke-width="0.3"/>
<path d="M11.7617 42.781C11.9851 42.5523 12.3688 42.4746 12.9102 42.6277C13.4493 42.7802 14.114 43.155 14.8447 43.7791C16.2486 44.9779 17.8719 47.0731 19.3037 50.1619C15.253 48.2535 12.2081 47.5156 9.90625 47.5183C8.45785 47.5201 7.30512 47.8158 6.38379 48.2927L11.7617 42.781Z" fill="#E4E4E4" stroke="black" stroke-width="0.3"/>
<path d="M19.6119 51.2852C20.0625 51.2852 20.4278 50.9199 20.4278 50.4693C20.4278 50.0186 20.0625 49.6533 19.6119 49.6533C19.1612 49.6533 18.7959 50.0186 18.7959 50.4693C18.7959 50.9199 19.1612 51.2852 19.6119 51.2852Z" fill="black"/>
<path d="M43.758 43.8459C43.679 43.8439 43.6156 43.7804 43.6136 43.7014C43.6123 43.6747 43.6147 43.6479 43.6207 43.6219L45.4119 38.9501C45.4422 38.8496 45.5384 38.7837 45.6431 38.7914H46.1339C46.2385 38.7842 46.3344 38.8499 46.3651 38.9501L48.1486 43.6219L48.1629 43.7014C48.1612 43.7805 48.0975 43.8442 48.0184 43.8459H47.6507C47.6066 43.8487 47.563 43.8359 47.5276 43.8096C47.5019 43.7855 47.4823 43.7558 47.4699 43.7228L47.073 42.6977H44.7048L44.3078 43.7228C44.2944 43.7571 44.272 43.787 44.243 43.8096C44.2101 43.8351 44.1693 43.8479 44.1278 43.8459H43.758ZM46.8632 42.0766L45.8885 39.5136L44.9139 42.0766H46.8632ZM49.0145 45.2175C48.9684 45.2183 48.9242 45.2 48.892 45.167C48.8624 45.1361 48.8467 45.0944 48.8486 45.0517V40.2595C48.8467 40.2169 48.8624 40.1752 48.892 40.1443C48.9242 40.1113 48.9684 40.093 49.0145 40.0938H49.3466C49.4365 40.0977 49.5085 40.1696 49.5125 40.2595V40.5769C49.7877 40.2033 50.233 39.9943 50.6962 40.0212C51.1287 39.9895 51.5503 40.1666 51.8301 40.4978C52.0983 40.8519 52.243 41.2841 52.2421 41.7282C52.2467 41.7809 52.2492 41.8627 52.2492 41.9737C52.2492 42.0846 52.2467 42.1664 52.2421 42.2191C52.2414 42.663 52.097 43.0947 51.8301 43.4495C51.5491 43.7791 51.1283 43.9559 50.6962 43.9262C50.2414 43.9474 49.8048 43.7454 49.5267 43.3848V45.0601C49.5286 45.1028 49.5129 45.1445 49.4833 45.1754C49.4545 45.2091 49.4117 45.2277 49.3674 45.2259L49.0145 45.2175ZM50.5454 43.333C50.8309 43.358 51.1101 43.2388 51.2894 43.0151C51.4591 42.7688 51.5494 42.4767 51.5484 42.1777C51.5532 42.1297 51.5556 42.0601 51.5556 41.9686C51.5556 41.0589 51.2184 40.6041 50.5441 40.6041C50.2545 40.5849 49.974 40.7091 49.7934 40.9363C49.6269 41.1619 49.5339 41.4331 49.5267 41.7133L49.5189 41.9879L49.5267 42.2696C49.5317 42.5415 49.6284 42.8038 49.8013 43.0138C49.9852 43.2309 50.2611 43.3492 50.5454 43.333ZM54.1899 43.9158C53.9628 43.9178 53.7381 43.8685 53.5326 43.7714C53.3414 43.6844 53.1752 43.5508 53.0489 43.3828C52.935 43.2198 52.8744 43.0255 52.8754 42.8265C52.871 42.5198 53.0159 42.2301 53.2639 42.0495C53.5783 41.8231 53.9469 41.6838 54.3324 41.6454L55.408 41.4939V41.2846C55.408 40.7938 55.1274 40.5483 54.5662 40.5483C54.3837 40.5409 54.203 40.5888 54.0481 40.6857C53.923 40.7627 53.8189 40.8695 53.745 40.9965C53.7352 41.0326 53.7152 41.0652 53.6874 41.0904C53.6637 41.1115 53.6324 41.1221 53.6007 41.1195H53.2898C53.2469 41.1225 53.2048 41.1066 53.1744 41.0762C53.144 41.0459 53.1282 41.0038 53.1311 40.9609C53.1464 40.819 53.2014 40.6843 53.2898 40.5723C53.4165 40.4063 53.5829 40.2748 53.7736 40.1896C54.0239 40.0716 54.2987 40.0148 54.5753 40.0239C55.0003 39.9823 55.4232 40.1211 55.7409 40.4065C55.9784 40.6605 56.1058 40.998 56.0952 41.3456V43.6853C56.0961 43.7315 56.0778 43.7761 56.0446 43.8084C56.0138 43.838 55.9721 43.8538 55.9294 43.8517H55.5972C55.5518 43.8567 55.5067 43.8408 55.4743 43.8086C55.442 43.7764 55.4259 43.7313 55.4307 43.6859V43.3757C55.3108 43.5412 55.1521 43.6746 54.9684 43.7643C54.7249 43.8778 54.4582 43.9287 54.1899 43.9158ZM54.3414 43.3744C54.6279 43.385 54.9056 43.2747 55.107 43.0707C55.3224 42.8271 55.4315 42.5074 55.4101 42.1829V41.9808L54.5727 42.1039C54.3005 42.1289 54.0369 42.2126 53.8002 42.3493C53.6429 42.434 53.5439 42.597 53.5411 42.7754C53.535 42.9564 53.6258 43.1269 53.7794 43.2229C53.9478 43.3272 54.1435 43.3786 54.3414 43.3744ZM58.6434 43.9158C58.1972 43.9411 57.7597 43.7848 57.4305 43.4826C57.1244 43.1469 56.9589 42.7064 56.9681 42.2522L56.961 41.9634L56.9681 41.6745C56.9589 41.2232 57.1245 40.7858 57.4305 40.4539C57.7575 40.1474 58.1959 39.9882 58.6434 40.0134C58.9478 40.0042 59.25 40.0686 59.5241 40.2012C59.7402 40.305 59.9247 40.4646 60.0584 40.6637C60.1712 40.8259 60.2384 41.0156 60.2526 41.2128C60.2586 41.2561 60.2422 41.2994 60.2092 41.328C60.1751 41.3573 60.1311 41.3727 60.0862 41.3714H59.7398C59.7012 41.3743 59.6629 41.364 59.6309 41.3423C59.5984 41.3099 59.5738 41.2705 59.5591 41.2271C59.5015 41.0294 59.3795 40.8566 59.2126 40.7362C59.0445 40.6297 58.8481 40.5769 58.6492 40.5846C58.3825 40.573 58.1235 40.6755 57.9369 40.8663C57.7443 41.1037 57.6442 41.4027 57.6552 41.7082L57.648 41.9672L57.6552 42.2127C57.6427 42.5215 57.7428 42.8243 57.9369 43.0648C58.1245 43.2535 58.3836 43.3533 58.6492 43.3394C58.8471 43.347 59.0428 43.2968 59.2126 43.1951C59.3786 43.0705 59.5001 42.8959 59.5591 42.6971C59.5738 42.6536 59.5984 42.6141 59.6309 42.5818C59.6608 42.5556 59.7001 42.5425 59.7398 42.5455H60.0862C60.1324 42.5446 60.177 42.5629 60.2092 42.596C60.2422 42.6247 60.2586 42.668 60.2526 42.7113C60.2368 42.9079 60.1698 43.097 60.0584 43.2598C59.9247 43.4588 59.7402 43.6184 59.5241 43.7222C59.2508 43.8587 58.9488 43.9239 58.6434 43.9158ZM61.2842 43.8433C61.2389 43.8483 61.1937 43.8324 61.1614 43.8002C61.1291 43.768 61.1131 43.7229 61.1178 43.6775V38.8854C61.1159 38.8426 61.1316 38.801 61.1613 38.7701C61.1935 38.7371 61.2381 38.7188 61.2842 38.7195H61.645C61.7352 38.7229 61.8077 38.7951 61.8114 38.8854V40.5691C61.942 40.3987 62.1099 40.2604 62.3023 40.165C62.521 40.062 62.7613 40.0124 63.003 40.0206C63.411 39.9977 63.8072 40.1625 64.0786 40.468C64.3507 40.7981 64.4894 41.2181 64.4671 41.6454V43.6814C64.4682 43.7276 64.4499 43.7722 64.4166 43.8044C64.3858 43.8341 64.3441 43.8498 64.3014 43.8478H63.9406C63.8954 43.8526 63.8504 43.8367 63.8183 43.8044C63.786 43.7723 63.7701 43.7273 63.7749 43.6821V41.6785C63.7931 41.3912 63.703 41.1077 63.5223 40.8838C63.3388 40.6883 63.0775 40.5849 62.81 40.6021C62.5369 40.59 62.2716 40.6952 62.0808 40.8909C61.8925 41.1083 61.7968 41.3907 61.814 41.6777V43.6775C61.815 43.7238 61.7967 43.7684 61.7635 43.8006C61.7326 43.8303 61.6909 43.846 61.6482 43.8439L61.2842 43.8433ZM67.0128 43.9158C66.5699 43.9367 66.1383 43.7725 65.8213 43.4625C65.5123 43.1167 65.3403 42.6699 65.3375 42.2062L65.3304 41.9608L65.3375 41.7224C65.3466 41.2629 65.5208 40.822 65.8284 40.4804C66.5181 39.8467 67.5845 39.869 68.2471 40.5309C68.5579 40.9185 68.7147 41.4071 68.6875 41.9031V42.0261C68.6883 42.0722 68.67 42.1165 68.6369 42.1486C68.6061 42.1782 68.5645 42.1939 68.5217 42.192H66.0233V42.2568C66.0296 42.5471 66.1283 42.8279 66.305 43.0585C66.4744 43.2705 66.7337 43.3904 67.005 43.3822C67.194 43.3905 67.3816 43.3456 67.5464 43.2527C67.6697 43.1804 67.7777 43.0846 67.8644 42.971C67.8894 42.932 67.9212 42.8978 67.9583 42.87C67.9969 42.8527 68.0392 42.8454 68.0813 42.8486H68.4355C68.4748 42.8473 68.5132 42.8602 68.5437 42.8848C68.5731 42.91 68.5892 42.9473 68.5871 42.9859C68.5669 43.1333 68.4954 43.2688 68.385 43.3686C68.229 43.5358 68.0395 43.6683 67.8287 43.7572C67.5713 43.868 67.2931 43.9208 67.0128 43.9158ZM68.0017 41.692V41.6707C68.0147 41.3761 67.9167 41.0875 67.7271 40.8618C67.5416 40.6593 67.2797 40.544 67.005 40.544C66.7304 40.544 66.4685 40.6593 66.283 40.8618C66.1026 41.0916 66.0105 41.3787 66.0239 41.6707V41.692H68.0017Z" fill="#E4E4E4"/>
<path d="M42.2567 60.8051C42.056 60.8003 41.8943 60.6387 41.8895 60.4379C41.8863 60.3701 41.8925 60.3021 41.9077 60.2359L46.4576 48.3669C46.5349 48.1119 46.7786 47.9444 47.0443 47.9634H48.2915C48.5575 47.9444 48.8013 48.1118 48.879 48.3669L53.4121 60.2359L53.449 60.4379C53.4436 60.6384 53.2823 60.7996 53.0818 60.8051H52.146C52.0344 60.8121 51.9239 60.7795 51.8339 60.7132C51.7689 60.652 51.7188 60.5766 51.6875 60.4929L50.6786 57.8877H44.6612L43.6523 60.4929C43.6181 60.5799 43.561 60.656 43.4872 60.7132C43.4033 60.7776 43.2994 60.8102 43.1938 60.8051H42.2567ZM50.145 56.3109L47.6686 49.7987L45.1929 56.3102L50.145 56.3109ZM55.4449 49.4866C55.3296 49.499 55.215 49.4586 55.133 49.3767C55.0509 49.2948 55.0104 49.1802 55.0226 49.065V48.0742C55.0196 47.9601 55.0587 47.849 55.1326 47.762C55.2143 47.6776 55.3273 47.6307 55.4449 47.6326H56.6007C56.7177 47.632 56.83 47.6782 56.9127 47.761C56.9954 47.8436 57.0417 47.956 57.0412 48.0729V49.0637C57.0429 49.181 56.9959 49.2937 56.9116 49.3752C56.8249 49.4491 56.7139 49.4883 56.6001 49.4853L55.4449 49.4866ZM55.5918 60.8057C55.4766 60.8179 55.3619 60.7774 55.28 60.6954C55.198 60.6135 55.1574 60.4988 55.1696 60.3835V51.6877C55.1643 51.579 55.2042 51.4728 55.2797 51.3944C55.3614 51.3099 55.4743 51.263 55.5918 51.2648H56.4719C56.701 51.2738 56.8849 51.4573 56.8941 51.6864V60.3816C56.896 60.4991 56.8491 60.6121 56.7646 60.6937C56.686 60.7691 56.58 60.8089 56.4713 60.8038L55.5918 60.8057ZM60.0349 60.8057C59.9197 60.8179 59.8051 60.7774 59.7232 60.6954C59.6414 60.6134 59.601 60.4988 59.6133 60.3835V51.7059C59.6105 51.5921 59.6497 51.4811 59.7234 51.3944C59.8051 51.3099 59.9181 51.263 60.0355 51.2648H60.8774C60.9944 51.2644 61.1067 51.3106 61.1894 51.3932C61.272 51.476 61.3183 51.5882 61.3178 51.7052V52.5122C61.8749 51.6507 62.8646 51.17 63.8861 51.2648H64.5984C64.8274 51.2741 65.0108 51.4576 65.02 51.6864V52.4383C65.0242 52.5508 64.9764 52.659 64.8906 52.7316C64.812 52.8071 64.7059 52.8468 64.5971 52.8417H63.4963C62.9171 52.8107 62.3516 53.0238 61.9369 53.4291C61.5417 53.8491 61.336 54.4127 61.3677 54.9884V60.3816C61.3695 60.4991 61.3226 60.6121 61.2381 60.6937C61.1512 60.7675 61.04 60.8068 60.926 60.8038L60.0349 60.8057ZM67.9575 60.8057C67.8423 60.8177 67.7279 60.7771 67.6461 60.6951C67.5643 60.6132 67.5238 60.4987 67.5359 60.3835V52.7329H65.9765C65.8614 52.7451 65.7469 52.7046 65.6651 52.6228C65.5832 52.5409 65.5428 52.4265 65.5549 52.3113V51.6877C65.5497 51.579 65.5895 51.4728 65.665 51.3944C65.7464 51.3099 65.8593 51.263 65.9765 51.2648H67.5359V50.3473C67.5359 48.268 68.5876 47.2286 70.6909 47.2291H71.718C71.9472 47.238 72.131 47.4216 72.1403 47.6506V48.2743C72.142 48.3916 72.0951 48.5043 72.0107 48.5858C71.9322 48.6612 71.8261 48.701 71.7174 48.6959H70.7272C70.2936 48.6488 69.8637 48.8126 69.5713 49.1363C69.3217 49.5226 69.2058 49.98 69.241 50.4385V51.2642H73.1667V47.6519C73.1615 47.5432 73.2014 47.4371 73.2768 47.3586C73.3585 47.2742 73.4714 47.2272 73.5889 47.2291H74.4308C74.6599 47.238 74.8437 47.4216 74.8531 47.6506V60.3816C74.855 60.4991 74.808 60.6121 74.7235 60.6937C74.6447 60.7692 74.5385 60.8091 74.4294 60.8038H73.5876C73.4723 60.8162 73.3575 60.7757 73.2755 60.6937C73.1935 60.6117 73.1529 60.4969 73.1654 60.3816V52.7329H69.2397V60.3828C69.2415 60.5004 69.1946 60.6133 69.1101 60.695C69.0314 60.7705 68.9251 60.8103 68.8162 60.8051L67.9575 60.8057ZM81.492 60.989C80.3341 61.0591 79.1988 60.6473 78.3551 59.8512C77.5947 59.0273 77.1751 57.9456 77.181 56.8244L77.1623 56.0356L77.181 55.2469C77.1777 54.1281 77.6045 53.051 78.3733 52.2382C80.1667 50.6972 82.8168 50.6972 84.6102 52.2382C85.3786 53.0511 85.8054 54.1282 85.8023 55.2469C85.8145 55.3811 85.8205 55.6441 85.8205 56.0356C85.8205 56.4272 85.8145 56.6902 85.8023 56.8244C85.8078 57.9489 85.381 59.0324 84.6102 59.8512C83.7742 60.6495 82.6456 61.0625 81.492 60.989ZM81.492 59.5767C82.1751 59.6113 82.8386 59.3428 83.3053 58.8429C83.7959 58.2509 84.0564 57.5018 84.039 56.733C84.0511 56.6109 84.0571 56.3787 84.0571 56.0363C84.0571 55.6939 84.0511 55.4616 84.039 55.3395C84.0564 54.5708 83.7959 53.8216 83.3053 53.2296C82.8386 52.7297 82.1751 52.4612 81.492 52.4959C80.8031 52.4627 80.1336 52.7305 79.6574 53.2296C79.1692 53.8217 78.9157 54.5726 78.9451 55.3395L78.927 56.0363L78.9451 56.733C78.9157 57.4999 79.1692 58.2508 79.6574 58.8429C80.133 59.3409 80.8041 59.609 81.492 59.5767ZM90.3996 60.8071C90.2681 60.8156 90.138 60.7766 90.0331 60.697C89.9324 60.6005 89.8568 60.4809 89.8129 60.3486L87.2077 51.8366L87.1714 51.6534C87.1684 51.5503 87.2083 51.4508 87.2815 51.3782C87.3565 51.3089 87.4545 51.2697 87.5567 51.2681H88.3636C88.4724 51.2629 88.5784 51.3028 88.6569 51.3782C88.7321 51.4262 88.79 51.4971 88.822 51.5802L90.8588 58.4958L93.0417 51.6534C93.0678 51.5516 93.1257 51.4609 93.2068 51.3944C93.3003 51.3051 93.4263 51.2583 93.5553 51.2648H94.1789C94.3081 51.2583 94.4343 51.3051 94.5279 51.3944C94.6092 51.4609 94.6671 51.5516 94.6931 51.6534L96.8761 58.4958L98.9121 51.5802C98.935 51.5018 98.98 51.4316 99.0417 51.3782C99.1286 51.3043 99.2397 51.265 99.3538 51.2681H100.179C100.277 51.2671 100.371 51.3069 100.438 51.3782C100.512 51.4508 100.551 51.5505 100.549 51.6534L100.512 51.8366L97.9252 60.3486C97.8812 60.4809 97.8057 60.6005 97.7051 60.697C97.5927 60.7788 97.455 60.8178 97.3164 60.8071H96.6041C96.3133 60.8369 96.0488 60.6367 95.9987 60.3486L93.8707 53.7814L91.7427 60.3486C91.674 60.6327 91.4108 60.8262 91.1191 60.8071H90.3996Z" fill="#E4E4E4"/>
</g>
<defs>
<clipPath id="clip0_2358_6200">
<rect width="100" height="100" fill="white" transform="translate(0.548828 0.471191)"/>
</clipPath>
</defs>
</svg>
