<svg width="101" height="101" viewBox="0 0 101 101" fill="none" xmlns="http://www.w3.org/2000/svg">
<g clip-path="url(#clip0_2358_6213)">
<path d="M50.7273 15.4713C51.8092 15.4538 51.8092 15.4538 52.1233 15.6113C52.4171 15.5991 52.7109 15.5839 53.0045 15.5675C55.0748 15.5177 57.1514 16.3496 58.9638 17.2913C59.2429 17.4314 59.5221 17.5714 59.8014 17.7113C59.8935 17.5727 59.9856 17.4341 60.0806 17.2913C60.7303 17.7216 61.0826 18.014 61.4766 18.6913C61.5658 18.7086 61.6551 18.7259 61.747 18.7438C62.121 18.8574 62.1604 18.995 62.3491 19.33C62.47 19.5682 62.47 19.5682 62.5934 19.8113C62.7201 19.7016 62.8468 19.5918 62.9773 19.4788C63.5963 18.9668 63.9988 18.7591 64.827 18.8313C64.9191 18.9237 65.0113 19.0161 65.1062 19.1113C65.0689 19.8352 64.9153 20.4174 64.6454 21.0855C64.5125 21.4473 64.4557 21.8099 64.4082 22.1913C64.5118 22.1176 64.5118 22.1176 64.6176 22.0425C65.1379 21.8469 65.5387 21.9602 66.0834 22.0513C66.0834 22.6113 66.0834 22.6113 65.874 22.9C65.2474 24.1306 65.8203 25.5365 66.2099 26.7648C66.2603 26.9187 66.3107 27.0727 66.3626 27.2313C66.4384 27.1589 66.5141 27.0865 66.5922 27.012C66.6921 26.9198 66.7919 26.8275 66.8948 26.7325C66.9936 26.64 67.0924 26.5474 67.1942 26.452C67.2883 26.3858 67.3824 26.3195 67.4794 26.2513C67.6176 26.2975 67.7558 26.3437 67.8982 26.3913C68.0023 27.2501 68.0566 28.0463 67.932 28.9042C67.886 29.2258 67.886 29.2258 67.9244 29.69C67.8866 30.3841 67.6497 31.004 67.131 31.4849C67.0227 31.5753 67.0227 31.5753 66.9123 31.6675C66.2732 32.2467 66.2207 33.1374 66.0834 33.9513C66.2187 33.9542 66.3541 33.9571 66.4935 33.96C67.635 34.1262 68.7317 35.3301 69.4338 36.1913C69.5008 36.377 69.5008 36.377 69.5691 36.5664C69.6771 36.9115 69.6771 36.9115 69.971 36.9963C70.073 37.0078 70.175 37.0194 70.2802 37.0313C71.5547 37.2529 72.685 38.0248 73.461 39.0531C74.3376 40.3652 74.7382 41.6581 74.9969 43.2029C75.0979 43.7843 75.2428 44.3072 75.4629 44.8538C75.8768 45.9333 75.8296 46.7646 75.428 47.8463C75.0284 48.7206 74.5908 49.2616 73.6988 49.634C73.3958 49.7385 73.0943 49.8309 72.7843 49.9113C72.7843 50.0037 72.7843 50.0961 72.7843 50.1913C72.8822 50.2144 72.9801 50.2375 73.0809 50.2613C73.7838 50.629 74.3179 51.4096 74.5991 52.1513C74.601 52.446 74.5912 52.7409 74.5729 53.035C74.5594 53.7934 74.6272 54.145 75.1139 54.7107C75.8792 55.7157 75.8221 57.1804 75.6734 58.372C75.6586 58.4703 75.6438 58.5687 75.6286 58.67C75.5226 59.1678 75.5226 59.1678 75.8555 59.5713C76.0232 60.7343 75.8433 61.6968 75.1575 62.6513C74.4131 63.5007 73.5884 64.0191 72.5051 64.3313C72.4129 64.3313 72.3208 64.3313 72.2259 64.3313C72.2345 64.5565 72.2345 64.5565 72.2433 64.7863C72.2273 65.2673 72.2161 65.4874 71.9467 65.8713C71.4285 66.2177 71.0113 66.212 70.411 66.1513C70.0187 66.0101 69.8991 65.9645 69.713 65.5913C69.431 65.49 69.431 65.49 69.1023 65.4075C68.6506 65.2644 68.4896 65.2106 68.1774 64.8388C68.0378 64.4713 68.0378 64.4713 68.0029 64.1213C67.8381 63.5704 67.3939 63.3623 66.921 63.0713C66.9005 63.241 66.9005 63.241 66.8796 63.4142C66.6637 64.9612 66.6637 64.9612 66.0834 65.4513C65.2268 65.9674 64.5192 66.1681 63.5181 66.1719C63.3348 66.1729 63.1515 66.1739 62.9627 66.1749C62.7597 66.1753 62.5567 66.1757 62.3537 66.1761C62.1397 66.1769 61.9257 66.1779 61.7117 66.1789C61.0082 66.1818 60.3047 66.1833 59.6012 66.1846C59.3581 66.1852 59.1149 66.1858 58.8718 66.1864C57.7274 66.189 56.583 66.191 55.4386 66.1922C54.124 66.1936 52.8095 66.1972 51.4949 66.2029C50.4754 66.2072 49.4559 66.2092 48.4363 66.2097C47.8293 66.21 47.2223 66.2112 46.6152 66.2148C41.229 66.2447 36.2493 65.4572 32.0207 61.8113C31.8967 61.7079 31.7728 61.6045 31.645 61.4979C30.7769 60.7497 30.0673 59.9175 29.3683 59.0113C29.2131 58.8194 29.2131 58.8194 29.0548 58.6235C27.8785 57.1291 26.9969 55.4846 26.3843 53.6825C26.3527 53.5904 26.3211 53.4982 26.2885 53.4033C25.7157 51.5989 25.5221 49.7906 25.538 47.9075C25.5382 47.8078 25.5384 47.7081 25.5386 47.6053C25.5444 45.9837 25.7222 44.4751 26.1575 42.9113C26.2723 42.4274 26.3025 42.016 26.2796 41.52C26.2688 40.1827 26.5089 38.8429 27.2743 37.7313C27.3664 37.7313 27.4586 37.7313 27.5535 37.7313C27.5996 38.2395 27.6456 38.7477 27.6931 39.2713C27.7591 39.1578 27.8252 39.0443 27.8932 38.9273C29.042 36.9983 30.4745 35.4137 32.1046 33.8812C32.3883 33.5764 32.4874 33.2376 32.6315 32.8488C32.9015 32.1701 33.1311 31.7476 33.6959 31.2913C33.742 31.2451 33.7881 31.1989 33.8355 31.1513C34.0681 31.1456 34.301 31.1453 34.5336 31.1513C34.6819 31.4838 34.6819 31.4838 34.8128 31.8513C34.7667 31.9437 34.7206 32.0361 34.6732 32.1313C34.7529 32.0912 34.8326 32.0512 34.9147 32.0099C36.6337 31.1519 38.3508 30.3753 40.1689 29.7505C40.3691 29.6797 40.3691 29.6797 40.5735 29.6075C40.6912 29.5674 40.809 29.5273 40.9303 29.4861C41.4405 29.2264 41.6157 28.8841 41.7928 28.3513C41.8936 27.3095 41.6889 26.4 41.374 25.4113C41.9781 25.4261 42.2939 25.5785 42.7177 25.9888C43.1549 26.4584 43.4568 26.9404 43.7472 27.5113C44.1645 26.7245 44.2683 26.1396 44.0264 25.2713C43.5784 24.2538 42.8116 23.4716 41.7841 23.0488C41.4095 22.9221 41.178 22.8913 40.772 22.8913C40.3968 22.8913 40.3968 22.8913 40.1661 22.7152C39.978 22.4713 39.978 22.4713 39.9431 21.9288C40.1409 20.6071 41.28 19.3495 42.2716 18.5283C44.7232 16.7721 47.6987 15.698 50.7273 15.7513C50.7273 15.6589 50.7273 15.5665 50.7273 15.4713ZM48.2145 17.2913C48.2922 17.3288 48.3699 17.3664 48.45 17.405C49.4303 17.9098 49.4303 17.9098 49.6105 18.2713C49.5324 18.2664 49.4543 18.2615 49.3738 18.2565C46.7411 18.1674 44.1949 19.3789 42.2116 21.0713C42.0023 21.3426 41.8301 21.6165 41.6532 21.9113C41.7596 21.9488 41.8659 21.9864 41.9755 22.025C43.3748 22.5576 44.478 23.2787 45.1531 24.6582C45.8422 26.4266 45.8317 28.827 45.188 30.6011C44.562 31.994 43.7756 33.0929 42.3485 33.715C41.9796 33.8518 41.611 33.9776 41.2344 34.0913C41.2985 34.0048 41.3625 33.9184 41.4285 33.8293C42.2802 32.6504 42.9359 31.5492 42.9183 30.0663C42.9171 29.9284 42.9158 29.7905 42.9145 29.6485C42.9129 29.5438 42.9113 29.4391 42.9096 29.3313C42.7073 29.5876 42.518 29.8431 42.3576 30.128C41.839 31.0417 41.1233 31.7066 40.3706 32.4288C37.8903 34.8584 36.134 37.5097 36.0692 41.0913C36.1085 41.3259 36.1528 41.56 36.2088 41.7913C36.3783 41.742 36.5478 41.6927 36.7225 41.642C36.9642 41.5721 37.2059 41.5023 37.4477 41.4325C37.5773 41.3951 37.7068 41.3577 37.8403 41.3191C38.5863 41.1051 39.3336 40.8986 40.0843 40.7019C40.2423 40.6603 40.4002 40.6187 40.5629 40.5759C40.8685 40.4958 41.1744 40.4167 41.4805 40.3387C43.8547 39.7151 46.1837 38.6382 47.5165 36.4713C47.7576 35.963 47.9353 35.5019 47.9353 34.9313C48.0274 34.9313 48.1195 34.9313 48.2145 34.9313C48.3912 35.4727 48.3697 36.0137 48.3628 36.5763C48.3622 36.6739 48.3615 36.7715 48.3609 36.8721C48.3592 37.1119 48.3567 37.3516 48.3541 37.5913C49.5816 36.6741 50.1284 35.4372 50.4481 33.9513C50.4481 33.7665 50.4481 33.5817 50.4481 33.3913C50.8053 33.7028 50.9203 33.9079 51.0065 34.3713C51.0688 35.3073 50.9973 36.1344 50.7273 37.0313C51.8826 36.5689 52.6152 35.1828 53.118 34.1044C53.5005 33.1865 53.54 32.092 53.2488 31.1338C52.473 29.3894 50.6116 28.2467 48.9697 27.444C48.5752 27.1946 48.3469 26.9079 48.0749 26.5313C53.091 28.0844 53.091 28.0844 54.4267 30.3813C54.9423 31.496 54.9981 32.7469 54.6628 33.9294C54.5327 34.234 54.3911 34.5099 54.2173 34.7913C54.0748 35.0229 53.9339 35.2555 53.7985 35.4913C53.8446 35.5837 53.8906 35.6761 53.9381 35.7713C55.8574 34.833 57.3596 33.7443 58.161 31.6823C58.6808 30.1275 58.7049 29.0049 57.9865 27.5113C57.7326 27.1137 57.4504 26.7532 57.1489 26.3913C57.0084 26.2053 56.8686 26.0188 56.7301 25.8313C56.9144 25.7851 57.0987 25.7389 57.2885 25.6913C56.8243 25.2664 56.5255 25.2242 55.9051 25.245C55.7437 25.2483 55.5824 25.2515 55.4162 25.2549C55.0803 25.2657 54.7444 25.2766 54.4084 25.2877C53.3404 25.309 52.4377 25.199 51.4253 24.8513C51.4253 24.7589 51.4253 24.6665 51.4253 24.5713C51.6027 24.5735 51.6027 24.5735 51.7836 24.5757C52.2254 24.5805 52.6672 24.584 53.109 24.5867C53.2996 24.5881 53.4902 24.59 53.6809 24.5924C53.956 24.5958 54.2312 24.5972 54.5063 24.5986C54.7542 24.6008 54.7542 24.6008 55.007 24.6031C55.4859 24.5705 55.865 24.4635 56.3113 24.2913C55.8676 23.2871 54.8932 22.745 53.9556 22.2525C53.854 22.1988 53.7525 22.1452 53.6478 22.0898C51.7819 21.1409 49.8671 20.7663 47.7869 20.7738C47.6368 20.7732 47.4866 20.7727 47.3319 20.7721C47.1867 20.7723 47.0416 20.7725 46.8921 20.7727C46.7607 20.7728 46.6293 20.773 46.494 20.7732C46.1236 20.7911 45.7834 20.8487 45.4224 20.9313C45.9364 20.2945 46.7385 20.0788 47.5165 19.9513C50.1122 19.7807 52.3559 19.9735 54.7261 21.0915C55.0688 21.255 55.0688 21.255 55.4737 21.0713C55.4737 20.9327 55.4737 20.7941 55.4737 20.6513C55.5659 20.6513 55.658 20.6513 55.7529 20.6513C55.8911 20.9285 55.8911 20.9285 56.0321 21.2113C56.1703 21.142 56.1703 21.142 56.3113 21.0713C56.4495 21.3485 56.5877 21.6257 56.7301 21.9113C56.8683 21.8189 57.0065 21.7265 57.1489 21.6313C57.2871 22.0471 57.2871 22.0471 57.4281 22.4713C57.6124 22.4251 57.7967 22.3789 57.9865 22.3313C57.9952 22.4468 58.0038 22.5623 58.0127 22.6813C58.1598 23.3165 58.4672 23.7549 58.8241 24.2913C58.9019 24.4299 58.9796 24.5685 59.0597 24.7113C59.1202 24.8037 59.1807 24.8961 59.243 24.9913C59.3351 24.9913 59.4272 24.9913 59.5222 24.9913C59.7064 24.5755 59.8907 24.1597 60.0806 23.7313C60.1266 23.7313 60.1727 23.7313 60.2202 23.7313C60.2662 24.2395 60.3123 24.7477 60.3598 25.2713C60.544 25.2251 60.7283 25.1789 60.9182 25.1313C60.826 25.7781 60.7339 26.4249 60.639 27.0913C60.7772 26.9989 60.9154 26.9065 61.0578 26.8113C61.0578 26.7189 61.0578 26.6265 61.0578 26.5313C61.1499 26.5313 61.242 26.5313 61.337 26.5313C61.3422 26.3982 61.3422 26.3982 61.3476 26.2624C61.364 25.8503 61.381 25.4383 61.398 25.0263C61.4038 24.8785 61.4096 24.7306 61.4156 24.5783C61.4467 23.8293 61.4951 23.0929 61.59 22.3488C61.6818 21.3927 61.2937 20.7261 60.7786 19.9513C60.6864 19.9513 60.5943 19.9513 60.4994 19.9513C60.2955 20.3219 60.2202 20.4965 60.2202 20.9313C60.128 20.9313 60.0359 20.9313 59.941 20.9313C59.9626 20.6757 59.9626 20.6757 59.9846 20.415C59.9821 19.9396 59.9585 19.835 59.6618 19.435C58.6465 18.6307 58.6465 18.6307 57.4281 18.2713C57.4742 18.5023 57.5203 18.7333 57.5677 18.9713C57.1992 18.8327 56.8306 18.6941 56.4509 18.5513C56.497 18.7361 56.5431 18.9209 56.5905 19.1113C56.0261 18.9826 55.7996 18.8941 55.4475 18.42C55.364 18.2785 55.2805 18.1371 55.1945 17.9913C54.8915 17.6272 54.6807 17.512 54.2157 17.4384C54.11 17.4208 54.0042 17.4032 53.8953 17.3851C53.7856 17.3686 53.6759 17.352 53.5629 17.335C53.4516 17.3169 53.3403 17.2988 53.2257 17.2801C52.9515 17.2356 52.677 17.1932 52.4025 17.1513C52.2164 17.5713 52.2164 17.5713 52.4025 17.9913C52.3131 17.9541 52.2236 17.9169 52.1315 17.8786C50.7956 17.3316 49.6608 16.9287 48.2145 17.2913ZM63.431 20.3713C62.5434 22.2922 62.2531 24.1598 62.1746 26.2513C63.3729 25.1435 63.2694 23.3551 63.4 21.8236C63.4453 21.3378 63.5071 20.855 63.5706 20.3713C63.5245 20.3713 63.4784 20.3713 63.431 20.3713ZM63.9894 24.9913C63.9185 25.1602 63.8476 25.3291 63.7745 25.5032C62.7785 27.8372 62.7785 27.8372 62.035 28.6313C61.9668 28.7065 61.8986 28.7818 61.8283 28.8593C61.6162 29.0513 61.6162 29.0513 61.1974 29.1913C61.2204 29.0556 61.2434 28.9199 61.2672 28.78C61.3557 28.17 61.3495 27.5664 61.337 26.9513C61.0414 27.511 60.8458 28.096 60.639 28.6931C60.4994 29.0513 60.4994 29.0513 60.2202 29.4713C60.2662 29.6099 60.3123 29.7485 60.3598 29.8913C60.9013 29.6711 61.442 29.4489 61.9826 29.2263C62.1354 29.1642 62.2882 29.1021 62.4456 29.0382C63.7989 28.5494 63.7989 28.5494 64.7397 27.5463C64.7685 27.4423 64.7973 27.3384 64.827 27.2313C64.7545 27.2887 64.682 27.3461 64.6072 27.4052C64.0952 27.802 63.6384 28.155 63.0122 28.3513C63.0678 28.285 63.1234 28.2188 63.1807 28.1506C63.7648 27.4194 64.2834 26.6462 64.262 25.6738C64.2258 25.3772 64.2258 25.3772 64.129 24.9913C64.0829 24.9913 64.0369 24.9913 63.9894 24.9913ZM63.1114 31.1896C63.0326 31.2693 62.9538 31.3491 62.8726 31.4313C63.4447 31.234 63.9134 30.9426 64.4131 30.6082C64.6915 30.449 64.9329 30.3735 65.2458 30.3113C64.7404 31.5553 63.2492 32.5103 62.1746 33.2513C62.2667 33.2975 62.3588 33.3437 62.4538 33.3913C64.1286 32.6484 65.35 31.3308 66.223 29.7513C66.2777 29.6526 66.3324 29.5538 66.3888 29.4521C66.5301 29.1745 66.5301 29.1745 66.5022 28.7713C65.2551 28.7713 63.9284 30.3759 63.1114 31.1896ZM60.7786 31.2913C59.5345 32.1368 59.5345 32.1368 58.5449 33.2513C58.5449 33.3437 58.5449 33.4361 58.5449 33.5313C59.3501 33.4539 59.9917 33.137 60.7088 32.7875C60.8245 32.7328 60.9402 32.678 61.0594 32.6216C61.7006 32.3133 62.2925 31.9839 62.8726 31.5713C62.7804 31.5251 62.6883 31.4789 62.5934 31.4313C62.4552 31.5006 62.4552 31.5006 62.3142 31.5713C62.0759 31.5811 61.8372 31.5831 61.5987 31.58C61.4717 31.5788 61.3446 31.5775 61.2137 31.5762C61.1162 31.5746 61.0187 31.573 60.9182 31.5713C60.8721 31.4789 60.826 31.3865 60.7786 31.2913ZM34.6732 34.0913C34.0235 34.8683 33.5802 35.6459 33.2771 36.6113C33.2771 35.9645 33.2771 35.3177 33.2771 34.6513C32.9935 35.2201 32.8819 35.7306 32.7798 36.3488C32.7618 36.4557 32.7437 36.5625 32.7251 36.6726C32.5976 37.4436 32.4819 38.2103 32.4395 38.9913C32.4285 39.1838 32.4285 39.1838 32.4172 39.3801C32.3721 40.8749 32.505 42.4758 33.5563 43.6113C33.6485 43.6113 33.7406 43.6113 33.8355 43.6113C33.8255 43.5293 33.8154 43.4474 33.805 43.363C33.5091 40.6178 33.5068 37.5958 35.092 35.2113C34.9651 36.9378 34.9651 36.9378 34.8738 37.7488C34.7544 38.922 34.7997 40.0639 34.9524 41.2313C34.9984 41.2313 35.0445 41.2313 35.092 41.2313C35.101 41.1497 35.11 41.0681 35.1193 40.9841C35.4671 37.9374 36.2405 35.1706 37.884 32.5513C36.6602 32.5513 35.52 33.25 34.6732 34.0913ZM62.9947 34.3975C61.5552 35.1352 60.1412 35.5926 58.5311 35.7644C57.2985 35.8977 56.543 36.0118 55.6728 36.9651C53.3162 39.3741 49.4763 39.8437 46.3449 40.4449C39.2455 41.5076 39.2455 41.5076 33.6436 45.51C33.5183 45.7152 33.3959 45.9222 33.2771 46.1313C33.2029 46.2615 33.2029 46.2615 33.1272 46.3943C33.0816 46.475 33.0361 46.5557 32.9892 46.6388C32.7888 46.9888 32.5937 47.2836 32.3523 47.6013C31.7573 48.4275 31.6352 49.3369 31.7415 50.3313C31.8877 50.998 32.0848 51.6441 32.2999 52.2913C32.3921 52.2913 32.4842 52.2913 32.5791 52.2913C32.6275 52.1391 32.6275 52.1391 32.6767 51.9839C32.9592 51.1442 33.2379 50.5606 33.8355 49.9113C33.8355 49.8189 33.8355 49.7265 33.8355 49.6313C33.9154 49.5932 33.9953 49.5551 34.0777 49.5159C34.398 49.3492 34.6865 49.1574 34.9873 48.9575C36.8614 47.8373 39.1522 47.5653 41.2665 47.1842C44.1243 46.713 44.1243 46.713 46.6788 45.4313C46.6788 45.3851 46.6788 45.3389 46.6788 45.2913C45.9168 45.2808 45.1549 45.2732 44.3928 45.2682C44.1343 45.2661 43.8759 45.2633 43.6175 45.2596C41.5666 45.2312 39.8058 45.3915 37.9276 46.2888C37.8111 46.3428 37.6947 46.3969 37.5746 46.4525C36.3622 47.0196 35.1664 47.621 33.9751 48.2313C33.9291 48.1851 33.883 48.1389 33.8355 48.0913C37.4852 44.8809 41.7491 43.3709 46.609 43.6725C46.7197 43.6791 46.8304 43.6857 46.9444 43.6925C47.0549 43.6991 47.1654 43.7057 47.2792 43.7125C47.4979 43.7255 47.7166 43.7384 47.9353 43.7513C48.0366 43.7574 48.138 43.7635 48.2425 43.7698C50.1627 43.8715 51.936 43.4984 53.7985 43.0513C53.5682 42.8665 53.3378 42.6817 53.1005 42.4913C53.281 42.4877 53.4615 42.4841 53.6475 42.4803C56.8646 42.3877 59.3892 41.3346 61.6423 38.965C62.6376 37.7894 64.129 35.5397 64.129 33.9513C63.6896 33.9513 63.3795 34.1914 62.9947 34.3975ZM33.2771 34.2313C33.4167 34.5113 33.4167 34.5113 33.4167 34.5113L33.2771 34.2313ZM66.223 34.5113C66.2293 35.8294 66.721 36.9483 67.2002 38.1513C67.4084 38.7777 67.4218 39.3997 67.2438 40.0325C66.9865 40.3398 66.7504 40.3503 66.3626 40.3913C66.4087 40.3047 66.4547 40.218 66.5022 40.1288C66.8621 39.001 66.6363 38.1785 66.1178 37.1472C65.8442 36.5245 65.7513 35.8825 65.6646 35.2113C64.9169 36.0722 64.1894 37.1027 64.2686 38.2913C64.4321 39.0901 64.7127 39.8172 65.1062 40.5313C64.4929 40.0666 64.1537 39.7194 63.8498 38.9913C63.1201 39.3737 62.5831 39.7863 62.0175 40.3825C61.9131 40.4901 61.9131 40.4901 61.8065 40.5999C61.6688 40.7418 61.5314 40.8841 61.3943 41.0266C59.2226 43.2829 56.6947 43.965 53.7434 44.7138C49.9714 45.6786 46.1937 46.9573 44.0264 50.4625C43.5695 51.312 43.2818 52.197 43.0492 53.1313C43.022 53.2354 42.9949 53.3395 42.9669 53.4468C42.8784 54.0408 42.883 54.6316 42.8834 55.2313C42.8833 55.4266 42.8833 55.4266 42.8832 55.626C42.8909 56.6381 42.9831 57.5985 43.1888 58.5913C42.1883 57.242 42.048 55.777 42.0546 54.1375C42.054 54.005 42.0535 53.8724 42.0529 53.7359C42.0541 52.9165 42.1067 52.1239 42.2116 51.3113C40.3009 51.1636 38.5685 51.5905 37.0349 52.7605C36.7941 52.9681 36.5683 53.1817 36.3484 53.4113C36.3484 52.6035 36.7485 52.163 37.2787 51.606C38.3248 50.6604 39.6669 50.407 40.9994 50.0808C42.1872 49.8349 42.1872 49.8349 43.185 49.2151C43.2603 49.0703 43.2603 49.0703 43.3371 48.9225C43.3906 48.8256 43.444 48.7287 43.4991 48.6289C43.6257 48.3749 43.6257 48.3749 43.6076 48.0913C40.5098 48.2148 36.8179 48.5234 34.5565 50.8782C33.8441 51.763 33.193 52.9626 33.1375 54.1113C33.2771 54.499 33.4181 54.8273 33.6087 55.1875C33.6596 55.2859 33.7104 55.3843 33.7628 55.4856C35.2405 58.2483 37.8151 60.1087 40.6913 61.2021C41.1103 61.3985 41.339 61.6177 41.6532 61.9513C41.7453 61.9513 41.8375 61.9513 41.9324 61.9513C41.9324 62.0437 41.9324 62.1361 41.9324 62.2313C39.2381 61.4572 36.9059 60.5688 34.6421 58.8653C34.2488 58.5874 33.8477 58.3582 33.4255 58.1275C32.0263 57.3265 30.8606 56.2262 30.0663 54.8113C30.1124 54.7651 30.1585 54.7189 30.2059 54.6713C30.3002 54.7505 30.3945 54.8297 30.4917 54.9114C30.6162 55.014 30.7407 55.1167 30.869 55.2225C31.0537 55.376 31.0537 55.376 31.242 55.5326C31.5689 55.7675 31.769 55.8735 32.1603 55.9313C32.0717 55.6498 31.9771 55.3703 31.8811 55.0913C31.8518 54.9944 31.8225 54.8975 31.7922 54.7976C31.5163 53.989 31.1074 53.3601 30.5985 52.685C29.1556 50.7657 28.1727 48.7792 27.2743 46.5513C27.2282 46.5513 27.1822 46.5513 27.1347 46.5513C27.0092 48.0709 27.3537 49.2205 27.885 50.6113C27.9569 50.8061 28.0286 51.0009 28.0999 51.1959C28.373 51.9384 28.6541 52.6774 28.9495 53.4113C28.442 52.9306 28.0615 52.4597 27.6931 51.8713C27.492 52.2746 27.6453 52.5397 27.7751 52.951C28.4901 55.09 29.4543 56.9916 30.9039 58.7313C31.02 58.8706 31.1361 59.0099 31.2557 59.1535C34.1887 62.5627 38.4674 64.474 42.9037 64.8625C43.6085 64.9103 44.3118 64.9107 45.0179 64.9094C45.1793 64.9096 45.3407 64.9099 45.507 64.9101C46.0363 64.9108 46.5656 64.9104 47.0949 64.9099C47.4661 64.91 47.8373 64.9101 48.2084 64.9103C48.9851 64.9105 49.7618 64.9102 50.5385 64.9095C51.4305 64.9088 52.3225 64.909 53.2146 64.9098C53.9857 64.9104 54.7569 64.9105 55.528 64.9102C55.9862 64.9099 56.4444 64.91 56.9027 64.9104C59.4672 64.9143 59.4672 64.9143 62.0267 64.7727C62.4373 64.7521 62.807 64.779 63.2129 64.8388C63.9129 64.9301 64.4794 64.7936 65.1062 64.4713C65.4424 64.1648 65.5066 64.0035 65.5948 63.5613C65.5502 63.1884 65.5502 63.1884 65.2545 62.8963C64.6748 62.5641 64.2387 62.4501 63.5706 62.5113C63.0567 62.6669 62.5647 62.85 62.0677 63.0532C61.6454 63.2011 61.3594 63.2454 60.9182 63.2113C60.9349 62.24 60.9349 62.24 61.2454 61.8643C61.5015 61.6489 61.7655 61.4497 62.035 61.2513C63.1436 60.3545 63.1436 60.3545 63.6753 59.0638C63.7405 58.5926 63.7405 58.5926 63.5706 58.1713C63.1548 57.9941 63.1548 57.9941 62.6545 57.8475C61.3466 57.4086 60.5407 56.878 59.8619 55.6568C59.5799 55.0572 59.3531 54.4418 59.129 53.8186C58.454 51.9454 57.6443 50.652 55.8195 49.7341C54.6336 49.2314 53.4353 49.0549 52.1582 48.9657C51.8441 48.9313 51.8441 48.9313 51.5649 48.7913C53.1443 48.0478 54.6776 48.091 56.3113 48.6513C58.0603 49.4522 58.9509 50.8305 59.6618 52.5713C59.79 52.9332 59.9056 53.2984 60.0195 53.665C60.4418 54.9862 60.9414 55.845 62.113 56.6045C63.5432 57.3044 65.499 57.2864 67.0083 56.8325C68.0065 56.4329 68.867 55.8813 69.3728 54.9075C69.5903 54.4402 69.5903 54.4402 69.5734 54.1113C69.7116 54.1575 69.8498 54.2037 69.9922 54.2513C70.4976 54.2555 71.0014 54.2419 71.5066 54.2289C71.9467 54.2513 71.9467 54.2513 72.2259 54.5313C72.8545 54.4819 72.8545 54.4819 73.3427 54.1113C73.3414 53.7547 73.3414 53.7547 73.2031 53.4113C72.9308 53.2397 72.9308 53.2397 72.6447 53.1313C72.5986 53.0389 72.5525 52.9465 72.5051 52.8513C72.7354 52.7589 72.9657 52.6665 73.2031 52.5713C73.0259 52.0235 72.8593 51.7514 72.3655 51.4513C71.9417 51.3096 71.6399 51.2881 71.1963 51.285C71.0003 51.2821 71.0003 51.2821 70.8004 51.279C70.3871 51.3133 70.0943 51.4353 69.713 51.5913C69.2154 51.5483 68.7905 51.4696 68.317 51.3113C68.1105 51.2909 67.9032 51.2768 67.6959 51.267C67.5776 51.2611 67.4593 51.2553 67.3374 51.2492C67.2144 51.2437 67.0914 51.2382 66.9646 51.2325C66.84 51.2265 66.7154 51.2204 66.587 51.2142C66.2796 51.1994 65.9721 51.1851 65.6646 51.1713C65.6646 51.0789 65.6646 50.9865 65.6646 50.8913C65.5313 50.8808 65.3979 50.8703 65.2605 50.8596C63.9207 50.7229 62.724 50.5115 61.7596 49.4754C61.2642 48.7954 61.0881 48.2279 61.0578 47.3913C61.0968 47.4709 61.1359 47.5505 61.1761 47.6325C62.0354 49.2922 63.1913 50.0162 64.923 50.6638C66.265 50.9177 67.4037 50.6585 68.6137 50.0425C69.2875 49.7222 69.9888 49.6621 70.7238 49.6116C71.409 49.5523 71.8346 49.3684 72.3655 48.9313C72.3655 48.8389 72.3655 48.7465 72.3655 48.6513C72.5353 48.6657 72.7052 48.6802 72.8802 48.695C73.3863 48.6959 73.4744 48.6571 73.9098 48.3363C74.2142 47.9917 74.2142 47.9917 74.1541 47.6757C74.0229 47.3467 73.87 47.1774 73.6131 46.9363C73.5367 46.8634 73.4602 46.7905 73.3814 46.7153C73.3225 46.6612 73.2637 46.6071 73.2031 46.5513C73.2491 46.4589 73.2952 46.3665 73.3427 46.2713C73.7112 46.2713 74.0798 46.2713 74.4595 46.2713C74.396 46.0728 74.3319 45.8745 74.2675 45.6763C74.2141 45.5106 74.2141 45.5106 74.1596 45.3416C74.0526 45.0164 74.0526 45.0164 73.8978 44.7553C73.7414 44.4066 73.6873 44.0674 73.6308 43.6909C73.3361 41.7435 72.5291 40.1037 70.9296 38.889C70.4293 38.5429 70.4293 38.5429 69.8526 38.4313C69.7691 38.567 69.6856 38.7027 69.5996 38.8425C69.2942 39.2713 69.2942 39.2713 68.9103 39.3938C68.8067 39.3996 68.703 39.4053 68.5962 39.4113C68.858 38.3263 68.858 38.3263 69.015 38.0113C69.0647 36.9873 68.6996 36.25 68.0378 35.4913C67.2499 34.7256 67.2499 34.7256 66.223 34.5113ZM31.0435 37.4513C30.112 38.4624 29.4509 39.606 28.8099 40.8113C28.6911 41.0184 28.6911 41.0184 28.57 41.2296C28.2434 41.8455 28.0288 42.3061 28.2079 42.9988C28.3076 43.2529 28.4168 43.5033 28.5307 43.7513C28.614 43.9421 28.6972 44.133 28.7805 44.3239C29.4977 45.9365 29.4977 45.9365 30.4851 47.3913C30.5312 47.3913 30.5773 47.3913 30.6247 47.3913C30.6477 47.1634 30.6477 47.1634 30.6711 46.9308C30.6933 46.7285 30.7157 46.5261 30.7381 46.3238C30.748 46.224 30.7578 46.1242 30.7679 46.0214C30.8421 45.3726 30.9925 44.8865 31.3227 44.3113C31.5385 44.6359 31.7131 44.9422 31.8811 45.2913C31.9733 45.2913 32.0654 45.2913 32.1603 45.2913C32.3907 44.8755 32.621 44.4597 32.8583 44.0313C32.7086 43.8782 32.5589 43.7252 32.4046 43.5675C31.2468 42.2442 31.1603 40.6195 31.1744 38.9388C31.175 38.7957 31.1757 38.6526 31.1763 38.5051C31.1779 38.1538 31.1802 37.8026 31.1831 37.4513C31.1371 37.4513 31.091 37.4513 31.0435 37.4513ZM35.092 41.7913C35.2316 42.0713 35.2316 42.0713 35.2316 42.0713L35.092 41.7913ZM27.9723 45.4313C28.2852 47.3837 29.3011 49.6681 30.7643 51.0313C30.8879 49.9447 30.5014 49.355 29.9093 48.4675C29.7423 48.2081 29.5756 47.9486 29.4092 47.6888C29.3294 47.5653 29.2495 47.4419 29.1673 47.3147C28.7809 46.7054 28.4405 46.0737 28.1119 45.4313C28.0658 45.4313 28.0198 45.4313 27.9723 45.4313ZM30.6247 47.3913C30.7643 47.6713 30.7643 47.6713 30.7643 47.6713L30.6247 47.3913ZM73.2554 55.31C72.694 55.5498 72.3939 55.5071 71.8071 55.3713C71.7149 55.3251 71.6228 55.2789 71.5279 55.2313C71.0632 55.1143 71.0632 55.1143 70.5506 55.2313C70.307 55.5217 70.1286 55.8292 69.9366 56.156C69.4606 56.8698 68.7114 57.3564 67.8982 57.6113C67.9135 58.2501 67.9405 58.7295 68.3083 59.265C69.5384 60.1462 71.0819 60.4637 72.5836 60.3949C73.0984 60.2991 73.3628 60.1124 73.744 59.755C74.4363 58.6728 74.4352 57.4593 74.3199 56.2113C74.1778 55.7752 74.0135 55.4782 73.7615 55.0913C73.5708 55.0793 73.5708 55.0793 73.2554 55.31ZM64.827 58.1713C64.8184 58.3503 64.8097 58.5293 64.8008 58.7138C64.7161 59.5139 64.3764 60.1377 63.9894 60.8313C63.9433 60.9237 63.8973 61.0161 63.8498 61.1113C63.9558 61.1299 64.0618 61.1485 64.171 61.1676C64.3097 61.1923 64.4485 61.2171 64.5914 61.2425C64.7979 61.2791 64.7979 61.2791 65.0086 61.3164C65.3854 61.3913 65.3854 61.3913 65.8042 61.5313C65.7817 61.4327 65.7592 61.3342 65.736 61.2327C65.5518 60.1976 65.5853 59.1601 65.9438 58.1713C65.5753 58.1713 65.2067 58.1713 64.827 58.1713ZM66.6418 59.5713C66.5914 60.2034 66.5735 60.6885 66.8512 61.2688C67.4357 61.9429 68.0574 62.5577 68.8754 62.9313C68.8706 63.0275 68.8657 63.1237 68.8607 63.2228C68.8569 63.3489 68.8531 63.4751 68.8493 63.605C68.8444 63.7301 68.8395 63.8552 68.8345 63.984C68.8478 64.331 68.8478 64.331 69.039 64.567C69.3622 64.8004 69.6791 64.9298 70.0533 65.0663C70.1856 65.1161 70.3178 65.1659 70.4541 65.2172C70.838 65.3133 71.0225 65.3066 71.3882 65.1713C71.4843 64.8418 71.4843 64.8418 71.5279 64.4713C71.3038 64.0336 71.3038 64.0336 70.9771 63.9796C70.8767 63.9715 70.7763 63.9634 70.6728 63.955C70.4943 63.9406 70.3158 63.9262 70.1318 63.9113C70.0858 63.7265 70.0397 63.5417 69.9922 63.3513C70.4562 63.2272 70.8773 63.2089 71.3533 63.22C72.239 63.2253 73.0891 63.173 73.8138 62.6163C74.1841 62.2273 74.393 61.8851 74.5991 61.3913C74.4485 61.4135 74.2978 61.4357 74.1426 61.4586C71.9943 61.7252 69.5148 61.867 67.6801 60.5513C67.3136 60.2451 66.9656 59.9231 66.6418 59.5713Z" fill="#E4E4E4"/>
<path d="M61.4766 71.8911C62.2137 71.8911 62.9508 71.8911 63.7102 71.8911C63.7562 74.6169 63.8023 77.3427 63.8498 80.1511C65.0958 78.8057 65.0958 78.8057 66.3064 77.4331C66.371 77.3599 66.4356 77.2866 66.5022 77.2111C66.5619 77.1381 66.6216 77.065 66.6831 76.9898C66.9954 76.729 67.1704 76.7424 67.5727 76.7501C67.6973 76.7515 67.8219 76.7528 67.9503 76.7542C68.1448 76.7595 68.1448 76.7595 68.3432 76.7649C68.4745 76.7668 68.6057 76.7687 68.741 76.7706C69.0651 76.7756 69.389 76.7825 69.713 76.7911C69.517 77.2318 69.2833 77.5431 68.9523 77.892C68.8568 77.9931 68.7614 78.0943 68.663 78.1985C68.5632 78.3029 68.4635 78.4073 68.3606 78.5149C68.2636 78.6176 68.1665 78.7204 68.0664 78.8263C67.4617 79.4645 66.8471 80.0919 66.223 80.7111C66.7409 81.4324 67.2932 82.1126 67.872 82.7849C69.9922 85.2472 69.9922 85.2472 69.9922 85.4711C67.4586 85.8018 67.4586 85.8018 66.6336 85.2943C66.1327 84.8219 65.7781 84.2521 65.4268 83.6634C65.1928 83.2856 64.9263 82.9409 64.6509 82.5928C64.3793 82.2491 64.1152 81.8995 63.8498 81.5511C63.8037 82.8447 63.7576 84.1383 63.7102 85.4711C62.9731 85.4711 62.236 85.4711 61.4766 85.4711C61.4766 80.9897 61.4766 76.5083 61.4766 71.8911Z" fill="#E4E4E4"/>
<path d="M31.4619 72.7312C34.1799 72.7312 36.898 72.7312 39.6984 72.7312C39.6984 73.4242 39.6984 74.1172 39.6984 74.8312C37.7635 74.8312 35.8286 74.8312 33.8351 74.8312C33.8351 75.94 33.8351 77.0488 33.8351 78.1912C35.6779 78.1912 37.5206 78.1912 39.4192 78.1912C39.4192 78.8842 39.4192 79.5772 39.4192 80.2912C37.5764 80.2912 35.7337 80.2912 33.8351 80.2912C33.8351 82.0006 33.8351 83.71 33.8351 85.4712C33.052 85.4712 32.2688 85.4712 31.4619 85.4712C31.4619 81.267 31.4619 77.0628 31.4619 72.7312Z" fill="#E4E4E4"/>
<path d="M57.2148 76.7381C57.9476 77.0573 58.4615 77.6236 58.8235 78.3311C59.0855 79.1981 59.1403 79.9749 59.13 80.8774C59.1296 81.0094 59.1292 81.1414 59.1288 81.2775C59.1272 81.6954 59.1237 82.1132 59.1202 82.5311C59.1188 82.816 59.1175 83.101 59.1164 83.3859C59.1133 84.081 59.1085 84.776 59.1027 85.4711C58.3196 85.4711 57.5364 85.4711 56.7295 85.4711C56.7275 85.2967 56.7254 85.1222 56.7233 84.9425C56.7152 84.2941 56.7045 83.6457 56.6929 82.9974C56.6882 82.717 56.6843 82.4366 56.6811 82.1561C56.6765 81.7526 56.6691 81.3492 56.6613 80.9457C56.6605 80.8207 56.6596 80.6957 56.6586 80.5669C56.6429 79.8968 56.6074 79.4337 56.1711 78.8911C55.6293 78.5236 55.1494 78.6174 54.5352 78.7106C54.0154 79.0052 53.7675 79.4766 53.5187 80.0111C53.4253 80.448 53.4178 80.8691 53.42 81.3149C53.4179 81.4345 53.4158 81.5541 53.4136 81.6773C53.4076 82.0553 53.4064 82.4331 53.4053 82.8111C53.402 83.0691 53.3985 83.327 53.3946 83.5849C53.3853 84.2138 53.3823 84.8421 53.3791 85.4711C52.5959 85.4711 51.8128 85.4711 51.0059 85.4711C51.0059 82.6067 51.0059 79.7423 51.0059 76.7911C51.743 76.7911 52.48 76.7911 53.2395 76.7911C53.2855 77.1145 53.3316 77.4379 53.3791 77.7711C53.477 77.6643 53.5749 77.5574 53.6757 77.4474C54.6777 76.508 55.908 76.4094 57.2148 76.7381Z" fill="#E4E4E4"/>
<path d="M41.6523 71.8911C42.3894 71.8911 43.1265 71.8911 43.886 71.8911C43.886 76.3725 43.886 80.8539 43.886 85.4711C43.1489 85.4711 42.4118 85.4711 41.6523 85.4711C41.6523 80.9897 41.6523 76.5083 41.6523 71.8911Z" fill="#E4E4E4"/>
<path d="M46.3994 76.7913C47.1365 76.7913 47.8736 76.7913 48.633 76.7913C48.633 79.6557 48.633 82.5201 48.633 85.4713C47.8959 85.4713 47.1588 85.4713 46.3994 85.4713C46.3994 82.6069 46.3994 79.7425 46.3994 76.7913Z" fill="#E4E4E4"/>
<path d="M71.1085 42.3511C71.5482 42.5756 71.8338 42.761 72.1293 43.1561C72.4172 44.101 72.3779 44.7831 72.0857 45.7111C71.8128 45.9848 71.3139 45.8833 70.9427 45.8861C70.6676 45.8915 70.6676 45.8915 70.387 45.8971C69.7298 45.8406 69.2978 45.6271 68.7614 45.2561C68.4956 44.8632 68.4806 44.4982 68.4561 44.0311C68.5869 43.6899 68.5869 43.6899 68.7353 43.4711C68.9797 43.8388 69.2081 44.2114 69.4333 44.5911C69.0995 44.0556 69.0759 43.5276 69.0145 42.9111C69.6909 42.3545 70.2358 42.1946 71.1085 42.3511ZM70.1313 42.9111C69.9931 43.0497 69.8549 43.1883 69.7125 43.3311C69.8046 43.5159 69.8967 43.7007 69.9917 43.8911C70.1759 43.8911 70.3602 43.8911 70.5501 43.8911C70.5961 43.6601 70.6422 43.4291 70.6897 43.1911C70.5054 43.0987 70.3211 43.0063 70.1313 42.9111ZM71.3877 44.8711C71.3877 45.2911 71.3877 45.2911 71.3877 45.2911V44.8711Z" fill="#E4E4E4"/>
<path d="M48.4933 72.8712C48.9244 73.2118 48.9119 73.4296 48.9819 73.9825C48.9654 74.4747 48.9117 74.5517 48.5805 74.9625C48.1052 75.337 47.9146 75.4171 47.3241 75.365C46.8925 75.3093 46.6969 75.2637 46.3295 75.015C46.0681 74.6109 46 74.3322 45.9805 73.8512C46.1143 73.3704 46.2813 73.0376 46.6785 72.7312C47.3157 72.5127 47.8711 72.6549 48.4933 72.8712Z" fill="#E4E4E4"/>
</g>
<defs>
<clipPath id="clip0_2358_6213">
<rect width="50.2564" height="70" fill="white" transform="translate(25.5986 15.4712)"/>
</clipPath>
</defs>
</svg>
