<svg width="101" height="101" viewBox="0 0 101 101" fill="none" xmlns="http://www.w3.org/2000/svg">
<g clip-path="url(#clip0_2358_1816)">
<path d="M28.7297 41.8469C28.7297 43.0868 28.8631 44.0918 29.0958 44.829C29.3912 45.6582 29.7468 46.4644 30.1598 47.241C30.3262 47.509 30.3925 47.777 30.3925 48.0117C30.3925 48.3465 30.1932 48.6817 29.7608 49.0168L27.6656 50.4238C27.3663 50.625 27.0669 50.7254 26.8005 50.7254C26.4682 50.7254 26.1355 50.5578 25.8027 50.2563C25.3543 49.7715 24.9534 49.2442 24.6057 48.6817C24.273 48.1125 23.9402 47.4754 23.5746 46.7051C20.9801 49.7871 17.7207 51.3283 13.7964 51.3285C11.0028 51.3285 8.77426 50.5242 7.14443 48.9164C5.51499 47.3078 4.68359 45.1637 4.68359 42.4837C4.68359 39.636 5.68135 37.3243 7.7102 35.5821C9.73866 33.84 12.4329 32.9689 15.8586 32.9689C16.9893 32.9689 18.1534 33.0693 19.3839 33.2368C20.6147 33.4044 21.8784 33.6724 23.2089 33.9739V31.5283C23.2089 28.9818 22.6765 27.2064 21.6454 26.1677C20.5813 25.1291 18.7851 24.6263 16.2242 24.6263C15.0601 24.6263 13.8631 24.7607 12.6323 25.0623C11.4015 25.3638 10.2044 25.7322 9.04027 26.2013C8.50824 26.4357 8.10922 26.5697 7.87617 26.6369C7.64311 26.7041 7.47714 26.7373 7.34414 26.7373C6.87841 26.7373 6.64575 26.4021 6.64575 25.6986V24.0568C6.64575 23.5209 6.71245 23.1189 6.87841 22.8846C7.04477 22.6498 7.34414 22.4154 7.80986 22.181C8.97384 21.5777 10.3706 21.0751 12.0002 20.6732C13.6304 20.2377 15.3599 20.0369 17.189 20.0369C21.1471 20.0369 24.0407 20.9412 25.9032 22.7506C27.7323 24.5595 28.6638 27.3068 28.6638 30.9923V41.8469H28.7297ZM15.2265 46.9395C16.3243 46.9395 17.4551 46.7387 18.6521 46.3364C19.8496 45.9344 20.914 45.1973 21.8117 44.1922C22.3442 43.5559 22.7432 42.8524 22.9425 42.0481C23.1422 41.2442 23.2752 40.2723 23.2752 39.1333V37.7263C22.2666 37.4791 21.245 37.289 20.2153 37.1567C19.1783 37.0242 18.1342 36.957 17.089 36.9556C14.8604 36.9556 13.231 37.3911 12.1336 38.2958C11.0362 39.2005 10.5037 40.4735 10.5037 42.1485C10.5037 43.7231 10.9028 44.8957 11.7342 45.7C12.5326 46.5375 13.6967 46.9395 15.2265 46.9395ZM41.9335 50.5578C41.3348 50.5578 40.9358 50.4574 40.6698 50.2227C40.4037 50.0219 40.1707 49.5527 39.9714 48.9164L32.1557 23.0185C31.9556 22.3482 31.856 21.9127 31.856 21.6783C31.856 21.1424 32.122 20.8404 32.6544 20.8404H35.9137C36.5454 20.8404 36.9781 20.9412 37.2108 21.1756C37.4768 21.3767 37.6765 21.8459 37.8758 22.4822L43.4633 44.6614L48.6518 22.4822C48.8181 21.8123 49.0178 21.3767 49.2835 21.1756C49.5499 20.9748 50.0156 20.8408 50.6143 20.8408H53.2749C53.9066 20.8408 54.3393 20.9412 54.6049 21.1756C54.8713 21.3767 55.104 21.8459 55.237 22.4822L60.4922 44.9293L66.2456 22.4822C66.445 21.8123 66.678 21.3767 66.9107 21.1756C67.1767 20.9748 67.6091 20.8408 68.2078 20.8408H71.3007C71.8331 20.8408 72.1325 21.1088 72.1325 21.6783C72.1325 21.8459 72.0991 22.0135 72.0658 22.2142C72.0324 22.415 71.9661 22.6834 71.8331 23.0521L63.8174 48.9496C63.6181 49.6199 63.3853 50.0555 63.119 50.2563C62.853 50.4574 62.4206 50.5914 61.8556 50.5914H58.9954C58.3633 50.5914 57.9309 50.491 57.6645 50.2563C57.3985 50.0219 57.1658 49.5863 57.0328 48.9164L51.8773 27.3068L46.7555 48.8824C46.5896 49.5527 46.3899 49.9883 46.1238 50.2227C45.8578 50.4574 45.3921 50.5578 44.7938 50.5578H41.9335ZM84.6713 51.4625C82.9418 51.4625 81.2123 51.2613 79.5495 50.8594C77.8863 50.4574 76.5896 50.0215 75.7249 49.5196C75.1925 49.2176 74.8264 48.8828 74.6938 48.5813C74.5644 48.2855 74.4965 47.9662 74.4941 47.643V45.9344C74.4941 45.2309 74.7601 44.8957 75.2592 44.8957C75.4628 44.8965 75.665 44.9305 75.8579 44.9965C76.0572 45.0637 76.3566 45.1973 76.6893 45.3313C77.8639 45.8521 79.0902 46.2452 80.3476 46.5039C81.6504 46.77 82.9763 46.9047 84.3056 46.9059C86.4008 46.9059 88.0306 46.5375 89.1614 45.8004C90.2921 45.0633 90.8909 43.9915 90.8909 42.6176C90.8909 41.6798 90.5915 40.9091 89.9928 40.2723C89.394 39.6356 88.2633 39.0665 86.6338 38.5302L81.8111 37.0227C79.3832 36.252 77.5874 35.113 76.4896 33.6052C75.3922 32.131 74.8268 30.4896 74.8268 28.7474C74.8268 27.3404 75.1261 26.1007 75.7249 25.0283C76.3232 23.9564 77.1217 23.0185 78.1194 22.2814C79.1172 21.5107 80.2479 20.9412 81.5784 20.5393C82.9085 20.1373 84.3052 19.9697 85.7687 19.9697C86.5004 19.9697 87.2655 20.0033 87.9973 20.1037C88.7624 20.2041 89.4607 20.3381 90.1591 20.4721C90.8242 20.6396 91.4562 20.8072 92.055 21.0084C92.6534 21.2092 93.119 21.4101 93.4518 21.6111C93.9175 21.8795 94.2498 22.1474 94.4495 22.449C94.6491 22.717 94.7489 23.0855 94.7489 23.5545V25.1291C94.7489 25.8326 94.4828 26.2013 93.9838 26.2013C93.7178 26.2013 93.2854 26.067 92.7204 25.799C90.824 24.9279 88.6954 24.4924 86.3345 24.4924C84.4386 24.4924 82.9418 24.7939 81.9107 25.4306C80.88 26.067 80.3476 27.0388 80.3476 28.4123C80.3476 29.3505 80.6803 30.1544 81.3453 30.7911C82.0104 31.4279 83.2412 32.0642 85.004 32.6337L89.7268 34.1415C92.1213 34.9122 93.8508 35.9841 94.8819 37.3575C95.913 38.7309 96.412 40.3059 96.412 42.0481C96.412 43.4887 96.1123 44.7954 95.5469 45.9344C94.9486 47.0735 94.1501 48.0785 93.119 48.8828C92.0879 49.7203 90.8575 50.3235 89.4274 50.759C87.9306 51.2281 86.3674 51.4625 84.6713 51.4625Z" fill="#E4E4E4"/>
<path d="M90.9572 67.7444C80.0152 75.8857 64.1171 80.2076 50.448 80.2076C31.2906 80.2076 14.0294 73.0713 0.99194 61.2112C-0.0391623 60.2733 0.89189 59.0003 2.12231 59.737C16.2242 67.9791 33.6188 72.9709 51.6121 72.9709C63.7514 72.9709 77.0883 70.4248 89.3611 65.1983C91.1902 64.3604 92.7533 66.4045 90.9572 67.7444ZM95.5139 62.5178C94.1172 60.7089 86.2678 61.6468 82.7091 62.0823C81.6447 62.2167 81.4783 61.2784 82.4431 60.5749C88.6956 56.1523 98.9729 57.4257 100.17 58.8995C101.367 60.4073 99.8373 70.7596 93.9838 75.7182C93.0861 76.4889 92.2213 76.0869 92.6203 75.0818C93.9504 71.7647 96.9107 64.2936 95.5139 62.5178Z" fill="#E4E4E4"/>
</g>
<defs>
<clipPath id="clip0_2358_1816">
<rect width="100" height="100" fill="white" transform="translate(0.548828 0.088623)"/>
</clipPath>
</defs>
</svg>
