<svg width="101" height="101" viewBox="0 0 101 101" fill="none" xmlns="http://www.w3.org/2000/svg">
<g clip-path="url(#clip0_2358_6223)">
<path d="M10.0946 32.1617C9.5899 31.6605 8.88973 31.3517 8.1092 31.3517C7.33064 31.3517 6.63586 31.6605 6.13756 32.1617H6.12482C5.62162 32.6596 5.30951 33.3543 5.30951 34.1216C5.30951 34.8934 5.62162 35.5837 6.12482 36.0767L6.13756 36.0902C6.63586 36.5871 7.33064 36.8915 8.1092 36.8915C8.88973 36.8915 9.5899 36.5871 10.0946 36.0902L10.1004 36.0767C10.6056 35.5837 10.9138 34.8934 10.9138 34.1216C10.9138 33.3543 10.6056 32.6596 10.1004 32.1617H10.0946ZM8.1092 70.0797C8.88973 70.0797 9.5899 69.7651 10.0946 69.273L10.1004 69.2585C10.6056 68.7674 10.9138 68.0728 10.9138 67.3093C10.9138 66.5375 10.6056 65.8463 10.1004 65.346H10.0946C9.5899 64.8399 8.88973 64.534 8.1092 64.534C7.33064 64.534 6.63586 64.8399 6.13756 65.346H6.12482C5.62162 65.8463 5.30951 66.5375 5.30951 67.3093C5.30951 68.0728 5.62162 68.7674 6.12482 69.2585L6.13756 69.273C6.63586 69.7651 7.33064 70.0797 8.1092 70.0797ZM23.3635 61.687C24.0568 61.5067 24.6844 61.0665 25.0681 60.4005L25.1195 60.303C25.4605 59.6724 25.5228 58.9433 25.3405 58.2961C25.1568 57.6054 24.707 56.9926 24.0352 56.6111L23.9955 56.5849C23.3409 56.2291 22.5962 56.1516 21.9112 56.3362C21.2149 56.5083 20.5893 56.9669 20.2081 57.6272C19.822 58.2835 19.7416 59.0378 19.9263 59.732C20.1169 60.415 20.5633 61.0321 21.2311 61.418H21.235C21.9043 61.7985 22.6608 61.8669 23.3635 61.687ZM10.9809 47.8772C10.246 47.152 9.23173 46.6973 8.1092 46.6973C6.98815 46.6973 5.97685 47.152 5.24336 47.8772C4.51233 48.6014 4.06155 49.6005 4.06155 50.7111C4.06155 51.8217 4.51233 52.8251 5.24336 53.5576C5.97685 54.2784 6.98815 54.7288 8.1092 54.7288C9.23173 54.7288 10.246 54.2784 10.9809 53.5576C11.7139 52.8251 12.1647 51.8217 12.1647 50.7111C12.1647 49.6005 11.7139 48.6014 10.9809 47.8772ZM9.36598 43.1561C10.9956 43.4218 12.4587 44.194 13.5773 45.3084H13.5856C13.7635 45.4839 13.9364 45.6773 14.0976 45.8703L16.8929 44.2706C16.5171 43.1469 16.4995 41.9723 16.8018 40.8705C17.2001 39.3953 18.1668 38.0748 19.6162 37.2474L19.6632 37.2178C21.0969 36.4155 22.726 36.2483 24.1964 36.6424C25.6859 37.0375 27.0294 37.9983 27.8658 39.4298V39.4341C28.6983 40.8579 28.8668 42.4915 28.4699 43.9623C28.0736 45.4369 27.1034 46.7666 25.6555 47.5892L25.2739 47.8122H25.2352C23.8961 48.4429 22.4237 48.5418 21.0714 48.1894C19.9611 47.8985 18.9429 47.2848 18.1453 46.4147L15.3539 48.01C15.6748 48.8496 15.8522 49.7547 15.8522 50.7111C15.8522 51.6627 15.6748 52.5808 15.3539 53.4248L18.1453 55.0158C18.9429 54.132 19.9611 53.5324 21.0714 53.2406C22.5614 52.8377 24.2126 53.0089 25.6555 53.8412L25.7482 53.8838V53.8882C27.1421 54.7244 28.078 56.0149 28.4699 57.4725C28.8668 58.9346 28.6983 60.5692 27.8658 61.9958L27.8153 62.0952L27.8095 62.087C26.9736 63.4622 25.6556 64.3939 24.2008 64.788C22.7089 65.1773 21.0572 65.011 19.6162 64.1908V64.1797C18.1668 63.3507 17.2001 62.0273 16.8018 60.5551C16.4995 59.4581 16.5171 58.2835 16.8929 57.1603L14.0976 55.5645C13.9364 55.7574 13.7635 55.9421 13.5856 56.1176L13.5773 56.1263C12.4587 57.2369 10.9956 58.0087 9.36598 58.2656V61.4611C10.5272 61.7011 11.5669 62.2755 12.3813 63.0817L12.3857 63.0899C13.4773 64.1651 14.1535 65.663 14.1535 67.3093C14.1535 68.9507 13.4773 70.4399 12.3857 71.5204L12.3813 71.5374C11.2818 72.6174 9.77363 73.2864 8.1092 73.2864C6.45359 73.2864 4.94154 72.6174 3.8445 71.5374H3.84009V71.5204C2.74745 70.4399 2.06982 68.9507 2.06982 67.3093C2.06982 65.663 2.74745 64.1651 3.84009 63.0899V63.0817H3.8445C4.65834 62.2755 5.70002 61.7011 6.85684 61.4611V58.2656C5.22768 58.0087 3.76708 57.2369 2.65044 56.1263L2.63868 56.1176C1.24422 54.7331 0.371094 52.8251 0.371094 50.7111C0.371094 48.6014 1.24422 46.6934 2.63868 45.3084H2.65044C3.76708 44.194 5.22768 43.4218 6.85684 43.1561V39.9741C5.70002 39.7259 4.65834 39.1515 3.8445 38.3497H3.84009V38.341C2.74745 37.2561 2.06982 35.7684 2.06982 34.1216C2.06982 32.4836 2.74745 30.9828 3.84009 29.9023L3.8445 29.8979C4.94154 28.8135 6.45359 28.145 8.1092 28.145C9.77363 28.145 11.2818 28.8135 12.3813 29.8979V29.9023H12.3857C13.4773 30.9828 14.1535 32.4836 14.1535 34.1216C14.1535 35.7684 13.4773 37.2561 12.3857 38.341L12.3813 38.3497C11.5669 39.1515 10.5272 39.7259 9.36598 39.9741V43.1561ZM25.0681 41.0338L25.0441 40.9989C24.659 40.3561 24.0435 39.9276 23.3635 39.7429C22.6608 39.5582 21.9043 39.6358 21.2311 40.0178H21.235C20.5633 40.3949 20.114 41.0115 19.9263 41.7028C19.7416 42.3887 19.822 43.1469 20.2081 43.8076L20.2213 43.8246C20.6079 44.4766 21.2238 44.9138 21.9112 45.0898C22.6021 45.2832 23.3718 45.2013 24.0352 44.8193L24.071 44.8024C24.7241 44.4165 25.1592 43.8076 25.3405 43.1387C25.5257 42.4484 25.4517 41.6941 25.0681 41.0338Z" fill="#E4E4E4"/>
<path d="M37.4717 41.9685H40.5908V51.3884L45.0888 46.4662H48.8287L43.3984 52.1689L48.8513 59.3976H45.2799L40.5908 52.9406V59.3976H37.4717V41.9685ZM52.4521 52.9876C52.4521 54.5917 53.6182 56.9239 56.4277 56.9239C58.1661 56.9239 59.3102 56.0276 59.9035 54.853C60.2142 54.2829 60.3572 53.6736 60.4053 53.0395C60.4268 52.4258 60.3097 51.7878 60.0461 51.2212C59.4993 49.9996 58.2856 48.9404 56.4046 48.9404C53.8823 48.9404 52.4521 50.9638 52.4521 52.9663V52.9876ZM63.4994 59.3976H60.3788V57.5371C59.5483 59.0418 57.8094 59.7971 55.9754 59.7971C51.7847 59.7971 49.3334 56.5681 49.3334 52.9193C49.3334 48.8458 52.309 46.0672 55.9754 46.0672C58.3562 46.0672 59.808 47.3155 60.3788 48.3528V46.4662H63.4994V59.3976ZM67.0311 48.8458H65.4147V46.4662H67.0311V45.7376C67.0311 41.8953 69.9842 41.6636 72.2234 41.6379V44.0133C71.436 44.0133 70.1518 44.0133 70.1518 45.8311V46.4662H72.2234V48.8458H70.1518V59.3976H67.0311V48.8458ZM74.3444 41.9685H77.4626V51.3884L81.9615 46.4662H85.7015L80.2711 52.1689L85.723 59.3976H82.1516L77.4626 52.9406V59.3976H74.3444V41.9685ZM89.3248 52.9876C89.3248 54.5917 90.4905 56.9239 93.3004 56.9239C95.0364 56.9239 96.1805 56.0276 96.7748 54.853C97.0864 54.2829 97.23 53.6736 97.277 53.0395C97.2986 52.4258 97.1815 51.7878 96.9174 51.2212C96.3716 49.9996 95.1579 48.9404 93.2774 48.9404C90.7545 48.9404 89.3248 50.9638 89.3248 52.9663V52.9876ZM100.371 59.3976H97.2516V57.5371C96.4186 59.0418 94.6812 59.7971 92.8482 59.7971C88.6575 59.7971 86.2081 56.5681 86.2081 52.9193C86.2081 48.8458 89.1827 46.0672 92.8482 46.0672C95.2275 46.0672 96.6807 47.3155 97.2516 48.3528V46.4662H100.371V59.3976Z" fill="#E4E4E4"/>
</g>
<defs>
<clipPath id="clip0_2358_6223">
<rect width="100" height="100" fill="white" transform="translate(0.371094 0.715576)"/>
</clipPath>
</defs>
</svg>
