<svg width="101" height="101" viewBox="0 0 101 101" fill="none" xmlns="http://www.w3.org/2000/svg">
<g clip-path="url(#clip0_2358_6142)">
<path d="M0.548828 60.8356V46.5504H3.80761V48.3603C4.62979 46.8937 6.42028 46.1296 8.03295 46.1296C9.91146 46.1296 11.554 46.9817 12.3182 48.6543C13.4361 46.7758 15.1087 46.1296 16.9572 46.1296C19.5417 46.1296 22.0064 47.7739 22.0064 51.561V60.8356H18.7195V52.1173C18.7195 50.4448 17.8674 49.1824 15.959 49.1824C14.1684 49.1824 12.9942 50.5908 12.9942 52.3514V60.8339H9.64913V52.1173C9.64913 50.4747 8.82343 49.1912 6.88682 49.1912C5.06817 49.1912 3.92205 50.5416 3.92205 52.3603V60.8426L0.548828 60.8356Z" fill="#E4E4E4"/>
<path d="M26.1719 60.8355V39.5837H29.5785V60.8355H26.1719Z" fill="#E4E4E4"/>
<path d="M28.21 68.6137C28.9758 68.8268 29.6642 68.9659 31.1255 68.9659C33.842 68.9659 37.0461 67.4341 37.8895 63.1348L41.3718 45.8971H46.5496L47.1817 43.0292H41.9511L42.6553 39.6032C43.194 36.943 44.6659 35.5944 47.0285 35.5944C47.643 35.5944 47.4704 35.6472 48.0179 35.7511L48.775 32.8144C48.0461 32.5961 47.393 32.4658 45.9704 32.4658C44.4686 32.4433 43.0023 32.9235 41.8049 33.8303C40.4793 34.8549 39.6043 36.3602 39.2047 38.3039L38.224 43.0292H33.5937L33.2152 45.899H37.6518L34.4546 61.8373C34.1025 63.6454 33.0743 65.8074 30.1237 65.8074C29.4547 65.8074 29.6976 65.7563 29.092 65.6577L28.21 68.6137Z" fill="#E4E4E4"/>
<path d="M49.6178 60.7193H46.2129L50.8801 39.2773H54.285L49.6178 60.7193Z" fill="#E4E4E4"/>
<path d="M66.6039 47.4466C63.6322 45.3672 59.5861 45.7761 57.0905 48.4079C54.5949 51.0397 54.4014 55.1018 56.6356 57.9589L58.8662 56.3216C57.7589 54.948 57.5341 53.0625 58.2872 51.467C59.0403 49.8715 60.639 48.8468 62.4032 48.8287V50.5716L66.6039 47.4466Z" fill="#E4E4E4"/>
<path d="M58.1514 59.4007C61.1231 61.4801 65.1691 61.0712 67.6647 58.4394C70.1603 55.8076 70.3538 51.7455 68.1197 48.8884L65.889 50.5257C66.9963 51.8993 67.2211 53.7848 66.468 55.3803C65.7149 56.9758 64.1162 58.0005 62.352 58.0186V56.2757L58.1514 59.4007Z" fill="#E4E4E4"/>
<path d="M72.3848 46.5415H76.1048L76.8618 56.3039L82.1593 46.5415L85.691 46.5926L87.0783 56.3039L91.7455 46.5415L95.1503 46.5926L88.0871 60.8444H84.6822L83.0413 50.6278L77.6188 60.8444H74.0872L72.3848 46.5415Z" fill="#E4E4E4"/>
<path d="M97.2027 46.795H96.498V46.5503H98.1952V46.8002H97.4915V48.8636H97.2027V46.795Z" fill="#E4E4E4"/>
<path d="M98.623 46.5503H98.9754L99.4187 47.7827C99.4758 47.9411 99.5282 48.1031 99.5825 48.2651H99.5991C99.6533 48.1031 99.703 47.9411 99.7573 47.7827L100.197 46.5503H100.549V48.8636H100.275V47.5873C100.275 47.3848 100.297 47.1066 100.312 46.9006H100.297L100.122 47.4288L99.6846 48.6278H99.4933L99.0508 47.4305L98.8751 46.9024H98.8613C98.8769 47.1084 98.8999 47.3866 98.8999 47.589V48.8654H98.6322L98.623 46.5503Z" fill="#E4E4E4"/>
</g>
<defs>
<clipPath id="clip0_2358_6142">
<rect width="100" height="100" fill="white" transform="translate(0.548828 0.715576)"/>
</clipPath>
</defs>
</svg>
