<svg width="101" height="101" viewBox="0 0 101 101" fill="none" xmlns="http://www.w3.org/2000/svg">
<mask id="mask0_2358_6153" style="mask-type:luminance" maskUnits="userSpaceOnUse" x="24" y="15" width="53" height="71">
<path d="M53.4655 18.3878C53.4655 16.7771 54.7714 15.4712 56.3821 15.4712H73.8823C75.4929 15.4712 76.7989 16.7771 76.7989 18.3878V82.5548C76.7989 84.1655 75.4929 85.4712 73.8823 85.4712H27.2155C25.6048 85.4712 24.2988 84.1655 24.2988 82.5546V53.3881C24.2988 51.7772 25.6048 50.4715 27.2155 50.4715H38.8824V35.888C38.8824 34.2771 40.1881 32.9711 41.799 32.9711H53.4655V18.3878Z" fill="white"/>
</mask>
<g mask="url(#mask0_2358_6153)">
<path d="M76.8002 15.4717V85.4717H53.4668V15.4717H76.8002Z" fill="#7C7C7C"/>
</g>
<mask id="mask1_2358_6153" style="mask-type:luminance" maskUnits="userSpaceOnUse" x="24" y="15" width="53" height="71">
<path d="M53.4655 18.3878C53.4655 16.7771 54.7714 15.4712 56.3821 15.4712H73.8823C75.4929 15.4712 76.7989 16.7771 76.7989 18.3878V82.5548C76.7989 84.1655 75.4929 85.4712 73.8823 85.4712H27.2155C25.6048 85.4712 24.2988 84.1655 24.2988 82.5546V53.3881C24.2988 51.7772 25.6048 50.4715 27.2155 50.4715H38.8824V35.888C38.8824 34.2771 40.1881 32.9711 41.799 32.9711H53.4655V18.3878Z" fill="white"/>
</mask>
<g mask="url(#mask1_2358_6153)">
<path d="M62.2164 36.1788V85.7622H38.8828V33.2622H59.2996C60.9103 33.2622 62.2162 34.5679 62.2162 36.1788" fill="black" fill-opacity="0.2"/>
</g>
<mask id="mask2_2358_6153" style="mask-type:luminance" maskUnits="userSpaceOnUse" x="24" y="15" width="53" height="71">
<path d="M53.4655 18.3878C53.4655 16.7771 54.7714 15.4712 56.3821 15.4712H73.8823C75.4929 15.4712 76.7989 16.7771 76.7989 18.3878V82.5548C76.7989 84.1655 75.4929 85.4712 73.8823 85.4712H27.2155C25.6048 85.4712 24.2988 84.1655 24.2988 82.5546V53.3881C24.2988 51.7772 25.6048 50.4715 27.2155 50.4715H38.8824V35.888C38.8824 34.2771 40.1881 32.9711 41.799 32.9711H53.4655V18.3878Z" fill="white"/>
</mask>
<g mask="url(#mask2_2358_6153)">
<path d="M62.2164 37.3475V86.9307H38.8828V34.4307H59.2996C60.9103 34.4307 62.2162 35.7366 62.2162 37.3475" fill="black" fill-opacity="0.18"/>
</g>
<mask id="mask3_2358_6153" style="mask-type:luminance" maskUnits="userSpaceOnUse" x="24" y="15" width="53" height="71">
<path d="M53.4655 18.3878C53.4655 16.7771 54.7714 15.4712 56.3821 15.4712H73.8823C75.4929 15.4712 76.7989 16.7771 76.7989 18.3878V82.5548C76.7989 84.1655 75.4929 85.4712 73.8823 85.4712H27.2155C25.6048 85.4712 24.2988 84.1655 24.2988 82.5546V53.3881C24.2988 51.7772 25.6048 50.4715 27.2155 50.4715H38.8824V35.888C38.8824 34.2771 40.1881 32.9711 41.799 32.9711H53.4655V18.3878Z" fill="white"/>
</mask>
<g mask="url(#mask3_2358_6153)">
<path d="M62.2164 35.8875V85.4707H38.8828V32.9707H59.2996C60.9103 32.9707 62.2162 34.2766 62.2162 35.8875" fill="#BCBCBC"/>
</g>
<mask id="mask4_2358_6153" style="mask-type:luminance" maskUnits="userSpaceOnUse" x="24" y="15" width="53" height="71">
<path d="M53.4655 18.3878C53.4655 16.7771 54.7714 15.4712 56.3821 15.4712H73.8823C75.4929 15.4712 76.7989 16.7771 76.7989 18.3878V82.5548C76.7989 84.1655 75.4929 85.4712 73.8823 85.4712H27.2155C25.6048 85.4712 24.2988 84.1655 24.2988 82.5546V53.3881C24.2988 51.7772 25.6048 50.4715 27.2155 50.4715H38.8824V35.888C38.8824 34.2771 40.1881 32.9711 41.799 32.9711H53.4655V18.3878Z" fill="white"/>
</mask>
<g mask="url(#mask4_2358_6153)">
<path d="M24.2988 50.4712V85.4711H47.6322V53.388C47.6322 51.7771 46.3263 50.4714 44.7156 50.4714L24.2988 50.4712Z" fill="#E4E4E4"/>
</g>
</svg>
