<svg width="101" height="101" viewBox="0 0 101 101" fill="none" xmlns="http://www.w3.org/2000/svg">
<path fill-rule="evenodd" clip-rule="evenodd" d="M43.6255 27.6564C45.763 27.6564 47.9005 27.6895 50.0352 27.6337C50.6015 27.6189 51.6173 28.0873 51.5718 26.9104C51.5371 25.9526 50.6487 26.2992 50.1103 26.2906C47.6991 26.2525 45.2798 26.1609 42.8782 26.3117C41.1692 26.4181 40.6656 25.7693 40.8801 24.202C40.9541 23.6614 40.883 23.1014 40.8944 22.5505C40.9695 18.8821 41.8561 17.6335 45.4142 16.7286C49.3341 15.7327 53.3457 15.7657 57.2548 16.6239C60.769 17.3956 62.2287 20.1296 62.0512 22.6586C61.8349 25.7448 62.0022 28.8578 61.9994 31.9594C61.9943 35.8594 59.9791 37.9292 56.0472 37.9833C52.809 38.0277 49.5669 38.063 46.3304 37.9731C42.4731 37.8649 39.6435 41.069 39.6241 44.6998C39.6241 44.9752 39.6714 45.2598 39.6167 45.5256C39.339 46.859 40.4488 49.0141 39.0351 49.4102C36.8839 50.0146 34.3651 50.0146 32.4677 48.095C31.8247 47.4463 31.2829 46.7195 30.9972 45.8795C29.4726 41.4036 29.2318 36.8707 30.6671 32.3248C31.5617 29.4872 33.9952 27.7225 37.0097 27.6718C39.2144 27.6348 41.4196 27.6644 43.6243 27.6644L43.6255 27.6564ZM47.5534 21.3281C47.4612 20.2451 46.879 19.4546 45.6776 19.4216C44.3636 19.3875 43.6847 20.1819 43.683 21.4749C43.6818 22.6734 44.3346 23.4411 45.5274 23.4759C46.838 23.514 47.4726 22.7019 47.5534 21.3281Z" fill="#E4E4E4"/>
<path fill-rule="evenodd" clip-rule="evenodd" d="M60.1227 49.5971C57.7098 49.5971 55.2956 49.576 52.8827 49.6141C52.3392 49.621 51.4275 49.2772 51.399 50.2066C51.3672 51.2606 52.3454 50.9862 52.9669 50.9925C55.3799 51.0227 57.7951 51.0483 60.2075 50.9811C61.447 50.947 61.953 51.1843 62.0457 52.6457C62.4651 59.2615 59.594 59.8334 54.2986 61.0371C51.2607 61.7274 48.0038 61.3615 45.0081 60.0195C42.5308 58.9115 41.0107 57.3146 41.2025 54.3246C41.3926 51.3732 41.4244 48.3838 41.1974 45.4353C40.9242 41.8767 43.138 39.2594 47.4432 39.2583C50.3399 39.2577 53.256 39.0369 56.1277 39.301C60.2337 39.6777 63.4531 36.1186 63.5942 31.9801C63.5999 31.8429 63.5646 31.6955 63.5999 31.568C63.9619 30.2961 62.6746 28.4056 64.3967 27.7631C66.9991 26.7927 69.934 27.8126 71.2634 29.7873C72.9394 32.2737 73.1659 35.1995 73.4368 38.0563C73.7299 41.1357 72.866 44.0347 71.5724 46.8125C70.6937 48.6962 69.2164 49.6068 67.1579 49.6096C64.8132 49.6113 62.4691 49.6096 60.1239 49.6096L60.1227 49.5971ZM59.4945 55.7433C59.2367 54.5676 58.7062 53.7651 57.3404 53.7316C55.9199 53.6974 55.5534 54.7599 55.5608 55.7086C55.5688 56.7171 55.8499 57.9577 57.3876 57.8416C58.6658 57.7437 59.289 56.9521 59.4945 55.7433Z" fill="#E4E4E4"/>
<path fill-rule="evenodd" clip-rule="evenodd" d="M22.1675 79.9188C22.1675 81.3882 22.2341 82.7643 22.1362 84.1284C22.0941 84.7168 22.7429 85.8243 21.5085 85.8232C20.4204 85.8232 20.1409 84.957 20.1757 83.9104C20.2422 81.9129 20.195 79.9114 20.195 77.9121V73.3605C20.195 70.6174 20.9308 69.6887 23.5544 69.1207C25.9935 68.5903 27.9103 69.4115 28.8959 71.5468C29.8816 73.6826 29.9579 75.8833 28.9716 78.0561C27.9996 80.1971 26.2092 80.9961 23.9158 80.3615C23.3933 80.2193 22.8658 80.0958 22.1675 79.9188ZM22.1675 74.5419C22.1675 75.2988 22.2699 76.0705 22.1464 76.8069C21.8608 78.5091 22.9477 78.9285 24.2293 79.2313C25.4967 79.5306 26.3657 78.9917 26.8739 77.8751C27.7282 76.0028 27.8716 74.0719 27.2228 72.092C26.6469 70.3323 25.3169 70.1263 23.7644 70.3448C22.2312 70.5628 22.0235 71.6054 22.1573 72.8944C22.2142 73.4379 22.1675 73.9928 22.1675 74.5419ZM38.6639 79.8277C37.614 80.1009 36.7023 80.3923 35.7689 80.5675C33.7259 80.9494 32.2132 79.8277 31.6811 77.7824C31.021 75.251 31.5798 72.7294 31.5969 70.2037C31.6043 69.0524 32.6696 69.5014 33.4066 68.8845C33.4066 71.5877 33.4169 73.921 33.4032 76.2526C33.3958 77.4238 33.6986 78.3868 34.806 79.0042C36.0285 79.686 37.0312 79.0367 38.0954 78.599C38.858 78.2855 38.763 77.6452 38.7641 77.0363C38.7698 74.8327 38.7635 72.6315 38.7709 70.4279C38.7721 69.8844 38.7157 69.2203 39.5182 69.247C40.2335 69.2704 40.5448 69.6955 40.5329 70.4752C40.4811 74.1214 40.5841 77.7727 40.4361 81.4138C40.324 84.1671 38.3817 85.8488 35.5874 85.9723C35.1691 85.9899 34.7309 86.0286 34.5744 85.5096C34.336 84.7106 34.983 84.8614 35.4081 84.7254C38.4818 83.7477 38.8836 83.1638 38.6639 79.8277ZM51.653 70.3665C52.4663 69.9823 52.9335 69.6306 53.4474 69.5356C56.331 69.0023 58.5408 69.2055 58.5351 73.0896C58.5312 75.09 58.5363 77.0909 58.5312 79.0907C58.53 79.6507 58.5659 80.1959 57.731 80.2443C56.8506 80.2967 56.6571 79.793 56.6611 79.1027C56.6714 77.1752 56.7237 75.2476 56.722 73.3206C56.7209 71.8239 56.4153 70.4991 54.5116 70.5036C52.8419 70.5065 51.6593 71.7528 51.6508 73.4726C51.6412 75.3343 51.6418 77.196 51.6525 79.0577C51.6542 79.719 51.6684 80.2989 50.7123 80.2443C49.8513 80.1931 49.9571 79.6126 49.9571 79.0782C49.9514 74.184 49.9753 69.2846 49.9338 64.3869C49.9264 63.5287 50.265 62.9961 51.0265 62.9596C52.1009 62.9101 51.6087 63.8497 51.6246 64.3209C51.6946 66.2394 51.653 68.1623 51.653 70.3665ZM60.7529 74.7548C60.6442 70.9333 62.4568 68.8931 65.7382 69.0114C67.3852 69.0718 68.6207 69.8025 69.418 71.2252C70.8265 73.7418 70.6359 76.2595 69.1118 78.6161C68.0647 80.2346 66.4542 80.9978 64.4908 80.5812C62.5547 80.1715 61.0386 78.4283 60.7643 76.3966C60.6915 75.8588 60.7529 75.3017 60.7529 74.7548ZM68.3333 74.8441C68.2468 74.1771 68.2622 73.2472 67.9845 72.4175C67.6049 71.2793 66.9128 70.363 65.5009 70.3004C64.0765 70.239 63.3657 71.0716 62.8905 72.224C62.1444 74.0332 62.1927 75.8497 63.0009 77.6264C63.5199 78.7709 64.3212 79.6086 65.7098 79.3764C67.0773 79.1482 67.8843 78.2519 68.1637 76.9219C68.2906 76.3192 68.2701 75.6875 68.3333 74.8441ZM72.321 75.3535C72.321 74.6637 72.3079 73.9751 72.3233 73.2888C72.3551 71.9656 71.9334 70.4996 73.7176 69.8235C75.7606 69.0518 77.7855 68.4736 79.8422 69.6682C80.6116 70.1155 80.895 70.9282 80.903 71.7909C80.924 74.1988 80.8922 76.6078 80.9246 79.0156C80.936 79.8556 80.7152 80.2756 79.7711 80.2528C78.7364 80.2284 78.9544 79.5227 78.9612 78.9593C78.9857 77.0357 79.1194 75.1139 79.083 73.1932C79.0352 70.7745 77.7081 69.7883 75.447 70.3818C74.5092 70.6288 73.923 71.0841 73.9691 72.2451C74.0607 74.5112 73.9902 76.7853 73.9987 79.0555C74.001 79.7133 74.0106 80.2961 73.0614 80.2409C72.1918 80.1908 72.3341 79.5893 72.3272 79.0674C72.3113 77.829 72.3227 76.5901 72.321 75.3535ZM47.5265 69.9903C47.3842 70.1587 47.2647 70.4228 47.1395 70.4251C44.8836 70.4564 45.5096 72.1403 45.4516 73.3895C45.3964 74.5533 45.4516 75.7228 45.4351 76.89C45.418 78.0499 45.5187 79.1277 46.9301 79.4356C47.3347 79.5232 47.5191 79.7566 47.4349 80.1606C47.3421 80.6068 46.9864 80.5892 46.6342 80.5846C45.0122 80.5562 43.8097 79.4094 43.7619 77.7306C43.713 76.0153 43.7796 74.2961 43.7392 72.5825C43.7181 71.7687 44.1409 70.7301 42.8286 70.4074C42.6846 70.3727 42.6334 69.9647 42.5395 69.7319C44.2901 69.1827 43.5639 67.6729 43.804 66.5273C43.9179 65.985 44.4329 65.8364 44.9195 65.7903C45.4117 65.7437 45.4157 66.142 45.4317 66.475C45.4965 67.7953 44.8131 69.5623 47.2437 69.4661C47.3251 69.4633 47.4201 69.7865 47.5265 69.9903Z" fill="#E4E4E4"/>
</svg>
