<svg width="101" height="101" viewBox="0 0 101 101" fill="none" xmlns="http://www.w3.org/2000/svg">
<g clip-path="url(#clip0_2358_6230)">
<g clip-path="url(#clip1_2358_6230)">
<path d="M10.5023 41.304V42.2624H8.74219V42.8857H10.5023V44.7946H11.1904V42.8857H12.9947V42.2624H11.1904V40.3496H10.5023V41.304Z" fill="#E4E4E4"/>
<path d="M4.75039 43.735V45.1257H2.08594V45.9983H4.75039V48.8228H5.73848V45.9983H8.44277V45.1257H5.73848V42.3442H4.75039V43.735Z" fill="#E4E4E4"/>
<path d="M15.9152 43.735V45.1257H13.251V46.0413H15.9152V48.8228H16.9434V46.0413H19.6076V45.1257H16.9434V42.3442H15.9152V43.735Z" fill="#E4E4E4"/>
<path d="M10.2467 48.4724V50.0307H7.28223V51.1916H10.2467V54.3081H11.4467V51.1916H14.4111V50.0307H11.4467V46.9141H10.2467V48.4724Z" fill="#E4E4E4"/>
<path d="M18.9635 49.2592V50.237H17.1592V51.0279H18.9635V52.9797H19.8635V51.0279H21.6678V50.237H19.8635V48.2854H18.9635V49.2592Z" fill="#E4E4E4"/>
<path d="M1.78555 49.3449V50.28H0.0253906V50.9422H1.78555V52.8121H2.47363V50.9422L4.27793 50.8798V50.28H2.47363V48.4099H1.78555V49.3449Z" fill="#E4E4E4"/>
<path d="M4.75039 53.7469V55.1377H2.08594V56.0533H4.75039V58.8348H5.77852V56.0533H8.44277V55.1377H5.77852V52.3562H4.75039V53.7469Z" fill="#E4E4E4"/>
<path d="M15.9152 53.7469V55.1377H13.251V56.0103H15.9152V58.8348H16.9434V56.0103H19.6076V55.1377H16.9434V52.3562H15.9152V53.7469Z" fill="#E4E4E4"/>
<path d="M10.4184 57.2805V58.2543H8.61426V59.0452H10.4184V60.997H11.3186V59.0452H13.1227V58.2543H11.3186V56.3025H10.4184V57.2805Z" fill="#E4E4E4"/>
<path d="M65.8969 44.5024V56.3456H64.5248V44.5024H65.8969ZM31.801 46.1659V49.9448H35.4934V51.1916H31.801V55.2626H30.4287V51.1916H26.7363V49.9448H30.4287V46.1659H31.801ZM74.7459 48.7606C74.9939 48.772 75.31 48.8112 75.4541 48.8462C75.6296 48.8935 75.8008 48.9548 75.966 49.0294C76.1102 49.0918 76.3422 49.2279 76.4822 49.3331C76.6262 49.4383 76.8262 49.6333 76.9303 49.7656C77.0342 49.898 77.1822 50.1396 77.2623 50.2993C77.3424 50.4591 77.4463 50.7396 77.4943 50.9226C77.5422 51.1058 77.5982 51.4759 77.6424 52.2316H72.8977L72.9258 52.3875C72.9377 52.4731 72.9896 52.6563 73.0297 52.7927C73.0738 52.929 73.1859 53.1432 73.2738 53.264C73.3617 53.3847 73.4937 53.5289 73.5617 53.5797C73.634 53.6303 73.7779 53.7159 73.8859 53.7705C74.0174 53.8308 74.1539 53.8803 74.2939 53.9184C74.4139 53.9496 74.734 53.9768 75.0221 53.9768C75.3061 53.9768 75.7141 53.9496 75.9262 53.9146C76.1383 53.8796 76.4381 53.8095 76.5902 53.7625C76.7422 53.7159 76.9422 53.6419 77.0303 53.5989C77.1182 53.5561 77.2102 53.5171 77.2342 53.5171C77.2611 53.5171 77.277 53.7351 77.2781 54.6393V54.7639L77.0422 54.8691C76.9102 54.9274 76.6381 55.021 76.4301 55.0794C76.2221 55.134 75.8422 55.204 75.582 55.2314C75.226 55.2664 74.9859 55.2664 74.6139 55.2314C74.342 55.204 73.9459 55.134 73.7338 55.0754C73.5219 55.017 73.2139 54.9003 73.0537 54.8145C72.8896 54.7289 72.6137 54.5301 72.4377 54.3704C72.2576 54.2106 72.0336 53.9496 71.9297 53.7899C71.8256 53.6301 71.6977 53.3575 71.6375 53.1862C71.5775 53.0146 71.5057 52.7147 71.4775 52.5237C71.4455 52.3095 71.4375 52.0096 71.4535 51.7758C71.4656 51.5577 71.5176 51.2304 71.5656 51.0474C71.6137 50.8644 71.7297 50.5643 71.8215 50.3811C71.9137 50.1981 72.0855 49.937 72.1977 49.8006C72.3137 49.6643 72.5416 49.4539 72.7057 49.3331C72.8697 49.2123 73.1457 49.0606 73.3178 48.9904C73.4857 48.9202 73.7779 48.8384 73.9619 48.8034C74.1818 48.7644 74.4459 48.7488 74.7459 48.7606ZM88.9998 48.6982V50.7862C88.9998 51.9356 88.9877 53.3108 88.9356 54.8107L88.5916 54.9119C88.4035 54.9664 88.0234 55.0522 87.7436 55.095C87.3875 55.1574 87.0475 55.1806 86.5873 55.1806C86.2232 55.1806 85.8033 55.1612 85.6512 55.1378C85.4992 55.1106 85.1992 55.0366 84.9871 54.9704C84.7592 54.9001 84.4631 54.7639 84.2791 54.6471C84.099 54.5339 83.851 54.3352 83.723 54.199C83.599 54.0666 83.423 53.8329 83.3389 53.6847C83.2549 53.5367 83.1389 53.264 83.083 53.0848C82.999 52.8238 82.975 52.6213 82.9549 52.1498C82.943 51.7719 82.9549 51.4369 82.9869 51.2539C83.0148 51.0942 83.0869 50.8252 83.1471 50.6539C83.2029 50.4825 83.335 50.2097 83.4391 50.05C83.5391 49.8902 83.7551 49.6371 83.9189 49.4889C84.1031 49.3253 84.3432 49.1579 84.5391 49.0644C84.715 48.9826 84.9711 48.8812 85.1152 48.8424C85.2553 48.8072 85.6033 48.7644 85.8873 48.7528C86.2674 48.7372 86.4873 48.7528 86.7232 48.7994C86.9033 48.8384 87.1715 48.9242 87.3273 48.9942C87.4795 49.0606 87.6115 49.119 87.6154 49.115C87.6228 49.115 87.6268 49.0364 87.6273 48.9364V48.6982H88.9998ZM46.5307 48.6982V51.296L46.5301 51.5672C46.5271 52.7864 46.5098 53.9831 46.4666 54.8107L46.1227 54.9119C45.9346 54.9664 45.5387 55.0522 45.2426 55.1028C44.7904 55.1768 44.5863 55.1846 43.9344 55.169C43.3303 55.1534 43.0863 55.13 42.8182 55.0638C42.6262 55.0132 42.2982 54.8925 42.0861 54.7911C41.8621 54.6821 41.5939 54.5107 41.442 54.3821C41.302 54.2574 41.1021 54.0354 41.0061 53.8912C40.9061 53.7431 40.774 53.5095 40.718 53.3731C40.6619 53.2368 40.5779 52.964 40.5379 52.7731C40.482 52.4927 40.4699 52.2862 40.4859 51.7954C40.5059 51.3237 40.534 51.094 40.602 50.8604C40.6539 50.6889 40.7738 50.4085 40.866 50.2369C40.9578 50.0658 41.142 49.8046 41.2781 49.6605C41.418 49.5125 41.6461 49.3175 41.7859 49.2241C41.9262 49.1346 42.1582 49.0138 42.3021 48.9592C42.4869 48.8913 42.6769 48.8379 42.8703 48.7994C43.0422 48.7682 43.3623 48.741 43.5783 48.741C43.7982 48.741 44.1104 48.7722 44.2783 48.8034C44.4424 48.8384 44.7023 48.9242 44.8584 48.9942C45.0105 49.0606 45.1426 49.119 45.1465 49.115C45.1504 49.115 45.1584 49.0216 45.1584 48.9086V48.6982H46.5307ZM54.5596 45.7492L54.5598 47.7288C54.5611 48.9499 54.5729 49.0279 54.6355 49.0098C54.6797 48.9942 54.8875 48.9398 55.0996 48.8812C55.3516 48.815 55.6557 48.7722 55.9797 48.7528C56.3479 48.7372 56.5637 48.749 56.8359 48.7994C57.068 48.8424 57.3438 48.9358 57.5879 49.0528C57.8 49.154 58.0801 49.3253 58.2121 49.4383C58.34 49.5475 58.5441 49.7772 58.6602 49.9488C58.7801 50.12 58.9281 50.3929 58.9922 50.5603C59.0602 50.7239 59.1441 51.0318 59.1842 51.246C59.2322 51.5265 59.2441 51.768 59.2281 52.1498C59.2162 52.4341 59.1721 52.7888 59.132 52.9368C59.0961 53.0848 59.0002 53.3381 58.924 53.4979C58.848 53.6575 58.6961 53.903 58.5881 54.0392C58.484 54.1756 58.2721 54.3782 58.1199 54.4911C57.9721 54.6041 57.7 54.7599 57.524 54.8379C57.3479 54.9197 57.0559 55.021 56.8799 55.0678C56.6039 55.1418 56.4277 55.1534 55.6357 55.1572C54.8877 55.1612 54.6436 55.1458 54.3477 55.0832C54.1022 55.029 53.8581 54.9692 53.6154 54.9041C53.4154 54.8495 53.2395 54.7873 53.2234 54.7717C53.2074 54.7561 53.1875 52.7225 53.1795 50.2487L53.1635 45.7492H54.5596ZM95.7443 48.8658L95.7404 50.9538V51.4911C95.7418 52.7875 95.7502 53.0369 95.8025 53.2364L95.8084 53.2575C95.8133 53.2751 95.8187 53.2929 95.8244 53.3108C95.8764 53.4667 95.9725 53.6497 96.0525 53.7431C96.1285 53.8289 96.2885 53.9458 96.4084 54.0002C96.5244 54.0548 96.7484 54.1172 96.9006 54.1366C97.0647 54.16 97.2967 54.16 97.4605 54.1366C97.6127 54.1172 97.8367 54.0548 97.9527 54.0002C98.0727 53.9458 98.2326 53.829 98.3088 53.7431C98.3889 53.6497 98.4887 53.4665 98.5367 53.3108C98.5432 53.2904 98.549 53.2708 98.5545 53.2501L98.5584 53.2343C98.6084 53.0289 98.6184 52.658 98.6203 50.3495V50.1633L98.6205 50.0671V49.5543L98.6207 49.4451V48.8658H100.025L100.017 51.1214C100.014 53.0034 100.01 53.3262 99.9545 53.539L99.9494 53.558L99.941 53.5854L99.9352 53.6039L99.9291 53.6225C99.8811 53.7587 99.7811 53.9652 99.7051 54.0782C99.6289 54.195 99.4971 54.3548 99.4051 54.4405C99.3172 54.5261 99.125 54.6625 98.9852 54.7443C98.8449 54.8261 98.573 54.9392 98.385 54.9976C98.1689 55.0638 97.8809 55.1144 97.6129 55.134C97.3727 55.1456 96.9887 55.1456 96.7527 55.1302C96.4848 55.1144 96.1926 55.0638 95.9807 54.9976C95.7887 54.9392 95.5205 54.8263 95.3766 54.7443C95.2365 54.6625 95.0484 54.5261 94.9566 54.4405C94.8686 54.3549 94.7324 54.1952 94.6564 54.0782C94.5844 53.9652 94.4846 53.7587 94.4365 53.6225L94.4332 53.6132L94.4269 53.5951C94.4206 53.5768 94.4149 53.5584 94.4098 53.5398L94.4047 53.5204C94.3512 53.3054 94.3467 52.9372 94.3363 51.1214L94.3205 48.8656L95.7443 48.8658ZM86.2514 49.9916C86.0992 49.9916 85.8672 50.0228 85.7393 50.054C85.6072 50.089 85.4072 50.167 85.2912 50.2291C85.1752 50.2913 85.0072 50.4201 84.9152 50.5175C84.8232 50.6149 84.7031 50.7862 84.6432 50.9032C84.583 51.0162 84.507 51.2266 84.4711 51.3707C84.4352 51.5109 84.407 51.7874 84.407 51.9822C84.407 52.177 84.4352 52.4537 84.4711 52.5939C84.507 52.7381 84.5752 52.9328 84.6271 53.0302C84.6791 53.1276 84.8111 53.299 84.9191 53.4081C85.0271 53.5211 85.2031 53.6535 85.3072 53.7043C85.4152 53.7587 85.6072 53.8329 85.7393 53.8678C85.8873 53.9106 86.1312 53.934 86.4152 53.934C86.6555 53.934 86.9953 53.9146 87.1633 53.8912C87.3354 53.8678 87.4994 53.8329 87.5234 53.8171C87.5594 53.7977 87.5795 53.2952 87.5914 52.0914L87.6035 50.3891C87.1715 50.1748 86.9314 50.0852 86.7873 50.05C86.6473 50.015 86.4072 49.9876 86.2514 49.9916ZM43.2662 50.054C43.1383 50.089 42.9381 50.167 42.8223 50.2291C42.7064 50.2913 42.5381 50.4201 42.4461 50.5175C42.3541 50.6149 42.2301 50.7862 42.1742 50.9032C42.1141 51.0162 42.0381 51.2266 42.0021 51.3707C41.966 51.5109 41.9381 51.768 41.9381 51.9394C41.9381 52.1108 41.9582 52.3641 41.982 52.5005C42.0102 52.6367 42.082 52.8626 42.15 52.999C42.2301 53.1626 42.3582 53.3302 42.5223 53.4783C42.6822 53.6225 42.8703 53.7431 43.0342 53.8055C43.2342 53.8834 43.3943 53.9068 43.8062 53.9262C44.0984 53.938 44.4664 53.9224 44.6625 53.895C44.8504 53.8678 45.0266 53.8329 45.0545 53.8171C45.0865 53.7977 45.1105 53.2562 45.1307 52.0952L45.1584 50.4045C44.8064 50.2175 44.6104 50.1318 44.4904 50.0928C44.3744 50.05 44.1023 50.011 43.8904 50.0034C43.6264 49.9916 43.4303 50.0072 43.2662 50.054ZM55.8717 49.9916C55.7076 49.9954 55.4916 50.015 55.3996 50.0344C55.3037 50.054 55.0836 50.12 54.9035 50.1825L54.5836 50.2915V53.7473C55.2557 53.9186 55.3996 53.9304 55.8477 53.9186C56.2877 53.907 56.4316 53.8874 56.6437 53.8096C56.7838 53.7551 56.9797 53.6537 57.0719 53.5797C57.168 53.5097 57.3039 53.3771 57.376 53.2876C57.4478 53.198 57.5518 53.011 57.6039 52.8746C57.66 52.7383 57.724 52.4771 57.748 52.2941C57.784 52.045 57.784 51.8734 57.7441 51.6085C57.714 51.3813 57.6464 51.1604 57.5439 50.9542C57.4639 50.7864 57.3238 50.5801 57.2359 50.4943C57.148 50.4087 56.9879 50.2879 56.8799 50.2293C56.7758 50.1671 56.5719 50.0892 56.4277 50.0542C56.2877 50.0152 56.0357 49.9876 55.8717 49.9916ZM74.2699 50.0502C74.1418 50.0854 73.934 50.1749 73.8059 50.2489C73.6777 50.3229 73.4978 50.4671 73.4018 50.5685C73.31 50.6735 73.1857 50.845 73.1297 50.954C73.0736 51.063 73.0258 51.1684 73.0258 51.1917C73.0258 51.2176 73.5156 51.233 74.4227 51.2344H76.098C76.0541 50.9268 76.0141 50.7748 75.982 50.693C75.9461 50.6151 75.842 50.4671 75.75 50.3697C75.6381 50.2489 75.502 50.1631 75.3461 50.1048C75.2141 50.062 74.974 50.0152 74.81 50.0034C74.618 49.9958 74.4219 50.0112 74.2699 50.0502Z" fill="#E4E4E4"/>
</g>
</g>
<defs>
<clipPath id="clip0_2358_6230">
<rect width="100" height="100" fill="white" transform="translate(0.0253906 0.715576)"/>
</clipPath>
<clipPath id="clip1_2358_6230">
<rect width="100" height="20.7317" fill="white" transform="translate(0.0253906 40.3496)"/>
</clipPath>
</defs>
</svg>
