<svg width="101" height="101" viewBox="0 0 101 101" fill="none" xmlns="http://www.w3.org/2000/svg">
<g clip-path="url(#clip0_2358_6227)">
<path d="M62.0518 46.4874L62.0488 46.4855C62.0488 46.4855 62.0473 46.4845 62.0453 46.4845C61.9778 46.4553 61.905 46.4401 61.8314 46.4397C61.7167 46.4411 61.6045 46.474 61.5072 46.5349C61.405 46.5978 61.3245 46.6906 61.2768 46.8008V46.8035L59.0139 52.9427L57.2697 48.8278L57.2672 48.826C57.2182 48.7109 57.1303 48.622 57.0307 48.5603C56.9288 48.4974 56.8115 48.464 56.6918 48.464C56.573 48.464 56.4625 48.5009 56.3646 48.5611C56.2686 48.6228 56.1816 48.7109 56.1328 48.826L56.1316 48.828L54.384 52.9454L52.109 46.809H52.107C52.0683 46.6961 51.9919 46.6 51.8906 46.5368C51.7919 46.4743 51.6776 46.4406 51.5607 46.4397C51.4843 46.44 51.4085 46.4552 51.3379 46.4845H51.3344L51.3318 46.4874C51.2293 46.5347 51.1426 46.6105 51.0818 46.7057C51.0211 46.8009 50.989 46.9115 50.9893 47.0244C50.9894 47.0965 51.0035 47.168 51.0316 47.2389H51.0309L53.8295 54.6878V54.6903C53.8512 54.7458 53.8818 54.8009 53.9272 54.8548C53.96 54.8933 54.0082 54.9257 54.0578 54.9527C54.0931 54.9873 54.1384 55.0099 54.1873 55.0172C54.2371 55.0338 54.3033 55.0576 54.392 55.0576C54.5053 55.0576 54.6103 55.0172 54.7045 54.9572C54.7998 54.895 54.8733 54.8046 54.9148 54.6985L54.9221 54.6931L56.6916 50.4998L58.4637 54.6761H58.4656C58.5064 54.7874 58.5781 54.8746 58.6613 54.9365C58.7492 55.0019 58.8479 55.0424 58.9523 55.0576H59.0266C59.0973 55.0576 59.166 55.0443 59.2238 55.0219C59.2776 55.0008 59.3282 54.9724 59.3742 54.9375C59.4691 54.8645 59.5429 54.7677 59.5883 54.6569V54.6546L62.3689 47.2389C62.3964 47.1681 62.4102 47.097 62.4104 47.0256C62.4097 46.9107 62.3754 46.7984 62.3117 46.7028C62.2479 46.6071 62.1576 46.5322 62.0518 46.4874ZM49.2586 50.7399C49.2586 49.8651 48.9197 49.0729 48.3809 48.5009C47.8389 47.9278 47.1049 47.5775 46.3078 47.5775C45.5103 47.5775 44.7746 47.9278 44.2338 48.5009C43.6937 49.0729 43.3549 49.8651 43.3549 50.7397C43.3549 51.6137 43.6937 52.3984 44.2338 52.9667C44.7748 53.5372 45.5103 53.8822 46.3078 53.8822C47.1049 53.8822 47.8414 53.5374 48.3809 52.9669C48.9199 52.3984 49.2586 51.6137 49.2586 50.7399ZM49.2432 47.7033C49.9916 48.49 50.4463 49.5695 50.4482 50.7399C50.4463 51.9101 49.9916 52.9884 49.2432 53.7753C48.5004 54.561 47.4629 55.0578 46.3096 55.0578C45.165 55.0578 44.126 54.561 43.3805 53.7753C42.6042 52.9551 42.1715 51.8686 42.1715 50.7392C42.1715 49.6098 42.6042 48.5233 43.3805 47.7031C44.126 46.9184 45.165 46.4216 46.3096 46.4216C47.4629 46.4216 48.5004 46.9186 49.2432 47.7033ZM37.4604 46.4368C36.5326 46.4368 35.6855 46.7953 35.0531 47.3673V47.0254C35.0534 46.8724 34.9949 46.725 34.8898 46.6138C34.8366 46.5581 34.7727 46.5137 34.7018 46.4832C34.631 46.4528 34.5548 46.437 34.4777 46.4368C34.3985 46.4361 34.3199 46.4514 34.2466 46.4815C34.1733 46.5117 34.1068 46.5563 34.051 46.6126C33.9439 46.7233 33.8841 46.8714 33.8844 47.0254V54.6472L33.9088 54.6714L33.9098 54.6751C33.916 54.7003 33.9322 54.7279 33.9494 54.7548C34.0317 54.8987 34.167 55.0047 34.3264 55.0502L34.3498 55.0576H34.4777C34.5629 55.0576 34.6488 55.0396 34.7305 55.0017C34.7984 54.9695 34.8617 54.9175 34.9125 54.8509L34.9145 54.8519C34.9207 54.8457 34.9227 54.8374 34.9299 54.8314C34.9327 54.8299 34.9351 54.8276 34.9369 54.8249C34.9686 54.7845 34.9951 54.7433 35.0113 54.7046C35.0256 54.6646 35.0378 54.6238 35.0477 54.5825L35.0531 54.5608V49.9844C35.0683 49.3527 35.3282 48.7516 35.7779 48.3077C36.2243 47.8617 36.8295 47.6114 37.4604 47.6117C38.1273 47.6117 38.7223 47.8777 39.1537 48.3077C39.3747 48.526 39.5501 48.7862 39.6695 49.073C39.789 49.3598 39.8501 49.6675 39.8494 49.9782V54.4723C39.8494 54.6364 39.9201 54.7884 40.0271 54.8923C40.1395 54.9983 40.2881 55.0574 40.4426 55.0574C40.597 55.0574 40.7456 54.9983 40.858 54.8923C40.9684 54.7884 41.0355 54.6364 41.0355 54.4723V49.9782C41.0355 48.0383 39.4373 46.4397 37.4604 46.437M95.8656 49.9063C95.5285 48.5511 94.3279 47.5855 92.9582 47.5884C91.5539 47.5884 90.3697 48.5332 90.0027 49.9063H95.8656ZM97.1637 50.4615V50.5197C97.1637 50.6823 97.0904 50.8288 96.9791 50.9249C96.8686 51.0218 96.7246 51.0722 96.5695 51.0739H89.9203C90.0897 52.6821 91.3852 53.8699 92.9318 53.8822H93.324C93.8357 53.8839 94.3344 53.7087 94.7729 53.4188C95.2123 53.1316 95.5918 52.73 95.8592 52.2881C95.9111 52.1986 95.9874 52.1257 96.0791 52.0779C96.1643 52.032 96.2597 52.0082 96.3564 52.0087C96.4615 52.0087 96.5658 52.0357 96.6572 52.0904L96.6637 52.0931L96.6709 52.0986C96.8377 52.2197 96.942 52.4049 96.942 52.6079C96.942 52.711 96.9148 52.8163 96.8576 52.9113L96.8559 52.9152L96.8539 52.9167C96.4824 53.5024 95.976 54.0367 95.3744 54.4239C94.7719 54.8117 94.0734 55.0578 93.324 55.0578H92.9256C91.7586 55.0496 90.7039 54.561 89.9437 53.7798C89.156 52.9707 88.716 51.8854 88.718 50.7561C88.718 49.5605 89.1891 48.4757 89.9539 47.6908C90.7186 46.9068 91.7811 46.4218 92.9582 46.4218C94.0816 46.4218 95.091 46.8644 95.8383 47.5894C96.5859 48.3142 97.0742 49.3206 97.1613 50.4533L97.1637 50.4615ZM69.8896 42.8743C69.7275 42.8743 69.5791 42.9417 69.4723 43.0476C69.4171 43.1016 69.3733 43.166 69.3433 43.2371C69.3133 43.3082 69.2977 43.3846 69.2975 43.4618V54.4723C69.2975 54.6329 69.365 54.7802 69.4723 54.8845C69.5838 54.994 69.7334 55.0561 69.8896 55.0578C70.2258 55.0578 70.4977 54.7954 70.4996 54.4723V43.4616C70.4977 43.1373 70.2258 42.8741 69.8896 42.8741M31.1426 50.5295C30.6641 50.306 30.1215 50.1407 29.5799 49.963C29.0814 49.7959 28.5758 49.6539 28.215 49.4672C28.034 49.371 27.8928 49.2696 27.8012 49.1556C27.7078 49.0417 27.6625 48.9256 27.6598 48.7676C27.6607 48.5511 27.7242 48.3769 27.8311 48.2225C27.9932 47.9916 28.265 47.8119 28.5621 47.6959C28.8557 47.5796 29.1738 47.5247 29.4012 47.5247C30.0734 47.5257 30.4984 47.7474 30.8246 47.9772C30.9857 48.0932 31.1219 48.2106 31.2504 48.3077C31.3166 48.3581 31.3781 48.4038 31.4498 48.4378C31.5176 48.471 31.5975 48.4982 31.6844 48.4982C31.7396 48.4982 31.7951 48.4882 31.8455 48.4669C31.899 48.4454 31.9453 48.4146 31.9898 48.3771C32.0339 48.3364 32.0702 48.2879 32.0967 48.2341C32.1195 48.1805 32.1312 48.1228 32.1311 48.0645C32.1311 47.9602 32.0975 47.8623 32.0494 47.7705C31.9598 47.6089 31.8219 47.4546 31.6463 47.3001C31.3853 47.0702 31.0412 46.851 30.6705 46.6859C30.2988 46.5206 29.9004 46.4083 29.5207 46.4083C28.641 46.4083 27.9062 46.6058 27.3725 46.9697C27.0943 47.16 26.8498 47.3683 26.6768 47.6558C26.501 47.944 26.4031 48.2997 26.3904 48.7621C26.3898 48.783 26.3895 48.8036 26.3896 48.824C26.3877 49.2734 26.5336 49.6434 26.7627 49.9333C27.1107 50.3699 27.6273 50.6311 28.1338 50.8163C28.6393 51.0011 29.1447 51.1116 29.4639 51.2175C29.9131 51.3656 30.3906 51.5264 30.7385 51.7391C30.9117 51.8479 31.0519 51.9648 31.1473 52.0931C31.2396 52.2252 31.2918 52.3615 31.2939 52.5342V52.5469C31.293 52.7964 31.2189 52.9923 31.0965 53.1601C30.9117 53.4098 30.6043 53.5928 30.2781 53.7087C29.9531 53.822 29.615 53.8699 29.3975 53.8699C28.6301 53.8699 28.1166 53.6862 27.7441 53.5026C27.5574 53.4098 27.4062 53.3182 27.2693 53.2408C27.2051 53.2045 27.1388 53.1719 27.0709 53.1431C27.0034 53.1141 26.9307 53.0991 26.8572 53.0988C26.8064 53.0985 26.7559 53.1076 26.7084 53.1257C26.6603 53.1461 26.6162 53.1748 26.5779 53.2103C26.5258 53.2589 26.4823 53.3161 26.4494 53.3793C26.4188 53.442 26.403 53.5108 26.4031 53.5805C26.4031 53.6954 26.4465 53.8005 26.5084 53.8956C26.6053 54.033 26.7475 54.156 26.925 54.2791C27.108 54.4002 27.3266 54.5198 27.5783 54.6376C28.1365 54.8988 28.8521 55.0353 29.3959 55.0443H29.3975C30.2432 55.0443 30.973 54.8511 31.5883 54.4022V54.401H31.5893C32.1908 53.9521 32.565 53.2848 32.565 52.5315C32.565 52.1173 32.4672 51.7663 32.2961 51.4789C32.0379 51.0433 31.6184 50.7561 31.1426 50.5295ZM78.825 50.7399C78.825 49.8569 78.4889 49.0657 77.9516 48.4947C77.415 47.9252 76.6785 47.5796 75.873 47.5777C75.0738 47.5777 74.3402 47.9252 73.7982 48.4947C73.2602 49.0657 72.9195 49.8569 72.9195 50.7399C72.9195 51.6217 73.2602 52.4078 73.7982 52.9742C74.3373 53.5409 75.0738 53.8822 75.873 53.8822C76.6803 53.8822 77.4168 53.5409 77.9533 52.9761C78.4889 52.4076 78.825 51.6225 78.825 50.7399ZM79.8324 46.5853C79.8887 46.64 79.9335 46.7054 79.964 46.7777C79.9945 46.8501 80.0102 46.9278 80.0102 47.0063V54.4723C80.009 54.6273 79.9465 54.7755 79.8363 54.8845C79.7246 54.9941 79.5748 55.0562 79.4184 55.0578C79.2555 55.0578 79.1059 54.9885 79.0008 54.8845C78.9455 54.831 78.9015 54.7669 78.8713 54.6962C78.8412 54.6254 78.8254 54.5493 78.825 54.4723V53.7439C78.0791 54.5423 77.032 55.0578 75.873 55.0578C74.7197 55.0578 73.6814 54.5665 72.9375 53.7798C72.1912 52.9968 71.7344 51.9181 71.7344 50.7399C71.7344 49.5617 72.1912 48.482 72.9375 47.6982C73.6814 46.9121 74.7197 46.4218 75.873 46.4218C77.0312 46.4218 78.0791 46.9223 78.825 47.7168V47.0063C78.825 46.8422 78.893 46.6904 79.0025 46.5853C79.1153 46.4797 79.2641 46.4212 79.4186 46.4218C79.5752 46.4218 79.7246 46.4819 79.8324 46.5853ZM88.1981 47.3423C88.3158 47.2264 88.3801 47.0727 88.3801 46.9203C88.3795 46.8432 88.363 46.767 88.3315 46.6967C88.3 46.6263 88.2542 46.5632 88.1971 46.5114H88.1981C88.1971 46.5079 88.1941 46.5079 88.1941 46.5079C88.1936 46.5052 88.1916 46.5042 88.1916 46.5042H88.1898C88.0804 46.395 87.9324 46.3331 87.7777 46.3319C87.6244 46.3319 87.475 46.395 87.3609 46.5079L82.7283 50.9833V43.4616C82.7283 43.1373 82.4547 42.8741 82.1184 42.8741C81.9564 42.8741 81.8078 42.9415 81.702 43.0474C81.5965 43.1527 81.5262 43.3008 81.5262 43.4616V54.4721C81.5262 54.6327 81.5965 54.78 81.702 54.8843C81.8129 54.9941 81.9623 55.0563 82.1184 55.0576C82.4547 55.0576 82.7283 54.7952 82.7283 54.4721V52.6553L84.2369 51.1617L87.3121 54.8394C87.3699 54.9238 87.4488 54.982 87.5266 55.0127C87.6154 55.0459 87.7018 55.0576 87.7785 55.0576C87.8844 55.0576 88.0342 55.0351 88.1656 54.9326L88.1729 54.9283L88.1807 54.9201C88.3037 54.7997 88.3736 54.6399 88.3736 54.4766C88.3736 54.3391 88.3223 54.199 88.2271 54.0869V54.0849L85.0967 50.3128L88.1953 47.3421L88.1981 47.3423ZM67.4453 42.9005H67.3131C67.2955 42.9005 67.2787 42.9023 67.2604 42.9028C67.2441 42.9023 67.2268 42.9005 67.2098 42.9005C66.8682 42.9005 66.5365 42.939 66.2266 43.0412C65.9211 43.142 65.6396 43.3082 65.4213 43.5604L65.4203 43.5594L65.4195 43.5604V43.5614C65.1939 43.8101 65.0451 44.1074 64.9547 44.4452C64.8641 44.7847 64.8268 45.1672 64.8232 45.6017V46.4436H63.8873C63.5621 46.4452 63.3039 46.7029 63.3039 47.0147C63.3021 47.1761 63.3636 47.3318 63.4752 47.4484C63.5863 47.5619 63.7358 47.6298 63.8943 47.6388H64.8232V54.4866L64.8223 54.5026C64.8223 54.6634 64.8902 54.8115 65 54.9177C65.1084 55.0219 65.2609 55.0838 65.4268 55.0838C65.58 55.0828 65.7266 55.021 65.8344 54.9121C65.9422 54.8031 66.0025 54.6559 66.002 54.5026V47.6388H67.0084C67.1662 47.6312 67.3155 47.5652 67.4273 47.4536C67.5367 47.3452 67.6039 47.1926 67.6039 47.0272V47.0049C67.6002 46.6966 67.3402 46.4435 67.0148 46.4435H66.002V45.6054C66.0084 45.2346 66.0473 44.957 66.1035 44.755C66.1578 44.5518 66.2322 44.4245 66.299 44.3455C66.3645 44.2754 66.4494 44.217 66.5881 44.1701C66.7277 44.1254 66.9207 44.0967 67.1818 44.0967H67.2125C67.2277 44.0967 67.2441 44.0939 67.2586 44.0939C67.2768 44.0939 67.2938 44.0967 67.3131 44.0967H67.4453C67.7793 44.0967 68.0488 43.829 68.0488 43.4985C68.0488 43.1679 67.7793 42.9005 67.4453 42.9005ZM100.193 46.4296C100.193 47.2014 99.6721 47.8459 98.8014 47.8459C97.9365 47.8459 97.4215 47.1954 97.4215 46.4296C97.4215 45.6575 97.9365 45.0133 98.8014 45.0133C99.6721 45.0133 100.193 45.6575 100.193 46.4296ZM99.9174 46.4296C99.9174 45.7732 99.476 45.2745 98.8014 45.2745C98.1389 45.2745 97.6973 45.7486 97.6973 46.4296C97.6973 47.0797 98.1389 47.5841 98.8014 47.5841C99.4758 47.5841 99.9174 47.086 99.9174 46.4296ZM98.2553 45.7912H98.8502C99.1752 45.7912 99.3898 45.9674 99.3898 46.2409C99.3898 46.4112 99.3039 46.5388 99.1752 46.6179L99.4084 46.952V47.019H99.0709L98.8441 46.6966H98.5805V47.019H98.2553V45.7912ZM98.8441 46.0891H98.5805V46.4112H98.8441C98.9668 46.4112 99.0465 46.3565 99.0465 46.2532C99.0465 46.1438 98.9729 46.0891 98.8441 46.0891ZM9.07617 53.7069C9.79238 53.7577 10.3613 54.3399 10.3855 55.0572L10.3863 55.1051V60.6106C10.3863 61.3865 9.75117 62.0152 8.97129 62.0152C8.20351 62.0152 7.58008 61.4119 7.55508 60.6578L7.55429 60.6106V57.531L4.85898 59.0721C4.183 59.4619 3.31855 59.2312 2.92617 58.5611C2.54375 57.9035 2.75703 57.0647 3.40078 56.6654L3.44355 56.64L8.25449 53.8902C8.5033 53.7466 8.78993 53.6826 9.07617 53.7069ZM14.7678 53.8597L14.8234 53.8902L19.6334 56.6402C19.7941 56.7318 19.935 56.8543 20.0481 57.0006C20.1612 57.147 20.2442 57.3142 20.2924 57.4928C20.3406 57.6714 20.3529 57.8578 20.3288 58.0411C20.3046 58.2245 20.2444 58.4013 20.1516 58.5613C19.7693 59.2171 18.9322 59.4521 18.2625 59.0964L18.2189 59.0723L15.5254 57.531V60.6108C15.5254 61.3867 14.8922 62.0154 14.1084 62.0154C13.3408 62.0154 12.7189 61.4121 12.6939 60.658L12.6932 60.6108V55.1051C12.6932 54.3661 13.2693 53.7591 14.0031 53.7069C14.2673 53.6843 14.5326 53.7373 14.7678 53.8597ZM2.27461 46.722L2.31816 46.7459L7.12558 49.4974C7.44811 49.6799 7.68505 49.9829 7.78437 50.34C7.81601 50.4506 7.83047 50.5607 7.83593 50.6713C7.84013 50.8262 7.81835 50.9807 7.77148 51.1284C7.67246 51.4477 7.4621 51.7208 7.17871 51.8979L7.12558 51.9298L2.31816 54.6831C1.63945 55.0703 0.774411 54.8412 0.384763 54.1713C0.200565 53.8562 0.147095 53.4816 0.235814 53.1276C0.324533 52.7736 0.548381 52.4684 0.859372 52.2775L0.902341 52.2521L3.58867 50.7162L0.902146 49.1763C0.22363 48.7881 -0.00840124 47.9313 0.384763 47.2606C0.766013 46.6033 1.60293 46.3686 2.27461 46.722ZM22.6947 47.2606C23.0871 47.9315 22.8551 48.7881 22.1766 49.1763L19.4902 50.7162L22.1768 52.2521C22.8553 52.6409 23.0873 53.4977 22.6949 54.1713C22.3035 54.8412 21.4375 55.0703 20.7613 54.6831L15.9504 51.9298C15.6297 51.7446 15.4068 51.4545 15.308 51.1284C15.2611 50.9808 15.2396 50.8262 15.2445 50.6713C15.2471 50.561 15.2638 50.4506 15.2945 50.34C15.3943 49.984 15.6298 49.6815 15.9504 49.4974L20.7615 46.7459C21.4375 46.3587 22.3035 46.589 22.6951 47.2606M11.8328 48.0903C11.9145 48.0903 12.0266 48.1362 12.0838 48.1944L14.083 50.1739C14.14 50.2304 14.1863 50.3427 14.1863 50.4236V51.0073C14.1863 51.0864 14.14 51.1986 14.083 51.2543L12.0834 53.2338C12.0262 53.292 11.9158 53.3397 11.8324 53.3397H11.2445C11.1637 53.3397 11.0514 53.292 10.9934 53.2338L8.99472 51.2543C8.93769 51.1986 8.89121 51.0862 8.89121 51.0073V50.4236C8.89121 50.3427 8.93769 50.2304 8.99472 50.1739L10.9934 48.1944C11.0514 48.1362 11.1637 48.0903 11.2445 48.0903H11.8328ZM11.55 49.7797H11.5275C11.4469 49.7797 11.3346 49.8266 11.2783 49.8829L10.6994 50.4541C10.6414 50.5133 10.5969 50.6248 10.5969 50.7047V50.7272C10.5969 50.8061 10.6414 50.9167 10.6994 50.9741L11.2783 51.5471C11.3353 51.6037 11.4469 51.6502 11.5275 51.6502H11.55C11.6309 51.6502 11.7434 51.6035 11.8002 51.5471L12.3793 50.9741C12.4363 50.9167 12.4852 50.8061 12.4852 50.7272V50.7047C12.4852 50.6246 12.4363 50.5133 12.3793 50.4541L11.8002 49.8829C11.7432 49.8264 11.6309 49.7797 11.55 49.7797ZM14.1084 39.4158C14.876 39.4158 15.4994 40.0192 15.5246 40.7711L15.5254 40.8184V43.899L18.2189 42.3561C18.8959 41.9681 19.7611 42.1982 20.1516 42.8689C20.3349 43.1842 20.3877 43.5588 20.2989 43.9126C20.2101 44.2664 19.9865 44.5715 19.676 44.7628L19.6334 44.7882L14.8232 47.5408C14.5746 47.6831 14.2887 47.7469 14.0031 47.7238C13.2853 47.6713 12.7182 47.0883 12.6939 46.3718L12.6932 46.3237V40.8184C12.6932 40.0446 13.3248 39.4158 14.1084 39.4158ZM8.97129 39.4158C9.73515 39.4158 10.3603 40.0192 10.3855 40.7711L10.3863 40.8184V46.3235C10.3863 47.0619 9.8082 47.6699 9.07636 47.7236C8.81177 47.7449 8.54647 47.692 8.31035 47.5706L8.25449 47.5404L3.44355 44.788C3.2829 44.6966 3.14195 44.5743 3.02886 44.4281C2.91576 44.2819 2.83276 44.1147 2.78464 43.9363C2.73653 43.7578 2.72427 43.5715 2.74856 43.3883C2.77285 43.205 2.83322 43.0284 2.92617 42.8687C3.31015 42.2123 4.14648 41.9778 4.81543 42.3318L4.85879 42.3559L7.5541 43.8988V40.8182C7.55429 40.0448 8.1873 39.4158 8.97129 39.4158Z" fill="#E4E4E4"/>
</g>
<defs>
<clipPath id="clip0_2358_6227">
<rect width="100" height="100" fill="white" transform="translate(0.193359 0.715576)"/>
</clipPath>
</defs>
</svg>
