<svg width="101" height="101" viewBox="0 0 101 101" fill="none" xmlns="http://www.w3.org/2000/svg">
<path d="M80.3939 57.7296C79.9465 57.1925 79.3197 56.8357 78.6296 56.7253C77.9394 56.6148 77.2325 56.7582 76.6399 57.1289L50.3623 76.4242V77.2501C50.7414 77.2052 51.1258 77.2411 51.49 77.3555C51.8543 77.4698 52.1901 77.6601 52.4755 77.9137C52.7609 78.1673 52.9894 78.4784 53.1458 78.8267C53.3022 79.1749 53.3831 79.5524 53.3831 79.9342C53.3831 80.316 53.3022 80.6934 53.1458 81.0417C52.9894 81.3899 52.7609 81.7011 52.4755 81.9547C52.1901 82.2083 51.8543 82.3985 51.49 82.5129C51.1258 82.6272 50.7414 82.6632 50.3623 82.6182C50.9719 82.621 51.5655 82.4231 52.0516 82.0552L79.8683 61.5211C80.4103 61.0666 80.7642 60.4271 80.8613 59.7265C80.9584 59.0259 80.7918 58.3143 80.3939 57.7296Z" fill="#E4E4E4"/>
<path d="M50.3624 82.6182C49.7052 82.5403 49.0995 82.2241 48.6599 81.7294C48.2203 81.2347 47.9776 80.5959 47.9776 79.9341C47.9776 79.2724 48.2203 78.6336 48.6599 78.1389C49.0995 77.6442 49.7052 77.3279 50.3624 77.2501V76.4242L24.0848 57.1289C23.4946 56.7502 22.7856 56.6021 22.0932 56.7128C21.4008 56.8236 20.7734 57.1856 20.3308 57.7295C19.935 58.3144 19.7768 59.028 19.8884 59.7253C20 60.4226 20.3729 61.0513 20.9315 61.4835L48.7482 82.0176C49.2227 82.3802 49.8027 82.578 50.4 82.5807L50.3624 82.6182Z" fill="#E4E4E4"/>
<path d="M50.363 74.4346C49.2716 74.4346 48.2047 74.7582 47.2972 75.3646C46.3897 75.9709 45.6825 76.8328 45.2648 77.8411C44.8471 78.8495 44.7378 79.959 44.9508 81.0294C45.1637 82.0999 45.6893 83.0832 46.461 83.8549C47.2328 84.6267 48.216 85.1522 49.2865 85.3651C50.3569 85.5781 51.4665 85.4688 52.4748 85.0511C53.4831 84.6335 54.345 83.9262 54.9513 83.0187C55.5577 82.1112 55.8813 81.0443 55.8813 79.9529C55.8813 78.4893 55.2999 77.0857 54.2651 76.0508C53.2302 75.016 51.8266 74.4346 50.363 74.4346ZM50.363 82.6182C49.8269 82.6181 49.3028 82.4586 48.8576 82.1599C48.4123 81.8612 48.066 81.4369 47.8625 80.9408C47.6591 80.4447 47.6078 79.8994 47.7152 79.3741C47.8226 78.8488 48.0837 78.3673 48.4655 77.9908C48.8473 77.6144 49.3324 77.3599 49.8591 77.2599C50.3859 77.1599 50.9305 77.2188 51.4236 77.4292C51.9168 77.6395 52.3363 77.9918 52.6287 78.4412C52.9212 78.8906 53.0733 79.4168 53.0659 79.9529C53.0659 80.3061 52.9957 80.6558 52.8595 80.9816C52.7232 81.3074 52.5235 81.6029 52.272 81.8509C52.0205 82.0989 51.7222 82.2945 51.3945 82.4262C51.0668 82.5579 50.7162 82.6232 50.363 82.6182Z" fill="#E4E4E4"/>
<path d="M27.8391 28.5238C27.0954 28.5141 26.3849 28.2143 25.859 27.6884C25.3331 27.1625 25.0334 26.452 25.0237 25.7083V18.6509C24.9776 18.2513 25.0165 17.8465 25.1379 17.463C25.2594 17.0796 25.4605 16.7261 25.7281 16.4258C25.9958 16.1256 26.3239 15.8853 26.6909 15.7208C27.058 15.5562 27.4557 15.4712 27.8579 15.4712C28.2601 15.4712 28.6578 15.5562 29.0249 15.7208C29.3919 15.8853 29.72 16.1256 29.9876 16.4258C30.2553 16.7261 30.4564 17.0796 30.5778 17.463C30.6992 17.8465 30.7382 18.2513 30.6921 18.6509V25.7083C30.6822 26.4585 30.3773 27.1745 29.8433 27.7015C29.3094 28.2284 28.5893 28.5239 27.8391 28.5238Z" fill="#E4E4E4"/>
<path d="M27.7641 53.4877C29.3398 53.4877 30.6171 52.2104 30.6171 50.6347C30.6171 49.0591 29.3398 47.7817 27.7641 47.7817C26.1885 47.7817 24.9111 49.0591 24.9111 50.6347C24.9111 52.2104 26.1885 53.4877 27.7641 53.4877Z" fill="#E4E4E4"/>
<path d="M27.7641 45.1914C29.3398 45.1914 30.6171 43.914 30.6171 42.3384C30.6171 40.7627 29.3398 39.4854 27.7641 39.4854C26.1885 39.4854 24.9111 40.7627 24.9111 42.3384C24.9111 43.914 26.1885 45.1914 27.7641 45.1914Z" fill="#E4E4E4"/>
<path d="M27.7641 36.8576C29.3398 36.8576 30.6171 35.5803 30.6171 34.0046C30.6171 32.4289 29.3398 31.1516 27.7641 31.1516C26.1885 31.1516 24.9111 32.4289 24.9111 34.0046C24.9111 35.5803 26.1885 36.8576 27.7641 36.8576Z" fill="#E4E4E4"/>
<path d="M72.8868 36.7825C72.1366 36.7727 71.4205 36.4677 70.8936 35.9337C70.3666 35.3998 70.0712 34.6797 70.0713 33.9295V26.8721C70.0713 26.1254 70.3679 25.4093 70.8959 24.8813C71.4239 24.3533 72.14 24.0566 72.8868 24.0566C73.6335 24.0566 74.3496 24.3533 74.8776 24.8813C75.4056 25.4093 75.7022 26.1254 75.7022 26.8721V33.9295C75.7072 34.3024 75.638 34.6726 75.4988 35.0185C75.3595 35.3644 75.1529 35.6792 74.891 35.9447C74.629 36.2101 74.317 36.4208 73.9729 36.5647C73.6289 36.7085 73.2597 36.7826 72.8868 36.7825Z" fill="#E4E4E4"/>
<path d="M72.9614 53.5251C74.5371 53.5251 75.8144 52.2478 75.8144 50.6721C75.8144 49.0964 74.5371 47.8191 72.9614 47.8191C71.3857 47.8191 70.1084 49.0964 70.1084 50.6721C70.1084 52.2478 71.3857 53.5251 72.9614 53.5251Z" fill="#E4E4E4"/>
<path d="M72.9614 45.0788C74.5371 45.0788 75.8144 43.8015 75.8144 42.2258C75.8144 40.6501 74.5371 39.3728 72.9614 39.3728C71.3857 39.3728 70.1084 40.6501 70.1084 42.2258C70.1084 43.8015 71.3857 45.0788 72.9614 45.0788Z" fill="#E4E4E4"/>
<path d="M72.9614 21.5039C74.5371 21.5039 75.8144 20.2265 75.8144 18.6509C75.8144 17.0752 74.5371 15.7979 72.9614 15.7979C71.3857 15.7979 70.1084 17.0752 70.1084 18.6509C70.1084 20.2265 71.3857 21.5039 72.9614 21.5039Z" fill="#E4E4E4"/>
<path d="M50.3623 61.8963C49.6187 61.8866 48.9082 61.5868 48.3823 61.0609C47.8563 60.535 47.5566 59.8245 47.5469 59.0808V51.9108C47.627 51.2153 47.9601 50.5736 48.4828 50.1078C49.0054 49.6419 49.681 49.3845 50.3811 49.3845C51.0812 49.3845 51.7568 49.6419 52.2795 50.1078C52.8021 50.5736 53.1352 51.2153 53.2153 51.9108V59.0058C53.2203 59.3836 53.1502 59.7586 53.009 60.1091C52.8679 60.4596 52.6585 60.7785 52.3931 61.0475C52.1277 61.3164 51.8115 61.5299 51.4629 61.6756C51.1143 61.8213 50.7402 61.8963 50.3623 61.8963Z" fill="#E4E4E4"/>
<path d="M50.3628 70.1928C51.9384 70.1928 53.2158 68.9155 53.2158 67.3398C53.2158 65.7642 51.9384 64.4868 50.3628 64.4868C48.7871 64.4868 47.5098 65.7642 47.5098 67.3398C47.5098 68.9155 48.7871 70.1928 50.3628 70.1928Z" fill="#E4E4E4"/>
<path d="M50.3628 46.5053C51.9384 46.5053 53.2158 45.228 53.2158 43.6523C53.2158 42.0766 51.9384 40.7993 50.3628 40.7993C48.7871 40.7993 47.5098 42.0766 47.5098 43.6523C47.5098 45.228 48.7871 46.5053 50.3628 46.5053Z" fill="#E4E4E4"/>
<path d="M50.3628 38.1716C51.9384 38.1716 53.2158 36.8942 53.2158 35.3186C53.2158 33.7429 51.9384 32.4656 50.3628 32.4656C48.7871 32.4656 47.5098 33.7429 47.5098 35.3186C47.5098 36.8942 48.7871 38.1716 50.3628 38.1716Z" fill="#E4E4E4"/>
<path d="M61.6243 45.1539C60.8806 45.1442 60.1701 44.8445 59.6442 44.3185C59.1183 43.7926 58.8185 43.0821 58.8088 42.3385V35.281C58.7627 34.8815 58.8017 34.4766 58.9231 34.0932C59.0445 33.7097 59.2456 33.3562 59.5133 33.056C59.7809 32.7557 60.109 32.5154 60.4761 32.3509C60.8431 32.1864 61.2408 32.1013 61.643 32.1013C62.0453 32.1013 62.443 32.1864 62.81 32.3509C63.1771 32.5154 63.5052 32.7557 63.7728 33.056C64.0404 33.3562 64.2416 33.7097 64.363 34.0932C64.4844 34.4766 64.5233 34.8815 64.4773 35.281V42.3385C64.4674 43.0886 64.1625 43.8047 63.6285 44.3316C63.0945 44.8586 62.3745 45.154 61.6243 45.1539Z" fill="#E4E4E4"/>
<path d="M61.6616 29.8002C63.2373 29.8002 64.5146 28.5229 64.5146 26.9472C64.5146 25.3716 63.2373 24.0942 61.6616 24.0942C60.0859 24.0942 58.8086 25.3716 58.8086 26.9472C58.8086 28.5229 60.0859 29.8002 61.6616 29.8002Z" fill="#E4E4E4"/>
<path d="M61.6616 61.7087C63.2373 61.7087 64.5146 60.4314 64.5146 58.8557C64.5146 57.28 63.2373 56.0027 61.6616 56.0027C60.0859 56.0027 58.8086 57.28 58.8086 58.8557C58.8086 60.4314 60.0859 61.7087 61.6616 61.7087Z" fill="#E4E4E4"/>
<path d="M61.6616 53.3749C63.2373 53.3749 64.5146 52.0976 64.5146 50.5219C64.5146 48.9463 63.2373 47.6689 61.6616 47.6689C60.0859 47.6689 58.8086 48.9463 58.8086 50.5219C58.8086 52.0976 60.0859 53.3749 61.6616 53.3749Z" fill="#E4E4E4"/>
<path d="M39.063 61.7087C40.6386 61.7087 41.916 60.4314 41.916 58.8557C41.916 57.28 40.6386 56.0027 39.063 56.0027C37.4873 56.0027 36.21 57.28 36.21 58.8557C36.21 60.4314 37.4873 61.7087 39.063 61.7087Z" fill="#E4E4E4"/>
<path d="M39.063 38.1716C40.6386 38.1716 41.916 36.8942 41.916 35.3186C41.916 33.7429 40.6386 32.4656 39.063 32.4656C37.4873 32.4656 36.21 33.7429 36.21 35.3186C36.21 36.8942 37.4873 38.1716 39.063 38.1716Z" fill="#E4E4E4"/>
<path d="M39.063 29.8002C40.6386 29.8002 41.916 28.5229 41.916 26.9472C41.916 25.3716 40.6386 24.0942 39.063 24.0942C37.4873 24.0942 36.21 25.3716 36.21 26.9472C36.21 28.5229 37.4873 29.8002 39.063 29.8002Z" fill="#E4E4E4"/>
<path d="M39.1001 53.3749C38.3625 53.3754 37.6534 53.0904 37.1215 52.5794C36.5896 52.0685 36.2762 51.3715 36.2471 50.6345V43.502C36.2471 42.7553 36.5437 42.0392 37.0717 41.5112C37.5997 40.9831 38.3158 40.6865 39.0625 40.6865C39.8092 40.6865 40.5254 40.9831 41.0534 41.5112C41.5814 42.0392 41.878 42.7553 41.878 43.502V50.6345C41.8587 51.3617 41.5586 52.0531 41.0408 52.564C40.5229 53.0748 39.8274 53.3654 39.1001 53.3749Z" fill="#E4E4E4"/>
</svg>
