<svg width="1847" height="191" viewBox="0 0 1847 191" fill="none" xmlns="http://www.w3.org/2000/svg">
<path fill-rule="evenodd" clip-rule="evenodd" d="M1.24894 1.2C-0.263065 2.712 -0.480065 185.615 1.02793 188C1.85793 189.313 13.7839 189.533 96.7049 189.765C156.1 189.931 193.43 189.661 196.786 189.041C204.287 187.654 208.258 185.54 214.465 179.629C225.767 168.865 226.293 165.792 225.861 113L225.522 71.5L222.832 65.732C218.976 57.46 211.137 50.022 203.049 46.961L196.549 44.5L116.799 44.227L37.0489 43.954V23.911C37.0489 12.008 36.6289 3.083 36.0139 1.934C35.0549 0.143998 33.7709 0 18.7139 0C7.39694 0 2.08394 0.364997 1.24894 1.2ZM652.044 2.009C651.297 3.406 651.058 27.988 651.259 82.759L651.549 161.5L654.188 167.449C657.799 175.59 664.473 182.875 671.652 186.512L677.549 189.5L736.312 189.781L795.075 190.061L796.133 187.281C797.695 183.174 796.926 157.754 795.177 155.65C793.936 154.159 789.209 154 746.074 154H698.345L695.048 151.75C688.215 147.085 688.049 146.127 688.049 111.266V80H740.467C769.297 80 793.597 79.727 794.467 79.393C795.82 78.874 796.049 76.422 796.049 62.428C796.049 47.279 795.906 45.994 794.115 45.035C792.852 44.36 774.093 44 740.115 44H688.049V23.2C688.049 8.356 687.705 2.056 686.849 1.2C686.014 0.364997 680.701 0 669.384 0C654.119 0 653.053 0.123003 652.044 2.009ZM1639.66 1.559C1639.33 2.441 1639.05 12.337 1639.05 23.548V43.933L1558.3 44.216L1477.55 44.5L1471.05 47.637C1463.89 51.091 1457.94 56.802 1453.46 64.5L1450.55 69.5V117V164.5L1452.94 169C1456.53 175.739 1459.77 179.628 1465.04 183.491C1474.2 190.218 1470.96 190.038 1578.09 189.755L1674.55 189.5V95V0.5L1657.41 0.226997C1642.45 -0.0120026 1640.2 0.156998 1639.66 1.559ZM1702.25 1.2C1701.34 2.113 1701.05 20.976 1701.05 79.99C1701.05 164.416 1701.04 164.22 1706.68 173.25C1710.01 178.576 1714.97 183.079 1721.49 186.695L1726.55 189.5L1784.9 189.788C1828.09 190.002 1843.61 189.775 1844.65 188.916C1845.74 188.015 1846.05 184.353 1846.05 172.533C1846.05 159.055 1845.84 157.12 1844.22 155.655C1842.57 154.164 1837.67 154 1794.68 154H1746.97L1742.76 150.073L1738.55 146.146L1738.26 113.073L1737.97 80H1790.97C1842.35 80 1844.01 79.941 1845.01 78.066C1845.59 76.987 1846.05 69.712 1846.05 61.622C1846.05 47.763 1845.95 47.044 1843.83 45.557C1841.88 44.196 1835.07 44 1789.83 44H1738.05V23.934C1738.05 12.015 1737.63 3.083 1737.01 1.934C1736.05 0.143998 1734.77 0 1719.71 0C1708.4 0 1703.08 0.364997 1702.25 1.2ZM279.052 44.726C274.667 45.565 264.653 50.613 261.439 53.605C256.328 58.363 252.214 65.131 250.584 71.46C249.333 76.316 249.049 84.58 249.049 116.074C249.049 156.153 249.52 162.187 253.258 169.965C256.042 175.758 264.389 183.963 270.668 187.078L275.549 189.5L371.472 189.779C448.521 190.003 467.555 189.806 468.207 188.779C469.555 186.654 469.235 156.586 467.849 155.2C466.934 154.285 446.371 154 381.396 154C321.73 154 295.454 153.672 293.846 152.906C289.227 150.705 286.652 146.123 286.219 139.334L285.816 133H377.433H469.049V105.21C469.049 74.811 468.3 69.074 463.343 61.5C459.13 55.062 452.726 49.551 446.421 46.936L440.549 44.5L361.049 44.375C317.324 44.306 280.426 44.464 279.052 44.726ZM525.049 44.711C511.578 47.076 501.561 54.408 496.212 65.819L493.549 71.5L493.253 129.343C493.033 172.362 493.257 187.546 494.126 188.593C495.681 190.467 525.996 190.653 527.849 188.8C528.749 187.9 529.049 175.587 529.051 139.55C529.052 85.37 528.893 86.585 536.549 82.282C540.54 80.038 540.659 80.033 588.217 80.016C614.435 80.007 636.597 79.727 637.467 79.393C638.819 78.874 639.049 76.436 639.049 62.593C639.049 51.332 638.684 46.035 637.849 45.2C636.942 44.293 623.348 44.033 582.099 44.136C552.096 44.211 526.424 44.47 525.049 44.711ZM847.049 44.695C831.858 47.46 821.188 56.452 816.954 70.058C815.177 75.768 815.049 79.916 815.049 131.889C815.049 173.886 815.344 187.895 816.249 188.8C817.08 189.631 822.249 190 833.049 190C843.849 190 849.018 189.631 849.849 188.8C850.749 187.9 851.049 175.636 851.049 139.76C851.049 93.787 851.128 91.766 853.062 87.974C854.358 85.433 856.482 83.309 859.023 82.013C862.816 80.078 864.836 80 911.034 80H959.099L960.143 77.252C961.354 74.068 960.986 46.597 959.716 45.33C958.863 44.479 851.559 43.874 847.049 44.695ZM978.049 44.707C977.224 45.033 976.218 45.795 975.814 46.4C974.521 48.336 974.912 77.463 976.249 78.8C977.161 79.712 995.717 80 1053.65 80C1128.75 80 1129.92 80.03 1133.73 82.066C1138.72 84.729 1142.16 89.813 1142.8 95.46L1143.3 99.941L1064.93 100.221C1007.61 100.425 986.012 100.813 984.549 101.663C983.449 102.303 980.074 103.979 977.049 105.389C962.911 111.977 953.049 128.122 953.049 144.68C953.049 165.764 968.649 185.159 988.669 188.966C992.81 189.754 1021.76 189.998 1086.55 189.792L1178.55 189.5V130.5V71.5L1175.95 65.966C1172.16 57.905 1163.75 49.913 1155.91 46.923L1149.55 44.5L1064.55 44.307C1017.8 44.201 978.874 44.381 978.049 44.707ZM1203.65 45.538C1202.21 46.981 1202.05 54.248 1202.05 117.371C1202.05 170.66 1202.34 187.889 1203.25 188.8C1204.62 190.172 1235.69 190.515 1237.79 189.181C1238.75 188.573 1239.09 176.079 1239.29 134.446L1239.55 80.5L1308.05 80.263L1376.55 80.025L1380.45 82.263C1382.6 83.493 1385.3 85.77 1386.45 87.322C1388.5 90.082 1388.56 91.217 1388.84 138.774C1389.04 171.626 1389.49 187.826 1390.22 188.702C1391.02 189.666 1395.36 190 1407.09 190C1415.78 190 1423.6 189.727 1424.47 189.393C1425.88 188.849 1426.05 182.806 1426.05 131.404V74.021L1423.43 67.492C1419.91 58.692 1413.61 51.869 1405.22 47.762L1398.55 44.5L1301.9 44.217C1214.3 43.96 1205.11 44.084 1203.65 45.538ZM37.5049 81.255C37.2399 81.946 37.1409 98.483 37.2859 118.005L37.5489 153.5L108.641 153.757L179.734 154.013L183.04 151.757C189.67 147.231 190.052 145.388 190.027 118.016C190.002 89.747 189.426 87.157 182.145 82.561L178.089 80H108.037C52.7629 80 37.8849 80.265 37.5049 81.255ZM295.698 81.823C291.314 84.402 287.154 90.872 286.423 96.25L285.777 101H359.413H433.049V97.968C433.049 94.13 430.605 88.225 427.751 85.169C422.784 79.849 424.74 79.994 359.349 80.073C304.336 80.139 298.278 80.306 295.698 81.823ZM1494.33 81.795C1492.57 82.741 1489.98 85.061 1488.58 86.951L1486.05 90.389V117.566V144.743L1489.93 149.121L1493.82 153.5L1566.45 153.769L1639.07 154.038L1638.81 117.269L1638.55 80.5L1568.05 80.288C1503.06 80.093 1497.3 80.211 1494.33 81.795ZM990.824 133.559C987.276 135.484 986.049 137.92 986.049 143.034C986.049 146.438 986.671 147.822 989.449 150.6L992.849 154H1067.95H1143.05V143V132L1068.3 132.04C1004.28 132.074 993.158 132.292 990.824 133.559Z" fill="black"/>
</svg>
