<svg width="77" height="30" viewBox="0 0 77 30" fill="none" xmlns="http://www.w3.org/2000/svg">
<path d="M53.4409 18.0409C53.4409 18.1303 53.5304 18.1303 53.6199 18.2197C53.6199 18.2197 53.7093 18.2197 53.6199 18.3092C53.3515 18.8458 53.1725 19.1142 52.9041 19.5614C52.6357 20.0086 52.3673 20.277 51.92 20.5453C51.3832 20.9925 50.578 21.5292 49.9517 21.1714C49.6833 20.9925 49.5043 20.6347 49.5938 20.2769C49.5938 19.3825 50.0412 18.3986 50.7569 17.5042C51.6516 16.3414 52.6357 15.8048 53.3515 16.1625C54.0672 16.5203 53.7988 17.2359 53.5304 17.862C53.3515 17.9514 53.3515 17.9514 53.4409 18.0409ZM60.6879 10.9748C60.7773 10.8853 60.6879 10.7959 60.5984 10.7959C60.0616 10.7959 59.2564 10.7959 58.7196 10.7959C58.5406 10.7959 58.5406 10.7959 58.4512 10.9748C58.2722 11.422 55.5882 15.3575 55.0514 16.1625C54.9619 16.252 54.8724 16.252 54.8724 16.1625C54.783 15.7153 54.4251 15.1786 53.7988 14.9103C53.3515 14.7314 52.8147 14.642 52.3673 14.7314C51.4726 14.8209 50.6674 15.2681 50.0412 15.8048C48.9675 16.6097 48.0729 17.5936 46.9992 18.3986C46.373 18.8459 45.4783 19.2036 44.9415 18.667C44.4047 18.2197 44.4941 17.1464 45.2993 16.252C45.3888 16.1625 45.4783 16.252 45.4783 16.3414C45.3888 16.6992 45.4783 17.057 45.7467 17.3253C46.1046 17.5936 46.5519 17.6831 46.9992 17.5042C47.536 17.2359 47.8044 16.7886 47.8939 16.252C47.9834 15.447 47.3571 14.642 46.5519 14.5525C45.9256 14.4631 45.2099 14.7314 44.6731 15.2681C44.4047 15.5364 44.2257 15.7153 43.9573 16.0731C43.8679 16.1625 43.7784 16.1625 43.7784 16.0731C43.7784 14.9998 43.3311 14.3737 42.4364 14.3737C41.7206 14.3737 41.0049 14.7314 40.3786 15.1786C39.7523 15.7153 39.2155 16.3414 38.5892 16.9675C38.4998 17.057 38.4103 17.057 38.4103 16.8781C38.4103 16.1625 38.2314 15.447 37.8735 14.9998C37.784 14.8209 37.5156 14.7314 37.3367 14.8209C37.2472 14.9103 36.8893 14.9998 36.6209 15.2681C36.5315 15.3575 36.442 15.5364 36.5315 15.7153C36.8893 16.7886 36.7999 18.0409 36.3525 19.0247C35.9947 20.0086 35.1895 20.8136 34.2948 21.082C33.6685 21.2608 33.0422 21.1714 32.6843 20.6347C32.1475 19.9192 32.3265 18.5775 33.1317 17.5042C33.8474 16.6098 34.8316 15.9836 35.8157 15.6259C35.9052 15.5364 35.9947 15.5364 35.9052 15.447C35.8157 15.2681 35.7263 15.0892 35.7263 14.9103C35.6368 14.642 35.3684 14.642 35.1 14.642C34.3842 14.7314 33.6685 14.9998 33.0422 15.3575C31.3423 16.252 30.4476 18.0409 30.0898 19.0247C29.9108 19.472 29.7319 19.7403 29.553 20.0086C29.2846 20.3664 28.9267 20.6347 28.3004 21.1714C28.2109 21.2608 28.2109 21.3503 28.2109 21.4397C28.3004 21.5292 28.5688 22.0658 28.6583 22.0658C28.7477 22.1553 28.8372 22.0658 28.9267 21.9764C29.374 21.7081 29.9108 21.1714 30.1792 20.9031C30.2687 20.8136 30.3582 20.8136 30.4476 20.9925C30.716 21.7975 31.3423 22.5131 32.1475 22.7814C33.758 23.318 35.3684 22.513 36.6209 21.1714C37.4262 20.3664 37.6946 19.7403 37.963 19.3825C38.4998 18.7564 39.4839 17.3253 40.647 16.4309C41.0943 16.0731 41.6312 15.8048 41.8996 15.9837C42.0785 16.1625 42.168 16.4309 41.8101 17.057C40.5575 19.2931 38.7682 21.8869 38.4998 22.513C38.4103 22.6025 38.4998 22.6919 38.5892 22.6919C39.2155 22.6919 39.8418 22.6919 40.4681 22.6919C40.5575 22.6919 40.647 22.6025 40.647 22.6025C41.5417 21.1714 42.4364 19.7403 43.4205 18.3092C43.51 18.2197 43.51 18.3092 43.51 18.3092C43.51 18.667 43.5995 19.1142 43.7784 19.3825C44.1363 19.9192 44.6731 20.1875 45.2099 20.1875C45.6572 20.1875 45.9256 20.0981 46.373 19.9192C46.7308 19.7403 47.0887 19.5614 47.3571 19.3825C47.5361 19.2931 47.536 19.472 47.536 19.472C47.3571 20.6347 47.6255 21.9764 48.6991 22.6025C50.0412 23.318 51.5621 22.3342 52.4568 21.4397C52.5463 21.3503 52.6357 21.3503 52.6357 21.5292C52.6357 21.8869 52.8147 22.2447 53.0831 22.513C53.7988 23.2286 55.3198 22.9603 56.7513 21.7975C57.7354 21.082 58.7196 20.0086 59.6142 18.9353C59.6142 18.9353 59.7037 18.8458 59.6142 18.7564C59.4353 18.5775 59.2564 18.4881 59.1669 18.3092C59.0774 18.2197 58.988 18.3092 58.988 18.3092C58.0933 19.2036 57.1986 20.1875 56.0355 20.9925C55.5882 21.2608 54.9619 21.5292 54.6935 21.082C54.604 20.9031 54.604 20.7242 54.6935 20.4558C54.8724 19.9192 60.4194 11.422 60.6879 10.9748Z" fill="black"/>
<path d="M34.6557 11.959C34.6557 12.0484 34.7452 12.1379 34.7452 12.1379C35.0136 12.0484 35.3715 11.8695 35.5504 11.6012C35.7293 11.3329 35.8188 10.9751 35.6399 10.8857C35.4609 10.7962 35.282 10.7962 35.1031 10.9751C34.7452 11.2434 34.6557 11.6907 34.6557 11.959ZM20.5198 22.8711C18.462 22.8711 16.6726 21.6189 16.4042 19.3828C16.3148 18.1306 16.6726 17.0573 17.2989 16.1629C17.9252 15.3579 18.9093 14.7317 19.804 14.5529C20.0724 14.4634 20.5198 14.5529 20.6092 14.7317C20.8776 15.0001 20.7882 15.3579 20.5198 15.4473C19.804 15.8051 18.9988 16.3417 18.6409 17.1467C18.2831 17.7728 18.2831 18.5778 18.7304 19.3828C19.5356 20.635 21.8618 20.6351 24.009 18.6673C24.5458 18.2201 24.9932 17.6834 25.53 17.1467C26.5141 16.0734 26.7825 15.6262 28.0351 13.9268V13.8373C28.0351 13.8373 28.0351 13.8373 27.9456 13.8373C27.1404 13.8373 26.3352 14.1056 25.6194 14.6423C25.4405 14.8212 25.0826 14.7317 24.9932 14.5529C24.8142 14.374 24.9932 14.0162 25.1721 13.8373C26.3352 13.0323 27.5878 12.8534 28.8403 12.6745C28.8403 12.6745 28.9298 12.6745 29.0192 12.5851C29.556 11.8695 29.9139 11.3329 30.5402 10.6173C31.077 9.90178 31.7927 9.27567 32.419 8.82845C33.2242 8.20234 33.6716 7.93401 34.2084 7.66568C34.2979 7.57623 34.2084 7.48679 34.1189 7.48679C31.2559 6.95013 28.393 6.23457 25.53 7.30789C23.5617 8.02344 22.7565 9.544 23.1143 10.6173C23.3827 11.3329 24.3669 11.4223 25.2616 11.0645C25.9773 10.7068 26.6931 10.0807 27.2299 9.36511C27.4983 8.91789 28.1245 9.27566 27.7667 9.99121C26.9615 11.959 25.351 13.4795 23.4722 13.4795C21.8618 13.569 20.7882 12.3168 20.7882 10.8857C20.7882 7.934 24.009 6.05568 27.4088 5.78735C31.5243 5.42957 35.3715 6.50291 39.487 7.03957C42.6184 7.39735 45.5708 7.39734 48.7022 6.68179C49.0601 6.59234 49.3285 6.86068 49.3285 7.21846C49.3285 7.75512 48.8812 8.29179 47.8075 8.82845C46.6445 9.45456 45.3919 9.63344 44.1393 9.63344C41.008 9.63344 38.145 8.47067 35.1925 7.84456C35.1925 7.93401 35.1925 8.11289 35.1031 8.20233C33.4032 9.45455 31.9717 10.7068 30.9875 12.4062V12.4956C31.8822 12.4062 32.598 12.4062 33.4926 12.4062C33.6716 12.4062 33.6716 12.3168 33.6716 12.2273C33.5821 11.6012 33.761 10.9751 34.2978 10.4384C34.8347 9.99121 35.5504 9.90177 35.9978 10.2595C36.5346 10.6173 36.4451 11.3329 36.1767 11.8695C35.9083 12.4062 35.4609 12.6745 35.0136 12.8534C35.0136 12.8534 34.9241 12.8534 34.9241 12.9429C34.9241 13.1218 35.5504 13.3901 35.6399 13.4795C35.7293 13.569 35.6399 13.6584 35.5504 13.8373C35.4609 13.9267 35.3715 14.0162 35.282 14.0162C35.1925 14.0162 35.1031 14.0162 35.0136 13.9268C34.7452 13.7479 34.3873 13.569 34.2084 13.2112C34.1189 13.1218 34.1189 13.1217 33.8505 13.1217C32.9558 13.2112 31.6138 13.3006 30.6297 13.3901C30.3613 13.3901 30.3613 13.4795 30.3613 13.569C28.8403 15.984 27.3193 18.6673 25.53 20.3667C23.7406 22.3345 22.2197 22.7817 20.5198 22.8711Z" fill="black"/>
<path d="M38.5002 3.19305C19.1751 3.19305 3.51819 8.55969 3.51819 15.0891C3.51819 21.6185 19.1751 26.9851 38.5002 26.9851C57.8253 26.9851 73.4822 21.6185 73.4822 15.0891C73.4822 8.47024 57.8253 3.19305 38.5002 3.19305ZM38.5002 27.969C18.4593 27.969 2.26562 22.1552 2.26562 14.9996C2.26562 7.84413 18.4593 2.03027 38.5002 2.03027C58.541 2.03027 74.7348 7.84413 74.7348 14.9996C74.7348 22.1552 58.541 27.969 38.5002 27.969Z" fill="black"/>
</svg>
