<?xml version="1.0"?>
<svg xmlns="http://www.w3.org/2000/svg" width="300" height="263.871">
 <path fill="#221E1F" d="M12.336,263.871c18.534-11.742,30.763-33.019,30.763-56.029L43.087,0.005H19.175v206.864 c0,8.596-1.995,16.729-6.043,23.509C9.712,235.685,5.212,240.505,0,244.067L12.336,263.871z"/>
 <polygon fill="#221E1F" points="115.758,199.859 115.758,0 91.845,0 91.845,223.13 225.726,223.13 211.383,199.859"/>
 <path fill="#221E1F" d="M292.983,61.521c0-34.42-29.968-61.514-63.747-61.514h-64.708v23.259h65.017 c22.642,0,38.896,17.536,38.896,38.255c0,21.36-16.254,39.205-38.896,39.205h-65.337v23.271h48.454l61.835,99.128H300 l-62.155-99.769C268.121,119.533,292.983,96.262,292.983,61.521"/>
</svg>
