<svg width="1201" height="341" viewBox="0 0 1201 341" fill="none" xmlns="http://www.w3.org/2000/svg">
<path fill-rule="evenodd" clip-rule="evenodd" d="M333.809 1.06058C315.581 3.67458 297.453 9.45758 280.721 17.9956C261.543 27.7816 249.485 37.2836 226.448 60.7666C201.357 86.3446 118.511 172.654 118.157 173.585C117.894 174.279 147.357 202.938 156.053 210.447L159.657 213.559L183.571 188.833C196.723 175.234 211.278 160.057 215.915 155.107C246.607 122.345 286.503 82.4726 293.285 77.7846C303.21 70.9236 317.459 64.1226 328.499 60.9776C339.645 57.8026 363.397 56.5986 375.715 58.5846C412.17 64.4606 444.237 88.9786 459.949 122.988C465.092 134.119 467.54 142.877 469.488 157.107C471.332 170.582 470.633 180.758 466.775 196.607C458.219 231.749 430.163 262.934 396.19 275.063C380.91 280.518 377.517 281.049 357.948 281.044C339.211 281.039 337.891 280.856 322.387 276.104C320.684 275.582 316.706 279.226 299.481 297.084C286.931 310.097 279 319.059 279.549 319.608C282.212 322.271 306.965 331.055 323.245 335.114C370.332 346.853 421.265 335.345 462.948 303.548C471.525 297.005 487.431 280.95 494.097 272.107C517.949 240.466 530.467 200.047 528.476 161.107C526.352 119.552 510.767 82.8476 482.511 52.8546C457.437 26.2396 424.841 8.51458 388.961 1.98458C377.056 -0.18242 346.091 -0.70142 333.809 1.06058ZM147.448 1.68558C112.827 5.74058 77.848 22.5676 51.078 48.0446C29.914 68.1866 12.39 98.4586 4.88896 127.837C-3.32304 160.001 -1.03704 201.092 10.597 230.451C31.68 283.653 74.169 321.534 128.448 335.523C139.934 338.483 147.69 339.564 162.558 340.275C206.022 342.356 248.054 328.215 280.812 300.493C286.53 295.654 377.072 202.639 401.344 176.669L411.099 166.232L390.881 146.669C379.761 135.91 370.363 126.986 369.997 126.838C369.631 126.689 352.311 144.239 331.507 165.838C310.704 187.436 287.763 211.182 280.528 218.607C273.292 226.032 263.359 236.382 258.454 241.607C237.645 263.771 215.505 276.751 190.948 281.184C181.335 282.919 160.603 282.923 150.948 281.193C136.204 278.551 118.047 270.805 105.448 261.785C85.174 247.268 68.735 223.312 62.236 198.813C58.74 185.633 57.924 163.728 60.45 150.863C68.939 107.627 99.499 74.2736 141.948 61.9156C150.889 59.3126 152.595 59.1506 170.948 59.1566C188.534 59.1616 191.184 59.3906 197.948 61.4896C202.073 62.7686 206.123 63.8806 206.948 63.9616C207.773 64.0416 217.759 54.4316 229.14 42.6066L249.832 21.1066L243.14 17.9526C228.115 10.8726 203.443 3.58558 187.974 1.66058C178.318 0.45958 157.812 0.47158 147.448 1.68558ZM881.948 68.2396C836.652 73.7156 805.703 92.4686 792.081 122.693C786.637 134.77 784.676 145.303 784.556 163.107C784.462 176.969 784.771 180.377 786.865 188.607C791.488 206.778 798.168 219.355 809.8 231.789C821.728 244.54 840.964 255.516 859.448 260.116C862.748 260.937 871.523 262.318 878.948 263.183C913.695 267.235 946.439 266.651 971.698 261.53L976.948 260.465V240.929C976.948 223.222 976.794 221.452 975.306 222.023C970.283 223.951 942.435 228.647 929.948 229.672C897.579 232.331 873.066 228.505 855.989 218.132C842.778 210.107 836.242 199.415 831.91 178.747C829.455 167.035 829.448 159.211 831.885 149.545C835.453 135.389 845.3 122.946 858.948 115.349C876.168 105.764 924.076 102.808 950.606 109.693C954.919 110.812 961.918 113.218 966.159 115.04C970.399 116.862 974.112 118.11 974.409 117.813C974.705 117.516 974.948 108.41 974.948 97.5756V77.8786L970.698 76.3206C966.67 74.8456 951.529 71.3776 943.948 70.1956C937.937 69.2576 902.697 66.6006 897.958 66.7276C895.477 66.7946 888.273 67.4746 881.948 68.2396ZM585.948 165.985V262.607H606.44H626.931L627.19 207.606L627.448 152.606L639.591 162.856C646.27 168.494 656.372 176.932 662.041 181.607C667.709 186.282 677.153 194.157 683.027 199.107C688.902 204.057 699.5 212.922 706.578 218.808C747.384 252.737 758.927 262.33 763.198 265.863L767.948 269.793V169.7V69.6066H745.948H723.948V124.607C723.948 165.171 723.648 179.607 722.806 179.607C722.178 179.607 719.365 177.666 716.556 175.295C711.39 170.933 704.036 164.936 684.948 149.517C679.173 144.852 669.723 137.208 663.948 132.531C658.173 127.854 645.123 117.326 634.948 109.137C624.773 100.948 614.648 92.7596 612.448 90.9416C605.98 85.5966 589.597 72.2196 587.698 70.7326C586.034 69.4286 585.948 74.1076 585.948 165.985ZM996.948 170.065V266.607H1018.95H1040.95V215.607C1040.95 187.557 1041.13 164.607 1041.35 164.607C1042.04 164.607 1070.99 193.718 1107.28 230.91L1142.12 266.607L1171.28 266.577L1200.45 266.547L1190.45 256.933C1184.95 251.645 1167.66 234.896 1152.04 219.713L1123.64 192.107L1130.32 191.358C1153.47 188.766 1175.8 171.072 1182.1 150.322C1183.87 144.513 1184.12 141.655 1183.72 131.781C1182.94 112.413 1177.31 100.358 1164.99 91.7156C1156.6 85.8346 1144.15 80.1926 1132.39 76.9446L1122.45 74.1996L1059.7 73.8606L996.948 73.5226V170.065ZM240.692 151.363L169.941 222.119L190.449 242.608L210.956 263.097L282.197 191.856L353.438 120.616L333.452 100.611C322.46 89.6086 313.011 80.6066 312.455 80.6066C311.898 80.6066 279.605 112.447 240.692 151.363ZM1040.95 133.685V162.764L1076.2 162.379C1109.05 162.021 1111.89 161.848 1117.95 159.837C1126.2 157.1 1132.24 152.665 1135.65 146.852C1137.8 143.178 1138.4 140.717 1138.71 134.199C1139.07 126.865 1138.84 125.592 1136.28 120.607C1132.69 113.638 1126.87 109.616 1116.21 106.74C1108.88 104.761 1105.87 104.607 1074.63 104.607H1040.95V133.685Z" fill="black"/>
</svg>
