<svg width="535" height="392" viewBox="0 0 535 392" fill="none" xmlns="http://www.w3.org/2000/svg">
<path fill-rule="evenodd" clip-rule="evenodd" d="M534.206 0H73.4244C64.9556 8.45675 56.473 16.9024 47.99 25.3485L47.9889 25.3496L47.9867 25.3518C31.9625 41.3062 15.9368 57.2622 0 73.2972V391.982H459.752C484.636 367.307 509.461 342.562 534.206 317.737V0ZM201.197 68.1624C180.627 67.9774 158.993 70.9028 141.498 82.4773C126.593 92.1439 117.771 108.598 112.44 125.087C105.549 147.01 104.092 170.217 104.254 193.065C104.566 214.202 106.393 235.639 113.192 255.782C117.343 267.692 123.414 279.405 133.08 287.776C145.661 298.75 162.276 303.722 178.58 305.676C192.19 307.179 206.042 307.352 219.582 305.132C225.92 315.54 232.226 325.971 238.532 336.401C242.188 342.449 245.844 348.497 249.507 354.541C256.654 351.263 263.784 347.964 270.916 344.664C275.483 342.551 280.051 340.438 284.624 338.329C279.964 330.779 275.258 323.257 270.551 315.736C265.845 308.214 261.139 300.692 256.479 293.142C269.43 283.845 279.247 270.455 284.404 255.377C292.105 233.211 293.157 209.438 293.122 186.173C292.845 163.071 290.417 139.598 282.149 117.86C277.038 104.62 269.372 91.8201 257.578 83.5295C241.344 71.8394 220.785 68.4052 201.197 68.1624ZM340.094 81.7333C352.35 81.7217 364.607 81.7217 376.864 81.7333C376.881 89.8373 376.878 97.9385 376.875 106.04C376.872 114.144 376.869 122.248 376.887 130.355C385.83 130.368 394.773 130.367 403.716 130.365H403.743C410.459 130.363 417.174 130.362 423.89 130.367C423.624 140.889 423.335 151.411 423.034 161.934C415.207 161.951 407.382 161.948 399.558 161.945H399.54C391.72 161.942 383.9 161.939 376.077 161.957C376.09 171.827 376.082 181.697 376.074 191.567C376.061 208.269 376.048 224.97 376.135 241.671C376.172 242.565 376.202 243.464 376.232 244.367V244.369C376.447 250.817 376.667 257.448 379.477 263.34C381.812 268.52 388.103 269.85 393.225 270.023C398.775 270.004 404.322 269.808 409.869 269.612L409.871 269.612C413.973 269.467 418.074 269.323 422.178 269.249C422.768 278.915 423.335 288.594 423.89 298.26C422.994 298.411 422.095 298.563 421.195 298.715C402.805 301.825 383.639 305.066 365.451 299.312C357.415 296.93 349.922 291.6 346.661 283.656C340.822 270.139 340.348 255.096 340.094 240.584C340.08 225.634 340.082 210.688 340.084 195.741V195.651C340.085 184.42 340.087 173.189 340.082 161.957C336.197 161.946 332.313 161.948 328.429 161.949H328.418C323.761 161.951 319.104 161.952 314.447 161.934C314.424 151.423 314.424 140.901 314.447 130.378C318.717 130.361 322.983 130.364 327.25 130.367H327.26C331.529 130.37 335.798 130.373 340.07 130.355C340.088 122.25 340.085 114.147 340.082 106.044C340.079 97.9416 340.076 89.8389 340.094 81.7333Z" fill="black"/>
<path d="M185.598 101.411C197.496 99.8611 209.984 100.277 221.246 104.775C230.369 108.383 238.116 115.448 242.21 124.398C248.488 137.961 250.893 152.935 252.108 167.724C253.426 187.404 253.241 207.269 250.523 226.833C248.616 238.477 245.898 250.745 238.012 259.926C230.011 269.142 217.673 273.096 205.833 274.021C193.345 274.935 180.175 274.021 168.901 268.113C162.322 264.609 156.737 259.117 153.476 252.387C149.522 244.328 147.348 235.529 145.821 226.718C141.219 198.782 140.109 169.874 146.4 142.1C148.99 131.624 152.759 120.871 160.414 112.973C167.074 106.209 176.347 102.717 185.598 101.411Z" fill="black"/>
</svg>
