<svg width="74" height="52" viewBox="0 0 74 52" fill="none" xmlns="http://www.w3.org/2000/svg">
<path d="M34.769 0.905634C43.8177 0.294237 51.613 7.14189 52.2244 16.16C52.8358 25.2087 45.9881 33.004 36.97 33.6154C27.9213 34.2268 20.126 27.3791 19.5146 18.361C19.0866 12.0942 22.2965 6.13308 27.7379 3.01495C29.9084 1.79216 32.3234 1.08905 34.769 0.905634ZM35.2887 2.31185C27.0348 2.64812 20.5846 9.61804 20.9208 17.8719C21.2571 26.1258 28.227 32.576 36.4809 32.2397C44.7347 31.9035 51.185 24.9335 50.8487 16.6797C50.6347 11.6357 47.9446 7.05018 43.6037 4.45174C41.0969 2.92324 38.1928 2.18957 35.2887 2.31185Z" fill="black"/>
<path d="M31.6479 4.94145C33.2375 4.42177 34.9188 4.17721 36.6002 4.26892C36.7836 4.26892 36.967 4.29949 37.1199 4.36063C38.9541 5.82798 40.4214 7.72331 41.3691 9.89377C42.4085 12.4005 42.7753 15.0906 42.4696 17.7808C42.2862 19.7373 41.8276 21.6326 41.094 23.4668H42.4085C42.5307 23.1305 42.653 22.7942 42.7753 22.458C44.3038 22.6414 45.71 23.3445 46.8105 24.445C45.7406 25.5455 44.3038 26.2486 42.7753 26.4321C42.653 26.0958 42.5307 25.7901 42.4085 25.4538C38.3732 25.4538 34.338 25.4538 30.3334 25.4538C30.1194 25.4538 29.936 25.5455 29.7831 25.6678C29.3246 25.8818 28.8966 26.1264 28.4686 26.3404C28.3158 26.4015 28.1323 26.4321 27.9489 26.4321C27.4292 26.4321 26.9095 26.4321 26.3899 26.4321C25.2893 25.2704 24.4028 23.9253 23.7608 22.458H27.3069C27.5515 22.4274 27.8266 22.458 28.0712 22.5497C28.652 22.7942 29.2634 23.0694 29.8442 23.3139C30.3028 23.5891 30.8225 23.4362 31.3116 23.4668C31.2505 22.2134 30.8836 20.9601 30.2417 19.8595C29.5691 18.7896 28.652 17.9336 27.5515 17.3222C26.0842 16.5274 24.4945 15.9772 22.8438 15.6715C23.0577 13.929 23.6386 12.2476 24.5251 10.7497C25.6867 11.0249 26.8178 11.3611 27.9489 11.7585C29.1411 12.1865 30.2722 12.7673 31.3116 13.501L31.6479 13.3482C30.9753 12.6145 30.2111 11.9419 29.3857 11.3611C28.224 10.5052 27.0013 9.74092 25.7173 9.03781C26.7873 7.72331 28.1018 6.65337 29.5997 5.85855C30.6085 6.28653 31.5562 6.83678 32.4121 7.50932C33.696 8.5487 34.9188 9.71035 36.0194 10.9637L36.4473 10.8414C35.3162 8.51813 33.5738 6.59223 31.6479 4.94145ZM37.609 18.759C36.753 19.0342 36.2945 19.9513 36.5696 20.8072C36.8447 21.6632 37.7618 22.1217 38.6178 21.8466C39.4737 21.5715 39.9323 20.6544 39.6572 19.7984C39.5655 19.4927 39.3515 19.187 39.0763 19.0036C38.6484 18.6979 38.0981 18.6062 37.609 18.759Z" fill="black"/>
<path d="M1.56995 41.3804C2.02849 41.0136 2.57875 40.8301 3.15958 40.8607C3.15958 41.9918 3.15958 43.1229 3.15958 44.2845C3.15958 44.5597 3.40414 44.7737 3.67927 44.7737H3.70984H10.5881C11.1689 44.7431 11.7191 44.9571 12.1471 45.3545C12.5445 45.7519 12.7891 46.2716 12.7891 46.8524C12.7891 47.5555 12.7891 48.228 12.7891 48.9311C12.7891 49.6037 12.4528 50.2456 11.9331 50.6736C11.5357 50.9793 11.0466 51.1322 10.5269 51.1322H0.5C0.958548 50.3985 1.4171 49.6648 1.87564 48.9617C4.53522 48.9617 7.1948 48.9617 9.85438 48.9617C10.1295 48.9923 10.3741 48.8089 10.4046 48.5337V48.5032C10.4046 48.0141 10.4046 47.5249 10.4046 47.0358H3.09844C2.54818 47.0664 1.99792 46.883 1.53938 46.5773C1.08083 46.2104 0.775129 45.6296 0.775129 45.0182C0.775129 44.4068 0.775129 43.7648 0.775129 43.1534C0.805699 42.3892 1.08083 41.7778 1.56995 41.3804Z" fill="black"/>
<path d="M4.19531 40.8604H12.5715C12.1435 41.5635 11.6849 42.2666 11.2569 42.9697C9.33105 43.0002 7.43572 42.9697 5.50982 42.9697L4.19531 40.8604Z" fill="black"/>
<path d="M15.4453 40.8604H17.8909C17.8909 42.1749 17.8909 43.4588 17.8909 44.7733C19.022 44.7733 20.1836 44.7733 21.3147 44.7733C22.6598 43.4588 24.0049 42.1443 25.3499 40.8604C26.481 40.8604 27.5815 40.8604 28.7126 40.8604C26.909 42.5723 25.136 44.3147 23.3323 46.0267C25.1054 47.708 26.8784 49.3893 28.6515 51.0707C27.5204 51.0707 26.3893 51.0707 25.2582 51.0707C23.8826 49.7562 22.5069 48.4111 21.1313 47.0966C20.0614 47.0966 18.9914 47.0966 17.9215 47.0966C17.9215 48.4111 17.9215 49.7562 17.9215 51.0707H15.4759C15.4453 47.6774 15.4453 44.2842 15.4453 40.8604Z" fill="black"/>
<path d="M32.2622 40.9521C32.5984 40.8909 32.9347 40.8604 33.2404 40.8604C35.0746 40.8604 36.9088 40.8604 38.743 40.8604C39.8435 40.8604 40.9134 41.38 41.586 42.236C42.0751 42.878 42.3502 43.6728 42.3502 44.4676C42.3502 45.4764 42.3502 46.4852 42.3502 47.494C42.3196 48.564 41.8305 49.5728 41.0051 50.2453C40.3326 50.765 39.5072 51.0401 38.6513 51.0401H33.5461C33.1792 51.0401 32.8124 51.0401 32.4456 51.0095C30.6419 50.7956 29.2969 49.2365 29.2969 47.4329C29.2969 46.4241 29.2969 45.4153 29.2969 44.4065C29.3274 43.3976 29.7554 42.45 30.4891 41.7774C31.0394 41.38 31.6202 41.0743 32.2622 40.9521ZM32.6596 43.2142C32.1399 43.3671 31.8036 43.8256 31.8036 44.3453C31.8036 45.4458 31.8036 46.5463 31.8036 47.6469C31.8342 48.2888 32.3539 48.7779 32.9958 48.7779H38.7735C39.4155 48.7779 39.9352 48.2888 39.9658 47.6469C39.9658 46.5158 39.9658 45.4153 39.9658 44.2842C39.9352 43.6422 39.4155 43.1531 38.7735 43.1531H33.4238C33.1487 43.1531 32.9041 43.1531 32.6596 43.2142Z" fill="black"/>
<path d="M45.1016 40.8604H53.9668C54.6699 40.8604 55.373 41.0438 55.9844 41.4106C56.9932 42.0526 57.6352 43.1225 57.6658 44.3147C57.6658 44.9873 57.6658 45.6904 57.6658 46.3935C57.6658 47.0966 57.7269 47.8608 57.4824 48.564C57.1155 49.7256 56.1984 50.6121 55.0368 50.9178C54.3642 51.1318 53.6611 51.0707 52.9886 51.0707H45.1016C45.1016 47.6774 45.1016 44.2842 45.1016 40.8604ZM47.5472 43.1531C47.5472 45.0179 47.5472 46.9132 47.5472 48.7779H54.028C54.5171 48.7779 54.9451 48.5028 55.1285 48.0748C55.2202 47.8303 55.2508 47.5857 55.2202 47.3106C55.2202 46.3018 55.2202 45.293 55.2202 44.2842C55.1896 43.6422 54.6699 43.1531 54.028 43.1531H47.5472Z" fill="black"/>
<path d="M64.3884 40.8604H67.7511C69.677 44.2536 71.5724 47.6469 73.4983 51.0707C72.5812 51.0707 71.6335 51.0707 70.7164 51.0707C70.3801 50.4593 70.0133 49.8479 69.677 49.2365H64.8164L63.5631 47.2189L61.3926 51.0707C60.4755 51.0707 59.589 51.0707 58.6719 51.0707C60.5672 47.6774 62.4931 44.2842 64.3884 40.8604ZM63.5936 47.1272H68.4848C67.6594 45.6598 66.834 44.223 66.0392 42.7863C65.2138 44.223 64.419 45.6598 63.5936 47.1272Z" fill="black"/>
</svg>
