<svg width="45" height="45" viewBox="0 0 45 45" fill="none" xmlns="http://www.w3.org/2000/svg">
<path d="M22.5 42.93C11.295 42.93 2.115 33.705 2.115 22.5C2.115 19.98 2.565 17.595 3.42 15.345L15.345 39.33C15.48 39.645 15.705 39.915 16.065 39.915C16.425 39.915 16.65 39.645 16.785 39.33L22.275 27.045C22.32 26.91 22.41 26.775 22.545 26.775C22.68 26.775 22.725 26.91 22.815 27.045L28.305 39.33C28.44 39.645 28.665 39.915 29.025 39.915C29.385 39.915 29.61 39.645 29.745 39.33L41.67 15.345C42.525 17.595 42.975 19.98 42.975 22.5C42.885 33.705 33.705 42.93 22.5 42.93ZM22.5 17.865C22.365 17.865 22.32 17.73 22.23 17.595L15.84 3.195C17.91 2.43 20.16 2.025 22.5 2.025C24.84 2.025 27.09 2.43 29.16 3.195L22.77 17.595C22.68 17.775 22.635 17.865 22.5 17.865ZM15.975 32.67C15.84 32.67 15.795 32.535 15.705 32.4L5.355 11.52C7.2 8.685 9.675 6.3 12.69 4.635L20.16 21.24C20.25 21.51 20.475 21.6 20.7 21.6H24.3C24.57 21.6 24.75 21.555 24.885 21.24L32.355 4.635C35.325 6.3 37.845 8.685 39.69 11.52L29.25 32.4C29.205 32.535 29.115 32.67 28.98 32.67C28.845 32.67 28.8 32.535 28.71 32.4L24.795 23.49C24.66 23.175 24.48 23.13 24.21 23.13H20.61C20.34 23.13 20.16 23.175 20.025 23.49L16.245 32.4C16.2 32.535 16.11 32.67 15.975 32.67ZM22.5 45C34.965 45 45 34.965 45 22.5C45 10.035 34.965 0 22.5 0C10.035 0 0 10.035 0 22.5C0 34.965 10.035 45 22.5 45Z" fill="black"/>
</svg>
