<svg width="501" height="165" viewBox="0 0 501 165" fill="none" xmlns="http://www.w3.org/2000/svg">
<path fill-rule="evenodd" clip-rule="evenodd" d="M250.235 1.72862C243.884 3.92262 241.667 5.81262 239.012 11.2966C236.778 15.9126 236.328 23.9746 238.051 28.5336C240.654 35.4256 249.04 40.7886 257.269 40.8266C272.071 40.8946 281.162 28.1766 276.775 13.5366C275.101 7.94862 270.092 3.25462 263.813 1.38962C257.368 -0.524384 256.708 -0.507384 250.235 1.72862ZM148.487 49.9076C135.053 52.2296 125.388 57.4576 116.021 67.4716C105.636 78.5736 101.03 90.6606 101.002 106.889C100.952 135.817 120.501 158.58 149.317 163.146C162.111 165.174 175.922 161.29 187.864 152.307L194.987 146.948V153.899V160.849H207.987H220.987V106.349V51.8486H207.987H194.987V59.5516V67.2546L191.237 63.6486C180.31 53.1396 162.642 47.4606 148.487 49.9076ZM438.28 50.3566C423.58 53.5516 411.977 62.3416 408.452 72.9536C406.296 79.4466 406.801 90.7636 409.496 96.3156C412.333 102.162 418.405 107.716 425.352 110.819C433.17 114.311 438.328 115.55 450.603 116.886C468.505 118.835 472.987 121.075 472.987 128.076C472.987 133.814 467.333 139.22 459.669 140.811C448.71 143.086 430.056 137.668 420.15 129.333C418.433 127.888 416.622 126.956 416.127 127.263C415.631 127.569 412.472 131.841 409.105 136.756L402.985 145.692L408.208 150.261C414.834 156.058 425.781 161.487 434.616 163.359C443.555 165.252 461.717 165.237 469.812 163.328C478.977 161.168 486.402 157.182 491.585 151.64C500.085 142.553 502.783 131.395 499.455 119.083C497.902 113.334 496.82 111.532 492.054 106.762C488.126 102.829 484.758 100.533 480.685 99.0086C474.164 96.5686 459.853 93.8486 453.538 93.8486C447.628 93.8486 439.174 91.1266 436.367 88.3196C433.141 85.0936 433.137 79.6076 436.359 76.3856C439.512 73.2326 444.87 71.8606 454.055 71.8546C463.265 71.8476 470.229 73.7926 476.025 77.9906L480.389 81.1526L484.3 76.7506C486.451 74.3296 489.947 70.2776 492.069 67.7466L495.926 63.1436L491.483 59.9526C477.889 50.1906 456.662 46.3616 438.28 50.3566ZM3.987 64.3306V76.8126L28.03 77.0806L52.074 77.3486L26.037 113.849L0 150.349L0.244 155.849L0.487 161.349H46.487H92.487L92.766 148.099L93.045 134.849H67.909C48.086 134.849 42.875 134.582 43.257 133.587C43.523 132.893 54.597 117.263 67.864 98.8526L91.987 65.3806V58.6146V51.8486H47.987H3.987V64.3306ZM294.228 106.599L294.487 161.349H307.987H321.487L321.987 137.215L322.487 113.081L343.487 137.455L364.487 161.828L380.737 161.839C393.559 161.847 396.987 161.57 396.987 160.525C396.987 159.797 385.85 146.917 372.237 131.903C358.624 116.89 347.342 104.225 347.165 103.761C346.988 103.296 356.775 91.7956 368.915 78.2036C381.055 64.6126 390.987 53.1216 390.987 52.6706C390.987 52.2186 383.606 51.8486 374.584 51.8486H358.181L340.334 73.2136L322.487 94.5786L322.217 73.2136L321.948 51.8486H307.959H293.97L294.228 106.599ZM149.869 75.1696C140.805 78.5586 134.403 84.4856 130.441 93.1576C128.111 98.2556 127.831 99.9686 128.147 107.158C128.571 116.796 130.987 122.613 137.105 128.731C143.072 134.698 149.074 137.25 158.169 137.686C168.205 138.167 174.332 136.142 181.013 130.136C187.894 123.949 191.173 117.268 191.766 108.228C192.629 95.0796 186.715 84.3656 175.083 78.0036C169.664 75.0386 167.511 74.4476 161.083 74.1586C156.332 73.9446 152.132 74.3226 149.869 75.1696Z" fill="black"/>
</svg>
