<svg width="101" height="100" viewBox="0 0 101 100" fill="none" xmlns="http://www.w3.org/2000/svg">
<g clip-path="url(#clip0_2336_9533)">
<path d="M25.3101 51.056C25.3101 51.056 25.2466 51.056 25.183 51.1195C25.1188 51.1195 25.1188 51.1195 25.055 51.1195H24.9909C24.9909 51.1828 24.9267 51.1828 24.8631 51.1828C24.7992 51.1828 24.7356 51.1828 24.6719 51.1828C24.6719 51.1828 24.608 51.1828 24.5439 51.1828C24.48 51.1828 24.48 51.1828 24.4159 51.1828H24.3523C24.3523 51.1195 24.2882 51.1195 24.2248 51.1195C24.2248 51.1195 24.1611 51.1195 24.1611 51.056H24.097C24.097 51.056 24.0331 51.056 24.0331 50.9914H23.9675C23.9675 50.9914 23.9033 50.9914 23.9033 50.928H23.8395C23.0083 50.3525 23.0083 49.0737 23.8395 48.498C23.9033 48.498 23.9033 48.498 23.9033 48.498L23.9675 48.4344H24.0314C24.0314 48.4344 24.0314 48.4344 24.0955 48.3705C24.0955 48.3705 24.0955 48.3705 24.1591 48.3705L24.2233 48.3066C24.2866 48.3066 24.2866 48.3066 24.2866 48.3066H24.3506C24.4144 48.3066 24.4144 48.3066 24.4144 48.3066C24.4783 48.3066 24.4783 48.2424 24.5424 48.2424C24.6063 48.2424 24.6702 48.2424 24.6702 48.2424C24.734 48.2424 24.7975 48.2424 24.8614 48.2424V48.3066C24.9255 48.3066 24.9894 48.3066 24.9894 48.3066H25.0532C25.0532 48.3066 25.1174 48.3066 25.1812 48.3066V48.3705C25.2451 48.3705 25.2451 48.3705 25.3085 48.4344C26.4611 48.9458 26.4611 50.5441 25.3101 51.056ZM20.0033 56.3623V50.4806H21.9855C22.1767 51.2477 22.7519 51.9511 23.5198 52.2706C22.8805 54.0603 21.6658 55.5308 20.0033 56.3623ZM17.1901 57.2574V44.2777C18.0211 44.0222 18.6606 43.4466 18.9802 42.6793C21.0897 43.4466 22.6881 45.1089 23.5197 47.155C22.7524 47.5385 22.1766 48.1782 21.9854 48.9455H19.2359C18.8522 48.9455 18.4687 49.2649 18.4687 49.7127V57.0011C18.085 57.1293 17.6376 57.2574 17.1901 57.2574ZM14.2486 57.0012V49.7131C14.2486 49.2655 13.8651 48.9458 13.4813 48.9458H10.6041C10.4125 48.1788 9.90099 47.6025 9.19758 47.2194C9.9648 45.1095 11.6272 43.4469 13.7371 42.6796C14.1208 43.511 14.824 44.0864 15.6552 44.2783V57.3217C15.2077 57.2574 14.6962 57.1933 14.2486 57.0012ZM9.19758 52.2059C9.90094 51.8865 10.4125 51.2477 10.6041 50.4806H12.7141V56.3623C11.0517 55.4673 9.77296 53.9965 9.19758 52.2059ZM6.44837 49.7131C6.44837 49.0736 6.83169 48.562 7.40728 48.3705C7.40728 48.3066 7.47119 48.3066 7.53526 48.3066H7.59939C7.66303 48.3066 7.66303 48.2424 7.66303 48.2424C7.72689 48.2424 7.72689 48.2424 7.72689 48.2424C7.79102 48.2424 7.85467 48.2424 7.91879 48.2424C7.91879 48.2424 7.98265 48.2424 8.04678 48.2424C8.04678 48.2424 8.04678 48.2424 8.11085 48.2424C8.11085 48.2424 8.11085 48.3066 8.1745 48.3066H8.23841H8.30248H8.36613C8.36613 48.3705 8.43025 48.3705 8.43025 48.3705H8.49411L8.55824 48.4344H8.6221C8.6221 48.4344 8.6221 48.498 8.68601 48.498C8.68601 48.498 8.68601 48.498 8.74987 48.498V48.5621C8.814 48.5621 8.814 48.5621 8.814 48.6262C9.51714 49.2016 9.51714 50.2888 8.814 50.8637C8.74987 50.928 8.74987 50.928 8.74987 50.928C8.68601 50.928 8.68601 50.928 8.68601 50.9914H8.6221C8.6221 50.9914 8.55824 50.9914 8.55824 51.056H8.49417H8.43031C8.43031 51.1195 8.36618 51.1195 8.36618 51.1195H8.30253C8.30253 51.1195 8.23846 51.1195 8.23846 51.1828H8.17455C8.1109 51.1828 8.1109 51.1828 8.1109 51.1828C8.04683 51.1828 8.04683 51.1828 8.04683 51.1828C7.9827 51.1828 7.91884 51.1828 7.91884 51.1828C7.85472 51.1828 7.79107 51.1828 7.72695 51.1828H7.66309C7.66309 51.1828 7.66309 51.1828 7.59944 51.1828L7.53531 51.1195H7.47124H7.40733C6.83169 50.8637 6.44837 50.3519 6.44837 49.7131ZM16.3585 40.1224C16.8703 40.1224 17.3818 40.3781 17.6376 40.8255C17.8933 41.2734 17.8933 41.8485 17.6376 42.2964C17.0622 43.3192 15.6552 43.3192 15.0797 42.2964C14.5046 41.3366 15.2077 40.1224 16.3585 40.1224ZM27.5477 49.7131C27.5477 48.2424 26.3972 47.0276 24.9904 46.8998C24.0313 44.2142 21.9216 42.1043 19.1719 41.2093C18.7245 37.9483 13.9931 37.9483 13.5455 41.2093C10.7962 42.0407 8.68612 44.2143 7.72689 46.8998C4.21041 47.0916 4.14628 52.3343 7.72689 52.5265C8.49417 54.9558 10.3484 57.0013 12.7141 58.0242V60.3902C12.7141 61.4138 14.2486 61.4138 14.2486 60.3902V58.5364C14.6962 58.6643 15.2077 58.7279 15.6551 58.7279V60.3902C15.6551 61.4138 17.1901 61.4138 17.1901 60.3902V58.7279C17.6375 58.7279 18.0849 58.6644 18.4687 58.5364V60.3902C18.4687 61.4138 20.0032 61.4138 20.0032 60.3902V58.0242C22.3689 57.0012 24.2231 54.9554 24.9904 52.5265C26.3972 52.3981 27.5477 51.1829 27.5477 49.7131Z" fill="#191919"/>
<path d="M34.2616 51.5025H37.3304L35.7962 46.8991M38.0339 53.5486H33.5582L32.7271 56.1063H30.0415L34.5813 43.7661H36.9469L41.5506 56.1063H38.865L38.0339 53.5486Z" fill="#191919"/>
<path d="M51.9728 52.5255L53.6347 43.7661H56.1927L53.4435 56.1063H50.8854L48.9035 47.8589L46.8574 56.1063H44.3L41.6147 43.7661H44.1082L45.7705 52.5255L47.8164 43.7661H49.9904" fill="#191919"/>
<path d="M63.9289 52.8457C63.9289 52.398 63.801 52.0145 63.4175 51.7585C63.0975 51.5033 62.4584 51.2475 61.627 50.9913C60.7322 50.6719 60.0286 50.416 59.5176 50.0966C58.1108 49.3931 57.4073 48.3703 57.4073 47.0915C57.4073 46.3882 57.5993 45.8125 57.9825 45.3012C58.3667 44.7898 58.8778 44.3421 59.5812 44.0863C60.2848 43.7667 61.1162 43.6389 61.9471 43.6389C62.8421 43.6389 63.6096 43.7667 64.3122 44.0863C65.0153 44.4062 65.5268 44.8536 65.9106 45.429C66.2945 46.0044 66.4862 46.7078 66.4862 47.4112H63.9289C63.9289 46.836 63.801 46.452 63.4175 46.1322C63.0341 45.8125 62.5866 45.6209 61.9471 45.6209C61.3076 45.6209 60.7963 45.7488 60.4761 46.0685C60.1559 46.3245 59.9642 46.6437 59.9642 47.0915C59.9642 47.4748 60.1559 47.7949 60.5396 48.0504C60.9879 48.3703 61.5627 48.626 62.3301 48.8179C63.8006 49.2656 64.8234 49.8407 65.5268 50.4805C66.1665 51.1193 66.4861 51.8868 66.4861 52.8457C66.4861 53.9324 66.1024 54.7638 65.2715 55.3395C64.4401 55.9781 63.3531 56.2988 62.0109 56.2988C61.0516 56.2988 60.2207 56.107 59.4532 55.7868C58.6861 55.4029 58.0462 54.9553 57.6631 54.3163C57.2156 53.741 57.0236 53.0371 57.0236 52.2057H59.5812C59.5812 53.6127 60.4125 54.2527 62.0109 54.2527C62.65 54.2527 63.0987 54.125 63.418 53.9324C63.801 53.6776 63.9289 53.2934 63.9289 52.8457Z" fill="#191919"/>
<path d="M75.1824 43.7023H73.5839V56.0429H75.1824V43.7023Z" fill="#191919"/>
<path d="M79.082 51.5668C79.082 52.5899 79.3378 53.3569 79.7853 53.9968C80.2333 54.6367 80.8719 54.8923 81.6396 54.8923C82.4706 54.8923 83.1101 54.6367 83.5574 53.9968C84.0055 53.3569 84.2608 52.4622 84.2608 51.3754C84.2608 50.3523 84.0055 49.5211 83.5574 48.9458C83.046 48.3065 82.4706 47.9864 81.6396 47.9864C80.8719 47.9864 80.232 48.3065 79.7853 48.8816C79.338 49.5207 79.082 50.4158 79.082 51.5668ZM77.4836 51.3752C77.4836 50.4794 77.6751 49.6485 77.9956 48.9453C78.3792 48.2418 78.8907 47.6663 79.4661 47.2829C80.1051 46.8991 80.8727 46.7073 81.6399 46.7073C82.9181 46.7073 83.8774 47.1549 84.6451 47.9863C85.4126 48.8815 85.86 50.0323 85.86 51.4389V51.5669C85.86 52.4619 85.6678 53.2283 85.2844 53.932C84.9652 54.6351 84.5178 55.2103 83.8774 55.5943C83.2385 55.978 82.4706 56.1699 81.6399 56.1699C80.4252 56.1699 79.4022 55.7859 78.6348 54.8915C77.8677 54.0595 77.4837 52.9091 77.4837 51.5026L77.4836 51.3752Z" fill="#191919"/>
<path d="M96.5377 45.0452H92.5735V56.0429H90.9749V45.0452H87.011V43.7023H96.5377" fill="#191919"/>
<mask id="mask0_2336_9533" style="mask-type:luminance" maskUnits="userSpaceOnUse" x="0" y="31" width="101" height="38">
<path d="M100.694 31.49H0.693726V68.51H100.694V31.49Z" fill="white"/>
</mask>
<g mask="url(#mask0_2336_9533)">
<path d="M1.52502 32.3212H100.118V67.6151H1.52502V32.3212ZM1.52502 32.3212H3.44326" stroke="#191919" stroke-width="2.88" stroke-miterlimit="10" stroke-linecap="round" stroke-linejoin="round"/>
</g>
</g>
<defs>
<clipPath id="clip0_2336_9533">
<rect width="100" height="100" fill="white" transform="translate(0.693726)"/>
</clipPath>
</defs>
</svg>
