<svg width="101" height="100" viewBox="0 0 101 100" fill="none" xmlns="http://www.w3.org/2000/svg">
<path fill-rule="evenodd" clip-rule="evenodd" d="M38.2251 25.7519C38.2251 21.9833 41.2491 18.9497 45.0063 18.9497C48.7635 18.9497 51.7875 21.9833 51.7875 25.7519C51.7875 29.5204 48.7635 32.554 45.0063 32.554C41.2491 32.554 38.2251 29.5204 38.2251 25.7519ZM52.4437 47.6957C52.4437 43.1974 56.053 39.5767 60.5374 39.5767C65.0217 39.5767 68.631 43.1983 68.631 47.6957C68.631 52.1932 65.0217 55.8147 60.5374 55.8147C56.053 55.8147 52.4437 52.194 52.4437 47.6957ZM67.756 71.8332C67.756 68.3078 70.5849 65.4694 74.0997 65.4694C77.6145 65.4694 80.4434 68.3078 80.4434 71.8332C80.4434 75.3585 77.6145 78.197 74.0997 78.197C70.5849 78.197 67.756 75.3585 67.756 71.8332ZM43.4751 67.4451C43.4751 64.4063 45.9145 61.9589 48.9437 61.9589C51.973 61.9589 54.4124 64.4054 54.4124 67.4451C54.4124 70.4848 51.9738 72.9313 48.9437 72.9313C45.9137 72.9313 43.4751 70.4848 43.4751 67.4451ZM21.3816 50.7678C21.3816 47.729 23.8211 45.2816 26.8503 45.2816C29.8795 45.2816 32.319 47.7281 32.319 50.7678C32.319 53.8075 29.8804 56.254 26.8503 56.254C23.8202 56.254 21.3816 53.8075 21.3816 50.7678Z" fill="#191919"/>
<path fill-rule="evenodd" clip-rule="evenodd" d="M46.1911 24.4473L61.6644 46.5285L58.8014 48.5471L43.3281 26.4667L46.1911 24.4473Z" fill="#191919"/>
<path fill-rule="evenodd" clip-rule="evenodd" d="M61.8857 46.5381L75.5784 70.5338L72.5405 72.2776L58.8486 48.2819L61.8857 46.5381Z" fill="#191919"/>
<path fill-rule="evenodd" clip-rule="evenodd" d="M60.0326 45.8075L60.3222 49.3066L26.9676 52.0847L26.678 48.5856L60.0326 45.8075Z" fill="#191919"/>
<path fill-rule="evenodd" clip-rule="evenodd" d="M58.8093 46.6869L61.807 48.499L50.0655 68.0453L47.0678 66.2332L58.8093 46.6869ZM84.5996 15H66.8811C66.2248 15 65.7873 15.4384 65.7873 16.3169V22.6807C65.7873 23.3386 66.2248 23.7779 66.8811 23.7779H76.9434V33.6521C76.9434 34.3101 77.3809 34.7494 78.2559 34.7494H84.5996C85.2558 34.7494 85.6933 34.311 85.6933 33.6521V16.0972C85.6933 15.4384 85.2558 15 84.5996 15ZM16.788 85H34.5065C35.1627 85 35.6002 84.5608 35.6002 83.6831V77.3193C35.6002 76.6614 35.1627 76.2221 34.5065 76.2221H24.4441V66.3479C24.4441 65.689 24.0066 65.2506 23.1316 65.2506H16.788C16.1317 65.2506 15.6942 65.689 15.6942 66.3479V83.9028C15.6942 84.5608 16.1317 85 16.788 85Z" fill="#191919"/>
</svg>
