<svg width="101" height="101" viewBox="0 0 101 101" fill="none" xmlns="http://www.w3.org/2000/svg">
<g clip-path="url(#clip0_2336_13576)">
<g clip-path="url(#clip1_2336_13576)">
<path d="M43.6722 28.1896C43.7677 28.1902 43.8632 28.1908 43.9615 28.1915C44.1945 28.193 44.4275 28.1955 44.6604 28.198C44.4545 28.3313 44.4545 28.3313 44.2444 28.4673C39.1648 32.4142 36.8419 39.7805 34.6916 45.5073C34.6352 45.6565 34.6352 45.6565 34.5777 45.8087C33.8575 47.719 33.165 49.6752 32.8973 51.7007C32.8812 51.8183 32.865 51.9359 32.8484 52.0571C32.4321 55.33 32.9232 58.6877 34.9512 61.4229C37.0382 64.0015 40.0192 65.7296 43.2735 66.5696C43.4005 66.603 43.5274 66.6363 43.6583 66.6706C45.0971 67.0098 46.4798 67.0375 47.9534 67.0425C48.2118 67.0447 48.4703 67.0472 48.7287 67.0498C49.4022 67.0561 50.0757 67.0602 50.7493 67.0637C51.4392 67.0677 52.1292 67.074 52.8191 67.0801C54.168 67.0916 55.5168 67.1007 56.8657 67.1082C56.6941 67.6203 56.5144 68.086 56.2459 68.5577C56.1787 68.6764 56.1116 68.7952 56.0424 68.9175C55.9708 69.0425 55.8992 69.1674 55.8255 69.2961C55.752 69.4254 55.6786 69.5547 55.6029 69.688C55.4516 69.9542 55.2999 70.2203 55.1479 70.4862C54.9347 70.8592 54.7225 71.2327 54.5106 71.6064C54.3855 71.8265 54.2603 72.0465 54.1351 72.2665C54.0474 72.4208 54.0474 72.4208 53.958 72.5782C53.5532 73.2857 53.5532 73.2857 53.3983 73.4361C53.1185 73.4493 52.8382 73.4528 52.5581 73.4527C52.469 73.4529 52.3798 73.453 52.288 73.4532C51.9856 73.4535 51.6832 73.4529 51.3808 73.4523C51.1632 73.4524 50.9457 73.4525 50.7282 73.4527C50.1276 73.453 49.527 73.4524 48.9264 73.4518C48.2798 73.4512 47.6332 73.4514 46.9866 73.4515C45.8654 73.4516 44.7442 73.4511 43.623 73.4504C42.0019 73.4493 40.3807 73.4489 38.7596 73.4488C36.1297 73.4485 33.4999 73.4476 30.87 73.4463C28.3147 73.4451 25.7593 73.4441 23.2039 73.4435C23.0465 73.4435 22.8891 73.4435 22.727 73.4434C21.9374 73.4433 21.1479 73.4431 20.3583 73.4429C13.8035 73.4415 7.24859 73.4392 0.693726 73.4361C1.18495 73.1859 1.65302 73.0586 2.19338 72.9313C7.04358 71.7219 11.0841 68.5835 14.1473 64.8194C14.2667 64.6767 14.3862 64.5342 14.5059 64.3918C16.6924 61.7698 18.4892 58.8455 19.9773 55.8003C20.1138 55.5242 20.2557 55.2511 20.3978 54.9777C21.1569 53.4729 21.6769 51.9178 22.183 50.3206C23.8687 45.0014 26.1719 39.8486 29.9586 35.6031C30.0564 35.4932 30.1542 35.3834 30.255 35.2702C33.6236 31.5657 38.3377 28.1244 43.6722 28.1896Z" fill="#191919"/>
<path d="M47.8504 28.198C65.2887 28.198 82.727 28.198 100.694 28.198C100.694 28.2424 100.694 28.2869 100.694 28.3326C100.432 28.3891 100.432 28.3891 100.165 28.4468C98.5899 28.7994 97.1435 29.2392 95.7007 29.9483C95.6099 29.9927 95.5192 30.0371 95.4257 30.0829C93.1809 31.2016 91.2656 32.6936 89.4593 34.3913C89.3556 34.4866 89.2519 34.5819 89.1451 34.68C88.3958 35.383 87.7455 36.1558 87.1015 36.9494C87.034 37.0315 86.9666 37.1136 86.8971 37.1982C85.0984 39.3937 83.6001 41.7438 82.2471 44.2198C82.1993 44.3073 82.1515 44.3948 82.1022 44.4849C81.765 45.1076 81.4469 45.7379 81.1375 46.374C81.0832 46.4851 81.0288 46.5963 80.9728 46.7107C80.0997 48.5164 79.4602 50.332 78.8978 52.2486C77.4482 57.1628 74.9537 62.1975 71.4288 66.0311C71.3693 66.096 71.3099 66.1609 71.2486 66.2278C70.8075 66.7077 70.3571 67.1782 69.9031 67.6467C69.807 67.7489 69.7108 67.8511 69.6117 67.9565C68.0359 69.5717 66.1109 70.8166 64.0779 71.8205C63.946 71.8864 63.814 71.9524 63.6781 72.0203C61.4649 73.0592 59.1781 73.4995 56.727 73.4361C56.8643 73.3472 57.0016 73.2584 57.1431 73.1668C63.0787 68.5548 67.01 57.6931 68.3775 50.5478C68.3951 50.4564 68.4127 50.365 68.4309 50.2709C69.0409 46.9526 68.6152 43.4626 66.7131 40.5846C66.3651 40.1157 65.9953 39.6733 65.6036 39.2382C65.5315 39.157 65.4595 39.0758 65.3852 38.9921C63.3595 36.8722 60.3838 35.6548 57.5592 34.9299C57.4741 34.9067 57.389 34.8836 57.3014 34.8598C56.0507 34.5654 54.7669 34.6127 53.4882 34.6048C53.229 34.6023 52.9698 34.5997 52.7106 34.5969C52.0325 34.5901 51.3544 34.5847 50.6763 34.5797C49.9826 34.5743 49.289 34.5674 48.5954 34.5607C47.2375 34.5477 45.8796 34.5363 44.5217 34.5259C44.693 34.0147 44.8719 33.5511 45.1415 33.0812C45.2095 32.9617 45.2774 32.8422 45.3474 32.7191C45.4182 32.5962 45.489 32.4732 45.562 32.3465C46.3474 30.9743 47.0968 29.588 47.8504 28.198Z" fill="#191919"/>
</g>
</g>
<defs>
<clipPath id="clip0_2336_13576">
<rect width="100" height="100" fill="white" transform="translate(0.693726 0.817017)"/>
</clipPath>
<clipPath id="clip1_2336_13576">
<rect width="100" height="45.2381" fill="white" transform="translate(0.693726 28.198)"/>
</clipPath>
</defs>
</svg>
