<svg width="101" height="100" viewBox="0 0 101 100" fill="none" xmlns="http://www.w3.org/2000/svg">
<g clip-path="url(#clip0_2336_9542)">
<path d="M55.5889 42.7115C55.5804 42.5583 55.5862 42.4038 55.5702 42.2513C55.5504 42.0613 55.4487 42.0101 55.2856 42.1002C55.2375 42.1268 55.1877 42.1605 55.1546 42.2035C54.8336 42.6174 54.3829 42.6573 53.9084 42.6573C52.6228 42.658 51.3374 42.6737 50.0518 42.6737C47.6623 42.6737 45.2732 42.6627 42.8837 42.6658C42.4043 42.6665 41.9588 42.6238 41.6613 42.1834C41.6463 42.1612 41.621 42.1445 41.5982 42.1288C41.4347 42.0156 41.3416 42.0459 41.2993 42.2363C41.2782 42.3308 41.2768 42.4301 41.2696 42.5276C41.2017 43.4467 41.1325 44.3658 41.0676 45.2849C41.039 45.6889 41.0196 46.0931 40.995 46.4974C40.9875 46.6209 41.0165 46.7222 41.1533 46.7523C41.2805 46.7802 41.3696 46.7188 41.4293 46.6124C41.4562 46.5643 41.4743 46.5107 41.4927 46.4582C41.6722 45.943 41.9144 45.4562 42.1532 44.967C42.6186 44.0141 43.3783 43.5283 44.4261 43.4218C45.1787 43.3454 45.9306 43.3215 46.6849 43.3082C47.2816 43.2976 47.2714 43.2833 47.2707 43.9093C47.2686 47.6669 47.2724 51.4245 47.2676 55.1817C47.2666 56.0333 47.242 56.8852 47.2233 57.7367C47.2154 58.1017 47.1704 58.4603 46.9486 58.7701C46.4509 59.2631 45.8306 59.4678 45.151 59.5384C44.9996 59.5541 44.8498 59.5954 44.7014 59.6329C44.4892 59.6864 44.48 59.8492 44.4882 60.029C44.4974 60.2323 44.6137 60.29 44.7921 60.2855C44.8761 60.2835 44.96 60.2859 45.0436 60.2859C47.3082 60.2859 49.5725 60.2859 51.8372 60.2855C51.9211 60.2855 52.005 60.2821 52.0886 60.2852C52.2633 60.2913 52.3387 60.1842 52.3745 60.0361C52.4147 59.8676 52.3683 59.7264 52.207 59.6496C52.1343 59.6148 52.0459 59.6121 51.9641 59.5971C51.4718 59.5056 50.9771 59.4381 50.5018 59.2549C49.9625 59.0468 49.726 58.634 49.65 58.1103C49.5903 57.6975 49.5578 57.2775 49.5565 56.8603C49.5449 53.2415 49.5425 49.6225 49.5387 46.0038C49.5381 45.2351 49.5439 44.4668 49.5425 43.6982C49.5421 43.5453 49.5507 43.414 49.7533 43.416C50.7581 43.4252 51.7665 43.3645 52.7634 43.5351C53.1343 43.5985 53.4986 43.7057 53.8104 43.9356C53.8688 43.9786 53.9285 44.0093 54.0032 43.9909C54.2413 44.1335 54.3717 44.3679 54.5074 44.5937C54.7749 45.0379 54.9581 45.522 55.1488 46.0017C55.2263 46.1962 55.2921 46.3951 55.3689 46.5899C55.4067 46.6868 55.476 46.7598 55.5896 46.7482C55.723 46.7345 55.7803 46.6369 55.7895 46.5172C55.7981 46.4067 55.7902 46.2944 55.7837 46.1832C55.7199 45.0256 55.6537 43.8687 55.5889 42.7115Z" fill="#191919"/>
<path d="M86.2981 59.6782C86.1395 59.6311 85.9798 59.5875 85.8229 59.5356C85.3344 59.3753 84.8561 59.1972 84.5354 58.7585C84.4623 58.4869 84.2754 58.274 84.1567 58.025C83.6541 56.9711 83.2922 55.8616 82.8541 54.7825C82.6883 54.3742 82.6177 53.9262 82.3546 53.5578C82.1373 52.9699 81.9251 52.3804 81.7013 51.7953C81.369 50.9274 81.0811 50.0428 80.7078 49.1905C80.7051 49.1639 80.6949 49.138 80.6741 49.1121C80.6345 48.9793 80.6031 48.8436 80.5536 48.7146C80.2053 47.8068 79.8529 46.9003 79.5029 45.9931C79.073 44.8796 78.6482 43.7643 78.2105 42.6538C78.1556 42.5146 78.1385 42.3052 77.9018 42.3185C77.7148 42.3082 77.6159 42.442 77.5616 42.5784C77.33 43.1584 77.0441 43.7176 76.8868 44.3262C76.9011 44.3358 76.9151 44.3453 76.9295 44.3545C76.9274 44.3559 76.9257 44.3573 76.9237 44.3586C76.9114 44.3477 76.8991 44.3371 76.8868 44.3262C76.7504 44.5299 76.677 44.7575 76.6306 44.9956C76.4645 45.4149 76.2983 45.8338 76.1322 46.2528C76.0967 46.3108 76.0517 46.365 76.0274 46.4274C75.7501 47.1497 75.4758 47.873 75.2008 48.5962C75.2165 48.6092 75.2318 48.6218 75.2475 48.6348C75.2468 48.6355 75.2462 48.6358 75.2451 48.6361C75.2305 48.6228 75.2155 48.6095 75.2004 48.5962C75.1387 48.6696 75.125 48.7583 75.1175 48.8494C74.993 49.0602 74.9006 49.2826 74.876 49.529C74.6242 50.1717 74.3721 50.8145 74.1203 51.4569C73.5004 52.7635 73.0576 54.1401 72.522 55.4802C72.5285 55.4853 72.5346 55.4901 72.5411 55.4952C72.5404 55.4952 72.5397 55.4952 72.539 55.4956C72.5387 55.4956 72.522 55.4802 72.522 55.4802C72.4725 55.5297 72.449 55.5884 72.4589 55.6586C72.2494 56.1711 72.0491 56.6879 71.828 57.1952C71.5074 57.9315 71.2119 58.6875 70.519 59.1795C70.1526 59.3101 69.7985 59.4735 69.4201 59.5742C69.2768 59.6124 69.1219 59.6622 69.0858 59.8488C69.0315 60.1292 69.1554 60.2688 69.487 60.2691C71.1594 60.2715 72.8317 60.2705 74.5041 60.2695C74.614 60.2695 74.7296 60.2869 74.8173 60.193C74.9859 59.8096 74.9592 59.7304 74.616 59.6021C74.5516 59.5779 74.4854 59.5554 74.4182 59.5414C73.9685 59.4493 73.5434 59.292 73.1419 59.071C73.1101 59.0457 73.0784 59.0208 73.0467 58.9956C72.913 58.8028 72.8805 58.5916 72.9031 58.3596C72.9464 57.9148 73.0245 57.4791 73.1374 57.0455C73.221 56.7244 73.3872 56.4218 73.3752 56.0772C73.4421 56.0104 73.4605 55.9261 73.4629 55.8357C73.7478 55.1841 73.9006 54.4871 74.1541 53.8242C74.2991 53.4441 74.3073 53.423 74.7218 53.4233C76.2171 53.424 77.7124 53.4257 79.2078 53.4278C79.9143 53.4288 79.9143 53.4298 80.179 54.0589C80.3513 54.7931 80.6949 55.4669 80.9306 56.1786C81.1971 56.9834 81.5471 57.7595 81.7081 58.6005C81.7562 58.8509 81.6808 59.0037 81.5062 59.1419C81.3735 59.247 81.2186 59.3009 81.0541 59.3466C80.7474 59.4323 80.4291 59.4903 80.1446 59.641C79.9221 59.7591 79.8655 59.9767 79.9907 60.162C80.0876 60.3056 80.2353 60.2715 80.3708 60.2712C82.2673 60.2684 84.1638 60.264 86.0604 60.2596C86.13 60.2596 86.2009 60.2643 86.2688 60.2531C86.4373 60.2255 86.4872 60.0856 86.5124 59.9491C86.5435 59.7946 86.4906 59.6741 86.2981 59.6782ZM74.9599 49.5293C74.9599 49.531 74.9606 49.5331 74.9606 49.5348C74.9606 49.5348 74.9606 49.5348 74.9606 49.5351C74.9569 49.5331 74.9531 49.5313 74.9494 49.5296L74.9599 49.5293ZM75.4782 50.1287V50.1284C75.4795 50.1277 75.4802 50.1263 75.4812 50.1253C75.531 50.0868 75.5556 50.0373 75.5525 49.9759C75.5819 49.9697 75.6088 49.9564 75.633 49.936C75.8893 49.5788 75.9377 49.1359 76.1264 48.7501C76.1861 48.6286 76.2386 48.4918 76.1571 48.3526C76.298 48.3015 76.3253 48.1612 76.3771 48.0432C76.5003 47.7621 76.5883 47.4673 76.7016 47.1821C76.7268 47.0917 76.7381 46.9986 76.7657 46.9092C76.7729 46.886 76.7797 46.8624 76.7845 46.8392C76.9482 46.8082 76.9192 46.6212 76.9864 46.5131C77.0489 46.4124 77.0233 46.2487 77.157 46.1992C77.4682 47.3189 77.9253 48.3867 78.3409 49.4679C78.5537 50.0223 78.6711 50.6193 79.0164 51.1201C79.0361 51.1352 79.057 51.1457 79.0795 51.1509C79.0733 51.2218 79.0802 51.288 79.1279 51.3416L79.1283 51.3419C79.132 51.346 79.1358 51.3501 79.1399 51.3538C79.146 51.3596 79.1521 51.3651 79.1597 51.3702C79.162 51.3723 79.1648 51.374 79.1675 51.376C79.1678 51.3791 79.1682 51.3822 79.1689 51.3852C79.1562 51.3931 79.145 51.405 79.1347 51.4197C79.0672 51.6268 79.1733 51.8025 79.2429 51.9806C79.3408 52.2296 79.2774 52.3521 78.9993 52.3511C78.7485 52.3497 78.4981 52.3514 78.247 52.3518C77.2996 52.3518 76.3519 52.3541 75.4045 52.3504C74.907 52.3483 74.9019 52.3381 75.0091 51.8639C75.0309 51.767 75.0479 51.6728 75.0036 51.579C74.9961 51.5674 74.9879 51.5579 74.9797 51.5514C75.3502 51.1628 75.4427 50.6691 75.4986 50.1625C75.4918 50.1523 75.4843 50.1441 75.4761 50.1373C75.4765 50.1345 75.4771 50.1318 75.4782 50.1287ZM70.633 59.1965C70.6289 59.2013 70.6244 59.2057 70.62 59.2105C70.62 59.2105 70.62 59.2105 70.6196 59.2105C70.6176 59.2043 70.6152 59.1986 70.6125 59.1934C70.6196 59.1948 70.6265 59.1955 70.633 59.1965C70.6333 59.1965 70.6333 59.1965 70.633 59.1965ZM80.6577 49.3048C80.6546 49.3011 80.6519 49.2973 80.6495 49.2936C80.6526 49.2939 80.6556 49.2939 80.6587 49.2939C80.658 49.2977 80.658 49.3014 80.6577 49.3048ZM72.5411 55.6665C72.5411 55.6668 72.5411 55.6668 72.5411 55.6672L72.5438 55.6668C72.5424 55.6706 72.5414 55.6747 72.5401 55.6784V55.6788V55.6791C72.5325 55.6726 72.5244 55.6675 72.5152 55.6641C72.5237 55.6651 72.5325 55.6658 72.5411 55.6665ZM73.1013 59.1194C73.1006 59.1208 73.1002 59.1225 73.0999 59.1238L73.0996 59.1235C73.0992 59.1232 73.0992 59.1232 73.0989 59.1228C73.0992 59.1218 73.1002 59.1208 73.1013 59.1194Z" fill="#191919"/>
<path d="M43.6858 59.6626C43.6656 59.6855 43.6551 59.7097 43.6534 59.735C43.65 59.7281 43.6469 59.722 43.6431 59.7152C43.6571 59.6974 43.6714 59.68 43.6858 59.6626C43.6274 59.6381 43.5691 59.6135 43.5104 59.5886C43.4995 59.6005 43.4886 59.6128 43.4777 59.6248C43.4886 59.6128 43.4995 59.6005 43.5108 59.5886C43.4067 59.5105 43.2873 59.506 43.1648 59.5156C43.0812 59.4866 43.0075 59.4269 42.9124 59.4354C42.506 59.2447 42.1195 59.027 41.8384 58.6627C41.6265 58.2533 41.4112 57.8456 41.2396 57.4167C41.052 56.9364 40.922 56.4325 40.6528 55.9859C40.4836 55.4748 40.3257 54.959 40.0575 54.4875C40.006 54.3425 39.9545 54.1975 39.903 54.0525C39.9166 53.9556 39.8859 53.8704 39.8327 53.7912C39.6792 53.347 39.5628 52.8881 39.3383 52.4712C39.3291 52.4457 39.3151 52.4201 39.2957 52.3948L39.295 52.3935C39.3162 52.3146 39.2933 52.2563 39.2162 52.2229C38.8389 51.1823 38.469 50.1391 38.044 49.1162C37.9467 48.7362 37.799 48.3746 37.639 48.0174C37.6441 47.9208 37.638 47.8277 37.5544 47.7601C37.553 47.7349 37.5445 47.7127 37.5285 47.6933C37.5407 47.6216 37.5169 47.5653 37.4568 47.5244V47.524C37.3886 47.1614 37.2504 46.826 37.073 46.506C37.0686 46.4835 37.0559 46.461 37.0351 46.4378C36.957 46.229 36.8816 46.0192 36.8008 45.8114C36.3907 44.761 35.9792 43.7112 35.5674 42.6618C35.5129 42.5226 35.4897 42.3465 35.2969 42.3278C35.0946 42.3083 34.9875 42.4615 34.9233 42.6116C34.8258 42.8395 34.7036 43.0626 34.6763 43.3168C34.6252 43.3649 34.5931 43.4212 34.6009 43.4942C34.0111 44.9909 33.4168 46.4859 32.8337 47.9856C32.5475 48.7219 32.2343 49.4482 32.0043 50.2056C31.9105 50.297 31.8788 50.4195 31.8327 50.5362C31.5359 51.2878 31.2302 52.0359 30.9406 52.7906C30.5861 53.7134 30.2446 54.641 29.8973 55.5666C29.8212 55.6355 29.7977 55.7222 29.8107 55.8211C29.7581 55.934 29.7056 56.047 29.653 56.1599C29.3712 56.7784 29.0816 57.3939 28.8114 58.0175C28.7128 58.2451 28.5159 58.4225 28.4818 58.6804C28.4818 58.6804 28.4818 58.6804 28.4822 58.6804C28.3952 58.7875 28.3089 58.895 28.2222 59.0021C28.2222 59.0021 28.2222 59.0021 28.2219 59.0025C28.2219 59.0025 28.2222 59.0025 28.2222 59.0021C27.8128 59.2365 27.3915 59.446 26.9398 59.5872C26.9374 59.5879 26.9353 59.5886 26.9329 59.5896C26.385 59.6169 25.8569 59.4999 25.3312 59.3672C24.5182 59.1618 24.0979 58.6999 23.9962 57.8647C23.9174 57.2172 23.8594 56.5669 23.8642 55.9129C23.871 55.788 23.8857 55.6628 23.8833 55.538C23.8618 54.4363 23.8826 53.3347 23.8106 52.2328C23.7571 51.4119 23.7871 50.586 23.7721 49.7621C23.7676 49.513 23.8096 49.2595 23.7195 49.0159C23.7038 49.0279 23.6881 49.0395 23.6725 49.0511C23.6714 49.0453 23.6701 49.0398 23.669 49.034C23.6858 49.0279 23.7028 49.0221 23.7195 49.0159C23.6909 47.8587 23.7158 46.7011 23.6465 45.5432C23.5916 44.6248 23.6325 43.701 23.6237 42.7795C23.6199 42.3987 23.695 42.0313 23.7782 41.6639C23.8615 41.2964 24.0989 41.0484 24.4155 40.8768C24.5854 40.7847 24.7741 40.7202 24.961 40.6677C25.3097 40.5701 25.6625 40.4961 26.0261 40.4592C26.3151 40.4299 26.4349 40.2542 26.4147 40.0103C26.3929 39.7493 26.3475 39.7151 25.9787 39.7148C24.6236 39.7134 23.2689 39.7141 21.9138 39.7145C21.8302 39.7145 21.7459 39.7141 21.663 39.723C21.5177 39.7383 21.4392 39.824 21.4262 39.9693C20.8022 41.2883 20.1742 42.6051 19.5553 43.9265C19.0248 45.0588 18.5052 46.1962 17.9805 47.3313C17.9757 47.3384 17.9723 47.3456 17.9692 47.3528C17.5533 48.1494 17.1791 48.9658 16.8168 49.788C16.4947 50.4533 16.1471 51.1066 15.9031 51.807C15.3382 53.0045 14.7735 54.202 14.2086 55.3994C14.08 55.468 14.1216 55.6666 13.9698 55.7174C13.8794 55.7062 13.8691 55.6253 13.8415 55.5676C13.4304 54.7018 13.0326 53.8291 12.6099 52.969C12.2796 52.2973 12.0142 51.5934 11.6222 50.9517C11.4141 50.5147 11.2159 50.0725 10.9928 49.6433C10.9 49.4646 10.8805 49.2401 10.6929 49.1145C10.6929 49.1145 10.6929 49.1142 10.6925 49.1142C10.0201 47.6898 9.34803 46.2651 8.67593 44.8408V44.8404C8.72404 44.703 8.63806 44.5986 8.58586 44.4877C7.88784 43.0125 7.18164 41.5414 6.49658 40.0601C6.37786 39.8032 6.23593 39.7111 5.95856 39.7155C4.92518 39.7315 3.89146 39.7254 2.85807 39.7274C2.49507 39.7281 2.13174 39.7295 1.76874 39.7274C1.59543 39.7264 1.46306 39.7711 1.45384 39.9751C1.36753 40.2184 1.48728 40.3477 1.70631 40.4074C1.83936 40.4435 1.97821 40.4589 2.11468 40.4824C2.78882 40.6005 3.44795 40.754 3.96515 41.25C4.16951 41.5428 4.28482 41.8696 4.32167 42.2217C4.3957 42.9299 4.42777 43.6402 4.3957 44.3526C4.32849 45.8431 4.25411 47.3337 4.18213 48.8242C4.08421 50.8442 4.01632 52.866 3.82664 54.8802C3.73657 55.8375 3.63388 56.7945 3.39745 57.7316C3.2354 58.3741 2.90379 58.8773 2.30198 59.1826C2.20338 59.1696 2.10683 59.1618 2.05532 59.2744C1.97958 59.2573 1.91885 59.2768 1.88064 59.3484H1.8803C1.87382 59.3552 1.86733 59.3607 1.86051 59.3655C1.86699 59.3597 1.87382 59.3549 1.8803 59.3484C1.75919 59.3385 1.63193 59.3071 1.54937 59.4385C1.36378 59.3992 1.19217 59.4757 1.02091 59.5173C0.650406 59.607 0.585927 59.9611 0.871822 60.2668C0.871822 60.2668 0.871822 60.2668 0.871822 60.2672C0.913444 60.2713 0.955062 60.2788 0.997025 60.2788C3.24802 60.2794 5.49936 60.2798 7.75036 60.2801C7.80631 60.2801 7.86226 60.2798 7.91821 60.2771C8.08469 60.2689 8.1635 60.1791 8.18602 60.0147C8.23174 59.6817 8.14133 59.5749 7.79095 59.5156C7.10146 59.3982 6.41948 59.2536 5.82995 58.8428C5.48264 58.5259 5.31411 58.1175 5.2544 57.6648C5.11214 56.584 5.06369 55.4977 5.06779 54.4073C5.07461 52.62 5.13022 50.8354 5.21483 49.0494C5.28272 47.6141 5.28409 46.1741 5.33424 44.7364C5.34618 44.3939 5.35914 44.0517 5.37142 43.7091C5.59147 44.0588 5.75148 44.4229 5.91524 44.7855C6.28369 45.5995 6.63782 46.4204 7.02982 47.2224C7.24236 47.6574 7.37064 48.1357 7.67667 48.524V48.5247C7.65449 48.6055 7.67564 48.6656 7.75991 48.6942C7.83974 48.8706 7.91787 49.0477 7.99974 49.223C8.36308 49.9995 8.72745 50.7753 9.09181 51.5511C9.07475 51.6511 9.13855 51.7238 9.1771 51.805C9.16584 51.8916 9.19348 51.9697 9.22862 52.0468C9.67383 53.0232 10.1194 53.9993 10.5632 54.9764C10.9494 55.8262 11.3203 56.6829 11.7242 57.5242C11.9088 57.9087 12.006 58.3386 12.2936 58.6722C12.4287 58.9615 12.5679 59.2488 12.6972 59.5405C12.7655 59.6944 12.8617 59.7964 13.0391 59.7947C13.2086 59.7933 13.2806 59.6643 13.3362 59.5391C13.6852 58.7538 14.0909 57.9936 14.3955 57.1885C14.6248 56.8548 14.7637 56.4758 14.9315 56.1118C15.9277 53.9509 16.9225 51.7893 17.9177 49.6276C18.0023 49.5864 18.0187 49.4983 18.0528 49.4247C18.6236 48.1866 19.1974 46.9502 19.759 45.708C19.9012 45.3928 20.096 45.0997 20.1755 44.7565C20.4587 44.1622 20.7013 43.5481 21.0151 42.9688C21.1182 43.0217 21.1103 43.0814 21.11 43.1336C21.1025 44.8381 21.1124 46.5422 21.154 48.2463C21.1796 49.2936 21.1959 50.3417 21.1922 51.3898C21.1843 53.7076 21.2901 56.0272 21.0956 58.3423C20.9766 58.562 20.8572 58.7817 20.7381 59.0018C20.5095 59.1655 20.267 59.3058 19.993 59.3726C19.6269 59.462 19.2615 59.5552 18.8849 59.5985C18.6485 59.6258 18.569 59.7298 18.586 59.9164C18.6038 60.1075 18.6952 60.1826 18.9296 60.1843C19.6846 60.1894 20.4392 60.1931 21.1942 60.1948C24.7597 60.2041 28.3249 60.2116 31.8904 60.2245C32.0456 60.2252 32.163 60.2197 32.2056 60.0376C32.249 59.8523 32.1821 59.7353 32.0122 59.6773C31.8672 59.6278 31.715 59.5999 31.5687 59.5531C31.1596 59.4228 30.7171 59.3621 30.4121 59.0103C30.4244 58.9329 30.3992 58.8769 30.321 58.8507L30.3207 58.85C30.347 58.5047 30.3009 58.1577 30.379 57.8122C30.6823 56.4686 31.0924 55.1572 31.5588 53.8628C31.6993 53.4732 31.6007 53.4746 32.1149 53.4743C33.8405 53.4736 35.5664 53.4719 37.292 53.4705C37.2954 53.4722 37.2982 53.4743 37.3016 53.4763C37.464 53.7069 37.5141 53.9846 37.6216 54.2385C37.5977 54.3388 37.6339 54.4247 37.6857 54.5066C37.8178 54.8696 37.9457 55.2343 38.0842 55.5946C38.147 55.7573 38.1292 55.9593 38.3043 56.0709C38.4117 56.3547 38.5192 56.6386 38.6267 56.9227C38.6028 57.0821 38.6789 57.2158 38.729 57.3591C38.9149 57.8927 39.1261 58.4228 39.0504 59.0079C38.8699 59.1632 38.67 59.2877 38.437 59.3413C38.2875 59.3757 38.1405 59.4067 38.015 59.5002H38.0146C37.8734 59.5012 37.739 59.5323 37.6131 59.5961C37.479 59.664 37.3026 59.7087 37.3101 59.897C37.3166 60.0632 37.4278 60.172 37.5991 60.2047C37.739 60.2941 37.8962 60.2665 38.0477 60.2678C38.773 60.2733 39.4983 60.2757 40.2236 60.2767C41.3116 60.2784 42.3996 60.2777 43.4879 60.2784C43.6476 60.2784 43.7997 60.2706 43.8444 60.0707C43.8816 59.897 43.9109 59.7315 43.6858 59.6626ZM32.4212 51.2946C32.4233 51.2925 32.4253 51.2908 32.4274 51.2888C32.4383 51.2792 32.4492 51.27 32.4598 51.2601C32.4612 51.2581 32.4618 51.2553 32.4629 51.2533C32.5744 51.1301 32.6099 50.9793 32.6007 50.8122C32.6178 50.8074 32.6341 50.7995 32.6495 50.7886C32.7757 50.5877 32.9398 50.3973 32.8504 50.1309C32.9835 50.1455 33.0381 50.0398 33.0712 49.9453C33.3021 49.2803 33.6293 48.6485 33.7647 47.9508C33.763 47.9314 33.76 47.9126 33.7552 47.8945C34.051 47.581 34.4153 46.5732 34.355 46.2054C34.3734 46.1966 34.3898 46.185 34.4041 46.1689C34.4048 46.1672 34.4351 46.1505 34.4351 46.1505C34.4351 46.1505 34.4696 46.1512 34.4699 46.1488C34.4877 46.1655 34.5003 46.1874 34.5088 46.2102C34.5276 46.2726 34.5392 46.3388 34.5579 46.4019C34.9568 47.5718 35.4259 48.7167 35.8591 49.8746C36.0475 50.3782 36.1873 50.9063 36.4732 51.3717C36.4927 51.3867 36.5135 51.3973 36.5357 51.4024C36.5282 51.4897 36.5357 51.5719 36.6165 51.6313L36.6182 51.633C36.6182 51.6337 36.6182 51.6344 36.6186 51.6351C36.6135 51.6381 36.609 51.6419 36.6042 51.6463C36.5401 51.7531 36.5647 51.8667 36.6145 51.9602C36.7926 52.2949 36.6268 52.3969 36.3245 52.4194C35.1465 52.4443 33.9674 52.4576 32.7877 52.4143C32.686 52.3921 32.5843 52.3781 32.4803 52.3904C32.4161 52.3962 32.3595 52.4344 32.2926 52.4286C32.2657 52.4194 32.2421 52.4044 32.221 52.3859C32.2043 52.3634 32.192 52.3375 32.1814 52.3119C32.1753 52.2734 32.1719 52.2338 32.1654 52.1949C32.4349 51.9721 32.47 51.6596 32.4519 51.327C32.4424 51.3147 32.4315 51.3055 32.4199 51.2993C32.4209 51.2973 32.4209 51.2963 32.4212 51.2946ZM29.926 55.5905C29.9256 55.5908 29.9253 55.5908 29.9246 55.5908C29.9239 55.5902 29.897 55.5659 29.8966 55.5656C29.9065 55.5741 29.9164 55.5823 29.926 55.5905Z" fill="#191919"/>
<path d="M69.377 56.1876C69.4101 56.031 69.3743 55.9115 69.2187 55.846C69.0669 55.7822 68.9404 55.8242 68.8578 55.96C68.7732 56.0992 68.6442 56.2234 68.6702 56.4096C68.4829 56.7512 68.3014 57.0957 68.1069 57.4328C67.7732 58.0121 67.4536 58.6054 66.8207 58.9288C66.5686 58.9602 66.3622 59.1164 66.1227 59.184C64.8873 59.532 63.6325 59.4825 62.3835 59.3188C61.8953 59.2546 61.4979 58.9595 61.3628 58.4392C61.2788 58.1168 61.2038 57.791 61.2038 57.4509C61.2038 53.7366 61.1959 50.0227 61.1983 46.3085C61.1987 45.7514 61.1908 45.1929 61.2908 44.6381C61.372 44.1871 61.5637 43.8221 61.954 43.5717C61.9567 43.5717 61.9595 43.5706 61.9622 43.5686C62.4173 43.3922 62.8932 43.3035 63.3726 43.2227C63.6373 43.1783 63.7434 43.063 63.725 42.889C63.7069 42.7167 63.5933 42.6464 63.3101 42.6379C62.696 42.6198 62.0823 42.5953 61.4682 42.5891C60.6296 42.5806 59.791 42.5871 58.9525 42.5871C58.2398 42.5871 57.5267 42.5878 56.814 42.5854C56.6165 42.5847 56.4954 42.6591 56.4787 42.8709C56.4623 43.0753 56.5541 43.1957 56.7516 43.221C57.307 43.2919 57.8382 43.4451 58.3513 43.6655C58.5516 43.8129 58.6713 44.023 58.7375 44.2499C58.831 44.5703 58.9098 44.8957 58.9149 45.2359C58.9681 48.6294 58.948 52.0233 58.9436 55.4172C58.9426 56.1432 58.933 56.8695 58.9084 57.5952C58.8924 58.0694 58.8668 58.5494 58.5301 58.9373C58.107 59.2795 57.6195 59.4624 57.0836 59.5333C56.9597 59.5497 56.8372 59.5852 56.7182 59.6248C56.5049 59.6957 56.4575 59.8018 56.4811 60.0465C56.5012 60.2559 56.6315 60.2904 56.8021 60.2842C56.858 60.2822 56.914 60.2829 56.97 60.2829C60.1025 60.2815 63.2347 60.2808 66.3673 60.2788C66.9265 60.2784 67.486 60.2634 68.0451 60.2733C68.3048 60.2778 68.4927 60.1778 68.5709 59.9451C68.663 59.6708 68.7725 59.3945 68.7534 59.0939C68.7571 59.0683 68.7606 59.0427 68.7633 59.0172C68.8557 58.9199 68.8554 58.8009 68.8421 58.6791C68.9011 58.4212 68.9639 58.1639 69.0188 57.905C69.1403 57.3328 69.2563 56.7597 69.377 56.1876Z" fill="#191919"/>
<path d="M97.8236 50.9483C97.7294 50.8347 97.58 50.8429 97.4606 50.7849C97.1614 50.5389 96.7585 50.5775 96.4241 50.4294C96.462 50.3066 96.5592 50.3199 96.6336 50.2909C97.4773 49.9657 98.2326 49.5147 98.7816 48.7727C99.6539 47.7107 99.8184 46.5261 99.3728 45.2471C99.2186 44.8046 99.0426 44.3645 98.6277 44.0834C98.5431 44.0026 98.4582 43.9214 98.3735 43.8402C98.3111 43.6102 98.1016 43.5372 97.927 43.4349C97.0396 42.9142 96.0587 42.7082 95.0496 42.6696C93.951 42.6277 92.8525 42.5639 91.7499 42.6225C90.9014 42.6676 90.0485 42.6307 89.1976 42.6318C88.6538 42.6324 88.1096 42.6324 87.5658 42.6396C87.4246 42.6413 87.2397 42.5847 87.2134 42.8208C87.1575 43.0558 87.2765 43.1476 87.4911 43.1906C87.8057 43.2534 88.1209 43.3103 88.4283 43.41C88.881 43.556 89.1451 43.8548 89.2901 44.3018C89.4313 44.7374 89.4347 45.1843 89.4412 45.6282C89.4982 49.4694 89.4934 53.3109 89.4432 57.152C89.4354 57.7508 89.4357 58.356 89.1383 58.907C88.9284 59.1587 88.6616 59.3092 88.3498 59.4146C88.0056 59.5309 87.6484 59.5729 87.3001 59.6613C86.9937 59.7387 86.9661 59.7851 87.1121 60.0761C87.1155 60.0864 87.1203 60.0966 87.1281 60.1079L87.1298 60.1102C87.1837 60.2515 87.3089 60.2177 87.4133 60.2187C88.1066 60.2273 88.8008 60.2535 89.4934 60.2293C89.9352 60.2136 90.3801 60.2655 90.8198 60.185C91.4315 60.2409 92.0433 60.1894 92.6543 60.1771C93.6976 60.156 94.7429 60.1379 95.7725 59.9335C96.0441 59.9632 96.304 59.9407 96.5326 59.7701L96.5302 59.766C96.5374 59.7592 96.5449 59.7537 96.5528 59.7489C96.5452 59.7544 96.5377 59.7595 96.5302 59.766C96.6551 59.7902 96.7786 59.8086 96.8639 59.6797C96.9635 59.7002 97.0526 59.6865 97.1187 59.6002C97.173 59.5995 97.2324 59.6132 97.2805 59.5954C97.8424 59.3904 98.3691 59.1185 98.8457 58.7545C99.3319 58.3833 99.7795 57.9776 100.047 57.4113C100.406 56.7743 100.669 56.1036 100.688 55.365C100.707 54.6301 100.698 53.8942 100.307 53.2297C99.8259 52.0909 98.9337 51.401 97.8236 50.9483ZM96.781 58.588C96.7032 58.5733 96.6496 58.6224 96.5947 58.6627C95.4276 59.5207 94.1097 59.5306 92.757 59.3443C92.7174 59.2727 92.657 59.2549 92.5809 59.2764L92.5762 59.2744C92.2104 59.0683 91.9368 58.7896 91.8624 58.358C91.8126 58.0697 91.7519 57.7845 91.7526 57.4884C91.7557 56.1893 91.7468 54.8904 91.7441 53.5916C91.7427 52.8516 91.7441 52.1117 91.7488 51.371C91.7505 51.0616 91.756 51.0506 92.0426 51.0527C92.7679 51.0575 93.4929 51.0121 94.2175 51.1162C95.3003 51.2724 96.2611 51.6593 97.0161 52.4808C97.0976 52.5695 97.1505 52.6998 97.2951 52.7155C97.9014 53.4893 98.1098 54.3988 98.0897 55.3462C98.0638 56.5778 97.7407 57.7187 96.781 58.588ZM96.8936 45.9076C96.9444 46.9594 97.0195 48.015 96.4862 48.9904C96.4603 49.0381 96.4971 48.9771 96.4838 49.031C96.4869 49.0562 96.4948 49.078 96.5081 49.0965C96.2242 49.164 96.069 49.3735 95.9417 49.6133C95.9325 49.6017 95.9192 49.5918 95.9015 49.5836C95.8008 49.5543 95.7043 49.5765 95.6173 49.6222C94.5737 50.1759 93.4362 50.1452 92.3049 50.165C92.0067 50.1704 91.8699 50.0524 91.8747 49.7471C91.9088 47.6701 91.8021 45.5917 91.9355 43.5161C92.0033 43.5628 92.0811 43.556 92.1592 43.5491C92.717 43.5014 93.2766 43.5171 93.835 43.5297C95.1721 43.559 96.1635 44.1346 96.7008 45.3993C96.7503 45.517 96.7663 45.6766 96.9444 45.6848C96.8898 45.7493 96.8895 45.8278 96.8936 45.9076Z" fill="#191919"/>
</g>
<defs>
<clipPath id="clip0_2336_9542">
<rect width="100" height="100" fill="white" transform="translate(0.693726)"/>
</clipPath>
</defs>
</svg>
