<svg width="101" height="100" viewBox="0 0 101 100" fill="none" xmlns="http://www.w3.org/2000/svg">
<g clip-path="url(#clip0_2336_9549)">
<path d="M28.6054 50.2748C28.6054 44.1926 23.4397 39.2601 17.0575 39.2601C10.6753 39.2601 5.50952 44.1926 5.50952 50.2748C5.50952 56.3571 10.6753 61.2896 17.0575 61.2896C23.4397 61.2729 28.6054 56.3571 28.6054 50.2748Z" fill="#7C7C7C"/>
<path d="M18.2574 38.3604C18.2574 40.7266 16.3411 42.6596 13.9582 42.6596C11.5919 42.6596 9.65894 40.7433 9.65894 38.3604C9.65894 35.9941 11.5753 34.0612 13.9582 34.0612C16.3244 34.0612 18.2574 35.9941 18.2574 38.3604Z" fill="#BCBCBC"/>
<path d="M30.1886 42.0098C30.1886 44.3761 28.2722 46.309 25.8893 46.309C23.5231 46.309 21.5901 44.3927 21.5901 42.0098C21.5901 39.6436 23.5064 37.7106 25.8893 37.7106C28.2722 37.7106 30.1886 39.6436 30.1886 42.0098Z" fill="#BCBCBC"/>
<path d="M34.2879 53.341C34.2879 55.7072 32.3716 57.6402 29.9887 57.6402C27.6224 57.6402 25.6895 55.7239 25.6895 53.341C25.6895 50.9747 27.6058 49.0417 29.9887 49.0417C32.3716 49.0584 34.2879 50.9747 34.2879 53.341Z" fill="#BCBCBC"/>
<path d="M25.1895 61.6396C25.1895 64.0058 23.2732 65.9388 20.8903 65.9388C18.5241 65.9388 16.5911 64.0225 16.5911 61.6396C16.5911 59.2733 18.5074 57.3403 20.8903 57.3403C23.2565 57.3403 25.1895 59.2567 25.1895 61.6396Z" fill="#BCBCBC"/>
<path d="M12.7583 58.6567C12.7583 61.0229 10.8419 62.9559 8.45903 62.9559C6.09278 62.9559 4.15979 61.0396 4.15979 58.6567C4.15979 56.2904 6.07612 54.3574 8.45903 54.3574C10.8253 54.3574 12.7583 56.2904 12.7583 58.6567Z" fill="#BCBCBC"/>
<path d="M9.2922 46.9421C9.2922 49.3083 7.37587 51.2413 4.99296 51.2413C2.62672 51.2413 0.693726 49.325 0.693726 46.9421C0.693726 44.5758 2.61005 42.6428 4.99296 42.6428C7.35921 42.6428 9.2922 44.5758 9.2922 46.9421Z" fill="#BCBCBC"/>
<path d="M17.9243 47.7587L17.6077 46.6589L16.9411 47.9253L14.5582 39.6934L15.758 40.3933L15.4581 39.3435L13.7917 38.427L12.8585 40.0934L13.1751 41.1432L13.8084 39.9101L16.2079 48.1419L14.9748 47.4254L15.2914 48.5252L16.9745 49.425L17.9243 47.7587Z" fill="#E4E4E4"/>
<path d="M19.9905 49.775L20.7237 49.0918L19.3906 48.9918L24.9896 43.8094V45.1092L25.6895 44.4593L25.6561 42.643L23.8565 42.4763L23.1566 43.1429L24.4564 43.2262L18.8573 48.4253L18.874 47.0755L18.1241 47.7754L18.1741 49.5917L19.9905 49.775Z" fill="#E4E4E4"/>
<path d="M10.7255 58.6568L11.4753 57.9069L10.1089 57.8736L15.7246 52.3413L15.7412 53.6744L16.4578 52.9745L16.4078 51.1248L14.5581 51.0415L13.8582 51.7414L15.1747 51.7747L9.55901 57.3237L9.54235 55.9573L8.79248 56.6905L8.8758 58.5402L10.7255 58.6568Z" fill="#E4E4E4"/>
<path d="M15.1578 48.4585L14.0913 48.1252L14.7745 49.3583L6.72593 46.8921L7.94238 46.2589L6.92589 45.9423L5.25952 46.8421L6.1427 48.5251L7.15918 48.8417L6.5093 47.642L14.5412 50.1082L13.2914 50.7414L14.3579 51.0747L16.0243 50.1582L15.1578 48.4585Z" fill="#E4E4E4"/>
<path d="M21.6902 59.5733L21.3569 58.5901L20.7237 59.7899L18.2741 52.4246L19.4739 52.9745L19.1573 52.0413L17.4742 51.3081L16.5911 52.8912L16.9077 53.8243L17.5242 52.6745L19.9905 60.0399L18.7573 59.4567L19.0906 60.4398L20.7737 61.173L21.6902 59.5733Z" fill="#E4E4E4"/>
<path d="M27.639 51.858L26.6392 51.558L27.2557 52.7745L19.7904 50.6082L20.9235 49.9417L19.9903 49.675L18.424 50.6249L19.2405 52.2579L20.1736 52.5412L19.5737 51.3581L27.0391 53.5077L25.8726 54.1909L26.8724 54.4909L28.4222 53.5077L27.639 51.858Z" fill="#E4E4E4"/>
<path d="M18.6405 56.0072L21.0067 44.226H26.4058L28.8387 51.308L34.1211 44.226H39.5368L37.1372 56.0072H33.8045L35.4375 47.6753L29.2553 56.0072H26.6391L23.6896 47.692L22.0566 56.0072H18.6405Z" fill="#191919"/>
<path d="M50.385 48.2251C49.9185 47.7586 48.2854 47.5586 46.3858 47.5586C43.4196 47.5586 41.9532 48.0418 41.07 48.925C40.1869 49.8082 39.7536 53.1409 39.7536 53.5075C39.7536 53.8575 39.6203 54.8073 40.2702 55.4572C40.9201 56.1071 42.4864 56.1571 44.9027 56.1571C47.3189 56.1571 48.652 55.7405 49.5519 55.1239C50.4517 54.524 50.9849 51.3413 51.0849 50.3581C51.1682 49.3583 50.8516 48.6751 50.385 48.2251ZM48.0188 51.9412C47.7688 52.8243 47.6689 53.1909 47.3689 53.4076C47.069 53.6242 45.5359 53.7742 45.2026 53.7742C44.8694 53.7742 43.2363 53.7408 42.903 53.4076C42.5698 53.0743 43.0697 50.5914 43.5529 50.3248C44.0362 50.0582 45.036 49.9748 45.7525 49.9915C46.8523 50.0082 47.6855 50.0415 47.9188 50.2748C48.1521 50.5414 48.2687 51.058 48.0188 51.9412Z" fill="#191919"/>
<path d="M61.8663 44.226L60.9498 48.9085C60.5165 47.8753 59.7 47.5587 57.9503 47.5587C54.9842 47.5587 54.4676 48.0419 53.5844 48.9251C52.7013 49.8083 52.268 53.141 52.268 53.5076C52.268 53.8576 52.1347 54.8074 52.7846 55.4573C53.4345 56.1072 53.951 56.1572 56.3006 56.1572C58.5669 56.1572 59.3834 55.3906 59.7833 54.8741L59.5667 56.0072H62.5328L64.8324 44.226H61.8663ZM59.7 53.4243C59.4001 53.6409 57.867 53.7909 57.5171 53.7909C57.1671 53.7909 55.5507 53.7576 55.2175 53.4243C54.8842 53.091 55.3841 50.6082 55.8674 50.3415C56.3506 50.0749 57.3504 49.9916 58.067 50.0083C59.1668 50.0249 60 50.0583 60.2499 50.2915C60.3999 50.4415 60.4999 50.7248 60.4832 51.1414L60.2832 52.1246C60.0833 52.8911 59.9833 53.2244 59.7 53.4243Z" fill="#191919"/>
<path d="M75.7474 48.0585C75.3808 47.7419 74.4476 47.5586 72.6813 47.5586C70.465 47.5586 69.5485 48.0086 68.8486 48.9584L69.7651 44.2426H66.8656L64.5327 56.0071H67.4822L67.7155 54.8073C68.0654 55.6239 68.5987 56.1571 71.0482 56.1571C73.4645 56.1571 74.1143 56.0405 74.8809 55.2573C75.6974 54.4407 76.3306 51.358 76.4139 50.3581C76.4973 49.375 76.3639 48.5751 75.7474 48.0585ZM73.4311 51.9412C73.1812 52.8244 73.0812 53.191 72.7812 53.4076C72.4813 53.6242 70.9482 53.7742 70.615 53.7742C70.2817 53.7742 68.6487 53.7409 68.3154 53.4076C67.9821 53.0743 68.482 50.5914 68.9653 50.3248C69.4485 50.0582 70.4483 49.9749 71.1649 49.9915C72.2647 50.0082 73.0979 50.0415 73.3312 50.2748C73.5811 50.5414 73.6811 51.058 73.4311 51.9412Z" fill="#191919"/>
<path d="M86.3953 47.6587H86.2787C86.2787 47.6587 85.4955 52.2412 84.7789 52.9578C84.0624 53.6743 83.0126 53.7243 82.646 53.7243C82.296 53.7243 81.2795 53.5743 80.9129 53.2077C80.463 52.7411 81.4462 48.4252 81.6295 47.6587H78.7467C78.7467 47.6587 77.5802 52.9411 77.5802 53.7576C77.5802 54.4075 77.6469 55.6073 79.4465 56.0239C79.8631 56.1239 80.363 56.1738 80.9796 56.1738C81.4628 56.1738 81.9128 56.1239 82.3127 56.0239C83.7124 55.6906 84.5956 54.8907 85.0789 54.2909L84.7456 56.0239H87.4951L89.1281 47.6754H86.3953V47.6587Z" fill="#191919"/>
<path d="M97.9596 50.2581H100.643C100.643 50.2581 100.692 49.6082 100.692 49.3416C100.692 49.0583 100.742 48.6917 100.176 48.1251C99.6094 47.5586 96.5432 47.5752 96.0267 47.5752C95.5101 47.5752 92.7272 47.5252 91.944 48.1751C91.2775 48.7084 90.7276 49.4082 90.7276 50.7747C90.7276 52.1578 91.6441 52.691 93.4604 52.691H96.7099C97.1598 52.691 97.7264 52.8243 97.7264 53.2409C97.7264 53.6575 97.4097 54.224 96.2766 54.224H94.127C93.6104 54.224 92.6773 54.1407 92.6773 53.5575V53.2909H89.9944C89.9944 53.2909 89.8611 53.7575 89.8611 54.1574C89.8611 54.5573 89.9277 55.0739 90.3777 55.5238C90.8276 55.9737 92.7106 56.1737 94.6436 56.1737C96.5766 56.1737 98.6595 56.0904 99.3594 55.3738C100.076 54.6573 100.393 53.3242 100.393 52.6243C100.393 51.9245 100.159 51.5912 99.926 51.3579C99.7093 51.1413 99.0428 50.7413 96.0933 50.7413C93.4604 50.7413 93.3771 50.4914 93.3771 50.2414C93.3771 50.0415 93.4105 49.5416 95.4934 49.5416C97.5764 49.5249 97.9596 49.6249 97.9596 50.2581Z" fill="#191919"/>
</g>
<defs>
<clipPath id="clip0_2336_9549">
<rect width="100" height="100" fill="white" transform="translate(0.693726)"/>
</clipPath>
</defs>
</svg>
