<svg width="101" height="101" viewBox="0 0 101 101" fill="none" xmlns="http://www.w3.org/2000/svg">
<g clip-path="url(#clip0_2336_9578)">
<path d="M98.3797 36.9837C97.3023 36.9837 96.5266 36.1434 96.5266 35.0445C96.5266 33.8809 97.3885 33.1052 98.3797 33.1052C99.3708 33.1052 100.211 33.8809 100.211 35.0445C100.211 36.208 99.3708 36.9837 98.3797 36.9837ZM98.3797 33.45C97.5609 33.45 96.936 34.0964 96.936 35.0445C96.936 35.9279 97.4962 36.6389 98.3797 36.6389C99.1769 36.6389 99.8233 35.9925 99.8233 35.0445C99.8233 34.1179 99.1984 33.45 98.3797 33.45ZM98.0134 36.1649H97.6901V34.0102H98.4874C98.983 34.0102 99.2415 34.1826 99.2415 34.6351C99.2415 35.0229 99.0045 35.1737 98.7029 35.2168L99.2846 36.1649H98.8968L98.3581 35.2599H98.0349V36.1649H98.0134ZM98.4012 34.9367C98.6598 34.9367 98.8968 34.9152 98.8968 34.592C98.8968 34.3334 98.6382 34.3119 98.4443 34.3119H98.0134V34.9367H98.4012Z" fill="#191919"/>
<path d="M6.80459 51.8728C6.7615 52.4977 6.7615 52.9286 6.7615 53.3164C6.7615 56.2038 8.5499 58.1645 12.2345 58.1645C14.9709 58.1645 16.3284 56.333 17.3196 54.7601H24.15C21.9953 60.3408 18.44 63.3143 11.2648 63.3143C4.62833 63.3143 0.211182 59.522 0.211182 52.4546C0.211182 44.5252 5.44712 37.113 13.9151 37.113C20.8317 37.113 25.5075 40.776 25.5075 47.9728C25.5075 49.3087 25.3566 50.6661 25.1196 51.8728H6.80459ZM18.914 47.5418C18.914 44.9993 18.2892 42.2628 14.303 42.2628C10.4676 42.2628 8.52836 44.7622 7.51564 47.5418H18.914Z" fill="#191919"/>
<path d="M39.5345 37.781H44.4473L43.3914 42.349H38.5433L36.0008 54.6954C35.9146 55.2341 35.8069 55.6651 35.8069 55.859C35.8069 57.6474 37.0997 57.6905 38.1124 57.6905C38.9312 57.6905 39.75 57.6474 40.5688 57.5397L39.4052 62.8187C38.0047 62.9695 36.561 63.0557 35.1174 63.0557C31.9499 63.0557 28.524 62.043 28.6317 58.0137C28.6317 57.3888 28.7825 56.5269 28.9764 55.6651L31.756 42.349H27.2958L28.3516 37.781H32.7256L34.2555 30.2395H41.0859L39.5345 37.781Z" fill="#191919"/>
<path d="M45.6969 45.344C46.5588 39.0953 51.8594 37.1345 57.4832 37.1345C61.9003 37.1345 67.9119 38.1041 67.8258 43.6633C67.8258 44.7191 67.5887 46.3136 67.2871 47.8434L65.0677 57.8413C64.8307 58.7031 64.723 60.2545 64.723 61.2026C64.723 61.6336 64.8092 62.2153 64.96 62.6463H58.1296V60.1899C56.255 62.3015 53.3246 63.3142 50.545 63.3142C45.1151 63.3142 42.4648 60.233 42.4648 56.7855C42.4648 52.0236 46.0632 49.0501 51.9887 48.3175C58.4312 47.5418 61.4478 47.8865 61.4478 44.7191C61.4478 42.2627 58.8622 41.681 57.1169 41.681C54.6605 41.681 52.5058 42.8445 52.0748 45.344H45.6969ZM60.1119 50.7307C58.3881 51.7434 56.3196 51.7865 54.3373 51.9374C51.7516 52.2175 49.2953 52.8423 49.2953 55.9667C49.2953 57.8413 51.0837 58.7462 53.0445 58.7462C57.2677 58.7462 58.6682 55.8158 59.4439 53.1225L60.1119 50.7307Z" fill="#191919"/>
<path d="M73.5573 37.781H80.1507L79.4828 40.8622L79.569 40.9484C81.0988 38.255 83.9861 37.113 87.0242 37.113C92.9928 37.113 96.4403 40.9484 96.4403 46.917C96.4403 55.0833 92.1093 63.3143 82.9303 63.3143C80.043 63.3143 77.0264 62.0646 75.9706 59.3281H75.8198L73.2341 71.3944H66.4037L73.5573 37.781ZM77.2634 52.7778C77.2634 55.9452 78.8579 58.1645 82.1761 58.1645C87.3259 58.1645 89.6314 52.1529 89.6314 47.7788C89.6314 44.8053 87.9939 42.2412 84.7833 42.2412C79.6767 42.2628 77.2634 48.5114 77.2634 52.7778Z" fill="#191919"/>
</g>
<defs>
<clipPath id="clip0_2336_9578">
<rect width="100" height="100" fill="white" transform="translate(0.211182 0.817017)"/>
</clipPath>
</defs>
</svg>
