<svg width="101" height="100" viewBox="0 0 101 100" fill="none" xmlns="http://www.w3.org/2000/svg">
<g clip-path="url(#clip0_2336_9557)">
<path d="M35.8598 50.2487C36.0288 50.6166 36.1879 50.9944 36.337 51.3821C36.4861 50.9845 36.6452 50.6066 36.8242 50.2288C36.9932 49.861 37.1721 49.4931 37.3511 49.1451L42.372 39.2525C42.4615 39.0835 42.5509 38.9542 42.6504 38.8548C42.7399 38.7653 42.8492 38.6957 42.9685 38.646C43.0878 38.5963 43.2171 38.5764 43.3662 38.5764C43.5154 38.5764 43.6844 38.5764 43.8832 38.5764H47.3432V58.123H43.3463V46.8882C43.3463 46.3414 43.3762 45.7548 43.4259 45.1185L38.2459 55.1702C38.0868 55.4883 37.8681 55.717 37.5997 55.886C37.3312 56.0451 37.0131 56.1246 36.6651 56.1246H36.0487C35.7007 56.1246 35.3925 56.0451 35.1141 55.886C34.8456 55.7269 34.6269 55.4883 34.4678 55.1702L29.2382 45.0986C29.2779 45.4167 29.2978 45.725 29.3177 46.0332C29.3376 46.3414 29.3475 46.6297 29.3475 46.8882V58.133H25.3507V38.5864H28.8106C29.0095 38.5864 29.1785 38.5864 29.3276 38.5864C29.4768 38.5864 29.606 38.6062 29.7253 38.656C29.8446 38.7057 29.9441 38.7653 30.0435 38.8647C30.133 38.9542 30.2324 39.0934 30.3219 39.2624L35.3527 49.1948C35.5217 49.5329 35.6907 49.8809 35.8598 50.2487Z" fill="#191919"/>
<path d="M68.7788 48.3497C68.7788 49.1948 68.6893 50.0001 68.5203 50.7756C68.3413 51.5511 68.0928 52.2769 67.7647 52.953C67.4366 53.6291 67.0389 54.2654 66.5517 54.8421C66.0745 55.4287 65.5276 55.9357 64.9212 56.3831L69.8724 61.7917H66.1441C65.6072 61.7917 65.12 61.7222 64.6826 61.5929C64.2451 61.4637 63.8573 61.2051 63.5193 60.8075L61.0834 58.0932C60.6857 58.1727 60.288 58.2324 59.8804 58.2821C59.4728 58.3219 59.0552 58.3517 58.6277 58.3517C57.1065 58.3517 55.7245 58.0932 54.4718 57.5861C53.219 57.0791 52.1453 56.3732 51.2604 55.4684C50.3656 54.5736 49.6796 53.5098 49.1924 52.2968C48.7052 51.0839 48.4567 49.7615 48.4567 48.3497C48.4567 46.9379 48.7052 45.6255 49.1924 44.4026C49.6796 43.1896 50.3656 42.1258 51.2604 41.231C52.1552 40.3362 53.219 39.6303 54.4718 39.1232C55.7245 38.6162 57.1065 38.3577 58.6277 38.3577C60.1488 38.3577 61.5308 38.6162 62.7836 39.1332C64.0363 39.6502 65.1001 40.3561 65.985 41.2509C66.8699 42.1457 67.5559 43.1996 68.0431 44.4225C68.5302 45.6355 68.7788 46.9379 68.7788 48.3497ZM64.1357 48.3497C64.1357 47.3853 64.0065 46.5104 63.7579 45.7349C63.5094 44.9594 63.1514 44.3032 62.6742 43.7663C62.2069 43.2294 61.6303 42.8218 60.9542 42.5334C60.2781 42.2451 59.5026 42.1059 58.6277 42.1059C57.7527 42.1059 56.9673 42.2451 56.2813 42.5334C55.5953 42.8218 55.0186 43.2294 54.5513 43.7663C54.084 44.3032 53.7261 44.9594 53.4676 45.7349C53.219 46.5104 53.0898 47.3754 53.0898 48.3497C53.0898 49.3241 53.219 50.199 53.4676 50.9745C53.7162 51.75 54.0741 52.4062 54.5513 52.9431C55.0186 53.48 55.5953 53.8876 56.2813 54.1759C56.9673 54.4543 57.7428 54.6034 58.6277 54.6034C59.4927 54.6034 60.2682 54.4642 60.9542 54.1759C61.6303 53.8975 62.2069 53.48 62.6742 52.9431C63.1415 52.4062 63.4994 51.75 63.7579 50.9745C64.0065 50.199 64.1357 49.3241 64.1357 48.3497Z" fill="#191919"/>
<path d="M83.3445 38.5764V42.1755H78.0452V58.133H73.5115V42.1755H68.2123V38.5764H83.3445Z" fill="#191919"/>
<path d="M100.694 38.5764V42.1755H95.1956V58.133H90.6619V42.1755H85.3627V38.5764H100.694Z" fill="#191919"/>
<path d="M0.75338 49.6421C0.733495 49.6421 0.71361 49.6421 0.693726 49.6421V57.3573C0.693726 57.9141 1.15107 58.3715 1.70784 58.3715H9.65177C9.58217 53.5494 5.61518 49.6421 0.75338 49.6421Z" fill="#191919"/>
<path d="M0.75338 43.2791C0.733495 43.2791 0.71361 43.2791 0.693726 43.2791V46.56C7.24572 46.5899 12.5748 51.8593 12.6444 58.3715H16.0447C15.985 50.0398 9.14471 43.2791 0.75338 43.2791Z" fill="#191919"/>
<path d="M20.8667 57.3673V50.3977C18.5601 44.7504 13.917 40.2963 8.13059 38.2084H1.70784C1.15107 38.2084 0.693726 38.6657 0.693726 39.2225V40.1968C10.7753 40.2267 18.9777 48.3496 19.0373 58.3714H19.8526C20.4094 58.3714 20.8667 57.924 20.8667 57.3673Z" fill="#191919"/>
<path d="M18.2123 41.0221C19.1469 41.9566 20.1013 43.1398 20.8669 44.1837V39.2125C20.8669 38.6558 20.4195 38.2084 19.8627 38.2084H14.7424C15.9256 39.0336 17.1584 39.9781 18.2123 41.0221Z" fill="#191919"/>
</g>
<defs>
<clipPath id="clip0_2336_9557">
<rect width="100" height="100" fill="white" transform="translate(0.693726)"/>
</clipPath>
</defs>
</svg>
