<svg width="101" height="101" viewBox="0 0 101 101" fill="none" xmlns="http://www.w3.org/2000/svg">
<g clip-path="url(#clip0_2336_13510)">
<path d="M87.5935 42.7037C87.9642 42.7023 88.3348 42.6964 88.7055 42.6903C88.9425 42.6892 89.1795 42.6883 89.4166 42.6878C89.5267 42.6854 89.6368 42.6831 89.7503 42.6807C90.2972 42.6845 90.5258 42.695 90.9681 43.044C91.3969 43.6149 91.3826 44.0959 91.3215 44.7947C91.1364 45.2883 91.0411 45.4617 90.6015 45.7547C90.3559 45.7865 90.3559 45.7865 90.0711 45.7892C89.9106 45.7916 89.9106 45.7916 89.7468 45.794C89.6314 45.7947 89.5159 45.7953 89.3969 45.796C89.2774 45.7977 89.158 45.7995 89.0349 45.8013C88.6521 45.8069 88.2694 45.811 87.8866 45.8147C87.385 45.8197 86.8835 45.8261 86.382 45.8335C86.2109 45.8344 86.2109 45.8344 86.0364 45.8354C85.1889 45.8479 84.3642 45.8854 83.6342 46.3472C83.2835 46.9016 83.2608 47.3982 83.4017 48.0346C83.6147 48.41 83.8591 48.5658 84.2417 48.7546C85.3546 49.0348 86.5016 49.0298 87.6413 49.0312C87.9419 49.0317 88.2424 49.0337 88.543 49.0361C89.3964 49.0427 90.2499 49.0464 91.1033 49.0494C91.6288 49.0513 92.1542 49.0549 92.6796 49.0595C92.8773 49.0609 93.075 49.0616 93.2727 49.0617C95.3815 49.0618 97.5697 49.217 99.1939 50.7346C100.194 51.8098 100.244 53.1199 100.201 54.5144C100.198 54.6411 100.198 54.6411 100.195 54.7704C100.135 55.6207 99.7412 56.3745 99.1888 57.0119C99.0873 57.0985 98.9858 57.1851 98.8813 57.2744C98.7699 57.3758 98.6585 57.4773 98.5438 57.5819C97.0262 58.8043 94.9704 58.8531 93.1088 58.8479C92.9373 58.8479 92.7657 58.8479 92.5942 58.848C92.1304 58.848 91.6666 58.8473 91.2028 58.8465C90.7174 58.8457 90.2319 58.8457 89.7465 58.8455C88.8282 58.8452 87.9098 58.8442 86.9915 58.843C85.9456 58.8416 84.8997 58.841 83.8539 58.8404C81.7032 58.8391 79.5526 58.837 77.4019 58.8343C77.405 58.9481 77.4082 59.0619 77.4114 59.1792C77.4217 59.6023 77.4292 60.0253 77.4349 60.4485C77.4379 60.6315 77.442 60.8145 77.4472 60.9974C77.4545 61.2608 77.4579 61.5239 77.4605 61.7874C77.4636 61.9457 77.4668 62.1041 77.47 62.2672C77.4019 62.6742 77.4019 62.6742 77.1236 62.9659C76.7135 63.206 76.4349 63.2143 75.9619 63.2067C75.8184 63.2065 75.6749 63.2064 75.527 63.2062C75.097 63.151 74.8661 63.0529 74.522 62.7942C74.3293 62.4088 74.3822 61.9887 74.3808 61.5652C74.38 61.463 74.3792 61.3607 74.3784 61.2554C74.376 60.9161 74.3746 60.5769 74.3734 60.2377C74.3729 60.122 74.3724 60.0064 74.3719 59.8872C74.3694 59.2751 74.3677 58.663 74.3666 58.0509C74.3652 57.4179 74.3611 56.7849 74.3564 56.1519C74.3532 55.6659 74.3522 55.1798 74.3518 54.6937C74.3512 54.4603 74.3498 54.2269 74.3476 53.9935C74.3447 53.6672 74.3448 53.3409 74.3456 53.0146C74.3441 52.9179 74.3425 52.8213 74.3409 52.7217C74.3449 52.2945 74.3639 52.0456 74.623 51.6983C75.1828 51.3011 75.817 51.3292 76.4696 51.44C77.1172 51.5898 77.1172 51.5898 77.4019 51.8745C77.4229 52.1756 77.4297 52.4633 77.4253 52.7642C77.425 52.8517 77.4247 52.9393 77.4243 53.0295C77.423 53.3095 77.42 53.5895 77.4169 53.8695C77.4157 54.0591 77.4146 54.2488 77.4136 54.4385C77.411 54.9038 77.4068 55.3691 77.4019 55.8344C79.5205 55.8243 81.6391 55.8129 83.7576 55.7999C84.7415 55.7939 85.7253 55.7883 86.7091 55.7838C87.5671 55.7798 88.4251 55.775 89.2832 55.7693C89.737 55.7663 90.1908 55.7636 90.6446 55.762C91.0729 55.7605 91.5011 55.7578 91.9294 55.7543C92.1592 55.7527 92.3891 55.7523 92.619 55.7519C94.3902 55.7522 94.3902 55.7522 96.0014 55.1144C96.258 54.7206 96.2805 54.3788 96.2864 53.9145C96.2898 53.7907 96.2932 53.667 96.2967 53.5395C96.2259 53.0982 96.1168 52.9813 95.7614 52.7145C94.9524 52.2518 94.1483 52.3016 93.2344 52.3015C93.0676 52.3001 92.9009 52.2985 92.7341 52.2967C92.2947 52.2924 91.8553 52.29 91.4159 52.2882C90.6371 52.2848 89.8583 52.2794 89.0795 52.2715C88.9955 52.2707 88.9114 52.2699 88.8248 52.269C82.6849 52.2005 82.6849 52.2005 80.617 50.3183C79.6086 49.176 79.6031 47.8161 79.6603 46.3782C79.703 45.8549 79.8619 45.4599 80.1618 45.0347C80.2382 44.9236 80.2382 44.9236 80.316 44.8102C81.1615 43.7151 82.3185 43.2666 83.6417 42.9948C83.7927 42.9629 83.7927 42.9629 83.9466 42.9303C85.1561 42.7089 86.3672 42.706 87.5935 42.7037Z" fill="#191919"/>
<path d="M64.6544 42.5986C64.9831 42.5987 65.3118 42.5981 65.6405 42.5975C66.4154 42.5962 67.1903 42.5961 67.9653 42.5969C68.7625 42.5976 69.5597 42.5961 70.3569 42.5936C71.0452 42.5915 71.7335 42.5907 72.4219 42.5911C72.8314 42.5913 73.2409 42.591 73.6504 42.5894C74.1055 42.5879 74.5606 42.5887 75.0157 42.5901C75.1502 42.5892 75.2847 42.5882 75.4232 42.5873C76.2039 42.5926 76.7743 42.6472 77.3795 43.1897C77.6432 43.7171 77.7275 44.2576 77.5628 44.8298C77.2802 45.4578 77.2802 45.4578 76.8911 45.6449C76.5483 45.7592 76.2881 45.7853 75.928 45.7865C75.7398 45.788 75.7398 45.788 75.5478 45.7895C75.4114 45.7894 75.275 45.7892 75.1345 45.7891C74.9899 45.7899 74.8452 45.7908 74.6961 45.7916C74.3819 45.7932 74.0677 45.7944 73.7535 45.7949C73.2549 45.7957 72.7564 45.7984 72.2578 45.8012C71.1976 45.8071 70.1374 45.811 69.0772 45.8147C67.9365 45.8186 66.7958 45.823 65.6551 45.8296C65.2415 45.8319 64.828 45.8337 64.4145 45.8344C61.3027 45.6846 58.7024 46.4944 58.4809 46.746C58.2595 46.9976 58.2776 47.2814 58.2779 47.6598C58.2771 47.8048 58.2764 47.9498 58.2756 48.0991C58.2767 48.2559 58.2778 48.4126 58.2789 48.5741C58.279 48.7366 58.2789 48.899 58.2788 49.0615C58.2788 49.4019 58.28 49.7423 58.2822 50.0828C58.2849 50.5187 58.285 50.9546 58.2842 51.3905C58.2838 51.726 58.2846 52.0615 58.2857 52.397C58.2864 52.6357 58.2863 52.8745 58.2861 53.1132C58.2878 53.3313 58.2878 53.3313 58.2896 53.5537C58.2904 53.7455 58.2904 53.7455 58.2913 53.9412C58.3229 54.2781 58.3797 54.4724 58.5625 54.7544C59.5579 55.4974 60.6693 55.6117 61.8643 55.6936C62.2265 55.7188 62.5881 55.7491 62.9499 55.7795C63.0738 55.7899 63.1977 55.8003 63.3254 55.811C63.4168 55.8187 63.5082 55.8264 63.6024 55.8344C63.6005 55.7163 63.5986 55.5982 63.5967 55.4766C63.5901 55.0385 63.586 54.6004 63.5826 54.1623C63.5808 53.9727 63.5783 53.7831 63.5752 53.5935C63.5709 53.3209 63.5688 53.0484 63.5672 52.7759C63.5654 52.6911 63.5635 52.6063 63.5616 52.519C63.5615 52.1725 63.5629 51.933 63.7599 51.6409C64.1076 51.4238 64.4035 51.4747 64.8023 51.5145C65.1844 51.6603 65.1844 51.6603 65.5748 51.867C65.6462 51.9044 65.7176 51.9417 65.7911 51.9802C66.0229 52.1027 66.2527 52.228 66.4823 52.3545C66.5606 52.3975 66.6389 52.4405 66.7195 52.4848C67.2835 52.7961 67.8433 53.1143 68.4022 53.4344C68.5336 53.5095 68.6649 53.5845 68.8002 53.6618C69.0658 53.8136 69.3312 53.9656 69.5966 54.1179C69.9841 54.3394 70.3733 54.5579 70.7628 54.776C70.8841 54.8441 71.0055 54.9122 71.1305 54.9823C71.3705 55.117 71.6108 55.2513 71.8512 55.3852C73.8509 56.5082 73.8509 56.5082 74.0796 57.0418C74.0308 57.5005 73.8722 57.6569 73.5621 57.9943C73.2498 58.2105 73.2498 58.2105 72.896 58.4087C72.766 58.4824 72.636 58.5562 72.502 58.6322C72.3643 58.7088 72.2265 58.7854 72.0846 58.8643C71.9419 58.9449 71.7993 59.0256 71.6567 59.1065C71.377 59.2651 71.097 59.4234 70.8169 59.5814C70.3652 59.838 69.9187 60.1021 69.4747 60.3717C69.3369 60.455 69.1991 60.5383 69.0613 60.6216C68.9938 60.6623 68.9263 60.7031 68.8568 60.7451C68.1949 61.1433 67.5284 61.5337 66.8607 61.9221C66.5975 62.077 66.3367 62.2354 66.0759 62.3943C65.9064 62.4952 65.7369 62.596 65.5673 62.6967C65.4907 62.7445 65.414 62.7924 65.3351 62.8417C64.9348 63.0758 64.6897 63.1543 64.222 63.1452C63.8424 63.0342 63.8424 63.0342 63.6024 62.6742C63.5818 62.3777 63.5745 62.0952 63.5789 61.799C63.5793 61.7143 63.5796 61.6296 63.58 61.5423C63.5813 61.2721 63.5843 61.0019 63.5874 60.7317C63.5886 60.5484 63.5897 60.365 63.5907 60.1817C63.5933 59.7325 63.5974 59.2834 63.6024 58.8343C63.5295 58.8355 63.4565 58.8368 63.3814 58.8381C57.8103 58.921 57.8103 58.921 55.7126 57.1093C54.5738 55.7807 54.4253 54.2455 54.4391 52.5363C54.439 52.3897 54.4389 52.2432 54.4389 52.0921C54.4392 51.7852 54.4403 51.4782 54.4423 51.1713C54.4452 50.704 54.4448 50.2367 54.444 49.7694C54.4446 49.4692 54.4455 49.1691 54.4466 48.8689C54.4464 48.7308 54.4463 48.5927 54.4462 48.4503C54.4595 46.9275 54.6928 45.5696 55.7426 44.4047C57.9846 42.3226 61.8215 42.5963 64.6544 42.5986Z" fill="#191919"/>
<path d="M1.42253 44.4349C3.74295 42.2554 7.82993 42.592 10.779 42.597C11.2438 42.5974 11.7087 42.5942 12.1735 42.5911C19.4417 42.5725 19.4416 42.5732 22.0085 45.0726C22.6392 46.1156 22.6191 47.2691 22.6159 48.4505C22.6164 48.6285 22.6171 48.8066 22.6178 48.9847C22.6189 49.3561 22.619 49.7275 22.6178 50.0989C22.6165 50.5715 22.6182 51.0443 22.6217 51.5169C22.624 51.884 22.6244 52.2513 22.6237 52.6185C22.6237 52.7925 22.6241 52.9669 22.6257 53.1409C22.6359 54.5259 22.4699 55.8619 21.484 56.9144C19.4193 58.9038 16.2373 58.7684 13.5856 58.7493C13.3065 58.7486 13.0269 58.7487 12.7477 58.7483C12.0209 58.747 11.2939 58.7436 10.5671 58.7396C9.82209 58.7358 9.07668 58.7336 8.33171 58.7317C6.87596 58.7279 5.42024 58.7218 3.96452 58.7142C3.9664 58.8237 3.96844 58.9334 3.97038 59.0462C3.97653 59.4543 3.98064 59.8626 3.98405 60.2708C3.98585 60.4471 3.98874 60.6238 3.99186 60.8001C3.99624 61.054 3.99809 61.3079 3.99967 61.5618C4.00156 61.7145 4.00359 61.8674 4.00553 62.0247C3.96169 62.4641 3.86952 62.6859 3.60417 63.0345C3.11461 63.3229 2.59932 63.3186 2.0446 63.3196C1.96085 63.3226 1.87696 63.3254 1.79069 63.3284C1.36604 63.3308 1.10684 63.287 0.739908 63.0687C0.316236 62.6123 0.214057 62.1793 0.213541 61.5667C0.212865 61.443 0.212284 61.3192 0.211588 61.1917C0.212073 61.0571 0.213041 60.9222 0.213541 60.7835C0.21312 60.6406 0.212998 60.4971 0.212564 60.3499C0.21169 59.9587 0.211803 59.5673 0.212564 59.1761C0.213173 58.7653 0.211964 58.3545 0.211588 57.9437C0.211151 57.2529 0.212398 56.5621 0.213541 55.8714C0.214842 55.076 0.213888 54.2801 0.212564 53.4847C0.21147 52.7995 0.211939 52.1141 0.212564 51.429C0.212936 51.0208 0.212387 50.6126 0.211588 50.2044C0.210974 49.7478 0.212211 49.2909 0.213541 48.8343C0.213056 48.7015 0.212087 48.5687 0.211588 48.4319C0.219742 46.9099 0.364236 45.5978 1.42253 44.4349ZM9.31706 45.723C7.76483 45.7184 5.77708 45.5518 4.44401 46.4749C4.11514 46.8107 3.97477 47.0044 3.9069 47.4749C3.908 47.6316 3.90876 47.7837 3.90983 47.9358C3.90961 48.2033 3.91024 48.4711 3.91374 48.7386C3.91632 48.929 3.91773 49.1194 3.91862 49.3099C3.91986 49.8101 3.92317 50.3107 3.92838 50.8108C3.93382 51.329 3.93662 51.8474 3.93913 52.3655C3.94434 53.4816 3.95339 54.5981 3.96452 55.7142C5.37066 55.7167 6.77712 55.7187 8.18327 55.72C8.90067 55.7206 9.61821 55.7217 10.3356 55.723C11.0378 55.7243 11.7399 55.7254 12.4421 55.7259C12.7097 55.726 12.9781 55.7257 13.2458 55.7259C13.6299 55.7268 14.014 55.7278 14.3981 55.7278H15.2223C16.317 55.718 17.4032 55.6261 18.3493 55.0091C18.7116 54.6467 18.9392 54.333 19.0104 53.8177C19.0111 53.6913 19.0117 53.5682 19.0124 53.4456C19.0139 53.3018 19.0157 53.1623 19.0173 53.0228C19.0169 52.8685 19.0166 52.7184 19.0163 52.5687C19.0179 52.1682 19.0193 51.7669 19.0182 51.3665C19.0167 50.9482 19.0168 50.5299 19.0202 50.1116C19.0229 49.7845 19.0243 49.4574 19.0241 49.1302C19.0239 48.9706 19.0233 48.8153 19.0231 48.6605C19.0245 48.5062 19.0266 48.3561 19.028 48.2064C19.0268 48.0626 19.0252 47.923 19.0241 47.7835C19.024 47.1801 18.9013 46.913 18.484 46.4749C17.4211 45.7157 17.4207 45.7155 14.5465 45.722C14.3525 45.7225 14.1585 45.7231 13.9645 45.723H11.1549C10.7412 45.7218 10.3274 45.7216 9.91374 45.722C9.71491 45.7223 9.51589 45.7228 9.31706 45.723Z" fill="#191919"/>
<path d="M26.8234 38.33C26.9781 38.3352 27.1328 38.3405 27.2921 38.3459C27.8269 38.4563 27.9833 38.6139 28.3234 39.0349C28.3985 39.4051 28.3985 39.4051 28.3987 39.8274C28.4 39.9444 28.4 39.9444 28.4013 40.0638C28.4034 40.3242 28.4013 40.5845 28.3991 40.845C28.3997 41.0321 28.4006 41.2191 28.4017 41.4062C28.4039 41.9138 28.4024 42.4212 28.4 42.9287C28.398 43.46 28.3991 43.9912 28.3997 44.5225C28.4003 45.4146 28.3984 46.3067 28.395 47.1989C28.3912 48.2301 28.3912 49.2613 28.3932 50.2926C28.3951 51.2848 28.3943 52.2771 28.3923 53.2693C28.3914 53.6915 28.3916 54.1137 28.3925 54.5359C28.3934 55.0331 28.3919 55.5302 28.3886 56.0274C28.3878 56.2098 28.3878 56.3923 28.3887 56.5747C28.3897 56.8238 28.3878 57.0728 28.3851 57.3219C28.3848 57.4613 28.3845 57.6007 28.3841 57.7443C28.3105 58.1925 28.1572 58.392 27.8434 58.7144C27.2346 59.0188 26.1662 58.9122 25.5063 58.7706C25.21 58.6546 25.0047 58.5356 24.8254 58.2693C24.6924 57.9105 24.6921 57.6091 24.6906 57.2263C24.6894 57.0682 24.6882 56.91 24.6869 56.7471C24.6868 56.572 24.6868 56.397 24.6867 56.2219C24.6858 56.0374 24.6848 55.8529 24.6837 55.6684C24.681 55.1673 24.68 54.6663 24.6794 54.1652C24.6789 53.8521 24.6782 53.539 24.6773 53.2259C24.6744 52.1335 24.6728 51.0411 24.6724 49.9486C24.672 48.9306 24.6684 47.9125 24.6634 46.8944C24.6592 46.0202 24.6573 45.1459 24.6573 44.2716C24.6572 43.7495 24.6561 43.2275 24.6527 42.7054C24.6496 42.2143 24.6493 41.7233 24.6512 41.2321C24.6514 41.0521 24.6506 40.8721 24.6487 40.692C24.6335 39.1623 24.6335 39.1623 25.0104 38.6889C25.5805 38.2265 26.1101 38.2972 26.8234 38.33Z" fill="#191919"/>
<path d="M44.8644 42.5897C47.3669 42.5755 49.9543 42.9524 51.8429 44.7421C52.6592 45.615 52.7019 46.5282 52.7111 47.663C52.712 47.7776 52.713 47.8925 52.714 48.0106C52.7156 48.2525 52.7169 48.4944 52.7179 48.7362C52.7193 48.9833 52.7222 49.2304 52.7257 49.4774C52.7308 49.8351 52.7323 50.193 52.7335 50.5507C52.7356 50.6605 52.7382 50.7706 52.7404 50.8837C52.738 51.5702 52.6549 51.9491 52.2023 52.4745C51.876 52.6375 51.6205 52.6096 51.255 52.6093C51.1042 52.6094 50.9533 52.6091 50.798 52.6093C50.63 52.6088 50.462 52.6087 50.2941 52.6083C50.118 52.6083 49.9419 52.6082 49.7657 52.6083C49.2866 52.6083 48.8074 52.6072 48.3282 52.6063C47.8278 52.6056 47.3268 52.6055 46.8263 52.6054C45.8784 52.605 44.9305 52.6046 43.9825 52.6034C42.9033 52.6021 41.8235 52.6011 40.7443 52.6005C38.5239 52.5992 36.3035 52.5973 34.0831 52.5946C34.1389 52.8063 34.1955 53.0179 34.2521 53.2294C34.2834 53.3473 34.3145 53.4654 34.3468 53.5868C34.5542 54.2921 34.8781 54.6389 35.4933 55.0165C36.6542 55.5939 37.8153 55.7153 39.0929 55.7411C39.1754 55.7429 39.2579 55.7451 39.3429 55.747C39.7635 55.7555 40.1839 55.7597 40.6046 55.7577C40.7608 55.7593 40.9173 55.761 41.0782 55.7626C41.2187 55.7622 41.3593 55.7611 41.504 55.7606C41.9935 55.8555 42.1692 56.0562 42.4825 56.4345C42.6499 56.7692 42.6415 57.0583 42.6554 57.4315C42.6627 57.5671 42.6704 57.703 42.6779 57.8427C42.5934 58.2861 42.4521 58.4355 42.1017 58.7099C41.7177 58.9279 41.3188 58.9125 40.8907 58.9013C40.7958 58.901 40.7005 58.9006 40.6027 58.9003C40.4015 58.8991 40.2003 58.8964 39.9991 58.8925C39.699 58.8866 39.399 58.8853 39.0988 58.8847C38.114 58.8778 37.1377 58.8326 36.1583 58.7274C36.0309 58.714 36.0307 58.7139 35.9005 58.7001C33.9741 58.4712 32.4699 57.7456 31.1925 56.2606C30.5546 55.409 30.3501 54.5297 30.3458 53.4745C30.3451 53.344 30.3447 53.2134 30.3439 53.079C30.3437 52.9395 30.343 52.7998 30.3429 52.6561C30.3425 52.5109 30.3423 52.3653 30.3419 52.2157C30.3413 51.9088 30.3409 51.6017 30.3409 51.2948C30.3407 50.8277 30.3383 50.3605 30.3361 49.8934C30.3357 49.5945 30.3362 49.295 30.3361 48.996C30.3352 48.8577 30.334 48.7195 30.3331 48.577C30.3374 47.0586 30.541 46.0065 31.5822 44.8729C33.6976 42.8159 36.9456 42.5957 39.7482 42.5985C39.9429 42.5981 40.1384 42.5981 40.3331 42.5975C40.7386 42.5967 41.1445 42.5959 41.5499 42.5966C42.0639 42.5973 42.5779 42.5954 43.0919 42.5927C43.4935 42.5909 43.8955 42.5913 44.297 42.5917C44.4861 42.5916 44.6753 42.591 44.8644 42.5897ZM49.0831 46.955C46.5065 44.6572 37.1465 44.7423 34.3234 46.7147C33.9634 47.2017 33.963 47.2017 33.963 49.3544H49.2032C49.2033 48.5536 49.441 47.6713 49.0831 46.955Z" fill="#191919"/>
</g>
<defs>
<clipPath id="clip0_2336_13510">
<rect width="100" height="100" fill="white" transform="translate(0.211304 0.817017)"/>
</clipPath>
</defs>
</svg>
