<svg width="101" height="101" viewBox="0 0 101 101" fill="none" xmlns="http://www.w3.org/2000/svg">
<g clip-path="url(#clip0_2336_13559)">
<g clip-path="url(#clip1_2336_13559)">
<path d="M24.8882 28.0229C49.7448 28.0229 74.6015 28.0229 100.211 28.0229C100.211 43.0671 100.211 58.1112 100.211 73.6112C75.3547 73.6112 50.4981 73.6112 24.8882 73.6112C24.8882 72.7124 24.8882 71.8137 24.8882 70.8877C48.8529 70.8877 72.8177 70.8877 97.5086 70.8877C97.5086 57.6411 97.5086 44.3945 97.5086 30.7464C73.5439 30.7464 49.5791 30.7464 24.8882 30.7464C24.8882 29.8477 24.8882 28.9489 24.8882 28.0229Z" fill="#191919"/>
<path d="M65.6637 35.246C67.2536 35.246 68.8435 35.246 70.4816 35.246C71.3531 37.0556 72.2177 38.8662 73.0548 40.6922C73.5745 41.825 74.1016 42.9542 74.6311 44.0824C74.7161 44.2636 74.8011 44.4447 74.8861 44.6259C75.0141 44.8988 75.1422 45.1716 75.2702 45.4444C75.9891 46.9765 76.7059 48.5096 77.4202 50.0438C77.4952 50.205 77.5703 50.3661 77.6454 50.5273C77.8634 50.9953 78.0811 51.4635 78.2981 51.932C78.3957 52.1426 78.4936 52.353 78.5916 52.5633C78.65 52.6898 78.7085 52.8163 78.7687 52.9466C78.8195 53.0561 78.8703 53.1657 78.9226 53.2786C79.0672 53.6172 79.1838 53.959 79.2947 54.3101C79.3723 54.3101 79.4498 54.3101 79.5297 54.3101C79.5703 54.1722 79.6109 54.0342 79.6528 53.892C79.9081 53.1218 80.2636 52.3983 80.6113 51.6674C80.8249 51.2183 81.0363 50.7681 81.2478 50.3179C81.2912 50.2257 81.3346 50.1334 81.3793 50.0384C81.8031 49.1354 82.2137 48.2267 82.6217 47.3165C83.282 45.8449 83.9517 44.3779 84.6267 42.9131C85.3343 41.3772 86.0406 39.8407 86.7425 38.3021C86.8292 38.1121 86.916 37.922 87.0028 37.732C87.1228 37.4692 87.2426 37.2064 87.3624 36.9435C87.3972 36.8674 87.432 36.7912 87.4678 36.7128C87.6891 36.2267 87.8987 35.7379 88.1079 35.246C89.6978 35.246 91.2877 35.246 92.9257 35.246C92.9257 45.5229 92.9257 55.7998 92.9257 66.3881C91.3746 66.3881 89.8235 66.3881 88.2254 66.3881C88.1866 59.7061 88.1478 53.0242 88.1079 46.1398C87.6038 47.2339 87.0997 48.328 86.5803 49.4553C86.1979 50.2556 85.8155 51.0558 85.4318 51.8554C85.0579 52.6381 84.6943 53.4253 84.3329 54.2139C83.7206 55.5495 83.0995 56.8807 82.4739 58.21C82.3719 58.4269 82.2699 58.6438 82.1681 58.8608C82.0251 59.165 81.8819 59.4692 81.7385 59.7732C81.6952 59.8657 81.6518 59.9582 81.6071 60.0534C81.3058 60.6908 81.3058 60.6908 81.1749 60.8227C80.9056 60.8332 80.636 60.8354 80.3665 60.8343C80.2455 60.8341 80.2455 60.8341 80.122 60.8338C79.8634 60.8331 79.6048 60.8317 79.3461 60.8301C79.1712 60.8296 78.9962 60.829 78.8212 60.8285C78.3915 60.8272 77.9618 60.8252 77.5321 60.8227C77.4921 60.7392 77.4521 60.6556 77.4109 60.5695C76.5913 58.8572 75.7704 57.1455 74.9469 55.435C74.3557 54.2071 73.7656 52.9787 73.1769 51.7495C72.3189 49.9579 71.4589 48.1673 70.5991 46.3766C70.5603 52.9804 70.5215 59.5842 70.4816 66.3881C68.8917 66.3881 67.3018 66.3881 65.6637 66.3881C65.6637 56.1112 65.6637 45.8343 65.6637 35.246Z" fill="#191919"/>
<path d="M0.211304 35.246C16.475 35.246 16.475 35.246 19.4088 38.1244C21.2842 40.1161 21.916 42.6295 21.8623 45.3095C21.7705 47.7458 20.8114 49.8614 19.1302 51.5867C19.0507 51.6697 18.9712 51.7528 18.8892 51.8383C17.2989 53.3835 14.914 54.2089 12.729 54.2052C12.6428 54.2052 12.5565 54.2052 12.4676 54.2052C12.1905 54.2051 11.9134 54.2042 11.6363 54.2033C11.4643 54.2031 11.2924 54.203 11.1204 54.2029C10.4854 54.2023 9.85042 54.2007 9.21542 54.1991C7.08506 54.1955 7.08506 54.1955 4.91166 54.1917C4.91166 58.2165 4.91166 62.2413 4.91166 66.3881C3.36054 66.3881 1.80942 66.3881 0.211304 66.3881C0.211304 56.1112 0.211304 45.8343 0.211304 35.246ZM4.91166 39.6272C4.91166 42.9877 4.91166 46.3482 4.91166 49.8105C6.81299 49.8252 6.81299 49.8252 8.75273 49.8401C9.14985 49.8444 9.54697 49.8488 9.95613 49.8532C10.2752 49.8546 10.5943 49.8558 10.9133 49.8568C10.994 49.858 11.0747 49.8593 11.1578 49.8605C12.8488 49.8851 14.4157 49.569 15.722 48.4201C16.8141 47.2794 17.0736 45.8225 17.0477 44.3016C16.9986 43.1468 16.6313 42.1253 15.84 41.2849C15.7651 41.2034 15.6903 41.1219 15.6132 41.0379C14.6055 40.0373 13.2843 39.611 11.8886 39.6137C11.8117 39.6137 11.7347 39.6137 11.6554 39.6137C11.4081 39.6138 11.1607 39.6147 10.9133 39.6156C10.6855 39.6158 10.6855 39.6158 10.4531 39.616C9.88632 39.6166 9.31952 39.6182 8.75273 39.6198C7.48517 39.6222 6.21762 39.6247 4.91166 39.6272Z" fill="#191919"/>
<path d="M44.6516 37.5921C44.8403 37.7571 45.0289 37.9224 45.2171 38.0879C45.3726 38.2079 45.5289 38.3269 45.6872 38.4432C45.501 38.906 45.1858 39.2156 44.838 39.5588C44.7485 39.6485 44.7485 39.6485 44.6572 39.74C44.4674 39.9299 44.2768 40.119 44.0861 40.3081C43.9569 40.4371 43.8278 40.5662 43.6987 40.6953C43.3829 41.0109 43.0664 41.3258 42.7494 41.6403C42.4246 41.4813 42.1612 41.3169 41.8828 41.0852C39.706 39.433 37.0171 39.0759 34.361 39.4276C33.1271 39.6563 32.0886 40.2671 31.301 41.2494C30.519 42.4011 30.3543 43.5954 30.5285 44.9558C30.781 46.0288 31.3117 46.7015 32.2251 47.2796C33.8083 48.2463 35.8167 48.355 37.6097 48.609C40.4995 49.0218 43.3829 49.6214 45.2612 52.1048C46.7128 54.2496 47.0989 56.945 46.6644 59.4856C46.341 61.0135 45.6505 62.2672 44.6296 63.4279C44.5685 63.5005 44.5075 63.5732 44.4446 63.6481C42.4568 65.8478 39.2106 66.6189 36.3714 66.7563C31.9121 66.9079 28 65.8024 24.6531 62.7174C24.8415 62.2432 25.1726 61.9268 25.528 61.5759C25.5902 61.5135 25.6525 61.451 25.7166 61.3867C25.9148 61.1883 26.1139 60.9908 26.3129 60.7932C26.4477 60.6585 26.5825 60.5238 26.7173 60.389C27.047 60.0593 27.3775 59.7304 27.7083 59.4019C28.0865 59.5843 28.3676 59.7906 28.6851 60.068C31.0721 62.0135 34.1434 62.5305 37.1433 62.2155C38.6557 62.0007 40.0569 61.5315 41.0795 60.3413C41.8688 59.2462 42.0754 57.9956 41.8718 56.6771C41.7005 55.8584 41.4411 55.273 40.8693 54.6655C40.7786 54.567 40.7786 54.567 40.6861 54.4666C39.6602 53.47 38.178 53.3592 36.8321 53.1691C36.3195 53.0965 35.8078 53.0187 35.2959 52.9416C35.1966 52.9267 35.0974 52.9119 34.9951 52.8965C32.1304 52.4658 29.0077 51.8694 27.1541 49.3832C25.7052 47.3166 25.3995 44.7224 25.7873 42.2587C26.2071 40.0886 27.3779 38.2515 29.1184 36.9038C33.5041 33.9361 40.5291 34.2072 44.6516 37.5921Z" fill="#191919"/>
<path d="M52.9728 35.246C54.5239 35.246 56.075 35.246 57.6731 35.246C57.6731 45.5229 57.6731 55.7998 57.6731 66.3881C56.122 66.3881 54.5709 66.3881 52.9728 66.3881C52.9728 56.1112 52.9728 45.8343 52.9728 35.246Z" fill="#191919"/>
</g>
</g>
<defs>
<clipPath id="clip0_2336_13559">
<rect width="100" height="100" fill="white" transform="translate(0.211304 0.817017)"/>
</clipPath>
<clipPath id="clip1_2336_13559">
<rect width="100" height="45.5882" fill="white" transform="translate(0.211304 28.0229)"/>
</clipPath>
</defs>
</svg>
