<svg width="100" height="100" viewBox="0 0 100 100" fill="none" xmlns="http://www.w3.org/2000/svg">
<rect width="100" height="100" fill="white"/>
<path d="M22.5508 52.9588L22.5111 52.9876L22.4714 53.0107C21.6756 53.5401 20.7502 53.8326 19.7996 53.8552C18.5105 53.8235 18.0401 53.3623 18.0118 52.0942C18.0401 50.6415 18.5161 50.1919 20.1283 50.0911L22.3524 49.9844L22.4516 49.9786H22.5479L22.5508 52.9588ZM26.5996 53.6736C26.5692 53.5587 26.502 53.4574 26.4086 53.3859C26.3151 53.3143 26.2008 53.2766 26.0839 53.2787C26.0153 53.2811 25.947 53.2898 25.8799 53.3047C25.5371 53.3912 25.3444 53.4142 25.0809 53.4344C24.5766 53.4574 24.4859 53.2586 24.4576 52.685V44.8109C24.4491 44.7192 24.4226 44.6301 24.3798 44.549C24.337 44.4678 24.2787 44.3961 24.2083 44.3382L24.1601 44.3036C24.145 44.2902 24.1261 44.2767 24.1034 44.2633C23.6841 44.0125 22.9871 43.8108 22.3921 43.658L22.3496 43.6436C21.2757 43.3837 20.1659 43.3135 19.0686 43.4361C18.7286 43.4707 17.8163 43.6234 17.5103 43.7301C17.4196 43.7589 17.1335 43.9001 17.1222 44.1768C17.1278 44.3209 17.2865 44.7821 17.2865 44.7821C17.3913 45.102 17.5018 45.1798 17.7001 45.223C17.8616 45.2403 18.2101 45.1654 18.4396 45.1279C19.2988 44.945 20.1824 44.9138 21.0519 45.0357C22.0634 45.1942 22.4516 45.5113 22.4516 45.5113V48.5664L22.3638 48.5693L20.2048 48.6269C17.3148 48.7191 15.9832 49.8835 16.0002 52.2296C15.9973 53.296 16.326 54.1521 16.9493 54.7025C17.5301 55.2213 18.383 55.498 19.4086 55.498H19.4115C20.5733 55.5054 21.6999 55.0928 22.5904 54.3336L22.6839 54.2587L22.7321 54.3682C22.8387 54.6226 23.0028 54.8479 23.211 55.0257C23.4193 55.2034 23.6658 55.3287 23.9306 55.3914C24.3117 55.4896 24.7067 55.5198 25.0979 55.4807C25.4294 55.4346 25.8657 55.3741 26.3531 55.1406C26.6222 55.0109 26.8121 54.8524 26.7979 54.5642C26.755 54.2625 26.6887 53.9647 26.5996 53.6736ZM58.5054 55.4433H57.4571C57.3868 55.4469 57.3166 55.4358 57.2508 55.4105C57.1849 55.3852 57.125 55.3463 57.0746 55.2963C56.9915 55.1983 56.9509 55.058 56.9528 54.8755V44.759C56.9452 44.5688 56.9906 44.4285 57.0888 44.3382C57.1719 44.2537 57.2966 44.2124 57.4628 44.2143H58.4119C58.5904 44.2143 58.7094 44.2517 58.8029 44.3296C58.8964 44.4074 58.9474 44.5457 58.9446 44.7043L58.9559 44.9752L58.9644 45.2029L59.1146 45.0357C59.479 44.6176 59.9456 44.3049 60.467 44.1293C60.9884 43.9537 61.5462 43.9213 62.0839 44.0356C62.2822 44.0731 62.3559 44.2748 62.3389 44.3814C62.3389 44.4333 62.337 44.4775 62.3332 44.514L62.1746 45.5343C62.1687 45.6141 62.1349 45.6891 62.0792 45.7457C62.0236 45.8023 61.9499 45.8367 61.8714 45.8427C61.7813 45.8375 61.6915 45.8279 61.6023 45.8139C61.4889 45.7966 61.3614 45.7735 61.1348 45.7735C60.3981 45.7735 59.5793 46.2664 59.0324 47.0359L59.0154 47.059V54.8755C59.0154 55.0484 58.9729 55.1848 58.8879 55.2847C58.8397 55.3384 58.7804 55.3804 58.7142 55.4078C58.6481 55.4352 58.5768 55.4474 58.5054 55.4433ZM52.0257 48.5981H47.2034C47.2714 46.1252 48.1979 45.1106 49.725 45.1106C51.2097 45.1106 52.0483 45.9407 52.0483 47.8804C52.0483 48.0332 52.0483 48.4165 52.0257 48.5981ZM49.7704 43.537C47.0702 43.537 45.0387 45.4479 45.0387 49.7913C45.0387 53.7745 46.8719 55.7286 50.3229 55.7286C50.8697 55.7286 51.5185 55.6652 52.1362 55.5355C52.2363 55.5163 52.3354 55.4942 52.4337 55.4692C52.7529 55.3764 53.0653 55.2608 53.3687 55.1233C53.584 55.0398 53.7512 54.8697 53.7625 54.6593C53.7046 54.3382 53.629 54.0206 53.5358 53.7082C53.4508 53.4978 53.2638 53.3652 53.074 53.3767C53.0088 53.3767 52.0823 53.5814 52.0257 53.5987C51.4833 53.742 50.9257 53.8165 50.3654 53.8206C47.9117 53.8206 47.1807 52.6274 47.1807 50.1718V49.9931H53.6123C53.7046 49.9855 53.7914 49.9453 53.8576 49.8795C53.9238 49.8137 53.9654 49.7264 53.975 49.6328L53.9807 49.5463C54.0033 49.1198 54.0175 48.6673 54.0175 48.307C54.0175 45.2893 52.581 43.537 49.7704 43.537ZM64.9881 60H64.9172C64.5376 60 64.2259 59.9712 63.9199 59.9107C63.7301 59.8761 63.6592 59.6253 63.6989 59.2852C63.6989 59.2852 63.7216 58.9221 63.7754 58.6656C63.8236 58.4062 63.9454 58.2851 64.0814 58.2851H64.1211L64.2259 58.2909C64.2854 58.2937 64.3732 58.3053 64.4554 58.3139C64.6424 58.3341 64.8322 58.3543 64.9824 58.3543C66.2347 58.3399 66.9119 57.8729 67.3907 56.6913L67.9687 55.2559L68.0254 55.1032L68.0452 55.0398L68.0254 54.9735L64.1636 44.5861C64.1454 44.5434 64.1376 44.497 64.1409 44.4506C64.1409 44.3883 64.1608 44.3276 64.1976 44.2777C64.2477 44.2299 64.3131 44.2023 64.3817 44.1999H65.8466C66.059 44.1999 66.2149 44.3152 66.263 44.4823L68.8074 51.9184L68.9774 52.4199L69.1502 51.9212L71.7767 44.5371C71.7973 44.441 71.8495 44.3549 71.9247 44.2931C71.9999 44.2312 72.0936 44.1973 72.1903 44.197H72.2017L72.2413 44.1999H73.454C73.5522 44.1999 73.6259 44.22 73.675 44.2604C73.6972 44.28 73.7148 44.3045 73.7265 44.3319C73.7383 44.3593 73.7439 44.389 73.743 44.4189C73.7413 44.484 73.7289 44.5483 73.7061 44.6091L69.3853 56.3973C68.4447 59.0229 67.2547 60 64.9881 60ZM82.3931 55.4173C82.2749 55.4222 82.1579 55.3929 82.0555 55.3326C81.9532 55.2724 81.8698 55.1838 81.8151 55.0772L79.5088 51.4514L79.4266 51.3304L79.3501 51.4514L77.0438 55.0715C76.9868 55.1779 76.9023 55.2664 76.7994 55.3273C76.6965 55.3883 76.5792 55.4194 76.4601 55.4173L76.4233 55.4116H75.1908C75.107 55.4165 75.024 55.392 74.9556 55.3424C74.9239 55.3141 74.8988 55.279 74.8822 55.2396C74.8655 55.2002 74.8577 55.1576 74.8593 55.1147C74.8593 55.0109 74.8961 54.9014 74.9556 54.8121L78.2933 49.6558L78.3329 49.604L78.2933 49.5521L75.2163 44.7273C75.1686 44.6579 75.142 44.5757 75.1398 44.491C75.1398 44.2892 75.3211 44.1653 75.4968 44.1653H76.6528C76.9049 44.1653 77.1004 44.2748 77.1854 44.4477L79.3501 47.7911L79.4266 47.9064L79.5003 47.7911L81.6536 44.4679C81.7039 44.3729 81.7794 44.2941 81.8716 44.2406C81.9638 44.1871 82.0689 44.161 82.1749 44.1653H83.3621C83.5321 44.1653 83.7219 44.2892 83.7219 44.491C83.7219 44.5621 83.6936 44.6389 83.6369 44.7215L80.5628 49.5521L80.5259 49.604L80.5628 49.6558L83.8919 54.8005C83.9568 54.8914 83.9943 54.9996 83.9996 55.1118C84.0019 55.1549 83.9948 55.198 83.9786 55.2379C83.9624 55.2778 83.9376 55.3135 83.9061 55.3424C83.8352 55.3913 83.7507 55.4155 83.6652 55.4116H82.4384L82.3931 55.4173ZM32.405 55.4461C31.861 55.4461 31.3369 55.3568 30.8807 55.1868C30.5055 55.0693 30.1667 54.8548 29.8975 54.5642C29.2402 53.8292 29.1835 52.9156 29.175 51.7108V40.1821C29.1769 40.1129 29.2005 40.0505 29.2459 39.9948C29.6494 39.5392 30.1647 39.2011 30.739 39.0148C30.773 39.0033 30.8042 38.9985 30.8325 39.0004C30.9373 38.9996 31.0382 39.0411 31.113 39.1157C31.2037 39.2118 31.2481 39.3463 31.2462 39.5192V51.7829C31.2519 52.4199 31.402 52.9271 31.6769 53.2442C31.912 53.5093 32.2945 53.6419 32.779 53.6419C32.8961 53.6419 33.0321 53.6323 33.187 53.6131C33.4986 53.5643 33.8057 53.4891 34.105 53.3883C34.1621 53.3661 34.2224 53.3534 34.2835 53.3508C34.4762 53.3508 34.6433 53.4891 34.7085 53.6938C34.7085 53.6938 34.8785 54.2817 34.9012 54.5584C34.9153 54.8005 34.7028 54.9619 34.5073 55.0311C33.8353 55.2918 33.1241 55.4322 32.405 55.4461ZM42.9931 53.688C42.9308 53.4805 42.7636 53.3422 42.5653 53.3422C42.5042 53.3448 42.4439 53.3574 42.3868 53.3796C41.975 53.5224 41.5461 53.6077 41.1118 53.6333L41.0608 53.639C40.5602 53.6371 40.19 53.5026 39.9501 53.2355C39.7234 52.9848 39.5648 52.5726 39.5534 51.8088V51.7685L39.6129 45.6986H42.0553C42.1757 45.7045 42.2948 45.6712 42.3953 45.6035C42.5171 45.5055 42.5369 45.3441 42.5313 45.2576V44.4939C42.5331 44.3305 42.4878 44.2114 42.3953 44.1365C42.2994 44.0758 42.1879 44.0457 42.0751 44.05H39.6129V40.2715C39.6129 40.0947 39.5686 39.9592 39.4798 39.8651C39.4033 39.7929 39.3035 39.7519 39.1993 39.7498C39.1728 39.7479 39.1388 39.7527 39.0973 39.7642C38.9556 39.819 38.5703 39.9544 38.151 40.2542C37.9935 40.3736 37.8457 40.5056 37.709 40.649C37.6673 40.7001 37.6443 40.7642 37.6438 40.8306L37.5871 44.0096H36.3235C36.259 44.0071 36.1946 44.0178 36.1343 44.0411C36.0739 44.0644 36.0188 44.0997 35.9721 44.1451C35.887 44.2478 35.8444 44.38 35.8531 44.514V45.2115C35.8531 45.3643 35.8503 45.494 35.9636 45.6208C36.094 45.7418 36.2186 45.7332 36.366 45.7361H37.5503L37.437 51.4486L37.4398 51.6935C37.4455 52.9041 37.5021 53.8206 38.1623 54.5613C38.6666 55.1205 39.5874 55.4404 40.6839 55.4461C41.6728 55.4461 42.4406 55.1781 42.7948 55.0311C42.9818 54.9504 43.1943 54.7948 43.1858 54.5556C43.1858 54.3279 42.9931 53.688 42.9931 53.688Z" fill="white"/>
</svg>
