<svg width="100" height="100" viewBox="0 0 100 100" fill="none" xmlns="http://www.w3.org/2000/svg">
<rect width="100" height="100" fill="white"/>
<path d="M34.0872 54.0303C33.7261 54.6008 33.3716 55.1754 33.0237 55.754C32.7207 56.2603 32.8716 56.9202 33.3791 57.225L40.3186 61.4818C40.8253 61.7867 41.4836 61.6339 41.7881 61.1276C42.113 60.5458 42.4506 59.9712 42.8007 59.4042C45.5359 54.892 48.3221 55.3998 53.2874 57.7811L60.1775 61.0253C60.7333 61.28 61.3426 61.0253 61.5953 60.519L64.8882 53.0671C65.1413 52.5608 64.8882 51.9021 64.3815 51.6474C62.9124 50.989 60.0251 49.6207 57.4917 48.3534C48.1203 43.8416 40.1662 44.146 34.0872 54.0303Z" fill="#191919"/>
<path d="M65.1939 37.0994C65.555 36.5293 65.9097 35.955 66.2578 35.3768C66.5607 34.869 66.4083 34.2106 65.902 33.9058L58.9624 29.6471C58.4561 29.3446 57.797 29.4966 57.4933 30.0033C57.168 30.585 56.8303 31.1597 56.4804 31.727C53.7436 36.237 50.959 35.7307 45.9933 33.3486L39.1035 30.1044C38.5478 29.8509 37.9389 30.1044 37.6857 30.6118L34.3933 38.0619C34.1401 38.5701 34.3933 39.2288 34.8992 39.4819C36.369 40.1418 39.2559 41.5102 41.7893 42.7774C51.1612 47.2387 59.1145 46.9852 65.1939 37.0994Z" fill="#191919"/>
<path d="M30.7408 70.6029C30.325 70.8804 29.6666 70.9948 28.9733 70.9948C26.7763 70.9948 25.5391 69.6808 25.5391 67.569C25.5391 65.54 26.7763 64.1214 28.9608 64.1214C29.6092 64.1214 30.2679 64.2484 30.7408 64.5829V65.47C30.2679 65.1705 29.7358 65.009 28.9611 65.009C27.3883 65.009 26.4639 66.0478 26.4639 67.5815C26.4639 69.1152 27.4346 70.1301 29.0182 70.1301C29.7236 70.1301 30.2679 69.9686 30.753 69.7276V70.6033L30.7408 70.6029ZM31.3771 68.3546C31.3771 66.8304 32.2673 65.7251 33.7938 65.7251C35.3085 65.7251 36.1995 66.8312 36.1995 68.3546C36.1995 69.8766 35.3085 71.007 33.7938 71.007C32.2795 70.9948 31.3771 69.8766 31.3771 68.3546ZM32.2327 68.3546C32.2327 69.3239 32.7071 70.1886 33.806 70.1886C34.8809 70.1886 35.3553 69.3117 35.3553 68.3546C35.3553 67.3964 34.8923 66.5313 33.806 66.5313C32.7074 66.5313 32.2327 67.3854 32.2327 68.3546ZM41.5415 70.9028H40.6627V67.8346C40.6627 66.9247 40.292 66.5206 39.4604 66.5206C38.6492 66.5206 38.0844 67.063 38.0844 68.0897V70.915H37.2041V65.8395H38.0844V66.6696C38.4067 66.0694 39.0081 65.735 39.6907 65.735C40.8588 65.735 41.5293 66.5431 41.5293 67.9384V70.9025L41.5415 70.9028ZM45.2984 65.8292V66.6354H43.9794V70.9028H43.1253V66.635H42.3036V65.8292H43.1253V65.2743C43.1253 64.3293 43.6575 63.6953 44.7435 63.6953C45.0091 63.6953 45.1821 63.7402 45.3326 63.7751V64.5829C45.1821 64.5483 44.9863 64.5361 44.7784 64.5361C44.2345 64.5361 43.9688 64.8478 43.9688 65.3092V65.8288L45.2984 65.8292ZM47.5992 70.9253C46.7675 70.9253 46.2354 70.5338 46.2354 69.5995V63.7056H47.1142V69.4953C47.1142 69.9583 47.4141 70.1191 47.7968 70.1191C47.8884 70.1191 47.9458 70.1191 48.0496 70.1077V70.8922C47.9695 70.9148 47.8194 70.9258 47.5992 70.9253ZM48.7897 65.8292H49.6685V68.8955C49.6685 69.8078 50.0387 70.2107 50.8707 70.2107C51.68 70.2107 52.2467 69.6687 52.2467 68.6424V65.8288H53.1267V70.9032H52.2471V70.0723C51.9229 70.6725 51.3212 71.007 50.64 71.007C49.4723 71.007 48.8018 70.1989 48.8018 68.8039V65.8288L48.7897 65.8292ZM56.8718 70.9948C54.9637 70.9948 54.132 69.8994 54.132 68.3425C54.132 66.8084 54.988 65.7129 56.5369 65.7129C58.1091 65.7129 58.7339 66.7981 58.7339 68.3425V68.734H55.0226C55.1492 69.5995 55.7034 70.1537 56.906 70.1537C57.4971 70.1537 57.9939 70.0381 58.4569 69.8762V70.6843C58.0285 70.915 57.3808 70.9948 56.8718 70.9948ZM54.9983 67.9958H57.8434C57.7966 67.0509 57.369 66.5206 56.4902 66.5206C55.565 66.5206 55.0914 67.1086 54.9983 67.9958ZM64.0866 70.9028H63.2082V67.8346C63.2082 66.9247 62.8379 66.5206 62.0055 66.5206C61.1963 66.5206 60.6299 67.063 60.6299 68.0897V70.915H59.7511V65.8395H60.6299V66.6696C60.9541 66.0694 61.5551 65.735 62.2362 65.735C63.4039 65.735 64.0744 66.5431 64.0744 67.9384V70.9025L64.0866 70.9028ZM68.9074 70.7641C68.6072 70.9253 68.1328 70.9948 67.6706 70.9948C65.856 70.9948 65.0125 69.8994 65.0125 68.3425C65.0125 66.8084 65.8563 65.7129 67.6706 65.7129C68.1328 65.7129 68.4794 65.7699 68.885 65.9558V66.7631C68.5608 66.6126 68.2145 66.5206 67.7394 66.5206C66.4223 66.5206 65.8784 67.3512 65.8784 68.3425C65.8784 69.3338 66.4349 70.1643 67.7637 70.1643C68.2837 70.1643 68.6075 70.0947 68.9192 69.9807V70.7641H68.9074ZM72.3299 70.9948C70.4233 70.9948 69.5901 69.8994 69.5901 68.3425C69.5901 66.8084 70.4461 65.7129 71.9954 65.7129C73.5671 65.7129 74.1924 66.7981 74.1924 68.3425V68.734H70.4807C70.6073 69.5995 71.1637 70.1537 72.366 70.1537C72.9552 70.1537 73.4523 70.0381 73.9149 69.8762V70.6843C73.4869 70.915 72.8514 70.9948 72.3299 70.9948ZM70.4689 67.9958H73.314C73.2672 67.0509 72.8396 66.5206 71.9608 66.5206C71.0246 66.5206 70.562 67.1086 70.4689 67.9958Z" fill="#191919"/>
</svg>
