<svg width="100" height="100" viewBox="0 0 100 100" fill="none" xmlns="http://www.w3.org/2000/svg">
<rect width="100" height="100" fill="white"/>
<path d="M63.7185 29.8438H48.8389C48.8389 33.5531 51.8418 36.5554 55.5495 36.5554H58.2872V39.2045C58.2872 42.9138 61.2899 45.9165 64.9992 45.9165V31.1241C64.9989 30.7846 64.8638 30.4591 64.6237 30.219C64.3836 29.979 64.058 29.844 63.7185 29.8438Z" fill="#191919"/>
<path d="M56.3464 37.2578H41.4668C41.4668 40.9672 44.4681 43.9688 48.1775 43.9688H50.9148V46.6185C50.9148 50.3279 53.9175 53.3309 57.6268 53.3309V38.5385C57.6266 38.199 57.4916 37.8734 57.2515 37.6333C57.0115 37.3932 56.686 37.2582 56.3464 37.2578Z" fill="#191919"/>
<path d="M48.9718 44.6797H34.0908C34.0908 48.3891 37.0934 51.3917 40.8025 51.3917H43.5405V54.0417C43.5405 57.7498 46.5428 60.7524 50.2522 60.7524V45.9604C50.2519 45.6209 50.1169 45.2953 49.8769 45.0552C49.6368 44.8151 49.3113 44.68 48.9718 44.6797Z" fill="#191919"/>
<path d="M43.7217 62.4088H44.8532V68.0035C44.8532 69.48 44.1801 70.5096 42.6173 70.5096C42.0308 70.5096 41.5712 70.4118 41.2559 70.3011V69.2289C41.6008 69.368 42.0163 69.4375 42.4321 69.4375C43.3923 69.4375 43.7217 68.8816 43.7217 68.0734V62.4088ZM46.9316 61.9766C47.3758 61.9766 47.6911 62.2415 47.6911 62.714C47.6911 63.1733 47.3758 63.4527 46.9316 63.4527C46.4878 63.4527 46.1725 63.1874 46.1725 62.714C46.1725 62.256 46.4878 61.9766 46.9316 61.9766ZM46.3731 64.3291H47.4621V70.4543H46.3731V64.3291ZM50.1556 70.4543H49.0957V64.3291H50.156V65.4013C50.5293 64.6767 51.1599 64.1621 52.3915 64.2316V65.2622C51.0018 65.1232 50.156 65.5261 50.156 66.8352L50.1556 70.4543ZM57.4805 69.3538C57.0788 70.162 56.3194 70.5795 55.3437 70.5795C53.6683 70.5795 52.8225 69.2006 52.8225 67.391C52.8225 65.6652 53.7105 64.2042 55.4739 64.2042C56.3902 64.2042 57.1072 64.6072 57.4805 65.4013V64.3291H58.5694V70.4543H57.4805V69.3538ZM55.6311 69.6049C56.6054 69.6049 57.465 69.0065 57.465 67.6421V67.1554C57.465 65.7914 56.6775 65.1927 55.7454 65.1927C54.5279 65.1927 53.897 65.9716 53.897 67.391C53.9115 68.8671 54.5138 69.6049 55.6311 69.6049Z" fill="#191919"/>
</svg>
