<svg width="100" height="100" viewBox="0 0 100 100" fill="none" xmlns="http://www.w3.org/2000/svg">
<rect width="100" height="100" fill="white"/>
<path d="M61.3889 46.018L61.386 46.016C61.386 46.016 61.3844 46.0151 61.3825 46.0151C61.3154 45.9861 61.2433 45.971 61.1702 45.9707C61.0564 45.972 60.945 46.0047 60.8485 46.0651C60.747 46.1275 60.6672 46.2196 60.6198 46.3289V46.3316L58.3741 52.4243L56.6431 48.3405L56.6406 48.3388C56.592 48.2246 56.5048 48.1364 56.4059 48.0751C56.3049 48.0127 56.1884 47.9796 56.0696 47.9796C55.9518 47.9796 55.842 48.0162 55.7449 48.0759C55.6496 48.1372 55.5633 48.2246 55.5149 48.3388L55.5137 48.3407L53.7793 52.427L51.5216 46.3371H51.5196C51.4812 46.2251 51.4053 46.1297 51.3049 46.067C51.2069 46.0049 51.0935 45.9715 50.9775 45.9707C50.9016 45.9709 50.8265 45.986 50.7563 46.0151H50.7529L50.7503 46.018C50.6486 46.0649 50.5625 46.1401 50.5022 46.2346C50.442 46.3291 50.4101 46.4389 50.4104 46.5509C50.4105 46.6224 50.4245 46.6933 50.4524 46.7638H50.4516L53.229 54.1561V54.1586C53.2505 54.2137 53.281 54.2684 53.3259 54.3219C53.3585 54.3601 53.4064 54.3923 53.4556 54.419C53.4906 54.4534 53.5356 54.4757 53.5841 54.483C53.6336 54.4995 53.6993 54.5231 53.7873 54.5231C53.8997 54.5231 54.004 54.483 54.0974 54.4235C54.192 54.3617 54.265 54.272 54.3061 54.1668L54.3133 54.1614L56.0694 49.9999L57.828 54.1445H57.83C57.8705 54.255 57.9416 54.3415 58.0242 54.4029C58.1114 54.4679 58.2093 54.508 58.313 54.5231H58.3867C58.4568 54.5231 58.525 54.5099 58.5824 54.4876C58.6358 54.4668 58.686 54.4386 58.7317 54.4039C58.8258 54.3315 58.8991 54.2354 58.9441 54.1255V54.1232L61.7037 46.7638C61.7309 46.6935 61.7446 46.6229 61.7448 46.5521C61.7441 46.438 61.7101 46.3266 61.6468 46.2317C61.5836 46.1368 61.4939 46.0625 61.3889 46.018ZM48.6928 50.2382C48.6928 49.37 48.3565 48.5839 47.8217 48.0162C47.2839 47.4474 46.5555 47.0998 45.7644 47.0998C44.973 47.0998 44.2429 47.4474 43.7062 48.0162C43.1702 48.5839 42.8339 49.37 42.8339 50.238C42.8339 51.1054 43.1702 51.8841 43.7062 52.4481C44.2431 53.0142 44.973 53.3566 45.7644 53.3566C46.5555 53.3566 47.2864 53.0144 47.8217 52.4483C48.3567 51.8841 48.6928 51.1054 48.6928 50.2382ZM48.6775 47.2246C49.4203 48.0053 49.8715 49.0767 49.8734 50.2382C49.8715 51.3995 49.4203 52.4696 48.6775 53.2505C47.9404 54.0303 46.9107 54.5233 45.7662 54.5233C44.6303 54.5233 43.5992 54.0303 42.8593 53.2505C42.0889 52.4366 41.6595 51.3583 41.6595 50.2375C41.6595 49.1166 42.0889 48.0384 42.8593 47.2244C43.5992 46.4456 44.6303 45.9526 45.7662 45.9526C46.9107 45.9526 47.9404 46.4458 48.6775 47.2246ZM36.9841 45.9678C36.0634 45.9678 35.2228 46.3235 34.5952 46.8912V46.5519C34.5954 46.4 34.5374 46.2538 34.4331 46.1434C34.3803 46.0881 34.3168 46.044 34.2466 46.0138C34.1763 45.9836 34.1006 45.968 34.0241 45.9678C33.9455 45.9671 33.8675 45.9822 33.7947 46.0121C33.722 46.0421 33.656 46.0863 33.6006 46.1422C33.4943 46.2521 33.435 46.399 33.4353 46.5519V54.1158L33.4595 54.1398L33.4605 54.1435C33.4667 54.1685 33.4828 54.1959 33.4998 54.2226C33.5815 54.3654 33.7158 54.4706 33.8739 54.5157L33.8972 54.5231H34.0241C34.1087 54.5231 34.1939 54.5053 34.275 54.4677C34.3424 54.4357 34.4052 54.3841 34.4556 54.318L34.4576 54.319C34.4638 54.3128 34.4657 54.3046 34.4729 54.2986C34.4757 54.2971 34.4781 54.2949 34.4798 54.2922C34.5112 54.2521 34.5376 54.2112 34.5537 54.1728C34.5679 54.1331 34.5799 54.0926 34.5897 54.0516L34.5952 54.0301V49.4885C34.6103 48.8615 34.8682 48.2649 35.3145 47.8245C35.7574 47.3819 36.358 47.1334 36.9841 47.1337C37.6461 47.1337 38.2365 47.3977 38.6646 47.8245C38.884 48.0411 39.058 48.2993 39.1765 48.5839C39.2951 48.8685 39.3558 49.1739 39.3551 49.4823V53.9423C39.3551 54.1051 39.4252 54.256 39.5314 54.3591C39.643 54.4643 39.7904 54.5229 39.9437 54.5229C40.097 54.5229 40.2445 54.4643 40.356 54.3591C40.4655 54.256 40.5322 54.1051 40.5322 53.9423V49.4823C40.5322 47.5571 38.9461 45.9707 36.9841 45.9679M94.9461 49.4109C94.6116 48.066 93.4201 47.1077 92.0607 47.1106C90.6671 47.1106 89.4919 48.0482 89.1277 49.4109H94.9461ZM96.2343 49.9619V50.0197C96.2343 50.181 96.1616 50.3264 96.0511 50.4218C95.9414 50.5179 95.7986 50.5679 95.6447 50.5697H89.0459C89.214 52.1656 90.4996 53.3444 92.0346 53.3566H92.4238C92.9316 53.3583 93.4265 53.1844 93.8616 52.8967C94.2977 52.6117 94.6744 52.2131 94.9397 51.7746C94.9913 51.6858 95.0669 51.6135 95.158 51.566C95.2425 51.5204 95.3372 51.4968 95.4332 51.4974C95.5375 51.4974 95.641 51.5241 95.7317 51.5784L95.7381 51.5811L95.7453 51.5865C95.9108 51.7067 96.0143 51.8905 96.0143 52.092C96.0143 52.1943 95.9874 52.2988 95.9306 52.393L95.9288 52.3969L95.9269 52.3985C95.5582 52.9797 95.0556 53.5099 94.4586 53.8942C93.8607 54.279 93.1675 54.5233 92.4238 54.5233H92.0284C90.8702 54.5152 89.8236 54.0303 89.0692 53.255C88.2874 52.4521 87.8508 51.375 87.8527 50.2543C87.8527 49.0678 88.3202 47.9912 89.0793 47.2122C89.8381 46.4342 90.8925 45.9528 92.0607 45.9528C93.1757 45.9528 94.1774 46.3921 94.919 47.1116C95.6609 47.8309 96.1455 48.8297 96.232 49.9538L96.2343 49.9619ZM69.1673 42.4323C69.0064 42.4323 68.8591 42.4992 68.7531 42.6043C68.6984 42.6579 68.6549 42.7218 68.6251 42.7923C68.5953 42.8629 68.5798 42.9387 68.5796 43.0153V53.9423C68.5796 54.1016 68.6467 54.2478 68.7531 54.3513C68.8638 54.46 69.0122 54.5216 69.1673 54.5233C69.5009 54.5233 69.7707 54.2629 69.7726 53.9423V43.0151C69.7707 42.6933 69.5009 42.4321 69.1673 42.4321M30.7143 50.0294C30.2394 49.8076 29.701 49.6436 29.1635 49.4671C28.6688 49.3014 28.167 49.1604 27.809 48.9751C27.6293 48.8797 27.4892 48.7791 27.3983 48.6659C27.3056 48.5528 27.2606 48.4377 27.2579 48.2808C27.2589 48.066 27.3219 47.8931 27.4279 47.7399C27.5888 47.5108 27.8586 47.3324 28.1534 47.2173C28.4448 47.1019 28.7605 47.0474 28.9861 47.0474C29.6533 47.0484 30.0751 47.2684 30.3988 47.4964C30.5587 47.6116 30.6938 47.7281 30.8213 47.8245C30.887 47.8745 30.9481 47.9198 31.0192 47.9536C31.0865 47.9865 31.1657 48.0135 31.252 48.0135C31.3068 48.0135 31.3619 48.0036 31.4119 47.9825C31.465 47.9611 31.511 47.9305 31.5551 47.8933C31.5989 47.8529 31.6348 47.8048 31.6612 47.7514C31.6838 47.6982 31.6954 47.6409 31.6953 47.5831C31.6953 47.4796 31.6619 47.3824 31.6143 47.2913C31.5253 47.131 31.3884 46.9778 31.2142 46.8245C30.9552 46.5963 30.6137 46.3788 30.2458 46.2149C29.877 46.0509 29.4815 45.9394 29.1047 45.9394C28.2317 45.9394 27.5025 46.1354 26.9728 46.4966C26.6968 46.6855 26.4541 46.8921 26.2824 47.1775C26.1079 47.4635 26.0108 47.8165 25.9982 48.2754C25.9976 48.2961 25.9973 48.3166 25.9975 48.3369C25.9955 48.7828 26.1403 49.15 26.3677 49.4377C26.7131 49.871 27.2258 50.1302 27.7284 50.314C28.23 50.4974 28.7316 50.6071 29.0483 50.7122C29.4941 50.8591 29.9681 51.0187 30.3133 51.2298C30.4852 51.3378 30.6244 51.4537 30.719 51.5811C30.8106 51.7122 30.8624 51.8475 30.8645 52.0189V52.0315C30.8636 52.2791 30.7901 52.4735 30.6686 52.64C30.4852 52.8878 30.1801 53.0695 29.8564 53.1844C29.5339 53.2969 29.1984 53.3444 28.9824 53.3444C28.2209 53.3444 27.7113 53.1621 27.3417 52.9799C27.1564 52.8878 27.0063 52.7969 26.8705 52.7201C26.8067 52.6841 26.741 52.6517 26.6735 52.6232C26.6065 52.5944 26.5344 52.5794 26.4615 52.5792C26.411 52.5788 26.3609 52.5879 26.3138 52.6059C26.2661 52.6262 26.2223 52.6546 26.1843 52.6899C26.1325 52.7381 26.0894 52.7948 26.0568 52.8576C26.0264 52.9198 26.0107 52.9881 26.0108 53.0573C26.0108 53.1713 26.0539 53.2756 26.1153 53.37C26.2114 53.5063 26.3525 53.6284 26.5287 53.7505C26.7104 53.8707 26.9273 53.9894 27.1771 54.1063C27.7311 54.3655 28.4413 54.501 28.9809 54.5099H28.9824C29.8217 54.5099 30.5461 54.3182 31.1566 53.8727V53.8715H31.1576C31.7546 53.426 32.126 52.7637 32.126 52.0162C32.126 51.6052 32.0289 51.2568 31.8591 50.9716C31.6028 50.5392 31.1865 50.2543 30.7143 50.0294ZM78.0348 50.2382C78.0348 49.3619 77.7012 48.5767 77.168 48.01C76.6356 47.4449 75.9046 47.1019 75.1053 47.1C74.3121 47.1 73.5841 47.4449 73.0462 48.01C72.5122 48.5767 72.1742 49.3619 72.1742 50.2382C72.1742 51.1133 72.5122 51.8934 73.0462 52.4555C73.5812 53.0179 74.3121 53.3566 75.1053 53.3566C75.9064 53.3566 76.6373 53.0179 77.1698 52.4574C77.7012 51.8932 78.0348 51.1141 78.0348 50.2382ZM79.0346 46.1151C79.0905 46.1694 79.1349 46.2343 79.1652 46.3061C79.1955 46.3779 79.211 46.455 79.211 46.5329V53.9423C79.2098 54.0961 79.1478 54.2432 79.0385 54.3513C78.9276 54.4601 78.779 54.5218 78.6237 54.5233C78.462 54.5233 78.3135 54.4545 78.2093 54.3513C78.1544 54.2982 78.1108 54.2346 78.0808 54.1644C78.0509 54.0942 78.0352 54.0186 78.0348 53.9423V53.2193C77.2946 54.0117 76.2555 54.5233 75.1053 54.5233C73.9607 54.5233 72.9303 54.0357 72.192 53.255C71.4514 52.478 70.998 51.4074 70.998 50.2382C70.998 49.0689 71.4514 47.9974 72.192 47.2196C72.9303 46.4394 73.9607 45.9528 75.1053 45.9528C76.2547 45.9528 77.2946 46.4495 78.0348 47.238V46.5329C78.0348 46.37 78.1023 46.2194 78.211 46.1151C78.3229 46.0103 78.4706 45.9523 78.6239 45.9528C78.7793 45.9528 78.9276 46.0125 79.0346 46.1151ZM87.3367 46.8663C87.4536 46.7514 87.5174 46.5988 87.5174 46.4476C87.5168 46.3711 87.5004 46.2955 87.4692 46.2256C87.4379 46.1558 87.3925 46.0932 87.3358 46.0418H87.3367C87.3358 46.0383 87.3328 46.0383 87.3328 46.0383C87.3323 46.0356 87.3303 46.0346 87.3303 46.0346H87.3286C87.2199 45.9262 87.0731 45.8648 86.9196 45.8636C86.7674 45.8636 86.6192 45.9263 86.506 46.0383L81.9085 50.4797V43.0151C81.9085 42.6933 81.637 42.4321 81.3032 42.4321C81.1425 42.4321 80.995 42.499 80.8899 42.6041C80.7853 42.7086 80.7155 42.8555 80.7155 43.0151V53.9421C80.7155 54.1014 80.7853 54.2476 80.8899 54.3512C81.0001 54.4601 81.1483 54.5218 81.3032 54.5231C81.637 54.5231 81.9085 54.2627 81.9085 53.9421V52.1391L83.4057 50.6567L86.4575 54.3066C86.5149 54.3903 86.5932 54.4481 86.6703 54.4785C86.7585 54.5115 86.8442 54.5231 86.9204 54.5231C87.0254 54.5231 87.1741 54.5008 87.3045 54.399L87.3117 54.3948L87.3195 54.3866C87.4416 54.2672 87.511 54.1086 87.511 53.9465C87.511 53.8101 87.46 53.6711 87.3656 53.5598V53.5578L84.2589 49.8144L87.334 46.8662L87.3367 46.8663ZM66.7415 42.4583H66.6103C66.5928 42.4583 66.5762 42.46 66.5579 42.4606C66.5419 42.46 66.5246 42.4583 66.5077 42.4583C66.1687 42.4583 65.8396 42.4965 65.532 42.5979C65.2289 42.6979 64.9495 42.8629 64.7328 43.1132L64.7319 43.1122L64.7311 43.1132V43.1142C64.5072 43.361 64.3595 43.656 64.2698 43.9912C64.1798 44.3282 64.1428 44.7078 64.1393 45.1389V45.9745H63.2105C62.8878 45.9761 62.6315 46.2318 62.6315 46.5412C62.6298 46.7014 62.6908 46.8559 62.8015 46.9716C62.9117 47.0843 63.0601 47.1517 63.2175 47.1606H64.1393V53.9564L64.1384 53.9723C64.1384 54.1319 64.2058 54.2788 64.3148 54.3843C64.4223 54.4876 64.5737 54.5491 64.7383 54.5491C64.8904 54.5481 65.0358 54.4868 65.1428 54.3787C65.2498 54.2706 65.3096 54.1244 65.3091 53.9723V47.1606H66.3079C66.4645 47.1531 66.6127 47.0876 66.7237 46.9769C66.8322 46.8693 66.8989 46.7178 66.8989 46.5536V46.5315C66.8952 46.2256 66.6372 45.9743 66.3143 45.9743H65.3091V45.1426C65.3155 44.7747 65.3541 44.4992 65.4099 44.2987C65.4638 44.0971 65.5376 43.9707 65.6039 43.8924C65.6688 43.8228 65.7532 43.7648 65.8908 43.7183C66.0294 43.6739 66.2209 43.6454 66.48 43.6454H66.5105C66.5256 43.6454 66.5419 43.6426 66.5562 43.6426C66.5742 43.6426 66.5911 43.6454 66.6103 43.6454H66.7415C67.073 43.6454 67.3404 43.3798 67.3404 43.0517C67.3404 42.7237 67.073 42.4583 66.7415 42.4583ZM99.241 45.9606C99.241 46.7266 98.7237 47.3661 97.8596 47.3661C97.0013 47.3661 96.4902 46.7206 96.4902 45.9606C96.4902 45.1944 97.0013 44.555 97.8596 44.555C98.7237 44.555 99.241 45.1944 99.241 45.9606ZM98.9671 45.9606C98.9671 45.3092 98.529 44.8142 97.8596 44.8142C97.2021 44.8142 96.7638 45.2847 96.7638 45.9606C96.7638 46.6058 97.2021 47.1064 97.8596 47.1064C98.5289 47.1064 98.9671 46.612 98.9671 45.9606ZM97.3176 45.327H97.908C98.2306 45.327 98.4436 45.5019 98.4436 45.7733C98.4436 45.9424 98.3583 46.069 98.2306 46.1475L98.462 46.479V46.5455H98.127L97.902 46.2256H97.6403V46.5455H97.3176V45.327ZM97.902 45.6227H97.6403V45.9424H97.902C98.0237 45.9424 98.1028 45.8881 98.1028 45.7855C98.1028 45.6769 98.0297 45.6227 97.902 45.6227ZM8.81539 53.1827C9.52616 53.2331 10.0908 53.8108 10.1148 54.5227L10.1156 54.5702V60.0339C10.1156 60.804 9.48526 61.4279 8.7113 61.4279C7.94936 61.4279 7.33065 60.8292 7.30584 60.0808L7.30506 60.0339V56.9777L4.63021 58.5072C3.95936 58.894 3.10147 58.665 2.71207 58C2.33255 57.3474 2.54421 56.515 3.18307 56.1187L3.22552 56.0935L7.99994 53.3645C8.24687 53.222 8.53132 53.1586 8.81539 53.1827ZM14.4638 53.3343L14.519 53.3645L19.2925 56.0937C19.4519 56.1846 19.5918 56.3061 19.7041 56.4514C19.8163 56.5966 19.8987 56.7626 19.9465 56.9398C19.9943 57.1171 20.0066 57.302 19.9826 57.484C19.9586 57.666 19.8988 57.8414 19.8067 58.0002C19.4274 58.651 18.5966 58.8843 17.932 58.5312L17.8888 58.5074L15.2157 56.9777V60.0341C15.2157 60.8042 14.5873 61.4281 13.8094 61.4281C13.0477 61.4281 12.4305 60.8294 12.4057 60.081L12.4049 60.0341V54.5702C12.4049 53.8368 12.9767 53.2345 13.7049 53.1827C13.9671 53.1603 14.2304 53.2129 14.4638 53.3343ZM2.06545 46.2508L2.10867 46.2745L6.87961 49.0051C7.19969 49.1862 7.43483 49.487 7.5334 49.8413C7.5648 49.951 7.57914 50.0604 7.58457 50.1701C7.58873 50.3238 7.56711 50.4772 7.5206 50.6238C7.42233 50.9406 7.21357 51.2116 6.93233 51.3874L6.87961 51.419L2.10867 54.1515C1.43511 54.5357 0.576642 54.3083 0.189951 53.6435C0.00715078 53.3309 -0.0459137 52.959 0.0421323 52.6077C0.130178 52.2564 0.352327 51.9536 0.660958 51.7641L0.7036 51.7389L3.36954 50.2147L0.703406 48.6864C0.0300409 48.3012 -0.200229 47.4509 0.189951 46.7853C0.568307 46.1329 1.39887 45.9001 2.06545 46.2508ZM22.3306 46.7853C22.72 47.4511 22.4897 48.3012 21.8163 48.6864L19.1504 50.2147L21.8165 51.7389C22.4899 52.1247 22.7202 52.9751 22.3308 53.6435C21.9423 54.3083 21.0829 54.5357 20.4119 54.1515L15.6374 51.419C15.3192 51.2352 15.098 50.9473 14.9999 50.6238C14.9534 50.4772 14.9321 50.3238 14.9369 50.1701C14.9395 50.0606 14.9561 49.951 14.9865 49.8413C15.0856 49.488 15.3193 49.1878 15.6374 49.0051L20.412 46.2745C21.0829 45.8902 21.9423 46.1188 22.331 46.7853M11.5511 47.6087C11.6321 47.6087 11.7434 47.6542 11.8002 47.712L13.7842 49.6765C13.8408 49.7325 13.8868 49.844 13.8868 49.9243V50.5036C13.8868 50.5821 13.8408 50.6934 13.7842 50.7486L11.7998 52.7131C11.743 52.7709 11.6335 52.8182 11.5507 52.8182H10.9673C10.887 52.8182 10.7756 52.7709 10.718 52.7131L8.73456 50.7486C8.67796 50.6934 8.63183 50.5819 8.63183 50.5036V49.9243C8.63183 49.844 8.67796 49.7325 8.73456 49.6765L10.718 47.712C10.7756 47.6542 10.887 47.6087 10.9673 47.6087H11.5511ZM11.2704 49.2853H11.2481C11.1681 49.2853 11.0566 49.3318 11.0008 49.3876L10.4263 49.9545C10.3687 50.0133 10.3245 50.124 10.3245 50.2033V50.2256C10.3245 50.3039 10.3687 50.4136 10.4263 50.4706L11.0008 51.0392C11.0574 51.0955 11.1681 51.1416 11.2481 51.1416H11.2704C11.3507 51.1416 11.4623 51.0953 11.5187 51.0392L12.0934 50.4706C12.15 50.4136 12.1985 50.3039 12.1985 50.2256V50.2033C12.1985 50.1238 12.15 50.0133 12.0934 49.9545L11.5187 49.3876C11.4621 49.3316 11.3507 49.2853 11.2704 49.2853ZM13.8094 39C14.5712 39 15.1899 39.5989 15.2149 40.3451L15.2157 40.392V43.4492L17.8888 41.918C18.5606 41.5329 19.4192 41.7613 19.8067 42.4269C19.9886 42.7399 20.0411 43.1116 19.9529 43.4627C19.8648 43.8138 19.6429 44.1166 19.3347 44.3065L19.2925 44.3317L14.5188 47.0633C14.2721 47.2046 13.9884 47.2679 13.7049 47.245C12.9926 47.1928 12.4297 46.6143 12.4057 45.9032L12.4049 45.8555V40.392C12.4049 39.6241 13.0318 39 13.8094 39ZM8.7113 39C9.46937 39 10.0898 39.5989 10.1148 40.3451L10.1156 40.392V45.8553C10.1156 46.5881 9.54186 47.1915 8.81558 47.2448C8.55299 47.266 8.28971 47.2134 8.05538 47.093L7.99994 47.0629L3.22552 44.3315C3.06609 44.2408 2.92621 44.1194 2.81397 43.9743C2.70174 43.8292 2.61936 43.6633 2.57162 43.4862C2.52387 43.3091 2.5117 43.1242 2.53581 42.9424C2.55992 42.7605 2.61982 42.5852 2.71207 42.4267C3.09314 41.7753 3.92312 41.5426 4.58699 41.8939L4.63002 41.9178L7.30487 43.449V40.3918C7.30506 39.6243 7.93327 39 8.7113 39Z" fill="#191919"/>
</svg>
