<svg width="101" height="101" viewBox="0 0 101 101" fill="none" xmlns="http://www.w3.org/2000/svg">
<path fill-rule="evenodd" clip-rule="evenodd" d="M74.5924 28.0658L62.4365 51.1075L74.5924 74.1491L79.5719 71.3783V30.8366L74.5924 28.0658Z" fill="#393939"/>
<path fill-rule="evenodd" clip-rule="evenodd" d="M74.5924 28.0658L62.4365 51.1075L74.5924 74.1491L79.5719 71.3783V30.8366L74.5924 28.0658Z" fill="#393939"/>
<path fill-rule="evenodd" clip-rule="evenodd" d="M74.5925 28.0658L50.2808 30.8366L37.9053 51.1075L50.2808 71.3783L74.5925 74.1491V28.0658Z" fill="#191919"/>
<path fill-rule="evenodd" clip-rule="evenodd" d="M74.5925 28.0658L50.2808 30.8366L37.9053 51.1075L50.2808 71.3783L74.5925 74.1491V28.0658Z" fill="#191919"/>
<path fill-rule="evenodd" clip-rule="evenodd" d="M25.5295 28.0658L21.5752 29.8158V72.3991L25.5295 74.1491L50.2805 51.1075L25.5295 28.0658Z" fill="#191919"/>
<path fill-rule="evenodd" clip-rule="evenodd" d="M25.5295 28.0658L21.5752 29.8158V72.3991L25.5295 74.1491L50.2805 51.1075L25.5295 28.0658Z" fill="#191919"/>
<path fill-rule="evenodd" clip-rule="evenodd" d="M25.4766 28.0172L50.3136 34.8876V67.943L25.4766 74.1653V28.0172Z" fill="#393939"/>
<path fill-rule="evenodd" clip-rule="evenodd" d="M25.4766 28.0172L50.3136 34.8876V67.943L25.4766 74.1653V28.0172Z" fill="#393939"/>
<path fill-rule="evenodd" clip-rule="evenodd" d="M50.3263 38.5173L39.7803 36.8321L50.3263 24.9061L60.8462 36.8321L50.3263 38.5173Z" fill="#191919"/>
<path fill-rule="evenodd" clip-rule="evenodd" d="M50.3263 38.5173L39.7803 36.8321L50.3263 24.9061L60.8462 36.8321L50.3263 38.5173Z" fill="#191919"/>
<path fill-rule="evenodd" clip-rule="evenodd" d="M60.8462 36.8321L50.3132 38.5431L39.7803 36.8321V24.9061" fill="#191919"/>
<path fill-rule="evenodd" clip-rule="evenodd" d="M60.8462 36.8321L50.3132 38.5431L39.7803 36.8321V24.9061" fill="#191919"/>
<path fill-rule="evenodd" clip-rule="evenodd" d="M50.3263 63.5358L39.7803 65.4803L50.3263 75.721L60.8462 65.4803L50.3263 63.5358Z" fill="#191919"/>
<path fill-rule="evenodd" clip-rule="evenodd" d="M50.3263 63.5358L39.7803 65.4803L50.3263 75.721L60.8462 65.4803L50.3263 63.5358Z" fill="#191919"/>
<path fill-rule="evenodd" clip-rule="evenodd" d="M50.2811 15.9617L39.7363 21.5033V36.8158L50.314 33.8506L50.2811 15.9617Z" fill="#191919"/>
<path fill-rule="evenodd" clip-rule="evenodd" d="M50.2811 15.9617L39.7363 21.5033V36.8158L50.314 33.8506L50.2811 15.9617Z" fill="#191919"/>
<path fill-rule="evenodd" clip-rule="evenodd" d="M50.3132 42.2764L39.7803 43.4172V58.7061L50.3132 59.906V42.2764Z" fill="#191919"/>
<path fill-rule="evenodd" clip-rule="evenodd" d="M50.3132 42.2764L39.7803 43.4172V58.7061L50.3132 59.906V42.2764Z" fill="#191919"/>
<path fill-rule="evenodd" clip-rule="evenodd" d="M50.3132 68.0727L39.7803 65.4429V80.4729L50.3132 85.9616V68.0727Z" fill="#191919"/>
<path fill-rule="evenodd" clip-rule="evenodd" d="M50.3132 68.0727L39.7803 65.4429V80.4729L50.3132 85.9616V68.0727Z" fill="#191919"/>
<path fill-rule="evenodd" clip-rule="evenodd" d="M60.8464 65.4429L50.3135 68.0734V85.9616L60.8464 80.4729V65.4429Z" fill="#393939"/>
<path fill-rule="evenodd" clip-rule="evenodd" d="M60.8464 65.4429L50.3135 68.0734V85.9616L60.8464 80.4729V65.4429Z" fill="#393939"/>
<path fill-rule="evenodd" clip-rule="evenodd" d="M50.3135 42.2764L60.8464 43.4172V58.7061L50.3135 59.906V42.2764Z" fill="#393939"/>
<path fill-rule="evenodd" clip-rule="evenodd" d="M50.3135 42.2764L60.8464 43.4172V58.7061L50.3135 59.906V42.2764Z" fill="#393939"/>
<path fill-rule="evenodd" clip-rule="evenodd" d="M50.2803 15.9617L60.8251 21.5033V36.8158L50.2803 33.8992V15.9617Z" fill="#393939"/>
<path fill-rule="evenodd" clip-rule="evenodd" d="M50.2803 15.9617L60.8251 21.5033V36.8158L50.2803 33.8992V15.9617Z" fill="#393939"/>
</svg>
