<svg width="101" height="101" viewBox="0 0 101 101" fill="none" xmlns="http://www.w3.org/2000/svg">
<g clip-path="url(#clip0_2358_1820)">
<path d="M28.7541 42.6121C28.7541 43.8519 28.8875 44.857 29.1202 45.5941C29.4156 46.4233 29.7712 47.2296 30.1842 48.0062C30.3506 48.2741 30.4169 48.5421 30.4169 48.7769C30.4169 49.1116 30.2176 49.4468 29.7852 49.782L27.69 51.189C27.3907 51.3901 27.0913 51.4905 26.8249 51.4905C26.4926 51.4905 26.1599 51.323 25.8272 51.0214C25.3787 50.5366 24.9778 50.0093 24.6301 49.4468C24.2974 48.8777 23.9647 48.2406 23.599 47.4703C21.0045 50.5523 17.7451 52.0934 13.8208 52.0937C11.0272 52.0937 8.79867 51.2894 7.16884 49.6816C5.5394 48.073 4.70801 45.9288 4.70801 43.2488C4.70801 40.4012 5.70576 38.0894 7.73461 36.3473C9.76308 34.6051 12.4574 33.734 15.883 33.734C17.0137 33.734 18.1779 33.8344 19.4083 34.002C20.6391 34.1695 21.9029 34.4375 23.2333 34.7391V32.2934C23.2333 29.7469 22.7009 27.9715 21.6698 26.9329C20.6057 25.8942 18.8095 25.3915 16.2487 25.3915C15.0846 25.3915 13.8875 25.5259 12.6567 25.8274C11.4259 26.129 10.2288 26.4973 9.06469 26.9665C8.53266 27.2008 8.13364 27.3348 7.90058 27.402C7.66752 27.4692 7.50156 27.5024 7.36855 27.5024C6.90283 27.5024 6.67016 27.1672 6.67016 26.4637V24.8219C6.67016 24.286 6.73686 23.8841 6.90283 23.6497C7.06918 23.4149 7.36855 23.1806 7.83427 22.9462C8.99825 22.3428 10.395 21.8402 12.0246 21.4384C13.6548 21.0028 15.3843 20.8021 17.2135 20.8021C21.1715 20.8021 24.0651 21.7063 25.9276 23.5157C27.7568 25.3247 28.6882 28.0719 28.6882 31.7575V42.6121H28.7541ZM15.2509 47.7046C16.3487 47.7046 17.4795 47.5038 18.6765 47.1015C19.874 46.6995 20.9384 45.9624 21.8361 44.9574C22.3686 44.3211 22.7676 43.6175 22.9669 42.8132C23.1666 42.0093 23.2996 41.0375 23.2996 39.8984V38.4914C22.291 38.2443 21.2694 38.0541 20.2397 37.9219C19.2028 37.7893 18.1586 37.7221 17.1134 37.7207C14.8848 37.7207 13.2554 38.1562 12.158 39.0609C11.0606 39.9656 10.5282 41.2386 10.5282 42.9136C10.5282 44.4882 10.9272 45.6609 11.7586 46.4652C12.557 47.3027 13.7211 47.7046 15.2509 47.7046ZM41.9579 51.323C41.3592 51.323 40.9602 51.2226 40.6942 50.9878C40.4282 50.787 40.1951 50.3179 39.9958 49.6816L32.1801 23.7837C31.98 23.1134 31.8804 22.6778 31.8804 22.4434C31.8804 21.9075 32.1464 21.6056 32.6788 21.6056H35.9381C36.5698 21.6056 37.0025 21.7063 37.2352 21.9407C37.5012 22.1419 37.7009 22.611 37.9002 23.2473L43.4877 45.4265L48.6762 23.2473C48.8426 22.5774 49.0423 22.1419 49.3079 21.9407C49.5743 21.7399 50.04 21.606 50.6387 21.606H53.2993C53.931 21.606 54.3637 21.7063 54.6294 21.9407C54.8958 22.1419 55.1284 22.611 55.2614 23.2473L60.5166 45.6945L66.2701 23.2473C66.4694 22.5774 66.7024 22.1419 66.9351 21.9407C67.2011 21.7399 67.6335 21.606 68.2322 21.606H71.3251C71.8575 21.606 72.1569 21.8739 72.1569 22.4434C72.1569 22.611 72.1236 22.7786 72.0902 22.9794C72.0569 23.1802 71.9906 23.4485 71.8576 23.8173L63.8418 49.7148C63.6425 50.3851 63.4097 50.8206 63.1434 51.0214C62.8774 51.2226 62.445 51.3566 61.88 51.3566H59.0198C58.3877 51.3566 57.9553 51.2562 57.6889 51.0214C57.4229 50.787 57.1902 50.3515 57.0572 49.6816L51.9017 28.0719L46.7799 49.6476C46.614 50.3179 46.4143 50.7534 46.1483 50.9878C45.8822 51.2226 45.4165 51.323 44.8182 51.323H41.9579ZM84.6957 52.2276C82.9662 52.2276 81.2367 52.0265 79.5739 51.6245C77.9108 51.2226 76.614 50.7866 75.7493 50.2847C75.2169 49.9827 74.8508 49.648 74.7182 49.3464C74.5888 49.0506 74.5209 48.7313 74.5185 48.4081V46.6995C74.5185 45.996 74.7845 45.6609 75.2836 45.6609C75.4872 45.6616 75.6894 45.6957 75.8823 45.7617C76.0816 45.8289 76.381 45.9624 76.7137 46.0964C77.8883 46.6172 79.1146 47.0103 80.372 47.2691C81.6748 47.5352 83.0007 47.6698 84.33 47.671C86.4252 47.671 88.055 47.3027 89.1858 46.5656C90.3166 45.8285 90.9153 44.7566 90.9153 43.3828C90.9153 42.4449 90.6159 41.6742 90.0172 41.0375C89.4185 40.4008 88.2877 39.8316 86.6583 39.2953L81.8355 37.7879C79.4076 37.0172 77.6118 35.8781 76.514 34.3703C75.4166 32.8961 74.8512 31.2547 74.8512 29.5125C74.8512 28.1055 75.1506 26.8658 75.7493 25.7934C76.3476 24.7216 77.1461 23.7837 78.1438 23.0466C79.1416 22.2759 80.2723 21.7063 81.6028 21.3044C82.9329 20.9024 84.3296 20.7349 85.7931 20.7349C86.5249 20.7349 87.2899 20.7685 88.0217 20.8688C88.7868 20.9692 89.4852 21.1032 90.1835 21.2372C90.8486 21.4048 91.4807 21.5724 92.0794 21.7735C92.6779 21.9743 93.1434 22.1752 93.4762 22.3763C93.9419 22.6446 94.2742 22.9126 94.4739 23.2141C94.6735 23.4821 94.7733 23.8506 94.7733 24.3196V25.8942C94.7733 26.5977 94.5073 26.9665 94.0082 26.9665C93.7422 26.9665 93.3098 26.8321 92.7448 26.5641C90.8484 25.693 88.7198 25.2575 86.3589 25.2575C84.463 25.2575 82.9662 25.5591 81.9351 26.1958C80.9044 26.8321 80.372 27.804 80.372 29.1774C80.372 30.1157 80.7047 30.9196 81.3697 31.5563C82.0348 32.193 83.2656 32.8293 85.0284 33.3988L89.7512 34.9067C92.1457 35.6774 93.8752 36.7492 94.9063 38.1226C95.9374 39.4961 96.4365 41.0711 96.4365 42.8132C96.4365 44.2539 96.1367 45.5605 95.5713 46.6995C94.973 47.8386 94.1746 48.8437 93.1435 49.648C92.1124 50.4855 90.8819 51.0886 89.4518 51.5241C87.955 51.9933 86.3919 52.2276 84.6957 52.2276Z" fill="#191919"/>
<path d="M90.9816 68.5095C80.0396 76.6509 64.1415 80.9727 50.4724 80.9727C31.315 80.9727 14.0538 73.8364 1.01635 61.9764C-0.0147482 61.0385 0.916304 59.7654 2.14672 60.5021C16.2487 68.7443 33.6432 73.7361 51.6365 73.7361C63.7759 73.7361 77.1127 71.19 89.3855 65.9634C91.2146 65.1256 92.7778 67.1697 90.9816 68.5095ZM95.5384 63.283C94.1416 61.474 86.2922 62.4119 82.7335 62.8474C81.6691 62.9818 81.5027 62.0435 82.4675 61.34C88.7201 56.9174 98.9973 58.1908 100.194 59.6646C101.392 61.1725 99.8617 71.5247 94.0082 76.4833C93.1105 77.254 92.2457 76.8521 92.6448 75.847C93.9748 72.5298 96.9351 65.0588 95.5384 63.283Z" fill="#191919"/>
</g>
<defs>
<clipPath id="clip0_2358_1820">
<rect width="100" height="100" fill="white" transform="translate(0.573242 0.85376)"/>
</clipPath>
</defs>
</svg>
