<svg width="101" height="101" viewBox="0 0 101 101" fill="none" xmlns="http://www.w3.org/2000/svg">
<g clip-path="url(#clip0_2358_1951)">
<path d="M83.6108 54.5605C83.7695 54.1405 83.8254 53.6886 83.774 53.2425C83.7225 52.7965 83.5651 52.3692 83.315 51.9964C83.058 51.6883 82.7428 51.4339 82.3875 51.2478C82.0321 51.0616 81.6435 50.9474 81.244 50.9116L64.0842 50.7143C63.9856 50.7143 63.887 50.6157 63.7883 50.6157C63.7654 50.5985 63.7467 50.5762 63.7339 50.5505C63.7211 50.5248 63.7144 50.4965 63.7144 50.4678C63.7144 50.4391 63.7211 50.4108 63.7339 50.3851C63.7467 50.3594 63.7654 50.3371 63.7883 50.3199C63.887 50.1226 63.9856 50.024 64.1828 50.024L81.4412 49.8268C82.5368 49.7052 83.5803 49.2939 84.4643 48.6352C85.3483 47.9766 86.0409 47.0943 86.4708 46.0792L87.457 43.5151C87.457 43.4165 87.5556 43.3179 87.457 43.2193C86.9208 40.8311 85.6197 38.6833 83.7514 37.1021C81.8831 35.5209 79.5497 34.5929 77.1057 34.459C74.6618 34.3251 72.241 34.9926 70.2111 36.3602C68.1812 37.7277 66.6532 39.7206 65.8593 42.0358C64.8287 41.2998 63.5716 40.9506 62.3091 41.0496C61.1503 41.1788 60.0701 41.6983 59.2456 42.5227C58.4212 43.3471 57.9018 44.4274 57.7726 45.5861C57.7069 46.1792 57.7402 46.7791 57.8712 47.3613C55.9964 47.4131 54.2158 48.1944 52.9081 49.5388C51.6005 50.8833 50.869 52.685 50.8692 54.5605C50.853 54.9249 50.8862 55.2898 50.9678 55.6453C50.9724 55.7223 51.005 55.7949 51.0595 55.8495C51.1141 55.904 51.1867 55.9366 51.2637 55.9412H82.9205C83.1177 55.9412 83.315 55.8425 83.315 55.6453L83.6108 54.5605Z" fill="#191919"/>
<path d="M89.0351 43.5151H88.542C88.4434 43.5151 88.3448 43.6138 88.2462 43.7124L87.5558 46.0792C87.3972 46.4993 87.3412 46.9511 87.3927 47.3972C87.4442 47.8432 87.6015 48.2705 87.8517 48.6433C88.1087 48.9514 88.4238 49.2058 88.7792 49.3919C89.1346 49.5781 89.5231 49.6923 89.9227 49.7282L93.5716 49.9254C93.6702 49.9254 93.7689 50.024 93.8675 50.024C93.8904 50.0412 93.9091 50.0636 93.9219 50.0892C93.9348 50.1149 93.9414 50.1432 93.9414 50.1719C93.9414 50.2006 93.9348 50.229 93.9219 50.2546C93.9091 50.2803 93.8904 50.3026 93.8675 50.3199C93.7689 50.5171 93.6702 50.6157 93.473 50.6157L89.7255 50.813C88.6298 50.9346 87.5863 51.3458 86.7023 52.0045C85.8184 52.6631 85.1258 53.5454 84.6959 54.5605L84.4986 55.4481C84.4 55.5467 84.4987 55.7439 84.6959 55.7439H97.7136C97.7538 55.7497 97.7948 55.746 97.8333 55.7331C97.8718 55.7203 97.9068 55.6987 97.9355 55.67C97.9642 55.6413 97.9859 55.6063 97.9987 55.5677C98.0115 55.5292 98.0152 55.4883 98.0095 55.4481C98.2443 54.6125 98.3767 53.7515 98.404 52.884C98.3883 50.404 97.3962 48.0301 95.6426 46.2765C93.889 44.5229 91.5151 43.5308 89.0351 43.5151Z" fill="#191919"/>
<path d="M99.6857 61.2665C99.5101 61.2665 99.3385 61.2145 99.1925 61.1169C99.0466 61.0194 98.9328 60.8808 98.8656 60.7186C98.7985 60.5564 98.7809 60.378 98.8151 60.2058C98.8494 60.0336 98.9339 59.8755 99.058 59.7513C99.1822 59.6272 99.3403 59.5427 99.5125 59.5084C99.6847 59.4742 99.8631 59.4917 100.025 59.5589C100.188 59.6261 100.326 59.7399 100.424 59.8858C100.521 60.0318 100.573 60.2034 100.573 60.3789C100.574 60.4956 100.551 60.6113 100.507 60.7192C100.462 60.8271 100.397 60.9251 100.314 61.0076C100.232 61.0902 100.134 61.1555 100.026 61.1999C99.918 61.2444 99.8024 61.267 99.6857 61.2665ZM99.6857 59.6886C99.5491 59.6886 99.4156 59.7291 99.3021 59.8049C99.1886 59.8808 99.1001 59.9886 99.0479 60.1148C98.9956 60.2409 98.982 60.3797 99.0086 60.5136C99.0352 60.6475 99.101 60.7705 99.1975 60.8671C99.2941 60.9636 99.4171 61.0294 99.551 61.056C99.6849 61.0826 99.8237 61.069 99.9498 61.0167C100.076 60.9645 100.184 60.876 100.26 60.7625C100.336 60.6489 100.376 60.5155 100.376 60.3789C100.378 60.2877 100.362 60.1969 100.328 60.1121C100.294 60.0274 100.243 59.9504 100.179 59.8858C100.114 59.8213 100.037 59.7705 99.9524 59.7366C99.8677 59.7027 99.7769 59.6864 99.6857 59.6886ZM100.08 60.872H99.8829L99.6857 60.5762H99.4884V60.872H99.2912V59.9845H99.7843C99.8245 59.9787 99.8654 59.9824 99.904 59.9953C99.9425 60.0081 99.9775 60.0297 100.006 60.0584C100.035 60.0871 100.057 60.1221 100.069 60.1606C100.082 60.1992 100.086 60.2401 100.08 60.2803C100.08 60.3789 99.9815 60.4776 99.8829 60.5762L100.08 60.872ZM99.7843 60.3789C99.8829 60.3789 99.8829 60.3789 99.8829 60.2803C99.8832 60.2673 99.8808 60.2543 99.876 60.2423C99.8711 60.2302 99.8638 60.2192 99.8546 60.21C99.8454 60.2008 99.8344 60.1935 99.8223 60.1886C99.8102 60.1838 99.7973 60.1814 99.7843 60.1817H99.4884V60.4776H99.7843V60.3789ZM11.3228 59.4914H13.4924V65.4085H17.24V67.2823H11.3228V59.4914ZM19.5082 63.3375C19.5082 62.7897 19.6195 62.2476 19.8351 61.7441C20.0508 61.2405 20.3664 60.7859 20.7629 60.4079C21.1593 60.0299 21.6284 59.7363 22.1416 59.5448C22.6549 59.3534 23.2017 59.2681 23.7488 59.2941C24.2909 59.2697 24.8322 59.3568 25.3393 59.5501C25.8463 59.7434 26.3083 60.0387 26.6966 60.4177C27.0848 60.7968 27.3912 61.2515 27.5966 61.7537C27.802 62.2559 27.9022 62.795 27.8908 63.3375C27.8908 63.8853 27.7796 64.4274 27.5639 64.931C27.3483 65.4345 27.0327 65.8891 26.6362 66.2671C26.2397 66.6451 25.7707 66.9388 25.2574 67.1302C24.7442 67.3216 24.1974 67.4069 23.6502 67.3809C23.1102 67.397 22.5726 67.3041 22.0693 67.1078C21.566 66.9115 21.1074 66.6159 20.7208 66.2386C20.3342 65.8612 20.0276 65.4098 19.8193 64.9114C19.611 64.413 19.5052 63.8777 19.5082 63.3375ZM25.7212 63.3375C25.7405 63.0641 25.7042 62.7897 25.6145 62.5307C25.5247 62.2717 25.3834 62.0337 25.1991 61.8309C25.0147 61.6281 24.7911 61.4648 24.5419 61.3508C24.2926 61.2369 24.0228 61.1746 23.7488 61.1679C23.217 61.1938 22.7156 61.4234 22.3484 61.8089C21.9813 62.1945 21.7764 62.7065 21.7764 63.2389C21.7764 63.7713 21.9813 64.2833 22.3484 64.6689C22.7156 65.0544 23.217 65.2839 23.7488 65.3099C24.9323 65.5071 25.7212 64.5209 25.7212 63.3375ZM30.5536 63.8306V59.4914H32.7232V63.8306C32.7232 64.9154 33.3149 65.5071 34.2025 65.5071C34.4098 65.5244 34.6183 65.4945 34.8124 65.4198C35.0065 65.3451 35.1812 65.2275 35.3235 65.0757C35.4658 64.924 35.5719 64.742 35.6339 64.5435C35.696 64.345 35.7123 64.135 35.6818 63.9292V59.4914H37.8514V63.8306C37.8514 66.3947 36.3721 67.4795 34.2025 67.4795C31.9342 67.3809 30.5536 66.2961 30.5536 63.8306ZM41.1058 59.4914H44.163C46.9244 59.4914 48.6009 61.0693 48.6009 63.3375C48.6009 65.6058 46.9244 67.2823 44.163 67.2823H41.2044V59.4914H41.1058ZM44.163 65.3099C44.4378 65.3361 44.7151 65.3046 44.977 65.2175C45.239 65.1303 45.4798 64.9893 45.6841 64.8036C45.8884 64.6179 46.0516 64.3915 46.1633 64.1391C46.2749 63.8866 46.3326 63.6136 46.3326 63.3375C46.3326 63.0614 46.2749 62.7884 46.1633 62.536C46.0516 62.2835 45.8884 62.0571 45.6841 61.8714C45.4798 61.6857 45.239 61.5448 44.977 61.4576C44.7151 61.3704 44.4378 61.3389 44.163 61.3651H43.2754V65.3099H44.163ZM51.6581 59.4914H57.8711V61.3651H53.8277V62.6472H57.4766V64.4223H53.8277V67.2823H51.6581V59.4914ZM60.9283 59.4914H63.0979V65.4085H66.8454V67.2823H60.9283V59.4914ZM72.4667 59.3927H74.6364L77.9894 67.2823H75.6226L75.0308 65.9016H71.9736L71.3819 67.2823H69.1137L72.4667 59.3927ZM74.4391 64.2251L73.5516 62.0555L72.664 64.2251H74.4391ZM80.7508 59.4914H84.3997C84.8652 59.4536 85.3336 59.513 85.775 59.6658C86.2164 59.8186 86.6212 60.0614 86.9638 60.3789C87.2463 60.6836 87.4514 61.0518 87.5615 61.4524C87.6717 61.8531 87.6838 62.2744 87.5967 62.6807C87.5097 63.087 87.326 63.4663 87.0614 63.7866C86.7967 64.107 86.4588 64.3588 86.0762 64.5209L87.95 67.2823H85.4845L83.9066 64.9154H82.9204V67.2823H80.7508V59.4914ZM84.3011 63.2389C84.9914 63.2389 85.4845 62.8444 85.4845 62.3513C85.4845 61.7596 84.9914 61.4637 84.3011 61.4637H82.9204V63.3375H84.3011V63.2389ZM90.7113 59.4914H97.0229V61.2665H92.8809V62.4499H96.6285V64.2251H92.8809V65.4085H97.1216V67.2823H90.7113V59.4914ZM6.58908 64.3237C6.44034 64.6722 6.19319 64.9698 5.8779 65.18C5.5626 65.3902 5.19286 65.5039 4.81393 65.5071C4.28215 65.4812 3.78073 65.2517 3.41354 64.8661C3.04636 64.4806 2.84155 63.9686 2.84155 63.4361C2.84155 62.9037 3.04636 62.3917 3.41354 62.0062C3.78073 61.6206 4.28215 61.3911 4.81393 61.3651C5.21724 61.3729 5.60949 61.4984 5.9424 61.7261C6.27532 61.9539 6.53438 62.2741 6.6877 62.6472H8.95594C8.76191 61.7025 8.23932 60.8572 7.48099 60.2613C6.72267 59.6655 5.7777 59.3578 4.81393 59.3927C4.26879 59.375 3.72557 59.466 3.21598 59.6605C2.70639 59.855 2.24063 60.149 1.84588 60.5253C1.45113 60.9017 1.1353 61.353 0.916804 61.8527C0.698313 62.3525 0.581543 62.8908 0.573306 63.4361C0.57027 63.9763 0.676075 64.5116 0.884408 65.01C1.09274 65.5085 1.39933 65.9598 1.7859 66.3372C2.17246 66.7145 2.63107 67.0102 3.13437 67.2064C3.63767 67.4027 4.17534 67.4956 4.71531 67.4795C5.65758 67.4859 6.57535 67.1795 7.32487 66.6085C8.0744 66.0374 8.61335 65.2339 8.85732 64.3237H6.58908Z" fill="#191919"/>
</g>
<defs>
<clipPath id="clip0_2358_1951">
<rect width="100" height="100" fill="white" transform="translate(0.573242 0.96167)"/>
</clipPath>
</defs>
</svg>
