<svg width="101" height="101" viewBox="0 0 101 101" fill="none" xmlns="http://www.w3.org/2000/svg">
<g clip-path="url(#clip0_2358_1890)">
<path d="M85.9722 81.0822C84.6986 81.0822 83.5128 80.2796 83.0948 79.0154C82.5747 77.4415 83.4415 75.7478 85.0318 75.2329C90.7931 73.3659 94.5152 68.3663 94.5152 62.495C94.5152 55.0594 88.4056 49.0095 80.8957 49.0095C80.3741 49.0095 79.8128 49.0502 79.1297 49.138L76.1683 49.5181L75.7432 46.5907C73.9234 34.0379 62.879 24.5715 50.0528 24.5715C39.4493 24.5715 30.0095 30.8565 26.0064 40.5839L25.2528 42.414L23.258 42.4501C14.0905 42.617 6.63212 50.1342 6.63212 59.2063C6.63212 65.8292 10.5157 71.8689 16.5255 74.5925C18.0461 75.2823 18.715 77.0614 18.0184 78.567C17.3218 80.0727 15.5257 80.7334 14.0051 80.046C5.84527 76.3482 0.573242 68.1687 0.573242 59.2063C0.573242 47.5438 9.6489 37.7741 21.1769 36.5741C26.4885 25.5778 37.6207 18.5748 50.052 18.5748C64.9308 18.5748 77.8647 28.9034 81.2187 43.016C91.9203 43.1876 100.573 51.86 100.573 62.4958C100.573 70.8767 95.0843 78.2857 86.9158 80.9325C86.6031 81.0336 86.2849 81.0822 85.9722 81.0822Z" fill="#191919"/>
<path d="M39.6421 82.3794C39.6413 82.3786 39.6413 82.3786 39.6405 82.3786C39.6397 82.3786 39.6389 82.3779 39.6381 82.3779H39.6373L39.6365 82.3771L39.6358 82.3763C39.6358 82.3763 39.635 82.3763 39.635 82.3755H39.6342L39.6334 82.3747C39.6342 82.3739 39.6326 82.374 39.6326 82.374L39.6318 82.3732H39.631L39.6302 82.3724C39.631 82.3732 39.6294 82.3716 39.6294 82.3716C39.6294 82.3716 39.6279 82.3708 39.6271 82.3708L39.6263 82.37L39.6255 82.3693L39.6247 82.3685C39.6223 82.3677 39.6231 82.3677 39.6223 82.3677C39.6215 82.3685 39.6215 82.3669 39.6207 82.3669L39.6199 82.3661C39.6199 82.3661 39.6192 82.3653 39.6184 82.3653L39.6176 82.3646C39.6168 82.3638 39.6152 82.3638 39.6144 82.3638C39.6136 82.3638 39.612 82.363 39.6113 82.363C39.6105 82.3622 39.6105 82.3622 39.6097 82.3622H39.6089C39.6081 82.3614 39.6073 82.3614 39.6065 82.3614C39.6057 82.3606 39.6041 82.3606 39.6041 82.3606H39.6033L39.6018 82.3599C39.601 82.3599 39.601 82.3591 39.601 82.3591H39.6002C39.5535 82.3426 39.5037 82.3325 39.4516 82.3301H39.45H39.4484H39.4468C39.4468 82.3301 39.4468 82.3301 39.446 82.3301H39.4452H39.4445L39.4437 82.3293H39.4421H39.4405H39.4397H39.4389H39.4381H39.4365H39.4358H39.435H39.4342H39.4334H39.4326H39.4318H39.431H39.4302C38.1211 82.3293 37.05 81.2743 37.0421 79.9813V53.6313H39.0713H39.0816C39.3923 53.6446 39.6041 53.4083 39.6041 53.1241C39.6041 52.912 39.4729 52.7305 39.2864 52.6545L29.5006 45.9673C29.3251 45.8475 29.0935 45.8475 28.918 45.9673L19.0555 52.707C18.8705 52.833 18.7907 53.0639 18.8571 53.276C18.9243 53.4881 19.1219 53.6321 19.3464 53.6321H21.386L21.3875 79.9883C21.3978 81.8104 22.8761 83.2975 24.7567 83.3445C24.7781 83.3468 24.7986 83.3484 24.8199 83.3484H39.4294H39.4381C39.5725 83.346 39.6943 83.2928 39.7844 83.2075C39.7844 83.2075 39.7844 83.2075 39.7852 83.2067C39.7867 83.2052 39.7883 83.2036 39.7891 83.2028C39.7899 83.202 39.7907 83.202 39.7915 83.2005L39.7923 83.1997L39.7931 83.1989L39.7939 83.1981L39.7947 83.1973L39.7954 83.1966L39.7962 83.1958C39.7978 83.195 39.797 83.195 39.7978 83.1942C39.7978 83.1942 39.7978 83.1942 39.7986 83.1934L39.7994 83.1926C39.7994 83.1926 39.7994 83.1926 39.8002 83.1919C39.8887 83.1011 39.9441 82.9782 39.9448 82.842V82.8404V82.8396V82.8389V82.8381V82.8373V82.8365V82.8357V82.8342C39.9409 82.6338 39.8184 82.4585 39.6421 82.3794Z" fill="#191919"/>
<path d="M60.7773 82.3795C60.7773 82.3795 60.7765 82.3787 60.7757 82.3787C60.7749 82.3787 60.7742 82.3779 60.7734 82.3779H60.7726L60.7718 82.3772L60.771 82.3764H60.7702L60.7694 82.3756L60.7686 82.3748C60.7694 82.374 60.7678 82.374 60.767 82.374L60.7662 82.3732H60.7655C60.7647 82.3732 60.7647 82.3725 60.7647 82.3725C60.7631 82.3732 60.7631 82.3717 60.7631 82.3717L60.7615 82.3709L60.7607 82.3701H60.7599L60.7591 82.3693L60.7583 82.3685C60.7576 82.3678 60.7568 82.3678 60.7568 82.3678C60.756 82.3685 60.756 82.367 60.7544 82.367L60.7536 82.3662L60.7528 82.3654C60.7528 82.3654 60.752 82.3654 60.7512 82.3646C60.7504 82.3638 60.7489 82.3638 60.7481 82.3638C60.7473 82.3638 60.7457 82.3631 60.7449 82.3631C60.7441 82.3623 60.7441 82.3623 60.7433 82.3623C60.7425 82.3623 60.7425 82.3623 60.7417 82.3615C60.7417 82.3615 60.741 82.3615 60.7402 82.3607C60.7378 82.3599 60.7394 82.3599 60.7386 82.3599C60.7362 82.3599 60.7378 82.3599 60.737 82.3592C60.737 82.3592 60.7362 82.3584 60.7354 82.3584L60.7346 82.3576H60.7338C60.6872 82.3411 60.6374 82.331 60.5852 82.3286H60.5836H60.5828H60.5813H60.5805H60.5797H60.5789L60.5781 82.3278H60.5765H60.5749H60.5742H60.5734H60.5726H60.571H60.5694H60.5686H60.5678H60.567H60.5662H60.5655H60.5647H60.5639H60.5631H60.5623C59.254 82.3278 58.1829 81.2728 58.1749 79.9798V59.5321H60.2137C60.2208 59.5313 60.2263 59.5313 60.2342 59.5321C60.5172 59.5321 60.7465 59.3051 60.7465 59.0249C60.7465 58.8128 60.6153 58.6312 60.4287 58.5553L50.6421 51.868C50.4666 51.7483 50.235 51.7483 50.0595 51.868L40.201 58.6069C40.0161 58.733 39.9362 58.9639 40.0026 59.176C40.0698 59.3881 40.2674 59.5321 40.4919 59.5321H42.522L42.5236 79.9876C42.5323 81.8105 44.0129 83.2984 45.8943 83.3446C45.9149 83.3469 45.9354 83.3477 45.956 83.3477H60.5655H60.5742C60.7085 83.3453 60.8303 83.2921 60.9204 83.2068C60.9204 83.2068 60.9204 83.2068 60.9212 83.206C60.9228 83.2045 60.9259 83.2029 60.9251 83.2021C60.9259 83.2013 60.9267 83.2013 60.9275 83.1998L60.9283 83.199L60.9291 83.1982L60.9299 83.1974C60.9299 83.1974 60.9307 83.1974 60.9307 83.1966L60.9315 83.1958C60.9323 83.1958 60.9323 83.1951 60.9323 83.1951C60.9346 83.1943 60.9338 83.1943 60.9338 83.1935C60.9338 83.1935 60.9338 83.1935 60.9346 83.1927C60.9346 83.1927 60.9346 83.1927 60.9354 83.1919C60.9354 83.1919 60.9354 83.1919 60.9362 83.1911C61.0247 83.1004 61.0801 82.9775 61.0809 82.8413V82.8397V82.8389V82.8382V82.8374V82.8366V82.8358V82.835V82.8335C61.0761 82.6339 60.9536 82.4586 60.7773 82.3795Z" fill="#191919"/>
<path d="M81.9703 82.3795L81.9688 82.3787C81.968 82.3787 81.9672 82.3779 81.9664 82.3779H81.9656L81.9648 82.3771L81.964 82.3764C81.9632 82.3764 81.9632 82.3764 81.9632 82.3756H81.9624L81.9616 82.3748L81.9609 82.374C81.9609 82.374 81.9601 82.374 81.9601 82.3732H81.9593L81.9585 82.3724C81.9577 82.3732 81.9577 82.3717 81.9569 82.3717C81.9577 82.3709 81.9561 82.3709 81.9553 82.3709L81.9545 82.3701H81.9537L81.953 82.3693L81.9522 82.3685C81.9498 82.3677 81.9506 82.3677 81.9506 82.3677C81.9498 82.3685 81.9498 82.367 81.9482 82.367L81.9474 82.3662C81.9482 82.3654 81.9466 82.3654 81.9458 82.3654C81.9458 82.3654 81.945 82.3654 81.945 82.3646C81.9443 82.3638 81.9427 82.3638 81.9419 82.3638C81.9411 82.3638 81.9395 82.363 81.9387 82.363L81.9371 82.3623C81.9371 82.3623 81.9364 82.3623 81.9356 82.3615L81.934 82.3607C81.9316 82.3599 81.9316 82.3599 81.9324 82.3599C81.93 82.3599 81.93 82.3599 81.9308 82.3591C81.93 82.3591 81.93 82.3584 81.93 82.3584C81.9292 82.3584 81.9284 82.3576 81.9284 82.3576H81.9277C81.881 82.3411 81.8312 82.331 81.779 82.3286H81.7783H81.7767H81.7743H81.7735H81.7727H81.7719C81.7711 82.3278 81.7711 82.3278 81.7703 82.3278H81.7688H81.7672H81.7664H81.7656H81.7648H81.7632H81.7617C81.7617 82.3278 81.7616 82.3278 81.7609 82.3278H81.7601H81.7593H81.7585H81.7577H81.7569H81.7561H81.7593H81.7585C80.4502 82.3278 79.379 81.2728 79.3711 79.9798V65.4304H81.4051H81.4154C81.7039 65.4234 81.9379 65.2073 81.9379 64.9232C81.9379 64.7111 81.8067 64.5295 81.6201 64.4536L71.8336 57.7663C71.6589 57.6466 71.4265 57.6466 71.251 57.7663L61.3885 64.5053C61.2035 64.6313 61.1237 64.8622 61.1901 65.0743C61.2573 65.2864 61.4549 65.4304 61.6794 65.4304H63.7134L63.715 79.9876C63.7253 81.8105 65.2051 83.2991 67.0858 83.3445C67.1063 83.3469 67.1269 83.3477 67.1474 83.3477H81.7569H81.7656C81.9 83.3453 82.0217 83.2921 82.1118 83.2068L82.1126 83.206C82.1142 83.2044 82.1166 83.2029 82.1166 83.2021C82.1174 83.2013 82.1182 83.2013 82.119 83.1997L82.1198 83.199L82.1205 83.1982L82.1213 83.1974L82.1221 83.1966L82.1229 83.1958L82.1237 83.195C82.1261 83.1943 82.1245 83.1943 82.1253 83.1935C82.1253 83.1935 82.1253 83.1935 82.1261 83.1927L82.1269 83.1919C82.1269 83.1919 82.1269 83.1919 82.1277 83.1911C82.2162 83.1003 82.2715 82.9775 82.2723 82.8413V82.8397V82.8389V82.8381V82.8374V82.8366V82.8358V82.835V82.8334C82.2692 82.6339 82.1458 82.4585 81.9703 82.3795Z" fill="#191919"/>
</g>
<defs>
<clipPath id="clip0_2358_1890">
<rect width="100" height="100" fill="white" transform="translate(0.573242 0.96167)"/>
</clipPath>
</defs>
</svg>
