<svg width="101" height="101" viewBox="0 0 101 101" fill="none" xmlns="http://www.w3.org/2000/svg">
<g clip-path="url(#clip0_2358_1867)">
<path d="M40.7227 64.4848C37.0154 60.9956 34.8347 56.1979 34.8347 50.746C34.8347 45.2941 37.0154 40.4964 40.5047 37.0072C43.5577 33.9541 43.5577 29.1565 40.5047 26.1034C37.4516 23.0503 32.6539 23.0503 29.6008 26.1034C23.4947 32.4276 19.5693 41.1507 19.5693 50.746C19.5693 60.3414 23.4947 69.0644 29.8189 75.3886C32.872 78.4417 37.6697 78.4417 40.7227 75.3886C43.5577 72.3356 43.5577 67.5379 40.7227 64.4848Z" fill="#393939"/>
<path d="M40.7229 37.0072C44.2121 33.2999 49.0098 31.1191 54.4617 31.1191C59.9136 31.1191 64.7113 33.2999 68.2005 36.7891C71.2536 39.8421 76.0513 39.8421 79.1043 36.7891C82.1574 33.736 82.1574 28.9383 79.1043 25.8853C72.7801 19.7791 64.0571 15.8538 54.4617 15.8538C44.8664 15.8538 36.1433 19.7791 29.8191 26.1033C26.766 29.1564 26.766 33.9541 29.8191 37.0072C32.8722 39.8421 37.6698 39.8421 40.7229 37.0072Z" fill="#393939"/>
<path d="M68.2005 64.4848C64.7113 68.1921 59.9136 70.3728 54.4617 70.3728C49.0098 70.3728 44.2121 68.1921 40.7229 64.7028C37.6698 61.6498 32.8722 61.6498 29.8191 64.7028C26.766 67.7559 26.766 72.5536 29.8191 75.6067C36.1433 81.7128 44.8664 85.6382 54.4617 85.6382C64.0571 85.6382 72.7801 81.7128 79.1043 75.3886C82.1574 72.3355 82.1574 67.5378 79.1043 64.4848C76.0513 61.6498 71.2536 61.6498 68.2005 64.4848Z" fill="#393939"/>
<path d="M35.2704 39.1879C39.4858 39.1879 42.903 35.7707 42.903 31.5553C42.903 27.3399 39.4858 23.9226 35.2704 23.9226C31.055 23.9226 27.6377 27.3399 27.6377 31.5553C27.6377 35.7707 31.055 39.1879 35.2704 39.1879Z" fill="#191919"/>
<path d="M35.2704 77.5693C39.4858 77.5693 42.903 74.152 42.903 69.9366C42.903 65.7212 39.4858 62.304 35.2704 62.304C31.055 62.304 27.6377 65.7212 27.6377 69.9366C27.6377 74.152 31.055 77.5693 35.2704 77.5693Z" fill="#191919"/>
</g>
<defs>
<clipPath id="clip0_2358_1867">
<rect width="70" height="70" fill="white" transform="translate(15.5732 15.8538)"/>
</clipPath>
</defs>
</svg>
