<svg width="101" height="101" viewBox="0 0 101 101" fill="none" xmlns="http://www.w3.org/2000/svg">
<g clip-path="url(#clip0_2358_1945)">
<path d="M80.2568 25.6453C86.9612 25.6453 93.6656 25.6453 100.573 25.6453C100.531 25.9813 100.489 26.2649 100.403 26.5857C100.387 26.6466 100.387 26.6466 100.37 26.7088C100.334 26.8434 100.298 26.9779 100.262 27.1123C100.236 27.2093 100.21 27.3063 100.184 27.4033C100.114 27.6666 100.044 27.9298 99.973 28.193C99.8975 28.4741 99.8225 28.7554 99.7474 29.0366C99.5899 29.6262 99.4319 30.2158 99.2737 30.8053C99.1851 31.1357 99.0965 31.4662 99.008 31.7966C98.7091 32.9126 98.4096 34.0284 98.1099 35.1442C97.7506 36.482 97.392 37.8201 97.0334 39.1581C96.8944 39.6768 96.7554 40.1954 96.6164 40.7141C96.5638 40.9101 96.5113 41.1061 96.4588 41.3021C96.2312 42.151 96.0037 43 95.776 43.8489C95.0828 46.4346 94.3899 49.0204 93.6982 51.6065C93.6832 51.6629 93.6681 51.7193 93.6525 51.7773C93.5799 52.0491 93.5072 52.3209 93.4345 52.5926C93.3802 52.796 93.3258 52.9994 93.2713 53.2028C93.1562 53.6332 93.0412 54.0636 92.9277 54.4944C92.8801 54.6747 92.8325 54.8549 92.7848 55.0352C92.7522 55.1588 92.7198 55.2825 92.6874 55.4062C92.6682 55.4789 92.6489 55.5516 92.6291 55.6266C92.6124 55.6901 92.5957 55.7537 92.5785 55.8192C92.5353 55.9617 92.5353 55.9617 92.472 56.025C92.375 56.0313 92.2777 56.0333 92.1805 56.0334C92.0854 56.0338 92.0854 56.0338 91.9883 56.0343C91.9178 56.0342 91.8473 56.0342 91.7747 56.0342C91.7004 56.0344 91.6261 56.0346 91.5496 56.0349C91.3426 56.0354 91.1355 56.0357 90.9285 56.0359C90.7055 56.0361 90.4825 56.0367 90.2595 56.0373C89.8727 56.0382 89.4859 56.039 89.0991 56.0396C88.5391 56.0404 87.9791 56.0418 87.4191 56.0433C86.5096 56.0457 85.6001 56.0479 84.6906 56.0499C84.6361 56.05 84.5817 56.0501 84.5255 56.0502C83.7534 56.0519 82.9813 56.0534 82.2092 56.0549C82.1549 56.055 82.1006 56.0551 82.0447 56.0552C81.9905 56.0553 81.9363 56.0554 81.8804 56.0555C80.9752 56.0572 80.0699 56.0594 79.1647 56.0619C78.6064 56.0635 78.0482 56.0647 77.4899 56.0653C77.1068 56.0658 76.7238 56.0667 76.3407 56.068C76.1199 56.0687 75.8991 56.0692 75.6783 56.0692C75.4383 56.0692 75.1984 56.0701 74.9585 56.0711C74.8894 56.0709 74.8203 56.0708 74.7491 56.0706C73.8624 56.071 73.8624 56.071 73.1049 56.4681C72.8162 56.8598 72.6821 57.2668 72.7439 57.7557C72.7768 57.9119 72.8151 58.0656 72.8563 58.2199C72.8708 58.2774 72.8854 58.3348 72.9003 58.394C72.9464 58.5751 72.9939 58.7558 73.0416 58.9364C73.0709 59.0494 73.1001 59.1623 73.1294 59.2753C73.2216 59.6298 73.3164 59.9837 73.4112 60.3375C73.4467 60.4703 73.4821 60.6031 73.5176 60.7359C73.612 61.0899 73.7067 61.4438 73.8015 61.7976C73.9013 62.1707 74.001 62.5439 74.1007 62.917C74.6585 65.0047 75.2182 67.0918 75.7785 69.1788C76.1601 70.5998 76.5412 72.021 76.9216 73.4424C76.9875 73.6887 77.0535 73.9351 77.1195 74.1814C77.1963 74.4679 77.273 74.7545 77.3497 75.041C77.378 75.1467 77.4063 75.2524 77.4346 75.3581C77.4733 75.5022 77.5118 75.6463 77.5503 75.7904C77.5617 75.8329 77.5732 75.8755 77.5849 75.9193C77.6618 76.2077 77.6618 76.2077 77.6618 76.2782C70.9365 76.2782 64.2112 76.2782 57.2821 76.2782C56.8435 74.6282 56.4049 72.9782 55.953 71.2782C55.7406 70.4841 55.5282 69.69 55.3147 68.8962C55.2015 68.4753 55.0885 68.0544 54.9754 67.6335C54.9457 67.5228 54.916 67.4121 54.8863 67.3015C54.6518 66.4289 54.4181 65.5562 54.1846 64.6834C54.074 64.2703 53.9635 63.8572 53.8529 63.4441C53.764 63.112 53.6751 62.7799 53.5864 62.4477C53.4089 61.7837 53.2309 61.1198 53.0515 60.4562C52.9603 60.1182 52.8701 59.7798 52.7808 59.4413C52.7245 59.2283 52.6673 59.0156 52.61 58.8029C52.5836 58.7045 52.5576 58.606 52.532 58.5075C52.497 58.3729 52.4608 58.2387 52.4242 58.1046C52.4043 58.0295 52.3844 57.9544 52.3638 57.877C52.252 57.5944 52.095 57.3773 51.8381 57.2055C51.6913 57.1573 51.5664 57.1407 51.4118 57.1366C51.3613 57.134 51.3107 57.1315 51.2586 57.1289C50.6557 57.248 50.2138 57.814 49.7987 58.2324C49.7208 58.3102 49.6428 58.3881 49.5648 58.4658C49.3512 58.679 49.1382 58.8928 48.9253 59.1066C48.6953 59.3374 48.4648 59.5676 48.2344 59.7979C47.8355 60.1968 47.4369 60.596 47.0385 60.9954C46.4625 61.5729 45.886 62.1499 45.3094 62.7267C44.3739 63.6627 43.4388 64.5991 42.5039 65.5357C41.5959 66.4455 40.6876 67.3551 39.7791 68.2644C39.7231 68.3205 39.6671 68.3765 39.6094 68.4343C39.3283 68.7156 39.0473 68.9968 38.7663 69.2781C36.4355 71.6108 34.1054 73.9443 31.7758 76.2782C31.7131 76.2573 31.6505 76.2364 31.5859 76.2149C31.5191 76.0256 31.4653 75.8428 31.4159 75.6487C31.3921 75.5589 31.3921 75.5589 31.3677 75.4673C31.3145 75.2665 31.2624 75.0654 31.2104 74.8643C31.173 74.7225 31.1356 74.5808 31.0982 74.4392C31.0182 74.1362 30.9387 73.8331 30.8596 73.5299C30.735 73.0522 30.6093 72.5747 30.4833 72.0973C30.4412 71.9374 30.399 71.7775 30.3568 71.6176C30.3256 71.4991 30.3256 71.4991 30.2937 71.3782C30.2305 71.1383 30.1674 70.8984 30.1043 70.6585C29.7863 69.449 29.4626 68.2412 29.1345 67.0344C29.0233 66.6253 28.9124 66.216 28.8016 65.8067C28.7893 65.7613 28.777 65.7158 28.7643 65.669C28.3437 64.1155 27.9309 62.5598 27.5173 61.0044C27.4545 60.7683 27.3916 60.5323 27.3288 60.2962C27.2861 60.1356 27.2434 59.975 27.2008 59.8144C27.1359 59.5703 27.0705 59.3262 27.0048 59.0823C26.9779 58.9822 26.9512 58.882 26.9245 58.7817C26.8836 58.6279 26.8422 58.4743 26.8006 58.3207C26.7885 58.2747 26.7764 58.2288 26.7639 58.1815C26.5658 57.4562 26.2261 56.8499 25.5708 56.4532C24.8725 56.0812 24.1246 56.079 23.3518 56.0783C23.2771 56.078 23.2024 56.0777 23.1254 56.0773C22.9197 56.0765 22.7141 56.076 22.5084 56.0756C22.286 56.0751 22.0635 56.0742 21.8411 56.0734C21.4563 56.072 21.0714 56.0709 20.6866 56.0699C20.1302 56.0685 19.5739 56.0667 19.0175 56.0648C18.1147 56.0618 17.2119 56.0591 16.3091 56.0565C15.4324 56.054 14.5557 56.0514 13.679 56.0486C13.6249 56.0484 13.5708 56.0482 13.515 56.0481C13.2437 56.0472 12.9723 56.0463 12.7009 56.0455C10.4516 56.0382 8.2023 56.0315 5.95299 56.025C5.89286 55.8153 5.83281 55.6057 5.77278 55.396C5.74756 55.308 5.74755 55.308 5.72182 55.2183C5.56391 54.6664 5.41421 54.1126 5.26668 53.5579C5.23844 53.4521 5.21019 53.3463 5.18193 53.2405C5.12196 53.0159 5.06205 52.7913 5.0022 52.5666C4.90638 52.2069 4.81039 51.8473 4.71436 51.4877C4.69803 51.4266 4.68171 51.3654 4.66488 51.3024C4.63167 51.178 4.59845 51.0536 4.56523 50.9292C4.5149 50.7407 4.46459 50.5522 4.41428 50.3638C4.09858 49.1811 3.78139 47.9988 3.46394 46.8165C2.91489 44.7718 2.36731 42.7266 1.82065 40.6812C1.79186 40.5735 1.76308 40.4658 1.73429 40.3581C1.66413 40.0957 1.59401 39.8333 1.52398 39.5708C1.39097 39.0725 1.25731 38.5744 1.12209 38.0768C1.05656 37.8355 0.991255 37.5943 0.925956 37.353C0.894612 37.2375 0.863155 37.122 0.831575 37.0065C0.787927 36.8469 0.744663 36.6872 0.701478 36.5274C0.688424 36.4801 0.67537 36.4328 0.661921 36.384C0.60437 36.1697 0.573242 35.9957 0.573242 35.7718C7.27767 35.7718 13.9821 35.7718 20.8897 35.7718C22.3318 41.1078 22.3318 41.1078 22.8633 43.1072C23.0058 43.6429 23.1486 44.1786 23.2913 44.7142C23.3151 44.8037 23.3152 44.8037 23.3395 44.895C23.8377 46.765 24.3386 48.6342 24.8416 50.5029C24.9808 51.0202 25.1193 51.5377 25.2566 52.0555C25.3275 52.3228 25.399 52.59 25.4706 52.8572C25.5015 52.9731 25.5322 53.0891 25.5626 53.2051C25.6026 53.3578 25.6434 53.5101 25.6845 53.6625C25.6954 53.7049 25.7063 53.7474 25.7175 53.7911C25.8042 54.1071 25.935 54.3902 26.195 54.5985C26.5103 54.7532 26.8059 54.8344 27.1555 54.7592C27.6884 54.5549 28.0399 54.162 28.4327 53.7644C28.5102 53.6868 28.5878 53.6093 28.6654 53.5319C28.8781 53.3194 29.0899 53.1062 29.3017 52.8928C29.5303 52.6626 29.7598 52.4332 29.9891 52.2037C30.3861 51.8061 30.7828 51.4081 31.1791 51.0098C31.7522 50.4337 32.3261 49.8585 32.9002 49.2835C33.8318 48.3504 34.763 47.4168 35.6937 46.4828C35.7494 46.4269 35.8051 46.3711 35.8625 46.3135C36.0882 46.087 36.3138 45.8605 36.5395 45.6341C37.1614 45.01 37.7834 44.386 38.4054 43.762C38.4611 43.7062 38.5168 43.6503 38.5743 43.5927C39.5021 42.662 40.4302 41.7317 41.3586 40.8017C41.9316 40.2277 42.5041 39.6534 43.0762 39.0786C43.4678 38.6852 43.8597 38.2922 44.2518 37.8994C44.4784 37.6725 44.7047 37.4455 44.9306 37.218C45.1372 37.0101 45.3441 36.8026 45.5514 36.5955C45.6266 36.5202 45.7017 36.4447 45.7765 36.3691C45.8778 36.2668 45.9795 36.1652 46.0815 36.0637C46.1381 36.0069 46.1946 35.9502 46.2529 35.8917C46.396 35.7718 46.396 35.7718 46.5859 35.7718C46.5998 35.8246 46.6138 35.8773 46.6281 35.9317C47.3838 38.7923 48.1448 41.6514 48.9142 44.5084C48.9971 44.8162 49.0799 45.1239 49.1628 45.4317C49.1792 45.4925 49.1955 45.5533 49.2124 45.616C49.4642 46.5511 49.7146 47.4865 49.9643 48.4222C49.9974 48.5462 50.0305 48.6703 50.0637 48.7943C50.3191 49.7514 50.3191 49.7514 50.4417 50.212C50.5934 50.7819 50.7457 51.3515 50.8996 51.9208C50.9777 52.21 51.0547 52.4994 51.1309 52.7891C51.1799 52.9742 51.2298 53.1591 51.2799 53.3439C51.3134 53.4687 51.3459 53.5938 51.3783 53.7189C51.5889 54.4882 51.8943 55.1611 52.5986 55.582C52.9635 55.773 53.2992 55.906 53.7143 55.9069C53.7732 55.9072 53.8321 55.9075 53.8928 55.9078C53.9573 55.9078 54.0218 55.9078 54.0882 55.9077C54.1569 55.908 54.2256 55.9082 54.2964 55.9085C54.5273 55.9092 54.7583 55.9094 54.9893 55.9096C55.1546 55.91 55.3199 55.9105 55.4852 55.9109C55.9818 55.9121 56.4785 55.9128 56.9751 55.9133C57.2092 55.9136 57.4433 55.914 57.6773 55.9143C58.4558 55.9154 59.2343 55.9163 60.0128 55.9167C60.2147 55.9169 60.4167 55.917 60.6186 55.9171C60.6688 55.9171 60.719 55.9172 60.7707 55.9172C61.5832 55.9177 62.3957 55.9193 63.2082 55.9214C64.043 55.9235 64.8778 55.9246 65.7126 55.9248C66.181 55.925 66.6495 55.9255 67.1179 55.9271C67.5589 55.9287 67.9998 55.9289 68.4408 55.9282C68.6023 55.9282 68.7639 55.9286 68.9254 55.9295C69.1466 55.9306 69.3677 55.9301 69.5889 55.9293C69.6523 55.93 69.7156 55.9307 69.7809 55.9314C70.5921 55.9241 71.3111 55.6129 71.9162 55.0781C72.6164 54.3537 72.8493 53.3893 73.0933 52.4441C73.127 52.3163 73.1609 52.1886 73.1948 52.0608C73.2668 51.789 73.3383 51.5169 73.4092 51.2448C73.5217 50.813 73.6356 50.3816 73.7497 49.9502C73.8857 49.4358 74.0214 48.9214 74.1566 48.4069C74.3704 47.5936 74.5863 46.781 74.8046 45.9689C74.819 45.9153 74.8334 45.8618 74.8482 45.8066C74.9194 45.542 74.9906 45.2773 75.0618 45.0127C75.1891 44.5399 75.316 44.067 75.4429 43.5941C75.4711 43.4891 75.4993 43.384 75.5275 43.2789C75.8552 42.0577 76.1818 40.8362 76.5083 39.6147C77.1612 37.1722 77.1612 37.1722 77.4561 36.0717C77.4683 36.0261 77.4805 35.9805 77.4931 35.9335C78.4124 32.5036 79.3349 29.0745 80.2568 25.6453Z" fill="#191919"/>
</g>
<defs>
<clipPath id="clip0_2358_1945">
<rect width="100" height="100" fill="white" transform="translate(0.573242 0.96167)"/>
</clipPath>
</defs>
</svg>
