<svg width="101" height="101" viewBox="0 0 101 101" fill="none" xmlns="http://www.w3.org/2000/svg">
<path fill-rule="evenodd" clip-rule="evenodd" d="M35.5828 83.4617H20.0603L37.2266 47.5817L45.004 63.5942L35.5828 83.4617ZM38.3478 44.1529C38.2446 43.9417 38.0843 43.7636 37.885 43.639C37.6857 43.5144 37.4554 43.4482 37.2203 43.4479H37.2166C36.9805 43.4479 36.7492 43.5147 36.5495 43.6406C36.3497 43.7664 36.1897 43.9462 36.0878 44.1592L16.9453 84.1729C16.8542 84.3636 16.813 84.5743 16.8254 84.7853C16.8379 84.9962 16.9036 85.2006 17.0165 85.3793C17.1293 85.5579 17.2856 85.7051 17.4708 85.8069C17.656 85.9088 17.864 85.962 18.0753 85.9617H36.3753C36.8603 85.9617 37.3003 85.6829 37.5078 85.2467L47.5278 64.1217C47.6078 63.9529 47.6488 63.7683 47.6477 63.5816C47.6466 63.3948 47.6035 63.2107 47.5215 63.0429L38.3478 44.1529ZM81.8166 83.4617H66.3978L41.6566 31.6742C41.5545 31.4607 41.3941 31.2805 41.1939 31.1544C40.9937 31.0283 40.7619 30.9615 40.5253 30.9617H30.4353L30.4466 18.4617H50.2216L74.8478 70.2479C75.0553 70.6829 75.4965 70.9617 75.9803 70.9617H81.8178L81.8166 83.4617ZM83.0703 68.4617H76.7728L52.1478 16.6754C52.0457 16.4614 51.8849 16.2808 51.6843 16.1544C51.4836 16.0281 51.2512 15.9612 51.0141 15.9617H29.1953C28.5041 15.9617 27.9428 16.5204 27.9416 17.2104L27.9291 32.2104C27.9289 32.3748 27.9611 32.5376 28.024 32.6894C28.0868 32.8413 28.1789 32.9793 28.2952 33.0956C28.4114 33.2118 28.5494 33.3039 28.7013 33.3668C28.8532 33.4296 29.0159 33.4618 29.1803 33.4617H39.7328L64.474 85.2492C64.6828 85.6842 65.1203 85.9617 65.6041 85.9617H83.069C83.2335 85.9622 83.3965 85.9302 83.5486 85.8676C83.7006 85.805 83.8389 85.713 83.9554 85.5969C84.0718 85.4808 84.1642 85.3428 84.2273 85.1909C84.2903 85.039 84.3228 84.8761 84.3228 84.7117V69.7117C84.3228 69.5473 84.2904 69.3846 84.2274 69.2327C84.1644 69.0809 84.0721 68.943 83.9558 68.8269C83.8395 68.7108 83.7014 68.6188 83.5494 68.5561C83.3975 68.4934 83.2347 68.4613 83.0703 68.4617Z" fill="#191919"/>
</svg>
