<svg width="101" height="101" viewBox="0 0 101 101" fill="none" xmlns="http://www.w3.org/2000/svg">
<g clip-path="url(#clip0_2358_1881)">
<path d="M28.3669 64.8027C27.2789 64.8027 26.3981 63.9211 26.3981 62.8354C26.3981 61.7497 27.2803 60.8682 28.3669 60.8682C29.4534 60.8682 30.3357 61.7497 30.3357 62.8354C30.3357 63.9211 29.4549 64.8027 28.3669 64.8027ZM29.8866 35.3632C28.4031 34.7495 26.6951 35.0882 25.5607 36.2231L16.4555 45.3211L7.35034 36.2231C6.21454 35.0882 4.50796 34.7495 3.02447 35.3632C1.54098 35.977 0.573242 37.4231 0.573242 39.0285V62.8354C0.573242 65.0256 2.35082 66.8018 4.54272 66.8018C6.73463 66.8018 8.51221 65.0256 8.51221 62.8354V48.6057L13.6479 53.7374C15.198 55.2863 17.7116 55.2863 19.2617 53.7374L24.3974 48.6057V62.8354C24.3974 65.0256 26.175 66.8018 28.3669 66.8018C30.5588 66.8018 32.3364 65.0256 32.3364 62.8354V39.0285C32.3378 37.4246 31.3701 35.9785 29.8866 35.3632Z" fill="#191919"/>
<path d="M62.4845 40.8408C61.3965 40.8408 60.5157 39.9593 60.5157 38.8736C60.5157 37.7879 61.398 36.9063 62.4845 36.9063C63.5725 36.9063 64.4533 37.7879 64.4533 38.8736C64.4533 39.9593 63.5725 40.8408 62.4845 40.8408ZM62.4845 34.9058C60.2926 34.9058 58.515 36.6819 58.515 38.8721V50.7756C58.515 55.1516 54.9512 58.7127 50.5717 58.7127C46.1923 58.7127 42.6284 55.1516 42.6284 50.7756V38.8721C42.6284 36.6819 40.8508 34.9058 38.6589 34.9058C36.467 34.9058 34.6895 36.6819 34.6895 38.8721V50.7756C34.6895 59.5262 41.8142 66.6454 50.5717 66.6454C59.3292 66.6454 66.454 59.5262 66.454 50.7756V38.8721C66.454 36.6819 64.6779 34.9058 62.4845 34.9058Z" fill="#191919"/>
<path d="M96.6049 64.6465C95.5169 64.6465 94.6361 63.7649 94.6361 62.6792C94.6361 61.5935 95.5184 60.7119 96.6049 60.7119C97.6929 60.7119 98.5737 61.5935 98.5737 62.6792C98.5737 63.7649 97.6929 64.6465 96.6049 64.6465ZM79.0783 50.7757L69.9731 59.8738C68.423 61.4227 68.423 63.9342 69.9731 65.4832C71.5233 67.0321 74.0368 67.0321 75.5869 65.4832L84.6921 56.3851L93.7973 65.4832C95.3474 67.0321 97.8609 67.0321 99.4111 65.4832C100.961 63.9342 100.961 61.4227 99.4111 59.8738L90.3059 50.7757L99.4111 41.6777C100.961 40.1288 100.961 37.6172 99.4111 36.0683C97.8609 34.5194 95.3474 34.5194 93.7973 36.0683L84.6921 45.1663L75.5869 36.0683C74.0368 34.5194 71.5233 34.5194 69.9731 36.0683C68.423 37.6172 68.423 40.1288 69.9731 41.6777L79.0783 50.7757Z" fill="#191919"/>
</g>
<defs>
<clipPath id="clip0_2358_1881">
<rect width="100" height="100" fill="white" transform="translate(0.573242 0.85376)"/>
</clipPath>
</defs>
</svg>
