<svg width="101" height="101" viewBox="0 0 101 101" fill="none" xmlns="http://www.w3.org/2000/svg">
<path d="M48.2305 15.9805C48.0766 15.9942 47.5869 16.0421 47.1463 16.0763C36.983 16.9725 27.4633 22.3364 21.4338 30.5805C18.0764 35.1644 15.929 40.364 15.1177 45.8715C14.8309 47.794 14.7959 48.3619 14.7959 50.9685C14.7959 53.5752 14.8309 54.143 15.1177 56.0655C17.0622 69.2083 26.6239 80.2506 39.592 84.3419C41.9143 85.074 44.3624 85.5734 47.1463 85.8744C48.2305 85.9907 52.9169 85.9907 54.0011 85.8744C58.8064 85.3545 62.8773 84.1914 66.8923 82.1868C67.5078 81.8789 67.6267 81.7968 67.5428 81.7284C67.4868 81.6874 64.8638 78.246 61.7162 74.0863L55.9946 66.5264L48.825 56.1476C44.88 50.4417 41.6345 45.7757 41.6065 45.7757C41.5785 45.7689 41.5505 50.3801 41.5366 56.0108C41.5156 65.8696 41.5086 66.2664 41.3827 66.499C41.2008 66.8342 41.0609 66.9711 40.7671 67.1216C40.5433 67.231 40.3475 67.2516 39.2913 67.2516H38.0812L37.7594 67.0532C37.5496 66.9232 37.3957 66.7521 37.2908 66.5537L37.1439 66.2458L37.1579 52.5284L37.1789 38.8041L37.3957 38.5373C37.5076 38.3936 37.7454 38.2089 37.9133 38.12C38.2001 37.9831 38.312 37.9695 39.5221 37.9695C40.949 37.9695 41.1868 38.0242 41.5575 38.421C41.6625 38.5305 45.5445 44.2501 50.189 51.1396C54.8334 58.0291 61.1846 67.4363 64.3042 72.0544L69.9699 80.449L70.2567 80.2643C72.7958 78.6497 75.4817 76.3509 77.6081 73.9563C82.1337 68.873 85.0504 62.6745 86.0297 56.0655C86.3165 54.143 86.3515 53.5752 86.3515 50.9685C86.3515 48.3619 86.3165 47.794 86.0297 45.8715C84.0852 32.7288 74.5235 21.6864 61.5553 17.5951C59.2681 16.8699 56.8339 16.3705 54.106 16.0694C53.4345 16.001 48.811 15.9258 48.2305 15.9805ZM62.8773 37.1485C63.2131 37.3127 63.4859 37.6274 63.5838 37.9558C63.6397 38.1337 63.6537 41.9376 63.6397 50.5101L63.6188 62.8114L61.4014 59.4863L59.1771 56.1613V47.2193C59.1771 41.4382 59.2051 38.1884 59.2471 38.031C59.359 37.6479 59.6038 37.3469 59.9396 37.169C60.2263 37.0253 60.3313 37.0116 61.4294 37.0116C62.4646 37.0116 62.6465 37.0253 62.8773 37.1485Z" fill="#191919"/>
</svg>
