<svg width="101" height="101" viewBox="0 0 101 101" fill="none" xmlns="http://www.w3.org/2000/svg">
<g clip-path="url(#clip0_2358_1872)">
<path fill-rule="evenodd" clip-rule="evenodd" d="M22.1436 41.8685H7.61816V49.2343H14.7654C15.02 49.2343 15.2266 49.4432 15.2266 49.7007V56.8294H22.6048V42.3358C22.605 42.212 22.5566 42.0931 22.47 42.0054C22.3835 41.9178 22.2661 41.8685 22.1436 41.8685Z" fill="#191919"/>
<path opacity="0.405" fill-rule="evenodd" clip-rule="evenodd" d="M7.61804 41.8685V49.2343H0.803858C0.710221 49.2341 0.625946 49.1768 0.590471 49.0891C0.554996 49.0015 0.575337 48.9009 0.641976 48.8343L7.61804 41.8685ZM15.6202 63.8028C15.5539 63.8687 15.4549 63.888 15.3691 63.8517C15.2834 63.8154 15.2275 63.7306 15.2273 63.6366V56.8294H22.6055L15.6202 63.802V63.8028Z" fill="#191919"/>
<path opacity="0.405" fill-rule="evenodd" clip-rule="evenodd" d="M7.61816 49.2343H14.9972C15.1237 49.2343 15.2274 49.3383 15.2274 49.467V56.8294H8.0802C7.82549 56.8294 7.61901 56.6205 7.61901 56.3629V49.2343H7.61816Z" fill="#191919"/>
<path fill-rule="evenodd" clip-rule="evenodd" d="M97.0079 41.4039C97.4202 41.8166 97.9067 42.0221 98.4682 42.0221C99.0474 42.0221 99.5432 41.8166 99.9555 41.4039C100.368 40.9912 100.574 40.5051 100.574 39.9432C100.574 39.3821 100.368 38.8909 99.9555 38.4697C99.5682 38.0591 99.0293 37.8301 98.4682 37.8378C97.9067 37.8378 97.4202 38.0485 97.0079 38.4688C96.5956 38.8909 96.3899 39.3812 96.3899 39.944C96.3899 40.5051 96.5956 40.9912 97.0079 41.4039ZM52.2714 46.7862C52.2714 46.8288 52.2359 46.8646 52.1929 46.8646H49.2968V52.3391C49.2968 52.7953 49.4115 53.1287 49.6391 53.3393C49.8668 53.5499 50.2006 53.6676 50.6391 53.694C51.0404 53.7187 51.5294 53.717 52.107 53.6898L52.1887 53.6855C52.21 53.6843 52.2309 53.6921 52.2463 53.7069C52.2618 53.7217 52.2705 53.7424 52.2705 53.7639V56.6896C52.2708 56.7298 52.2409 56.7637 52.2014 56.768L52.1483 56.774C49.8802 57.0153 48.2758 56.7911 47.3365 56.1021C46.3804 55.4003 45.9032 54.146 45.9032 52.3391V46.8646H43.6908C43.648 46.8646 43.6132 46.8295 43.6132 46.7862V43.6798C43.6132 43.6371 43.6478 43.6013 43.6908 43.6013H45.9024V41.4295C45.9024 41.3664 45.9394 41.3101 45.9959 41.2845L49.188 39.8801C49.2121 39.8691 49.24 39.8711 49.2622 39.8856C49.2843 39.9001 49.2977 39.925 49.2976 39.9517V43.6013H52.1929C52.2351 43.6013 52.2705 43.6363 52.2705 43.6798V46.7862H52.2714ZM58.4262 45.8653C58.7415 45.0228 59.2635 44.3909 59.9911 43.9697C60.7089 43.5563 61.5207 43.3389 62.3468 43.3387C62.3898 43.3387 62.4252 43.3736 62.4252 43.418V46.9866C62.4252 47.0227 62.41 47.0571 62.3835 47.0813C62.357 47.1055 62.3216 47.1172 62.2861 47.1136C61.3072 47.025 60.4278 47.2407 59.6488 47.76C58.8335 48.3032 58.4262 49.207 58.4262 50.4708V56.6819C58.4262 56.7029 58.4179 56.723 58.4032 56.7377C58.3885 56.7524 58.3685 56.7606 58.3478 56.7604H55.1085C55.0657 56.7604 55.0309 56.7252 55.0309 56.6819V43.6789C55.0309 43.6363 55.0655 43.6005 55.1085 43.6005H58.3478C58.39 43.6005 58.4254 43.6354 58.4254 43.6789V45.8636L58.4262 45.8653ZM74.4761 43.6013C74.4553 43.6011 74.4354 43.6093 74.4207 43.624C74.4059 43.6387 74.3977 43.6588 74.3977 43.6798V45.155C73.3808 43.8733 71.9509 43.2329 70.1086 43.2329C68.3549 43.2329 66.8499 43.904 65.5962 45.2462C64.3416 46.5884 63.7143 48.2332 63.7143 50.1808C63.7143 52.1284 64.3416 53.7733 65.5962 55.1155C66.8499 56.4577 68.3549 57.1287 70.1086 57.1287C71.9509 57.1287 73.38 56.4884 74.3977 55.2076V56.6819C74.3977 56.7246 74.4331 56.7604 74.4761 56.7604H77.7145C77.7575 56.7604 77.7929 56.7254 77.7929 56.6819V43.6789C77.7929 43.658 77.7847 43.6379 77.7699 43.6231C77.7552 43.6084 77.7352 43.6002 77.7145 43.6005H74.4761V43.6013ZM68.1357 52.8652C68.8195 53.5499 69.6871 53.8918 70.741 53.8918C71.7932 53.8918 72.6659 53.5448 73.3589 52.8515C74.052 52.1591 74.3977 51.2689 74.3977 50.1808C74.3977 49.0928 74.052 48.2025 73.3589 47.5093C72.6659 46.8169 71.7932 46.4698 70.7402 46.4698C69.6879 46.4698 68.8195 46.8169 68.1349 47.5101C67.4519 48.2025 67.1088 49.0928 67.1088 50.1808C67.1088 51.2689 67.4511 52.1634 68.1357 52.8652ZM92.8816 45.2462C91.627 43.904 90.1136 43.2329 88.3422 43.2329C86.5 43.2329 85.0793 43.8733 84.0793 45.1541V43.6798C84.0793 43.6364 84.0446 43.6013 84.0018 43.6013H80.7624C80.7196 43.6013 80.6849 43.6364 80.6849 43.6798V61.9449C80.6849 61.9883 80.7194 62.0242 80.7624 62.0242H84.0018C84.0439 62.0242 84.0793 61.9883 84.0793 61.9449V55.2076C85.0793 56.4884 86.5 57.1287 88.3422 57.1287C90.1136 57.1287 91.627 56.4577 92.8816 55.1155C94.1354 53.7733 94.7626 52.1284 94.7626 50.1808C94.7626 48.2332 94.1354 46.5884 92.8816 45.2462ZM85.1054 52.8652C85.79 53.5499 86.6576 53.8918 87.7107 53.8918C88.7629 53.8918 89.6356 53.5448 90.3286 52.8515C91.0217 52.1591 91.3682 51.2689 91.3682 50.1808C91.3682 49.0928 91.0217 48.2025 90.3286 47.5093C89.6356 46.8169 88.7629 46.4698 87.7107 46.4698C86.6576 46.4698 85.79 46.8169 85.1054 47.5101C84.4216 48.2025 84.0793 49.0928 84.0793 50.1808C84.0793 51.2689 84.4216 52.1634 85.1054 52.8652ZM96.862 56.7604C96.8192 56.7604 96.7845 56.7252 96.7845 56.6819V43.6789C96.7845 43.6363 96.819 43.6005 96.862 43.6005H100.101C100.144 43.6005 100.179 43.6354 100.179 43.6789V56.6828C100.179 56.7261 100.144 56.7612 100.101 56.7612H96.862V56.7604ZM36.3379 48.194C35.8725 47.9749 35.6406 47.6892 35.6406 47.3388C35.6406 47.0053 35.7848 46.7419 36.0748 46.5491C36.364 46.3564 36.7282 46.2592 37.1667 46.2592C38.0073 46.2592 38.6421 46.5875 39.0721 47.2432C39.1017 47.2892 39.1596 47.3071 39.2096 47.2859L42.0745 46.0179C42.0946 46.0088 42.1099 45.9916 42.1166 45.9704C42.1234 45.9493 42.1209 45.9263 42.1099 45.907C42.077 45.8515 42.0432 45.7963 42.0088 45.7416C41.5189 44.9699 40.884 44.3943 40.0873 43.9569C39.2104 43.4743 38.2366 43.2329 37.1667 43.2329C35.7451 43.2329 34.5572 43.6056 33.6002 44.3517C32.645 45.097 32.1669 46.1194 32.1669 47.4172C32.1669 48.2776 32.3996 48.9922 32.8642 49.5626C33.3131 50.1211 33.898 50.5519 34.5614 50.8127C35.2275 51.0753 35.8944 51.2953 36.5613 51.4701C37.2274 51.6458 37.794 51.8436 38.2585 52.0628C38.7231 52.2819 38.9558 52.5667 38.9558 52.918C38.9558 53.6727 38.3504 54.0496 37.1405 54.0496C35.988 54.0496 35.1895 53.6232 34.7452 52.7722C34.7082 52.6978 34.6203 52.6653 34.5445 52.698L31.688 53.9643C31.6688 53.9729 31.6538 53.9889 31.6464 54.0089C31.6391 54.0288 31.6401 54.0509 31.6492 54.0701L31.6813 54.1357C32.6795 56.1311 34.499 57.1287 37.1405 57.1287C38.6489 57.1287 39.9077 56.7646 40.9161 56.0373C41.9253 55.3082 42.4295 54.2687 42.4295 52.918C42.4295 52.0227 42.1968 51.2774 41.7322 50.6805C41.2942 50.1045 40.7066 49.6629 40.035 49.4049C39.3813 49.1545 38.7135 48.9435 38.0351 48.773C37.3682 48.6059 36.8024 48.4132 36.3379 48.1932V48.194Z" fill="#191919"/>
</g>
<defs>
<clipPath id="clip0_2358_1872">
<rect width="100" height="100" fill="white" transform="translate(0.573242 0.85376)"/>
</clipPath>
</defs>
</svg>
