<svg width="101" height="101" viewBox="0 0 101 101" fill="none" xmlns="http://www.w3.org/2000/svg">
<g clip-path="url(#clip0_2358_1954)">
<path d="M60.1946 47.1198H57.702C57.6508 46.9213 57.6126 46.691 57.5872 46.4295C57.5364 45.9207 57.5364 45.4083 57.5872 44.8995C57.6126 44.6386 57.6508 44.4085 57.702 44.2088H63.914V63.3548C63.603 63.4075 63.2895 63.4446 62.9746 63.4662C62.6618 63.4895 62.3483 63.5019 62.0346 63.5032C61.7341 63.5013 61.4338 63.489 61.1342 63.4662C60.8194 63.4445 60.506 63.4071 60.1952 63.3542V47.119V47.1194L60.1946 47.1198ZM81.8202 51.9347C81.8202 51.2378 81.7242 50.5724 81.533 49.9374C81.341 49.3034 81.0589 48.75 80.6893 48.2769C80.3179 47.8047 79.8453 47.4249 79.2701 47.1389C78.6951 46.8527 78.0111 46.7095 77.2187 46.7095C75.6595 46.7095 74.4643 47.1704 73.6337 48.0906C72.8029 49.011 72.2983 50.2923 72.1191 51.9347H81.8204H81.8202ZM72.0809 54.6962C72.1321 56.7862 72.6881 58.3167 73.7489 59.2865C74.8093 60.2567 76.3753 60.7426 78.4459 60.7426C80.2603 60.7426 81.986 60.4311 83.622 59.8092C83.826 60.1823 83.992 60.6365 84.12 61.1714C84.2456 61.6923 84.3225 62.2231 84.35 62.7574C83.507 63.1066 82.5796 63.3667 81.5705 63.5413C80.5601 63.715 79.4419 63.8026 78.2157 63.8026C76.4257 63.8026 74.8917 63.5592 73.6143 63.0745C72.3359 62.5888 71.2815 61.9046 70.4507 61.0217C69.62 60.1387 69.0126 59.0936 68.6292 57.8866C68.246 56.6803 68.0538 55.3552 68.0538 53.9121C68.0538 52.494 68.239 51.1689 68.6098 49.937C68.9799 48.7062 69.5499 47.6361 70.3159 46.728C71.0831 45.8195 72.0479 45.0982 73.2111 44.5633C74.3737 44.0283 75.7475 43.7605 77.3331 43.7605C78.6877 43.7605 79.8763 43.9847 80.8991 44.4324C81.9212 44.8802 82.7778 45.4961 83.4682 46.2798C84.1582 47.0638 84.6822 47.9968 85.0402 49.0786C85.3978 50.1613 85.5774 51.3367 85.5774 52.6059C85.5774 52.9544 85.5638 53.3211 85.5384 53.7066C85.5174 54.0365 85.4919 54.3662 85.462 54.6955H72.0801L72.0805 54.6961L72.0809 54.6962ZM89.759 44.2088C90.0259 44.1616 90.2945 44.1244 90.5642 44.097C90.8192 44.0727 91.0882 44.0601 91.3694 44.0601C91.6506 44.0601 91.9314 44.0727 92.213 44.097C92.494 44.1223 92.7498 44.1597 92.98 44.2088C93.056 44.5821 93.1328 45.0741 93.2092 45.683C93.2858 46.2927 93.3248 46.8086 93.3248 47.2318C93.8615 46.3861 94.5709 45.6516 95.4525 45.0295C96.3345 44.4079 97.4655 44.0965 98.8457 44.0965C99.0501 44.0965 99.2609 44.1031 99.4783 44.1155C99.6643 44.1253 99.8503 44.1436 100.034 44.171C100.085 44.3953 100.124 44.632 100.149 44.8804C100.175 45.129 100.188 45.3904 100.188 45.6639C100.188 45.9627 100.168 46.274 100.13 46.5968C100.093 46.9087 100.049 47.2198 99.9963 47.5296C99.7892 47.48 99.5766 47.4549 99.3633 47.455H98.8453C98.1553 47.455 97.4969 47.5485 96.8707 47.7348C96.2439 47.9217 95.6819 48.2514 95.1835 48.7237C94.6855 49.1967 94.2889 49.8438 93.9955 50.6649C93.7009 51.486 93.5542 52.5434 93.5542 53.837V63.3542C93.2432 63.4068 92.9296 63.4444 92.6146 63.466C92.27 63.4909 91.9566 63.503 91.6756 63.503C91.3621 63.5018 91.0487 63.4894 90.736 63.466C90.4085 63.4428 90.0822 63.4056 89.758 63.3544V44.209L89.759 44.2088ZM62.848 33.9857C62.848 34.4324 62.7652 34.8754 62.6034 35.2934C62.1738 35.4509 61.7185 35.5316 61.2594 35.5317H61.2538C60.7947 35.5318 60.3394 35.4511 59.9098 35.2936C59.7477 34.8755 59.6647 34.4323 59.6648 33.9855V33.9796C59.6648 33.5192 59.7516 33.0783 59.9088 32.6715C60.3385 32.5138 60.794 32.4331 61.2532 32.4334H61.2584C61.7316 32.4334 62.1844 32.5179 62.6024 32.6715C62.7644 33.0896 62.8472 33.5328 62.847 33.9796V33.9855H62.8476L62.848 33.9857ZM67.5332 32.95H63.818L66.4448 30.3931C66.0318 29.8285 65.5246 29.335 64.9444 28.9331L62.3172 31.49V27.8737C61.9679 27.8165 61.6142 27.7877 61.26 27.7875H61.2532C60.8928 27.7875 60.5398 27.8175 60.1958 27.8737V31.49L57.568 28.9329C57.2786 29.1334 57.0069 29.3571 56.756 29.6018L56.7548 29.6029C56.5038 29.8474 56.2741 30.1118 56.0681 30.3933L58.696 32.95H54.9799C54.9799 32.95 54.8915 33.6294 54.8915 33.9806V33.9849C54.8915 34.3361 54.9221 34.6802 54.9801 35.0153H58.6962L56.0679 37.5718C56.4813 38.1364 56.9885 38.6299 57.5686 39.0322L60.196 36.4754V40.092C60.5396 40.148 60.892 40.1776 61.252 40.178H61.261C61.6148 40.1777 61.968 40.1489 62.317 40.092V36.4754L64.9446 39.0328C65.2341 38.8321 65.5059 38.6084 65.7572 38.3639H65.7578C66.0087 38.1192 66.2383 37.8546 66.4442 37.573L63.8174 35.0154H67.5334C67.591 34.6806 67.6214 34.3376 67.6214 33.9872V33.9783C67.6214 33.6337 67.5918 33.2901 67.5334 32.9504L67.5332 32.95ZM0.1875 62.8325L10.5404 47.1572H1.41431C1.33791 46.7095 1.29971 46.2123 1.29971 45.6647C1.29971 45.1424 1.33851 44.6567 1.41511 44.2086H16.1772L16.3692 44.6947L5.93975 60.4066H15.717C15.7936 60.9044 15.8322 61.414 15.8322 61.9363C15.8322 62.4346 15.7938 62.9071 15.7172 63.3548H0.379502L0.1875 62.832V62.8325ZM30.0569 54.3601C29.6735 54.3108 29.1877 54.2616 28.5999 54.2111C28.0119 54.1619 27.5135 54.1366 27.1051 54.1366C25.5199 54.1366 24.3121 54.4227 23.4819 54.9951C22.6505 55.5678 22.2359 56.4381 22.2359 57.6075C22.2359 58.3538 22.3759 58.9386 22.6573 59.3614C22.9381 59.785 23.2899 60.1078 23.7117 60.3319C24.1337 60.5557 24.5997 60.6928 25.1107 60.7426C25.6217 60.7922 26.1077 60.817 26.5677 60.817C27.1557 60.817 27.7627 60.7858 28.3891 60.7235C29.0151 60.6618 29.5711 60.5682 30.0571 60.4438V54.3601H30.0569ZM30.0569 50.7404C30.0569 49.2719 29.6735 48.2518 28.9069 47.6795C28.1397 47.1072 27.0279 46.821 25.5709 46.821C24.6755 46.821 23.8389 46.8899 23.0595 47.0266C22.2882 47.1613 21.5261 47.3418 20.7775 47.5672C20.2915 46.7461 20.0495 45.764 20.0495 44.6187C20.9175 44.3454 21.8759 44.134 22.9245 43.9847C23.9725 43.8352 24.9821 43.7605 25.9539 43.7605C28.5099 43.7605 30.4525 44.3269 31.782 45.4589C33.1108 46.5919 33.776 48.4017 33.776 50.8893V62.8695C32.8808 63.0685 31.7948 63.2737 30.5167 63.4853C29.2245 63.6976 27.9162 63.8038 26.6057 63.8026C25.3533 63.8026 24.2217 63.691 23.2125 63.467C22.2025 63.2425 21.3461 62.8826 20.6433 62.3842C19.9397 61.887 19.3973 61.2524 19.0133 60.4814C18.63 59.7099 18.4382 58.777 18.4382 57.682C18.4382 56.6125 18.6618 55.6731 19.1093 54.8641C19.5489 54.0647 20.1723 53.3751 20.9309 52.8489C21.6977 52.3147 22.5795 51.916 23.5765 51.6552C24.5737 51.3937 25.6213 51.2629 26.7205 51.2629C27.5385 51.2629 28.2095 51.282 28.7337 51.3194C29.2573 51.3564 29.6985 51.4 30.0565 51.4498V50.7406L30.0569 50.7404ZM41.713 60.2191C42.1971 60.3932 42.6983 60.5183 43.2086 60.5925C43.7198 60.6675 44.3839 60.7046 45.2027 60.7046C46.1227 60.7046 46.9659 60.5619 47.7327 60.2758C48.4999 59.9902 49.1579 59.5481 49.7075 58.9507C50.2571 58.3538 50.6915 57.6017 51.0111 56.6926C51.3305 55.785 51.4907 54.7093 51.4907 53.4646C51.4907 51.4743 51.1131 49.8944 50.3595 48.7248C49.6049 47.5557 48.3715 46.9709 46.6595 46.9709C46.0205 46.9709 45.4065 47.0826 44.8195 47.3069C44.2307 47.5308 43.707 47.8668 43.2468 48.3145C42.7868 48.7622 42.4162 49.3287 42.1352 50.0128C41.8532 50.6976 41.7132 51.5117 41.7132 52.4574V60.2197V60.2193L41.713 60.2191ZM37.917 44.2084C38.177 44.1586 38.439 44.1214 38.703 44.0966C38.9771 44.072 39.2523 44.0596 39.5276 44.0597C39.7824 44.0597 40.0506 44.0725 40.3324 44.0966C40.6132 44.122 40.8816 44.1595 41.1376 44.2086C41.1628 44.2592 41.1952 44.414 41.2336 44.6754C41.2716 44.9368 41.31 45.2166 41.3486 45.5148C41.387 45.8136 41.4252 46.1004 41.4636 46.3733C41.502 46.6474 41.5212 46.8216 41.5212 46.8962C41.7762 46.4984 42.0832 46.1124 42.4412 45.7392C42.7992 45.3659 43.2278 45.0301 43.7262 44.7318C44.2247 44.433 44.7867 44.1969 45.4133 44.0225C46.0393 43.8484 46.7359 43.7607 47.5029 43.7607C48.6529 43.7607 49.7203 43.9475 50.7049 44.3209C51.6885 44.6947 52.5315 45.2722 53.2349 46.0562C53.9375 46.8401 54.4869 47.8354 54.8835 49.0418C55.2795 50.2495 55.4775 51.6737 55.4775 53.3155C55.4775 56.5995 54.5635 59.1691 52.7355 61.0223C50.9075 62.8761 48.3201 63.8026 44.9715 63.8026C44.4089 63.8026 43.834 63.7652 43.246 63.6906C42.6576 63.6157 42.1468 63.516 41.712 63.3922V72.1627C41.3881 72.214 41.0621 72.2514 40.7348 72.2747C40.3894 72.299 40.076 72.3116 39.7948 72.3116C39.4814 72.3103 39.1681 72.298 38.8556 72.2747C38.5408 72.2529 38.2273 72.2156 37.9164 72.1627V44.2086L37.917 44.2084Z" fill="#191919"/>
</g>
<defs>
<clipPath id="clip0_2358_1954">
<rect width="100" height="100" fill="white" transform="translate(0.1875 0.0495605)"/>
</clipPath>
</defs>
</svg>
