<svg width="101" height="101" viewBox="0 0 101 101" fill="none" xmlns="http://www.w3.org/2000/svg">
<g clip-path="url(#clip0_2377_8030)">
<path d="M28.3487 41.793C28.3487 43.0328 28.4821 44.0379 28.7148 44.775C29.0102 45.6043 29.3658 46.4105 29.7788 47.1871C29.9452 47.4551 30.0115 47.723 30.0115 47.9578C30.0115 48.2926 29.8122 48.6277 29.3798 48.9629L27.2847 50.3699C26.9853 50.5711 26.6859 50.6714 26.4195 50.6714C26.0872 50.6714 25.7545 50.5039 25.4218 50.2023C24.9733 49.7175 24.5724 49.1902 24.2247 48.6277C23.892 48.0586 23.5593 47.4215 23.1936 46.6512C20.5991 49.7332 17.3397 51.2743 13.4154 51.2746C10.6218 51.2746 8.39328 50.4703 6.76345 48.8625C5.13401 47.2539 4.30261 45.1098 4.30261 42.4297C4.30261 39.5821 5.30036 37.2704 7.32922 35.5282C9.35768 33.786 12.052 32.9149 15.4776 32.9149C16.6084 32.9149 17.7725 33.0153 19.0029 33.1829C20.2337 33.3505 21.4975 33.6184 22.8279 33.92V31.4743C22.8279 28.9278 22.2955 27.1524 21.2644 26.1138C20.2003 25.0751 18.4041 24.5724 15.8433 24.5724C14.6792 24.5724 13.4821 24.7068 12.2513 25.0083C11.0205 25.3099 9.8234 25.6782 8.65929 26.1474C8.12726 26.3817 7.72824 26.5157 7.49518 26.5829C7.26213 26.6501 7.09616 26.6833 6.96315 26.6833C6.49743 26.6833 6.26477 26.3482 6.26477 25.6446V24.0029C6.26477 23.4669 6.33147 23.065 6.49743 22.8306C6.66379 22.5958 6.96315 22.3615 7.42888 22.1271C8.59285 21.5237 9.98963 21.0211 11.6192 20.6193C13.2494 20.1837 14.9789 19.983 16.8081 19.983C20.7661 19.983 23.6597 20.8872 25.5222 22.6966C27.3514 24.5056 28.2828 27.2528 28.2828 30.9384V41.793H28.3487ZM14.8455 46.8855C15.9433 46.8855 17.0741 46.6848 18.2711 46.2824C19.4686 45.8805 20.5331 45.1434 21.4308 44.1383C21.9632 43.502 22.3622 42.7984 22.5615 41.9942C22.7612 41.1903 22.8942 40.2184 22.8942 39.0793V37.6723C21.8856 37.4252 20.864 37.235 19.8343 37.1028C18.7974 36.9702 17.7532 36.9031 16.708 36.9016C14.4794 36.9016 12.85 37.3371 11.7526 38.2418C10.6552 39.1465 10.1228 40.4196 10.1228 42.0945C10.1228 43.6691 10.5218 44.8418 11.3532 45.6461C12.1516 46.4836 13.3157 46.8855 14.8455 46.8855ZM41.5525 50.5039C40.9538 50.5039 40.5548 50.4035 40.2888 50.1687C40.0228 49.9679 39.7897 49.4988 39.5904 48.8625L31.7747 22.9646C31.5746 22.2943 31.475 21.8587 31.475 21.6244C31.475 21.0884 31.741 20.7865 32.2734 20.7865H35.5327C36.1644 20.7865 36.5971 20.8872 36.8298 21.1216C37.0958 21.3228 37.2955 21.7919 37.4948 22.4283L43.0823 44.6074L48.2708 22.4283C48.4372 21.7583 48.6369 21.3228 48.9025 21.1216C49.1689 20.9208 49.6346 20.7869 50.2333 20.7869H52.8939C53.5256 20.7869 53.9583 20.8872 54.224 21.1216C54.4904 21.3228 54.723 21.7919 54.856 22.4283L60.1112 44.8754L65.8647 22.4283C66.064 21.7583 66.297 21.3228 66.5297 21.1216C66.7957 20.9208 67.2281 20.7869 67.8268 20.7869H70.9197C71.4521 20.7869 71.7515 21.0548 71.7515 21.6244C71.7515 21.7919 71.7182 21.9595 71.6848 22.1603C71.6515 22.3611 71.5852 22.6294 71.4522 22.9982L63.4364 48.8957C63.2371 49.566 63.0043 50.0015 62.738 50.2023C62.472 50.4035 62.0396 50.5375 61.4746 50.5375H58.6144C57.9823 50.5375 57.5499 50.4371 57.2835 50.2023C57.0175 49.9679 56.7848 49.5324 56.6518 48.8625L51.4963 27.2528L46.3746 48.8285C46.2086 49.4988 46.0089 49.9343 45.7429 50.1687C45.4769 50.4035 45.0111 50.5039 44.4128 50.5039H41.5525ZM84.2903 51.4086C82.5608 51.4086 80.8313 51.2074 79.1685 50.8054C77.5054 50.4035 76.2086 49.9675 75.3439 49.4656C74.8115 49.1636 74.4454 48.8289 74.3128 48.5273C74.1834 48.2315 74.1155 47.9122 74.1131 47.589V45.8805C74.1131 45.1769 74.3791 44.8418 74.8782 44.8418C75.0818 44.8426 75.284 44.8766 75.4769 44.9426C75.6762 45.0098 75.9756 45.1434 76.3083 45.2773C77.4829 45.7981 78.7092 46.1912 79.9666 46.45C81.2694 46.7161 82.5953 46.8507 83.9246 46.8519C86.0198 46.8519 87.6496 46.4836 88.7804 45.7465C89.9112 45.0094 90.5099 43.9375 90.5099 42.5637C90.5099 41.6258 90.2105 40.8551 89.6118 40.2184C89.0131 39.5817 87.8823 39.0125 86.2529 38.4762L81.4301 36.9688C79.0022 36.1981 77.2064 35.059 76.1086 33.5512C75.0112 32.077 74.4458 30.4356 74.4458 28.6935C74.4458 27.2864 74.7452 26.0467 75.3439 24.9743C75.9422 23.9025 76.7407 22.9646 77.7384 22.2275C78.7362 21.4568 79.8669 20.8872 81.1974 20.4853C82.5275 20.0833 83.9242 19.9158 85.3877 19.9158C86.1195 19.9158 86.8846 19.9494 87.6163 20.0498C88.3814 20.1501 89.0798 20.2841 89.7781 20.4181C90.4432 20.5857 91.0753 20.7533 91.674 20.9544C92.2725 21.1552 92.7381 21.3561 93.0708 21.5572C93.5365 21.8255 93.8688 22.0935 94.0685 22.3951C94.2681 22.663 94.3679 23.0315 94.3679 23.5005V25.0751C94.3679 25.7786 94.1019 26.1474 93.6028 26.1474C93.3368 26.1474 92.9044 26.013 92.3394 25.745C90.4431 24.8739 88.3144 24.4384 85.9535 24.4384C84.0576 24.4384 82.5608 24.74 81.5297 25.3767C80.499 26.013 79.9666 26.9849 79.9666 28.3583C79.9666 29.2966 80.2993 30.1005 80.9643 30.7372C81.6294 31.3739 82.8602 32.0102 84.623 32.5798L89.3458 34.0876C91.7403 34.8583 93.4698 35.9301 94.5009 37.3036C95.532 38.677 96.0311 40.252 96.0311 41.9942C96.0311 43.4348 95.7313 44.7414 95.1659 45.8805C94.5676 47.0195 93.7692 48.0246 92.7381 48.8289C91.707 49.6664 90.4765 50.2695 89.0464 50.705C87.5496 51.1742 85.9865 51.4086 84.2903 51.4086Z" fill="#E4E4E4"/>
<path d="M90.5765 67.6904C79.6346 75.8318 63.7365 80.1536 50.0673 80.1536C30.91 80.1536 13.6488 73.0173 0.611325 61.1573C-0.419778 60.2194 0.511275 58.9463 1.74169 59.6831C15.8436 67.9252 33.2382 72.917 51.2314 72.917C63.3708 72.917 76.7077 70.3709 88.9805 65.1444C90.8096 64.3065 92.3727 66.3506 90.5765 67.6904ZM95.1333 62.4639C93.7365 60.6549 85.8871 61.5928 82.3285 62.0283C81.2641 62.1627 81.0977 61.2244 82.0625 60.5209C88.315 56.0983 98.5923 57.3717 99.7894 58.8456C100.987 60.3534 99.4567 70.7056 93.6031 75.6642C92.7054 76.4349 91.8407 76.033 92.2397 75.0279C93.5698 71.7107 96.5301 64.2397 95.1333 62.4639Z" fill="#E4E4E4"/>
</g>
<defs>
<clipPath id="clip0_2377_8030">
<rect width="100" height="100" fill="white" transform="translate(0.168213 0.034668)"/>
</clipPath>
</defs>
</svg>
