<svg width="101" height="101" viewBox="0 0 101 101" fill="none" xmlns="http://www.w3.org/2000/svg">
<g clip-path="url(#clip0_2377_7908)">
<path d="M28.3487 42.5383C28.3487 43.7782 28.4821 44.7833 28.7148 45.5204C29.0102 46.3496 29.3658 47.1558 29.7788 47.9325C29.9452 48.2004 30.0115 48.4684 30.0115 48.7032C30.0115 49.0379 29.8122 49.3731 29.3798 49.7082L27.2847 51.1152C26.9853 51.3164 26.6859 51.4168 26.4195 51.4168C26.0872 51.4168 25.7545 51.2492 25.4218 50.9477C24.9733 50.4629 24.5724 49.9356 24.2247 49.3731C23.892 48.8039 23.5593 48.1668 23.1936 47.3965C20.5991 50.4785 17.3397 52.0197 13.4154 52.0199C10.6218 52.0199 8.39328 51.2156 6.76345 49.6078C5.13401 47.9992 4.30261 45.8551 4.30261 43.1751C4.30261 40.3274 5.30036 38.0157 7.32922 36.2735C9.35768 34.5314 12.052 33.6603 15.4776 33.6603C16.6084 33.6603 17.7725 33.7607 19.0029 33.9282C20.2337 34.0958 21.4975 34.3638 22.8279 34.6653V32.2197C22.8279 29.6732 22.2955 27.8978 21.2644 26.8591C20.2003 25.8205 18.4041 25.3177 15.8433 25.3177C14.6792 25.3177 13.4821 25.4521 12.2513 25.7537C11.0205 26.0552 9.8234 26.4236 8.65929 26.8927C8.12726 27.1271 7.72824 27.2611 7.49518 27.3283C7.26213 27.3955 7.09616 27.4287 6.96315 27.4287C6.49743 27.4287 6.26477 27.0935 6.26477 26.39V24.7482C6.26477 24.2123 6.33147 23.8103 6.49743 23.576C6.66379 23.3412 6.96315 23.1068 7.42888 22.8724C8.59285 22.2691 9.98963 21.7665 11.6192 21.3646C13.2494 20.9291 14.9789 20.7283 16.8081 20.7283C20.7661 20.7283 23.6597 21.6326 25.5222 23.442C27.3514 25.2509 28.2828 27.9982 28.2828 31.6837V42.5383H28.3487ZM14.8455 47.6309C15.9433 47.6309 17.0741 47.4301 18.2711 47.0278C19.4686 46.6258 20.5331 45.8887 21.4308 44.8836C21.9632 44.2473 22.3622 43.5438 22.5615 42.7395C22.7612 41.9356 22.8942 40.9637 22.8942 39.8247V38.4177C21.8856 38.1705 20.864 37.9804 19.8343 37.8481C18.7974 37.7156 17.7532 37.6484 16.708 37.647C14.4794 37.647 12.85 38.0825 11.7526 38.9872C10.6552 39.8919 10.1228 41.1649 10.1228 42.8399C10.1228 44.4145 10.5218 45.5872 11.3532 46.3914C12.1516 47.2289 13.3157 47.6309 14.8455 47.6309ZM41.5525 51.2492C40.9538 51.2492 40.5548 51.1488 40.2888 50.9141C40.0228 50.7133 39.7897 50.2442 39.5904 49.6078L31.7747 23.7099C31.5746 23.0396 31.475 22.6041 31.475 22.3697C31.475 21.8338 31.741 21.5318 32.2734 21.5318H35.5327C36.1644 21.5318 36.5971 21.6326 36.8298 21.867C37.0958 22.0682 37.2955 22.5373 37.4948 23.1736L43.0823 45.3528L48.2708 23.1736C48.4372 22.5037 48.6369 22.0682 48.9025 21.867C49.1689 21.6662 49.6346 21.5322 50.2333 21.5322H52.8939C53.5256 21.5322 53.9583 21.6326 54.224 21.867C54.4904 22.0682 54.723 22.5373 54.856 23.1736L60.1112 45.6207L65.8647 23.1736C66.064 22.5037 66.297 22.0682 66.5297 21.867C66.7957 21.6662 67.2281 21.5322 67.8268 21.5322H70.9197C71.4521 21.5322 71.7515 21.8002 71.7515 22.3697C71.7515 22.5373 71.7182 22.7049 71.6848 22.9056C71.6515 23.1064 71.5852 23.3748 71.4522 23.7435L63.4364 49.641C63.2371 50.3113 63.0043 50.7469 62.738 50.9477C62.472 51.1488 62.0396 51.2828 61.4746 51.2828H58.6144C57.9823 51.2828 57.5499 51.1824 57.2835 50.9477C57.0175 50.7133 56.7848 50.2778 56.6518 49.6078L51.4963 27.9982L46.3746 49.5738C46.2086 50.2442 46.0089 50.6797 45.7429 50.9141C45.4769 51.1488 45.0111 51.2492 44.4128 51.2492H41.5525ZM84.2903 52.1539C82.5608 52.1539 80.8313 51.9527 79.1685 51.5508C77.5054 51.1488 76.2086 50.7129 75.3439 50.211C74.8115 49.909 74.4454 49.5742 74.3128 49.2727C74.1834 48.9769 74.1155 48.6576 74.1131 48.3344V46.6258C74.1131 45.9223 74.3791 45.5872 74.8782 45.5872C75.0818 45.5879 75.284 45.622 75.4769 45.6879C75.6762 45.7551 75.9756 45.8887 76.3083 46.0227C77.4829 46.5435 78.7092 46.9366 79.9666 47.1953C81.2694 47.4614 82.5953 47.5961 83.9246 47.5973C86.0198 47.5973 87.6496 47.2289 88.7804 46.4918C89.9112 45.7547 90.5099 44.6829 90.5099 43.309C90.5099 42.3712 90.2105 41.6005 89.6118 40.9637C89.0131 40.327 87.8823 39.7579 86.2529 39.2216L81.4301 37.7142C79.0022 36.9435 77.2064 35.8044 76.1086 34.2966C75.0112 32.8224 74.4458 31.181 74.4458 29.4388C74.4458 28.0318 74.7452 26.7921 75.3439 25.7197C75.9422 24.6478 76.7407 23.7099 77.7384 22.9728C78.7362 22.2021 79.8669 21.6326 81.1974 21.2307C82.5275 20.8287 83.9242 20.6611 85.3877 20.6611C86.1195 20.6611 86.8846 20.6947 87.6163 20.7951C88.3814 20.8955 89.0798 21.0295 89.7781 21.1635C90.4432 21.331 91.0753 21.4986 91.674 21.6998C92.2725 21.9006 92.7381 22.1015 93.0708 22.3025C93.5365 22.5709 93.8688 22.8389 94.0685 23.1404C94.2681 23.4084 94.3679 23.7769 94.3679 24.2459V25.8205C94.3679 26.524 94.1019 26.8927 93.6028 26.8927C93.3368 26.8927 92.9044 26.7584 92.3394 26.4904C90.4431 25.6193 88.3144 25.1838 85.9535 25.1838C84.0576 25.1838 82.5608 25.4853 81.5297 26.122C80.499 26.7584 79.9666 27.7302 79.9666 29.1037C79.9666 30.0419 80.2993 30.8458 80.9643 31.4826C81.6294 32.1193 82.8602 32.7556 84.623 33.3251L89.3458 34.8329C91.7403 35.6036 93.4698 36.6755 94.5009 38.0489C95.532 39.4223 96.0311 40.9973 96.0311 42.7395C96.0311 44.1801 95.7313 45.4868 95.1659 46.6258C94.5676 47.7649 93.7692 48.7699 92.7381 49.5742C91.707 50.4117 90.4765 51.0149 89.0464 51.4504C87.5496 51.9195 85.9865 52.1539 84.2903 52.1539Z" fill="#191919"/>
<path d="M90.5765 68.4358C79.6346 76.5771 63.7365 80.899 50.0673 80.899C30.91 80.899 13.6488 73.7627 0.611325 61.9026C-0.419778 60.9647 0.511275 59.6917 1.74169 60.4284C15.8436 68.6706 33.2382 73.6623 51.2314 73.6623C63.3708 73.6623 76.7077 71.1162 88.9805 65.8897C90.8096 65.0518 92.3727 67.096 90.5765 68.4358ZM95.1333 63.2093C93.7365 61.4003 85.8871 62.3382 82.3285 62.7737C81.2641 62.9081 81.0977 61.9698 82.0625 61.2663C88.315 56.8437 98.5923 58.1171 99.7894 59.5909C100.987 61.0987 99.4567 71.451 93.6031 76.4096C92.7054 77.1803 91.8407 76.7783 92.2397 75.7733C93.5698 72.4561 96.5301 64.985 95.1333 63.2093Z" fill="#191919"/>
</g>
<defs>
<clipPath id="clip0_2377_7908">
<rect width="100" height="100" fill="white" transform="translate(0.168213 0.780029)"/>
</clipPath>
</defs>
</svg>
