<svg width="101" height="101" viewBox="0 0 101 101" fill="none" xmlns="http://www.w3.org/2000/svg">
<g clip-path="url(#clip0_2377_8012)">
<path d="M71.8932 60.7768C69.6733 60.6345 68.3828 59.3717 68.0413 57.0095C67.9502 56.3809 67.9502 56.3646 67.9405 52.285L67.9315 48.3363H69.8961L69.9034 52.1557C69.9108 55.5978 69.9148 56.002 69.9482 56.2435C70.0815 57.2266 70.3474 57.8877 70.8012 58.3617C71.1638 58.7415 71.5883 58.9635 72.1762 59.0814C72.4527 59.1375 73.2423 59.1375 73.4952 59.0814C74.0625 58.9652 74.5826 58.6833 74.9898 58.2715C75.4703 57.7917 75.8257 57.1111 75.9981 56.3419L76.055 56.0825L76.0615 52.2313L76.068 48.3786H78.0741V60.4898H76.0891V59.5286C76.0891 58.8765 76.0818 58.5707 76.0664 58.5756C76.0215 58.6283 75.9835 58.6865 75.9533 58.7488C75.5914 59.3917 75.0602 59.923 74.4173 60.2849C73.6692 60.6955 72.9186 60.8419 71.8932 60.7768ZM94.4177 60.7671C93.6092 60.7001 92.8276 60.445 92.1352 60.0222C90.7138 59.144 89.873 57.6966 89.6274 55.706C89.542 55.0164 89.5315 54.091 89.603 53.5056C89.7616 52.1964 90.2763 50.9116 91.0098 49.9952C91.1968 49.7593 91.6237 49.3341 91.8587 49.1462C92.4925 48.6399 93.2342 48.2863 94.0266 48.1127C94.4868 48.0127 95.2968 47.9655 95.7855 48.0102C97.0133 48.1241 98.1371 48.7014 98.9015 49.6097C99.6789 50.5327 100.105 51.8223 100.16 53.4104C100.169 53.7337 100.17 54.0572 100.164 54.3805L100.154 54.8977L95.8554 54.9026L91.557 54.9083V55.1002C91.557 55.6832 91.6985 56.3475 91.9441 56.9135C92.1555 57.4006 92.5206 57.9324 92.8182 58.1902C93.4299 58.7183 94.1924 59.0404 94.9975 59.1107C95.3016 59.1391 96.0758 59.109 96.4213 59.0562C97.4093 58.9041 98.3485 58.5171 99.1056 57.9503C99.195 57.8828 99.2804 57.8202 99.2959 57.8112C99.3178 57.7974 99.3235 57.9714 99.3227 58.7057V59.6164L99.1186 59.7425C98.2413 60.2778 97.2589 60.6178 96.2384 60.7394C95.9278 60.7776 94.7893 60.7947 94.4177 60.7671ZM98.1583 53.0786C98.1583 52.102 97.746 51.0165 97.163 50.4578C96.7468 50.0593 96.2155 49.8021 95.6448 49.7227C95.3618 49.6788 94.7658 49.6959 94.4673 49.7553C93.8579 49.872 93.2977 50.1695 92.8597 50.6091C92.3784 51.0864 92.014 51.6686 91.7953 52.3102C91.714 52.546 91.6197 52.9323 91.5896 53.147L91.5757 53.2494H98.1583V53.0786ZM39.8508 60.4621L43.0944 51.9508L46.3292 43.4663H48.4076L48.4938 43.6859C48.7573 44.3616 54.969 60.4711 54.969 60.4792C54.969 60.4849 54.4713 60.489 53.8631 60.489H52.7572L51.8627 58.108L50.9666 55.7271H43.7572L43.7263 55.8084C43.7092 55.8523 43.3262 56.9241 42.8757 58.1885L42.0577 60.489H40.9493C40.0727 60.489 39.8434 60.4841 39.8508 60.4621ZM50.3088 53.9105C50.3088 53.9064 49.707 52.2752 48.9703 50.2838C47.5928 46.5612 47.5156 46.3368 47.4066 45.7391C47.3554 45.4594 47.3294 45.4512 47.2993 45.7066C47.2572 45.9837 47.1947 46.2574 47.1123 46.5254C47.0757 46.6384 46.4552 48.3388 45.7331 50.305C45.2915 51.5016 44.8538 52.6997 44.4199 53.8991C44.4199 53.9089 45.7453 53.917 47.3643 53.917C48.9833 53.917 50.3088 53.9138 50.3088 53.9105ZM55.6374 60.18V59.8693L59.2291 54.9375L62.8208 50.0057L59.5682 49.9952L56.3172 49.9846L56.3115 49.16L56.3058 48.3363H65.7124V48.8925L62.1207 53.8512C60.1447 56.5785 58.5282 58.8147 58.5282 58.8195C58.5282 58.8244 60.1252 58.8301 62.0768 58.8301H65.6262V60.489H55.6374V60.18ZM81.9927 60.4751C81.9845 60.467 81.9789 57.7324 81.9789 54.3984V48.3355H83.9418V49.5853C83.9418 50.2733 83.9499 50.8351 83.9597 50.8351C83.9703 50.8351 84.0182 50.7229 84.0662 50.5855C84.2936 49.9444 84.6695 49.3662 85.1632 48.8982C85.5876 48.4867 86.1295 48.2176 86.7139 48.1281C86.8822 48.1013 87.0245 48.0956 87.3611 48.1046C87.784 48.1159 88.0043 48.1468 88.2613 48.2306L88.3426 48.2566V50.2928L88.1109 50.1773C87.7092 49.9738 87.2597 49.8838 86.8106 49.9171C86.4943 49.9334 86.287 49.974 86.0341 50.0683C85.5209 50.2576 85.0856 50.6127 84.7973 51.0775C84.3571 51.7953 84.077 52.5997 83.976 53.4356C83.9597 53.5796 83.9508 54.7546 83.9467 57.0696L83.941 60.4906H82.9742C82.4423 60.4906 82.0008 60.4833 81.9927 60.4751Z" fill="#191919"/>
<path d="M11.3443 34.9861H21.2647L10.9666 65.4982C10.8609 65.8118 10.6594 66.0844 10.3905 66.2774C10.1217 66.4705 9.79902 66.5743 9.46804 66.5742H1.74778C1.49704 66.5742 1.24991 66.5145 1.0268 66.4001C0.8037 66.2857 0.611034 66.1198 0.46473 65.9161C0.318367 65.7125 0.222645 65.477 0.185498 65.229C0.148352 64.981 0.170851 64.7277 0.251132 64.4902L9.84574 36.0619C9.95161 35.7483 10.1531 35.4758 10.422 35.2827C10.6908 35.0897 11.0134 34.9857 11.3443 34.9856V34.9861Z" fill="#393939"/>
<path d="M25.7598 55.4524H10.0293C9.88298 55.4521 9.73998 55.4958 9.61893 55.578C9.49787 55.6601 9.40439 55.7768 9.35066 55.9129C9.29693 56.049 9.28546 56.1981 9.31774 56.3408C9.35002 56.4834 9.42456 56.6131 9.53162 56.7128L19.64 66.1479C19.9347 66.422 20.3222 66.5745 20.7247 66.5748H29.6321L25.7598 55.4524Z" fill="#191919"/>
<path d="M11.3444 34.9856C11.0098 34.9842 10.6835 35.0899 10.4132 35.2872C10.143 35.4846 9.94296 35.7632 9.84241 36.0824L0.263167 64.4639C0.177708 64.7023 0.150913 64.9578 0.185046 65.2088C0.219178 65.4597 0.313236 65.6988 0.459266 65.9057C0.605297 66.1127 0.799007 66.2814 1.02402 66.3977C1.24903 66.514 1.49873 66.5744 1.75201 66.5738H9.67173C9.9667 66.5211 10.2424 66.3911 10.4707 66.197C10.6989 66.0029 10.8715 65.7516 10.9709 65.469L12.8811 59.8391L19.7047 66.2034C19.9906 66.4399 20.3493 66.5707 20.7203 66.5738H29.5949L25.7026 55.451L14.3563 55.4537L21.3006 34.9856H11.3444Z" fill="#191919"/>
<path d="M24.0157 36.0599C23.9099 35.7468 23.7086 35.4748 23.4401 35.2821C23.1717 35.0893 22.8495 34.9857 22.519 34.9856H11.4631C11.7936 34.9857 12.1157 35.0894 12.3841 35.2821C12.6525 35.4748 12.8538 35.7469 12.9595 36.0599L22.5544 64.4895C22.6347 64.7271 22.6573 64.9804 22.6202 65.2285C22.5832 65.4765 22.4876 65.7122 22.3413 65.9159C22.1951 66.1197 22.0024 66.2857 21.7792 66.4002C21.556 66.5147 21.3088 66.5743 21.058 66.5742H32.1144C32.3651 66.5741 32.6122 66.5142 32.8352 66.3997C33.0582 66.2851 33.2508 66.1191 33.397 65.9154C33.5431 65.7117 33.6388 65.4762 33.6759 65.2282C33.713 64.9803 33.6906 64.727 33.6105 64.4895L24.0157 36.0599Z" fill="#191919"/>
</g>
<defs>
<clipPath id="clip0_2377_8012">
<rect width="100" height="100" fill="white" transform="translate(0.168213 0.780029)"/>
</clipPath>
</defs>
</svg>
