<svg width="101" height="101" viewBox="0 0 101 101" fill="none" xmlns="http://www.w3.org/2000/svg">
<g clip-path="url(#clip0_2377_8019)">
<path d="M71.8932 60.0315C69.6733 59.8892 68.3828 58.6263 68.0413 56.2641C67.9502 55.6355 67.9502 55.6193 67.9405 51.5396L67.9315 47.591H69.8961L69.9034 51.4104C69.9108 54.8525 69.9148 55.2566 69.9482 55.4981C70.0815 56.4812 70.3474 57.1423 70.8012 57.6164C71.1638 57.9961 71.5883 58.2181 72.1762 58.336C72.4527 58.3921 73.2423 58.3921 73.4952 58.336C74.0625 58.2198 74.5826 57.938 74.9898 57.5261C75.4703 57.0464 75.8257 56.3657 75.9981 55.5965L76.055 55.3371L76.0615 51.486L76.068 47.6332H78.0741V59.7444H76.0891V58.7833C76.0891 58.1311 76.0818 57.8254 76.0664 57.8302C76.0215 57.8829 75.9835 57.9411 75.9533 58.0034C75.5914 58.6463 75.0602 59.1776 74.4173 59.5395C73.6692 59.9501 72.9186 60.0965 71.8932 60.0315ZM94.4177 60.0217C93.6092 59.9547 92.8276 59.6996 92.1352 59.2768C90.7138 58.3986 89.873 56.9512 89.6274 54.9606C89.542 54.271 89.5315 53.3457 89.603 52.7602C89.7616 51.451 90.2763 50.1662 91.0098 49.2498C91.1968 49.014 91.6237 48.5887 91.8587 48.4009C92.4925 47.8946 93.2342 47.5409 94.0266 47.3673C94.4868 47.2673 95.2968 47.2201 95.7855 47.2649C97.0133 47.3787 98.1371 47.9561 98.9015 48.8644C99.6789 49.7873 100.105 51.077 100.16 52.6651C100.169 52.9884 100.17 53.3118 100.164 53.6352L100.154 54.1523L95.8554 54.1572L91.557 54.1629V54.3548C91.557 54.9378 91.6985 55.6022 91.9441 56.1681C92.1555 56.6552 92.5206 57.187 92.8182 57.4448C93.4299 57.973 94.1924 58.295 94.9975 58.3653C95.3016 58.3938 96.0758 58.3637 96.4213 58.3108C97.4093 58.1588 98.3485 57.7717 99.1056 57.2049C99.195 57.1374 99.2804 57.0748 99.2959 57.0659C99.3178 57.052 99.3235 57.2261 99.3227 57.9603V58.8711L99.1186 58.9971C98.2413 59.5324 97.2589 59.8724 96.2384 59.9941C95.9278 60.0323 94.7893 60.0493 94.4177 60.0217ZM98.1583 52.3333C98.1583 51.3567 97.746 50.2711 97.163 49.7125C96.7468 49.3139 96.2155 49.0567 95.6448 48.9774C95.3618 48.9335 94.7658 48.9505 94.4673 49.0099C93.8579 49.1266 93.2977 49.4242 92.8597 49.8637C92.3784 50.341 92.014 50.9233 91.7953 51.5649C91.714 51.8007 91.6197 52.1869 91.5896 52.4016L91.5757 52.5041H98.1583V52.3333ZM39.8508 59.7168L43.0944 51.2054L46.3292 42.7209H48.4076L48.4938 42.9405C48.7573 43.6162 54.969 59.7257 54.969 59.7338C54.969 59.7395 54.4713 59.7436 53.8631 59.7436H52.7572L51.8627 57.3627L50.9666 54.9817H43.7572L43.7263 55.0631C43.7092 55.107 43.3262 56.1787 42.8757 57.4432L42.0577 59.7436H40.9493C40.0727 59.7436 39.8434 59.7387 39.8508 59.7168ZM50.3088 53.1651C50.3088 53.1611 49.707 51.5299 48.9703 49.5385C47.5928 45.8158 47.5156 45.5914 47.4066 44.9937C47.3554 44.714 47.3294 44.7059 47.2993 44.9612C47.2572 45.2384 47.1947 45.5121 47.1123 45.78C47.0757 45.8931 46.4552 47.5934 45.7331 49.5596C45.2915 50.7563 44.8538 51.9543 44.4199 53.1538C44.4199 53.1635 45.7453 53.1717 47.3643 53.1717C48.9833 53.1717 50.3088 53.1684 50.3088 53.1651ZM55.6374 59.4346V59.124L59.2291 54.1922L62.8208 49.2604L59.5682 49.2498L56.3172 49.2392L56.3115 48.4147L56.3058 47.591H65.7124V48.1472L62.1207 53.1058C60.1447 55.8331 58.5282 58.0693 58.5282 58.0742C58.5282 58.0791 60.1252 58.0848 62.0768 58.0848H65.6262V59.7436H55.6374V59.4346ZM81.9927 59.7298C81.9845 59.7216 81.9789 56.987 81.9789 53.653V47.5901H83.9418V48.84C83.9418 49.5279 83.9499 50.0898 83.9597 50.0898C83.9703 50.0898 84.0182 49.9776 84.0662 49.8401C84.2936 49.199 84.6695 48.6208 85.1632 48.1528C85.5876 47.7413 86.1295 47.4722 86.7139 47.3828C86.8822 47.3559 87.0245 47.3503 87.3611 47.3592C87.784 47.3706 88.0043 47.4015 88.2613 47.4852L88.3426 47.5113V49.5474L88.1109 49.4319C87.7092 49.2284 87.2597 49.1384 86.8106 49.1717C86.4943 49.188 86.287 49.2287 86.0341 49.323C85.5209 49.5122 85.0856 49.8674 84.7973 50.3321C84.3571 51.05 84.077 51.8543 83.976 52.6903C83.9597 52.8342 83.9508 54.0092 83.9467 56.3243L83.941 59.7452H82.9742C82.4423 59.7452 82.0008 59.7379 81.9927 59.7298Z" fill="#E4E4E4"/>
<path d="M11.3443 34.2407H21.2647L10.9666 64.7528C10.8609 65.0665 10.6594 65.339 10.3905 65.5321C10.1217 65.7251 9.79902 65.8289 9.46804 65.8289H1.74778C1.49704 65.8289 1.24991 65.7692 1.0268 65.6547C0.8037 65.5403 0.611034 65.3744 0.46473 65.1708C0.318367 64.9672 0.222645 64.7316 0.185498 64.4836C0.148352 64.2356 0.170851 63.9824 0.251132 63.7448L9.84574 35.3165C9.95161 35.0029 10.1531 34.7304 10.422 34.5374C10.6908 34.3443 11.0134 34.2404 11.3443 34.2402V34.2407Z" fill="#E4E4E4"/>
<path d="M25.7598 54.707H10.0293C9.88298 54.7067 9.73998 54.7504 9.61893 54.8326C9.49787 54.9147 9.40439 55.0315 9.35066 55.1675C9.29693 55.3036 9.28546 55.4527 9.31774 55.5954C9.35002 55.7381 9.42456 55.8677 9.53162 55.9674L19.64 65.4025C19.9347 65.6767 20.3222 65.8292 20.7247 65.8294H29.6321L25.7598 54.707Z" fill="#E4E4E4"/>
<path d="M11.3444 34.2402C11.0098 34.2388 10.6835 34.3445 10.4132 34.5419C10.143 34.7392 9.94296 35.0178 9.84241 35.337L0.263167 63.7185C0.177708 63.9569 0.150913 64.2124 0.185046 64.4634C0.219178 64.7144 0.313236 64.9534 0.459266 65.1604C0.605297 65.3673 0.799007 65.5361 1.02402 65.6523C1.24903 65.7686 1.49873 65.829 1.75201 65.8284H9.67173C9.9667 65.7758 10.2424 65.6457 10.4707 65.4516C10.6989 65.2575 10.8715 65.0063 10.9709 64.7236L12.8811 59.0937L19.7047 65.458C19.9906 65.6945 20.3493 65.8253 20.7203 65.8284H29.5949L25.7026 54.7057L14.3563 54.7084L21.3006 34.2402H11.3444Z" fill="#E4E4E4"/>
<path d="M24.0157 35.3146C23.9099 35.0015 23.7086 34.7294 23.4401 34.5367C23.1717 34.344 22.8495 34.2403 22.519 34.2402H11.4631C11.7936 34.2403 12.1157 34.3441 12.3841 34.5368C12.6525 34.7295 12.8538 35.0015 12.9595 35.3146L22.5544 63.7441C22.6347 63.9817 22.6573 64.235 22.6202 64.4831C22.5832 64.7312 22.4876 64.9668 22.3413 65.1706C22.1951 65.3743 22.0024 65.5403 21.7792 65.6548C21.556 65.7693 21.3088 65.829 21.058 65.8289H32.1144C32.3651 65.8287 32.6122 65.7689 32.8352 65.6543C33.0582 65.5398 33.2508 65.3738 33.397 65.1701C33.5431 64.9664 33.6388 64.7308 33.6759 64.4829C33.713 64.2349 33.6906 63.9817 33.6105 63.7441L24.0157 35.3146Z" fill="#E4E4E4"/>
</g>
<defs>
<clipPath id="clip0_2377_8019">
<rect width="100" height="100" fill="white" transform="translate(0.168213 0.034668)"/>
</clipPath>
</defs>
</svg>
