<svg width="101" height="101" viewBox="0 0 101 101" fill="none" xmlns="http://www.w3.org/2000/svg">
<g clip-path="url(#clip0_2377_8002)">
<path d="M25.1613 51.6715C25.1312 52.0039 25.0861 52.3363 25.0258 52.6688C24.9656 53.0012 24.8903 53.3185 24.8 53.6509C24.7097 53.9531 24.6043 54.2402 24.4688 54.5272C24.3032 54.8899 24.0623 55.2223 23.7762 55.4943C23.4902 55.7662 23.1589 55.9929 22.7976 56.1591C22.5266 56.2951 22.2405 56.3857 21.9545 56.4613C21.6684 56.5368 21.3673 56.5822 21.0813 56.6124C20.7801 56.6426 20.4941 56.6577 20.1779 56.6577H14.2911V44.7966H19.3047C19.7865 44.7966 20.2833 44.8269 20.7801 44.8722C21.2619 44.9175 21.7437 45.0233 22.2104 45.1895C22.6621 45.3557 23.0837 45.5823 23.4601 45.8694C23.8364 46.1565 24.1526 46.5494 24.4086 47.0178C24.6796 47.5466 24.8753 48.1661 25.0108 48.846C25.1312 49.4806 25.2065 50.1152 25.2065 50.7649C25.2065 51.0218 25.1915 51.3391 25.1613 51.6715ZM22.2707 49.2691C22.1653 48.7554 21.9997 48.3021 21.7588 47.9243C21.4727 47.471 21.1114 47.184 20.6747 47.048C20.2231 46.9271 19.7413 46.8515 19.2746 46.8667H16.7753V54.5726H19.2746C19.5907 54.5726 19.9069 54.5424 20.2231 54.4819C20.5694 54.4215 20.8705 54.3308 21.1114 54.1948C21.3673 54.0437 21.5781 53.8322 21.7437 53.5602C21.9093 53.2731 22.0448 52.971 22.1352 52.6385C22.2255 52.3061 22.3008 51.9737 22.3309 51.6262C22.376 51.324 22.3911 51.0218 22.3911 50.7196C22.4212 50.2361 22.361 49.7526 22.2707 49.2691ZM29.5727 56.6275C29.2565 56.6275 28.9253 56.6275 28.6091 56.6124C28.2929 56.6124 27.9768 56.567 27.6606 56.4764C27.1186 56.3404 26.697 56.0231 26.411 55.5547C26.1249 55.1014 25.9894 54.5877 25.9894 54.0588C25.9894 53.6358 26.0797 53.2278 26.2454 52.835C26.411 52.4421 26.682 52.0946 27.0132 51.8377C27.1788 51.7169 27.3595 51.6262 27.5703 51.5658C27.7961 51.5053 28.0069 51.46 28.2327 51.4298C28.4585 51.3995 28.6844 51.3844 28.9102 51.3693C29.136 51.3693 29.3468 51.3542 29.5275 51.3542H32.4483V51.2182C32.4483 50.916 32.4031 50.6592 32.3279 50.4779C32.2526 50.2965 32.1321 50.1606 31.9665 50.0548C31.7858 49.949 31.5901 49.8886 31.3944 49.8584C31.1535 49.8281 30.8976 49.813 30.6567 49.813H26.6519V47.9697H30.6567C30.8223 47.9697 30.9879 47.9697 31.1385 47.9848C31.3041 47.9848 31.4546 47.9999 31.6202 47.9999C32.358 48.0301 32.9752 48.1812 33.4871 48.4683C33.999 48.7554 34.3754 49.2691 34.6163 50.0095C34.7066 50.2965 34.7669 50.5836 34.7819 50.8858C34.797 51.1729 34.812 51.46 34.812 51.7773V56.6426L29.5727 56.6275ZM32.4634 53.2278H29.3167C29.0608 53.2278 28.85 53.2883 28.6844 53.4242C28.5188 53.5602 28.4284 53.7567 28.4284 54.0286C28.4284 54.2099 28.4736 54.361 28.5489 54.4668C28.6242 54.5726 28.7295 54.6481 28.85 54.6935C28.9855 54.7388 29.121 54.769 29.2715 54.7841C29.4221 54.7992 29.5727 54.7992 29.7232 54.7992H32.4784C32.4634 54.7841 32.4634 53.2278 32.4634 53.2278ZM40.0514 56.6426C39.4642 56.6426 38.9373 56.5368 38.4706 56.3253C38.0038 56.1138 37.6576 55.7209 37.4317 55.1316C37.3414 54.8597 37.2812 54.5575 37.2511 54.2704C37.2209 53.9833 37.2209 53.6811 37.2209 53.394V49.8281H35.7154V47.9697H37.2209V44.7966H39.5847V47.9697H41.7678V49.813H39.5696V52.9558C39.5696 53.1523 39.5696 53.3789 39.5847 53.666C39.5847 53.9531 39.66 54.1797 39.7654 54.3459C39.8708 54.4819 40.0063 54.6028 40.1719 54.6632C40.3375 54.7237 40.5181 54.769 40.6988 54.7841C40.8945 54.7992 41.0752 54.7992 41.2709 54.7992C41.4667 54.7841 41.6323 54.7841 41.7678 54.7841V56.6275L40.0514 56.6426ZM46.0285 56.6275C45.7124 56.6275 45.3811 56.6275 45.065 56.6124C44.7488 56.6124 44.4326 56.567 44.1165 56.4764C43.5745 56.3404 43.1529 56.0231 42.8819 55.5547C42.5958 55.1014 42.4603 54.5877 42.4603 54.0588C42.4603 53.6358 42.5507 53.2278 42.7163 52.835C42.8819 52.4421 43.1529 52.0946 43.4841 51.8377C43.6497 51.7169 43.8304 51.6262 44.0412 51.5658C44.252 51.5053 44.4778 51.4449 44.7036 51.4147C44.9295 51.3844 45.1553 51.3693 45.3811 51.3542C45.607 51.3542 45.8177 51.3542 45.9984 51.3391H48.9192V51.2031C48.9192 50.9009 48.8741 50.6441 48.7988 50.4627C48.7235 50.2814 48.603 50.1454 48.4374 50.0397C48.2568 49.9339 48.061 49.8735 47.8653 49.8433C47.6244 49.813 47.3685 49.7979 47.1276 49.7979H43.1228V47.9697H47.1276C47.2932 47.9697 47.4588 47.9697 47.6094 47.9848C47.775 47.9848 47.9255 47.9999 48.0912 47.9999C48.8289 48.0301 49.4462 48.1812 49.9581 48.4683C50.47 48.7554 50.8463 49.2691 51.0872 50.0095C51.1776 50.2965 51.2378 50.5836 51.2528 50.8858C51.2679 51.1729 51.283 51.46 51.283 51.7773V56.6426C51.2679 56.6275 46.0285 56.6275 46.0285 56.6275ZM48.9042 53.2278H45.7575C45.5016 53.2278 45.3059 53.2883 45.1252 53.4242C44.9596 53.5602 44.8692 53.7567 44.8692 54.0286C44.8692 54.2251 44.9144 54.361 44.9897 54.4668C45.065 54.5726 45.1704 54.6481 45.2908 54.6935C45.4263 54.7388 45.5618 54.769 45.7124 54.7841C45.8629 54.7992 46.0135 54.7992 46.164 54.7992H48.9192C48.9042 54.7841 48.9042 53.2278 48.9042 53.2278Z" fill="#191919"/>
<path d="M61.0537 56.6426C60.9634 56.3706 60.9032 56.0986 60.8731 55.8116C60.843 55.5245 60.8128 55.2374 60.7827 54.9654C60.7225 54.4215 60.6322 53.9682 60.4967 53.6056C60.3612 53.2429 60.1654 52.9558 59.9246 52.7443C59.6837 52.5328 59.3675 52.3817 58.9911 52.291C58.6147 52.2004 58.148 52.155 57.606 52.155H55.5885V56.6426H53.0742V44.7966H58.8405C59.2772 44.7966 59.7288 44.8117 60.1805 44.842C60.6171 44.8722 61.0537 44.9477 61.4753 45.0686C62.1679 45.265 62.7099 45.6428 63.1013 46.2018C63.4928 46.7609 63.6885 47.3955 63.6885 48.1056C63.6885 48.9216 63.5229 49.6317 63.1766 50.2512C62.8303 50.8556 62.2582 51.2938 61.4452 51.5506C61.7011 51.6413 61.927 51.732 62.1076 51.8226C62.2883 51.9133 62.4539 52.019 62.5894 52.1399C62.74 52.2608 62.8604 52.4119 62.9658 52.5781C63.0862 52.7896 63.1916 53.0012 63.282 53.2278C63.4476 53.6056 63.5379 54.0135 63.553 54.4366C63.568 54.8445 63.5981 55.2676 63.6584 55.6756C63.7035 56.008 63.7638 56.3253 63.8691 56.6275H61.0537V56.6426ZM60.7827 47.6221C60.7074 47.4408 60.5719 47.2746 60.4063 47.1537C60.2257 47.0329 60.0299 46.9573 59.8342 46.9271C59.5933 46.8818 59.3524 46.8667 59.1116 46.8667H55.5885V50.0699H59.1116C59.6837 50.0699 60.1353 49.949 60.4515 49.7224C60.7677 49.4806 60.9333 49.0424 60.9333 48.4078C60.9182 48.0754 60.8731 47.8186 60.7827 47.6221ZM73.3241 54.2855C73.1133 54.7992 72.7821 55.2676 72.3756 55.6454C71.954 56.0231 71.4572 56.3102 70.9303 56.4764C70.3732 56.6577 69.7559 56.7635 69.0784 56.7635C67.6331 56.7635 66.5189 56.3706 65.7361 55.5849C64.9532 54.7992 64.5466 53.6811 64.5466 52.2306C64.5466 51.5506 64.652 50.9463 64.8779 50.4023C65.1037 49.8584 65.4199 49.39 65.8113 49.0273C66.2329 48.6496 66.7147 48.3474 67.2567 48.1661C67.8438 47.9545 68.4611 47.8639 69.0935 47.8639C70.5388 47.8639 71.6529 48.2567 72.4659 49.0576C73.279 49.8584 73.6704 50.9765 73.6855 52.4421C73.6704 53.122 73.565 53.7415 73.3241 54.2855ZM71.126 51.2787C71.0658 50.9765 70.9453 50.7045 70.7797 50.4476C70.6141 50.2059 70.3883 50.0246 70.1173 49.8886C69.8463 49.7526 69.5 49.6922 69.1085 49.6922C68.687 49.6922 68.3407 49.7677 68.0697 49.9037C67.8137 50.0397 67.5879 50.2361 67.4223 50.4779C67.2567 50.7196 67.1513 50.9916 67.0911 51.324C67.0308 51.6715 66.9857 52.019 67.0007 52.3666C67.0007 52.699 67.0308 53.0465 67.1212 53.3789C67.1965 53.666 67.3169 53.938 67.4976 54.1797C67.6782 54.4064 67.9041 54.6028 68.16 54.7086C68.431 54.8294 68.7773 54.905 69.1687 54.905C69.5602 54.905 69.9065 54.8294 70.1775 54.6935C70.4334 54.5575 70.6593 54.3761 70.8249 54.1344C70.9905 53.9077 71.0959 53.6207 71.1712 53.3034C71.2314 52.9709 71.2615 52.6385 71.2615 52.291C71.2464 51.9586 71.2013 51.6111 71.126 51.2787ZM83.3361 54.361C83.035 55.0259 82.5533 55.5698 81.8908 55.9929C81.409 56.2951 80.9272 56.4915 80.4304 56.5519C79.9035 56.6124 79.3765 56.6426 78.8646 56.6426H75.0104V44.7966H77.3741V47.9697H79.4819C80.8369 47.9697 81.9059 48.3323 82.6586 49.0424C83.4114 49.7526 83.8029 50.8103 83.8029 52.1852C83.7878 52.971 83.6373 53.6962 83.3361 54.361ZM80.8821 50.4627C80.5207 50.0397 79.9336 49.8281 79.1356 49.8281H77.359V54.7841H79.1356C79.9035 54.7841 80.4756 54.5424 80.852 54.0588C81.2283 53.5753 81.4241 52.9709 81.4241 52.2457C81.4241 51.4902 81.2434 50.9009 80.8821 50.4627ZM93.3181 54.2855C93.1073 54.7992 92.7761 55.2676 92.3545 55.6454C91.948 56.008 91.4662 56.2951 90.9092 56.4764C90.3521 56.6728 89.7348 56.7635 89.0573 56.7635C87.612 56.7635 86.4978 56.3706 85.715 55.5849C84.9321 54.7992 84.5255 53.6811 84.5255 52.2306C84.5255 51.5506 84.6309 50.9463 84.8568 50.4023C85.0826 49.8584 85.3988 49.4051 85.7902 49.0273C86.2118 48.6496 86.6936 48.3474 87.2356 48.1661C87.7926 47.9697 88.4099 47.8639 89.0724 47.8639C90.5177 47.8639 91.6318 48.2567 92.4448 49.0576C93.2578 49.8584 93.6493 50.9765 93.6493 52.4421C93.6643 53.122 93.5439 53.7415 93.3181 54.2855ZM91.1199 51.2787C91.0597 50.9765 90.9393 50.7045 90.7737 50.4476C90.608 50.2059 90.3822 50.0246 90.1112 49.8886C89.8402 49.7526 89.4939 49.6922 89.1025 49.6922C88.6809 49.6922 88.3346 49.7677 88.0636 49.9037C87.8077 50.0397 87.5819 50.2361 87.4162 50.4779C87.2506 50.7347 87.1302 51.0218 87.085 51.324C87.0248 51.6715 86.9796 52.019 86.9947 52.3666C86.9947 52.699 87.0248 53.0465 87.1001 53.3789C87.1753 53.666 87.2958 53.938 87.4765 54.1797C87.6571 54.4064 87.883 54.6028 88.1389 54.7086C88.4099 54.8445 88.7562 54.905 89.1476 54.905C89.5541 54.905 89.8854 54.8294 90.1564 54.6935C90.4123 54.5575 90.6382 54.3761 90.8038 54.1344C90.9694 53.8775 91.0898 53.6056 91.1501 53.3034C91.2103 52.9709 91.2404 52.6385 91.2404 52.291C91.2253 51.9586 91.1952 51.6111 91.1199 51.2787ZM98.4521 56.6426C97.8649 56.6426 97.3379 56.5368 96.8562 56.3253C96.3894 56.1138 96.0432 55.7209 95.8173 55.1316C95.727 54.8597 95.6668 54.5575 95.6366 54.2704C95.6065 53.9833 95.6065 53.6811 95.6065 53.394V49.8433H94.101V47.9697H95.6065V44.7966H97.9703V47.9697H100.168V49.8281H97.9703V52.971C97.9703 53.1674 97.9703 53.394 97.9853 53.6811C97.9853 53.9682 98.0456 54.1948 98.166 54.361C98.2714 54.497 98.4069 54.6028 98.5725 54.6783C98.7381 54.7388 98.9188 54.7841 99.0995 54.7992C99.2952 54.8143 99.4758 54.8143 99.6716 54.8143C99.8673 54.7992 100.018 54.7992 100.168 54.7992V56.6426H98.4521Z" fill="#191919"/>
<path d="M7.09407 47.9698C6.82307 47.9698 6.59724 48.3022 6.59724 48.7101C6.59724 49.1181 6.82307 49.4505 7.09407 49.4505C7.36508 49.4505 7.59091 49.1181 7.59091 48.7101C7.59091 48.3022 7.36508 47.9698 7.09407 47.9698ZM3.7216 47.9698C3.4506 47.9698 3.22476 48.3022 3.22476 48.7101C3.22476 49.1181 3.4506 49.4505 3.7216 49.4505C3.9926 49.4505 4.21844 49.1181 4.21844 48.7101C4.20338 48.3022 3.9926 47.9698 3.7216 47.9698ZM10.2708 47.0632H10.2257V46.1566C10.2257 45.4465 9.65354 44.8572 8.93087 44.8572H1.86975C1.16213 44.8572 0.574961 45.4313 0.574961 46.1566V47.0481H0.529794C0.319014 47.0934 0.168457 47.2596 0.168457 47.4712V48.9217C0.168457 49.1332 0.319014 49.3145 0.529794 49.3447H0.574961V50.7953C0.574961 51.5054 1.14708 52.0947 1.86975 52.0947H3.88721V52.4422H3.70654L3.0742 52.6991V52.7897H2.83331V53.0466C2.33648 53.0768 1.96008 53.4848 1.94503 53.9834V54.2705H1.86975L1.56864 54.5727V55.4037L1.86975 55.7059H2.50209L2.63759 55.5699V55.1469H2.89354V54.4518C2.89354 54.346 2.8032 54.2554 2.69781 54.2554H2.57737V53.9683C2.57737 53.8021 2.69781 53.6661 2.86343 53.6359V53.9683H3.13443V54.9655L3.46565 55.3433V55.857C3.20971 55.857 2.9387 55.8872 2.56231 56.2045V56.7183H5.27234V55.7059H5.60356V56.7183H8.31358V56.2045C7.95225 55.8872 7.66619 55.857 7.41024 55.857V55.3433L7.75652 54.9655V54.0136H8.01247V53.6812C8.17808 53.6963 8.29853 53.8474 8.29853 54.0136V54.3007H8.17808C8.07269 54.3007 7.98236 54.3914 7.98236 54.4971V55.1922H8.22325V55.6153L8.35875 55.7512H8.99109L9.2922 55.449V54.618L8.99109 54.3158H8.90075V54.0287C8.90075 53.5301 8.50931 53.1222 8.01247 53.0919V52.8502H7.77158V52.7595L7.13924 52.5027H6.97363V52.1551H8.94592C9.65354 52.1551 10.2407 51.581 10.2407 50.8557V49.4052H10.2859C10.4967 49.3599 10.6472 49.1937 10.6472 48.9821V47.5316C10.6322 47.2747 10.4816 47.0934 10.2708 47.0632ZM9.89443 50.5233C9.89443 51.0975 9.4277 51.5508 8.85559 51.5659H1.94503C1.37291 51.5659 0.921241 51.0975 0.921241 50.5233V46.3833C0.921241 45.8091 1.38797 45.3558 1.96008 45.3558H8.87064C9.44276 45.3558 9.89443 45.8242 9.90949 46.3833V50.5233H9.89443Z" fill="#191919"/>
</g>
<defs>
<clipPath id="clip0_2377_8002">
<rect width="100" height="100" fill="white" transform="translate(0.168213 0.780029)"/>
</clipPath>
</defs>
</svg>
