<svg width="101" height="101" viewBox="0 0 101 101" fill="none" xmlns="http://www.w3.org/2000/svg">
<g clip-path="url(#clip0_2377_8007)">
<path d="M25.1613 50.9262C25.1312 51.2586 25.0861 51.591 25.0258 51.9234C24.9656 52.2558 24.8903 52.5731 24.8 52.9055C24.7097 53.2077 24.6043 53.4948 24.4688 53.7819C24.3032 54.1445 24.0623 54.4769 23.7762 54.7489C23.4902 55.0209 23.1589 55.2475 22.7976 55.4137C22.5266 55.5497 22.2405 55.6404 21.9545 55.7159C21.6684 55.7915 21.3673 55.8368 21.0813 55.867C20.7801 55.8972 20.4941 55.9123 20.1779 55.9123H14.2911V44.0513H19.3047C19.7865 44.0513 20.2833 44.0815 20.7801 44.1268C21.2619 44.1721 21.7437 44.2779 22.2104 44.4441C22.6621 44.6103 23.0837 44.837 23.4601 45.1241C23.8364 45.4111 24.1526 45.804 24.4086 46.2724C24.6796 46.8012 24.8753 47.4207 25.0108 48.1007C25.1312 48.7353 25.2065 49.3699 25.2065 50.0196C25.2065 50.2764 25.1915 50.5937 25.1613 50.9262ZM22.2707 48.5237C22.1653 48.01 21.9997 47.5567 21.7588 47.179C21.4727 46.7257 21.1114 46.4386 20.6747 46.3026C20.2231 46.1817 19.7413 46.1062 19.2746 46.1213H16.7753V53.8272H19.2746C19.5907 53.8272 19.9069 53.797 20.2231 53.7366C20.5694 53.6761 20.8705 53.5855 21.1114 53.4495C21.3673 53.2984 21.5781 53.0868 21.7437 52.8149C21.9093 52.5278 22.0448 52.2256 22.1352 51.8932C22.2255 51.5608 22.3008 51.2284 22.3309 50.8808C22.376 50.5786 22.3911 50.2764 22.3911 49.9743C22.4212 49.4907 22.361 49.0072 22.2707 48.5237ZM29.5727 55.8821C29.2565 55.8821 28.9253 55.8821 28.6091 55.867C28.2929 55.867 27.9768 55.8217 27.6606 55.731C27.1186 55.595 26.697 55.2777 26.411 54.8093C26.1249 54.3561 25.9894 53.8423 25.9894 53.3135C25.9894 52.8904 26.0797 52.4825 26.2454 52.0896C26.411 51.6968 26.682 51.3492 27.0132 51.0924C27.1788 50.9715 27.3595 50.8808 27.5703 50.8204C27.7961 50.76 28.0069 50.7146 28.2327 50.6844C28.4585 50.6542 28.6844 50.6391 28.9102 50.624C29.136 50.624 29.3468 50.6089 29.5275 50.6089H32.4483V50.4729C32.4483 50.1707 32.4031 49.9138 32.3279 49.7325C32.2526 49.5512 32.1321 49.4152 31.9665 49.3094C31.7858 49.2037 31.5901 49.1432 31.3944 49.113C31.1535 49.0828 30.8976 49.0677 30.6567 49.0677H26.6519V47.2243H30.6567C30.8223 47.2243 30.9879 47.2243 31.1385 47.2394C31.3041 47.2394 31.4546 47.2545 31.6202 47.2545C32.358 47.2847 32.9752 47.4358 33.4871 47.7229C33.999 48.01 34.3754 48.5237 34.6163 49.2641C34.7066 49.5512 34.7669 49.8383 34.7819 50.1405C34.797 50.4275 34.812 50.7146 34.812 51.0319V55.8972L29.5727 55.8821ZM32.4634 52.4825H29.3167C29.0608 52.4825 28.85 52.5429 28.6844 52.6789C28.5188 52.8149 28.4284 53.0113 28.4284 53.2833C28.4284 53.4646 28.4736 53.6157 28.5489 53.7214C28.6242 53.8272 28.7295 53.9028 28.85 53.9481C28.9855 53.9934 29.121 54.0236 29.2715 54.0387C29.4221 54.0539 29.5727 54.0539 29.7232 54.0539H32.4784C32.4634 54.0388 32.4634 52.4825 32.4634 52.4825ZM40.0514 55.8972C39.4642 55.8972 38.9373 55.7915 38.4706 55.5799C38.0038 55.3684 37.6576 54.9755 37.4317 54.3863C37.3414 54.1143 37.2812 53.8121 37.2511 53.525C37.2209 53.2379 37.2209 52.9357 37.2209 52.6487V49.0828H35.7154V47.2243H37.2209V44.0513H39.5847V47.2243H41.7678V49.0677H39.5696V52.2105C39.5696 52.4069 39.5696 52.6336 39.5847 52.9206C39.5847 53.2077 39.66 53.4344 39.7654 53.6006C39.8708 53.7366 40.0063 53.8574 40.1719 53.9179C40.3375 53.9783 40.5181 54.0236 40.6988 54.0387C40.8945 54.0539 41.0752 54.0539 41.2709 54.0539C41.4667 54.0388 41.6323 54.0387 41.7678 54.0387V55.8821L40.0514 55.8972ZM46.0285 55.8821C45.7124 55.8821 45.3811 55.8821 45.065 55.867C44.7488 55.867 44.4326 55.8217 44.1165 55.731C43.5745 55.595 43.1529 55.2777 42.8819 54.8093C42.5958 54.3561 42.4603 53.8423 42.4603 53.3135C42.4603 52.8904 42.5507 52.4825 42.7163 52.0896C42.8819 51.6968 43.1529 51.3492 43.4841 51.0924C43.6497 50.9715 43.8304 50.8808 44.0412 50.8204C44.252 50.76 44.4778 50.6995 44.7036 50.6693C44.9295 50.6391 45.1553 50.624 45.3811 50.6089C45.607 50.6089 45.8177 50.6089 45.9984 50.5937H48.9192V50.4578C48.9192 50.1556 48.8741 49.8987 48.7988 49.7174C48.7235 49.5361 48.603 49.4001 48.4374 49.2943C48.2568 49.1886 48.061 49.1281 47.8653 49.0979C47.6244 49.0677 47.3685 49.0526 47.1276 49.0526H43.1228V47.2243H47.1276C47.2932 47.2243 47.4588 47.2243 47.6094 47.2394C47.775 47.2394 47.9255 47.2545 48.0912 47.2545C48.8289 47.2847 49.4462 47.4358 49.9581 47.7229C50.47 48.01 50.8463 48.5237 51.0872 49.2641C51.1776 49.5512 51.2378 49.8383 51.2528 50.1405C51.2679 50.4275 51.283 50.7146 51.283 51.0319V55.8972C51.2679 55.8821 46.0285 55.8821 46.0285 55.8821ZM48.9042 52.4825H45.7575C45.5016 52.4825 45.3059 52.5429 45.1252 52.6789C44.9596 52.8149 44.8692 53.0113 44.8692 53.2833C44.8692 53.4797 44.9144 53.6157 44.9897 53.7214C45.065 53.8272 45.1704 53.9028 45.2908 53.9481C45.4263 53.9934 45.5618 54.0236 45.7124 54.0387C45.8629 54.0539 46.0135 54.0539 46.164 54.0539H48.9192C48.9042 54.0388 48.9042 52.4825 48.9042 52.4825Z" fill="#E4E4E4"/>
<path d="M61.0537 55.8972C60.9634 55.6253 60.9032 55.3533 60.8731 55.0662C60.843 54.7791 60.8128 54.492 60.7827 54.2201C60.7225 53.6761 60.6322 53.2228 60.4967 52.8602C60.3612 52.4976 60.1654 52.2105 59.9246 51.9989C59.6837 51.7874 59.3675 51.6363 58.9911 51.5457C58.6147 51.455 58.148 51.4097 57.606 51.4097H55.5885V55.8972H53.0742V44.0513H58.8405C59.2772 44.0513 59.7288 44.0664 60.1805 44.0966C60.6171 44.1268 61.0537 44.2024 61.4753 44.3232C62.1679 44.5197 62.7099 44.8974 63.1013 45.4565C63.4928 46.0155 63.6885 46.6501 63.6885 47.3603C63.6885 48.1762 63.5229 48.8864 63.1766 49.5059C62.8303 50.1102 62.2582 50.5484 61.4452 50.8053C61.7011 50.8959 61.927 50.9866 62.1076 51.0773C62.2883 51.1679 62.4539 51.2737 62.5894 51.3946C62.74 51.5154 62.8604 51.6665 62.9658 51.8327C63.0862 52.0443 63.1916 52.2558 63.282 52.4825C63.4476 52.8602 63.5379 53.2682 63.553 53.6912C63.568 54.0992 63.5981 54.5223 63.6584 54.9302C63.7035 55.2626 63.7638 55.5799 63.8691 55.8821H61.0537V55.8972ZM60.7827 46.8768C60.7074 46.6955 60.5719 46.5293 60.4063 46.4084C60.2257 46.2875 60.0299 46.212 59.8342 46.1817C59.5933 46.1364 59.3524 46.1213 59.1116 46.1213H55.5885V49.3245H59.1116C59.6837 49.3245 60.1353 49.2037 60.4515 48.977C60.7677 48.7353 60.9333 48.2971 60.9333 47.6625C60.9182 47.3301 60.8731 47.0732 60.7827 46.8768ZM73.3241 53.5401C73.1133 54.0539 72.7821 54.5223 72.3756 54.9C71.954 55.2777 71.4572 55.5648 70.9303 55.731C70.3732 55.9123 69.7559 56.0181 69.0784 56.0181C67.6331 56.0181 66.5189 55.6253 65.7361 54.8396C64.9532 54.0539 64.5466 52.9357 64.5466 51.4852C64.5466 50.8053 64.652 50.2009 64.8779 49.657C65.1037 49.113 65.4199 48.6446 65.8113 48.282C66.2329 47.9042 66.7147 47.602 67.2567 47.4207C67.8438 47.2092 68.4611 47.1185 69.0935 47.1185C70.5388 47.1185 71.6529 47.5114 72.4659 48.3122C73.279 49.113 73.6704 50.2311 73.6855 51.6968C73.6704 52.3767 73.565 52.9962 73.3241 53.5401ZM71.126 50.5333C71.0658 50.2311 70.9453 49.9591 70.7797 49.7023C70.6141 49.4605 70.3883 49.2792 70.1173 49.1432C69.8463 49.0072 69.5 48.9468 69.1085 48.9468C68.687 48.9468 68.3407 49.0223 68.0697 49.1583C67.8137 49.2943 67.5879 49.4907 67.4223 49.7325C67.2567 49.9743 67.1513 50.2462 67.0911 50.5786C67.0308 50.9262 66.9857 51.2737 67.0007 51.6212C67.0007 51.9536 67.0308 52.3011 67.1212 52.6335C67.1965 52.9206 67.3169 53.1926 67.4976 53.4344C67.6782 53.661 67.9041 53.8574 68.16 53.9632C68.431 54.0841 68.7773 54.1596 69.1687 54.1596C69.5602 54.1596 69.9065 54.0841 70.1775 53.9481C70.4334 53.8121 70.6593 53.6308 70.8249 53.389C70.9905 53.1624 71.0959 52.8753 71.1712 52.558C71.2314 52.2256 71.2615 51.8932 71.2615 51.5457C71.2464 51.2132 71.2013 50.8657 71.126 50.5333ZM83.3361 53.6157C83.035 54.2805 82.5533 54.8245 81.8908 55.2475C81.409 55.5497 80.9272 55.7461 80.4304 55.8066C79.9035 55.867 79.3765 55.8972 78.8646 55.8972H75.0104V44.0513H77.3741V47.2243H79.4819C80.8369 47.2243 81.9059 47.5869 82.6586 48.2971C83.4114 49.0072 83.8029 50.0649 83.8029 51.4399C83.7878 52.2256 83.6373 52.9509 83.3361 53.6157ZM80.8821 49.7174C80.5207 49.2943 79.9336 49.0828 79.1356 49.0828H77.359V54.0387H79.1356C79.9035 54.0387 80.4756 53.797 80.852 53.3135C81.2283 52.83 81.4241 52.2256 81.4241 51.5003C81.4241 50.7448 81.2434 50.1556 80.8821 49.7174ZM93.3181 53.5401C93.1073 54.0539 92.7761 54.5223 92.3545 54.9C91.948 55.2626 91.4662 55.5497 90.9092 55.731C90.3521 55.9275 89.7348 56.0181 89.0573 56.0181C87.612 56.0181 86.4978 55.6253 85.715 54.8396C84.9321 54.0539 84.5255 52.9357 84.5255 51.4852C84.5255 50.8053 84.6309 50.2009 84.8568 49.657C85.0826 49.113 85.3988 48.6597 85.7902 48.282C86.2118 47.9042 86.6936 47.602 87.2356 47.4207C87.7926 47.2243 88.4099 47.1185 89.0724 47.1185C90.5177 47.1185 91.6318 47.5114 92.4448 48.3122C93.2578 49.113 93.6493 50.2311 93.6493 51.6968C93.6643 52.3767 93.5439 52.9962 93.3181 53.5401ZM91.1199 50.5333C91.0597 50.2311 90.9393 49.9591 90.7737 49.7023C90.608 49.4605 90.3822 49.2792 90.1112 49.1432C89.8402 49.0072 89.4939 48.9468 89.1025 48.9468C88.6809 48.9468 88.3346 49.0223 88.0636 49.1583C87.8077 49.2943 87.5819 49.4907 87.4162 49.7325C87.2506 49.9894 87.1302 50.2764 87.085 50.5786C87.0248 50.9262 86.9796 51.2737 86.9947 51.6212C86.9947 51.9536 87.0248 52.3011 87.1001 52.6335C87.1753 52.9206 87.2958 53.1926 87.4765 53.4344C87.6571 53.661 87.883 53.8574 88.1389 53.9632C88.4099 54.0992 88.7562 54.1596 89.1476 54.1596C89.5541 54.1596 89.8854 54.0841 90.1564 53.9481C90.4123 53.8121 90.6382 53.6308 90.8038 53.389C90.9694 53.1322 91.0898 52.8602 91.1501 52.558C91.2103 52.2256 91.2404 51.8932 91.2404 51.5457C91.2253 51.2132 91.1952 50.8657 91.1199 50.5333ZM98.4521 55.8972C97.8649 55.8972 97.3379 55.7915 96.8562 55.5799C96.3894 55.3684 96.0432 54.9755 95.8173 54.3863C95.727 54.1143 95.6668 53.8121 95.6366 53.525C95.6065 53.2379 95.6065 52.9357 95.6065 52.6487V49.0979H94.101V47.2243H95.6065V44.0513H97.9703V47.2243H100.168V49.0828H97.9703V52.2256C97.9703 52.422 97.9703 52.6487 97.9853 52.9357C97.9853 53.2228 98.0456 53.4495 98.166 53.6157C98.2714 53.7517 98.4069 53.8574 98.5725 53.933C98.7381 53.9934 98.9188 54.0387 99.0995 54.0539C99.2952 54.069 99.4758 54.069 99.6716 54.069C99.8673 54.0539 100.018 54.0539 100.168 54.0539V55.8972H98.4521Z" fill="#E4E4E4"/>
<path d="M7.09407 47.2244C6.82307 47.2244 6.59724 47.5568 6.59724 47.9648C6.59724 48.3727 6.82307 48.7051 7.09407 48.7051C7.36508 48.7051 7.59091 48.3727 7.59091 47.9648C7.59091 47.5568 7.36508 47.2244 7.09407 47.2244ZM3.7216 47.2244C3.4506 47.2244 3.22476 47.5568 3.22476 47.9648C3.22476 48.3727 3.4506 48.7051 3.7216 48.7051C3.9926 48.7051 4.21844 48.3727 4.21844 47.9648C4.20338 47.5568 3.9926 47.2244 3.7216 47.2244ZM10.2708 46.3178H10.2257V45.4112C10.2257 44.7011 9.65354 44.1118 8.93087 44.1118H1.86975C1.16213 44.1118 0.574961 44.686 0.574961 45.4112V46.3027H0.529794C0.319014 46.348 0.168457 46.5143 0.168457 46.7258V48.1763C0.168457 48.3878 0.319014 48.5692 0.529794 48.5994H0.574961V50.0499C0.574961 50.7601 1.14708 51.3493 1.86975 51.3493H3.88721V51.6969H3.70654L3.0742 51.9537V52.0444H2.83331V52.3012C2.33648 52.3315 1.96008 52.7394 1.94503 53.238V53.5251H1.86975L1.56864 53.8273V54.6584L1.86975 54.9605H2.50209L2.63759 54.8246V54.4015H2.89354V53.7064C2.89354 53.6007 2.8032 53.51 2.69781 53.51H2.57737V53.2229C2.57737 53.0567 2.69781 52.9207 2.86343 52.8905V53.2229H3.13443V54.2202L3.46565 54.5979V55.1116C3.20971 55.1116 2.9387 55.1419 2.56231 55.4592V55.9729H5.27234V54.9605H5.60356V55.9729H8.31358V55.4592C7.95225 55.1419 7.66619 55.1116 7.41024 55.1116V54.5979L7.75652 54.2202V53.2683H8.01247V52.9359C8.17808 52.951 8.29853 53.1021 8.29853 53.2683V53.5553H8.17808C8.07269 53.5553 7.98236 53.646 7.98236 53.7518V54.4468H8.22325V54.8699L8.35875 55.0059H8.99109L9.2922 54.7037V53.8727L8.99109 53.5705H8.90075V53.2834C8.90075 52.7848 8.50931 52.3768 8.01247 52.3466V52.1048H7.77158V52.0142L7.13924 51.7573H6.97363V51.4098H8.94592C9.65354 51.4098 10.2407 50.8356 10.2407 50.1103V48.6598H10.2859C10.4967 48.6145 10.6472 48.4483 10.6472 48.2368V46.7862C10.6322 46.5294 10.4816 46.348 10.2708 46.3178ZM9.89443 49.7779C9.89443 50.3521 9.4277 50.8054 8.85559 50.8205H1.94503C1.37291 50.8205 0.921241 50.3521 0.921241 49.7779V45.6379C0.921241 45.0637 1.38797 44.6104 1.96008 44.6104H8.87064C9.44276 44.6104 9.89443 45.0788 9.90949 45.6379V49.7779H9.89443Z" fill="#E4E4E4"/>
</g>
<defs>
<clipPath id="clip0_2377_8007">
<rect width="100" height="100" fill="white" transform="translate(0.168213 0.034668)"/>
</clipPath>
</defs>
</svg>
