<svg width="101" height="101" viewBox="0 0 101 101" fill="none" xmlns="http://www.w3.org/2000/svg">
<g clip-path="url(#clip0_2377_7665)">
<path d="M27.6287 43.1899L28.3889 43.7403C29.7112 44.8067 30.4713 46.0108 30.6365 47.3868C32.0578 47.1116 33.8756 47.3181 34.669 47.8685L35.3961 48.3157L35.2639 48.5911C35.0324 49.1069 34.9664 49.2446 34.9334 49.3134C33.6444 51.8935 31.0992 51.9278 29.9094 51.8935C26.9016 59.4273 20.4895 63.5898 11.8293 63.5898C7.8301 63.5898 4.78927 62.3169 2.73986 59.8056C0.0297019 56.5034 0.0297019 52.203 0.260952 50.8271L0.327163 50.5517H24.2242C25.4801 50.5517 26.4389 50.2079 26.9016 49.9325C26.4057 49.1757 26.2405 48.3157 26.2074 47.8341C26.1082 46.4581 26.4389 45.0132 27.1 43.9812L27.6287 43.1899ZM48.3346 44.7874C48.6013 44.7874 48.827 44.8768 49.0119 45.0556C49.1968 45.2343 49.2893 45.4601 49.2893 45.7327V54.2411C49.2893 55.6591 48.7923 56.859 47.7983 57.8407C46.7923 58.8346 45.5924 59.3316 44.1987 59.3316C42.7927 59.3316 41.5928 58.8346 40.5991 57.8407C39.6052 56.8468 39.1082 55.647 39.1082 54.2411C39.1082 52.8353 39.6052 51.6354 40.5991 50.6415C41.5928 49.6475 42.7927 49.1506 44.1987 49.1507C45.4047 49.1507 46.4682 49.5233 47.3893 50.2687V45.7327C47.3893 45.4601 47.4787 45.2343 47.6575 45.0556C47.8362 44.8768 48.0619 44.7874 48.3346 44.7874ZM55.4616 49.1507C56.8554 49.1507 58.0553 49.6476 59.0612 50.6413C59.5583 51.1384 59.9295 51.6869 60.1748 52.2866C60.4203 52.8866 60.5461 53.5381 60.5522 54.2411C60.5522 55.6591 60.0552 56.859 59.0614 57.8407C58.0555 58.8346 56.8556 59.3316 55.4618 59.3316C54.0558 59.3316 52.8559 58.8346 51.8621 57.8407C50.8681 56.8468 50.3711 55.647 50.3711 54.2411C50.3711 52.8353 50.8681 51.6354 51.8619 50.6415C52.8558 49.6475 54.0557 49.1506 55.4616 49.1507ZM66.7065 49.1507C67.9851 49.1507 69.0911 49.5628 70.0245 50.387C70.2426 50.5808 70.3516 50.8201 70.3516 51.105C70.3516 51.3778 70.2622 51.605 70.0834 51.7866C69.9047 51.9685 69.6789 52.0595 69.4063 52.0595C69.1811 52.0613 68.9623 51.9841 68.7881 51.8413C68.4791 51.5806 68.1549 51.3837 67.8155 51.2505C67.476 51.1173 67.1064 51.0506 66.7065 51.0505C66.2642 51.0505 65.8491 51.1338 65.4612 51.3005C65.0818 51.4613 64.7363 51.6926 64.443 51.9821C64.1504 52.2721 63.9173 52.6165 63.7567 52.9958C63.59 53.3834 63.5067 53.7985 63.5067 54.2411C63.5067 54.6834 63.59 55.0985 63.7567 55.4864C63.9173 55.8658 64.1504 56.2101 64.443 56.5001C64.7363 56.7896 65.0818 57.0209 65.4612 57.1817C65.8491 57.3484 66.2642 57.4317 66.7065 57.4317C67.1065 57.4317 67.4761 57.3666 67.8155 57.2364C68.1549 57.106 68.4761 56.9105 68.7789 56.6499C68.9487 56.5227 69.1487 56.456 69.3789 56.4499C69.6516 56.4499 69.8773 56.5393 70.0561 56.7181C70.2349 56.8968 70.3243 57.1226 70.3243 57.3954C70.3243 57.6621 70.2243 57.8954 70.0245 58.0952C69.0851 58.9194 67.9791 59.3316 66.7065 59.3316C65.3005 59.3316 64.1006 58.8346 63.1069 57.8407C62.113 56.8468 61.6161 55.647 61.6161 54.2411C61.6161 52.8353 62.113 51.6354 63.1069 50.6415C64.1008 49.6476 65.3006 49.1507 66.7065 49.1507ZM72.3791 44.7874C72.6397 44.7874 72.8624 44.8799 73.0471 45.0647C73.232 45.2494 73.3245 45.4751 73.3245 45.7419V52.8321L78.7604 49.296C78.9118 49.1991 79.0815 49.1507 79.2694 49.1507C79.4027 49.1507 79.5269 49.1749 79.642 49.2233C79.7573 49.2718 79.8573 49.3399 79.942 49.4278C80.0268 49.5157 80.095 49.6173 80.1465 49.7325C80.1981 49.8478 80.2239 49.9689 80.2239 50.0958C80.2239 50.4353 80.1027 50.6868 79.8602 50.8505L76.0516 53.3232L79.9602 57.7226C80.136 57.9164 80.2239 58.1377 80.2239 58.3862C80.2239 58.5135 80.1981 58.6346 80.1465 58.7497C80.0967 58.8624 80.0275 58.9656 79.942 59.0544C79.8573 59.1423 79.7573 59.2104 79.642 59.2587C79.5239 59.3076 79.3972 59.3324 79.2694 59.3316C79.0148 59.3316 78.8027 59.2497 78.633 59.086L74.4334 54.3683L73.3245 55.0956V58.3771C73.3245 58.6376 73.232 58.8618 73.0471 59.0497C72.8622 59.2376 72.6396 59.3316 72.3791 59.3316C72.1125 59.3316 71.8867 59.2376 71.7018 59.0497C71.5169 58.8618 71.4245 58.6376 71.4245 58.3771V45.7419C71.4245 45.4752 71.5169 45.2494 71.7018 45.0646C71.8867 44.8797 72.1125 44.7874 72.3791 44.7874ZM86.3418 49.1505C87.7356 49.1505 88.9355 49.6474 89.9415 50.6411C90.4383 51.132 90.8111 51.6789 91.0596 52.2819C91.3081 52.8848 91.4323 53.5378 91.4323 54.2409C91.4323 54.5136 91.3398 54.7393 91.1549 54.9181C90.97 55.0968 90.7443 55.1862 90.4778 55.1862H83.2786C83.3787 55.5137 83.5322 55.8224 83.733 56.0997C83.929 56.3716 84.1667 56.6109 84.4374 56.8087C84.7089 57.0068 85.0095 57.1616 85.3284 57.2679C85.6526 57.377 85.9904 57.4316 86.3418 57.4316C86.7418 57.4316 87.1084 57.3709 87.4417 57.2497C87.775 57.1286 88.0841 56.9468 88.369 56.7042C88.5444 56.5554 88.7659 56.4719 88.9959 56.4679C89.2687 56.4679 89.4945 56.5573 89.6733 56.736C89.8521 56.9148 89.9415 57.1406 89.9415 57.4134C89.9415 57.6799 89.8506 57.9071 89.6688 58.095C88.7295 58.9192 87.6205 59.3314 86.3418 59.3314C84.9359 59.3314 83.736 58.8344 82.7422 57.8405C81.7484 56.8467 81.2514 55.6468 81.2514 54.2409C81.2514 52.8351 81.7484 51.6352 82.7422 50.6413C83.7361 49.6474 84.936 49.1505 86.3418 49.1505ZM97.5684 49.1505C97.8351 49.1505 98.1214 49.1687 98.4274 49.205C98.7334 49.2414 99.0152 49.3065 99.2729 49.4003C99.5304 49.4942 99.744 49.623 99.9135 49.7866C100.083 49.9503 100.168 50.1624 100.168 50.423C100.168 50.5564 100.142 50.6807 100.091 50.7958C100.041 50.9085 99.9718 51.0115 99.8864 51.1003C99.8016 51.1882 99.7016 51.2564 99.5864 51.3048C99.4683 51.3537 99.3415 51.3784 99.2137 51.3774C99.0985 51.3774 98.9652 51.3441 98.8137 51.2774C98.432 51.126 98.0168 51.0503 97.5684 51.0503C97.1261 51.0503 96.711 51.1336 96.3231 51.3003C95.9353 51.467 95.5974 51.6942 95.3094 51.9819C95.0217 52.2698 94.7944 52.6077 94.6278 52.9956C94.4611 53.3832 94.3778 53.7983 94.3778 54.2409V58.386C94.3778 58.6466 94.2853 58.8692 94.1004 59.054C93.9155 59.2388 93.6929 59.3312 93.4325 59.3314C93.1658 59.3314 92.9401 59.2389 92.7553 59.054C92.5706 58.8691 92.4781 58.6465 92.478 58.386V50.096C92.478 49.8353 92.5704 49.6127 92.7553 49.428C92.9402 49.2431 93.1659 49.1507 93.4325 49.1507C93.693 49.1507 93.9157 49.2431 94.1004 49.428C94.2853 49.6127 94.3778 49.8353 94.3778 50.096V50.2776C94.8226 49.9197 95.3231 49.6372 95.8594 49.4415C96.3926 49.2475 96.9623 49.1505 97.5684 49.1505ZM44.1987 51.0503C43.7502 51.0503 43.3321 51.1351 42.9442 51.3048C42.5563 51.4745 42.22 51.7032 41.9352 51.9911C41.6504 52.279 41.4247 52.6169 41.258 53.0048C41.0914 53.3927 41.008 53.8047 41.008 54.2409C41.008 54.6771 41.0914 55.0892 41.258 55.4773C41.4247 55.8653 41.6504 56.2031 41.9352 56.4907C42.22 56.7784 42.5563 57.0071 42.9442 57.1771C43.3321 57.3466 43.7502 57.4314 44.1987 57.4316C44.641 57.4316 45.0561 57.3467 45.444 57.1771C45.8228 57.0133 46.1668 56.7788 46.4576 56.486C46.7463 56.1939 46.9775 55.8501 47.1393 55.4726C47.306 55.0878 47.3893 54.6773 47.3893 54.2409C47.3893 53.8046 47.306 53.394 47.1393 53.0091C46.9775 52.6316 46.7463 52.2878 46.4576 51.9956C46.1668 51.7029 45.8227 51.4685 45.444 51.3048C45.0562 51.1351 44.6411 51.0503 44.1987 51.0503ZM55.4618 51.0503C55.0133 51.0503 54.5951 51.1351 54.2073 51.3048C53.8194 51.4745 53.483 51.7032 53.1983 51.9911C52.9135 52.279 52.6877 52.6169 52.5209 53.0048C52.3541 53.3927 52.2708 53.8047 52.2709 54.2409C52.2711 54.6771 52.3544 55.0892 52.5209 55.4773C52.6877 55.865 52.9135 56.2028 53.1983 56.4907C53.483 56.7786 53.8194 57.0074 54.2073 57.1771C54.5951 57.3467 55.0133 57.4316 55.4618 57.4316C55.9041 57.4316 56.3192 57.3467 56.7071 57.1771C57.0859 57.0133 57.4299 56.7788 57.7207 56.486C58.0094 56.1939 58.2406 55.8501 58.4024 55.4726C58.569 55.0878 58.6524 54.6773 58.6524 54.2409C58.6524 53.8046 58.569 53.394 58.4024 53.0091C58.2406 52.6316 58.0094 52.2878 57.7207 51.9956C57.4299 51.7029 57.0858 51.4685 56.7071 51.3048C56.3192 51.1351 55.9041 51.0503 55.4618 51.0503ZM86.3418 51.0503C85.9964 51.0503 85.6601 51.1048 85.3329 51.2138C85.0112 51.32 84.7077 51.4748 84.4329 51.6728C84.1601 51.8697 83.9207 52.1091 83.7239 52.3819C83.5237 52.6584 83.373 52.9675 83.2786 53.2954H89.4051C89.3047 52.9672 89.1495 52.6584 88.9461 52.3819C88.7475 52.1107 88.5084 51.8716 88.2372 51.673C87.9656 51.475 87.6651 51.3202 87.3463 51.214C87.0227 51.1049 86.6834 51.0496 86.3418 51.0503ZM6.54103 46.4233V49.8636H2.90529V46.4237L6.54103 46.4233ZM10.8379 46.4233V49.8636H7.20217V46.4237L10.8379 46.4233ZM15.1348 46.4233V49.8636H11.4988V46.4237L15.1348 46.4233ZM19.4317 46.4233V49.8636H15.7957V46.4237L19.4317 46.4233ZM23.7285 46.4233V49.8636H20.0926V46.4237L23.7285 46.4233ZM19.4317 42.2954V45.7355H15.7957V42.2956L19.4317 42.2954ZM15.1348 42.2954V45.7355H11.4988V42.2956L15.1348 42.2954ZM10.8379 42.2954V45.7355H7.20217V42.2956L10.8379 42.2954ZM19.4317 38.1675V41.6075H15.7957V38.1675H19.4317Z" fill="#E4E4E4"/>
</g>
<defs>
<clipPath id="clip0_2377_7665">
<rect width="100" height="100" fill="white" transform="translate(0.168213 0.878662)"/>
</clipPath>
</defs>
</svg>
