<svg width="101" height="101" viewBox="0 0 101 101" fill="none" xmlns="http://www.w3.org/2000/svg">
<g clip-path="url(#clip0_2377_7662)">
<path d="M27.6287 42.9353L28.3889 43.4857C29.7112 44.5521 30.4713 45.7562 30.6365 47.1322C32.0578 46.857 33.8756 47.0634 34.669 47.6138L35.3961 48.0611L35.2639 48.3365C35.0324 48.8523 34.9664 48.99 34.9334 49.0587C33.6444 51.6388 31.0992 51.6732 29.9094 51.6388C26.9016 59.1726 20.4895 63.3351 11.8293 63.3351C7.8301 63.3351 4.78927 62.0623 2.73986 59.5509C0.0297019 56.2488 0.0297019 51.9484 0.260952 50.5724L0.327163 50.297H24.2242C25.4801 50.297 26.4389 49.9533 26.9016 49.6779C26.4057 48.921 26.2405 48.0611 26.2074 47.5794C26.1082 46.2035 26.4389 44.7585 27.1 43.7265L27.6287 42.9353ZM48.3346 44.5328C48.6013 44.5328 48.827 44.6222 49.0119 44.8009C49.1968 44.9797 49.2893 45.2054 49.2893 45.4781V53.9865C49.2893 55.4044 48.7923 56.6043 47.7983 57.5861C46.7923 58.58 45.5924 59.0769 44.1987 59.0769C42.7927 59.0769 41.5928 58.58 40.5991 57.5861C39.6052 56.5922 39.1082 55.3923 39.1082 53.9865C39.1082 52.5806 39.6052 51.3808 40.5991 50.3869C41.5928 49.3929 42.7927 48.8959 44.1987 48.896C45.4047 48.896 46.4682 49.2687 47.3893 50.014V45.4781C47.3893 45.2054 47.4787 44.9797 47.6575 44.8009C47.8362 44.6222 48.0619 44.5328 48.3346 44.5328ZM55.4616 48.896C56.8554 48.896 58.0553 49.3929 59.0612 50.3867C59.5583 50.8838 59.9295 51.4322 60.1748 52.032C60.4203 52.632 60.5461 53.2835 60.5522 53.9865C60.5522 55.4044 60.0552 56.6043 59.0614 57.5861C58.0555 58.58 56.8556 59.0769 55.4618 59.0769C54.0558 59.0769 52.8559 58.58 51.8621 57.5861C50.8681 56.5922 50.3711 55.3923 50.3711 53.9865C50.3711 52.5806 50.8681 51.3808 51.8619 50.3869C52.8558 49.3929 54.0557 48.8959 55.4616 48.896ZM66.7065 48.896C67.9851 48.896 69.0911 49.3082 70.0245 50.1324C70.2426 50.3261 70.3516 50.5655 70.3516 50.8503C70.3516 51.1231 70.2622 51.3503 70.0834 51.532C69.9047 51.7139 69.6789 51.8048 69.4063 51.8048C69.1811 51.8067 68.9623 51.7295 68.7881 51.5867C68.4791 51.326 68.1549 51.1291 67.8155 50.9959C67.476 50.8627 67.1064 50.796 66.7065 50.7959C66.2642 50.7959 65.8491 50.8792 65.4612 51.0459C65.0818 51.2067 64.7363 51.438 64.443 51.7275C64.1504 52.0175 63.9173 52.3618 63.7567 52.7412C63.59 53.1288 63.5067 53.5439 63.5067 53.9865C63.5067 54.4288 63.59 54.8439 63.7567 55.2318C63.9173 55.6111 64.1504 55.9555 64.443 56.2455C64.7363 56.535 65.0818 56.7663 65.4612 56.9271C65.8491 57.0938 66.2642 57.1771 66.7065 57.1771C67.1065 57.1771 67.4761 57.112 67.8155 56.9818C68.1549 56.8513 68.4761 56.6558 68.7789 56.3953C68.9487 56.2681 69.1487 56.2014 69.3789 56.1953C69.6516 56.1953 69.8773 56.2847 70.0561 56.4634C70.2349 56.6422 70.3243 56.868 70.3243 57.1408C70.3243 57.4074 70.2243 57.6407 70.0245 57.8406C69.0851 58.6648 67.9791 59.0769 66.7065 59.0769C65.3005 59.0769 64.1006 58.58 63.1069 57.5861C62.113 56.5922 61.6161 55.3923 61.6161 53.9865C61.6161 52.5806 62.113 51.3808 63.1069 50.3869C64.1008 49.393 65.3006 48.896 66.7065 48.896ZM72.3791 44.5328C72.6397 44.5328 72.8624 44.6252 73.0471 44.8101C73.232 44.9947 73.3245 45.2205 73.3245 45.4873V52.5775L78.7604 49.0414C78.9118 48.9445 79.0815 48.896 79.2694 48.896C79.4027 48.896 79.5269 48.9203 79.642 48.9687C79.7573 49.0171 79.8573 49.0853 79.942 49.1732C80.0268 49.2611 80.095 49.3627 80.1465 49.4779C80.1981 49.5931 80.2239 49.7142 80.2239 49.8412C80.2239 50.1806 80.1027 50.4322 79.8602 50.5959L76.0516 53.0685L79.9602 57.4679C80.136 57.6618 80.2239 57.883 80.2239 58.1316C80.2239 58.2588 80.1981 58.38 80.1465 58.4951C80.0967 58.6078 80.0275 58.7109 79.942 58.7998C79.8573 58.8877 79.7573 58.9558 79.642 59.0041C79.5239 59.053 79.3972 59.0778 79.2694 59.0769C79.0148 59.0769 78.8027 58.9951 78.633 58.8314L74.4334 54.1136L73.3245 54.841V58.1224C73.3245 58.383 73.232 58.6072 73.0471 58.7951C72.8622 58.983 72.6396 59.0769 72.3791 59.0769C72.1125 59.0769 71.8867 58.983 71.7018 58.7951C71.5169 58.6072 71.4245 58.383 71.4245 58.1224V45.4873C71.4245 45.2206 71.5169 44.9948 71.7018 44.8099C71.8867 44.625 72.1125 44.5328 72.3791 44.5328ZM86.3418 48.8959C87.7356 48.8959 88.9355 49.3927 89.9415 50.3865C90.4383 50.8774 90.8111 51.4243 91.0596 52.0273C91.3081 52.6302 91.4323 53.2832 91.4323 53.9863C91.4323 54.2589 91.3398 54.4847 91.1549 54.6634C90.97 54.8422 90.7443 54.9316 90.4778 54.9316H83.2786C83.3787 55.2591 83.5322 55.5677 83.733 55.8451C83.929 56.117 84.1667 56.3563 84.4374 56.5541C84.7089 56.7521 85.0095 56.907 85.3284 57.0132C85.6526 57.1224 85.9904 57.1769 86.3418 57.1769C86.7418 57.1769 87.1084 57.1163 87.4417 56.9951C87.775 56.874 88.0841 56.6921 88.369 56.4496C88.5444 56.3008 88.7659 56.2173 88.9959 56.2132C89.2687 56.2132 89.4945 56.3026 89.6733 56.4814C89.8521 56.6602 89.9415 56.886 89.9415 57.1587C89.9415 57.4253 89.8506 57.6525 89.6688 57.8404C88.7295 58.6646 87.6205 59.0767 86.3418 59.0767C84.9359 59.0767 83.736 58.5798 82.7422 57.5859C81.7484 56.592 81.2514 55.3921 81.2514 53.9863C81.2514 52.5804 81.7484 51.3806 82.7422 50.3867C83.7361 49.3928 84.936 48.8959 86.3418 48.8959ZM97.5684 48.8959C97.8351 48.8959 98.1214 48.914 98.4274 48.9503C98.7334 48.9868 99.0152 49.0519 99.2729 49.1457C99.5304 49.2395 99.744 49.3683 99.9135 49.532C100.083 49.6957 100.168 49.9078 100.168 50.1683C100.168 50.3018 100.142 50.4261 100.091 50.5412C100.041 50.6538 99.9718 50.7569 99.8864 50.8457C99.8016 50.9336 99.7016 51.0017 99.5864 51.0502C99.4683 51.099 99.3415 51.1237 99.2137 51.1228C99.0985 51.1228 98.9652 51.0895 98.8137 51.0228C98.432 50.8714 98.0168 50.7957 97.5684 50.7957C97.1261 50.7957 96.711 50.879 96.3231 51.0457C95.9353 51.2123 95.5974 51.4395 95.3094 51.7273C95.0217 52.0152 94.7944 52.3531 94.6278 52.741C94.4611 53.1286 94.3778 53.5437 94.3778 53.9863V58.1314C94.3778 58.392 94.2853 58.6146 94.1004 58.7994C93.9155 58.9841 93.6929 59.0766 93.4325 59.0767C93.1658 59.0767 92.9401 58.9843 92.7553 58.7994C92.5706 58.6145 92.4781 58.3918 92.478 58.1314V49.8414C92.478 49.5807 92.5704 49.358 92.7553 49.1734C92.9402 48.9885 93.1659 48.896 93.4325 48.896C93.693 48.896 93.9157 48.9885 94.1004 49.1734C94.2853 49.358 94.3778 49.5807 94.3778 49.8414V50.023C94.8226 49.6651 95.3231 49.3826 95.8594 49.1869C96.3926 48.9929 96.9623 48.8959 97.5684 48.8959ZM44.1987 50.7957C43.7502 50.7957 43.3321 50.8805 42.9442 51.0502C42.5563 51.2198 42.22 51.4486 41.9352 51.7365C41.6504 52.0244 41.4247 52.3623 41.258 52.7502C41.0914 53.138 41.008 53.5501 41.008 53.9863C41.008 54.4225 41.0914 54.8346 41.258 55.2226C41.4247 55.6106 41.6504 55.9485 41.9352 56.2361C42.22 56.5237 42.5563 56.7525 42.9442 56.9224C43.3321 57.092 43.7502 57.1768 44.1987 57.1769C44.641 57.1769 45.0561 57.0921 45.444 56.9224C45.8228 56.7587 46.1668 56.5242 46.4576 56.2314C46.7463 55.9392 46.9775 55.5954 47.1393 55.2179C47.306 54.8332 47.3893 54.4226 47.3893 53.9863C47.3893 53.55 47.306 53.1393 47.1393 52.7544C46.9775 52.3769 46.7463 52.0332 46.4576 51.741C46.1668 51.4483 45.8227 51.2138 45.444 51.0502C45.0562 50.8805 44.6411 50.7957 44.1987 50.7957ZM55.4618 50.7957C55.0133 50.7957 54.5951 50.8805 54.2073 51.0502C53.8194 51.2198 53.483 51.4486 53.1983 51.7365C52.9135 52.0244 52.6877 52.3623 52.5209 52.7502C52.3541 53.138 52.2708 53.5501 52.2709 53.9863C52.2711 54.4225 52.3544 54.8346 52.5209 55.2226C52.6877 55.6104 52.9135 55.9482 53.1983 56.2361C53.483 56.524 53.8194 56.7528 54.2073 56.9224C54.5951 57.0921 55.0133 57.1769 55.4618 57.1769C55.9041 57.1769 56.3192 57.0921 56.7071 56.9224C57.0859 56.7587 57.4299 56.5242 57.7207 56.2314C58.0094 55.9392 58.2406 55.5954 58.4024 55.2179C58.569 54.8332 58.6524 54.4226 58.6524 53.9863C58.6524 53.55 58.569 53.1393 58.4024 52.7544C58.2406 52.3769 58.0094 52.0332 57.7207 51.741C57.4299 51.4483 57.0858 51.2138 56.7071 51.0502C56.3192 50.8805 55.9041 50.7957 55.4618 50.7957ZM86.3418 50.7957C85.9964 50.7957 85.6601 50.8502 85.3329 50.9591C85.0112 51.0653 84.7077 51.2201 84.4329 51.4181C84.1601 51.6151 83.9207 51.8545 83.7239 52.1273C83.5237 52.4037 83.373 52.7128 83.2786 53.0408H89.4051C89.3047 52.7126 89.1495 52.4038 88.9461 52.1273C88.7475 51.856 88.5084 51.6169 88.2372 51.4183C87.9656 51.2203 87.6651 51.0655 87.3463 50.9593C87.0227 50.8503 86.6834 50.795 86.3418 50.7957ZM6.54103 46.1687V49.6089H2.90529V46.1691L6.54103 46.1687ZM10.8379 46.1687V49.6089H7.20217V46.1691L10.8379 46.1687ZM15.1348 46.1687V49.6089H11.4988V46.1691L15.1348 46.1687ZM19.4317 46.1687V49.6089H15.7957V46.1691L19.4317 46.1687ZM23.7285 46.1687V49.6089H20.0926V46.1691L23.7285 46.1687ZM19.4317 42.0408V45.4808H15.7957V42.041L19.4317 42.0408ZM15.1348 42.0408V45.4808H11.4988V42.041L15.1348 42.0408ZM10.8379 42.0408V45.4808H7.20217V42.041L10.8379 42.0408ZM19.4317 37.9128V41.3529H15.7957V37.9128H19.4317Z" fill="#191919"/>
</g>
<defs>
<clipPath id="clip0_2377_7662">
<rect width="100" height="100" fill="white" transform="translate(0.168213 0.624023)"/>
</clipPath>
</defs>
</svg>
