<svg width="101" height="101" viewBox="0 0 101 101" fill="none" xmlns="http://www.w3.org/2000/svg">
<path d="M26.2898 71.6367L23.6599 72.054V85.0107C23.9189 85.1128 24.1878 85.1877 24.4622 85.2344C24.7827 85.299 25.1039 85.3635 25.4244 85.3958C25.7772 85.4273 26.0969 85.4596 26.4497 85.4911C26.8032 85.5234 27.1237 85.5556 27.4442 85.5556C28.142 85.5718 28.8372 85.4632 29.4969 85.2352C30.0563 84.9998 30.5673 84.6629 31.004 84.2414C31.424 83.8031 31.7416 83.2771 31.934 82.7013C32.16 82.0522 32.2688 81.368 32.2552 80.6808C32.2514 80.0226 32.1761 79.3668 32.0308 78.7249C31.8924 78.1604 31.6293 77.6341 31.2607 77.1848C30.9139 76.7687 30.4746 76.4395 29.978 76.2233C29.434 75.9792 28.8426 75.8587 28.2465 75.8706C27.9019 75.8678 27.5579 75.8997 27.2198 75.9659C26.9 76.0277 26.5881 76.1249 26.2898 76.2556V71.6367ZM5.86063 71.6367L3.23145 72.0547V85.299H5.86063V81.258C6.18065 81.5133 6.47116 81.8036 6.72676 82.1234C7.04227 82.4649 7.33155 82.8297 7.59216 83.2147C7.87033 83.5735 8.12745 83.9481 8.36221 84.3368C8.58736 84.6888 8.81104 85.0115 9.00392 85.3312H12.0181C11.8267 84.9462 11.5693 84.5296 11.2804 84.0478C10.9892 83.5583 10.6684 83.087 10.3196 82.6368C9.96578 82.1804 9.60218 81.7317 9.22907 81.291C8.88886 80.8842 8.52444 80.4982 8.13779 80.1352C8.79646 79.4785 9.4379 78.8048 10.0615 78.1147C10.6702 77.4737 11.2804 76.7675 11.8898 76.0627H8.77951C8.61963 76.2548 8.39521 76.5101 8.17006 76.7668C7.94491 77.0234 7.68896 77.3131 7.43228 77.6336C7.16608 77.9337 6.89888 78.2329 6.63069 78.5313C6.3542 78.8085 6.10705 79.0857 5.86063 79.3622V71.6367ZM75.2617 73.3367L72.6325 73.754V81.5154C72.6314 82.0645 72.685 82.6124 72.7923 83.1509C72.8961 83.6188 73.1042 84.0573 73.401 84.4336C73.7074 84.7853 74.0923 85.0599 74.5246 85.2352C75.0998 85.4423 75.7087 85.5403 76.3199 85.5241C76.8044 85.5383 77.2888 85.4952 77.7632 85.3958C78.1265 85.3271 78.4813 85.2194 78.8215 85.0745L78.4365 83.0225C78.1653 83.1206 77.8864 83.1957 77.6026 83.2469C77.3155 83.2837 77.0266 83.305 76.7372 83.3108C76.1593 83.3108 75.7428 83.1509 75.5499 82.8296C75.3386 82.425 75.2392 81.9713 75.2617 81.5154V78.2445H78.4049V76.0634H75.2617V73.3367ZM93.7987 75.806C92.6766 75.806 91.7782 76.0627 91.1365 76.5761C90.8221 76.815 90.5704 77.1265 90.4028 77.484C90.2352 77.8415 90.1568 78.2344 90.1743 78.6288C90.1642 79.0224 90.2297 79.4142 90.3672 79.7832C90.4907 80.0949 90.6758 80.3785 90.9114 80.617C91.1576 80.8523 91.4395 81.0471 91.7467 81.1942C92.0664 81.3541 92.4515 81.5147 92.8688 81.6753C93.2825 81.8141 93.6801 81.9971 94.0547 82.2209C94.3113 82.3808 94.4397 82.5407 94.4397 82.7651C94.4498 82.8742 94.4279 82.9839 94.3767 83.0808C94.3255 83.1777 94.2473 83.2576 94.1515 83.3108C93.821 83.4208 93.4721 83.4645 93.1247 83.4391C92.683 83.446 92.2419 83.4029 91.8098 83.3108C91.3406 83.2058 90.8798 83.0666 90.431 82.8942L89.9822 85.043C90.3435 85.1976 90.7194 85.3156 91.1042 85.395C91.7745 85.5665 92.4655 85.6423 93.157 85.6202C94.4397 85.6202 95.4012 85.3958 96.0751 84.9147C96.4095 84.6831 96.6792 84.3702 96.8589 84.0053C97.0386 83.6405 97.1222 83.2358 97.1019 82.8296C97.1133 82.4828 97.07 82.1363 96.9735 81.8029C96.9008 81.4996 96.7455 81.2224 96.5247 81.0021C96.2917 80.7139 95.9956 80.483 95.6593 80.3273C95.1944 80.0781 94.7114 79.8641 94.2145 79.6871C93.9263 79.5587 93.7019 79.4949 93.5098 79.3989C93.3491 79.3021 93.1885 79.206 93.0925 79.1422C92.9917 79.0834 92.9129 78.9932 92.868 78.8855C92.8318 78.7929 92.8103 78.6951 92.8042 78.5958C92.8042 78.147 93.1885 77.9226 94.0231 77.9226C94.4224 77.9116 94.8214 77.955 95.209 78.0516C95.5625 78.147 95.883 78.2438 96.2035 78.3406L96.653 76.2871C96.2594 76.1368 95.8508 76.0294 95.4342 75.9666C94.895 75.8636 94.3476 75.8103 93.7987 75.806ZM38.2843 75.8383C37.7125 75.8319 37.1453 75.9409 36.6166 76.1588C36.0814 76.3573 35.5988 76.6756 35.2056 77.0894C34.7808 77.5357 34.4437 78.0579 34.2119 78.6288C33.9412 79.3122 33.8103 80.0428 33.8268 80.7776C33.8293 81.4275 33.9155 82.0743 34.0835 82.702C34.2798 83.2685 34.5844 83.7913 34.9804 84.2414C35.4233 84.6706 35.9464 85.0083 36.5198 85.2352C37.2143 85.5062 37.9556 85.6371 38.7009 85.6202C39.0221 85.6202 39.3742 85.5879 39.6954 85.5556C40.0075 85.5327 40.3179 85.4899 40.6246 85.4273C40.8978 85.4078 41.1674 85.3536 41.4269 85.266C41.6836 85.1706 41.8757 85.1068 42.0041 85.0423L41.6521 82.8935C41.279 83.0397 40.892 83.1473 40.497 83.2147C40.0324 83.3063 39.5595 83.3493 39.0859 83.343C38.4518 83.3734 37.8239 83.2053 37.2899 82.8619C37.0751 82.7177 36.8947 82.528 36.7616 82.3061C36.6285 82.0843 36.546 81.8359 36.5198 81.5785H42.4852C42.4852 81.4186 42.5174 81.2587 42.5174 81.0981C42.543 80.9283 42.5535 80.7565 42.549 80.5848C42.549 79.0446 42.1647 77.8588 41.3954 77.0572C40.9912 76.6473 40.5054 76.327 39.9694 76.1171C39.4335 75.9071 38.8594 75.8121 38.2843 75.8383ZM66.4104 75.8383C65.8386 75.8319 65.2714 75.9409 64.7427 76.1588C64.2075 76.3573 63.7248 76.6756 63.3317 77.0894C62.9066 77.5357 62.5692 78.0579 62.3372 78.6288C62.0666 79.3122 61.9356 80.0428 61.9522 80.7776C61.9546 81.4275 62.0409 82.0743 62.2089 82.702C62.4056 83.2686 62.7107 83.7915 63.1072 84.2414C63.5501 84.6706 64.0732 85.0083 64.6466 85.2352C65.3409 85.5061 66.0819 85.637 66.827 85.6202C67.1475 85.6202 67.5002 85.5879 67.8214 85.5556C68.1339 85.5328 68.4445 85.4899 68.7514 85.4273C69.0243 85.4077 69.2937 85.3535 69.553 85.266C69.8097 85.1706 70.0018 85.1068 70.1301 85.0423L69.7781 82.8935C69.4053 83.0396 69.0185 83.1473 68.6238 83.2147C68.1587 83.3064 67.6853 83.3494 67.2113 83.343C66.5774 83.3733 65.9498 83.2051 65.4159 82.8619C65.2012 82.7177 65.0208 82.528 64.8877 82.3061C64.7546 82.0843 64.672 81.8359 64.6459 81.5785H70.6113C70.6113 81.4186 70.6435 81.2587 70.6435 81.0981C70.669 80.9283 70.6796 80.7565 70.675 80.5848C70.675 79.0461 70.2908 77.8588 69.5214 77.0572C69.1173 76.6473 68.6314 76.327 68.0955 76.1171C67.5595 75.9071 66.9854 75.8121 66.4104 75.8383ZM84.2097 75.8383C83.6376 75.8318 83.0702 75.9408 82.5412 76.1588C82.006 76.3573 81.5234 76.6756 81.1302 77.0894C80.7054 77.5357 80.3683 78.0579 80.1365 78.6288C79.8658 79.3122 79.7349 80.0428 79.7514 80.7776C79.7383 81.4284 79.8249 82.0774 80.0081 82.702C80.2048 83.2686 80.51 83.7915 80.9065 84.2414C81.3492 84.6705 81.872 85.0082 82.4452 85.2352C83.1396 85.5062 83.8809 85.6371 84.6263 85.6202C84.9467 85.6202 85.2995 85.5879 85.6207 85.5556C85.9329 85.5327 86.2432 85.4899 86.5499 85.4273C86.8231 85.4078 87.0927 85.3536 87.3522 85.266C87.6089 85.1706 87.8011 85.1068 87.9294 85.0423L87.5767 82.8935C87.2038 83.0396 86.817 83.1473 86.4223 83.2147C85.9575 83.3064 85.4843 83.3494 85.0105 83.343C84.3766 83.3733 83.7491 83.2051 83.2152 82.8619C83.0004 82.7177 82.8201 82.528 82.687 82.3061C82.5539 82.0843 82.4713 81.8359 82.4452 81.5785H88.4105C88.4105 81.4186 88.4428 81.2587 88.4428 81.0981C88.4683 80.9283 88.4789 80.7565 88.4743 80.5848C88.4743 79.0461 88.09 77.8588 87.32 77.0572C86.9159 76.6474 86.4302 76.3272 85.8944 76.1172C85.3585 75.9072 84.7846 75.8122 84.2097 75.8383ZM48.3545 75.8713C47.6318 75.8595 46.9104 75.9346 46.2056 76.095C45.641 76.21 45.084 76.3599 44.5379 76.5438V85.3635H47.1678V78.2761C47.3372 78.2353 47.5086 78.2033 47.6812 78.18C47.8829 78.1479 48.086 78.1264 48.2899 78.1154C48.6346 78.1132 48.9785 78.1456 49.3167 78.2123C49.5988 78.2413 49.8778 78.295 50.1505 78.3729L50.5994 76.191C50.471 76.1595 50.2781 76.0957 50.086 76.0634C49.8827 76.0338 49.6798 76.0015 49.4773 75.9666C49.2759 75.9312 49.0722 75.9099 48.8678 75.9028C48.698 75.8773 48.5262 75.8667 48.3545 75.8713ZM55.9553 75.8713C54.6239 75.871 53.2982 76.0433 52.0111 76.3839L52.0104 85.3958H54.6088V78.2438C54.7986 78.2049 54.9915 78.1835 55.1852 78.18C55.3873 78.1541 55.591 78.1433 55.7947 78.1477C56.4041 78.1477 56.8207 78.3083 57.0451 78.6611C57.2702 79.0131 57.3663 79.6233 57.3663 80.4579V85.3642H59.9962V80.1352C60.0023 79.5526 59.9376 78.9714 59.8033 78.4044C59.6823 77.9168 59.4643 77.4586 59.1624 77.0572C58.8351 76.6565 58.4014 76.3563 57.9112 76.191C57.2877 75.9527 56.6222 75.8439 55.9553 75.8713ZM13.1725 76.0634V81.2265C13.1698 81.8089 13.2346 82.3897 13.3654 82.9573C13.4541 83.4607 13.6722 83.9324 13.9983 84.3261C14.3243 84.7198 14.7471 85.0219 15.2252 85.2029C15.8603 85.4402 16.536 85.5494 17.2134 85.5241C17.9546 85.5362 18.6953 85.4822 19.4268 85.3628C20.0116 85.2865 20.5902 85.1689 21.1583 85.0107L21.1906 76.0634H18.5607V83.2139C18.3685 83.2469 18.2079 83.2469 17.9835 83.2785C17.7817 83.3043 17.5782 83.3151 17.3748 83.3108C16.7646 83.3108 16.3476 83.1184 16.1236 82.7336C15.8992 82.3493 15.8031 81.7398 15.8031 80.906V76.0634H13.1725ZM38.3159 77.9548C38.5604 77.9416 38.8046 77.9872 39.0279 78.0878C39.2511 78.1883 39.4471 78.3409 39.5993 78.5327C39.7262 78.7079 39.8236 78.9026 39.8875 79.1092C39.9599 79.3051 40.0019 79.5108 40.0122 79.7194H36.5521C36.5905 79.5019 36.6441 79.2875 36.7127 79.0776C36.7805 78.866 36.8894 78.6699 37.0332 78.5005C37.1687 78.3305 37.3454 78.198 37.5466 78.1154C37.789 78.0088 38.051 77.9546 38.3159 77.9548ZM66.4412 77.9548C66.6859 77.9415 66.9302 77.987 67.1536 78.0876C67.377 78.1881 67.5731 78.3408 67.7254 78.5327C67.8523 78.7079 67.9496 78.9026 68.0136 79.1092C68.0859 79.3051 68.128 79.5108 68.1383 79.7194H64.6782C64.7165 79.5019 64.7702 79.2875 64.8388 79.0776C64.9065 78.866 65.0155 78.6699 65.1593 78.5005C65.2948 78.3305 65.4715 78.198 65.6726 78.1154C65.9151 78.0088 66.1771 77.9539 66.442 77.9541L66.4412 77.9548ZM84.2097 77.9548C84.4542 77.9416 84.6984 77.9872 84.9217 78.0878C85.145 78.1883 85.3409 78.3409 85.4931 78.5327C85.6198 78.7079 85.7169 78.9026 85.7806 79.1092C85.8529 79.3051 85.895 79.5108 85.9053 79.7194H82.4452C82.4838 79.5019 82.5377 79.2875 82.6065 79.0776C82.6741 78.8661 82.7827 78.6699 82.9263 78.5005C83.0618 78.3305 83.2385 78.198 83.4396 78.1154C83.6823 78.0087 83.9446 77.9545 84.2097 77.9548ZM27.7331 78.0839C28.9835 78.0839 29.5937 78.917 29.5937 80.617C29.6221 81.3104 29.4312 81.9951 29.0481 82.5737C28.8528 82.8167 28.6029 83.0102 28.3187 83.1384C28.0345 83.2667 27.7241 83.3259 27.4126 83.3115C27.1875 83.3115 26.9631 83.2785 26.7709 83.2785C26.578 83.2469 26.4182 83.2469 26.2898 83.2147V78.4359C26.4903 78.3201 26.7065 78.2337 26.9315 78.1792C27.1941 78.1162 27.4631 78.0842 27.7331 78.0839Z" fill="#191919"/>
<path d="M50.0214 15.6287C49.5382 15.653 49.0647 15.7727 48.6287 15.9808L29.6223 25.0623C29.1302 25.2972 28.6979 25.6391 28.3574 26.0625C28.0168 26.486 27.7769 26.9801 27.6554 27.5081L22.9669 47.9072C22.8586 48.3772 22.8465 48.8639 22.9313 49.3385C23.0161 49.8132 23.196 50.2662 23.4604 50.6706C23.5244 50.7692 23.5932 50.8647 23.6665 50.9567L36.822 67.3156C37.1625 67.7389 37.5948 68.0807 38.0868 68.3156C38.5788 68.5505 39.1178 68.6724 39.6638 68.6723L60.7611 68.6672C61.3069 68.6674 61.8457 68.5458 62.3375 68.3113C62.8293 68.0768 63.2616 67.7354 63.6023 67.3126L76.7534 50.9537C77.0941 50.5302 77.3343 50.036 77.4559 49.5078C77.5775 48.9796 77.5776 48.431 77.4559 47.9028L72.7593 27.5037C72.6378 26.9759 72.3979 26.482 72.0575 26.0587C71.7172 25.6354 71.285 25.2936 70.7931 25.0586L51.7838 15.9808C51.2353 15.7189 50.6293 15.5979 50.0214 15.6287Z" fill="#191919"/>
<path d="M50.2101 22.5708C49.5816 22.5708 49.0726 23.137 49.0726 23.8352L49.0748 23.8667C49.0741 23.962 49.0697 24.0757 49.0726 24.1586C49.0873 24.5612 49.1753 24.87 49.2281 25.2403C49.3234 26.0338 49.4041 26.6924 49.3542 27.3041C49.3066 27.5344 49.1364 27.7456 48.9853 27.8922L48.9582 28.3733C48.2661 28.4297 47.5789 28.535 46.9018 28.6887C44.056 29.3313 41.4673 30.8101 39.4682 32.935C39.33 32.84 39.1931 32.7432 39.0575 32.6446C38.8543 32.6717 38.649 32.7348 38.382 32.5786C37.8723 32.2361 37.4088 31.7631 36.8478 31.1925C36.5911 30.9204 36.4048 30.6615 36.0997 30.3982C36.0301 30.3388 35.9237 30.2581 35.8467 30.1965C35.6214 30.0149 35.3438 29.91 35.0547 29.8973C34.8826 29.8885 34.7109 29.9202 34.5533 29.9898C34.3957 30.0595 34.2567 30.1652 34.1475 30.2985C33.7558 30.7899 33.8813 31.5408 34.4262 31.9757L34.4438 31.9882C34.5186 32.0491 34.611 32.1268 34.6799 32.1774C35.0041 32.4172 35.2996 32.5397 35.623 32.7297C36.3029 33.1499 36.8676 33.4982 37.315 33.9177C37.4895 34.1048 37.5203 34.4326 37.543 34.5749L37.9075 34.9005C35.8957 37.9186 35.0691 41.5733 35.5864 45.1635L35.1097 45.3021C34.985 45.4634 34.8068 45.7194 34.6212 45.7949C34.036 45.9797 33.3774 46.0472 32.5824 46.1308C32.2084 46.1616 31.8857 46.1433 31.4904 46.2181C31.4031 46.235 31.2821 46.2665 31.1868 46.2885L31.1765 46.2907L31.1597 46.2958C30.4893 46.4572 30.0588 47.0732 30.1975 47.6819C30.3361 48.2884 30.991 48.6573 31.6657 48.5128L31.6826 48.5107L31.7046 48.5033C31.7984 48.4828 31.9165 48.4593 31.9979 48.4373C32.3873 48.3332 32.6697 48.1806 33.0195 48.0464C33.772 47.7751 34.3954 47.5506 35.0026 47.4626C35.2563 47.4428 35.5233 47.6189 35.6568 47.6937L36.1525 47.6086C37.2937 51.1464 39.6853 54.0059 42.7134 55.8005L42.5066 56.2963C42.5814 56.4892 42.6635 56.7495 42.6078 56.9394C42.3878 57.5115 42.0086 58.1165 41.5781 58.7905C41.3699 59.1015 41.1564 59.3428 40.968 59.6999C40.9232 59.7842 40.8653 59.9155 40.822 60.0057C40.5301 60.6313 40.7443 61.3515 41.306 61.6221C41.8708 61.8935 42.5726 61.6074 42.8762 60.9804L42.8792 60.9775V60.9753C42.9224 60.8858 42.9833 60.7699 43.02 60.6856C43.1813 60.3167 43.2349 59.9999 43.3478 59.6427C43.6485 58.8873 43.8142 58.0938 44.2286 57.5995C44.3423 57.4638 44.5271 57.4117 44.7192 57.3604L44.9766 56.894C47.7013 57.9433 50.6768 58.1572 53.5235 57.5086C54.1869 57.358 54.839 57.1615 55.4751 56.9204C55.5484 57.0487 55.6826 57.2959 55.7185 57.3582C55.9136 57.4213 56.1263 57.4536 56.2994 57.7102C56.6096 58.2397 56.8216 58.8668 57.0797 59.6236C57.1934 59.9808 57.2491 60.2969 57.4097 60.6665C57.4464 60.7501 57.508 60.8689 57.5513 60.9577C57.8542 61.5869 58.5582 61.8744 59.1244 61.6023C59.6854 61.331 59.9003 60.6108 59.6084 59.9859C59.5644 59.8957 59.5043 59.7645 59.4595 59.6794C59.2711 59.323 59.0576 59.0839 58.8494 58.7729C58.4189 58.0982 58.0617 57.5394 57.841 56.9666C57.7486 56.671 57.8556 56.4877 57.9282 56.2955C57.885 56.2464 57.7926 55.9677 57.7383 55.8364C60.862 53.9832 63.1961 51.0471 64.297 47.5858C64.4436 47.6093 64.7003 47.6548 64.7832 47.6709C64.9541 47.558 65.111 47.4113 65.4198 47.4355C66.027 47.5235 66.6504 47.7487 67.4036 48.0185C67.7534 48.1528 68.035 48.3082 68.4244 48.4124C68.5066 48.4344 68.6247 48.4549 68.7178 48.4754L68.7398 48.4828L68.7574 48.4857C69.4321 48.6309 70.087 48.2613 70.2256 47.6541C70.3643 47.0468 69.9338 46.4308 69.2627 46.268C69.1652 46.246 69.0273 46.2093 68.9327 46.191C68.5367 46.1161 68.214 46.1345 67.8407 46.1029C67.0457 46.0201 66.3871 45.9526 65.8019 45.7678C65.5628 45.6754 65.3926 45.3916 65.3105 45.2742L64.8507 45.1407C65.089 43.4173 65.0252 41.6242 64.613 39.8296C64.2101 38.0701 63.4875 36.3996 62.4811 34.9012C62.5984 34.7949 62.8214 34.5983 62.8845 34.5397C62.9028 34.3358 62.8874 34.1216 63.0986 33.8957C63.546 33.4755 64.1099 33.1272 64.7905 32.7077C65.1132 32.517 65.4117 32.3945 65.7359 32.1554C65.8092 32.1011 65.9089 32.0161 65.9859 31.9537C66.5316 31.5181 66.6577 30.7679 66.2654 30.2765C65.8737 29.7851 65.1147 29.7389 64.569 30.1738C64.4913 30.2354 64.3857 30.3161 64.316 30.3762C64.0109 30.6388 63.8225 30.8984 63.565 31.1712C63.004 31.7411 62.5405 32.2163 62.0315 32.5588C61.8108 32.6871 61.4874 32.6431 61.3407 32.6343L60.908 32.9423C58.4409 30.3557 55.082 28.7019 51.4649 28.3807C51.4543 28.2114 51.4452 28.0419 51.4378 27.8724C51.2896 27.7309 51.1107 27.6099 51.0659 27.3041C51.0161 26.6924 51.0989 26.0338 51.195 25.2403C51.2478 24.8692 51.3351 24.5612 51.3505 24.1586C51.3534 24.0669 51.3483 23.9342 51.3476 23.8352C51.3476 23.137 50.8386 22.5708 50.2101 22.5708ZM48.7858 31.3949L48.4478 37.3625L48.4236 37.3749C48.4126 37.6332 48.3022 37.8773 48.1156 38.0562C47.9289 38.2351 47.6803 38.335 47.4218 38.3349C47.2095 38.3353 47.0027 38.268 46.8314 38.1428L46.8218 38.1479L41.9287 34.679C43.4872 33.1486 45.4419 32.0836 47.5728 31.6039C47.9732 31.5131 48.3781 31.4433 48.7858 31.3949ZM51.6373 31.3949C54.2079 31.7129 56.6027 32.8674 58.4526 34.6805L53.591 38.1274L53.5741 38.12C53.3652 38.2723 53.1057 38.3383 52.8495 38.3041C52.5932 38.27 52.36 38.1384 52.1983 37.9367C52.0654 37.771 51.9888 37.5673 51.9797 37.3551L51.9746 37.3529L51.6373 31.3949ZM40.1539 36.9078L44.6217 40.9047L44.6166 40.9289C45.0199 41.2795 45.0793 41.8874 44.7434 42.3091C44.6107 42.4759 44.4283 42.5961 44.2227 42.6524L44.2183 42.6714L38.4906 44.3245C38.2056 41.7361 38.7909 39.1266 40.1539 36.9078ZM60.234 36.9107C60.9153 38.016 61.4108 39.2255 61.7008 40.4911C61.9963 41.7782 62.0704 43.0631 61.9487 44.3047L56.1923 42.6472L56.1872 42.623C55.9382 42.554 55.7254 42.3918 55.5929 42.17C55.4605 41.9482 55.4185 41.6839 55.4758 41.432C55.5224 41.2253 55.6336 41.0388 55.7933 40.8996L55.7911 40.8871L60.234 36.9107ZM49.2934 41.2127H51.1239L52.2614 42.6355L51.8536 44.4096L50.2101 45.1994L48.5622 44.4074L48.1537 42.6326L49.2934 41.2127ZM55.1619 46.0795C55.2393 46.0764 55.3168 46.082 55.3929 46.0963L55.4025 46.0846L61.326 47.0857C60.4516 49.5436 58.783 51.6401 56.5839 53.0437L54.284 47.489L54.2914 47.4795C54.2273 47.3307 54.2002 47.1687 54.2123 47.0071C54.2243 46.8456 54.2753 46.6894 54.3608 46.5518C54.4463 46.4142 54.5638 46.2993 54.7033 46.217C54.8428 46.1346 55.0001 46.0879 55.1619 46.0795ZM45.2121 46.1037C45.3767 46.1062 45.5383 46.1492 45.6824 46.2289C45.8265 46.3086 45.9488 46.4225 46.0384 46.5607C46.1281 46.6988 46.1824 46.8569 46.1965 47.021C46.2106 47.1851 46.184 47.3501 46.1193 47.5015L46.1361 47.5235L43.8612 53.0217C41.6768 51.6239 40.0148 49.5443 39.133 47.1055L45.006 46.1081L45.0155 46.1205C45.0803 46.1086 45.1462 46.103 45.2121 46.1037ZM50.1734 48.5128C50.3357 48.5071 50.4969 48.5414 50.6428 48.6126C50.8415 48.7079 50.9955 48.859 51.0923 49.0402H51.1143L54.0098 54.2714C53.6298 54.3986 53.2435 54.5064 52.8525 54.5941C50.7233 55.0823 48.5003 54.968 46.4324 54.2641L49.3205 49.0424H49.3256C49.4084 48.8878 49.5303 48.7576 49.679 48.6647C49.8277 48.5718 49.9982 48.5195 50.1734 48.5128Z" fill="#E4E4E4"/>
</svg>
