<svg width="101" height="101" viewBox="0 0 101 101" fill="none" xmlns="http://www.w3.org/2000/svg">
<path d="M26.2898 71.8914L23.6599 72.3087V85.2654C23.9189 85.3674 24.1878 85.4424 24.4622 85.4891C24.7827 85.5536 25.1039 85.6181 25.4244 85.6504C25.7772 85.6819 26.0969 85.7142 26.4497 85.7457C26.8032 85.778 27.1237 85.8103 27.4442 85.8103C28.142 85.8264 28.8372 85.7179 29.4969 85.4898C30.0563 85.2545 30.5673 84.9175 31.004 84.4961C31.424 84.0577 31.7416 83.5317 31.934 82.9559C32.16 82.3068 32.2688 81.6227 32.2552 80.9355C32.2514 80.2773 32.1761 79.6215 32.0308 78.9795C31.8924 78.415 31.6293 77.8888 31.2607 77.4394C30.9139 77.0234 30.4746 76.6941 29.978 76.4779C29.434 76.2338 28.8426 76.1134 28.2465 76.1252C27.9019 76.1224 27.5579 76.1544 27.2198 76.2205C26.9 76.2824 26.5881 76.3795 26.2898 76.5102V71.8914ZM5.86063 71.8914L3.23145 72.3094V85.5536H5.86063V81.5126C6.18065 81.768 6.47116 82.0582 6.72676 82.378C7.04227 82.7195 7.33155 83.0843 7.59216 83.4693C7.87033 83.8281 8.12745 84.2028 8.36221 84.5914C8.58736 84.9434 8.81104 85.2661 9.00392 85.5859H12.0181C11.8267 85.2008 11.5693 84.7843 11.2804 84.3024C10.9892 83.8129 10.6684 83.3417 10.3196 82.8914C9.96578 82.4351 9.60218 81.9864 9.22907 81.5456C8.88886 81.1388 8.52444 80.7528 8.13779 80.3898C8.79646 79.7332 9.4379 79.0594 10.0615 78.3694C10.6702 77.7284 11.2804 77.0221 11.8898 76.3173H8.77951C8.61963 76.5095 8.39521 76.7647 8.17006 77.0214C7.94491 77.2781 7.68896 77.5678 7.43228 77.8883C7.16608 78.1884 6.89888 78.4876 6.63069 78.7859C6.3542 79.0631 6.10705 79.3404 5.86063 79.6168V71.8914ZM75.2617 73.5913L72.6325 74.0086V81.7701C72.6314 82.3192 72.685 82.867 72.7923 83.4055C72.8961 83.8735 73.1042 84.3119 73.401 84.6882C73.7074 85.0399 74.0923 85.3145 74.5246 85.4898C75.0998 85.697 75.7087 85.795 76.3199 85.7787C76.8044 85.7929 77.2888 85.7498 77.7632 85.6504C78.1265 85.5818 78.4813 85.474 78.8215 85.3292L78.4365 83.2772C78.1653 83.3753 77.8864 83.4503 77.6026 83.5016C77.3155 83.5384 77.0266 83.5597 76.7372 83.5654C76.1593 83.5654 75.7428 83.4055 75.5499 83.0843C75.3386 82.6796 75.2392 82.226 75.2617 81.7701V78.4992H78.4049V76.3181H75.2617V73.5913ZM93.7987 76.0607C92.6766 76.0607 91.7782 76.3173 91.1365 76.8307C90.8221 77.0696 90.5704 77.3812 90.4028 77.7387C90.2352 78.0962 90.1568 78.489 90.1743 78.8835C90.1642 79.277 90.2297 79.6689 90.3672 80.0378C90.4907 80.3495 90.6758 80.6331 90.9114 80.8717C91.1576 81.1069 91.4395 81.3017 91.7467 81.4488C92.0664 81.6087 92.4515 81.7693 92.8688 81.9299C93.2825 82.0688 93.6801 82.2517 94.0547 82.4756C94.3113 82.6355 94.4397 82.7953 94.4397 83.0197C94.4498 83.1289 94.4279 83.2385 94.3767 83.3354C94.3255 83.4323 94.2473 83.5122 94.1515 83.5654C93.821 83.6755 93.4721 83.7191 93.1247 83.6937C92.683 83.7006 92.2419 83.6575 91.8098 83.5654C91.3406 83.4604 90.8798 83.3212 90.431 83.1488L89.9822 85.2976C90.3435 85.4523 90.7194 85.5702 91.1042 85.6497C91.7745 85.8212 92.4655 85.897 93.157 85.8748C94.4397 85.8748 95.4012 85.6504 96.0751 85.1693C96.4095 84.9378 96.6792 84.6248 96.8589 84.2599C97.0386 83.8951 97.1222 83.4905 97.1019 83.0843C97.1133 82.7374 97.07 82.3909 96.9735 82.0575C96.9008 81.7542 96.7455 81.477 96.5247 81.2567C96.2917 80.9685 95.9956 80.7377 95.6593 80.582C95.1944 80.3328 94.7114 80.1188 94.2145 79.9417C93.9263 79.8134 93.7019 79.7496 93.5098 79.6535C93.3491 79.5567 93.1885 79.4606 93.0925 79.3968C92.9917 79.338 92.9129 79.2479 92.868 79.1401C92.8318 79.0475 92.8103 78.9498 92.8042 78.8505C92.8042 78.4016 93.1885 78.1772 94.0231 78.1772C94.4224 78.1662 94.8214 78.2096 95.209 78.3063C95.5625 78.4016 95.883 78.4984 96.2035 78.5952L96.653 76.5418C96.2594 76.3915 95.8508 76.284 95.4342 76.2213C94.895 76.1182 94.3476 76.065 93.7987 76.0607ZM38.2843 76.0929C37.7125 76.0866 37.1453 76.1956 36.6166 76.4134C36.0814 76.6119 35.5988 76.9302 35.2056 77.3441C34.7808 77.7904 34.4437 78.3126 34.2119 78.8835C33.9412 79.5668 33.8103 80.2975 33.8268 81.0323C33.8293 81.6821 33.9155 82.3289 34.0835 82.9567C34.2798 83.5231 34.5844 84.046 34.9804 84.4961C35.4233 84.9252 35.9464 85.2629 36.5198 85.4898C37.2143 85.7608 37.9556 85.8917 38.7009 85.8748C39.0221 85.8748 39.3742 85.8425 39.6954 85.8103C40.0075 85.7874 40.3179 85.7445 40.6246 85.6819C40.8978 85.6624 41.1674 85.6082 41.4269 85.5206C41.6836 85.4253 41.8757 85.3614 42.0041 85.2969L41.6521 83.1481C41.279 83.2943 40.892 83.402 40.497 83.4693C40.0324 83.561 39.5595 83.604 39.0859 83.5977C38.4518 83.6281 37.8239 83.4599 37.2899 83.1166C37.0751 82.9724 36.8947 82.7826 36.7616 82.5608C36.6285 82.3389 36.546 82.0905 36.5198 81.8331H42.4852C42.4852 81.6733 42.5174 81.5134 42.5174 81.3528C42.543 81.1829 42.5535 81.0111 42.549 80.8394C42.549 79.2993 42.1647 78.1134 41.3954 77.3118C40.9912 76.902 40.5054 76.5817 39.9694 76.3717C39.4335 76.1617 38.8594 76.0667 38.2843 76.0929ZM66.4104 76.0929C65.8386 76.0866 65.2714 76.1956 64.7427 76.4134C64.2075 76.6119 63.7248 76.9302 63.3317 77.3441C62.9066 77.7903 62.5692 78.3125 62.3372 78.8835C62.0666 79.5668 61.9356 80.2975 61.9522 81.0323C61.9546 81.6821 62.0409 82.3289 62.2089 82.9567C62.4056 83.5232 62.7107 84.0461 63.1072 84.4961C63.5501 84.9252 64.0732 85.2629 64.6466 85.4898C65.3409 85.7608 66.0819 85.8916 66.827 85.8748C67.1475 85.8748 67.5002 85.8425 67.8214 85.8103C68.1339 85.7874 68.4445 85.7445 68.7514 85.6819C69.0243 85.6624 69.2937 85.6081 69.553 85.5206C69.8097 85.4253 70.0018 85.3614 70.1301 85.2969L69.7781 83.1481C69.4053 83.2943 69.0185 83.4019 68.6238 83.4693C68.1587 83.5611 67.6853 83.6041 67.2113 83.5977C66.5774 83.6279 65.9498 83.4598 65.4159 83.1166C65.2012 82.9724 65.0208 82.7826 64.8877 82.5608C64.7546 82.3389 64.672 82.0905 64.6459 81.8331H70.6113C70.6113 81.6733 70.6435 81.5134 70.6435 81.3528C70.669 81.1829 70.6796 81.0111 70.675 80.8394C70.675 79.3007 70.2908 78.1134 69.5214 77.3118C69.1173 76.902 68.6314 76.5817 68.0955 76.3717C67.5595 76.1617 66.9854 76.0667 66.4104 76.0929ZM84.2097 76.0929C83.6376 76.0865 83.0702 76.1955 82.5412 76.4134C82.006 76.6119 81.5234 76.9302 81.1302 77.3441C80.7054 77.7904 80.3683 78.3126 80.1365 78.8835C79.8658 79.5668 79.7349 80.2975 79.7514 81.0323C79.7383 81.6831 79.8249 82.3321 80.0081 82.9567C80.2048 83.5232 80.51 84.0461 80.9065 84.4961C81.3492 84.9251 81.872 85.2628 82.4452 85.4898C83.1396 85.7608 83.8809 85.8917 84.6263 85.8748C84.9467 85.8748 85.2995 85.8425 85.6207 85.8103C85.9329 85.7874 86.2432 85.7445 86.5499 85.6819C86.8231 85.6624 87.0927 85.6082 87.3522 85.5206C87.6089 85.4253 87.8011 85.3614 87.9294 85.2969L87.5767 83.1481C87.2038 83.2943 86.817 83.4019 86.4223 83.4693C85.9575 83.561 85.4843 83.604 85.0105 83.5977C84.3766 83.6279 83.7491 83.4598 83.2152 83.1166C83.0004 82.9724 82.8201 82.7826 82.687 82.5608C82.5539 82.3389 82.4713 82.0905 82.4452 81.8331H88.4105C88.4105 81.6733 88.4428 81.5134 88.4428 81.3528C88.4683 81.1829 88.4789 81.0111 88.4743 80.8394C88.4743 79.3007 88.09 78.1134 87.32 77.3118C86.9159 76.9021 86.4302 76.5818 85.8944 76.3718C85.3585 76.1619 84.7846 76.0668 84.2097 76.0929ZM48.3545 76.1259C47.6318 76.1141 46.9104 76.1892 46.2056 76.3496C45.641 76.4646 45.084 76.6145 44.5379 76.7984V85.6181H47.1678V78.5307C47.3372 78.49 47.5086 78.4579 47.6812 78.4346C47.8829 78.4025 48.086 78.381 48.2899 78.3701C48.6346 78.3678 48.9785 78.4002 49.3167 78.4669C49.5988 78.4959 49.8778 78.5496 50.1505 78.6275L50.5994 76.4457C50.471 76.4141 50.2781 76.3503 50.086 76.3181C49.8827 76.2884 49.6798 76.2561 49.4773 76.2213C49.2759 76.1859 49.0722 76.1645 48.8678 76.1575C48.698 76.1319 48.5262 76.1214 48.3545 76.1259ZM55.9553 76.1259C54.6239 76.1256 53.2982 76.2979 52.0111 76.6386L52.0104 85.6504H54.6088V78.4984C54.7986 78.4595 54.9915 78.4381 55.1852 78.4346C55.3873 78.4088 55.591 78.398 55.7947 78.4024C56.4041 78.4024 56.8207 78.563 57.0451 78.9157C57.2702 79.2678 57.3663 79.8779 57.3663 80.7125V85.6189H59.9962V80.3898C60.0023 79.8072 59.9376 79.226 59.8033 78.659C59.6823 78.1715 59.4643 77.7133 59.1624 77.3118C58.8351 76.9112 58.4014 76.611 57.9112 76.4457C57.2877 76.2074 56.6222 76.0986 55.9553 76.1259ZM13.1725 76.3181V81.4811C13.1698 82.0635 13.2346 82.6443 13.3654 83.2119C13.4541 83.7153 13.6722 84.187 13.9983 84.5807C14.3243 84.9744 14.7471 85.2766 15.2252 85.4575C15.8603 85.6948 16.536 85.804 17.2134 85.7787C17.9546 85.7909 18.6953 85.7369 19.4268 85.6174C20.0116 85.5412 20.5902 85.4235 21.1583 85.2654L21.1906 76.3181H18.5607V83.4686C18.3685 83.5016 18.2079 83.5016 17.9835 83.5331C17.7817 83.5589 17.5782 83.5697 17.3748 83.5654C16.7646 83.5654 16.3476 83.373 16.1236 82.9882C15.8992 82.6039 15.8031 81.9945 15.8031 81.1606V76.3181H13.1725ZM38.3159 78.2095C38.5604 78.1963 38.8046 78.2419 39.0279 78.3424C39.2511 78.4429 39.4471 78.5955 39.5993 78.7874C39.7262 78.9625 39.8236 79.1572 39.8875 79.3638C39.9599 79.5597 40.0019 79.7654 40.0122 79.974H36.5521C36.5905 79.7566 36.6441 79.5421 36.7127 79.3323C36.7805 79.1207 36.8894 78.9245 37.0332 78.7551C37.1687 78.5851 37.3454 78.4526 37.5466 78.3701C37.789 78.2635 38.051 78.2092 38.3159 78.2095ZM66.4412 78.2095C66.6859 78.1961 66.9302 78.2417 67.1536 78.3422C67.377 78.4428 67.5731 78.5954 67.7254 78.7874C67.8523 78.9625 67.9496 79.1572 68.0136 79.3638C68.0859 79.5597 68.128 79.7654 68.1383 79.974H64.6782C64.7165 79.7566 64.7702 79.5421 64.8388 79.3323C64.9065 79.1207 65.0155 78.9245 65.1593 78.7551C65.2948 78.5851 65.4715 78.4526 65.6726 78.3701C65.9151 78.2635 66.1771 78.2085 66.442 78.2087L66.4412 78.2095ZM84.2097 78.2095C84.4542 78.1963 84.6984 78.2419 84.9217 78.3424C85.145 78.4429 85.3409 78.5955 85.4931 78.7874C85.6198 78.9625 85.7169 79.1573 85.7806 79.3638C85.8529 79.5597 85.895 79.7654 85.9053 79.974H82.4452C82.4838 79.7566 82.5377 79.5421 82.6065 79.3323C82.6741 79.1207 82.7827 78.9246 82.9263 78.7551C83.0618 78.5851 83.2385 78.4526 83.4396 78.3701C83.6823 78.2634 83.9446 78.2091 84.2097 78.2095ZM27.7331 78.3386C28.9835 78.3386 29.5937 79.1717 29.5937 80.8717C29.6221 81.565 29.4312 82.2497 29.0481 82.8283C28.8528 83.0714 28.6029 83.2649 28.3187 83.3931C28.0345 83.5213 27.7241 83.5806 27.4126 83.5661C27.1875 83.5661 26.9631 83.5331 26.7709 83.5331C26.578 83.5016 26.4182 83.5016 26.2898 83.4693V78.6906C26.4903 78.5748 26.7065 78.4883 26.9315 78.4339C27.1941 78.3708 27.4631 78.3388 27.7331 78.3386Z" fill="#E4E4E4"/>
<path d="M50.0214 15.8834C49.5382 15.9076 49.0647 16.0273 48.6287 16.2354L29.6223 25.3169C29.1302 25.5519 28.6979 25.8937 28.3574 26.3172C28.0168 26.7406 27.7769 27.2347 27.6554 27.7628L22.9669 48.1619C22.8586 48.6318 22.8465 49.1185 22.9313 49.5932C23.0161 50.0678 23.196 50.5208 23.4604 50.9253C23.5244 51.0239 23.5932 51.1193 23.6665 51.2113L36.822 67.5702C37.1625 67.9935 37.5948 68.3353 38.0868 68.5702C38.5788 68.8051 39.1178 68.927 39.6638 68.927L60.7611 68.9218C61.3069 68.922 61.8457 68.8004 62.3375 68.5659C62.8293 68.3314 63.2616 67.9901 63.6023 67.5673L76.7534 51.2084C77.0941 50.7849 77.3343 50.2907 77.4559 49.7625C77.5775 49.2343 77.5776 48.6857 77.4559 48.1575L72.7593 27.7584C72.6378 27.2305 72.3979 26.7366 72.0575 26.3133C71.7172 25.89 71.285 25.5482 70.7931 25.3132L51.7838 16.2354C51.2353 15.9736 50.6293 15.8525 50.0214 15.8834Z" fill="#E4E4E4"/>
<path d="M50.2101 22.8252C49.5816 22.8252 49.0726 23.3914 49.0726 24.0896L49.0748 24.1211C49.0741 24.2164 49.0697 24.3301 49.0726 24.413C49.0873 24.8156 49.1753 25.1244 49.2281 25.4947C49.3234 26.2882 49.4041 26.9468 49.3542 27.5585C49.3066 27.7887 49.1364 28 48.9853 28.1466L48.9582 28.6277C48.2661 28.6841 47.5789 28.7894 46.9018 28.9431C44.056 29.5857 41.4673 31.0645 39.4682 33.1894C39.33 33.0944 39.1931 32.9976 39.0575 32.899C38.8543 32.9261 38.649 32.9892 38.382 32.833C37.8723 32.4905 37.4088 32.0175 36.8478 31.4469C36.5911 31.1748 36.4048 30.9159 36.0997 30.6526C36.0301 30.5932 35.9237 30.5125 35.8467 30.4509C35.6214 30.2693 35.3438 30.1644 35.0547 30.1517C34.8826 30.1429 34.7109 30.1746 34.5533 30.2442C34.3957 30.3139 34.2567 30.4196 34.1475 30.5529C33.7558 31.0442 33.8813 31.7952 34.4262 32.2301L34.4438 32.2426C34.5186 32.3035 34.611 32.3812 34.6799 32.4318C35.0041 32.6716 35.2996 32.7941 35.623 32.9841C36.3029 33.4043 36.8676 33.7526 37.315 34.1721C37.4895 34.3592 37.5203 34.687 37.543 34.8293L37.9075 35.1549C35.8957 38.173 35.0691 41.8277 35.5864 45.4179L35.1097 45.5565C34.985 45.7178 34.8068 45.9738 34.6212 46.0493C34.036 46.2341 33.3774 46.3016 32.5824 46.3852C32.2084 46.416 31.8857 46.3977 31.4904 46.4725C31.4031 46.4893 31.2821 46.5209 31.1868 46.5429L31.1765 46.5451L31.1597 46.5502C30.4893 46.7116 30.0588 47.3276 30.1975 47.9363C30.3361 48.5428 30.991 48.9117 31.6657 48.7672L31.6826 48.765L31.7046 48.7577C31.7984 48.7372 31.9165 48.7137 31.9979 48.6917C32.3873 48.5876 32.6697 48.435 33.0195 48.3008C33.772 48.0295 34.3954 47.805 35.0026 47.717C35.2563 47.6972 35.5233 47.8732 35.6568 47.9481L36.1525 47.863C37.2937 51.4008 39.6853 54.2603 42.7134 56.0549L42.5066 56.5507C42.5814 56.7435 42.6635 57.0039 42.6078 57.1938C42.3878 57.7659 42.0086 58.3709 41.5781 59.0449C41.3699 59.3559 41.1564 59.5971 40.968 59.9543C40.9232 60.0386 40.8653 60.1699 40.822 60.2601C40.5301 60.8857 40.7443 61.6059 41.306 61.8765C41.8708 62.1479 42.5726 61.8618 42.8762 61.2348L42.8792 61.2319V61.2297C42.9224 61.1402 42.9833 61.0243 43.02 60.94C43.1813 60.5711 43.2349 60.2543 43.3478 59.8971C43.6485 59.1417 43.8142 58.3482 44.2286 57.8539C44.3423 57.7182 44.5271 57.6661 44.7192 57.6148L44.9766 57.1484C47.7013 58.1977 50.6768 58.4116 53.5235 57.763C54.1869 57.6124 54.839 57.4158 55.4751 57.1748C55.5484 57.3031 55.6826 57.5503 55.7185 57.6126C55.9136 57.6757 56.1263 57.7079 56.2994 57.9646C56.6096 58.4941 56.8216 59.1212 57.0797 59.878C57.1934 60.2352 57.2491 60.5513 57.4097 60.9209C57.4464 61.0045 57.508 61.1233 57.5513 61.2121C57.8542 61.8413 58.5582 62.1288 59.1244 61.8567C59.6854 61.5854 59.9003 60.8652 59.6084 60.2403C59.5644 60.1501 59.5043 60.0188 59.4595 59.9338C59.2711 59.5773 59.0576 59.3383 58.8494 59.0273C58.4189 58.3526 58.0617 57.7938 57.841 57.221C57.7486 56.9254 57.8556 56.7421 57.9282 56.5499C57.885 56.5008 57.7926 56.2221 57.7383 56.0908C60.862 54.2376 63.1961 51.3015 64.297 47.8402C64.4436 47.8637 64.7003 47.9092 64.7832 47.9253C64.9541 47.8124 65.111 47.6657 65.4198 47.6899C66.027 47.7779 66.6504 48.0031 67.4036 48.2729C67.7534 48.4071 68.035 48.5626 68.4244 48.6668C68.5066 48.6888 68.6247 48.7093 68.7178 48.7298L68.7398 48.7372L68.7574 48.7401C69.4321 48.8853 70.087 48.5157 70.2256 47.9085C70.3643 47.3012 69.9338 46.6852 69.2627 46.5224C69.1652 46.5004 69.0273 46.4637 68.9327 46.4453C68.5367 46.3705 68.214 46.3889 67.8407 46.3573C67.0457 46.2745 66.3871 46.207 65.8019 46.0222C65.5628 45.9298 65.3926 45.646 65.3105 45.5286L64.8507 45.3951C65.089 43.6717 65.0252 41.8786 64.613 40.084C64.2101 38.3245 63.4875 36.654 62.4811 35.1556C62.5984 35.0493 62.8214 34.8527 62.8845 34.794C62.9028 34.5902 62.8874 34.376 63.0986 34.1501C63.546 33.7299 64.1099 33.3815 64.7905 32.9621C65.1132 32.7714 65.4117 32.6489 65.7359 32.4098C65.8092 32.3555 65.9089 32.2705 65.9859 32.2081C66.5316 31.7725 66.6577 31.0222 66.2654 30.5309C65.8737 30.0395 65.1147 29.9933 64.569 30.4282C64.4913 30.4898 64.3857 30.5705 64.316 30.6306C64.0109 30.8932 63.8225 31.1528 63.565 31.4256C63.004 31.9954 62.5405 32.4707 62.0315 32.8132C61.8108 32.9415 61.4874 32.8975 61.3407 32.8887L60.908 33.1967C58.4409 30.6101 55.082 28.9563 51.4649 28.6351C51.4543 28.4658 51.4452 28.2963 51.4378 28.1268C51.2896 27.9853 51.1107 27.8643 51.0659 27.5585C51.0161 26.9468 51.0989 26.2882 51.195 25.4947C51.2478 25.1236 51.3351 24.8156 51.3505 24.413C51.3534 24.3213 51.3483 24.1886 51.3476 24.0896C51.3476 23.3914 50.8386 22.8252 50.2101 22.8252ZM48.7858 31.6493L48.4478 37.6168L48.4236 37.6293C48.4126 37.8876 48.3022 38.1317 48.1156 38.3106C47.9289 38.4895 47.6803 38.5894 47.4218 38.5893C47.2095 38.5897 47.0027 38.5224 46.8314 38.3972L46.8218 38.4023L41.9287 34.9334C43.4872 33.403 45.4419 32.338 47.5728 31.8583C47.9732 31.7675 48.3781 31.6977 48.7858 31.6493ZM51.6373 31.6493C54.2079 31.9673 56.6027 33.1218 58.4526 34.9349L53.591 38.3818L53.5741 38.3744C53.3652 38.5267 53.1057 38.5927 52.8495 38.5585C52.5932 38.5244 52.36 38.3928 52.1983 38.1911C52.0654 38.0254 51.9888 37.8217 51.9797 37.6095L51.9746 37.6073L51.6373 31.6493ZM40.1539 37.1622L44.6217 41.1591L44.6166 41.1833C45.0199 41.5339 45.0793 42.1418 44.7434 42.5635C44.6107 42.7303 44.4283 42.8505 44.2227 42.9068L44.2183 42.9258L38.4906 44.5789C38.2056 41.9905 38.7909 39.3809 40.1539 37.1622ZM60.234 37.1651C60.9153 38.2704 61.4108 39.4799 61.7008 40.7455C61.9963 42.0326 62.0704 43.3175 61.9487 44.5591L56.1923 42.9016L56.1872 42.8774C55.9382 42.8084 55.7254 42.6462 55.5929 42.4244C55.4605 42.2026 55.4185 41.9383 55.4758 41.6864C55.5224 41.4797 55.6336 41.2932 55.7933 41.154L55.7911 41.1415L60.234 37.1651ZM49.2934 41.4671H51.1239L52.2614 42.8899L51.8536 44.664L50.2101 45.4538L48.5622 44.6618L48.1537 42.887L49.2934 41.4671ZM55.1619 46.3339C55.2393 46.3308 55.3168 46.3364 55.3929 46.3507L55.4025 46.339L61.326 47.3401C60.4516 49.798 58.783 51.8945 56.5839 53.2981L54.284 47.7434L54.2914 47.7339C54.2273 47.5851 54.2002 47.4231 54.2123 47.2615C54.2243 47.1 54.2753 46.9438 54.3608 46.8062C54.4463 46.6686 54.5638 46.5537 54.7033 46.4714C54.8428 46.389 55.0001 46.3423 55.1619 46.3339ZM45.2121 46.3581C45.3767 46.3606 45.5383 46.4036 45.6824 46.4833C45.8265 46.563 45.9488 46.6769 46.0384 46.815C46.1281 46.9532 46.1824 47.1113 46.1965 47.2754C46.2106 47.4395 46.184 47.6045 46.1193 47.7559L46.1361 47.7779L43.8612 53.2761C41.6768 51.8783 40.0148 49.7987 39.133 47.3599L45.006 46.3625L45.0155 46.3749C45.0803 46.363 45.1462 46.3574 45.2121 46.3581ZM50.1734 48.7672C50.3357 48.7615 50.4969 48.7958 50.6428 48.867C50.8415 48.9623 50.9955 49.1134 51.0923 49.2945H51.1143L54.0098 54.5258C53.6298 54.653 53.2435 54.7607 52.8525 54.8485C50.7233 55.3367 48.5003 55.2224 46.4324 54.5184L49.3205 49.2967H49.3256C49.4084 49.1422 49.5303 49.012 49.679 48.9191C49.8277 48.8262 49.9982 48.7738 50.1734 48.7672Z" fill="#191919"/>
</svg>
