<svg width="101" height="101" viewBox="0 0 101 101" fill="none" xmlns="http://www.w3.org/2000/svg">
<g clip-path="url(#clip0_2377_7540)">
<g clip-path="url(#clip1_2377_7540)">
<path d="M0.168213 61.2314V46.2994H3.41829V48.1913C4.23827 46.6583 6.02397 45.8596 7.63233 45.8596C9.50583 45.8596 11.144 46.7503 11.9061 48.4986C13.0211 46.535 14.6891 45.8596 16.5327 45.8596C19.1103 45.8596 21.5685 47.5784 21.5685 51.5368V61.2314H18.2903V52.1184C18.2903 50.3701 17.4405 49.0506 15.5372 49.0506C13.7514 49.0506 12.5803 50.5228 12.5803 52.3631V61.2295H9.24419V52.1184C9.24419 50.4014 8.42071 49.0598 6.48927 49.0598C4.67548 49.0598 3.53242 50.4713 3.53242 52.3723V61.2387L0.168213 61.2314Z" fill="#191919"/>
<path d="M25.7229 61.2315V39.0176H29.1204V61.2315H25.7229Z" fill="#191919"/>
<path d="M27.7561 69.3616C28.5199 69.5843 29.2065 69.7296 30.6638 69.7296C33.3731 69.7296 36.5687 68.1286 37.4098 63.6346L40.8828 45.6166H46.0467L46.6771 42.6188H41.4605L42.1628 39.0376C42.7001 36.257 44.168 34.8474 46.5244 34.8474C47.1372 34.8474 46.9651 34.9026 47.5112 35.0111L48.2662 31.9416C47.5392 31.7134 46.8878 31.5772 45.4691 31.5772C43.9713 31.5536 42.5089 32.0556 41.3147 33.0034C39.9926 34.0745 39.12 35.6479 38.7214 37.6795L37.7434 42.6188H33.1255L32.7479 45.6185H37.1727L33.9841 62.2784C33.6329 64.1683 32.6075 66.4282 29.6647 66.4282C28.9975 66.4282 29.2398 66.3748 28.6358 66.2718L27.7561 69.3616Z" fill="#191919"/>
<path d="M49.1055 61.1099H45.7097L50.3645 38.6973H53.7603L49.1055 61.1099Z" fill="#191919"/>
<path d="M66.046 47.2363C63.0822 45.0627 59.047 45.4901 56.5581 48.2411C54.0691 50.992 53.8761 55.238 56.1043 58.2244L58.329 56.513C57.2247 55.0772 57.0005 53.1064 57.7516 51.4387C58.5027 49.771 60.0971 48.6998 61.8565 48.6809V50.5027L66.046 47.2363Z" fill="#191919"/>
<path d="M57.6158 59.7316C60.5796 61.9051 64.6148 61.4777 67.1037 58.7268C69.5927 55.9758 69.7857 51.7299 67.5575 48.7434L65.3328 50.4549C66.4371 51.8906 66.6613 53.8615 65.9102 55.5292C65.1591 57.1969 63.5647 58.268 61.8053 58.287V56.4651L57.6158 59.7316Z" fill="#191919"/>
<path d="M71.8121 46.2903H75.5222L76.2772 56.4946L81.5606 46.2903L85.0828 46.3436L86.4664 56.4946L91.1211 46.2903L94.5168 46.3436L87.4725 61.2407H84.0767L82.4402 50.5615L77.0322 61.2407H73.51L71.8121 46.2903Z" fill="#191919"/>
<path d="M96.5646 46.5553H95.8618V46.2996H97.5545V46.5608H96.8526V48.7176H96.5646V46.5553Z" fill="#191919"/>
<path d="M97.9792 46.2996H98.3306L98.7728 47.5877C98.8297 47.7533 98.882 47.9226 98.9361 48.092H98.9526C99.0068 47.9226 99.0563 47.7533 99.1104 47.5877L99.549 46.2996H99.9004V48.7176H99.627V47.3835C99.627 47.1719 99.649 46.8811 99.6637 46.6657H99.649L99.4737 47.2178L99.038 48.4711H98.8471L98.4059 47.2197L98.2306 46.6676H98.2169C98.2325 46.8829 98.2554 47.1737 98.2554 47.3853V48.7195H97.9884L97.9792 46.2996Z" fill="#191919"/>
</g>
</g>
<defs>
<clipPath id="clip0_2377_7540">
<rect width="100" height="100" fill="white" transform="translate(0.168213 0.624023)"/>
</clipPath>
<clipPath id="clip1_2377_7540">
<rect width="100" height="38.4615" fill="white" transform="translate(0.168213 31.3933)"/>
</clipPath>
</defs>
</svg>
