<svg width="101" height="101" viewBox="0 0 101 101" fill="none" xmlns="http://www.w3.org/2000/svg">
<g clip-path="url(#clip0_2377_7551)">
<g clip-path="url(#clip1_2377_7551)">
<path d="M0.168213 61.486V46.5541H3.41829V48.4459C4.23827 46.9129 6.02397 46.1143 7.63233 46.1143C9.50583 46.1143 11.144 47.0049 11.9061 48.7532C13.0211 46.7896 14.6891 46.1143 16.5327 46.1143C19.1103 46.1143 21.5685 47.833 21.5685 51.7915V61.486H18.2903V52.373C18.2903 50.6247 17.4405 49.3052 15.5372 49.3052C13.7514 49.3052 12.5803 50.7774 12.5803 52.6177V61.4842H9.24419V52.373C9.24419 50.656 8.42071 49.3144 6.48927 49.3144C4.67548 49.3144 3.53242 50.726 3.53242 52.6269V61.4933L0.168213 61.486Z" fill="#E4E4E4"/>
<path d="M25.7229 61.4861V39.2722H29.1204V61.4861H25.7229Z" fill="#E4E4E4"/>
<path d="M27.7561 69.6162C28.5199 69.8389 29.2065 69.9843 30.6638 69.9843C33.3731 69.9843 36.5687 68.3832 37.4098 63.8893L40.8828 45.8712H46.0467L46.6771 42.8734H41.4605L42.1628 39.2923C42.7001 36.5117 44.168 35.102 46.5244 35.102C47.1372 35.102 46.9651 35.1572 47.5112 35.2658L48.2662 32.1962C47.5392 31.968 46.8878 31.8319 45.4691 31.8319C43.9713 31.8082 42.5089 32.3103 41.3147 33.2581C39.9926 34.3291 39.12 35.9025 38.7214 37.9342L37.7434 42.8734H33.1255L32.7479 45.8731H37.1727L33.9841 62.533C33.6329 64.4229 32.6075 66.6828 29.6647 66.6828C28.9975 66.6828 29.2398 66.6295 28.6358 66.5264L27.7561 69.6162Z" fill="#E4E4E4"/>
<path d="M49.1055 61.3645H45.7097L50.3645 38.9519H53.7603L49.1055 61.3645Z" fill="#E4E4E4"/>
<path d="M66.046 47.4909C63.0822 45.3173 59.047 45.7447 56.5581 48.4957C54.0691 51.2467 53.8761 55.4926 56.1043 58.4791L58.329 56.7676C57.2247 55.3319 57.0005 53.361 57.7516 51.6933C58.5027 50.0256 60.0971 48.9545 61.8565 48.9355V50.7573L66.046 47.4909Z" fill="#E4E4E4"/>
<path d="M57.6158 59.9862C60.5796 62.1598 64.6148 61.7324 67.1037 58.9814C69.5927 56.2305 69.7857 51.9845 67.5575 48.998L65.3328 50.7095C66.4371 52.1453 66.6613 54.1161 65.9102 55.7838C65.1591 57.4515 63.5647 58.5227 61.8053 58.5416V56.7198L57.6158 59.9862Z" fill="#E4E4E4"/>
<path d="M71.8121 46.5449H75.5222L76.2772 56.7493L81.5606 46.5449L85.0828 46.5983L86.4664 56.7493L91.1211 46.5449L94.5168 46.5983L87.4725 61.4953H84.0767L82.4402 50.8162L77.0322 61.4953H73.51L71.8121 46.5449Z" fill="#E4E4E4"/>
<path d="M96.5646 46.81H95.8618V46.5542H97.5545V46.8154H96.8526V48.9723H96.5646V46.81Z" fill="#E4E4E4"/>
<path d="M97.9792 46.5542H98.3306L98.7728 47.8424C98.8297 48.0079 98.882 48.1773 98.9361 48.3466H98.9526C99.0068 48.1773 99.0563 48.0079 99.1104 47.8424L99.549 46.5542H99.9004V48.9723H99.627V47.6381C99.627 47.4265 99.649 47.1357 99.6637 46.9204H99.649L99.4737 47.4725L99.038 48.7257H98.8471L98.4059 47.4743L98.2306 46.9223H98.2169C98.2325 47.1376 98.2554 47.4283 98.2554 47.64V48.9741H97.9884L97.9792 46.5542Z" fill="#E4E4E4"/>
</g>
</g>
<defs>
<clipPath id="clip0_2377_7551">
<rect width="100" height="100" fill="white" transform="translate(0.168213 0.878662)"/>
</clipPath>
<clipPath id="clip1_2377_7551">
<rect width="100" height="38.4615" fill="white" transform="translate(0.168213 31.6479)"/>
</clipPath>
</defs>
</svg>
