<svg width="101" height="100" viewBox="0 0 101 100" fill="none" xmlns="http://www.w3.org/2000/svg">
<g clip-path="url(#clip0_2377_7605)">
<path d="M2.14925 43.0278C2.54339 43.3986 2.84769 43.8375 3.16454 44.2738C3.4329 44.6389 3.70955 44.9977 3.98468 45.3576C4.11136 45.5237 4.23803 45.6898 4.36469 45.8559C4.42865 45.9398 4.49261 46.0236 4.55851 46.11C4.81002 46.4398 5.06129 46.7697 5.31256 47.0997C5.8069 47.7488 6.30167 48.3975 6.79747 49.0455C6.94251 49.2352 7.08755 49.4249 7.23258 49.6146C7.34177 49.7573 7.45101 49.9 7.56029 50.0427C8.42452 51.1713 9.27719 52.3075 10.116 53.4551C10.6449 52.8367 11.1244 52.1965 11.5895 51.5296C11.9376 51.0312 12.2942 50.5399 12.656 50.0513C13.0707 49.4913 13.4821 48.9293 13.8891 48.3636C14.4501 47.5845 15.019 46.8114 15.5896 46.0393C15.758 45.811 15.926 45.5824 16.0939 45.3537C16.1501 45.2773 16.2062 45.2009 16.264 45.1222C16.3701 44.9777 16.4761 44.8333 16.582 44.6887C17.8913 42.908 17.8913 42.908 18.526 42.7267C18.8978 42.7267 19.0807 42.7958 19.3897 42.9994C19.7979 43.4357 19.7668 43.9146 19.7662 44.4848C19.7664 44.5619 19.7667 44.6391 19.767 44.7186C19.7678 44.9775 19.7679 45.2365 19.768 45.4954C19.7685 45.6809 19.7689 45.8664 19.7694 46.0518C19.7706 46.556 19.7712 47.0602 19.7716 47.5644C19.7719 47.8793 19.7722 48.1942 19.7726 48.5091C19.7739 49.4941 19.7748 50.479 19.7751 51.464C19.7755 52.6015 19.7771 53.7391 19.7797 54.8766C19.7817 55.7556 19.7826 56.6346 19.7827 57.5136C19.7828 58.0388 19.7834 58.5639 19.785 59.0891C19.7865 59.5829 19.7867 60.0768 19.7859 60.5707C19.7858 60.7519 19.7862 60.9332 19.7871 61.1145C19.7883 61.3619 19.7877 61.6093 19.7868 61.8568C19.7879 61.9644 19.7879 61.9644 19.789 62.0742C19.7844 62.5875 19.6723 62.9518 19.3443 63.3482C19.0276 63.5989 18.6837 63.5736 18.2987 63.5471C17.9646 63.3952 17.7615 63.2244 17.5713 62.9106C17.4619 62.5833 17.4678 62.2665 17.466 61.9233C17.4656 61.8607 17.4651 61.798 17.4647 61.7334C17.4633 61.5234 17.4625 61.3135 17.4618 61.1035C17.4609 60.953 17.46 60.8025 17.459 60.6519C17.4566 60.2432 17.4547 59.8345 17.4528 59.4257C17.4509 58.9986 17.4484 58.5715 17.4459 58.1444C17.4414 57.3355 17.4373 56.5267 17.4334 55.7178C17.4289 54.797 17.4239 53.8762 17.4189 52.9553C17.4085 51.0611 17.3988 49.1669 17.3895 47.2726C17.1564 47.5774 16.9234 47.8825 16.6906 48.1875C16.625 48.2732 16.5594 48.3589 16.4919 48.4473C16.147 48.8993 15.8073 49.3533 15.4802 49.8183C15.0995 50.3591 14.7006 50.8846 14.2983 51.4094C13.8944 51.9363 13.4929 52.4634 13.1106 53.0062C12.5754 53.765 12.0153 54.5052 11.4553 55.2459C11.3504 55.3855 11.2464 55.5258 11.1433 55.6667C11.0953 55.7321 11.0473 55.7974 10.9978 55.8648C10.9557 55.9227 10.9136 55.9807 10.8702 56.0404C10.6977 56.2487 10.5638 56.3191 10.2978 56.3645C10.0024 56.3872 10.0024 56.3872 9.66141 56.2736C9.08988 55.7712 8.64602 55.1223 8.1886 54.5177C7.89535 54.1302 7.59634 53.7473 7.29752 53.3642C6.85984 52.8022 6.42432 52.2387 5.99057 51.6736C5.70042 51.2965 5.40784 50.9212 5.11548 50.5457C4.40239 49.6295 3.69261 48.7112 2.99665 47.7819C2.94661 47.7151 2.89657 47.6484 2.84502 47.5796C2.72293 47.4167 2.60087 47.2537 2.47883 47.0908C2.47863 47.2124 2.47863 47.2124 2.47843 47.3366C2.47506 49.3094 2.4697 51.2823 2.46211 53.2552C2.45849 54.2092 2.45555 55.1633 2.4542 56.1174C2.45301 56.9488 2.45057 57.7803 2.44659 58.6118C2.44453 59.0521 2.44311 59.4924 2.44321 59.9328C2.44327 60.3472 2.44165 60.7616 2.43872 61.176C2.43795 61.3281 2.43779 61.4802 2.4383 61.6324C2.43891 61.8401 2.43728 62.0477 2.4351 62.2554C2.43477 62.3716 2.43443 62.4879 2.43409 62.6076C2.37999 62.9627 2.2724 63.111 2.02424 63.3652C1.70725 63.5948 1.40621 63.58 1.02414 63.5471C0.682994 63.429 0.524224 63.3456 0.328784 63.0401C0.177687 62.6574 0.167808 62.349 0.171232 61.942C0.170806 61.864 0.170381 61.7859 0.169943 61.7055C0.168857 61.4446 0.169716 61.1837 0.170574 60.9228C0.170205 60.7355 0.169719 60.5482 0.169126 60.3609C0.167883 59.8526 0.168365 59.3443 0.169229 58.836C0.16992 58.3041 0.16928 57.7721 0.168851 57.2402C0.168355 56.3469 0.169009 55.4535 0.170308 54.5602C0.171792 53.5274 0.171311 52.4946 0.16981 51.4618C0.168572 50.5751 0.168397 49.6884 0.169111 48.8016C0.169537 48.272 0.169593 47.7424 0.168692 47.2128C0.167904 46.7149 0.168451 46.217 0.170027 45.7191C0.170388 45.5364 0.170284 45.3536 0.169683 45.1709C0.168937 44.9214 0.169872 44.6721 0.171232 44.4226C0.170623 44.3503 0.170015 44.278 0.169388 44.2035C0.174012 43.7663 0.241991 43.4715 0.478624 43.0904C0.970816 42.6299 1.61084 42.6031 2.14925 43.0278Z" fill="#E4E4E4"/>
<path d="M50.2113 42.9083C51.0405 43.6612 51.7157 44.6011 52.3889 45.4922C52.743 45.9588 53.1094 46.4132 53.4843 46.8633C53.9578 47.4318 54.4118 48.0119 54.8577 48.6021C55.2072 49.0625 55.5693 49.5104 55.9392 49.9545C56.4126 50.5231 56.8666 51.1031 57.3125 51.6934C57.662 52.1537 58.0241 52.6016 58.394 53.0458C58.8156 53.5521 59.2241 54.0656 59.6214 54.5914C60.0242 55.1246 60.4387 55.6457 60.8658 56.1597C61.3074 56.6913 61.7384 57.2282 62.1562 57.7787C62.3949 58.0928 62.6352 58.4057 62.876 58.7182C62.9174 58.7721 62.9588 58.8259 63.0015 58.8813C63.1022 59.0121 63.2029 59.1429 63.3036 59.2737C63.3039 59.152 63.3039 59.152 63.3042 59.0279C63.3096 57.055 63.3165 55.0822 63.325 53.1093C63.3291 52.1552 63.3327 51.2012 63.3351 50.2471C63.3372 49.4156 63.3402 48.5842 63.3444 47.7527C63.3465 47.3123 63.3482 46.872 63.3488 46.4317C63.3494 46.0173 63.3512 45.6029 63.354 45.1885C63.3548 45.0364 63.3551 44.8842 63.3549 44.7321C63.3548 44.5244 63.3563 44.3168 63.3582 44.1091C63.3587 43.9929 63.3591 43.8766 63.3595 43.7569C63.3971 43.4313 63.4728 43.2599 63.6672 42.9993C63.9481 42.8056 64.2502 42.7205 64.591 42.7347C64.9108 42.7974 65.0723 42.8603 65.3115 43.0917C65.5467 43.4581 65.5364 43.7335 65.5318 44.1601C65.5324 44.2404 65.5329 44.3206 65.5335 44.4033C65.535 44.6723 65.5338 44.9411 65.5327 45.2101C65.5332 45.4029 65.5338 45.5957 65.5346 45.7885C65.5363 46.3122 65.5356 46.8359 65.5345 47.3596C65.5335 47.9074 65.5344 48.4552 65.535 49.0029C65.5356 49.9229 65.5348 50.8428 65.533 51.7627C65.531 52.8267 65.5317 53.8906 65.5337 54.9545C65.5353 55.8676 65.5356 56.7806 65.5346 57.6937C65.5341 58.2392 65.534 58.7847 65.5352 59.3302C65.5362 59.8431 65.5355 60.3559 65.5334 60.8687C65.5329 61.0571 65.5331 61.2454 65.5339 61.4338C65.5349 61.6906 65.5336 61.9474 65.5318 62.2042C65.5326 62.279 65.5334 62.3538 65.5343 62.4308C65.5294 62.7867 65.5094 62.9628 65.3179 63.2728C65.062 63.512 64.8953 63.5434 64.548 63.5696C64.0573 63.5363 63.7723 63.3807 63.4272 63.0305C63.3471 62.9345 63.268 62.8376 63.1899 62.74C63.1469 62.6877 63.1039 62.6354 63.0595 62.5815C62.7357 62.1852 62.423 61.7805 62.1135 61.3729C61.8064 60.9692 61.4882 60.5754 61.167 60.1829C60.7349 59.6545 60.3154 59.119 59.9016 58.5762C59.639 58.2348 59.3659 57.9021 59.0929 57.569C58.6848 57.0707 58.2882 56.5654 57.8996 56.0518C57.4434 55.449 56.9699 54.8632 56.4867 54.2819C56.0968 53.8119 55.7231 53.3327 55.3535 52.8465C55.0863 52.4979 54.808 52.1584 54.5299 51.8184C54.0978 51.29 53.6783 50.7545 53.2645 50.2117C52.9571 49.812 52.6356 49.4238 52.316 49.0338C51.9411 48.5742 51.5778 48.1068 51.2188 47.6347C51.1652 47.5644 51.1116 47.494 51.0563 47.4216C50.9261 47.2507 50.7959 47.0798 50.6659 46.9088C50.6658 47.0317 50.6658 47.0317 50.6657 47.1571C50.6644 49.1513 50.6605 51.1454 50.6539 53.1396C50.6507 54.1039 50.6484 55.0683 50.6481 56.0326C50.6478 56.8731 50.646 57.7136 50.6422 58.5541C50.6402 58.9992 50.6391 59.4443 50.6399 59.8893C50.6405 60.3083 50.6391 60.7272 50.636 61.1461C50.6353 61.2999 50.6353 61.4536 50.6362 61.6073C50.6372 61.8174 50.6355 62.0273 50.6331 62.2374C50.6327 62.4136 50.6327 62.4136 50.6323 62.5934C50.5565 63.0127 50.4223 63.1594 50.1204 63.456C49.7107 63.5925 49.3619 63.612 48.9611 63.4389C48.7185 63.2434 48.6176 63.1024 48.4838 62.8195C48.458 62.552 48.447 62.3041 48.4492 62.0368C48.4488 61.9581 48.4483 61.8794 48.4479 61.7983C48.4468 61.5346 48.4477 61.2709 48.4485 61.0072C48.4482 60.8181 48.4477 60.6291 48.4471 60.44C48.4458 59.9264 48.4463 59.4128 48.4472 58.8993C48.4479 58.362 48.4472 57.8247 48.4468 57.2874C48.4463 56.385 48.447 55.4826 48.4483 54.5801C48.4497 53.5367 48.4493 52.4934 48.4478 51.45C48.4465 50.5544 48.4464 49.6588 48.4471 48.7632C48.4475 48.2282 48.4475 47.6932 48.4466 47.1582C48.4459 46.6551 48.4464 46.1521 48.448 45.649C48.4483 45.4644 48.4482 45.2797 48.4476 45.0951C48.4469 44.843 48.4478 44.5911 48.4492 44.3391C48.4486 44.266 48.448 44.1929 48.4473 44.1175C48.4519 43.68 48.5119 43.3768 48.7566 42.9993C49.2453 42.6865 49.6786 42.6599 50.2113 42.9083Z" fill="#E4E4E4"/>
<path d="M30.8248 42.7868C30.9053 42.7857 30.9858 42.7847 31.0687 42.7836C31.3348 42.7805 31.6008 42.7788 31.8669 42.7774C32.0035 42.7765 32.0035 42.7765 32.1428 42.7755C32.6247 42.7722 33.1066 42.7701 33.5884 42.7689C34.0854 42.7674 34.5822 42.762 35.0791 42.7558C35.4619 42.7518 35.8447 42.7505 36.2275 42.7501C36.4107 42.7494 36.5938 42.7476 36.7769 42.7447C38.3891 42.721 38.3891 42.721 38.7971 43.0645C38.9069 43.1922 39.0139 43.3224 39.1191 43.454C39.2534 43.5909 39.391 43.7239 39.529 43.8571C39.803 44.1223 40.0711 44.3934 40.3405 44.6633C40.4574 44.7802 40.5744 44.897 40.6914 45.0139C40.9351 45.2574 41.1786 45.5012 41.422 45.745C41.7343 46.0578 42.0471 46.3703 42.36 46.6826C42.6009 46.9232 42.8416 47.1641 43.0823 47.405C43.1976 47.5203 43.313 47.6356 43.4284 47.7509C43.589 47.9113 43.7493 48.0719 43.9096 48.2326C43.9813 48.3041 43.9813 48.3041 44.0545 48.377C44.4907 48.8158 44.4985 49.0919 44.5037 49.6944C44.5048 49.7757 44.5058 49.857 44.5069 49.9408C44.5169 50.7923 44.5213 51.6439 44.5251 52.4954C44.5272 52.8993 44.531 53.3032 44.5363 53.7071C44.5428 54.1948 44.5461 54.6825 44.5472 55.1703C44.5482 55.356 44.5502 55.5416 44.5534 55.7273C44.5798 57.3637 44.5798 57.3637 44.2364 57.7715C44.1087 57.8808 43.9785 57.9872 43.8469 58.0919C43.7102 58.226 43.5776 58.3637 43.4448 58.5017C43.1804 58.7758 42.91 59.0439 42.6408 59.3132C42.5241 59.4302 42.4075 59.5472 42.2908 59.6642C42.0477 59.9078 41.8043 60.1514 41.5609 60.3947C41.2487 60.7069 40.9371 61.0198 40.6257 61.3327C40.3856 61.5738 40.1451 61.8145 39.9045 62.055C39.7894 62.1703 39.6744 62.2857 39.5596 62.4012C39.3997 62.562 39.2392 62.7222 39.0785 62.8823C39.0075 62.9541 39.0075 62.9541 38.9351 63.0273C38.4886 63.4699 38.1324 63.4702 37.5288 63.4722C37.45 63.4728 37.3712 63.4734 37.29 63.474C37.0289 63.4758 36.7677 63.4768 36.5066 63.4777C36.3728 63.4783 36.3728 63.4783 36.2362 63.4789C35.7639 63.4808 35.2916 63.4821 34.8192 63.4829C34.3318 63.4839 33.8444 63.487 33.357 63.4907C32.9818 63.493 32.6066 63.4938 32.2315 63.4941C32.0518 63.4946 31.8722 63.4956 31.6925 63.4973C31.4407 63.4995 31.189 63.4994 30.9372 63.4988C30.8265 63.5006 30.8265 63.5006 30.7136 63.5023C29.9159 63.4951 29.4601 63.1126 28.92 62.563C28.8678 62.5111 28.8157 62.4592 28.762 62.4056C28.5915 62.2354 28.422 62.0643 28.2526 61.8931C28.1337 61.7739 28.0148 61.6548 27.8958 61.5358C27.6474 61.287 27.3995 61.0377 27.1519 60.7881C26.8344 60.4681 26.5162 60.1489 26.1977 59.83C25.9525 59.5844 25.7076 59.3386 25.4628 59.0927C25.3455 58.9749 25.2281 58.8571 25.1107 58.7394C24.9471 58.5751 24.7837 58.4105 24.6205 58.2458C24.572 58.1972 24.5235 58.1486 24.4735 58.0985C23.9935 57.6129 23.9079 57.3121 23.905 56.6431C23.9034 56.5185 23.9034 56.5185 23.9018 56.3913C23.8987 56.1158 23.897 55.8404 23.8956 55.565C23.8949 55.4708 23.8943 55.3767 23.8937 55.2797C23.8904 54.7813 23.8883 54.283 23.887 53.7846C23.8855 53.2704 23.8802 52.7564 23.874 52.2423C23.8699 51.8464 23.8687 51.4506 23.8682 51.0547C23.8675 50.8652 23.8657 50.6758 23.8628 50.4863C23.8591 50.2206 23.8593 49.9551 23.8606 49.6893C23.8586 49.6116 23.8566 49.5338 23.8545 49.4538C23.8629 48.9095 24.0213 48.6422 24.4001 48.256C24.4568 48.2015 24.5136 48.147 24.5721 48.0908C24.6614 47.9978 24.7506 47.9046 24.8395 47.8113C24.9281 47.7219 25.0169 47.6327 25.106 47.5438C25.1552 47.4943 25.2043 47.4448 25.255 47.3938C25.4148 47.2331 25.575 47.0728 25.7352 46.9124C25.8476 46.7998 25.96 46.6871 26.0724 46.5744C26.3066 46.3397 26.541 46.1051 26.7755 45.8706C27.0758 45.5703 27.3756 45.2693 27.6752 44.9681C27.9064 44.7359 28.1381 44.504 28.3699 44.2723C28.4806 44.1614 28.5912 44.0504 28.7017 43.9393C28.8557 43.7844 29.0103 43.63 29.165 43.4759C29.2103 43.43 29.2556 43.3842 29.3023 43.337C29.7996 42.8442 30.1346 42.7899 30.8248 42.7868ZM25.845 49.7274C25.002 51.8575 25.002 54.4161 25.845 56.5463C26.8056 58.7136 28.7398 60.6681 30.9592 61.5359C33.191 62.3207 35.9048 62.2972 38.0596 61.2767C40.0888 60.2412 41.8849 58.3997 42.6331 56.2239C43.3435 53.9405 43.3028 51.2002 42.2047 49.0442C41.1083 47.037 39.2502 45.2992 37.0476 44.6014C32.5195 43.3046 27.7777 45.3669 25.845 49.7274Z" fill="#E4E4E4"/>
<path d="M78.1514 42.7039C78.2205 42.7015 78.2895 42.6992 78.3606 42.6968C78.6491 42.7364 78.8016 42.8208 79.0322 42.9994C79.1941 43.2483 79.1941 43.2483 79.3504 43.5733C79.3807 43.6361 79.4109 43.6988 79.4421 43.7635C79.8522 44.6287 80.2237 45.512 80.6013 46.3918C80.9406 47.1824 81.2865 47.9702 81.633 48.7578C82.2097 50.0688 82.7845 51.3805 83.3565 52.6936C83.3882 52.7664 83.4199 52.8392 83.4526 52.9142C83.7083 53.501 83.9638 54.0879 84.2193 54.6748C84.4111 55.1155 84.603 55.5561 84.7949 55.9967C84.8585 56.1426 84.922 56.2885 84.9856 56.4344C85.3632 57.3016 85.7424 58.1679 86.1239 59.0334C86.1996 59.2053 86.2753 59.3772 86.351 59.5491C86.4959 59.8781 86.6411 60.2069 86.7865 60.5356C86.8525 60.6853 86.9184 60.8349 86.9844 60.9846C87.0143 61.052 87.0443 61.1195 87.0751 61.189C87.5615 62.2953 87.5615 62.2953 87.3967 62.9106C87.204 63.2208 87.0244 63.4286 86.6694 63.547C86.2625 63.5854 85.9687 63.5727 85.6292 63.3305C84.2563 61.9055 83.2742 58.1403 82.6689 56.7281C79.6386 56.6981 76.6083 56.6681 73.4862 56.6372C73.3961 56.9072 73.3061 57.1772 73.2134 57.4554C73.1439 57.6328 73.0723 57.8093 72.9977 57.9846C72.9573 58.0799 72.9169 58.1752 72.8753 58.2734C72.8324 58.3737 72.7895 58.474 72.7453 58.5774C72.7004 58.683 72.6554 58.7887 72.6091 58.8975C72.5143 59.12 72.4195 59.3425 72.3244 59.5648C72.2036 59.8472 72.0834 60.1297 71.9634 60.4124C71.8474 60.6854 71.7309 60.9582 71.6145 61.231C71.5507 61.3812 71.5507 61.3812 71.4856 61.5345C70.7853 63.1689 70.7853 63.1689 70.4517 63.4674C70.0442 63.6033 69.7202 63.6122 69.3266 63.4333C68.9733 63.1585 68.9733 63.1585 68.8493 62.9106C68.776 62.3131 68.9021 61.858 69.153 61.3216C69.2011 61.2138 69.2011 61.2138 69.2502 61.1038C69.3558 60.8682 69.4634 60.6336 69.571 60.3989C69.646 60.2324 69.7208 60.0658 69.7954 59.8991C69.9494 59.5554 70.1041 59.212 70.2592 58.8688C70.5675 58.1849 70.8663 57.4969 71.1646 56.8085C71.323 56.4433 71.4821 56.0784 71.6411 55.7134C71.6729 55.6406 71.7046 55.5677 71.7374 55.4927C72.1813 54.4745 72.6284 53.4576 73.0752 52.4407C73.1434 52.2855 73.2116 52.1303 73.2798 51.9751C73.313 51.8995 73.3463 51.8239 73.3805 51.746C73.6638 51.1009 73.9463 50.4556 74.2285 49.81C74.4658 49.2672 74.7033 48.7245 74.9409 48.1817C74.9902 48.069 74.9902 48.069 75.0405 47.954C75.2588 47.4553 75.4773 46.9566 75.6959 46.458C75.7672 46.2952 75.8385 46.1324 75.9098 45.9696C76.1027 45.5289 76.2965 45.0885 76.4916 44.6486C76.5724 44.4655 76.6517 44.2818 76.7308 44.098C76.7997 43.9415 76.7997 43.9415 76.87 43.7818C76.9276 43.6489 76.9276 43.6489 76.9863 43.5133C77.2679 43.016 77.5787 42.7154 78.1514 42.7039ZM78.0321 46.1815C77.2142 48.0349 76.3997 49.8897 75.5994 51.7507C75.5283 51.916 75.4571 52.0813 75.3858 52.2465C75.2855 52.4787 75.1858 52.7111 75.0861 52.9436C75.0569 53.0111 75.0277 53.0786 74.9976 53.1481C74.8003 53.6105 74.6465 54.0654 74.4863 54.546C76.8865 54.546 79.2868 54.546 81.7598 54.546C81.531 53.8575 81.531 53.8575 81.2625 53.1918C81.2189 53.0919 81.1753 52.9919 81.1304 52.889C81.0831 52.7814 81.0357 52.6737 80.9869 52.5629C80.9095 52.3858 80.8323 52.2087 80.755 52.0316C80.6988 51.9027 80.6425 51.7739 80.5862 51.645C80.1458 50.6369 79.7115 49.626 79.276 48.6157C79.1672 48.3634 79.0583 48.1112 78.9494 47.8589C78.9012 47.747 78.9012 47.747 78.852 47.6327C78.6426 47.1475 78.4295 46.664 78.2139 46.1815C78.1539 46.1815 78.0939 46.1815 78.0321 46.1815Z" fill="#E4E4E4"/>
<path d="M31.4474 45.7497C31.7542 45.8179 31.7542 45.8179 31.8452 45.9088C31.8489 46.0603 31.849 46.2119 31.8452 46.3634C31.896 46.3768 31.9469 46.3901 31.9993 46.4039C32.6048 46.5733 33.161 46.8117 33.7275 47.0808C34.3555 47.2921 34.8851 46.9744 35.4592 46.7214C35.6139 46.6538 35.7687 46.5864 35.9237 46.5193C35.9917 46.4894 36.0596 46.4595 36.1296 46.4287C36.3002 46.3634 36.3002 46.3634 36.482 46.3634C36.4914 46.2922 36.5008 46.2209 36.5104 46.1475C36.5729 45.9088 36.5729 45.9088 36.8457 45.727C37.1065 45.6944 37.2409 45.6822 37.4539 45.8428C37.573 45.9997 37.573 45.9997 37.5244 46.3577C37.5139 46.4302 37.5035 46.5026 37.4927 46.5772C37.4567 47.3953 37.9071 48.3606 38.3913 49.0001C38.9882 49.4782 39.8533 49.8367 40.6276 49.8103C40.7666 49.7934 40.9053 49.7729 41.043 49.7472C41.2098 49.7274 41.2098 49.7274 41.4428 49.824C41.6301 50.0765 41.6182 50.2391 41.5735 50.5457C41.4598 50.7161 41.4598 50.7161 41.3007 50.8184C41.1807 50.8184 41.0607 50.8184 40.937 50.8184C40.93 50.8762 40.923 50.934 40.9157 50.9935C40.8539 51.2416 40.7773 51.434 40.6685 51.6633C40.1979 52.538 40.1979 52.538 40.1756 53.4835C40.2427 53.6279 40.3154 53.7698 40.3915 53.9097C40.4642 54.0767 40.5368 54.2438 40.6074 54.4117C40.6783 54.5787 40.7527 54.7441 40.8273 54.9094C40.937 55.1825 40.937 55.1825 40.937 55.4553C41.0252 55.4665 41.1133 55.4778 41.2041 55.4894C41.296 55.5081 41.3879 55.5269 41.4825 55.5462C41.6081 55.7974 41.5908 55.996 41.5735 56.2736C41.3916 56.4554 41.3916 56.4554 41.0734 56.4724C40.7552 56.4554 40.7552 56.4554 40.5733 56.3645C39.751 56.5236 38.7411 56.8473 38.1981 57.5092C37.6812 58.3742 37.4173 59.1868 37.573 60.1831C37.431 60.4217 37.431 60.4217 37.2094 60.5467C36.9309 60.5581 36.9309 60.5581 36.6638 60.4558C36.6335 60.3729 36.6031 60.2901 36.5719 60.2047C36.2947 59.7533 35.8949 59.6473 35.4137 59.4614C35.3249 59.4241 35.236 59.3867 35.1445 59.3483C34.4455 59.069 34.0204 59.0698 33.3208 59.3509C33.1676 59.4173 33.0148 59.4844 32.8623 59.5523C32.7084 59.6199 32.5544 59.6873 32.4003 59.7544C32.3329 59.7843 32.2655 59.8142 32.1961 59.845C32.027 59.9103 32.027 59.9103 31.8452 59.9103C31.8283 60.0172 31.8283 60.0172 31.8111 60.1262C31.7542 60.3649 31.7542 60.3649 31.5724 60.5467C31.0765 60.5054 31.0765 60.5054 30.8451 60.274C30.8253 59.9652 30.8377 59.7505 30.936 59.4557C30.7932 58.6207 30.4674 57.5901 29.7602 57.0823C29.1232 56.7537 28.4476 56.5389 27.7538 56.3645C27.7088 56.4095 27.7088 56.4095 27.6629 56.4554C27.3504 56.4724 27.3504 56.4724 27.0265 56.4554C26.8446 56.2736 26.8446 56.2736 26.8219 55.9553C26.8446 55.6371 26.8446 55.6371 27.0265 55.4553C27.0847 55.4454 27.143 55.4355 27.203 55.4253C27.4775 55.3359 27.5255 55.1874 27.6565 54.935C28.2386 53.7479 28.2386 53.7479 28.175 52.4646C27.8245 51.4408 27.8245 51.4408 27.0833 50.7126C27.0045 50.6875 26.9258 50.6624 26.8446 50.6366C26.8113 50.048 26.8113 50.048 26.9565 49.8395C27.1174 49.7274 27.1174 49.7274 27.3077 49.7348C27.3799 49.7501 27.4521 49.7653 27.5265 49.781C28.108 49.8587 28.5099 49.6637 29.0267 49.4149C29.1952 49.3371 29.3637 49.2596 29.5324 49.1822C29.6057 49.1474 29.6789 49.1125 29.7544 49.0766C29.9359 49.0001 29.9359 49.0001 30.1177 49.0001C30.125 48.9424 30.1322 48.8847 30.1397 48.8253C30.2004 48.579 30.2756 48.3815 30.3798 48.152C30.4127 48.0792 30.4457 48.0064 30.4796 47.9314C30.5486 47.781 30.6186 47.6311 30.6899 47.4818C30.9024 47.0057 30.9677 46.6872 30.8507 46.1742C30.8451 45.9997 30.8451 45.9997 30.9577 45.8388C31.1178 45.727 31.1178 45.727 31.4474 45.7497ZM32.027 46.7271C32.1599 46.8848 32.2936 47.0417 32.429 47.1973C32.5402 47.3261 32.648 47.4579 32.7543 47.5908C32.9354 47.7558 32.9354 47.7558 33.2146 47.7215C33.4854 47.6351 33.5693 47.5662 33.7544 47.3635C33.5008 47.2571 33.247 47.1511 32.993 47.0453C32.9208 47.0149 32.8486 46.9846 32.7742 46.9533C32.7051 46.9246 32.6359 46.8959 32.5647 46.8663C32.5009 46.8396 32.4371 46.813 32.3714 46.7855C32.2091 46.7168 32.2091 46.7168 32.027 46.7271ZM35.283 47.0851C35.2235 47.1115 35.1641 47.1379 35.1028 47.1652C34.956 47.2305 34.8098 47.2969 34.6636 47.3635C34.6636 47.4235 34.6636 47.4835 34.6636 47.5454C34.9647 47.6913 34.9647 47.6913 35.2915 47.7101C35.5453 47.6117 35.6813 47.4633 35.8683 47.2669C35.9646 47.1669 35.9646 47.1669 36.0629 47.0648C36.1112 47.0134 36.1595 46.9619 36.2093 46.9089C35.8372 46.7849 35.621 46.9302 35.283 47.0851ZM37.1184 46.9089C37.1184 47.449 37.1184 47.989 37.1184 48.5455C37.3885 48.6355 37.6585 48.7255 37.9367 48.8182C37.8496 48.5852 37.7625 48.3522 37.6753 48.1193C37.6508 48.0537 37.6263 47.9881 37.6011 47.9206C37.4742 47.5818 37.3456 47.2441 37.2094 46.9089C37.1794 46.9089 37.1494 46.9089 37.1184 46.9089ZM31.8452 46.9998C31.8638 47.0557 31.8824 47.1117 31.9016 47.1693C32.004 47.4765 32.1064 47.7837 32.2088 48.0909C32.3889 48.0309 32.5689 47.9709 32.7543 47.909C32.346 47.4062 32.346 47.4062 31.8452 46.9998ZM36.8457 46.9998C36.6957 47.3899 36.5457 47.7799 36.3911 48.1818C36.647 48.3888 36.647 48.3888 36.9366 48.3636C36.9366 47.9136 36.9366 47.4635 36.9366 46.9998C36.9066 46.9998 36.8766 46.9998 36.8457 46.9998ZM31.1178 47.0908C31.009 47.3442 30.9012 47.5981 30.7939 47.8522C30.7628 47.9244 30.7317 47.9966 30.6996 48.071C30.6561 48.1747 30.6561 48.1747 30.6117 48.2805C30.5846 48.3443 30.5574 48.4081 30.5295 48.4739C30.4591 48.6436 30.4591 48.6436 30.5723 48.8182C30.7823 48.7282 30.9923 48.6382 31.2087 48.5455C31.2087 48.0654 31.2087 47.5854 31.2087 47.0908C31.1787 47.0908 31.1487 47.0908 31.1178 47.0908ZM31.4815 47.0908C31.4815 47.5108 31.4815 47.9309 31.4815 48.3636C31.6315 48.3336 31.7815 48.3036 31.9361 48.2727C31.8823 47.8321 31.7561 47.4901 31.5724 47.0908C31.5424 47.0908 31.5124 47.0908 31.4815 47.0908ZM36.3911 47.0908C36.1511 47.3308 35.911 47.5708 35.6637 47.8181C35.6937 47.8781 35.7237 47.9381 35.7547 47.9999C35.9387 48.0592 35.9387 48.0592 36.1183 48.0909C36.1819 47.9759 36.2442 47.8602 36.3059 47.7442C36.3407 47.6799 36.3755 47.6156 36.4113 47.5493C36.5095 47.3502 36.5095 47.3502 36.3911 47.0908ZM33.2999 47.909C33.4279 48.2014 33.582 48.3929 33.8113 48.6137C33.8687 48.6694 33.9261 48.7252 33.9853 48.7827C34.0291 48.8244 34.073 48.8661 34.1181 48.9091C34.2186 48.824 34.319 48.7388 34.4193 48.6534C34.4752 48.606 34.5311 48.5585 34.5887 48.5096C34.8167 48.3091 34.8167 48.3091 35.0273 48.0909C35.0273 48.0309 35.0273 47.9709 35.0273 47.909C34.3362 47.5838 33.991 47.5838 33.2999 47.909ZM32.3907 48.3636C32.5667 48.9278 32.7776 49.4645 33.0271 50.0002C33.1276 49.9151 33.228 49.8298 33.3283 49.7445C33.3842 49.697 33.4401 49.6495 33.4977 49.6006C33.6503 49.4663 33.7943 49.3273 33.9363 49.1819C33.8027 48.8729 33.6289 48.6682 33.3908 48.4318C33.327 48.3676 33.2633 48.3034 33.1976 48.2372C32.8807 47.9652 32.7065 48.1642 32.3907 48.3636ZM35.391 48.0909C35.061 48.4209 34.7309 48.7509 34.3909 49.091C34.4753 49.1904 34.5596 49.2897 34.6466 49.3921C34.6941 49.448 34.7415 49.504 34.7904 49.5615C34.991 49.7896 34.991 49.7896 35.2091 50.0002C35.2692 50.0002 35.3292 50.0002 35.391 50.0002C35.601 49.4601 35.811 48.92 36.0274 48.3636C35.8174 48.2736 35.6074 48.1836 35.391 48.0909ZM36.3002 48.4545C36.0018 49.0195 35.7601 49.5708 35.5728 50.182C36.0229 50.182 36.4729 50.182 36.9366 50.182C36.9366 49.7019 36.9366 49.2219 36.9366 48.7273C36.7266 48.6373 36.5166 48.5473 36.3002 48.4545ZM32.027 48.4545C31.847 48.5446 31.667 48.6346 31.4815 48.7273C31.4815 49.2074 31.4815 49.6874 31.4815 50.182C31.9315 50.182 32.3816 50.182 32.8453 50.182C32.7437 49.9108 32.6414 49.64 32.5384 49.3694C32.5096 49.2921 32.4807 49.2148 32.451 49.1352C32.4229 49.0616 32.3948 48.9881 32.3658 48.9123C32.3401 48.8442 32.3144 48.7762 32.2879 48.706C32.2205 48.5284 32.2205 48.5284 32.027 48.4545ZM37.1184 48.8182C37.1184 49.2683 37.1184 49.7183 37.1184 50.182C37.5685 50.182 38.0185 50.182 38.4822 50.182C38.4428 50.0526 38.4035 49.9232 38.3629 49.7899C38.3407 49.7171 38.3186 49.6443 38.2958 49.5694C38.1678 49.2645 38.0359 49.1326 37.7311 49.0047C37.6583 48.9825 37.5855 48.9604 37.5105 48.9375C37.3811 48.8982 37.2517 48.8588 37.1184 48.8182ZM30.2086 49.2728C29.9976 49.5564 29.9359 49.8277 29.9359 50.182C30.3559 50.182 30.776 50.182 31.2087 50.182C31.2087 49.732 31.2087 49.2819 31.2087 48.8182C30.8727 48.8182 30.48 49.095 30.2086 49.2728ZM34.1181 49.3637C33.9966 49.4828 33.8755 49.6022 33.7544 49.7217C33.6869 49.7882 33.6194 49.8546 33.5499 49.9231C33.3804 50.0635 33.3804 50.0635 33.3908 50.182C33.9308 50.182 34.4709 50.182 35.0273 50.182C34.9035 50.0301 34.9035 50.0301 34.7773 49.8751C34.7309 49.8182 34.6845 49.7612 34.6366 49.7025C34.4743 49.538 34.3291 49.4545 34.1181 49.3637ZM29.2074 49.5939C29.1386 49.6226 29.0697 49.6513 28.9988 49.6809C28.9274 49.7112 28.8559 49.7416 28.7823 49.7729C28.6736 49.8184 28.6736 49.8184 28.5627 49.8648C28.3838 49.9398 28.2052 50.0154 28.0266 50.0911C28.0266 50.1211 28.0266 50.1511 28.0266 50.182C28.5366 50.182 29.0467 50.182 29.5722 50.182C29.8585 49.711 29.8585 49.711 29.8449 49.4546C29.5742 49.4546 29.4513 49.4912 29.2074 49.5939ZM38.5731 49.4546C38.6207 49.7058 38.6739 49.9389 38.755 50.182C39.265 50.182 39.7751 50.182 40.3006 50.182C39.9864 49.9463 39.743 49.8123 39.3857 49.6649C39.2909 49.6252 39.1961 49.5854 39.0984 49.5445C38.8477 49.4394 38.8477 49.4394 38.5731 49.4546ZM28.0266 50.3638C28.3453 50.6029 28.5015 50.6889 28.8676 50.79C28.9487 50.8129 29.0298 50.8357 29.1133 50.8593C29.1747 50.8758 29.2362 50.8923 29.2994 50.9093C29.3594 50.7293 29.4194 50.5493 29.4813 50.3638C29.0012 50.3638 28.5212 50.3638 28.0266 50.3638ZM29.754 50.3638C29.5553 50.779 29.5553 50.779 29.5722 51.0912C29.8107 51.1977 30.0494 51.3037 30.2882 51.4094C30.356 51.4398 30.4239 51.4701 30.4938 51.5014C30.5589 51.5301 30.6239 51.5588 30.6909 51.5884C30.7509 51.6151 30.8109 51.6417 30.8727 51.6692C31.0277 51.7384 31.0277 51.7384 31.2087 51.7276C31.2087 51.2776 31.2087 50.8275 31.2087 50.3638C30.7287 50.3638 30.2486 50.3638 29.754 50.3638ZM31.4815 50.3638C31.4815 50.7539 31.4815 51.1439 31.4815 51.5458C31.9266 51.1808 32.2984 50.809 32.6634 50.3638C32.2734 50.3638 31.8833 50.3638 31.4815 50.3638ZM33.2089 50.3638C33.6513 51.5505 33.6513 51.5505 34.1181 52.7277C34.3869 52.5933 34.4081 52.4074 34.5166 52.1307C34.557 52.0285 34.5975 51.9262 34.6391 51.8208C34.681 51.7132 34.7228 51.6055 34.7659 51.4946C34.8085 51.3866 34.851 51.2786 34.8948 51.1674C35.0002 50.8997 35.1047 50.6318 35.2091 50.3638C34.5491 50.3638 33.889 50.3638 33.2089 50.3638ZM35.6637 50.3638C36.0361 50.8088 36.4151 51.2464 36.8457 51.6367C36.8757 51.6367 36.9057 51.6367 36.9366 51.6367C36.9366 51.2167 36.9366 50.7966 36.9366 50.3638C36.5166 50.3638 36.0965 50.3638 35.6637 50.3638ZM37.1184 50.3638C37.1184 50.8139 37.1184 51.2639 37.1184 51.7276C37.7049 51.5384 38.276 51.3256 38.8459 51.0912C38.7677 50.6973 38.7677 50.6973 38.5731 50.3638C38.328 50.3572 38.0852 50.3554 37.8401 50.3582C37.7366 50.3588 37.7366 50.3588 37.6311 50.3594C37.4602 50.3605 37.2893 50.3621 37.1184 50.3638ZM38.9368 50.3638C38.9668 50.5139 38.9968 50.6639 39.0277 50.8184C39.39 50.9392 39.5187 50.8395 39.863 50.6877C40.0112 50.6232 40.0112 50.6232 40.1624 50.5574C40.238 50.5235 40.3136 50.4897 40.3915 50.4548C40.3915 50.4248 40.3915 50.3947 40.3915 50.3638C39.9115 50.3638 39.4314 50.3638 38.9368 50.3638ZM32.809 50.6625C32.7562 50.7158 32.7033 50.7692 32.6489 50.8241C32.5917 50.8815 32.5346 50.939 32.4757 50.9981C32.3858 51.0892 32.3858 51.0892 32.2941 51.1821C32.2036 51.2732 32.2036 51.2732 32.1113 51.3661C31.9618 51.5167 31.8125 51.6675 31.6633 51.8185C31.9781 52.1696 32.3722 52.2998 32.7998 52.4777C32.8787 52.5119 32.9576 52.5461 33.0388 52.5814C33.1526 52.6292 33.1526 52.6292 33.2686 52.678C33.3378 52.7072 33.407 52.7364 33.4783 52.7665C33.6792 52.8418 33.6792 52.8418 33.9363 52.7277C33.6363 52.0076 33.3362 51.2876 33.0271 50.5457C32.9186 50.5354 32.9186 50.5354 32.809 50.6625ZM35.391 50.5457C34.9409 51.6258 34.9409 51.6258 34.4818 52.7277C34.6633 52.8449 34.6633 52.8449 34.8679 52.7538C34.9507 52.7191 35.0336 52.6843 35.1189 52.6485C35.2086 52.6113 35.2983 52.5741 35.3906 52.5358C35.5314 52.4761 35.5314 52.4761 35.6751 52.4152C35.7697 52.3758 35.8643 52.3363 35.9617 52.2957C36.196 52.1979 36.43 52.0994 36.6638 52.0004C36.6915 51.7344 36.6915 51.7344 36.5568 51.5882C36.4834 51.516 36.4834 51.516 36.4085 51.4424C36.3556 51.39 36.3027 51.3375 36.2481 51.2835C36.1642 51.2024 36.1642 51.2024 36.0786 51.1196C36.0229 51.0645 35.9673 51.0093 35.91 50.9525C35.6834 50.6826 35.6834 50.6826 35.391 50.5457ZM39.6983 50.9548C39.6071 50.997 39.5159 51.0392 39.422 51.0827C39.3519 51.1155 39.2818 51.1483 39.2096 51.1821C39.2696 51.3621 39.3296 51.5421 39.3914 51.7276C39.7675 51.4202 40.1018 51.1216 40.3915 50.7275C40.1261 50.7275 39.9378 50.8434 39.6983 50.9548ZM28.1175 50.8184C28.2 50.9213 28.2836 51.0235 28.3675 51.1253C28.4139 51.1822 28.4603 51.2392 28.5082 51.2979C28.6705 51.4624 28.8157 51.5459 29.0267 51.6367C29.0567 51.4867 29.0867 51.3367 29.1176 51.1821C29.0024 51.1208 28.8868 51.0604 28.771 51.0003C28.7066 50.9665 28.6423 50.9328 28.576 50.898C28.3821 50.8005 28.3821 50.8005 28.1175 50.8184ZM40.4824 51.0003C40.1824 51.3003 39.8824 51.6003 39.5732 51.9095C39.6633 52.1795 39.7533 52.4495 39.846 52.7277C40.0942 52.4795 40.1903 52.1847 40.3176 51.864C40.3436 51.8013 40.3696 51.7386 40.3963 51.674C40.4611 51.5122 40.5178 51.3473 40.5733 51.1821C40.5433 51.1221 40.5133 51.0621 40.4824 51.0003ZM27.8447 51.0912C28.0208 51.6553 28.2317 52.1921 28.4812 52.7277C28.7051 52.5038 28.7537 52.2998 28.8448 52.0004C28.6955 51.8486 28.5458 51.6971 28.3959 51.5458C28.3126 51.4614 28.2293 51.377 28.1434 51.2901C27.9726 51.0807 27.9726 51.0807 27.8447 51.0912ZM29.3904 51.273C29.1935 51.6745 29.1935 51.6745 29.2167 51.9109C29.335 52.1689 29.5101 52.3276 29.7143 52.5232C29.7894 52.5958 29.8645 52.6685 29.9419 52.7433C29.9999 52.7982 30.0579 52.853 30.1177 52.9096C30.2182 52.8245 30.3186 52.7392 30.4189 52.6539C30.4748 52.6064 30.5307 52.5589 30.5883 52.51C30.8163 52.3095 30.8163 52.3095 31.0269 52.0913C31.0269 52.0313 31.0269 51.9713 31.0269 51.9095C30.4868 51.6994 29.9468 51.4894 29.3904 51.273ZM38.0049 51.6367C37.9458 51.6627 37.8868 51.6887 37.8259 51.7155C37.6807 51.7796 37.5359 51.8444 37.3912 51.9095C37.3616 52.1884 37.3616 52.1884 37.5503 52.368C37.6516 52.4645 37.6516 52.4645 37.7549 52.5629C37.8224 52.628 37.8899 52.693 37.9594 52.76C38.0119 52.8094 38.0644 52.8587 38.1185 52.9096C38.4206 52.7766 38.6362 52.6088 38.8743 52.3811C38.9396 52.3205 39.0049 52.2599 39.0721 52.1975C39.2356 52.0074 39.2356 52.0074 39.1907 51.7606C39.1248 51.5474 39.1248 51.5474 39.0277 51.3639C38.6278 51.3639 38.3604 51.4763 38.0049 51.6367ZM31.4815 52.1822C31.4815 52.8123 31.4815 53.4423 31.4815 54.0915C32.6682 53.6491 32.6682 53.6491 33.8454 53.1823C33.6411 52.978 33.4811 52.9125 33.2146 52.8037C33.1258 52.7674 33.0369 52.7311 32.9454 52.6936C32.8524 52.6561 32.7593 52.6186 32.6634 52.58C32.5704 52.5418 32.4773 52.5036 32.3814 52.4642C31.9448 52.2635 31.9448 52.2635 31.4815 52.1822ZM39.0927 52.3811C39.0094 52.4655 38.9261 52.5499 38.8402 52.6368C38.7149 52.7634 38.7149 52.7634 38.587 52.8925C38.5224 52.9581 38.4578 53.0238 38.3913 53.0914C38.6987 53.4675 38.9974 53.8018 39.3914 54.0915C39.698 53.4833 39.698 53.4833 39.6983 52.8225C39.6069 52.6008 39.5092 52.391 39.3914 52.1822C39.2635 52.1717 39.2635 52.1717 39.0927 52.3811ZM29.0267 52.2731C28.7518 52.7282 28.7518 52.7282 28.6687 53.2391C28.7725 53.5022 28.8933 53.7513 29.0267 54.0006C29.1275 53.9177 29.2278 53.8343 29.3278 53.7506C29.3837 53.7041 29.4397 53.6577 29.4973 53.6099C29.6685 53.45 29.8009 53.2824 29.9359 53.0914C29.8017 52.9547 29.6671 52.8184 29.5324 52.6823C29.4575 52.6063 29.3826 52.5304 29.3055 52.4521C29.1499 52.2627 29.1499 52.2627 29.0267 52.2731ZM36.2597 52.3811C36.1618 52.4221 36.064 52.4631 35.9631 52.5054C35.8093 52.5704 35.8093 52.5704 35.6524 52.6368C35.5491 52.6802 35.4459 52.7235 35.3395 52.7682C35.0838 52.8757 34.8282 52.9834 34.5727 53.0914C34.9594 53.3492 35.3792 53.5119 35.8058 53.6937C35.8941 53.7319 35.9824 53.7701 36.0734 53.8095C36.1577 53.8456 36.2421 53.8817 36.3289 53.9189C36.4062 53.952 36.4835 53.9851 36.5632 54.0193C36.749 54.1022 36.749 54.1022 36.9366 54.0915C36.9366 53.4614 36.9366 52.8314 36.9366 52.1822C36.68 52.1822 36.4961 52.2815 36.2597 52.3811ZM37.1184 52.2731C37.1184 52.8432 37.1184 53.4132 37.1184 54.0006C37.6383 53.5767 37.6383 53.5767 38.0276 53.0914C37.8934 52.9547 37.7589 52.8184 37.6242 52.6823C37.5493 52.6063 37.4744 52.5304 37.3972 52.4521C37.2416 52.2627 37.2416 52.2627 37.1184 52.2731ZM30.9498 52.5232C30.8501 52.6244 30.8501 52.6244 30.7485 52.7277C30.6484 52.829 30.6484 52.829 30.5464 52.9323C30.4692 53.011 30.4692 53.011 30.3905 53.0914C30.4753 53.194 30.5606 53.2962 30.6462 53.3982C30.7174 53.4837 30.7174 53.4837 30.79 53.5708C30.9434 53.748 30.9434 53.748 31.2087 53.9097C31.2087 53.3996 31.2087 52.8896 31.2087 52.364C31.0902 52.3536 31.0902 52.3536 30.9498 52.5232ZM29.6517 53.7847C29.5671 53.8627 29.4825 53.9408 29.3953 54.0212C29.1753 54.2618 29.1753 54.2618 29.2263 54.5766C29.2504 54.6566 29.2746 54.7365 29.2994 54.8189C29.5774 54.9417 29.6831 54.9027 29.9771 54.7993C30.0926 54.7482 30.2077 54.6959 30.3223 54.6427C30.4109 54.6031 30.4109 54.6031 30.5013 54.5626C30.6466 54.4974 30.7913 54.431 30.936 54.3643C30.9652 54.0859 30.9652 54.0859 30.7801 53.9058C30.7134 53.8414 30.6467 53.7771 30.578 53.7108C30.5115 53.6457 30.4451 53.5807 30.3766 53.5137C30.0516 53.2244 29.9303 53.5216 29.6517 53.7847ZM37.9218 53.5431C37.848 53.6191 37.7741 53.695 37.698 53.7733C37.6237 53.8492 37.5494 53.9252 37.4729 54.0034C37.4159 54.0625 37.359 54.1216 37.3003 54.1824C37.4487 54.4792 37.7663 54.5336 38.0617 54.6484C38.1241 54.6736 38.1864 54.6988 38.2507 54.7247C38.5224 54.832 38.7331 54.9098 39.0277 54.9098C39.0877 54.6997 39.1477 54.4897 39.2096 54.2733C39.0624 54.1213 38.9145 53.9699 38.7663 53.8187C38.6841 53.7344 38.6018 53.65 38.517 53.563C38.2379 53.3068 38.2018 53.2884 37.9218 53.5431ZM33.2082 53.6341C33.1186 53.671 33.0289 53.7079 32.9365 53.7459C32.8427 53.785 32.7488 53.824 32.6521 53.8642C32.5575 53.9032 32.4629 53.9423 32.3655 53.9825C32.1313 54.0791 31.8973 54.1761 31.6633 54.2733C31.7799 54.5296 31.9006 54.7145 32.1016 54.9112C32.1745 54.9833 32.1745 54.9833 32.249 55.0568C32.2995 55.1058 32.35 55.1548 32.402 55.2053C32.4532 55.2557 32.5045 55.306 32.5572 55.358C32.6831 55.4817 32.8096 55.6049 32.9362 55.728C33.1754 55.3693 33.3263 54.9881 33.4931 54.5916C33.5269 54.5127 33.5608 54.4338 33.5957 54.3525C33.6277 54.2767 33.6597 54.2009 33.6927 54.1228C33.7366 54.0189 33.7366 54.0189 33.7815 53.913C33.8602 53.7175 33.8602 53.7175 33.8454 53.4551C33.6016 53.4551 33.4336 53.5408 33.2082 53.6341ZM34.4818 53.4551C34.7644 54.2228 35.0462 54.9855 35.391 55.728C35.872 55.3272 36.3173 54.9029 36.7548 54.4552C36.5518 54.2285 36.3667 54.114 36.0871 53.9967C36.0113 53.9647 35.9354 53.9328 35.8573 53.8999C35.7784 53.8675 35.6995 53.8351 35.6183 53.8017C35.5394 53.7682 35.4605 53.7348 35.3793 53.7003C34.9453 53.5118 34.9453 53.5118 34.4818 53.4551ZM28.4812 53.546C28.3915 53.7332 28.3026 53.9208 28.2141 54.1085C28.1645 54.213 28.1149 54.3174 28.0639 54.425C27.9543 54.6838 27.8859 54.9062 27.8447 55.1825C28.2208 54.8751 28.5551 54.5765 28.8448 54.1824C28.7548 53.9724 28.6648 53.7624 28.5721 53.546C28.5421 53.546 28.5121 53.546 28.4812 53.546ZM34.1181 53.546C33.8181 54.2961 33.5181 55.0461 33.2089 55.819C33.839 55.819 34.4691 55.819 35.1182 55.819C34.9496 55.2569 34.795 54.7533 34.567 54.2222C34.521 54.1133 34.4749 54.0044 34.4275 53.8923C34.3274 53.6279 34.3274 53.6279 34.1181 53.546ZM39.846 53.546C39.6381 53.8841 39.6381 53.8841 39.5846 54.2648C39.6966 54.5327 39.8702 54.6871 40.079 54.887C40.1541 54.9597 40.2292 55.0324 40.3066 55.1072C40.3646 55.1621 40.4227 55.2169 40.4824 55.2734C40.5956 55.0988 40.5956 55.0988 40.5252 54.9291C40.4845 54.8334 40.4845 54.8334 40.443 54.7357C40.414 54.6666 40.385 54.5975 40.3551 54.5262C40.324 54.454 40.2929 54.3818 40.2608 54.3074C40.2301 54.2345 40.1993 54.1616 40.1676 54.0865C40.0913 53.9061 40.0142 53.726 39.9369 53.546C39.9069 53.546 39.8769 53.546 39.846 53.546ZM30.3393 54.7961C30.2759 54.8191 30.2124 54.8421 30.147 54.8657C29.7966 54.994 29.7966 54.994 29.564 55.2692C29.5613 55.4952 29.5613 55.4952 29.754 55.819C30.2341 55.819 30.7141 55.819 31.2087 55.819C31.2087 55.3989 31.2087 54.9789 31.2087 54.5461C30.9002 54.5461 30.6238 54.6862 30.3393 54.7961ZM37.1184 54.5461C37.1184 54.9661 37.1184 55.3862 37.1184 55.819C37.6285 55.819 38.1385 55.819 38.6641 55.819C38.7241 55.6089 38.7841 55.3989 38.8459 55.1825C38.6094 55.0758 38.3726 54.9699 38.1356 54.8643C38.0685 54.834 38.0014 54.8036 37.9323 54.7723C37.8675 54.7436 37.8028 54.7149 37.736 54.6853C37.6765 54.6587 37.617 54.632 37.5557 54.6045C37.3775 54.5309 37.3775 54.5309 37.1184 54.5461ZM39.3914 54.5461C39.3314 54.7261 39.2714 54.9061 39.2096 55.0916C39.3397 55.1552 39.4706 55.2175 39.6017 55.2791C39.6744 55.3139 39.7472 55.3487 39.8222 55.3846C40.0388 55.4823 40.0388 55.4823 40.3006 55.3644C40.1664 55.2277 40.0318 55.0914 39.8971 54.9552C39.8223 54.8793 39.7474 54.8033 39.6702 54.7251C39.5146 54.5356 39.5146 54.5356 39.3914 54.5461ZM28.668 54.7961C28.6026 54.8636 28.5372 54.9311 28.4698 55.0007C28.4039 55.0682 28.3381 55.1357 28.2702 55.2053C28.2198 55.2578 28.1694 55.3103 28.1175 55.3644C28.2075 55.4094 28.2075 55.4094 28.2993 55.4553C28.5034 55.3855 28.5034 55.3855 28.7198 55.2791C28.8313 55.2273 28.8313 55.2273 28.945 55.1744C29.002 55.147 29.0589 55.1197 29.1176 55.0916C29.0876 54.9416 29.0576 54.7916 29.0267 54.637C28.8277 54.6167 28.8277 54.6167 28.668 54.7961ZM36.4499 55.0204C36.3986 55.072 36.3473 55.1237 36.2945 55.1768C36.2429 55.2281 36.1912 55.2794 36.138 55.3322C35.8763 55.5414 35.8763 55.5414 35.7547 55.819C36.1447 55.819 36.5347 55.819 36.9366 55.819C36.9366 55.4289 36.9366 55.0389 36.9366 54.637C36.7279 54.637 36.5902 54.8804 36.4499 55.0204ZM31.4815 54.7279C31.4815 55.088 31.4815 55.448 31.4815 55.819C31.8415 55.819 32.2016 55.819 32.5725 55.819C32.2331 55.4068 31.9011 55.0576 31.4815 54.7279ZM28.6005 55.5462C28.4903 55.5968 28.4903 55.5968 28.3778 55.6485C28.294 55.6879 28.294 55.6879 28.2084 55.728C28.2084 55.758 28.2084 55.788 28.2084 55.819C28.6285 55.819 29.0485 55.819 29.4813 55.819C29.4213 55.6689 29.3613 55.5189 29.2994 55.3644C29.0052 55.3644 28.8642 55.4239 28.6005 55.5462ZM39.1187 55.3644C39.0586 55.5144 38.9986 55.6644 38.9368 55.819C39.3569 55.819 39.7769 55.819 40.2097 55.819C39.9961 55.6054 39.8499 55.5706 39.5619 55.4894C39.4791 55.4657 39.3964 55.442 39.3111 55.4176C39.2476 55.4001 39.1841 55.3825 39.1187 55.3644ZM28.1175 56.0917C28.3655 56.3397 28.6603 56.4323 28.9812 56.5577C29.0439 56.5829 29.1066 56.6081 29.1712 56.634C29.498 56.7716 29.498 56.7716 29.8449 56.8191C29.7667 56.4252 29.7667 56.4252 29.5722 56.0917C29.327 56.0851 29.0842 56.0833 28.8392 56.086C28.7357 56.0866 28.7357 56.0866 28.6302 56.0873C28.4593 56.0883 28.2884 56.09 28.1175 56.0917ZM29.9359 56.0917C30.0173 56.499 30.0761 56.7492 30.2995 57.0918C30.6214 57.2642 30.8428 57.3646 31.2087 57.3646C31.2087 56.9445 31.2087 56.5245 31.2087 56.0917C30.7887 56.0917 30.3686 56.0917 29.9359 56.0917ZM31.4815 56.0917C31.4815 56.5718 31.4815 57.0518 31.4815 57.5464C31.6915 57.6364 31.9015 57.7264 32.1179 57.8192C32.2246 57.5827 32.3306 57.3459 32.4361 57.1089C32.4665 57.0418 32.4968 56.9747 32.5281 56.9055C32.5712 56.8084 32.5712 56.8084 32.6151 56.7093C32.6418 56.6498 32.6685 56.5903 32.6959 56.529C32.7696 56.3507 32.7696 56.3507 32.7543 56.0917C32.3343 56.0917 31.9143 56.0917 31.4815 56.0917ZM33.3908 56.0917C33.4733 56.193 33.5558 56.2942 33.6408 56.3986C33.6872 56.4555 33.7336 56.5125 33.7814 56.5712C33.9437 56.7357 34.089 56.8192 34.3 56.91C34.4215 56.7909 34.5426 56.6715 34.6636 56.552C34.7311 56.4855 34.7986 56.4191 34.8682 56.3506C35.0377 56.2102 35.0377 56.2102 35.0273 56.0917C34.4873 56.0917 33.9472 56.0917 33.3908 56.0917ZM35.5728 56.0917C35.6617 56.3304 35.7508 56.5691 35.8399 56.8077C35.8778 56.9095 35.8778 56.9095 35.9164 57.0133C36.0502 57.3761 36.0502 57.3761 36.2093 57.7282C36.5847 57.6767 36.5847 57.6767 36.9366 57.5464C36.9366 57.0664 36.9366 56.5863 36.9366 56.0917C36.4866 56.0917 36.0365 56.0917 35.5728 56.0917ZM37.1184 56.0917C37.1184 56.5418 37.1184 56.9918 37.1184 57.4555C37.7732 57.3045 37.7732 57.3045 38.2659 56.8919C38.3836 56.6241 38.4822 56.3863 38.4822 56.0917C38.0322 56.0917 37.5821 56.0917 37.1184 56.0917ZM38.755 56.0917C38.665 56.3617 38.575 56.6318 38.4822 56.91C39.0823 56.67 39.6823 56.4299 40.3006 56.1826C40.3006 56.1526 40.3006 56.1226 40.3006 56.0917C39.7905 56.0917 39.2805 56.0917 38.755 56.0917ZM33.0271 56.2736C32.918 56.5099 32.8103 56.7466 32.7032 56.9839C32.6721 57.0509 32.641 57.118 32.6089 57.1872C32.5799 57.2519 32.5509 57.3167 32.521 57.3834C32.4939 57.4429 32.4667 57.5024 32.4388 57.5637C32.3682 57.7471 32.3682 57.7471 32.4816 58.001C32.6616 58.061 32.8416 58.121 33.0271 58.1828C33.3271 57.8828 33.6272 57.5828 33.9363 57.2737C33.779 56.9591 33.673 56.806 33.4306 56.569C33.3742 56.5132 33.3178 56.4575 33.2597 56.4C33.1384 56.2635 33.1384 56.2635 33.0271 56.2736ZM35.0124 56.4525C34.9386 56.5285 34.8647 56.6044 34.7886 56.6827C34.7143 56.7586 34.64 56.8346 34.5635 56.9128C34.5065 56.9719 34.4496 57.031 34.3909 57.0918C34.7253 57.5033 35.0647 57.855 35.4819 58.1828C35.6619 58.0928 35.8419 58.0028 36.0274 57.9101C35.9385 57.6714 35.8495 57.4327 35.7603 57.1941C35.7351 57.1262 35.7098 57.0584 35.6838 56.9885C35.55 56.6257 35.55 56.6257 35.391 56.2736C35.1872 56.2532 35.1872 56.2532 35.0124 56.4525ZM33.9302 57.5436C33.8554 57.6195 33.7805 57.6955 33.7033 57.7737C33.6282 57.8497 33.5531 57.9256 33.4757 58.0038C33.3886 58.0925 33.3886 58.0925 33.2999 58.1828C33.529 58.4233 33.7021 58.5467 34.0272 58.6374C34.3905 58.6072 34.6948 58.5114 35.0273 58.3647C34.8998 58.0749 34.7475 57.8808 34.5216 57.6601C34.4652 57.6043 34.4088 57.5485 34.3507 57.491C34.1337 57.2973 34.1516 57.3327 33.9302 57.5436ZM30.4814 57.4555C30.6685 58.0422 30.8836 58.6134 31.1178 59.1829C31.1478 59.1829 31.1778 59.1829 31.2087 59.1829C31.2087 58.7029 31.2087 58.2228 31.2087 57.7282C30.7378 57.4419 30.7378 57.4419 30.4814 57.4555ZM37.7549 57.4555C37.4398 57.5905 37.4398 57.5905 37.1184 57.7282C37.1184 58.2683 37.1184 58.8084 37.1184 59.3648C37.2647 59.1454 37.3597 58.9677 37.4573 58.7273C37.4854 58.6584 37.5135 58.5896 37.5425 58.5186C37.5713 58.4472 37.6002 58.3758 37.6299 58.3022C37.6594 58.2297 37.6889 58.1572 37.7194 58.0825C37.7921 57.9039 37.8644 57.7252 37.9367 57.5464C37.8767 57.5164 37.8167 57.4864 37.7549 57.4555ZM31.4815 57.8192C31.4815 58.2692 31.4815 58.7193 31.4815 59.1829C31.8166 58.8479 31.9361 58.4676 31.9361 58.001C31.7111 57.911 31.7111 57.911 31.4815 57.8192ZM36.3911 58.001C36.5314 58.4302 36.6709 58.8572 36.8457 59.2739C36.8757 59.2739 36.9057 59.2739 36.9366 59.2739C36.9366 58.7938 36.9366 58.3138 36.9366 57.8192C36.7471 57.8192 36.564 57.9301 36.3911 58.001ZM32.2088 58.1828C32.1455 58.3302 32.0832 58.4781 32.0213 58.6261C31.9865 58.7083 31.9517 58.7906 31.9158 58.8754C31.8177 59.0903 31.8177 59.0903 31.9361 59.2739C32.2061 59.0038 32.4761 58.7338 32.7543 58.4556C32.7243 58.3956 32.6943 58.3356 32.6634 58.2738C32.4336 58.2142 32.4336 58.2142 32.2088 58.1828ZM35.9365 58.1828C35.8465 58.2729 35.7565 58.3629 35.6637 58.4556C35.9338 58.7256 36.2038 58.9957 36.482 59.2739C36.512 59.2139 36.542 59.1539 36.5729 59.092C36.4825 58.8667 36.4825 58.8667 36.3513 58.6261C36.3083 58.5433 36.2653 58.4606 36.221 58.3753C36.1702 58.2801 36.1702 58.2801 36.1183 58.1828C36.0583 58.1828 35.9983 58.1828 35.9365 58.1828ZM33.0271 58.4556C32.6971 58.7856 32.367 59.1157 32.027 59.4557C32.2016 59.5689 32.2016 59.5689 32.3714 59.4985C32.4352 59.4714 32.499 59.4442 32.5647 59.4163C32.6338 59.3873 32.703 59.3583 32.7742 59.3284C32.8464 59.2973 32.9186 59.2661 32.993 59.2341C33.1024 59.1879 33.1024 59.1879 33.2139 59.1409C33.3944 59.0646 33.5744 58.9875 33.7544 58.9102C33.7544 58.8502 33.7544 58.7902 33.7544 58.7284C33.5144 58.6383 33.2744 58.5483 33.0271 58.4556ZM34.6636 58.7284C34.6636 58.7884 34.6636 58.8484 34.6636 58.9102C34.8868 59.0039 35.1103 59.0965 35.3342 59.1886C35.3977 59.2154 35.4612 59.2422 35.5267 59.2698C35.6915 59.3371 35.8593 59.397 36.0274 59.4557C36.0874 59.4257 36.1474 59.3957 36.2093 59.3648C36.0794 59.2276 35.9485 59.0914 35.8172 58.9557C35.7444 58.8797 35.6716 58.8038 35.5966 58.7255C35.2608 58.4332 35.0388 58.5661 34.6636 58.7284Z" fill="#E4E4E4"/>
<path d="M2.02176 42.9357C2.45628 43.2953 2.45628 43.2953 2.56975 43.6357C2.56186 43.8317 2.54786 44.0274 2.53078 44.2227C2.46425 45.0789 2.46566 45.9329 2.46594 46.7913C2.46566 46.9672 2.46534 47.1432 2.46498 47.3191C2.46427 47.695 2.4638 48.0709 2.4635 48.4469C2.46296 49.0414 2.46145 49.6358 2.45974 50.2303C2.45917 50.4345 2.45859 50.6386 2.45802 50.8428C2.45773 50.9449 2.45744 51.047 2.45714 51.1523C2.45333 52.5344 2.45031 53.9166 2.4492 55.2987C2.44844 56.234 2.4464 57.1693 2.4429 58.1046C2.4411 58.5987 2.43997 59.0929 2.44043 59.5871C2.44085 60.0508 2.4396 60.5145 2.43706 60.9783C2.43643 61.1484 2.43642 61.3186 2.43708 61.4888C2.43788 61.7209 2.43647 61.9529 2.43449 62.185C2.43526 62.2525 2.43602 62.3199 2.43682 62.3894C2.42985 62.8309 2.33557 63.0535 2.02424 63.3651C1.70725 63.5946 1.40621 63.5799 1.02414 63.5469C0.682994 63.4288 0.524224 63.3455 0.328784 63.0399C0.177687 62.6573 0.167808 62.3489 0.171232 61.9419C0.170806 61.8638 0.170381 61.7858 0.169943 61.7054C0.168857 61.4445 0.169716 61.1836 0.170574 60.9227C0.170205 60.7354 0.169719 60.5481 0.169126 60.3608C0.167883 59.8525 0.168365 59.3442 0.169229 58.8359C0.16992 58.3039 0.16928 57.772 0.168851 57.24C0.168355 56.3467 0.169009 55.4534 0.170308 54.5601C0.171792 53.5273 0.171311 52.4945 0.16981 51.4617C0.168572 50.575 0.168397 49.6882 0.169111 48.8015C0.169537 48.2719 0.169593 47.7423 0.168692 47.2127C0.167904 46.7148 0.168451 46.2169 0.170027 45.719C0.170388 45.5362 0.170284 45.3535 0.169683 45.1707C0.168937 44.9213 0.169872 44.6719 0.171232 44.4225C0.170623 44.3502 0.170015 44.2779 0.169388 44.2033C0.174012 43.7661 0.241991 43.4713 0.478624 43.0902C0.920244 42.6771 1.4946 42.5881 2.02176 42.9357Z" fill="#E4E4E4"/>
<path d="M92.9883 42.7836C93.091 42.8022 93.091 42.8022 93.1957 42.8212C93.4881 42.9479 93.5903 43.0938 93.7611 43.3632C93.7964 43.6388 93.8107 43.881 93.8079 44.1563C93.8089 44.276 93.8089 44.276 93.8098 44.3982C93.8115 44.6657 93.8106 44.9331 93.8096 45.2006C93.8103 45.3923 93.8111 45.5841 93.812 45.7758C93.8141 46.2968 93.8138 46.8176 93.813 47.3385C93.8125 47.7733 93.8132 48.208 93.8138 48.6427C93.8154 49.6682 93.8151 50.6937 93.8135 51.7191C93.812 52.7774 93.8134 53.8356 93.8164 54.8939C93.8188 55.8023 93.8195 56.7106 93.8187 57.619C93.8183 58.1616 93.8185 58.7042 93.8203 59.2468C93.822 59.757 93.8214 60.2672 93.8192 60.7774C93.8188 60.9647 93.8191 61.152 93.8202 61.3393C93.8217 61.595 93.8203 61.8504 93.8183 62.1061C93.8199 62.2173 93.8199 62.2173 93.8215 62.3308C93.8155 62.6999 93.78 62.9338 93.5473 63.2281C93.2601 63.5002 93.1178 63.5409 92.7269 63.5699C92.3064 63.5409 92.1018 63.405 91.7837 63.1437C91.5 62.7892 91.5659 62.3079 91.5663 61.8765C91.566 61.799 91.5658 61.7215 91.5655 61.6416C91.5647 61.3814 91.5646 61.1212 91.5644 60.861C91.564 60.6746 91.5636 60.4882 91.5631 60.3019C91.5619 59.7952 91.5613 59.2886 91.5609 58.782C91.5606 58.4656 91.5602 58.1492 91.5598 57.8327C91.5586 56.843 91.5577 55.8533 91.5574 54.8635C91.557 53.7205 91.5554 52.5775 91.5527 51.4344C91.5508 50.5512 91.5498 49.6679 91.5497 48.7847C91.5496 48.257 91.5491 47.7293 91.5475 47.2016C91.546 46.7053 91.5458 46.2091 91.5466 45.7128C91.5466 45.5307 91.5462 45.3485 91.5454 45.1664C91.5442 44.9177 91.5447 44.6691 91.5457 44.4205C91.5449 44.3484 91.5442 44.2763 91.5435 44.202C91.5474 43.7652 91.6154 43.4712 91.8518 43.0904C92.2034 42.7616 92.5213 42.6892 92.9883 42.7836Z" fill="#E4E4E4"/>
<path d="M78.123 42.7268C78.3725 45.2049 77.9469 46.9701 76.8411 49.1849C76.4232 50.0238 76.0589 50.8839 75.6953 51.7475C75.527 52.1469 75.3564 52.5453 75.1859 52.9438C75.1572 53.0113 75.1285 53.0787 75.0989 53.1482C74.8992 53.6163 74.6941 54.0817 74.4863 54.5462C74.4263 54.5462 74.3662 54.5462 74.3044 54.5462C74.2955 54.6073 74.2866 54.6684 74.2774 54.7313C74.1837 55.1264 74.0081 55.4816 73.8388 55.8488C73.6699 56.2231 73.5264 56.599 73.3942 56.9879C73.0518 57.9601 72.6271 58.8992 72.2147 59.8432C72.0708 60.1727 71.9276 60.5026 71.7845 60.8324C71.6924 61.0439 71.6004 61.2553 71.5083 61.4667C71.4659 61.5644 71.4234 61.662 71.3797 61.7626C70.7495 63.2037 70.7495 63.2037 70.4574 63.4563C70.0502 63.6078 69.7239 63.6141 69.3266 63.4335C68.9733 63.1587 68.9733 63.1587 68.8493 62.9108C68.776 62.3133 68.9021 61.8582 69.153 61.3218C69.2011 61.214 69.2011 61.214 69.2502 61.104C69.3558 60.8684 69.4634 60.6338 69.571 60.3991C69.646 60.2326 69.7208 60.0659 69.7954 59.8993C69.9494 59.5556 70.1041 59.2122 70.2592 58.869C70.5675 58.1851 70.8663 57.4971 71.1646 56.8087C71.323 56.4435 71.4821 56.0786 71.6411 55.7136C71.6729 55.6408 71.7046 55.5679 71.7374 55.4928C72.1813 54.4746 72.6284 53.4578 73.0752 52.4409C73.1434 52.2857 73.2116 52.1305 73.2798 51.9753C73.313 51.8997 73.3463 51.8241 73.3805 51.7462C73.6638 51.1011 73.9463 50.4558 74.2285 49.8102C74.4658 49.2674 74.7033 48.7247 74.9409 48.1819C74.9902 48.0692 74.9902 48.0692 75.0405 47.9542C75.2588 47.4555 75.4773 46.9568 75.6959 46.4582C75.7672 46.2954 75.8385 46.1326 75.9098 45.9698C76.1027 45.529 76.2965 45.0887 76.4916 44.6488C76.5724 44.4657 76.6517 44.282 76.7308 44.0982C76.7997 43.9417 76.7997 43.9417 76.87 43.782C76.9276 43.6491 76.9276 43.6491 76.9863 43.5135C77.2663 43.019 77.5502 42.7268 78.123 42.7268Z" fill="#E4E4E4"/>
<path d="M50.2113 42.9085C50.6351 43.2375 50.6351 43.2375 50.7075 43.5328C50.7231 43.7419 50.724 43.9466 50.7201 44.1562C50.7205 44.236 50.7208 44.3159 50.7212 44.3981C50.7217 44.6656 50.719 44.933 50.7163 45.2005C50.7161 45.3922 50.716 45.584 50.7161 45.7758C50.7157 46.2967 50.7125 46.8176 50.7086 47.3385C50.7049 47.8834 50.7034 48.4283 50.7016 48.9733C50.6981 49.8885 50.6927 50.8038 50.6863 51.719C50.6789 52.7773 50.6747 53.8355 50.6722 54.8938C50.6701 55.8022 50.6661 56.7105 50.6607 57.6189C50.6574 58.1615 50.6548 58.7041 50.6537 59.2467C50.6527 59.757 50.6494 60.2671 50.6444 60.7774C50.6429 60.9646 50.6422 61.1519 50.6423 61.3392C50.6423 61.5949 50.6396 61.8504 50.6361 62.106C50.6368 62.1801 50.6374 62.2543 50.6381 62.3307C50.6301 62.6994 50.5933 62.9341 50.3609 63.228C50.0739 63.5002 49.9316 63.5408 49.5408 63.5698C49.1838 63.5452 49.0327 63.4967 48.7566 63.2743C48.4507 62.8817 48.4452 62.516 48.4492 62.037C48.4488 61.9583 48.4483 61.8795 48.4479 61.7984C48.4468 61.5347 48.4477 61.2711 48.4485 61.0074C48.4482 60.8183 48.4477 60.6292 48.4471 60.4402C48.4458 59.9266 48.4463 59.413 48.4472 58.8994C48.4479 58.3622 48.4472 57.8249 48.4468 57.2876C48.4463 56.3852 48.447 55.4827 48.4483 54.5803C48.4497 53.5369 48.4493 52.4935 48.4478 51.4502C48.4465 50.5545 48.4464 49.6589 48.4471 48.7633C48.4475 48.2283 48.4475 47.6933 48.4466 47.1583C48.4459 46.6553 48.4464 46.1523 48.448 45.6492C48.4483 45.4646 48.4482 45.2799 48.4476 45.0953C48.4469 44.8432 48.4478 44.5913 48.4492 44.3392C48.4486 44.2661 48.448 44.193 48.4473 44.1177C48.4519 43.6802 48.5119 43.377 48.7566 42.9994C49.2453 42.6867 49.6786 42.6601 50.2113 42.9085Z" fill="#E4E4E4"/>
<path d="M31.4474 45.7497C31.7542 45.8179 31.7542 45.8179 31.8452 45.9088C31.8489 46.0603 31.849 46.2119 31.8452 46.3634C31.896 46.3768 31.9469 46.3901 31.9993 46.4039C32.6048 46.5733 33.161 46.8117 33.7275 47.0808C34.3555 47.2921 34.8851 46.9744 35.4592 46.7214C35.6139 46.6538 35.7687 46.5864 35.9237 46.5193C35.9917 46.4894 36.0596 46.4595 36.1296 46.4287C36.3002 46.3634 36.3002 46.3634 36.482 46.3634C36.4914 46.2922 36.5008 46.2209 36.5104 46.1475C36.5729 45.9088 36.5729 45.9088 36.8457 45.727C37.1065 45.6944 37.2409 45.6822 37.4539 45.8428C37.573 45.9997 37.573 45.9997 37.5244 46.3577C37.5139 46.4302 37.5035 46.5026 37.4927 46.5772C37.4567 47.3953 37.9071 48.3606 38.3913 49.0001C38.9882 49.4782 39.8533 49.8367 40.6276 49.8103C40.7666 49.7934 40.9053 49.7729 41.043 49.7472C41.2098 49.7274 41.2098 49.7274 41.4428 49.824C41.6301 50.0765 41.6182 50.2391 41.5735 50.5457C41.4598 50.7161 41.4598 50.7161 41.3007 50.8184C41.1807 50.8184 41.0607 50.8184 40.937 50.8184C40.93 50.8762 40.923 50.934 40.9157 50.9935C40.8539 51.2416 40.7773 51.434 40.6685 51.6633C40.1979 52.538 40.1979 52.538 40.1756 53.4835C40.2427 53.6279 40.3154 53.7698 40.3915 53.9097C40.4642 54.0767 40.5368 54.2438 40.6074 54.4117C40.6783 54.5787 40.7527 54.7441 40.8273 54.9094C40.937 55.1825 40.937 55.1825 40.937 55.4553C41.0252 55.4665 41.1133 55.4778 41.2041 55.4894C41.296 55.5081 41.3879 55.5269 41.4825 55.5462C41.6081 55.7974 41.5908 55.996 41.5735 56.2736C41.3916 56.4554 41.3916 56.4554 41.0734 56.4724C40.7552 56.4554 40.7552 56.4554 40.5733 56.3645C39.751 56.5236 38.7411 56.8473 38.1981 57.5092C37.6812 58.3742 37.4173 59.1868 37.573 60.1831C37.431 60.4217 37.431 60.4217 37.2094 60.5467C36.9309 60.5581 36.9309 60.5581 36.6638 60.4558C36.6335 60.3729 36.6031 60.2901 36.5719 60.2047C36.2947 59.7533 35.8949 59.6473 35.4137 59.4614C35.3249 59.4241 35.236 59.3867 35.1445 59.3483C34.4455 59.069 34.0204 59.0698 33.3208 59.3509C33.1676 59.4173 33.0148 59.4844 32.8623 59.5523C32.7084 59.6199 32.5544 59.6873 32.4003 59.7544C32.3329 59.7843 32.2655 59.8142 32.1961 59.845C32.027 59.9103 32.027 59.9103 31.8452 59.9103C31.8283 60.0172 31.8283 60.0172 31.8111 60.1262C31.7542 60.3649 31.7542 60.3649 31.5724 60.5467C31.0765 60.5054 31.0765 60.5054 30.8451 60.274C30.8253 59.9652 30.8377 59.7505 30.936 59.4557C30.7932 58.6207 30.4674 57.5901 29.7602 57.0823C29.1232 56.7537 28.4476 56.5389 27.7538 56.3645C27.7088 56.4095 27.7088 56.4095 27.6629 56.4554C27.3504 56.4724 27.3504 56.4724 27.0265 56.4554C26.8446 56.2736 26.8446 56.2736 26.8219 55.9553C26.8446 55.6371 26.8446 55.6371 27.0265 55.4553C27.0847 55.4454 27.143 55.4355 27.203 55.4253C27.4775 55.3359 27.5255 55.1874 27.6565 54.935C28.2386 53.7479 28.2386 53.7479 28.175 52.4646C27.8245 51.4408 27.8245 51.4408 27.0833 50.7126C27.0045 50.6875 26.9258 50.6624 26.8446 50.6366C26.8113 50.048 26.8113 50.048 26.9565 49.8395C27.1174 49.7274 27.1174 49.7274 27.3077 49.7348C27.3799 49.7501 27.4521 49.7653 27.5265 49.781C28.108 49.8587 28.5099 49.6637 29.0267 49.4149C29.1952 49.3371 29.3637 49.2596 29.5324 49.1822C29.6057 49.1474 29.6789 49.1125 29.7544 49.0766C29.9359 49.0001 29.9359 49.0001 30.1177 49.0001C30.125 48.9424 30.1322 48.8847 30.1397 48.8253C30.2004 48.579 30.2756 48.3815 30.3798 48.152C30.4127 48.0792 30.4457 48.0064 30.4796 47.9314C30.5486 47.781 30.6186 47.6311 30.6899 47.4818C30.9024 47.0057 30.9677 46.6872 30.8507 46.1742C30.8451 45.9997 30.8451 45.9997 30.9577 45.8388C31.1178 45.727 31.1178 45.727 31.4474 45.7497ZM31.4417 46.5712C31.1136 46.7907 31.028 47.0646 30.9132 47.426C30.8912 47.4893 30.8692 47.5525 30.8465 47.6176C30.7104 48.0138 30.5935 48.4147 30.4814 48.8182C30.8414 48.6832 30.8414 48.6832 31.2087 48.5455C31.1178 48.8182 31.1178 48.8182 30.9196 48.9219C30.7983 48.9718 30.7983 48.9718 30.6746 49.0228C30.3537 49.174 30.1581 49.2708 30.0154 49.6024C29.9245 49.9004 29.9245 49.9004 29.9359 50.182C29.8009 50.137 29.8009 50.137 29.6631 50.0911C29.7231 49.8811 29.7831 49.671 29.8449 49.4546C29.4082 49.5227 29.0108 49.671 28.6005 49.8297C28.5304 49.8543 28.4602 49.8789 28.3879 49.9043C28.0335 50.043 27.8787 50.124 27.6817 50.4601C27.6544 50.9796 27.8414 51.3493 28.0607 51.8129C28.1005 51.901 28.1404 51.9892 28.1814 52.0801C28.2796 52.2968 28.3796 52.5126 28.4812 52.7277C28.6832 52.5257 28.7472 52.3563 28.8448 52.0913C28.9358 52.364 28.9358 52.364 28.7994 52.6709C28.6569 53.0152 28.6372 53.1139 28.7539 53.4551C28.7877 53.5338 28.8214 53.6126 28.8562 53.6937C28.9358 53.9097 28.9358 53.9097 28.8448 54.1824C28.7548 53.9724 28.6648 53.7624 28.5721 53.546C28.236 53.714 28.1502 54.1444 28.0095 54.4779C27.9749 54.5561 27.9403 54.6343 27.9046 54.7148C27.8723 54.7909 27.84 54.8669 27.8067 54.9453C27.7769 55.0147 27.7472 55.0841 27.7165 55.1556C27.6286 55.498 27.7354 55.7638 27.8447 56.0917C28.0233 56.1971 28.0233 56.1971 28.245 56.2775C28.3259 56.3094 28.4068 56.3413 28.4902 56.3742C28.5754 56.4066 28.6605 56.439 28.7482 56.4724C28.8754 56.5226 28.8754 56.5226 29.0052 56.5738C29.4136 56.7506 29.4136 56.7506 29.8449 56.8191C29.7849 56.609 29.7249 56.399 29.6631 56.1826C29.7981 56.1376 29.7981 56.1376 29.9359 56.0917C29.9452 56.1555 29.9546 56.2192 29.9643 56.2849C30.0389 56.597 30.1235 56.8218 30.2995 57.0918C30.6214 57.2642 30.8428 57.3646 31.2087 57.3646C31.1637 57.4996 31.1637 57.4996 31.1178 57.6373C30.9078 57.5773 30.6978 57.5173 30.4814 57.4555C30.5415 57.6421 30.6023 57.8286 30.6657 58.0141C30.7299 58.2025 30.7913 58.3919 30.8511 58.5817C31.0429 59.2249 31.0429 59.2249 31.4815 59.7C32.0109 59.8449 32.5748 59.4163 33.0271 59.1829C33.2676 59.0839 33.5091 58.9968 33.7544 58.9102C33.7544 58.8502 33.7544 58.7902 33.7544 58.7284C33.5444 58.6383 33.3344 58.5483 33.118 58.4556C33.3908 58.3647 33.3908 58.3647 33.6919 58.5011C34.2321 58.7208 34.6741 58.5252 35.2091 58.3647C35.2392 58.4247 35.2692 58.4847 35.3001 58.5465C34.985 58.6365 34.985 58.6365 34.6636 58.7284C34.6636 58.7884 34.6636 58.8484 34.6636 58.9102C34.9865 59.0529 35.3107 59.1921 35.6353 59.3307C35.7727 59.3915 35.7727 59.3915 35.9129 59.4536C36.046 59.5098 36.046 59.5098 36.1819 59.5672C36.2633 59.6025 36.3447 59.6377 36.4286 59.674C36.7307 59.7439 36.8554 59.7079 37.1184 59.5466C37.2544 59.3417 37.2544 59.3417 37.3418 59.0913C37.3773 59.0017 37.4127 58.912 37.4493 58.8196C37.4845 58.7258 37.5197 58.6319 37.556 58.5352C37.593 58.4406 37.6299 58.346 37.668 58.2485C37.7591 58.015 37.8486 57.781 37.9367 57.5464C37.8767 57.5164 37.8167 57.4864 37.7549 57.4555C37.5403 57.5406 37.3279 57.6313 37.1184 57.7282C37.1634 57.5932 37.1634 57.5932 37.2094 57.4555C37.4043 57.3781 37.4043 57.3781 37.6469 57.3077C37.9326 57.2031 38.0821 57.1432 38.2595 56.8929C38.3775 56.6253 38.4822 56.3866 38.4822 56.0917C38.5722 56.0917 38.6622 56.0917 38.755 56.0917C38.665 56.3617 38.575 56.6318 38.4822 56.91C38.8285 56.7909 39.1725 56.6663 39.5164 56.5406C39.6637 56.4901 39.6637 56.4901 39.814 56.4385C40.3722 56.2379 40.3722 56.2379 40.7552 55.8076C40.7552 55.2969 40.5733 54.9173 40.3574 54.4609C40.3176 54.3727 40.2777 54.2845 40.2367 54.1936C40.1384 53.9769 40.0385 53.7611 39.9369 53.546C39.7785 53.7548 39.6279 53.9641 39.4823 54.1824C39.5241 53.8899 39.5707 53.643 39.6869 53.3698C39.7806 52.9873 39.6526 52.8019 39.4823 52.455C39.4198 52.1879 39.4198 52.1879 39.3914 52.0004C39.6867 52.148 39.7279 52.4326 39.846 52.7277C40.1325 52.4412 40.2538 52.0787 40.4142 51.7106C40.4496 51.6343 40.485 51.5581 40.5215 51.4795C40.6793 51.1159 40.7576 50.8704 40.7392 50.4697C40.4927 50.0421 40.1658 49.9446 39.7153 49.7785C39.636 49.7467 39.5567 49.7149 39.475 49.6821C39.0372 49.5063 39.0372 49.5063 38.5731 49.4546C38.6207 49.7058 38.6739 49.9389 38.755 50.182C38.665 50.182 38.575 50.182 38.4822 50.182C38.4657 50.1261 38.4492 50.0702 38.4321 50.0126C38.4093 49.9391 38.3864 49.8656 38.3629 49.7899C38.3407 49.7171 38.3186 49.6443 38.2958 49.5694C38.1678 49.2645 38.0359 49.1326 37.7311 49.0047C37.6583 48.9825 37.5855 48.9604 37.5105 48.9375C37.437 48.9147 37.3636 48.8918 37.2878 48.8683C37.2319 48.8518 37.176 48.8352 37.1184 48.8182C37.1184 48.7282 37.1184 48.6382 37.1184 48.5455C37.3885 48.6355 37.6585 48.7255 37.9367 48.8182C37.8517 48.589 37.7664 48.3598 37.681 48.1306C37.6454 48.0346 37.6454 48.0346 37.6091 47.9366C37.5611 47.808 37.5123 47.6797 37.4627 47.5517C37.416 47.4289 37.3721 47.3049 37.3314 47.18C37.2298 46.893 37.1437 46.7443 36.8904 46.5715C36.396 46.5306 36.0257 46.736 35.5842 46.943C35.4956 46.9829 35.407 47.0227 35.3157 47.0638C35.0976 47.1621 34.8803 47.2621 34.6636 47.3635C34.6636 47.4235 34.6636 47.4835 34.6636 47.5454C34.8737 47.6054 35.0837 47.6654 35.3001 47.7272C35.2701 47.7872 35.2401 47.8472 35.2091 47.909C35.1575 47.8883 35.1058 47.8675 35.0525 47.8462C34.3662 47.5907 33.8964 47.6575 33.2089 47.909C33.2089 47.849 33.2089 47.789 33.2089 47.7272C33.389 47.6372 33.569 47.5472 33.7544 47.4544C33.458 47.158 33.07 47.0438 32.6862 46.8862C32.6048 46.8508 32.5235 46.8154 32.4397 46.7789C32.0819 46.6322 31.8311 46.5389 31.4417 46.5712Z" fill="#E4E4E4"/>
<path d="M96.7616 36.4532C97.0041 36.6034 97.0891 36.6617 97.2162 36.9078C97.2731 37.3275 97.2588 37.741 97.2446 38.1636C97.2426 38.2786 97.2405 38.3937 97.2384 38.5122C97.233 38.7958 97.2256 39.0791 97.2162 39.3626C97.2854 39.3612 97.3547 39.3597 97.426 39.3583C97.7406 39.3526 98.0551 39.349 98.3697 39.3455C98.4787 39.3433 98.5876 39.341 98.6998 39.3386C98.805 39.3377 98.9102 39.3369 99.0186 39.336C99.1152 39.3345 99.2119 39.3331 99.3115 39.3316C99.6187 39.367 99.7874 39.4528 100.035 39.6353C100.177 39.9203 100.203 40.2383 100.126 40.5445C99.8834 40.7835 99.7339 40.8988 99.3941 40.9495C99.2936 40.9476 99.1931 40.9457 99.0896 40.9437C98.9803 40.9426 98.871 40.9414 98.7584 40.9402C98.6452 40.9371 98.5319 40.9341 98.4152 40.9309C98.3002 40.9293 98.1851 40.9277 98.0666 40.926C97.7831 40.9217 97.4997 40.9157 97.2162 40.9082C97.2176 41.0169 97.2176 41.0169 97.2191 41.1278C97.2229 41.4561 97.2252 41.7845 97.2276 42.1129C97.2291 42.2269 97.2306 42.341 97.2322 42.4584C97.2331 42.6228 97.2331 42.6228 97.234 42.7905C97.2354 42.9419 97.2354 42.9419 97.2368 43.0964C97.2164 43.3602 97.1764 43.5065 97.0344 43.7267C96.7459 43.9597 96.4652 43.9129 96.1163 43.8794C95.8696 43.7913 95.8035 43.6786 95.6706 43.4539C95.6396 43.179 95.6396 43.179 95.6439 42.8615C95.6448 42.7479 95.6457 42.6342 95.6466 42.517C95.6489 42.3987 95.6512 42.2803 95.6535 42.1583C95.6554 41.9787 95.6554 41.9787 95.6573 41.7954C95.6605 41.4996 95.665 41.2039 95.6706 40.9082C95.5986 40.9101 95.5266 40.912 95.4524 40.914C95.1255 40.9216 94.7986 40.9263 94.4716 40.9309C94.3583 40.934 94.245 40.937 94.1283 40.9402C94.019 40.9413 93.9098 40.9425 93.7972 40.9437C93.6967 40.9456 93.5962 40.9475 93.4927 40.9495C93.1525 40.8988 93.0036 40.7838 92.7612 40.5445C92.7008 40.3428 92.7008 40.3428 92.7044 40.1354C92.7032 40.067 92.702 39.9985 92.7008 39.928C92.7911 39.6264 92.9565 39.5337 93.2158 39.3626C93.4927 39.3213 93.4927 39.3213 93.7972 39.3271C93.9064 39.3282 94.0157 39.3294 94.1283 39.3306C94.2416 39.3337 94.3549 39.3367 94.4716 39.3399C94.5866 39.3415 94.7017 39.3431 94.8202 39.3448C95.1037 39.3491 95.3871 39.3551 95.6706 39.3626C95.6682 39.2874 95.6658 39.2122 95.6634 39.1347C95.6539 38.794 95.648 38.4533 95.6422 38.1125C95.6384 37.9941 95.6345 37.8757 95.6306 37.7538C95.6292 37.6401 95.6277 37.5264 95.6262 37.4093C95.6238 37.3045 95.6214 37.1998 95.619 37.0918C95.6706 36.8169 95.6706 36.8169 95.8808 36.6012C96.2045 36.4051 96.3891 36.3933 96.7616 36.4532Z" fill="#E4E4E4"/>
<path d="M29.3907 55.1826C29.4507 55.1826 29.5107 55.1826 29.5725 55.1826C29.6867 55.4468 29.7543 55.6187 29.7543 55.91C29.6643 55.91 29.5743 55.91 29.4816 55.91C29.3516 55.6959 29.2919 55.5935 29.3338 55.3417C29.3526 55.2892 29.3713 55.2367 29.3907 55.1826Z" fill="#E4E4E4"/>
<path d="M29.1179 51.1821C29.2079 51.1821 29.2979 51.1821 29.3906 51.1821C29.3111 51.7049 29.3111 51.7049 29.2088 51.9095C29.1188 51.8795 29.0288 51.8495 28.936 51.8186C28.996 51.6085 29.056 51.3985 29.1179 51.1821Z" fill="#E4E4E4"/>
<path d="M39.2101 54.3643C39.2701 54.3643 39.3301 54.3643 39.392 54.3643C39.362 54.5743 39.332 54.7843 39.3011 55.0007C39.181 55.0007 39.061 55.0007 38.9374 55.0007C39.0274 54.7907 39.1174 54.5806 39.2101 54.3643Z" fill="#E4E4E4"/>
<path d="M29.4815 50.3638C29.5715 50.3638 29.6615 50.3638 29.7542 50.3638C29.7089 50.699 29.6542 50.8734 29.3906 51.0911C29.3059 50.8542 29.2861 50.76 29.3849 50.5229C29.4168 50.4704 29.4486 50.4179 29.4815 50.3638Z" fill="#E4E4E4"/>
<path d="M36.3004 48.1816C36.5104 48.2416 36.7205 48.3017 36.9368 48.3635C36.9068 48.4835 36.8768 48.6035 36.8459 48.7272C36.6659 48.6371 36.4859 48.5471 36.3004 48.4544C36.3004 48.3644 36.3004 48.2744 36.3004 48.1816Z" fill="#E4E4E4"/>
<path d="M36.1194 57.9099C36.1194 57.9999 36.1194 58.0899 36.1194 58.1827C35.9054 58.3126 35.803 58.3724 35.5512 58.3304C35.4987 58.3117 35.4462 58.2929 35.3921 58.2736C35.6126 58.032 35.7775 57.9099 36.1194 57.9099Z" fill="#E4E4E4"/>
<path d="M32.3 57.9099C32.51 57.9699 32.7201 58.0299 32.9365 58.0917C32.9065 58.1818 32.8764 58.2718 32.8455 58.3645C32.6355 58.3045 32.4255 58.2445 32.2091 58.1827C32.2391 58.0927 32.2691 58.0026 32.3 57.9099Z" fill="#E4E4E4"/>
<path d="M36.9368 57.5464C36.9068 57.6664 36.8768 57.7864 36.8459 57.9101C36.6659 57.9401 36.4859 57.9701 36.3004 58.001C36.3004 57.911 36.3004 57.821 36.3004 57.7282C36.7323 57.5464 36.7323 57.5464 36.9368 57.5464Z" fill="#E4E4E4"/>
<path d="M38.8466 55.1826C38.9366 55.2126 39.0267 55.2426 39.1194 55.2735C39.0455 55.5406 39.0455 55.5406 38.9376 55.819C38.8475 55.8491 38.7575 55.8791 38.6648 55.91C38.7443 55.3872 38.7443 55.3872 38.8466 55.1826Z" fill="#E4E4E4"/>
<path d="M29.027 54.3643C29.087 54.3643 29.147 54.3643 29.2088 54.3643C29.2688 54.5743 29.3288 54.7843 29.3906 55.0007C29.3006 55.0307 29.2106 55.0607 29.1179 55.0916C29.0579 54.8816 28.9979 54.6716 28.936 54.4552C28.966 54.4252 28.996 54.3952 29.027 54.3643Z" fill="#E4E4E4"/>
<path d="M38.5737 50.3638C38.6937 50.3638 38.8138 50.3638 38.9374 50.3638C38.9974 50.5738 39.0574 50.7838 39.1192 51.0002C38.9488 50.9888 38.9488 50.9888 38.7556 50.9093C38.6419 50.6308 38.6419 50.6308 38.5737 50.3638Z" fill="#E4E4E4"/>
<path d="M31.4819 57.5464C31.797 57.6814 31.797 57.6814 32.1184 57.8191C32.0884 57.9092 32.0584 57.9992 32.0274 58.0919C31.8474 58.0019 31.6674 57.9119 31.4819 57.8191C31.4819 57.7291 31.4819 57.6391 31.4819 57.5464Z" fill="#E4E4E4"/>
<path d="M39.0283 51.1821C39.1183 51.2121 39.2083 51.2421 39.3011 51.273C39.3311 51.4531 39.3611 51.6331 39.392 51.8186C39.302 51.8636 39.302 51.8636 39.2101 51.9095C39.1201 51.6995 39.0301 51.4894 38.9374 51.273C38.9674 51.243 38.9974 51.213 39.0283 51.1821Z" fill="#E4E4E4"/>
<path d="M31.9365 48.1816C31.9965 48.2116 32.0565 48.2416 32.1184 48.2726C32.0884 48.3626 32.0584 48.4526 32.0274 48.5453C31.749 48.6533 31.749 48.6533 31.4819 48.7272C31.4819 48.6071 31.4819 48.4871 31.4819 48.3635C31.6979 48.2669 31.6979 48.2669 31.9365 48.1816Z" fill="#E4E4E4"/>
<path d="M35.483 47.9089C35.753 47.9539 35.753 47.9539 36.0285 47.9999C36.0285 48.1199 36.0285 48.2399 36.0285 48.3635C35.8185 48.2735 35.6085 48.1835 35.3921 48.0908C35.4221 48.0308 35.4521 47.9708 35.483 47.9089Z" fill="#E4E4E4"/>
<path d="M32.9366 47.9089C32.9066 47.9989 32.8766 48.089 32.8457 48.1817C32.5672 48.2897 32.5672 48.2897 32.3002 48.3635C32.3343 48.1874 32.3343 48.1874 32.3911 47.9999C32.5729 47.9089 32.5729 47.9089 32.9366 47.9089Z" fill="#E4E4E4"/>
</g>
<defs>
<clipPath id="clip0_2377_7605">
<rect width="100" height="100" fill="white" transform="translate(0.168213 -0.00439453)"/>
</clipPath>
</defs>
</svg>
