<svg width="101" height="101" viewBox="0 0 101 101" fill="none" xmlns="http://www.w3.org/2000/svg">
<g clip-path="url(#clip0_2377_7576)">
<path d="M2.14925 43.6611C2.54339 44.0319 2.84769 44.4708 3.16454 44.9071C3.4329 45.2722 3.70955 45.631 3.98468 45.9909C4.11136 46.157 4.23803 46.3231 4.36469 46.4892C4.42865 46.5731 4.49261 46.6569 4.55851 46.7433C4.81002 47.0731 5.06129 47.403 5.31256 47.733C5.8069 48.3821 6.30167 49.0308 6.79747 49.6788C6.94251 49.8685 7.08755 50.0582 7.23258 50.2479C7.34177 50.3906 7.45101 50.5333 7.56029 50.676C8.42452 51.8046 9.27719 52.9408 10.116 54.0884C10.6449 53.47 11.1244 52.8298 11.5895 52.1629C11.9376 51.6645 12.2942 51.1732 12.656 50.6846C13.0707 50.1246 13.4821 49.5626 13.8891 48.9969C14.4501 48.2178 15.019 47.4447 15.5896 46.6726C15.758 46.4443 15.926 46.2157 16.0939 45.987C16.1501 45.9106 16.2062 45.8342 16.264 45.7555C16.3701 45.611 16.4761 45.4666 16.582 45.322C17.8913 43.5413 17.8913 43.5413 18.526 43.36C18.8978 43.36 19.0807 43.4291 19.3897 43.6327C19.7979 44.069 19.7668 44.5479 19.7662 45.1181C19.7664 45.1952 19.7667 45.2724 19.767 45.3519C19.7678 45.6108 19.7679 45.8698 19.768 46.1287C19.7685 46.3142 19.7689 46.4997 19.7694 46.6851C19.7706 47.1893 19.7712 47.6935 19.7716 48.1977C19.7719 48.5126 19.7722 48.8275 19.7726 49.1424C19.7739 50.1274 19.7748 51.1123 19.7751 52.0973C19.7755 53.2348 19.7771 54.3724 19.7797 55.5099C19.7817 56.3889 19.7826 57.2679 19.7827 58.1469C19.7828 58.6721 19.7834 59.1972 19.785 59.7224C19.7865 60.2162 19.7867 60.7101 19.7859 61.204C19.7858 61.3852 19.7862 61.5665 19.7871 61.7478C19.7883 61.9952 19.7877 62.2426 19.7868 62.4901C19.7879 62.5977 19.7879 62.5977 19.789 62.7075C19.7844 63.2208 19.6723 63.5851 19.3443 63.9815C19.0276 64.2322 18.6837 64.2069 18.2987 64.1804C17.9646 64.0285 17.7615 63.8577 17.5713 63.5439C17.4619 63.2166 17.4678 62.8998 17.466 62.5566C17.4656 62.494 17.4651 62.4313 17.4647 62.3667C17.4633 62.1567 17.4625 61.9468 17.4618 61.7368C17.4609 61.5863 17.46 61.4358 17.459 61.2852C17.4566 60.8765 17.4547 60.4678 17.4528 60.059C17.4509 59.6319 17.4484 59.2048 17.4459 58.7777C17.4414 57.9688 17.4373 57.16 17.4334 56.3511C17.4289 55.4303 17.4239 54.5095 17.4189 53.5886C17.4085 51.6944 17.3988 49.8002 17.3895 47.9059C17.1564 48.2107 16.9234 48.5158 16.6906 48.8208C16.625 48.9065 16.5594 48.9922 16.4919 49.0806C16.147 49.5326 15.8073 49.9866 15.4802 50.4516C15.0995 50.9924 14.7006 51.5179 14.2983 52.0427C13.8944 52.5696 13.4929 53.0967 13.1106 53.6395C12.5754 54.3983 12.0153 55.1385 11.4553 55.8792C11.3504 56.0188 11.2464 56.1591 11.1433 56.3C11.0953 56.3654 11.0473 56.4307 10.9978 56.4981C10.9557 56.556 10.9136 56.614 10.8702 56.6737C10.6977 56.882 10.5638 56.9524 10.2978 56.9978C10.0024 57.0205 10.0024 57.0205 9.66141 56.9069C9.08988 56.4045 8.64602 55.7556 8.1886 55.151C7.89535 54.7635 7.59634 54.3806 7.29752 53.9975C6.85984 53.4355 6.42432 52.872 5.99057 52.3069C5.70042 51.9298 5.40784 51.5545 5.11548 51.179C4.40239 50.2628 3.69261 49.3445 2.99665 48.4152C2.94661 48.3484 2.89657 48.2817 2.84502 48.2129C2.72293 48.05 2.60087 47.887 2.47883 47.7241C2.47863 47.8457 2.47863 47.8457 2.47843 47.9699C2.47506 49.9427 2.4697 51.9156 2.46211 53.8885C2.45849 54.8425 2.45555 55.7966 2.4542 56.7507C2.45301 57.5821 2.45057 58.4136 2.44659 59.2451C2.44453 59.6854 2.44311 60.1257 2.44321 60.5661C2.44327 60.9805 2.44165 61.3949 2.43872 61.8093C2.43795 61.9614 2.43779 62.1135 2.4383 62.2657C2.43891 62.4734 2.43728 62.681 2.4351 62.8887C2.43477 63.0049 2.43443 63.1212 2.43409 63.2409C2.37999 63.596 2.2724 63.7443 2.02424 63.9985C1.70725 64.2281 1.40621 64.2133 1.02414 64.1804C0.682994 64.0623 0.524224 63.9789 0.328784 63.6734C0.177687 63.2907 0.167808 62.9823 0.171232 62.5753C0.170806 62.4973 0.170381 62.4192 0.169943 62.3388C0.168857 62.0779 0.169716 61.817 0.170574 61.5561C0.170205 61.3688 0.169719 61.1815 0.169126 60.9942C0.167883 60.4859 0.168365 59.9776 0.169229 59.4693C0.16992 58.9374 0.16928 58.4054 0.168851 57.8735C0.168355 56.9802 0.169009 56.0868 0.170308 55.1935C0.171792 54.1607 0.171311 53.1279 0.16981 52.0951C0.168572 51.2084 0.168397 50.3217 0.169111 49.4349C0.169537 48.9053 0.169593 48.3757 0.168692 47.8461C0.167904 47.3482 0.168451 46.8503 0.170027 46.3524C0.170388 46.1697 0.170284 45.9869 0.169683 45.8042C0.168937 45.5547 0.169872 45.3054 0.171232 45.0559C0.170623 44.9836 0.170015 44.9113 0.169388 44.8368C0.174012 44.3996 0.241991 44.1048 0.478624 43.7237C0.970816 43.2632 1.61084 43.2364 2.14925 43.6611Z" fill="#191919"/>
<path d="M50.2113 43.5416C51.0405 44.2945 51.7157 45.2344 52.3889 46.1255C52.743 46.5921 53.1094 47.0465 53.4843 47.4966C53.9578 48.0651 54.4118 48.6452 54.8577 49.2354C55.2072 49.6958 55.5693 50.1437 55.9392 50.5878C56.4126 51.1564 56.8666 51.7364 57.3125 52.3267C57.662 52.787 58.0241 53.2349 58.394 53.6791C58.8156 54.1854 59.2241 54.6989 59.6214 55.2247C60.0242 55.7579 60.4387 56.279 60.8658 56.793C61.3074 57.3246 61.7384 57.8615 62.1562 58.412C62.3949 58.7261 62.6352 59.039 62.876 59.3515C62.9174 59.4054 62.9588 59.4592 63.0015 59.5146C63.1022 59.6454 63.2029 59.7762 63.3036 59.907C63.3039 59.7853 63.3039 59.7853 63.3042 59.6612C63.3096 57.6883 63.3165 55.7155 63.325 53.7426C63.3291 52.7885 63.3327 51.8345 63.3351 50.8804C63.3372 50.0489 63.3402 49.2175 63.3444 48.386C63.3465 47.9456 63.3482 47.5053 63.3488 47.065C63.3494 46.6506 63.3512 46.2362 63.354 45.8218C63.3548 45.6697 63.3551 45.5175 63.3549 45.3654C63.3548 45.1577 63.3563 44.9501 63.3582 44.7424C63.3587 44.6262 63.3591 44.5099 63.3595 44.3902C63.3971 44.0646 63.4728 43.8932 63.6672 43.6326C63.9481 43.4389 64.2502 43.3538 64.591 43.368C64.9108 43.4307 65.0723 43.4936 65.3115 43.725C65.5467 44.0914 65.5364 44.3668 65.5318 44.7934C65.5324 44.8737 65.5329 44.9539 65.5335 45.0366C65.535 45.3056 65.5338 45.5744 65.5327 45.8434C65.5332 46.0362 65.5338 46.229 65.5346 46.4218C65.5363 46.9455 65.5356 47.4692 65.5345 47.9929C65.5335 48.5407 65.5344 49.0885 65.535 49.6362C65.5356 50.5562 65.5348 51.4761 65.533 52.396C65.531 53.46 65.5317 54.5239 65.5337 55.5878C65.5353 56.5009 65.5356 57.4139 65.5346 58.327C65.5341 58.8725 65.534 59.418 65.5352 59.9635C65.5362 60.4764 65.5355 60.9892 65.5334 61.502C65.5329 61.6904 65.5331 61.8787 65.5339 62.0671C65.5349 62.3239 65.5336 62.5807 65.5318 62.8375C65.5326 62.9123 65.5334 62.9871 65.5343 63.0641C65.5294 63.42 65.5094 63.5961 65.3179 63.9061C65.062 64.1453 64.8953 64.1767 64.548 64.2029C64.0573 64.1696 63.7723 64.014 63.4272 63.6638C63.3471 63.5678 63.268 63.4709 63.1899 63.3733C63.1469 63.321 63.1039 63.2687 63.0595 63.2148C62.7357 62.8185 62.423 62.4138 62.1135 62.0062C61.8064 61.6025 61.4882 61.2087 61.167 60.8162C60.7349 60.2878 60.3154 59.7523 59.9016 59.2095C59.639 58.8681 59.3659 58.5354 59.0929 58.2023C58.6848 57.704 58.2882 57.1987 57.8996 56.6851C57.4434 56.0823 56.9699 55.4965 56.4867 54.9152C56.0968 54.4452 55.7231 53.966 55.3535 53.4798C55.0863 53.1312 54.808 52.7917 54.5299 52.4517C54.0978 51.9233 53.6783 51.3878 53.2645 50.845C52.9571 50.4453 52.6356 50.0571 52.316 49.6671C51.9411 49.2075 51.5778 48.7401 51.2188 48.268C51.1652 48.1977 51.1116 48.1273 51.0563 48.0549C50.9261 47.884 50.7959 47.7131 50.6659 47.5421C50.6658 47.665 50.6658 47.665 50.6657 47.7904C50.6644 49.7846 50.6605 51.7787 50.6539 53.7729C50.6507 54.7372 50.6484 55.7016 50.6481 56.6659C50.6478 57.5064 50.646 58.3469 50.6422 59.1874C50.6402 59.6325 50.6391 60.0776 50.6399 60.5226C50.6405 60.9416 50.6391 61.3605 50.636 61.7794C50.6353 61.9332 50.6353 62.0869 50.6362 62.2406C50.6372 62.4507 50.6355 62.6606 50.6331 62.8707C50.6327 63.0469 50.6327 63.0469 50.6323 63.2267C50.5565 63.646 50.4223 63.7927 50.1204 64.0893C49.7107 64.2258 49.3619 64.2453 48.9611 64.0722C48.7185 63.8767 48.6176 63.7357 48.4838 63.4528C48.458 63.1853 48.447 62.9374 48.4492 62.6701C48.4488 62.5914 48.4483 62.5127 48.4479 62.4316C48.4468 62.1679 48.4477 61.9042 48.4485 61.6405C48.4482 61.4514 48.4477 61.2624 48.4471 61.0733C48.4458 60.5597 48.4463 60.0461 48.4472 59.5326C48.4479 58.9953 48.4472 58.458 48.4468 57.9207C48.4463 57.0183 48.447 56.1159 48.4483 55.2134C48.4497 54.17 48.4493 53.1267 48.4478 52.0833C48.4465 51.1877 48.4464 50.2921 48.4471 49.3965C48.4475 48.8615 48.4475 48.3265 48.4466 47.7915C48.4459 47.2884 48.4464 46.7854 48.448 46.2823C48.4483 46.0977 48.4482 45.913 48.4476 45.7284C48.4469 45.4763 48.4478 45.2244 48.4492 44.9724C48.4486 44.8993 48.448 44.8262 48.4473 44.7508C48.4519 44.3133 48.5119 44.0101 48.7566 43.6326C49.2453 43.3198 49.6786 43.2932 50.2113 43.5416Z" fill="#191919"/>
<path d="M30.8248 43.4201C30.9053 43.419 30.9858 43.418 31.0687 43.4169C31.3348 43.4138 31.6008 43.4121 31.8669 43.4107C32.0035 43.4098 32.0035 43.4098 32.1428 43.4088C32.6247 43.4055 33.1066 43.4034 33.5884 43.4022C34.0854 43.4007 34.5822 43.3953 35.0791 43.3891C35.4619 43.3851 35.8447 43.3838 36.2275 43.3834C36.4107 43.3827 36.5938 43.3809 36.7769 43.378C38.3891 43.3543 38.3891 43.3543 38.7971 43.6978C38.9069 43.8255 39.0139 43.9557 39.1191 44.0873C39.2534 44.2242 39.391 44.3572 39.529 44.4904C39.803 44.7556 40.0711 45.0267 40.3405 45.2966C40.4574 45.4135 40.5744 45.5303 40.6914 45.6472C40.9351 45.8908 41.1786 46.1345 41.422 46.3783C41.7343 46.6911 42.0471 47.0036 42.36 47.3159C42.6009 47.5565 42.8416 47.7974 43.0823 48.0383C43.1976 48.1536 43.313 48.2689 43.4284 48.3842C43.589 48.5446 43.7493 48.7052 43.9096 48.8659C43.9813 48.9374 43.9813 48.9374 44.0545 49.0103C44.4907 49.4491 44.4985 49.7252 44.5037 50.3277C44.5048 50.409 44.5058 50.4903 44.5069 50.5741C44.5169 51.4256 44.5213 52.2772 44.5251 53.1287C44.5272 53.5326 44.531 53.9365 44.5363 54.3404C44.5428 54.8281 44.5461 55.3158 44.5472 55.8036C44.5482 55.9893 44.5502 56.1749 44.5534 56.3606C44.5798 57.997 44.5798 57.997 44.2364 58.4048C44.1087 58.5141 43.9785 58.6205 43.8469 58.7252C43.7102 58.8593 43.5776 58.997 43.4448 59.135C43.1804 59.4091 42.91 59.6772 42.6408 59.9465C42.5241 60.0635 42.4075 60.1805 42.2908 60.2975C42.0477 60.5411 41.8043 60.7847 41.5609 61.028C41.2487 61.3402 40.9371 61.6531 40.6257 61.966C40.3856 62.2071 40.1451 62.4478 39.9045 62.6883C39.7894 62.8036 39.6744 62.919 39.5596 63.0345C39.3997 63.1953 39.2392 63.3555 39.0785 63.5156C39.0075 63.5874 39.0075 63.5874 38.9351 63.6606C38.4886 64.1032 38.1324 64.1035 37.5288 64.1055C37.45 64.1061 37.3712 64.1067 37.29 64.1073C37.0289 64.1091 36.7677 64.1101 36.5066 64.111C36.3728 64.1116 36.3728 64.1116 36.2362 64.1122C35.7639 64.1141 35.2916 64.1154 34.8192 64.1162C34.3318 64.1172 33.8444 64.1203 33.357 64.124C32.9818 64.1263 32.6066 64.1271 32.2315 64.1274C32.0518 64.1279 31.8722 64.1289 31.6925 64.1306C31.4407 64.1328 31.189 64.1327 30.9372 64.1321C30.8265 64.1339 30.8265 64.1339 30.7136 64.1356C29.9159 64.1284 29.4601 63.746 28.92 63.1963C28.8678 63.1444 28.8157 63.0925 28.762 63.0389C28.5915 62.8687 28.422 62.6976 28.2526 62.5264C28.1337 62.4072 28.0148 62.2881 27.8958 62.1691C27.6474 61.9203 27.3995 61.671 27.1519 61.4214C26.8344 61.1014 26.5162 60.7822 26.1977 60.4633C25.9525 60.2177 25.7076 59.9719 25.4628 59.726C25.3455 59.6082 25.2281 59.4904 25.1107 59.3727C24.9471 59.2084 24.7837 59.0438 24.6205 58.8791C24.572 58.8305 24.5235 58.7819 24.4735 58.7318C23.9935 58.2462 23.9079 57.9454 23.905 57.2764C23.9034 57.1518 23.9034 57.1518 23.9018 57.0246C23.8987 56.7491 23.897 56.4737 23.8956 56.1983C23.8949 56.1041 23.8943 56.01 23.8937 55.913C23.8904 55.4146 23.8883 54.9163 23.887 54.4179C23.8855 53.9037 23.8802 53.3897 23.874 52.8756C23.8699 52.4797 23.8687 52.0839 23.8682 51.688C23.8675 51.4986 23.8657 51.3091 23.8628 51.1196C23.8591 50.8539 23.8593 50.5884 23.8606 50.3226C23.8586 50.2449 23.8566 50.1671 23.8545 50.0871C23.8629 49.5428 24.0213 49.2755 24.4001 48.8893C24.4568 48.8348 24.5136 48.7803 24.5721 48.7241C24.6614 48.6311 24.7506 48.5379 24.8395 48.4446C24.9281 48.3552 25.0169 48.266 25.106 48.1771C25.1552 48.1276 25.2043 48.0781 25.255 48.0271C25.4148 47.8664 25.575 47.7061 25.7352 47.5457C25.8476 47.4331 25.96 47.3204 26.0724 47.2077C26.3066 46.973 26.541 46.7384 26.7755 46.5039C27.0758 46.2036 27.3756 45.9026 27.6752 45.6014C27.9064 45.3692 28.1381 45.1373 28.3699 44.9056C28.4806 44.7947 28.5912 44.6837 28.7017 44.5726C28.8557 44.4177 29.0103 44.2633 29.165 44.1092C29.2103 44.0633 29.2556 44.0175 29.3023 43.9703C29.7996 43.4775 30.1346 43.4232 30.8248 43.4201ZM25.845 50.3607C25.002 52.4908 25.002 55.0494 25.845 57.1796C26.8056 59.3469 28.7398 61.3014 30.9592 62.1692C33.191 62.954 35.9048 62.9305 38.0596 61.91C40.0888 60.8745 41.8849 59.033 42.6331 56.8572C43.3435 54.5738 43.3028 51.8335 42.2047 49.6775C41.1083 47.6703 39.2502 45.9325 37.0476 45.2347C32.5195 43.9379 27.7777 46.0002 25.845 50.3607Z" fill="#191919"/>
<path d="M78.1514 43.3372C78.2205 43.3348 78.2895 43.3325 78.3606 43.3301C78.6491 43.3697 78.8016 43.4541 79.0322 43.6327C79.1941 43.8816 79.1941 43.8816 79.3504 44.2066C79.3807 44.2694 79.4109 44.3321 79.4421 44.3968C79.8522 45.262 80.2237 46.1453 80.6013 47.0251C80.9406 47.8157 81.2865 48.6035 81.633 49.3911C82.2097 50.7021 82.7845 52.0138 83.3565 53.3269C83.3882 53.3997 83.4199 53.4725 83.4526 53.5475C83.7083 54.1343 83.9638 54.7212 84.2193 55.3081C84.4111 55.7488 84.603 56.1894 84.7949 56.63C84.8585 56.7759 84.922 56.9218 84.9856 57.0677C85.3632 57.9349 85.7424 58.8012 86.1239 59.6667C86.1996 59.8386 86.2753 60.0105 86.351 60.1824C86.4959 60.5114 86.6411 60.8402 86.7865 61.1689C86.8525 61.3186 86.9184 61.4682 86.9844 61.6179C87.0143 61.6853 87.0443 61.7528 87.0751 61.8223C87.5615 62.9286 87.5615 62.9286 87.3967 63.5439C87.204 63.8541 87.0244 64.0619 86.6694 64.1803C86.2625 64.2187 85.9687 64.206 85.6292 63.9638C84.2563 62.5388 83.2742 58.7736 82.6689 57.3614C79.6386 57.3314 76.6083 57.3014 73.4862 57.2705C73.3961 57.5405 73.3061 57.8105 73.2134 58.0887C73.1439 58.2661 73.0723 58.4426 72.9977 58.6179C72.9573 58.7132 72.9169 58.8085 72.8753 58.9067C72.8324 59.007 72.7895 59.1073 72.7453 59.2107C72.7004 59.3163 72.6554 59.422 72.6091 59.5308C72.5143 59.7533 72.4195 59.9758 72.3244 60.1981C72.2036 60.4805 72.0834 60.763 71.9634 61.0457C71.8474 61.3187 71.7309 61.5915 71.6145 61.8643C71.5507 62.0145 71.5507 62.0145 71.4856 62.1678C70.7853 63.8022 70.7853 63.8022 70.4517 64.1007C70.0442 64.2366 69.7202 64.2455 69.3266 64.0666C68.9733 63.7918 68.9733 63.7918 68.8493 63.5439C68.776 62.9464 68.9021 62.4913 69.153 61.9549C69.2011 61.8471 69.2011 61.8471 69.2502 61.7371C69.3558 61.5015 69.4634 61.2669 69.571 61.0322C69.646 60.8657 69.7208 60.6991 69.7954 60.5324C69.9494 60.1887 70.1041 59.8453 70.2592 59.5021C70.5675 58.8182 70.8663 58.1302 71.1646 57.4418C71.323 57.0766 71.4821 56.7117 71.6411 56.3467C71.6729 56.2739 71.7046 56.201 71.7374 56.126C72.1813 55.1078 72.6284 54.0909 73.0752 53.074C73.1434 52.9188 73.2116 52.7636 73.2798 52.6084C73.313 52.5328 73.3463 52.4572 73.3805 52.3793C73.6638 51.7342 73.9463 51.0889 74.2285 50.4433C74.4658 49.9005 74.7033 49.3578 74.9409 48.815C74.9902 48.7023 74.9902 48.7023 75.0405 48.5873C75.2588 48.0886 75.4773 47.5899 75.6959 47.0913C75.7672 46.9285 75.8385 46.7657 75.9098 46.603C76.1027 46.1622 76.2965 45.7218 76.4916 45.2819C76.5724 45.0988 76.6517 44.9151 76.7308 44.7313C76.7997 44.5748 76.7997 44.5748 76.87 44.4151C76.9276 44.2822 76.9276 44.2822 76.9863 44.1466C77.2679 43.6493 77.5787 43.3487 78.1514 43.3372ZM78.0321 46.8148C77.2142 48.6682 76.3997 50.523 75.5994 52.384C75.5283 52.5493 75.4571 52.7146 75.3858 52.8798C75.2855 53.112 75.1858 53.3444 75.0861 53.5769C75.0569 53.6444 75.0277 53.7119 74.9976 53.7814C74.8003 54.2438 74.6465 54.6987 74.4863 55.1793C76.8865 55.1793 79.2868 55.1793 81.7598 55.1793C81.531 54.4908 81.531 54.4908 81.2625 53.8251C81.2189 53.7252 81.1753 53.6252 81.1304 53.5223C81.0831 53.4147 81.0357 53.307 80.9869 53.1962C80.9095 53.0191 80.8323 52.842 80.755 52.6649C80.6988 52.536 80.6425 52.4072 80.5862 52.2783C80.1458 51.2702 79.7115 50.2593 79.276 49.249C79.1672 48.9967 79.0583 48.7445 78.9494 48.4922C78.9012 48.3803 78.9012 48.3803 78.852 48.266C78.6426 47.7808 78.4295 47.2973 78.2139 46.8148C78.1539 46.8148 78.0939 46.8148 78.0321 46.8148Z" fill="#191919"/>
<path d="M31.4474 46.383C31.7542 46.4512 31.7542 46.4512 31.8452 46.5421C31.8489 46.6936 31.849 46.8452 31.8452 46.9967C31.896 47.0101 31.9469 47.0234 31.9993 47.0372C32.6048 47.2066 33.161 47.445 33.7275 47.7141C34.3555 47.9254 34.8851 47.6077 35.4592 47.3547C35.6139 47.2871 35.7687 47.2197 35.9237 47.1526C35.9917 47.1227 36.0596 47.0928 36.1296 47.062C36.3002 46.9967 36.3002 46.9967 36.482 46.9967C36.4914 46.9255 36.5008 46.8542 36.5104 46.7808C36.5729 46.5421 36.5729 46.5421 36.8457 46.3603C37.1065 46.3277 37.2409 46.3155 37.4539 46.4761C37.573 46.633 37.573 46.633 37.5244 46.991C37.5139 47.0635 37.5035 47.1359 37.4927 47.2105C37.4567 48.0286 37.9071 48.9939 38.3913 49.6334C38.9882 50.1115 39.8533 50.47 40.6276 50.4436C40.7666 50.4267 40.9053 50.4062 41.043 50.3805C41.2098 50.3607 41.2098 50.3607 41.4428 50.4573C41.6301 50.7098 41.6182 50.8724 41.5735 51.179C41.4598 51.3494 41.4598 51.3494 41.3007 51.4517C41.1807 51.4517 41.0607 51.4517 40.937 51.4517C40.93 51.5095 40.923 51.5673 40.9157 51.6268C40.8539 51.8749 40.7773 52.0673 40.6685 52.2966C40.1979 53.1713 40.1979 53.1713 40.1756 54.1168C40.2427 54.2612 40.3154 54.4031 40.3915 54.543C40.4642 54.71 40.5368 54.8771 40.6074 55.045C40.6783 55.212 40.7527 55.3774 40.8273 55.5427C40.937 55.8158 40.937 55.8158 40.937 56.0886C41.0252 56.0998 41.1133 56.1111 41.2041 56.1227C41.296 56.1414 41.3879 56.1602 41.4825 56.1795C41.6081 56.4307 41.5908 56.6293 41.5735 56.9069C41.3916 57.0887 41.3916 57.0887 41.0734 57.1057C40.7552 57.0887 40.7552 57.0887 40.5733 56.9978C39.751 57.1569 38.7411 57.4806 38.1981 58.1425C37.6812 59.0075 37.4173 59.8201 37.573 60.8164C37.431 61.055 37.431 61.055 37.2094 61.18C36.9309 61.1914 36.9309 61.1914 36.6638 61.0891C36.6335 61.0063 36.6031 60.9234 36.5719 60.838C36.2947 60.3866 35.8949 60.2806 35.4137 60.0947C35.3249 60.0574 35.236 60.02 35.1445 59.9816C34.4455 59.7023 34.0204 59.7031 33.3208 59.9842C33.1676 60.0506 33.0148 60.1177 32.8623 60.1856C32.7084 60.2532 32.5544 60.3206 32.4003 60.3877C32.3329 60.4176 32.2655 60.4475 32.1961 60.4783C32.027 60.5436 32.027 60.5436 31.8452 60.5436C31.8283 60.6505 31.8283 60.6505 31.8111 60.7595C31.7542 60.9982 31.7542 60.9982 31.5724 61.18C31.0765 61.1387 31.0765 61.1387 30.8451 60.9073C30.8253 60.5985 30.8377 60.3838 30.936 60.089C30.7932 59.254 30.4674 58.2234 29.7602 57.7156C29.1232 57.387 28.4476 57.1722 27.7538 56.9978C27.7088 57.0428 27.7088 57.0428 27.6629 57.0887C27.3504 57.1057 27.3504 57.1057 27.0265 57.0887C26.8446 56.9069 26.8446 56.9069 26.8219 56.5886C26.8446 56.2704 26.8446 56.2704 27.0265 56.0886C27.0847 56.0787 27.143 56.0688 27.203 56.0586C27.4775 55.9692 27.5255 55.8207 27.6565 55.5683C28.2386 54.3812 28.2386 54.3812 28.175 53.0979C27.8245 52.0741 27.8245 52.0741 27.0833 51.3459C27.0045 51.3208 26.9258 51.2957 26.8446 51.2699C26.8113 50.6813 26.8113 50.6813 26.9565 50.4728C27.1174 50.3607 27.1174 50.3607 27.3077 50.3681C27.3799 50.3834 27.4521 50.3986 27.5265 50.4143C28.108 50.492 28.5099 50.297 29.0267 50.0482C29.1952 49.9704 29.3637 49.8929 29.5324 49.8155C29.6057 49.7807 29.6789 49.7458 29.7544 49.7099C29.9359 49.6334 29.9359 49.6334 30.1177 49.6334C30.125 49.5757 30.1322 49.518 30.1397 49.4586C30.2004 49.2123 30.2756 49.0148 30.3798 48.7853C30.4127 48.7125 30.4457 48.6397 30.4796 48.5647C30.5486 48.4143 30.6186 48.2644 30.6899 48.1151C30.9024 47.639 30.9677 47.3205 30.8507 46.8075C30.8451 46.633 30.8451 46.633 30.9577 46.4721C31.1178 46.3603 31.1178 46.3603 31.4474 46.383ZM32.027 47.3604C32.1599 47.5181 32.2936 47.675 32.429 47.8306C32.5402 47.9594 32.648 48.0912 32.7543 48.2241C32.9354 48.3891 32.9354 48.3891 33.2146 48.3548C33.4854 48.2684 33.5693 48.1995 33.7544 47.9968C33.5008 47.8904 33.247 47.7844 32.993 47.6786C32.9208 47.6482 32.8486 47.6179 32.7742 47.5866C32.7051 47.5579 32.6359 47.5292 32.5647 47.4996C32.5009 47.4729 32.4371 47.4463 32.3714 47.4188C32.2091 47.3501 32.2091 47.3501 32.027 47.3604ZM35.283 47.7184C35.2235 47.7448 35.1641 47.7712 35.1028 47.7985C34.956 47.8638 34.8098 47.9302 34.6636 47.9968C34.6636 48.0568 34.6636 48.1168 34.6636 48.1787C34.9647 48.3246 34.9647 48.3246 35.2915 48.3434C35.5453 48.245 35.6813 48.0966 35.8683 47.9002C35.9646 47.8002 35.9646 47.8002 36.0629 47.6981C36.1112 47.6467 36.1595 47.5952 36.2093 47.5422C35.8372 47.4182 35.621 47.5635 35.283 47.7184ZM37.1184 47.5422C37.1184 48.0823 37.1184 48.6223 37.1184 49.1788C37.3885 49.2688 37.6585 49.3588 37.9367 49.4515C37.8496 49.2185 37.7625 48.9855 37.6753 48.7526C37.6508 48.687 37.6263 48.6214 37.6011 48.5539C37.4742 48.2151 37.3456 47.8774 37.2094 47.5422C37.1794 47.5422 37.1494 47.5422 37.1184 47.5422ZM31.8452 47.6331C31.8638 47.689 31.8824 47.745 31.9016 47.8026C32.004 48.1098 32.1064 48.417 32.2088 48.7242C32.3889 48.6642 32.5689 48.6042 32.7543 48.5423C32.346 48.0395 32.346 48.0395 31.8452 47.6331ZM36.8457 47.6331C36.6957 48.0232 36.5457 48.4132 36.3911 48.8151C36.647 49.0221 36.647 49.0221 36.9366 48.9969C36.9366 48.5469 36.9366 48.0968 36.9366 47.6331C36.9066 47.6331 36.8766 47.6331 36.8457 47.6331ZM31.1178 47.7241C31.009 47.9775 30.9012 48.2314 30.7939 48.4855C30.7628 48.5577 30.7317 48.6299 30.6996 48.7043C30.6561 48.808 30.6561 48.808 30.6117 48.9138C30.5846 48.9776 30.5574 49.0414 30.5295 49.1072C30.4591 49.2769 30.4591 49.2769 30.5723 49.4515C30.7823 49.3615 30.9923 49.2715 31.2087 49.1788C31.2087 48.6987 31.2087 48.2187 31.2087 47.7241C31.1787 47.7241 31.1487 47.7241 31.1178 47.7241ZM31.4815 47.7241C31.4815 48.1441 31.4815 48.5642 31.4815 48.9969C31.6315 48.9669 31.7815 48.9369 31.9361 48.906C31.8823 48.4654 31.7561 48.1234 31.5724 47.7241C31.5424 47.7241 31.5124 47.7241 31.4815 47.7241ZM36.3911 47.7241C36.1511 47.9641 35.911 48.2041 35.6637 48.4514C35.6937 48.5114 35.7237 48.5714 35.7547 48.6333C35.9387 48.6925 35.9387 48.6925 36.1183 48.7242C36.1819 48.6092 36.2442 48.4935 36.3059 48.3775C36.3407 48.3132 36.3755 48.2489 36.4113 48.1826C36.5095 47.9835 36.5095 47.9835 36.3911 47.7241ZM33.2999 48.5423C33.4279 48.8347 33.582 49.0262 33.8113 49.247C33.8687 49.3027 33.9261 49.3585 33.9853 49.416C34.0291 49.4577 34.073 49.4994 34.1181 49.5424C34.2186 49.4573 34.319 49.3721 34.4193 49.2867C34.4752 49.2393 34.5311 49.1918 34.5887 49.1429C34.8167 48.9424 34.8167 48.9424 35.0273 48.7242C35.0273 48.6642 35.0273 48.6042 35.0273 48.5423C34.3362 48.2171 33.991 48.2171 33.2999 48.5423ZM32.3907 48.9969C32.5667 49.5611 32.7776 50.0978 33.0271 50.6335C33.1276 50.5484 33.228 50.4631 33.3283 50.3778C33.3842 50.3303 33.4401 50.2828 33.4977 50.2339C33.6503 50.0996 33.7943 49.9606 33.9363 49.8152C33.8027 49.5062 33.6289 49.3015 33.3908 49.0651C33.327 49.0009 33.2633 48.9367 33.1976 48.8705C32.8807 48.5985 32.7065 48.7975 32.3907 48.9969ZM35.391 48.7242C35.061 49.0542 34.7309 49.3842 34.3909 49.7243C34.4753 49.8237 34.5596 49.923 34.6466 50.0254C34.6941 50.0813 34.7415 50.1373 34.7904 50.1949C34.991 50.4229 34.991 50.4229 35.2091 50.6335C35.2692 50.6335 35.3292 50.6335 35.391 50.6335C35.601 50.0934 35.811 49.5533 36.0274 48.9969C35.8174 48.9069 35.6074 48.8169 35.391 48.7242ZM36.3002 49.0878C36.0018 49.6528 35.7601 50.2041 35.5728 50.8153C36.0229 50.8153 36.4729 50.8153 36.9366 50.8153C36.9366 50.3352 36.9366 49.8552 36.9366 49.3606C36.7266 49.2706 36.5166 49.1806 36.3002 49.0878ZM32.027 49.0878C31.847 49.1779 31.667 49.2679 31.4815 49.3606C31.4815 49.8407 31.4815 50.3207 31.4815 50.8153C31.9315 50.8153 32.3816 50.8153 32.8453 50.8153C32.7437 50.5441 32.6414 50.2733 32.5384 50.0027C32.5096 49.9254 32.4807 49.8481 32.451 49.7685C32.4229 49.6949 32.3948 49.6214 32.3658 49.5456C32.3401 49.4775 32.3144 49.4095 32.2879 49.3393C32.2205 49.1617 32.2205 49.1617 32.027 49.0878ZM37.1184 49.4515C37.1184 49.9016 37.1184 50.3516 37.1184 50.8153C37.5685 50.8153 38.0185 50.8153 38.4822 50.8153C38.4428 50.6859 38.4035 50.5565 38.3629 50.4232C38.3407 50.3504 38.3186 50.2777 38.2958 50.2027C38.1678 49.8978 38.0359 49.7659 37.7311 49.638C37.6583 49.6158 37.5855 49.5937 37.5105 49.5708C37.3811 49.5315 37.2517 49.4921 37.1184 49.4515ZM30.2086 49.9061C29.9976 50.1897 29.9359 50.461 29.9359 50.8153C30.3559 50.8153 30.776 50.8153 31.2087 50.8153C31.2087 50.3653 31.2087 49.9152 31.2087 49.4515C30.8727 49.4515 30.48 49.7283 30.2086 49.9061ZM34.1181 49.997C33.9966 50.1161 33.8755 50.2355 33.7544 50.355C33.6869 50.4215 33.6194 50.4879 33.5499 50.5564C33.3804 50.6968 33.3804 50.6968 33.3908 50.8153C33.9308 50.8153 34.4709 50.8153 35.0273 50.8153C34.9035 50.6634 34.9035 50.6634 34.7773 50.5084C34.7309 50.4515 34.6845 50.3945 34.6366 50.3358C34.4743 50.1713 34.3291 50.0878 34.1181 49.997ZM29.2074 50.2272C29.1386 50.2559 29.0697 50.2846 28.9988 50.3142C28.9274 50.3445 28.8559 50.3749 28.7823 50.4062C28.6736 50.4517 28.6736 50.4517 28.5627 50.4981C28.3838 50.5731 28.2052 50.6487 28.0266 50.7244C28.0266 50.7544 28.0266 50.7844 28.0266 50.8153C28.5366 50.8153 29.0467 50.8153 29.5722 50.8153C29.8585 50.3443 29.8585 50.3443 29.8449 50.0879C29.5742 50.0879 29.4513 50.1245 29.2074 50.2272ZM38.5731 50.0879C38.6207 50.3391 38.6739 50.5722 38.755 50.8153C39.265 50.8153 39.7751 50.8153 40.3006 50.8153C39.9864 50.5796 39.743 50.4456 39.3857 50.2982C39.2909 50.2585 39.1961 50.2187 39.0984 50.1778C38.8477 50.0727 38.8477 50.0727 38.5731 50.0879ZM28.0266 50.9971C28.3453 51.2362 28.5015 51.3222 28.8676 51.4233C28.9487 51.4462 29.0298 51.469 29.1133 51.4926C29.1747 51.5091 29.2362 51.5256 29.2994 51.5426C29.3594 51.3626 29.4194 51.1826 29.4813 50.9971C29.0012 50.9971 28.5212 50.9971 28.0266 50.9971ZM29.754 50.9971C29.5553 51.4123 29.5553 51.4123 29.5722 51.7245C29.8107 51.831 30.0494 51.937 30.2882 52.0427C30.356 52.0731 30.4239 52.1034 30.4938 52.1347C30.5589 52.1634 30.6239 52.1921 30.6909 52.2217C30.7509 52.2484 30.8109 52.275 30.8727 52.3025C31.0277 52.3717 31.0277 52.3717 31.2087 52.3609C31.2087 51.9109 31.2087 51.4608 31.2087 50.9971C30.7287 50.9971 30.2486 50.9971 29.754 50.9971ZM31.4815 50.9971C31.4815 51.3872 31.4815 51.7772 31.4815 52.1791C31.9266 51.8141 32.2984 51.4423 32.6634 50.9971C32.2734 50.9971 31.8833 50.9971 31.4815 50.9971ZM33.2089 50.9971C33.6513 52.1838 33.6513 52.1838 34.1181 53.361C34.3869 53.2266 34.4081 53.0407 34.5166 52.764C34.557 52.6618 34.5975 52.5595 34.6391 52.4541C34.681 52.3465 34.7228 52.2388 34.7659 52.1279C34.8085 52.0199 34.851 51.9119 34.8948 51.8007C35.0002 51.533 35.1047 51.2651 35.2091 50.9971C34.5491 50.9971 33.889 50.9971 33.2089 50.9971ZM35.6637 50.9971C36.0361 51.4421 36.4151 51.8797 36.8457 52.27C36.8757 52.27 36.9057 52.27 36.9366 52.27C36.9366 51.85 36.9366 51.4299 36.9366 50.9971C36.5166 50.9971 36.0965 50.9971 35.6637 50.9971ZM37.1184 50.9971C37.1184 51.4472 37.1184 51.8972 37.1184 52.3609C37.7049 52.1717 38.276 51.9589 38.8459 51.7245C38.7677 51.3306 38.7677 51.3306 38.5731 50.9971C38.328 50.9905 38.0852 50.9887 37.8401 50.9915C37.7366 50.9921 37.7366 50.9921 37.6311 50.9927C37.4602 50.9938 37.2893 50.9954 37.1184 50.9971ZM38.9368 50.9971C38.9668 51.1472 38.9968 51.2972 39.0277 51.4517C39.39 51.5725 39.5187 51.4728 39.863 51.321C40.0112 51.2565 40.0112 51.2565 40.1624 51.1907C40.238 51.1568 40.3136 51.123 40.3915 51.0881C40.3915 51.0581 40.3915 51.028 40.3915 50.9971C39.9115 50.9971 39.4314 50.9971 38.9368 50.9971ZM32.809 51.2958C32.7562 51.3491 32.7033 51.4025 32.6489 51.4574C32.5917 51.5148 32.5346 51.5723 32.4757 51.6314C32.3858 51.7225 32.3858 51.7225 32.2941 51.8154C32.2036 51.9065 32.2036 51.9065 32.1113 51.9994C31.9618 52.15 31.8125 52.3008 31.6633 52.4518C31.9781 52.8029 32.3722 52.9331 32.7998 53.111C32.8787 53.1452 32.9576 53.1794 33.0388 53.2147C33.1526 53.2625 33.1526 53.2625 33.2686 53.3113C33.3378 53.3405 33.407 53.3697 33.4783 53.3998C33.6792 53.4751 33.6792 53.4751 33.9363 53.361C33.6363 52.6409 33.3362 51.9209 33.0271 51.179C32.9186 51.1687 32.9186 51.1687 32.809 51.2958ZM35.391 51.179C34.9409 52.2591 34.9409 52.2591 34.4818 53.361C34.6633 53.4782 34.6633 53.4782 34.8679 53.3871C34.9507 53.3524 35.0336 53.3176 35.1189 53.2818C35.2086 53.2446 35.2983 53.2074 35.3906 53.1691C35.5314 53.1094 35.5314 53.1094 35.6751 53.0485C35.7697 53.0091 35.8643 52.9696 35.9617 52.929C36.196 52.8312 36.43 52.7327 36.6638 52.6337C36.6915 52.3677 36.6915 52.3677 36.5568 52.2215C36.4834 52.1493 36.4834 52.1493 36.4085 52.0757C36.3556 52.0233 36.3027 51.9708 36.2481 51.9168C36.1642 51.8357 36.1642 51.8357 36.0786 51.7529C36.0229 51.6978 35.9673 51.6426 35.91 51.5858C35.6834 51.3159 35.6834 51.3159 35.391 51.179ZM39.6983 51.5881C39.6071 51.6303 39.5159 51.6725 39.422 51.716C39.3519 51.7488 39.2818 51.7816 39.2096 51.8154C39.2696 51.9954 39.3296 52.1754 39.3914 52.3609C39.7675 52.0535 40.1018 51.7549 40.3915 51.3608C40.1261 51.3608 39.9378 51.4767 39.6983 51.5881ZM28.1175 51.4517C28.2 51.5546 28.2836 51.6568 28.3675 51.7586C28.4139 51.8155 28.4603 51.8725 28.5082 51.9312C28.6705 52.0957 28.8157 52.1792 29.0267 52.27C29.0567 52.12 29.0867 51.97 29.1176 51.8154C29.0024 51.7541 28.8868 51.6937 28.771 51.6336C28.7066 51.5998 28.6423 51.5661 28.576 51.5313C28.3821 51.4338 28.3821 51.4338 28.1175 51.4517ZM40.4824 51.6336C40.1824 51.9336 39.8824 52.2336 39.5732 52.5428C39.6633 52.8128 39.7533 53.0828 39.846 53.361C40.0942 53.1128 40.1903 52.818 40.3176 52.4973C40.3436 52.4346 40.3696 52.3719 40.3963 52.3073C40.4611 52.1455 40.5178 51.9806 40.5733 51.8154C40.5433 51.7554 40.5133 51.6954 40.4824 51.6336ZM27.8447 51.7245C28.0208 52.2886 28.2317 52.8254 28.4812 53.361C28.7051 53.1371 28.7537 52.9331 28.8448 52.6337C28.6955 52.4819 28.5458 52.3304 28.3959 52.1791C28.3126 52.0947 28.2293 52.0103 28.1434 51.9234C27.9726 51.714 27.9726 51.714 27.8447 51.7245ZM29.3904 51.9063C29.1935 52.3078 29.1935 52.3078 29.2167 52.5442C29.335 52.8022 29.5101 52.9609 29.7143 53.1565C29.7894 53.2291 29.8645 53.3018 29.9419 53.3766C29.9999 53.4315 30.0579 53.4863 30.1177 53.5429C30.2182 53.4578 30.3186 53.3725 30.4189 53.2872C30.4748 53.2397 30.5307 53.1922 30.5883 53.1433C30.8163 52.9428 30.8163 52.9428 31.0269 52.7246C31.0269 52.6646 31.0269 52.6046 31.0269 52.5428C30.4868 52.3327 29.9468 52.1227 29.3904 51.9063ZM38.0049 52.27C37.9458 52.296 37.8868 52.322 37.8259 52.3488C37.6807 52.4129 37.5359 52.4777 37.3912 52.5428C37.3616 52.8217 37.3616 52.8217 37.5503 53.0013C37.6516 53.0978 37.6516 53.0978 37.7549 53.1962C37.8224 53.2613 37.8899 53.3263 37.9594 53.3933C38.0119 53.4427 38.0644 53.492 38.1185 53.5429C38.4206 53.4099 38.6362 53.2421 38.8743 53.0144C38.9396 52.9538 39.0049 52.8932 39.0721 52.8308C39.2356 52.6407 39.2356 52.6407 39.1907 52.3939C39.1248 52.1807 39.1248 52.1807 39.0277 51.9972C38.6278 51.9972 38.3604 52.1096 38.0049 52.27ZM31.4815 52.8155C31.4815 53.4456 31.4815 54.0756 31.4815 54.7248C32.6682 54.2824 32.6682 54.2824 33.8454 53.8156C33.6411 53.6113 33.4811 53.5458 33.2146 53.437C33.1258 53.4007 33.0369 53.3644 32.9454 53.3269C32.8524 53.2894 32.7593 53.2519 32.6634 53.2133C32.5704 53.1751 32.4773 53.1369 32.3814 53.0975C31.9448 52.8968 31.9448 52.8968 31.4815 52.8155ZM39.0927 53.0144C39.0094 53.0988 38.9261 53.1832 38.8402 53.2701C38.7149 53.3967 38.7149 53.3967 38.587 53.5258C38.5224 53.5914 38.4578 53.6571 38.3913 53.7247C38.6987 54.1008 38.9974 54.4351 39.3914 54.7248C39.698 54.1166 39.698 54.1166 39.6983 53.4558C39.6069 53.2341 39.5092 53.0243 39.3914 52.8155C39.2635 52.805 39.2635 52.805 39.0927 53.0144ZM29.0267 52.9064C28.7518 53.3615 28.7518 53.3615 28.6687 53.8724C28.7725 54.1355 28.8933 54.3846 29.0267 54.6339C29.1275 54.551 29.2278 54.4676 29.3278 54.3839C29.3837 54.3374 29.4397 54.291 29.4973 54.2432C29.6685 54.0833 29.8009 53.9157 29.9359 53.7247C29.8017 53.588 29.6671 53.4517 29.5324 53.3156C29.4575 53.2396 29.3826 53.1637 29.3055 53.0854C29.1499 52.896 29.1499 52.896 29.0267 52.9064ZM36.2597 53.0144C36.1618 53.0554 36.064 53.0964 35.9631 53.1387C35.8093 53.2037 35.8093 53.2037 35.6524 53.2701C35.5491 53.3135 35.4459 53.3568 35.3395 53.4015C35.0838 53.509 34.8282 53.6167 34.5727 53.7247C34.9594 53.9825 35.3792 54.1452 35.8058 54.327C35.8941 54.3652 35.9824 54.4034 36.0734 54.4428C36.1577 54.4789 36.2421 54.515 36.3289 54.5522C36.4062 54.5853 36.4835 54.6184 36.5632 54.6526C36.749 54.7355 36.749 54.7355 36.9366 54.7248C36.9366 54.0947 36.9366 53.4647 36.9366 52.8155C36.68 52.8155 36.4961 52.9148 36.2597 53.0144ZM37.1184 52.9064C37.1184 53.4765 37.1184 54.0465 37.1184 54.6339C37.6383 54.21 37.6383 54.21 38.0276 53.7247C37.8934 53.588 37.7589 53.4517 37.6242 53.3156C37.5493 53.2396 37.4744 53.1637 37.3972 53.0854C37.2416 52.896 37.2416 52.896 37.1184 52.9064ZM30.9498 53.1565C30.8501 53.2577 30.8501 53.2577 30.7485 53.361C30.6484 53.4623 30.6484 53.4623 30.5464 53.5656C30.4692 53.6443 30.4692 53.6443 30.3905 53.7247C30.4753 53.8273 30.5606 53.9295 30.6462 54.0315C30.7174 54.117 30.7174 54.117 30.79 54.2042C30.9434 54.3813 30.9434 54.3813 31.2087 54.543C31.2087 54.0329 31.2087 53.5229 31.2087 52.9973C31.0902 52.9869 31.0902 52.9869 30.9498 53.1565ZM29.6517 54.418C29.5671 54.496 29.4825 54.5741 29.3953 54.6545C29.1753 54.8951 29.1753 54.8951 29.2263 55.2099C29.2504 55.2899 29.2746 55.3698 29.2994 55.4522C29.5774 55.575 29.6831 55.536 29.9771 55.4326C30.0926 55.3815 30.2077 55.3292 30.3223 55.276C30.4109 55.2364 30.4109 55.2364 30.5013 55.1959C30.6466 55.1307 30.7913 55.0643 30.936 54.9976C30.9652 54.7192 30.9652 54.7192 30.7801 54.5391C30.7134 54.4747 30.6467 54.4104 30.578 54.3441C30.5115 54.279 30.4451 54.214 30.3766 54.147C30.0516 53.8577 29.9303 54.1549 29.6517 54.418ZM37.9218 54.1764C37.848 54.2524 37.7741 54.3283 37.698 54.4066C37.6237 54.4825 37.5494 54.5585 37.4729 54.6367C37.4159 54.6958 37.359 54.7549 37.3003 54.8157C37.4487 55.1125 37.7663 55.1669 38.0617 55.2817C38.1241 55.3069 38.1864 55.3321 38.2507 55.358C38.5224 55.4653 38.7331 55.5431 39.0277 55.5431C39.0877 55.333 39.1477 55.123 39.2096 54.9066C39.0624 54.7546 38.9145 54.6032 38.7663 54.452C38.6841 54.3677 38.6018 54.2833 38.517 54.1963C38.2379 53.9401 38.2018 53.9217 37.9218 54.1764ZM33.2082 54.2674C33.1186 54.3043 33.0289 54.3412 32.9365 54.3792C32.8427 54.4183 32.7488 54.4573 32.6521 54.4975C32.5575 54.5365 32.4629 54.5756 32.3655 54.6158C32.1313 54.7124 31.8973 54.8094 31.6633 54.9066C31.7799 55.1629 31.9006 55.3478 32.1016 55.5445C32.1745 55.6166 32.1745 55.6166 32.249 55.6901C32.2995 55.7391 32.35 55.7881 32.402 55.8386C32.4532 55.889 32.5045 55.9393 32.5572 55.9913C32.6831 56.115 32.8096 56.2382 32.9362 56.3613C33.1754 56.0026 33.3263 55.6214 33.4931 55.2249C33.5269 55.146 33.5608 55.0671 33.5957 54.9858C33.6277 54.91 33.6597 54.8342 33.6927 54.7561C33.7366 54.6522 33.7366 54.6522 33.7815 54.5463C33.8602 54.3508 33.8602 54.3508 33.8454 54.0884C33.6016 54.0884 33.4336 54.1741 33.2082 54.2674ZM34.4818 54.0884C34.7644 54.8561 35.0462 55.6188 35.391 56.3613C35.872 55.9605 36.3173 55.5362 36.7548 55.0885C36.5518 54.8618 36.3667 54.7473 36.0871 54.63C36.0113 54.598 35.9354 54.5661 35.8573 54.5332C35.7784 54.5008 35.6995 54.4684 35.6183 54.435C35.5394 54.4015 35.4605 54.3681 35.3793 54.3336C34.9453 54.1451 34.9453 54.1451 34.4818 54.0884ZM28.4812 54.1793C28.3915 54.3665 28.3026 54.5541 28.2141 54.7418C28.1645 54.8463 28.1149 54.9507 28.0639 55.0583C27.9543 55.3171 27.8859 55.5395 27.8447 55.8158C28.2208 55.5084 28.5551 55.2098 28.8448 54.8157C28.7548 54.6057 28.6648 54.3957 28.5721 54.1793C28.5421 54.1793 28.5121 54.1793 28.4812 54.1793ZM34.1181 54.1793C33.8181 54.9294 33.5181 55.6794 33.2089 56.4523C33.839 56.4523 34.4691 56.4523 35.1182 56.4523C34.9496 55.8902 34.795 55.3866 34.567 54.8555C34.521 54.7466 34.4749 54.6377 34.4275 54.5256C34.3274 54.2612 34.3274 54.2612 34.1181 54.1793ZM39.846 54.1793C39.6381 54.5174 39.6381 54.5174 39.5846 54.8981C39.6966 55.166 39.8702 55.3204 40.079 55.5203C40.1541 55.593 40.2292 55.6657 40.3066 55.7405C40.3646 55.7954 40.4227 55.8502 40.4824 55.9067C40.5956 55.7321 40.5956 55.7321 40.5252 55.5624C40.4845 55.4667 40.4845 55.4667 40.443 55.369C40.414 55.2999 40.385 55.2308 40.3551 55.1595C40.324 55.0873 40.2929 55.0151 40.2608 54.9407C40.2301 54.8678 40.1993 54.7949 40.1676 54.7198C40.0913 54.5394 40.0142 54.3593 39.9369 54.1793C39.9069 54.1793 39.8769 54.1793 39.846 54.1793ZM30.3393 55.4294C30.2759 55.4524 30.2124 55.4754 30.147 55.499C29.7966 55.6273 29.7966 55.6273 29.564 55.9025C29.5613 56.1285 29.5613 56.1285 29.754 56.4523C30.2341 56.4523 30.7141 56.4523 31.2087 56.4523C31.2087 56.0322 31.2087 55.6122 31.2087 55.1794C30.9002 55.1794 30.6238 55.3195 30.3393 55.4294ZM37.1184 55.1794C37.1184 55.5994 37.1184 56.0195 37.1184 56.4523C37.6285 56.4523 38.1385 56.4523 38.6641 56.4523C38.7241 56.2422 38.7841 56.0322 38.8459 55.8158C38.6094 55.7091 38.3726 55.6032 38.1356 55.4976C38.0685 55.4673 38.0014 55.4369 37.9323 55.4056C37.8675 55.3769 37.8028 55.3482 37.736 55.3186C37.6765 55.292 37.617 55.2653 37.5557 55.2378C37.3775 55.1642 37.3775 55.1642 37.1184 55.1794ZM39.3914 55.1794C39.3314 55.3594 39.2714 55.5394 39.2096 55.7249C39.3397 55.7885 39.4706 55.8508 39.6017 55.9124C39.6744 55.9472 39.7472 55.982 39.8222 56.0179C40.0388 56.1156 40.0388 56.1156 40.3006 55.9977C40.1664 55.861 40.0318 55.7247 39.8971 55.5885C39.8223 55.5126 39.7474 55.4366 39.6702 55.3584C39.5146 55.1689 39.5146 55.1689 39.3914 55.1794ZM28.668 55.4294C28.6026 55.4969 28.5372 55.5644 28.4698 55.634C28.4039 55.7015 28.3381 55.769 28.2702 55.8386C28.2198 55.8911 28.1694 55.9436 28.1175 55.9977C28.2075 56.0427 28.2075 56.0427 28.2993 56.0886C28.5034 56.0188 28.5034 56.0188 28.7198 55.9124C28.8313 55.8606 28.8313 55.8606 28.945 55.8077C29.002 55.7804 29.0589 55.753 29.1176 55.7249C29.0876 55.5749 29.0576 55.4249 29.0267 55.2703C28.8277 55.25 28.8277 55.25 28.668 55.4294ZM36.4499 55.6537C36.3986 55.7053 36.3473 55.757 36.2945 55.8101C36.2429 55.8614 36.1912 55.9127 36.138 55.9655C35.8763 56.1747 35.8763 56.1747 35.7547 56.4523C36.1447 56.4523 36.5347 56.4523 36.9366 56.4523C36.9366 56.0622 36.9366 55.6722 36.9366 55.2703C36.7279 55.2703 36.5902 55.5137 36.4499 55.6537ZM31.4815 55.3612C31.4815 55.7213 31.4815 56.0813 31.4815 56.4523C31.8415 56.4523 32.2016 56.4523 32.5725 56.4523C32.2331 56.0401 31.9011 55.6909 31.4815 55.3612ZM28.6005 56.1795C28.4903 56.2301 28.4903 56.2301 28.3778 56.2818C28.294 56.3212 28.294 56.3212 28.2084 56.3613C28.2084 56.3913 28.2084 56.4213 28.2084 56.4523C28.6285 56.4523 29.0485 56.4523 29.4813 56.4523C29.4213 56.3022 29.3613 56.1522 29.2994 55.9977C29.0052 55.9977 28.8642 56.0572 28.6005 56.1795ZM39.1187 55.9977C39.0586 56.1477 38.9986 56.2977 38.9368 56.4523C39.3569 56.4523 39.7769 56.4523 40.2097 56.4523C39.9961 56.2387 39.8499 56.2039 39.5619 56.1227C39.4791 56.099 39.3964 56.0753 39.3111 56.0509C39.2476 56.0334 39.1841 56.0158 39.1187 55.9977ZM28.1175 56.725C28.3655 56.973 28.6603 57.0656 28.9812 57.191C29.0439 57.2162 29.1066 57.2414 29.1712 57.2673C29.498 57.4049 29.498 57.4049 29.8449 57.4524C29.7667 57.0585 29.7667 57.0585 29.5722 56.725C29.327 56.7184 29.0842 56.7166 28.8392 56.7193C28.7357 56.7199 28.7357 56.7199 28.6302 56.7206C28.4593 56.7216 28.2884 56.7233 28.1175 56.725ZM29.9359 56.725C30.0173 57.1323 30.0761 57.3825 30.2995 57.7251C30.6214 57.8976 30.8428 57.9979 31.2087 57.9979C31.2087 57.5778 31.2087 57.1578 31.2087 56.725C30.7887 56.725 30.3686 56.725 29.9359 56.725ZM31.4815 56.725C31.4815 57.2051 31.4815 57.6851 31.4815 58.1797C31.6915 58.2697 31.9015 58.3597 32.1179 58.4525C32.2246 58.216 32.3306 57.9792 32.4361 57.7422C32.4665 57.6751 32.4968 57.608 32.5281 57.5388C32.5712 57.4417 32.5712 57.4417 32.6151 57.3426C32.6418 57.2831 32.6685 57.2236 32.6959 57.1623C32.7696 56.984 32.7696 56.984 32.7543 56.725C32.3343 56.725 31.9143 56.725 31.4815 56.725ZM33.3908 56.725C33.4733 56.8263 33.5558 56.9275 33.6408 57.0319C33.6872 57.0888 33.7336 57.1458 33.7814 57.2045C33.9437 57.369 34.089 57.4525 34.3 57.5433C34.4215 57.4242 34.5426 57.3048 34.6636 57.1853C34.7311 57.1188 34.7986 57.0524 34.8682 56.9839C35.0377 56.8435 35.0377 56.8435 35.0273 56.725C34.4873 56.725 33.9472 56.725 33.3908 56.725ZM35.5728 56.725C35.6617 56.9637 35.7508 57.2024 35.8399 57.441C35.8778 57.5428 35.8778 57.5428 35.9164 57.6466C36.0502 58.0094 36.0502 58.0094 36.2093 58.3616C36.5847 58.31 36.5847 58.31 36.9366 58.1797C36.9366 57.6997 36.9366 57.2196 36.9366 56.725C36.4866 56.725 36.0365 56.725 35.5728 56.725ZM37.1184 56.725C37.1184 57.1751 37.1184 57.6251 37.1184 58.0888C37.7732 57.9378 37.7732 57.9378 38.2659 57.5252C38.3836 57.2574 38.4822 57.0196 38.4822 56.725C38.0322 56.725 37.5821 56.725 37.1184 56.725ZM38.755 56.725C38.665 56.995 38.575 57.2651 38.4822 57.5433C39.0823 57.3033 39.6823 57.0632 40.3006 56.8159C40.3006 56.7859 40.3006 56.7559 40.3006 56.725C39.7905 56.725 39.2805 56.725 38.755 56.725ZM33.0271 56.9069C32.918 57.1432 32.8103 57.3799 32.7032 57.6172C32.6721 57.6842 32.641 57.7513 32.6089 57.8205C32.5799 57.8852 32.5509 57.95 32.521 58.0167C32.4939 58.0762 32.4667 58.1357 32.4388 58.197C32.3682 58.3804 32.3682 58.3804 32.4816 58.6343C32.6616 58.6943 32.8416 58.7543 33.0271 58.8161C33.3271 58.5161 33.6272 58.2161 33.9363 57.907C33.779 57.5924 33.673 57.4393 33.4306 57.2023C33.3742 57.1465 33.3178 57.0908 33.2597 57.0333C33.1384 56.8968 33.1384 56.8968 33.0271 56.9069ZM35.0124 57.0858C34.9386 57.1618 34.8647 57.2377 34.7886 57.316C34.7143 57.3919 34.64 57.4679 34.5635 57.5461C34.5065 57.6052 34.4496 57.6643 34.3909 57.7251C34.7253 58.1366 35.0647 58.4883 35.4819 58.8161C35.6619 58.7261 35.8419 58.6361 36.0274 58.5434C35.9385 58.3047 35.8495 58.066 35.7603 57.8274C35.7351 57.7595 35.7098 57.6917 35.6838 57.6218C35.55 57.259 35.55 57.259 35.391 56.9069C35.1872 56.8865 35.1872 56.8865 35.0124 57.0858ZM33.9302 58.1769C33.8554 58.2528 33.7805 58.3288 33.7033 58.407C33.6282 58.483 33.5531 58.5589 33.4757 58.6371C33.3886 58.7258 33.3886 58.7258 33.2999 58.8161C33.529 59.0566 33.7021 59.18 34.0272 59.2707C34.3905 59.2405 34.6948 59.1447 35.0273 58.998C34.8998 58.7082 34.7475 58.5141 34.5216 58.2934C34.4652 58.2376 34.4088 58.1818 34.3507 58.1243C34.1337 57.9306 34.1516 57.966 33.9302 58.1769ZM30.4814 58.0888C30.6685 58.6755 30.8836 59.2467 31.1178 59.8162C31.1478 59.8162 31.1778 59.8162 31.2087 59.8162C31.2087 59.3362 31.2087 58.8561 31.2087 58.3616C30.7378 58.0752 30.7378 58.0752 30.4814 58.0888ZM37.7549 58.0888C37.4398 58.2238 37.4398 58.2238 37.1184 58.3616C37.1184 58.9016 37.1184 59.4417 37.1184 59.9981C37.2647 59.7787 37.3597 59.601 37.4573 59.3606C37.4854 59.2917 37.5135 59.2229 37.5425 59.1519C37.5713 59.0805 37.6002 59.0091 37.6299 58.9355C37.6594 58.863 37.6889 58.7905 37.7194 58.7158C37.7921 58.5372 37.8644 58.3585 37.9367 58.1797C37.8767 58.1497 37.8167 58.1197 37.7549 58.0888ZM31.4815 58.4525C31.4815 58.9025 31.4815 59.3526 31.4815 59.8162C31.8166 59.4812 31.9361 59.1009 31.9361 58.6343C31.7111 58.5443 31.7111 58.5443 31.4815 58.4525ZM36.3911 58.6343C36.5314 59.0635 36.6709 59.4905 36.8457 59.9072C36.8757 59.9072 36.9057 59.9072 36.9366 59.9072C36.9366 59.4271 36.9366 58.9471 36.9366 58.4525C36.7471 58.4525 36.564 58.5634 36.3911 58.6343ZM32.2088 58.8161C32.1455 58.9635 32.0832 59.1114 32.0213 59.2594C31.9865 59.3416 31.9517 59.4239 31.9158 59.5087C31.8177 59.7236 31.8177 59.7236 31.9361 59.9072C32.2061 59.6371 32.4761 59.3671 32.7543 59.0889C32.7243 59.0289 32.6943 58.9689 32.6634 58.9071C32.4336 58.8475 32.4336 58.8475 32.2088 58.8161ZM35.9365 58.8161C35.8465 58.9062 35.7565 58.9962 35.6637 59.0889C35.9338 59.3589 36.2038 59.629 36.482 59.9072C36.512 59.8472 36.542 59.7872 36.5729 59.7253C36.4825 59.5 36.4825 59.5 36.3513 59.2594C36.3083 59.1766 36.2653 59.0939 36.221 59.0086C36.1702 58.9134 36.1702 58.9134 36.1183 58.8161C36.0583 58.8161 35.9983 58.8161 35.9365 58.8161ZM33.0271 59.0889C32.6971 59.4189 32.367 59.749 32.027 60.089C32.2016 60.2022 32.2016 60.2022 32.3714 60.1318C32.4352 60.1047 32.499 60.0775 32.5647 60.0496C32.6338 60.0206 32.703 59.9916 32.7742 59.9617C32.8464 59.9306 32.9186 59.8995 32.993 59.8674C33.1024 59.8212 33.1024 59.8212 33.2139 59.7742C33.3944 59.6979 33.5744 59.6208 33.7544 59.5435C33.7544 59.4835 33.7544 59.4235 33.7544 59.3617C33.5144 59.2716 33.2744 59.1816 33.0271 59.0889ZM34.6636 59.3617C34.6636 59.4217 34.6636 59.4817 34.6636 59.5435C34.8868 59.6372 35.1103 59.7298 35.3342 59.8219C35.3977 59.8487 35.4612 59.8755 35.5267 59.9031C35.6915 59.9704 35.8593 60.0303 36.0274 60.089C36.0874 60.059 36.1474 60.029 36.2093 59.9981C36.0794 59.8609 35.9485 59.7247 35.8172 59.589C35.7444 59.513 35.6716 59.4371 35.5966 59.3588C35.2608 59.0665 35.0388 59.1994 34.6636 59.3617Z" fill="#191919"/>
<path d="M2.02176 43.569C2.45628 43.9286 2.45628 43.9286 2.56975 44.269C2.56186 44.465 2.54786 44.6607 2.53078 44.856C2.46425 45.7122 2.46566 46.5662 2.46594 47.4246C2.46566 47.6005 2.46534 47.7765 2.46498 47.9524C2.46427 48.3283 2.4638 48.7042 2.4635 49.0802C2.46296 49.6747 2.46145 50.2691 2.45974 50.8636C2.45917 51.0678 2.45859 51.2719 2.45802 51.4761C2.45773 51.5782 2.45744 51.6803 2.45714 51.7856C2.45333 53.1677 2.45031 54.5499 2.4492 55.932C2.44844 56.8673 2.4464 57.8026 2.4429 58.7379C2.4411 59.232 2.43997 59.7262 2.44043 60.2204C2.44085 60.6841 2.4396 61.1478 2.43706 61.6116C2.43643 61.7817 2.43642 61.9519 2.43708 62.1221C2.43788 62.3542 2.43647 62.5862 2.43449 62.8183C2.43526 62.8858 2.43602 62.9532 2.43682 63.0227C2.42985 63.4642 2.33557 63.6868 2.02424 63.9984C1.70725 64.2279 1.40621 64.2132 1.02414 64.1802C0.682994 64.0621 0.524224 63.9788 0.328784 63.6732C0.177687 63.2906 0.167808 62.9822 0.171232 62.5752C0.170806 62.4971 0.170381 62.4191 0.169943 62.3387C0.168857 62.0778 0.169716 61.8169 0.170574 61.556C0.170205 61.3687 0.169719 61.1814 0.169126 60.9941C0.167883 60.4858 0.168365 59.9775 0.169229 59.4692C0.16992 58.9372 0.16928 58.4053 0.168851 57.8733C0.168355 56.98 0.169009 56.0867 0.170308 55.1934C0.171792 54.1606 0.171311 53.1278 0.16981 52.095C0.168572 51.2083 0.168397 50.3215 0.169111 49.4348C0.169537 48.9052 0.169593 48.3756 0.168692 47.846C0.167904 47.3481 0.168451 46.8502 0.170027 46.3523C0.170388 46.1695 0.170284 45.9868 0.169683 45.8041C0.168937 45.5546 0.169872 45.3052 0.171232 45.0558C0.170623 44.9835 0.170015 44.9112 0.169388 44.8366C0.174012 44.3994 0.241991 44.1046 0.478624 43.7235C0.920244 43.3104 1.4946 43.2214 2.02176 43.569Z" fill="#191919"/>
<path d="M92.9883 43.4169C93.091 43.4355 93.091 43.4355 93.1957 43.4545C93.4881 43.5812 93.5903 43.7271 93.7611 43.9965C93.7964 44.2721 93.8107 44.5143 93.8079 44.7896C93.8089 44.9093 93.8089 44.9093 93.8098 45.0315C93.8115 45.299 93.8106 45.5664 93.8096 45.8339C93.8103 46.0256 93.8111 46.2174 93.812 46.4091C93.8141 46.9301 93.8138 47.4509 93.813 47.9718C93.8125 48.4066 93.8132 48.8413 93.8138 49.276C93.8154 50.3015 93.8151 51.327 93.8135 52.3524C93.812 53.4107 93.8134 54.4689 93.8164 55.5272C93.8188 56.4356 93.8195 57.3439 93.8187 58.2523C93.8183 58.7949 93.8185 59.3375 93.8203 59.8801C93.822 60.3903 93.8214 60.9005 93.8192 61.4107C93.8188 61.598 93.8191 61.7853 93.8202 61.9726C93.8217 62.2283 93.8203 62.4837 93.8183 62.7394C93.8199 62.8506 93.8199 62.8506 93.8215 62.9641C93.8155 63.3332 93.78 63.5671 93.5473 63.8614C93.2601 64.1335 93.1178 64.1742 92.7269 64.2032C92.3064 64.1742 92.1018 64.0383 91.7837 63.777C91.5 63.4225 91.5659 62.9412 91.5663 62.5098C91.566 62.4323 91.5658 62.3548 91.5655 62.2749C91.5647 62.0147 91.5646 61.7545 91.5644 61.4943C91.564 61.3079 91.5636 61.1215 91.5631 60.9352C91.5619 60.4285 91.5613 59.9219 91.5609 59.4153C91.5606 59.0989 91.5602 58.7825 91.5598 58.466C91.5586 57.4763 91.5577 56.4866 91.5574 55.4968C91.557 54.3538 91.5554 53.2108 91.5527 52.0677C91.5508 51.1845 91.5498 50.3012 91.5497 49.418C91.5496 48.8903 91.5491 48.3626 91.5475 47.8349C91.546 47.3386 91.5458 46.8424 91.5466 46.3461C91.5466 46.164 91.5462 45.9818 91.5454 45.7997C91.5442 45.551 91.5447 45.3024 91.5457 45.0538C91.5449 44.9817 91.5442 44.9096 91.5435 44.8353C91.5474 44.3985 91.6154 44.1045 91.8518 43.7237C92.2034 43.3949 92.5213 43.3225 92.9883 43.4169Z" fill="#191919"/>
<path d="M78.123 43.3601C78.3725 45.8382 77.9469 47.6034 76.8411 49.8182C76.4232 50.6572 76.0589 51.5172 75.6953 52.3808C75.527 52.7802 75.3564 53.1786 75.1859 53.5771C75.1572 53.6446 75.1285 53.712 75.0989 53.7815C74.8992 54.2496 74.6941 54.715 74.4863 55.1795C74.4263 55.1795 74.3662 55.1795 74.3044 55.1795C74.2955 55.2406 74.2866 55.3017 74.2774 55.3646C74.1837 55.7597 74.0081 56.1149 73.8388 56.4821C73.6699 56.8564 73.5264 57.2323 73.3942 57.6212C73.0518 58.5934 72.6271 59.5325 72.2147 60.4765C72.0708 60.806 71.9276 61.1359 71.7845 61.4657C71.6924 61.6772 71.6004 61.8886 71.5083 62.1C71.4659 62.1977 71.4234 62.2953 71.3797 62.3959C70.7495 63.837 70.7495 63.837 70.4574 64.0896C70.0502 64.2411 69.7239 64.2474 69.3266 64.0668C68.9733 63.792 68.9733 63.792 68.8493 63.5441C68.776 62.9466 68.9021 62.4915 69.153 61.9551C69.2011 61.8473 69.2011 61.8473 69.2502 61.7373C69.3558 61.5017 69.4634 61.2671 69.571 61.0324C69.646 60.8659 69.7208 60.6992 69.7954 60.5326C69.9494 60.1889 70.1041 59.8455 70.2592 59.5023C70.5675 58.8184 70.8663 58.1304 71.1646 57.442C71.323 57.0768 71.4821 56.7119 71.6411 56.3469C71.6729 56.2741 71.7046 56.2012 71.7374 56.1261C72.1813 55.1079 72.6284 54.0911 73.0752 53.0742C73.1434 52.919 73.2116 52.7638 73.2798 52.6086C73.313 52.533 73.3463 52.4574 73.3805 52.3795C73.6638 51.7344 73.9463 51.0891 74.2285 50.4435C74.4658 49.9007 74.7033 49.358 74.9409 48.8152C74.9902 48.7025 74.9902 48.7025 75.0405 48.5875C75.2588 48.0888 75.4773 47.5901 75.6959 47.0915C75.7672 46.9287 75.8385 46.7659 75.9098 46.6031C76.1027 46.1623 76.2965 45.722 76.4916 45.2821C76.5724 45.099 76.6517 44.9153 76.7308 44.7315C76.7997 44.575 76.7997 44.575 76.87 44.4153C76.9276 44.2824 76.9276 44.2824 76.9863 44.1468C77.2663 43.6523 77.5502 43.3601 78.123 43.3601Z" fill="#191919"/>
<path d="M50.2113 43.5418C50.6351 43.8708 50.6351 43.8708 50.7075 44.1661C50.7231 44.3752 50.724 44.5799 50.7201 44.7895C50.7205 44.8693 50.7208 44.9492 50.7212 45.0314C50.7217 45.2989 50.719 45.5663 50.7163 45.8338C50.7161 46.0255 50.716 46.2173 50.7161 46.4091C50.7157 46.93 50.7125 47.4509 50.7086 47.9718C50.7049 48.5167 50.7034 49.0616 50.7016 49.6066C50.6981 50.5218 50.6927 51.4371 50.6863 52.3523C50.6789 53.4106 50.6747 54.4688 50.6722 55.5271C50.6701 56.4355 50.6661 57.3438 50.6607 58.2522C50.6574 58.7948 50.6548 59.3374 50.6537 59.88C50.6527 60.3903 50.6494 60.9004 50.6444 61.4107C50.6429 61.5979 50.6422 61.7852 50.6423 61.9725C50.6423 62.2282 50.6396 62.4837 50.6361 62.7393C50.6368 62.8134 50.6374 62.8876 50.6381 62.964C50.6301 63.3327 50.5933 63.5674 50.3609 63.8613C50.0739 64.1335 49.9316 64.1741 49.5408 64.2031C49.1838 64.1785 49.0327 64.13 48.7566 63.9076C48.4507 63.515 48.4452 63.1493 48.4492 62.6703C48.4488 62.5916 48.4483 62.5128 48.4479 62.4317C48.4468 62.168 48.4477 61.9044 48.4485 61.6407C48.4482 61.4516 48.4477 61.2625 48.4471 61.0735C48.4458 60.5599 48.4463 60.0463 48.4472 59.5327C48.4479 58.9955 48.4472 58.4582 48.4468 57.9209C48.4463 57.0185 48.447 56.116 48.4483 55.2136C48.4497 54.1702 48.4493 53.1268 48.4478 52.0835C48.4465 51.1878 48.4464 50.2922 48.4471 49.3966C48.4475 48.8616 48.4475 48.3266 48.4466 47.7916C48.4459 47.2886 48.4464 46.7856 48.448 46.2825C48.4483 46.0979 48.4482 45.9132 48.4476 45.7286C48.4469 45.4765 48.4478 45.2246 48.4492 44.9725C48.4486 44.8994 48.448 44.8263 48.4473 44.751C48.4519 44.3135 48.5119 44.0103 48.7566 43.6327C49.2453 43.32 49.6786 43.2934 50.2113 43.5418Z" fill="#191919"/>
<path d="M31.4474 46.383C31.7542 46.4512 31.7542 46.4512 31.8452 46.5421C31.8489 46.6936 31.849 46.8452 31.8452 46.9967C31.896 47.0101 31.9469 47.0234 31.9993 47.0372C32.6048 47.2066 33.161 47.445 33.7275 47.7141C34.3555 47.9254 34.8851 47.6077 35.4592 47.3547C35.6139 47.2871 35.7687 47.2197 35.9237 47.1526C35.9917 47.1227 36.0596 47.0928 36.1296 47.062C36.3002 46.9967 36.3002 46.9967 36.482 46.9967C36.4914 46.9255 36.5008 46.8542 36.5104 46.7808C36.5729 46.5421 36.5729 46.5421 36.8457 46.3603C37.1065 46.3277 37.2409 46.3155 37.4539 46.4761C37.573 46.633 37.573 46.633 37.5244 46.991C37.5139 47.0635 37.5035 47.1359 37.4927 47.2105C37.4567 48.0286 37.9071 48.9939 38.3913 49.6334C38.9882 50.1115 39.8533 50.47 40.6276 50.4436C40.7666 50.4267 40.9053 50.4062 41.043 50.3805C41.2098 50.3607 41.2098 50.3607 41.4428 50.4573C41.6301 50.7098 41.6182 50.8724 41.5735 51.179C41.4598 51.3494 41.4598 51.3494 41.3007 51.4517C41.1807 51.4517 41.0607 51.4517 40.937 51.4517C40.93 51.5095 40.923 51.5673 40.9157 51.6268C40.8539 51.8749 40.7773 52.0673 40.6685 52.2966C40.1979 53.1713 40.1979 53.1713 40.1756 54.1168C40.2427 54.2612 40.3154 54.4031 40.3915 54.543C40.4642 54.71 40.5368 54.8771 40.6074 55.045C40.6783 55.212 40.7527 55.3774 40.8273 55.5427C40.937 55.8158 40.937 55.8158 40.937 56.0886C41.0252 56.0998 41.1133 56.1111 41.2041 56.1227C41.296 56.1414 41.3879 56.1602 41.4825 56.1795C41.6081 56.4307 41.5908 56.6293 41.5735 56.9069C41.3916 57.0887 41.3916 57.0887 41.0734 57.1057C40.7552 57.0887 40.7552 57.0887 40.5733 56.9978C39.751 57.1569 38.7411 57.4806 38.1981 58.1425C37.6812 59.0075 37.4173 59.8201 37.573 60.8164C37.431 61.055 37.431 61.055 37.2094 61.18C36.9309 61.1914 36.9309 61.1914 36.6638 61.0891C36.6335 61.0063 36.6031 60.9234 36.5719 60.838C36.2947 60.3866 35.8949 60.2806 35.4137 60.0947C35.3249 60.0574 35.236 60.02 35.1445 59.9816C34.4455 59.7023 34.0204 59.7031 33.3208 59.9842C33.1676 60.0506 33.0148 60.1177 32.8623 60.1856C32.7084 60.2532 32.5544 60.3206 32.4003 60.3877C32.3329 60.4176 32.2655 60.4475 32.1961 60.4783C32.027 60.5436 32.027 60.5436 31.8452 60.5436C31.8283 60.6505 31.8283 60.6505 31.8111 60.7595C31.7542 60.9982 31.7542 60.9982 31.5724 61.18C31.0765 61.1387 31.0765 61.1387 30.8451 60.9073C30.8253 60.5985 30.8377 60.3838 30.936 60.089C30.7932 59.254 30.4674 58.2234 29.7602 57.7156C29.1232 57.387 28.4476 57.1722 27.7538 56.9978C27.7088 57.0428 27.7088 57.0428 27.6629 57.0887C27.3504 57.1057 27.3504 57.1057 27.0265 57.0887C26.8446 56.9069 26.8446 56.9069 26.8219 56.5886C26.8446 56.2704 26.8446 56.2704 27.0265 56.0886C27.0847 56.0787 27.143 56.0688 27.203 56.0586C27.4775 55.9692 27.5255 55.8207 27.6565 55.5683C28.2386 54.3812 28.2386 54.3812 28.175 53.0979C27.8245 52.0741 27.8245 52.0741 27.0833 51.3459C27.0045 51.3208 26.9258 51.2957 26.8446 51.2699C26.8113 50.6813 26.8113 50.6813 26.9565 50.4728C27.1174 50.3607 27.1174 50.3607 27.3077 50.3681C27.3799 50.3834 27.4521 50.3986 27.5265 50.4143C28.108 50.492 28.5099 50.297 29.0267 50.0482C29.1952 49.9704 29.3637 49.8929 29.5324 49.8155C29.6057 49.7807 29.6789 49.7458 29.7544 49.7099C29.9359 49.6334 29.9359 49.6334 30.1177 49.6334C30.125 49.5757 30.1322 49.518 30.1397 49.4586C30.2004 49.2123 30.2756 49.0148 30.3798 48.7853C30.4127 48.7125 30.4457 48.6397 30.4796 48.5647C30.5486 48.4143 30.6186 48.2644 30.6899 48.1151C30.9024 47.639 30.9677 47.3205 30.8507 46.8075C30.8451 46.633 30.8451 46.633 30.9577 46.4721C31.1178 46.3603 31.1178 46.3603 31.4474 46.383ZM31.4417 47.2045C31.1136 47.424 31.028 47.6979 30.9132 48.0593C30.8912 48.1226 30.8692 48.1858 30.8465 48.2509C30.7104 48.6471 30.5935 49.048 30.4814 49.4515C30.8414 49.3165 30.8414 49.3165 31.2087 49.1788C31.1178 49.4515 31.1178 49.4515 30.9196 49.5552C30.7983 49.6052 30.7983 49.6052 30.6746 49.6561C30.3537 49.8073 30.1581 49.9041 30.0154 50.2357C29.9245 50.5337 29.9245 50.5337 29.9359 50.8153C29.8009 50.7703 29.8009 50.7703 29.6631 50.7244C29.7231 50.5144 29.7831 50.3043 29.8449 50.0879C29.4082 50.156 29.0108 50.3043 28.6005 50.463C28.5304 50.4876 28.4602 50.5122 28.3879 50.5376C28.0335 50.6763 27.8787 50.7573 27.6817 51.0934C27.6544 51.6129 27.8414 51.9826 28.0607 52.4462C28.1005 52.5343 28.1404 52.6225 28.1814 52.7134C28.2796 52.9301 28.3796 53.1459 28.4812 53.361C28.6832 53.159 28.7472 52.9896 28.8448 52.7246C28.9358 52.9973 28.9358 52.9973 28.7994 53.3042C28.6569 53.6485 28.6372 53.7472 28.7539 54.0884C28.7877 54.1671 28.8214 54.2459 28.8562 54.327C28.9358 54.543 28.9358 54.543 28.8448 54.8157C28.7548 54.6057 28.6648 54.3957 28.5721 54.1793C28.236 54.3473 28.1502 54.7777 28.0095 55.1112C27.9749 55.1894 27.9403 55.2676 27.9046 55.3481C27.8723 55.4242 27.84 55.5002 27.8067 55.5786C27.7769 55.648 27.7472 55.7174 27.7165 55.7889C27.6286 56.1313 27.7354 56.3971 27.8447 56.725C28.0233 56.8304 28.0233 56.8304 28.245 56.9108C28.3259 56.9427 28.4068 56.9746 28.4902 57.0075C28.5754 57.0399 28.6605 57.0723 28.7482 57.1057C28.8754 57.1559 28.8754 57.1559 29.0052 57.2071C29.4136 57.3839 29.4136 57.3839 29.8449 57.4524C29.7849 57.2423 29.7249 57.0323 29.6631 56.8159C29.7981 56.7709 29.7981 56.7709 29.9359 56.725C29.9452 56.7888 29.9546 56.8525 29.9643 56.9182C30.0389 57.2303 30.1235 57.4551 30.2995 57.7251C30.6214 57.8976 30.8428 57.9979 31.2087 57.9979C31.1637 58.1329 31.1637 58.1329 31.1178 58.2706C30.9078 58.2106 30.6978 58.1506 30.4814 58.0888C30.5415 58.2754 30.6023 58.4619 30.6657 58.6474C30.7299 58.8358 30.7913 59.0252 30.8511 59.215C31.0429 59.8582 31.0429 59.8582 31.4815 60.3333C32.0109 60.4782 32.5748 60.0496 33.0271 59.8162C33.2676 59.7172 33.5091 59.6301 33.7544 59.5435C33.7544 59.4835 33.7544 59.4235 33.7544 59.3617C33.5444 59.2716 33.3344 59.1816 33.118 59.0889C33.3908 58.998 33.3908 58.998 33.6919 59.1344C34.2321 59.3541 34.6741 59.1585 35.2091 58.998C35.2392 59.058 35.2692 59.118 35.3001 59.1798C34.985 59.2698 34.985 59.2698 34.6636 59.3617C34.6636 59.4217 34.6636 59.4817 34.6636 59.5435C34.9865 59.6862 35.3107 59.8254 35.6353 59.964C35.7727 60.0248 35.7727 60.0248 35.9129 60.0869C36.046 60.1431 36.046 60.1431 36.1819 60.2005C36.2633 60.2358 36.3447 60.271 36.4286 60.3073C36.7307 60.3772 36.8554 60.3412 37.1184 60.1799C37.2544 59.975 37.2544 59.975 37.3418 59.7246C37.3773 59.635 37.4127 59.5453 37.4493 59.4529C37.4845 59.3591 37.5197 59.2652 37.556 59.1685C37.593 59.0739 37.6299 58.9793 37.668 58.8818C37.7591 58.6483 37.8486 58.4143 37.9367 58.1797C37.8767 58.1497 37.8167 58.1197 37.7549 58.0888C37.5403 58.1739 37.3279 58.2646 37.1184 58.3616C37.1634 58.2265 37.1634 58.2265 37.2094 58.0888C37.4043 58.0114 37.4043 58.0114 37.6469 57.9411C37.9326 57.8364 38.0821 57.7765 38.2595 57.5262C38.3775 57.2586 38.4822 57.0199 38.4822 56.725C38.5722 56.725 38.6622 56.725 38.755 56.725C38.665 56.995 38.575 57.2651 38.4822 57.5433C38.8285 57.4242 39.1725 57.2996 39.5164 57.1739C39.6637 57.1234 39.6637 57.1234 39.814 57.0718C40.3722 56.8712 40.3722 56.8712 40.7552 56.4409C40.7552 55.9302 40.5733 55.5506 40.3574 55.0942C40.3176 55.006 40.2777 54.9178 40.2367 54.8269C40.1384 54.6102 40.0385 54.3944 39.9369 54.1793C39.7785 54.3882 39.6279 54.5974 39.4823 54.8157C39.5241 54.5232 39.5707 54.2763 39.6869 54.0031C39.7806 53.6206 39.6526 53.4352 39.4823 53.0883C39.4198 52.8212 39.4198 52.8212 39.3914 52.6337C39.6867 52.7813 39.7279 53.0659 39.846 53.361C40.1325 53.0745 40.2538 52.712 40.4142 52.3439C40.4496 52.2676 40.485 52.1914 40.5215 52.1128C40.6793 51.7492 40.7576 51.5037 40.7392 51.103C40.4927 50.6754 40.1658 50.5779 39.7153 50.4118C39.636 50.38 39.5567 50.3482 39.475 50.3154C39.0372 50.1396 39.0372 50.1396 38.5731 50.0879C38.6207 50.3391 38.6739 50.5722 38.755 50.8153C38.665 50.8153 38.575 50.8153 38.4822 50.8153C38.4657 50.7594 38.4492 50.7035 38.4321 50.6459C38.4093 50.5724 38.3864 50.4989 38.3629 50.4232C38.3407 50.3504 38.3186 50.2777 38.2958 50.2027C38.1678 49.8978 38.0359 49.7659 37.7311 49.638C37.6583 49.6158 37.5855 49.5937 37.5105 49.5708C37.437 49.548 37.3636 49.5251 37.2878 49.5016C37.2319 49.4851 37.176 49.4685 37.1184 49.4515C37.1184 49.3615 37.1184 49.2715 37.1184 49.1788C37.3885 49.2688 37.6585 49.3588 37.9367 49.4515C37.8517 49.2223 37.7664 48.9931 37.681 48.7639C37.6454 48.6679 37.6454 48.6679 37.6091 48.5699C37.5611 48.4413 37.5123 48.313 37.4627 48.185C37.416 48.0622 37.3721 47.9382 37.3314 47.8133C37.2298 47.5263 37.1437 47.3776 36.8904 47.2048C36.396 47.1639 36.0257 47.3693 35.5842 47.5763C35.4956 47.6162 35.407 47.656 35.3157 47.6971C35.0976 47.7954 34.8803 47.8954 34.6636 47.9968C34.6636 48.0568 34.6636 48.1168 34.6636 48.1787C34.8737 48.2387 35.0837 48.2987 35.3001 48.3605C35.2701 48.4205 35.2401 48.4805 35.2091 48.5423C35.1575 48.5216 35.1058 48.5008 35.0525 48.4795C34.3662 48.224 33.8964 48.2908 33.2089 48.5423C33.2089 48.4823 33.2089 48.4223 33.2089 48.3605C33.389 48.2705 33.569 48.1805 33.7544 48.0877C33.458 47.7913 33.07 47.6771 32.6862 47.5195C32.6048 47.4841 32.5235 47.4487 32.4397 47.4122C32.0819 47.2655 31.8311 47.1722 31.4417 47.2045Z" fill="#191919"/>
<path d="M96.7616 37.0865C97.0041 37.2367 97.0891 37.295 97.2162 37.5411C97.2731 37.9608 97.2588 38.3743 97.2446 38.7969C97.2426 38.9119 97.2405 39.027 97.2384 39.1455C97.233 39.4291 97.2256 39.7124 97.2162 39.9959C97.2854 39.9945 97.3547 39.993 97.426 39.9916C97.7406 39.9859 98.0551 39.9823 98.3697 39.9788C98.4787 39.9766 98.5876 39.9743 98.6998 39.9719C98.805 39.971 98.9102 39.9702 99.0186 39.9693C99.1152 39.9678 99.2119 39.9664 99.3115 39.9649C99.6187 40.0003 99.7874 40.0861 100.035 40.2686C100.177 40.5536 100.203 40.8716 100.126 41.1778C99.8834 41.4168 99.7339 41.5321 99.3941 41.5828C99.2936 41.5809 99.1931 41.579 99.0896 41.577C98.9803 41.5759 98.871 41.5747 98.7584 41.5735C98.6452 41.5704 98.5319 41.5674 98.4152 41.5642C98.3002 41.5626 98.1851 41.561 98.0666 41.5593C97.7831 41.555 97.4997 41.549 97.2162 41.5415C97.2176 41.6502 97.2176 41.6502 97.2191 41.7611C97.2229 42.0894 97.2252 42.4178 97.2276 42.7462C97.2291 42.8602 97.2306 42.9743 97.2322 43.0917C97.2331 43.2561 97.2331 43.2561 97.234 43.4238C97.2354 43.5752 97.2354 43.5752 97.2368 43.7297C97.2164 43.9935 97.1764 44.1398 97.0344 44.36C96.7459 44.593 96.4652 44.5462 96.1163 44.5127C95.8696 44.4246 95.8035 44.3119 95.6706 44.0872C95.6396 43.8123 95.6396 43.8123 95.6439 43.4948C95.6448 43.3812 95.6457 43.2675 95.6466 43.1503C95.6489 43.032 95.6512 42.9136 95.6535 42.7916C95.6554 42.612 95.6554 42.612 95.6573 42.4287C95.6605 42.1329 95.665 41.8372 95.6706 41.5415C95.5986 41.5434 95.5266 41.5453 95.4524 41.5473C95.1255 41.5549 94.7986 41.5596 94.4716 41.5642C94.3583 41.5673 94.245 41.5703 94.1283 41.5735C94.019 41.5746 93.9098 41.5758 93.7972 41.577C93.6967 41.5789 93.5962 41.5808 93.4927 41.5828C93.1525 41.5321 93.0036 41.4171 92.7612 41.1778C92.7008 40.9761 92.7008 40.9761 92.7044 40.7687C92.7032 40.7003 92.702 40.6318 92.7008 40.5613C92.7911 40.2597 92.9565 40.167 93.2158 39.9959C93.4927 39.9546 93.4927 39.9546 93.7972 39.9604C93.9064 39.9616 94.0157 39.9627 94.1283 39.9639C94.2416 39.967 94.3549 39.97 94.4716 39.9732C94.5866 39.9748 94.7017 39.9764 94.8202 39.9781C95.1037 39.9824 95.3871 39.9884 95.6706 39.9959C95.6682 39.9207 95.6658 39.8455 95.6634 39.768C95.6539 39.4273 95.648 39.0866 95.6422 38.7458C95.6384 38.6274 95.6345 38.509 95.6306 38.3871C95.6292 38.2734 95.6277 38.1597 95.6262 38.0426C95.6238 37.9378 95.6214 37.8331 95.619 37.7251C95.6706 37.4502 95.6706 37.4502 95.8808 37.2345C96.2045 37.0384 96.3891 37.0266 96.7616 37.0865Z" fill="#191919"/>
<path d="M29.3907 55.8159C29.4507 55.8159 29.5107 55.8159 29.5725 55.8159C29.6867 56.0801 29.7543 56.252 29.7543 56.5433C29.6643 56.5433 29.5743 56.5433 29.4816 56.5433C29.3516 56.3292 29.2919 56.2268 29.3338 55.975C29.3526 55.9225 29.3713 55.87 29.3907 55.8159Z" fill="#191919"/>
<path d="M29.1179 51.8154C29.2079 51.8154 29.2979 51.8154 29.3906 51.8154C29.3111 52.3382 29.3111 52.3382 29.2088 52.5428C29.1188 52.5128 29.0288 52.4828 28.936 52.4519C28.996 52.2418 29.056 52.0318 29.1179 51.8154Z" fill="#191919"/>
<path d="M39.2101 54.9976C39.2701 54.9976 39.3301 54.9976 39.392 54.9976C39.362 55.2076 39.332 55.4176 39.3011 55.634C39.181 55.634 39.061 55.634 38.9374 55.634C39.0274 55.424 39.1174 55.2139 39.2101 54.9976Z" fill="#191919"/>
<path d="M29.4815 50.9971C29.5715 50.9971 29.6615 50.9971 29.7542 50.9971C29.7089 51.3323 29.6542 51.5067 29.3906 51.7244C29.3059 51.4875 29.2861 51.3933 29.3849 51.1562C29.4168 51.1037 29.4486 51.0512 29.4815 50.9971Z" fill="#191919"/>
<path d="M36.3004 48.8149C36.5104 48.8749 36.7205 48.935 36.9368 48.9968C36.9068 49.1168 36.8768 49.2368 36.8459 49.3605C36.6659 49.2704 36.4859 49.1804 36.3004 49.0877C36.3004 48.9977 36.3004 48.9077 36.3004 48.8149Z" fill="#191919"/>
<path d="M36.1194 58.5432C36.1194 58.6332 36.1194 58.7232 36.1194 58.816C35.9054 58.9459 35.803 59.0057 35.5512 58.9637C35.4987 58.945 35.4462 58.9262 35.3921 58.9069C35.6126 58.6653 35.7775 58.5432 36.1194 58.5432Z" fill="#191919"/>
<path d="M32.3 58.5432C32.51 58.6032 32.7201 58.6632 32.9365 58.7251C32.9065 58.8151 32.8764 58.9051 32.8455 58.9978C32.6355 58.9378 32.4255 58.8778 32.2091 58.816C32.2391 58.726 32.2691 58.6359 32.3 58.5432Z" fill="#191919"/>
<path d="M36.9368 58.1797C36.9068 58.2997 36.8768 58.4197 36.8459 58.5434C36.6659 58.5734 36.4859 58.6034 36.3004 58.6343C36.3004 58.5443 36.3004 58.4543 36.3004 58.3615C36.7323 58.1797 36.7323 58.1797 36.9368 58.1797Z" fill="#191919"/>
<path d="M38.8466 55.8159C38.9366 55.8459 39.0267 55.8759 39.1194 55.9068C39.0455 56.1739 39.0455 56.1739 38.9376 56.4523C38.8475 56.4824 38.7575 56.5124 38.6648 56.5433C38.7443 56.0205 38.7443 56.0205 38.8466 55.8159Z" fill="#191919"/>
<path d="M29.027 54.9976C29.087 54.9976 29.147 54.9976 29.2088 54.9976C29.2688 55.2076 29.3288 55.4176 29.3906 55.634C29.3006 55.664 29.2106 55.694 29.1179 55.7249C29.0579 55.5149 28.9979 55.3049 28.936 55.0885C28.966 55.0585 28.996 55.0285 29.027 54.9976Z" fill="#191919"/>
<path d="M38.5737 50.9971C38.6937 50.9971 38.8138 50.9971 38.9374 50.9971C38.9974 51.2071 39.0574 51.4171 39.1192 51.6335C38.9488 51.6221 38.9488 51.6221 38.7556 51.5426C38.6419 51.2641 38.6419 51.2641 38.5737 50.9971Z" fill="#191919"/>
<path d="M31.4819 58.1797C31.797 58.3147 31.797 58.3147 32.1184 58.4524C32.0884 58.5425 32.0584 58.6325 32.0274 58.7252C31.8474 58.6352 31.6674 58.5452 31.4819 58.4524C31.4819 58.3624 31.4819 58.2724 31.4819 58.1797Z" fill="#191919"/>
<path d="M39.0283 51.8154C39.1183 51.8454 39.2083 51.8754 39.3011 51.9063C39.3311 52.0864 39.3611 52.2664 39.392 52.4519C39.302 52.4969 39.302 52.4969 39.2101 52.5428C39.1201 52.3328 39.0301 52.1227 38.9374 51.9063C38.9674 51.8763 38.9974 51.8463 39.0283 51.8154Z" fill="#191919"/>
<path d="M31.9365 48.8149C31.9965 48.8449 32.0565 48.8749 32.1184 48.9059C32.0884 48.9959 32.0584 49.0859 32.0274 49.1786C31.749 49.2866 31.749 49.2866 31.4819 49.3605C31.4819 49.2404 31.4819 49.1204 31.4819 48.9968C31.6979 48.9002 31.6979 48.9002 31.9365 48.8149Z" fill="#191919"/>
<path d="M35.483 48.5422C35.753 48.5872 35.753 48.5872 36.0285 48.6332C36.0285 48.7532 36.0285 48.8732 36.0285 48.9968C35.8185 48.9068 35.6085 48.8168 35.3921 48.7241C35.4221 48.6641 35.4521 48.6041 35.483 48.5422Z" fill="#191919"/>
<path d="M32.9366 48.5422C32.9066 48.6322 32.8766 48.7223 32.8457 48.815C32.5672 48.923 32.5672 48.923 32.3002 48.9968C32.3343 48.8207 32.3343 48.8207 32.3911 48.6332C32.5729 48.5422 32.5729 48.5422 32.9366 48.5422Z" fill="#191919"/>
</g>
<defs>
<clipPath id="clip0_2377_7576">
<rect width="100" height="100" fill="white" transform="translate(0.168213 0.628906)"/>
</clipPath>
</defs>
</svg>
