<svg width="101" height="101" viewBox="0 0 101 101" fill="none" xmlns="http://www.w3.org/2000/svg">
<path fill-rule="evenodd" clip-rule="evenodd" d="M42.5606 68.9593L42.5625 85.8839H47.3413V68.9598L42.5606 68.9593ZM4.95984 68.9367V85.8839H9.78212V73.0153L13.518 73.0166C14.7554 73.0166 15.6366 73.3245 16.2329 73.9607C16.9893 74.7663 17.2977 76.0653 17.2977 78.4421V85.8839H21.9699V76.5206C21.9699 69.8378 17.71 68.9363 13.5424 68.9363L4.95984 68.9367ZM50.2566 68.9598V85.8839H58.0095C62.14 85.8839 63.4878 85.1967 64.9459 83.6568C65.9767 82.5753 66.6427 80.2017 66.6427 77.6079C66.6427 75.2293 66.0789 73.1066 65.0955 71.7851C63.3246 69.4219 60.7733 68.9598 56.9651 68.9598H50.2566ZM54.998 72.6445H57.0533C60.0345 72.6445 61.9633 73.9837 61.9633 77.4578C61.9633 80.9328 60.0345 82.2715 57.0533 82.2715H54.998V72.6445ZM35.669 68.9598L31.68 82.3732L27.8573 68.9607L22.6978 68.9598L28.1566 85.8839H35.046L40.5478 68.9598H35.6695H35.669ZM68.8667 85.8839H73.6473V68.9611L68.8658 68.9598L68.8667 85.8839ZM82.2661 68.9657L75.5915 85.878H80.3048L81.3609 82.8886H89.2594L90.2586 85.878H95.3766L88.6509 68.9643L82.2661 68.9657ZM85.3689 72.0514L88.2643 79.9743H82.3823L85.3689 72.0514Z" fill="#E4E4E4"/>
<path fill-rule="evenodd" clip-rule="evenodd" d="M36.2418 29.3153V25.2494C36.6411 25.2211 37.041 25.2006 37.4412 25.1879C48.5615 24.8384 55.8573 34.743 55.8573 34.743C55.8573 34.743 47.9778 45.6869 39.5291 45.6869C38.312 45.6869 37.2233 45.4912 36.2418 45.1616V32.8323C40.5708 33.355 41.4411 35.2674 44.0444 39.6059L49.8329 34.7253C49.8329 34.7253 45.6078 29.1833 38.4847 29.1833C37.7093 29.1833 36.9688 29.2375 36.2418 29.3153ZM36.2418 15.8842V21.9575C36.6405 21.9259 37.0402 21.9006 37.4412 21.8861C52.9059 21.3653 62.9809 34.5689 62.9809 34.5689C62.9809 34.5689 51.4081 48.6406 39.3523 48.6406C38.2478 48.6406 37.2138 48.5389 36.2418 48.3666V52.1206C37.0728 52.2264 37.9336 52.2887 38.8324 52.2887C50.0517 52.2887 58.165 46.5595 66.0219 39.7782C67.3235 40.8212 72.6567 43.3585 73.7531 44.4703C66.2827 50.724 48.8739 55.7642 39.0047 55.7642C38.0819 55.7607 37.1599 55.7127 36.2418 55.6204V60.8966H78.8837V15.8838H36.2422L36.2418 15.8842ZM36.2418 45.1616V48.3666C25.8648 46.5161 22.9848 35.7304 22.9848 35.7304C22.9848 35.7304 27.9671 30.21 36.2418 29.3153V32.8323C36.2354 32.8323 36.2309 32.8305 36.2255 32.8305C31.8834 32.3088 28.4907 36.3661 28.4907 36.3661C28.4907 36.3661 30.3914 43.1958 36.2418 45.1616ZM17.8116 35.2625C17.8116 35.2625 23.9613 26.1875 36.2418 25.2494V21.9575C22.6403 23.0489 10.8617 34.5685 10.8617 34.5685C10.8617 34.5685 17.5318 53.8549 36.2418 55.6204L36.2422 52.121C22.5123 50.393 17.8116 35.2625 17.8116 35.2625Z" fill="#E4E4E4"/>
</svg>
