<svg width="101" height="101" viewBox="0 0 101 101" fill="none" xmlns="http://www.w3.org/2000/svg">
<path fill-rule="evenodd" clip-rule="evenodd" d="M42.5606 68.7045L42.5625 85.629H47.3413V68.7049L42.5606 68.7045ZM4.95984 68.6818V85.629H9.78212V72.7604L13.518 72.7618C14.7554 72.7618 15.6366 73.0696 16.2329 73.7058C16.9893 74.5115 17.2977 75.8104 17.2977 78.1872V85.629H21.9699V76.2657C21.9699 69.5829 17.71 68.6814 13.5424 68.6814L4.95984 68.6818ZM50.2566 68.7049V85.629H58.0095C62.14 85.629 63.4878 84.9418 64.9459 83.4019C65.9767 82.3204 66.6427 79.9468 66.6427 77.353C66.6427 74.9744 66.0789 72.8517 65.0955 71.5302C63.3246 69.167 60.7733 68.7049 56.9651 68.7049H50.2566ZM54.998 72.3897H57.0533C60.0345 72.3897 61.9633 73.7288 61.9633 77.2029C61.9633 80.6779 60.0345 82.0166 57.0533 82.0166H54.998V72.3897ZM35.669 68.7049L31.68 82.1183L27.8573 68.7058L22.6978 68.7049L28.1566 85.629H35.046L40.5478 68.7049H35.6695H35.669ZM68.8667 85.629H73.6473V68.7063L68.8658 68.7049L68.8667 85.629ZM82.2661 68.7108L75.5915 85.6231H80.3048L81.3609 82.6337H89.2594L90.2586 85.6231H95.3766L88.6509 68.7094L82.2661 68.7108ZM85.3689 71.7965L88.2643 79.7194H82.3823L85.3689 71.7965Z" fill="#191919"/>
<path fill-rule="evenodd" clip-rule="evenodd" d="M36.2418 29.0604V24.9945C36.6411 24.9662 37.041 24.9457 37.4412 24.933C48.5615 24.5835 55.8573 34.4881 55.8573 34.4881C55.8573 34.4881 47.9778 45.432 39.5291 45.432C38.312 45.432 37.2233 45.2363 36.2418 44.9067V32.5774C40.5708 33.1001 41.4411 35.0125 44.0444 39.3511L49.8329 34.4705C49.8329 34.4705 45.6078 28.9284 38.4847 28.9284C37.7093 28.9284 36.9688 28.9826 36.2418 29.0604ZM36.2418 15.6294V21.7027C36.6405 21.671 37.0402 21.6457 37.4412 21.6312C52.9059 21.1104 62.9809 34.314 62.9809 34.314C62.9809 34.314 51.4081 48.3857 39.3523 48.3857C38.2478 48.3857 37.2138 48.284 36.2418 48.1117V51.8657C37.0728 51.9715 37.9336 52.0339 38.8324 52.0339C50.0517 52.0339 58.165 46.3046 66.0219 39.5233C67.3235 40.5664 72.6567 43.1036 73.7531 44.2154C66.2827 50.4691 48.8739 55.5093 39.0047 55.5093C38.0819 55.5058 37.1599 55.4579 36.2418 55.3655V60.6417H78.8837V15.6289H36.2422L36.2418 15.6294ZM36.2418 44.9067V48.1117C25.8648 46.2612 22.9848 35.4755 22.9848 35.4755C22.9848 35.4755 27.9671 29.9552 36.2418 29.0604V32.5774C36.2354 32.5774 36.2309 32.5756 36.2255 32.5756C31.8834 32.0539 28.4907 36.1112 28.4907 36.1112C28.4907 36.1112 30.3914 42.9409 36.2418 44.9067ZM17.8116 35.0076C17.8116 35.0076 23.9613 25.9327 36.2418 24.9945V21.7027C22.6403 22.7941 10.8617 34.3136 10.8617 34.3136C10.8617 34.3136 17.5318 53.6 36.2418 55.3655L36.2422 51.8661C22.5123 50.1381 17.8116 35.0076 17.8116 35.0076Z" fill="#191919"/>
</svg>
