<svg width="101" height="101" viewBox="0 0 101 101" fill="none" xmlns="http://www.w3.org/2000/svg">
<g clip-path="url(#clip0_2377_7654)">
<path d="M24.5773 50.131C24.529 50.131 24.4808 50.131 24.4326 50.131L20.1393 42.3163C20.2357 42.1716 20.2357 42.0268 20.2357 41.8339C20.2357 41.255 19.7534 40.8209 19.2227 40.8209C18.9333 40.8209 18.6439 40.9656 18.4991 41.1585L10.009 39.4219C9.96078 38.8913 9.52663 38.5054 8.996 38.5054C8.41713 38.5054 7.98297 38.9878 7.98297 39.5184C7.98297 39.7114 8.03121 39.8561 8.07945 40.0008L1.47067 49.5039C1.37419 49.5039 1.27772 49.4557 1.18124 49.4557C0.602366 49.4557 0.168213 49.9381 0.168213 50.4687C0.168213 51.0476 0.650605 51.4817 1.18124 51.4817H1.22948L4.79918 60.3095C4.75094 60.4542 4.7027 60.599 4.7027 60.7437C4.7027 61.3225 5.1851 61.7567 5.71573 61.7567C6.00516 61.7567 6.2946 61.612 6.43932 61.419L17.1484 62.4803C17.2449 62.9144 17.6791 63.2521 18.1615 63.2521C18.7403 63.2521 19.1745 62.7697 19.1745 62.2391C19.1745 61.9979 19.078 61.7567 18.9333 61.5637L24.3361 52.1571C24.3843 52.1571 24.4326 52.1571 24.529 52.1571C25.1079 52.1571 25.5421 51.6747 25.5421 51.1441C25.5903 50.6134 25.1562 50.131 24.5773 50.131ZM18.4027 42.461C18.5474 42.6057 18.6921 42.7504 18.885 42.7987L17.2449 55.0514C17.1484 55.0514 17.052 55.0997 16.9555 55.1479L8.03121 47.4296C8.03121 47.3332 8.07945 47.2367 8.07945 47.1402C8.07945 47.092 8.07945 46.9955 8.07945 46.9472L18.4027 42.461ZM23.5643 51.4817L18.065 55.2444C18.0167 55.1962 17.9685 55.1962 17.9203 55.1479L19.6086 42.7987L23.8055 50.5169C23.6607 50.7099 23.5643 50.9511 23.5643 51.1923C23.516 51.2888 23.5643 51.3853 23.5643 51.4817ZM6.92171 46.1272C6.43932 46.2237 6.0534 46.6096 6.0534 47.1402V47.1884L2.38722 49.3592L8.07945 41.2068L6.92171 46.1272ZM7.30762 48.1532C7.45234 48.105 7.59706 48.0567 7.69354 48.0085L16.5213 55.6786C16.4731 55.775 16.4731 55.9197 16.4731 56.0645V56.1127L6.58404 60.1648C6.43932 59.9718 6.19812 59.7789 5.95692 59.7306L7.30762 48.1532ZM16.7143 56.7398C16.859 56.8845 17.052 56.981 17.2449 57.0292L17.7273 61.3225C17.5343 61.419 17.3414 61.612 17.2449 61.8049L6.87347 60.7919L16.7143 56.7398ZM17.9685 56.981C18.3062 56.8363 18.5474 56.4504 18.5474 56.0645C18.5474 55.968 18.5474 55.8715 18.4991 55.8233L23.516 52.3983L18.4509 61.1778L17.9685 56.981ZM18.2097 41.7856L7.74178 46.3684C7.69354 46.3201 7.6453 46.3201 7.6453 46.2719L8.996 40.5797H9.04424C9.43015 40.5797 9.71959 40.3867 9.91254 40.0973L18.2097 41.7856ZM2.2425 50.4687C2.2425 50.4205 2.2425 50.324 2.2425 50.2758L6.39108 47.8155C6.48756 47.912 6.58404 47.9603 6.68051 48.0085L5.32981 59.5859L1.95307 51.2405C2.09778 51.0476 2.2425 50.8064 2.2425 50.4687Z" fill="#E4E4E4"/>
<path d="M37.2161 54.9548V47.5742C37.2161 44.0045 39.9175 42.6538 43.4389 42.6538C46.9122 42.6538 49.6618 44.0045 49.6618 47.5742V54.9548C49.6618 58.5245 46.9122 59.8752 43.4389 59.8752C39.9175 59.8752 37.2161 58.5245 37.2161 54.9548ZM48.1181 47.5742C48.1181 44.9693 46.3815 43.8116 43.4389 43.8116C40.4963 43.8116 38.7597 45.0175 38.7597 47.5742V54.9548C38.7597 57.5597 40.4963 58.7175 43.4389 58.7175C46.3815 58.7175 48.1181 57.5115 48.1181 54.9548V47.5742Z" fill="#E4E4E4"/>
<path d="M64.9532 58.8623L55.8842 45.4518V59.2C55.8842 59.5377 55.4983 59.7306 55.1124 59.7306C54.7265 59.7306 54.3406 59.5859 54.3406 59.2V43.1845C54.3406 42.7986 54.7265 42.7021 55.1124 42.7021C55.6913 42.7021 56.0772 43.281 56.3666 43.6669L65.2909 56.981V43.1845C65.2909 42.8469 65.6768 42.7021 66.0627 42.7021C66.4486 42.7021 66.8345 42.8469 66.8345 43.1845V59.2C66.8345 59.5377 66.4486 59.7306 66.0627 59.7306C65.5803 59.7306 65.2427 59.2482 64.9532 58.8623Z" fill="#E4E4E4"/>
<path d="M82.3197 58.8623L73.2507 45.4518V59.2C73.2507 59.5377 72.8648 59.7306 72.4789 59.7306C72.0929 59.7306 71.707 59.5859 71.707 59.2V43.1845C71.707 42.7986 72.0929 42.7021 72.4789 42.7021C73.0577 42.7021 73.4436 43.281 73.7331 43.6669L82.6573 56.981V43.1845C82.6573 42.8469 83.0433 42.7021 83.4292 42.7021C83.8151 42.7021 84.201 42.8469 84.201 43.1845V59.2C84.201 59.5377 83.8151 59.7306 83.4292 59.7306C82.995 59.7306 82.6091 59.2482 82.3197 58.8623Z" fill="#E4E4E4"/>
<path d="M93.8007 52.3017L89.218 58.9587C89.025 59.2964 88.7356 59.7305 88.3014 59.7305C87.9155 59.7305 87.4331 59.4893 87.4331 59.1516C87.4331 59.0552 87.4813 58.9587 87.5778 58.8622L92.8841 51.1922L87.6743 43.5704C87.5296 43.4256 87.4813 43.2809 87.4813 43.1362C87.4813 42.8468 87.8673 42.6538 88.3496 42.6538C88.7838 42.6538 89.0732 43.088 89.3144 43.4739L93.8007 50.0827L98.2869 43.4739C98.5281 43.1362 98.8176 42.6538 99.2517 42.6538C99.7341 42.6538 100.12 42.8468 100.12 43.1362C100.12 43.2809 100.072 43.4256 99.9271 43.5704L94.669 51.1922L100.024 58.8622C100.072 58.9587 100.168 59.0552 100.168 59.1516C100.168 59.4893 99.7341 59.7305 99.3 59.7305C98.8176 59.7305 98.5764 59.2481 98.3834 58.9587L93.8007 52.3017Z" fill="#E4E4E4"/>
</g>
<defs>
<clipPath id="clip0_2377_7654">
<rect width="100" height="100" fill="white" transform="translate(0.168213 0.878662)"/>
</clipPath>
</defs>
</svg>
