<svg width="101" height="101" viewBox="0 0 101 101" fill="none" xmlns="http://www.w3.org/2000/svg">
<g clip-path="url(#clip0_2377_7638)">
<path d="M24.5773 49.8764C24.529 49.8764 24.4808 49.8764 24.4326 49.8764L20.1393 42.0616C20.2357 41.9169 20.2357 41.7722 20.2357 41.5792C20.2357 41.0004 19.7534 40.5662 19.2227 40.5662C18.9333 40.5662 18.6439 40.7109 18.4991 40.9039L10.009 39.1673C9.96078 38.6366 9.52663 38.2507 8.996 38.2507C8.41713 38.2507 7.98297 38.7331 7.98297 39.2638C7.98297 39.4567 8.03121 39.6014 8.07945 39.7461L1.47067 49.2493C1.37419 49.2493 1.27772 49.201 1.18124 49.201C0.602366 49.201 0.168213 49.6834 0.168213 50.2141C0.168213 50.7929 0.650605 51.2271 1.18124 51.2271H1.22948L4.79918 60.0549C4.75094 60.1996 4.7027 60.3443 4.7027 60.489C4.7027 61.0679 5.1851 61.5021 5.71573 61.5021C6.00516 61.5021 6.2946 61.3573 6.43932 61.1644L17.1484 62.2256C17.2449 62.6598 17.6791 62.9975 18.1615 62.9975C18.7403 62.9975 19.1745 62.5151 19.1745 61.9845C19.1745 61.7433 19.078 61.5021 18.9333 61.3091L24.3361 51.9024C24.3843 51.9024 24.4326 51.9024 24.529 51.9024C25.1079 51.9024 25.5421 51.4201 25.5421 50.8894C25.5903 50.3588 25.1562 49.8764 24.5773 49.8764ZM18.4027 42.2064C18.5474 42.3511 18.6921 42.4958 18.885 42.544L17.2449 54.7968C17.1484 54.7968 17.052 54.845 16.9555 54.8933L8.03121 47.175C8.03121 47.0785 8.07945 46.982 8.07945 46.8856C8.07945 46.8373 8.07945 46.7408 8.07945 46.6926L18.4027 42.2064ZM23.5643 51.2271L18.065 54.9898C18.0167 54.9415 17.9685 54.9415 17.9203 54.8933L19.6086 42.544L23.8055 50.2623C23.6607 50.4553 23.5643 50.6965 23.5643 50.9377C23.516 51.0341 23.5643 51.1306 23.5643 51.2271ZM6.92171 45.8725C6.43932 45.969 6.0534 46.3549 6.0534 46.8856V46.9338L2.38722 49.1046L8.07945 40.9521L6.92171 45.8725ZM7.30762 47.8986C7.45234 47.8503 7.59706 47.8021 7.69354 47.7539L16.5213 55.4239C16.4731 55.5204 16.4731 55.6651 16.4731 55.8098V55.8581L6.58404 59.9102C6.43932 59.7172 6.19812 59.5242 5.95692 59.476L7.30762 47.8986ZM16.7143 56.4852C16.859 56.6299 17.052 56.7264 17.2449 56.7746L17.7273 61.0679C17.5343 61.1644 17.3414 61.3573 17.2449 61.5503L6.87347 60.5373L16.7143 56.4852ZM17.9685 56.7264C18.3062 56.5817 18.5474 56.1957 18.5474 55.8098C18.5474 55.7133 18.5474 55.6169 18.4991 55.5686L23.516 52.1436L18.4509 60.9232L17.9685 56.7264ZM18.2097 41.531L7.74178 46.1137C7.69354 46.0655 7.6453 46.0655 7.6453 46.0173L8.996 40.325H9.04424C9.43015 40.325 9.71959 40.1321 9.91254 39.8426L18.2097 41.531ZM2.2425 50.2141C2.2425 50.1658 2.2425 50.0694 2.2425 50.0211L6.39108 47.5609C6.48756 47.6574 6.58404 47.7056 6.68051 47.7539L5.32981 59.3313L1.95307 50.9859C2.09778 50.7929 2.2425 50.5517 2.2425 50.2141Z" fill="#191919"/>
<path d="M37.2161 54.7002V47.3196C37.2161 43.7499 39.9175 42.3992 43.4389 42.3992C46.9122 42.3992 49.6618 43.7499 49.6618 47.3196V54.7002C49.6618 58.2699 46.9122 59.6206 43.4389 59.6206C39.9175 59.6206 37.2161 58.2699 37.2161 54.7002ZM48.1181 47.3196C48.1181 44.7147 46.3815 43.5569 43.4389 43.5569C40.4963 43.5569 38.7597 44.7629 38.7597 47.3196V54.7002C38.7597 57.3051 40.4963 58.4628 43.4389 58.4628C46.3815 58.4628 48.1181 57.2569 48.1181 54.7002V47.3196Z" fill="#191919"/>
<path d="M64.9532 58.6077L55.8842 45.1971V58.9453C55.8842 59.283 55.4983 59.476 55.1124 59.476C54.7265 59.476 54.3406 59.3313 54.3406 58.9453V42.9299C54.3406 42.544 54.7265 42.4475 55.1124 42.4475C55.6913 42.4475 56.0772 43.0264 56.3666 43.4123L65.2909 56.7263V42.9299C65.2909 42.5922 65.6768 42.4475 66.0627 42.4475C66.4486 42.4475 66.8345 42.5922 66.8345 42.9299V58.9453C66.8345 59.283 66.4486 59.476 66.0627 59.476C65.5803 59.476 65.2427 58.9936 64.9532 58.6077Z" fill="#191919"/>
<path d="M82.3197 58.6077L73.2507 45.1971V58.9453C73.2507 59.283 72.8648 59.476 72.4789 59.476C72.0929 59.476 71.707 59.3313 71.707 58.9453V42.9299C71.707 42.544 72.0929 42.4475 72.4789 42.4475C73.0577 42.4475 73.4436 43.0264 73.7331 43.4123L82.6573 56.7263V42.9299C82.6573 42.5922 83.0433 42.4475 83.4292 42.4475C83.8151 42.4475 84.201 42.5922 84.201 42.9299V58.9453C84.201 59.283 83.8151 59.476 83.4292 59.476C82.995 59.476 82.6091 58.9936 82.3197 58.6077Z" fill="#191919"/>
<path d="M93.8007 52.047L89.218 58.704C89.025 59.0417 88.7356 59.4759 88.3014 59.4759C87.9155 59.4759 87.4331 59.2347 87.4331 58.897C87.4331 58.8005 87.4813 58.704 87.5778 58.6076L92.8841 50.9375L87.6743 43.3157C87.5296 43.171 87.4813 43.0263 87.4813 42.8816C87.4813 42.5921 87.8673 42.3992 88.3496 42.3992C88.7838 42.3992 89.0732 42.8333 89.3144 43.2192L93.8007 49.828L98.2869 43.2192C98.5281 42.8816 98.8176 42.3992 99.2517 42.3992C99.7341 42.3992 100.12 42.5921 100.12 42.8816C100.12 43.0263 100.072 43.171 99.9271 43.3157L94.669 50.9375L100.024 58.6076C100.072 58.704 100.168 58.8005 100.168 58.897C100.168 59.2347 99.7341 59.4759 99.3 59.4759C98.8176 59.4759 98.5764 58.9935 98.3834 58.704L93.8007 52.047Z" fill="#191919"/>
<path d="M19.6089 42.5439L23.8057 50.2622C23.661 50.4552 23.5645 50.6964 23.5645 50.9376C23.5645 51.0341 23.5645 51.1305 23.6127 51.227L18.1135 54.9897C18.0652 54.9414 18.017 54.9414 17.9688 54.8932L19.6089 42.5439Z" fill="#E4E4E4"/>
<path d="M17.9688 56.7265C18.3064 56.5818 18.5476 56.1959 18.5476 55.81C18.5476 55.7135 18.5476 55.617 18.4994 55.5688L23.5163 52.1438L18.4511 60.9233L17.9688 56.7265Z" fill="#E4E4E4"/>
<path d="M16.7143 56.4851C16.8591 56.6298 17.052 56.7263 17.245 56.7745L17.7274 61.0678C17.5344 61.1643 17.3415 61.3573 17.245 61.5502L6.87354 60.5372L16.7143 56.4851Z" fill="#E4E4E4"/>
<path d="M7.30773 47.8986C7.45245 47.8504 7.59717 47.8021 7.69364 47.7539L16.5214 55.424C16.4732 55.5204 16.4732 55.6651 16.4732 55.8099V55.8581L6.58414 59.9102C6.43942 59.7172 6.19823 59.5243 5.95703 59.476L7.30773 47.8986Z" fill="#E4E4E4"/>
<path d="M2.24256 50.2142C2.24256 50.166 2.24256 50.0695 2.24256 50.0212L6.39114 47.561C6.48762 47.6575 6.58409 47.7058 6.68057 47.754L5.32987 59.3314L1.95312 50.986C2.09784 50.7931 2.24256 50.5519 2.24256 50.2142Z" fill="#E4E4E4"/>
<path d="M6.92158 45.8726C6.43918 45.969 6.05327 46.3549 6.05327 46.8856V46.9338L2.38708 49.1046L8.07932 40.9521L6.92158 45.8726Z" fill="#E4E4E4"/>
<path d="M18.2099 41.5311L7.74199 46.1139C7.69375 46.0656 7.64551 46.0656 7.64551 46.0174L8.99621 40.3252H9.04445C9.43036 40.3252 9.7198 40.1322 9.91275 39.8428L18.2099 41.5311Z" fill="#E4E4E4"/>
<path d="M18.4024 42.2063C18.5472 42.351 18.6919 42.4957 18.8848 42.544L17.2447 54.7967C17.1482 54.7967 17.0517 54.845 16.9553 54.8932L8.03101 47.1749C8.03101 47.0785 8.07925 46.982 8.07925 46.8855C8.07925 46.8373 8.07925 46.7408 8.07925 46.6926L18.4024 42.2063Z" fill="#E4E4E4"/>
</g>
<defs>
<clipPath id="clip0_2377_7638">
<rect width="100" height="100" fill="white" transform="translate(0.168213 0.624023)"/>
</clipPath>
</defs>
</svg>
