<svg width="101" height="101" viewBox="0 0 101 101" fill="none" xmlns="http://www.w3.org/2000/svg">
<g clip-path="url(#clip0_2377_7694)">
<path d="M43.3444 39.7229C40.8152 38.2706 38.8385 36.0288 37.7209 33.3452C36.6033 30.6617 36.4072 27.6863 37.1631 24.8807C37.919 22.075 39.5846 19.5958 41.9015 17.8275C44.2185 16.0593 47.0573 15.1008 49.9778 15.1008C52.8983 15.1008 55.7371 16.0593 58.0541 17.8275C60.371 19.5958 62.0366 22.075 62.7925 24.8807C63.5484 27.6863 63.3523 30.6617 62.2347 33.3452C61.1171 36.0288 59.1404 38.2706 56.6112 39.7229L52.6168 32.8418C53.6229 32.264 54.4093 31.3722 54.854 30.3046C55.2986 29.237 55.3766 28.0533 55.0759 26.9371C54.7752 25.821 54.1125 24.8346 53.1908 24.1312C52.269 23.4277 51.1397 23.0464 49.9778 23.0464C48.816 23.0464 47.6866 23.4277 46.7648 24.1312C45.8431 24.8346 45.1805 25.821 44.8797 26.9371C44.579 28.0533 44.657 29.237 45.1017 30.3046C45.5463 31.3722 46.3327 32.264 47.3389 32.8418L43.3444 39.7229Z" fill="#E4E4E4"/>
<path d="M71.754 42.9175C74.2831 44.3698 76.2598 46.6116 77.3775 49.2951C78.4951 51.9787 78.6911 54.954 77.9353 57.7597C77.1794 60.5654 75.5138 63.0446 73.1969 64.8129C70.8799 66.5811 68.041 67.5396 65.1206 67.5396C62.2001 67.5396 59.3613 66.5811 57.0443 64.8129C54.7273 63.0446 53.0618 60.5654 52.3059 57.7597C51.55 54.954 51.7461 51.9787 52.8637 49.2951C53.9813 46.6116 55.958 44.3698 58.4872 42.9175L62.4816 49.7986C61.4754 50.3763 60.6891 51.2682 60.2444 52.3358C59.7998 53.4034 59.7218 54.5871 60.0225 55.7032C60.3232 56.8194 60.9858 57.8057 61.9076 58.5092C62.8294 59.2127 63.9587 59.594 65.1206 59.594C66.2824 59.594 67.4118 59.2127 68.3336 58.5092C69.2553 57.8057 69.9179 56.8194 70.2186 55.7032C70.5194 54.5871 70.4413 53.4034 69.9967 52.3358C69.5521 51.2682 68.7657 50.3763 67.7595 49.7986L71.754 42.9175Z" fill="#E4E4E4"/>
<path d="M48.3874 54.3445C48.3874 57.2492 47.4237 60.0727 45.6458 62.3771C43.868 64.6815 41.3752 66.3381 38.5543 67.0898C35.7333 67.8416 32.7418 67.6466 30.0436 66.5351C27.3455 65.4235 25.0915 63.4575 23.6313 60.942C22.171 58.4265 21.5862 55.502 21.9674 52.6222C22.3486 49.7424 23.6745 47.0682 25.7396 45.0143C27.8047 42.9604 30.4935 41.6416 33.389 41.2625C36.2844 40.8833 39.2248 41.4651 41.754 42.9174L37.7596 49.7985C36.7534 49.2207 35.5836 48.9893 34.4317 49.1401C33.2798 49.2909 32.2101 49.8156 31.3886 50.6327C30.567 51.4498 30.0395 52.5137 29.8879 53.6594C29.7362 54.805 29.9689 55.9685 30.5498 56.9692C31.1307 57.9699 32.0274 58.7521 33.1008 59.1943C34.1743 59.6365 35.3644 59.7141 36.4866 59.415C37.6089 59.1159 38.6006 58.4569 39.3079 57.5401C40.0151 56.6234 40.3985 55.5001 40.3985 54.3445L48.3874 54.3445Z" fill="#E4E4E4"/>
<path fill-rule="evenodd" clip-rule="evenodd" d="M25.6425 70.7031C26.7654 70.6027 27.9006 70.6036 29.0178 70.7628C29.7063 70.884 30.4368 71.0612 30.954 71.5603C31.4959 72.1618 31.6292 72.9973 31.7482 73.7674C31.9435 75.3654 31.9206 76.9861 31.7482 78.585C31.633 79.3655 31.5197 80.2085 31.0054 80.8432C30.4444 81.4096 29.6159 81.5706 28.8559 81.69C27.734 81.8292 26.5959 81.8614 25.4692 81.7497C24.7063 81.672 23.9102 81.5384 23.2606 81.1055C22.8406 80.8403 22.6149 80.3724 22.4616 79.9187C22.154 78.9733 22.1149 77.9693 22.073 76.9842C22.0682 75.6827 22.093 74.3679 22.3482 73.0873C22.4863 72.4896 22.654 71.8322 23.1616 71.4334C23.8768 70.9172 24.7863 70.7921 25.6425 70.7031ZM25.8282 72.4867C26.7797 72.411 27.7511 72.3882 28.6921 72.572C29.0568 72.6449 29.4873 72.8211 29.5559 73.2341C29.8416 74.3963 29.7749 75.6069 29.7863 76.7947C29.7511 77.6396 29.7711 78.513 29.4863 79.3219C29.2378 79.8533 28.5606 79.8969 28.0502 79.9746C27.0263 80.0323 25.9635 80.0835 24.9702 79.7813C24.5121 79.661 24.3673 79.1723 24.2968 78.7621C24.1063 77.5468 24.1682 76.3107 24.1921 75.0859C24.2425 74.3992 24.234 73.6869 24.4825 73.0342C24.7673 72.5966 25.3559 72.5578 25.8282 72.4867Z" fill="#E4E4E4"/>
<path fill-rule="evenodd" clip-rule="evenodd" d="M35.8607 74.4048C36.5426 73.9738 37.3892 73.9037 38.1759 73.9747C38.9102 74.0373 39.7254 74.2854 40.1188 74.958C40.5883 75.8019 40.615 76.7994 40.6473 77.7409C40.6264 78.709 40.6083 79.7197 40.2064 80.6195C39.9769 81.1661 39.4492 81.5241 38.8845 81.6653C38.0197 81.8765 37.0692 81.8992 36.2359 81.5563C35.7854 81.3811 35.474 81.0003 35.2159 80.6101C35.2159 82.0849 35.2159 83.5597 35.2159 85.0346H33.3111C33.3121 81.3726 33.3092 77.7097 33.3121 74.0477C33.9283 74.0448 34.5445 74.0448 35.1597 74.0477C35.1388 74.4247 35.1178 74.8007 35.1073 75.1787C35.3359 74.9011 35.5483 74.5961 35.8607 74.4048ZM36.4807 75.3937C37.014 75.353 37.5778 75.3416 38.0769 75.5604C38.3931 75.6959 38.5597 76.0283 38.6159 76.3504C38.7816 77.1811 38.7607 78.0393 38.7016 78.8804C38.6426 79.3881 38.5607 80.0455 37.9988 80.2425C37.3492 80.4538 36.6083 80.467 35.9664 80.2198C35.3692 79.9697 35.2997 79.2508 35.2407 78.6929C35.2054 77.8366 35.1626 76.9557 35.4054 76.124C35.534 75.6523 36.0273 75.4287 36.4807 75.3937Z" fill="#E4E4E4"/>
<path fill-rule="evenodd" clip-rule="evenodd" d="M42.9263 74.4191C43.8625 73.9408 44.9587 73.9237 45.9863 73.972C46.8416 74.0431 47.8797 74.1852 48.3511 74.9988C48.8825 75.9811 48.7959 77.1367 48.8701 78.2147C47.133 78.2147 45.3959 78.2147 43.6597 78.2147C43.7206 78.7707 43.6482 79.3703 43.9301 79.8799C44.1711 80.2825 44.6825 80.3649 45.1149 80.3885C45.6492 80.3923 46.2244 80.4359 46.7168 80.1887C46.9987 79.9689 47.0006 79.5787 47.0368 79.2566C47.6463 79.2557 48.2559 79.2557 48.8654 79.2566C48.8425 79.8894 48.7606 80.5979 48.2501 81.0431C47.4835 81.727 46.3863 81.798 45.4054 81.817C44.5397 81.7914 43.6254 81.7478 42.8501 81.3235C42.2225 80.955 42.0225 80.1982 41.912 79.5313C41.772 78.5405 41.7368 77.5308 41.8559 76.5362C41.953 75.7509 42.1654 74.8274 42.9263 74.4191ZM44.0397 75.6249C44.5597 75.3105 45.2035 75.3739 45.7873 75.3825C46.1492 75.4213 46.5901 75.4421 46.8254 75.7604C47.0654 76.1535 47.0225 76.6347 47.0244 77.0761C45.9035 77.078 44.7835 77.0808 43.6635 77.0751C43.6806 76.5845 43.6416 75.9858 44.0397 75.6249Z" fill="#E4E4E4"/>
<path fill-rule="evenodd" clip-rule="evenodd" d="M52.9264 74.4143C53.5854 73.9596 54.4368 73.8961 55.2121 73.9852C55.8721 74.0543 56.5711 74.3044 56.9607 74.8708C57.3064 75.3406 57.4026 75.9393 57.4073 76.5086C57.4045 78.2458 57.4083 79.982 57.4064 81.7193C56.8026 81.7202 56.1997 81.7202 55.5978 81.7193C55.5949 80.0758 55.5997 78.4333 55.5949 76.7908C55.5768 76.4318 55.5911 76.017 55.3197 75.7404C55.0302 75.4287 54.5759 75.3681 54.1711 75.3709C53.6816 75.3681 53.1521 75.4515 52.7749 75.7877C52.4064 76.1003 52.2664 76.6042 52.2645 77.0703C52.2616 78.6199 52.2654 80.1696 52.2626 81.7183C51.6597 81.7202 51.0568 81.7202 50.4549 81.7193C50.454 79.1617 50.454 76.6042 50.4549 74.0467C51.0473 74.0448 51.6407 74.0458 52.233 74.0467C52.2302 74.4957 52.1854 74.9419 52.1721 75.3908C52.3664 75.0281 52.5702 74.6454 52.9264 74.4143Z" fill="#E4E4E4"/>
<path fill-rule="evenodd" clip-rule="evenodd" d="M60.6816 71.0535C61.6797 70.72 62.7435 70.6727 63.7873 70.6357C64.7987 70.6405 65.8559 70.6499 66.8006 71.0554C67.2806 71.2543 67.613 71.69 67.7749 72.1712C68.0387 72.8901 68.0463 73.6688 68.052 74.4256C67.3559 74.4256 66.6597 74.4275 65.9644 74.4246C65.953 73.8923 65.9939 73.2956 65.6625 72.8428C65.3273 72.5018 64.8035 72.5027 64.3587 72.4506C63.4539 72.4336 62.512 72.3758 61.6454 72.6865C61.333 72.785 61.1711 73.0957 61.1082 73.395C60.9301 74.1983 60.9292 75.0271 60.9301 75.8464C60.9406 76.9414 60.9235 78.0525 61.1587 79.1295C61.2206 79.5236 61.5854 79.7661 61.9511 79.8532C62.7968 80.0625 63.6797 80.0322 64.5435 79.9811C64.9939 79.9223 65.5425 79.893 65.8254 79.4819C66.1273 78.9912 66.0768 78.3878 66.0606 77.8366C66.7635 77.8337 67.4654 77.8347 68.1682 77.8366C68.1597 78.7071 68.1444 79.606 67.8263 80.4301C67.6625 80.861 67.3244 81.2267 66.8863 81.3915C66.0263 81.7344 65.0835 81.7562 64.1711 81.8111C63.113 81.8291 62.0416 81.8035 61.0073 81.5582C60.4006 81.401 59.7378 81.1244 59.4568 80.5248C59.0978 79.732 59.032 78.8501 58.9397 77.9966C58.8625 76.8694 58.813 75.7403 58.8406 74.6113C58.8949 73.6972 58.9787 72.7338 59.4749 71.9372C59.7387 71.4939 60.2016 71.2164 60.6816 71.0535Z" fill="#E4E4E4"/>
<path fill-rule="evenodd" clip-rule="evenodd" d="M68.5111 70.7344C69.2368 70.7353 69.9625 70.7145 70.6873 70.7448C71.393 72.9717 72.1682 75.1759 72.8806 77.4C73.1578 78.2544 73.354 79.1334 73.6406 79.985C73.9616 79.0662 74.1673 78.1114 74.4816 77.1907C75.1778 75.0395 75.893 72.895 76.5882 70.7439C77.3044 70.7135 78.0225 70.7401 78.7397 70.7306V70.9664C77.5606 74.5403 76.4092 78.1237 75.254 81.7061C74.1759 81.7279 73.0959 81.7307 72.0178 81.7042C70.8692 78.0413 69.6654 74.3954 68.5111 70.7344Z" fill="#E4E4E4"/>
</g>
<defs>
<clipPath id="clip0_2377_7694">
<rect width="57.1429" height="70" fill="white" transform="translate(21.5968 15.0347)"/>
</clipPath>
</defs>
</svg>
