<svg width="101" height="101" viewBox="0 0 101 101" fill="none" xmlns="http://www.w3.org/2000/svg">
<g clip-path="url(#clip0_2377_7682)">
<path d="M43.3444 40.4683C40.8152 39.0159 38.8385 36.7742 37.7209 34.0906C36.6033 31.4071 36.4072 28.4317 37.1631 25.626C37.919 22.8203 39.5846 20.3411 41.9015 18.5729C44.2185 16.8046 47.0573 15.8462 49.9778 15.8462C52.8983 15.8462 55.7371 16.8046 58.0541 18.5729C60.371 20.3411 62.0366 22.8203 62.7925 25.626C63.5484 28.4317 63.3523 31.4071 62.2347 34.0906C61.1171 36.7742 59.1404 39.0159 56.6112 40.4683L52.6168 33.5872C53.6229 33.0094 54.4093 32.1176 54.854 31.05C55.2986 29.9824 55.3766 28.7987 55.0759 27.6825C54.7752 26.5663 54.1125 25.58 53.1908 24.8765C52.269 24.1731 51.1397 23.7918 49.9778 23.7918C48.816 23.7918 47.6866 24.1731 46.7648 24.8765C45.8431 25.58 45.1805 26.5663 44.8797 27.6825C44.579 28.7987 44.657 29.9824 45.1017 31.05C45.5463 32.1176 46.3327 33.0094 47.3389 33.5872L43.3444 40.4683Z" fill="#191919"/>
<path d="M71.754 43.6628C74.2831 45.1152 76.2598 47.3569 77.3775 50.0405C78.4951 52.724 78.6911 55.6994 77.9353 58.5051C77.1794 61.3108 75.5138 63.79 73.1969 65.5582C70.8799 67.3265 68.041 68.2849 65.1206 68.2849C62.2001 68.2849 59.3613 67.3265 57.0443 65.5582C54.7273 63.79 53.0618 61.3108 52.3059 58.5051C51.55 55.6994 51.7461 52.724 52.8637 50.0405C53.9813 47.3569 55.958 45.1152 58.4872 43.6628L62.4816 50.5439C61.4754 51.1217 60.6891 52.0135 60.2444 53.0811C59.7998 54.1487 59.7218 55.3324 60.0225 56.4486C60.3232 57.5648 60.9858 58.5511 61.9076 59.2546C62.8294 59.958 63.9587 60.3393 65.1206 60.3393C66.2824 60.3393 67.4118 59.958 68.3336 59.2546C69.2553 58.5511 69.9179 57.5648 70.2186 56.4486C70.5194 55.3324 70.4413 54.1487 69.9967 53.0811C69.5521 52.0135 68.7657 51.1217 67.7595 50.5439L71.754 43.6628Z" fill="#191919"/>
<path d="M48.3874 55.0899C48.3874 57.9945 47.4237 60.818 45.6458 63.1225C43.868 65.4269 41.3752 67.0834 38.5543 67.8352C35.7333 68.587 32.7418 68.392 30.0436 67.2804C27.3455 66.1689 25.0915 64.2029 23.6313 61.6874C22.171 59.1718 21.5862 56.2474 21.9674 53.3676C22.3486 50.4878 23.6745 47.8136 25.7396 45.7597C27.8047 43.7058 30.4935 42.387 33.389 42.0078C36.2844 41.6287 39.2248 42.2104 41.754 43.6627L37.7596 50.5438C36.7534 49.9661 35.5836 49.7346 34.4317 49.8855C33.2798 50.0363 32.2101 50.5609 31.3886 51.378C30.567 52.1952 30.0395 53.259 29.8879 54.4047C29.7362 55.5504 29.9689 56.7138 30.5498 57.7146C31.1307 58.7153 32.0274 59.4974 33.1008 59.9396C34.1743 60.3819 35.3644 60.4594 36.4866 60.1604C37.6089 59.8613 38.6006 59.2022 39.3079 58.2855C40.0151 57.3687 40.3985 56.2454 40.3985 55.0899L48.3874 55.0899Z" fill="#191919"/>
<path fill-rule="evenodd" clip-rule="evenodd" d="M25.6425 71.4485C26.7654 71.3481 27.9006 71.349 29.0178 71.5081C29.7063 71.6294 30.4368 71.8065 30.954 72.3057C31.4959 72.9072 31.6292 73.7426 31.7482 74.5127C31.9435 76.1107 31.9206 77.7314 31.7482 79.3303C31.633 80.1108 31.5197 80.9539 31.0054 81.5885C30.4444 82.155 29.6159 82.316 28.8559 82.4353C27.734 82.5746 26.5959 82.6068 25.4692 82.495C24.7063 82.4173 23.9102 82.2838 23.2606 81.8509C22.8406 81.5857 22.6149 81.1177 22.4616 80.664C22.154 79.7187 22.1149 78.7146 22.073 77.7295C22.0682 76.428 22.093 75.1133 22.3482 73.8326C22.4863 73.2349 22.654 72.5776 23.1616 72.1788C23.8768 71.6625 24.7863 71.5375 25.6425 71.4485ZM25.8282 73.2321C26.7797 73.1563 27.7511 73.1336 28.6921 73.3173C29.0568 73.3903 29.4873 73.5665 29.5559 73.9795C29.8416 75.1417 29.7749 76.3523 29.7863 77.5401C29.7511 78.385 29.7711 79.2583 29.4863 80.0673C29.2378 80.5987 28.5606 80.6422 28.0502 80.7199C27.0263 80.7777 25.9635 80.8288 24.9702 80.5267C24.5121 80.4064 24.3673 79.9176 24.2968 79.5075C24.1063 78.2922 24.1682 77.056 24.1921 75.8313C24.2425 75.1445 24.234 74.4322 24.4825 73.7796C24.7673 73.342 25.3559 73.3031 25.8282 73.2321Z" fill="#191919"/>
<path fill-rule="evenodd" clip-rule="evenodd" d="M35.8607 75.1502C36.5426 74.7192 37.3892 74.6491 38.1759 74.7201C38.9102 74.7826 39.7254 75.0308 40.1188 75.7033C40.5883 76.5473 40.615 77.5447 40.6473 78.4863C40.6264 79.4543 40.6083 80.465 40.2064 81.3649C39.9769 81.9115 39.4492 82.2695 38.8845 82.4106C38.0197 82.6219 37.0692 82.6446 36.2359 82.3017C35.7854 82.1265 35.474 81.7457 35.2159 81.3554C35.2159 82.8303 35.2159 84.3051 35.2159 85.7799H33.3111C33.3121 82.1179 33.3092 78.455 33.3121 74.793C33.9283 74.7902 34.5445 74.7902 35.1597 74.793C35.1388 75.17 35.1178 75.5461 35.1073 75.924C35.3359 75.6465 35.5483 75.3415 35.8607 75.1502ZM36.4807 76.1391C37.014 76.0983 37.5778 76.087 38.0769 76.3058C38.3931 76.4412 38.5597 76.7737 38.6159 77.0958C38.7816 77.9265 38.7607 78.7847 38.7016 79.6258C38.6426 80.1335 38.5607 80.7909 37.9988 80.9879C37.3492 81.1991 36.6083 81.2124 35.9664 80.9652C35.3692 80.7151 35.2997 79.9962 35.2407 79.4382C35.2054 78.582 35.1626 77.701 35.4054 76.8694C35.534 76.3976 36.0273 76.1741 36.4807 76.1391Z" fill="#191919"/>
<path fill-rule="evenodd" clip-rule="evenodd" d="M42.9263 75.1645C43.8625 74.6861 44.9587 74.6691 45.9863 74.7174C46.8416 74.7884 47.8797 74.9305 48.3511 75.7442C48.8825 76.7265 48.7959 77.8821 48.8701 78.96C47.133 78.96 45.3959 78.96 43.6597 78.96C43.7206 79.516 43.6482 80.1156 43.9301 80.6252C44.1711 81.0278 44.6825 81.1102 45.1149 81.1339C45.6492 81.1377 46.2244 81.1813 46.7168 80.934C46.9987 80.7143 47.0006 80.324 47.0368 80.002C47.6463 80.001 48.2559 80.001 48.8654 80.002C48.8425 80.6347 48.7606 81.3432 48.2501 81.7884C47.4835 82.4723 46.3863 82.5434 45.4054 82.5623C44.5397 82.5367 43.6254 82.4932 42.8501 82.0688C42.2225 81.7003 42.0225 80.9435 41.912 80.2767C41.772 79.2859 41.7368 78.2761 41.8559 77.2815C41.953 76.4963 42.1654 75.5727 42.9263 75.1645ZM44.0397 76.3703C44.5597 76.0558 45.2035 76.1193 45.7873 76.1278C46.1492 76.1666 46.5901 76.1875 46.8254 76.5058C47.0654 76.8989 47.0225 77.38 47.0244 77.8215C45.9035 77.8233 44.7835 77.8262 43.6635 77.8205C43.6806 77.3298 43.6416 76.7312 44.0397 76.3703Z" fill="#191919"/>
<path fill-rule="evenodd" clip-rule="evenodd" d="M52.9264 75.1596C53.5854 74.7049 54.4368 74.6415 55.2121 74.7305C55.8721 74.7997 56.5711 75.0497 56.9607 75.6162C57.3064 76.086 57.4026 76.6846 57.4073 77.2539C57.4045 78.9911 57.4083 80.7274 57.4064 82.4646C56.8026 82.4656 56.1997 82.4656 55.5978 82.4646C55.5949 80.8212 55.5997 79.1787 55.5949 77.5362C55.5768 77.1772 55.5911 76.7623 55.3197 76.4857C55.0302 76.1741 54.5759 76.1135 54.1711 76.1163C53.6816 76.1135 53.1521 76.1968 52.7749 76.5331C52.4064 76.8457 52.2664 77.3496 52.2645 77.8156C52.2616 79.3653 52.2654 80.915 52.2626 82.4637C51.6597 82.4656 51.0568 82.4656 50.4549 82.4646C50.454 79.9071 50.454 77.3496 50.4549 74.7921C51.0473 74.7902 51.6407 74.7911 52.233 74.7921C52.2302 75.2411 52.1854 75.6872 52.1721 76.1362C52.3664 75.7734 52.5702 75.3907 52.9264 75.1596Z" fill="#191919"/>
<path fill-rule="evenodd" clip-rule="evenodd" d="M60.6816 71.7988C61.6797 71.4654 62.7435 71.418 63.7873 71.3811C64.7987 71.3858 65.8559 71.3953 66.8006 71.8007C67.2806 71.9996 67.613 72.4354 67.7749 72.9166C68.0387 73.6355 68.0463 74.4141 68.052 75.171C67.3559 75.171 66.6597 75.1728 65.9644 75.17C65.953 74.6377 65.9939 74.0409 65.6625 73.5881C65.3273 73.2471 64.8035 73.2481 64.3587 73.196C63.4539 73.1789 62.512 73.1212 61.6454 73.4319C61.333 73.5304 61.1711 73.841 61.1082 74.1404C60.9301 74.9436 60.9292 75.7724 60.9301 76.5918C60.9406 77.6868 60.9235 78.7979 61.1587 79.8749C61.2206 80.2689 61.5854 80.5114 61.9511 80.5986C62.7968 80.8079 63.6797 80.7776 64.5435 80.7264C64.9939 80.6677 65.5425 80.6383 65.8254 80.2272C66.1273 79.7366 66.0768 79.1332 66.0606 78.5819C66.7635 78.5791 67.4654 78.58 68.1682 78.5819C68.1597 79.4524 68.1444 80.3513 67.8263 81.1754C67.6625 81.6064 67.3244 81.972 66.8863 82.1369C66.0263 82.4797 65.0835 82.5015 64.1711 82.5565C63.113 82.5745 62.0416 82.5489 61.0073 82.3036C60.4006 82.1463 59.7378 81.8697 59.4568 81.2701C59.0978 80.4773 59.032 79.5954 58.9397 78.742C58.8625 77.6148 58.813 76.4857 58.8406 75.3566C58.8949 74.4425 58.9787 73.4792 59.4749 72.6826C59.7387 72.2393 60.2016 71.9618 60.6816 71.7988Z" fill="#191919"/>
<path fill-rule="evenodd" clip-rule="evenodd" d="M68.5111 71.4797C69.2368 71.4807 69.9625 71.4598 70.6873 71.4902C71.393 73.7171 72.1682 75.9213 72.8806 78.1454C73.1578 78.9998 73.354 79.8788 73.6406 80.7304C73.9616 79.8115 74.1673 78.8567 74.4816 77.936C75.1778 75.7849 75.893 73.6404 76.5882 71.4892C77.3044 71.4589 78.0225 71.4854 78.7397 71.476V71.7118C77.5606 75.2857 76.4092 78.869 75.254 82.4515C74.1759 82.4732 73.0959 82.4761 72.0178 82.4496C70.8692 78.7866 69.6654 75.1408 68.5111 71.4797Z" fill="#191919"/>
</g>
<defs>
<clipPath id="clip0_2377_7682">
<rect width="57.1429" height="70" fill="white" transform="translate(21.5968 15.78)"/>
</clipPath>
</defs>
</svg>
