<svg width="101" height="101" viewBox="0 0 101 101" fill="none" xmlns="http://www.w3.org/2000/svg">
<path fill-rule="evenodd" clip-rule="evenodd" d="M43.2445 26.7104C45.382 26.7104 47.5196 26.7434 49.6542 26.6876C50.2205 26.6728 51.2363 27.1412 51.1908 25.9643C51.1561 25.0065 50.2677 25.3531 49.7294 25.3446C47.3181 25.3064 44.8989 25.2148 42.4973 25.3656C40.7883 25.472 40.2846 24.8233 40.4992 23.256C40.5731 22.7153 40.502 22.1553 40.5134 21.6045C40.5885 17.936 41.4752 16.6874 45.0332 15.7826C48.9531 14.7867 52.9647 14.8197 56.8738 15.6779C60.388 16.4496 61.8477 19.1835 61.6702 21.7126C61.4539 24.7988 61.6212 27.9118 61.6184 31.0134C61.6133 34.9134 59.5981 36.9832 55.6662 37.0373C52.428 37.0816 49.1859 37.1169 45.9494 37.027C42.0921 36.9189 39.2625 40.1229 39.2432 43.7538C39.2432 44.0292 39.2904 44.3138 39.2358 44.5795C38.958 45.9129 40.0678 48.0681 38.6541 48.4642C36.503 49.0686 33.9841 49.0686 32.0868 47.149C31.4437 46.5002 30.9019 45.7735 30.6162 44.9335C29.0916 40.4575 28.8509 35.9247 30.2861 31.3787C31.1807 28.5412 33.6142 26.7764 36.6287 26.7258C38.8334 26.6888 41.0387 26.7184 43.2434 26.7184L43.2445 26.7104ZM47.1724 20.382C47.0802 19.299 46.498 18.5086 45.2967 18.4756C43.9826 18.4414 43.3037 19.2359 43.302 20.5289C43.3008 21.7274 43.9536 22.4951 45.1464 22.5298C46.4571 22.5679 47.0916 21.7558 47.1724 20.382Z" fill="#E4E4E4"/>
<path fill-rule="evenodd" clip-rule="evenodd" d="M59.7425 48.651C57.3295 48.651 54.9154 48.63 52.5024 48.6681C51.9589 48.6749 51.0472 48.3312 51.0188 49.2605C50.9869 50.3145 51.9652 50.0402 52.5866 50.0465C54.9996 50.0766 57.4149 50.1022 59.8273 50.0351C61.0668 50.0009 61.5727 50.2382 61.6655 51.6997C62.0849 58.3155 59.2138 58.8874 53.9183 60.091C50.8805 60.7814 47.6235 60.4154 44.6278 59.0735C42.1505 57.9655 40.6305 56.3686 40.8222 53.3785C41.0123 50.4272 41.0442 47.4377 40.8171 44.4892C40.544 40.9306 42.7577 38.3134 47.063 38.3122C49.9597 38.3117 52.8757 38.0908 55.7474 38.3549C59.8535 38.7316 63.0729 35.1725 63.214 31.034C63.2197 30.8969 63.1844 30.7495 63.2197 30.622C63.5816 29.3501 62.2943 27.4595 64.0164 26.817C66.6189 25.8467 69.5537 26.8665 70.8832 28.8413C72.5591 31.3277 72.7857 34.2534 73.0565 37.1103C73.3496 40.1897 72.4857 43.0887 71.1922 45.8664C70.3135 47.7501 68.8361 48.6607 66.7777 48.6636C64.433 48.6653 62.0889 48.6636 59.7436 48.6636L59.7425 48.651ZM59.1142 54.7973C58.8564 53.6215 58.326 52.8191 56.9602 52.7855C55.5397 52.7514 55.1732 53.8139 55.1806 54.7626C55.1886 55.771 55.4697 57.0117 57.0074 56.8956C58.2856 56.7977 58.9088 56.0061 59.1142 54.7973Z" fill="#E4E4E4"/>
<path fill-rule="evenodd" clip-rule="evenodd" d="M21.7868 78.9725C21.7868 80.4419 21.8533 81.818 21.7555 83.1821C21.7133 83.7706 22.3621 84.878 21.1277 84.8769C20.0396 84.8769 19.7602 84.0107 19.7949 82.9641C19.8615 80.9666 19.8143 78.9651 19.8143 76.9658V72.4142C19.8143 69.6711 20.5501 68.7424 23.1736 68.1744C25.6128 67.644 27.5295 68.4652 28.5152 70.6005C29.5009 72.7363 29.5771 74.937 28.5909 77.1098C27.6189 79.2508 25.8285 80.0498 23.535 79.4152C23.0126 79.273 22.485 79.1495 21.7868 78.9725ZM21.7868 73.5956C21.7868 74.3525 21.8892 75.1242 21.7657 75.8607C21.48 77.5628 22.567 77.9823 23.8486 78.285C25.116 78.5844 25.985 78.0454 26.4932 76.9289C27.3474 75.0565 27.4908 73.1256 26.8421 71.1457C26.2661 69.386 24.9361 69.18 23.3836 69.3985C21.8505 69.6165 21.6428 70.6591 21.7765 71.9481C21.8334 72.4916 21.7868 73.0465 21.7868 73.5956ZM38.2832 78.8814C37.2332 79.1546 36.3215 79.446 35.3882 79.6213C33.3451 80.0031 31.8325 78.8814 31.3004 76.8361C30.6402 74.3047 31.1991 71.7831 31.2161 69.2574C31.2235 68.1061 32.2889 68.5551 33.0259 67.9382C33.0259 70.6415 33.0361 72.9748 33.0225 75.3064C33.0151 76.4776 33.3178 77.4405 34.4253 78.0579C35.6477 78.7397 36.6505 78.0904 37.7147 77.6527C38.4773 77.3392 38.3822 76.6989 38.3834 76.09C38.3891 73.8865 38.3828 71.6852 38.3902 69.4816C38.3913 68.9381 38.335 68.274 39.1374 68.3008C39.8528 68.3241 40.1641 68.7492 40.1521 69.5289C40.1003 73.1751 40.2033 76.8264 40.0554 80.4675C39.9433 83.2208 38.0009 84.9025 35.2067 85.026C34.7884 85.0436 34.3502 85.0823 34.1937 84.5633C33.9552 83.7643 34.6023 83.9151 35.0274 83.7791C38.1011 82.8014 38.5029 82.2175 38.2832 78.8814ZM51.2723 69.4202C52.0856 69.036 52.5528 68.6843 53.0667 68.5893C55.9503 68.056 58.1601 68.2592 58.1544 72.1433C58.1504 74.1437 58.1556 76.1446 58.1504 78.1444C58.1493 78.7044 58.1851 79.2496 57.3503 79.298C56.4699 79.3504 56.2764 78.8467 56.2804 78.1564C56.2906 76.2289 56.343 74.3013 56.3413 72.3744C56.3401 70.8776 56.0345 69.5528 54.1309 69.5573C52.4612 69.5602 51.2786 70.8065 51.27 72.5263C51.2605 74.388 51.261 76.2497 51.2717 78.1114C51.2734 78.7727 51.2877 79.3526 50.3316 79.298C49.4705 79.2468 49.5764 78.6663 49.5764 78.1319C49.5707 73.2377 49.5946 68.3383 49.5531 63.4407C49.5457 62.5825 49.8843 62.0498 50.6457 62.0134C51.7202 61.9638 51.2279 62.9034 51.2439 63.3746C51.3139 65.2931 51.2723 67.2161 51.2723 69.4202ZM60.3722 73.8085C60.2635 69.987 62.0761 67.9468 65.3575 68.0651C67.0045 68.1255 68.24 68.8562 69.0373 70.2789C70.4458 72.7955 70.2551 75.3132 68.7311 77.6698C67.684 79.2883 66.0734 80.0515 64.11 79.6349C62.174 79.2252 60.6579 77.482 60.3836 75.4503C60.3107 74.9125 60.3722 74.3554 60.3722 73.8085ZM67.9526 73.8978C67.8661 73.2309 67.8814 72.3009 67.6037 71.4712C67.2241 70.333 66.5321 69.4168 65.1202 69.3542C63.6957 69.2927 62.9849 70.1253 62.5097 71.2777C61.7636 73.0869 61.812 74.9034 62.6201 76.6802C63.1391 77.8246 63.9404 78.6623 65.329 78.4301C66.6966 78.2019 67.5036 77.3056 67.783 75.9756C67.9099 75.3729 67.8894 74.7412 67.9526 73.8978ZM71.9403 74.4072C71.9403 73.7174 71.9272 73.0288 71.9425 72.3425C71.9744 71.0193 71.5527 69.5533 73.3368 68.8772C75.3799 68.1056 77.4047 67.5273 79.4615 68.7219C80.2309 69.1692 80.5143 69.9819 80.5223 70.8446C80.5433 73.2525 80.5114 75.6615 80.5439 78.0693C80.5553 78.9093 80.3344 79.3293 79.3903 79.3065C78.3557 79.2821 78.5737 78.5764 78.5805 78.013C78.605 76.0894 78.7387 74.1676 78.7023 72.2469C78.6545 69.8282 77.3273 68.842 75.0663 69.4355C74.1284 69.6825 73.5423 70.1378 73.5884 71.2988C73.68 73.5649 73.6094 75.839 73.618 78.1092C73.6202 78.767 73.6299 79.3498 72.6806 79.2946C71.8111 79.2445 71.9533 78.643 71.9465 78.1211C71.9306 76.8828 71.942 75.6438 71.9403 74.4072ZM47.1458 69.044C47.0035 69.2124 46.884 69.4765 46.7588 69.4788C44.5029 69.5101 45.1289 71.194 45.0708 72.4432C45.0156 73.607 45.0708 74.7765 45.0543 75.9437C45.0373 77.1036 45.138 78.1814 46.5494 78.4893C46.954 78.577 47.1384 78.8103 47.0542 79.2144C46.9614 79.6605 46.6057 79.6429 46.2534 79.6383C44.6315 79.6099 43.429 78.4631 43.3812 76.7843C43.3323 75.069 43.3988 73.3498 43.3584 71.6362C43.3374 70.8224 43.7602 69.7838 42.4479 69.4611C42.3039 69.4264 42.2527 69.0184 42.1588 68.7856C43.9093 68.2364 43.1831 66.7266 43.4233 65.581C43.5371 65.0387 44.0522 64.8901 44.5387 64.8441C45.031 64.7974 45.035 65.1958 45.0509 65.5287C45.1158 66.849 44.4323 68.616 46.8629 68.5199C46.9443 68.517 47.0394 68.8403 47.1458 69.044Z" fill="#E4E4E4"/>
</svg>
