<svg width="101" height="101" viewBox="0 0 101 101" fill="none" xmlns="http://www.w3.org/2000/svg">
<path fill-rule="evenodd" clip-rule="evenodd" d="M43.2445 27.4558C45.382 27.4558 47.5196 27.4888 49.6542 27.433C50.2205 27.4182 51.2363 27.8866 51.1908 26.7097C51.1561 25.7519 50.2677 26.0985 49.7294 26.0899C47.3181 26.0518 44.8989 25.9602 42.4973 26.111C40.7883 26.2174 40.2846 25.5686 40.4992 24.0013C40.5731 23.4607 40.502 22.9007 40.5134 22.3498C40.5885 18.6814 41.4752 17.4328 45.0332 16.5279C48.9531 15.532 52.9647 15.565 56.8738 16.4232C60.388 17.1949 61.8477 19.9289 61.6702 22.4579C61.4539 25.5442 61.6212 28.6571 61.6184 31.7587C61.6133 35.6587 59.5981 37.7286 55.6662 37.7826C52.428 37.827 49.1859 37.8623 45.9494 37.7724C42.0921 37.6643 39.2625 40.8683 39.2432 44.4991C39.2432 44.7746 39.2904 45.0591 39.2358 45.3249C38.958 46.6583 40.0678 48.8135 38.6541 49.2095C36.503 49.8139 33.9841 49.8139 32.0868 47.8944C31.4437 47.2456 30.9019 46.5188 30.6162 45.6789C29.0916 41.2029 28.8509 36.67 30.2861 32.1241C31.1807 29.2866 33.6142 27.5218 36.6287 27.4711C38.8334 27.4341 41.0387 27.4637 43.2434 27.4637L43.2445 27.4558ZM47.1724 21.1274C47.0802 20.0444 46.498 19.2539 45.2967 19.2209C43.9826 19.1868 43.3037 19.9812 43.302 21.2742C43.3008 22.4727 43.9536 23.2405 45.1464 23.2752C46.4571 23.3133 47.0916 22.5012 47.1724 21.1274Z" fill="#191919"/>
<path fill-rule="evenodd" clip-rule="evenodd" d="M59.7425 49.3964C57.3295 49.3964 54.9154 49.3753 52.5024 49.4135C51.9589 49.4203 51.0472 49.0766 51.0188 50.0059C50.9869 51.0599 51.9652 50.7856 52.5866 50.7918C54.9996 50.822 57.4149 50.8476 59.8273 50.7804C61.0668 50.7463 61.5727 50.9836 61.6655 52.4451C62.0849 59.0608 59.2138 59.6328 53.9183 60.8364C50.8805 61.5267 47.6235 61.1608 44.6278 59.8189C42.1505 58.7108 40.6305 57.1139 40.8222 54.1239C41.0123 51.1725 41.0442 48.1831 40.8171 45.2346C40.544 41.676 42.7577 39.0587 47.063 39.0576C49.9597 39.057 52.8757 38.8362 55.7474 39.1003C59.8535 39.477 63.0729 35.9179 63.214 31.7794C63.2197 31.6422 63.1844 31.4948 63.2197 31.3674C63.5816 30.0954 62.2943 28.2049 64.0164 27.5624C66.6189 26.5921 69.5537 27.6119 70.8832 29.5867C72.5591 32.073 72.7857 34.9988 73.0565 37.8556C73.3496 40.935 72.4857 43.834 71.1922 46.6118C70.3135 48.4955 68.8361 49.4061 66.7777 49.4089C64.433 49.4106 62.0889 49.4089 59.7436 49.4089L59.7425 49.3964ZM59.1142 55.5427C58.8564 54.3669 58.326 53.5645 56.9602 53.5309C55.5397 53.4967 55.1732 54.5592 55.1806 55.5079C55.1886 56.5164 55.4697 57.757 57.0074 57.6409C58.2856 57.543 58.9088 56.7514 59.1142 55.5427Z" fill="#191919"/>
<path fill-rule="evenodd" clip-rule="evenodd" d="M21.7868 79.7181C21.7868 81.1875 21.8533 82.5636 21.7555 83.9277C21.7133 84.5162 22.3621 85.6236 21.1277 85.6225C20.0396 85.6225 19.7602 84.7563 19.7949 83.7097C19.8615 81.7122 19.8143 79.7107 19.8143 77.7114V73.1598C19.8143 70.4167 20.5501 69.488 23.1736 68.92C25.6128 68.3896 27.5295 69.2108 28.5152 71.3461C29.5009 73.4819 29.5771 75.6826 28.5909 77.8554C27.6189 79.9964 25.8285 80.7954 23.535 80.1608C23.0126 80.0186 22.485 79.8951 21.7868 79.7181ZM21.7868 74.3412C21.7868 75.0982 21.8892 75.8698 21.7657 76.6063C21.48 78.3084 22.567 78.7279 23.8486 79.0306C25.116 79.33 25.985 78.791 26.4932 77.6745C27.3474 75.8021 27.4908 73.8712 26.8421 71.8913C26.2661 70.1316 24.9361 69.9256 23.3836 70.1441C21.8505 70.3621 21.6428 71.4047 21.7765 72.6937C21.8334 73.2372 21.7868 73.7921 21.7868 74.3412ZM38.2832 79.627C37.2332 79.9002 36.3215 80.1916 35.3882 80.3669C33.3451 80.7487 31.8325 79.627 31.3004 77.5817C30.6402 75.0503 31.1991 72.5287 31.2161 70.003C31.2235 68.8517 32.2889 69.3007 33.0259 68.6838C33.0259 71.3871 33.0361 73.7204 33.0225 76.052C33.0151 77.2232 33.3178 78.1861 34.4253 78.8035C35.6477 79.4853 36.6505 78.836 37.7147 78.3983C38.4773 78.0848 38.3822 77.4445 38.3834 76.8356C38.3891 74.6321 38.3828 72.4308 38.3902 70.2272C38.3913 69.6837 38.335 69.0196 39.1374 69.0464C39.8528 69.0697 40.1641 69.4948 40.1521 70.2745C40.1003 73.9207 40.2033 77.572 40.0554 81.2131C39.9433 83.9664 38.0009 85.6481 35.2067 85.7716C34.7884 85.7892 34.3502 85.8279 34.1937 85.3089C33.9552 84.5099 34.6023 84.6607 35.0274 84.5247C38.1011 83.547 38.5029 82.9631 38.2832 79.627ZM51.2723 70.1658C52.0856 69.7816 52.5528 69.4299 53.0667 69.3349C55.9503 68.8016 58.1601 69.0048 58.1544 72.8889C58.1504 74.8893 58.1556 76.8902 58.1504 78.89C58.1493 79.45 58.1851 79.9952 57.3503 80.0436C56.4699 80.096 56.2764 79.5923 56.2804 78.902C56.2906 76.9745 56.343 75.0469 56.3413 73.12C56.3401 71.6232 56.0345 70.2984 54.1309 70.3029C52.4612 70.3058 51.2786 71.5521 51.27 73.2719C51.2605 75.1336 51.261 76.9953 51.2717 78.857C51.2734 79.5183 51.2877 80.0982 50.3316 80.0436C49.4705 79.9924 49.5764 79.4119 49.5764 78.8775C49.5707 73.9833 49.5946 69.0839 49.5531 64.1863C49.5457 63.3281 49.8843 62.7954 50.6457 62.759C51.7202 62.7095 51.2279 63.649 51.2439 64.1202C51.3139 66.0387 51.2723 67.9617 51.2723 70.1658ZM60.3722 74.5541C60.2635 70.7326 62.0761 68.6924 65.3575 68.8108C67.0045 68.8711 68.24 69.6018 69.0373 71.0245C70.4458 73.5411 70.2551 76.0588 68.7311 78.4154C67.684 80.0339 66.0734 80.7971 64.11 80.3805C62.174 79.9708 60.6579 78.2276 60.3836 76.1959C60.3107 75.6581 60.3722 75.101 60.3722 74.5541ZM67.9526 74.6434C67.8661 73.9765 67.8814 73.0465 67.6037 72.2168C67.2241 71.0786 66.5321 70.1624 65.1202 70.0998C63.6957 70.0383 62.9849 70.8709 62.5097 72.0233C61.7636 73.8325 61.812 75.649 62.6201 77.4258C63.1391 78.5702 63.9404 79.4079 65.329 79.1757C66.6966 78.9475 67.5036 78.0512 67.783 76.7212C67.9099 76.1185 67.8894 75.4868 67.9526 74.6434ZM71.9403 75.1528C71.9403 74.463 71.9272 73.7744 71.9425 73.0881C71.9744 71.7649 71.5527 70.2989 73.3368 69.6229C75.3799 68.8512 77.4047 68.273 79.4615 69.4675C80.2309 69.9148 80.5143 70.7275 80.5223 71.5902C80.5433 73.9981 80.5114 76.4071 80.5439 78.8149C80.5553 79.6549 80.3344 80.0749 79.3903 80.0521C78.3557 80.0277 78.5737 79.322 78.5805 78.7586C78.605 76.835 78.7387 74.9132 78.7023 72.9925C78.6545 70.5738 77.3273 69.5876 75.0663 70.1811C74.1284 70.4281 73.5423 70.8834 73.5884 72.0444C73.68 74.3105 73.6094 76.5846 73.618 78.8548C73.6202 79.5126 73.6299 80.0954 72.6806 80.0402C71.8111 79.9901 71.9533 79.3886 71.9465 78.8667C71.9306 77.6284 71.942 76.3894 71.9403 75.1528ZM47.1458 69.7896C47.0035 69.9581 46.884 70.2221 46.7588 70.2244C44.5029 70.2557 45.1289 71.9397 45.0708 73.1888C45.0156 74.3526 45.0708 75.5221 45.0543 76.6893C45.0373 77.8492 45.138 78.927 46.5494 79.2349C46.954 79.3226 47.1384 79.5559 47.0542 79.96C46.9614 80.4061 46.6057 80.3885 46.2534 80.3839C44.6315 80.3555 43.429 79.2087 43.3812 77.5299C43.3323 75.8146 43.3988 74.0954 43.3584 72.3818C43.3374 71.568 43.7602 70.5294 42.4479 70.2068C42.3039 70.172 42.2527 69.764 42.1588 69.5312C43.9093 68.982 43.1831 67.4722 43.4233 66.3266C43.5371 65.7843 44.0522 65.6358 44.5387 65.5897C45.031 65.543 45.035 65.9414 45.0509 66.2743C45.1158 67.5946 44.4323 69.3616 46.8629 69.2655C46.9443 69.2626 47.0394 69.5859 47.1458 69.7896Z" fill="#191919"/>
</svg>
