<svg width="101" height="101" viewBox="0 0 101 101" fill="none" xmlns="http://www.w3.org/2000/svg">
<g clip-path="url(#clip0_2377_7567)">
<path d="M27.7301 37.7155C25.3044 41.8739 26.6905 47.0719 30.8489 49.4977L60.6509 67.171C64.8093 69.5967 70.0073 68.2106 72.4331 64.0521C74.8588 59.8937 73.4727 54.6957 69.3143 52.27L39.5123 34.5967C35.3539 32.171 30.1559 33.5571 27.7301 37.7155Z" fill="#7C7C7C"/>
<path d="M27.5568 46.2056C29.9825 50.364 35.1805 51.7502 39.339 49.3244L69.3142 31.9977C73.4726 29.5719 74.8588 24.3739 72.433 20.2155C70.0073 16.0571 64.8093 14.671 60.6508 17.0967L30.6756 34.4234C26.5172 36.8492 25.131 42.0472 27.5568 46.2056Z" fill="#E4E4E4"/>
<path d="M72.6063 55.5619C70.1805 51.4035 64.9825 50.0174 60.8241 52.4431L30.6756 69.5966C26.5172 72.0223 25.131 77.2204 27.5568 81.3788C29.9825 85.5372 35.1805 86.9233 39.339 84.4976L69.3142 67.1709C73.4726 64.9184 75.032 59.5471 72.6063 55.5619Z" fill="#E4E4E4"/>
</g>
<defs>
<clipPath id="clip0_2377_7567">
<rect width="47.995" height="70" fill="white" transform="translate(26.1707 15.8838)"/>
</clipPath>
</defs>
</svg>
