<svg width="101" height="101" viewBox="0 0 101 101" fill="none" xmlns="http://www.w3.org/2000/svg">
<g clip-path="url(#clip0_2377_7562)">
<path d="M27.7301 37.4606C25.3044 41.619 26.6905 46.8171 30.8489 49.2428L60.6509 66.9161C64.8093 69.3418 70.0073 67.9557 72.4331 63.7973C74.8588 59.6388 73.4727 54.4408 69.3143 52.0151L39.5123 34.3418C35.3539 31.9161 30.1559 33.3022 27.7301 37.4606Z" fill="#191919"/>
<path d="M27.5568 45.9507C29.9825 50.1091 35.1805 51.4953 39.339 49.0695L69.3142 31.7428C73.4726 29.3171 74.8588 24.119 72.433 19.9606C70.0073 15.8022 64.8093 14.4161 60.6508 16.8418L30.6756 34.1685C26.5172 36.5943 25.131 41.7923 27.5568 45.9507Z" fill="#393939"/>
<path d="M72.6063 55.3071C70.1805 51.1486 64.9825 49.7625 60.8241 52.1882L30.6756 69.3417C26.5172 71.7675 25.131 76.9655 27.5568 81.1239C29.9825 85.2823 35.1805 86.6684 39.339 84.2427L69.3142 66.916C73.4726 64.6635 75.032 59.2922 72.6063 55.3071Z" fill="#393939"/>
</g>
<defs>
<clipPath id="clip0_2377_7562">
<rect width="47.995" height="70" fill="white" transform="translate(26.1707 15.6289)"/>
</clipPath>
</defs>
</svg>
