<svg width="101" height="101" viewBox="0 0 101 101" fill="none" xmlns="http://www.w3.org/2000/svg">
<g clip-path="url(#clip0_2377_7678)">
<path d="M12.6725 47.3394C10.3789 47.0671 10.209 43.9868 7.26981 44.2591C5.84269 44.2591 4.51752 44.8547 4.51752 46.1651C4.51752 48.1393 7.55863 48.3265 9.39349 48.82C12.5196 49.773 15.5437 50.4197 15.5437 53.8233C15.5437 58.1459 12.1628 59.6435 7.69455 59.6435C3.95686 59.6435 0.168213 58.3161 0.168213 54.8784C0.168213 53.9254 1.08564 53.1766 1.9691 53.1766C3.0904 53.1766 3.48116 53.6531 3.87192 54.436C4.73838 55.9676 5.70678 56.7845 8.11928 56.7845C9.64833 56.7845 11.2114 56.2059 11.2114 54.8784C11.2114 52.9894 9.29156 52.581 7.30379 52.1215C3.78697 51.1344 0.762844 50.6239 0.406065 46.7097C0.0322972 40.0386 13.9127 39.7833 14.7112 45.6376C14.6942 46.6927 13.7088 47.3394 12.6725 47.3394ZM29.1862 41.4852C34.0622 41.4852 36.8315 45.5695 36.8315 50.6069C36.8315 55.6613 34.1471 59.7286 29.1862 59.7286C26.4339 59.7286 24.718 58.5544 23.4778 56.7504V63.4216C23.4778 65.4297 22.8322 66.3997 21.3711 66.3997C19.5872 66.3997 19.2644 65.2595 19.2644 63.4216V44.0209C19.2644 42.4382 19.927 41.4681 21.3711 41.4681C22.7302 41.4681 23.4778 42.5403 23.4778 44.0209V44.5654C24.8539 42.8296 26.4339 41.4852 29.1862 41.4852ZM28.0309 56.2569C30.8852 56.2569 32.1594 53.6191 32.1594 50.5388C32.1594 47.5266 30.8682 44.8207 28.0309 44.8207C25.0578 44.8207 23.6816 47.2713 23.6816 50.5388C23.6816 53.7212 25.0748 56.2569 28.0309 56.2569ZM40.1444 46.2502C40.1444 42.7445 44.1709 41.4852 48.0785 41.4852C53.5661 41.4852 55.8257 43.0849 55.8257 48.3945V53.5C55.8257 54.7083 56.5732 57.1248 56.5732 57.8566C56.5732 58.9628 55.5539 59.6605 54.4665 59.6605C53.2603 59.6605 52.3598 58.231 51.7142 57.2099C49.9304 58.6395 48.0445 59.6605 45.1563 59.6605C41.9623 59.6605 39.4479 57.7715 39.4479 54.6572C39.4479 51.9003 41.4186 50.3176 43.7972 49.773C43.7972 49.79 51.4424 47.9691 51.4424 47.9521C51.4424 45.6035 50.6099 44.5654 48.1465 44.5654C45.9718 44.5654 44.8675 45.1611 44.018 46.4715C43.3384 47.4585 43.4234 48.0542 42.1152 48.0542C41.0619 48.0371 40.1444 47.3224 40.1444 46.2502ZM46.6684 56.7845C50.0153 56.7845 51.4254 55.0146 51.4254 51.4918V50.743C50.525 51.0494 46.8892 51.9513 45.9039 52.1045C44.8505 52.3087 43.7972 53.0915 43.7972 54.3339C43.8311 55.6953 45.2243 56.7845 46.6684 56.7845ZM71.2521 34.8311C75.9752 34.8311 81.089 37.6561 81.089 42.1489C81.089 43.3061 80.2226 44.2591 79.0843 44.2591C77.5382 44.2591 77.3174 43.4252 76.6378 42.251C75.4995 40.1577 74.1573 38.7622 71.2351 38.7622C66.7159 38.7282 64.6942 42.6083 64.6942 47.4415C64.6942 52.3087 66.3762 55.8144 71.0483 55.8144C74.1573 55.8144 75.8733 54.0105 76.7567 51.679C77.1135 50.6069 77.7591 49.5688 79.1013 49.5688C80.1546 49.5688 81.208 50.6409 81.208 51.7982C81.208 56.5632 76.349 59.8648 71.3541 59.8648C65.8835 59.8648 62.7914 57.5503 61.0924 53.7042C60.26 51.8662 59.7333 49.9602 59.7333 47.3394C59.6993 39.9535 63.9976 34.8311 71.2521 34.8311ZM98.2654 41.4852C99.4716 41.4852 100.168 42.268 100.168 43.4933C100.168 43.9868 99.7775 44.9739 99.6245 45.5014L93.8141 60.8008C92.5229 64.1193 91.5545 66.4168 87.1543 66.4168C85.0646 66.4168 83.2467 66.2296 83.2467 64.4086C83.2467 63.3535 84.0452 62.8259 85.1495 62.8259C85.3534 62.8259 85.6932 62.928 85.8971 62.928C86.2199 62.928 86.4407 63.0301 86.6446 63.0301C88.8532 63.0301 89.159 60.7667 89.9406 59.2011L84.334 45.2972C84.0112 44.5484 83.7904 44.0379 83.7904 43.5954C83.7904 42.3701 84.7418 41.4852 86.016 41.4852C87.4431 41.4852 88.0038 42.6084 88.3605 43.8337L92.0642 54.8614L95.7679 44.6675C96.3286 43.0849 96.3796 41.4852 98.2654 41.4852Z" fill="#191919"/>
</g>
<defs>
<clipPath id="clip0_2377_7678">
<rect width="100" height="100" fill="white" transform="translate(0.168213 0.624023)"/>
</clipPath>
</defs>
</svg>
