<svg width="101" height="101" viewBox="0 0 101 101" fill="none" xmlns="http://www.w3.org/2000/svg">
<g clip-path="url(#clip0_2377_7680)">
<path d="M12.6725 47.5943C10.3789 47.322 10.209 44.2417 7.26981 44.514C5.84269 44.514 4.51752 45.1096 4.51752 46.42C4.51752 48.3941 7.55863 48.5813 9.39349 49.0749C12.5196 50.0279 15.5437 50.6746 15.5437 54.0782C15.5437 58.4008 12.1628 59.8984 7.69455 59.8984C3.95686 59.8984 0.168213 58.571 0.168213 55.1333C0.168213 54.1803 1.08564 53.4315 1.9691 53.4315C3.0904 53.4315 3.48116 53.908 3.87192 54.6909C4.73838 56.2225 5.70678 57.0394 8.11928 57.0394C9.64833 57.0394 11.2114 56.4607 11.2114 55.1333C11.2114 53.2443 9.29156 52.8359 7.30379 52.3764C3.78697 51.3893 0.762844 50.8788 0.406065 46.9646C0.0322972 40.2935 13.9127 40.0382 14.7112 45.8925C14.6942 46.9476 13.7088 47.5943 12.6725 47.5943ZM29.1862 41.74C34.0622 41.74 36.8315 45.8244 36.8315 50.8618C36.8315 55.9162 34.1471 59.9835 29.1862 59.9835C26.4339 59.9835 24.718 58.8092 23.4778 57.0053V63.6764C23.4778 65.6846 22.8322 66.6546 21.3711 66.6546C19.5872 66.6546 19.2644 65.5144 19.2644 63.6764V44.2757C19.2644 42.6931 19.927 41.723 21.3711 41.723C22.7302 41.723 23.4778 42.7952 23.4778 44.2757V44.8203C24.8539 43.0845 26.4339 41.74 29.1862 41.74ZM28.0309 56.5118C30.8852 56.5118 32.1594 53.874 32.1594 50.7937C32.1594 47.7815 30.8682 45.0756 28.0309 45.0756C25.0578 45.0756 23.6816 47.5262 23.6816 50.7937C23.6816 53.9761 25.0748 56.5118 28.0309 56.5118ZM40.1444 46.5051C40.1444 42.9994 44.1709 41.74 48.0785 41.74C53.5661 41.74 55.8257 43.3397 55.8257 48.6494V53.7549C55.8257 54.9631 56.5732 57.3797 56.5732 58.1115C56.5732 59.2177 55.5539 59.9154 54.4665 59.9154C53.2603 59.9154 52.3598 58.4859 51.7142 57.4648C49.9304 58.8943 48.0445 59.9154 45.1563 59.9154C41.9623 59.9154 39.4479 58.0264 39.4479 54.9121C39.4479 52.1552 41.4186 50.5725 43.7972 50.0279C43.7972 50.0449 51.4424 48.224 51.4424 48.2069C51.4424 45.8584 50.6099 44.8203 48.1465 44.8203C45.9718 44.8203 44.8675 45.416 44.018 46.7264C43.3384 47.7134 43.4234 48.309 42.1152 48.309C41.0619 48.292 40.1444 47.5773 40.1444 46.5051ZM46.6684 57.0394C50.0153 57.0394 51.4254 55.2695 51.4254 51.7467V50.9979C50.525 51.3042 46.8892 52.2062 45.9039 52.3594C44.8505 52.5636 43.7972 53.3464 43.7972 54.5887C43.8311 55.9502 45.2243 57.0394 46.6684 57.0394ZM71.2521 35.0859C75.9752 35.0859 81.089 37.911 81.089 42.4037C81.089 43.561 80.2226 44.514 79.0843 44.514C77.5382 44.514 77.3174 43.6801 76.6378 42.5059C75.4995 40.4126 74.1573 39.0171 71.2351 39.0171C66.7159 38.9831 64.6942 42.8632 64.6942 47.6964C64.6942 52.5636 66.3762 56.0693 71.0483 56.0693C74.1573 56.0693 75.8733 54.2654 76.7567 51.9339C77.1135 50.8618 77.7591 49.8237 79.1013 49.8237C80.1546 49.8237 81.208 50.8958 81.208 52.053C81.208 56.8181 76.349 60.1196 71.3541 60.1196C65.8835 60.1196 62.7914 57.8052 61.0924 53.9591C60.26 52.1211 59.7333 50.2151 59.7333 47.5943C59.6993 40.2084 63.9976 35.0859 71.2521 35.0859ZM98.2654 41.74C99.4716 41.74 100.168 42.5229 100.168 43.7482C100.168 44.2417 99.7775 45.2288 99.6245 45.7563L93.8141 61.0556C92.5229 64.3742 91.5545 66.6716 87.1543 66.6716C85.0646 66.6716 83.2467 66.4844 83.2467 64.6635C83.2467 63.6084 84.0452 63.0808 85.1495 63.0808C85.3534 63.0808 85.6932 63.1829 85.8971 63.1829C86.2199 63.1829 86.4407 63.285 86.6446 63.285C88.8532 63.285 89.159 61.0216 89.9406 59.4559L84.334 45.5521C84.0112 44.8033 83.7904 44.2928 83.7904 43.8503C83.7904 42.625 84.7418 41.74 86.016 41.74C87.4431 41.74 88.0038 42.8632 88.3605 44.0885L92.0642 55.1163L95.7679 44.9224C96.3286 43.3397 96.3796 41.74 98.2654 41.74Z" fill="#E4E4E4"/>
</g>
<defs>
<clipPath id="clip0_2377_7680">
<rect width="100" height="100" fill="white" transform="translate(0.168213 0.878662)"/>
</clipPath>
</defs>
</svg>
