<svg width="100" height="100" viewBox="0 0 100 100" fill="none" xmlns="http://www.w3.org/2000/svg">
<rect width="100" height="100" fill="white"/>
<path d="M63.3595 57.7137C61.7393 57.6106 60.7968 56.6945 60.5477 54.9804C60.4809 54.5241 60.4809 54.5123 60.4738 51.552L60.4678 48.6866H61.9008L61.9068 51.4584C61.9116 53.9565 61.9145 54.2492 61.939 54.4246C62.0361 55.138 62.2311 55.6173 62.5613 55.9616C62.826 56.2371 63.1365 56.3983 63.5651 56.4842C63.7678 56.5245 64.3437 56.5245 64.5284 56.4842C64.9428 56.4002 65.3226 56.1953 65.6193 55.8958C65.9698 55.548 66.2291 55.0544 66.3549 54.4963L66.3972 54.3079L66.402 51.5129L66.4068 48.718H67.8702V57.5057H66.4217V56.8083C66.4217 56.3349 66.4163 56.1133 66.4056 56.1168C66.3727 56.155 66.3449 56.1973 66.3227 56.2424C66.0584 56.7087 65.6706 57.0939 65.2014 57.3564C64.6554 57.6556 64.107 57.7617 63.3589 57.7137H63.3595ZM79.8018 57.7066C79.212 57.6575 78.6418 57.4727 78.1363 57.1668C77.099 56.5298 76.4851 55.4793 76.305 54.0341C76.243 53.5346 76.2353 52.8627 76.2871 52.4378C76.4034 51.488 76.7789 50.556 77.3142 49.8906C77.4513 49.7199 77.7625 49.4112 77.9342 49.275C78.3971 48.908 78.9385 48.6514 79.5168 48.5248C79.853 48.4519 80.4438 48.4182 80.8008 48.4508C81.6962 48.5331 82.5176 48.952 83.0756 49.6109C83.643 50.2805 83.9542 51.2167 83.9941 52.3691C84.0001 52.5498 84.0019 52.8668 83.9977 53.073L83.9894 53.4481L80.8515 53.4523L77.7142 53.4558V53.5951C77.7203 54.0477 77.8163 54.4948 77.9968 54.9105C78.1512 55.2642 78.417 55.6505 78.6346 55.8372C79.0811 56.2208 79.6381 56.4545 80.2262 56.5049C80.4473 56.5257 81.0124 56.5038 81.2652 56.4652C81.9742 56.36 82.6467 56.0847 83.2246 55.663C83.2902 55.6144 83.3521 55.5687 83.3635 55.5622C83.3796 55.5522 83.3831 55.6784 83.3825 56.211V56.8723L83.2335 56.9635C82.5936 57.3531 81.8763 57.5999 81.1311 57.687C80.9046 57.7149 80.073 57.7273 79.8018 57.7066ZM82.5331 52.1286C82.5331 51.4193 82.2321 50.6318 81.8059 50.2266C81.5024 49.9373 81.1148 49.7507 80.6983 49.6933C80.4915 49.6613 80.0563 49.6731 79.8381 49.717C79.393 49.8011 78.9839 50.0169 78.6644 50.3362C78.313 50.6825 78.0473 51.1052 77.8883 51.571C77.8287 51.7416 77.7595 52.0213 77.7381 52.1777L77.7279 52.2518H82.5325L82.5331 52.1286ZM39.9685 57.4862L42.3362 51.3097L44.6973 45.1534H46.215L46.2776 45.3133C46.4701 45.8028 51.0047 57.4921 51.0047 57.4986C51.0047 57.5022 50.6411 57.5057 50.1976 57.5057H49.3904L48.7371 55.7779L48.0832 54.0501H42.8208L42.7982 54.1088C42.7856 54.1408 42.5061 54.9182 42.1776 55.836L41.5797 57.5051H40.7714C40.1312 57.5051 39.9631 57.5016 39.9685 57.4862ZM47.6027 52.7317C47.6027 52.7288 47.1634 51.5449 46.6251 50.1009C45.6201 47.399 45.5641 47.2367 45.4842 46.8024C45.4472 46.5991 45.4282 46.5938 45.4067 46.7787C45.3756 46.98 45.3295 47.1789 45.269 47.3735C45.2428 47.4553 44.7897 48.689 44.2628 50.1158C43.9401 50.9837 43.6204 51.8528 43.3037 52.7229C43.3037 52.7306 44.2711 52.7365 45.4532 52.7365C46.6359 52.7365 47.6027 52.7341 47.6027 52.7317ZM51.4929 57.2806V57.0554L54.1145 53.4771L56.7368 49.8983L54.3625 49.8906L51.9889 49.8829L51.9847 49.2844L51.9805 48.6866H58.8476V49.0907L56.2248 52.6891C54.7834 54.6681 53.6031 56.2904 53.6031 56.294C53.6031 56.2981 54.7691 56.3017 56.1938 56.3017H58.7844V57.5057H51.4929V57.2806ZM70.7321 57.495C70.7261 57.4891 70.7213 55.5053 70.7213 53.0861V48.6866H72.155V49.5931C72.155 50.0926 72.1609 50.5009 72.1681 50.5009C72.1758 50.5009 72.2104 50.4191 72.2456 50.319C72.412 49.8541 72.6862 49.4347 73.0461 49.0948C73.3564 48.7966 73.7521 48.6014 74.1787 48.5361C74.3009 48.5165 74.4053 48.5124 74.6508 48.5189C74.9596 48.5272 75.1206 48.5497 75.3084 48.6101L75.368 48.6297V50.1063L75.1981 50.0221C74.9048 49.8748 74.5768 49.8094 74.2491 49.8331C74.0184 49.845 73.867 49.8746 73.6828 49.9433C73.3077 50.0802 72.9895 50.3381 72.7791 50.6757C72.4585 51.1967 72.2542 51.78 72.18 52.3863C72.1681 52.4912 72.1615 53.3432 72.1585 55.023L72.1544 57.5057H71.4486C71.0605 57.5057 70.738 57.501 70.7321 57.495ZM19.4161 39C19.6573 38.9997 19.8925 39.0747 20.0885 39.2146C20.2845 39.3544 20.4313 39.5519 20.5081 39.7792L27.5099 60.4002C27.5684 60.5726 27.5848 60.7563 27.5576 60.9363C27.5305 61.1162 27.4607 61.2871 27.3539 61.4349C27.2471 61.5826 27.1065 61.703 26.9436 61.786C26.7807 61.8691 26.6003 61.9123 26.4173 61.9123H34.4861C34.7619 61.9113 35.0284 61.8124 35.2372 61.6333C35.4461 61.4543 35.5837 61.2069 35.6253 60.9358C35.6531 60.7561 35.6368 60.5723 35.5776 60.4002L28.5764 39.7792C28.4995 39.5519 28.3527 39.3544 28.1567 39.2146C27.9608 39.0747 27.7255 38.9997 27.4843 39H19.4161ZM19.1556 39.0889C18.9142 39.0893 18.679 39.1647 18.483 39.3047C18.2869 39.4446 18.1398 39.642 18.0623 39.8692L11.0605 60.4891C11.002 60.6613 10.9856 60.8449 11.0127 61.0247C11.0398 61.2045 11.1095 61.3753 11.2162 61.5229C11.3228 61.6706 11.4634 61.7909 11.6261 61.8738C11.7888 61.9568 11.9691 62 12.152 62H17.7857C18.0271 61.9998 18.2624 61.9245 18.4585 61.7846C18.6547 61.6448 18.8019 61.4474 18.8796 61.2202L20.2482 57.2059L17.6331 54.7143C17.5854 54.6669 17.3691 54.2729 17.5616 53.9393C17.7774 53.6176 18.1374 53.6176 18.1374 53.6176H21.5078L23.277 48.5503L20.2518 39.7075C20.2441 39.6642 20.0742 39.442 19.8071 39.2655C19.5401 39.0877 19.155 39.0889 19.155 39.0889H19.1556ZM18.2042 53.7681C18.0975 53.768 17.9933 53.7998 17.905 53.8595C17.8168 53.9191 17.7487 54.0038 17.7096 54.1025C17.6705 54.2011 17.6622 54.3092 17.6858 54.4126C17.7093 54.5161 17.7637 54.6101 17.8418 54.6823L25.2179 61.526C25.4325 61.7251 25.7055 61.8418 25.9988 61.8418C25.9988 61.8418 26.2492 61.859 26.4 61.8353C26.7541 61.7796 27.0873 61.4922 27.1976 61.3713C27.4813 60.9957 27.3526 60.4114 27.3526 60.4114L25.1196 53.7675L18.2042 53.7681Z" fill="#191919"/>
</svg>
