<svg width="100" height="100" viewBox="0 0 100 100" fill="none" xmlns="http://www.w3.org/2000/svg">
<rect width="100" height="100" fill="white"/>
<path d="M55.0293 45.8322C53.8209 45.8322 52.921 46.4252 52.921 47.8526C52.921 48.928 53.5141 49.6748 54.9641 49.6748C56.1932 49.6748 57.0281 48.9507 57.0281 47.808C57.0281 46.5131 56.2811 45.8322 55.0293 45.8322ZM52.6134 55.911C52.3273 56.2617 52.0423 56.6346 52.0423 57.0742C52.0423 57.9519 53.162 58.2161 54.7 58.2161C55.9739 58.2161 57.7093 58.1267 57.7093 56.9428C57.7093 56.239 56.8744 56.1956 55.8195 56.1296L52.6134 55.911ZM59.1148 45.8984C59.5094 46.4034 59.9274 47.1063 59.9274 48.1161C59.9274 50.5531 58.0165 51.9801 55.2495 51.9801C54.5459 51.9801 53.909 51.8925 53.5141 51.7828L52.7889 52.9461L54.9412 53.0777C58.7415 53.3199 60.981 53.4299 60.981 56.3489C60.981 58.8743 58.7633 60.3006 54.9412 60.3006C50.9658 60.3006 49.4502 59.2906 49.4502 57.5563C49.4502 56.5683 49.8896 56.0424 50.6584 55.3166C49.9334 55.0104 49.692 54.4618 49.692 53.8685C49.692 53.3851 49.9334 52.9463 50.3293 52.5287C50.7244 52.1122 51.1636 51.6946 51.6908 51.2116C50.6148 50.6846 49.8017 49.5429 49.8017 47.9178C49.8017 45.3934 51.4712 43.6595 54.8311 43.6595C55.7759 43.6595 56.3471 43.7463 56.8524 43.879H61.1358V45.7445L59.1148 45.8984ZM65 41.9086C63.7478 41.9086 63.023 41.1835 63.023 39.9315C63.023 38.6813 63.7476 38 65 38C66.2738 38 66.9988 38.6813 66.9988 39.9315C66.9988 41.1835 66.2741 41.9086 65 41.9086ZM62.1661 55.1029V53.3693L63.2866 53.2161C63.5943 53.1718 63.6379 53.1062 63.6379 52.7762V46.3212C63.6379 46.0803 63.5723 45.9258 63.3518 45.8606L62.1661 45.443L62.4075 43.6652H66.9546V52.7762C66.9546 53.128 66.9757 53.1718 67.3063 53.2163L68.4264 53.3695V55.1029H62.1661ZM77.1123 54.2518C76.1675 54.7125 74.7838 55.1297 73.5313 55.1297C70.9177 55.1297 69.9297 54.077 69.9297 51.5947V45.843C69.9297 45.7113 69.9297 45.6235 69.7533 45.6235H68.2161V43.6688C70.1495 43.4487 70.9177 42.4827 71.1592 40.0895H73.2461V43.2081C73.2461 43.3613 73.2461 43.4275 73.4221 43.4275H76.5188V45.623H73.2461V50.8702C73.2461 52.1655 73.554 52.6701 74.7395 52.6701C75.3553 52.6701 75.9915 52.5168 76.5186 52.3191L77.1123 54.2518Z" fill="white"/>
<path d="M44.5677 48.4955L34.5249 38.4572C34.3874 38.3197 34.2241 38.2106 34.0443 38.1362C33.8646 38.0617 33.672 38.0234 33.4775 38.0234C33.2829 38.0234 33.0903 38.0617 32.9106 38.1362C32.7308 38.2106 32.5675 38.3197 32.43 38.4572L30.3446 40.542L32.9901 43.1862C33.301 43.0806 33.6354 43.0641 33.9552 43.1386C34.2751 43.2131 34.5677 43.3756 34.8 43.6077C35.0333 43.8414 35.1963 44.136 35.2702 44.4578C35.3441 44.7797 35.326 45.1158 35.2179 45.4279L37.7671 47.9764C38.3839 47.7641 39.0957 47.9015 39.5882 48.3947C39.752 48.5582 39.8819 48.7524 39.9705 48.9662C40.0591 49.1799 40.1048 49.4091 40.1048 49.6405C40.1048 49.8719 40.0591 50.101 39.9705 50.3147C39.8819 50.5285 39.752 50.7227 39.5882 50.8863C39.3001 51.1745 38.9211 51.354 38.5155 51.3943C38.1099 51.4345 37.7029 51.3331 37.3637 51.1071C37.0246 50.8812 36.7743 50.5447 36.6553 50.155C36.5364 49.7653 36.5563 49.3465 36.7115 48.9698L34.334 46.5933L34.3338 52.8476C34.5061 52.9329 34.6635 53.0455 34.8 53.1808C34.9637 53.3444 35.0935 53.5387 35.1821 53.7525C35.2708 53.9663 35.3164 54.1954 35.3164 54.4268C35.3164 54.6582 35.2708 54.8874 35.1821 55.1012C35.0935 55.315 34.9637 55.5092 34.8 55.6728C34.1112 56.3613 32.995 56.3613 32.3074 55.6728C32.1019 55.4676 31.9504 55.2149 31.8663 54.937C31.7821 54.6591 31.768 54.3648 31.8251 54.0802C31.8821 53.7955 32.0087 53.5294 32.1935 53.3054C32.3783 53.0815 32.6156 52.9066 32.8843 52.7964V46.4838C32.6682 46.3954 32.4721 46.2647 32.3074 46.0993C31.7858 45.5785 31.6603 44.8134 31.9276 44.1731L29.32 41.566L22.434 48.4488C22.2964 48.5864 22.1873 48.7497 22.1128 48.9294C22.0383 49.1091 22 49.3017 22 49.4962C22 49.6907 22.0383 49.8833 22.1128 50.063C22.1873 50.2427 22.2964 50.406 22.434 50.5435L32.4769 60.582C32.6144 60.7195 32.7777 60.8286 32.9574 60.903C33.1371 60.9775 33.3298 61.0158 33.5243 61.0158C33.7188 61.0158 33.9115 60.9775 34.0912 60.903C34.2709 60.8286 34.4342 60.7195 34.5717 60.582L44.5677 50.5904C44.8455 50.3125 45.0016 49.9357 45.0016 49.5429C45.0016 49.1501 44.8455 48.7733 44.5677 48.4955Z" fill="white"/>
</svg>
