<svg width="100" height="100" viewBox="0 0 100 100" fill="none" xmlns="http://www.w3.org/2000/svg">
<rect width="100" height="100" fill="white"/>
<path d="M38.55 53.2915C37.6004 53.2915 36.633 52.8987 36.0273 52.1289V56.2878H34.125V46.0209H35.8451L35.9107 47.1502C36.5008 46.2825 37.5486 45.8241 38.5483 45.8241C40.4653 45.8241 41.8774 47.4294 41.8774 49.5577C41.8774 51.6861 40.4672 53.2923 38.55 53.2915ZM37.961 47.2336C36.8467 47.2336 35.9461 48.1014 35.9461 49.5588C35.9461 51.0162 36.8467 51.8858 37.961 51.8858C39.0754 51.8858 39.976 51.0181 39.976 49.5607C39.976 48.1178 39.0932 47.2511 37.9943 47.2338L37.961 47.2336ZM49.0471 53.0966L48.9814 51.9672C48.3915 52.835 47.3427 53.2934 46.3431 53.2926C44.4261 53.2926 43.014 51.6881 43.014 49.5598C43.014 47.4314 44.4233 45.826 46.3431 45.8269C47.3427 45.8269 48.3915 46.2889 48.9814 47.1531L49.0471 46.0239H50.7709V53.0965L49.0471 53.0966ZM46.9341 47.2345C45.8197 47.2345 44.919 48.1023 44.918 49.5598C44.9171 51.0172 45.8188 51.8859 46.933 51.8859C48.0474 51.8859 48.9491 51.0181 48.9491 49.5607C48.9491 48.1033 48.0483 47.2345 46.9341 47.2345ZM57.4172 53.0975V49.1846C57.4172 47.8094 56.9428 47.3509 56.0744 47.3509C55.1727 47.3509 54.1898 48.1689 54.1898 49.1512V53.0975H52.2884V46.0239H54.026L54.1084 47.3343C54.5837 46.4332 55.6481 45.8279 56.7301 45.8279C58.6138 45.8279 59.3194 47.1385 59.3194 48.8896V53.0983L57.4172 53.0975ZM66.2857 53.0993L66.22 51.9691C65.63 52.8369 64.5814 53.2953 63.5827 53.2953C61.6655 53.2953 60.2534 51.69 60.2534 49.5615C60.2534 47.433 61.6628 45.8288 63.5825 45.8288C64.5323 45.8288 65.4987 46.2225 66.1054 46.9914V43.2753H68.0067V53.0993H66.2857ZM64.1726 47.2373C63.0629 47.2373 62.1576 48.105 62.1576 49.5615C62.1576 51.0181 63.0582 51.8858 64.1726 51.8858C65.287 51.8858 66.1876 51.019 66.1876 49.5615C66.1876 48.1041 65.2897 47.2373 64.1726 47.2373ZM75.1478 53.1001L75.082 51.9708C74.4921 52.8385 73.4434 53.2961 72.4437 53.2961C70.5267 53.2961 69.1146 51.6917 69.1146 49.5623C69.1146 47.4329 70.5239 45.8296 72.4437 45.8296C73.4434 45.8296 74.4921 46.2916 75.082 47.1566L75.1477 46.0266H76.8678V53.0991L75.1478 53.1001ZM73.0346 47.2381C71.9249 47.2381 71.0196 48.1058 71.0187 49.5633C71.0177 51.0207 71.9203 51.8857 73.0336 51.8857C74.1471 51.8857 75.0497 51.018 75.0497 49.5606C75.0497 48.1177 74.1669 47.2554 73.068 47.2384L73.0346 47.2381ZM81.0783 53.3303C80.0785 53.3218 79.0994 53.0444 78.2439 52.5271L78.5555 51.2176L78.6518 51.2746C79.2241 51.6083 80.0544 52.0041 81.0458 52.0041C81.7995 52.0041 82.324 51.7748 82.324 51.1851C82.324 50.6779 81.783 50.4976 80.8166 50.2684C79.0798 49.8912 78.4575 48.9746 78.4575 47.9756C78.4575 46.8619 79.3258 45.8148 81.2429 45.8148C82.4062 45.8148 83.4226 46.3222 83.6472 46.4534L83.3356 47.6983C82.7166 47.3259 82.0106 47.1226 81.2882 47.1087C80.5187 47.1087 80.1415 47.3701 80.1415 47.7962C80.1415 48.2703 80.6334 48.4838 81.3862 48.664C83.2542 49.0569 84.0079 49.9248 84.0079 50.8748C84.0116 52.3968 82.8973 53.3303 81.0782 53.3303M18.5779 41.2042H20.8057V45.8269H18.5779V41.2042ZM18.5779 50.7002H20.8057V55.323H18.5779V50.7002ZM15 45.0053H17.2278V60.3716H15V45.0053ZM22.0827 54.5143H24.3107V59.137H22.0827V54.5143ZM22.0827 45.0109H24.3107V49.6337H22.0827V45.0109ZM25.5868 40H27.8144V55.3663H25.5868V40Z" fill="#191919"/>
<path d="M18.5781 47.1719H20.8059V49.353H18.5781V47.1719Z" fill="#191919"/>
<path d="M22.082 50.9844H24.3098V53.1655H22.082V50.9844Z" fill="#191919"/>
</svg>
