<svg width="100" height="100" viewBox="0 0 100 100" fill="none" xmlns="http://www.w3.org/2000/svg">
<rect width="100" height="100" fill="white"/>
<path d="M41.5537 51.266V48.0134C41.5537 45.7632 43.6124 43.8437 45.9847 43.8437H52.9716C54.9165 43.8437 56.122 42.2173 56.122 40.314V33.8221C56.122 31.9743 54.6963 30.5867 52.7978 30.2785C51.6224 30.0869 50.4324 29.9938 49.2408 30.0003C48.0452 30.0058 46.8108 30.1049 45.806 30.2785C42.8456 30.7877 42.2159 31.8546 42.2159 33.8221V36.4215H49.1689V37.3896H39.8621C37.8291 37.3896 36.0491 38.5288 35.4922 40.7948C34.8502 43.3916 34.8218 45.0552 35.4922 47.7669C35.9895 49.7851 37.1772 51.266 39.2098 51.266H41.5537ZM45.5447 34.6879C44.8196 34.6879 44.2322 34.1087 44.2322 33.3929C44.2322 32.6736 44.8193 32.0895 45.5447 32.0895C46.2672 32.0895 46.8572 32.6739 46.8572 33.3929C46.8572 34.1087 46.2672 34.6879 45.5447 34.6879ZM63.4641 40.7948C62.9618 38.8218 62.002 37.3896 59.9667 37.3896H57.1153V40.314C57.1153 42.661 55.2995 44.8119 52.9716 44.8119H45.9847C44.071 44.8119 42.2159 46.2327 42.2159 48.1012V54.5931C42.2159 56.4406 43.9998 57.5274 45.8493 58.057C48.063 58.6918 50.0811 58.8063 52.7302 58.057C54.491 57.56 56.122 56.5603 56.122 54.5931V52.2341H49.1689V51.266H59.9664C61.9993 51.266 62.7569 49.8409 63.4638 47.7669C64.1942 45.6312 64.163 43.5346 63.4641 40.7948ZM53.4116 53.7266C54.1367 53.7266 54.7244 54.3059 54.7244 55.0223C54.7244 55.7409 54.1371 56.325 53.4116 56.325C52.6892 56.325 52.0995 55.7406 52.0995 55.0223C52.0995 54.3059 52.6892 53.7266 53.4116 53.7266ZM39.8687 65.4808C39.8687 64.2685 39.514 63.6456 38.8045 63.612C38.5227 63.5984 38.2411 63.6433 37.9785 63.744C37.7648 63.8185 37.6201 63.8929 37.5444 63.9673V66.8614C37.9984 67.1389 38.4012 67.2677 38.7526 67.2476C39.4964 67.2003 39.8685 66.6114 39.8687 65.4808ZM40.7438 65.5315C40.7442 66.1474 40.5955 66.6587 40.2975 67.0653C39.9653 67.5257 39.5048 67.7625 38.9161 67.7756C38.4725 67.7891 38.0153 67.6538 37.5447 67.3696V70L36.7839 69.7354V63.8967C36.9088 63.7478 37.0689 63.6191 37.2643 63.5107C37.7174 63.2532 38.2678 63.1211 38.9155 63.1144L38.9264 63.1248C39.5184 63.1177 39.9746 63.3544 40.2951 63.835C40.594 64.2756 40.7436 64.8411 40.7438 65.5315ZM45.3954 67.2576C45.3954 68.0838 45.3104 68.6558 45.1404 68.9738C44.9696 69.2922 44.6446 69.546 44.1654 69.7351C43.7766 69.8842 43.3564 69.9656 42.9045 69.9793L42.7787 69.5121C43.2376 69.4512 43.5608 69.3903 43.7482 69.3294C44.1168 69.2077 44.3704 69.0216 44.509 68.7711C44.6203 68.5678 44.6758 68.1787 44.6756 67.6036V67.4103C44.1622 67.639 43.6041 67.7566 43.0396 67.7549C42.6646 67.7552 42.3346 67.6403 42.0496 67.4103C41.7298 67.1594 41.5699 66.8413 41.5699 66.4557V63.3687L42.3311 63.1148V66.2224C42.3311 66.5542 42.441 66.8097 42.6608 66.9892C42.9906 67.2583 43.1654 67.2544 43.5144 67.2483C43.8636 67.2412 44.2369 67.1091 44.6342 66.852V63.2267H45.3954V67.2576ZM48.3663 67.7349C48.283 67.7415 48.1993 67.7449 48.1157 67.7453C47.685 67.7453 47.3498 67.6452 47.1098 67.4451C46.8705 67.2444 46.7509 66.9676 46.7509 66.6148V63.693H46.2298V63.2264H46.7509V61.9872L47.5111 61.7236V63.2264H48.3663V63.693H47.5111V66.5945C47.5111 66.8731 47.5877 67.0699 47.7409 67.185C47.8727 67.2801 48.0812 67.3346 48.3663 67.3483V67.7349ZM52.9742 67.6739H52.2134V64.8106C52.2134 64.5193 52.1437 64.2687 52.0044 64.059C51.844 63.8221 51.6206 63.7036 51.3343 63.7034C50.9853 63.7034 50.5489 63.8828 50.0251 64.2416V67.6739H49.2643V60.83L50.0251 60.596V63.713C50.5112 63.3682 51.0427 63.1956 51.6197 63.1954C52.0228 63.1954 52.3492 63.3275 52.5991 63.5917C52.8496 63.8557 52.9748 64.1841 52.9746 64.5769V67.6739H52.9742ZM57.0196 65.3643C57.0196 64.8986 56.9291 64.5136 56.7481 64.2094C56.5331 63.8385 56.1997 63.6429 55.7478 63.6227C54.9137 63.67 54.4967 64.2522 54.497 65.3692C54.4967 65.8812 54.5839 66.3089 54.7585 66.6523C54.9817 67.0898 55.3164 67.3052 55.7627 67.2983C56.6006 67.2919 57.0196 66.6472 57.0196 65.3643ZM57.8533 65.3692C57.8533 66.0322 57.6795 66.5842 57.3318 67.025C56.9497 67.5185 56.4219 67.7655 55.7482 67.7659C55.0807 67.7655 54.5594 67.5185 54.1844 67.025C53.844 66.5842 53.6738 66.0322 53.6738 65.3692C53.6738 64.7461 53.8579 64.2213 54.2261 63.7947C54.615 63.3416 55.1257 63.115 55.7581 63.1148C56.3903 63.115 56.9046 63.3416 57.301 63.7947C57.669 64.2213 57.8531 64.7461 57.8533 65.3692ZM62.2165 67.6739H61.4553V64.6483C61.4553 64.3165 61.3529 64.0574 61.1481 63.8709C60.9432 63.6848 60.6704 63.5952 60.3296 63.602C59.9682 63.6089 59.6243 63.7239 59.2979 63.947V67.6739H58.5367V63.8554C58.9746 63.5445 59.3777 63.3416 59.7459 63.2467C60.0935 63.1585 60.3993 63.1144 60.6633 63.1144C60.8439 63.1144 61.0141 63.1314 61.1739 63.1654C61.4728 63.2328 61.7159 63.358 61.9033 63.541C62.1121 63.7439 62.2165 63.9878 62.2165 64.2726V67.6739Z" fill="#191919"/>
</svg>
