<svg width="100" height="100" viewBox="0 0 100 100" fill="none" xmlns="http://www.w3.org/2000/svg">
<rect width="100" height="100" fill="white"/>
<path d="M77.9474 49.7446C77.8892 49.6202 77.8629 49.5578 77.8316 49.4981C76.9903 47.8978 76.1513 46.2975 75.3014 44.6972C75.2162 44.5367 75.2271 44.4421 75.3436 44.3036C76.6823 42.74 78.0035 41.1679 79.3443 39.6109C79.3916 39.556 79.4339 39.4977 79.4516 39.3998C79.0623 39.5013 78.6731 39.6016 78.2816 39.7048C76.6662 40.1329 75.0377 40.559 73.4376 40.9937C73.2873 41.0341 73.2191 40.9901 73.1435 40.8652C72.2265 39.3319 71.3031 37.7944 70.3754 36.2806C70.328 36.2012 70.2763 36.1242 70.1751 36.0577C70.1007 36.4665 70.0255 36.8731 69.9524 37.2818C69.695 38.7241 69.4377 40.1581 69.1825 41.6069C69.1546 41.7624 69.1166 41.9183 69.1032 42.0741C69.0903 42.2228 69.0136 42.2777 68.8782 42.3206C66.973 42.9195 65.0722 43.5229 63.1692 44.1263C63.0856 44.1526 63.0037 44.1871 62.9139 44.2682C64.4709 44.8867 66.0279 45.5052 67.6066 46.1344C67.5492 46.1801 67.5111 46.2156 67.4689 46.2426C66.4958 46.872 65.5205 47.5012 64.5494 48.1327C64.4329 48.2087 64.3408 48.2196 64.2098 48.1605C63.0464 47.6373 61.8744 47.1225 60.7066 46.6034C60.1833 46.37 59.7141 46.0606 59.3485 45.6109C58.5202 44.5988 58.6846 43.4483 59.7875 42.7347C60.1487 42.5032 60.5595 42.3325 60.9683 42.1984C62.8345 41.5907 64.7095 41.0047 66.5693 40.4165C66.7263 40.3665 66.7985 40.2964 66.8288 40.1267C67.0787 38.6838 67.3353 37.242 67.5986 35.8015C67.738 35.0295 67.8114 34.2402 68.1869 33.5309C68.3306 33.2583 68.5027 32.9924 68.7101 32.7653C69.4542 31.9393 70.49 31.909 71.2837 32.6945C71.5496 32.9604 71.7767 33.2718 71.9735 33.594C72.8385 35.0061 73.6906 36.4269 74.5469 37.8543C74.6475 38.0223 74.7379 38.056 74.9233 38.0072C77.0123 37.4474 79.1028 36.8931 81.1946 36.3441C81.6271 36.2301 82.0617 36.1888 82.505 36.2717C83.4675 36.4516 83.8891 37.1843 83.5626 38.1164C83.4149 38.5402 83.1581 38.8971 82.8706 39.2366C81.4136 40.9514 79.9575 42.6671 78.5023 44.3835C78.3831 44.5235 78.3807 44.6234 78.4633 44.7813C79.337 46.4271 80.202 48.0684 81.0801 49.7336C81.2877 50.1271 81.4476 50.538 81.4519 50.99C81.4621 52.0193 80.7081 52.8628 79.6851 53.0142C79.1121 53.0979 78.58 52.9754 78.0416 52.8098C76.7313 52.405 75.4194 52.0056 74.1057 51.6118C73.9841 51.5754 73.9375 51.5272 73.9156 51.3963C73.7652 50.473 73.5999 49.5516 73.4399 48.6283C73.4359 48.603 73.4433 48.5758 73.4478 48.5193C74.942 48.9324 76.432 49.3388 77.9674 49.765" fill="#191919"/>
<path d="M68.4069 46.5457L67.9247 50.2301C67.7641 51.4547 67.6035 52.6765 67.4425 53.8984L67.4805 53.9246C69.1565 52.069 70.8324 50.2049 72.5409 48.3235L72.6752 49.0978L72.854 50.1476C72.9138 50.498 72.9746 50.8483 73.0385 51.1975C73.0647 51.3386 73.0267 51.4246 72.9329 51.524C71.8478 52.6593 70.7665 53.7983 69.6891 54.9409C69.6419 54.9909 69.597 55.0424 69.5429 55.1015L69.6084 55.2083C69.6192 55.2256 69.6303 55.2424 69.6417 55.2586L71.5026 57.8753L75.2211 63.1087C75.2549 63.156 75.3037 63.1932 75.3453 63.2353L75.3451 63.261L74.6442 63.2597C73.7004 63.2575 72.7571 63.2545 71.8056 63.2587C71.6493 63.2587 71.5612 63.214 71.4748 63.0811C70.0777 60.9532 68.6635 58.821 67.2794 56.7017L67.2155 56.6086C67.1861 56.5667 67.1519 56.5184 67.108 56.4552L66.5483 60.7131L66.2148 63.2456H63.1223L63.175 62.8003C63.1923 62.6534 63.2099 62.5081 63.2289 62.3633C63.4544 60.6278 63.6823 58.9045 63.9099 57.1752L64.1373 55.4431C64.427 53.2373 64.7146 51.0315 65.0087 48.8256C65.0172 48.7605 65.0611 48.6769 65.1142 48.6422C66.1782 47.9481 67.2465 47.2604 68.3148 46.5727C68.3302 46.5626 68.3519 46.5617 68.4069 46.5457ZM63.4447 50.7631L63.4583 50.7832L63.176 52.922L63.082 53.6379L62.0422 53.6365C61.8132 53.6364 61.5846 53.6371 61.3562 53.6386C60.8934 53.6421 60.4718 53.9414 60.3313 54.374C60.2771 54.5428 60.2571 54.7242 60.2333 54.9016L59.3682 61.4757C59.2956 62.0293 59.2256 62.5829 59.1529 63.1453H56.2767L56.4021 62.1514L56.4337 61.9061L56.7143 59.7695C56.808 59.058 56.9019 58.3487 56.9959 57.6459C57.159 56.4153 57.3052 55.1805 57.4977 53.9478C57.7549 52.3044 59.3899 50.8338 61.0443 50.769C61.8357 50.7344 62.6294 50.7631 63.4447 50.7631ZM39.1199 51.3649C40.5644 52.2948 41.3906 53.6573 41.5852 55.344C41.8533 57.7445 40.9689 59.7339 39.2713 61.3991C38.151 62.4826 36.8059 63.1703 35.2705 63.4039C33.7063 63.6394 32.2337 63.3882 30.912 62.4908L30.8373 62.4393C30.7882 62.4047 30.735 62.3744 30.6507 62.3213L30.6307 62.288L30.4312 63.7841L30.3669 64.271C30.2539 65.1317 30.1398 65.9946 30.0318 66.8661C30.0192 66.9667 29.9888 67.0038 29.8806 67.003C29.0307 66.9997 28.1808 67.0047 27.3288 67.003C27.3094 67.003 27.2898 66.9962 27.2442 66.9828L27.3465 66.1682C27.3637 66.0323 27.3812 65.8966 27.3989 65.7611C27.5864 64.3337 27.773 62.9065 27.9633 61.4791C28.1817 59.8442 28.3526 58.2138 28.6316 56.5918C29.1246 53.7156 31.5726 51.2503 34.4271 50.6232C36.0858 50.2642 37.671 50.4304 39.1199 51.3649ZM25.2468 46.0175C26.581 46.0658 27.6471 46.6902 28.469 47.7282C28.5913 47.8828 28.7111 48.0392 28.8285 48.1975L29.1848 48.6777L26.4137 50.7421C26.2652 50.5086 26.1326 50.2749 25.9768 50.0566C25.5768 49.4965 25.0795 49.0791 24.3571 49.0293C23.7559 48.987 23.2413 49.1847 22.8325 49.6284C22.4671 50.0241 22.4195 50.5886 22.7608 51.0362C23.1371 51.5292 23.5479 51.9964 23.9697 52.4527C24.1691 52.669 24.3712 52.8827 24.5741 53.0957L25.1842 53.7334C25.4889 54.0527 25.7923 54.3737 26.0889 54.7018C26.7183 55.3938 27.2221 56.1679 27.3778 57.1238C27.5628 58.2484 27.3382 59.3079 26.8068 60.3027C25.8229 62.1301 24.2766 63.2005 22.2223 63.525C21.3183 63.6709 20.4187 63.6423 19.5406 63.3828C18.3708 63.039 17.5555 62.2713 17.0321 61.1987C16.8472 60.8158 16.7056 60.4116 16.5391 60.0006L19.5666 58.3809L19.6223 58.519C19.6339 58.5473 19.6461 58.5748 19.6588 58.6015C19.6931 58.6703 19.7266 58.7397 19.7592 58.8098L19.8571 59.02C19.9555 59.2301 20.0571 59.4379 20.1843 59.6287C20.8178 60.5694 21.8386 60.8549 22.8658 60.3899C23.1358 60.2672 23.3858 60.1046 23.6075 59.9077C24.2736 59.315 24.3991 58.489 23.9059 57.7451C23.6227 57.3169 23.2681 56.9319 22.922 56.5492C22.096 55.6323 21.2352 54.7434 20.4351 53.8028C19.8793 53.1584 19.5009 52.4101 19.3797 51.5537C19.249 50.6109 19.4374 49.7242 19.9269 48.937C21.1445 46.9669 22.9112 45.9527 25.2468 46.0175ZM34.7674 53.3372C32.9272 53.7646 31.598 55.1999 31.4003 57.0767L31.3937 57.1433C31.2511 58.5489 32.008 59.9112 33.4136 60.4087C34.5469 60.8174 35.641 60.6465 36.6575 60.0389C38.0004 59.2344 38.727 58.0386 38.82 56.341H38.8051C38.7579 56.1009 38.724 55.7462 38.6168 55.4153C38.0977 53.8172 36.4607 52.9501 34.7674 53.3372ZM51.7891 59.1343L51.7804 59.1522C51.6249 60.3393 51.4776 61.466 51.3262 62.5906C51.3178 62.6481 51.2731 62.7257 51.2248 62.7478C48.9109 63.8161 45.8834 63.667 44.0019 61.5173C42.9855 60.3625 42.5595 58.9871 42.6222 57.4733C42.7699 53.9483 45.693 50.8559 49.1964 50.4235C51.2399 50.1725 53.0241 50.724 54.4081 52.3136C55.3509 53.3948 55.7878 54.6923 55.723 56.1195C55.6843 56.9839 55.5567 57.8427 55.4457 58.6978L55.4159 58.9308C55.2494 60.2587 55.0677 61.5908 54.8925 62.91L54.8833 62.9668C54.8781 62.9962 54.8722 63.0276 54.8655 63.0638H52.1191L52.1905 62.4607C52.2027 62.361 52.2152 62.2615 52.228 62.162C52.4273 60.6287 52.6476 59.0912 52.8228 57.5558C52.9316 56.6 52.8632 55.6505 52.4248 54.766C51.9599 53.8254 51.1813 53.3258 50.1541 53.2176C48.0305 52.9928 46.002 54.4676 45.5696 56.548C45.2712 57.9277 45.7419 59.2512 46.8412 59.9865C47.9116 60.6979 49.047 60.7 50.2147 60.2395C50.8074 60.0059 51.3089 59.6339 51.7891 59.1343ZM33.0311 46.6312H33.7426L33.5744 45.5541L33.0311 46.6312ZM33.8559 47.3274H32.6721L32.2958 48.0649H31.4567L33.3057 44.6047H34.1146L34.7439 48.0649H33.9674L33.8559 47.3274ZM38.0915 45.312H37.6697L37.528 46.11H37.9496C38.2048 46.11 38.4059 45.9428 38.4059 45.6277C38.4059 45.4289 38.2909 45.3223 38.1167 45.3126L38.0915 45.312ZM37.0664 44.6092L38.1779 44.6156C38.7575 44.6156 39.162 44.9616 39.162 45.5541C39.162 46.3024 38.6342 46.8041 37.8817 46.8041H37.4038L37.1789 48.0693H36.4565L37.0664 44.6092ZM41.6164 46.631H42.3279L42.1599 45.5541L41.6164 46.631ZM42.439 47.3274H41.2553L40.879 48.0649H40.0398L41.889 44.6047H42.6977L43.3271 48.0649H42.5506L42.439 47.3274ZM47.0241 47.9489L47.0228 47.9502C46.7784 48.0618 46.5102 48.1285 46.24 48.1285C45.3252 48.1285 44.7521 47.4429 44.7521 46.5843C44.7521 45.4858 45.6755 44.5625 46.774 44.5625C47.0487 44.5625 47.2975 44.6283 47.5007 44.7398L47.3993 45.568C47.2472 45.4 47.0014 45.2825 46.6986 45.2825C46.0693 45.2825 45.5093 45.8513 45.5093 46.5109C45.5093 47.0126 45.825 47.4062 46.3223 47.4062C46.6273 47.4062 46.9214 47.2887 47.1203 47.1272L47.0241 47.9489ZM51.5663 46.6744H50.0612L49.8168 48.0649H49.0967L49.7065 44.6047H50.4288L50.1867 45.9716H51.6895L51.9339 44.605H52.6563L52.0464 48.0651H51.324L51.5663 46.6744ZM54.1603 48.0541L54.769 44.5983H56.685L56.5633 45.2945H55.3696L55.2478 45.9651H56.3442L56.2224 46.6613H55.126L55.0043 47.3577H56.198L56.0764 48.0541H54.1603Z" fill="#191919"/>
</svg>
