<svg width="100" height="100" viewBox="0 0 100 100" fill="none" xmlns="http://www.w3.org/2000/svg">
<rect width="100" height="100" fill="white"/>
<path d="M53.2831 26.0003C53.1748 25.9854 51.4265 26.6204 50.299 27.081C48.777 27.7057 47.5952 28.3008 46.866 28.8156C46.6244 28.9882 46.3387 29.2716 46.2396 29.4274L46.235 29.4154C46.235 29.4154 46.2257 29.445 46.2211 29.4534C46.2165 29.4627 46.205 29.4766 46.2018 29.4845C46.1812 29.5382 46.1707 29.5953 46.1709 29.6528L46.1875 29.6681C46.1916 29.7215 46.2045 29.7813 46.2303 29.8467C46.2949 30.0053 46.4816 30.1983 46.6931 30.3968C46.6931 30.3968 48.8849 32.5471 49.1508 32.8541C50.3622 34.2618 50.8899 35.6491 50.9393 37.5619C50.9688 38.791 50.7369 39.8722 50.1612 41.1259C49.137 43.3759 46.9748 45.8582 43.6404 48.6133L43.6883 48.5971C43.668 48.6133 43.6348 48.643 43.6155 48.6588C43.2163 48.976 42.6254 49.5702 42.3249 49.9468C41.8768 50.5117 41.5228 51.1119 41.3698 51.5729C41.0992 52.4055 41.2315 53.2473 41.7538 54.0252C42.4235 55.0163 43.7588 56.0279 45.3149 56.7167C46.1077 57.0683 47.4421 57.5191 48.447 57.7719C50.1165 58.1986 53.3476 58.6592 55.125 58.7287C55.4845 58.7436 55.9671 58.7436 55.9869 58.7287C56.0261 58.7037 56.3022 58.174 56.6221 57.5145C57.7154 55.2696 58.5036 53.1634 58.9323 51.3642C59.1881 50.2742 59.39 48.822 59.5228 47.1022C59.5578 46.6217 59.5721 45.0113 59.5426 44.4663C59.4979 43.5744 59.4191 42.8504 59.296 42.1416C59.2817 42.0656 59.284 42.0285 59.2854 41.9941C63.2434 40.8109 67.6099 39.7391 70.5105 39.2924L70.9576 39.2228L70.8894 39.1143C70.4953 38.4997 70.2247 38.1171 69.8993 37.7108C68.9539 36.5313 67.8062 35.5749 66.4027 34.7822C64.4718 33.6969 61.9749 32.8495 58.8134 32.2201C58.2179 32.1013 56.9088 31.8736 55.845 31.7099L55.7454 31.5318C55.1642 30.5012 54.5239 29.2224 54.1506 28.3602C53.8597 27.6913 53.5836 26.9177 53.4311 26.3625C53.3472 26.0258 53.337 26.0058 53.2836 26.0012L53.2831 26.0003ZM53.2038 26.253H53.2094C53.214 26.2577 53.2338 26.3977 53.2536 26.561C53.3408 27.2712 53.501 27.9704 53.7316 28.6473C53.9137 29.1927 53.9137 29.1621 53.7016 29.0972C53.1997 28.959 50.9485 28.5684 49.3181 28.3402C49.0573 28.3054 48.836 28.2707 48.836 28.266C48.8157 28.2461 50.0132 27.6167 50.5401 27.369C51.2149 27.0568 53.0655 26.2781 53.2038 26.253ZM48.4571 28.4733L48.6489 28.5378C49.6929 28.895 52.3179 29.4005 53.7657 29.5197C53.9279 29.5346 54.0662 29.5489 54.0708 29.5489C54.0759 29.5536 53.9386 29.6283 53.7611 29.7127C53.079 30.056 52.4116 30.428 51.7606 30.8277C51.6676 30.8898 51.5703 30.9449 51.4693 30.9928L50.983 30.913L50.5203 30.4566C49.9212 29.8695 49.3186 29.286 48.7125 28.7062L48.4571 28.4733ZM48.2598 28.6273L48.954 29.4998C49.3329 29.9803 49.7173 30.4506 49.8012 30.555C49.8763 30.6487 49.9257 30.7108 49.9344 30.7289C49.444 30.6431 48.919 30.5536 48.5152 30.4664C48.2202 30.4014 47.6542 30.2674 47.2108 30.1139L47.0633 30.0582V30.0053C47.0679 29.6732 47.4864 29.177 48.1958 28.6719L48.2598 28.6273ZM54.1598 29.817C54.1801 29.817 54.2045 29.8616 54.2635 29.9951C54.4308 30.3671 54.9531 31.368 55.0812 31.5615L55.0973 31.5879C54.1675 31.4398 53.2384 31.2874 52.3101 31.1306C52.3383 31.1068 52.3692 31.0866 52.4023 31.0703C52.9343 30.7703 53.4369 30.4204 53.9035 30.0253C54.0169 29.9311 54.1202 29.8421 54.1404 29.8268C54.145 29.817 54.1547 29.8119 54.1598 29.817ZM47.5062 30.6538C47.5108 30.6491 47.5901 30.6788 47.6934 30.7141C47.8805 30.7781 48.122 30.8527 48.4078 30.932C48.6239 30.9917 48.8406 31.0494 49.0577 31.1051C49.3527 31.1793 49.5993 31.2488 49.6039 31.2488C49.6385 31.2836 50.1358 32.8838 50.3032 33.4984C50.3672 33.7317 50.4175 33.9297 50.4124 33.9297C50.4073 33.9343 50.3525 33.8509 50.2889 33.7368C49.7127 32.7159 48.8014 31.6802 47.7473 30.8476C47.6622 30.7893 47.5816 30.7244 47.5062 30.6538ZM49.9243 31.3235C49.9243 31.3333 49.9238 31.3281 49.9289 31.3281C49.9538 31.3281 50.0626 31.3435 50.1953 31.3731C51.0328 31.5615 52.5345 31.8486 53.4947 32.0118C53.6574 32.0369 53.7855 32.0661 53.7855 32.0763C53.7855 32.086 53.7265 32.1208 53.6523 32.1602C53.3007 32.3569 52.9557 32.5655 52.618 32.7855C52.0713 33.1519 51.579 33.5485 51.2241 33.9051C51.1364 33.9936 51.0479 34.0813 50.9586 34.1681C50.9586 34.1681 50.9296 34.0832 50.9047 33.9793C50.7277 33.2906 50.3576 32.2702 50.0225 31.5517C49.9857 31.4775 49.9529 31.4013 49.9243 31.3235ZM54.1944 32.1459C54.2239 32.1561 54.2732 32.324 54.3718 32.696C54.5565 33.4376 54.6361 34.2018 54.6083 34.9659C54.5986 35.1741 54.5885 35.3671 54.5788 35.3917L54.5636 35.4418L54.3078 35.3573C53.6046 35.1375 52.8984 34.9277 52.1893 34.7279C51.7708 34.6138 51.4315 34.51 51.4315 34.5007C51.4315 34.4705 52.0418 33.8555 52.3027 33.6227C52.8005 33.1816 54.1497 32.131 54.1944 32.1459ZM54.5345 32.196C54.5507 32.1811 56.5728 32.5327 57.4937 32.7108C58.1782 32.8453 59.1729 33.0526 59.2319 33.0772C59.2614 33.0874 59.1582 33.1468 58.8281 33.2952C57.5283 33.8852 56.5636 34.4158 55.603 35.06C55.3518 35.2284 55.1402 35.3671 55.1351 35.3671C55.1301 35.3671 55.125 35.2233 55.125 35.0503C55.125 34.1087 54.9379 33.1575 54.5931 32.3541C54.5585 32.2753 54.5295 32.2011 54.5345 32.196ZM59.7694 33.2368C59.7846 33.2516 59.7196 33.6519 59.6606 33.8898C59.4836 34.6282 59.0061 35.7242 58.4202 36.7553C58.3165 36.9385 58.2229 37.0869 58.2128 37.092C58.2031 37.0971 58.0704 37.0225 57.9178 36.9325C57.3462 36.5957 56.6963 36.2785 55.9865 35.9816C55.7897 35.8972 55.6173 35.8286 55.6122 35.8184C55.5776 35.7887 57.1642 34.733 58.0017 34.2275C58.6664 33.8212 59.75 33.2164 59.7694 33.2368ZM60.1432 33.2957C60.1874 33.2957 61.0844 33.5438 61.5523 33.6825C62.7092 34.0294 64.0385 34.5197 64.9056 34.9163L65.2651 35.08L65.0143 35.1389C62.8968 35.6296 61.0839 36.1945 59.3356 36.9084C59.2434 36.9487 59.1496 36.9852 59.0545 37.0178C59.0452 37.0178 59.0941 36.9028 59.1582 36.7641C59.685 35.6394 60.0252 34.4654 60.1091 33.464C60.1137 33.3699 60.1284 33.2957 60.1432 33.2957ZM51.2195 35.3573C51.2347 35.3425 51.9192 35.5058 52.2884 35.6101C52.8498 35.7688 54.0413 36.1695 54.0413 36.1996C54.0413 36.2047 53.9086 36.3184 53.7509 36.4571C53.1056 36.9974 52.4848 37.5679 51.7413 38.2915C51.5196 38.5048 51.3329 38.6774 51.3232 38.6774C51.3135 38.6774 51.3085 38.6472 51.3135 38.6078C51.4269 37.7752 51.4016 36.7052 51.2444 35.6199C51.2292 35.4812 51.2144 35.3625 51.2195 35.3573ZM65.6053 35.3717C65.6145 35.3815 65.2895 35.8972 65.083 36.1899C64.7876 36.6162 64.3547 37.1816 63.3743 38.4199C62.9424 38.9654 62.5122 39.5123 62.0837 40.0605C61.8864 40.3082 61.7242 40.5169 61.7191 40.5169C61.7145 40.5169 61.6504 40.4278 61.5813 40.3184C61.03 39.4863 60.369 38.7576 59.5864 38.1036C59.467 38.0017 59.3456 37.9023 59.2222 37.8054C59.1862 37.7814 59.1531 37.7532 59.1236 37.7214C59.1236 37.7066 59.9611 37.3448 60.5963 37.0869C61.8337 36.5861 63.0903 36.1346 64.363 35.7335C64.9595 35.5457 65.5947 35.3625 65.6048 35.3722L65.6053 35.3717ZM65.9841 35.4714C66.0035 35.4668 66.1224 35.5262 66.2653 35.6101C67.4619 36.2989 68.634 37.1862 69.5601 38.0976C69.821 38.3555 70.4663 39.0299 70.4566 39.0345C70.4566 39.0345 70.2298 39.0545 69.9643 39.0744C67.8906 39.233 65.236 39.6732 62.6848 40.2929C62.5735 40.3199 62.4618 40.3449 62.3497 40.368C62.34 40.368 62.5322 40.1741 62.7737 39.9413C64.2708 38.4891 64.9553 37.5725 65.7624 35.9371C65.8758 35.6945 65.9749 35.4868 65.9841 35.4714ZM55.0162 36.6013C55.0854 36.6162 55.7256 36.9181 56.2082 37.1611C56.6516 37.3838 57.3172 37.7409 57.3513 37.7706C57.3564 37.7752 57.1199 37.8995 56.8295 38.0433C55.9615 38.478 55.112 38.9492 54.2833 39.4557C54.0469 39.5994 53.8501 39.7182 53.845 39.7182C53.8252 39.7182 53.8298 39.6982 53.963 39.4557C54.4064 38.643 54.7604 37.6718 54.9623 36.7252C54.9821 36.6509 55.0015 36.6013 55.0162 36.6013ZM54.376 36.7196C54.3907 36.7349 54.2239 37.3444 54.1206 37.6764C53.8908 38.3721 53.599 39.0455 53.249 39.6885C53.1702 39.8276 53.0522 40.0303 52.9881 40.144L52.8646 40.3425L52.5889 40.0753C52.269 39.7632 52.0072 39.5693 51.6726 39.3958C51.5398 39.3263 51.4366 39.2669 51.4366 39.2571C51.4366 39.2177 52.2787 38.4501 52.924 37.8949C53.3868 37.4932 54.3612 36.7052 54.376 36.7196ZM58.2911 38.3406L58.5336 38.4988C59.1228 38.8879 59.6898 39.3099 60.2321 39.7627C60.5133 39.9955 61.0549 40.4863 61.1632 40.605L61.2218 40.6699L60.8231 40.7836C58.5673 41.413 56.8245 41.9733 54.7904 42.727C54.5636 42.8105 54.3718 42.88 54.3571 42.88C54.3276 42.88 54.3027 42.9051 54.8102 42.4343C56.11 41.2302 57.2623 39.9019 58.1197 38.6087L58.2911 38.3406ZM57.2623 38.5985C57.2725 38.6087 56.5977 39.5651 56.1939 40.105C55.5688 40.9292 54.9249 41.7388 54.2626 42.5331C54.0169 42.8253 53.8053 43.0679 53.7957 43.073C53.7804 43.0776 53.7758 43.0034 53.7758 42.8898C53.7758 42.2901 53.6228 41.6514 53.3568 41.1059C53.2439 40.8787 53.2241 40.823 53.249 40.7979C53.3426 40.7145 54.7756 39.8916 55.6813 39.4014C56.2925 39.0744 57.2476 38.5883 57.2623 38.5985ZM51.037 40.1338C51.0522 40.1338 51.166 40.1941 51.2937 40.2636C51.5931 40.4283 51.8767 40.6205 52.1409 40.8378C52.1501 40.848 52.0229 40.9524 51.8551 41.0762C51.3165 41.4677 50.7863 41.8709 50.2649 42.2854C49.8312 42.6324 49.816 42.6426 49.8648 42.5684C50.1902 42.0674 50.3525 41.7845 50.5249 41.4232C50.6834 41.0868 50.8216 40.7411 50.9388 40.3879C50.978 40.2442 51.0273 40.1338 51.037 40.1338ZM52.6871 41.4431H52.6973C52.7217 41.4385 52.7516 41.4821 52.8844 41.6806C53.1651 42.1013 53.3822 42.6667 53.4361 43.1231L53.4463 43.2223L52.771 43.4849C51.5643 43.9556 50.4511 44.4208 49.6975 44.7678C49.4225 44.8978 49.1486 45.03 48.8757 45.1643C48.6341 45.2882 48.4373 45.3823 48.4373 45.3777C48.4373 45.3726 48.5899 45.259 48.7775 45.1203C50.2502 44.0447 51.5246 42.8657 52.4802 41.6857C52.5839 41.5623 52.677 41.4482 52.6871 41.4431ZM51.9335 41.6314C51.9533 41.6518 51.3924 42.2901 51.0084 42.6815C50.0579 43.6579 49.1163 44.4208 47.9492 45.1643C47.8017 45.2585 47.6689 45.3429 47.6542 45.3531C47.6196 45.3726 47.6639 45.3234 48.176 44.7631C48.4764 44.4387 48.7606 44.0996 49.0278 43.7469C49.2149 43.5039 49.2499 43.47 49.521 43.2766C50.2446 42.7511 51.9141 41.6115 51.9335 41.6314ZM58.5281 42.2223C58.594 42.387 58.7323 43.74 58.7696 44.6435C58.7793 44.8471 58.7747 44.9816 58.765 44.9816C58.7253 44.9816 57.9321 44.5104 57.3661 44.1537C56.8752 43.8429 55.9482 43.2242 55.7947 43.1017C56.7012 42.7942 57.6124 42.501 58.5281 42.2223ZM55.2656 43.291C55.3301 43.3188 55.4269 43.3726 55.6228 43.4941C56.6369 44.1333 58.0164 44.9069 58.6074 45.1643C58.7894 45.2437 58.8092 45.214 58.3907 45.5015C57.4942 46.1161 56.3764 46.7214 55.0075 47.3304C54.8595 47.3983 54.71 47.4626 54.559 47.5233C54.5493 47.5233 54.5783 47.3995 54.6175 47.2511C54.9475 46.0168 55.1351 44.7682 55.1448 43.7669C55.1476 43.5173 55.1485 43.3944 55.155 43.3309L55.2656 43.291ZM54.5101 43.5619C54.5359 43.6532 54.5179 44.6732 54.4797 44.9663C54.392 45.6969 54.2406 46.4183 54.027 47.1221C53.9727 47.3053 53.9233 47.4593 53.9132 47.4691C53.8934 47.4936 53.2195 46.8299 52.9978 46.5725C52.6138 46.1263 52.3128 45.6801 52.0911 45.2441C51.9847 45.034 51.8316 44.6579 51.8256 44.6003C52.5239 44.3146 53.2462 44.0298 54.0072 43.7423C54.1635 43.6834 54.3474 43.6217 54.5101 43.5619ZM51.3098 44.8174C51.3223 44.8369 51.3499 44.9 51.3771 44.9816C51.5348 45.413 51.8892 46.0475 52.1948 46.4538C52.5295 46.8995 52.9683 47.3744 53.3329 47.6866C53.4509 47.7859 53.5587 47.88 53.573 47.8953C53.603 47.9245 53.6136 47.9204 52.8106 48.2274C51.88 48.5846 50.8655 48.9403 49.703 49.3174C49.4251 49.4073 49.1475 49.4981 48.8701 49.5896C48.8259 49.6045 48.8411 49.5804 48.9692 49.3772C49.5454 48.4705 50.4221 46.6917 50.9144 45.4329C50.9983 45.2144 51.0817 44.9955 51.0964 44.9459C51.1024 44.925 51.1121 44.9134 51.1195 44.8995C51.184 44.8717 51.2449 44.8448 51.3098 44.8174ZM50.282 45.2599C50.2598 45.3387 50.0483 45.7863 49.821 46.2353C49.343 47.1722 48.8208 48.0934 48.122 49.213C48.0036 49.4064 47.8902 49.5855 47.8754 49.6054C47.8505 49.6397 47.8418 49.6305 47.763 49.4765C47.5956 49.1444 47.4569 48.7177 47.3827 48.3262C47.3089 47.9394 47.3246 47.2659 47.408 46.8494C47.4454 46.6704 47.462 46.6003 47.4965 46.5558C48.4134 46.099 49.3422 45.6669 50.282 45.2599ZM58.7991 45.5558V45.7645C58.7991 46.8693 58.6806 48.386 58.5087 49.4913C58.4787 49.6843 58.4543 49.8429 58.4497 49.8485C58.4497 49.8485 58.3068 49.8081 58.139 49.7585C57.3541 49.5075 56.5952 49.1803 55.8731 48.7817C55.3956 48.5196 54.7014 48.0887 54.7208 48.0688C54.7258 48.0641 54.9332 47.9551 55.1748 47.8262C56.14 47.3206 57.0651 46.7757 57.868 46.2353C58.1685 46.0322 58.6212 45.7052 58.7198 45.6156L58.7991 45.5558ZM46.5871 47.0326C46.6 47.041 46.5963 47.0813 46.5701 47.2409C46.5453 47.4171 46.5273 47.5943 46.5161 47.7719C46.4765 48.4955 46.5954 49.0307 46.9499 49.7636C47.0485 49.9672 47.1269 50.1346 47.1218 50.1397C47.0872 50.1699 43.828 51.1309 42.8028 51.4134C42.4977 51.4973 42.2317 51.5725 42.2119 51.5776C42.1778 51.5873 42.1727 51.5822 42.1875 51.4978C42.3009 50.7696 42.8522 49.8183 43.621 49.0154C44.1326 48.4802 44.541 48.1676 45.2403 47.7664C45.5637 47.5823 45.8895 47.4024 46.2174 47.2265C46.3377 47.1616 46.4645 47.0971 46.5871 47.0326ZM54.2681 48.4055C54.2727 48.4009 54.3912 48.4658 54.5336 48.5498C55.5878 49.1643 57.0558 49.7339 58.3068 50.0266L58.4202 50.0511L58.2617 50.1397C57.6071 50.5062 55.4546 51.4083 53.2536 52.2362C52.9333 52.3549 52.6189 52.4741 52.5594 52.4987C52.5004 52.5238 52.446 52.5386 52.446 52.534C52.446 52.5293 52.5345 52.3559 52.6475 52.1425C53.2633 50.983 53.8832 49.5702 54.199 48.5887C54.2382 48.4946 54.263 48.4106 54.2681 48.4055ZM53.4845 48.6629C53.4901 48.668 53.4504 48.7724 53.4016 48.8916C52.9729 49.937 52.411 51.0771 51.6924 52.3554C51.5099 52.6829 51.3582 52.9454 51.3532 52.9454C51.3481 52.9454 51.2001 52.8559 51.0227 52.7469C49.9782 52.1022 49.0526 51.31 48.447 50.5419L48.358 50.4324L48.806 50.3081C50.4119 49.8675 51.7754 49.3916 53.1301 48.8072C53.3223 48.7279 53.4804 48.6634 53.485 48.6634L53.4845 48.6629ZM58.3506 50.3735C58.3552 50.4885 58.1045 51.508 57.898 52.2459C57.7133 52.904 57.5161 53.5584 57.3066 54.2088C57.1886 54.5859 57.0853 54.8976 57.0807 54.8976C57.0588 54.895 57.0372 54.8902 57.0162 54.8832C55.5537 54.6156 54.2432 54.2431 53.0121 53.7478C52.6673 53.6091 52.175 53.386 52.1455 53.361C52.1354 53.3512 52.4313 53.2125 52.8051 53.0493C55.0462 52.0632 57.3711 50.9431 58.169 50.4621C58.2621 50.4027 58.3359 50.3735 58.3506 50.3735ZM47.1176 50.7594C47.1269 50.7696 46.5014 51.6759 45.6247 52.9101C45.3195 53.3415 44.9655 53.8466 44.8323 54.0349C44.6786 54.2532 44.5292 54.4747 44.3843 54.6991L44.1769 55.0214L43.9556 54.8331C43.6948 54.6151 43.2412 54.1495 43.0393 53.8916C42.6152 53.3614 42.3304 52.8016 42.217 52.2914C42.1626 52.0535 42.1626 51.9343 42.2119 51.9199C42.2857 51.8999 43.6012 51.5878 44.8323 51.3002C45.4204 51.1638 46.008 51.025 46.5949 50.8837C46.8807 50.8141 47.113 50.7594 47.1176 50.7594ZM47.7473 51.002L47.9049 51.1805C48.6143 51.9783 49.3384 52.5688 50.2151 53.0841C50.3723 53.1731 50.4908 53.252 50.4806 53.2571C50.4461 53.2821 47.4371 54.3572 46.0432 54.8433C45.5664 55.0131 45.0886 55.1797 44.6097 55.3433C44.6051 55.3433 44.5613 55.3136 44.512 55.2789L44.423 55.2144L44.5659 55.0061C45.0287 54.3322 45.6099 53.5938 46.8761 52.0576L47.7473 51.002ZM51.6781 53.8322C51.6827 53.8276 51.8994 53.9064 52.1649 54.0052C52.8056 54.2483 53.3126 54.4018 53.9925 54.5752C54.83 54.7886 56.0413 54.9964 56.7553 55.0562C56.8636 55.0655 56.9226 55.0766 56.9028 55.0915C56.8687 55.1114 56.1441 55.354 55.6122 55.5228C54.765 55.79 52.1801 56.5581 50.0718 57.1675C49.6827 57.2816 49.3481 57.3762 49.3283 57.3809C49.2794 57.3906 49.1167 57.3456 49.1167 57.3262C49.1167 57.3164 49.2352 57.1624 49.3781 56.9936C50.0956 56.1311 50.7631 55.2276 51.3771 54.2877C51.5398 54.04 51.6781 53.8373 51.6781 53.8322ZM50.8111 53.8568V53.8577C50.8157 53.8624 50.4654 54.4273 49.8551 55.3985C49.5942 55.8095 49.3039 56.2756 49.2006 56.4393C49.102 56.598 48.9535 56.8452 48.8701 56.9839L48.7277 57.2366L48.6539 57.2167C48.4769 57.1671 47.2301 56.7264 46.9005 56.5924C46.5095 56.4355 46.1266 56.2587 45.7533 56.0627C45.3592 55.8494 44.8669 55.5316 44.9061 55.5219C44.9162 55.5168 45.5901 55.3331 46.4023 55.1105C48.5594 54.5205 49.757 54.1787 50.5401 53.931C50.683 53.8865 50.806 53.8517 50.8111 53.8568ZM56.9429 55.3039H56.9475C56.9669 55.3535 56.1695 57.5836 55.8786 58.2872C55.815 58.4458 55.7897 58.4852 55.7556 58.4801C55.6717 58.4755 54.5143 58.3127 53.8099 58.2088C52.5839 58.0205 50.5249 57.6578 50.0082 57.539L49.8902 57.5135L50.624 57.3466C52.2004 56.9894 52.9577 56.796 53.7261 56.5581C54.718 56.2519 55.6872 55.8759 56.6267 55.4328C56.7793 55.3633 56.9079 55.3085 56.9429 55.3039ZM37.4892 57.7019C37.2864 57.7019 37.1204 57.7635 36.984 57.892C36.8255 58.0437 36.7411 58.2399 36.7411 58.5066V58.8953H36.3429V59.2139H36.7411V61.257L36.7434 61.2561H37.1209V59.2051H37.6717V58.886H37.1209V58.52C37.1209 58.187 37.2481 58.021 37.5132 58.021C37.6021 58.021 37.6934 58.0437 37.7607 58.0817V57.7394C37.6934 57.7088 37.6026 57.7023 37.4887 57.7023L37.4892 57.7019ZM24.719 57.7918C24.687 57.7906 24.6551 57.7962 24.6254 57.8081C24.5956 57.82 24.5686 57.838 24.5462 57.8609C24.5226 57.8835 24.5037 57.9105 24.4907 57.9404C24.4776 57.9704 24.4706 58.0026 24.4701 58.0353C24.4701 58.1109 24.4932 58.1638 24.5462 58.2093C24.5927 58.2541 24.6546 58.279 24.719 58.2788H24.7199C24.752 58.28 24.7839 58.2744 24.8137 58.2624C24.8434 58.2504 24.8704 58.2323 24.8928 58.2093C24.9166 58.187 24.9357 58.1601 24.9488 58.1302C24.962 58.1003 24.9689 58.068 24.9693 58.0353C24.9707 58.0024 24.9646 57.9697 24.9516 57.9395C24.9386 57.9093 24.919 57.8824 24.8942 57.8609C24.871 57.8383 24.8435 57.8206 24.8135 57.8087C24.7834 57.7969 24.7513 57.7911 24.719 57.7918ZM56.9779 57.8308V57.937H57.2568V58.7886H57.3624V57.937H57.6422V57.8308H56.9779ZM57.7855 57.8308V58.7886H57.8906V58.1494L57.898 58.1476C57.898 58.0655 57.898 57.9973 57.8915 57.9588C57.8984 58.0038 57.9146 58.0349 57.9215 58.0576L58.2455 58.7881H58.2976L58.6235 58.0506C58.6327 58.0284 58.6392 57.9978 58.6534 57.9588C58.648 58.0197 58.6455 58.0809 58.6461 58.142V58.7867H58.7585V57.8303H58.6235L58.3285 58.4908C58.3216 58.514 58.2985 58.5599 58.2842 58.6123H58.2741C58.2686 58.5817 58.2538 58.5506 58.2322 58.4987L57.9372 57.8308H57.7855ZM20.3438 57.9384V61.258H20.7144V59.033L20.7209 59.0312C20.7209 58.7343 20.7117 58.5135 20.7047 58.3841H20.7117C20.7416 58.5372 20.7794 58.6518 20.8098 58.7274L21.9345 61.257H22.1235L23.2486 58.7051C23.2795 58.6355 23.3095 58.5307 23.3468 58.3851H23.3551C23.3357 58.6005 23.3257 58.8167 23.3252 59.033V61.264H23.7105V57.9467H23.227L22.1926 60.2552C22.1545 60.3464 22.1017 60.4828 22.0341 60.6643H22.0193C21.9792 60.5292 21.929 60.3974 21.8691 60.27L20.8573 57.9384H20.3438ZM38.6664 58.187C38.5374 58.232 38.4101 58.2705 38.2894 58.3081V58.8855H37.8838V59.2042H38.2894V60.6095H38.2912C38.2912 61.0734 38.494 61.3099 38.9098 61.3099C39.0605 61.3099 39.1734 61.2853 39.2647 61.231V60.9055C39.1945 60.9572 39.1093 60.9843 39.0223 60.9824C38.8941 60.9824 38.8038 60.9514 38.7512 60.8827C38.6973 60.8145 38.6664 60.7 38.6664 60.5414V59.2042H39.2643V58.8855H38.6664V58.187ZM40.223 58.3925C40.0326 58.3925 39.8759 58.4537 39.7478 58.5826C39.6178 58.7116 39.5588 58.8702 39.5588 59.053C39.5588 59.2445 39.6196 59.4031 39.7478 59.5233C39.869 59.6453 40.0262 59.706 40.2152 59.706V59.7079C40.4037 59.7079 40.5609 59.6466 40.6899 59.5158C40.7533 59.4554 40.8034 59.3824 40.8373 59.3014C40.8712 59.2205 40.888 59.1334 40.8867 59.0455C40.8867 58.8554 40.819 58.6977 40.6904 58.5757C40.6286 58.5153 40.5554 58.468 40.4751 58.4365C40.3948 58.4051 40.3091 58.3901 40.223 58.3925ZM40.223 58.4611C40.3876 58.4611 40.5249 58.5145 40.6392 58.6272C40.7517 58.7408 40.8121 58.8786 40.8121 59.0455C40.8133 59.1244 40.7985 59.2027 40.7688 59.2758C40.7391 59.3488 40.695 59.415 40.6392 59.4704C40.5848 59.5252 40.5198 59.5683 40.4482 59.597C40.3766 59.6257 40.3 59.6395 40.223 59.6374C40.0561 59.6374 39.9202 59.5854 39.8082 59.4704C39.7523 59.415 39.7082 59.3488 39.6785 59.2758C39.6488 59.2027 39.6341 59.1244 39.6353 59.0455C39.6353 58.8786 39.686 58.7408 39.7989 58.6272C39.9114 58.5145 40.0483 58.4611 40.223 58.4611ZM39.9432 58.6128V59.4634H40.064V59.1063L40.0778 59.1072H40.1548C40.2087 59.1072 40.2617 59.1592 40.3069 59.2584L40.3977 59.4634H40.5401L40.4277 59.2348C40.3816 59.1434 40.3373 59.091 40.2848 59.0766C40.3511 59.0608 40.4041 59.0381 40.4415 58.9931C40.4598 58.9723 40.4737 58.9481 40.4826 58.9218C40.4915 58.8955 40.495 58.8677 40.4931 58.8401C40.495 58.8099 40.49 58.7797 40.4783 58.7518C40.4666 58.724 40.4486 58.6992 40.4258 58.6796C40.3737 58.636 40.2908 58.6128 40.1834 58.6128H39.9432ZM40.0769 58.7116H40.1843C40.2603 58.7116 40.3138 58.7269 40.3438 58.7496C40.3719 58.7719 40.3806 58.8016 40.3806 58.8554C40.3806 58.9542 40.3193 59.0005 40.2069 59.0005H40.0773L40.0769 58.7116ZM30.4263 58.8248C30.0714 58.8248 29.7856 58.9314 29.5736 59.1369C29.3473 59.3632 29.2274 59.6838 29.2274 60.0938C29.2274 60.4509 29.3242 60.7468 29.5289 60.9671C29.74 61.1953 30.0198 61.3094 30.3742 61.3094L30.3733 61.3104C30.7282 61.3104 31.014 61.1953 31.226 60.9671C31.4371 60.7408 31.5427 60.4356 31.5427 60.0557C31.5427 59.6684 31.4459 59.3721 31.2481 59.1513C31.0523 58.9314 30.7812 58.8248 30.4263 58.8248ZM34.9937 58.8248L34.9919 58.8257C34.6369 58.8257 34.3512 58.9319 34.1391 59.1374C33.9142 59.3642 33.7934 59.6838 33.7934 60.0938C33.7934 60.4509 33.8907 60.7468 34.094 60.9671C34.306 61.1953 34.5853 61.3094 34.9402 61.3094C35.3034 61.3094 35.5809 61.1944 35.793 60.9662C36.005 60.7386 36.111 60.4348 36.111 60.0548C36.111 59.6675 36.0114 59.3716 35.8155 59.1504C35.6118 58.9305 35.3399 58.8248 34.9937 58.8248ZM26.7121 58.8257C26.3351 58.8257 26.0405 58.9472 25.8206 59.1828C25.6026 59.4175 25.4902 59.7371 25.4902 60.123C25.4902 60.4662 25.5883 60.7547 25.7921 60.975C26.0041 61.2014 26.2747 61.3169 26.6065 61.3169C26.8637 61.3094 27.0735 61.2552 27.2555 61.149V60.7849C27.0735 60.9217 26.8785 60.9899 26.6761 60.9899C26.4342 60.9899 26.2369 60.9064 26.0935 60.7459C25.9506 60.5873 25.8737 60.3674 25.8737 60.0928C25.8737 59.8053 25.9511 59.5766 26.1087 59.4027C26.2599 59.2357 26.456 59.1521 26.6969 59.1518C26.8932 59.1518 27.0813 59.2134 27.2555 59.3354V58.9467C27.097 58.8633 26.9172 58.8257 26.7121 58.8257ZM32.796 58.8354C32.554 58.8354 32.3493 58.9027 32.1991 59.0321C32.1245 59.0901 32.0646 59.1649 32.0239 59.2504C31.9832 59.3359 31.963 59.4299 31.9649 59.5247C31.9649 59.6986 32.0165 59.8433 32.1152 59.9495C32.1981 60.04 32.341 60.1327 32.5383 60.2153C32.7273 60.2988 32.8545 60.3739 32.9227 60.4351C32.9546 60.4634 32.9799 60.4984 32.9968 60.5376C33.0138 60.5768 33.022 60.6192 33.0209 60.6619C33.0209 60.8832 32.8702 60.9977 32.5761 60.9977C32.3496 60.9981 32.1456 60.9226 31.964 60.7714V61.1796C32.1285 61.2798 32.3263 61.3247 32.5448 61.3247C32.8241 61.3099 33.0426 61.2413 33.1928 61.1049L33.1956 61.104C33.3394 60.975 33.4155 60.8159 33.4155 60.617C33.4171 60.5368 33.4025 60.4571 33.3726 60.3827C33.3427 60.3083 33.2982 60.2408 33.2417 60.1842C33.1495 60.0928 33.0089 60.0107 32.8033 59.9273C32.6217 59.8507 32.5093 59.783 32.4484 59.7297C32.4159 59.698 32.3904 59.6599 32.3735 59.6177C32.3566 59.5755 32.3486 59.5302 32.3502 59.4848C32.3502 59.3864 32.388 59.3118 32.4627 59.2505C32.5388 59.1898 32.6365 59.1596 32.7665 59.1596C32.9693 59.1596 33.1435 59.2139 33.3021 59.3285V58.9481C33.1446 58.8708 32.9712 58.8321 32.796 58.8354ZM28.8259 58.8479C28.69 58.8479 28.5692 58.8943 28.4618 58.9787C28.3498 59.0683 28.2604 59.2051 28.2074 59.379H28.1981V58.8943H27.822V61.2631H28.1991V60.0478L28.2074 60.0465C28.2074 59.7742 28.2673 59.5548 28.3802 59.4027C28.4859 59.266 28.6144 59.1974 28.7656 59.1967C28.8937 59.1967 28.9845 59.2204 29.0509 59.2737V58.8781C28.9993 58.8549 28.9237 58.8479 28.8259 58.8479ZM24.554 59.0367V61.104H24.8859V59.0367H24.554ZM34.9771 59.1443C35.2108 59.1443 35.3984 59.2199 35.5348 59.3716C35.6551 59.5386 35.7238 59.7672 35.7238 60.071H35.7247C35.7247 60.36 35.6634 60.5877 35.5358 60.7399C35.4072 60.8994 35.2186 60.9834 34.9688 60.9834C34.7268 60.9834 34.5397 60.8994 34.3959 60.7399C34.253 60.5798 34.1838 60.36 34.1838 60.071C34.1838 59.7663 34.2594 59.5302 34.4111 59.3716C34.554 59.2201 34.7426 59.1443 34.9771 59.1443ZM30.4033 59.1518C30.6457 59.1518 30.8273 59.2274 30.9619 59.3799C31.0979 59.5395 31.1656 59.7663 31.1656 60.071C31.1656 60.3595 31.1048 60.5877 30.9767 60.7399C30.849 60.8994 30.6605 60.9834 30.4111 60.9834C30.1691 60.9834 29.9806 60.8994 29.8368 60.7399C29.6939 60.5798 29.6261 60.36 29.6261 60.071C29.6114 59.7835 29.6865 59.5483 29.8368 59.3799C29.9806 59.2275 30.1694 59.1514 30.4033 59.1518ZM23.1717 62.1503C21.6782 62.1281 20.7117 62.6207 20.2595 63.6239C19.5944 65.1049 20.1834 66.2213 22.3106 67.4666C23.5054 68.1656 24.0322 68.7737 24.0322 69.4356C24.0322 70.8029 22.3945 71.2802 20.7043 70.4221C20.3567 70.2477 20.0622 70.1021 20.0461 70.1021C19.9852 70.4898 20.0161 71.4175 20.0161 71.4175C20.0161 71.4175 20.5365 71.6373 21.3155 71.7885C23.2468 72.1763 25.0053 71.2639 25.1712 69.7834C25.3159 68.3934 24.8158 67.6642 22.9232 66.5265V66.5274C21.663 65.7589 21.1044 65.2055 21.1731 64.5515C21.3685 62.7445 23.587 62.995 24.8163 63.6786L24.8255 62.4625C24.8255 62.4625 24.1456 62.1656 23.1717 62.1503ZM30.6065 62.1503V62.1513C30.5157 62.1513 30.4249 62.1605 30.335 62.1605C28.5005 62.2584 27.2625 63.0715 26.5388 64.6587C25.9198 66.0937 25.9875 67.9694 26.5457 69.4138C27.1947 70.8247 28.2438 71.5696 29.9949 71.8507C30.365 71.9119 30.6134 72.1155 31.3316 72.9583L32.2138 74H33.8156L32.7508 72.9193C32.1617 72.3275 31.686 71.8117 31.686 71.7662C31.686 71.7213 31.9114 71.6225 32.1838 71.539C33.0827 71.2653 33.828 70.5668 34.3502 69.4963C34.7725 68.6369 34.8333 68.3706 34.8941 67.3011C35.0522 64.1179 33.3841 62.1276 30.6065 62.1503ZM47.007 62.1666C45.5127 62.1443 44.547 62.6369 44.0939 63.6401C43.4297 65.1206 44.0262 66.2375 46.1465 67.4833C47.3394 68.1818 47.8667 68.782 47.8667 69.4434C47.8667 70.8108 46.229 71.2959 44.5387 70.43C44.1926 70.256 43.898 70.1123 43.8814 70.1123C43.821 70.4996 43.8515 71.4277 43.8515 71.4277C43.8515 71.4277 44.3654 71.6382 45.1421 71.7978C47.0752 72.186 48.8332 71.2755 48.9992 69.795C49.1425 68.4119 48.6447 67.6832 46.7577 66.5436V66.5418C45.4975 65.7756 44.9397 65.2199 45.0075 64.5659C45.2029 62.7589 47.4219 63.0098 48.6507 63.693L48.6599 62.4773C48.6599 62.4773 47.9805 62.1805 47.007 62.1666ZM36.3415 62.2654V71.6531H41.2698V70.5445H37.5132V62.2654H36.3415ZM30.5236 63.1383C32.4715 63.1383 33.5796 64.3382 33.7243 66.5937C33.8386 68.4768 33.2117 69.8896 32.0119 70.4754L32.011 70.4764C31.232 70.8558 30.1009 70.9309 29.3625 70.6582C28.5992 70.3762 27.8598 69.5793 27.5279 68.6763C27.1583 67.6883 27.2113 65.8655 27.634 65.0455C28.3129 63.7389 29.2108 63.1383 30.5236 63.1383ZM69.9597 64.7941C69.718 64.7972 69.4772 64.8252 69.2411 64.8776C67.6878 65.2872 66.812 66.7858 66.8719 68.3275C66.8719 69.6164 67.1208 70.256 67.7398 70.9318C69.0074 71.9801 70.1551 72.0631 71.7099 71.5009C71.8937 71.4218 72.077 71.3414 72.2598 71.2598V70.2106L71.7089 70.5C70.4538 71.0473 69.5103 71.0469 68.7571 70.4003C68.2727 69.9073 68.063 69.3219 67.9643 68.6378H72.6442V67.7412C72.6442 65.9212 71.5495 64.7654 69.9569 64.796L69.9597 64.7941ZM78.3303 64.7941C78.1399 64.7941 77.9823 64.8553 77.8541 64.9857C77.726 65.1137 77.6651 65.2732 77.6651 65.456C77.6651 65.6461 77.726 65.8043 77.8532 65.9268C77.9807 66.0486 78.1394 66.1094 78.3293 66.109C78.5169 66.109 78.675 66.0483 78.8055 65.9189C78.9327 65.789 79 65.6387 79 65.4495C78.9931 65.2579 78.9249 65.0988 78.7967 64.9773L78.7976 64.9764C78.7357 64.9163 78.6625 64.8692 78.5822 64.838C78.5019 64.8067 78.4163 64.7915 78.3303 64.7941ZM52.8411 64.8099C52.6026 64.8124 52.3652 64.8404 52.1326 64.8934C50.5774 65.3029 49.7007 66.8006 49.7542 68.3419C49.7542 69.6327 50.0045 70.2788 50.623 70.9555C51.8906 72.0023 53.0374 72.0854 54.5848 71.5237C54.8484 71.4105 55.137 71.2797 55.137 71.2797V70.2324L54.5848 70.5204C53.3324 71.0691 52.3898 71.0691 51.6339 70.423C51.1522 69.9291 50.9388 69.3372 50.8415 68.6605H55.5283V67.7644C55.5283 65.936 54.435 64.7816 52.8429 64.8099H52.842H52.8411ZM76.7889 64.8553C76.1173 64.8553 75.5974 65.129 75.2568 65.6689L74.9848 66.0937V64.9852H73.8228V71.6378H74.9843V69.5116C74.9843 67.5673 75.0074 67.3391 75.2784 66.8076C75.6509 66.0789 76.292 65.7143 76.9106 65.8897L77.3254 66.0112V64.8553H76.7889ZM78.3215 64.8646C78.4861 64.8646 78.623 64.9156 78.7373 65.0293C78.8493 65.1443 78.9101 65.2816 78.9101 65.4467C78.9101 65.6234 78.858 65.7593 78.7373 65.8743C78.6829 65.9291 78.618 65.972 78.5464 66.0005C78.4749 66.029 78.3984 66.0424 78.3215 66.0399C78.1569 66.0399 78.0205 65.9875 77.9067 65.8743C77.8507 65.8186 77.8066 65.7521 77.7768 65.6788C77.747 65.6054 77.7322 65.5268 77.7334 65.4476C77.7334 65.2821 77.7854 65.1443 77.8993 65.0293C78.0118 64.9161 78.1477 64.8646 78.3215 64.8646ZM59.6716 64.8706C59.0001 64.8706 58.4857 65.1443 58.139 65.6833L57.8671 66.11V65H56.706V71.654H57.8676V69.5269C57.8676 67.5821 57.8915 67.3549 58.1616 66.8229C58.5336 66.0928 59.1738 65.7292 59.7933 65.9031L60.2082 66.0256V64.8725H59.6726L59.6716 64.8706ZM60.5769 64.9922C61.3643 67.2264 62.1898 69.4469 63.0531 71.6526C63.4232 71.6614 63.7933 71.6526 64.163 71.6526L65.4674 68.3562L66.7949 64.9926H65.649C65.649 64.9926 65.142 66.3294 64.6138 67.8256L64.6156 67.8247L63.6495 70.3539L62.7207 67.8103L61.7772 64.9917L60.5769 64.9922ZM78.0574 65.0237V65.8734H78.1791V65.5153H78.2547C78.3063 65.5153 78.3579 65.5687 78.4049 65.6679L78.4953 65.8725H78.6391L78.5266 65.6443C78.4879 65.5464 78.4427 65.5019 78.3976 65.4866C78.4572 65.4744 78.5121 65.4454 78.5561 65.4031C78.5929 65.361 78.6118 65.306 78.6087 65.25C78.6104 65.22 78.6052 65.1899 78.5934 65.1623C78.5817 65.1346 78.5637 65.11 78.5409 65.0905C78.4888 65.0469 78.4054 65.0237 78.2989 65.0237H78.0574ZM78.1846 65.1225H78.2915C78.3671 65.1225 78.4197 65.1364 78.4501 65.1596C78.4805 65.1828 78.487 65.212 78.487 65.2663C78.487 65.3646 78.4261 65.4101 78.3141 65.4101H78.1846V65.1225ZM69.8906 65.7904C70.2372 65.7904 70.5847 65.9026 70.8714 66.1234C71.46 66.5794 71.5596 67.7041 71.5596 67.7041H68.0657C68.0694 67.6819 68.2455 66.5678 68.8802 66.116C69.1754 65.9048 69.5284 65.7914 69.8906 65.7904ZM52.7738 65.8127C53.1285 65.8124 53.4734 65.9298 53.7551 66.1466C54.3437 66.6025 54.4419 67.719 54.4419 67.719H50.9489C50.9526 67.6939 51.1273 66.5812 51.7625 66.1387C52.0579 65.9273 52.4113 65.8134 52.7738 65.8127Z" fill="white"/>
</svg>
