<svg width="100" height="100" viewBox="0 0 100 100" fill="none" xmlns="http://www.w3.org/2000/svg">
  <rect width="100" height="100" />
  <path d="M75.4053 37.8849V39.6807H79.5863V34.7422" fill="#191919" />
  <path d="M72.3401 34.6875L68.2148 37.8863V54.7221H72.3401" fill="#191919" />
  <path
    d="M49.762 43.553C49.762 41.701 49.762 41.701 49.762 41.701C46.0827 41.701 46.0827 41.701 46.0827 41.701C46.0827 38.6706 46.0827 38.6706 46.0827 38.6706C46.0827 38.2777 46.0827 38.2777 46.0827 38.2777C46.0827 38.1655 46.0269 38.1094 45.9154 38.1094C45.8597 38.1094 45.804 38.1094 45.7482 38.1655C45.3022 38.5022 45.3022 38.5022 45.3022 38.5022C39.6718 43.104 39.6718 43.104 39.6718 43.104C39.2815 43.3285 39.2258 43.553 39.839 43.553C41.9574 43.553 41.9574 43.553 41.9574 43.553C41.9574 50.4557 41.9574 50.4557 41.9574 50.4557C41.9574 51.7464 41.8459 53.4861 43.2396 54.1595C46.1384 55.6748 49.762 54.5524 49.762 54.5524C49.762 52.6443 49.762 52.6443 49.762 52.6443C49.762 52.6443 46.0827 54.2157 46.0827 50.3434C46.0827 43.553 46.0827 43.553 46.0827 43.553"
    fill="#191919" />
  <path
    d="M13.7495 41.5918L16.0909 47.8772H11.4639L13.7495 41.5918ZM11.6311 37.3828L4.88574 54.7237H8.95528L10.2932 51.1321H17.2616L18.5995 54.7237H23.338L16.6484 37.3828"
    fill="#191919" />
  <path
    d="M33.8188 41.6484C37.9998 41.6484 37.9999 41.6484 37.9999 41.6484C37.9441 54.7243 37.9441 54.7243 37.9441 54.7243C33.8188 54.7243 33.8188 54.7243 33.8188 54.7243C33.8188 52.5356 33.8188 52.5356 33.8188 52.5356C33.0384 54.1631 31.2545 55.0049 29.0803 55.0049C26.9619 55.0049 25.6797 54.0508 25.178 53.3774C24.3976 52.255 24.3418 51.1887 24.3418 49.898C24.3418 41.6484 24.3418 41.6484 24.3418 41.6484C28.4671 41.6484 28.4671 41.6484 28.4671 41.6484C28.4671 49.898 28.4671 49.898 28.4671 49.898C28.4671 51.4693 29.6378 52.1428 31.0315 52.1428C32.2579 52.1428 32.8711 51.7499 33.3171 50.9081C33.7631 50.0664 33.8188 48.7195 33.8188 48.7195"
    fill="#191919" />
  <path d="M89.9556 50.6276L86.4435 41.6484H81.7607L87.2797 54.7243H90.9033L96.4222 41.6484H93.4676" fill="#191919" />
  <path d="M75.4053 54.7243H79.5306V41.6484H75.4053V54.7243Z" fill="#191919" />
  <path
    d="M58.2916 52.8156C58.3473 52.8156 58.3473 52.8156 58.3473 52.8156C61.1904 52.8156 61.6921 49.729 61.6921 48.0454C61.6921 46.4741 61.0232 43.4997 58.3473 43.4997C55.6715 43.4997 54.9467 46.4741 54.9467 48.0454C54.9467 49.729 55.4485 52.8156 58.2916 52.8156ZM58.3473 41.3672C63.3088 41.3672 66.0404 44.3976 66.0404 48.2699C66.0404 51.9738 63.0301 55.0042 58.3473 55.0042C53.3858 55.0042 50.71 51.9176 50.71 48.1015C50.71 44.3415 53.4416 41.3672 58.3473 41.3672Z"
    fill="#191919" />
  <path d="M4.27246 66.0014H96.4225V59.2109H4.27246V66.0014Z" fill="#191919" />
</svg>