<svg width="100" height="100" viewBox="0 0 100 100" fill="none" xmlns="http://www.w3.org/2000/svg">
  <rect width="100" height="100" />
  <path fill-rule="evenodd" clip-rule="evenodd"
    d="M7.05751 46.0568C6.98789 46.1284 6.9779 54.7878 7.04733 54.9007C7.08555 54.9628 7.63467 54.9733 11.4527 54.9842C14.1875 54.9921 15.9063 54.9793 16.0609 54.95C16.4062 54.8843 16.5891 54.7842 16.8749 54.5044C17.3953 53.9947 17.4195 53.8493 17.3996 51.3499L17.384 49.3851L17.2601 49.112C17.0826 48.7204 16.7216 48.3682 16.3492 48.2233L16.05 48.1068L12.3779 48.0939L8.70589 48.081V47.132C8.70589 46.5685 8.68655 46.146 8.65823 46.0916C8.61408 46.0068 8.55496 46 7.86167 46C7.34059 46 7.09595 46.0173 7.05751 46.0568ZM37.0229 46.0951C36.9885 46.1613 36.9775 47.3251 36.9867 49.9181L37.0001 53.6461L37.1216 53.9277C37.2879 54.3131 37.5952 54.658 37.9257 54.8302L38.1972 54.9717L40.9029 54.985L43.6086 54.9982L43.6574 54.8666C43.7293 54.6722 43.6939 53.4687 43.6133 53.3691C43.5562 53.2985 43.3385 53.291 41.3524 53.291H39.1548L39.003 53.1845C38.6883 52.9636 38.6807 52.9182 38.6807 51.2678V49.7875H41.0943C42.4217 49.7875 43.5406 49.7746 43.5806 49.7588C43.6429 49.7342 43.6535 49.6181 43.6535 48.9556C43.6535 48.2384 43.6469 48.1775 43.5644 48.1321C43.5063 48.1002 42.6425 48.0831 41.078 48.0831H38.6807V47.0984C38.6807 46.3956 38.6649 46.0973 38.6255 46.0568C38.587 46.0173 38.3424 46 37.8213 46C37.1184 46 37.0693 46.0058 37.0229 46.0951ZM82.4969 46.0738C82.4817 46.1156 82.4688 46.5841 82.4688 47.1149V48.08L78.7508 48.0934L75.0327 48.1068L74.7334 48.2553C74.4037 48.4189 74.1298 48.6892 73.9235 49.0537L73.7895 49.2904V51.5392V53.7881L73.8995 54.0011C74.0648 54.3202 74.214 54.5043 74.4567 54.6872C74.8784 55.0057 74.7293 54.9972 79.662 54.9838L84.1034 54.9717V50.4977V46.0237L83.3142 46.0107C82.6254 45.9994 82.5218 46.0074 82.4969 46.0738ZM85.3788 46.0568C85.3369 46.1 85.3236 46.9931 85.3236 49.787C85.3236 53.7841 85.3231 53.7748 85.5828 54.2023C85.7361 54.4545 85.9645 54.6677 86.2647 54.8389L86.4977 54.9717L89.1844 54.9853C91.173 54.9955 91.8877 54.9847 91.9355 54.944C91.9857 54.9014 92 54.728 92 54.1684C92 53.5303 91.9903 53.4387 91.9157 53.3693C91.8398 53.2987 91.6142 53.291 89.6347 53.291H87.4379L87.2441 53.1051L87.0502 52.9191L87.0369 51.3533L87.0235 49.7875H89.4639C91.8296 49.7875 91.9061 49.7847 91.9521 49.696C91.9788 49.6449 92 49.3004 92 48.9174C92 48.2613 91.9954 48.2273 91.8978 48.1569C91.808 48.0924 91.4944 48.0831 89.4114 48.0831H87.0272V47.1331C87.0272 46.5688 87.0079 46.146 86.9793 46.0916C86.9351 46.0068 86.8762 46 86.1828 46C85.662 46 85.4171 46.0173 85.3788 46.0568ZM19.8487 48.1175C19.6468 48.1572 19.1858 48.3962 19.0378 48.5379C18.8024 48.7631 18.613 49.0836 18.538 49.3832C18.4804 49.6131 18.4673 50.0044 18.4673 51.4954C18.4673 53.3929 18.489 53.6786 18.6611 54.0468C18.7893 54.3211 19.1736 54.7095 19.4627 54.857L19.6874 54.9717L24.1042 54.9849C27.6518 54.9955 28.5282 54.9862 28.5582 54.9376C28.6203 54.8369 28.6056 53.4134 28.5418 53.3478C28.4996 53.3045 27.5528 53.291 24.5611 53.291C21.8138 53.291 20.604 53.2754 20.5299 53.2392C20.3172 53.135 20.1987 52.918 20.1787 52.5966L20.1602 52.2968H24.3786H28.597V50.9811C28.597 49.5419 28.5625 49.2702 28.3343 48.9117C28.1403 48.6069 27.8454 48.3459 27.5551 48.2221L27.2848 48.1068L23.6242 48.1009C21.6109 48.0976 19.912 48.1051 19.8487 48.1175ZM31.1755 48.1168C30.5552 48.2288 30.094 48.5759 29.8477 49.1161L29.7251 49.3851L29.7115 52.1236C29.7013 54.1603 29.7117 54.8792 29.7517 54.9287C29.8233 55.0175 31.2191 55.0263 31.3044 54.9385C31.3459 54.8959 31.3597 54.313 31.3598 52.6069C31.3598 50.0418 31.3525 50.0993 31.705 49.8956C31.8888 49.7893 31.8942 49.7891 34.084 49.7883C35.2912 49.7879 36.3116 49.7746 36.3517 49.7588C36.4139 49.7342 36.4245 49.6188 36.4245 48.9634C36.4245 48.4303 36.4077 48.1795 36.3693 48.1399C36.3275 48.097 35.7016 48.0847 33.8023 48.0896C32.4208 48.0931 31.2388 48.1054 31.1755 48.1168ZM46.0017 48.116C45.3023 48.2469 44.811 48.6727 44.616 49.3168C44.5342 49.5872 44.5283 49.7835 44.5283 52.2442C44.5283 54.2325 44.5419 54.8957 44.5836 54.9385C44.6218 54.9779 44.8598 54.9954 45.3571 54.9954C45.8544 54.9954 46.0924 54.9779 46.1307 54.9385C46.1721 54.8959 46.1859 54.3153 46.1859 52.6168C46.1859 50.4403 46.1896 50.3446 46.2786 50.165C46.3383 50.0447 46.4361 49.9442 46.5531 49.8828C46.7277 49.7912 46.8207 49.7875 48.9479 49.7875H51.161L51.2091 49.6574C51.2648 49.5067 51.2479 48.2061 51.1894 48.1461C51.1501 48.1058 46.2094 48.0772 46.0017 48.116ZM52.0335 48.1166C51.9956 48.132 51.9492 48.1681 51.9306 48.1968C51.8711 48.2884 51.8891 49.6674 51.9507 49.7307C51.9927 49.7739 52.8471 49.7875 55.5145 49.7875C58.9725 49.7875 59.0263 49.7889 59.2018 49.8853C59.4315 50.0114 59.5899 50.2521 59.6194 50.5195L59.6424 50.7316L56.0339 50.7449C53.3947 50.7545 52.4002 50.7729 52.3328 50.8131C52.2822 50.8434 52.1268 50.9228 51.9875 50.9895C51.3365 51.3014 50.8824 52.0658 50.8824 52.8497C50.8824 53.8479 51.6007 54.7662 52.5225 54.9464C52.7132 54.9837 54.0462 54.9953 57.0294 54.9855L61.2655 54.9717V52.1784V49.3851L61.1457 49.1231C60.9712 48.7415 60.584 48.3631 60.223 48.2215L59.9302 48.1068L56.0164 48.0977C53.8638 48.0927 52.0715 48.1012 52.0335 48.1166ZM62.4212 48.156C62.3549 48.2243 62.3475 48.5683 62.3475 51.5568C62.3475 54.0797 62.3609 54.8954 62.4028 54.9385C62.4658 55.0035 63.8964 55.0197 63.9931 54.9566C64.0373 54.9278 64.053 54.3363 64.0622 52.3652L64.0742 49.8112L67.2282 49.8L70.3822 49.7887L70.5618 49.8947C70.6608 49.9529 70.7851 50.0607 70.8381 50.1342C70.9324 50.2648 70.9352 50.3186 70.9481 52.5701C70.9573 54.1255 70.978 54.8924 71.0116 54.9339C71.0485 54.9795 71.2483 54.9954 71.7884 54.9954C72.1885 54.9954 72.5486 54.9824 72.5887 54.9666C72.6536 54.9409 72.6614 54.6548 72.6614 52.2212V49.5045L72.5408 49.1953C72.3787 48.7787 72.0886 48.4557 71.7023 48.2612L71.3952 48.1068L66.945 48.0934C62.9115 48.0812 62.4884 48.0871 62.4212 48.156ZM8.72689 49.8469C8.71468 49.8797 8.71013 50.6626 8.7168 51.5868L8.72891 53.2673L12.0023 53.2795L15.2757 53.2916L15.4279 53.1848C15.7332 52.9705 15.7508 52.8832 15.7497 51.5873C15.7485 50.249 15.722 50.1264 15.3867 49.9088L15.2 49.7875H11.9745C9.42943 49.7875 8.74438 49.8001 8.72689 49.8469ZM20.6152 49.8738C20.4133 49.9959 20.2218 50.3022 20.1881 50.5569L20.1584 50.7817H23.5489H26.9394V50.6382C26.9394 50.4565 26.8269 50.1769 26.6955 50.0322C26.4668 49.7804 26.5568 49.7872 23.546 49.791C21.0129 49.7941 20.734 49.802 20.6152 49.8738ZM75.8053 49.8725C75.7243 49.9173 75.605 50.0271 75.5406 50.1166L75.4241 50.2794V51.566V52.8527L75.6027 53.06L75.7818 53.2673L79.126 53.28L82.4698 53.2928L82.4578 51.552L82.4458 49.8112L79.1997 49.8012C76.2073 49.7919 75.9421 49.7975 75.8053 49.8725ZM52.6218 52.3232C52.4584 52.4144 52.4019 52.5297 52.4019 52.7718C52.4019 52.933 52.4305 52.9985 52.5584 53.13L52.715 53.291H56.173H59.6309V52.7702V52.2494L56.1891 52.2513C53.2413 52.2529 52.7292 52.2632 52.6218 52.3232Z"
    fill="#191919" />
</svg>