<svg width="100" height="100" viewBox="0 0 100 100" fill="none" xmlns="http://www.w3.org/2000/svg">
  <rect width="100" height="100" />
  <path
    d="M68.0389 53.9418C68.0389 54.0522 68.149 54.0522 68.2591 54.1625C68.2591 54.1625 68.3691 54.1625 68.2591 54.273C67.9289 54.9352 67.7087 55.2665 67.3785 55.8184C67.0483 56.3704 66.7181 56.7016 66.1678 57.0328C65.5074 57.5847 64.5169 58.2471 63.7464 57.8055C63.4162 57.5847 63.196 57.1431 63.3061 56.7015C63.3061 55.5976 63.8565 54.3833 64.7369 53.2794C65.8376 51.8443 67.0483 51.182 67.9289 51.6235C68.8094 52.0651 68.4792 52.9483 68.149 53.721C67.9289 53.8314 67.9289 53.8314 68.0389 53.9418ZM76.9544 45.2208C77.0644 45.1103 76.9544 45 76.8443 45C76.1839 45 75.1934 45 74.533 45C74.3128 45 74.3128 45 74.2028 45.2208C73.9826 45.7727 70.6806 50.63 70.0202 51.6235C69.9101 51.7339 69.8 51.7339 69.8 51.6235C69.69 51.0716 69.2497 50.4092 68.4792 50.078C67.9289 49.8572 67.2685 49.7469 66.7181 49.8572C65.6174 49.9677 64.6268 50.5196 63.8565 51.182C62.5356 52.1754 61.435 53.3898 60.1141 54.3833C59.3437 54.9354 58.243 55.3768 57.5826 54.7146C56.9222 54.1625 57.0322 52.8378 58.0228 51.7339C58.1329 51.6235 58.243 51.7339 58.243 51.8443C58.1329 52.2859 58.243 52.7275 58.5732 53.0586C59.0135 53.3898 59.5638 53.5002 60.1141 53.2794C60.7745 52.9483 61.1047 52.3962 61.2148 51.7339C61.3249 50.7404 60.5544 49.7469 59.5638 49.6364C58.7933 49.5261 57.9128 49.8572 57.2524 50.5196C56.9222 50.8508 56.702 51.0715 56.3718 51.5131C56.2618 51.6235 56.1517 51.6235 56.1517 51.5131C56.1517 50.1885 55.6014 49.4157 54.5008 49.4157C53.6201 49.4157 52.7397 49.8572 51.9692 50.4092C51.1987 51.0716 50.5383 51.8443 49.7678 52.617C49.6578 52.7275 49.5477 52.7275 49.5477 52.5067C49.5477 51.6235 49.3276 50.7404 48.8873 50.1885C48.7772 49.9677 48.447 49.8572 48.2269 49.9677C48.1168 50.078 47.6765 50.1885 47.3463 50.5196C47.2363 50.63 47.1262 50.8508 47.2363 51.0715C47.6765 52.3962 47.5665 53.9418 47.0161 55.156C46.5759 56.3704 45.5853 57.3639 44.4846 57.6952C43.7141 57.9158 42.9436 57.8055 42.5033 57.1431C41.843 56.26 42.0632 54.6041 43.0538 53.2794C43.9342 52.1755 45.145 51.4027 46.3557 50.9612C46.4658 50.8508 46.5759 50.8508 46.4658 50.7404C46.3557 50.5196 46.2457 50.2988 46.2457 50.078C46.1356 49.7469 45.8054 49.7469 45.4752 49.7469C44.5946 49.8572 43.7141 50.1885 42.9436 50.63C40.8524 51.7339 39.7517 53.9418 39.3115 55.156C39.0913 55.7081 38.8712 56.0392 38.6511 56.3704C38.3209 56.812 37.8806 57.1431 37.1101 57.8055C37 57.9158 37 58.0263 37 58.1366C37.1101 58.2471 37.4403 58.9094 37.5504 58.9094C37.6604 59.0198 37.7705 58.9094 37.8806 58.799C38.4309 58.4679 39.0913 57.8055 39.4215 57.4744C39.5316 57.3639 39.6417 57.3639 39.7517 57.5847C40.0819 58.5782 40.8524 59.4614 41.843 59.7926C43.8243 60.4548 45.8054 59.4613 47.3463 57.8055C48.337 56.812 48.6672 56.0392 48.9974 55.5976C49.6578 54.8249 50.8685 53.0586 52.2994 51.9547C52.8496 51.5131 53.5102 51.182 53.8404 51.4028C54.0605 51.6235 54.1706 51.9547 53.7303 52.7275C52.1893 55.4873 49.988 58.6886 49.6578 59.4613C49.5477 59.5718 49.6578 59.6821 49.7678 59.6821C50.5383 59.6821 51.3088 59.6821 52.0793 59.6821C52.1893 59.6821 52.2994 59.5718 52.2994 59.5718C53.4001 57.8055 54.5008 56.0392 55.7114 54.273C55.8215 54.1625 55.8215 54.273 55.8215 54.273C55.8215 54.7146 55.9316 55.2665 56.1517 55.5976C56.592 56.26 57.2524 56.5912 57.9128 56.5912C58.4631 56.5912 58.7933 56.4808 59.3437 56.26C59.7839 56.0392 60.2242 55.8184 60.5544 55.5976C60.7746 55.4873 60.7745 55.7081 60.7745 55.7081C60.5544 57.1431 60.8846 58.799 62.2054 59.5718C63.8565 60.4548 65.7275 59.2406 66.8282 58.1366C66.9383 58.0263 67.0483 58.0263 67.0483 58.2471C67.0483 58.6886 67.2685 59.1302 67.5987 59.4613C68.4792 60.3445 70.3504 60.0134 72.1115 58.5782C73.3222 57.6952 74.533 56.3704 75.6335 55.0457C75.6335 55.0457 75.7436 54.9352 75.6335 54.8249C75.4134 54.6041 75.1934 54.4938 75.0833 54.273C74.9731 54.1625 74.8632 54.273 74.8632 54.273C73.7625 55.3768 72.6618 56.5912 71.2309 57.5847C70.6806 57.9158 69.9101 58.2471 69.5799 57.6952C69.4698 57.4744 69.4698 57.2536 69.5799 56.9223C69.8 56.26 76.6241 45.7727 76.9544 45.2208Z"
    fill="#191919" />
  <path
    d="M45.1812 46.2784C45.1812 46.3827 45.2899 46.487 45.2899 46.487C45.6159 46.3827 46.0505 46.1741 46.2678 45.8613C46.485 45.5485 46.5937 45.1314 46.3765 45.0272C46.1591 44.9228 45.9418 44.9228 45.7246 45.1314C45.2899 45.4442 45.1812 45.9656 45.1812 46.2784ZM28.0145 59C25.5155 59 23.3424 57.5402 23.0165 54.9333C22.9079 53.4734 23.3424 52.2221 24.103 51.1794C24.8636 50.2409 26.0587 49.5109 27.1452 49.3025C27.4712 49.1981 28.0145 49.3025 28.1231 49.5109C28.449 49.8238 28.3405 50.2409 28.0145 50.3452C27.1452 50.7623 26.1674 51.3879 25.7328 52.3264C25.2983 53.0563 25.2983 53.9948 25.8415 54.9333C26.8193 56.3931 29.6442 56.3932 32.2518 54.0991C32.9037 53.5778 33.447 52.9521 34.0989 52.3264C35.294 51.0751 35.62 50.5537 37.1411 48.5725V48.4682C37.1411 48.4682 37.1411 48.4682 37.0325 48.4682C36.0546 48.4682 35.0768 48.781 34.2075 49.4067C33.9902 49.6153 33.5556 49.5109 33.447 49.3025C33.2297 49.0939 33.447 48.6768 33.6643 48.4682C35.0768 47.5297 36.5979 47.3211 38.119 47.1126C38.119 47.1126 38.2277 47.1126 38.3362 47.0084C38.9881 46.1741 39.4228 45.5485 40.1834 44.7143C40.8352 43.8801 41.7044 43.1502 42.465 42.6288C43.4428 41.8988 43.9862 41.586 44.638 41.2732C44.7467 41.1689 44.638 41.0646 44.5294 41.0646C41.0525 40.439 37.5758 39.6048 34.0989 40.8561C31.7086 41.6903 30.7308 43.463 31.1653 44.7143C31.4912 45.5485 32.6865 45.6527 33.773 45.2356C34.6421 44.8186 35.5114 44.0887 36.1633 43.2544C36.4893 42.733 37.2497 43.1501 36.8152 43.9843C35.8374 46.2784 33.8816 48.0511 31.5999 48.0511C29.6442 48.1554 28.3405 46.6956 28.3405 45.0272C28.3405 41.586 32.2518 39.3962 36.3806 39.0834C41.3785 38.6663 46.0505 39.9176 51.0484 40.5433C54.8512 40.9604 58.4366 40.9604 62.2394 40.1261C62.6741 40.0219 63 40.3347 63 40.7518C63 41.3775 62.4568 42.0031 61.1529 42.6288C59.7405 43.3587 58.2194 43.5672 56.6982 43.5672C52.8955 43.5672 49.4187 42.2117 45.8331 41.4817C45.8331 41.586 45.8331 41.7946 45.7246 41.8988C43.6602 43.3587 41.9218 44.8186 40.7266 46.7998V46.904C41.8131 46.7998 42.6824 46.7998 43.7688 46.7998C43.9861 46.7998 43.9862 46.6956 43.9862 46.5912C43.8775 45.8613 44.0947 45.1314 44.7466 44.5057C45.3986 43.9843 46.2678 43.8801 46.8111 44.2971C47.463 44.7143 47.3543 45.5485 47.0284 46.1741C46.7024 46.7998 46.1591 47.1126 45.6159 47.3211C45.6159 47.3211 45.5072 47.3211 45.5072 47.4255C45.5072 47.6341 46.2678 47.9468 46.3765 48.0511C46.485 48.1554 46.3765 48.2596 46.2678 48.4682C46.1591 48.5724 46.0505 48.6768 45.9418 48.6768C45.8331 48.6768 45.7246 48.6768 45.6159 48.5725C45.2899 48.364 44.8553 48.1554 44.638 47.7383C44.5294 47.6341 44.5294 47.6339 44.2034 47.6339C43.1169 47.7383 41.4871 47.8425 40.292 47.9468C39.9661 47.9468 39.9661 48.0511 39.9661 48.1554C38.119 50.9709 36.2719 54.0991 34.0989 56.0803C31.9259 58.3744 30.0789 58.8958 28.0145 59Z"
    fill="#191919" />
  <path
    d="M50 35.4345C26.5333 35.4345 7.52101 42.0552 7.52101 50.1104C7.52101 58.1655 26.5333 64.7862 50 64.7862C73.4666 64.7862 92.479 58.1655 92.479 50.1104C92.479 41.9448 73.4666 35.4345 50 35.4345ZM50 66C25.6641 66 6 58.8277 6 50C6 41.1724 25.6641 34 50 34C74.3357 34 94 41.1724 94 50C94 58.8277 74.3357 66 50 66Z"
    fill="#191919" />
</svg>