<svg width="100" height="100" viewBox="0 0 100 100" fill="none" xmlns="http://www.w3.org/2000/svg">
  <rect width="100" height="100" />
  <path
    d="M28.8925 70.4422C31.7343 68.6227 33.6094 65.3257 33.6094 61.7602L33.6076 29.5547H29.9411V61.6094C29.9411 62.9414 29.6352 64.2017 29.0145 65.2523C28.4901 66.0746 27.8001 66.8215 27.001 67.3735L28.8925 70.4422Z"
    fill="#191919" />
  <path d="M44.7506 60.524V29.5547H41.084V64.1299H61.6121L59.4129 60.524H44.7506Z" fill="#191919" />
  <path
    d="M71.9249 39.0866C71.9249 33.7531 67.3299 29.5547 62.1505 29.5547H52.2288V33.1588H62.1979C65.6696 33.1588 68.1619 35.8761 68.1619 39.0866C68.1619 42.3965 65.6696 45.1617 62.1979 45.1617H52.1797V48.7676H59.6092L69.0904 64.1281H73.0008L63.4705 48.6683C68.1128 48.0759 71.9249 44.4699 71.9249 39.0866Z"
    fill="#191919" />
</svg>