<svg width="100" height="100" viewBox="0 0 100 100" fill="none" xmlns="http://www.w3.org/2000/svg">
  <rect width="100" height="100" />
  <path fill-rule="evenodd" clip-rule="evenodd"
    d="M48.9674 24.0131C42.9037 24.2657 37.2573 26.5934 32.6851 30.7254C32.2394 31.1282 31.0172 32.3719 30.6315 32.8152C28.1855 35.6259 26.4097 38.758 25.2909 42.2344C23.6465 47.3443 23.571 52.9278 25.0768 58.0681C26.1777 61.8261 28.0356 65.2073 30.6421 68.1967C31.0195 68.6296 32.2452 69.8755 32.6851 70.2736C36.2037 73.457 40.37 75.5772 44.9139 76.4967C46.1354 76.7438 47.2435 76.8837 48.7145 76.9763C49.1307 77.0025 50.4994 77.0086 51.025 76.9865C57.1048 76.7321 62.7531 74.4052 67.3197 70.2736C67.7691 69.867 68.9913 68.6236 69.3734 68.1842C71.8211 65.3702 73.5982 62.2354 74.7137 58.765C75.4198 56.5681 75.8058 54.4842 75.966 52.0048C76.0305 51.0051 76.0004 49.2282 75.8995 48.0916C75.3865 42.3102 73.0313 36.8867 69.1677 32.5894C68.6957 32.0643 67.8054 31.167 67.3197 30.7265C63.2903 27.0727 58.3524 24.8064 53.0456 24.1754C52.5704 24.1189 51.9662 24.0664 51.2961 24.0234C50.8972 23.9977 49.4854 23.9915 48.9674 24.0131ZM49.737 24.3754C49.7339 24.3779 49.4596 24.3868 49.1276 24.3952C47.3084 24.441 45.2392 24.7426 43.4915 25.2169C39.6822 26.2506 36.1712 28.1424 33.2214 30.7503C31.8748 31.9408 30.5641 33.374 29.4975 34.822C25.6274 40.0763 23.8721 46.4985 24.4995 53.1085C25.0281 58.678 27.3202 63.9103 31.0762 68.1215C31.3535 68.4323 32.2757 69.3777 32.5911 69.6744C34.3881 71.3648 36.4034 72.7848 38.5672 73.885C41.7552 75.506 45.0128 76.3819 48.6225 76.5887C49.1599 76.6195 50.701 76.6271 51.1656 76.6012C52.458 76.5292 53.4959 76.4109 54.6104 76.2087C58.9172 75.4272 63.0938 73.4195 66.5 70.4936C67.2657 69.8358 68.2637 68.8619 68.9049 68.1466C72.2644 64.3991 74.4871 59.761 75.2825 54.8386C75.5609 53.1158 75.6724 51.3517 75.6147 49.5841C75.5001 46.0738 74.7117 42.6924 73.2682 39.5213C70.6574 33.7855 66.0512 29.1674 60.3853 26.605C57.6585 25.3719 54.834 24.6568 51.8259 24.4379C51.3529 24.4035 49.7619 24.3559 49.737 24.3754ZM49.1769 31.8405C47.7714 31.972 46.3176 32.4972 45.1287 33.303C44.3645 33.821 43.8532 34.3027 42.5846 35.6999C40.4498 38.0512 35.4518 43.8935 29.9346 50.4871C28.9212 51.6983 28.3822 52.9109 28.1907 54.4102C28.1348 54.8483 28.1357 55.7216 28.1926 56.1562C28.4621 58.2165 29.4619 59.9324 31.1014 61.1483C31.9672 61.7905 33.4221 62.4828 35.0449 63.0247C38.1805 64.0718 41.982 64.7145 46.417 64.9475C48.6956 65.0672 51.619 65.0622 53.9081 64.9347C59.5799 64.6189 64.3416 63.5898 67.4914 61.9992C68.5036 61.488 69.1214 61.0519 69.7795 60.3841C70.9157 59.2311 71.6037 57.7995 71.8132 56.1521C71.8638 55.7547 71.8708 54.888 71.8265 54.5006C71.6848 53.2604 71.2426 52.0767 70.5566 51.1017C70.4741 50.9845 69.6795 50.025 68.7907 48.9696C61.732 40.587 57.1549 35.3068 55.9975 34.2112C55.0839 33.3464 54.0061 32.689 52.8293 32.2787C52.2173 32.0653 51.4381 31.8978 50.7786 31.8377C50.4462 31.8075 49.5126 31.8091 49.1769 31.8405ZM49.4233 35.8157C48.6165 35.914 48.0151 36.0902 47.3411 36.4259C45.7355 37.2256 44.5454 38.7224 44.1254 40.4703C43.9839 41.0592 43.9652 41.2426 43.9653 42.0376L43.9655 42.7689L42.4822 44.2821C41.6664 45.1143 41.0038 45.8003 41.0098 45.8065C41.0159 45.8126 41.2564 45.8192 41.5443 45.821L42.0678 45.8244L43.1203 44.7581C43.6993 44.1716 44.1772 43.6969 44.1824 43.703C44.1875 43.7092 44.2226 43.8103 44.2602 43.9276C44.5455 44.8168 45.0707 45.6711 45.7576 46.3628C46.5375 47.1484 47.589 47.7366 48.6441 47.9775C49.158 48.0948 49.4231 48.1237 49.99 48.124C50.583 48.1244 50.9987 48.0743 51.5005 47.9421C52.9512 47.56 54.2268 46.6309 55.0592 45.3502C55.2105 45.1175 55.5837 44.4069 55.5837 44.3517C55.5837 44.3389 55.3982 44.3294 55.1587 44.3299L54.7336 44.3309L54.5778 44.615C53.8953 45.8597 52.6616 46.8188 51.2994 47.1638C50.8271 47.2834 50.5203 47.3206 50.0024 47.3211C49.1456 47.3218 48.4799 47.1672 47.7107 46.7887C46.3146 46.1019 45.3059 44.8471 44.9096 43.3043L44.8358 43.0169L45.1517 42.6946L45.4676 42.3723L46.6754 42.3725L47.8832 42.3727L47.9248 42.548C47.9698 42.7381 48.1225 43.0694 48.2412 43.2346C48.5334 43.6409 48.9998 43.9694 49.4514 44.087L49.5834 44.1214L49.5958 44.984L49.6081 45.8465H50.6677C51.6821 45.8465 51.7357 45.8441 51.9245 45.7916C52.6132 45.5993 53.119 45.1425 53.3848 44.4728C53.4734 44.2493 53.5168 43.9952 53.5168 43.6986C53.5168 43.0853 53.289 42.5568 52.8413 42.1312L52.6587 41.9576L52.832 41.7949C53.2833 41.3716 53.5168 40.834 53.5168 40.2183C53.5168 39.8006 53.4395 39.5015 53.237 39.135C52.9767 38.6642 52.489 38.2827 51.9491 38.1277C51.7557 38.0722 51.7269 38.0711 50.446 38.0711C49.166 38.0711 49.136 38.0722 48.9428 38.1275C48.7053 38.1956 48.4462 38.3177 48.2358 38.4606C48.136 38.5284 47.4822 39.1728 46.408 40.2623L44.7356 41.9585L44.7507 41.6665C44.8082 40.5605 45.2101 39.4913 45.9002 38.6097C46.1158 38.3341 46.5681 37.8872 46.8416 37.6795C48.3922 36.5017 50.3957 36.2769 52.1696 37.0814C53.1935 37.5458 54.0821 38.391 54.6381 39.4293L54.7499 39.6381H55.1695H55.5891L55.5722 39.5698C55.5483 39.4729 55.3098 38.992 55.1624 38.7435C54.3589 37.3894 52.986 36.3617 51.4685 35.9782C50.9605 35.8498 50.7207 35.8211 50.0887 35.8128C49.7702 35.8086 49.4707 35.8099 49.4233 35.8157ZM49.1954 38.8989C49.104 38.9174 48.9543 38.9691 48.8627 39.0138C48.7109 39.088 48.5904 39.2026 47.4808 40.3276L46.2653 41.5602L47.0711 41.5586L47.877 41.5571L47.9201 41.3887C47.9753 41.1726 48.1141 40.8755 48.2507 40.6814C48.3744 40.5054 48.6183 40.2618 48.7907 40.1421C48.95 40.0314 49.2809 39.8758 49.4479 39.8329L49.5834 39.7981L49.5902 39.3293L49.5969 38.8605L49.4793 38.8628C49.4146 38.8641 49.2869 38.8803 49.1954 38.8989ZM50.4146 39.3293L50.4213 39.7981L50.5568 39.8329C50.7446 39.8811 51.0741 40.042 51.2552 40.174C51.411 40.2876 51.6614 40.5408 51.7609 40.6854L51.8169 40.7669L51.2669 40.7667C50.7328 40.7665 50.7135 40.7647 50.5938 40.7048C50.526 40.6709 50.4565 40.6427 50.4392 40.6423C50.4147 40.6417 50.4093 40.7416 50.4146 41.0993L50.4213 41.5571L51.0003 41.5551C51.3529 41.5539 51.6319 41.5414 51.7134 41.523C52.174 41.4194 52.5874 41.0027 52.6995 40.5286C52.7366 40.3715 52.7374 40.066 52.7011 39.9023C52.6226 39.5487 52.3313 39.1744 52.0107 39.0151C51.7539 38.8874 51.5762 38.8614 50.9567 38.8609L50.4079 38.8605L50.4146 39.3293ZM49.3823 40.7198C49.0847 40.8712 48.8366 41.1576 48.7115 41.494C48.6246 41.7277 48.621 42.1577 48.7041 42.4022C48.7791 42.6232 48.9142 42.8316 49.0861 42.9911C49.2174 43.113 49.4897 43.2754 49.5628 43.2754C49.59 43.2754 49.5958 43.0426 49.5958 41.9585C49.5958 40.9214 49.5892 40.6416 49.565 40.642C49.548 40.6423 49.4658 40.6774 49.3823 40.7198ZM50.3924 42.8238C50.3929 43.3378 50.3817 43.317 50.6024 43.2124C50.7303 43.1518 50.7504 43.15 51.2754 43.15H51.8166L51.7353 43.2652C51.602 43.4541 51.2904 43.739 51.0834 43.8613C50.925 43.9548 50.724 44.0348 50.4398 44.1177C50.4166 44.1245 50.409 44.2416 50.409 44.594V45.0614L51.0312 45.0504C51.5834 45.0408 51.6716 45.0335 51.8153 44.9856C52.2394 44.8443 52.603 44.4499 52.6987 44.0272C52.7127 43.9655 52.7241 43.8135 52.7241 43.6893C52.724 43.199 52.4654 42.7582 52.0437 42.5294C51.7853 42.3892 51.6731 42.3723 50.999 42.3723H50.3919L50.3924 42.8238ZM41.7249 51.5654C40.1897 51.7894 38.9703 52.9505 38.6259 54.5162C38.5761 54.7426 38.5687 54.8437 38.5688 55.2908C38.5689 55.8393 38.591 56.0043 38.7212 56.4322C38.809 56.7206 39.0434 57.1987 39.2252 57.4602C39.4079 57.723 39.7776 58.1105 40.0197 58.293C40.7612 58.8519 41.6682 59.1161 42.5548 59.0316C44.2019 58.8746 45.5033 57.6857 45.8536 56.0183C45.9334 55.6382 45.9334 54.943 45.8535 54.5634C45.7737 54.1844 45.6711 53.8906 45.5029 53.5592C44.9907 52.5505 44.0661 51.841 42.9549 51.6041C42.6292 51.5346 42.0587 51.5167 41.7249 51.5654ZM65.2556 51.57C63.988 51.7285 63.2024 52.3081 62.9493 53.2715C62.8786 53.5404 62.8727 54.0665 62.9374 54.3251C63.011 54.6196 63.1326 54.847 63.3291 55.0575C63.7414 55.4994 64.0809 55.6539 65.412 56.0054C66.2608 56.2295 66.4498 56.3031 66.6505 56.4878C66.791 56.617 66.845 56.7373 66.845 56.9211C66.845 57.3633 66.5035 57.6131 65.8145 57.6746C65.5118 57.7016 65.1301 57.6767 64.7999 57.6084C64.3033 57.5059 63.7093 57.2443 63.3404 56.9658C63.2323 56.8843 63.1382 56.8233 63.1313 56.8304C63.1127 56.8493 62.9496 58.2274 62.9573 58.2996C62.9656 58.3768 63.1356 58.4841 63.4937 58.6381C64.5959 59.1121 66.0668 59.1785 67.0014 58.7966C67.3644 58.6482 67.5771 58.5087 67.8335 58.2508C68.0979 57.9848 68.2334 57.767 68.3347 57.4447C68.5047 56.9036 68.4588 56.2749 68.2177 55.8433C68.0508 55.5444 67.6366 55.1968 67.2569 55.0367C67.0026 54.9296 66.4503 54.7583 65.9321 54.6258C64.7222 54.3165 64.481 54.1645 64.4802 53.7105C64.4792 53.2008 64.9314 52.9114 65.733 52.9087C66.2727 52.9068 66.8489 53.0526 67.3774 53.3248C67.523 53.3998 67.6498 53.4523 67.6594 53.4415C67.6743 53.4246 67.9159 52.8081 68.0907 52.3407L68.1479 52.1875L67.9652 52.081C67.573 51.8527 66.9863 51.6662 66.43 51.5932C66.1554 51.5571 65.4672 51.5435 65.2556 51.57ZM32.3959 55.2905V58.9281H35.0079C36.6733 58.9281 37.62 58.9193 37.62 58.9038C37.62 58.8905 37.6587 58.5579 37.7062 58.1648C37.7536 57.7716 37.7924 57.4383 37.7924 57.4239C37.7924 57.4062 37.1852 57.3979 35.8828 57.3979H33.9732L33.9669 54.532L33.9606 51.6661L33.1783 51.6595L32.3959 51.6529V55.2905ZM47.0967 51.7475C47.0716 51.9088 46.9345 53.08 46.9345 53.1332C46.9345 53.1831 46.9484 53.1837 48.0804 53.1837H49.2262V56.0559V58.9281H50.0024H50.7786V56.0559V53.1837H51.9344H53.0902L53.0785 53.0897C53.072 53.0379 53.0313 52.6965 52.988 52.3309L52.9093 51.6661L50.0103 51.6598L47.1114 51.6534L47.0967 51.7475ZM59.4962 53.9049L59.4894 56.1562L59.4234 56.3403C59.3278 56.6067 59.2169 56.7836 59.02 56.9839C58.6668 57.3432 58.1732 57.5149 57.684 57.4486C56.9434 57.3483 56.3776 56.7799 56.2757 56.0338C56.2584 55.9073 56.2491 55.1143 56.2491 53.7714V51.7038H55.4717H54.6942L54.7031 53.9551C54.7118 56.1698 54.7129 56.2104 54.7664 56.4508C54.916 57.123 55.1898 57.6312 55.6551 58.1005C56.0463 58.495 56.4126 58.7242 56.9144 58.8884C57.2791 59.0076 57.4905 59.0396 57.9001 59.0375C58.2928 59.0354 58.6146 58.9811 58.9408 58.8618C59.8798 58.5185 60.6167 57.7392 60.9168 56.7721C61.0519 56.3365 61.054 56.2938 61.0541 53.8798L61.0542 51.6536H60.2786H59.503L59.4962 53.9049ZM41.7844 53.0802C41.3299 53.1813 40.9556 53.3976 40.6351 53.7444C40.4214 53.9755 40.3188 54.1352 40.1947 54.4299C39.9838 54.9307 39.9789 55.5782 40.182 56.112C40.3688 56.6028 40.7726 57.0546 41.2418 57.2975C41.7902 57.5815 42.5184 57.6054 43.0949 57.3583C43.4834 57.1919 43.9116 56.814 44.1239 56.4502C44.5729 55.6807 44.543 54.7332 44.0462 53.9899C43.8516 53.6989 43.4606 53.3724 43.126 53.2218C42.7359 53.0462 42.1941 52.989 41.7844 53.0802Z"
    fill="#191919" />
</svg>