<svg width="100" height="100" viewBox="0 0 100 100" fill="none" xmlns="http://www.w3.org/2000/svg">
  <rect width="100" height="100" />
  <g clip-path="url(#clip0_1443_6801)">
    <path fill-rule="evenodd" clip-rule="evenodd"
      d="M50 23C35.0896 23 23 35.0896 23 50C23 64.9104 35.0896 77 50 77C64.9104 77 77 64.9104 77 50C77 35.0896 64.9104 23 50 23ZM27.901 37.3106C32.4022 29.5001 40.7014 24.6509 49.7039 24.5325L46.2095 47.6753L27.7603 62.5783C23.3257 54.7307 23.3776 45.1138 27.901 37.3106ZM50.1037 75.6008C41.079 75.6451 32.7058 70.9144 28.0861 63.1484L50.0075 54.0718L72.025 63.0076C67.4497 70.7961 59.1061 75.5785 50.1037 75.6008ZM53.6869 47.9789L50.3553 24.5325C59.3282 24.6732 67.5681 29.5001 72.0694 37.2663C76.5928 45.025 76.6891 54.5679 72.3507 62.4228L53.6869 47.9789Z"
      fill="#191919" />
  </g>
  <defs>
    <clipPath id="clip0_1443_6801">
      <rect width="54" height="54" fill="white" transform="translate(23 23)" />
    </clipPath>
  </defs>
</svg>