<svg width="100" height="100" viewBox="0 0 100 100" fill="none" xmlns="http://www.w3.org/2000/svg">
  <rect width="100" height="100" />
  <path fill-rule="evenodd" clip-rule="evenodd"
    d="M28.5289 36.0872C27.0257 36.3022 25.5307 36.7778 24.1508 37.4799C22.5692 38.2847 21.5748 39.0661 19.675 40.9973C17.6057 43.1008 10.7735 50.1987 10.7443 50.2753C10.7226 50.3323 13.1524 52.6892 13.8695 53.3067L14.1668 53.5626L16.1389 51.5292C17.2236 50.4109 18.4239 49.1627 18.8063 48.7557C21.3375 46.0614 24.6276 42.7824 25.1869 42.3968C26.0054 41.8326 27.1805 41.2733 28.091 41.0147C29.0102 40.7536 30.969 40.6545 31.9849 40.8179C34.9913 41.3011 37.6358 43.3174 38.9316 46.1143C39.3557 47.0297 39.5576 47.7499 39.7182 48.9201C39.8703 50.0283 39.8127 50.8651 39.4945 52.1685C38.7889 55.0585 36.4751 57.6231 33.6734 58.6206C32.4133 59.0692 32.1335 59.1129 30.5196 59.1124C28.9744 59.112 28.8656 59.097 27.587 58.7062C27.4465 58.6633 27.1185 58.9629 25.6979 60.4315C24.6629 61.5017 24.0089 62.2387 24.0541 62.2839C24.2738 62.5029 26.3151 63.2252 27.6577 63.559C31.5409 64.5244 35.7413 63.578 39.1789 60.9631C39.8862 60.425 41.198 59.1047 41.7477 58.3775C43.7148 55.7754 44.7471 52.4514 44.5829 49.2491C44.4078 45.8317 43.1225 42.8132 40.7922 40.3466C38.7244 38.1579 36.0362 36.7002 33.0773 36.1632C32.0955 35.985 29.5418 35.9423 28.5289 36.0872ZM13.1599 36.1386C10.3047 36.4721 7.42005 37.8559 5.21236 39.9511C3.46698 41.6075 2.02179 44.097 1.40319 46.513C0.725952 49.1581 0.914476 52.5374 1.87392 54.9518C3.61262 59.327 7.11665 62.4423 11.593 63.5927C12.5402 63.8361 13.1799 63.925 14.406 63.9835C17.9904 64.1546 21.4568 62.9917 24.1583 60.7119C24.6299 60.3139 32.0968 52.6646 34.0985 50.5289L34.903 49.6706L33.2356 48.0617C32.3185 47.1769 31.5435 46.4431 31.5133 46.4309C31.4831 46.4186 30.0548 47.8619 28.3391 49.6382C26.6235 51.4143 24.7315 53.3671 24.1349 53.9778C23.5381 54.5884 22.719 55.4395 22.3145 55.8692C20.5984 57.692 18.7725 58.7594 16.7473 59.124C15.9545 59.2666 14.2448 59.267 13.4485 59.1247C12.2326 58.9074 10.7352 58.2704 9.6962 57.5286C8.02422 56.3348 6.66851 54.3647 6.13255 52.3499C5.84423 51.2661 5.77694 49.4646 5.98526 48.4066C6.68534 44.851 9.20559 42.1081 12.7063 41.0918C13.4437 40.8777 13.5844 40.8644 15.0979 40.8649C16.5482 40.8653 16.7668 40.8842 17.3246 41.0568C17.6648 41.162 17.9988 41.2534 18.0668 41.2601C18.1348 41.2666 18.9584 40.4763 19.897 39.5039L21.6034 37.7358L21.0515 37.4764C19.8124 36.8941 17.7778 36.2949 16.502 36.1366C15.7057 36.0378 14.0146 36.0388 13.1599 36.1386ZM73.7334 41.6119C69.9979 42.0622 67.4456 43.6044 66.3222 46.09C65.8732 47.0832 65.7115 47.9494 65.7016 49.4136C65.6939 50.5535 65.7193 50.8338 65.892 51.5106C66.2733 53.005 66.8242 54.0393 67.7835 55.0618C68.7671 56.1104 70.3535 57.0131 71.8779 57.3914C72.15 57.4589 72.8737 57.5725 73.486 57.6436C76.3516 57.9768 79.0519 57.9288 81.135 57.5077L81.568 57.4201V55.8135C81.568 54.3573 81.5553 54.2117 81.4326 54.2587C81.0183 54.4172 78.7217 54.8034 77.692 54.8877C75.0225 55.1064 73.0009 54.7918 71.5926 53.9387C70.5031 53.2787 69.9641 52.3995 69.6068 50.6998C69.4044 49.7366 69.4038 49.0932 69.6048 48.2983C69.899 47.1341 70.7111 46.1108 71.8366 45.4861C73.2568 44.6978 77.2077 44.4547 79.3956 45.0209C79.7513 45.1129 80.3285 45.3108 80.6782 45.4606C81.0279 45.6105 81.3341 45.7131 81.3586 45.6887C81.383 45.6643 81.4031 44.9154 81.4031 44.0244V42.4046L81.0526 42.2764C80.7204 42.1551 79.4717 41.8699 78.8465 41.7727C78.3508 41.6956 75.4446 41.4771 75.0538 41.4875C74.8492 41.493 74.2551 41.549 73.7334 41.6119ZM49.3226 49.6502V57.5962H51.0125H52.7024L52.7238 53.0731L52.7451 48.55L53.7465 49.3929C54.2973 49.8566 55.1304 50.5505 55.5979 50.935C56.0653 51.3194 56.8442 51.967 57.3286 52.3741C57.8131 52.7812 58.6871 53.5102 59.2708 53.9943C62.6361 56.7845 63.588 57.5734 63.9402 57.864L64.332 58.1872V49.9558V41.7243H62.5176H60.7033V46.2474C60.7033 49.5833 60.6786 50.7705 60.6091 50.7705C60.5574 50.7705 60.3254 50.6109 60.0937 50.4159C59.6677 50.0572 59.0612 49.564 57.487 48.296C57.0108 47.9123 56.2314 47.2837 55.7552 46.8991C55.2789 46.5144 54.2027 45.6486 53.3636 44.9752C52.5245 44.3017 51.6895 43.6283 51.508 43.4788C50.9746 43.0393 49.6235 41.9392 49.4669 41.8169C49.3297 41.7097 49.3226 42.0944 49.3226 49.6502ZM83.2174 49.9858V57.9252H85.0319H86.8462V53.7311C86.8462 51.4243 86.861 49.5369 86.8792 49.5369C86.9361 49.5369 89.3236 51.9309 92.3164 54.9895L95.1896 57.9252L97.5944 57.9227L100 57.9202L99.1753 57.1296C98.7217 56.6947 97.2958 55.3173 96.0077 54.0687L93.6656 51.7985L94.2164 51.7369C96.1256 51.5237 97.9671 50.0686 98.4867 48.3622C98.6327 47.8844 98.6533 47.6494 98.6203 46.8374C98.556 45.2446 98.0917 44.2532 97.0756 43.5425C96.3837 43.0589 95.357 42.5949 94.3872 42.3278L93.5674 42.102L88.3925 42.0741L83.2174 42.0463V49.9858ZM20.8496 48.4478L15.0149 54.2666L16.7062 55.9516L18.3973 57.6365L24.2725 51.7778L30.1477 45.9192L28.4995 44.274C27.593 43.3692 26.8137 42.6289 26.7679 42.6289C26.7219 42.6289 24.0588 45.2474 20.8496 48.4478ZM86.8462 46.994V49.3854L89.7532 49.3537C92.4623 49.3243 92.6965 49.31 93.1963 49.1446C93.8767 48.9196 94.3748 48.5548 94.656 48.0768C94.8333 47.7746 94.8828 47.5723 94.9084 47.0362C94.938 46.4331 94.9191 46.3284 94.708 45.9185C94.4119 45.3453 93.9319 45.0146 93.0528 44.7781C92.4483 44.6153 92.2001 44.6027 89.6237 44.6027H86.8462V46.994Z"
    fill="#191919" />
</svg>