<svg width="100" height="100" viewBox="0 0 100 100" fill="none" xmlns="http://www.w3.org/2000/svg">
  <rect width="100" height="100" />
  <path
    d="M50.4618 28.0253C47.6285 28.038 44.8076 28.3922 42.0615 29.0627C40.7135 29.4043 39.3779 29.8597 38.0798 30.3784L38.005 30.4163C38.005 30.4163 38.1672 40.2208 38.2795 45.0788C38.3169 46.5083 38.5791 47.9126 39.0534 49.2789C39.6026 50.8097 40.3266 52.2645 41.2128 53.6182C42.5233 55.5791 44.2084 57.249 46.1681 58.5267C47.0418 59.0581 47.953 59.5262 48.8891 59.9183C49.2012 60.0575 49.4758 60.184 49.7129 60.2599C49.975 60.3738 50.2371 60.4497 50.4993 60.5129C50.7739 60.4497 51.036 60.3611 51.2856 60.2726C51.5477 60.184 51.8099 60.0575 52.1219 59.931C53.6946 59.3237 55.155 58.4508 56.4406 57.3502C57.7387 56.2749 58.8622 55.0098 59.7983 53.6055C60.6969 52.2392 61.4209 50.797 61.9577 49.2662C62.4444 47.8999 62.6941 46.4957 62.7315 45.0661C62.8439 40.1955 63.0061 30.4037 63.0061 30.4037L62.9187 30.3531C59.8482 29.1006 56.5905 28.3416 53.2827 28.1139C52.3466 28.038 51.4978 28 50.5492 28H50.4618V28.0253ZM50.4618 28.5187H50.5368C53.2577 28.544 55.9663 28.8856 58.6125 29.5434C59.9106 29.885 61.1838 30.2898 62.4444 30.8085L62.5193 30.8465L62.4694 33.9206H62.4319C59.4737 32.7061 56.3532 31.9597 53.1704 31.732C52.2967 31.6435 51.423 31.6055 50.5492 31.5802H50.4743C47.7532 31.6055 45.0447 31.9597 42.3986 32.6176C41.0879 32.9592 39.8023 33.3893 38.5541 33.908L38.5042 30.8085L38.5791 30.7832C41.5373 29.5687 44.6827 28.835 47.8656 28.6072C48.7143 28.544 49.5881 28.506 50.4618 28.5187ZM68.7352 28.8223C67.1251 28.8223 65.8145 30.1507 65.8145 31.7826C65.8145 33.4146 67.1251 34.7556 68.7352 34.7556C70.3454 34.7556 71.656 33.4273 71.656 31.7953C71.656 30.1633 70.3579 28.8223 68.7352 28.8223ZM49.5506 28.9868C49.4882 28.9994 49.4259 29.0247 49.3759 29.0627C49.3259 29.088 49.301 29.1386 49.2886 29.1892V29.6699L49.276 30.1254C49.276 30.176 49.3259 30.2392 49.3634 30.2645C49.4133 30.3151 49.4758 30.3151 49.5506 30.3278H50.1498L50.7739 30.3404L51.3979 30.3784C51.4479 30.3784 51.4729 30.4037 51.4853 30.4416V30.6946C51.4853 30.7453 51.4853 30.7832 51.4604 30.8338C51.4479 30.8718 51.4105 30.8844 51.3356 30.8844H50.7864L50.4868 30.8718H49.7005L49.2387 30.8971L49.2136 31.3019L49.8627 31.2766L50.362 31.2639H50.7613L51.1233 31.2766L51.373 31.2892H51.6476C51.71 31.2892 51.7849 31.264 51.8349 31.226C51.8848 31.188 51.9097 31.1374 51.9222 31.0742V30.6188L51.9347 30.1633C51.9222 30.1127 51.8972 30.0621 51.8598 30.0241C51.8223 29.9862 51.7724 29.9735 51.71 29.9609L51.1359 29.9356H49.7504L49.7129 29.9103C49.6879 29.885 49.6755 29.8597 49.6755 29.8344V29.6699C49.6755 29.6067 49.6755 29.5308 49.7005 29.4675C49.7129 29.4422 49.7504 29.4169 49.8128 29.4169L51.2107 29.4296H51.4105L51.8972 29.4422V29.0374L51.2482 29.0121L49.5506 28.9868ZM48.2151 29.05C47.9779 29.05 45.8186 29.2778 45.8186 29.2778V31.6055L46.0682 31.5802L46.3054 31.5423V30.8212L47.6534 30.6693C47.8282 30.6693 47.9905 30.7579 48.0653 30.9224C48.1277 31.0615 48.1777 31.2133 48.2276 31.3778L48.7518 31.3272C48.7394 31.1754 48.7019 31.0362 48.6395 30.9097C48.5646 30.7453 48.4397 30.5934 48.3024 30.4669C48.4273 30.391 48.5147 30.2645 48.5521 30.1254C48.5646 29.847 48.5521 29.5814 48.5271 29.3157C48.5147 29.1892 48.4523 29.0627 48.2151 29.05ZM53.058 29.0753C52.9457 29.0753 52.8209 29.1133 52.7335 29.1892C52.6461 29.2524 52.5838 29.3536 52.5713 29.4675V31.0868L52.5838 31.2007C52.5962 31.2513 52.6212 31.2766 52.6461 31.3019C52.6836 31.3525 52.7335 31.3778 52.8084 31.3905H52.9083L52.9332 31.4031H52.9582L54.0067 31.517L55.0926 31.6308L55.2549 31.6688V31.2386L55.0677 31.2007L54.9178 31.188H54.8929L53.9942 31.0742L53.0955 30.9603C53.083 30.9603 53.058 30.9603 53.0456 30.935L53.0331 30.8844V29.6446C53.0331 29.594 53.0331 29.5561 53.083 29.5308C53.1204 29.5055 53.1579 29.4928 53.1953 29.4802C53.395 29.4928 55.0677 29.7205 55.3173 29.7585V29.3031L53.8694 29.1386L53.058 29.0753ZM68.7228 29.2524C69.6714 29.2524 70.595 29.7964 71.0069 30.7326L71.0319 30.7832C71.2815 31.4158 71.2815 32.1242 71.0319 32.7568C70.7822 33.364 70.3204 33.8321 69.7214 34.0851C69.0972 34.3508 68.3983 34.3508 67.7741 34.0851C67.175 33.8447 66.7007 33.364 66.4636 32.7568C66.214 32.1242 66.214 31.4158 66.4636 30.7832C66.7007 30.176 67.175 29.7079 67.7741 29.4549C68.0862 29.341 68.4107 29.2651 68.7228 29.2524ZM55.7416 29.4422V29.5434C55.7416 29.6826 55.7416 29.8723 55.7167 30.0874C55.7167 30.3784 55.7042 30.6693 55.6917 30.9603L55.6793 31.1501V31.4284L55.6668 31.7067L55.7791 31.732L55.8415 31.7573L55.9539 31.77L56.1286 31.7953L56.1411 31.6308V31.4917L56.1535 31.3272V30.8718C56.1786 30.8718 56.2159 30.8718 56.2409 30.8844H56.2784L56.8151 30.9983L57.6389 31.1627L57.7013 31.188L57.7886 31.2133L57.8886 31.2386V31.6941L57.876 31.8459V32.023L57.8636 32.1116L58.0133 32.1495L58.1007 32.1748L58.1881 32.2001L58.3129 32.2381V32.0104C58.3378 31.732 58.3378 31.4411 58.3504 31.0995V29.9862L58.1756 29.9356L57.9385 29.885V30.2392L57.9135 30.4669V30.8465H57.901L57.7886 30.8212L57.7013 30.7959L57.6389 30.7832L57.5765 30.7579L57.0523 30.644L56.5155 30.5428H56.4656L56.3283 30.5049L56.191 30.4796H56.1535V29.5055L56.0413 29.4802H55.9663L55.8789 29.4549L55.7416 29.4422ZM44.8824 29.4675L42.7605 29.885C42.5983 29.9356 42.4235 30.0621 42.4235 30.2392V31.7953C42.4235 31.9597 42.6232 32.1748 42.7855 32.1369L44.9074 31.7194C45.1071 31.6688 45.2444 31.4917 45.2694 31.2892V29.7205C45.2319 29.5434 45.0696 29.4422 44.8824 29.4675C44.895 29.4675 44.895 29.4675 44.8824 29.4675ZM47.8532 29.5434C47.9155 29.5434 47.9655 29.5434 48.0154 29.594C48.0528 29.632 48.0653 29.6573 48.0653 29.7079V29.9735C48.0653 30.0494 48.0404 30.1254 47.9905 30.176C47.9404 30.2266 47.8656 30.2645 47.7907 30.2645L47.0418 30.3278L46.2929 30.391V29.6826L47.8532 29.5434ZM44.5204 29.9103C44.7202 29.885 44.7826 29.9989 44.7826 30.138V31.1374C44.795 31.2639 44.7077 31.3778 44.5829 31.4158L43.0726 31.7067C42.9228 31.7447 42.8354 31.6308 42.8354 31.4917V30.5049C42.8354 30.3025 42.9228 30.2139 43.1599 30.1633C43.1475 30.1633 44.5204 29.9103 44.5204 29.9103ZM68.7977 29.9988H67.5869V33.6929H68.0363V32.0356H68.7352L69.4468 33.6929H69.9335L69.1846 31.9724C69.4093 31.9218 69.634 31.8079 69.7838 31.6308C69.9211 31.4664 70.0084 31.264 70.0084 31.0362C70.0084 30.9097 69.9834 30.7832 69.9585 30.6693C69.9211 30.5428 69.8587 30.429 69.7713 30.3278C69.6714 30.2139 69.5466 30.138 69.3969 30.0748C69.2095 30.0241 69.0099 29.9988 68.7977 29.9988ZM59.0244 30.1127L58.9995 31.479L58.9744 32.4152L60.2226 32.7947C60.6221 32.9339 61.0714 33.073 61.5207 33.2375L61.5707 33.2501L61.7204 33.3007C61.7454 33.1363 61.7454 33.0098 61.7454 32.8453L61.6206 32.7947H61.5957L61.5707 32.7821C61.346 32.6935 61.0839 32.6176 60.8468 32.529L60.0853 32.276L59.9231 32.2254L59.7483 32.1748L59.5611 32.1242L59.4613 32.0863V31.8585L59.4737 31.6308L59.7233 31.6941L60.647 31.9724L61.5207 32.276L61.6081 32.3013L61.7579 32.3519V31.8712L61.6206 31.8206L61.5582 31.8079C61.0214 31.6055 60.4848 31.4284 59.9356 31.2766L59.8107 31.2386L59.6734 31.2007L59.611 31.1754L59.4986 31.1374V30.6693L59.661 30.7199L59.8606 30.7706L60.0354 30.8212H60.0479C60.5347 30.9603 61.0214 31.1121 61.4958 31.2892L61.6081 31.3398L61.7704 31.4031V30.9856L61.658 30.935L61.5582 30.8971H61.5457C60.7095 30.6187 59.8732 30.3404 59.0244 30.1127ZM41.6622 30.2013H41.5123C40.6387 30.4796 39.7774 30.7706 38.9161 31.0995L38.9411 32.2634V33.3513L39.5402 33.1489V32.3519L41.7744 31.6435C41.8244 31.6308 41.8618 31.5929 41.8868 31.5549C41.9242 31.5296 41.9368 31.479 41.9492 31.4411C41.9492 31.4284 41.9617 31.4031 41.9617 31.3905L41.9368 30.4669C41.9242 30.3784 41.8743 30.2898 41.7869 30.2392C41.7495 30.2139 41.7121 30.2013 41.6622 30.2013ZM68.0363 30.4037H68.7103C68.91 30.4037 69.0972 30.4416 69.272 30.5428C69.4342 30.6567 69.5091 30.8465 69.4967 31.0362C69.4967 31.1248 69.4841 31.2007 69.4592 31.2892C69.4342 31.3651 69.3969 31.4284 69.3344 31.4664C69.2596 31.5296 69.1596 31.5676 69.0598 31.5929C68.91 31.6435 68.7727 31.6435 68.6105 31.6435H68.0114L68.0363 30.4037ZM41.2252 30.682H41.2502C41.3002 30.682 41.3376 30.6946 41.3625 30.7326C41.4 30.7706 41.4125 30.7959 41.4125 30.8465L41.4375 31.1754C41.425 31.2386 41.4 31.2892 41.3625 31.3272C41.3251 31.3651 41.2752 31.3905 41.2252 31.4031L39.5028 31.9724L39.4903 31.2892C39.4903 31.2892 40.1643 31.0109 40.4389 30.9097C40.7135 30.8212 41.2252 30.682 41.2252 30.682ZM50.1997 32.023V38.2726H46.2554C46.2055 38.2726 46.2304 38.2473 46.2805 38.2093C46.555 37.9943 46.8796 37.8551 47.229 37.7918C47.2665 37.7918 47.2789 37.7792 47.229 37.7286C46.892 37.387 46.4178 37.2731 45.9808 37.4376C45.5939 37.5768 45.2819 37.8677 45.1446 38.2599C45.1446 38.2979 45.1195 38.3105 45.0946 38.3105L44.458 38.3358C44.4206 38.3358 44.4081 38.2852 44.4081 38.2599C44.458 37.9816 44.6328 37.7539 44.8699 37.6147C45.0822 37.4629 45.3193 37.387 45.5689 37.3617H45.5814C45.6064 37.3491 45.6064 37.3111 45.5939 37.2858C45.5565 37.2352 45.5066 37.1972 45.4441 37.1593C45.2444 37.0454 45.0073 37.0075 44.7701 37.0454C44.0961 37.1213 43.5594 37.6653 43.5095 38.3611C43.4969 38.437 43.5095 38.4623 43.447 38.4876C43.2848 38.5382 43.0102 38.5762 42.8604 38.6015C42.8354 38.6141 42.7979 38.5509 42.8105 38.5256C42.8604 38.2599 42.9727 38.0322 43.135 37.8171C43.2473 37.6527 43.4095 37.5262 43.5843 37.425C43.6342 37.4123 43.6468 37.3743 43.6342 37.349C43.2972 37.0454 42.5983 37.3617 42.3112 37.678C42.0491 38.0196 41.9242 38.475 41.9492 38.9051V38.9684L41.4125 39.1581L41.3875 39.1075C41.3376 38.7786 41.4125 38.4623 41.5872 38.184C41.6621 38.0449 41.7744 37.931 41.9117 37.8424V37.7918C41.7495 37.5894 41.1504 37.7286 40.9632 37.9057C40.5387 38.3358 40.5762 38.7407 40.5513 39.3985C40.5513 39.4365 40.5013 39.5503 40.4763 39.563C40.4014 39.6136 40.3141 39.6515 40.2267 39.6642H40.1893L40.1394 39.5503C39.9895 39.2973 39.6775 39.2087 39.4278 39.3606C39.4029 39.3606 39.3905 39.3859 39.3779 39.3985C39.1782 39.5756 39.1532 39.8792 39.328 40.0817C39.353 40.107 39.3655 40.1323 39.328 40.1323C39.0285 40.2208 38.8662 40.5371 38.9535 40.8407C38.9535 40.8534 38.9535 40.8534 38.966 40.866C39.0285 41.0305 39.1907 41.1443 39.3655 41.1443C39.5402 41.1443 39.715 41.0937 39.8523 40.9925C39.8772 40.9672 39.9022 40.9799 39.9271 40.9925C40.0769 41.2455 40.4014 41.3214 40.6261 41.1696C40.8508 41.0178 40.9382 40.7901 40.7884 40.4106C40.776 40.3853 40.8133 40.36 40.8383 40.3347C42.1114 39.5883 43.5594 39.1834 45.0323 39.1455C45.2444 39.1708 45.4441 39.2087 45.6439 39.2973H45.6688V40.575L45.6313 40.613C45.3568 40.7775 45.1446 41.0431 45.0447 41.3594C45.0447 41.3847 45.0447 41.3847 44.9948 41.3847L44.2084 41.4733C44.1834 41.4733 44.1585 41.4353 44.1585 41.4227C44.3457 40.9293 44.6827 40.4865 45.1321 40.1955C45.1446 40.1702 45.1446 40.1323 45.1321 40.107C45.0696 40.0437 44.9948 39.9931 44.9074 39.9678C44.458 39.9298 44.0087 40.1196 43.7216 40.4612C43.447 40.8028 43.3097 41.2076 43.3097 41.6377C43.3097 41.6757 43.3097 41.7136 43.2722 41.7263L42.7605 41.8781C42.7356 41.8781 42.7106 41.8528 42.7106 41.8275C42.6232 41.2708 42.8853 40.7142 43.3596 40.4359C43.4221 40.3853 43.3097 40.2967 43.2223 40.2967C42.7106 40.2714 42.2238 40.5497 41.9867 41.0052C41.8743 41.3468 41.8618 41.7263 41.9492 42.0805C41.9492 42.1185 41.9741 42.1691 41.9492 42.1691L41.4998 42.3209C41.4749 42.3335 41.4499 42.3209 41.4499 42.2703C41.3875 42.0552 41.375 41.8275 41.425 41.6124C41.4749 41.3594 41.5997 41.1317 41.7869 40.9546V40.904C41.6247 40.8281 41.4375 40.8154 41.2751 40.866C41.0005 40.9419 40.7759 41.119 40.6511 41.3721C40.4264 41.7769 40.4888 42.1691 40.7135 42.7384C40.7135 42.7763 40.7385 42.8143 40.7135 42.8396L40.5387 42.9787C40.5263 42.9914 40.5013 42.9787 40.4888 42.9534C40.414 42.8396 40.3266 42.6751 40.2142 42.6245C40.027 42.5359 39.8148 42.5486 39.6401 42.6751C39.4778 42.8269 39.4154 43.0546 39.4778 43.2697L39.6026 43.4721C39.6151 43.4848 39.6026 43.5227 39.5901 43.5227C39.5152 43.586 39.4029 43.6366 39.328 43.7125C39.1907 43.9022 39.1907 44.1553 39.328 44.345C39.4528 44.5474 39.7024 44.6233 39.9271 44.5095C40.0395 44.4589 40.1394 44.4083 40.2392 44.345C40.2767 44.3197 40.2891 44.2818 40.3266 44.3071C40.4014 44.3956 40.5013 44.4715 40.6261 44.5095C40.7884 44.5601 40.9632 44.5348 41.1005 44.4336C41.2627 44.345 41.3625 44.1679 41.3251 43.9781C41.2877 43.8516 41.2128 43.7251 41.1378 43.6113C41.0879 43.5607 41.0879 43.5607 41.1378 43.5354C41.8368 43.1305 42.5983 42.8016 43.3596 42.5612C44.096 42.3335 44.8575 42.2323 45.6188 42.2829H45.6688V44.927H38.7289L38.5416 34.3255L38.5666 34.3128C41.5248 33.0983 44.6577 32.3646 47.8406 32.1495C48.652 32.0736 49.4009 32.0356 50.1997 32.023ZM46.1805 33.1363C45.8186 33.111 45.4691 33.2248 45.157 33.4399C44.7826 33.7056 44.5454 34.4773 44.483 34.7683C44.483 34.7936 44.4705 34.8189 44.4331 34.8189C44.1211 34.8568 43.8214 34.9074 43.5095 34.9833C43.5344 34.6797 43.6592 34.4014 43.8465 34.1863C44.0587 33.9839 44.2833 33.8068 44.5204 33.6423C44.533 33.6297 44.5205 33.5917 44.4955 33.5791C44.1585 33.4399 43.7715 33.4399 43.4345 33.5917C42.9477 33.8068 42.6232 34.2496 42.5359 34.7683C42.4984 34.9454 42.4859 35.1478 42.4859 35.3376L42.436 35.3629L41.4874 35.6791L41.4375 35.6665C41.425 35.3502 41.4998 35.0466 41.6622 34.7683C41.8244 34.5026 42.124 34.3634 42.3361 34.1357C42.3611 34.1231 42.386 34.0851 42.3611 34.0725C41.8119 33.8447 41.3002 34.0725 40.8632 34.5785C40.5637 35.0339 40.4763 35.5779 40.5886 36.1093C40.6012 36.1599 40.5886 36.1978 40.5637 36.2231L40.2641 36.337C40.2392 36.337 40.2142 36.337 40.2142 36.3117C40.0769 35.9068 39.6151 35.9827 39.4029 36.1093C39.1782 36.2484 39.0909 36.5394 39.2282 36.7671C39.2282 36.8051 39.2282 36.8177 39.2031 36.8304C38.9161 36.9822 38.7913 37.3237 38.9286 37.6274C39.0409 37.8298 39.2781 37.9057 39.4903 37.8171L39.8273 37.6527H39.8647C39.8647 37.6527 39.8647 37.678 39.8897 37.678C40.0644 37.9057 40.389 37.9563 40.6261 37.7539C40.776 37.64 40.8383 37.6274 40.9007 37.425C40.9257 37.2732 40.8758 37.134 40.7884 37.0201C40.7634 37.0201 40.7884 36.9695 40.7884 36.9695C42.5359 36.0586 44.4456 35.5653 46.4052 35.5147C47.1042 35.54 47.7907 35.793 48.3274 36.2611C48.3524 36.2864 48.3774 36.3117 48.4148 36.3117C48.4523 36.299 48.4647 36.2611 48.4772 36.2358C48.577 35.9068 48.4648 35.54 48.2026 35.3123C47.9779 35.0845 47.7033 34.9201 47.3913 34.8442C47.3663 34.8442 47.3663 34.7936 47.3788 34.7936C47.4912 34.6671 47.6534 34.5658 47.8282 34.5026C48.0903 34.452 48.3524 34.4393 48.6395 34.4393C48.652 34.4393 48.6894 34.414 48.6894 34.3887C48.577 34.0851 48.3024 33.87 47.9905 33.8574C47.6784 33.8194 47.3539 33.87 47.0668 33.9966C46.7672 34.161 46.53 34.4267 46.3927 34.743L46.3553 34.7683H45.544C45.5315 34.7683 45.5065 34.7683 45.5065 34.743C45.544 34.4646 45.6563 34.2369 45.8435 34.0345C46.1181 33.8068 46.4302 33.617 46.7547 33.5158C46.7922 33.5032 46.8047 33.4652 46.8047 33.4399C46.7297 33.3387 46.6423 33.2628 46.53 33.2122C46.4427 33.1616 46.3054 33.1363 46.1805 33.1363ZM50.6116 35.3123H62.4319C62.4319 36.2484 62.4069 37.2352 62.382 38.2852H50.624L50.6116 35.3123ZM46.0558 38.6901H54.9677C54.9927 38.6901 54.9927 38.7027 54.9927 38.7154V45.6734C54.9927 46.0403 54.9304 46.3818 54.8055 46.7108C54.4435 47.6469 53.757 48.406 52.8833 48.8614C52.1843 49.2789 51.373 49.5193 50.5617 49.5319C49.4383 49.5193 48.3774 49.1018 47.5411 48.368C46.6299 47.6596 46.0931 46.5842 46.0682 45.4204V38.728C46.0432 38.728 46.0558 38.6901 46.0558 38.6901ZM62.3696 38.7154L62.3195 41.3214H62.2197H62.3321C62.3446 41.3214 62.3696 38.7154 62.3696 38.7154ZM52.1095 39.2846C52.0595 39.2973 51.9971 39.3352 51.9846 39.3985L51.6726 40.3726L51.685 40.4485L51.7475 40.4865C51.7974 40.4865 51.8223 40.4865 51.8349 40.4359L51.8848 40.2714H52.3341L52.3841 40.4359C52.3841 40.4738 52.434 40.4865 52.4589 40.4865C52.4839 40.4865 52.5214 40.4738 52.5338 40.4485C52.5463 40.4232 52.5463 40.3853 52.5338 40.36L52.1969 39.3859C52.1969 39.3353 52.1468 39.2973 52.1095 39.2846ZM49.3135 39.3099C49.2636 39.3099 49.2261 39.3479 49.2261 39.3859C49.2261 39.4238 49.2636 39.4618 49.3135 39.4618H49.4632V40.3979C49.4632 40.4485 49.5132 40.4738 49.5506 40.4738C49.5881 40.4738 49.6256 40.4359 49.6256 40.3979V39.4618H49.7878C49.8252 39.4618 49.8627 39.4238 49.8627 39.3859C49.8627 39.3479 49.8252 39.3099 49.7878 39.3099H49.3135ZM50.0499 39.3099C50.0125 39.3099 49.975 39.3479 49.975 39.3859C49.975 39.4238 50.0125 39.4618 50.0499 39.4618H50.2122V40.3979C50.2122 40.4485 50.2622 40.4738 50.2995 40.4738C50.337 40.4738 50.3744 40.4359 50.3744 40.3979V39.4618H50.5368C50.5741 39.4618 50.6116 39.4238 50.6116 39.3859C50.6116 39.3479 50.5741 39.3099 50.5368 39.3099H50.0499ZM51.1233 39.3099C50.9986 39.2973 50.8862 39.3732 50.8363 39.4744C50.7613 39.6009 50.724 39.7401 50.724 39.8792C50.724 40.0311 50.7613 40.1576 50.8238 40.2967C50.8737 40.4106 50.986 40.4865 51.1233 40.4865C51.1983 40.4865 51.2606 40.4612 51.3231 40.4359C51.423 40.36 51.4853 40.2461 51.5103 40.1196C51.5228 40.0564 51.5352 39.9804 51.5352 39.9172C51.5352 39.8666 51.5103 39.8033 51.423 39.8033H51.1733C51.1109 39.8033 51.0984 39.8286 51.0984 39.8539C51.0984 39.9045 51.1233 39.9298 51.1608 39.9298H51.348V39.9804C51.3605 40.1323 51.2606 40.2714 51.1233 40.3094C51.036 40.3094 50.9487 40.2461 50.9237 40.1576C50.8737 40.069 50.8613 39.9678 50.8613 39.8666C50.8613 39.7527 50.8986 39.6515 50.9361 39.563C50.9611 39.4871 51.036 39.4365 51.1109 39.4238C51.1858 39.4238 51.2482 39.4744 51.2856 39.5377C51.2981 39.5756 51.3356 39.5883 51.373 39.5756C51.4104 39.5756 51.423 39.525 51.423 39.4997C51.3979 39.3732 51.2606 39.2973 51.1233 39.3099ZM53.7195 39.3099C53.6696 39.3099 53.6323 39.3479 53.6323 39.3859C53.6323 39.4238 53.6696 39.4618 53.7195 39.4618H53.8819V40.3979C53.8819 40.4485 53.9193 40.4738 53.9568 40.4738C53.9942 40.4738 54.0316 40.4359 54.0316 40.3979V39.4618H54.1939C54.2439 39.4618 54.2688 39.4238 54.2688 39.3859C54.2688 39.3479 54.2314 39.3099 54.1939 39.3099H53.7195ZM47.1167 39.3099C47.0293 39.2973 46.9295 39.3226 46.8546 39.3732C46.7796 39.4238 46.7297 39.5124 46.7297 39.6009C46.7173 39.6895 46.7547 39.7907 46.8171 39.8666C46.867 39.9298 46.9544 39.9678 47.0418 39.9678C47.1541 39.9678 47.2415 40.0058 47.3039 40.0943C47.3289 40.1449 47.3039 40.2082 47.2665 40.2588C47.2166 40.3094 47.1416 40.3347 47.0668 40.322C46.9919 40.322 46.9169 40.2841 46.867 40.2335C46.8421 40.1955 46.7922 40.1829 46.7547 40.1955C46.7048 40.2208 46.7048 40.2841 46.7048 40.3094C46.7796 40.4232 46.9045 40.4991 47.0543 40.4865C47.1791 40.4991 47.3039 40.4612 47.3913 40.3726C47.4537 40.3094 47.4786 40.2208 47.4786 40.1323C47.4912 40.0437 47.4413 39.9425 47.3663 39.8919C47.254 39.8286 47.1292 39.7907 47.0043 39.778C46.9295 39.7654 46.8796 39.6895 46.892 39.6136C46.9169 39.5124 47.0043 39.4618 47.0793 39.4744C47.1541 39.4744 47.2415 39.4997 47.2914 39.563C47.3414 39.6136 47.4162 39.563 47.4162 39.5124C47.4162 39.4618 47.3414 39.3099 47.1167 39.3099ZM47.6409 39.3099C47.6035 39.3099 47.566 39.3479 47.566 39.3859V39.3985C47.566 39.4365 47.6035 39.4744 47.6409 39.4744H47.8032V40.3979C47.8032 40.4485 47.8406 40.4865 47.8781 40.4865C47.928 40.4865 47.9655 40.4359 47.9655 40.3979V39.4744H48.1277C48.1651 39.4744 48.2026 39.4365 48.2026 39.3985C48.2026 39.3606 48.1777 39.3099 48.1402 39.3099H48.1277H47.6409ZM52.8209 39.3099L52.7585 39.3479C52.746 39.3606 52.7335 39.3859 52.7335 39.3985V40.3853C52.7335 40.4359 52.7585 40.4612 52.7959 40.4738H52.8084C52.8584 40.4738 52.8958 40.4359 52.8958 40.3979V40.0817H53.058L53.3077 40.4232C53.3326 40.4612 53.3577 40.4738 53.3826 40.4738C53.4325 40.4738 53.4575 40.4359 53.4575 40.4106C53.4575 40.3853 53.445 40.3473 53.42 40.3347L53.2204 40.0564H53.2453C53.3077 40.0311 53.3577 39.9931 53.4076 39.9425C53.4824 39.8792 53.5199 39.778 53.5074 39.6768C53.5074 39.563 53.445 39.4618 53.3577 39.3985C53.2703 39.3479 53.1829 39.3226 53.083 39.3226C53.0705 39.3099 52.8209 39.3099 52.8209 39.3099ZM48.4148 39.3099C48.3774 39.3099 48.3399 39.3479 48.3399 39.3859V39.3985V39.9931C48.3399 40.107 48.3649 40.2461 48.4148 40.3473C48.4897 40.4485 48.6021 40.4991 48.7268 40.4865C48.8392 40.5118 48.9515 40.4485 49.0264 40.3473C49.0763 40.2335 49.1138 40.1196 49.1013 39.9931V39.3985C49.1013 39.3606 49.0639 39.3226 49.0264 39.3226H49.014C48.9765 39.3226 48.939 39.3606 48.939 39.3985V40.0311C48.939 40.107 48.9266 40.1829 48.8891 40.2461C48.8517 40.2967 48.7893 40.322 48.7268 40.3094C48.6644 40.322 48.6021 40.2967 48.5646 40.2461C48.5271 40.1829 48.5022 40.107 48.5147 40.0311V39.3985C48.5022 39.3479 48.4648 39.3099 48.4148 39.3099ZM52.8833 39.4744H53.0955C53.1579 39.4744 53.2204 39.4871 53.2577 39.525C53.3077 39.5756 53.3202 39.6136 53.3202 39.6768C53.3202 39.816 53.2078 39.9172 53.0705 39.9172H52.8958L52.8833 39.4744ZM52.0969 39.4871L52.2967 40.1196H51.9222L52.0969 39.4871ZM50.5368 40.866C50.4244 40.904 50.3121 40.9293 50.2247 40.9925C50.1498 41.0558 50.0874 41.1317 50.0375 41.2202C50.025 41.2329 50.0125 41.2455 49.9875 41.2582L49.9251 41.2708L49.6879 41.3847C49.6131 41.4227 49.5382 41.4733 49.4632 41.4986C49.4009 41.5239 49.3509 41.5365 49.2886 41.5492C49.1513 41.5239 49.0014 41.5365 48.9515 41.6883C48.9515 41.7263 48.964 41.7516 49.0014 41.7642C49.0264 41.7769 49.0389 41.7895 49.0639 41.8022L49.1387 41.8401C49.1637 41.8401 49.1762 41.8401 49.1886 41.8654L49.2012 41.8907V41.9034C49.2012 41.9287 49.1637 41.954 49.1513 41.954C49.0763 41.9666 49.014 41.954 48.9515 41.916H48.939C48.914 41.8907 48.8767 41.8907 48.8517 41.916C48.7143 42.0299 48.577 42.1438 48.4273 42.2323L48.3774 42.2829L48.3649 42.3082V42.3462C48.3649 42.3841 48.3274 42.3968 48.3024 42.3968C48.2775 42.4094 48.2525 42.4347 48.2525 42.46V42.5233C48.265 42.5739 48.3024 42.5992 48.3649 42.5992H48.3898L48.5022 42.5486H48.5521L48.5646 42.5612V42.6118C48.5521 42.6371 48.5396 42.6625 48.5147 42.6751C48.4897 42.7131 48.4772 42.7384 48.5147 42.7637C48.5646 42.8143 48.6395 42.8016 48.6769 42.751C48.7019 42.7257 48.7144 42.6878 48.7268 42.6624C48.7394 42.6245 48.7643 42.5992 48.8017 42.5992C48.8641 42.5739 48.939 42.5612 49.0014 42.5486C49.0513 42.5486 49.1013 42.5486 49.1387 42.5865L49.1762 42.6245V42.6498C49.1637 42.7004 49.1513 42.7384 49.1263 42.789L49.0888 42.9028L49.0513 43.004L49.0014 43.0546L48.8017 43.2191C48.6894 43.3203 48.6145 43.4215 48.5271 43.5607C48.5022 43.5986 48.4897 43.6366 48.4772 43.6745C48.4523 43.7884 48.4273 43.9275 48.315 43.839C48.2026 43.7884 48.0903 43.6998 47.9779 43.6113C47.9404 43.586 47.8905 43.548 47.8656 43.4974C47.7532 43.333 47.6159 43.4974 47.5535 43.6113C47.4287 43.8263 47.2789 44.0288 47.1167 44.2185C47.1042 44.2691 47.0793 44.3071 47.0543 44.345C47.0168 44.3956 46.9919 44.4589 47.0043 44.5221C47.0043 44.636 46.9669 44.7372 46.9169 44.8258C46.867 44.8764 46.8421 44.9396 46.8421 45.0029V45.18C46.8421 45.2306 46.867 45.2559 46.9045 45.2559H46.942C47.0293 45.2179 47.1167 45.1673 47.2041 45.0914L47.2415 45.0661C47.2665 45.0408 47.2665 45.0029 47.254 44.9776L47.2415 44.9523L47.2166 44.927C47.2041 44.9143 47.1791 44.9017 47.1666 44.8764V44.8005L47.1916 44.7246C47.1916 44.6993 47.2041 44.6613 47.229 44.6486L47.3663 44.5348C47.4162 44.4842 47.4413 44.3956 47.4162 44.3324V44.2438C47.4162 44.2059 47.4287 44.1932 47.4537 44.1553L47.5411 44.0414C47.5786 43.9781 47.6409 43.9275 47.7033 43.9022C47.8031 43.9022 47.8905 43.9275 47.9655 43.9908C48.0278 44.0794 48.0778 44.1932 48.1152 44.3071C48.1402 44.4083 48.1777 44.4968 48.2276 44.5854C48.2775 44.636 48.3399 44.674 48.4023 44.636L48.4397 44.6107L48.4648 44.598C48.4897 44.598 48.5147 44.598 48.5271 44.636L48.6395 44.7499C48.6894 44.7878 48.652 44.8131 48.6021 44.8131H48.4273C48.2401 44.8764 48.0278 44.9143 47.8282 44.9143H47.7907C47.7532 44.9143 47.7408 44.9396 47.7408 44.9649L47.7283 44.9902L47.7033 45.0408C47.6909 45.0914 47.6909 45.142 47.7033 45.1926C47.7782 45.471 47.8157 45.7619 47.7532 46.0529C47.7283 46.1668 47.7532 46.2806 47.8282 46.3565L47.9155 46.4071L47.9655 46.4324C47.9905 46.4704 48.0029 46.4957 48.0029 46.5463C48.0029 46.5969 48.0404 46.6601 48.0653 46.6981C48.1152 46.7614 48.1777 46.812 48.2525 46.8626H48.2775C48.3274 46.8879 48.3649 46.8626 48.3898 46.8246C48.4273 46.7361 48.4523 46.6348 48.4397 46.5336C48.4397 46.483 48.4023 46.4451 48.3524 46.4324L48.3024 46.4451L48.265 46.4577H48.2151C48.1901 46.4451 48.1777 46.4198 48.1651 46.3945C48.1402 46.3312 48.1402 46.268 48.1527 46.2047V46.1668L48.1651 46.0782C48.1651 46.0529 48.1651 46.0276 48.1402 46.0023C48.1152 45.9517 48.1152 45.939 48.0778 45.9264C48.0528 45.9264 48.0404 45.9137 48.0278 45.8884C48.0029 45.8631 48.0029 45.8505 48.0154 45.8378C48.0404 45.6987 48.0404 45.5595 48.0278 45.4204C48.0278 45.3698 48.0278 45.3318 48.0528 45.3065C48.1527 45.2179 48.315 45.2812 48.4023 45.3191C48.5396 45.3698 48.6644 45.3951 48.7893 45.4204C49.014 45.4457 49.2387 45.3824 49.4133 45.2559C49.4259 45.2432 49.4259 45.2306 49.4508 45.2432L49.638 45.3824C49.8003 45.4963 49.975 45.5722 50.1498 45.6354C50.3995 45.6607 50.6366 45.6607 50.8986 45.6228C50.9487 45.6228 51.0235 45.6354 51.0734 45.6607L51.0984 45.6987C51.0984 45.7999 51.0485 45.8758 51.0485 45.977C51.0485 46.0276 51.0734 46.0782 51.0984 46.1288L51.1483 46.268L51.1858 46.3186C51.3231 46.4957 51.3356 46.7614 51.1858 46.9385C51.0984 47.027 50.9986 47.1156 50.8862 47.1915C50.7864 47.2674 50.6615 47.318 50.5368 47.3306C50.4494 47.3306 50.3744 47.3686 50.3121 47.4319C50.2371 47.5078 50.1622 47.571 50.0749 47.609C50.0375 47.6216 50 47.6596 50 47.6975C49.9501 47.7987 49.9251 47.8999 49.9002 48.0138C49.8877 48.0644 49.9376 48.0897 49.9875 48.0897C50.0749 48.0771 50.1622 48.0391 50.2622 48.0138C50.3121 48.0138 50.337 47.9505 50.3245 47.8999L50.3121 47.8873L50.2746 47.8114V47.7481C50.2995 47.7355 50.3121 47.7102 50.337 47.6975C50.362 47.6722 50.3995 47.6722 50.4244 47.6722H50.4743C50.5991 47.7228 50.7489 47.6722 50.7988 47.5457C50.8238 47.5078 50.8487 47.4698 50.8737 47.4445C51.1109 47.2927 51.3605 47.1662 51.6351 47.065C51.6601 47.065 51.685 47.0397 51.685 47.0144V46.6222C51.685 46.5589 51.71 46.4451 51.7974 46.4451C51.8349 46.4451 51.8598 46.4704 51.8722 46.4957C51.9596 46.6095 52.072 46.6855 52.2093 46.7361L52.3216 46.7867C52.4214 46.8373 52.4839 46.9258 52.4964 47.0397C52.5088 47.1029 52.4964 47.1535 52.4589 47.2041L52.1969 47.5837C52.1594 47.6469 52.1095 47.7102 52.0345 47.7481C51.8598 47.862 51.71 48.0011 51.5603 48.153L51.4354 48.5451C51.4104 48.621 51.4604 48.6463 51.5228 48.621C51.6351 48.5957 51.7225 48.5578 51.8099 48.5072L51.8598 48.4692C51.8723 48.4566 51.8722 48.4313 51.8722 48.4186C51.8722 48.3807 51.8473 48.3427 51.8223 48.3174C51.7974 48.2795 51.7974 48.2289 51.8223 48.1909C51.8349 48.1656 51.8598 48.153 51.8722 48.1403L52.0969 48.0771C52.1843 48.0644 52.2717 48.0265 52.3466 47.9632C52.3591 47.9379 52.3715 47.9252 52.3841 47.8999V47.8746C52.4714 47.5837 52.6711 47.3053 52.9457 47.1662C52.9832 47.1535 52.9957 47.1156 52.9957 47.0776L52.9832 46.9638L52.7834 46.6475C52.7211 46.5589 52.6836 46.4704 52.6711 46.3692C52.6711 46.2553 52.6961 46.1541 52.746 46.0656L52.7959 45.9896C52.8334 45.9137 52.9083 45.8758 52.9582 45.7999C53.0081 45.7366 53.0705 45.6607 53.108 45.5722L53.2204 45.2685C53.2453 45.18 53.2078 45.0914 53.2078 45.0029C53.2078 44.9649 53.2328 44.9523 53.2453 44.9143C53.2827 44.8637 53.3326 44.8258 53.395 44.8005C53.4575 44.7878 53.5199 44.7878 53.5698 44.8131L53.8569 44.927C53.9069 44.927 53.9692 44.927 54.0192 44.9017C54.0691 44.889 54.1315 44.8511 54.1814 44.8131V44.7625H54.0441C53.9942 44.7499 53.9568 44.7246 53.9318 44.6866C53.9068 44.6486 53.8819 44.6107 53.8819 44.5727L53.9193 44.5095C53.9942 44.4589 54.0566 44.3956 54.0941 44.3324C54.1315 44.2565 54.144 44.1806 54.144 44.1047H54.1065C54.0566 44.1553 54.0441 44.2185 53.9817 44.2565C53.9318 44.2944 53.8694 44.3071 53.8195 44.3071C53.782 44.3071 53.7446 44.2944 53.7071 44.2565C53.6822 44.2185 53.6696 44.1806 53.6572 44.1426C53.6447 44.092 53.7071 44.0794 53.7321 44.0667C53.8069 44.0667 53.8819 44.0414 53.9568 44.0161C54.0067 43.9908 54.0316 43.9528 54.0566 43.9022C54.0691 43.8643 54.0815 43.8263 54.0815 43.7884C54.0815 43.7631 54.0815 43.7504 54.0691 43.7631C54.0192 43.7631 53.9942 43.801 53.9568 43.8137C53.8943 43.839 53.8195 43.8263 53.757 43.801C53.6946 43.7504 53.6447 43.6872 53.6073 43.6239V43.4848C53.6822 43.4848 53.7446 43.4089 53.782 43.3203L53.8069 43.2697L53.8569 43.2064C53.8694 43.1558 53.8694 43.1052 53.8694 43.0546C53.8694 43.0167 53.8444 42.9661 53.8195 42.9408H53.7696C53.7446 42.9914 53.7696 43.0546 53.7195 43.1052C53.6822 43.1558 53.6447 43.2064 53.5948 43.2444C53.5573 43.2697 53.5323 43.295 53.5074 43.295C53.4449 43.2697 53.4076 43.2191 53.395 43.1558C53.395 43.1052 53.42 43.0293 53.4449 42.9787L53.6572 42.6371L53.8319 42.4347C53.8694 42.3841 53.8819 42.2703 53.8444 42.245C53.7945 42.2323 53.7696 42.3462 53.7321 42.3715C53.5573 42.4347 53.395 42.5233 53.2453 42.6371C53.1704 42.7257 53.133 42.8269 53.0955 42.9408C53.0705 43.004 53.0831 43.0926 53.058 43.1558C53.058 43.1811 53.0081 43.2064 52.9832 43.1938C52.9332 43.1432 52.8958 43.0673 52.8708 43.004C52.8584 42.9534 52.8584 42.9028 52.8708 42.8396C52.8833 42.8143 52.8708 42.8016 52.8584 42.8143C52.7834 42.8522 52.746 42.9155 52.7086 42.9787C52.6836 43.0799 52.6836 43.1811 52.7335 43.2697C52.8084 43.4215 52.8958 43.548 53.0081 43.6745C53.083 43.7884 53.1704 43.9275 53.2328 44.0414C53.2952 44.13 53.3202 44.2565 53.3077 44.383C53.2703 44.4968 53.2204 44.6107 53.133 44.6866C53.133 44.6866 53.0955 44.7119 53.083 44.6993C52.9957 44.6107 52.8958 44.5348 52.7959 44.4589C52.6711 44.383 52.5463 44.3197 52.409 44.2944C52.2342 44.2691 52.047 44.2691 51.8722 44.2944C51.685 44.2944 51.4978 44.3324 51.3106 44.3197C51.1608 44.3324 51.011 44.3197 50.8613 44.2691C50.7613 44.2185 50.6741 44.1426 50.6116 44.0414C50.5617 43.9402 50.5368 43.8137 50.5617 43.6998C50.5617 43.5986 50.5991 43.5101 50.6366 43.4215C50.6741 43.3456 50.7364 43.2823 50.7988 43.2444C50.8862 43.1938 50.986 43.1811 51.0734 43.2064L51.1858 43.2823C51.2232 43.3203 51.2606 43.3583 51.2981 43.3962L51.3356 43.3836C51.348 43.257 51.3231 43.1305 51.2856 43.004C51.2482 42.9155 51.1858 42.8269 51.1233 42.7384C51.1233 42.7131 51.1733 42.7257 51.1858 42.7131C51.2856 42.7131 51.3855 42.7384 51.4604 42.8016C51.5103 42.8396 51.5727 42.8775 51.6102 42.9534L51.6226 42.9408C51.6351 42.789 51.5727 42.6371 51.4729 42.5233C51.4354 42.46 51.373 42.3968 51.3106 42.3588C51.2606 42.3462 51.3356 42.3082 51.373 42.3082C51.4479 42.2956 51.5352 42.3082 51.5977 42.3462L51.6726 42.3968L51.7225 42.4474C51.735 42.4474 51.7599 42.4221 51.7475 42.4094C51.735 42.3588 51.7225 42.3209 51.6976 42.2829C51.5852 42.1691 51.4604 42.0552 51.3231 41.954L51.2732 41.916C51.2357 41.8654 51.1983 41.8022 51.1858 41.7516L51.1359 41.6757V41.5871C51.1858 41.5112 51.2107 41.4986 51.2981 41.4606C51.3605 41.4353 51.423 41.4227 51.4853 41.41L51.5477 41.4353C51.5477 41.4353 51.5603 41.3974 51.5352 41.3847C51.4604 41.3341 51.3605 41.3088 51.2606 41.3088C51.1359 41.2835 51.011 41.2961 50.8862 41.3341C50.7988 41.3847 50.699 41.41 50.6116 41.41C50.5492 41.41 50.4743 41.41 50.4244 41.3721C50.3869 41.3468 50.3495 41.3088 50.3495 41.2582C50.3495 41.1949 50.362 41.1064 50.3995 41.0431C50.4244 40.9925 50.4743 40.9546 50.5242 40.9293C50.5741 40.9293 50.5867 40.904 50.5741 40.8787C50.5991 40.8407 50.5617 40.8534 50.5368 40.866ZM50.0499 41.6124C50.1123 41.6124 50.1623 41.6377 50.2122 41.6757C50.362 41.8022 50.4368 41.9793 50.4618 42.1691C50.4993 42.4221 50.5117 42.6878 50.4618 42.9408C50.4618 43.0293 50.4244 43.1052 50.3495 43.1432C50.3121 43.1558 50.2746 43.1685 50.2371 43.1685C50.1997 43.1685 50.1872 43.1052 50.1872 43.004V42.3082C50.1622 42.1564 50.1248 42.0046 50.0499 41.8528C50.0499 41.8148 50.025 41.8022 50 41.7769L49.9501 41.7136C49.9251 41.6883 49.8877 41.6757 49.8627 41.6504L49.8751 41.6124C49.9376 41.5998 50 41.5871 50.0499 41.6124ZM55.4047 41.7389H62.3195L62.2572 44.8005H55.4047V41.7389ZM55.4171 45.2053H62.2572C62.1948 46.5463 61.9451 47.8746 61.5083 49.1397C60.9841 50.6325 60.285 52.0368 59.4238 53.3652C58.1756 55.2628 56.553 56.8821 54.6558 58.1346C53.8195 58.6532 52.9457 59.096 52.0345 59.5009C51.7475 59.6274 51.4729 59.7539 51.2482 59.8298C50.986 59.9057 50.7613 59.9942 50.6116 60.0322V50C50.7613 50 50.8862 50 51.036 49.9747L51.0859 50.1139C51.1483 50.2277 51.2482 50.3036 51.373 50.3416C51.5352 50.3669 51.685 50.3036 51.7849 50.1898C51.9347 50.3036 52.1219 50.3542 52.2967 50.2783C52.434 50.2404 52.5338 50.1139 52.5338 49.9747C52.5463 49.8735 52.5338 49.7849 52.4839 49.6964L52.434 49.6205C52.7959 49.456 53.1204 49.2789 53.4325 49.0512H53.47C53.9568 48.9247 55.9663 48.1909 57.2021 48.1783C57.9634 48.1656 58.7123 48.3427 59.3739 48.7096C59.7359 48.9247 60.0604 49.1903 60.335 49.5193L60.3849 49.4813C60.4598 49.2536 60.5097 49.0259 60.4972 48.7729C60.4598 48.3933 60.0853 48.115 59.973 48.0012C59.973 48.0012 59.973 47.9758 60.0104 47.9505C60.0479 47.9126 60.0978 47.8746 60.1477 47.8367C60.3724 47.6722 60.6345 47.5584 60.9091 47.5584C60.9466 47.5584 60.9341 47.5078 60.9216 47.4445C60.8468 47.1156 60.3599 46.9005 59.8732 46.9638C59.5361 47.027 59.249 47.2421 59.0618 47.5331C59.0494 47.5584 58.9995 47.5837 58.9869 47.5584C58.8247 47.4951 58.6624 47.4445 58.5002 47.4066C58.4502 47.3939 58.4752 47.3433 58.4752 47.3433C58.575 47.1662 58.6998 47.0017 58.8746 46.8879C59.0618 46.7361 59.299 46.6222 59.5486 46.5842C59.5736 46.5842 59.5736 46.5463 59.5486 46.5336C59.4613 46.3312 59.2741 46.1794 59.0618 46.1288C58.7123 46.0149 58.3129 46.0782 58.0259 46.3059C57.7513 46.5463 57.539 46.8752 57.4267 47.2168C57.4142 47.2547 57.4017 47.2674 57.3768 47.2674C57.2395 47.2294 56.915 47.2547 56.89 47.2294C56.865 47.2294 56.865 47.1788 56.8775 47.1662C56.9274 46.9764 57.0397 46.7993 57.1646 46.6601C57.3019 46.4957 57.4641 46.3565 57.6513 46.2806L57.6763 46.2553C57.7013 46.2174 57.7013 46.1668 57.6639 46.1415C57.1022 45.8631 56.4282 46.0149 56.0287 46.5083C55.8415 46.7867 55.7042 47.1156 55.6293 47.4445C55.6293 47.4572 55.6043 47.4951 55.5794 47.4951L54.9054 47.6596L54.7931 47.6849L54.7681 47.6596C55.1675 46.9891 55.3922 46.23 55.4171 45.433C55.4171 45.4457 55.4171 45.2053 55.4171 45.2053ZM46.1556 46.3059C46.1931 46.4577 46.2679 46.5969 46.3178 46.7487L46.1556 46.3059ZM46.9169 47.9126C47.8031 49.0385 49.1263 49.6964 50.5368 49.7217C51.6226 49.709 52.6711 49.3042 53.495 48.5831C52.6711 49.2915 51.6226 49.6837 50.5368 49.6964C49.1387 49.6837 47.8031 49.0259 46.9169 47.9126ZM39.3155 48.621H47.1541L47.3164 48.7602C48.1277 49.4687 49.1513 49.8988 50.2122 49.9873V51.6193H40.5637C40.052 50.6452 39.6401 49.6458 39.3155 48.621ZM55.6668 49.2662C55.467 49.2915 55.2798 49.3548 55.105 49.4687C54.8804 49.6078 54.6931 49.7976 54.5808 50.038C54.4435 50.3795 54.3812 50.7211 54.3561 51.0753L54.3062 51.1259L53.8569 51.2398C53.8569 51.2398 53.8319 51.2398 53.8195 51.2145C53.7696 50.8729 53.8444 50.5313 54.0192 50.2404C54.0941 50.1012 54.1939 49.9747 54.3062 49.8735C54.3312 49.8608 54.3437 49.8229 54.3312 49.8102L54.2813 49.7849C53.9942 49.7343 53.6822 49.7849 53.42 49.9494C53.0831 50.1265 52.8584 50.4681 52.8209 50.8603C52.7834 51.1259 52.8084 51.3916 52.8708 51.6573C52.8708 51.6699 52.8708 51.6952 52.8459 51.7079L52.3591 51.9482H52.3341C52.2841 51.7458 52.1594 51.5687 51.9722 51.4549C51.7724 51.3663 51.5603 51.379 51.373 51.4802C51.2482 51.5561 51.1483 51.6573 51.0984 51.7838C50.9986 52.0115 51.0734 52.2645 51.2606 52.391C51.2606 52.4037 51.2856 52.429 51.2606 52.4416C51.1359 52.4922 51.1359 52.5175 51.036 52.6567C50.9487 52.8591 50.9736 53.0995 51.1109 53.2639C51.2981 53.5549 51.685 53.6308 51.9596 53.4411C51.9846 53.4284 52.0095 53.4031 52.0345 53.3778C52.0345 53.3778 52.0596 53.3778 52.072 53.4031C52.1219 53.479 52.1843 53.5549 52.2592 53.6055C52.4465 53.7194 52.6836 53.7194 52.8584 53.6055C53.058 53.4917 53.1704 53.2639 53.133 53.0362C53.133 52.9097 53.083 52.7832 52.9832 52.6946C52.9707 52.6693 52.9832 52.6567 53.0331 52.6314C53.8444 52.1633 54.7306 51.847 55.6668 51.7205C56.1411 51.6573 56.6278 51.6699 57.1022 51.7585C57.4017 51.8217 57.7013 51.9735 57.9385 52.176C58.1382 52.3404 58.3129 52.5175 58.4877 52.72C58.5376 52.72 58.6 52.72 58.6499 52.682C58.7498 52.4543 58.7623 52.2013 58.6624 51.9735C58.5501 51.6699 58.3753 51.4043 58.1506 51.1765V51.1512C58.1506 51.1006 58.1756 51.088 58.2131 51.0374C58.4252 50.8476 58.6874 50.6958 58.962 50.6452C58.9995 50.6452 59.0119 50.6072 58.9995 50.5819C58.7997 50.1771 58.3254 50 57.9135 50.1645C57.6513 50.2783 57.4267 50.4807 57.3143 50.7338C57.3019 50.7591 57.2769 50.797 57.2644 50.7844L56.8151 50.7338C56.7651 50.7338 56.7777 50.6831 56.7901 50.6831C56.8401 50.5187 56.9274 50.3669 57.0523 50.253C57.2145 50.0633 57.4267 49.9114 57.6513 49.8229C57.6763 49.8229 57.6763 49.7976 57.6763 49.7849C57.5266 49.5952 57.2894 49.4813 57.0523 49.4687C56.7527 49.456 56.4532 49.5699 56.2409 49.7849C55.9788 50.0633 55.829 50.4175 55.7916 50.797C55.7666 50.8223 55.7541 50.8476 55.7416 50.8476C55.6293 50.8729 55.492 50.8729 55.3672 50.8856C55.3423 50.8856 55.3423 50.8476 55.3423 50.835C55.3423 50.6452 55.3922 50.4554 55.4796 50.291C55.6418 49.962 55.9039 49.6837 56.2159 49.494C56.2659 49.456 56.2659 49.3801 56.2534 49.3801C56.0786 49.2789 55.8665 49.2409 55.6668 49.2662ZM54.1939 53.5676C54.0691 53.5676 53.9442 53.6055 53.8444 53.6814C53.5449 53.8332 53.3202 54.0989 53.2078 54.4278C53.1579 54.6809 53.1579 54.9465 53.2328 55.1995V55.2375L52.9457 55.3767H52.9083C52.7335 55.0477 52.771 54.6555 53.0206 54.3772C53.0456 54.3519 53.058 54.3266 53.0081 54.314C52.746 54.276 52.4839 54.3772 52.3091 54.5796C52.0969 54.8327 52.0345 55.1742 52.1468 55.4905C52.1718 55.6044 52.2093 55.7182 52.2841 55.8321C52.2841 55.8321 52.3341 55.87 52.2967 55.8827L52.1095 56.0472H52.072C51.9971 55.8827 51.8473 55.7688 51.685 55.7182C51.5352 55.6803 51.3855 55.7309 51.2732 55.8321C51.0859 56.0219 51.0734 56.3255 51.2606 56.5279L51.2732 56.5405C51.3231 56.5911 51.3855 56.6291 51.4604 56.6544C51.4729 56.6544 51.4853 56.6797 51.4729 56.6924C51.3605 56.7683 51.2732 56.8568 51.2107 56.9707C51.1359 57.1604 51.1733 57.3755 51.3231 57.5273C51.4354 57.6159 51.5727 57.6665 51.71 57.6412C51.9222 57.5779 52.0845 57.4135 52.1969 57.2237C52.1969 57.2237 52.2218 57.1984 52.2342 57.2237C52.3216 57.3376 52.4465 57.4261 52.5962 57.4894C52.746 57.5526 52.9083 57.5147 53.0206 57.4008C53.1829 57.2869 53.2453 57.0592 53.1704 56.8568C53.108 56.743 53.0206 56.6417 52.9083 56.5785C52.8833 56.5532 52.9083 56.5279 52.9332 56.5026C53.47 56.0598 54.119 55.7688 54.818 55.6676C55.2798 55.6044 55.7541 55.6803 56.1786 55.8953C56.3408 55.9839 56.4905 56.1104 56.6278 56.2496C56.6404 56.2496 56.6903 56.2749 56.7028 56.2496C56.915 56.0725 56.9274 55.7435 56.7527 55.5285C56.6778 55.4399 56.5905 55.364 56.4781 55.3007L56.4656 55.2754C56.6029 54.9212 56.89 54.6429 57.2644 54.5543C57.3019 54.5543 57.2894 54.529 57.2644 54.4911C57.1147 54.1116 56.4406 54.0989 56.1286 54.3013C55.9289 54.4405 55.7666 54.6176 55.6543 54.8327C55.6543 54.858 55.6418 54.8833 55.6168 54.8833L55.3423 54.7947V54.7568C55.5295 54.3772 55.8665 54.0989 56.2659 53.9977C56.2908 53.985 56.2784 53.9597 56.2659 53.9471C56.1286 53.5802 55.3922 53.6055 55.0302 53.8459C54.6932 54.0736 54.4435 54.4152 54.3561 54.82V54.8706C54.2439 54.9086 54.1565 54.9339 54.0441 54.9465C54.0316 54.9465 54.0192 54.9339 54.0192 54.9086C53.9942 54.7315 54.0192 54.5417 54.1065 54.3899C54.2188 54.1875 54.3812 53.9977 54.5434 53.8206C54.5684 53.7953 54.5684 53.7573 54.5434 53.7447C54.4311 53.6182 54.3187 53.5802 54.1939 53.5676ZM43.0976 55.3387H50.1872V59.9816C50.0499 59.931 49.9002 59.8677 49.7254 59.8171C49.4882 59.7412 49.2387 59.6021 48.9266 59.4756C47.4162 58.881 46.0183 58.046 44.7826 56.9833C44.1834 56.4773 43.6218 55.9333 43.0976 55.3387ZM69.4967 66.0034V71.9747H70.7948V69.7355H78.6708V71.9747H79.9814V66.0034H78.6833V68.4324H70.8073V66.0034H69.4967ZM20.9297 66.0034C20.2058 66.0034 19.6192 66.598 19.6067 67.3318V70.6716C19.6067 71.4054 20.2058 71.9873 20.9297 71.9873H29.2052C29.9292 71.9873 30.5033 71.3928 30.5033 70.6716V67.3318C30.5033 66.6233 29.9416 66.0288 29.2302 66.0161L20.9297 66.0034ZM32.076 66.0034V71.9747H33.3617V70.3933H40.5886C41.3002 70.3933 41.8868 71.0006 41.8868 71.7217V71.962H43.1974V71.9494C43.1974 71.0891 42.7106 70.3048 41.9368 69.9252C42.6357 69.8999 43.1849 69.318 43.1849 68.6095V67.3191C43.1849 66.5854 42.5983 66.0034 41.8743 66.0034H32.076ZM7 66.0161V71.9873H8.29812V70.406H16.7858C17.5097 70.406 18.0964 69.8114 18.0964 69.0903V67.3318C18.0964 66.598 17.4972 66.0161 16.7858 66.0161H7.02496H7ZM58.6499 66.0161C57.9259 66.0161 57.3268 66.6107 57.3268 67.3318V70.6716C57.3268 71.3928 57.901 72 58.6125 72H68.0114V70.6843H58.7997C58.7123 70.6843 58.6375 70.621 58.6375 70.5198V67.5089C58.6375 67.3951 58.7373 67.3318 58.8496 67.3318H68.0114V66.0034L58.6499 66.0161ZM81.5042 66.0161V71.9873H93V70.8741H82.8148V69.571H93V68.4451H82.8148V67.142H93V66.0161H81.5042ZM45.9684 66.0161C45.2569 66.0414 44.6827 66.6233 44.6827 67.3571V68.2427C44.6827 68.9764 45.2819 69.571 46.0058 69.571H54.2688C54.3812 69.571 54.481 69.6596 54.4934 69.7734V70.6843C54.4934 70.7982 54.3936 70.8741 54.2688 70.8741H44.8699V72H54.4934C55.205 72 55.7916 71.3928 55.7916 70.6716V69.7734C55.7916 69.0523 55.1924 68.4451 54.481 68.4451H46.2055C46.0931 68.4577 45.9933 68.3692 45.9933 68.2553V67.3445C45.9933 67.2306 46.0931 67.142 46.2055 67.142H55.5794V66.0288L45.9684 66.0161ZM33.3741 67.3191H41.6622C41.7869 67.3318 41.8868 67.433 41.8868 67.5469V68.8626C41.8868 68.9764 41.7995 69.0776 41.6871 69.0903H33.3741V67.3191ZM8.29812 67.3191L16.5736 67.3318C16.6859 67.3318 16.7983 67.4457 16.7983 67.5595V68.8626C16.7983 68.9764 16.7109 69.0776 16.5985 69.0903H8.32308V67.3191H8.29812ZM21.142 67.3318H29.0055C29.1178 67.3318 29.2302 67.433 29.2302 67.5595V70.4566C29.2302 70.5831 29.1428 70.6716 29.018 70.6843H21.092C21.0047 70.6843 20.9297 70.6084 20.9297 70.5198V67.5089C20.9423 67.3951 21.0421 67.3191 21.142 67.3318Z"
    fill="#191919" />
</svg>