<svg width="100" height="100" viewBox="0 0 100 100" fill="none" xmlns="http://www.w3.org/2000/svg">
  <rect width="100" height="100" />
  <path fill-rule="evenodd" clip-rule="evenodd"
    d="M29.9742 40.2576C28.18 40.5757 26.8485 41.848 26.4692 43.6066C26.3911 43.9685 26.392 44.915 26.4708 45.2719C26.5985 45.8505 26.8665 46.4537 27.1991 46.9112C27.4093 47.2004 27.8395 47.6265 28.1568 47.8599C28.6048 48.1894 29.2835 48.4758 29.8991 48.5953C30.3013 48.6734 31.0884 48.6656 31.4968 48.5796C32.3391 48.4022 33.0274 48.0445 33.6182 47.4771C34.2461 46.8739 34.632 46.1989 34.8344 45.35C34.9044 45.056 34.9132 44.9579 34.9143 44.4545C34.9152 44.0232 34.9028 43.8293 34.862 43.6364C34.5531 42.1755 33.6041 41.0429 32.2342 40.5004C31.7398 40.3046 31.3897 40.2402 30.7552 40.2281C30.378 40.221 30.1271 40.2305 29.9742 40.2576ZM39.6466 40.2576C38.6955 40.4262 37.9674 40.8003 37.3026 41.462C36.7039 42.058 36.3244 42.759 36.1416 43.6066C36.0638 43.9672 36.0647 44.9144 36.1432 45.2711C36.4262 46.557 37.2685 47.6503 38.4 48.2003C39.0785 48.5301 39.5979 48.6486 40.3525 48.6459C40.9217 48.6439 41.2578 48.5901 41.7399 48.424C42.3669 48.208 42.8416 47.9095 43.3442 47.4152C44.0298 46.7409 44.4191 45.9767 44.5606 45.0277C44.6233 44.6067 44.6037 43.9561 44.5164 43.562C44.3367 42.7505 43.9398 42.0274 43.3579 41.4515C42.755 40.8548 42.1004 40.4984 41.2413 40.2992C40.9062 40.2215 39.9855 40.1975 39.6466 40.2576ZM49.3189 40.2576C48.4189 40.4171 47.6997 40.7722 47.0581 41.3738C46.454 41.9402 46.0602 42.622 45.8427 43.4782C45.7671 43.7757 45.7609 43.8462 45.7602 44.4099C45.7595 44.9416 45.7684 45.0594 45.8293 45.3288C46.2087 47.0072 47.519 48.2606 49.2439 48.5953C49.6461 48.6734 50.4331 48.6656 50.8415 48.5796C51.414 48.4591 51.9818 48.2216 52.4429 47.91C52.7977 47.6703 53.3288 47.1282 53.5778 46.7518C54.0696 46.0082 54.3061 45.1489 54.2671 44.249C54.1826 42.3154 52.8528 40.7487 50.9149 40.2995C50.5785 40.2215 49.6586 40.1974 49.3189 40.2576ZM58.9915 40.2576C57.2043 40.5744 55.8716 41.8394 55.487 43.5838C55.4095 43.9353 55.409 44.9137 55.4863 45.2727C55.7592 46.541 56.5811 47.6166 57.7137 48.1878C58.0482 48.3564 58.5345 48.5212 58.9162 48.5953C59.3186 48.6734 60.1056 48.6656 60.5141 48.5796C61.0859 48.4592 61.6531 48.2221 62.1155 47.9103C62.4069 47.7136 62.9894 47.136 63.1902 46.8443C63.5038 46.3887 63.7386 45.8439 63.8644 45.279C63.9586 44.8565 63.9582 44.0171 63.8638 43.5861C63.4965 41.9118 62.2803 40.6919 60.5874 40.2995C60.2511 40.2215 59.331 40.1974 58.9915 40.2576ZM68.6638 40.2593C66.9011 40.5583 65.5567 41.8268 65.1633 43.562C65.0908 43.8819 65.0722 44.7443 65.1303 45.0945C65.1994 45.5117 65.3126 45.8712 65.4917 46.2411C66.0961 47.491 67.1925 48.3244 68.5888 48.5953C68.991 48.6734 69.778 48.6656 70.1864 48.5796C71.015 48.4051 71.6986 48.0517 72.292 47.4908C72.924 46.8935 73.3424 46.1502 73.5369 45.279C73.6307 44.8597 73.6299 44.0198 73.5355 43.5861C73.1548 41.837 71.816 40.5654 70.0341 40.2606C69.7111 40.2054 68.9859 40.2047 68.6638 40.2593ZM30.3346 49.785C29.5064 49.8664 28.7119 50.161 28.1106 50.6096C27.7772 50.8584 27.324 51.3278 27.1106 51.6454C26.631 52.3593 26.3924 53.1423 26.3916 54.0046C26.3906 55.1503 26.8085 56.1663 27.6162 56.9817C28.2103 57.5816 28.9286 57.971 29.7939 58.1625C30.2247 58.2578 31.0972 58.2568 31.5326 58.1602C32.8976 57.8575 33.9344 57.0483 34.5268 55.8236C34.8108 55.2367 34.9302 54.6978 34.9304 54.0025C34.9306 53.3459 34.809 52.793 34.5356 52.2065C34.1905 51.4664 33.5211 50.7459 32.8004 50.3392C32.0728 49.9285 31.0994 49.7098 30.3346 49.785ZM40.007 49.785C39.2302 49.8614 38.4997 50.1166 37.9043 50.5197C37.6043 50.7228 37.0838 51.2263 36.8709 51.5191C36.5013 52.0274 36.2245 52.677 36.116 53.2905C36.0463 53.6845 36.046 54.3529 36.1152 54.7334C36.272 55.5963 36.6682 56.3553 37.2886 56.9817C37.8827 57.5816 38.601 57.971 39.4663 58.1625C39.7 58.2144 39.8551 58.226 40.3225 58.2274C40.9546 58.2295 41.2547 58.1826 41.7757 58.0006C43.1738 57.5119 44.2176 56.3203 44.5335 54.8525C44.6108 54.4935 44.6104 53.5151 44.5329 53.1636C44.1655 51.498 42.8679 50.2066 41.2235 49.8702C40.8066 49.7849 40.3402 49.7522 40.007 49.785ZM49.6795 49.785C48.8981 49.8618 48.1755 50.1143 47.5767 50.5197C47.2767 50.7228 46.7562 51.2263 46.5433 51.5191C45.7374 52.6275 45.511 54.0807 45.9449 55.3583C46.2902 56.3749 47.0714 57.2809 48.0161 57.7607C48.3673 57.9392 48.8095 58.0953 49.1837 58.1731C49.6003 58.2597 50.4573 58.2531 50.8775 58.16C52.585 57.7818 53.8308 56.5435 54.2044 54.8525C54.2833 54.4955 54.2842 53.5496 54.2058 53.1865C53.9798 52.1382 53.4113 51.2486 52.5631 50.6159C52.2497 50.3821 51.7259 50.1115 51.3547 49.9915C50.8227 49.8197 50.1588 49.7378 49.6795 49.785ZM59.3518 49.783C58.5118 49.8817 57.8656 50.1075 57.2519 50.5167C56.9455 50.7212 56.4252 51.2283 56.1971 51.5451C55.6038 52.3692 55.319 53.408 55.417 54.3921C55.5156 55.3858 55.9326 56.2811 56.616 56.9662C57.1168 57.4685 57.6261 57.7878 58.2884 58.0149C58.804 58.1917 59.0543 58.2295 59.6974 58.2279C60.2045 58.2266 60.3052 58.2177 60.6014 58.1487C61.0053 58.0546 61.4772 57.8755 61.7965 57.6949C62.854 57.0975 63.6095 56.0645 63.8765 54.8514C63.9551 54.4943 63.9561 53.5474 63.8782 53.1865C63.5013 51.4384 62.1589 50.1452 60.4048 49.8398C60.1439 49.7943 59.5349 49.7615 59.3518 49.783ZM69.0242 49.7829C68.393 49.8573 67.8826 49.9993 67.4261 50.2277C66.2254 50.8284 65.3709 51.9633 65.1313 53.2758C65.0599 53.6663 65.0609 54.3857 65.1332 54.7634C65.4257 56.2914 66.4845 57.5086 67.9608 58.0149C68.4764 58.1917 68.7267 58.2295 69.3697 58.2279C69.877 58.2266 69.9775 58.2177 70.2738 58.1487C70.6778 58.0546 71.1496 57.8755 71.4688 57.6949C72.5251 57.0983 73.2823 56.0631 73.5488 54.8514C73.6274 54.4943 73.6284 53.5474 73.5505 53.1865C73.1262 51.2182 71.496 49.8571 69.4748 49.7832C69.2849 49.7762 69.0821 49.7761 69.0242 49.7829ZM52.4551 59.7025C52.0905 59.7375 51.6394 59.8308 51.2972 59.9414C49.6028 60.4898 48.301 62.051 48.0115 63.882C47.9431 64.3138 47.9632 65.1 48.0551 65.5858C48.3526 67.1608 49.2965 68.4357 50.6706 69.1183C51.0607 69.3119 51.4338 69.4374 51.9279 69.5408C52.2687 69.6124 52.3711 69.6204 52.9237 69.6206C53.4387 69.6208 53.6008 69.6097 53.9148 69.5522C55.3906 69.2823 56.55 68.5056 57.2269 67.3332C57.6303 66.6342 57.8532 65.8013 57.9009 64.8148L57.9193 64.4325H55.5561H53.193L53.2011 65.3027L53.2091 66.1729L54.4031 66.1807C55.1959 66.1859 55.5971 66.1987 55.5971 66.219C55.5971 66.2723 55.474 66.4938 55.3416 66.6791C55.1019 67.0143 54.7534 67.2759 54.3324 67.4366C53.9904 67.5673 53.7719 67.6124 53.3125 67.6476C52.8294 67.6846 52.4785 67.6418 52.078 67.497C51.4994 67.2877 50.9282 66.8431 50.5731 66.3253C50.3936 66.0639 50.2001 65.6375 50.1249 65.338C50.0253 64.9422 50.0313 64.321 50.1387 63.9206C50.4214 62.8653 51.1925 62.0708 52.2177 61.7786C52.4314 61.7178 52.5213 61.7104 53.0288 61.711C53.5279 61.7116 53.6315 61.7203 53.8548 61.78C54.5458 61.9645 55.0752 62.2832 55.414 62.7183C55.4857 62.8101 55.5569 62.8854 55.5724 62.8854C55.601 62.8854 57.2822 62.1486 57.305 62.126C57.3213 62.1097 57.0833 61.7112 56.9676 61.5615C56.1881 60.5523 55.0691 59.9108 53.7796 59.7334C53.4412 59.6868 52.7781 59.6713 52.4551 59.7025ZM30.8614 59.736C29.3662 59.9259 28.0755 60.6987 27.2429 61.9027C26.8943 62.4069 26.6215 63.0411 26.4832 63.6694C26.4258 63.9299 26.4167 64.061 26.4167 64.6258C26.4167 65.1898 26.4259 65.3219 26.4829 65.581C26.6542 66.3586 27.0247 67.1231 27.5123 67.7051C28.3395 68.6923 29.5385 69.3543 30.8637 69.5553C30.994 69.5751 31.3439 69.5911 31.6413 69.5911C32.0812 69.5909 32.2436 69.5784 32.5124 69.5245C32.9372 69.4393 33.3144 69.333 33.6539 69.2029L33.9242 69.0993L34.3598 69.5487L34.7954 69.9978L35.6665 69.7915C36.1456 69.6779 36.6052 69.5691 36.6878 69.5499C36.7704 69.5305 36.8576 69.5086 36.8815 69.5011C36.9096 69.4922 36.6511 69.2161 36.15 68.7194L35.375 67.9516L35.5148 67.7634C35.7226 67.4838 36.1408 66.6225 36.2949 66.1567C36.5688 65.3291 36.6341 64.6403 36.5104 63.8846C36.1136 61.4603 33.9617 59.685 31.4461 59.7063C31.2396 59.7081 30.9764 59.7216 30.8614 59.736ZM37.0933 64.6556V69.3117H38.1897H39.2861V64.6556V59.9995H38.1897H37.0933V64.6556ZM42.9529 60.0665C42.9383 60.1033 42.5616 61.0639 42.1159 62.2011C41.6702 63.3383 40.8698 65.38 40.3372 66.7381C39.8047 68.0963 39.3623 69.2308 39.3541 69.2596C39.3401 69.3086 39.4099 69.3117 40.523 69.3117H41.7068L42.0525 68.4861L42.3982 67.6604H44.2273H46.0564L46.1515 67.8984C46.2038 68.0293 46.3519 68.4009 46.4804 68.724L46.7142 69.3117H47.8984H49.0828L49.0615 69.2447C49.0498 69.2079 48.8083 68.5686 48.5246 67.8242C48.2411 67.0795 47.4555 65.0148 46.7791 63.2357L45.5492 60.001L44.2643 60.0001L42.9794 59.9995L42.9529 60.0665ZM58.2404 64.6556V69.3117H61.0191H63.7975V68.4042V67.4968H62.1305H60.4633V66.5447V65.5928H62.1305H63.7975V64.6407V63.6886H62.1305H60.4633V62.7516V61.8144H62.1305H63.7975V60.9069V59.9995H61.0191H58.2404V64.6556ZM64.6086 64.6854V69.3415H65.6298H66.651L66.6585 66.5095L66.6663 63.6776L67.5252 64.8657C67.9975 65.5192 68.767 66.5828 69.2354 67.229C69.7036 67.8755 70.2366 68.6117 70.4196 68.8654L70.7524 69.3266L71.7809 69.3344L72.8093 69.3421L72.8017 64.6932L72.7942 60.0442H71.7277H70.6613L70.6463 62.8649L70.6314 65.6857L68.5923 62.8575L66.5532 60.0293H65.5809H64.6086V64.6854ZM31.1056 61.6665C30.3911 61.7776 29.7994 62.0735 29.3402 62.5495C29.0618 62.8382 28.958 62.9861 28.7869 63.3383C28.5649 63.7951 28.5206 64.005 28.5214 64.596C28.5219 65.0446 28.5307 65.1339 28.5991 65.3846C28.8547 66.3216 29.4952 67.0629 30.3582 67.4203C30.7239 67.5717 31.0315 67.6281 31.4911 67.6283C31.8834 67.6283 32.3721 67.5657 32.4906 67.5001C32.5189 67.4844 32.3564 67.2921 31.9358 66.8435C31.031 65.8788 31.0694 65.9247 31.1517 65.9069C31.2146 65.8933 33.2016 65.5928 33.2286 65.5928C33.235 65.5928 33.4076 65.7791 33.6121 66.0068C33.9163 66.3458 33.9917 66.4146 34.0268 66.3863C34.1006 66.3263 34.2721 65.9241 34.3446 65.641C34.4946 65.0551 34.508 64.5842 34.3901 64.0426C34.1325 62.8593 33.2335 61.9434 32.1041 61.7139C31.8151 61.6551 31.3275 61.632 31.1056 61.6665ZM44.2046 62.5907C44.1565 62.7175 43.4435 64.7135 43.1736 65.477C43.1006 65.6834 43.041 65.8608 43.041 65.8712C43.041 65.8817 43.5681 65.8902 44.2124 65.8902C45.1329 65.8902 45.3839 65.8823 45.3839 65.8528C45.3839 65.8323 45.1298 65.0603 44.8191 64.1374L44.2543 62.4594L44.2046 62.5907Z"
    fill="#191919" />
  <path fill-rule="evenodd" clip-rule="evenodd"
    d="M29.9742 30.6951C28.18 31.0132 26.8484 32.2855 26.4691 34.0441C26.3911 34.406 26.392 35.3525 26.4708 35.7094C26.5985 36.288 26.8665 36.8912 27.199 37.3487C27.4093 37.6379 27.8394 38.064 28.1568 38.2974C28.6048 38.6269 29.2834 38.9133 29.8991 39.0328C30.3013 39.1109 31.0883 39.1031 31.4967 39.0171C32.3391 38.8397 33.0274 38.482 33.6182 37.9146C34.2461 37.3114 34.632 36.6364 34.8343 35.7875C34.9044 35.4935 34.9132 35.3954 34.9143 34.892C34.9152 34.4607 34.9028 34.2668 34.862 34.0739C34.5531 32.613 33.604 31.4804 32.2342 30.9379C31.7398 30.7421 31.3897 30.6777 30.7551 30.6656C30.3779 30.6585 30.1271 30.668 29.9742 30.6951ZM39.6466 30.6951C38.6955 30.8637 37.9674 31.2378 37.3026 31.8995C36.7039 32.4955 36.3244 33.1965 36.1415 34.0441C36.0638 34.4047 36.0647 35.3519 36.1432 35.7086C36.4261 36.9945 37.2685 38.0878 38.4 38.6378C39.0784 38.9676 39.5979 39.0861 40.3525 39.0834C40.9216 39.0814 41.2577 39.0276 41.7399 38.8615C42.3669 38.6455 42.8415 38.347 43.3442 37.8527C44.0298 37.1784 44.4191 36.4142 44.5605 35.4652C44.6233 35.0442 44.6037 34.3936 44.5164 33.9995C44.3367 33.188 43.9398 32.4649 43.3579 31.889C42.755 31.2923 42.1004 30.9359 41.2413 30.7367C40.9062 30.659 39.9855 30.635 39.6466 30.6951ZM49.3191 30.6951C48.419 30.8546 47.6997 31.2097 47.0581 31.8113C46.454 32.3777 46.0602 33.0595 45.8427 33.9157C45.7671 34.2132 45.7608 34.2837 45.7602 34.8474C45.7595 35.3791 45.7683 35.4969 45.8293 35.7663C46.2087 37.4447 47.519 38.6981 49.2438 39.0328C49.646 39.1109 50.4332 39.1031 50.8415 39.0171C51.4139 38.8966 51.9818 38.6591 52.4429 38.3475C52.7976 38.1078 53.3287 37.5657 53.5778 37.1893C54.0696 36.4457 54.3063 35.5864 54.267 34.6865C54.1826 32.7529 52.853 31.1862 50.915 30.737C50.5784 30.659 49.6586 30.6349 49.3191 30.6951ZM58.9914 30.6951C57.2043 31.0119 55.8715 32.2769 55.4869 34.0213C55.4094 34.3728 55.409 35.3512 55.4863 35.7102C55.7591 36.9785 56.581 38.0541 57.7136 38.6253C58.0481 38.7939 58.5345 38.9587 58.9162 39.0328C59.3186 39.1109 60.1056 39.1031 60.514 39.0171C61.0858 38.8967 61.6531 38.6596 62.1154 38.3478C62.4071 38.1511 62.9894 37.5735 63.1901 37.2818C63.5039 36.8262 63.7386 36.2814 63.8643 35.7165C63.9585 35.294 63.9581 34.4546 63.8637 34.0236C63.4964 32.3493 62.2803 31.1294 60.5874 30.737C60.251 30.659 59.3309 30.6349 58.9914 30.6951ZM68.6637 30.6968C66.9012 30.9958 65.5568 32.2643 65.1632 33.9995C65.0907 34.3194 65.0721 35.1818 65.1302 35.532C65.1993 35.9492 65.3126 36.3087 65.4916 36.6786C66.0963 37.9285 67.1925 38.7619 68.5887 39.0328C68.9909 39.1109 69.7779 39.1031 70.1864 39.0171C71.015 38.8426 71.6986 38.4892 72.2919 37.9283C72.9239 37.331 73.3424 36.5877 73.5369 35.7165C73.6307 35.2972 73.6298 34.4573 73.5356 34.0236C73.1547 32.2745 71.816 31.0029 70.0341 30.6981C69.7111 30.6429 68.9859 30.6422 68.6637 30.6968Z"
    fill="#191919" />
</svg>