<svg width="100" height="100" viewBox="0 0 100 100" fill="none" xmlns="http://www.w3.org/2000/svg">
  <rect width="100" height="100" />
  <path fill-rule="evenodd" clip-rule="evenodd"
    d="M75.0004 32.2109H32.5648C31.7848 32.9782 31.0036 33.7444 30.2224 34.5107L30.2223 34.5108L30.2221 34.511C28.7463 35.9584 27.2704 37.406 25.8027 38.8608V67.7732H68.1436C70.4353 65.5346 72.7215 63.2896 75.0004 61.0374V32.2109ZM44.332 38.3949C42.4376 38.3781 40.4452 38.6435 38.834 39.6936C37.4613 40.5706 36.6489 42.0634 36.1579 43.5594C35.5233 45.5483 35.3891 47.6537 35.404 49.7266C35.4327 51.6442 35.601 53.5891 36.2272 55.4166C36.6094 56.4971 37.1685 57.5597 38.0587 58.3192C39.2174 59.3148 40.7475 59.7659 42.2491 59.9432C43.5025 60.0795 44.7782 60.0952 46.0251 59.8938C46.6088 60.8381 47.1896 61.7844 47.7703 62.7307C48.107 63.2794 48.4437 63.8281 48.7811 64.3764C49.4393 64.079 50.0959 63.7797 50.7527 63.4803C51.1733 63.2886 51.594 63.0969 52.0152 62.9056C51.586 62.2206 51.1526 61.5382 50.7191 60.8558C50.2857 60.1734 49.8523 59.491 49.4232 58.806C50.6159 57.9626 51.52 56.7478 51.9949 55.3798C52.7041 53.3688 52.801 51.212 52.7978 49.1013C52.7723 47.0054 52.5487 44.8759 51.7872 42.9037C51.3165 41.7025 50.6105 40.5412 49.5244 39.7891C48.0293 38.7285 46.1359 38.4169 44.332 38.3949ZM57.1237 39.6261C58.2524 39.6251 59.3812 39.6251 60.51 39.6261C60.5116 40.3614 60.5113 41.0963 60.511 41.8313C60.5108 42.5666 60.5105 43.3018 60.5121 44.0373C61.3357 44.0385 62.1593 44.0384 62.983 44.0382H62.9854C63.604 44.038 64.2224 44.0379 64.8409 44.0384C64.8164 44.993 64.7898 45.9476 64.762 46.9023C64.0412 46.9038 63.3206 46.9035 62.6 46.9033H62.5984C61.8782 46.903 61.158 46.9027 60.4375 46.9044C60.4387 47.7998 60.438 48.6953 60.4373 49.5907C60.4361 51.106 60.4349 52.6212 60.4429 54.1364C60.4463 54.2175 60.4491 54.299 60.4518 54.3809V54.3811C60.4716 54.9661 60.4919 55.5677 60.7507 56.1023C60.9657 56.5722 61.5451 56.6929 62.0168 56.7086C62.5279 56.7068 63.0388 56.6891 63.5496 56.6713H63.5498C63.9276 56.6581 64.3053 56.6451 64.6832 56.6383C64.7375 57.5153 64.7898 58.3934 64.8409 59.2703C64.7584 59.284 64.6756 59.2978 64.5927 59.3116C62.8991 59.5938 61.134 59.8878 59.4589 59.3658C58.7189 59.1497 58.0288 58.6661 57.7285 57.9454C57.1907 56.7191 57.1471 55.3543 57.1237 54.0377C57.1224 52.6814 57.1226 51.3254 57.1228 49.9694V49.9612C57.1229 48.9423 57.123 47.9234 57.1226 46.9044C56.7648 46.9034 56.4071 46.9035 56.0494 46.9036H56.0484C55.6195 46.9038 55.1906 46.9039 54.7617 46.9023C54.7596 45.9487 54.7596 44.9941 54.7617 44.0394C55.155 44.0378 55.5478 44.0381 55.9408 44.0384H55.9417C56.3349 44.0387 56.728 44.0389 57.1215 44.0373C57.1231 43.302 57.1229 42.5668 57.1226 41.8317C57.1223 41.0966 57.122 40.3615 57.1237 39.6261Z"
    fill="#191919" />
  <path
    d="M42.8958 41.41C43.9916 41.2694 45.1417 41.3071 46.1788 41.7152C47.019 42.0425 47.7325 42.6835 48.1095 43.4955C48.6877 44.726 48.9092 46.0845 49.0211 47.4262C49.1425 49.2116 49.1254 51.0139 48.8751 52.7888C48.6995 53.8452 48.4492 54.9582 47.7229 55.7911C46.986 56.6273 45.8498 56.986 44.7594 57.0699C43.6093 57.1528 42.3964 57.0699 41.3581 56.5339C40.7522 56.216 40.2379 55.7177 39.9376 55.1072C39.5734 54.376 39.3732 53.5777 39.2326 52.7784C38.8087 50.2439 38.7065 47.6212 39.2859 45.1015C39.5244 44.151 39.8715 43.1755 40.5765 42.4589C41.1899 41.8453 42.0439 41.5285 42.8958 41.41Z"
    fill="#191919" />
</svg>