<svg width="100" height="100" viewBox="0 0 100 100" fill="none" xmlns="http://www.w3.org/2000/svg">
  <rect width="100" height="100" />
  <path
    d="M47.3252 24.0394C56.985 23.4053 65.3068 30.5066 65.9595 39.8587C66.6122 49.2426 59.302 57.3266 49.6749 57.9606C40.0151 58.5947 31.6933 51.4934 31.0406 42.1412C30.5837 35.6423 34.0104 29.4604 39.8193 26.2268C42.1364 24.9587 44.7145 24.2296 47.3252 24.0394ZM47.88 25.4977C39.0687 25.8464 32.1829 33.0745 32.5418 41.634C32.9008 50.1936 40.3414 56.8827 49.1527 56.534C57.964 56.1853 64.8499 48.9572 64.4909 40.3977C64.2624 35.1669 61.3906 30.4115 56.7566 27.7168C54.0805 26.1317 50.9803 25.3709 47.88 25.4977Z"
    fill="#191919" />
  <path
    d="M44.1837 27.7169C45.8418 27.1781 47.5956 26.9245 49.3495 27.0196C49.5408 27.0196 49.7321 27.0513 49.8916 27.1147C51.8049 28.6362 53.3354 30.6014 54.324 32.8519C55.4082 35.451 55.7908 38.2403 55.4719 41.0297C55.2806 43.0583 54.8023 45.0235 54.037 46.9254H55.4082C55.5357 46.5767 55.6633 46.228 55.7908 45.8794C57.3852 46.0695 58.8521 46.7986 60 47.9396C58.884 49.0807 57.3852 49.8097 55.7908 50C55.6633 49.6513 55.5357 49.3343 55.4082 48.9856C51.1989 48.9856 46.9898 48.9856 42.8125 48.9856C42.5893 48.9856 42.398 49.0807 42.2385 49.2075C41.7602 49.4294 41.3138 49.683 40.8673 49.9049C40.7079 49.9683 40.5165 50 40.3252 50C39.7831 50 39.241 50 38.699 50C37.5509 48.7955 36.6262 47.4008 35.9565 45.8794H39.6555C39.9107 45.8476 40.1976 45.8794 40.4528 45.9744C41.0586 46.228 41.6964 46.5133 42.3022 46.7668C42.7806 47.0522 43.3227 46.8936 43.8329 46.9254C43.7691 45.6257 43.3864 44.3262 42.7169 43.1851C42.0153 42.0757 41.0586 41.1881 39.9107 40.5542C38.3801 39.7301 36.7219 39.1596 35 38.8426C35.2231 37.0359 35.8291 35.2925 36.7538 33.7394C37.9655 34.0247 39.1453 34.3733 40.3252 34.7854C41.5688 35.2291 42.7487 35.8313 43.8329 36.5921L44.1837 36.4337C43.4821 35.6729 42.6849 34.9755 41.8239 34.3733C40.6122 33.4858 39.3367 32.6934 37.9974 31.9643C39.1135 30.6014 40.4847 29.492 42.0472 28.6679C43.0995 29.1116 44.088 29.6822 44.9808 30.3795C46.3201 31.4572 47.5956 32.6617 48.7437 33.9612L49.19 33.8344C48.0101 31.4255 46.1926 29.4286 44.1837 27.7169ZM50.4018 42.044C49.5089 42.3293 49.0306 43.2802 49.3176 44.1677C49.6045 45.0553 50.5612 45.5307 51.4541 45.2454C52.3469 44.9602 52.8253 44.0093 52.5383 43.1217C52.4426 42.8047 52.2194 42.4878 51.9323 42.2976C51.486 41.9806 50.912 41.8855 50.4018 42.044Z"
    fill="#191919" />
  <path
    d="M12.1318 65.5599C12.6169 65.1672 13.199 64.9708 13.8134 65.0035C13.8134 66.2145 13.8134 67.4254 13.8134 68.669C13.8134 68.9636 14.0721 69.1927 14.3632 69.1927H14.3955H21.6717C22.2861 69.16 22.8681 69.3891 23.3209 69.8145C23.7413 70.24 24 70.7963 24 71.4181C24 72.1709 24 72.8908 24 73.6435C24 74.3636 23.6442 75.0508 23.0945 75.509C22.6741 75.8363 22.1567 76 21.6069 76H11C11.4851 75.2145 11.9702 74.429 12.4552 73.6763C15.2686 73.6763 18.0821 73.6763 20.8955 73.6763C21.1865 73.7091 21.4453 73.5127 21.4776 73.2181V73.1854C21.4776 72.6618 21.4776 72.1381 21.4776 71.6145H13.7488C13.1667 71.6472 12.5846 71.4509 12.0995 71.1236C11.6144 70.7308 11.291 70.109 11.291 69.4545C11.291 68.7999 11.291 68.1126 11.291 67.458C11.3234 66.6399 11.6144 65.9854 12.1318 65.5599Z"
    fill="#191919" />
  <path
    d="M16 65H24C23.5912 65.9936 23.1532 66.9872 22.7444 67.9808C20.9051 68.0239 19.0949 67.9808 17.2555 67.9808L16 65Z"
    fill="#191919" />
  <path
    d="M27 65H29.5807C29.5807 66.4162 29.5807 67.7994 29.5807 69.2155C30.7742 69.2155 32 69.2155 33.1935 69.2155C34.6129 67.7994 36.0323 66.3832 37.4516 65C38.6452 65 39.8064 65 41 65C39.0968 66.8443 37.2259 68.7215 35.3226 70.5659C37.1936 72.3772 39.0645 74.1886 40.9355 76C39.742 76 38.5484 76 37.3548 76C35.9033 74.5838 34.4516 73.1347 33 71.7185C31.871 71.7185 30.7419 71.7185 29.6129 71.7185C29.6129 73.1347 29.6129 74.5838 29.6129 76H27.0323C27 72.3443 27 68.6886 27 65Z"
    fill="#191919" />
  <path
    d="M44.9532 65.0991C45.288 65.033 45.6229 65 45.9274 65C47.7541 65 49.5808 65 51.4075 65C52.5035 65 53.5691 65.5615 54.2389 66.4864C54.726 67.1802 55 68.039 55 68.8979C55 69.988 55 71.0781 55 72.1681C54.9695 73.3244 54.4824 74.4145 53.6604 75.1412C52.9906 75.7027 52.1686 76 51.3162 76H46.2318C45.8664 76 45.5011 76 45.1358 75.9669C43.3395 75.7358 42 74.0511 42 72.1021C42 71.012 42 69.9219 42 68.8319C42.0304 67.7417 42.4566 66.7177 43.1873 65.9909C43.7354 65.5615 44.3138 65.2311 44.9532 65.0991ZM45.349 67.5435C44.8314 67.7087 44.4965 68.2041 44.4965 68.7657C44.4965 69.9549 44.4965 71.1441 44.4965 72.3334C44.5269 73.027 45.0445 73.5555 45.6838 73.5555H51.4379C52.0773 73.5555 52.5949 73.027 52.6253 72.3334C52.6253 71.1111 52.6253 69.9219 52.6253 68.6997C52.5949 68.006 52.0773 67.4774 51.4379 67.4774H46.1101C45.8361 67.4774 45.5925 67.4774 45.349 67.5435Z"
    fill="#191919" />
  <path
    d="M58 65H67.873C68.656 65 69.439 65.1974 70.1199 65.5923C71.2434 66.2834 71.9584 67.4351 71.9924 68.7185C71.9924 69.4426 71.9924 70.1995 71.9924 70.9563C71.9924 71.7132 72.0605 72.5359 71.7882 73.2929C71.3796 74.5433 70.3582 75.4976 69.0646 75.8267C68.3155 76.0571 67.5325 75.9913 66.7836 75.9913H58C58 72.3384 58 68.6857 58 65ZM60.7236 67.4681C60.7236 69.4755 60.7236 71.5158 60.7236 73.5231H67.9411C68.4858 73.5231 68.9625 73.227 69.1667 72.7662C69.2688 72.503 69.3029 72.2397 69.2688 71.9436C69.2688 70.8576 69.2688 69.7717 69.2688 68.6857C69.2348 67.9946 68.656 67.4681 67.9411 67.4681H60.7236Z"
    fill="#191919" />
  <path
    d="M78.7834 65H82.1855C84.134 68.6556 86.0516 72.3114 88 76C87.0722 76 86.1134 76 85.1855 76C84.8453 75.3413 84.4742 74.6826 84.134 74.0239H79.2164L77.9485 71.8503L75.7526 76C74.8247 76 73.9278 76 73 76C74.9175 72.3443 76.8659 68.6886 78.7834 65ZM77.9793 71.7515H82.9278C82.0927 70.1706 81.2577 68.6227 80.4536 67.0749C79.6185 68.6227 78.8144 70.1706 77.9793 71.7515Z"
    fill="#191919" />
</svg>