<svg width="100" height="100" viewBox="0 0 100 100" fill="none" xmlns="http://www.w3.org/2000/svg">
  <rect width="100" height="100" />
  <path
    d="M50.5 74.562C37.303 74.562 26.491 63.697 26.491 50.5C26.491 47.532 27.021 44.723 28.028 42.073L42.073 70.322C42.232 70.693 42.497 71.011 42.921 71.011C43.345 71.011 43.61 70.693 43.769 70.322L50.235 55.853C50.288 55.694 50.394 55.535 50.553 55.535C50.712 55.535 50.765 55.694 50.871 55.853L57.337 70.322C57.496 70.693 57.761 71.011 58.185 71.011C58.609 71.011 58.874 70.693 59.033 70.322L73.078 42.073C74.085 44.723 74.615 47.532 74.615 50.5C74.509 63.697 63.697 74.562 50.5 74.562ZM50.5 45.041C50.341 45.041 50.288 44.882 50.182 44.723L42.656 27.763C45.094 26.862 47.744 26.385 50.5 26.385C53.256 26.385 55.906 26.862 58.344 27.763L50.818 44.723C50.712 44.935 50.659 45.041 50.5 45.041ZM42.815 62.478C42.656 62.478 42.603 62.319 42.497 62.16L30.307 37.568C32.48 34.229 35.395 31.42 38.946 29.459L47.744 49.016C47.85 49.334 48.115 49.44 48.38 49.44H52.62C52.938 49.44 53.15 49.387 53.309 49.016L62.107 29.459C65.605 31.42 68.573 34.229 70.746 37.568L58.45 62.16C58.397 62.319 58.291 62.478 58.132 62.478C57.973 62.478 57.92 62.319 57.814 62.16L53.203 51.666C53.044 51.295 52.832 51.242 52.514 51.242H48.274C47.956 51.242 47.744 51.295 47.585 51.666L43.133 62.16C43.08 62.319 42.974 62.478 42.815 62.478ZM50.5 77C65.181 77 77 65.181 77 50.5C77 35.819 65.181 24 50.5 24C35.819 24 24 35.819 24 50.5C24 65.181 35.819 77 50.5 77Z"
    fill="#191919" />
</svg>