<svg width="100" height="100" viewBox="0 0 100 100" fill="none" xmlns="http://www.w3.org/2000/svg">
  <rect width="100" height="100" />
  <path fill-rule="evenodd" clip-rule="evenodd"
    d="M50.471 38.2623C49.4692 38.5952 49.1195 38.8819 48.7007 39.714C48.3483 40.4144 48.2773 41.6376 48.5491 42.3293C48.9597 43.375 50.2825 44.1887 51.5805 44.1945C53.9153 44.2048 55.3492 42.2752 54.6573 40.0539C54.3932 39.206 53.6031 38.4938 52.6127 38.2108C51.5961 37.9204 51.492 37.923 50.471 38.2623ZM34.4217 45.5723C32.3027 45.9247 30.7781 46.7179 29.3006 48.2373C27.6626 49.9218 26.936 51.7557 26.9316 54.218C26.9237 58.6071 30.0073 62.0609 34.5526 62.7537C36.5707 63.0614 38.7492 62.4721 40.6328 61.1091L41.7564 60.296V61.3507V62.4052H43.8069H45.8575V54.136V45.8668H43.8069H41.7564V47.0356V48.2044L41.1649 47.6572C39.4413 46.0627 36.6544 45.2011 34.4217 45.5723ZM80.1323 45.6405C77.8136 46.1252 75.9834 47.4589 75.4274 49.0691C75.0873 50.0542 75.167 51.7713 75.5921 52.6137C76.0396 53.5008 76.9973 54.3435 78.0931 54.8143C79.3263 55.3441 80.1399 55.5321 82.0761 55.7348C84.8999 56.0305 85.6069 56.3704 85.6069 57.4326C85.6069 58.3032 84.715 59.1235 83.5061 59.3649C81.7775 59.7101 78.8351 58.888 77.2726 57.6233C77.0018 57.4041 76.7161 57.2627 76.638 57.3093C76.5598 57.3557 76.0615 58.0039 75.5304 58.7496L74.5651 60.1055L75.3889 60.7987C76.4341 61.6783 78.1608 62.502 79.5544 62.786C80.9644 63.0732 83.8292 63.071 85.1061 62.7813C86.5517 62.4536 87.7229 61.8488 88.5404 61.0079C89.8812 59.6292 90.3068 57.9362 89.7818 56.0681C89.5368 55.1959 89.3662 54.9224 88.6144 54.1987C87.9948 53.602 87.4636 53.2536 86.8211 53.0223C85.7925 52.6521 83.5352 52.2394 82.5391 52.2394C81.6069 52.2394 80.2734 51.8264 79.8306 51.4005C79.3217 50.911 79.3211 50.0786 79.8293 49.5898C80.3267 49.1114 81.1718 48.9032 82.6206 48.9023C84.0734 48.9012 85.1718 49.1964 86.0861 49.8333L86.7744 50.3131L87.3913 49.6452C87.7306 49.2778 88.2821 48.663 88.6168 48.279L89.2252 47.5806L88.5243 47.0964C86.3801 45.6153 83.0318 45.0343 80.1323 45.6405ZM11.6289 47.7607V49.6546L15.4213 49.6952L19.2139 49.7359L15.107 55.274L11 60.812L11.0385 61.6465L11.0768 62.481H18.3327H25.5885L25.6325 60.4707L25.6765 58.4603H21.7117C18.5849 58.4603 17.7629 58.4198 17.8232 58.2688C17.8651 58.1635 19.6119 55.792 21.7046 52.9986L25.5096 47.92V46.8934V45.8668H18.5693H11.6289V47.7607ZM57.4102 54.174L57.4511 62.481H59.5805H61.7099L61.7888 58.8193L61.8677 55.1575L65.1801 58.8557L68.4926 62.5537L71.0558 62.5554C73.0782 62.5566 73.619 62.5146 73.619 62.356C73.619 62.2456 71.8623 60.2913 69.715 58.0133C67.5678 55.7354 65.7882 53.8138 65.7603 53.7434C65.7323 53.6728 67.2761 51.9279 69.191 49.8656C71.1059 47.8035 72.6726 46.06 72.6726 45.9916C72.6726 45.923 71.5083 45.8668 70.0852 45.8668H67.4979L64.6828 49.1085L61.8677 52.3502L61.8251 49.1085L61.7826 45.8668H59.5761H57.3695L57.4102 54.174ZM34.6397 49.4053C33.21 49.9195 32.2001 50.8188 31.5752 52.1346C31.2077 52.9081 31.1635 53.168 31.2133 54.2588C31.2802 55.7211 31.6613 56.6037 32.6263 57.532C33.5675 58.4374 34.5143 58.8246 35.9489 58.8907C37.5319 58.9637 38.4984 58.6565 39.5522 57.7452C40.6376 56.8064 41.1548 55.7928 41.2483 54.4211C41.3844 52.4262 40.4516 50.8006 38.6168 49.8353C37.762 49.3854 37.4224 49.2957 36.4085 49.2519C35.6591 49.2194 34.9966 49.2768 34.6397 49.4053Z"
    fill="#191919" />
</svg>