<svg width="101" height="101" viewBox="0 0 101 101" fill="none" xmlns="http://www.w3.org/2000/svg">
<path fill-rule="evenodd" clip-rule="evenodd" d="M74.5924 27.1763L62.4365 50.2179L74.5924 73.2596L79.5719 70.4888V29.9471L74.5924 27.1763Z" fill="white"/>
<path fill-rule="evenodd" clip-rule="evenodd" d="M74.5924 27.1763L62.4365 50.2179L74.5924 73.2596L79.5719 70.4888V29.9471L74.5924 27.1763Z" fill="white"/>
<path fill-rule="evenodd" clip-rule="evenodd" d="M74.5925 27.1763L50.2808 29.9471L37.9053 50.2179L50.2808 70.4888L74.5925 73.2596V27.1763Z" fill="#7C7C7C"/>
<path fill-rule="evenodd" clip-rule="evenodd" d="M74.5925 27.1763L50.2808 29.9471L37.9053 50.2179L50.2808 70.4888L74.5925 73.2596V27.1763Z" fill="#7C7C7C"/>
<path fill-rule="evenodd" clip-rule="evenodd" d="M25.5295 27.1763L21.5752 28.9263V71.5096L25.5295 73.2596L50.2805 50.2179L25.5295 27.1763Z" fill="#7C7C7C"/>
<path fill-rule="evenodd" clip-rule="evenodd" d="M25.5295 27.1763L21.5752 28.9263V71.5096L25.5295 73.2596L50.2805 50.2179L25.5295 27.1763Z" fill="#7C7C7C"/>
<path fill-rule="evenodd" clip-rule="evenodd" d="M25.4766 27.1277L50.3136 33.998V67.0535L25.4766 73.2757V27.1277Z" fill="white"/>
<path fill-rule="evenodd" clip-rule="evenodd" d="M25.4766 27.1277L50.3136 33.998V67.0535L25.4766 73.2757V27.1277Z" fill="white"/>
<path fill-rule="evenodd" clip-rule="evenodd" d="M50.3263 37.6276L39.7803 35.9423L50.3263 24.0164L60.8462 35.9423L50.3263 37.6276Z" fill="#7C7C7C"/>
<path fill-rule="evenodd" clip-rule="evenodd" d="M50.3263 37.6276L39.7803 35.9423L50.3263 24.0164L60.8462 35.9423L50.3263 37.6276Z" fill="#7C7C7C"/>
<path fill-rule="evenodd" clip-rule="evenodd" d="M60.8462 35.9423L50.3132 37.6534L39.7803 35.9423V24.0164" fill="#7C7C7C"/>
<path fill-rule="evenodd" clip-rule="evenodd" d="M60.8462 35.9423L50.3132 37.6534L39.7803 35.9423V24.0164" fill="#7C7C7C"/>
<path fill-rule="evenodd" clip-rule="evenodd" d="M50.3263 62.646L39.7803 64.5905L50.3263 74.8312L60.8462 64.5905L50.3263 62.646Z" fill="#7C7C7C"/>
<path fill-rule="evenodd" clip-rule="evenodd" d="M50.3263 62.646L39.7803 64.5905L50.3263 74.8312L60.8462 64.5905L50.3263 62.646Z" fill="#7C7C7C"/>
<path fill-rule="evenodd" clip-rule="evenodd" d="M50.2811 15.072L39.7363 20.6137V35.9262L50.314 32.961L50.2811 15.072Z" fill="#7C7C7C"/>
<path fill-rule="evenodd" clip-rule="evenodd" d="M50.2811 15.072L39.7363 20.6137V35.9262L50.314 32.961L50.2811 15.072Z" fill="#7C7C7C"/>
<path fill-rule="evenodd" clip-rule="evenodd" d="M50.3132 41.3867L39.7803 42.5276V57.8164L50.3132 59.0164V41.3867Z" fill="#7C7C7C"/>
<path fill-rule="evenodd" clip-rule="evenodd" d="M50.3132 41.3867L39.7803 42.5276V57.8164L50.3132 59.0164V41.3867Z" fill="#7C7C7C"/>
<path fill-rule="evenodd" clip-rule="evenodd" d="M50.3132 67.183L39.7803 64.5532V79.5832L50.3132 85.072V67.183Z" fill="#7C7C7C"/>
<path fill-rule="evenodd" clip-rule="evenodd" d="M50.3132 67.183L39.7803 64.5532V79.5832L50.3132 85.072V67.183Z" fill="#7C7C7C"/>
<path fill-rule="evenodd" clip-rule="evenodd" d="M60.8464 64.5532L50.3135 67.1838V85.072L60.8464 79.5832V64.5532Z" fill="white"/>
<path fill-rule="evenodd" clip-rule="evenodd" d="M60.8464 64.5532L50.3135 67.1838V85.072L60.8464 79.5832V64.5532Z" fill="white"/>
<path fill-rule="evenodd" clip-rule="evenodd" d="M50.3135 41.3867L60.8464 42.5276V57.8164L50.3135 59.0164V41.3867Z" fill="white"/>
<path fill-rule="evenodd" clip-rule="evenodd" d="M50.3135 41.3867L60.8464 42.5276V57.8164L50.3135 59.0164V41.3867Z" fill="white"/>
<path fill-rule="evenodd" clip-rule="evenodd" d="M50.2803 15.072L60.8251 20.6137V35.9262L50.2803 33.0095V15.072Z" fill="white"/>
<path fill-rule="evenodd" clip-rule="evenodd" d="M50.2803 15.072L60.8251 20.6137V35.9262L50.2803 33.0095V15.072Z" fill="white"/>
</svg>
