<svg width="101" height="101" viewBox="0 0 101 101" fill="none" xmlns="http://www.w3.org/2000/svg">
<g clip-path="url(#clip0_2358_1824)">
<path d="M28.7541 42.7224C28.7541 43.9623 28.8875 44.9673 29.1202 45.7044C29.4156 46.5337 29.7712 47.3399 30.1842 48.1165C30.3506 48.3845 30.4169 48.6525 30.4169 48.8872C30.4169 49.222 30.2176 49.5571 29.7852 49.8923L27.69 51.2993C27.3907 51.5005 27.0913 51.6009 26.8249 51.6009C26.4926 51.6009 26.1599 51.4333 25.8272 51.1317C25.3787 50.647 24.9778 50.1197 24.6301 49.5571C24.2974 48.988 23.9647 48.3509 23.599 47.5806C21.0045 50.6626 17.7451 52.2037 13.8208 52.204C11.0272 52.204 8.79867 51.3997 7.16884 49.7919C5.5394 48.1833 4.70801 46.0392 4.70801 43.3591C4.70801 40.5115 5.70576 38.1998 7.73461 36.4576C9.76308 34.7154 12.4574 33.8444 15.883 33.8444C17.0137 33.8444 18.1779 33.9447 19.4083 34.1123C20.6391 34.2799 21.9029 34.5479 23.2333 34.8494V32.4037C23.2333 29.8573 22.7009 28.0819 21.6698 27.0432C20.6057 26.0046 18.8095 25.5018 16.2487 25.5018C15.0846 25.5018 13.8875 25.6362 12.6567 25.9378C11.4259 26.2393 10.2288 26.6077 9.06469 27.0768C8.53266 27.3112 8.13364 27.4452 7.90058 27.5124C7.66752 27.5796 7.50156 27.6128 7.36855 27.6128C6.90283 27.6128 6.67016 27.2776 6.67016 26.5741V24.9323C6.67016 24.3964 6.73686 23.9944 6.90283 23.76C7.06918 23.5253 7.36855 23.2909 7.83427 23.0565C8.99825 22.4531 10.395 21.9505 12.0246 21.5487C13.6548 21.1132 15.3843 20.9124 17.2135 20.9124C21.1715 20.9124 24.0651 21.8167 25.9276 23.6261C27.7568 25.435 28.6882 28.1823 28.6882 31.8678V42.7224H28.7541ZM15.2509 47.815C16.3487 47.815 17.4795 47.6142 18.6765 47.2118C19.874 46.8099 20.9384 46.0728 21.8361 45.0677C22.3686 44.4314 22.7676 43.7279 22.9669 42.9236C23.1666 42.1197 23.2996 41.1478 23.2996 40.0088V38.6017C22.291 38.3546 21.2694 38.1645 20.2397 38.0322C19.2028 37.8997 18.1586 37.8325 17.1134 37.831C14.8848 37.831 13.2554 38.2666 12.158 39.1713C11.0606 40.076 10.5282 41.349 10.5282 43.024C10.5282 44.5986 10.9272 45.7712 11.7586 46.5755C12.557 47.413 13.7211 47.815 15.2509 47.815ZM41.9579 51.4333C41.3592 51.4333 40.9602 51.3329 40.6942 51.0982C40.4282 50.8974 40.1951 50.4282 39.9958 49.7919L32.1801 23.894C31.98 23.2237 31.8804 22.7882 31.8804 22.5538C31.8804 22.0179 32.1464 21.7159 32.6788 21.7159H35.9381C36.5698 21.7159 37.0025 21.8167 37.2352 22.0511C37.5012 22.2522 37.7009 22.7214 37.9002 23.3577L43.4877 45.5369L48.6762 23.3577C48.8426 22.6878 49.0423 22.2522 49.3079 22.0511C49.5743 21.8503 50.04 21.7163 50.6387 21.7163H53.2993C53.931 21.7163 54.3637 21.8167 54.6294 22.0511C54.8958 22.2522 55.1284 22.7214 55.2614 23.3577L60.5166 45.8048L66.2701 23.3577C66.4694 22.6878 66.7024 22.2522 66.9351 22.0511C67.2011 21.8503 67.6335 21.7163 68.2322 21.7163H71.3251C71.8575 21.7163 72.1569 21.9843 72.1569 22.5538C72.1569 22.7214 72.1236 22.889 72.0902 23.0897C72.0569 23.2905 71.9906 23.5589 71.8576 23.9276L63.8418 49.8251C63.6425 50.4954 63.4097 50.931 63.1434 51.1317C62.8774 51.3329 62.445 51.4669 61.88 51.4669H59.0198C58.3877 51.4669 57.9553 51.3665 57.6889 51.1317C57.4229 50.8974 57.1902 50.4618 57.0572 49.7919L51.9017 28.1823L46.7799 49.7579C46.614 50.4282 46.4143 50.8638 46.1483 51.0982C45.8822 51.3329 45.4165 51.4333 44.8182 51.4333H41.9579ZM84.6957 52.338C82.9662 52.338 81.2367 52.1368 79.5739 51.7349C77.9108 51.3329 76.614 50.897 75.7493 50.395C75.2169 50.0931 74.8508 49.7583 74.7182 49.4568C74.5888 49.161 74.5209 48.8417 74.5185 48.5185V46.8099C74.5185 46.1064 74.7845 45.7712 75.2836 45.7712C75.4872 45.772 75.6894 45.806 75.8823 45.872C76.0816 45.9392 76.381 46.0728 76.7137 46.2068C77.8883 46.7276 79.1146 47.1207 80.372 47.3794C81.6748 47.6455 83.0007 47.7802 84.33 47.7814C86.4252 47.7814 88.055 47.413 89.1858 46.6759C90.3166 45.9388 90.9153 44.8669 90.9153 43.4931C90.9153 42.5552 90.6159 41.7845 90.0172 41.1478C89.4185 40.5111 88.2877 39.942 86.6583 39.4056L81.8355 37.8982C79.4076 37.1275 77.6118 35.9885 76.514 34.4807C75.4166 33.0065 74.8512 31.3651 74.8512 29.6229C74.8512 28.2159 75.1506 26.9762 75.7493 25.9038C76.3476 24.8319 77.1461 23.894 78.1438 23.1569C79.1416 22.3862 80.2723 21.8167 81.6028 21.4147C82.9329 21.0128 84.3296 20.8452 85.7931 20.8452C86.5249 20.8452 87.2899 20.8788 88.0217 20.9792C88.7868 21.0796 89.4852 21.2136 90.1835 21.3476C90.8486 21.5151 91.4807 21.6827 92.0794 21.8839C92.6779 22.0847 93.1434 22.2856 93.4762 22.4866C93.9419 22.755 94.2742 23.0229 94.4739 23.3245C94.6735 23.5925 94.7733 23.961 94.7733 24.43V26.0046C94.7733 26.7081 94.5073 27.0768 94.0082 27.0768C93.7422 27.0768 93.3098 26.9424 92.7448 26.6745C90.8484 25.8034 88.7198 25.3678 86.3589 25.3678C84.463 25.3678 82.9662 25.6694 81.9351 26.3061C80.9044 26.9424 80.372 27.9143 80.372 29.2877C80.372 30.226 80.7047 31.0299 81.3697 31.6666C82.0348 32.3034 83.2656 32.9397 85.0284 33.5092L89.7512 35.017C92.1457 35.7877 93.8752 36.8596 94.9063 38.233C95.9374 39.6064 96.4365 41.1814 96.4365 42.9236C96.4365 44.3642 96.1367 45.6708 95.5713 46.8099C94.973 47.949 94.1746 48.954 93.1435 49.7583C92.1124 50.5958 90.8819 51.1989 89.4518 51.6345C87.955 52.1036 86.3919 52.338 84.6957 52.338Z" fill="#E4E4E4"/>
<path d="M90.9816 68.6199C80.0396 76.7612 64.1415 81.0831 50.4724 81.0831C31.315 81.0831 14.0538 73.9468 1.01635 62.0867C-0.0147482 61.1488 0.916304 59.8758 2.14672 60.6125C16.2487 68.8546 33.6432 73.8464 51.6365 73.8464C63.7759 73.8464 77.1127 71.3003 89.3855 66.0738C91.2146 65.2359 92.7778 67.28 90.9816 68.6199ZM95.5384 63.3933C94.1416 61.5844 86.2922 62.5222 82.7335 62.9578C81.6691 63.0922 81.5027 62.1539 82.4675 61.4504C88.7201 57.0277 98.9973 58.3012 100.194 59.775C101.392 61.2828 99.8617 71.6351 94.0082 76.5937C93.1105 77.3644 92.2457 76.9624 92.6448 75.9573C93.9748 72.6402 96.9351 65.1691 95.5384 63.3933Z" fill="#E4E4E4"/>
</g>
<defs>
<clipPath id="clip0_2358_1824">
<rect width="100" height="100" fill="white" transform="translate(0.573242 0.964111)"/>
</clipPath>
</defs>
</svg>
