<svg width="101" height="101" viewBox="0 0 101 101" fill="none" xmlns="http://www.w3.org/2000/svg">
<g clip-path="url(#clip0_2358_1965)">
<path d="M83.6108 53.6708C83.7695 53.2508 83.8254 52.7989 83.774 52.3529C83.7225 51.9069 83.5651 51.4796 83.315 51.1067C83.058 50.7987 82.7428 50.5443 82.3875 50.3581C82.0321 50.172 81.6435 50.0577 81.244 50.0219L64.0842 49.8247C63.9856 49.8247 63.887 49.7261 63.7883 49.7261C63.7654 49.7088 63.7467 49.6865 63.7339 49.6608C63.7211 49.6352 63.7144 49.6068 63.7144 49.5781C63.7144 49.5494 63.7211 49.5211 63.7339 49.4954C63.7467 49.4698 63.7654 49.4474 63.7883 49.4302C63.887 49.233 63.9856 49.1343 64.1828 49.1343L81.4412 48.9371C82.5368 48.8155 83.5803 48.4042 84.4643 47.7456C85.3483 47.0869 86.0409 46.2047 86.4708 45.1896L87.457 42.6255C87.457 42.5269 87.5556 42.4282 87.457 42.3296C86.9208 39.9415 85.6197 37.7936 83.7514 36.2125C81.8831 34.6313 79.5497 33.7032 77.1057 33.5693C74.6618 33.4354 72.241 34.103 70.2111 35.4705C68.1812 36.8381 66.6532 38.8309 65.8593 41.1462C64.8287 40.4101 63.5716 40.0609 62.3091 40.16C61.1503 40.2892 60.0701 40.8087 59.2456 41.6331C58.4212 42.4575 57.9018 43.5378 57.7726 44.6965C57.7069 45.2896 57.7402 45.8895 57.8712 46.4716C55.9964 46.5235 54.2158 47.3047 52.9081 48.6492C51.6005 49.9937 50.869 51.7953 50.8692 53.6708C50.853 54.0352 50.8862 54.4001 50.9678 54.7556C50.9724 54.8326 51.005 54.9053 51.0595 54.9598C51.1141 55.0144 51.1867 55.047 51.2637 55.0515H82.9205C83.1177 55.0515 83.315 54.9529 83.315 54.7556L83.6108 53.6708Z" fill="white"/>
<path d="M89.0351 42.6255H88.542C88.4434 42.6255 88.3448 42.7241 88.2462 42.8227L87.5558 45.1896C87.3972 45.6096 87.3412 46.0615 87.3927 46.5075C87.4442 46.9536 87.6015 47.3808 87.8517 47.7537C88.1087 48.0618 88.4238 48.3162 88.7792 48.5023C89.1346 48.6884 89.5231 48.8027 89.9227 48.8385L93.5716 49.0357C93.6702 49.0357 93.7689 49.1344 93.8675 49.1344C93.8904 49.1516 93.9091 49.1739 93.9219 49.1996C93.9348 49.2253 93.9414 49.2536 93.9414 49.2823C93.9414 49.311 93.9348 49.3393 93.9219 49.365C93.9091 49.3907 93.8904 49.413 93.8675 49.4302C93.7689 49.6275 93.6702 49.7261 93.473 49.7261L89.7255 49.9233C88.6298 50.0449 87.5863 50.4562 86.7023 51.1148C85.8184 51.7735 85.1258 52.6557 84.6959 53.6708L84.4986 54.5584C84.4 54.657 84.4987 54.8543 84.6959 54.8543H97.7136C97.7538 54.86 97.7948 54.8563 97.8333 54.8435C97.8718 54.8306 97.9068 54.809 97.9355 54.7803C97.9642 54.7516 97.9859 54.7166 97.9987 54.6781C98.0115 54.6396 98.0152 54.5986 98.0095 54.5584C98.2443 53.7228 98.3767 52.8618 98.404 51.9943C98.3883 49.5144 97.3962 47.1404 95.6426 45.3868C93.889 43.6332 91.5151 42.6411 89.0351 42.6255Z" fill="white"/>
<path d="M99.6857 60.3769C99.5101 60.3769 99.3385 60.3248 99.1925 60.2273C99.0466 60.1298 98.9328 59.9911 98.8656 59.8289C98.7985 59.6668 98.7809 59.4883 98.8151 59.3161C98.8494 59.144 98.9339 58.9858 99.058 58.8617C99.1822 58.7376 99.3403 58.653 99.5125 58.6188C99.6847 58.5845 99.8631 58.6021 100.025 58.6693C100.188 58.7365 100.326 58.8502 100.424 58.9962C100.521 59.1421 100.573 59.3137 100.573 59.4893C100.574 59.606 100.551 59.7216 100.507 59.8295C100.462 59.9374 100.397 60.0355 100.314 60.118C100.232 60.2005 100.134 60.2659 100.026 60.3103C99.918 60.3547 99.8024 60.3774 99.6857 60.3769ZM99.6857 58.799C99.5491 58.799 99.4156 58.8394 99.3021 58.9153C99.1886 58.9912 99.1001 59.099 99.0479 59.2251C98.9956 59.3513 98.982 59.4901 99.0086 59.624C99.0352 59.7579 99.101 59.8809 99.1975 59.9774C99.2941 60.074 99.4171 60.1397 99.551 60.1664C99.6849 60.193 99.8237 60.1793 99.9498 60.1271C100.076 60.0748 100.184 59.9863 100.26 59.8728C100.336 59.7593 100.376 59.6258 100.376 59.4893C100.378 59.398 100.362 59.3073 100.328 59.2225C100.294 59.1377 100.243 59.0607 100.179 58.9962C100.114 58.9316 100.037 58.8809 99.9524 58.847C99.8677 58.8131 99.7769 58.7967 99.6857 58.799ZM100.08 59.9824H99.8829L99.6857 59.6865H99.4884V59.9824H99.2912V59.0948H99.7843C99.8245 59.0891 99.8654 59.0928 99.904 59.1056C99.9425 59.1184 99.9775 59.1401 100.006 59.1688C100.035 59.1975 100.057 59.2325 100.069 59.271C100.082 59.3095 100.086 59.3505 100.08 59.3907C100.08 59.4893 99.9815 59.5879 99.8829 59.6865L100.08 59.9824ZM99.7843 59.4893C99.8829 59.4893 99.8829 59.4893 99.8829 59.3907C99.8832 59.3776 99.8808 59.3647 99.876 59.3526C99.8711 59.3405 99.8638 59.3295 99.8546 59.3203C99.8454 59.3111 99.8344 59.3039 99.8223 59.299C99.8102 59.2941 99.7973 59.2918 99.7843 59.2921H99.4884V59.5879H99.7843V59.4893ZM11.3228 58.6017H13.4924V64.5189H17.24V66.3926H11.3228V58.6017ZM19.5082 62.4479C19.5082 61.9001 19.6195 61.358 19.8351 60.8544C20.0508 60.3509 20.3664 59.8963 20.7629 59.5183C21.1593 59.1403 21.6284 58.8466 22.1416 58.6552C22.6549 58.4637 23.2017 58.3784 23.7488 58.4045C24.2909 58.3801 24.8322 58.4672 25.3393 58.6605C25.8463 58.8537 26.3083 59.149 26.6966 59.5281C27.0848 59.9071 27.3912 60.3618 27.5966 60.8641C27.802 61.3663 27.9022 61.9054 27.8908 62.4479C27.8908 62.9957 27.7796 63.5378 27.5639 64.0413C27.3483 64.5449 27.0327 64.9994 26.6362 65.3775C26.2397 65.7555 25.7707 66.0491 25.2574 66.2406C24.7442 66.432 24.1974 66.5173 23.6502 66.4913C23.1102 66.5073 22.5726 66.4144 22.0693 66.2182C21.566 66.0219 21.1074 65.7263 20.7208 65.3489C20.3342 64.9716 20.0276 64.5202 19.8193 64.0218C19.611 63.5234 19.5052 62.9881 19.5082 62.4479ZM25.7212 62.4479C25.7405 62.1745 25.7042 61.9 25.6145 61.641C25.5247 61.3821 25.3834 61.144 25.1991 60.9412C25.0147 60.7384 24.7911 60.5751 24.5419 60.4612C24.2926 60.3472 24.0228 60.285 23.7488 60.2782C23.217 60.3042 22.7156 60.5337 22.3484 60.9193C21.9813 61.3048 21.7764 61.8168 21.7764 62.3492C21.7764 62.8817 21.9813 63.3937 22.3484 63.7792C22.7156 64.1648 23.217 64.3943 23.7488 64.4203C24.9323 64.6175 25.7212 63.6313 25.7212 62.4479ZM30.5536 62.941V58.6017H32.7232V62.941C32.7232 64.0258 33.3149 64.6175 34.2025 64.6175C34.4098 64.6347 34.6183 64.6049 34.8124 64.5302C35.0065 64.4555 35.1812 64.3378 35.3235 64.1861C35.4658 64.0343 35.5719 63.8524 35.6339 63.6539C35.696 63.4553 35.7123 63.2453 35.6818 63.0396V58.6017H37.8514V62.941C37.8514 65.5051 36.3721 66.5899 34.2025 66.5899C31.9342 66.4913 30.5536 65.4064 30.5536 62.941ZM41.1058 58.6017H44.163C46.9244 58.6017 48.6009 60.1796 48.6009 62.4479C48.6009 64.7161 46.9244 66.3926 44.163 66.3926H41.2044V58.6017H41.1058ZM44.163 64.4203C44.4378 64.4465 44.7151 64.415 44.977 64.3278C45.239 64.2406 45.4798 64.0996 45.6841 63.9139C45.8884 63.7282 46.0516 63.5019 46.1633 63.2494C46.2749 62.997 46.3326 62.7239 46.3326 62.4479C46.3326 62.1718 46.2749 61.8988 46.1633 61.6463C46.0516 61.3938 45.8884 61.1675 45.6841 60.9818C45.4798 60.7961 45.239 60.6551 44.977 60.5679C44.7151 60.4807 44.4378 60.4492 44.163 60.4755H43.2754V64.4203H44.163ZM51.6581 58.6017H57.8711V60.4755H53.8277V61.7575H57.4766V63.5327H53.8277V66.3926H51.6581V58.6017ZM60.9283 58.6017H63.0979V64.5189H66.8454V66.3926H60.9283V58.6017ZM72.4667 58.5031H74.6364L77.9894 66.3926H75.6226L75.0308 65.012H71.9736L71.3819 66.3926H69.1137L72.4667 58.5031ZM74.4391 63.3354L73.5516 61.1658L72.664 63.3354H74.4391ZM80.7508 58.6017H84.3997C84.8652 58.5639 85.3336 58.6233 85.775 58.7761C86.2164 58.9289 86.6212 59.1718 86.9638 59.4893C87.2463 59.7939 87.4514 60.1622 87.5615 60.5628C87.6717 60.9634 87.6838 61.3847 87.5967 61.791C87.5097 62.1973 87.326 62.5767 87.0614 62.897C86.7967 63.2173 86.4588 63.4692 86.0762 63.6313L87.95 66.3926H85.4845L83.9066 64.0258H82.9204V66.3926H80.7508V58.6017ZM84.3011 62.3492C84.9914 62.3492 85.4845 61.9548 85.4845 61.4617C85.4845 60.87 84.9914 60.5741 84.3011 60.5741H82.9204V62.4479H84.3011V62.3492ZM90.7113 58.6017H97.0229V60.3769H92.8809V61.5603H96.6285V63.3354H92.8809V64.5189H97.1216V66.3926H90.7113V58.6017ZM6.58908 63.4341C6.44034 63.7826 6.19319 64.0802 5.8779 64.2904C5.5626 64.5006 5.19286 64.6142 4.81393 64.6175C4.28215 64.5915 3.78073 64.362 3.41354 63.9765C3.04636 63.5909 2.84155 63.0789 2.84155 62.5465C2.84155 62.0141 3.04636 61.5021 3.41354 61.1165C3.78073 60.731 4.28215 60.5014 4.81393 60.4755C5.21724 60.4832 5.60949 60.6087 5.9424 60.8365C6.27532 61.0643 6.53438 61.3844 6.6877 61.7575H8.95594C8.76191 60.8129 8.23932 59.9675 7.48099 59.3717C6.72267 58.7759 5.7777 58.4681 4.81393 58.5031C4.26879 58.4854 3.72557 58.5764 3.21598 58.7708C2.70639 58.9653 2.24063 59.2593 1.84588 59.6357C1.45113 60.0121 1.1353 60.4633 0.916804 60.9631C0.698313 61.4628 0.581543 62.0011 0.573306 62.5465C0.57027 63.0867 0.676075 63.622 0.884408 64.1204C1.09274 64.6188 1.39933 65.0702 1.7859 65.4475C2.17246 65.8249 2.63107 66.1205 3.13437 66.3168C3.63767 66.513 4.17534 66.6059 4.71531 66.5899C5.65758 66.5962 6.57535 66.2899 7.32487 65.7188C8.0744 65.1478 8.61335 64.3442 8.85732 63.4341H6.58908Z" fill="white"/>
</g>
<defs>
<clipPath id="clip0_2358_1965">
<rect width="100" height="100" fill="white" transform="translate(0.573242 0.0720215)"/>
</clipPath>
</defs>
</svg>
