<svg width="101" height="101" viewBox="0 0 101 101" fill="none" xmlns="http://www.w3.org/2000/svg">
<g clip-path="url(#clip0_2358_1992)">
<path d="M85.9722 80.1926C84.6986 80.1926 83.5128 79.3901 83.0948 78.1258C82.5747 76.552 83.4415 74.8583 85.0318 74.3434C90.7931 72.4764 94.5152 67.4767 94.5152 61.6055C94.5152 54.1699 88.4056 48.1199 80.8957 48.1199C80.3741 48.1199 79.8128 48.1607 79.1297 48.2485L76.1683 48.6286L75.7432 45.7012C73.9234 33.1483 62.879 23.6819 50.0528 23.6819C39.4493 23.6819 30.0095 29.967 26.0064 39.6944L25.2528 41.5245L23.258 41.5605C14.0905 41.7275 6.63212 49.2446 6.63212 58.3168C6.63212 64.9397 10.5157 70.9794 16.5255 73.703C18.0461 74.3927 18.715 76.1719 18.0184 77.6775C17.3218 79.1831 15.5257 79.8439 14.0051 79.1565C5.84527 75.4587 0.573242 67.2792 0.573242 58.3168C0.573242 46.6543 9.6489 36.8846 21.1769 35.6846C26.4885 24.6883 37.6207 17.6853 50.052 17.6853C64.9308 17.6853 77.8647 28.0138 81.2187 42.1264C91.9203 42.2981 100.573 50.9705 100.573 61.6063C100.573 69.9872 95.0843 77.3961 86.9158 80.0429C86.6031 80.144 86.2849 80.1926 85.9722 80.1926Z" fill="white"/>
<path d="M39.6421 81.4898C39.6413 81.489 39.6413 81.489 39.6405 81.489C39.6397 81.489 39.6389 81.4882 39.6381 81.4882H39.6373L39.6365 81.4874L39.6358 81.4866C39.6358 81.4866 39.635 81.4866 39.635 81.4859H39.6342L39.6334 81.4851C39.6342 81.4843 39.6326 81.4843 39.6326 81.4843L39.6318 81.4835H39.631L39.6302 81.4827C39.631 81.4835 39.6294 81.482 39.6294 81.482C39.6294 81.482 39.6279 81.4812 39.6271 81.4812L39.6263 81.4804L39.6255 81.4796L39.6247 81.4788C39.6223 81.478 39.6231 81.478 39.6223 81.478C39.6215 81.4788 39.6215 81.4773 39.6207 81.4773L39.6199 81.4765C39.6199 81.4765 39.6192 81.4757 39.6184 81.4757L39.6176 81.4749C39.6168 81.4741 39.6152 81.4741 39.6144 81.4741C39.6136 81.4741 39.612 81.4733 39.6113 81.4733C39.6105 81.4726 39.6105 81.4726 39.6097 81.4726H39.6089C39.6081 81.4718 39.6073 81.4718 39.6065 81.4718C39.6057 81.471 39.6041 81.471 39.6041 81.471H39.6033L39.6018 81.4702C39.601 81.4702 39.601 81.4694 39.601 81.4694H39.6002C39.5535 81.453 39.5037 81.4428 39.4516 81.4405H39.45H39.4484H39.4468C39.4468 81.4405 39.4468 81.4405 39.446 81.4405H39.4452H39.4445L39.4437 81.4397H39.4421H39.4405H39.4397H39.4389H39.4381H39.4365H39.4358H39.435H39.4342H39.4334H39.4326H39.4318H39.431H39.4302C38.1211 81.4397 37.05 80.3846 37.0421 79.0916V52.7417H39.0713H39.0816C39.3923 52.755 39.6041 52.5186 39.6041 52.2345C39.6041 52.0224 39.4729 51.8408 39.2864 51.7649L29.5006 45.0776C29.3251 44.9579 29.0935 44.9579 28.918 45.0776L19.0555 51.8173C18.8705 51.9433 18.7907 52.1742 18.8571 52.3863C18.9243 52.5984 19.1219 52.7425 19.3464 52.7425H21.386L21.3875 79.0987C21.3978 80.9208 22.8761 82.4079 24.7567 82.4548C24.7781 82.4572 24.7986 82.4587 24.8199 82.4587H39.4294H39.4381C39.5725 82.4564 39.6943 82.4032 39.7844 82.3179C39.7844 82.3179 39.7844 82.3179 39.7852 82.3171C39.7867 82.3155 39.7883 82.3139 39.7891 82.3132C39.7899 82.3124 39.7907 82.3124 39.7915 82.3108L39.7923 82.31L39.7931 82.3093L39.7939 82.3085L39.7947 82.3077L39.7954 82.3069L39.7962 82.3061C39.7978 82.3053 39.797 82.3053 39.7978 82.3046C39.7978 82.3046 39.7978 82.3046 39.7986 82.3038L39.7994 82.303C39.7994 82.303 39.7994 82.303 39.8002 82.3022C39.8887 82.2114 39.9441 82.0885 39.9448 81.9523V81.9508V81.95V81.9492V81.9484V81.9476V81.9469V81.9461V81.9445C39.9409 81.7442 39.8184 81.5688 39.6421 81.4898Z" fill="white"/>
<path d="M60.7773 81.49C60.7773 81.49 60.7765 81.4892 60.7757 81.4892C60.7749 81.4892 60.7742 81.4884 60.7734 81.4884H60.7726L60.7718 81.4876L60.771 81.4868H60.7702L60.7694 81.4861L60.7686 81.4853C60.7694 81.4845 60.7678 81.4845 60.767 81.4845L60.7662 81.4837H60.7655C60.7647 81.4837 60.7647 81.4829 60.7647 81.4829C60.7631 81.4837 60.7631 81.4822 60.7631 81.4822L60.7615 81.4814L60.7607 81.4806H60.7599L60.7591 81.4798L60.7583 81.479C60.7576 81.4782 60.7568 81.4782 60.7568 81.4782C60.756 81.479 60.756 81.4775 60.7544 81.4775L60.7536 81.4767L60.7528 81.4759C60.7528 81.4759 60.752 81.4759 60.7512 81.4751C60.7504 81.4743 60.7489 81.4743 60.7481 81.4743C60.7473 81.4743 60.7457 81.4735 60.7449 81.4735C60.7441 81.4728 60.7441 81.4728 60.7433 81.4728C60.7425 81.4728 60.7425 81.4728 60.7417 81.472C60.7417 81.472 60.741 81.472 60.7402 81.4712C60.7378 81.4704 60.7394 81.4704 60.7386 81.4704C60.7362 81.4704 60.7378 81.4704 60.737 81.4696C60.737 81.4696 60.7362 81.4688 60.7354 81.4688L60.7346 81.4681H60.7338C60.6872 81.4516 60.6374 81.4414 60.5852 81.4391H60.5836H60.5828H60.5813H60.5805H60.5797H60.5789L60.5781 81.4383H60.5765H60.5749H60.5742H60.5734H60.5726H60.571H60.5694H60.5686H60.5678H60.567H60.5662H60.5655H60.5647H60.5639H60.5631H60.5623C59.254 81.4383 58.1829 80.3833 58.1749 79.0903V58.6426H60.2137C60.2208 58.6418 60.2263 58.6418 60.2342 58.6426C60.5172 58.6426 60.7465 58.4156 60.7465 58.1354C60.7465 57.9233 60.6153 57.7417 60.4287 57.6658L50.6421 50.9785C50.4666 50.8587 50.235 50.8587 50.0595 50.9785L40.201 57.7174C40.0161 57.8434 39.9362 58.0743 40.0026 58.2864C40.0698 58.4985 40.2674 58.6426 40.4919 58.6426H42.522L42.5236 79.0981C42.5323 80.921 44.0129 82.4089 45.8943 82.455C45.9149 82.4574 45.9354 82.4582 45.956 82.4582H60.5655H60.5742C60.7085 82.4558 60.8303 82.4026 60.9204 82.3173C60.9204 82.3173 60.9204 82.3173 60.9212 82.3165C60.9228 82.3149 60.9259 82.3134 60.9251 82.3126C60.9259 82.3118 60.9267 82.3118 60.9275 82.3102L60.9283 82.3095L60.9291 82.3087L60.9299 82.3079C60.9299 82.3079 60.9307 82.3079 60.9307 82.3071L60.9315 82.3063C60.9323 82.3063 60.9323 82.3055 60.9323 82.3055C60.9346 82.3048 60.9338 82.3048 60.9338 82.304C60.9338 82.304 60.9338 82.304 60.9346 82.3032C60.9346 82.3032 60.9346 82.3032 60.9354 82.3024C60.9354 82.3024 60.9354 82.3024 60.9362 82.3016C61.0247 82.2108 61.0801 82.0879 61.0809 81.9518V81.9502V81.9494V81.9486V81.9478V81.9471V81.9463V81.9455V81.9439C61.0761 81.7443 60.9536 81.569 60.7773 81.49Z" fill="white"/>
<path d="M81.9703 81.4901L81.9688 81.4893C81.968 81.4893 81.9672 81.4885 81.9664 81.4885H81.9656L81.9648 81.4877L81.964 81.4869C81.9632 81.4869 81.9632 81.4869 81.9632 81.4862H81.9624L81.9616 81.4854L81.9609 81.4846C81.9609 81.4846 81.9601 81.4846 81.9601 81.4838H81.9593L81.9585 81.483C81.9577 81.4838 81.9577 81.4823 81.9569 81.4823C81.9577 81.4815 81.9561 81.4815 81.9553 81.4815L81.9545 81.4807H81.9537L81.953 81.4799L81.9522 81.4791C81.9498 81.4783 81.9506 81.4783 81.9506 81.4783C81.9498 81.4791 81.9498 81.4776 81.9482 81.4776L81.9474 81.4768C81.9482 81.476 81.9466 81.476 81.9458 81.476C81.9458 81.476 81.945 81.476 81.945 81.4752C81.9443 81.4744 81.9427 81.4744 81.9419 81.4744C81.9411 81.4744 81.9395 81.4736 81.9387 81.4736L81.9371 81.4729C81.9371 81.4729 81.9364 81.4729 81.9356 81.4721L81.934 81.4713C81.9316 81.4705 81.9316 81.4705 81.9324 81.4705C81.93 81.4705 81.93 81.4705 81.9308 81.4697C81.93 81.4697 81.93 81.4689 81.93 81.4689C81.9292 81.4689 81.9284 81.4682 81.9284 81.4682H81.9277C81.881 81.4517 81.8312 81.4416 81.779 81.4392H81.7783H81.7767H81.7743H81.7735H81.7727H81.7719C81.7711 81.4384 81.7711 81.4384 81.7703 81.4384H81.7688H81.7672H81.7664H81.7656H81.7648H81.7632H81.7617C81.7617 81.4384 81.7616 81.4384 81.7609 81.4384H81.7601H81.7593H81.7585H81.7577H81.7569H81.7561H81.7593H81.7585C80.4502 81.4384 79.379 80.3834 79.3711 79.0904V64.541H81.4051H81.4154C81.7039 64.5339 81.9379 64.3179 81.9379 64.0338C81.9379 63.8217 81.8067 63.6401 81.6201 63.5642L71.8336 56.8769C71.6589 56.7572 71.4265 56.7572 71.251 56.8769L61.3885 63.6159C61.2035 63.7419 61.1237 63.9728 61.1901 64.1849C61.2573 64.397 61.4549 64.541 61.6794 64.541H63.7134L63.715 79.0982C63.7253 80.9211 65.2051 82.4097 67.0858 82.4551C67.1063 82.4575 67.1269 82.4583 67.1474 82.4583H81.7569H81.7656C81.9 82.4559 82.0217 82.4027 82.1118 82.3174L82.1126 82.3166C82.1142 82.315 82.1166 82.3135 82.1166 82.3127C82.1174 82.3119 82.1182 82.3119 82.119 82.3103L82.1198 82.3096L82.1205 82.3088L82.1213 82.308L82.1221 82.3072L82.1229 82.3064L82.1237 82.3056C82.1261 82.3049 82.1245 82.3049 82.1253 82.3041C82.1253 82.3041 82.1253 82.3041 82.1261 82.3033L82.1269 82.3025C82.1269 82.3025 82.1269 82.3025 82.1277 82.3017C82.2162 82.2109 82.2715 82.0881 82.2723 81.9519V81.9503V81.9495V81.9487V81.948V81.9472V81.9464V81.9456V81.944C82.2692 81.7445 82.1458 81.5691 81.9703 81.4901Z" fill="white"/>
</g>
<defs>
<clipPath id="clip0_2358_1992">
<rect width="100" height="100" fill="white" transform="translate(0.573242 0.0720215)"/>
</clipPath>
</defs>
</svg>
