<svg width="101" height="101" viewBox="0 0 101 101" fill="none" xmlns="http://www.w3.org/2000/svg">
<g clip-path="url(#clip0_2358_1972)">
<path d="M40.7227 64.5951C37.0154 61.1058 34.8347 56.3082 34.8347 50.8562C34.8347 45.4043 37.0154 40.6067 40.5047 37.1174C43.5577 34.0644 43.5577 29.2667 40.5047 26.2136C37.4516 23.1606 32.6539 23.1606 29.6008 26.2136C23.4947 32.5378 19.5693 41.2609 19.5693 50.8562C19.5693 60.4516 23.4947 69.1747 29.8189 75.4989C32.872 78.5519 37.6697 78.5519 40.7227 75.4989C43.5577 72.4458 43.5577 67.6481 40.7227 64.5951Z" fill="white"/>
<path d="M40.7229 37.1175C44.2121 33.4102 49.0098 31.2294 54.4617 31.2294C59.9136 31.2294 64.7113 33.4102 68.2005 36.8994C71.2536 39.9525 76.0513 39.9525 79.1043 36.8994C82.1574 33.8464 82.1574 29.0487 79.1043 25.9956C72.7801 19.8895 64.0571 15.9641 54.4617 15.9641C44.8664 15.9641 36.1433 19.8895 29.8191 26.2137C26.766 29.2668 26.766 34.0644 29.8191 37.1175C32.8722 39.9525 37.6698 39.9525 40.7229 37.1175Z" fill="white"/>
<path d="M68.2005 64.5952C64.7113 68.3025 59.9136 70.4833 54.4617 70.4833C49.0098 70.4833 44.2121 68.3025 40.7229 64.8133C37.6698 61.7602 32.8722 61.7602 29.8191 64.8133C26.766 67.8664 26.766 72.6641 29.8191 75.7171C36.1433 81.8233 44.8664 85.7486 54.4617 85.7486C64.0571 85.7486 72.7801 81.8233 79.1043 75.499C82.1574 72.446 82.1574 67.6483 79.1043 64.5952C76.0513 61.7602 71.2536 61.7602 68.2005 64.5952Z" fill="white"/>
<path d="M35.2704 39.2983C39.4858 39.2983 42.903 35.881 42.903 31.6656C42.903 27.4502 39.4858 24.033 35.2704 24.033C31.055 24.033 27.6377 27.4502 27.6377 31.6656C27.6377 35.881 31.055 39.2983 35.2704 39.2983Z" fill="#DADADA"/>
<path d="M35.2704 77.6796C39.4858 77.6796 42.903 74.2624 42.903 70.047C42.903 65.8316 39.4858 62.4143 35.2704 62.4143C31.055 62.4143 27.6377 65.8316 27.6377 70.047C27.6377 74.2624 31.055 77.6796 35.2704 77.6796Z" fill="#DADADA"/>
</g>
<defs>
<clipPath id="clip0_2358_1972">
<rect width="70" height="70" fill="white" transform="translate(15.5732 15.9641)"/>
</clipPath>
</defs>
</svg>
