<svg width="101" height="101" viewBox="0 0 101 101" fill="none" xmlns="http://www.w3.org/2000/svg">
<g clip-path="url(#clip0_2358_1961)">
<path d="M80.2568 24.7556C86.9612 24.7556 93.6656 24.7556 100.573 24.7556C100.531 25.0917 100.489 25.3753 100.403 25.6961C100.387 25.757 100.387 25.757 100.37 25.8192C100.334 25.9538 100.298 26.0882 100.262 26.2227C100.236 26.3197 100.21 26.4167 100.184 26.5137C100.114 26.777 100.044 27.0402 99.973 27.3034C99.8975 27.5845 99.8225 27.8657 99.7474 28.1469C99.5899 28.7366 99.4319 29.3261 99.2737 29.9156C99.1851 30.246 99.0965 30.5765 99.008 30.907C98.7091 32.0229 98.4096 33.1388 98.1099 34.2546C97.7506 35.5924 97.392 36.9304 97.0334 38.2684C96.8944 38.7871 96.7554 39.3058 96.6164 39.8244C96.5638 40.0204 96.5113 40.2164 96.4588 40.4124C96.2312 41.2614 96.0037 42.1103 95.776 42.9592C95.0828 45.5449 94.3899 48.1307 93.6982 50.7169C93.6832 50.7732 93.6681 50.8296 93.6525 50.8877C93.5799 51.1594 93.5072 51.4312 93.4345 51.703C93.3802 51.9064 93.3258 52.1098 93.2713 52.3132C93.1562 52.7435 93.0412 53.174 92.9277 53.6048C92.8801 53.785 92.8325 53.9653 92.7848 54.1455C92.7522 54.2692 92.7198 54.3929 92.6874 54.5166C92.6682 54.5893 92.6489 54.662 92.6291 54.7369C92.6124 54.8005 92.5957 54.8641 92.5785 54.9296C92.5353 55.0721 92.5353 55.0721 92.472 55.1354C92.375 55.1417 92.2777 55.1436 92.1805 55.1438C92.0854 55.1442 92.0854 55.1442 91.9883 55.1446C91.9178 55.1446 91.8473 55.1446 91.7747 55.1445C91.7004 55.1448 91.6261 55.145 91.5496 55.1452C91.3426 55.1458 91.1355 55.146 90.9285 55.1462C90.7055 55.1465 90.4825 55.1471 90.2595 55.1476C89.8727 55.1486 89.4859 55.1493 89.0991 55.1499C88.5391 55.1508 87.9791 55.1521 87.4191 55.1536C86.5096 55.156 85.6001 55.1582 84.6906 55.1602C84.6361 55.1603 84.5817 55.1605 84.5255 55.1606C83.7534 55.1623 82.9813 55.1638 82.2092 55.1652C82.1549 55.1653 82.1006 55.1654 82.0447 55.1655C81.9905 55.1656 81.9363 55.1657 81.8804 55.1658C80.9752 55.1675 80.0699 55.1697 79.1647 55.1723C78.6064 55.1739 78.0482 55.175 77.4899 55.1757C77.1068 55.1761 76.7238 55.177 76.3407 55.1783C76.1199 55.179 75.8991 55.1796 75.6783 55.1795C75.4383 55.1796 75.1984 55.1804 74.9585 55.1815C74.8894 55.1813 74.8203 55.1811 74.7491 55.181C73.8624 55.1814 73.8624 55.1814 73.1049 55.5784C72.8162 55.9701 72.6821 56.3771 72.7439 56.866C72.7768 57.0223 72.8151 57.1759 72.8563 57.3302C72.8708 57.3877 72.8854 57.4452 72.9003 57.5044C72.9464 57.6854 72.9939 57.8661 73.0416 58.0468C73.0709 58.1597 73.1001 58.2727 73.1294 58.3857C73.2216 58.7402 73.3164 59.094 73.4112 59.4478C73.4467 59.5806 73.4821 59.7134 73.5176 59.8463C73.612 60.2002 73.7067 60.5541 73.8015 60.908C73.9013 61.2811 74.001 61.6542 74.1007 62.0274C74.6585 64.115 75.2182 66.2022 75.7785 68.2891C76.1601 69.7102 76.5412 71.1314 76.9216 72.5527C76.9875 72.7991 77.0535 73.0454 77.1195 73.2918C77.1963 73.5783 77.273 73.8648 77.3497 74.1514C77.378 74.2571 77.4063 74.3627 77.4346 74.4684C77.4733 74.6125 77.5118 74.7566 77.5503 74.9008C77.5617 74.9433 77.5732 74.9858 77.5849 75.0296C77.6618 75.318 77.6618 75.318 77.6618 75.3885C70.9365 75.3885 64.2112 75.3885 57.2821 75.3885C56.8435 73.7385 56.4049 72.0885 55.953 70.3885C55.7406 69.5944 55.5282 68.8004 55.3147 68.0066C55.2015 67.5857 55.0885 67.1647 54.9754 66.7438C54.9457 66.6331 54.916 66.5225 54.8863 66.4118C54.6518 65.5393 54.4181 64.6665 54.1846 63.7937C54.074 63.3806 53.9635 62.9676 53.8529 62.5545C53.764 62.2224 53.6751 61.8902 53.5864 61.5581C53.4089 60.894 53.2309 60.2301 53.0515 59.5666C52.9603 59.2285 52.8701 58.8902 52.7808 58.5516C52.7245 58.3386 52.6673 58.1259 52.61 57.9132C52.5836 57.8148 52.5576 57.7164 52.532 57.6178C52.497 57.4833 52.4608 57.3491 52.4242 57.2149C52.4043 57.1398 52.3844 57.0647 52.3638 56.9874C52.252 56.7048 52.095 56.4877 51.8381 56.3159C51.6913 56.2677 51.5664 56.2511 51.4118 56.2469C51.3613 56.2444 51.3107 56.2419 51.2586 56.2393C50.6557 56.3583 50.2138 56.9244 49.7987 57.3427C49.7208 57.4206 49.6428 57.4984 49.5648 57.5762C49.3512 57.7894 49.1382 58.0031 48.9253 58.217C48.6953 58.4478 48.4648 58.678 48.2344 58.9083C47.8355 59.3071 47.4369 59.7063 47.0385 60.1057C46.4625 60.6832 45.886 61.2602 45.3094 61.8371C44.3739 62.773 43.4388 63.7094 42.5039 64.6461C41.5959 65.5559 40.6876 66.4655 39.7791 67.3748C39.7231 67.4308 39.6671 67.4869 39.6094 67.5447C39.3283 67.8259 39.0473 68.1072 38.7663 68.3884C36.4355 70.7212 34.1054 73.0546 31.7758 75.3885C31.7131 75.3676 31.6505 75.3468 31.5859 75.3252C31.5191 75.1359 31.4653 74.9531 31.4159 74.7591C31.3921 74.6693 31.3921 74.6693 31.3677 74.5777C31.3145 74.3768 31.2624 74.1757 31.2104 73.9746C31.173 73.8329 31.1356 73.6912 31.0982 73.5495C31.0182 73.2465 30.9387 72.9434 30.8596 72.6402C30.735 72.1625 30.6093 71.6851 30.4833 71.2077C30.4412 71.0477 30.399 70.8878 30.3568 70.7279C30.3256 70.6094 30.3256 70.6094 30.2937 70.4885C30.2305 70.2487 30.1674 70.0088 30.1043 69.7689C29.7863 68.5594 29.4626 67.3516 29.1345 66.1448C29.0233 65.7356 28.9124 65.3263 28.8016 64.9171C28.7893 64.8716 28.777 64.8262 28.7643 64.7794C28.3437 63.2258 27.9309 61.6702 27.5173 60.1148C27.4545 59.8787 27.3916 59.6426 27.3288 59.4065C27.2861 59.2459 27.2434 59.0854 27.2008 58.9248C27.1359 58.6806 27.0705 58.4366 27.0048 58.1927C26.9779 58.0925 26.9512 57.9923 26.9245 57.8921C26.8836 57.7383 26.8422 57.5847 26.8006 57.431C26.7885 57.3851 26.7764 57.3392 26.7639 57.2918C26.5658 56.5666 26.2261 55.9603 25.5708 55.5636C24.8725 55.1915 24.1246 55.1893 23.3518 55.1886C23.2771 55.1883 23.2024 55.188 23.1254 55.1877C22.9197 55.1869 22.7141 55.1864 22.5084 55.186C22.286 55.1854 22.0635 55.1846 21.8411 55.1838C21.4563 55.1824 21.0714 55.1812 20.6866 55.1802C20.1302 55.1788 19.5739 55.177 19.0175 55.1752C18.1147 55.1721 17.2119 55.1694 16.3091 55.1668C15.4324 55.1643 14.5557 55.1617 13.679 55.1589C13.6249 55.1588 13.5708 55.1586 13.515 55.1584C13.2437 55.1575 12.9723 55.1567 12.7009 55.1558C10.4516 55.1486 8.2023 55.1418 5.95299 55.1354C5.89286 54.9257 5.83281 54.716 5.77278 54.5063C5.74756 54.4184 5.74755 54.4184 5.72182 54.3286C5.56391 53.7768 5.41421 53.2229 5.26668 52.6682C5.23844 52.5624 5.21019 52.4566 5.18193 52.3508C5.12196 52.1262 5.06205 51.9016 5.0022 51.677C4.90638 51.3173 4.81039 50.9577 4.71436 50.5981C4.69803 50.5369 4.68171 50.4758 4.66488 50.4128C4.63167 50.2884 4.59845 50.164 4.56523 50.0396C4.5149 49.8511 4.46459 49.6626 4.41428 49.4741C4.09858 48.2914 3.78139 47.1091 3.46394 45.9269C2.91489 43.8821 2.36731 41.837 1.82065 39.7915C1.79186 39.6838 1.76308 39.5762 1.73429 39.4685C1.66413 39.206 1.59401 38.9436 1.52398 38.6811C1.39097 38.1829 1.25731 37.6848 1.12209 37.1871C1.05656 36.9459 0.991255 36.7046 0.925956 36.4634C0.894612 36.3478 0.863155 36.2323 0.831575 36.1168C0.787927 35.9572 0.744663 35.7975 0.701478 35.6378C0.688424 35.5904 0.67537 35.5431 0.661921 35.4944C0.60437 35.2801 0.573242 35.1061 0.573242 34.8822C7.27767 34.8822 13.9821 34.8822 20.8897 34.8822C22.3318 40.2181 22.3318 40.2181 22.8633 42.2176C23.0058 42.7533 23.1486 43.2889 23.2913 43.8245C23.3151 43.9141 23.3152 43.9141 23.3395 44.0054C23.8377 45.8754 24.3386 47.7446 24.8416 49.6133C24.9808 50.1305 25.1193 50.648 25.2566 51.1658C25.3275 51.4331 25.399 51.7004 25.4706 51.9675C25.5015 52.0835 25.5322 52.1994 25.5626 52.3155C25.6026 52.4681 25.6434 52.6205 25.6845 52.7728C25.6954 52.8153 25.7063 52.8577 25.7175 52.9015C25.8042 53.2175 25.935 53.5006 26.195 53.7088C26.5103 53.8635 26.8059 53.9448 27.1555 53.8695C27.6884 53.6652 28.0399 53.2724 28.4327 52.8747C28.5102 52.7972 28.5878 52.7197 28.6654 52.6422C28.8781 52.4298 29.0899 52.2165 29.3017 52.0032C29.5303 51.773 29.7598 51.5436 29.9891 51.3141C30.3861 50.9165 30.7828 50.5185 31.1791 50.1201C31.7522 49.5441 32.3261 48.9689 32.9002 48.3939C33.8318 47.4608 34.763 46.5272 35.6937 45.5932C35.7494 45.5373 35.8051 45.4814 35.8625 45.4238C36.0882 45.1974 36.3138 44.9709 36.5395 44.7444C37.1614 44.1204 37.7834 43.4964 38.4054 42.8724C38.4611 42.8165 38.5168 42.7606 38.5743 42.703C39.5021 41.7724 40.4302 40.8421 41.3586 39.912C41.9316 39.338 42.5041 38.7637 43.0762 38.1889C43.4678 37.7956 43.8597 37.4025 44.2518 37.0098C44.4784 36.7829 44.7047 36.5558 44.9306 36.3284C45.1372 36.1204 45.3441 35.9129 45.5514 35.7058C45.6266 35.6305 45.7017 35.555 45.7765 35.4794C45.8778 35.3772 45.9795 35.2756 46.0815 35.1741C46.1381 35.1173 46.1946 35.0605 46.2529 35.002C46.396 34.8822 46.396 34.8822 46.5859 34.8822C46.5998 34.9349 46.6138 34.9877 46.6281 35.042C47.3838 37.9026 48.1448 40.7618 48.9142 43.6188C48.9971 43.9265 49.0799 44.2343 49.1628 44.542C49.1792 44.6028 49.1955 44.6637 49.2124 44.7263C49.4642 45.6614 49.7146 46.5969 49.9643 47.5325C49.9974 47.6566 50.0305 47.7806 50.0637 47.9047C50.3191 48.8617 50.3191 48.8617 50.4417 49.3224C50.5934 49.8922 50.7457 50.4619 50.8996 51.0311C50.9777 51.3203 51.0547 51.6098 51.1309 51.8995C51.1799 52.0846 51.2298 52.2694 51.2799 52.4542C51.3134 52.5791 51.3459 52.7042 51.3783 52.8293C51.5889 53.5986 51.8943 54.2714 52.5986 54.6923C52.9635 54.8833 53.2992 55.0164 53.7143 55.0173C53.7732 55.0176 53.8321 55.0178 53.8928 55.0181C53.9573 55.0181 54.0218 55.0181 54.0882 55.0181C54.1569 55.0183 54.2256 55.0186 54.2964 55.0188C54.5273 55.0195 54.7583 55.0197 54.9893 55.02C55.1546 55.0204 55.3199 55.0208 55.4852 55.0212C55.9818 55.0225 56.4785 55.0231 56.9751 55.0237C57.2092 55.024 57.4433 55.0243 57.6773 55.0246C58.4558 55.0257 59.2343 55.0266 60.0128 55.0271C60.2147 55.0272 60.4167 55.0273 60.6186 55.0275C60.6688 55.0275 60.719 55.0275 60.7707 55.0276C61.5832 55.0281 62.3957 55.0297 63.2082 55.0317C64.043 55.0338 64.8778 55.035 65.7126 55.0352C66.181 55.0353 66.6495 55.0359 67.1179 55.0375C67.5589 55.039 67.9998 55.0392 68.4408 55.0386C68.6023 55.0385 68.7639 55.0389 68.9254 55.0398C69.1466 55.0409 69.3677 55.0405 69.5889 55.0397C69.6523 55.0403 69.7156 55.041 69.7809 55.0418C70.5921 55.0344 71.3111 54.7233 71.9162 54.1885C72.6164 53.4641 72.8493 52.4996 73.0933 51.5545C73.127 51.4267 73.1609 51.2989 73.1948 51.1712C73.2668 50.8993 73.3383 50.6273 73.4092 50.3551C73.5217 49.9233 73.6356 49.4919 73.7497 49.0605C73.8857 48.5462 74.0214 48.0317 74.1566 47.5172C74.3704 46.704 74.5863 45.8913 74.8046 45.0792C74.819 45.0257 74.8334 44.9722 74.8482 44.917C74.9194 44.6523 74.9906 44.3877 75.0618 44.123C75.1891 43.6502 75.316 43.1774 75.4429 42.7045C75.4711 42.5994 75.4993 42.4943 75.5275 42.3892C75.8552 41.168 76.1818 39.9465 76.5083 38.725C77.1612 36.2826 77.1612 36.2826 77.4561 35.1821C77.4683 35.1365 77.4805 35.0909 77.4931 35.0439C78.4124 31.6139 79.3349 28.1849 80.2568 24.7556Z" fill="white"/>
</g>
<defs>
<clipPath id="clip0_2358_1961">
<rect width="100" height="100" fill="white" transform="translate(0.573242 0.0720215)"/>
</clipPath>
</defs>
</svg>
