<svg width="101" height="101" viewBox="0 0 101 101" fill="none" xmlns="http://www.w3.org/2000/svg">
<path fill-rule="evenodd" clip-rule="evenodd" d="M35.5828 82.572H20.0603L37.2266 46.692L45.004 62.7045L35.5828 82.572ZM38.3478 43.2633C38.2446 43.052 38.0843 42.874 37.885 42.7494C37.6857 42.6247 37.4554 42.5585 37.2203 42.5583H37.2166C36.9805 42.5583 36.7492 42.625 36.5495 42.7509C36.3497 42.8768 36.1897 43.0566 36.0878 43.2695L16.9453 83.2833C16.8542 83.474 16.813 83.6846 16.8254 83.8956C16.8379 84.1066 16.9036 84.3109 17.0165 84.4896C17.1293 84.6683 17.2856 84.8154 17.4708 84.9173C17.656 85.0191 17.864 85.0724 18.0753 85.072H36.3753C36.8603 85.072 37.3003 84.7933 37.5078 84.357L47.5278 63.232C47.6078 63.0633 47.6488 62.8787 47.6477 62.6919C47.6466 62.5052 47.6035 62.3211 47.5215 62.1533L38.3478 43.2633ZM81.8166 82.572H66.3978L41.6566 30.7845C41.5545 30.571 41.3941 30.3908 41.1939 30.2647C40.9937 30.1386 40.7619 30.0718 40.5253 30.072H30.4353L30.4466 17.572H50.2216L74.8478 69.3583C75.0553 69.7933 75.4965 70.072 75.9803 70.072H81.8178L81.8166 82.572ZM83.0703 67.572H76.7728L52.1478 15.7858C52.0457 15.5718 51.8849 15.3911 51.6843 15.2648C51.4836 15.1384 51.2512 15.0716 51.0141 15.072H29.1953C28.5041 15.072 27.9428 15.6308 27.9416 16.3208L27.9291 31.3208C27.9289 31.4851 27.9611 31.6479 28.024 31.7998C28.0868 31.9517 28.1789 32.0897 28.2952 32.2059C28.4114 32.3221 28.5494 32.4143 28.7013 32.4771C28.8532 32.5399 29.0159 32.5722 29.1803 32.572H39.7328L64.474 84.3595C64.6828 84.7945 65.1203 85.072 65.6041 85.072H83.069C83.2335 85.0725 83.3965 85.0405 83.5486 84.9779C83.7006 84.9153 83.8389 84.8233 83.9554 84.7072C84.0718 84.5911 84.1642 84.4531 84.2273 84.3012C84.2903 84.1493 84.3228 83.9865 84.3228 83.822V68.822C84.3228 68.6577 84.2904 68.4949 84.2274 68.3431C84.1644 68.1913 84.0721 68.0534 83.9558 67.9372C83.8395 67.8211 83.7014 67.7291 83.5494 67.6664C83.3975 67.6038 83.2347 67.5717 83.0703 67.572Z" fill="white"/>
</svg>
