<svg width="101" height="101" viewBox="0 0 101 101" fill="none" xmlns="http://www.w3.org/2000/svg">
<g clip-path="url(#clip0_2358_1987)">
<path d="M28.3669 64.9129C27.2789 64.9129 26.3981 64.0313 26.3981 62.9457C26.3981 61.86 27.2803 60.9784 28.3669 60.9784C29.4534 60.9784 30.3357 61.86 30.3357 62.9457C30.3357 64.0313 29.4549 64.9129 28.3669 64.9129ZM29.8866 35.4735C28.4031 34.8597 26.6951 35.1984 25.5607 36.3333L16.4555 45.4314L7.35034 36.3333C6.21454 35.1984 4.50796 34.8597 3.02447 35.4735C1.54098 36.0872 0.573242 37.5334 0.573242 39.1387V62.9457C0.573242 65.1358 2.35082 66.912 4.54272 66.912C6.73463 66.912 8.51221 65.1358 8.51221 62.9457V48.7159L13.6479 53.8476C15.198 55.3965 17.7116 55.3965 19.2617 53.8476L24.3974 48.7159V62.9457C24.3974 65.1358 26.175 66.912 28.3669 66.912C30.5588 66.912 32.3364 65.1358 32.3364 62.9457V39.1387C32.3378 37.5348 31.3701 36.0887 29.8866 35.4735Z" fill="white"/>
<path d="M62.4845 40.9512C61.3965 40.9512 60.5157 40.0696 60.5157 38.9839C60.5157 37.8982 61.398 37.0167 62.4845 37.0167C63.5725 37.0167 64.4533 37.8982 64.4533 38.9839C64.4533 40.0696 63.5725 40.9512 62.4845 40.9512ZM62.4845 35.0161C60.2926 35.0161 58.515 36.7923 58.515 38.9825V50.8859C58.515 55.262 54.9512 58.823 50.5717 58.823C46.1923 58.823 42.6284 55.262 42.6284 50.8859V38.9825C42.6284 36.7923 40.8508 35.0161 38.6589 35.0161C36.467 35.0161 34.6895 36.7923 34.6895 38.9825V50.8859C34.6895 59.6366 41.8142 66.7558 50.5717 66.7558C59.3292 66.7558 66.454 59.6366 66.454 50.8859V38.9825C66.454 36.7923 64.6779 35.0161 62.4845 35.0161Z" fill="white"/>
<path d="M96.6049 64.7567C95.5169 64.7567 94.6361 63.8751 94.6361 62.7894C94.6361 61.7037 95.5184 60.8221 96.6049 60.8221C97.6929 60.8221 98.5737 61.7037 98.5737 62.7894C98.5737 63.8751 97.6929 64.7567 96.6049 64.7567ZM79.0783 50.886L69.9731 59.984C68.423 61.5329 68.423 64.0445 69.9731 65.5934C71.5233 67.1423 74.0368 67.1423 75.5869 65.5934L84.6921 56.4953L93.7973 65.5934C95.3474 67.1423 97.8609 67.1423 99.4111 65.5934C100.961 64.0445 100.961 61.5329 99.4111 59.984L90.3059 50.886L99.4111 41.7879C100.961 40.239 100.961 37.7274 99.4111 36.1785C97.8609 34.6296 95.3474 34.6296 93.7973 36.1785L84.6921 45.2766L75.5869 36.1785C74.0368 34.6296 71.5233 34.6296 69.9731 36.1785C68.423 37.7274 68.423 40.239 69.9731 41.7879L79.0783 50.886Z" fill="white"/>
</g>
<defs>
<clipPath id="clip0_2358_1987">
<rect width="100" height="100" fill="white" transform="translate(0.573242 0.964111)"/>
</clipPath>
</defs>
</svg>
