<svg width="101" height="101" viewBox="0 0 101 101" fill="none" xmlns="http://www.w3.org/2000/svg">
<path d="M48.2305 15.0909C48.0766 15.1045 47.5869 15.1524 47.1463 15.1866C36.983 16.0829 27.4633 21.4467 21.4338 29.6909C18.0764 34.2747 15.929 39.4744 15.1177 44.9819C14.8309 46.9044 14.7959 47.4722 14.7959 50.0789C14.7959 52.6855 14.8309 53.2534 15.1177 55.1759C17.0622 68.3186 26.6239 79.361 39.592 83.4523C41.9143 84.1843 44.3624 84.6838 47.1463 84.9848C48.2305 85.1011 52.9169 85.1011 54.0011 84.9848C58.8064 84.4648 62.8773 83.3018 66.8923 81.2972C67.5078 80.9893 67.6267 80.9072 67.5428 80.8388C67.4868 80.7977 64.8638 77.3564 61.7162 73.1967L55.9946 65.6367L48.825 55.258C44.88 49.5521 41.6345 44.8861 41.6065 44.8861C41.5785 44.8792 41.5505 49.4905 41.5366 55.1211C41.5156 64.9799 41.5086 65.3767 41.3827 65.6093C41.2008 65.9446 41.0609 66.0814 40.7671 66.2319C40.5433 66.3414 40.3475 66.3619 39.2913 66.3619H38.0812L37.7594 66.1635C37.5496 66.0335 37.3957 65.8625 37.2908 65.6641L37.1439 65.3562L37.1579 51.6388L37.1789 37.9145L37.3957 37.6477C37.5076 37.504 37.7454 37.3193 37.9133 37.2303C38.2001 37.0935 38.312 37.0798 39.5221 37.0798C40.949 37.0798 41.1868 37.1345 41.5575 37.5314C41.6625 37.6408 45.5445 43.3604 50.189 50.2499C54.8334 57.1394 61.1846 66.5466 64.3042 71.1647L69.9699 79.5594L70.2567 79.3747C72.7958 77.76 75.4817 75.4613 77.6081 73.0667C82.1337 67.9834 85.0504 61.7849 86.0297 55.1759C86.3165 53.2534 86.3515 52.6855 86.3515 50.0789C86.3515 47.4722 86.3165 46.9044 86.0297 44.9819C84.0852 31.8391 74.5235 20.7968 61.5553 16.7055C59.2681 15.9803 56.8339 15.4808 54.106 15.1798C53.4345 15.1114 48.811 15.0361 48.2305 15.0909ZM62.8773 36.2588C63.2131 36.423 63.4859 36.7377 63.5838 37.0661C63.6397 37.244 63.6537 41.0479 63.6397 49.6205L63.6188 61.9217L61.4014 58.5967L59.1771 55.2717V46.3297C59.1771 40.5485 59.2051 37.2987 59.2471 37.1414C59.359 36.7583 59.6038 36.4572 59.9396 36.2793C60.2263 36.1357 60.3313 36.122 61.4294 36.122C62.4646 36.122 62.6465 36.1357 62.8773 36.2588Z" fill="white"/>
</svg>
