<svg width="101" height="101" viewBox="0 0 101 101" fill="none" xmlns="http://www.w3.org/2000/svg">
<g clip-path="url(#clip0_2358_1980)">
<path fill-rule="evenodd" clip-rule="evenodd" d="M22.1436 41.979H7.61816V49.3447H14.7654C15.02 49.3447 15.2266 49.5536 15.2266 49.8112V56.9398H22.6048V42.4463C22.605 42.3224 22.5566 42.2036 22.47 42.1159C22.3835 42.0283 22.2661 41.979 22.1436 41.979Z" fill="white"/>
<path opacity="0.405" fill-rule="evenodd" clip-rule="evenodd" d="M7.61804 41.979V49.3447H0.803858C0.710221 49.3446 0.625946 49.2872 0.590471 49.1996C0.554996 49.112 0.575337 49.0113 0.641976 48.9448L7.61804 41.979ZM15.6202 63.9133C15.5539 63.9792 15.4549 63.9985 15.3691 63.9622C15.2834 63.9259 15.2275 63.8411 15.2273 63.747V56.9398H22.6055L15.6202 63.9125V63.9133Z" fill="white"/>
<path opacity="0.405" fill-rule="evenodd" clip-rule="evenodd" d="M7.61816 49.3447H14.9972C15.1237 49.3447 15.2274 49.4488 15.2274 49.5775V56.9398H8.0802C7.82549 56.9398 7.61901 56.731 7.61901 56.4734V49.3447H7.61816Z" fill="white"/>
<path fill-rule="evenodd" clip-rule="evenodd" d="M97.0079 41.5142C97.4202 41.9269 97.9067 42.1324 98.4682 42.1324C99.0474 42.1324 99.5432 41.9269 99.9555 41.5142C100.368 41.1015 100.574 40.6155 100.574 40.0535C100.574 39.4924 100.368 39.0013 99.9555 38.58C99.5682 38.1694 99.0293 37.9405 98.4682 37.9482C97.9067 37.9482 97.4202 38.1588 97.0079 38.5792C96.5956 39.0013 96.3899 39.4916 96.3899 40.0544C96.3899 40.6155 96.5956 41.1015 97.0079 41.5142ZM52.2714 46.8965C52.2714 46.9392 52.2359 46.975 52.1929 46.975H49.2968V52.4494C49.2968 52.9056 49.4115 53.239 49.6391 53.4496C49.8668 53.6603 50.2006 53.7779 50.6391 53.8044C51.0404 53.8291 51.5294 53.8274 52.107 53.8001L52.1887 53.7958C52.21 53.7947 52.2309 53.8024 52.2463 53.8173C52.2618 53.8321 52.2705 53.8527 52.2705 53.8743V56.7999C52.2708 56.8401 52.2409 56.874 52.2014 56.8784L52.1483 56.8844C49.8802 57.1257 48.2758 56.9014 47.3365 56.2124C46.3804 55.5106 45.9032 54.2563 45.9032 52.4494V46.975H43.6908C43.648 46.975 43.6132 46.9399 43.6132 46.8965V43.7901C43.6132 43.7475 43.6478 43.7117 43.6908 43.7117H45.9024V41.5398C45.9024 41.4767 45.9394 41.4204 45.9959 41.3948L49.188 39.9904C49.2121 39.9794 49.24 39.9815 49.2622 39.996C49.2843 40.0105 49.2977 40.0354 49.2976 40.0621V43.7117H52.1929C52.2351 43.7117 52.2705 43.7466 52.2705 43.7901V46.8965H52.2714ZM58.4262 45.9756C58.7415 45.1331 59.2635 44.5013 59.9911 44.08C60.7089 43.6667 61.5207 43.4492 62.3468 43.449C62.3898 43.449 62.4252 43.484 62.4252 43.5283V47.0969C62.4252 47.133 62.41 47.1674 62.3835 47.1917C62.357 47.2159 62.3216 47.2276 62.2861 47.224C61.3072 47.1353 60.4278 47.351 59.6488 47.8703C58.8335 48.4135 58.4262 49.3174 58.4262 50.5811V56.7923C58.4262 56.8132 58.4179 56.8333 58.4032 56.848C58.3885 56.8628 58.3685 56.8709 58.3478 56.8707H55.1085C55.0657 56.8707 55.0309 56.8356 55.0309 56.7923V43.7893C55.0309 43.7466 55.0655 43.7108 55.1085 43.7108H58.3478C58.39 43.7108 58.4254 43.7458 58.4254 43.7893V45.9739L58.4262 45.9756ZM74.4761 43.7117C74.4553 43.7114 74.4354 43.7196 74.4207 43.7343C74.4059 43.7491 74.3977 43.7692 74.3977 43.7901V45.2653C73.3808 43.9837 71.9509 43.3433 70.1086 43.3433C68.3549 43.3433 66.8499 44.0144 65.5962 45.3565C64.3416 46.6987 63.7143 48.3436 63.7143 50.2912C63.7143 52.2388 64.3416 53.8837 65.5962 55.2258C66.8499 56.568 68.3549 57.2391 70.1086 57.2391C71.9509 57.2391 73.38 56.5987 74.3977 55.3179V56.7923C74.3977 56.8349 74.4331 56.8707 74.4761 56.8707H77.7145C77.7575 56.8707 77.7929 56.8358 77.7929 56.7923V43.7893C77.7929 43.7683 77.7847 43.7482 77.7699 43.7335C77.7552 43.7188 77.7352 43.7106 77.7145 43.7108H74.4761V43.7117ZM68.1357 52.9755C68.8195 53.6603 69.6871 54.0022 70.741 54.0022C71.7932 54.0022 72.6659 53.6551 73.3589 52.9619C74.052 52.2695 74.3977 51.3793 74.3977 50.2912C74.3977 49.2031 74.052 48.3129 73.3589 47.6196C72.6659 46.9272 71.7932 46.5802 70.7402 46.5802C69.6879 46.5802 68.8195 46.9272 68.1349 47.6205C67.4519 48.3129 67.1088 49.2031 67.1088 50.2912C67.1088 51.3793 67.4511 52.2737 68.1357 52.9755ZM92.8816 45.3565C91.627 44.0144 90.1136 43.3433 88.3422 43.3433C86.5 43.3433 85.0793 43.9837 84.0793 45.2645V43.7901C84.0793 43.7468 84.0446 43.7117 84.0018 43.7117H80.7624C80.7196 43.7117 80.6849 43.7468 80.6849 43.7901V62.0552C80.6849 62.0987 80.7194 62.1345 80.7624 62.1345H84.0018C84.0439 62.1345 84.0793 62.0987 84.0793 62.0552V55.3179C85.0793 56.5987 86.5 57.2391 88.3422 57.2391C90.1136 57.2391 91.627 56.568 92.8816 55.2258C94.1354 53.8837 94.7626 52.2388 94.7626 50.2912C94.7626 48.3436 94.1354 46.6987 92.8816 45.3565ZM85.1054 52.9755C85.79 53.6603 86.6576 54.0022 87.7107 54.0022C88.7629 54.0022 89.6356 53.6551 90.3286 52.9619C91.0217 52.2695 91.3682 51.3793 91.3682 50.2912C91.3682 49.2031 91.0217 48.3129 90.3286 47.6196C89.6356 46.9272 88.7629 46.5802 87.7107 46.5802C86.6576 46.5802 85.79 46.9272 85.1054 47.6205C84.4216 48.3129 84.0793 49.2031 84.0793 50.2912C84.0793 51.3793 84.4216 52.2737 85.1054 52.9755ZM96.862 56.8707C96.8192 56.8707 96.7845 56.8356 96.7845 56.7923V43.7893C96.7845 43.7466 96.819 43.7108 96.862 43.7108H100.101C100.144 43.7108 100.179 43.7458 100.179 43.7893V56.7931C100.179 56.8364 100.144 56.8716 100.101 56.8716H96.862V56.8707ZM36.3379 48.3044C35.8725 48.0852 35.6406 47.7996 35.6406 47.4491C35.6406 47.1157 35.7848 46.8522 36.0748 46.6595C36.364 46.4668 36.7282 46.3696 37.1667 46.3696C38.0073 46.3696 38.6421 46.6979 39.0721 47.3536C39.1017 47.3995 39.1596 47.4175 39.2096 47.3962L42.0745 46.1283C42.0946 46.1192 42.1099 46.1019 42.1166 46.0808C42.1234 46.0597 42.1209 46.0366 42.1099 46.0174C42.077 45.9618 42.0432 45.9067 42.0088 45.852C41.5189 45.0803 40.884 44.5047 40.0873 44.0672C39.2104 43.5846 38.2366 43.3433 37.1667 43.3433C35.7451 43.3433 34.5572 43.7159 33.6002 44.4621C32.645 45.2073 32.1669 46.2297 32.1669 47.5276C32.1669 48.3879 32.3996 49.1025 32.8642 49.673C33.3131 50.2315 33.898 50.6623 34.5614 50.9231C35.2275 51.1857 35.8944 51.4057 36.5613 51.5805C37.2274 51.7562 37.794 51.954 38.2585 52.1731C38.7231 52.3923 38.9558 52.6771 38.9558 53.0284C38.9558 53.783 38.3504 54.1599 37.1405 54.1599C35.988 54.1599 35.1895 53.7336 34.7452 52.8826C34.7082 52.8081 34.6203 52.7756 34.5445 52.8084L31.688 54.0747C31.6688 54.0832 31.6538 54.0993 31.6464 54.1192C31.6391 54.1392 31.6401 54.1612 31.6492 54.1804L31.6813 54.2461C32.6795 56.2414 34.499 57.2391 37.1405 57.2391C38.6489 57.2391 39.9077 56.875 40.9161 56.1476C41.9253 55.4186 42.4295 54.3791 42.4295 53.0284C42.4295 52.1331 42.1968 51.3878 41.7322 50.7909C41.2942 50.2149 40.7066 49.7732 40.035 49.5152C39.3813 49.2648 38.7135 49.0539 38.0351 48.8834C37.3682 48.7162 36.8024 48.5235 36.3379 48.3035V48.3044Z" fill="white"/>
</g>
<defs>
<clipPath id="clip0_2358_1980">
<rect width="100" height="100" fill="white" transform="translate(0.573242 0.964111)"/>
</clipPath>
</defs>
</svg>
