<svg width="101" height="101" viewBox="0 0 101 101" fill="none" xmlns="http://www.w3.org/2000/svg">
<g clip-path="url(#clip0_2358_1970)">
<path d="M60.5803 47.1424H58.0877C58.0365 46.9438 57.9983 46.7136 57.9729 46.4521C57.9221 45.9433 57.9221 45.4309 57.9729 44.922C57.9983 44.6612 58.0365 44.4311 58.0877 44.2314H64.2998V63.3774C63.9888 63.43 63.6752 63.4672 63.3603 63.4888C63.0476 63.5121 62.734 63.5244 62.4203 63.5257C62.1198 63.5239 61.8195 63.5115 61.5199 63.4888C61.2052 63.4671 60.8918 63.4297 60.5809 63.3768V47.1416V47.142L60.5803 47.1424ZM82.2059 51.9573C82.2059 51.2604 82.1099 50.595 81.9187 49.96C81.7267 49.326 81.4447 48.7725 81.0751 48.2995C80.7037 47.8272 80.2311 47.4474 79.6559 47.1615C79.0809 46.8753 78.3969 46.732 77.6045 46.732C76.0452 46.732 74.85 47.193 74.0194 48.1132C73.1886 49.0336 72.684 50.3149 72.5048 51.9573H82.2061H82.2059ZM72.4666 54.7188C72.5178 56.8088 73.0738 58.3392 74.1346 59.3091C75.195 60.2793 76.761 60.7652 78.8317 60.7652C80.6461 60.7652 82.3717 60.4537 84.0077 59.8318C84.2117 60.2049 84.3777 60.6591 84.5057 61.194C84.6313 61.7149 84.7083 62.2457 84.7357 62.78C83.8927 63.1292 82.9653 63.3893 81.9563 63.5639C80.9459 63.7375 79.8277 63.8251 78.6015 63.8251C76.8115 63.8251 75.2774 63.5818 74 63.0971C72.7216 62.6114 71.6672 61.9271 70.8364 61.0443C70.0058 60.1613 69.3984 59.1162 69.015 57.9092C68.6318 56.7029 68.4396 55.3778 68.4396 53.9347C68.4396 52.5166 68.6248 51.1915 68.9956 49.9596C69.3656 48.7287 69.9356 47.6587 70.7016 46.7505C71.4688 45.842 72.4336 45.1208 73.5968 44.5858C74.7594 44.0509 76.1332 43.783 77.7189 43.783C79.0735 43.783 80.2621 44.0073 81.2849 44.455C82.3069 44.9028 83.1635 45.5187 83.8539 46.3024C84.5439 47.0863 85.0679 48.0194 85.4259 49.1011C85.7835 50.1839 85.9631 51.3593 85.9631 52.6285C85.9631 52.977 85.9495 53.3437 85.9241 53.7291C85.9031 54.0591 85.8777 54.3888 85.8477 54.7181H72.4658L72.4662 54.7186L72.4666 54.7188ZM90.1448 44.2314C90.4116 44.1842 90.6802 44.1469 90.95 44.1196C91.205 44.0953 91.474 44.0826 91.7552 44.0826C92.0364 44.0826 92.3172 44.0953 92.5988 44.1196C92.8798 44.1449 93.1356 44.1823 93.3658 44.2314C93.4418 44.6047 93.5186 45.0967 93.595 45.7056C93.6716 46.3153 93.7106 46.8311 93.7106 47.2543C94.2472 46.4087 94.9566 45.6742 95.8382 45.0521C96.7202 44.4305 97.8512 44.119 99.2314 44.119C99.4358 44.119 99.6466 44.1257 99.864 44.1381C100.05 44.1478 100.236 44.1661 100.42 44.1936C100.471 44.4179 100.51 44.6546 100.535 44.903C100.56 45.1516 100.573 45.413 100.573 45.6865C100.573 45.9853 100.554 46.2966 100.516 46.6193C100.479 46.9313 100.434 47.2423 100.382 47.5522C100.175 47.5025 99.9624 47.4775 99.749 47.4776H99.231C98.541 47.4776 97.8826 47.5711 97.2564 47.7574C96.6296 47.9442 96.0676 48.274 95.5692 48.7463C95.0712 49.2193 94.6746 49.8664 94.3812 50.6875C94.0866 51.5086 93.94 52.566 93.94 53.8596V63.3768C93.629 63.4294 93.3154 63.467 93.0004 63.4886C92.6558 63.5135 92.3424 63.5256 92.0614 63.5256C91.7478 63.5243 91.4344 63.512 91.1218 63.4886C90.7942 63.4654 90.4679 63.4282 90.1438 63.377V44.2316L90.1448 44.2314ZM63.2337 34.0082C63.2338 34.4549 63.1509 34.898 62.9891 35.316C62.5595 35.4735 62.1042 35.5542 61.6451 35.5543H61.6395C61.1805 35.5543 60.7251 35.4737 60.2955 35.3162C60.1335 34.8981 60.0505 34.4549 60.0505 34.0081V34.0022C60.0505 33.5418 60.1373 33.1009 60.2945 32.6941C60.7242 32.5363 61.1797 32.4557 61.6389 32.456H61.6441C62.1173 32.456 62.5701 32.5405 62.9881 32.6941C63.1501 33.1122 63.233 33.5554 63.2327 34.0022V34.0081H63.2333L63.2337 34.0082ZM67.919 32.9726H64.2038L66.8306 30.4157C66.4175 29.851 65.9104 29.3576 65.3302 28.9557L62.7029 31.5126V27.8963C62.3536 27.8391 62 27.8103 61.6457 27.8101H61.6389C61.2785 27.8101 60.9255 27.84 60.5815 27.8963V31.5126L57.9537 28.9555C57.6643 29.156 57.3927 29.3797 57.1417 29.6244L57.1405 29.6255C56.8895 29.87 56.6599 30.1343 56.4539 30.4159L59.0817 32.9726H55.3657C55.3657 32.9726 55.2773 33.652 55.2773 34.0032V34.0075C55.2773 34.3586 55.3079 34.7028 55.3659 35.0378H59.0819L56.4537 37.5944C56.8671 38.159 57.3742 38.6525 57.9543 39.0548L60.5817 36.498V40.1145C60.9253 40.1706 61.2777 40.2002 61.6377 40.2006H61.6467C62.0006 40.2003 62.3538 40.1715 62.7027 40.1145V36.498L65.3304 39.0554C65.6198 38.8547 65.8916 38.631 66.143 38.3865H66.1436C66.3944 38.1418 66.624 37.8772 66.83 37.5956L64.2032 35.038H67.9192C67.9768 34.7032 68.0072 34.3602 68.0072 34.0098V34.0008C68.0072 33.6563 67.9776 33.3127 67.9192 32.973L67.919 32.9726ZM0.573242 62.8551L10.9261 47.1798H1.80005C1.72365 46.732 1.68545 46.2349 1.68545 45.6873C1.68545 45.165 1.72425 44.6793 1.80085 44.2312H16.563L16.755 44.7172L6.32549 60.4292H16.1028C16.1794 60.9269 16.218 61.4366 16.218 61.9589C16.218 62.4572 16.1796 62.9297 16.103 63.3774H0.765244L0.573242 62.8545V62.8551ZM30.4427 54.3826C30.0593 54.3334 29.5735 54.2841 28.9857 54.2337C28.3977 54.1845 27.8993 54.1592 27.4909 54.1592C25.9056 54.1592 24.6978 54.4453 23.8676 55.0176C23.0362 55.5904 22.6216 56.4607 22.6216 57.6301C22.6216 58.3764 22.7616 58.9612 23.043 59.384C23.3238 59.8076 23.6756 60.1304 24.0974 60.3544C24.5194 60.5783 24.9854 60.7153 25.4964 60.7652C26.0074 60.8148 26.4934 60.8395 26.9535 60.8395C27.5415 60.8395 28.1485 60.8084 28.7749 60.7461C29.4009 60.6844 29.9569 60.5908 30.4429 60.4664V54.3826H30.4427ZM30.4427 50.763C30.4427 49.2944 30.0593 48.2744 29.2927 47.7021C28.5255 47.1298 27.4137 46.8436 25.9566 46.8436C25.0612 46.8436 24.2246 46.9125 23.4452 47.0492C22.6739 47.1839 21.9118 47.3644 21.1632 47.5898C20.6772 46.7686 20.4352 45.7866 20.4352 44.6413C21.3032 44.368 22.2616 44.1566 23.3102 44.0073C24.3582 43.8578 25.3678 43.783 26.3396 43.783C28.8957 43.783 30.8383 44.3495 32.1677 45.4815C33.4965 46.6145 34.1617 48.4243 34.1617 50.9119V62.8921C33.2665 63.0911 32.1805 63.2962 30.9025 63.5078C29.6103 63.7202 28.302 63.8264 26.9915 63.8251C25.739 63.8251 24.6074 63.7136 23.5982 63.4895C22.5882 63.2651 21.7318 62.9052 21.029 62.4068C20.3254 61.9096 19.783 61.275 19.399 60.5039C19.0158 59.7325 18.824 58.7996 18.824 57.7046C18.824 56.6351 19.0476 55.6957 19.495 54.8866C19.9346 54.0873 20.558 53.3976 21.3166 52.8714C22.0834 52.3373 22.9652 51.9386 23.9622 51.6777C24.9594 51.4163 26.007 51.2855 27.1063 51.2855C27.9243 51.2855 28.5953 51.3046 29.1195 51.3419C29.6431 51.3789 30.0843 51.4225 30.4423 51.4724V50.7632L30.4427 50.763ZM42.0988 60.2417C42.5828 60.4158 43.084 60.5409 43.5944 60.6151C44.1056 60.69 44.7696 60.7272 45.5884 60.7272C46.5084 60.7272 47.3516 60.5845 48.1184 60.2984C48.8856 60.0128 49.5436 59.5707 50.0932 58.9733C50.6428 58.3764 51.0772 57.6242 51.3968 56.7151C51.7163 55.8076 51.8765 54.7319 51.8765 53.4872C51.8765 51.4969 51.4988 49.917 50.7452 48.7474C49.9906 47.5783 48.7572 46.9935 47.0452 46.9935C46.4062 46.9935 45.7922 47.1052 45.2052 47.3295C44.6164 47.5533 44.0928 47.8893 43.6326 48.3371C43.1726 48.7848 42.802 49.3513 42.521 50.0353C42.239 50.7202 42.099 51.5343 42.099 52.48V60.2423V60.2419L42.0988 60.2417ZM38.3027 44.231C38.5627 44.1811 38.8247 44.144 39.0887 44.1192C39.3629 44.0945 39.6381 44.0822 39.9134 44.0822C40.1682 44.0822 40.4364 44.0951 40.7182 44.1192C40.999 44.1445 41.2674 44.1821 41.5234 44.2312C41.5486 44.2818 41.581 44.4365 41.6194 44.698C41.6574 44.9594 41.6958 45.2391 41.7344 45.5374C41.7728 45.8362 41.811 46.1229 41.8494 46.3959C41.8878 46.6699 41.907 46.8442 41.907 46.9187C42.162 46.521 42.469 46.135 42.827 45.7618C43.185 45.3885 43.6136 45.0527 44.112 44.7544C44.6104 44.4556 45.1724 44.2195 45.799 44.0451C46.425 43.871 47.1216 43.7832 47.8886 43.7832C49.0386 43.7832 50.106 43.9701 51.0906 44.3435C52.0743 44.7172 52.9173 45.2948 53.6207 46.0787C54.3233 46.8627 54.8727 47.858 55.2693 49.0644C55.6653 50.2721 55.8633 51.6962 55.8633 53.3381C55.8633 56.6221 54.9493 59.1917 53.1213 61.0449C51.2932 62.8987 48.7058 63.8251 45.3572 63.8251C44.7946 63.8251 44.2198 63.7878 43.6318 63.7132C43.0434 63.6383 42.5326 63.5386 42.0978 63.4148V72.1853C41.7739 72.2366 41.4478 72.2739 41.1206 72.2972C40.7752 72.3216 40.4618 72.3342 40.1806 72.3342C39.8671 72.3329 39.5539 72.3206 39.2414 72.2972C38.9265 72.2755 38.613 72.2382 38.3021 72.1853V44.2312L38.3027 44.231Z" fill="white"/>
</g>
<defs>
<clipPath id="clip0_2358_1970">
<rect width="100" height="100" fill="white" transform="translate(0.573242 0.0720215)"/>
</clipPath>
</defs>
</svg>
