<svg width="101" height="100" viewBox="0 0 101 100" fill="none" xmlns="http://www.w3.org/2000/svg">
<g clip-path="url(#clip0_2377_9376)">
<path d="M24.9313 51.0559C24.9313 51.0559 24.8678 51.0559 24.8042 51.1193C24.7401 51.1193 24.7401 51.1193 24.6762 51.1193H24.6121C24.6121 51.1827 24.548 51.1827 24.4843 51.1827C24.4204 51.1827 24.3568 51.1827 24.2931 51.1827C24.2931 51.1827 24.2292 51.1827 24.1651 51.1827C24.1012 51.1827 24.1013 51.1827 24.0371 51.1827H23.9735C23.9735 51.1193 23.9094 51.1193 23.846 51.1193C23.846 51.1193 23.7823 51.1193 23.7823 51.0559H23.7182C23.7182 51.0559 23.6543 51.0559 23.6543 50.9913H23.5887C23.5887 50.9913 23.5245 50.9913 23.5245 50.9279H23.4607C22.6295 50.3523 22.6295 49.0735 23.4607 48.4979C23.5245 48.4979 23.5245 48.4979 23.5245 48.4979L23.5887 48.4343H23.6526C23.6526 48.4343 23.6526 48.4343 23.7167 48.3703C23.7167 48.3703 23.7167 48.3703 23.7804 48.3703L23.8445 48.3064C23.9079 48.3064 23.9079 48.3064 23.9079 48.3064H23.9718C24.0356 48.3064 24.0356 48.3064 24.0356 48.3064C24.0995 48.3064 24.0995 48.2423 24.1636 48.2423C24.2275 48.2423 24.2914 48.2423 24.2914 48.2423C24.3553 48.2423 24.4187 48.2423 24.4826 48.2423V48.3064C24.5467 48.3064 24.6106 48.3064 24.6106 48.3064H24.6744C24.6744 48.3064 24.7386 48.3064 24.8024 48.3064V48.3703C24.8663 48.3703 24.8663 48.3703 24.9297 48.4343C26.0823 48.9457 26.0823 50.544 24.9313 51.0559ZM19.6245 56.3622V50.4805H21.6067C21.7979 51.2475 22.3731 51.951 23.141 52.2705C22.5017 54.0602 21.287 55.5307 19.6245 56.3622ZM16.8114 57.2573V44.2776C17.6423 44.022 18.2818 43.4465 18.6014 42.6792C20.7109 43.4465 22.3093 45.1088 23.1409 47.1548C22.3736 47.5384 21.7978 48.1781 21.6066 48.9454H18.8572C18.4734 48.9454 18.0899 49.2648 18.0899 49.7126V57.001C17.7062 57.1292 17.2588 57.2573 16.8114 57.2573ZM13.8698 57.0011V49.713C13.8698 49.2654 13.4863 48.9457 13.1026 48.9457H10.2254C10.0337 48.1787 9.52221 47.6024 8.8188 47.2193C9.58602 45.1094 11.2484 43.4468 13.3583 42.6795C13.7421 43.5109 14.4452 44.0863 15.2764 44.2782V57.3215C14.8289 57.2573 14.3174 57.1932 13.8698 57.0011ZM8.8188 52.2058C9.52216 51.8864 10.0337 51.2475 10.2254 50.4805H12.3353V56.3622C10.673 55.4672 9.39417 53.9964 8.8188 52.2058ZM6.06959 49.713C6.06959 49.0735 6.4529 48.5619 7.02849 48.3703C7.02849 48.3064 7.09241 48.3064 7.15648 48.3064H7.2206C7.28425 48.3064 7.28425 48.2423 7.28425 48.2423C7.34811 48.2423 7.34811 48.2423 7.34811 48.2423C7.41223 48.2423 7.47588 48.2423 7.54001 48.2423C7.54001 48.2423 7.60387 48.2423 7.66799 48.2423C7.66799 48.2423 7.66799 48.2423 7.73206 48.2423C7.73206 48.2423 7.73206 48.3064 7.79571 48.3064H7.85963H7.9237H7.98734C7.98734 48.3703 8.05147 48.3703 8.05147 48.3703H8.11533L8.17946 48.4343H8.24331C8.24331 48.4343 8.24331 48.4979 8.30723 48.4979C8.30723 48.4979 8.30723 48.4979 8.37109 48.4979V48.562C8.43521 48.562 8.43521 48.562 8.43521 48.6261C9.13836 49.2015 9.13836 50.2886 8.43521 50.8636C8.37109 50.9279 8.37109 50.9279 8.37109 50.9279C8.30723 50.9279 8.30723 50.9279 8.30723 50.9913H8.24331C8.24331 50.9913 8.17946 50.9913 8.17946 51.0559H8.11538H8.05152C8.05152 51.1193 7.9874 51.1193 7.9874 51.1193H7.92375C7.92375 51.1193 7.85968 51.1193 7.85968 51.1827H7.79577C7.73212 51.1827 7.73212 51.1827 7.73212 51.1827C7.66805 51.1827 7.66805 51.1827 7.66805 51.1827C7.60392 51.1827 7.54006 51.1827 7.54006 51.1827C7.47594 51.1827 7.41229 51.1827 7.34816 51.1827H7.2843C7.2843 51.1827 7.2843 51.1827 7.22066 51.1827L7.15653 51.1193H7.09246H7.02855C6.4529 50.8636 6.06959 50.3518 6.06959 49.713ZM15.9797 40.1222C16.4915 40.1222 17.003 40.3779 17.2588 40.8254C17.5145 41.2733 17.5145 41.8484 17.2588 42.2963C16.6834 43.3191 15.2764 43.3191 14.701 42.2963C14.1258 41.3365 14.8289 40.1222 15.9797 40.1222ZM27.169 49.713C27.169 48.2423 26.0184 47.0274 24.6116 46.8997C23.6525 44.2141 21.5428 42.1042 18.7931 41.2091C18.3457 37.9482 13.6143 37.9482 13.1667 41.2091C10.4174 42.0405 8.30733 44.2142 7.34811 46.8997C3.83163 47.0915 3.7675 52.3342 7.34811 52.5263C8.11538 54.9557 9.9696 57.0011 12.3353 58.0241V60.3901C12.3353 61.4137 13.8698 61.4137 13.8698 60.3901V58.5363C14.3174 58.6642 14.8289 58.7277 15.2763 58.7277V60.3901C15.2763 61.4137 16.8114 61.4137 16.8114 60.3901V58.7277C17.2587 58.7277 17.7061 58.6642 18.0899 58.5363V60.3901C18.0899 61.4137 19.6244 61.4137 19.6244 60.3901V58.0241C21.9901 57.0011 23.8443 54.9552 24.6116 52.5263C26.0184 52.398 27.169 51.1828 27.169 49.713Z" fill="#191919"/>
<path d="M33.8828 51.5025H36.9517L35.4174 46.8991M37.6551 53.5486H33.1794L32.3483 56.1063H29.6627L34.2025 43.7661H36.5681L41.1718 56.1063H38.4862L37.6551 53.5486Z" fill="#191919"/>
<path d="M51.594 52.5255L53.2559 43.7661H55.8139L53.0647 56.1063H50.5066L48.5247 47.8589L46.4786 56.1063H43.9213L41.236 43.7661H43.7294L45.3917 52.5255L47.4376 43.7661H49.6116" fill="#191919"/>
<path d="M63.5501 52.8457C63.5501 52.398 63.4222 52.0145 63.0387 51.7585C62.7187 51.5033 62.0796 51.2475 61.2483 50.9913C60.3534 50.6719 59.6499 50.416 59.1388 50.0966C57.732 49.3931 57.0285 48.3703 57.0285 47.0915C57.0285 46.3882 57.2205 45.8125 57.6037 45.3012C57.9879 44.7898 58.499 44.3421 59.2024 44.0863C59.906 43.7667 60.7374 43.6389 61.5684 43.6389C62.4633 43.6389 63.2308 43.7667 63.9334 44.0863C64.6365 44.4062 65.1481 44.8536 65.5318 45.429C65.9158 46.0044 66.1074 46.7078 66.1074 47.4112H63.5501C63.5501 46.836 63.4222 46.452 63.0387 46.1322C62.6553 45.8125 62.2079 45.6209 61.5684 45.6209C60.9289 45.6209 60.4175 45.7488 60.0973 46.0685C59.7771 46.3245 59.5855 46.6437 59.5855 47.0915C59.5855 47.4748 59.7771 47.7949 60.1608 48.0504C60.6091 48.3703 61.1839 48.626 61.9513 48.8179C63.4218 49.2656 64.4446 49.8407 65.148 50.4805C65.7877 51.1193 66.1073 51.8868 66.1073 52.8457C66.1073 53.9324 65.7236 54.7638 64.8927 55.3395C64.0613 55.9781 62.9743 56.2988 61.6322 56.2988C60.6728 56.2988 59.8419 56.107 59.0744 55.7868C58.3073 55.4029 57.6674 54.9553 57.2843 54.3163C56.8368 53.741 56.6448 53.0371 56.6448 52.2057H59.2024C59.2024 53.6127 60.0338 54.2527 61.6322 54.2527C62.2712 54.2527 62.72 54.125 63.0392 53.9324C63.4222 53.6776 63.5501 53.2934 63.5501 52.8457Z" fill="#191919"/>
<path d="M74.8036 43.7021H73.2051V56.0428H74.8036V43.7021Z" fill="#191919"/>
<path d="M78.7033 51.5668C78.7033 52.5899 78.959 53.3569 79.4065 53.9968C79.8545 54.6367 80.4931 54.8923 81.2608 54.8923C82.0918 54.8923 82.7313 54.6367 83.1787 53.9968C83.6267 53.3569 83.8821 52.4622 83.8821 51.3754C83.8821 50.3523 83.6267 49.5211 83.1787 48.9458C82.6672 48.3065 82.0918 47.9864 81.2608 47.9864C80.4931 47.9864 79.8532 48.3065 79.4065 48.8816C78.9592 49.5207 78.7033 50.4158 78.7033 51.5668ZM77.1049 51.3752C77.1049 50.4794 77.2963 49.6485 77.6169 48.9453C78.0004 48.2418 78.5119 47.6663 79.0873 47.2829C79.7263 46.8991 80.4939 46.7073 81.2611 46.7073C82.5393 46.7073 83.4986 47.1549 84.2663 47.9863C85.0338 48.8815 85.4812 50.0323 85.4812 51.4389V51.5669C85.4812 52.4619 85.2891 53.2283 84.9056 53.932C84.5864 54.6351 84.139 55.2103 83.4986 55.5943C82.8597 55.978 82.0918 56.1699 81.2611 56.1699C80.0464 56.1699 79.0234 55.7859 78.256 54.8915C77.4889 54.0595 77.1049 52.9091 77.1049 51.5026L77.1049 51.3752Z" fill="#191919"/>
<path d="M96.1589 45.0451H92.1947V56.0428H90.5961V45.0451H86.6322V43.7021H96.1589" fill="#191919"/>
<mask id="mask0_2377_9376" style="mask-type:luminance" maskUnits="userSpaceOnUse" x="0" y="31" width="101" height="38">
<path d="M100.315 31.49H0.314941V68.51H100.315V31.49Z" fill="white"/>
</mask>
<g mask="url(#mask0_2377_9376)">
<path d="M1.14624 32.3213H99.7394V67.6153H1.14624V32.3213ZM1.14624 32.3213H3.06448" stroke="#191919" stroke-width="2.88" stroke-miterlimit="10" stroke-linecap="round" stroke-linejoin="round"/>
</g>
</g>
<defs>
<clipPath id="clip0_2377_9376">
<rect width="100" height="100" fill="white" transform="translate(0.314941)"/>
</clipPath>
</defs>
</svg>
