<svg width="101" height="101" viewBox="0 0 101 101" fill="none" xmlns="http://www.w3.org/2000/svg">
<g clip-path="url(#clip0_2377_9391)">
<path d="M24.9313 51.8288C24.9313 51.8288 24.8678 51.8288 24.8042 51.8923C24.7401 51.8923 24.7401 51.8923 24.6762 51.8923H24.6121C24.6121 51.9557 24.548 51.9557 24.4843 51.9557C24.4204 51.9557 24.3568 51.9557 24.2931 51.9557C24.2931 51.9557 24.2292 51.9557 24.1651 51.9557C24.1012 51.9557 24.1013 51.9557 24.0371 51.9557H23.9735C23.9735 51.8923 23.9094 51.8923 23.846 51.8923C23.846 51.8923 23.7823 51.8923 23.7823 51.8288H23.7182C23.7182 51.8288 23.6543 51.8288 23.6543 51.7643H23.5887C23.5887 51.7643 23.5245 51.7643 23.5245 51.7009H23.4607C22.6295 51.1253 22.6295 49.8465 23.4607 49.2709C23.5245 49.2709 23.5245 49.2709 23.5245 49.2709L23.5887 49.2072H23.6526C23.6526 49.2072 23.6526 49.2072 23.7167 49.1433C23.7167 49.1433 23.7167 49.1433 23.7804 49.1433L23.8445 49.0794C23.9079 49.0794 23.9079 49.0794 23.9079 49.0794H23.9718C24.0356 49.0794 24.0356 49.0794 24.0356 49.0794C24.0995 49.0794 24.0995 49.0153 24.1636 49.0153C24.2275 49.0153 24.2914 49.0153 24.2914 49.0153C24.3553 49.0153 24.4187 49.0153 24.4826 49.0153V49.0794C24.5467 49.0794 24.6106 49.0794 24.6106 49.0794H24.6744C24.6744 49.0794 24.7386 49.0794 24.8024 49.0794V49.1433C24.8663 49.1433 24.8663 49.1433 24.9297 49.2072C26.0823 49.7187 26.0823 51.3169 24.9313 51.8288ZM19.6245 57.1352V51.2534H21.6067C21.7979 52.0205 22.3731 52.7239 23.141 53.0435C22.5017 54.8331 21.287 56.3036 19.6245 57.1352ZM16.8114 58.0303V45.0505C17.6423 44.795 18.2818 44.2194 18.6014 43.4521C20.7109 44.2194 22.3093 45.8817 23.1409 47.9278C22.3736 48.3113 21.7978 48.951 21.6066 49.7183H18.8572C18.4734 49.7183 18.0899 50.0378 18.0899 50.4856V57.7739C17.7062 57.9022 17.2588 58.0303 16.8114 58.0303ZM13.8698 57.774V50.4859C13.8698 50.0383 13.4863 49.7187 13.1026 49.7187H10.2254C10.0337 48.9516 9.52221 48.3753 8.8188 47.9922C9.58602 45.8823 11.2484 44.2198 13.3583 43.4524C13.7421 44.2838 14.4452 44.8592 15.2764 45.0511V58.0945C14.8289 58.0303 14.3174 57.9661 13.8698 57.774ZM8.8188 52.9788C9.52216 52.6594 10.0337 52.0205 10.2254 51.2534H12.3353V57.1352C10.673 56.2402 9.39417 54.7693 8.8188 52.9788ZM6.06959 50.4859C6.06959 49.8464 6.4529 49.3349 7.02849 49.1433C7.02849 49.0794 7.09241 49.0794 7.15648 49.0794H7.2206C7.28425 49.0794 7.28425 49.0153 7.28425 49.0153C7.34811 49.0153 7.34811 49.0153 7.34811 49.0153C7.41223 49.0153 7.47588 49.0153 7.54001 49.0153C7.54001 49.0153 7.60387 49.0153 7.66799 49.0153C7.66799 49.0153 7.66799 49.0153 7.73206 49.0153C7.73206 49.0153 7.73206 49.0794 7.79571 49.0794H7.85963H7.9237H7.98734C7.98734 49.1433 8.05147 49.1433 8.05147 49.1433H8.11533L8.17946 49.2072H8.24331C8.24331 49.2072 8.24331 49.2709 8.30723 49.2709C8.30723 49.2709 8.30723 49.2709 8.37109 49.2709V49.3349C8.43521 49.3349 8.43521 49.3349 8.43521 49.3991C9.13836 49.9744 9.13836 51.0616 8.43521 51.6365C8.37109 51.7009 8.37109 51.7009 8.37109 51.7009C8.30723 51.7009 8.30723 51.7009 8.30723 51.7643H8.24331C8.24331 51.7643 8.17946 51.7643 8.17946 51.8288H8.11538H8.05152C8.05152 51.8923 7.9874 51.8923 7.9874 51.8923H7.92375C7.92375 51.8923 7.85968 51.8923 7.85968 51.9557H7.79577C7.73212 51.9557 7.73212 51.9557 7.73212 51.9557C7.66805 51.9557 7.66805 51.9557 7.66805 51.9557C7.60392 51.9557 7.54006 51.9557 7.54006 51.9557C7.47594 51.9557 7.41229 51.9557 7.34816 51.9557H7.2843C7.2843 51.9557 7.2843 51.9557 7.22066 51.9557L7.15653 51.8923H7.09246H7.02855C6.4529 51.6365 6.06959 51.1248 6.06959 50.4859ZM15.9797 40.8952C16.4915 40.8952 17.003 41.1509 17.2588 41.5983C17.5145 42.0462 17.5145 42.6214 17.2588 43.0692C16.6834 44.092 15.2764 44.092 14.701 43.0692C14.1258 42.1094 14.8289 40.8952 15.9797 40.8952ZM27.169 50.4859C27.169 49.0153 26.0184 47.8004 24.6116 47.6726C23.6525 44.987 21.5428 42.8771 18.7931 41.9821C18.3457 38.7211 13.6143 38.7211 13.1667 41.9821C10.4174 42.8135 8.30733 44.9871 7.34811 47.6726C3.83163 47.8645 3.7675 53.1072 7.34811 53.2993C8.11538 55.7287 9.9696 57.7741 12.3353 58.7971V61.163C12.3353 62.1867 13.8698 62.1867 13.8698 61.163V59.3092C14.3174 59.4371 14.8289 59.5007 15.2763 59.5007V61.163C15.2763 62.1867 16.8114 62.1867 16.8114 61.163V59.5007C17.2587 59.5007 17.7061 59.4372 18.0899 59.3092V61.163C18.0899 62.1867 19.6244 62.1867 19.6244 61.163V58.7971C21.9901 57.774 23.8443 55.7282 24.6116 53.2993C26.0184 53.1709 27.169 51.9557 27.169 50.4859Z" fill="#E4E4E4"/>
<path d="M33.8828 52.2754H36.9517L35.4174 47.672M37.6551 54.3215H33.1794L32.3483 56.8792H29.6627L34.2025 44.5391H36.5681L41.1718 56.8792H38.4862L37.6551 54.3215Z" fill="#E4E4E4"/>
<path d="M51.594 53.2985L53.2559 44.5391H55.8139L53.0647 56.8792H50.5066L48.5247 48.6318L46.4786 56.8792H43.9213L41.236 44.5391H43.7294L45.3917 53.2985L47.4376 44.5391H49.6116" fill="#E4E4E4"/>
<path d="M63.5501 53.6187C63.5501 53.1709 63.4222 52.7874 63.0387 52.5314C62.7187 52.2762 62.0796 52.0205 61.2483 51.7643C60.3534 51.4449 59.6499 51.1889 59.1388 50.8695C57.732 50.1661 57.0285 49.1433 57.0285 47.8645C57.0285 47.1611 57.2205 46.5855 57.6037 46.0742C57.9879 45.5627 58.499 45.1151 59.2024 44.8593C59.906 44.5396 60.7374 44.4119 61.5684 44.4119C62.4633 44.4119 63.2308 44.5396 63.9334 44.8593C64.6365 45.1791 65.1481 45.6265 65.5318 46.202C65.9158 46.7773 66.1074 47.4807 66.1074 48.1841H63.5501C63.5501 47.6089 63.4222 47.225 63.0387 46.9051C62.6553 46.5854 62.2079 46.3938 61.5684 46.3938C60.9289 46.3938 60.4175 46.5218 60.0973 46.8415C59.7771 47.0974 59.5855 47.4166 59.5855 47.8644C59.5855 48.2478 59.7771 48.5678 60.1608 48.8234C60.6091 49.1433 61.1839 49.399 61.9513 49.5909C63.4218 50.0385 64.4446 50.6137 65.148 51.2534C65.7877 51.8923 66.1073 52.6598 66.1073 53.6187C66.1073 54.7054 65.7236 55.5368 64.8927 56.1124C64.0613 56.751 62.9743 57.0718 61.6322 57.0718C60.6728 57.0718 59.8419 56.8799 59.0744 56.5598C58.3073 56.1758 57.6674 55.7282 57.2843 55.0893C56.8368 54.5139 56.6448 53.8101 56.6448 52.9787H59.2024C59.2024 54.3856 60.0338 55.0257 61.6322 55.0257C62.2712 55.0257 62.72 54.8979 63.0392 54.7053C63.4222 54.4506 63.5501 54.0663 63.5501 53.6187Z" fill="#E4E4E4"/>
<path d="M74.8036 44.4751H73.2051V56.8158H74.8036V44.4751Z" fill="#E4E4E4"/>
<path d="M78.7033 52.3398C78.7033 53.3628 78.959 54.1298 79.4065 54.7697C79.8545 55.4097 80.4931 55.6652 81.2608 55.6652C82.0918 55.6652 82.7313 55.4096 83.1787 54.7697C83.6267 54.1298 83.8821 53.2351 83.8821 52.1483C83.8821 51.1253 83.6267 50.2941 83.1787 49.7187C82.6672 49.0794 82.0918 48.7594 81.2608 48.7594C80.4931 48.7594 79.8532 49.0794 79.4065 49.6546C78.9592 50.2937 78.7033 51.1887 78.7033 52.3398ZM77.1049 52.1481C77.1049 51.2524 77.2963 50.4215 77.6169 49.7183C78.0004 49.0147 78.5119 48.4393 79.0873 48.0558C79.7263 47.6721 80.4939 47.4802 81.2611 47.4802C82.5393 47.4802 83.4986 47.9278 84.2663 48.7592C85.0338 49.6545 85.4812 50.8053 85.4812 52.2118V52.3399C85.4812 53.2349 85.2891 54.0012 84.9056 54.7049C84.5864 55.408 84.139 55.9832 83.4986 56.3672C82.8597 56.751 82.0918 56.9428 81.2611 56.9428C80.0464 56.9428 79.0234 56.5589 78.256 55.6644C77.4889 54.8324 77.1049 53.6821 77.1049 52.2755L77.1049 52.1481Z" fill="#E4E4E4"/>
<path d="M96.1589 45.818H92.1947V56.8158H90.5961V45.818H86.6322V44.4751H96.1589" fill="#E4E4E4"/>
<mask id="mask0_2377_9391" style="mask-type:luminance" maskUnits="userSpaceOnUse" x="0" y="32" width="101" height="38">
<path d="M100.315 32.2629H0.314941V69.2829H100.315V32.2629Z" fill="white"/>
</mask>
<g mask="url(#mask0_2377_9391)">
<path d="M1.14624 33.0942H99.7394V68.3882H1.14624V33.0942ZM1.14624 33.0942H3.06448" stroke="#E4E4E4" stroke-width="2.88" stroke-miterlimit="10" stroke-linecap="round" stroke-linejoin="round"/>
</g>
</g>
<defs>
<clipPath id="clip0_2377_9391">
<rect width="100" height="100" fill="white" transform="translate(0.314941 0.772949)"/>
</clipPath>
</defs>
</svg>
