<svg width="101" height="101" viewBox="0 0 101 101" fill="none" xmlns="http://www.w3.org/2000/svg">
<path fill-rule="evenodd" clip-rule="evenodd" d="M37.8463 26.5248C37.8463 22.7562 40.8703 19.7227 44.6275 19.7227C48.3847 19.7227 51.4087 22.7562 51.4087 26.5248C51.4087 30.2934 48.3847 33.327 44.6275 33.327C40.8703 33.327 37.8463 30.2934 37.8463 26.5248ZM52.0649 48.4687C52.0649 43.9704 55.6743 40.3496 60.1586 40.3496C64.6429 40.3496 68.2522 43.9712 68.2522 48.4687C68.2522 52.9661 64.6429 56.5877 60.1586 56.5877C55.6743 56.5877 52.0649 52.967 52.0649 48.4687ZM67.3772 72.6061C67.3772 69.0808 70.2061 66.2423 73.7209 66.2423C77.2357 66.2423 80.0646 69.0808 80.0646 72.6061C80.0646 76.1315 77.2357 78.9699 73.7209 78.9699C70.2061 78.9699 67.3772 76.1315 67.3772 72.6061ZM43.0963 68.218C43.0963 65.1792 45.5358 62.7319 48.565 62.7319C51.5942 62.7319 54.0336 65.1783 54.0336 68.218C54.0336 71.2578 51.5951 73.7042 48.565 73.7042C45.5349 73.7042 43.0963 71.2578 43.0963 68.218ZM21.0028 51.5408C21.0028 48.5019 23.4423 46.0546 26.4715 46.0546C29.5007 46.0546 31.9402 48.501 31.9402 51.5408C31.9402 54.5805 29.5016 57.0269 26.4715 57.0269C23.4414 57.0269 21.0028 54.5805 21.0028 51.5408Z" fill="#E4E4E4"/>
<path fill-rule="evenodd" clip-rule="evenodd" d="M45.8123 25.2202L61.2856 47.3014L58.4226 49.32L42.9493 27.2397L45.8123 25.2202Z" fill="#E4E4E4"/>
<path fill-rule="evenodd" clip-rule="evenodd" d="M61.5069 47.311L75.1996 71.3067L72.1617 73.0506L58.4698 49.0549L61.5069 47.311Z" fill="#E4E4E4"/>
<path fill-rule="evenodd" clip-rule="evenodd" d="M59.6538 46.5803L59.9434 50.0794L26.5888 52.8575L26.2992 49.3584L59.6538 46.5803Z" fill="#E4E4E4"/>
<path fill-rule="evenodd" clip-rule="evenodd" d="M58.4305 47.4598L61.4282 49.2719L49.6867 68.8183L46.689 67.0062L58.4305 47.4598ZM84.2208 15.7729H66.5023C65.846 15.7729 65.4086 16.2113 65.4086 17.0898V23.4536C65.4086 24.1116 65.846 24.5508 66.5023 24.5508H76.5647V34.4251C76.5647 35.0831 77.0022 35.5223 77.8771 35.5223H84.2208C84.8771 35.5223 85.3146 35.084 85.3146 34.4251V16.8702C85.3146 16.2113 84.8771 15.7729 84.2208 15.7729ZM16.4092 85.7729H34.1277C34.7839 85.7729 35.2214 85.3337 35.2214 84.4561V78.0923C35.2214 77.4343 34.7839 76.9951 34.1277 76.9951H24.0653V67.1208C24.0653 66.4619 23.6278 66.0236 22.7528 66.0236H16.4092C15.7529 66.0236 15.3154 66.4619 15.3154 67.1208V84.6757C15.3154 85.3337 15.7529 85.7729 16.4092 85.7729Z" fill="#E4E4E4"/>
</svg>
