<svg width="101" height="100" viewBox="0 0 101 100" fill="none" xmlns="http://www.w3.org/2000/svg">
<path fill-rule="evenodd" clip-rule="evenodd" d="M37.8463 25.7519C37.8463 21.9833 40.8703 18.9497 44.6275 18.9497C48.3847 18.9497 51.4087 21.9833 51.4087 25.7519C51.4087 29.5204 48.3847 32.554 44.6275 32.554C40.8703 32.554 37.8463 29.5204 37.8463 25.7519ZM52.0649 47.6957C52.0649 43.1974 55.6743 39.5767 60.1586 39.5767C64.6429 39.5767 68.2522 43.1983 68.2522 47.6957C68.2522 52.1932 64.6429 55.8147 60.1586 55.8147C55.6743 55.8147 52.0649 52.194 52.0649 47.6957ZM67.3772 71.8332C67.3772 68.3078 70.2061 65.4694 73.7209 65.4694C77.2357 65.4694 80.0646 68.3078 80.0646 71.8332C80.0646 75.3585 77.2357 78.197 73.7209 78.197C70.2061 78.197 67.3772 75.3585 67.3772 71.8332ZM43.0963 67.4451C43.0963 64.4063 45.5358 61.9589 48.565 61.9589C51.5942 61.9589 54.0336 64.4054 54.0336 67.4451C54.0336 70.4848 51.5951 72.9313 48.565 72.9313C45.5349 72.9313 43.0963 70.4848 43.0963 67.4451ZM21.0028 50.7678C21.0028 47.729 23.4423 45.2816 26.4715 45.2816C29.5007 45.2816 31.9402 47.7281 31.9402 50.7678C31.9402 53.8075 29.5016 56.254 26.4715 56.254C23.4414 56.254 21.0028 53.8075 21.0028 50.7678Z" fill="#191919"/>
<path fill-rule="evenodd" clip-rule="evenodd" d="M45.8123 24.4473L61.2856 46.5285L58.4226 48.5471L42.9493 26.4667L45.8123 24.4473Z" fill="#191919"/>
<path fill-rule="evenodd" clip-rule="evenodd" d="M61.5069 46.5381L75.1996 70.5338L72.1617 72.2776L58.4698 48.2819L61.5069 46.5381Z" fill="#191919"/>
<path fill-rule="evenodd" clip-rule="evenodd" d="M59.6538 45.8074L59.9434 49.3065L26.5888 52.0845L26.2992 48.5855L59.6538 45.8074Z" fill="#191919"/>
<path fill-rule="evenodd" clip-rule="evenodd" d="M58.4305 46.6869L61.4282 48.499L49.6867 68.0453L46.689 66.2332L58.4305 46.6869ZM84.2208 15H66.5023C65.846 15 65.4086 15.4384 65.4086 16.3169V22.6807C65.4086 23.3386 65.846 23.7779 66.5023 23.7779H76.5647V33.6521C76.5647 34.3101 77.0022 34.7494 77.8771 34.7494H84.2208C84.8771 34.7494 85.3146 34.311 85.3146 33.6521V16.0972C85.3146 15.4384 84.8771 15 84.2208 15ZM16.4092 85H34.1277C34.7839 85 35.2214 84.5608 35.2214 83.6831V77.3193C35.2214 76.6614 34.7839 76.2221 34.1277 76.2221H24.0653V66.3479C24.0653 65.689 23.6278 65.2506 22.7528 65.2506H16.4092C15.7529 65.2506 15.3154 65.689 15.3154 66.3479V83.9028C15.3154 84.5608 15.7529 85 16.4092 85Z" fill="#191919"/>
</svg>
