<svg width="101" height="101" viewBox="0 0 101 101" fill="none" xmlns="http://www.w3.org/2000/svg">
<g clip-path="url(#clip0_2377_9047)">
<g clip-path="url(#clip1_2377_9047)">
<path d="M43.2934 27.9626C43.3889 27.9632 43.4844 27.9638 43.5828 27.9644C43.8157 27.966 44.0487 27.9684 44.2817 27.971C44.0757 28.1043 44.0757 28.1043 43.8656 28.2403C38.7861 32.1871 36.4631 39.5534 34.3129 45.2803C34.2564 45.4295 34.2564 45.4295 34.1989 45.5817C33.4787 47.4919 32.7863 49.4482 32.5185 51.4736C32.5024 51.5912 32.4863 51.7089 32.4697 51.83C32.0533 55.1029 32.5444 58.4606 34.5724 61.1959C36.6595 63.7744 39.6404 65.5026 42.8947 66.3426C43.0217 66.3759 43.1487 66.4092 43.2795 66.4435C44.7183 66.7827 46.101 66.8105 47.5746 66.8154C47.833 66.8177 48.0915 66.8201 48.3499 66.8227C49.0234 66.8291 49.6969 66.8331 50.3705 66.8367C51.0605 66.8407 51.7504 66.847 52.4404 66.853C53.7892 66.8645 55.1381 66.8736 56.4869 66.8811C56.3153 67.3933 56.1356 67.859 55.8671 68.3306C55.8 68.4494 55.7328 68.5681 55.6636 68.6905C55.592 68.8154 55.5204 68.9403 55.4467 69.069C55.3733 69.1983 55.2998 69.3277 55.2241 69.4609C55.0728 69.7271 54.9211 69.9932 54.7691 70.2591C54.556 70.6321 54.3437 71.0057 54.1318 71.3794C54.0067 71.5994 53.8816 71.8195 53.7563 72.0394C53.6687 72.1937 53.6687 72.1937 53.5792 72.3512C53.1745 73.0587 53.1745 73.0587 53.0195 73.2091C52.7397 73.2223 52.4595 73.2257 52.1794 73.2257C52.0902 73.2258 52.0011 73.226 51.9092 73.2261C51.6068 73.2265 51.3044 73.2259 51.002 73.2253C50.7845 73.2253 50.5669 73.2255 50.3494 73.2256C49.7488 73.2259 49.1482 73.2254 48.5476 73.2247C47.901 73.2241 47.2544 73.2243 46.6079 73.2244C45.4866 73.2245 44.3654 73.2241 43.2442 73.2233C41.6231 73.2222 40.0019 73.2219 38.3808 73.2217C35.751 73.2214 33.1211 73.2205 30.4912 73.2192C27.9359 73.218 25.3805 73.2171 22.8251 73.2165C22.6678 73.2165 22.5104 73.2164 22.3482 73.2164C21.5587 73.2162 20.7691 73.216 19.9795 73.2159C13.4247 73.2145 6.86981 73.2121 0.314941 73.2091C0.806166 72.9589 1.27423 72.8316 1.81459 72.7042C6.6648 71.4949 10.7053 68.3564 13.7685 64.5923C13.8879 64.4497 14.0074 64.3072 14.1271 64.1647C16.3136 61.5428 18.1104 58.6185 19.5985 55.5733C19.735 55.2971 19.8769 55.0241 20.019 54.7507C20.7781 53.2459 21.2981 51.6908 21.8042 50.0936C23.4899 44.7743 25.7931 39.6216 29.5799 35.376C29.6777 35.2662 29.7754 35.1563 29.8762 35.0431C33.2449 31.3386 37.959 27.8974 43.2934 27.9626Z" fill="#E4E4E4"/>
<path d="M47.4717 27.9709C64.9099 27.9709 82.3482 27.9709 100.315 27.9709C100.315 28.0154 100.315 28.0598 100.315 28.1056C100.053 28.1621 100.053 28.1621 99.7862 28.2197C98.2112 28.5724 96.7647 29.0121 95.3219 29.7212C95.2311 29.7656 95.1404 29.81 95.0469 29.8558C92.8022 30.9746 90.8869 32.4665 89.0805 34.1643C88.9768 34.2595 88.8731 34.3548 88.7663 34.453C88.0171 35.156 87.3667 35.9288 86.7227 36.7224C86.6553 36.8045 86.5878 36.8866 86.5183 36.9712C84.7196 39.1666 83.2213 41.5167 81.8683 43.9928C81.8205 44.0802 81.7727 44.1677 81.7234 44.2578C81.3862 44.8805 81.0681 45.5108 80.7588 46.147C80.7044 46.2581 80.6501 46.3692 80.5941 46.4837C79.721 48.2894 79.0814 50.1049 78.519 52.0216C77.0694 56.9357 74.5749 61.9705 71.05 65.804C70.9906 65.8689 70.9311 65.9339 70.8698 66.0008C70.4287 66.4806 69.9783 66.9512 69.5244 67.4196C69.4282 67.5219 69.332 67.6241 69.2329 67.7294C67.6571 69.3447 65.7321 70.5896 63.6991 71.5934C63.5672 71.6594 63.4352 71.7253 63.2993 71.7933C61.0861 72.8322 58.7993 73.2724 56.3482 73.209C56.4855 73.1202 56.6228 73.0313 56.7643 72.9398C62.6999 68.3277 66.6312 57.466 67.9987 50.3207C68.0163 50.2293 68.0339 50.138 68.0521 50.0438C68.6621 46.7255 68.2364 43.2355 66.3343 40.3576C65.9863 39.8887 65.6165 39.4462 65.2248 39.0112C65.1527 38.93 65.0807 38.8488 65.0064 38.7651C62.9808 36.6451 60.005 35.4277 57.1804 34.7028C57.0953 34.6797 57.0102 34.6566 56.9226 34.6328C55.6719 34.3384 54.3881 34.3857 53.1094 34.3778C52.8502 34.3753 52.591 34.3726 52.3318 34.3699C51.6537 34.363 50.9756 34.3577 50.2975 34.3526C49.6038 34.3472 48.9102 34.3403 48.2166 34.3336C46.8587 34.3206 45.5008 34.3092 44.1429 34.2989C44.3142 33.7877 44.4931 33.324 44.7627 32.8542C44.8307 32.7347 44.8986 32.6152 44.9686 32.4921C45.0394 32.3691 45.1102 32.2461 45.1832 32.1195C45.9686 30.7473 46.718 29.361 47.4717 27.9709Z" fill="#E4E4E4"/>
</g>
</g>
<defs>
<clipPath id="clip0_2377_9047">
<rect width="100" height="100" fill="white" transform="translate(0.314941 0.590088)"/>
</clipPath>
<clipPath id="clip1_2377_9047">
<rect width="100" height="45.2381" fill="white" transform="translate(0.314941 27.9709)"/>
</clipPath>
</defs>
</svg>
