<svg width="101" height="101" viewBox="0 0 101 101" fill="none" xmlns="http://www.w3.org/2000/svg">
<g clip-path="url(#clip0_2377_9039)">
<g clip-path="url(#clip1_2377_9039)">
<path d="M43.2934 28.1894C43.3889 28.19 43.4844 28.1906 43.5828 28.1912C43.8157 28.1928 44.0487 28.1952 44.2817 28.1978C44.0757 28.3311 44.0757 28.3311 43.8656 28.4671C38.7861 32.4139 36.4631 39.7802 34.3129 45.5071C34.2564 45.6563 34.2564 45.6563 34.1989 45.8085C33.4787 47.7187 32.7863 49.675 32.5185 51.7004C32.5024 51.818 32.4863 51.9357 32.4697 52.0569C32.0533 55.3297 32.5444 58.6875 34.5724 61.4227C36.6595 64.0012 39.6404 65.7294 42.8947 66.5694C43.0217 66.6027 43.1487 66.636 43.2795 66.6703C44.7183 67.0095 46.101 67.0373 47.5746 67.0422C47.833 67.0445 48.0915 67.0469 48.3499 67.0495C49.0234 67.0559 49.6969 67.0599 50.3705 67.0635C51.0605 67.0675 51.7504 67.0738 52.4404 67.0798C53.7892 67.0913 55.1381 67.1004 56.4869 67.108C56.3153 67.6201 56.1356 68.0858 55.8671 68.5574C55.8 68.6762 55.7328 68.7949 55.6636 68.9173C55.592 69.0422 55.5204 69.1671 55.4467 69.2958C55.3733 69.4251 55.2998 69.5545 55.2241 69.6877C55.0728 69.954 54.9211 70.22 54.7691 70.4859C54.556 70.8589 54.3437 71.2325 54.1318 71.6062C54.0067 71.8262 53.8816 72.0463 53.7563 72.2662C53.6687 72.4206 53.6687 72.4206 53.5792 72.578C53.1745 73.2855 53.1745 73.2855 53.0195 73.4359C52.7397 73.4491 52.4595 73.4526 52.1794 73.4525C52.0902 73.4526 52.0011 73.4528 51.9092 73.4529C51.6068 73.4533 51.3044 73.4527 51.002 73.4521C50.7845 73.4522 50.5669 73.4523 50.3494 73.4524C49.7488 73.4527 49.1482 73.4522 48.5476 73.4515C47.901 73.4509 47.2544 73.4511 46.6079 73.4512C45.4866 73.4513 44.3654 73.4509 43.2442 73.4501C41.6231 73.449 40.0019 73.4487 38.3808 73.4485C35.751 73.4482 33.1211 73.4473 30.4912 73.4461C27.9359 73.4448 25.3805 73.4439 22.8251 73.4433C22.6678 73.4433 22.5104 73.4432 22.3482 73.4432C21.5587 73.443 20.7691 73.4428 19.9795 73.4427C13.4247 73.4413 6.86981 73.4389 0.314941 73.4359C0.806166 73.1857 1.27423 73.0584 1.81459 72.931C6.6648 71.7217 10.7053 68.5832 13.7685 64.8191C13.8879 64.6765 14.0074 64.534 14.1271 64.3915C16.3136 61.7696 18.1104 58.8453 19.5985 55.8001C19.735 55.5239 19.8769 55.2509 20.019 54.9775C20.7781 53.4727 21.2981 51.9176 21.8042 50.3204C23.4899 45.0011 25.7931 39.8484 29.5799 35.6028C29.6777 35.493 29.7754 35.3831 29.8762 35.2699C33.2449 31.5654 37.959 28.1242 43.2934 28.1894Z" fill="#191919"/>
<path d="M47.4717 28.1978C64.9099 28.1978 82.3482 28.1978 100.315 28.1978C100.315 28.2422 100.315 28.2866 100.315 28.3324C100.053 28.3889 100.053 28.3889 99.7862 28.4465C98.2112 28.7992 96.7647 29.2389 95.3219 29.948C95.2311 29.9924 95.1404 30.0369 95.0469 30.0826C92.8022 31.2014 90.8869 32.6933 89.0805 34.3911C88.9768 34.4863 88.8731 34.5816 88.7663 34.6798C88.0171 35.3828 87.3667 36.1556 86.7227 36.9492C86.6553 37.0313 86.5878 37.1134 86.5183 37.198C84.7196 39.3934 83.2213 41.7435 81.8683 44.2196C81.8205 44.3071 81.7727 44.3945 81.7234 44.4846C81.3862 45.1073 81.0681 45.7377 80.7588 46.3738C80.7044 46.4849 80.6501 46.596 80.5941 46.7105C79.721 48.5162 79.0814 50.3317 78.519 52.2484C77.0694 57.1625 74.5749 62.1973 71.05 66.0308C70.9906 66.0957 70.9311 66.1607 70.8698 66.2276C70.4287 66.7074 69.9783 67.178 69.5244 67.6465C69.4282 67.7487 69.332 67.8509 69.2329 67.9562C67.6571 69.5715 65.7321 70.8164 63.6991 71.8202C63.5672 71.8862 63.4352 71.9521 63.2993 72.0201C61.0861 73.059 58.7993 73.4992 56.3482 73.4359C56.4855 73.347 56.6228 73.2581 56.7643 73.1666C62.6999 68.5545 66.6312 57.6928 67.9987 50.5475C68.0163 50.4562 68.0339 50.3648 68.0521 50.2706C68.6621 46.9523 68.2364 43.4623 66.3343 40.5844C65.9863 40.1155 65.6165 39.673 65.2248 39.238C65.1527 39.1568 65.0807 39.0756 65.0064 38.9919C62.9808 36.8719 60.005 35.6545 57.1804 34.9296C57.0953 34.9065 57.0102 34.8834 56.9226 34.8596C55.6719 34.5652 54.3881 34.6125 53.1094 34.6046C52.8502 34.6021 52.591 34.5994 52.3318 34.5967C51.6537 34.5898 50.9756 34.5845 50.2975 34.5794C49.6038 34.574 48.9102 34.5672 48.2166 34.5604C46.8587 34.5474 45.5008 34.5361 44.1429 34.5257C44.3142 34.0145 44.4931 33.5509 44.7627 33.081C44.8307 32.9615 44.8986 32.842 44.9686 32.7189C45.0394 32.5959 45.1102 32.473 45.1832 32.3463C45.9686 30.9741 46.718 29.5878 47.4717 28.1978Z" fill="#191919"/>
</g>
</g>
<defs>
<clipPath id="clip0_2377_9039">
<rect width="100" height="100" fill="white" transform="translate(0.314941 0.816895)"/>
</clipPath>
<clipPath id="clip1_2377_9039">
<rect width="100" height="45.2381" fill="white" transform="translate(0.314941 28.1978)"/>
</clipPath>
</defs>
</svg>
