<svg width="101" height="101" viewBox="0 0 101 101" fill="none" xmlns="http://www.w3.org/2000/svg">
<g clip-path="url(#clip0_2377_8902)">
<path d="M55.2101 43.4846C55.2016 43.3314 55.2074 43.1769 55.1914 43.0244C55.1716 42.8343 55.0699 42.7832 54.9069 42.8732C54.8587 42.8998 54.8089 42.9336 54.7758 42.9766C54.4548 43.3904 54.0041 43.4304 53.5296 43.4304C52.2441 43.431 50.9586 43.4467 49.6731 43.4467C47.2836 43.4467 44.8944 43.4358 42.5049 43.4389C42.0255 43.4396 41.58 43.3969 41.2825 42.9565C41.2675 42.9343 41.2422 42.9176 41.2194 42.9019C41.056 42.7886 40.9628 42.819 40.9205 43.0094C40.8994 43.1039 40.898 43.2031 40.8908 43.3007C40.8229 44.2198 40.7537 45.1389 40.6889 46.058C40.6602 46.4619 40.6408 46.8662 40.6162 47.2705C40.6087 47.394 40.6377 47.4953 40.7745 47.5253C40.9018 47.5533 40.9908 47.4919 41.0505 47.3855C41.0774 47.3374 41.0955 47.2838 41.114 47.2313C41.2934 46.7161 41.5356 46.2293 41.7744 45.74C42.2398 44.7872 42.9996 44.3013 44.0473 44.1949C44.7999 44.1185 45.5518 44.0946 46.3061 44.0813C46.9028 44.0707 46.8926 44.0564 46.8919 44.6824C46.8899 48.44 46.8936 52.1976 46.8888 55.9548C46.8878 56.8063 46.8632 57.6582 46.8445 58.5098C46.8366 58.8748 46.7916 59.2334 46.5698 59.5432C46.0721 60.0361 45.4518 60.2408 44.7722 60.3115C44.6208 60.3271 44.471 60.3684 44.3226 60.406C44.1104 60.4595 44.1012 60.6223 44.1094 60.802C44.1186 61.0054 44.2349 61.063 44.4133 61.0586C44.4973 61.0566 44.5812 61.0589 44.6648 61.0589C46.9294 61.0589 49.1937 61.0589 51.4584 61.0586C51.5423 61.0586 51.6262 61.0552 51.7098 61.0583C51.8845 61.0644 51.9599 60.9573 51.9957 60.8092C52.036 60.6407 51.9896 60.4994 51.8282 60.4227C51.7555 60.3879 51.6672 60.3852 51.5853 60.3701C51.093 60.2787 50.5983 60.2112 50.1231 60.0279C49.5837 59.8198 49.3472 59.407 49.2712 58.8834C49.2115 58.4705 49.1791 58.0506 49.1777 57.6333C49.1661 54.0146 49.1637 50.3955 49.16 46.7768C49.1593 46.0082 49.1651 45.2399 49.1637 44.4712C49.1634 44.3184 49.1719 44.1871 49.3745 44.1891C50.3793 44.1983 51.3877 44.1376 52.3846 44.3082C52.7555 44.3716 53.1198 44.4787 53.4317 44.7087C53.49 44.7517 53.5497 44.7824 53.6244 44.764C53.8625 44.9066 53.9929 45.1409 54.1287 45.3668C54.3961 45.811 54.5793 46.2951 54.77 46.7748C54.8475 46.9692 54.9133 47.1681 54.9901 47.3629C55.028 47.4598 55.0972 47.5328 55.2108 47.5212C55.3442 47.5076 55.4015 47.41 55.4107 47.2903C55.4193 47.1797 55.4114 47.0675 55.4049 46.9563C55.3411 45.7987 55.275 44.6418 55.2101 43.4846Z" fill="#E4E4E4"/>
<path d="M85.9194 60.4514C85.7607 60.4043 85.6011 60.3607 85.4441 60.3088C84.9556 60.1485 84.4773 59.9704 84.1566 59.5316C84.0836 59.2601 83.8966 59.0472 83.7779 58.7981C83.2754 57.7443 82.9134 56.6348 82.4753 55.5557C82.3095 55.1474 82.2389 54.6994 81.9759 54.3309C81.7585 53.7431 81.5463 53.1536 81.3225 52.5685C80.9902 51.7006 80.7023 50.8159 80.3291 49.9637C80.3263 49.9371 80.3161 49.9112 80.2953 49.8853C80.2557 49.7525 80.2243 49.6168 80.1749 49.4878C79.8265 48.58 79.4741 47.6735 79.1241 46.7663C78.6942 45.6528 78.2695 44.5375 77.8317 43.427C77.7768 43.2878 77.7598 43.0784 77.523 43.0917C77.336 43.0814 77.2371 43.2152 77.1829 43.3516C76.9512 43.9316 76.6653 44.4908 76.508 45.0994C76.5224 45.109 76.5363 45.1185 76.5507 45.1277C76.5486 45.1291 76.5469 45.1305 76.5449 45.1318C76.5326 45.1209 76.5203 45.1103 76.508 45.0994C76.3716 45.3031 76.2982 45.5306 76.2518 45.7688C76.0857 46.1881 75.9195 46.607 75.7534 47.026C75.7179 47.084 75.6729 47.1382 75.6486 47.2006C75.3713 47.9229 75.097 48.6461 74.822 49.3694C74.8377 49.3824 74.8531 49.395 74.8687 49.408C74.8681 49.4086 74.8674 49.409 74.8664 49.4093C74.8517 49.396 74.8367 49.3827 74.8217 49.3694C74.7599 49.4428 74.7463 49.5315 74.7388 49.6226C74.6142 49.8334 74.5218 50.0558 74.4972 50.3022C74.2454 50.9449 73.9933 51.5877 73.7415 52.2301C73.1216 53.5367 72.6788 54.9133 72.1432 56.2534C72.1497 56.2585 72.1558 56.2633 72.1623 56.2684C72.1616 56.2684 72.1609 56.2684 72.1602 56.2688C72.1599 56.2688 72.1432 56.2534 72.1432 56.2534C72.0937 56.3029 72.0702 56.3616 72.0801 56.4318C71.8706 56.9443 71.6703 57.4611 71.4493 57.9684C71.1286 58.7047 70.8331 59.4607 70.1402 59.9526C69.7738 60.0833 69.4197 60.2467 69.0413 60.3474C68.898 60.3856 68.7432 60.4354 68.707 60.622C68.6527 60.9024 68.7766 61.042 69.1082 61.0423C70.7806 61.0447 72.453 61.0437 74.1253 61.0427C74.2352 61.0427 74.3509 61.0601 74.4385 60.9662C74.6071 60.5828 74.5805 60.5036 74.2372 60.3753C74.1728 60.3511 74.1066 60.3286 74.0394 60.3146C73.5897 60.2225 73.1646 60.0652 72.7631 59.8441C72.7314 59.8189 72.6996 59.794 72.6679 59.7688C72.5342 59.576 72.5017 59.3648 72.5243 59.1328C72.5676 58.6879 72.6457 58.2523 72.7586 57.8187C72.8422 57.4976 73.0084 57.195 72.9964 56.8504C73.0633 56.7836 73.0817 56.6993 73.0841 56.6089C73.369 55.9573 73.5218 55.2603 73.7753 54.5974C73.9203 54.2173 73.9285 54.1962 74.343 54.1965C75.8383 54.1972 77.3336 54.1989 78.829 54.201C79.5355 54.202 79.5355 54.203 79.8003 54.8321C79.9725 55.5663 80.3161 56.2401 80.5518 56.9518C80.8183 57.7566 81.1683 58.5327 81.3294 59.3737C81.3775 59.6241 81.3021 59.7769 81.1274 59.9151C80.9947 60.0202 80.8398 60.0741 80.6753 60.1198C80.3686 60.2054 80.0503 60.2634 79.7658 60.4142C79.5434 60.5323 79.4867 60.7499 79.6119 60.9352C79.7088 61.0788 79.8566 61.0447 79.992 61.0444C81.8885 61.0416 83.785 61.0372 85.6816 61.0328C85.7512 61.0328 85.8221 61.0375 85.89 61.0263C86.0586 60.9986 86.1084 60.8588 86.1336 60.7223C86.1647 60.5678 86.1118 60.4473 85.9194 60.4514ZM74.5811 50.3025C74.5811 50.3042 74.5818 50.3062 74.5818 50.308C74.5818 50.308 74.5818 50.308 74.5818 50.3083C74.5781 50.3062 74.5743 50.3045 74.5706 50.3028L74.5811 50.3025ZM75.0994 50.9019V50.9016C75.1007 50.9009 75.1014 50.8995 75.1024 50.8985C75.1523 50.86 75.1768 50.8105 75.1737 50.7491C75.2031 50.7429 75.23 50.7296 75.2543 50.7092C75.5105 50.352 75.5589 49.9091 75.7476 49.5233C75.8073 49.4018 75.8598 49.265 75.7783 49.1258C75.9192 49.0746 75.9465 48.9344 75.9983 48.8164C76.1215 48.5353 76.2095 48.2405 76.3228 47.9553C76.348 47.8649 76.3593 47.7717 76.3869 47.6824C76.3941 47.6592 76.4009 47.6356 76.4057 47.6124C76.5694 47.5814 76.5404 47.3944 76.6076 47.2863C76.6701 47.1856 76.6445 47.0219 76.7782 46.9724C77.0894 48.0921 77.5465 49.1599 77.9621 50.2411C78.175 50.7955 78.2923 51.3925 78.6376 51.8933C78.6574 51.9084 78.6782 51.9189 78.7007 51.924C78.6945 51.995 78.7014 52.0612 78.7491 52.1148L78.7495 52.1151C78.7532 52.1192 78.757 52.1233 78.7611 52.127C78.7672 52.1328 78.7734 52.1383 78.7809 52.1434C78.7833 52.1455 78.786 52.1472 78.7887 52.1492C78.789 52.1523 78.7894 52.1554 78.7901 52.1584C78.7774 52.1663 78.7662 52.1782 78.756 52.1929C78.6884 52.4 78.7945 52.5757 78.8641 52.7538C78.962 53.0028 78.8986 53.1253 78.6205 53.1243C78.3698 53.1229 78.1193 53.1246 77.8682 53.1249C76.9208 53.1249 75.9731 53.1273 75.0257 53.1236C74.5283 53.1215 74.5231 53.1113 74.6303 52.6371C74.6521 52.5402 74.6692 52.446 74.6248 52.3522C74.6173 52.3406 74.6091 52.3311 74.6009 52.3246C74.9714 51.936 75.0639 51.4423 75.1198 50.9357C75.113 50.9255 75.1055 50.9173 75.0973 50.9104C75.0977 50.9077 75.0983 50.905 75.0994 50.9019ZM70.2542 59.9697C70.2501 59.9745 70.2456 59.9789 70.2412 59.9837C70.2412 59.9837 70.2412 59.9837 70.2409 59.9837C70.2388 59.9775 70.2364 59.9717 70.2337 59.9666C70.2409 59.968 70.2477 59.9687 70.2542 59.9697C70.2545 59.9697 70.2545 59.9697 70.2542 59.9697ZM80.2789 50.078C80.2758 50.0743 80.2731 50.0705 80.2707 50.0668C80.2738 50.0671 80.2769 50.0671 80.2799 50.0671C80.2793 50.0708 80.2793 50.0746 80.2789 50.078ZM72.1623 56.4397C72.1623 56.44 72.1623 56.44 72.1623 56.4404L72.165 56.44C72.1637 56.4438 72.1626 56.4479 72.1613 56.4516V56.452V56.4523C72.1538 56.4458 72.1456 56.4407 72.1364 56.4373C72.1449 56.4383 72.1538 56.439 72.1623 56.4397ZM72.7225 59.8926C72.7218 59.894 72.7215 59.8957 72.7211 59.897L72.7208 59.8967C72.7204 59.8964 72.7204 59.8963 72.7201 59.896C72.7204 59.895 72.7215 59.894 72.7225 59.8926Z" fill="#E4E4E4"/>
<path d="M43.307 60.4357C43.2869 60.4586 43.2763 60.4828 43.2746 60.508C43.2712 60.5012 43.2681 60.4951 43.2643 60.4882C43.2783 60.4705 43.2927 60.4531 43.307 60.4357C43.2487 60.4111 43.1903 60.3866 43.1316 60.3617C43.1207 60.3736 43.1098 60.3859 43.0989 60.3978C43.1098 60.3859 43.1207 60.3736 43.132 60.3617C43.0279 60.2835 42.9085 60.2791 42.786 60.2887C42.7024 60.2597 42.6288 60.2 42.5336 60.2085C42.1273 60.0178 41.7407 59.8001 41.4596 59.4357C41.2477 59.0264 41.0325 58.6187 40.8608 58.1898C40.6732 57.7095 40.5432 57.2056 40.274 56.759C40.1048 56.2479 39.9469 55.7321 39.6787 55.2606C39.6272 55.1156 39.5757 54.9706 39.5242 54.8256C39.5378 54.7287 39.5071 54.6434 39.4539 54.5643C39.3004 54.1201 39.184 53.6612 38.9595 53.2443C38.9503 53.2187 38.9363 53.1931 38.9169 53.1679L38.9162 53.1665C38.9374 53.0877 38.9145 53.0294 38.8374 52.9959C38.4601 51.9554 38.0903 50.9121 37.6652 49.8893C37.5679 49.5093 37.4202 49.1476 37.2602 48.7904C37.2653 48.6939 37.2592 48.6007 37.1756 48.5332C37.1742 48.5079 37.1657 48.4858 37.1497 48.4663C37.162 48.3947 37.1381 48.3384 37.078 48.2974V48.2971C37.0098 47.9344 36.8716 47.5991 36.6942 47.2791C36.6898 47.2566 36.6772 47.234 36.6563 47.2108C36.5782 47.0021 36.5028 46.7922 36.422 46.5845C36.0119 45.534 35.6004 44.4843 35.1887 43.4348C35.1341 43.2957 35.1109 43.1196 34.9181 43.1008C34.7158 43.0814 34.6087 43.2346 34.5445 43.3847C34.447 43.6126 34.3248 43.8357 34.2975 44.0899C34.2464 44.138 34.2143 44.1943 34.2222 44.2673C33.6323 45.764 33.038 47.2589 32.4549 48.7587C32.1687 49.4949 31.8555 50.2213 31.6256 50.9786C31.5317 51.0701 31.5 51.1926 31.454 51.3092C31.1571 52.0608 30.8515 52.809 30.5618 53.5636C30.2073 54.4865 29.8658 55.4141 29.5185 56.3397C29.4425 56.4086 29.4189 56.4953 29.4319 56.5942C29.3793 56.7071 29.3268 56.82 29.2743 56.933C28.9925 57.5515 28.7028 58.167 28.4326 58.7906C28.334 59.0182 28.1372 59.1956 28.103 59.4535C28.103 59.4535 28.1031 59.4535 28.1034 59.4535C28.0164 59.5606 27.9301 59.6681 27.8434 59.7752C27.8434 59.7752 27.8434 59.7752 27.8431 59.7755C27.8431 59.7755 27.8434 59.7755 27.8434 59.7752C27.434 60.0096 27.0127 60.2191 26.561 60.3603C26.5586 60.361 26.5566 60.3617 26.5542 60.3627C26.0063 60.39 25.4781 60.273 24.9524 60.1402C24.1394 59.9349 23.7191 59.4729 23.6174 58.6378C23.5386 57.9902 23.4806 57.34 23.4854 56.686C23.4922 56.5611 23.5069 56.4359 23.5045 56.311C23.483 55.2094 23.5038 54.1078 23.4318 53.0058C23.3783 52.185 23.4083 51.359 23.3933 50.5351C23.3888 50.2861 23.4308 50.0326 23.3407 49.789C23.3251 49.801 23.3094 49.8126 23.2937 49.8242C23.2926 49.8184 23.2913 49.8129 23.2903 49.8071C23.307 49.801 23.324 49.7952 23.3407 49.789C23.3121 48.6318 23.337 47.4742 23.2677 46.3163C23.2128 45.3979 23.2537 44.474 23.2449 43.5525C23.2411 43.1718 23.3162 42.8044 23.3994 42.4369C23.4827 42.0695 23.7201 41.8215 24.0367 41.6499C24.2066 41.5578 24.3953 41.4933 24.5822 41.4407C24.9309 41.3432 25.2837 41.2691 25.6474 41.2323C25.9363 41.203 26.0561 41.0273 26.0359 40.7833C26.0141 40.5223 25.9687 40.4882 25.5999 40.4879C24.2448 40.4865 22.8901 40.4872 21.535 40.4875C21.4514 40.4875 21.3671 40.4872 21.2842 40.4961C21.1389 40.5114 21.0604 40.597 21.0474 40.7424C20.4235 42.0613 19.7954 43.3782 19.1765 44.6995C18.646 45.8319 18.1264 46.9693 17.6017 48.1043C17.5969 48.1115 17.5935 48.1187 17.5904 48.1258C17.1746 48.9225 16.8003 49.7389 16.438 50.5611C16.1159 51.2263 15.7683 51.8797 15.5244 52.5801C14.9594 53.7776 14.3948 54.975 13.8298 56.1725C13.7012 56.2411 13.7428 56.4397 13.591 56.4905C13.5006 56.4792 13.4903 56.3984 13.4627 56.3407C13.0516 55.4748 12.6538 54.6021 12.2311 53.7421C11.9009 53.0703 11.6354 52.3665 11.2434 51.7248C11.0353 51.2877 10.8371 50.8456 10.614 50.4164C10.5212 50.2376 10.5017 50.0132 10.3141 49.8876C10.3141 49.8876 10.3141 49.8873 10.3138 49.8873C9.64133 48.4629 8.96924 47.0382 8.29715 45.6139V45.6135C8.34525 45.476 8.25928 45.3716 8.20708 45.2608C7.50906 43.7856 6.80285 42.3145 6.1178 40.8331C5.99907 40.5762 5.85715 40.4841 5.57978 40.4886C4.5464 40.5046 3.51267 40.4985 2.47929 40.5005C2.11629 40.5012 1.75295 40.5025 1.38996 40.5005C1.21664 40.4995 1.08427 40.5442 1.07506 40.7482C0.988746 40.9914 1.1085 41.1207 1.32752 41.1804C1.46058 41.2166 1.59943 41.232 1.73589 41.2555C2.41003 41.3735 3.06916 41.5271 3.58637 42.0231C3.79072 42.3158 3.90604 42.6427 3.94288 42.9947C4.01691 43.703 4.04898 44.4133 4.01691 45.1257C3.9497 46.6162 3.87533 48.1067 3.80334 49.5973C3.70543 51.6173 3.63754 53.639 3.44785 55.6533C3.35779 56.6106 3.2551 57.5675 3.01867 58.5047C2.85662 59.1471 2.52501 59.6503 1.9232 59.9557C1.8246 59.9427 1.72805 59.9349 1.67653 60.0475C1.60079 60.0304 1.54007 60.0498 1.50186 60.1215H1.50151C1.49503 60.1283 1.48855 60.1338 1.48173 60.1385C1.48821 60.1327 1.49503 60.128 1.50151 60.1215C1.3804 60.1116 1.25315 60.0802 1.17059 60.2115C0.984993 60.1723 0.813389 60.2487 0.642125 60.2904C0.271622 60.3801 0.207143 60.7342 0.493038 61.0399C0.493038 61.0399 0.493038 61.0399 0.493038 61.0402C0.53466 61.0443 0.576278 61.0518 0.618241 61.0518C2.86924 61.0525 5.12058 61.0529 7.37157 61.0532C7.42753 61.0532 7.48347 61.0529 7.53942 61.0501C7.70591 61.0419 7.78472 60.9522 7.80724 60.7878C7.85295 60.4548 7.76254 60.348 7.41217 60.2887C6.72268 60.1713 6.04069 60.0266 5.45116 59.6159C5.10386 59.2989 4.93532 58.8906 4.87562 58.4378C4.73336 57.357 4.68491 56.2708 4.689 55.1804C4.69583 53.3931 4.75144 51.6084 4.83605 49.8224C4.90394 48.3872 4.9053 46.9471 4.95546 45.5095C4.9674 45.1669 4.98036 44.8247 4.99264 44.4822C5.21269 44.8319 5.37269 45.1959 5.53645 45.5586C5.90491 46.3726 6.25904 47.1934 6.65103 47.9955C6.86358 48.4305 6.99186 48.9088 7.29788 49.2971V49.2977C7.27571 49.3786 7.29686 49.4386 7.38113 49.4673C7.46096 49.6437 7.53908 49.8207 7.62096 49.9961C7.9843 50.7726 8.34866 51.5484 8.71303 52.3242C8.69597 52.4242 8.75976 52.4968 8.79832 52.578C8.78706 52.6647 8.81469 52.7428 8.84983 52.8199C9.29505 53.7963 9.74061 54.7724 10.1845 55.7495C10.5707 56.5993 10.9415 57.456 11.3454 58.2973C11.53 58.6818 11.6272 59.1116 11.9148 59.4453C12.0499 59.7346 12.1891 60.0219 12.3184 60.3136C12.3867 60.4674 12.4829 60.5694 12.6603 60.5677C12.8298 60.5664 12.9018 60.4374 12.9574 60.3122C13.3064 59.5268 13.7121 58.7667 14.0168 57.9616C14.246 57.6279 14.3849 57.2489 14.5527 56.8849C15.5489 54.7239 16.5437 52.5623 17.5389 50.4007C17.6235 50.3594 17.6399 50.2714 17.674 50.1977C18.2448 48.9596 18.8186 47.7233 19.3802 46.4811C19.5224 46.1659 19.7173 45.8728 19.7967 45.5296C20.0799 44.9353 20.3225 44.3212 20.6363 43.7419C20.7394 43.7948 20.7315 43.8545 20.7312 43.9067C20.7237 45.6111 20.7336 47.3152 20.7752 49.0193C20.8008 50.0667 20.8172 51.1148 20.8134 52.1628C20.8056 54.4807 20.9113 56.8003 20.7169 59.1154C20.5978 59.3351 20.4784 59.5548 20.3593 59.7749C20.1307 59.9386 19.8882 60.0788 19.6142 60.1457C19.2482 60.2351 18.8828 60.3282 18.5061 60.3716C18.2697 60.3989 18.1902 60.5029 18.2073 60.6895C18.225 60.8806 18.3164 60.9556 18.5508 60.9573C19.3058 60.9625 20.0605 60.9662 20.8155 60.9679C24.381 60.9771 27.9461 60.9846 31.5116 60.9976C31.6668 60.9983 31.7842 60.9928 31.8268 60.8106C31.8702 60.6254 31.8033 60.5084 31.6334 60.4504C31.4884 60.4009 31.3363 60.3729 31.1899 60.3262C30.7808 60.1959 30.3383 60.1351 30.0333 59.7834C30.0456 59.706 30.0204 59.65 29.9423 59.6237L29.9419 59.623C29.9682 59.2778 29.9221 58.9308 30.0003 58.5852C30.3036 57.2417 30.7136 55.9303 31.18 54.6359C31.3206 54.2463 31.222 54.2477 31.7361 54.2473C33.4617 54.2466 35.1876 54.2449 36.9133 54.2436C36.9167 54.2453 36.9194 54.2473 36.9228 54.2494C37.0852 54.48 37.1353 54.7577 37.2428 55.0115C37.2189 55.1118 37.2551 55.1978 37.307 55.2797C37.439 55.6427 37.5669 56.0074 37.7054 56.3677C37.7682 56.5304 37.7505 56.7324 37.9255 56.8439C38.0329 57.1278 38.1404 57.4116 38.2479 57.6958C38.224 57.8551 38.3001 57.9889 38.3502 58.1322C38.5362 58.6657 38.7473 59.1959 38.6716 59.781C38.4911 59.9362 38.2912 60.0608 38.0582 60.1143C37.9088 60.1488 37.7617 60.1798 37.6362 60.2733H37.6358C37.4946 60.2743 37.3602 60.3054 37.2343 60.3692C37.1002 60.4371 36.9238 60.4818 36.9313 60.6701C36.9378 60.8362 37.049 60.945 37.2203 60.9778C37.3602 61.0672 37.5175 61.0396 37.6689 61.0409C38.3942 61.0464 39.1196 61.0488 39.8449 61.0498C40.9328 61.0515 42.0208 61.0508 43.1091 61.0515C43.2688 61.0515 43.4209 61.0437 43.4656 60.8437C43.5028 60.6701 43.5322 60.5046 43.307 60.4357ZM32.0425 52.0676C32.0445 52.0656 32.0466 52.0639 32.0486 52.0618C32.0595 52.0523 32.0704 52.0431 32.081 52.0332C32.0824 52.0311 32.0831 52.0284 32.0841 52.0264C32.1956 51.9032 32.2311 51.7524 32.2219 51.5852C32.239 51.5805 32.2553 51.5726 32.2707 51.5617C32.3969 51.3608 32.561 51.1704 32.4716 50.9039C32.6047 50.9186 32.6593 50.8128 32.6924 50.7183C32.9233 50.0534 33.2505 49.4216 33.386 48.7239C33.3843 48.7045 33.3812 48.6857 33.3764 48.6676C33.6722 48.3541 34.0366 47.3463 33.9762 46.9785C33.9946 46.9696 34.011 46.958 34.0253 46.942C34.026 46.9403 34.0563 46.9236 34.0563 46.9236C34.0563 46.9236 34.0908 46.9243 34.0911 46.9219C34.1089 46.9386 34.1215 46.9604 34.13 46.9833C34.1488 47.0457 34.1604 47.1119 34.1792 47.175C34.578 48.3449 35.0471 49.4898 35.4804 50.6477C35.6687 51.1513 35.8086 51.6794 36.0945 52.1447C36.1139 52.1598 36.1347 52.1703 36.1569 52.1754C36.1494 52.2628 36.1569 52.345 36.2377 52.4044L36.2395 52.4061C36.2395 52.4068 36.2395 52.4074 36.2398 52.4081C36.2347 52.4112 36.2302 52.4149 36.2255 52.4194C36.1613 52.5262 36.1859 52.6398 36.2357 52.7333C36.4138 53.0679 36.248 53.1699 35.9457 53.1925C34.7677 53.2174 33.5886 53.2307 32.4089 53.1873C32.3072 53.1652 32.2055 53.1512 32.1015 53.1635C32.0373 53.1693 31.9807 53.2075 31.9138 53.2017C31.8869 53.1925 31.8633 53.1774 31.8422 53.159C31.8255 53.1365 31.8132 53.1106 31.8026 53.085C31.7965 53.0464 31.7931 53.0069 31.7866 52.968C32.0561 52.7452 32.0912 52.4327 32.0732 52.1001C32.0636 52.0878 32.0527 52.0786 32.0411 52.0724C32.0421 52.0704 32.0421 52.0693 32.0425 52.0676ZM29.5472 56.3636C29.5469 56.3639 29.5465 56.3639 29.5458 56.3639C29.5451 56.3632 29.5182 56.339 29.5179 56.3387C29.5277 56.3472 29.5376 56.3554 29.5472 56.3636Z" fill="#E4E4E4"/>
<path d="M68.9983 56.9605C69.0314 56.8039 68.9955 56.6845 68.84 56.619C68.6881 56.5552 68.5616 56.5972 68.479 56.7329C68.3944 56.8721 68.2654 56.9963 68.2914 57.1826C68.1041 57.5241 67.9226 57.8687 67.7281 58.2057C67.3945 58.785 67.0748 59.3783 66.4419 59.7017C66.1898 59.7331 65.9834 59.8894 65.7439 59.9569C64.5085 60.3049 63.2538 60.2555 62.0048 60.0917C61.5165 60.0276 61.1191 59.7325 60.984 59.2122C60.9001 58.8898 60.825 58.564 60.825 58.2238C60.825 54.5096 60.8172 50.7957 60.8196 47.0814C60.8199 46.5243 60.812 45.9658 60.912 45.4111C60.9932 44.9601 61.1849 44.595 61.5752 44.3446C61.578 44.3446 61.5807 44.3436 61.5834 44.3416C62.0385 44.1652 62.5144 44.0765 62.9938 43.9956C63.2585 43.9513 63.3646 43.8359 63.3462 43.662C63.3281 43.4897 63.2145 43.4194 62.9314 43.4109C62.3173 43.3928 61.7035 43.3682 61.0894 43.3621C60.2508 43.3535 59.4122 43.36 58.5737 43.36C57.861 43.36 57.1479 43.3607 56.4353 43.3583C56.2377 43.3576 56.1166 43.432 56.0999 43.6439C56.0835 43.8482 56.1753 43.9687 56.3728 43.9939C56.9282 44.0649 57.4594 44.218 57.9725 44.4384C58.1728 44.5858 58.2925 44.796 58.3587 45.0229C58.4522 45.3432 58.531 45.6687 58.5361 46.0088C58.5894 49.4024 58.5692 52.7963 58.5648 56.1902C58.5638 56.9162 58.5542 57.6425 58.5297 58.3681C58.5136 58.8424 58.488 59.3224 58.1513 59.7103C57.7283 60.0525 57.2407 60.2353 56.7048 60.3063C56.5809 60.3227 56.4585 60.3582 56.3394 60.3977C56.1262 60.4687 56.0787 60.5748 56.1023 60.8194C56.1224 61.0289 56.2527 61.0633 56.4233 61.0572C56.4793 61.0551 56.5352 61.0558 56.5912 61.0558C59.7237 61.0545 62.856 61.0538 65.9885 61.0517C66.5477 61.0514 67.1072 61.0364 67.6664 61.0463C67.926 61.0507 68.114 60.9507 68.1921 60.7181C68.2842 60.4438 68.3937 60.1674 68.3746 59.8669C68.3784 59.8413 68.3818 59.8157 68.3845 59.7901C68.477 59.6929 68.4766 59.5738 68.4633 59.452C68.5223 59.1941 68.5851 58.9369 68.64 58.6779C68.7615 58.1058 68.8775 57.5326 68.9983 56.9605Z" fill="#E4E4E4"/>
<path d="M97.4448 51.7212C97.3506 51.6076 97.2012 51.6158 97.0818 51.5578C96.7826 51.3119 96.3797 51.3504 96.0453 51.2023C96.0832 51.0795 96.1805 51.0928 96.2548 51.0638C97.0985 50.7387 97.8539 50.2877 98.4028 49.5457C99.2751 48.4836 99.4396 47.2991 98.994 46.0201C98.8398 45.5776 98.6638 45.1375 98.2489 44.8564C98.1643 44.7755 98.0794 44.6943 97.9948 44.6131C97.9323 44.3832 97.7228 44.3102 97.5482 44.2078C96.6608 43.6872 95.68 43.4811 94.6708 43.4426C93.5723 43.4006 92.4737 43.3368 91.3711 43.3955C90.5226 43.4405 89.6697 43.4037 88.8188 43.4047C88.275 43.4054 87.7309 43.4054 87.187 43.4126C87.0458 43.4143 86.8609 43.3576 86.8346 43.5937C86.7787 43.8288 86.8977 43.9206 87.1123 43.9635C87.4269 44.0263 87.7421 44.0833 88.0495 44.1829C88.5022 44.3289 88.7663 44.6278 88.9113 45.0747C89.0525 45.5104 89.0559 45.9573 89.0624 46.4011C89.1194 50.2423 89.1146 54.0838 89.0645 57.925C89.0566 58.5237 89.057 59.1289 88.7595 59.6799C88.5497 59.9317 88.2829 60.0821 87.971 60.1876C87.6268 60.3039 87.2696 60.3459 86.9213 60.4342C86.6149 60.5117 86.5873 60.5581 86.7333 60.8491C86.7367 60.8593 86.7415 60.8695 86.7493 60.8808L86.751 60.8832C86.8049 61.0244 86.9302 60.9907 87.0345 60.9917C87.7278 61.0002 88.4221 61.0265 89.1146 61.0023C89.5564 60.9866 90.0013 61.0384 90.4411 60.9579C91.0528 61.0139 91.6645 60.9623 92.2755 60.9501C93.3188 60.9289 94.3641 60.9108 95.3937 60.7065C95.6653 60.7362 95.9253 60.7136 96.1538 60.5431L96.1515 60.539C96.1586 60.5321 96.1661 60.5267 96.174 60.5219C96.1665 60.5274 96.159 60.5325 96.1515 60.539C96.2763 60.5632 96.3998 60.5816 96.4851 60.4526C96.5847 60.4731 96.6738 60.4595 96.74 60.3731C96.7942 60.3725 96.8536 60.3861 96.9017 60.3684C97.4636 60.1633 97.9903 59.8914 98.4669 59.5274C98.9531 59.1562 99.4007 58.7506 99.6685 58.1842C100.027 57.5473 100.29 56.8766 100.309 56.138C100.329 55.4031 100.319 54.6672 99.9281 54.0026C99.4471 52.8638 98.555 52.174 97.4448 51.7212ZM96.4022 59.3609C96.3244 59.3463 96.2709 59.3954 96.2159 59.4356C95.0488 60.2937 93.7309 60.3035 92.3782 60.1173C92.3386 60.0456 92.2782 60.0279 92.2021 60.0494L92.1974 60.0473C91.8316 59.8413 91.558 59.5625 91.4837 59.131C91.4338 58.8427 91.3731 58.5575 91.3738 58.2614C91.3769 56.9622 91.368 55.6634 91.3653 54.3646C91.3639 53.6246 91.3653 52.8846 91.3701 52.1439C91.3718 51.8345 91.3772 51.8236 91.6638 51.8256C92.3891 51.8304 93.1141 51.785 93.8387 51.8891C94.9216 52.0454 95.8823 52.4322 96.6373 53.2538C96.7188 53.3425 96.7717 53.4728 96.9163 53.4885C97.5226 54.2622 97.731 55.1718 97.7109 56.1192C97.685 57.3508 97.3619 58.4916 96.4022 59.3609ZM96.5148 46.6806C96.5656 47.7324 96.6407 48.7879 96.1074 49.7633C96.0815 49.8111 96.1184 49.75 96.1051 49.8039C96.1081 49.8292 96.116 49.851 96.1293 49.8694C95.8454 49.937 95.6902 50.1464 95.5629 50.3863C95.5537 50.3747 95.5404 50.3648 95.5227 50.3566C95.422 50.3273 95.3255 50.3494 95.2385 50.3951C94.1949 50.9489 93.0574 50.9181 91.9261 50.9379C91.628 50.9434 91.4912 50.8254 91.4959 50.52C91.5301 48.443 91.4233 46.3646 91.5567 44.289C91.6246 44.3357 91.7023 44.3289 91.7805 44.3221C92.3383 44.2743 92.8978 44.29 93.4563 44.3027C94.7933 44.332 95.7847 44.9075 96.322 46.1722C96.3715 46.2899 96.3875 46.4496 96.5656 46.4578C96.511 46.5223 96.5107 46.6007 96.5148 46.6806Z" fill="#E4E4E4"/>
</g>
<defs>
<clipPath id="clip0_2377_8902">
<rect width="100" height="100" fill="white" transform="translate(0.314941 0.772949)"/>
</clipPath>
</defs>
</svg>
