<svg width="101" height="100" viewBox="0 0 101 100" fill="none" xmlns="http://www.w3.org/2000/svg">
<g clip-path="url(#clip0_2377_8862)">
<path d="M55.2101 42.7116C55.2016 42.5585 55.2074 42.4039 55.1914 42.2514C55.1716 42.0614 55.0699 42.0102 54.9069 42.1003C54.8587 42.1269 54.8089 42.1607 54.7758 42.2037C54.4548 42.6175 54.0041 42.6574 53.5296 42.6574C52.2441 42.6581 50.9586 42.6738 49.6731 42.6738C47.2836 42.6738 44.8944 42.6629 42.5049 42.6659C42.0255 42.6666 41.58 42.624 41.2825 42.1835C41.2675 42.1614 41.2422 42.1446 41.2194 42.1289C41.056 42.0157 40.9628 42.046 40.9205 42.2364C40.8994 42.3309 40.898 42.4302 40.8908 42.5278C40.8229 43.4469 40.7537 44.3659 40.6889 45.285C40.6602 45.689 40.6408 46.0933 40.6162 46.4975C40.6087 46.621 40.6377 46.7224 40.7745 46.7524C40.9018 46.7804 40.9908 46.719 41.0505 46.6125C41.0774 46.5644 41.0955 46.5108 41.114 46.4583C41.2934 45.9431 41.5356 45.4563 41.7744 44.9671C42.2398 44.0142 42.9996 43.5284 44.0473 43.4219C44.7999 43.3455 45.5518 43.3216 46.3061 43.3083C46.9028 43.2978 46.8926 43.2834 46.8919 43.9095C46.8899 47.667 46.8936 51.4246 46.8888 55.1818C46.8878 56.0334 46.8632 56.8853 46.8445 57.7368C46.8366 58.1019 46.7916 58.4604 46.5698 58.7702C46.0721 59.2632 45.4518 59.4679 44.7722 59.5385C44.6208 59.5542 44.471 59.5955 44.3226 59.633C44.1104 59.6866 44.1012 59.8493 44.1094 60.0291C44.1186 60.2324 44.2349 60.2901 44.4133 60.2857C44.4973 60.2836 44.5812 60.286 44.6648 60.286C46.9294 60.286 49.1937 60.286 51.4584 60.2857C51.5423 60.2857 51.6262 60.2822 51.7098 60.2853C51.8845 60.2915 51.9599 60.1843 51.9957 60.0363C52.036 59.8677 51.9896 59.7265 51.8282 59.6497C51.7555 59.6149 51.6672 59.6122 51.5853 59.5972C51.093 59.5058 50.5983 59.4382 50.1231 59.255C49.5837 59.0469 49.3472 58.6341 49.2712 58.1104C49.2115 57.6976 49.1791 57.2776 49.1777 56.8604C49.1661 53.2417 49.1637 49.6226 49.16 46.0039C49.1593 45.2352 49.1651 44.4669 49.1637 43.6983C49.1634 43.5454 49.1719 43.4141 49.3745 43.4161C50.3793 43.4254 51.3877 43.3646 52.3846 43.5352C52.7555 43.5987 53.1198 43.7058 53.4317 43.9357C53.49 43.9787 53.5497 44.0094 53.6244 43.991C53.8625 44.1336 53.9929 44.368 54.1287 44.5938C54.3961 45.038 54.5793 45.5222 54.77 46.0018C54.8475 46.1963 54.9133 46.3952 54.9901 46.59C55.028 46.6869 55.0972 46.7599 55.2108 46.7483C55.3442 46.7346 55.4015 46.6371 55.4107 46.5173C55.4193 46.4068 55.4114 46.2945 55.4049 46.1833C55.3411 45.0258 55.275 43.8689 55.2101 42.7116Z" fill="#191919"/>
<path d="M85.9194 59.6785C85.7607 59.6314 85.6011 59.5877 85.4441 59.5359C84.9556 59.3755 84.4773 59.1974 84.1566 58.7587C84.0836 58.4871 83.8966 58.2742 83.7779 58.0252C83.2754 56.9713 82.9134 55.8619 82.4753 54.7828C82.3095 54.3744 82.2389 53.9265 81.9759 53.558C81.7585 52.9702 81.5463 52.3806 81.3225 51.7956C80.9902 50.9276 80.7023 50.043 80.3291 49.1908C80.3263 49.1642 80.3161 49.1382 80.2953 49.1123C80.2557 48.9796 80.2243 48.8438 80.1749 48.7148C79.8265 47.807 79.4741 46.9005 79.1241 45.9934C78.6942 44.8798 78.2695 43.7646 77.8317 42.6541C77.7768 42.5149 77.7598 42.3054 77.523 42.3187C77.336 42.3085 77.2371 42.4422 77.1829 42.5787C76.9512 43.1587 76.6653 43.7178 76.508 44.3265C76.5224 44.336 76.5363 44.3456 76.5507 44.3548C76.5486 44.3561 76.5469 44.3575 76.5449 44.3589C76.5326 44.348 76.5203 44.3374 76.508 44.3265C76.3716 44.5301 76.2982 44.7577 76.2518 44.9958C76.0857 45.4151 75.9195 45.8341 75.7534 46.253C75.7179 46.311 75.6729 46.3653 75.6486 46.4277C75.3713 47.1499 75.097 47.8732 74.822 48.5965C74.8377 48.6094 74.8531 48.6221 74.8687 48.635C74.8681 48.6357 74.8674 48.636 74.8664 48.6364C74.8517 48.6231 74.8367 48.6098 74.8217 48.5965C74.7599 48.6698 74.7463 48.7585 74.7388 48.8496C74.6142 49.0604 74.5218 49.2829 74.4972 49.5292C74.2454 50.172 73.9933 50.8147 73.7415 51.4571C73.1216 52.7638 72.6788 54.1404 72.1432 55.4805C72.1497 55.4856 72.1558 55.4904 72.1623 55.4955C72.1616 55.4955 72.1609 55.4955 72.1602 55.4958C72.1599 55.4958 72.1432 55.4805 72.1432 55.4805C72.0937 55.5299 72.0702 55.5886 72.0801 55.6589C71.8706 56.1713 71.6703 56.6882 71.4493 57.1955C71.1286 57.9317 70.8331 58.6877 70.1402 59.1797C69.7738 59.3104 69.4197 59.4738 69.0413 59.5744C68.898 59.6126 68.7432 59.6624 68.707 59.8491C68.6527 60.1295 68.7766 60.269 69.1082 60.2694C70.7806 60.2718 72.453 60.2707 74.1253 60.2697C74.2352 60.2697 74.3509 60.2871 74.4385 60.1933C74.6071 59.8098 74.5805 59.7307 74.2372 59.6024C74.1728 59.5782 74.1066 59.5557 74.0394 59.5417C73.5897 59.4495 73.1646 59.2923 72.7631 59.0712C72.7314 59.046 72.6996 59.0211 72.6679 58.9958C72.5342 58.8031 72.5017 58.5919 72.5243 58.3599C72.5676 57.915 72.6457 57.4793 72.7586 57.0457C72.8422 56.7247 73.0084 56.4221 72.9964 56.0775C73.0633 56.0106 73.0817 55.9264 73.0841 55.8359C73.369 55.1843 73.5218 54.4873 73.7753 53.8244C73.9203 53.4444 73.9285 53.4232 74.343 53.4236C75.8383 53.4243 77.3336 53.426 78.829 53.428C79.5355 53.429 79.5355 53.4301 79.8003 54.0592C79.9725 54.7934 80.3161 55.4672 80.5518 56.1788C80.8183 56.9836 81.1683 57.7598 81.3294 58.6007C81.3775 58.8512 81.3021 59.004 81.1274 59.1422C80.9947 59.2472 80.8398 59.3011 80.6753 59.3469C80.3686 59.4325 80.0503 59.4905 79.7658 59.6413C79.5434 59.7593 79.4867 59.977 79.6119 60.1622C79.7088 60.3059 79.8566 60.2718 79.992 60.2714C81.8885 60.2687 83.785 60.2643 85.6816 60.2598C85.7512 60.2598 85.8221 60.2646 85.89 60.2533C86.0586 60.2257 86.1084 60.0858 86.1336 59.9494C86.1647 59.7948 86.1118 59.6744 85.9194 59.6785ZM74.5811 49.5295C74.5811 49.5313 74.5818 49.5333 74.5818 49.535C74.5818 49.535 74.5818 49.535 74.5818 49.5353C74.5781 49.5333 74.5743 49.5316 74.5706 49.5299L74.5811 49.5295ZM75.0994 50.129V50.1286C75.1007 50.1279 75.1014 50.1266 75.1024 50.1256C75.1523 50.087 75.1768 50.0375 75.1737 49.9761C75.2031 49.97 75.23 49.9567 75.2543 49.9362C75.5105 49.579 75.5589 49.1362 75.7476 48.7503C75.8073 48.6289 75.8598 48.4921 75.7783 48.3529C75.9192 48.3017 75.9465 48.1615 75.9983 48.0434C76.1215 47.7623 76.2095 47.4676 76.3228 47.1823C76.348 47.0919 76.3593 46.9988 76.3869 46.9094C76.3941 46.8862 76.4009 46.8627 76.4057 46.8395C76.5694 46.8084 76.5404 46.6215 76.6076 46.5133C76.6701 46.4127 76.6445 46.2489 76.7782 46.1995C77.0894 47.3192 77.5465 48.387 77.9621 49.4681C78.175 50.0225 78.2923 50.6196 78.6376 51.1204C78.6574 51.1354 78.6782 51.146 78.7007 51.1511C78.6945 51.2221 78.7014 51.2882 78.7491 51.3418L78.7495 51.3421C78.7532 51.3462 78.757 51.3503 78.7611 51.3541C78.7672 51.3599 78.7734 51.3653 78.7809 51.3705C78.7833 51.3725 78.786 51.3742 78.7887 51.3763C78.789 51.3793 78.7894 51.3824 78.7901 51.3855C78.7774 51.3933 78.7662 51.4053 78.756 51.4199C78.6884 51.627 78.7945 51.8027 78.8641 51.9808C78.962 52.2299 78.8986 52.3523 78.6205 52.3513C78.3698 52.3499 78.1193 52.3517 77.8682 52.352C76.9208 52.352 75.9731 52.3544 75.0257 52.3506C74.5283 52.3486 74.5231 52.3383 74.6303 51.8641C74.6521 51.7672 74.6692 51.6731 74.6248 51.5793C74.6173 51.5677 74.6091 51.5581 74.6009 51.5516C74.9714 51.163 75.0639 50.6694 75.1198 50.1627C75.113 50.1525 75.1055 50.1443 75.0973 50.1375C75.0977 50.1348 75.0983 50.132 75.0994 50.129ZM70.2542 59.1968C70.2501 59.2015 70.2456 59.206 70.2412 59.2107C70.2412 59.2107 70.2412 59.2107 70.2409 59.2107C70.2388 59.2046 70.2364 59.1988 70.2337 59.1937C70.2409 59.195 70.2477 59.1957 70.2542 59.1968C70.2545 59.1968 70.2545 59.1968 70.2542 59.1968ZM80.2789 49.3051C80.2758 49.3013 80.2731 49.2976 80.2707 49.2938C80.2738 49.2941 80.2769 49.2941 80.2799 49.2941C80.2793 49.2979 80.2793 49.3016 80.2789 49.3051ZM72.1623 55.6667C72.1623 55.6671 72.1623 55.6671 72.1623 55.6674L72.165 55.6671C72.1637 55.6708 72.1626 55.6749 72.1613 55.6787V55.679V55.6794C72.1538 55.6729 72.1456 55.6678 72.1364 55.6643C72.1449 55.6654 72.1538 55.666 72.1623 55.6667ZM72.7225 59.1196C72.7218 59.121 72.7215 59.1227 72.7211 59.1241L72.7208 59.1237C72.7204 59.1234 72.7204 59.1234 72.7201 59.1231C72.7204 59.122 72.7215 59.121 72.7225 59.1196Z" fill="#191919"/>
<path d="M43.307 59.6627C43.2869 59.6856 43.2763 59.7098 43.2746 59.7351C43.2712 59.7283 43.2681 59.7221 43.2643 59.7153C43.2783 59.6975 43.2927 59.6801 43.307 59.6627C43.2487 59.6382 43.1903 59.6136 43.1316 59.5887C43.1207 59.6007 43.1098 59.6129 43.0989 59.6249C43.1098 59.6129 43.1207 59.6007 43.132 59.5887C43.0279 59.5106 42.9085 59.5062 42.786 59.5157C42.7024 59.4867 42.6288 59.427 42.5336 59.4355C42.1273 59.2448 41.7407 59.0272 41.4596 58.6628C41.2477 58.2534 41.0325 57.8457 40.8608 57.4169C40.6732 56.9365 40.5432 56.4326 40.274 55.986C40.1048 55.475 39.9469 54.9591 39.6787 54.4876C39.6272 54.3426 39.5757 54.1977 39.5242 54.0527C39.5378 53.9558 39.5071 53.8705 39.4539 53.7913C39.3004 53.3471 39.184 52.8883 38.9595 52.4714C38.9503 52.4458 38.9363 52.4202 38.9169 52.3949L38.9162 52.3936C38.9374 52.3148 38.9145 52.2564 38.8374 52.223C38.4601 51.1824 38.0903 50.1392 37.6652 49.1164C37.5679 48.7363 37.4202 48.3747 37.2602 48.0175C37.2653 47.9209 37.2592 47.8278 37.1756 47.7602C37.1742 47.735 37.1657 47.7128 37.1497 47.6934C37.162 47.6217 37.1381 47.5654 37.078 47.5245V47.5242C37.0098 47.1615 36.8716 46.8261 36.6942 46.5061C36.6898 46.4836 36.6772 46.4611 36.6563 46.4379C36.5782 46.2291 36.5028 46.0193 36.422 45.8115C36.0119 44.7611 35.6004 43.7113 35.1887 42.6619C35.1341 42.5227 35.1109 42.3467 34.9181 42.3279C34.7158 42.3084 34.6087 42.4616 34.5445 42.6117C34.447 42.8396 34.3248 43.0628 34.2975 43.3169C34.2464 43.365 34.2143 43.4213 34.2222 43.4943C33.6323 44.991 33.038 46.486 32.4549 47.9857C32.1687 48.722 31.8555 49.4483 31.6256 50.2057C31.5317 50.2971 31.5 50.4196 31.454 50.5363C31.1571 51.2879 30.8515 52.036 30.5618 52.7907C30.2073 53.7135 29.8658 54.6412 29.5185 55.5667C29.4425 55.6357 29.4189 55.7223 29.4319 55.8212C29.3793 55.9342 29.3268 56.0471 29.2743 56.16C28.9925 56.7786 28.7028 57.394 28.4326 58.0177C28.334 58.2452 28.1372 58.4226 28.103 58.6805C28.103 58.6805 28.1031 58.6805 28.1034 58.6805C28.0164 58.7877 27.9301 58.8951 27.8434 59.0023C27.8434 59.0023 27.8434 59.0023 27.8431 59.0026C27.8431 59.0026 27.8434 59.0026 27.8434 59.0023C27.434 59.2366 27.0127 59.4461 26.561 59.5873C26.5586 59.588 26.5566 59.5887 26.5542 59.5897C26.0063 59.617 25.4781 59.5 24.9524 59.3673C24.1394 59.1619 23.7191 58.7 23.6174 57.8648C23.5386 57.2173 23.4806 56.567 23.4854 55.913C23.4922 55.7882 23.5069 55.6629 23.5045 55.5381C23.483 54.4365 23.5038 53.3349 23.4318 52.2329C23.3783 51.4121 23.4083 50.5861 23.3933 49.7622C23.3888 49.5131 23.4308 49.2597 23.3407 49.0161C23.3251 49.028 23.3094 49.0396 23.2937 49.0512C23.2926 49.0454 23.2913 49.0399 23.2903 49.0341C23.307 49.028 23.324 49.0222 23.3407 49.0161C23.3121 47.8588 23.337 46.7013 23.2677 45.5434C23.2128 44.6249 23.2537 43.7011 23.2449 42.7796C23.2411 42.3989 23.3162 42.0314 23.3994 41.664C23.4827 41.2966 23.7201 41.0485 24.0367 40.8769C24.2066 40.7848 24.3953 40.7203 24.5822 40.6678C24.9309 40.5702 25.2837 40.4962 25.6474 40.4593C25.9363 40.43 26.0561 40.2543 26.0359 40.0104C26.0141 39.7494 25.9687 39.7153 25.5999 39.7149C24.2448 39.7136 22.8901 39.7142 21.535 39.7146C21.4514 39.7146 21.3671 39.7142 21.2842 39.7231C21.1389 39.7385 21.0604 39.8241 21.0474 39.9694C20.4235 41.2884 19.7954 42.6053 19.1765 43.9266C18.646 45.0589 18.1264 46.1963 17.6017 47.3314C17.5969 47.3386 17.5935 47.3457 17.5904 47.3529C17.1746 48.1495 16.8003 48.9659 16.438 49.7881C16.1159 50.4534 15.7683 51.1067 15.5244 51.8071C14.9594 53.0046 14.3948 54.2021 13.8298 55.3996C13.7012 55.4681 13.7428 55.6667 13.591 55.7175C13.5006 55.7063 13.4903 55.6254 13.4627 55.5678C13.0516 54.7019 12.6538 53.8292 12.2311 52.9691C11.9009 52.2974 11.6354 51.5935 11.2434 50.9518C11.0353 50.5148 10.8371 50.0726 10.614 49.6435C10.5212 49.4647 10.5017 49.2402 10.3141 49.1147C10.3141 49.1147 10.3141 49.1143 10.3138 49.1143C9.64133 47.69 8.96924 46.2653 8.29715 44.8409V44.8406C8.34525 44.7031 8.25928 44.5987 8.20708 44.4878C7.50906 43.0126 6.80285 41.5415 6.1178 40.0602C5.99907 39.8033 5.85715 39.7112 5.57978 39.7156C4.5464 39.7316 3.51267 39.7255 2.47929 39.7276C2.11629 39.7282 1.75295 39.7296 1.38996 39.7276C1.21664 39.7265 1.08427 39.7712 1.07506 39.9752C0.988746 40.2185 1.1085 40.3478 1.32752 40.4075C1.46058 40.4437 1.59943 40.459 1.73589 40.4825C2.41003 40.6006 3.06916 40.7541 3.58637 41.2502C3.79072 41.5429 3.90604 41.8697 3.94288 42.2218C4.01691 42.9301 4.04898 43.6404 4.01691 44.3527C3.9497 45.8432 3.87533 47.3338 3.80334 48.8243C3.70543 50.8444 3.63754 52.8661 3.44785 54.8803C3.35779 55.8376 3.2551 56.7946 3.01867 57.7318C2.85662 58.3742 2.52501 58.8774 1.9232 59.1827C1.8246 59.1698 1.72805 59.1619 1.67653 59.2745C1.60079 59.2574 1.54007 59.2769 1.50186 59.3485H1.50151C1.49503 59.3554 1.48855 59.3608 1.48173 59.3656C1.48821 59.3598 1.49503 59.355 1.50151 59.3485C1.3804 59.3386 1.25315 59.3073 1.17059 59.4386C0.984993 59.3994 0.813389 59.4758 0.642125 59.5174C0.271622 59.6071 0.207143 59.9613 0.493038 60.2669C0.493038 60.2669 0.493038 60.2669 0.493038 60.2673C0.53466 60.2714 0.576278 60.2789 0.618241 60.2789C2.86924 60.2796 5.12058 60.2799 7.37157 60.2803C7.42753 60.2803 7.48347 60.2799 7.53942 60.2772C7.70591 60.269 7.78472 60.1793 7.80724 60.0148C7.85295 59.6819 7.76254 59.5751 7.41217 59.5157C6.72268 59.3983 6.04069 59.2537 5.45116 58.8429C5.10386 58.526 4.93532 58.1176 4.87562 57.6649C4.73336 56.5841 4.68491 55.4978 4.689 54.4075C4.69583 52.6201 4.75144 50.8355 4.83605 49.0495C4.90394 47.6142 4.9053 46.1742 4.95546 44.7365C4.9674 44.394 4.98036 44.0518 4.99264 43.7093C5.21269 44.059 5.37269 44.423 5.53645 44.7856C5.90491 45.5997 6.25904 46.4205 6.65103 47.2226C6.86358 47.6575 6.99186 48.1359 7.29788 48.5241V48.5248C7.27571 48.6056 7.29686 48.6657 7.38113 48.6943C7.46096 48.8707 7.53908 49.0478 7.62096 49.2231C7.9843 49.9996 8.34866 50.7754 8.71303 51.5512C8.69597 51.6512 8.75976 51.7239 8.79832 51.8051C8.78706 51.8917 8.81469 51.9699 8.84983 52.047C9.29505 53.0234 9.74061 53.9994 10.1845 54.9765C10.5707 55.8264 10.9415 56.683 11.3454 57.5243C11.53 57.9088 11.6272 58.3387 11.9148 58.6724C12.0499 58.9617 12.1891 59.2489 12.3184 59.5406C12.3867 59.6945 12.4829 59.7965 12.6603 59.7948C12.8298 59.7934 12.9018 59.6645 12.9574 59.5392C13.3064 58.7539 13.7121 57.9938 14.0168 57.1886C14.246 56.855 14.3849 56.4759 14.5527 56.1119C15.5489 53.951 16.5437 51.7894 17.5389 49.6278C17.6235 49.5865 17.6399 49.4985 17.674 49.4248C18.2448 48.1867 18.8186 46.9503 19.3802 45.7081C19.5224 45.3929 19.7173 45.0998 19.7967 44.7566C20.0799 44.1623 20.3225 43.5482 20.6363 42.9689C20.7394 43.0218 20.7315 43.0815 20.7312 43.1337C20.7237 44.8382 20.7336 46.5423 20.7752 48.2464C20.8008 49.2938 20.8172 50.3418 20.8134 51.3899C20.8056 53.7077 20.9113 56.0273 20.7169 58.3424C20.5978 58.5622 20.4784 58.7819 20.3593 59.0019C20.1307 59.1657 19.8882 59.3059 19.6142 59.3728C19.2482 59.4621 18.8828 59.5553 18.5061 59.5986C18.2697 59.6259 18.1902 59.73 18.2073 59.9166C18.225 60.1076 18.3164 60.1827 18.5508 60.1844C19.3058 60.1895 20.0605 60.1933 20.8155 60.195C24.381 60.2042 27.9461 60.2117 31.5116 60.2246C31.6668 60.2253 31.7842 60.2199 31.8268 60.0377C31.8702 59.8524 31.8033 59.7354 31.6334 59.6774C31.4884 59.6279 31.3363 59.6 31.1899 59.5532C30.7808 59.4229 30.3383 59.3622 30.0333 59.0104C30.0456 58.933 30.0204 58.877 29.9423 58.8508L29.9419 58.8501C29.9682 58.5048 29.9221 58.1579 30.0003 57.8123C30.3036 56.4688 30.7136 55.1573 31.18 53.863C31.3206 53.4734 31.222 53.4747 31.7361 53.4744C33.4617 53.4737 35.1876 53.472 36.9133 53.4706C36.9167 53.4723 36.9194 53.4744 36.9228 53.4764C37.0852 53.7071 37.1353 53.9848 37.2428 54.2386C37.2189 54.3389 37.2551 54.4249 37.307 54.5067C37.439 54.8697 37.5669 55.2344 37.7054 55.5947C37.7682 55.7574 37.7505 55.9594 37.9255 56.071C38.0329 56.3548 38.1404 56.6387 38.2479 56.9229C38.224 57.0822 38.3001 57.2159 38.3502 57.3592C38.5362 57.8928 38.7473 58.423 38.6716 59.0081C38.4911 59.1633 38.2912 59.2878 38.0582 59.3414C37.9088 59.3758 37.7617 59.4069 37.6362 59.5003H37.6358C37.4946 59.5014 37.3602 59.5324 37.2343 59.5962C37.1002 59.6641 36.9238 59.7088 36.9313 59.8971C36.9378 60.0633 37.049 60.1721 37.2203 60.2049C37.3602 60.2942 37.5175 60.2666 37.6689 60.268C38.3942 60.2734 39.1196 60.2758 39.8449 60.2768C40.9328 60.2785 42.0208 60.2779 43.1091 60.2785C43.2688 60.2785 43.4209 60.2707 43.4656 60.0708C43.5028 59.8971 43.5322 59.7317 43.307 59.6627ZM32.0425 51.2947C32.0445 51.2926 32.0466 51.2909 32.0486 51.2889C32.0595 51.2793 32.0704 51.2701 32.081 51.2602C32.0824 51.2582 32.0831 51.2555 32.0841 51.2534C32.1956 51.1303 32.2311 50.9795 32.2219 50.8123C32.239 50.8075 32.2553 50.7997 32.2707 50.7887C32.3969 50.5878 32.561 50.3974 32.4716 50.131C32.6047 50.1457 32.6593 50.0399 32.6924 49.9454C32.9233 49.2805 33.2505 48.6486 33.386 47.951C33.3843 47.9315 33.3812 47.9127 33.3764 47.8947C33.6722 47.5811 34.0366 46.5733 33.9762 46.2056C33.9946 46.1967 34.011 46.1851 34.0253 46.1691C34.026 46.1673 34.0563 46.1506 34.0563 46.1506C34.0563 46.1506 34.0908 46.1513 34.0911 46.1489C34.1089 46.1656 34.1215 46.1875 34.13 46.2103C34.1488 46.2728 34.1604 46.339 34.1792 46.4021C34.578 47.5719 35.0471 48.7169 35.4804 49.8748C35.6687 50.3783 35.8086 50.9064 36.0945 51.3718C36.1139 51.3868 36.1347 51.3974 36.1569 51.4025C36.1494 51.4898 36.1569 51.5721 36.2377 51.6314L36.2395 51.6331C36.2395 51.6338 36.2395 51.6345 36.2398 51.6352C36.2347 51.6382 36.2302 51.642 36.2255 51.6464C36.1613 51.7532 36.1859 51.8668 36.2357 51.9603C36.4138 52.295 36.248 52.397 35.9457 52.4195C34.7677 52.4444 33.5886 52.4577 32.4089 52.4144C32.3072 52.3922 32.2055 52.3782 32.1015 52.3905C32.0373 52.3963 31.9807 52.4345 31.9138 52.4287C31.8869 52.4195 31.8633 52.4045 31.8422 52.3861C31.8255 52.3636 31.8132 52.3376 31.8026 52.312C31.7965 52.2735 31.7931 52.2339 31.7866 52.195C32.0561 51.9722 32.0912 51.6597 32.0732 51.3271C32.0636 51.3148 32.0527 51.3056 32.0411 51.2995C32.0421 51.2974 32.0421 51.2964 32.0425 51.2947ZM29.5472 55.5906C29.5469 55.591 29.5465 55.591 29.5458 55.591C29.5451 55.5903 29.5182 55.5661 29.5179 55.5657C29.5277 55.5742 29.5376 55.5824 29.5472 55.5906Z" fill="#191919"/>
<path d="M68.9983 56.1876C69.0314 56.031 68.9955 55.9115 68.84 55.846C68.6881 55.7822 68.5616 55.8242 68.479 55.96C68.3944 56.0992 68.2654 56.2234 68.2914 56.4096C68.1041 56.7512 67.9226 57.0957 67.7281 57.4328C67.3945 58.0121 67.0748 58.6054 66.4419 58.9288C66.1898 58.9602 65.9834 59.1164 65.7439 59.184C64.5085 59.532 63.2538 59.4825 62.0048 59.3188C61.5165 59.2546 61.1191 58.9595 60.984 58.4392C60.9001 58.1168 60.825 57.791 60.825 57.4509C60.825 53.7366 60.8172 50.0227 60.8196 46.3085C60.8199 45.7514 60.812 45.1929 60.912 44.6381C60.9932 44.1871 61.1849 43.8221 61.5752 43.5717C61.578 43.5717 61.5807 43.5706 61.5834 43.5686C62.0385 43.3922 62.5144 43.3035 62.9938 43.2227C63.2585 43.1783 63.3646 43.063 63.3462 42.889C63.3281 42.7167 63.2145 42.6464 62.9314 42.6379C62.3173 42.6198 61.7035 42.5953 61.0894 42.5891C60.2508 42.5806 59.4122 42.5871 58.5737 42.5871C57.861 42.5871 57.1479 42.5878 56.4353 42.5854C56.2377 42.5847 56.1166 42.6591 56.0999 42.8709C56.0835 43.0753 56.1753 43.1957 56.3728 43.221C56.9282 43.2919 57.4594 43.4451 57.9725 43.6655C58.1728 43.8129 58.2925 44.023 58.3587 44.2499C58.4522 44.5703 58.531 44.8957 58.5361 45.2359C58.5894 48.6294 58.5692 52.0233 58.5648 55.4172C58.5638 56.1432 58.5542 56.8695 58.5297 57.5952C58.5136 58.0694 58.488 58.5494 58.1513 58.9373C57.7283 59.2795 57.2407 59.4624 56.7048 59.5333C56.5809 59.5497 56.4585 59.5852 56.3394 59.6248C56.1262 59.6957 56.0787 59.8018 56.1023 60.0465C56.1224 60.2559 56.2527 60.2904 56.4233 60.2842C56.4793 60.2822 56.5352 60.2829 56.5912 60.2829C59.7237 60.2815 62.856 60.2808 65.9885 60.2788C66.5477 60.2784 67.1072 60.2634 67.6664 60.2733C67.926 60.2778 68.114 60.1778 68.1921 59.9451C68.2842 59.6708 68.3937 59.3945 68.3746 59.0939C68.3784 59.0683 68.3818 59.0427 68.3845 59.0172C68.477 58.9199 68.4766 58.8009 68.4633 58.6791C68.5223 58.4212 68.5851 58.1639 68.64 57.905C68.7615 57.3328 68.8775 56.7597 68.9983 56.1876Z" fill="#191919"/>
<path d="M97.4448 50.9483C97.3506 50.8347 97.2012 50.8429 97.0818 50.7849C96.7826 50.5389 96.3797 50.5775 96.0453 50.4294C96.0832 50.3066 96.1805 50.3199 96.2548 50.2909C97.0985 49.9657 97.8539 49.5147 98.4028 48.7727C99.2751 47.7107 99.4396 46.5261 98.994 45.2471C98.8398 44.8046 98.6638 44.3645 98.2489 44.0834C98.1643 44.0026 98.0794 43.9214 97.9948 43.8402C97.9323 43.6102 97.7228 43.5372 97.5482 43.4349C96.6608 42.9142 95.68 42.7082 94.6708 42.6696C93.5723 42.6277 92.4737 42.5639 91.3711 42.6225C90.5226 42.6676 89.6697 42.6307 88.8188 42.6318C88.275 42.6324 87.7309 42.6324 87.187 42.6396C87.0458 42.6413 86.8609 42.5847 86.8346 42.8208C86.7787 43.0558 86.8977 43.1476 87.1123 43.1906C87.4269 43.2534 87.7421 43.3103 88.0495 43.41C88.5022 43.556 88.7663 43.8548 88.9113 44.3018C89.0525 44.7374 89.0559 45.1843 89.0624 45.6282C89.1194 49.4694 89.1146 53.3109 89.0645 57.152C89.0566 57.7508 89.057 58.356 88.7595 58.907C88.5497 59.1587 88.2829 59.3092 87.971 59.4146C87.6268 59.5309 87.2696 59.5729 86.9213 59.6613C86.6149 59.7387 86.5873 59.7851 86.7333 60.0761C86.7367 60.0864 86.7415 60.0966 86.7493 60.1079L86.751 60.1102C86.8049 60.2515 86.9302 60.2177 87.0345 60.2187C87.7278 60.2273 88.4221 60.2535 89.1146 60.2293C89.5564 60.2136 90.0013 60.2655 90.4411 60.185C91.0528 60.2409 91.6645 60.1894 92.2755 60.1771C93.3188 60.156 94.3641 60.1379 95.3937 59.9335C95.6653 59.9632 95.9253 59.9407 96.1538 59.7701L96.1515 59.766C96.1586 59.7592 96.1661 59.7537 96.174 59.7489C96.1665 59.7544 96.159 59.7595 96.1515 59.766C96.2763 59.7902 96.3998 59.8086 96.4851 59.6797C96.5847 59.7002 96.6738 59.6865 96.74 59.6002C96.7942 59.5995 96.8536 59.6132 96.9017 59.5954C97.4636 59.3904 97.9903 59.1185 98.4669 58.7545C98.9531 58.3833 99.4007 57.9776 99.6685 57.4113C100.027 56.7743 100.29 56.1036 100.309 55.365C100.329 54.6301 100.319 53.8942 99.9281 53.2297C99.4471 52.0909 98.555 51.401 97.4448 50.9483ZM96.4022 58.588C96.3244 58.5733 96.2709 58.6224 96.2159 58.6627C95.0488 59.5207 93.7309 59.5306 92.3782 59.3443C92.3386 59.2727 92.2782 59.2549 92.2021 59.2764L92.1974 59.2744C91.8316 59.0683 91.558 58.7896 91.4837 58.358C91.4338 58.0697 91.3731 57.7845 91.3738 57.4884C91.3769 56.1893 91.368 54.8904 91.3653 53.5916C91.3639 52.8516 91.3653 52.1117 91.3701 51.371C91.3718 51.0616 91.3772 51.0506 91.6638 51.0527C92.3891 51.0575 93.1141 51.0121 93.8387 51.1162C94.9216 51.2724 95.8823 51.6593 96.6373 52.4808C96.7188 52.5695 96.7717 52.6998 96.9163 52.7155C97.5226 53.4893 97.731 54.3988 97.7109 55.3462C97.685 56.5778 97.3619 57.7187 96.4022 58.588ZM96.5148 45.9076C96.5656 46.9594 96.6407 48.015 96.1074 48.9904C96.0815 49.0381 96.1184 48.9771 96.1051 49.031C96.1081 49.0562 96.116 49.078 96.1293 49.0965C95.8454 49.164 95.6902 49.3735 95.5629 49.6133C95.5537 49.6017 95.5404 49.5918 95.5227 49.5836C95.422 49.5543 95.3255 49.5765 95.2385 49.6222C94.1949 50.1759 93.0574 50.1452 91.9261 50.165C91.628 50.1704 91.4912 50.0524 91.4959 49.7471C91.5301 47.6701 91.4233 45.5917 91.5567 43.5161C91.6246 43.5628 91.7023 43.556 91.7805 43.5491C92.3383 43.5014 92.8978 43.5171 93.4563 43.5297C94.7933 43.559 95.7847 44.1346 96.322 45.3993C96.3715 45.517 96.3875 45.6766 96.5656 45.6848C96.511 45.7493 96.5107 45.8278 96.5148 45.9076Z" fill="#191919"/>
</g>
<defs>
<clipPath id="clip0_2377_8862">
<rect width="100" height="100" fill="white" transform="translate(0.314941)"/>
</clipPath>
</defs>
</svg>
