<svg width="101" height="100" viewBox="0 0 101 100" fill="none" xmlns="http://www.w3.org/2000/svg">
<g clip-path="url(#clip0_2377_8916)">
<path d="M28.2266 50.2747C28.2266 44.1925 23.0609 39.26 16.6787 39.26C10.2965 39.26 5.13074 44.1925 5.13074 50.2747C5.13074 56.357 10.2965 61.2894 16.6787 61.2894C23.0609 61.2728 28.2266 56.357 28.2266 50.2747Z" fill="#7C7C7C"/>
<path d="M17.8785 38.3603C17.8785 40.7265 15.9622 42.6595 13.5793 42.6595C11.213 42.6595 9.28003 40.7432 9.28003 38.3603C9.28003 35.994 11.1964 34.061 13.5793 34.061C15.9455 34.061 17.8785 35.994 17.8785 38.3603Z" fill="#BCBCBC"/>
<path d="M29.8097 42.0097C29.8097 44.3759 27.8933 46.3089 25.5104 46.3089C23.1442 46.3089 21.2112 44.3926 21.2112 42.0097C21.2112 39.6434 23.1275 37.7104 25.5104 37.7104C27.8933 37.7104 29.8097 39.6434 29.8097 42.0097Z" fill="#BCBCBC"/>
<path d="M33.9091 53.341C33.9091 55.7072 31.9928 57.6402 29.6099 57.6402C27.2437 57.6402 25.3107 55.7239 25.3107 53.341C25.3107 50.9747 27.227 49.0417 29.6099 49.0417C31.9928 49.0584 33.9091 50.9747 33.9091 53.341Z" fill="#BCBCBC"/>
<path d="M24.8108 61.6393C24.8108 64.0056 22.8944 65.9386 20.5115 65.9386C18.1453 65.9386 16.2123 64.0222 16.2123 61.6393C16.2123 59.2731 18.1286 57.3401 20.5115 57.3401C22.8778 57.3401 24.8108 59.2564 24.8108 61.6393Z" fill="#BCBCBC"/>
<path d="M12.3795 58.6567C12.3795 61.0229 10.4632 62.9559 8.08024 62.9559C5.714 62.9559 3.78101 61.0396 3.78101 58.6567C3.78101 56.2904 5.69733 54.3574 8.08024 54.3574C10.4465 54.3574 12.3795 56.2904 12.3795 58.6567Z" fill="#BCBCBC"/>
<path d="M8.91341 46.9421C8.91341 49.3083 6.99709 51.2413 4.61418 51.2413C2.24793 51.2413 0.314941 49.325 0.314941 46.9421C0.314941 44.5758 2.23127 42.6428 4.61418 42.6428C6.98042 42.6428 8.91341 44.5758 8.91341 46.9421Z" fill="#BCBCBC"/>
<path d="M17.5455 47.7584L17.2289 46.6586L16.5623 47.9251L14.1794 39.6932L15.3792 40.3931L15.0793 39.3433L13.4129 38.4268L12.4797 40.0931L12.7963 41.1429L13.4296 39.9098L15.8291 48.1417L14.596 47.4252L14.9126 48.525L16.5957 49.4248L17.5455 47.7584Z" fill="#E4E4E4"/>
<path d="M19.6117 49.775L20.3449 49.0918L19.0118 48.9918L24.6108 43.8094V45.1092L25.3107 44.4593L25.2774 42.643L23.4777 42.4763L22.7778 43.1429L24.0776 43.2262L18.4786 48.4253L18.4952 47.0755L17.7454 47.7754L17.7954 49.5917L19.6117 49.775Z" fill="#E4E4E4"/>
<path d="M10.3467 58.6566L11.0966 57.9067L9.73013 57.8734L15.3458 52.341L15.3625 53.6741L16.079 52.9742L16.029 51.1246L14.1793 51.0413L13.4795 51.7411L14.7959 51.7745L9.18023 57.3235L9.16356 55.9571L8.4137 56.6903L8.49701 58.5399L10.3467 58.6566Z" fill="#E4E4E4"/>
<path d="M14.7789 48.4584L13.7124 48.1251L14.3956 49.3582L6.34702 46.892L7.56347 46.2587L6.54699 45.9421L4.88062 46.842L5.76379 48.525L6.78028 48.8416L6.13039 47.6418L14.1623 50.1081L12.9125 50.7413L13.979 51.0746L15.6454 50.1581L14.7789 48.4584Z" fill="#E4E4E4"/>
<path d="M21.3114 59.5733L20.9781 58.5901L20.3449 59.7899L17.8953 52.4246L19.0951 52.9745L18.7785 52.0413L17.0955 51.3081L16.2123 52.8912L16.5289 53.8243L17.1454 52.6745L19.6117 60.0399L18.3786 59.4567L18.7118 60.4398L20.3949 61.173L21.3114 59.5733Z" fill="#E4E4E4"/>
<path d="M27.2602 51.8578L26.2604 51.5578L26.8769 52.7743L19.4116 50.608L20.5447 49.9414L19.6116 49.6748L18.0452 50.6246L18.8617 52.2577L19.7949 52.541L19.195 51.3578L26.6603 53.5075L25.4938 54.1907L26.4937 54.4906L28.0434 53.5075L27.2602 51.8578Z" fill="#E4E4E4"/>
<path d="M18.2617 56.0071L20.628 44.2258H26.027L28.4599 51.3079L33.7423 44.2258H39.158L36.7584 56.0071H33.4257L35.0587 47.6752L28.8765 56.0071H26.2603L23.3108 47.6919L21.6778 56.0071H18.2617Z" fill="#191919"/>
<path d="M50.0063 48.2251C49.5397 47.7586 47.9066 47.5586 46.007 47.5586C43.0408 47.5586 41.5744 48.0418 40.6912 48.925C39.8081 49.8082 39.3748 53.1409 39.3748 53.5075C39.3748 53.8575 39.2415 54.8073 39.8914 55.4572C40.5413 56.1071 42.1077 56.1571 44.5239 56.1571C46.9401 56.1571 48.2732 55.7405 49.1731 55.1239C50.0729 54.524 50.6061 51.3413 50.7061 50.3581C50.7894 49.3583 50.4728 48.6751 50.0063 48.2251ZM47.64 51.9412C47.3901 52.8243 47.2901 53.1909 46.9901 53.4076C46.6902 53.6242 45.1571 53.7742 44.8238 53.7742C44.4906 53.7742 42.8575 53.7408 42.5243 53.4076C42.191 53.0743 42.6909 50.5914 43.1741 50.3248C43.6574 50.0582 44.6572 49.9748 45.3737 49.9915C46.4735 50.0082 47.3067 50.0415 47.54 50.2748C47.7733 50.5414 47.89 51.058 47.64 51.9412Z" fill="#191919"/>
<path d="M61.4875 44.2258L60.571 48.9083C60.1377 47.8752 59.3212 47.5586 57.5715 47.5586C54.6054 47.5586 54.0888 48.0418 53.2056 48.925C52.3225 49.8082 51.8892 53.1409 51.8892 53.5075C51.8892 53.8575 51.7559 54.8073 52.4058 55.4572C53.0557 56.1071 53.5722 56.157 55.9218 56.157C58.1881 56.157 59.0046 55.3905 59.4045 54.8739L59.1879 56.0071H62.1541L64.4536 44.2258H61.4875ZM59.3212 53.4242C59.0213 53.6408 57.4882 53.7908 57.1383 53.7908C56.7883 53.7908 55.172 53.7575 54.8387 53.4242C54.5054 53.0909 55.0053 50.608 55.4886 50.3414C55.9718 50.0748 56.9716 49.9915 57.6882 50.0081C58.788 50.0248 59.6212 50.0581 59.8711 50.2914C60.0211 50.4414 60.1211 50.7247 60.1044 51.1413L59.9045 52.1244C59.7045 52.891 59.6045 53.2242 59.3212 53.4242Z" fill="#191919"/>
<path d="M75.3686 48.0584C75.002 47.7418 74.0688 47.5585 72.3025 47.5585C70.0862 47.5585 69.1697 48.0084 68.4698 48.9583L69.3863 44.2424H66.4868L64.1539 56.007H67.1034L67.3367 54.8072C67.6866 55.6237 68.2199 56.157 70.6694 56.157C73.0857 56.157 73.7356 56.0403 74.5021 55.2571C75.3186 54.4406 75.9518 51.3578 76.0352 50.358C76.1185 49.3749 75.9852 48.575 75.3686 48.0584ZM73.0524 51.9411C72.8024 52.8242 72.7024 53.1908 72.4025 53.4075C72.1025 53.6241 70.5695 53.7741 70.2362 53.7741C69.9029 53.7741 68.2699 53.7407 67.9366 53.4075C67.6033 53.0742 68.1032 50.5913 68.5865 50.3247C69.0697 50.0581 70.0695 49.9747 70.7861 49.9914C71.8859 50.0081 72.7191 50.0414 72.9524 50.2747C73.2023 50.5413 73.3023 51.0579 73.0524 51.9411Z" fill="#191919"/>
<path d="M86.0165 47.6587H85.8999C85.8999 47.6587 85.1167 52.2412 84.4001 52.9578C83.6836 53.6743 82.6338 53.7243 82.2672 53.7243C81.9172 53.7243 80.9008 53.5743 80.5342 53.2077C80.0842 52.7411 81.0674 48.4252 81.2507 47.6587H78.3679C78.3679 47.6587 77.2014 52.9411 77.2014 53.7576C77.2014 54.4075 77.2681 55.6073 79.0678 56.0239C79.4843 56.1239 79.9843 56.1738 80.6008 56.1738C81.0841 56.1738 81.534 56.1239 81.9339 56.0239C83.3337 55.6906 84.2168 54.8907 84.7001 54.2909L84.3668 56.0239H87.1163L88.7494 47.6754H86.0165V47.6587Z" fill="#191919"/>
<path d="M97.5809 50.258H100.264C100.264 50.258 100.314 49.6081 100.314 49.3415C100.314 49.0582 100.364 48.6916 99.7971 48.125C99.2306 47.5584 96.1644 47.5751 95.6479 47.5751C95.1313 47.5751 92.3485 47.5251 91.5653 48.175C90.8987 48.7082 90.3488 49.4081 90.3488 50.7745C90.3488 52.1576 91.2653 52.6909 93.0817 52.6909H96.3311C96.781 52.6909 97.3476 52.8242 97.3476 53.2408C97.3476 53.6574 97.031 54.2239 95.8978 54.2239H93.7482C93.2316 54.2239 92.2985 54.1406 92.2985 53.5574V53.2908H89.6156C89.6156 53.2908 89.4823 53.7573 89.4823 54.1573C89.4823 54.5572 89.549 55.0738 89.9989 55.5237C90.4488 55.9736 92.3318 56.1736 94.2648 56.1736C96.1978 56.1736 98.2807 56.0903 98.9806 55.3737C99.6972 54.6572 100.014 53.3241 100.014 52.6242C100.014 51.9243 99.7805 51.5911 99.5472 51.3578C99.3306 51.1411 98.664 50.7412 95.7145 50.7412C93.0817 50.7412 92.9983 50.4913 92.9983 50.2413C92.9983 50.0413 93.0317 49.5414 95.1146 49.5414C97.1976 49.5248 97.5809 49.6247 97.5809 50.258Z" fill="#191919"/>
</g>
<defs>
<clipPath id="clip0_2377_8916">
<rect width="100" height="100" fill="white" transform="translate(0.314941)"/>
</clipPath>
</defs>
</svg>
