<svg width="101" height="101" viewBox="0 0 101 101" fill="none" xmlns="http://www.w3.org/2000/svg">
<g clip-path="url(#clip0_2377_8937)">
<path d="M28.2266 51.0477C28.2266 44.9654 23.0609 40.033 16.6787 40.033C10.2965 40.033 5.13074 44.9654 5.13074 51.0477C5.13074 57.1299 10.2965 62.0624 16.6787 62.0624C23.0609 62.0457 28.2266 57.1299 28.2266 51.0477Z" fill="#7C7C7C"/>
<path d="M17.8785 39.1332C17.8785 41.4995 15.9622 43.4325 13.5793 43.4325C11.213 43.4325 9.28003 41.5161 9.28003 39.1332C9.28003 36.767 11.1964 34.834 13.5793 34.834C15.9455 34.834 17.8785 36.767 17.8785 39.1332Z" fill="#BCBCBC"/>
<path d="M29.8097 42.7826C29.8097 45.1489 27.8933 47.0819 25.5104 47.0819C23.1442 47.0819 21.2112 45.1655 21.2112 42.7826C21.2112 40.4164 23.1275 38.4834 25.5104 38.4834C27.8933 38.4834 29.8097 40.4164 29.8097 42.7826Z" fill="#BCBCBC"/>
<path d="M33.9091 54.1139C33.9091 56.4802 31.9928 58.4132 29.6099 58.4132C27.2437 58.4132 25.3107 56.4968 25.3107 54.1139C25.3107 51.7477 27.227 49.8147 29.6099 49.8147C31.9928 49.8314 33.9091 51.7477 33.9091 54.1139Z" fill="#BCBCBC"/>
<path d="M24.8108 62.4123C24.8108 64.7785 22.8944 66.7115 20.5115 66.7115C18.1453 66.7115 16.2123 64.7952 16.2123 62.4123C16.2123 60.046 18.1286 58.113 20.5115 58.113C22.8778 58.113 24.8108 60.0294 24.8108 62.4123Z" fill="#BCBCBC"/>
<path d="M12.3795 59.4296C12.3795 61.7959 10.4632 63.7288 8.08024 63.7288C5.714 63.7288 3.78101 61.8125 3.78101 59.4296C3.78101 57.0634 5.69733 55.1304 8.08024 55.1304C10.4465 55.1304 12.3795 57.0634 12.3795 59.4296Z" fill="#BCBCBC"/>
<path d="M8.91341 47.715C8.91341 50.0813 6.99709 52.0142 4.61418 52.0142C2.24793 52.0142 0.314941 50.0979 0.314941 47.715C0.314941 45.3488 2.23127 43.4158 4.61418 43.4158C6.98042 43.4158 8.91341 45.3488 8.91341 47.715Z" fill="#BCBCBC"/>
<path d="M17.5455 48.5314L17.2289 47.4316L16.5623 48.698L14.1794 40.4661L15.3792 41.166L15.0793 40.1162L13.4129 39.1997L12.4797 40.8661L12.7963 41.9159L13.4296 40.6828L15.8291 48.9146L14.596 48.1981L14.9126 49.2979L16.5957 50.1978L17.5455 48.5314Z" fill="#E4E4E4"/>
<path d="M19.6117 50.548L20.3449 49.8648L19.0118 49.7648L24.6108 44.5824V45.8821L25.3107 45.2323L25.2774 43.4159L23.4777 43.2493L22.7778 43.9158L24.0776 43.9991L18.4786 49.1982L18.4952 47.8485L17.7454 48.5483L17.7954 50.3647L19.6117 50.548Z" fill="#E4E4E4"/>
<path d="M10.3467 59.4295L11.0966 58.6797L9.73013 58.6463L15.3458 53.114L15.3625 54.4471L16.079 53.7472L16.029 51.8975L14.1793 51.8142L13.4795 52.5141L14.7959 52.5474L9.18023 58.0964L9.16356 56.73L8.4137 57.4632L8.49701 59.3129L10.3467 59.4295Z" fill="#E4E4E4"/>
<path d="M14.7789 49.2313L13.7124 48.898L14.3956 50.1311L6.34702 47.6649L7.56347 47.0317L6.54699 46.7151L4.88062 47.6149L5.76379 49.298L6.78028 49.6146L6.13039 48.4148L14.1623 50.881L12.9125 51.5142L13.979 51.8475L15.6454 50.931L14.7789 49.2313Z" fill="#E4E4E4"/>
<path d="M21.3114 60.3463L20.9781 59.3631L20.3449 60.5629L17.8953 53.1975L19.0951 53.7474L18.7785 52.8143L17.0955 52.0811L16.2123 53.6641L16.5289 54.5973L17.1454 53.4475L19.6117 60.8128L18.3786 60.2296L18.7118 61.2128L20.3949 61.946L21.3114 60.3463Z" fill="#E4E4E4"/>
<path d="M27.2602 52.6307L26.2604 52.3308L26.8769 53.5472L19.4116 51.3809L20.5447 50.7144L19.6116 50.4478L18.0452 51.3976L18.8617 53.0306L19.7949 53.3139L19.195 52.1308L26.6603 54.2804L25.4938 54.9636L26.4937 55.2636L28.0434 54.2804L27.2602 52.6307Z" fill="#E4E4E4"/>
<path d="M18.2617 56.78L20.628 44.9988H26.027L28.4599 52.0809L33.7423 44.9988H39.158L36.7584 56.78H33.4257L35.0587 48.4482L28.8765 56.78H26.2603L23.3108 48.4648L21.6778 56.78H18.2617Z" fill="#E4E4E4"/>
<path d="M50.0063 48.9981C49.5397 48.5315 47.9066 48.3315 46.007 48.3315C43.0408 48.3315 41.5744 48.8148 40.6912 49.698C39.8081 50.5811 39.3748 53.9139 39.3748 54.2805C39.3748 54.6304 39.2415 55.5803 39.8914 56.2301C40.5413 56.88 42.1077 56.93 44.5239 56.93C46.9401 56.93 48.2732 56.5134 49.1731 55.8969C50.0729 55.297 50.6061 52.1142 50.7061 51.131C50.7894 50.1312 50.4728 49.448 50.0063 48.9981ZM47.64 52.7141C47.3901 53.5973 47.2901 53.9639 46.9901 54.1805C46.6902 54.3971 45.1571 54.5471 44.8238 54.5471C44.4906 54.5471 42.8575 54.5138 42.5243 54.1805C42.191 53.8472 42.6909 51.3643 43.1741 51.0977C43.6574 50.8311 44.6572 50.7478 45.3737 50.7644C46.4735 50.7811 47.3067 50.8144 47.54 51.0477C47.7733 51.3143 47.89 51.8309 47.64 52.7141Z" fill="#E4E4E4"/>
<path d="M61.4875 44.9988L60.571 49.6813C60.1377 48.6481 59.3212 48.3315 57.5715 48.3315C54.6054 48.3315 54.0888 48.8148 53.2056 49.6979C52.3225 50.5811 51.8892 53.9139 51.8892 54.2805C51.8892 54.6304 51.7559 55.5802 52.4058 56.2301C53.0557 56.88 53.5722 56.93 55.9218 56.93C58.1881 56.93 59.0046 56.1635 59.4045 55.6469L59.1879 56.78H62.1541L64.4536 44.9988H61.4875ZM59.3212 54.1971C59.0213 54.4138 57.4882 54.5638 57.1383 54.5638C56.7883 54.5638 55.172 54.5304 54.8387 54.1971C54.5054 53.8639 55.0053 51.381 55.4886 51.1144C55.9718 50.8477 56.9716 50.7644 57.6882 50.7811C58.788 50.7978 59.6212 50.8311 59.8711 51.0644C60.0211 51.2143 60.1211 51.4976 60.1044 51.9142L59.9045 52.8974C59.7045 53.6639 59.6045 53.9972 59.3212 54.1971Z" fill="#E4E4E4"/>
<path d="M75.3686 48.8314C75.002 48.5148 74.0688 48.3315 72.3025 48.3315C70.0862 48.3315 69.1697 48.7814 68.4698 49.7312L69.3863 45.0154H66.4868L64.1539 56.78H67.1034L67.3367 55.5802C67.6866 56.3967 68.2199 56.9299 70.6694 56.9299C73.0857 56.9299 73.7356 56.8133 74.5021 56.0301C75.3186 55.2136 75.9518 52.1308 76.0352 51.131C76.1185 50.1478 75.9852 49.3479 75.3686 48.8314ZM73.0524 52.714C72.8024 53.5972 72.7024 53.9638 72.4025 54.1804C72.1025 54.397 70.5695 54.547 70.2362 54.547C69.9029 54.547 68.2699 54.5137 67.9366 54.1804C67.6033 53.8471 68.1032 51.3643 68.5865 51.0976C69.0697 50.831 70.0695 50.7477 70.7861 50.7644C71.8859 50.781 72.7191 50.8144 72.9524 51.0476C73.2023 51.3143 73.3023 51.8308 73.0524 52.714Z" fill="#E4E4E4"/>
<path d="M86.0165 48.4316H85.8999C85.8999 48.4316 85.1167 53.0142 84.4001 53.7307C83.6836 54.4472 82.6338 54.4972 82.2672 54.4972C81.9172 54.4972 80.9008 54.3473 80.5342 53.9807C80.0842 53.5141 81.0674 49.1982 81.2507 48.4316H78.3679C78.3679 48.4316 77.2014 53.714 77.2014 54.5306C77.2014 55.1804 77.2681 56.3802 79.0678 56.7968C79.4843 56.8968 79.9843 56.9468 80.6008 56.9468C81.0841 56.9468 81.534 56.8968 81.9339 56.7968C83.3337 56.4635 84.2168 55.6637 84.7001 55.0638L84.3668 56.7968H87.1163L88.7494 48.4483H86.0165V48.4316Z" fill="#E4E4E4"/>
<path d="M97.5809 51.0309H100.264C100.264 51.0309 100.314 50.381 100.314 50.1144C100.314 49.8311 100.364 49.4645 99.7971 48.898C99.2306 48.3314 96.1644 48.3481 95.6479 48.3481C95.1313 48.3481 92.3485 48.2981 91.5653 48.948C90.8987 49.4812 90.3488 50.1811 90.3488 51.5475C90.3488 52.9306 91.2653 53.4638 93.0817 53.4638H96.3311C96.781 53.4638 97.3476 53.5971 97.3476 54.0137C97.3476 54.4303 97.031 54.9969 95.8978 54.9969H93.7482C93.2316 54.9969 92.2985 54.9136 92.2985 54.3303V54.0637H89.6156C89.6156 54.0637 89.4823 54.5303 89.4823 54.9302C89.4823 55.3302 89.549 55.8467 89.9989 56.2966C90.4488 56.7466 92.3318 56.9465 94.2648 56.9465C96.1978 56.9465 98.2807 56.8632 98.9806 56.1467C99.6972 55.4301 100.014 54.097 100.014 53.3972C100.014 52.6973 99.7805 52.364 99.5472 52.1307C99.3306 51.9141 98.664 51.5142 95.7145 51.5142C93.0817 51.5142 92.9983 51.2642 92.9983 51.0143C92.9983 50.8143 93.0317 50.3144 95.1146 50.3144C97.1976 50.2977 97.5809 50.3977 97.5809 51.0309Z" fill="#E4E4E4"/>
</g>
<defs>
<clipPath id="clip0_2377_8937">
<rect width="100" height="100" fill="white" transform="translate(0.314941 0.772949)"/>
</clipPath>
</defs>
</svg>
