<svg width="101" height="101" viewBox="0 0 101 101" fill="none" xmlns="http://www.w3.org/2000/svg">
<g clip-path="url(#clip0_2377_8990)">
<path d="M99.0007 36.7569C97.9234 36.7569 97.1477 35.9166 97.1477 34.8177C97.1477 33.6541 98.0096 32.8784 99.0007 32.8784C99.9919 32.8784 100.832 33.6541 100.832 34.8177C100.832 35.9812 99.9919 36.7569 99.0007 36.7569ZM99.0007 33.2232C98.182 33.2232 97.5571 33.8696 97.5571 34.8177C97.5571 35.7011 98.1173 36.4121 99.0007 36.4121C99.798 36.4121 100.444 35.7657 100.444 34.8177C100.444 33.8911 99.8195 33.2232 99.0007 33.2232ZM98.6344 35.9381H98.3112V33.7834H99.1085C99.6041 33.7834 99.8626 33.9558 99.8626 34.4083C99.8626 34.7961 99.6256 34.9469 99.324 34.99L99.9057 35.9381H99.5179L98.9792 35.0331H98.656V35.9381H98.6344ZM99.0223 34.7099C99.2809 34.7099 99.5179 34.6884 99.5179 34.3652C99.5179 34.1066 99.2593 34.0851 99.0654 34.0851H98.6344V34.7099H99.0223Z" fill="#E4E4E4"/>
<path d="M7.42568 51.646C7.38259 52.2708 7.38259 52.7018 7.38259 53.0896C7.38259 55.9769 9.171 57.9377 12.8555 57.9377C15.592 57.9377 16.9495 56.1062 17.9407 54.5333H24.7711C22.6164 60.114 19.0611 63.0875 11.8859 63.0875C5.24943 63.0875 0.832275 59.2952 0.832275 52.2278C0.832275 44.2984 6.06822 36.8862 14.5362 36.8862C21.4528 36.8862 26.1285 40.5492 26.1285 47.746C26.1285 49.0819 25.9777 50.4393 25.7407 51.646H7.42568ZM19.5351 47.315C19.5351 44.7725 18.9103 42.036 14.9241 42.036C11.0887 42.036 9.14945 44.5354 8.13674 47.315H19.5351Z" fill="#E4E4E4"/>
<path d="M40.1556 37.5542H45.0683L44.0125 42.1222H39.1644L36.6219 54.4686C36.5357 55.0073 36.428 55.4382 36.428 55.6322C36.428 57.4206 37.7208 57.4637 38.7335 57.4637C39.5523 57.4637 40.3711 57.4206 41.1899 57.3128L40.0263 62.5919C38.6258 62.7427 37.1821 62.8289 35.7385 62.8289C32.571 62.8289 29.145 61.8162 29.2528 57.7869C29.2528 57.162 29.4036 56.3001 29.5975 55.4382L32.3771 42.1222H27.9169L28.9727 37.5542H33.3467L34.8766 30.0127H41.707L40.1556 37.5542Z" fill="#E4E4E4"/>
<path d="M46.318 45.1172C47.1799 38.8685 52.4805 36.9077 58.1043 36.9077C62.5214 36.9077 68.533 37.8773 68.4469 43.4365C68.4469 44.4923 68.2098 46.0868 67.9082 47.6166L65.6888 57.6145C65.4518 58.4763 65.3441 60.0277 65.3441 60.9758C65.3441 61.4067 65.4303 61.9885 65.5811 62.4195H58.7507V59.9631C56.8761 62.0747 53.9457 63.0874 51.1661 63.0874C45.7362 63.0874 43.0859 60.0062 43.0859 56.5587C43.0859 51.7967 46.6843 48.8232 52.6097 48.0906C59.0523 47.315 62.0689 47.6597 62.0689 44.4923C62.0689 42.0359 59.4833 41.4541 57.738 41.4541C55.2816 41.4541 53.1269 42.6177 52.6959 45.1172H46.318ZM60.733 50.5039C59.0092 51.5166 56.9407 51.5597 54.9584 51.7106C52.3727 51.9907 49.9164 52.6155 49.9164 55.7399C49.9164 57.6145 51.7048 58.5194 53.6656 58.5194C57.8888 58.5194 59.2893 55.589 60.065 52.8956L60.733 50.5039Z" fill="#E4E4E4"/>
<path d="M74.1784 37.5542H80.7718L80.1039 40.6354L80.19 40.7216C81.7199 38.0282 84.6072 36.8862 87.6453 36.8862C93.6139 36.8862 97.0614 40.7216 97.0614 46.6902C97.0614 54.8565 92.7304 63.0875 83.5514 63.0875C80.6641 63.0875 77.6475 61.8377 76.5917 59.1013H76.4409L73.8552 71.1676H67.0248L74.1784 37.5542ZM77.8845 52.551C77.8845 55.7184 79.479 57.9377 82.7972 57.9377C87.947 57.9377 90.2525 51.9261 90.2525 47.552C90.2525 44.5785 88.615 42.0144 85.4044 42.0144C80.2978 42.036 77.8845 48.2846 77.8845 52.551Z" fill="#E4E4E4"/>
</g>
<defs>
<clipPath id="clip0_2377_8990">
<rect width="100" height="100" fill="white" transform="translate(0.832275 0.590088)"/>
</clipPath>
</defs>
</svg>
