<svg width="101" height="101" viewBox="0 0 101 101" fill="none" xmlns="http://www.w3.org/2000/svg">
<g clip-path="url(#clip0_2377_8969)">
<path d="M35.481 51.0219C35.65 51.3898 35.8091 51.7676 35.9582 52.1553C36.1073 51.7576 36.2664 51.3798 36.4454 51.002C36.6144 50.6342 36.7934 50.2663 36.9723 49.9183L41.9932 40.0257C42.0827 39.8567 42.1722 39.7274 42.2716 39.628C42.3611 39.5385 42.4704 39.4689 42.5897 39.4192C42.7091 39.3695 42.8383 39.3496 42.9874 39.3496C43.1366 39.3496 43.3056 39.3496 43.5044 39.3496H46.9644V58.8962H42.9676V47.6614C42.9676 47.1146 42.9974 46.528 43.0471 45.8917L37.8671 55.9434C37.7081 56.2615 37.4893 56.4902 37.2209 56.6592C36.9524 56.8183 36.6343 56.8978 36.2863 56.8978H35.6699C35.3219 56.8978 35.0137 56.8183 34.7353 56.6592C34.4669 56.5001 34.2481 56.2615 34.089 55.9434L28.8594 45.8718C28.8991 46.1899 28.919 46.4981 28.9389 46.8064C28.9588 47.1146 28.9687 47.4029 28.9687 47.6614V58.9062H24.9719V39.3596H28.4319C28.6307 39.3596 28.7997 39.3596 28.9489 39.3596C29.098 39.3596 29.2272 39.3794 29.3466 39.4291C29.4659 39.4789 29.5653 39.5385 29.6647 39.6379C29.7542 39.7274 29.8536 39.8666 29.9431 40.0356L34.9739 49.968C35.1429 50.3061 35.312 50.654 35.481 51.0219Z" fill="#E4E4E4"/>
<path d="M68.4 49.1229C68.4 49.968 68.3105 50.7733 68.1415 51.5488C67.9625 52.3243 67.714 53.0501 67.3859 53.7262C67.0578 54.4023 66.6601 55.0386 66.1729 55.6152C65.6957 56.2018 65.1489 56.7089 64.5424 57.1563L69.4937 62.5649H65.7653C65.2284 62.5649 64.7412 62.4953 64.3038 62.3661C63.8663 62.2368 63.4786 61.9783 63.1405 61.5806L60.7046 58.8664C60.307 58.9459 59.9093 59.0056 59.5016 59.0553C59.094 59.0951 58.6764 59.1249 58.2489 59.1249C56.7277 59.1249 55.3457 58.8664 54.093 58.3593C52.8403 57.8523 51.7665 57.1464 50.8816 56.2416C49.9868 55.3468 49.3008 54.283 48.8136 53.07C48.3264 51.857 48.0779 50.5347 48.0779 49.1229C48.0779 47.7111 48.3264 46.3987 48.8136 45.1758C49.3008 43.9628 49.9868 42.899 50.8816 42.0042C51.7764 41.1094 52.8403 40.4035 54.093 39.8964C55.3457 39.3894 56.7277 39.1309 58.2489 39.1309C59.7701 39.1309 61.152 39.3894 62.4048 39.9064C63.6575 40.4234 64.7213 41.1293 65.6062 42.0241C66.4911 42.9189 67.1771 43.9728 67.6643 45.1957C68.1515 46.4086 68.4 47.7111 68.4 49.1229ZM63.7569 49.1229C63.7569 48.1585 63.6277 47.2836 63.3791 46.5081C63.1306 45.7326 62.7726 45.0764 62.2954 44.5395C61.8281 44.0026 61.2515 43.595 60.5754 43.3066C59.8993 43.0183 59.1238 42.8791 58.2489 42.8791C57.374 42.8791 56.5885 43.0183 55.9025 43.3066C55.2165 43.595 54.6398 44.0026 54.1725 44.5395C53.7052 45.0764 53.3473 45.7326 53.0888 46.5081C52.8403 47.2836 52.711 48.1486 52.711 49.1229C52.711 50.0973 52.8403 50.9722 53.0888 51.7477C53.3374 52.5232 53.6953 53.1794 54.1725 53.7163C54.6398 54.2531 55.2165 54.6608 55.9025 54.9491C56.5885 55.2275 57.364 55.3766 58.2489 55.3766C59.1139 55.3766 59.8894 55.2374 60.5754 54.9491C61.2515 54.6707 61.8281 54.2531 62.2954 53.7163C62.7627 53.1794 63.1206 52.5232 63.3791 51.7477C63.6277 50.9722 63.7569 50.0973 63.7569 49.1229Z" fill="#E4E4E4"/>
<path d="M82.9657 39.3496V42.9487H77.6665V58.9062H73.1328V42.9487H67.8335V39.3496H82.9657Z" fill="#E4E4E4"/>
<path d="M100.315 39.3496V42.9487H94.8169V58.9062H90.2831V42.9487H84.9839V39.3496H100.315Z" fill="#E4E4E4"/>
<path d="M0.374596 50.415C0.354711 50.415 0.334826 50.415 0.314941 50.415V58.1303C0.314941 58.6871 0.772289 59.1444 1.32906 59.1444H9.27298C9.20339 54.3224 5.2364 50.415 0.374596 50.415Z" fill="#E4E4E4"/>
<path d="M0.374596 44.0522C0.354711 44.0522 0.334826 44.0522 0.314941 44.0522V47.3332C6.86694 47.363 12.196 52.6325 12.2656 59.1447H15.6659C15.6063 50.813 8.76593 44.0522 0.374596 44.0522Z" fill="#E4E4E4"/>
<path d="M20.4879 58.1403V51.1707C18.1813 45.5235 13.5382 41.0693 7.75181 38.9814H1.32906C0.772289 38.9814 0.314941 39.4388 0.314941 39.9956V40.9699C10.3965 40.9997 18.5989 49.1226 18.6585 59.1445H19.4738C20.0306 59.1445 20.4879 58.6971 20.4879 58.1403Z" fill="#E4E4E4"/>
<path d="M17.8335 41.7951C18.7681 42.7297 19.7226 43.9128 20.4881 44.9568V39.9856C20.4881 39.4289 20.0407 38.9814 19.4839 38.9814H14.3636C15.5468 39.8067 16.7796 40.7512 17.8335 41.7951Z" fill="#E4E4E4"/>
</g>
<defs>
<clipPath id="clip0_2377_8969">
<rect width="100" height="100" fill="white" transform="translate(0.314941 0.772949)"/>
</clipPath>
</defs>
</svg>
