<svg width="101" height="101" viewBox="0 0 101 101" fill="none" xmlns="http://www.w3.org/2000/svg">
<g clip-path="url(#clip0_2377_8980)">
<path d="M99.0007 36.9837C97.9234 36.9837 97.1477 36.1434 97.1477 35.0445C97.1477 33.8809 98.0096 33.1052 99.0007 33.1052C99.9919 33.1052 100.832 33.8809 100.832 35.0445C100.832 36.208 99.9919 36.9837 99.0007 36.9837ZM99.0007 33.45C98.182 33.45 97.5571 34.0964 97.5571 35.0445C97.5571 35.9279 98.1173 36.6389 99.0007 36.6389C99.798 36.6389 100.444 35.9925 100.444 35.0445C100.444 34.1179 99.8195 33.45 99.0007 33.45ZM98.6344 36.1649H98.3112V34.0102H99.1085C99.6041 34.0102 99.8626 34.1826 99.8626 34.6351C99.8626 35.0229 99.6256 35.1737 99.324 35.2168L99.9057 36.1649H99.5179L98.9792 35.2599H98.656V36.1649H98.6344ZM99.0223 34.9367C99.2809 34.9367 99.5179 34.9152 99.5179 34.592C99.5179 34.3334 99.2593 34.3119 99.0654 34.3119H98.6344V34.9367H99.0223Z" fill="#191919"/>
<path d="M7.42568 51.8728C7.38259 52.4977 7.38259 52.9286 7.38259 53.3164C7.38259 56.2038 9.171 58.1645 12.8555 58.1645C15.592 58.1645 16.9495 56.333 17.9407 54.7601H24.7711C22.6164 60.3408 19.0611 63.3143 11.8859 63.3143C5.24943 63.3143 0.832275 59.522 0.832275 52.4546C0.832275 44.5252 6.06822 37.113 14.5362 37.113C21.4528 37.113 26.1285 40.776 26.1285 47.9728C26.1285 49.3087 25.9777 50.6661 25.7407 51.8728H7.42568ZM19.5351 47.5418C19.5351 44.9993 18.9103 42.2628 14.9241 42.2628C11.0887 42.2628 9.14945 44.7622 8.13674 47.5418H19.5351Z" fill="#191919"/>
<path d="M40.1556 37.781H45.0683L44.0125 42.349H39.1644L36.6219 54.6954C36.5357 55.2341 36.428 55.6651 36.428 55.859C36.428 57.6474 37.7208 57.6905 38.7335 57.6905C39.5523 57.6905 40.3711 57.6474 41.1899 57.5397L40.0263 62.8187C38.6258 62.9695 37.1821 63.0557 35.7385 63.0557C32.571 63.0557 29.145 62.043 29.2528 58.0137C29.2528 57.3888 29.4036 56.5269 29.5975 55.6651L32.3771 42.349H27.9169L28.9727 37.781H33.3467L34.8766 30.2395H41.707L40.1556 37.781Z" fill="#191919"/>
<path d="M46.318 45.344C47.1799 39.0953 52.4805 37.1345 58.1043 37.1345C62.5214 37.1345 68.533 38.1041 68.4469 43.6633C68.4469 44.7191 68.2098 46.3136 67.9082 47.8434L65.6888 57.8413C65.4518 58.7031 65.3441 60.2545 65.3441 61.2026C65.3441 61.6336 65.4303 62.2153 65.5811 62.6463H58.7507V60.1899C56.8761 62.3015 53.9457 63.3142 51.1661 63.3142C45.7362 63.3142 43.0859 60.233 43.0859 56.7855C43.0859 52.0236 46.6843 49.0501 52.6097 48.3175C59.0523 47.5418 62.0689 47.8865 62.0689 44.7191C62.0689 42.2627 59.4833 41.681 57.738 41.681C55.2816 41.681 53.1269 42.8445 52.6959 45.344H46.318ZM60.733 50.7307C59.0092 51.7434 56.9407 51.7865 54.9584 51.9374C52.3727 52.2175 49.9164 52.8423 49.9164 55.9667C49.9164 57.8413 51.7048 58.7462 53.6656 58.7462C57.8888 58.7462 59.2893 55.8158 60.065 53.1225L60.733 50.7307Z" fill="#191919"/>
<path d="M74.1784 37.781H80.7718L80.1039 40.8622L80.19 40.9484C81.7199 38.255 84.6072 37.113 87.6453 37.113C93.6139 37.113 97.0614 40.9484 97.0614 46.917C97.0614 55.0833 92.7304 63.3143 83.5514 63.3143C80.6641 63.3143 77.6475 62.0646 76.5917 59.3281H76.4409L73.8552 71.3944H67.0248L74.1784 37.781ZM77.8845 52.7778C77.8845 55.9452 79.479 58.1645 82.7972 58.1645C87.947 58.1645 90.2525 52.1529 90.2525 47.7788C90.2525 44.8053 88.615 42.2412 85.4044 42.2412C80.2978 42.2628 77.8845 48.5114 77.8845 52.7778Z" fill="#191919"/>
</g>
<defs>
<clipPath id="clip0_2377_8980">
<rect width="100" height="100" fill="white" transform="translate(0.832275 0.816895)"/>
</clipPath>
</defs>
</svg>
