<svg width="101" height="100" viewBox="0 0 101 100" fill="none" xmlns="http://www.w3.org/2000/svg">
<g clip-path="url(#clip0_2377_8958)">
<path d="M35.481 50.249C35.65 50.6168 35.8091 50.9946 35.9582 51.3824C36.1073 50.9847 36.2664 50.6069 36.4454 50.2291C36.6144 49.8612 36.7934 49.4933 36.9723 49.1454L41.9932 39.2527C42.0827 39.0837 42.1722 38.9545 42.2716 38.855C42.3611 38.7656 42.4704 38.696 42.5897 38.6463C42.7091 38.5965 42.8383 38.5767 42.9874 38.5767C43.1366 38.5767 43.3056 38.5767 43.5044 38.5767H46.9644V58.1233H42.9676V46.8885C42.9676 46.3416 42.9974 45.755 43.0471 45.1187L37.8671 55.1704C37.7081 55.4886 37.4893 55.7172 37.2209 55.8863C36.9524 56.0453 36.6343 56.1249 36.2863 56.1249H35.6699C35.3219 56.1249 35.0137 56.0453 34.7353 55.8863C34.4669 55.7272 34.2481 55.4886 34.089 55.1704L28.8594 45.0988C28.8991 45.417 28.919 45.7252 28.9389 46.0334C28.9588 46.3416 28.9687 46.63 28.9687 46.8885V58.1332H24.9719V38.5866H28.4319C28.6307 38.5866 28.7997 38.5866 28.9489 38.5866C29.098 38.5866 29.2272 38.6065 29.3466 38.6562C29.4659 38.7059 29.5653 38.7656 29.6647 38.865C29.7542 38.9545 29.8536 39.0937 29.9431 39.2627L34.9739 49.1951C35.1429 49.5331 35.312 49.8811 35.481 50.249Z" fill="#191919"/>
<path d="M68.4 48.35C68.4 49.1951 68.3105 50.0004 68.1415 50.7759C67.9625 51.5514 67.714 52.2772 67.3859 52.9533C67.0578 53.6293 66.6601 54.2656 66.1729 54.8423C65.6957 55.4289 65.1489 55.936 64.5424 56.3834L69.4937 61.792H65.7653C65.2284 61.792 64.7412 61.7224 64.3038 61.5931C63.8663 61.4639 63.4786 61.2054 63.1405 60.8077L60.7046 58.0934C60.307 58.173 59.9093 58.2326 59.5016 58.2823C59.094 58.3221 58.6764 58.3519 58.2489 58.3519C56.7277 58.3519 55.3457 58.0934 54.093 57.5864C52.8403 57.0793 51.7665 56.3734 50.8816 55.4687C49.9868 54.5739 49.3008 53.51 48.8136 52.2971C48.3264 51.0841 48.0779 49.7618 48.0779 48.35C48.0779 46.9381 48.3264 45.6258 48.8136 44.4028C49.3008 43.1899 49.9868 42.1261 50.8816 41.2312C51.7764 40.3364 52.8403 39.6305 54.093 39.1235C55.3457 38.6164 56.7277 38.3579 58.2489 38.3579C59.7701 38.3579 61.152 38.6164 62.4048 39.1334C63.6575 39.6504 64.7213 40.3563 65.6062 41.2511C66.4911 42.1459 67.1771 43.1998 67.6643 44.4227C68.1515 45.6357 68.4 46.9381 68.4 48.35ZM63.7569 48.35C63.7569 47.3855 63.6277 46.5106 63.3791 45.7351C63.1306 44.9596 62.7726 44.3034 62.2954 43.7665C61.8281 43.2297 61.2515 42.822 60.5754 42.5337C59.8993 42.2454 59.1238 42.1062 58.2489 42.1062C57.374 42.1062 56.5885 42.2454 55.9025 42.5337C55.2165 42.822 54.6398 43.2297 54.1725 43.7665C53.7052 44.3034 53.3473 44.9596 53.0888 45.7351C52.8403 46.5106 52.711 47.3756 52.711 48.35C52.711 49.3243 52.8403 50.1992 53.0888 50.9747C53.3374 51.7502 53.6953 52.4064 54.1725 52.9433C54.6398 53.4802 55.2165 53.8878 55.9025 54.1762C56.5885 54.4545 57.364 54.6037 58.2489 54.6037C59.1139 54.6037 59.8894 54.4645 60.5754 54.1762C61.2515 53.8978 61.8281 53.4802 62.2954 52.9433C62.7627 52.4064 63.1206 51.7502 63.3791 50.9747C63.6277 50.1992 63.7569 49.3243 63.7569 48.35Z" fill="#191919"/>
<path d="M82.9657 38.5767V42.1758H77.6665V58.1332H73.1328V42.1758H67.8335V38.5767H82.9657Z" fill="#191919"/>
<path d="M100.315 38.5767V42.1758H94.8169V58.1332H90.2831V42.1758H84.9839V38.5767H100.315Z" fill="#191919"/>
<path d="M0.374596 49.6421C0.354711 49.6421 0.334826 49.6421 0.314941 49.6421V57.3573C0.314941 57.9141 0.772289 58.3715 1.32906 58.3715H9.27298C9.20339 53.5494 5.2364 49.6421 0.374596 49.6421Z" fill="#191919"/>
<path d="M0.374596 43.2793C0.354711 43.2793 0.334826 43.2793 0.314941 43.2793V46.5603C6.86694 46.5901 12.196 51.8595 12.2656 58.3718H15.6659C15.6063 50.0401 8.76593 43.2793 0.374596 43.2793Z" fill="#191919"/>
<path d="M20.4879 57.3674V50.3978C18.1813 44.7506 13.5382 40.2964 7.75181 38.2085H1.32906C0.772289 38.2085 0.314941 38.6658 0.314941 39.2226V40.197C10.3965 40.2268 18.5989 48.3497 18.6585 58.3715H19.4738C20.0306 58.3715 20.4879 57.9241 20.4879 57.3674Z" fill="#191919"/>
<path d="M17.8335 41.0222C18.7681 41.9568 19.7226 43.1399 20.4881 44.1838V39.2127C20.4881 38.6559 20.0407 38.2085 19.4839 38.2085H14.3636C15.5468 39.0337 16.7796 39.9782 17.8335 41.0222Z" fill="#191919"/>
</g>
<defs>
<clipPath id="clip0_2377_8958">
<rect width="100" height="100" fill="white" transform="translate(0.314941)"/>
</clipPath>
</defs>
</svg>
