<svg width="101" height="101" viewBox="0 0 101 101" fill="none" xmlns="http://www.w3.org/2000/svg">
<g clip-path="url(#clip0_2377_9055)">
<path d="M88.2147 42.4769C88.5854 42.4755 88.956 42.4695 89.3267 42.4635C89.5637 42.4624 89.8007 42.4615 90.0378 42.461C90.1479 42.4586 90.258 42.4563 90.3715 42.4539C90.9184 42.4577 91.147 42.4682 91.5893 42.8172C92.0181 43.3881 92.0038 43.8691 91.9427 44.5679C91.7576 45.0614 91.6623 45.2348 91.2227 45.5279C90.9772 45.5597 90.9772 45.5597 90.6923 45.5624C90.5318 45.5648 90.5318 45.5648 90.3681 45.5672C90.2526 45.5679 90.1371 45.5685 90.0181 45.5691C89.8986 45.5709 89.7792 45.5727 89.6561 45.5745C89.2734 45.5801 88.8906 45.5841 88.5078 45.5879C88.0062 45.5929 87.5047 45.5993 87.0032 45.6066C86.8321 45.6076 86.8321 45.6076 86.6576 45.6086C85.8102 45.6211 84.9854 45.6586 84.2554 46.1204C83.9047 46.6748 83.882 47.1714 84.0229 47.8078C84.2359 48.1832 84.4803 48.339 84.8629 48.5278C85.9758 48.808 87.1228 48.803 88.2625 48.8044C88.5631 48.8048 88.8636 48.8069 89.1642 48.8093C90.0176 48.8159 90.8711 48.8196 91.7245 48.8226C92.25 48.8245 92.7754 48.8281 93.3008 48.8327C93.4985 48.8341 93.6962 48.8348 93.8939 48.8349C96.0027 48.835 98.1909 48.9902 99.8151 50.5078C100.815 51.583 100.865 52.8931 100.822 54.2876C100.819 54.4143 100.819 54.4143 100.816 54.5436C100.756 55.3938 100.362 56.1477 99.81 56.7851C99.7085 56.8717 99.607 56.9583 99.5025 57.0476C99.3911 57.149 99.2797 57.2505 99.165 57.3551C97.6475 58.5775 95.5916 58.6263 93.73 58.6211C93.5585 58.6211 93.3869 58.6211 93.2154 58.6212C92.7516 58.6212 92.2878 58.6205 91.824 58.6197C91.3386 58.6189 90.8532 58.6189 90.3677 58.6187C89.4494 58.6183 88.531 58.6174 87.6127 58.6162C86.5668 58.6148 85.521 58.6142 84.4751 58.6136C82.3244 58.6123 80.1738 58.6102 78.0231 58.6075C78.0263 58.7213 78.0294 58.8351 78.0326 58.9524C78.0429 59.3755 78.0504 59.7985 78.0561 60.2217C78.0591 60.4047 78.0632 60.5877 78.0684 60.7706C78.0757 61.034 78.0791 61.2971 78.0817 61.5606C78.0849 61.7189 78.088 61.8773 78.0912 62.0404C78.0231 62.4474 78.0231 62.4474 77.7448 62.7391C77.3347 62.9792 77.0561 62.9875 76.5832 62.9799C76.4396 62.9797 76.2961 62.9796 76.1482 62.9794C75.7182 62.9242 75.4873 62.8261 75.1432 62.5674C74.9505 62.182 75.0034 61.7619 75.002 61.3384C75.0012 61.2362 75.0004 61.1339 74.9996 61.0286C74.9972 60.6893 74.9958 60.3501 74.9946 60.0109C74.9941 59.8952 74.9936 59.7796 74.9931 59.6604C74.9906 59.0483 74.9889 58.4362 74.9878 57.8241C74.9865 57.1911 74.9823 56.5581 74.9776 55.9251C74.9744 55.4391 74.9734 54.953 74.973 54.4669C74.9724 54.2335 74.971 54.0001 74.9688 53.7667C74.9659 53.4404 74.966 53.1141 74.9668 52.7877C74.9653 52.6911 74.9637 52.5945 74.9622 52.4949C74.9662 52.0677 74.9851 51.8188 75.2442 51.4715C75.804 51.0743 76.4382 51.1023 77.0908 51.2132C77.7384 51.363 77.7384 51.363 78.0231 51.6477C78.0441 51.9488 78.0509 52.2365 78.0466 52.5374C78.0462 52.6249 78.0459 52.7125 78.0455 52.8027C78.0442 53.0827 78.0412 53.3627 78.0381 53.6427C78.0369 53.8323 78.0358 54.022 78.0348 54.2117C78.0322 54.677 78.028 55.1423 78.0231 55.6076C80.1417 55.5975 82.2603 55.5861 84.3789 55.5731C85.3627 55.5671 86.3465 55.5615 87.3303 55.557C88.1883 55.553 89.0464 55.5482 89.9044 55.5425C90.3582 55.5395 90.812 55.5368 91.2659 55.5352C91.6941 55.5337 92.1223 55.531 92.5506 55.5275C92.7805 55.5259 93.0103 55.5255 93.2402 55.5251C95.0114 55.5253 95.0114 55.5253 96.6226 54.8876C96.8792 54.4938 96.9018 54.152 96.9076 53.6877C96.911 53.5639 96.9144 53.4402 96.9179 53.3127C96.8471 52.8714 96.738 52.7545 96.3826 52.4877C95.5736 52.025 94.7695 52.0748 93.8556 52.0747C93.6889 52.0733 93.5221 52.0717 93.3553 52.0699C92.9159 52.0656 92.4765 52.0632 92.0371 52.0614C91.2583 52.058 90.4795 52.0525 89.7007 52.0447C89.6167 52.0439 89.5326 52.0431 89.446 52.0422C83.3061 51.9737 83.3061 51.9737 81.2382 50.0915C80.2298 48.9492 80.2243 47.5893 80.2816 46.1514C80.3243 45.6281 80.4831 45.2331 80.783 44.8079C80.8594 44.6968 80.8594 44.6968 80.9373 44.5834C81.7827 43.4883 82.9397 43.0398 84.2629 42.768C84.4139 42.7361 84.4139 42.7361 84.5679 42.7035C85.7773 42.482 86.9884 42.4792 88.2147 42.4769Z" fill="#E4E4E4"/>
<path d="M65.2756 42.3716C65.6043 42.3718 65.933 42.3712 66.2617 42.3706C67.0366 42.3693 67.8116 42.3692 68.5865 42.3699C69.3837 42.3707 70.1809 42.3692 70.9781 42.3666C71.6664 42.3645 72.3547 42.3638 73.0431 42.3642C73.4526 42.3644 73.8621 42.3641 74.2716 42.3624C74.7267 42.361 75.1818 42.3618 75.6369 42.3632C75.7714 42.3622 75.9059 42.3613 76.0444 42.3604C76.8251 42.3657 77.3955 42.4203 78.0007 42.9628C78.2644 43.4902 78.3487 44.0307 78.184 44.6029C77.9014 45.2309 77.9014 45.2309 77.5123 45.418C77.1696 45.5323 76.9093 45.5584 76.5492 45.5595C76.361 45.561 76.361 45.561 76.1691 45.5625C76.0327 45.5624 75.8963 45.5623 75.7557 45.5622C75.6111 45.563 75.4664 45.5638 75.3174 45.5647C75.0031 45.5663 74.6889 45.5675 74.3747 45.568C73.8762 45.5688 73.3776 45.5714 72.8791 45.5743C71.8189 45.5802 70.7586 45.584 69.6984 45.5877C68.5577 45.5917 67.417 45.5961 66.2763 45.6026C65.8627 45.605 65.4492 45.6068 65.0357 45.6075C61.9239 45.4577 59.3236 46.2675 59.1022 46.5191C58.8807 46.7707 58.8988 47.0545 58.8991 47.4329C58.8983 47.5779 58.8976 47.7228 58.8968 47.8722C58.8979 48.0289 58.899 48.1857 58.9002 48.3472C58.9002 48.5096 58.9002 48.6721 58.9 48.8345C58.9 49.175 58.9012 49.5154 58.9034 49.8558C58.9061 50.2918 58.9062 50.7276 58.9054 51.1636C58.905 51.4991 58.9058 51.8346 58.907 52.17C58.9076 52.4088 58.9075 52.6476 58.9073 52.8863C58.909 53.1043 58.909 53.1043 58.9108 53.3268C58.9116 53.5186 58.9116 53.5186 58.9125 53.7143C58.9441 54.0512 59.0009 54.2455 59.1837 54.5275C60.1791 55.2704 61.2905 55.3848 62.4855 55.4666C62.8477 55.4919 63.2093 55.5222 63.5711 55.5526C63.695 55.563 63.8189 55.5734 63.9466 55.5841C64.038 55.5918 64.1294 55.5995 64.2236 55.6074C64.2217 55.4894 64.2198 55.3713 64.2179 55.2496C64.2114 54.8116 64.2072 54.3735 64.2038 53.9354C64.202 53.7458 64.1996 53.5562 64.1964 53.3666C64.1921 53.094 64.19 52.8215 64.1884 52.5489C64.1866 52.4642 64.1847 52.3794 64.1828 52.2921C64.1827 51.9455 64.1841 51.7061 64.3811 51.414C64.7288 51.1968 65.0247 51.2477 65.4236 51.2876C65.8056 51.4333 65.8056 51.4333 66.196 51.6401C66.2674 51.6774 66.3388 51.7148 66.4124 51.7533C66.6441 51.8757 66.8739 52.0011 67.1035 52.1275C67.1818 52.1705 67.2601 52.2135 67.3407 52.2579C67.9047 52.5691 68.4645 52.8873 69.0235 53.2075C69.1548 53.2825 69.2861 53.3576 69.4214 53.4348C69.687 53.5867 69.9525 53.7387 70.2178 53.8909C70.6053 54.1125 70.9945 54.331 71.384 54.549C71.5054 54.6171 71.6267 54.6852 71.7517 54.7554C71.9918 54.89 72.232 55.0244 72.4724 55.1583C74.4721 56.2813 74.4721 56.2813 74.7008 56.8149C74.652 57.2736 74.4935 57.4299 74.1833 57.7674C73.871 57.9836 73.871 57.9836 73.5172 58.1817C73.3872 58.2555 73.2572 58.3292 73.1232 58.4052C72.9855 58.4818 72.8478 58.5584 72.7058 58.6374C72.5631 58.7179 72.4205 58.7987 72.2779 58.8795C71.9982 59.0382 71.7183 59.1965 71.4381 59.3545C70.9864 59.611 70.5399 59.8752 70.0959 60.1448C69.9581 60.2281 69.8203 60.3114 69.6825 60.3946C69.615 60.4354 69.5475 60.4762 69.478 60.5182C68.8161 60.9164 68.1496 61.3067 67.482 61.6952C67.2187 61.8501 66.9579 62.0085 66.6971 62.1674C66.5276 62.2683 66.3581 62.369 66.1885 62.4697C66.1119 62.5176 66.0353 62.5655 65.9563 62.6148C65.5561 62.8489 65.3109 62.9274 64.8433 62.9183C64.4636 62.8072 64.4636 62.8072 64.2236 62.4472C64.2031 62.1508 64.1957 61.8682 64.2002 61.5721C64.2005 61.4874 64.2008 61.4027 64.2012 61.3154C64.2025 61.0452 64.2055 60.775 64.2086 60.5048C64.2098 60.3214 64.2109 60.1381 64.2119 59.9547C64.2145 59.5056 64.2187 59.0565 64.2236 58.6074C64.1507 58.6086 64.0777 58.6099 64.0026 58.6112C58.4315 58.6941 58.4315 58.6941 56.3338 56.8824C55.195 55.5538 55.0465 54.0186 55.0603 52.3094C55.0602 52.1628 55.0602 52.0162 55.0601 51.8652C55.0604 51.5583 55.0615 51.2513 55.0635 50.9444C55.0664 50.4771 55.066 50.0098 55.0652 49.5425C55.0659 49.2423 55.0667 48.9422 55.0678 48.642C55.0677 48.5039 55.0676 48.3657 55.0674 48.2234C55.0807 46.7006 55.3141 45.3427 56.3638 44.1778C58.6058 42.0956 62.4428 42.3694 65.2756 42.3716Z" fill="#E4E4E4"/>
<path d="M2.04374 44.2081C4.36417 42.0286 8.45115 42.3652 11.4002 42.3702C11.865 42.3706 12.3299 42.3673 12.7947 42.3643C20.0629 42.3457 20.0628 42.3464 22.6297 44.8458C23.2604 45.8888 23.2403 47.0423 23.2371 48.2237C23.2376 48.4017 23.2383 48.5798 23.2391 48.7579C23.2401 49.1293 23.2403 49.5007 23.2391 49.8721C23.2377 50.3447 23.2395 50.8175 23.243 51.2901C23.2452 51.6572 23.2456 52.0245 23.2449 52.3917C23.2449 52.5657 23.2454 52.7401 23.2469 52.9141C23.2571 54.2991 23.0911 55.6351 22.1053 56.6876C20.0405 58.677 16.8585 58.5416 14.2068 58.5225C13.9277 58.5218 13.6481 58.5219 13.3689 58.5215C12.6421 58.5202 11.9151 58.5168 11.1883 58.5128C10.4433 58.509 9.6979 58.5067 8.95292 58.5049C7.49718 58.5011 6.04146 58.495 4.58573 58.4874C4.58762 58.5968 4.58965 58.7066 4.59159 58.8194C4.59774 59.2275 4.60186 59.6358 4.60526 60.044C4.60707 60.2203 4.60995 60.397 4.61308 60.5733C4.61746 60.8272 4.61931 61.0811 4.62089 61.335C4.62277 61.4877 4.62481 61.6406 4.62675 61.7979C4.5829 62.2373 4.49073 62.4591 4.22538 62.8077C3.73582 63.0961 3.22053 63.0918 2.66581 63.0928C2.58207 63.0958 2.49818 63.0986 2.41191 63.1016C1.98726 63.104 1.72806 63.0602 1.36112 62.8419C0.937451 62.3855 0.835273 61.9525 0.834757 61.3399C0.834081 61.2161 0.8335 61.0924 0.832803 60.9649C0.833289 60.8303 0.834256 60.6954 0.834757 60.5567C0.834336 60.4138 0.834213 60.2703 0.83378 60.1231C0.832906 59.7319 0.833019 59.3405 0.83378 58.9493C0.834389 58.5385 0.83318 58.1277 0.832803 57.7169C0.832367 57.0261 0.833613 56.3353 0.834757 55.6446C0.836058 54.8492 0.835104 54.0533 0.83378 53.2579C0.832685 52.5727 0.833155 51.8873 0.83378 51.2022C0.834152 50.794 0.833603 50.3858 0.832803 49.9776C0.83219 49.521 0.833427 49.0641 0.834757 48.6075C0.834272 48.4747 0.833303 48.3419 0.832803 48.2051C0.840958 46.6831 0.985451 45.3709 2.04374 44.2081ZM9.93827 45.4961C8.38605 45.4916 6.3983 45.325 5.06523 46.2481C4.73636 46.5839 4.59599 46.7776 4.52812 47.2481C4.52921 47.4048 4.52998 47.5569 4.53105 47.709C4.53082 47.9765 4.53146 48.2443 4.53495 48.5118C4.53754 48.7022 4.53895 48.8926 4.53983 49.0831C4.54108 49.5833 4.54438 50.0839 4.5496 50.584C4.55504 51.1022 4.55784 51.6206 4.56034 52.1387C4.56556 53.2548 4.57461 54.3713 4.58573 55.4874C5.99188 55.4899 7.39833 55.4919 8.80448 55.4932C9.52189 55.4938 10.2394 55.4949 10.9568 55.4962C11.659 55.4975 12.3611 55.4986 13.0633 55.4991C13.3309 55.4992 13.5993 55.4989 13.867 55.4991C14.2511 55.5 14.6352 55.5009 15.0193 55.501H15.8435C16.9382 55.4912 18.0244 55.3993 18.9705 54.7823C19.3329 54.4199 19.5604 54.1061 19.6316 53.5909C19.6323 53.4645 19.6329 53.3414 19.6336 53.2188C19.6352 53.075 19.6369 52.9355 19.6385 52.796C19.6381 52.6417 19.6378 52.4916 19.6375 52.3419C19.6391 51.9414 19.6405 51.5401 19.6394 51.1397C19.6379 50.7214 19.638 50.3031 19.6414 49.8848C19.6441 49.5577 19.6455 49.2305 19.6453 48.9034C19.6451 48.7438 19.6445 48.5885 19.6443 48.4336C19.6457 48.2794 19.6479 48.1293 19.6492 47.9795C19.6481 47.8358 19.6464 47.6962 19.6453 47.5567C19.6452 46.9533 19.5225 46.6862 19.1053 46.2481C18.0424 45.4889 18.042 45.4886 15.1678 45.4952C14.9738 45.4957 14.7797 45.4963 14.5857 45.4961H11.7762C11.3625 45.495 10.9487 45.4948 10.535 45.4952C10.3361 45.4955 10.1371 45.496 9.93827 45.4961Z" fill="#E4E4E4"/>
<path d="M27.4448 38.103C27.5994 38.1083 27.7541 38.1136 27.9135 38.119C28.4482 38.2294 28.6047 38.3869 28.9447 38.808C29.0199 39.1781 29.0199 39.1781 29.0201 39.6005C29.0214 39.7175 29.0214 39.7175 29.0227 39.8368C29.0248 40.0973 29.0226 40.3576 29.0204 40.618C29.0211 40.8051 29.0219 40.9922 29.023 41.1793C29.0253 41.6868 29.0237 42.1943 29.0213 42.7018C29.0194 43.233 29.0204 43.7643 29.0211 44.2956C29.0216 45.1877 29.0197 46.0798 29.0163 46.9719C29.0125 48.0032 29.0125 49.0344 29.0146 50.0656C29.0165 51.0579 29.0157 52.0501 29.0136 53.0424C29.0128 53.4646 29.0129 53.8867 29.0138 54.3089C29.0147 54.8061 29.0133 55.3033 29.01 55.8005C29.0091 55.9829 29.0091 56.1653 29.01 56.3477C29.011 56.5969 29.0091 56.8459 29.0065 57.095C29.0061 57.2344 29.0058 57.3737 29.0054 57.5173C28.9319 57.9656 28.7785 58.1651 28.4647 58.4874C27.856 58.7918 26.7875 58.6852 26.1276 58.5437C25.8313 58.4277 25.626 58.3086 25.4467 58.0423C25.3137 57.6836 25.3135 57.3822 25.3119 56.9994C25.3107 56.8412 25.3095 56.6831 25.3083 56.5202C25.3082 56.3451 25.3081 56.1701 25.308 55.995C25.3071 55.8105 25.3061 55.626 25.305 55.4415C25.3024 54.9404 25.3013 54.4393 25.3007 53.9383C25.3003 53.6252 25.2995 53.3121 25.2987 52.999C25.2957 51.9066 25.2942 50.8141 25.2937 49.7217C25.2933 48.7036 25.2897 47.6856 25.2847 46.6675C25.2805 45.7932 25.2787 44.919 25.2786 44.0447C25.2785 43.5226 25.2775 43.0005 25.274 42.4785C25.2709 41.9874 25.2706 41.4963 25.2726 41.0052C25.2728 40.8252 25.272 40.6451 25.2701 40.4651C25.2548 38.9354 25.2548 38.9354 25.6317 38.4619C26.2018 37.9996 26.7314 38.0702 27.4448 38.103Z" fill="#E4E4E4"/>
<path d="M45.4856 42.362C47.9881 42.3477 50.5755 42.7256 52.4641 44.5153C53.2803 45.3882 53.3231 46.3014 53.3323 47.4362C53.3332 47.5506 53.3342 47.665 53.3352 47.7829C53.3369 48.0248 53.3382 48.2675 53.3391 48.5094C53.3405 48.7564 53.3434 49.0037 53.3469 49.2506C53.352 49.6081 53.3535 49.9654 53.3547 50.3229C53.3568 50.4326 53.3594 50.5428 53.3616 50.6559C53.3592 51.3427 53.2762 51.7222 52.8235 52.2477C52.4972 52.4107 52.2417 52.3818 51.8762 52.3815C51.7255 52.3816 51.5745 52.3823 51.4192 52.3825C51.2513 52.382 51.0832 52.3819 50.9153 52.3815C50.7392 52.3815 50.5631 52.3814 50.387 52.3815C49.9078 52.3815 49.4286 52.3804 48.9495 52.3795C48.449 52.3788 47.948 52.3787 47.4475 52.3786C46.4996 52.3782 45.5517 52.3768 44.6038 52.3756C43.5245 52.3743 42.4447 52.3743 41.3655 52.3737C39.1451 52.3724 36.9247 52.3705 34.7043 52.3678C34.7601 52.5795 34.8168 52.7911 34.8733 53.0026C34.9046 53.1205 34.9357 53.2385 34.968 53.36C35.1754 54.0652 35.4992 54.4121 36.1145 54.7897C37.2754 55.3671 38.4365 55.4885 39.7141 55.5143C39.7966 55.5161 39.8791 55.5173 39.9641 55.5192C40.3847 55.5277 40.8051 55.5329 41.2258 55.5309C41.382 55.5325 41.5385 55.5332 41.6995 55.5348C41.8399 55.5344 41.9805 55.5342 42.1252 55.5338C42.6148 55.6287 42.7904 55.8294 43.1038 56.2077C43.2711 56.5424 43.2627 56.8314 43.2766 57.2047C43.2839 57.3404 43.2916 57.4761 43.2991 57.6159C43.2146 58.0593 43.0733 58.2087 42.7229 58.483C42.339 58.7011 41.94 58.6857 41.512 58.6745C41.417 58.6742 41.3217 58.6738 41.2239 58.6735C41.0227 58.6723 40.8215 58.6696 40.6204 58.6657C40.3202 58.6598 40.0202 58.6585 39.72 58.6579C38.7352 58.651 37.7589 58.6058 36.7795 58.5006C36.6521 58.4871 36.6519 58.487 36.5217 58.4733C34.5954 58.2444 33.0911 57.5188 31.8137 56.0338C31.1757 55.1821 30.9713 54.3029 30.967 53.2477C30.9663 53.1172 30.9659 52.9867 30.9651 52.8522C30.965 52.7127 30.9642 52.5731 30.9641 52.4293C30.9637 52.284 30.9635 52.1386 30.9631 51.9889C30.9625 51.6819 30.9621 51.375 30.9622 51.068C30.9619 50.6009 30.9596 50.1338 30.9573 49.6666C30.9569 49.3676 30.9574 49.0682 30.9573 48.7692C30.9564 48.6307 30.9552 48.4919 30.9543 48.3493C30.9586 46.8309 31.162 45.7788 32.2034 44.6452C34.3188 42.5882 37.5668 42.3689 40.3694 42.3717C40.5642 42.3713 40.7596 42.3703 40.9543 42.3698C41.3598 42.3689 41.7657 42.3691 42.1711 42.3698C42.6852 42.3705 43.1991 42.3686 43.7131 42.3659C44.1147 42.3641 44.5167 42.3635 44.9182 42.3639C45.1073 42.3638 45.2965 42.3632 45.4856 42.362ZM49.7043 46.7272C47.1277 44.4294 37.7677 44.5155 34.9446 46.4879C34.5847 46.9748 34.5842 46.975 34.5842 49.1276H49.8245C49.8245 48.3266 50.0626 47.4436 49.7043 46.7272Z" fill="#E4E4E4"/>
</g>
<defs>
<clipPath id="clip0_2377_9055">
<rect width="100" height="100" fill="white" transform="translate(0.83252 0.590088)"/>
</clipPath>
</defs>
</svg>
