<svg width="101" height="101" viewBox="0 0 101 101" fill="none" xmlns="http://www.w3.org/2000/svg">
<g clip-path="url(#clip0_2377_9014)">
<path d="M88.2147 42.7037C88.5854 42.7023 88.956 42.6964 89.3267 42.6903C89.5637 42.6892 89.8007 42.6883 90.0378 42.6878C90.1479 42.6854 90.258 42.6831 90.3715 42.6807C90.9184 42.6845 91.147 42.695 91.5893 43.044C92.0181 43.6149 92.0038 44.0959 91.9427 44.7947C91.7576 45.2883 91.6623 45.4617 91.2227 45.7547C90.9772 45.7865 90.9772 45.7865 90.6923 45.7892C90.5318 45.7916 90.5318 45.7916 90.3681 45.794C90.2526 45.7947 90.1371 45.7953 90.0181 45.796C89.8986 45.7977 89.7792 45.7995 89.6561 45.8013C89.2734 45.8069 88.8906 45.811 88.5078 45.8147C88.0062 45.8197 87.5047 45.8261 87.0032 45.8335C86.8321 45.8344 86.8321 45.8344 86.6576 45.8354C85.8102 45.8479 84.9854 45.8854 84.2554 46.3472C83.9047 46.9016 83.882 47.3982 84.0229 48.0346C84.2359 48.41 84.4803 48.5658 84.8629 48.7546C85.9758 49.0348 87.1228 49.0298 88.2625 49.0312C88.5631 49.0317 88.8636 49.0337 89.1642 49.0361C90.0176 49.0427 90.8711 49.0464 91.7245 49.0494C92.25 49.0513 92.7754 49.0549 93.3008 49.0595C93.4985 49.0609 93.6962 49.0616 93.8939 49.0617C96.0027 49.0618 98.1909 49.217 99.8151 50.7346C100.815 51.8098 100.865 53.1199 100.822 54.5144C100.819 54.6411 100.819 54.6411 100.816 54.7704C100.756 55.6207 100.362 56.3745 99.81 57.0119C99.7085 57.0985 99.607 57.1851 99.5025 57.2744C99.3911 57.3758 99.2797 57.4773 99.165 57.5819C97.6475 58.8043 95.5916 58.8531 93.73 58.8479C93.5585 58.8479 93.3869 58.8479 93.2154 58.848C92.7516 58.848 92.2878 58.8473 91.824 58.8465C91.3386 58.8457 90.8532 58.8457 90.3677 58.8455C89.4494 58.8452 88.531 58.8442 87.6127 58.843C86.5668 58.8416 85.521 58.841 84.4751 58.8404C82.3244 58.8391 80.1738 58.837 78.0231 58.8343C78.0263 58.9481 78.0294 59.0619 78.0326 59.1792C78.0429 59.6023 78.0504 60.0253 78.0561 60.4485C78.0591 60.6315 78.0632 60.8145 78.0684 60.9974C78.0757 61.2608 78.0791 61.5239 78.0817 61.7874C78.0849 61.9457 78.088 62.1041 78.0912 62.2672C78.0231 62.6742 78.0231 62.6742 77.7448 62.9659C77.3347 63.206 77.0561 63.2143 76.5832 63.2067C76.4396 63.2065 76.2961 63.2064 76.1482 63.2062C75.7182 63.151 75.4873 63.0529 75.1432 62.7942C74.9505 62.4088 75.0034 61.9887 75.002 61.5652C75.0012 61.463 75.0004 61.3607 74.9996 61.2554C74.9972 60.9161 74.9958 60.5769 74.9946 60.2377C74.9941 60.122 74.9936 60.0064 74.9931 59.8872C74.9906 59.2751 74.9889 58.663 74.9878 58.0509C74.9865 57.4179 74.9823 56.7849 74.9776 56.1519C74.9744 55.6659 74.9734 55.1798 74.973 54.6937C74.9724 54.4603 74.971 54.2269 74.9688 53.9935C74.9659 53.6672 74.966 53.3409 74.9668 53.0146C74.9653 52.9179 74.9637 52.8213 74.9622 52.7217C74.9662 52.2945 74.9851 52.0456 75.2442 51.6983C75.804 51.3011 76.4382 51.3292 77.0908 51.44C77.7384 51.5898 77.7384 51.5898 78.0231 51.8745C78.0441 52.1756 78.0509 52.4633 78.0466 52.7642C78.0462 52.8517 78.0459 52.9393 78.0455 53.0295C78.0442 53.3095 78.0412 53.5895 78.0381 53.8695C78.0369 54.0591 78.0358 54.2488 78.0348 54.4385C78.0322 54.9038 78.028 55.3691 78.0231 55.8344C80.1417 55.8243 82.2603 55.8129 84.3789 55.7999C85.3627 55.7939 86.3465 55.7883 87.3303 55.7838C88.1883 55.7798 89.0464 55.775 89.9044 55.7693C90.3582 55.7663 90.812 55.7636 91.2659 55.762C91.6941 55.7605 92.1223 55.7578 92.5506 55.7543C92.7805 55.7527 93.0103 55.7523 93.2402 55.7519C95.0114 55.7522 95.0114 55.7522 96.6226 55.1144C96.8792 54.7206 96.9018 54.3788 96.9076 53.9145C96.911 53.7907 96.9144 53.667 96.9179 53.5395C96.8471 53.0982 96.738 52.9813 96.3826 52.7145C95.5736 52.2518 94.7695 52.3016 93.8556 52.3015C93.6889 52.3001 93.5221 52.2985 93.3553 52.2967C92.9159 52.2924 92.4765 52.29 92.0371 52.2882C91.2583 52.2848 90.4795 52.2794 89.7007 52.2715C89.6167 52.2707 89.5326 52.2699 89.446 52.269C83.3061 52.2005 83.3061 52.2005 81.2382 50.3183C80.2298 49.176 80.2243 47.8161 80.2816 46.3782C80.3243 45.8549 80.4831 45.4599 80.783 45.0347C80.8594 44.9236 80.8594 44.9236 80.9373 44.8102C81.7827 43.7151 82.9397 43.2666 84.2629 42.9948C84.4139 42.9629 84.4139 42.9629 84.5679 42.9303C85.7773 42.7089 86.9884 42.706 88.2147 42.7037Z" fill="#191919"/>
<path d="M65.2756 42.5984C65.6043 42.5986 65.933 42.598 66.2617 42.5974C67.0366 42.5961 67.8116 42.596 68.5865 42.5968C69.3837 42.5975 70.1809 42.596 70.9781 42.5934C71.6664 42.5913 72.3547 42.5906 73.0431 42.591C73.4526 42.5912 73.8621 42.5909 74.2716 42.5892C74.7267 42.5878 75.1818 42.5886 75.6369 42.59C75.7714 42.589 75.9059 42.5881 76.0444 42.5872C76.8251 42.5925 77.3955 42.6471 78.0007 43.1896C78.2644 43.717 78.3487 44.2575 78.184 44.8297C77.9014 45.4577 77.9014 45.4577 77.5123 45.6448C77.1696 45.7591 76.9093 45.7852 76.5492 45.7863C76.361 45.7878 76.361 45.7878 76.1691 45.7894C76.0327 45.7892 75.8963 45.7891 75.7557 45.789C75.6111 45.7898 75.4664 45.7906 75.3174 45.7915C75.0031 45.7931 74.6889 45.7943 74.3747 45.7948C73.8762 45.7956 73.3776 45.7982 72.8791 45.8011C71.8189 45.807 70.7586 45.8109 69.6984 45.8145C68.5577 45.8185 67.417 45.8229 66.2763 45.8294C65.8627 45.8318 65.4492 45.8336 65.0357 45.8343C61.9239 45.6845 59.3236 46.4943 59.1022 46.7459C58.8807 46.9975 58.8988 47.2813 58.8991 47.6597C58.8983 47.8047 58.8976 47.9496 58.8968 48.099C58.8979 48.2557 58.899 48.4125 58.9002 48.574C58.9002 48.7364 58.9002 48.8989 58.9 49.0613C58.9 49.4018 58.9012 49.7422 58.9034 50.0826C58.9061 50.5186 58.9062 50.9544 58.9054 51.3904C58.905 51.7259 58.9058 52.0614 58.907 52.3969C58.9076 52.6356 58.9075 52.8744 58.9073 53.1131C58.909 53.3312 58.909 53.3312 58.9108 53.5536C58.9116 53.7454 58.9116 53.7454 58.9125 53.9411C58.9441 54.278 59.0009 54.4723 59.1837 54.7543C60.1791 55.4972 61.2905 55.6116 62.4855 55.6934C62.8477 55.7187 63.2093 55.749 63.5711 55.7794C63.695 55.7898 63.8189 55.8002 63.9466 55.8109C64.038 55.8186 64.1294 55.8263 64.2236 55.8342C64.2217 55.7162 64.2198 55.5981 64.2179 55.4765C64.2114 55.0384 64.2072 54.6003 64.2038 54.1622C64.202 53.9726 64.1996 53.783 64.1964 53.5934C64.1921 53.3208 64.19 53.0483 64.1884 52.7757C64.1866 52.691 64.1847 52.6062 64.1828 52.5189C64.1827 52.1723 64.1841 51.9329 64.3811 51.6408C64.7288 51.4236 65.0247 51.4745 65.4236 51.5144C65.8056 51.6601 65.8056 51.6601 66.196 51.8669C66.2674 51.9042 66.3388 51.9416 66.4124 51.9801C66.6441 52.1025 66.8739 52.2279 67.1035 52.3543C67.1818 52.3974 67.2601 52.4404 67.3407 52.4847C67.9047 52.7959 68.4645 53.1141 69.0235 53.4343C69.1548 53.5093 69.2861 53.5844 69.4214 53.6617C69.687 53.8135 69.9525 53.9655 70.2178 54.1177C70.6053 54.3393 70.9945 54.5578 71.384 54.7758C71.5054 54.8439 71.6267 54.912 71.7517 54.9822C71.9918 55.1168 72.232 55.2512 72.4724 55.3851C74.4721 56.5081 74.4721 56.5081 74.7008 57.0417C74.652 57.5004 74.4935 57.6567 74.1833 57.9942C73.871 58.2104 73.871 58.2104 73.5172 58.4085C73.3872 58.4823 73.2572 58.5561 73.1232 58.632C72.9855 58.7086 72.8478 58.7852 72.7058 58.8642C72.5631 58.9447 72.4205 59.0255 72.2779 59.1063C71.9982 59.265 71.7183 59.4233 71.4381 59.5813C70.9864 59.8378 70.5399 60.102 70.0959 60.3716C69.9581 60.4549 69.8203 60.5382 69.6825 60.6214C69.615 60.6622 69.5475 60.703 69.478 60.745C68.8161 61.1432 68.1496 61.5336 67.482 61.922C67.2187 62.0769 66.9579 62.2353 66.6971 62.3942C66.5276 62.4951 66.3581 62.5958 66.1885 62.6965C66.1119 62.7444 66.0353 62.7923 65.9563 62.8416C65.5561 63.0757 65.3109 63.1542 64.8433 63.1451C64.4636 63.034 64.4636 63.034 64.2236 62.674C64.2031 62.3776 64.1957 62.0951 64.2002 61.7989C64.2005 61.7142 64.2008 61.6295 64.2012 61.5422C64.2025 61.272 64.2055 61.0018 64.2086 60.7316C64.2098 60.5482 64.2109 60.3649 64.2119 60.1815C64.2145 59.7324 64.2187 59.2833 64.2236 58.8342C64.1507 58.8354 64.0777 58.8367 64.0026 58.838C58.4315 58.9209 58.4315 58.9209 56.3338 57.1092C55.195 55.7806 55.0465 54.2454 55.0603 52.5362C55.0602 52.3896 55.0602 52.243 55.0601 52.092C55.0604 51.7851 55.0615 51.4781 55.0635 51.1712C55.0664 50.7039 55.066 50.2366 55.0652 49.7693C55.0659 49.4691 55.0667 49.169 55.0678 48.8688C55.0677 48.7307 55.0676 48.5925 55.0674 48.4502C55.0807 46.9274 55.3141 45.5695 56.3638 44.4046C58.6058 42.3224 62.4428 42.5962 65.2756 42.5984Z" fill="#191919"/>
<path d="M2.04374 44.4349C4.36417 42.2554 8.45115 42.592 11.4002 42.597C11.865 42.5974 12.3299 42.5942 12.7947 42.5911C20.0629 42.5725 20.0628 42.5732 22.6297 45.0726C23.2604 46.1156 23.2403 47.2691 23.2371 48.4505C23.2376 48.6285 23.2383 48.8066 23.2391 48.9847C23.2401 49.3561 23.2403 49.7275 23.2391 50.0989C23.2377 50.5715 23.2395 51.0443 23.243 51.5169C23.2452 51.884 23.2456 52.2513 23.2449 52.6185C23.2449 52.7925 23.2454 52.9669 23.2469 53.1409C23.2571 54.5259 23.0911 55.8619 22.1053 56.9144C20.0405 58.9038 16.8585 58.7684 14.2068 58.7493C13.9277 58.7486 13.6481 58.7487 13.3689 58.7483C12.6421 58.747 11.9151 58.7436 11.1883 58.7396C10.4433 58.7358 9.6979 58.7336 8.95292 58.7317C7.49718 58.7279 6.04146 58.7218 4.58573 58.7142C4.58762 58.8237 4.58965 58.9334 4.59159 59.0462C4.59774 59.4543 4.60186 59.8626 4.60526 60.2708C4.60707 60.4471 4.60995 60.6238 4.61308 60.8001C4.61746 61.054 4.61931 61.3079 4.62089 61.5618C4.62277 61.7145 4.62481 61.8674 4.62675 62.0247C4.5829 62.4641 4.49073 62.6859 4.22538 63.0345C3.73582 63.3229 3.22053 63.3186 2.66581 63.3196C2.58207 63.3226 2.49818 63.3254 2.41191 63.3284C1.98726 63.3308 1.72806 63.287 1.36112 63.0687C0.937451 62.6123 0.835273 62.1793 0.834757 61.5667C0.834081 61.443 0.8335 61.3192 0.832803 61.1917C0.833289 61.0571 0.834256 60.9222 0.834757 60.7835C0.834336 60.6406 0.834213 60.4971 0.83378 60.3499C0.832906 59.9587 0.833019 59.5673 0.83378 59.1761C0.834389 58.7653 0.83318 58.3545 0.832803 57.9437C0.832367 57.2529 0.833613 56.5621 0.834757 55.8714C0.836058 55.076 0.835104 54.2801 0.83378 53.4847C0.832685 52.7995 0.833155 52.1141 0.83378 51.429C0.834152 51.0208 0.833603 50.6126 0.832803 50.2044C0.83219 49.7478 0.833427 49.2909 0.834757 48.8343C0.834272 48.7015 0.833303 48.5687 0.832803 48.4319C0.840958 46.9099 0.985451 45.5978 2.04374 44.4349ZM9.93827 45.723C8.38605 45.7184 6.3983 45.5518 5.06523 46.4749C4.73636 46.8107 4.59599 47.0044 4.52812 47.4749C4.52921 47.6316 4.52998 47.7837 4.53105 47.9358C4.53082 48.2033 4.53146 48.4711 4.53495 48.7386C4.53754 48.929 4.53895 49.1194 4.53983 49.3099C4.54108 49.8101 4.54438 50.3107 4.5496 50.8108C4.55504 51.329 4.55784 51.8474 4.56034 52.3655C4.56556 53.4816 4.57461 54.5981 4.58573 55.7142C5.99188 55.7167 7.39833 55.7187 8.80448 55.72C9.52189 55.7206 10.2394 55.7217 10.9568 55.723C11.659 55.7243 12.3611 55.7254 13.0633 55.7259C13.3309 55.726 13.5993 55.7257 13.867 55.7259C14.2511 55.7268 14.6352 55.7278 15.0193 55.7278H15.8435C16.9382 55.718 18.0244 55.6261 18.9705 55.0091C19.3329 54.6467 19.5604 54.333 19.6316 53.8177C19.6323 53.6913 19.6329 53.5682 19.6336 53.4456C19.6352 53.3018 19.6369 53.1623 19.6385 53.0228C19.6381 52.8685 19.6378 52.7184 19.6375 52.5687C19.6391 52.1682 19.6405 51.7669 19.6394 51.3665C19.6379 50.9482 19.638 50.5299 19.6414 50.1116C19.6441 49.7845 19.6455 49.4574 19.6453 49.1302C19.6451 48.9706 19.6445 48.8153 19.6443 48.6605C19.6457 48.5062 19.6479 48.3561 19.6492 48.2064C19.6481 48.0626 19.6464 47.923 19.6453 47.7835C19.6452 47.1801 19.5225 46.913 19.1053 46.4749C18.0424 45.7157 18.042 45.7155 15.1678 45.722C14.9738 45.7225 14.7797 45.7231 14.5857 45.723H11.7762C11.3625 45.7218 10.9487 45.7216 10.535 45.722C10.3361 45.7223 10.1371 45.7228 9.93827 45.723Z" fill="#191919"/>
<path d="M27.4448 38.3298C27.5994 38.3351 27.7541 38.3404 27.9135 38.3458C28.4482 38.4562 28.6047 38.6138 28.9447 39.0348C29.0199 39.4049 29.0199 39.4049 29.0201 39.8273C29.0214 39.9443 29.0214 39.9443 29.0227 40.0636C29.0248 40.3241 29.0226 40.5844 29.0204 40.8449C29.0211 41.0319 29.0219 41.219 29.023 41.4061C29.0253 41.9136 29.0237 42.4211 29.0213 42.9286C29.0194 43.4599 29.0204 43.9911 29.0211 44.5224C29.0216 45.4145 29.0197 46.3066 29.0163 47.1987C29.0125 48.23 29.0125 49.2612 29.0146 50.2924C29.0165 51.2847 29.0157 52.2769 29.0136 53.2692C29.0128 53.6914 29.0129 54.1136 29.0138 54.5357C29.0147 55.0329 29.0133 55.5301 29.01 56.0273C29.0091 56.2097 29.0091 56.3921 29.01 56.5745C29.011 56.8237 29.0091 57.0727 29.0065 57.3218C29.0061 57.4612 29.0058 57.6006 29.0054 57.7441C28.9319 58.1924 28.7785 58.3919 28.4647 58.7142C27.856 59.0186 26.7875 58.9121 26.1276 58.7705C25.8313 58.6545 25.626 58.5354 25.4467 58.2691C25.3137 57.9104 25.3135 57.609 25.3119 57.2262C25.3107 57.068 25.3095 56.9099 25.3083 56.747C25.3082 56.5719 25.3081 56.3969 25.308 56.2218C25.3071 56.0373 25.3061 55.8528 25.305 55.6683C25.3024 55.1672 25.3013 54.6661 25.3007 54.1651C25.3003 53.852 25.2995 53.5389 25.2987 53.2258C25.2957 52.1334 25.2942 51.041 25.2937 49.9485C25.2933 48.9304 25.2897 47.9124 25.2847 46.8943C25.2805 46.02 25.2787 45.1458 25.2786 44.2715C25.2785 43.7494 25.2775 43.2273 25.274 42.7053C25.2709 42.2142 25.2706 41.7231 25.2726 41.232C25.2728 41.052 25.272 40.8719 25.2701 40.6919C25.2548 39.1622 25.2548 39.1622 25.6317 38.6887C26.2018 38.2264 26.7314 38.297 27.4448 38.3298Z" fill="#191919"/>
<path d="M45.4856 42.5892C47.9881 42.575 50.5755 42.9529 52.4641 44.7426C53.28 45.6153 53.3231 46.5279 53.3323 47.6625C53.3332 47.7771 53.3342 47.8921 53.3352 48.0101C53.3369 48.252 53.3382 48.4939 53.3391 48.7357C53.3405 48.9827 53.3434 49.23 53.3469 49.4769C53.352 49.8346 53.3535 50.1925 53.3547 50.5502C53.3568 50.6601 53.3594 50.77 53.3616 50.8832C53.3592 51.57 53.2762 51.9486 52.8235 52.474C52.4971 52.6371 52.2417 52.6091 51.8762 52.6088C51.7255 52.6089 51.5745 52.6096 51.4192 52.6098C51.2512 52.6093 51.0832 52.6082 50.9153 52.6078C50.7392 52.6078 50.5631 52.6077 50.387 52.6078C49.9078 52.6078 49.4286 52.6077 48.9495 52.6068C48.449 52.6061 47.948 52.606 47.4475 52.6058C46.4996 52.6055 45.5517 52.6041 44.6038 52.6029C43.5245 52.6016 42.4447 52.6006 41.3655 52.6C39.1451 52.5987 36.9247 52.5968 34.7043 52.5941C34.7602 52.806 34.8167 53.0182 34.8733 53.2299C34.9045 53.3475 34.9358 53.4651 34.968 53.5863C35.1754 54.2916 35.4992 54.6393 36.1145 55.017C37.2753 55.5943 38.4366 55.7148 39.7141 55.7406C39.7966 55.7424 39.8791 55.7446 39.9641 55.7465C40.3847 55.755 40.8051 55.7592 41.2258 55.7572C41.382 55.7588 41.5385 55.7605 41.6995 55.7621C41.8399 55.7617 41.9805 55.7615 42.1252 55.7611C42.6146 55.8559 42.7906 56.0559 43.1038 56.434C43.2712 56.7688 43.2627 57.0586 43.2766 57.432C43.2839 57.5676 43.2916 57.7035 43.2991 57.8432C43.2146 58.2864 43.0733 58.436 42.7229 58.7103C42.339 58.9283 41.9399 58.912 41.512 58.9008C41.417 58.9005 41.3217 58.9011 41.2239 58.9008C41.0227 58.8996 40.8215 58.8969 40.6204 58.893C40.3202 58.8871 40.0202 58.8849 39.72 58.8842C38.7352 58.8773 37.7589 58.8321 36.7795 58.7269C36.6521 58.7135 36.6519 58.7134 36.5217 58.6996C34.5954 58.4707 33.0911 57.7461 31.8137 56.2611C31.1756 55.4094 30.9713 54.5302 30.967 53.475C30.9663 53.3445 30.9659 53.2139 30.9651 53.0795C30.965 52.9401 30.9642 52.8002 30.9641 52.6566C30.9637 52.5114 30.9635 52.3658 30.9631 52.2162C30.9625 51.9093 30.9621 51.6022 30.9622 51.2953C30.9619 50.8283 30.9596 50.3609 30.9573 49.8939C30.9569 49.5949 30.9574 49.2955 30.9573 48.9965C30.9564 48.8579 30.9552 48.7193 30.9543 48.5766C30.9586 47.058 31.1621 46.0061 32.2034 44.8725C34.3188 42.8155 37.5668 42.5962 40.3694 42.599C40.5642 42.5985 40.7596 42.5976 40.9543 42.5971C41.3598 42.5962 41.7657 42.5964 42.1711 42.5971C42.6852 42.5978 43.1991 42.5959 43.7131 42.5932C44.1147 42.5914 44.5167 42.5908 44.9182 42.5912C45.1073 42.5911 45.2965 42.5905 45.4856 42.5892ZM49.7043 46.9545C47.1278 44.6567 37.7679 44.7419 34.9446 46.7142C34.5846 47.2013 34.5842 47.202 34.5842 49.3549H49.8245C49.8245 48.5539 50.0625 47.6709 49.7043 46.9545Z" fill="#191919"/>
</g>
<defs>
<clipPath id="clip0_2377_9014">
<rect width="100" height="100" fill="white" transform="translate(0.83252 0.816895)"/>
</clipPath>
</defs>
</svg>
