<svg width="101" height="101" viewBox="0 0 101 101" fill="none" xmlns="http://www.w3.org/2000/svg">
<g clip-path="url(#clip0_2377_9032)">
<g clip-path="url(#clip1_2377_9032)">
<path d="M25.5094 27.7959C50.366 27.7959 75.2227 27.7959 100.833 27.7959C100.833 42.84 100.833 57.8841 100.833 73.3841C75.9759 73.3841 51.1193 73.3841 25.5094 73.3841C25.5094 72.4854 25.5094 71.5867 25.5094 70.6607C49.4741 70.6607 73.4389 70.6607 98.1298 70.6607C98.1298 57.414 98.1298 44.1674 98.1298 30.5194C74.1651 30.5194 50.2004 30.5194 25.5094 30.5194C25.5094 29.6206 25.5094 28.7219 25.5094 27.7959Z" fill="#E4E4E4"/>
<path d="M66.2849 35.019C67.8748 35.019 69.4647 35.019 71.1028 35.019C71.9743 36.8287 72.8389 38.6393 73.676 40.4653C74.1957 41.5981 74.7228 42.7273 75.2523 43.8555C75.3373 44.0366 75.4223 44.2178 75.5073 44.399C75.6353 44.6718 75.7634 44.9447 75.8914 45.2175C76.6104 46.7496 77.3271 48.2827 78.0414 49.8169C78.1164 49.9781 78.1915 50.1392 78.2666 50.3003C78.4846 50.7683 78.7023 51.2366 78.9193 51.7051C79.0169 51.9156 79.1149 52.126 79.2128 52.3364C79.2713 52.4629 79.3297 52.5893 79.3899 52.7196C79.4407 52.8292 79.4915 52.9388 79.5438 53.0516C79.6884 53.3903 79.805 53.7321 79.9159 54.0832C79.9935 54.0832 80.071 54.0832 80.151 54.0832C80.1915 53.9452 80.2321 53.8072 80.274 53.6651C80.5293 52.8949 80.8848 52.1714 81.2326 51.4405C81.4461 50.9913 81.6576 50.5412 81.8691 50.091C81.9124 49.9987 81.9558 49.9065 82.0005 49.8114C82.4243 48.9085 82.8349 47.9998 83.2429 47.0896C83.9032 45.618 84.5729 44.151 85.2479 42.6862C85.9555 41.1502 86.6618 39.6138 87.3637 38.0752C87.4504 37.8851 87.5372 37.6951 87.624 37.5051C87.744 37.2423 87.8638 36.9794 87.9836 36.7166C88.0184 36.6404 88.0532 36.5643 88.0891 36.4859C88.3103 35.9998 88.5199 35.5109 88.7291 35.019C90.319 35.019 91.9089 35.019 93.547 35.019C93.547 45.2959 93.547 55.5728 93.547 66.1611C91.9958 66.1611 90.4447 66.1611 88.8466 66.1611C88.8078 59.4792 88.769 52.7973 88.7291 45.9129C88.225 47.007 87.7209 48.1011 87.2015 49.2284C86.8191 50.0286 86.4367 50.8289 86.053 51.6285C85.6791 52.4112 85.3155 53.1984 84.9541 53.987C84.3418 55.3225 83.7208 56.6538 83.0952 57.983C82.9931 58.1999 82.8911 58.4169 82.7893 58.6338C82.6464 58.9381 82.5031 59.2422 82.3598 59.5463C82.3164 59.6388 82.273 59.7312 82.2283 59.8265C81.9271 60.4638 81.9271 60.4638 81.7961 60.5958C81.5268 60.6062 81.2572 60.6085 80.9877 60.6074C80.8667 60.6071 80.8667 60.6071 80.7432 60.6069C80.4846 60.6062 80.226 60.6047 79.9673 60.6032C79.7924 60.6026 79.6174 60.6021 79.4425 60.6016C79.0127 60.6003 78.583 60.5982 78.1533 60.5958C78.1133 60.5123 78.0733 60.4287 78.0321 60.3426C77.2125 58.6303 76.3916 56.9186 75.5681 55.2081C74.9769 53.9802 74.3868 52.7517 73.7981 51.5226C72.9401 49.731 72.0801 47.9404 71.2203 46.1497C71.1815 52.7535 71.1427 59.3572 71.1028 66.1611C69.5129 66.1611 67.923 66.1611 66.2849 66.1611C66.2849 55.8842 66.2849 45.6074 66.2849 35.019Z" fill="#E4E4E4"/>
<path d="M0.83252 35.019C17.0963 35.019 17.0963 35.019 20.0301 37.8974C21.9054 39.8892 22.5372 42.4026 22.4835 45.0826C22.3917 47.5189 21.4326 49.6345 19.7514 51.3598C19.6719 51.4428 19.5924 51.5258 19.5105 51.6114C17.9201 53.1566 15.5352 53.982 13.3503 53.9782C13.264 53.9783 13.1777 53.9783 13.0888 53.9783C12.8117 53.9782 12.5346 53.9773 12.2575 53.9764C12.0855 53.9762 11.9136 53.9761 11.7416 53.976C11.1066 53.9754 10.4716 53.9737 9.83663 53.9722C7.70627 53.9685 7.70627 53.9685 5.53287 53.9648C5.53287 57.9896 5.53287 62.0144 5.53287 66.1611C3.98176 66.1611 2.43064 66.1611 0.83252 66.1611C0.83252 55.8842 0.83252 45.6074 0.83252 35.019ZM5.53287 39.4002C5.53287 42.7608 5.53287 46.1213 5.53287 49.5836C7.4342 49.5982 7.4342 49.5982 9.37394 49.6132C9.77107 49.6175 10.1682 49.6218 10.5773 49.6263C10.8964 49.6277 11.2155 49.6289 11.5345 49.6298C11.6152 49.6311 11.6959 49.6323 11.7791 49.6336C13.47 49.6582 15.037 49.3421 16.3432 48.1932C17.4354 47.0524 17.6948 45.5955 17.6689 44.0747C17.6198 42.9198 17.2525 41.8983 16.4612 41.058C16.3864 40.9765 16.3115 40.895 16.2344 40.811C15.2267 39.8104 13.9055 39.3841 12.5098 39.3868C12.4329 39.3868 12.3559 39.3868 12.2766 39.3868C12.0293 39.3869 11.7819 39.3878 11.5345 39.3887C11.3067 39.3889 11.3067 39.3889 11.0743 39.389C10.5075 39.3897 9.94074 39.3913 9.37394 39.3928C8.10639 39.3953 6.83884 39.3977 5.53287 39.4002Z" fill="#E4E4E4"/>
<path d="M45.2728 37.3649C45.4615 37.53 45.6501 37.6952 45.8383 37.8608C45.9938 37.9807 46.1501 38.0998 46.3084 38.216C46.1222 38.6788 45.807 38.9885 45.4592 39.3316C45.3697 39.4213 45.3697 39.4213 45.2784 39.5128C45.0886 39.7027 44.898 39.8919 44.7073 40.081C44.5781 40.21 44.449 40.339 44.3199 40.4681C44.0041 40.7837 43.6876 41.0986 43.3707 41.4131C43.0458 41.2541 42.7824 41.0897 42.504 40.858C40.3272 39.2058 37.6383 38.8487 34.9822 39.2004C33.7483 39.4292 32.7098 40.0399 31.9223 41.0222C31.1402 42.174 30.9755 43.3683 31.1497 44.7286C31.4022 45.8016 31.933 46.4743 32.8463 47.0524C34.4295 48.0192 36.4379 48.1279 38.2309 48.3818C41.1207 48.7946 44.0042 49.3942 45.8824 51.8777C47.334 54.0224 47.7201 56.7178 47.2856 59.2585C46.9622 60.7863 46.2717 62.04 45.2508 63.2007C45.1897 63.2734 45.1287 63.346 45.0658 63.4209C43.0781 65.6207 39.8318 66.3918 36.9926 66.5292C32.5333 66.6807 28.6213 65.5752 25.2743 62.4902C25.4627 62.016 25.7938 61.6996 26.1492 61.3487C26.2114 61.2863 26.2737 61.2239 26.3379 61.1596C26.5361 60.9612 26.7351 60.7636 26.9341 60.5661C27.069 60.4314 27.2038 60.2966 27.3385 60.1618C27.6682 59.8321 27.9987 59.5033 28.3295 59.1747C28.7077 59.3572 28.9889 59.5635 29.3063 59.8408C31.6933 61.7863 34.7647 62.3033 37.7645 61.9883C39.2769 61.7735 40.6781 61.3044 41.7007 60.1142C42.49 59.0191 42.6967 57.7684 42.493 56.4499C42.3217 55.6312 42.0623 55.0458 41.4905 54.4383C41.3999 54.3398 41.3999 54.3398 41.3074 54.2394C40.2814 53.2428 38.7992 53.132 37.4533 52.9419C36.9408 52.8693 36.429 52.7916 35.9171 52.7144C35.8178 52.6995 35.7186 52.6847 35.6163 52.6694C32.7516 52.2386 29.6289 51.6422 27.7753 49.156C26.3264 47.0894 26.0207 44.4952 26.4085 42.0315C26.8283 39.8614 27.9991 38.0243 29.7396 36.6766C34.1253 33.709 41.1503 33.98 45.2728 37.3649Z" fill="#E4E4E4"/>
<path d="M53.594 35.019C55.1451 35.019 56.6962 35.019 58.2943 35.019C58.2943 45.2959 58.2943 55.5728 58.2943 66.1611C56.7432 66.1611 55.1921 66.1611 53.594 66.1611C53.594 55.8842 53.594 45.6074 53.594 35.019Z" fill="#E4E4E4"/>
</g>
</g>
<defs>
<clipPath id="clip0_2377_9032">
<rect width="100" height="100" fill="white" transform="translate(0.83252 0.590088)"/>
</clipPath>
<clipPath id="clip1_2377_9032">
<rect width="100" height="45.5882" fill="white" transform="translate(0.83252 27.7959)"/>
</clipPath>
</defs>
</svg>
