<svg width="101" height="101" viewBox="0 0 101 101" fill="none" xmlns="http://www.w3.org/2000/svg">
<g clip-path="url(#clip0_2377_9025)">
<g clip-path="url(#clip1_2377_9025)">
<path d="M25.5094 28.0227C50.366 28.0227 75.2227 28.0227 100.833 28.0227C100.833 43.0668 100.833 58.1109 100.833 73.6109C75.9759 73.6109 51.1193 73.6109 25.5094 73.6109C25.5094 72.7122 25.5094 71.8135 25.5094 70.8875C49.4741 70.8875 73.4389 70.8875 98.1298 70.8875C98.1298 57.6408 98.1298 44.3942 98.1298 30.7462C74.1651 30.7462 50.2004 30.7462 25.5094 30.7462C25.5094 29.8474 25.5094 28.9487 25.5094 28.0227Z" fill="#191919"/>
<path d="M66.2849 35.2458C67.8748 35.2458 69.4647 35.2458 71.1028 35.2458C71.9743 37.0555 72.8389 38.8661 73.676 40.6921C74.1957 41.8249 74.7228 42.9541 75.2523 44.0823C75.3373 44.2634 75.4223 44.4446 75.5073 44.6258C75.6353 44.8986 75.7634 45.1715 75.8914 45.4443C76.6104 46.9764 77.3271 48.5095 78.0414 50.0437C78.1164 50.2049 78.1915 50.366 78.2666 50.5271C78.4846 50.9952 78.7023 51.4634 78.9193 51.9319C79.0169 52.1424 79.1149 52.3528 79.2128 52.5632C79.2713 52.6897 79.3297 52.8162 79.3899 52.9464C79.4407 53.056 79.4915 53.1656 79.5438 53.2784C79.6884 53.6171 79.805 53.9589 79.9159 54.31C79.9935 54.31 80.071 54.31 80.151 54.31C80.1915 54.172 80.2321 54.034 80.274 53.8919C80.5293 53.1217 80.8848 52.3982 81.2326 51.6673C81.4461 51.2182 81.6576 50.768 81.8691 50.3178C81.9124 50.2256 81.9558 50.1333 82.0005 50.0382C82.4243 49.1353 82.8349 48.2266 83.2429 47.3164C83.9032 45.8448 84.5729 44.3778 85.2479 42.913C85.9555 41.377 86.6618 39.8406 87.3637 38.302C87.4504 38.1119 87.5372 37.9219 87.624 37.7319C87.744 37.4691 87.8638 37.2063 87.9836 36.9434C88.0184 36.8672 88.0532 36.7911 88.0891 36.7127C88.3103 36.2266 88.5199 35.7377 88.7291 35.2458C90.319 35.2458 91.9089 35.2458 93.547 35.2458C93.547 45.5227 93.547 55.7996 93.547 66.3879C91.9958 66.3879 90.4447 66.3879 88.8466 66.3879C88.8078 59.706 88.769 53.0241 88.7291 46.1397C88.225 47.2338 87.7209 48.3279 87.2015 49.4552C86.8191 50.2555 86.4367 51.0557 86.053 51.8553C85.6791 52.638 85.3155 53.4252 84.9541 54.2138C84.3418 55.5493 83.7208 56.8806 83.0952 58.2099C82.9931 58.4267 82.8911 58.6437 82.7893 58.8606C82.6464 59.1649 82.5031 59.469 82.3598 59.7731C82.3164 59.8656 82.273 59.958 82.2283 60.0533C81.9271 60.6906 81.9271 60.6906 81.7961 60.8226C81.5268 60.833 81.2572 60.8353 80.9877 60.8342C80.8667 60.8339 80.8667 60.8339 80.7432 60.8337C80.4846 60.833 80.226 60.8315 79.9673 60.83C79.7924 60.8294 79.6174 60.8289 79.4425 60.8284C79.0127 60.8271 78.583 60.8251 78.1533 60.8226C78.1133 60.7391 78.0733 60.6555 78.0321 60.5694C77.2125 58.8571 76.3916 57.1454 75.5681 55.4349C74.9769 54.207 74.3868 52.9785 73.7981 51.7494C72.9401 49.9578 72.0801 48.1672 71.2203 46.3765C71.1815 52.9803 71.1427 59.584 71.1028 66.3879C69.5129 66.3879 67.923 66.3879 66.2849 66.3879C66.2849 56.1111 66.2849 45.8342 66.2849 35.2458Z" fill="#191919"/>
<path d="M0.83252 35.2458C17.0963 35.2458 17.0963 35.2458 20.0301 38.1243C21.9054 40.116 22.5372 42.6294 22.4835 45.3094C22.3917 47.7457 21.4326 49.8613 19.7514 51.5866C19.6719 51.6696 19.5924 51.7526 19.5105 51.8382C17.9201 53.3834 15.5352 54.2088 13.3503 54.2051C13.264 54.2051 13.1777 54.2051 13.0888 54.2051C12.8117 54.205 12.5346 54.2041 12.2575 54.2032C12.0855 54.203 11.9136 54.2029 11.7416 54.2028C11.1066 54.2022 10.4716 54.2005 9.83663 54.199C7.70627 54.1953 7.70627 54.1953 5.53287 54.1916C5.53287 58.2164 5.53287 62.2412 5.53287 66.3879C3.98176 66.3879 2.43064 66.3879 0.83252 66.3879C0.83252 56.1111 0.83252 45.8342 0.83252 35.2458ZM5.53287 39.6271C5.53287 42.9876 5.53287 46.3481 5.53287 49.8104C7.4342 49.8251 7.4342 49.8251 9.37394 49.84C9.77107 49.8443 10.1682 49.8486 10.5773 49.8531C10.8964 49.8545 11.2155 49.8557 11.5345 49.8567C11.6152 49.8579 11.6959 49.8591 11.7791 49.8604C13.47 49.885 15.037 49.5689 16.3432 48.42C17.4354 47.2793 17.6948 45.8224 17.6689 44.3015C17.6198 43.1467 17.2525 42.1251 16.4612 41.2848C16.3864 41.2033 16.3115 41.1218 16.2344 41.0378C15.2267 40.0372 13.9055 39.6109 12.5098 39.6136C12.4329 39.6136 12.3559 39.6136 12.2766 39.6136C12.0293 39.6137 11.7819 39.6146 11.5345 39.6155C11.3067 39.6157 11.3067 39.6157 11.0743 39.6159C10.5075 39.6165 9.94074 39.6181 9.37394 39.6197C8.10639 39.6221 6.83884 39.6245 5.53287 39.6271Z" fill="#191919"/>
<path d="M45.2728 37.5917C45.4615 37.7568 45.6501 37.922 45.8383 38.0876C45.9938 38.2075 46.1501 38.3266 46.3084 38.4428C46.1222 38.9056 45.807 39.2153 45.4592 39.5585C45.3697 39.6481 45.3697 39.6481 45.2784 39.7396C45.0886 39.9296 44.898 40.1187 44.7073 40.3078C44.5781 40.4368 44.449 40.5658 44.3199 40.6949C44.0041 41.0105 43.6876 41.3254 43.3707 41.6399C43.0458 41.4809 42.7824 41.3165 42.504 41.0848C40.3272 39.4326 37.6383 39.0755 34.9822 39.4272C33.7483 39.656 32.7098 40.2667 31.9223 41.249C31.1402 42.4008 30.9755 43.5951 31.1497 44.9554C31.4022 46.0285 31.933 46.7011 32.8463 47.2792C34.4295 48.246 36.4379 48.3547 38.2309 48.6086C41.1207 49.0214 44.0042 49.621 45.8824 52.1045C47.334 54.2492 47.7201 56.9446 47.2856 59.4853C46.9622 61.0131 46.2717 62.2668 45.2508 63.4275C45.1897 63.5002 45.1287 63.5728 45.0658 63.6477C43.0781 65.8475 39.8318 66.6186 36.9926 66.756C32.5333 66.9075 28.6213 65.802 25.2743 62.7171C25.4627 62.2428 25.7938 61.9264 26.1492 61.5755C26.2114 61.5131 26.2737 61.4507 26.3379 61.3864C26.5361 61.188 26.7351 60.9904 26.9341 60.7929C27.069 60.6582 27.2038 60.5234 27.3385 60.3886C27.6682 60.059 27.9987 59.7301 28.3295 59.4015C28.7077 59.584 28.9889 59.7903 29.3063 60.0676C31.6933 62.0131 34.7647 62.5301 37.7645 62.2151C39.2769 62.0003 40.6781 61.5312 41.7007 60.341C42.49 59.2459 42.6967 57.9952 42.493 56.6767C42.3217 55.858 42.0623 55.2726 41.4905 54.6651C41.3999 54.5667 41.3999 54.5667 41.3074 54.4662C40.2814 53.4696 38.7992 53.3589 37.4533 53.1687C36.9408 53.0961 36.429 53.0184 35.9171 52.9412C35.8178 52.9263 35.7186 52.9115 35.6163 52.8962C32.7516 52.4654 29.6289 51.869 27.7753 49.3828C26.3264 47.3162 26.0207 44.722 26.4085 42.2583C26.8283 40.0882 27.9991 38.2511 29.7396 36.9035C34.1253 33.9358 41.1503 34.2069 45.2728 37.5917Z" fill="#191919"/>
<path d="M53.594 35.2458C55.1451 35.2458 56.6962 35.2458 58.2943 35.2458C58.2943 45.5227 58.2943 55.7996 58.2943 66.3879C56.7432 66.3879 55.1921 66.3879 53.594 66.3879C53.594 56.1111 53.594 45.8342 53.594 35.2458Z" fill="#191919"/>
</g>
</g>
<defs>
<clipPath id="clip0_2377_9025">
<rect width="100" height="100" fill="white" transform="translate(0.83252 0.816895)"/>
</clipPath>
<clipPath id="clip1_2377_9025">
<rect width="100" height="45.5882" fill="white" transform="translate(0.83252 28.0227)"/>
</clipPath>
</defs>
</svg>
