<svg width="101" height="101" viewBox="0 0 101 101" fill="none" xmlns="http://www.w3.org/2000/svg">
<g clip-path="url(#clip0_2336_13330)">
<path d="M28.1994 42.7061C28.1994 43.9459 28.3328 44.951 28.5655 45.6881C28.8609 46.5173 29.2166 47.3235 29.6295 48.1002C29.7959 48.3681 29.8622 48.6361 29.8622 48.8709C29.8622 49.2056 29.6629 49.5408 29.2305 49.8759L27.1354 51.283C26.836 51.4841 26.5366 51.5845 26.2702 51.5845C25.9379 51.5845 25.6052 51.417 25.2725 51.1154C24.824 50.6306 24.4231 50.1033 24.0754 49.5408C23.7427 48.9717 23.41 48.3345 23.0443 47.5642C20.4498 50.6463 17.1904 52.1874 13.2661 52.1877C10.4725 52.1877 8.24399 51.3834 6.61415 49.7756C4.98472 48.167 4.15332 46.0228 4.15332 43.3428C4.15332 40.4951 5.15107 38.1834 7.17993 36.4413C9.20839 34.6991 11.9027 33.828 15.3283 33.828C16.4591 33.828 17.6232 33.9284 18.8536 34.096C20.0844 34.2635 21.3482 34.5315 22.6786 34.8331V32.3874C22.6786 29.8409 22.1462 28.0655 21.1151 27.0269C20.051 25.9882 18.2549 25.4855 15.694 25.4855C14.5299 25.4855 13.3328 25.6198 12.102 25.9214C10.8712 26.223 9.67411 26.5913 8.51 27.0605C7.97797 27.2948 7.57895 27.4288 7.34589 27.496C7.11283 27.5632 6.94687 27.5964 6.81386 27.5964C6.34814 27.5964 6.11548 27.2612 6.11548 26.5577V24.9159C6.11548 24.38 6.18217 23.9781 6.34814 23.7437C6.5145 23.5089 6.81386 23.2745 7.27958 23.0402C8.44356 22.4368 9.84034 21.9342 11.4699 21.5324C13.1001 21.0968 14.8296 20.896 16.6588 20.896C20.6168 20.896 23.5104 21.8003 25.3729 23.6097C27.2021 25.4187 28.1335 28.1659 28.1335 31.8514V42.7061H28.1994ZM14.6962 47.7986C15.794 47.7986 16.9248 47.5978 18.1218 47.1955C19.3193 46.7935 20.3838 46.0564 21.2815 45.0514C21.8139 44.415 22.2129 43.7115 22.4122 42.9072C22.6119 42.1033 22.7449 41.1315 22.7449 39.9924V38.5854C21.7363 38.3383 20.7147 38.1481 19.685 38.0159C18.6481 37.8833 17.6039 37.8161 16.5587 37.8147C14.3302 37.8147 12.7007 38.2502 11.6033 39.1549C10.5059 40.0596 9.97348 41.3326 9.97348 43.0076C9.97348 44.5822 10.3725 45.7549 11.2039 46.5592C12.0023 47.3967 13.1664 47.7986 14.6962 47.7986ZM41.4033 51.417C40.8045 51.417 40.4055 51.3166 40.1395 51.0818C39.8735 50.881 39.6404 50.4119 39.4411 49.7756L31.6254 23.8777C31.4253 23.2074 31.3257 22.7718 31.3257 22.5374C31.3257 22.0015 31.5917 21.6996 32.1241 21.6996H35.3834C36.0151 21.6996 36.4478 21.8003 36.6805 22.0347C36.9465 22.2359 37.1462 22.705 37.3455 23.3413L42.933 45.5205L48.1215 23.3413C48.2879 22.6714 48.4876 22.2359 48.7532 22.0347C49.0196 21.8339 49.4853 21.6999 50.0841 21.6999H52.7446C53.3763 21.6999 53.809 21.8003 54.0747 22.0347C54.3411 22.2359 54.5737 22.705 54.7067 23.3413L59.9619 45.7885L65.7154 23.3413C65.9147 22.6714 66.1477 22.2359 66.3804 22.0347C66.6464 21.8339 67.0788 21.6999 67.6775 21.6999H70.7704C71.3029 21.6999 71.6022 21.9679 71.6022 22.5374C71.6022 22.705 71.5689 22.8726 71.5355 23.0734C71.5022 23.2742 71.4359 23.5425 71.3029 23.9113L63.2871 49.8088C63.0878 50.4791 62.855 50.9146 62.5887 51.1154C62.3227 51.3166 61.8903 51.4505 61.3253 51.4505H58.4651C57.833 51.4505 57.4006 51.3502 57.1342 51.1154C56.8682 50.881 56.6356 50.4455 56.5025 49.7756L51.347 28.1659L46.2253 49.7416C46.0593 50.4119 45.8596 50.8474 45.5936 51.0818C45.3276 51.3166 44.8618 51.417 44.2635 51.417H41.4033ZM84.141 52.3216C82.4115 52.3216 80.682 52.1205 79.0193 51.7185C77.3561 51.3166 76.0593 50.8806 75.1946 50.3787C74.6622 50.0767 74.2961 49.742 74.1635 49.4404C74.0342 49.1446 73.9662 48.8253 73.9638 48.5021V46.7935C73.9638 46.09 74.2298 45.7549 74.7289 45.7549C74.9326 45.7556 75.1348 45.7897 75.3276 45.8557C75.5269 45.9229 75.8263 46.0564 76.159 46.1904C77.3336 46.7112 78.5599 47.1043 79.8173 47.3631C81.1201 47.6292 82.446 47.7638 83.7753 47.765C85.8705 47.765 87.5003 47.3967 88.6311 46.6596C89.7619 45.9225 90.3606 44.8506 90.3606 43.4768C90.3606 42.5389 90.0612 41.7682 89.4625 41.1315C88.8638 40.4947 87.733 39.9256 86.1036 39.3893L81.2808 37.8819C78.8529 37.1112 77.0571 35.9721 75.9593 34.4643C74.8619 32.9901 74.2965 31.3487 74.2965 29.6065C74.2965 28.1995 74.5959 26.9598 75.1946 25.8874C75.7929 24.8156 76.5914 23.8777 77.5891 23.1406C78.5869 22.3699 79.7176 21.8003 81.0481 21.3984C82.3782 20.9964 83.775 20.8289 85.2384 20.8289C85.9702 20.8289 86.7353 20.8625 87.467 20.9628C88.2321 21.0632 88.9305 21.1972 89.6289 21.3312C90.2939 21.4988 90.926 21.6664 91.5247 21.8675C92.1232 22.0683 92.5888 22.2692 92.9215 22.4703C93.3872 22.7386 93.7195 23.0066 93.9192 23.3081C94.1188 23.5761 94.2186 23.9446 94.2186 24.4136V25.9882C94.2186 26.6917 93.9526 27.0605 93.4535 27.0605C93.1875 27.0605 92.7551 26.9261 92.1901 26.6581C90.2938 25.787 88.1651 25.3515 85.8042 25.3515C83.9084 25.3515 82.4115 25.653 81.3804 26.2898C80.3497 26.9261 79.8173 27.898 79.8173 29.2714C79.8173 30.2097 80.15 31.0136 80.8151 31.6503C81.4801 32.287 82.7109 32.9233 84.4737 33.4928L89.1965 35.0006C91.591 35.7713 93.3205 36.8432 94.3516 38.2166C95.3827 39.5901 95.8818 41.1651 95.8818 42.9072C95.8818 44.3479 95.582 45.6545 95.0166 46.7935C94.4183 47.9326 93.6199 48.9377 92.5888 49.742C91.5577 50.5795 90.3272 51.1826 88.8971 51.6181C87.4003 52.0873 85.8372 52.3216 84.141 52.3216Z" fill="white"/>
<path d="M90.4274 68.6035C79.4854 76.7449 63.5873 81.0667 49.9182 81.0667C30.7608 81.0667 13.4996 73.9304 0.462155 62.0703C-0.568947 61.1325 0.362105 59.8594 1.59252 60.5961C15.6945 68.8383 33.089 73.83 51.0823 73.83C63.2217 73.83 76.5585 71.284 88.8313 66.0574C90.6604 65.2195 92.2236 67.2637 90.4274 68.6035ZM94.9842 63.377C93.5874 61.568 85.738 62.5059 82.1793 62.9414C81.1149 63.0758 80.9485 62.1375 81.9133 61.434C88.1659 57.0114 98.4431 58.2848 99.6402 59.7586C100.838 61.2664 99.3075 71.6187 93.454 76.5773C92.5563 77.348 91.6915 76.946 92.0906 75.941C93.4206 72.6238 96.3809 65.1528 94.9842 63.377Z" fill="white"/>
</g>
<defs>
<clipPath id="clip0_2336_13330">
<rect width="100" height="100" fill="white" transform="translate(0.019043 0.947754)"/>
</clipPath>
</defs>
</svg>
