<svg width="101" height="101" viewBox="0 0 101 101" fill="none" xmlns="http://www.w3.org/2000/svg">
<path d="M78.9342 48.5251C78.9342 67.4941 56.3102 82.3395 51.374 85.6385C50.9627 86.0508 50.14 86.0508 49.3173 85.6385C44.3811 82.7519 21.3457 67.4941 21.3457 48.5251V25.8447C21.3457 25.0199 22.1684 24.1952 22.9911 24.1952C40.679 23.7828 36.9769 15.9478 50.14 15.9478C63.3031 15.9478 59.1896 23.7828 76.8775 24.1952C77.7002 24.1952 78.5229 25.0199 78.5229 25.8447L78.9342 48.5251Z" fill="#E4E4E4"/>
<path d="M76.4662 48.5251C76.4662 65.8447 55.4875 79.8653 50.9627 82.3395C50.5513 82.7519 49.7286 82.7519 49.3173 82.3395C44.7925 79.4529 23.8138 65.4323 23.8138 48.5251V27.9065C23.8138 27.0818 24.2251 26.257 25.0478 25.8447C41.0903 25.4323 37.3882 18.422 49.7286 18.422C62.069 18.422 58.3669 25.8447 74.4094 25.8447C75.2321 25.8447 76.0548 26.6694 76.0548 27.4941L76.4662 48.5251Z" fill="#E4E4E4"/>
<path d="M50.14 40.69C55.8988 40.69 60.835 45.2261 61.6577 50.9993C61.6577 51.824 62.8917 52.6488 63.7144 52.6488H69.4733C70.7073 52.6488 71.53 51.824 71.53 50.5869C71.53 50.5869 71.53 50.5869 71.53 50.1746C70.2959 38.2158 59.6009 29.556 47.6719 30.7931C37.3882 32.0302 29.5726 39.8653 28.3386 50.1746C28.3386 51.4117 29.1613 52.2364 29.984 52.2364C29.984 52.2364 29.984 52.2364 30.3953 52.2364H36.1542C36.9769 52.2364 37.7996 51.4117 38.2109 50.5869C39.445 44.8137 44.3811 40.69 50.14 40.69Z" fill="#191919"/>
<path d="M50.14 60.0715C54.4564 60.0715 57.9556 56.5636 57.9556 52.2364C57.9556 47.9092 54.4564 44.4014 50.14 44.4014C45.8235 44.4014 42.3244 47.9092 42.3244 52.2364C42.3244 56.5636 45.8235 60.0715 50.14 60.0715Z" fill="#191919"/>
</svg>
