<svg width="101" height="101" viewBox="0 0 101 101" fill="none" xmlns="http://www.w3.org/2000/svg">
<path d="M50.764 15.9867V27.4738C50.7767 27.6061 50.7708 27.7395 50.7469 27.8696C50.7403 27.9137 50.7317 27.9557 50.7213 27.9981C50.7204 28.0036 50.7194 28.0091 50.7183 28.0146C50.6262 28.364 50.4055 28.6664 50.1003 28.8605L35.0073 42.4296H49.7927C49.8698 42.4131 49.9479 42.4076 50.0263 42.4076C50.4444 42.403 50.8437 42.5807 51.12 42.8949C51.1307 42.9059 51.1411 42.9115 51.1513 42.9225C51.1543 42.9263 51.157 42.9279 51.1599 42.9334C51.4352 43.2558 51.554 43.6831 51.4846 44.1013V56.6309H68.6569C68.6805 56.6265 68.7043 56.6253 68.7281 56.6198C69.4468 56.5647 70.095 57.0509 70.2434 57.7563C70.2489 57.7839 70.2539 57.8143 70.2577 57.8391C70.2632 57.8777 70.2671 57.9208 70.2693 57.9615C70.2703 57.9671 70.2712 57.9781 70.2722 57.9836C70.2743 58.0277 70.2743 58.0728 70.2722 58.1175C70.2722 58.1212 70.2722 58.1231 70.2722 58.1286C70.2535 58.5811 70.0221 58.9978 69.6484 59.2535L52.214 74.9333V85.8707C70.6527 84.713 85.0162 69.423 85.0204 50.9479C85.0045 31.9192 69.7884 16.3909 50.764 15.9867Z" fill="#E4E4E4"/>
<path d="M47.8978 16.0265C29.4321 17.1496 15.0295 32.4493 15.0229 50.9491C15.0378 70.0028 30.2917 85.544 49.3418 85.9146V74.4333C49.3214 74.2139 49.3518 73.9929 49.4301 73.7867C49.5245 73.5315 49.6895 73.3082 49.9058 73.143L65.0814 59.5054H50.2846C50.0914 59.5384 49.8937 59.5274 49.7036 59.4833C49.6837 59.479 49.6633 59.4724 49.6438 59.4669C48.8239 59.2712 48.3474 58.4155 48.6127 57.6154V45.2996H31.5971C30.7695 45.5289 29.9269 44.9859 29.7941 44.1375C29.6717 43.5111 29.9767 42.879 30.5432 42.5851L47.8978 26.9822L47.8978 16.0265Z" fill="#E4E4E4"/>
<path d="M50.0223 15.9478C49.3134 15.952 48.6048 15.9777 47.8975 16.025V26.9822L30.5458 42.5851C30.27 42.7282 30.048 42.9567 29.9129 43.2365C29.7779 43.5164 29.7371 43.8325 29.7967 44.1375C29.828 44.3376 29.9013 44.5288 30.0118 44.6986C30.1222 44.8684 30.2674 45.0129 30.4376 45.1226C30.6079 45.2324 30.7995 45.3049 30.9997 45.3354C31.2 45.3659 31.4045 45.3536 31.5997 45.2994H48.6153V57.6154C48.5526 57.8045 48.5298 58.0046 48.5485 58.203C48.5672 58.4013 48.6269 58.5937 48.7239 58.7678C48.8208 58.9419 48.9529 59.0939 49.1117 59.2142C49.2705 59.3345 49.4525 59.4206 49.6463 59.4668C49.6662 59.4728 49.6861 59.4783 49.7062 59.4833C49.8954 59.5298 50.0921 59.5373 50.2843 59.5054H65.084L49.9084 73.143C49.6925 73.3074 49.5275 73.5295 49.4327 73.7838C49.3537 73.9906 49.3235 74.2129 49.3444 74.4333V85.9146C49.5703 85.9278 49.7963 85.9389 50.0223 85.9478C50.755 85.945 51.4873 85.9192 52.2183 85.8705V74.9332L69.6526 59.2534C69.8369 59.1273 69.9892 58.9599 70.0975 58.7646C70.2058 58.5693 70.267 58.3516 70.2764 58.1284C70.2764 58.1248 70.2764 58.121 70.2764 58.1173C70.2785 58.0727 70.2785 58.0281 70.2764 57.9834C70.2755 57.9761 70.2746 57.9688 70.2736 57.9614C70.2714 57.9205 70.2676 57.8796 70.262 57.839C70.258 57.8122 70.2532 57.7856 70.2476 57.7591C70.2477 57.76 70.2477 57.7581 70.2476 57.7591C70.1759 57.4181 69.9827 57.112 69.7039 56.9029C69.4251 56.6938 69.0798 56.5932 68.7324 56.6198C68.7085 56.6229 68.6848 56.6265 68.6611 56.6307H51.4889V44.1013C51.5232 43.8947 51.5119 43.6832 51.4558 43.4815C51.3997 43.2797 51.3002 43.0927 51.1642 42.9334C51.1613 42.9298 51.1583 42.926 51.1554 42.9223C51.145 42.913 51.1346 42.9038 51.124 42.8948C50.9874 42.7396 50.819 42.6159 50.6303 42.5318C50.4415 42.4477 50.2369 42.4054 50.0302 42.4076C49.9519 42.4086 49.8738 42.416 49.7967 42.4297H35.0113L50.1043 28.8604C50.4095 28.6663 50.6302 28.3642 50.7224 28.0145C50.7234 28.009 50.7243 28.0035 50.7252 27.998C50.7358 27.9558 50.7444 27.913 50.7511 27.87C50.7751 27.7395 50.7808 27.6064 50.7682 27.4744V15.9873C50.5196 15.9718 50.2712 15.958 50.0223 15.9478Z" fill="#191919"/>
<path d="M50.7637 15.9845V27.4745C50.7764 27.6068 50.7703 27.74 50.7466 27.8701C50.74 27.9142 50.7312 27.9557 50.7213 27.9981C50.7204 28.0036 50.7194 28.0091 50.7184 28.0146C50.6263 28.364 50.4055 28.6664 50.1003 28.8605L35.0073 42.4296H37.8812L51.7523 29.9599C52.0575 29.7659 52.2783 29.4639 52.3704 29.114C52.3714 29.1085 52.3724 29.103 52.3733 29.0975C52.3837 29.0534 52.392 29.012 52.3992 28.969C52.4229 28.8383 52.4289 28.7083 52.4163 28.576V16.0607C51.8687 16.0221 51.3181 15.9967 50.7637 15.9845ZM51.678 43.5075C51.6035 43.5084 51.5293 43.5185 51.4558 43.5295C51.5005 43.7152 51.5163 43.9092 51.4845 44.1019V56.6315H53.1365V45.2013C53.2059 44.783 53.0869 44.3559 52.8118 44.0336C52.8089 44.03 52.8063 44.028 52.803 44.0225C52.7925 44.0115 52.782 44.0061 52.7716 43.9951C52.4953 43.6815 52.0961 43.5031 51.678 43.5075ZM70.3798 57.7203C70.3561 57.7234 70.3324 57.7257 70.3086 57.7312H70.2317C70.2339 57.7423 70.2411 57.7478 70.2433 57.7588C70.2488 57.7864 70.2537 57.8168 70.2576 57.8416C70.2631 57.8802 70.267 57.9233 70.2692 57.964C70.2702 57.9696 70.271 57.9806 70.272 57.9861C70.2741 58.0302 70.2741 58.0753 70.272 58.12C70.272 58.1238 70.272 58.1256 70.272 58.1311C70.2533 58.5836 70.0219 59.0003 69.6483 59.256L52.2139 74.9358V85.8732C52.7691 85.8401 53.3213 85.7911 53.8688 85.731V76.0384L71.3031 60.3586C71.6767 60.1029 71.9079 59.6858 71.9269 59.2335C71.9269 59.2298 71.9269 59.2281 71.9269 59.2226C71.9289 59.1785 71.9289 59.1331 71.9269 59.0885C71.926 59.083 71.9251 59.072 71.924 59.0665C71.922 59.0279 71.9152 58.985 71.9097 58.9442C71.9056 58.9166 71.9009 58.8891 71.8954 58.8643C71.747 58.1589 71.0985 57.6652 70.3798 57.7203Z" fill="#E4E4E4"/>
</svg>
