<svg width="101" height="101" viewBox="0 0 101 101" fill="none" xmlns="http://www.w3.org/2000/svg">
<g clip-path="url(#clip0_2336_13334)">
<path fill-rule="evenodd" clip-rule="evenodd" d="M19.2003 43.1168L19.1682 34.1304H14.1538L14.1859 43.1168L16.6931 46.5595L19.2003 43.1168ZM14.1859 58.5183V67.5368H19.2003V58.5183L16.6931 55.0755L14.1859 58.5183Z" fill="white"/>
<path fill-rule="evenodd" clip-rule="evenodd" d="M19.2003 58.5181L24.482 65.8045L28.5235 62.8643L23.2418 55.5779L19.2003 54.2735V58.5181ZM14.1859 43.1166L8.87205 35.8302L4.83057 38.7704L10.1123 46.0515L14.1859 47.3559V43.1166Z" fill="white"/>
<path fill-rule="evenodd" clip-rule="evenodd" d="M10.1121 46.057L1.55866 43.2825L0.019043 48.0243L8.57245 50.8309L12.6139 49.4944L10.1121 46.057ZM20.7343 52.1352L23.2415 55.578L31.7949 58.3525L33.3346 53.6107L24.7812 50.8362L20.7343 52.1352Z" fill="white"/>
<path fill-rule="evenodd" clip-rule="evenodd" d="M24.7758 50.8363L33.3292 48.0298L31.7896 43.288L23.2362 46.0625L20.729 49.5052L24.7758 50.8363ZM8.57245 50.8363L0.019043 53.6109L1.55866 58.3527L10.1121 55.5781L12.6193 52.1354L8.57245 50.8363Z" fill="white"/>
<path fill-rule="evenodd" clip-rule="evenodd" d="M10.1123 55.5779L4.83057 62.8643L8.87205 65.8045L14.1859 58.5181V54.2735L10.1123 55.5779ZM23.2418 46.0569L28.5235 38.7704L24.482 35.8302L19.2003 43.1113V47.3559L23.2418 46.0569Z" fill="white"/>
<path fill-rule="evenodd" clip-rule="evenodd" d="M52.0399 42.6462V54.3377C52.0399 56.909 49.9337 59.0153 47.3623 59.0153V56.6738C48.6667 56.6738 49.7038 55.6367 49.7038 54.3323V42.6462H52.0399ZM94.7428 44.9877H100.019V42.6516H87.157V44.9877H92.4013V59.0207H94.7428V44.9877ZM80.1058 42.6462V54.3377C80.1058 55.6421 79.0687 56.6792 77.7643 56.6792C76.4599 56.6792 75.4228 55.6421 75.4228 54.3377V47.3239C75.4228 44.7525 73.3165 42.6462 70.7452 42.6462C68.1738 42.6462 66.0675 44.7525 66.0675 47.3239V54.343C66.0675 55.6474 65.0304 56.6845 63.726 56.6845C62.4216 56.6845 61.3845 55.6474 61.3845 54.343V42.6462H59.043V54.3377C59.043 56.909 61.1493 59.0153 63.7207 59.0153C66.2921 59.0153 68.3983 56.909 68.3983 54.3377V47.3239C68.3983 46.0195 69.4354 44.9824 70.7398 44.9824C72.0442 44.9824 73.0813 46.0195 73.0813 47.3239V54.343C73.0813 56.9144 75.1876 59.0207 77.759 59.0207C80.3303 59.0207 82.4366 56.9144 82.4366 54.343V42.6462H80.1058Z" fill="white"/>
</g>
<defs>
<clipPath id="clip0_2336_13334">
<rect width="100" height="100" fill="white" transform="translate(0.019043 0.833618)"/>
</clipPath>
</defs>
</svg>
