<svg width="101" height="101" viewBox="0 0 101 101" fill="none" xmlns="http://www.w3.org/2000/svg">
<g clip-path="url(#clip0_2336_13346)">
<path d="M28.778 39.0094C31.5928 39.0094 31.5928 39.0094 32.1483 39.514C32.2341 39.6802 32.3197 39.8467 32.3952 40.0178C32.5509 40.3361 32.7753 40.6049 32.9909 40.8844C33.079 41.0035 33.1668 41.1228 33.2542 41.2423C33.515 41.597 33.7761 41.9514 34.0372 42.3057C34.1237 42.423 34.2101 42.5403 34.2965 42.6575C34.3393 42.7156 34.382 42.7737 34.4261 42.8335C36.8891 46.1761 36.8891 46.1761 37.0189 46.3522C37.1048 46.4688 37.1907 46.5854 37.2767 46.7021C37.5002 47.0054 37.7236 47.3087 37.947 47.6121C38.0161 47.7061 38.0161 47.7061 38.0867 47.8019C38.1741 47.9206 38.2615 48.0394 38.3489 48.1581C38.3889 48.2125 38.4289 48.2668 38.4701 48.3228C38.5219 48.3931 38.5219 48.3931 38.5747 48.4649C38.7649 48.7212 38.9568 48.9763 39.1483 49.2316C39.185 44.1716 39.185 44.1716 39.2224 39.0094C40.1024 39.0094 40.9824 39.0094 41.8891 39.0094C41.8891 43.9961 41.8891 48.9827 41.8891 54.1205C39.2224 54.1205 39.2224 54.1205 38.6021 53.5048C38.4687 53.2964 38.4687 53.2964 38.3876 53.1147C38.1889 52.706 37.9392 52.3636 37.6622 52.0048C37.5754 51.8876 37.4889 51.7703 37.4027 51.6526C37.3604 51.595 37.3181 51.5374 37.2745 51.4781C37.0305 51.1446 36.7893 50.8091 36.5479 50.4738C36.2569 50.0701 35.9626 49.6689 35.6669 49.2687C35.2904 48.7592 34.918 48.2472 34.5479 47.7331C34.2142 47.2701 33.8758 46.8106 33.5366 46.3517C33.1988 45.8941 32.8649 45.4338 32.5336 44.9715C32.2018 44.5097 31.8602 44.0573 31.5187 43.602C31.4943 47.0731 31.4698 50.5442 31.4446 54.1205C30.5646 54.1205 29.6846 54.1205 28.778 54.1205C28.778 49.1338 28.778 44.1472 28.778 39.0094Z" fill="white"/>
<path d="M17.5928 40.1946C17.6706 40.2271 17.6706 40.2271 17.75 40.2602C18.8379 40.7233 19.8074 41.3497 20.7039 42.1205C20.8099 42.2116 20.8099 42.2116 20.918 42.3045C23.2379 44.3423 24.5599 47.2715 24.7688 50.3349C24.9411 53.2506 23.9841 56.2893 22.0581 58.5033C21.8589 58.7267 21.6525 58.9422 21.4446 59.1575C21.3862 59.2207 21.3278 59.2838 21.2676 59.3488C19.3172 61.3992 16.3881 62.5683 13.5885 62.6549C10.1933 62.7232 7.26599 61.531 4.77798 59.2316C2.65303 57.1399 1.47462 54.1461 1.42752 51.1872C1.42308 50.4729 1.45634 49.7864 1.59279 49.0835C1.63299 49.1138 1.67319 49.1442 1.71461 49.1755C1.7676 49.2154 1.8206 49.2553 1.8752 49.2964C1.92762 49.336 1.98004 49.3755 2.03405 49.4162C2.15609 49.5063 2.2814 49.5919 2.40761 49.6761C2.43048 49.8145 2.43048 49.8145 2.4241 49.9839C2.42259 50.0468 2.42108 50.1096 2.41952 50.1744C2.41712 50.2421 2.41471 50.3099 2.41224 50.3798C2.36773 53.1704 3.32216 55.7896 5.25798 57.8206C5.79199 58.3628 6.35607 58.8269 7.0002 59.2316C7.0457 59.2604 7.0912 59.2892 7.13808 59.3189C9.30321 60.6663 12.0274 61.1596 14.526 60.6087C16.1931 60.1987 17.6871 59.4487 19.0002 58.3427C19.0566 58.2963 19.1131 58.2499 19.1712 58.2021C21.0673 56.5919 22.1909 54.0591 22.3969 51.6077C22.5893 48.8512 21.6827 46.229 19.881 44.147C19.7856 44.0388 19.6892 43.9315 19.5928 43.8242C19.5271 43.7505 19.5271 43.7505 19.46 43.6752C18.291 42.437 16.7071 41.6656 15.1021 41.1761C15.0544 41.1613 15.0067 41.1466 14.9575 41.1314C14.1154 40.8873 13.2756 40.8389 12.403 40.8474C12.3088 40.8474 12.2146 40.8475 12.1175 40.8475C11.6744 40.8496 11.2458 40.8652 10.806 40.9209C10.4378 40.9549 10.4378 40.9549 10.1854 40.7909C10.1121 40.6905 10.1121 40.6905 10.0372 40.5881C9.98682 40.5221 9.9364 40.4561 9.88446 40.3882C9.8371 40.3243 9.78974 40.2604 9.74094 40.1946C9.64396 40.0941 9.54575 39.9947 9.44464 39.8983C10.2047 39.6748 10.9506 39.4644 11.7409 39.3798C11.8231 39.3707 11.9052 39.3616 11.9898 39.3523C13.8885 39.1844 15.8329 39.4544 17.5928 40.1946Z" fill="white"/>
<path d="M51.5187 43.7501C51.784 43.9563 52.0233 44.1782 52.2595 44.4168C52.3111 44.466 52.3628 44.5152 52.416 44.5658C53.7089 45.8839 53.815 47.7111 53.815 49.4538C51.0528 49.4538 48.2906 49.4538 45.4446 49.4538C45.8676 50.7227 46.2256 51.4569 47.3911 52.0406C48.43 52.452 49.5981 52.356 50.6298 51.9724C51.0234 51.795 51.3793 51.5961 51.7039 51.3103C51.765 51.2599 51.8261 51.2095 51.8891 51.1575C52.1522 51.2453 52.1902 51.315 52.3437 51.5389C52.4078 51.6323 52.4078 51.6323 52.4731 51.7276C52.5172 51.7931 52.5613 51.8586 52.6067 51.9261C52.6516 51.991 52.6965 52.0559 52.7428 52.1228C53.0743 52.6105 53.0743 52.6105 53.0743 52.8613C51.6253 54.2215 49.7286 54.4043 47.8474 54.3554C46.4596 54.2865 45.2794 53.6197 44.3335 52.639C44.2844 52.5921 44.2352 52.5453 44.1845 52.497C43.1225 51.4158 42.8787 49.858 42.8914 48.4121C42.9364 46.7381 43.5805 45.3404 44.7919 44.1807C46.6302 42.6237 49.5049 42.4207 51.5187 43.7501ZM46.008 46.1008C45.6267 46.6389 45.5181 47.0893 45.4446 47.7501C47.4246 47.7501 49.4046 47.7501 51.4446 47.7501C51.4446 46.9075 51.1698 46.2837 50.5795 45.6827C49.8593 45.0341 49.0678 44.8777 48.1211 44.9096C47.2407 44.9656 46.5606 45.4382 46.008 46.1008Z" fill="white"/>
<path d="M73.5187 43.1575C74.3009 43.1575 75.0832 43.1575 75.8891 43.1575C75.8913 43.463 75.8913 43.463 75.8935 43.7746C75.8985 44.4505 75.9043 45.1264 75.9104 45.8023C75.9141 46.2117 75.9175 46.6211 75.9203 47.0305C75.9231 47.4263 75.9265 47.8221 75.9304 48.2178C75.9318 48.3682 75.9329 48.5185 75.9338 48.6688C75.8885 50.3464 75.8885 50.3464 76.6437 51.7733C77.3158 52.1765 78.1092 52.2326 78.8677 52.0693C79.5844 51.8491 80.2494 51.472 80.778 50.9353C80.8629 50.7655 80.8622 50.6686 80.8638 50.4797C80.8645 50.4153 80.8652 50.3509 80.866 50.2846C80.8664 50.2137 80.8668 50.1429 80.8673 50.07C80.868 49.9955 80.8687 49.9211 80.8695 49.8444C80.8718 49.5975 80.8737 49.3506 80.8755 49.1037C80.877 48.9329 80.8786 48.762 80.8802 48.5912C80.8842 48.1409 80.8879 47.6905 80.8915 47.2402C80.8952 46.7809 80.8993 46.3217 80.9034 45.8624C80.9114 44.9608 80.9189 44.0592 80.9261 43.1575C81.7084 43.1575 82.4906 43.1575 83.2965 43.1575C83.2965 46.7753 83.2965 50.3931 83.2965 54.1205C82.5143 54.1205 81.732 54.1205 80.9261 54.1205C80.8895 53.4605 80.8895 53.4605 80.8521 52.7872C80.7864 52.8605 80.7207 52.9338 80.653 53.0094C79.5971 54.0568 78.2567 54.3636 76.822 54.3664C75.8279 54.3552 75.0272 54.1192 74.2826 53.44C73.6192 52.7432 73.4957 51.8826 73.5019 50.9614C73.5019 50.8767 73.5019 50.7921 73.5018 50.705C73.5019 50.4268 73.5031 50.1487 73.5042 49.8705C73.5045 49.677 73.5047 49.4836 73.5049 49.2901C73.5053 48.8339 73.5066 48.3777 73.508 47.9216C73.5097 47.4019 73.5105 46.8822 73.5113 46.3625C73.5128 45.2942 73.5155 44.2259 73.5187 43.1575Z" fill="white"/>
<path d="M92.5031 43.9944C92.6743 44.1303 92.8397 44.2685 93.0002 44.4168C92.6911 44.9919 92.3689 45.5582 92.0372 46.1205C91.7839 46.0742 91.7275 46.0341 91.5233 45.8474C90.6754 45.0936 89.5013 44.8792 88.403 44.9142C87.8311 44.9556 87.3963 45.0941 87.0002 45.5279C86.8324 45.8399 86.7548 46.0852 86.8289 46.4353C87.2571 46.9446 87.9641 47.0893 88.5882 47.2316C88.7455 47.2696 88.9028 47.3076 89.0601 47.3456C89.2795 47.3976 89.499 47.4493 89.7187 47.5001C90.8085 47.7536 92.0451 48.0988 92.778 49.0094C93.3318 49.9237 93.4461 50.881 93.2485 51.9313C92.9522 52.8202 92.2801 53.4318 91.4771 53.8751C89.8372 54.6232 87.7706 54.5461 86.0922 53.9625C85.3337 53.6696 84.6327 53.268 84.0372 52.7131C84.0848 52.4569 84.1862 52.2804 84.3292 52.0638C84.3724 51.9979 84.4156 51.932 84.4601 51.8641C84.5054 51.796 84.5507 51.7278 84.5974 51.6575C84.643 51.5882 84.6886 51.5189 84.7356 51.4475C84.8481 51.2765 84.961 51.1058 85.0743 50.9353C85.3294 50.9913 85.456 51.0676 85.653 51.2409C86.3164 51.7721 87.1375 52.0913 87.9632 52.2687C88.035 52.2855 88.1068 52.3023 88.1808 52.3196C89.0382 52.4071 89.7438 52.35 90.4817 51.8983C90.5306 51.8983 90.5795 51.8983 90.6298 51.8983C90.8245 51.5345 90.9812 51.1301 90.8659 50.7224C90.8224 50.6444 90.8224 50.6444 90.778 50.565C90.7535 50.4916 90.7291 50.4183 90.7039 50.3427C90.5315 50.2587 90.5315 50.2587 90.3335 50.1946C90.2564 50.1604 90.2564 50.1604 90.1776 50.1256C89.5517 49.8552 88.8923 49.7209 88.2303 49.5705C86.9078 49.2683 85.5181 48.934 84.7039 47.7501C84.2821 47.0309 84.2785 46.0557 84.473 45.2606C84.6583 44.7772 84.9249 44.4035 85.2965 44.0464C85.3369 44.0062 85.3773 43.966 85.4189 43.9246C87.2059 42.2638 90.6317 42.6294 92.5031 43.9944Z" fill="white"/>
<path d="M71.6883 43.9944C71.8595 44.1303 72.0248 44.2685 72.1854 44.4168C71.8763 44.9919 71.5541 45.5582 71.2224 46.1205C70.969 46.0742 70.9127 46.0341 70.7085 45.8474C69.8605 45.0936 68.6864 44.8792 67.5882 44.9142C67.0162 44.9556 66.5815 45.0941 66.1854 45.5279C66.0176 45.8399 65.94 46.0852 66.0141 46.4353C66.4423 46.9446 67.1493 47.0893 67.7733 47.2316C67.9307 47.2696 68.088 47.3076 68.2453 47.3456C68.4647 47.3976 68.6842 47.4493 68.9039 47.5001C69.9936 47.7536 71.2303 48.0988 71.9632 49.0094C72.5169 49.9237 72.6313 50.881 72.4336 51.9313C72.1373 52.8202 71.4653 53.4318 70.6622 53.8751C69.0224 54.6232 66.9557 54.5461 65.2774 53.9625C64.5189 53.6696 63.8179 53.268 63.2224 52.7131C63.27 52.4569 63.3714 52.2804 63.5144 52.0638C63.5576 51.9979 63.6008 51.932 63.6453 51.8641C63.6906 51.796 63.7359 51.7278 63.7826 51.6575C63.8282 51.5882 63.8738 51.5189 63.9208 51.4475C64.0333 51.2765 64.1462 51.1058 64.2595 50.9353C64.5146 50.9913 64.6412 51.0676 64.8382 51.2409C65.5016 51.7721 66.3227 52.0913 67.1483 52.2687C67.2202 52.2855 67.292 52.3023 67.3659 52.3196C68.2234 52.4071 68.929 52.35 69.6669 51.8983C69.7158 51.8983 69.7646 51.8983 69.815 51.8983C70.0097 51.5345 70.1664 51.1301 70.0511 50.7224C70.0076 50.6444 70.0076 50.6444 69.9632 50.565C69.9387 50.4916 69.9143 50.4183 69.8891 50.3427C69.7167 50.2587 69.7167 50.2587 69.5187 50.1946C69.4416 50.1604 69.4416 50.1604 69.3628 50.1256C68.7369 49.8552 68.0775 49.7209 67.4155 49.5705C66.093 49.2683 64.7033 48.934 63.8891 47.7501C63.4673 47.0309 63.4637 46.0557 63.6582 45.2606C63.8434 44.7772 64.1101 44.4035 64.4817 44.0464C64.5221 44.0062 64.5625 43.966 64.6041 43.9246C66.3911 42.2638 69.8169 42.6294 71.6883 43.9944Z" fill="white"/>
<path d="M62.3549 43.9944C62.5261 44.1303 62.6915 44.2685 62.8521 44.4168C62.543 44.9919 62.2208 45.5582 61.8891 46.1205C61.6357 46.0742 61.5794 46.0341 61.3752 45.8474C60.5272 45.0936 59.3531 44.8792 58.2548 44.9142C57.6829 44.9556 57.2481 45.0941 56.8521 45.5279C56.6842 45.8399 56.6067 46.0852 56.6808 46.4353C57.109 46.9446 57.816 47.0893 58.44 47.2316C58.5973 47.2696 58.7546 47.3076 58.9119 47.3456C59.1314 47.3976 59.3508 47.4493 59.5705 47.5001C60.6603 47.7536 61.897 48.0988 62.6298 49.0094C63.1836 49.9237 63.298 50.881 63.1003 51.9313C62.804 52.8202 62.132 53.4318 61.3289 53.8751C59.689 54.6232 57.6224 54.5461 55.9441 53.9625C55.1855 53.6696 54.4846 53.268 53.8891 52.7131C53.9367 52.4569 54.0381 52.2804 54.181 52.0638C54.2243 51.9979 54.2675 51.932 54.312 51.8641C54.3573 51.796 54.4026 51.7278 54.4493 51.6575C54.4949 51.5882 54.5405 51.5189 54.5874 51.4475C54.7 51.2765 54.8129 51.1058 54.9261 50.9353C55.1812 50.9913 55.3079 51.0676 55.5048 51.2409C56.1683 51.7721 56.9894 52.0913 57.815 52.2687C57.8868 52.2855 57.9586 52.3023 58.0326 52.3196C58.8901 52.4071 59.5957 52.35 60.3335 51.8983C60.3824 51.8983 60.4313 51.8983 60.4817 51.8983C60.6763 51.5345 60.833 51.1301 60.7178 50.7224C60.6743 50.6444 60.6743 50.6444 60.6298 50.565C60.6054 50.4916 60.5809 50.4183 60.5558 50.3427C60.3834 50.2587 60.3834 50.2587 60.1854 50.1946C60.1082 50.1604 60.1082 50.1604 60.0295 50.1256C59.4036 49.8552 58.7442 49.7209 58.0821 49.5705C56.7596 49.2683 55.3699 48.934 54.5558 47.7501C54.134 47.0309 54.1304 46.0557 54.3249 45.2606C54.5101 44.7772 54.7768 44.4035 55.1483 44.0464C55.1887 44.0062 55.2291 43.966 55.2707 43.9246C57.0577 42.2638 60.4836 42.6294 62.3549 43.9944Z" fill="white"/>
<path d="M18.3428 44.1853C18.4637 44.2866 18.584 44.3884 18.7039 44.4909C18.7927 44.5622 18.7927 44.5622 18.8833 44.635C20.458 45.9539 21.4367 48.0409 21.6486 50.0644C21.8125 52.5672 21.1595 54.811 19.4956 56.7177C18.029 58.2994 16.0217 59.4298 13.8317 59.5381C11.5045 59.6254 9.24173 59.1028 7.48631 57.4863C7.34748 57.3534 7.21095 57.2185 7.07427 57.0835C7.01593 57.0305 6.95759 56.9775 6.89748 56.9229C5.75552 55.8606 5.01791 54.2965 4.7039 52.7872C4.68738 52.7148 4.67086 52.6424 4.65384 52.5678C4.5203 51.9047 4.54229 51.238 4.55575 50.565C4.77575 50.5894 4.99575 50.6138 5.22242 50.639C5.22721 50.6867 5.23201 50.7343 5.23694 50.7834C5.47921 53.1158 6.1868 55.1062 8.06125 56.6309C9.76467 57.881 11.7972 58.3876 13.8937 58.0722C15.7197 57.7332 17.4712 56.6567 18.5486 55.1399C19.7022 53.4442 20.1535 51.4222 19.7767 49.3997C19.4046 47.625 18.3549 45.9156 16.8469 44.8848C15.7245 44.1568 14.4632 43.6236 13.1119 43.5786C13.0231 43.5755 12.9343 43.5723 12.8428 43.5692C12.7511 43.5662 12.6595 43.5633 12.565 43.5603C12.4716 43.5571 12.3782 43.5539 12.282 43.5506C12.0523 43.5428 11.8225 43.5353 11.5928 43.5279C11.5195 43.2101 11.4461 42.8924 11.3706 42.565C13.8491 42.2002 16.3345 42.6105 18.3428 44.1853Z" fill="white"/>
<path d="M17.245 46.2339C18.533 47.4137 19.2893 48.9605 19.3917 50.714C19.4305 52.4385 18.8858 54.0077 17.6941 55.2756C17.6362 55.3344 17.5783 55.3932 17.5187 55.4538C17.4624 55.5111 17.406 55.5684 17.348 55.6275C16.0662 56.8546 14.4264 57.2863 12.6915 57.2542C11.3183 57.2002 10.0213 56.6686 9.0002 55.7501C8.95522 55.7156 8.91025 55.681 8.86391 55.6454C7.79769 54.8185 7.11319 53.3221 6.88214 52.021C6.84871 51.72 6.84383 51.4275 6.84742 51.1251C6.84776 51.071 6.84809 51.0168 6.84843 50.9609C6.8493 50.8289 6.85062 50.6969 6.85205 50.565C7.10872 50.4916 7.10872 50.4916 7.37057 50.4168C7.37312 50.4581 7.37567 50.4994 7.37829 50.542C7.49053 52.236 7.91802 53.6555 9.166 54.8751C10.3154 55.8642 11.7971 56.2946 13.2965 56.1946C14.3944 56.0539 15.3271 55.6247 16.1854 54.9353C16.2474 54.8887 16.3093 54.8421 16.3732 54.7941C17.2015 54.0905 17.7474 52.9443 17.9632 51.8983C17.9884 51.7768 17.9884 51.7768 18.0141 51.6529C18.1548 49.9926 17.7188 48.5484 16.6576 47.2594C15.7758 46.3076 14.4473 45.6628 13.1508 45.5896C12.6557 45.5773 12.1618 45.5864 11.6669 45.602C11.6669 45.382 11.6669 45.162 11.6669 44.9353C13.4113 44.1176 15.9011 45.0853 17.245 46.2339Z" fill="white"/>
<path d="M0.852051 42.7872C1.17217 42.831 1.39689 42.9463 1.67381 43.1101C1.71673 43.1353 1.75965 43.1605 1.80387 43.1865C1.94372 43.2689 2.08308 43.3521 2.22242 43.4353C2.31989 43.4931 2.41737 43.5508 2.51487 43.6085C3.32543 44.0892 4.12809 44.5822 4.92613 45.0835C5.21155 45.2626 5.49705 45.4416 5.78261 45.6205C5.85558 45.6663 5.92856 45.712 6.00374 45.7592C6.54846 46.0999 7.09711 46.4336 7.64716 46.7656C9.01437 47.5912 10.322 48.4394 11.5011 49.5239C11.6573 49.6673 11.8163 49.8063 11.9771 49.9446C12.1726 50.1162 12.3665 50.2891 12.5558 50.4677C12.5985 50.5077 12.6413 50.5478 12.6854 50.589C12.778 50.7131 12.778 50.7131 12.778 51.0094C12.2893 50.8596 11.831 50.6705 11.3706 50.4492C11.3029 50.4167 11.2352 50.3843 11.1655 50.3508C9.70775 49.6406 8.40232 48.7311 7.13099 47.7308C6.20221 47.0001 5.25693 46.2911 4.3042 45.5922C3.81433 45.2324 3.33162 44.8643 2.85205 44.4909C2.74143 44.4049 2.6308 44.319 2.52016 44.2331C1.94064 43.7828 1.94064 43.7828 1.68321 43.5813C1.5662 43.4906 1.44833 43.401 1.32992 43.3122C1.26885 43.266 1.20779 43.2199 1.14487 43.1723C1.08885 43.1305 1.03282 43.0886 0.975098 43.0455C0.934492 43.0091 0.893887 42.9728 0.852051 42.9353C0.852051 42.8864 0.852051 42.8375 0.852051 42.7872Z" fill="white"/>
<path d="M6.33353 40.2687C6.42749 40.3282 6.42749 40.3282 6.52335 40.389C6.94784 40.8026 7.09997 41.1878 7.1252 41.7825C7.10359 42.3811 6.93466 42.7898 6.50309 43.2056C6.08059 43.5363 5.60628 43.6479 5.07427 43.602C4.55402 43.4985 4.15548 43.2709 3.81501 42.8613C3.51356 42.3475 3.42296 41.8429 3.56501 41.2658C3.74955 40.7204 4.05793 40.3797 4.56559 40.111C5.1476 39.8784 5.8047 39.9287 6.33353 40.2687Z" fill="white"/>
<path d="M55.1483 55.5279C55.3683 55.5279 55.5883 55.5279 55.815 55.5279C55.8395 56.139 55.8639 56.7501 55.8891 57.3798C56.1091 57.1964 56.1091 57.1964 56.3335 57.0094C56.7887 56.8577 57.3966 56.8469 57.8561 56.9972C58.3023 57.2559 58.6008 57.6639 58.8058 58.1298C58.9239 58.8624 58.939 59.6107 58.5558 60.2687C58.2399 60.6272 57.8999 60.9122 57.4157 60.9602C56.8582 60.9659 56.4418 60.9549 55.9632 60.639C55.9387 60.6146 55.9143 60.5901 55.8891 60.565C55.8646 60.6627 55.8402 60.7605 55.815 60.8613C55.595 60.8613 55.375 60.8613 55.1483 60.8613C55.1483 59.1013 55.1483 57.3413 55.1483 55.5279ZM55.815 58.0464C55.7733 58.3348 55.7773 58.6258 55.7733 58.9168C55.7697 58.9972 55.766 59.0776 55.7622 59.1604C55.7493 59.5947 55.7493 59.5947 55.9256 59.9774C56.2945 60.3025 56.6277 60.3692 57.111 60.3636C57.4632 60.324 57.6565 60.1238 57.9076 59.8937C58.157 59.475 58.2289 58.9897 58.1483 58.5094C58.0397 58.1163 57.7999 57.8031 57.4522 57.5898C56.8186 57.3378 56.2686 57.5929 55.815 58.0464Z" fill="white"/>
<path d="M96.1067 56.9029C96.1849 56.9038 96.1849 56.9038 96.2646 56.9048C96.7568 56.9208 97.0648 57.0165 97.4224 57.3485C97.9361 57.9008 97.9632 58.3043 97.9632 59.0835C96.9365 59.0835 95.9098 59.0835 94.8521 59.0835C95.1555 59.8769 95.1555 59.8769 95.7965 60.2964C96.2789 60.3892 96.6939 60.346 97.1113 60.0788C97.1579 60.0451 97.2045 60.0114 97.2525 59.9767C97.3706 59.8983 97.3706 59.8983 97.5187 59.8983C97.6437 60.0279 97.6437 60.0279 97.7409 60.1946C97.7279 60.3407 97.7279 60.3407 97.6669 60.4909C97.5378 60.5982 97.5378 60.5982 97.3798 60.69C97.3281 60.7208 97.2763 60.7516 97.223 60.7834C96.7077 61.0531 95.9421 61.0098 95.3798 60.8899C94.8645 60.6868 94.5311 60.2886 94.284 59.8042C94.1789 59.5098 94.1483 59.2534 94.153 58.9446C94.1536 58.8926 94.1542 58.8406 94.1548 58.7871C94.1762 58.1305 94.3901 57.7268 94.8465 57.2692C95.2392 56.9838 95.6292 56.8957 96.1067 56.9029ZM95.1622 57.8798C94.9633 58.1486 94.9633 58.1486 94.8521 58.639C95.6587 58.639 96.4654 58.639 97.2965 58.639C97.2231 58.1256 97.2052 58.0139 96.8521 57.6761C96.228 57.3357 95.6833 57.3702 95.1622 57.8798Z" fill="white"/>
<path d="M45.44 56.9029C45.5182 56.9038 45.5182 56.9038 45.598 56.9048C46.0901 56.9208 46.3982 57.0165 46.7557 57.3485C47.2694 57.9008 47.2965 58.3043 47.2965 59.0835C46.2698 59.0835 45.2432 59.0835 44.1854 59.0835C44.4888 59.8769 44.4888 59.8769 45.1298 60.2964C45.6122 60.3892 46.0273 60.346 46.4446 60.0788C46.4912 60.0451 46.5378 60.0114 46.5858 59.9767C46.7039 59.8983 46.7039 59.8983 46.8521 59.8983C46.9771 60.0279 46.9771 60.0279 47.0743 60.1946C47.0613 60.3407 47.0613 60.3407 47.0002 60.4909C46.8711 60.5982 46.8711 60.5982 46.7132 60.69C46.6614 60.7208 46.6097 60.7516 46.5563 60.7834C46.0411 61.0531 45.2755 61.0098 44.7132 60.8899C44.1978 60.6868 43.8645 60.2886 43.6174 59.8042C43.5123 59.5098 43.4816 59.2534 43.4863 58.9446C43.4869 58.8926 43.4875 58.8406 43.4882 58.7871C43.5095 58.1305 43.7234 57.7268 44.1799 57.2692C44.5725 56.9838 44.9625 56.8957 45.44 56.9029ZM44.4956 57.8798C44.2966 58.1486 44.2966 58.1486 44.1854 58.639C44.9921 58.639 45.7987 58.639 46.6298 58.639C46.5565 58.1256 46.5385 58.0139 46.1854 57.6761C45.5613 57.3357 45.0167 57.3702 44.4956 57.8798Z" fill="white"/>
<path d="M83.8011 57.0511C84.064 57.2311 84.2193 57.4544 84.3335 57.7501C84.3711 57.995 84.3682 58.2341 84.3625 58.4813C84.362 58.5497 84.3616 58.618 84.3612 58.6884C84.3595 58.905 84.3558 59.1215 84.3521 59.3381C84.3506 59.4856 84.3492 59.6331 84.348 59.7807C84.3447 60.1409 84.3396 60.5011 84.3335 60.8613C84.1135 60.8613 83.8935 60.8613 83.6669 60.8613C83.6424 60.7879 83.618 60.7146 83.5928 60.639C83.5164 60.6879 83.44 60.7368 83.3613 60.7872C82.9226 61.0073 82.4421 60.997 81.9632 60.9353C81.6199 60.7907 81.3942 60.6238 81.1483 60.3427C81.0094 59.9259 80.9787 59.4005 81.1414 58.9868C81.3405 58.6895 81.5556 58.5538 81.8891 58.4168C82.5205 58.3405 83.0553 58.3621 83.5928 58.7131C83.6417 58.2188 83.6417 58.2188 83.4539 57.7825C83.0822 57.5311 82.6973 57.5505 82.2595 57.602C82.0816 57.6826 81.941 57.7721 81.7869 57.8913C81.6669 57.9724 81.6669 57.9724 81.4446 57.9724C81.3196 57.8242 81.3196 57.8242 81.2224 57.6761C81.3255 57.4255 81.43 57.3178 81.6622 57.1807C81.7389 57.1344 81.7389 57.1344 81.817 57.0872C82.3298 56.8141 83.264 56.8121 83.8011 57.0511ZM81.8196 59.2085C81.7025 59.4634 81.6832 59.7011 81.7409 59.9724C81.9469 60.243 82.1484 60.4151 82.4817 60.4909C82.9388 60.4977 83.2372 60.405 83.5928 60.1205C83.7151 59.9982 83.6882 59.8579 83.6946 59.69C83.6927 59.3751 83.6927 59.3751 83.5095 59.1205C82.9068 58.8061 82.3703 58.7288 81.8196 59.2085Z" fill="white"/>
<path d="M53.4308 57.0511C53.6937 57.2311 53.8489 57.4544 53.9632 57.7501C54.0008 57.995 53.9979 58.2341 53.9921 58.4813C53.9917 58.5497 53.9913 58.618 53.9908 58.6884C53.9892 58.905 53.9855 59.1215 53.9817 59.3381C53.9802 59.4856 53.9788 59.6331 53.9776 59.7807C53.9744 60.1409 53.9693 60.5011 53.9632 60.8613C53.7432 60.8613 53.5232 60.8613 53.2965 60.8613C53.2721 60.7879 53.2476 60.7146 53.2224 60.639C53.146 60.6879 53.0696 60.7368 52.9909 60.7872C52.5523 61.0073 52.0717 60.997 51.5928 60.9353C51.2495 60.7907 51.0239 60.6238 50.778 60.3427C50.639 59.9259 50.6084 59.4005 50.771 58.9868C50.9701 58.6895 51.1852 58.5538 51.5187 58.4168C52.1501 58.3405 52.685 58.3621 53.2224 58.7131C53.2713 58.2188 53.2713 58.2188 53.0835 57.7825C52.7119 57.5311 52.327 57.5505 51.8891 57.602C51.7112 57.6826 51.5706 57.7721 51.4166 57.8913C51.2965 57.9724 51.2965 57.9724 51.0743 57.9724C50.9493 57.8242 50.9493 57.8242 50.8521 57.6761C50.9552 57.4255 51.0596 57.3178 51.2919 57.1807C51.3685 57.1344 51.3685 57.1344 51.4467 57.0872C51.9594 56.8141 52.8937 56.8121 53.4308 57.0511ZM51.4493 59.2085C51.3321 59.4634 51.3129 59.7011 51.3706 59.9724C51.5765 60.243 51.778 60.4151 52.1113 60.4909C52.5684 60.4977 52.8669 60.405 53.2224 60.1205C53.3447 59.9982 53.3179 59.8579 53.3243 59.69C53.3224 59.3751 53.3224 59.3751 53.1391 59.1205C52.5364 58.8061 52 58.7288 51.4493 59.2085Z" fill="white"/>
<path d="M66.9261 57.0094C67.1706 57.0094 67.415 57.0094 67.6669 57.0094C67.9645 57.5693 68.19 58.1563 68.4215 58.7455C68.482 58.8993 68.5426 59.0531 68.6034 59.2068C68.6581 59.3449 68.7124 59.483 68.7667 59.6212C68.8329 59.8144 68.8329 59.8144 68.9261 59.8983C69.3172 58.945 69.7084 57.9916 70.1113 57.0094C70.3558 57.0094 70.6002 57.0094 70.8521 57.0094C70.8002 57.3876 70.6456 57.7201 70.4973 58.0684C70.469 58.1356 70.4408 58.2028 70.4117 58.272C70.3211 58.4871 70.2301 58.702 70.1391 58.9168C70.05 59.1278 69.9611 59.3388 69.8722 59.5499C69.8137 59.6885 69.7551 59.8271 69.6964 59.9656C69.5604 60.2869 69.4264 60.6085 69.2986 60.9332C69.2759 60.9902 69.2532 61.0473 69.2298 61.1062C69.1884 61.2109 69.1476 61.3159 69.1077 61.4213C68.9551 61.8057 68.7551 62.1245 68.4157 62.3699C68.1936 62.4366 67.9906 62.4307 67.7595 62.4261C67.6728 62.4247 67.5861 62.4234 67.4967 62.422C67.4306 62.4203 67.3646 62.4186 67.2965 62.4168C67.3209 62.1968 67.3454 61.9768 67.3706 61.7501C67.476 61.7563 67.5814 61.7624 67.69 61.7687C67.9561 61.7732 67.9561 61.7732 68.1761 61.639C68.2036 61.5779 68.2311 61.5168 68.2595 61.4538C68.304 61.3693 68.3486 61.2847 68.3945 61.1975C68.5537 60.7652 68.3621 60.435 68.1819 60.036C68.1489 59.9586 68.1159 59.8813 68.0818 59.8015C67.9762 59.5552 67.8679 59.3101 67.7595 59.065C67.6527 58.8185 67.5464 58.5719 67.4402 58.3252C67.3741 58.172 67.3074 58.019 67.2402 57.8662C67.2098 57.7969 67.1794 57.7277 67.1481 57.6563C67.1079 57.5652 67.1079 57.5652 67.0668 57.4723C67.0002 57.3057 67.0002 57.3057 66.9261 57.0094Z" fill="white"/>
<path d="M9.61594 43.3566C9.92382 43.6215 10.241 43.9046 10.2771 44.3274C10.2885 44.8469 10.2892 45.1878 9.96316 45.602C9.56643 45.9784 9.20913 46.0819 8.67178 46.0699C8.27199 46.0206 7.98778 45.854 7.71316 45.565C7.41451 45.1055 7.39925 44.7393 7.44464 44.1946C7.57322 43.7862 7.84131 43.5452 8.18538 43.3057C8.64739 43.0696 9.1631 43.1259 9.61594 43.3566Z" fill="white"/>
<path d="M33.0743 57.0094C33.2943 57.0094 33.5143 57.0094 33.7409 57.0094C33.7412 57.095 33.7416 57.1805 33.7419 57.2687C33.7435 57.5869 33.7475 57.9051 33.7522 58.2233C33.754 58.3609 33.755 58.4985 33.7554 58.6361C33.7561 58.8342 33.7592 59.0321 33.7626 59.2302C33.7623 59.2915 33.7621 59.3527 33.7618 59.4159C33.7698 59.7366 33.7866 59.8622 33.9921 60.1225C34.26 60.3251 34.4216 60.3123 34.7456 60.2959C35.0813 60.2453 35.3157 60.083 35.5928 59.8983C35.6178 59.6781 35.629 59.4726 35.6307 59.2519C35.632 59.188 35.6334 59.1241 35.6347 59.0582C35.6387 58.8537 35.6412 58.6491 35.6437 58.4446C35.6462 58.3061 35.6487 58.1676 35.6514 58.0291C35.6577 57.6892 35.6626 57.3493 35.6669 57.0094C35.8869 57.0094 36.1069 57.0094 36.3335 57.0094C36.3335 58.2805 36.3335 59.5516 36.3335 60.8613C36.1135 60.8613 35.8935 60.8613 35.6669 60.8613C35.6302 60.7146 35.6302 60.7146 35.5928 60.565C35.5319 60.6051 35.5319 60.6051 35.4698 60.646C34.9175 60.9693 34.3731 61.0372 33.7409 60.9353C33.4128 60.7622 33.2265 60.6064 33.0743 60.2687C33.0443 60.0186 33.0484 59.771 33.0526 59.5195C33.0529 59.4477 33.0532 59.3759 33.0535 59.3019C33.0548 59.0732 33.0576 58.8446 33.0604 58.6159C33.0615 58.4605 33.0625 58.3052 33.0634 58.1499C33.0659 57.7697 33.0697 57.3896 33.0743 57.0094Z" fill="white"/>
<path d="M91.9863 56.9122C92.0823 56.9094 92.1782 56.9066 92.2771 56.9038C92.6597 56.9471 92.8791 57.0841 93.1225 57.3806C93.2685 57.704 93.2499 58.0004 93.2441 58.3511C93.2438 58.4229 93.2435 58.4948 93.2432 58.5688C93.2419 58.7974 93.2391 59.0261 93.2363 59.2548C93.2352 59.4101 93.2342 59.5654 93.2333 59.7208C93.2308 60.101 93.227 60.4811 93.2224 60.8613C93.0269 60.8613 92.8313 60.8613 92.6298 60.8613C92.6276 60.7509 92.6276 60.7509 92.6254 60.6383C92.6197 60.3634 92.6132 60.0886 92.6063 59.8137C92.6035 59.6951 92.6009 59.5765 92.5986 59.4579C92.5952 59.2867 92.5909 59.1155 92.5864 58.9443C92.5856 58.8919 92.5847 58.8395 92.5838 58.7855C92.5724 58.3939 92.5537 57.9765 92.2722 57.683C91.9777 57.5347 91.691 57.5488 91.3706 57.602C91.1238 57.7143 90.8965 57.8539 90.7039 58.0464C90.692 58.2546 90.6847 58.4611 90.6805 58.6694C90.6789 58.7318 90.6774 58.7942 90.6758 58.8584C90.6709 59.0584 90.6666 59.2584 90.6622 59.4585C90.659 59.5937 90.6558 59.729 90.6525 59.8643C90.6446 60.1966 90.6371 60.5289 90.6298 60.8613C90.4098 60.8613 90.1898 60.8613 89.9632 60.8613C89.9632 59.5901 89.9632 58.319 89.9632 57.0094C90.1832 57.0094 90.4032 57.0094 90.6298 57.0094C90.6298 57.1316 90.6298 57.2538 90.6298 57.3798C90.67 57.3539 90.7102 57.328 90.7516 57.3014C90.8311 57.2508 90.8311 57.2508 90.9122 57.1992C90.9647 57.1657 91.0171 57.1322 91.0711 57.0977C91.374 56.921 91.6414 56.9187 91.9863 56.9122Z" fill="white"/>
<path d="M87.5419 56.9122C87.6378 56.9094 87.7338 56.9066 87.8327 56.9038C88.2153 56.9471 88.4346 57.0841 88.678 57.3806C88.824 57.704 88.8055 58.0004 88.7997 58.3511C88.7994 58.4229 88.7991 58.4948 88.7987 58.5688C88.7975 58.7974 88.7947 59.0261 88.7919 59.2548C88.7907 59.4101 88.7897 59.5654 88.7888 59.7208C88.7864 60.101 88.7825 60.4811 88.778 60.8613C88.5824 60.8613 88.3869 60.8613 88.1854 60.8613C88.1832 60.7509 88.1832 60.7509 88.1809 60.6383C88.1753 60.3634 88.1687 60.0886 88.1619 59.8137C88.159 59.6951 88.1565 59.5765 88.1541 59.4579C88.1507 59.2867 88.1464 59.1155 88.142 58.9443C88.1411 58.8919 88.1403 58.8395 88.1394 58.7855C88.1279 58.3939 88.1092 57.9765 87.8277 57.683C87.5332 57.5347 87.2466 57.5488 86.9261 57.602C86.6794 57.7143 86.452 57.8539 86.2595 58.0464C86.2476 58.2546 86.2402 58.4611 86.236 58.6694C86.2345 58.7318 86.2329 58.7942 86.2314 58.8584C86.2265 59.0584 86.2221 59.2584 86.2178 59.4585C86.2146 59.5937 86.2114 59.729 86.2081 59.8643C86.2001 60.1966 86.1926 60.5289 86.1854 60.8613C85.9654 60.8613 85.7454 60.8613 85.5187 60.8613C85.5187 59.5901 85.5187 58.319 85.5187 57.0094C85.7387 57.0094 85.9587 57.0094 86.1854 57.0094C86.1854 57.1316 86.1854 57.2538 86.1854 57.3798C86.2256 57.3539 86.2658 57.328 86.3072 57.3014C86.3867 57.2508 86.3867 57.2508 86.4678 57.1992C86.5202 57.1657 86.5726 57.1322 86.6266 57.0977C86.9295 56.921 87.197 56.9187 87.5419 56.9122Z" fill="white"/>
<path d="M41.3196 56.9122C41.4156 56.9094 41.5116 56.9066 41.6104 56.9038C41.993 56.9471 42.2124 57.0841 42.4558 57.3806C42.6018 57.704 42.5833 58.0004 42.5775 58.3511C42.5771 58.4229 42.5768 58.4948 42.5765 58.5688C42.5753 58.7974 42.5725 59.0261 42.5696 59.2548C42.5685 59.4101 42.5675 59.5654 42.5666 59.7208C42.5642 60.101 42.5603 60.4811 42.5558 60.8613C42.3602 60.8613 42.1646 60.8613 41.9632 60.8613C41.961 60.7509 41.961 60.7509 41.9587 60.6383C41.953 60.3634 41.9465 60.0886 41.9397 59.8137C41.9368 59.6951 41.9342 59.5765 41.9319 59.4579C41.9285 59.2867 41.9242 59.1155 41.9198 58.9443C41.9189 58.8919 41.918 58.8395 41.9172 58.7855C41.9057 58.3939 41.887 57.9765 41.6055 57.683C41.311 57.5347 41.0244 57.5488 40.7039 57.602C40.4572 57.7143 40.2298 57.8539 40.0372 58.0464C40.0254 58.2546 40.018 58.4611 40.0138 58.6694C40.0123 58.7318 40.0107 58.7942 40.0091 58.8584C40.0043 59.0584 39.9999 59.2584 39.9956 59.4585C39.9924 59.5937 39.9891 59.729 39.9859 59.8643C39.9779 60.1966 39.9704 60.5289 39.9632 60.8613C39.7432 60.8613 39.5232 60.8613 39.2965 60.8613C39.2965 59.5901 39.2965 58.319 39.2965 57.0094C39.5165 57.0094 39.7365 57.0094 39.9632 57.0094C39.9632 57.1316 39.9632 57.2538 39.9632 57.3798C40.0034 57.3539 40.0436 57.328 40.085 57.3014C40.1645 57.2508 40.1645 57.2508 40.2456 57.1992C40.298 57.1657 40.3504 57.1322 40.4044 57.0977C40.7073 56.921 40.9748 56.9187 41.3196 56.9122Z" fill="white"/>
<path d="M74.7317 56.9029C74.7875 56.9033 74.8432 56.9036 74.9007 56.904C75.3253 56.9153 75.6069 56.9894 75.9632 57.2316C76.0365 57.2805 76.1098 57.3294 76.1854 57.3798C76.1452 57.6609 76.0223 57.7851 75.815 57.9724C75.7615 57.9265 75.7081 57.8807 75.653 57.8335C75.2806 57.5521 74.948 57.4696 74.4817 57.5279C74.2271 57.6026 74.2271 57.6026 74.0372 57.7501C73.9655 57.9416 73.9655 57.9416 73.9632 58.1205C74.2337 58.3669 74.526 58.429 74.8706 58.5187C75.9388 58.8152 75.9388 58.8152 76.1978 59.218C76.3506 59.6188 76.3171 60.0625 76.1483 60.4492C75.7177 60.8906 75.3365 60.965 74.7456 60.9724C74.1219 60.9666 73.6286 60.8344 73.1483 60.4168C73.2562 60.0753 73.2562 60.0753 73.4319 59.9495C73.5928 59.8983 73.5928 59.8983 73.7409 59.9622C73.8143 60.0154 73.8143 60.0154 73.8891 60.0696C74.2693 60.3406 74.6087 60.3811 75.0743 60.3427C75.3238 60.2762 75.3238 60.2762 75.5187 60.1946C75.5754 59.9461 75.5754 59.9461 75.5928 59.6761C75.4253 59.4313 75.1977 59.387 74.9215 59.3103C73.6576 58.9393 73.6576 58.9393 73.3706 58.565C73.2235 58.2708 73.2567 57.9219 73.2965 57.602C73.5669 57.0193 74.1505 56.8951 74.7317 56.9029Z" fill="white"/>
<path d="M28.5558 57.0094C28.8002 57.0094 29.0446 57.0094 29.2965 57.0094C29.5941 57.5693 29.8197 58.1563 30.0511 58.7455C30.1116 58.8993 30.1722 59.0531 30.2331 59.2068C30.2877 59.3449 30.3421 59.483 30.3964 59.6212C30.4625 59.8144 30.4625 59.8144 30.5558 59.8983C30.9469 58.945 31.338 57.9916 31.7409 57.0094C31.9854 57.0094 32.2298 57.0094 32.4817 57.0094C32.4368 57.266 32.3707 57.4929 32.2712 57.7334C32.2293 57.8354 32.2293 57.8354 32.1865 57.9393C32.1564 58.0117 32.1262 58.0841 32.0951 58.1587C32.0641 58.2336 32.0332 58.3086 32.0013 58.3858C31.9359 58.5437 31.8704 58.7016 31.8048 58.8594C31.7039 59.102 31.6036 59.3447 31.5034 59.5875C31.4399 59.7409 31.3763 59.8943 31.3127 60.0476C31.2825 60.1206 31.2524 60.1936 31.2213 60.2688C31.1933 60.3358 31.1654 60.4028 31.1366 60.4719C31.112 60.5311 31.0874 60.5904 31.062 60.6514C31.0002 60.7872 31.0002 60.7872 30.9261 60.8613C30.7889 60.8666 30.6514 60.8675 30.5141 60.8659C30.4391 60.8652 30.3642 60.8645 30.2869 60.8639C30.2 60.8626 30.2 60.8626 30.1113 60.8613C29.9014 60.3604 29.6918 59.8595 29.4824 59.3584C29.4111 59.188 29.3398 59.0175 29.2684 58.8471C29.1658 58.6023 29.0634 58.3574 28.9611 58.1124C28.9291 58.0362 28.8971 57.9599 28.8641 57.8814C28.8344 57.8102 28.8048 57.739 28.7742 57.6657C28.7481 57.6032 28.7219 57.5407 28.695 57.4763C28.6298 57.3057 28.6298 57.3057 28.5558 57.0094Z" fill="white"/>
<path d="M78.9956 56.9029C79.0476 56.9034 79.0996 56.9038 79.1532 56.9043C79.676 56.9201 79.9811 57.0478 80.3706 57.3983C80.4072 57.4411 80.4439 57.4838 80.4817 57.5279C80.4004 57.7496 80.3575 57.8128 80.1391 57.9168C80.081 57.9351 80.023 57.9535 79.9632 57.9724C79.9066 57.925 79.8501 57.8776 79.7919 57.8288C79.4484 57.5653 79.1212 57.5627 78.7039 57.602C78.2884 57.7509 78.086 57.9796 77.8706 58.3566C77.7364 58.8597 77.7624 59.3179 78.0216 59.773C78.2072 60.0322 78.405 60.169 78.7039 60.2687C79.1956 60.3268 79.4796 60.2426 79.8891 59.9724C79.9624 59.9479 80.0358 59.9235 80.1113 59.8983C80.3104 60.0418 80.3104 60.0418 80.4817 60.1946C80.35 60.5298 80.1192 60.7089 79.8017 60.8682C79.3057 61.0276 78.5551 61.039 78.0743 60.8288C77.593 60.5283 77.2115 60.0789 77.0743 59.5279C77.0088 58.793 77.0117 58.1282 77.4875 57.5288C77.9097 57.0695 78.3708 56.8936 78.9956 56.9029Z" fill="white"/>
<path d="M65.2224 55.8983C65.4424 55.8983 65.6624 55.8983 65.8891 55.8983C65.8891 56.2405 65.8891 56.5827 65.8891 56.9353C66.158 56.9353 66.4269 56.9353 66.7039 56.9353C66.7039 57.1553 66.7039 57.3753 66.7039 57.602C66.435 57.602 66.1661 57.602 65.8891 57.602C65.896 57.9342 65.9039 58.2663 65.9126 58.5984C65.9154 58.7114 65.918 58.8243 65.9203 58.9373C65.9237 59.0998 65.928 59.2624 65.9325 59.4249C65.9333 59.4752 65.9342 59.5255 65.9351 59.5774C65.9433 59.8434 65.9676 60.0417 66.1113 60.2687C66.3069 60.2442 66.5024 60.2198 66.7039 60.1946C66.7772 60.3657 66.8506 60.5368 66.9261 60.7131C66.6087 61.0049 66.3085 60.9759 65.8952 60.9666C65.6669 60.9353 65.6669 60.9353 65.4261 60.7687C65.1975 60.4094 65.2124 60.073 65.2152 59.6564C65.2153 59.5976 65.2154 59.5389 65.2155 59.4783C65.2159 59.2911 65.2169 59.104 65.2178 58.9168C65.2182 58.7897 65.2185 58.6626 65.2188 58.5354C65.2196 58.2243 65.2209 57.9131 65.2224 57.602C65.0269 57.602 64.8313 57.602 64.6298 57.602C64.6298 57.382 64.6298 57.162 64.6298 56.9353C64.8254 56.9353 65.0209 56.9353 65.2224 56.9353C65.2224 56.5931 65.2224 56.2509 65.2224 55.8983Z" fill="white"/>
<path d="M61.5928 55.5279C61.8128 55.5279 62.0328 55.5279 62.2595 55.5279C62.2595 57.2879 62.2595 59.0479 62.2595 60.8613C62.0395 60.8613 61.8195 60.8613 61.5928 60.8613C61.5928 59.1013 61.5928 57.3413 61.5928 55.5279Z" fill="white"/>
<path d="M37.5187 55.5279C37.7387 55.5279 37.9587 55.5279 38.1854 55.5279C38.1854 57.2879 38.1854 59.0479 38.1854 60.8613C37.9654 60.8613 37.7454 60.8613 37.5187 60.8613C37.5187 59.1013 37.5187 57.3413 37.5187 55.5279Z" fill="white"/>
<path d="M3.51872 46.0464C3.8978 46.243 4.12443 46.4562 4.25946 46.8613C4.30294 47.3135 4.2198 47.5376 3.96316 47.8983C3.67934 48.1649 3.35409 48.1667 2.98023 48.1561C2.64985 48.098 2.46066 47.9379 2.25946 47.6761C2.08093 47.3339 2.07189 47.0043 2.18538 46.639C2.50122 46.104 2.92688 45.9622 3.51872 46.0464Z" fill="white"/>
<path d="M100.852 56.9353C100.852 57.1553 100.852 57.3753 100.852 57.602C100.803 57.6101 100.754 57.6182 100.703 57.6266C100.19 57.7173 100.19 57.7173 99.7409 57.9724C99.6217 58.2108 99.6489 58.4722 99.6434 58.7345C99.6419 58.7951 99.6404 58.8558 99.6388 58.9182C99.6339 59.1122 99.6296 59.3062 99.6252 59.5001C99.622 59.6315 99.6188 59.7629 99.6155 59.8942C99.6076 60.2166 99.6001 60.5389 99.5928 60.8613C99.3728 60.8613 99.1528 60.8613 98.9261 60.8613C98.9261 59.5901 98.9261 58.319 98.9261 57.0094C99.1461 57.0094 99.3661 57.0094 99.5928 57.0094C99.6172 57.1316 99.6417 57.2538 99.6669 57.3798C99.7219 57.3339 99.7769 57.2881 99.8335 57.2409C100.193 56.9632 100.391 56.9176 100.852 56.9353Z" fill="white"/>
<path d="M50.1854 56.9353C50.1854 57.1553 50.1854 57.3753 50.1854 57.602C50.1362 57.6101 50.087 57.6182 50.0364 57.6266C49.5234 57.7173 49.5234 57.7173 49.0743 57.9724C48.9551 58.2108 48.9822 58.4722 48.9768 58.7345C48.9752 58.7951 48.9737 58.8558 48.9721 58.9182C48.9672 59.1122 48.9629 59.3062 48.9585 59.5001C48.9553 59.6315 48.9521 59.7629 48.9488 59.8942C48.9409 60.2166 48.9334 60.5389 48.9261 60.8613C48.7061 60.8613 48.4861 60.8613 48.2595 60.8613C48.2595 59.5901 48.2595 58.319 48.2595 57.0094C48.4795 57.0094 48.6995 57.0094 48.9261 57.0094C48.9506 57.1316 48.975 57.2538 49.0002 57.3798C49.0552 57.3339 49.1102 57.2881 49.1669 57.2409C49.5262 56.9632 49.7245 56.9176 50.1854 56.9353Z" fill="white"/>
<path d="M63.3706 57.0094C63.5906 57.0094 63.8106 57.0094 64.0372 57.0094C64.0372 58.2805 64.0372 59.5516 64.0372 60.8613C63.8172 60.8613 63.5972 60.8613 63.3706 60.8613C63.3706 59.5901 63.3706 58.319 63.3706 57.0094Z" fill="white"/>
<path d="M59.7409 57.0094C59.9609 57.0094 60.1809 57.0094 60.4076 57.0094C60.4076 58.2805 60.4076 59.5516 60.4076 60.8613C60.1876 60.8613 59.9676 60.8613 59.7409 60.8613C59.7409 59.5901 59.7409 58.319 59.7409 57.0094Z" fill="white"/>
<path d="M63.7039 55.5835C63.9632 55.602 63.9632 55.602 64.1113 55.7501C64.1298 56.0094 64.1298 56.0094 64.1113 56.2687C63.9632 56.4168 63.9632 56.4168 63.7039 56.4353C63.4446 56.4168 63.4446 56.4168 63.2965 56.2687C63.278 56.0094 63.278 56.0094 63.2965 55.7501C63.4446 55.602 63.4446 55.602 63.7039 55.5835Z" fill="white"/>
<path d="M60.0743 55.5835C60.3335 55.602 60.3335 55.602 60.4817 55.7501C60.5002 56.0094 60.5002 56.0094 60.4817 56.2687C60.3335 56.4168 60.3335 56.4168 60.0743 56.4353C59.815 56.4168 59.815 56.4168 59.6669 56.2687C59.6483 56.0094 59.6483 56.0094 59.6669 55.7501C59.815 55.602 59.815 55.602 60.0743 55.5835Z" fill="white"/>
</g>
<defs>
<clipPath id="clip0_2336_13346">
<rect width="100" height="100" fill="white" transform="translate(0.852051 0.833618)"/>
</clipPath>
</defs>
</svg>
