<svg width="101" height="101" viewBox="0 0 101 101" fill="none" xmlns="http://www.w3.org/2000/svg">
<g clip-path="url(#clip0_2336_13350)">
<path d="M88.9084 55.2071V38.7517H92.2583V52.4117H100.588V55.2071H88.9084Z" fill="white"/>
<path d="M72.5096 49.8088L75.769 49.4919C75.9651 50.5859 76.3612 51.3894 76.9573 51.9025C77.5609 52.4155 78.372 52.672 79.3905 52.672C80.4694 52.672 81.2805 52.4457 81.8237 51.993C82.3745 51.5328 82.6499 50.9971 82.6499 50.3859C82.6499 49.9936 82.533 49.6616 82.2991 49.39C82.0727 49.1109 81.6728 48.8694 81.0994 48.6657C80.7071 48.5299 79.813 48.2885 78.4172 47.9414C76.6215 47.4962 75.3615 46.9492 74.6372 46.3004C73.6187 45.3874 73.1094 44.2746 73.1094 42.9618C73.1094 42.1167 73.3471 41.3283 73.8224 40.5964C74.3053 39.857 74.9956 39.2949 75.8935 38.9102C76.7988 38.5254 77.8891 38.333 79.1642 38.333C81.2466 38.333 82.8121 38.7894 83.8609 39.7024C84.9171 40.6153 85.4717 41.8338 85.5245 43.3579L82.1746 43.505C82.0312 42.6524 81.7219 42.0413 81.2466 41.6716C80.7788 41.2943 80.0733 41.1057 79.1302 41.1057C78.1569 41.1057 77.3949 41.3057 76.8441 41.7055C76.4895 41.9621 76.3122 42.3054 76.3122 42.7354C76.3122 43.1278 76.4782 43.4635 76.8102 43.7427C77.2327 44.0973 78.2588 44.467 79.8885 44.8518C81.5182 45.2365 82.7216 45.6364 83.4987 46.0514C84.2834 46.4588 84.8945 47.0209 85.3321 47.7377C85.7773 48.4469 85.9998 49.3259 85.9998 50.3746C85.9998 51.3253 85.7358 52.2156 85.2076 53.0455C84.6795 53.8755 83.9325 54.4941 82.9668 54.9016C82.001 55.3014 80.7976 55.5014 79.3566 55.5014C77.2591 55.5014 75.6482 55.0185 74.5241 54.0528C73.3999 53.0795 72.7284 51.6648 72.5096 49.8088Z" fill="white"/>
<path d="M57.0501 49.8088L60.3095 49.4919C60.5056 50.5859 60.9018 51.3894 61.4978 51.9025C62.1014 52.4155 62.9125 52.672 63.931 52.672C65.0099 52.672 65.821 52.4457 66.3643 51.993C66.915 51.5328 67.1904 50.9971 67.1904 50.3859C67.1904 49.9936 67.0735 49.6616 66.8396 49.39C66.6132 49.1109 66.2134 48.8694 65.6399 48.6657C65.2476 48.5299 64.3535 48.2885 62.9577 47.9414C61.1621 47.4962 59.9021 46.9492 59.1777 46.3004C58.1592 45.3874 57.6499 44.2746 57.6499 42.9618C57.6499 42.1167 57.8876 41.3283 58.3629 40.5964C58.8458 39.857 59.5361 39.2949 60.434 38.9102C61.3394 38.5254 62.4296 38.333 63.7047 38.333C65.7871 38.333 67.3526 38.7894 68.4014 39.7024C69.4577 40.6153 70.0122 41.8338 70.065 43.3579L66.7151 43.505C66.5717 42.6524 66.2624 42.0413 65.7871 41.6716C65.3193 41.2943 64.6138 41.1057 63.6707 41.1057C62.6974 41.1057 61.9354 41.3057 61.3846 41.7055C61.03 41.9621 60.8527 42.3054 60.8527 42.7354C60.8527 43.1278 61.0187 43.4635 61.3507 43.7427C61.7732 44.0973 62.7993 44.467 64.429 44.8518C66.0587 45.2365 67.2621 45.6364 68.0392 46.0514C68.8239 46.4588 69.435 47.0209 69.8726 47.7377C70.3178 48.4469 70.5404 49.3259 70.5404 50.3746C70.5404 51.3253 70.2763 52.2156 69.7481 53.0455C69.22 53.8755 68.4731 54.4941 67.5073 54.9016C66.5416 55.3014 65.3382 55.5014 63.8971 55.5014C61.7996 55.5014 60.1888 55.0185 59.0646 54.0528C57.9404 53.0795 57.2689 51.6648 57.0501 49.8088Z" fill="white"/>
<path d="M44.8387 55.2071V43.1881H46.6721V44.897C47.5548 43.5767 48.8299 42.9165 50.4973 42.9165C51.2217 42.9165 51.8856 43.0485 52.4892 43.3126C53.1003 43.5691 53.5568 43.9086 53.8586 44.3312C54.1604 44.7537 54.3717 45.2554 54.4924 45.8364C54.5678 46.2136 54.6055 46.8738 54.6055 47.8169V55.2071H52.5684V47.8961C52.5684 47.0662 52.4892 46.4475 52.3308 46.0401C52.1723 45.6251 51.8894 45.2969 51.482 45.0555C51.0821 44.8065 50.6105 44.682 50.0673 44.682C49.1996 44.682 48.4489 44.9574 47.8151 45.5082C47.1889 46.0589 46.8758 47.1039 46.8758 48.6431V55.2071H44.8387Z" fill="white"/>
<path d="M40.1646 51.3366L42.2696 51.5969C41.9377 52.8267 41.3228 53.7811 40.4249 54.4602C39.5271 55.1392 38.3803 55.4787 36.9844 55.4787C35.2265 55.4787 33.8307 54.9393 32.797 53.8604C31.7709 52.7739 31.2579 51.2536 31.2579 49.2995C31.2579 47.2774 31.7785 45.7081 32.8197 44.5915C33.8609 43.4748 35.2114 42.9165 36.8713 42.9165C38.4783 42.9165 39.7911 43.4635 40.8097 44.5575C41.8283 45.6515 42.3376 47.1907 42.3376 49.175C42.3376 49.2957 42.3338 49.4768 42.3262 49.7182H33.3629C33.4384 51.0386 33.8118 52.0496 34.4833 52.7513C35.1548 53.4529 35.9923 53.8038 36.9958 53.8038C37.7427 53.8038 38.3803 53.6076 38.9084 53.2153C39.4365 52.8229 39.8553 52.1967 40.1646 51.3366ZM33.4761 48.0432H40.1873C40.0967 47.0322 39.8402 46.274 39.4177 45.7685C38.7688 44.9838 37.9276 44.5915 36.8939 44.5915C35.9583 44.5915 35.1699 44.9046 34.5286 45.5308C33.8948 46.157 33.544 46.9945 33.4761 48.0432Z" fill="white"/>
<path d="M19.0352 59.8133V43.1881H20.8912V44.7499C21.3288 44.1388 21.823 43.6823 22.3738 43.3805C22.9245 43.0712 23.5923 42.9165 24.3769 42.9165C25.403 42.9165 26.3084 43.1806 27.0931 43.7087C27.8778 44.2369 28.47 44.9838 28.8699 45.9495C29.2698 46.9077 29.4697 47.9603 29.4697 49.1071C29.4697 50.3369 29.2472 51.446 28.802 52.4344C28.3644 53.4152 27.7231 54.1697 26.8781 54.6978C26.0406 55.2184 25.1578 55.4787 24.2298 55.4787C23.5508 55.4787 22.9396 55.3354 22.3964 55.0487C21.8607 54.762 21.4193 54.3998 21.0723 53.9622V59.8133H19.0352ZM20.8799 49.2655C20.8799 50.8122 21.193 51.9553 21.8192 52.6947C22.4454 53.4341 23.2037 53.8038 24.094 53.8038C24.9994 53.8038 25.7727 53.4228 26.4141 52.6607C27.0629 51.8911 27.3873 50.7028 27.3873 49.0958C27.3873 47.5641 27.0705 46.4173 26.4367 45.6553C25.8105 44.8933 25.0597 44.5122 24.1845 44.5122C23.3169 44.5122 22.5473 44.9197 21.8758 45.7345C21.2119 46.5418 20.8799 47.7188 20.8799 49.2655Z" fill="white"/>
<path d="M0.587891 47.1265C0.587891 44.3727 1.32729 42.2186 2.80609 40.6643C4.28489 39.1026 6.19375 38.3217 8.53266 38.3217C10.0643 38.3217 11.445 38.6876 12.6748 39.4194C13.9046 40.1513 14.8402 41.1736 15.4815 42.4864C16.1304 43.7917 16.4548 45.2743 16.4548 46.9341C16.4548 48.6167 16.1153 50.1219 15.4362 51.4498C14.7572 52.7777 13.7952 53.7849 12.5503 54.4715C11.3054 55.1505 9.96242 55.4901 8.52134 55.4901C6.95955 55.4901 5.56375 55.1128 4.33393 54.3583C3.10411 53.6038 2.17232 52.574 1.53855 51.2687C0.904776 49.9634 0.587891 48.5827 0.587891 47.1265ZM2.85136 47.1605C2.85136 49.1599 3.38705 50.7368 4.45842 51.8911C5.53734 53.038 6.88788 53.6114 8.51003 53.6114C10.1624 53.6114 11.5204 53.0304 12.5843 51.8685C13.6556 50.7066 14.1913 49.058 14.1913 46.9228C14.1913 45.5723 13.9612 44.3953 13.501 43.3918C13.0483 42.3808 12.3806 41.5999 11.4978 41.0491C10.6226 40.4908 9.63799 40.2117 8.54398 40.2117C6.98973 40.2117 5.65051 40.7473 4.52632 41.8187C3.40968 42.8825 2.85136 44.6631 2.85136 47.1605Z" fill="white"/>
<path d="M99.2484 62.1438L99.3112 62.5279C99.1888 62.5536 99.0793 62.5665 98.9826 62.5665C98.8248 62.5665 98.7024 62.5416 98.6154 62.4916C98.5285 62.4417 98.4673 62.3765 98.4318 62.296C98.3964 62.2138 98.3787 62.0423 98.3787 61.7814V60.3054H98.0598V59.9672H98.3787V59.3319L98.8111 59.071V59.9672H99.2484V60.3054H98.8111V61.8056C98.8111 61.9296 98.8184 62.0093 98.8328 62.0447C98.849 62.0802 98.8739 62.1084 98.9077 62.1293C98.9432 62.1502 98.9931 62.1607 99.0575 62.1607C99.1058 62.1607 99.1694 62.1551 99.2484 62.1438Z" fill="white"/>
<path d="M97.1998 59.4914V58.9913H97.6347V59.4914H97.1998ZM97.1998 62.5327V59.9672H97.6347V62.5327H97.1998Z" fill="white"/>
<path d="M94.7262 62.5327V58.9913H95.161V61.0108L96.1901 59.9672H96.7529L95.7722 60.919L96.852 62.5327H96.3157L95.4678 61.221L95.161 61.5157V62.5327H94.7262Z" fill="white"/>
<path d="M93.6125 62.5327V58.9913H94.0474V62.5327H93.6125Z" fill="white"/>
<path d="M90.7065 61.25C90.7065 60.7749 90.8385 60.423 91.1026 60.1943C91.3233 60.0043 91.5922 59.9093 91.9095 59.9093C92.2622 59.9093 92.5504 60.0252 92.7743 60.2571C92.9982 60.4874 93.1101 60.8063 93.1101 61.2137C93.1101 61.5439 93.0602 61.804 92.9603 61.994C92.8621 62.1824 92.7179 62.329 92.5279 62.4337C92.3395 62.5383 92.1333 62.5907 91.9095 62.5907C91.5504 62.5907 91.2597 62.4755 91.0374 62.2452C90.8168 62.0149 90.7065 61.6832 90.7065 61.25ZM91.1534 61.25C91.1534 61.5785 91.225 61.8249 91.3684 61.9892C91.5117 62.1518 91.6921 62.2332 91.9095 62.2332C92.1253 62.2332 92.3049 62.151 92.4482 61.9868C92.5915 61.8225 92.6632 61.5721 92.6632 61.2355C92.6632 60.9182 92.5907 60.6783 92.4458 60.5156C92.3024 60.3513 92.1237 60.2692 91.9095 60.2692C91.6921 60.2692 91.5117 60.3505 91.3684 60.5132C91.225 60.6758 91.1534 60.9214 91.1534 61.25Z" fill="white"/>
<path d="M87.9526 61.25C87.9526 60.7749 88.0846 60.423 88.3488 60.1943C88.5694 60.0043 88.8383 59.9093 89.1556 59.9093C89.5083 59.9093 89.7966 60.0252 90.0204 60.2571C90.2443 60.4874 90.3562 60.8063 90.3562 61.2137C90.3562 61.5439 90.3063 61.804 90.2064 61.994C90.1082 62.1824 89.9641 62.329 89.774 62.4337C89.5856 62.5383 89.3795 62.5907 89.1556 62.5907C88.7965 62.5907 88.5058 62.4755 88.2835 62.2452C88.0629 62.0149 87.9526 61.6832 87.9526 61.25ZM88.3995 61.25C88.3995 61.5785 88.4712 61.8249 88.6145 61.9892C88.7578 62.1518 88.9382 62.2332 89.1556 62.2332C89.3714 62.2332 89.551 62.151 89.6943 61.9868C89.8376 61.8225 89.9093 61.5721 89.9093 61.2355C89.9093 60.9182 89.8368 60.6783 89.6919 60.5156C89.5486 60.3513 89.3698 60.2692 89.1556 60.2692C88.9382 60.2692 88.7578 60.3505 88.6145 60.5132C88.4712 60.6758 88.3995 60.9214 88.3995 61.25Z" fill="white"/>
<path d="M86.5974 62.5327V59.4092H85.4306V58.9913H88.2376V59.4092H87.066V62.5327H86.5974Z" fill="white"/>
<path d="M80.9519 61.3949L81.394 61.3563C81.4149 61.5334 81.4632 61.6792 81.5389 61.7935C81.6162 61.9062 81.7354 61.998 81.8965 62.0689C82.0575 62.1381 82.2387 62.1728 82.44 62.1728C82.6187 62.1728 82.7766 62.1462 82.9135 62.0931C83.0503 62.0399 83.1518 61.9674 83.2178 61.8756C83.2855 61.7822 83.3193 61.6808 83.3193 61.5713C83.3193 61.4601 83.2871 61.3635 83.2227 61.2814C83.1582 61.1976 83.052 61.1276 82.9038 61.0712C82.8088 61.0342 82.5986 60.977 82.2733 60.8997C81.948 60.8208 81.7201 60.7467 81.5897 60.6775C81.4206 60.5889 81.2941 60.4794 81.2104 60.3489C81.1283 60.2169 81.0872 60.0695 81.0872 59.9069C81.0872 59.7281 81.1379 59.5614 81.2394 59.4068C81.3408 59.2506 81.489 59.1322 81.6839 59.0517C81.8787 58.9712 82.0953 58.9309 82.3337 58.9309C82.5962 58.9309 82.8273 58.9736 83.027 59.0589C83.2283 59.1427 83.3829 59.2667 83.4908 59.431C83.5987 59.5952 83.6567 59.7812 83.6647 59.989L83.2154 60.0228C83.1913 59.799 83.1091 59.6299 82.969 59.5155C82.8305 59.4012 82.6252 59.344 82.353 59.344C82.0696 59.344 81.8626 59.3963 81.7322 59.501C81.6033 59.6041 81.5389 59.7289 81.5389 59.8755C81.5389 60.0027 81.5848 60.1074 81.6766 60.1895C81.7668 60.2716 82.0019 60.3562 82.382 60.4431C82.7637 60.5285 83.0254 60.6034 83.1671 60.6678C83.3732 60.7628 83.5254 60.8836 83.6237 61.0302C83.7219 61.1751 83.771 61.3426 83.771 61.5326C83.771 61.721 83.7171 61.899 83.6092 62.0665C83.5013 62.2324 83.3459 62.362 83.143 62.4554C82.9416 62.5472 82.7146 62.5931 82.4617 62.5931C82.1412 62.5931 81.8723 62.5464 81.6549 62.453C81.4391 62.3596 81.2692 62.2195 81.1452 62.0327C81.0228 61.8442 80.9584 61.6317 80.9519 61.3949Z" fill="white"/>
<path d="M78.3381 62.5327V58.9913H78.8068V62.1148H80.5509V62.5327H78.3381Z" fill="white"/>
<path d="M76.2341 62.5327V59.4092H75.0673V58.9913H77.8743V59.4092H76.7027V62.5327H76.2341Z" fill="white"/>
<path d="M73.5744 62.5931L74.6011 58.9309H74.9489L73.9247 62.5931H73.5744Z" fill="white"/>
<path d="M71.1829 62.5327V58.9913H71.6515V62.1148H73.3956V62.5327H71.1829Z" fill="white"/>
<path d="M67.7429 61.3949L68.185 61.3563C68.2059 61.5334 68.2542 61.6792 68.3299 61.7935C68.4072 61.9062 68.5264 61.998 68.6875 62.0689C68.8485 62.1381 69.0297 62.1728 69.231 62.1728C69.4098 62.1728 69.5676 62.1462 69.7045 62.0931C69.8414 62.0399 69.9428 61.9674 70.0089 61.8756C70.0765 61.7822 70.1103 61.6808 70.1103 61.5713C70.1103 61.4601 70.0781 61.3635 70.0137 61.2814C69.9493 61.1976 69.843 61.1276 69.6948 61.0712C69.5998 61.0342 69.3896 60.977 69.0643 60.8997C68.739 60.8208 68.5111 60.7467 68.3807 60.6775C68.2116 60.5889 68.0852 60.4794 68.0014 60.3489C67.9193 60.2169 67.8782 60.0695 67.8782 59.9069C67.8782 59.7281 67.9289 59.5614 68.0304 59.4068C68.1319 59.2506 68.28 59.1322 68.4749 59.0517C68.6698 58.9712 68.8864 58.9309 69.1247 58.9309C69.3872 58.9309 69.6183 58.9736 69.818 59.0589C70.0193 59.1427 70.1739 59.2667 70.2818 59.431C70.3897 59.5952 70.4477 59.7812 70.4557 59.989L70.0064 60.0228C69.9823 59.799 69.9001 59.6299 69.76 59.5155C69.6215 59.4012 69.4162 59.344 69.144 59.344C68.8606 59.344 68.6536 59.3963 68.5232 59.501C68.3944 59.6041 68.3299 59.7289 68.3299 59.8755C68.3299 60.0027 68.3758 60.1074 68.4676 60.1895C68.5578 60.2716 68.793 60.3562 69.173 60.4431C69.5547 60.5285 69.8164 60.6034 69.9581 60.6678C70.1643 60.7628 70.3164 60.8836 70.4147 61.0302C70.5129 61.1751 70.562 61.3426 70.562 61.5326C70.562 61.721 70.5081 61.899 70.4002 62.0665C70.2923 62.2324 70.1369 62.362 69.934 62.4554C69.7327 62.5472 69.5056 62.5931 69.2527 62.5931C68.9323 62.5931 68.6633 62.5464 68.4459 62.453C68.2301 62.3596 68.0602 62.2195 67.9362 62.0327C67.8138 61.8442 67.7494 61.6317 67.7429 61.3949Z" fill="white"/>
<path d="M64.4431 61.3949L64.8852 61.3563C64.9061 61.5334 64.9544 61.6792 65.0301 61.7935C65.1074 61.9062 65.2266 61.998 65.3876 62.0689C65.5487 62.1381 65.7299 62.1728 65.9312 62.1728C66.1099 62.1728 66.2678 62.1462 66.4046 62.0931C66.5415 62.0399 66.643 61.9674 66.709 61.8756C66.7767 61.7822 66.8105 61.6808 66.8105 61.5713C66.8105 61.4601 66.7783 61.3635 66.7139 61.2814C66.6494 61.1976 66.5431 61.1276 66.395 61.0712C66.3 61.0342 66.0898 60.977 65.7645 60.8997C65.4392 60.8208 65.2113 60.7467 65.0808 60.6775C64.9117 60.5889 64.7853 60.4794 64.7016 60.3489C64.6194 60.2169 64.5784 60.0695 64.5784 59.9069C64.5784 59.7281 64.6291 59.5614 64.7306 59.4068C64.832 59.2506 64.9802 59.1322 65.1751 59.0517C65.3699 58.9712 65.5865 58.9309 65.8249 58.9309C66.0874 58.9309 66.3185 58.9736 66.5182 59.0589C66.7195 59.1427 66.8741 59.2667 66.982 59.431C67.0899 59.5952 67.1479 59.7812 67.1559 59.989L66.7066 60.0228C66.6824 59.799 66.6003 59.6299 66.4602 59.5155C66.3217 59.4012 66.1164 59.344 65.8442 59.344C65.5608 59.344 65.3538 59.3963 65.2234 59.501C65.0945 59.6041 65.0301 59.7289 65.0301 59.8755C65.0301 60.0027 65.076 60.1074 65.1678 60.1895C65.258 60.2716 65.4931 60.3562 65.8732 60.4431C66.2549 60.5285 66.5166 60.6034 66.6583 60.6678C66.8644 60.7628 67.0166 60.8836 67.1149 61.0302C67.2131 61.1751 67.2622 61.3426 67.2622 61.5326C67.2622 61.721 67.2083 61.899 67.1004 62.0665C66.9925 62.2324 66.8371 62.362 66.6341 62.4554C66.4328 62.5472 66.2057 62.5931 65.9529 62.5931C65.6324 62.5931 65.3635 62.5464 65.1461 62.453C64.9303 62.3596 64.7604 62.2195 64.6364 62.0327C64.514 61.8442 64.4495 61.6317 64.4431 61.3949Z" fill="white"/>
<path d="M62.0806 62.5327V62.209C61.9179 62.4635 61.6787 62.5907 61.3631 62.5907C61.1586 62.5907 60.9701 62.5343 60.7978 62.4216C60.6271 62.3089 60.4943 62.1518 60.3992 61.9505C60.3058 61.7476 60.2591 61.5149 60.2591 61.2524C60.2591 60.9963 60.3018 60.7644 60.3872 60.5567C60.4725 60.3473 60.6005 60.1871 60.7713 60.076C60.942 59.9648 61.1328 59.9093 61.3438 59.9093C61.4984 59.9093 61.6361 59.9423 61.7569 60.0083C61.8776 60.0727 61.9759 60.1573 62.0516 60.262V58.9913H62.484V62.5327H62.0806ZM60.706 61.2524C60.706 61.5809 60.7753 61.8265 60.9138 61.9892C61.0523 62.1518 61.2157 62.2332 61.4042 62.2332C61.5942 62.2332 61.7552 62.1559 61.8873 62.0013C62.021 61.845 62.0878 61.6075 62.0878 61.2886C62.0878 60.9375 62.0202 60.6799 61.8849 60.5156C61.7496 60.3513 61.5829 60.2692 61.3848 60.2692C61.1916 60.2692 61.0297 60.3481 60.8993 60.5059C60.7704 60.6638 60.706 60.9126 60.706 61.2524Z" fill="white"/>
<path d="M57.6623 62.5327V59.9672H58.0536V60.332C58.242 60.0502 58.5142 59.9093 58.8701 59.9093C59.0247 59.9093 59.1664 59.9375 59.2953 59.9938C59.4257 60.0486 59.5231 60.121 59.5876 60.2112C59.652 60.3014 59.6971 60.4085 59.7228 60.5325C59.7389 60.613 59.747 60.754 59.747 60.9553V62.5327H59.3122V60.9722C59.3122 60.795 59.2953 60.663 59.2614 60.576C59.2276 60.4874 59.1672 60.4174 59.0803 60.3658C58.9949 60.3127 58.8943 60.2861 58.7783 60.2861C58.5931 60.2861 58.4329 60.3449 58.2976 60.4625C58.1639 60.58 58.0971 60.8031 58.0971 61.1316V62.5327H57.6623Z" fill="white"/>
<path d="M56.5824 62.2163C56.4214 62.3531 56.266 62.4498 56.1162 62.5061C55.9681 62.5625 55.8086 62.5907 55.6379 62.5907C55.3561 62.5907 55.1395 62.5222 54.9881 62.3854C54.8367 62.2469 54.761 62.0705 54.761 61.8563C54.761 61.7307 54.7892 61.6164 54.8456 61.5133C54.9035 61.4086 54.9784 61.3249 55.0702 61.2621C55.1636 61.1992 55.2683 61.1517 55.3843 61.1195C55.4696 61.097 55.5985 61.0752 55.7708 61.0543C56.1219 61.0124 56.3803 60.9625 56.5462 60.9045C56.5478 60.8449 56.5486 60.8071 56.5486 60.791C56.5486 60.6138 56.5076 60.489 56.4254 60.4166C56.3143 60.3183 56.1492 60.2692 55.9302 60.2692C55.7257 60.2692 55.5743 60.3054 55.4761 60.3779C55.3794 60.4488 55.3078 60.5752 55.2611 60.7572L54.8359 60.6992C54.8746 60.5172 54.9382 60.3707 55.0267 60.2595C55.1153 60.1468 55.2434 60.0607 55.4108 60.0011C55.5783 59.9399 55.7724 59.9093 55.993 59.9093C56.212 59.9093 56.39 59.935 56.5269 59.9866C56.6638 60.0381 56.7644 60.1033 56.8288 60.1822C56.8933 60.2595 56.9384 60.3578 56.9641 60.477C56.9786 60.551 56.9859 60.6847 56.9859 60.878V61.4577C56.9859 61.862 56.9947 62.118 57.0124 62.2259C57.0318 62.3322 57.0688 62.4345 57.1236 62.5327H56.6694C56.6243 62.4425 56.5953 62.337 56.5824 62.2163ZM56.5462 61.2451C56.3884 61.3096 56.1516 61.3643 55.836 61.4094C55.6572 61.4352 55.5308 61.4642 55.4567 61.4964C55.3827 61.5286 55.3255 61.5761 55.2852 61.6389C55.245 61.7001 55.2248 61.7685 55.2248 61.8442C55.2248 61.9602 55.2683 62.0568 55.3553 62.1341C55.4439 62.2114 55.5727 62.2501 55.7418 62.2501C55.9093 62.2501 56.0582 62.2138 56.1887 62.1414C56.3191 62.0673 56.415 61.9666 56.4762 61.8394C56.5229 61.7412 56.5462 61.5962 56.5462 61.4046V61.2451Z" fill="white"/>
<path d="M51.0384 63.5207L50.9901 63.1125C51.0851 63.1382 51.1681 63.1511 51.2389 63.1511C51.3356 63.1511 51.4129 63.135 51.4709 63.1028C51.5288 63.0706 51.5763 63.0255 51.6134 62.9675C51.6408 62.9241 51.685 62.8162 51.7462 62.6438C51.7543 62.6197 51.7672 62.5842 51.7849 62.5375L50.8114 59.9672H51.28L51.8139 61.4529C51.8831 61.6413 51.9451 61.8394 51.9999 62.0472C52.0498 61.8475 52.1094 61.6526 52.1786 61.4626L52.727 59.9672H53.1618L52.1859 62.5762C52.0812 62.858 51.9999 63.0521 51.9419 63.1584C51.8646 63.3017 51.776 63.4064 51.6762 63.4724C51.5763 63.5401 51.4572 63.5739 51.3187 63.5739C51.2349 63.5739 51.1415 63.5562 51.0384 63.5207Z" fill="white"/>
<path d="M48.3039 62.5327V58.9913H48.7387V60.262C48.9416 60.0268 49.1977 59.9093 49.5069 59.9093C49.6969 59.9093 49.862 59.9471 50.0021 60.0228C50.1422 60.0969 50.2421 60.2 50.3017 60.332C50.3629 60.4641 50.3935 60.6557 50.3935 60.907V62.5327H49.9586V60.907C49.9586 60.6895 49.9111 60.5317 49.8161 60.4335C49.7227 60.3336 49.5898 60.2837 49.4175 60.2837C49.2887 60.2837 49.1671 60.3175 49.0527 60.3852C48.94 60.4512 48.8595 60.5414 48.8112 60.6557C48.7629 60.7701 48.7387 60.9279 48.7387 61.1292V62.5327H48.3039Z" fill="white"/>
<path d="M45.55 63.5159V59.9672H45.9462V60.3006C46.0396 60.1702 46.1451 60.0727 46.2626 60.0083C46.3802 59.9423 46.5227 59.9093 46.6902 59.9093C46.9092 59.9093 47.1025 59.9656 47.27 60.0784C47.4375 60.1911 47.5639 60.3505 47.6492 60.5567C47.7346 60.7612 47.7773 60.9859 47.7773 61.2307C47.7773 61.4932 47.7298 61.7299 47.6347 61.9409C47.5413 62.1502 47.4044 62.3113 47.2241 62.424C47.0453 62.5351 46.8569 62.5907 46.6588 62.5907C46.5139 62.5907 46.3834 62.5601 46.2675 62.4989C46.1531 62.4377 46.0589 62.3604 45.9848 62.267V63.5159H45.55ZM45.9438 61.2645C45.9438 61.5946 46.0106 61.8386 46.1443 61.9964C46.2779 62.1543 46.4398 62.2332 46.6298 62.2332C46.8231 62.2332 46.9881 62.1518 47.125 61.9892C47.2635 61.8249 47.3328 61.5713 47.3328 61.2282C47.3328 60.9013 47.2651 60.6565 47.1299 60.4939C46.9962 60.3312 46.8359 60.2499 46.6491 60.2499C46.4639 60.2499 46.2997 60.3368 46.1563 60.5108C46.0146 60.6831 45.9438 60.9343 45.9438 61.2645Z" fill="white"/>
<path d="M44.4702 62.2163C44.3091 62.3531 44.1537 62.4498 44.004 62.5061C43.8558 62.5625 43.6964 62.5907 43.5257 62.5907C43.2438 62.5907 43.0272 62.5222 42.8758 62.3854C42.7244 62.2469 42.6488 62.0705 42.6488 61.8563C42.6488 61.7307 42.6769 61.6164 42.7333 61.5133C42.7913 61.4086 42.8662 61.3249 42.958 61.2621C43.0514 61.1992 43.156 61.1517 43.272 61.1195C43.3574 61.097 43.4862 61.0752 43.6585 61.0543C44.0096 61.0124 44.2681 60.9625 44.4339 60.9045C44.4356 60.8449 44.4364 60.8071 44.4364 60.791C44.4364 60.6138 44.3953 60.489 44.3132 60.4166C44.202 60.3183 44.037 60.2692 43.8179 60.2692C43.6134 60.2692 43.462 60.3054 43.3638 60.3779C43.2672 60.4488 43.1955 60.5752 43.1488 60.7572L42.7236 60.6992C42.7623 60.5172 42.8259 60.3707 42.9145 60.2595C43.0031 60.1468 43.1311 60.0607 43.2986 60.0011C43.4661 59.9399 43.6601 59.9093 43.8808 59.9093C44.0998 59.9093 44.2777 59.935 44.4146 59.9866C44.5515 60.0381 44.6522 60.1033 44.7166 60.1822C44.781 60.2595 44.8261 60.3578 44.8519 60.477C44.8664 60.551 44.8736 60.6847 44.8736 60.878V61.4577C44.8736 61.862 44.8825 62.118 44.9002 62.2259C44.9195 62.3322 44.9565 62.4345 45.0113 62.5327H44.5571C44.5121 62.4425 44.4831 62.337 44.4702 62.2163ZM44.4339 61.2451C44.2761 61.3096 44.0394 61.3643 43.7237 61.4094C43.545 61.4352 43.4186 61.4642 43.3445 61.4964C43.2704 61.5286 43.2132 61.5761 43.173 61.6389C43.1327 61.7001 43.1126 61.7685 43.1126 61.8442C43.1126 61.9602 43.156 62.0568 43.243 62.1341C43.3316 62.2114 43.4604 62.2501 43.6295 62.2501C43.797 62.2501 43.946 62.2138 44.0764 62.1414C44.2069 62.0673 44.3027 61.9666 44.3639 61.8394C44.4106 61.7412 44.4339 61.5962 44.4339 61.4046V61.2451Z" fill="white"/>
<path d="M41.1438 62.5327V59.9672H41.5351V60.3562C41.635 60.1742 41.7268 60.0542 41.8105 59.9962C41.8959 59.9383 41.9893 59.9093 42.0907 59.9093C42.2373 59.9093 42.3862 59.956 42.5376 60.0494L42.3879 60.4528C42.2816 60.39 42.1753 60.3586 42.069 60.3586C41.974 60.3586 41.8886 60.3876 41.8129 60.4456C41.7372 60.5019 41.6833 60.5808 41.6511 60.6823C41.6028 60.8369 41.5786 61.006 41.5786 61.1896V62.5327H41.1438Z" fill="white"/>
<path d="M38.315 62.7453L38.7378 62.8081C38.7555 62.9385 38.8046 63.0336 38.8851 63.0932C38.993 63.1737 39.1404 63.2139 39.3272 63.2139C39.5285 63.2139 39.6839 63.1737 39.7934 63.0932C39.9029 63.0126 39.977 62.8999 40.0157 62.755C40.0382 62.6664 40.0487 62.4804 40.0471 62.1969C39.857 62.4208 39.6203 62.5327 39.3368 62.5327C38.9842 62.5327 38.7112 62.4055 38.5179 62.151C38.3247 61.8966 38.228 61.5914 38.228 61.2355C38.228 60.9907 38.2723 60.7652 38.3609 60.5591C38.4495 60.3513 38.5775 60.1911 38.745 60.0784C38.9141 59.9656 39.1122 59.9093 39.3393 59.9093C39.642 59.9093 39.8916 60.0317 40.0881 60.2765V59.9672H40.4891V62.1849C40.4891 62.5842 40.4481 62.8669 40.3659 63.0328C40.2854 63.2002 40.1566 63.3323 39.9794 63.4289C39.8039 63.5256 39.5873 63.5739 39.3296 63.5739C39.0236 63.5739 38.7764 63.5046 38.588 63.3661C38.3996 63.2292 38.3086 63.0223 38.315 62.7453ZM38.6749 61.2041C38.6749 61.5407 38.7418 61.7863 38.8754 61.9409C39.0091 62.0955 39.1766 62.1728 39.3779 62.1728C39.5776 62.1728 39.7451 62.0963 39.8804 61.9433C40.0157 61.7887 40.0833 61.5471 40.0833 61.2186C40.0833 60.9045 40.0132 60.6678 39.8731 60.5084C39.7346 60.3489 39.5671 60.2692 39.3707 60.2692C39.1774 60.2692 39.0131 60.3481 38.8779 60.5059C38.7426 60.6622 38.6749 60.8949 38.6749 61.2041Z" fill="white"/>
<path d="M35.479 61.25C35.479 60.7749 35.611 60.423 35.8752 60.1943C36.0958 60.0043 36.3647 59.9093 36.682 59.9093C37.0347 59.9093 37.323 60.0252 37.5468 60.2571C37.7707 60.4874 37.8826 60.8063 37.8826 61.2137C37.8826 61.5439 37.8327 61.804 37.7328 61.994C37.6346 62.1824 37.4905 62.329 37.3004 62.4337C37.112 62.5383 36.9059 62.5907 36.682 62.5907C36.3229 62.5907 36.0322 62.4755 35.8099 62.2452C35.5893 62.0149 35.479 61.6832 35.479 61.25ZM35.9259 61.25C35.9259 61.5785 35.9976 61.8249 36.1409 61.9892C36.2842 62.1518 36.4646 62.2332 36.682 62.2332C36.8978 62.2332 37.0774 62.151 37.2207 61.9868C37.364 61.8225 37.4357 61.5721 37.4357 61.2355C37.4357 60.9182 37.3632 60.6783 37.2183 60.5156C37.075 60.3513 36.8962 60.2692 36.682 60.2692C36.4646 60.2692 36.2842 60.3505 36.1409 60.5132C35.9976 60.6758 35.9259 60.9214 35.9259 61.25Z" fill="white"/>
<path d="M35.2133 62.1438L35.2761 62.5279C35.1537 62.5536 35.0442 62.5665 34.9475 62.5665C34.7897 62.5665 34.6673 62.5416 34.5804 62.4916C34.4934 62.4417 34.4322 62.3765 34.3968 62.296C34.3613 62.2138 34.3436 62.0423 34.3436 61.7814V60.3054H34.0247V59.9672H34.3436V59.3319L34.776 59.071V59.9672H35.2133V60.3054H34.776V61.8056C34.776 61.9296 34.7833 62.0093 34.7978 62.0447C34.8139 62.0802 34.8388 62.1084 34.8727 62.1293C34.9081 62.1502 34.958 62.1607 35.0224 62.1607C35.0707 62.1607 35.1343 62.1551 35.2133 62.1438Z" fill="white"/>
<path d="M31.51 63.5159V59.9672H31.9062V60.3006C31.9996 60.1702 32.1051 60.0727 32.2226 60.0083C32.3402 59.9423 32.4827 59.9093 32.6502 59.9093C32.8692 59.9093 33.0625 59.9656 33.23 60.0784C33.3975 60.1911 33.5239 60.3505 33.6092 60.5567C33.6946 60.7612 33.7373 60.9859 33.7373 61.2307C33.7373 61.4932 33.6898 61.7299 33.5948 61.9409C33.5013 62.1502 33.3645 62.3113 33.1841 62.424C33.0053 62.5351 32.8169 62.5907 32.6188 62.5907C32.4739 62.5907 32.3434 62.5601 32.2275 62.4989C32.1131 62.4377 32.0189 62.3604 31.9448 62.267V63.5159H31.51ZM31.9038 61.2645C31.9038 61.5946 31.9706 61.8386 32.1043 61.9964C32.2379 62.1543 32.3998 62.2332 32.5898 62.2332C32.7831 62.2332 32.9482 62.1518 33.085 61.9892C33.2235 61.8249 33.2928 61.5713 33.2928 61.2282C33.2928 60.9013 33.2252 60.6565 33.0899 60.4939C32.9562 60.3312 32.796 60.2499 32.6091 60.2499C32.4239 60.2499 32.2597 60.3368 32.1164 60.5108C31.9746 60.6831 31.9038 60.9343 31.9038 61.2645Z" fill="white"/>
<path d="M29.017 63.5207L28.9687 63.1125C29.0637 63.1382 29.1467 63.1511 29.2175 63.1511C29.3142 63.1511 29.3915 63.135 29.4494 63.1028C29.5074 63.0706 29.5549 63.0255 29.592 62.9675C29.6193 62.9241 29.6636 62.8162 29.7248 62.6438C29.7329 62.6197 29.7458 62.5842 29.7635 62.5375L28.7899 59.9672H29.2586L29.7925 61.4529C29.8617 61.6413 29.9237 61.8394 29.9785 62.0472C30.0284 61.8475 30.088 61.6526 30.1572 61.4626L30.7056 59.9672H31.1404L30.1645 62.5762C30.0598 62.858 29.9785 63.0521 29.9205 63.1584C29.8432 63.3017 29.7546 63.4064 29.6548 63.4724C29.5549 63.5401 29.4357 63.5739 29.2972 63.5739C29.2135 63.5739 29.1201 63.5562 29.017 63.5207Z" fill="white"/>
<path d="M27.384 62.5327V59.9672H27.7754V60.3562C27.8752 60.1742 27.967 60.0542 28.0507 59.9962C28.1361 59.9383 28.2295 59.9093 28.331 59.9093C28.4775 59.9093 28.6265 59.956 28.7779 60.0494L28.6281 60.4528C28.5218 60.39 28.4155 60.3586 28.3092 60.3586C28.2142 60.3586 28.1289 60.3876 28.0532 60.4456C27.9775 60.5019 27.9235 60.5808 27.8913 60.6823C27.843 60.8369 27.8188 61.006 27.8188 61.1896V62.5327H27.384Z" fill="white"/>
<path d="M26.396 61.291L26.8646 61.4094C26.7664 61.7943 26.5893 62.0882 26.3332 62.2911C26.0787 62.4924 25.7671 62.5931 25.3983 62.5931C25.0166 62.5931 24.7058 62.5158 24.4659 62.3612C24.2275 62.205 24.0455 61.9795 23.9199 61.6848C23.7959 61.3901 23.7339 61.0736 23.7339 60.7354C23.7339 60.3666 23.804 60.0454 23.9441 59.7716C24.0858 59.4962 24.2863 59.2876 24.5456 59.1459C24.8065 59.0026 25.0931 58.9309 25.4056 58.9309C25.7599 58.9309 26.0578 59.0211 26.2994 59.2015C26.5409 59.3818 26.7092 59.6355 26.8043 59.9624L26.3429 60.0711C26.2607 59.8134 26.1415 59.6258 25.9853 59.5083C25.8291 59.3907 25.6326 59.3319 25.3959 59.3319C25.1237 59.3319 24.8959 59.3971 24.7123 59.5276C24.5303 59.658 24.4023 59.8336 24.3282 60.0542C24.2541 60.2732 24.217 60.4995 24.217 60.733C24.217 61.0342 24.2605 61.2975 24.3475 61.523C24.4361 61.7468 24.573 61.9143 24.7582 62.0254C24.9434 62.1365 25.1439 62.1921 25.3597 62.1921C25.6222 62.1921 25.8444 62.1164 26.0264 61.965C26.2084 61.8136 26.3316 61.589 26.396 61.291Z" fill="white"/>
</g>
<defs>
<clipPath id="clip0_2336_13350">
<rect width="100" height="100" fill="white" transform="translate(0.587891 0.947754)"/>
</clipPath>
</defs>
</svg>
