<svg width="101" height="101" viewBox="0 0 101 101" fill="none" xmlns="http://www.w3.org/2000/svg">
<g clip-path="url(#clip0_2336_13344)">
<path d="M49.9292 42.2341C49.9943 42.2621 50.0594 42.2901 50.1265 42.3189C51.7804 43.0812 53.3904 44.6544 54.1503 46.3071C54.1682 46.2195 54.1862 46.1318 54.2047 46.0416C54.531 44.4846 55.1574 43.2492 56.4584 42.2819C58.0495 41.2489 60.1146 41.0774 61.9491 41.4612C63.1761 41.7489 64.2531 42.3503 65.1843 43.1968C65.1458 43.4961 65.0721 43.6429 64.8621 43.8578C64.8112 43.9108 64.7603 43.9637 64.7079 44.0182C64.6543 44.0725 64.6008 44.1268 64.5456 44.1827C64.4412 44.2903 64.3368 44.398 64.2326 44.5058C64.1812 44.5589 64.1298 44.6119 64.0769 44.6666C63.7844 44.9745 63.5072 45.2948 63.2398 45.6247C63.1942 45.6804 63.1486 45.736 63.1016 45.7934C63.0555 45.8507 63.0095 45.9081 62.9621 45.9672C62.8146 46.085 62.8146 46.085 62.6491 46.0861C62.3642 45.9815 62.1073 45.8391 61.8426 45.6915C61.0812 45.2809 60.375 44.905 59.4822 45.0482C58.9822 45.2399 58.7407 45.5758 58.501 46.0433C58.367 46.5011 58.4572 46.8349 58.6479 47.2542C59.1662 48.1597 60.2995 48.5593 61.2148 48.9591C62.2013 49.3903 63.1725 49.8274 63.9995 50.5282C64.0728 50.5771 64.1461 50.6259 64.2216 50.6763C64.2216 50.7252 64.2216 50.774 64.2216 50.8244C64.2705 50.8244 64.3194 50.8244 64.3697 50.8244C65.5723 52.1617 65.819 53.5984 65.7767 55.3417C66.1433 54.9018 66.1433 54.9018 66.5173 54.453C66.9159 54.5328 66.9829 54.5904 67.2578 54.865C68.0321 55.5933 68.9739 56.1839 70.0719 56.1563C70.6928 56.0425 71.1504 55.7413 71.5067 55.226C71.7522 54.8472 71.8129 54.5356 71.7751 54.0828C71.5834 53.4364 71.0417 53.0151 70.4745 52.6943C70.3657 52.6374 70.256 52.5821 70.1459 52.5276C70.0206 52.4613 70.0206 52.4613 69.8928 52.3937C69.3698 52.1323 68.8133 51.9419 68.2662 51.7375C66.8774 51.205 65.7795 50.455 65.1288 49.0841C64.5258 47.678 64.4952 46.118 65.0177 44.6733C65.559 43.4013 66.5665 42.3534 67.8251 41.773C68.7018 41.4348 69.5945 41.3051 70.5301 41.3131C70.6235 41.3137 70.7169 41.3143 70.8132 41.315C72.7142 41.3491 74.231 42.0036 75.7 43.1968C75.6622 43.5119 75.4823 43.6714 75.2695 43.8957C75.1952 43.9749 75.1208 44.0541 75.0465 44.1332C74.9885 44.1945 74.9885 44.1945 74.9292 44.2569C74.737 44.4604 74.5475 44.6664 74.3577 44.8723C74.3025 44.932 74.3025 44.932 74.2462 44.993C73.9128 45.3539 73.5837 45.7186 73.2562 46.085C73.0445 46.0395 72.8752 45.9744 72.6869 45.8683C72.6356 45.8399 72.5843 45.8116 72.5315 45.7824C72.4774 45.7524 72.4233 45.7224 72.3675 45.6915C71.5928 45.2747 70.828 44.9013 69.9238 45.0482C69.5015 45.2103 69.2514 45.4648 69.0351 45.8628C68.8932 46.2885 68.8841 46.7878 69.0629 47.205C69.5859 48.0814 70.5122 48.438 71.4048 48.8249C73.3714 49.6789 74.7416 50.4432 75.8481 52.3795C75.8725 48.8116 75.8969 45.2437 75.9221 41.5677C77.6435 41.5661 79.3648 41.5646 81.1383 41.563C81.955 41.562 81.955 41.562 82.7881 41.561C83.4506 41.5607 83.4506 41.5607 83.7603 41.5606C83.9776 41.5605 84.1948 41.5602 84.4121 41.5598C84.6888 41.5593 84.9654 41.5592 85.2421 41.5593C85.3922 41.5593 85.5423 41.5589 85.6924 41.5585C85.7802 41.5586 85.868 41.5587 85.9584 41.5588C86.0354 41.5587 86.1123 41.5586 86.1915 41.5586C86.3637 41.5677 86.3637 41.5677 86.4378 41.6417C86.4451 41.755 86.4473 41.8686 86.4474 41.982C86.4477 42.0907 86.4477 42.0907 86.4481 42.2015C86.4479 42.2802 86.4478 42.359 86.4476 42.4401C86.4477 42.5204 86.4478 42.6006 86.4478 42.6833C86.4479 42.8534 86.4477 43.0235 86.4474 43.1936C86.447 43.4549 86.4474 43.7162 86.4479 43.9776C86.4479 44.1424 86.4478 44.3072 86.4476 44.472C86.4478 44.5507 86.4479 44.6295 86.4481 44.7106C86.4478 44.783 86.4476 44.8554 86.4474 44.93C86.4473 45.0261 86.4473 45.0261 86.4472 45.1242C86.4378 45.2704 86.4378 45.2704 86.3637 45.3444C86.1677 45.3515 85.9736 45.3537 85.7775 45.3528C85.7161 45.3528 85.6547 45.3528 85.5914 45.3529C85.3875 45.3528 85.1835 45.3522 84.9796 45.3516C84.8385 45.3515 84.6975 45.3514 84.5565 45.3513C84.1846 45.351 83.8126 45.3503 83.4407 45.3495C82.9949 45.3486 82.549 45.3483 82.1032 45.3478C81.4252 45.3471 80.7472 45.3457 80.0691 45.3444C80.0691 46.5174 80.0691 47.6904 80.0691 48.899C82.0486 48.899 84.0281 48.899 86.0675 48.899C86.0698 49.8131 86.0698 49.8131 86.0721 50.7457C86.0728 50.9384 86.0735 51.131 86.0742 51.3295C86.0744 51.4811 86.0746 51.6328 86.0747 51.7845C86.0751 51.8641 86.0755 51.9436 86.0759 52.0256C86.0759 52.1008 86.0759 52.1759 86.0759 52.2534C86.0761 52.319 86.0762 52.3846 86.0764 52.4522C86.0675 52.6017 86.0675 52.6017 85.9935 52.6757C85.8087 52.6828 85.626 52.685 85.4412 52.6842C85.3834 52.6842 85.3256 52.6842 85.2661 52.6842C85.0741 52.6841 84.8822 52.6836 84.6903 52.683C84.5576 52.6828 84.4248 52.6827 84.2921 52.6827C83.9421 52.6824 83.5921 52.6817 83.2421 52.6808C82.8225 52.6799 82.4029 52.6796 81.9833 52.6792C81.3453 52.6784 80.7072 52.677 80.0691 52.6757C80.0691 53.8488 80.0691 55.0218 80.0691 56.2303C82.1708 56.2303 84.2724 56.2303 86.4378 56.2303C86.524 58.2136 86.524 58.2136 86.5211 59.0721C86.5214 59.1627 86.5217 59.2533 86.522 59.3467C86.5219 59.4323 86.5218 59.5179 86.5217 59.6061C86.5215 59.7196 86.5215 59.7196 86.5214 59.8354C86.5118 60.0071 86.5118 60.0071 86.4378 60.0811C86.303 60.0884 86.1679 60.0905 86.033 60.0905C85.9451 60.0907 85.8573 60.091 85.7668 60.0912C85.6695 60.091 85.5722 60.0909 85.472 60.0907C85.3693 60.0908 85.2665 60.0909 85.1638 60.0911C84.8839 60.0914 84.6041 60.0913 84.3243 60.0911C84.032 60.0909 83.7398 60.0911 83.4476 60.0912C82.9568 60.0913 82.466 60.0911 81.9751 60.0908C81.4069 60.0904 80.8386 60.0905 80.2703 60.0909C79.7833 60.0913 79.2963 60.0913 78.8093 60.0911C78.518 60.091 78.2268 60.091 77.9355 60.0912C77.6617 60.0914 77.388 60.0913 77.1142 60.0909C76.9652 60.0907 76.8162 60.0909 76.6672 60.0912C76.5794 60.091 76.4915 60.0908 76.401 60.0905C76.3242 60.0905 76.2473 60.0905 76.1682 60.0905C75.9962 60.0811 75.9962 60.0811 75.9221 60.0071C75.9131 59.898 75.909 59.7886 75.9069 59.6792C75.9054 59.6095 75.904 59.5398 75.9024 59.468C75.9012 59.3923 75.9 59.3165 75.8987 59.2385C75.8972 59.1613 75.8956 59.0842 75.894 59.0047C75.8892 58.7572 75.8848 58.5097 75.8805 58.2622C75.8773 58.0948 75.874 57.9275 75.8708 57.7602C75.8628 57.349 75.8553 56.9378 75.8481 56.5265C75.8231 56.5772 75.7981 56.6278 75.7723 56.6799C75.7393 56.7464 75.7062 56.813 75.6722 56.8815C75.6395 56.9474 75.6069 57.0133 75.5733 57.0811C75.37 57.477 75.1316 57.7756 74.8113 58.0817C74.7404 58.1561 74.7404 58.1561 74.6681 58.2321C73.5235 59.4237 71.9438 60.2709 70.2703 60.3282C68.0035 60.3589 66.3352 59.6497 64.6058 58.2038C64.4579 58.0668 64.4579 58.0668 64.2957 58.0817C64.2068 58.1879 64.1182 58.2943 64.0315 58.4023C63.0858 59.5056 61.484 60.2052 60.0582 60.323C59.0456 60.3748 58.0716 60.3561 57.1124 60.0071C57.0403 59.9809 57.0403 59.9809 56.9667 59.9541C55.8442 59.5342 54.9073 58.8557 54.0022 58.0817C53.9113 58.006 53.8203 57.9303 53.7291 57.8549C53.6726 57.8075 53.6161 57.7602 53.5579 57.7114C53.5939 57.3635 53.7353 57.1862 53.9605 56.9246C54.1343 56.721 54.298 56.5272 54.4465 56.3044C54.4954 56.3044 54.5443 56.3044 54.5946 56.3044C54.6103 56.2659 54.6259 56.2274 54.6421 56.1878C54.7856 55.9316 54.9754 55.7239 55.1685 55.5037C55.2065 55.4599 55.2445 55.4161 55.2837 55.371C55.3604 55.2826 55.4375 55.1945 55.5149 55.1066C55.595 55.0137 55.6729 54.9189 55.749 54.8226C55.8059 54.7515 55.8059 54.7515 55.8639 54.679C55.8976 54.6357 55.9312 54.5923 55.9658 54.5477C56.0757 54.453 56.0757 54.453 56.3719 54.453C56.462 54.5357 56.5513 54.6195 56.6349 54.7088C57.0008 55.0994 57.3999 55.3955 57.8622 55.661C57.9056 55.686 57.949 55.711 57.9937 55.7368C58.5973 56.0732 59.2416 56.2519 59.9265 56.0915C60.4912 55.8955 60.965 55.4659 61.2363 54.9344C61.3849 54.5276 61.3608 54.1765 61.1944 53.7793C60.5903 52.6869 59.1148 52.2573 58.0289 51.8241C56.9396 51.3888 55.9263 50.9538 55.187 50.0098C55.1888 50.0951 55.1905 50.1803 55.1923 50.2681C55.2282 52.8328 54.671 55.0936 53.0395 57.119C53 57.1699 52.9604 57.2207 52.9197 57.2732C52.6976 57.5487 52.4571 57.7541 52.1693 57.959C51.9782 58.0998 51.7996 58.252 51.6186 58.4057C50.4854 59.3321 49.2054 59.8634 47.7817 60.1552C47.7035 60.1719 47.6253 60.1886 47.5447 60.2058C45.0611 60.6488 42.4612 60.1526 40.3745 58.7453C39.9578 58.4496 39.5655 58.1333 39.1914 57.7855C39.1142 57.7167 39.1142 57.7167 39.0355 57.6466C37.5089 56.22 36.6037 54.0312 36.5042 51.9604C36.4951 51.666 36.4942 51.3719 36.4965 51.0774C36.4977 50.8985 36.4965 50.7198 36.4951 50.5409C36.4916 48.0055 37.4911 45.7717 39.2331 43.942C40.3015 42.9017 41.5446 42.1551 42.9682 41.7158C43.0393 41.6938 43.1104 41.6719 43.1837 41.6492C45.398 41.034 47.8469 41.3095 49.9292 42.2341ZM42.2028 46.643C42.1071 46.7664 42.0161 46.8918 41.9268 47.0199C41.8948 47.0653 41.8628 47.1107 41.8298 47.1575C41.5637 47.5446 41.3577 47.9408 41.1909 48.3806C41.1691 48.4367 41.1473 48.4927 41.1249 48.5504C40.8593 49.2861 40.7935 50.0284 40.7975 50.8059C40.7978 50.8903 40.7981 50.9748 40.7984 51.0617C40.8069 51.6984 40.8612 52.2844 41.0428 52.8979C41.0617 52.9622 41.0806 53.0264 41.1 53.0926C41.5191 54.2903 42.44 55.3792 43.5542 55.9787C44.7888 56.5381 46.2283 56.6448 47.5228 56.219C48.8984 55.6739 49.7828 54.7068 50.3845 53.3764C51.0608 51.6933 50.979 49.7165 50.342 48.039C49.8164 46.9082 48.936 46.0353 47.7863 45.5481C47.6619 45.5031 47.5369 45.4599 47.4114 45.4185C47.349 45.3963 47.2865 45.3742 47.2222 45.3514C45.5232 44.8316 43.3957 45.2709 42.2028 46.643ZM65.6286 55.4157C65.7027 55.5638 65.7027 55.5638 65.7027 55.5638L65.6286 55.4157Z" fill="white"/>
<path d="M14.7536 34.1623C14.8033 34.178 14.853 34.1937 14.9041 34.2099C16.2377 34.6562 17.5409 35.3377 18.6785 36.1617C18.7942 36.2409 18.7942 36.2409 18.9122 36.3217C19.3455 36.6231 19.3455 36.6231 19.4931 36.7542C19.4931 36.8275 19.4931 36.9008 19.4931 36.9763C19.396 36.9926 19.396 36.9926 19.297 37.0093C18.0748 37.2322 16.9488 37.628 15.8644 38.2352C15.8146 38.2631 15.7648 38.291 15.7134 38.3197C14.9571 38.7504 14.3339 39.2534 13.7169 39.8644C13.6632 39.9136 13.6096 39.9627 13.5543 40.0134C12.6003 40.9037 11.9424 42.0918 11.4212 43.2709C11.5335 43.1838 11.5335 43.1838 11.648 43.095C13.8845 41.4226 16.38 40.3513 19.1623 40.0334C19.278 40.0202 19.3936 40.0062 19.5091 39.9912C23.0708 39.5452 26.88 40.6958 29.7179 42.8634C31.36 44.1439 32.6624 45.63 33.7061 47.4321C33.7741 47.5468 33.8479 47.658 33.9229 47.7682C34.0604 48.0409 33.9679 48.2099 33.8789 48.49C33.8481 48.5761 33.8172 48.6622 33.7855 48.7509C33.7668 48.8032 33.7482 48.8555 33.729 48.9093C33.3068 50.0728 32.7761 51.2516 32.0082 52.2314C31.9593 52.2314 31.9104 52.2314 31.8601 52.2314C31.8326 52.291 31.8326 52.291 31.8045 52.3518C31.6872 52.5747 31.5731 52.7742 31.4158 52.972C31.2121 52.9997 31.2121 52.9997 31.0455 52.972C30.9577 52.7181 30.8782 52.4633 30.8065 52.2045C30.3061 50.4154 29.4692 48.8922 28.1574 47.566C28.11 47.5142 28.0627 47.4624 28.0139 47.409C27.1556 46.4896 25.9303 45.7016 24.7509 45.2704C24.7752 45.302 24.7996 45.3336 24.8247 45.3661C26.2598 47.2524 27.2515 49.2776 27.8149 51.5835C27.8335 51.6589 27.8335 51.6589 27.8526 51.7358C27.926 52.0542 27.9462 52.3497 27.9352 52.6757C27.8863 52.6757 27.8375 52.6757 27.7871 52.6757C27.8116 52.7246 27.836 52.7735 27.8612 52.8239C27.8766 52.9856 27.8884 53.1477 27.8982 53.3098C27.9156 53.5934 27.9366 53.8692 27.9801 54.1502C28.0415 54.6906 27.9703 55.2373 27.9213 55.7768C27.9162 55.8347 27.9111 55.8927 27.9058 55.9524C27.7734 57.4251 27.4449 58.7537 26.9725 60.1552C26.9236 60.1552 26.8748 60.1552 26.8244 60.1552C26.8199 60.2252 26.8154 60.2951 26.8108 60.3672C26.7542 60.759 26.5619 61.0838 26.3755 61.428C26.3387 61.4969 26.3019 61.5658 26.264 61.6368C25.8494 62.4038 25.3721 63.1049 24.825 63.7838C24.7783 63.8443 24.7316 63.9047 24.6835 63.9669C23.5948 65.3487 22.2537 66.4339 20.752 67.3384C20.6951 67.3744 20.6382 67.4104 20.5796 67.4475C20.1943 67.6712 19.9099 67.6627 19.4931 67.5606C18.8604 67.3895 18.2947 67.1229 17.7158 66.82C17.5924 66.7597 17.469 66.6995 17.3455 66.6395C16.7235 66.327 16.1291 65.9695 15.5497 65.5843C15.4684 65.5305 15.387 65.4768 15.3032 65.4214C15.2441 65.3698 15.1849 65.3181 15.1239 65.2649C15.1239 65.1672 15.1239 65.0694 15.1239 64.9687C15.1955 64.9499 15.2671 64.9311 15.3409 64.9117C15.5928 64.8453 15.8443 64.7775 16.0958 64.7095C16.2074 64.6797 16.3195 64.6517 16.4317 64.6242C17.8725 64.246 19.9184 63.1088 20.752 61.8584C20.8009 61.8584 20.8497 61.8584 20.9001 61.8584C20.9299 61.7943 20.9299 61.7943 20.9603 61.7288C21.0504 61.5581 21.1447 61.4126 21.2704 61.266C21.3192 61.266 21.3681 61.266 21.4185 61.266C21.4437 61.1881 21.4437 61.1881 21.4694 61.1086C21.5661 60.8969 21.686 60.7519 21.8373 60.5772C22.0294 60.3344 22.1633 60.058 22.3071 59.7849C22.3588 59.6883 22.4104 59.5917 22.4622 59.4951C22.6085 59.2217 22.7541 58.948 22.8996 58.6741C22.7768 58.6051 22.7768 58.6051 22.6033 58.6001C22.4291 58.7048 22.2771 58.8096 22.1174 58.9333C22.0237 59.0028 21.93 59.0721 21.8362 59.1413C21.7901 59.1755 21.7441 59.2098 21.6966 59.2451C20.7092 59.9703 19.6171 60.5154 18.4563 60.8957C18.3589 60.9337 18.2616 60.9721 18.1647 61.0114C17.7563 61.1669 17.3275 61.2635 16.9048 61.3721C16.7986 61.4015 16.6932 61.4338 16.5885 61.4683C16.0645 61.6396 15.5465 61.7109 14.9989 61.7659C14.905 61.7754 14.8112 61.7849 14.7144 61.7947C13.3197 61.9225 11.9444 61.8205 10.5757 61.5287C10.4386 61.4996 10.301 61.4729 10.1632 61.4477C8.95866 61.2155 7.82054 60.8053 6.74102 60.226C6.52589 60.1117 6.30757 60.0042 6.08933 59.896C5.9659 59.8343 5.84248 59.7726 5.71906 59.7109C5.71906 59.662 5.71906 59.6131 5.71906 59.5628C5.68001 59.5572 5.64097 59.5517 5.60075 59.546C5.35056 59.4654 5.15621 59.318 4.94612 59.1647C4.90097 59.1322 4.85583 59.0996 4.80931 59.066C4.40132 58.7676 4.01546 58.4457 3.63369 58.1147C3.49993 57.9995 3.36395 57.8868 3.22524 57.7777C3.07266 57.6533 2.94881 57.5322 2.8217 57.3828C2.77798 57.3315 2.73426 57.2803 2.68921 57.2275C2.63824 57.1672 2.58726 57.107 2.53474 57.0449C2.46942 56.9694 2.40404 56.8939 2.33861 56.8184C1.83474 56.2343 1.3503 55.6416 0.982792 54.9596C0.922437 54.8531 0.856672 54.7497 0.788979 54.6477C0.532235 54.2545 0.389872 53.9676 0.461233 53.4903C0.465815 53.4339 0.470397 53.3775 0.475118 53.3194C0.652583 51.8619 1.65829 50.35 2.51796 49.1964C2.67935 48.9778 2.83014 48.7559 2.97906 48.5287C3.05238 48.5532 3.12569 48.5776 3.20123 48.6028C3.25666 48.8019 3.2986 48.9925 3.33545 49.1952C3.43315 49.6801 3.55337 50.1454 3.7196 50.6115C3.73715 50.6613 3.7547 50.7112 3.77278 50.7625C3.88508 51.0698 4.02113 51.3571 4.17089 51.6478C4.26167 51.8363 4.32066 52.033 4.38609 52.2314C4.70196 52.864 5.1107 53.4015 5.57095 53.9347C5.61496 53.9877 5.65896 54.0408 5.7043 54.0955C5.87217 54.2971 6.01779 54.4547 6.23743 54.6011C6.23743 54.65 6.23743 54.6989 6.23743 54.7493C6.30387 54.7813 6.30387 54.7813 6.37166 54.8141C6.53365 54.8974 6.53365 54.8974 6.75581 55.0455C6.75581 55.0943 6.75581 55.1432 6.75581 55.1936C6.79705 55.2134 6.83829 55.2333 6.88078 55.2537C7.06775 55.3498 7.24732 55.4472 7.4223 55.5638C7.4223 55.6127 7.4223 55.6616 7.4223 55.712C7.49575 55.7383 7.49575 55.7383 7.57069 55.7652C7.90823 55.9095 8.21868 56.0988 8.53527 56.2838C9.02261 56.5716 9.02261 56.5716 9.56986 56.6747C9.42767 56.3708 9.27116 56.1205 9.06074 55.8601C8.3999 54.9934 7.78234 54.0135 7.41709 52.9827C7.35932 52.8213 7.35932 52.8213 7.24179 52.722C7.06925 52.5426 6.99811 52.3268 6.91318 52.0972C6.89416 52.0461 6.87514 51.995 6.85554 51.9424C6.50997 50.9713 6.29525 49.9202 6.16338 48.899C6.15517 48.837 6.14696 48.7749 6.1385 48.711C5.72198 44.8046 6.94517 40.8815 9.39767 37.8355C9.65566 37.5236 9.92978 37.2269 10.2093 36.9343C10.3067 36.8321 10.4027 36.7288 10.4987 36.6254C11.3537 35.7317 12.3705 35.009 13.4378 34.3893C13.5703 34.312 13.5703 34.312 13.6945 34.219C14.0828 33.9521 14.3364 34.0218 14.7536 34.1623ZM16.3782 45.4185C16.3155 45.4487 16.2529 45.4789 16.1883 45.51C14.1102 46.5325 12.0709 48.4472 11.2731 50.6763C11.2947 51.0365 11.4731 51.3598 11.6171 51.6863C11.7869 52.0714 11.7869 52.0714 11.858 52.2575C12.1915 53.1125 12.8173 53.9187 13.4947 54.5271C13.5528 54.5867 13.6108 54.6462 13.6706 54.7076C14.4532 55.4716 15.2766 56.0735 16.2347 56.6006C16.2945 56.6348 16.3542 56.669 16.4158 56.7042C16.7787 56.8926 16.9944 56.9055 17.3862 56.8073C17.7015 56.7055 17.9857 56.5551 18.2758 56.397C18.335 56.366 18.3941 56.3351 18.455 56.3032C18.8546 56.0896 19.2127 55.8454 19.5671 55.5638C19.6695 55.4834 19.6695 55.4834 19.774 55.4013C19.8325 55.3541 19.891 55.307 19.9513 55.2584C20.0104 55.2108 20.0695 55.1633 20.1303 55.1143C20.1889 55.0672 20.2474 55.02 20.3077 54.9714C20.3731 54.9203 20.4385 54.8693 20.5058 54.8167C20.6933 54.6626 20.8251 54.4959 20.9742 54.3049C21.0383 54.2423 21.1025 54.1797 21.1685 54.1152C21.3229 53.9567 21.4102 53.8406 21.4925 53.6384C21.5414 53.6384 21.5903 53.6384 21.6406 53.6384C21.7877 53.4734 21.7877 53.4734 21.9369 53.2635C21.9888 53.194 22.0407 53.1244 22.0942 53.0527C22.2441 52.8057 22.3025 52.5824 22.3812 52.3055C22.454 52.166 22.5343 52.0332 22.6164 51.8989C22.8739 51.4833 22.8739 51.4833 22.9837 51.0162C22.9272 50.8361 22.8465 50.6917 22.7514 50.5282C22.708 50.4377 22.6654 50.3468 22.6233 50.2557C21.5672 48.0005 19.8888 46.4187 17.7158 45.2704C17.6634 45.2399 17.611 45.2095 17.557 45.1781C17.1247 45.0025 16.7667 45.2291 16.3782 45.4185Z" fill="white"/>
<path d="M86.1416 52.5276C87.559 52.5276 88.9763 52.5276 90.4367 52.5276C90.5344 52.772 90.6322 53.0164 90.7329 53.2682C91.2547 54.4779 92.0445 55.3125 93.2461 55.8508C95.0218 56.5234 96.8121 56.2465 98.5086 55.4898C98.9904 55.2647 99.4635 55.0218 99.9312 54.7686C100.138 54.6752 100.138 54.6752 100.434 54.6752C100.434 56.1903 100.434 57.7055 100.434 59.2665C98.8268 59.851 97.1186 60.323 95.3983 60.3773C95.3303 60.3803 95.2624 60.3833 95.1923 60.3863C92.9143 60.4395 90.7784 59.7335 89.1144 58.1584C89.0117 58.0592 88.9096 57.9594 88.8075 57.8595C88.7474 57.8031 88.6872 57.7467 88.6253 57.6886C87.5436 56.653 86.7755 55.2698 86.373 53.8328C86.3579 53.7792 86.3429 53.7255 86.3274 53.6703C86.2254 53.2831 86.1867 52.9337 86.1416 52.5276Z" fill="white"/>
<path d="M100.36 42.5304C100.434 42.6044 100.434 42.6044 100.443 42.7848C100.443 42.8649 100.443 42.945 100.442 43.0275C100.442 43.1179 100.442 43.2084 100.442 43.3015C100.442 43.401 100.442 43.5004 100.441 43.5998C100.441 43.701 100.441 43.8022 100.441 43.9033C100.441 44.1701 100.44 44.4368 100.439 44.7035C100.438 44.9756 100.438 45.2476 100.438 45.5196C100.437 46.0536 100.436 46.5877 100.434 47.1217C100.154 47.0785 99.9323 47.0369 99.6853 46.8967C99.6301 46.8661 99.575 46.8356 99.5181 46.8041C99.4599 46.7715 99.4017 46.7388 99.3417 46.7052C97.6487 45.7894 95.7389 45.1513 93.7969 45.5758C92.9866 45.8273 92.3642 46.2245 91.7697 46.8255C91.7288 46.8639 91.6879 46.9022 91.6459 46.9418C91.104 47.4982 90.8112 48.3459 90.5107 49.0471C89.0689 49.0471 87.6271 49.0471 86.1416 49.0471C86.6007 46.522 87.8968 44.3379 90.0102 42.841C92.9501 40.8438 97.2572 40.7824 100.36 42.5304Z" fill="white"/>
<path d="M17.0771 48.4223C17.1395 48.4229 17.202 48.4235 17.2663 48.4241C17.9642 48.4431 18.406 48.6513 18.9163 49.1269C19.4838 49.7366 19.6037 50.3973 19.59 51.2149C19.5353 51.8755 19.2474 52.387 18.7525 52.8239C18.0268 53.3371 17.3345 53.4527 16.4569 53.3422C15.8158 53.1441 15.2854 52.7719 14.9391 52.195C14.5929 51.5341 14.4958 50.8822 14.6888 50.1533C14.9438 49.3979 15.399 48.9173 16.099 48.5556C16.4215 48.4223 16.7318 48.4179 17.0771 48.4223Z" fill="white"/>
<path d="M75.9221 41.5677C77.6435 41.5661 79.3648 41.5646 81.1383 41.563C81.6828 41.5624 82.2272 41.5617 82.7881 41.561C83.4506 41.5607 83.4506 41.5607 83.7603 41.5606C83.9776 41.5605 84.1948 41.5602 84.4121 41.5598C84.6888 41.5593 84.9654 41.5592 85.2421 41.5593C85.3922 41.5593 85.5423 41.5589 85.6924 41.5585C85.7802 41.5586 85.868 41.5587 85.9584 41.5588C86.0354 41.5587 86.1123 41.5586 86.1915 41.5586C86.3637 41.5677 86.3637 41.5677 86.4378 41.6417C86.4451 41.755 86.4473 41.8686 86.4474 41.982C86.4476 42.0545 86.4478 42.1269 86.4481 42.2015C86.4478 42.3196 86.4478 42.3196 86.4476 42.4401C86.4477 42.5204 86.4478 42.6006 86.4478 42.6833C86.4479 42.8534 86.4477 43.0235 86.4474 43.1936C86.447 43.4549 86.4474 43.7162 86.4479 43.9776C86.4479 44.1424 86.4478 44.3072 86.4476 44.472C86.4478 44.5507 86.4479 44.6295 86.4481 44.7106C86.4477 44.8192 86.4477 44.8192 86.4474 44.93C86.4473 44.9941 86.4472 45.0582 86.4472 45.1242C86.4378 45.2704 86.4378 45.2704 86.3637 45.3444C86.1677 45.3515 85.9736 45.3537 85.7775 45.3528C85.7161 45.3528 85.6547 45.3528 85.5914 45.3529C85.3875 45.3528 85.1835 45.3522 84.9796 45.3516C84.8385 45.3515 84.6975 45.3514 84.5565 45.3513C84.1846 45.351 83.8126 45.3503 83.4407 45.3495C82.9949 45.3486 82.549 45.3483 82.1032 45.3478C81.4252 45.3471 80.7472 45.3457 80.0691 45.3444C80.0691 46.5174 80.0691 47.6904 80.0691 48.899C82.0486 48.899 84.0281 48.899 86.0675 48.899C86.0675 50.1209 86.0675 51.3428 86.0675 52.6017C86.0431 52.6017 86.0186 52.6017 85.9935 52.6017C85.9935 51.4042 85.9935 50.2068 85.9935 48.9731C83.9896 48.9731 81.9857 48.9731 79.921 48.9731C79.9195 48.3759 79.918 47.7787 79.9164 47.1634C79.9157 46.9746 79.9151 46.7858 79.9144 46.5913C79.9142 46.4427 79.914 46.2941 79.9138 46.1454C79.9134 46.0674 79.913 45.9895 79.9127 45.9091C79.9126 45.7986 79.9126 45.7986 79.9126 45.6859C79.9125 45.6216 79.9123 45.5573 79.9121 45.4911C79.921 45.3444 79.921 45.3444 79.9951 45.2704C80.1911 45.2633 80.3853 45.2611 80.5813 45.262C80.6427 45.2619 80.7041 45.2619 80.7674 45.2619C80.9714 45.262 81.1753 45.2625 81.3793 45.2631C81.5203 45.2633 81.6613 45.2634 81.8023 45.2634C82.1743 45.2637 82.5462 45.2645 82.9181 45.2653C83.364 45.2662 83.8098 45.2665 84.2556 45.2669C84.9336 45.2677 85.6117 45.2691 86.2897 45.2704C86.2897 44.0729 86.2897 42.8755 86.2897 41.6417C82.8928 41.6417 79.496 41.6417 75.9962 41.6417C75.9962 45.3074 75.9962 48.9731 75.9962 52.7498C75.774 52.6757 75.774 52.6757 75.6444 52.4675C75.5529 52.2341 75.531 52.1596 75.6259 51.9352C75.6992 52.0818 75.7725 52.2285 75.8481 52.3795C75.8725 48.8116 75.8969 45.2437 75.9221 41.5677Z" fill="white"/>
<path d="M75.9221 41.5677C79.3679 41.5677 82.8136 41.5677 86.3637 41.5677C86.3637 41.5921 86.3637 41.6165 86.3637 41.6417C82.9424 41.6417 79.5211 41.6417 75.9962 41.6417C75.9962 45.3074 75.9962 48.9731 75.9962 52.7498C75.774 52.6757 75.774 52.6757 75.6444 52.4675C75.5529 52.2341 75.531 52.1596 75.6259 51.9352C75.6992 52.0818 75.7725 52.2285 75.8481 52.3795C75.8725 48.8116 75.8969 45.2437 75.9221 41.5677Z" fill="white"/>
<path d="M75.9962 41.6417C79.393 41.6417 82.7899 41.6417 86.2897 41.6417C86.2897 41.6662 86.2897 41.6906 86.2897 41.7158C82.9173 41.7158 79.5448 41.7158 76.0702 41.7158C76.0702 45.4548 76.0702 49.1937 76.0702 53.046C75.9969 53.0216 75.9236 52.9971 75.8481 52.972C75.8481 52.8986 75.8481 52.8253 75.8481 52.7498C75.8969 52.7498 75.9458 52.7498 75.9962 52.7498C75.9962 49.0841 75.9962 45.4185 75.9962 41.6417Z" fill="white"/>
<path d="M67.8503 41.7898C67.8991 41.8143 67.948 41.8387 67.9984 41.8639C67.9006 41.8883 67.8029 41.9128 67.7021 41.9379C67.7021 41.9868 67.7021 42.0357 67.7021 42.086C67.6197 42.1166 67.5372 42.1471 67.4522 42.1786C67.2086 42.2816 67.1389 42.3582 67.0357 42.6044C66.9914 42.6258 66.9471 42.6472 66.9014 42.6692C66.7061 42.7697 66.6048 42.9087 66.4701 43.0788C66.2759 43.3059 66.0447 43.5072 65.7767 43.6412C65.6991 43.7874 65.6248 43.9355 65.5546 44.0855C65.5057 44.0855 65.4568 44.0855 65.4065 44.0855C65.395 44.1634 65.395 44.1634 65.3833 44.2429C65.3324 44.4558 65.3324 44.4558 65.226 44.647C65.0807 44.9649 65.0328 45.264 64.9853 45.6082C64.9712 45.7063 64.9712 45.7063 64.9569 45.8063C64.88 46.3742 64.8107 46.9633 64.926 47.5302C64.9648 47.7273 64.9695 47.9069 64.9668 48.1075C64.9661 48.1729 64.9654 48.2383 64.9648 48.3057C64.9639 48.3549 64.963 48.404 64.9622 48.4547C64.4543 47.6928 64.6259 46.4535 64.7634 45.5969C65.0423 44.2058 65.8469 43.0384 67.0189 42.2428C67.5773 41.8808 67.5773 41.8808 67.8503 41.7898Z" fill="white"/>
<path d="M75.9962 56.1563C76.1443 56.3044 76.1443 56.3044 76.1562 56.4432C76.1538 56.4952 76.1514 56.5471 76.1489 56.6006C76.1372 56.8315 76.1372 56.8315 76.2183 57.0449C76.1939 57.2404 76.1695 57.4359 76.1443 57.6374C76.1199 58.3949 76.0954 59.1525 76.0702 59.933C79.4426 59.933 82.8151 59.933 86.2897 59.933C86.2897 59.5176 86.2897 59.1021 86.2897 58.6741C86.3141 58.6741 86.3385 58.6741 86.3637 58.6741C86.3637 59.114 86.3637 59.5539 86.3637 60.0071C82.9424 60.0071 79.5211 60.0071 75.9962 60.0071C75.9962 58.7363 75.9962 57.4655 75.9962 56.1563Z" fill="white"/>
<path d="M86.1416 52.5276C87.559 52.5276 88.9763 52.5276 90.4367 52.5276C90.4734 52.7109 90.4734 52.7109 90.5107 52.8979C90.4619 52.8979 90.413 52.8979 90.3626 52.8979C90.3626 52.849 90.3626 52.8002 90.3626 52.7498C89.043 52.7742 87.7234 52.7987 86.3637 52.8239C86.3393 52.946 86.3148 53.0682 86.2897 53.1941C86.2652 53.1941 86.2408 53.1941 86.2156 53.1941C86.1912 52.9742 86.1667 52.7542 86.1416 52.5276Z" fill="white"/>
<path d="M16.5309 45.3444C16.3137 45.5208 16.0824 45.6533 15.8363 45.7854C14.6985 46.398 13.6087 47.2065 12.8462 48.2609C12.8158 48.3004 12.7855 48.3399 12.7542 48.3806C12.7297 48.3806 12.7053 48.3806 12.6801 48.3806C12.657 48.2186 12.657 48.2186 12.6801 48.0104C12.856 47.8021 12.856 47.8021 13.0504 47.6401C13.0993 47.6401 13.1481 47.6401 13.1985 47.6401C13.2229 47.5423 13.2474 47.4446 13.2726 47.3439C13.3214 47.3439 13.3703 47.3439 13.4207 47.3439C13.4207 47.295 13.4207 47.2461 13.4207 47.1958C13.541 47.0933 13.6651 46.9952 13.7909 46.8995C13.888 46.8182 13.888 46.8182 13.9871 46.7352C14.3534 46.4287 14.7046 46.164 15.1239 45.9368C15.2615 45.8182 15.2615 45.8182 15.3461 45.7147C15.4194 45.7391 15.4927 45.7636 15.5682 45.7887C15.585 45.7429 15.6018 45.6971 15.6191 45.6499C15.8273 45.3129 16.1667 45.3275 16.5309 45.3444Z" fill="white"/>
<path d="M37.1179 47.1217C37.241 47.4241 37.1371 47.6926 37.0531 47.9918C36.9153 48.4919 36.8217 48.9644 36.8217 49.4868C36.8217 49.5616 36.8217 49.6365 36.8217 49.7136C36.785 49.7502 36.785 49.7502 36.7476 49.7876C36.7358 50.0173 36.7284 50.2454 36.7242 50.4752C36.7227 50.5442 36.7211 50.6131 36.7195 50.6841C36.7147 50.9052 36.7103 51.1263 36.706 51.3474C36.7028 51.4969 36.6995 51.6464 36.6963 51.7959C36.6883 52.1632 36.6808 52.5306 36.6736 52.8979C36.6491 52.8979 36.6247 52.8979 36.5995 52.8979C36.542 52.4881 36.5128 52.0899 36.5104 51.6763C36.51 51.6177 36.5096 51.559 36.5091 51.4986C36.5085 51.375 36.508 51.2513 36.5077 51.1276C36.507 50.9429 36.5047 50.7582 36.5023 50.5735C36.4955 49.5513 36.5989 48.5665 36.9467 47.5984C36.979 47.5067 37.0114 47.415 37.0447 47.3204C37.0689 47.2549 37.093 47.1893 37.1179 47.1217Z" fill="white"/>
<path d="M100.064 42.4563C100.351 42.5211 100.351 42.5211 100.434 42.6044C100.441 42.7453 100.443 42.8864 100.442 43.0275C100.442 43.1179 100.442 43.2084 100.442 43.3015C100.442 43.401 100.442 43.5004 100.441 43.5998C100.441 43.701 100.441 43.8022 100.441 43.9033C100.441 44.1701 100.44 44.4368 100.439 44.7035C100.438 44.9756 100.438 45.2476 100.438 45.5196C100.437 46.0536 100.436 46.5877 100.434 47.1217C100.109 47.0754 99.8928 47.0105 99.6194 46.8255C99.7443 46.7746 99.7443 46.7746 99.9156 46.7514C100.041 46.8217 100.165 46.8956 100.286 46.9736C100.28 46.4065 100.273 45.8394 100.265 45.2723C100.261 45.0089 100.257 44.7456 100.255 44.4823C100.251 44.1797 100.247 43.8772 100.242 43.5746C100.242 43.4798 100.241 43.385 100.24 43.2873C100.238 43.1999 100.237 43.1124 100.235 43.0223C100.234 42.945 100.233 42.8677 100.232 42.7881C100.23 42.5915 100.23 42.5915 100.064 42.4563Z" fill="white"/>
<path d="M41.5611 47.4179C41.5856 47.4668 41.61 47.5157 41.6352 47.566C41.5692 47.7353 41.5692 47.7353 41.4686 47.9409C40.9804 48.9808 40.8719 49.9593 40.8854 51.0975C40.8861 51.2079 40.8868 51.3184 40.8874 51.4288C40.889 51.6964 40.8916 51.9639 40.8946 52.2314C40.8458 52.2314 40.7969 52.2314 40.7465 52.2314C40.545 51.1025 40.5602 49.8494 40.9039 48.7538C40.965 48.5416 40.9818 48.3775 40.9687 48.1585C41.042 48.134 41.1153 48.1096 41.1909 48.0844C41.1909 47.9622 41.1909 47.84 41.1909 47.7141C41.2642 47.6897 41.3375 47.6653 41.413 47.6401C41.4619 47.5668 41.5108 47.4935 41.5611 47.4179Z" fill="white"/>
<path d="M20.3077 62.3027C20.3565 62.3272 20.4054 62.3516 20.4558 62.3768C19.9615 62.8438 19.4678 63.2585 18.9006 63.6357C18.8442 63.6771 18.7878 63.7184 18.7297 63.761C18.3465 64.0366 18.0346 64.154 17.5677 64.2281C17.7232 64.0727 17.8417 64.0143 18.0398 63.9227C18.8678 63.5152 19.6544 62.956 20.3077 62.3027ZM17.4936 64.2281C17.5303 64.3015 17.5303 64.3015 17.5677 64.3763C16.0543 64.9209 16.0543 64.9209 15.3461 65.1168C15.6201 65.4075 15.9051 65.6312 16.2347 65.8573C15.9693 65.8573 15.8937 65.7938 15.6793 65.6444C15.622 65.6049 15.5648 65.5654 15.5057 65.5247C15.453 65.4878 15.4004 65.451 15.3461 65.413C15.2727 65.3641 15.1994 65.3153 15.1239 65.2649C15.1239 65.1672 15.1239 65.0694 15.1239 64.9687C15.1955 64.9499 15.2671 64.9311 15.3409 64.9117C16.4378 64.631 16.4378 64.631 17.4936 64.2281Z" fill="white"/>
<path d="M73.034 41.6417C73.1073 41.715 73.1073 41.715 73.1821 41.7898C73.0973 41.7791 73.0124 41.7684 72.925 41.7574C72.8117 41.7435 72.6984 41.7296 72.5851 41.7158C72.5015 41.7052 72.5015 41.7052 72.4163 41.6944C72.0762 41.6531 71.7474 41.6344 71.4048 41.6417C71.4048 41.5928 71.4048 41.544 71.4048 41.4936C70.2776 41.5153 69.175 41.5394 68.0724 41.7898C68.1465 41.6417 68.1465 41.6417 68.3698 41.5625C69.8548 41.169 71.566 41.1702 73.034 41.6417Z" fill="white"/>
<path d="M14.2353 39.0498C14.3452 39.1231 14.3452 39.1231 14.4574 39.1979C14.4232 39.2268 14.3891 39.2556 14.3539 39.2853C13.5933 39.9377 12.9754 40.6297 12.3987 41.4449C12.2763 41.6141 12.1459 41.7764 12.0136 41.9379C11.9892 41.8402 11.9648 41.7424 11.9396 41.6417C11.9869 41.6249 12.0343 41.6081 12.0831 41.5908C12.1335 41.5587 12.1839 41.5267 12.2358 41.4936C12.2444 41.4402 12.253 41.3867 12.2618 41.3316C12.3248 41.0587 12.47 40.8728 12.6385 40.6559C12.6687 40.6152 12.6989 40.5744 12.73 40.5325C12.8081 40.43 12.8918 40.3319 12.9763 40.2347C13.0252 40.2347 13.0741 40.2347 13.1244 40.2347C13.1511 40.1718 13.1511 40.1718 13.1782 40.1077C13.2921 39.9035 13.4298 39.7643 13.5965 39.6006C13.6822 39.5157 13.6822 39.5157 13.7695 39.4291C13.9188 39.2907 14.0698 39.1681 14.2353 39.0498Z" fill="white"/>
<path d="M39.9319 43.345C39.9808 43.3694 40.0297 43.3938 40.0801 43.419C40.0166 43.4763 39.9531 43.5336 39.8877 43.5926C39.0213 44.3222 39.0213 44.3222 38.4509 45.2704C38.3398 45.4046 38.3398 45.4046 38.2287 45.4925C38.1798 45.4925 38.131 45.4925 38.0806 45.4925C38.0964 45.5357 38.1121 45.5788 38.1283 45.6233C38.1547 45.7887 38.1547 45.7887 38.0861 45.9311C38.0522 45.9757 38.0183 46.0204 37.9834 46.0664C37.9334 46.1346 37.9334 46.1346 37.8824 46.2041C37.8339 46.2551 37.8339 46.2551 37.7844 46.3071C37.7355 46.3071 37.6866 46.3071 37.6363 46.3071C37.6164 46.3728 37.5966 46.4385 37.5761 46.5061C37.4943 46.7343 37.3972 46.919 37.266 47.1217C37.2416 47.0728 37.2171 47.024 37.192 46.9736C37.2689 46.787 37.3503 46.6114 37.4419 46.4321C37.4689 46.3789 37.496 46.3258 37.5238 46.271C38.122 45.1222 38.9429 44.1753 39.9319 43.345Z" fill="white"/>
<path d="M97.1015 59.933C96.7076 60.2686 96.2973 60.2398 95.7995 60.2365C95.7091 60.2363 95.7091 60.2363 95.6168 60.2362C95.4252 60.2357 95.2336 60.2348 95.0419 60.2339C94.9116 60.2335 94.7813 60.2332 94.651 60.2329C94.3323 60.232 94.0137 60.2308 93.6951 60.2292C93.6951 60.1804 93.6951 60.1315 93.6951 60.0811C93.5973 60.0567 93.4996 60.0323 93.3988 60.0071C93.5701 60.0051 93.7413 60.0036 93.9126 60.0025C94.008 60.0016 94.1033 60.0007 94.2016 59.9998C94.4356 60.0071 94.4356 60.0071 94.5097 60.0811C94.6511 60.0771 94.7924 60.0676 94.9334 60.056C95.0207 60.049 95.108 60.0421 95.198 60.035C95.29 60.0273 95.3821 60.0196 95.477 60.0117C96.5718 59.9218 96.5718 59.9218 97.1015 59.933Z" fill="white"/>
<path d="M56.7422 59.6368C57.0798 59.7007 57.4128 59.7637 57.7419 59.8636C58.3854 60.036 59.052 60.0167 59.7136 60.0117C59.7985 60.0114 59.8835 60.011 59.971 60.0107C60.1784 60.0098 60.3857 60.0086 60.593 60.0071C60.5685 60.056 60.5441 60.1048 60.5189 60.1552C59.5362 60.3963 57.7661 60.3886 56.8903 59.859C56.8414 59.7857 56.7925 59.7123 56.7422 59.6368Z" fill="white"/>
<path d="M95.1946 41.3362C95.3012 41.337 95.4078 41.3377 95.5143 41.3383C95.7719 41.3399 96.0294 41.3424 96.2869 41.3455C96.2869 41.3699 96.2869 41.3944 96.2869 41.4196C96.1976 41.4206 96.1976 41.4206 96.1065 41.4217C94.6591 41.4353 94.6591 41.4353 93.2276 41.6278C93.1712 41.6392 93.1149 41.6505 93.0569 41.6622C92.7088 41.7408 92.3975 41.864 92.0743 42.0142C91.8626 42.1113 91.6457 42.1909 91.4272 42.2712C91.1523 42.3747 90.8963 42.48 90.645 42.6322C90.5762 42.6719 90.5075 42.7116 90.4367 42.7525C90.3878 42.7281 90.3389 42.7037 90.2886 42.6785C90.9854 42.2386 91.6795 41.9019 92.4685 41.6649C92.518 41.6499 92.5674 41.6349 92.6183 41.6194C93.4748 41.3731 94.3097 41.3253 95.1946 41.3362Z" fill="white"/>
<path d="M75.4778 43.1228C75.5511 43.1472 75.6244 43.1717 75.7 43.1968C75.6622 43.5119 75.4823 43.6714 75.2695 43.8957C75.1952 43.9749 75.1208 44.0541 75.0465 44.1332C75.0078 44.174 74.9691 44.2149 74.9292 44.2569C74.737 44.4604 74.5475 44.6664 74.3577 44.8723C74.3209 44.9121 74.2841 44.952 74.2462 44.993C73.9128 45.3539 73.5837 45.7186 73.2562 46.085C73.0439 46.0425 72.9702 46.0212 72.8119 45.8628C72.8791 45.8689 72.9463 45.875 73.0155 45.8813C73.2586 45.8843 73.2586 45.8843 73.4228 45.7378C73.5592 45.5733 73.5592 45.5733 73.6265 45.3814C73.7431 45.0898 73.9217 44.943 74.1911 44.789C74.3859 44.666 74.4303 44.5906 74.5151 44.3817C74.6742 44.1431 74.7911 44.0792 75.0335 43.9374C75.2253 43.7798 75.2875 43.6636 75.3297 43.419C75.403 43.419 75.4763 43.419 75.5519 43.419C75.5152 43.2724 75.5152 43.2724 75.4778 43.1228Z" fill="white"/>
<path d="M43.7827 59.933C45.1024 59.933 46.422 59.933 47.7817 59.933C47.4964 60.2182 47.0376 60.1638 46.652 60.1655C46.5685 60.1653 46.5685 60.1653 46.4834 60.165C46.4245 60.1651 46.3657 60.1652 46.3051 60.1652C46.1813 60.1653 46.0576 60.1652 45.9339 60.1648C45.7457 60.1644 45.5576 60.1648 45.3694 60.1653C45.2486 60.1653 45.1278 60.1652 45.007 60.165C44.9513 60.1652 44.8957 60.1653 44.8384 60.1655C44.5056 60.164 44.1843 60.1478 43.8568 60.0811C43.8324 60.0323 43.8079 59.9834 43.7827 59.933Z" fill="white"/>
<path d="M45.8748 45.0389C45.9346 45.0387 45.9945 45.0384 46.0561 45.0381C46.7481 45.0392 47.2824 45.0894 47.8974 45.4231C47.9776 45.465 47.9776 45.465 48.0595 45.5077C48.1896 45.5757 48.3189 45.6451 48.4481 45.7147C48.4481 45.7636 48.4481 45.8124 48.4481 45.8628C48.2359 45.794 48.0252 45.7227 47.8164 45.6441C47.7484 45.6185 47.6804 45.5929 47.6104 45.5666C47.5465 45.5421 47.4827 45.5177 47.4169 45.4925C46.7642 45.2802 46.1672 45.2516 45.4814 45.2611C45.389 45.2618 45.2966 45.2624 45.2015 45.2631C44.9754 45.2649 44.7494 45.2673 44.5233 45.2704C44.971 45.0395 45.3798 45.0366 45.8748 45.0389Z" fill="white"/>
<path d="M68.0724 59.933C68.256 59.9434 68.4396 59.9543 68.6232 59.9654C68.6756 59.9683 68.7279 59.9712 68.7819 59.9742C69.1748 59.9987 69.1748 59.9987 69.2573 60.0811C69.378 60.0771 69.4986 60.0677 69.6189 60.056C69.6931 60.049 69.7674 60.0421 69.8439 60.035C69.9613 60.0235 69.9613 60.0235 70.0811 60.0117C71.0118 59.9218 71.0118 59.9218 71.4789 59.933C71.4048 60.0395 71.4048 60.0395 71.2567 60.1552C70.2165 60.3303 69.0814 60.3269 68.0724 60.0071C68.0724 59.9826 68.0724 59.9582 68.0724 59.933Z" fill="white"/>
<path d="M64.5178 44.0114C64.5178 44.2336 64.5178 44.2336 64.4065 44.3641C64.3562 44.4111 64.3058 44.4582 64.254 44.5067C64.0491 44.7041 63.8525 44.9025 63.6662 45.1176C63.6035 45.1895 63.6035 45.1895 63.5395 45.2628C63.4433 45.3759 63.349 45.4907 63.256 45.6065C63.205 45.6682 63.1541 45.7298 63.1016 45.7934C63.0555 45.8507 63.0095 45.9081 62.9621 45.9672C62.8146 46.085 62.8146 46.085 62.6292 46.0757C62.3699 45.9848 62.1607 45.8574 61.9259 45.7147C62.1497 45.6428 62.2966 45.6305 62.5184 45.7147C62.5428 45.7636 62.5673 45.8124 62.5924 45.8628C62.6657 45.8628 62.7391 45.8628 62.8146 45.8628C62.8406 45.7971 62.8665 45.7314 62.8933 45.6638C63.0291 45.4316 63.0834 45.3713 63.2959 45.2333C63.5586 45.0621 63.6486 44.8919 63.7773 44.6039C63.9737 44.3748 64.1825 44.2338 64.4438 44.0855C64.4682 44.0611 64.4927 44.0366 64.5178 44.0114Z" fill="white"/>
<path d="M18.9747 36.4579C19.2313 36.6046 19.2313 36.6046 19.4931 36.7542C19.4931 36.8275 19.4931 36.9008 19.4931 36.9763C19.3896 36.9952 19.3896 36.9952 19.2839 37.0145C18.711 37.1234 18.1659 37.2551 17.6128 37.4449C17.4196 37.4947 17.4196 37.4947 17.1974 37.4206C17.2463 37.4206 17.2952 37.4206 17.3455 37.4206C17.37 37.3473 17.3944 37.274 17.4196 37.1985C17.4696 37.1895 17.5196 37.1805 17.5711 37.1713C17.6702 37.1527 17.6702 37.1527 17.7713 37.1337C17.8693 37.1156 17.8693 37.1156 17.9692 37.0972C18.1602 37.0586 18.1602 37.0586 18.3186 36.9665C18.4563 36.9023 18.4563 36.9023 18.6785 36.9763C18.6785 36.9274 18.6785 36.8786 18.6785 36.8282C18.8984 36.8649 18.8984 36.8649 19.1228 36.9023C19.1228 36.8045 19.1228 36.7068 19.1228 36.6061C19.0739 36.6061 19.0251 36.6061 18.9747 36.6061C18.9747 36.5572 18.9747 36.5083 18.9747 36.4579Z" fill="white"/>
<path d="M52.2989 57.6374C52.0627 58.2097 51.3729 58.7153 50.8179 58.9703C50.7446 58.9703 50.6712 58.9703 50.5957 58.9703C50.6998 58.7165 50.8071 58.6119 51.04 58.4705C51.3813 58.2547 51.6882 58.01 51.9978 57.7513C52.1508 57.6374 52.1508 57.6374 52.2989 57.6374Z" fill="white"/>
<path d="M14.7536 34.1623C15.1016 34.2796 15.4463 34.4043 15.7904 34.5325C15.6272 34.6308 15.5309 34.6836 15.3383 34.6679C15.2619 34.6467 15.2619 34.6467 15.1841 34.6251C15.1326 34.6117 15.0812 34.5984 15.0282 34.5846C14.9017 34.5325 14.9017 34.5325 14.8277 34.3844C14.4122 34.3844 13.9968 34.3844 13.5688 34.3844C14.0568 33.994 14.1795 33.9994 14.7536 34.1623Z" fill="white"/>
<path d="M54.5206 44.826C54.6006 45.0747 54.589 45.2663 54.5532 45.5238C54.543 45.5997 54.5327 45.6755 54.5222 45.7537C54.5053 45.8719 54.5053 45.8719 54.4882 45.9924C54.4772 46.0723 54.4663 46.1522 54.455 46.2345C54.428 46.4316 54.4005 46.6286 54.3725 46.8255C54.2991 46.8255 54.2258 46.8255 54.1503 46.8255C54.0859 46.7088 54.0229 46.5914 53.9605 46.4737C53.9253 46.4084 53.8901 46.3431 53.8538 46.2759C53.7741 46.0696 53.7752 45.9909 53.8541 45.7887C53.9518 45.9598 54.0496 46.1309 54.1503 46.3071C54.1708 46.2126 54.1913 46.1181 54.2125 46.0207C54.2396 45.8971 54.2667 45.7735 54.2938 45.6499C54.3073 45.5876 54.3208 45.5252 54.3347 45.461C54.3478 45.4013 54.361 45.3417 54.3745 45.2802C54.3865 45.2251 54.3985 45.1701 54.4109 45.1133C54.4465 44.9741 54.4465 44.9741 54.5206 44.826Z" fill="white"/>
<path d="M7.49635 40.8271C7.52079 40.8271 7.54523 40.8271 7.5704 40.8271C7.5704 40.9982 7.5704 41.1693 7.5704 41.3455C7.49709 41.3699 7.42378 41.3944 7.34824 41.4196C7.33679 41.5479 7.33679 41.5479 7.3251 41.6787C7.28394 42.0109 7.18047 42.2971 7.05203 42.6044C7.0085 42.7144 7.0085 42.7144 6.96409 42.8266C6.94423 42.8755 6.92438 42.9243 6.90392 42.9747C6.85504 42.9747 6.80617 42.9747 6.75581 42.9747C6.73137 43.048 6.70694 43.1213 6.68176 43.1968C6.72389 42.7269 6.87527 42.3242 7.0474 41.887C7.07408 41.8177 7.10076 41.7483 7.12825 41.6769C7.24058 41.387 7.35353 41.1035 7.49635 40.8271Z" fill="white"/>
<path d="M67.8503 41.7898C67.8991 41.8143 67.948 41.8387 67.9984 41.8639C67.9006 41.8883 67.8029 41.9128 67.7021 41.9379C67.7021 41.9868 67.7021 42.0357 67.7021 42.086C67.6197 42.1166 67.5372 42.1471 67.4522 42.1786C67.2086 42.2816 67.1389 42.3582 67.0357 42.6044C66.9914 42.6258 66.9471 42.6472 66.9014 42.6692C66.7063 42.7696 66.605 42.9083 66.4707 43.0785C66.3086 43.2674 66.1198 43.413 65.9249 43.5671C65.9249 43.345 65.9249 43.345 66.0738 43.1743C66.1392 43.1115 66.2046 43.0487 66.272 42.9839C66.3364 42.9215 66.4009 42.8591 66.4672 42.7948C66.5653 42.7005 66.5653 42.7005 66.6654 42.6044C66.7259 42.5407 66.7864 42.4769 66.8488 42.4112C67.0413 42.2288 67.2239 42.1095 67.4568 41.9842C67.5274 41.9455 67.5979 41.9067 67.6706 41.8668C67.7595 41.8287 67.7595 41.8287 67.8503 41.7898Z" fill="white"/>
<path d="M75.774 56.0082C75.8473 56.0082 75.9206 56.0082 75.9962 56.0082C75.9962 57.3278 75.9962 58.6474 75.9962 60.0071C75.9717 60.0071 75.9473 60.0071 75.9221 60.0071C75.8977 58.8585 75.8733 57.7099 75.8481 56.5265C75.8236 56.5265 75.7992 56.5265 75.774 56.5265C75.774 56.3555 75.774 56.1844 75.774 56.0082Z" fill="white"/>
<path d="M69.7757 45.1223C69.6749 45.1818 69.6749 45.1818 69.572 45.2426C69.2561 45.4524 69.0805 45.7267 68.9611 46.085C68.9541 46.2175 68.9514 46.3503 68.9518 46.483C68.9516 46.5523 68.9514 46.6216 68.9512 46.693C68.9607 46.8927 68.9905 47.0753 69.0351 47.2698C68.9862 47.2698 68.9374 47.2698 68.887 47.2698C68.7499 46.9789 68.7226 46.7523 68.7296 46.4321C68.731 46.3529 68.7323 46.2738 68.7337 46.1923C68.7363 46.1025 68.7363 46.1025 68.7389 46.0109C68.7878 46.0109 68.8367 46.0109 68.887 46.0109C68.9115 45.8643 68.9359 45.7176 68.9611 45.5666C69.0099 45.5666 69.0588 45.5666 69.1092 45.5666C69.1138 45.5085 69.1183 45.4505 69.1231 45.3907C69.1832 45.1963 69.1832 45.1963 69.3591 45.0945C69.5535 45.0482 69.5535 45.0482 69.7757 45.1223Z" fill="white"/>
<path d="M66.5913 42.5304C66.6402 42.5548 66.6891 42.5792 66.7394 42.6044C66.6849 42.6555 66.6304 42.7066 66.5743 42.7592C66.1493 43.1656 65.7982 43.5403 65.5546 44.0855C65.5057 44.0855 65.4568 44.0855 65.4065 44.0855C65.4004 44.1328 65.3943 44.1802 65.388 44.229C65.3106 44.545 65.1739 44.8283 65.0362 45.1223C64.9323 44.8959 64.9687 44.8081 65.0559 44.5692C65.1035 44.469 65.1525 44.3695 65.2028 44.2706C65.2291 44.2184 65.2553 44.1663 65.2823 44.1125C65.5648 43.5786 65.9381 43.1724 66.3692 42.7525C66.4138 42.7079 66.4583 42.6634 66.5043 42.6174C66.533 42.5887 66.5617 42.56 66.5913 42.5304Z" fill="white"/>
<path d="M75.9962 48.899C76.0206 48.899 76.0451 48.899 76.0702 48.899C76.0702 50.2675 76.0702 51.636 76.0702 53.046C75.9969 53.0216 75.9236 52.9971 75.8481 52.972C75.8481 52.8986 75.8481 52.8253 75.8481 52.7498C75.8969 52.7498 75.9458 52.7498 75.9962 52.7498C75.9962 51.479 75.9962 50.2083 75.9962 48.899Z" fill="white"/>
<path d="M2.97906 48.5287C3.05238 48.5532 3.12569 48.5776 3.20123 48.6028C3.27412 48.8264 3.27412 48.8264 3.33082 49.1073C3.35029 49.1994 3.36977 49.2915 3.38983 49.3864C3.41916 49.6076 3.42579 49.7307 3.34933 49.9358C3.3142 49.8517 3.27907 49.7677 3.24288 49.6812C3.15411 49.4353 3.15411 49.4353 3.05312 49.3433C3.05011 49.2199 3.04995 49.0964 3.05312 48.9731C3.00424 48.9731 2.95537 48.9731 2.90501 48.9731C2.88057 49.0464 2.85613 49.1197 2.83096 49.1952C2.67822 49.2461 2.67822 49.2461 2.53474 49.2693C2.65705 49.0043 2.81488 48.7695 2.97906 48.5287Z" fill="white"/>
<path d="M31.2676 44.3077C31.7875 44.712 32.185 45.2081 32.6006 45.7147C32.5762 45.7636 32.5517 45.8124 32.5266 45.8628C32.1794 45.5952 32.1794 45.5952 32.0822 45.4925C32.0822 45.4192 32.0822 45.3459 32.0822 45.2704C32.0379 45.2505 31.9936 45.2306 31.948 45.2102C31.7861 45.1223 31.6814 45.0411 31.5639 44.9001C31.5639 44.8512 31.5639 44.8023 31.5639 44.752C31.4905 44.7275 31.4172 44.7031 31.3417 44.6779C31.3173 44.5557 31.2928 44.4336 31.2676 44.3077Z" fill="white"/>
<path d="M47.0411 41.4936C48.1201 41.5143 49.1176 41.8211 50.0773 42.3082C49.8337 42.3894 49.7976 42.3812 49.5682 42.2989C49.5089 42.2781 49.4496 42.2573 49.3886 42.2359C49.249 42.183 49.1104 42.1276 48.9726 42.0704C48.3363 41.8096 47.7167 41.6743 47.0411 41.5677C47.0411 41.5432 47.0411 41.5188 47.0411 41.4936Z" fill="white"/>
<path d="M32.9709 50.3801C32.9953 50.429 33.0198 50.4778 33.0449 50.5282C32.9957 50.6502 32.9957 50.6502 32.9142 50.794C32.8849 50.846 32.8556 50.898 32.8254 50.9515C32.794 51.0058 32.7626 51.0601 32.7302 51.116C32.6999 51.17 32.6697 51.224 32.6385 51.2796C32.4964 51.5289 32.3674 51.738 32.1563 51.9352C32.1054 51.8056 32.1054 51.8056 32.0822 51.639C32.1794 51.4724 32.1794 51.4724 32.3044 51.3428C32.3533 51.3428 32.4021 51.3428 32.4525 51.3428C32.4281 51.2695 32.4036 51.1961 32.3785 51.1206C32.4444 50.9745 32.4444 50.9745 32.5451 50.8198C32.5938 50.7429 32.5938 50.7429 32.6434 50.6644C32.7487 50.5282 32.7487 50.5282 32.9709 50.3801Z" fill="white"/>
<path d="M37.1179 47.1217C37.2363 47.4193 37.1434 47.6783 37.0624 47.9733C37.0346 48.079 37.0068 48.1847 36.979 48.2904C36.965 48.3428 36.951 48.3952 36.9365 48.4492C36.8772 48.6726 36.8217 48.8968 36.7661 49.1212C36.7353 49.2446 36.7044 49.368 36.6736 49.4914C36.6491 49.4914 36.6247 49.4914 36.5995 49.4914C36.579 49.0227 36.6489 48.6318 36.7754 48.1816C36.7918 48.1203 36.8082 48.0589 36.8252 47.9957C36.9067 47.6964 36.9937 47.4068 37.1179 47.1217Z" fill="white"/>
<path d="M56.446 42.3082C56.4948 42.3326 56.5437 42.3571 56.5941 42.3823C56.4335 42.6232 56.3197 42.6815 56.0757 42.8266C55.9565 42.9307 55.8408 43.0389 55.7286 43.1506C55.6718 43.2061 55.615 43.2617 55.5564 43.3189C55.3998 43.4854 55.3998 43.4854 55.3291 43.695C55.3066 43.7505 55.2842 43.8061 55.2611 43.8633C55.1878 43.8878 55.1145 43.9122 55.0389 43.9374C55.0389 44.0107 55.0389 44.084 55.0389 44.1596C54.9901 44.1596 54.9412 44.1596 54.8908 44.1596C55.1212 43.4225 55.8198 42.7256 56.446 42.3082Z" fill="white"/>
<path d="M99.175 55.1936C99.2239 55.218 99.2728 55.2425 99.3232 55.2676C99.2184 55.3388 99.1134 55.4097 99.0084 55.4805C98.95 55.5201 98.8916 55.5596 98.8314 55.6003C98.5539 55.7776 98.3138 55.8824 97.9902 55.948C97.8963 55.9679 97.8963 55.9679 97.8004 55.9882C97.6177 56.0084 97.4971 55.9907 97.3237 55.9341C97.4015 55.9055 97.4793 55.8768 97.5595 55.8473C97.6645 55.8084 97.7695 55.7695 97.8745 55.7305C97.9285 55.7104 97.9826 55.6904 98.0382 55.6697C98.333 55.5593 98.6214 55.4428 98.9066 55.3093C98.9952 55.2711 99.0838 55.2329 99.175 55.1936Z" fill="white"/>
<path d="M12.3099 48.5287C12.3587 48.602 12.4076 48.6754 12.458 48.7509C12.3519 48.9193 12.2454 49.0874 12.1386 49.2554C12.1087 49.303 12.0787 49.3506 12.0479 49.3996C12.0186 49.4456 11.9892 49.4917 11.959 49.5392C11.9322 49.5814 11.9054 49.6237 11.8779 49.6673C11.7858 49.7956 11.6837 49.9012 11.5693 50.0098C11.5693 49.8876 11.5693 49.7654 11.5693 49.6395C11.6182 49.6395 11.6671 49.6395 11.7174 49.6395C11.7251 49.5861 11.7327 49.5326 11.7406 49.4775C11.8334 49.0976 12.0637 48.8258 12.3099 48.5287Z" fill="white"/>
<path d="M9.27364 38.0131C9.27364 38.3958 9.04071 38.7373 8.82932 39.0498C8.78044 39.0498 8.73157 39.0498 8.68121 39.0498C8.63234 39.1965 8.58346 39.3431 8.5331 39.4942C8.45979 39.4942 8.38648 39.4942 8.31094 39.4942C8.42716 39.1462 8.6194 38.8795 8.83395 38.587C8.86798 38.5398 8.90201 38.4927 8.93707 38.4441C9.18541 38.1013 9.18541 38.1013 9.27364 38.0131Z" fill="white"/>
<path d="M13.7169 47.1217C13.597 47.4092 13.4089 47.6075 13.1985 47.8345C13.1328 47.9057 13.0671 47.9769 12.9995 48.0503C12.8946 48.1619 12.7884 48.2723 12.6801 48.3806C12.657 48.2186 12.657 48.2186 12.6801 48.0104C12.856 47.8021 12.856 47.8021 13.0504 47.6401C13.0993 47.6401 13.1481 47.6401 13.1985 47.6401C13.2229 47.5423 13.2474 47.4446 13.2726 47.3439C13.3214 47.3439 13.3703 47.3439 13.4207 47.3439C13.4207 47.295 13.4207 47.2461 13.4207 47.1958C13.5688 47.1217 13.5688 47.1217 13.7169 47.1217Z" fill="white"/>
<path d="M44.5233 45.3444C44.4412 45.3675 44.4412 45.3675 44.3575 45.391C43.6496 45.606 43.0373 45.9132 42.5238 46.4552C42.475 46.4308 42.4261 46.4063 42.3757 46.3812C42.5309 45.9931 42.8001 45.8898 43.1588 45.7242C43.346 45.6417 43.346 45.6417 43.5374 45.5157C43.8661 45.3291 44.1587 45.2327 44.5233 45.3444Z" fill="white"/>
<path d="M11.125 36.0136C11.1739 36.0381 11.2227 36.0625 11.2731 36.0877C11.0564 36.4431 10.8057 36.8121 10.4585 37.0504C10.3608 37.0259 10.263 37.0015 10.1623 36.9763C10.48 36.6586 10.7977 36.3409 11.125 36.0136Z" fill="white"/>
<path d="M51.1881 43.0487C51.5868 43.1603 51.8334 43.4308 52.1231 43.7106C52.1725 43.7575 52.222 43.8044 52.2729 43.8528C52.4816 44.0513 52.6882 44.2515 52.8914 44.4558C52.8669 44.5046 52.8425 44.5535 52.8173 44.6039C52.762 44.5468 52.7066 44.4897 52.6495 44.4309C52.5759 44.3559 52.5022 44.2808 52.4285 44.2058C52.3922 44.1682 52.3558 44.1306 52.3183 44.0919C52.1257 43.8966 51.9563 43.7531 51.7065 43.6412C51.5816 43.5192 51.4581 43.3959 51.3362 43.2709C51.2874 43.2465 51.2385 43.222 51.1881 43.1968C51.1881 43.148 51.1881 43.0991 51.1881 43.0487Z" fill="white"/>
<path d="M64.9622 48.5287C65.1566 48.6023 65.2411 48.6397 65.3307 48.8319C65.3465 48.8907 65.3624 48.9495 65.3787 49.0101C65.4513 49.2789 65.4513 49.2789 65.6286 49.4914C65.6819 49.6631 65.7317 49.8359 65.7767 50.0098C65.4851 49.745 65.3199 49.5039 65.1612 49.1443C65.1233 49.06 65.0854 48.9757 65.0463 48.8889C64.9622 48.6768 64.9622 48.6768 64.9622 48.5287Z" fill="white"/>
<path d="M56.7422 59.6368C57.1686 59.7175 57.5858 59.8066 58.0011 59.933C58.0011 59.9819 58.0011 60.0308 58.0011 60.0811C57.5734 60.1068 57.2611 60.1031 56.8903 59.859C56.8414 59.7857 56.7925 59.7123 56.7422 59.6368Z" fill="white"/>
<path d="M6.6077 43.1968C6.63214 43.1968 6.65658 43.1968 6.68176 43.1968C6.68575 43.3665 6.68862 43.5363 6.69101 43.706C6.69273 43.8005 6.69445 43.895 6.69622 43.9924C6.68176 44.2336 6.68176 44.2336 6.53365 44.3817C6.48077 44.5286 6.431 44.6767 6.38554 44.826C6.31247 44.5957 6.31383 44.4436 6.36905 44.2093C6.38266 44.1501 6.39626 44.0909 6.41027 44.03C6.42502 43.9689 6.43977 43.9078 6.45497 43.8448C6.46943 43.7826 6.48389 43.7203 6.49879 43.6562C6.5345 43.503 6.57102 43.3499 6.6077 43.1968Z" fill="white"/>
<path d="M41.2649 42.5304C41.2649 42.5792 41.2649 42.6281 41.2649 42.6785C41.1779 42.6853 41.1779 42.6853 41.089 42.6924C41.0249 42.7122 40.9607 42.7321 40.8946 42.7525C40.8733 42.809 40.8519 42.8656 40.8298 42.9238C40.7056 43.2207 40.5116 43.2773 40.2282 43.419C40.1793 43.3701 40.1304 43.3213 40.0801 43.2709C40.197 43.1749 40.3144 43.0793 40.4318 42.9839C40.4971 42.9307 40.5624 42.8774 40.6297 42.8225C41.0169 42.5304 41.0169 42.5304 41.2649 42.5304Z" fill="white"/>
<path d="M13.0504 42.2341C13.0504 42.283 13.0504 42.3319 13.0504 42.3823C12.9771 42.3823 12.9038 42.3823 12.8282 42.3823C12.8243 42.4261 12.8204 42.4699 12.8164 42.515C12.7248 42.7557 12.5758 42.8062 12.3515 42.9238C12.2783 42.9632 12.2051 43.0026 12.1296 43.0432C12.0669 43.0695 12.0042 43.0957 11.9396 43.1228C11.8907 43.0984 11.8418 43.0739 11.7915 43.0487C12.8212 42.2341 12.8212 42.2341 13.0504 42.2341Z" fill="white"/>
<path d="M23.2698 40.1606C23.913 40.1909 24.506 40.3546 25.1212 40.5309C25.1212 40.5553 25.1212 40.5798 25.1212 40.605C24.8768 40.605 24.6324 40.605 24.3806 40.605C24.3806 40.5561 24.3806 40.5072 24.3806 40.4569C24.2936 40.4477 24.2065 40.4385 24.1168 40.4291C23.8222 40.3928 23.5529 40.3232 23.2698 40.2347C23.2698 40.2103 23.2698 40.1858 23.2698 40.1606Z" fill="white"/>
<path d="M54.9649 49.4174C55.0138 49.4418 55.0626 49.4663 55.113 49.4914C55.0886 50.3712 55.0641 51.2509 55.0389 52.1574C55.0145 52.1574 54.9901 52.1574 54.9649 52.1574C54.9525 51.7791 54.9406 51.4008 54.9292 51.0224C54.9252 50.8936 54.9211 50.7648 54.9169 50.636C54.9108 50.4513 54.9053 50.2666 54.8998 50.0818C54.8978 50.0239 54.8958 49.966 54.8937 49.9063C54.8899 49.7681 54.8899 49.6297 54.8908 49.4914C54.9153 49.467 54.9397 49.4426 54.9649 49.4174Z" fill="white"/>
<path d="M60.0746 48.5287C60.4574 48.5778 60.7872 48.7449 61.1345 48.9036C61.2274 48.9455 61.2274 48.9455 61.3221 48.9882C61.4742 49.0569 61.6261 49.1259 61.7778 49.1952C61.5557 49.2693 61.5557 49.2693 61.4142 49.2195C61.3616 49.1932 61.309 49.1668 61.2548 49.1397C60.9413 48.9898 60.6312 48.8944 60.2944 48.8108C60.2463 48.791 60.1982 48.7713 60.1487 48.7509C60.1242 48.6776 60.0998 48.6043 60.0746 48.5287Z" fill="white"/>
<path d="M26.6763 46.2331C26.8337 46.2007 26.8337 46.2007 27.0466 46.2331C27.1714 46.3575 27.274 46.4885 27.3778 46.6308C27.51 46.7719 27.5988 46.7967 27.7871 46.8255C27.8115 46.9477 27.836 47.0699 27.8612 47.1958C27.7207 47.0904 27.5803 46.9851 27.44 46.8796C27.3262 46.7944 27.212 46.7098 27.0975 46.6256C27.044 46.5862 26.9906 46.5468 26.9355 46.5061C26.8859 46.4698 26.8362 46.4334 26.7851 46.3959C26.7492 46.3666 26.7133 46.3373 26.6763 46.3071C26.6763 46.2827 26.6763 46.2582 26.6763 46.2331Z" fill="white"/>
<path d="M40.0801 43.345C40.1289 43.3694 40.1778 43.3938 40.2282 43.419C40.1327 43.5209 40.0336 43.6195 39.9319 43.7152C39.8831 43.7152 39.8342 43.7152 39.7838 43.7152C39.7594 43.7885 39.735 43.8619 39.7098 43.9374C39.5808 44.0621 39.5808 44.0621 39.4228 44.1919C39.2576 44.3282 39.1236 44.4473 38.9964 44.6204C38.963 44.6638 38.9296 44.7072 38.8952 44.752C38.8463 44.752 38.7974 44.752 38.7471 44.752C38.8649 44.46 39.0672 44.2643 39.2886 44.0485C39.3237 44.0134 39.3588 43.9784 39.3949 43.9423C39.6123 43.7276 39.8383 43.5317 40.0801 43.345Z" fill="white"/>
<path d="M90.9551 59.4146C91.3901 59.4794 91.3901 59.4794 91.4734 59.5628C91.5856 59.5799 91.6984 59.5933 91.8113 59.6044C91.8725 59.6106 91.9337 59.6168 91.9967 59.6232C92.044 59.6277 92.0912 59.6322 92.1399 59.6368C92.1399 59.6857 92.1399 59.7346 92.1399 59.7849C92.1888 59.7849 92.2377 59.7849 92.288 59.7849C92.288 59.8338 92.288 59.8827 92.288 59.933C92.3614 59.9575 92.4347 59.9819 92.5102 60.0071C92.1155 59.9669 91.8008 59.8703 91.441 59.7062C91.3939 59.6854 91.3468 59.6645 91.2983 59.643C91.1836 59.5922 91.0693 59.5405 90.9551 59.4887C90.9551 59.4643 90.9551 59.4398 90.9551 59.4146Z" fill="white"/>
<path d="M75.7 56.5265C75.7244 56.5754 75.7488 56.6243 75.774 56.6747C75.6367 57.0488 75.4089 57.3867 75.1816 57.7114C75.1327 57.687 75.0838 57.6625 75.0335 57.6374C75.0628 57.5274 75.094 57.4179 75.1261 57.3087C75.1518 57.2172 75.1518 57.2172 75.1781 57.1239C75.2037 57.0734 75.2293 57.0229 75.2556 56.9709C75.4061 56.9246 75.4061 56.9246 75.5519 56.8968C75.6479 56.7124 75.6479 56.7124 75.7 56.5265Z" fill="white"/>
<path d="M71.0346 48.7509C71.451 48.8801 71.8546 49.0307 72.2565 49.1998C72.3905 49.2561 72.3905 49.2561 72.5272 49.3135C72.7378 49.4174 72.7378 49.4174 72.8119 49.5655C72.4719 49.5183 72.1865 49.3816 71.8816 49.2322C71.4724 49.0263 71.4724 49.0263 71.0346 48.899C71.0346 48.8501 71.0346 48.8012 71.0346 48.7509Z" fill="white"/>
<path d="M58.6676 45.5666C58.6435 45.6297 58.6435 45.6297 58.619 45.6941C58.429 46.221 58.4116 46.6431 58.5195 47.1958C58.4095 47.1142 58.4095 47.1142 58.2973 46.9736C58.273 46.7543 58.273 46.7543 58.2788 46.5015C58.2799 46.4185 58.2811 46.3354 58.2823 46.2498C58.2956 46.0376 58.3134 45.8451 58.3714 45.6406C58.5195 45.5666 58.5195 45.5666 58.6676 45.5666Z" fill="white"/>
<path d="M56.2238 42.6044C56.2971 42.6289 56.3704 42.6533 56.446 42.6785C56.1004 43.0241 55.7548 43.3696 55.4092 43.7152C55.3848 43.6419 55.3603 43.5686 55.3352 43.4931C55.6284 43.1998 55.9217 42.9066 56.2238 42.6044Z" fill="white"/>
<path d="M71.4789 59.933C71.4034 60.0409 71.4034 60.0409 71.2567 60.1552C71.062 60.1831 70.8827 60.1997 70.6874 60.2061C70.6355 60.2086 70.5835 60.2112 70.5299 60.2138C70.402 60.2199 70.274 60.2247 70.1459 60.2292C70.5497 59.9011 70.973 59.9227 71.4789 59.933Z" fill="white"/>
<path d="M62.7405 59.1184C62.765 59.1673 62.7894 59.2162 62.8146 59.2665C62.6314 59.4628 62.4757 59.6158 62.2222 59.7109C62.1244 59.7109 62.0267 59.7109 61.9259 59.7109C62 59.4887 62 59.4887 62.1692 59.386C62.2371 59.3542 62.305 59.3224 62.3749 59.2897C62.443 59.2573 62.511 59.225 62.5812 59.1916C62.66 59.1554 62.66 59.1554 62.7405 59.1184Z" fill="white"/>
<path d="M55.3352 55.4898C55.384 55.4898 55.4329 55.4898 55.4833 55.4898C55.4833 55.6379 55.4833 55.6379 55.3259 55.7999C55.2759 55.8477 55.2759 55.8477 55.2249 55.8965C55.0263 56.0947 54.8489 56.3117 54.6687 56.5265C54.6442 56.4532 54.6198 56.3799 54.5946 56.3044C54.7145 56.1682 54.8349 56.0325 54.9556 55.8971C54.9897 55.8582 55.0238 55.8194 55.0589 55.7794C55.1479 55.68 55.2413 55.5846 55.3352 55.4898ZM54.4465 56.5265C54.4954 56.551 54.5443 56.5754 54.5946 56.6006C54.4969 56.6984 54.3991 56.7961 54.2984 56.8968C54.2984 56.6747 54.2984 56.6747 54.4465 56.5265Z" fill="white"/>
<path d="M27.7131 51.4909C27.7375 51.4909 27.7619 51.4909 27.7871 51.4909C27.8897 51.8948 27.953 52.2586 27.9352 52.6757C27.8863 52.6757 27.8375 52.6757 27.7871 52.6757C27.8116 52.7491 27.836 52.8224 27.8612 52.8979C27.8123 52.9223 27.7634 52.9468 27.7131 52.972C27.7131 52.4832 27.7131 51.9945 27.7131 51.4909Z" fill="white"/>
<path d="M75.9221 51.2687C75.9466 51.2687 75.971 51.2687 75.9962 51.2687C75.9962 51.7575 75.9962 52.2462 75.9962 52.7498C75.774 52.6757 75.774 52.6757 75.6444 52.4675C75.5529 52.2341 75.531 52.1596 75.6259 51.9352C75.6992 52.0818 75.7725 52.2285 75.8481 52.3795C75.8725 52.013 75.8969 51.6464 75.9221 51.2687Z" fill="white"/>
<path d="M6.4596 44.3817C6.48403 44.3817 6.50847 44.3817 6.53365 44.3817C6.52723 44.6009 6.51932 44.8198 6.51051 45.0389C6.50884 45.1013 6.50717 45.1636 6.50545 45.2278C6.50151 45.3173 6.50151 45.3173 6.49749 45.4086C6.49555 45.4637 6.49361 45.5188 6.49161 45.5755C6.4596 45.7147 6.4596 45.7147 6.23743 45.8628C6.24595 45.6992 6.25539 45.5357 6.2652 45.3722C6.27036 45.2811 6.27551 45.19 6.28083 45.0962C6.31011 44.8381 6.36796 44.6238 6.4596 44.3817Z" fill="white"/>
<path d="M17.7898 35.6434C18.2279 35.8468 18.5974 36.0828 18.9747 36.3839C18.8266 36.4579 18.8266 36.4579 18.6368 36.4024C18.4563 36.3098 18.4563 36.3098 18.3823 36.0877C18.2845 36.0877 18.1868 36.0877 18.0861 36.0877C18.0616 36.0388 18.0372 35.9899 18.012 35.9396C17.9631 35.9396 17.9142 35.9396 17.8639 35.9396C17.8395 35.8418 17.815 35.7441 17.7898 35.6434Z" fill="white"/>
<path d="M65.8508 58.8963C66.1315 59.0036 66.3979 59.1297 66.6654 59.2665C66.6654 59.3399 66.6654 59.4132 66.6654 59.4887C66.3316 59.4494 66.1134 59.3261 65.8508 59.1184C65.8508 59.0451 65.8508 58.9718 65.8508 58.8963Z" fill="white"/>
<path d="M46.9671 45.2704C47.552 45.2029 47.945 45.4329 48.4481 45.7147C48.4481 45.7636 48.4481 45.8124 48.4481 45.8628C48.158 45.7687 47.87 45.6687 47.5826 45.5666C47.4791 45.5299 47.4791 45.5299 47.3735 45.4925C47.1892 45.4185 47.1892 45.4185 46.9671 45.2704Z" fill="white"/>
<path d="M10.0882 37.0504C10.1357 37.1869 10.1357 37.1869 10.1623 37.3466C9.99567 37.5317 9.99567 37.5317 9.79202 37.7169C9.75231 37.7734 9.7126 37.8299 9.67168 37.8881C9.63808 37.9294 9.60448 37.9706 9.56986 38.0131C9.49655 38.0131 9.42323 38.0131 9.3477 38.0131C9.45993 37.7555 9.61261 37.572 9.80128 37.3651C9.85493 37.3059 9.90857 37.2467 9.96385 37.1858C10.0254 37.1187 10.0254 37.1187 10.0882 37.0504Z" fill="white"/>
<path d="M18.3082 52.7498C18.3327 52.8231 18.3571 52.8964 18.3823 52.972C17.6854 53.312 17.6854 53.312 17.3455 53.2682C17.3455 53.1949 17.3455 53.1215 17.3455 53.046C17.3964 53.037 17.4473 53.0281 17.4997 53.0188C17.5998 53.0002 17.5998 53.0002 17.7019 52.9812C17.7681 52.9692 17.8342 52.9572 17.9024 52.9448C18.1029 52.9044 18.1029 52.9044 18.3082 52.7498Z" fill="white"/>
<path d="M25.7136 45.6406C26.113 45.6726 26.3656 45.7533 26.6763 46.0109C26.6763 46.0842 26.6763 46.1575 26.6763 46.2331C26.3265 46.1128 26.0141 45.9287 25.7136 45.7147C25.7136 45.6902 25.7136 45.6658 25.7136 45.6406Z" fill="white"/>
<path d="M31.8601 52.0833C31.8845 52.1322 31.909 52.1811 31.9341 52.2314C31.8552 52.3557 31.7746 52.4789 31.6935 52.6017C31.6264 52.7048 31.6264 52.7048 31.5581 52.81C31.5111 52.8634 31.4641 52.9169 31.4158 52.972C31.318 52.972 31.2202 52.972 31.1195 52.972C31.1195 52.8498 31.1195 52.7276 31.1195 52.6017C31.2173 52.6017 31.315 52.6017 31.4158 52.6017C31.5474 52.4899 31.5474 52.4899 31.6564 52.3425C31.695 52.2944 31.7336 52.2463 31.7733 52.1967C31.8019 52.1593 31.8306 52.1219 31.8601 52.0833Z" fill="white"/>
<path d="M98.4345 59.6368C98.4345 59.6857 98.4345 59.7346 98.4345 59.7849C98.0062 59.9339 97.6272 59.9494 97.1756 59.933C97.2 59.8841 97.2245 59.8353 97.2496 59.7849C97.4409 59.7381 97.4409 59.7381 97.6801 59.7016C97.7976 59.683 97.7976 59.683 97.9176 59.664C98.1383 59.6368 98.1383 59.6368 98.4345 59.6368Z" fill="white"/>
<path d="M61.9259 45.6406C62.3816 45.684 62.3816 45.684 62.5184 45.7147C62.5428 45.7636 62.5673 45.8124 62.5924 45.8628C62.6657 45.8628 62.7391 45.8628 62.8146 45.8628C62.8635 45.7895 62.9123 45.7162 62.9627 45.6406C63.0116 45.6651 63.0605 45.6895 63.1108 45.7147C63.0131 45.8369 62.9153 45.9591 62.8146 46.085C62.4625 46.0423 62.2243 45.8961 61.9259 45.7147C61.9259 45.6902 61.9259 45.6658 61.9259 45.6406Z" fill="white"/>
<path d="M53.0395 56.6747C53.0639 56.748 53.0884 56.8213 53.1135 56.8968C53.0677 56.9396 53.0219 56.9823 52.9747 57.0264C52.8122 57.1793 52.8122 57.1793 52.7479 57.355C52.6692 57.4892 52.6692 57.4892 52.4748 57.5448C52.4168 57.5509 52.3587 57.557 52.2989 57.5633C52.7544 56.9378 52.7544 56.9378 53.0395 56.6747Z" fill="white"/>
<path d="M30.9714 51.9352C31.1798 52.1436 31.1691 52.3126 31.1936 52.6017C31.1612 52.8192 31.1612 52.8192 31.1195 52.972C31.0707 52.9475 31.0218 52.9231 30.9714 52.8979C30.8848 52.6033 30.8856 52.3145 30.8974 52.0093C30.9218 51.9848 30.9462 51.9604 30.9714 51.9352Z" fill="white"/>
<path d="M17.6417 44.9741C17.6662 45.0719 17.6906 45.1696 17.7158 45.2704C17.6711 45.2633 17.6264 45.2562 17.5804 45.249C17.5212 45.2407 17.462 45.2325 17.4011 45.2241C17.3426 45.2155 17.2842 45.2069 17.224 45.198C17.0238 45.1961 16.9285 45.2552 16.7531 45.3444C16.6798 45.32 16.6065 45.2955 16.5309 45.2704C16.6287 45.2459 16.7264 45.2215 16.8271 45.1963C16.8271 45.1474 16.8271 45.0986 16.8271 45.0482C17.0992 44.9611 17.3581 44.9687 17.6417 44.9741Z" fill="white"/>
<path d="M25.1952 40.605C25.6569 40.7227 26.0959 40.8476 26.5282 41.0493C26.5282 41.0737 26.5282 41.0982 26.5282 41.1233C26.0691 41.1608 25.8683 41.0618 25.4914 40.8271C25.3233 40.7708 25.3233 40.7708 25.1952 40.7531C25.1952 40.7042 25.1952 40.6553 25.1952 40.605Z" fill="white"/>
<path d="M15.1239 38.3833C15.1972 38.4078 15.2705 38.4322 15.3461 38.4574C15.0891 38.7465 14.7868 38.9288 14.4574 39.1239C14.4574 39.0506 14.4574 38.9773 14.4574 38.9017C14.5063 38.9017 14.5552 38.9017 14.6055 38.9017C14.63 38.8284 14.6544 38.7551 14.6796 38.6796C14.8925 38.5129 14.8925 38.5129 15.1239 38.3833Z" fill="white"/>
<path d="M16.8271 37.4206C16.9493 37.4451 17.0715 37.4695 17.1974 37.4947C16.9204 37.7356 16.5818 37.8978 16.2347 38.0131C16.1858 37.9886 16.137 37.9642 16.0866 37.939C16.3327 37.6474 16.3327 37.6474 16.5865 37.6243C16.6414 37.6304 16.6964 37.6365 16.7531 37.6428C16.7775 37.5695 16.802 37.4962 16.8271 37.4206Z" fill="white"/>
<path d="M41.413 59.1184C41.5476 59.1621 41.6817 59.2071 41.8157 59.2527C41.8904 59.2776 41.9652 59.3025 42.0422 59.3282C42.1034 59.3567 42.1646 59.3852 42.2276 59.4146C42.2521 59.488 42.2765 59.5613 42.3017 59.6368C42.3864 59.6506 42.3864 59.6506 42.4729 59.6646C42.6719 59.7109 42.6719 59.7109 42.8941 59.859C42.4501 59.8397 42.1716 59.6821 41.8007 59.4424C41.6327 59.3304 41.6327 59.3304 41.413 59.2665C41.413 59.2177 41.413 59.1688 41.413 59.1184Z" fill="white"/>
<path d="M21.4925 53.6384C21.5414 53.6629 21.5903 53.6873 21.6406 53.7125C21.5483 53.8299 21.4557 53.9471 21.3629 54.0643C21.3114 54.1296 21.2598 54.1948 21.2067 54.2621C21.0631 54.4352 20.9138 54.5933 20.752 54.7493C20.7031 54.7248 20.6542 54.7004 20.6039 54.6752C20.6528 54.6019 20.7016 54.5286 20.752 54.453C20.8009 54.453 20.8497 54.453 20.9001 54.453C20.9245 54.3797 20.949 54.3064 20.9742 54.2309C21.023 54.2309 21.0719 54.2309 21.1223 54.2309C21.1421 54.1881 21.162 54.1453 21.1824 54.1013C21.2716 53.9322 21.3746 53.7885 21.4925 53.6384Z" fill="white"/>
<path d="M16.1607 48.6028C16.0543 48.8738 15.9356 48.9661 15.6793 49.098C15.6205 49.1289 15.5617 49.1597 15.5011 49.1915C15.4001 49.2422 15.299 49.2928 15.198 49.3433C15.3054 49.0746 15.4379 48.9616 15.6793 48.8064C15.7675 48.7486 15.7675 48.7486 15.8575 48.6896C16.0125 48.6028 16.0125 48.6028 16.1607 48.6028Z" fill="white"/>
<path d="M18.6785 45.6406C18.9326 45.7324 19.1453 45.826 19.345 46.0109C19.345 46.0842 19.345 46.1575 19.345 46.2331C19.0406 46.1256 18.7946 45.973 18.5304 45.7887C18.5793 45.7399 18.6281 45.691 18.6785 45.6406Z" fill="white"/>
<path d="M75.4778 43.1228C75.5511 43.1472 75.6244 43.1717 75.7 43.1968C75.6645 43.5142 75.4616 43.6981 75.251 43.9189C75.216 43.9564 75.181 43.9939 75.145 44.0326C75.0589 44.1247 74.9722 44.2162 74.8854 44.3077C74.8854 44.2343 74.8854 44.161 74.8854 44.0855C75.0088 43.9621 75.1322 43.8387 75.2556 43.7152C75.3194 43.5543 75.3194 43.5543 75.3297 43.419C75.403 43.419 75.4763 43.419 75.5519 43.419C75.5274 43.3213 75.503 43.2235 75.4778 43.1228Z" fill="white"/>
<path d="M15.5682 40.9012C15.6171 40.9256 15.666 40.9501 15.7163 40.9752C15.4288 41.1806 15.1732 41.3369 14.8277 41.4196C14.6663 41.3857 14.6663 41.3857 14.5315 41.3455C14.6625 41.2852 14.7937 41.2251 14.9249 41.165C14.9979 41.1315 15.0709 41.098 15.1462 41.0635C15.3461 40.9752 15.3461 40.9752 15.5682 40.9012Z" fill="white"/>
<path d="M17.1234 40.5309C16.8765 40.6296 16.6297 40.7284 16.3828 40.8271C16.2882 40.8732 16.2882 40.8732 16.1916 40.9203C16.0125 40.9752 16.0125 40.9752 15.8413 40.9104C15.8001 40.8829 15.7588 40.8555 15.7163 40.8271C15.895 40.7629 16.0739 40.6998 16.2532 40.6374C16.3037 40.6191 16.3542 40.6008 16.4062 40.582C16.8703 40.422 16.8703 40.422 17.1234 40.5309Z" fill="white"/>
<path d="M21.7887 60.5995C21.8132 60.6728 21.8376 60.7461 21.8628 60.8217C21.7535 60.9949 21.7535 60.9949 21.5944 61.1873C21.543 61.2506 21.4916 61.3139 21.4387 61.3791C21.2714 61.561 21.097 61.7096 20.9001 61.8584C21.0015 61.64 21.1133 61.4493 21.2704 61.266C21.3192 61.266 21.3681 61.266 21.4185 61.266C21.4483 61.1835 21.4483 61.1835 21.4786 61.0994C21.5623 60.9056 21.6561 60.7623 21.7887 60.5995Z" fill="white"/>
<path d="M64.4438 57.8595C64.6271 57.9328 64.6271 57.9328 64.814 58.0076C64.814 58.0565 64.814 58.1054 64.814 58.1557C64.8583 58.1756 64.9026 58.1954 64.9483 58.2159C65.1082 58.3027 65.2108 58.3922 65.3324 58.526C65.1649 58.5442 65.1649 58.5442 64.9622 58.526C64.8126 58.399 64.8126 58.399 64.6798 58.2344C64.6127 58.1532 64.6127 58.1532 64.5442 58.0704C64.4438 57.9336 64.4438 57.9336 64.4438 57.8595Z" fill="white"/>
<path d="M27.8612 47.1958C28.1865 47.2845 28.3932 47.3698 28.6017 47.6401C28.6572 47.8437 28.6572 47.8437 28.6758 48.0104C28.3695 47.76 28.0972 47.5167 27.8612 47.1958Z" fill="white"/>
<path d="M20.1596 46.8995C20.3883 46.925 20.5129 46.9604 20.6965 47.1032C20.8392 47.2868 20.8747 47.4113 20.9001 47.6401C20.346 47.1846 20.346 47.1846 20.1596 46.8995Z" fill="white"/>
<path d="M11.125 50.8985C11.1983 50.8985 11.2716 50.8985 11.3472 50.8985C11.4951 51.2036 11.5085 51.4503 11.4953 51.7871C11.2972 51.589 11.2252 51.3803 11.125 51.1206C11.125 51.0473 11.125 50.974 11.125 50.8985Z" fill="white"/>
<path d="M66.5173 50.7503C66.8855 50.8608 67.2148 51.0173 67.554 51.1947C67.554 51.2435 67.554 51.2924 67.554 51.3428C67.6029 51.3672 67.6518 51.3917 67.7021 51.4168C67.4577 51.3657 67.2502 51.2771 67.0264 51.1669C66.9621 51.1358 66.8977 51.1047 66.8314 51.0726C66.6654 50.9725 66.6654 50.9725 66.5173 50.7503Z" fill="white"/>
<path d="M42.2276 46.5293C42.2276 46.8109 42.1434 46.883 41.9684 47.0986C41.8963 47.1883 41.8963 47.1883 41.8226 47.2799C41.7852 47.3255 41.7478 47.371 41.7092 47.4179C41.6352 47.1958 41.6352 47.1958 41.6768 47.0153C41.8151 46.7687 41.9869 46.6706 42.2276 46.5293Z" fill="white"/>
<path d="M53.78 45.7887C53.9534 45.9463 54.0545 46.0935 54.1503 46.3071C54.1992 46.2094 54.248 46.1116 54.2984 46.0109C54.2984 46.2064 54.2984 46.4019 54.2984 46.6033C54.2251 46.6033 54.1518 46.6033 54.0762 46.6033C53.78 46.122 53.78 46.122 53.78 45.7887Z" fill="white"/>
<path d="M15.9616 37.9622C16.0029 37.979 16.0441 37.9958 16.0866 38.0131C15.8496 38.2162 15.6419 38.356 15.3461 38.4574C15.3599 38.3232 15.3599 38.3232 15.4201 38.1612C15.7163 37.929 15.7163 37.929 15.9616 37.9622Z" fill="white"/>
<path d="M63.7032 58.4519C63.6774 58.693 63.6276 58.7495 63.4394 58.9148C63.3799 58.9576 63.3203 59.0003 63.2589 59.0444C63.1856 58.9955 63.1123 58.9466 63.0368 58.8963C63.1197 58.8218 63.2031 58.7478 63.2867 58.6741C63.3563 58.6123 63.3563 58.6123 63.4273 58.5491C63.5551 58.4519 63.5551 58.4519 63.7032 58.4519Z" fill="white"/>
<path d="M11.4953 42.5304C11.5686 42.5304 11.6419 42.5304 11.7174 42.5304C11.6507 42.7399 11.5867 42.9408 11.486 43.1367C11.4051 43.2794 11.4051 43.2794 11.4212 43.4931C11.3723 43.4931 11.3235 43.4931 11.2731 43.4931C11.2487 43.3709 11.2242 43.2487 11.199 43.1228C11.2724 43.0984 11.3457 43.0739 11.4212 43.0487C11.4197 42.977 11.4182 42.9052 11.4166 42.8312C11.4212 42.6044 11.4212 42.6044 11.4953 42.5304Z" fill="white"/>
<path d="M48.6703 59.7109C48.6459 59.7597 48.6214 59.8086 48.5962 59.859C48.5474 59.859 48.4985 59.859 48.4481 59.859C48.4481 59.9078 48.4481 59.9567 48.4481 60.0071C48.2771 60.0071 48.106 60.0071 47.9298 60.0071C47.9053 59.9582 47.8809 59.9093 47.8557 59.859C48.1388 59.7536 48.3676 59.6931 48.6703 59.7109Z" fill="white"/>
<path d="M22.2331 52.6017C22.2819 52.6017 22.3308 52.6017 22.3812 52.6017C22.2127 53.0554 22.0361 53.3499 21.6406 53.6384C21.7182 53.3986 21.8153 53.2255 21.9785 53.0368C22.1695 52.8382 22.1695 52.8382 22.2331 52.6017Z" fill="white"/>
<path d="M15.4201 52.6757C15.92 52.7313 15.92 52.7313 16.0866 52.8979C16.0866 52.9712 16.0866 53.0445 16.0866 53.1201C15.7641 53.0341 15.5944 52.9663 15.4201 52.6757Z" fill="white"/>
<path d="M3.86771 51.1947C4.01592 51.3833 4.15336 51.5614 4.23798 51.7871C4.21021 51.9537 4.21021 51.9537 4.16393 52.0833C4.16393 52.0344 4.16393 51.9856 4.16393 51.9352C4.09061 51.9108 4.0173 51.8863 3.94176 51.8612C3.83229 51.6422 3.86324 51.4359 3.86771 51.1947Z" fill="white"/>
<path d="M50.8919 50.1579C50.9164 50.1579 50.9408 50.1579 50.966 50.1579C50.9848 50.4247 51.0011 50.6916 51.0169 50.9586C51.0223 51.0345 51.0277 51.1103 51.0332 51.1884C51.0373 51.2612 51.0413 51.334 51.0455 51.409C51.0498 51.4761 51.0541 51.5432 51.0585 51.6123C51.04 51.7871 51.04 51.7871 50.8179 52.0093C50.8423 51.3983 50.8667 50.7874 50.8919 50.1579Z" fill="white"/>
<path d="M29.8606 43.0487C30.1635 43.218 30.4133 43.4158 30.6752 43.6412C30.6019 43.6778 30.6019 43.6778 30.5271 43.7152C30.4538 43.6908 30.3805 43.6664 30.3049 43.6412C30.3049 43.5923 30.3049 43.5434 30.3049 43.4931C30.2591 43.4839 30.2133 43.4747 30.1661 43.4653C30.0087 43.419 30.0087 43.419 29.8606 43.2709C29.8606 43.1976 29.8606 43.1243 29.8606 43.0487Z" fill="white"/>
<path d="M64.8881 45.1223C64.937 45.1223 64.9859 45.1223 65.0362 45.1223C65.0255 45.2063 65.0148 45.2903 65.0038 45.3768C64.9619 45.7112 64.9246 46.0461 64.8881 46.3812C64.8637 46.3812 64.8392 46.3812 64.814 46.3812C64.812 46.213 64.8106 46.0448 64.8094 45.8767C64.8081 45.7362 64.8081 45.7362 64.8068 45.5929C64.814 45.3444 64.814 45.3444 64.8881 45.1223Z" fill="white"/>
<path d="M9.27364 38.0131C9.27364 38.2955 9.19697 38.4388 9.05148 38.6796C8.85246 38.8184 8.85246 38.8184 8.68121 38.9017C8.78561 38.6767 8.90994 38.4875 9.06074 38.2908C9.10064 38.2385 9.14054 38.1862 9.18165 38.1323C9.21201 38.0929 9.24237 38.0536 9.27364 38.0131Z" fill="white"/>
<path d="M99.2491 59.4146C99.2491 59.4635 99.2491 59.5124 99.2491 59.5628C98.981 59.6602 98.7977 59.7109 98.5086 59.7109C98.533 59.6376 98.5574 59.5642 98.5826 59.4887C98.8022 59.4024 99.0155 59.4082 99.2491 59.4146Z" fill="white"/>
<path d="M0.757448 52.6757C0.841834 52.9289 0.820855 52.9734 0.729677 53.2126C0.624621 53.5057 0.568167 53.7737 0.535286 54.0828C0.510848 54.0828 0.48641 54.0828 0.461232 54.0828C0.434437 53.6005 0.513112 53.2024 0.683394 52.7498C0.707831 52.7254 0.732269 52.7009 0.757448 52.6757Z" fill="white"/>
<path d="M48.9665 46.2331C49.2222 46.3425 49.3849 46.4877 49.5775 46.6866C49.6298 46.7403 49.6821 46.7939 49.736 46.8492C49.795 46.9108 49.795 46.9108 49.8552 46.9736C49.8307 47.0469 49.8063 47.1202 49.7811 47.1958C49.6451 47.0494 49.5094 46.9028 49.3738 46.7561C49.3155 46.6934 49.3155 46.6934 49.2561 46.6295C48.9665 46.3155 48.9665 46.3155 48.9665 46.2331Z" fill="white"/>
<path d="M15.7904 34.6066C16.1586 34.7171 16.4879 34.8735 16.8271 35.0509C16.5482 35.1439 16.4293 35.0784 16.1607 34.9769C16.1607 34.928 16.1607 34.8791 16.1607 34.8288C16.0385 34.8288 15.9163 34.8288 15.7904 34.8288C15.7904 34.7554 15.7904 34.6821 15.7904 34.6066Z" fill="white"/>
<path d="M56.0757 59.4887C56.5241 59.4742 56.5241 59.4742 56.6681 59.4887C56.8162 59.6368 56.8162 59.6368 56.8903 59.859C56.7821 59.8256 56.6742 59.7915 56.5663 59.7571C56.5062 59.7382 56.446 59.7193 56.3841 59.6999C56.2238 59.6368 56.2238 59.6368 56.0757 59.4887Z" fill="white"/>
<path d="M19.345 46.2331C19.6625 46.2683 19.809 46.3559 20.0115 46.6033C20.0115 46.6522 20.0115 46.7011 20.0115 46.7514C19.7288 46.6363 19.5529 46.4526 19.345 46.2331Z" fill="white"/>
<path d="M13.7909 41.7898C13.7665 41.8876 13.7421 41.9853 13.7169 42.086C13.4969 42.1349 13.277 42.1838 13.0504 42.2341C13.4947 41.7898 13.4947 41.7898 13.7909 41.7898Z" fill="white"/>
<path d="M11.8655 35.4212C11.9144 35.4456 11.9633 35.4701 12.0136 35.4952C11.8322 35.849 11.8322 35.849 11.6434 35.9257C11.4953 35.9396 11.4953 35.9396 11.2731 35.9396C11.4686 35.7685 11.6641 35.5974 11.8655 35.4212Z" fill="white"/>
<path d="M16.8271 35.125C17.1846 35.2296 17.4726 35.379 17.7898 35.5693C17.7898 35.5937 17.7898 35.6182 17.7898 35.6434C17.6432 35.6434 17.4966 35.6434 17.3455 35.6434C17.3455 35.57 17.3455 35.4967 17.3455 35.4212C17.1256 35.3845 17.1256 35.3845 16.9012 35.3471C16.8768 35.2738 16.8523 35.2005 16.8271 35.125Z" fill="white"/>
<path d="M90.0664 58.6741C90.2006 58.6834 90.2006 58.6834 90.3626 58.7482C90.4922 58.975 90.4922 58.975 90.5848 59.1925C90.4089 59.1416 90.4089 59.1416 90.2145 59.0444C90.1173 58.85 90.1173 58.85 90.0664 58.6741Z" fill="white"/>
<path d="M63.9995 58.0076C64.0728 58.0076 64.1461 58.0076 64.2216 58.0076C64.1958 58.2487 64.146 58.3052 63.9578 58.4705C63.8982 58.5132 63.8387 58.556 63.7773 58.6001C63.7529 58.5267 63.7284 58.4534 63.7032 58.3779C63.7766 58.3779 63.8499 58.3779 63.9254 58.3779C63.9498 58.2557 63.9743 58.1335 63.9995 58.0076Z" fill="white"/>
<path d="M22.9736 50.7503C23.0225 50.7748 23.0714 50.7992 23.1217 50.8244C23.142 51.2239 23.1484 51.4553 22.8996 51.7871C22.8751 51.7382 22.8507 51.6893 22.8255 51.639C22.8484 51.5855 22.8713 51.5321 22.8949 51.477C22.99 51.2253 22.9841 51.0173 22.9736 50.7503Z" fill="white"/>
<path d="M36.6736 49.1952C36.7225 49.1952 36.7713 49.1952 36.8217 49.1952C36.8349 49.532 36.8215 49.7787 36.6736 50.0839C36.6491 50.0839 36.6247 50.0839 36.5995 50.0839C36.5889 49.4491 36.5889 49.4491 36.6736 49.1952Z" fill="white"/>
<path d="M13.7169 47.1217C13.6065 47.4028 13.4387 47.5372 13.1985 47.7141C13.2229 47.5919 13.2474 47.4698 13.2726 47.3439C13.3214 47.3439 13.3703 47.3439 13.4207 47.3439C13.4207 47.295 13.4207 47.2461 13.4207 47.1958C13.5688 47.1217 13.5688 47.1217 13.7169 47.1217Z" fill="white"/>
<path d="M73.6265 45.4925C73.6265 45.7147 73.6265 45.7147 73.4598 45.9183C73.2562 46.085 73.2562 46.085 73.0942 46.0803C72.96 46.0109 72.96 46.0109 72.8119 45.8628C72.8775 45.8704 72.9432 45.8781 73.0109 45.8859C73.3307 45.8558 73.4233 45.7315 73.6265 45.4925Z" fill="white"/>
<path d="M71.7427 59.7988C71.8769 59.8435 72.0112 59.8883 72.1454 59.933C72.0392 59.9724 71.9327 60.0108 71.826 60.0487C71.7371 60.081 71.7371 60.081 71.6464 60.1138C71.4789 60.1552 71.4789 60.1552 71.2567 60.0811C71.5021 59.7812 71.5021 59.7812 71.7427 59.7988Z" fill="white"/>
<path d="M48.8378 59.6079C48.9267 59.613 48.9267 59.613 49.0174 59.6183C49.0773 59.621 49.1371 59.6236 49.1988 59.6264C49.2671 59.6316 49.2671 59.6316 49.3368 59.6368C49.1575 59.8161 49.0553 59.824 48.8092 59.8682C48.7081 59.8868 48.7081 59.8868 48.6049 59.9058C48.5532 59.9148 48.5014 59.9238 48.4481 59.933C48.6234 59.6449 48.6234 59.6449 48.8378 59.6079Z" fill="white"/>
<path d="M30.2309 50.1579C30.2798 50.1824 30.3286 50.2068 30.379 50.232C30.3546 50.3053 30.3301 50.3786 30.3049 50.4541C30.3783 50.4786 30.4516 50.503 30.5271 50.5282C30.5271 50.6992 30.5271 50.8703 30.5271 51.0466C30.3079 50.7974 30.2366 50.551 30.1568 50.232C30.1813 50.2075 30.2057 50.1831 30.2309 50.1579Z" fill="white"/>
<path d="M21.5666 48.4547C21.6155 48.4547 21.6643 48.4547 21.7147 48.4547C21.7147 48.5036 21.7147 48.5524 21.7147 48.6028C21.8124 48.6272 21.9102 48.6517 22.0109 48.6768C22.0353 48.8479 22.0598 49.019 22.085 49.1952C21.8379 48.9738 21.7035 48.7559 21.5666 48.4547Z" fill="white"/>
<path d="M73.9967 44.9001C74.0456 44.9245 74.0945 44.949 74.1448 44.9741C73.8764 45.4092 73.8764 45.4092 73.6265 45.4925C73.6666 45.2114 73.7895 45.0873 73.9967 44.9001Z" fill="white"/>
<path d="M38.4509 44.9741C38.4753 45.0475 38.4997 45.1208 38.5249 45.1963C38.305 45.3796 38.305 45.3796 38.0806 45.5666C38.0806 45.3444 38.0806 45.3444 38.2657 45.1454C38.3268 45.0889 38.3879 45.0324 38.4509 44.9741Z" fill="white"/>
<path d="M30.6752 43.7152C30.7603 43.7859 30.8451 43.8569 30.9298 43.9281C31.0007 43.9874 31.0007 43.9874 31.073 44.0479C31.1936 44.1596 31.1936 44.1596 31.2676 44.3077C31.121 44.2588 30.9744 44.2099 30.8233 44.1596C30.8233 44.1107 30.8233 44.0618 30.8233 44.0114C30.7744 43.987 30.7256 43.9626 30.6752 43.9374C30.6752 43.8641 30.6752 43.7908 30.6752 43.7152Z" fill="white"/>
<path d="M51.1881 43.0487C51.5165 43.152 51.6972 43.3158 51.9287 43.5671C51.9042 43.616 51.8798 43.6649 51.8546 43.7152C51.7431 43.6325 51.6321 43.549 51.5214 43.4653C51.4595 43.4189 51.3977 43.3725 51.3339 43.3247C51.2858 43.2825 51.2377 43.2403 51.1881 43.1968C51.1881 43.148 51.1881 43.0991 51.1881 43.0487Z" fill="white"/>
<path d="M67.1097 59.6368C67.7445 59.7003 67.7445 59.7003 67.9984 59.859C67.9984 59.9078 67.9984 59.9567 67.9984 60.0071C67.8918 59.9736 67.7854 59.9395 67.679 59.9053C67.6197 59.8864 67.5604 59.8675 67.4994 59.848C67.3319 59.7849 67.3319 59.7849 67.1097 59.6368Z" fill="white"/>
<path d="M54.0762 56.9709C54.1251 56.9953 54.174 57.0197 54.2243 57.0449C54.1295 57.1714 54.0305 57.2948 53.9281 57.4152C53.8793 57.4152 53.8304 57.4152 53.78 57.4152C53.78 57.4885 53.78 57.5618 53.78 57.6374C53.7311 57.6374 53.6823 57.6374 53.6319 57.6374C53.7291 57.3458 53.8481 57.1762 54.0762 56.9709Z" fill="white"/>
<path d="M48.9665 55.2676C49.0154 55.2921 49.0643 55.3165 49.1146 55.3417C49.0191 55.4436 48.9201 55.5422 48.8184 55.6379C48.7695 55.6379 48.7207 55.6379 48.6703 55.6379C48.6459 55.7112 48.6214 55.7845 48.5962 55.8601C48.4985 55.8356 48.4007 55.8112 48.3 55.786C48.52 55.6149 48.7399 55.4439 48.9665 55.2676Z" fill="white"/>
<path d="M65.2584 49.1952C65.6035 49.4222 65.6919 49.6089 65.7767 50.0098C65.4934 49.7563 65.353 49.5649 65.2584 49.1952Z" fill="white"/>
<path d="M14.3834 41.4196C14.4322 41.444 14.4811 41.4684 14.5315 41.4936C14.4582 41.518 14.3848 41.5425 14.3093 41.5677C14.2849 41.641 14.2604 41.7143 14.2353 41.7898C14.0886 41.7898 13.942 41.7898 13.7909 41.7898C13.99 41.623 14.135 41.5023 14.3834 41.4196Z" fill="white"/>
<path d="M72.3675 59.7109C72.1449 59.9335 71.9363 59.9031 71.627 59.933C71.8591 59.6661 72.0274 59.5975 72.3675 59.7109Z" fill="white"/>
<path d="M61.8519 59.6368C61.8519 59.7101 61.8519 59.7834 61.8519 59.859C61.6808 59.8834 61.5098 59.9078 61.3335 59.933C61.358 59.8597 61.3824 59.7864 61.4076 59.7109C61.5631 59.6557 61.6871 59.6368 61.8519 59.6368Z" fill="white"/>
<path d="M22.4552 59.5628C22.4797 59.6361 22.5041 59.7094 22.5293 59.7849C22.4393 59.9524 22.4393 59.9524 22.3118 60.132C22.2698 60.1919 22.2279 60.2518 22.1848 60.3134C22.1518 60.359 22.1189 60.4045 22.085 60.4514C22.0605 60.3781 22.0361 60.3048 22.0109 60.2292C22.1009 60.0618 22.1009 60.0618 22.2284 59.8821C22.2703 59.8223 22.3123 59.7624 22.3554 59.7007C22.3884 59.6552 22.4213 59.6097 22.4552 59.5628Z" fill="white"/>
<path d="M22.8996 58.6741C22.9736 58.8222 22.9736 58.8222 22.9213 58.9799C22.8942 59.0393 22.8672 59.0988 22.8394 59.1601C22.8129 59.2198 22.7865 59.2794 22.7593 59.3409C22.6774 59.4887 22.6774 59.4887 22.5293 59.5628C22.577 59.3397 22.6515 59.1542 22.7561 58.9518C22.7829 58.8995 22.8097 58.8472 22.8374 58.7933C22.8579 58.754 22.8784 58.7146 22.8996 58.6741Z" fill="white"/>
<path d="M89.1037 57.8595C89.3046 57.9789 89.5016 58.1001 89.6962 58.2298C89.6962 58.2787 89.6962 58.3275 89.6962 58.3779C89.4158 58.3378 89.2849 58.2211 89.1037 58.0076C89.1037 57.9587 89.1037 57.9099 89.1037 57.8595Z" fill="white"/>
<path d="M56.0016 54.7493C56.075 54.7737 56.1483 54.7981 56.2238 54.8233C56.1658 54.8676 56.1077 54.9119 56.0479 54.9575C55.8427 55.1129 55.8427 55.1129 55.7054 55.3417C55.6565 55.3417 55.6077 55.3417 55.5573 55.3417C55.6641 55.0924 55.8041 54.9336 56.0016 54.7493Z" fill="white"/>
<path d="M90.807 53.6384C91.0101 53.8754 91.1498 54.0831 91.2513 54.379C91.0291 54.3049 91.0291 54.3049 90.9042 54.1337C90.807 53.9347 90.807 53.9347 90.807 53.6384Z" fill="white"/>
<path d="M18.9747 52.1574C18.9991 52.1574 19.0236 52.1574 19.0488 52.1574C19.0673 52.3286 19.0673 52.3286 19.0488 52.5276C18.9006 52.6619 18.9006 52.6619 18.7525 52.7498C18.7281 52.6521 18.7037 52.5543 18.6785 52.4536C18.7274 52.4536 18.7762 52.4536 18.8266 52.4536C18.8755 52.3558 18.9243 52.2581 18.9747 52.1574Z" fill="white"/>
<path d="M60.0746 48.5287C60.3477 48.5656 60.4897 48.6102 60.667 48.8249C60.5937 48.8616 60.5937 48.8616 60.5189 48.899C60.3685 48.8298 60.2201 48.7559 60.0746 48.6768C60.0746 48.628 60.0746 48.5791 60.0746 48.5287Z" fill="white"/>
<path d="M58.6676 45.5666C58.6074 45.8211 58.6074 45.8211 58.5195 46.085C58.4462 46.1094 58.3728 46.1338 58.2973 46.159C58.3162 45.9855 58.3412 45.8125 58.3714 45.6406C58.5195 45.5666 58.5195 45.5666 58.6676 45.5666Z" fill="white"/>
<path d="M92.9545 59.933C93.4376 59.9057 93.4376 59.9057 93.6164 60.0441C93.6423 60.0808 93.6683 60.1174 93.6951 60.1552C93.4996 60.1552 93.3041 60.1552 93.1026 60.1552C93.1026 60.1063 93.1026 60.0574 93.1026 60.0071C93.0538 59.9826 93.0049 59.9582 92.9545 59.933Z" fill="white"/>
<path d="M99.9896 59.1925C99.9896 59.2414 99.9896 59.2902 99.9896 59.3406C99.6597 59.3773 99.6597 59.3773 99.3232 59.4146C99.4606 59.1397 99.7161 59.1851 99.9896 59.1925Z" fill="white"/>
<path d="M55.3352 58.8963C55.4818 58.9451 55.6284 58.994 55.7795 59.0444C55.7795 59.0933 55.7795 59.1421 55.7795 59.1925C55.8528 59.2169 55.9261 59.2414 56.0016 59.2665C55.7934 59.2897 55.7934 59.2897 55.5573 59.2665C55.4185 59.0814 55.4185 59.0814 55.3352 58.8963Z" fill="white"/>
<path d="M51.04 58.6001C51.0156 58.6978 50.9912 58.7956 50.966 58.8963C50.8438 58.9207 50.7216 58.9451 50.5957 58.9703C50.7629 58.6001 50.7629 58.6001 51.04 58.6001Z" fill="white"/>
<path d="M19.345 51.3428C19.3694 51.3428 19.3938 51.3428 19.419 51.3428C19.4126 51.4616 19.4045 51.5804 19.3959 51.6992C19.3916 51.7653 19.3873 51.8315 19.3829 51.8996C19.3403 52.106 19.2842 52.1752 19.1228 52.3055C19.1313 52.2005 19.1408 52.0956 19.1506 51.9907C19.1557 51.9323 19.1609 51.8739 19.1662 51.8137C19.198 51.6326 19.2551 51.5021 19.345 51.3428Z" fill="white"/>
<path d="M54.9649 49.4174C55.0138 49.4418 55.0626 49.4663 55.113 49.4914C55.0886 49.8091 55.0641 50.1268 55.0389 50.4541C55.0145 50.4541 54.9901 50.4541 54.9649 50.4541C54.9505 50.2953 54.9367 50.1363 54.9232 49.9774C54.9116 49.8447 54.9116 49.8447 54.8998 49.7093C54.8968 49.6374 54.8939 49.5655 54.8908 49.4914C54.9153 49.467 54.9397 49.4426 54.9649 49.4174Z" fill="white"/>
<path d="M29.6385 49.3433C29.7362 49.3678 29.834 49.3922 29.9347 49.4174C30.0039 49.6403 30.012 49.7037 29.9347 49.9358C29.8369 49.7403 29.7392 49.5447 29.6385 49.3433Z" fill="white"/>
<path d="M29.1201 48.6028C29.3034 48.6394 29.3034 48.6394 29.4904 48.6768C29.5148 48.8479 29.5392 49.019 29.5644 49.1952C29.3669 49.0109 29.2269 48.852 29.1201 48.6028Z" fill="white"/>
<path d="M55.187 43.5671C55.2359 43.5671 55.2848 43.5671 55.3352 43.5671C55.312 43.7106 55.312 43.7106 55.2611 43.8633C55.1878 43.8878 55.1145 43.9122 55.0389 43.9374C55.0389 44.0107 55.0389 44.084 55.0389 44.1596C54.9901 44.1596 54.9412 44.1596 54.8908 44.1596C54.9741 43.9395 55.0554 43.7645 55.187 43.5671Z" fill="white"/>
<path d="M40.5244 58.6001C40.7743 58.6879 40.9426 58.7686 41.1168 58.9703C40.9457 58.9459 40.7747 58.9214 40.5984 58.8963C40.574 58.7985 40.5496 58.7008 40.5244 58.6001Z" fill="white"/>
<path d="M73.8486 58.6001C73.8975 58.6001 73.9464 58.6001 73.9967 58.6001C73.9782 58.7389 73.9782 58.7389 73.9227 58.8963C73.7699 58.9888 73.7699 58.9888 73.6265 59.0444C73.6689 58.832 73.6903 58.7584 73.8486 58.6001Z" fill="white"/>
<path d="M53.5579 55.9341C53.5823 56.0074 53.6067 56.0807 53.6319 56.1563C53.4977 56.3923 53.4977 56.3923 53.3357 56.6006C53.2868 56.6006 53.2379 56.6006 53.1876 56.6006C53.2985 56.3701 53.4245 56.1523 53.5579 55.9341Z" fill="white"/>
<path d="M14.0871 46.7514C14.0577 46.9651 14.0286 47.0345 13.8604 47.1772C13.813 47.2078 13.7657 47.2383 13.7169 47.2698C13.6924 47.1965 13.668 47.1232 13.6428 47.0477C13.9205 46.7514 13.9205 46.7514 14.0871 46.7514Z" fill="white"/>
<path d="M72.1454 45.4925C72.422 45.5294 72.5758 45.5573 72.8119 45.7147C72.8119 45.7636 72.8119 45.8124 72.8119 45.8628C72.5323 45.782 72.3327 45.7215 72.1454 45.4925Z" fill="white"/>
<path d="M59.3341 45.1223C59.2653 45.1681 59.1966 45.2139 59.1258 45.2611C59.0089 45.339 59.0089 45.339 58.8897 45.4185C58.7798 45.4918 58.7798 45.4918 58.6676 45.5666C58.7231 45.349 58.7231 45.349 58.8157 45.1223C59.031 45.0181 59.1028 45.0452 59.3341 45.1223Z" fill="white"/>
<path d="M10.0882 37.0504C10.1127 37.1481 10.1371 37.2459 10.1623 37.3466C10.0157 37.4199 9.86904 37.4932 9.71797 37.5688C9.81372 37.3552 9.91491 37.208 10.0882 37.0504Z" fill="white"/>
<path d="M13.5688 34.3844C13.5688 34.4578 13.5688 34.5311 13.5688 34.6066C13.3733 34.6555 13.1778 34.7044 12.9763 34.7547C13.3347 34.3844 13.3347 34.3844 13.5688 34.3844Z" fill="white"/>
<path d="M72.8119 59.5628C72.6177 59.7223 72.468 59.8146 72.2194 59.859C72.2472 59.7155 72.2472 59.7155 72.2935 59.5628C72.491 59.464 72.6021 59.5131 72.8119 59.5628Z" fill="white"/>
<path d="M49.559 59.4887C49.3507 59.6044 49.3507 59.6044 49.1146 59.7109C49.0413 59.6864 48.968 59.662 48.8925 59.6368C49.1174 59.4119 49.2581 59.3884 49.559 59.4887Z" fill="white"/>
<path d="M62.8886 58.9703C62.9864 58.9703 63.0842 58.9703 63.1849 58.9703C63.1604 59.0436 63.136 59.117 63.1108 59.1925C62.921 59.2804 62.921 59.2804 62.7405 59.3406C62.7894 59.2184 62.8383 59.0962 62.8886 58.9703Z" fill="white"/>
<path d="M15.198 52.3055C15.3461 52.3795 15.4942 52.4536 15.6423 52.5276C15.6178 52.601 15.5934 52.6743 15.5682 52.7498C15.4247 52.6943 15.4247 52.6943 15.272 52.6017C15.2165 52.4443 15.2165 52.4443 15.198 52.3055Z" fill="white"/>
<path d="M1.86826 50.1579C1.91713 50.1579 1.96601 50.1579 2.01636 50.1579C2.0408 50.2312 2.06524 50.3045 2.09042 50.3801C1.99267 50.4045 1.89492 50.429 1.7942 50.4541C1.7942 50.5274 1.7942 50.6008 1.7942 50.6763C1.74533 50.6763 1.69645 50.6763 1.64609 50.6763C1.78495 50.2412 1.78495 50.2412 1.86826 50.1579Z" fill="white"/>
<path d="M42.82 45.9368C42.8689 45.9613 42.9178 45.9857 42.9682 46.0109C42.8215 46.1575 42.6749 46.3042 42.5238 46.4552C42.475 46.4308 42.4261 46.4063 42.3757 46.3812C42.5701 46.0202 42.5701 46.0202 42.82 45.9368Z" fill="white"/>
<path d="M40.3022 43.0487C40.4642 43.0719 40.4642 43.0719 40.5984 43.1228C40.4762 43.2205 40.3541 43.3183 40.2282 43.419C40.1793 43.3701 40.1304 43.3213 40.0801 43.2709C40.1726 43.1552 40.1726 43.1552 40.3022 43.0487Z" fill="white"/>
<path d="M11.9396 41.9379C11.964 41.9868 11.9885 42.0357 12.0136 42.086C11.9444 42.2365 11.8705 42.3849 11.7915 42.5304C11.7128 42.3961 11.7128 42.3961 11.6434 42.2341C11.6678 42.1608 11.6922 42.0875 11.7174 42.012C11.7907 41.9876 11.864 41.9631 11.9396 41.9379Z" fill="white"/>
<path d="M18.9747 36.4579C19.3357 36.6523 19.3357 36.6523 19.419 36.9023C19.3213 36.9023 19.2235 36.9023 19.1228 36.9023C19.1228 36.8045 19.1228 36.7068 19.1228 36.6061C19.0739 36.6061 19.0251 36.6061 18.9747 36.6061C18.9747 36.5572 18.9747 36.5083 18.9747 36.4579Z" fill="white"/>
</g>
<defs>
<clipPath id="clip0_2336_13344">
<rect width="100" height="100" fill="white" transform="translate(0.442871 0.833618)"/>
</clipPath>
</defs>
</svg>
