<svg width="101" height="101" viewBox="0 0 101 101" fill="none" xmlns="http://www.w3.org/2000/svg">
<g clip-path="url(#clip0_2336_13354)">
<path d="M16.4407 55.7315L13.1162 44.9258H10.4916L7.16623 55.7315L3.87111 44.9186H0.852051L5.66438 60.6753H8.11415L11.8042 49.2714L15.4788 60.6753H17.9286L22.7409 44.9258H19.7367L16.4407 55.7315Z" fill="white"/>
<path d="M44.1088 47.6525H52.2303L43.2915 60.1932V60.6753H56.6351V57.9486H48.1481L57.072 45.4219V44.9258H44.1088V47.6525Z" fill="white"/>
<path d="M37.2196 46.5863C35.8692 45.1771 34.0268 44.4357 31.8591 44.4357C27.2718 44.4357 23.813 48.0376 23.813 52.8137C23.813 57.5893 27.2718 61.1906 31.8591 61.1906C34.0218 61.1906 35.8641 60.4537 37.2196 59.0541V60.8603H40.3029V44.767H37.2196V46.5863ZM32.1734 58.2891C29.1453 58.2891 26.9464 55.9864 26.9464 52.8137C26.9464 49.6511 29.1452 47.3554 32.1734 47.3554C35.1924 47.3554 37.3842 49.6511 37.3842 52.8137C37.3842 55.9864 35.1925 58.2891 32.1734 58.2891Z" fill="white"/>
<path d="M71.4339 53.8397C71.4339 56.667 69.8777 58.289 67.1658 58.289C64.4439 58.289 62.8827 56.667 62.8827 53.8397V44.767H59.7983V54.0877C59.7983 59.3302 63.7672 61.1906 67.1658 61.1906C70.5573 61.1906 74.5172 59.3302 74.5172 54.0877V44.767H71.4339V53.8397Z" fill="white"/>
<path d="M92.3508 50.2344C92.2634 49.5923 92.0977 48.9362 91.8548 48.2655C91.6118 47.5948 91.2594 46.9748 90.7976 46.4061C90.3357 45.8378 89.7353 45.3785 88.9974 45.0281C88.2584 44.6782 87.3438 44.5035 86.2554 44.5035C84.8358 44.5035 83.6259 44.8097 82.6249 45.4221C82.0119 45.7968 81.4875 46.2626 81.0497 46.8174V40.7048H78.3228V60.6757H81.4141V52.4799C81.4141 51.5466 81.5185 50.7545 81.7273 50.1029C81.9372 49.4518 82.2234 48.9267 82.5878 48.5281C82.9522 48.1295 83.3779 47.8403 83.8639 47.6606C84.3498 47.4804 84.8649 47.3905 85.41 47.3905C86.2454 47.3905 86.9241 47.5607 87.4442 47.9011C87.9643 48.2415 88.3679 48.6883 88.654 49.2425C88.9411 49.7967 89.1359 50.3971 89.2374 51.0437C89.3398 51.6903 89.391 52.3193 89.391 52.9317V60.6757H92.4823V51.9257C92.4823 51.4397 92.4381 50.876 92.3508 50.2344Z" fill="white"/>
<path d="M98.3665 60.9888C99.7392 60.9888 100.852 59.8759 100.852 58.5032C100.852 57.1304 99.7392 56.0176 98.3665 56.0176C96.9937 56.0176 95.8809 57.1304 95.8809 58.5032C95.8809 59.8759 96.9937 60.9888 98.3665 60.9888Z" fill="white"/>
</g>
<defs>
<clipPath id="clip0_2336_13354">
<rect width="100" height="100" fill="white" transform="translate(0.852051 0.947754)"/>
</clipPath>
</defs>
</svg>
