<svg width="101" height="101" viewBox="0 0 101 101" fill="none" xmlns="http://www.w3.org/2000/svg">
<g clip-path="url(#clip0_2336_10818)">
<path d="M28.1994 41.8179C28.1994 43.0577 28.3328 44.0628 28.5655 44.7999C28.8609 45.6292 29.2166 46.4354 29.6295 47.212C29.7959 47.48 29.8622 47.7479 29.8622 47.9827C29.8622 48.3175 29.6629 48.6526 29.2305 48.9878L27.1354 50.3948C26.836 50.596 26.5366 50.6963 26.2702 50.6963C25.9379 50.6963 25.6052 50.5288 25.2725 50.2272C24.824 49.7424 24.4231 49.2151 24.0754 48.6526C23.7427 48.0835 23.41 47.4464 23.0443 46.6761C20.4498 49.7581 17.1904 51.2992 13.2661 51.2995C10.4725 51.2995 8.24399 50.4952 6.61415 48.8874C4.98472 47.2788 4.15332 45.1347 4.15332 42.4546C4.15332 39.607 5.15107 37.2953 7.17993 35.5531C9.20839 33.8109 11.9027 32.9398 15.3283 32.9398C16.4591 32.9398 17.6232 33.0402 18.8536 33.2078C20.0844 33.3754 21.3482 33.6433 22.6786 33.9449V31.4992C22.6786 28.9527 22.1462 27.1773 21.1151 26.1387C20.051 25.1 18.2549 24.5973 15.694 24.5973C14.5299 24.5973 13.3328 24.7317 12.102 25.0332C10.8712 25.3348 9.67411 25.7031 8.51 26.1723C7.97797 26.4066 7.57895 26.5406 7.34589 26.6078C7.11283 26.675 6.94687 26.7082 6.81386 26.7082C6.34814 26.7082 6.11548 26.3731 6.11548 25.6695V24.0278C6.11548 23.4918 6.18217 23.0899 6.34814 22.8555C6.5145 22.6207 6.81386 22.3864 7.27958 22.152C8.44356 21.5486 9.84034 21.046 11.4699 20.6442C13.1001 20.2086 14.8296 20.0079 16.6588 20.0079C20.6168 20.0079 23.5104 20.9122 25.3729 22.7215C27.2021 24.5305 28.1335 27.2777 28.1335 30.9633V41.8179H28.1994ZM14.6962 46.9104C15.794 46.9104 16.9248 46.7097 18.1218 46.3073C19.3193 45.9054 20.3838 45.1683 21.2815 44.1632C21.8139 43.5269 22.2129 42.8233 22.4122 42.0191C22.6119 41.2152 22.7449 40.2433 22.7449 39.1042V37.6972C21.7363 37.4501 20.7147 37.2599 19.685 37.1277C18.6481 36.9951 17.6039 36.928 16.5587 36.9265C14.3302 36.9265 12.7007 37.3621 11.6033 38.2667C10.5059 39.1714 9.97348 40.4445 9.97348 42.1194C9.97348 43.694 10.3725 44.8667 11.2039 45.671C12.0023 46.5085 13.1664 46.9104 14.6962 46.9104ZM41.4033 50.5288C40.8045 50.5288 40.4055 50.4284 40.1395 50.1936C39.8735 49.9928 39.6404 49.5237 39.4411 48.8874L31.6254 22.9895C31.4253 22.3192 31.3257 21.8836 31.3257 21.6493C31.3257 21.1133 31.5917 20.8114 32.1241 20.8114H35.3834C36.0151 20.8114 36.4478 20.9122 36.6805 21.1465C36.9465 21.3477 37.1462 21.8168 37.3455 22.4532L42.933 44.6323L48.1215 22.4532C48.2879 21.7832 48.4876 21.3477 48.7532 21.1465C49.0196 20.9457 49.4853 20.8118 50.0841 20.8118H52.7446C53.3763 20.8118 53.809 20.9122 54.0747 21.1465C54.3411 21.3477 54.5737 21.8168 54.7067 22.4532L59.9619 44.9003L65.7154 22.4532C65.9147 21.7832 66.1477 21.3477 66.3804 21.1465C66.6464 20.9457 67.0788 20.8118 67.6775 20.8118H70.7704C71.3029 20.8118 71.6022 21.0797 71.6022 21.6493C71.6022 21.8168 71.5689 21.9844 71.5355 22.1852C71.5022 22.386 71.4359 22.6543 71.3029 23.0231L63.2871 48.9206C63.0878 49.5909 62.855 50.0264 62.5887 50.2272C62.3227 50.4284 61.8903 50.5624 61.3253 50.5624H58.4651C57.833 50.5624 57.4006 50.462 57.1342 50.2272C56.8682 49.9928 56.6356 49.5573 56.5025 48.8874L51.347 27.2777L46.2253 48.8534C46.0593 49.5237 45.8596 49.9592 45.5936 50.1936C45.3276 50.4284 44.8618 50.5288 44.2635 50.5288H41.4033ZM84.141 51.4335C82.4115 51.4335 80.682 51.2323 79.0193 50.8303C77.3561 50.4284 76.0593 49.9924 75.1946 49.4905C74.6622 49.1885 74.2961 48.8538 74.1635 48.5522C74.0342 48.2564 73.9662 47.9371 73.9638 47.6139V45.9054C73.9638 45.2018 74.2298 44.8667 74.7289 44.8667C74.9326 44.8675 75.1348 44.9015 75.3276 44.9675C75.5269 45.0347 75.8263 45.1683 76.159 45.3022C77.3336 45.823 78.5599 46.2161 79.8173 46.4749C81.1201 46.741 82.446 46.8756 83.7753 46.8768C85.8705 46.8768 87.5003 46.5085 88.6311 45.7714C89.7619 45.0343 90.3606 43.9624 90.3606 42.5886C90.3606 41.6507 90.0612 40.88 89.4625 40.2433C88.8638 39.6066 87.733 39.0374 86.1036 38.5011L81.2808 36.9937C78.8529 36.223 77.0571 35.0839 75.9593 33.5761C74.8619 32.1019 74.2965 30.4605 74.2965 28.7184C74.2965 27.3113 74.5959 26.0716 75.1946 24.9992C75.7929 23.9274 76.5914 22.9895 77.5891 22.2524C78.5869 21.4817 79.7176 20.9122 81.0481 20.5102C82.3782 20.1083 83.775 19.9407 85.2384 19.9407C85.9702 19.9407 86.7353 19.9743 87.467 20.0747C88.2321 20.175 88.9305 20.309 89.6289 20.443C90.2939 20.6106 90.926 20.7782 91.5247 20.9793C92.1232 21.1801 92.5888 21.381 92.9215 21.5821C93.3872 21.8504 93.7195 22.1184 93.9192 22.42C94.1188 22.6879 94.2186 23.0564 94.2186 23.5254V25.1C94.2186 25.8035 93.9526 26.1723 93.4535 26.1723C93.1875 26.1723 92.7551 26.0379 92.1901 25.7699C90.2938 24.8988 88.1651 24.4633 85.8042 24.4633C83.9084 24.4633 82.4115 24.7649 81.3804 25.4016C80.3497 26.0379 79.8173 27.0098 79.8173 28.3832C79.8173 29.3215 80.15 30.1254 80.8151 30.7621C81.4801 31.3988 82.7109 32.0351 84.4737 32.6047L89.1965 34.1125C91.591 34.8832 93.3205 35.955 94.3516 37.3285C95.3827 38.7019 95.8818 40.2769 95.8818 42.0191C95.8818 43.4597 95.582 44.7663 95.0166 45.9054C94.4183 47.0444 93.6199 48.0495 92.5888 48.8538C91.5577 49.6913 90.3272 50.2944 88.8971 50.7299C87.4003 51.1991 85.8372 51.4335 84.141 51.4335Z" fill="#191919"/>
<path d="M90.4274 67.7153C79.4854 75.8567 63.5873 80.1785 49.9182 80.1785C30.7608 80.1785 13.4996 73.0422 0.462155 61.1822C-0.568947 60.2443 0.362105 58.9712 1.59252 59.708C15.6945 67.9501 33.089 72.9419 51.0823 72.9419C63.2217 72.9419 76.5585 70.3958 88.8313 65.1693C90.6604 64.3314 92.2236 66.3755 90.4274 67.7153ZM94.9842 62.4888C93.5874 60.6798 85.738 61.6177 82.1793 62.0533C81.1149 62.1876 80.9485 61.2494 81.9133 60.5458C88.1659 56.1232 98.4431 57.3966 99.6402 58.8705C100.838 60.3783 99.3075 70.7305 93.454 75.6891C92.5563 76.4598 91.6915 76.0579 92.0906 75.0528C93.4206 71.7356 96.3809 64.2646 94.9842 62.4888Z" fill="#191919"/>
</g>
<defs>
<clipPath id="clip0_2336_10818">
<rect width="100" height="100" fill="white" transform="translate(0.019043 0.0595703)"/>
</clipPath>
</defs>
</svg>
