<svg width="101" height="101" viewBox="0 0 101 101" fill="none" xmlns="http://www.w3.org/2000/svg">
<path d="M78.9342 47.6369C78.9342 66.606 56.3102 81.4513 51.374 84.7503C50.9627 85.1627 50.14 85.1627 49.3173 84.7503C44.3811 81.8637 21.3457 66.606 21.3457 47.6369V24.9565C21.3457 24.1317 22.1684 23.307 22.9911 23.307C40.679 22.8946 36.9769 15.0596 50.14 15.0596C63.3031 15.0596 59.1896 22.8946 76.8775 23.307C77.7002 23.307 78.5229 24.1317 78.5229 24.9565L78.9342 47.6369Z" fill="#191919"/>
<path d="M76.4662 47.6369C76.4662 64.9565 55.4875 78.9771 50.9627 81.4513C50.5513 81.8637 49.7286 81.8637 49.3173 81.4513C44.7925 78.5647 23.8138 64.5441 23.8138 47.6369V27.0183C23.8138 26.1936 24.2251 25.3689 25.0478 24.9565C41.0903 24.5441 37.3882 17.5338 49.7286 17.5338C62.069 17.5338 58.3669 24.9565 74.4094 24.9565C75.2321 24.9565 76.0548 25.7812 76.0548 26.606L76.4662 47.6369Z" fill="#191919"/>
<path d="M50.14 39.8018C55.8988 39.8018 60.835 44.3379 61.6577 50.1111C61.6577 50.9359 62.8917 51.7606 63.7144 51.7606H69.4733C70.7073 51.7606 71.53 50.9359 71.53 49.6987C71.53 49.6987 71.53 49.6987 71.53 49.2864C70.2959 37.3276 59.6009 28.6678 47.6719 29.9049C37.3882 31.142 29.5726 38.9771 28.3386 49.2864C28.3386 50.5235 29.1613 51.3482 29.984 51.3482C29.984 51.3482 29.984 51.3482 30.3953 51.3482H36.1542C36.9769 51.3482 37.7996 50.5235 38.2109 49.6987C39.445 43.9255 44.3811 39.8018 50.14 39.8018Z" fill="#E4E4E4"/>
<path d="M50.14 59.1833C54.4564 59.1833 57.9556 55.6754 57.9556 51.3482C57.9556 47.0211 54.4564 43.5132 50.14 43.5132C45.8235 43.5132 42.3244 47.0211 42.3244 51.3482C42.3244 55.6754 45.8235 59.1833 50.14 59.1833Z" fill="#E4E4E4"/>
</svg>
