<svg width="101" height="101" viewBox="0 0 101 101" fill="none" xmlns="http://www.w3.org/2000/svg">
<path d="M50.764 15.0986V26.5856C50.7767 26.7179 50.7708 26.8513 50.7469 26.9814C50.7403 27.0255 50.7317 27.0675 50.7213 27.1099C50.7204 27.1154 50.7194 27.1209 50.7183 27.1264C50.6262 27.4759 50.4055 27.7782 50.1003 27.9723L35.0073 41.5414H49.7927C49.8698 41.5249 49.9479 41.5194 50.0263 41.5194C50.4444 41.5148 50.8437 41.6925 51.12 42.0067C51.1307 42.0177 51.1411 42.0233 51.1513 42.0343C51.1543 42.0381 51.157 42.0397 51.1599 42.0452C51.4352 42.3677 51.554 42.795 51.4846 43.2131V55.7427H68.6569C68.6805 55.7383 68.7043 55.7371 68.7281 55.7316C69.4468 55.6765 70.095 56.1627 70.2434 56.8682C70.2489 56.8957 70.2539 56.9261 70.2577 56.9509C70.2632 56.9895 70.2671 57.0326 70.2693 57.0734C70.2703 57.0789 70.2712 57.0899 70.2722 57.0954C70.2743 57.1395 70.2743 57.1846 70.2722 57.2293C70.2722 57.233 70.2722 57.2349 70.2722 57.2404C70.2535 57.6929 70.0221 58.1096 69.6484 58.3653L52.214 74.0451V84.9825C70.6527 83.8248 85.0162 68.5348 85.0204 50.0597C85.0045 31.031 69.7884 15.5027 50.764 15.0986Z" fill="#191919"/>
<path d="M47.8978 15.1383C29.4321 16.2614 15.0295 31.5611 15.0229 50.0609C15.0378 69.1146 30.2917 84.6558 49.3418 85.0264V73.5451C49.3214 73.3257 49.3518 73.1047 49.4301 72.8985C49.5245 72.6433 49.6895 72.42 49.9058 72.2548L65.0814 58.6172H50.2846C50.0914 58.6503 49.8937 58.6393 49.7036 58.5952C49.6837 58.5908 49.6633 58.5842 49.6438 58.5787C48.8239 58.383 48.3474 57.5273 48.6127 56.7272V44.4114H31.5971C30.7695 44.6407 29.9269 44.0978 29.7941 43.2493C29.6717 42.6229 29.9767 41.9908 30.5432 41.6969L47.8978 26.094L47.8978 15.1383Z" fill="#191919"/>
<path d="M50.0223 15.0596C49.3134 15.0638 48.6048 15.0895 47.8975 15.1368V26.094L30.5458 41.6969C30.27 41.84 30.048 42.0685 29.9129 42.3484C29.7779 42.6282 29.7371 42.9443 29.7967 43.2493C29.828 43.4494 29.9013 43.6406 30.0118 43.8104C30.1222 43.9802 30.2674 44.1247 30.4376 44.2345C30.6079 44.3442 30.7995 44.4168 30.9997 44.4472C31.2 44.4777 31.4045 44.4654 31.5997 44.4112H48.6153V56.7272C48.5526 56.9163 48.5298 57.1164 48.5485 57.3148C48.5672 57.5131 48.6269 57.7055 48.7239 57.8796C48.8208 58.0537 48.9529 58.2057 49.1117 58.326C49.2705 58.4464 49.4525 58.5324 49.6463 58.5787C49.6662 58.5846 49.6861 58.5901 49.7062 58.5951C49.8954 58.6416 50.0921 58.6491 50.2843 58.6172H65.084L49.9084 72.2548C49.6925 72.4192 49.5275 72.6413 49.4327 72.8956C49.3537 73.1024 49.3235 73.3247 49.3444 73.5451V85.0264C49.5703 85.0396 49.7963 85.0507 50.0223 85.0596C50.755 85.0568 51.4873 85.0311 52.2183 84.9824V74.045L69.6526 58.3652C69.8369 58.2391 69.9892 58.0717 70.0975 57.8764C70.2058 57.6811 70.267 57.4634 70.2764 57.2403C70.2764 57.2366 70.2764 57.2328 70.2764 57.2292C70.2785 57.1845 70.2785 57.1399 70.2764 57.0953C70.2755 57.0879 70.2746 57.0806 70.2736 57.0732C70.2714 57.0323 70.2676 56.9914 70.262 56.9508C70.258 56.924 70.2532 56.8974 70.2476 56.8709C70.2477 56.8718 70.2477 56.8699 70.2476 56.8709C70.1759 56.5299 69.9827 56.2238 69.7039 56.0147C69.4251 55.8056 69.0798 55.705 68.7324 55.7316C68.7085 55.7347 68.6848 55.7383 68.6611 55.7426H51.4889V43.2131C51.5232 43.0065 51.5119 42.795 51.4558 42.5933C51.3997 42.3915 51.3002 42.2045 51.1642 42.0453C51.1613 42.0416 51.1583 42.0378 51.1554 42.0342C51.145 42.0248 51.1346 42.0156 51.124 42.0066C50.9874 41.8515 50.819 41.7277 50.6303 41.6436C50.4415 41.5595 50.2369 41.5172 50.0302 41.5194C49.9519 41.5204 49.8738 41.5278 49.7967 41.5415H35.0113L50.1043 27.9722C50.4095 27.7781 50.6302 27.476 50.7224 27.1263C50.7234 27.1208 50.7243 27.1153 50.7252 27.1098C50.7358 27.0676 50.7444 27.0248 50.7511 26.9818C50.7751 26.8513 50.7808 26.7182 50.7682 26.5862V15.0991C50.5196 15.0836 50.2712 15.0698 50.0223 15.0596Z" fill="#E4E4E4"/>
<path d="M50.7637 15.0963V26.5863C50.7764 26.7186 50.7703 26.8518 50.7466 26.9819C50.74 27.026 50.7312 27.0675 50.7213 27.1099C50.7204 27.1154 50.7194 27.1209 50.7184 27.1264C50.6263 27.4758 50.4055 27.7782 50.1003 27.9723L35.0073 41.5414H37.8812L51.7523 29.0717C52.0575 28.8777 52.2783 28.5757 52.3704 28.2258C52.3714 28.2203 52.3724 28.2148 52.3733 28.2093C52.3837 28.1652 52.392 28.1238 52.3992 28.0808C52.4229 27.9502 52.4289 27.8201 52.4163 27.6879V15.1725C51.8687 15.134 51.3181 15.1085 50.7637 15.0963ZM51.678 42.6193C51.6035 42.6202 51.5293 42.6303 51.4558 42.6413C51.5005 42.8271 51.5163 43.021 51.4845 43.2137V55.7433H53.1365V44.3131C53.2059 43.8948 53.0869 43.4678 52.8118 43.1454C52.8089 43.1418 52.8063 43.1398 52.803 43.1343C52.7925 43.1233 52.782 43.1179 52.7716 43.1069C52.4953 42.7933 52.0961 42.6149 51.678 42.6193ZM70.3798 56.8321C70.3561 56.8352 70.3324 56.8375 70.3086 56.8431H70.2317C70.2339 56.8541 70.2411 56.8596 70.2433 56.8706C70.2488 56.8982 70.2537 56.9286 70.2576 56.9534C70.2631 56.992 70.267 57.0351 70.2692 57.0759C70.2702 57.0814 70.271 57.0924 70.272 57.0979C70.2741 57.142 70.2741 57.1871 70.272 57.2318C70.272 57.2356 70.272 57.2374 70.272 57.2429C70.2533 57.6954 70.0219 58.1121 69.6483 58.3678L52.2139 74.0476V84.985C52.7691 84.9519 53.3213 84.9029 53.8688 84.8429V75.1502L71.3031 59.4704C71.6767 59.2147 71.9079 58.7977 71.9269 58.3453C71.9269 58.3417 71.9269 58.3399 71.9269 58.3344C71.9289 58.2903 71.9289 58.245 71.9269 58.2003C71.926 58.1948 71.9251 58.1838 71.924 58.1783C71.922 58.1397 71.9152 58.0968 71.9097 58.056C71.9056 58.0284 71.9009 58.0009 71.8954 57.9761C71.747 57.2707 71.0985 56.7771 70.3798 56.8321Z" fill="#191919"/>
</svg>
