<svg width="101" height="101" viewBox="0 0 101 101" fill="none" xmlns="http://www.w3.org/2000/svg">
<g clip-path="url(#clip0_2336_10887)">
<path fill-rule="evenodd" clip-rule="evenodd" d="M19.2003 43.2286L19.1682 34.2422H14.1538L14.1859 43.2286L16.6931 46.6714L19.2003 43.2286ZM14.1859 58.6301V67.6486H19.2003V58.6301L16.6931 55.1873L14.1859 58.6301Z" fill="#191919"/>
<path fill-rule="evenodd" clip-rule="evenodd" d="M19.2003 58.6299L24.482 65.9164L28.5235 62.9761L23.2418 55.6897L19.2003 54.3853V58.6299ZM14.1859 43.2284L8.87205 35.942L4.83057 38.8822L10.1123 46.1633L14.1859 47.4677V43.2284Z" fill="#191919"/>
<path fill-rule="evenodd" clip-rule="evenodd" d="M10.1121 46.1688L1.55866 43.3943L0.019043 48.1361L8.57245 50.9427L12.6139 49.6062L10.1121 46.1688ZM20.7343 52.2471L23.2415 55.6898L31.7949 58.4643L33.3346 53.7225L24.7812 50.948L20.7343 52.2471Z" fill="#191919"/>
<path fill-rule="evenodd" clip-rule="evenodd" d="M24.7758 50.9482L33.3292 48.1416L31.7896 43.3998L23.2362 46.1743L20.729 49.617L24.7758 50.9482ZM8.57245 50.9482L0.019043 53.7227L1.55866 58.4645L10.1121 55.69L12.6193 52.2472L8.57245 50.9482Z" fill="#191919"/>
<path fill-rule="evenodd" clip-rule="evenodd" d="M10.1123 55.6897L4.83057 62.9761L8.87205 65.9164L14.1859 58.6299V54.3853L10.1123 55.6897ZM23.2418 46.1687L28.5235 38.8822L24.482 35.942L19.2003 43.2231V47.4677L23.2418 46.1687Z" fill="#191919"/>
<path fill-rule="evenodd" clip-rule="evenodd" d="M52.0399 42.7581V54.4495C52.0399 57.0209 49.9337 59.1271 47.3623 59.1271V56.7856C48.6667 56.7856 49.7038 55.7485 49.7038 54.4441V42.7581H52.0399ZM94.7428 45.0996H100.019V42.7634H87.157V45.0996H92.4013V59.1325H94.7428V45.0996ZM80.1058 42.7581V54.4495C80.1058 55.7539 79.0687 56.791 77.7643 56.791C76.4599 56.791 75.4228 55.7539 75.4228 54.4495V47.4357C75.4228 44.8643 73.3165 42.7581 70.7452 42.7581C68.1738 42.7581 66.0675 44.8643 66.0675 47.4357V54.4548C66.0675 55.7592 65.0304 56.7963 63.726 56.7963C62.4216 56.7963 61.3845 55.7592 61.3845 54.4548V42.7581H59.043V54.4495C59.043 57.0209 61.1493 59.1271 63.7207 59.1271C66.2921 59.1271 68.3983 57.0209 68.3983 54.4495V47.4357C68.3983 46.1313 69.4354 45.0942 70.7398 45.0942C72.0442 45.0942 73.0813 46.1313 73.0813 47.4357V54.4548C73.0813 57.0262 75.1876 59.1325 77.759 59.1325C80.3303 59.1325 82.4366 57.0262 82.4366 54.4548V42.7581H80.1058Z" fill="#191919"/>
</g>
<defs>
<clipPath id="clip0_2336_10887">
<rect width="100" height="100" fill="white" transform="translate(0.019043 0.945435)"/>
</clipPath>
</defs>
</svg>
