<svg width="101" height="101" viewBox="0 0 101 101" fill="none" xmlns="http://www.w3.org/2000/svg">
<g clip-path="url(#clip0_2336_12849)">
<path d="M28.778 39.1212C31.5928 39.1212 31.5928 39.1212 32.1483 39.6258C32.2341 39.792 32.3197 39.9586 32.3952 40.1296C32.5509 40.448 32.7753 40.7167 32.9909 40.9962C33.079 41.1153 33.1668 41.2346 33.2542 41.3541C33.515 41.7088 33.7761 42.0632 34.0372 42.4175C34.1237 42.5348 34.2101 42.6521 34.2965 42.7694C34.3393 42.8274 34.382 42.8855 34.4261 42.9453C36.8891 46.2879 36.8891 46.2879 37.0189 46.464C37.1048 46.5806 37.1907 46.6973 37.2767 46.8139C37.5002 47.1172 37.7236 47.4205 37.947 47.7239C38.0161 47.8179 38.0161 47.8179 38.0867 47.9138C38.1741 48.0325 38.2615 48.1512 38.3489 48.2699C38.3889 48.3243 38.4289 48.3786 38.4701 48.4346C38.5219 48.5049 38.5219 48.5049 38.5747 48.5767C38.7649 48.8331 38.9568 49.0881 39.1483 49.3434C39.185 44.2834 39.185 44.2834 39.2224 39.1212C40.1024 39.1212 40.9824 39.1212 41.8891 39.1212C41.8891 44.1079 41.8891 49.0945 41.8891 54.2323C39.2224 54.2323 39.2224 54.2323 38.6021 53.6166C38.4687 53.4082 38.4687 53.4082 38.3876 53.2265C38.1889 52.8178 37.9392 52.4754 37.6622 52.1166C37.5754 51.9994 37.4889 51.8821 37.4027 51.7644C37.3604 51.7069 37.3181 51.6493 37.2745 51.5899C37.0305 51.2564 36.7893 50.921 36.5479 50.5856C36.2569 50.1819 35.9626 49.7807 35.6669 49.3805C35.2904 48.8711 34.918 48.359 34.5479 47.8449C34.2142 47.3819 33.8758 46.9225 33.5366 46.4635C33.1988 46.0059 32.8649 45.5456 32.5336 45.0833C32.2018 44.6215 31.8602 44.1692 31.5187 43.7138C31.4943 47.1849 31.4698 50.656 31.4446 54.2323C30.5646 54.2323 29.6846 54.2323 28.778 54.2323C28.778 49.2457 28.778 44.259 28.778 39.1212Z" fill="#191919"/>
<path d="M17.5928 40.3064C17.6706 40.3389 17.6706 40.3389 17.75 40.372C18.8379 40.8351 19.8074 41.4615 20.7039 42.2323C20.8099 42.3234 20.8099 42.3234 20.918 42.4164C23.2379 44.4541 24.5599 47.3833 24.7688 50.4467C24.9411 53.3624 23.9841 56.4011 22.0581 58.6151C21.8589 58.8385 21.6525 59.054 21.4446 59.2694C21.3862 59.3325 21.3278 59.3956 21.2676 59.4606C19.3172 61.5111 16.3881 62.6801 13.5885 62.7668C10.1933 62.8351 7.26599 61.6428 4.77798 59.3434C2.65303 57.2517 1.47462 54.258 1.42752 51.299C1.42308 50.5847 1.45634 49.8982 1.59279 49.1953C1.63299 49.2257 1.67319 49.256 1.71461 49.2873C1.7676 49.3272 1.8206 49.3671 1.8752 49.4083C1.92762 49.4478 1.98004 49.4873 2.03405 49.528C2.15609 49.6181 2.2814 49.7037 2.40761 49.7879C2.43048 49.9263 2.43048 49.9263 2.4241 50.0958C2.42259 50.1586 2.42108 50.2214 2.41952 50.2862C2.41712 50.354 2.41471 50.4217 2.41224 50.4916C2.36773 53.2822 3.32216 55.9014 5.25798 57.9324C5.79199 58.4747 6.35607 58.9387 7.0002 59.3434C7.0457 59.3722 7.0912 59.401 7.13808 59.4307C9.30321 60.7781 12.0274 61.2714 14.526 60.7205C16.1931 60.3105 17.6871 59.5605 19.0002 58.4545C19.0566 58.4081 19.1131 58.3617 19.1712 58.3139C21.0673 56.7037 22.1909 54.171 22.3969 51.7195C22.5893 48.963 21.6827 46.3409 19.881 44.2588C19.7856 44.1506 19.6892 44.0433 19.5928 43.936C19.5271 43.8623 19.5271 43.8623 19.46 43.787C18.291 42.5488 16.7071 41.7774 15.1021 41.2879C15.0544 41.2731 15.0067 41.2584 14.9575 41.2432C14.1154 40.9991 13.2756 40.9508 12.403 40.9592C12.3088 40.9592 12.2146 40.9593 12.1175 40.9593C11.6744 40.9614 11.2458 40.977 10.806 41.0327C10.4378 41.0667 10.4378 41.0667 10.1854 40.9028C10.1121 40.8024 10.1121 40.8024 10.0372 40.6999C9.98682 40.6339 9.9364 40.568 9.88446 40.5C9.8371 40.4361 9.78974 40.3722 9.74094 40.3064C9.64396 40.2059 9.54575 40.1065 9.44464 40.0101C10.2047 39.7866 10.9506 39.5763 11.7409 39.4916C11.8231 39.4825 11.9052 39.4734 11.9898 39.4641C13.8885 39.2962 15.8329 39.5662 17.5928 40.3064Z" fill="#191919"/>
<path d="M51.5187 43.862C51.784 44.0681 52.0233 44.29 52.2595 44.5286C52.3111 44.5778 52.3628 44.627 52.416 44.6776C53.7089 45.9957 53.815 47.8229 53.815 49.5657C51.0528 49.5657 48.2906 49.5657 45.4446 49.5657C45.8676 50.8345 46.2256 51.5687 47.3911 52.1525C48.43 52.5638 49.5981 52.4678 50.6298 52.0842C51.0234 51.9068 51.3793 51.7079 51.7039 51.4221C51.765 51.3717 51.8261 51.3213 51.8891 51.2694C52.1522 51.3571 52.1902 51.4268 52.3437 51.6507C52.4078 51.7441 52.4078 51.7441 52.4731 51.8394C52.5172 51.9049 52.5613 51.9704 52.6067 52.0379C52.6516 52.1028 52.6965 52.1677 52.7428 52.2346C53.0743 52.7223 53.0743 52.7223 53.0743 52.9731C51.6253 54.3333 49.7286 54.5161 47.8474 54.4672C46.4596 54.3984 45.2794 53.7315 44.3335 52.7508C44.2844 52.704 44.2352 52.6571 44.1845 52.6088C43.1225 51.5276 42.8787 49.9698 42.8914 48.524C42.9364 46.8499 43.5805 45.4523 44.7919 44.2925C46.6302 42.7355 49.5049 42.5325 51.5187 43.862ZM46.008 46.2127C45.6267 46.7507 45.5181 47.2012 45.4446 47.862C47.4246 47.862 49.4046 47.862 51.4446 47.862C51.4446 47.0193 51.1698 46.3955 50.5795 45.7945C49.8593 45.1459 49.0678 44.9895 48.1211 45.0214C47.2407 45.0774 46.5606 45.55 46.008 46.2127Z" fill="#191919"/>
<path d="M73.5187 43.2694C74.3009 43.2694 75.0832 43.2694 75.8891 43.2694C75.8913 43.5748 75.8913 43.5748 75.8935 43.8865C75.8985 44.5623 75.9043 45.2382 75.9104 45.9141C75.9141 46.3235 75.9175 46.7329 75.9203 47.1424C75.9231 47.5381 75.9265 47.9339 75.9304 48.3296C75.9318 48.48 75.9329 48.6303 75.9338 48.7806C75.8885 50.4582 75.8885 50.4582 76.6437 51.8851C77.3158 52.2883 78.1092 52.3444 78.8677 52.1811C79.5844 51.9609 80.2494 51.5838 80.778 51.0471C80.8629 50.8773 80.8622 50.7804 80.8638 50.5915C80.8645 50.5271 80.8652 50.4627 80.866 50.3964C80.8664 50.3256 80.8668 50.2548 80.8673 50.1818C80.868 50.1074 80.8687 50.0329 80.8695 49.9562C80.8718 49.7093 80.8737 49.4624 80.8755 49.2155C80.877 49.0447 80.8786 48.8739 80.8802 48.703C80.8842 48.2527 80.8879 47.8023 80.8915 47.352C80.8952 46.8927 80.8993 46.4335 80.9034 45.9742C80.9114 45.0726 80.9189 44.171 80.9261 43.2694C81.7084 43.2694 82.4906 43.2694 83.2965 43.2694C83.2965 46.8871 83.2965 50.5049 83.2965 54.2323C82.5143 54.2323 81.732 54.2323 80.9261 54.2323C80.8895 53.5723 80.8895 53.5723 80.8521 52.899C80.7864 52.9723 80.7207 53.0457 80.653 53.1212C79.5971 54.1686 78.2567 54.4754 76.822 54.4782C75.8279 54.467 75.0272 54.231 74.2826 53.5518C73.6192 52.855 73.4957 51.9944 73.5019 51.0732C73.5019 50.9886 73.5019 50.9039 73.5018 50.8168C73.5019 50.5386 73.5031 50.2605 73.5042 49.9823C73.5045 49.7889 73.5047 49.5954 73.5049 49.4019C73.5053 48.9457 73.5066 48.4896 73.508 48.0334C73.5097 47.5137 73.5105 46.994 73.5113 46.4743C73.5128 45.406 73.5155 44.3377 73.5187 43.2694Z" fill="#191919"/>
<path d="M92.5031 44.1062C92.6743 44.2422 92.8397 44.3803 93.0002 44.5286C92.6911 45.1037 92.3689 45.67 92.0372 46.2323C91.7839 46.186 91.7275 46.146 91.5233 45.9592C90.6754 45.2054 89.5013 44.991 88.403 45.026C87.8311 45.0674 87.3963 45.2059 87.0002 45.6397C86.8324 45.9517 86.7548 46.1971 86.8289 46.5471C87.2571 47.0564 87.9641 47.2011 88.5882 47.3434C88.7455 47.3814 88.9028 47.4194 89.0601 47.4574C89.2795 47.5095 89.499 47.5611 89.7187 47.6119C90.8085 47.8654 92.0451 48.2106 92.778 49.1212C93.3318 50.0355 93.4461 50.9928 93.2485 52.0431C92.9522 52.932 92.2801 53.5437 91.4771 53.987C89.8372 54.7351 87.7706 54.6579 86.0922 54.0743C85.3337 53.7814 84.6327 53.3798 84.0372 52.8249C84.0848 52.5687 84.1862 52.3922 84.3292 52.1756C84.3724 52.1097 84.4156 52.0438 84.4601 51.976C84.5054 51.9078 84.5507 51.8396 84.5974 51.7694C84.643 51.7 84.6886 51.6307 84.7356 51.5593C84.8481 51.3883 84.961 51.2176 85.0743 51.0471C85.3294 51.1031 85.456 51.1794 85.653 51.3527C86.3164 51.8839 87.1375 52.2031 87.9632 52.3805C88.035 52.3973 88.1068 52.4141 88.1808 52.4314C89.0382 52.5189 89.7438 52.4619 90.4817 52.0101C90.5306 52.0101 90.5795 52.0101 90.6298 52.0101C90.8245 51.6464 90.9812 51.2419 90.8659 50.8342C90.8224 50.7563 90.8224 50.7563 90.778 50.6768C90.7535 50.6034 90.7291 50.5301 90.7039 50.4545C90.5315 50.3705 90.5315 50.3705 90.3335 50.3064C90.2564 50.2722 90.2564 50.2722 90.1776 50.2374C89.5517 49.967 88.8923 49.8328 88.2303 49.6824C86.9078 49.3801 85.5181 49.0459 84.7039 47.862C84.2821 47.1427 84.2785 46.1675 84.473 45.3724C84.6583 44.889 84.9249 44.5154 85.2965 44.1583C85.3369 44.1181 85.3773 44.0779 85.4189 44.0364C87.2059 42.3756 90.6317 42.7412 92.5031 44.1062Z" fill="#191919"/>
<path d="M71.6883 44.1062C71.8595 44.2422 72.0248 44.3803 72.1854 44.5286C71.8763 45.1037 71.5541 45.67 71.2224 46.2323C70.969 46.186 70.9127 46.146 70.7085 45.9592C69.8605 45.2054 68.6864 44.991 67.5882 45.026C67.0162 45.0674 66.5815 45.2059 66.1854 45.6397C66.0176 45.9517 65.94 46.1971 66.0141 46.5471C66.4423 47.0564 67.1493 47.2011 67.7733 47.3434C67.9307 47.3814 68.088 47.4194 68.2453 47.4574C68.4647 47.5095 68.6842 47.5611 68.9039 47.6119C69.9936 47.8654 71.2303 48.2106 71.9632 49.1212C72.5169 50.0355 72.6313 50.9928 72.4336 52.0431C72.1373 52.932 71.4653 53.5437 70.6622 53.987C69.0224 54.7351 66.9557 54.6579 65.2774 54.0743C64.5189 53.7814 63.8179 53.3798 63.2224 52.8249C63.27 52.5687 63.3714 52.3922 63.5144 52.1756C63.5576 52.1097 63.6008 52.0438 63.6453 51.976C63.6906 51.9078 63.7359 51.8396 63.7826 51.7694C63.8282 51.7 63.8738 51.6307 63.9208 51.5593C64.0333 51.3883 64.1462 51.2176 64.2595 51.0471C64.5146 51.1031 64.6412 51.1794 64.8382 51.3527C65.5016 51.8839 66.3227 52.2031 67.1483 52.3805C67.2202 52.3973 67.292 52.4141 67.3659 52.4314C68.2234 52.5189 68.929 52.4619 69.6669 52.0101C69.7158 52.0101 69.7646 52.0101 69.815 52.0101C70.0097 51.6464 70.1664 51.2419 70.0511 50.8342C70.0076 50.7563 70.0076 50.7563 69.9632 50.6768C69.9387 50.6034 69.9143 50.5301 69.8891 50.4545C69.7167 50.3705 69.7167 50.3705 69.5187 50.3064C69.4416 50.2722 69.4416 50.2722 69.3628 50.2374C68.7369 49.967 68.0775 49.8328 67.4155 49.6824C66.093 49.3801 64.7033 49.0459 63.8891 47.862C63.4673 47.1427 63.4637 46.1675 63.6582 45.3724C63.8434 44.889 64.1101 44.5154 64.4817 44.1583C64.5221 44.1181 64.5625 44.0779 64.6041 44.0364C66.3911 42.3756 69.8169 42.7412 71.6883 44.1062Z" fill="#191919"/>
<path d="M62.3549 44.1062C62.5261 44.2422 62.6915 44.3803 62.8521 44.5286C62.543 45.1037 62.2208 45.67 61.8891 46.2323C61.6357 46.186 61.5794 46.146 61.3752 45.9592C60.5272 45.2054 59.3531 44.991 58.2548 45.026C57.6829 45.0674 57.2481 45.2059 56.8521 45.6397C56.6842 45.9517 56.6067 46.1971 56.6808 46.5471C57.109 47.0564 57.816 47.2011 58.44 47.3434C58.5973 47.3814 58.7546 47.4194 58.9119 47.4574C59.1314 47.5095 59.3508 47.5611 59.5705 47.6119C60.6603 47.8654 61.897 48.2106 62.6298 49.1212C63.1836 50.0355 63.298 50.9928 63.1003 52.0431C62.804 52.932 62.132 53.5437 61.3289 53.987C59.689 54.7351 57.6224 54.6579 55.9441 54.0743C55.1855 53.7814 54.4846 53.3798 53.8891 52.8249C53.9367 52.5687 54.0381 52.3922 54.181 52.1756C54.2243 52.1097 54.2675 52.0438 54.312 51.976C54.3573 51.9078 54.4026 51.8396 54.4493 51.7694C54.4949 51.7 54.5405 51.6307 54.5874 51.5593C54.7 51.3883 54.8129 51.2176 54.9261 51.0471C55.1812 51.1031 55.3079 51.1794 55.5048 51.3527C56.1683 51.8839 56.9894 52.2031 57.815 52.3805C57.8868 52.3973 57.9586 52.4141 58.0326 52.4314C58.8901 52.5189 59.5957 52.4619 60.3335 52.0101C60.3824 52.0101 60.4313 52.0101 60.4817 52.0101C60.6763 51.6464 60.833 51.2419 60.7178 50.8342C60.6743 50.7563 60.6743 50.7563 60.6298 50.6768C60.6054 50.6034 60.5809 50.5301 60.5558 50.4545C60.3834 50.3705 60.3834 50.3705 60.1854 50.3064C60.1082 50.2722 60.1082 50.2722 60.0295 50.2374C59.4036 49.967 58.7442 49.8328 58.0821 49.6824C56.7596 49.3801 55.3699 49.0459 54.5558 47.862C54.134 47.1427 54.1304 46.1675 54.3249 45.3724C54.5101 44.889 54.7768 44.5154 55.1483 44.1583C55.1887 44.1181 55.2291 44.0779 55.2707 44.0364C57.0577 42.3756 60.4836 42.7412 62.3549 44.1062Z" fill="#191919"/>
<path d="M18.3428 44.2971C18.4637 44.3984 18.584 44.5002 18.7039 44.6027C18.7927 44.674 18.7927 44.674 18.8833 44.7468C20.458 46.0658 21.4367 48.1527 21.6486 50.1762C21.8125 52.679 21.1595 54.9228 19.4956 56.8295C18.029 58.4113 16.0217 59.5416 13.8317 59.6499C11.5045 59.7372 9.24173 59.2146 7.48631 57.5981C7.34748 57.4652 7.21095 57.3304 7.07427 57.1953C7.01593 57.1423 6.95759 57.0893 6.89748 57.0347C5.75552 55.9725 5.01791 54.4083 4.7039 52.899C4.68738 52.8266 4.67086 52.7542 4.65384 52.6797C4.5203 52.0165 4.54229 51.3498 4.55575 50.6768C4.77575 50.7012 4.99575 50.7257 5.22242 50.7508C5.22721 50.7985 5.23201 50.8461 5.23694 50.8952C5.47921 53.2276 6.1868 55.218 8.06125 56.7427C9.76467 57.9929 11.7972 58.4994 13.8937 58.184C15.7197 57.845 17.4712 56.7685 18.5486 55.2517C19.7022 53.556 20.1535 51.534 19.7767 49.5115C19.4046 47.7368 18.3549 46.0274 16.8469 44.9966C15.7245 44.2687 14.4632 43.7354 13.1119 43.6904C13.0231 43.6873 12.9343 43.6842 12.8428 43.681C12.7511 43.6781 12.6595 43.6751 12.565 43.6721C12.4716 43.6689 12.3782 43.6657 12.282 43.6624C12.0523 43.6546 11.8225 43.6471 11.5928 43.6397C11.5195 43.322 11.4461 43.0042 11.3706 42.6768C13.8491 42.312 16.3345 42.7223 18.3428 44.2971Z" fill="#191919"/>
<path d="M17.245 46.3458C18.533 47.5255 19.2893 49.0723 19.3917 50.8258C19.4305 52.5504 18.8858 54.1195 17.6941 55.3874C17.6362 55.4462 17.5783 55.5051 17.5187 55.5657C17.4624 55.623 17.406 55.6802 17.348 55.7393C16.0662 56.9665 14.4264 57.3981 12.6915 57.366C11.3183 57.312 10.0213 56.7804 9.0002 55.862C8.95522 55.8274 8.91025 55.7928 8.86391 55.7572C7.79769 54.9303 7.11319 53.4339 6.88214 52.1328C6.84871 51.8319 6.84383 51.5393 6.84742 51.237C6.84776 51.1828 6.84809 51.1286 6.84843 51.0727C6.8493 50.9408 6.85062 50.8088 6.85205 50.6768C7.10872 50.6034 7.10872 50.6034 7.37057 50.5286C7.37312 50.5699 7.37567 50.6112 7.37829 50.6538C7.49053 52.3478 7.91802 53.7673 9.166 54.987C10.3154 55.9761 11.7971 56.4064 13.2965 56.3064C14.3944 56.1657 15.3271 55.7366 16.1854 55.0471C16.2474 55.0005 16.3093 54.9539 16.3732 54.9059C17.2015 54.2023 17.7474 53.0562 17.9632 52.0101C17.9884 51.8886 17.9884 51.8886 18.0141 51.7647C18.1548 50.1044 17.7188 48.6602 16.6576 47.3712C15.7758 46.4194 14.4473 45.7746 13.1508 45.7014C12.6557 45.6891 12.1618 45.6982 11.6669 45.7138C11.6669 45.4938 11.6669 45.2738 11.6669 45.0471C13.4113 44.2294 15.9011 45.1971 17.245 46.3458Z" fill="#191919"/>
<path d="M0.852051 42.899C1.17217 42.9428 1.39689 43.0581 1.67381 43.2219C1.71673 43.2471 1.75965 43.2723 1.80387 43.2983C1.94372 43.3807 2.08308 43.4639 2.22242 43.5471C2.31989 43.6049 2.41737 43.6626 2.51487 43.7203C3.32543 44.201 4.12809 44.6941 4.92613 45.1953C5.21155 45.3744 5.49705 45.5534 5.78261 45.7323C5.85558 45.7781 5.92856 45.8239 6.00374 45.871C6.54846 46.2117 7.09711 46.5454 7.64716 46.8774C9.01437 47.703 10.322 48.5512 11.5011 49.6357C11.6573 49.7791 11.8163 49.9181 11.9771 50.0564C12.1726 50.228 12.3665 50.401 12.5558 50.5795C12.5985 50.6196 12.6413 50.6596 12.6854 50.7008C12.778 50.8249 12.778 50.8249 12.778 51.1212C12.2893 50.9714 11.831 50.7823 11.3706 50.561C11.3029 50.5286 11.2352 50.4961 11.1655 50.4626C9.70775 49.7525 8.40232 48.8429 7.13099 47.8426C6.20221 47.112 5.25693 46.4029 4.3042 45.704C3.81433 45.3442 3.33162 44.9761 2.85205 44.6027C2.74143 44.5168 2.6308 44.4308 2.52016 44.3449C1.94064 43.8946 1.94064 43.8946 1.68321 43.6932C1.5662 43.6025 1.44833 43.5128 1.32992 43.424C1.26885 43.3778 1.20779 43.3317 1.14487 43.2841C1.08885 43.2423 1.03282 43.2004 0.975098 43.1573C0.934492 43.1209 0.893887 43.0846 0.852051 43.0471C0.852051 42.9983 0.852051 42.9494 0.852051 42.899Z" fill="#191919"/>
<path d="M6.33353 40.3805C6.42749 40.4401 6.42749 40.4401 6.52335 40.5008C6.94784 40.9145 7.09997 41.2996 7.1252 41.8944C7.10359 42.4929 6.93466 42.9016 6.50309 43.3174C6.08059 43.6481 5.60628 43.7597 5.07427 43.7138C4.55402 43.6103 4.15548 43.3827 3.81501 42.9731C3.51356 42.4593 3.42296 41.9547 3.56501 41.3776C3.74955 40.8322 4.05793 40.4915 4.56559 40.2228C5.1476 39.9902 5.8047 40.0405 6.33353 40.3805Z" fill="#191919"/>
<path d="M55.1483 55.6397C55.3683 55.6397 55.5883 55.6397 55.815 55.6397C55.8395 56.2508 55.8639 56.862 55.8891 57.4916C56.1091 57.3083 56.1091 57.3083 56.3335 57.1212C56.7887 56.9695 57.3966 56.9587 57.8561 57.1091C58.3023 57.3677 58.6008 57.7757 58.8058 58.2416C58.9239 58.9742 58.939 59.7225 58.5558 60.3805C58.2399 60.739 57.8999 61.024 57.4157 61.072C56.8582 61.0777 56.4418 61.0667 55.9632 60.7508C55.9387 60.7264 55.9143 60.702 55.8891 60.6768C55.8646 60.7745 55.8402 60.8723 55.815 60.9731C55.595 60.9731 55.375 60.9731 55.1483 60.9731C55.1483 59.2131 55.1483 57.4531 55.1483 55.6397ZM55.815 58.1583C55.7733 58.4466 55.7773 58.7376 55.7733 59.0286C55.7697 59.109 55.766 59.1894 55.7622 59.2723C55.7493 59.7065 55.7493 59.7065 55.9256 60.0892C56.2945 60.4144 56.6277 60.481 57.111 60.4754C57.4632 60.4358 57.6565 60.2356 57.9076 60.0055C58.157 59.5868 58.2289 59.1015 58.1483 58.6212C58.0397 58.2282 57.7999 57.9149 57.4522 57.7017C56.8186 57.4496 56.2686 57.7047 55.815 58.1583Z" fill="#191919"/>
<path d="M96.1067 57.0147C96.1849 57.0157 96.1849 57.0157 96.2646 57.0166C96.7568 57.0326 97.0648 57.1283 97.4224 57.4603C97.9361 58.0126 97.9632 58.4161 97.9632 59.1953C96.9365 59.1953 95.9098 59.1953 94.8521 59.1953C95.1555 59.9887 95.1555 59.9887 95.7965 60.4083C96.2789 60.501 96.6939 60.4578 97.1113 60.1907C97.1579 60.157 97.2045 60.1232 97.2525 60.0885C97.3706 60.0101 97.3706 60.0101 97.5187 60.0101C97.6437 60.1397 97.6437 60.1397 97.7409 60.3064C97.7279 60.4525 97.7279 60.4525 97.6669 60.6027C97.5378 60.71 97.5378 60.71 97.3798 60.8018C97.3281 60.8326 97.2763 60.8635 97.223 60.8952C96.7077 61.1649 95.9421 61.1217 95.3798 61.0017C94.8645 60.7986 94.5311 60.4004 94.284 59.9161C94.1789 59.6217 94.1483 59.3652 94.153 59.0564C94.1536 59.0044 94.1542 58.9524 94.1548 58.8989C94.1762 58.2423 94.3901 57.8387 94.8465 57.3811C95.2392 57.0956 95.6292 57.0075 96.1067 57.0147ZM95.1622 57.9916C94.9633 58.2604 94.9633 58.2604 94.8521 58.7508C95.6587 58.7508 96.4654 58.7508 97.2965 58.7508C97.2231 58.2374 97.2052 58.1257 96.8521 57.7879C96.228 57.4475 95.6833 57.4821 95.1622 57.9916Z" fill="#191919"/>
<path d="M45.44 57.0147C45.5182 57.0157 45.5182 57.0157 45.598 57.0166C46.0901 57.0326 46.3982 57.1283 46.7557 57.4603C47.2694 58.0126 47.2965 58.4161 47.2965 59.1953C46.2698 59.1953 45.2432 59.1953 44.1854 59.1953C44.4888 59.9887 44.4888 59.9887 45.1298 60.4083C45.6122 60.501 46.0273 60.4578 46.4446 60.1907C46.4912 60.157 46.5378 60.1232 46.5858 60.0885C46.7039 60.0101 46.7039 60.0101 46.8521 60.0101C46.9771 60.1397 46.9771 60.1397 47.0743 60.3064C47.0613 60.4525 47.0613 60.4525 47.0002 60.6027C46.8711 60.71 46.8711 60.71 46.7132 60.8018C46.6614 60.8326 46.6097 60.8635 46.5563 60.8952C46.0411 61.1649 45.2755 61.1217 44.7132 61.0017C44.1978 60.7986 43.8645 60.4004 43.6174 59.9161C43.5123 59.6217 43.4816 59.3652 43.4863 59.0564C43.4869 59.0044 43.4875 58.9524 43.4882 58.8989C43.5095 58.2423 43.7234 57.8387 44.1799 57.3811C44.5725 57.0956 44.9625 57.0075 45.44 57.0147ZM44.4956 57.9916C44.2966 58.2604 44.2966 58.2604 44.1854 58.7508C44.9921 58.7508 45.7987 58.7508 46.6298 58.7508C46.5565 58.2374 46.5385 58.1257 46.1854 57.7879C45.5613 57.4475 45.0167 57.4821 44.4956 57.9916Z" fill="#191919"/>
<path d="M83.8011 57.1629C84.064 57.3429 84.2193 57.5662 84.3335 57.862C84.3711 58.1068 84.3682 58.3459 84.3625 58.5931C84.362 58.6615 84.3616 58.7298 84.3612 58.8002C84.3595 59.0168 84.3558 59.2333 84.3521 59.4499C84.3506 59.5974 84.3492 59.745 84.348 59.8925C84.3447 60.2527 84.3396 60.6129 84.3335 60.9731C84.1135 60.9731 83.8935 60.9731 83.6669 60.9731C83.6424 60.8997 83.618 60.8264 83.5928 60.7508C83.5164 60.7997 83.44 60.8486 83.3613 60.899C82.9226 61.1191 82.4421 61.1088 81.9632 61.0471C81.6199 60.9025 81.3942 60.7356 81.1483 60.4545C81.0094 60.0377 80.9787 59.5124 81.1414 59.0986C81.3405 58.8013 81.5556 58.6656 81.8891 58.5286C82.5205 58.4523 83.0553 58.4739 83.5928 58.8249C83.6417 58.3306 83.6417 58.3306 83.4539 57.8944C83.0822 57.6429 82.6973 57.6623 82.2595 57.7138C82.0816 57.7944 81.941 57.8839 81.7869 58.0032C81.6669 58.0842 81.6669 58.0842 81.4446 58.0842C81.3196 57.936 81.3196 57.936 81.2224 57.7879C81.3255 57.5373 81.43 57.4296 81.6622 57.2925C81.7389 57.2463 81.7389 57.2463 81.817 57.1991C82.3298 56.9259 83.264 56.9239 83.8011 57.1629ZM81.8196 59.3203C81.7025 59.5753 81.6832 59.8129 81.7409 60.0842C81.9469 60.3548 82.1484 60.5269 82.4817 60.6027C82.9388 60.6095 83.2372 60.5168 83.5928 60.2323C83.7151 60.11 83.6882 59.9697 83.6946 59.8018C83.6927 59.487 83.6927 59.487 83.5095 59.2323C82.9068 58.9179 82.3703 58.8407 81.8196 59.3203Z" fill="#191919"/>
<path d="M53.4308 57.1629C53.6937 57.3429 53.8489 57.5662 53.9632 57.862C54.0008 58.1068 53.9979 58.3459 53.9921 58.5931C53.9917 58.6615 53.9913 58.7298 53.9908 58.8002C53.9892 59.0168 53.9855 59.2333 53.9817 59.4499C53.9802 59.5974 53.9788 59.745 53.9776 59.8925C53.9744 60.2527 53.9693 60.6129 53.9632 60.9731C53.7432 60.9731 53.5232 60.9731 53.2965 60.9731C53.2721 60.8997 53.2476 60.8264 53.2224 60.7508C53.146 60.7997 53.0696 60.8486 52.9909 60.899C52.5523 61.1191 52.0717 61.1088 51.5928 61.0471C51.2495 60.9025 51.0239 60.7356 50.778 60.4545C50.639 60.0377 50.6084 59.5124 50.771 59.0986C50.9701 58.8013 51.1852 58.6656 51.5187 58.5286C52.1501 58.4523 52.685 58.4739 53.2224 58.8249C53.2713 58.3306 53.2713 58.3306 53.0835 57.8944C52.7119 57.6429 52.327 57.6623 51.8891 57.7138C51.7112 57.7944 51.5706 57.8839 51.4166 58.0032C51.2965 58.0842 51.2965 58.0842 51.0743 58.0842C50.9493 57.936 50.9493 57.936 50.8521 57.7879C50.9552 57.5373 51.0596 57.4296 51.2919 57.2925C51.3685 57.2463 51.3685 57.2463 51.4467 57.1991C51.9594 56.9259 52.8937 56.9239 53.4308 57.1629ZM51.4493 59.3203C51.3321 59.5753 51.3129 59.8129 51.3706 60.0842C51.5765 60.3548 51.778 60.5269 52.1113 60.6027C52.5684 60.6095 52.8669 60.5168 53.2224 60.2323C53.3447 60.11 53.3179 59.9697 53.3243 59.8018C53.3224 59.487 53.3224 59.487 53.1391 59.2323C52.5364 58.9179 52 58.8407 51.4493 59.3203Z" fill="#191919"/>
<path d="M66.9261 57.1212C67.1706 57.1212 67.415 57.1212 67.6669 57.1212C67.9645 57.6811 68.19 58.2681 68.4215 58.8573C68.482 59.0111 68.5426 59.1649 68.6034 59.3186C68.6581 59.4567 68.7124 59.5949 68.7667 59.733C68.8329 59.9262 68.8329 59.9262 68.9261 60.0101C69.3172 59.0568 69.7084 58.1034 70.1113 57.1212C70.3558 57.1212 70.6002 57.1212 70.8521 57.1212C70.8002 57.4994 70.6456 57.8319 70.4973 58.1802C70.469 58.2474 70.4408 58.3146 70.4117 58.3838C70.3211 58.5989 70.2301 58.8138 70.1391 59.0286C70.05 59.2396 69.9611 59.4507 69.8722 59.6617C69.8137 59.8004 69.7551 59.9389 69.6964 60.0775C69.5604 60.3987 69.4264 60.7204 69.2986 61.045C69.2759 61.1021 69.2532 61.1592 69.2298 61.218C69.1884 61.3227 69.1476 61.4278 69.1077 61.5331C68.9551 61.9175 68.7551 62.2363 68.4157 62.4817C68.1936 62.5484 67.9906 62.5425 67.7595 62.5379C67.6728 62.5365 67.5861 62.5352 67.4967 62.5338C67.4306 62.5321 67.3646 62.5304 67.2965 62.5286C67.3209 62.3086 67.3454 62.0886 67.3706 61.862C67.476 61.8681 67.5814 61.8742 67.69 61.8805C67.9561 61.885 67.9561 61.885 68.1761 61.7508C68.2036 61.6897 68.2311 61.6286 68.2595 61.5657C68.304 61.4811 68.3486 61.3965 68.3945 61.3094C68.5537 60.877 68.3621 60.5468 68.1819 60.1478C68.1489 60.0705 68.1159 59.9931 68.0818 59.9134C67.9762 59.667 67.8679 59.4219 67.7595 59.1768C67.6527 58.9304 67.5464 58.6837 67.4402 58.437C67.3741 58.2838 67.3074 58.1308 67.2402 57.978C67.2098 57.9087 67.1794 57.8395 67.1481 57.7681C67.1079 57.6771 67.1079 57.6771 67.0668 57.5841C67.0002 57.4175 67.0002 57.4175 66.9261 57.1212Z" fill="#191919"/>
<path d="M9.61594 43.4684C9.92382 43.7334 10.241 44.0164 10.2771 44.4392C10.2885 44.9587 10.2892 45.2997 9.96316 45.7138C9.56643 46.0902 9.20913 46.1937 8.67178 46.1817C8.27199 46.1324 7.98778 45.9658 7.71316 45.6768C7.41451 45.2173 7.39925 44.8512 7.44464 44.3064C7.57322 43.898 7.84131 43.657 8.18538 43.4175C8.64739 43.1814 9.1631 43.2377 9.61594 43.4684Z" fill="#191919"/>
<path d="M33.0743 57.1212C33.2943 57.1212 33.5143 57.1212 33.7409 57.1212C33.7412 57.2068 33.7416 57.2924 33.7419 57.3805C33.7435 57.6988 33.7475 58.0169 33.7522 58.3351C33.754 58.4727 33.755 58.6103 33.7554 58.7479C33.7561 58.946 33.7592 59.1439 33.7626 59.342C33.7623 59.4033 33.7621 59.4646 33.7618 59.5277C33.7698 59.8484 33.7866 59.9741 33.9921 60.2343C34.26 60.4369 34.4216 60.4241 34.7456 60.4077C35.0813 60.3571 35.3157 60.1948 35.5928 60.0101C35.6178 59.7899 35.629 59.5844 35.6307 59.3637C35.632 59.2998 35.6334 59.2359 35.6347 59.17C35.6387 58.9655 35.6412 58.761 35.6437 58.5564C35.6462 58.4179 35.6487 58.2794 35.6514 58.1409C35.6577 57.801 35.6626 57.4611 35.6669 57.1212C35.8869 57.1212 36.1069 57.1212 36.3335 57.1212C36.3335 58.3923 36.3335 59.6634 36.3335 60.9731C36.1135 60.9731 35.8935 60.9731 35.6669 60.9731C35.6302 60.8264 35.6302 60.8264 35.5928 60.6768C35.5319 60.7169 35.5319 60.7169 35.4698 60.7578C34.9175 61.0811 34.3731 61.149 33.7409 61.0471C33.4128 60.874 33.2265 60.7183 33.0743 60.3805C33.0443 60.1304 33.0484 59.8828 33.0526 59.6313C33.0529 59.5595 33.0532 59.4877 33.0535 59.4137C33.0548 59.185 33.0576 58.9564 33.0604 58.7277C33.0615 58.5724 33.0625 58.417 33.0634 58.2617C33.0659 57.8815 33.0697 57.5014 33.0743 57.1212Z" fill="#191919"/>
<path d="M91.9863 57.024C92.0823 57.0212 92.1782 57.0185 92.2771 57.0156C92.6597 57.0589 92.8791 57.1959 93.1225 57.4924C93.2685 57.8158 93.2499 58.1122 93.2441 58.4629C93.2438 58.5348 93.2435 58.6066 93.2432 58.6806C93.2419 58.9093 93.2391 59.1379 93.2363 59.3666C93.2352 59.5219 93.2342 59.6773 93.2333 59.8326C93.2308 60.2128 93.227 60.5929 93.2224 60.9731C93.0269 60.9731 92.8313 60.9731 92.6298 60.9731C92.6276 60.8627 92.6276 60.8627 92.6254 60.7501C92.6197 60.4752 92.6132 60.2004 92.6063 59.9255C92.6035 59.8069 92.6009 59.6883 92.5986 59.5697C92.5952 59.3985 92.5909 59.2273 92.5864 59.0561C92.5856 59.0037 92.5847 58.9513 92.5838 58.8973C92.5724 58.5057 92.5537 58.0884 92.2722 57.7948C91.9777 57.6465 91.691 57.6606 91.3706 57.7138C91.1238 57.8261 90.8965 57.9657 90.7039 58.1583C90.692 58.3664 90.6847 58.5729 90.6805 58.7812C90.6789 58.8436 90.6774 58.906 90.6758 58.9702C90.6709 59.1702 90.6666 59.3703 90.6622 59.5703C90.659 59.7056 90.6558 59.8408 90.6525 59.9761C90.6446 60.3084 90.6371 60.6407 90.6298 60.9731C90.4098 60.9731 90.1898 60.9731 89.9632 60.9731C89.9632 59.702 89.9632 58.4308 89.9632 57.1212C90.1832 57.1212 90.4032 57.1212 90.6298 57.1212C90.6298 57.2434 90.6298 57.3657 90.6298 57.4916C90.67 57.4657 90.7102 57.4398 90.7516 57.4132C90.8311 57.3626 90.8311 57.3626 90.9122 57.311C90.9647 57.2775 91.0171 57.244 91.0711 57.2095C91.374 57.0328 91.6414 57.0305 91.9863 57.024Z" fill="#191919"/>
<path d="M87.5419 57.024C87.6378 57.0212 87.7338 57.0185 87.8327 57.0156C88.2153 57.0589 88.4346 57.1959 88.678 57.4924C88.824 57.8158 88.8055 58.1122 88.7997 58.4629C88.7994 58.5348 88.7991 58.6066 88.7987 58.6806C88.7975 58.9093 88.7947 59.1379 88.7919 59.3666C88.7907 59.5219 88.7897 59.6773 88.7888 59.8326C88.7864 60.2128 88.7825 60.5929 88.778 60.9731C88.5824 60.9731 88.3869 60.9731 88.1854 60.9731C88.1832 60.8627 88.1832 60.8627 88.1809 60.7501C88.1753 60.4752 88.1687 60.2004 88.1619 59.9255C88.159 59.8069 88.1565 59.6883 88.1541 59.5697C88.1507 59.3985 88.1464 59.2273 88.142 59.0561C88.1411 59.0037 88.1403 58.9513 88.1394 58.8973C88.1279 58.5057 88.1092 58.0884 87.8277 57.7948C87.5332 57.6465 87.2466 57.6606 86.9261 57.7138C86.6794 57.8261 86.452 57.9657 86.2595 58.1583C86.2476 58.3664 86.2402 58.5729 86.236 58.7812C86.2345 58.8436 86.2329 58.906 86.2314 58.9702C86.2265 59.1702 86.2221 59.3703 86.2178 59.5703C86.2146 59.7056 86.2114 59.8408 86.2081 59.9761C86.2001 60.3084 86.1926 60.6407 86.1854 60.9731C85.9654 60.9731 85.7454 60.9731 85.5187 60.9731C85.5187 59.702 85.5187 58.4308 85.5187 57.1212C85.7387 57.1212 85.9587 57.1212 86.1854 57.1212C86.1854 57.2434 86.1854 57.3657 86.1854 57.4916C86.2256 57.4657 86.2658 57.4398 86.3072 57.4132C86.3867 57.3626 86.3867 57.3626 86.4678 57.311C86.5202 57.2775 86.5726 57.244 86.6266 57.2095C86.9295 57.0328 87.197 57.0305 87.5419 57.024Z" fill="#191919"/>
<path d="M41.3196 57.024C41.4156 57.0212 41.5116 57.0185 41.6104 57.0156C41.993 57.0589 42.2124 57.1959 42.4558 57.4924C42.6018 57.8158 42.5833 58.1122 42.5775 58.4629C42.5771 58.5348 42.5768 58.6066 42.5765 58.6806C42.5753 58.9093 42.5725 59.1379 42.5696 59.3666C42.5685 59.5219 42.5675 59.6773 42.5666 59.8326C42.5642 60.2128 42.5603 60.5929 42.5558 60.9731C42.3602 60.9731 42.1646 60.9731 41.9632 60.9731C41.961 60.8627 41.961 60.8627 41.9587 60.7501C41.953 60.4752 41.9465 60.2004 41.9397 59.9255C41.9368 59.8069 41.9342 59.6883 41.9319 59.5697C41.9285 59.3985 41.9242 59.2273 41.9198 59.0561C41.9189 59.0037 41.918 58.9513 41.9172 58.8973C41.9057 58.5057 41.887 58.0884 41.6055 57.7948C41.311 57.6465 41.0244 57.6606 40.7039 57.7138C40.4572 57.8261 40.2298 57.9657 40.0372 58.1583C40.0254 58.3664 40.018 58.5729 40.0138 58.7812C40.0123 58.8436 40.0107 58.906 40.0091 58.9702C40.0043 59.1702 39.9999 59.3703 39.9956 59.5703C39.9924 59.7056 39.9891 59.8408 39.9859 59.9761C39.9779 60.3084 39.9704 60.6407 39.9632 60.9731C39.7432 60.9731 39.5232 60.9731 39.2965 60.9731C39.2965 59.702 39.2965 58.4308 39.2965 57.1212C39.5165 57.1212 39.7365 57.1212 39.9632 57.1212C39.9632 57.2434 39.9632 57.3657 39.9632 57.4916C40.0034 57.4657 40.0436 57.4398 40.085 57.4132C40.1645 57.3626 40.1645 57.3626 40.2456 57.311C40.298 57.2775 40.3504 57.244 40.4044 57.2095C40.7073 57.0328 40.9748 57.0305 41.3196 57.024Z" fill="#191919"/>
<path d="M74.7317 57.0147C74.7875 57.0151 74.8432 57.0154 74.9007 57.0158C75.3253 57.0271 75.6069 57.1012 75.9632 57.3434C76.0365 57.3923 76.1098 57.4412 76.1854 57.4916C76.1452 57.7728 76.0223 57.8969 75.815 58.0842C75.7615 58.0383 75.7081 57.9925 75.653 57.9453C75.2806 57.6639 74.948 57.5814 74.4817 57.6397C74.2271 57.7144 74.2271 57.7144 74.0372 57.862C73.9655 58.0534 73.9655 58.0534 73.9632 58.2323C74.2337 58.4787 74.526 58.5408 74.8706 58.6305C75.9388 58.927 75.9388 58.927 76.1978 59.3298C76.3506 59.7307 76.3171 60.1743 76.1483 60.561C75.7177 61.0024 75.3365 61.0768 74.7456 61.0842C74.1219 61.0785 73.6286 60.9463 73.1483 60.5286C73.2562 60.1871 73.2562 60.1871 73.4319 60.0613C73.5928 60.0101 73.5928 60.0101 73.7409 60.0741C73.8143 60.1272 73.8143 60.1272 73.8891 60.1814C74.2693 60.4525 74.6087 60.4929 75.0743 60.4545C75.3238 60.388 75.3238 60.388 75.5187 60.3064C75.5754 60.0579 75.5754 60.0579 75.5928 59.7879C75.4253 59.5431 75.1977 59.4988 74.9215 59.4221C73.6576 59.0512 73.6576 59.0512 73.3706 58.6768C73.2235 58.3826 73.2567 58.0337 73.2965 57.7138C73.5669 57.1311 74.1505 57.0069 74.7317 57.0147Z" fill="#191919"/>
<path d="M28.5558 57.1212C28.8002 57.1212 29.0446 57.1212 29.2965 57.1212C29.5941 57.6811 29.8197 58.2681 30.0511 58.8573C30.1116 59.0111 30.1722 59.1649 30.2331 59.3186C30.2877 59.4567 30.3421 59.5949 30.3964 59.733C30.4625 59.9262 30.4625 59.9262 30.5558 60.0101C30.9469 59.0568 31.338 58.1034 31.7409 57.1212C31.9854 57.1212 32.2298 57.1212 32.4817 57.1212C32.4368 57.3778 32.3707 57.6047 32.2712 57.8452C32.2293 57.9472 32.2293 57.9472 32.1865 58.0512C32.1564 58.1236 32.1262 58.1959 32.0951 58.2705C32.0641 58.3455 32.0332 58.4204 32.0013 58.4976C31.9359 58.6555 31.8704 58.8134 31.8048 58.9713C31.7039 59.2138 31.6036 59.4565 31.5034 59.6993C31.4399 59.8527 31.3763 60.0061 31.3127 60.1594C31.2825 60.2324 31.2524 60.3054 31.2213 60.3806C31.1933 60.4476 31.1654 60.5146 31.1366 60.5837C31.112 60.6429 31.0874 60.7022 31.062 60.7632C31.0002 60.899 31.0002 60.899 30.9261 60.9731C30.7889 60.9784 30.6514 60.9793 30.5141 60.9777C30.4391 60.977 30.3642 60.9764 30.2869 60.9757C30.2 60.9744 30.2 60.9744 30.1113 60.9731C29.9014 60.4722 29.6918 59.9713 29.4824 59.4702C29.4111 59.2998 29.3398 59.1294 29.2684 58.959C29.1658 58.7141 29.0634 58.4692 28.9611 58.2242C28.9291 58.148 28.8971 58.0717 28.8641 57.9932C28.8344 57.922 28.8048 57.8509 28.7742 57.7775C28.7481 57.715 28.7219 57.6525 28.695 57.5881C28.6298 57.4175 28.6298 57.4175 28.5558 57.1212Z" fill="#191919"/>
<path d="M78.9956 57.0147C79.0476 57.0152 79.0996 57.0156 79.1532 57.0161C79.676 57.0319 79.9811 57.1596 80.3706 57.5101C80.4072 57.5529 80.4439 57.5957 80.4817 57.6397C80.4004 57.8615 80.3575 57.9246 80.1391 58.0286C80.081 58.047 80.023 58.0653 79.9632 58.0842C79.9066 58.0368 79.8501 57.9895 79.7919 57.9407C79.4484 57.6771 79.1212 57.6745 78.7039 57.7138C78.2884 57.8628 78.086 58.0914 77.8706 58.4684C77.7364 58.9715 77.7624 59.4297 78.0216 59.8848C78.2072 60.144 78.405 60.2808 78.7039 60.3805C79.1956 60.4386 79.4796 60.3544 79.8891 60.0842C79.9624 60.0597 80.0358 60.0353 80.1113 60.0101C80.3104 60.1536 80.3104 60.1536 80.4817 60.3064C80.35 60.6416 80.1192 60.8207 79.8017 60.98C79.3057 61.1394 78.5551 61.1509 78.0743 60.9407C77.593 60.6402 77.2115 60.1907 77.0743 59.6397C77.0088 58.9048 77.0117 58.24 77.4875 57.6406C77.9097 57.1813 78.3708 57.0055 78.9956 57.0147Z" fill="#191919"/>
<path d="M65.2224 56.0101C65.4424 56.0101 65.6624 56.0101 65.8891 56.0101C65.8891 56.3523 65.8891 56.6945 65.8891 57.0471C66.158 57.0471 66.4269 57.0471 66.7039 57.0471C66.7039 57.2671 66.7039 57.4871 66.7039 57.7138C66.435 57.7138 66.1661 57.7138 65.8891 57.7138C65.896 58.046 65.9039 58.3781 65.9126 58.7103C65.9154 58.8232 65.918 58.9361 65.9203 59.0491C65.9237 59.2117 65.928 59.3742 65.9325 59.5367C65.9333 59.587 65.9342 59.6374 65.9351 59.6892C65.9433 59.9552 65.9676 60.1535 66.1113 60.3805C66.3069 60.356 66.5024 60.3316 66.7039 60.3064C66.7772 60.4775 66.8506 60.6486 66.9261 60.8249C66.6087 61.1168 66.3085 61.0877 65.8952 61.0784C65.6669 61.0471 65.6669 61.0471 65.4261 60.8805C65.1975 60.5212 65.2124 60.1849 65.2152 59.7682C65.2153 59.7094 65.2154 59.6507 65.2155 59.5901C65.2159 59.4029 65.2169 59.2158 65.2178 59.0286C65.2182 58.9015 65.2185 58.7744 65.2188 58.6473C65.2196 58.3361 65.2209 58.025 65.2224 57.7138C65.0269 57.7138 64.8313 57.7138 64.6298 57.7138C64.6298 57.4938 64.6298 57.2738 64.6298 57.0471C64.8254 57.0471 65.0209 57.0471 65.2224 57.0471C65.2224 56.7049 65.2224 56.3627 65.2224 56.0101Z" fill="#191919"/>
<path d="M61.5928 55.6397C61.8128 55.6397 62.0328 55.6397 62.2595 55.6397C62.2595 57.3997 62.2595 59.1597 62.2595 60.9731C62.0395 60.9731 61.8195 60.9731 61.5928 60.9731C61.5928 59.2131 61.5928 57.4531 61.5928 55.6397Z" fill="#191919"/>
<path d="M37.5187 55.6397C37.7387 55.6397 37.9587 55.6397 38.1854 55.6397C38.1854 57.3997 38.1854 59.1597 38.1854 60.9731C37.9654 60.9731 37.7454 60.9731 37.5187 60.9731C37.5187 59.2131 37.5187 57.4531 37.5187 55.6397Z" fill="#191919"/>
<path d="M3.51872 46.1583C3.8978 46.3548 4.12443 46.568 4.25946 46.9731C4.30294 47.4253 4.2198 47.6494 3.96316 48.0101C3.67934 48.2767 3.35409 48.2785 2.98023 48.2679C2.64985 48.2098 2.46066 48.0497 2.25946 47.7879C2.08093 47.4457 2.07189 47.1161 2.18538 46.7508C2.50122 46.2158 2.92688 46.074 3.51872 46.1583Z" fill="#191919"/>
<path d="M100.852 57.0471C100.852 57.2671 100.852 57.4871 100.852 57.7138C100.803 57.7219 100.754 57.73 100.703 57.7384C100.19 57.8291 100.19 57.8291 99.7409 58.0842C99.6217 58.3226 99.6489 58.5841 99.6434 58.8463C99.6419 58.907 99.6404 58.9676 99.6388 59.03C99.6339 59.224 99.6296 59.418 99.6252 59.612C99.622 59.7433 99.6188 59.8747 99.6155 60.0061C99.6076 60.3284 99.6001 60.6507 99.5928 60.9731C99.3728 60.9731 99.1528 60.9731 98.9261 60.9731C98.9261 59.702 98.9261 58.4308 98.9261 57.1212C99.1461 57.1212 99.3661 57.1212 99.5928 57.1212C99.6172 57.2434 99.6417 57.3657 99.6669 57.4916C99.7219 57.4458 99.7769 57.3999 99.8335 57.3527C100.193 57.0751 100.391 57.0294 100.852 57.0471Z" fill="#191919"/>
<path d="M50.1854 57.0471C50.1854 57.2671 50.1854 57.4871 50.1854 57.7138C50.1362 57.7219 50.087 57.73 50.0364 57.7384C49.5234 57.8291 49.5234 57.8291 49.0743 58.0842C48.9551 58.3226 48.9822 58.5841 48.9768 58.8463C48.9752 58.907 48.9737 58.9676 48.9721 59.03C48.9672 59.224 48.9629 59.418 48.9585 59.612C48.9553 59.7433 48.9521 59.8747 48.9488 60.0061C48.9409 60.3284 48.9334 60.6507 48.9261 60.9731C48.7061 60.9731 48.4861 60.9731 48.2595 60.9731C48.2595 59.702 48.2595 58.4308 48.2595 57.1212C48.4795 57.1212 48.6995 57.1212 48.9261 57.1212C48.9506 57.2434 48.975 57.3657 49.0002 57.4916C49.0552 57.4458 49.1102 57.3999 49.1669 57.3527C49.5262 57.0751 49.7245 57.0294 50.1854 57.0471Z" fill="#191919"/>
<path d="M63.3706 57.1212C63.5906 57.1212 63.8106 57.1212 64.0372 57.1212C64.0372 58.3923 64.0372 59.6634 64.0372 60.9731C63.8172 60.9731 63.5972 60.9731 63.3706 60.9731C63.3706 59.702 63.3706 58.4308 63.3706 57.1212Z" fill="#191919"/>
<path d="M59.7409 57.1212C59.9609 57.1212 60.1809 57.1212 60.4076 57.1212C60.4076 58.3923 60.4076 59.6634 60.4076 60.9731C60.1876 60.9731 59.9676 60.9731 59.7409 60.9731C59.7409 59.702 59.7409 58.4308 59.7409 57.1212Z" fill="#191919"/>
<path d="M63.7039 55.6953C63.9632 55.7138 63.9632 55.7138 64.1113 55.862C64.1298 56.1212 64.1298 56.1212 64.1113 56.3805C63.9632 56.5286 63.9632 56.5286 63.7039 56.5471C63.4446 56.5286 63.4446 56.5286 63.2965 56.3805C63.278 56.1212 63.278 56.1212 63.2965 55.862C63.4446 55.7138 63.4446 55.7138 63.7039 55.6953Z" fill="#191919"/>
<path d="M60.0743 55.6953C60.3335 55.7138 60.3335 55.7138 60.4817 55.862C60.5002 56.1212 60.5002 56.1212 60.4817 56.3805C60.3335 56.5286 60.3335 56.5286 60.0743 56.5471C59.815 56.5286 59.815 56.5286 59.6669 56.3805C59.6483 56.1212 59.6483 56.1212 59.6669 55.862C59.815 55.7138 59.815 55.7138 60.0743 55.6953Z" fill="#191919"/>
</g>
<defs>
<clipPath id="clip0_2336_12849">
<rect width="100" height="100" fill="white" transform="translate(0.852051 0.945435)"/>
</clipPath>
</defs>
</svg>
