<svg width="101" height="101" viewBox="0 0 101 101" fill="none" xmlns="http://www.w3.org/2000/svg">
<g clip-path="url(#clip0_2336_10822)">
<path d="M88.9084 54.3189V37.8635H92.2583V51.5236H100.588V54.3189H88.9084Z" fill="#191919"/>
<path d="M72.5096 48.9206L75.769 48.6037C75.9651 49.6977 76.3612 50.5012 76.9573 51.0143C77.5609 51.5273 78.372 51.7839 79.3905 51.7839C80.4694 51.7839 81.2805 51.5575 81.8237 51.1048C82.3745 50.6446 82.6499 50.1089 82.6499 49.4978C82.6499 49.1054 82.533 48.7734 82.2991 48.5018C82.0727 48.2227 81.6728 47.9812 81.0994 47.7775C80.7071 47.6417 79.813 47.4003 78.4172 47.0532C76.6215 46.6081 75.3615 46.0611 74.6372 45.4122C73.6187 44.4993 73.1094 43.3864 73.1094 42.0736C73.1094 41.2286 73.3471 40.4401 73.8224 39.7083C74.3053 38.9689 74.9956 38.4068 75.8935 38.022C76.7988 37.6372 77.8891 37.4448 79.1642 37.4448C81.2466 37.4448 82.8121 37.9013 83.8609 38.8142C84.9171 39.7271 85.4717 40.9456 85.5245 42.4697L82.1746 42.6168C82.0312 41.7642 81.7219 41.1531 81.2466 40.7834C80.7788 40.4062 80.0733 40.2175 79.1302 40.2175C78.1569 40.2175 77.3949 40.4175 76.8441 40.8174C76.4895 41.0739 76.3122 41.4172 76.3122 41.8472C76.3122 42.2396 76.4782 42.5753 76.8102 42.8545C77.2327 43.2091 78.2588 43.5788 79.8885 43.9636C81.5182 44.3484 82.7216 44.7482 83.4987 45.1632C84.2834 45.5706 84.8945 46.1327 85.3321 46.8495C85.7773 47.5587 85.9998 48.4377 85.9998 49.4864C85.9998 50.4371 85.7358 51.3274 85.2076 52.1573C84.6795 52.9873 83.9325 53.6059 82.9668 54.0134C82.001 54.4133 80.7976 54.6132 79.3566 54.6132C77.2591 54.6132 75.6482 54.1303 74.5241 53.1646C73.3999 52.1913 72.7284 50.7766 72.5096 48.9206Z" fill="#191919"/>
<path d="M57.0501 48.9206L60.3095 48.6037C60.5056 49.6977 60.9018 50.5012 61.4978 51.0143C62.1014 51.5273 62.9125 51.7839 63.931 51.7839C65.0099 51.7839 65.821 51.5575 66.3643 51.1048C66.915 50.6446 67.1904 50.1089 67.1904 49.4978C67.1904 49.1054 67.0735 48.7734 66.8396 48.5018C66.6132 48.2227 66.2134 47.9812 65.6399 47.7775C65.2476 47.6417 64.3535 47.4003 62.9577 47.0532C61.1621 46.6081 59.9021 46.0611 59.1777 45.4122C58.1592 44.4993 57.6499 43.3864 57.6499 42.0736C57.6499 41.2286 57.8876 40.4401 58.3629 39.7083C58.8458 38.9689 59.5361 38.4068 60.434 38.022C61.3394 37.6372 62.4296 37.4448 63.7047 37.4448C65.7871 37.4448 67.3526 37.9013 68.4014 38.8142C69.4577 39.7271 70.0122 40.9456 70.065 42.4697L66.7151 42.6168C66.5717 41.7642 66.2624 41.1531 65.7871 40.7834C65.3193 40.4062 64.6138 40.2175 63.6707 40.2175C62.6974 40.2175 61.9354 40.4175 61.3846 40.8174C61.03 41.0739 60.8527 41.4172 60.8527 41.8472C60.8527 42.2396 61.0187 42.5753 61.3507 42.8545C61.7732 43.2091 62.7993 43.5788 64.429 43.9636C66.0587 44.3484 67.2621 44.7482 68.0392 45.1632C68.8239 45.5706 69.435 46.1327 69.8726 46.8495C70.3178 47.5587 70.5404 48.4377 70.5404 49.4864C70.5404 50.4371 70.2763 51.3274 69.7481 52.1573C69.22 52.9873 68.4731 53.6059 67.5073 54.0134C66.5416 54.4133 65.3382 54.6132 63.8971 54.6132C61.7996 54.6132 60.1888 54.1303 59.0646 53.1646C57.9404 52.1913 57.2689 50.7766 57.0501 48.9206Z" fill="#191919"/>
<path d="M44.8387 54.3189V42.2999H46.6721V44.0088C47.5548 42.6885 48.8299 42.0283 50.4973 42.0283C51.2217 42.0283 51.8856 42.1603 52.4892 42.4244C53.1003 42.6809 53.5568 43.0205 53.8586 43.443C54.1604 43.8655 54.3717 44.3672 54.4924 44.9482C54.5678 45.3254 54.6055 45.9856 54.6055 46.9287V54.3189H52.5684V47.0079C52.5684 46.178 52.4892 45.5593 52.3308 45.1519C52.1723 44.7369 51.8894 44.4087 51.482 44.1673C51.0821 43.9183 50.6105 43.7938 50.0673 43.7938C49.1996 43.7938 48.4489 44.0692 47.8151 44.62C47.1889 45.1708 46.8758 46.2157 46.8758 47.7549V54.3189H44.8387Z" fill="#191919"/>
<path d="M40.1646 50.4484L42.2696 50.7087C41.9377 51.9385 41.3228 52.893 40.4249 53.572C39.5271 54.251 38.3803 54.5906 36.9844 54.5906C35.2265 54.5906 33.8307 54.0511 32.797 52.9722C31.7709 51.8857 31.2579 50.3654 31.2579 48.4113C31.2579 46.3893 31.7785 44.8199 32.8197 43.7033C33.8609 42.5866 35.2114 42.0283 36.8713 42.0283C38.4783 42.0283 39.7911 42.5753 40.8097 43.6693C41.8283 44.7633 42.3376 46.3025 42.3376 48.2868C42.3376 48.4075 42.3338 48.5886 42.3262 48.83H33.3629C33.4384 50.1504 33.8118 51.1614 34.4833 51.8631C35.1548 52.5648 35.9923 52.9156 36.9958 52.9156C37.7427 52.9156 38.3803 52.7194 38.9084 52.3271C39.4365 51.9348 39.8553 51.3085 40.1646 50.4484ZM33.4761 47.1551H40.1873C40.0967 46.144 39.8402 45.3858 39.4177 44.8803C38.7688 44.0956 37.9276 43.7033 36.8939 43.7033C35.9583 43.7033 35.1699 44.0164 34.5286 44.6426C33.8948 45.2688 33.544 46.1063 33.4761 47.1551Z" fill="#191919"/>
<path d="M19.0352 58.9251V42.2999H20.8912V43.8617C21.3288 43.2506 21.823 42.7941 22.3738 42.4923C22.9245 42.183 23.5923 42.0283 24.3769 42.0283C25.403 42.0283 26.3084 42.2924 27.0931 42.8205C27.8778 43.3487 28.47 44.0956 28.8699 45.0614C29.2698 46.0196 29.4697 47.0721 29.4697 48.2189C29.4697 49.4487 29.2472 50.5578 28.802 51.5462C28.3644 52.527 27.7231 53.2815 26.8781 53.8097C26.0406 54.3303 25.1578 54.5906 24.2298 54.5906C23.5508 54.5906 22.9396 54.4472 22.3964 54.1605C21.8607 53.8738 21.4193 53.5116 21.0723 53.074V58.9251H19.0352ZM20.8799 48.3773C20.8799 49.924 21.193 51.0671 21.8192 51.8065C22.4454 52.5459 23.2037 52.9156 24.094 52.9156C24.9994 52.9156 25.7727 52.5346 26.4141 51.7725C27.0629 51.003 27.3873 49.8146 27.3873 48.2076C27.3873 46.676 27.0705 45.5291 26.4367 44.7671C25.8105 44.0051 25.0597 43.6241 24.1845 43.6241C23.3169 43.6241 22.5473 44.0315 21.8758 44.8463C21.2119 45.6536 20.8799 46.8306 20.8799 48.3773Z" fill="#191919"/>
<path d="M0.587891 46.2384C0.587891 43.4845 1.32729 41.3304 2.80609 39.7762C4.28489 38.2144 6.19375 37.4335 8.53266 37.4335C10.0643 37.4335 11.445 37.7994 12.6748 38.5313C13.9046 39.2631 14.8402 40.2854 15.4815 41.5983C16.1304 42.9035 16.4548 44.3861 16.4548 46.046C16.4548 47.7285 16.1153 49.2337 15.4362 50.5616C14.7572 51.8895 13.7952 52.8967 12.5503 53.5833C11.3054 54.2624 9.96242 54.6019 8.52134 54.6019C6.95955 54.6019 5.56375 54.2246 4.33393 53.4701C3.10411 52.7157 2.17232 51.6858 1.53855 50.3805C0.904776 49.0752 0.587891 47.6945 0.587891 46.2384ZM2.85136 46.2723C2.85136 48.2717 3.38705 49.8486 4.45842 51.003C5.53734 52.1498 6.88788 52.7232 8.51003 52.7232C10.1624 52.7232 11.5204 52.1422 12.5843 50.9803C13.6556 49.8184 14.1913 48.1699 14.1913 46.0346C14.1913 44.6841 13.9612 43.5071 13.501 42.5036C13.0483 41.4926 12.3806 40.7117 11.4978 40.161C10.6226 39.6026 9.63799 39.3235 8.54398 39.3235C6.98973 39.3235 5.65051 39.8592 4.52632 40.9305C3.40968 41.9944 2.85136 43.775 2.85136 46.2723Z" fill="#191919"/>
<path d="M99.2484 61.2556L99.3112 61.6397C99.1888 61.6655 99.0793 61.6783 98.9826 61.6783C98.8248 61.6783 98.7024 61.6534 98.6154 61.6035C98.5285 61.5535 98.4673 61.4883 98.4318 61.4078C98.3964 61.3257 98.3787 61.1541 98.3787 60.8932V59.4173H98.0598V59.0791H98.3787V58.4437L98.8111 58.1828V59.0791H99.2484V59.4173H98.8111V60.9174C98.8111 61.0414 98.8184 61.1211 98.8328 61.1566C98.849 61.192 98.8739 61.2202 98.9077 61.2411C98.9432 61.262 98.9931 61.2725 99.0575 61.2725C99.1058 61.2725 99.1694 61.2669 99.2484 61.2556Z" fill="#191919"/>
<path d="M97.1998 58.6032V58.1031H97.6347V58.6032H97.1998ZM97.1998 61.6445V59.0791H97.6347V61.6445H97.1998Z" fill="#191919"/>
<path d="M94.7262 61.6445V58.1031H95.161V60.1226L96.1901 59.0791H96.7529L95.7722 60.0308L96.852 61.6445H96.3157L95.4678 60.3328L95.161 60.6275V61.6445H94.7262Z" fill="#191919"/>
<path d="M93.6125 61.6445V58.1031H94.0474V61.6445H93.6125Z" fill="#191919"/>
<path d="M90.7065 60.3618C90.7065 59.8867 90.8385 59.5348 91.1026 59.3061C91.3233 59.1161 91.5922 59.0211 91.9095 59.0211C92.2622 59.0211 92.5504 59.137 92.7743 59.3689C92.9982 59.5992 93.1101 59.9181 93.1101 60.3256C93.1101 60.6557 93.0602 60.9158 92.9603 61.1058C92.8621 61.2943 92.7179 61.4408 92.5279 61.5455C92.3395 61.6502 92.1333 61.7025 91.9095 61.7025C91.5504 61.7025 91.2597 61.5874 91.0374 61.3571C90.8168 61.1268 90.7065 60.795 90.7065 60.3618ZM91.1534 60.3618C91.1534 60.6903 91.225 60.9367 91.3684 61.101C91.5117 61.2637 91.6921 61.345 91.9095 61.345C92.1253 61.345 92.3049 61.2628 92.4482 61.0986C92.5915 60.9343 92.6632 60.6839 92.6632 60.3473C92.6632 60.03 92.5907 59.7901 92.4458 59.6274C92.3024 59.4632 92.1237 59.381 91.9095 59.381C91.6921 59.381 91.5117 59.4624 91.3684 59.625C91.225 59.7877 91.1534 60.0333 91.1534 60.3618Z" fill="#191919"/>
<path d="M87.9526 60.3618C87.9526 59.8867 88.0846 59.5348 88.3488 59.3061C88.5694 59.1161 88.8383 59.0211 89.1556 59.0211C89.5083 59.0211 89.7966 59.137 90.0204 59.3689C90.2443 59.5992 90.3562 59.9181 90.3562 60.3256C90.3562 60.6557 90.3063 60.9158 90.2064 61.1058C90.1082 61.2943 89.9641 61.4408 89.774 61.5455C89.5856 61.6502 89.3795 61.7025 89.1556 61.7025C88.7965 61.7025 88.5058 61.5874 88.2835 61.3571C88.0629 61.1268 87.9526 60.795 87.9526 60.3618ZM88.3995 60.3618C88.3995 60.6903 88.4712 60.9367 88.6145 61.101C88.7578 61.2637 88.9382 61.345 89.1556 61.345C89.3714 61.345 89.551 61.2628 89.6943 61.0986C89.8376 60.9343 89.9093 60.6839 89.9093 60.3473C89.9093 60.03 89.8368 59.7901 89.6919 59.6274C89.5486 59.4632 89.3698 59.381 89.1556 59.381C88.9382 59.381 88.7578 59.4624 88.6145 59.625C88.4712 59.7877 88.3995 60.0333 88.3995 60.3618Z" fill="#191919"/>
<path d="M86.5974 61.6445V58.521H85.4306V58.1031H88.2376V58.521H87.066V61.6445H86.5974Z" fill="#191919"/>
<path d="M80.9519 60.5067L81.394 60.4681C81.4149 60.6452 81.4632 60.791 81.5389 60.9053C81.6162 61.0181 81.7354 61.1099 81.8965 61.1807C82.0575 61.25 82.2387 61.2846 82.44 61.2846C82.6187 61.2846 82.7766 61.258 82.9135 61.2049C83.0503 61.1517 83.1518 61.0793 83.2178 60.9875C83.2855 60.8941 83.3193 60.7926 83.3193 60.6831C83.3193 60.572 83.2871 60.4753 83.2227 60.3932C83.1582 60.3095 83.052 60.2394 82.9038 60.183C82.8088 60.146 82.5986 60.0888 82.2733 60.0115C81.948 59.9326 81.7201 59.8585 81.5897 59.7893C81.4206 59.7007 81.2941 59.5912 81.2104 59.4607C81.1283 59.3287 81.0872 59.1813 81.0872 59.0187C81.0872 58.8399 81.1379 58.6732 81.2394 58.5186C81.3408 58.3624 81.489 58.244 81.6839 58.1635C81.8787 58.083 82.0953 58.0427 82.3337 58.0427C82.5962 58.0427 82.8273 58.0854 83.027 58.1708C83.2283 58.2545 83.3829 58.3785 83.4908 58.5428C83.5987 58.707 83.6567 58.8931 83.6647 59.1008L83.2154 59.1346C83.1913 58.9108 83.1091 58.7417 82.969 58.6273C82.8305 58.513 82.6252 58.4558 82.353 58.4558C82.0696 58.4558 81.8626 58.5082 81.7322 58.6128C81.6033 58.7159 81.5389 58.8407 81.5389 58.9873C81.5389 59.1145 81.5848 59.2192 81.6766 59.3013C81.7668 59.3834 82.0019 59.468 82.382 59.555C82.7637 59.6403 83.0254 59.7152 83.1671 59.7796C83.3732 59.8746 83.5254 59.9954 83.6237 60.142C83.7219 60.2869 83.771 60.4544 83.771 60.6444C83.771 60.8329 83.7171 61.0108 83.6092 61.1783C83.5013 61.3442 83.3459 61.4738 83.143 61.5672C82.9416 61.659 82.7146 61.7049 82.4617 61.7049C82.1412 61.7049 81.8723 61.6582 81.6549 61.5648C81.4391 61.4714 81.2692 61.3313 81.1452 61.1445C81.0228 60.9561 80.9584 60.7435 80.9519 60.5067Z" fill="#191919"/>
<path d="M78.3381 61.6445V58.1031H78.8068V61.2266H80.5509V61.6445H78.3381Z" fill="#191919"/>
<path d="M76.2341 61.6445V58.521H75.0673V58.1031H77.8743V58.521H76.7027V61.6445H76.2341Z" fill="#191919"/>
<path d="M73.5744 61.7049L74.6011 58.0427H74.9489L73.9247 61.7049H73.5744Z" fill="#191919"/>
<path d="M71.1829 61.6445V58.1031H71.6515V61.2266H73.3956V61.6445H71.1829Z" fill="#191919"/>
<path d="M67.7429 60.5067L68.185 60.4681C68.2059 60.6452 68.2542 60.791 68.3299 60.9053C68.4072 61.0181 68.5264 61.1099 68.6875 61.1807C68.8485 61.25 69.0297 61.2846 69.231 61.2846C69.4098 61.2846 69.5676 61.258 69.7045 61.2049C69.8414 61.1517 69.9428 61.0793 70.0089 60.9875C70.0765 60.8941 70.1103 60.7926 70.1103 60.6831C70.1103 60.572 70.0781 60.4753 70.0137 60.3932C69.9493 60.3095 69.843 60.2394 69.6948 60.183C69.5998 60.146 69.3896 60.0888 69.0643 60.0115C68.739 59.9326 68.5111 59.8585 68.3807 59.7893C68.2116 59.7007 68.0852 59.5912 68.0014 59.4607C67.9193 59.3287 67.8782 59.1813 67.8782 59.0187C67.8782 58.8399 67.9289 58.6732 68.0304 58.5186C68.1319 58.3624 68.28 58.244 68.4749 58.1635C68.6698 58.083 68.8864 58.0427 69.1247 58.0427C69.3872 58.0427 69.6183 58.0854 69.818 58.1708C70.0193 58.2545 70.1739 58.3785 70.2818 58.5428C70.3897 58.707 70.4477 58.8931 70.4557 59.1008L70.0064 59.1346C69.9823 58.9108 69.9001 58.7417 69.76 58.6273C69.6215 58.513 69.4162 58.4558 69.144 58.4558C68.8606 58.4558 68.6536 58.5082 68.5232 58.6128C68.3944 58.7159 68.3299 58.8407 68.3299 58.9873C68.3299 59.1145 68.3758 59.2192 68.4676 59.3013C68.5578 59.3834 68.793 59.468 69.173 59.555C69.5547 59.6403 69.8164 59.7152 69.9581 59.7796C70.1643 59.8746 70.3164 59.9954 70.4147 60.142C70.5129 60.2869 70.562 60.4544 70.562 60.6444C70.562 60.8329 70.5081 61.0108 70.4002 61.1783C70.2923 61.3442 70.1369 61.4738 69.934 61.5672C69.7327 61.659 69.5056 61.7049 69.2527 61.7049C68.9323 61.7049 68.6633 61.6582 68.4459 61.5648C68.2301 61.4714 68.0602 61.3313 67.9362 61.1445C67.8138 60.9561 67.7494 60.7435 67.7429 60.5067Z" fill="#191919"/>
<path d="M64.4431 60.5067L64.8852 60.4681C64.9061 60.6452 64.9544 60.791 65.0301 60.9053C65.1074 61.0181 65.2266 61.1099 65.3876 61.1807C65.5487 61.25 65.7299 61.2846 65.9312 61.2846C66.1099 61.2846 66.2678 61.258 66.4046 61.2049C66.5415 61.1517 66.643 61.0793 66.709 60.9875C66.7767 60.8941 66.8105 60.7926 66.8105 60.6831C66.8105 60.572 66.7783 60.4753 66.7139 60.3932C66.6494 60.3095 66.5431 60.2394 66.395 60.183C66.3 60.146 66.0898 60.0888 65.7645 60.0115C65.4392 59.9326 65.2113 59.8585 65.0808 59.7893C64.9117 59.7007 64.7853 59.5912 64.7016 59.4607C64.6194 59.3287 64.5784 59.1813 64.5784 59.0187C64.5784 58.8399 64.6291 58.6732 64.7306 58.5186C64.832 58.3624 64.9802 58.244 65.1751 58.1635C65.3699 58.083 65.5865 58.0427 65.8249 58.0427C66.0874 58.0427 66.3185 58.0854 66.5182 58.1708C66.7195 58.2545 66.8741 58.3785 66.982 58.5428C67.0899 58.707 67.1479 58.8931 67.1559 59.1008L66.7066 59.1346C66.6824 58.9108 66.6003 58.7417 66.4602 58.6273C66.3217 58.513 66.1164 58.4558 65.8442 58.4558C65.5608 58.4558 65.3538 58.5082 65.2234 58.6128C65.0945 58.7159 65.0301 58.8407 65.0301 58.9873C65.0301 59.1145 65.076 59.2192 65.1678 59.3013C65.258 59.3834 65.4931 59.468 65.8732 59.555C66.2549 59.6403 66.5166 59.7152 66.6583 59.7796C66.8644 59.8746 67.0166 59.9954 67.1149 60.142C67.2131 60.2869 67.2622 60.4544 67.2622 60.6444C67.2622 60.8329 67.2083 61.0108 67.1004 61.1783C66.9925 61.3442 66.8371 61.4738 66.6341 61.5672C66.4328 61.659 66.2057 61.7049 65.9529 61.7049C65.6324 61.7049 65.3635 61.6582 65.1461 61.5648C64.9303 61.4714 64.7604 61.3313 64.6364 61.1445C64.514 60.9561 64.4495 60.7435 64.4431 60.5067Z" fill="#191919"/>
<path d="M62.0806 61.6445V61.3208C61.9179 61.5753 61.6787 61.7025 61.3631 61.7025C61.1586 61.7025 60.9701 61.6461 60.7978 61.5334C60.6271 61.4207 60.4943 61.2637 60.3992 61.0623C60.3058 60.8594 60.2591 60.6267 60.2591 60.3642C60.2591 60.1081 60.3018 59.8762 60.3872 59.6685C60.4725 59.4591 60.6005 59.2989 60.7713 59.1878C60.942 59.0766 61.1328 59.0211 61.3438 59.0211C61.4984 59.0211 61.6361 59.0541 61.7569 59.1201C61.8776 59.1845 61.9759 59.2691 62.0516 59.3738V58.1031H62.484V61.6445H62.0806ZM60.706 60.3642C60.706 60.6927 60.7753 60.9383 60.9138 61.101C61.0523 61.2637 61.2157 61.345 61.4042 61.345C61.5942 61.345 61.7552 61.2677 61.8873 61.1131C62.021 60.9569 62.0878 60.7193 62.0878 60.4004C62.0878 60.0494 62.0202 59.7917 61.8849 59.6274C61.7496 59.4632 61.5829 59.381 61.3848 59.381C61.1916 59.381 61.0297 59.4599 60.8993 59.6178C60.7704 59.7756 60.706 60.0244 60.706 60.3642Z" fill="#191919"/>
<path d="M57.6623 61.6445V59.0791H58.0536V59.4438C58.242 59.162 58.5142 59.0211 58.8701 59.0211C59.0247 59.0211 59.1664 59.0493 59.2953 59.1056C59.4257 59.1604 59.5231 59.2329 59.5876 59.323C59.652 59.4132 59.6971 59.5203 59.7228 59.6443C59.7389 59.7249 59.747 59.8658 59.747 60.0671V61.6445H59.3122V60.084C59.3122 59.9068 59.2953 59.7748 59.2614 59.6878C59.2276 59.5992 59.1672 59.5292 59.0803 59.4777C58.9949 59.4245 58.8943 59.3979 58.7783 59.3979C58.5931 59.3979 58.4329 59.4567 58.2976 59.5743C58.1639 59.6918 58.0971 59.9149 58.0971 60.2434V61.6445H57.6623Z" fill="#191919"/>
<path d="M56.5824 61.3281C56.4214 61.465 56.266 61.5616 56.1162 61.618C55.9681 61.6743 55.8086 61.7025 55.6379 61.7025C55.3561 61.7025 55.1395 61.6341 54.9881 61.4972C54.8367 61.3587 54.761 61.1823 54.761 60.9681C54.761 60.8425 54.7892 60.7282 54.8456 60.6251C54.9035 60.5204 54.9784 60.4367 55.0702 60.3739C55.1636 60.3111 55.2683 60.2636 55.3843 60.2313C55.4696 60.2088 55.5985 60.1871 55.7708 60.1661C56.1219 60.1243 56.3803 60.0743 56.5462 60.0164C56.5478 59.9568 56.5486 59.9189 56.5486 59.9028C56.5486 59.7257 56.5076 59.6009 56.4254 59.5284C56.3143 59.4301 56.1492 59.381 55.9302 59.381C55.7257 59.381 55.5743 59.4173 55.4761 59.4897C55.3794 59.5606 55.3078 59.687 55.2611 59.869L54.8359 59.811C54.8746 59.629 54.9382 59.4825 55.0267 59.3714C55.1153 59.2586 55.2434 59.1725 55.4108 59.1129C55.5783 59.0517 55.7724 59.0211 55.993 59.0211C56.212 59.0211 56.39 59.0469 56.5269 59.0984C56.6638 59.1499 56.7644 59.2151 56.8288 59.2941C56.8933 59.3714 56.9384 59.4696 56.9641 59.5888C56.9786 59.6629 56.9859 59.7965 56.9859 59.9898V60.5695C56.9859 60.9738 56.9947 61.2298 57.0124 61.3377C57.0318 61.444 57.0688 61.5463 57.1236 61.6445H56.6694C56.6243 61.5543 56.5953 61.4489 56.5824 61.3281ZM56.5462 60.357C56.3884 60.4214 56.1516 60.4761 55.836 60.5212C55.6572 60.547 55.5308 60.576 55.4567 60.6082C55.3827 60.6404 55.3255 60.6879 55.2852 60.7507C55.245 60.8119 55.2248 60.8804 55.2248 60.9561C55.2248 61.072 55.2683 61.1686 55.3553 61.2459C55.4439 61.3232 55.5727 61.3619 55.7418 61.3619C55.9093 61.3619 56.0582 61.3257 56.1887 61.2532C56.3191 61.1791 56.415 61.0785 56.4762 60.9512C56.5229 60.853 56.5462 60.708 56.5462 60.5164V60.357Z" fill="#191919"/>
<path d="M51.0384 62.6325L50.9901 62.2243C51.0851 62.2501 51.1681 62.2629 51.2389 62.2629C51.3356 62.2629 51.4129 62.2468 51.4709 62.2146C51.5288 62.1824 51.5763 62.1373 51.6134 62.0794C51.6408 62.0359 51.685 61.928 51.7462 61.7556C51.7543 61.7315 51.7672 61.6961 51.7849 61.6494L50.8114 59.0791H51.28L51.8139 60.5647C51.8831 60.7531 51.9451 60.9512 51.9999 61.159C52.0498 60.9593 52.1094 60.7644 52.1786 60.5744L52.727 59.0791H53.1618L52.1859 61.688C52.0812 61.9698 51.9999 62.1639 51.9419 62.2702C51.8646 62.4135 51.776 62.5182 51.6762 62.5842C51.5763 62.6519 51.4572 62.6857 51.3187 62.6857C51.2349 62.6857 51.1415 62.668 51.0384 62.6325Z" fill="#191919"/>
<path d="M48.3039 61.6445V58.1031H48.7387V59.3738C48.9416 59.1387 49.1977 59.0211 49.5069 59.0211C49.6969 59.0211 49.862 59.0589 50.0021 59.1346C50.1422 59.2087 50.2421 59.3118 50.3017 59.4438C50.3629 59.5759 50.3935 59.7675 50.3935 60.0188V61.6445H49.9586V60.0188C49.9586 59.8014 49.9111 59.6435 49.8161 59.5453C49.7227 59.4454 49.5898 59.3955 49.4175 59.3955C49.2887 59.3955 49.1671 59.4293 49.0527 59.497C48.94 59.563 48.8595 59.6532 48.8112 59.7675C48.7629 59.8819 48.7387 60.0397 48.7387 60.241V61.6445H48.3039Z" fill="#191919"/>
<path d="M45.55 62.6277V59.0791H45.9462V59.4124C46.0396 59.282 46.1451 59.1845 46.2626 59.1201C46.3802 59.0541 46.5227 59.0211 46.6902 59.0211C46.9092 59.0211 47.1025 59.0775 47.27 59.1902C47.4375 59.3029 47.5639 59.4624 47.6492 59.6685C47.7346 59.873 47.7773 60.0977 47.7773 60.3425C47.7773 60.605 47.7298 60.8417 47.6347 61.0527C47.5413 61.262 47.4044 61.4231 47.2241 61.5358C47.0453 61.6469 46.8569 61.7025 46.6588 61.7025C46.5139 61.7025 46.3834 61.6719 46.2675 61.6107C46.1531 61.5495 46.0589 61.4722 45.9848 61.3788V62.6277H45.55ZM45.9438 60.3763C45.9438 60.7064 46.0106 60.9504 46.1443 61.1082C46.2779 61.2661 46.4398 61.345 46.6298 61.345C46.8231 61.345 46.9881 61.2637 47.125 61.101C47.2635 60.9367 47.3328 60.6831 47.3328 60.3401C47.3328 60.0131 47.2651 59.7683 47.1299 59.6057C46.9962 59.443 46.8359 59.3617 46.6491 59.3617C46.4639 59.3617 46.2997 59.4487 46.1563 59.6226C46.0146 59.7949 45.9438 60.0461 45.9438 60.3763Z" fill="#191919"/>
<path d="M44.4702 61.3281C44.3091 61.465 44.1537 61.5616 44.004 61.618C43.8558 61.6743 43.6964 61.7025 43.5257 61.7025C43.2438 61.7025 43.0272 61.6341 42.8758 61.4972C42.7244 61.3587 42.6488 61.1823 42.6488 60.9681C42.6488 60.8425 42.6769 60.7282 42.7333 60.6251C42.7913 60.5204 42.8662 60.4367 42.958 60.3739C43.0514 60.3111 43.156 60.2636 43.272 60.2313C43.3574 60.2088 43.4862 60.1871 43.6585 60.1661C44.0096 60.1243 44.2681 60.0743 44.4339 60.0164C44.4356 59.9568 44.4364 59.9189 44.4364 59.9028C44.4364 59.7257 44.3953 59.6009 44.3132 59.5284C44.202 59.4301 44.037 59.381 43.8179 59.381C43.6134 59.381 43.462 59.4173 43.3638 59.4897C43.2672 59.5606 43.1955 59.687 43.1488 59.869L42.7236 59.811C42.7623 59.629 42.8259 59.4825 42.9145 59.3714C43.0031 59.2586 43.1311 59.1725 43.2986 59.1129C43.4661 59.0517 43.6601 59.0211 43.8808 59.0211C44.0998 59.0211 44.2777 59.0469 44.4146 59.0984C44.5515 59.1499 44.6522 59.2151 44.7166 59.2941C44.781 59.3714 44.8261 59.4696 44.8519 59.5888C44.8664 59.6629 44.8736 59.7965 44.8736 59.9898V60.5695C44.8736 60.9738 44.8825 61.2298 44.9002 61.3377C44.9195 61.444 44.9565 61.5463 45.0113 61.6445H44.5571C44.5121 61.5543 44.4831 61.4489 44.4702 61.3281ZM44.4339 60.357C44.2761 60.4214 44.0394 60.4761 43.7237 60.5212C43.545 60.547 43.4186 60.576 43.3445 60.6082C43.2704 60.6404 43.2132 60.6879 43.173 60.7507C43.1327 60.8119 43.1126 60.8804 43.1126 60.9561C43.1126 61.072 43.156 61.1686 43.243 61.2459C43.3316 61.3232 43.4604 61.3619 43.6295 61.3619C43.797 61.3619 43.946 61.3257 44.0764 61.2532C44.2069 61.1791 44.3027 61.0785 44.3639 60.9512C44.4106 60.853 44.4339 60.708 44.4339 60.5164V60.357Z" fill="#191919"/>
<path d="M41.1438 61.6445V59.0791H41.5351V59.468C41.635 59.286 41.7268 59.166 41.8105 59.1081C41.8959 59.0501 41.9893 59.0211 42.0907 59.0211C42.2373 59.0211 42.3862 59.0678 42.5376 59.1612L42.3879 59.5646C42.2816 59.5018 42.1753 59.4704 42.069 59.4704C41.974 59.4704 41.8886 59.4994 41.8129 59.5574C41.7372 59.6137 41.6833 59.6926 41.6511 59.7941C41.6028 59.9487 41.5786 60.1178 41.5786 60.3014V61.6445H41.1438Z" fill="#191919"/>
<path d="M38.315 61.8571L38.7378 61.9199C38.7555 62.0504 38.8046 62.1454 38.8851 62.205C38.993 62.2855 39.1404 62.3258 39.3272 62.3258C39.5285 62.3258 39.6839 62.2855 39.7934 62.205C39.9029 62.1244 39.977 62.0117 40.0157 61.8668C40.0382 61.7782 40.0487 61.5922 40.0471 61.3087C39.857 61.5326 39.6203 61.6445 39.3368 61.6445C38.9842 61.6445 38.7112 61.5173 38.5179 61.2628C38.3247 61.0084 38.228 60.7032 38.228 60.3473C38.228 60.1025 38.2723 59.877 38.3609 59.6709C38.4495 59.4632 38.5775 59.3029 38.745 59.1902C38.9141 59.0775 39.1122 59.0211 39.3393 59.0211C39.642 59.0211 39.8916 59.1435 40.0881 59.3883V59.0791H40.4891V61.2967C40.4891 61.6961 40.4481 61.9787 40.3659 62.1446C40.2854 62.3121 40.1566 62.4441 39.9794 62.5407C39.8039 62.6374 39.5873 62.6857 39.3296 62.6857C39.0236 62.6857 38.7764 62.6164 38.588 62.4779C38.3996 62.3411 38.3086 62.1341 38.315 61.8571ZM38.6749 60.3159C38.6749 60.6525 38.7418 60.8981 38.8754 61.0527C39.0091 61.2073 39.1766 61.2846 39.3779 61.2846C39.5776 61.2846 39.7451 61.2081 39.8804 61.0551C40.0157 60.9005 40.0833 60.6589 40.0833 60.3304C40.0833 60.0164 40.0132 59.7796 39.8731 59.6202C39.7346 59.4607 39.5671 59.381 39.3707 59.381C39.1774 59.381 39.0131 59.4599 38.8779 59.6178C38.7426 59.774 38.6749 60.0067 38.6749 60.3159Z" fill="#191919"/>
<path d="M35.479 60.3618C35.479 59.8867 35.611 59.5348 35.8752 59.3061C36.0958 59.1161 36.3647 59.0211 36.682 59.0211C37.0347 59.0211 37.323 59.137 37.5468 59.3689C37.7707 59.5992 37.8826 59.9181 37.8826 60.3256C37.8826 60.6557 37.8327 60.9158 37.7328 61.1058C37.6346 61.2943 37.4905 61.4408 37.3004 61.5455C37.112 61.6502 36.9059 61.7025 36.682 61.7025C36.3229 61.7025 36.0322 61.5874 35.8099 61.3571C35.5893 61.1268 35.479 60.795 35.479 60.3618ZM35.9259 60.3618C35.9259 60.6903 35.9976 60.9367 36.1409 61.101C36.2842 61.2637 36.4646 61.345 36.682 61.345C36.8978 61.345 37.0774 61.2628 37.2207 61.0986C37.364 60.9343 37.4357 60.6839 37.4357 60.3473C37.4357 60.03 37.3632 59.7901 37.2183 59.6274C37.075 59.4632 36.8962 59.381 36.682 59.381C36.4646 59.381 36.2842 59.4624 36.1409 59.625C35.9976 59.7877 35.9259 60.0333 35.9259 60.3618Z" fill="#191919"/>
<path d="M35.2133 61.2556L35.2761 61.6397C35.1537 61.6655 35.0442 61.6783 34.9475 61.6783C34.7897 61.6783 34.6673 61.6534 34.5804 61.6035C34.4934 61.5535 34.4322 61.4883 34.3968 61.4078C34.3613 61.3257 34.3436 61.1541 34.3436 60.8932V59.4173H34.0247V59.0791H34.3436V58.4437L34.776 58.1828V59.0791H35.2133V59.4173H34.776V60.9174C34.776 61.0414 34.7833 61.1211 34.7978 61.1566C34.8139 61.192 34.8388 61.2202 34.8727 61.2411C34.9081 61.262 34.958 61.2725 35.0224 61.2725C35.0707 61.2725 35.1343 61.2669 35.2133 61.2556Z" fill="#191919"/>
<path d="M31.51 62.6277V59.0791H31.9062V59.4124C31.9996 59.282 32.1051 59.1845 32.2226 59.1201C32.3402 59.0541 32.4827 59.0211 32.6502 59.0211C32.8692 59.0211 33.0625 59.0775 33.23 59.1902C33.3975 59.3029 33.5239 59.4624 33.6092 59.6685C33.6946 59.873 33.7373 60.0977 33.7373 60.3425C33.7373 60.605 33.6898 60.8417 33.5948 61.0527C33.5013 61.262 33.3645 61.4231 33.1841 61.5358C33.0053 61.6469 32.8169 61.7025 32.6188 61.7025C32.4739 61.7025 32.3434 61.6719 32.2275 61.6107C32.1131 61.5495 32.0189 61.4722 31.9448 61.3788V62.6277H31.51ZM31.9038 60.3763C31.9038 60.7064 31.9706 60.9504 32.1043 61.1082C32.2379 61.2661 32.3998 61.345 32.5898 61.345C32.7831 61.345 32.9482 61.2637 33.085 61.101C33.2235 60.9367 33.2928 60.6831 33.2928 60.3401C33.2928 60.0131 33.2252 59.7683 33.0899 59.6057C32.9562 59.443 32.796 59.3617 32.6091 59.3617C32.4239 59.3617 32.2597 59.4487 32.1164 59.6226C31.9746 59.7949 31.9038 60.0461 31.9038 60.3763Z" fill="#191919"/>
<path d="M29.017 62.6325L28.9687 62.2243C29.0637 62.2501 29.1467 62.2629 29.2175 62.2629C29.3142 62.2629 29.3915 62.2468 29.4494 62.2146C29.5074 62.1824 29.5549 62.1373 29.592 62.0794C29.6193 62.0359 29.6636 61.928 29.7248 61.7556C29.7329 61.7315 29.7458 61.6961 29.7635 61.6494L28.7899 59.0791H29.2586L29.7925 60.5647C29.8617 60.7531 29.9237 60.9512 29.9785 61.159C30.0284 60.9593 30.088 60.7644 30.1572 60.5744L30.7056 59.0791H31.1404L30.1645 61.688C30.0598 61.9698 29.9785 62.1639 29.9205 62.2702C29.8432 62.4135 29.7546 62.5182 29.6548 62.5842C29.5549 62.6519 29.4357 62.6857 29.2972 62.6857C29.2135 62.6857 29.1201 62.668 29.017 62.6325Z" fill="#191919"/>
<path d="M27.384 61.6445V59.0791H27.7754V59.468C27.8752 59.286 27.967 59.166 28.0507 59.1081C28.1361 59.0501 28.2295 59.0211 28.331 59.0211C28.4775 59.0211 28.6265 59.0678 28.7779 59.1612L28.6281 59.5646C28.5218 59.5018 28.4155 59.4704 28.3092 59.4704C28.2142 59.4704 28.1289 59.4994 28.0532 59.5574C27.9775 59.6137 27.9235 59.6926 27.8913 59.7941C27.843 59.9487 27.8188 60.1178 27.8188 60.3014V61.6445H27.384Z" fill="#191919"/>
<path d="M26.396 60.4029L26.8646 60.5212C26.7664 60.9061 26.5893 61.2 26.3332 61.403C26.0787 61.6043 25.7671 61.7049 25.3983 61.7049C25.0166 61.7049 24.7058 61.6276 24.4659 61.473C24.2275 61.3168 24.0455 61.0913 23.9199 60.7966C23.7959 60.5019 23.7339 60.1855 23.7339 59.8473C23.7339 59.4785 23.804 59.1572 23.9441 58.8834C24.0858 58.608 24.2863 58.3995 24.5456 58.2577C24.8065 58.1144 25.0931 58.0427 25.4056 58.0427C25.7599 58.0427 26.0578 58.1329 26.2994 58.3133C26.5409 58.4937 26.7092 58.7473 26.8043 59.0742L26.3429 59.1829C26.2607 58.9253 26.1415 58.7376 25.9853 58.6201C25.8291 58.5025 25.6326 58.4437 25.3959 58.4437C25.1237 58.4437 24.8959 58.509 24.7123 58.6394C24.5303 58.7699 24.4023 58.9454 24.3282 59.166C24.2541 59.3851 24.217 59.6113 24.217 59.8448C24.217 60.146 24.2605 60.4093 24.3475 60.6348C24.4361 60.8586 24.573 61.0261 24.7582 61.1372C24.9434 61.2484 25.1439 61.3039 25.3597 61.3039C25.6222 61.3039 25.8444 61.2282 26.0264 61.0768C26.2084 60.9255 26.3316 60.7008 26.396 60.4029Z" fill="#191919"/>
</g>
<defs>
<clipPath id="clip0_2336_10822">
<rect width="100" height="100" fill="white" transform="translate(0.587891 0.0595703)"/>
</clipPath>
</defs>
</svg>
