<svg width="101" height="101" viewBox="0 0 101 101" fill="none" xmlns="http://www.w3.org/2000/svg">
<g clip-path="url(#clip0_2336_12811)">
<path d="M49.9292 42.346C49.9943 42.3739 50.0594 42.4019 50.1265 42.4307C51.7804 43.193 53.3904 44.7662 54.1503 46.4189C54.1682 46.3313 54.1862 46.2437 54.2047 46.1534C54.531 44.5964 55.1574 43.361 56.4584 42.3937C58.0495 41.3607 60.1146 41.1892 61.9491 41.573C63.1761 41.8607 64.2531 42.4621 65.1843 43.3087C65.1458 43.6079 65.0721 43.7547 64.8621 43.9697C64.8112 44.0226 64.7603 44.0755 64.7079 44.1301C64.6543 44.1843 64.6008 44.2386 64.5456 44.2945C64.4412 44.4021 64.3368 44.5098 64.2326 44.6176C64.1812 44.6707 64.1298 44.7237 64.0769 44.7784C63.7844 45.0863 63.5072 45.4067 63.2398 45.7365C63.1942 45.7922 63.1486 45.8478 63.1016 45.9052C63.0555 45.9626 63.0095 46.0199 62.9621 46.079C62.8146 46.1968 62.8146 46.1968 62.6491 46.1979C62.3642 46.0933 62.1073 45.9509 61.8426 45.8034C61.0812 45.3927 60.375 45.0168 59.4822 45.16C58.9822 45.3517 58.7407 45.6877 58.501 46.1551C58.367 46.6129 58.4572 46.9468 58.6479 47.366C59.1662 48.2715 60.2995 48.6711 61.2148 49.0709C62.2013 49.5021 63.1725 49.9393 63.9995 50.64C64.0728 50.6889 64.1461 50.7378 64.2216 50.7881C64.2216 50.837 64.2216 50.8859 64.2216 50.9362C64.2705 50.9362 64.3194 50.9362 64.3697 50.9362C65.5723 52.2735 65.819 53.7103 65.7767 55.4535C66.1433 55.0136 66.1433 55.0136 66.5173 54.5649C66.9159 54.6446 66.9829 54.7023 67.2578 54.9768C68.0321 55.7051 68.9739 56.2958 70.0719 56.2681C70.6928 56.1543 71.1504 55.8532 71.5067 55.3378C71.7522 54.9591 71.8129 54.6474 71.7751 54.1946C71.5834 53.5482 71.0417 53.1269 70.4745 52.8061C70.3657 52.7492 70.256 52.6939 70.1459 52.6395C70.0206 52.5732 70.0206 52.5732 69.8928 52.5055C69.3698 52.2441 68.8133 52.0537 68.2662 51.8493C66.8774 51.3168 65.7795 50.5668 65.1288 49.196C64.5258 47.7898 64.4952 46.2298 65.0177 44.7851C65.559 43.5131 66.5665 42.4652 67.8251 41.8849C68.7018 41.5466 69.5945 41.4169 70.5301 41.4249C70.6235 41.4255 70.7169 41.4261 70.8132 41.4268C72.7142 41.4609 74.231 42.1154 75.7 43.3087C75.6622 43.6237 75.4823 43.7832 75.2695 44.0076C75.1952 44.0867 75.1208 44.1659 75.0465 44.245C74.9885 44.3063 74.9885 44.3063 74.9292 44.3687C74.737 44.5722 74.5475 44.7783 74.3577 44.9841C74.3025 45.0439 74.3025 45.0439 74.2462 45.1048C73.9128 45.4658 73.5837 45.8304 73.2562 46.1968C73.0445 46.1514 72.8752 46.0862 72.6869 45.9801C72.6356 45.9517 72.5843 45.9234 72.5315 45.8942C72.4774 45.8642 72.4233 45.8342 72.3675 45.8034C71.5928 45.3865 70.828 45.0131 69.9238 45.16C69.5015 45.3222 69.2514 45.5767 69.0351 45.9746C68.8932 46.4003 68.8841 46.8996 69.0629 47.3168C69.5859 48.1932 70.5122 48.5498 71.4048 48.9368C73.3714 49.7907 74.7416 50.555 75.8481 52.4913C75.8725 48.9234 75.8969 45.3555 75.9221 41.6795C77.6435 41.678 79.3648 41.6764 81.1383 41.6749C81.955 41.6738 81.955 41.6738 82.7881 41.6728C83.4506 41.6725 83.4506 41.6725 83.7603 41.6724C83.9776 41.6723 84.1948 41.6721 84.4121 41.6717C84.6888 41.6712 84.9654 41.671 85.2421 41.6711C85.3922 41.6711 85.5423 41.6707 85.6924 41.6703C85.7802 41.6704 85.868 41.6705 85.9584 41.6706C86.0354 41.6705 86.1123 41.6704 86.1915 41.6704C86.3637 41.6795 86.3637 41.6795 86.4378 41.7535C86.4451 41.8668 86.4473 41.9804 86.4474 42.0939C86.4477 42.2025 86.4477 42.2025 86.4481 42.3133C86.4479 42.392 86.4478 42.4708 86.4476 42.5519C86.4477 42.6322 86.4478 42.7125 86.4478 42.7951C86.4479 42.9652 86.4477 43.1353 86.4474 43.3054C86.447 43.5667 86.4474 43.8281 86.4479 44.0894C86.4479 44.2542 86.4478 44.419 86.4476 44.5838C86.4478 44.6625 86.4479 44.7413 86.4481 44.8224C86.4478 44.8948 86.4476 44.9672 86.4474 45.0418C86.4473 45.138 86.4473 45.138 86.4472 45.236C86.4378 45.3822 86.4378 45.3822 86.3637 45.4562C86.1677 45.4633 85.9736 45.4655 85.7775 45.4646C85.7161 45.4646 85.6547 45.4647 85.5914 45.4647C85.3875 45.4646 85.1835 45.464 84.9796 45.4635C84.8385 45.4633 84.6975 45.4632 84.5565 45.4631C84.1846 45.4629 83.8126 45.4621 83.4407 45.4613C82.9949 45.4604 82.549 45.4601 82.1032 45.4597C81.4252 45.4589 80.7472 45.4575 80.0691 45.4562C80.0691 46.6292 80.0691 47.8023 80.0691 49.0108C82.0486 49.0108 84.0281 49.0108 86.0675 49.0108C86.0698 49.9249 86.0698 49.9249 86.0721 50.8575C86.0728 51.0502 86.0735 51.2428 86.0742 51.4413C86.0744 51.593 86.0746 51.7446 86.0747 51.8963C86.0751 51.9759 86.0755 52.0555 86.0759 52.1374C86.0759 52.2126 86.0759 52.2878 86.0759 52.3652C86.0761 52.4308 86.0762 52.4964 86.0764 52.564C86.0675 52.7135 86.0675 52.7135 85.9935 52.7876C85.8087 52.7946 85.626 52.7969 85.4412 52.796C85.3834 52.796 85.3256 52.796 85.2661 52.796C85.0741 52.796 84.8822 52.7954 84.6903 52.7948C84.5576 52.7947 84.4248 52.7946 84.2921 52.7945C83.9421 52.7942 83.5921 52.7935 83.2421 52.7926C82.8225 52.7918 82.4029 52.7914 81.9833 52.791C81.3453 52.7903 80.7072 52.7888 80.0691 52.7876C80.0691 53.9606 80.0691 55.1336 80.0691 56.3421C82.1708 56.3421 84.2724 56.3421 86.4378 56.3421C86.524 58.3254 86.524 58.3254 86.5211 59.184C86.5214 59.2746 86.5217 59.3651 86.522 59.4585C86.5219 59.5441 86.5218 59.6297 86.5217 59.718C86.5215 59.8314 86.5215 59.8314 86.5214 59.9472C86.5118 60.1189 86.5118 60.1189 86.4378 60.1929C86.303 60.2003 86.1679 60.2023 86.033 60.2024C85.9451 60.2026 85.8573 60.2028 85.7668 60.203C85.6695 60.2028 85.5722 60.2027 85.472 60.2025C85.3693 60.2026 85.2665 60.2028 85.1638 60.2029C84.8839 60.2033 84.6041 60.2031 84.3243 60.2029C84.032 60.2027 83.7398 60.2029 83.4476 60.203C82.9568 60.2031 82.466 60.203 81.9751 60.2026C81.4069 60.2022 80.8386 60.2023 80.2703 60.2027C79.7833 60.2031 79.2963 60.2031 78.8093 60.2029C78.518 60.2028 78.2268 60.2028 77.9355 60.203C77.6617 60.2033 77.388 60.2031 77.1142 60.2027C76.9652 60.2025 76.8162 60.2028 76.6672 60.203C76.5794 60.2028 76.4915 60.2026 76.401 60.2024C76.3242 60.2023 76.2473 60.2023 76.1682 60.2023C75.9962 60.193 75.9962 60.1929 75.9221 60.1189C75.9131 60.0099 75.909 59.9004 75.9069 59.791C75.9054 59.7213 75.904 59.6516 75.9024 59.5798C75.9012 59.5041 75.9 59.4283 75.8987 59.3503C75.8972 59.2731 75.8956 59.196 75.894 59.1165C75.8892 58.869 75.8848 58.6215 75.8805 58.374C75.8773 58.2067 75.874 58.0393 75.8708 57.872C75.8628 57.4608 75.8553 57.0496 75.8481 56.6384C75.8231 56.689 75.7981 56.7396 75.7723 56.7917C75.7393 56.8582 75.7062 56.9248 75.6722 56.9933C75.6395 57.0592 75.6069 57.1251 75.5733 57.193C75.37 57.5888 75.1316 57.8874 74.8113 58.1935C74.7404 58.268 74.7404 58.268 74.6681 58.3439C73.5235 59.5355 71.9438 60.3827 70.2703 60.44C68.0035 60.4708 66.3352 59.7616 64.6058 58.3156C64.4579 58.1786 64.4579 58.1786 64.2957 58.1935C64.2068 58.2997 64.1182 58.4061 64.0315 58.5141C63.0858 59.6175 61.484 60.317 60.0582 60.4348C59.0456 60.4866 58.0716 60.468 57.1124 60.1189C57.0403 60.0927 57.0403 60.0927 56.9667 60.0659C55.8442 59.646 54.9073 58.9676 54.0022 58.1935C53.9113 58.1178 53.8203 58.0422 53.7291 57.9667C53.6726 57.9194 53.6161 57.872 53.5579 57.8232C53.5939 57.4754 53.7353 57.298 53.9605 57.0364C54.1343 56.8328 54.298 56.639 54.4465 56.4162C54.4954 56.4162 54.5443 56.4162 54.5946 56.4162C54.6103 56.3777 54.6259 56.3393 54.6421 56.2996C54.7856 56.0434 54.9754 55.8357 55.1685 55.6155C55.2065 55.5717 55.2445 55.528 55.2837 55.4829C55.3604 55.3944 55.4375 55.3063 55.5149 55.2184C55.595 55.1255 55.6729 55.0307 55.749 54.9344C55.8059 54.8633 55.8059 54.8633 55.8639 54.7908C55.8976 54.7475 55.9312 54.7042 55.9658 54.6595C56.0757 54.5649 56.0757 54.5649 56.3719 54.5649C56.462 54.6475 56.5513 54.7313 56.6349 54.8206C57.0008 55.2112 57.3999 55.5073 57.8622 55.7729C57.9056 55.7979 57.949 55.8228 57.9937 55.8486C58.5973 56.185 59.2416 56.3638 59.9265 56.2033C60.4912 56.0073 60.965 55.5777 61.2363 55.0462C61.3849 54.6394 61.3608 54.2883 61.1944 53.8911C60.5903 52.7988 59.1148 52.3691 58.0289 51.9359C56.9396 51.5006 55.9263 51.0656 55.187 50.1216C55.1888 50.2069 55.1905 50.2921 55.1923 50.3799C55.2282 52.9446 54.671 55.2054 53.0395 57.2308C53 57.2817 52.9604 57.3326 52.9197 57.385C52.6976 57.6605 52.4571 57.8659 52.1693 58.0708C51.9782 58.2116 51.7996 58.3639 51.6186 58.5175C50.4854 59.4439 49.2054 59.9752 47.7817 60.267C47.7035 60.2837 47.6253 60.3004 47.5447 60.3176C45.0611 60.7606 42.4612 60.2644 40.3745 58.8571C39.9578 58.5614 39.5655 58.2451 39.1914 57.8973C39.1142 57.8285 39.1142 57.8285 39.0355 57.7584C37.5089 56.3318 36.6037 54.143 36.5042 52.0722C36.4951 51.7778 36.4942 51.4837 36.4965 51.1892C36.4977 51.0103 36.4965 50.8316 36.4951 50.6527C36.4916 48.1173 37.4911 45.8835 39.2331 44.0538C40.3015 43.0135 41.5446 42.2669 42.9682 41.8276C43.0393 41.8056 43.1104 41.7837 43.1837 41.7611C45.398 41.1458 47.8469 41.4213 49.9292 42.346ZM42.2028 46.7548C42.1071 46.8782 42.0161 47.0037 41.9268 47.1317C41.8948 47.1771 41.8628 47.2225 41.8298 47.2693C41.5637 47.6564 41.3577 48.0527 41.1909 48.4924C41.1691 48.5485 41.1473 48.6045 41.1249 48.6622C40.8593 49.3979 40.7935 50.1402 40.7975 50.9177C40.7978 51.0021 40.7981 51.0866 40.7984 51.1736C40.8069 51.8102 40.8612 52.3963 41.0428 53.0097C41.0617 53.074 41.0806 53.1382 41.1 53.2044C41.5191 54.4021 42.44 55.491 43.5542 56.0905C44.7888 56.6499 46.2283 56.7566 47.5228 56.3309C48.8984 55.7858 49.7828 54.8186 50.3845 53.4882C51.0608 51.8051 50.979 49.8283 50.342 48.1508C49.8164 47.02 48.936 46.1471 47.7863 45.6599C47.6619 45.6149 47.5369 45.5717 47.4114 45.5303C47.349 45.5081 47.2865 45.486 47.2222 45.4632C45.5232 44.9434 43.3957 45.3827 42.2028 46.7548ZM65.6286 55.5276C65.7027 55.6757 65.7027 55.6757 65.7027 55.6757L65.6286 55.5276Z" fill="#191919"/>
<path d="M14.7536 34.2741C14.8033 34.2898 14.853 34.3055 14.9041 34.3218C16.2377 34.768 17.5409 35.4495 18.6785 36.2735C18.7942 36.3527 18.7942 36.3527 18.9122 36.4335C19.3455 36.7349 19.3455 36.7349 19.4931 36.866C19.4931 36.9393 19.4931 37.0126 19.4931 37.0881C19.396 37.1045 19.396 37.1045 19.297 37.1211C18.0748 37.344 16.9488 37.7398 15.8644 38.3471C15.8146 38.3749 15.7648 38.4028 15.7134 38.4315C14.9571 38.8622 14.3339 39.3652 13.7169 39.9762C13.6632 40.0254 13.6096 40.0746 13.5543 40.1252C12.6003 41.0155 11.9424 42.2036 11.4212 43.3827C11.5335 43.2957 11.5335 43.2957 11.648 43.2068C13.8845 41.5344 16.38 40.4631 19.1623 40.1452C19.278 40.132 19.3936 40.118 19.5091 40.103C23.0708 39.657 26.88 40.8076 29.7179 42.9752C31.36 44.2557 32.6624 45.7419 33.7061 47.5439C33.7741 47.6586 33.8479 47.7698 33.9229 47.88C34.0604 48.1527 33.9679 48.3217 33.8789 48.6018C33.8481 48.6879 33.8172 48.774 33.7855 48.8627C33.7668 48.915 33.7482 48.9673 33.729 49.0212C33.3068 50.1847 32.7761 51.3634 32.0082 52.3432C31.9593 52.3432 31.9104 52.3432 31.8601 52.3432C31.8326 52.4028 31.8326 52.4028 31.8045 52.4636C31.6872 52.6865 31.5731 52.886 31.4158 53.0838C31.2121 53.1115 31.2121 53.1115 31.0455 53.0838C30.9577 52.8299 30.8782 52.5751 30.8065 52.3163C30.3061 50.5272 29.4692 49.004 28.1574 47.6778C28.11 47.626 28.0627 47.5742 28.0139 47.5208C27.1556 46.6014 25.9303 45.8134 24.7509 45.3822C24.7752 45.4138 24.7996 45.4454 24.8247 45.4779C26.2598 47.3642 27.2515 49.3894 27.8149 51.6953C27.8335 51.7707 27.8335 51.7707 27.8526 51.8476C27.926 52.166 27.9462 52.4615 27.9352 52.7876C27.8863 52.7876 27.8375 52.7876 27.7871 52.7876C27.8116 52.8364 27.836 52.8853 27.8612 52.9357C27.8766 53.0974 27.8884 53.2595 27.8982 53.4216C27.9156 53.7053 27.9366 53.981 27.9801 54.262C28.0415 54.8024 27.9703 55.3492 27.9213 55.8886C27.9162 55.9465 27.9111 56.0045 27.9058 56.0643C27.7734 57.5369 27.4449 58.8655 26.9725 60.267C26.9236 60.267 26.8748 60.267 26.8244 60.267C26.8199 60.337 26.8154 60.4069 26.8108 60.479C26.7542 60.8709 26.5619 61.1956 26.3755 61.5398C26.3387 61.6087 26.3019 61.6776 26.264 61.7486C25.8494 62.5156 25.3721 63.2167 24.825 63.8956C24.7783 63.9561 24.7316 64.0165 24.6835 64.0788C23.5948 65.4605 22.2537 66.5457 20.752 67.4502C20.6951 67.4862 20.6382 67.5222 20.5796 67.5593C20.1943 67.783 19.9099 67.7745 19.4931 67.6724C18.8604 67.5013 18.2947 67.2347 17.7158 66.9319C17.5924 66.8715 17.469 66.8113 17.3455 66.7513C16.7235 66.4389 16.1291 66.0813 15.5497 65.6961C15.4684 65.6423 15.387 65.5886 15.3032 65.5332C15.2441 65.4816 15.1849 65.4299 15.1239 65.3767C15.1239 65.279 15.1239 65.1812 15.1239 65.0805C15.1955 65.0617 15.2671 65.0429 15.3409 65.0235C15.5928 64.9571 15.8443 64.8893 16.0958 64.8213C16.2074 64.7916 16.3195 64.7635 16.4317 64.736C17.8725 64.3579 19.9184 63.2206 20.752 61.9702C20.8009 61.9702 20.8497 61.9702 20.9001 61.9702C20.9299 61.9061 20.9299 61.9061 20.9603 61.8406C21.0504 61.6699 21.1447 61.5244 21.2704 61.3778C21.3192 61.3778 21.3681 61.3778 21.4185 61.3778C21.4437 61.2999 21.4437 61.2999 21.4694 61.2204C21.5661 61.0087 21.686 60.8637 21.8373 60.6891C22.0294 60.4462 22.1633 60.1699 22.3071 59.8967C22.3588 59.8001 22.4104 59.7035 22.4622 59.6069C22.6085 59.3335 22.7541 59.0598 22.8996 58.7859C22.7768 58.7169 22.7768 58.7169 22.6033 58.7119C22.4291 58.8166 22.2771 58.9214 22.1174 59.0451C22.0237 59.1146 21.93 59.1839 21.8362 59.2531C21.7901 59.2874 21.7441 59.3216 21.6966 59.3569C20.7092 60.0821 19.6171 60.6272 18.4563 61.0075C18.3589 61.0455 18.2616 61.084 18.1647 61.1233C17.7563 61.2787 17.3275 61.3753 16.9048 61.4839C16.7986 61.5133 16.6932 61.5456 16.5885 61.5801C16.0645 61.7514 15.5465 61.8227 14.9989 61.8777C14.905 61.8872 14.8112 61.8967 14.7144 61.9065C13.3197 62.0343 11.9444 61.9324 10.5757 61.6405C10.4386 61.6114 10.301 61.5847 10.1632 61.5595C8.95866 61.3274 7.82054 60.9171 6.74102 60.3378C6.52589 60.2235 6.30757 60.116 6.08933 60.0078C5.9659 59.9461 5.84248 59.8844 5.71906 59.8227C5.71906 59.7738 5.71906 59.7249 5.71906 59.6746C5.68001 59.669 5.64097 59.6635 5.60075 59.6578C5.35056 59.5772 5.15621 59.4298 4.94612 59.2765C4.90097 59.244 4.85583 59.2114 4.80931 59.1779C4.40132 58.8794 4.01546 58.5575 3.63369 58.2265C3.49993 58.1113 3.36395 57.9986 3.22524 57.8895C3.07266 57.7651 2.94881 57.644 2.8217 57.4946C2.77798 57.4433 2.73426 57.3921 2.68921 57.3393C2.63824 57.279 2.58726 57.2188 2.53474 57.1567C2.46942 57.0812 2.40404 57.0057 2.33861 56.9302C1.83474 56.3461 1.3503 55.7534 0.982792 55.0714C0.922437 54.9649 0.856672 54.8615 0.788979 54.7595C0.532235 54.3663 0.389872 54.0794 0.461233 53.6022C0.465815 53.5457 0.470397 53.4893 0.475118 53.4312C0.652583 51.9738 1.65829 50.4618 2.51796 49.3082C2.67935 49.0896 2.83014 48.8677 2.97906 48.6405C3.05238 48.665 3.12569 48.6894 3.20123 48.7146C3.25666 48.9137 3.2986 49.1043 3.33545 49.307C3.43315 49.7919 3.55337 50.2572 3.7196 50.7233C3.73715 50.7731 3.7547 50.823 3.77278 50.8743C3.88508 51.1816 4.02113 51.469 4.17089 51.7596C4.26167 51.9481 4.32066 52.1448 4.38609 52.3432C4.70196 52.9759 5.1107 53.5133 5.57095 54.0465C5.61496 54.0996 5.65896 54.1526 5.7043 54.2073C5.87217 54.4089 6.01779 54.5665 6.23743 54.713C6.23743 54.7618 6.23743 54.8107 6.23743 54.8611C6.30387 54.8931 6.30387 54.8931 6.37166 54.9259C6.53365 55.0092 6.53365 55.0092 6.75581 55.1573C6.75581 55.2062 6.75581 55.255 6.75581 55.3054C6.79705 55.3252 6.83829 55.3451 6.88078 55.3656C7.06775 55.4616 7.24732 55.559 7.4223 55.6757C7.4223 55.7245 7.4223 55.7734 7.4223 55.8238C7.49575 55.8501 7.49575 55.8501 7.57069 55.877C7.90823 56.0213 8.21868 56.2106 8.53527 56.3957C9.02261 56.6834 9.02261 56.6834 9.56986 56.7865C9.42767 56.4827 9.27116 56.2323 9.06074 55.9719C8.3999 55.1052 7.78234 54.1253 7.41709 53.0945C7.35932 52.9331 7.35932 52.9331 7.24179 52.8338C7.06925 52.6544 6.99811 52.4387 6.91318 52.209C6.89416 52.1579 6.87514 52.1068 6.85554 52.0542C6.50997 51.0831 6.29525 50.032 6.16338 49.0108C6.15517 48.9488 6.14696 48.8867 6.1385 48.8228C5.72198 44.9164 6.94517 40.9933 9.39767 37.9474C9.65566 37.6354 9.92978 37.3387 10.2093 37.0461C10.3067 36.944 10.4027 36.8406 10.4987 36.7373C11.3537 35.8435 12.3705 35.1208 13.4378 34.5011C13.5703 34.4238 13.5703 34.4238 13.6945 34.3308C14.0828 34.064 14.3364 34.1336 14.7536 34.2741ZM16.3782 45.5303C16.3155 45.5605 16.2529 45.5907 16.1883 45.6218C14.1102 46.6443 12.0709 48.559 11.2731 50.7881C11.2947 51.1483 11.4731 51.4716 11.6171 51.7981C11.7869 52.1833 11.7869 52.1833 11.858 52.3693C12.1915 53.2244 12.8173 54.0305 13.4947 54.6389C13.5528 54.6985 13.6108 54.758 13.6706 54.8194C14.4532 55.5834 15.2766 56.1853 16.2347 56.7124C16.2945 56.7466 16.3542 56.7808 16.4158 56.816C16.7787 57.0044 16.9944 57.0173 17.3862 56.9191C17.7015 56.8174 17.9857 56.6669 18.2758 56.5088C18.335 56.4778 18.3941 56.4469 18.455 56.415C18.8546 56.2014 19.2127 55.9572 19.5671 55.6757C19.6695 55.5952 19.6695 55.5952 19.774 55.5131C19.8325 55.4659 19.891 55.4188 19.9513 55.3702C20.0104 55.3227 20.0695 55.2751 20.1303 55.2261C20.1889 55.179 20.2474 55.1318 20.3077 55.0832C20.3731 55.0322 20.4385 54.9811 20.5058 54.9285C20.6933 54.7744 20.8251 54.6077 20.9742 54.4167C21.0383 54.3541 21.1025 54.2915 21.1685 54.227C21.3229 54.0685 21.4102 53.9524 21.4925 53.7503C21.5414 53.7503 21.5903 53.7503 21.6406 53.7503C21.7877 53.5853 21.7877 53.5853 21.9369 53.3754C21.9888 53.3058 22.0407 53.2362 22.0942 53.1645C22.2441 52.9175 22.3025 52.6942 22.3812 52.4173C22.454 52.2778 22.5343 52.145 22.6164 52.0107C22.8739 51.5951 22.8739 51.5951 22.9837 51.128C22.9272 50.9479 22.8465 50.8035 22.7514 50.64C22.708 50.5495 22.6654 50.4586 22.6233 50.3675C21.5672 48.1123 19.8888 46.5305 17.7158 45.3822C17.6634 45.3517 17.611 45.3213 17.557 45.2899C17.1247 45.1143 16.7667 45.341 16.3782 45.5303Z" fill="#191919"/>
<path d="M86.1416 52.6395C87.559 52.6395 88.9763 52.6395 90.4367 52.6395C90.5344 52.8838 90.6322 53.1282 90.7329 53.38C91.2547 54.5897 92.0445 55.4243 93.2461 55.9626C95.0218 56.6352 96.8121 56.3583 98.5086 55.6016C98.9904 55.3765 99.4635 55.1336 99.9312 54.8805C100.138 54.787 100.138 54.787 100.434 54.787C100.434 56.3022 100.434 57.8173 100.434 59.3784C98.8268 59.9628 97.1186 60.4348 95.3983 60.4892C95.3303 60.4921 95.2624 60.4951 95.1923 60.4981C92.9143 60.5513 90.7784 59.8453 89.1144 58.2702C89.0117 58.171 88.9096 58.0712 88.8075 57.9713C88.7474 57.9149 88.6872 57.8585 88.6253 57.8004C87.5436 56.7648 86.7755 55.3816 86.373 53.9447C86.3579 53.891 86.3429 53.8374 86.3274 53.7821C86.2254 53.395 86.1867 53.0455 86.1416 52.6395Z" fill="#191919"/>
<path d="M100.36 42.6422C100.434 42.7162 100.434 42.7162 100.443 42.8966C100.443 42.9767 100.443 43.0568 100.442 43.1393C100.442 43.2297 100.442 43.3202 100.442 43.4134C100.442 43.5128 100.442 43.6122 100.441 43.7116C100.441 43.8128 100.441 43.914 100.441 44.0151C100.441 44.2819 100.44 44.5486 100.439 44.8154C100.438 45.0874 100.438 45.3594 100.438 45.6314C100.437 46.1654 100.436 46.6995 100.434 47.2335C100.154 47.1903 99.9323 47.1487 99.6853 47.0085C99.6301 46.9779 99.575 46.9474 99.5181 46.9159C99.4599 46.8833 99.4017 46.8506 99.3417 46.817C97.6487 45.9012 95.7389 45.2632 93.7969 45.6876C92.9866 45.9391 92.3642 46.3363 91.7697 46.9373C91.7288 46.9757 91.6879 47.0141 91.6459 47.0536C91.104 47.6101 90.8112 48.4577 90.5107 49.1589C89.0689 49.1589 87.6271 49.1589 86.1416 49.1589C86.6007 46.6338 87.8968 44.4497 90.0102 42.9528C92.9501 40.9557 97.2572 40.8942 100.36 42.6422Z" fill="#191919"/>
<path d="M17.0771 48.5341C17.1395 48.5347 17.202 48.5353 17.2663 48.536C17.9642 48.555 18.406 48.7631 18.9163 49.2388C19.4838 49.8484 19.6037 50.5091 19.59 51.3267C19.5353 51.9874 19.2474 52.4988 18.7525 52.9357C18.0268 53.4489 17.3345 53.5645 16.4569 53.454C15.8158 53.2559 15.2854 52.8837 14.9391 52.3068C14.5929 51.646 14.4958 50.994 14.6888 50.2651C14.9438 49.5097 15.399 49.0291 16.099 48.6674C16.4215 48.5342 16.7318 48.5297 17.0771 48.5341Z" fill="#191919"/>
<path d="M75.9221 41.6795C77.6435 41.678 79.3648 41.6764 81.1383 41.6749C81.6828 41.6742 82.2272 41.6735 82.7881 41.6728C83.4506 41.6725 83.4506 41.6725 83.7603 41.6724C83.9776 41.6723 84.1948 41.6721 84.4121 41.6717C84.6888 41.6712 84.9654 41.671 85.2421 41.6711C85.3922 41.6711 85.5423 41.6707 85.6924 41.6703C85.7802 41.6704 85.868 41.6705 85.9584 41.6706C86.0354 41.6705 86.1123 41.6704 86.1915 41.6704C86.3637 41.6795 86.3637 41.6795 86.4378 41.7535C86.4451 41.8668 86.4473 41.9804 86.4474 42.0939C86.4476 42.1663 86.4478 42.2387 86.4481 42.3133C86.4478 42.4314 86.4478 42.4314 86.4476 42.5519C86.4477 42.6322 86.4478 42.7125 86.4478 42.7951C86.4479 42.9652 86.4477 43.1353 86.4474 43.3054C86.447 43.5667 86.4474 43.8281 86.4479 44.0894C86.4479 44.2542 86.4478 44.419 86.4476 44.5838C86.4478 44.6625 86.4479 44.7413 86.4481 44.8224C86.4477 44.931 86.4477 44.931 86.4474 45.0418C86.4473 45.1059 86.4472 45.17 86.4472 45.236C86.4378 45.3822 86.4378 45.3822 86.3637 45.4562C86.1677 45.4633 85.9736 45.4655 85.7775 45.4646C85.7161 45.4646 85.6547 45.4647 85.5914 45.4647C85.3875 45.4646 85.1835 45.464 84.9796 45.4635C84.8385 45.4633 84.6975 45.4632 84.5565 45.4631C84.1846 45.4629 83.8126 45.4621 83.4407 45.4613C82.9949 45.4604 82.549 45.4601 82.1032 45.4597C81.4252 45.4589 80.7472 45.4575 80.0691 45.4562C80.0691 46.6292 80.0691 47.8023 80.0691 49.0108C82.0486 49.0108 84.0281 49.0108 86.0675 49.0108C86.0675 50.2327 86.0675 51.4546 86.0675 52.7135C86.0431 52.7135 86.0186 52.7135 85.9935 52.7135C85.9935 51.5161 85.9935 50.3186 85.9935 49.0849C83.9896 49.0849 81.9857 49.0849 79.921 49.0849C79.9195 48.4877 79.918 47.8905 79.9164 47.2752C79.9157 47.0864 79.9151 46.8976 79.9144 46.7032C79.9142 46.5545 79.914 46.4059 79.9138 46.2572C79.9134 46.1793 79.913 46.1013 79.9127 46.021C79.9126 45.9105 79.9126 45.9105 79.9126 45.7977C79.9125 45.7334 79.9123 45.6691 79.9121 45.6029C79.921 45.4562 79.921 45.4562 79.9951 45.3822C80.1911 45.3751 80.3853 45.3729 80.5813 45.3738C80.6427 45.3738 80.7041 45.3737 80.7674 45.3737C80.9714 45.3738 81.1753 45.3744 81.3793 45.3749C81.5203 45.3751 81.6613 45.3752 81.8023 45.3753C82.1743 45.3755 82.5462 45.3763 82.9181 45.3771C83.364 45.378 83.8098 45.3783 84.2556 45.3788C84.9336 45.3795 85.6117 45.3809 86.2897 45.3822C86.2897 44.1847 86.2897 42.9873 86.2897 41.7535C82.8928 41.7535 79.496 41.7535 75.9962 41.7535C75.9962 45.4192 75.9962 49.0849 75.9962 52.8616C75.774 52.7876 75.774 52.7876 75.6444 52.5793C75.5529 52.3459 75.531 52.2715 75.6259 52.047C75.6992 52.1937 75.7725 52.3403 75.8481 52.4913C75.8725 48.9234 75.8969 45.3555 75.9221 41.6795Z" fill="#191919"/>
<path d="M75.9221 41.6795C79.3679 41.6795 82.8136 41.6795 86.3637 41.6795C86.3637 41.7039 86.3637 41.7284 86.3637 41.7535C82.9424 41.7535 79.5211 41.7535 75.9962 41.7535C75.9962 45.4192 75.9962 49.0849 75.9962 52.8616C75.774 52.7876 75.774 52.7876 75.6444 52.5793C75.5529 52.3459 75.531 52.2715 75.6259 52.047C75.6992 52.1937 75.7725 52.3403 75.8481 52.4913C75.8725 48.9234 75.8969 45.3555 75.9221 41.6795Z" fill="#191919"/>
<path d="M75.9962 41.7535C79.393 41.7535 82.7899 41.7535 86.2897 41.7535C86.2897 41.778 86.2897 41.8024 86.2897 41.8276C82.9173 41.8276 79.5448 41.8276 76.0702 41.8276C76.0702 45.5666 76.0702 49.3055 76.0702 53.1578C75.9969 53.1334 75.9236 53.109 75.8481 53.0838C75.8481 53.0105 75.8481 52.9372 75.8481 52.8616C75.8969 52.8616 75.9458 52.8616 75.9962 52.8616C75.9962 49.196 75.9962 45.5303 75.9962 41.7535Z" fill="#191919"/>
<path d="M67.8503 41.9016C67.8991 41.9261 67.948 41.9505 67.9984 41.9757C67.9006 42.0001 67.8029 42.0246 67.7021 42.0498C67.7021 42.0986 67.7021 42.1475 67.7021 42.1979C67.6197 42.2284 67.5372 42.259 67.4522 42.2904C67.2086 42.3934 67.1389 42.47 67.0357 42.7162C66.9914 42.7376 66.9471 42.759 66.9014 42.781C66.7061 42.8815 66.6048 43.0206 66.4701 43.1906C66.2759 43.4177 66.0447 43.619 65.7767 43.753C65.6991 43.8993 65.6248 44.0473 65.5546 44.1973C65.5057 44.1973 65.4568 44.1973 65.4065 44.1973C65.395 44.2752 65.395 44.2752 65.3833 44.3547C65.3324 44.5676 65.3324 44.5676 65.226 44.7588C65.0807 45.0767 65.0328 45.3758 64.9853 45.72C64.9712 45.8181 64.9712 45.8181 64.9569 45.9181C64.88 46.486 64.8107 47.0751 64.926 47.642C64.9648 47.8391 64.9695 48.0187 64.9668 48.2194C64.9661 48.2848 64.9654 48.3501 64.9648 48.4175C64.9639 48.4667 64.963 48.5158 64.9622 48.5665C64.4543 47.8047 64.6259 46.5654 64.7634 45.7088C65.0423 44.3176 65.8469 43.1502 67.0189 42.3546C67.5773 41.9926 67.5773 41.9926 67.8503 41.9016Z" fill="#191919"/>
<path d="M75.9962 56.2681C76.1443 56.4162 76.1443 56.4162 76.1562 56.5551C76.1538 56.607 76.1514 56.6589 76.1489 56.7124C76.1372 56.9433 76.1372 56.9433 76.2183 57.1567C76.1939 57.3522 76.1695 57.5477 76.1443 57.7492C76.1199 58.5067 76.0954 59.2643 76.0702 60.0448C79.4426 60.0448 82.8151 60.0448 86.2897 60.0448C86.2897 59.6294 86.2897 59.214 86.2897 58.7859C86.3141 58.7859 86.3385 58.7859 86.3637 58.7859C86.3637 59.2258 86.3637 59.6657 86.3637 60.1189C82.9424 60.1189 79.5211 60.1189 75.9962 60.1189C75.9962 58.8481 75.9962 57.5774 75.9962 56.2681Z" fill="#191919"/>
<path d="M86.1416 52.6395C87.559 52.6395 88.9763 52.6395 90.4367 52.6395C90.4734 52.8227 90.4734 52.8227 90.5107 53.0097C90.4619 53.0097 90.413 53.0097 90.3626 53.0097C90.3626 52.9608 90.3626 52.912 90.3626 52.8616C89.043 52.8861 87.7234 52.9105 86.3637 52.9357C86.3393 53.0579 86.3148 53.18 86.2897 53.3059C86.2652 53.3059 86.2408 53.3059 86.2156 53.3059C86.1912 53.086 86.1667 52.8661 86.1416 52.6395Z" fill="#191919"/>
<path d="M16.5309 45.4562C16.3137 45.6326 16.0824 45.7651 15.8363 45.8972C14.6985 46.5098 13.6087 47.3183 12.8462 48.3727C12.8158 48.4122 12.7855 48.4517 12.7542 48.4924C12.7297 48.4924 12.7053 48.4924 12.6801 48.4924C12.657 48.3304 12.657 48.3304 12.6801 48.1222C12.856 47.9139 12.856 47.9139 13.0504 47.7519C13.0993 47.7519 13.1481 47.7519 13.1985 47.7519C13.2229 47.6541 13.2474 47.5564 13.2726 47.4557C13.3214 47.4557 13.3703 47.4557 13.4207 47.4557C13.4207 47.4068 13.4207 47.3579 13.4207 47.3076C13.541 47.2051 13.6651 47.107 13.7909 47.0114C13.888 46.93 13.888 46.93 13.9871 46.8471C14.3534 46.5405 14.7046 46.2758 15.1239 46.0487C15.2615 45.93 15.2615 45.93 15.3461 45.8265C15.4194 45.8509 15.4927 45.8754 15.5682 45.9006C15.585 45.8547 15.6018 45.8089 15.6191 45.7617C15.8273 45.4247 16.1667 45.4393 16.5309 45.4562Z" fill="#191919"/>
<path d="M37.1179 47.2335C37.241 47.5359 37.1371 47.8044 37.0531 48.1037C36.9153 48.6037 36.8217 49.0762 36.8217 49.5986C36.8217 49.6735 36.8217 49.7483 36.8217 49.8254C36.785 49.8621 36.785 49.8621 36.7476 49.8995C36.7358 50.1291 36.7284 50.3573 36.7242 50.5871C36.7227 50.656 36.7211 50.7249 36.7195 50.7959C36.7147 51.017 36.7103 51.2381 36.706 51.4592C36.7028 51.6087 36.6995 51.7582 36.6963 51.9077C36.6883 52.2751 36.6808 52.6424 36.6736 53.0097C36.6491 53.0097 36.6247 53.0097 36.5995 53.0097C36.542 52.6 36.5128 52.2017 36.5104 51.7881C36.51 51.7295 36.5096 51.6709 36.5091 51.6104C36.5085 51.4868 36.508 51.3631 36.5077 51.2395C36.507 51.0547 36.5047 50.87 36.5023 50.6853C36.4955 49.6632 36.5989 48.6784 36.9467 47.7102C36.979 47.6185 37.0114 47.5268 37.0447 47.4323C37.0689 47.3667 37.093 47.3011 37.1179 47.2335Z" fill="#191919"/>
<path d="M100.064 42.5681C100.351 42.6329 100.351 42.6329 100.434 42.7162C100.441 42.8571 100.443 42.9983 100.442 43.1393C100.442 43.2297 100.442 43.3202 100.442 43.4134C100.442 43.5128 100.442 43.6122 100.441 43.7116C100.441 43.8128 100.441 43.914 100.441 44.0151C100.441 44.2819 100.44 44.5486 100.439 44.8154C100.438 45.0874 100.438 45.3594 100.438 45.6314C100.437 46.1654 100.436 46.6995 100.434 47.2335C100.109 47.1872 99.8928 47.1223 99.6194 46.9373C99.7443 46.8864 99.7443 46.8864 99.9156 46.8633C100.041 46.9336 100.165 47.0074 100.286 47.0854C100.28 46.5183 100.273 45.9512 100.265 45.3841C100.261 45.1208 100.257 44.8574 100.255 44.5941C100.251 44.2916 100.247 43.989 100.242 43.6865C100.242 43.5917 100.241 43.4968 100.24 43.3992C100.238 43.3117 100.237 43.2242 100.235 43.1341C100.234 43.0568 100.233 42.9795 100.232 42.8999C100.23 42.7033 100.23 42.7033 100.064 42.5681Z" fill="#191919"/>
<path d="M41.5611 47.5297C41.5856 47.5786 41.61 47.6275 41.6352 47.6778C41.5692 47.8471 41.5692 47.8471 41.4686 48.0527C40.9804 49.0927 40.8719 50.0711 40.8854 51.2093C40.8861 51.3197 40.8868 51.4302 40.8874 51.5407C40.889 51.8082 40.8916 52.0757 40.8946 52.3432C40.8458 52.3432 40.7969 52.3432 40.7465 52.3432C40.545 51.2143 40.5602 49.9612 40.9039 48.8656C40.965 48.6534 40.9818 48.4893 40.9687 48.2703C41.042 48.2458 41.1153 48.2214 41.1909 48.1962C41.1909 48.074 41.1909 47.9518 41.1909 47.826C41.2642 47.8015 41.3375 47.7771 41.413 47.7519C41.4619 47.6786 41.5108 47.6053 41.5611 47.5297Z" fill="#191919"/>
<path d="M20.3077 62.4146C20.3565 62.439 20.4054 62.4634 20.4558 62.4886C19.9615 62.9557 19.4678 63.3703 18.9006 63.7475C18.8442 63.7889 18.7878 63.8302 18.7297 63.8728C18.3465 64.1484 18.0346 64.2659 17.5677 64.34C17.7232 64.1845 17.8417 64.1262 18.0398 64.0345C18.8678 63.627 19.6544 63.0678 20.3077 62.4146ZM17.4936 64.34C17.5303 64.4133 17.5303 64.4133 17.5677 64.4881C16.0543 65.0327 16.0543 65.0327 15.3461 65.2286C15.6201 65.5193 15.9051 65.743 16.2347 65.9692C15.9693 65.9692 15.8937 65.9056 15.6793 65.7562C15.622 65.7167 15.5648 65.6772 15.5057 65.6365C15.453 65.5996 15.4004 65.5628 15.3461 65.5248C15.2727 65.476 15.1994 65.4271 15.1239 65.3767C15.1239 65.279 15.1239 65.1812 15.1239 65.0805C15.1955 65.0617 15.2671 65.0429 15.3409 65.0235C16.4378 64.7428 16.4378 64.7428 17.4936 64.34Z" fill="#191919"/>
<path d="M73.034 41.7535C73.1073 41.8268 73.1073 41.8268 73.1821 41.9016C73.0973 41.891 73.0124 41.8803 72.925 41.8692C72.8117 41.8553 72.6984 41.8415 72.5851 41.8276C72.5015 41.817 72.5015 41.817 72.4163 41.8062C72.0762 41.765 71.7474 41.7463 71.4048 41.7535C71.4048 41.7047 71.4048 41.6558 71.4048 41.6054C70.2776 41.6271 69.175 41.6512 68.0724 41.9016C68.1465 41.7535 68.1465 41.7535 68.3698 41.6743C69.8548 41.2808 71.566 41.282 73.034 41.7535Z" fill="#191919"/>
<path d="M14.2353 39.1616C14.3452 39.235 14.3452 39.235 14.4574 39.3098C14.4232 39.3386 14.3891 39.3674 14.3539 39.3971C13.5933 40.0495 12.9754 40.7415 12.3987 41.5567C12.2763 41.7259 12.1459 41.8882 12.0136 42.0498C11.9892 41.952 11.9648 41.8542 11.9396 41.7535C11.9869 41.7367 12.0343 41.7199 12.0831 41.7026C12.1335 41.6705 12.1839 41.6385 12.2358 41.6054C12.2444 41.552 12.253 41.4985 12.2618 41.4434C12.3248 41.1705 12.47 40.9846 12.6385 40.7677C12.6687 40.727 12.6989 40.6863 12.73 40.6443C12.8081 40.5418 12.8918 40.4437 12.9763 40.3465C13.0252 40.3465 13.0741 40.3465 13.1244 40.3465C13.1511 40.2837 13.1511 40.2837 13.1782 40.2195C13.2921 40.0153 13.4298 39.8761 13.5965 39.7124C13.6822 39.6275 13.6822 39.6275 13.7695 39.5409C13.9188 39.4025 14.0698 39.2799 14.2353 39.1616Z" fill="#191919"/>
<path d="M39.9319 43.4568C39.9808 43.4812 40.0297 43.5056 40.0801 43.5308C40.0166 43.5881 39.9531 43.6454 39.8877 43.7044C39.0213 44.4341 39.0213 44.4341 38.4509 45.3822C38.3398 45.5164 38.3398 45.5164 38.2287 45.6043C38.1798 45.6043 38.131 45.6043 38.0806 45.6043C38.0964 45.6475 38.1121 45.6906 38.1283 45.7351C38.1547 45.9006 38.1547 45.9006 38.0861 46.0429C38.0522 46.0876 38.0183 46.1322 37.9834 46.1783C37.9334 46.2464 37.9334 46.2464 37.8824 46.3159C37.8339 46.3669 37.8339 46.3669 37.7844 46.4189C37.7355 46.4189 37.6866 46.4189 37.6363 46.4189C37.6164 46.4846 37.5966 46.5503 37.5761 46.6179C37.4943 46.8461 37.3972 47.0308 37.266 47.2335C37.2416 47.1846 37.2171 47.1358 37.192 47.0854C37.2689 46.8988 37.3503 46.7232 37.4419 46.5439C37.4689 46.4907 37.496 46.4376 37.5238 46.3828C38.122 45.234 38.9429 44.2871 39.9319 43.4568Z" fill="#191919"/>
<path d="M97.1015 60.0448C96.7076 60.3804 96.2973 60.3516 95.7995 60.3483C95.7091 60.3481 95.7091 60.3481 95.6168 60.348C95.4252 60.3476 95.2336 60.3466 95.0419 60.3457C94.9116 60.3453 94.7813 60.345 94.651 60.3447C94.3323 60.3439 94.0137 60.3426 93.6951 60.3411C93.6951 60.2922 93.6951 60.2433 93.6951 60.1929C93.5973 60.1685 93.4996 60.1441 93.3988 60.1189C93.5701 60.1169 93.7413 60.1155 93.9126 60.1143C94.008 60.1134 94.1033 60.1125 94.2016 60.1117C94.4356 60.1189 94.4356 60.1189 94.5097 60.1929C94.6511 60.1889 94.7924 60.1795 94.9334 60.1678C95.0207 60.1609 95.108 60.1539 95.198 60.1468C95.29 60.1391 95.3821 60.1314 95.477 60.1235C96.5718 60.0336 96.5718 60.0336 97.1015 60.0448Z" fill="#191919"/>
<path d="M56.7422 59.7486C57.0798 59.8125 57.4128 59.8755 57.7419 59.9754C58.3854 60.1478 59.052 60.1285 59.7136 60.1235C59.7985 60.1232 59.8835 60.1229 59.971 60.1225C60.1784 60.1216 60.3857 60.1204 60.593 60.1189C60.5685 60.1678 60.5441 60.2166 60.5189 60.267C59.5362 60.5081 57.7661 60.5004 56.8903 59.9708C56.8414 59.8975 56.7925 59.8242 56.7422 59.7486Z" fill="#191919"/>
<path d="M95.1946 41.4481C95.3012 41.4488 95.4078 41.4495 95.5143 41.4501C95.7719 41.4517 96.0294 41.4542 96.2869 41.4573C96.2869 41.4818 96.2869 41.5062 96.2869 41.5314C96.1976 41.5324 96.1976 41.5324 96.1065 41.5335C94.6591 41.5471 94.6591 41.5471 93.2276 41.7396C93.1712 41.751 93.1149 41.7623 93.0569 41.774C92.7088 41.8526 92.3975 41.9758 92.0743 42.126C91.8626 42.2232 91.6457 42.3027 91.4272 42.383C91.1523 42.4865 90.8963 42.5918 90.645 42.744C90.5762 42.7837 90.5075 42.8234 90.4367 42.8643C90.3878 42.8399 90.3389 42.8155 90.2886 42.7903C90.9854 42.3504 91.6795 42.0137 92.4685 41.7767C92.518 41.7617 92.5674 41.7467 92.6183 41.7312C93.4748 41.485 94.3097 41.4372 95.1946 41.4481Z" fill="#191919"/>
<path d="M75.4778 43.2346C75.5511 43.2591 75.6244 43.2835 75.7 43.3087C75.6622 43.6237 75.4823 43.7832 75.2695 44.0076C75.1952 44.0867 75.1208 44.1659 75.0465 44.245C75.0078 44.2859 74.9691 44.3267 74.9292 44.3687C74.737 44.5722 74.5475 44.7783 74.3577 44.9841C74.3209 45.024 74.2841 45.0638 74.2462 45.1048C73.9128 45.4658 73.5837 45.8304 73.2562 46.1968C73.0439 46.1543 72.9702 46.133 72.8119 45.9746C72.8791 45.9807 72.9463 45.9868 73.0155 45.9931C73.2586 45.9961 73.2586 45.9961 73.4228 45.8496C73.5592 45.6851 73.5592 45.6851 73.6265 45.4933C73.7431 45.2016 73.9217 45.0548 74.1911 44.9008C74.3859 44.7778 74.4303 44.7024 74.5151 44.4935C74.6742 44.2549 74.7911 44.1911 75.0335 44.0492C75.2253 43.8916 75.2875 43.7754 75.3297 43.5308C75.403 43.5308 75.4763 43.5308 75.5519 43.5308C75.5152 43.3842 75.5152 43.3842 75.4778 43.2346Z" fill="#191919"/>
<path d="M43.7827 60.0448C45.1024 60.0448 46.422 60.0448 47.7817 60.0448C47.4964 60.3301 47.0376 60.2756 46.652 60.2773C46.5685 60.2771 46.5685 60.2771 46.4834 60.2768C46.4245 60.2769 46.3657 60.277 46.3051 60.2771C46.1813 60.2771 46.0576 60.277 45.9339 60.2767C45.7457 60.2763 45.5576 60.2767 45.3694 60.2771C45.2486 60.2771 45.1278 60.277 45.007 60.2768C44.9513 60.277 44.8957 60.2771 44.8384 60.2773C44.5056 60.2758 44.1843 60.2596 43.8568 60.1929C43.8324 60.1441 43.8079 60.0952 43.7827 60.0448Z" fill="#191919"/>
<path d="M45.8748 45.1508C45.9346 45.1505 45.9945 45.1502 46.0561 45.1499C46.7481 45.151 47.2824 45.2012 47.8974 45.5349C47.9776 45.5768 47.9776 45.5768 48.0595 45.6195C48.1896 45.6876 48.3189 45.7569 48.4481 45.8265C48.4481 45.8754 48.4481 45.9242 48.4481 45.9746C48.2359 45.9058 48.0252 45.8345 47.8164 45.7559C47.7484 45.7303 47.6804 45.7048 47.6104 45.6784C47.5465 45.654 47.4827 45.6295 47.4169 45.6043C46.7642 45.392 46.1672 45.3634 45.4814 45.3729C45.389 45.3736 45.2966 45.3743 45.2015 45.3749C44.9754 45.3767 44.7494 45.3791 44.5233 45.3822C44.971 45.1513 45.3798 45.1484 45.8748 45.1508Z" fill="#191919"/>
<path d="M68.0724 60.0448C68.256 60.0552 68.4396 60.0661 68.6232 60.0772C68.6756 60.0802 68.7279 60.0831 68.7819 60.0861C69.1748 60.1105 69.1748 60.1105 69.2573 60.1929C69.378 60.1889 69.4986 60.1795 69.6189 60.1678C69.6931 60.1609 69.7674 60.1539 69.8439 60.1468C69.9613 60.1353 69.9613 60.1353 70.0811 60.1235C71.0118 60.0336 71.0118 60.0336 71.4789 60.0448C71.4048 60.1513 71.4048 60.1513 71.2567 60.267C70.2165 60.4421 69.0814 60.4387 68.0724 60.1189C68.0724 60.0945 68.0724 60.07 68.0724 60.0448Z" fill="#191919"/>
<path d="M64.5178 44.1233C64.5178 44.3454 64.5178 44.3454 64.4065 44.4759C64.3562 44.5229 64.3058 44.57 64.254 44.6185C64.0491 44.8159 63.8525 45.0143 63.6662 45.2294C63.6035 45.3013 63.6035 45.3013 63.5395 45.3747C63.4433 45.4877 63.349 45.6025 63.256 45.7183C63.205 45.78 63.1541 45.8416 63.1016 45.9052C63.0555 45.9626 63.0095 46.0199 62.9621 46.079C62.8146 46.1968 62.8146 46.1968 62.6292 46.1875C62.3699 46.0966 62.1607 45.9692 61.9259 45.8265C62.1497 45.7546 62.2966 45.7424 62.5184 45.8265C62.5428 45.8754 62.5673 45.9242 62.5924 45.9746C62.6657 45.9746 62.7391 45.9746 62.8146 45.9746C62.8406 45.9089 62.8665 45.8433 62.8933 45.7756C63.0291 45.5434 63.0834 45.4831 63.2959 45.3451C63.5586 45.1739 63.6486 45.0037 63.7773 44.7157C63.9737 44.4866 64.1825 44.3456 64.4438 44.1973C64.4682 44.1729 64.4927 44.1484 64.5178 44.1233Z" fill="#191919"/>
<path d="M18.9747 36.5698C19.2313 36.7164 19.2313 36.7164 19.4931 36.866C19.4931 36.9393 19.4931 37.0126 19.4931 37.0881C19.3896 37.107 19.3896 37.107 19.2839 37.1263C18.711 37.2352 18.1659 37.3669 17.6128 37.5568C17.4196 37.6065 17.4196 37.6065 17.1974 37.5325C17.2463 37.5325 17.2952 37.5325 17.3455 37.5325C17.37 37.4592 17.3944 37.3858 17.4196 37.3103C17.4696 37.3013 17.5196 37.2924 17.5711 37.2831C17.6702 37.2645 17.6702 37.2645 17.7713 37.2455C17.8693 37.2275 17.8693 37.2275 17.9692 37.2091C18.1602 37.1704 18.1602 37.1704 18.3186 37.0783C18.4563 37.0141 18.4563 37.0141 18.6785 37.0881C18.6785 37.0393 18.6785 36.9904 18.6785 36.94C18.8984 36.9767 18.8984 36.9767 19.1228 37.0141C19.1228 36.9163 19.1228 36.8186 19.1228 36.7179C19.0739 36.7179 19.0251 36.7179 18.9747 36.7179C18.9747 36.669 18.9747 36.6201 18.9747 36.5698Z" fill="#191919"/>
<path d="M52.2989 57.7492C52.0627 58.3215 51.3729 58.8271 50.8179 59.0821C50.7446 59.0821 50.6712 59.0821 50.5957 59.0821C50.6998 58.8283 50.8071 58.7237 51.04 58.5823C51.3813 58.3665 51.6882 58.1219 51.9978 57.8631C52.1508 57.7492 52.1508 57.7492 52.2989 57.7492Z" fill="#191919"/>
<path d="M14.7536 34.2741C15.1016 34.3914 15.4463 34.5161 15.7904 34.6444C15.6272 34.7426 15.5309 34.7955 15.3383 34.7797C15.2619 34.7586 15.2619 34.7586 15.1841 34.7369C15.1326 34.7236 15.0812 34.7102 15.0282 34.6964C14.9017 34.6444 14.9017 34.6444 14.8277 34.4963C14.4122 34.4963 13.9968 34.4963 13.5688 34.4963C14.0568 34.1059 14.1795 34.1112 14.7536 34.2741Z" fill="#191919"/>
<path d="M54.5206 44.9379C54.6006 45.1865 54.589 45.3782 54.5532 45.6356C54.543 45.7115 54.5327 45.7874 54.5222 45.8656C54.5053 45.9837 54.5053 45.9837 54.4882 46.1042C54.4772 46.1841 54.4663 46.264 54.455 46.3463C54.428 46.5434 54.4005 46.7404 54.3725 46.9373C54.2991 46.9373 54.2258 46.9373 54.1503 46.9373C54.0859 46.8206 54.0229 46.7032 53.9605 46.5856C53.9253 46.5203 53.8901 46.455 53.8538 46.3877C53.7741 46.1814 53.7752 46.1027 53.8541 45.9006C53.9518 46.0716 54.0496 46.2427 54.1503 46.4189C54.1708 46.3244 54.1913 46.2299 54.2125 46.1325C54.2396 46.0089 54.2667 45.8853 54.2938 45.7617C54.3073 45.6994 54.3208 45.637 54.3347 45.5728C54.3478 45.5131 54.361 45.4535 54.3745 45.392C54.3865 45.3369 54.3985 45.2819 54.4109 45.2251C54.4465 45.086 54.4465 45.086 54.5206 44.9379Z" fill="#191919"/>
<path d="M7.49635 40.9389C7.52079 40.9389 7.54523 40.9389 7.5704 40.9389C7.5704 41.11 7.5704 41.2811 7.5704 41.4573C7.49709 41.4818 7.42378 41.5062 7.34824 41.5314C7.33679 41.6597 7.33679 41.6597 7.3251 41.7906C7.28394 42.1228 7.18047 42.4089 7.05203 42.7162C7.0085 42.8262 7.0085 42.8262 6.96409 42.9384C6.94423 42.9873 6.92438 43.0361 6.90392 43.0865C6.85504 43.0865 6.80617 43.0865 6.75581 43.0865C6.73137 43.1598 6.70694 43.2331 6.68176 43.3087C6.72389 42.8387 6.87527 42.436 7.0474 41.9988C7.07408 41.9295 7.10076 41.8601 7.12825 41.7887C7.24058 41.4989 7.35353 41.2153 7.49635 40.9389Z" fill="#191919"/>
<path d="M67.8503 41.9016C67.8991 41.9261 67.948 41.9505 67.9984 41.9757C67.9006 42.0001 67.8029 42.0246 67.7021 42.0498C67.7021 42.0986 67.7021 42.1475 67.7021 42.1979C67.6197 42.2284 67.5372 42.259 67.4522 42.2904C67.2086 42.3934 67.1389 42.47 67.0357 42.7162C66.9914 42.7376 66.9471 42.759 66.9014 42.781C66.7063 42.8814 66.605 43.0201 66.4707 43.1904C66.3086 43.3792 66.1198 43.5248 65.9249 43.6789C65.9249 43.4568 65.9249 43.4568 66.0738 43.2861C66.1392 43.2233 66.2046 43.1605 66.272 43.0958C66.3364 43.0333 66.4009 42.9709 66.4672 42.9066C66.5653 42.8124 66.5653 42.8124 66.6654 42.7162C66.7259 42.6525 66.7864 42.5887 66.8488 42.523C67.0413 42.3407 67.2239 42.2213 67.4568 42.096C67.5274 42.0573 67.5979 42.0185 67.6706 41.9786C67.7595 41.9405 67.7595 41.9405 67.8503 41.9016Z" fill="#191919"/>
<path d="M75.774 56.12C75.8473 56.12 75.9206 56.12 75.9962 56.12C75.9962 57.4396 75.9962 58.7593 75.9962 60.1189C75.9717 60.1189 75.9473 60.1189 75.9221 60.1189C75.8977 58.9703 75.8733 57.8217 75.8481 56.6384C75.8236 56.6384 75.7992 56.6384 75.774 56.6384C75.774 56.4673 75.774 56.2962 75.774 56.12Z" fill="#191919"/>
<path d="M69.7757 45.2341C69.6749 45.2936 69.6749 45.2936 69.572 45.3544C69.2561 45.5643 69.0805 45.8386 68.9611 46.1968C68.9541 46.3293 68.9514 46.4621 68.9518 46.5948C68.9516 46.6641 68.9514 46.7334 68.9512 46.8048C68.9607 47.0045 68.9905 47.1871 69.0351 47.3816C68.9862 47.3816 68.9374 47.3816 68.887 47.3816C68.7499 47.0907 68.7226 46.8642 68.7296 46.5439C68.731 46.4648 68.7323 46.3856 68.7337 46.3041C68.7363 46.2143 68.7363 46.2143 68.7389 46.1227C68.7878 46.1227 68.8367 46.1227 68.887 46.1227C68.9115 45.9761 68.9359 45.8295 68.9611 45.6784C69.0099 45.6784 69.0588 45.6784 69.1092 45.6784C69.1138 45.6203 69.1183 45.5623 69.1231 45.5025C69.1832 45.3081 69.1832 45.3081 69.3591 45.2063C69.5535 45.16 69.5535 45.16 69.7757 45.2341Z" fill="#191919"/>
<path d="M66.5913 42.6422C66.6402 42.6666 66.6891 42.6911 66.7394 42.7162C66.6849 42.7673 66.6304 42.8184 66.5743 42.871C66.1493 43.2774 65.7982 43.6521 65.5546 44.1973C65.5057 44.1973 65.4568 44.1973 65.4065 44.1973C65.4004 44.2447 65.3943 44.292 65.388 44.3408C65.3106 44.6568 65.1739 44.9402 65.0362 45.2341C64.9323 45.0077 64.9687 44.9199 65.0559 44.681C65.1035 44.5808 65.1525 44.4813 65.2028 44.3824C65.2291 44.3303 65.2553 44.2781 65.2823 44.2243C65.5648 43.6904 65.9381 43.2842 66.3692 42.8643C66.4138 42.8198 66.4583 42.7752 66.5043 42.7293C66.533 42.7005 66.5617 42.6718 66.5913 42.6422Z" fill="#191919"/>
<path d="M75.9962 49.0108C76.0206 49.0108 76.0451 49.0108 76.0702 49.0108C76.0702 50.3793 76.0702 51.7478 76.0702 53.1578C75.9969 53.1334 75.9236 53.109 75.8481 53.0838C75.8481 53.0105 75.8481 52.9372 75.8481 52.8616C75.8969 52.8616 75.9458 52.8616 75.9962 52.8616C75.9962 51.5909 75.9962 50.3201 75.9962 49.0108Z" fill="#191919"/>
<path d="M2.97906 48.6405C3.05238 48.665 3.12569 48.6894 3.20123 48.7146C3.27412 48.9382 3.27412 48.9382 3.33082 49.2191C3.35029 49.3112 3.36977 49.4033 3.38983 49.4982C3.41916 49.7195 3.42579 49.8425 3.34933 50.0476C3.3142 49.9636 3.27907 49.8796 3.24288 49.793C3.15411 49.5472 3.15411 49.5472 3.05312 49.4551C3.05011 49.3318 3.04995 49.2083 3.05312 49.0849C3.00424 49.0849 2.95537 49.0849 2.90501 49.0849C2.88057 49.1582 2.85613 49.2315 2.83096 49.307C2.67822 49.3579 2.67822 49.3579 2.53474 49.3811C2.65705 49.1161 2.81488 48.8814 2.97906 48.6405Z" fill="#191919"/>
<path d="M31.2676 44.4195C31.7875 44.8238 32.185 45.3199 32.6006 45.8265C32.5762 45.8754 32.5517 45.9242 32.5266 45.9746C32.1794 45.707 32.1794 45.707 32.0822 45.6043C32.0822 45.531 32.0822 45.4577 32.0822 45.3822C32.0379 45.3623 31.9936 45.3425 31.948 45.322C31.7861 45.2341 31.6814 45.1529 31.5639 45.0119C31.5639 44.963 31.5639 44.9142 31.5639 44.8638C31.4905 44.8394 31.4172 44.8149 31.3417 44.7897C31.3173 44.6676 31.2928 44.5454 31.2676 44.4195Z" fill="#191919"/>
<path d="M47.0411 41.6054C48.1201 41.6261 49.1176 41.9329 50.0773 42.42C49.8337 42.5012 49.7976 42.493 49.5682 42.4108C49.5089 42.39 49.4496 42.3691 49.3886 42.3477C49.249 42.2948 49.1104 42.2394 48.9726 42.1822C48.3363 41.9214 47.7167 41.7862 47.0411 41.6795C47.0411 41.655 47.0411 41.6306 47.0411 41.6054Z" fill="#191919"/>
<path d="M32.9709 50.4919C32.9953 50.5408 33.0198 50.5896 33.0449 50.64C32.9957 50.7621 32.9957 50.7621 32.9142 50.9058C32.8849 50.9578 32.8556 51.0098 32.8254 51.0634C32.794 51.1176 32.7626 51.1719 32.7302 51.2278C32.6999 51.2818 32.6697 51.3358 32.6385 51.3914C32.4964 51.6407 32.3674 51.8498 32.1563 52.047C32.1054 51.9174 32.1054 51.9174 32.0822 51.7508C32.1794 51.5842 32.1794 51.5842 32.3044 51.4546C32.3533 51.4546 32.4021 51.4546 32.4525 51.4546C32.4281 51.3813 32.4036 51.308 32.3785 51.2324C32.4444 51.0863 32.4444 51.0863 32.5451 50.9316C32.5938 50.8547 32.5938 50.8547 32.6434 50.7762C32.7487 50.64 32.7487 50.64 32.9709 50.4919Z" fill="#191919"/>
<path d="M37.1179 47.2335C37.2363 47.5311 37.1434 47.7901 37.0624 48.0851C37.0346 48.1908 37.0068 48.2965 36.979 48.4022C36.965 48.4546 36.951 48.507 36.9365 48.561C36.8772 48.7844 36.8217 49.0086 36.7661 49.233C36.7353 49.3564 36.7044 49.4798 36.6736 49.6032C36.6491 49.6032 36.6247 49.6032 36.5995 49.6032C36.579 49.1345 36.6489 48.7437 36.7754 48.2934C36.7918 48.2321 36.8082 48.1708 36.8252 48.1076C36.9067 47.8082 36.9937 47.5186 37.1179 47.2335Z" fill="#191919"/>
<path d="M56.446 42.42C56.4948 42.4445 56.5437 42.4689 56.5941 42.4941C56.4335 42.735 56.3197 42.7933 56.0757 42.9384C55.9565 43.0426 55.8408 43.1508 55.7286 43.2624C55.6718 43.3179 55.615 43.3735 55.5564 43.4307C55.3998 43.5972 55.3998 43.5972 55.3291 43.8068C55.3066 43.8624 55.2842 43.9179 55.2611 43.9752C55.1878 43.9996 55.1145 44.024 55.0389 44.0492C55.0389 44.1225 55.0389 44.1958 55.0389 44.2714C54.9901 44.2714 54.9412 44.2714 54.8908 44.2714C55.1212 43.5343 55.8198 42.8375 56.446 42.42Z" fill="#191919"/>
<path d="M99.175 55.3054C99.2239 55.3298 99.2728 55.3543 99.3232 55.3794C99.2184 55.4506 99.1134 55.5215 99.0084 55.5924C98.95 55.6319 98.8916 55.6714 98.8314 55.7121C98.5539 55.8894 98.3138 55.9942 97.9902 56.0598C97.8963 56.0797 97.8963 56.0797 97.8004 56.1C97.6177 56.1202 97.4971 56.1025 97.3237 56.0459C97.4015 56.0173 97.4793 55.9887 97.5595 55.9592C97.6645 55.9202 97.7695 55.8813 97.8745 55.8423C97.9285 55.8222 97.9826 55.8022 98.0382 55.7815C98.333 55.6711 98.6214 55.5546 98.9066 55.4211C98.9952 55.3829 99.0838 55.3447 99.175 55.3054Z" fill="#191919"/>
<path d="M12.3099 48.6405C12.3587 48.7139 12.4076 48.7872 12.458 48.8627C12.3519 49.0311 12.2454 49.1992 12.1386 49.3672C12.1087 49.4148 12.0787 49.4624 12.0479 49.5114C12.0186 49.5575 11.9892 49.6035 11.959 49.651C11.9322 49.6932 11.9054 49.7355 11.8779 49.7791C11.7858 49.9074 11.6837 50.013 11.5693 50.1216C11.5693 49.9994 11.5693 49.8772 11.5693 49.7514C11.6182 49.7514 11.6671 49.7514 11.7174 49.7514C11.7251 49.6979 11.7327 49.6444 11.7406 49.5894C11.8334 49.2094 12.0637 48.9376 12.3099 48.6405Z" fill="#191919"/>
<path d="M9.27364 38.1249C9.27364 38.5076 9.04071 38.8492 8.82932 39.1616C8.78044 39.1616 8.73157 39.1616 8.68121 39.1616C8.63234 39.3083 8.58346 39.4549 8.5331 39.606C8.45979 39.606 8.38648 39.606 8.31094 39.606C8.42716 39.258 8.6194 38.9914 8.83395 38.6988C8.86798 38.6517 8.90201 38.6045 8.93707 38.5559C9.18541 38.2131 9.18541 38.2131 9.27364 38.1249Z" fill="#191919"/>
<path d="M13.7169 47.2335C13.597 47.521 13.4089 47.7194 13.1985 47.9463C13.1328 48.0175 13.0671 48.0887 12.9995 48.1621C12.8946 48.2737 12.7884 48.3841 12.6801 48.4924C12.657 48.3304 12.657 48.3304 12.6801 48.1222C12.856 47.9139 12.856 47.9139 13.0504 47.7519C13.0993 47.7519 13.1481 47.7519 13.1985 47.7519C13.2229 47.6541 13.2474 47.5564 13.2726 47.4557C13.3214 47.4557 13.3703 47.4557 13.4207 47.4557C13.4207 47.4068 13.4207 47.3579 13.4207 47.3076C13.5688 47.2335 13.5688 47.2335 13.7169 47.2335Z" fill="#191919"/>
<path d="M44.5233 45.4562C44.4412 45.4793 44.4412 45.4793 44.3575 45.5028C43.6496 45.7178 43.0373 46.0251 42.5238 46.567C42.475 46.5426 42.4261 46.5182 42.3757 46.493C42.5309 46.1049 42.8001 46.0016 43.1588 45.836C43.346 45.7535 43.346 45.7535 43.5374 45.6275C43.8661 45.4409 44.1587 45.3445 44.5233 45.4562Z" fill="#191919"/>
<path d="M11.125 36.1254C11.1739 36.1499 11.2227 36.1743 11.2731 36.1995C11.0564 36.5549 10.8057 36.9239 10.4585 37.1622C10.3608 37.1378 10.263 37.1133 10.1623 37.0881C10.48 36.7704 10.7977 36.4528 11.125 36.1254Z" fill="#191919"/>
<path d="M51.1881 43.1606C51.5868 43.2721 51.8334 43.5427 52.1231 43.8224C52.1725 43.8693 52.222 43.9163 52.2729 43.9646C52.4816 44.1631 52.6882 44.3633 52.8914 44.5676C52.8669 44.6165 52.8425 44.6653 52.8173 44.7157C52.762 44.6586 52.7066 44.6015 52.6495 44.5427C52.5759 44.4677 52.5022 44.3927 52.4285 44.3177C52.3922 44.28 52.3558 44.2424 52.3183 44.2037C52.1257 44.0085 51.9563 43.8649 51.7065 43.753C51.5816 43.6311 51.4581 43.5077 51.3362 43.3827C51.2874 43.3583 51.2385 43.3338 51.1881 43.3087C51.1881 43.2598 51.1881 43.2109 51.1881 43.1606Z" fill="#191919"/>
<path d="M64.9622 48.6405C65.1566 48.7142 65.2411 48.7515 65.3307 48.9437C65.3465 49.0025 65.3624 49.0613 65.3787 49.1219C65.4513 49.3907 65.4513 49.3907 65.6286 49.6032C65.6819 49.7749 65.7317 49.9477 65.7767 50.1216C65.4851 49.8568 65.3199 49.6158 65.1612 49.2561C65.1233 49.1718 65.0854 49.0875 65.0463 49.0007C64.9622 48.7887 64.9622 48.7887 64.9622 48.6405Z" fill="#191919"/>
<path d="M56.7422 59.7486C57.1686 59.8293 57.5858 59.9185 58.0011 60.0448C58.0011 60.0937 58.0011 60.1426 58.0011 60.1929C57.5734 60.2186 57.2611 60.215 56.8903 59.9708C56.8414 59.8975 56.7925 59.8242 56.7422 59.7486Z" fill="#191919"/>
<path d="M6.6077 43.3087C6.63214 43.3087 6.65658 43.3087 6.68176 43.3087C6.68575 43.4784 6.68862 43.6481 6.69101 43.8178C6.69273 43.9123 6.69445 44.0068 6.69622 44.1042C6.68176 44.3454 6.68176 44.3454 6.53365 44.4935C6.48077 44.6404 6.431 44.7885 6.38554 44.9379C6.31247 44.7075 6.31383 44.5554 6.36905 44.3211C6.38266 44.2619 6.39626 44.2028 6.41027 44.1418C6.42502 44.0807 6.43977 44.0196 6.45497 43.9566C6.46943 43.8944 6.48389 43.8322 6.49879 43.768C6.5345 43.6148 6.57102 43.4617 6.6077 43.3087Z" fill="#191919"/>
<path d="M41.2649 42.6422C41.2649 42.6911 41.2649 42.7399 41.2649 42.7903C41.1779 42.7972 41.1779 42.7972 41.089 42.8042C41.0249 42.824 40.9607 42.8439 40.8946 42.8643C40.8733 42.9209 40.8519 42.9774 40.8298 43.0356C40.7056 43.3325 40.5116 43.3891 40.2282 43.5308C40.1793 43.482 40.1304 43.4331 40.0801 43.3827C40.197 43.2867 40.3144 43.1912 40.4318 43.0958C40.4971 43.0425 40.5624 42.9892 40.6297 42.9343C41.0169 42.6422 41.0169 42.6422 41.2649 42.6422Z" fill="#191919"/>
<path d="M13.0504 42.346C13.0504 42.3948 13.0504 42.4437 13.0504 42.4941C12.9771 42.4941 12.9038 42.4941 12.8282 42.4941C12.8243 42.5379 12.8204 42.5817 12.8164 42.6269C12.7248 42.8676 12.5758 42.9181 12.3515 43.0356C12.2783 43.075 12.2051 43.1144 12.1296 43.1551C12.0669 43.1813 12.0042 43.2076 11.9396 43.2346C11.8907 43.2102 11.8418 43.1857 11.7915 43.1606C12.8212 42.346 12.8212 42.346 13.0504 42.346Z" fill="#191919"/>
<path d="M23.2698 40.2725C23.913 40.3027 24.506 40.4664 25.1212 40.6427C25.1212 40.6672 25.1212 40.6916 25.1212 40.7168C24.8768 40.7168 24.6324 40.7168 24.3806 40.7168C24.3806 40.6679 24.3806 40.619 24.3806 40.5687C24.2936 40.5595 24.2065 40.5503 24.1168 40.5409C23.8222 40.5047 23.5529 40.435 23.2698 40.3465C23.2698 40.3221 23.2698 40.2976 23.2698 40.2725Z" fill="#191919"/>
<path d="M54.9649 49.5292C55.0138 49.5536 55.0626 49.5781 55.113 49.6032C55.0886 50.483 55.0641 51.3628 55.0389 52.2692C55.0145 52.2692 54.9901 52.2692 54.9649 52.2692C54.9525 51.8909 54.9406 51.5126 54.9292 51.1342C54.9252 51.0054 54.9211 50.8766 54.9169 50.7478C54.9108 50.5631 54.9053 50.3784 54.8998 50.1937C54.8978 50.1357 54.8958 50.0778 54.8937 50.0181C54.8899 49.8799 54.8899 49.7415 54.8908 49.6032C54.9153 49.5788 54.9397 49.5544 54.9649 49.5292Z" fill="#191919"/>
<path d="M60.0746 48.6405C60.4574 48.6897 60.7872 48.8567 61.1345 49.0154C61.2274 49.0573 61.2274 49.0573 61.3221 49.1001C61.4742 49.1687 61.6261 49.2377 61.7778 49.307C61.5557 49.3811 61.5557 49.3811 61.4142 49.3313C61.3616 49.305 61.309 49.2786 61.2548 49.2515C60.9413 49.1017 60.6312 49.0063 60.2944 48.9226C60.2463 48.9028 60.1982 48.8831 60.1487 48.8627C60.1242 48.7894 60.0998 48.7161 60.0746 48.6405Z" fill="#191919"/>
<path d="M26.6763 46.3449C26.8337 46.3125 26.8337 46.3125 27.0466 46.3449C27.1714 46.4694 27.274 46.6003 27.3778 46.7426C27.51 46.8837 27.5988 46.9086 27.7871 46.9373C27.8115 47.0595 27.836 47.1817 27.8612 47.3076C27.7207 47.2022 27.5803 47.0969 27.44 46.9914C27.3262 46.9062 27.212 46.8216 27.0975 46.7374C27.044 46.698 26.9906 46.6586 26.9355 46.6179C26.8859 46.5816 26.8362 46.5452 26.7851 46.5077C26.7492 46.4784 26.7133 46.4491 26.6763 46.4189C26.6763 46.3945 26.6763 46.3701 26.6763 46.3449Z" fill="#191919"/>
<path d="M40.0801 43.4568C40.1289 43.4812 40.1778 43.5056 40.2282 43.5308C40.1327 43.6327 40.0336 43.7313 39.9319 43.827C39.8831 43.827 39.8342 43.827 39.7838 43.827C39.7594 43.9004 39.735 43.9737 39.7098 44.0492C39.5808 44.1739 39.5808 44.1739 39.4228 44.3038C39.2576 44.44 39.1236 44.5591 38.9964 44.7322C38.963 44.7756 38.9296 44.819 38.8952 44.8638C38.8463 44.8638 38.7974 44.8638 38.7471 44.8638C38.8649 44.5718 39.0672 44.3761 39.2886 44.1603C39.3237 44.1253 39.3588 44.0902 39.3949 44.0541C39.6123 43.8394 39.8383 43.6435 40.0801 43.4568Z" fill="#191919"/>
<path d="M90.9551 59.5265C91.3901 59.5913 91.3901 59.5913 91.4734 59.6746C91.5856 59.6917 91.6984 59.7051 91.8113 59.7162C91.8725 59.7224 91.9337 59.7286 91.9967 59.735C92.044 59.7395 92.0912 59.744 92.1399 59.7486C92.1399 59.7975 92.1399 59.8464 92.1399 59.8967C92.1888 59.8967 92.2377 59.8967 92.288 59.8967C92.288 59.9456 92.288 59.9945 92.288 60.0448C92.3614 60.0693 92.4347 60.0937 92.5102 60.1189C92.1155 60.0788 91.8008 59.9821 91.441 59.8181C91.3939 59.7972 91.3468 59.7763 91.2983 59.7548C91.1836 59.704 91.0693 59.6523 90.9551 59.6005C90.9551 59.5761 90.9551 59.5516 90.9551 59.5265Z" fill="#191919"/>
<path d="M75.7 56.6384C75.7244 56.6872 75.7488 56.7361 75.774 56.7865C75.6367 57.1606 75.4089 57.4985 75.1816 57.8232C75.1327 57.7988 75.0838 57.7743 75.0335 57.7492C75.0628 57.6392 75.094 57.5298 75.1261 57.4206C75.1518 57.3291 75.1518 57.3291 75.1781 57.2357C75.2037 57.1852 75.2293 57.1347 75.2556 57.0827C75.4061 57.0364 75.4061 57.0364 75.5519 57.0086C75.6479 56.8242 75.6479 56.8242 75.7 56.6384Z" fill="#191919"/>
<path d="M71.0346 48.8627C71.451 48.9919 71.8546 49.1425 72.2565 49.3117C72.3905 49.3679 72.3905 49.3679 72.5272 49.4253C72.7378 49.5292 72.7378 49.5292 72.8119 49.6773C72.4719 49.6301 72.1865 49.4934 71.8816 49.3441C71.4724 49.1382 71.4724 49.1382 71.0346 49.0108C71.0346 48.9619 71.0346 48.9131 71.0346 48.8627Z" fill="#191919"/>
<path d="M58.6676 45.6784C58.6435 45.7415 58.6435 45.7415 58.619 45.806C58.429 46.3328 58.4116 46.7549 58.5195 47.3076C58.4095 47.226 58.4095 47.226 58.2973 47.0854C58.273 46.8661 58.273 46.8661 58.2788 46.6133C58.2799 46.5303 58.2811 46.4472 58.2823 46.3617C58.2956 46.1494 58.3134 45.9569 58.3714 45.7524C58.5195 45.6784 58.5195 45.6784 58.6676 45.6784Z" fill="#191919"/>
<path d="M56.2238 42.7162C56.2971 42.7407 56.3704 42.7651 56.446 42.7903C56.1004 43.1359 55.7548 43.4815 55.4092 43.827C55.3848 43.7537 55.3603 43.6804 55.3352 43.6049C55.6284 43.3116 55.9217 43.0184 56.2238 42.7162Z" fill="#191919"/>
<path d="M71.4789 60.0448C71.4034 60.1527 71.4034 60.1527 71.2567 60.267C71.062 60.2949 70.8827 60.3115 70.6874 60.3179C70.6355 60.3204 70.5835 60.323 70.5299 60.3256C70.402 60.3317 70.274 60.3365 70.1459 60.3411C70.5497 60.0129 70.973 60.0345 71.4789 60.0448Z" fill="#191919"/>
<path d="M62.7405 59.2302C62.765 59.2791 62.7894 59.328 62.8146 59.3784C62.6314 59.5747 62.4757 59.7276 62.2222 59.8227C62.1244 59.8227 62.0267 59.8227 61.9259 59.8227C62 59.6005 62 59.6005 62.1692 59.4978C62.2371 59.466 62.305 59.4342 62.3749 59.4015C62.443 59.3691 62.511 59.3368 62.5812 59.3034C62.66 59.2672 62.66 59.2672 62.7405 59.2302Z" fill="#191919"/>
<path d="M55.3352 55.6016C55.384 55.6016 55.4329 55.6016 55.4833 55.6016C55.4833 55.7497 55.4833 55.7497 55.3259 55.9117C55.2759 55.9595 55.2759 55.9595 55.2249 56.0083C55.0263 56.2065 54.8489 56.4235 54.6687 56.6384C54.6442 56.5651 54.6198 56.4917 54.5946 56.4162C54.7145 56.28 54.8349 56.1443 54.9556 56.0089C54.9897 55.9701 55.0238 55.9312 55.0589 55.8912C55.1479 55.7918 55.2413 55.6964 55.3352 55.6016ZM54.4465 56.6384C54.4954 56.6628 54.5443 56.6872 54.5946 56.7124C54.4969 56.8102 54.3991 56.9079 54.2984 57.0086C54.2984 56.7865 54.2984 56.7865 54.4465 56.6384Z" fill="#191919"/>
<path d="M27.7131 51.6027C27.7375 51.6027 27.7619 51.6027 27.7871 51.6027C27.8897 52.0066 27.953 52.3704 27.9352 52.7876C27.8863 52.7876 27.8375 52.7876 27.7871 52.7876C27.8116 52.8609 27.836 52.9342 27.8612 53.0097C27.8123 53.0342 27.7634 53.0586 27.7131 53.0838C27.7131 52.595 27.7131 52.1063 27.7131 51.6027Z" fill="#191919"/>
<path d="M75.9221 51.3805C75.9466 51.3805 75.971 51.3805 75.9962 51.3805C75.9962 51.8693 75.9962 52.3581 75.9962 52.8616C75.774 52.7876 75.774 52.7876 75.6444 52.5793C75.5529 52.3459 75.531 52.2715 75.6259 52.047C75.6992 52.1937 75.7725 52.3403 75.8481 52.4913C75.8725 52.1248 75.8969 51.7582 75.9221 51.3805Z" fill="#191919"/>
<path d="M6.4596 44.4935C6.48403 44.4935 6.50847 44.4935 6.53365 44.4935C6.52723 44.7127 6.51932 44.9317 6.51051 45.1508C6.50884 45.2131 6.50717 45.2754 6.50545 45.3397C6.50151 45.4291 6.50151 45.4291 6.49749 45.5204C6.49555 45.5755 6.49361 45.6306 6.49161 45.6873C6.4596 45.8265 6.4596 45.8265 6.23743 45.9746C6.24595 45.811 6.25539 45.6475 6.2652 45.484C6.27036 45.3929 6.27551 45.3019 6.28083 45.208C6.31011 44.95 6.36796 44.7356 6.4596 44.4935Z" fill="#191919"/>
<path d="M17.7898 35.7552C18.2279 35.9586 18.5974 36.1947 18.9747 36.4957C18.8266 36.5698 18.8266 36.5698 18.6368 36.5142C18.4563 36.4217 18.4563 36.4217 18.3823 36.1995C18.2845 36.1995 18.1868 36.1995 18.0861 36.1995C18.0616 36.1506 18.0372 36.1017 18.012 36.0514C17.9631 36.0514 17.9142 36.0514 17.8639 36.0514C17.8395 35.9536 17.815 35.8559 17.7898 35.7552Z" fill="#191919"/>
<path d="M65.8508 59.0081C66.1315 59.1154 66.3979 59.2415 66.6654 59.3784C66.6654 59.4517 66.6654 59.525 66.6654 59.6005C66.3316 59.5612 66.1134 59.4379 65.8508 59.2302C65.8508 59.1569 65.8508 59.0836 65.8508 59.0081Z" fill="#191919"/>
<path d="M46.9671 45.3822C47.552 45.3147 47.945 45.5447 48.4481 45.8265C48.4481 45.8754 48.4481 45.9242 48.4481 45.9746C48.158 45.8805 47.87 45.7805 47.5826 45.6784C47.4791 45.6417 47.4791 45.6417 47.3735 45.6043C47.1892 45.5303 47.1892 45.5303 46.9671 45.3822Z" fill="#191919"/>
<path d="M10.0882 37.1622C10.1357 37.2987 10.1357 37.2987 10.1623 37.4584C9.99567 37.6435 9.99567 37.6435 9.79202 37.8287C9.75231 37.8852 9.7126 37.9417 9.67168 37.9999C9.63808 38.0412 9.60448 38.0824 9.56986 38.1249C9.49655 38.1249 9.42323 38.1249 9.3477 38.1249C9.45993 37.8674 9.61261 37.6838 9.80128 37.4769C9.85493 37.4177 9.90857 37.3586 9.96385 37.2976C10.0254 37.2306 10.0254 37.2306 10.0882 37.1622Z" fill="#191919"/>
<path d="M18.3082 52.8616C18.3327 52.9349 18.3571 53.0082 18.3823 53.0838C17.6854 53.4239 17.6854 53.4239 17.3455 53.38C17.3455 53.3067 17.3455 53.2334 17.3455 53.1578C17.3964 53.1489 17.4473 53.1399 17.4997 53.1306C17.5998 53.112 17.5998 53.112 17.7019 53.093C17.7681 53.081 17.8342 53.069 17.9024 53.0566C18.1029 53.0163 18.1029 53.0163 18.3082 52.8616Z" fill="#191919"/>
<path d="M25.7136 45.7524C26.113 45.7844 26.3656 45.8651 26.6763 46.1227C26.6763 46.196 26.6763 46.2693 26.6763 46.3449C26.3265 46.2246 26.0141 46.0405 25.7136 45.8265C25.7136 45.8021 25.7136 45.7776 25.7136 45.7524Z" fill="#191919"/>
<path d="M31.8601 52.1951C31.8845 52.244 31.909 52.2929 31.9341 52.3432C31.8552 52.4675 31.7746 52.5907 31.6935 52.7135C31.6264 52.8166 31.6264 52.8166 31.5581 52.9218C31.5111 52.9752 31.4641 53.0287 31.4158 53.0838C31.318 53.0838 31.2202 53.0838 31.1195 53.0838C31.1195 52.9616 31.1195 52.8394 31.1195 52.7135C31.2173 52.7135 31.315 52.7135 31.4158 52.7135C31.5474 52.6017 31.5474 52.6017 31.6564 52.4543C31.695 52.4062 31.7336 52.3581 31.7733 52.3085C31.8019 52.2711 31.8306 52.2337 31.8601 52.1951Z" fill="#191919"/>
<path d="M98.4345 59.7486C98.4345 59.7975 98.4345 59.8464 98.4345 59.8967C98.0062 60.0457 97.6272 60.0612 97.1756 60.0448C97.2 59.996 97.2245 59.9471 97.2496 59.8967C97.4409 59.8499 97.4409 59.8499 97.6801 59.8134C97.7976 59.7948 97.7976 59.7948 97.9176 59.7758C98.1383 59.7486 98.1383 59.7486 98.4345 59.7486Z" fill="#191919"/>
<path d="M61.9259 45.7524C62.3816 45.7958 62.3816 45.7958 62.5184 45.8265C62.5428 45.8754 62.5673 45.9242 62.5924 45.9746C62.6657 45.9746 62.7391 45.9746 62.8146 45.9746C62.8635 45.9013 62.9123 45.828 62.9627 45.7524C63.0116 45.7769 63.0605 45.8013 63.1108 45.8265C63.0131 45.9487 62.9153 46.0709 62.8146 46.1968C62.4625 46.1541 62.2243 46.0079 61.9259 45.8265C61.9259 45.8021 61.9259 45.7776 61.9259 45.7524Z" fill="#191919"/>
<path d="M53.0395 56.7865C53.0639 56.8598 53.0884 56.9331 53.1135 57.0086C53.0677 57.0514 53.0219 57.0942 52.9747 57.1382C52.8122 57.2911 52.8122 57.2911 52.7479 57.4668C52.6692 57.6011 52.6692 57.6011 52.4748 57.6566C52.4168 57.6627 52.3587 57.6688 52.2989 57.6751C52.7544 57.0496 52.7544 57.0496 53.0395 56.7865Z" fill="#191919"/>
<path d="M30.9714 52.047C31.1798 52.2554 31.1691 52.4244 31.1936 52.7135C31.1612 52.931 31.1612 52.931 31.1195 53.0838C31.0707 53.0593 31.0218 53.0349 30.9714 53.0097C30.8848 52.7151 30.8856 52.4263 30.8974 52.1211C30.9218 52.0966 30.9462 52.0722 30.9714 52.047Z" fill="#191919"/>
<path d="M17.6417 45.086C17.6662 45.1837 17.6906 45.2815 17.7158 45.3822C17.6711 45.3751 17.6264 45.368 17.5804 45.3608C17.5212 45.3526 17.462 45.3443 17.4011 45.3359C17.3426 45.3273 17.2842 45.3187 17.224 45.3099C17.0238 45.3079 16.9285 45.3671 16.7531 45.4562C16.6798 45.4318 16.6065 45.4074 16.5309 45.3822C16.6287 45.3577 16.7264 45.3333 16.8271 45.3081C16.8271 45.2592 16.8271 45.2104 16.8271 45.16C17.0992 45.0729 17.3581 45.0805 17.6417 45.086Z" fill="#191919"/>
<path d="M25.1952 40.7168C25.6569 40.8345 26.0959 40.9594 26.5282 41.1611C26.5282 41.1855 26.5282 41.21 26.5282 41.2352C26.0691 41.2726 25.8683 41.1736 25.4914 40.9389C25.3233 40.8826 25.3233 40.8826 25.1952 40.8649C25.1952 40.816 25.1952 40.7671 25.1952 40.7168Z" fill="#191919"/>
<path d="M15.1239 38.4952C15.1972 38.5196 15.2705 38.544 15.3461 38.5692C15.0891 38.8583 14.7868 39.0406 14.4574 39.2357C14.4574 39.1624 14.4574 39.0891 14.4574 39.0135C14.5063 39.0135 14.5552 39.0135 14.6055 39.0135C14.63 38.9402 14.6544 38.8669 14.6796 38.7914C14.8925 38.6248 14.8925 38.6248 15.1239 38.4952Z" fill="#191919"/>
<path d="M16.8271 37.5325C16.9493 37.5569 17.0715 37.5813 17.1974 37.6065C16.9204 37.8474 16.5818 38.0096 16.2347 38.1249C16.1858 38.1005 16.137 38.076 16.0866 38.0508C16.3327 37.7592 16.3327 37.7592 16.5865 37.7361C16.6414 37.7422 16.6964 37.7483 16.7531 37.7546C16.7775 37.6813 16.802 37.608 16.8271 37.5325Z" fill="#191919"/>
<path d="M41.413 59.2302C41.5476 59.2739 41.6817 59.3189 41.8157 59.3645C41.8904 59.3894 41.9652 59.4143 42.0422 59.44C42.1034 59.4685 42.1646 59.4971 42.2276 59.5265C42.2521 59.5998 42.2765 59.6731 42.3017 59.7486C42.3864 59.7624 42.3864 59.7624 42.4729 59.7764C42.6719 59.8227 42.6719 59.8227 42.8941 59.9708C42.4501 59.9515 42.1716 59.7939 41.8007 59.5542C41.6327 59.4422 41.6327 59.4422 41.413 59.3784C41.413 59.3295 41.413 59.2806 41.413 59.2302Z" fill="#191919"/>
<path d="M21.4925 53.7503C21.5414 53.7747 21.5903 53.7991 21.6406 53.8243C21.5483 53.9418 21.4557 54.059 21.3629 54.1761C21.3114 54.2414 21.2598 54.3067 21.2067 54.3739C21.0631 54.547 20.9138 54.7051 20.752 54.8611C20.7031 54.8366 20.6542 54.8122 20.6039 54.787C20.6528 54.7137 20.7016 54.6404 20.752 54.5649C20.8009 54.5649 20.8497 54.5649 20.9001 54.5649C20.9245 54.4915 20.949 54.4182 20.9742 54.3427C21.023 54.3427 21.0719 54.3427 21.1223 54.3427C21.1421 54.2999 21.162 54.2572 21.1824 54.2131C21.2716 54.0441 21.3746 53.9003 21.4925 53.7503Z" fill="#191919"/>
<path d="M16.1607 48.7146C16.0543 48.9856 15.9356 49.078 15.6793 49.2098C15.6205 49.2407 15.5617 49.2715 15.5011 49.3033C15.4001 49.354 15.299 49.4046 15.198 49.4551C15.3054 49.1864 15.4379 49.0734 15.6793 48.9182C15.7675 48.8604 15.7675 48.8604 15.8575 48.8014C16.0125 48.7146 16.0125 48.7146 16.1607 48.7146Z" fill="#191919"/>
<path d="M18.6785 45.7524C18.9326 45.8442 19.1453 45.9378 19.345 46.1227C19.345 46.196 19.345 46.2693 19.345 46.3449C19.0406 46.2375 18.7946 46.0849 18.5304 45.9006C18.5793 45.8517 18.6281 45.8028 18.6785 45.7524Z" fill="#191919"/>
<path d="M75.4778 43.2346C75.5511 43.2591 75.6244 43.2835 75.7 43.3087C75.6645 43.626 75.4616 43.81 75.251 44.0307C75.216 44.0682 75.181 44.1057 75.145 44.1444C75.0589 44.2365 74.9722 44.3281 74.8854 44.4195C74.8854 44.3462 74.8854 44.2728 74.8854 44.1973C75.0088 44.0739 75.1322 43.9505 75.2556 43.827C75.3194 43.6661 75.3194 43.6661 75.3297 43.5308C75.403 43.5308 75.4763 43.5308 75.5519 43.5308C75.5274 43.4331 75.503 43.3353 75.4778 43.2346Z" fill="#191919"/>
<path d="M15.5682 41.013C15.6171 41.0374 15.666 41.0619 15.7163 41.087C15.4288 41.2924 15.1732 41.4487 14.8277 41.5314C14.6663 41.4975 14.6663 41.4975 14.5315 41.4573C14.6625 41.397 14.7937 41.3369 14.9249 41.2768C14.9979 41.2433 15.0709 41.2098 15.1462 41.1753C15.3461 41.087 15.3461 41.087 15.5682 41.013Z" fill="#191919"/>
<path d="M17.1234 40.6427C16.8765 40.7415 16.6297 40.8402 16.3828 40.9389C16.2882 40.985 16.2882 40.985 16.1916 41.0321C16.0125 41.087 16.0125 41.087 15.8413 41.0223C15.8001 40.9948 15.7588 40.9673 15.7163 40.9389C15.895 40.8747 16.0739 40.8116 16.2532 40.7492C16.3037 40.7309 16.3542 40.7126 16.4062 40.6938C16.8703 40.5338 16.8703 40.5338 17.1234 40.6427Z" fill="#191919"/>
<path d="M21.7887 60.7113C21.8132 60.7846 21.8376 60.858 21.8628 60.9335C21.7535 61.1068 21.7535 61.1068 21.5944 61.2991C21.543 61.3624 21.4916 61.4257 21.4387 61.4909C21.2714 61.6729 21.097 61.8214 20.9001 61.9702C21.0015 61.7518 21.1133 61.5611 21.2704 61.3778C21.3192 61.3778 21.3681 61.3778 21.4185 61.3778C21.4483 61.2953 21.4483 61.2953 21.4786 61.2112C21.5623 61.0174 21.6561 60.8741 21.7887 60.7113Z" fill="#191919"/>
<path d="M64.4438 57.9713C64.6271 58.0446 64.6271 58.0446 64.814 58.1194C64.814 58.1683 64.814 58.2172 64.814 58.2675C64.8583 58.2874 64.9026 58.3073 64.9483 58.3277C65.1082 58.4145 65.2108 58.5041 65.3324 58.6378C65.1649 58.656 65.1649 58.656 64.9622 58.6378C64.8126 58.5108 64.8126 58.5108 64.6798 58.3462C64.6127 58.265 64.6127 58.265 64.5442 58.1822C64.4438 58.0454 64.4438 58.0454 64.4438 57.9713Z" fill="#191919"/>
<path d="M27.8612 47.3076C28.1865 47.3963 28.3932 47.4816 28.6017 47.7519C28.6572 47.9555 28.6572 47.9555 28.6758 48.1222C28.3695 47.8718 28.0972 47.6285 27.8612 47.3076Z" fill="#191919"/>
<path d="M20.1596 47.0114C20.3883 47.0368 20.5129 47.0722 20.6965 47.215C20.8392 47.3986 20.8747 47.5231 20.9001 47.7519C20.346 47.2964 20.346 47.2964 20.1596 47.0114Z" fill="#191919"/>
<path d="M11.125 51.0103C11.1983 51.0103 11.2716 51.0103 11.3472 51.0103C11.4951 51.3154 11.5085 51.5621 11.4953 51.8989C11.2972 51.7008 11.2252 51.4921 11.125 51.2324C11.125 51.1591 11.125 51.0858 11.125 51.0103Z" fill="#191919"/>
<path d="M66.5173 50.8622C66.8855 50.9726 67.2148 51.1291 67.554 51.3065C67.554 51.3554 67.554 51.4042 67.554 51.4546C67.6029 51.479 67.6518 51.5035 67.7021 51.5286C67.4577 51.4775 67.2502 51.3889 67.0264 51.2787C66.9621 51.2476 66.8977 51.2165 66.8314 51.1844C66.6654 51.0843 66.6654 51.0843 66.5173 50.8622Z" fill="#191919"/>
<path d="M42.2276 46.6411C42.2276 46.9228 42.1434 46.9948 41.9684 47.2104C41.8963 47.3002 41.8963 47.3002 41.8226 47.3918C41.7852 47.4373 41.7478 47.4828 41.7092 47.5297C41.6352 47.3076 41.6352 47.3076 41.6768 47.1271C41.8151 46.8806 41.9869 46.7824 42.2276 46.6411Z" fill="#191919"/>
<path d="M53.78 45.9006C53.9534 46.0581 54.0545 46.2053 54.1503 46.4189C54.1992 46.3212 54.248 46.2234 54.2984 46.1227C54.2984 46.3182 54.2984 46.5137 54.2984 46.7151C54.2251 46.7151 54.1518 46.7151 54.0762 46.7151C53.78 46.2338 53.78 46.2338 53.78 45.9006Z" fill="#191919"/>
<path d="M15.9616 38.074C16.0029 38.0908 16.0441 38.1076 16.0866 38.1249C15.8496 38.328 15.6419 38.4678 15.3461 38.5692C15.3599 38.435 15.3599 38.435 15.4201 38.273C15.7163 38.0408 15.7163 38.0408 15.9616 38.074Z" fill="#191919"/>
<path d="M63.7032 58.5638C63.6774 58.8048 63.6276 58.8614 63.4394 59.0266C63.3799 59.0694 63.3203 59.1121 63.2589 59.1562C63.1856 59.1073 63.1123 59.0584 63.0368 59.0081C63.1197 58.9336 63.2031 58.8596 63.2867 58.7859C63.3563 58.7241 63.3563 58.7241 63.4273 58.661C63.5551 58.5638 63.5551 58.5638 63.7032 58.5638Z" fill="#191919"/>
<path d="M11.4953 42.6422C11.5686 42.6422 11.6419 42.6422 11.7174 42.6422C11.6507 42.8518 11.5867 43.0526 11.486 43.2485C11.4051 43.3912 11.4051 43.3912 11.4212 43.6049C11.3723 43.6049 11.3235 43.6049 11.2731 43.6049C11.2487 43.4827 11.2242 43.3605 11.199 43.2346C11.2724 43.2102 11.3457 43.1857 11.4212 43.1606C11.4197 43.0888 11.4182 43.017 11.4166 42.943C11.4212 42.7162 11.4212 42.7162 11.4953 42.6422Z" fill="#191919"/>
<path d="M48.6703 59.8227C48.6459 59.8716 48.6214 59.9204 48.5962 59.9708C48.5474 59.9708 48.4985 59.9708 48.4481 59.9708C48.4481 60.0197 48.4481 60.0685 48.4481 60.1189C48.2771 60.1189 48.106 60.1189 47.9298 60.1189C47.9053 60.07 47.8809 60.0211 47.8557 59.9708C48.1388 59.8654 48.3676 59.8049 48.6703 59.8227Z" fill="#191919"/>
<path d="M22.2331 52.7135C22.2819 52.7135 22.3308 52.7135 22.3812 52.7135C22.2127 53.1672 22.0361 53.4617 21.6406 53.7503C21.7182 53.5104 21.8153 53.3373 21.9785 53.1486C22.1695 52.95 22.1695 52.95 22.2331 52.7135Z" fill="#191919"/>
<path d="M15.4201 52.7876C15.92 52.8431 15.92 52.8431 16.0866 53.0097C16.0866 53.083 16.0866 53.1564 16.0866 53.2319C15.7641 53.1459 15.5944 53.0781 15.4201 52.7876Z" fill="#191919"/>
<path d="M3.86771 51.3065C4.01592 51.4951 4.15336 51.6733 4.23798 51.8989C4.21021 52.0655 4.21021 52.0655 4.16393 52.1951C4.16393 52.1463 4.16393 52.0974 4.16393 52.047C4.09061 52.0226 4.0173 51.9981 3.94176 51.973C3.83229 51.754 3.86324 51.5477 3.86771 51.3065Z" fill="#191919"/>
<path d="M50.8919 50.2697C50.9164 50.2697 50.9408 50.2697 50.966 50.2697C50.9848 50.5365 51.0011 50.8034 51.0169 51.0704C51.0223 51.1463 51.0277 51.2221 51.0332 51.3003C51.0373 51.3731 51.0413 51.4458 51.0455 51.5208C51.0498 51.5879 51.0541 51.655 51.0585 51.7241C51.04 51.8989 51.04 51.8989 50.8179 52.1211C50.8423 51.5101 50.8667 50.8992 50.8919 50.2697Z" fill="#191919"/>
<path d="M29.8606 43.1606C30.1635 43.3298 30.4133 43.5276 30.6752 43.753C30.6019 43.7896 30.6019 43.7896 30.5271 43.827C30.4538 43.8026 30.3805 43.7782 30.3049 43.753C30.3049 43.7041 30.3049 43.6552 30.3049 43.6049C30.2591 43.5957 30.2133 43.5866 30.1661 43.5771C30.0087 43.5308 30.0087 43.5308 29.8606 43.3827C29.8606 43.3094 29.8606 43.2361 29.8606 43.1606Z" fill="#191919"/>
<path d="M64.8881 45.2341C64.937 45.2341 64.9859 45.2341 65.0362 45.2341C65.0255 45.3181 65.0148 45.4021 65.0038 45.4886C64.9619 45.8231 64.9246 46.1579 64.8881 46.493C64.8637 46.493 64.8392 46.493 64.814 46.493C64.812 46.3248 64.8106 46.1567 64.8094 45.9885C64.8081 45.848 64.8081 45.848 64.8068 45.7047C64.814 45.4562 64.814 45.4562 64.8881 45.2341Z" fill="#191919"/>
<path d="M9.27364 38.1249C9.27364 38.4073 9.19697 38.5506 9.05148 38.7914C8.85246 38.9302 8.85246 38.9302 8.68121 39.0135C8.78561 38.7885 8.90994 38.5993 9.06074 38.4026C9.10064 38.3503 9.14054 38.298 9.18165 38.2441C9.21201 38.2047 9.24237 38.1654 9.27364 38.1249Z" fill="#191919"/>
<path d="M99.2491 59.5265C99.2491 59.5753 99.2491 59.6242 99.2491 59.6746C98.981 59.772 98.7977 59.8227 98.5086 59.8227C98.533 59.7494 98.5574 59.6761 98.5826 59.6005C98.8022 59.5142 99.0155 59.52 99.2491 59.5265Z" fill="#191919"/>
<path d="M0.757448 52.7876C0.841834 53.0407 0.820855 53.0852 0.729677 53.3245C0.624621 53.6176 0.568167 53.8855 0.535286 54.1946C0.510848 54.1946 0.48641 54.1946 0.461232 54.1946C0.434437 53.7123 0.513112 53.3142 0.683394 52.8616C0.707831 52.8372 0.732269 52.8127 0.757448 52.7876Z" fill="#191919"/>
<path d="M48.9665 46.3449C49.2222 46.4543 49.3849 46.5995 49.5775 46.7985C49.6298 46.8521 49.6821 46.9058 49.736 46.961C49.795 47.0226 49.795 47.0226 49.8552 47.0854C49.8307 47.1587 49.8063 47.232 49.7811 47.3076C49.6451 47.1612 49.5094 47.0146 49.3738 46.8679C49.3155 46.8052 49.3155 46.8052 49.2561 46.7413C48.9665 46.4273 48.9665 46.4273 48.9665 46.3449Z" fill="#191919"/>
<path d="M15.7904 34.7184C16.1586 34.8289 16.4879 34.9853 16.8271 35.1627C16.5482 35.2557 16.4293 35.1902 16.1607 35.0887C16.1607 35.0398 16.1607 34.9909 16.1607 34.9406C16.0385 34.9406 15.9163 34.9406 15.7904 34.9406C15.7904 34.8673 15.7904 34.794 15.7904 34.7184Z" fill="#191919"/>
<path d="M56.0757 59.6005C56.5241 59.5861 56.5241 59.5861 56.6681 59.6005C56.8162 59.7486 56.8162 59.7486 56.8903 59.9708C56.7821 59.9374 56.6742 59.9033 56.5663 59.869C56.5062 59.8501 56.446 59.8312 56.3841 59.8117C56.2238 59.7486 56.2238 59.7486 56.0757 59.6005Z" fill="#191919"/>
<path d="M19.345 46.3449C19.6625 46.3802 19.809 46.4677 20.0115 46.7151C20.0115 46.764 20.0115 46.8129 20.0115 46.8633C19.7288 46.7481 19.5529 46.5644 19.345 46.3449Z" fill="#191919"/>
<path d="M13.7909 41.9016C13.7665 41.9994 13.7421 42.0971 13.7169 42.1979C13.4969 42.2467 13.277 42.2956 13.0504 42.346C13.4947 41.9016 13.4947 41.9016 13.7909 41.9016Z" fill="#191919"/>
<path d="M11.8655 35.533C11.9144 35.5574 11.9633 35.5819 12.0136 35.6071C11.8322 35.9608 11.8322 35.9608 11.6434 36.0375C11.4953 36.0514 11.4953 36.0514 11.2731 36.0514C11.4686 35.8803 11.6641 35.7093 11.8655 35.533Z" fill="#191919"/>
<path d="M16.8271 35.2368C17.1846 35.3414 17.4726 35.4908 17.7898 35.6811C17.7898 35.7056 17.7898 35.73 17.7898 35.7552C17.6432 35.7552 17.4966 35.7552 17.3455 35.7552C17.3455 35.6819 17.3455 35.6085 17.3455 35.533C17.1256 35.4964 17.1256 35.4964 16.9012 35.459C16.8768 35.3856 16.8523 35.3123 16.8271 35.2368Z" fill="#191919"/>
<path d="M90.0664 58.7859C90.2006 58.7952 90.2006 58.7952 90.3626 58.86C90.4922 59.0868 90.4922 59.0868 90.5848 59.3043C90.4089 59.2534 90.4089 59.2534 90.2145 59.1562C90.1173 58.9618 90.1173 58.9618 90.0664 58.7859Z" fill="#191919"/>
<path d="M63.9995 58.1194C64.0728 58.1194 64.1461 58.1194 64.2216 58.1194C64.1958 58.3605 64.146 58.417 63.9578 58.5823C63.8982 58.625 63.8387 58.6678 63.7773 58.7119C63.7529 58.6386 63.7284 58.5652 63.7032 58.4897C63.7766 58.4897 63.8499 58.4897 63.9254 58.4897C63.9498 58.3675 63.9743 58.2453 63.9995 58.1194Z" fill="#191919"/>
<path d="M22.9736 50.8622C23.0225 50.8866 23.0714 50.911 23.1217 50.9362C23.142 51.3357 23.1484 51.5671 22.8996 51.8989C22.8751 51.85 22.8507 51.8012 22.8255 51.7508C22.8484 51.6974 22.8713 51.6439 22.8949 51.5888C22.99 51.3371 22.9841 51.1291 22.9736 50.8622Z" fill="#191919"/>
<path d="M36.6736 49.307C36.7225 49.307 36.7713 49.307 36.8217 49.307C36.8349 49.6438 36.8215 49.8905 36.6736 50.1957C36.6491 50.1957 36.6247 50.1957 36.5995 50.1957C36.5889 49.5609 36.5889 49.5609 36.6736 49.307Z" fill="#191919"/>
<path d="M13.7169 47.2335C13.6065 47.5146 13.4387 47.649 13.1985 47.826C13.2229 47.7038 13.2474 47.5816 13.2726 47.4557C13.3214 47.4557 13.3703 47.4557 13.4207 47.4557C13.4207 47.4068 13.4207 47.3579 13.4207 47.3076C13.5688 47.2335 13.5688 47.2335 13.7169 47.2335Z" fill="#191919"/>
<path d="M73.6265 45.6043C73.6265 45.8265 73.6265 45.8265 73.4598 46.0301C73.2562 46.1968 73.2562 46.1968 73.0942 46.1921C72.96 46.1227 72.96 46.1227 72.8119 45.9746C72.8775 45.9822 72.9432 45.9899 73.0109 45.9977C73.3307 45.9676 73.4233 45.8434 73.6265 45.6043Z" fill="#191919"/>
<path d="M71.7427 59.9106C71.8769 59.9554 72.0112 60.0001 72.1454 60.0448C72.0392 60.0842 71.9327 60.1226 71.826 60.1606C71.7371 60.1928 71.7371 60.1928 71.6464 60.2256C71.4789 60.267 71.4789 60.267 71.2567 60.1929C71.5021 59.893 71.5021 59.893 71.7427 59.9106Z" fill="#191919"/>
<path d="M48.8378 59.7197C48.9267 59.7249 48.9267 59.7249 49.0174 59.7301C49.0773 59.7328 49.1371 59.7355 49.1988 59.7382C49.2671 59.7434 49.2671 59.7434 49.3368 59.7486C49.1575 59.9279 49.0553 59.9359 48.8092 59.98C48.7081 59.9987 48.7081 59.9987 48.6049 60.0177C48.5532 60.0266 48.5014 60.0356 48.4481 60.0448C48.6234 59.7567 48.6234 59.7567 48.8378 59.7197Z" fill="#191919"/>
<path d="M30.2309 50.2697C30.2798 50.2942 30.3286 50.3186 30.379 50.3438C30.3546 50.4171 30.3301 50.4904 30.3049 50.5659C30.3783 50.5904 30.4516 50.6148 30.5271 50.64C30.5271 50.8111 30.5271 50.9821 30.5271 51.1584C30.3079 50.9092 30.2366 50.6628 30.1568 50.3438C30.1813 50.3193 30.2057 50.2949 30.2309 50.2697Z" fill="#191919"/>
<path d="M21.5666 48.5665C21.6155 48.5665 21.6643 48.5665 21.7147 48.5665C21.7147 48.6154 21.7147 48.6642 21.7147 48.7146C21.8124 48.739 21.9102 48.7635 22.0109 48.7887C22.0353 48.9597 22.0598 49.1308 22.085 49.307C21.8379 49.0856 21.7035 48.8678 21.5666 48.5665Z" fill="#191919"/>
<path d="M73.9967 45.0119C74.0456 45.0363 74.0945 45.0608 74.1448 45.086C73.8764 45.521 73.8764 45.521 73.6265 45.6043C73.6666 45.3232 73.7895 45.1991 73.9967 45.0119Z" fill="#191919"/>
<path d="M38.4509 45.086C38.4753 45.1593 38.4997 45.2326 38.5249 45.3081C38.305 45.4914 38.305 45.4914 38.0806 45.6784C38.0806 45.4562 38.0806 45.4562 38.2657 45.2572C38.3268 45.2007 38.3879 45.1442 38.4509 45.086Z" fill="#191919"/>
<path d="M30.6752 43.827C30.7603 43.8977 30.8451 43.9687 30.9298 44.0399C31.0007 44.0992 31.0007 44.0992 31.073 44.1597C31.1936 44.2714 31.1936 44.2714 31.2676 44.4195C31.121 44.3706 30.9744 44.3217 30.8233 44.2714C30.8233 44.2225 30.8233 44.1736 30.8233 44.1233C30.7744 44.0988 30.7256 44.0744 30.6752 44.0492C30.6752 43.9759 30.6752 43.9026 30.6752 43.827Z" fill="#191919"/>
<path d="M51.1881 43.1606C51.5165 43.2638 51.6972 43.4276 51.9287 43.6789C51.9042 43.7278 51.8798 43.7767 51.8546 43.827C51.7431 43.7443 51.6321 43.6609 51.5214 43.5771C51.4595 43.5307 51.3977 43.4843 51.3339 43.4365C51.2858 43.3943 51.2377 43.3521 51.1881 43.3087C51.1881 43.2598 51.1881 43.2109 51.1881 43.1606Z" fill="#191919"/>
<path d="M67.1097 59.7486C67.7445 59.8121 67.7445 59.8121 67.9984 59.9708C67.9984 60.0197 67.9984 60.0685 67.9984 60.1189C67.8918 60.0854 67.7854 60.0513 67.679 60.0171C67.6197 59.9982 67.5604 59.9793 67.4994 59.9598C67.3319 59.8967 67.3319 59.8967 67.1097 59.7486Z" fill="#191919"/>
<path d="M54.0762 57.0827C54.1251 57.1071 54.174 57.1316 54.2243 57.1567C54.1295 57.2832 54.0305 57.4066 53.9281 57.527C53.8793 57.527 53.8304 57.527 53.78 57.527C53.78 57.6003 53.78 57.6736 53.78 57.7492C53.7311 57.7492 53.6823 57.7492 53.6319 57.7492C53.7291 57.4576 53.8481 57.288 54.0762 57.0827Z" fill="#191919"/>
<path d="M48.9665 55.3794C49.0154 55.4039 49.0643 55.4283 49.1146 55.4535C49.0191 55.5554 48.9201 55.654 48.8184 55.7497C48.7695 55.7497 48.7207 55.7497 48.6703 55.7497C48.6459 55.823 48.6214 55.8963 48.5962 55.9719C48.4985 55.9474 48.4007 55.923 48.3 55.8978C48.52 55.7268 48.7399 55.5557 48.9665 55.3794Z" fill="#191919"/>
<path d="M65.2584 49.307C65.6035 49.5341 65.6919 49.7207 65.7767 50.1216C65.4934 49.8681 65.353 49.6768 65.2584 49.307Z" fill="#191919"/>
<path d="M14.3834 41.5314C14.4322 41.5558 14.4811 41.5802 14.5315 41.6054C14.4582 41.6299 14.3848 41.6543 14.3093 41.6795C14.2849 41.7528 14.2604 41.8261 14.2353 41.9016C14.0886 41.9016 13.942 41.9016 13.7909 41.9016C13.99 41.7348 14.135 41.6142 14.3834 41.5314Z" fill="#191919"/>
<path d="M72.3675 59.8227C72.1449 60.0453 71.9363 60.0149 71.627 60.0448C71.8591 59.778 72.0274 59.7093 72.3675 59.8227Z" fill="#191919"/>
<path d="M61.8519 59.7486C61.8519 59.8219 61.8519 59.8953 61.8519 59.9708C61.6808 59.9952 61.5098 60.0197 61.3335 60.0448C61.358 59.9715 61.3824 59.8982 61.4076 59.8227C61.5631 59.7675 61.6871 59.7486 61.8519 59.7486Z" fill="#191919"/>
<path d="M22.4552 59.6746C22.4797 59.7479 22.5041 59.8212 22.5293 59.8967C22.4393 60.0642 22.4393 60.0642 22.3118 60.2439C22.2698 60.3037 22.2279 60.3636 22.1848 60.4252C22.1518 60.4708 22.1189 60.5163 22.085 60.5632C22.0605 60.4899 22.0361 60.4166 22.0109 60.3411C22.1009 60.1736 22.1009 60.1736 22.2284 59.9939C22.2703 59.9341 22.3123 59.8742 22.3554 59.8126C22.3884 59.767 22.4213 59.7215 22.4552 59.6746Z" fill="#191919"/>
<path d="M22.8996 58.7859C22.9736 58.934 22.9736 58.934 22.9213 59.0917C22.8942 59.1512 22.8672 59.2106 22.8394 59.2719C22.8129 59.3316 22.7865 59.3912 22.7593 59.4527C22.6774 59.6005 22.6774 59.6005 22.5293 59.6746C22.577 59.4515 22.6515 59.2661 22.7561 59.0636C22.7829 59.0113 22.8097 58.959 22.8374 58.9051C22.8579 58.8658 22.8784 58.8264 22.8996 58.7859Z" fill="#191919"/>
<path d="M89.1037 57.9713C89.3046 58.0908 89.5016 58.2119 89.6962 58.3416C89.6962 58.3905 89.6962 58.4394 89.6962 58.4897C89.4158 58.4497 89.2849 58.3329 89.1037 58.1194C89.1037 58.0706 89.1037 58.0217 89.1037 57.9713Z" fill="#191919"/>
<path d="M56.0016 54.8611C56.075 54.8855 56.1483 54.9099 56.2238 54.9351C56.1658 54.9794 56.1077 55.0237 56.0479 55.0693C55.8427 55.2247 55.8427 55.2247 55.7054 55.4535C55.6565 55.4535 55.6077 55.4535 55.5573 55.4535C55.6641 55.2042 55.8041 55.0454 56.0016 54.8611Z" fill="#191919"/>
<path d="M90.807 53.7503C91.0101 53.9872 91.1498 54.195 91.2513 54.4908C91.0291 54.4167 91.0291 54.4167 90.9042 54.2455C90.807 54.0465 90.807 54.0465 90.807 53.7503Z" fill="#191919"/>
<path d="M18.9747 52.2692C18.9991 52.2692 19.0236 52.2692 19.0488 52.2692C19.0673 52.4404 19.0673 52.4404 19.0488 52.6395C18.9006 52.7737 18.9006 52.7737 18.7525 52.8616C18.7281 52.7639 18.7037 52.6661 18.6785 52.5654C18.7274 52.5654 18.7762 52.5654 18.8266 52.5654C18.8755 52.4677 18.9243 52.3699 18.9747 52.2692Z" fill="#191919"/>
<path d="M60.0746 48.6405C60.3477 48.6774 60.4897 48.7221 60.667 48.9368C60.5937 48.9734 60.5937 48.9734 60.5189 49.0108C60.3685 48.9416 60.2201 48.8677 60.0746 48.7887C60.0746 48.7398 60.0746 48.6909 60.0746 48.6405Z" fill="#191919"/>
<path d="M58.6676 45.6784C58.6074 45.933 58.6074 45.933 58.5195 46.1968C58.4462 46.2212 58.3728 46.2456 58.2973 46.2708C58.3162 46.0973 58.3412 45.9244 58.3714 45.7524C58.5195 45.6784 58.5195 45.6784 58.6676 45.6784Z" fill="#191919"/>
<path d="M92.9545 60.0448C93.4376 60.0175 93.4376 60.0175 93.6164 60.1559C93.6423 60.1926 93.6683 60.2292 93.6951 60.267C93.4996 60.267 93.3041 60.267 93.1026 60.267C93.1026 60.2181 93.1026 60.1693 93.1026 60.1189C93.0538 60.0945 93.0049 60.07 92.9545 60.0448Z" fill="#191919"/>
<path d="M99.9896 59.3043C99.9896 59.3532 99.9896 59.4021 99.9896 59.4524C99.6597 59.4891 99.6597 59.4891 99.3232 59.5265C99.4606 59.2515 99.7161 59.2969 99.9896 59.3043Z" fill="#191919"/>
<path d="M55.3352 59.0081C55.4818 59.057 55.6284 59.1058 55.7795 59.1562C55.7795 59.2051 55.7795 59.2539 55.7795 59.3043C55.8528 59.3287 55.9261 59.3532 56.0016 59.3784C55.7934 59.4015 55.7934 59.4015 55.5573 59.3784C55.4185 59.1932 55.4185 59.1932 55.3352 59.0081Z" fill="#191919"/>
<path d="M51.04 58.7119C51.0156 58.8096 50.9912 58.9074 50.966 59.0081C50.8438 59.0325 50.7216 59.057 50.5957 59.0821C50.7629 58.7119 50.7629 58.7119 51.04 58.7119Z" fill="#191919"/>
<path d="M19.345 51.4546C19.3694 51.4546 19.3938 51.4546 19.419 51.4546C19.4126 51.5735 19.4045 51.6922 19.3959 51.811C19.3916 51.8771 19.3873 51.9433 19.3829 52.0114C19.3403 52.2178 19.2842 52.2871 19.1228 52.4173C19.1313 52.3123 19.1408 52.2074 19.1506 52.1026C19.1557 52.0441 19.1609 51.9857 19.1662 51.9255C19.198 51.7444 19.2551 51.6139 19.345 51.4546Z" fill="#191919"/>
<path d="M54.9649 49.5292C55.0138 49.5536 55.0626 49.5781 55.113 49.6032C55.0886 49.9209 55.0641 50.2386 55.0389 50.5659C55.0145 50.5659 54.9901 50.5659 54.9649 50.5659C54.9505 50.4071 54.9367 50.2482 54.9232 50.0892C54.9116 49.9565 54.9116 49.9565 54.8998 49.8211C54.8968 49.7492 54.8939 49.6773 54.8908 49.6032C54.9153 49.5788 54.9397 49.5544 54.9649 49.5292Z" fill="#191919"/>
<path d="M29.6385 49.4551C29.7362 49.4796 29.834 49.504 29.9347 49.5292C30.0039 49.7521 30.012 49.8155 29.9347 50.0476C29.8369 49.8521 29.7392 49.6566 29.6385 49.4551Z" fill="#191919"/>
<path d="M29.1201 48.7146C29.3034 48.7513 29.3034 48.7513 29.4904 48.7887C29.5148 48.9597 29.5392 49.1308 29.5644 49.307C29.3669 49.1227 29.2269 48.9639 29.1201 48.7146Z" fill="#191919"/>
<path d="M55.187 43.6789C55.2359 43.6789 55.2848 43.6789 55.3352 43.6789C55.312 43.8224 55.312 43.8224 55.2611 43.9752C55.1878 43.9996 55.1145 44.024 55.0389 44.0492C55.0389 44.1225 55.0389 44.1958 55.0389 44.2714C54.9901 44.2714 54.9412 44.2714 54.8908 44.2714C54.9741 44.0513 55.0554 43.8763 55.187 43.6789Z" fill="#191919"/>
<path d="M40.5244 58.7119C40.7743 58.7997 40.9426 58.8804 41.1168 59.0821C40.9457 59.0577 40.7747 59.0333 40.5984 59.0081C40.574 58.9103 40.5496 58.8126 40.5244 58.7119Z" fill="#191919"/>
<path d="M73.8486 58.7119C73.8975 58.7119 73.9464 58.7119 73.9967 58.7119C73.9782 58.8507 73.9782 58.8507 73.9227 59.0081C73.7699 59.1007 73.7699 59.1007 73.6265 59.1562C73.6689 58.9439 73.6903 58.8702 73.8486 58.7119Z" fill="#191919"/>
<path d="M53.5579 56.0459C53.5823 56.1192 53.6067 56.1926 53.6319 56.2681C53.4977 56.5041 53.4977 56.5041 53.3357 56.7124C53.2868 56.7124 53.2379 56.7124 53.1876 56.7124C53.2985 56.482 53.4245 56.2641 53.5579 56.0459Z" fill="#191919"/>
<path d="M14.0871 46.8633C14.0577 47.077 14.0286 47.1463 13.8604 47.2891C13.813 47.3196 13.7657 47.3502 13.7169 47.3816C13.6924 47.3083 13.668 47.235 13.6428 47.1595C13.9205 46.8633 13.9205 46.8633 14.0871 46.8633Z" fill="#191919"/>
<path d="M72.1454 45.6043C72.422 45.6412 72.5758 45.6691 72.8119 45.8265C72.8119 45.8754 72.8119 45.9242 72.8119 45.9746C72.5323 45.8938 72.3327 45.8333 72.1454 45.6043Z" fill="#191919"/>
<path d="M59.3341 45.2341C59.2653 45.2799 59.1966 45.3257 59.1258 45.3729C59.0089 45.4508 59.0089 45.4508 58.8897 45.5303C58.7798 45.6036 58.7798 45.6036 58.6676 45.6784C58.7231 45.4609 58.7231 45.4609 58.8157 45.2341C59.031 45.1299 59.1028 45.157 59.3341 45.2341Z" fill="#191919"/>
<path d="M10.0882 37.1622C10.1127 37.2599 10.1371 37.3577 10.1623 37.4584C10.0157 37.5317 9.86904 37.605 9.71797 37.6806C9.81372 37.467 9.91491 37.3198 10.0882 37.1622Z" fill="#191919"/>
<path d="M13.5688 34.4963C13.5688 34.5696 13.5688 34.6429 13.5688 34.7184C13.3733 34.7673 13.1778 34.8162 12.9763 34.8665C13.3347 34.4963 13.3347 34.4963 13.5688 34.4963Z" fill="#191919"/>
<path d="M72.8119 59.6746C72.6177 59.8341 72.468 59.9264 72.2194 59.9708C72.2472 59.8273 72.2472 59.8273 72.2935 59.6746C72.491 59.5758 72.6021 59.6249 72.8119 59.6746Z" fill="#191919"/>
<path d="M49.559 59.6005C49.3507 59.7162 49.3507 59.7162 49.1146 59.8227C49.0413 59.7982 48.968 59.7738 48.8925 59.7486C49.1174 59.5237 49.2581 59.5002 49.559 59.6005Z" fill="#191919"/>
<path d="M62.8886 59.0821C62.9864 59.0821 63.0842 59.0821 63.1849 59.0821C63.1604 59.1555 63.136 59.2288 63.1108 59.3043C62.921 59.3922 62.921 59.3922 62.7405 59.4524C62.7894 59.3302 62.8383 59.208 62.8886 59.0821Z" fill="#191919"/>
<path d="M15.198 52.4173C15.3461 52.4913 15.4942 52.5654 15.6423 52.6395C15.6178 52.7128 15.5934 52.7861 15.5682 52.8616C15.4247 52.8061 15.4247 52.8061 15.272 52.7135C15.2165 52.5561 15.2165 52.5561 15.198 52.4173Z" fill="#191919"/>
<path d="M1.86826 50.2697C1.91713 50.2697 1.96601 50.2697 2.01636 50.2697C2.0408 50.343 2.06524 50.4164 2.09042 50.4919C1.99267 50.5163 1.89492 50.5408 1.7942 50.5659C1.7942 50.6393 1.7942 50.7126 1.7942 50.7881C1.74533 50.7881 1.69645 50.7881 1.64609 50.7881C1.78495 50.353 1.78495 50.353 1.86826 50.2697Z" fill="#191919"/>
<path d="M42.82 46.0487C42.8689 46.0731 42.9178 46.0975 42.9682 46.1227C42.8215 46.2693 42.6749 46.416 42.5238 46.567C42.475 46.5426 42.4261 46.5182 42.3757 46.493C42.5701 46.132 42.5701 46.132 42.82 46.0487Z" fill="#191919"/>
<path d="M40.3022 43.1606C40.4642 43.1837 40.4642 43.1837 40.5984 43.2346C40.4762 43.3324 40.3541 43.4301 40.2282 43.5308C40.1793 43.482 40.1304 43.4331 40.0801 43.3827C40.1726 43.267 40.1726 43.267 40.3022 43.1606Z" fill="#191919"/>
<path d="M11.9396 42.0498C11.964 42.0986 11.9885 42.1475 12.0136 42.1979C11.9444 42.3483 11.8705 42.4967 11.7915 42.6422C11.7128 42.508 11.7128 42.508 11.6434 42.346C11.6678 42.2727 11.6922 42.1993 11.7174 42.1238C11.7907 42.0994 11.864 42.0749 11.9396 42.0498Z" fill="#191919"/>
<path d="M18.9747 36.5698C19.3357 36.7642 19.3357 36.7642 19.419 37.0141C19.3213 37.0141 19.2235 37.0141 19.1228 37.0141C19.1228 36.9163 19.1228 36.8186 19.1228 36.7179C19.0739 36.7179 19.0251 36.7179 18.9747 36.7179C18.9747 36.669 18.9747 36.6201 18.9747 36.5698Z" fill="#191919"/>
</g>
<defs>
<clipPath id="clip0_2336_12811">
<rect width="100" height="100" fill="white" transform="translate(0.442871 0.945435)"/>
</clipPath>
</defs>
</svg>
