<svg width="101" height="101" viewBox="0 0 101 101" fill="none" xmlns="http://www.w3.org/2000/svg">
<g clip-path="url(#clip0_2336_10870)">
<path d="M16.4407 54.8433L13.1162 44.0376H10.4916L7.16623 54.8433L3.87111 44.0304H0.852051L5.66438 59.7871H8.11415L11.8042 48.3832L15.4788 59.7871H17.9286L22.7409 44.0376H19.7367L16.4407 54.8433Z" fill="#191919"/>
<path d="M44.1088 46.7643H52.2303L43.2915 59.305V59.7871H56.6351V57.0604H48.1481L57.072 44.5337V44.0376H44.1088V46.7643Z" fill="#191919"/>
<path d="M37.2196 45.6981C35.8692 44.289 34.0268 43.5475 31.8591 43.5475C27.2718 43.5475 23.813 47.1494 23.813 51.9255C23.813 56.7011 27.2718 60.3024 31.8591 60.3024C34.0218 60.3024 35.8641 59.5655 37.2196 58.1659V59.9722H40.3029V43.8789H37.2196V45.6981ZM32.1734 57.4009C29.1453 57.4009 26.9464 55.0982 26.9464 51.9255C26.9464 48.7629 29.1452 46.4672 32.1734 46.4672C35.1924 46.4672 37.3842 48.7629 37.3842 51.9255C37.3842 55.0982 35.1925 57.4009 32.1734 57.4009Z" fill="#191919"/>
<path d="M71.4339 52.9515C71.4339 55.7789 69.8777 57.4008 67.1658 57.4008C64.4439 57.4008 62.8827 55.7789 62.8827 52.9515V43.8788H59.7983V53.1995C59.7983 58.442 63.7672 60.3024 67.1658 60.3024C70.5573 60.3024 74.5172 58.442 74.5172 53.1995V43.8788H71.4339V52.9515Z" fill="#191919"/>
<path d="M92.3508 49.3462C92.2634 48.7041 92.0977 48.048 91.8548 47.3773C91.6118 46.7066 91.2594 46.0866 90.7976 45.5179C90.3357 44.9496 89.7353 44.4903 88.9974 44.1399C88.2584 43.79 87.3438 43.6153 86.2554 43.6153C84.8358 43.6153 83.6259 43.9215 82.6249 44.534C82.0119 44.9087 81.4875 45.3744 81.0497 45.9292V39.8167H78.3228V59.7875H81.4141V51.5917C81.4141 50.6585 81.5185 49.8663 81.7273 49.2147C81.9372 48.5636 82.2234 48.0385 82.5878 47.6399C82.9522 47.2413 83.3779 46.9521 83.8639 46.7725C84.3498 46.5922 84.8649 46.5024 85.41 46.5024C86.2454 46.5024 86.9241 46.6725 87.4442 47.0129C87.9643 47.3533 88.3679 47.8001 88.654 48.3543C88.9411 48.9085 89.1359 49.5089 89.2374 50.1555C89.3398 50.8021 89.391 51.4311 89.391 52.0436V59.7875H92.4823V51.0375C92.4823 50.5515 92.4381 49.9878 92.3508 49.3462Z" fill="#191919"/>
<path d="M98.3665 60.1006C99.7392 60.1006 100.852 58.9877 100.852 57.615C100.852 56.2422 99.7392 55.1294 98.3665 55.1294C96.9937 55.1294 95.8809 56.2422 95.8809 57.615C95.8809 58.9877 96.9937 60.1006 98.3665 60.1006Z" fill="#191919"/>
</g>
<defs>
<clipPath id="clip0_2336_10870">
<rect width="100" height="100" fill="white" transform="translate(0.852051 0.0595703)"/>
</clipPath>
</defs>
</svg>
