<svg width="101" height="101" viewBox="0 0 101 101" fill="none" xmlns="http://www.w3.org/2000/svg">
<g clip-path="url(#clip0_2336_10158)">
<path d="M26.9699 43.9622C29.6231 43.9622 30.9177 45.2814 30.9177 47.4116C30.9177 49.012 30.2009 49.9744 28.7351 50.342C30.6609 50.6664 31.6131 51.7261 31.6131 53.586C31.6131 55.6946 30.2009 57.1327 27.2908 57.1327H21.9094V43.9622H26.9699ZM23.6961 45.6815V49.6067H26.7345C28.4249 49.6067 29.1203 48.8282 29.1203 47.5522C29.1203 46.2762 28.3714 45.6707 26.7345 45.6707L23.6961 45.6815ZM23.6961 51.2179V55.3161H27.3443C29.0561 55.3161 29.8264 54.6889 29.8264 53.3697C29.8264 51.964 29.0882 51.2071 27.3122 51.2071L23.6961 51.2179ZM34.5231 43.2594C35.1329 43.2161 35.6679 43.6811 35.7106 44.2974V44.4596C35.7106 45.1192 35.1757 45.6599 34.5231 45.6599C33.8705 45.6599 33.3355 45.1192 33.3355 44.4596C33.2928 43.8433 33.7528 43.3026 34.3626 43.2594C34.4161 43.2485 34.4696 43.2485 34.5231 43.2594ZM33.6565 47.1089H35.3683V57.1327H33.6565V47.1089ZM41.8731 55.4459C42.2368 55.4351 42.5899 55.3918 42.9429 55.3053V56.9705C42.5685 57.0787 42.1833 57.1327 41.7982 57.1327C39.6691 57.1327 38.6421 55.8676 38.6421 54.0077V48.7092H37.0373V47.1089H38.6421V44.9787H40.3004V47.1089H42.9429V48.7092H40.3004V53.9753C40.3004 54.8511 40.8139 55.4459 41.8731 55.4459ZM49.9826 57.3274C48.5383 57.3274 47.4256 56.6678 46.8265 55.3594V57.1219H45.1147V42.9133H46.8372V48.9039C47.4684 47.5847 48.6667 46.9034 50.1859 46.9034C52.8284 46.9034 54.1551 49.1634 54.1551 52.1154C54.1444 54.9485 52.7642 57.3274 49.9826 57.3274ZM49.7258 48.5038C48.1959 48.5038 46.8372 49.4878 46.8372 51.7153V52.5155C46.8372 54.743 48.0889 55.727 49.544 55.727C51.4697 55.727 52.4647 54.4402 52.4647 52.1154C52.4433 49.7149 51.4911 48.5038 49.7258 48.5038ZM55.931 47.1089H57.6428V53.1751C57.6428 54.9809 58.3596 55.7811 59.9858 55.7811C61.5692 55.7811 62.6605 54.7214 62.6605 52.6885V47.1089H64.3722V57.1327H62.6605V55.4891C62.04 56.6461 60.831 57.3598 59.5258 57.3382C57.247 57.3382 55.931 55.7378 55.931 52.9805V47.1089ZM73.9475 56.8732C73.3484 57.1976 72.439 57.3274 71.5296 57.3274C67.9991 57.3274 66.3408 55.1647 66.3408 52.083C66.3408 49.0553 67.9884 46.8926 71.5296 46.8926C72.3427 46.871 73.1558 47.0332 73.894 47.39V48.9904C73.1879 48.6552 72.4176 48.493 71.6366 48.5146C69.0582 48.5146 68.0098 50.1582 68.0098 52.1046C68.0098 54.051 69.0796 55.6946 71.6794 55.6946C72.4497 55.7162 73.2093 55.5973 73.9368 55.3377L73.9475 56.8732ZM75.8947 57.1327V42.9133H77.6064V51.8018L81.8752 47.1089H84.1005L79.4359 52.0289L84.2931 57.1327H81.9715L77.6064 52.4398V57.1327H75.8947ZM89.942 57.3274C86.2295 57.3274 84.6033 55.1647 84.6033 52.083C84.6033 49.0553 86.2723 46.8926 89.2893 46.8926C92.3492 46.8926 93.5688 49.0444 93.5688 52.083V52.8615H86.3258C86.5612 54.57 87.6525 55.673 89.9955 55.673C91.0225 55.673 92.0496 55.4891 93.0125 55.1323V56.7327C92.2101 57.176 90.9583 57.3274 89.942 57.3274ZM86.3151 51.4017H91.8463C91.75 49.5418 90.9155 48.4713 89.2038 48.4713C87.3957 48.4605 86.4863 49.65 86.3044 51.3909V51.4017H86.3151ZM99.5279 55.4459C99.8917 55.4351 100.245 55.3918 100.598 55.3053V56.9705C100.223 57.0787 99.8382 57.1327 99.453 57.1327C97.324 57.1327 96.2969 55.8676 96.2969 54.0077V48.7092H94.6921V47.1089H96.2969V44.9787H97.9659V47.1089H100.608V48.7092H97.9659V53.9753C97.9552 54.8511 98.4688 55.4459 99.5279 55.4459Z" fill="#E4E4E4"/>
<path d="M1.06819 44.3405C0.811428 44.3405 0.608154 44.5351 0.608154 44.7946C0.608154 44.8162 0.608154 44.8487 0.618853 44.8703L2.53391 56.6135C2.5874 56.9054 2.83347 57.1325 3.13303 57.1325H12.3124C12.5371 57.1325 12.7297 56.9703 12.7618 56.7541L14.6768 44.8811C14.7196 44.6324 14.5485 44.3945 14.3024 44.3621C14.281 44.3621 14.2489 44.3513 14.2275 44.3513L1.06819 44.3405ZM9.12426 52.8288H6.19283L5.40114 48.6333H9.84106L9.12426 52.8288Z" fill="#E4E4E4"/>
<path d="M14.0678 48.6334H9.84188L9.13577 52.829H6.19365L2.72729 56.9812C2.83428 57.0786 2.97336 57.1326 3.12314 57.1326H12.3133C12.5379 57.1326 12.7305 56.9704 12.7626 56.7542L14.0678 48.6334Z" fill="#E4E4E4"/>
</g>
<defs>
<clipPath id="clip0_2336_10158">
<rect width="100" height="100" fill="white" transform="translate(0.608398 0.125977)"/>
</clipPath>
</defs>
</svg>
