<svg width="101" height="101" viewBox="0 0 101 101" fill="none" xmlns="http://www.w3.org/2000/svg">
<g clip-path="url(#clip0_2336_10165)">
<path d="M18.6543 58.3907C17.6873 58.8531 15.4194 59.421 12.5537 59.421C4.30829 59.421 0.0537109 54.2504 0.0537109 47.4185C0.0537109 39.275 5.87298 34.7814 13.0811 34.7814C15.8941 34.7814 18.0038 35.3475 18.9707 35.8433L17.828 40.089C16.7731 39.6302 15.2436 39.2047 13.2921 39.2047C9.05512 39.2047 5.73234 41.7891 5.73234 47.1355C5.73234 51.9139 8.56286 54.922 13.3449 54.922C14.9975 54.922 16.7731 54.6021 17.8631 54.1432L18.6543 58.3907Z" fill="#E4E4E4"/>
<path d="M27.8498 59.4209C22.7865 59.4209 18.9011 56.0911 18.9011 50.4969C18.9011 44.9044 22.5755 41.3302 28.1662 41.3302C33.4405 41.3302 36.9918 44.9765 36.9918 50.2138C36.9918 56.5166 32.4911 59.4209 27.885 59.4209H27.8498ZM27.9553 55.5584C30.0826 55.5584 31.3835 53.4716 31.3835 50.3562C31.3835 47.807 30.399 45.1892 27.9553 45.1892C25.4061 45.1892 24.4215 47.807 24.4215 50.3914C24.4215 53.3309 25.6522 55.5584 27.9201 55.5584H27.9553Z" fill="#E4E4E4"/>
<path d="M38.9251 47.4185C38.9251 44.8692 38.8899 43.2061 38.7844 41.7187H43.3906L43.6016 44.9396H43.7422C44.6213 42.3903 46.7134 41.3302 48.4187 41.3302C48.911 41.3302 49.1571 41.3654 49.5439 41.4357V46.4972C49.0868 46.4287 48.6649 46.3566 48.0671 46.3566C46.0805 46.3566 44.7268 47.3815 44.3751 49.0834C44.3048 49.4367 44.2697 49.8253 44.2697 50.2859V59.0306H38.8899L38.9251 47.4185Z" fill="#E4E4E4"/>
<path d="M58.4582 37.0123V41.7187H62.326V45.6832H58.4582V51.986C58.4582 54.0746 58.9856 55.0292 60.5855 55.0292C61.3239 55.0292 61.6755 54.9941 62.1678 54.8886L62.2029 58.9585C61.5349 59.2064 60.2339 59.4209 58.7395 59.4209C56.999 59.4209 55.5574 58.8179 54.6783 57.9318C53.6762 56.9051 53.184 55.2402 53.184 52.8V45.6832H50.8809V41.7187H53.184V38.461L58.4582 37.0123Z" fill="#E4E4E4"/>
<path d="M67.2132 52.0545C67.389 54.3207 69.5866 55.3826 72.1007 55.3826C73.9467 55.3826 75.4235 55.133 76.8827 54.6389L77.5859 58.2887C75.8278 59.0306 73.6654 59.384 71.3271 59.384C65.4551 59.384 62.0796 55.9856 62.0796 50.5338C62.0796 46.1439 64.8398 41.295 70.8349 41.295C76.4256 41.295 78.5529 45.6481 78.5529 49.9308C78.5529 50.852 78.4474 51.666 78.3595 52.0915L67.2132 52.0545ZM73.5599 48.3731C73.5599 47.0985 72.9797 44.8692 70.5536 44.8692C68.2505 44.8692 67.3187 46.9561 67.178 48.3731H73.5599Z" fill="#E4E4E4"/>
<path d="M84.0381 41.7189L85.7258 44.6215C86.2357 45.5058 86.6928 46.3567 87.1499 47.2059H87.2202C87.6773 46.2495 88.0992 45.3986 88.5564 44.516L90.0859 41.7189H95.9227L90.2265 49.9661L95.9931 59.029H89.9101L88.1696 55.9154C87.6773 55.0645 87.2202 54.1802 86.8334 53.2941H86.7279C86.306 54.2154 85.8313 55.0645 85.4094 55.9154L83.7919 59.029H77.8672L83.7568 50.214L78.0078 41.7189H84.0381Z" fill="#E4E4E4"/>
<path d="M72.7163 37.9987H77.2698V33.4523H72.7163V37.9987Z" fill="#E4E4E4"/>
<path d="M59.9524 37.9987H64.5058V33.4523H59.9524V37.9987Z" fill="#E4E4E4"/>
<path d="M47.1885 37.9987H51.7419V33.4523H47.1885V37.9987Z" fill="#E4E4E4"/>
<path d="M34.4246 37.9987H38.978V33.4523H34.4246V37.9987Z" fill="#E4E4E4"/>
<path d="M85.6201 32.3341H90.1736V27.7877H85.6201V32.3341Z" fill="#E4E4E4"/>
<path d="M91.1758 37.8844H95.7292V33.338H91.1758V37.8844Z" fill="#E4E4E4"/>
<path d="M91.1758 32.3341H95.7292V27.7877H91.1758V32.3341Z" fill="#E4E4E4"/>
<path d="M85.6201 37.8844H90.1736V33.338H85.6201V37.8844Z" fill="#E4E4E4"/>
<path d="M0.318115 70.6551H1.09167V65.2911H0.318115V70.6551Z" fill="#E4E4E4"/>
<path d="M2.8673 67.5891H2.88488C3.14859 67.2498 3.55295 67.0529 3.93973 67.0529C4.6078 67.0529 5.15281 67.51 5.15281 68.4769V70.6552H4.44957V68.4699C4.44957 67.9495 4.18586 67.6119 3.74634 67.6119C3.44747 67.6119 3.20133 67.7543 2.8673 68.1235V70.6552H2.18164V67.1249H2.8673V67.5891Z" fill="#E4E4E4"/>
<path d="M6.94601 67.125H8.0536V67.7544H6.94601V69.5618C6.94601 69.9784 7.24488 70.098 7.43827 70.098C7.68441 70.098 7.94812 70.0101 8.22941 69.8378V70.49C8.00086 70.6236 7.61408 70.7256 7.38553 70.7256C6.62955 70.7256 6.24277 70.2544 6.24277 69.618V67.7544H5.62744V67.6753L6.94601 66.3937V67.125Z" fill="#E4E4E4"/>
<path d="M11.6929 70.3088C11.2709 70.5919 10.8842 70.7255 10.2864 70.7255C9.17881 70.7255 8.56348 69.8218 8.56348 68.8461C8.56348 67.7772 9.24914 67.0529 10.2161 67.0529C11.1479 67.0529 11.7456 67.691 11.7456 68.9955H9.26671C9.3722 69.6953 9.77656 70.0574 10.4622 70.0574C10.8842 70.0574 11.2709 69.901 11.6929 69.6337V70.3088ZM11.06 68.5314C11.0424 67.9969 10.7259 67.6594 10.2337 67.6594C9.70623 67.6594 9.3722 67.9741 9.28429 68.5314H11.06Z" fill="#E4E4E4"/>
<path d="M12.5193 70.6551H13.2225V65.2911H12.5193V70.6551Z" fill="#E4E4E4"/>
<path d="M14.2422 70.6551H14.9454V65.2911H14.2422V70.6551Z" fill="#E4E4E4"/>
<mask id="mask0_2336_10165" style="mask-type:luminance" maskUnits="userSpaceOnUse" x="0" y="27" width="101" height="46">
<path d="M0.0537109 27.7878H100.054V72.4081H0.0537109V27.7878Z" fill="white"/>
</mask>
<g mask="url(#mask0_2336_10165)">
<path d="M16.317 66.4709C16.0884 66.4709 15.9126 66.2828 15.9126 66.0542C15.9126 65.8274 16.0884 65.6376 16.317 65.6376C16.5455 65.6376 16.7389 65.8274 16.7389 66.0542C16.7389 66.2828 16.5455 66.4709 16.317 66.4709ZM16.6686 70.6552H15.9653V67.1249H16.6686V70.6552Z" fill="#E4E4E4"/>
<path d="M20.4837 67.6664H19.7629C20.0442 67.9424 20.132 68.1393 20.132 68.4382C20.132 68.7283 19.9738 69.0676 19.798 69.2329C19.3409 69.7357 18.374 69.4843 18.374 69.9009C18.374 70.0979 18.7432 70.2156 19.4464 70.3563C20.2024 70.5057 20.4661 70.8907 20.4661 71.3391C20.4661 72.0388 19.8507 72.4642 18.8135 72.4642C17.8465 72.4642 17.1785 72.0159 17.1785 71.3953C17.1785 70.8749 17.4598 70.569 18.0751 70.4196C17.829 70.2701 17.7059 70.1277 17.7059 69.9713C17.7059 69.7427 17.9344 69.5458 18.2685 69.4685V69.4526C18.0048 69.3419 17.8114 69.1924 17.6883 69.0043C17.5653 68.8232 17.4949 68.6035 17.4949 68.3433C17.4949 67.5891 18.0751 67.1249 19.042 67.1249H20.4837V67.6664ZM18.6377 70.8292C18.163 70.8292 17.8465 71.049 17.8465 71.3637C17.8465 71.717 18.1806 71.9052 18.8135 71.9052C19.4288 71.9052 19.798 71.717 19.798 71.3953C19.798 70.947 19.0772 70.8292 18.6377 70.8292ZM18.8135 67.7297C18.4443 67.7297 18.1278 68.0215 18.1278 68.3679C18.1278 68.7529 18.4091 69.0114 18.8311 69.0114C19.2179 69.0114 19.4992 68.7371 19.4992 68.3521C19.4992 68.0128 19.1827 67.7297 18.8135 67.7297Z" fill="#E4E4E4"/>
</g>
<path d="M23.9819 70.3088C23.56 70.5919 23.1732 70.7255 22.5755 70.7255C21.4679 70.7255 20.8525 69.8218 20.8525 68.8461C20.8525 67.7772 21.5382 67.0529 22.5051 67.0529C23.4369 67.0529 24.0523 67.691 24.0523 68.9955H21.5558C21.6613 69.6953 22.0656 70.0574 22.7513 70.0574C23.1732 70.0574 23.5776 69.901 23.9819 69.6337V70.3088ZM23.349 68.5314C23.3314 67.9969 23.015 67.6594 22.5227 67.6594C21.9953 67.6594 21.6613 67.9741 21.5734 68.5314H23.349Z" fill="#E4E4E4"/>
<path d="M25.4759 67.5891H25.4935C25.7572 67.2498 26.1616 67.0529 26.5484 67.0529C27.2165 67.0529 27.7615 67.51 27.7615 68.4769V70.6552H27.0582V68.4699C27.0582 67.9495 26.7945 67.6119 26.3726 67.6119C26.0561 67.6119 25.81 67.7543 25.4759 68.1235V70.6552H24.7903V67.1249H25.4759V67.5891Z" fill="#E4E4E4"/>
<path d="M29.5549 67.125H30.6625V67.7544H29.5549V69.5618C29.5549 69.9784 29.8538 70.098 30.0472 70.098C30.3109 70.098 30.557 70.0101 30.8383 69.8378V70.49C30.6097 70.6236 30.223 70.7256 29.9944 70.7256C29.2384 70.7256 28.8517 70.2544 28.8517 69.618V67.7544H28.2363V67.6753L29.5549 66.3937V67.125Z" fill="#E4E4E4"/>
<path d="M35.2688 65.2911C36.4292 65.2911 36.9742 65.9838 36.9742 66.833C36.9742 67.6751 36.4116 68.3361 35.1633 68.3361H34.3546V70.6551H33.5986V65.2911H35.2688ZM34.3546 67.6435H35.2336C35.8138 67.6435 36.183 67.3376 36.183 66.8013C36.183 66.4093 35.9721 65.9838 35.2688 65.9838H34.3546V67.6435Z" fill="#E4E4E4"/>
<path d="M38.2923 67.1249V67.9337H38.3099C38.6615 67.3131 38.9956 67.0529 39.3296 67.0529C39.6109 67.0529 39.8746 67.1865 40.1735 67.4625L39.8043 68.0673C39.5933 67.8633 39.312 67.7227 39.1538 67.7227C38.6791 67.7227 38.2923 68.2026 38.2923 68.8074V70.6552H37.5891V67.1249H38.2923Z" fill="#E4E4E4"/>
<path d="M44.0238 68.8549C44.0238 69.9713 43.2502 70.7255 42.1075 70.7255C41.035 70.7255 40.2439 69.9396 40.2439 68.8549C40.2439 67.8405 41.0526 67.0529 42.1075 67.0529C43.2326 67.0529 44.0238 67.8088 44.0238 68.8549ZM40.9647 68.8549C40.9647 69.6021 41.4394 70.0979 42.1075 70.0979C42.8459 70.0979 43.303 69.6249 43.303 68.8619C43.303 68.178 42.8107 67.6823 42.1075 67.6823C41.4394 67.6823 40.9647 68.178 40.9647 68.8549Z" fill="#E4E4E4"/>
<path d="M47.3998 68.0444C46.9955 67.7772 46.7318 67.6981 46.4329 67.6981C45.7824 67.6981 45.3429 68.178 45.3429 68.8936C45.3429 69.6249 45.8176 70.0662 46.5384 70.0662C46.8373 70.0662 47.1186 69.9871 47.4702 69.8289V70.5216C47.2416 70.6323 46.8021 70.7255 46.4329 70.7255C45.378 70.7255 44.6396 69.9941 44.6396 68.9569C44.6396 67.793 45.3077 67.0529 46.3802 67.0529C46.7845 67.0529 47.0658 67.1478 47.3998 67.2972V68.0444Z" fill="#E4E4E4"/>
<path d="M51.1968 70.3088C50.7748 70.5919 50.3881 70.7255 49.7903 70.7255C48.6827 70.7255 48.0674 69.8218 48.0674 68.8461C48.0674 67.7772 48.753 67.0529 49.7376 67.0529C50.6694 67.0529 51.2671 67.691 51.2671 68.9955H48.7706C48.8937 69.6953 49.2805 70.0574 49.9661 70.0574C50.3881 70.0574 50.7924 69.901 51.1968 69.6337V70.3088ZM50.5639 68.5314C50.5463 67.9969 50.2474 67.6594 49.7376 67.6594C49.2101 67.6594 48.8937 67.9741 48.7882 68.5314H50.5639Z" fill="#E4E4E4"/>
<path d="M54.0628 68.0374C53.6761 67.7772 53.3069 67.6664 53.0432 67.6664C52.7619 67.6664 52.5861 67.8 52.5861 67.9899C52.5861 68.1464 52.8146 68.3363 53.4475 68.6967C54.0277 69.0817 54.2387 69.3261 54.2387 69.6882C54.2387 70.3088 53.7464 70.7255 53.0783 70.7255C52.6388 70.7255 52.3048 70.6394 51.8477 70.4038V69.6496C52.3048 69.9643 52.7091 70.1119 52.9904 70.1119C53.2893 70.0979 53.5178 69.9642 53.5178 69.7111C53.5178 69.2241 51.8652 68.9639 51.8652 68.0128C51.8652 67.415 52.3223 67.0529 53.0256 67.0529C53.3596 67.0529 53.6937 67.1478 54.0628 67.3447V68.0374Z" fill="#E4E4E4"/>
<path d="M57.1041 68.0374C56.6997 67.7772 56.3305 67.6664 56.0668 67.6664C55.7855 67.6664 55.6097 67.8 55.6097 67.9899C55.6097 68.1464 55.8383 68.3363 56.4712 68.6967C57.0514 69.0817 57.2623 69.3261 57.2623 69.6882C57.2623 70.3088 56.7701 70.7255 56.102 70.7255C55.6625 70.7255 55.3284 70.6394 54.8713 70.4038V69.6496C55.3284 69.9643 55.7504 70.1119 56.0317 70.1119C56.313 70.0979 56.5415 69.9642 56.5415 69.7111C56.5415 69.2241 54.8889 68.9639 54.8889 68.0128C54.8889 67.415 55.346 67.0529 56.0493 67.0529C56.3833 67.0529 56.7349 67.1478 57.1041 67.3447V68.0374Z" fill="#E4E4E4"/>
<path d="M61.6402 68.8549C61.6402 69.9713 60.8491 70.7255 59.7239 70.7255C58.6339 70.7255 57.8604 69.9396 57.8604 68.8549C57.8604 67.8405 58.6691 67.0529 59.7239 67.0529C60.8315 67.0529 61.6402 67.8088 61.6402 68.8549ZM58.5812 68.8549C58.5812 69.6021 59.0383 70.0979 59.7063 70.0979C60.4623 70.0979 60.9194 69.6249 60.9194 68.8619C60.9194 68.178 60.4096 67.6823 59.7063 67.6823C59.0558 67.6823 58.5812 68.178 58.5812 68.8549Z" fill="#E4E4E4"/>
<path d="M63.1522 67.1249V67.9337H63.1698C63.5214 67.3131 63.873 67.0529 64.1895 67.0529C64.4884 67.0529 64.7521 67.1865 65.0334 67.4625L64.6642 68.0673C64.4532 67.8633 64.1895 67.7227 64.0137 67.7227C63.539 67.7227 63.1522 68.2026 63.1522 68.8074V70.6552H62.4666V67.1249H63.1522Z" fill="#E4E4E4"/>
<path d="M67.5826 68.0374C67.1958 67.7772 66.8266 67.6664 66.5629 67.6664C66.2816 67.6664 66.0883 67.8 66.0883 67.9899C66.0883 68.1464 66.3344 68.3363 66.9497 68.6967C67.5299 69.0817 67.7409 69.3261 67.7409 69.6882C67.7409 70.3088 67.2486 70.7255 66.5805 70.7255C66.141 70.7255 65.807 70.6394 65.3499 70.4038V69.6496C65.807 69.9643 66.2289 70.1119 66.5102 70.1119C66.7915 70.0979 67.0376 69.9642 67.0376 69.7111C67.0376 69.2241 65.385 68.9639 65.385 68.0128C65.385 67.415 65.8245 67.0529 66.5454 67.0529C66.8794 67.0529 67.2134 67.1478 67.5826 67.3447V68.0374Z" fill="#E4E4E4"/>
<path d="M71.4154 67.3762C71.7143 67.1565 72.0307 67.0527 72.3823 67.0527C73.2614 67.0527 73.9119 67.7999 73.9119 68.8143C73.9119 70.0098 73.2086 70.7254 72.0307 70.7254C71.556 70.7254 71.0638 70.6234 70.7122 70.4582V65.2911H71.4154V67.3762ZM71.4154 69.9553C71.6088 70.0186 71.9077 70.0661 72.1186 70.0661C72.7515 70.0661 73.1911 69.5861 73.1911 68.9181C73.1911 68.1709 72.8043 67.6821 72.2065 67.6821C71.9252 67.6821 71.7143 67.7771 71.4154 68.0443V69.9553Z" fill="#E4E4E4"/>
<path d="M75.0543 72.4643H74.2632L75.4763 69.901L74.105 67.125H74.8961L75.8455 69.1134L76.7597 67.125H77.5508L75.0543 72.4643Z" fill="#E4E4E4"/>
<path d="M84.9701 70.6552H84.1965L83.4757 69.0746H81.1902L80.5221 70.6552H79.731L82.034 65.2614H82.5791L84.9701 70.6552ZM81.489 68.382H83.1592L82.2978 66.441L81.489 68.382Z" fill="#E4E4E4"/>
<path d="M86.9387 65.2911C88.0111 65.2911 88.6968 65.866 88.6968 66.7943C88.6968 67.4149 88.3803 67.879 87.8002 68.1076C88.2924 68.4293 88.5913 68.9251 88.9957 69.5932C89.2242 69.9641 89.3649 70.1435 89.7341 70.6551H88.8023L88.099 69.5545C87.3958 68.4539 87.0618 68.3274 86.675 68.3274H86.3585V70.6551H85.585V65.2911H86.9387ZM86.3585 67.6364H86.8508C87.6771 67.6364 87.9056 67.211 87.9056 66.7627C87.8881 66.2598 87.5892 65.9522 86.8508 65.9522H86.3585V67.6364Z" fill="#E4E4E4"/>
<path d="M95.3074 70.6551H94.5339V66.4796H94.5163L92.8637 68.5559H92.7406L91.088 66.4796H91.0704V70.6551H90.2969V65.2911H91.0177L92.7934 67.494L94.5866 65.2911H95.3074V70.6551Z" fill="#E4E4E4"/>
<path d="M96.7489 67.2498C96.2567 67.2498 95.8699 66.8542 95.8699 66.3655C95.8699 65.8767 96.2567 65.4829 96.7489 65.4829C97.2412 65.4829 97.6455 65.8767 97.6455 66.3655C97.6455 66.8542 97.2412 67.2498 96.7489 67.2498ZM96.7489 65.6288C96.3446 65.6288 96.0105 65.9576 96.0105 66.3655C96.0105 66.7733 96.3446 67.1039 96.7489 67.1039C97.1533 67.1039 97.4873 66.7733 97.4873 66.3655C97.4873 65.9576 97.1533 65.6288 96.7489 65.6288ZM96.3621 65.9049H96.7841C97.0302 65.9049 97.1005 66.0508 97.1005 66.1545C97.1005 66.3075 96.995 66.4182 96.8368 66.427V66.4323C96.9071 66.4604 96.9775 66.543 97.0478 66.6696L97.1709 66.8542H96.9775L96.8896 66.7065C96.7841 66.4921 96.7313 66.4516 96.6083 66.4516H96.5204V66.8542H96.3621V65.9049ZM96.7489 66.3198C96.8544 66.3198 96.9423 66.274 96.9423 66.1756C96.9423 66.0895 96.872 66.035 96.7665 66.035H96.5204V66.3198H96.7489Z" fill="#E4E4E4"/>
<path d="M98.5773 41.7787V41.9422H98.1905V43.0638H97.9971V41.9422H97.5928V41.7787H98.5773ZM99.8255 43.0638L99.7728 42.2885C99.7552 42.1883 99.7728 42.0653 99.7728 41.9404H99.7552C99.7201 42.06 99.6849 42.1954 99.6497 42.3079L99.386 43.0463H99.2278L98.9641 42.2885C98.9289 42.1848 98.9113 42.06 98.8762 41.9404H98.8586C98.8586 42.0617 98.8586 42.1725 98.8586 42.2885L98.8058 43.0638H98.63L98.718 41.7787H98.9817L99.2278 42.4749C99.2629 42.5716 99.2805 42.6788 99.3157 42.7984H99.3333C99.3509 42.6788 99.386 42.5663 99.4212 42.4731L99.6673 41.7787H99.9134L100.019 43.0638H99.8255Z" fill="#E4E4E4"/>
</g>
<defs>
<clipPath id="clip0_2336_10165">
<rect width="100" height="100" fill="white" transform="translate(0.0537109 0.125977)"/>
</clipPath>
</defs>
</svg>
