<svg width="100" height="101" viewBox="0 0 100 101" fill="none" xmlns="http://www.w3.org/2000/svg">
<path d="M81.1321 35.7059C81.1316 34.5291 80.8798 33.489 80.3706 32.5964C79.8709 31.7186 79.1218 30.9829 78.1175 30.4012C69.8262 25.6203 61.5263 20.854 53.2377 16.0682C51.0031 14.7781 48.8366 14.825 46.6183 16.1339C43.318 18.0802 26.795 27.5467 21.871 30.3985C19.8435 31.5724 18.8567 33.3688 18.8562 35.7034C18.853 45.3185 18.8562 54.9331 18.853 64.5481C18.853 65.6989 19.0946 66.719 19.5812 67.5983C20.0814 68.5026 20.8407 69.2585 21.8684 69.8533C26.7926 72.7052 43.3178 82.1711 46.6173 84.1177C48.8363 85.427 51.0031 85.474 53.2384 84.1833C61.5273 79.3973 69.8274 74.6313 78.1202 69.8504C79.1478 69.2558 79.9071 68.4994 80.4073 67.5958C80.8932 66.7166 81.1353 65.6967 81.1353 64.5452C81.1353 64.5452 81.1353 45.3209 81.1321 35.7059Z" fill="#7C7C7C"/>
<path d="M50.0886 50.0305L19.5801 67.5965C20.0805 68.5008 20.8398 69.2568 21.8675 69.8516C26.7917 72.7034 43.3169 82.1694 46.6164 84.1159C48.8355 85.4253 51.0022 85.4723 53.2375 84.1816C61.5264 79.3956 69.8265 74.6296 78.1193 69.8487C79.147 69.2541 79.9063 68.4977 80.4065 67.5941L50.0886 50.0305Z" fill="#393939"/>
<path d="M41.0537 55.2338C42.829 58.3328 46.1662 60.4231 49.9946 60.4231C53.8466 60.4231 57.2028 58.3065 58.9691 55.1739L50.09 50.0305L41.0537 55.2338Z" fill="#393939"/>
<path d="M81.1315 35.706C81.131 34.5293 80.8792 33.4892 80.37 32.5966L50.0889 50.0324L80.4067 67.596C80.8925 66.7168 81.1341 65.6969 81.1346 64.5454C81.1346 64.5454 81.1346 45.3211 81.1315 35.706Z" fill="#636363"/>
<path d="M79.4657 51.2868H77.0966V53.6564H74.7269V51.2868H72.358V48.9181H74.7269V46.549H77.0966V48.9181H79.4657V51.2868ZM49.9948 29.442C57.5697 29.442 64.1927 33.5147 67.7963 39.5894L67.9044 39.7741L58.9024 44.9578C57.1184 41.8902 53.7987 39.8259 49.9948 39.8259C44.3067 39.8259 39.6956 44.437 39.6956 50.1248C39.6937 51.9176 40.1621 53.6795 41.0539 55.2346C42.8292 58.3337 46.1664 60.424 49.9948 60.424C53.8045 60.424 57.1293 58.3536 58.9107 55.2777L58.9693 55.1748L67.9581 60.3827C64.3939 66.6102 57.6845 70.8079 49.9948 70.8079C42.3193 70.8079 35.6203 66.6269 32.0512 60.4177C30.3088 57.3865 29.3118 53.8722 29.3118 50.1248C29.3118 38.7024 38.5716 29.442 49.9948 29.442ZM68.452 46.5487V48.9179H70.8209V51.2868H68.452V53.6564H66.0829V51.2868H63.7137V48.9181H66.0829V46.549L68.452 46.5487Z" fill="#E4E4E4"/>
</svg>
