<svg width="101" height="101" viewBox="0 0 101 101" fill="none" xmlns="http://www.w3.org/2000/svg">
<g clip-path="url(#clip0_2336_10117)">
<g clip-path="url(#clip1_2336_10117)">
<path d="M97.5994 36.1349C97.5994 35.3149 96.7909 34.3405 95.3921 34.3405H5.60912C4.21033 34.3405 3.40187 35.3149 3.40187 36.1349V65.721C3.40187 66.5411 4.21033 67.5159 5.60912 67.5159H95.3921C96.7909 67.5159 97.5994 66.5411 97.5994 65.721V36.1349ZM100.501 65.721C100.501 68.5088 98.0338 70.4593 95.3921 70.4593H5.60912C2.96745 70.4593 0.500488 68.5088 0.500488 65.721V36.1349C0.500488 33.3471 2.96745 31.3966 5.60912 31.3966H95.3921C98.0338 31.3966 100.501 33.3471 100.501 36.1349V65.721Z" fill="#E4E4E4"/>
<path d="M85.6378 42.118C85.5608 41.3302 85.2304 40.7182 84.6464 40.282C84.0625 39.8458 83.2701 39.6277 82.269 39.6277C81.5889 39.6277 81.0146 39.7254 80.5462 39.9207C80.0777 40.1095 79.7184 40.3732 79.4681 40.7117C79.2243 41.0503 79.1024 41.4344 79.1024 41.8641C79.0896 42.2222 79.1633 42.5347 79.3238 42.8017C79.4906 43.0686 79.7184 43.2997 80.0071 43.495C80.2959 43.6839 80.6296 43.8499 81.0082 43.9931C81.3867 44.1298 81.791 44.247 82.2209 44.3447L83.9919 44.7744C84.8518 44.9697 85.641 45.2301 86.3597 45.5557C87.0784 45.8812 87.7008 46.2816 88.227 46.7569C88.7532 47.2322 89.1606 47.7921 89.4494 48.4366C89.7445 49.0812 89.8953 49.8202 89.9018 50.6535C89.8953 51.8775 89.5873 52.9388 88.9777 53.8372C88.3746 54.7292 87.5019 55.4226 86.3597 55.9174C85.224 56.4057 83.854 56.6499 82.2498 56.6499C80.6584 56.6499 79.2724 56.4024 78.0917 55.9076C76.9175 55.4128 75.9999 54.6804 75.339 53.7103C74.6845 52.7337 74.3412 51.526 74.3091 50.0871H78.342C78.3869 50.7577 78.5762 51.3176 78.9099 51.7668C79.25 52.2096 79.7024 52.5449 80.267 52.7727C80.8381 52.9941 81.483 53.1048 82.2017 53.1048C82.9075 53.1048 83.5203 53.0006 84.0401 52.7923C84.5662 52.5839 84.9737 52.2942 85.2625 51.9231C85.5512 51.552 85.6956 51.1255 85.6956 50.6438C85.6956 50.1945 85.564 49.8169 85.301 49.5109C85.0443 49.2049 84.6657 48.9445 84.1652 48.7296C83.6711 48.5148 83.0647 48.3194 82.346 48.1437L80.1996 47.5968C78.5377 47.1866 77.2255 46.5453 76.263 45.6729C75.3005 44.8004 74.8224 43.6253 74.8288 42.1473C74.8224 40.9363 75.1401 39.8784 75.7817 38.9734C76.4298 38.0684 77.3185 37.362 78.4479 36.8542C79.5772 36.3463 80.8606 36.0924 82.2979 36.0924C83.7609 36.0924 85.0379 36.3463 86.1287 36.8542C87.226 37.362 88.0794 38.0684 88.689 38.9734C89.2986 39.8784 89.613 40.9266 89.6323 42.118H85.6378Z" fill="#E4E4E4"/>
<path d="M71.857 46.3662C71.857 48.5473 71.4495 50.4029 70.6346 51.9329C69.8261 53.4629 68.7224 54.6315 67.3235 55.4389C65.9311 56.2397 64.3654 56.6401 62.6265 56.6401C60.8747 56.6401 59.3026 56.2364 57.9102 55.4291C56.5177 54.6218 55.4173 53.4531 54.6088 51.9231C53.8002 50.3931 53.396 48.5408 53.396 46.3662C53.396 44.1852 53.8002 42.3296 54.6088 40.7996C55.4173 39.2696 56.5177 38.1042 57.9102 37.3034C59.3026 36.4961 60.8747 36.0924 62.6265 36.0924C64.3654 36.0924 65.9311 36.4961 67.3235 37.3034C68.7224 38.1042 69.8261 39.2696 70.6346 40.7996C71.4495 42.3296 71.857 44.1852 71.857 46.3662ZM67.6315 46.3662C67.6315 44.9534 67.423 43.762 67.0059 42.7919C66.5952 41.8218 66.0145 41.0861 65.2638 40.5848C64.513 40.0835 63.6339 39.8328 62.6265 39.8328C61.619 39.8328 60.74 40.0835 59.9892 40.5848C59.2384 41.0861 58.6545 41.8218 58.2374 42.7919C57.8268 43.762 57.6214 44.9534 57.6214 46.3662C57.6214 47.7791 57.8268 48.9705 58.2374 49.9406C58.6545 50.9107 59.2384 51.6464 59.9892 52.1477C60.74 52.649 61.619 52.8997 62.6265 52.8997C63.6339 52.8997 64.513 52.649 65.2638 52.1477C66.0145 51.6464 66.5952 50.9107 67.0059 49.9406C67.423 48.9705 67.6315 47.7791 67.6315 46.3662Z" fill="#E4E4E4"/>
<path d="M35.7869 39.8523V36.3658H51.9763V39.8523H45.9414V56.3666H41.8218V39.8523H35.7869Z" fill="#E4E4E4"/>
<path d="M18.7505 56.3666V36.3658H26.5276C28.0163 36.3658 29.2868 36.636 30.3391 37.1764C31.3979 37.7103 32.2032 38.4688 32.755 39.4519C33.3133 40.4285 33.5924 41.5776 33.5924 42.8993C33.5924 44.2275 33.3101 45.3701 32.7454 46.3272C32.1807 47.2777 31.3626 48.0069 30.291 48.5148C29.2258 49.0226 27.936 49.2765 26.4217 49.2765H21.2145V45.8779H25.7479C26.5436 45.8779 27.2045 45.7673 27.7307 45.5459C28.2569 45.3245 28.6483 44.9925 28.905 44.5498C29.1681 44.107 29.2996 43.5569 29.2996 42.8993C29.2996 42.2352 29.1681 41.6753 28.905 41.2196C28.6483 40.7638 28.2537 40.4187 27.7211 40.1844C27.1949 39.9435 26.5308 39.823 25.7287 39.823H22.9182V56.3666H18.7505ZM29.3959 47.2647L34.295 56.3666H29.6942L24.9009 47.2647H29.3959Z" fill="#E4E4E4"/>
<path d="M12.7567 41.7306L13.0607 39.893C13.7248 40.1292 14.2314 40.5033 14.5807 41.0152C14.9257 41.5228 15.0982 42.1594 15.0982 42.925C15.0982 44.137 14.7079 45.0339 13.9274 45.6158C13.3022 46.0752 12.513 46.3049 11.5601 46.3049C10.4217 46.3049 9.5312 46.003 8.88869 45.3993C8.24187 44.7955 7.91846 44.032 7.91846 43.1088C7.91846 42.0719 8.25696 41.2537 8.93397 40.6543C9.60666 40.0549 10.6394 39.7683 12.0322 39.7945V44.4148C12.5713 44.4017 12.9917 44.2529 13.2935 43.9685C13.5911 43.6841 13.7399 43.3297 13.7399 42.9053C13.7399 42.6166 13.6622 42.3738 13.507 42.1769C13.3518 41.98 13.1017 41.8312 12.7567 41.7306ZM10.9197 41.6256C10.3936 41.6387 9.99475 41.7765 9.72309 42.039C9.44711 42.3016 9.30912 42.621 9.30912 42.9972C9.30912 43.3998 9.45358 43.7323 9.74249 43.9948C10.0314 44.2573 10.4238 44.3864 10.9197 44.382V41.6256Z" fill="#E4E4E4"/>
<path d="M12.7567 49.2123L13.0607 47.3747C13.7248 47.6109 14.2314 47.985 14.5807 48.4969C14.9257 49.0045 15.0982 49.6411 15.0982 50.4067C15.0982 51.6187 14.7079 52.5156 13.9274 53.0975C13.3022 53.5569 12.513 53.7866 11.5601 53.7866C10.4217 53.7866 9.5312 53.4847 8.88869 52.8809C8.24187 52.2772 7.91846 51.5137 7.91846 50.5905C7.91846 49.5535 8.25696 48.7354 8.93397 48.136C9.60666 47.5366 10.6394 47.25 12.0322 47.2762V51.8965C12.5713 51.8834 12.9917 51.7346 13.2935 51.4502C13.5911 51.1658 13.7399 50.8114 13.7399 50.387C13.7399 50.0983 13.6622 49.8554 13.507 49.6586C13.3518 49.4617 13.1017 49.3129 12.7567 49.2123ZM10.9197 49.1073C10.3936 49.1204 9.99475 49.2582 9.72309 49.5207C9.44711 49.7833 9.30912 50.1026 9.30912 50.4789C9.30912 50.8814 9.45358 51.214 9.74249 51.4765C10.0314 51.739 10.4238 51.8681 10.9197 51.8637V49.1073Z" fill="#E4E4E4"/>
<path d="M14.9429 56.7203V58.5645H8.07369V56.8515H9.05039C8.589 56.5584 8.28499 56.2959 8.13838 56.064C7.99176 55.8277 7.91846 55.5608 7.91846 55.2633C7.91846 54.8433 8.03273 54.4386 8.26127 54.0492L9.84599 54.6201C9.64763 54.9308 9.54845 55.2196 9.54845 55.4865C9.54845 55.7446 9.6196 55.9634 9.7619 56.1427C9.89989 56.3221 10.1521 56.4643 10.5187 56.5693C10.8852 56.67 11.6528 56.7203 12.8214 56.7203H14.9429Z" fill="#E4E4E4"/>
<path d="M8.07369 63.7688V62.745H7.55624C6.97841 62.745 6.54719 62.6837 6.26259 62.5612C5.97799 62.4343 5.74729 62.2046 5.57049 61.8721C5.38938 61.5352 5.29883 61.1108 5.29883 60.5989C5.29883 60.0739 5.37645 59.5598 5.53168 59.0566L6.79945 59.306C6.73046 59.5992 6.69596 59.8814 6.69596 60.1526C6.69596 60.4195 6.75849 60.612 6.88354 60.7302C7.00428 60.8439 7.23929 60.9008 7.58858 60.9008H8.07369V59.5226H9.50317V60.9008H14.9429V62.745H9.50317V63.7688H8.07369Z" fill="#E4E4E4"/>
<path d="M94.1566 61.1943H19.4211V64.0906H94.1566V61.1943Z" fill="#E4E4E4"/>
</g>
</g>
<defs>
<clipPath id="clip0_2336_10117">
<rect width="100" height="100" fill="white" transform="translate(0.500488 0.927979)"/>
</clipPath>
<clipPath id="clip1_2336_10117">
<rect width="100" height="39.0625" fill="white" transform="translate(0.500488 31.3967)"/>
</clipPath>
</defs>
</svg>
