<svg width="101" height="101" viewBox="0 0 101 101" fill="none" xmlns="http://www.w3.org/2000/svg">
<g clip-path="url(#clip0_2336_10154)">
<path d="M60.5385 43.461C58.3459 43.461 56.7131 44.5371 56.7131 47.1271C56.7131 49.0784 57.7892 50.4334 60.4202 50.4334C62.6504 50.4334 64.1653 49.1195 64.1653 47.0461C64.1653 44.6965 62.8099 43.461 60.5385 43.461ZM56.1548 61.7489C55.6357 62.3852 55.1186 63.0619 55.1186 63.8596C55.1186 65.4522 57.1502 65.9315 59.9411 65.9315C62.2524 65.9315 65.4013 65.7694 65.4013 63.6211C65.4013 62.3441 63.8864 62.2654 61.9723 62.1456L56.1548 61.7489ZM67.9516 43.5812C68.6677 44.4976 69.4261 45.773 69.4261 47.6053C69.4261 52.0271 65.9587 54.6164 60.9381 54.6164C59.6614 54.6164 58.5057 54.4574 57.7892 54.2585L56.4733 56.3691L60.3787 56.608C67.2742 57.0474 71.3379 57.2471 71.3379 62.5434C71.3379 67.1259 67.3138 69.7139 60.3787 69.7139C53.1654 69.7139 50.4153 67.8813 50.4153 64.7344C50.4153 62.9417 51.2125 61.9874 52.6075 60.6704C51.292 60.1148 50.854 59.1193 50.854 58.0428C50.854 57.1656 51.292 56.3695 52.0105 55.6118C52.7274 54.856 53.5242 54.0983 54.4809 53.2219C52.5284 52.2656 51.0531 50.1941 51.0531 47.2454C51.0531 42.6649 54.0825 39.5188 60.1789 39.5188C61.8932 39.5188 62.9297 39.6762 63.8464 39.9171H71.6187V43.302L67.9516 43.5812ZM78.6303 36.3418C76.3581 36.3418 75.043 35.0261 75.043 32.7544C75.043 30.4859 76.3577 29.2496 78.6303 29.2496C80.9416 29.2496 82.2571 30.4859 82.2571 32.7544C82.2571 35.0261 80.942 36.3418 78.6303 36.3418ZM73.4882 60.2827V57.1371L75.5214 56.859C76.0796 56.7788 76.1587 56.6597 76.1587 56.061V44.3484C76.1587 43.9113 76.0396 43.631 75.6397 43.5127L73.4882 42.755L73.9262 39.529H82.1768V56.061C82.1768 56.6993 82.2152 56.7788 82.815 56.8594L84.8474 57.1375V60.2827H73.4882ZM100.608 58.7383C98.8935 59.5744 96.3828 60.3313 94.1103 60.3313C89.3678 60.3313 87.5751 58.4211 87.5751 53.917V43.4806C87.5751 43.2417 87.5751 43.0823 87.2551 43.0823H84.4658V39.5357C87.9739 39.1362 89.3678 37.3835 89.8061 33.0411H93.5928V38.6996C93.5928 38.9776 93.5928 39.0979 93.9121 39.0979H99.5309V43.0815H93.5928V52.6024C93.5928 54.9527 94.1514 55.8683 96.3025 55.8683C97.4198 55.8683 98.5743 55.5903 99.5305 55.2316L100.608 58.7383Z" fill="#E4E4E4"/>
<path d="M41.5571 48.2844L23.3344 30.0702C23.0849 29.8206 22.7886 29.6227 22.4625 29.4876C22.1364 29.3526 21.7869 29.2831 21.4339 29.2831C21.0809 29.2831 20.7314 29.3526 20.4053 29.4876C20.0791 29.6227 19.7829 29.8206 19.5333 30.0702L15.7494 33.853L20.5495 38.6508C21.1137 38.4592 21.7204 38.4293 22.3008 38.5645C22.8811 38.6996 23.4121 38.9945 23.8335 39.4156C24.257 39.8397 24.5527 40.3742 24.6868 40.9582C24.8209 41.5422 24.788 42.1521 24.592 42.7183L29.2173 47.3427C30.3366 46.9573 31.6282 47.2068 32.5218 48.1016C32.8189 48.3983 33.0546 48.7507 33.2154 49.1386C33.3763 49.5264 33.459 49.9422 33.459 50.362C33.459 50.7819 33.3763 51.1977 33.2154 51.5855C33.0546 51.9734 32.8189 52.3258 32.5218 52.6225C31.9991 53.1455 31.3112 53.4712 30.5753 53.5443C29.8394 53.6174 29.1009 53.4332 28.4855 53.0233C27.8701 52.6133 27.4159 52.0028 27.2001 51.2957C26.9843 50.5886 27.0204 49.8287 27.3021 49.1452L22.9881 44.8329L22.9877 56.1813C23.3003 56.3362 23.5859 56.5404 23.8335 56.786C24.1306 57.0828 24.3662 57.4353 24.527 57.8232C24.6878 58.2112 24.7705 58.6269 24.7705 59.0468C24.7705 59.4667 24.6878 59.8825 24.527 60.2704C24.3662 60.6584 24.1306 61.0108 23.8335 61.3077C22.5838 62.5569 20.5585 62.5569 19.3108 61.3077C18.938 60.9354 18.6631 60.4767 18.5104 59.9726C18.3577 59.4684 18.332 58.9343 18.4356 58.4178C18.5392 57.9014 18.7688 57.4185 19.1041 57.0121C19.4394 56.6057 19.87 56.2885 20.3575 56.0885V44.6344C19.9655 44.4739 19.6096 44.2367 19.3108 43.9366C18.3643 42.9916 18.1367 41.6034 18.6217 40.4416L13.8901 35.7111L1.39567 48.1999C1.146 48.4494 0.947946 48.7457 0.812824 49.0718C0.677701 49.3978 0.608154 49.7473 0.608154 50.1003C0.608154 50.4532 0.677701 50.8027 0.812824 51.1288C0.947946 51.4548 1.146 51.7511 1.39567 52.0007L19.6183 70.2153C19.8679 70.4649 20.1642 70.6628 20.4903 70.7979C20.8164 70.9329 21.1659 71.0024 21.5189 71.0024C21.8719 71.0024 22.2214 70.9329 22.5475 70.7979C22.8736 70.6628 23.1699 70.4649 23.4195 70.2153L41.5571 52.0856C42.0611 51.5815 42.3443 50.8978 42.3443 50.185C42.3443 49.4722 42.0611 48.7886 41.5571 48.2844Z" fill="#E4E4E4"/>
</g>
<defs>
<clipPath id="clip0_2336_10154">
<rect width="100" height="100" fill="white" transform="translate(0.608154 0.125977)"/>
</clipPath>
</defs>
</svg>
