<svg width="101" height="101" viewBox="0 0 101 101" fill="none" xmlns="http://www.w3.org/2000/svg">
<path d="M71.2218 44.3188C71.2218 55.9884 61.9694 65.4575 50.5499 65.4575C39.1304 65.4575 29.8782 55.9884 29.8782 44.3188C29.8782 32.6491 39.1305 23.1801 50.5499 23.1801C61.9696 23.1801 71.2219 32.6491 71.2219 44.3188" fill="#E4E4E4"/>
<path d="M30.7284 49.5535C30.7284 49.5535 29.2281 27.5148 49.5499 26.8811L48.1329 24.5138L37.1134 28.2147L33.9627 31.8323L31.212 37.1003L29.6448 43.2352L30.1117 47.3364" fill="#636363"/>
<path d="M36.3961 29.8984C32.7787 33.616 30.528 38.7341 30.528 44.4021C30.528 50.0701 32.7787 55.1881 36.3961 58.9056C40.0303 62.6232 45.0151 64.9071 50.5497 64.9071C56.0843 64.9071 61.069 62.6232 64.7032 58.9058C68.3208 55.1881 70.5714 50.0701 70.5714 44.4021C70.5714 38.7339 68.3208 33.616 64.7032 29.8984C61.0692 26.1975 56.0845 23.8971 50.5497 23.8971C45.0317 23.8971 40.0305 26.1808 36.3961 29.8984ZM35.4793 59.7892C31.6285 55.8549 29.2444 50.4036 29.2444 44.4021C29.2444 38.4006 31.6285 32.9491 35.4793 28.9982C39.3302 25.0639 44.6649 22.6133 50.5498 22.6133C56.4348 22.6133 61.7693 25.0639 65.6202 28.9982C69.4712 32.9325 71.8551 38.3838 71.8551 44.4021C71.8551 50.4034 69.471 55.8549 65.6202 59.7892C61.7693 63.7401 56.4346 66.1741 50.5497 66.1741C44.6648 66.1741 39.3302 63.7401 35.4793 59.7892Z" fill="#191919"/>
<path d="M59.252 44.4353L56.1012 44.902L51.8502 45.3856L49.0995 45.4523L46.4155 45.369L44.3649 44.7356L42.5477 42.7681L41.1307 38.7505L40.814 37.8836L38.9303 37.2502L37.8298 35.4331L37.0464 32.8323L37.9133 30.5486L39.9639 29.8316L41.6143 30.6152L42.3977 32.3491L43.348 32.1989L43.6647 31.7989L43.348 29.9817L43.2646 27.6977L43.7314 24.547L43.7147 22.7466L45.1484 20.4461L47.6657 18.6289L52.0669 16.7451L56.9515 17.4619L61.2025 20.5294L63.1697 23.6801L64.4365 25.964L64.7534 31.6321L63.8031 36.5166L62.0692 40.8511L60.4357 43.1683" fill="#E4E4E4"/>
<path d="M56.5848 58.0556L45.332 58.5223V60.406L46.2822 67.0245L45.8153 67.5745L37.9467 64.8906L37.3967 63.9403L36.6131 55.0381L34.7626 49.7034L34.3625 48.4364L40.6641 44.1021L42.6314 43.3185L44.3651 45.4522L45.8654 46.7861L47.5993 47.3361L48.3827 47.5697L49.333 51.6706L50.0499 52.5376L51.8669 51.904L50.6 54.3544L57.435 57.5886L56.5848 58.0556Z" fill="#393939"/>
<path d="M37.9141 30.5819L39.9647 29.8652L41.6151 30.6486L42.3985 32.3825L43.3488 32.2324L43.5823 31.2822L43.1154 29.465L43.5821 25.1306L43.1821 22.7633L44.5991 21.113L47.6665 18.679L46.7995 17.4954L42.4652 19.6291L40.6482 21.0463L39.6312 23.2467L38.0641 25.3806L37.5974 27.8979L37.9141 30.5819Z" fill="#393939"/>
<path d="M41.1483 23.1794C41.1483 23.1794 42.3318 20.2621 47.0497 18.8451C51.7674 17.4281 47.2832 17.8281 47.2832 17.8281L42.165 19.7953L40.1981 21.7624L39.3311 23.3294L41.1483 23.1794ZM38.781 30.0312C38.781 30.0312 37.1305 24.5131 43.4321 23.7296L43.1987 22.7794L38.8644 23.7963L37.5974 27.8975L37.9141 30.5813L38.781 30.0312Z" fill="#E4E4E4"/>
<path d="M41.2972 37.3507L42.3306 36.3504C42.3306 36.3504 42.7975 36.4005 42.8809 36.9505C42.9642 37.5006 43.1976 42.4687 46.5818 45.136C46.8985 45.386 44.0645 44.7358 44.0645 44.7358L41.547 40.8015M55.7841 35.8502C55.7841 35.8502 55.9674 33.4663 56.6176 33.6498C57.2678 33.8331 57.2678 34.4831 57.2678 34.4831C57.2678 34.4831 55.7008 35.4835 55.7841 35.8502ZM62.3191 27.1148C62.3191 27.1148 61.0187 27.3815 60.9021 28.5318C60.7853 29.682 62.3191 28.7652 62.5524 28.6819M52.8001 27.1982C52.8001 27.1982 51.0662 27.4315 51.0662 28.5318C51.0662 29.6321 53.0334 29.5486 53.5835 29.0819M42.0973 32.3161C42.0973 32.3161 39.1134 30.4989 38.7967 32.2328C38.48 33.9667 37.7797 35.2167 39.2634 37.0339L38.2465 36.7172L37.2964 34.2832L36.9795 31.9159L38.7967 30.0322L40.8471 30.1822L42.0307 31.1325L42.0973 32.3161ZM43.5144 27.3482C43.5144 27.3482 44.8479 20.4131 51.6164 19.0794C57.1843 17.9791 60.1185 19.3129 61.2188 20.5797C61.2188 20.5797 56.2508 14.6783 51.5329 16.4787C46.8152 18.296 43.3476 21.5967 43.4309 23.714C43.5643 27.348 43.5143 27.348 43.5143 27.348M61.7688 21.3633C61.7688 21.3633 59.485 21.28 59.4015 23.3304C59.4015 23.3304 59.4015 23.6473 59.5518 23.964C59.5518 23.964 61.3688 21.9134 62.4691 23.0137" fill="#BCBCBC"/>
<path d="M51.7834 24.1806C51.7834 24.1806 51.3834 21.0465 48.716 22.8635C46.9821 24.0472 47.1488 25.6975 47.449 26.0144C47.7657 26.3311 47.6824 26.9645 47.9158 26.5312C48.1491 26.0979 48.0824 24.6807 48.9494 24.2805C49.7995 23.8805 51.2333 23.4472 51.7834 24.1806Z" fill="#DADADA"/>
<path d="M44.3818 45.4521L36.9795 48.7527C36.9795 48.7527 40.0471 60.9558 38.4799 64.7401L37.3797 64.3401L37.2964 59.6888L35.2458 50.8868L34.3789 48.4526L42.0975 43.2513L44.3818 45.4521ZM45.1318 52.2036L46.182 53.4874V58.2051H44.9318C44.9318 58.2051 44.7818 54.9044 44.7818 54.5044C44.7818 54.1043 44.9318 52.6872 44.9318 52.6872M45.1652 58.922L41.6143 59.0721L42.6313 59.789L45.1484 60.1892" fill="#7C7C7C"/>
<path d="M57.2844 58.1385L60.2016 58.0552L60.9185 65.2902L57.9345 65.6904L57.2844 58.1385Z" fill="#393939"/>
<path d="M58.0679 58.1374L62.4689 57.9039C62.4689 57.9039 64.2861 53.3361 64.2861 53.1028C64.2861 52.8692 65.8532 46.4845 65.8532 46.4845L62.3022 42.7835L61.5853 42.1501L59.7016 44.0339V51.3524L58.0679 58.1374Z" fill="#393939"/>
<path d="M60.0351 57.5885L57.2844 58.1387L57.6846 60.3393C58.7014 60.806 60.4353 59.5557 60.4353 59.5557M60.1184 43.8018L65.6366 47.9028L65.7866 46.0189L61.6189 42.1681L60.1184 43.8018Z" fill="#7C7C7C"/>
<path d="M47.8985 73.6427L46.2647 67.0244L45.4479 62.1398L45.3145 58.5222L52.6995 58.1222H57.284L56.8674 66.3908L57.5841 72.7758L57.5008 73.9594L51.5159 74.4263L47.8985 73.6427Z" fill="#E4E4E4"/>
<path d="M56.2675 58.0547C56.2675 58.0547 55.8675 66.2402 57.0511 72.0748C57.0511 72.0748 54.6839 73.5752 51.2329 73.9586L57.8514 73.7252L58.6348 73.2585L57.6847 60.3552L57.4345 57.5878" fill="#E4E4E4"/>
<path d="M61.0358 64.6731L64.1032 63.8062L69.9214 63.4894L70.7883 60.8055L69.2211 56.1543L67.4041 55.9209L64.8868 56.7045L62.4861 57.8881L61.2025 57.6546L60.2021 58.0548" fill="#E4E4E4"/>
<path d="M60.9858 63.0898C60.9858 63.0898 63.0364 62.1395 63.3531 62.2228L62.4862 57.8885L63.5031 57.4883C63.5031 57.4883 64.22 61.5894 64.22 62.0562C64.22 62.0562 68.6211 62.2895 69.0211 62.2895C69.0211 62.2895 69.9714 60.4723 69.738 58.5886L70.605 61.1059L70.6883 62.5229L69.4213 64.4066L68.0043 64.7235L65.6371 64.6402L64.8534 63.6232L62.1028 64.0232L61.2358 64.3401" fill="#E4E4E4"/>
<path d="M57.8851 57.5054L56.1513 53.1044L54.3342 50.5036C54.3342 50.5036 54.7344 49.4034 55.2845 49.4034H57.1017L58.8356 50.0368L58.6854 52.9544L57.8851 57.5054Z" fill="#E4E4E4"/>
<path d="M58.2344 56.0049C58.2344 56.0049 56.0338 51.7539 56.0338 51.1203C56.0338 51.1203 56.434 50.1701 56.9841 50.4036C57.5343 50.637 58.718 51.2705 58.718 51.2705V49.77L56.0338 49.22L54.2168 49.4533L57.2842 56.7218L57.9176 56.8052" fill="#E4E4E4"/>
<path d="M48.5989 45.6186L46.4151 45.3851L44.3645 44.7517V45.4686L45.3647 46.5689L48.5155 47.9859" fill="#E4E4E4"/>
<path d="M45.0832 45.8528C45.0832 45.8528 47.517 46.8698 48.3174 46.6364L48.4006 47.5867L46.2001 47.1198L44.8665 46.1695L45.0832 45.8528Z" fill="#E4E4E4"/>
<path d="M61.0355 49.6707C59.7019 49.6372 58.4848 49.4706 57.4345 49.1705C57.5012 48.737 57.3678 48.3203 57.4846 48.0035C57.7847 47.7867 58.268 47.7867 58.7181 47.7368C58.3347 47.5534 57.7847 47.47 57.3512 47.5868C57.3344 47.2867 57.2012 47.1033 57.1177 46.8699C57.868 46.6031 59.6351 44.8528 60.6353 45.4195C61.1189 45.7029 61.319 47.2699 61.3522 48.0535C61.3855 48.6869 61.2855 49.3205 61.0355 49.6707Z" fill="#E4E4E4"/>
<path d="M61.0355 49.6707C59.7019 49.6372 58.4848 49.4706 57.4345 49.1705C57.5012 48.737 57.3678 48.3203 57.4846 48.0035C57.7847 47.7867 58.268 47.7867 58.7181 47.7368C58.3347 47.5534 57.7847 47.47 57.3512 47.5868C57.3344 47.2867 57.2012 47.1033 57.1177 46.8699C57.868 46.6031 59.6351 44.8528 60.6353 45.4195C61.1189 45.7029 61.319 47.2699 61.3522 48.0535C61.3855 48.6869 61.2855 49.3205 61.0355 49.6707Z" fill="#191919" stroke="#E4E4E4" stroke-width="2"/>
<path d="M54.6499 47.4862C54.6499 47.5864 54.6499 47.6861 54.6331 47.7863C54.2165 48.0531 53.5495 48.0531 53.0827 48.2865C53.7497 48.3197 54.2832 48.4864 54.7499 48.7031C54.7331 48.9533 54.7331 49.2201 54.7166 49.4701C53.9497 49.9869 53.2496 50.7705 52.3494 51.2705C51.9159 51.504 50.4322 52.1042 49.9821 51.9874C49.7319 51.9207 49.6987 51.604 49.5987 51.3039C49.382 50.6705 48.8818 49.6368 48.8317 48.6699C48.7817 47.453 48.6484 45.4024 49.9653 45.6524C51.0322 45.8525 52.2659 46.336 53.0827 46.7861C53.5995 47.0862 53.883 47.4195 54.6499 47.4862Z" fill="#E4E4E4"/>
<path d="M54.6499 47.4862C54.6499 47.5864 54.6499 47.6861 54.6331 47.7863C54.2165 48.0531 53.5495 48.0531 53.0827 48.2865C53.7497 48.3197 54.2832 48.4864 54.7499 48.7031C54.7331 48.9533 54.7331 49.2201 54.7166 49.4701C53.9497 49.9869 53.2496 50.7705 52.3494 51.2705C51.9159 51.504 50.4322 52.1042 49.9821 51.9874C49.7319 51.9207 49.6987 51.604 49.5987 51.3039C49.382 50.6705 48.8818 49.6368 48.8317 48.6699C48.7817 47.453 48.6484 45.4024 49.9653 45.6524C51.0322 45.8525 52.2659 46.336 53.0827 46.7861C53.5995 47.0862 53.883 47.4195 54.6499 47.4862Z" fill="#191919" stroke="#E4E4E4" stroke-width="2"/>
<path d="M55.4014 48.9367C55.2846 48.2697 55.1512 48.0865 55.2013 47.5029C56.985 46.3192 57.3019 49.5368 55.4014 48.9367Z" fill="#E4E4E4"/>
<path d="M55.4014 48.9367C55.2846 48.2697 55.1512 48.0865 55.2013 47.5029C56.985 46.3192 57.3019 49.5368 55.4014 48.9367Z" fill="#191919" stroke="#E4E4E4" stroke-width="2"/>
<path d="M57.9682 49.4706C57.9682 49.4706 57.4181 48.687 57.8181 48.4537C58.2182 48.2203 58.6017 48.4537 58.8351 48.0536C59.0687 47.6534 58.8351 47.4202 58.9185 46.9533C59.0018 46.4866 59.3852 46.4033 59.7854 46.3199C60.1854 46.2364 61.2857 46.0864 61.4358 46.47L60.969 45.0528L60.0188 44.7361L57.0347 46.47L56.8847 47.3369V49.0706M49.6995 52.0713C49.5996 50.8376 49.4996 49.6207 49.3995 48.387C49.2328 46.5533 49.8329 46.8698 51.4332 46.8698C51.6834 46.8698 52.9336 47.1534 53.0171 47.3369C53.4505 48.2203 52.3002 48.0202 53.5171 48.687C54.534 49.2373 56.3512 48.3537 55.9344 47.1034C55.7009 46.8199 54.7341 47.02 54.384 46.8366L52.5335 45.8865C51.7501 45.4863 49.9495 44.8861 49.116 45.453C46.9988 46.8866 49.2494 50.4876 49.9996 51.9879" fill="#636363"/>
<path d="M51.7844 24.18C49.6338 23.6799 48.567 25.0803 47.9168 26.5305C47.3333 26.3973 47.5666 25.5971 47.7168 25.197C48.1001 24.1468 49.6506 22.7296 50.9174 22.9297C51.4509 22.9964 52.1844 23.4966 51.7844 24.18ZM62.237 26.6139H62.337C62.8205 27.6142 63.2372 28.6812 63.8541 29.5814C63.4374 30.5483 60.7533 31.3818 60.7866 29.6814C61.3701 29.4314 62.3704 29.6313 62.8872 29.298C62.5871 28.4811 62.1703 27.7807 62.237 26.6139ZM52.868 26.6475C53.3348 27.4976 53.4846 28.3812 54.1348 29.0147C54.4351 29.298 55.0018 29.6481 54.7185 30.4482C54.6518 30.6317 54.1683 31.0485 53.8848 31.1318C52.868 31.4319 50.484 31.1985 51.2842 29.9148C52.1343 29.9482 53.2681 30.465 53.9016 29.8481C53.4181 29.0813 52.5512 27.5475 52.868 26.6475ZM61.8536 35.216C60.3198 36.1997 58.6026 37.2834 56.0688 37.0332C55.5354 36.5665 55.3186 35.5161 55.8521 34.8328C56.1187 35.2995 55.952 36.1664 56.719 36.2997C58.1527 36.5498 59.8197 35.4161 60.8533 35.0329C61.4867 33.9492 60.8034 33.5658 60.2199 32.8655C59.0362 31.4485 57.4692 29.6814 57.5191 27.5643C58.0026 27.2142 58.0359 28.0977 58.1026 28.2478C58.7194 29.6814 60.2699 31.5319 61.3867 32.7656C61.6701 33.0656 62.1202 33.3657 62.1703 33.5658C62.3203 34.1325 61.7869 34.8324 61.8536 35.216ZM41.5483 34.1826C41.0649 33.8991 40.9483 32.6989 40.3815 32.6654C39.5646 32.6155 39.7146 34.2326 39.7146 35.1827C39.1646 34.6827 39.0644 33.1155 39.4646 32.3155C38.9979 32.0819 38.7976 32.5655 38.531 32.7321C38.8811 30.315 42.0817 31.6152 41.5483 34.1826ZM62.8205 36.233C62.1036 37.6001 61.0866 39.1004 58.9862 39.1505C58.9361 38.717 58.9028 38.0335 58.9862 37.7667C60.6033 37.6001 61.6034 36.7832 62.8205 36.233ZM52.7513 37.1165C54.0849 37.8168 56.5522 37.9001 58.386 37.8501C58.486 38.2503 58.486 38.7503 58.486 39.2338C56.1355 39.3338 53.368 38.7503 52.7513 37.1165ZM52.5013 38.4169C53.4347 40.7508 56.6189 40.4842 59.3029 40.4175C59.1863 40.7175 58.9361 41.0843 58.6028 41.2009C57.7358 41.551 55.3685 41.8178 54.1683 41.1843C53.4181 40.7842 52.9179 39.8672 52.5013 39.3338C52.3178 39.0838 51.3176 38.4336 52.5013 38.4169Z" fill="#191919"/>
<path d="M61.7357 51.2693C60.652 53.1364 59.602 55.0536 58.3184 56.6873C58.8516 55.1036 59.085 52.4363 59.1685 50.4025C60.3021 49.8689 61.269 50.519 61.7357 51.2693Z" fill="#7C7C7C"/>
<path d="M67.5871 57.9723C66.3702 58.2223 65.5198 59.4059 64.3196 59.3226C64.9864 58.4056 66.12 58.0056 67.5871 57.9723ZM68.1205 59.8727C67.1203 59.9728 65.9533 60.1395 64.9531 60.0561C65.4365 59.3226 67.2704 59.5892 68.1205 59.8727ZM68.4706 61.5232C67.3537 61.5398 65.9699 61.5232 64.9031 61.4397C65.5365 60.7562 67.7537 61.1897 68.4706 61.5232Z" fill="#191919"/>
<path d="M59.6362 66.0233C59.8029 67.4236 60.3531 68.8408 60.2864 70.3744C59.6695 70.5743 59.3195 70.7578 58.4858 70.7578C58.4359 69.4574 58.2524 67.4571 58.3025 66.2067C58.7026 66.24 59.3027 65.9233 59.6362 66.0233Z" fill="#E4E4E4"/>
<path d="M57.8335 45.351C57.2667 45.7176 56.7999 46.1677 56.2497 46.5679C55.0494 46.6346 54.3992 46.4846 53.5325 45.8011C53.5491 45.751 53.6324 45.7677 53.6324 45.701C54.916 46.2678 56.5498 45.4678 57.8335 45.351Z" fill="#E4E4E4"/>
<path d="M51.1335 54.07C51.4837 52.5529 52.8674 51.7528 54.1176 50.9193C55.4012 52.553 56.1848 54.6535 57.0517 56.6873C55.0012 56.0705 52.9173 55.087 51.1335 54.07Z" fill="#7C7C7C"/>
<path d="M58.301 66.2239C58.251 67.4742 58.4176 69.4581 58.4843 70.7749C59.318 70.7749 59.668 70.5916 60.2849 70.3915C60.3516 68.8578 59.8014 67.4408 59.6347 66.0404C59.3012 65.9238 58.7011 66.2405 58.301 66.2239ZM45.4311 59.1555C45.9813 64.1733 46.7647 68.3742 48.215 72.8255C51.4326 73.8091 55.3002 73.8924 58.151 73.0088C57.6342 70.5083 57.8509 67.4576 57.5509 64.7734C57.3173 62.7563 57.4341 60.7392 57.1174 58.6886C53.6665 57.9719 48.7987 58.5219 45.4311 59.1555ZM57.9343 58.722C57.9008 60.8726 58.0342 63.0063 58.2011 65.1568C59.0344 65.0402 59.5846 64.9569 60.3516 64.7734C60.1014 62.7062 60.1349 60.3558 59.6181 58.5219C59.0346 58.5387 58.5176 58.5221 57.9343 58.722ZM62.1186 58.3717C61.7185 58.2884 61.2684 58.3717 60.9017 58.3717C61.085 60.1222 61.5018 62.056 61.6518 63.9065C62.2353 63.9231 62.552 63.6397 63.0356 63.5564C63.0688 61.9393 62.9022 59.7054 62.1186 58.3717ZM68.4702 64.1731C69.7039 63.8731 70.4707 62.3727 70.1206 60.8223C69.8872 59.7887 69.4872 57.8216 69.0369 57.1546C68.7202 56.6713 67.8367 56.0211 67.1199 56.4712C65.9696 57.2047 63.9524 57.4214 63.1189 58.305C63.5356 59.7054 63.669 61.6059 63.8356 63.3729C65.2695 63.4564 67.0198 62.973 68.2202 63.4897C67.3866 63.7565 66.3197 63.7565 65.6028 64.1565C66.2029 64.4399 67.57 64.39 68.4702 64.1733M57.0341 56.6881C56.1671 54.6543 55.3837 52.5538 54.0999 50.9201C52.8496 51.7534 51.4827 52.5538 51.1159 54.0708C52.9163 55.0878 55.0003 56.0713 57.0341 56.6881ZM59.1678 50.4033C59.0845 52.4371 58.8511 55.1044 58.3177 56.6881C59.6013 55.0377 60.6517 53.1372 61.7352 51.2701C61.2684 50.5199 60.3015 49.8697 59.168 50.4031M56.7508 49.553C56.2673 49.5028 55.8506 50.1197 55.217 49.8529C55.067 50.0196 54.9336 50.1864 54.7836 50.3531C56.1839 52.0533 56.8341 54.4542 57.9178 56.4379C58.5013 54.5209 58.4346 52.4369 58.568 50.3531C57.7678 50.3863 57.3177 49.6029 56.7508 49.5528M55.2004 47.5021C55.1503 48.0856 55.2837 48.2691 55.4003 48.9359C57.3009 49.536 56.9842 46.3185 55.2004 47.5021ZM53.0831 46.802C52.2663 46.3517 51.0327 45.8684 49.9657 45.6684C48.6488 45.4183 48.782 47.4688 48.8321 48.6859C48.8822 49.6526 49.3823 50.6696 49.5991 51.3198C49.699 51.6199 49.7323 51.9366 49.9825 52.0033C50.4326 52.1034 51.9329 51.5199 52.3498 51.2864C53.25 50.803 53.9501 50.0196 54.717 49.486C54.7337 49.236 54.7337 48.9692 54.7503 48.7192C54.2836 48.4856 53.7668 48.3358 53.0831 48.3025C53.5334 48.069 54.2169 48.069 54.6335 47.8023C54.6335 47.7022 54.6335 47.6022 54.6503 47.5021C53.8834 47.4188 53.5999 47.0854 53.0831 46.802ZM45.2479 45.385C44.5645 46.0851 47.1649 47.0187 47.982 47.0688C47.982 46.6353 48.232 46.2187 48.1819 45.9018C47.1984 45.7351 45.9148 45.8517 45.2479 45.385ZM53.6502 45.7017C53.6502 45.7684 53.5667 45.7517 53.55 45.8018C54.4336 46.4853 55.0836 46.6352 56.2673 46.5686C56.8009 46.1852 57.2842 45.7185 57.8511 45.3515C56.5507 45.4683 54.917 46.2686 53.65 45.7017M61.3518 48.036C61.3185 47.2691 61.1182 45.6854 60.6349 45.402C59.6347 44.8185 57.8676 46.5856 57.1174 46.8524C57.2007 47.0858 57.3341 47.2691 57.3508 47.5691C57.801 47.4525 58.3343 47.5359 58.7177 47.7192C58.2676 47.7692 57.7842 47.7692 57.4842 47.986C57.384 48.3027 57.5174 48.7195 57.4341 49.153C58.4843 49.453 59.7014 49.6031 61.0351 49.653C61.2851 49.3196 61.385 48.6861 61.3518 48.036ZM44.0974 46.0522C43.8807 45.9021 42.4304 44.0182 42.2303 44.1015C39.613 45.1353 37.1624 46.9191 34.9784 48.6194C37.0623 53.1039 37.9126 58.5886 38.0626 63.8732C40.4467 64.9902 42.547 66.6073 45.7978 66.7739C45.4144 64.1234 45.0811 61.7393 44.8644 59.2387C44.0475 58.8887 42.8805 59.2555 42.1137 59.1387C42.1137 58.2219 43.2805 58.7387 43.3805 58.1219C43.4474 57.655 42.7303 57.6217 42.9638 56.8882C43.564 57.1049 43.8807 57.5883 44.5142 57.7717C45.0977 56.5048 44.5142 54.2543 44.5976 53.1872C44.6144 52.9873 44.6975 52.0869 45.1476 52.237C45.5478 52.3704 45.131 54.6543 45.1644 55.6545C45.1977 56.5881 45.0477 57.4717 45.4311 58.0552C48.5653 57.6217 51.7495 57.3549 55.1502 57.2549C54.4 56.9382 53.5164 56.6382 52.5495 56.0879C52.0161 55.7879 50.3657 55.1711 50.2157 54.6709C49.9655 53.8707 50.8491 53.454 50.9991 52.7704C49.4154 53.6373 49.1154 51.9371 48.732 50.7533C48.3985 49.6696 48.1985 48.8529 48.1152 48.236C46.7315 47.5359 45.2644 46.8857 44.0974 46.0522ZM59.968 44.3183C62.152 43.2682 62.552 48.2694 61.6851 49.8865C61.8185 50.3699 62.2686 50.5533 62.4521 50.9866C61.235 53.1706 59.8849 55.2044 58.6344 57.3549C59.5514 56.7714 60.885 57.2549 61.9685 56.8215C62.3687 56.6714 62.6522 55.7546 62.9522 55.0211C63.7856 53.0206 64.6525 50.4865 65.0361 48.5863C65.1194 48.1528 65.3694 47.2024 65.3027 46.819C65.2028 46.1189 64.2691 45.6021 63.7856 45.1852C62.9022 44.385 62.3519 43.7017 61.4183 42.9513C61.0683 43.5016 60.2681 43.8682 59.968 44.3185M39.1129 24.9636C38.0792 26.114 38.296 28.2479 38.4128 29.7815C40.2965 28.598 42.7805 29.8816 42.7637 31.8821C43.6639 31.8653 43.0972 30.7652 42.9306 30.0483C42.397 27.7311 43.8308 25.2304 42.9971 23.1133C41.3802 23.2465 40.0631 23.8966 39.1129 24.9636ZM46.548 18.3122C44.1975 18.9791 41.1801 20.6961 40.2132 22.8132C40.9633 22.6966 41.4801 22.3299 42.2137 22.2798C42.4971 22.2632 42.8639 22.3966 43.1806 22.3132C43.814 22.1466 44.3642 20.7128 44.8476 20.1793C45.3145 19.6625 45.8812 19.4292 46.2647 18.9624C46.5147 18.8457 46.8813 18.8457 46.8981 18.4789C46.7982 18.3621 46.6814 18.279 46.548 18.3122ZM58.801 18.9456C56.3506 17.5621 52.2162 16.5285 49.6155 17.8287C47.5149 18.8789 44.6811 20.6126 43.714 22.7968C44.6142 24.9137 43.4474 26.8475 43.3639 28.998C43.3306 30.1484 43.8975 31.1321 43.9474 32.3825C43.6307 32.8993 42.697 32.9492 42.047 32.9159C41.8303 31.8154 41.4469 30.5819 40.3131 30.4485C38.7128 30.2652 37.5292 31.5989 37.4625 32.9826C37.3791 34.6163 38.7128 37.3169 40.6132 37.1336C41.3467 37.0669 41.5302 36.3334 42.3303 36.3334C42.7637 37.2003 41.6636 37.467 41.5468 38.0837C41.5134 38.2506 41.6302 38.8673 41.7135 39.1674C42.0636 40.5844 42.8304 42.4349 43.5806 43.5186C44.5475 44.9021 46.4314 45.1022 48.4652 45.2356C48.8319 44.452 50.1656 44.5187 51.0324 44.7188C49.9823 44.3022 49.0154 43.3018 48.2152 42.4182C47.2982 41.4013 46.3647 40.3178 46.3146 38.9841C48.0651 41.4013 49.4988 43.5186 52.6663 44.5856C55.0668 45.3857 57.8676 44.2187 59.718 42.9184C60.4848 42.3848 60.9349 41.518 61.4852 40.7511C63.5189 37.8171 64.4692 33.6493 64.2691 29.5984C64.1858 27.9313 64.1858 26.2642 63.6189 25.1472C63.0356 23.9802 61.0517 22.9134 59.8847 23.9802C59.668 22.83 60.8516 22.1298 62.2352 22.5466C61.2518 21.263 60.2182 19.7459 58.801 18.9456ZM63.3689 56.6385C65.2861 55.6882 68.8536 54.0878 70.0373 56.6385C70.4875 57.5886 71.0042 59.1725 71.2209 60.156C71.5376 61.5231 70.8708 64.4238 69.4538 64.8737C68.2034 65.2739 66.7532 65.2573 65.2528 64.9572C65.0694 64.8072 64.8861 64.557 64.736 64.2902C63.6692 64.257 62.6522 64.3405 61.8185 64.7906C61.9018 65.5906 61.3684 65.7074 60.8516 65.8742C60.4848 67.3578 61.6018 69.2916 61.3351 70.6252C61.1517 71.5921 59.968 71.7422 59.1013 71.9089C59.0678 72.4425 59.1345 72.8926 59.2012 73.3427C59.0013 74.0762 58.1176 74.4929 57.2674 74.593C54.4835 74.9263 50.2657 75.0764 47.5984 74.1095C46.8481 72.2758 46.2647 70.0585 45.6478 67.9747C43.0472 68.258 40.9301 66.8576 38.9462 65.9241C38.2627 65.6074 37.3124 65.424 37.0456 64.8739C36.7956 64.3405 36.8956 63.3235 36.8289 62.3732C36.6789 59.9226 36.5288 57.5553 35.8954 55.0547C35.612 53.9211 35.0952 52.9376 34.7451 51.8541C34.4117 50.8537 33.8449 49.6034 33.6948 48.6031C33.4781 47.1195 34.8785 47.036 35.762 46.3858C37.1458 45.3857 38.2293 44.8354 39.7296 43.9352C40.1799 43.6686 41.5134 43.0017 41.6634 42.6849C41.9637 42.0683 41.1468 41.2013 40.9301 40.7178C40.5799 39.951 40.3965 39.3008 40.3466 38.5505C39.0962 38.3505 38.1293 37.6004 37.5626 36.7669C36.6122 35.3665 35.9453 32.7825 36.779 30.8321C36.8457 30.682 37.1624 30.3652 37.2125 30.1318C37.3124 29.6651 37.029 29.0481 37.0124 28.5481C36.929 25.9974 37.4458 23.7968 39.1629 23.03C39.863 20.246 42.3635 19.3292 44.7143 17.9455C45.5979 17.4287 46.5648 17.0953 47.565 16.7284C51.1491 15.4115 56.6673 15.6615 59.6513 17.912C60.9183 18.8623 62.9354 20.8794 63.6523 22.3465C65.5694 26.1975 65.4195 32.6491 64.0858 37.3504C63.9023 37.9838 63.6523 38.9006 63.2856 39.6676C63.0356 40.201 62.252 41.2512 62.3353 41.718C62.4354 42.2015 64.1359 43.4851 64.5027 43.8353C65.1529 44.4687 66.403 45.3023 66.503 46.1026C66.6198 46.9527 66.1364 48.1197 65.8864 48.9366C65.086 51.6706 64.2859 54.1879 63.3689 56.6385Z" fill="#191919"/>
<path d="M50.617 37.7002C50.7169 37.5668 51.2836 37.3503 52.0839 37.7337C52.0839 37.7337 51.1336 37.8837 51.2169 39.4675L50.8169 39.384C50.8337 39.4008 50.4169 37.967 50.617 37.7002Z" fill="#DADADA"/>
<path d="M57.5173 51.2366C57.5173 51.4699 57.3174 51.67 57.0839 51.67C56.8505 51.67 56.6504 51.4699 56.6504 51.2366C56.6504 51.0032 56.8505 50.8031 57.0839 50.8031C57.334 50.8031 57.5173 51.003 57.5173 51.2366ZM57.9508 53.2537C57.9508 53.4872 57.7509 53.6872 57.5173 53.6872C57.284 53.6872 57.0839 53.4872 57.0839 53.2537C57.0839 53.0202 57.284 52.8202 57.5173 52.8202C57.7675 52.8202 57.9508 53.0037 57.9508 53.2537Z" fill="#191919"/>
<path d="M35.2461 78.7595C35.1127 78.7763 34.996 78.793 34.896 78.8096C34.796 78.8264 34.696 78.8428 34.5625 78.8763C34.4124 78.9095 34.3291 78.9762 34.2958 79.0762C34.2624 79.1763 34.2291 79.2763 34.2291 79.4097V83.4772C34.2292 83.8349 34.1494 84.1881 33.9956 84.511C33.8457 84.8277 33.6456 85.0777 33.379 85.2944C33.1122 85.4945 32.8121 85.6612 32.4786 85.7613C32.1453 85.8613 31.7952 85.928 31.4286 85.928C30.7784 85.928 30.2614 85.778 29.8614 85.4613C29.4613 85.1446 29.2612 84.7277 29.2612 84.1777C29.2612 83.8608 29.3446 83.594 29.528 83.3773C29.7113 83.1605 29.9615 83.0606 30.2782 83.0606C30.5783 83.0606 30.8116 83.1439 30.9949 83.3274C31.1784 83.5107 31.2617 83.7274 31.2617 83.9776C31.2617 84.1943 31.1784 84.411 31.0282 84.5942C30.8783 84.7776 30.6949 84.9611 30.4949 85.1111V85.1778C30.5282 85.2445 30.5949 85.3112 30.6949 85.3611C30.795 85.4112 30.9116 85.4278 31.0117 85.4278C31.4284 85.4278 31.7619 85.2778 31.9953 84.9777C32.2287 84.6777 32.3454 84.2276 32.3454 83.6274V79.4598C32.3454 79.343 32.3286 79.2262 32.2953 79.1429C32.2619 79.0596 32.1619 78.9929 32.0119 78.9262C31.9119 78.8763 31.7784 78.8428 31.6285 78.8096C31.4785 78.7761 31.3617 78.7595 31.2617 78.7429V78.3428H35.196V78.7595H35.2461ZM41.4143 84.4944C41.2975 84.6943 41.1475 84.8778 40.9808 85.0611C40.8142 85.2444 40.6141 85.3778 40.3973 85.5113C40.1639 85.6446 39.9305 85.7446 39.6972 85.8112C39.4637 85.8779 39.1804 85.9114 38.8804 85.9114C38.3636 85.9114 37.9301 85.8447 37.5467 85.6946C37.1799 85.5446 36.8632 85.3611 36.6297 85.1111C36.3797 84.861 36.213 84.5777 36.0796 84.2442C35.9582 83.8958 35.8962 83.5295 35.8961 83.1605C35.8961 82.8106 35.9628 82.4604 36.0962 82.1437C36.2296 81.827 36.4129 81.527 36.6465 81.2768C36.8799 81.0268 37.18 80.8267 37.5467 80.6767C37.9276 80.521 38.3354 80.4416 38.747 80.4431C39.2303 80.4431 39.6305 80.51 39.9472 80.6266C40.2639 80.7432 40.5141 80.91 40.714 81.1101C40.9141 81.3101 41.0475 81.5436 41.1475 81.8102C41.2308 82.077 41.2809 82.3605 41.2809 82.6604V82.9939H37.7634C37.7634 83.7108 37.8967 84.2442 38.1801 84.611C38.4469 84.9777 38.897 85.1612 39.4805 85.1612C39.8138 85.1612 40.0973 85.0777 40.3641 84.8944C40.6304 84.7142 40.8573 84.4817 41.0309 84.2109L41.4143 84.4944ZM39.4304 82.5105C39.4304 82.3106 39.4136 82.0938 39.3972 81.8771C39.3804 81.6604 39.3471 81.4769 39.2804 81.3435C39.2137 81.1768 39.147 81.0601 39.0304 80.9767C38.9303 80.8934 38.7969 80.8601 38.647 80.8601C38.3802 80.8601 38.1635 80.9934 38.0134 81.26C37.8468 81.527 37.7634 81.9603 37.7466 82.5438L39.4304 82.5105ZM48.7661 85.7279H45.632V85.3445C45.6987 85.3445 45.7821 85.3277 45.8654 85.3112C45.9654 85.2944 46.0321 85.2778 46.0821 85.2612C46.1488 85.2277 46.1987 85.1612 46.2322 85.0945C46.2654 85.0278 46.2822 84.911 46.2822 84.7776V82.3438C46.2822 81.9937 46.2155 81.7269 46.0821 81.5436C45.9487 81.3601 45.7654 81.2768 45.4986 81.2768C45.3652 81.2768 45.2318 81.2936 45.1152 81.3435C44.9985 81.3768 44.8817 81.4435 44.7651 81.527C44.6651 81.5935 44.5818 81.6602 44.5151 81.7437C44.4483 81.8102 44.3983 81.8769 44.3651 81.9436V84.7276C44.3651 84.8443 44.3817 84.9444 44.415 85.0278C44.4484 85.1111 44.5151 85.1778 44.5818 85.2111C44.6423 85.2518 44.7103 85.2801 44.7817 85.2944L45.0319 85.3445V85.7279H41.8644V85.3445C41.9477 85.3445 42.0311 85.3277 42.1312 85.3112C42.2145 85.2944 42.2979 85.2778 42.3646 85.2612C42.4812 85.2277 42.5479 85.1612 42.5979 85.0777C42.6312 84.9944 42.6646 84.8944 42.6646 84.761V81.7269C42.6646 81.6269 42.6312 81.5102 42.5813 81.4102C42.5312 81.3102 42.4479 81.2267 42.3646 81.1602C42.2979 81.1268 42.2312 81.0767 42.131 81.0601C42.0289 81.0261 41.9219 81.0092 41.8143 81.0102V80.6266L44.2984 80.4934L44.3817 80.5767V81.3269H44.3985C44.52 81.2268 44.6368 81.1211 44.7485 81.0102C44.8712 80.9038 44.9991 80.8035 45.1319 80.7099C45.2653 80.6266 45.4319 80.5599 45.632 80.4932C45.832 80.4267 46.0655 80.4099 46.2989 80.4099C46.8656 80.4099 47.2824 80.5767 47.5657 80.8934C47.8493 81.2101 47.9825 81.6436 47.9825 82.177V84.7279C47.9825 84.8612 47.9992 84.9612 48.0326 85.028C48.066 85.1113 48.1493 85.1614 48.2493 85.2113C48.2994 85.2281 48.3661 85.2613 48.4492 85.278C48.5327 85.2948 48.6161 85.3114 48.7328 85.328V85.7281L48.7661 85.7279ZM55.9346 85.7279H53.484C53.2256 85.2661 52.9474 84.8156 52.6504 84.3776C52.4004 84.0108 52.167 83.6607 51.9503 83.3606L51.6502 83.6274V84.761C51.6502 84.8778 51.667 84.9945 51.7002 85.0611C51.7335 85.1444 51.8002 85.1945 51.917 85.2445C51.9835 85.2778 52.0502 85.2944 52.1337 85.3112C52.2171 85.3279 52.3004 85.3445 52.3837 85.3445V85.7279H49.1495V85.3445C49.2328 85.3445 49.3162 85.3277 49.4163 85.3112C49.4996 85.2944 49.583 85.2778 49.6497 85.2612C49.7664 85.2277 49.833 85.1612 49.8832 85.0777C49.9165 84.9944 49.9497 84.8944 49.9497 84.761V78.9596C49.9497 78.8428 49.9165 78.726 49.8664 78.6094C49.8163 78.4929 49.7496 78.3927 49.6497 78.326C49.583 78.2928 49.483 78.2427 49.3496 78.2261C49.2162 78.1928 49.0996 78.176 48.9828 78.176V77.7926L51.5669 77.6592L51.6502 77.7425V83.1105C51.9002 82.8773 52.2002 82.6105 52.5171 82.3104C52.8338 82.0103 53.1005 81.7603 53.2839 81.5602C53.4007 81.4435 53.4672 81.3603 53.4672 81.2934C53.484 81.2267 53.484 81.1935 53.484 81.1768C53.484 81.1101 53.434 81.0601 53.3172 81.0268C53.2006 80.9934 53.0506 80.9435 52.8172 80.91V80.5433H55.4511V80.91C55.101 81.0102 54.8343 81.0935 54.6509 81.1768C54.4676 81.2602 54.2675 81.3768 54.0507 81.5102C53.909 81.6062 53.7701 81.7063 53.6341 81.8102C53.5007 81.9104 53.3506 82.0438 53.1672 82.1936C53.5007 82.6938 53.8174 83.1439 54.1008 83.5607C54.3842 83.9774 54.6843 84.4277 55.001 84.8944C55.101 85.0611 55.2345 85.1612 55.401 85.2277C55.5679 85.2778 55.7179 85.3112 55.8846 85.3279V85.7279H55.9346ZM59.2688 85.7279H55.9845V85.3445C56.0679 85.3445 56.168 85.3277 56.2513 85.3112C56.3347 85.2944 56.418 85.2778 56.4681 85.2612C56.5847 85.2277 56.6514 85.1612 56.7014 85.0777C56.7515 84.9944 56.7681 84.8944 56.7681 84.761V81.7269C56.7681 81.6103 56.7347 81.4935 56.6848 81.4102C56.6412 81.3196 56.5716 81.2442 56.4849 81.1935C56.418 81.1602 56.3347 81.1101 56.2013 81.0767C56.0679 81.0433 55.9513 81.0102 55.8513 81.0102V80.6266L58.4019 80.4934L58.4852 80.5767V84.7109C58.4852 84.8277 58.5186 84.9277 58.5685 85.0278C58.6186 85.1111 58.7019 85.1778 58.7853 85.2111C58.8592 85.2489 58.9377 85.2769 59.0188 85.2944C59.102 85.3112 59.1855 85.3279 59.2854 85.3445V85.7279H59.2688ZM58.5186 78.6429C58.5186 78.9095 58.4185 79.1263 58.2184 79.3097C58.0185 79.493 57.7683 79.593 57.5017 79.593C57.2182 79.593 56.9849 79.493 56.7681 79.3097C56.5682 79.1263 56.4681 78.8929 56.4681 78.6427C56.4681 78.3761 56.568 78.1593 56.7681 77.9592C56.9681 77.7759 57.2182 77.676 57.5017 77.676C57.7851 77.676 58.0185 77.7759 58.2184 77.9592C58.4185 78.1427 58.5186 78.3761 58.5186 78.6429ZM66.6206 85.7279H63.4864V85.3445C63.5529 85.3445 63.6364 85.3277 63.7197 85.3112C63.8197 85.2944 63.8864 85.2778 63.9365 85.2612C64.003 85.2277 64.0531 85.1612 64.0865 85.0945C64.1198 85.0278 64.1364 84.911 64.1364 84.7776V82.3438C64.1364 81.9937 64.0698 81.7269 63.9365 81.5436C63.8031 81.3601 63.6196 81.2768 63.353 81.2768C63.2196 81.2768 63.0862 81.2936 62.9696 81.3435C62.8528 81.3936 62.736 81.4435 62.6194 81.527C62.5193 81.5935 62.436 81.6602 62.3693 81.7437C62.3027 81.8102 62.2527 81.8769 62.2192 81.9436V84.7276C62.2192 84.8443 62.2359 84.9444 62.2693 85.0278C62.3027 85.1111 62.3693 85.1778 62.436 85.2111C62.486 85.2445 62.5527 85.2778 62.6361 85.2944L62.8861 85.3445V85.7279H59.7187V85.3445C59.8021 85.3445 59.8854 85.3277 59.9854 85.3112C60.0687 85.2944 60.1522 85.2778 60.2189 85.2612C60.3355 85.2277 60.402 85.1612 60.4523 85.0777C60.4855 84.9944 60.519 84.8944 60.519 84.761V81.7269C60.519 81.6269 60.4855 81.5102 60.4355 81.4102C60.3856 81.3102 60.3022 81.2267 60.2187 81.1602C60.1522 81.1268 60.0855 81.0767 59.9854 81.0601C59.8833 81.0261 59.7763 81.0092 59.6687 81.0102V80.6266L62.1527 80.4934L62.236 80.5767V81.3269H62.2527C62.3743 81.2268 62.4911 81.1211 62.6028 81.0102C62.7255 80.9038 62.8535 80.8035 62.9862 80.7099C63.1196 80.6266 63.2863 80.5599 63.4864 80.4932C63.6863 80.4267 63.9198 80.4099 64.1532 80.4099C64.7199 80.4099 65.1367 80.5767 65.42 80.8934C65.7034 81.2101 65.8368 81.6436 65.8368 82.177V84.7279C65.8368 84.8612 65.8535 84.9612 65.8869 85.028C65.9202 85.1113 66.0035 85.1614 66.1036 85.2113C66.1535 85.2281 66.2202 85.2613 66.3036 85.278C66.3871 85.2948 66.4704 85.3114 66.587 85.328V85.7281L66.6206 85.7279ZM69.5045 85.9114C69.1712 85.9114 68.8379 85.8613 68.521 85.7613C68.2043 85.6612 67.9543 85.5612 67.7708 85.4445L67.6208 85.7946H67.2208L67.1541 83.8608H67.5375C67.5875 84.0108 67.6709 84.1941 67.8043 84.3942C67.9209 84.5942 68.0709 84.761 68.2209 84.9277C68.3929 85.0836 68.5833 85.218 68.7878 85.3279C69.0045 85.4278 69.2213 85.4945 69.4546 85.4945C69.7713 85.4945 70.0047 85.4278 70.1547 85.3112C70.3048 85.1945 70.3883 84.9944 70.3883 84.7444C70.3883 84.6111 70.3549 84.4944 70.2881 84.3942C70.2214 84.3109 70.1215 84.2276 70.0047 84.1609C69.8715 84.0942 69.7214 84.0275 69.5546 83.9776C69.3879 83.9275 69.1878 83.8774 68.9545 83.7941C68.7211 83.7274 68.521 83.6607 68.3543 83.5774C68.1877 83.5107 68.0042 83.3941 67.8375 83.244C67.6875 83.1106 67.5541 82.944 67.4708 82.7605C67.3708 82.5772 67.3374 82.3438 67.3374 82.077C67.3374 81.5935 67.5375 81.1935 67.9543 80.8934C68.3711 80.5933 68.9046 80.4431 69.5714 80.4431C69.8881 80.4431 70.1715 80.4767 70.4383 80.5433C70.705 80.61 70.9217 80.6767 71.105 80.76L71.2218 80.4599H71.6218L71.7051 82.2271H71.3384C71.2218 81.8603 71.005 81.5602 70.7218 81.2934C70.4216 81.0268 70.1048 80.8935 69.7713 80.8934C69.5047 80.8934 69.288 80.9435 69.1379 81.0601C68.9879 81.1768 68.9044 81.3269 68.9044 81.527C68.9044 81.7936 69.0212 81.9771 69.2379 82.0937C69.4546 82.2103 69.7713 82.3272 70.1715 82.4272C70.7883 82.5938 71.2384 82.8106 71.5385 83.0774C71.8219 83.3606 71.9719 83.7108 71.9719 84.1274C71.9719 84.6943 71.7552 85.1444 71.3051 85.4446C70.8049 85.7445 70.2213 85.9114 69.5045 85.9114Z" fill="#E4E4E4"/>
</svg>
