<svg width="101" height="101" viewBox="0 0 101 101" fill="none" xmlns="http://www.w3.org/2000/svg">
<g clip-path="url(#clip0_2336_9948)">
<path d="M54.9498 43.6395C54.9412 43.4863 54.947 43.3318 54.931 43.1793C54.9112 42.9892 54.8096 42.9381 54.6465 43.0281C54.5984 43.0547 54.5486 43.0885 54.5155 43.1315C54.1944 43.5453 53.7438 43.5853 53.2692 43.5853C51.9837 43.5859 50.6982 43.6016 49.4127 43.6016C47.0232 43.6016 44.634 43.5907 42.2445 43.5938C41.7652 43.5945 41.3196 43.5518 41.0221 43.1114C41.0071 43.0892 40.9819 43.0725 40.959 43.0568C40.7956 42.9435 40.7024 42.9739 40.6601 43.1643C40.639 43.2588 40.6376 43.358 40.6305 43.4556C40.5626 44.3747 40.4933 45.2938 40.4285 46.2129C40.3998 46.6168 40.3804 47.0211 40.3558 47.4254C40.3483 47.5489 40.3773 47.6502 40.5141 47.6802C40.6414 47.7082 40.7304 47.6468 40.7901 47.5404C40.8171 47.4923 40.8352 47.4387 40.8536 47.3862C41.033 46.871 41.2753 46.3842 41.5141 45.8949C41.9794 44.9421 42.7392 44.4562 43.7869 44.3498C44.5395 44.2734 45.2914 44.2495 46.0457 44.2362C46.6424 44.2256 46.6322 44.2113 46.6315 44.8373C46.6295 48.5949 46.6332 52.3525 46.6285 56.1097C46.6274 56.9612 46.6029 57.8131 46.5841 58.6647C46.5763 59.0297 46.5312 59.3883 46.3095 59.6981C45.8117 60.191 45.1915 60.3957 44.5119 60.4664C44.3604 60.4821 44.2106 60.5233 44.0622 60.5609C43.85 60.6144 43.8408 60.7772 43.849 60.957C43.8582 61.1603 43.9745 61.2179 44.153 61.2135C44.2369 61.2115 44.3208 61.2139 44.4044 61.2139C46.669 61.2139 48.9334 61.2138 51.198 61.2135C51.2819 61.2135 51.3658 61.2101 51.4494 61.2132C51.6241 61.2193 51.6995 61.1122 51.7353 60.9641C51.7756 60.7956 51.7292 60.6543 51.5678 60.5776C51.4951 60.5428 51.4068 60.5401 51.3249 60.525C50.8326 60.4336 50.3379 60.3661 49.8627 60.1829C49.3233 59.9747 49.0869 59.5619 49.0108 59.0383C48.9511 58.6254 48.9187 58.2055 48.9173 57.7882C48.9057 54.1695 48.9033 50.5505 48.8996 46.9317C48.8989 46.1631 48.9047 45.3948 48.9033 44.6261C48.903 44.4733 48.9115 44.342 49.1142 44.344C50.1189 44.3532 51.1274 44.2925 52.1243 44.4631C52.4951 44.5265 52.8595 44.6337 53.1713 44.8636C53.2296 44.9066 53.2893 44.9373 53.364 44.9189C53.6022 45.0615 53.7325 45.2958 53.8683 45.5217C54.1358 45.9659 54.319 46.45 54.5097 46.9297C54.5871 47.1241 54.653 47.323 54.7297 47.5179C54.7676 47.6147 54.8368 47.6877 54.9504 47.6761C55.0838 47.6625 55.1412 47.5649 55.1504 47.4452C55.1589 47.3346 55.1511 47.2224 55.1446 47.1112C55.0808 45.9536 55.0146 44.7967 54.9498 43.6395Z" fill="#E4E4E4"/>
<path d="M85.6587 60.6062C85.5001 60.5591 85.3404 60.5155 85.1835 60.4636C84.695 60.3033 84.2166 60.1252 83.896 59.6864C83.8229 59.4149 83.636 59.202 83.5173 58.9529C83.0147 57.8991 82.6528 56.7896 82.2147 55.7105C82.0489 55.3021 81.9783 54.8542 81.7152 54.4857C81.4979 53.8979 81.2857 53.3084 81.0619 52.7233C80.7296 51.8554 80.4417 50.9707 80.0684 50.1185C80.0657 50.0919 80.0555 50.066 80.0347 50.04C79.9951 49.9073 79.9637 49.7715 79.9142 49.6426C79.5659 48.7347 79.2135 47.8283 78.8635 46.9211C78.4336 45.8076 78.0088 44.6923 77.5711 43.5818C77.5162 43.4426 77.4991 43.2331 77.2624 43.2465C77.0754 43.2362 76.9765 43.37 76.9222 43.5064C76.6906 44.0864 76.4047 44.6456 76.2474 45.2542C76.2617 45.2638 76.2757 45.2733 76.2901 45.2825C76.288 45.2839 76.2863 45.2852 76.2843 45.2866C76.272 45.2757 76.2597 45.2651 76.2474 45.2542C76.1109 45.4579 76.0376 45.6854 75.9912 45.9236C75.825 46.3429 75.6589 46.7618 75.4928 47.1807C75.4573 47.2387 75.4122 47.293 75.388 47.3554C75.1107 48.0777 74.8364 48.8009 74.5614 49.5242C74.5771 49.5372 74.5924 49.5498 74.6081 49.5627C74.6074 49.5634 74.6068 49.5638 74.6057 49.5641C74.5911 49.5508 74.5761 49.5375 74.561 49.5242C74.4993 49.5976 74.4856 49.6863 74.4781 49.7773C74.3536 49.9882 74.2612 50.2106 74.2366 50.4569C73.9848 51.0997 73.7327 51.7424 73.4809 52.3849C72.861 53.6915 72.4182 55.0681 71.8826 56.4082C71.889 56.4133 71.8952 56.4181 71.9017 56.4232C71.901 56.4232 71.9003 56.4232 71.8996 56.4235C71.8993 56.4235 71.8826 56.4082 71.8826 56.4082C71.8331 56.4577 71.8096 56.5163 71.8195 56.5866C71.61 57.0991 71.4097 57.6159 71.1886 58.1232C70.8679 58.8595 70.5725 59.6155 69.8796 60.1074C69.5132 60.2381 69.1591 60.4015 68.7807 60.5022C68.6374 60.5404 68.4825 60.5902 68.4464 60.7768C68.3921 61.0572 68.516 61.1968 68.8476 61.1971C70.52 61.1995 72.1923 61.1985 73.8647 61.1974C73.9746 61.1974 74.0902 61.2148 74.1779 61.121C74.3465 60.7376 74.3198 60.6584 73.9766 60.5301C73.9121 60.5059 73.846 60.4834 73.7788 60.4694C73.3291 60.3773 72.904 60.22 72.5025 59.9989C72.4707 59.9737 72.439 59.9488 72.4073 59.9235C72.2735 59.7308 72.2411 59.5196 72.2636 59.2876C72.307 58.8427 72.3851 58.4071 72.498 57.9735C72.5816 57.6524 72.7478 57.3498 72.7358 57.0052C72.8027 56.9384 72.8211 56.8541 72.8235 56.7637C73.1084 56.1121 73.2612 55.4151 73.5147 54.7522C73.6597 54.3721 73.6679 54.351 74.0824 54.3513C75.5777 54.352 77.073 54.3537 78.5683 54.3558C79.2749 54.3568 79.2749 54.3578 79.5396 54.9869C79.7119 55.7211 80.0555 56.3949 80.2912 57.1066C80.5577 57.9114 80.9077 58.6875 81.0687 59.5285C81.1168 59.7789 81.0414 59.9317 80.8668 60.0699C80.7341 60.175 80.5792 60.2289 80.4147 60.2746C80.108 60.3602 79.7897 60.4182 79.5052 60.569C79.2827 60.6871 79.2261 60.9047 79.3513 61.09C79.4482 61.2336 79.5959 61.1995 79.7314 61.1991C81.6279 61.1964 83.5244 61.192 85.421 61.1875C85.4906 61.1875 85.5615 61.1923 85.6294 61.1811C85.7979 61.1534 85.8478 61.0136 85.873 60.8771C85.904 60.7225 85.8512 60.6021 85.6587 60.6062ZM74.3205 50.4573C74.3205 50.459 74.3212 50.461 74.3212 50.4627C74.3212 50.4627 74.3212 50.4627 74.3212 50.4631C74.3175 50.461 74.3137 50.4593 74.3099 50.4576L74.3205 50.4573ZM74.8387 51.0567V51.0564C74.8401 51.0557 74.8408 51.0543 74.8418 51.0533C74.8916 51.0147 74.9162 50.9653 74.9131 50.9039C74.9425 50.8977 74.9694 50.8844 74.9936 50.8639C75.2499 50.5068 75.2983 50.0639 75.487 49.6781C75.5467 49.5566 75.5992 49.4198 75.5177 49.2806C75.6586 49.2294 75.6859 49.0892 75.7377 48.9712C75.8609 48.6901 75.9489 48.3953 76.0622 48.1101C76.0874 48.0197 76.0987 47.9265 76.1263 47.8371C76.1335 47.8139 76.1403 47.7904 76.1451 47.7672C76.3088 47.7362 76.2798 47.5492 76.347 47.4411C76.4095 47.3404 76.3839 47.1767 76.5176 47.1272C76.8288 48.2469 77.2859 49.3147 77.7014 50.3959C77.9143 50.9503 78.0317 51.5473 78.377 52.0481C78.3967 52.0631 78.4176 52.0737 78.4401 52.0788C78.4339 52.1498 78.4408 52.216 78.4885 52.2695L78.4889 52.2699C78.4926 52.274 78.4964 52.2781 78.5005 52.2818C78.5066 52.2876 78.5127 52.2931 78.5202 52.2982C78.5226 52.3002 78.5254 52.302 78.5281 52.304C78.5284 52.3071 78.5288 52.3101 78.5295 52.3132C78.5168 52.3211 78.5056 52.333 78.4953 52.3477C78.4278 52.5548 78.5339 52.7305 78.6035 52.9085C78.7014 53.1576 78.6379 53.2801 78.3599 53.279C78.1091 53.2777 77.8587 53.2794 77.6076 53.2797C76.6602 53.2797 75.7125 53.2821 74.7651 53.2784C74.2676 53.2763 74.2625 53.2661 74.3696 52.7919C74.3915 52.695 74.4085 52.6008 74.3642 52.507C74.3567 52.4954 74.3485 52.4858 74.3403 52.4794C74.7108 52.0908 74.8033 51.5971 74.8592 51.0905C74.8524 51.0802 74.8449 51.0721 74.8367 51.0652C74.837 51.0625 74.8377 51.0598 74.8387 51.0567ZM69.9935 60.1245C69.9895 60.1293 69.985 60.1337 69.9806 60.1385C69.9806 60.1385 69.9806 60.1385 69.9802 60.1385C69.9782 60.1323 69.9758 60.1265 69.9731 60.1214C69.9802 60.1228 69.9871 60.1235 69.9935 60.1245C69.9939 60.1245 69.9939 60.1245 69.9935 60.1245ZM80.0183 50.2328C80.0152 50.229 80.0125 50.2253 80.0101 50.2215C80.0132 50.2219 80.0162 50.2219 80.0193 50.2219C80.0186 50.2256 80.0186 50.2294 80.0183 50.2328ZM71.9017 56.5945C71.9017 56.5948 71.9017 56.5948 71.9017 56.5952L71.9044 56.5948C71.903 56.5986 71.902 56.6027 71.9007 56.6064V56.6067V56.6071C71.8931 56.6006 71.885 56.5955 71.8757 56.5921C71.8843 56.5931 71.8931 56.5938 71.9017 56.5945ZM72.4619 60.0474C72.4612 60.0487 72.4608 60.0504 72.4605 60.0518L72.4602 60.0515C72.4598 60.0511 72.4598 60.0511 72.4595 60.0508C72.4598 60.0498 72.4608 60.0487 72.4619 60.0474Z" fill="#E4E4E4"/>
<path d="M43.0465 60.5906C43.0264 60.6135 43.0158 60.6377 43.0141 60.6629C43.0107 60.6561 43.0076 60.65 43.0038 60.6431C43.0178 60.6254 43.0322 60.608 43.0465 60.5906C42.9882 60.566 42.9298 60.5415 42.8711 60.5166C42.8602 60.5285 42.8493 60.5408 42.8384 60.5527C42.8493 60.5408 42.8602 60.5285 42.8715 60.5166C42.7674 60.4384 42.648 60.434 42.5255 60.4436C42.442 60.4146 42.3683 60.3549 42.2731 60.3634C41.8668 60.1727 41.4802 59.955 41.1991 59.5907C40.9872 59.1813 40.772 58.7736 40.6003 58.3447C40.4127 57.8644 40.2827 57.3605 40.0135 56.9139C39.8443 56.4028 39.6864 55.887 39.4182 55.4155C39.3667 55.2705 39.3152 55.1255 39.2637 54.9805C39.2773 54.8836 39.2466 54.7983 39.1934 54.7192C39.0399 54.275 38.9235 53.8161 38.699 53.3992C38.6898 53.3736 38.6758 53.348 38.6564 53.3228L38.6557 53.3214C38.6769 53.2426 38.654 53.1843 38.5769 53.1509C38.1996 52.1103 37.8298 51.067 37.4047 50.0442C37.3074 49.6642 37.1597 49.3025 36.9997 48.9453C37.0048 48.8488 36.9987 48.7556 36.9151 48.6881C36.9137 48.6629 36.9052 48.6407 36.8892 48.6212C36.9015 48.5496 36.8776 48.4933 36.8175 48.4524V48.452C36.7493 48.0894 36.6111 47.754 36.4337 47.434C36.4293 47.4115 36.4167 47.3889 36.3959 47.3658C36.3177 47.157 36.2423 46.9471 36.1615 46.7394C35.7514 45.6889 35.34 44.6392 34.9282 43.5898C34.8736 43.4506 34.8504 43.2745 34.6576 43.2558C34.4553 43.2363 34.3482 43.3895 34.284 43.5396C34.1865 43.7675 34.0643 43.9906 34.037 44.2448C33.9859 44.2929 33.9538 44.3492 33.9617 44.4222C33.3718 45.9189 32.7775 47.4139 32.1944 48.9136C31.9082 49.6498 31.595 50.3762 31.3651 51.1336C31.2712 51.225 31.2395 51.3475 31.1935 51.4641C30.8966 52.2157 30.591 52.9639 30.3013 53.7185C29.9468 54.6414 29.6053 55.569 29.258 56.4946C29.182 56.5635 29.1584 56.6502 29.1714 56.7491C29.1188 56.862 29.0663 56.975 29.0138 57.0879C28.732 57.7064 28.4423 58.3219 28.1721 58.9455C28.0735 59.1731 27.8767 59.3505 27.8426 59.6084C27.8426 59.6084 27.8426 59.6084 27.8429 59.6084C27.7559 59.7155 27.6696 59.823 27.5829 59.9301C27.5829 59.9301 27.5829 59.9301 27.5826 59.9305C27.5826 59.9305 27.5829 59.9305 27.5829 59.9301C27.1735 60.1645 26.7522 60.374 26.3005 60.5152C26.2981 60.5159 26.2961 60.5166 26.2937 60.5176C25.7458 60.5449 25.2176 60.4279 24.6919 60.2952C23.8789 60.0898 23.4586 59.6278 23.3569 58.7927C23.2781 58.1451 23.2201 57.4949 23.2249 56.8409C23.2317 56.716 23.2464 56.5908 23.244 56.4659C23.2225 55.3643 23.2433 54.2627 23.1713 53.1608C23.1178 52.3399 23.1478 51.514 23.1328 50.69C23.1284 50.441 23.1703 50.1875 23.0802 49.9439C23.0646 49.9559 23.0489 49.9675 23.0332 49.9791C23.0321 49.9733 23.0308 49.9678 23.0298 49.962C23.0465 49.9559 23.0635 49.9501 23.0802 49.9439C23.0516 48.7867 23.0765 47.6291 23.0072 46.4712C22.9523 45.5528 22.9933 44.6289 22.9844 43.7075C22.9806 43.3267 23.0557 42.9593 23.1389 42.5918C23.2222 42.2244 23.4596 41.9764 23.7762 41.8048C23.9461 41.7127 24.1348 41.6482 24.3217 41.5957C24.6704 41.4981 25.0232 41.424 25.3869 41.3872C25.6758 41.3579 25.7956 41.1822 25.7754 40.9382C25.7536 40.6772 25.7082 40.6431 25.3394 40.6428C23.9843 40.6414 22.6296 40.6421 21.2745 40.6424C21.1909 40.6424 21.1066 40.6421 21.0237 40.651C20.8784 40.6663 20.7999 40.752 20.787 40.8973C20.163 42.2162 19.5349 43.5331 18.916 44.8544C18.3855 45.9868 17.8659 47.1242 17.3412 48.2593C17.3364 48.2664 17.333 48.2736 17.3299 48.2807C16.9141 49.0774 16.5398 49.8938 16.1775 50.716C15.8554 51.3812 15.5078 52.0346 15.2639 52.735C14.6989 53.9325 14.1343 55.1299 13.5693 56.3274C13.4407 56.396 13.4823 56.5946 13.3305 56.6454C13.2401 56.6341 13.2298 56.5533 13.2022 56.4956C12.7911 55.6298 12.3933 54.7571 11.9706 53.897C11.6404 53.2252 11.3749 52.5214 10.9829 51.8797C10.7748 51.4426 10.5766 51.0005 10.3535 50.5713C10.2607 50.3926 10.2413 50.1681 10.0536 50.0425C10.0536 50.0425 10.0536 50.0422 10.0533 50.0422C9.38083 48.6178 8.70874 47.1931 8.03665 45.7688V45.7684C8.08476 45.6309 7.99878 45.5265 7.94658 45.4157C7.24856 43.9405 6.54236 42.4694 5.8573 40.988C5.73857 40.7311 5.59665 40.639 5.31928 40.6435C4.2859 40.6595 3.25217 40.6534 2.21879 40.6554C1.85579 40.6561 1.49246 40.6575 1.12946 40.6554C0.956147 40.6544 0.823774 40.6991 0.814562 40.9031C0.728248 41.1463 0.847998 41.2756 1.06703 41.3353C1.20008 41.3715 1.33893 41.3869 1.47539 41.4104C2.14953 41.5284 2.80866 41.682 3.32587 42.178C3.53023 42.4707 3.64554 42.7976 3.68238 43.1497C3.75642 43.8579 3.78848 44.5682 3.75641 45.2806C3.68921 46.7711 3.61483 48.2616 3.54284 49.7522C3.44493 51.7722 3.37704 53.7939 3.18735 55.8082C3.09729 56.7655 2.9946 57.7224 2.75817 58.6596C2.59612 59.302 2.26451 59.8052 1.6627 60.1106C1.5641 60.0976 1.46755 60.0898 1.41603 60.2024C1.3403 60.1853 1.27957 60.2048 1.24136 60.2764H1.24102C1.23453 60.2832 1.22805 60.2887 1.22123 60.2934C1.22771 60.2876 1.23453 60.2829 1.24102 60.2764C1.1199 60.2665 0.992649 60.2351 0.910088 60.3665C0.724495 60.3272 0.552891 60.4036 0.381627 60.4453C0.0111235 60.535 -0.0533551 60.8891 0.23254 61.1948C0.23254 61.1948 0.23254 61.1948 0.23254 61.1951C0.274162 61.1992 0.31578 61.2067 0.357743 61.2067C2.60874 61.2074 4.86008 61.2078 7.11108 61.2081C7.16703 61.2081 7.22297 61.2078 7.27892 61.205C7.44541 61.1968 7.52422 61.1071 7.54674 60.9427C7.59246 60.6097 7.50205 60.5029 7.15167 60.4436C6.46218 60.3262 5.78019 60.1816 5.19066 59.7708C4.84336 59.4539 4.67483 59.0455 4.61512 58.5928C4.47286 57.5119 4.42441 56.4257 4.42851 55.3353C4.43533 53.548 4.49094 51.7633 4.57555 49.9774C4.64344 48.5421 4.64481 47.102 4.69496 45.6644C4.7069 45.3218 4.71986 44.9797 4.73214 44.6371C4.95219 44.9868 5.1122 45.3508 5.27595 45.7135C5.64441 46.5275 5.99854 47.3483 6.39053 48.1504C6.60308 48.5854 6.73136 49.0637 7.03738 49.452V49.4526C7.01521 49.5335 7.03636 49.5935 7.12063 49.6222C7.20046 49.7986 7.27858 49.9756 7.36046 50.151C7.7238 50.9275 8.08817 51.7033 8.45253 52.4791C8.43547 52.5791 8.49927 52.6517 8.53782 52.7329C8.52656 52.8196 8.55419 52.8977 8.58933 52.9748C9.03455 53.9512 9.48011 54.9273 9.92397 55.9044C10.3102 56.7542 10.681 57.6109 11.0849 58.4522C11.2695 58.8367 11.3667 59.2666 11.6543 59.6002C11.7894 59.8895 11.9286 60.1768 12.0579 60.4685C12.1262 60.6223 12.2224 60.7243 12.3998 60.7226C12.5693 60.7213 12.6413 60.5923 12.6969 60.4671C13.0459 59.6817 13.4516 58.9216 13.7563 58.1165C13.9855 57.7828 14.1244 57.4038 14.2922 57.0398C15.2884 54.8788 16.2832 52.7172 17.2784 50.5556C17.363 50.5143 17.3794 50.4263 17.4135 50.3526C17.9843 49.1146 18.5581 47.8782 19.1197 46.636C19.2619 46.3208 19.4568 46.0277 19.5362 45.6845C19.8194 45.0902 20.062 44.4761 20.3758 43.8968C20.4789 43.9497 20.471 44.0094 20.4707 44.0616C20.4632 45.766 20.4731 47.4701 20.5147 49.1743C20.5403 50.2216 20.5567 51.2697 20.5529 52.3177C20.5451 54.6356 20.6508 56.9552 20.4564 59.2703C20.3373 59.49 20.2179 59.7097 20.0988 59.9298C19.8702 60.0935 19.6277 60.2337 19.3537 60.3006C18.9877 60.39 18.6223 60.4831 18.2456 60.5265C18.0092 60.5538 17.9297 60.6578 17.9468 60.8444C17.9645 61.0355 18.0559 61.1105 18.2903 61.1122C19.0453 61.1174 19.8 61.1211 20.555 61.1228C24.1205 61.132 27.6856 61.1395 31.2511 61.1525C31.4063 61.1532 31.5237 61.1477 31.5664 60.9655C31.6097 60.7803 31.5428 60.6633 31.3729 60.6053C31.2279 60.5558 31.0758 60.5278 30.9294 60.4811C30.5203 60.3508 30.0778 60.29 29.7728 59.9383C29.7851 59.8609 29.7599 59.8049 29.6818 59.7786L29.6814 59.778C29.7077 59.4327 29.6616 59.0857 29.7398 58.7401C30.0431 57.3966 30.4531 56.0852 30.9195 54.7908C31.0601 54.4012 30.9615 54.4026 31.4756 54.4022C33.2012 54.4016 34.9272 54.3999 36.6528 54.3985C36.6562 54.4002 36.6589 54.4022 36.6623 54.4043C36.8247 54.6349 36.8749 54.9126 36.9823 55.1665C36.9584 55.2668 36.9946 55.3527 37.0465 55.4346C37.1785 55.7976 37.3064 56.1623 37.4449 56.5226C37.5077 56.6853 37.49 56.8873 37.665 56.9988C37.7724 57.2827 37.8799 57.5665 37.9874 57.8507C37.9635 58.01 38.0396 58.1438 38.0897 58.2871C38.2757 58.8206 38.4868 59.3508 38.4111 59.9359C38.2306 60.0911 38.0307 60.2157 37.7977 60.2692C37.6483 60.3037 37.5012 60.3347 37.3757 60.4282H37.3753C37.2341 60.4292 37.0997 60.4603 36.9738 60.5241C36.8397 60.592 36.6633 60.6367 36.6708 60.825C36.6773 60.9911 36.7885 61.1 36.9598 61.1327C37.0997 61.2221 37.257 61.1945 37.4084 61.1958C38.1337 61.2013 38.8591 61.2037 39.5844 61.2047C40.6723 61.2064 41.7603 61.2057 42.8486 61.2064C43.0083 61.2064 43.1604 61.1986 43.2051 60.9986C43.2423 60.825 43.2717 60.6595 43.0465 60.5906ZM31.782 52.2225C31.784 52.2205 31.7861 52.2188 31.7881 52.2168C31.799 52.2072 31.8099 52.198 31.8205 52.1881C31.8219 52.186 31.8226 52.1833 31.8236 52.1813C31.9351 52.0581 31.9706 51.9073 31.9614 51.7401C31.9785 51.7354 31.9949 51.7275 32.0102 51.7166C32.1364 51.5157 32.3005 51.3253 32.2111 51.0588C32.3442 51.0735 32.3988 50.9678 32.4319 50.8732C32.6628 50.2083 32.99 49.5765 33.1255 48.8788C33.1238 48.8594 33.1207 48.8406 33.1159 48.8225C33.4117 48.509 33.7761 47.5012 33.7157 47.1334C33.7341 47.1245 33.7505 47.1129 33.7648 47.0969C33.7655 47.0952 33.7958 47.0785 33.7958 47.0785C33.7958 47.0785 33.8303 47.0792 33.8307 47.0768C33.8484 47.0935 33.861 47.1153 33.8695 47.1382C33.8883 47.2006 33.8999 47.2668 33.9187 47.3299C34.3175 48.4998 34.7866 49.6447 35.2199 50.8026C35.4082 51.3062 35.5481 51.8343 35.834 52.2997C35.8534 52.3147 35.8742 52.3252 35.8964 52.3304C35.8889 52.4177 35.8964 52.4999 35.9772 52.5593L35.979 52.561C35.979 52.5617 35.979 52.5623 35.9793 52.563C35.9742 52.5661 35.9697 52.5699 35.965 52.5743C35.9008 52.6811 35.9254 52.7947 35.9752 52.8882C36.1533 53.2228 35.9875 53.3249 35.6852 53.3474C34.5072 53.3723 33.3281 53.3856 32.1484 53.3422C32.0467 53.3201 31.945 53.3061 31.841 53.3184C31.7768 53.3242 31.7202 53.3624 31.6533 53.3566C31.6264 53.3474 31.6028 53.3323 31.5817 53.3139C31.565 53.2914 31.5527 53.2655 31.5421 53.2399C31.536 53.2014 31.5326 53.1618 31.5261 53.1229C31.7956 52.9001 31.8307 52.5876 31.8127 52.255C31.8031 52.2427 31.7922 52.2335 31.7806 52.2273C31.7816 52.2253 31.7816 52.2243 31.782 52.2225ZM29.2867 56.5185C29.2864 56.5188 29.286 56.5188 29.2853 56.5188C29.2846 56.5181 29.2577 56.4939 29.2574 56.4936C29.2673 56.5021 29.2771 56.5103 29.2867 56.5185Z" fill="#E4E4E4"/>
<path d="M68.7379 57.1155C68.771 56.9589 68.7352 56.8395 68.5796 56.774C68.4278 56.7102 68.3012 56.7522 68.2186 56.888C68.134 57.0272 68.0051 57.1514 68.031 57.3376C67.8437 57.6791 67.6622 58.0237 67.4677 58.3608C67.1341 58.9401 66.8144 59.5334 66.1815 59.8568C65.9294 59.8882 65.723 60.0444 65.4835 60.112C64.2482 60.46 62.9934 60.4105 61.7444 60.2467C61.2562 60.1826 60.8587 59.8875 60.7236 59.3672C60.6397 59.0448 60.5646 58.719 60.5646 58.3789C60.5646 54.6646 60.5568 50.9507 60.5592 47.2365C60.5595 46.6793 60.5517 46.1209 60.6516 45.5661C60.7328 45.1151 60.9246 44.7501 61.3148 44.4997C61.3176 44.4997 61.3203 44.4986 61.323 44.4966C61.7781 44.3202 62.2541 44.2315 62.7334 44.1506C62.9981 44.1063 63.1043 43.991 63.0858 43.817C63.0677 43.6447 62.9541 43.5744 62.671 43.5659C62.0569 43.5478 61.4431 43.5232 60.829 43.5171C59.9904 43.5086 59.1519 43.5151 58.3133 43.5151C57.6006 43.5151 56.8876 43.5157 56.1749 43.5133C55.9773 43.5127 55.8562 43.587 55.8395 43.7989C55.8231 44.0033 55.9149 44.1237 56.1125 44.1489C56.6679 44.2199 57.1991 44.3731 57.7122 44.5935C57.9124 44.7409 58.0322 44.951 58.0984 45.1779C58.1918 45.4982 58.2706 45.8237 58.2758 46.1638C58.329 49.5574 58.3089 52.9513 58.3044 56.3452C58.3034 57.0712 58.2938 57.7975 58.2693 58.5232C58.2532 58.9974 58.2277 59.4774 57.8909 59.8653C57.4679 60.2075 56.9804 60.3904 56.4444 60.4613C56.3206 60.4777 56.1981 60.5132 56.079 60.5528C55.8658 60.6237 55.8184 60.7298 55.8419 60.9744C55.862 61.1839 55.9924 61.2184 56.1629 61.2122C56.2189 61.2102 56.2748 61.2109 56.3308 61.2109C59.4634 61.2095 62.5956 61.2088 65.7281 61.2068C66.2873 61.2064 66.8468 61.1914 67.406 61.2013C67.6656 61.2057 67.8536 61.1058 67.9317 60.8731C68.0238 60.5988 68.1333 60.3225 68.1142 60.0219C68.118 59.9963 68.1214 59.9707 68.1241 59.9451C68.2166 59.8479 68.2162 59.7288 68.2029 59.607C68.262 59.3491 68.3247 59.0919 68.3797 58.8329C68.5011 58.2608 68.6171 57.6877 68.7379 57.1155Z" fill="#E4E4E4"/>
<path d="M97.1844 51.8763C97.0903 51.7627 96.9408 51.7709 96.8214 51.7129C96.5222 51.4669 96.1193 51.5054 95.785 51.3574C95.8228 51.2346 95.9201 51.2479 95.9945 51.2189C96.8381 50.8937 97.5935 50.4427 98.1424 49.7007C99.0148 48.6386 99.1792 47.4541 98.7336 46.1751C98.5794 45.7326 98.4034 45.2925 97.9886 45.0114C97.9039 44.9305 97.819 44.8493 97.7344 44.7681C97.672 44.5382 97.4625 44.4652 97.2878 44.3628C96.4004 43.8422 95.4196 43.6362 94.4104 43.5976C93.3119 43.5556 92.2133 43.4918 91.1107 43.5505C90.2622 43.5956 89.4093 43.5587 88.5584 43.5597C88.0146 43.5604 87.4705 43.5604 86.9267 43.5676C86.7854 43.5693 86.6005 43.5127 86.5742 43.7487C86.5183 43.9838 86.6374 44.0756 86.852 44.1186C87.1665 44.1813 87.4817 44.2383 87.7891 44.3379C88.2419 44.484 88.5059 44.7828 88.6509 45.2297C88.7922 45.6654 88.7956 46.1123 88.802 46.5562C88.859 50.3973 88.8542 54.2388 88.8041 58.08C88.7962 58.6787 88.7966 59.284 88.4991 59.8349C88.2893 60.0867 88.0225 60.2372 87.7107 60.3426C87.3664 60.4589 87.0092 60.5009 86.6609 60.5892C86.3545 60.6667 86.3269 60.7131 86.4729 61.0041C86.4763 61.0143 86.4811 61.0246 86.489 61.0358L86.4907 61.0382C86.5446 61.1795 86.6698 61.1457 86.7742 61.1467C87.4674 61.1552 88.1617 61.1815 88.8542 61.1573C89.296 61.1416 89.7409 61.1935 90.1807 61.1129C90.7924 61.1689 91.4041 61.1174 92.0151 61.1051C93.0584 61.0839 94.1037 61.0659 95.1333 60.8615C95.4049 60.8912 95.6649 60.8687 95.8935 60.6981L95.8911 60.694C95.8982 60.6872 95.9057 60.6817 95.9136 60.6769C95.9061 60.6824 95.8986 60.6875 95.8911 60.694C96.0159 60.7182 96.1394 60.7366 96.2247 60.6077C96.3244 60.6281 96.4134 60.6145 96.4796 60.5282C96.5338 60.5275 96.5932 60.5411 96.6413 60.5234C97.2032 60.3184 97.73 60.0465 98.2066 59.6824C98.6927 59.3113 99.1403 58.9056 99.4081 58.3393C99.7663 57.7023 100.029 57.0316 100.049 56.293C100.068 55.5581 100.059 54.8222 99.6678 54.1576C99.1867 53.0188 98.2946 52.329 97.1844 51.8763ZM96.1418 59.516C96.0641 59.5013 96.0105 59.5504 95.9556 59.5907C94.7884 60.4487 93.4705 60.4586 92.1178 60.2723C92.0782 60.2007 92.0179 60.1829 91.9418 60.2044L91.937 60.2024C91.5713 59.9963 91.2976 59.7176 91.2233 59.286C91.1735 58.9977 91.1127 58.7125 91.1134 58.4164C91.1165 57.1172 91.1076 55.8184 91.1049 54.5196C91.1035 53.7796 91.1049 53.0396 91.1097 52.299C91.1114 51.9895 91.1168 51.9786 91.4034 51.9807C92.1287 51.9855 92.8537 51.9401 93.5783 52.0441C94.6612 52.2004 95.6219 52.5873 96.3769 53.4088C96.4584 53.4975 96.5113 53.6278 96.656 53.6435C97.2622 54.4173 97.4707 55.3268 97.4505 56.2742C97.4246 57.5058 97.1015 58.6467 96.1418 59.516ZM96.2544 46.8356C96.3052 47.8874 96.3803 48.943 95.8471 49.9183C95.8211 49.9661 95.858 49.905 95.8447 49.9589C95.8478 49.9842 95.8556 50.006 95.8689 50.0244C95.5851 50.092 95.4298 50.3015 95.3026 50.5413C95.2934 50.5297 95.2801 50.5198 95.2623 50.5116C95.1617 50.4823 95.0651 50.5045 94.9781 50.5502C93.9345 51.1039 92.7971 51.0732 91.6658 51.093C91.3676 51.0984 91.2308 50.9804 91.2356 50.675C91.2697 48.598 91.1629 46.5197 91.2963 44.444C91.3642 44.4908 91.442 44.484 91.5201 44.4771C92.0779 44.4294 92.6374 44.4451 93.1959 44.4577C94.5329 44.487 95.5243 45.0626 96.0617 46.3273C96.1111 46.445 96.1272 46.6046 96.3052 46.6128C96.2507 46.6773 96.2503 46.7558 96.2544 46.8356Z" fill="#E4E4E4"/>
</g>
<defs>
<clipPath id="clip0_2336_9948">
<rect width="100" height="100" fill="white" transform="translate(0.0544434 0.927979)"/>
</clipPath>
</defs>
</svg>
