<svg width="101" height="101" viewBox="0 0 101 101" fill="none" xmlns="http://www.w3.org/2000/svg">
<path d="M20.127 15.928H81.0895V76.0845H20.127V15.928Z" fill="#191919"/>
<mask id="mask0_2336_9930" style="mask-type:luminance" maskUnits="userSpaceOnUse" x="20" y="15" width="62" height="62">
<path d="M20.127 15.928H81.0895V76.0845H20.127V15.928Z" fill="white"/>
</mask>
<g mask="url(#mask0_2336_9930)">
<path d="M70.2154 5.23016L80.1271 7.88661L59.148 72.4378L89.7545 11.8132L98.6398 16.9427L61.669 73.866L106.925 23.2279L114.181 30.483L63.7359 75.8955L120.554 38.6983L125.684 47.5833L65.2058 78.394L129.715 57.1682L132.371 67.0808L65.9814 81.1862L133.784 77.3803V87.6401L57.062 83.6152L57.0096 83.8118L57.0342 83.8417L56.9893 83.8844L56.938 84.0787L56.8205 84.0542L56.7736 84.1011L56.6592 84.301L56.6752 84.334L56.6218 84.364L56.5214 84.5371L56.4168 84.4858L56.3591 84.5179L56.1957 84.6802L56.202 84.7176L56.1412 84.7314L56.0012 84.8725L55.9137 84.7944L55.8474 84.8094L55.6498 84.9258L55.6455 84.9632H55.5857L55.4105 85.0636L55.3454 84.9632H55.2813L55.0569 85.0241L55.0452 85.0573L54.9865 85.0423L54.7921 85.0936L54.7559 84.9793L54.6917 84.9632H54.4609L54.4406 84.9941L54.3862 84.9632H54.1874L54.1812 84.8457L54.1233 84.8094L53.9012 84.7508L53.8745 84.7762L53.8285 84.7314L53.6351 84.6802L53.6598 84.5638L53.6127 84.5179L53.4131 84.3993L53.3821 84.4194L53.35 84.364L53.1758 84.2657L53.2303 84.159L53.1982 84.1011L53.035 83.9367L52.9974 83.9453L52.9815 83.8844L52.8672 83.769L-23.8142 88.0759V77.815L43.9687 81.3731L-22.5127 67.4984L-19.8581 57.589L44.694 78.5681L-15.9311 47.9584L-10.7995 39.0754L46.1227 76.046L-4.51589 30.7906L2.74064 23.5354L48.1522 73.978L10.955 17.1585L19.8397 12.0301L50.6519 72.5083L29.4254 7.99668L39.3361 5.34217L53.444 71.7328L49.637 3.93005H59.8991L56.342 71.7114L70.2154 5.23016Z" fill="#E4E4E4"/>
</g>
<path fill-rule="evenodd" clip-rule="evenodd" d="M20.127 84.789V85.6222C20.127 85.7332 20.127 85.7194 20.2262 85.7194H22.0176C22.1062 85.7194 22.1157 85.7131 22.1157 85.6222V84.789H20.127ZM28.6626 84.789C29.3793 85.4994 30.3792 85.9299 31.5088 85.9095C32.5871 85.8904 33.5325 85.4641 34.2162 84.789H28.6626ZM36.9608 84.789V85.6222C36.9608 85.7332 36.9608 85.7194 37.0607 85.7194H41.736C41.8263 85.7194 41.8263 85.7131 41.8263 85.6222V84.789H36.9608ZM43.3817 84.789C43.2535 85.0539 43.1312 85.3145 43.0121 85.5668C42.9694 85.6778 42.9796 85.7194 43.0671 85.7194H44.9038C45.0476 85.7194 45.0689 85.6884 45.1014 85.6019C45.1965 85.3743 45.3145 85.0646 45.432 84.789H43.3817ZM48.2204 84.789C48.3252 85.0507 48.4618 85.3819 48.5729 85.6328C48.6071 85.7129 48.652 85.7194 48.7075 85.7194H50.7732C50.8737 85.7194 50.8844 85.7131 50.818 85.5668C50.6899 85.3126 50.5618 85.0528 50.4305 84.789H48.2204ZM52.2808 84.789V85.6222C52.2808 85.7332 52.2808 85.7194 52.3705 85.7194H54.1831C54.2623 85.7194 54.2718 85.7131 54.2718 85.6222V84.789H52.2808ZM56.3258 84.789C56.4742 85.0422 56.6185 85.2944 56.7263 85.4994C56.8246 85.6991 56.8694 85.7194 56.9571 85.7194H58.9139C59.0356 85.7194 59.0699 85.6436 58.9374 85.4214C58.8072 85.213 58.6778 84.9995 58.5508 84.789H56.3258ZM61.0696 84.789V85.6222C61.0696 85.7332 61.0696 85.7194 61.1712 85.7194H63.0031C63.1046 85.7194 63.1143 85.7131 63.1143 85.6222V84.789H61.0696ZM65.9213 84.789C66.622 85.4813 67.594 85.9095 68.6985 85.9095C69.8031 85.9095 70.7729 85.4812 71.4735 84.789H65.9213ZM74.7542 84.789C74.7583 85.0528 74.7637 85.3263 74.768 85.6104C74.768 85.6543 74.8043 85.7194 74.8812 85.7194H76.5497C76.6501 85.7194 76.6501 85.7194 76.6501 85.6222V84.789H74.7542ZM79.5513 84.789C80.0321 85.1885 80.5095 85.573 80.9272 85.8881C81.0511 85.9758 81.0597 85.9095 81.0597 85.7759C81.065 85.4576 81.0693 85.1255 81.0724 84.7888H79.5513V84.789Z" fill="#E4E4E4"/>
<path fill-rule="evenodd" clip-rule="evenodd" d="M22.1157 84.7891V83.8417C22.1157 83.8417 23.3655 83.831 23.6859 83.7969C25.1017 83.6334 26.1743 82.9124 26.1743 81.0987C26.1743 79.3971 25.1899 78.2253 23.5422 78.2253H20.2262C20.1819 78.2253 20.127 78.2135 20.127 78.3257V81.9852V84.7891H22.1157ZM34.2162 84.7891C34.949 84.0649 35.3843 83.0479 35.3649 81.9287C35.3259 79.7623 33.605 78.033 31.3726 78.0725C29.1402 78.112 27.4786 79.8982 27.516 82.0632C27.5351 83.1345 27.9635 84.0937 28.6628 84.7891H34.2162ZM41.8263 84.7891V84.0212C41.8263 83.9314 41.8135 83.9081 41.727 83.9081L38.9502 83.9637V78.3257C38.9502 78.2371 38.9402 78.2253 38.8514 78.2253H37.0605C36.9606 78.2253 36.9606 78.2135 36.9606 78.3257V81.9852V84.7891H41.8263ZM45.432 84.7891C45.4507 84.7411 45.4705 84.6941 45.4892 84.6481H48.165C48.1821 84.6929 48.2003 84.7389 48.2204 84.7891H50.4306C49.2951 82.499 47.9877 79.836 47.037 77.9839C47.0262 77.9592 46.7829 77.9497 46.7711 77.9839C45.8684 79.6695 44.4863 82.4669 43.3817 84.7891H45.432ZM54.2718 84.7891V83.533L55.5429 83.5106C55.5429 83.5106 55.9542 84.1569 56.3258 84.7891H58.5508C58.0552 83.9582 57.6066 83.1753 57.3779 82.8131C58.0519 82.4948 58.4075 81.7749 58.4075 80.7591C58.4075 79.3971 57.4996 78.2255 55.7959 78.2255H52.3702C52.337 78.2255 52.2804 78.2137 52.2804 78.3259V81.9854V84.7893L54.2718 84.7891ZM63.1142 84.7891V81.9852V78.3257C63.1142 78.2371 63.1045 78.2253 63.003 78.2253H61.171C61.0695 78.2253 61.0695 78.2135 61.0695 78.3257V81.9852V84.7891H63.1142ZM71.4737 84.7891C72.1915 84.081 72.6231 83.0908 72.6231 81.9949C72.6231 79.8285 70.9301 78.0725 68.6986 78.0725C66.4641 78.0725 64.772 79.8287 64.772 81.9949C64.772 83.0908 65.2057 84.081 65.9215 84.7891H71.4737ZM76.6501 84.7891V82.2395C76.6501 82.2395 78.1144 83.5865 79.5512 84.7891H81.0722C81.0946 82.6732 81.0979 80.2152 81.0595 78.3578C81.0595 78.2487 81.0595 78.2253 80.9494 78.2253H79.2691C79.1805 78.2253 79.1805 78.2371 79.1805 78.3578V81.6787C79.1805 81.6787 76.4705 79.1663 74.8897 78.0383C74.8364 78.0051 74.768 77.9934 74.768 78.1131C74.7284 80.7388 74.7168 82.4254 74.7542 84.7891H76.6501ZM68.6986 79.961C69.8693 79.961 70.5552 80.8572 70.5552 81.9949C70.5552 83.1345 69.8695 84.0212 68.6986 84.0212C67.5034 84.0212 66.8411 83.1345 66.8411 81.9949C66.8411 80.8571 67.5033 79.961 68.6986 79.961ZM54.2718 82.0407V79.8733H55.3666C56.0075 79.8733 56.3055 80.3156 56.3055 80.903C56.3055 81.5419 55.9733 81.9851 55.3774 82.0086L54.2718 82.0407ZM46.0415 83.2125L46.7945 81.5322L47.5796 83.2125H46.0415ZM31.4404 79.961C32.6123 79.961 33.297 80.8572 33.297 81.9949C33.297 83.1345 32.6123 84.0212 31.4404 84.0212C30.2462 84.0212 29.5835 83.1345 29.5835 81.9949C29.5835 80.8571 30.2462 79.961 31.4404 79.961ZM23.0232 79.8733C23.6972 79.8733 24.1283 80.2964 24.1283 81.0344C24.1283 81.6656 23.819 82.1506 23.0456 82.1849L22.1157 82.217V79.8733H23.0232Z" fill="#E4E4E4"/>
</svg>
