<svg width="101" height="101" viewBox="0 0 101 101" fill="none" xmlns="http://www.w3.org/2000/svg">
<g clip-path="url(#clip0_2336_13383)">
<g clip-path="url(#clip1_2336_13383)">
<path d="M27.5681 23.1942C27.6952 23.1941 27.8223 23.194 27.9495 23.1939C28.2994 23.1936 28.6493 23.1937 28.9992 23.1938C29.3797 23.1939 29.7602 23.1937 30.1406 23.1934C30.8076 23.1931 31.4746 23.193 32.1416 23.1931C32.8572 23.1931 33.5728 23.1931 34.2884 23.1928C34.3336 23.1928 34.3788 23.1928 34.4254 23.1928C34.6095 23.1927 34.7937 23.1927 34.9779 23.1926C36.8984 23.1919 38.8189 23.1917 40.7394 23.1917C40.9461 23.1917 41.1528 23.1917 41.3594 23.1917C41.4107 23.1917 41.462 23.1917 41.5148 23.1917C42.6513 23.1916 43.7877 23.1915 44.9241 23.1913C45.392 23.1912 45.8599 23.1912 46.3278 23.1911C46.3795 23.1911 46.4312 23.1911 46.4845 23.1911C49.4467 23.1907 52.4089 23.1904 55.3712 23.1904C55.482 23.1904 55.5928 23.1904 55.7037 23.1904C56.2041 23.1904 56.7046 23.1904 57.205 23.1904C57.4282 23.1905 57.6514 23.1905 57.8745 23.1905C57.9862 23.1905 58.0979 23.1905 58.2096 23.1905C61.7436 23.1905 65.2775 23.19 68.8114 23.1891C69.7022 23.1889 70.593 23.1886 71.4838 23.1884C71.566 23.1884 71.566 23.1884 71.65 23.1884C73.3396 23.1879 75.0292 23.1877 76.7188 23.1876C76.7718 23.1876 76.8248 23.1876 76.8794 23.1876C78.0432 23.1875 79.207 23.1875 80.3708 23.1876C80.7872 23.1876 81.2036 23.1876 81.62 23.1876C81.7236 23.1876 81.8271 23.1876 81.9307 23.1876C83.5829 23.1876 85.2351 23.1872 86.8873 23.1866C88.5505 23.186 90.2137 23.1859 91.8769 23.1863C92.1064 23.1864 92.336 23.1865 92.5656 23.1865C92.6106 23.1865 92.6556 23.1865 92.7019 23.1865C93.3722 23.1867 94.0425 23.1865 94.7128 23.186C95.4577 23.1855 96.2026 23.1855 96.9475 23.186C97.3229 23.1863 97.6983 23.1863 98.0738 23.1858C98.4148 23.1853 98.7557 23.1854 99.0967 23.186C99.2198 23.1862 99.3429 23.186 99.4661 23.1857C99.6323 23.1852 99.7985 23.1856 99.9648 23.1862C100.037 23.1857 100.037 23.1857 100.111 23.1852C100.351 23.1869 100.534 23.1968 100.736 23.3363C100.929 23.5657 100.968 23.7784 100.963 24.0764C100.895 24.5259 100.68 24.9448 100.501 25.3588C100.456 25.4649 100.411 25.5711 100.367 25.6773C100.273 25.8983 100.18 26.119 100.086 26.3397C99.8834 26.8152 99.6876 27.2934 99.4916 27.7715C99.4295 27.9227 99.3671 28.0738 99.3046 28.2249C99.1194 28.6727 98.9358 29.121 98.7579 29.5718C98.7282 29.6464 98.6985 29.721 98.6678 29.7979C98.6139 29.9334 98.5608 30.0692 98.5086 30.2054C98.3778 30.5324 98.2771 30.7552 97.9656 30.9428C97.7385 31.0194 97.5641 31.0179 97.3244 31.0179C97.256 31.0181 97.256 31.0181 97.1862 31.0182C97.032 31.0185 96.8778 31.0182 96.7235 31.018C96.6119 31.0181 96.5003 31.0182 96.3887 31.0184C96.0797 31.0187 95.7708 31.0185 95.4618 31.0183C95.1265 31.0182 94.7912 31.0185 94.4559 31.0187C93.8675 31.019 93.279 31.0191 92.6906 31.019C91.8155 31.0189 90.9404 31.0192 90.0653 31.0196C88.9525 31.02 87.8398 31.0204 86.727 31.0206C86.6828 31.0206 86.6386 31.0206 86.5931 31.0206C86.4137 31.0206 86.2342 31.0207 86.0547 31.0207C83.861 31.021 81.6672 31.022 79.4735 31.0233C78.9601 31.0236 78.4467 31.0239 77.9333 31.0242C77.8393 31.0242 77.7453 31.0243 77.6512 31.0243C77.4625 31.0244 77.2738 31.0245 77.0852 31.0246C76.8958 31.0247 76.7064 31.0248 76.517 31.025C74.3316 31.0262 72.1462 31.0273 69.9608 31.0283C69.8127 31.0284 69.6645 31.0285 69.5163 31.0285C67.2358 31.0296 64.9553 31.0305 62.6748 31.0309C62.6013 31.0309 62.6013 31.0309 62.5264 31.0309C61.7365 31.031 60.9466 31.0312 60.1567 31.0313C57.88 31.0316 55.6032 31.0322 53.3264 31.0336C53.2796 31.0336 53.2327 31.0336 53.1844 31.0337C52.2013 31.0343 51.2181 31.0349 50.235 31.0357C49.7745 31.036 49.314 31.0364 48.8535 31.0367C48.7855 31.0367 48.7855 31.0367 48.7161 31.0368C47.2585 31.0378 45.801 31.038 44.3434 31.0377C42.8327 31.0374 41.322 31.038 39.8113 31.0397C38.9413 31.0406 38.0713 31.0408 37.2013 31.0399C36.619 31.0394 36.0367 31.0399 35.4544 31.0411C35.1234 31.0418 34.7924 31.0421 34.4613 31.0412C30.5769 31.0311 26.9255 31.8237 24.0811 34.6806C22.2806 36.5521 21.1989 39.0452 20.8548 41.6186C20.8487 41.6617 20.8425 41.7047 20.8362 41.7491C20.4415 44.8206 21.1892 48.1832 23.0604 50.6514C23.259 50.9065 23.259 50.9065 23.4791 51.1419C23.5593 51.2268 23.5593 51.2268 23.5593 51.3603C23.6028 51.3603 23.6463 51.3603 23.6912 51.3603C23.7749 51.4489 23.7749 51.4489 23.8767 51.5771C24.0996 51.843 24.3408 52.0798 24.5941 52.3153C24.6493 52.3669 24.6493 52.3669 24.7057 52.4195C24.8554 52.5577 25.0041 52.6901 25.1684 52.8102C25.2034 52.8382 25.2383 52.8661 25.2743 52.8949C25.2743 52.939 25.2743 52.983 25.2743 53.0284C25.31 53.0426 25.3457 53.0568 25.3825 53.0714C25.5944 53.1945 25.7496 53.3647 25.9175 53.5413C26.1822 53.815 26.4507 54.0761 26.7392 54.3246C26.9014 54.4687 27.0507 54.6244 27.2019 54.7802C27.3235 54.901 27.4497 55.0136 27.5789 55.126C27.7641 55.2874 27.9392 55.4544 28.1107 55.6306C28.2783 55.8027 28.4488 55.9657 28.6302 56.1227C28.9099 56.3653 29.1661 56.6291 29.4233 56.8958C29.5508 57.0346 29.5508 57.0346 29.6938 57.0985C29.6938 57.1426 29.6938 57.1866 29.6938 57.232C29.7305 57.2471 29.7671 57.2623 29.8049 57.2779C30.0016 57.3906 30.1349 57.5346 30.2916 57.6991C30.4626 57.878 30.6102 58.0279 30.8152 58.1661C30.8152 58.2102 30.8152 58.2542 30.8152 58.2996C30.853 58.3158 30.8907 58.3321 30.9296 58.3488C31.1057 58.448 31.2201 58.5652 31.3594 58.7124C31.546 58.9058 31.7334 59.0916 31.9366 59.2671C32.1813 59.4793 32.4069 59.7066 32.6313 59.9406C32.8091 60.1159 32.9948 60.2794 33.1823 60.4441C33.407 60.644 33.6239 60.8522 33.8413 61.0603C34.1981 61.4011 34.5581 61.7359 34.9297 62.0603C35.0368 62.1696 35.0368 62.1696 35.0368 62.303C35.0931 62.327 35.0931 62.327 35.1505 62.3515C35.3312 62.4537 35.4503 62.5773 35.5934 62.7284C35.7475 62.8888 35.8894 63.0333 36.0675 63.1662C36.6107 63.6434 36.8663 64.2945 36.9748 65.0014C37.0044 65.5424 36.8029 66.0607 36.4592 66.4691C36.3822 66.5496 36.304 66.629 36.2242 66.7068C36.1752 66.7563 36.1262 66.8059 36.0758 66.8569C35.3607 67.3172 34.6184 67.2785 33.802 67.2749C33.6624 67.2753 33.5227 67.2757 33.3831 67.2763C33.0004 67.2776 32.6178 67.2771 32.2351 67.2764C31.822 67.276 31.4089 67.277 30.9958 67.2779C30.2338 67.2793 29.4718 67.2794 28.7098 67.2789C28.006 67.2784 27.3022 67.2784 26.5984 67.2789C26.5039 67.2789 26.4094 67.279 26.315 67.2791C26.1726 67.2792 26.0303 67.2793 25.8879 67.2793C24.5651 67.2802 23.2422 67.2806 21.9193 67.2798C21.8445 67.2797 21.8445 67.2797 21.7683 67.2797C21.3636 67.2794 20.9589 67.2792 20.5541 67.2789C18.9745 67.2779 17.3948 67.2785 15.8151 67.2804C14.0399 67.2825 12.2647 67.2835 10.4895 67.2828C10.3003 67.2827 10.1111 67.2827 9.92195 67.2826C9.87537 67.2826 9.82879 67.2826 9.7808 67.2826C9.07719 67.2823 8.37359 67.283 7.66999 67.284C6.87027 67.2852 6.07057 67.2852 5.27085 67.2836C4.86266 67.2829 4.45449 67.2827 4.04631 67.2839C3.67292 67.285 3.29957 67.2846 2.92619 67.283C2.79086 67.2827 2.65553 67.2829 2.5202 67.2837C2.3367 67.2848 2.15331 67.2839 1.96981 67.2824C1.91687 67.2832 1.86393 67.284 1.80939 67.2848C1.43077 67.2785 1.26456 67.1818 0.999908 66.907C0.854254 66.6123 0.895479 66.2415 0.983289 65.9328C1.05488 65.7472 1.13293 65.5662 1.21429 65.3848C1.27577 65.2418 1.33717 65.0988 1.39852 64.9558C1.43078 64.8816 1.46304 64.8074 1.49627 64.7309C1.65639 64.359 1.80806 63.9835 1.9605 63.6083C2.02745 63.4444 2.09444 63.2806 2.16148 63.1167C2.19742 63.0288 2.23337 62.9409 2.26931 62.853C2.94806 61.1936 3.62899 59.5351 4.31232 57.8776C4.56667 57.2607 4.82077 56.6436 5.07491 56.0266C5.13675 55.8765 5.1986 55.7263 5.26045 55.5761C5.28999 55.5044 5.28999 55.5044 5.32013 55.4313C5.43159 55.1607 5.5431 54.8901 5.65468 54.6196C5.99648 53.7908 6.33685 52.9614 6.67685 52.1318C6.7007 52.0736 6.72455 52.0154 6.74912 51.9555C6.99469 51.3563 7.24019 50.7571 7.48552 50.1578C7.60484 49.8664 7.7242 49.5749 7.84358 49.2835C7.86713 49.226 7.89069 49.1685 7.91496 49.1092C8.21097 48.3867 8.50854 47.6649 8.80829 46.944C9.18381 46.0407 9.55367 45.135 9.92305 44.2291C10.3629 43.1503 10.8055 42.0727 11.2496 40.9957C11.6367 40.057 12.0227 39.1179 12.4074 38.1782C12.7593 37.3186 13.1131 36.4599 13.4697 35.6024C13.6979 35.0531 13.9238 34.5029 14.1488 33.9523C14.341 33.4817 14.5339 33.0114 14.7274 32.5413C14.8249 32.3043 14.9223 32.0673 15.0184 31.8296C15.7759 29.9593 16.8073 28.429 18.2163 27.0061C18.2567 26.962 18.2972 26.918 18.3389 26.8726C19.1325 26.0234 20.1182 25.3759 21.1186 24.8042C21.1822 24.7677 21.1822 24.7677 21.247 24.7305C23.1892 23.6357 25.3661 23.1916 27.5681 23.1942Z" fill="#E4E4E4"/>
<path d="M33.2341 40.926C33.295 40.9257 33.3559 40.9254 33.4187 40.925C33.622 40.9243 33.8252 40.9249 34.0284 40.9255C34.176 40.9252 34.3235 40.9249 34.471 40.9244C34.8758 40.9234 35.2805 40.9237 35.6853 40.9242C36.0771 40.9245 36.469 40.9238 36.8609 40.9232C37.7116 40.9219 38.5622 40.9218 39.4129 40.9221C40.1572 40.9224 40.9014 40.9224 41.6457 40.922C41.7455 40.9219 41.8454 40.9219 41.9452 40.9218C42.0957 40.9218 42.2462 40.9217 42.3966 40.9216C43.7952 40.9209 45.1937 40.9206 46.5923 40.9211C46.645 40.9211 46.6977 40.9211 46.752 40.9212C47.1799 40.9213 47.6079 40.9215 48.0359 40.9217C49.7063 40.9223 51.3768 40.9218 53.0472 40.9202C54.924 40.9185 56.8008 40.9176 58.6776 40.9181C58.8776 40.9182 59.0776 40.9182 59.2776 40.9183C59.3268 40.9183 59.3761 40.9183 59.4268 40.9183C60.1708 40.9184 60.9149 40.9179 61.6589 40.917C62.5046 40.916 63.3502 40.916 64.1959 40.9172C64.6275 40.9178 65.0592 40.9179 65.4909 40.9169C65.8857 40.9159 66.2804 40.9162 66.6752 40.9175C66.8184 40.9178 66.9616 40.9176 67.1048 40.9169C67.2987 40.916 67.4926 40.9168 67.6865 40.918C67.7427 40.9173 67.7989 40.9167 67.8568 40.916C68.1221 40.9194 68.2507 40.9306 68.4793 41.0793C68.6764 41.2851 68.7371 41.4015 68.7618 41.689C68.7398 42.0203 68.6383 42.2705 68.5096 42.5731C68.4848 42.6331 68.46 42.6931 68.4345 42.7549C68.353 42.952 68.2704 43.1485 68.1877 43.3451C68.1304 43.4832 68.0731 43.6213 68.0159 43.7595C67.8986 44.0427 67.7808 44.3258 67.6628 44.6088C67.4335 45.1589 67.2081 45.7107 66.9828 46.2624C66.868 46.5431 66.753 46.8236 66.6379 47.104C66.6043 47.1858 66.6043 47.1858 66.5701 47.2691C66.3115 47.8992 66.0519 48.5289 65.7923 49.1586C65.4209 50.0595 65.0515 50.9613 64.6829 51.8634C63.906 53.765 63.1291 55.6666 62.3459 57.5656C61.6858 59.1665 61.0289 60.7686 60.3794 62.3739C59.7915 63.8267 59.1935 65.2753 58.5956 66.7239C58.4012 67.1949 58.207 67.666 58.0129 68.1372C57.9934 68.1846 57.9738 68.2321 57.9537 68.281C57.3276 69.8006 56.7048 71.3215 56.0828 72.8429C55.8073 73.5167 55.5316 74.1904 55.2549 74.8638C55.2155 74.9597 55.2155 74.9597 55.1754 75.0576C55.058 75.3428 54.9395 75.6274 54.8179 75.9108C54.798 75.9572 54.7781 76.0036 54.7576 76.0514C54.523 76.5331 54.1318 76.8225 53.6389 77.0111C53.1533 77.1505 52.6144 77.1001 52.1151 77.0944C51.9753 77.0943 51.8354 77.0944 51.6956 77.0946C51.318 77.0947 50.9404 77.0924 50.5628 77.0896C50.1674 77.0871 49.7721 77.0868 49.3767 77.0864C48.6289 77.0851 47.8812 77.0818 47.1334 77.0778C46.2817 77.0733 45.43 77.0711 44.5783 77.0691C42.8271 77.0649 41.0759 77.0579 39.3248 77.049C39.3152 76.8902 39.3152 76.8902 39.3248 76.7154C39.457 76.6033 39.57 76.5301 39.7206 76.4485C40.8773 75.8198 41.8644 75.0921 42.8208 74.1799C42.8984 74.1068 42.8984 74.1068 42.9775 74.0323C45.1358 71.9349 46.6645 68.5835 46.726 65.5503C46.7439 64.0489 46.7439 64.0489 46.5148 62.5699C46.4951 62.4875 46.4951 62.4875 46.475 62.4035C45.9306 60.1968 44.89 58.2712 43.4145 56.5648C43.3577 56.4948 43.301 56.4248 43.2444 56.3547C43.1122 56.1972 42.9843 56.0638 42.8291 55.9309C42.762 55.8727 42.762 55.8727 42.6935 55.8133C42.6028 55.7363 42.5118 55.6597 42.4204 55.5834C42.3784 55.5481 42.3364 55.5127 42.2931 55.4763C42.255 55.4449 42.2169 55.4135 42.1777 55.3812C42.0952 55.297 42.0952 55.297 42.0952 55.1636C42.0366 55.1371 42.0366 55.1371 41.9767 55.1101C41.8261 55.0272 41.7341 54.9431 41.617 54.8174C41.4554 54.6487 41.2906 54.4905 41.114 54.3378C40.8668 54.1226 40.6382 53.8928 40.4111 53.656C40.2336 53.481 40.0483 53.318 39.8612 53.1537C39.6289 52.9467 39.405 52.731 39.1805 52.5154C38.8441 52.1938 38.5071 51.8731 38.1663 51.5563C37.8499 51.262 37.5356 50.9656 37.2222 50.668C37.1783 50.6263 37.1343 50.5846 37.089 50.5417C36.9087 50.3705 36.7284 50.1993 36.5482 50.028C36.4143 49.9007 36.2803 49.7735 36.1462 49.6463C36.1058 49.6079 36.0655 49.5694 36.024 49.5298C35.8546 49.3695 35.6874 49.2177 35.5038 49.0737C35.4587 49.0356 35.4135 48.9975 35.367 48.9582C35.367 48.9142 35.367 48.8702 35.367 48.8248C35.3313 48.8106 35.2956 48.7964 35.2588 48.7818C35.0469 48.6587 34.8915 48.4886 34.7239 48.3118C34.4663 48.042 34.2006 47.7894 33.9199 47.5441C33.6916 47.3418 33.4722 47.1302 33.2521 46.919C33.1539 46.8252 33.0557 46.7315 32.9575 46.6378C32.884 46.5675 32.884 46.5675 32.8089 46.4957C32.5819 46.2791 32.3544 46.063 32.1266 45.8472C32.0876 45.8102 32.0487 45.7732 32.0085 45.735C31.8197 45.5564 31.6286 45.3839 31.4293 45.2173C30.9362 44.7926 30.6077 44.1617 30.5311 43.5124C30.501 42.8419 30.7174 42.2684 31.1425 41.7567C31.7351 41.1493 32.4028 40.9192 33.2341 40.926Z" fill="#E4E4E4"/>
<path d="M80.6964 40.9331C80.7765 40.9326 80.7765 40.9326 80.8582 40.932C81.0365 40.9311 81.2149 40.931 81.3932 40.931C81.5213 40.9304 81.6494 40.9299 81.7775 40.9293C82.125 40.9278 82.4725 40.9272 82.8201 40.9269C83.0372 40.9266 83.2543 40.9262 83.4714 40.9257C84.2289 40.9241 84.9864 40.9232 85.7439 40.923C86.45 40.9228 87.1562 40.9208 87.8623 40.918C88.4687 40.9157 89.0751 40.9146 89.6814 40.9146C90.0436 40.9145 90.4057 40.9139 90.7678 40.912C91.1082 40.9103 91.4487 40.9102 91.7891 40.9112C91.914 40.9113 92.039 40.9109 92.1639 40.9098C92.3345 40.9085 92.505 40.9092 92.6756 40.9104C92.725 40.9095 92.7743 40.9086 92.8252 40.9077C93.2031 40.9138 93.3567 41.023 93.6121 41.285C93.7406 41.5449 93.7137 41.8324 93.633 42.104C93.5645 42.2795 93.4904 42.4515 93.4142 42.6237C93.3535 42.7657 93.293 42.9077 93.2326 43.0498C93.1987 43.1289 93.1649 43.208 93.13 43.2894C92.9347 43.749 92.7501 44.2131 92.5635 44.6763C92.2471 45.4607 91.9286 46.244 91.6002 47.0233C91.3097 47.7131 91.0274 48.4061 90.7468 49.1001C90.3438 50.0969 89.9365 51.092 89.5265 52.0859C89.4987 52.1534 89.4708 52.2209 89.4422 52.2904C89.4143 52.3579 89.3865 52.4253 89.3578 52.4949C89.3019 52.6305 89.2459 52.7661 89.19 52.9017C89.1625 52.9685 89.1349 53.0352 89.1066 53.104C88.8305 53.7734 88.5559 54.4434 88.2815 55.1135C87.8089 56.2673 87.3346 57.4203 86.8593 58.5729C86.6799 59.008 86.5007 59.4432 86.3215 59.8784C86.1977 60.1791 86.0737 60.4798 85.9496 60.7804C85.5527 61.7416 85.1598 62.7044 84.7671 63.6673C84.4523 64.439 84.1366 65.2104 83.8189 65.9809C83.7745 66.0887 83.7745 66.0887 83.7291 66.1987C83.5863 66.545 83.4434 66.8911 83.3004 67.2372C83.248 67.3641 83.1956 67.4909 83.1433 67.6178C83.1184 67.6781 83.0935 67.7384 83.0678 67.8005C82.9224 68.1537 82.781 68.5083 82.6424 68.8644C82.5039 69.2167 82.3552 69.5559 82.1758 69.8887C82.1506 69.936 82.1254 69.9833 82.0995 70.032C81.8717 70.4534 81.6192 70.8533 81.343 71.244C81.297 71.3097 81.251 71.3753 81.2036 71.4429C80.8903 71.878 80.5517 72.2749 80.1873 72.6658C80.0235 72.8413 80.0235 72.8413 79.8846 73.0224C79.6934 73.2625 79.464 73.4472 79.2322 73.6461C79.1694 73.7021 79.1066 73.7581 79.042 73.8158C78.5205 74.278 77.9756 74.6798 77.3852 75.0473C77.3413 75.0747 77.2974 75.1021 77.2521 75.1304C74.9881 76.5225 72.4413 77.0693 69.8193 77.0714C69.6917 77.0719 69.5641 77.0723 69.4365 77.0728C69.1716 77.0736 68.9067 77.0738 68.6417 77.0737C68.3028 77.0737 67.9638 77.0756 67.6249 77.0778C67.3625 77.0793 67.1001 77.0796 66.8377 77.0795C66.7126 77.0797 66.5875 77.0803 66.4625 77.0813C66.2883 77.0826 66.1141 77.0822 65.9399 77.0814C65.8888 77.0822 65.8377 77.0829 65.7851 77.0837C65.4425 77.0797 65.2486 77.0002 64.9841 76.7821C64.8125 76.5532 64.8399 76.3274 64.8522 76.0482C65.0259 75.3923 65.3229 74.7594 65.5862 74.1357C65.7032 73.8585 65.8191 73.5809 65.9352 73.3034C65.9597 73.2448 65.9842 73.1862 66.0095 73.1258C66.297 72.4377 66.5785 71.7471 66.86 71.0564C66.913 70.9262 66.9661 70.796 67.0192 70.6658C67.0986 70.4711 67.178 70.2763 67.2573 70.0815C67.5267 69.4206 67.7972 68.7601 68.0679 68.0997C68.0911 68.0432 68.1142 67.9867 68.138 67.9286C68.4771 67.1016 68.8174 66.2751 69.1582 65.4489C69.5515 64.4951 69.9415 63.5399 70.3313 62.5846C70.6415 61.8244 70.9519 61.0642 71.2653 60.3053C71.4352 59.8938 71.6042 59.482 71.7729 59.0701C71.7962 59.0131 71.8196 58.9561 71.8436 58.8974C71.8921 58.7791 71.9405 58.6608 71.9889 58.5426C72.0133 58.483 72.0377 58.4235 72.0628 58.3622C72.0872 58.3027 72.1115 58.2432 72.1366 58.1819C72.4454 57.4279 72.7558 56.6747 73.0687 55.9226C73.4033 55.1181 73.7315 54.3111 74.0582 53.5034C74.4338 52.5748 74.814 51.6482 75.196 50.7223C75.6379 49.6514 76.0778 48.5798 76.5153 47.507C76.9895 46.3445 77.4647 45.1825 77.9451 44.0226C78.0542 43.7586 78.1621 43.494 78.2686 43.2289C78.318 43.106 78.3679 42.9832 78.4178 42.8605C78.4772 42.7143 78.536 42.5678 78.594 42.421C78.7942 41.9321 79.0332 41.5068 79.496 41.2308C79.5572 41.193 79.5572 41.193 79.6197 41.1544C79.9774 40.9769 80.302 40.9318 80.6964 40.9331Z" fill="#E4E4E4"/>
</g>
</g>
<defs>
<clipPath id="clip0_2336_13383">
<rect width="100" height="100" fill="white" transform="translate(0.934082 0.125977)"/>
</clipPath>
<clipPath id="clip1_2336_13383">
<rect width="100" height="53.8462" fill="white" transform="translate(0.934082 23.2029)"/>
</clipPath>
</defs>
</svg>
