<svg width="101" height="101" viewBox="0 0 101 101" fill="none" xmlns="http://www.w3.org/2000/svg">
<g clip-path="url(#clip0_2336_10562)">
<path d="M29.1384 41.793C29.1384 43.0328 29.2718 44.0379 29.5044 44.775C29.7999 45.6043 30.1555 46.4105 30.5685 47.1871C30.7349 47.4551 30.8012 47.723 30.8012 47.9578C30.8012 48.2926 30.6019 48.6277 30.1695 48.9629L28.0743 50.3699C27.775 50.5711 27.4756 50.6714 27.2092 50.6714C26.8769 50.6714 26.5442 50.5039 26.2114 50.2023C25.7629 49.7175 25.3621 49.1902 25.0144 48.6277C24.6817 48.0586 24.3489 47.4215 23.9833 46.6512C21.3888 49.7332 18.1294 51.2743 14.2051 51.2746C11.4115 51.2746 9.18295 50.4703 7.55312 48.8625C5.92368 47.2539 5.09229 45.1098 5.09229 42.4297C5.09229 39.5821 6.09004 37.2704 8.11889 35.5282C10.1474 33.786 12.8416 32.9149 16.2673 32.9149C17.398 32.9149 18.5621 33.0153 19.7926 33.1829C21.0234 33.3505 22.2871 33.6184 23.6176 33.92V31.4743C23.6176 28.9278 23.0852 27.1524 22.0541 26.1138C20.99 25.0751 19.1938 24.5724 16.6329 24.5724C15.4688 24.5724 14.2718 24.7068 13.041 25.0083C11.8101 25.3099 10.6131 25.6782 9.44897 26.1474C8.91694 26.3817 8.51791 26.5157 8.28486 26.5829C8.0518 26.6501 7.88583 26.6833 7.75283 26.6833C7.2871 26.6833 7.05444 26.3482 7.05444 25.6446V24.0029C7.05444 23.4669 7.12114 23.065 7.2871 22.8306C7.45346 22.5958 7.75283 22.3615 8.21855 22.1271C9.38253 21.5237 10.7793 21.0211 12.4089 20.6193C14.0391 20.1837 15.7686 19.983 17.5977 19.983C21.5558 19.983 24.4494 20.8872 26.3119 22.6966C28.141 24.5056 29.0725 27.2528 29.0725 30.9384V41.793H29.1384ZM15.6352 46.8855C16.733 46.8855 17.8637 46.6848 19.0608 46.2824C20.2583 45.8805 21.3227 45.1434 22.2204 44.1383C22.7528 43.502 23.1519 42.7984 23.3512 41.9942C23.5509 41.1903 23.6839 40.2184 23.6839 39.0793V37.6723C22.6752 37.4252 21.6537 37.235 20.6239 37.1028C19.587 36.9702 18.5429 36.9031 17.4977 36.9016C15.2691 36.9016 13.6397 37.3371 12.5423 38.2418C11.4449 39.1465 10.9124 40.4196 10.9124 42.0945C10.9124 43.6691 11.3115 44.8418 12.1429 45.6461C12.9413 46.4836 14.1054 46.8855 15.6352 46.8855ZM42.3422 50.5039C41.7435 50.5039 41.3445 50.4035 41.0784 50.1687C40.8124 49.9679 40.5794 49.4988 40.3801 48.8625L32.5644 22.9646C32.3643 22.2943 32.2647 21.8587 32.2647 21.6244C32.2647 21.0884 32.5307 20.7865 33.0631 20.7865H36.3224C36.954 20.7865 37.3868 20.8872 37.6195 21.1216C37.8855 21.3228 38.0852 21.7919 38.2845 22.4283L43.872 44.6074L49.0605 22.4283C49.2268 21.7583 49.4265 21.3228 49.6922 21.1216C49.9586 20.9208 50.4243 20.7869 51.023 20.7869H53.6836C54.3152 20.7869 54.748 20.8872 55.0136 21.1216C55.28 21.3228 55.5127 21.7919 55.6457 22.4283L60.9009 44.8754L66.6543 22.4283C66.8536 21.7583 67.0867 21.3228 67.3194 21.1216C67.5854 20.9208 68.0178 20.7869 68.6165 20.7869H71.7094C72.2418 20.7869 72.5412 21.0548 72.5412 21.6244C72.5412 21.7919 72.5078 21.9595 72.4745 22.1603C72.4411 22.3611 72.3748 22.6294 72.2418 22.9982L64.2261 48.8957C64.0268 49.566 63.794 50.0015 63.5277 50.2023C63.2617 50.4035 62.8293 50.5375 62.2643 50.5375H59.4041C58.772 50.5375 58.3396 50.4371 58.0732 50.2023C57.8072 49.9679 57.5745 49.5324 57.4415 48.8625L52.286 27.2528L47.1642 48.8285C46.9983 49.4988 46.7986 49.9343 46.5325 50.1687C46.2665 50.4035 45.8008 50.5039 45.2025 50.5039H42.3422ZM85.08 51.4086C83.3505 51.4086 81.621 51.2074 79.9582 50.8054C78.295 50.4035 76.9983 49.9675 76.1336 49.4656C75.6011 49.1636 75.2351 48.8289 75.1025 48.5273C74.9731 48.2315 74.9052 47.9122 74.9028 47.589V45.8805C74.9028 45.1769 75.1688 44.8418 75.6678 44.8418C75.8715 44.8426 76.0737 44.8766 76.2666 44.9426C76.4659 45.0098 76.7653 45.1434 77.098 45.2773C78.2726 45.7981 79.4989 46.1912 80.7563 46.45C82.0591 46.7161 83.385 46.8507 84.7143 46.8519C86.8095 46.8519 88.4393 46.4836 89.5701 45.7465C90.7008 45.0094 91.2996 43.9375 91.2996 42.5637C91.2996 41.6258 91.0002 40.8551 90.4015 40.2184C89.8027 39.5817 88.672 39.0125 87.0425 38.4762L82.2197 36.9688C79.7919 36.1981 77.9961 35.059 76.8983 33.5512C75.8009 32.077 75.2355 30.4356 75.2355 28.6935C75.2355 27.2864 75.5348 26.0467 76.1336 24.9743C76.7319 23.9025 77.5303 22.9646 78.5281 22.2275C79.5258 21.4568 80.6566 20.8872 81.9871 20.4853C83.3172 20.0833 84.7139 19.9158 86.1774 19.9158C86.9091 19.9158 87.6742 19.9494 88.406 20.0498C89.1711 20.1501 89.8694 20.2841 90.5678 20.4181C91.2329 20.5857 91.8649 20.7533 92.4637 20.9544C93.0621 21.1552 93.5277 21.3561 93.8604 21.5572C94.3262 21.8255 94.6585 22.0935 94.8582 22.3951C95.0578 22.663 95.1576 23.0315 95.1576 23.5005V25.0751C95.1576 25.7786 94.8915 26.1474 94.3925 26.1474C94.1265 26.1474 93.6941 26.013 93.1291 25.745C91.2327 24.8739 89.1041 24.4384 86.7432 24.4384C84.8473 24.4384 83.3505 24.74 82.3194 25.3767C81.2887 26.013 80.7563 26.9849 80.7563 28.3583C80.7563 29.2966 81.089 30.1005 81.754 30.7372C82.4191 31.3739 83.6499 32.0102 85.4127 32.5798L90.1354 34.0876C92.53 34.8583 94.2595 35.9301 95.2906 37.3036C96.3217 38.677 96.8207 40.252 96.8207 41.9942C96.8207 43.4348 96.521 44.7414 95.9556 45.8805C95.3573 47.0195 94.5588 48.0246 93.5277 48.8289C92.4966 49.6664 91.2662 50.2695 89.8361 50.705C88.3393 51.1742 86.7761 51.4086 85.08 51.4086Z" fill="#E4E4E4"/>
<path d="M91.3663 67.6904C80.4244 75.8318 64.5263 80.1536 50.8571 80.1536C31.6997 80.1536 14.4386 73.0173 1.40112 61.1573C0.370017 60.2194 1.30107 58.9463 2.53149 59.6831C16.6334 67.9252 34.028 72.917 52.0212 72.917C64.1606 72.917 77.4975 70.3709 89.7702 65.1444C91.5994 64.3065 93.1625 66.3506 91.3663 67.6904ZM95.9231 62.4639C94.5263 60.6549 86.6769 61.5928 83.1183 62.0283C82.0539 62.1627 81.8875 61.2244 82.8523 60.5209C89.1048 56.0983 99.3821 57.3717 100.579 58.8456C101.777 60.3534 100.246 70.7056 94.3929 75.6642C93.4952 76.4349 92.6305 76.033 93.0295 75.0279C94.3596 71.7107 97.3199 64.2397 95.9231 62.4639Z" fill="#E4E4E4"/>
</g>
<defs>
<clipPath id="clip0_2336_10562">
<rect width="100" height="100" fill="white" transform="translate(0.958008 0.034668)"/>
</clipPath>
</defs>
</svg>
