<svg width="101" height="101" viewBox="0 0 101 101" fill="none" xmlns="http://www.w3.org/2000/svg">
<g clip-path="url(#clip0_2336_10517)">
<path d="M51.0229 84.6462C52.1541 84.6462 53.2668 84.3347 54.2502 83.741L77.1592 69.9389C79.2072 68.7038 80.4752 66.3839 80.4752 63.8771V36.4963C80.4752 33.9968 79.2072 31.6733 77.1592 30.4345L54.2502 16.6325C52.2798 15.445 49.7586 15.4524 47.7993 16.6325L24.8903 30.4419C22.8423 31.677 21.5669 33.9968 21.5669 36.5037V63.8808C21.5669 65.9918 22.4726 67.9782 23.9883 69.2866V69.2975L47.7993 83.7483C48.7752 84.3347 49.8916 84.6462 51.0229 84.6462ZM51.2631 18.2927C51.984 18.2927 52.9008 18.7361 53.533 19.1209L75.9947 32.7508C77.381 33.5864 78.1647 36.0052 78.1647 37.7461L77.9318 63.8771C77.9318 65.618 76.7488 67.1829 75.3625 68.0185L53.0339 81.3515C51.7659 82.1174 50.7345 82.1174 49.4628 81.3515L26.8348 67.9855C25.4485 67.1499 24.3321 65.6106 24.3321 63.8771V36.8885C24.3321 35.1513 25.3413 33.3591 26.735 32.5199L49.1301 19.1209C49.7586 18.7398 50.5423 18.2927 51.2631 18.2927Z" fill="#191919"/>
<path fill-rule="evenodd" clip-rule="evenodd" d="M53.9431 19.6045C53.0374 19.0548 52.0319 18.7799 51.0227 18.7799C50.0134 18.7799 49.0079 19.0584 48.1022 19.6045L27.3522 32.1862C25.4964 33.3113 24.3467 35.4187 24.3467 37.7092V62.6673C24.3467 64.9505 25.4927 67.0652 27.3522 68.1903L48.1022 80.772C49.0079 81.3217 50.0134 81.5966 51.0227 81.5966C52.0319 81.5966 53.0374 81.3254 53.9431 80.772L74.6932 68.1903C76.549 67.0652 77.6987 64.9505 77.6987 62.6673V37.7092C77.6987 35.426 76.5527 33.3187 74.6932 32.1862L53.9431 19.6045Z" fill="#191919"/>
<path fill-rule="evenodd" clip-rule="evenodd" d="M51.0228 19.3188C51.6438 19.3188 52.3425 19.6376 53.1041 20.0957L74.7192 33.1209C76.0685 33.9345 76.9595 35.4994 76.9595 37.2696V63.0997C76.9595 64.8662 76.0685 66.4348 74.7192 67.2484L53.1077 80.2736C52.3832 80.7097 51.6734 80.9846 51.0265 80.9846C50.3795 80.9846 49.6697 80.7097 48.9452 80.2736L27.3264 67.2521C26.5833 66.8013 26.0473 66.3615 25.685 65.7715C25.3227 65.1851 25.0861 64.3715 25.0861 63.1034V37.2732C25.0861 35.5031 25.9771 33.9381 27.3264 33.1245L48.9378 20.0994C49.7104 19.6413 50.398 19.3188 51.0228 19.3188ZM53.873 81.5306L75.4844 68.5055C77.3033 67.4097 78.4345 65.35 78.4345 63.1034V37.2732C78.4345 35.0266 77.3033 32.9669 75.4844 31.8711L53.873 18.846C53.093 18.3769 52.0911 17.8528 51.0228 17.8528C49.9507 17.8528 48.9489 18.3805 48.1762 18.8423H48.1725L26.5575 31.8711C24.7386 32.9669 23.6074 35.0266 23.6074 37.2732V63.1034C23.6074 64.5547 23.881 65.6505 24.4207 66.5338C24.9604 67.4133 25.722 67.9997 26.5575 68.5018L48.1688 81.527C48.9895 82.0217 49.9766 82.4542 51.0191 82.4542C52.0616 82.4542 53.0523 82.0254 53.873 81.5306Z" fill="#E4E4E4"/>
<path d="M34.2212 50.5052L34.1952 58.8486L50.7737 68.4995L67.2886 58.9678V51.3044H67.88V59.1367C67.8799 59.241 67.8239 59.3373 67.7331 59.3898L50.9217 69.0929C50.8294 69.1461 50.7152 69.1458 50.6232 69.0921L33.7494 59.2692C33.6587 59.2163 33.6032 59.1197 33.6035 59.0154L33.6299 50.5031L34.2212 50.5052Z" fill="#636363"/>
<path d="M50.5918 29.8685C50.6758 29.8342 50.772 29.8396 50.8521 29.8853L67.7226 39.5294C67.8142 39.5817 67.8706 39.6787 67.8706 39.7835V43.7648H67.2793V39.9528L50.7044 30.4777L34.2476 39.8941V43.3027H33.6562V39.7251L33.6588 39.6861C33.6708 39.5967 33.7242 39.5169 33.8043 39.471L50.5564 29.8853L50.5918 29.8685Z" fill="#636363"/>
<path d="M65.7081 55.2173V57.8908C65.7081 57.9952 65.6522 58.0917 65.5612 58.1442L61.0958 60.7204L60.7983 60.2136L65.1168 57.7219V55.2173H65.7081Z" fill="#BCBCBC"/>
<path d="M50.6052 32.3826C50.6889 32.3486 50.7847 32.3543 50.8644 32.3994L56.4417 35.5576L56.2952 35.8124L56.1482 36.0669L50.7179 32.9918L45.1593 36.1606L44.8647 35.6524L50.5702 32.3998L50.6052 32.3826Z" fill="#DADADA"/>
<path d="M36.3701 55.4452V57.6255L39.9218 59.6939L39.6222 60.1996L35.9247 58.0464C35.8343 57.9938 35.7788 57.8977 35.7788 57.7937V55.4452H36.3701Z" fill="#BCBCBC"/>
<path d="M50.6081 35.04C50.6921 35.0057 50.7884 35.0114 50.8684 35.0571L53.3817 36.4948L53.0861 37.0027L50.7203 35.6498L48.4633 36.9411L48.168 36.4333L50.5727 35.0571L50.6081 35.04Z" fill="#BCBCBC"/>
<path d="M57.7353 39.4808C56.2333 39.3555 54.7321 39.7301 53.4689 40.5453C52.2057 41.3606 51.2525 42.57 50.7602 43.9824C50.26 42.5693 49.3008 41.3606 48.0332 40.5459C46.7655 39.7313 45.261 39.3567 43.7555 39.4808C37.4561 39.9687 37.1117 46.152 37.1936 48.5167C37.2363 50.2081 37.5709 55.539 50.5831 64.8025L50.698 64.8805L50.8128 64.8025C63.8872 55.539 64.2221 50.1137 64.2646 48.3605C64.3892 46.0576 64.035 39.9687 57.7353 39.4808Z" fill="#E4E4E4"/>
<path d="M43.2112 37.4204C43.8017 37.3722 44.3372 37.3433 44.8949 37.3879C45.6036 37.4446 46.3334 37.6176 47.2769 37.9888L47.4686 38.0654L47.4856 38.0729C48.5948 38.5797 49.696 39.134 50.7484 40.4147C51.1105 39.963 51.4725 39.5935 51.8831 39.2679C52.4325 38.8322 53.0514 38.4889 53.8373 38.1284L53.99 38.06C55.4599 37.4168 56.7386 37.3102 58.299 37.4129L58.6261 37.4373L58.6582 37.4408L58.9748 37.4935C62.2032 38.0805 64.1254 39.9666 65.2164 42.0463C66.3303 44.1698 66.5813 46.496 66.5208 47.8769L66.5211 47.8773C66.4883 48.9313 66.4098 51.0589 64.4254 54.2637C62.453 57.4491 58.6099 61.6806 51.1011 67.0004L51.0979 67.0025L50.9665 67.0938C50.8072 67.2046 50.5951 67.2045 50.4358 67.0938L50.3044 67.0029L50.3004 66.9996C42.8266 61.6801 39.0012 57.4687 37.0389 54.3124C35.0645 51.1367 34.9875 49.0464 34.9598 48.0251L34.9602 48.0247C34.9057 46.6506 34.9342 44.337 35.9107 42.2038C36.9037 40.0348 38.8612 38.0892 42.5639 37.4777L42.5996 37.4731L43.2112 37.4204ZM44.8206 38.3012C44.176 38.2497 43.5636 38.309 42.6985 38.3843C39.3226 38.9468 37.6214 40.684 36.7523 42.5825C35.9221 44.3959 35.8379 46.3889 35.8746 47.7345L35.8837 47.9947V48.0004C35.9085 48.9144 35.9613 50.8331 37.8256 53.8317C39.6902 56.8309 43.3782 60.9261 50.7011 66.1564C58.0584 60.9257 61.7634 56.8114 63.6377 53.7845C65.5117 50.758 65.5676 48.8018 65.5973 47.849L65.5976 47.8429C65.654 46.5819 65.4201 44.4202 64.3966 42.469C63.3849 40.5405 61.6062 38.8189 58.5315 38.3488C56.9687 38.2232 55.813 38.2918 54.4929 38.8427L54.2253 38.9601C53.4725 39.3055 52.928 39.6125 52.4604 39.9834C51.9947 40.3527 51.5874 40.7993 51.1268 41.4411C51.0398 41.5622 50.8991 41.634 50.7491 41.6337C50.5992 41.6333 50.4585 41.5609 50.3722 41.4393C49.3497 39.9975 48.2966 39.4526 47.1101 38.91C46.1397 38.5134 45.4562 38.3521 44.8206 38.3012Z" fill="#191919"/>
<path d="M55.1671 35.6944C56.3766 35.468 57.2228 35.3738 58.0523 35.4106C58.7764 35.4426 59.4746 35.5739 60.3744 35.7874L60.7729 35.8841L60.8029 35.8927L61.0939 35.9968C64.0647 37.1044 65.9395 39.2043 67.0578 41.409C68.2085 43.6776 68.5663 46.0708 68.5001 47.653C68.4649 48.8456 68.4605 51.1589 66.2672 54.7158C64.0824 58.2589 59.7356 63.0221 51.0595 69.1683L51.0559 69.1708L50.905 69.2749C50.7844 69.358 50.6244 69.358 50.5039 69.2749L50.353 69.1708C50.3515 69.1698 50.3501 69.1686 50.3486 69.1676C41.7133 63.0212 37.4676 58.2797 35.376 54.767C34.3288 53.0083 33.8219 51.5582 33.5749 50.3967C33.3282 49.2367 33.3432 48.3713 33.3286 47.8201L33.329 47.8198C33.265 46.25 33.2395 43.8761 34.1832 41.6098C35.1367 39.3198 37.0666 37.1692 40.8424 36.0412L40.8648 36.0355L41.2186 35.9567C42.916 35.59 44.4356 35.442 46.4511 35.8443L46.6613 35.888L46.662 35.8884L46.9486 35.9539C48.29 36.277 49.2864 36.7614 50.7497 37.7487C52.0766 36.7362 53.1811 36.2577 55.1353 35.7019L55.1671 35.6944ZM58.0209 36.106C57.2739 36.0729 56.4927 36.1555 55.3126 36.3758C53.3285 36.941 52.3067 37.4054 50.9822 38.452C50.861 38.5478 50.6909 38.5538 50.5635 38.4663C48.9245 37.3415 47.9532 36.881 46.5125 36.5684V36.5687C44.3886 36.1124 42.8709 36.2909 41.0316 36.7119C37.4672 37.7804 35.7043 39.7813 34.8323 41.8757C34.0055 43.8614 33.9685 45.9575 34.0196 47.4966L34.0308 47.7968V47.8019L34.0409 48.2725C34.054 48.7875 34.0891 49.4391 34.2622 50.2531C34.4927 51.337 34.9704 52.7163 35.9807 54.413C37.9999 57.8043 42.1486 62.4664 50.7046 68.5634C59.3025 62.4657 63.5552 57.7793 65.6683 54.3525C67.7745 50.9367 67.7648 48.7592 67.7983 47.6283V47.624L67.8051 47.3391C67.815 45.8684 67.4555 43.7429 66.4304 41.7218C65.3424 39.5769 63.5127 37.5629 60.5881 36.5558C59.5015 36.2888 58.7696 36.1391 58.0209 36.106Z" fill="#BCBCBC"/>
<path d="M63.3689 43.3031C63.8942 45.4088 63.7204 47.6262 62.8735 49.6262C61.4661 52.7845 58.4148 55.3151 53.9625 57.1787C53.7608 56.9618 53.5147 56.7899 53.2407 56.6748C52.9645 56.559 52.6678 56.4996 52.368 56.4989C51.9368 56.4989 51.515 56.6231 51.154 56.857C50.7958 57.0912 50.515 57.425 50.3469 57.8164C50.1779 58.2101 50.1289 58.6444 50.2058 59.0655C50.2872 59.4851 50.4888 59.8721 50.7866 60.1811C51.0828 60.4896 51.4657 60.7026 51.8857 60.7927C52.3048 60.888 52.7432 60.8539 53.1422 60.6949C53.5426 60.5424 53.8884 60.2752 54.1359 59.9282C54.3835 59.5807 54.5217 59.1684 54.5332 58.7433C58.0089 57.31 61.0525 55.0109 63.3689 52.0691C64.1215 50.4595 64.4184 48.6775 64.2284 46.9135C64.1437 45.6714 63.8532 44.4517 63.3689 43.3031Z" fill="#191919"/>
<path d="M47.2135 56.1771L46.5901 56.8049C42.2068 52.521 40.8157 49.1188 42.653 47.3494C44.4903 45.5799 47.873 46.9558 52.2202 51.2526L51.5935 51.8803C51.5144 51.9569 51.4519 52.0489 51.4098 52.1504C51.3661 52.253 51.3448 52.3641 51.3475 52.4755C51.343 52.5873 51.3643 52.6983 51.4098 52.801C51.4519 52.9032 51.5144 52.9963 51.5935 53.074C51.6709 53.1524 51.7635 53.2144 51.8658 53.2561C51.9696 53.3001 52.0811 53.3232 52.1939 53.3243C52.307 53.3261 52.4191 53.3027 52.522 53.2561C52.6247 53.2151 52.7176 53.1532 52.7944 53.074L53.9755 51.903C54.1269 51.7458 54.2114 51.5367 54.2114 51.3193C54.2114 51.1018 54.1269 50.8927 53.9755 50.7353L53.3849 50.1499C50.4321 47.2225 45.4123 43.6445 42.2298 45.762C41.3335 44.9302 40.7677 43.8073 40.6353 42.5972C40.5315 41.6778 40.794 40.7547 41.3669 40.0244C40.4504 40.4254 39.6422 41.0349 39.0079 41.8036C38.8768 42.7621 38.9977 43.738 39.3589 44.6366C39.7238 45.5319 40.3188 46.3169 41.0847 46.9135C39.0079 50.0718 42.5808 55.045 45.537 57.9725L46.1275 58.5743C46.285 58.7268 46.4964 58.8118 46.7165 58.8118C46.9365 58.8118 47.1478 58.7268 47.3054 58.5743L48.5029 57.3869C48.6543 57.2296 48.7388 57.0207 48.7388 56.803C48.7388 56.5857 48.6543 56.3768 48.5029 56.2192C48.4284 56.1287 48.3357 56.0543 48.2306 56.0015C48.1275 55.9528 48.0163 55.9227 47.9025 55.9136C47.7845 55.9095 47.667 55.9304 47.558 55.9755C47.4261 56.0085 47.3065 56.0785 47.2135 56.1771Z" fill="#191919"/>
<path d="M50.6053 27.5176C50.6842 27.4854 50.7743 27.4909 50.8494 27.5337L69.7903 38.3585C69.8762 38.4076 69.9289 38.4983 69.929 38.5965V60.3176C69.929 60.4154 69.8767 60.506 69.7914 60.5553L50.9194 71.448C50.8329 71.498 50.726 71.4979 50.6396 71.4477L31.6954 60.4214C31.6104 60.3719 31.5583 60.2812 31.5586 60.1834L31.6275 38.5307L31.6301 38.4942C31.6416 38.4107 31.6914 38.3362 31.7662 38.2934L50.5725 27.5337L50.6053 27.5176ZM32.1813 38.6903L32.1135 60.027L50.7804 70.8918L69.3744 60.1598V38.7554L50.7107 28.0889L32.1813 38.6903Z" fill="#393939"/>
</g>
<defs>
<clipPath id="clip0_2336_10517">
<rect width="66.9118" height="70" fill="white" transform="translate(17.502 15.0347)"/>
</clipPath>
</defs>
</svg>
