<svg width="101" height="101" viewBox="0 0 101 101" fill="none" xmlns="http://www.w3.org/2000/svg">
<g clip-path="url(#clip0_2336_10534)">
<path d="M14.8811 31.4789C14.9192 31.4789 14.9573 31.4789 14.9965 31.4789C15.8789 33.0351 16.7349 34.6261 17.3627 36.3039C17.4687 36.116 17.516 35.9363 17.5611 35.7261C17.5758 35.6577 17.5906 35.5892 17.6057 35.5187C17.6208 35.4473 17.6358 35.3759 17.6513 35.3023C17.6663 35.2329 17.6813 35.1634 17.6968 35.0919C17.7841 34.6821 17.8563 34.2742 17.9094 33.8586C17.9195 33.8126 17.9295 33.7665 17.9398 33.7191C17.9779 33.7001 18.016 33.6812 18.0553 33.6616C18.0246 34.0016 17.9938 34.3415 17.963 34.6815C17.9525 34.7966 17.9421 34.9117 17.9318 35.0269C17.9217 35.1387 17.9115 35.2505 17.9014 35.3623C17.8912 35.4741 17.8812 35.5859 17.8713 35.6977C17.8473 35.9638 17.8204 36.2287 17.7849 36.4936C17.7169 37.0112 17.6862 37.4154 17.8821 37.9122C17.9208 38.0241 17.959 38.1362 17.9967 38.2484C18.0259 38.3345 18.0259 38.3345 18.0558 38.4223C19.2636 42.2098 18.5897 46.1358 16.7964 49.605C16.4787 50.2091 16.1266 50.7862 15.7468 51.3534C15.7204 51.3928 15.694 51.4322 15.6668 51.4728C15.4058 51.8602 15.1361 52.2407 14.8591 52.6169C13.816 54.0365 12.803 55.516 12.0456 57.1085C11.9974 57.2084 11.9468 57.3071 11.8961 57.4057C11.4309 58.3359 11.0447 59.3976 10.899 60.429C10.89 60.4925 10.89 60.4925 10.8808 60.5574C10.5405 63.0818 11.3057 65.494 12.3361 67.7767C12.3595 67.8285 12.3828 67.8803 12.4069 67.9338C12.4278 67.9794 12.4487 68.025 12.4702 68.072C12.5149 68.1835 12.5149 68.1835 12.5149 68.2984C11.4227 67.7949 10.3936 66.7459 9.51388 65.9433C9.48193 65.9144 9.44998 65.8855 9.41706 65.8557C8.68376 65.1919 8.68376 65.1919 8.39887 64.8513C8.28233 64.714 8.15859 64.5845 8.03501 64.4534C7.38965 63.7468 6.83854 62.9666 6.33972 62.1522C6.30492 62.0955 6.30492 62.0955 6.26941 62.0376C5.36445 60.5449 4.72955 58.7407 4.71003 56.9848C4.70918 56.9211 4.70918 56.9211 4.70831 56.8561C4.68116 54.292 5.35659 52.0809 6.51285 49.8025C6.53495 49.7584 6.55705 49.7143 6.57981 49.6688C7.40978 48.0308 8.57084 46.4904 9.73955 45.0793C9.91085 44.8722 10.0771 44.6615 10.2425 44.4497C10.446 44.1897 10.6548 43.9355 10.8701 43.685C11.1688 43.3371 11.4538 42.9799 11.7356 42.6183C11.8276 42.5008 11.9205 42.384 12.0135 42.2672C12.8102 41.2637 13.5343 40.2195 14.1886 39.1185C14.2231 39.0605 14.2231 39.0605 14.2584 39.0013C15.6079 36.7049 15.6363 34.3912 14.9965 31.881C14.9597 31.7463 14.9211 31.6126 14.8811 31.4789Z" fill="#E4E4E4"/>
<path d="M19.9025 41.9906C20.0532 42.1337 20.1753 42.2703 20.283 42.4477C20.31 42.4919 20.3369 42.5362 20.3647 42.5818C20.3931 42.6296 20.4215 42.6773 20.4507 42.7266C20.4959 42.8023 20.4959 42.8023 20.542 42.8795C22.4546 46.1211 23.5131 49.7433 23.4987 53.5111C23.4986 53.5685 23.4985 53.626 23.4983 53.6851C23.4955 54.6215 23.4564 55.5394 23.3075 56.4657C23.2926 56.5587 23.2926 56.5587 23.2775 56.6537C22.9985 58.3393 22.4787 59.9518 21.807 61.5204C23.4675 60.3944 24.4665 58.7809 25.3851 57.0401C25.4042 57.0401 25.4232 57.0401 25.4428 57.0401C25.4516 57.5785 25.4312 58.1058 25.3743 58.6412C25.3667 58.7131 25.359 58.785 25.3512 58.8591C25.0681 61.3545 24.2117 63.7144 22.4418 65.5413C22.4012 65.5853 22.3606 65.6294 22.3187 65.6748C20.4821 67.6105 17.5289 68.4223 14.9392 68.5856C14.7047 68.5916 14.4705 68.5912 14.2359 68.5892C14.1452 68.5888 14.1452 68.5888 14.0527 68.5884C13.9058 68.5878 13.7588 68.5868 13.6119 68.5856C13.0508 67.484 12.667 66.2853 12.3999 65.0818C12.3817 65.002 12.3817 65.002 12.3631 64.9207C12.1867 64.1174 12.1468 63.3233 12.1438 62.5041C12.1435 62.4576 12.1431 62.4111 12.1427 62.3632C12.1383 61.4573 12.2392 60.5661 12.5045 59.6967C12.5196 59.6463 12.5346 59.5959 12.5501 59.544C13.0878 57.7829 14.0812 56.2411 15.3256 54.8923C15.5679 54.6193 15.7888 54.3295 16.0125 54.0415C16.0909 53.9416 16.1705 53.8428 16.2506 53.7444C19.0505 50.2932 19.6805 46.2916 19.9025 41.9906Z" fill="#E4E4E4"/>
<path d="M17.9976 33.6617C18.0706 33.807 18.0529 33.884 18.0363 34.0451C18.0279 34.1288 18.0279 34.1288 18.0194 34.2143C18.0129 34.2749 18.0065 34.3355 17.9999 34.3979C17.9935 34.4603 17.9872 34.5226 17.9806 34.5869C17.9602 34.7871 17.9392 34.9873 17.9183 35.1875C17.9046 35.321 17.8909 35.4544 17.8772 35.5879C17.8233 36.1141 17.7684 36.6401 17.7091 37.1656C17.671 37.1656 17.6329 37.1656 17.5936 37.1656C17.5949 37.2324 17.5963 37.2992 17.5976 37.368C17.5974 37.6048 17.5693 37.8294 17.5301 38.0634C17.5233 38.1038 17.5166 38.1442 17.5096 38.1858C17.4877 38.3161 17.465 38.4463 17.4421 38.5765C17.4305 38.6435 17.4305 38.6435 17.4186 38.7119C17.1458 40.269 16.7546 41.8072 15.8623 43.1395C15.8288 43.2656 15.8288 43.2656 15.8079 43.4077C15.7988 43.4623 15.7897 43.517 15.7803 43.5733C15.7661 43.6623 15.7661 43.6623 15.7516 43.7531C15.7304 43.8804 15.7092 44.0077 15.688 44.135C15.677 44.2017 15.666 44.2684 15.6547 44.3371C15.121 47.5593 14.1576 50.251 12.212 52.8936C11.9756 53.2161 11.7524 53.5462 11.5339 53.8809C11.4941 53.9413 11.4941 53.9413 11.4535 54.003C11.0773 54.5767 10.7301 55.1516 10.4369 55.7715C10.3755 55.9 10.312 56.0274 10.2482 56.1547C8.92103 58.8306 9.34643 61.2442 10.2786 63.9904C10.3089 64.0786 10.3391 64.1667 10.3695 64.2549C10.5224 64.6996 10.6685 65.1424 10.7836 65.5988C8.55071 63.8019 7.12443 60.5774 6.78192 57.8006C6.37856 53.8438 8.17152 50.1736 10.6105 47.1603C10.7709 46.9659 10.9345 46.7743 11.0994 46.5837C11.2322 46.4289 11.3598 46.2713 11.487 46.112C11.8275 45.6953 12.2045 45.3118 12.5761 44.9227C14.4839 42.9216 15.9088 40.7281 16.9011 38.1421C16.9203 38.0939 16.9396 38.0456 16.9594 37.9959C17.4744 36.6963 17.7294 35.2273 17.9175 33.8457C17.9399 33.7192 17.9399 33.7192 17.9976 33.6617Z" fill="#E4E4E4"/>
<path d="M19.671 52.8469C19.69 52.8469 19.7091 52.8469 19.7287 52.8469C19.9428 54.5363 19.9428 54.5363 19.9595 55.1446C19.9611 55.2004 19.9627 55.2563 19.9643 55.3138C19.9999 56.8295 19.8889 58.3108 19.5264 59.7851C19.501 59.8981 19.4837 60.0129 19.4676 60.1275C19.4396 60.3174 19.3902 60.4786 19.3247 60.6589C19.3013 60.7285 19.278 60.7981 19.2539 60.8698C18.7837 62.2463 18.1312 63.5192 17.2471 64.6797C17.2132 64.7247 17.1794 64.7696 17.1445 64.8159C17.1212 64.8468 17.0979 64.8777 17.0739 64.9095C18.1007 64.8547 19.1935 64.3809 19.9595 63.7032C20.0455 63.9598 19.9297 64.101 19.8159 64.3371C18.9134 66.0987 17.3075 67.0694 15.4778 67.6811C14.5558 67.9739 14.5558 67.9739 14.1306 67.9538C13.6192 66.9477 13.4147 65.9158 13.42 64.791C13.4203 64.7182 13.4207 64.6454 13.421 64.5704C13.4573 61.7519 14.8256 59.5621 16.5609 57.4427C17.6228 56.1457 18.5636 54.797 19.3578 53.3191C19.3944 53.2512 19.3944 53.2512 19.4318 53.1819C19.453 53.1421 19.4742 53.1022 19.4961 53.0612C19.5555 52.9618 19.5555 52.9618 19.671 52.8469Z" fill="#E4E4E4"/>
<path d="M73.5747 50.9513C74.108 50.9513 74.6412 50.9513 75.1906 50.9513C75.1906 52.6573 75.1906 54.3633 75.1906 56.121C77.0951 56.121 78.9996 56.121 80.9619 56.121C80.9619 54.415 80.9619 52.709 80.9619 50.9513C81.5142 50.9513 82.0665 50.9513 82.6355 50.9513C82.6355 55.0646 82.6355 59.1779 82.6355 63.4159C82.0832 63.4159 81.5309 63.4159 80.9619 63.4159C80.9619 61.5014 80.9619 59.5869 80.9619 57.6144C79.0574 57.6144 77.1529 57.6144 75.1906 57.6144C75.1906 59.5289 75.1906 61.4434 75.1906 63.4159C74.6574 63.4159 74.1241 63.4159 73.5747 63.4159C73.5747 59.3026 73.5747 55.1893 73.5747 50.9513Z" fill="#E4E4E4"/>
<path d="M30.5791 50.9513C31.1124 50.9513 31.6456 50.9513 32.195 50.9513C32.195 52.6573 32.195 54.3633 32.195 56.121C34.0995 56.121 36.004 56.121 37.9662 56.121C37.9662 54.415 37.9662 52.709 37.9662 50.9513C38.5186 50.9513 39.0709 50.9513 39.6399 50.9513C39.6399 55.0646 39.6399 59.1779 39.6399 63.4159C39.0876 63.4159 38.5353 63.4159 37.9662 63.4159C37.9662 61.5014 37.9662 59.5869 37.9662 57.6144C36.0617 57.6144 34.1572 57.6144 32.195 57.6144C32.195 59.5289 32.195 61.4434 32.195 63.4159C31.6618 63.4159 31.1285 63.4159 30.5791 63.4159C30.5791 59.3026 30.5791 55.1893 30.5791 50.9513Z" fill="#E4E4E4"/>
<path d="M96.1578 51.8273C96.8349 52.465 97.0988 53.3355 97.1389 54.2434C97.1109 55.1332 96.8319 55.9914 96.1974 56.638C95.3173 57.3847 95.3173 57.3847 94.8701 57.3847C94.8701 57.4226 94.8701 57.4606 94.8701 57.4996C94.9125 57.5057 94.955 57.5118 94.9988 57.518C95.5236 57.6462 95.8717 58.1587 96.1397 58.591C96.4902 59.2564 96.6395 59.9704 96.8034 60.6983C96.8552 60.9261 96.9074 61.1537 96.9603 61.3811C96.9731 61.4363 96.986 61.4915 96.9992 61.5484C97.1178 62.0468 97.2683 62.5325 97.4338 63.0173C97.4728 63.1479 97.498 63.2824 97.5248 63.416C96.9725 63.416 96.4202 63.416 95.8512 63.416C95.6998 63.0771 95.578 62.7888 95.4943 62.4366C95.4839 62.3945 95.4735 62.3524 95.4627 62.3091C95.4408 62.2201 95.419 62.131 95.3975 62.0419C95.3637 61.9025 95.3293 61.7634 95.2947 61.6243C95.1996 61.241 95.1059 60.8576 95.0193 60.4724C94.8646 59.7931 94.6593 58.9033 94.0524 58.4779C94.0175 58.4584 93.9826 58.4388 93.9467 58.4187C93.8881 58.3858 93.8881 58.3858 93.8283 58.3523C93.0211 57.9527 92.0354 58.0471 91.1765 58.0166C91.1765 59.7984 91.1765 61.5802 91.1765 63.416C90.6432 63.416 90.11 63.416 89.5605 63.416C89.5605 59.3595 89.5605 55.3031 89.5605 51.1237C89.8375 51.0318 90.0546 50.9816 90.3397 50.9478C90.4129 50.9388 90.4861 50.9299 90.5615 50.9206C92.3993 50.7274 94.6489 50.5599 96.1578 51.8273ZM91.1765 52.2725C91.1765 53.751 91.1765 55.2296 91.1765 56.7529C93.1518 56.8604 93.1518 56.8604 94.8592 56.0564C95.2814 55.5958 95.4821 55.0141 95.5049 54.3978C95.4781 53.8378 95.3329 53.3513 94.9674 52.9187C94.9163 52.8761 94.8651 52.8334 94.8123 52.7895C94.7646 52.7472 94.7646 52.7472 94.7159 52.704C94.0997 52.1933 93.3466 52.1473 92.5796 52.1469C92.5087 52.1462 92.4377 52.1455 92.3647 52.1447C92.2949 52.1446 92.2252 52.1445 92.1533 52.1444C92.059 52.144 92.059 52.144 91.9629 52.1437C91.6978 52.1614 91.437 52.2207 91.1765 52.2725Z" fill="#E4E4E4"/>
<path d="M11.303 41.2438C11.303 41.4804 11.2081 41.5578 11.0613 41.7428C11.0357 41.7753 11.0101 41.8078 10.9837 41.8413C10.7452 42.1423 10.5018 42.4393 10.2581 42.736C10.0525 42.9865 9.85059 43.2395 9.651 43.4947C9.44745 43.7547 9.23864 44.0089 9.02339 44.2594C8.7267 44.6052 8.44212 44.9591 8.16289 45.319C8.0982 45.4021 8.03325 45.4851 7.96811 45.5679C6.01756 48.0485 4.37799 50.8069 3.80044 53.9382C3.79278 53.9783 3.78512 54.0184 3.77722 54.0598C3.04936 58.0554 4.8695 61.8554 7.03232 65.0817C6.79169 65.0817 6.73255 64.9823 6.5598 64.8196C6.50235 64.7661 6.44486 64.7126 6.38734 64.6592C6.30666 64.584 6.30666 64.584 6.22435 64.5073C6.15019 64.4422 6.07569 64.3775 6.00072 64.3134C5.24749 63.6599 4.49606 62.9772 3.85816 62.2096C3.81847 62.1627 3.81847 62.1627 3.77798 62.1148C1.84532 59.8264 0.773469 57.2522 0.984219 54.2304C1.26445 51.4918 2.86666 48.9954 4.66612 46.9878C4.70838 46.9401 4.75064 46.8923 4.79417 46.8431C4.92326 46.6986 5.05405 46.5558 5.18553 46.4134C5.217 46.3792 5.24847 46.345 5.28089 46.3097C5.72115 45.8321 6.16742 45.3738 6.65426 44.9428C6.78714 44.8236 6.91703 44.7013 7.04731 44.5793C7.36468 44.2825 7.68722 43.9979 8.0274 43.727C8.17084 43.6115 8.31113 43.493 8.45083 43.3732C8.86621 43.0175 9.29954 42.6901 9.74022 42.3663C9.86266 42.2759 9.98439 42.1846 10.1059 42.093C10.4975 41.7982 10.8879 41.5055 11.303 41.2438Z" fill="#E4E4E4"/>
<path d="M64.8022 50.9513C66.9734 50.9513 69.1445 50.9513 71.3814 50.9513C71.3814 51.4062 71.3814 51.8612 71.3814 52.3299C69.7436 52.3299 68.1057 52.3299 66.4182 52.3299C66.4182 53.6757 66.4182 55.0215 66.4182 56.4082C67.9227 56.4082 69.4273 56.4082 70.9774 56.4082C70.9774 56.8631 70.9774 57.318 70.9774 57.7867C69.4729 57.7867 67.9683 57.7867 66.4182 57.7867C66.4182 59.6444 66.4182 61.502 66.4182 63.4159C65.8849 63.4159 65.3517 63.4159 64.8022 63.4159C64.8022 59.3026 64.8022 55.1893 64.8022 50.9513Z" fill="#E4E4E4"/>
<path d="M50.4316 51.3534C52.8884 51.3534 55.3452 51.3534 57.8765 51.3534C57.8765 52.735 57.8765 52.735 57.4689 53.4931C57.4263 53.5767 57.384 53.6606 57.342 53.7445C57.2555 53.9169 57.1682 54.0887 57.0802 54.2602C56.9015 54.6115 56.7406 54.9705 56.5795 55.3301C56.2318 56.1052 55.8681 56.8725 55.5013 57.6389C55.1997 58.2694 54.9041 58.9021 54.6158 59.5387C54.2535 60.3384 53.8788 61.1319 53.4998 61.9239C53.4788 61.968 53.4577 62.0121 53.4359 62.0575C53.3972 62.1385 53.3585 62.2193 53.3196 62.3002C53.1422 62.6706 52.9707 63.0432 52.7978 63.4159C52.2265 63.4159 51.6551 63.4159 51.0665 63.4159C51.3906 62.6416 51.3906 62.6416 51.5588 62.3012C51.5859 62.2462 51.5859 62.2462 51.6135 62.19C51.6517 62.1122 51.69 62.0344 51.7284 61.9567C52.0432 61.3192 52.3519 60.6795 52.6499 60.0341C52.952 59.3808 53.2659 58.7339 53.583 58.0877C53.8859 57.4701 54.1807 56.8497 54.4691 56.2252C54.7833 55.5479 55.1125 54.8779 55.4423 54.2081C55.4638 54.1644 55.4853 54.1207 55.5074 54.0757C55.5472 53.9948 55.587 53.914 55.6269 53.8333C55.7874 53.5071 55.9362 53.178 56.0874 52.8469C54.221 52.8279 52.3546 52.8089 50.4316 52.7894C50.4316 52.3155 50.4316 51.8416 50.4316 51.3534Z" fill="#E4E4E4"/>
<path d="M42.2944 50.9513C42.8277 50.9513 43.361 50.9513 43.9104 50.9513C43.9104 54.6097 43.9104 58.2681 43.9104 62.0373C45.6244 62.0373 47.3385 62.0373 49.1045 62.0373C49.1045 62.4923 49.1045 62.9472 49.1045 63.4159C46.8571 63.4159 44.6098 63.4159 42.2944 63.4159C42.2944 59.3026 42.2944 55.1893 42.2944 50.9513Z" fill="#E4E4E4"/>
<path d="M85.29 50.9513C85.8233 50.9513 86.3566 50.9513 86.906 50.9513C86.906 55.0646 86.906 59.1779 86.906 63.4159C86.3727 63.4159 85.8395 63.4159 85.29 63.4159C85.29 59.3026 85.29 55.1893 85.29 50.9513Z" fill="#E4E4E4"/>
<path d="M25.4982 41.7642C25.8894 41.9806 26.1097 42.2603 26.2502 42.6799C26.2891 43.1386 26.2874 43.5541 26.0194 43.9436C25.7527 44.2494 25.4303 44.4202 25.0292 44.4787C24.6248 44.5007 24.2433 44.3915 23.935 44.1253C23.5818 43.7446 23.506 43.3824 23.5166 42.8709C23.5564 42.5122 23.6775 42.2326 23.955 41.9956C24.4188 41.6778 24.9524 41.5705 25.4982 41.7642ZM24.1293 42.3317C23.8716 42.6808 23.8451 42.9399 23.884 43.3692C23.9863 43.6866 24.1985 43.8651 24.4611 44.0585C24.689 44.1719 24.963 44.1411 25.2114 44.1159C25.5137 43.9682 25.6983 43.7606 25.8607 43.4697C25.9627 43.0973 25.9373 42.7762 25.7468 42.4383C25.5912 42.2209 25.4105 42.0758 25.1537 41.9906C24.7339 41.9492 24.417 42.0029 24.1293 42.3317Z" fill="#E4E4E4"/>
<path d="M60.7335 51.6155C61.0991 51.8383 61.3117 52.1415 61.4279 52.5489C61.519 52.9723 61.432 53.3586 61.2006 53.7206C60.9299 54.0625 60.6104 54.2331 60.1794 54.3024C59.8102 54.3207 59.4638 54.2031 59.1572 54.0065C58.8341 53.6849 58.6871 53.3386 58.6631 52.8864C58.6743 52.5235 58.78 52.1954 59.0236 51.9211C59.4888 51.4992 60.1353 51.3472 60.7335 51.6155ZM59.1789 52.2761C59.0315 52.5519 59.0096 52.7622 59.031 53.0767C59.1474 53.4127 59.289 53.6632 59.5829 53.8701C59.9059 53.9811 60.2366 54.0235 60.5536 53.873C60.7954 53.7038 60.9655 53.536 61.0509 53.249C61.0925 52.878 61.0965 52.5251 60.8999 52.1973C60.7139 51.9709 60.5055 51.8413 60.2164 51.7856C59.7601 51.7591 59.4594 51.9254 59.1789 52.2761Z" fill="#E4E4E4"/>
<path d="M100.372 51.6787C100.637 51.8884 100.828 52.1211 100.93 52.4447C100.975 52.9052 101.006 53.3883 100.699 53.7658C100.393 54.1023 100.058 54.2615 99.6065 54.3043C99.169 54.2846 98.8108 54.1333 98.5064 53.8233C98.2201 53.4169 98.1819 53.0448 98.2178 52.5596C98.2897 52.1813 98.496 51.9337 98.7949 51.6979C99.2387 51.4185 99.9189 51.406 100.372 51.6787ZM98.7769 52.1826C98.5709 52.4939 98.5145 52.7649 98.5641 53.134C98.6719 53.4749 98.8533 53.6751 99.1412 53.8807C99.3933 54.0062 99.7508 53.9828 100.015 53.8989C100.317 53.7413 100.478 53.5073 100.584 53.1914C100.613 52.8343 100.629 52.5155 100.411 52.2149C100.162 51.9723 99.9771 51.8052 99.6209 51.7949C99.2476 51.7992 99.0369 51.9098 98.7769 52.1826Z" fill="#E4E4E4"/>
<path d="M24.3467 42.3352C24.4836 42.3293 24.6205 42.3234 24.7615 42.3173C24.8041 42.3147 24.8466 42.3121 24.8905 42.3094C25.1164 42.3047 25.2049 42.3293 25.383 42.4708C25.5009 42.6224 25.5009 42.6224 25.5298 42.7696C25.4964 42.9317 25.4373 43.0168 25.3278 43.1394C25.3552 43.1998 25.3825 43.2602 25.4107 43.3225C25.4832 43.4899 25.5311 43.6476 25.5586 43.8287C25.4444 43.8287 25.3301 43.8287 25.2124 43.8287C25.199 43.792 25.1857 43.7554 25.172 43.7176C25.1157 43.5757 25.0595 43.4432 24.9815 43.3117C24.831 43.2422 24.831 43.2422 24.693 43.2543C24.693 43.4438 24.693 43.6334 24.693 43.8287C24.5787 43.8287 24.4644 43.8287 24.3467 43.8287C24.3467 43.3359 24.3467 42.843 24.3467 42.3352ZM24.693 42.565C24.693 42.6977 24.693 42.8304 24.693 42.9671C24.8613 42.9767 24.8613 42.9767 25.0392 42.9671C25.0773 42.9292 25.1154 42.8913 25.1546 42.8522C25.1363 42.7311 25.1363 42.7311 25.0969 42.6224C24.9636 42.6035 24.8303 42.5845 24.693 42.565Z" fill="#E4E4E4"/>
<path d="M59.5508 52.1576C59.6889 52.1529 59.8269 52.1482 59.9692 52.1433C60.0123 52.1412 60.0554 52.1391 60.0998 52.1369C60.2965 52.1337 60.3992 52.1449 60.5585 52.2626C60.6778 52.4302 60.6726 52.5306 60.6473 52.732C60.6262 52.7681 60.6051 52.8042 60.5833 52.8413C60.5152 53.001 60.5481 53.0652 60.6112 53.2239C60.6738 53.3844 60.705 53.4763 60.705 53.6511C60.5908 53.6511 60.4765 53.6511 60.3588 53.6511C60.3016 53.4805 60.2445 53.3099 60.1856 53.1341C60.0713 53.1152 59.9571 53.0962 59.8393 53.0767C59.8393 53.2662 59.8393 53.4558 59.8393 53.6511C59.7441 53.6511 59.6489 53.6511 59.5508 53.6511C59.5508 53.1583 59.5508 52.6654 59.5508 52.1576ZM59.8393 52.3874C59.8393 52.5201 59.8393 52.6528 59.8393 52.7895C60.0783 52.8015 60.0783 52.8015 60.301 52.732C60.2792 52.543 60.2792 52.543 60.1856 52.3874C60.0702 52.3851 59.9547 52.385 59.8393 52.3874Z" fill="#E4E4E4"/>
<path d="M99.083 52.1576C99.2211 52.1529 99.3592 52.1482 99.5014 52.1433C99.5445 52.1412 99.5876 52.1391 99.632 52.1369C99.8286 52.1337 99.9313 52.1448 100.09 52.2626C100.211 52.4313 100.209 52.5293 100.18 52.732C100.093 52.8685 100.093 52.8685 100.006 52.9618C100.044 52.9997 100.083 53.0376 100.122 53.0767C100.158 53.2136 100.158 53.2136 100.187 53.3711C100.196 53.4233 100.206 53.4756 100.216 53.5295C100.223 53.5696 100.23 53.6097 100.237 53.6511C100.123 53.6511 100.009 53.6511 99.891 53.6511C99.8338 53.4805 99.7767 53.3099 99.7178 53.1341C99.6036 53.1152 99.4893 53.0962 99.3716 53.0767C99.3716 53.2662 99.3716 53.4558 99.3716 53.6511C99.2763 53.6511 99.1811 53.6511 99.083 53.6511C99.083 53.1583 99.083 52.6654 99.083 52.1576ZM99.3716 52.3874C99.3716 52.5201 99.3716 52.6528 99.3716 52.7895C99.5399 52.7991 99.5399 52.7991 99.7178 52.7895C99.7559 52.7516 99.794 52.7137 99.8333 52.6746C99.8149 52.5535 99.8149 52.5535 99.7756 52.4448C99.6422 52.4259 99.5089 52.4069 99.3716 52.3874Z" fill="#E4E4E4"/>
<path d="M10.4371 65.1392C10.4752 65.1771 10.5133 65.215 10.5525 65.254C10.5906 65.2351 10.6287 65.2161 10.668 65.1966C10.706 65.3293 10.7441 65.462 10.7834 65.5987C10.6501 65.485 10.5167 65.3712 10.3794 65.254C10.3984 65.2161 10.4175 65.1782 10.4371 65.1392Z" fill="#393939"/>
</g>
<defs>
<clipPath id="clip0_2336_10534">
<rect width="100" height="100" fill="white" transform="translate(0.958008 0.034668)"/>
</clipPath>
</defs>
</svg>
