<svg width="101" height="101" viewBox="0 0 101 101" fill="none" xmlns="http://www.w3.org/2000/svg">
<g clip-path="url(#clip0_2336_10555)">
<path d="M90.2632 43.2025C90.2229 43.2025 90.1834 43.2144 90.1499 43.2369L88.3171 44.3072C88.2826 44.3286 88.2543 44.3585 88.2348 44.3941C88.2154 44.4297 88.2055 44.4698 88.2062 44.5103V46.6509C88.2062 46.7415 88.2491 46.8103 88.3171 46.8556L90.1499 47.9243C90.1834 47.9468 90.2228 47.9589 90.2632 47.9589C90.3035 47.9589 90.343 47.9468 90.3765 47.9243L92.2061 46.8556C92.2409 46.8338 92.2695 46.8034 92.2893 46.7675C92.3091 46.7316 92.3195 46.6912 92.3194 46.6501V44.5119C92.3198 44.4711 92.3096 44.4309 92.2898 44.3953C92.2699 44.3596 92.2411 44.3298 92.2061 44.3088L90.3757 43.2377C90.3424 43.2154 90.3033 43.2026 90.2632 43.2025ZM50.3472 56.0024C50.0136 56.0024 49.6815 56.0836 49.3987 56.243L40.3762 61.4984C40.0871 61.6683 39.8474 61.9108 39.6811 62.2019C39.5147 62.4929 39.4273 62.8225 39.4277 63.1578V73.6444C39.4277 74.3272 39.7887 74.9647 40.3762 75.3069L42.7511 76.6709C43.9043 77.2397 44.3113 77.2381 44.8308 77.2381C46.5261 77.2381 47.4988 76.192 47.4988 74.3944V64.0468C47.4978 63.9748 47.4689 63.906 47.4182 63.8549C47.3675 63.8037 47.2989 63.7742 47.2269 63.7726H46.0753C46.0031 63.7738 45.9341 63.8031 45.883 63.8543C45.832 63.9055 45.8029 63.9746 45.8019 64.0468V74.3967C45.8019 75.1928 44.9667 75.9905 43.6332 75.3085L41.1683 73.8749C41.0777 73.8296 41.0316 73.7139 41.0316 73.6233V63.1344C41.0316 63.0437 41.0777 62.9312 41.1683 62.8851L50.1878 57.6532C50.2558 57.6078 50.3698 57.6078 50.4604 57.6532L59.4822 62.8851C59.5721 62.9312 59.6166 63.0211 59.6166 63.1351V73.6225C59.6166 73.7358 59.5721 73.8288 59.4822 73.8741L50.4604 79.1295C50.3925 79.1748 50.2784 79.1748 50.1878 79.1295L47.8823 77.7397C47.8144 77.6944 47.7238 77.6717 47.6558 77.717C47.023 78.0811 46.912 78.1287 46.3011 78.3334C46.1652 78.3787 45.9394 78.4686 46.3909 78.7186L49.3987 80.517C49.6925 80.6756 50.0081 80.7662 50.3472 80.7662C50.6862 80.7662 51.0245 80.6764 51.2956 80.5631L60.3182 75.3077C60.6077 75.1376 60.8476 74.8946 61.0141 74.6029C61.1805 74.3112 61.2675 73.981 61.2666 73.6452V63.1578C61.2666 62.475 60.9057 61.8398 60.3182 61.4984L51.2956 56.243C51.005 56.0836 50.6786 56.0008 50.3472 56.0024ZM64.433 60.7914C63.9699 60.7933 63.5266 60.9789 63.2004 61.3075C62.8741 61.636 62.6917 62.0807 62.6931 62.5437C62.6919 63.0066 62.8744 63.4511 63.2006 63.7795C63.5268 64.1079 63.9701 64.2934 64.433 64.2953C65.3837 64.2953 66.1736 63.4992 66.1736 62.5437C66.1711 62.0818 65.9873 61.6394 65.6617 61.3117C65.3361 60.9841 64.8948 60.7967 64.433 60.7914ZM64.4095 61.0875C64.6021 61.0851 64.7933 61.121 64.9719 61.1932C65.1504 61.2654 65.3129 61.3723 65.4498 61.5078C65.5867 61.6433 65.6952 61.8047 65.7692 61.9825C65.8432 62.1604 65.881 62.3511 65.8806 62.5437C65.8806 63.3406 65.2244 64.0234 64.4103 64.0234C63.6197 64.0234 62.9634 63.3625 62.9634 62.5437C62.9634 61.725 63.6416 61.0875 64.4095 61.0875ZM63.7775 61.5648V63.5664H64.1634V62.7726H64.5025C64.6384 62.7726 64.683 62.818 64.7056 62.9312C64.7056 62.9547 64.7728 63.4547 64.7728 63.5453H65.1791C65.1337 63.4547 65.1111 63.1812 65.0884 63.0219C65.0665 62.7719 65.0447 62.5898 64.7728 62.5672C64.9087 62.5211 65.1345 62.4531 65.1345 62.0891C65.1345 61.5656 64.6814 61.5656 64.4564 61.5656L63.7775 61.5648ZM64.1173 61.8836H64.433C64.547 61.8836 64.7267 61.8836 64.7267 62.1562C64.7267 62.2469 64.683 62.4305 64.433 62.4305H64.1166L64.1173 61.8836ZM52.8128 63.4539C50.2347 63.4539 48.6972 64.5461 48.6972 66.389C48.6972 68.3687 50.2347 68.9124 52.6995 69.1632C55.6604 69.4593 55.8869 69.8921 55.8869 70.4835C55.8869 71.5069 55.0713 71.9397 53.1721 71.9397C50.7753 71.9397 50.2558 71.3476 50.0745 70.1421C50.0745 70.0054 49.9636 69.9155 49.8276 69.9155H48.6519C48.58 69.9164 48.5114 69.9454 48.4608 69.9964C48.4102 70.0475 48.3818 70.1163 48.3816 70.1882C48.3816 71.7351 49.1948 73.5553 53.1526 73.5553C56.0002 73.5553 57.651 72.4163 57.651 70.4148C57.651 68.4577 56.3385 67.9351 53.5589 67.571C50.7542 67.207 50.4612 67.0023 50.4612 66.3429C50.4612 65.7968 50.7097 65.0695 52.7893 65.0695C54.6432 65.0695 55.3432 65.4796 55.6151 66.7304C55.6287 66.7869 55.6605 66.8373 55.7055 66.874C55.7505 66.9106 55.8063 66.9316 55.8643 66.9335H57.0619C57.1307 66.9335 57.1987 66.889 57.2448 66.8437C57.2858 66.7828 57.3088 66.7116 57.3112 66.6382C57.1307 64.4547 55.7073 63.4539 52.8128 63.4539Z" fill="#E4E4E4"/>
<path d="M68.2011 19.3032C68.105 19.3017 68.0101 19.3257 67.9262 19.3727C67.8389 19.4239 67.7662 19.4966 67.7149 19.5838C67.6636 19.6711 67.6355 19.77 67.6332 19.8711V34.6593C67.6332 34.7952 67.5629 34.9327 67.4277 35.0233C67.3653 35.0568 67.2955 35.0744 67.2246 35.0744C67.1537 35.0744 67.0839 35.0568 67.0215 35.0233L64.6262 33.6366C64.4503 33.5362 64.2513 33.4834 64.0488 33.4834C63.8463 33.4834 63.6473 33.5362 63.4715 33.6366L53.8872 39.2108C53.7099 39.3108 53.5621 39.4559 53.4588 39.6313C53.3555 39.8068 53.3003 40.0064 53.299 40.21V51.3349C53.299 51.7443 53.5255 52.1317 53.8872 52.3364L63.4731 57.9106C63.6488 58.0109 63.8477 58.0636 64.05 58.0636C64.2524 58.0636 64.4512 58.0109 64.627 57.9106L74.212 52.3364C74.5737 52.1317 74.8003 51.7443 74.8003 51.3349V23.6031C74.8003 23.1711 74.5737 22.7828 74.212 22.5789L68.4933 19.3727C68.4029 19.3274 68.3023 19.3036 68.2011 19.3032ZM11.6509 33.1827C11.4705 33.1827 11.29 33.2483 11.1322 33.339L1.54633 38.8928C1.36617 38.9953 1.21666 39.1441 1.11324 39.3238C1.00982 39.5034 0.956243 39.7074 0.958052 39.9147L0.981489 54.838C0.981489 55.0434 1.09321 55.2481 1.27446 55.3395C1.35848 55.3946 1.45678 55.424 1.55727 55.424C1.65775 55.424 1.75605 55.3946 1.84007 55.3395L7.53846 52.0638C7.90017 51.8591 8.12439 51.4716 8.12439 51.0622V44.0779C8.12439 43.6685 8.35095 43.2811 8.71345 43.0764L11.1322 41.6662C11.3126 41.5522 11.5173 41.5069 11.7204 41.5069C11.9236 41.5069 12.1275 41.5522 12.2861 41.6662L14.7048 43.0764C15.0665 43.2811 15.2931 43.6685 15.2931 44.0779V51.0622C15.2931 51.4716 15.5181 51.8591 15.879 52.0638L21.5321 55.3395C21.6199 55.3956 21.722 55.4254 21.8262 55.4254C21.9304 55.4254 22.0325 55.3956 22.1203 55.3395C22.2103 55.2906 22.2853 55.218 22.337 55.1296C22.3888 55.0412 22.4154 54.9404 22.4141 54.838V39.9147C22.4141 39.5053 22.1875 39.1178 21.825 38.9123L12.2626 33.339C12.1015 33.2535 11.9253 33.2001 11.7439 33.1819L11.6509 33.1827ZM90.2962 33.3468C90.0986 33.3468 89.9025 33.3983 89.7213 33.5015L80.1338 39.0725C79.7721 39.2772 79.5479 39.6647 79.5479 40.0748V51.1997C79.5479 51.6091 79.7721 51.9966 80.1338 52.2013L89.6525 57.6598C89.8239 57.7604 90.019 57.8134 90.2177 57.8134C90.4164 57.8134 90.6116 57.7604 90.783 57.6598L96.5485 54.4309C96.6384 54.3819 96.7131 54.3093 96.7648 54.2209C96.8164 54.1325 96.8429 54.0317 96.8415 53.9294C96.8426 53.8273 96.816 53.7268 96.7644 53.6388C96.7127 53.5507 96.6381 53.4783 96.5485 53.4294L86.9182 47.8544C86.8306 47.803 86.7576 47.73 86.7063 47.6423C86.655 47.5546 86.6271 47.4552 86.6252 47.3537V43.8725C86.6241 43.7704 86.6507 43.6699 86.7023 43.5818C86.7539 43.4937 86.8285 43.4214 86.9182 43.3725L89.9259 41.6428C90.0138 41.5867 90.1159 41.5569 90.2201 41.5569C90.3243 41.5569 90.4264 41.5867 90.5142 41.6428L93.5189 43.3717C93.6069 43.4228 93.6803 43.4958 93.732 43.5835C93.7837 43.6711 93.812 43.7707 93.8142 43.8725V46.6029C93.8142 46.8084 93.9267 47.013 94.1071 47.1037C94.1951 47.1599 94.2973 47.1898 94.4017 47.1898C94.5061 47.1898 94.6083 47.1599 94.6962 47.1037L100.392 43.76C100.567 43.658 100.711 43.5115 100.811 43.3354C100.91 43.1592 100.961 42.9598 100.958 42.7576V40.0506C100.958 39.6412 100.731 39.2561 100.392 39.0506L90.8736 33.5007C90.698 33.4002 90.4993 33.3469 90.297 33.346L90.2962 33.3468ZM64.0488 41.6545C64.0996 41.6545 64.1512 41.6662 64.1973 41.6897L67.4738 43.6006C67.5644 43.6459 67.6105 43.7584 67.6105 43.8498V47.6716C67.6105 47.7857 67.5644 47.8779 67.4738 47.9232L64.1965 49.8341C64.1505 49.8566 64.1 49.8683 64.0488 49.8683C63.9977 49.8683 63.9472 49.8566 63.9012 49.8341L60.6239 47.9232C60.5333 47.8779 60.4872 47.763 60.4872 47.6716V43.8498C60.4872 43.7357 60.534 43.6459 60.6239 43.5998L63.9012 41.6897C63.947 41.6659 63.9972 41.6538 64.0488 41.6545Z" fill="#E4E4E4"/>
<path d="M38.4436 33.5454C38.2682 33.4445 38.0693 33.3914 37.867 33.3914C37.6646 33.3914 37.4658 33.4445 37.2904 33.5454L27.7718 39.0742C27.5973 39.176 27.4531 39.3223 27.3537 39.4981C27.2543 39.674 27.2034 39.873 27.2062 40.075V51.1538C27.2062 51.5639 27.4327 51.9507 27.7718 52.1553L37.2904 57.6834C37.4658 57.7843 37.6646 57.8374 37.867 57.8374C38.0693 57.8374 38.2682 57.7843 38.4436 57.6834L47.9614 52.1553C48.3231 51.9507 48.5271 51.5639 48.5271 51.1538V40.075C48.5271 39.6656 48.3005 39.2781 47.9614 39.0742L38.4436 33.5454Z" fill="#E4E4E4"/>
<path d="M47.9837 39.074L38.4205 33.5452C38.3266 33.4976 38.2282 33.4597 38.1268 33.4319L27.4097 51.8817C27.5003 51.9958 27.6128 52.0864 27.7261 52.1551L37.29 57.6832C37.5611 57.8426 37.8775 57.8879 38.1713 57.7965L48.2329 39.2787C48.1668 39.1921 48.0815 39.122 47.9837 39.074Z" fill="#E4E4E4"/>
<path d="M47.9853 52.1515C48.2571 51.9921 48.4602 51.7195 48.5509 51.4234L38.0822 33.4056C37.8119 33.3603 37.5174 33.383 37.269 33.5423L27.7729 39.0477L38.015 57.839C38.1502 57.8163 38.3088 57.771 38.4447 57.7022L47.9853 52.1515Z" fill="#E4E4E4"/>
</g>
<defs>
<clipPath id="clip0_2336_10555">
<rect width="100" height="100" fill="white" transform="translate(0.958008 0.034668)"/>
</clipPath>
</defs>
</svg>
