<svg width="101" height="101" viewBox="0 0 101 101" fill="none" xmlns="http://www.w3.org/2000/svg">
<path fill-rule="evenodd" clip-rule="evenodd" d="M44.0347 26.7104C46.1722 26.7104 48.3097 26.7434 50.4444 26.6876C51.0107 26.6728 52.0265 27.1412 51.981 25.9643C51.9463 25.0065 51.0579 25.3531 50.5195 25.3446C48.1083 25.3064 45.689 25.2148 43.2874 25.3656C41.5784 25.472 41.0748 24.8233 41.2893 23.256C41.3633 22.7153 41.2922 22.1553 41.3036 21.6045C41.3787 17.936 42.2653 16.6874 45.8233 15.7826C49.7433 14.7867 53.7549 14.8197 57.664 15.6779C61.1782 16.4496 62.6379 19.1835 62.4603 21.7126C62.2441 24.7988 62.4114 27.9118 62.4086 31.0134C62.4034 34.9134 60.3883 36.9832 56.4564 37.0373C53.2182 37.0817 49.976 37.1169 46.7396 37.027C42.8822 36.9189 40.0527 40.1229 40.0333 43.7538C40.0333 44.0292 40.0806 44.3138 40.0259 44.5795C39.7482 45.9129 40.8579 48.0681 39.4443 48.4642C37.2931 49.0686 34.7743 49.0686 32.8769 47.149C32.2338 46.5002 31.6921 45.7735 31.4064 44.9335C29.8817 40.4575 29.641 35.9247 31.0763 31.3787C31.9709 28.5412 34.4044 26.7764 37.4189 26.7258C39.6236 26.6888 41.8288 26.7184 44.0335 26.7184L44.0347 26.7104ZM47.9626 20.382C47.8704 19.299 47.2882 18.5086 46.0868 18.4756C44.7728 18.4414 44.0938 19.2359 44.0921 20.5289C44.091 21.7274 44.7437 22.4951 45.9366 22.5298C47.2472 22.5679 47.8818 21.7558 47.9626 20.382Z" fill="#E4E4E4"/>
<path fill-rule="evenodd" clip-rule="evenodd" d="M60.5324 48.6512C58.1194 48.6512 55.7053 48.6301 53.2923 48.6682C52.7488 48.6751 51.8372 48.3313 51.8087 49.2607C51.7768 50.3146 52.7551 50.0403 53.3766 50.0466C55.7895 50.0767 58.2048 50.1024 60.6172 50.0352C61.8567 50.0011 62.3626 50.2384 62.4554 51.6998C62.8748 58.3156 60.0037 58.8875 54.7082 60.0912C51.6704 60.7815 48.4135 60.4156 45.4177 59.0736C42.9404 57.9656 41.4204 56.3687 41.6122 53.3787C41.8022 50.4273 41.8341 47.4378 41.607 44.4893C41.3339 40.9308 43.5477 38.3135 47.8529 38.3123C50.7496 38.3118 53.6657 38.091 56.5373 38.355C60.6434 38.7318 63.8628 35.1726 64.0039 31.0341C64.0096 30.897 63.9743 30.7496 64.0096 30.6221C64.3715 29.3502 63.0842 27.4596 64.8063 26.8171C67.4088 25.8468 70.3437 26.8666 71.6731 28.8414C73.3491 31.3278 73.5756 34.2535 73.8465 37.1104C74.1395 40.1898 73.2757 43.0888 71.9821 45.8666C71.1034 47.7503 69.626 48.6608 67.5676 48.6637C65.2229 48.6654 62.8788 48.6637 60.5335 48.6637L60.5324 48.6512ZM59.9041 54.7974C59.6463 53.6217 59.1159 52.8192 57.7501 52.7857C56.3296 52.7515 55.9631 53.814 55.9705 54.7627C55.9785 55.7711 56.2596 57.0118 57.7973 56.8957C59.0755 56.7978 59.6987 56.0062 59.9041 54.7974Z" fill="#E4E4E4"/>
<path fill-rule="evenodd" clip-rule="evenodd" d="M22.5767 78.9726C22.5767 80.442 22.6433 81.8181 22.5454 83.1822C22.5033 83.7707 23.152 84.8781 21.9177 84.877C20.8295 84.877 20.5501 84.0108 20.5848 82.9643C20.6514 80.9667 20.6042 78.9652 20.6042 76.966V72.4143C20.6042 69.6713 21.34 68.7425 23.9636 68.1745C26.4027 67.6441 28.3194 68.4653 29.3051 70.6006C30.2908 72.7364 30.3671 74.9371 29.3808 77.1099C28.4088 79.2509 26.6184 80.0499 24.3249 79.4154C23.8025 79.2731 23.275 79.1496 22.5767 78.9726ZM22.5767 73.5958C22.5767 74.3527 22.6791 75.1244 22.5556 75.8608C22.2699 77.5629 23.3569 77.9824 24.6385 78.2851C25.9059 78.5845 26.7749 78.0455 27.2831 76.929C28.1373 75.0566 28.2807 73.1257 27.632 71.1458C27.056 69.3861 25.7261 69.1801 24.1736 69.3987C22.6404 69.6166 22.4327 70.6592 22.5664 71.9482C22.6233 72.4917 22.5767 73.0466 22.5767 73.5958ZM39.0731 78.8816C38.0231 79.1547 37.1114 79.4461 36.1781 79.6214C34.1351 80.0032 32.6224 78.8816 32.0903 76.8362C31.4301 74.3049 31.989 71.7832 32.0061 69.2575C32.0135 68.1062 33.0788 68.5553 33.8158 67.9384C33.8158 70.6416 33.826 72.9749 33.8124 75.3065C33.805 76.4777 34.1077 77.4406 35.2152 78.0581C36.4376 78.7398 37.4404 78.0905 38.5046 77.6529C39.2672 77.3393 39.1722 76.6991 39.1733 76.0901C39.179 73.8866 39.1727 71.6853 39.1801 69.4818C39.1813 68.9383 39.1249 68.2741 39.9273 68.3009C40.6427 68.3242 40.954 68.7493 40.942 69.529C40.8903 73.1752 40.9933 76.8265 40.8453 80.4676C40.7332 83.2209 38.7909 84.9026 35.9966 85.0261C35.5783 85.0437 35.1401 85.0824 34.9836 84.5634C34.7451 83.7644 35.3922 83.9152 35.8173 83.7792C38.891 82.8015 39.2928 82.2176 39.0731 78.8816ZM52.0622 69.4203C52.8755 69.0362 53.3427 68.6844 53.8566 68.5894C56.7402 68.0562 58.95 68.2593 58.9443 72.1434C58.9403 74.1438 58.9455 76.1448 58.9403 78.1446C58.9392 78.7046 58.9751 79.2498 58.1402 79.2981C57.2598 79.3505 57.0663 78.8468 57.0703 78.1565C57.0805 76.229 57.1329 74.3014 57.1312 72.3745C57.13 70.8778 56.8244 69.5529 54.9208 69.5574C53.2511 69.5603 52.0685 70.8066 52.0599 72.5264C52.0504 74.3881 52.0509 76.2499 52.0617 78.1116C52.0634 78.7729 52.0776 79.3528 51.1215 79.2981C50.2605 79.2469 50.3663 78.6664 50.3663 78.132C50.3606 73.2378 50.3845 68.3384 50.343 63.4408C50.3356 62.5826 50.6742 62.0499 51.4356 62.0135C52.5101 61.964 52.0178 62.9035 52.0338 63.3748C52.1038 65.2932 52.0622 67.2162 52.0622 69.4203ZM61.1621 73.8086C61.0534 69.9871 62.866 67.9469 66.1474 68.0653C67.7944 68.1256 69.0299 68.8563 69.8272 70.2791C71.2357 72.7956 71.0451 75.3133 69.521 77.6699C68.4739 79.2885 66.8633 80.0516 64.8999 79.635C62.9639 79.2253 61.4478 77.4821 61.1735 75.4505C61.1006 74.9127 61.1621 74.3555 61.1621 73.8086ZM68.7425 73.898C68.656 73.231 68.6714 72.3011 68.3936 71.4713C68.0141 70.3331 67.322 69.4169 65.9101 69.3543C64.4856 69.2928 63.7748 70.1254 63.2996 71.2778C62.5535 73.087 62.6019 74.9036 63.41 76.6803C63.9291 77.8247 64.7304 78.6624 66.119 78.4303C67.4865 78.202 68.2935 77.3057 68.5729 75.9757C68.6998 75.3731 68.6793 74.7414 68.7425 73.898ZM72.7302 74.4073C72.7302 73.7176 72.7171 73.0289 72.7324 72.3426C72.7643 71.0195 72.3426 69.5535 74.1267 68.8774C76.1698 68.1057 78.1946 67.5275 80.2514 68.722C81.0208 69.1693 81.3042 69.982 81.3122 70.8447C81.3332 73.2526 81.3014 75.6616 81.3338 78.0694C81.3452 78.9094 81.1244 79.3294 80.1802 79.3067C79.1456 79.2822 79.3636 78.5765 79.3704 78.0131C79.3949 76.0896 79.5286 74.1677 79.4922 72.247C79.4444 69.8283 78.1173 68.8421 75.8562 69.4357C74.9184 69.6826 74.3322 70.1379 74.3783 71.2989C74.4699 73.565 74.3993 75.8392 74.4079 78.1093C74.4101 78.7672 74.4198 79.3499 73.4706 79.2947C72.601 79.2446 72.7433 78.6431 72.7364 78.1212C72.7205 76.8829 72.7319 75.644 72.7302 74.4073ZM47.9357 69.0441C47.7934 69.2126 47.6739 69.4766 47.5487 69.4789C45.2928 69.5102 45.9188 71.1942 45.8608 72.4433C45.8056 73.6071 45.8608 74.7766 45.8443 75.9439C45.8272 77.1037 45.9279 78.1816 47.3393 78.4894C47.7439 78.5771 47.9283 78.8104 47.8441 79.2145C47.7513 79.6606 47.3956 79.643 47.0433 79.6384C45.4214 79.61 44.2189 78.4633 44.1711 76.7844C44.1222 75.0692 44.1888 73.3499 44.1483 71.6364C44.1273 70.8225 44.5501 69.7839 43.2378 69.4613C43.0938 69.4266 43.0426 69.0185 42.9487 68.7857C44.6992 68.2366 43.9731 66.7267 44.2132 65.5812C44.327 65.0388 44.8421 64.8903 45.3287 64.8442C45.8209 64.7975 45.8249 65.1959 45.8408 65.5288C45.9057 66.8491 45.2222 68.6162 47.6529 68.52C47.7342 68.5171 47.8293 68.8404 47.9357 69.0441Z" fill="#E4E4E4"/>
</svg>
