<svg width="101" height="101" viewBox="0 0 101 101" fill="none" xmlns="http://www.w3.org/2000/svg">
<path d="M50.9578 46.0972C53.7056 46.0972 55.9332 43.8201 55.9332 41.0112C55.9332 38.2023 53.7056 35.9253 50.9578 35.9253C48.21 35.9253 45.9824 38.2023 45.9824 41.0112C45.9824 43.8201 48.21 46.0972 50.9578 46.0972Z" fill="#E4E4E4"/>
<path d="M50.9579 59.7144C54.8633 63.5972 58.7152 65.894 61.8181 65.894C62.8346 65.894 63.7975 65.6753 64.6 65.1831C67.3819 63.5425 68.3984 59.4409 67.4354 53.5894C67.2749 52.5503 67.0609 51.5112 66.7935 50.4175C67.8634 50.0894 68.8264 49.7612 69.7894 49.4331C75.1927 47.3003 78.1887 44.3472 78.1887 41.1206C78.1887 37.8394 75.1927 34.8862 69.7894 32.8081C68.8264 32.4253 67.8634 32.0972 66.7935 31.8237C67.0609 30.73 67.2749 29.6909 67.4354 28.6519C68.3449 22.6909 67.3284 18.5347 64.5465 16.894C63.744 16.4019 62.7811 16.1831 61.7646 16.1831C58.7152 16.1831 54.8098 18.48 50.9044 22.3628C47.0525 18.48 43.2006 16.1831 40.0976 16.1831C39.0812 16.1831 38.1182 16.4019 37.3157 16.894C34.5338 18.5347 33.5173 22.6362 34.4803 28.4878C34.6408 29.5269 34.8548 30.5659 35.1223 31.6597C34.0523 31.9878 33.0893 32.3159 32.1263 32.644C26.723 34.7769 23.7271 37.73 23.7271 40.9565C23.7271 44.2378 26.723 47.1909 32.1263 49.269C33.0893 49.6519 34.0523 49.98 35.1223 50.2534C34.8548 51.3472 34.6408 52.3862 34.4803 53.4253C33.5708 59.2769 34.5873 63.4331 37.3157 65.019C38.1182 65.5112 39.0812 65.73 40.0976 65.73C43.2006 65.8394 47.0525 63.5425 50.9579 59.7144ZM47.9619 52.3315C48.9249 52.3862 49.9414 52.3862 50.9579 52.3862C51.9743 52.3862 52.9908 52.3862 53.9538 52.3315C52.9908 53.644 51.9743 54.8472 50.9579 55.9956C49.9414 54.8472 48.9249 53.644 47.9619 52.3315ZM41.3281 46.6987C41.8631 47.6284 42.3446 48.5034 42.9331 49.3784C41.2746 49.1597 39.7231 48.8862 38.2252 48.5581C38.7067 47.0815 39.2417 45.5503 39.8836 44.019C40.3116 44.894 40.7931 45.8237 41.3281 46.6987ZM38.2252 33.519C39.7231 33.1909 41.2746 32.9175 42.9331 32.6987C42.3981 33.5737 41.8631 34.4487 41.3281 35.3784C40.7931 36.3081 40.3116 37.1831 39.8836 38.1128C39.1882 36.5269 38.6532 34.9956 38.2252 33.519ZM41.1676 41.0112C41.8631 39.5347 42.6121 38.0581 43.468 36.5815C44.2705 35.1597 45.18 33.7378 46.0895 32.3159C47.6944 32.2065 49.2994 32.1519 50.9579 32.1519C52.6698 32.1519 54.2748 32.2065 55.8262 32.3159C56.7892 33.7378 57.6452 35.1597 58.4477 36.5815C59.3036 38.0581 60.0526 39.5347 60.7481 41.0112C60.0526 42.4878 59.3036 43.9644 58.4477 45.4409C57.6452 46.8628 56.7357 48.2847 55.8262 49.7065C54.2213 49.8159 52.6163 49.8706 50.9579 49.8706C49.2459 49.8706 47.6409 49.8159 46.0895 49.7065C45.1265 48.2847 44.2705 46.8628 43.468 45.4409C42.6121 43.9644 41.8631 42.4878 41.1676 41.0112ZM62.0856 38.0581L60.6411 35.3237C60.1061 34.394 59.6246 33.519 59.0362 32.644C60.6946 32.8628 62.2461 33.1362 63.744 33.4644C63.2625 34.9956 62.7276 36.5269 62.0856 38.0581ZM62.0856 43.9644C62.7276 45.4956 63.2625 47.0269 63.744 48.5034C62.2461 48.8315 60.6946 49.105 59.0362 49.3237C59.5711 48.4487 60.1061 47.5737 60.6411 46.644C61.1226 45.8237 61.6041 44.894 62.0856 43.9644ZM63.316 62.9409C62.8881 63.2144 62.3531 63.3237 61.7646 63.3237C59.1431 63.3237 55.8797 61.1362 52.6698 57.855C54.2213 56.1597 55.7192 54.2456 57.2172 52.1128C59.7316 51.894 62.1391 51.5112 64.386 50.9644C64.6535 51.9487 64.814 52.9331 64.9745 53.9175C65.7235 58.5659 65.135 61.9019 63.316 62.9409ZM66.098 34.1206C72.0898 35.8706 75.6742 38.5503 75.6742 41.0112C75.6742 43.144 73.2133 45.2769 68.8799 46.9722C68.0239 47.3003 67.061 47.6284 66.098 47.9019C65.4025 45.6597 64.5465 43.3628 63.4765 41.0112C64.5465 38.6597 65.456 36.3628 66.098 34.1206ZM61.8181 18.6987C62.4066 18.6987 62.8881 18.8081 63.3695 19.0815C65.135 20.1206 65.777 23.4019 65.028 28.105C64.8675 29.0347 64.6535 30.019 64.4395 31.0581C62.1926 30.5659 59.7851 30.1831 57.2707 29.9097C55.8262 27.7769 54.2748 25.8628 52.7233 24.1675C55.9332 20.9409 59.1967 18.6987 61.8181 18.6987ZM53.9538 29.6909C52.9908 29.6362 51.9743 29.6362 50.9579 29.6362C49.9414 29.6362 48.9249 29.6362 47.9619 29.6909C48.9249 28.3784 49.9414 27.1753 50.9579 26.0269C51.9743 27.1753 52.9908 28.4331 53.9538 29.6909ZM38.5997 19.0815C39.0277 18.8081 39.5626 18.6987 40.1511 18.6987C42.7726 18.6987 46.036 20.8862 49.2459 24.1675C47.6944 25.8628 46.1965 27.7769 44.6985 29.9097C42.1841 30.1284 39.7766 30.5112 37.5297 31.0581C37.2622 30.0737 37.1017 29.0894 36.9412 28.105C36.1922 23.4565 36.7807 20.1753 38.5997 19.0815ZM35.8177 47.9019C29.8259 46.1519 26.2415 43.4722 26.2415 41.0112C26.2415 38.8784 28.7024 36.7456 33.0358 35.0503C33.8918 34.7222 34.8548 34.394 35.8177 34.1206C36.5132 36.3628 37.3692 38.6597 38.4392 41.0112C37.3692 43.3628 36.4597 45.7144 35.8177 47.9019ZM36.9412 53.9175C37.1017 52.9878 37.3157 52.0034 37.5297 50.9644C39.7766 51.4565 42.1841 51.8394 44.6985 52.1128C46.143 54.2456 47.6944 56.1597 49.2459 57.855C46.036 61.0815 42.7726 63.3237 40.1511 63.3237C39.5626 63.3237 39.0812 63.2144 38.5997 62.9409C36.7807 61.9019 36.1922 58.5659 36.9412 53.9175ZM34.6943 76.4487C35.8712 74.9722 35.9247 73.3315 35.2828 71.6909C34.6408 70.0503 33.3033 69.2847 31.6448 69.23C29.6654 69.1753 27.6325 69.23 25.653 69.23H25.2785V83.394H26.8835V78.0347H29.3979C29.7189 78.0347 29.9864 78.144 30.1469 78.4175L33.3568 83.5034C33.4103 83.6128 33.5708 83.7768 33.6778 83.7768H35.7642C34.4803 81.7534 33.2498 79.8394 31.9658 77.8706C33.0893 77.7065 34.0523 77.3237 34.6943 76.4487ZM26.8835 76.3394V70.9253H27.472C28.7024 70.9253 29.9864 70.8706 31.2169 70.98C32.6613 71.0347 33.6778 72.1831 33.6778 73.6597C33.6778 75.1362 32.5008 76.2847 31.0564 76.3394C29.7724 76.394 28.4884 76.3394 26.8835 76.3394ZM47.5874 77.0503C46.7315 73.2222 43.3076 72.2378 40.6861 73.4409C38.6532 74.3706 37.7437 76.1753 37.6902 78.4175C37.6367 80.1128 38.1182 81.644 39.4022 82.7925C40.8466 84.105 42.6121 84.269 44.431 83.9409C45.4475 83.7222 46.357 83.23 47.0525 82.4644C46.785 82.0815 46.5175 81.6987 46.25 81.3706C44.752 82.6831 43.0936 83.1206 41.2746 82.2456C40.0976 81.644 39.5091 80.1675 39.4022 79.0737H47.6944V78.3628C47.7479 77.8706 47.6944 77.4331 47.5874 77.0503ZM39.5091 77.9253C39.3487 76.2847 40.9536 74.5347 42.7191 74.5347C44.752 74.48 46.036 75.7378 46.0895 77.9253H39.5091ZM55.9332 73.1675C55.1308 73.0034 54.2748 72.9487 53.4723 73.0034C52.1883 73.1128 51.0649 73.7144 50.1554 74.6987C50.4229 75.0815 50.6369 75.4644 50.9579 75.9019C51.0649 75.7925 51.1719 75.6831 51.2788 75.6284C52.1348 74.8081 53.1513 74.3706 54.3818 74.48C55.3447 74.5347 56.2542 74.8628 56.5217 75.8472C56.7357 76.6128 56.6822 77.4331 56.7357 78.2534C56.5752 78.2534 56.5217 78.1987 56.4682 78.144C55.1843 77.0503 53.7398 76.8315 52.1883 77.2144C50.7439 77.5972 49.8344 78.7456 49.7274 80.2222C49.6204 81.9175 50.3694 83.1753 51.8138 83.7768C52.7233 84.1597 53.7398 84.1597 54.7028 83.9409C55.4517 83.7769 55.7727 83.3394 56.8427 82.7378V83.4487H58.3407C58.3407 81.2612 58.3942 78.5815 58.3407 76.0659C58.3407 74.48 57.4312 73.4956 55.9332 73.1675ZM56.6822 80.0581C56.6287 80.2222 56.6822 80.3862 56.6822 80.5503C56.6822 81.6987 56.4147 82.0815 55.3447 82.519C54.5958 82.7925 53.7933 82.9019 52.9908 82.6284C52.0813 82.355 51.4393 81.5347 51.4393 80.605C51.3858 79.6753 51.9743 78.7456 52.8838 78.4722C54.1143 78.0347 55.2377 78.3081 56.2542 79.0737C56.5752 79.3472 56.7892 79.6206 56.6822 80.0581ZM65.028 74.644C66.419 74.2065 67.7029 74.48 68.6659 75.6831L68.8264 75.7925C69.2009 75.4644 69.5219 75.1362 69.9499 74.7534C69.7894 74.5894 69.7359 74.48 69.6289 74.3159C68.0774 72.6206 65.028 72.4019 63.1556 73.769C60.5341 75.7378 60.5876 79.5659 61.8716 81.5893C63.102 83.5034 64.8675 84.1597 66.954 83.8862C68.1844 83.7222 69.2009 83.1206 70.0034 82.0815C69.6289 81.7534 69.2544 81.4253 68.8799 81.0425C68.7729 81.1518 68.7194 81.2065 68.6659 81.3159C67.2214 82.9565 64.814 82.7925 63.53 81.0425C62.7811 80.0034 62.6206 78.8003 62.8346 77.5972C62.9416 76.23 63.637 75.1362 65.028 74.644ZM76.1557 82.0815C76.0487 82.1362 75.9952 82.1909 75.9952 82.1909C75.5672 82.519 75.1392 82.5737 74.6578 82.4097C74.1763 82.1909 74.1228 81.7534 74.0693 81.3159V75.0815C74.0693 74.9722 74.0693 75.1909 74.1228 74.644H76.1557V73.0034H74.0158V70.269H72.4108V73.2222H71.0198C70.9129 73.2222 70.7524 73.3315 70.7524 73.4409C70.6989 73.8237 70.7524 74.0972 70.7524 74.644H72.4643V81.644C72.4643 82.519 72.6783 83.2847 73.4273 83.7222C74.2298 84.2144 75.7812 84.105 76.4767 83.5034C76.5837 83.4487 76.6372 83.23 76.6372 83.1753C76.4767 82.8472 76.3162 82.4644 76.1557 82.0815Z" fill="#E4E4E4"/>
</svg>
