<svg width="101" height="101" viewBox="0 0 101 101" fill="none" xmlns="http://www.w3.org/2000/svg">
<g clip-path="url(#clip0_2336_10614)">
<g clip-path="url(#clip1_2336_10614)">
<path d="M27.592 23.1029C27.7191 23.1028 27.8463 23.1027 27.9734 23.1026C28.3233 23.1023 28.6732 23.1024 29.0231 23.1025C29.4036 23.1026 29.7841 23.1024 30.1645 23.1021C30.8315 23.1018 31.4985 23.1017 32.1655 23.1018C32.8811 23.1018 33.5967 23.1018 34.3123 23.1015C34.3575 23.1015 34.4027 23.1015 34.4493 23.1015C34.6335 23.1014 34.8176 23.1014 35.0018 23.1013C36.9223 23.1006 38.8428 23.1004 40.7634 23.1004C40.97 23.1004 41.1767 23.1004 41.3834 23.1004C41.4347 23.1004 41.4859 23.1004 41.5388 23.1004C42.6752 23.1003 43.8116 23.1002 44.948 23.1C45.4159 23.0999 45.8838 23.0999 46.3518 23.0998C46.4035 23.0998 46.4551 23.0998 46.5084 23.0998C49.4706 23.0994 52.4329 23.0991 55.3951 23.0991C55.5059 23.0991 55.6168 23.0991 55.7276 23.0991C56.2281 23.0991 56.7285 23.0991 57.229 23.0991C57.4521 23.0991 57.6753 23.0991 57.8985 23.0991C58.0102 23.0991 58.1219 23.0992 58.2336 23.0992C61.7675 23.0992 65.3014 23.0987 68.8354 23.0978C69.7261 23.0975 70.6169 23.0973 71.5077 23.0971C71.59 23.0971 71.59 23.0971 71.6739 23.0971C73.3635 23.0966 75.0531 23.0964 76.7427 23.0963C76.7957 23.0963 76.8487 23.0963 76.9034 23.0963C78.0671 23.0962 79.2309 23.0962 80.3947 23.0962C80.8111 23.0962 81.2275 23.0963 81.6439 23.0963C81.7475 23.0963 81.8511 23.0963 81.9547 23.0963C83.6069 23.0963 85.2591 23.0959 86.9113 23.0953C88.5744 23.0947 90.2376 23.0946 91.9008 23.095C92.1304 23.0951 92.3599 23.0951 92.5895 23.0952C92.6345 23.0952 92.6795 23.0952 92.7258 23.0952C93.3961 23.0954 94.0665 23.0952 94.7367 23.0947C95.4816 23.0942 96.2265 23.0942 96.9714 23.0947C97.3468 23.095 97.7223 23.095 98.0977 23.0945C98.4387 23.094 98.7796 23.0941 99.1206 23.0947C99.2437 23.0948 99.3669 23.0947 99.49 23.0944C99.6562 23.0939 99.8225 23.0943 99.9887 23.0949C100.061 23.0944 100.061 23.0944 100.135 23.0939C100.375 23.0956 100.558 23.1055 100.76 23.245C100.952 23.4744 100.992 23.6871 100.987 23.9851C100.919 24.4346 100.704 24.8535 100.525 25.2675C100.48 25.3736 100.435 25.4798 100.39 25.586C100.297 25.807 100.204 26.0277 100.109 26.2483C99.9073 26.7239 99.7115 27.2021 99.5155 27.6802C99.4534 27.8314 99.391 27.9825 99.3285 28.1336C99.1433 28.5814 98.9597 29.0297 98.7819 29.4805C98.7521 29.5551 98.7224 29.6297 98.6918 29.7066C98.6379 29.8421 98.5847 29.9779 98.5325 30.1141C98.4017 30.4411 98.3011 30.6638 97.9895 30.8515C97.7624 30.9281 97.5881 30.9266 97.3484 30.9266C97.28 30.9268 97.2799 30.9268 97.2102 30.9269C97.0559 30.9272 96.9017 30.9269 96.7474 30.9267C96.6358 30.9268 96.5242 30.9269 96.4126 30.927C96.1037 30.9273 95.7947 30.9272 95.4857 30.927C95.1504 30.9269 94.8151 30.9272 94.4798 30.9274C93.8914 30.9277 93.303 30.9278 92.7145 30.9277C91.8394 30.9276 90.9643 30.9279 90.0892 30.9283C88.9764 30.9287 87.8637 30.9291 86.7509 30.9293C86.7067 30.9293 86.6626 30.9293 86.617 30.9293C86.4376 30.9293 86.2581 30.9294 86.0787 30.9294C83.8849 30.9297 81.6912 30.9307 79.4974 30.932C78.984 30.9323 78.4706 30.9326 77.9573 30.9328C77.8632 30.9329 77.7692 30.933 77.6751 30.933C77.4865 30.9331 77.2978 30.9332 77.1091 30.9333C76.9197 30.9334 76.7303 30.9335 76.541 30.9336C74.3556 30.9349 72.1702 30.936 69.9848 30.937C69.8366 30.9371 69.6884 30.9372 69.5402 30.9372C67.2597 30.9383 64.9792 30.9392 62.6988 30.9396C62.6253 30.9396 62.6253 30.9396 62.5503 30.9396C61.7604 30.9397 60.9705 30.9399 60.1806 30.94C57.9039 30.9403 55.6271 30.9409 53.3504 30.9423C53.3035 30.9423 53.2566 30.9423 53.2083 30.9424C52.2252 30.943 51.2421 30.9436 50.2589 30.9444C49.7984 30.9447 49.3379 30.9451 48.8775 30.9454C48.8094 30.9454 48.8094 30.9454 48.7401 30.9455C47.2825 30.9465 45.8249 30.9467 44.3673 30.9464C42.8566 30.946 41.3459 30.9467 39.8352 30.9483C38.9652 30.9493 38.0952 30.9495 37.2252 30.9486C36.6429 30.9481 36.0606 30.9486 35.4784 30.9498C35.1473 30.9505 34.8163 30.9508 34.4852 30.9498C30.6008 30.9398 26.9494 31.7324 24.105 34.5893C22.3045 36.4608 21.2229 38.9539 20.8787 41.5273C20.8726 41.5703 20.8665 41.6134 20.8602 41.6577C20.4654 44.7293 21.2131 48.0919 23.0844 50.56C23.2829 50.8152 23.2829 50.8152 23.5031 51.0506C23.5832 51.1355 23.5832 51.1355 23.5832 51.269C23.6267 51.269 23.6703 51.269 23.7151 51.269C23.7989 51.3576 23.7989 51.3576 23.9006 51.4858C24.1235 51.7517 24.3647 51.9885 24.618 52.224C24.6733 52.2755 24.6733 52.2755 24.7296 52.3282C24.8793 52.4663 25.028 52.5988 25.1923 52.7189C25.2273 52.7469 25.2622 52.7748 25.2982 52.8036C25.2982 52.8477 25.2982 52.8917 25.2982 52.9371C25.334 52.9513 25.3697 52.9655 25.4065 52.9801C25.6184 53.1032 25.7735 53.2733 25.9414 53.45C26.2062 53.7237 26.4747 53.9848 26.7631 54.2332C26.9254 54.3774 27.0746 54.5331 27.2259 54.6888C27.3474 54.8097 27.4736 54.9223 27.6028 55.0347C27.7881 55.1961 27.9631 55.3631 28.1347 55.5393C28.3022 55.7114 28.4727 55.8744 28.6541 56.0314C28.9339 56.274 29.19 56.5378 29.4472 56.8045C29.5747 56.9433 29.5747 56.9433 29.7178 57.0072C29.7178 57.0513 29.7178 57.0953 29.7178 57.1407C29.7544 57.1558 29.7911 57.171 29.8288 57.1866C30.0255 57.2993 30.1589 57.4433 30.3156 57.6077C30.4866 57.7867 30.6341 57.9366 30.8391 58.0748C30.8391 58.1189 30.8391 58.1629 30.8391 58.2083C30.8769 58.2245 30.9146 58.2408 30.9535 58.2575C31.1297 58.3567 31.244 58.4739 31.3833 58.6211C31.5699 58.8145 31.7574 59.0003 31.9605 59.1758C32.2052 59.3879 32.4308 59.6153 32.6552 59.8493C32.833 60.0246 33.0187 60.1881 33.2063 60.3527C33.431 60.5527 33.6478 60.7609 33.8652 60.969C34.222 61.3098 34.5821 61.6446 34.9536 61.969C35.0608 62.0782 35.0608 62.0782 35.0608 62.2117C35.117 62.2357 35.117 62.2357 35.1744 62.2602C35.3551 62.3624 35.4742 62.486 35.6173 62.6371C35.7714 62.7975 35.9134 62.942 36.0914 63.0749C36.6347 63.5521 36.8902 64.2031 36.9987 64.9101C37.0284 65.4511 36.8268 65.9694 36.4831 66.3778C36.4061 66.4583 36.3279 66.5377 36.2481 66.6155C36.1991 66.665 36.1502 66.7146 36.0997 66.7656C35.3846 67.2259 34.6424 67.1872 33.826 67.1836C33.6863 67.184 33.5466 67.1844 33.407 67.185C33.0243 67.1862 32.6417 67.1858 32.259 67.1851C31.8459 67.1847 31.4328 67.1857 31.0197 67.1866C30.2577 67.188 29.4957 67.1881 28.7337 67.1876C28.0299 67.1871 27.3261 67.1871 26.6223 67.1876C26.5278 67.1876 26.4334 67.1877 26.3389 67.1878C26.1966 67.1878 26.0542 67.1879 25.9119 67.188C24.589 67.1889 23.2661 67.1892 21.9432 67.1885C21.8685 67.1884 21.8685 67.1884 21.7922 67.1884C21.3875 67.1881 20.9828 67.1879 20.5781 67.1876C18.9984 67.1866 17.4187 67.1872 15.839 67.1891C14.0638 67.1912 12.2886 67.1922 10.5134 67.1915C10.3242 67.1914 10.1351 67.1914 9.94587 67.1913C9.89929 67.1913 9.85271 67.1913 9.80472 67.1913C9.10112 67.191 8.39752 67.1916 7.69392 67.1927C6.8942 67.1939 6.09449 67.1939 5.29477 67.1923C4.88659 67.1916 4.47842 67.1914 4.07023 67.1926C3.69685 67.1937 3.3235 67.1933 2.95012 67.1917C2.81479 67.1913 2.67946 67.1916 2.54413 67.1924C2.36062 67.1935 2.17723 67.1925 1.99373 67.1911C1.94079 67.1919 1.88786 67.1927 1.83332 67.1935C1.4547 67.1872 1.28849 67.0905 1.02383 66.8156C0.878179 66.521 0.919404 66.1502 1.00721 65.8415C1.07881 65.6559 1.15686 65.4749 1.23821 65.2935C1.29969 65.1505 1.3611 65.0075 1.42245 64.8645C1.45471 64.7903 1.48696 64.7161 1.5202 64.6396C1.68032 64.2677 1.83199 63.8922 1.98442 63.517C2.05137 63.3531 2.11836 63.1893 2.1854 63.0254C2.22135 62.9375 2.25729 62.8496 2.29324 62.7617C2.97199 61.1023 3.65291 59.4438 4.33625 57.7863C4.59059 57.1694 4.8447 56.5523 5.09883 55.9353C5.16068 55.7852 5.22253 55.635 5.28438 55.4848C5.31392 55.4131 5.31392 55.4131 5.34405 55.34C5.45551 55.0694 5.56703 54.7988 5.67861 54.5283C6.0204 53.6995 6.36077 52.8701 6.70078 52.0405C6.72463 51.9823 6.74847 51.9241 6.77304 51.8642C7.01862 51.265 7.26412 50.6658 7.50945 50.0665C7.62877 49.7751 7.74813 49.4836 7.8675 49.1922C7.89106 49.1347 7.91461 49.0772 7.93888 49.0179C8.2349 48.2954 8.53246 47.5736 8.83221 46.8527C9.20774 45.9494 9.5776 45.0437 9.94697 44.1377C10.3869 43.059 10.8294 41.9814 11.2736 40.9044C11.6607 39.9657 12.0466 39.0265 12.4313 38.0868C12.7832 37.2273 13.137 36.3686 13.4936 35.5111C13.7218 34.9618 13.9478 34.4116 14.1727 33.861C14.3649 33.3904 14.5579 32.9201 14.7513 32.45C14.8488 32.213 14.9462 31.976 15.0423 31.7383C15.7998 29.868 16.8313 28.3376 18.2402 26.9148C18.2807 26.8707 18.3211 26.8267 18.3628 26.7813C19.1564 25.9321 20.1422 25.2846 21.1426 24.7129C21.2061 24.6764 21.2061 24.6764 21.2709 24.6392C23.2131 23.5444 25.39 23.1002 27.592 23.1029Z" fill="#E4E4E4"/>
<path d="M33.258 40.8347C33.319 40.8344 33.3799 40.8341 33.4426 40.8337C33.6459 40.8329 33.8491 40.8336 34.0524 40.8342C34.1999 40.8339 34.3474 40.8335 34.495 40.8331C34.8997 40.8321 35.3044 40.8324 35.7092 40.8329C36.1011 40.8332 36.4929 40.8325 36.8848 40.8319C37.7355 40.8306 38.5862 40.8304 39.4368 40.8308C40.1811 40.8311 40.9253 40.8311 41.6696 40.8307C41.7694 40.8306 41.8693 40.8306 41.9692 40.8305C42.1196 40.8304 42.2701 40.8304 42.4206 40.8303C43.8191 40.8296 45.2177 40.8293 46.6162 40.8298C46.6689 40.8298 46.7216 40.8298 46.7759 40.8298C47.2039 40.83 47.6318 40.8302 48.0598 40.8304C49.7302 40.831 51.4007 40.8305 53.0711 40.8289C54.9479 40.8272 56.8248 40.8263 58.7016 40.8268C58.9016 40.8269 59.1015 40.8269 59.3015 40.8269C59.3507 40.827 59.4 40.827 59.4507 40.827C60.1948 40.8271 60.9388 40.8266 61.6829 40.8257C62.5285 40.8247 63.3741 40.8247 64.2198 40.8259C64.6515 40.8264 65.0831 40.8266 65.5148 40.8255C65.9096 40.8246 66.3044 40.8249 66.6991 40.8262C66.8423 40.8265 66.9855 40.8263 67.1287 40.8256C67.3226 40.8247 67.5165 40.8255 67.7104 40.8267C67.7666 40.826 67.8228 40.8254 67.8807 40.8247C68.1461 40.828 68.2746 40.8393 68.5032 40.988C68.7003 41.1938 68.761 41.3101 68.7857 41.5977C68.7637 41.929 68.6623 42.1792 68.5335 42.4818C68.5087 42.5418 68.484 42.6018 68.4584 42.6636C68.3769 42.8607 68.2943 43.0572 68.2117 43.2538C68.1543 43.3919 68.097 43.53 68.0399 43.6682C67.9225 43.9514 67.8048 44.2345 67.6867 44.5175C67.4574 45.0676 67.2321 45.6194 67.0067 46.1711C66.892 46.4518 66.7769 46.7323 66.6618 47.0127C66.6283 47.0944 66.6283 47.0944 66.594 47.1778C66.3354 47.8079 66.0758 48.4376 65.8162 49.0673C65.4449 49.9682 65.0754 50.87 64.7069 51.7721C63.93 53.6737 63.153 55.5753 62.3698 57.4743C61.7098 59.0752 61.0528 60.6773 60.4033 62.2826C59.8154 63.7354 59.2174 65.184 58.6195 66.6326C58.4251 67.1036 58.231 67.5747 58.0369 68.0459C58.0173 68.0933 57.9978 68.1408 57.9776 68.1896C57.3516 69.7093 56.7287 71.2302 56.1067 72.7515C55.8312 73.4254 55.5555 74.0991 55.2788 74.7725C55.2394 74.8684 55.2394 74.8684 55.1993 74.9663C55.082 75.2515 54.9635 75.5361 54.8418 75.8195C54.8219 75.8659 54.802 75.9123 54.7815 75.9601C54.5469 76.4418 54.1557 76.7312 53.6628 76.9198C53.1772 77.0592 52.6384 77.0088 52.139 77.0031C51.9992 77.003 51.8594 77.0031 51.7195 77.0033C51.3419 77.0034 50.9643 77.0011 50.5867 76.9983C50.1914 76.9958 49.796 76.9955 49.4006 76.9951C48.6528 76.9938 47.9051 76.9905 47.1573 76.9865C46.3056 76.982 45.4539 76.9798 44.6022 76.9778C42.851 76.9736 41.0999 76.9666 39.3487 76.9577C39.3392 76.7989 39.3392 76.7989 39.3487 76.6241C39.4809 76.512 39.5939 76.4388 39.7445 76.3572C40.9012 75.7285 41.8883 75.0008 42.8447 74.0885C42.9223 74.0155 42.9223 74.0155 43.0014 73.941C45.1597 71.8436 46.6884 68.4922 46.75 65.459C46.7679 63.9576 46.7679 63.9576 46.5387 62.4786C46.519 62.3962 46.519 62.3962 46.499 62.3122C45.9545 60.1055 44.9139 58.1798 43.4384 56.4734C43.3816 56.4035 43.3249 56.3335 43.2684 56.2634C43.1361 56.1059 43.0083 55.9725 42.853 55.8396C42.7859 55.7814 42.7859 55.7814 42.7175 55.722C42.6268 55.645 42.5357 55.5683 42.4443 55.4921C42.4023 55.4568 42.3603 55.4214 42.317 55.385C42.2789 55.3536 42.2409 55.3222 42.2016 55.2899C42.1192 55.2057 42.1192 55.2057 42.1192 55.0722C42.0605 55.0458 42.0605 55.0458 42.0006 55.0188C41.85 54.9359 41.7581 54.8518 41.6409 54.7261C41.4793 54.5574 41.3145 54.3992 41.138 54.2465C40.8908 54.0313 40.6621 53.8014 40.435 53.5647C40.2576 53.3897 40.0723 53.2267 39.8851 53.0624C39.6528 52.8554 39.4289 52.6397 39.2044 52.4241C38.868 52.1025 38.531 51.7818 38.1902 51.465C37.8739 51.1707 37.5595 50.8743 37.2461 50.5767C37.2022 50.535 37.1582 50.4933 37.1129 50.4503C36.9326 50.2792 36.7523 50.108 36.5722 49.9367C36.4382 49.8094 36.3042 49.6822 36.1701 49.555C36.1298 49.5166 36.0894 49.4781 36.0479 49.4385C35.8786 49.2782 35.7113 49.1264 35.5277 48.9824C35.4826 48.9443 35.4374 48.9062 35.3909 48.8669C35.3909 48.8229 35.3909 48.7788 35.3909 48.7335C35.3552 48.7193 35.3195 48.7051 35.2827 48.6905C35.0708 48.5674 34.9155 48.3973 34.7478 48.2205C34.4902 47.9507 34.2245 47.698 33.9438 47.4528C33.7155 47.2505 33.4962 47.0389 33.276 46.8277C33.1778 46.7339 33.0796 46.6402 32.9815 46.5464C32.9079 46.4761 32.9079 46.4761 32.8328 46.4044C32.6058 46.1878 32.3783 45.9717 32.1505 45.7559C32.1115 45.7189 32.0726 45.6819 32.0325 45.6437C31.8436 45.4651 31.6526 45.2926 31.4532 45.126C30.9601 44.7012 30.6316 44.0704 30.555 43.4211C30.525 42.7506 30.7413 42.1771 31.1664 41.6654C31.7591 41.058 32.4267 40.8279 33.258 40.8347Z" fill="#E4E4E4"/>
<path d="M80.7203 40.8418C80.8004 40.8413 80.8004 40.8413 80.8821 40.8407C81.0605 40.8397 81.2388 40.8397 81.4171 40.8396C81.5452 40.8391 81.6733 40.8386 81.8014 40.838C82.1489 40.8365 82.4965 40.8359 82.844 40.8356C83.0611 40.8353 83.2782 40.8349 83.4954 40.8344C84.2529 40.8328 85.0103 40.8319 85.7678 40.8317C86.474 40.8315 87.1801 40.8295 87.8863 40.8267C88.4926 40.8244 89.099 40.8233 89.7054 40.8233C90.0675 40.8232 90.4296 40.8226 90.7917 40.8207C91.1322 40.819 91.4726 40.8188 91.813 40.8199C91.938 40.82 92.0629 40.8196 92.1878 40.8185C92.3584 40.8172 92.5289 40.8179 92.6995 40.8191C92.7489 40.8182 92.7983 40.8173 92.8492 40.8164C93.227 40.8225 93.3807 40.9317 93.636 41.1937C93.7645 41.4536 93.7376 41.7411 93.6569 42.0127C93.5885 42.1882 93.5144 42.3602 93.4381 42.5324C93.3775 42.6743 93.3169 42.8164 93.2565 42.9585C93.2226 43.0376 93.1888 43.1167 93.1539 43.1981C92.9587 43.6577 92.7741 44.1218 92.5874 44.585C92.271 45.3694 91.9525 46.1527 91.6242 46.932C91.3336 47.6218 91.0513 48.3148 90.7708 49.0087C90.3677 50.0056 89.9605 51.0007 89.5504 51.9946C89.5226 52.0621 89.4948 52.1296 89.4661 52.1991C89.4383 52.2666 89.4104 52.334 89.3818 52.4035C89.3258 52.5392 89.2699 52.6748 89.2139 52.8104C89.1864 52.8772 89.1589 52.9439 89.1305 53.0127C88.8545 53.6821 88.5798 54.3521 88.3054 55.0222C87.8328 56.176 87.3585 57.329 86.8833 58.4816C86.7039 58.9167 86.5246 59.3519 86.3454 59.7871C86.2216 60.0878 86.0977 60.3885 85.9735 60.6891C85.5766 61.6503 85.1837 62.6131 84.791 63.576C84.4762 64.3477 84.1605 65.1191 83.8428 65.8896C83.7984 65.9974 83.7984 65.9974 83.753 66.1074C83.6103 66.4536 83.4674 66.7998 83.3243 67.1459C83.2719 67.2727 83.2196 67.3996 83.1672 67.5264C83.1423 67.5867 83.1174 67.6471 83.0918 67.7092C82.9463 68.0624 82.8049 68.417 82.6663 68.7731C82.5278 69.1254 82.3791 69.4646 82.1997 69.7974C82.1745 69.8447 82.1493 69.892 82.1234 69.9407C81.8956 70.3621 81.6431 70.762 81.3669 71.1527C81.3209 71.2184 81.2749 71.284 81.2275 71.3516C80.9142 71.7867 80.5756 72.1836 80.2113 72.5745C80.0474 72.75 80.0474 72.75 79.9085 72.9311C79.7173 73.1712 79.4879 73.3559 79.2561 73.5548C79.1933 73.6108 79.1306 73.6668 79.0659 73.7245C78.5445 74.1867 77.9995 74.5885 77.4091 74.956C77.3652 74.9834 77.3213 75.0108 77.2761 75.0391C75.012 76.4312 72.4652 76.978 69.8432 76.9801C69.7156 76.9805 69.588 76.981 69.4604 76.9815C69.1955 76.9823 68.9306 76.9825 68.6657 76.9824C68.3267 76.9824 67.9878 76.9843 67.6488 76.9865C67.3864 76.988 67.124 76.9883 66.8616 76.9882C66.7365 76.9884 66.6115 76.989 66.4864 76.99C66.3122 76.9913 66.1381 76.9909 65.9638 76.9901C65.9127 76.9909 65.8616 76.9916 65.809 76.9924C65.4664 76.9884 65.2725 76.9089 65.0081 76.6908C64.8364 76.4619 64.8638 76.2361 64.8761 75.9568C65.0498 75.301 65.3468 74.6681 65.6101 74.0444C65.7271 73.7672 65.8431 73.4896 65.9591 73.212C65.9836 73.1535 66.0081 73.0949 66.0334 73.0345C66.3209 72.3464 66.6025 71.6558 66.8839 70.9651C66.937 70.8349 66.99 70.7047 67.0431 70.5745C67.1225 70.3798 67.2019 70.185 67.2813 69.9902C67.5507 69.3293 67.8211 68.6687 68.0918 68.0084C68.115 67.9519 68.1381 67.8954 68.162 67.8373C68.501 67.0103 68.8413 66.1838 69.1821 65.3576C69.5754 64.4038 69.9655 63.4486 70.3552 62.4933C70.6654 61.7331 70.9758 60.9729 71.2892 60.214C71.4591 59.8025 71.6282 59.3907 71.7968 58.9788C71.8202 58.9218 71.8435 58.8648 71.8675 58.8061C71.916 58.6878 71.9644 58.5695 72.0128 58.4513C72.0372 58.3917 72.0616 58.3322 72.0867 58.2709C72.1111 58.2114 72.1354 58.1519 72.1605 58.0906C72.4693 57.3366 72.7797 56.5834 73.0927 55.8313C73.4273 55.0268 73.7554 54.2198 74.0821 53.4121C74.4578 52.4835 74.8379 51.5569 75.22 50.631C75.6618 49.5601 76.1018 48.4884 76.5392 47.4157C77.0134 46.2532 77.4886 45.0912 77.969 43.9313C78.0782 43.6673 78.186 43.4027 78.2925 43.1376C78.342 43.0147 78.3918 42.8919 78.4417 42.7692C78.5012 42.623 78.56 42.4765 78.618 42.3296C78.8181 41.8408 79.0571 41.4155 79.5199 41.1395C79.5812 41.1017 79.5812 41.1017 79.6436 41.0631C80.0013 40.8856 80.3259 40.8405 80.7203 40.8418Z" fill="#E4E4E4"/>
</g>
</g>
<defs>
<clipPath id="clip0_2336_10614">
<rect width="100" height="100" fill="white" transform="translate(0.958008 0.034668)"/>
</clipPath>
<clipPath id="clip1_2336_10614">
<rect width="100" height="53.8462" fill="white" transform="translate(0.958008 23.1116)"/>
</clipPath>
</defs>
</svg>
