<svg width="101" height="101" viewBox="0 0 101 101" fill="none" xmlns="http://www.w3.org/2000/svg">
<g clip-path="url(#clip0_2336_10478)">
<g clip-path="url(#clip1_2336_10478)">
<mask id="mask0_2336_10478" style="mask-type:luminance" maskUnits="userSpaceOnUse" x="0" y="35" width="101" height="30">
<path d="M100.958 35.368H0.958008V64.7014H100.958V35.368Z" fill="white"/>
</mask>
<g mask="url(#mask0_2336_10478)">
<path d="M15.998 35.368C24.328 35.368 31.048 41.9223 31.048 50.0347C31.048 58.1471 24.328 64.7014 15.998 64.7014C7.69801 64.7111 0.968008 58.1569 0.958008 50.0737C0.958008 50.0639 0.958008 50.0444 0.958008 50.0347C0.958008 41.9223 7.67801 35.368 15.998 35.368ZM15.998 39.283C9.91801 39.2733 4.97801 44.0648 4.96801 49.986C4.96801 50.0055 4.96801 50.0152 4.96801 50.0347C4.94801 55.9559 9.86801 60.7766 15.948 60.7864C15.968 60.7864 15.978 60.7864 15.998 60.7864C22.078 60.8058 27.028 56.0143 27.038 50.0931C27.038 50.0737 27.038 50.0542 27.038 50.0347C27.058 44.1135 22.138 39.2928 16.058 39.283C16.038 39.283 16.018 39.283 15.998 39.283ZM41.588 41.1334C41.788 41.0458 41.988 41.2308 41.988 41.3379V45.5354H50.018C50.108 45.5354 50.318 45.7399 50.318 45.8275L50.918 48.272L51.518 50.7164L51.608 51.0086L51.698 50.7164L53.208 45.8178C53.208 45.623 53.418 45.5256 53.518 45.5256H57.528C57.618 45.5256 57.828 45.7301 57.828 45.8178L59.428 51.0086L59.528 50.7164L60.838 45.8178C60.838 45.623 61.028 45.5256 61.138 45.5256H71.358C71.458 45.5256 71.568 45.7301 71.568 45.8178V58.8386C71.568 59.0334 71.358 59.1308 71.268 59.1308H66.148C65.958 59.1308 65.848 58.936 65.848 58.8386V46.519L62.048 58.8386C62.048 59.0139 61.898 59.1113 61.798 59.1308H57.538C57.448 59.1308 57.238 58.936 57.238 58.8386L56.438 56.1994L55.538 53.3556L53.718 58.8386C53.718 59.0334 53.518 59.1308 53.418 59.1308H49.208C49.108 59.1308 48.908 58.936 48.908 58.8386L45.098 46.519V49.6452C45.098 49.8497 44.888 49.9373 44.798 49.9373H41.878V53.268C41.878 54.2516 42.388 54.6412 43.288 54.6412C43.688 54.6412 44.188 54.5438 44.688 54.3393C44.778 54.2516 44.988 54.3393 44.988 54.5438V58.4491C44.088 58.9457 42.788 59.2379 41.378 59.2379C38.078 59.2379 36.268 57.7673 36.268 54.5438V49.9373H34.958C34.768 49.9373 34.658 49.7425 34.658 49.6452V45.9347C34.658 45.7399 34.868 45.6425 34.958 45.6425H36.268V42.9935C36.268 42.7988 36.358 42.7014 36.568 42.7014L41.588 41.1334ZM93.338 45.2432C97.748 45.2432 100.958 48.4668 100.958 52.187C100.958 55.8975 97.748 59.1308 93.238 59.1308C88.818 59.1308 85.618 55.9072 85.618 52.187C85.618 48.4668 88.818 45.2432 93.338 45.2432ZM78.088 41.1432C78.298 41.1432 78.388 41.2406 78.388 41.3477V58.7412C78.388 58.9457 78.198 59.0334 78.088 59.0334H72.978C72.778 59.0334 72.678 58.8386 72.678 58.7412V41.4256C72.678 41.2308 72.878 41.1334 72.978 41.1334L78.088 41.1432ZM84.808 45.5451C85.018 45.5451 85.108 45.7496 85.108 45.8373V58.6536C85.108 58.8483 84.908 58.9457 84.808 58.9457H79.698C79.498 58.9457 79.398 58.7412 79.398 58.6536V45.8178C79.398 45.623 79.598 45.5256 79.698 45.5256L84.808 45.5451ZM12.288 50.6288C13.988 50.6288 15.398 52.002 15.398 53.6576C15.398 55.3229 13.998 56.6961 12.288 56.6961C10.578 56.6961 9.17801 55.3326 9.17801 53.6673C9.18801 51.9922 10.588 50.6288 12.288 50.6288ZM19.718 50.6288C21.408 50.6288 22.828 52.002 22.828 53.6576C22.828 55.3229 21.418 56.6961 19.718 56.6961C18.018 56.6961 16.608 55.3326 16.608 53.6673C16.608 51.9922 18.018 50.6288 19.718 50.6288ZM93.338 49.9471C92.038 49.9471 91.138 51.0281 91.138 52.2941C91.138 53.5699 92.138 54.6412 93.338 54.6412C94.648 54.6412 95.548 53.5699 95.548 52.2941C95.548 50.9209 94.538 49.8497 93.338 49.9471ZM19.718 43.3928C21.408 43.3928 22.828 44.7563 22.828 46.4216C22.828 48.0869 21.418 49.4601 19.718 49.4601C18.018 49.4601 16.608 48.0869 16.608 46.4313C16.608 44.7563 18.018 43.3928 19.718 43.3928ZM12.288 43.3928C13.988 43.3928 15.398 44.7563 15.398 46.4216C15.398 48.0869 13.998 49.4601 12.288 49.4601C10.578 49.4601 9.17801 48.0869 9.17801 46.4313C9.18801 44.7563 10.588 43.3928 12.288 43.3928ZM71.468 41.1334C71.558 41.1334 71.668 41.2308 71.768 41.3379V44.4641C71.768 44.6589 71.568 44.7563 71.468 44.7563H66.148C65.958 44.7563 65.848 44.5615 65.848 44.4641V41.4353C65.848 41.2308 66.058 41.1334 66.148 41.1334H71.468ZM84.908 41.1334C85.108 41.1334 85.208 41.2308 85.208 41.3379V44.4641C85.208 44.6589 85.008 44.7563 84.908 44.7563H79.588C79.388 44.7563 79.288 44.5615 79.288 44.4641V41.4353C79.288 41.2308 79.498 41.1334 79.588 41.1334H84.908Z" fill="#E4E4E4"/>
</g>
</g>
</g>
<defs>
<clipPath id="clip0_2336_10478">
<rect width="100" height="100" fill="white" transform="translate(0.958008 0.034668)"/>
</clipPath>
<clipPath id="clip1_2336_10478">
<rect width="100" height="29.3333" fill="white" transform="translate(0.958008 35.368)"/>
</clipPath>
</defs>
</svg>
