<svg width="101" height="101" viewBox="0 0 101 101" fill="none" xmlns="http://www.w3.org/2000/svg">
<path d="M29.8723 83.2411L28.2037 77.0865L26.5139 83.2411C26.3825 83.7079 26.2769 84.044 26.1971 84.2493C26.122 84.4501 25.9882 84.6321 25.7958 84.7955C25.6034 84.9542 25.3475 85.0335 25.0284 85.0335C24.7702 85.0335 24.5566 84.9845 24.3877 84.8865C24.2234 84.7931 24.0896 84.6601 23.9864 84.4874C23.8831 84.31 23.7986 84.1023 23.7329 83.8643C23.6672 83.6216 23.6085 83.3975 23.5569 83.1921L21.839 76.2814C21.7357 75.88 21.6841 75.5743 21.6841 75.3642C21.6841 75.0981 21.778 74.8741 21.9657 74.692C22.1535 74.51 22.3858 74.4189 22.6627 74.4189C23.0429 74.4189 23.2987 74.5403 23.4302 74.783C23.5616 75.0258 23.6766 75.3782 23.7751 75.8403L25.1269 81.8337L26.6407 76.2255C26.7533 75.796 26.8542 75.4693 26.9434 75.2452C27.0326 75.0212 27.1781 74.8274 27.3799 74.6641C27.5818 74.5007 27.8564 74.419 28.2037 74.419C28.5557 74.419 28.828 74.5053 29.0204 74.678C29.2175 74.8461 29.3537 75.0305 29.4288 75.2312C29.5039 75.4319 29.6048 75.7633 29.7315 76.2254L31.2593 81.8337L32.6111 75.8403C32.6768 75.5275 32.7379 75.2825 32.7942 75.1051C32.8552 74.9277 32.9561 74.769 33.0969 74.629C33.2425 74.489 33.4513 74.4189 33.7236 74.4189C33.9958 74.4189 34.2258 74.51 34.4135 74.692C34.606 74.8694 34.7022 75.0935 34.7022 75.3642C34.7022 75.5556 34.6506 75.8613 34.5473 76.2814L32.8294 83.1921C32.712 83.6589 32.6135 84.002 32.5337 84.2214C32.4586 84.4361 32.3272 84.6251 32.1394 84.7885C31.9563 84.9519 31.6958 85.0336 31.3579 85.0336C31.0387 85.0336 30.7829 84.9542 30.5905 84.7955C30.398 84.6368 30.2642 84.4594 30.1891 84.2634C30.114 84.0627 30.0084 83.7219 29.8723 83.2411Z" fill="#E4E4E4"/>
<path d="M40.9603 81.6172H37.2007C37.2054 82.0513 37.2922 82.434 37.4612 82.7654C37.6348 83.0969 37.8625 83.3466 38.1441 83.5146C38.4304 83.6827 38.7449 83.7667 39.0875 83.7667C39.3175 83.7667 39.5264 83.741 39.7141 83.6897C39.9066 83.6337 40.092 83.5496 40.2704 83.4376C40.4487 83.3209 40.613 83.1972 40.7632 83.0665C40.9134 82.9358 41.1082 82.7585 41.3476 82.5344C41.4462 82.4504 41.587 82.4084 41.77 82.4084C41.9672 82.4084 42.1268 82.4621 42.2488 82.5694C42.3708 82.6768 42.4318 82.8285 42.4318 83.0245C42.4318 83.1972 42.3638 83.4003 42.2277 83.6337C42.0916 83.8624 41.885 84.0841 41.6081 84.2989C41.3359 84.5089 40.9909 84.6839 40.5731 84.824C40.1601 84.964 39.6836 85.0341 39.1439 85.0341C37.9094 85.0341 36.9495 84.684 36.2643 83.9838C35.579 83.2836 35.2363 82.3337 35.2363 81.1341C35.2363 80.5693 35.3208 80.0465 35.4898 79.5657C35.6588 79.0803 35.9052 78.6648 36.229 78.3194C36.5529 77.974 36.9519 77.7103 37.4259 77.5282C37.9 77.3415 38.4257 77.2482 39.003 77.2482C39.754 77.2482 40.3971 77.4069 40.9322 77.7243C41.472 78.037 41.8756 78.4431 42.1432 78.9426C42.4107 79.4421 42.5445 79.9508 42.5445 80.469C42.5445 80.9498 42.406 81.2625 42.1291 81.4072C41.8521 81.5472 41.4625 81.6172 40.9603 81.6172ZM37.2007 80.5319H40.6858C40.6389 79.8784 40.4605 79.3906 40.1508 79.0685C39.8457 78.7418 39.442 78.5784 38.9398 78.5784C38.461 78.5784 38.0667 78.7441 37.757 79.0755C37.4519 79.4023 37.2664 79.8877 37.2007 80.5319Z" fill="#E4E4E4"/>
<path d="M45.7349 75.5118V78.4316C46.0963 78.0582 46.4648 77.7734 46.8403 77.5774C47.2158 77.3767 47.6805 77.2763 48.2343 77.2763C48.8727 77.2763 49.4312 77.428 49.91 77.7314C50.3935 78.0302 50.7666 78.4666 51.0295 79.0408C51.297 79.6102 51.4308 80.2871 51.4308 81.0712C51.4308 81.6501 51.3557 82.1822 51.2055 82.6676C51.06 83.1484 50.8464 83.5662 50.5648 83.921C50.2832 84.2757 49.9405 84.5511 49.5369 84.7472C49.1379 84.9385 48.6967 85.0342 48.2132 85.0342C47.9175 85.0342 47.6382 84.9992 47.3754 84.9292C47.1172 84.8592 46.8966 84.7682 46.7136 84.6561C46.5305 84.5394 46.3733 84.4204 46.2418 84.299C46.1151 84.1777 45.9461 83.9956 45.7349 83.7529V83.9419C45.7349 84.3013 45.6481 84.5744 45.4744 84.7611C45.3008 84.9432 45.0802 85.0342 44.8126 85.0342C44.5404 85.0342 44.3221 84.9432 44.1578 84.7611C43.9982 84.5744 43.9185 84.3013 43.9185 83.9419V75.596C43.9185 75.2085 43.9959 74.9168 44.1508 74.7208C44.3104 74.52 44.531 74.4197 44.8126 74.4197C45.1083 74.4197 45.336 74.5154 45.4955 74.7067C45.6551 74.8934 45.7349 75.1617 45.7349 75.5118ZM45.8265 81.1902C45.8265 81.9511 46.0001 82.5369 46.3475 82.9476C46.6995 83.3538 47.1595 83.5568 47.7274 83.5568C48.2109 83.5568 48.6263 83.3491 48.9736 82.9337C49.3256 82.5136 49.5017 81.9138 49.5017 81.1342C49.5017 80.6301 49.4289 80.196 49.2834 79.8319C49.1379 79.4678 48.9314 79.1878 48.6638 78.9917C48.3963 78.791 48.0842 78.6906 47.7274 78.6906C47.3613 78.6906 47.0351 78.791 46.7488 78.9917C46.4625 79.1878 46.2372 79.4748 46.0729 79.8529C45.9086 80.2263 45.8265 80.6721 45.8265 81.1902Z" fill="#E4E4E4"/>
<path d="M55.9283 80.4688H55.1961V83.7667C55.1961 84.2008 55.0998 84.5205 54.9074 84.7259C54.715 84.9313 54.4638 85.034 54.154 85.034C53.8208 85.034 53.5626 84.9266 53.3796 84.7119C53.1965 84.4972 53.105 84.1821 53.105 83.7666V75.8686C53.105 75.4205 53.2059 75.0961 53.4077 74.8953C53.6096 74.6946 53.9358 74.5942 54.3864 74.5942H57.7869C58.2563 74.5942 58.6576 74.6152 58.9909 74.6573C59.3241 74.6946 59.6245 74.774 59.8921 74.8953C60.2159 75.0307 60.5023 75.2244 60.751 75.4765C60.9998 75.7285 61.1875 76.0226 61.3143 76.3587C61.4457 76.6901 61.5114 77.0425 61.5114 77.416C61.5114 78.1815 61.2932 78.793 60.8567 79.2504C60.4248 79.7079 59.7677 80.0323 58.8853 80.2237C59.2561 80.4197 59.6105 80.7091 59.9484 81.0919C60.2864 81.4746 60.5868 81.8831 60.8496 82.3172C61.1172 82.7466 61.3237 83.1364 61.4692 83.4865C61.6194 83.8319 61.6945 84.07 61.6945 84.2007C61.6945 84.3361 61.6499 84.4714 61.5607 84.6068C61.4762 84.7375 61.3589 84.8402 61.2087 84.9149C61.0585 84.9942 60.8848 85.0339 60.6877 85.0339C60.453 85.0339 60.2559 84.9779 60.0963 84.8658C59.9367 84.7585 59.7982 84.6208 59.6809 84.4527C59.5682 84.2847 59.4133 84.0373 59.2162 83.7105L58.3783 82.3242C58.0779 81.8154 57.8081 81.428 57.5687 81.1619C57.334 80.8959 57.0946 80.7138 56.8505 80.6158C56.6065 80.5178 56.2991 80.4688 55.9283 80.4688ZM57.1252 76.1558H55.1961V78.9774H57.0689C57.5711 78.9774 57.9935 78.9354 58.3362 78.8514C58.6788 78.7627 58.9393 78.6157 59.1177 78.4103C59.3007 78.2002 59.3923 77.9132 59.3923 77.549C59.3923 77.2643 59.3195 77.0146 59.174 76.7999C59.0285 76.5805 58.8267 76.4171 58.5685 76.3097C58.3245 76.207 57.8433 76.1558 57.1252 76.1558Z" fill="#E4E4E4"/>
<path d="M69.4958 76.3106H67.2147V83.7674C67.2147 84.1969 67.1185 84.5166 66.926 84.7266C66.7336 84.932 66.4848 85.0347 66.1797 85.0347C65.8699 85.0347 65.6165 84.9297 65.4193 84.7197C65.2269 84.5096 65.1307 84.1922 65.1307 83.7674V76.3106H62.8495C62.4928 76.3106 62.2276 76.2336 62.0539 76.0796C61.8803 75.9209 61.7935 75.7132 61.7935 75.4564C61.7935 75.1904 61.8826 74.9803 62.061 74.8263C62.2441 74.6722 62.5069 74.5952 62.8495 74.5952H69.4959C69.8573 74.5952 70.1249 74.6746 70.2986 74.8333C70.4769 74.992 70.5661 75.1997 70.5661 75.4564C70.5661 75.7132 70.4769 75.9209 70.2986 76.0796C70.1202 76.2336 69.8526 76.3106 69.4958 76.3106Z" fill="#E4E4E4"/>
<path d="M80.2324 81.6171C80.2324 81.9439 80.1502 82.2986 79.986 82.6814C79.8264 83.0595 79.5729 83.4329 79.2256 83.8017C78.8782 84.1658 78.4347 84.4622 77.8949 84.6909C77.3551 84.9196 76.7262 85.034 76.008 85.034C75.4636 85.034 74.9684 84.9826 74.5224 84.8799C74.0765 84.7772 73.6705 84.6185 73.3044 84.4038C72.943 84.1844 72.6097 83.8973 72.3046 83.5426C72.0324 83.2205 71.8001 82.8611 71.6076 82.4643C71.4152 82.0629 71.2697 81.6358 71.1711 81.183C71.0772 80.7302 71.0303 80.2494 71.0303 79.7406C71.0303 78.9144 71.15 78.1746 71.3894 77.5211C71.6334 76.8676 71.9808 76.3098 72.4314 75.8477C72.882 75.3809 73.41 75.0261 74.0155 74.7834C74.621 74.5407 75.2664 74.4193 75.9517 74.4193C76.7872 74.4193 77.5311 74.585 78.1836 74.9164C78.836 75.2479 79.3359 75.6586 79.6832 76.1488C80.0305 76.6342 80.2042 77.094 80.2042 77.5281C80.2042 77.7662 80.1197 77.9762 79.9507 78.1583C79.7818 78.3403 79.5776 78.4313 79.3382 78.4313C79.0707 78.4313 78.8688 78.3683 78.7327 78.2423C78.6013 78.1163 78.4534 77.8992 78.2891 77.5911C78.0169 77.0823 77.6954 76.7019 77.3246 76.4498C76.9585 76.1978 76.5055 76.0718 75.9658 76.0718C75.1068 76.0718 74.4215 76.3962 73.9099 77.045C73.403 77.6938 73.1495 78.6158 73.1495 79.8108C73.1495 80.609 73.2622 81.2741 73.4875 81.8062C73.7128 82.3337 74.0319 82.7281 74.445 82.9895C74.858 83.2509 75.3415 83.3816 75.8953 83.3816C76.4961 83.3816 77.0031 83.2346 77.4161 82.9405C77.8339 82.6417 78.1483 82.2053 78.3596 81.6312C78.4487 81.3604 78.5591 81.141 78.6905 80.973C78.8219 80.8003 79.0331 80.714 79.3241 80.714C79.5729 80.714 79.7865 80.8003 79.9649 80.973C80.1432 81.1457 80.2324 81.3604 80.2324 81.6171Z" fill="#E4E4E4"/>
<path d="M54.1045 57.4356C54.1045 64.5078 48.34 70.2415 41.2285 70.2415C34.1161 70.2415 28.3516 64.5078 28.3516 57.4356C28.3516 50.3634 34.1161 44.6298 41.2285 44.6298C48.34 44.6298 54.1045 50.3634 54.1045 57.4356Z" fill="#7C7C7C"/>
<path d="M79.5723 39.5069C79.5723 46.5782 73.8078 52.3127 66.6963 52.3127C59.5839 52.3127 53.8193 46.5782 53.8193 39.5069C53.8193 32.4347 59.5839 26.7001 66.6963 26.7001C73.8078 26.7001 79.5723 32.4347 79.5723 39.5069Z" fill="#7C7C7C"/>
<path d="M48.0967 39.2239C48.0967 46.2952 42.3322 52.0298 35.2198 52.0298C28.1092 52.0298 22.3438 46.2952 22.3438 39.2239C22.3438 32.1517 28.1092 26.4171 35.2198 26.4171C42.3322 26.4171 48.0967 32.1517 48.0967 39.2239Z" fill="#7C7C7C"/>
<path d="M73.8491 57.4356C73.8491 64.5078 68.0846 70.2415 60.9712 70.2415C53.8607 70.2415 48.0952 64.5078 48.0952 57.4356C48.0952 50.3634 53.8607 44.6298 60.9712 44.6298C68.0846 44.6298 73.8491 50.3634 73.8491 57.4356Z" fill="#7C7C7C"/>
<path d="M63.8345 27.8405C63.8345 34.9127 58.069 40.6464 50.9575 40.6464C43.846 40.6464 38.0806 34.9127 38.0806 27.8405C38.0806 20.7683 43.846 15.0347 50.9575 15.0347C58.069 15.0347 63.8345 20.7683 63.8345 27.8405Z" fill="#7C7C7C"/>
<path d="M53.8198 39.5069C53.8198 39.7764 53.8434 40.0401 53.8604 40.3058C59.5721 38.9954 63.8348 33.9169 63.8348 27.8388C63.8348 27.5694 63.8112 27.3047 63.7942 27.039C58.0826 28.3504 53.8198 33.4288 53.8198 39.5069Z" fill="#E4E4E4"/>
<path d="M55.52 45.8477C57.7392 49.7058 61.9094 52.3126 66.6989 52.3126C68.6509 52.3126 70.4944 51.8677 72.1528 51.0942C69.9346 47.2361 65.7644 44.6293 60.974 44.6293C59.022 44.6293 57.1785 45.0742 55.52 45.8477Z" fill="#E4E4E4"/>
<path d="M48.0967 57.4357C48.0967 60.5644 49.2275 63.4274 51.1021 65.6512C52.9749 63.4274 54.1057 60.5644 54.1057 57.4357C54.1057 54.307 52.9749 51.4439 51.1021 49.2201C49.2275 51.4439 48.0967 54.307 48.0967 57.4357Z" fill="#E4E4E4"/>
<path d="M30.1211 50.9808C31.6852 51.6529 33.4069 52.0293 35.2192 52.0293C39.9615 52.0293 44.093 49.4732 46.3282 45.678C44.7641 45.0059 43.0415 44.6304 41.2301 44.6304C36.4878 44.6304 32.3554 47.1865 30.1211 50.9808Z" fill="#E4E4E4"/>
<path d="M38.1372 26.7587C38.107 27.1154 38.0815 27.474 38.0815 27.8391C38.0815 33.9126 42.3377 38.9863 48.0427 40.3024C48.072 39.9457 48.0975 39.5871 48.0975 39.2229C48.0975 33.1494 43.8423 28.0738 38.1372 26.7587Z" fill="#E4E4E4"/>
<path d="M39.3393 55.8498H37.325C35.5467 55.8498 34.1006 54.4164 34.1006 52.6525V34.5205C34.1006 32.7566 35.5467 31.3223 37.325 31.3223H62.5834C64.3617 31.3223 65.8069 32.7566 65.8069 34.5205V52.6525C65.8069 54.4164 64.3617 55.8498 62.5834 55.8498H53.9786L36.7143 64.2662L39.3393 55.8498Z" fill="#191919"/>
</svg>
