<svg width="175" height="61" viewBox="0 0 175 61" fill="none" xmlns="http://www.w3.org/2000/svg">
<g clip-path="url(#clip0_1419_6795)">
<path d="M134.581 7.46769V10.8332H142.417V1.57812" fill="white"/>
<path d="M128.836 1.47656L121.104 7.47131V39.0226H128.836" fill="white"/>
<path d="M86.5238 18.0922C86.5238 14.6216 86.5238 14.6216 86.5238 14.6216C79.6286 14.6216 79.6286 14.6216 79.6286 14.6216C79.6286 8.94234 79.6286 8.94234 79.6286 8.94234C79.6286 8.20614 79.6286 8.20614 79.6286 8.20614C79.6286 7.99582 79.5241 7.89062 79.3151 7.89062C79.2107 7.89062 79.1062 7.89063 79.0017 7.99582C78.1659 8.62685 78.1659 8.62684 78.1659 8.62684C67.6141 17.2509 67.6142 17.2509 67.6142 17.2509C66.8828 17.6716 66.7784 18.0922 67.9276 18.0922C71.8975 18.0922 71.8976 18.0922 71.8976 18.0922C71.8976 31.0282 71.8976 31.0282 71.8976 31.0282C71.8976 33.4472 71.6886 36.7075 74.3004 37.9695C79.733 40.8091 86.5238 38.7057 86.5238 38.7057C86.5238 35.1299 86.5238 35.1299 86.5238 35.1299C86.5238 35.1299 79.6286 38.0747 79.6286 30.8179C79.6286 18.0922 79.6286 18.0922 79.6286 18.0922" fill="white"/>
<path d="M19.034 14.4113L23.4219 26.1904H14.7507L19.034 14.4113ZM15.0641 6.52344L2.42285 39.0212H10.0494L12.5568 32.2903H25.6159L28.1232 39.0212H37.0035L24.4667 6.52344" fill="white"/>
<path d="M56.6442 14.5156C64.4797 14.5156 64.4797 14.5156 64.4797 14.5156C64.3752 39.0204 64.3752 39.0204 64.3752 39.0204C56.6442 39.0204 56.6442 39.0204 56.6442 39.0204C56.6442 34.9188 56.6442 34.9188 56.6442 34.9188C55.1816 37.9687 51.8385 39.5463 47.764 39.5463C43.7941 39.5463 41.3912 37.7584 40.4509 36.4963C38.9883 34.3929 38.8838 32.3947 38.8838 29.9757C38.8838 14.5156 38.8838 14.5156 38.8838 14.5156C46.6148 14.5156 46.6148 14.5156 46.6148 14.5156C46.6148 29.9757 46.6148 29.9757 46.6148 29.9757C46.6148 32.9205 48.8087 34.1826 51.4206 34.1826C53.719 34.1826 54.8682 33.4464 55.704 31.8688C56.5398 30.2913 56.6442 27.7672 56.6442 27.7672" fill="white"/>
<path d="M161.849 31.343L155.267 14.5156H146.491L156.834 39.0205H163.625L173.968 14.5156H168.431" fill="white"/>
<path d="M134.581 39.0204H142.312V14.5156H134.581V39.0204Z" fill="white"/>
<path d="M102.508 35.447C102.613 35.447 102.613 35.447 102.613 35.447C107.941 35.447 108.881 29.6626 108.881 26.5075C108.881 23.5627 107.627 17.9887 102.613 17.9887C97.5979 17.9887 96.2398 23.5627 96.2398 26.5075C96.2398 29.6626 97.18 35.447 102.508 35.447ZM102.613 13.9922C111.911 13.9922 117.03 19.6714 117.03 26.9282C117.03 33.8695 111.388 39.5487 102.613 39.5487C93.3145 39.5487 88.2998 33.7643 88.2998 26.6127C88.2998 19.5662 93.419 13.9922 102.613 13.9922Z" fill="white"/>
<path d="M1.27344 60.1632H173.968V47.4375H1.27344V60.1632Z" fill="white"/>
</g>
<defs>
<clipPath id="clip0_1419_6795">
<rect width="174" height="60" fill="white" transform="translate(0.620117 0.820312)"/>
</clipPath>
</defs>
</svg>
