<svg width="254" height="27" viewBox="0 0 254 27" fill="none" xmlns="http://www.w3.org/2000/svg">
<g clip-path="url(#clip0_1420_6854)">
<path fill-rule="evenodd" clip-rule="evenodd" d="M0.171755 0.169634C-0.0361767 0.383372 -0.0660186 26.2388 0.141361 26.5759C0.255503 26.7615 1.89557 26.7926 13.2989 26.8254C21.4669 26.8489 26.6006 26.8107 27.0621 26.7231C28.0936 26.527 28.6397 26.2282 29.4933 25.3926C31.0475 23.871 31.1199 23.4366 31.0605 15.9738L31.0139 10.1073L30.6439 9.29196C30.1136 8.12262 29.0356 7.07117 27.9234 6.63847L27.0295 6.29058L16.0622 6.25198L5.09498 6.21339V3.38009C5.09498 1.69747 5.03722 0.435817 4.95264 0.273393C4.82076 0.0203557 4.64418 0 2.57354 0C1.01723 0 0.286584 0.0515964 0.171755 0.169634ZM89.6693 0.283995C89.5666 0.481476 89.5337 3.95642 89.5613 11.6989L89.6012 22.8298L89.9641 23.6708C90.4607 24.8216 91.3785 25.8514 92.3658 26.3656L93.1768 26.788L101.258 26.8277L109.339 26.8673L109.484 26.4743C109.699 25.8937 109.594 22.3003 109.353 22.0029C109.182 21.7921 108.532 21.7696 102.6 21.7696H96.0366L95.5832 21.4516C94.6435 20.7921 94.6207 20.6567 94.6207 15.7287V11.3089H101.829C105.794 11.3089 109.136 11.2703 109.255 11.2231C109.441 11.1497 109.473 10.8031 109.473 8.8249C109.473 6.68342 109.453 6.50177 109.207 6.3662C109.033 6.27078 106.454 6.21989 101.781 6.21989H94.6207V3.27958C94.6207 1.18121 94.5734 0.290639 94.4557 0.169634C94.3409 0.0515964 93.6102 0 92.0539 0C89.9546 0 89.8081 0.0173879 89.6693 0.283995ZM225.487 0.220382C225.441 0.345063 225.403 1.74397 225.403 3.32877V6.21042L214.298 6.25043L203.193 6.29058L202.299 6.73403C201.315 7.22229 200.496 8.0296 199.88 9.1178L199.48 9.82461V16.5393V23.2539L199.809 23.8901C200.302 24.8427 200.748 25.3924 201.473 25.9385C202.732 26.8895 202.287 26.864 217.019 26.824L230.285 26.788V13.4293V0.0706806L227.928 0.0320886C225.87 -0.0016967 225.561 0.0221934 225.487 0.220382ZM234.094 0.169634C233.969 0.298696 233.929 2.96519 233.929 11.3075C233.929 23.2421 233.928 23.2143 234.703 24.4908C235.161 25.2437 235.843 25.8803 236.74 26.3914L237.436 26.788L245.46 26.8287C251.4 26.8589 253.534 26.8268 253.677 26.7054C253.827 26.578 253.869 26.0604 253.869 24.3895C253.869 22.4842 253.84 22.2107 253.618 22.0036C253.391 21.7928 252.717 21.7696 246.805 21.7696H240.244L239.665 21.2145L239.086 20.6594L239.046 15.9841L239.006 11.3089H246.295C253.361 11.3089 253.589 11.3006 253.726 11.0355C253.806 10.883 253.869 9.85458 253.869 8.71096C253.869 6.75184 253.856 6.6502 253.564 6.43999C253.296 6.2476 252.359 6.21989 246.138 6.21989H239.017V3.38334C239.017 1.69846 238.959 0.435817 238.874 0.273393C238.742 0.0203557 238.566 0 236.495 0C234.94 0 234.208 0.0515964 234.094 0.169634ZM38.3753 6.32252C37.7723 6.44113 36.3952 7.15472 35.9532 7.57767C35.2503 8.25027 34.6845 9.207 34.4604 10.1017C34.2884 10.7881 34.2493 11.9563 34.2493 16.4084C34.2493 22.074 34.3141 22.927 34.8281 24.0265C35.211 24.8454 36.3589 26.0052 37.2223 26.4456L37.8936 26.788L51.0849 26.8274C61.6807 26.8591 64.2983 26.8312 64.388 26.686C64.5733 26.3856 64.5293 22.1352 64.3387 21.9393C64.2129 21.8099 61.3851 21.7696 52.4497 21.7696C44.2444 21.7696 40.6309 21.7233 40.4098 21.615C39.7746 21.3038 39.4205 20.6561 39.3609 19.6964L39.3055 18.801H51.9047H64.5038V14.8726C64.5038 10.5754 64.4008 9.76439 63.7191 8.69372C63.1397 7.78363 62.259 7.00459 61.392 6.63493L60.5844 6.29058L49.6516 6.27291C43.6385 6.26315 38.5643 6.28549 38.3753 6.32252ZM72.2049 6.3204C70.3524 6.65472 68.9748 7.69118 68.2392 9.30426L67.873 10.1073L67.8323 18.2841C67.802 24.3653 67.8329 26.5117 67.9524 26.6597C68.1662 26.9247 72.3351 26.9509 72.59 26.689C72.7137 26.5618 72.755 24.8212 72.7553 19.727C72.7554 12.068 72.7335 12.2398 73.7864 11.6315C74.3352 11.3143 74.3516 11.3136 80.8918 11.3112C84.4973 11.3099 87.545 11.2703 87.6647 11.2231C87.8506 11.1497 87.8822 10.8051 87.8822 8.84822C87.8822 7.25636 87.832 6.50757 87.7172 6.38953C87.5925 6.26131 85.723 6.22456 80.0504 6.23912C75.9244 6.24972 72.394 6.28633 72.2049 6.3204ZM116.486 6.31814C114.397 6.709 112.93 7.98012 112.348 9.90349C112.103 10.7107 112.086 11.297 112.086 18.644C112.086 24.5807 112.126 26.5611 112.251 26.689C112.365 26.8065 113.076 26.8586 114.561 26.8586C116.046 26.8586 116.757 26.8065 116.871 26.689C116.995 26.5618 117.037 24.8281 117.037 19.7566C117.037 13.2578 117.047 12.9722 117.313 12.4361C117.492 12.0769 117.784 11.7767 118.133 11.5935C118.655 11.3199 118.933 11.3089 125.286 11.3089H131.896L132.039 10.9204C132.206 10.4703 132.155 6.58701 131.98 6.40791C131.863 6.28761 117.107 6.20208 116.486 6.31814ZM134.502 6.31984C134.388 6.36592 134.25 6.47364 134.194 6.55916C134.016 6.83284 134.07 10.9503 134.254 11.1393C134.379 11.2682 136.931 11.3089 144.898 11.3089C155.226 11.3089 155.387 11.3131 155.911 11.601C156.597 11.9774 157.07 12.6961 157.158 13.4943L157.227 14.1278L146.45 14.1674C138.567 14.1962 135.597 14.2511 135.395 14.3712C135.244 14.4617 134.78 14.6986 134.364 14.8979C132.42 15.8292 131.064 18.1115 131.064 20.4521C131.064 23.4326 133.209 26.1743 135.962 26.7125C136.532 26.8239 140.513 26.8584 149.423 26.8292L162.075 26.788V18.4476V10.1073L161.717 9.32504C161.196 8.18552 160.039 7.05576 158.961 6.63309L158.086 6.29058L146.397 6.26329C139.968 6.24831 134.615 6.27375 134.502 6.31984ZM165.526 6.43731C165.328 6.64129 165.306 7.66857 165.306 16.5917C165.306 24.1247 165.346 26.5602 165.471 26.689C165.66 26.883 169.932 26.9314 170.221 26.7429C170.353 26.6569 170.4 24.8907 170.428 19.0055L170.463 11.3796L179.883 11.3461L189.304 11.3124L189.84 11.6288C190.136 11.8027 190.507 12.1246 190.665 12.3439C190.947 12.7341 190.955 12.8945 190.994 19.6173C191.021 24.2613 191.083 26.5513 191.183 26.6751C191.294 26.8114 191.89 26.8586 193.503 26.8586C194.699 26.8586 195.774 26.82 195.894 26.7728C196.087 26.6959 196.111 25.8417 196.111 18.5754V10.4637L195.751 9.54075C195.266 8.29677 194.4 7.33227 193.246 6.7517L192.329 6.29058L179.038 6.25057C166.991 6.21424 165.727 6.23177 165.526 6.43731ZM5.15769 11.4863C5.12124 11.584 5.10763 13.9217 5.12757 16.6813L5.16374 21.699L14.9403 21.7353L24.7171 21.7715L25.1717 21.4526C26.0835 20.8128 26.136 20.5522 26.1326 16.6829C26.1291 12.6867 26.0499 12.3206 25.0486 11.6709L24.4909 11.3089H14.8573C7.25597 11.3089 5.20994 11.3464 5.15769 11.4863ZM40.6645 11.5666C40.0616 11.9312 39.4895 12.8458 39.389 13.606L39.3001 14.2775H49.4266H59.553V13.8489C59.553 13.3063 59.2169 12.4716 58.8245 12.0396C58.1414 11.2876 58.4104 11.3081 49.4178 11.3192C41.8524 11.3285 41.0193 11.3522 40.6645 11.5666ZM205.501 11.5626C205.259 11.6964 204.903 12.0243 204.71 12.2915L204.362 12.7775V16.6193V20.4611L204.896 21.0799L205.431 21.699L215.419 21.737L225.405 21.775L225.37 16.5773L225.334 11.3796L215.639 11.3496C206.701 11.322 205.909 11.3387 205.501 11.5626ZM136.258 18.8801C135.771 19.1522 135.602 19.4965 135.602 20.2195C135.602 20.7007 135.687 20.8963 136.069 21.289L136.537 21.7696H146.865H157.193V20.2147V18.6597L146.913 18.6653C138.109 18.6701 136.579 18.701 136.258 18.8801Z" fill="#191919"/>
</g>
<defs>
<clipPath id="clip0_1420_6854">
<rect width="254" height="27" fill="white"/>
</clipPath>
</defs>
</svg>
