<svg width="165" height="64" viewBox="0 0 165 64" fill="none" xmlns="http://www.w3.org/2000/svg">
<path d="M114.516 38.4872C114.516 38.678 114.708 38.678 114.9 38.8687C114.9 38.8687 115.092 38.8687 114.9 39.0596C114.325 40.2044 113.941 40.777 113.366 41.731C112.791 42.685 112.216 43.2576 111.257 43.83C110.107 44.784 108.382 45.929 107.04 45.1657C106.464 44.784 106.081 44.0207 106.273 43.2574C106.273 41.3493 107.231 39.2503 108.765 37.3423C110.682 34.8616 112.791 33.7169 114.325 34.48C115.859 35.2433 115.283 36.7699 114.708 38.1056C114.325 38.2963 114.325 38.2963 114.516 38.4872ZM130.046 23.4129C130.237 23.222 130.046 23.0312 129.854 23.0312C128.704 23.0312 126.978 23.0312 125.828 23.0312C125.444 23.0312 125.444 23.0312 125.253 23.4129C124.869 24.3669 119.118 32.7627 117.968 34.48C117.776 34.6709 117.584 34.6709 117.584 34.48C117.392 33.526 116.625 32.381 115.283 31.8086C114.325 31.427 113.175 31.2363 112.216 31.427C110.299 31.6179 108.573 32.5719 107.231 33.7169C104.931 35.434 103.014 37.533 100.713 39.2503C99.3709 40.2046 97.4537 40.9677 96.3034 39.8229C95.1532 38.8687 95.3447 36.579 97.0702 34.6709C97.2619 34.48 97.4537 34.6709 97.4537 34.8617C97.2619 35.625 97.4537 36.3883 98.0289 36.9606C98.7958 37.533 99.7543 37.7239 100.713 37.3423C101.863 36.7699 102.438 35.8157 102.63 34.6709C102.822 32.9536 101.48 31.2363 99.7543 31.0453C98.4122 30.8546 96.8786 31.427 95.7283 32.5719C95.1531 33.1443 94.7696 33.526 94.1944 34.2893C94.0029 34.48 93.8111 34.48 93.8111 34.2893C93.8111 31.9996 92.8526 30.6639 90.9354 30.6639C89.4015 30.6639 87.8679 31.427 86.5258 32.381C85.1837 33.526 84.0334 34.8617 82.6914 36.1973C82.4998 36.3883 82.308 36.3883 82.308 36.0066C82.308 34.48 81.9247 32.9536 81.1577 31.9996C80.9659 31.6179 80.3908 31.427 80.0074 31.6179C79.8157 31.8086 79.0487 31.9996 78.4736 32.5719C78.282 32.7627 78.0902 33.1443 78.282 33.526C79.0487 35.8157 78.8572 38.4873 77.8984 40.586C77.1317 42.685 75.4063 44.4023 73.4891 44.9749C72.147 45.3564 70.8049 45.1657 70.038 44.0207C68.8877 42.4943 69.2713 39.632 70.9967 37.3423C72.5304 35.4342 74.6394 34.0983 76.7481 33.3352C76.9399 33.1443 77.1317 33.1443 76.9399 32.9536C76.7482 32.5719 76.5566 32.1903 76.5566 31.8086C76.3648 31.2363 75.7896 31.2363 75.2145 31.2363C73.6806 31.427 72.147 31.9996 70.8049 32.7627C67.1623 34.6709 65.2451 38.4873 64.4784 40.586C64.0948 41.5403 63.7114 42.1126 63.3281 42.685C62.7529 43.4483 61.986 44.0207 60.6439 45.1657C60.4521 45.3564 60.4521 45.5473 60.4521 45.738C60.6439 45.929 61.2191 47.0737 61.4109 47.0737C61.6024 47.2646 61.7942 47.0737 61.986 46.883C62.9445 46.3106 64.0948 45.1656 64.6699 44.5933C64.8617 44.4023 65.0535 44.4023 65.2451 44.784C65.8202 46.5013 67.1623 48.0279 68.8877 48.6003C72.3388 49.7451 75.7896 48.0277 78.4736 45.1657C80.1992 43.4483 80.7744 42.1126 81.3495 41.3493C82.4998 40.0136 84.6086 36.9606 87.1009 35.0526C88.0594 34.2893 89.2099 33.7169 89.7851 34.0986C90.1684 34.48 90.3602 35.0526 89.5933 36.3883C86.9092 41.1586 83.0749 46.6921 82.4998 48.0277C82.308 48.2187 82.4998 48.4094 82.6914 48.4094C84.0334 48.4094 85.3755 48.4094 86.7176 48.4094C86.9092 48.4094 87.1009 48.2187 87.1009 48.2187C89.0181 45.1657 90.9354 42.1126 93.0442 39.0596C93.2359 38.8687 93.2359 39.0596 93.2359 39.0596C93.2359 39.8229 93.4277 40.777 93.8111 41.3493C94.578 42.4943 95.7283 43.0667 96.8786 43.0667C97.8371 43.0667 98.4122 42.8759 99.3709 42.4943C100.138 42.1126 100.905 41.731 101.48 41.3493C101.863 41.1586 101.863 41.5403 101.863 41.5403C101.48 44.0207 102.055 46.883 104.355 48.2187C107.231 49.7451 110.49 47.6463 112.408 45.738C112.599 45.5473 112.791 45.5473 112.791 45.929C112.791 46.692 113.175 47.4554 113.75 48.0277C115.283 49.5543 118.543 48.982 121.61 46.5013C123.719 44.9749 125.828 42.685 127.745 40.3953C127.745 40.3953 127.937 40.2044 127.745 40.0136C127.362 39.632 126.978 39.4413 126.786 39.0596C126.595 38.8687 126.403 39.0596 126.403 39.0596C124.486 40.9677 122.569 43.0667 120.076 44.784C119.118 45.3564 117.776 45.929 117.201 44.9749C117.009 44.5933 117.009 44.2116 117.201 43.639C117.584 42.4943 129.47 24.3669 130.046 23.4129Z" fill="#191919"/>
<path d="M74.2625 25.5141C74.2625 25.7048 74.4543 25.8957 74.4543 25.8957C75.0295 25.7048 75.7964 25.3232 76.1797 24.7508C76.5631 24.1784 76.7549 23.4151 76.3715 23.2244C75.9879 23.0335 75.6046 23.0335 75.2212 23.4151C74.4543 23.9875 74.2625 24.9417 74.2625 25.5141ZM43.9713 48.7932C39.5617 48.7932 35.7273 46.1219 35.1522 41.3515C34.9606 38.6802 35.7273 36.3905 37.0694 34.4824C38.4115 32.7651 40.5202 31.4292 42.4375 31.0477C43.0126 30.8568 43.9713 31.0477 44.1629 31.4292C44.738 32.0018 44.5465 32.7651 43.9713 32.9558C42.4375 33.7191 40.712 34.8639 39.9451 36.5812C39.1784 37.9169 39.1784 39.6342 40.1369 41.3515C41.8623 44.0229 46.847 44.0231 51.4482 39.8251C52.5985 38.8711 53.5572 37.7261 54.7075 36.5812C56.8162 34.2915 57.3914 33.3375 60.0755 29.7121V29.5211C60.0755 29.5211 60.0755 29.5211 59.8837 29.5211C58.1583 29.5211 56.4329 30.0935 54.899 31.2385C54.5157 31.6201 53.7487 31.4292 53.5572 31.0477C53.1736 30.6661 53.5572 29.9028 53.9405 29.5211C56.4329 27.8038 59.117 27.4221 61.8009 27.0405C61.8009 27.0405 61.9927 27.0405 62.1843 26.8498C63.3346 25.3232 64.1015 24.1784 65.4436 22.6518C66.5939 21.1254 68.1275 19.7897 69.4696 18.8356C71.195 17.4999 72.1537 16.9274 73.304 16.355C73.4958 16.1642 73.304 15.9734 73.1122 15.9734C66.9772 14.8285 60.8425 13.302 54.7075 15.5917C50.4897 17.1182 48.7642 20.3621 49.5309 22.6518C50.1061 24.1784 52.2151 24.3691 54.1323 23.6058C55.666 22.8427 57.1998 21.5071 58.3501 19.9805C58.9252 19.0264 60.2671 19.7896 59.5004 21.3161C57.775 25.5141 54.3239 28.7578 50.2979 28.7578C46.847 28.9488 44.5465 26.2774 44.5465 23.2244C44.5465 16.9274 51.4482 12.9203 58.7334 12.3479C67.5524 11.5846 75.7964 13.8744 84.6153 15.0193C91.3254 15.7826 97.652 15.7826 104.362 14.256C105.129 14.0652 105.704 14.6377 105.704 15.4009C105.704 16.5458 104.746 17.6907 102.445 18.8356C99.9528 20.1713 97.2687 20.5529 94.5845 20.5529C87.8746 20.5529 81.7396 18.0723 75.4128 16.7366C75.4128 16.9275 75.4128 17.3091 75.2212 17.4999C71.5786 20.1713 68.5111 22.8427 66.4021 26.4681V26.6588C68.3193 26.4681 69.8532 26.4681 71.7702 26.4681C72.1537 26.4681 72.1537 26.2774 72.1537 26.0865C71.9619 24.7508 72.3453 23.4151 73.4956 22.2701C74.6461 21.3161 76.1797 21.1253 77.1384 21.8885C78.2887 22.6518 78.097 24.1784 77.5218 25.3232C76.9467 26.4681 75.9879 27.0405 75.0294 27.4221C75.0294 27.4221 74.8377 27.4221 74.8377 27.6131C74.8377 27.9947 76.1797 28.5671 76.3715 28.7578C76.5631 28.9488 76.3715 29.1395 76.1797 29.5211C75.9879 29.7119 75.7964 29.9028 75.6046 29.9028C75.4128 29.9028 75.2212 29.9028 75.0294 29.7121C74.4543 29.3304 73.6874 28.9488 73.304 28.1855C73.1122 27.9947 73.1122 27.9945 72.5371 27.9945C70.6199 28.1855 67.7442 28.3762 65.6354 28.5671C65.0602 28.5671 65.0602 28.7578 65.0602 28.9488C61.8009 34.1008 58.5417 39.8251 54.7075 43.4505C50.873 47.6485 47.614 48.6025 43.9713 48.7932Z" fill="#191919"/>
<path d="M82.5 6.80872C41.0891 6.80872 7.53857 18.2576 7.53857 32.187C7.53857 46.1163 41.0891 57.5651 82.5 57.5651C123.911 57.5651 157.461 46.1163 157.461 32.187C157.461 18.0667 123.911 6.80872 82.5 6.80872ZM82.5 59.6641C39.5552 59.6641 4.85449 47.2613 4.85449 31.996C4.85449 16.731 39.5552 4.32812 82.5 4.32812C125.445 4.32812 160.146 16.731 160.146 31.996C160.146 47.2613 125.445 59.6641 82.5 59.6641Z" fill="#191919"/>
</svg>
