<svg width="92" height="76" viewBox="0 0 92 76" fill="none" xmlns="http://www.w3.org/2000/svg">
<path fill-rule="evenodd" clip-rule="evenodd" d="M42.4398 0.0184218C41.359 0.0781121 39.9941 0.219171 39.1958 0.353741C38.734 0.431598 38.2531 0.511668 38.1271 0.531667C36.4798 0.793404 33.3419 1.59693 32.0658 2.08384C31.7891 2.18941 31.2745 2.37863 30.9222 2.50435C30.5699 2.63006 30.1062 2.81265 29.8917 2.91004C29.6773 3.00744 29.2812 3.17949 29.0116 3.29223C28.3496 3.56916 26.2589 4.61397 25.4783 5.0579C24.336 5.70755 22.0403 7.25805 21.0291 8.0628C18.4319 10.1299 16.1691 12.4158 14.2277 14.9339C13.6079 15.7379 12.5182 17.3123 12.5182 17.4039C12.5182 17.4308 12.8531 17.4514 13.2624 17.4495L14.0067 17.4462L14.3776 16.9203C14.7116 16.4468 15.3973 15.5698 16.1684 14.6298C16.7806 13.8837 17.9036 12.6948 18.9346 11.7015C20.0639 10.6135 21.5606 9.36179 21.7322 9.36179C21.787 9.36179 22.235 9.6133 22.728 9.92068C23.221 10.2281 24.0537 10.7061 24.5784 10.9829C25.1032 11.2597 25.5429 11.5365 25.5556 11.5982C25.5682 11.6599 25.3774 11.9462 25.1317 12.2344C24.3479 13.1536 23.396 14.4101 22.7686 15.3537C22.0417 16.4471 21.5252 17.3129 21.5252 17.4381C21.5252 17.5331 22.4781 17.5684 22.7886 17.485C22.8747 17.4618 23.098 17.2143 23.2848 16.9347C23.7525 16.2346 25.0726 14.4822 25.6585 13.7834C26.6657 12.5822 26.9801 12.2597 27.0974 12.3078C27.8388 12.6118 33.2862 14.549 33.4075 14.5519C33.4699 14.5534 33.1855 15.2968 32.8234 16.0789C32.1474 17.5387 32.1467 17.5267 32.8985 17.5269C33.6513 17.5271 33.6196 17.558 34.2778 16.182C34.6541 15.3956 34.917 14.9339 34.9886 14.9339C35.051 14.9339 35.3362 14.9831 35.6223 15.0433C37.4085 15.4189 40.5145 15.7958 42.6722 15.8989C43.9008 15.9575 43.909 15.9625 43.8986 16.6408C43.8953 16.8565 43.9122 17.1287 43.9362 17.2458L43.9798 17.4585L44.641 17.4366L45.3022 17.4146L45.348 16.7455C45.3731 16.3775 45.4082 16.0618 45.426 16.0441C45.4437 16.0263 45.7838 15.9909 46.1817 15.9653C48.488 15.8168 51.6943 15.4152 53.237 15.0817C53.6128 15.0004 53.9823 14.9339 54.0578 14.9339C54.1593 14.9339 54.36 15.2639 54.8237 16.1934L55.452 17.4528H56.121C56.6572 17.4528 56.79 17.4307 56.79 17.3411C56.79 17.1981 56.5554 16.5981 56.1747 15.7671C56.0096 15.4068 55.8551 14.9602 55.8312 14.7748L55.788 14.4378L57.0714 14.0289C58.5672 13.5524 61.2925 12.557 61.9538 12.2456C62.0442 12.203 62.1534 12.1808 62.1966 12.1962C62.4855 12.2991 64.4961 14.7644 65.7206 16.5173L66.3694 17.4461L67.0397 17.4494C67.5184 17.4518 67.7208 17.4247 67.7477 17.3546C67.7906 17.2427 65.8357 14.2469 65.7199 14.2469C65.6783 14.2469 65.6443 14.202 65.6443 14.1469C65.6443 14.092 65.4852 13.8606 65.2908 13.6329C65.0964 13.4051 64.8835 13.1324 64.8177 13.0268C64.7519 12.9212 64.5316 12.6548 64.328 12.4349C63.998 12.0783 63.736 11.6344 63.736 11.4317C63.736 11.392 63.9508 11.2408 64.2131 11.0958C65.221 10.5387 65.3862 10.4468 65.681 10.28C65.8481 10.1853 66.2431 9.94381 66.5588 9.74329C67.3178 9.26111 67.4194 9.23538 67.7244 9.44835C68.422 9.93549 69.869 11.2169 71.0297 12.3753C72.4537 13.7965 73.494 15.0066 74.5159 16.4306L75.1791 17.3547L75.6652 17.4045C76.1697 17.4562 76.6085 17.4062 76.681 17.2888C76.748 17.1806 75.2695 15.1736 74.0555 13.7247C73.2545 12.7685 71.5596 10.9151 71.4497 10.875C71.4124 10.8614 71.1293 10.6098 70.8204 10.3159C68.3008 7.9183 65.0136 5.61534 61.842 4.02569C61.325 3.76662 60.7408 3.49107 60.5439 3.41344C60.347 3.33581 59.9284 3.15338 59.6137 3.00813C58.2524 2.37939 55.1357 1.3771 53.1478 0.928737C52.0436 0.679595 49.7081 0.300844 48.3936 0.157648C47.4153 0.0510912 43.5044 -0.0403525 42.4398 0.0184218ZM41.562 1.43389C39.5453 1.57732 36.6176 2.08537 36.5327 2.30665C36.4843 2.4326 36.5506 2.64472 36.6383 2.64472C36.671 2.64472 36.8806 2.77036 37.1038 2.92394C38.5789 3.93867 41.0619 4.69846 43.4321 4.86051C44.3658 4.92432 46.0495 4.86418 46.7525 4.74189C48.4684 4.44344 49.8294 4.02637 51.0175 3.43481C52.0739 2.90875 52.5903 2.55892 52.5911 2.36878C52.5917 2.23208 52.5128 2.18903 52.0765 2.08751C51.7932 2.02156 51.4583 1.94897 51.3323 1.92607C51.2064 1.90325 51.0003 1.866 50.8743 1.84333C48.4528 1.4074 44.4252 1.23032 41.562 1.43389ZM34.0993 2.84325C34.0741 2.86852 33.9224 2.90668 33.7622 2.92813C33.602 2.94958 33.3507 3.02752 33.2038 3.1014C33.0569 3.17529 32.8508 3.25979 32.7458 3.28925C32.3926 3.38818 30.1132 4.26918 30.0399 4.33505C30.0001 4.37093 29.927 4.40032 29.8777 4.40032C29.6773 4.40032 26.848 5.82746 25.6089 6.55352C23.7479 7.64405 23.0869 8.14707 23.1443 8.42895C23.1564 8.48819 23.5987 8.78244 24.1273 9.0828C24.6557 9.38316 25.1881 9.68596 25.3104 9.75573C26.6806 10.5373 26.6332 10.5342 27.3263 9.88305C29.4985 7.84251 32.0625 5.85296 34.4633 4.34505C35.5694 3.65037 35.583 3.58396 34.7345 3.0221C34.408 2.80585 34.1963 2.74624 34.0993 2.84325ZM54.252 3.06721C53.9695 3.27437 53.8894 3.38031 53.8894 3.54626C53.8894 3.7325 53.9639 3.8012 54.481 4.09217C55.1533 4.47054 57.1917 5.84273 57.9349 6.41735C59.2447 7.42994 60.4876 8.50193 61.6338 9.60772C62.4068 10.3534 62.5799 10.4138 63.0504 10.1011C63.1966 10.004 63.9088 9.58872 64.6329 9.17821C65.744 8.54841 65.9496 8.40422 65.9496 8.255C65.9496 8.11005 65.7258 7.93426 64.7092 7.28072C64.0271 6.84212 63.2971 6.38796 63.0872 6.27148C62.8773 6.155 62.3964 5.88716 62.0186 5.67633C60.4012 4.77357 57.7678 3.65686 56.1411 3.18399C55.6793 3.0498 55.2226 2.90783 55.1262 2.86867C54.8261 2.7467 54.6273 2.79181 54.252 3.06721ZM51.714 4.61313C51.588 4.6793 51.1777 4.85891 50.8022 5.01233C50.4267 5.16568 50.0877 5.34139 50.049 5.40276C49.997 5.48528 50.2035 5.83075 50.8437 6.73198C51.884 8.19638 52.9678 9.87244 53.9756 11.5754C54.3857 12.2681 54.7707 12.9035 54.8314 12.9875C54.9408 13.1389 54.9498 13.1381 55.9612 12.8833C57.6133 12.4672 60.6888 11.3013 60.863 11.025C60.9032 10.9613 60.9159 10.8566 60.8913 10.7924C60.8182 10.602 58.8406 8.85816 57.6129 7.90136C56.5723 7.09043 55.383 6.23224 55.3 6.23224C55.2814 6.23224 55.0166 6.06523 54.7114 5.8612C53.6767 5.16919 52.3059 4.46275 52.0407 4.48474C51.9869 4.48916 51.8399 4.54695 51.714 4.61313ZM36.0662 4.98585C35.2608 5.4362 33.0995 6.85449 32.326 7.4401C31.282 8.2305 28.8065 10.3473 28.4522 10.7525C28.1978 11.0435 28.2775 11.215 28.7577 11.41C29.3414 11.647 30.9508 12.2519 31.3337 12.3781C32.2809 12.6902 33.9341 13.1783 34.0442 13.1783C34.2072 13.1783 34.3447 13.0167 34.6288 12.4913C35.5339 10.8175 37.0703 8.38392 38.1844 6.85922C38.7326 6.10897 39.0049 5.66992 39.0049 5.53642C39.0049 5.35261 38.9291 5.30537 38.0537 4.94478C37.5305 4.7293 37.0411 4.55435 36.966 4.55595C36.891 4.55763 36.486 4.75105 36.0662 4.98585ZM39.625 7.25011C38.4647 8.79618 37.605 10.0641 36.7441 11.499C35.9451 12.8308 35.799 13.124 35.799 13.3966C35.799 13.6017 35.8303 13.6283 36.1616 13.7051C36.6339 13.8146 38.6221 14.1476 39.1449 14.2048C39.3689 14.2293 39.7811 14.2843 40.0609 14.3268C40.3407 14.3694 41.318 14.4256 42.2325 14.4517L43.8953 14.4991L43.8736 10.4483C43.8617 8.22034 43.8337 6.37933 43.8115 6.35712C43.7547 6.30048 43.4564 6.25407 42.2731 6.11783C42.0765 6.09516 41.6643 6.04401 41.3571 6.00417C41.05 5.96425 40.758 5.93059 40.7084 5.92929C40.6587 5.92799 40.1712 6.52238 39.625 7.25011ZM46.8288 6.14492C46.1151 6.25591 45.4891 6.37399 45.4376 6.40735C45.3656 6.45398 45.3465 7.30003 45.3549 10.0712C45.361 12.053 45.3805 13.8714 45.3983 14.1121L45.4307 14.5496L46.1298 14.5087C48.0854 14.3944 49.1402 14.3024 50.111 14.1615C51.3465 13.9821 53.2009 13.592 53.303 13.4899C53.468 13.3249 51.5641 10.1404 50.0817 8.10234C48.967 6.56962 48.4376 5.93433 48.2791 5.93883C48.1951 5.9412 47.5425 6.03394 46.8288 6.14492ZM72.5904 20.7441C71.6025 20.7926 71.2627 20.8284 70.1096 21.0052C69.158 21.1512 67.5955 21.5335 66.6682 21.8472C64.4558 22.5957 63.022 23.296 61.7662 24.2413C58.833 26.4494 56.9241 29.8156 56.331 33.8257C55.819 37.2881 55.8454 40.324 56.4118 43.1143C56.9841 45.9335 58.484 48.8034 60.3337 50.6183C60.9186 51.1923 62.483 52.4121 62.6341 52.4121C62.6582 52.4121 62.8217 52.509 62.9972 52.6275C63.7555 53.1394 65.1007 53.7814 66.4458 54.2735C68.1331 54.8907 70.1769 55.32 72.1558 55.473C74.353 55.6428 76.7719 55.4705 79.1632 54.9737C80.507 54.6944 83.0107 53.8639 83.9672 53.38C85.8514 52.4269 87.4387 51.1601 88.5753 49.7024C90.3446 47.4331 91.5629 43.8645 91.9184 39.9093C92.0914 37.9844 91.9925 36.1977 91.5922 34.0165C91.3063 32.4589 91.2154 32.0962 90.7975 30.8488C90.1643 28.9581 89.7687 28.1808 88.7648 26.8547C86.6552 24.068 82.4544 21.8103 78.0099 21.0747C77.611 21.0087 77.2026 20.941 77.1022 20.9242C76.0086 20.7421 74.1451 20.6677 72.5904 20.7441ZM34.1198 20.8115C33.8889 20.8426 33.511 20.8919 33.2801 20.9209C33.0492 20.9501 32.7401 21.0038 32.5932 21.0403C32.4462 21.0769 32.223 21.1225 32.097 21.1418C31.6104 21.2161 30.598 21.5082 29.9127 21.772C27.0774 22.8632 25.1284 24.5206 24.1428 26.6789C23.3881 28.3313 23.1669 29.5503 23.2269 31.7258C23.2734 33.4171 23.3501 33.8284 23.8315 34.9706C24.3037 36.0909 24.9164 36.9599 25.9857 38.0259C27.9265 39.9609 29.4074 40.7231 33.7763 42.036C35.1384 42.4453 37.0668 43.0176 37.3638 43.1006C37.6414 43.1781 39.0429 43.6065 40.4934 44.0572C41.0811 44.2399 41.8196 44.4598 42.1345 44.546C42.4493 44.6323 43.0414 44.8439 43.4503 45.0161C44.2185 45.3399 44.6017 45.6535 44.698 46.0372C44.7568 46.2715 44.531 46.7433 44.2717 46.9277C44.0995 47.0502 43.0319 47.3934 42.5261 47.4889C41.4911 47.6842 39.7069 47.7346 38.6262 47.5992C36.7399 47.3626 34.3743 46.5073 33.0443 45.581C32.1888 44.9851 31.1231 43.9021 30.5833 43.0799L30.1442 42.4112L26.808 42.4311L23.4717 42.451L23.4521 48.6147L23.4326 54.7783H27.1732H30.9139V53.6715C30.9139 52.7343 30.9316 52.5647 31.0294 52.5647C31.093 52.5647 31.6182 52.8211 32.1965 53.1345C34.5304 54.3988 37.6327 55.2529 40.6842 55.4714C43.7713 55.6924 46.7233 55.1855 49.3244 53.9878C51.4124 53.0265 53.0401 51.4177 54.0467 49.3207C54.7693 47.8155 55.0337 46.6396 55.0337 44.9317C55.0337 43.2387 54.7391 41.9554 54.0333 40.5747C53.0395 38.6305 51.1285 36.7236 49.0424 35.5946C47.8314 34.9392 46.7818 34.5851 42.4398 33.3673C41.957 33.2319 40.8922 32.9235 40.0736 32.682C39.2549 32.4404 38.4821 32.2149 38.3561 32.1807C37.9459 32.0694 35.9271 31.4899 35.3792 31.3261C34.3375 31.0149 33.7019 30.597 33.514 30.0996C33.3863 29.7616 33.4162 29.569 33.6549 29.1926C33.8274 28.9207 33.9889 28.7872 34.3772 28.5961C34.823 28.3767 34.9665 28.3461 35.7007 28.3144C36.4845 28.2805 38.4786 28.3816 38.9668 28.4799C39.4601 28.5794 41.2772 29.0507 41.6383 29.1729C43.6445 29.8518 45.6094 31.2216 46.6978 32.6998L47.0491 33.1768H50.5074H53.9657V27.4139V21.651H50.3805H46.7954L46.7739 22.5851C46.755 23.411 46.7367 23.5222 46.6163 23.5453C46.5414 23.5597 46.0949 23.3495 45.624 23.0784C44.8621 22.6396 44.438 22.4248 43.5084 22.0066C42.7 21.643 40.3064 21.0741 38.9668 20.9274C38.7149 20.8998 38.2683 20.8463 37.9745 20.8085C37.3474 20.7278 34.7267 20.7298 34.1198 20.8115ZM10.4764 21.0976L0 21.1172V25.2496V29.3821L2.4235 29.3521L4.84699 29.3222L4.86638 37.9666L4.88584 46.611H2.44288H0V50.6947V54.7783H10.7251H21.4503L21.4305 50.7137L21.4107 46.6491L18.9488 46.629L16.4867 46.6088L16.5062 38.0037L16.5256 29.3985L19.0063 29.3603L21.4871 29.3222L21.4839 28.9596C21.4821 28.7601 21.4735 26.8968 21.4648 24.8187L21.4489 21.0403L21.2008 21.0591C21.0643 21.0695 16.2383 21.0868 10.4764 21.0976ZM72.5693 29.248C71.8455 29.3841 70.7172 29.8107 70.2737 30.1158C69.9186 30.3601 69.4162 30.9732 69.1726 31.4594C68.7388 32.3254 68.5788 33.4281 68.4634 36.3446C68.2413 41.9616 68.7596 44.8629 70.1889 46.0037C71.0845 46.7185 72.3667 47.0869 73.9643 47.0884C76.6614 47.0909 78.4468 46.1119 79.08 44.2829C79.4575 43.1925 79.6562 40.3473 79.5906 36.9698C79.5349 34.1026 79.3001 32.5045 78.769 31.3794C78.3369 30.464 77.2695 29.675 75.9747 29.3139C75.3453 29.1384 73.3564 29.0999 72.5693 29.248ZM12.6324 58.4427C12.5816 58.5249 12.5902 58.5385 13.5773 59.9306C14.7368 61.5657 15.7044 62.7074 17.3548 64.3875C19.6509 66.7249 21.9949 68.6263 24.5156 70.1964C25.5665 70.851 26.9968 71.6473 27.1218 71.6473C27.1647 71.6473 27.2542 71.6966 27.3207 71.7567C27.6632 72.0666 30.1989 73.1585 32.1352 73.8298C38.1868 75.9279 44.0898 76.4921 50.4163 75.5771C52.1733 75.323 52.5924 75.2379 54.5382 74.7399C58.0444 73.8426 61.8857 72.2303 64.6861 70.4807C68.7165 67.9627 71.8196 65.1875 74.8186 61.4191C75.4142 60.6706 76.3916 59.3137 76.7074 58.797C76.9399 58.4163 76.8652 58.367 76.0634 58.3719L75.4528 58.3756L74.7276 59.3719C73.8938 60.5175 72.6998 61.97 71.8623 62.8577C71.544 63.1951 71.2208 63.5509 71.1442 63.6482C70.9544 63.8896 69.0025 65.6667 68.4016 66.1454C68.1338 66.3587 67.856 66.5332 67.7842 66.5332C67.7123 66.5332 66.8064 66.0493 65.7711 65.4578C64.4355 64.6948 63.8887 64.3434 63.8887 64.2483C63.8887 64.1747 64.2007 63.7398 64.5819 63.282C65.6638 61.9828 66.3191 61.098 67.1588 59.8032C67.5853 59.1453 67.9551 58.5527 67.9806 58.4865C68.0209 58.3815 67.9277 58.3658 67.2627 58.3658H66.4987L66.0963 58.9956C65.461 59.9898 63.6518 62.3334 62.7663 63.3094L62.4709 63.6349L61.5196 63.2797C60.9964 63.0844 60.2077 62.7897 59.7668 62.6248C58.5885 62.1841 57.5287 61.8171 56.7519 61.5808C56.2991 61.443 56.0572 61.3304 56.0418 61.2503C56.0289 61.1834 56.126 60.8935 56.2575 60.606C56.6181 59.8183 57.0953 58.6065 57.0953 58.4788C57.0953 58.3877 56.9661 58.3658 56.4271 58.3658H55.7589L55.1203 59.6712L54.4817 60.9765L54.2428 60.927C52.1778 60.4992 48.649 60.0153 46.9051 59.9208C46.4014 59.8935 45.9377 59.8614 45.8747 59.8495C45.8117 59.8376 45.7 59.8252 45.6266 59.822C45.5111 59.8169 45.493 59.7342 45.493 59.2117C45.493 58.3434 45.5125 58.3658 44.7597 58.3658H44.1191L44.1179 59.0337C44.1172 59.4011 44.0915 59.7403 44.0607 59.7877C44.0276 59.8384 43.6283 59.8951 43.0886 59.9257C42.5848 59.9542 42.0353 59.9919 41.8673 60.0095C40.1524 60.1887 39.9477 60.2137 38.089 60.4692C37.942 60.4894 37.2722 60.5945 36.6005 60.7027C35.9288 60.8109 35.3449 60.9048 35.3029 60.9112C35.2609 60.9176 34.9346 60.3562 34.5778 59.6635L33.9289 58.404L33.2506 58.3818L32.5722 58.3596L32.6136 58.6148C32.6364 58.7552 32.8814 59.3546 33.1581 59.947C33.4348 60.5392 33.6699 61.1001 33.6806 61.1934C33.6983 61.3489 33.5893 61.3991 32.3642 61.7986C30.8423 62.2949 29.0769 62.9104 28.7385 63.0628C28.6125 63.1195 28.2097 63.2851 27.8433 63.4307L27.1773 63.6955L26.9837 63.5433C26.4698 63.1391 24.501 60.6522 23.4439 59.0719L22.9715 58.3658H22.2484C21.8506 58.3658 21.5252 58.3947 21.5252 58.43C21.5252 58.5407 22.2436 59.6952 22.8486 60.5568C23.1679 61.0116 23.9334 62.0138 24.5497 62.7841C25.5629 64.05 25.6638 64.203 25.6015 64.3782C25.5507 64.5211 25.2119 64.759 24.3113 65.2842C22.4596 66.3641 22.0124 66.6095 21.8966 66.6095C21.7471 66.6095 20.6148 65.6837 19.4773 64.6313C17.8065 63.0855 15.8209 60.8298 14.5806 59.0684L14.0859 58.3658H13.3829C12.9934 58.3658 12.6587 58.4001 12.6324 58.4427ZM41.7147 61.4296C39.7556 61.5881 38.0544 61.8458 36.2956 62.2504C36.165 62.2804 36.056 62.3609 36.0411 62.4382C35.9751 62.7809 38.5653 66.9311 40.0497 68.8613C40.9459 70.0265 40.9971 70.0749 41.2751 70.0214C41.8859 69.9039 42.8599 69.743 43.4519 69.662L44.1204 69.5704L44.1007 65.4756L44.0809 61.3809L43.3176 61.3713C42.8978 61.3659 42.1765 61.3922 41.7147 61.4296ZM45.5391 62.4137C45.5099 63.0028 45.5102 64.857 45.5397 66.5343C45.5871 69.2283 45.6076 69.5879 45.7149 69.6195C45.7818 69.6392 46.1682 69.6911 46.5735 69.7349C46.9789 69.7786 47.5565 69.8662 47.8571 69.9294C48.8152 70.1309 48.7325 70.1745 49.5843 69.022C50.6983 67.515 51.4686 66.378 52.3246 64.9772C53.2186 63.5143 53.7944 62.4436 53.7247 62.3739C53.682 62.3311 53.1171 62.167 52.6299 62.0557C51.2713 61.7454 47.6704 61.346 46.2105 61.3437L45.5921 61.3427L45.5391 62.4137ZM32.5168 63.2063C31.0756 63.6709 30.0575 64.0551 28.9865 64.5386C28.3103 64.8439 28.3059 64.9658 28.9484 65.5862C30.969 67.5374 33.6358 69.5456 36.1238 70.9896L37.0212 71.5104L37.6886 71.242C38.7466 70.8166 39.3866 70.5144 39.3866 70.4402C39.3866 70.4025 39.2716 70.2207 39.1309 70.0363C38.152 68.7523 36.1577 65.6556 34.9209 63.4991C34.5029 62.7703 34.4562 62.717 34.2387 62.7216C34.1103 62.7242 33.3355 62.9424 32.5168 63.2063ZM55.2027 62.8203C55.1428 62.8998 55.0609 63.0401 54.5949 63.8616C53.6032 65.6098 52.4718 67.374 51.217 69.1284C50.8117 69.6952 50.4592 70.2644 50.4338 70.3933C50.3909 70.61 50.4087 70.635 50.6691 70.7241C50.824 70.7772 51.0881 70.8819 51.256 70.9569C51.4239 71.032 51.7702 71.1689 52.0255 71.2613L52.4897 71.4294L53.285 70.9952C54.839 70.1467 56.5173 69.0119 58.1257 67.722C59.5175 66.6058 61.1408 65.0548 61.1408 64.8412C61.1408 64.6755 60.95 64.5738 59.7909 64.1218C58.5195 63.626 58.1669 63.504 57.1716 63.2153C55.8344 62.8277 55.2809 62.7165 55.2027 62.8203ZM26.1931 65.8076C25.887 65.9543 25.1409 66.371 24.535 66.7336C23.55 67.3233 23.4335 67.4149 23.4335 67.6001C23.4335 67.854 23.4767 67.8923 24.6166 68.6472C27.3143 70.434 30.4901 71.9149 33.7362 72.8998L34.6121 73.1655L35.0016 72.9426C35.4355 72.6944 35.6164 72.4209 35.4695 72.2354C35.4198 72.1726 34.864 71.798 34.2343 71.403C33.1259 70.7078 31.4043 69.4976 30.6961 68.9159C29.7634 68.1499 29.1773 67.6311 28.1151 66.6309C27.4784 66.0314 26.9107 65.5409 26.8535 65.5409C26.7963 65.5409 26.4992 65.6609 26.1931 65.8076ZM61.6369 66.3942C58.8182 69.0007 58.2563 69.4524 55.7032 71.1633C54.8525 71.7333 54.1438 72.2113 54.1283 72.2253C54.1127 72.2393 54.1218 72.3376 54.1484 72.4435C54.179 72.5654 54.3475 72.7327 54.6069 72.8986L55.0169 73.161L55.9989 72.8743C57.7167 72.3727 60.3845 71.3043 61.6369 70.6164C61.8888 70.478 62.2838 70.2641 62.5147 70.1409C63.1818 69.7849 63.6672 69.5065 64.1001 69.2314C64.3213 69.0908 64.5164 68.9758 64.5336 68.9758C64.5886 68.9758 65.5158 68.3547 65.9305 68.04C66.5908 67.539 66.5122 67.4273 64.8895 66.5617C64.6632 66.4411 64.4228 66.3079 64.3551 66.2657C64.2875 66.2236 63.9704 66.0432 63.6503 65.865C62.7674 65.3732 62.7305 65.383 61.6369 66.3942ZM42.8596 71.148C41.1513 71.3808 39.2999 71.9608 37.9772 72.6777C36.9329 73.2438 36.7789 73.3712 36.8668 73.597C36.9823 73.8942 40.069 74.3854 42.8935 74.5564C44.1614 74.6331 46.7448 74.608 47.7066 74.5098C47.8955 74.4906 48.4132 74.4389 48.8569 74.3951C49.3007 74.3512 49.7301 74.3034 49.811 74.2888C49.8921 74.2742 50.1301 74.2381 50.34 74.2087C50.9449 74.1239 51.1279 74.0915 52.0193 73.9107C52.7535 73.7617 52.8619 73.7199 52.8825 73.5776C52.9007 73.4525 52.8008 73.3432 52.4512 73.1058C51.2529 72.2921 49.3437 71.5586 47.6303 71.2538C46.4927 71.0514 43.9779 70.9956 42.8596 71.148Z" fill="white"/>
</svg>
