<svg width="72" height="64" viewBox="0 0 72 64" fill="none" xmlns="http://www.w3.org/2000/svg">
<g clip-path="url(#clip0_1420_6860)">
<path d="M2.96064 63.9988C7.4088 61.1508 10.3438 55.9903 10.3438 50.4094L10.3409 0H4.602V50.1734C4.602 52.2583 4.1232 54.2309 3.15168 55.8753C2.33088 57.1625 1.25088 58.3315 0 59.1955L2.96064 63.9988Z" fill="#191919"/>
<path d="M27.7821 48.4743V0H22.043V54.1186H54.1744L50.7321 48.4743H27.7821Z" fill="#191919"/>
<path d="M70.3162 14.9198C70.3162 6.57145 63.1238 0 55.0169 0H39.487V5.6413H55.091C60.5251 5.6413 64.4261 9.89453 64.4261 14.9198C64.4261 20.1005 60.5251 24.4287 55.091 24.4287H39.4102V30.0729H51.0391L65.8795 54.1157H72.0002L57.083 29.9174C64.3493 28.9902 70.3162 23.346 70.3162 14.9198Z" fill="#191919"/>
</g>
<defs>
<clipPath id="clip0_1420_6860">
<rect width="72" height="64" fill="white"/>
</clipPath>
</defs>
</svg>
