<svg width="86" height="87" viewBox="0 0 86 87" fill="none" xmlns="http://www.w3.org/2000/svg">
<g clip-path="url(#clip0_1419_6816)">
<path fill-rule="evenodd" clip-rule="evenodd" d="M41.2923 0.0215011C31.2638 0.436147 21.9256 4.25706 14.3639 11.0399C13.6268 11.701 11.6054 13.7425 10.9675 14.4702C6.9222 19.0841 3.98521 24.2254 2.13499 29.9319C-0.5847 38.3199 -0.709569 47.4853 1.78084 55.923C3.60159 62.0918 6.67426 67.6422 10.985 72.5494C11.6092 73.2598 13.6362 75.3051 14.3639 75.9585C20.183 81.1841 27.0734 84.6645 34.5883 86.1738C36.6086 86.5795 38.4412 86.8091 40.874 86.961C41.5623 87.004 43.8259 87.014 44.6952 86.9779C54.7503 86.5603 64.0917 82.7406 71.6441 75.9585C72.3874 75.291 74.4087 73.2501 75.0407 72.5288C79.0888 67.9095 82.0279 62.7638 83.8727 57.0671C85.0404 53.4609 85.6789 50.04 85.9438 45.9701C86.0506 44.3291 86.0007 41.4123 85.8338 39.5466C84.9854 30.0564 81.0903 21.1536 74.7004 14.0996C73.9198 13.2377 72.4474 11.7648 71.6441 11.0416C64.9801 5.0439 56.8136 1.32378 48.037 0.287912C47.251 0.195142 46.2519 0.10896 45.1436 0.0383422C44.4838 -0.00369888 42.1489 -0.0139106 41.2923 0.0215011ZM42.5651 0.616293C42.56 0.620369 42.1063 0.634946 41.5572 0.648659C38.5484 0.723846 35.1264 1.21903 32.2359 1.9976C25.936 3.69444 20.1292 6.79971 15.2508 11.0806C13.0238 13.0348 10.8559 15.3875 9.09208 17.7644C2.69144 26.3894 -0.211559 36.9314 0.826069 47.7819C1.70031 56.9243 5.49113 65.5131 11.703 72.4259C12.1616 72.9361 13.6867 74.4879 14.2083 74.9749C17.1803 77.7498 20.5133 80.0806 24.092 81.8868C29.3643 84.5476 34.7519 85.9854 40.7218 86.3249C41.6106 86.3754 44.1594 86.3879 44.9278 86.3454C47.0651 86.2272 48.7818 86.033 50.6249 85.7011C57.7477 84.4182 64.6552 81.1226 70.2886 76.3197C71.5549 75.24 73.2053 73.6413 74.2658 72.4671C79.8219 66.3156 83.498 58.702 84.8134 50.6218C85.2738 47.7939 85.4582 44.8981 85.3628 41.9965C85.1733 36.2343 83.8693 30.6837 81.4821 25.4784C77.1642 16.063 69.5462 8.48225 60.1757 4.27621C55.666 2.25199 50.9947 1.07809 46.0198 0.718864C45.2376 0.66237 42.6062 0.584258 42.5651 0.616293ZM41.6388 12.8703C39.3143 13.086 36.9099 13.9482 34.9436 15.271C33.6798 16.1213 32.8342 16.912 30.7361 19.2054C27.2054 23.0651 18.9394 32.6554 9.81492 43.4789C8.13893 45.467 7.24746 47.4574 6.9308 49.9187C6.83829 50.6378 6.83983 52.0712 6.93389 52.7848C7.3797 56.1668 9.03315 58.9833 11.7446 60.9793C13.1766 62.0335 15.5828 63.1699 18.2666 64.0594C23.4524 65.7782 29.7394 66.8333 37.0743 67.2157C40.8428 67.4122 45.6777 67.404 49.4634 67.1948C58.8437 66.6762 66.7189 64.987 71.9281 62.376C73.6021 61.537 74.6239 60.8211 75.7123 59.7249C77.5913 57.8322 78.7292 55.4822 79.0758 52.7779C79.1594 52.1256 79.171 50.7029 79.0978 50.0671C78.8634 48.0313 78.132 46.0881 76.9976 44.4878C76.8611 44.2952 75.5469 42.7203 74.077 40.9878C62.403 27.2276 54.8331 18.5602 52.9189 16.7617C51.408 15.3422 49.6256 14.2631 47.6792 13.5895C46.6671 13.2393 45.3784 12.9642 44.2877 12.8657C43.738 12.8161 42.1939 12.8187 41.6388 12.8703ZM42.0462 19.3956C40.7119 19.5569 39.7173 19.8462 38.6026 20.3973C35.9472 21.7099 33.979 24.167 33.2843 27.0361C33.0503 28.0029 33.0193 28.3038 33.0196 29.6088L33.0199 30.8093L30.5667 33.2933C29.2174 34.6593 28.1217 35.7854 28.1317 35.7955C28.1417 35.8056 28.5394 35.8164 29.0157 35.8194L29.8813 35.8249L31.6221 34.0746C32.5796 33.1119 33.37 32.3326 33.3786 32.3427C33.3871 32.3529 33.4451 32.5188 33.5072 32.7113C33.9791 34.1709 34.8478 35.5732 35.9837 36.7087C37.2736 37.9983 39.0126 38.9639 40.7576 39.3592C41.6074 39.5519 42.0459 39.5993 42.9836 39.5998C43.9642 39.6004 44.6518 39.5182 45.4817 39.3012C47.8808 38.6739 49.9904 37.1488 51.3671 35.0465C51.6173 34.6645 52.2347 33.4981 52.2347 33.4076C52.2347 33.3864 51.9278 33.3708 51.5317 33.3717L50.8287 33.3734L50.571 33.8397C49.4422 35.8828 47.4019 37.4573 45.1491 38.0236C44.3679 38.2199 43.8604 38.281 43.004 38.2818C41.587 38.2829 40.486 38.0291 39.2139 37.4079C36.905 36.2805 35.2367 34.2206 34.5812 31.6882L34.4592 31.2165L34.9817 30.6874L35.5041 30.1584L37.5017 30.1587L39.4992 30.1589L39.5679 30.4466C39.6423 30.7588 39.8949 31.3026 40.0912 31.5737C40.5746 32.2407 41.3458 32.7799 42.0928 32.973L42.3111 33.0295L42.3316 34.4454L42.3519 35.8613H44.1043C45.7819 35.8613 45.8707 35.8574 46.1828 35.771C47.3219 35.4555 48.1584 34.7056 48.598 33.6062C48.7446 33.2394 48.8162 32.8223 48.8162 32.3354C48.8162 31.3288 48.4396 30.4612 47.6991 29.7625L47.3971 29.4775L47.6838 29.2106C48.4301 28.5157 48.8162 27.6332 48.8162 26.6224C48.8162 25.9369 48.6884 25.4459 48.3534 24.8443C47.923 24.0714 47.1164 23.4452 46.2236 23.1907C45.9037 23.0996 45.856 23.0978 43.7376 23.0978C41.6207 23.0978 41.5711 23.0996 41.2516 23.1905C40.8588 23.3022 40.4302 23.5026 40.0823 23.7372C39.9172 23.8484 38.8359 24.9064 37.0593 26.6947L34.2936 29.479L34.3186 28.9997C34.4136 27.1842 35.0783 25.4291 36.2196 23.9819C36.5762 23.5295 37.3241 22.796 37.7766 22.455C40.341 20.5217 43.6544 20.1526 46.5882 21.4733C48.2816 22.2356 49.7512 23.623 50.6707 25.3273L50.8557 25.6702H51.5496H52.2435L52.2157 25.558C52.1761 25.3988 51.7817 24.6094 51.5378 24.2016C50.209 21.9789 47.9384 20.2918 45.4288 19.6623C44.5886 19.4515 44.192 19.4044 43.1467 19.3908C42.6199 19.3839 42.1247 19.3861 42.0462 19.3956ZM41.6693 24.4567C41.5181 24.4871 41.2706 24.5719 41.1191 24.6454C40.868 24.7672 40.6688 24.9552 38.8337 26.802L36.8233 28.8252L38.1561 28.8226L39.4889 28.8201L39.5601 28.5437C39.6514 28.189 39.8811 27.7014 40.1069 27.3827C40.3116 27.0937 40.7149 26.694 41 26.4974C41.2636 26.3158 41.8107 26.0603 42.087 25.9899L42.3111 25.9327L42.3222 25.1632L42.3333 24.3937L42.1389 24.3975C42.0319 24.3996 41.8207 24.4262 41.6693 24.4567ZM43.6857 25.1632L43.6968 25.9327L43.9209 25.9899C44.2314 26.069 44.7764 26.3332 45.076 26.5498C45.3337 26.7362 45.7477 27.1519 45.9122 27.3893L46.0049 27.5231L45.0953 27.5226C44.212 27.5223 44.18 27.5194 43.9821 27.4211C43.87 27.3654 43.755 27.3191 43.7264 27.3184C43.6859 27.3174 43.677 27.4814 43.6857 28.0687L43.6968 28.8201L44.6544 28.8169C45.2376 28.815 45.6989 28.7943 45.8338 28.7642C46.5956 28.5941 47.2791 27.91 47.4646 27.1319C47.526 26.8739 47.5273 26.3726 47.4672 26.1037C47.3373 25.5233 46.8557 24.9089 46.3254 24.6474C45.9007 24.4378 45.6068 24.3951 44.5823 24.3944L43.6747 24.3937L43.6857 25.1632ZM41.9784 27.4457C41.4862 27.6943 41.076 28.1643 40.8691 28.7165C40.7253 29.1002 40.7194 29.806 40.8568 30.2073C40.9809 30.5702 41.2042 30.9122 41.4886 31.1741C41.7057 31.3742 42.156 31.6407 42.2769 31.6407C42.3219 31.6407 42.3316 31.2586 42.3316 29.479C42.3316 27.7766 42.3207 27.3173 42.2806 27.318C42.2526 27.3184 42.1166 27.376 41.9784 27.4457ZM43.649 30.8995C43.6498 31.7432 43.6312 31.7091 43.9963 31.5373C44.2078 31.4379 44.2411 31.4348 45.1093 31.4348H46.0044L45.87 31.624C45.6494 31.9342 45.1342 32.4018 44.7918 32.6025C44.5299 32.756 44.1974 32.8873 43.7273 33.0234C43.689 33.0345 43.6764 33.2268 43.6764 33.8053V34.5725L44.7054 34.5545C45.6188 34.5387 45.7646 34.5268 46.0023 34.4481C46.7037 34.2161 47.305 33.5686 47.4633 32.8749C47.4863 32.7735 47.5052 32.524 47.5052 32.3201C47.5051 31.5153 47.0774 30.7918 46.38 30.4162C45.9526 30.186 45.7671 30.1584 44.6522 30.1584H43.6482L43.649 30.8995ZM29.3142 45.2489C26.7753 45.6165 24.7586 47.5225 24.189 50.0926C24.1067 50.4643 24.0943 50.6303 24.0946 51.3641C24.0948 52.2645 24.1312 52.5353 24.3467 53.2377C24.4918 53.7111 24.8796 54.496 25.1801 54.9252C25.4823 55.3566 26.0938 55.9926 26.4941 56.2923C27.7204 57.2097 29.2204 57.6434 30.6868 57.5046C33.4108 57.2469 35.5631 55.2954 36.1424 52.5583C36.2744 51.9344 36.2744 50.7932 36.1423 50.17C36.0103 49.548 35.8407 49.0656 35.5624 48.5216C34.7153 46.8659 33.1862 45.7013 31.3484 45.3124C30.8098 45.1983 29.8663 45.1689 29.3142 45.2489ZM68.2304 45.2564C66.1341 45.5166 64.8348 46.468 64.4162 48.0495C64.2993 48.4908 64.2896 49.3545 64.3964 49.7789C64.5182 50.2623 64.7193 50.6356 65.0443 50.9812C65.7262 51.7065 66.2877 51.9601 68.4891 52.5371C69.8929 52.9051 70.2054 53.0259 70.5374 53.329C70.7698 53.541 70.8591 53.7385 70.8591 54.0404C70.8591 54.7662 70.2942 55.1762 69.1548 55.2771C68.6542 55.3214 68.0229 55.2806 67.4768 55.1686C66.6556 55.0002 65.6731 54.5708 65.063 54.1137C64.8842 53.9799 64.7287 53.8798 64.7171 53.8914C64.6864 53.9224 64.4167 56.1846 64.4294 56.303C64.4432 56.4299 64.7242 56.6059 65.3166 56.8587C67.1394 57.6368 69.5721 57.7459 71.1177 57.1189C71.7181 56.8753 72.0698 56.6464 72.4939 56.223C72.9312 55.7864 73.1553 55.4288 73.3228 54.8998C73.6039 54.0115 73.528 52.9795 73.1293 52.2711C72.8533 51.7805 72.1683 51.2098 71.5402 50.9471C71.1197 50.7712 70.2062 50.49 69.3492 50.2725C67.3482 49.7648 66.9494 49.5152 66.948 48.7701C66.9464 47.9334 67.6942 47.4583 69.02 47.4538C69.9126 47.4508 70.8655 47.6901 71.7397 48.1369C71.9803 48.26 72.1901 48.3462 72.2059 48.3286C72.2307 48.3008 72.6302 47.2887 72.9192 46.5215L73.0139 46.2701L72.7117 46.0953C72.0631 45.7205 71.0928 45.4143 70.1727 45.2944C69.7186 45.2353 68.5804 45.2129 68.2304 45.2564ZM13.8856 51.3636V57.3348H18.2054C20.9597 57.3348 22.5253 57.3203 22.5253 57.2949C22.5253 57.2731 22.5894 56.7271 22.6679 56.0818C22.7463 55.4364 22.8106 54.8893 22.8106 54.8657C22.8106 54.8366 21.8062 54.823 19.6523 54.823H16.4941L16.4838 50.1186L16.4733 45.4142L15.1794 45.4033L13.8856 45.3924V51.3636ZM38.1984 45.5478C38.1569 45.8126 37.9301 47.735 37.9301 47.8225C37.9301 47.9043 37.9531 47.9053 39.8252 47.9053H41.7202V52.6201V57.3348H43.004H44.2877V52.6201V47.9053H46.1992H48.1108L48.0913 47.751C48.0807 47.666 48.0133 47.1055 47.9418 46.5054L47.8116 45.4142L43.0171 45.4038L38.2227 45.3932L38.1984 45.5478ZM58.7053 49.0892L58.6941 52.7848L58.5849 53.0868C58.4268 53.5242 58.2434 53.8146 57.9177 54.1434C57.3337 54.7331 56.5172 55.015 55.7082 54.9062C54.4833 54.7415 53.5477 53.8084 53.379 52.5837C53.3504 52.3761 53.335 51.0744 53.335 48.8701V45.476H52.0493H50.7636L50.7782 49.1715C50.7927 52.807 50.7944 52.8737 50.8829 53.2684C51.1303 54.3716 51.5831 55.2059 52.3527 55.9762C52.9997 56.6239 53.6054 57 54.4353 57.2696C55.0386 57.4654 55.3881 57.5179 56.0656 57.5143C56.715 57.5109 57.2473 57.4218 57.7867 57.226C59.3397 56.6624 60.5584 55.3832 61.0548 53.7957C61.2782 53.0807 61.2817 53.0106 61.2818 49.048L61.282 45.3936H59.9993H58.7165L58.7053 49.0892ZM29.4127 47.7354C28.661 47.9014 28.042 48.2565 27.5119 48.8256C27.1584 49.2051 26.9888 49.4672 26.7836 49.951C26.4348 50.773 26.4267 51.8358 26.7626 52.7121C27.0714 53.5178 27.7393 54.2595 28.5153 54.6581C29.4223 55.1243 30.6267 55.1635 31.5801 54.758C32.2226 54.4848 32.9307 53.8646 33.2818 53.2672C34.0244 52.0042 33.975 50.4489 33.1533 49.2288C32.8316 48.751 32.1848 48.2151 31.6316 47.9679C30.9863 47.6796 30.0903 47.5857 29.4127 47.7354Z" fill="white"/>
</g>
<defs>
<clipPath id="clip0_1419_6816">
<rect width="86" height="87" fill="white"/>
</clipPath>
</defs>
</svg>
