<svg width="774" height="775" viewBox="0 0 774 775" fill="none" xmlns="http://www.w3.org/2000/svg">
<path fill-rule="evenodd" clip-rule="evenodd" d="M371.631 0.191533C281.374 3.88522 197.33 37.9221 129.275 98.3438C122.641 104.233 104.449 122.419 98.7073 128.901C62.2998 170.002 35.8669 215.801 19.2149 266.635C-5.2623 341.355 -6.38612 423.001 16.0276 498.165C32.4143 553.117 60.0683 602.56 98.8654 646.273C104.483 652.602 122.726 670.821 129.275 676.642C181.647 723.192 243.661 754.195 311.295 767.64C329.477 771.254 345.971 773.299 367.866 774.653C374.061 775.036 394.433 775.125 402.257 774.803C492.753 771.083 576.825 737.057 644.797 676.642C651.487 670.696 669.678 652.515 675.366 646.09C711.799 604.941 738.251 559.103 754.854 508.356C765.364 476.232 771.11 445.759 773.494 409.504C774.455 394.886 774.006 368.903 772.504 352.283C764.869 267.744 729.813 188.437 672.304 125.6C665.278 117.922 652.027 104.801 644.797 98.3592C584.821 44.9313 511.322 11.7923 432.333 2.56473C425.259 1.73833 416.267 0.970617 406.292 0.341554C400.354 -0.0329498 379.34 -0.123916 371.631 0.191533ZM383.086 5.48997C383.04 5.52628 378.957 5.65613 374.015 5.77828C346.936 6.44805 316.138 10.8592 290.123 17.7947C233.424 32.9102 181.163 60.5721 137.257 98.7069C117.214 116.115 97.7035 137.073 81.8287 158.246C24.223 235.078 -1.90403 328.987 7.43462 425.643C15.3028 507.084 49.4202 583.594 105.327 645.173C109.454 649.718 123.18 663.542 127.875 667.88C154.623 692.599 184.62 713.362 216.828 729.451C264.279 753.154 312.767 765.962 366.496 768.986C374.495 769.436 397.435 769.547 404.35 769.169C423.586 768.116 439.036 766.386 455.624 763.429C519.729 752.001 581.897 722.644 632.597 679.859C643.994 670.241 658.848 656 668.392 645.54C718.397 590.742 751.482 522.92 763.321 450.941C767.464 425.75 769.124 399.954 768.265 374.107C766.56 322.777 754.824 273.332 733.339 226.963C694.478 143.09 625.916 75.5603 541.581 38.0927C500.994 20.0608 458.952 9.60364 414.178 6.40367C407.138 5.90042 383.456 5.2046 383.086 5.48997ZM374.749 114.649C353.829 116.571 332.189 124.251 314.492 136.035C303.118 143.609 295.508 150.653 276.625 171.083C244.849 205.465 170.455 290.896 88.3343 387.312C73.2504 405.022 65.2271 422.753 62.3772 444.678C61.5446 451.084 61.5585 463.853 62.405 470.209C66.4173 500.336 81.2984 525.426 105.701 543.206C118.589 552.597 140.245 562.72 164.399 570.644C211.072 585.955 267.655 595.354 333.669 598.761C367.585 600.511 411.099 600.438 445.171 598.574C529.593 593.955 600.47 578.907 647.353 555.648C662.419 548.174 671.615 541.797 681.411 532.032C698.322 515.172 708.563 494.238 711.682 470.148C712.435 464.337 712.539 451.664 711.88 446C709.771 427.865 703.188 410.555 692.978 396.299C691.75 394.584 679.922 380.554 666.693 365.121C561.627 242.545 493.498 165.335 476.27 149.314C462.672 136.669 446.63 127.056 429.113 121.056C420.004 117.936 408.406 115.486 398.589 114.608C393.642 114.166 379.745 114.19 374.749 114.649ZM378.416 172.777C366.407 174.214 357.456 176.791 347.423 181.7C323.525 193.393 305.811 215.281 299.559 240.839C297.453 249.451 297.174 252.132 297.176 263.757L297.179 274.451L275.1 296.578C262.957 308.747 253.095 318.778 253.185 318.868C253.275 318.958 256.855 319.054 261.141 319.081L268.932 319.13L284.599 303.538C293.216 294.962 300.33 288.02 300.407 288.11C300.484 288.201 301.006 289.679 301.565 291.394C305.812 304.396 313.63 316.888 323.853 327.003C335.462 338.491 351.113 347.092 366.818 350.614C374.467 352.33 378.413 352.752 386.852 352.757C395.678 352.762 401.866 352.03 409.335 350.097C430.927 344.509 449.914 330.923 462.304 312.196C464.556 308.793 470.112 298.403 470.112 297.596C470.112 297.408 467.35 297.269 463.785 297.277L457.458 297.292L455.139 301.446C444.98 319.646 426.617 333.671 406.342 338.716C399.311 340.465 394.744 341.009 387.036 341.016C374.283 341.026 364.374 338.765 352.925 333.231C332.145 323.188 317.13 304.839 311.231 282.28L310.133 278.078L314.835 273.365L319.537 268.652L337.515 268.655L355.493 268.657L356.111 271.22C356.781 274.001 359.054 278.845 360.821 281.26C365.171 287.202 372.112 292.005 378.835 293.725L380.8 294.228L380.984 306.841L381.167 319.454H396.939C412.037 319.454 412.836 319.419 415.645 318.65C425.897 315.839 433.426 309.159 437.382 299.366C438.701 296.098 439.346 292.383 439.346 288.045C439.346 279.078 435.956 271.35 429.292 265.126L426.574 262.587L429.154 260.209C435.871 254.019 439.346 246.158 439.346 237.154C439.346 231.047 438.196 226.673 435.181 221.314C431.307 214.429 424.048 208.851 416.012 206.584C413.133 205.772 412.704 205.756 393.638 205.756C374.586 205.756 374.14 205.772 371.264 206.582C367.729 207.577 363.872 209.362 360.741 211.452C359.255 212.443 349.523 221.867 333.534 237.798L308.642 262.6L308.867 258.331C309.722 242.158 315.705 226.524 325.976 213.632C329.186 209.602 335.917 203.068 339.989 200.03C363.069 182.808 392.89 179.52 419.294 191.285C434.534 198.076 447.761 210.435 456.036 225.617L457.701 228.671H463.946H470.192L469.941 227.672C469.585 226.254 466.035 219.222 463.84 215.589C451.881 195.789 431.446 180.76 408.859 175.153C401.297 173.275 397.728 172.855 388.32 172.734C383.579 172.673 379.122 172.692 378.416 172.777ZM375.024 217.861C373.663 218.132 371.435 218.888 370.072 219.542C367.812 220.627 366.019 222.302 349.503 238.753L331.41 256.776L343.405 256.753L355.4 256.731L356.041 254.269C356.863 251.109 358.93 246.765 360.962 243.926C362.804 241.352 366.434 237.791 369 236.04C371.372 234.422 376.296 232.146 378.783 231.519L380.8 231.01L380.9 224.155L381 217.3L379.25 217.334C378.287 217.353 376.386 217.59 375.024 217.861ZM393.171 224.155L393.271 231.01L395.288 231.519C398.083 232.224 402.988 234.577 405.684 236.507C408.003 238.167 411.729 241.87 413.21 243.985L414.044 245.177L405.858 245.173C397.908 245.17 397.62 245.144 395.839 244.268C394.83 243.772 393.795 243.36 393.538 243.354C393.173 243.345 393.093 244.806 393.171 250.037L393.271 256.731L401.89 256.702C407.138 256.685 411.29 256.501 412.504 256.233C419.36 254.718 425.512 248.624 427.181 241.692C427.734 239.394 427.746 234.928 427.205 232.533C426.036 227.363 421.701 221.89 416.929 219.56C413.106 217.693 410.461 217.313 401.241 217.306L393.072 217.3L393.171 224.155ZM377.806 244.488C373.376 246.702 369.684 250.889 367.822 255.808C366.528 259.226 366.475 265.513 367.711 269.088C368.828 272.321 370.838 275.367 373.397 277.7C375.351 279.483 379.404 281.857 380.492 281.857C380.897 281.857 380.984 278.453 380.984 262.6C380.984 247.435 380.886 243.344 380.525 243.35C380.273 243.354 379.049 243.867 377.806 244.488ZM392.841 275.254C392.848 282.77 392.681 282.466 395.967 280.936C397.87 280.05 398.17 280.023 405.984 280.023H414.04L412.83 281.708C410.845 284.471 406.208 288.637 403.126 290.425C400.769 291.792 397.777 292.962 393.546 294.174C393.201 294.273 393.088 295.986 393.088 301.139V307.973L402.349 307.813C410.569 307.672 411.881 307.566 414.021 306.865C420.333 304.799 425.745 299.031 427.17 292.851C427.377 291.948 427.547 289.725 427.547 287.909C427.546 280.74 423.697 274.295 417.42 270.949C413.573 268.898 411.904 268.652 401.87 268.652H392.834L392.841 275.254ZM263.828 403.079C240.978 406.354 222.827 423.333 217.701 446.227C216.96 449.538 216.849 451.017 216.851 457.554C216.853 465.575 217.181 467.987 219.12 474.244C220.426 478.461 223.916 485.453 226.621 489.276C229.341 493.119 234.844 498.785 238.447 501.454C249.484 509.627 262.984 513.49 276.181 512.254C300.697 509.958 320.068 492.574 325.282 468.192C326.47 462.634 326.47 452.468 325.281 446.917C324.093 441.376 322.566 437.079 320.062 432.233C312.438 417.484 298.676 407.109 282.136 403.645C277.288 402.629 268.797 402.367 263.828 403.079ZM614.074 403.146C595.207 405.464 583.513 413.939 579.746 428.027C578.694 431.958 578.606 439.652 579.568 443.433C580.664 447.739 582.474 451.064 585.399 454.143C591.536 460.604 596.589 462.863 616.402 468.003C629.036 471.281 631.849 472.357 634.837 475.057C636.928 476.946 637.732 478.705 637.732 481.394C637.732 487.86 632.648 491.512 622.393 492.411C617.888 492.806 612.206 492.442 607.291 491.444C599.9 489.944 591.058 486.119 585.567 482.047C583.958 480.855 582.558 479.964 582.454 480.067C582.178 480.343 579.75 500.495 579.865 501.55C579.989 502.68 582.518 504.248 587.849 506.5C604.255 513.431 626.149 514.403 640.059 508.818C645.463 506.648 648.628 504.609 652.445 500.837C656.381 496.948 658.398 493.762 659.905 489.05C662.435 481.137 661.752 471.944 658.164 465.633C655.68 461.263 649.515 456.179 643.862 453.839C640.077 452.272 631.856 449.767 624.143 447.83C606.134 443.307 602.545 441.084 602.532 434.446C602.518 426.993 609.248 422.761 621.18 422.721C629.213 422.694 637.79 424.826 645.657 428.806C647.823 429.902 649.711 430.67 649.853 430.513C650.076 430.266 653.672 421.25 656.273 414.416L657.125 412.176L654.405 410.619C648.568 407.28 639.835 404.553 631.554 403.485C627.467 402.958 617.224 402.759 614.074 403.146ZM124.97 457.549V510.741H163.849C188.637 510.741 202.728 510.612 202.728 510.386C202.728 510.191 203.305 505.328 204.011 499.579C204.717 493.83 205.295 488.956 205.295 488.746C205.295 488.487 196.256 488.366 176.871 488.366H148.447L148.354 446.459L148.26 404.552L136.615 404.455L124.97 404.358V457.549ZM343.786 405.742C343.412 408.101 341.371 425.226 341.371 426.005C341.371 426.734 341.578 426.743 358.427 426.743H375.482V468.742V510.741H387.036H398.589V468.742V426.743H415.793H432.997L432.822 425.368C432.726 424.611 432.12 419.618 431.476 414.272L430.304 404.552L387.154 404.459L344.004 404.365L343.786 405.742ZM528.348 437.289L528.247 470.209L527.264 472.9C525.841 476.796 524.191 479.383 521.259 482.312C516.003 487.565 508.655 490.076 501.374 489.107C490.35 487.64 481.929 479.328 480.411 468.418C480.154 466.569 480.015 454.973 480.015 435.337V405.102H468.444H456.872L457.004 438.022C457.134 470.407 457.15 471.001 457.946 474.517C460.173 484.345 464.248 491.777 471.174 498.639C476.997 504.408 482.449 507.759 489.918 510.16C495.347 511.904 498.493 512.372 504.59 512.34C510.435 512.31 515.226 511.516 520.08 509.772C534.057 504.751 545.026 493.356 549.493 479.215C551.504 472.845 551.535 472.221 551.536 436.922L551.538 404.368H539.994H528.449L528.348 437.289ZM264.714 425.229C257.949 426.708 252.378 429.871 247.607 434.941C244.426 438.321 242.899 440.656 241.052 444.966C237.913 452.288 237.84 461.756 240.863 469.562C243.643 476.739 249.654 483.346 256.638 486.897C264.801 491.05 275.64 491.399 284.221 487.787C290.003 485.353 296.376 479.828 299.536 474.507C306.22 463.256 305.775 449.401 298.38 438.532C295.484 434.276 289.663 429.502 284.684 427.3C278.877 424.732 270.813 423.896 264.714 425.229Z" fill="black"/>
</svg>
