<svg width="88" height="88" viewBox="0 0 88 88" fill="none" xmlns="http://www.w3.org/2000/svg">
<g clip-path="url(#clip0_1420_6866)">
<path fill-rule="evenodd" clip-rule="evenodd" d="M44 0C19.7016 0 0 19.7016 0 44C0 68.2984 19.7016 88 44 88C68.2984 88 88 68.2984 88 44C88 19.7016 68.2984 0 44 0ZM7.98685 23.3211C15.3222 10.5928 28.8468 2.69042 43.5174 2.49739L37.8229 40.2116L7.75761 64.498C0.530848 51.7093 0.6153 36.0372 7.98685 23.3211ZM44.169 85.7197C29.462 85.7921 15.8168 78.0828 8.28846 65.4269L44.0121 50.6356L79.8926 65.1976C72.4365 77.8899 58.8396 85.6835 44.169 85.7197ZM50.0083 40.7063L44.579 2.49739C59.2015 2.72663 72.6296 10.5928 79.9649 23.2487C87.3365 35.8926 87.4933 51.4439 80.4234 64.2446L50.0083 40.7063Z" fill="#191919"/>
</g>
<defs>
<clipPath id="clip0_1420_6866">
<rect width="88" height="88" fill="white"/>
</clipPath>
</defs>
</svg>
