<svg width="50" height="50" viewBox="0 0 50 50" fill="none" xmlns="http://www.w3.org/2000/svg">
<path fill-rule="evenodd" clip-rule="evenodd" d="M25 0C11.1941 0 0 11.1941 0 25C0 38.8059 11.1941 50 25 50C38.8059 50 50 38.8059 50 25C50 11.1941 38.8059 0 25 0ZM4.53798 13.2506C8.70578 6.01865 16.3902 1.52865 24.7258 1.41897L21.4903 22.8475L4.40773 36.6466C0.301618 29.3803 0.349602 20.4757 4.53798 13.2506ZM25.096 48.7044C16.7398 48.7455 8.98684 44.3652 4.70935 37.1744L25.0069 28.7702L45.3935 37.0441C41.1571 44.2556 33.4316 48.6838 25.096 48.7044ZM28.4138 23.1286L25.329 1.41897C33.6372 1.54922 41.2668 6.01864 45.4346 13.2095C49.623 20.3935 49.7121 29.2295 45.6951 36.5026L28.4138 23.1286Z" fill="black"/>
</svg>
