<svg width="209" height="59" viewBox="0 0 209 59" fill="none" xmlns="http://www.w3.org/2000/svg">
<g clip-path="url(#clip0_1419_6820)">
<path fill-rule="evenodd" clip-rule="evenodd" d="M58.09 0.183502C54.9179 0.635778 51.7633 1.63636 48.8515 3.11361C45.5141 4.80679 43.4158 6.45083 39.4069 10.5139C35.0405 14.9394 20.6235 29.8727 20.5619 30.0338C20.5161 30.1538 25.6433 35.1124 27.1566 36.4117L27.7838 36.9501L31.9453 32.672C34.2341 30.3191 36.7669 27.6931 37.5739 26.8367C42.915 21.1682 49.8577 14.2695 51.0379 13.4583C52.7651 12.2712 55.2447 11.0945 57.1659 10.5504C59.1056 10.001 63.2389 9.79272 65.3825 10.1363C71.7265 11.153 77.3069 15.3951 80.0411 21.2794C80.9361 23.2053 81.3621 24.7207 81.7011 27.1827C82.022 29.5142 81.9003 31.2748 81.229 34.017C79.74 40.0973 74.8577 45.493 68.9456 47.5915C66.2866 48.5354 65.6961 48.6272 62.2907 48.6264C59.0301 48.6255 58.8003 48.5939 56.1023 47.7717C55.806 47.6813 55.1137 48.3118 52.1162 51.4016C49.9322 53.6531 48.552 55.2038 48.6476 55.2987C49.111 55.7595 53.4186 57.2793 56.2516 57.9816C64.4458 60.0127 73.3092 58.0216 80.563 52.52C82.0556 51.388 84.8235 48.6101 85.9836 47.0801C90.1343 41.6056 92.3127 34.6122 91.9663 27.8748C91.5966 20.6849 88.8845 14.3343 83.9674 9.14493C79.6039 4.53999 73.9315 1.4732 67.6876 0.343373C65.6159 -0.0315624 60.2273 -0.12136 58.09 0.183502ZM25.6591 0.29164C19.6343 0.993238 13.5472 3.90466 8.88868 8.3127C5.20568 11.7977 2.15613 17.0354 0.850784 22.1184C-0.578281 27.6835 -0.180468 34.793 1.84411 39.8728C5.51301 49.0778 12.907 55.632 22.3527 58.0524C24.3515 58.5645 25.7013 58.7515 28.2886 58.8746C35.8523 59.2346 43.1668 56.7879 48.8674 51.9915C49.8624 51.1542 65.6187 35.0607 69.8425 30.5674L71.5401 28.7615L68.0218 25.3767C66.0866 23.5152 64.4512 21.9712 64.3875 21.9456C64.3238 21.9198 61.3097 24.9563 57.6894 28.6934C54.0692 32.4303 50.077 36.5388 48.8179 37.8235C47.5587 39.1082 45.8302 40.8989 44.9766 41.803C41.3554 45.6378 37.5025 47.8836 33.2291 48.6506C31.5562 48.9508 27.9484 48.9515 26.2682 48.6522C23.7024 48.195 20.5427 46.8548 18.3502 45.2942C14.8221 42.7824 11.9614 38.6376 10.8304 34.3987C10.222 32.1183 10.08 28.3283 10.5196 26.1024C11.9969 18.6217 17.315 12.8509 24.702 10.7127C26.258 10.2623 26.5548 10.2343 29.7487 10.2353C32.809 10.2362 33.2702 10.2758 34.4472 10.639C35.1651 10.8603 35.8699 11.0527 36.0134 11.0667C36.157 11.0805 37.8948 9.41778 39.8753 7.37182L43.4762 3.65188L42.3116 3.10617C39.6969 1.88118 35.4035 0.620379 32.7115 0.287314C31.0312 0.0795168 27.4627 0.081593 25.6591 0.29164ZM153.478 11.8069C145.596 12.7543 140.21 15.999 137.839 21.2284C136.892 23.318 136.551 25.1404 136.53 28.2209C136.513 30.6193 136.567 31.2089 136.932 32.6329C137.736 35.7768 138.899 37.9529 140.923 40.1043C142.998 42.3104 146.346 44.2095 149.563 45.0054C150.137 45.1475 151.664 45.3864 152.956 45.5361C159.003 46.2371 164.701 46.1361 169.096 45.2501L170.01 45.0658V41.6857C170.01 38.622 169.983 38.3157 169.724 38.4145C168.85 38.7481 164.004 39.5606 161.831 39.738C156.198 40.198 151.932 39.5361 148.961 37.7413C146.662 36.3528 145.524 34.5029 144.77 30.9269C144.343 28.9005 144.342 27.5468 144.766 25.8744C145.387 23.4251 147.1 21.2722 149.476 19.9577C152.472 18.2993 160.809 17.7879 165.426 18.9791C166.177 19.1728 167.395 19.589 168.133 19.9043C168.87 20.2195 169.517 20.4355 169.568 20.3841C169.62 20.3327 169.662 18.7572 169.662 16.8826V13.4746L168.922 13.205C168.222 12.9498 165.587 12.3498 164.267 12.1453C163.221 11.983 157.089 11.5233 156.264 11.5452C155.832 11.5568 154.579 11.6745 153.478 11.8069ZM101.968 28.7188V45.4364H105.534H109.1L109.145 35.9201L109.19 26.404L111.303 28.1774C112.465 29.1529 114.223 30.6129 115.209 31.4217C116.196 32.2306 117.839 33.5931 118.861 34.4496C119.884 35.306 121.728 36.8399 122.96 37.8583C130.061 43.7287 132.07 45.3885 132.813 45.9998L133.64 46.6797V29.3616V12.0434H129.811H125.983V21.5596C125.983 28.578 125.93 31.0757 125.784 31.0757C125.675 31.0757 125.185 30.7399 124.696 30.3296C123.797 29.5749 122.518 28.5373 119.196 25.8695C118.191 25.0624 116.546 23.7398 115.541 22.9306C114.536 22.1214 112.265 20.2998 110.495 18.8829C108.724 17.4661 106.962 16.0493 106.579 15.7348C105.454 14.81 102.603 12.4955 102.272 12.2382C101.983 12.0126 101.968 12.8221 101.968 28.7188ZM173.491 29.4247V46.1285H177.319H181.148V37.3044C181.148 32.4512 181.179 28.4804 181.217 28.4804C181.338 28.4804 186.375 33.5172 192.691 39.9522L198.754 46.1285L203.828 46.1233L208.904 46.1181L207.164 44.4547C206.207 43.5398 203.198 40.6418 200.48 38.0149L195.538 33.2385L196.7 33.1089C200.729 32.6604 204.615 29.599 205.711 26.0088C206.019 25.0037 206.062 24.5092 205.993 22.8008C205.857 19.4498 204.877 17.364 202.733 15.8687C201.273 14.8511 199.107 13.875 197.06 13.313L195.331 12.8381L184.411 12.7794L173.491 12.7209V29.4247ZM41.8856 26.1889L29.5734 38.4311L33.1423 41.9762L36.7109 45.5212L49.1084 33.195L61.5059 20.869L58.0279 17.4078C56.115 15.5041 54.4707 13.9466 54.3739 13.9466C54.277 13.9466 48.6573 19.4556 41.8856 26.1889ZM181.148 23.1302V28.1615L187.282 28.0949C192.999 28.033 193.493 28.003 194.547 27.6551C195.983 27.1815 197.034 26.4142 197.628 25.4084C198.002 24.7727 198.106 24.3469 198.16 23.2192C198.223 21.9503 198.183 21.73 197.737 20.8675C197.113 19.6617 196.1 18.9658 194.245 18.4682C192.969 18.1258 192.445 18.0992 187.009 18.0992H181.148V23.1302Z" fill="white"/>
</g>
<defs>
<clipPath id="clip0_1419_6820">
<rect width="209" height="59" fill="white"/>
</clipPath>
</defs>
</svg>
