<svg width="154" height="78" viewBox="0 0 154 78" fill="none" xmlns="http://www.w3.org/2000/svg">
<g clip-path="url(#clip0_1420_6870)">
<path d="M77.827 0.0448544C72.7533 0.067281 67.7019 0.695228 62.7846 1.88384C60.3707 2.48937 57.9791 3.29672 55.6545 4.21622L55.5205 4.28349C55.5205 4.28349 55.811 21.6641 56.0121 30.2761C56.0792 32.8102 56.5486 35.2996 57.3979 37.7217C58.3814 40.4354 59.6778 43.0143 61.2647 45.4141C63.6116 48.8902 66.6291 51.8505 70.1381 54.1155C71.7028 55.0575 73.3344 55.8874 75.0107 56.5824C75.5696 56.8292 76.0613 57.0535 76.486 57.188C76.9552 57.3899 77.4247 57.5245 77.8941 57.6365C78.3858 57.5245 78.8551 57.3674 79.3022 57.2105C79.7715 57.0535 80.2409 56.8292 80.7997 56.605C83.616 55.5284 86.231 53.981 88.5332 52.0299C90.8577 50.1237 92.8694 47.881 94.5457 45.3916C96.1549 42.9695 97.4514 40.4129 98.4125 37.6992C99.2841 35.2771 99.7313 32.7878 99.7982 30.2535C99.9995 21.6193 100.29 4.26107 100.29 4.26107L100.133 4.17137C94.6351 1.95112 88.8015 0.605521 82.8784 0.201841C81.2021 0.0672803 79.6821 0 77.9835 0H77.827V0.0448544ZM77.827 0.919494H77.9612C82.8336 0.964348 87.6839 1.56987 92.4223 2.73606C94.7468 3.34157 97.0267 4.05923 99.2841 4.97872L99.4183 5.046L99.3289 10.4957H99.2618C93.9646 8.34272 88.3767 7.01956 82.6773 6.61587C81.1127 6.45888 79.5481 6.3916 77.9835 6.34675H77.8493C72.9767 6.3916 68.1266 7.01956 63.3882 8.18575C61.0412 8.79126 58.739 9.55376 56.5038 10.4733L56.4144 4.97872L56.5486 4.93387C61.8459 2.78091 67.4784 1.48016 73.178 1.07648C74.6978 0.964346 76.2624 0.897067 77.827 0.919494ZM110.549 1.45774C107.666 1.45774 105.319 3.81253 105.319 6.70557C105.319 9.59863 107.666 11.9759 110.549 11.9759C113.433 11.9759 115.779 9.62105 115.779 6.72801C115.779 3.83496 113.455 1.45774 110.549 1.45774ZM76.1953 1.74928C76.0836 1.77171 75.9719 1.81657 75.8823 1.88384C75.793 1.92869 75.7484 2.01841 75.726 2.10811V2.96033L75.7036 3.76768C75.7036 3.85738 75.793 3.96953 75.86 4.01438C75.9494 4.10408 76.0613 4.10408 76.1953 4.1265H77.2682L78.3858 4.14894L79.5033 4.21622C79.5927 4.21622 79.6375 4.26107 79.6598 4.32834V4.77688C79.6598 4.8666 79.6598 4.93387 79.6152 5.02357C79.5927 5.09087 79.5258 5.11329 79.3916 5.11329H78.4081L77.8718 5.09086H76.4637L75.6367 5.13572L75.5919 5.85337L76.7541 5.80852L77.6482 5.78608H78.3633L79.0116 5.80852L79.4587 5.83094H79.9504C80.0621 5.83094 80.1963 5.78609 80.2857 5.7188C80.3751 5.65153 80.4197 5.56181 80.4422 5.44968V4.64233L80.4645 3.83496C80.4422 3.74526 80.3974 3.65556 80.3303 3.58827C80.2632 3.52099 80.1738 3.49857 80.0621 3.47614L79.034 3.43127H76.553L76.486 3.38642C76.4412 3.34157 76.4189 3.29672 76.4189 3.25187V2.96033C76.4189 2.84819 76.4189 2.71362 76.4637 2.6015C76.486 2.55664 76.553 2.5118 76.6647 2.5118L79.168 2.53422H79.5258L80.3974 2.55664V1.83899L79.2351 1.79414L76.1953 1.74928ZM73.8037 1.86142C73.3791 1.86142 69.5124 2.2651 69.5124 2.2651V6.3916L69.9594 6.34675L70.384 6.27948V5.00115L72.7979 4.73203C73.1109 4.73203 73.4015 4.88902 73.5355 5.18056C73.6472 5.42726 73.7368 5.69638 73.8262 5.98792L74.7649 5.89822C74.7426 5.6291 74.6755 5.38241 74.5638 5.15814C74.4296 4.8666 74.206 4.59748 73.9602 4.37321C74.1837 4.23864 74.3402 4.01438 74.4073 3.76768C74.4296 3.2743 74.4073 2.80334 74.3625 2.33238C74.3402 2.10811 74.2285 1.88384 73.8037 1.86142ZM82.476 1.90627C82.2749 1.90627 82.0514 1.97354 81.8949 2.10811C81.7384 2.22023 81.6267 2.39965 81.6044 2.6015V5.47211L81.6267 5.67395C81.649 5.76365 81.6938 5.80852 81.7384 5.85337C81.8055 5.94307 81.8949 5.98792 82.0291 6.01034H82.2079L82.2525 6.03279H82.2972L84.1748 6.23461L86.1193 6.43645L86.4099 6.50375V5.74123L86.0747 5.67395L85.8063 5.65153H85.7617L84.1523 5.44968L82.5431 5.24784C82.5208 5.24784 82.476 5.24784 82.4537 5.20299L82.4314 5.11329V2.91546C82.4314 2.82576 82.4314 2.75849 82.5208 2.71362C82.5877 2.66877 82.6548 2.64634 82.7219 2.62392C83.0795 2.64634 86.0747 3.05003 86.5216 3.11731V2.30995L83.9289 2.01841L82.476 1.90627ZM110.527 2.22023C112.225 2.22023 113.879 3.18458 114.617 4.84415L114.662 4.93387C115.109 6.05521 115.109 7.3111 114.662 8.43244C114.215 9.50891 113.388 10.3387 112.315 10.7872C111.197 11.2582 109.946 11.2582 108.828 10.7872C107.755 10.3611 106.906 9.50891 106.481 8.43244C106.034 7.3111 106.034 6.05521 106.481 4.93387C106.906 3.85738 107.755 3.02761 108.828 2.57907C109.387 2.37723 109.968 2.24268 110.527 2.22023ZM87.2815 2.55664V2.73606C87.2815 2.98276 87.2815 3.31915 87.2369 3.70041C87.2369 4.21622 87.2144 4.73203 87.1921 5.24784L87.1698 5.58425V6.07764L87.1475 6.57102L87.3486 6.61587L87.4603 6.66072L87.6616 6.68315L87.9745 6.72801L87.9968 6.43645V6.18976L88.0191 5.89822V5.09086C88.0639 5.09086 88.1308 5.09085 88.1756 5.11329H88.2427L89.2037 5.31513L90.6789 5.60668L90.7908 5.65153L90.9471 5.69638L91.126 5.74123V6.5486L91.1036 6.81771V7.13168L91.0813 7.28867L91.3494 7.35595L91.5059 7.4008L91.6624 7.44567L91.886 7.51294V7.10926C91.9306 6.61587 91.9306 6.10006 91.953 5.49453V3.52099L91.6401 3.43127L91.2154 3.34157V3.96953L91.1707 4.37321V5.046H91.1484L90.9471 5.00115L90.7908 4.9563L90.6789 4.93387L90.5672 4.88902L89.6285 4.68718L88.6674 4.50776H88.578L88.3321 4.44049L88.0862 4.39564H88.0191V2.66877L87.8181 2.62392H87.6839L87.5274 2.57907L87.2815 2.55664ZM67.8359 2.6015L64.0362 3.34157C63.7457 3.43129 63.4328 3.65556 63.4328 3.96953V6.72801C63.4328 7.01956 63.7903 7.4008 64.081 7.33352L67.8807 6.59345C68.2383 6.50375 68.4842 6.18976 68.5289 5.83094V3.05003C68.4619 2.73606 68.1712 2.55664 67.8359 2.6015C67.8584 2.6015 67.8584 2.6015 67.8359 2.6015ZM73.1557 2.73606C73.2674 2.73606 73.3567 2.73606 73.4461 2.82576C73.5132 2.89304 73.5355 2.93791 73.5355 3.02761V3.49857C73.5355 3.63312 73.4909 3.76768 73.4015 3.85738C73.312 3.9471 73.178 4.01438 73.0438 4.01438L71.7028 4.1265L70.3617 4.23864V2.98276L73.1557 2.73606ZM67.1877 3.38642C67.5455 3.34157 67.6572 3.54342 67.6572 3.79011V5.56181C67.6795 5.78608 67.5232 5.98792 67.2996 6.05521L64.595 6.57102C64.3269 6.6383 64.1704 6.43645 64.1704 6.18976V4.44049C64.1704 4.08165 64.3269 3.92468 64.7515 3.83496C64.7292 3.83496 67.1877 3.38642 67.1877 3.38642ZM110.661 3.54342H108.493V10.092H109.298V7.15411H110.549L111.823 10.092H112.695L111.354 7.04198C111.756 6.95226 112.159 6.75044 112.427 6.43645C112.673 6.14491 112.829 5.78609 112.829 5.38241C112.829 5.15814 112.784 4.93387 112.74 4.73203C112.673 4.50776 112.561 4.30592 112.404 4.1265C112.225 3.92468 112.002 3.79011 111.734 3.67798C111.398 3.58827 111.041 3.54342 110.661 3.54342ZM93.1599 3.74526L93.1153 6.16734L93.0705 7.82691L95.3056 8.49971C96.0209 8.74641 96.8255 8.9931 97.6302 9.28464L97.7196 9.30707L97.9877 9.39678C98.0325 9.10524 98.0325 8.88097 98.0325 8.58941L97.8089 8.49971H97.7643L97.7196 8.47729C97.3172 8.3203 96.8479 8.18575 96.4233 8.02875L95.0598 7.58022L94.7693 7.49052L94.4563 7.4008L94.1211 7.3111L93.9423 7.24382V6.84014L93.9646 6.43645L94.4116 6.5486L96.0656 7.04198L97.6302 7.58022L97.7866 7.62507L98.0548 7.71479V6.86256L97.8089 6.77286L97.6972 6.75044C96.7361 6.3916 95.7751 6.07764 94.7916 5.80852L94.568 5.74123L94.3222 5.67395L94.2105 5.6291L94.0092 5.56181V4.73203L94.2999 4.82173L94.6574 4.91145L94.9704 5.00115H94.9927C95.8645 5.24784 96.7361 5.51696 97.5855 5.83094L97.7866 5.92064L98.0773 6.03279V5.29269L97.876 5.20299L97.6972 5.13572H97.6749C96.1774 4.64233 94.6799 4.14894 93.1599 3.74526ZM62.0694 3.90225H61.8011C60.2367 4.39564 58.6944 4.91145 57.1521 5.49453L57.1968 7.55779V9.48648L58.2697 9.12767V7.71479L62.2705 6.45888C62.3599 6.43645 62.427 6.36918 62.4718 6.3019C62.5387 6.25704 62.5612 6.16734 62.5835 6.10006C62.5835 6.07764 62.6058 6.03277 62.6058 6.01034L62.5612 4.37321C62.5387 4.21622 62.4493 4.05923 62.2928 3.96953C62.2259 3.92468 62.1588 3.90225 62.0694 3.90225ZM109.298 4.26107H110.505C110.862 4.26107 111.197 4.32834 111.51 4.50776C111.801 4.7096 111.935 5.046 111.913 5.38241C111.913 5.5394 111.89 5.67395 111.846 5.83094C111.801 5.96549 111.734 6.07764 111.622 6.14491C111.488 6.25704 111.309 6.32433 111.13 6.36918C110.862 6.45888 110.616 6.45888 110.326 6.45888H109.253L109.298 4.26107ZM61.287 4.75445H61.3318C61.4212 4.75445 61.4883 4.77688 61.5329 4.84415C61.6 4.91145 61.6223 4.9563 61.6223 5.046L61.6671 5.6291C61.6448 5.74123 61.6 5.83094 61.5329 5.89822C61.4658 5.96549 61.3764 6.01034 61.287 6.03279L58.2026 7.04198L58.1803 5.83094C58.1803 5.83094 59.3872 5.33756 59.8789 5.15814C60.3707 5.00115 61.287 4.75445 61.287 4.75445ZM77.3576 7.13168V18.2105H70.2946C70.2052 18.2105 70.2498 18.1657 70.3394 18.0983C70.831 17.7171 71.4123 17.4704 72.038 17.3582C72.1051 17.3582 72.1274 17.3358 72.038 17.2461C71.4346 16.6406 70.5853 16.4388 69.8029 16.7303C69.1101 16.977 68.5512 17.4928 68.3054 18.188C68.3054 18.2554 68.2606 18.2777 68.216 18.2777L67.076 18.3226C67.0089 18.3226 66.9866 18.2329 66.9866 18.188C67.076 17.6947 67.389 17.291 67.8136 17.0443C68.1937 16.7752 68.6183 16.6406 69.0653 16.5957H69.0876C69.1324 16.5733 69.1324 16.506 69.1101 16.4612C69.043 16.3715 68.9536 16.3042 68.8417 16.2369C68.4842 16.0351 68.0595 15.9678 67.6348 16.0351C66.4278 16.1696 65.4668 17.134 65.3774 18.3674C65.3549 18.502 65.3774 18.5468 65.2655 18.5917C64.9751 18.6814 64.4833 18.7487 64.2152 18.7936C64.1704 18.8159 64.1033 18.7039 64.1258 18.659C64.2152 18.188 64.4163 17.7844 64.7069 17.4031C64.908 17.1116 65.1985 16.8873 65.5114 16.7079C65.6008 16.6855 65.6233 16.6182 65.6008 16.5733C64.9974 16.0351 63.7457 16.5957 63.2317 17.1564C62.7623 17.762 62.5387 18.5693 62.5835 19.3318V19.444L61.6223 19.7803L61.5777 19.6906C61.4883 19.1075 61.6223 18.5468 61.9353 18.0535C62.0694 17.8069 62.2705 17.6049 62.5164 17.448V17.3582C62.2259 16.9994 61.153 17.2461 60.8178 17.5601C60.0577 18.3226 60.1248 19.0403 60.0802 20.2064C60.0802 20.2738 59.9908 20.4755 59.946 20.498C59.8118 20.5877 59.6555 20.6549 59.499 20.6774H59.432L59.3426 20.4755C59.0742 20.027 58.5156 19.87 58.0684 20.1392C58.0238 20.1392 58.0015 20.1841 57.979 20.2064C57.6215 20.5204 57.5767 21.0586 57.8897 21.4176C57.9344 21.4624 57.9567 21.5073 57.8897 21.5073C57.3533 21.6641 57.0627 22.2249 57.2191 22.7631C57.2191 22.7856 57.2191 22.7856 57.2414 22.8079C57.3533 23.0995 57.6438 23.3013 57.9567 23.3013C58.2697 23.3013 58.5827 23.2116 58.8285 23.0322C58.8731 22.9873 58.9179 23.0098 58.9625 23.0322C59.2307 23.4807 59.8118 23.6152 60.2142 23.3461C60.6165 23.077 60.773 22.6734 60.5048 22.0006C60.4825 21.9558 60.5494 21.9109 60.5942 21.8661C62.874 20.5429 65.4668 19.8251 68.1043 19.7579C68.4842 19.8028 68.8417 19.87 69.1995 20.027H69.2441V22.292L69.177 22.3594C68.6854 22.651 68.3054 23.1219 68.1266 23.6826C68.1266 23.7274 68.1266 23.7274 68.0372 23.7274L66.6291 23.8845C66.5843 23.8845 66.5397 23.8171 66.5397 23.7948C66.8749 22.9201 67.4784 22.1352 68.2831 21.6193C68.3054 21.5744 68.3054 21.5073 68.2831 21.4624C68.1712 21.3502 68.0372 21.2605 67.8807 21.2156C67.076 21.1483 66.2713 21.4847 65.7573 22.0903C65.2656 22.6959 65.0197 23.4135 65.0197 24.1759C65.0197 24.2433 65.0197 24.3105 64.9526 24.333L64.0362 24.6021C63.9916 24.6021 63.9468 24.5572 63.9468 24.5124C63.7903 23.5255 64.2598 22.5388 65.1091 22.0455C65.2209 21.9558 65.0197 21.7987 64.8632 21.7987C63.9468 21.7538 63.0752 22.2472 62.6506 23.0547C62.4493 23.6602 62.427 24.333 62.5835 24.9609C62.5835 25.0282 62.6281 25.1179 62.5835 25.1179L61.7788 25.387C61.7342 25.4094 61.6894 25.387 61.6894 25.2973C61.5777 24.916 61.5552 24.5124 61.6448 24.1311C61.7342 23.6826 61.9576 23.2789 62.2928 22.965V22.8753C62.0023 22.7407 61.6671 22.7182 61.3764 22.8079C60.8847 22.9425 60.4823 23.2564 60.259 23.7051C59.8566 24.4227 59.9683 25.118 60.3707 26.1272C60.3707 26.1944 60.4154 26.2617 60.3707 26.3066L60.0577 26.5531C60.0354 26.5757 59.9908 26.5531 59.9683 26.5083C59.8343 26.3066 59.6778 26.0149 59.4766 25.9253C59.1413 25.7682 58.7614 25.7907 58.4485 26.0149C58.1578 26.284 58.0461 26.6877 58.1578 27.069L58.3814 27.4278C58.4037 27.4503 58.3814 27.5175 58.3591 27.5175C58.2249 27.6297 58.0238 27.7194 57.8897 27.854C57.6438 28.1903 57.6438 28.6389 57.8897 28.9752C58.1132 29.334 58.5602 29.4686 58.9625 29.2668C59.1638 29.1771 59.3426 29.0874 59.5214 28.9752C59.5884 28.9304 59.6107 28.8632 59.6778 28.908C59.8118 29.0649 59.9908 29.1995 60.2142 29.2668C60.5048 29.3565 60.8178 29.3117 61.0637 29.1323C61.3541 28.9752 61.5329 28.6613 61.4658 28.3248C61.3989 28.1006 61.2647 27.8763 61.1306 27.6746C61.0412 27.5849 61.0412 27.5849 61.1306 27.54C62.3822 26.8223 63.7457 26.2392 65.1091 25.813C66.4278 25.4094 67.7913 25.23 69.1547 25.3197H69.2441V30.007H56.8168L56.4815 11.2134L56.5263 11.1909C61.8236 9.03795 67.4336 7.73721 73.1332 7.35595C74.5861 7.22138 75.9271 7.15411 77.3576 7.13168ZM70.1605 9.10524C69.5124 9.06037 68.8865 9.26222 68.3277 9.64348C67.6572 10.1144 67.2325 11.4825 67.1208 11.9983C67.1208 12.0431 67.0983 12.088 67.0314 12.088C66.4726 12.1553 65.9361 12.245 65.3774 12.3795C65.422 11.8413 65.6456 11.3479 65.9809 10.9666C66.3609 10.6078 66.7631 10.2939 67.1877 10.0023C67.2102 9.97987 67.1879 9.91259 67.1431 9.89017C66.5397 9.64348 65.8467 9.64348 65.2432 9.91259C64.3715 10.2939 63.7903 11.0788 63.634 11.9983C63.567 12.3122 63.5445 12.6711 63.5445 13.0075L63.4551 13.0523L61.7565 13.613L61.6671 13.5906C61.6448 13.0299 61.7788 12.4917 62.0694 11.9983C62.3599 11.5273 62.8964 11.2806 63.2763 10.8769C63.3211 10.8545 63.3657 10.7872 63.3211 10.7648C62.3376 10.3611 61.4212 10.7648 60.6388 11.6619C60.1025 12.4692 59.946 13.4336 60.1471 14.3755C60.1696 14.4652 60.1471 14.5325 60.1025 14.5773L59.566 14.7792C59.5214 14.7792 59.4766 14.7792 59.4766 14.7343C59.2307 14.0167 58.4037 14.1512 58.0238 14.3755C57.6215 14.6222 57.465 15.138 57.7109 15.5417C57.7109 15.609 57.7109 15.6314 57.6661 15.6538C57.1521 15.9229 56.9287 16.5285 57.1745 17.0667C57.3756 17.4255 57.8003 17.5601 58.1803 17.4031L58.7837 17.1116H58.8508C58.8508 17.1116 58.8508 17.1564 58.8954 17.1564C59.2084 17.5601 59.7895 17.6498 60.2142 17.291C60.4825 17.0891 60.5942 17.0667 60.7059 16.7079C60.7507 16.4388 60.6613 16.1921 60.5048 15.9902C60.46 15.9902 60.5048 15.9005 60.5048 15.9005C63.634 14.2858 67.0537 13.4112 70.5628 13.3214C71.8144 13.3663 73.0438 13.8148 74.005 14.6446C74.0496 14.6895 74.0944 14.7343 74.1614 14.7343C74.2285 14.7119 74.2508 14.6446 74.2731 14.5998C74.4519 14.0167 74.2508 13.3663 73.7814 12.9626C73.3791 12.5589 72.8873 12.2674 72.3287 12.1328C72.2839 12.1328 72.2839 12.0431 72.3062 12.0431C72.5074 11.8189 72.7979 11.6394 73.1109 11.5273C73.5803 11.4376 74.0496 11.4152 74.5638 11.4152C74.5861 11.4152 74.6532 11.3703 74.6532 11.3255C74.4519 10.7872 73.9602 10.406 73.4015 10.3836C72.8427 10.3163 72.2616 10.406 71.7475 10.6302C71.211 10.9218 70.7864 11.3928 70.5405 11.9534L70.4734 11.9983H69.0207C68.9982 11.9983 68.9536 11.9983 68.9536 11.9534C69.0207 11.46 69.2218 11.0564 69.557 10.6975C70.0488 10.2939 70.6076 9.95744 71.1887 9.77803C71.2558 9.7556 71.2781 9.68833 71.2781 9.64348C71.1439 9.46406 70.9874 9.32951 70.7864 9.23979C70.6299 9.15009 70.384 9.10524 70.1605 9.10524ZM78.0952 12.9626H99.2618C99.2618 14.6222 99.2171 16.3715 99.1725 18.2329H78.1175L78.0952 12.9626ZM69.9371 18.9506H85.8957C85.9405 18.9506 85.9405 18.973 85.9405 18.9955V31.3301C85.9405 31.9805 85.8288 32.5859 85.6052 33.1691C84.957 34.8286 83.7277 36.1743 82.1631 36.9816C80.9114 37.7217 79.4587 38.1479 78.0058 38.1702C75.9942 38.1479 74.0944 37.4077 72.5968 36.1069C70.9651 34.8511 70.004 32.9447 69.9594 30.8816V19.0178C69.9146 19.0178 69.9371 18.9506 69.9371 18.9506ZM99.1502 18.9955L99.0606 23.6152H98.8818H99.0831C99.1054 23.6152 99.1502 18.9955 99.1502 18.9955ZM80.7774 20.0045C80.688 20.027 80.5762 20.0942 80.5539 20.2064L79.995 21.9332L80.0173 22.0678L80.1292 22.1352C80.2186 22.1352 80.2632 22.1352 80.2857 22.0455L80.3751 21.7538H81.1796L81.2692 22.0455C81.2692 22.1126 81.3586 22.1352 81.4032 22.1352C81.4479 22.1352 81.515 22.1126 81.5373 22.0678C81.5596 22.0229 81.5596 21.9558 81.5373 21.9109L80.9339 20.1841C80.9339 20.0944 80.8443 20.027 80.7774 20.0045ZM75.7707 20.0494C75.6813 20.0494 75.6142 20.1167 75.6142 20.1841C75.6142 20.2513 75.6813 20.3186 75.7707 20.3186H76.0388V21.9781C76.0388 22.0678 76.1282 22.1126 76.1953 22.1126C76.2624 22.1126 76.3295 22.0455 76.3295 21.9781V20.3186H76.62C76.687 20.3186 76.7541 20.2513 76.7541 20.1841C76.7541 20.1167 76.687 20.0494 76.62 20.0494H75.7707ZM77.0894 20.0494C77.0223 20.0494 76.9552 20.1167 76.9552 20.1841C76.9552 20.2513 77.0223 20.3186 77.0894 20.3186H77.38V21.9781C77.38 22.0678 77.4694 22.1126 77.5363 22.1126C77.6034 22.1126 77.6705 22.0455 77.6705 21.9781V20.3186H77.9612C78.0281 20.3186 78.0952 20.2513 78.0952 20.1841C78.0952 20.1167 78.0281 20.0494 77.9612 20.0494H77.0894ZM79.0116 20.0494C78.7882 20.027 78.5869 20.1616 78.4975 20.341C78.3633 20.5652 78.2964 20.812 78.2964 21.0586C78.2964 21.3279 78.3633 21.5521 78.4752 21.7987C78.5646 22.0006 78.7657 22.1352 79.0116 22.1352C79.1457 22.1352 79.2574 22.0903 79.3693 22.0455C79.5481 21.9109 79.6598 21.709 79.7046 21.4847C79.7269 21.3727 79.7492 21.238 79.7492 21.1259C79.7492 21.0362 79.7046 20.924 79.5481 20.924H79.101C78.9893 20.924 78.9669 20.9689 78.9669 21.0137C78.9669 21.1034 79.0116 21.1483 79.0786 21.1483H79.4139V21.238C79.4362 21.5073 79.2574 21.7538 79.0116 21.8212C78.8551 21.8212 78.6988 21.709 78.654 21.5521C78.5646 21.395 78.5423 21.2156 78.5423 21.0362C78.5423 20.8343 78.6092 20.6549 78.6763 20.498C78.7211 20.3635 78.8551 20.2738 78.9893 20.2513C79.1234 20.2513 79.2351 20.341 79.3022 20.4532C79.3245 20.5204 79.3916 20.5429 79.4587 20.5204C79.5256 20.5204 79.5481 20.4307 79.5481 20.3858C79.5033 20.1616 79.2574 20.027 79.0116 20.0494ZM83.6606 20.0494C83.5712 20.0494 83.5043 20.1167 83.5043 20.1841C83.5043 20.2513 83.5712 20.3186 83.6606 20.3186H83.9512V21.9781C83.9512 22.0678 84.0183 22.1126 84.0854 22.1126C84.1523 22.1126 84.2194 22.0455 84.2194 21.9781V20.3186H84.5101C84.5995 20.3186 84.6441 20.2513 84.6441 20.1841C84.6441 20.1167 84.5771 20.0494 84.5101 20.0494H83.6606ZM71.8369 20.0494C71.6804 20.027 71.5017 20.0719 71.3675 20.1616C71.2333 20.2513 71.1439 20.4083 71.1439 20.5652C71.1216 20.7223 71.1887 20.9017 71.3004 21.0362C71.3898 21.1483 71.5463 21.2156 71.7028 21.2156C71.9038 21.2156 72.0603 21.283 72.1722 21.4399C72.2168 21.5296 72.1722 21.6418 72.1051 21.7315C72.0157 21.8212 71.8815 21.8661 71.7475 21.8435C71.6134 21.8435 71.4792 21.7764 71.3898 21.6867C71.3452 21.6193 71.2558 21.597 71.1887 21.6193C71.0993 21.6641 71.0993 21.7764 71.0993 21.8212C71.2333 22.0229 71.4569 22.1575 71.7251 22.1352C71.9486 22.1575 72.1722 22.0903 72.3287 21.9332C72.4404 21.8212 72.485 21.6641 72.485 21.5073C72.5074 21.3502 72.4181 21.1708 72.2839 21.0811C72.0828 20.9689 71.8592 20.9017 71.6357 20.8792C71.5017 20.8568 71.4123 20.7223 71.4346 20.5877C71.4792 20.4083 71.6357 20.3186 71.7698 20.341C71.9038 20.341 72.0603 20.3858 72.1497 20.498C72.2393 20.5877 72.3733 20.498 72.3733 20.4083C72.3733 20.3186 72.2393 20.0494 71.8369 20.0494ZM72.7756 20.0494C72.7085 20.0494 72.6414 20.1167 72.6414 20.1841V20.2064C72.6414 20.2738 72.7085 20.341 72.7756 20.341H73.0663V21.9781C73.0663 22.0678 73.1332 22.1352 73.2003 22.1352C73.2897 22.1352 73.3567 22.0455 73.3567 21.9781V20.341H73.6472C73.7143 20.341 73.7814 20.2738 73.7814 20.2064C73.7814 20.1392 73.7368 20.0494 73.6697 20.0494H73.6472H72.7756ZM82.0514 20.0494L81.9397 20.1167C81.9172 20.1392 81.8949 20.1841 81.8949 20.2064V21.9558C81.8949 22.0455 81.9397 22.0903 82.0066 22.1126H82.0291C82.1185 22.1126 82.1856 22.0455 82.1856 21.9781V21.4176H82.476L82.9232 22.0229C82.9678 22.0903 83.0126 22.1126 83.0572 22.1126C83.1465 22.1126 83.1913 22.0455 83.1913 22.0006C83.1913 21.9558 83.169 21.8884 83.1242 21.8661L82.7667 21.3727H82.8113C82.9232 21.3279 83.0126 21.2605 83.1019 21.1708C83.2359 21.0586 83.303 20.8792 83.2807 20.6998C83.2807 20.498 83.169 20.3186 83.0126 20.2064C82.8561 20.1167 82.6996 20.0719 82.5208 20.0719C82.4983 20.0494 82.0514 20.0494 82.0514 20.0494ZM74.1614 20.0494C74.0944 20.0494 74.0273 20.1167 74.0273 20.1841V20.2064V21.2605C74.0273 21.4624 74.0721 21.709 74.1614 21.8884C74.2954 22.0678 74.4967 22.1575 74.7201 22.1352C74.9214 22.18 75.1224 22.0678 75.2566 21.8884C75.346 21.6867 75.4131 21.4847 75.3908 21.2605V20.2064C75.3908 20.1392 75.3237 20.0719 75.2566 20.0719H75.2343C75.1672 20.0719 75.1001 20.1392 75.1001 20.2064V21.3279C75.1001 21.4624 75.0778 21.597 75.0107 21.709C74.9437 21.7987 74.832 21.8435 74.7201 21.8212C74.6084 21.8435 74.4967 21.7987 74.4296 21.709C74.3625 21.597 74.3179 21.4624 74.3402 21.3279V20.2064C74.3179 20.1167 74.2508 20.0494 74.1614 20.0494ZM82.1631 20.341H82.5431C82.6548 20.341 82.7667 20.3635 82.8336 20.4307C82.9232 20.5204 82.9455 20.5877 82.9455 20.6998C82.9455 20.9465 82.7442 21.1259 82.4983 21.1259H82.1856L82.1631 20.341ZM80.7549 20.3635L81.1127 21.4847H80.4422L80.7549 20.3635ZM77.9612 22.8079C77.7599 22.8753 77.5588 22.9201 77.4023 23.0322C77.2682 23.1444 77.1565 23.2789 77.0671 23.4358C77.0448 23.4583 77.0223 23.4807 76.9777 23.5032L76.8658 23.5255L76.4412 23.7274C76.3072 23.7948 76.173 23.8845 76.0388 23.9293C75.9271 23.9742 75.8377 23.9965 75.726 24.019C75.4802 23.9742 75.2118 23.9965 75.1224 24.2656C75.1224 24.333 75.1449 24.3778 75.2118 24.4002C75.2566 24.4227 75.2789 24.445 75.3237 24.4675L75.4577 24.5347C75.5025 24.5347 75.5248 24.5347 75.5471 24.5796L75.5696 24.6244V24.6469C75.5696 24.6918 75.5025 24.7366 75.4802 24.7366C75.346 24.759 75.2343 24.7366 75.1224 24.6693H75.1001C75.0554 24.6244 74.9884 24.6244 74.9437 24.6693C74.6978 24.8712 74.4519 25.0731 74.1837 25.23L74.0944 25.3197L74.0721 25.3645V25.4319C74.0721 25.4991 74.005 25.5216 73.9602 25.5216C73.9156 25.5439 73.8708 25.5888 73.8708 25.6336V25.7458C73.8931 25.8356 73.9602 25.8804 74.0721 25.8804H74.1167L74.3179 25.7907H74.4073L74.4296 25.813V25.9027C74.4073 25.9476 74.3848 25.9926 74.3402 26.0149C74.2954 26.0823 74.2731 26.1272 74.3402 26.172C74.4296 26.2617 74.5638 26.2392 74.6307 26.1495C74.6755 26.1047 74.6978 26.0375 74.7201 25.9924C74.7426 25.9253 74.7872 25.8804 74.8543 25.8804C74.966 25.8356 75.1001 25.813 75.2118 25.7907C75.3012 25.7907 75.3908 25.7907 75.4577 25.8579L75.5248 25.9253V25.9701C75.5025 26.0598 75.4802 26.1272 75.4354 26.2169L75.3683 26.4186L75.3012 26.598L75.2118 26.6877L74.8543 26.9793C74.6532 27.1587 74.519 27.3381 74.3625 27.5849C74.3179 27.6521 74.2954 27.7194 74.2731 27.7866C74.2285 27.9885 74.1837 28.2351 73.9827 28.0782C73.7814 27.9885 73.5803 27.8315 73.3791 27.6746C73.312 27.6297 73.2226 27.5624 73.178 27.4727C72.9767 27.1812 72.7308 27.4727 72.6191 27.6746C72.3956 28.0557 72.1274 28.4147 71.8369 28.751C71.8144 28.8407 71.7698 28.908 71.7251 28.9752C71.658 29.0649 71.6134 29.1771 71.6357 29.2892C71.6357 29.4911 71.5686 29.6705 71.4792 29.8276C71.3898 29.9173 71.3452 30.0293 71.3452 30.1415V30.4555C71.3452 30.5452 71.3898 30.59 71.4569 30.59H71.524C71.6805 30.5226 71.8369 30.4329 71.9934 30.2984L72.0603 30.2535C72.1051 30.2087 72.1051 30.1415 72.0828 30.0967L72.0603 30.0518L72.0157 30.007C71.9934 29.9844 71.9486 29.9621 71.9263 29.9173V29.7827L71.9709 29.6482C71.9709 29.6033 71.9934 29.5359 72.038 29.5134L72.2839 29.3117C72.3733 29.222 72.4181 29.0649 72.3733 28.9529V28.7958C72.3733 28.7286 72.3956 28.7061 72.4404 28.6389L72.5968 28.437C72.6639 28.3248 72.7756 28.2351 72.8873 28.1903C73.0661 28.1903 73.2226 28.2351 73.3567 28.3473C73.4684 28.5044 73.5578 28.7061 73.6249 28.908C73.6697 29.0874 73.7368 29.2443 73.8262 29.4014C73.9156 29.4911 74.0273 29.5585 74.139 29.4911L74.206 29.4462L74.2508 29.4237C74.2954 29.4237 74.3402 29.4237 74.3625 29.4911L74.5638 29.693C74.6532 29.7602 74.5861 29.805 74.4967 29.805H74.1837C73.8485 29.9173 73.4684 29.9844 73.1109 29.9844H73.0438C72.9767 29.9844 72.9544 30.0293 72.9544 30.0741L72.9321 30.119L72.8873 30.2087C72.865 30.2984 72.865 30.3881 72.8873 30.4778C73.0215 30.9713 73.0886 31.487 72.9767 32.0029C72.9321 32.2048 72.9767 32.4065 73.1109 32.5411L73.2674 32.6308L73.3567 32.6756C73.4015 32.743 73.4238 32.7878 73.4238 32.8775C73.4238 32.9672 73.4909 33.0793 73.5355 33.1466C73.6249 33.2588 73.7368 33.3485 73.8708 33.4382H73.9156C74.005 33.4831 74.0721 33.4382 74.1167 33.3709C74.1837 33.214 74.2285 33.0344 74.206 32.855C74.206 32.7653 74.139 32.6981 74.0496 32.6756L73.9602 32.6981L73.8931 32.7205H73.8037C73.7591 32.6981 73.7368 32.6533 73.7143 32.6084C73.6697 32.4962 73.6697 32.3842 73.692 32.272V32.2048L73.7143 32.0477C73.7143 32.0029 73.7143 31.958 73.6697 31.9132C73.6249 31.8235 73.6249 31.801 73.5578 31.7786C73.5132 31.7786 73.4909 31.7561 73.4684 31.7113C73.4238 31.6664 73.4238 31.6441 73.4461 31.6216C73.4909 31.375 73.4909 31.1282 73.4684 30.8816C73.4684 30.7919 73.4684 30.7246 73.5132 30.6797C73.692 30.5226 73.9827 30.6349 74.139 30.702C74.3848 30.7919 74.6084 30.8368 74.832 30.8816C75.2343 30.9265 75.6367 30.8143 75.9494 30.59C75.9719 30.5675 75.9719 30.5452 76.0165 30.5675L76.3518 30.8143C76.6424 31.0162 76.9552 31.1507 77.2682 31.2628C77.7153 31.3076 78.14 31.3076 78.6092 31.2404C78.6988 31.2404 78.8328 31.2628 78.9222 31.3076L78.9669 31.375C78.9669 31.5544 78.8776 31.6889 78.8776 31.8683C78.8776 31.958 78.9222 32.0477 78.9669 32.1374L79.0563 32.3842L79.1234 32.4739C79.3693 32.7878 79.3916 33.2588 79.1234 33.5728C78.9669 33.7297 78.7882 33.8867 78.5869 34.0213C78.4081 34.1558 78.1846 34.2455 77.9612 34.2679C77.8047 34.2679 77.6705 34.3352 77.5588 34.4475C77.4247 34.582 77.2905 34.694 77.1342 34.7614C77.0671 34.7837 77 34.8511 77 34.9183C76.9106 35.0977 76.8658 35.2771 76.8212 35.479C76.7989 35.5687 76.8883 35.6136 76.9777 35.6136C77.1342 35.5912 77.2905 35.5239 77.4694 35.479C77.5588 35.479 77.6034 35.3668 77.5811 35.2771L77.5588 35.2548L77.4917 35.1202V35.008C77.5363 34.9857 77.5588 34.9408 77.6034 34.9183C77.6482 34.8734 77.7153 34.8734 77.7599 34.8734H77.8493C78.0729 34.9631 78.341 34.8734 78.4304 34.6492C78.4752 34.582 78.5198 34.5146 78.5646 34.4698C78.9893 34.2007 79.4362 33.9764 79.9279 33.797C79.9727 33.797 80.0173 33.7522 80.0173 33.7073V33.0121C80.0173 32.8999 80.0621 32.6981 80.2186 32.6981C80.2857 32.6981 80.3303 32.743 80.3526 32.7878C80.5091 32.9896 80.7103 33.1243 80.9562 33.214L81.1573 33.3037C81.3361 33.3934 81.4479 33.5503 81.4702 33.7522C81.4925 33.8642 81.4702 33.9539 81.4032 34.0436L80.9339 34.7166C80.8668 34.8286 80.7774 34.9408 80.6432 35.008C80.3303 35.2099 80.0621 35.4565 79.7939 35.7258L79.5704 36.4209C79.5256 36.5554 79.6152 36.6003 79.7269 36.5554C79.9279 36.5106 80.0844 36.4434 80.2409 36.3537L80.3303 36.2863C80.3528 36.264 80.3526 36.2191 80.3526 36.1966C80.3526 36.1294 80.308 36.0621 80.2632 36.0172C80.2186 35.95 80.2186 35.8603 80.2632 35.793C80.2857 35.7481 80.3303 35.7258 80.3526 35.7033L80.7549 35.5912C80.9114 35.5687 81.0679 35.5015 81.2021 35.3893C81.2244 35.3445 81.2467 35.3219 81.2692 35.2771V35.2322C81.4255 34.7166 81.7832 34.223 82.2749 33.9764C82.342 33.9539 82.3643 33.8867 82.3643 33.8194L82.342 33.6176L81.9843 33.0569C81.8726 32.8999 81.8055 32.743 81.7832 32.5636C81.7832 32.3617 81.8278 32.1823 81.9172 32.0254L82.0066 31.8907C82.0737 31.7561 82.2079 31.6889 82.2972 31.5544C82.3866 31.4422 82.4983 31.3076 82.5654 31.1507L82.7667 30.6123C82.8113 30.4555 82.7442 30.2984 82.7442 30.1415C82.7442 30.0741 82.789 30.0518 82.8113 29.9844C82.8784 29.8947 82.9678 29.8276 83.0795 29.7827C83.1913 29.7602 83.303 29.7602 83.3924 29.805L83.9065 30.007C83.996 30.007 84.1077 30.007 84.1971 29.9621C84.2865 29.9396 84.3982 29.8724 84.4876 29.805V29.7153H84.2417C84.1523 29.693 84.0854 29.6482 84.0406 29.5808C83.9958 29.5134 83.9512 29.4462 83.9512 29.3789L84.0183 29.2668C84.1523 29.1771 84.2642 29.0649 84.3313 28.9529C84.3982 28.8183 84.4207 28.6838 84.4207 28.5492H84.3536C84.2642 28.6389 84.2417 28.751 84.13 28.8183C84.0406 28.8855 83.9289 28.908 83.8395 28.908C83.7725 28.908 83.7054 28.8855 83.6383 28.8183C83.5937 28.751 83.5712 28.6838 83.5489 28.6164C83.5266 28.5267 83.6383 28.5044 83.6831 28.4819C83.8171 28.4819 83.9512 28.437 84.0854 28.3922C84.1748 28.3473 84.2194 28.28 84.2642 28.1903C84.2865 28.1231 84.3088 28.0557 84.3088 27.9885C84.3088 27.9437 84.3088 27.9212 84.2865 27.9437C84.1971 27.9437 84.1523 28.0109 84.0854 28.0334C83.9735 28.0782 83.8395 28.0557 83.7277 28.0109C83.616 27.9212 83.5266 27.8091 83.4595 27.6969V27.4503C83.5937 27.4503 83.7054 27.3158 83.7725 27.1587L83.8171 27.069L83.9065 26.9568C83.9289 26.8671 83.9289 26.7774 83.9289 26.6877C83.9289 26.6205 83.8841 26.5308 83.8395 26.486H83.7502C83.7054 26.5757 83.7502 26.6877 83.6606 26.7774C83.5937 26.8671 83.5266 26.9568 83.4372 27.0242C83.3701 27.069 83.3253 27.1139 83.2807 27.1139C83.1688 27.069 83.1019 26.9793 83.0795 26.8671C83.0795 26.7774 83.1242 26.6428 83.1688 26.5531L83.5489 25.9476L83.8618 25.5888C83.9289 25.4991 83.9512 25.2973 83.8841 25.2525C83.7948 25.23 83.7502 25.4319 83.6831 25.4767C83.3701 25.5888 83.0795 25.7458 82.8113 25.9476C82.6773 26.1047 82.6102 26.284 82.5431 26.486C82.4983 26.598 82.5208 26.7551 82.476 26.8671C82.476 26.9119 82.3866 26.9568 82.342 26.9345C82.2525 26.8448 82.1856 26.7102 82.1408 26.598C82.1185 26.5083 82.1185 26.4186 82.1408 26.3066C82.1631 26.2617 82.1408 26.2392 82.1185 26.2617C81.9843 26.3289 81.9172 26.4411 81.8503 26.5531C81.8055 26.7325 81.8055 26.9119 81.8949 27.069C82.0291 27.3381 82.1855 27.5624 82.3866 27.7866C82.5208 27.9885 82.6773 28.2351 82.789 28.437C82.9007 28.5941 82.9455 28.8183 82.9232 29.0426C82.8561 29.2443 82.7667 29.4462 82.6102 29.5808C82.6102 29.5808 82.5431 29.6256 82.5208 29.6033C82.3643 29.4462 82.1855 29.3117 82.0066 29.1771C81.7832 29.0426 81.5596 28.9304 81.3138 28.8855C81.0008 28.8407 80.6656 28.8407 80.3526 28.8855C80.0173 28.8855 79.6821 28.9529 79.3468 28.9304C79.0786 28.9529 78.8105 28.9304 78.5423 28.8407C78.3633 28.751 78.207 28.6164 78.0952 28.437C78.0058 28.2576 77.9612 28.0334 78.0058 27.8315C78.0058 27.6521 78.0729 27.4952 78.14 27.3381C78.207 27.2036 78.3187 27.0914 78.4304 27.0242C78.5869 26.9345 78.7657 26.9119 78.9222 26.9568L79.1234 27.0914C79.1903 27.1587 79.2574 27.2261 79.3245 27.2933L79.3916 27.2709C79.4139 27.0465 79.3693 26.8222 79.3022 26.598C79.2351 26.4411 79.1234 26.284 79.0116 26.1272C79.0116 26.0823 79.1009 26.1047 79.1234 26.0823C79.3022 26.0823 79.481 26.1272 79.6152 26.2392C79.7046 26.3066 79.8162 26.3737 79.8833 26.5083L79.9056 26.486C79.9279 26.2169 79.8163 25.9476 79.6375 25.7458C79.5704 25.6336 79.4587 25.5216 79.3468 25.4542C79.2574 25.4319 79.3916 25.3645 79.4587 25.3645C79.5927 25.3422 79.7492 25.3645 79.861 25.4319L79.995 25.5216L80.0844 25.6113C80.1069 25.6113 80.1515 25.5665 80.1292 25.5439C80.1069 25.4542 80.0844 25.387 80.0398 25.3197C79.8386 25.1179 79.6152 24.916 79.3693 24.7366L79.2799 24.6693C79.2128 24.5796 79.1457 24.4675 79.1234 24.3778L79.034 24.2433V24.0862C79.1234 23.9517 79.168 23.9293 79.3245 23.862C79.4362 23.8171 79.5481 23.7948 79.6598 23.7723L79.7715 23.8171C79.7715 23.8171 79.7939 23.7499 79.7492 23.7274C79.6152 23.6377 79.4362 23.5929 79.2574 23.5929C79.034 23.548 78.8105 23.5704 78.5869 23.6377C78.4304 23.7274 78.2516 23.7723 78.0952 23.7723C77.9835 23.7723 77.8493 23.7723 77.7599 23.7051C77.6928 23.6602 77.6259 23.5929 77.6259 23.5032C77.6259 23.391 77.6482 23.2341 77.7153 23.1219C77.7599 23.0322 77.8493 22.965 77.9387 22.9201C78.0281 22.9201 78.0506 22.8753 78.0281 22.8304C78.0729 22.7631 78.0058 22.7856 77.9612 22.8079ZM77.0894 24.1311C77.2011 24.1311 77.2906 24.1759 77.38 24.2433C77.6482 24.4675 77.7822 24.7815 77.827 25.1179C77.8941 25.5665 77.9164 26.0375 77.827 26.486C77.827 26.6428 77.7599 26.7774 77.6259 26.8448C77.5588 26.8671 77.4917 26.8896 77.4246 26.8896C77.3576 26.8896 77.3353 26.7774 77.3353 26.598V25.3645C77.2905 25.0954 77.2236 24.8263 77.0894 24.5572C77.0894 24.4899 77.0448 24.4675 77 24.4227L76.9106 24.3105C76.8658 24.2656 76.7989 24.2433 76.7541 24.1984L76.7764 24.1311C76.8883 24.1087 77 24.0862 77.0894 24.1311ZM86.6781 24.3553H99.0606L98.9489 29.7827H86.6781V24.3553ZM86.7004 30.5003H98.9489C98.8372 32.8775 98.3901 35.2322 97.6079 37.4749C96.6692 40.1213 95.4173 42.6107 93.8752 44.9656C91.6401 48.3295 88.7344 51.2001 85.3371 53.4204C83.8395 54.3398 82.2749 55.1247 80.6432 55.8425C80.1292 56.0668 79.6375 56.291 79.2351 56.4256C78.7657 56.5601 78.3633 56.717 78.0952 56.7844V39C78.3633 39 78.5869 39 78.8551 38.9552L78.9445 39.2019C79.0563 39.4036 79.2351 39.5382 79.4587 39.6056C79.7492 39.6504 80.0173 39.5382 80.1963 39.3365C80.4645 39.5382 80.7997 39.6279 81.1127 39.4933C81.3586 39.4262 81.5373 39.2019 81.5373 38.9552C81.5596 38.7758 81.5373 38.6187 81.4479 38.4618L81.3586 38.3273C82.0066 38.0356 82.5877 37.7217 83.1465 37.318H83.2136C84.0854 37.0938 87.6839 35.793 89.8967 35.7706C91.26 35.7481 92.6011 36.0621 93.7858 36.7125C94.434 37.0938 95.0152 37.5646 95.5069 38.1479L95.5963 38.0805C95.7303 37.6768 95.8197 37.2732 95.7974 36.8247C95.7303 36.1518 95.0598 35.6584 94.8587 35.4567C94.8587 35.4567 94.8587 35.4116 94.9256 35.3668C94.9927 35.2996 95.0821 35.2322 95.1715 35.1651C95.5738 34.8734 96.0432 34.6717 96.535 34.6717C96.6021 34.6717 96.5796 34.582 96.5573 34.4698C96.4233 33.8867 95.5515 33.5054 94.6799 33.6176C94.0763 33.7297 93.5622 34.111 93.227 34.6269C93.2047 34.6717 93.1153 34.7166 93.0928 34.6717C92.8023 34.5595 92.5117 34.4698 92.2212 34.4026C92.1318 34.3801 92.1764 34.2904 92.1764 34.2904C92.3552 33.9764 92.5788 33.6848 92.8917 33.4831C93.227 33.214 93.6516 33.0121 94.0986 32.9447C94.1434 32.9447 94.1434 32.8775 94.0986 32.855C93.9423 32.4962 93.607 32.2271 93.227 32.1374C92.6011 31.9355 91.886 32.0477 91.3719 32.4514C90.8802 32.8775 90.5001 33.4606 90.299 34.0661C90.2766 34.1333 90.2543 34.1558 90.2097 34.1558C89.9638 34.0885 89.3827 34.1333 89.3379 34.0885C89.2931 34.0885 89.2931 33.9988 89.3156 33.9764C89.405 33.64 89.606 33.326 89.8296 33.0793C90.0755 32.7878 90.366 32.5411 90.7012 32.4065L90.746 32.3617C90.7908 32.2945 90.7908 32.2048 90.7237 32.1599C89.7179 31.6664 88.5109 31.9355 87.7956 32.8102C87.4603 33.3037 87.2144 33.8867 87.0805 34.4698C87.0805 34.4923 87.0357 34.5595 86.9911 34.5595L85.784 34.8511L85.5829 34.896L85.5381 34.8511C86.2535 33.6625 86.6558 32.3168 86.7004 30.904C86.7004 30.9265 86.7004 30.5003 86.7004 30.5003ZM70.1158 32.4514C70.1829 32.7205 70.3169 32.9672 70.4063 33.2363L70.1158 32.4514ZM71.4792 35.2996C73.0661 37.2955 75.4354 38.4618 77.9612 38.5066C79.9056 38.4841 81.7832 37.7665 83.2584 36.4882C81.7832 37.744 79.9056 38.4393 77.9612 38.4618C75.4577 38.4393 73.0661 37.2732 71.4792 35.2996ZM57.8674 36.5554H71.9038L72.1945 36.8022C73.6472 38.0582 75.4802 38.8206 77.38 38.9775V41.8706H60.1025C59.1861 40.1438 58.4485 38.3721 57.8674 36.5554ZM87.1475 37.6992C86.7898 37.744 86.4545 37.8562 86.1416 38.0582C85.7394 38.3047 85.404 38.6412 85.2029 39.0674C84.957 39.6727 84.8453 40.2783 84.8005 40.9062L84.7112 40.9959L83.9065 41.1978C83.9065 41.1978 83.8618 41.1978 83.8395 41.153C83.7502 40.5474 83.8841 39.9418 84.1971 39.4262C84.3313 39.1794 84.5101 38.9552 84.7112 38.7757C84.7559 38.7532 84.7782 38.6861 84.7559 38.6635L84.6665 38.6187C84.1523 38.529 83.5937 38.6187 83.1242 38.9103C82.5208 39.2243 82.1185 39.8298 82.0514 40.5251C81.9843 40.9959 82.0291 41.4669 82.1408 41.9379C82.1408 41.9603 82.1408 42.0051 82.0962 42.0276L81.2244 42.4536H81.1796C81.0902 42.0948 80.8668 41.7809 80.5315 41.5791C80.1738 41.4221 79.7939 41.4446 79.4587 41.624C79.2351 41.7585 79.0563 41.9379 78.9669 42.1622C78.7882 42.5658 78.9222 43.0143 79.2574 43.2386C79.2574 43.2611 79.3022 43.306 79.2574 43.3283C79.034 43.418 79.034 43.4628 78.8551 43.7096C78.6988 44.0684 78.7434 44.4946 78.9893 44.786C79.3245 45.3019 80.0173 45.4364 80.5091 45.1001C80.5539 45.0776 80.5985 45.0328 80.6432 44.9879C80.6432 44.9879 80.688 44.9879 80.7103 45.0328C80.7997 45.1673 80.9114 45.3019 81.0456 45.3916C81.3809 45.5935 81.8055 45.5935 82.1185 45.3916C82.476 45.1898 82.6773 44.786 82.6102 44.3824C82.6102 44.1581 82.5208 43.9339 82.342 43.7768C82.3195 43.7319 82.342 43.7096 82.4314 43.6648C83.8842 42.8349 85.4711 42.2742 87.1475 42.05C87.9968 41.9379 88.8684 41.9603 89.7179 42.1173C90.2543 42.2294 90.7908 42.4985 91.2154 42.8575C91.573 43.1489 91.886 43.4628 92.1989 43.8218C92.2883 43.8218 92.4 43.8218 92.4894 43.7545C92.6682 43.3508 92.6907 42.9023 92.5117 42.4985C92.3106 41.9603 91.9977 41.4894 91.5953 41.0856V41.0408C91.5953 40.9511 91.6401 40.9287 91.7072 40.839C92.087 40.5026 92.5565 40.2335 93.0482 40.1438C93.1153 40.1438 93.1376 40.0764 93.1153 40.0315C92.7576 39.3139 91.9083 39 91.1707 39.2916C90.7012 39.4933 90.299 39.8521 90.0978 40.3008C90.0755 40.3457 90.0307 40.4129 90.0084 40.3905L89.2037 40.3008C89.1143 40.3008 89.1368 40.2109 89.1591 40.2109C89.2485 39.9195 89.405 39.6504 89.6285 39.4485C89.919 39.1122 90.299 38.8429 90.7012 38.6861C90.746 38.6861 90.746 38.6412 90.746 38.6187C90.4778 38.2824 90.0532 38.0805 89.6285 38.0582C89.092 38.0356 88.5557 38.2375 88.1756 38.6187C87.7062 39.1122 87.438 39.7401 87.3709 40.4129C87.3263 40.4577 87.3038 40.5026 87.2815 40.5026C87.0804 40.5474 86.8346 40.5474 86.611 40.5699C86.5664 40.5699 86.5664 40.5026 86.5664 40.4802C86.5664 40.1438 86.6558 39.8073 86.8123 39.5159C87.1028 38.9326 87.5722 38.4393 88.1308 38.103C88.2204 38.0356 88.2204 37.9011 88.1979 37.9011C87.885 37.7217 87.5051 37.6543 87.1475 37.6992ZM84.5101 45.3244C84.2865 45.3244 84.0629 45.3916 83.8841 45.5261C83.3478 45.7952 82.9455 46.2662 82.7442 46.8493C82.6548 47.298 82.6548 47.7688 82.789 48.2173V48.2847L82.2749 48.5314H82.2079C81.8949 47.9482 81.962 47.2529 82.4089 46.7596C82.4537 46.7147 82.476 46.6699 82.3866 46.6475C81.9172 46.5802 81.4479 46.7596 81.135 47.1184C80.7549 47.5671 80.6432 48.1724 80.8443 48.7332C80.8891 48.9351 80.9562 49.1368 81.0902 49.3387C81.0902 49.3387 81.1796 49.4059 81.1127 49.4284L80.7774 49.72H80.7103C80.5762 49.4284 80.308 49.2265 80.0173 49.1368C79.7492 49.0696 79.481 49.1593 79.2799 49.3387C78.9445 49.6752 78.9222 50.2134 79.2574 50.5722L79.2799 50.5945C79.3693 50.6842 79.481 50.7516 79.6152 50.7964C79.6375 50.7964 79.6598 50.8413 79.6375 50.8638C79.4362 50.9983 79.2799 51.1552 79.168 51.3571C79.034 51.6934 79.101 52.0747 79.3693 52.3438C79.5704 52.5009 79.8163 52.5906 80.0621 52.5458C80.4422 52.4335 80.7326 52.1421 80.9339 51.8056C80.9339 51.8056 80.9785 51.7608 81.0008 51.8056C81.1573 52.0076 81.3809 52.1645 81.649 52.2767C81.9172 52.3887 82.2078 52.3215 82.4089 52.1196C82.6996 51.9177 82.8113 51.514 82.6773 51.1552C82.5654 50.9535 82.4089 50.7739 82.2079 50.6619C82.1631 50.617 82.2079 50.5722 82.2525 50.5273C83.2136 49.7424 84.3759 49.2265 85.6275 49.0471C86.4545 48.9351 87.3038 49.0696 88.0639 49.4508C88.3544 49.6078 88.6226 49.8321 88.8684 50.0788C88.8909 50.0788 88.9803 50.1237 89.0026 50.0788C89.3827 49.7649 89.405 49.1817 89.092 48.8005C88.9578 48.6435 88.8015 48.5089 88.6003 48.3967L88.578 48.3518C88.8238 47.7239 89.3379 47.2306 90.0084 47.0735C90.0755 47.0735 90.0532 47.0287 90.0084 46.9615C89.7402 46.2887 88.5332 46.2662 87.9745 46.625C87.6168 46.8718 87.3263 47.1857 87.1251 47.5671C87.1251 47.6119 87.1028 47.6568 87.058 47.6568L86.5664 47.4997V47.4325C86.9017 46.7596 87.5051 46.2662 88.2204 46.0868C88.265 46.0643 88.2427 46.0195 88.2204 45.9971C87.9745 45.3467 86.6558 45.3916 86.0076 45.8177C85.4042 46.2214 84.957 46.8269 84.8005 47.5445V47.6342C84.5995 47.7016 84.443 47.7465 84.2417 47.7688C84.2194 47.7688 84.1971 47.7465 84.1971 47.7016C84.1523 47.3877 84.1971 47.0512 84.3536 46.7821C84.5547 46.4233 84.8453 46.0868 85.1358 45.7729C85.1806 45.728 85.1806 45.6607 85.1358 45.6383C84.9347 45.4141 84.7335 45.3467 84.5101 45.3244ZM64.6398 48.4641H77.3353V56.6947C77.0894 56.605 76.8212 56.4927 76.5083 56.403C76.0836 56.2685 75.6367 56.0219 75.0778 55.7977C72.3733 54.7436 69.87 53.2634 67.6572 51.3795C66.5843 50.4825 65.5785 49.5181 64.6398 48.4641ZM111.913 67.3697V77.9552H114.237V73.9857H128.341V77.9552H130.688V67.3697H128.363V71.6756H114.26V67.3697H111.913ZM24.9439 67.3697C23.6477 67.3697 22.5971 68.4237 22.5748 69.7245V75.6451C22.5748 76.9459 23.6477 77.9775 24.9439 77.9775H39.7628C41.0592 77.9775 42.0873 76.9236 42.0873 75.6451V69.7245C42.0873 68.4686 41.0815 67.4147 39.8076 67.3922L24.9439 67.3697ZM44.9036 67.3697V77.9552H47.2058V75.1518H60.1471C61.4212 75.1518 62.4718 76.2283 62.4718 77.5066V77.9326H64.8186V77.9103C64.8186 76.3852 63.9468 74.9949 62.5612 74.3219C63.8128 74.2771 64.7963 73.2455 64.7963 71.9896V69.702C64.7963 68.4014 63.7457 67.3697 62.4493 67.3697H44.9036ZM0 67.3922V77.9775H2.32453V75.1743H17.5234C18.8197 75.1743 19.8702 74.1202 19.8702 72.8419V69.7245C19.8702 68.4237 18.7974 67.3922 17.5234 67.3922H0.0447027H0ZM92.4894 67.3922C91.193 67.3922 90.1201 68.4462 90.1201 69.7245V75.6451C90.1201 76.9236 91.1484 78 92.4223 78H109.253V75.6676H92.7576C92.6011 75.6676 92.4671 75.5554 92.4671 75.376V70.0385C92.4671 69.8368 92.6459 69.7245 92.847 69.7245H109.253V67.3697L92.4894 67.3922ZM133.414 67.3922V77.9775H154V76.0041H135.761V73.694H154V71.6981H135.761V69.3881H154V67.3922H133.414ZM69.7806 67.3922C68.5065 67.437 67.4784 68.4686 67.4784 69.7694V71.3393C67.4784 72.64 68.5512 73.694 69.8477 73.694H84.6441C84.8453 73.694 85.0241 73.8511 85.0464 74.0528V75.6676C85.0464 75.8695 84.8676 76.0041 84.6441 76.0041H67.8136V78H85.0464C86.3205 78 87.3709 76.9236 87.3709 75.6451V74.0528C87.3709 72.7745 86.2981 71.6981 85.0241 71.6981H70.2052C70.004 71.7205 69.8252 71.5636 69.8252 71.3617V69.7471C69.8252 69.5452 70.004 69.3881 70.2052 69.3881H86.9911V67.4147L69.7806 67.3922ZM47.2281 69.702H62.0694C62.2928 69.7246 62.4718 69.904 62.4718 70.1059V72.4382C62.4718 72.64 62.3153 72.8194 62.114 72.8419H47.2281V69.702ZM2.32453 69.702L17.1434 69.7245C17.3446 69.7245 17.5457 69.9265 17.5457 70.1282V72.4382C17.5457 72.64 17.3893 72.8194 17.1881 72.8419H2.36923V69.702H2.32453ZM25.324 69.7245H39.4052C39.6063 69.7245 39.8076 69.904 39.8076 70.1282V75.264C39.8076 75.4882 39.6511 75.6451 39.4275 75.6676H25.2346C25.0781 75.6676 24.9439 75.5331 24.9439 75.376V70.0385C24.9664 69.8368 25.1452 69.702 25.324 69.7245Z" fill="#191919"/>
</g>
<defs>
<clipPath id="clip0_1420_6870">
<rect width="154" height="78" fill="white"/>
</clipPath>
</defs>
</svg>
