<svg width="87" height="44" viewBox="0 0 87 44" fill="none" xmlns="http://www.w3.org/2000/svg">
<path d="M43.9672 0.0253025C41.1009 0.0379534 38.2472 0.39218 35.4692 1.06268C34.1055 1.40426 32.7544 1.85969 31.4412 2.37838L31.3655 2.41633C31.3655 2.41633 31.5296 12.2208 31.6432 17.0788C31.6811 18.5083 31.9463 19.9126 32.4261 21.2789C32.9817 22.8097 33.7141 24.2645 34.6106 25.6182C35.9364 27.5791 37.6411 29.249 39.6235 30.5267C40.5074 31.0581 41.4292 31.5262 42.3762 31.9183C42.6919 32.0575 42.9697 32.184 43.2096 32.2599C43.4747 32.3738 43.7399 32.4497 44.0051 32.5129C44.2829 32.4497 44.548 32.3611 44.8006 32.2726C45.0657 32.184 45.3309 32.0575 45.6466 31.931C47.2376 31.3237 48.7149 30.4508 50.0155 29.3502C51.3287 28.2749 52.4652 27.0098 53.4122 25.6055C54.3213 24.2392 55.0537 22.797 55.5967 21.2662C56.0891 19.8999 56.3417 18.4957 56.3795 17.0661C56.4932 12.1955 56.6573 2.40368 56.6573 2.40368L56.5689 2.35308C53.4627 1.10063 50.1671 0.341576 46.8209 0.113859C45.8739 0.037953 45.0152 0 44.0556 0H43.9672V0.0253025ZM43.9672 0.518689H44.043C46.7956 0.543991 49.5357 0.885567 52.2126 1.54342C53.5258 1.88499 54.8138 2.28982 56.0891 2.80851L56.1649 2.84646L56.1144 5.92064H56.0765C53.0839 4.70615 49.9271 3.95975 46.7073 3.73203C45.8234 3.64347 44.9395 3.60552 44.0556 3.58022H43.9798C41.2271 3.60552 38.4871 3.95975 35.8102 4.6176C34.4843 4.95917 33.1837 5.3893 31.921 5.90799L31.8705 2.80851L31.9463 2.78321C34.9389 1.56872 38.1209 0.834962 41.3408 0.607245C42.1994 0.54399 43.0833 0.506038 43.9672 0.518689ZM62.4531 0.822313C60.8242 0.822313 59.4984 2.15066 59.4984 3.78263C59.4984 5.41461 60.8242 6.75561 62.4531 6.75561C64.082 6.75561 65.4078 5.42726 65.4078 3.79529C65.4078 2.16331 64.0946 0.822313 62.4531 0.822313ZM43.0454 0.986773C42.9823 0.999424 42.9192 1.02473 42.8686 1.06268C42.8181 1.08798 42.7929 1.13859 42.7803 1.18919V1.66993L42.7676 2.12536C42.7676 2.17596 42.8181 2.23922 42.856 2.26452C42.9065 2.31512 42.9697 2.31512 43.0454 2.32777H43.6515L44.2829 2.34043L44.9142 2.37838C44.9647 2.37838 44.99 2.40368 45.0026 2.44163V2.69465C45.0026 2.74526 45.0026 2.78321 44.9774 2.83381C44.9647 2.87177 44.9269 2.88442 44.8511 2.88442H44.2955L43.9925 2.87177H43.197L42.7298 2.89707L42.7045 3.3019L43.3611 3.2766L43.8662 3.26394H44.2702L44.6364 3.2766L44.889 3.28925H45.1668C45.2299 3.28925 45.3057 3.26395 45.3562 3.22599C45.4067 3.18804 45.4319 3.13743 45.4446 3.07418V2.61875L45.4572 2.16331C45.4446 2.11271 45.4193 2.06211 45.3814 2.02415C45.3435 1.9862 45.293 1.97355 45.2299 1.9609L44.6491 1.93559H43.2475L43.2096 1.91029C43.1843 1.88499 43.1717 1.85969 43.1717 1.83439V1.66993C43.1717 1.60667 43.1717 1.53076 43.197 1.46751C43.2096 1.44221 43.2475 1.41691 43.3106 1.41691L44.7248 1.42956H44.9269L45.4193 1.44221V1.03738L44.7627 1.01208L43.0454 0.986773ZM41.6943 1.05003C41.4544 1.05003 39.27 1.27775 39.27 1.27775V3.60552L39.5225 3.58022L39.7624 3.54227V2.82116L41.1261 2.66935C41.3029 2.66935 41.4671 2.75791 41.5428 2.92237C41.6059 3.06153 41.6565 3.21334 41.707 3.3778L42.2373 3.3272C42.2247 3.17539 42.1868 3.03623 42.1237 2.90972C42.0479 2.74526 41.9216 2.59345 41.7827 2.46694C41.909 2.39103 41.9974 2.26452 42.0353 2.12536C42.0479 1.84704 42.0353 1.58137 42.01 1.3157C41.9974 1.18919 41.9343 1.06268 41.6943 1.05003ZM46.5936 1.07533C46.48 1.07533 46.3537 1.11328 46.2653 1.18919C46.1769 1.25244 46.1138 1.35365 46.1012 1.46751V3.08683L46.1138 3.20069C46.1264 3.25129 46.1517 3.2766 46.1769 3.3019C46.2148 3.3525 46.2653 3.3778 46.3411 3.39045H46.4421L46.4673 3.40311H46.4926L47.5533 3.51696L48.6518 3.63082L48.816 3.66878V3.23864L48.6266 3.20069L48.475 3.18804H48.4498L47.5406 3.07418L46.6315 2.96032C46.6189 2.96032 46.5936 2.96032 46.581 2.93502L46.5684 2.88442V1.64462C46.5684 1.59402 46.5684 1.55607 46.6189 1.53076C46.6567 1.50546 46.6946 1.49281 46.7325 1.48016C46.9345 1.49281 48.6266 1.72053 48.8791 1.75848V1.30305L47.4144 1.13859L46.5936 1.07533ZM62.4405 1.25244C63.4001 1.25244 64.3345 1.79643 64.7512 2.7326L64.7765 2.78321C65.029 3.41576 65.029 4.12421 64.7765 4.75676C64.5239 5.364 64.0567 5.83209 63.4507 6.08511C62.8193 6.35078 62.1122 6.35078 61.4808 6.08511C60.8747 5.84474 60.3949 5.364 60.155 4.75676C59.9025 4.12421 59.9025 3.41576 60.155 2.78321C60.3949 2.17596 60.8747 1.70788 61.4808 1.45486C61.7965 1.341 62.1248 1.2651 62.4405 1.25244ZM49.3084 1.44221V1.54342C49.3084 1.68258 49.3084 1.87234 49.2832 2.08741C49.2832 2.37838 49.2705 2.66935 49.2579 2.96032L49.2453 3.15009V3.42841L49.2327 3.70673L49.3463 3.73203L49.4094 3.75733L49.5231 3.76998L49.6999 3.79529L49.7125 3.63082V3.49166L49.7251 3.3272V2.87177C49.7504 2.87177 49.7882 2.87176 49.8135 2.88442H49.8514L50.3943 2.99828L51.2277 3.16274L51.2909 3.18804L51.3792 3.21334L51.4803 3.23864V3.69408L51.4676 3.84589V4.023L51.455 4.11156L51.6065 4.14951L51.6949 4.17481L51.7833 4.20012L51.9096 4.23807V4.01035C51.9348 3.73203 51.9348 3.44106 51.9475 3.09948V1.9862L51.7707 1.93559L51.5308 1.88499V2.23922L51.5055 2.46694V2.84646H51.4929L51.3792 2.82116L51.2909 2.79586L51.2277 2.78321L51.1646 2.75791L50.6343 2.64405L50.0913 2.54284H50.0408L49.9019 2.50489L49.763 2.47959H49.7251V1.50546L49.6115 1.48016H49.5357L49.4473 1.45486L49.3084 1.44221ZM38.3229 1.46751L36.1763 1.88499C36.0122 1.9356 35.8354 2.06211 35.8354 2.23922V3.79529C35.8354 3.95975 36.0374 4.17481 36.2016 4.13686L38.3482 3.71938C38.5502 3.66878 38.6891 3.49166 38.7144 3.28925V1.72053C38.6765 1.54342 38.5123 1.44221 38.3229 1.46751C38.3356 1.46751 38.3356 1.46751 38.3229 1.46751ZM41.3282 1.54342C41.3913 1.54342 41.4418 1.54342 41.4923 1.59402C41.5302 1.63197 41.5428 1.65728 41.5428 1.70788V1.97355C41.5428 2.04945 41.5176 2.12536 41.4671 2.17596C41.4165 2.22657 41.3408 2.26452 41.265 2.26452L40.5074 2.32777L39.7498 2.39103V1.68258L41.3282 1.54342ZM37.9567 1.91029C38.1588 1.88499 38.2219 1.99885 38.2219 2.13801V3.13743C38.2345 3.26394 38.1462 3.3778 38.0199 3.41576L36.492 3.70673C36.3405 3.74468 36.2521 3.63082 36.2521 3.49166V2.50489C36.2521 2.30247 36.3405 2.21392 36.5804 2.16331C36.5678 2.16331 37.9567 1.91029 37.9567 1.91029ZM62.5163 1.99885H61.2914V5.69293H61.746V4.03565H62.4531L63.1729 5.69293H63.6653L62.9077 3.9724C63.135 3.92179 63.3623 3.80794 63.5138 3.63082C63.6527 3.46636 63.7411 3.26395 63.7411 3.03623C63.7411 2.90972 63.7158 2.78321 63.6906 2.66935C63.6527 2.54284 63.5896 2.42898 63.5012 2.32777C63.4001 2.21392 63.2739 2.13801 63.1224 2.07476C62.9329 2.02415 62.7309 1.99885 62.5163 1.99885ZM52.6293 2.11271L52.6041 3.47901L52.5788 4.41518L53.8415 4.79471C54.2456 4.93387 54.7001 5.07303 55.1547 5.23749L55.2052 5.25014L55.3567 5.30075C55.382 5.13629 55.382 5.00978 55.382 4.84531L55.2557 4.79471H55.2305L55.2052 4.78206C54.9779 4.6935 54.7128 4.6176 54.4729 4.52904L53.7026 4.27602L53.5385 4.22542L53.3617 4.17481L53.1723 4.12421L53.0713 4.08626V3.85854L53.0839 3.63082L53.3364 3.69408L54.2708 3.9724L55.1547 4.27602L55.2431 4.30132L55.3946 4.35193V3.87119L55.2557 3.82059L55.1926 3.80794C54.6496 3.60552 54.1067 3.42841 53.5511 3.2766L53.4248 3.23864L53.2859 3.20069L53.2228 3.17539L53.1091 3.13743V2.66935L53.2733 2.71995L53.4753 2.77056L53.6521 2.82116H53.6647C54.1572 2.96032 54.6496 3.11213 55.1295 3.28925L55.2431 3.33985L55.4073 3.40311V2.98562L55.2936 2.93502L55.1926 2.89707H55.18C54.334 2.61875 53.488 2.34043 52.6293 2.11271ZM35.0652 2.20127H34.9136C34.0298 2.47959 33.1585 2.77056 32.2872 3.09948L32.3125 4.26337V5.35135L32.9186 5.14894V4.35193L35.1788 3.64347C35.2293 3.63082 35.2672 3.59287 35.2925 3.55492C35.3303 3.52961 35.343 3.47901 35.3556 3.44106C35.3556 3.42841 35.3682 3.4031 35.3682 3.39045L35.343 2.46694C35.3303 2.37838 35.2798 2.28982 35.1914 2.23922C35.1536 2.21392 35.1157 2.20127 35.0652 2.20127ZM61.746 2.40368H62.4279C62.6299 2.40368 62.8193 2.44163 62.9961 2.54284C63.1602 2.6567 63.236 2.84646 63.2234 3.03623C63.2234 3.12479 63.2107 3.20069 63.1855 3.28925C63.1602 3.36515 63.1224 3.42841 63.0592 3.46636C62.9835 3.52961 62.8824 3.56757 62.7814 3.59287C62.6299 3.64347 62.491 3.64347 62.3269 3.64347H61.7208L61.746 2.40368ZM34.6232 2.682H34.6485C34.699 2.682 34.7369 2.69465 34.7621 2.7326C34.8 2.77056 34.8126 2.79586 34.8126 2.84646L34.8379 3.17539C34.8253 3.23864 34.8 3.28925 34.7621 3.3272C34.7242 3.36515 34.6737 3.39045 34.6232 3.40311L32.8807 3.9724L32.8681 3.28925C32.8681 3.28925 33.5499 3.01093 33.8277 2.90972C34.1055 2.82116 34.6232 2.682 34.6232 2.682ZM43.702 4.023V10.2726H39.7119C39.6614 10.2726 39.6866 10.2473 39.7372 10.2093C40.0149 9.99425 40.3433 9.85509 40.6968 9.79183C40.7347 9.79183 40.7473 9.77918 40.6968 9.72858C40.3559 9.387 39.8761 9.27315 39.4341 9.43761C39.0427 9.57677 38.727 9.86774 38.5881 10.2599C38.5881 10.2979 38.5628 10.3105 38.5376 10.3105L37.8936 10.3358C37.8557 10.3358 37.8431 10.2852 37.8431 10.2599C37.8936 9.9816 38.0704 9.75388 38.3103 9.61472C38.525 9.46291 38.7649 9.387 39.0174 9.3617H39.03C39.0553 9.34905 39.0553 9.3111 39.0427 9.2858C39.0048 9.23519 38.9543 9.19724 38.8911 9.15929C38.6891 9.04543 38.4492 9.00748 38.2093 9.04543C37.5274 9.12134 36.9845 9.66533 36.934 10.3611C36.9213 10.437 36.934 10.4623 36.8708 10.4876C36.7067 10.5382 36.4289 10.5762 36.2774 10.6015C36.2521 10.6141 36.2142 10.5509 36.2269 10.5256C36.2774 10.2599 36.391 10.0322 36.5552 9.81714C36.6688 9.65267 36.8329 9.52617 37.0097 9.42496C37.0602 9.41231 37.0729 9.37435 37.0602 9.34905C36.7193 9.04543 36.0122 9.3617 35.7218 9.67798C35.4566 10.0196 35.3303 10.475 35.3556 10.9051V10.9684L34.8126 11.1581L34.7874 11.1075C34.7369 10.7786 34.8126 10.4623 34.9894 10.184C35.0652 10.0449 35.1788 9.93099 35.3177 9.84244V9.79183C35.1536 9.58942 34.5475 9.72858 34.3581 9.90569C33.9287 10.3358 33.9666 10.7407 33.9414 11.3985C33.9414 11.4365 33.8909 11.5503 33.8656 11.563C33.7898 11.6136 33.7015 11.6515 33.6131 11.6642H33.5752L33.5247 11.5503C33.3731 11.2973 33.0575 11.2087 32.8049 11.3606C32.7797 11.3606 32.7671 11.3859 32.7544 11.3985C32.5524 11.5756 32.5271 11.8792 32.7039 12.0817C32.7292 12.107 32.7418 12.1323 32.7039 12.1323C32.4009 12.2208 32.2367 12.5371 32.3251 12.8407C32.3251 12.8534 32.3251 12.8534 32.3377 12.866C32.4009 13.0305 32.565 13.1443 32.7418 13.1443C32.9186 13.1443 33.0954 13.0937 33.2343 12.9925C33.2595 12.9672 33.2848 12.9799 33.31 12.9925C33.4615 13.2455 33.7898 13.3214 34.0171 13.1696C34.2444 13.0178 34.3328 12.7901 34.1813 12.4106C34.1687 12.3853 34.2065 12.36 34.2318 12.3347C35.5197 11.5883 36.9845 11.1834 38.4745 11.1455C38.6891 11.1708 38.8911 11.2087 39.0932 11.2973H39.1184V12.575L39.0805 12.613C38.8028 12.7775 38.5881 13.0431 38.4871 13.3594C38.4871 13.3847 38.4871 13.3847 38.4366 13.3847L37.6411 13.4733C37.6158 13.4733 37.5906 13.4353 37.5906 13.4227C37.78 12.9293 38.1209 12.4865 38.5755 12.1955C38.5881 12.1702 38.5881 12.1323 38.5755 12.107C38.5123 12.0437 38.4366 11.9931 38.3482 11.9678C37.8936 11.9298 37.439 12.1196 37.1486 12.4612C36.8708 12.8028 36.7319 13.2076 36.7319 13.6377C36.7319 13.6757 36.7319 13.7136 36.694 13.7263L36.1763 13.8781C36.1511 13.8781 36.1258 13.8528 36.1258 13.8275C36.0374 13.2708 36.3026 12.7142 36.7824 12.4359C36.8456 12.3853 36.7319 12.2967 36.6435 12.2967C36.1258 12.2714 35.6334 12.5497 35.3935 13.0052C35.2798 13.3468 35.2672 13.7263 35.3556 14.0805C35.3556 14.1185 35.3808 14.1691 35.3556 14.1691L34.901 14.3209C34.8758 14.3335 34.8505 14.3209 34.8505 14.2703C34.7874 14.0552 34.7747 13.8275 34.8253 13.6124C34.8758 13.3594 35.002 13.1317 35.1914 12.9546V12.904C35.0273 12.8281 34.8379 12.8154 34.6737 12.866C34.3959 12.9419 34.1686 13.119 34.0424 13.3721C33.8151 13.7769 33.8782 14.1691 34.1055 14.7384C34.1055 14.7763 34.1308 14.8143 34.1055 14.8396L33.9287 14.9787C33.9161 14.9914 33.8909 14.9787 33.8782 14.9534C33.8025 14.8396 33.7141 14.6751 33.6004 14.6245C33.411 14.5359 33.1964 14.5486 33.0196 14.6751C32.8554 14.8269 32.7923 15.0546 32.8554 15.2697L32.9817 15.4721C32.9943 15.4848 32.9817 15.5227 32.9691 15.5227C32.8933 15.586 32.7797 15.6366 32.7039 15.7125C32.565 15.9022 32.565 16.1553 32.7039 16.345C32.8302 16.5474 33.0827 16.6233 33.31 16.5095C33.4237 16.4589 33.5247 16.4083 33.6257 16.345C33.6636 16.3197 33.6762 16.2818 33.7141 16.3071C33.7898 16.3956 33.8909 16.4715 34.0171 16.5095C34.1813 16.5601 34.3581 16.5348 34.497 16.4336C34.6611 16.345 34.7621 16.1679 34.7242 15.9781C34.6864 15.8516 34.6106 15.7251 34.5348 15.6113C34.4843 15.5607 34.4843 15.5607 34.5348 15.5354C35.2419 15.1305 36.0122 14.8016 36.7824 14.5612C37.5274 14.3335 38.2977 14.2323 39.0679 14.2829H39.1184V16.927H32.0978L31.9084 6.32548L31.9337 6.31282C34.9263 5.09833 38.0956 4.36458 41.3155 4.14951C42.1363 4.0736 42.8939 4.03565 43.702 4.023ZM39.6361 5.13629C39.27 5.11098 38.9164 5.22484 38.6007 5.43991C38.2219 5.70558 37.982 6.47729 37.9189 6.76826C37.9189 6.79356 37.9062 6.81886 37.8684 6.81886C37.5527 6.85681 37.2496 6.90742 36.934 6.98332C36.9592 6.6797 37.0855 6.40138 37.2749 6.18631C37.4896 5.9839 37.7168 5.80679 37.9567 5.64232C37.9694 5.62967 37.9568 5.59172 37.9315 5.57907C37.5906 5.43991 37.1991 5.43991 36.8582 5.59172C36.3657 5.80679 36.0374 6.24957 35.9491 6.76826C35.9112 6.94537 35.8985 7.14779 35.8985 7.33755L35.848 7.36285L34.8884 7.67913L34.8379 7.66647C34.8253 7.3502 34.901 7.04658 35.0652 6.76826C35.2293 6.50259 35.5324 6.36343 35.747 6.13571C35.7723 6.12306 35.7975 6.08511 35.7723 6.07246C35.2167 5.84474 34.699 6.07246 34.257 6.57849C33.954 7.03393 33.8656 7.57792 33.9792 8.10926C33.9919 8.15986 33.9792 8.19782 33.954 8.22312L33.6509 8.33698C33.6257 8.33698 33.6004 8.33698 33.6004 8.31167C33.4615 7.90684 32.9943 7.98275 32.7797 8.10926C32.5524 8.24842 32.464 8.53939 32.6029 8.76711C32.6029 8.80506 32.6029 8.81771 32.5776 8.83036C32.2872 8.98217 32.161 9.32375 32.2999 9.62737C32.4135 9.82979 32.6534 9.90569 32.8681 9.81714L33.209 9.65267H33.2469C33.2469 9.65267 33.2469 9.67798 33.2721 9.67798C33.4489 9.90569 33.7772 9.9563 34.0171 9.75388C34.1687 9.64002 34.2318 9.62737 34.2949 9.42496C34.3202 9.27315 34.2697 9.13398 34.1813 9.02013C34.156 9.02013 34.1813 8.96952 34.1813 8.96952C35.9491 8.05865 37.881 7.56527 39.8634 7.51466C40.5705 7.53997 41.265 7.79298 41.808 8.26107C41.8332 8.28637 41.8585 8.31167 41.8964 8.31167C41.9343 8.29902 41.9469 8.26107 41.9595 8.23577C42.0605 7.90684 41.9469 7.53996 41.6817 7.31225C41.4544 7.08453 41.1766 6.92007 40.861 6.84416C40.8357 6.84416 40.8357 6.79356 40.8483 6.79356C40.962 6.66705 41.1261 6.56584 41.3029 6.50259C41.5681 6.45198 41.8332 6.43933 42.1237 6.43933C42.1363 6.43933 42.1742 6.41403 42.1742 6.38873C42.0605 6.08511 41.7827 5.87004 41.4671 5.85739C41.1514 5.81944 40.8231 5.87004 40.5327 5.99655C40.2296 6.16101 39.9897 6.42668 39.8508 6.74296L39.8129 6.76826H38.9922C38.9795 6.76826 38.9543 6.76826 38.9543 6.74296C38.9922 6.46463 39.1058 6.23692 39.2952 6.0345C39.573 5.80679 39.8887 5.61702 40.217 5.51581C40.2549 5.50316 40.2675 5.46521 40.2675 5.43991C40.1917 5.3387 40.1033 5.2628 39.9897 5.21219C39.9013 5.16159 39.7624 5.13629 39.6361 5.13629ZM44.1187 7.31225H56.0765C56.0765 8.24842 56.0512 9.23519 56.026 10.2852H44.1313L44.1187 7.31225ZM39.5099 10.6901H48.5255C48.5508 10.6901 48.5508 10.7027 48.5508 10.7154V17.6734C48.5508 18.0403 48.4877 18.3818 48.3614 18.7108C47.9952 19.6469 47.3007 20.406 46.4168 20.8614C45.7097 21.2789 44.889 21.5193 44.0682 21.5319C42.9318 21.5193 41.8585 21.1018 41.0125 20.368C40.0907 19.6596 39.5477 18.5842 39.5225 17.4204V10.728C39.4972 10.728 39.5099 10.6901 39.5099 10.6901ZM56.0134 10.7154L55.9628 13.3214H55.8618H55.9755C55.9881 13.3214 56.0134 10.7154 56.0134 10.7154ZM45.634 11.2846C45.5835 11.2973 45.5203 11.3352 45.5077 11.3985L45.192 12.3726L45.2046 12.4485L45.2678 12.4865C45.3183 12.4865 45.3435 12.4865 45.3562 12.4359L45.4067 12.2714H45.8612L45.9118 12.4359C45.9118 12.4738 45.9623 12.4865 45.9875 12.4865C46.0128 12.4865 46.0507 12.4738 46.0633 12.4485C46.0759 12.4232 46.0759 12.3853 46.0633 12.36L45.7224 11.3859C45.7224 11.3353 45.6718 11.2973 45.634 11.2846ZM42.8055 11.3099C42.755 11.3099 42.7171 11.3479 42.7171 11.3859C42.7171 11.4238 42.755 11.4618 42.8055 11.4618H42.957V12.3979C42.957 12.4485 43.0075 12.4738 43.0454 12.4738C43.0833 12.4738 43.1212 12.4359 43.1212 12.3979V11.4618H43.2853C43.3232 11.4618 43.3611 11.4238 43.3611 11.3859C43.3611 11.3479 43.3232 11.3099 43.2853 11.3099H42.8055ZM43.5505 11.3099C43.5126 11.3099 43.4747 11.3479 43.4747 11.3859C43.4747 11.4238 43.5126 11.4618 43.5505 11.4618H43.7147V12.3979C43.7147 12.4485 43.7652 12.4738 43.803 12.4738C43.8409 12.4738 43.8788 12.4359 43.8788 12.3979V11.4618H44.043C44.0808 11.4618 44.1187 11.4238 44.1187 11.3859C44.1187 11.3479 44.0808 11.3099 44.043 11.3099H43.5505ZM44.6364 11.3099C44.5102 11.2973 44.3965 11.3732 44.346 11.4744C44.2702 11.6009 44.2324 11.7401 44.2324 11.8792C44.2324 12.0311 44.2702 12.1576 44.3334 12.2967C44.3839 12.4106 44.4975 12.4865 44.6364 12.4865C44.7122 12.4865 44.7753 12.4612 44.8385 12.4359C44.9395 12.36 45.0026 12.2461 45.0279 12.1196C45.0405 12.0564 45.0531 11.9804 45.0531 11.9172C45.0531 11.8666 45.0279 11.8033 44.9395 11.8033H44.6869C44.6238 11.8033 44.6112 11.8286 44.6112 11.8539C44.6112 11.9045 44.6364 11.9298 44.6743 11.9298H44.8637V11.9804C44.8763 12.1323 44.7753 12.2714 44.6364 12.3094C44.548 12.3094 44.4597 12.2461 44.4344 12.1576C44.3839 12.069 44.3713 11.9678 44.3713 11.8666C44.3713 11.7527 44.4091 11.6515 44.447 11.563C44.4723 11.4871 44.548 11.4365 44.6238 11.4238C44.6996 11.4238 44.7627 11.4744 44.8006 11.5377C44.8132 11.5756 44.8511 11.5883 44.889 11.5756C44.9268 11.5756 44.9395 11.525 44.9395 11.4997C44.9142 11.3732 44.7753 11.2973 44.6364 11.3099ZM47.2628 11.3099C47.2123 11.3099 47.1745 11.3479 47.1745 11.3859C47.1745 11.4238 47.2123 11.4618 47.2628 11.4618H47.427V12.3979C47.427 12.4485 47.4649 12.4738 47.5028 12.4738C47.5406 12.4738 47.5785 12.4359 47.5785 12.3979V11.4618H47.7427C47.7932 11.4618 47.8184 11.4238 47.8184 11.3859C47.8184 11.3479 47.7806 11.3099 47.7427 11.3099H47.2628ZM40.5832 11.3099C40.4948 11.2973 40.3938 11.3226 40.318 11.3732C40.2422 11.4238 40.1917 11.5124 40.1917 11.6009C40.1791 11.6895 40.217 11.7907 40.2801 11.8666C40.3306 11.9298 40.419 11.9678 40.5074 11.9678C40.621 11.9678 40.7094 12.0058 40.7726 12.0943C40.7978 12.1449 40.7726 12.2082 40.7347 12.2588C40.6842 12.3094 40.6084 12.3347 40.5327 12.322C40.4569 12.322 40.3811 12.2841 40.3306 12.2335C40.3054 12.1955 40.2549 12.1829 40.217 12.1955C40.1665 12.2208 40.1665 12.2841 40.1665 12.3094C40.2422 12.4232 40.3685 12.4991 40.52 12.4865C40.6463 12.4991 40.7726 12.4612 40.861 12.3726C40.9241 12.3094 40.9493 12.2208 40.9493 12.1323C40.962 12.0437 40.9115 11.9425 40.8357 11.8919C40.7221 11.8286 40.5958 11.7907 40.4695 11.778C40.3938 11.7654 40.3433 11.6895 40.3559 11.6136C40.3811 11.5124 40.4695 11.4618 40.5453 11.4744C40.621 11.4744 40.7094 11.4997 40.7599 11.563C40.8105 11.6136 40.8862 11.563 40.8862 11.5124C40.8862 11.4618 40.8105 11.3099 40.5832 11.3099ZM41.1135 11.3099C41.0756 11.3099 41.0377 11.3479 41.0377 11.3859V11.3985C41.0377 11.4365 41.0756 11.4744 41.1135 11.4744H41.2777V12.3979C41.2777 12.4485 41.3155 12.4865 41.3534 12.4865C41.4039 12.4865 41.4418 12.4359 41.4418 12.3979V11.4744H41.6059C41.6438 11.4744 41.6817 11.4365 41.6817 11.3985C41.6817 11.3606 41.6565 11.3099 41.6186 11.3099H41.6059H41.1135ZM46.3537 11.3099L46.2906 11.3479C46.2779 11.3606 46.2653 11.3859 46.2653 11.3985V12.3853C46.2653 12.4359 46.2906 12.4612 46.3284 12.4738H46.3411C46.3916 12.4738 46.4295 12.4359 46.4295 12.3979V12.0817H46.5936L46.8462 12.4232C46.8714 12.4612 46.8967 12.4738 46.9219 12.4738C46.9724 12.4738 46.9977 12.4359 46.9977 12.4106C46.9977 12.3853 46.9851 12.3473 46.9598 12.3347L46.7578 12.0564H46.783C46.8462 12.0311 46.8967 11.9931 46.9472 11.9425C47.0229 11.8792 47.0608 11.778 47.0482 11.6768C47.0482 11.563 46.9851 11.4618 46.8967 11.3985C46.8083 11.3479 46.7199 11.3226 46.6189 11.3226C46.6062 11.3099 46.3537 11.3099 46.3537 11.3099ZM41.8964 11.3099C41.8585 11.3099 41.8206 11.3479 41.8206 11.3859V11.3985V11.9931C41.8206 12.107 41.8459 12.2461 41.8964 12.3473C41.9721 12.4485 42.0858 12.4991 42.212 12.4865C42.3257 12.5118 42.4393 12.4485 42.5151 12.3473C42.5656 12.2335 42.6035 12.1196 42.5909 11.9931V11.3985C42.5909 11.3606 42.553 11.3226 42.5151 11.3226H42.5025C42.4646 11.3226 42.4267 11.3606 42.4267 11.3985V12.0311C42.4267 12.107 42.4141 12.1829 42.3762 12.2461C42.3383 12.2967 42.2752 12.322 42.212 12.3094C42.1489 12.322 42.0858 12.2967 42.0479 12.2461C42.01 12.1829 41.9848 12.107 41.9974 12.0311V11.3985C41.9848 11.3479 41.9469 11.3099 41.8964 11.3099ZM46.4168 11.4744H46.6315C46.6946 11.4744 46.7578 11.4871 46.7956 11.525C46.8462 11.5756 46.8588 11.6136 46.8588 11.6768C46.8588 11.816 46.7451 11.9172 46.6062 11.9172H46.4295L46.4168 11.4744ZM45.6213 11.4871L45.8234 12.1196H45.4446L45.6213 11.4871ZM44.043 12.866C43.9293 12.904 43.8157 12.9293 43.7273 12.9925C43.6515 13.0558 43.5884 13.1317 43.5379 13.2202C43.5253 13.2329 43.5126 13.2455 43.4874 13.2582L43.4242 13.2708L43.1843 13.3847C43.1086 13.4227 43.0328 13.4733 42.957 13.4986C42.8939 13.5239 42.8434 13.5365 42.7803 13.5492C42.6414 13.5239 42.4898 13.5365 42.4393 13.6883C42.4393 13.7263 42.452 13.7516 42.4898 13.7642C42.5151 13.7769 42.5277 13.7895 42.553 13.8022L42.6287 13.8401C42.654 13.8401 42.6666 13.8401 42.6792 13.8654L42.6919 13.8907V13.9034C42.6919 13.9287 42.654 13.954 42.6414 13.954C42.5656 13.9666 42.5025 13.954 42.4393 13.916H42.4267C42.4014 13.8907 42.3636 13.8907 42.3383 13.916C42.1994 14.0299 42.0605 14.1438 41.909 14.2323L41.8585 14.2829L41.8459 14.3082V14.3462C41.8459 14.3841 41.808 14.3968 41.7827 14.3968C41.7575 14.4094 41.7322 14.4347 41.7322 14.46V14.5233C41.7448 14.5739 41.7827 14.5992 41.8459 14.5992H41.8711L41.9848 14.5486H42.0353L42.0479 14.5612V14.6118C42.0353 14.6371 42.0226 14.6625 41.9974 14.6751C41.9721 14.7131 41.9595 14.7384 41.9974 14.7637C42.0479 14.8143 42.1237 14.8016 42.1615 14.751C42.1868 14.7257 42.1994 14.6878 42.212 14.6624C42.2247 14.6245 42.2499 14.5992 42.2878 14.5992C42.3509 14.5739 42.4267 14.5612 42.4898 14.5486C42.5403 14.5486 42.5909 14.5486 42.6287 14.5865L42.6666 14.6245V14.6498C42.654 14.7004 42.6414 14.7384 42.6161 14.789L42.5782 14.9028L42.5403 15.004L42.4898 15.0546L42.2878 15.2191C42.1742 15.3203 42.0984 15.4215 42.01 15.5607C41.9848 15.5986 41.9721 15.6366 41.9595 15.6745C41.9343 15.7884 41.909 15.9275 41.7954 15.839C41.6817 15.7884 41.5681 15.6998 41.4544 15.6113C41.4165 15.586 41.366 15.548 41.3408 15.4974C41.2271 15.333 41.0882 15.4974 41.0251 15.6113C40.8988 15.8263 40.7473 16.0288 40.5832 16.2185C40.5705 16.2691 40.5453 16.3071 40.52 16.345C40.4821 16.3956 40.4569 16.4589 40.4695 16.5221C40.4695 16.636 40.4316 16.7372 40.3811 16.8258C40.3306 16.8764 40.3054 16.9396 40.3054 17.0029V17.18C40.3054 17.2306 40.3306 17.2559 40.3685 17.2559H40.4064C40.4948 17.2179 40.5832 17.1673 40.6716 17.0914L40.7094 17.0661C40.7347 17.0408 40.7347 17.0029 40.7221 16.9776L40.7094 16.9523L40.6842 16.927C40.6716 16.9143 40.6463 16.9017 40.6337 16.8764V16.8005L40.6589 16.7246C40.6589 16.6993 40.6716 16.6613 40.6968 16.6486L40.8357 16.5348C40.8862 16.4842 40.9115 16.3956 40.8862 16.3324V16.2438C40.8862 16.2059 40.8988 16.1932 40.9241 16.1553L41.0125 16.0414C41.0504 15.9781 41.1135 15.9275 41.1766 15.9022C41.2776 15.9022 41.366 15.9275 41.4418 15.9908C41.5049 16.0794 41.5554 16.1932 41.5933 16.3071C41.6186 16.4083 41.6565 16.4968 41.707 16.5854C41.7575 16.636 41.8206 16.674 41.8837 16.636L41.9216 16.6107L41.9469 16.598C41.9721 16.598 41.9974 16.598 42.01 16.636L42.1237 16.7499C42.1742 16.7878 42.1363 16.8131 42.0858 16.8131H41.909C41.7196 16.8764 41.5049 16.9143 41.3029 16.9143H41.265C41.2271 16.9143 41.2145 16.9396 41.2145 16.9649L41.2019 16.9902L41.1766 17.0408C41.164 17.0914 41.164 17.142 41.1766 17.1926C41.2524 17.471 41.2903 17.7619 41.2271 18.0529C41.2019 18.1668 41.2271 18.2806 41.3029 18.3565L41.3913 18.4071L41.4418 18.4324C41.4671 18.4704 41.4797 18.4957 41.4797 18.5463C41.4797 18.5969 41.5176 18.6601 41.5428 18.6981C41.5933 18.7614 41.6565 18.812 41.7322 18.8626H41.7575C41.808 18.8879 41.8459 18.8626 41.8711 18.8246C41.909 18.7361 41.9343 18.6348 41.9216 18.5336C41.9216 18.483 41.8837 18.4451 41.8332 18.4324L41.7827 18.4451L41.7448 18.4577H41.6943C41.6691 18.4451 41.6565 18.4198 41.6438 18.3945C41.6186 18.3312 41.6186 18.268 41.6312 18.2047V18.1668L41.6438 18.0782C41.6438 18.0529 41.6438 18.0276 41.6186 18.0023C41.5933 17.9517 41.5933 17.939 41.5554 17.9264C41.5302 17.9264 41.5176 17.9137 41.5049 17.8884C41.4797 17.8631 41.4797 17.8505 41.4923 17.8378C41.5176 17.6987 41.5176 17.5595 41.5049 17.4204C41.5049 17.3698 41.5049 17.3318 41.5302 17.3065C41.6312 17.2179 41.7954 17.2812 41.8837 17.3191C42.0226 17.3698 42.1489 17.3951 42.2752 17.4204C42.5025 17.4457 42.7298 17.3824 42.9065 17.2559C42.9192 17.2432 42.9192 17.2306 42.9444 17.2432L43.1338 17.3824C43.298 17.4963 43.4747 17.5722 43.6515 17.6354C43.9041 17.6607 44.144 17.6607 44.4091 17.6228C44.4597 17.6228 44.5354 17.6354 44.5859 17.6607L44.6112 17.6987C44.6112 17.7999 44.5607 17.8758 44.5607 17.977C44.5607 18.0276 44.5859 18.0782 44.6112 18.1288L44.6617 18.268L44.6996 18.3186C44.8385 18.4957 44.8511 18.7614 44.6996 18.9385C44.6112 19.027 44.5102 19.1156 44.3965 19.1915C44.2955 19.2674 44.1692 19.318 44.043 19.3306C43.9546 19.3306 43.8788 19.3686 43.8157 19.4319C43.7399 19.5078 43.6641 19.571 43.5758 19.609C43.5379 19.6216 43.5 19.6596 43.5 19.6975C43.4495 19.7987 43.4242 19.8999 43.399 20.0138C43.3864 20.0644 43.4369 20.0897 43.4874 20.0897C43.5758 20.0771 43.6641 20.0391 43.7652 20.0138C43.8157 20.0138 43.8409 19.9505 43.8283 19.8999L43.8157 19.8873L43.7778 19.8114V19.7481C43.803 19.7355 43.8157 19.7102 43.8409 19.6975C43.8662 19.6722 43.9041 19.6722 43.9293 19.6722H43.9798C44.1061 19.7228 44.2576 19.6722 44.3081 19.5457C44.3334 19.5078 44.3586 19.4698 44.3839 19.4445C44.6238 19.2927 44.8763 19.1662 45.1541 19.065C45.1794 19.065 45.2046 19.0397 45.2046 19.0144V18.6222C45.2046 18.5589 45.2299 18.4451 45.3183 18.4451C45.3562 18.4451 45.3814 18.4704 45.394 18.4957C45.4824 18.6095 45.5961 18.6855 45.735 18.7361L45.8486 18.7867C45.9496 18.8373 46.0128 18.9258 46.0254 19.0397C46.038 19.1029 46.0254 19.1535 45.9875 19.2041L45.7224 19.5837C45.6845 19.6469 45.634 19.7102 45.5582 19.7481C45.3814 19.862 45.2299 20.0011 45.0784 20.153L44.9521 20.5451C44.9268 20.621 44.9774 20.6463 45.0405 20.621C45.1541 20.5957 45.2425 20.5578 45.3309 20.5072L45.3814 20.4692C45.3941 20.4566 45.394 20.4313 45.394 20.4186C45.394 20.3807 45.3688 20.3427 45.3435 20.3174C45.3183 20.2795 45.3183 20.2289 45.3435 20.1909C45.3562 20.1656 45.3814 20.153 45.394 20.1403L45.6213 20.0771C45.7097 20.0644 45.7981 20.0265 45.8739 19.9632C45.8865 19.9379 45.8991 19.9252 45.9118 19.8999V19.8746C46.0001 19.5837 46.2022 19.3053 46.48 19.1662C46.5179 19.1535 46.5305 19.1156 46.5305 19.0776L46.5179 18.9638L46.3158 18.6475C46.2527 18.5589 46.2148 18.4704 46.2022 18.3692C46.2022 18.2553 46.2274 18.1541 46.2779 18.0656L46.3284 17.9896C46.3663 17.9137 46.4421 17.8758 46.4926 17.7999C46.5431 17.7366 46.6062 17.6607 46.6441 17.5722L46.7578 17.2685C46.783 17.18 46.7451 17.0914 46.7451 17.0029C46.7451 16.9649 46.7704 16.9523 46.783 16.9143C46.8209 16.8637 46.8714 16.8258 46.9345 16.8005C46.9977 16.7878 47.0608 16.7878 47.1113 16.8131L47.4017 16.927C47.4523 16.927 47.5154 16.927 47.5659 16.9017C47.6164 16.889 47.6795 16.8511 47.73 16.8131V16.7625H47.5911C47.5406 16.7499 47.5028 16.7246 47.4775 16.6866C47.4522 16.6486 47.427 16.6107 47.427 16.5727L47.4649 16.5095C47.5406 16.4589 47.6038 16.3956 47.6417 16.3324C47.6795 16.2565 47.6922 16.1806 47.6922 16.1047H47.6543C47.6038 16.1553 47.5911 16.2185 47.528 16.2565C47.4775 16.2944 47.4144 16.3071 47.3639 16.3071C47.326 16.3071 47.2881 16.2944 47.2502 16.2565C47.225 16.2185 47.2123 16.1806 47.1997 16.1426C47.1871 16.092 47.2502 16.0794 47.2755 16.0667C47.3512 16.0667 47.427 16.0414 47.5028 16.0161C47.5533 15.9908 47.5785 15.9528 47.6038 15.9022C47.6164 15.8643 47.629 15.8263 47.629 15.7884C47.629 15.7631 47.629 15.7504 47.6164 15.7631C47.5659 15.7631 47.5406 15.801 47.5028 15.8137C47.4396 15.839 47.3639 15.8263 47.3007 15.801C47.2376 15.7504 47.1871 15.6872 47.1492 15.6239V15.4848C47.225 15.4848 47.2881 15.4089 47.326 15.3203L47.3512 15.2697L47.4017 15.2064C47.4144 15.1558 47.4144 15.1052 47.4144 15.0546C47.4144 15.0167 47.3891 14.9661 47.3639 14.9408H47.3134C47.2881 14.9914 47.3134 15.0546 47.2628 15.1052C47.225 15.1558 47.1871 15.2064 47.1366 15.2444C47.0987 15.2697 47.0734 15.295 47.0482 15.295C46.985 15.2697 46.9472 15.2191 46.9345 15.1558C46.9345 15.1052 46.9598 15.0293 46.985 14.9787L47.1997 14.6371L47.3765 14.4347C47.4144 14.3841 47.427 14.2703 47.3891 14.245C47.3386 14.2323 47.3134 14.3462 47.2755 14.3715C47.0987 14.4347 46.9345 14.5233 46.783 14.6371C46.7073 14.7257 46.6694 14.8269 46.6315 14.9408C46.6062 15.004 46.6189 15.0926 46.5936 15.1558C46.5936 15.1811 46.5431 15.2064 46.5179 15.1938C46.4673 15.1432 46.4295 15.0673 46.4042 15.004C46.3916 14.9534 46.3916 14.9028 46.4042 14.8396C46.4168 14.8143 46.4042 14.8016 46.3916 14.8143C46.3158 14.8522 46.2779 14.9155 46.2401 14.9787C46.2148 15.0799 46.2148 15.1811 46.2653 15.2697C46.3411 15.4215 46.4295 15.548 46.5431 15.6745C46.6189 15.7884 46.7073 15.9275 46.7704 16.0414C46.8335 16.13 46.8588 16.2565 46.8462 16.383C46.8083 16.4968 46.7578 16.6107 46.6694 16.6866C46.6694 16.6866 46.6315 16.7119 46.6189 16.6993C46.5305 16.6107 46.4295 16.5348 46.3284 16.4589C46.2022 16.383 46.0759 16.3197 45.937 16.2944C45.7602 16.2691 45.5708 16.2691 45.394 16.2944C45.2046 16.2944 45.0152 16.3324 44.8258 16.3197C44.6743 16.3324 44.5228 16.3197 44.3713 16.2691C44.2702 16.2185 44.1819 16.1426 44.1187 16.0414C44.0682 15.9402 44.043 15.8137 44.0682 15.6998C44.0682 15.5986 44.1061 15.5101 44.144 15.4215C44.1819 15.3456 44.245 15.2823 44.3081 15.2444C44.3965 15.1938 44.4975 15.1811 44.5859 15.2064L44.6996 15.2823C44.7374 15.3203 44.7753 15.3583 44.8132 15.3962L44.8511 15.3836C44.8637 15.257 44.8385 15.1305 44.8006 15.004C44.7627 14.9155 44.6996 14.8269 44.6364 14.7384C44.6364 14.7131 44.6869 14.7257 44.6996 14.7131C44.8006 14.7131 44.9016 14.7384 44.9774 14.8016C45.0279 14.8396 45.091 14.8775 45.1289 14.9534L45.1415 14.9408C45.1541 14.789 45.091 14.6371 44.99 14.5233C44.9521 14.46 44.889 14.3968 44.8258 14.3588C44.7753 14.3462 44.8511 14.3082 44.889 14.3082C44.9647 14.2956 45.0531 14.3082 45.1163 14.3462L45.192 14.3968L45.2425 14.4474C45.2552 14.4474 45.2804 14.4221 45.2678 14.4094C45.2552 14.3588 45.2425 14.3209 45.2173 14.2829C45.1036 14.1691 44.9774 14.0552 44.8385 13.954L44.788 13.916C44.7501 13.8654 44.7122 13.8022 44.6996 13.7516L44.6491 13.6757V13.5871C44.6996 13.5112 44.7248 13.4986 44.8132 13.4606C44.8763 13.4353 44.9395 13.4227 45.0026 13.41L45.0657 13.4353C45.0657 13.4353 45.0784 13.3974 45.0531 13.3847C44.9774 13.3341 44.8763 13.3088 44.7753 13.3088C44.6491 13.2835 44.5228 13.2961 44.3965 13.3341C44.3081 13.3847 44.2071 13.41 44.1187 13.41C44.0556 13.41 43.9798 13.41 43.9293 13.3721C43.8914 13.3468 43.8536 13.3088 43.8536 13.2582C43.8536 13.1949 43.8662 13.1064 43.9041 13.0431C43.9293 12.9925 43.9798 12.9546 44.0303 12.9293C44.0808 12.9293 44.0935 12.904 44.0808 12.8787C44.1061 12.8407 44.0682 12.8534 44.043 12.866ZM43.5505 13.6124C43.6136 13.6124 43.6642 13.6377 43.7147 13.6757C43.8662 13.8022 43.9419 13.9793 43.9672 14.1691C44.0051 14.4221 44.0177 14.6878 43.9672 14.9408C43.9672 15.0293 43.9293 15.1052 43.8536 15.1432C43.8157 15.1558 43.7778 15.1685 43.7399 15.1685C43.702 15.1685 43.6894 15.1052 43.6894 15.004V14.3082C43.6641 14.1564 43.6263 14.0046 43.5505 13.8528C43.5505 13.8148 43.5253 13.8022 43.5 13.7769L43.4495 13.7136C43.4242 13.6883 43.3864 13.6757 43.3611 13.6504L43.3737 13.6124C43.4369 13.5998 43.5 13.5871 43.5505 13.6124ZM48.9675 13.7389H55.9628L55.8997 16.8005H48.9675V13.7389ZM48.9801 17.2053H55.8997C55.8366 18.5463 55.584 19.8746 55.1421 21.1397C54.6118 22.6325 53.9046 24.0368 53.0334 25.3652C51.7707 27.2628 50.1292 28.8821 48.2099 30.1346C47.3639 30.6532 46.48 31.096 45.5582 31.5009C45.2678 31.6274 44.99 31.7539 44.7627 31.8298C44.4975 31.9057 44.2702 31.9942 44.1187 32.0322V22C44.2702 22 44.3965 22 44.548 21.9747L44.5985 22.1139C44.6617 22.2277 44.7627 22.3036 44.889 22.3416C45.0531 22.3669 45.2046 22.3036 45.3057 22.1898C45.4572 22.3036 45.6466 22.3542 45.8234 22.2783C45.9623 22.2404 46.0633 22.1139 46.0633 21.9747C46.0759 21.8735 46.0633 21.7849 46.0128 21.6964L45.9623 21.6205C46.3284 21.456 46.6567 21.2789 46.9724 21.0512H47.0103C47.5028 20.9247 49.5357 20.1909 50.7858 20.1783C51.556 20.1656 52.3136 20.3427 52.9829 20.7096C53.3491 20.9247 53.6774 21.1903 53.9552 21.5193L54.0057 21.4813C54.0814 21.2536 54.1319 21.0259 54.1193 20.7729C54.0814 20.3933 53.7026 20.115 53.589 20.0012C53.589 20.0012 53.589 19.9758 53.6268 19.9505C53.6647 19.9126 53.7152 19.8746 53.7657 19.8367C53.993 19.6722 54.2582 19.5584 54.536 19.5584C54.5739 19.5584 54.5612 19.5078 54.5486 19.4445C54.4729 19.1156 53.9804 18.9005 53.488 18.9638C53.147 19.027 52.8566 19.2421 52.6672 19.5331C52.6546 19.5584 52.6041 19.5837 52.5914 19.5584C52.4273 19.4951 52.2631 19.4445 52.099 19.4066C52.0485 19.3939 52.0737 19.3433 52.0737 19.3433C52.1747 19.1662 52.301 19.0017 52.4778 18.8879C52.6672 18.7361 52.9071 18.6222 53.1596 18.5842C53.1849 18.5842 53.1849 18.5463 53.1596 18.5336C53.0713 18.3312 52.8819 18.1794 52.6672 18.1288C52.3136 18.0149 51.9096 18.0782 51.6192 18.3059C51.3414 18.5463 51.1267 18.8752 51.0131 19.2168C51.0004 19.2547 50.9878 19.2674 50.9626 19.2674C50.8237 19.2294 50.4954 19.2547 50.4701 19.2294C50.4448 19.2294 50.4448 19.1788 50.4575 19.1662C50.508 18.9764 50.6216 18.7993 50.7479 18.6601C50.8868 18.4957 51.0509 18.3565 51.2403 18.2806L51.2656 18.2553C51.2909 18.2174 51.2909 18.1668 51.253 18.1415C50.6848 17.8631 50.0029 18.0149 49.5988 18.5083C49.4094 18.7867 49.2705 19.1156 49.1948 19.4445C49.1948 19.4572 49.1695 19.4951 49.1443 19.4951L48.4624 19.6596L48.3488 19.6849L48.3235 19.6596C48.7276 18.9891 48.9549 18.23 48.9801 17.433C48.9801 17.4457 48.9801 17.2053 48.9801 17.2053ZM39.6109 18.3059C39.6488 18.4577 39.7245 18.5969 39.775 18.7487L39.6109 18.3059ZM40.3811 19.9126C41.2776 21.0385 42.6161 21.6964 44.043 21.7217C45.1415 21.709 46.2022 21.3042 47.0356 20.5831C46.2022 21.2915 45.1415 21.6837 44.043 21.6964C42.6287 21.6837 41.2776 21.0259 40.3811 19.9126ZM32.6913 20.621H40.621L40.7852 20.7602C41.6059 21.4687 42.6414 21.8988 43.7147 21.9873V23.6193H33.954C33.4363 22.6452 33.0196 21.6458 32.6913 20.621ZM49.2327 21.2662C49.0306 21.2915 48.8412 21.3548 48.6644 21.4687C48.4372 21.6078 48.2477 21.7976 48.1341 22.038C47.9952 22.3795 47.9321 22.7211 47.9068 23.0753L47.8563 23.1259L47.4017 23.2398C47.4017 23.2398 47.3765 23.2398 47.3639 23.2145C47.3134 22.8729 47.3891 22.5313 47.5659 22.2404C47.6417 22.1012 47.7427 21.9747 47.8563 21.8735C47.8816 21.8608 47.8942 21.8229 47.8816 21.8102L47.8311 21.7849C47.5406 21.7343 47.225 21.7849 46.9598 21.9494C46.6189 22.1265 46.3916 22.4681 46.3537 22.8603C46.3158 23.1259 46.3411 23.3916 46.4042 23.6573C46.4042 23.6699 46.4042 23.6952 46.379 23.7079L45.8865 23.9482H45.8612C45.8107 23.7458 45.6845 23.5687 45.4951 23.4549C45.293 23.3663 45.0784 23.379 44.889 23.4802C44.7627 23.5561 44.6617 23.6573 44.6112 23.7838C44.5102 24.0115 44.5859 24.2645 44.7753 24.391C44.7753 24.4037 44.8006 24.429 44.7753 24.4416C44.6491 24.4922 44.6491 24.5175 44.548 24.6567C44.4597 24.8591 44.4849 25.0995 44.6238 25.2639C44.8132 25.5549 45.2046 25.6308 45.4824 25.4411C45.5077 25.4284 45.5329 25.4031 45.5582 25.3778C45.5582 25.3778 45.5835 25.3778 45.5961 25.4031C45.6466 25.479 45.7097 25.5549 45.7855 25.6055C45.9749 25.7194 46.2148 25.7194 46.3916 25.6055C46.5936 25.4917 46.7073 25.2639 46.6694 25.0362C46.6694 24.9097 46.6189 24.7832 46.5179 24.6946C46.5052 24.6693 46.5179 24.6567 46.5684 24.6314C47.3891 24.1633 48.2856 23.847 49.2327 23.7205C49.7125 23.6573 50.2049 23.6699 50.6848 23.7585C50.9878 23.8217 51.2909 23.9735 51.5308 24.176C51.7328 24.3404 51.9096 24.5175 52.0864 24.72C52.1369 24.72 52.2 24.72 52.2505 24.682C52.3515 24.4543 52.3642 24.2013 52.2631 23.9735C52.1495 23.6699 51.9727 23.4043 51.7454 23.1765V23.1512C51.7454 23.1006 51.7707 23.088 51.8086 23.0374C52.0232 22.8476 52.2884 22.6958 52.5662 22.6452C52.6041 22.6452 52.6167 22.6072 52.6041 22.5819C52.402 22.1771 51.9222 22 51.5055 22.1645C51.2403 22.2783 51.0131 22.4807 50.8994 22.7338C50.8868 22.7591 50.8615 22.797 50.8489 22.7844L50.3943 22.7338C50.3438 22.7338 50.3565 22.6831 50.3691 22.6831C50.4196 22.5187 50.508 22.3669 50.6343 22.253C50.7984 22.0633 51.0131 21.9114 51.2403 21.8229C51.2656 21.8229 51.2656 21.7976 51.2656 21.7849C51.1141 21.5952 50.8742 21.4813 50.6343 21.4687C50.3312 21.456 50.0282 21.5699 49.8135 21.7849C49.5483 22.0633 49.3968 22.4175 49.3589 22.797C49.3337 22.8223 49.321 22.8476 49.3084 22.8476C49.1948 22.8729 49.0559 22.8729 48.9296 22.8856C48.9044 22.8856 48.9044 22.8476 48.9044 22.835C48.9044 22.6452 48.9549 22.4554 49.0433 22.291C49.2074 21.962 49.4726 21.6837 49.7882 21.494C49.8388 21.456 49.8388 21.3801 49.8261 21.3801C49.6493 21.2789 49.4347 21.2409 49.2327 21.2662ZM47.7427 25.5676C47.6164 25.5676 47.4901 25.6055 47.3891 25.6814C47.0861 25.8332 46.8588 26.0989 46.7451 26.4278C46.6946 26.6809 46.6946 26.9465 46.7704 27.1995V27.2375L46.48 27.3767H46.4421C46.2653 27.0477 46.3032 26.6555 46.5557 26.3772C46.581 26.3519 46.5936 26.3266 46.5431 26.314C46.2779 26.276 46.0128 26.3772 45.836 26.5796C45.6213 26.8327 45.5582 27.1742 45.6718 27.4905C45.6971 27.6044 45.735 27.7182 45.8107 27.8321C45.8107 27.8321 45.8612 27.87 45.8234 27.8827L45.634 28.0472H45.5961C45.5203 27.8827 45.3688 27.7688 45.2046 27.7182C45.0531 27.6803 44.9016 27.7309 44.788 27.8321C44.5985 28.0219 44.5859 28.3255 44.7753 28.5279L44.788 28.5405C44.8385 28.5911 44.9016 28.6291 44.9774 28.6544C44.99 28.6544 45.0026 28.6797 44.99 28.6924C44.8763 28.7683 44.788 28.8568 44.7248 28.9707C44.6491 29.1604 44.6869 29.3755 44.8385 29.5273C44.9521 29.6159 45.091 29.6665 45.2299 29.6412C45.4446 29.5779 45.6087 29.4135 45.7224 29.2237C45.7224 29.2237 45.7476 29.1984 45.7602 29.2237C45.8486 29.3376 45.9749 29.4261 46.1264 29.4894C46.2779 29.5526 46.4421 29.5147 46.5557 29.4008C46.7199 29.2869 46.783 29.0592 46.7073 28.8568C46.6441 28.743 46.5557 28.6417 46.4421 28.5785C46.4168 28.5532 46.4421 28.5279 46.4673 28.5026C47.0103 28.0598 47.6669 27.7688 48.374 27.6676C48.8412 27.6044 49.321 27.6803 49.7504 27.8953C49.9145 27.9839 50.066 28.1104 50.2049 28.2496C50.2176 28.2496 50.2681 28.2749 50.2807 28.2496C50.4954 28.0725 50.508 27.7435 50.3312 27.5285C50.2554 27.4399 50.1671 27.364 50.0534 27.3007L50.0408 27.2754C50.1797 26.9212 50.4701 26.6429 50.8489 26.5543C50.8868 26.5543 50.8742 26.529 50.8489 26.4911C50.6974 26.1116 50.0155 26.0989 49.6999 26.3013C49.4978 26.4405 49.3337 26.6176 49.22 26.8327C49.22 26.858 49.2074 26.8833 49.1821 26.8833L48.9044 26.7947V26.7568C49.0938 26.3772 49.4347 26.0989 49.8388 25.9977C49.864 25.985 49.8514 25.9597 49.8388 25.9471C49.6999 25.5802 48.9549 25.6055 48.5887 25.8459C48.2478 26.0736 47.9952 26.4152 47.9068 26.82V26.8706C47.7932 26.9086 47.7048 26.9339 47.5911 26.9465C47.5785 26.9465 47.5659 26.9339 47.5659 26.9086C47.5406 26.7315 47.5659 26.5417 47.6543 26.3899C47.7679 26.1875 47.9321 25.9977 48.0962 25.8206C48.1215 25.7953 48.1215 25.7573 48.0962 25.7447C47.9826 25.6182 47.8689 25.5802 47.7427 25.5676ZM36.5173 27.3387H43.6894V31.9816C43.5505 31.931 43.399 31.8677 43.2222 31.8171C42.9823 31.7412 42.7298 31.6021 42.4141 31.4756C40.8862 30.881 39.472 30.046 38.2219 28.9833C37.6158 28.4773 37.0476 27.9333 36.5173 27.3387ZM63.2234 38.0034V43.9747H64.5366V41.7355H72.5042V43.9747H73.83V38.0034H72.5168V40.4324H64.5492V38.0034H63.2234ZM14.0917 38.0034C13.3594 38.0034 12.7659 38.598 12.7533 39.3318V42.6716C12.7533 43.4054 13.3594 43.9873 14.0917 43.9873H22.4634C23.1958 43.9873 23.7766 43.3928 23.7766 42.6716V39.3318C23.7766 38.6233 23.2084 38.0288 22.4887 38.0161L14.0917 38.0034ZM25.3676 38.0034V43.9747H26.6682V42.3933H33.9792C34.699 42.3933 35.2925 43.0006 35.2925 43.7217V43.962H36.6183V43.9494C36.6183 43.0891 36.1258 42.3048 35.343 41.9252C36.0501 41.8999 36.6057 41.318 36.6057 40.6095V39.3191C36.6057 38.5854 36.0122 38.0034 35.2798 38.0034H25.3676ZM0 38.0161V43.9873H1.31321V42.406H9.89956C10.6319 42.406 11.2254 41.8114 11.2254 41.0903V39.3318C11.2254 38.598 10.6193 38.0161 9.89956 38.0161H0.0252541H0ZM52.2505 38.0161C51.5181 38.0161 50.912 38.6107 50.912 39.3318V42.6716C50.912 43.3928 51.4929 44 52.2126 44H61.7208V42.6843H52.402C52.3136 42.6843 52.2379 42.621 52.2379 42.5198V39.5089C52.2379 39.3951 52.3389 39.3318 52.4525 39.3318H61.7208V38.0034L52.2505 38.0161ZM75.3705 38.0161V43.9873H87V42.8741H76.6964V41.571H87V40.4451H76.6964V39.142H87V38.0161H75.3705ZM39.4215 38.0161C38.7017 38.0414 38.1209 38.6233 38.1209 39.3571V40.2427C38.1209 40.9764 38.727 41.571 39.4594 41.571H47.8184C47.9321 41.571 48.0331 41.6596 48.0457 41.7734V42.6843C48.0457 42.7982 47.9447 42.8741 47.8184 42.8741H38.3103V44H48.0457C48.7655 44 49.3589 43.3928 49.3589 42.6716V41.7734C49.3589 41.0523 48.7528 40.4451 48.0331 40.4451H39.6614C39.5477 40.4577 39.4467 40.3692 39.4467 40.2553V39.3445C39.4467 39.2306 39.5477 39.142 39.6614 39.142H49.1443V38.0288L39.4215 38.0161ZM26.6808 39.3191H35.0652C35.1914 39.3318 35.2925 39.433 35.2925 39.5469V40.8626C35.2925 40.9764 35.2041 41.0776 35.0904 41.0903H26.6808V39.3191ZM1.31321 39.3191L9.6849 39.3318C9.79855 39.3318 9.91219 39.4457 9.91219 39.5595V40.8626C9.91219 40.9764 9.8238 41.0776 9.71016 41.0903H1.33846V39.3191H1.31321ZM14.3064 39.3318H22.2614C22.375 39.3318 22.4887 39.433 22.4887 39.5595V42.4566C22.4887 42.5831 22.4003 42.6716 22.274 42.6843H14.2559C14.1675 42.6843 14.0917 42.6084 14.0917 42.5198V39.5089C14.1044 39.3951 14.2054 39.3191 14.3064 39.3318Z" fill="black"/>
</svg>
