<svg width="104" height="87" viewBox="0 0 104 87" fill="none" xmlns="http://www.w3.org/2000/svg">
<g clip-path="url(#clip0_1419_6824)">
<path fill-rule="evenodd" clip-rule="evenodd" d="M7.89102 21.4917C3.93916 22.1924 1.00628 24.9948 0.170837 28.8684C-0.00112068 29.6656 0.000930381 31.7503 0.17441 32.5363C0.455735 33.8108 1.04598 35.1394 1.77853 36.1471C2.24167 36.7842 3.18906 37.7226 3.88814 38.2368C4.87484 38.9624 6.36968 39.5934 7.72559 39.8565C8.61152 40.0284 10.3451 40.0114 11.2447 39.822C13.1001 39.4312 14.6161 38.6433 15.9174 37.3935C17.3004 36.065 18.1504 34.5783 18.5961 32.7083C18.7504 32.0607 18.7697 31.8447 18.7721 30.736C18.7742 29.786 18.7469 29.3589 18.657 28.9339C17.9766 25.7162 15.8862 23.2215 12.869 22.0266C11.78 21.5953 11.009 21.4534 9.61126 21.4269C8.78036 21.4112 8.22783 21.432 7.89102 21.4917ZM29.1955 21.4917C27.1007 21.8632 25.497 22.6872 24.0327 24.1447C22.7139 25.4575 21.878 27.0015 21.4754 28.8684C21.304 29.6626 21.3061 31.7489 21.479 32.5346C22.1022 35.3668 23.9575 37.775 26.4497 38.9864C27.9442 39.7128 29.0884 39.974 30.7504 39.968C32.004 39.9634 32.7443 39.8451 33.8063 39.4792C35.1874 39.0034 36.2328 38.346 37.3399 37.2571C38.85 35.772 39.7076 34.0888 40.0191 31.9984C40.1573 31.0712 40.1141 29.6382 39.9218 28.7701C39.5259 26.9827 38.6517 25.39 37.3701 24.1216C36.0421 22.8072 34.6004 22.0223 32.708 21.5835C31.9699 21.4123 29.942 21.3594 29.1955 21.4917ZM50.4998 21.4917C48.5174 21.8432 46.9335 22.6253 45.5201 23.9504C44.1895 25.1979 43.3222 26.6996 42.8431 28.5854C42.6766 29.2407 42.6629 29.396 42.6614 30.6377C42.6599 31.8088 42.6794 32.0683 42.8135 32.6617C43.6493 36.3585 46.5354 39.1193 50.3346 39.8565C51.2205 40.0284 52.9539 40.0114 53.8536 39.822C55.1145 39.5565 56.3652 39.0334 57.3809 38.3471C58.1622 37.8191 59.332 36.625 59.8805 35.796C60.9638 34.158 61.4847 32.2655 61.3987 30.2834C61.2127 26.0244 58.2837 22.5735 54.0151 21.5841C53.2742 21.4124 51.2481 21.3591 50.4998 21.4917ZM71.8046 21.4917C67.8683 22.1897 64.9328 24.9758 64.0856 28.8181C63.9149 29.5923 63.914 31.7474 64.0842 32.5381C64.6852 35.3318 66.4956 37.7008 68.9902 38.9588C69.7269 39.3303 70.7982 39.6933 71.639 39.8565C72.5253 40.0284 74.2588 40.0114 75.1584 39.822C76.4179 39.5567 77.6673 39.0345 78.6857 38.3477C79.3276 37.9146 80.6106 36.6423 81.0528 35.9997C81.7435 34.9963 82.2608 33.7963 82.5378 32.5521C82.7453 31.6215 82.7444 29.7725 82.5364 28.8233C81.7274 25.1353 79.0487 22.4484 75.3199 21.5841C74.579 21.4124 72.5524 21.3591 71.8046 21.4917ZM93.109 21.4956C89.2265 22.1542 86.2652 24.9481 85.3987 28.7701C85.2391 29.4747 85.1981 31.3743 85.326 32.1457C85.4783 33.0645 85.7278 33.8564 86.1221 34.6711C87.4534 37.4241 89.8684 39.2598 92.9438 39.8565C93.8296 40.0284 95.5631 40.0114 96.4628 39.822C98.2878 39.4376 99.7935 38.6591 101.1 37.4238C102.492 36.1082 103.414 34.4709 103.843 32.5521C104.049 31.6284 104.047 29.7784 103.839 28.8233C103.001 24.9705 100.052 22.1698 96.1273 21.4985C95.4159 21.3768 93.8186 21.3752 93.109 21.4956ZM8.68497 42.4769C6.86078 42.6562 5.11063 43.3052 3.78618 44.2933C3.05184 44.8412 2.05377 45.8751 1.58362 46.5748C0.527257 48.1471 0.00172435 49.8716 4.11278e-06 51.7711C-0.00224543 54.2945 0.918348 56.5324 2.69721 58.3284C4.00598 59.6498 5.58807 60.5075 7.49403 60.9293C8.44287 61.1393 10.3647 61.137 11.3236 60.9243C14.33 60.2574 16.6139 58.4751 17.9187 55.7776C18.5442 54.4849 18.8072 53.2979 18.8077 51.7665C18.808 50.3203 18.5403 49.1023 17.938 47.8105C17.1778 46.1803 15.7034 44.5935 14.116 43.6975C12.5135 42.7931 10.3695 42.3113 8.68497 42.4769ZM29.9895 42.4769C28.2784 42.6451 26.6693 43.2074 25.3581 44.0952C24.6972 44.5426 23.5506 45.6515 23.0817 46.2964C22.2676 47.4161 21.658 48.8468 21.419 50.1982C21.2656 51.066 21.2647 52.5381 21.4172 53.3762C21.7627 55.277 22.6353 56.9487 24.0017 58.3284C25.3105 59.6498 26.8926 60.5075 28.7985 60.9293C29.3132 61.0436 29.6548 61.0691 30.6842 61.0723C32.0765 61.0769 32.7375 60.9735 33.8852 60.5726C36.9646 59.4963 39.2637 56.8717 39.9595 53.6386C40.1296 52.8479 40.1288 50.6929 39.958 49.9186C39.1489 46.25 36.2908 43.4055 32.6687 42.6645C31.7506 42.4767 30.7232 42.4048 29.9895 42.4769ZM51.2941 42.4769C49.573 42.6461 47.9813 43.2023 46.6624 44.0952C46.0017 44.5426 44.8551 45.6515 44.3862 46.2964C42.6113 48.7379 42.1124 51.9387 43.0682 54.7528C43.8287 56.992 45.5494 58.9875 47.6302 60.0443C48.4037 60.4374 49.3779 60.7813 50.2021 60.9525C51.1197 61.1434 53.0073 61.1288 53.9327 60.9238C57.6938 60.0907 60.4378 57.3632 61.2606 53.6386C61.4345 52.8524 61.4364 50.769 61.2638 49.9691C60.7659 47.6602 59.5138 45.7007 57.6455 44.307C56.9552 43.792 55.8015 43.196 54.9838 42.9318C53.8122 42.5533 52.3497 42.373 51.2941 42.4769ZM72.5984 42.4725C70.7481 42.6899 69.3247 43.1873 67.9732 44.0887C67.2981 44.539 66.1523 45.656 65.6498 46.3538C64.3429 48.169 63.7156 50.457 63.9315 52.6247C64.1487 54.8133 65.0672 56.7852 66.5724 58.2942C67.6755 59.4007 68.7974 60.1039 70.2561 60.6041C71.3919 60.9935 71.9432 61.0769 73.3596 61.0732C74.4764 61.0705 74.6982 61.0509 75.3508 60.8988C76.2403 60.6915 77.2798 60.2971 77.983 59.8994C80.3124 58.5835 81.9764 56.3083 82.5645 53.6363C82.7375 52.8497 82.7398 50.764 82.5682 49.9691C81.738 46.1188 78.7814 43.2704 74.9177 42.5976C74.343 42.4975 73.0016 42.4251 72.5984 42.4725ZM93.9028 42.4724C92.5126 42.6362 91.3884 42.949 90.3829 43.452C87.7383 44.775 85.8561 47.2749 85.3283 50.1659C85.1709 51.0259 85.1732 52.6105 85.3325 53.4423C85.9767 56.808 88.3089 59.489 91.5605 60.6041C92.6962 60.9935 93.2475 61.0769 94.6639 61.0732C95.7812 61.0705 96.0026 61.0509 96.6551 60.8988C97.5451 60.6915 98.5842 60.2971 99.2873 59.8994C101.614 58.5853 103.282 56.3051 103.869 53.6363C104.042 52.8497 104.044 50.764 103.873 49.9691C102.938 45.6337 99.3472 42.6357 94.8954 42.4729C94.4771 42.4576 94.0303 42.4574 93.9028 42.4724ZM57.4075 64.3214C56.6045 64.3984 55.611 64.6038 54.8572 64.8475C51.1252 66.0555 48.2578 69.494 47.62 73.527C47.4696 74.4781 47.5137 76.2099 47.7162 77.2798C48.3715 80.7489 50.4506 83.557 53.4772 85.0606C54.3363 85.487 55.1582 85.7635 56.2465 85.9912C56.9971 86.1488 57.2226 86.1666 58.4397 86.167C59.5741 86.1675 59.9312 86.1429 60.6228 86.0163C63.8735 85.4219 66.427 83.711 67.918 81.1288C68.8066 79.5892 69.2976 77.7545 69.4025 75.5817L69.443 74.7395H64.2379H59.0329L59.0508 76.6563L59.0683 78.573L61.6982 78.5903C63.4446 78.6017 64.3281 78.6299 64.3281 78.6746C64.3281 78.7921 64.0571 79.2799 63.7653 79.688C63.2375 80.4264 62.4699 81.0026 61.5427 81.3565C60.7894 81.6444 60.308 81.7437 59.2961 81.8211C58.2322 81.9027 57.4591 81.8084 56.5769 81.4895C55.3027 81.0286 54.0446 80.0493 53.2623 78.9087C52.867 78.3329 52.4408 77.3937 52.2752 76.7341C52.0557 75.8623 52.069 74.494 52.3056 73.6122C52.9282 71.2878 54.6267 69.5377 56.8848 68.8941C57.3555 68.7602 57.5534 68.7438 58.6712 68.7452C59.7705 68.7465 59.9988 68.7657 60.4907 68.8973C62.0125 69.3036 63.1786 70.0055 63.925 70.9639C64.0829 71.1661 64.2398 71.3319 64.2738 71.3319C64.3369 71.3319 68.0399 69.709 68.0901 69.6594C68.126 69.6234 67.6018 68.7456 67.3469 68.4159C65.63 66.193 63.1653 64.7801 60.3251 64.3893C59.5796 64.2868 58.119 64.2526 57.4075 64.3214ZM9.84521 64.3952C6.55195 64.8133 3.70897 66.5155 1.875 69.1674C1.10724 70.2779 0.506416 71.6749 0.201735 73.0587C0.0754299 73.6327 0.0553165 73.9214 0.0553165 75.1654C0.0553165 76.4076 0.0754962 76.6986 0.20114 77.2694C0.578401 78.982 1.39446 80.666 2.46842 81.9478C4.29035 84.1223 6.93132 85.5804 9.85018 86.0231C10.1372 86.0668 10.908 86.1019 11.5631 86.1019C12.532 86.1015 12.8897 86.0741 13.4818 85.9552C14.4173 85.7676 15.2483 85.5335 15.996 85.2469L16.5915 85.0187L17.5508 86.0085L18.5102 86.9979L20.4289 86.5433C21.4842 86.2932 22.4965 86.0536 22.6784 86.0113C22.8604 85.9685 23.0524 85.9202 23.1051 85.9038C23.167 85.8842 22.5976 85.2761 21.4939 84.182L19.7869 82.4907L20.0948 82.0762C20.5526 81.4604 21.4737 79.5632 21.8132 78.5375C22.4163 76.7146 22.5602 75.1973 22.2878 73.5329C21.4137 68.1931 16.6739 64.2827 11.133 64.3296C10.6781 64.3337 10.0986 64.3633 9.84521 64.3952ZM23.5716 75.231V85.4865H25.9866H28.4016V75.231V64.9755H25.9866H23.5716V75.231ZM36.478 65.1231C36.4458 65.2041 35.6162 67.3199 34.6345 69.8247C33.6527 72.3295 31.8898 76.8266 30.7167 79.8179C29.5437 82.8096 28.5693 85.3084 28.5512 85.3717C28.5204 85.4797 28.6742 85.4865 31.1259 85.4865H33.7333L34.4947 83.6682L35.2562 81.8494H39.2849H43.3137L43.5233 82.3737C43.6386 82.662 43.9646 83.4805 44.2478 84.192L44.7628 85.4865H47.3711H49.9798L49.9329 85.339C49.9071 85.2579 49.3752 83.8499 48.7502 82.2101C48.1258 80.5699 46.3955 76.0222 44.9057 72.1036L42.1966 64.9787L39.3664 64.9768L36.5363 64.9755L36.478 65.1231ZM70.1503 75.231V85.4865H76.2707H82.3905V83.4878V81.4891H78.7188H75.0466V79.392V77.2953H78.7188H82.3905V75.1982V73.1011H78.7188H75.0466V71.0372V68.9729H78.7188H82.3905V66.9742V64.9755H76.2707H70.1503V75.231ZM84.177 75.2966V85.5521H86.4263H88.6757L88.6922 79.3145L88.7092 73.077L90.601 75.6938C91.6415 77.1332 93.3363 79.4758 94.368 80.8992C95.3993 82.3231 96.5732 83.9447 96.9763 84.5036L97.7094 85.5193L99.9748 85.5366L102.24 85.5535L102.223 75.3139L102.207 65.0739H99.8575H97.5087L97.4756 71.2869L97.4429 77.4998L92.9516 71.2705L88.4603 65.0411H86.3186H84.177V75.2966ZM10.383 68.6472C8.8094 68.8918 7.50599 69.5437 6.49471 70.5922C5.88129 71.2281 5.65277 71.5538 5.27584 72.3295C4.78699 73.3357 4.68939 73.798 4.69104 75.0998C4.69224 76.0878 4.71161 76.2846 4.86218 76.8366C5.42516 78.9005 6.83611 80.5335 8.73678 81.3206C9.54232 81.654 10.2198 81.7783 11.2322 81.7788C12.0963 81.7788 13.1727 81.6408 13.4336 81.4964C13.4959 81.4618 13.1382 81.0381 12.2116 80.0502C10.2187 77.9253 10.3034 78.0264 10.4846 77.9872C10.6232 77.9572 14.9997 77.2953 15.0592 77.2953C15.0733 77.2953 15.4534 77.7057 15.9039 78.2072C16.5741 78.9538 16.74 79.1055 16.8174 79.0431C16.9799 78.911 17.3576 78.025 17.5173 77.4015C17.8477 76.111 17.8772 75.0739 17.6175 73.8809C17.0501 71.2746 15.07 69.2572 12.5825 68.7516C11.9457 68.6222 10.8719 68.5712 10.383 68.6472ZM39.2349 70.6829C39.129 70.9621 37.5585 75.3585 36.964 77.0402C36.8034 77.4948 36.672 77.8856 36.672 77.9084C36.672 77.9316 37.8331 77.9503 39.2523 77.9503C41.2798 77.9503 41.8327 77.933 41.8327 77.8679C41.8327 77.8228 41.2728 76.1224 40.5885 74.0895L39.3444 70.3936L39.2349 70.6829Z" fill="white"/>
<path fill-rule="evenodd" clip-rule="evenodd" d="M7.8909 0.429226C3.93904 1.12994 1.00617 3.93234 0.17073 7.80588C-0.0012278 8.60305 0.000823054 10.6878 0.174303 11.4738C0.455629 12.7483 1.04587 14.0769 1.77842 15.0846C2.24157 15.7217 3.18895 16.6601 3.88804 17.1743C4.87471 17.8999 6.36955 18.5309 7.72551 18.794C8.61144 18.9659 10.345 18.9489 11.2446 18.7595C13.1 18.3688 14.6161 17.5808 15.9173 16.331C17.3003 15.0025 18.1503 13.5158 18.5959 11.6458C18.7502 10.9982 18.7696 10.7821 18.772 9.67351C18.7741 8.72348 18.7468 8.29636 18.657 7.87143C17.9765 4.65371 15.8861 2.15902 12.869 0.964082C11.7799 0.532826 11.0088 0.39089 9.61113 0.364416C8.78028 0.348688 8.22775 0.369528 7.8909 0.429226ZM29.1954 0.429226C27.1006 0.800718 25.4969 1.62476 24.0327 3.08221C22.7138 4.39498 21.8779 5.93898 21.4752 7.80588C21.304 8.60014 21.306 10.6864 21.4789 11.4721C22.1021 14.3043 23.9574 16.7125 26.4496 17.9239C27.9441 18.6503 29.0883 18.9115 30.7502 18.9055C32.0039 18.9009 32.7442 18.7826 33.8062 18.4166C35.1873 17.9409 36.2326 17.2835 37.3398 16.1946C38.8499 14.7095 39.7075 13.0263 40.019 10.9359C40.1572 10.0087 40.114 8.57568 39.9217 7.70759C39.5259 5.92017 38.6517 4.32755 37.37 3.05908C36.042 1.74468 34.6003 0.959759 32.708 0.521033C31.9698 0.349869 29.9419 0.29692 29.1954 0.429226ZM50.5001 0.429226C48.5177 0.780731 46.9333 1.56283 45.52 2.88792C44.1894 4.13541 43.3221 5.63713 42.843 7.52293C42.6765 8.17821 42.6628 8.33349 42.6613 9.57522C42.6598 10.7463 42.6793 11.0058 42.8134 11.5992C43.6491 15.296 46.5352 18.0568 50.3344 18.794C51.2203 18.9659 52.9542 18.9489 53.8534 18.7595C55.1143 18.494 56.3651 17.9709 57.3807 17.2846C58.1621 16.7566 59.3318 15.5625 59.8804 14.7335C60.9636 13.0955 61.485 11.203 61.3985 9.22089C61.2126 4.9619 58.284 1.511 54.0154 0.521625C53.2741 0.349869 51.2479 0.296659 50.5001 0.429226ZM71.8045 0.429226C67.8681 1.12719 64.9326 3.91333 64.0855 7.75555C63.9147 8.52981 63.9138 10.6849 64.0841 11.4756C64.6851 14.2693 66.4954 16.6383 68.99 17.8963C69.7268 18.2678 70.7981 18.6308 71.6388 18.794C72.5251 18.9659 74.2586 18.9489 75.1582 18.7595C76.4177 18.4943 77.6671 17.972 78.6855 17.2852C79.3279 16.8521 80.6104 15.5798 81.0526 14.9373C81.7438 13.9338 82.2606 12.7338 82.5376 11.4896C82.7452 10.559 82.7442 8.70996 82.5362 7.76079C81.7273 4.07283 79.0486 1.3859 75.3197 0.521625C74.5789 0.349869 72.5523 0.296659 71.8045 0.429226ZM93.1088 0.433091C89.2268 1.09167 86.2655 3.88561 85.3986 7.70759C85.2389 8.41215 85.1979 10.3118 85.3258 11.0832C85.4782 12.002 85.7276 12.7939 86.1219 13.6086C87.4537 16.3616 89.8682 18.1973 92.9436 18.794C93.8295 18.9659 95.5629 18.9489 96.4626 18.7595C98.2877 18.3751 99.7934 17.5966 101.1 16.3613C102.492 15.0457 103.414 13.4084 103.842 11.4896C104.049 10.5659 104.047 8.71592 103.84 7.76079C103.001 3.90803 100.052 1.10727 96.1271 0.435975C95.4157 0.314286 93.8184 0.312713 93.1088 0.433091Z" fill="white"/>
</g>
<defs>
<clipPath id="clip0_1419_6824">
<rect width="104" height="87" fill="white"/>
</clipPath>
</defs>
</svg>
