<svg width="226" height="191" viewBox="0 0 226 191" fill="none" xmlns="http://www.w3.org/2000/svg">
<path fill-rule="evenodd" clip-rule="evenodd" d="M17.1478 47.1877C8.56009 48.726 2.18672 54.8784 0.371242 63.3824C-0.0024353 65.1325 0.00202179 69.7094 0.379006 71.4349C0.990348 74.233 2.27299 77.1498 3.86489 79.3621C4.87133 80.7607 6.93008 82.821 8.44923 83.9498C10.5934 85.5429 13.8418 86.9281 16.7883 87.5058C18.7135 87.8832 22.4808 87.8458 24.4356 87.4299C28.4675 86.5721 31.762 84.8423 34.5897 82.0984C37.5951 79.1818 39.4422 75.9179 40.4107 71.8125C40.746 70.3909 40.7879 69.9165 40.7933 67.4825C40.7977 65.3969 40.7385 64.4592 40.5432 63.5263C39.0646 56.4621 34.522 50.9853 27.9654 48.3619C25.5989 47.4151 23.9233 47.1035 20.886 47.0454C19.0804 47.0108 17.8797 47.0566 17.1478 47.1877ZM63.4441 47.1877C58.8918 48.0032 55.4069 49.8123 52.225 53.012C49.3591 55.8941 47.5426 59.2838 46.6676 63.3824C46.2953 65.126 46.2998 69.7063 46.6755 71.4312C48.0297 77.6491 52.0615 82.936 57.4773 85.5956C60.7248 87.1903 63.2113 87.7636 66.8229 87.7505C69.5472 87.7405 71.1559 87.4806 73.4637 86.6773C76.4649 85.6328 78.7366 84.1896 81.1425 81.7991C84.4241 78.5386 86.2876 74.8433 86.9645 70.2541C87.2649 68.2184 87.171 65.0724 86.7532 63.1666C85.8929 59.2425 83.9932 55.746 81.2081 52.9612C78.3223 50.0756 75.1893 48.3524 71.0771 47.3892C69.4731 47.0134 65.0662 46.8972 63.4441 47.1877ZM109.74 47.1877C105.432 47.9593 101.99 49.6764 98.9187 52.5855C96.0272 55.3242 94.1425 58.621 93.1014 62.7612C92.7396 64.1998 92.7097 64.5407 92.7064 67.2668C92.7033 69.8378 92.7457 70.4076 93.0371 71.7102C94.8532 79.8262 101.125 85.8872 109.381 87.5058C111.306 87.8832 115.073 87.8458 117.028 87.4299C119.768 86.8471 122.486 85.6987 124.693 84.1919C126.391 83.0329 128.933 80.4113 130.125 78.5912C132.479 74.9953 133.611 70.8404 133.424 66.4889C133.02 57.1386 126.655 49.5626 117.379 47.3905C115.769 47.0134 111.366 46.8966 109.74 47.1877ZM156.037 47.1877C147.483 48.72 141.104 54.8367 139.263 63.2719C138.892 64.9717 138.89 69.703 139.26 71.4388C140.566 77.5721 144.5 82.7731 149.921 85.535C151.522 86.3506 153.85 87.1475 155.677 87.5058C157.603 87.8832 161.37 87.8458 163.325 87.4299C166.062 86.8476 168.777 85.7012 170.99 84.1933C172.385 83.2424 175.173 80.4492 176.134 79.0386C177.635 76.8356 178.759 74.2012 179.361 71.4696C179.812 69.4265 179.81 65.3672 179.358 63.2834C177.6 55.1868 171.779 49.2879 163.676 47.3905C162.066 47.0134 157.662 46.8966 156.037 47.1877ZM202.333 47.1961C193.896 48.642 187.461 54.7758 185.578 63.1666C185.231 64.7134 185.142 68.8839 185.42 70.5774C185.751 72.5945 186.293 74.3331 187.15 76.1216C190.043 82.1657 195.291 86.1958 201.974 87.5058C203.899 87.8832 207.666 87.8458 209.621 87.4299C213.587 86.5861 216.859 84.877 219.699 82.165C222.724 79.2766 224.727 75.6821 225.658 71.4696C226.107 69.4417 226.103 65.3803 225.651 63.2834C223.829 54.825 217.421 48.6762 208.892 47.2025C207.346 46.9353 203.875 46.9319 202.333 47.1961ZM18.8731 93.2586C14.909 93.6523 11.1058 95.077 8.22767 97.2462C6.63189 98.4491 4.463 100.719 3.44132 102.255C1.14577 105.707 0.00374715 109.493 8.93738e-06 113.663C-0.0048795 119.203 1.99564 124.116 5.86124 128.059C8.7053 130.96 12.1433 132.843 16.2851 133.769C18.347 134.23 22.5232 134.225 24.6071 133.758C31.1403 132.294 36.1032 128.381 38.9388 122.459C40.298 119.621 40.8695 117.015 40.8705 113.653C40.8713 110.478 40.2895 107.804 38.9807 104.968C37.3287 101.389 34.1247 97.9054 30.6751 95.9383C27.1929 93.9527 22.5338 92.8949 18.8731 93.2586ZM65.1694 93.2586C61.4512 93.6279 57.9545 94.8622 55.105 96.8113C53.669 97.7935 51.1773 100.228 50.1584 101.644C48.3892 104.102 47.0645 107.243 46.5451 110.21C46.2118 112.115 46.2099 115.347 46.5412 117.187C47.292 121.36 49.1883 125.03 52.1576 128.059C55.0016 130.96 58.4396 132.843 62.5814 133.769C63.6999 134.02 64.4421 134.076 66.6791 134.083C69.7046 134.093 71.1411 133.866 73.6352 132.986C80.3269 130.623 85.3231 124.861 86.835 117.763C87.2048 116.027 87.203 111.296 86.8319 109.596C85.0735 101.542 78.8628 95.2973 70.9917 93.6704C68.9966 93.2581 66.7638 93.1002 65.1694 93.2586ZM111.466 93.2586C107.726 93.63 104.267 94.8511 101.401 96.8113C99.9653 97.7935 97.4736 100.228 96.4547 101.644C92.5976 107.004 91.5135 114.031 93.5906 120.209C95.2432 125.125 98.9824 129.506 103.504 131.826C105.185 132.689 107.302 133.444 109.093 133.82C111.087 134.239 115.189 134.207 117.2 133.757C125.373 131.928 131.336 125.94 133.124 117.763C133.502 116.037 133.506 111.463 133.131 109.707C132.049 104.638 129.328 100.336 125.268 97.2764C123.768 96.1458 121.261 94.8373 119.484 94.2573C116.938 93.4263 113.76 93.0305 111.466 93.2586ZM157.762 93.2488C153.741 93.7261 150.648 94.8182 147.711 96.7971C146.244 97.7858 143.754 100.238 142.662 101.77C139.822 105.755 138.459 110.778 138.928 115.537C139.4 120.342 141.396 124.671 144.667 127.984C147.064 130.413 149.502 131.957 152.672 133.055C155.14 133.91 156.338 134.093 159.416 134.085C161.843 134.079 162.325 134.036 163.743 133.702C165.676 133.247 167.935 132.381 169.463 131.508C174.525 128.619 178.141 123.624 179.419 117.758C179.795 116.031 179.8 111.452 179.427 109.707C177.623 101.254 171.198 95.0006 162.802 93.5236C161.553 93.3037 158.638 93.1448 157.762 93.2488ZM204.058 93.2486C201.037 93.6083 198.594 94.2951 196.409 95.3994C190.662 98.3039 186.572 103.792 185.425 110.139C185.083 112.027 185.088 115.506 185.434 117.332C186.834 124.721 191.902 130.607 198.968 133.055C201.436 133.91 202.634 134.093 205.712 134.085C208.14 134.079 208.621 134.036 210.039 133.702C211.973 133.247 214.231 132.381 215.759 131.508C220.815 128.623 224.439 123.617 225.715 117.758C226.091 116.031 226.096 111.452 225.723 109.707C223.692 100.189 215.889 93.6071 206.215 93.2498C205.306 93.2161 204.335 93.2157 204.058 93.2486ZM124.751 141.216C123.006 141.385 120.847 141.836 119.209 142.371C111.099 145.023 104.868 152.572 103.482 161.426C103.155 163.514 103.251 167.316 103.691 169.665C105.115 177.281 109.633 183.446 116.21 186.747C118.077 187.683 119.863 188.29 122.228 188.79C123.859 189.136 124.349 189.175 126.994 189.176C129.459 189.177 130.235 189.123 131.738 188.845C138.802 187.54 144.351 183.784 147.591 178.115C149.522 174.735 150.589 170.707 150.817 165.937L150.905 164.088H139.594H128.283L128.322 168.296L128.36 172.504L134.075 172.542C137.87 172.567 139.79 172.629 139.79 172.727C139.79 172.985 139.201 174.056 138.567 174.952C137.42 176.573 135.752 177.838 133.737 178.615C132.1 179.247 131.054 179.465 128.855 179.635C126.543 179.814 124.863 179.607 122.946 178.907C120.177 177.895 117.443 175.745 115.743 173.241C114.884 171.977 113.958 169.915 113.598 168.467C113.121 166.553 113.15 163.549 113.664 161.613C115.017 156.51 118.708 152.668 123.615 151.255C124.638 150.961 125.068 150.925 127.497 150.928C129.886 150.931 130.382 150.973 131.451 151.262C134.758 152.154 137.292 153.695 138.914 155.799C139.257 156.243 139.598 156.607 139.672 156.607C139.809 156.607 147.856 153.044 147.965 152.935C148.043 152.856 146.904 150.929 146.35 150.205C142.619 145.325 137.263 142.223 131.091 141.365C129.471 141.14 126.297 141.065 124.751 141.216ZM21.3944 141.378C14.2379 142.296 8.05988 146.033 4.07452 151.855C2.40612 154.293 1.10048 157.36 0.438386 160.398C0.163915 161.658 0.120207 162.292 0.120207 165.023C0.120207 167.75 0.164059 168.389 0.437092 169.642C1.25691 173.402 3.03026 177.099 5.36406 179.913C9.32326 184.687 15.0623 187.888 21.4052 188.86C22.029 188.956 23.704 189.033 25.1274 189.033C27.233 189.032 28.0102 188.972 29.297 188.711C31.33 188.299 33.1357 187.785 34.7605 187.156L36.0545 186.655L38.1393 188.828L40.224 191L44.3936 190.002C46.6868 189.453 48.8866 188.927 49.282 188.834C49.6774 188.74 50.0947 188.634 50.2091 188.598C50.3437 188.555 49.1063 187.22 46.7078 184.818L42.9984 181.105L43.6675 180.195C44.6623 178.843 46.664 174.678 47.4017 172.426C48.7124 168.424 49.025 165.093 48.433 161.439C46.5337 149.716 36.2337 141.131 24.1929 141.234C23.2044 141.243 21.945 141.308 21.3944 141.378ZM51.223 165.167V187.682H56.4709H61.7188V165.167V142.652H56.4709H51.223V165.167ZM79.2694 142.976C79.1995 143.154 77.3968 147.799 75.2635 153.298C73.13 158.797 69.2989 168.67 66.7498 175.237C64.2008 181.805 62.0832 187.291 62.044 187.43C61.977 187.667 62.3113 187.682 67.639 187.682H73.3051L74.9597 183.69L76.6144 179.697H85.3692H94.1241L94.5795 180.848C94.83 181.481 95.5385 183.278 96.1539 184.84L97.2729 187.682H102.941H108.61L108.508 187.358C108.452 187.18 107.296 184.089 105.938 180.489C104.581 176.888 100.821 166.904 97.5835 158.301L91.6964 142.659L85.5463 142.655L79.3962 142.652L79.2694 142.976ZM152.442 165.167V187.682H165.742H179.041V183.294V178.906H171.062H163.082V174.302V169.699H171.062H179.041V165.095V160.491H171.062H163.082V155.96V151.428H171.062H179.041V147.04V142.652H165.742H152.442V165.167ZM182.923 165.311V187.826H187.811H192.699L192.735 174.132L192.772 160.438L196.883 166.183C199.144 169.343 202.827 174.486 205.069 177.611C207.31 180.737 209.861 184.297 210.737 185.524L212.33 187.754L217.253 187.792L222.175 187.829L222.139 165.349L222.103 142.868H216.998H211.894L211.822 156.508L211.751 170.148L201.991 156.472L192.231 142.796H187.577H182.923V165.311ZM22.5631 150.713C19.1435 151.25 16.3111 152.681 14.1135 154.983C12.7805 156.379 12.2839 157.094 11.4648 158.797C10.4025 161.006 10.1904 162.021 10.194 164.879C10.1966 167.048 10.2387 167.48 10.5659 168.692C11.7893 173.223 14.8554 176.808 18.9857 178.536C20.7362 179.268 22.2084 179.541 24.4085 179.542C26.2861 179.542 28.6252 179.239 29.1923 178.922C29.3277 178.846 28.5503 177.916 26.5367 175.747C22.2061 171.082 22.39 171.304 22.7838 171.218C23.0851 171.152 32.5955 169.699 32.7249 169.699C32.7555 169.699 33.5814 170.6 34.5604 171.701C36.0167 173.34 36.3774 173.673 36.5455 173.536C36.8986 173.246 37.7194 171.301 38.0665 169.932C38.7844 167.099 38.8485 164.822 38.2842 162.203C37.0512 156.481 32.7482 152.052 27.3427 150.942C25.959 150.658 23.6255 150.546 22.5631 150.713ZM85.2605 155.182C85.0303 155.795 81.6176 165.447 80.3257 169.139C79.9766 170.137 79.691 170.995 79.691 171.045C79.691 171.096 82.2143 171.137 85.2983 171.137C89.7042 171.137 90.9056 171.099 90.9056 170.956C90.9056 170.857 89.6889 167.124 88.202 162.661L85.4984 154.547L85.2605 155.182Z" fill="black"/>
<path fill-rule="evenodd" clip-rule="evenodd" d="M17.1479 0.937165C8.56022 2.47551 2.18687 8.6279 0.371385 17.1319C-0.00229261 18.882 0.00216408 23.4589 0.379149 25.1845C0.990492 27.9825 2.27313 30.8994 3.86503 33.1116C4.87148 34.5102 6.93022 36.5705 8.44938 37.6993C10.5935 39.2924 13.8419 40.6776 16.7885 41.2553C18.7137 41.6327 22.4809 41.5953 24.4357 41.1794C28.4677 40.3217 31.7622 38.5918 34.5898 35.8479C37.5952 32.9313 39.4423 29.6674 40.4108 25.562C40.7461 24.1404 40.7881 23.666 40.7934 21.2321C40.7979 19.1464 40.7386 18.2087 40.5434 17.2758C39.0648 10.2116 34.5221 4.73477 27.9656 2.11139C25.599 1.16461 23.9234 0.853002 20.8861 0.794881C19.0806 0.760353 17.8799 0.806104 17.1479 0.937165ZM63.4443 0.937165C58.892 1.75274 55.4071 3.56184 52.2252 6.76154C49.3592 9.64359 47.5428 13.0333 46.6677 17.1319C46.2955 18.8756 46.2999 23.4558 46.6756 25.1807C48.0299 31.3986 52.0617 36.6855 57.4775 39.3451C60.725 40.9398 63.2115 41.5131 66.823 41.5001C69.5473 41.49 71.156 41.2302 73.4638 40.4268C76.465 39.3824 78.7367 37.9391 81.1427 35.5486C84.4243 32.2881 86.2878 28.5928 86.9647 24.0036C87.265 21.9679 87.1711 18.8219 86.7533 16.9161C85.8931 12.992 83.9934 9.49555 81.2083 6.71075C78.3225 3.82511 75.1894 2.1019 71.0773 1.13872C69.4733 0.762945 65.0664 0.646702 63.4443 0.937165ZM109.741 0.937165C105.433 1.70886 101.99 3.42588 98.9189 6.33498C96.0274 9.07374 94.1426 12.3706 93.1015 16.5107C92.7398 17.9493 92.7099 18.2902 92.7066 21.0163C92.7034 23.5873 92.7458 24.1571 93.0373 25.4597C94.8533 33.5757 101.125 39.6367 109.381 41.2553C111.306 41.6327 115.074 41.5953 117.028 41.1794C119.768 40.5966 122.486 39.4482 124.693 37.9414C126.391 36.7824 128.933 34.1608 130.125 32.3407C132.479 28.7448 133.612 24.5899 133.424 20.2384C133.02 10.8882 126.656 3.31209 117.38 1.14002C115.769 0.762945 111.366 0.646127 109.741 0.937165ZM156.037 0.937165C147.483 2.46947 141.104 8.58618 139.263 17.0214C138.892 18.7212 138.89 23.4525 139.26 25.1883C140.566 31.3216 144.5 36.5226 149.921 39.2845C151.522 40.1001 153.85 40.897 155.677 41.2553C157.603 41.6327 161.37 41.5953 163.325 41.1794C166.062 40.5972 168.777 39.4507 170.99 37.9428C172.386 36.9919 175.173 34.1988 176.134 32.7882C177.636 30.5852 178.759 27.9507 179.361 25.2191C179.812 23.176 179.81 19.1167 179.358 17.0329C177.6 8.93635 171.779 3.03745 163.676 1.14002C162.066 0.762945 157.662 0.646127 156.037 0.937165ZM202.333 0.945652C193.897 2.3915 187.462 8.52533 185.578 16.9161C185.231 18.4629 185.142 22.6334 185.42 24.3269C185.751 26.344 186.293 28.0826 187.15 29.8712C190.044 35.9152 195.291 39.9453 201.974 41.2553C203.899 41.6327 207.666 41.5953 209.621 41.1794C213.587 40.3356 216.859 38.6265 219.699 35.9145C222.724 33.0261 224.727 29.4316 225.658 25.2191C226.107 23.1912 226.103 19.1298 225.652 17.0329C223.829 8.57453 217.421 2.42574 208.892 0.951983C207.346 0.684826 203.875 0.681372 202.333 0.945652Z" fill="black"/>
</svg>
