<svg width="133" height="96" viewBox="0 0 133 96" fill="none" xmlns="http://www.w3.org/2000/svg">
<g clip-path="url(#clip0_1420_6875)">
<path fill-rule="evenodd" clip-rule="evenodd" d="M132.803 0H18.2532C16.1478 2.07104 14.0391 4.13936 11.9302 6.2078L11.93 6.20807L11.9294 6.2086C7.94582 10.1158 3.96186 14.0234 0 17.9503V95.9956H114.293C120.48 89.9527 126.651 83.8927 132.803 77.8131V0ZM50.0172 16.6928C44.9035 16.6475 39.5254 17.364 35.1761 20.1985C31.4708 22.5659 29.2777 26.5954 27.9524 30.6336C26.2393 36.0024 25.8771 41.6858 25.9173 47.2812C25.9949 52.4576 26.4491 57.7075 28.1393 62.6405C29.1713 65.5572 30.6805 68.4257 33.0834 70.4758C36.2111 73.1633 40.3415 74.3809 44.3947 74.8594C47.7781 75.2275 51.2217 75.2699 54.5877 74.7262C56.1633 77.2751 57.7309 79.8296 59.2986 82.3839C60.2075 83.8651 61.1164 85.3462 62.027 86.8264C63.8037 86.0236 65.5762 85.2157 67.3492 84.4075C68.4846 83.89 69.6202 83.3726 70.757 82.8561C69.5985 81.0071 68.4286 79.165 67.2585 77.3231C66.0886 75.481 64.9187 73.6389 63.7602 71.7899C66.9798 69.5131 69.4203 66.2339 70.7023 62.5413C72.6168 57.1129 72.8783 51.2909 72.8696 45.5934C72.8007 39.9358 72.1971 34.1873 70.1417 28.8637C68.8711 25.6212 66.9654 22.4866 64.0334 20.4562C59.9977 17.5933 54.8867 16.7523 50.0172 16.6928ZM84.5467 20.0163C87.5936 20.0135 90.6406 20.0135 93.6877 20.0163C93.6919 22.001 93.6912 23.9849 93.6904 25.969C93.6897 27.9536 93.6889 29.9383 93.6934 31.9237C95.9166 31.9269 98.1398 31.9266 100.363 31.9261H100.37C102.039 31.9256 103.709 31.9254 105.378 31.9266C105.312 34.5034 105.24 37.0802 105.165 39.6573C103.22 39.6615 101.274 39.6607 99.3294 39.66H99.3249C97.3809 39.6593 95.4368 39.6585 93.492 39.6629C93.4953 42.0801 93.4933 44.4972 93.4913 46.9144C93.4881 51.0047 93.4848 55.0947 93.5065 59.1847C93.5157 59.4037 93.5231 59.6238 93.5306 59.845V59.8455C93.584 61.4246 93.6387 63.0485 94.3373 64.4914C94.9177 65.76 96.4817 66.0857 97.755 66.1281C99.1347 66.1234 100.514 66.0754 101.893 66.0274H101.893C102.913 65.9919 103.932 65.9566 104.953 65.9385C105.099 68.3057 105.24 70.6761 105.378 73.0433C105.156 73.0802 104.932 73.1175 104.708 73.1547C100.137 73.9163 95.3719 74.71 90.8504 73.3009C88.8527 72.7176 86.99 71.4122 86.1793 69.4668C84.7277 66.1565 84.6099 62.4725 84.5467 58.9185C84.5433 55.2573 84.5438 51.5971 84.5443 47.9366V47.9145C84.5445 45.1641 84.545 42.4136 84.5437 39.6629C83.5779 39.6602 82.6124 39.6607 81.6468 39.661H81.6441C80.4864 39.6615 79.3287 39.6617 78.1709 39.6573C78.1652 37.0832 78.1652 34.5064 78.1709 31.9293C79.2324 31.9251 80.293 31.9259 81.3537 31.9266H81.3562C82.4175 31.9273 83.4788 31.9281 84.5408 31.9237C84.5452 29.9388 84.5445 27.9544 84.5437 25.97C84.543 23.9857 84.5423 22.0014 84.5467 20.0163Z" fill="#191919"/>
<path d="M46.1393 24.8327C49.0971 24.4531 52.2016 24.555 55.0013 25.6565C57.2692 26.5401 59.1951 28.2703 60.2129 30.4622C61.7736 33.7837 62.3715 37.4508 62.6735 41.0726C63.0012 45.8922 62.9552 50.7571 62.2795 55.5483C61.8054 58.3999 61.1297 61.4043 59.1693 63.6527C57.1802 65.9097 54.113 66.878 51.1696 67.1045C48.0651 67.3284 44.7911 67.1045 41.9884 65.6577C40.3529 64.7996 38.9645 63.4546 38.1538 61.8064C37.1708 59.8328 36.6304 57.6779 36.2508 55.5201C35.1067 48.6787 34.8308 41.5992 36.3947 34.7974C37.0386 32.2318 37.9755 29.5984 39.8786 27.6642C41.5342 26.0077 43.8395 25.1525 46.1393 24.8327Z" fill="#191919"/>
</g>
<defs>
<clipPath id="clip0_1420_6875">
<rect width="133" height="96" fill="white"/>
</clipPath>
</defs>
</svg>
