<svg width="138" height="96" viewBox="0 0 138 96" fill="none" xmlns="http://www.w3.org/2000/svg">
<path d="M64.8397 1.67164C81.7143 0.542906 96.2514 13.1847 97.3916 29.8335C98.5318 46.5388 85.7618 60.9302 68.9442 62.0589C52.0696 63.1876 37.5324 50.5457 36.3923 33.8969C35.5941 22.3275 41.5801 11.3223 51.7276 5.56576C55.7753 3.3083 60.2789 2.01025 64.8397 1.67164ZM65.8088 4.26773C50.4164 4.88854 38.3877 17.7561 39.0146 32.994C39.6418 48.2319 52.6397 60.14 68.0321 59.5191C83.4243 58.8985 95.4533 46.0308 94.8261 30.793C94.427 21.481 89.4104 13.0154 81.3152 8.2183C76.6403 5.39645 71.2246 4.04198 65.8088 4.26773Z" fill="white"/>
<path d="M59.019 9.12027C61.9834 8.16086 65.1188 7.70936 68.2544 7.87867C68.5964 7.87867 68.9384 7.93511 69.2236 8.04798C72.6441 10.7569 75.3804 14.256 77.1478 18.263C79.0861 22.8908 79.7701 27.8572 79.2001 32.8237C78.858 36.4357 78.0028 39.9347 76.6347 43.3209H79.0861C79.314 42.7001 79.5421 42.0792 79.7701 41.4585C82.6206 41.7971 85.243 43.0951 87.2952 45.1268C85.3 47.1585 82.6206 48.4565 79.7701 48.7953C79.5421 48.1744 79.314 47.6101 79.0861 46.9892C71.5608 46.9892 64.0357 46.9892 56.5677 46.9892C56.1686 46.9892 55.8266 47.1585 55.5414 47.3843C54.6864 47.7794 53.8882 48.2309 53.0901 48.626C52.8051 48.7388 52.4629 48.7953 52.1209 48.7953C51.1517 48.7953 50.1826 48.7953 49.2136 48.7953C47.1611 46.6506 45.5079 44.1674 44.3107 41.4585H50.9237C51.3798 41.402 51.8928 41.4585 52.349 41.6278C53.4321 42.0792 54.5723 42.5872 55.6554 43.0386C56.5106 43.5467 57.4798 43.2644 58.3919 43.3209C58.2779 41.0069 57.5937 38.6932 56.3967 36.6613C55.1424 34.6861 53.4321 33.1058 51.3798 31.977C48.6435 30.5097 45.6789 29.494 42.6006 28.9296C42.9995 25.7127 44.0828 22.6085 45.736 19.8432C47.9022 20.3513 50.0116 20.9719 52.1209 21.7056C54.3442 22.4957 56.4535 23.568 58.3919 24.9225L59.019 24.6404C57.7647 23.2859 56.3396 22.0442 54.8003 20.9719C52.6339 19.3918 50.3538 17.9808 47.9593 16.6828C49.9547 14.256 52.406 12.2807 55.1994 10.8134C57.0807 11.6035 58.848 12.6193 60.4442 13.8609C62.8385 15.7798 65.1188 17.9244 67.1713 20.2383L67.9693 20.0125C65.8599 15.7234 62.6106 12.1679 59.019 9.12027ZM70.1357 34.6296C68.5394 35.1377 67.6843 36.8308 68.1973 38.4109C68.7104 39.9912 70.4206 40.8376 72.017 40.3298C73.6131 39.8219 74.4683 38.1288 73.9553 36.5485C73.7843 35.9841 73.3852 35.4197 72.872 35.0812C72.074 34.5168 71.0478 34.3475 70.1357 34.6296Z" fill="white"/>
<path d="M2.92793 76.3952C3.78304 75.718 4.80921 75.3793 5.89237 75.4358C5.89237 77.5239 5.89237 79.6121 5.89237 81.7566C5.89237 82.2647 6.34845 82.6598 6.86153 82.6598H6.91854H19.7456C20.8287 82.6033 21.8547 82.9984 22.6529 83.732C23.394 84.4657 23.8501 85.4251 23.8501 86.4974C23.8501 87.7954 23.8501 89.0369 23.8501 90.335C23.8501 91.5767 23.223 92.7617 22.2538 93.5519C21.5127 94.1163 20.6006 94.3985 19.6314 94.3985H0.932617C1.78775 93.044 2.64288 91.6895 3.498 90.3915C8.45776 90.3915 13.4175 90.3915 18.3773 90.3915C18.8903 90.448 19.3465 90.1094 19.4034 89.6013V89.545C19.4034 88.642 19.4034 87.7389 19.4034 86.836H5.77836C4.7522 86.8924 3.72604 86.5539 2.87092 85.9895C2.01579 85.3121 1.4457 84.2399 1.4457 83.1112C1.4457 81.9824 1.4457 80.7972 1.4457 79.6684C1.5027 78.2576 2.01579 77.1289 2.92793 76.3952Z" fill="white"/>
<path d="M7.82324 75.4375H23.4437C22.6455 76.7355 21.7903 78.0336 20.9922 79.3316C17.4007 79.3879 13.8662 79.3316 10.2746 79.3316L7.82324 75.4375Z" fill="white"/>
<path d="M28.8037 75.4375H33.3644C33.3644 77.8643 33.3644 80.2345 33.3644 82.6613C35.4738 82.6613 37.64 82.6613 39.7493 82.6613C42.2578 80.2345 44.7662 77.8078 47.2745 75.4375C49.3838 75.4375 51.4361 75.4375 53.5454 75.4375C50.182 78.5979 46.8756 81.8147 43.5119 84.9753C46.8185 88.0792 50.1249 91.1832 53.4315 94.2873C51.3221 94.2873 49.2128 94.2873 47.1034 94.2873C44.5381 91.8605 41.9726 89.3772 39.4073 86.9505C37.4121 86.9505 35.4167 86.9505 33.4215 86.9505C33.4215 89.3772 33.4215 91.8605 33.4215 94.2873H28.8608C28.8037 88.0227 28.8037 81.7584 28.8037 75.4375Z" fill="white"/>
<path d="M60.1646 75.6068C60.7916 75.4938 61.4188 75.4375 61.9889 75.4375C65.4094 75.4375 68.8299 75.4375 72.2505 75.4375C74.3027 75.4375 76.298 76.3968 77.5523 77.9771C78.4644 79.1623 78.9774 80.6296 78.9774 82.0969C78.9774 83.9593 78.9774 85.8217 78.9774 87.6841C78.9203 89.6595 78.0082 91.5219 76.469 92.7635C75.2149 93.7229 73.6756 94.2308 72.0795 94.2308H62.559C61.8747 94.2308 61.1907 94.2308 60.5067 94.1743C57.143 93.7794 54.6348 90.9011 54.6348 87.5713C54.6348 85.7089 54.6348 83.8465 54.6348 81.9841C54.6916 80.1216 55.4898 78.3721 56.8581 77.1304C57.8843 76.3968 58.9674 75.8324 60.1646 75.6068ZM60.9057 79.783C59.9366 80.0653 59.3094 80.9117 59.3094 81.8712C59.3094 83.9029 59.3094 85.9345 59.3094 87.9664C59.3665 89.1515 60.3357 90.0544 61.5327 90.0544H72.3073C73.5046 90.0544 74.4738 89.1515 74.5308 87.9664C74.5308 85.8782 74.5308 83.8465 74.5308 81.7584C74.4738 80.5731 73.5046 79.6702 72.3073 79.6702H62.3309C61.8179 79.6702 61.3617 79.6702 60.9057 79.783Z" fill="white"/>
<path d="M84.1084 75.4375H100.641C101.952 75.4375 103.263 75.7761 104.403 76.4532C106.285 77.6385 107.482 79.6137 107.539 81.8147C107.539 83.0564 107.539 84.3544 107.539 85.6525C107.539 86.9505 107.653 88.3613 107.197 89.6595C106.513 91.804 104.802 93.4406 102.636 94.005C101.382 94.4001 100.071 94.2873 98.8166 94.2873H84.1084C84.1084 88.0227 84.1084 81.7584 84.1084 75.4375ZM88.6691 79.6702C88.6691 83.1129 88.6691 86.6119 88.6691 90.0544H100.755C101.667 90.0544 102.465 89.5465 102.807 88.7564C102.978 88.305 103.035 87.8534 102.978 87.3456C102.978 85.4832 102.978 83.6208 102.978 81.7584C102.921 80.5731 101.952 79.6702 100.755 79.6702H88.6691Z" fill="white"/>
<path d="M120.076 75.4375H126.347C129.938 81.7019 133.473 87.9664 137.064 94.2873C135.354 94.2873 133.587 94.2873 131.876 94.2873C131.249 93.1585 130.565 92.0298 129.938 90.9011H120.874L118.536 87.1763L114.489 94.2873C112.779 94.2873 111.125 94.2873 109.415 94.2873C112.95 88.0227 116.541 81.7584 120.076 75.4375ZM118.593 87.007H127.715C126.176 84.2979 124.636 81.6454 123.154 78.993C121.615 81.6454 120.133 84.2979 118.593 87.007Z" fill="white"/>
</svg>
