<svg width="70" height="61" viewBox="0 0 70 61" fill="none" xmlns="http://www.w3.org/2000/svg">
<g clip-path="url(#clip0_198_2171)">
<path d="M0 43.4102H16.8521V48.4318H12.0176V60.5004H4.99548V48.4318H0V43.4102ZM25.3868 50.3154L21.8386 60.5004H15.0948L21.7087 43.4102H29.0326L35.8061 60.5004H28.9794L25.3865 50.3154H25.3868ZM34.1953 43.4102H51.0468V48.4318H46.2137V60.5004H39.1919V48.4318H34.1953V43.4102ZM59.5843 50.3154L56.035 60.5004H49.2912L55.9073 43.4102H63.229L70 60.5004H63.1758L59.5843 50.3154Z" fill="#191919"/>
<path fill-rule="evenodd" clip-rule="evenodd" d="M59.8338 12.0186C59.2046 10.807 58.3758 9.64556 57.3449 8.55652C55.0282 6.10809 51.7597 4.07065 47.8915 2.66548C43.9914 1.24934 39.543 0.5 35.0227 0.5C30.5024 0.5 26.054 1.24934 22.1562 2.66548C18.286 4.07093 15.0173 6.10836 12.7006 8.55652C11.6704 9.64529 10.8388 10.8084 10.21 12.0205C15.2458 10.8281 23.86 9.25348 31.8582 9.08706C32.6296 9.07088 33.161 9.31271 33.5107 9.74701C33.9369 10.2756 33.9047 12.1598 33.8943 13.0029L33.667 34.7917C34.1175 34.8063 34.57 34.8159 35.023 34.8159C35.476 34.8159 35.9347 34.8085 36.3852 34.7939L36.1578 13.0029C36.1461 12.1601 36.113 10.2756 36.5406 9.74701C36.8912 9.31298 37.4206 9.07115 38.192 9.08706C46.1872 9.25211 54.7991 10.827 59.8341 12.0186" fill="#191919"/>
<path fill-rule="evenodd" clip-rule="evenodd" d="M60.9082 14.8515C53.5378 13.2199 48.6157 12.9183 43.7591 12.6542C39.5258 12.4239 39.4706 13.9039 39.8931 16.7329C39.9208 16.9057 39.9547 17.1231 39.995 17.3712C41.4149 25.6068 43.1831 32.6938 43.4869 33.8966C53.8074 31.5867 61.2504 25.1818 61.2504 17.658C61.2504 16.7107 61.1334 15.7719 60.908 14.8515M30.1553 16.7329C30.5784 13.9042 30.524 12.4239 26.2913 12.6542C21.433 12.918 16.5098 13.2196 9.13653 14.8523C8.91141 15.7728 8.79297 16.7102 8.79297 17.6575C8.79297 20.9093 10.144 24.056 12.7004 26.7594C15.0171 29.2079 18.2858 31.2453 22.156 32.6516C23.5568 33.1594 25.0349 33.5756 26.5576 33.9084C26.8434 32.7815 28.6522 25.547 30.0875 17.1642C30.1141 17.0036 30.1385 16.8552 30.1556 16.7327" fill="#191919"/>
</g>
<defs>
<clipPath id="clip0_198_2171">
<rect width="70" height="60" fill="white" transform="translate(0 0.5)"/>
</clipPath>
</defs>
</svg>
