<svg width="110" height="65" viewBox="0 0 110 65" fill="none" xmlns="http://www.w3.org/2000/svg">
<path fill-rule="evenodd" clip-rule="evenodd" d="M28.9038 0.0535667C26.4511 0.333503 24.3151 2.13576 23.6053 4.52423C23.2675 5.66073 23.2684 7.27602 23.6072 8.37556C24.6036 11.6081 27.9633 13.5321 31.2543 12.7547C36.0065 11.6322 37.8498 5.74564 34.5732 2.15584C33.0451 0.481719 31.1874 -0.207059 28.9038 0.0535667ZM42.8676 10.7205C40.1036 11.2221 38.0023 12.5127 36.6491 14.5402C35.3788 16.4433 34.7487 18.629 34.8778 20.684C35.0006 22.6386 35.6133 23.9494 37.3085 25.8839C37.8246 26.4729 38.7451 27.5227 39.3541 28.2167C40.8599 29.9327 41.1189 30.4021 41.1887 31.5402C41.239 32.3599 41.2068 32.5258 40.8759 33.1552C40.1669 34.5035 38.6638 35.0061 36.8437 34.5036C35.7875 34.2119 35.0641 33.7781 34.113 32.8658C33.6785 32.4489 33.2543 32.1307 33.1704 32.1587C32.9828 32.2214 31.4925 38.1079 31.588 38.4091C31.716 38.8135 33.7027 39.5331 35.6579 39.8834C39.0796 40.4965 42.6004 40.1344 45.0952 38.913C48.1667 37.4094 50.055 34.5244 50.2447 31.046C50.3411 29.2778 50.1262 28.1199 49.4611 26.8247C48.7827 25.5036 48.0953 24.6126 46.2934 22.7194C44.7639 21.1123 44.1621 20.3249 43.9205 19.6144C43.2892 17.7585 44.9164 15.9237 46.9435 16.2061C47.7968 16.3249 48.9537 16.94 49.8151 17.7329C50.2738 18.1552 50.6438 18.3984 50.7752 18.364C50.9231 18.3252 51.1025 17.9066 51.3577 17.0046C51.5608 16.2877 51.9698 14.9936 52.2668 14.129C52.5637 13.2644 52.7765 12.4416 52.7397 12.3005C52.6042 11.7813 50.592 11.0263 48.4944 10.7075C46.994 10.4795 44.1598 10.4861 42.8676 10.7205ZM72.8586 10.5708C72.8294 10.5977 70.6806 10.6612 68.0836 10.7119C65.0288 10.7714 63.3022 10.8527 63.193 10.9419C63.1004 11.0177 62.6942 11.7743 62.2907 12.6232C60.1678 17.0877 58.3422 20.7942 54.0036 29.4485C51.3768 34.6885 49.1709 39.047 49.1019 39.134C49.0328 39.2211 49.0096 39.3793 49.0504 39.4857C49.1128 39.6486 49.4626 39.6767 51.2661 39.6641C52.4439 39.6558 54.1792 39.6125 55.1222 39.5682L56.8367 39.4873L57.8335 37.1854C58.3818 35.9194 59.0413 34.3512 59.2991 33.7006L59.7678 32.5177H63.0182H66.2687L66.2191 36.0665L66.1693 39.6152L70.2531 39.5731C72.4991 39.5499 74.3808 39.4885 74.4348 39.4366C74.4887 39.3846 74.4746 38.2238 74.4037 36.857C74.3327 35.4903 74.2163 32.7895 74.145 30.8552C74.0737 28.921 73.9623 26.0436 73.8975 24.4611C73.7161 20.0202 73.6269 17.5762 73.5165 14.0208C73.4369 11.4541 73.3769 10.7264 73.2378 10.6382C73.0432 10.5147 72.9395 10.4962 72.8586 10.5708ZM86.4604 10.858C84.9864 10.9419 83.1171 11.0157 82.3065 11.022C81.4061 11.0289 80.777 11.089 80.69 11.1762C80.5215 11.345 80.4551 11.1198 82.0991 15.9568C82.7685 17.9262 83.7184 20.787 84.2103 22.314L85.1045 25.0904L83.4428 27.5572C82.5289 28.914 81.1686 30.9357 80.4199 32.05C79.6712 33.1643 78.6279 34.6669 78.1015 35.3889C76.2083 37.986 75.1562 39.5923 75.2724 39.7087C75.3404 39.7769 76.9262 39.7864 79.1254 39.7321C82.3066 39.6534 82.8901 39.6093 83.0461 39.4357C83.1471 39.3234 84.1721 37.5627 85.3241 35.523C86.476 33.4832 87.4623 31.7996 87.5158 31.7816C87.6008 31.7531 88.9626 37.0462 89.34 38.8716C89.4153 39.2362 89.5561 39.6005 89.653 39.6809C89.7832 39.7893 90.9533 39.7997 94.1427 39.7214C97.8617 39.6298 98.4531 39.5887 98.4327 39.4234C98.4195 39.3179 97.8949 37.7353 97.2666 35.9066C96.6384 34.0779 95.5211 30.8244 94.7836 28.6766L93.4428 24.7716L94.4268 23.3695C98.3089 17.8383 100.225 15.1367 101.577 13.2905C102.432 12.1216 103.095 11.1047 103.049 11.0307C102.951 10.8711 96.0263 11.0051 95.6999 11.1727C95.5876 11.2304 95.1358 11.9276 94.696 12.722C92.9745 15.8322 91.3266 18.582 91.2416 18.4866C91.1171 18.3475 90.4363 15.5566 89.9849 13.3352C89.5998 11.4409 89.4272 10.8397 89.244 10.7539C89.1869 10.7272 87.9344 10.7741 86.4604 10.858ZM8.78846 11.0014C3.32084 11.0276 1.65927 11.072 1.56152 11.1942C1.34865 11.4604 -0.0287136 16.7658 0.0723589 16.9299C0.143569 17.0453 0.870474 17.0641 3.01865 17.0059C5.38275 16.9419 5.87037 16.9587 5.87037 17.1036C5.87037 17.5123 2.92766 29.9753 1.29493 36.4821C0.728693 38.7386 0.576701 39.526 0.685175 39.6425C0.795947 39.7614 1.77885 39.7762 4.90865 39.7064L8.9878 39.6152L9.08568 39.1676C9.13941 38.9214 9.61274 36.7059 10.1375 34.2441C11.0538 29.9456 12.8047 22.1723 13.6613 18.6011L14.0699 16.8973L16.6685 16.9294C18.0977 16.9472 19.3082 16.9206 19.3582 16.8703C19.5029 16.7253 20.9257 11.2426 20.8646 11.0653C20.8226 10.9434 20.2255 10.9128 18.3489 10.9363C16.9956 10.9533 12.6933 10.9826 8.78846 11.0014ZM105.986 11.203C104.049 12.0913 103.575 14.534 105.056 16.0031C106.547 17.4822 109.019 16.9807 109.834 15.0338C110.048 14.5215 110.057 13.3378 109.851 12.8617C109.591 12.2636 109.117 11.701 108.624 11.4052C108.035 11.0525 106.561 10.9395 105.986 11.203ZM105.961 11.613C104.727 12.2294 104.201 13.6162 104.702 14.9311C105.486 16.9891 108.51 17.0875 109.44 15.0855C109.978 13.9267 109.751 12.7882 108.817 11.9664C107.982 11.232 106.974 11.1073 105.961 11.613ZM105.922 12.1193C105.922 12.1539 105.908 12.9738 105.89 13.9417L105.858 15.7011L106.209 15.7415L106.56 15.782V14.9422C106.56 14.1467 106.576 14.1025 106.859 14.1025C107.279 14.1025 107.535 14.4496 107.637 15.1576C107.721 15.7421 107.74 15.765 108.146 15.765H108.568L108.411 15.0849C108.324 14.7109 108.189 14.2853 108.111 14.1392C107.999 13.929 108.011 13.8385 108.172 13.7048C108.674 13.2875 108.588 12.4633 108.015 12.2019C107.708 12.0617 105.922 11.9911 105.922 12.1193ZM24.1251 12.9836C23.9049 13.9851 23.6752 15.0568 23.1044 17.7472C22.3217 21.4361 21.7631 23.9609 21.3079 25.8678C21.0812 26.8173 20.8186 27.9395 20.7245 28.3615C20.6303 28.7835 20.0615 31.2005 19.4604 33.7326C18.0508 39.672 18.0751 39.5559 18.2073 39.6884C18.2705 39.7517 20.1466 39.7651 22.5079 39.7191C26.6012 39.6394 26.6986 39.6314 26.7949 39.3706C26.8492 39.2238 27.0997 38.0391 27.3515 36.7378C27.6034 35.4366 28.2152 32.5017 28.7111 30.2158C29.6203 26.025 31.0076 19.6038 31.3359 18.0669C31.4337 17.6097 31.6589 16.5795 31.8366 15.7777C32.0141 14.9757 32.1594 14.2767 32.1594 14.2244C32.1594 14.1721 31.8006 14.246 31.3618 14.3886C30.8369 14.5591 30.1934 14.6518 29.4795 14.6595C27.6883 14.6789 26.1807 14.0733 24.8406 12.7958C24.5615 12.5298 24.3197 12.3122 24.303 12.3122C24.2863 12.3122 24.2062 12.6144 24.1251 12.9836ZM106.56 13.0795C106.56 13.565 106.58 13.591 106.951 13.591C107.474 13.591 107.836 13.3815 107.836 13.0795C107.836 12.7774 107.474 12.5679 106.951 12.5679C106.58 12.5679 106.56 12.5939 106.56 13.0795ZM65.3129 19.3457C64.7718 20.647 63.8673 22.8166 63.3029 24.1672C62.7387 25.5178 62.277 26.6544 62.277 26.6929C62.277 26.7314 63.1689 26.763 64.259 26.763C65.7303 26.763 66.257 26.7217 66.3026 26.6026C66.3364 26.5144 66.3489 24.3132 66.3305 21.7111L66.2969 16.9799L65.3129 19.3457ZM0 55.2169V65H51.5572H103.114V55.2169V45.4339H51.5572H0V55.2169ZM18.5682 52.2478C17.9151 52.6155 17.6116 53.2169 17.6114 54.143C17.6111 55.0189 17.8942 55.4909 18.8657 56.2348C19.7399 56.9041 19.8619 57.1197 19.5965 57.5257C19.3555 57.8942 18.7737 57.9444 18.2028 57.646C18.0016 57.5408 17.7863 57.4549 17.7242 57.4549C17.662 57.4549 17.6111 57.8016 17.6111 58.2254C17.6111 58.9463 17.6337 59.005 17.9621 59.1376C18.5985 59.3946 19.5857 59.4161 20.2718 59.1877C21.4293 58.8025 22.0029 57.7558 21.762 56.4688C21.6709 55.9817 21.1166 55.3496 20.1271 54.604C19.1751 53.8868 19.7629 53.074 20.8453 53.6107C21.1294 53.7515 21.389 53.8396 21.4221 53.8064C21.4553 53.7731 21.5087 53.4297 21.5407 53.0429L21.5989 52.3397L21.1405 52.1479C20.4354 51.8526 19.1832 51.9012 18.5682 52.2478ZM46.6434 52.0522L45.4945 52.0926L44.5265 55.573C43.9942 57.4873 43.6017 59.1029 43.6541 59.1634C43.7067 59.224 44.1513 59.2331 44.6423 59.1837L45.5347 59.0938L45.689 58.2744L45.8433 57.4549H46.5897H47.336L47.4601 57.9345C47.5283 58.1983 47.6022 58.5579 47.6244 58.7337C47.6635 59.0421 47.7022 59.0547 48.7177 59.0905C49.598 59.1216 49.7706 59.0954 49.7706 58.9302C49.7706 58.7633 49.4786 57.592 48.1935 52.6052C48.1133 52.2941 47.9903 52.0333 47.9201 52.0256C47.8499 52.0181 47.2754 52.03 46.6434 52.0522ZM51.1424 52.0508C50.6687 52.0754 50.2814 52.136 50.2821 52.1856C50.2829 52.2722 50.4546 52.9428 51.5489 57.1352L52.0497 59.0534H53.1676H54.2855L54.8174 57.0073C55.1101 55.8819 55.5251 54.3138 55.7397 53.5225L56.1302 52.0838H55.207H54.2839L53.858 54.2578C53.6238 55.4535 53.3965 56.4318 53.353 56.4318C53.3094 56.4318 53.1067 55.5543 52.9025 54.4816C52.4753 52.2368 52.3898 51.9466 52.1666 51.981C52.0771 51.9948 51.6162 52.0261 51.1424 52.0508ZM59.4446 52.0511C58.5298 52.0861 58.3238 52.132 58.2716 52.3125C57.6679 54.3966 56.4066 59.0195 56.4066 59.1481C56.4066 59.2666 56.9356 59.2729 57.7308 59.1637C58.2376 59.0941 58.3358 59.033 58.3995 58.7481C58.4405 58.5643 58.528 58.1983 58.5939 57.9345L58.7136 57.4549H59.4599H60.2063L60.3628 58.2861L60.5192 59.1174H61.5895C62.1782 59.1174 62.6599 59.0822 62.6599 59.0392C62.6599 58.7865 60.9384 52.2474 60.8372 52.1158C60.7696 52.0279 60.6784 51.9678 60.6343 51.9823C60.5902 51.9967 60.0548 52.0277 59.4446 52.0511ZM76.1183 52.0508L74.9647 52.0926L74.4884 53.8467C74.2265 54.8113 73.7912 56.3931 73.5212 57.3618C73.2435 58.3577 73.0817 59.1548 73.1487 59.1963C73.2139 59.2367 73.6602 59.2302 74.1407 59.1818L75.0142 59.0938L75.1696 58.2687L75.3249 57.4435L76.1038 57.4811L76.8828 57.5188L77.0136 58.2861L77.1444 59.0534L78.1972 59.0905C79.0655 59.1212 79.2501 59.094 79.2501 58.9354C79.2501 58.7213 77.5996 52.2034 77.5069 52.0518C77.4748 51.999 77.4087 51.9678 77.3602 51.9825C77.3117 51.9971 76.7529 52.0278 76.1183 52.0508ZM81.1962 52.0428L80.3986 52.096V55.6574V59.2187L82.281 59.1537C83.9567 59.096 84.2211 59.0557 84.6904 58.7871C85.283 58.4477 85.6322 57.7727 85.629 56.9728C85.6266 56.3515 85.4042 55.9289 84.9012 55.5892L84.4942 55.3144L84.8036 55.0231C85.6331 54.2422 85.4692 52.6621 84.5125 52.2163C84.1379 52.0417 82.4962 51.9558 81.1962 52.0428ZM5.23229 55.5888V59.1174H6.2896H7.34703L7.29573 57.8385C7.2665 57.1086 7.29483 56.5597 7.36183 56.5597C7.42641 56.5597 7.67411 57.164 7.91224 57.9025L8.34538 59.2453H9.06998C9.46853 59.2453 9.96675 59.2107 10.1771 59.1687L10.5595 59.0919L9.92987 57.6279L9.30021 56.1639L9.68472 55.7252C10.1277 55.2195 10.2755 54.615 10.1607 53.7769C10.0674 53.0942 9.83492 52.6906 9.35215 52.3733C9.07254 52.1896 8.65893 52.1397 7.12064 52.104L5.23229 52.0604V55.5888ZM11.9312 55.5941C11.9322 58.9956 11.9401 59.1064 12.1874 59.173C12.3278 59.2109 13.2535 59.2426 14.2445 59.2435L16.0463 59.2453L16.1254 58.7657C16.1689 58.502 16.2052 58.1279 16.2059 57.9345L16.2073 57.5828H15.0907H13.974V56.9434V56.3039H14.8874H15.8009L15.8445 55.5897C15.8686 55.1967 15.8644 54.8515 15.8351 54.8224C15.8059 54.7933 15.3896 54.7694 14.9099 54.7694H14.0379V54.1939V53.6184H14.9826H15.9275L15.9806 52.947C16.0098 52.5777 16.012 52.2325 15.9853 52.1797C15.9587 52.1269 15.0356 52.0838 13.9336 52.0838H11.9303L11.9312 55.5941ZM23.4042 54.9229C23.5012 57.992 23.5858 58.393 24.231 58.8464C25.0759 59.44 26.7304 59.534 27.578 59.0367C28.5661 58.4567 28.7006 57.9227 28.7082 54.5456L28.7138 52.0838H27.8316H26.9495L26.9064 54.7798C26.8665 57.2733 26.8447 57.4894 26.6156 57.6572C26.3041 57.8852 26.1464 57.8852 25.8349 57.6572C25.6056 57.4894 25.5842 57.2761 25.5481 54.7798L25.5091 52.0838H24.4117H23.3144L23.4042 54.9229ZM30.6152 52.1797C30.6081 52.2325 30.6098 53.8294 30.619 55.7285L30.6356 59.1813L31.0147 59.1742C31.2231 59.1703 32.1116 59.1559 32.989 59.1422L34.5842 59.1174V58.3501V57.5828H33.627H32.6699V54.8333V52.0838H31.649C31.0875 52.0838 30.6223 52.1269 30.6152 52.1797ZM34.6693 52.1691C34.6224 52.2159 34.5842 52.5612 34.5842 52.9364V53.6184H35.2861H35.9879V56.4318V59.2453H36.4167C36.6527 59.2453 37.1121 59.2087 37.4377 59.1639L38.0298 59.0826V56.3505V53.6184H38.7155H39.4012L39.467 52.947C39.5032 52.5777 39.5071 52.2325 39.4757 52.1797C39.405 52.0612 34.7871 52.0509 34.6693 52.1691ZM63.8084 55.6827V59.2817L64.5929 59.1995C65.0242 59.1543 65.5124 59.1174 65.6776 59.1174H65.9779V55.6006V52.0838H64.8932H63.8084V55.6827ZM67.922 55.6326L67.956 59.1813L69.8702 59.135C70.9231 59.1094 71.7909 59.0807 71.7986 59.0711C71.8064 59.0614 71.8501 58.7226 71.8955 58.3181L71.9781 57.5828H70.9672H69.9562L70.0283 54.8333L70.1006 52.0838H68.9943H67.8881L67.922 55.6326ZM87.1922 55.6326L87.2261 59.1813L89.1404 59.135C90.1932 59.1094 91.0671 59.0777 91.0824 59.0644C91.0978 59.0513 91.1487 58.7124 91.1958 58.3116L91.2811 57.5828H90.3065H89.3318V54.8333V52.0838H88.245H87.1582L87.1922 55.6326ZM92.5222 55.5948V59.1057L92.937 59.1816C93.1651 59.2234 94.0983 59.2404 95.0107 59.2194L96.6698 59.1813L96.7078 58.382L96.7457 57.5828H95.6549H94.5641V56.9434V56.3039H95.4425C96.4215 56.3039 96.473 56.2515 96.4765 55.2489L96.4783 54.7694H95.5212H94.5641V54.1992V53.6291L95.5531 53.5918L96.5421 53.5545L96.5804 52.8191L96.6187 52.0838H94.5705H92.5222V55.5948ZM82.4405 54.1299C82.4405 54.8025 82.4709 54.8972 82.6867 54.8972C83.0553 54.8972 83.3338 54.5466 83.3338 54.0825C83.3338 53.5958 83.1396 53.3626 82.734 53.3626C82.4604 53.3626 82.4405 53.4146 82.4405 54.1299ZM7.27416 54.3857C7.27416 55.0511 7.30594 55.153 7.51382 55.153C7.85737 55.153 8.06538 54.844 8.06538 54.3337C8.06538 53.7632 7.96827 53.6184 7.58567 53.6184C7.28998 53.6184 7.27416 53.6574 7.27416 54.3857ZM46.414 54.7862C46.1391 55.964 46.1409 56.0482 46.4421 56.0482C47.0318 56.0482 47.0615 55.9755 46.8767 54.9874C46.782 54.4806 46.6886 54.016 46.6692 53.955C46.6498 53.894 46.535 54.2681 46.414 54.7862ZM75.8957 54.8049C75.6201 56.0571 75.6196 56.0486 75.9639 56.0463C76.4974 56.0426 76.5332 55.9195 76.3177 54.8333L76.1146 53.8102L75.8957 54.8049ZM59.2219 54.9102C59.1376 55.3393 59.0378 55.7709 59.0002 55.8693C58.9534 55.9917 59.0267 56.0475 59.2325 56.0463C59.8229 56.0424 59.8809 55.9131 59.7095 54.9814C59.6233 54.5131 59.513 54.1299 59.464 54.1299C59.4151 54.1299 59.3061 54.4811 59.2219 54.9102ZM82.4405 57.0712C82.4405 57.791 82.4591 57.8385 82.7397 57.8385C83.355 57.8385 83.703 56.948 83.2609 56.5049C83.1505 56.3944 82.9208 56.3039 82.7505 56.3039C82.4567 56.3039 82.4405 56.3441 82.4405 57.0712Z" fill="#191919"/>
</svg>
