<svg width="87" height="87" viewBox="0 0 87 87" fill="none" xmlns="http://www.w3.org/2000/svg">
<g clip-path="url(#clip0_1420_6887)">
<path d="M43.5 82.998C21.837 82.998 4.089 65.163 4.089 43.5C4.089 38.628 4.959 34.017 6.612 29.667L29.667 76.038C29.928 76.647 30.363 77.169 31.059 77.169C31.755 77.169 32.19 76.647 32.451 76.038L43.065 52.287C43.152 52.026 43.326 51.765 43.587 51.765C43.848 51.765 43.935 52.026 44.109 52.287L54.723 76.038C54.984 76.647 55.419 77.169 56.115 77.169C56.811 77.169 57.246 76.647 57.507 76.038L80.562 29.667C82.215 34.017 83.085 38.628 83.085 43.5C82.911 65.163 65.163 82.998 43.5 82.998ZM43.5 34.539C43.239 34.539 43.152 34.278 42.978 34.017L30.624 6.177C34.626 4.698 38.976 3.915 43.5 3.915C48.024 3.915 52.374 4.698 56.376 6.177L44.022 34.017C43.848 34.365 43.761 34.539 43.5 34.539ZM30.885 63.162C30.624 63.162 30.537 62.901 30.363 62.64L10.353 22.272C13.92 16.791 18.705 12.18 24.534 8.961L38.976 41.064C39.15 41.586 39.585 41.76 40.02 41.76H46.98C47.502 41.76 47.85 41.673 48.111 41.064L62.553 8.961C68.295 12.18 73.167 16.791 76.734 22.272L56.55 62.64C56.463 62.901 56.289 63.162 56.028 63.162C55.767 63.162 55.68 62.901 55.506 62.64L47.937 45.414C47.676 44.805 47.328 44.718 46.806 44.718H39.846C39.324 44.718 38.976 44.805 38.715 45.414L31.407 62.64C31.32 62.901 31.146 63.162 30.885 63.162ZM43.5 87C67.599 87 87 67.599 87 43.5C87 19.401 67.599 0 43.5 0C19.401 0 0 19.401 0 43.5C0 67.599 19.401 87 43.5 87Z" fill="#191919"/>
</g>
<defs>
<clipPath id="clip0_1420_6887">
<rect width="87" height="87" fill="white"/>
</clipPath>
</defs>
</svg>
