<svg width="137" height="43" viewBox="0 0 137 43" fill="none" xmlns="http://www.w3.org/2000/svg">
<g clip-path="url(#clip0_1420_6841)">
<path fill-rule="evenodd" clip-rule="evenodd" d="M68.4275 0.450489C66.6908 1.02226 66.0846 1.5148 65.3586 2.94396C64.7477 4.14692 64.6246 6.24793 65.0958 7.43603C65.8076 9.23213 68.1008 10.6298 70.351 10.6397C74.3987 10.6574 76.8846 7.34299 75.685 3.52772C75.2272 2.07146 73.8575 0.848173 72.1405 0.362143C70.3781 -0.136658 70.1976 -0.132228 68.4275 0.450489ZM40.6042 13.0062C36.9307 13.6114 34.2877 14.9738 31.7263 17.5835C28.8865 20.4768 27.627 23.6267 27.6193 27.8559C27.6056 35.3947 32.9514 41.3269 40.8312 42.5168C44.3298 43.0453 48.1064 42.0332 51.372 39.6921L53.3198 38.2955V40.107V41.9182H56.8747H60.4296V27.7152V13.5121H56.8747H53.3198V15.5195V17.527L52.2943 16.5872C49.3063 13.8485 44.475 12.3685 40.6042 13.0062ZM119.849 13.1232C115.829 13.9559 112.656 16.2466 111.692 19.0122C111.103 20.7043 111.241 23.6535 111.978 25.1004C112.754 26.624 114.414 28.0714 116.314 28.8801C118.452 29.7901 119.862 30.113 123.219 30.4612C128.114 30.9691 129.34 31.5529 129.34 33.3774C129.34 34.8727 127.794 36.2816 125.698 36.6962C122.701 37.2891 117.6 35.8771 114.891 33.705C114.422 33.3284 113.927 33.0855 113.791 33.1655C113.656 33.2453 112.792 34.3586 111.871 35.6394L110.197 37.9682L111.626 39.1589C113.438 40.6697 116.431 42.0845 118.847 42.5723C121.291 43.0657 126.258 43.0618 128.472 42.5643C130.978 42.0014 133.008 40.9626 134.425 39.5183C136.75 37.1502 137.488 34.2423 136.578 31.0338C136.153 29.5355 135.857 29.0659 134.554 27.8228C133.48 26.7979 132.559 26.1995 131.445 25.8022C129.662 25.1664 125.748 24.4575 124.021 24.4575C122.405 24.4575 120.093 23.7481 119.326 23.0166C118.444 22.1759 118.443 20.7462 119.324 19.9066C120.186 19.0849 121.651 18.7273 124.163 18.7257C126.681 18.7239 128.586 19.2308 130.171 20.3248L131.364 21.1489L132.433 20.0017C133.022 19.3707 133.978 18.3148 134.558 17.6552L135.612 16.4556L134.398 15.624C130.68 13.08 124.876 12.0821 119.849 13.1232ZM1.09026 16.7649V20.0178L7.66489 20.0877L14.2398 20.1575L7.1199 29.6697L0 39.1819L0.0667226 40.6152L0.133172 42.0485H12.712H25.2909L25.3671 38.5955L25.4434 35.1425H18.5699C13.1493 35.1425 11.7243 35.0729 11.8288 34.8136C11.9015 34.6327 14.9297 30.5595 18.5576 25.7616L25.1541 17.0386V15.2753V13.5121H13.1222H1.09026V16.7649ZM80.4576 27.7803L80.5284 42.0485H84.22H87.9116L88.0483 35.7591L88.1851 29.4696L93.9276 35.8216L99.6701 42.1734L104.114 42.1762C107.62 42.1783 108.557 42.1061 108.557 41.8338C108.557 41.6441 105.512 38.2875 101.789 34.3747C98.0668 30.4622 94.9817 27.1617 94.9333 27.0407C94.8849 26.9196 97.5612 23.9225 100.881 20.3803C104.201 16.8384 106.917 13.8438 106.917 13.7263C106.917 13.6085 104.898 13.5121 102.431 13.5121H97.9457L93.0654 19.0799L88.1851 24.6478L88.1112 19.0799L88.0377 13.5121H84.2123H80.387L80.4576 27.7803ZM40.9821 19.5897C38.5036 20.4728 36.7529 22.0175 35.6695 24.2774C35.0323 25.606 34.9558 26.0524 35.0422 27.926C35.1581 30.4377 35.8188 31.9537 37.4918 33.5481C39.1235 35.1031 40.7647 35.7682 43.2518 35.8818C45.9962 36.0072 47.6716 35.4794 49.4986 33.9142C51.3802 32.3019 52.2768 30.5608 52.439 28.2049C52.675 24.7783 51.0578 21.9862 47.877 20.3282C46.3951 19.5555 45.8064 19.4015 44.0486 19.3262C42.7495 19.2704 41.601 19.3689 40.9821 19.5897Z" fill="#191919"/>
</g>
<defs>
<clipPath id="clip0_1420_6841">
<rect width="137" height="43" fill="white"/>
</clipPath>
</defs>
</svg>
