<svg width="100" height="100" viewBox="0 0 100 100" fill="none" xmlns="http://www.w3.org/2000/svg">
<rect width="100" height="100" fill="white"/>
<path d="M43.0961 54.0173L41.4854 54.2422L41.0459 52.7506L43.0961 54.0173Z" fill="#191919"/>
<path d="M59.0665 47.9371L58.216 47.9998C58.8625 48.5837 59.1884 49.2214 59.1884 49.9139C59.1884 51.099 58.2857 52.125 56.4809 52.9923C54.6763 53.8604 52.5071 54.2937 49.9727 54.2937C47.7654 54.2937 46.0639 54.0484 44.4018 53.3754L43.8779 53.8886C45.6266 54.5147 47.6279 54.8281 49.8837 54.8281C52.7273 54.8281 55.1611 54.3419 57.1861 53.3679C59.2109 52.3947 60.2236 51.2435 60.2236 49.9139C60.2236 49.2041 59.6718 48.3391 59.0665 47.9371Z" fill="#191919"/>
<path d="M40.817 52.2344L42.0827 52.1393C41.2276 51.4741 40.8002 50.734 40.8002 49.9181C40.8002 48.7606 41.6954 47.7556 43.4859 46.9014C45.2761 46.0473 47.4254 45.5931 49.9328 45.5377C52.1791 45.5863 54.1346 45.9419 55.7992 46.6049L56.3271 46.3239C54.6466 45.5567 52.2033 45.0544 49.8385 45.0033C47.0255 45.0654 44.6139 45.5749 42.6054 46.5333C40.5962 47.4917 39.5918 48.6194 39.5918 49.9181C39.5918 50.7623 40.0012 51.5339 40.817 52.2344Z" fill="#191919"/>
<path d="M69.8855 51.1751C69.8855 51.9247 69.47 52.5213 68.6387 52.9658C67.8072 53.4106 66.6425 53.6328 65.145 53.6328H60.088V51.7037H63.9861C64.126 51.7037 64.9217 51.7019 65.0395 51.7019C65.6711 51.7019 65.9879 51.5263 65.9879 51.1751C65.9879 50.7774 65.4841 50.3909 64.4777 50.0164C62.7448 49.4544 61.7964 49.1266 61.6327 49.0325C60.6494 48.6587 60.1344 48.0968 60.088 47.347C60.0414 46.7621 60.5328 46.1884 61.5628 46.1884H69.2186H69.9911V47.5931H69.2186H66.5399C65.9848 47.5931 65.2882 47.4756 65.2882 47.9865C65.2882 48.4333 65.9472 48.6455 66.4693 48.8299C67.479 49.1866 68.2152 49.4446 68.8009 49.7141C69.3858 49.9835 69.8855 50.3327 69.8855 51.1751Z" fill="#191919"/>
<path d="M79.7177 46.1605L85.5122 53.6406H69.9551L75.7146 46.1605H79.7177ZM77.6809 48.338L75.2577 51.7797H80.1392L77.6809 48.338Z" fill="#191919"/>
<path d="M86.5303 53.6328V49.8057V46.1884H93.5539C94.9816 46.1884 96.129 46.446 96.9954 46.9607C97.7213 47.4054 98.0842 47.9327 98.0842 48.5408C98.0842 49.3609 97.5218 49.8755 96.3981 50.0866C97.6388 50.6951 98.2595 51.5146 98.2595 52.5449V53.6328H94.3967V52.5094C94.4198 51.9478 94.139 51.4911 93.5539 51.1398C93.0622 50.8357 92.5821 50.6834 92.1135 50.6834H89.7257V53.6328H86.5303ZM89.7257 47.9792V48.9273H93.5539C93.9747 48.9039 94.2323 48.7403 94.3263 48.4356C94.2323 48.1313 93.9747 47.9792 93.5539 47.9792H89.7257Z" fill="#191919"/>
<path fill-rule="evenodd" clip-rule="evenodd" d="M54.5078 50.801C55.5069 49.9586 55.9103 49.1627 55.717 48.4134C55.5282 47.6821 54.7938 47.194 53.5137 46.9483C52.2341 46.7029 50.7798 46.7721 49.1521 47.1547C47.5763 47.5985 46.2917 48.2362 45.2996 49.0681C44.3071 49.9002 43.9054 50.6816 44.094 51.4126C44.2875 52.1618 45.0248 52.6633 46.3071 52.9171C47.5886 53.1718 49.0218 53.0938 50.6067 52.685C52.2083 52.2716 53.509 51.644 54.5078 50.801ZM47.9919 51.1646C47.3329 51.1302 46.9678 50.9737 46.8957 50.695C46.8242 50.4168 47.0493 50.1217 47.5728 49.8101C48.0958 49.4987 48.758 49.2395 49.5596 49.0328C50.3602 48.8262 51.0693 48.7314 51.6868 48.7485C52.304 48.7656 52.64 48.916 52.6945 49.1987C52.7491 49.5561 52.5119 49.8958 51.982 50.2184C51.4523 50.5409 50.7998 50.7833 50.0251 50.946C49.3288 51.1258 48.6509 51.1988 47.9919 51.1646Z" fill="#191919"/>
<path d="M56.4268 47.0449L57.6111 46.247L58.3455 47.5L56.4268 47.0449Z" fill="#191919"/>
<path d="M11.5695 46.1918L17.2495 53.5234H2L7.64544 46.1918H11.5695ZM9.57289 48.326L7.1973 51.699H11.9823L9.57289 48.326Z" fill="#191919"/>
<path d="M21.6316 50.7357C21.6542 51.1491 21.7401 51.4017 21.8894 51.4928C22.0389 51.5848 22.5956 51.6304 23.5597 51.6304H25.4526V46.1918H29.3081V53.5234H23.5597C22.0451 53.5234 21.0008 53.4667 20.4268 53.3517C19.5319 53.2605 18.8893 53.0191 18.4993 52.6285C18.0401 52.2619 17.8105 51.6304 17.8105 50.7357V46.1918H21.6316V50.7357Z" fill="#191919"/>
<path d="M39.8796 47.7748H36.7474V49.0141V53.5234H33.2362V47.7748H30.2764V46.1918H39.8796V47.7748Z" fill="#191919"/>
</svg>
