<svg width="100" height="100" viewBox="0 0 100 100" fill="none" xmlns="http://www.w3.org/2000/svg">
<rect width="100" height="100" fill="white"/>
<path fill-rule="evenodd" clip-rule="evenodd" d="M69.8701 36.3279C70.5788 36.7384 71.1074 37.2575 71.4601 37.8769L71.4604 37.8767C71.8198 38.5067 71.9975 39.2407 71.9979 40.0713C72.0001 46.8575 72.0001 60.4258 72.0001 60.4258C72.0001 60.4878 71.9991 60.5492 71.997 60.6102C71.973 61.348 71.8031 62.0061 71.4863 62.5794C71.1332 63.2172 70.5973 63.751 69.872 64.1707C67.4216 65.5834 64.9704 66.9942 62.5191 68.405L62.5116 68.4093L62.5097 68.4104C59.1091 70.3676 55.7086 72.3248 52.3108 74.2867C50.7331 75.1976 49.2038 75.1645 47.6377 74.2403C46.2302 73.41 41.4134 70.6413 37.055 68.1361C34.2018 66.4961 31.5452 64.9691 30.1702 64.1728C29.4449 63.7529 28.909 63.2194 28.5559 62.5812C28.2125 61.9606 28.042 61.2406 28.042 60.4284C28.0431 57.0353 28.0431 53.6423 28.0431 50.2493C28.0431 46.8563 28.0431 43.4633 28.0442 40.0702C28.0446 38.4225 28.741 37.1545 30.1721 36.326C31.55 35.528 34.2149 33.996 37.0748 32.3519C41.4279 29.8494 46.2326 27.0873 47.6383 26.2583C49.204 25.3345 50.7331 25.3013 52.3103 26.2119C55.6481 28.1391 58.9885 30.0619 62.3289 31.9846C64.843 33.4318 67.3571 34.8789 69.8701 36.3279ZM69.1502 51.068H70.8223V49.3963H69.1502V47.7241H67.4777V49.3963H65.8058V51.068H67.4777V52.7405H69.1502V51.068ZM62.5862 42.8122C60.0428 38.5247 55.3683 35.6503 50.0221 35.6503C41.9597 35.6503 35.4242 42.1861 35.4242 50.2479C35.4242 52.8928 36.1279 55.3732 37.3577 57.5125C39.8767 61.8949 44.6048 64.8458 50.0221 64.8458C55.4494 64.8458 60.1848 61.8831 62.7004 57.4878L56.3562 53.8121L56.3148 53.8848C55.0575 56.0557 52.7109 57.517 50.0221 57.517C47.32 57.517 44.9647 56.0416 43.7117 53.8544C43.0823 52.7568 42.7517 51.5132 42.753 50.2479C42.753 46.2335 46.0075 42.9791 50.0221 42.9791C52.7068 42.9791 55.0498 44.436 56.3089 46.6011L62.6624 42.9425L62.5862 42.8122ZM63.0489 49.3961V47.724L61.3768 47.7241V49.3963H59.7047V51.068H61.3768V52.7405H63.0489V51.068H64.7209V49.3961H63.0489Z" fill="#191919"/>
</svg>
