<svg width="100" height="100" viewBox="0 0 100 100" fill="none" xmlns="http://www.w3.org/2000/svg">
<rect width="100" height="100" fill="white"/>
<path fill-rule="evenodd" clip-rule="evenodd" d="M70.0074 36.8747L50.8097 25.8251C50.4917 25.6264 50.0545 25.5469 49.5775 25.5469C49.1006 25.5469 48.6633 25.6661 48.3454 25.8251L29.2669 36.9145C28.5912 37.3119 28.1143 38.3056 28.1143 39.0608V61.1997C28.1143 61.6102 28.1843 62.0906 28.4559 62.5096L28.3922 62.5467C28.5909 62.8646 28.8691 63.1429 29.1474 63.3019L48.3053 74.3912C48.6233 74.59 49.0605 74.6694 49.5375 74.6694C50.0144 74.6694 50.4516 74.5502 50.7696 74.3912L69.8481 63.3019C70.5238 62.9044 71.0007 61.9107 71.0007 61.1555V39.0166C71.0007 38.6996 70.9695 38.3515 70.8242 38.0275L70.9613 37.9479C70.7228 37.4709 70.3651 37.1132 70.0074 36.8747ZM49.5773 59.8477C53.1943 59.8477 56.374 57.8604 58.0434 54.9191L63.1707 57.9399C60.4679 62.63 55.3803 65.8098 49.5773 65.8098C40.9125 65.8098 33.8773 58.7746 33.8773 50.1098C33.8773 41.445 40.9125 34.4098 49.5773 34.4098C55.4201 34.4098 60.5077 37.6293 63.2105 42.3591L58.0434 45.3402C56.374 42.3591 53.1943 40.3718 49.5773 40.3718C44.2115 40.3718 39.8393 44.744 39.8393 50.1098C39.8393 55.4756 44.2115 59.8477 49.5773 59.8477ZM63.0515 49.2751L62.6937 50.9842V50.9445H61.3821V52.8126H62.336L61.8591 55.1974H63.7669L64.2439 52.8126H65.7542L65.2773 55.1974H67.2249L67.7018 52.8126H69.7289V50.9445H68.0596L68.4173 49.2353H69.7289V47.3672H68.775L69.252 44.9427H67.3441L66.8672 47.3672H65.3568L65.8337 44.9427H63.8862L63.4092 47.407H61.3821V49.2751H63.0515ZM66.4697 49.2751L66.112 50.9842H64.6016L64.9593 49.2751H66.4697Z" fill="white"/>
</svg>
