<svg width="100" height="100" viewBox="0 0 100 100" fill="none" xmlns="http://www.w3.org/2000/svg">
<rect width="100" height="100" fill="white"/>
<path d="M44.5156 51.7384C44.5156 51.7384 42.8792 52.6906 45.6821 53.0125C49.0776 53.4002 50.8132 53.3444 54.5544 52.6373C54.5544 52.6373 55.5405 53.2537 56.9139 53.7879C48.5245 57.3822 37.9266 53.5796 44.5156 51.7384ZM43.4896 47.0469C43.4896 47.0469 41.6539 48.4067 44.4588 48.6968C48.0864 49.071 50.9502 49.1019 55.9093 48.1471C55.9093 48.1471 56.5935 48.8428 57.6713 49.222C47.5298 52.1889 36.2338 49.4557 43.4896 47.0469Z" fill="white"/>
<path d="M52.1327 39.0954C54.2012 41.4763 51.5906 43.617 51.5906 43.617C51.5906 43.617 56.8392 40.9077 54.4289 37.5138C52.1771 34.3501 50.4515 32.7789 59.7961 27.3594C59.7961 27.3594 45.1271 31.0219 52.1327 39.0954Z" fill="white"/>
<path d="M63.2282 55.2094C63.2282 55.2094 64.4401 56.2085 61.8938 56.9808C57.0523 58.4473 41.7404 58.8898 37.4874 57.0391C35.9596 56.3739 38.8264 55.451 39.7278 55.2572C40.6681 55.0534 41.2053 55.0908 41.2053 55.0908C39.5051 53.8933 30.2152 57.4423 36.4868 58.4603C53.5906 61.2323 67.6641 57.2115 63.2282 55.2094ZM45.3043 42.1867C45.3043 42.1867 37.5163 44.0369 42.5467 44.7096C44.6715 44.9937 48.904 44.9284 52.8496 44.5975C56.0731 44.3269 59.3081 43.7484 59.3081 43.7484C59.3081 43.7484 58.1724 44.2358 57.3497 44.7968C49.4397 46.8773 34.1623 45.9081 38.5608 43.7813C42.2796 41.9819 45.3043 42.1867 45.3043 42.1867ZM59.2757 49.9951C67.3158 45.8184 63.5979 41.804 61.0033 42.3447C60.369 42.4772 60.0839 42.5919 60.0839 42.5919C60.0839 42.5919 60.3206 42.2211 60.7706 42.0622C65.9041 40.2583 69.8511 47.3845 59.1152 50.2069C59.1152 50.2069 59.2383 50.0953 59.2757 49.9951Z" fill="white"/>
<path d="M54.4295 18.6016C54.4295 18.6016 58.8818 23.0559 50.2059 29.904C43.2486 35.3988 48.6193 38.5311 50.2029 42.1114C46.1417 38.4469 43.1629 35.2209 45.1611 32.2192C48.0955 27.8132 56.2253 25.676 54.4295 18.6016Z" fill="white"/>
<path d="M46.0955 61.3162C53.8112 61.8096 65.6633 61.0417 65.9438 57.3906C65.9438 57.3906 65.4047 58.7744 59.5661 59.8727C52.9795 61.1124 44.8547 60.9684 40.0371 60.1731C40.0371 60.1731 41.0237 60.9904 46.0955 61.3162Z" fill="white"/>
<path d="M65.5865 67.867H65.3513V67.7354H65.9841V67.867H65.7499V68.5233H65.586L65.5865 67.867ZM66.8497 67.8999H66.8467L66.6135 68.5233H66.5059L66.2741 67.8999H66.2717V68.5233H66.1162V67.7354H66.3439L66.5587 68.293L66.7739 67.7354H67.0002V68.5233H66.8497V67.8999ZM44.8297 75.2698C44.1022 75.9006 43.3328 76.2554 42.6417 76.2554C41.658 76.2554 41.1243 75.6644 41.1243 74.7181C41.1243 73.6941 41.6954 72.9442 43.9836 72.9442H44.8292L44.8297 75.2698ZM46.8384 77.536V70.5215C46.8384 68.7281 45.8154 67.5451 43.3518 67.5451C41.9137 67.5451 40.653 67.9009 39.6279 68.3533L39.9229 69.5956C40.7302 69.2991 41.7741 69.0241 42.7986 69.0241C44.2188 69.0241 44.8292 69.5956 44.8292 70.7786V71.6651H44.1196C40.6709 71.6651 39.1147 73.003 39.1147 75.0151C39.1147 76.7487 40.1402 77.7339 42.0711 77.7339C43.3119 77.7339 44.2392 77.2216 45.1048 76.4717L45.2622 77.5365L46.8384 77.536ZM53.5415 77.536H51.0366L48.0213 67.725H50.2094L52.081 73.7539L52.4971 75.5653C53.4419 72.9452 54.1116 70.2853 54.4465 67.7255H56.5747C56.0051 70.955 54.9786 74.5014 53.5415 77.536ZM63.1528 75.2698C62.4228 75.9006 61.6529 76.2554 60.9642 76.2554C59.9796 76.2554 59.4464 75.6644 59.4464 74.7181C59.4464 73.6941 60.019 72.9442 62.3047 72.9442H63.1523L63.1528 75.2698ZM65.1624 77.536V70.5215C65.1624 68.7281 64.1364 67.5451 61.6748 67.5451C60.2352 67.5451 58.975 67.9009 57.95 68.3533L58.2455 69.5956C59.0528 69.2991 60.0982 69.0241 61.1227 69.0241C62.5409 69.0241 63.1528 69.5956 63.1528 70.7786V71.6651H62.4432C58.9935 71.6651 57.4378 73.003 57.4378 75.0151C57.4378 76.7487 58.4623 77.7339 60.3927 77.7339C61.634 77.7339 62.5598 77.2216 63.4278 76.4717L63.5863 77.5365L65.1624 77.536ZM36.9122 79.2034C36.3406 80.04 35.4148 80.7023 34.4023 81.0755L33.4111 79.907C34.182 79.5113 34.8423 78.873 35.1497 78.278C35.4148 77.7483 35.5249 77.0671 35.5249 75.4372V64.2344H37.6597V75.2832C37.6597 77.4633 37.4862 78.3448 36.9122 79.2034Z" fill="white"/>
</svg>
