<svg width="100" height="100" viewBox="0 0 100 100" fill="none" xmlns="http://www.w3.org/2000/svg">
<rect width="100" height="100" fill="white"/>
<path d="M76.7631 45.8438C76.7358 45.8437 76.7091 45.8518 76.6864 45.867L75.4462 46.5913C75.4229 46.6057 75.4037 46.626 75.3905 46.6501C75.3774 46.6742 75.3707 46.7013 75.3711 46.7287V48.1772C75.3711 48.2385 75.4002 48.285 75.4462 48.3157L76.6864 49.0389C76.7091 49.0541 76.7358 49.0622 76.7631 49.0622C76.7904 49.0622 76.8171 49.0541 76.8397 49.0389L78.0778 48.3157C78.1013 48.3009 78.1207 48.2804 78.1341 48.2561C78.1475 48.2317 78.1545 48.2044 78.1545 48.1767V46.7298C78.1547 46.7022 78.1478 46.675 78.1344 46.6509C78.1209 46.6267 78.1014 46.6066 78.0778 46.5923L76.8392 45.8675C76.8167 45.8524 76.7902 45.8438 76.7631 45.8438ZM49.7531 54.505C49.5274 54.505 49.3027 54.56 49.1113 54.6679L43.006 58.224C42.8104 58.339 42.6483 58.5031 42.5357 58.7C42.4231 58.897 42.364 59.12 42.3643 59.3469V66.4429C42.3643 66.9049 42.6085 67.3363 43.006 67.5678L44.6131 68.4908C45.3934 68.8757 45.6688 68.8746 46.0204 68.8746C47.1675 68.8746 47.8257 68.1668 47.8257 66.9504V59.9485C47.825 59.8997 47.8054 59.8532 47.7711 59.8186C47.7368 59.784 47.6904 59.764 47.6417 59.7629H46.8625C46.8136 59.7637 46.7669 59.7836 46.7324 59.8182C46.6978 59.8528 46.6781 59.8996 46.6775 59.9485V66.9519C46.6775 67.4906 46.1123 68.0304 45.2099 67.5689L43.5421 66.5988C43.4808 66.5681 43.4496 66.4899 43.4496 66.4286V59.331C43.4496 59.2697 43.4808 59.1936 43.5421 59.1624L49.6453 55.6221C49.6913 55.5914 49.7684 55.5914 49.8298 55.6221L55.9345 59.1624C55.9953 59.1936 56.0255 59.2544 56.0255 59.3315V66.4281C56.0255 66.5047 55.9953 66.5676 55.9345 66.5983L49.8298 70.1545C49.7838 70.1851 49.7066 70.1851 49.6453 70.1545L48.0852 69.214C48.0392 69.1833 47.9779 69.168 47.9319 69.1987C47.5037 69.445 47.4287 69.4773 47.0153 69.6158C46.9233 69.6464 46.7705 69.7072 47.0761 69.8764L49.1113 71.0933C49.3101 71.2006 49.5237 71.262 49.7531 71.262C49.9825 71.262 50.2114 71.2012 50.3949 71.1245L56.5002 67.5683C56.6961 67.4532 56.8585 67.2888 56.9711 67.0914C57.0837 66.8941 57.1426 66.6706 57.1419 66.4434V59.3469C57.1419 58.8848 56.8977 58.4551 56.5002 58.224L50.3949 54.6679C50.1982 54.56 49.9774 54.504 49.7531 54.505ZM59.2845 57.7456C58.9712 57.7469 58.6712 57.8725 58.4505 58.0948C58.2297 58.3172 58.1063 58.6181 58.1073 58.9314C58.1064 59.2446 58.2299 59.5453 58.4507 59.7676C58.6714 59.9898 58.9713 60.1153 59.2845 60.1166C59.9279 60.1166 60.4624 59.5779 60.4624 58.9314C60.4607 58.6188 60.3363 58.3194 60.116 58.0977C59.8957 57.876 59.5971 57.7492 59.2845 57.7456ZM59.2687 57.946C59.399 57.9444 59.5283 57.9687 59.6492 58.0175C59.77 58.0663 59.88 58.1387 59.9726 58.2304C60.0652 58.3221 60.1387 58.4313 60.1887 58.5516C60.2388 58.6719 60.2644 58.801 60.2641 58.9314C60.2641 59.4706 59.8201 59.9326 59.2692 59.9326C58.7342 59.9326 58.2902 59.4854 58.2902 58.9314C58.2902 58.3773 58.749 57.946 59.2687 57.946ZM58.841 58.269V59.6234H59.1022V59.0863H59.3316C59.4236 59.0863 59.4537 59.1169 59.469 59.1936C59.469 59.2094 59.5145 59.5478 59.5145 59.6091H59.7894C59.7587 59.5478 59.7434 59.3627 59.7281 59.2549C59.7133 59.0857 59.6985 58.9626 59.5145 58.9472C59.6065 58.916 59.7593 58.87 59.7593 58.6237C59.7593 58.2695 59.4526 58.2695 59.3004 58.2695L58.841 58.269ZM59.071 58.4847H59.2845C59.3617 58.4847 59.4833 58.4847 59.4833 58.6692C59.4833 58.7305 59.4537 58.8547 59.2845 58.8547H59.0704L59.071 58.4847ZM51.4215 59.5472C49.677 59.5472 48.6366 60.2863 48.6366 61.5333C48.6366 62.8729 49.677 63.2409 51.3448 63.4106C53.3484 63.6109 53.5017 63.9038 53.5017 64.304C53.5017 64.9965 52.9498 65.2894 51.6647 65.2894C50.0428 65.2894 49.6913 64.8886 49.5686 64.0729C49.5686 63.9804 49.4935 63.9196 49.4016 63.9196H48.6059C48.5573 63.9202 48.5109 63.9399 48.4767 63.9744C48.4424 64.0089 48.4232 64.0555 48.423 64.1041C48.423 65.1509 48.9734 66.3826 51.6515 66.3826C53.5784 66.3826 54.6954 65.6118 54.6954 64.2574C54.6954 62.9332 53.8073 62.5795 51.9264 62.3332C50.0285 62.0868 49.8303 61.9483 49.8303 61.5022C49.8303 61.1326 49.9984 60.6405 51.4056 60.6405C52.6601 60.6405 53.1338 60.918 53.3177 61.7644C53.327 61.8026 53.3485 61.8367 53.3789 61.8615C53.4094 61.8863 53.4471 61.9005 53.4864 61.9018H54.2968C54.3433 61.9018 54.3893 61.8717 54.4205 61.841C54.4482 61.7998 54.4638 61.7516 54.4654 61.702C54.3433 60.2244 53.3801 59.5472 51.4215 59.5472Z" fill="white"/>
<path d="M61.8344 29.6719C61.7693 29.671 61.7051 29.6872 61.6483 29.719C61.5893 29.7536 61.5401 29.8028 61.5054 29.8618C61.4707 29.9209 61.4517 29.9878 61.4501 30.0562V40.0629C61.4501 40.1549 61.4025 40.2479 61.3111 40.3093C61.2688 40.3319 61.2216 40.3438 61.1736 40.3438C61.1256 40.3438 61.0784 40.3319 61.0362 40.3093L59.4153 39.3709C59.2964 39.303 59.1617 39.2672 59.0247 39.2672C58.8876 39.2672 58.753 39.303 58.634 39.3709L52.1486 43.1428C52.0286 43.2105 51.9286 43.3086 51.8587 43.4274C51.7888 43.5461 51.7515 43.6812 51.7505 43.8189V51.3468C51.7505 51.6238 51.9038 51.886 52.1486 52.0245L58.6351 55.7964C58.754 55.8643 58.8885 55.9 59.0255 55.9C59.1624 55.9 59.2969 55.8643 59.4159 55.7964L65.9018 52.0245C66.1465 51.886 66.2999 51.6238 66.2999 51.3468V32.5816C66.2999 32.2892 66.1465 32.0265 65.9018 31.8885L62.0321 29.719C61.9709 29.6883 61.9029 29.6722 61.8344 29.6719ZM23.5686 39.0638C23.4465 39.0638 23.3243 39.1082 23.2176 39.1695L16.7311 42.9276C16.6092 42.997 16.508 43.0977 16.438 43.2192C16.3681 43.3408 16.3318 43.4788 16.333 43.6191L16.3489 53.7172C16.3489 53.8563 16.4245 53.9948 16.5471 54.0566C16.604 54.0939 16.6705 54.1138 16.7385 54.1138C16.8065 54.1138 16.873 54.0939 16.9299 54.0566L20.7858 51.84C21.0306 51.7015 21.1823 51.4393 21.1823 51.1623V46.4362C21.1823 46.1592 21.3356 45.897 21.5809 45.7585L23.2176 44.8043C23.3397 44.7271 23.4782 44.6965 23.6156 44.6965C23.7531 44.6965 23.891 44.7271 23.9984 44.8043L25.635 45.7585C25.8798 45.897 26.0331 46.1592 26.0331 46.4362V51.1623C26.0331 51.4393 26.1854 51.7015 26.4296 51.84L30.2549 54.0566C30.3143 54.0946 30.3834 54.1147 30.4539 54.1147C30.5244 54.1147 30.5935 54.0946 30.6529 54.0566C30.7138 54.0235 30.7645 53.9744 30.7995 53.9146C30.8346 53.8548 30.8526 53.7866 30.8517 53.7172V43.6191C30.8517 43.3421 30.6984 43.0799 30.4531 42.9409L23.9825 39.1695C23.8735 39.1117 23.7543 39.0756 23.6315 39.0633L23.5686 39.0638ZM76.7855 39.1748C76.6517 39.1748 76.5191 39.2097 76.3964 39.2795L69.9089 43.0492C69.6641 43.1877 69.5124 43.4499 69.5124 43.7275V51.2554C69.5124 51.5324 69.6641 51.7946 69.9089 51.9331L76.3499 55.6267C76.4659 55.6947 76.5979 55.7306 76.7324 55.7306C76.8668 55.7306 76.9989 55.6947 77.1148 55.6267L81.0162 53.4418C81.077 53.4086 81.1276 53.3595 81.1625 53.2997C81.1975 53.2399 81.2154 53.1717 81.2145 53.1024C81.2152 53.0334 81.1972 52.9654 81.1623 52.9058C81.1273 52.8462 81.0769 52.7972 81.0162 52.7641L74.4996 48.9917C74.4404 48.9569 74.391 48.9075 74.3563 48.8481C74.3216 48.7888 74.3027 48.7216 74.3014 48.6528V46.2972C74.3006 46.2281 74.3187 46.1602 74.3536 46.1006C74.3885 46.041 74.439 45.992 74.4996 45.9589L76.5349 44.7885C76.5944 44.7505 76.6634 44.7304 76.734 44.7304C76.8045 44.7304 76.8735 44.7505 76.933 44.7885L78.9661 45.9584C79.0257 45.993 79.0754 46.0423 79.1104 46.1017C79.1454 46.161 79.1645 46.2283 79.166 46.2972V48.1448C79.166 48.2839 79.2421 48.4224 79.3642 48.4837C79.4237 48.5217 79.4929 48.5419 79.5635 48.5419C79.6341 48.5419 79.7033 48.5217 79.7628 48.4837L83.6171 46.2211C83.7353 46.1521 83.8331 46.053 83.9003 45.9338C83.9676 45.8146 84.002 45.6797 83.9999 45.5428V43.7111C83.9999 43.4341 83.8466 43.1735 83.6171 43.0344L77.1762 39.2789C77.0573 39.211 76.9229 39.1749 76.786 39.1743L76.7855 39.1748ZM59.0247 44.7964C59.059 44.7964 59.0939 44.8043 59.1251 44.8202L61.3422 46.1132C61.4036 46.1439 61.4348 46.22 61.4348 46.2819V48.868C61.4348 48.9452 61.4036 49.0076 61.3422 49.0382L59.1246 50.3313C59.0935 50.3465 59.0593 50.3544 59.0247 50.3544C58.99 50.3544 58.9559 50.3465 58.9248 50.3313L56.7071 49.0382C56.6458 49.0076 56.6146 48.9299 56.6146 48.868V46.2819C56.6146 46.2047 56.6463 46.1439 56.7071 46.1127L58.9248 44.8202C58.9558 44.8041 58.9897 44.7959 59.0247 44.7964Z" fill="white"/>
<path d="M41.6988 39.3152C41.5801 39.2469 41.4456 39.2109 41.3087 39.2109C41.1717 39.2109 41.0372 39.2469 40.9185 39.3152L34.4775 43.0564C34.3595 43.1252 34.2619 43.2242 34.1946 43.3432C34.1274 43.4622 34.0929 43.5969 34.0948 43.7335V51.2302C34.0948 51.5078 34.2481 51.7695 34.4775 51.908L40.9185 55.6486C41.0372 55.7169 41.1717 55.7528 41.3087 55.7528C41.4456 55.7528 41.5801 55.7169 41.6988 55.6486L48.1393 51.908C48.384 51.7695 48.522 51.5078 48.522 51.2302V43.7335C48.522 43.4565 48.3687 43.1943 48.1393 43.0564L41.6988 39.3152Z" fill="white"/>
<path d="M48.1542 43.0444L41.6831 39.3032C41.6196 39.271 41.553 39.2454 41.4843 39.2266L34.2324 51.711C34.2937 51.7882 34.3699 51.8495 34.4465 51.896L40.9182 55.6367C41.1016 55.7445 41.3157 55.7752 41.5145 55.7134L48.3229 43.1829C48.2782 43.1243 48.2204 43.0769 48.1542 43.0444Z" fill="white"/>
<path d="M48.1556 51.894C48.3395 51.7862 48.477 51.6017 48.5383 51.4013L41.4545 39.2092C41.2716 39.1786 41.0723 39.1939 40.9042 39.3018L34.4785 43.0271L41.409 55.7426C41.5005 55.7272 41.6078 55.6966 41.6998 55.6501L48.1556 51.894Z" fill="white"/>
</svg>
