<svg width="100" height="100" viewBox="0 0 100 100" fill="none" xmlns="http://www.w3.org/2000/svg">
<rect width="100" height="100" fill="white"/>
<path d="M16.2918 54.7115H14.022L14.6415 51.8333H16.822C18.2353 51.8333 18.5701 52.5325 18.5701 53.0863C18.5701 53.8676 18.0672 54.7115 16.2918 54.7115ZM22.426 52.9572H20.1586L20.778 50.0814H22.9539C24.368 50.0814 24.7027 50.7806 24.7027 51.3296C24.7027 52.1141 24.1998 52.9572 22.426 52.9572ZM23.2714 48.4491H21.0033L21.6227 45.5716H23.8009C25.2127 45.5716 25.549 46.2716 25.549 46.823C25.549 47.6052 25.0437 48.4491 23.2714 48.4491ZM17.138 50.2049H14.8644L15.4838 47.3259H17.666C19.0769 47.3259 19.4132 48.0259 19.4132 48.5797C19.4132 49.361 18.9095 50.2049 17.138 50.2049ZM11.2682 50.2049H9L9.61788 47.3259H11.7953C13.2094 47.3259 13.5457 48.0259 13.5457 48.5797C13.5457 49.361 13.0412 50.2049 11.2682 50.2049ZM17.9217 45.8774H15.6512L16.2699 43H18.452C19.8637 43 20.1977 43.6992 20.1977 44.2506C20.1977 45.0327 19.694 45.8774 17.9217 45.8774ZM12.055 45.8774H9.78604L10.4055 43H12.5806C13.9954 43 14.3325 43.6992 14.3325 44.2506C14.3325 45.0327 13.8273 45.8774 12.055 45.8774Z" fill="#191919"/>
<path d="M90.6353 46.6902H90.4616V45.6328H90.7307L91.0474 46.4337L91.3541 45.6328H91.6215V46.6902H91.4479V45.8072H91.4435L91.0986 46.6902H90.986L90.6418 45.8072H90.6356L90.6353 46.6902ZM90.3091 45.7712H89.9814V46.6902H89.8078V45.7712H89.4863V45.6328H90.3091L90.3091 45.7712Z" fill="#191919"/>
<path d="M69.7497 56.4641V45.6716L76.2234 51.0675L69.7497 56.4641ZM45.959 51.2536L44.4792 50.3369H38.241L43.4875 53.5014C42.3816 53.8291 40.9698 53.8612 39.6676 53.8612C38.0689 53.8612 35.3628 53.7345 34.3327 53.1862C33.3426 52.6583 33.3379 51.794 33.3379 51.0018C33.3379 50.2102 33.341 49.1903 34.3327 48.664C35.3628 48.1157 38.0697 47.9882 39.6676 47.9882C41.2647 47.9882 43.9568 48.1462 45.0025 48.664C46.0959 49.2052 45.959 51.2536 45.959 51.2536ZM88.6255 45.6262H82.7518L79.1595 48.6194L75.5687 45.6262H65.5826V52.9602L57.0105 45.6262H51.2962V54.5628L49.5505 53.4803C49.8047 52.6481 49.8118 51.7416 49.8118 51.0018C49.8118 49.5853 49.8061 47.4008 48.0332 46.4576C46.1905 45.4776 42.5247 45.25 39.6676 45.25C36.8105 45.25 33.1447 45.4776 31.3012 46.4576C29.5289 47.4008 29.5234 49.5853 29.5234 51.0018C29.5234 52.4182 29.5321 54.4509 31.3012 55.3918C33.1455 56.3757 36.8082 56.6018 39.6676 56.6018C42.0719 56.6018 45.0392 56.4391 47.0211 55.804L48.1318 56.4962H55.4446V49.1825L63.9933 56.4962H75.5852L79.1595 53.5147L82.7346 56.4962H88.6083L82.0964 51.0675L88.6255 45.6262Z" fill="#191919"/>
</svg>
