<svg width="100" height="100" viewBox="0 0 100 100" fill="none" xmlns="http://www.w3.org/2000/svg">
<rect width="100" height="100" fill="white"/>
<path d="M51.4988 58.145C49.574 57.7017 47.7441 56.1818 47.0656 54.4244C46.7972 53.7435 46.7023 53.189 46.7023 52.0807C46.6865 50.7349 46.7181 50.5767 47.2865 49.4526C47.9644 48.075 48.8322 47.2042 50.2209 46.5239C51.0254 46.1118 51.2621 46.0806 52.9192 46.0806C54.6389 46.0806 54.7965 46.1118 55.7592 46.5874C56.327 46.872 56.9739 47.2994 57.2106 47.537L57.6208 47.9803L56.8005 48.9146L55.9643 49.8489L55.3174 49.3579C53.4395 47.9962 50.8994 48.503 49.9367 50.4186C48.6271 52.9833 50.5209 55.896 53.2977 55.6114C54.1813 55.5168 54.9858 55.1999 55.5225 54.693C55.8536 54.4085 55.8694 54.4085 56.7688 55.3263L57.6682 56.2447L56.9423 56.8938C55.6327 58.0497 53.3762 58.5724 51.4988 58.145ZM60.8083 58.1132C59.5931 57.7652 58.836 57.1948 58.3626 56.2447C57.6689 54.8201 57.905 53.2843 58.9937 52.2389C59.814 51.4475 60.6349 51.1465 62.8908 50.8302C63.806 50.7031 64.7529 50.5132 64.9896 50.4027C65.7783 50.0388 65.6834 48.9616 64.8162 48.5977C63.6959 48.1226 62.0704 48.503 61.0919 49.4367L60.6659 49.8483L60.0823 49.3891C58.7411 48.3284 58.8519 48.4713 59.1513 48.0121C59.4671 47.5211 60.1773 46.9667 61.1235 46.4763C61.6761 46.1753 62.1654 46.0806 63.3326 46.033C65.0523 45.9536 65.7941 46.1124 66.8512 46.7926C67.4195 47.1572 67.7031 47.4735 67.9873 48.1067C68.3658 48.8987 68.3816 49.0727 68.3816 52.1125C68.3816 55.4527 68.3975 55.5638 69.0918 55.6908C69.3596 55.7385 69.4076 55.8807 69.4545 56.688C69.502 58.0021 69.3918 58.1132 68.1449 58.1132C67.1512 58.1132 67.072 58.0815 66.6302 57.5905L66.1568 57.0526L65.5732 57.4324C64.7529 57.9862 64.1218 58.1609 62.8123 58.2714C62.0394 58.319 61.3919 58.272 60.8083 58.1132ZM63.9953 55.6279C64.3269 55.5327 64.8162 55.1999 65.0681 54.9147C65.4789 54.4555 65.5416 54.2497 65.5416 53.4425V52.5082L64.9896 52.7463C64.6896 52.8562 64.2953 52.9674 64.106 52.9674C63.1433 52.9674 61.7077 53.3472 61.2659 53.7118C60.5241 54.345 60.7767 55.3422 61.7552 55.7067C62.1812 55.8649 63.3642 55.8178 63.9953 55.6279ZM72.2787 58.1291C71.8376 58.0021 71.3008 57.7017 70.985 57.4006C69.9912 56.4346 69.9596 56.2129 69.9596 48.6612V41.8849H72.7838L72.8788 55.0576L73.2573 55.358C73.494 55.5479 73.8725 55.6591 74.3143 55.6591H75.0087V58.1609L74.5194 58.2555C73.8098 58.3984 73.1471 58.3508 72.2787 58.1291ZM78.6849 58.192C76.7601 57.7963 75.5764 56.4663 75.5764 54.693C75.5923 53.4425 76.1132 52.4294 77.0442 51.8432C77.9278 51.2735 78.4481 51.1153 80.4679 50.8295C82.4244 50.545 82.8503 50.4021 83.0871 49.8959C83.2295 49.5796 83.2136 49.4208 82.9927 49.0886C82.3142 48.0597 80.3419 48.1385 78.8583 49.2626L78.1329 49.8171L77.2651 49.0721L76.3815 48.3125L77.2651 47.4894C78.4482 46.381 79.4741 46.0012 81.304 46.0012C82.9136 46.0012 83.8447 46.2699 84.6967 46.9825C85.7695 47.8692 85.8955 48.3442 85.8955 51.8114C85.8955 55.1522 85.9904 55.6591 86.6057 55.6591C86.9842 55.6591 87 55.6908 87 56.7674C87 58.018 86.8582 58.192 85.7379 58.192C84.9961 58.192 84.2865 57.8757 83.9548 57.4006C83.7339 57.0684 83.7181 57.0684 82.9611 57.5429C81.8566 58.2238 80.1679 58.4772 78.6849 58.192ZM82.0775 55.4374C82.7877 55.0735 83.0712 54.5508 83.1662 53.4266C83.2605 52.4923 83.2453 52.4612 82.9289 52.6352C82.756 52.7298 81.9351 52.9039 81.1154 53.0309C80.2957 53.1579 79.395 53.379 79.1267 53.5218C78.1013 54.0439 78.1165 55.1205 79.1583 55.5956C79.7894 55.8807 81.3673 55.8014 82.0775 55.4374ZM38.4505 58.0338C37.7403 57.8751 36.3674 57.1631 35.8471 56.7039C35.2946 56.2129 34.3008 54.8988 34.3008 54.6613C34.3008 54.5508 34.6319 54.2656 35.0578 54.0122C35.4112 53.7788 35.7689 53.552 36.1307 53.3319C36.4149 53.1414 36.494 53.189 36.9358 53.8223C37.6928 54.9153 38.6555 55.3898 40.2019 55.4692C41.7323 55.5327 42.4267 55.2475 42.8843 54.3291C43.5628 52.9515 42.7419 51.9861 39.9651 50.9095C37.9612 50.134 36.494 49.215 35.9573 48.3919C35.1844 47.2201 35.0895 45.3521 35.7205 44.1015C36.0997 43.3566 37.1567 42.407 38.072 41.9955C38.6397 41.7268 39.1126 41.6633 40.2962 41.6633C41.6058 41.6633 41.9216 41.7103 42.7736 42.1066C43.6888 42.5182 45.1876 43.8481 45.1876 44.2279C45.1876 44.3073 44.73 44.6871 44.1464 45.0511L43.121 45.7319L42.8837 45.3839C42.0165 44.1486 39.0341 44.0222 38.403 45.194C38.1352 45.7161 38.2296 46.4287 38.6239 46.9038C39.0024 47.363 39.255 47.49 42.0317 48.6929C44.6826 49.8324 45.6927 50.846 45.9769 52.6034C46.3713 55.0576 45.1876 57.0996 42.9312 57.8598C41.9216 58.2079 39.5392 58.3031 38.4505 58.0338ZM13 61.3905V57.7639L15.761 57.6534C18.6333 57.5423 20.7632 57.3054 23.8868 56.7668C27.4371 56.1494 30.9398 55.0411 31.3025 54.4079C31.3975 54.2491 31.4607 55.4686 31.4607 57.8274V61.5004L31.0506 61.8174C30.6088 62.1654 28.9043 62.7516 26.9636 63.242C23.9343 64.0028 16.5344 65 14.0102 65H13V61.3905ZM13 52.2071V48.5818L15.761 48.4871C18.8219 48.3601 21.205 48.0908 24.3603 47.5052C27.8947 46.8402 31.1133 45.7637 31.35 45.1781C31.3975 45.067 31.4449 46.6027 31.4449 48.5977C31.4608 51.7644 31.4291 52.2706 31.1924 52.5241C30.6404 53.1414 26.38 54.2497 21.9937 54.9306C19.327 55.3422 14.909 55.8172 13.6785 55.8172H13V52.2071ZM13 43.0879V39.5413L13.4893 39.4466C13.757 39.399 14.4203 39.3514 14.9565 39.3514C17.6073 39.3514 23.9026 38.4806 26.9953 37.6892C29.1568 37.1189 30.6556 36.5492 31.1766 36.0741C31.4443 35.8366 31.4607 35.9788 31.4607 39.4625C31.4607 42.8662 31.4449 43.1196 31.1607 43.373C30.7348 43.7687 27.8156 44.6713 25.5439 45.1305C21.8677 45.859 15.761 46.6345 13.6785 46.6345H13V43.0879Z" fill="white"/>
</svg>
