<svg width="100" height="100" viewBox="0 0 100 100" fill="none" xmlns="http://www.w3.org/2000/svg">
<rect width="100" height="100" fill="white"/>
<path d="M70.6285 63.6794C70.3675 63.1551 70.1065 62.6308 70.1065 62.1065C70.1065 61.058 69.5845 60.2715 68.8016 59.4851C68.5406 59.223 68.0186 58.9608 67.7576 58.9608C69.3235 54.2423 66.9746 49.5237 64.3647 46.1159C62.2767 42.9702 59.1448 40.6109 59.4058 36.4167C59.4058 31.436 59.9278 22.2611 50.793 23.0475C41.3972 23.5718 44.0071 33.271 43.7462 36.6788C43.7462 39.5624 42.4412 42.4459 40.3532 44.8052C39.8312 45.3295 39.3093 46.1159 39.0483 46.6402C36.4383 49.7859 35.1334 53.9801 35.1334 57.9123C34.6114 58.4365 34.0894 58.9608 33.8284 59.4851C33.5674 59.7472 33.3064 60.0094 33.3064 60.2715C33.0454 60.5337 32.5234 60.7958 32.0014 61.058C30.9575 61.3201 30.1745 61.8444 29.6525 62.8929C29.3915 63.6794 29.1305 64.7279 29.3915 65.7765C29.6525 66.3008 29.6525 66.8251 29.3915 67.6115C28.8695 68.66 28.8695 69.9708 29.3915 71.2815C30.1745 72.33 31.4794 72.5922 33.3064 72.8543C34.6114 72.8543 36.1773 73.3786 37.4823 73.9029C38.7873 74.6893 40.3532 75.2136 41.9192 75.2136C42.7022 75.2136 43.7462 74.9514 44.5291 74.6893C45.3121 74.165 45.8341 73.6407 46.0951 72.8543C47.1391 72.8543 48.705 72.33 50.532 72.33C52.098 72.33 53.6639 72.8543 55.7519 72.5922C55.7519 72.8543 55.7519 73.1164 56.0129 73.3786C56.5349 74.6893 57.8398 75.7379 59.4058 76H59.9278C62.0157 75.7379 64.1037 74.6893 65.4086 73.1164C66.4526 72.0679 67.7576 71.2815 69.0626 70.7572C70.6285 69.9708 71.6725 69.4465 71.9335 68.1358C72.1945 66.3008 71.6725 65.2522 70.6285 63.6794ZM52.6199 30.1253C54.1859 30.3874 55.4909 31.6981 55.2299 33.271C55.2299 34.0574 54.9689 34.8438 54.4469 35.6303H54.1859C53.6639 35.3681 53.4029 35.3681 53.1419 35.106C53.4029 34.8438 53.4029 34.3195 53.6639 33.7953C53.6639 32.7467 53.1419 31.9603 52.6199 31.9603C51.837 31.9603 51.315 32.7467 51.315 33.7953V34.0574C51.054 33.7953 50.532 33.7953 50.271 33.5331V33.271C50.01 31.9603 51.054 30.3874 52.6199 30.1253ZM51.837 35.3681C52.098 35.6303 52.6199 35.8924 52.8809 35.8924C53.1419 35.8924 53.6639 36.1545 53.9249 36.4167C54.4469 36.6788 54.9689 36.941 54.9689 37.7274C54.9689 38.5138 54.1859 39.3002 52.6199 39.8245C52.098 40.0867 51.837 40.0867 51.576 40.3488C50.793 40.8731 50.01 41.1352 48.966 41.1352C48.183 41.1352 47.4001 40.6109 46.8781 40.0867C46.6171 39.8245 46.3561 39.5624 45.8341 39.3002C45.5731 39.0381 45.0511 38.5138 44.7901 37.7274C44.7901 37.4652 45.0511 37.2031 45.3121 36.941C46.0951 36.4167 46.3561 36.1545 46.6171 35.8924L46.8781 35.6303C47.4001 34.8438 48.444 34.3195 49.488 34.3195C50.271 34.5817 51.054 34.8438 51.837 35.3681ZM46.3561 30.6496C47.4001 30.6496 48.183 31.6981 48.444 33.5331V34.0574C48.183 34.0574 47.6611 34.3195 47.4001 34.5817V34.0574C47.4001 33.271 46.8781 32.4846 46.3561 32.7467C45.8341 32.7467 45.5731 33.5331 45.5731 34.3195C45.5731 34.8438 45.8341 35.106 46.0951 35.3681C46.0951 35.3681 45.8341 35.6303 45.5731 35.6303C45.0511 35.106 44.5291 34.3195 44.5291 33.5331C44.5291 31.9603 45.3121 30.6496 46.3561 30.6496ZM43.7462 72.8543C41.9192 73.6407 39.5703 73.3786 38.0043 72.33C36.4383 71.5436 35.1334 71.2815 33.3064 71.2815C32.0014 71.0193 30.6965 71.0193 30.4355 70.495C30.1745 69.9708 30.1745 69.1843 30.6965 67.8736C30.9575 67.0872 30.9575 66.3008 30.6965 65.5144C30.4355 64.7279 30.4355 64.2036 30.6965 63.4172C30.9575 62.6308 31.4794 62.3687 32.2624 62.1065C33.0454 61.8444 33.5674 61.5822 34.0894 61.058C34.3504 60.7958 34.6114 60.5337 34.8724 60.0094C35.6553 58.9608 36.1773 58.4365 36.9603 58.4365C38.5263 58.6987 39.8312 61.058 40.8752 63.4172C41.3972 64.2036 41.9192 65.2522 42.7022 66.0386C43.7462 67.3493 45.0511 69.1843 45.0511 70.2329C45.0511 71.5436 44.5291 72.33 43.7462 72.8543ZM56.5349 67.0872C56.5349 67.3493 56.5348 67.3493 56.2739 67.6115C53.1419 69.9708 48.966 70.2329 45.5731 68.3979L44.0071 66.0386C46.3561 65.7765 45.8341 62.6308 40.8752 59.4851C35.6553 56.0773 39.3093 49.7859 41.1362 46.9023C41.3972 46.6402 41.3972 46.9023 40.3532 48.9995C39.5703 50.5723 38.0043 54.5044 40.0922 57.388C40.0922 55.2908 40.6142 53.1937 41.3972 51.0966C43.2242 47.6887 44.5291 43.7566 45.3121 39.8245C45.5731 40.0867 45.5731 40.0867 45.8341 40.0867C46.0951 40.3488 46.3561 40.6109 46.6171 40.6109C47.1391 41.3974 48.183 41.6595 48.966 41.6595H49.227C50.271 41.6595 51.315 41.3974 52.098 40.6109C52.3589 40.3488 52.6199 40.0867 53.1419 40.0867C53.9249 39.8245 54.7079 39.3002 55.4909 38.5138C56.5348 41.9216 57.5788 45.0673 59.1448 47.9509C60.1888 50.048 60.9717 52.1452 61.4937 54.5044C62.2767 54.5044 63.3207 54.7666 64.1037 55.2908C66.1916 56.3394 66.9746 57.1258 66.7136 58.4365H66.1916C66.1916 57.6501 65.6696 56.8637 63.8427 56.0773C62.0157 55.2908 60.4498 55.2908 59.9278 57.1258C59.6668 57.1258 59.4058 57.388 59.1448 57.388C57.0568 58.4365 57.0568 61.3201 56.7958 64.2036C57.0568 65.2522 56.7958 66.0386 56.5349 67.0872ZM68.5406 68.66C66.9746 69.1843 65.6696 70.2329 64.6257 71.5436C63.5817 73.1164 61.7547 74.165 59.6668 73.9029C58.6228 73.9029 57.5788 73.1164 57.3178 72.0679C57.0568 70.495 57.0568 68.9222 57.8398 67.3493C58.1008 66.3008 58.3618 65.5144 58.6228 64.4658C58.8838 61.3201 58.8838 59.4851 60.1888 58.6987C60.1888 60.0094 60.9717 60.7958 62.0157 61.3201C63.3207 61.3201 64.6257 61.058 65.6696 60.0094H66.1916C66.9746 60.0094 67.4966 60.0094 68.0186 60.5337C68.5406 61.058 68.8016 61.8444 68.8016 62.3687C68.8016 63.1551 69.3235 63.9415 69.5845 64.7279C70.8895 66.0386 70.8895 66.8251 70.8895 67.0872C70.6285 67.6115 69.5845 68.1358 68.5406 68.66ZM45.0511 37.2031C44.7901 37.2031 44.7901 37.2031 44.7901 37.4652C44.7901 37.4652 44.7901 37.7274 45.0511 37.7274C45.3121 37.7274 45.3121 37.9895 45.3121 37.9895C46.0951 39.0381 47.4001 39.5624 48.966 39.8245C50.271 39.5624 51.576 39.3002 52.8809 38.2517L54.4469 37.4652C54.7079 37.4652 54.7079 37.2031 54.7079 37.2031C54.7079 36.941 54.7079 36.941 54.4469 36.941C53.9249 37.2031 53.1419 37.4652 52.6199 37.7274C51.576 38.5138 50.271 39.0381 48.966 39.0381C47.6611 39.0381 46.6171 38.2517 45.8341 37.4652C45.5731 37.4652 45.3121 37.2031 45.0511 37.2031Z" fill="#191919"/>
</svg>
