<svg width="101" height="101" viewBox="0 0 101 101" fill="none" xmlns="http://www.w3.org/2000/svg">
<g clip-path="url(#clip0_2336_13659)">
<path d="M4.95927 43.7121C5.37981 43.6953 5.80014 43.6831 6.22095 43.6749C6.36397 43.6715 6.50696 43.6669 6.64989 43.661C7.82653 43.6139 7.82653 43.6139 8.13891 43.8333C8.25427 44.0145 8.31818 44.1865 8.38585 44.3889C8.46098 44.5359 8.53794 44.6819 8.6164 44.8272C8.69742 44.9883 8.77799 45.1495 8.85787 45.3111C8.88987 45.3756 8.88987 45.3756 8.92251 45.4414C9.33468 46.2745 9.71643 47.1156 10.0642 47.976C10.1009 48.0659 10.1377 48.1557 10.1744 48.2455C10.8287 49.8515 11.3352 51.4802 11.792 53.1481C11.9125 53.5875 12.0369 54.0257 12.1645 54.4632C12.1812 54.5204 12.1978 54.5776 12.215 54.6365C12.2781 54.853 12.3412 55.0695 12.4048 55.2859C12.4471 55.4298 12.4889 55.5739 12.5306 55.718C12.5541 55.7984 12.5776 55.8788 12.6018 55.9616C12.6516 56.1656 12.6516 56.1656 12.6516 56.4363C11.8555 56.7267 10.7364 56.9635 9.90382 56.7028C9.65203 56.5698 9.52075 56.4665 9.36487 56.2332C9.28942 55.9599 9.26723 55.7075 9.25424 55.4261C9.2304 55.0125 9.11987 54.623 9.01085 54.2239C8.97356 54.0869 8.93632 53.9499 8.89912 53.8128C8.8828 53.7542 8.86648 53.6956 8.84966 53.6352C8.80135 53.442 8.7671 53.2486 8.7355 53.0522C8.65246 53.0634 8.56943 53.0747 8.48388 53.0862C5.44675 53.4972 5.44675 53.4972 4.19004 53.6613C4.10571 54.0762 4.04226 54.478 4.04035 54.9015C4.02781 56.0933 4.02782 56.0933 3.71801 56.4104C3.19169 56.8146 2.60099 56.8421 1.95228 56.7747C1.87854 56.7729 1.8048 56.771 1.72883 56.7691C1.21643 56.752 0.853908 56.6158 0.413818 56.3686C0.452045 55.7294 0.618832 55.131 0.789692 54.5158C0.805161 54.4596 0.820629 54.4034 0.836566 54.3455C1.84823 50.6754 3.07207 47.055 4.95927 43.7121ZM6.4278 47.2992C6.1595 47.9095 5.90853 48.5254 5.66337 49.1447C5.60097 49.3021 5.53806 49.4592 5.47514 49.6164C5.43528 49.7169 5.39544 49.8174 5.35563 49.9179C5.33685 49.9647 5.31806 50.0114 5.2987 50.0596C5.22173 50.2554 5.16906 50.4041 5.16906 50.6156C5.56885 50.4684 5.94083 50.2742 6.31806 50.0801C6.40317 50.0365 6.48849 49.9933 6.57402 49.9505C6.69803 49.8885 6.82134 49.8251 6.94463 49.7617C7.01821 49.7243 7.09179 49.6868 7.1676 49.6483C7.34052 49.5487 7.34052 49.5487 7.4052 49.4083C7.40749 49.2018 7.34343 49.0498 7.2656 48.8578C7.23445 48.7802 7.20331 48.7025 7.17122 48.6226C7.13791 48.5418 7.1046 48.4611 7.07029 48.3779C7.03779 48.2969 7.00529 48.2159 6.97181 48.1324C6.80083 47.7005 6.80083 47.7005 6.56766 47.2992C6.52151 47.2992 6.47536 47.2992 6.4278 47.2992Z" fill="#191919"/>
<path d="M79.4348 51.4955C82.26 51.4955 82.26 51.4955 82.8614 51.9693C83.2692 52.4814 83.2498 52.9632 83.211 53.5936C83.1401 53.9848 82.8716 54.2073 82.5704 54.4542C82.4418 54.5412 82.4418 54.5412 82.3019 54.5412C82.4191 54.7764 82.5394 55.01 82.6603 55.2434C82.6935 55.31 82.7267 55.3767 82.7608 55.4454C82.9541 55.8333 82.9541 55.8333 83.3066 56.0751C83.3674 56.0826 83.4281 56.0901 83.4907 56.0979C83.4926 56.2093 83.494 56.3207 83.4951 56.432C83.4959 56.4941 83.4967 56.5561 83.4976 56.62C83.4907 56.7747 83.4907 56.7747 83.4208 56.8424C83.2605 56.8585 83.2605 56.8585 83.058 56.8635C82.9592 56.8673 82.9592 56.8673 82.8584 56.8712C82.59 56.8338 82.4189 56.7576 82.232 56.5716C82.0663 56.3332 81.9306 56.0825 81.7949 55.8271C81.758 55.7596 81.721 55.6921 81.6829 55.6225C81.5363 55.3538 81.3934 55.0837 81.253 54.8119C80.9991 54.7896 80.7453 54.7672 80.4837 54.7442C80.4837 55.4143 80.4837 56.0843 80.4837 56.7747C80.1376 56.7747 79.7914 56.7747 79.4348 56.7747C79.4348 55.0326 79.4348 53.2904 79.4348 51.4955ZM80.4837 52.24C80.4837 52.8207 80.4837 53.4014 80.4837 53.9997C80.7477 54.0081 80.7477 54.0081 81.017 54.0167C81.0716 54.0191 81.1261 54.0216 81.1824 54.0241C81.5402 54.0296 81.7393 53.9575 82.0222 53.729C82.2309 53.426 82.1949 53.1365 82.1621 52.7815C82.067 52.5055 81.9822 52.4586 81.7163 52.3204C81.3017 52.2035 81.3017 52.2035 80.4837 52.24Z" fill="#191919"/>
<path d="M36.3379 51.9296C36.9197 52.5423 36.9299 53.3399 36.9304 54.1224C36.9313 54.1921 36.9321 54.2617 36.933 54.3335C36.9345 55.0821 36.8496 55.7772 36.3158 56.3543C35.8098 56.8082 35.1702 56.9371 34.4908 56.9243C33.7704 56.8604 33.2641 56.6405 32.7696 56.1359C32.3667 55.5438 32.3571 54.9808 32.3551 54.2945C32.3544 54.1578 32.3522 54.0212 32.35 53.8846C32.347 53.1434 32.4154 52.4851 32.9685 51.9294C33.8802 51.1091 35.4002 51.1812 36.3379 51.9296ZM33.7136 52.5657C33.3642 53.0585 33.3974 53.5498 33.399 54.1266C33.3978 54.2107 33.3967 54.2947 33.3955 54.3812C33.3952 54.9397 33.4169 55.3738 33.7967 55.8187C34.1037 56.0592 34.3466 56.1269 34.7459 56.1145C35.0938 56.0741 35.3229 55.9454 35.5755 55.7172C35.9211 55.271 35.8904 54.6629 35.8858 54.1309C35.8864 54.0671 35.8869 54.0034 35.8875 53.9377C35.8859 53.385 35.8369 52.878 35.4488 52.443C34.864 52.046 34.2331 52.063 33.7136 52.5657Z" fill="#191919"/>
<path d="M48.1761 51.4955C51.1064 51.4955 51.1064 51.4955 51.7485 52.0917C52.2384 52.6345 52.2484 53.2061 52.2526 53.8992C52.2534 53.9908 52.2549 54.0823 52.2569 54.1738C52.2749 54.9651 52.1911 55.6587 51.607 56.252C50.6236 57.047 49.425 56.7747 48.1761 56.7747C48.1761 55.0326 48.1761 53.2904 48.1761 51.4955ZM49.225 52.3077C49.225 53.5138 49.225 54.7199 49.225 55.9625C50.1204 56.0352 50.1204 56.0352 50.8044 55.7209C51.2679 55.2673 51.1979 54.7098 51.2005 54.1139C51.202 54.032 51.2034 53.95 51.2049 53.8656C51.2103 53.1779 51.2103 53.1779 50.8659 52.5959C50.2466 52.1513 50.3077 52.3077 49.225 52.3077Z" fill="#191919"/>
<path d="M22.5117 51.4955C22.8579 51.4955 23.204 51.4955 23.5607 51.4955C23.5617 51.6123 23.5627 51.7291 23.5638 51.8494C23.5674 52.2363 23.5719 52.6231 23.5772 53.0099C23.5803 53.2444 23.583 53.4788 23.5849 53.7132C23.5871 53.9831 23.5909 54.2529 23.5948 54.5227C23.5953 54.6064 23.5957 54.6902 23.5962 54.7765C23.5992 55.3324 23.5992 55.3324 23.8404 55.8271C24.1019 56.0037 24.3427 56.0704 24.6637 56.059C24.9743 56.0015 25.2562 55.8594 25.5187 55.6918C25.6783 55.4601 25.6773 55.3718 25.6809 55.0991C25.6823 55.0192 25.6836 54.9392 25.6851 54.8569C25.6859 54.7706 25.6867 54.6843 25.6875 54.5954C25.6889 54.507 25.6902 54.4187 25.6916 54.3277C25.6952 54.093 25.698 53.8583 25.7006 53.6237C25.7034 53.3841 25.707 53.1446 25.7105 52.9051C25.7172 52.4352 25.7231 51.9654 25.7285 51.4955C26.0516 51.4955 26.3747 51.4955 26.7075 51.4955C26.7075 53.2376 26.7075 54.9798 26.7075 56.7747C26.4075 56.7747 26.1075 56.7747 25.7984 56.7747C25.7754 56.663 25.7523 56.5513 25.7285 56.4363C25.6954 56.4591 25.6623 56.482 25.6283 56.5055C25.0918 56.8557 24.5306 56.9942 23.8841 56.881C23.4226 56.7707 23.0951 56.5891 22.7914 56.2332C22.4935 55.6863 22.4739 55.1488 22.4844 54.5425C22.4848 54.4549 22.4852 54.3673 22.4856 54.2771C22.4867 54.0469 22.4894 53.8167 22.4925 53.5865C22.4954 53.3505 22.4967 53.1146 22.4981 52.8786C22.501 52.4176 22.5059 51.9565 22.5117 51.4955Z" fill="#191919"/>
<path d="M18.8718 51.4878C18.9301 51.4882 18.9883 51.4885 19.0483 51.4889C19.1111 51.4891 19.174 51.4893 19.2388 51.4896C19.338 51.4904 19.338 51.4904 19.4392 51.4913C19.5056 51.4916 19.572 51.4919 19.6404 51.4922C19.8049 51.493 19.9695 51.4941 20.1341 51.4955C20.5943 52.816 21.0452 54.1391 21.4803 55.4676C21.5005 55.5293 21.5208 55.5911 21.5416 55.6547C21.5989 55.8295 21.656 56.0042 21.713 56.179C21.7302 56.2317 21.7474 56.2843 21.7652 56.3385C21.8823 56.6991 21.8824 56.6991 21.8824 56.7747C21.5131 56.7747 21.1439 56.7747 20.7635 56.7747C20.6933 56.5745 20.6234 56.3743 20.5537 56.174C20.5337 56.117 20.5137 56.0601 20.493 56.0014C20.4741 55.9468 20.4552 55.8923 20.4357 55.8361C20.4181 55.7858 20.4005 55.7355 20.3824 55.6836C20.3439 55.5564 20.3439 55.5564 20.3439 55.421C19.7439 55.421 19.1439 55.421 18.5257 55.421C18.481 55.5941 18.4363 55.7672 18.3902 55.9456C18.3188 56.222 18.2474 56.4983 18.1761 56.7747C17.8068 56.7747 17.4376 56.7747 17.0572 56.7747C17.223 56.1737 17.4047 55.578 17.5909 54.9827C17.6218 54.8838 17.6527 54.7849 17.6836 54.6859C17.7478 54.4803 17.8121 54.2748 17.8765 54.0692C17.9591 53.8054 18.0414 53.5414 18.1236 53.2774C18.1871 53.074 18.2507 52.8705 18.3144 52.6671C18.3449 52.5697 18.3753 52.4723 18.4056 52.3749C18.4477 52.2395 18.4901 52.1043 18.5326 51.9691C18.5566 51.8921 18.5807 51.8152 18.6055 51.7359C18.6882 51.4982 18.6882 51.4982 18.8718 51.4878ZM19.3649 52.3754C19.2847 52.6498 19.2051 52.9244 19.1258 53.1991C19.0988 53.2925 19.0717 53.3858 19.0444 53.4791C19.0052 53.6134 18.9665 53.7479 18.9278 53.8823C18.9044 53.9632 18.8809 54.044 18.8568 54.1272C18.7947 54.3459 18.7947 54.3459 18.8054 54.6089C19.2208 54.6089 19.6362 54.6089 20.0642 54.6089C19.9704 54.1273 19.8539 53.6585 19.7145 53.1875C19.6963 53.1239 19.6781 53.0603 19.6593 52.9948C19.6415 52.9342 19.6236 52.8735 19.6053 52.8111C19.5813 52.7293 19.5813 52.7293 19.5569 52.6458C19.5107 52.4978 19.5107 52.4978 19.3649 52.3754Z" fill="#191919"/>
<path d="M44.1201 51.4955C44.5816 51.4955 45.0432 51.4955 45.5187 51.4955C45.7356 52.0034 45.9206 52.5157 46.0937 53.039C46.1208 53.1202 46.1478 53.2015 46.1757 53.2852C46.2325 53.4561 46.2892 53.6271 46.3458 53.7981C46.4175 54.015 46.4897 54.2317 46.5621 54.4483C46.632 54.6581 46.7016 54.868 46.7712 55.0779C46.7967 55.1545 46.8223 55.2311 46.8487 55.31C47.0084 55.7945 47.1443 56.2801 47.267 56.7747C46.8977 56.7747 46.5285 56.7747 46.1481 56.7747C46.0096 56.3503 45.8712 55.926 45.7285 55.4887C44.8285 55.4552 44.8285 55.4552 43.9103 55.421C43.8642 55.6444 43.818 55.8677 43.7705 56.0979C43.707 56.326 43.6339 56.5492 43.5607 56.7747C43.2145 56.7747 42.8684 56.7747 42.5117 56.7747C42.5625 56.4306 42.6201 56.1477 42.7233 55.8206C42.7375 55.7752 42.7517 55.7298 42.7664 55.683C42.813 55.5345 42.8601 55.3862 42.9073 55.2378C42.9399 55.1341 42.9726 55.0304 43.0052 54.9267C43.0734 54.7102 43.1419 54.4937 43.2105 54.2773C43.2986 53.9997 43.3862 53.7219 43.4736 53.4441C43.541 53.2304 43.6084 53.0167 43.6759 52.803C43.7083 52.7005 43.7406 52.598 43.773 52.4956C43.818 52.3528 43.8633 52.2101 43.9085 52.0674C43.9343 51.9862 43.96 51.9049 43.9865 51.8212C44.0502 51.6309 44.0502 51.6309 44.1201 51.4955ZM44.8194 52.443C44.6501 52.8617 44.5133 53.2839 44.3867 53.7163C44.3581 53.8118 44.3581 53.8118 44.3289 53.9092C44.311 53.9702 44.293 54.0312 44.2744 54.0941C44.2582 54.1491 44.242 54.2042 44.2252 54.2609C44.182 54.414 44.182 54.414 44.19 54.6089C44.6285 54.6089 45.067 54.6089 45.5187 54.6089C45.311 53.8941 45.1033 53.1794 44.8893 52.443C44.8663 52.443 44.8432 52.443 44.8194 52.443Z" fill="#191919"/>
<path d="M93.0012 51.4955C93.4858 51.4955 93.9705 51.4955 94.4698 51.4955C94.6938 52.173 94.9178 52.8505 95.1417 53.5279C95.1661 53.6015 95.1904 53.675 95.2154 53.7508C95.2647 53.8999 95.314 54.049 95.3632 54.1982C95.4914 54.5865 95.6204 54.9747 95.7506 55.3624C95.7766 55.4401 95.8026 55.5178 95.8294 55.5978C95.8791 55.7465 95.9291 55.8951 95.9794 56.0436C96.0016 56.11 96.0238 56.1764 96.0466 56.2449C96.0663 56.3033 96.0859 56.3616 96.1062 56.4218C96.1481 56.5716 96.1481 56.5716 96.1481 56.7747C95.8019 56.7747 95.4558 56.7747 95.0991 56.7747C94.8898 56.302 94.7879 55.9453 94.6796 55.421C94.0565 55.421 93.4334 55.421 92.7914 55.421C92.7684 55.5774 92.7453 55.7337 92.7215 55.8948C92.6371 56.1912 92.5385 56.4817 92.4418 56.7747C92.0956 56.7747 91.7495 56.7747 91.3928 56.7747C91.4907 56.2522 91.6322 55.7547 91.7966 55.2484C91.8221 55.1688 91.8476 55.0892 91.8739 55.0073C91.9551 54.7545 92.0367 54.5019 92.1184 54.2493C92.1727 54.0805 92.2269 53.9117 92.2812 53.7429C92.3815 53.4306 92.4821 53.1184 92.5828 52.8062C92.7236 52.3697 92.8625 51.9326 93.0012 51.4955ZM93.7005 52.3754C93.6215 52.6333 93.543 52.8914 93.4645 53.1495C93.4423 53.2218 93.4202 53.2942 93.3973 53.3688C93.3757 53.4401 93.354 53.5114 93.3318 53.5849C93.312 53.6498 93.2922 53.7146 93.2718 53.7815C93.1956 54.055 93.1347 54.3323 93.0712 54.6089C93.5096 54.6089 93.9481 54.6089 94.3998 54.6089C94.3231 54.3233 94.2461 54.0378 94.1685 53.7525C94.1422 53.6555 94.116 53.5584 94.09 53.4612C94.0525 53.3215 94.0145 53.182 93.9764 53.0424C93.9537 52.9584 93.931 52.8744 93.9076 52.7878C93.8489 52.57 93.8489 52.57 93.7005 52.3754Z" fill="#191919"/>
<path d="M65.5886 51.4955C66.6502 51.4955 67.7117 51.4955 68.8054 51.4955C68.8054 51.7635 68.8054 52.0315 68.8054 52.3077C68.09 52.3077 67.3746 52.3077 66.6376 52.3077C66.6376 52.7767 66.6376 53.2458 66.6376 53.729C67.3068 53.729 67.9761 53.729 68.6656 53.729C68.6656 53.9747 68.6656 54.2204 68.6656 54.4735C67.9963 54.4735 67.3271 54.4735 66.6376 54.4735C66.6376 54.9649 66.6376 55.4562 66.6376 55.9625C67.353 55.9625 68.0684 55.9625 68.8054 55.9625C68.8054 56.2305 68.8054 56.4985 68.8054 56.7747C67.7439 56.7747 66.6823 56.7747 65.5886 56.7747C65.5886 55.0326 65.5886 53.2904 65.5886 51.4955Z" fill="#191919"/>
<path d="M57.0572 51.4955C58.1187 51.4955 59.1803 51.4955 60.274 51.4955C60.274 51.7635 60.274 52.0315 60.274 52.3077C59.5586 52.3077 58.8432 52.3077 58.1061 52.3077C58.1061 52.7767 58.1061 53.2458 58.1061 53.729C58.7754 53.729 59.4446 53.729 60.1341 53.729C60.1341 53.9747 60.1341 54.2204 60.1341 54.4735C59.4649 54.4735 58.7956 54.4735 58.1061 54.4735C58.1061 54.9649 58.1061 55.4562 58.1061 55.9625C58.8215 55.9625 59.5369 55.9625 60.274 55.9625C60.274 56.2305 60.274 56.4985 60.274 56.7747C59.2124 56.7747 58.1509 56.7747 57.0572 56.7747C57.0572 55.0326 57.0572 53.2904 57.0572 51.4955Z" fill="#191919"/>
<path d="M41.5062 51.8598C41.8367 52.2072 41.9523 52.5925 41.9523 53.0522C41.6292 53.0522 41.3061 53.0522 40.9733 53.0522C40.9358 52.9559 40.8983 52.8595 40.8596 52.7603C40.7558 52.536 40.7068 52.4524 40.4969 52.3035C40.1414 52.2023 39.8833 52.214 39.5266 52.3077C39.2248 52.4841 39.1117 52.6645 39.0152 52.9845C38.9799 53.3169 38.9749 53.6449 38.9788 53.9788C38.9803 54.1348 38.9788 54.2905 38.977 54.4465C38.9759 54.9604 38.9783 55.3928 39.2949 55.8271C39.6341 56.0438 39.931 56.0592 40.3226 56.0056C40.5729 55.9387 40.6849 55.8262 40.8334 55.6241C40.8796 55.4901 40.9257 55.3561 40.9733 55.218C41.2963 55.218 41.6194 55.218 41.9523 55.218C41.9253 55.7761 41.7834 56.1323 41.3666 56.5251C40.7823 56.8886 40.1724 56.9683 39.4818 56.8804C38.9684 56.7706 38.5763 56.6266 38.2657 56.2057C37.9652 55.7394 37.885 55.4037 37.8797 54.8558C37.8791 54.8007 37.8785 54.7456 37.878 54.6888C37.877 54.5722 37.8762 54.4556 37.8757 54.339C37.8749 54.2207 37.8735 54.1024 37.8714 53.9842C37.8581 53.2243 37.8704 52.6305 38.308 51.9746C39.1392 51.1835 40.6209 51.129 41.5062 51.8598Z" fill="#191919"/>
<path d="M73.211 51.7662C73.5103 52.0133 73.6807 52.3471 73.7705 52.7138C73.7705 52.8254 73.7705 52.9371 73.7705 53.0522C73.4474 53.0522 73.1243 53.0522 72.7914 53.0522C72.7539 52.9559 72.7164 52.8595 72.6778 52.7603C72.5739 52.536 72.5249 52.4524 72.315 52.3035C71.878 52.179 71.5736 52.229 71.1688 52.4052C70.9096 52.6229 70.8401 52.9235 70.8051 53.2409C70.8033 53.3323 70.8027 53.4237 70.8031 53.5151C70.8025 53.5888 70.8025 53.5888 70.802 53.664C70.8015 53.7672 70.8016 53.8704 70.8022 53.9737C70.8028 54.1303 70.8008 54.2867 70.7986 54.4432C70.796 54.9585 70.7946 55.3917 71.1131 55.8271C71.4523 56.0438 71.7492 56.0592 72.1408 56.0056C72.391 55.9387 72.5031 55.8262 72.6516 55.6241C72.6977 55.4901 72.7439 55.3561 72.7914 55.218C73.1145 55.218 73.4376 55.218 73.7705 55.218C73.7434 55.7761 73.6016 56.1323 73.1848 56.5251C72.5476 56.9216 71.8391 56.9882 71.0956 56.8508C70.5885 56.7058 70.1912 56.4078 69.9138 55.9713C69.6468 55.4423 69.6721 54.8836 69.6781 54.3083C69.6796 54.1354 69.6781 53.9627 69.6763 53.7898C69.6751 53.1142 69.6975 52.5313 70.1516 51.982C71.0532 51.2878 72.2102 51.0963 73.211 51.7662Z" fill="#191919"/>
<path d="M90.4054 51.8796C90.7548 52.2472 90.8334 52.5491 90.8334 53.0522C90.5103 53.0522 90.1873 53.0522 89.8544 53.0522C89.8169 52.9559 89.7794 52.8595 89.7407 52.7603C89.6369 52.536 89.5879 52.4524 89.378 52.3035C89.0225 52.2023 88.7645 52.214 88.4077 52.3077C88.1059 52.4841 87.9928 52.6645 87.8963 52.9845C87.861 53.3169 87.856 53.6449 87.8599 53.9788C87.8614 54.1348 87.8599 54.2906 87.8581 54.4465C87.8571 54.9604 87.8594 55.3928 88.1761 55.8271C88.5152 56.0438 88.8121 56.0592 89.2037 56.0056C89.454 55.9387 89.566 55.8262 89.7145 55.6241C89.7607 55.4901 89.8068 55.3561 89.8544 55.218C90.1775 55.218 90.5005 55.218 90.8334 55.218C90.7974 55.7841 90.6853 56.1372 90.2477 56.5251C89.7904 56.9079 89.1714 56.9038 88.5956 56.9101C88.0239 56.8657 87.566 56.6178 87.1752 56.2163C86.722 55.6423 86.7424 54.9965 86.7463 54.3073C86.7469 54.1444 86.7449 53.9816 86.7426 53.8186C86.7393 53.1139 86.7749 52.4601 87.2801 51.9058C88.1258 51.1749 89.5531 51.1439 90.4054 51.8796Z" fill="#191919"/>
<path d="M35.7566 43.9601C36.2385 44.3395 36.4652 44.7486 36.5677 45.3364C36.5827 45.6313 36.5836 45.9261 36.5845 46.2212C36.5851 46.3628 36.5873 46.5043 36.5895 46.6458C36.5954 47.3553 36.5358 47.9694 36.0596 48.5342C35.6078 48.9763 35.0804 49.1306 34.4479 49.1478C33.7613 49.1333 33.2884 49.0011 32.7854 48.5349C32.2783 47.956 32.2871 47.2859 32.2851 46.5648C32.2845 46.4128 32.2823 46.2609 32.2801 46.109C32.2736 45.2865 32.346 44.669 32.9613 44.06C33.7007 43.4641 34.9683 43.4316 35.7566 43.9601ZM33.2591 44.6004C32.9186 45.1619 32.8985 45.7484 32.9051 46.3855C32.9043 46.464 32.9035 46.5424 32.9026 46.6232C32.9046 47.1818 32.9329 47.7269 33.3072 48.1749C33.7981 48.5482 34.2015 48.6433 34.8194 48.5852C35.2109 48.4737 35.5253 48.2561 35.7285 47.9084C35.938 47.4143 35.9688 46.9437 35.9601 46.4151C35.9604 46.3458 35.9606 46.2765 35.9608 46.2051C35.9565 45.6091 35.9211 45.068 35.5187 44.5919C35.1044 44.2036 34.7741 44.162 34.2113 44.1668C33.8076 44.2001 33.5531 44.3389 33.2591 44.6004Z" fill="#191919"/>
<path d="M38.0362 43.7121C40.6535 43.7121 40.6535 43.7121 41.3674 44.3569C41.9798 45.0848 41.8697 46.2179 41.8124 47.0962C41.732 47.7389 41.4929 48.1499 41.0257 48.6021C40.0905 49.1781 39.1527 49.059 38.0362 49.059C38.0362 47.2945 38.0362 45.53 38.0362 43.7121ZM38.6656 44.2535C38.6656 45.6606 38.6656 47.0677 38.6656 48.5175C39.7006 48.5369 39.7006 48.5369 40.6105 48.2087C41.1258 47.653 41.1679 47.0739 41.1568 46.3517C41.1582 46.2636 41.1595 46.1754 41.1609 46.0846C41.1581 45.5473 41.104 45.0994 40.7635 44.6596C40.108 44.1318 39.577 44.2535 38.6656 44.2535Z" fill="#191919"/>
<path d="M50.4291 43.9498C50.7479 44.1985 50.9286 44.4139 51.0432 44.795C51.0563 45.0276 51.0563 45.0276 51.0432 45.2011C50.8355 45.2011 50.6278 45.2011 50.4138 45.2011C50.385 45.1173 50.3561 45.0336 50.3264 44.9473C50.2078 44.6437 50.0769 44.4605 49.7683 44.3157C49.3367 44.1772 48.8406 44.198 48.4121 44.3339C48.2181 44.4772 48.1288 44.5759 48.0362 44.795C48.0016 45.0626 47.9979 45.2087 48.1455 45.4401C48.3528 45.6433 48.5623 45.7224 48.836 45.8102C48.9364 45.8447 49.0367 45.8791 49.1371 45.9136C49.2363 45.9468 49.3355 45.98 49.4348 46.0133C50.6647 46.4373 50.6647 46.4373 50.9689 46.8931C51.1317 47.3433 51.1336 47.9128 50.9296 48.3483C50.6648 48.7709 50.3321 48.969 49.8478 49.0925C49.0999 49.218 48.4052 49.148 47.7346 48.8051C47.4488 48.5736 47.2453 48.3194 47.1271 47.976C47.1243 47.8181 47.124 47.6602 47.1271 47.5023C47.3348 47.5023 47.5425 47.5023 47.7565 47.5023C47.7839 47.5972 47.8113 47.6921 47.8395 47.7899C47.9395 48.0793 48.0383 48.2222 48.3159 48.3821C48.7592 48.5852 49.2801 48.5993 49.7509 48.4686C49.9715 48.3707 50.1123 48.2705 50.274 48.0945C50.3937 47.7757 50.3937 47.4995 50.274 47.1808C49.8952 46.7684 49.222 46.6331 48.6951 46.4689C48.2062 46.3104 47.7865 46.1361 47.4445 45.7526C47.245 45.3576 47.2753 44.9523 47.3369 44.5243C47.5009 44.1367 47.7886 43.9291 48.1741 43.7589C48.8891 43.5229 49.7936 43.5307 50.4291 43.9498Z" fill="#191919"/>
<path d="M52.3719 43.7121C52.5796 43.7121 52.7872 43.7121 53.0012 43.7121C53.0243 44.5831 53.0474 45.4542 53.0712 46.3517C53.6519 45.6761 54.2199 44.9957 54.7675 44.2948C54.8173 44.2319 54.8173 44.2319 54.8682 44.1677C54.949 44.0638 55.0257 43.957 55.1019 43.8498C55.239 43.7121 55.239 43.7121 55.4193 43.679C55.5118 43.6849 55.5118 43.6849 55.6061 43.6909C55.6685 43.694 55.7309 43.697 55.7952 43.7002C55.8424 43.7041 55.8896 43.708 55.9383 43.7121C55.8967 43.9234 55.8319 44.0485 55.6897 44.2128C55.6528 44.256 55.6159 44.2991 55.5779 44.3436C55.5382 44.3893 55.4984 44.4349 55.4575 44.482C55.3753 44.5788 55.2931 44.6756 55.2109 44.7725C55.0875 44.9167 54.9638 45.0605 54.8388 45.2034C54.7278 45.3301 54.6184 45.458 54.5091 45.586C54.4748 45.6241 54.4405 45.6623 54.4052 45.7015C54.2995 45.8209 54.2995 45.8209 54.19 46.0133C54.2418 46.3373 54.5182 46.6265 54.7145 46.8889C54.7906 46.9911 54.8666 47.0933 54.9426 47.1956C54.9807 47.2467 55.0188 47.2978 55.058 47.3505C55.1624 47.4932 55.2632 47.6376 55.3627 47.7836C55.3928 47.8268 55.423 47.8701 55.454 47.9147C55.5101 47.9956 55.5653 48.0771 55.6192 48.1594C55.8308 48.4594 56.0045 48.5189 56.3579 48.5852C56.3579 48.7415 56.3579 48.8979 56.3579 49.059C56.2386 49.0682 56.119 49.0747 55.9995 49.0801C55.933 49.084 55.8664 49.088 55.7979 49.092C55.4273 49.0335 55.2504 48.8264 55.0357 48.547C54.887 48.3377 54.7433 48.1259 54.6009 47.9126C54.5518 47.84 54.5026 47.7675 54.452 47.6928C54.3582 47.5542 54.2647 47.4154 54.1714 47.2765C54.0393 47.08 53.9055 46.8847 53.7705 46.6901C53.4285 46.8359 53.2366 47.0439 53.0712 47.3669C53.0131 47.6608 53.0093 47.9481 53.01 48.2468C53.0085 48.325 53.0071 48.4033 53.0056 48.4839C53.0023 48.6756 53.0009 48.8672 53.0012 49.059C52.7935 49.059 52.5858 49.059 52.3719 49.059C52.3719 47.2945 52.3719 45.53 52.3719 43.7121Z" fill="#191919"/>
<path d="M74.3998 51.4955C75.7383 51.4955 77.0768 51.4955 78.4558 51.4955C78.4558 51.7635 78.4558 52.0315 78.4558 52.3077C77.9712 52.3077 77.4865 52.3077 76.9873 52.3077C76.9873 53.7818 76.9873 55.2559 76.9873 56.7747C76.6411 56.7747 76.2949 56.7747 75.9383 56.7747C75.9383 55.3006 75.9383 53.8265 75.9383 52.3077C75.4306 52.3077 74.9229 52.3077 74.3998 52.3077C74.3998 52.0397 74.3998 51.7716 74.3998 51.4955Z" fill="#191919"/>
<path d="M18.9453 43.7121C19.2453 43.7121 19.5453 43.7121 19.8544 43.7121C19.8796 43.7837 19.9049 43.8554 19.9309 43.9292C20.0073 44.1458 20.0836 44.3623 20.16 44.5788C20.2481 44.8287 20.3362 45.0785 20.4242 45.3284C20.6433 45.9499 20.8631 46.5711 21.0853 47.1916C21.1431 47.3535 21.2009 47.5154 21.2587 47.6773C21.2956 47.7804 21.3326 47.8834 21.3697 47.9864C21.4212 48.1293 21.4724 48.2724 21.5234 48.4154C21.5523 48.496 21.5813 48.5765 21.6111 48.6594C21.6726 48.8559 21.6726 48.8559 21.6726 49.059C21.4418 49.059 21.211 49.059 20.9733 49.059C20.8913 48.8264 20.8098 48.5937 20.7285 48.361C20.7052 48.2949 20.6818 48.2288 20.6578 48.1607C20.6246 48.0655 20.6246 48.0655 20.5908 47.9684C20.5703 47.9099 20.5498 47.8514 20.5287 47.7912C20.4837 47.6376 20.4837 47.6376 20.4837 47.4346C19.7914 47.4346 19.0991 47.4346 18.3858 47.4346C18.3166 47.6803 18.2474 47.926 18.1761 48.1791C18.126 48.3415 18.0752 48.5037 18.0231 48.6656C17.999 48.7405 17.9749 48.8154 17.9501 48.8927C17.9324 48.9475 17.9146 49.0024 17.8963 49.059C17.6656 49.059 17.4348 49.059 17.197 49.059C17.3797 48.2764 17.6483 47.5254 17.9138 46.7662C18.0047 46.5056 18.0953 46.2449 18.1859 45.9842C18.2081 45.9203 18.2303 45.8564 18.2532 45.7906C18.4922 45.1003 18.7195 44.4065 18.9453 43.7121ZM19.3649 44.3212C19.2549 44.6547 19.1454 44.9884 19.0362 45.3222C18.999 45.4357 18.9617 45.5492 18.9243 45.6627C18.8705 45.8257 18.8172 45.9889 18.7639 46.1521C18.7387 46.2282 18.7387 46.2282 18.7129 46.3059C18.6469 46.5091 18.5956 46.6788 18.5956 46.8931C19.1495 46.8931 19.7033 46.8931 20.274 46.8931C20.1673 46.5594 20.0604 46.2257 19.953 45.8922C19.9165 45.7787 19.8802 45.6652 19.8439 45.5517C19.7918 45.3884 19.7393 45.2254 19.6867 45.0623C19.6705 45.0115 19.6544 44.9607 19.6379 44.9084C19.5664 44.6882 19.4981 44.5146 19.3649 44.3212Z" fill="#191919"/>
<path d="M22.5817 43.7121C22.7893 43.7121 22.997 43.7121 23.211 43.7121C23.2114 43.7611 23.2118 43.81 23.2123 43.8605C23.2163 44.3235 23.2214 44.7865 23.2275 45.2495C23.2306 45.4875 23.2334 45.7255 23.2352 45.9635C23.2374 46.2375 23.2413 46.5115 23.2452 46.7855C23.2456 46.8704 23.2461 46.9553 23.2465 47.0428C23.2539 47.4704 23.2667 47.8054 23.4907 48.1791C23.8462 48.5059 24.1459 48.5414 24.6197 48.5365C25.0981 48.4909 25.4143 48.2493 25.7285 47.9084C25.7516 47.886 25.7747 47.8637 25.7984 47.8407C25.8071 47.712 25.8109 47.583 25.8128 47.454C25.8142 47.3713 25.8156 47.2887 25.817 47.2035C25.8182 47.1127 25.8194 47.0218 25.8206 46.9309C25.822 46.8385 25.8235 46.746 25.825 46.6535C25.8288 46.4098 25.8323 46.166 25.8357 45.9222C25.8392 45.6736 25.8431 45.425 25.8469 45.1764C25.8545 44.6883 25.8615 44.2002 25.8684 43.7121C26.0761 43.7121 26.2838 43.7121 26.4977 43.7121C26.4977 45.4765 26.4977 47.241 26.4977 49.059C26.3131 49.059 26.1285 49.059 25.9383 49.059C25.9037 48.7909 25.9037 48.7909 25.8684 48.5175C25.8078 48.5691 25.7472 48.6208 25.6848 48.674C25.1481 49.1054 24.5883 49.1761 23.9103 49.1266C23.4857 49.0463 23.2124 48.9133 22.9313 48.5852C22.8729 48.5203 22.8729 48.5203 22.8133 48.454C22.6094 48.1439 22.5642 47.839 22.5658 47.4771C22.5658 47.3931 22.5658 47.3091 22.5658 47.2226C22.5665 47.132 22.5673 47.0414 22.568 46.9508C22.5683 46.8573 22.5685 46.7638 22.5686 46.6703C22.5691 46.4252 22.5705 46.1802 22.572 45.9352C22.5735 45.6848 22.5741 45.4343 22.5748 45.1839C22.5763 44.6933 22.5787 44.2027 22.5817 43.7121Z" fill="#191919"/>
<path d="M27.6865 51.4955C29.025 51.4955 30.3635 51.4955 31.7425 51.4955C31.7425 51.7635 31.7425 52.0315 31.7425 52.3077C31.2348 52.3077 30.7271 52.3077 30.204 52.3077C30.204 53.7818 30.204 55.2559 30.204 56.7747C29.881 56.7747 29.5579 56.7747 29.225 56.7747C29.225 55.3006 29.225 53.8265 29.225 52.3077C28.7173 52.3077 28.2096 52.3077 27.6865 52.3077C27.6865 52.0397 27.6865 51.7716 27.6865 51.4955Z" fill="#191919"/>
<path d="M43.211 43.7121C44.2033 43.7121 45.1956 43.7121 46.218 43.7121C46.218 43.8908 46.218 44.0694 46.218 44.2535C45.4334 44.2535 44.6488 44.2535 43.8404 44.2535C43.8404 44.8342 43.8404 45.415 43.8404 46.0133C44.5558 46.0133 45.2712 46.0133 46.0082 46.0133C46.0082 46.1919 46.0082 46.3706 46.0082 46.5547C45.2928 46.5547 44.5775 46.5547 43.8404 46.5547C43.8404 47.2024 43.8404 47.8502 43.8404 48.5175C44.625 48.5175 45.4096 48.5175 46.218 48.5175C46.218 48.6962 46.218 48.8749 46.218 49.059C45.2257 49.059 44.2334 49.059 43.211 49.059C43.211 47.2945 43.211 45.53 43.211 43.7121Z" fill="#191919"/>
<path d="M97.1271 51.4955C97.4502 51.4955 97.7733 51.4955 98.1061 51.4955C98.1061 52.9696 98.1061 54.4437 98.1061 55.9625C98.8446 55.9625 99.583 55.9625 100.344 55.9625C100.344 56.2305 100.344 56.4985 100.344 56.7747C99.2823 56.7747 98.2208 56.7747 97.1271 56.7747C97.1271 55.0326 97.1271 53.2904 97.1271 51.4955Z" fill="#191919"/>
<path d="M61.4628 51.4955C61.7858 51.4955 62.1089 51.4955 62.4418 51.4955C62.4418 52.9696 62.4418 54.4437 62.4418 55.9625C63.1803 55.9625 63.9187 55.9625 64.6796 55.9625C64.6796 56.2305 64.6796 56.4985 64.6796 56.7747C63.618 56.7747 62.5565 56.7747 61.4628 56.7747C61.4628 55.0326 61.4628 53.2904 61.4628 51.4955Z" fill="#191919"/>
<path d="M84.5397 51.4955C84.8858 51.4955 85.232 51.4955 85.5886 51.4955C85.5886 53.2376 85.5886 54.9798 85.5886 56.7747C85.2425 56.7747 84.8963 56.7747 84.5397 56.7747C84.5397 55.0326 84.5397 53.2904 84.5397 51.4955Z" fill="#191919"/>
<path d="M27.6865 43.7121C28.9558 43.7121 30.225 43.7121 31.5327 43.7121C31.5327 43.8908 31.5327 44.0694 31.5327 44.2535C31.0019 44.2535 30.4712 44.2535 29.9243 44.2535C29.9243 45.8393 29.9243 47.4251 29.9243 49.059C29.7166 49.059 29.5089 49.059 29.2949 49.059C29.2949 47.4732 29.2949 45.8874 29.2949 44.2535C28.7642 44.2535 28.2334 44.2535 27.6865 44.2535C27.6865 44.0749 27.6865 43.8962 27.6865 43.7121Z" fill="#191919"/>
<path d="M53.7705 51.5632C53.9453 51.6605 53.9453 51.6605 54.0502 51.8339C54.0885 52.0659 54.0908 52.279 54.0502 52.5107C53.9184 52.6851 53.8269 52.7542 53.6306 52.8491C53.1019 52.8776 53.1019 52.8776 52.8614 52.7138C52.6644 52.4278 52.6743 52.1699 52.7215 51.8339C52.9935 51.4618 53.3381 51.4588 53.7705 51.5632ZM53.1411 51.6985C53.1411 51.7209 53.1411 51.7432 53.1411 51.7662C53.3026 51.8109 53.4642 51.8556 53.6306 51.9016C53.6075 52.0356 53.5844 52.1696 53.5607 52.3077C53.653 52.3747 53.7453 52.4417 53.8404 52.5107C53.9397 52.3185 53.9323 52.1821 53.9103 51.9693C53.8099 51.7987 53.8099 51.7987 53.6306 51.6985C53.3741 51.6759 53.3741 51.6759 53.1411 51.6985ZM53.0012 51.7662C52.8625 51.9637 52.8622 52.0453 52.8876 52.2908C52.902 52.3634 52.9164 52.4359 52.9313 52.5107C53.0005 52.5331 53.0698 52.5554 53.1411 52.5784C53.1411 52.3104 53.1411 52.0424 53.1411 51.7662C53.0949 51.7662 53.0488 51.7662 53.0012 51.7662ZM53.2809 51.9016C53.2809 51.9686 53.2809 52.0356 53.2809 52.1046C53.3502 52.1046 53.4194 52.1046 53.4907 52.1046C53.4677 52.0376 53.4446 51.9706 53.4208 51.9016C53.3747 51.9016 53.3285 51.9016 53.2809 51.9016ZM53.2809 52.3077C53.2809 52.397 53.2809 52.4864 53.2809 52.5784C53.2117 52.6119 53.2117 52.6119 53.1411 52.6461C53.3057 52.6926 53.3057 52.6926 53.4907 52.7138C53.56 52.6691 53.6292 52.6244 53.7005 52.5784C53.6103 52.4853 53.5168 52.3952 53.4208 52.3077C53.3747 52.3077 53.3285 52.3077 53.2809 52.3077Z" fill="#191919"/>
<path d="M57.4068 43.7798C57.621 43.8686 57.621 43.8686 57.7565 44.0505C57.8052 44.3074 57.8052 44.538 57.7565 44.795C57.6053 44.998 57.5075 45.0477 57.2558 45.0927C56.9647 45.1124 56.8135 45.0878 56.5633 44.9346C56.381 44.6557 56.3551 44.4397 56.4278 44.1182C56.6763 43.7381 56.976 43.7029 57.4068 43.7798ZM56.6376 44.1182C56.5981 44.3278 56.5981 44.5176 56.6376 44.7273C56.7897 44.9142 56.8855 44.9259 57.1271 44.96C57.3402 44.9445 57.3402 44.9445 57.503 44.8246C57.6602 44.5963 57.6563 44.4549 57.6166 44.1859C57.5131 44.0124 57.5131 44.0124 57.3369 43.9151C57.0403 43.8733 56.8291 43.8829 56.6376 44.1182Z" fill="#191919"/>
<path d="M56.8474 44.0505C57.0105 44.0476 57.1737 44.0477 57.3369 44.0505C57.47 44.1793 57.4068 44.4194 57.4068 44.5919C57.4299 44.659 57.453 44.726 57.4768 44.795C57.2058 44.7358 57.2058 44.7358 57.1271 44.6596C57.104 44.7043 57.081 44.749 57.0572 44.795C56.9879 44.795 56.9187 44.795 56.8474 44.795C56.8474 44.5493 56.8474 44.3036 56.8474 44.0505ZM57.0572 44.1859C57.0572 44.2529 57.0572 44.3199 57.0572 44.3889C57.1264 44.3666 57.1956 44.3442 57.267 44.3212C57.2439 44.2765 57.2208 44.2319 57.197 44.1859C57.1509 44.1859 57.1047 44.1859 57.0572 44.1859Z" fill="#191919"/>
</g>
<defs>
<clipPath id="clip0_2336_13659">
<rect width="100" height="100" fill="white" transform="translate(0.378845 0.255981)"/>
</clipPath>
</defs>
</svg>
