<svg width="101" height="101" viewBox="0 0 101 101" fill="none" xmlns="http://www.w3.org/2000/svg">
<g clip-path="url(#clip0_2336_13666)">
<path d="M18.8484 25.6908C19.1434 25.6902 19.4381 25.6851 19.733 25.6798C22.3395 25.6581 24.8285 26.3815 26.7508 28.2281C28.7662 30.262 29.499 32.8429 29.5685 35.6545C29.5451 37.6432 29.3522 42.7376 27.8691 44.2353C27.6181 44.2489 27.3665 44.2524 27.1151 44.2522C26.9515 44.2524 26.7879 44.2526 26.6193 44.2528C26.4382 44.2523 26.2571 44.2518 26.0705 44.2513C25.8791 44.2512 25.6878 44.2512 25.4964 44.2513C24.9753 44.2514 24.4543 44.2505 23.9332 44.2496C23.3893 44.2487 22.8453 44.2486 22.3013 44.2484C21.2706 44.248 20.2398 44.2468 19.209 44.2454C18.0358 44.2439 16.8626 44.2431 15.6894 44.2424C13.2754 44.2409 10.8614 44.2385 8.4474 44.2353C8.42502 44.4136 8.40263 44.5919 8.37957 44.7756C8.36069 44.9261 8.36069 44.9261 8.34142 45.0796C8.15333 46.6681 8.18258 48.2276 9.07275 49.6017C9.89332 50.6539 10.9433 50.9963 12.2201 51.1963C15.1469 51.5257 17.9656 50.6817 20.2736 48.8534C20.4333 48.7244 20.5918 48.5936 20.7488 48.4611C20.9409 48.303 21.1443 48.1591 21.349 48.0179C21.897 48.2024 22.1068 48.5578 22.4414 49.0074C22.5763 49.1852 22.7114 49.3629 22.8468 49.5404C22.9539 49.6812 22.9539 49.6812 23.0633 49.8248C23.5357 50.4355 24.0275 51.0307 24.5185 51.6262C24.5916 51.7161 24.6648 51.8059 24.7402 51.8985C24.8053 51.9777 24.8704 52.0569 24.9375 52.1385C25.0946 52.3609 25.0946 52.3609 25.2333 52.7812C24.7297 53.162 24.2201 53.5339 23.7073 53.9019C23.6166 53.9672 23.5259 54.0325 23.4324 54.0997C19.0311 57.2385 13.9754 58.6385 8.59873 57.7403C6.20819 57.2808 3.94739 56.1763 2.52552 54.1384C1.21393 52.1811 0.871386 50.1843 0.886815 47.8428C0.887151 47.739 0.887488 47.6351 0.887835 47.5281C0.923513 41.8141 3.0947 35.9661 6.78268 31.6267C6.89481 31.4931 7.00693 31.3595 7.12246 31.2218C9.32724 28.6564 12.2688 26.8789 15.5224 26.0229C15.6168 25.9978 15.7112 25.9726 15.8084 25.9467C16.8148 25.7089 17.8195 25.6906 18.8484 25.6908ZM11.9156 34.8489C10.5549 36.5773 10.5549 36.5773 9.97339 38.6315C13.9562 38.6315 17.9391 38.6315 22.0426 38.6315C22.3799 36.5879 22.4556 35.0336 21.3316 33.2641C20.2191 32.2139 18.967 31.9979 17.4928 32.018C15.336 32.1588 13.3387 33.2286 11.9156 34.8489Z" fill="#191919"/>
<path d="M28.2538 53.7335C28.5449 53.7329 28.836 53.7316 29.1271 53.7298C29.9234 53.7267 30.7195 53.7323 31.5159 53.7393C32.3759 53.7454 33.2359 53.7433 34.096 53.7423C35.5849 53.7415 37.0737 53.7459 38.5626 53.7538C40.1235 53.7621 41.6843 53.7675 43.2452 53.769C43.391 53.7692 43.391 53.7692 43.5397 53.7693C44.0333 53.7698 44.5269 53.7702 45.0206 53.7706C48.5133 53.7736 52.0061 53.783 55.4988 53.7963C58.8912 53.8091 62.2835 53.8191 65.6759 53.825C65.7805 53.8252 65.8851 53.8254 65.9929 53.8255C67.0438 53.8274 68.0947 53.8292 69.1455 53.8309C71.2861 53.8345 73.4267 53.8384 75.5672 53.8426C75.6657 53.8428 75.7641 53.843 75.8655 53.8432C82.4328 53.8561 89.0002 53.8784 95.5676 53.9019C95.5676 55.2427 95.5676 56.5834 95.5676 57.9647C92.0883 58.0109 88.609 58.0572 85.0244 58.1048C85.2533 58.2897 85.4821 58.4747 85.718 58.6652C86.2976 59.5431 86.3542 60.5681 86.1949 61.5897C85.8751 62.9802 85.1618 64.379 83.9492 65.1534C83.8383 65.2251 83.7275 65.2968 83.6132 65.3706C83.5295 65.4232 83.4459 65.4757 83.3596 65.5299C83.4575 65.6038 83.4575 65.6038 83.5574 65.6793C84.2898 66.2657 84.6813 66.7802 84.7903 67.7282C84.8703 69.6658 84.0399 71.3706 82.8047 72.8148C81.2495 74.1589 79.7332 74.7998 77.7152 74.82C77.5826 74.824 77.45 74.8281 77.3134 74.8323C76.1743 74.8425 75.3919 74.5424 74.4465 73.9181C73.6933 73.123 73.3314 72.3273 73.2933 71.2213C73.3614 69.6804 73.9188 68.2575 74.8973 67.0709C75.6475 66.397 76.4478 65.8698 77.3944 65.5299C77.2857 65.4519 77.1769 65.3738 77.0649 65.2935C76.7008 64.9695 76.7008 64.9695 76.4233 64.269C75.5993 64.269 74.7752 64.269 73.9262 64.269C73.8817 64.5329 73.8817 64.5329 73.8363 64.802C73.5978 66.0061 73.2198 67.1751 72.8685 68.3493C72.7961 68.5926 72.7239 68.836 72.6517 69.0793C72.4762 69.671 72.2995 70.2622 72.1228 70.8535C71.1614 70.8535 70.2001 70.8535 69.2095 70.8535C69.304 70.0901 69.3971 69.4853 69.6077 68.7666C69.6337 68.6771 69.6596 68.5876 69.6864 68.4954C69.7716 68.2028 69.8579 67.9105 69.9444 67.6182C70.0048 67.4116 70.0651 67.205 70.1254 66.9983C70.284 66.4554 70.4437 65.9128 70.6035 65.3703C70.7321 64.9332 70.86 64.4959 70.9878 64.0586C71.1426 63.5289 71.2977 62.9993 71.453 62.4697C71.4817 62.3719 71.5103 62.274 71.5399 62.1733C71.5679 62.0778 71.5959 61.9823 71.6248 61.8839C71.649 61.8013 71.6732 61.7187 71.6982 61.6335C72.0606 60.4067 72.4382 59.1871 72.8164 57.9647C68.8336 57.9647 64.8508 57.9647 60.7472 57.9647C60.5412 58.7969 60.5412 58.7969 60.3311 59.6459C60.2853 59.7383 60.2395 59.8308 60.1923 59.9261C59.5972 59.9261 59.0021 59.9261 58.3889 59.9261C58.4635 59.1973 58.5694 58.6787 58.8051 57.9647C48.4589 57.9647 38.1126 57.9647 27.4529 57.9647C27.4071 58.3346 27.3614 58.7044 27.3142 59.0855C27.2352 59.4095 27.1485 59.7317 27.0548 60.0516C27.0288 60.1411 27.0028 60.2306 26.9761 60.3228C26.8909 60.6155 26.8045 60.9078 26.7181 61.2C26.6577 61.4066 26.5973 61.6133 26.5371 61.8199C26.3785 62.3628 26.2188 62.9054 26.0589 63.4479C25.9303 63.885 25.8025 64.3223 25.6747 64.7596C25.5199 65.2894 25.3647 65.819 25.2094 66.3486C25.1808 66.4464 25.1521 66.5442 25.1226 66.645C24.7098 68.0519 24.2828 69.4539 23.846 70.8535C23.2509 70.8535 22.6558 70.8535 22.0426 70.8535C22.1277 69.7664 22.4403 68.7563 22.7471 67.715C22.8044 67.5182 22.8616 67.3213 22.9188 67.1245C23.0692 66.6072 23.2206 66.0902 23.3723 65.5733C23.5241 65.0551 23.675 64.5366 23.826 64.0181C24.0552 63.2311 24.2851 62.4443 24.5155 61.6576C24.6952 61.044 24.8742 60.4303 25.0515 59.816C25.1006 59.646 25.1006 59.646 25.1507 59.4725C25.2317 59.1919 25.3124 58.9112 25.393 58.6304C25.5107 58.2449 25.5107 58.2449 25.6495 57.9647C23.4978 57.9647 21.3462 57.9647 19.1293 57.9647C19.1293 57.8723 19.1293 57.7798 19.1293 57.6845C19.331 57.6027 19.331 57.6027 19.5368 57.5193C20.5634 57.0913 21.5416 56.6239 22.4848 56.0296C22.5668 55.9785 22.6488 55.9273 22.7332 55.8746C23.1643 55.5956 23.5479 55.323 23.9188 54.9624C25.2797 53.7111 26.4717 53.7055 28.2538 53.7335ZM75.7297 57.9647C75.3898 58.7534 75.3898 58.7534 75.1211 59.5523C75.0912 59.6553 75.0612 59.7583 75.0304 59.8645C74.986 60.0207 74.986 60.0207 74.9407 60.18C74.9095 60.2868 74.8783 60.3936 74.8461 60.5037C74.6797 61.0464 74.6797 61.0464 74.6199 61.6072C75.2608 61.6072 75.9017 61.6072 76.562 61.6072C76.738 61.2605 76.738 61.2605 76.9175 60.9067C77.6787 59.5141 78.4663 58.7919 79.8915 58.1048C79.8915 58.0586 79.8915 58.0123 79.8915 57.9647C78.5181 57.9647 77.1447 57.9647 75.7297 57.9647ZM79.4753 60.7666C79.4753 60.8591 79.4753 60.9516 79.4753 61.0468C80.0044 60.8832 80.0044 60.8832 80.351 60.4689C80.3825 60.3822 80.414 60.2956 80.4464 60.2062C80.0991 60.2062 79.7424 60.5715 79.4753 60.7666ZM83.3596 60.4864C83.2864 60.6211 83.2864 60.6211 83.2117 60.7584C82.3043 62.3638 81.2975 63.1373 79.614 63.8487C79.2076 63.9461 79.2076 63.9461 78.9204 63.9888C79.276 64.3643 79.4689 64.5365 79.9966 64.5826C81.1291 64.6078 81.8956 64.5379 82.7646 63.7825C83.3621 63.16 83.6345 62.4563 83.7758 61.6072C83.7427 60.9672 83.7427 60.9672 83.3596 60.4864ZM76.7008 68.1917C76.1724 69.0052 75.8067 69.8667 75.8684 70.8535C76.0824 71.5858 76.3442 71.9784 76.9782 72.3946C78.0269 72.7476 79.1425 72.6116 80.1342 72.1494C81.2365 71.531 81.8386 70.6647 82.1967 69.44C82.3121 68.8584 82.324 68.3611 82.0851 67.8152C81.6977 67.3161 81.3216 66.992 80.7238 66.7907C79.1865 66.6466 77.7319 66.9543 76.7008 68.1917Z" fill="#191919"/>
<path d="M55.4756 30.3659C55.61 30.9086 55.6192 31.0433 55.4845 31.5493C55.4361 31.7352 55.4361 31.7352 55.3867 31.9248C55.3501 32.0597 55.3135 32.1946 55.2757 32.3335C55.2193 32.5479 55.2193 32.5479 55.1617 32.7665C55.0367 33.2394 54.9099 33.7117 54.7831 34.184C54.696 34.512 54.6091 34.84 54.5222 35.168C54.2931 36.0321 54.0624 36.8957 53.8313 37.7593C53.5964 38.6385 53.3632 39.5182 53.1297 40.3978C52.7888 41.6811 52.4475 42.9643 52.1045 44.2471C52.0685 44.3823 52.0325 44.5175 51.9953 44.6567C51.9623 44.7803 51.9292 44.9038 51.8951 45.0311C51.8664 45.1384 51.8377 45.2458 51.8081 45.3564C51.7424 45.5918 51.6679 45.8246 51.5913 46.0566C52.6474 46.1044 53.7026 46.1308 54.7597 46.143C55.1185 46.1495 55.4773 46.1609 55.8358 46.1772C57.7849 46.3361 57.7849 46.3361 59.5405 45.6651C60.0734 45.0473 60.4106 44.3571 60.726 43.6076C60.9972 43.0093 61.3606 42.4721 61.7183 41.9238C61.8575 41.7022 61.9962 41.4804 62.1345 41.2583C62.9669 39.9274 63.7992 38.5965 64.6316 37.2656C64.7003 37.1557 64.769 37.0459 64.8398 36.9327C64.9781 36.7114 65.1165 36.4902 65.2549 36.2689C65.6072 35.7058 65.9592 35.1426 66.3109 34.5791C66.9593 33.5407 67.6085 32.5028 68.2645 31.4691C68.3165 31.387 68.3684 31.3049 68.422 31.2202C68.7768 30.6628 68.7768 30.6628 68.9321 30.506C69.169 30.4938 69.4064 30.491 69.6436 30.4923C69.8589 30.493 69.8589 30.493 70.0785 30.4937C70.2295 30.4948 70.3805 30.496 70.5361 30.4972C70.7634 30.4982 70.7634 30.4982 70.9954 30.4991C71.3712 30.5008 71.747 30.5032 72.1228 30.506C72.3163 31.7046 72.4701 32.9004 72.5846 34.1091C72.6008 34.2768 72.6171 34.4445 72.6339 34.6172C72.6778 35.0706 72.7213 35.5241 72.7645 35.9776C72.8101 36.4544 72.8562 36.9312 72.9023 37.4079C72.9793 38.2065 73.056 39.0051 73.1324 39.8037C73.2207 40.7267 73.3095 41.6496 73.3986 42.5725C73.4938 43.558 73.5886 44.5435 73.6833 45.5291C73.7105 45.8124 73.7378 46.0957 73.7651 46.379C73.8158 46.9054 73.8662 47.4319 73.9166 47.9583C73.9317 48.1151 73.9468 48.2719 73.9624 48.4334C73.976 48.5763 73.9896 48.7192 74.0036 48.8665C74.0156 48.9908 74.0275 49.1151 74.0397 49.2432C74.065 49.559 74.065 49.559 74.065 49.9793C72.6458 49.9793 71.2266 49.9793 69.7644 49.9793C69.7187 49.5603 69.6729 49.1413 69.6257 48.7096C69.6112 48.5796 69.5968 48.4496 69.5818 48.3156C69.5706 48.21 69.5593 48.1043 69.5477 47.9955C69.5361 47.8891 69.5244 47.7827 69.5125 47.6731C69.4806 47.2288 69.487 46.7823 69.487 46.3368C67.4727 46.3368 65.4584 46.3368 63.383 46.3368C63.2915 46.5679 63.1999 46.7991 63.1056 47.0373C62.0299 49.6377 62.0299 49.6377 60.9482 50.1454C59.9382 50.394 58.9086 50.3172 57.879 50.2666C57.5488 50.2611 57.2185 50.2569 56.8883 50.254C56.024 50.2428 55.1611 50.214 54.2973 50.1813C53.414 50.151 52.5305 50.1377 51.6468 50.1229C49.9167 50.0915 48.1877 50.0414 46.4584 49.9793C46.5492 49.236 46.7029 48.5311 46.8943 47.8081C46.9244 47.6929 46.9544 47.5776 46.9853 47.4588C47.0848 47.0778 47.1851 46.6969 47.2854 46.316C47.3562 46.0453 47.427 45.7747 47.4977 45.504C47.685 44.7879 47.873 44.0721 48.0611 43.3563C48.2098 42.7899 48.3581 42.2234 48.5063 41.6569C49.4794 37.9375 50.4629 34.2209 51.4526 30.506C52.7802 30.4597 54.1078 30.4135 55.4756 30.3659ZM68.7934 37.3707C68.5884 37.7096 68.3905 38.0505 68.1951 38.3951C67.5774 39.4729 66.9288 40.5278 66.2631 41.5759C66.195 41.6835 66.1269 41.791 66.0568 41.9019C65.9959 41.9975 65.9349 42.0931 65.8722 42.1916C65.7296 42.3911 65.7296 42.3911 65.7414 42.5542C66.8859 42.5542 68.0304 42.5542 69.2095 42.5542C69.2129 41.3036 69.2129 41.3036 69.1488 40.0659C69.1363 39.9065 69.1238 39.7471 69.1109 39.5829C69.0977 39.4221 69.0844 39.2613 69.0708 39.0956C69.0576 38.9288 69.0444 38.762 69.0307 38.5902C68.9984 38.1836 68.9655 37.7771 68.9321 37.3707C68.8863 37.3707 68.8405 37.3707 68.7934 37.3707Z" fill="#191919"/>
<path d="M80.7238 30.506C81.9141 30.506 83.1044 30.506 84.3307 30.506C85.3055 32.9528 86.2575 35.407 87.1919 37.8698C87.3193 38.2048 87.4466 38.5398 87.574 38.8748C87.8804 39.6809 88.1866 40.4871 88.4925 41.2933C88.8498 40.2639 89.1345 39.219 89.4109 38.1651C89.4922 37.8553 89.5739 37.5457 89.6559 37.2361C89.8588 36.4687 90.0609 35.701 90.2629 34.9334C90.4346 34.2813 90.6065 33.6292 90.7791 32.9774C90.8598 32.6719 90.9399 32.3663 91.02 32.0607C91.0691 31.875 91.1182 31.6893 91.1674 31.5036C91.2102 31.341 91.253 31.1783 91.2971 31.0108C91.4058 30.6461 91.4057 30.6461 91.5445 30.506C91.8421 30.4937 92.1402 30.491 92.4381 30.4923C92.6191 30.4927 92.8002 30.4932 92.9867 30.4937C93.1794 30.4948 93.372 30.496 93.5647 30.4972C93.7579 30.4979 93.9511 30.4986 94.1442 30.4991C94.6187 30.5008 95.0931 30.5031 95.5675 30.506C95.4804 31.2062 95.3431 31.8768 95.1615 32.5587C95.1346 32.6615 95.1077 32.7644 95.0799 32.8704C94.9908 33.2103 94.901 33.55 94.8111 33.8896C94.7476 34.1309 94.6842 34.3721 94.6209 34.6134C94.4518 35.257 94.282 35.9004 94.112 36.5437C93.972 37.0736 93.8325 37.6035 93.6929 38.1334C93.2855 39.68 92.8769 41.2261 92.4675 42.7721C92.382 43.095 92.2966 43.4179 92.2111 43.7408C91.9439 44.7506 91.676 45.7601 91.4066 46.7692C91.3311 47.0522 91.2557 47.3352 91.1805 47.6183C91.0789 48.0001 90.9766 48.3817 90.8741 48.7633C90.8306 48.9275 90.8306 48.9275 90.7861 49.095C90.5894 49.8231 90.5894 49.8231 90.4347 49.9793C90.1876 49.9915 89.9401 49.9943 89.6928 49.9929C89.543 49.9925 89.3933 49.992 89.239 49.9916C89.0813 49.9904 88.9237 49.9892 88.7613 49.988C88.6031 49.9874 88.4449 49.9868 88.282 49.9861C87.8897 49.9844 87.4975 49.9821 87.1052 49.9793C86.6632 49.1223 86.301 48.2526 85.9586 47.3508C85.8759 47.1351 85.8759 47.1351 85.7916 46.9151C85.6163 46.4569 85.4417 45.9984 85.2671 45.54C85.1521 45.2393 85.037 44.9385 84.9219 44.6378C84.2106 42.778 83.5059 40.9156 82.8047 39.0518C82.0911 41.4649 81.4384 43.8909 80.8105 46.328C80.6395 46.992 80.4678 47.6558 80.2957 48.3195C80.257 48.4706 80.2183 48.6217 80.1784 48.7775C80.1427 48.9153 80.1069 49.0531 80.0701 49.195C80.0388 49.3165 80.0076 49.4379 79.9753 49.5631C79.8915 49.8392 79.8915 49.8392 79.7527 49.9793C79.4551 49.9916 79.157 49.9943 78.8592 49.9929C78.6781 49.9925 78.497 49.992 78.3105 49.9916C78.1178 49.9904 77.9252 49.9892 77.7325 49.988C77.5394 49.9873 77.3462 49.9867 77.153 49.9861C76.6785 49.9844 76.2041 49.9821 75.7297 49.9793C75.8142 49.162 75.9681 48.3971 76.1805 47.6047C76.2121 47.4844 76.2437 47.3641 76.2763 47.2402C76.3808 46.8434 76.4863 46.447 76.5918 46.0506C76.6661 45.7694 76.7404 45.4881 76.8145 45.2069C77.0106 44.4641 77.2076 43.7215 77.4048 42.979C77.5999 42.2434 77.7942 41.5074 77.9886 40.7715C78.8934 37.3478 79.806 33.9262 80.7238 30.506Z" fill="#191919"/>
<path d="M74.065 54.042C75.042 54.0241 76.0191 54.012 76.9963 54.0036C77.3281 54.0001 77.6599 53.9953 77.9916 53.9892C78.471 53.9806 78.9503 53.9767 79.4298 53.9736C79.5759 53.97 79.7221 53.9664 79.8727 53.9627C81.0543 53.9622 82.2067 54.2175 83.1202 55.0195C83.7758 55.7221 84.1719 56.4176 84.218 57.3956C84.2051 57.608 84.2051 57.608 84.192 57.8246C84.315 57.8593 84.438 57.894 84.5648 57.9297C85.2052 58.1737 85.5803 58.4567 85.9607 59.0329C86.4233 60.294 86.329 61.5183 85.8106 62.7449C85.3359 63.7366 84.8897 64.5528 83.9492 65.1534C83.8383 65.2251 83.7275 65.2968 83.6132 65.3706C83.5295 65.4232 83.4459 65.4757 83.3596 65.5299C83.4249 65.5792 83.4902 65.6285 83.5574 65.6793C84.2898 66.2657 84.6813 66.7802 84.7903 67.7282C84.8703 69.6658 84.0399 71.3706 82.8047 72.8148C81.2495 74.1589 79.7332 74.7998 77.7152 74.82C77.5826 74.824 77.45 74.8281 77.3134 74.8323C76.1743 74.8425 75.3919 74.5424 74.4465 73.9181C73.6933 73.123 73.3314 72.3273 73.2933 71.2213C73.3614 69.6804 73.9188 68.2575 74.8973 67.0709C75.6475 66.397 76.4478 65.8698 77.3944 65.5299C77.2857 65.4519 77.1769 65.3738 77.0649 65.2935C76.7008 64.9695 76.7008 64.9695 76.4233 64.269C75.5993 64.269 74.7752 64.269 73.9262 64.269C73.8966 64.4449 73.8669 64.6208 73.8363 64.802C73.5978 66.0061 73.2198 67.1751 72.8685 68.3493C72.7961 68.5926 72.7239 68.836 72.6517 69.0793C72.4762 69.671 72.2995 70.2622 72.1228 70.8535C71.1614 70.8535 70.2001 70.8535 69.2095 70.8535C69.304 70.0901 69.3971 69.4853 69.6077 68.7666C69.6337 68.6771 69.6596 68.5876 69.6864 68.4954C69.7716 68.2028 69.8579 67.9105 69.9444 67.6182C70.0048 67.4116 70.0651 67.205 70.1254 66.9983C70.284 66.4554 70.4437 65.9128 70.6035 65.3703C70.7321 64.9332 70.86 64.4959 70.9878 64.0586C71.1426 63.5289 71.2977 62.9993 71.453 62.4697C71.4817 62.3719 71.5103 62.274 71.5399 62.1733C71.7324 61.517 71.9266 60.8613 72.1228 60.2062C72.1524 60.1072 72.1821 60.0082 72.2126 59.9061C72.3029 59.6056 72.394 59.3054 72.4855 59.0053C72.539 58.8291 72.5925 58.6528 72.6476 58.4712C72.8182 57.9595 73.019 57.4787 73.2326 56.984C73.3336 56.6589 73.429 56.3319 73.5187 56.0034C73.5633 55.8416 73.6078 55.6798 73.6537 55.513C73.7199 55.2703 73.7199 55.2703 73.7875 55.0227C73.8798 54.6958 73.9723 54.3689 74.065 54.042ZM75.7297 57.9647C75.3898 58.7534 75.3898 58.7534 75.1211 59.5523C75.0912 59.6553 75.0612 59.7583 75.0304 59.8645C74.986 60.0207 74.986 60.0207 74.9407 60.18C74.9095 60.2868 74.8783 60.3936 74.8461 60.5037C74.6797 61.0464 74.6797 61.0464 74.6199 61.6072C75.2608 61.6072 75.9017 61.6072 76.562 61.6072C76.738 61.2605 76.738 61.2605 76.9175 60.9067C77.6787 59.5141 78.4663 58.7919 79.8915 58.1048C79.8915 58.0586 79.8915 58.0123 79.8915 57.9647C78.5181 57.9647 77.1447 57.9647 75.7297 57.9647ZM79.4753 60.7666C79.4753 60.8591 79.4753 60.9516 79.4753 61.0468C80.0044 60.8832 80.0044 60.8832 80.351 60.4689C80.3825 60.3822 80.414 60.2956 80.4464 60.2062C80.0991 60.2062 79.7424 60.5715 79.4753 60.7666ZM83.3596 60.4864C83.2864 60.6211 83.2864 60.6211 83.2117 60.7584C82.3043 62.3638 81.2975 63.1373 79.614 63.8487C79.2076 63.9461 79.2076 63.9461 78.9204 63.9888C79.276 64.3643 79.4689 64.5365 79.9966 64.5826C81.1291 64.6078 81.8956 64.5379 82.7646 63.7825C83.3621 63.16 83.6345 62.4563 83.7758 61.6072C83.7427 60.9672 83.7427 60.9672 83.3596 60.4864ZM76.7008 68.1917C76.1724 69.0052 75.8067 69.8667 75.8684 70.8535C76.0824 71.5858 76.3442 71.9784 76.9782 72.3946C78.0269 72.7476 79.1425 72.6116 80.1342 72.1494C81.2365 71.531 81.8386 70.6647 82.1967 69.44C82.3121 68.8584 82.324 68.3611 82.0851 67.8152C81.6977 67.3161 81.3216 66.992 80.7238 66.7907C79.1865 66.6466 77.7319 66.9543 76.7008 68.1917Z" fill="#191919"/>
<path d="M35.499 30.506C36.6122 30.4929 37.7253 30.483 38.8385 30.4769C39.3556 30.474 39.8726 30.4701 40.3897 30.4637C40.8898 30.4576 41.3898 30.4543 41.89 30.4528C42.0796 30.4518 42.2693 30.4498 42.4589 30.4467C44.0233 30.4226 45.3831 30.6402 46.627 31.659C47.5864 32.6195 48.0221 33.6919 48.0451 35.0503C48.037 37.178 47.1608 38.9697 45.7328 40.5053C44.0809 42.0643 42.0848 42.8651 39.8267 42.8481C39.7262 42.8479 39.6258 42.8477 39.5223 42.8475C39.2043 42.8467 38.8863 42.8449 38.5684 42.8431C38.3516 42.8424 38.1348 42.8418 37.9181 42.8412C37.3892 42.8397 36.8603 42.8373 36.3314 42.8344C36.3156 42.9913 36.2997 43.1483 36.2834 43.31C36.1982 43.9947 36.0302 44.6465 35.8502 45.3112C35.8168 45.4365 35.7835 45.5617 35.7491 45.6908C35.6791 45.9534 35.6086 46.2159 35.5379 46.4784C35.4293 46.8812 35.3218 47.2842 35.2145 47.6874C35.1461 47.9432 35.0777 48.1989 35.0092 48.4546C34.9769 48.5753 34.9447 48.696 34.9115 48.8203C34.8814 48.9317 34.8513 49.043 34.8203 49.1578C34.7939 49.2558 34.7675 49.3539 34.7404 49.4549C34.6667 49.6991 34.6667 49.6991 34.528 49.9793C33.2003 49.9793 31.8727 49.9793 30.5049 49.9793C30.661 48.7184 30.661 48.7184 30.795 48.2086C30.8251 48.0927 30.8552 47.9768 30.8863 47.8573C30.919 47.7341 30.9518 47.6109 30.9856 47.484C31.0204 47.351 31.0551 47.218 31.091 47.0809C31.2058 46.6424 31.3216 46.2042 31.4375 45.766C31.5187 45.457 31.5998 45.1479 31.6809 44.8389C31.8513 44.1898 32.0222 43.5408 32.1934 42.8919C32.4097 42.0726 32.6251 41.253 32.8403 40.4334C33.7102 37.1197 34.5833 33.8071 35.499 30.506ZM38.6897 34.2886C38.3441 35.3935 38.0238 36.4985 37.7533 37.6246C37.7228 37.75 37.6922 37.8754 37.6607 38.0046C37.5871 38.3069 37.5139 38.6092 37.4412 38.9117C38.0626 38.9281 38.6838 38.938 39.3053 38.9467C39.5675 38.9538 39.5676 38.9538 39.8351 38.961C41.0409 38.9737 41.9514 38.8699 42.8987 38.081C43.5857 37.2363 43.899 36.5331 43.8768 35.4263C43.7871 34.9345 43.5137 34.7177 43.129 34.4287C42.6549 34.2691 42.2918 34.2727 41.7921 34.2749C41.612 34.2753 41.4318 34.2758 41.2462 34.2762C41.0559 34.2774 40.8656 34.2786 40.6753 34.2798C40.4833 34.2805 40.2914 34.2811 40.0995 34.2817C39.6296 34.2834 39.1597 34.2857 38.6897 34.2886Z" fill="#191919"/>
<path d="M74.065 54.042C75.042 54.0241 76.0191 54.012 76.9963 54.0036C77.3281 54.0001 77.6599 53.9953 77.9916 53.9892C78.471 53.9806 78.9503 53.9767 79.4298 53.9736C79.5759 53.97 79.7221 53.9664 79.8727 53.9627C81.056 53.9622 82.2223 54.2128 83.1248 55.0337C83.9691 55.9645 84.0533 56.4686 84.0533 57.8246C83.1377 57.7784 82.2221 57.7322 81.2787 57.6845C81.1414 57.3378 81.1414 57.3378 81.0013 56.984C80.6869 56.8033 80.6869 56.8033 80.3076 56.7039C80.1158 56.6328 80.1158 56.6328 79.9201 56.5603C79.4724 56.4228 79.1017 56.3802 78.6353 56.3657C78.4816 56.3602 78.3278 56.3548 78.1693 56.3492C77.9316 56.3427 77.9317 56.3427 77.6892 56.3361C77.5275 56.3307 77.3659 56.3253 77.1993 56.3197C76.8019 56.3065 76.4046 56.2945 76.0071 56.2836C75.9814 56.4483 75.9814 56.4483 75.9551 56.6163C75.7478 57.8308 75.4692 58.9818 75.0881 60.1537C75.043 60.2944 74.9979 60.4351 74.9515 60.58C74.8416 60.9226 74.7311 61.265 74.6199 61.6072C75.2239 61.6195 75.8279 61.6269 76.432 61.6335C76.6025 61.637 76.773 61.6405 76.9487 61.6441C78.1081 61.6536 78.8898 61.5581 79.8394 60.8542C79.9208 60.7948 80.0022 60.7354 80.086 60.6741C80.3412 60.4714 80.3412 60.4714 80.6111 60.0924C81.1558 59.6646 81.5896 59.6981 82.2644 59.7241C82.8141 59.8088 83.0868 59.9769 83.4984 60.3463C82.8268 61.9787 81.7976 63.0457 80.2047 63.7962C78.2893 64.5037 75.9389 64.3147 73.9262 64.269C73.8966 64.4449 73.8669 64.6208 73.8363 64.802C73.5978 66.0061 73.2198 67.1751 72.8685 68.3493C72.7961 68.5926 72.7239 68.836 72.6517 69.0793C72.4762 69.671 72.2995 70.2622 72.1228 70.8535C71.1614 70.8535 70.2001 70.8535 69.2095 70.8535C69.304 70.0901 69.3971 69.4853 69.6077 68.7666C69.6337 68.6771 69.6596 68.5876 69.6864 68.4954C69.7716 68.2028 69.8579 67.9105 69.9444 67.6182C70.0048 67.4116 70.0651 67.205 70.1254 66.9983C70.284 66.4554 70.4437 65.9128 70.6035 65.3703C70.7321 64.9332 70.86 64.4959 70.9878 64.0586C71.1426 63.5289 71.2977 62.9993 71.453 62.4697C71.4817 62.3719 71.5103 62.274 71.5399 62.1733C71.7324 61.517 71.9266 60.8613 72.1228 60.2062C72.1524 60.1072 72.1821 60.0082 72.2126 59.9061C72.3029 59.6056 72.394 59.3054 72.4855 59.0053C72.539 58.8291 72.5925 58.6528 72.6476 58.4712C72.8182 57.9595 73.019 57.4787 73.2326 56.984C73.3336 56.6589 73.429 56.3319 73.5187 56.0034C73.5633 55.8416 73.6078 55.6798 73.6537 55.513C73.7199 55.2703 73.7199 55.2703 73.7875 55.0227C73.8798 54.6958 73.9723 54.3689 74.065 54.042Z" fill="#191919"/>
<path d="M47.9844 58.6652C48.6253 58.6652 49.2662 58.6652 49.9266 58.6652C49.8374 59.033 49.7477 59.4008 49.6578 59.7684C49.6325 59.873 49.6072 59.9776 49.5811 60.0853C49.3874 60.875 49.3874 60.875 49.2329 61.1869C52.758 61.1407 56.283 61.0944 59.9149 61.0468C59.4463 62.782 59.4463 62.782 59.2372 63.5065C59.1904 63.6686 59.1437 63.8307 59.0955 63.9977C59.0465 64.1671 58.9975 64.3364 58.947 64.5109C58.9216 64.599 58.8961 64.687 58.8699 64.7777C58.7359 65.2412 58.6017 65.7046 58.4673 66.168C58.3287 66.6464 58.1906 67.1249 58.0527 67.6034C57.9205 68.0612 57.7878 68.5188 57.6552 68.9764C57.6056 69.1486 57.556 69.3208 57.505 69.4982C57.4591 69.6559 57.4132 69.8136 57.366 69.9761C57.3257 70.1155 57.2853 70.2548 57.2438 70.3985C57.1404 70.7134 57.1404 70.7134 57.0016 70.8535C56.6983 70.8637 56.3947 70.8652 56.0912 70.8623C55.842 70.8604 55.842 70.8604 55.5878 70.8584C55.3949 70.856 55.3949 70.856 55.1982 70.8535C55.3774 69.8667 55.6136 68.9091 55.8924 67.9465C55.9317 67.8092 55.971 67.672 56.0115 67.5305C56.0939 67.2432 56.1765 66.9559 56.2595 66.6688C56.3867 66.2279 56.5131 65.7867 56.6394 65.3455C56.7198 65.0654 56.8003 64.7854 56.8808 64.5054C56.9376 64.3073 56.9376 64.3073 56.9955 64.1053C57.0307 63.9836 57.0659 63.8619 57.1022 63.7365C57.1331 63.6294 57.164 63.5222 57.1958 63.4119C57.2791 63.1483 57.2791 63.1483 57.4178 62.8681C55.6712 63.0083 55.6712 63.0083 54.0884 63.7086C53.9653 63.7838 53.8423 63.8589 53.7155 63.9363C52.6487 65.0428 52.3631 66.7469 51.9728 68.1917C51.8803 68.5292 51.7873 68.8667 51.6942 69.2041C51.6368 69.4126 51.5798 69.6212 51.5233 69.8299C51.3289 70.5429 51.3289 70.5429 51.1751 70.8535C50.58 70.8535 49.9848 70.8535 49.3717 70.8535C49.4571 69.914 49.682 69.0548 49.9488 68.1523C49.9917 68.0046 50.0346 67.8569 50.0788 67.7048C50.2151 67.2364 50.3526 66.7684 50.4902 66.3004C50.5832 65.9816 50.6761 65.6627 50.769 65.3438C50.9959 64.565 51.224 63.7865 51.4526 63.0082C50.537 62.9619 49.6214 62.9157 48.678 62.8681C48.6314 63.1362 48.6314 63.1362 48.5838 63.4098C48.3558 64.5607 48.0134 65.682 47.6896 66.8082C47.624 67.0381 47.5584 67.2679 47.4929 67.4978C47.3336 68.0561 47.1737 68.6143 47.0133 69.1724C47.4711 69.1724 47.9289 69.1724 48.4006 69.1724C48.3347 69.4264 48.2681 69.6803 48.2012 69.9341C48.1642 70.0755 48.1271 70.2169 48.089 70.3626C47.9844 70.7134 47.9844 70.7134 47.8457 70.8535C47.508 70.8789 47.178 70.8925 46.8399 70.8973C46.7007 70.9034 46.7007 70.9034 46.5587 70.9096C46.1011 70.9155 45.7688 70.8553 45.3508 70.6669C44.9107 70.0787 45.016 69.4672 45.0712 68.7521C45.1591 68.2712 45.291 67.8116 45.4353 67.3451C45.4723 67.2198 45.5092 67.0945 45.5473 66.9654C45.6641 66.5709 45.7837 66.1774 45.9035 65.7838C45.9839 65.5142 46.0641 65.2445 46.1441 64.9747C46.3392 64.3185 46.5368 63.6631 46.7359 63.0082C46.3696 62.9619 46.0034 62.9157 45.6261 62.8681C45.7634 62.3133 45.9007 61.7585 46.0422 61.1869C46.5 61.1869 46.9578 61.1869 47.4295 61.1869C47.4438 61.0309 47.4581 60.8748 47.4729 60.7141C47.5588 60.0023 47.7687 59.3471 47.9844 58.6652Z" fill="#191919"/>
<path d="M19.6235 60.8454C19.7235 60.8423 19.8235 60.8392 19.9265 60.8359C20.6905 60.8393 21.1341 61.0319 21.7651 61.4671C22.5164 62.2873 22.7261 63.0293 22.7362 64.1289C22.6528 65.0256 22.5134 65.8122 22.1813 66.6506C19.9839 66.6506 17.7865 66.6506 15.5224 66.6506C15.4072 67.9459 15.4072 67.9459 15.9386 68.8922C16.6513 69.2783 17.3915 69.2166 18.1582 69.0323C18.7917 68.7541 19.188 68.4578 19.5628 67.8677C20.0696 67.3893 20.296 67.438 20.9761 67.4387C21.2856 67.4522 21.5949 67.4684 21.9039 67.4912C21.1364 69.1386 19.9895 70.2077 18.297 70.8535C17.0805 71.1131 15.8225 71.1463 14.6901 70.5733C14.0757 70.0908 13.6609 69.5054 13.4415 68.7521C13.1907 66.6747 13.871 64.748 15.0803 63.082C15.7246 62.2962 16.4279 61.7856 17.3259 61.327C17.409 61.2793 17.4922 61.2317 17.5779 61.1825C18.2305 60.8641 18.9115 60.8594 19.6235 60.8454ZM16.3933 64.1338C16.1773 64.4367 16.1773 64.4367 16.0773 64.9695C17.6339 64.9695 19.1904 64.9695 20.794 64.9695C20.8888 63.7481 20.8888 63.7481 20.3779 62.8681C18.8985 61.9717 17.3579 62.9764 16.3933 64.1338Z" fill="#191919"/>
<path d="M34.528 61.327C35.2088 61.922 35.6048 62.5756 35.6746 63.4919C35.6654 65.7543 35.6654 65.7543 35.2216 66.6506C33.0242 66.6506 30.8267 66.6506 28.5627 66.6506C28.4263 68.2882 28.4263 68.2882 28.7968 68.936C29.5435 69.3201 30.2414 69.3076 31.0598 69.1724C31.7937 68.8828 32.3217 68.5675 32.6985 67.859C33.002 67.4912 33.002 67.4912 33.4349 67.4387C33.8946 67.4387 34.3472 67.4551 34.8054 67.4912C34.6743 68.5104 33.9684 69.24 33.2139 69.8865C32.1239 70.6878 31.1603 71.0677 29.8113 71.0549C29.7065 71.0577 29.6017 71.0605 29.4937 71.0634C28.5772 71.0626 27.8837 70.786 27.1722 70.2034C26.4796 69.3705 26.3067 68.615 26.3518 67.5437C26.5669 65.5636 27.4841 63.6615 28.9177 62.2874C30.4868 61.0831 32.6726 60.3233 34.528 61.327ZM29.4168 64.1508C29.2089 64.4685 29.2089 64.4685 28.9789 65.1096C30.5354 65.1096 32.0919 65.1096 33.6956 65.1096C33.9087 64.6792 33.8657 64.3247 33.8343 63.8487C33.6185 63.2551 33.6185 63.2551 33.1656 62.8484C31.7478 62.2838 30.315 63.0327 29.4168 64.1508Z" fill="#191919"/>
<path d="M80.7238 53.9019C85.6223 53.9019 90.5207 53.9019 95.5676 53.9019C95.5676 55.2427 95.5676 56.5834 95.5676 57.9647C94.1253 57.9679 92.6831 57.9704 91.2409 57.972C90.5712 57.9727 89.9016 57.9737 89.232 57.9753C88.5862 57.9768 87.9403 57.9776 87.2945 57.978C87.0477 57.9783 86.8009 57.9788 86.5541 57.9795C86.2093 57.9805 85.8645 57.9807 85.5197 57.9806C85.3655 57.9814 85.3655 57.9814 85.2083 57.9821C84.5011 57.9807 84.5011 57.9807 84.192 57.8246C84.1286 57.5439 84.1286 57.5439 84.0793 57.1854C83.8834 56.1052 83.4168 55.3762 82.5273 54.7425C82.2169 54.6029 81.9015 54.4745 81.5822 54.3573C81.4211 54.2973 81.26 54.2373 81.0939 54.1756C80.9718 54.1315 80.8497 54.0874 80.7238 54.042C80.7238 53.9958 80.7238 53.9496 80.7238 53.9019Z" fill="#191919"/>
<path d="M43.9613 61.327C44.5427 61.8669 44.916 62.3416 44.9509 63.1625C44.9505 63.3254 44.9501 63.4883 44.9498 63.6561C44.9503 63.9015 44.9503 63.9015 44.9509 64.1519C44.9324 64.5492 44.9324 64.5492 44.7937 64.6893C44.4904 64.6995 44.1868 64.701 43.8833 64.6981C43.6341 64.6962 43.6341 64.6962 43.3799 64.6942C43.2513 64.6926 43.1227 64.691 42.9903 64.6893C42.9867 64.5931 42.9831 64.4968 42.9794 64.3976C42.9716 64.2714 42.9637 64.1452 42.9556 64.0151C42.9491 63.8899 42.9427 63.7648 42.9361 63.6359C42.8789 63.2742 42.8789 63.2742 42.6088 63.0366C42.0561 62.7382 41.5187 62.7857 40.9094 62.8681C39.8907 63.1836 39.3073 63.8601 38.8111 64.7944C38.2667 65.9744 37.9399 67.1613 38.1348 68.4719C38.3606 68.9568 38.3606 68.9568 38.8285 69.1724C39.5051 69.2982 40.1281 69.2676 40.7446 68.9447C41.404 68.4486 41.786 67.9622 42.1579 67.211C42.7988 67.211 43.4397 67.211 44.1001 67.211C43.579 68.7897 42.6037 69.8567 41.2215 70.726C40.2081 71.2217 38.6866 71.1786 37.6162 70.8918C36.8435 70.5303 36.4204 69.9836 36.0886 69.2161C35.5759 67.6941 36.0507 66.0746 36.7042 64.6718C37.5227 63.1182 38.6017 61.8685 40.2504 61.2044C41.4612 60.8376 42.8259 60.6357 43.9613 61.327Z" fill="#191919"/>
<path d="M67.5448 61.327C68.1353 61.8058 68.3951 62.4041 68.5159 63.1483C68.4964 63.6688 68.4405 64.1713 68.3772 64.6893C67.782 64.6893 67.1869 64.6893 66.5737 64.6893C66.4925 64.101 66.4925 64.101 66.4112 63.5127C66.3312 63.1372 66.3312 63.1372 66.0503 62.9616C65.3281 62.7428 64.5994 62.7793 63.8946 63.0344C62.5453 63.9534 62.0754 65.165 61.6766 66.695C61.5294 67.478 61.4722 68.1763 61.857 68.8922C62.4838 69.3141 63.0655 69.2833 63.7992 69.1724C64.5489 68.8565 65.0133 68.4583 65.3599 67.7189C65.5111 67.431 65.5111 67.431 65.7414 67.211C66.3523 67.1129 66.9315 67.1457 67.5448 67.211C67.3714 68.4434 66.4337 69.4257 65.5138 70.1957C64.3063 71.0719 63.0186 71.143 61.5796 70.9936C60.6439 70.7437 60.1349 70.1552 59.6222 69.3513C59.1058 68.0176 59.5249 66.2205 60.0536 64.9695C60.9778 63.0158 62.2384 61.8332 64.2154 61.0468C65.3562 60.8016 66.4862 60.7748 67.5448 61.327Z" fill="#191919"/>
<path d="M25.6495 57.8246C26.2904 57.8246 26.9313 57.8246 27.5916 57.8246C27.0046 60.1726 26.3279 62.4938 25.6528 64.817C25.532 65.233 25.4117 65.649 25.2914 66.0651C25.1743 66.4702 25.0569 66.8752 24.9394 67.2802C24.8839 67.4716 24.8285 67.6629 24.7731 67.8543C24.4819 68.8607 24.1826 69.8615 23.846 70.8535C23.2509 70.8535 22.6558 70.8535 22.0426 70.8535C22.1279 69.7715 22.437 68.7664 22.7422 67.7298C22.7992 67.534 22.8561 67.3381 22.9129 67.1423C23.0626 66.6272 23.2133 66.1125 23.3642 65.5978C23.5147 65.0838 23.6642 64.5694 23.8138 64.055C24.4189 61.9762 25.0296 59.899 25.6495 57.8246Z" fill="#191919"/>
<path d="M100.146 30.6537C100.444 30.8984 100.667 31.1389 100.839 31.4866C100.922 32.3183 100.946 33.0799 100.47 33.7895C99.8754 34.4912 99.2292 35.073 98.2928 35.1592C97.5978 35.1851 97.0909 35.1821 96.5386 34.7088C96.1259 34.3069 96.0245 33.8924 95.9761 33.3183C95.9992 32.437 96.5416 31.7873 97.1109 31.1692C97.8685 30.4615 99.1934 30.1474 100.146 30.6537ZM98.0646 31.3466C98.1926 31.3568 98.1926 31.3568 98.3231 31.3673C98.4352 31.3778 98.5474 31.3883 98.6629 31.3991C98.8295 31.4137 98.8295 31.4137 98.9994 31.4286C99.3132 31.4866 99.3132 31.4866 99.7293 31.7668C99.6912 32.3317 99.6551 32.547 99.2351 32.9401C99.1235 33.0153 99.012 33.0904 98.897 33.1678C99.0343 33.4452 99.1717 33.7226 99.3132 34.0084C99.8666 33.5377 100.125 33.1608 100.263 32.4569C100.294 32.0582 100.216 31.8235 100.007 31.4866C99.6563 31.1064 99.478 31.0687 98.9577 31.0226C98.4642 31.0293 98.4642 31.0293 98.0646 31.3466ZM97.6484 31.4866C97.0473 32.1097 96.7046 32.6975 96.6774 33.5881C96.8 33.9004 96.8 33.9004 96.9548 34.1485C97.281 34.0238 97.281 34.0238 97.3856 33.5853C97.4352 33.41 97.4847 33.2346 97.5357 33.054C97.6116 32.7926 97.6116 32.7926 97.6891 32.5259C97.7777 32.0934 97.8057 31.8883 97.6484 31.4866ZM98.3421 31.9069C98.2963 32.0919 98.2505 32.2768 98.2034 32.4673C98.478 32.4673 98.7527 32.4673 99.0357 32.4673C99.0815 32.3286 99.1273 32.1899 99.1744 32.047C98.7624 31.9777 98.7624 31.9777 98.3421 31.9069ZM98.0646 33.1678C97.9745 33.4018 97.9745 33.4018 97.8825 33.6406C97.6484 34.1485 97.6484 34.1485 97.2323 34.4287C98.1597 34.593 98.1597 34.593 99.0357 34.2886C98.8984 34.2423 98.761 34.1961 98.6195 34.1485C98.5995 34.0387 98.5795 33.9289 98.5588 33.8157C98.4977 33.453 98.4977 33.453 98.3421 33.1678C98.2505 33.1678 98.159 33.1678 98.0646 33.1678Z" fill="#191919"/>
<path d="M76.0071 56.2836C76.5591 56.2671 77.111 56.2573 77.6632 56.2485C77.8181 56.2438 77.9731 56.2392 78.1327 56.2343C79.2932 56.2206 80.1638 56.3888 81.0793 57.1329C81.2787 57.4043 81.2787 57.4043 81.2787 57.8246C80.5418 57.9292 79.8354 57.9814 79.0895 57.9784C78.9925 57.9782 78.8955 57.978 78.7956 57.9778C78.4904 57.977 78.1852 57.9753 77.8799 57.9735C77.6711 57.9728 77.4623 57.9721 77.2535 57.9716C76.7456 57.97 76.2376 57.9676 75.7297 57.9647C75.5688 57.4774 75.6222 57.3564 75.7904 56.8877C75.8502 56.7179 75.8502 56.7179 75.9112 56.5446C75.9429 56.4585 75.9745 56.3723 76.0071 56.2836Z" fill="#191919"/>
<path d="M58.8051 57.8246C59.446 57.8246 60.0869 57.8246 60.7472 57.8246C60.6077 58.5796 60.4761 59.2096 60.1923 59.9261C59.5972 59.9261 59.0021 59.9261 58.3889 59.9261C58.4654 59.1921 58.5872 58.5288 58.8051 57.8246Z" fill="#191919"/>
</g>
<defs>
<clipPath id="clip0_2336_13666">
<rect width="100" height="100" fill="white" transform="translate(0.886322 0.255981)"/>
</clipPath>
</defs>
</svg>
