<svg width="101" height="101" viewBox="0 0 101 101" fill="none" xmlns="http://www.w3.org/2000/svg">
<g clip-path="url(#clip0_2336_13692)">
<path d="M85.7646 42.9411L85.6731 42.6685L75.7021 16.8918C75.4886 16.3768 75.1532 15.9528 74.6653 15.6499C74.2079 15.347 73.6591 15.2258 73.1102 15.2561C72.5613 15.2561 72.043 15.4681 71.6161 15.8316C71.1892 16.1648 70.8843 16.6494 70.7318 17.1644L63.993 37.6101H36.7937L30.0549 17.1644C29.9024 16.6494 29.5975 16.1648 29.1706 15.8316C28.7437 15.4984 28.2254 15.2864 27.6765 15.2561C27.1276 15.2561 26.5788 15.3773 26.1214 15.6499C25.664 15.9528 25.2981 16.3768 25.0846 16.8918L15.1136 42.7291L15.0221 42.9714C13.589 46.697 13.406 50.7559 14.5343 54.6027C15.632 58.4192 17.9494 61.7814 21.1511 64.2046H21.1816L21.2731 64.2955L36.4583 75.5936L43.9594 81.2275L48.5333 84.6503C49.0822 85.0441 49.7225 85.2561 50.3933 85.2561C51.0642 85.2561 51.7045 85.0441 52.2534 84.6503L56.8272 81.2275L64.3284 75.5936L79.6051 64.2349H79.6356C82.8373 61.8117 85.1852 58.4495 86.2829 54.6027C87.3807 50.7559 87.2282 46.697 85.7951 42.9714L85.7646 42.9411Z" fill="#191919"/>
<path d="M85.7645 42.9409L85.673 42.6683C80.8247 43.6679 76.2509 45.6973 72.2869 48.6657L50.4543 65.1132C57.8944 70.7168 64.3893 75.5632 64.3893 75.5632L79.6355 64.2045H79.666C82.8677 61.7813 85.1852 58.3888 86.2829 54.5723C87.3806 50.7255 87.1977 46.6666 85.7645 42.9409Z" fill="#272727"/>
<path d="M36.4583 75.5632L43.9594 81.1971L48.5333 84.6199C49.0821 85.0136 49.7225 85.2257 50.3933 85.2257C51.0641 85.2257 51.7045 85.0136 52.2533 84.6199L56.8272 81.1971L64.3283 75.5632C64.3283 75.5632 57.8335 70.6865 50.3933 65.1132L36.4888 75.5632H36.4583Z" fill="#393939"/>
<path d="M28.5302 48.6657C24.5662 45.7276 19.9924 43.6679 15.1441 42.6986L15.0526 42.9409C13.6194 46.6666 13.4365 50.7557 14.5342 54.5723C15.6319 58.3888 17.9799 61.7813 21.1816 64.1742H21.2121L21.3035 64.265L36.4888 75.5632L50.4543 65.1131L28.5607 48.696L28.5302 48.6657Z" fill="#272727"/>
</g>
<defs>
<clipPath id="clip0_2336_13692">
<rect width="73.1818" height="70" fill="white" transform="translate(13.8024 15.256)"/>
</clipPath>
</defs>
</svg>
