<svg width="101" height="101" viewBox="0 0 101 101" fill="none" xmlns="http://www.w3.org/2000/svg">
<path d="M74.7307 15.256H49.1655C49.1655 21.6291 54.325 26.7874 60.6953 26.7874H65.3991V31.3389C65.3991 37.712 70.558 42.8709 76.9312 42.8709V17.4558C76.9306 16.8725 76.6985 16.3132 76.286 15.9008C75.8734 15.4883 75.3141 15.2564 74.7307 15.256Z" fill="#191919"/>
<path d="M62.0627 28.0007H36.4976C36.4976 34.3739 41.6542 39.531 48.0274 39.531H52.7305V44.0836C52.7305 50.4567 57.8894 55.6162 64.2626 55.6162V30.2012C64.2622 29.6178 64.0303 29.0585 63.6178 28.6459C63.2054 28.2334 62.6461 28.0013 62.0627 28.0007Z" fill="#191919"/>
<path d="M49.394 40.7456H23.8265C23.8265 47.1187 28.9854 52.2776 35.358 52.2776H40.0623V56.8307C40.0623 63.2016 45.2206 68.3605 51.5938 68.3605V42.946C51.5934 42.3627 51.3615 41.8033 50.949 41.3908C50.5366 40.9782 49.9773 40.7462 49.394 40.7456Z" fill="#191919"/>
<path d="M40.3735 71.2178H42.3175V80.8302C42.3175 83.3669 41.161 85.1359 38.4759 85.1359C37.4683 85.1359 36.6786 84.9678 36.1368 84.7776V82.9355C36.7295 83.1744 37.4434 83.2938 38.1578 83.2938C39.8074 83.2938 40.3735 82.3388 40.3735 80.9502V71.2178ZM45.8885 70.4751C46.6516 70.4751 47.1934 70.9302 47.1934 71.742C47.1934 72.5312 46.6516 73.0112 45.8885 73.0112C45.126 73.0112 44.5842 72.5555 44.5842 71.742C44.5842 70.9551 45.126 70.4751 45.8885 70.4751ZM44.9289 74.517H46.7999V85.0408H44.9289V74.517ZM51.4278 85.0408H49.6067V74.517H51.4284V76.3591C52.0698 75.1143 53.1533 74.23 55.2694 74.3495V76.1202C52.8816 75.8813 51.4284 76.5737 51.4284 78.8228L51.4278 85.0408ZM64.0128 83.1501C63.3227 84.5387 62.0179 85.2559 60.3417 85.2559C57.463 85.2559 56.0098 82.8868 56.0098 79.7778C56.0098 76.8126 57.5355 74.3025 60.5653 74.3025C62.1396 74.3025 63.3714 74.9948 64.0128 76.3591V74.517H65.8838V85.0408H64.0128V83.1501ZM60.8353 83.5814C62.5093 83.5814 63.9862 82.5534 63.9862 80.2092V79.373C63.9862 77.0294 62.6332 76.0008 61.0317 76.0008C58.94 76.0008 57.8559 77.339 57.8559 79.7778C57.8808 82.3139 58.9156 83.5814 60.8353 83.5814Z" fill="#191919"/>
</svg>
