<svg width="101" height="101" viewBox="0 0 101 101" fill="none" xmlns="http://www.w3.org/2000/svg">
<g clip-path="url(#clip0_2336_13608)">
<g clip-path="url(#clip1_2336_13608)">
<path d="M43.3434 27.6286C43.4388 27.6292 43.5343 27.6298 43.6327 27.6304C43.8657 27.632 44.0986 27.6344 44.3316 27.637C44.1256 27.7703 44.1256 27.7703 43.9155 27.9063C38.836 31.8532 36.513 39.2194 34.3628 44.9463C34.3064 45.0955 34.3064 45.0955 34.2488 45.2477C33.5286 47.1579 32.8362 49.1142 32.5684 51.1396C32.5523 51.2572 32.5362 51.3749 32.5196 51.4961C32.1032 54.7689 32.5944 58.1267 34.6223 60.8619C36.7094 63.4404 39.6903 65.1686 42.9446 66.0086C43.0716 66.0419 43.1986 66.0752 43.3294 66.1095C44.7682 66.4487 46.151 66.4765 47.6245 66.4814C47.883 66.4837 48.1414 66.4861 48.3998 66.4887C49.0734 66.4951 49.7469 66.4991 50.4204 66.5027C51.1104 66.5067 51.8003 66.513 52.4903 66.519C53.8391 66.5305 55.188 66.5396 56.5369 66.5472C56.3652 67.0593 56.1855 67.525 55.9171 67.9966C55.8499 68.1154 55.7827 68.2341 55.7135 68.3565C55.6419 68.4814 55.5704 68.6063 55.4966 68.735C55.4232 68.8643 55.3497 68.9937 55.2741 69.1269C55.1227 69.3932 54.9711 69.6592 54.8191 69.9251C54.6059 70.2982 54.3937 70.6717 54.1817 71.0454C54.0566 71.2655 53.9315 71.4855 53.8063 71.7054C53.7186 71.8598 53.7186 71.8598 53.6291 72.0172C53.2244 72.7247 53.2244 72.7247 53.0695 72.8751C52.7897 72.8883 52.5094 72.8918 52.2293 72.8917C52.1401 72.8918 52.051 72.892 51.9591 72.8921C51.6567 72.8925 51.3543 72.8919 51.0519 72.8913C50.8344 72.8914 50.6169 72.8915 50.3994 72.8916C49.7988 72.8919 49.1982 72.8914 48.5975 72.8907C47.951 72.8902 47.3044 72.8904 46.6578 72.8905C45.5366 72.8905 44.4153 72.8901 43.2941 72.8893C41.673 72.8883 40.0519 72.8879 38.4308 72.8877C35.8009 72.8874 33.171 72.8865 30.5412 72.8853C27.9858 72.884 25.4304 72.8831 22.8751 72.8825C22.7177 72.8825 22.5603 72.8824 22.3981 72.8824C21.6086 72.8822 20.819 72.8821 20.0295 72.8819C13.4746 72.8805 6.91974 72.8781 0.364868 72.8751C0.856093 72.6249 1.32416 72.4976 1.86452 72.3702C6.71472 71.1609 10.7553 68.0224 13.8184 64.2583C13.9378 64.1157 14.0574 63.9732 14.1771 63.8307C16.3635 61.2088 18.1603 58.2845 19.6485 55.2393C19.7849 54.9632 19.9268 54.6901 20.0689 54.4167C20.8281 52.9119 21.348 51.3568 21.8541 49.7596C23.5398 44.4403 25.843 39.2876 29.6298 35.0421C29.7276 34.9322 29.8254 34.8223 29.9261 34.7091C33.2948 31.0046 38.0089 27.5634 43.3434 27.6286Z" fill="#191919"/>
<path d="M47.5216 27.637C64.9599 27.637 82.3981 27.637 100.365 27.637C100.365 27.6814 100.365 27.7258 100.365 27.7716C100.103 27.8281 100.103 27.8281 99.8361 27.8857C98.2611 28.2384 96.8146 28.6781 95.3718 29.3872C95.2811 29.4317 95.1903 29.4761 95.0968 29.5218C92.8521 30.6406 90.9368 32.1325 89.1305 33.8303C89.0268 33.9256 88.9231 34.0208 88.8162 34.119C88.067 34.822 87.4166 35.5948 86.7726 36.3884C86.7052 36.4705 86.6377 36.5526 86.5682 36.6372C84.7695 38.8326 83.2713 41.1827 81.9183 43.6588C81.8704 43.7463 81.8226 43.8337 81.7733 43.9239C81.4362 44.5465 81.118 45.1769 80.8087 45.813C80.7543 45.9241 80.7 46.0352 80.644 46.1497C79.7709 47.9554 79.1313 49.7709 78.569 51.6876C77.1194 56.6017 74.6248 61.6365 71.0999 65.47C71.0405 65.535 70.981 65.5999 70.9197 65.6668C70.4786 66.1467 70.0282 66.6172 69.5743 67.0857C69.4781 67.1879 69.3819 67.2901 69.2828 67.3954C67.7071 69.0107 65.782 70.2556 63.749 71.2594C63.6171 71.3254 63.4852 71.3913 63.3492 71.4593C61.136 72.4982 58.8492 72.9384 56.3981 72.8751C56.5355 72.7862 56.6728 72.6973 56.8142 72.6058C62.7498 67.9937 66.6812 57.132 68.0486 49.9867C68.0662 49.8954 68.0839 49.804 68.102 49.7098C68.712 46.3915 68.2863 42.9015 66.3843 40.0236C66.0362 39.5547 65.6664 39.1122 65.2747 38.6772C65.2027 38.596 65.1306 38.5148 65.0564 38.4311C63.0307 36.3111 60.055 35.0938 57.2303 34.3688C57.1452 34.3457 57.0602 34.3226 56.9725 34.2988C55.7218 34.0044 54.438 34.0517 53.1594 34.0438C52.9001 34.0413 52.6409 34.0386 52.3817 34.0359C51.7036 34.029 51.0255 34.0237 50.3474 34.0186C49.6538 34.0132 48.9602 34.0064 48.2665 33.9996C46.9087 33.9866 45.5508 33.9753 44.1929 33.9649C44.3641 33.4537 44.543 32.9901 44.8127 32.5202C44.8806 32.4007 44.9485 32.2812 45.0185 32.1581C45.0893 32.0351 45.1601 31.9122 45.2331 31.7855C46.0185 30.4133 46.7679 29.027 47.5216 27.637Z" fill="#191919"/>
</g>
</g>
<defs>
<clipPath id="clip0_2336_13608">
<rect width="100" height="100" fill="white" transform="translate(0.364868 0.255981)"/>
</clipPath>
<clipPath id="clip1_2336_13608">
<rect width="100" height="45.2381" fill="white" transform="translate(0.364868 27.637)"/>
</clipPath>
</defs>
</svg>
