<svg width="101" height="101" viewBox="0 0 101 101" fill="none" xmlns="http://www.w3.org/2000/svg">
<g clip-path="url(#clip0_2377_7957)">
<path d="M28.4082 42.4265C28.4082 43.6664 28.5416 44.6714 28.7742 45.4085C29.0696 46.2378 29.4253 47.044 29.8383 47.8206C30.0046 48.0886 30.0709 48.3566 30.0709 48.5913C30.0709 48.9261 29.8716 49.2613 29.4393 49.5964L27.3441 51.0034C27.0447 51.2046 26.7454 51.305 26.479 51.305C26.1466 51.305 25.8139 51.1374 25.4812 50.8358C25.0327 50.3511 24.6318 49.8238 24.2841 49.2613C23.9514 48.6921 23.6187 48.055 23.253 47.2847C20.6585 50.3667 17.3991 51.9078 13.4748 51.9081C10.6813 51.9081 8.45273 51.1038 6.8229 49.496C5.19346 47.8874 4.36206 45.7433 4.36206 43.0632C4.36206 40.2156 5.35981 37.9039 7.38867 36.1617C9.41713 34.4195 12.1114 33.5485 15.537 33.5485C16.6678 33.5485 17.8319 33.6488 19.0623 33.8164C20.2931 33.984 21.5569 34.252 22.8874 34.5535V32.1078C22.8874 29.5614 22.3549 27.786 21.3238 26.7473C20.2598 25.7087 18.4636 25.2059 15.9027 25.2059C14.7386 25.2059 13.5415 25.3403 12.3107 25.6419C11.0799 25.9434 9.88285 26.3118 8.71874 26.7809C8.18671 27.0153 7.78769 27.1493 7.55463 27.2165C7.32157 27.2837 7.15561 27.3169 7.0226 27.3169C6.55688 27.3169 6.32422 26.9817 6.32422 26.2782V24.6364C6.32422 24.1005 6.39091 23.6985 6.55688 23.4641C6.72324 23.2294 7.0226 22.995 7.48832 22.7606C8.6523 22.1572 10.0491 21.6546 11.6786 21.2528C13.3089 20.8173 15.0384 20.6165 16.8675 20.6165C20.8256 20.6165 23.7192 21.5208 25.5817 23.3302C27.4108 25.1391 28.3422 27.8864 28.3422 31.5719V42.4265H28.4082ZM14.905 47.5191C16.0028 47.5191 17.1335 47.3183 18.3306 46.916C19.528 46.514 20.5925 45.7769 21.4902 44.7718C22.0226 44.1355 22.4216 43.432 22.621 42.6277C22.8207 41.8238 22.9537 40.8519 22.9537 39.7129V38.3058C21.945 38.0587 20.9234 37.8686 19.8937 37.7363C18.8568 37.6038 17.8127 37.5366 16.7675 37.5352C14.5389 37.5352 12.9095 37.9707 11.812 38.8754C10.7146 39.7801 10.1822 41.0531 10.1822 42.7281C10.1822 44.3027 10.5812 45.4753 11.4126 46.2796C12.2111 47.1171 13.3752 47.5191 14.905 47.5191ZM41.612 51.1374C41.0133 51.1374 40.6142 51.037 40.3482 50.8023C40.0822 50.6015 39.8492 50.1323 39.6498 49.496L31.8342 23.5981C31.6341 22.9278 31.5344 22.4923 31.5344 22.2579C31.5344 21.722 31.8004 21.42 32.3329 21.42H35.5921C36.2238 21.42 36.6566 21.5208 36.8892 21.7552C37.1553 21.9563 37.355 22.4255 37.5543 23.0618L43.1418 45.241L48.3302 23.0618C48.4966 22.3919 48.6963 21.9563 48.9619 21.7552C49.2283 21.5544 49.6941 21.4204 50.2928 21.4204H52.9533C53.585 21.4204 54.0178 21.5208 54.2834 21.7552C54.5498 21.9563 54.7825 22.4255 54.9155 23.0618L60.1707 45.5089L65.9241 23.0618C66.1234 22.3919 66.3565 21.9563 66.5891 21.7552C66.8552 21.5544 67.2875 21.4204 67.8863 21.4204H70.9792C71.5116 21.4204 71.811 21.6884 71.811 22.2579C71.811 22.4255 71.7776 22.5931 71.7443 22.7938C71.7109 22.9946 71.6446 23.263 71.5116 23.6317L63.4958 49.5292C63.2965 50.1995 63.0637 50.6351 62.7975 50.8358C62.5314 51.037 62.0991 51.171 61.5341 51.171H58.6738C58.0418 51.171 57.6094 51.0706 57.343 50.8358C57.077 50.6015 56.8443 50.1659 56.7113 49.496L51.5558 27.8864L46.434 49.462C46.268 50.1323 46.0683 50.5679 45.8023 50.8023C45.5363 51.037 45.0706 51.1374 44.4722 51.1374H41.612ZM84.3498 52.0421C82.6203 52.0421 80.8908 51.8409 79.228 51.439C77.5648 51.037 76.2681 50.6011 75.4033 50.0991C74.8709 49.7972 74.5049 49.4624 74.3722 49.1609C74.2429 48.8651 74.1749 48.5458 74.1725 48.2226V46.514C74.1725 45.8105 74.4386 45.4753 74.9376 45.4753C75.1413 45.4761 75.3435 45.5101 75.5364 45.5761C75.7357 45.6433 76.035 45.7769 76.3678 45.9109C77.5423 46.4317 78.7687 46.8248 80.026 47.0835C81.3289 47.3496 82.6548 47.4843 83.9841 47.4855C86.0792 47.4855 87.7091 47.1171 88.8398 46.38C89.9706 45.6429 90.5693 44.571 90.5693 43.1972C90.5693 42.2593 90.27 41.4886 89.6712 40.8519C89.0725 40.2152 87.9417 39.6461 86.3123 39.1097L81.4895 37.6023C79.0616 36.8316 77.2658 35.6926 76.168 34.1848C75.0706 32.7106 74.5052 31.0692 74.5052 29.327C74.5052 27.92 74.8046 26.6803 75.4033 25.6079C76.0017 24.536 76.8001 23.5981 77.7979 22.861C78.7956 22.0903 79.9264 21.5208 81.2569 21.1188C82.5869 20.7169 83.9837 20.5493 85.4472 20.5493C86.1789 20.5493 86.944 20.5829 87.6757 20.6833C88.4408 20.7837 89.1392 20.9177 89.8376 21.0517C90.5026 21.2192 91.1347 21.3868 91.7334 21.588C92.3319 21.7888 92.7975 21.9897 93.1302 22.1907C93.5959 22.4591 93.9283 22.727 94.128 23.0286C94.3275 23.2966 94.4273 23.6651 94.4273 24.1341V25.7087C94.4273 26.4122 94.1613 26.7809 93.6622 26.7809C93.3962 26.7809 92.9639 26.6465 92.3989 26.3786C90.5025 25.5075 88.3739 25.0719 86.0129 25.0719C84.1171 25.0719 82.6203 25.3735 81.5892 26.0102C80.5585 26.6465 80.026 27.6184 80.026 28.9918C80.026 29.9301 80.3587 30.734 81.0238 31.3707C81.6888 32.0075 82.9196 32.6438 84.6825 33.2133L89.4052 34.7211C91.7998 35.4918 93.5292 36.5637 94.5603 37.9371C95.5914 39.3105 96.0905 40.8855 96.0905 42.6277C96.0905 44.0683 95.7908 45.3749 95.2254 46.514C94.627 47.6531 93.8286 48.6581 92.7975 49.4624C91.7664 50.2999 90.536 50.903 89.1059 51.3386C87.609 51.8077 86.0459 52.0421 84.3498 52.0421Z" fill="white"/>
<path d="M90.6359 68.324C79.6939 76.4653 63.7958 80.7872 50.1267 80.7872C30.9693 80.7872 13.7081 73.6509 0.670651 61.7908C-0.360451 60.8529 0.570601 59.5799 1.80102 60.3166C15.9029 68.5587 33.2975 73.5505 51.2908 73.5505C63.4302 73.5505 76.767 71.0044 89.0398 65.7779C90.8689 64.94 92.4321 66.9841 90.6359 68.324ZM95.1926 63.0974C93.7959 61.2885 85.9465 62.2264 82.3878 62.6619C81.3234 62.7963 81.157 61.858 82.1218 61.1545C88.3744 56.7319 98.6516 58.0053 99.8487 59.4791C101.046 60.9869 99.516 71.3392 93.6625 76.2978C92.7648 77.0685 91.9 76.6665 92.299 75.6614C93.6291 72.3443 96.5894 64.8732 95.1926 63.0974Z" fill="white"/>
</g>
<defs>
<clipPath id="clip0_2377_7957">
<rect width="100" height="100" fill="white" transform="translate(0.227539 0.668213)"/>
</clipPath>
</defs>
</svg>
