<svg width="101" height="101" viewBox="0 0 101 101" fill="none" xmlns="http://www.w3.org/2000/svg">
<g clip-path="url(#clip0_2377_7912)">
<path d="M28.4082 42.5383C28.4082 43.7782 28.5416 44.7833 28.7742 45.5204C29.0696 46.3496 29.4253 47.1558 29.8383 47.9325C30.0046 48.2004 30.0709 48.4684 30.0709 48.7032C30.0709 49.0379 29.8716 49.3731 29.4393 49.7082L27.3441 51.1152C27.0447 51.3164 26.7454 51.4168 26.479 51.4168C26.1466 51.4168 25.8139 51.2492 25.4812 50.9477C25.0327 50.4629 24.6318 49.9356 24.2841 49.3731C23.9514 48.8039 23.6187 48.1668 23.253 47.3965C20.6585 50.4785 17.3991 52.0197 13.4748 52.0199C10.6813 52.0199 8.45273 51.2156 6.8229 49.6078C5.19346 47.9992 4.36206 45.8551 4.36206 43.1751C4.36206 40.3274 5.35981 38.0157 7.38867 36.2735C9.41713 34.5314 12.1114 33.6603 15.537 33.6603C16.6678 33.6603 17.8319 33.7607 19.0623 33.9282C20.2931 34.0958 21.5569 34.3638 22.8874 34.6653V32.2197C22.8874 29.6732 22.3549 27.8978 21.3238 26.8591C20.2598 25.8205 18.4636 25.3177 15.9027 25.3177C14.7386 25.3177 13.5415 25.4521 12.3107 25.7537C11.0799 26.0552 9.88285 26.4236 8.71874 26.8927C8.18671 27.1271 7.78769 27.2611 7.55463 27.3283C7.32157 27.3955 7.15561 27.4287 7.0226 27.4287C6.55688 27.4287 6.32422 27.0935 6.32422 26.39V24.7482C6.32422 24.2123 6.39091 23.8103 6.55688 23.576C6.72324 23.3412 7.0226 23.1068 7.48832 22.8724C8.6523 22.2691 10.0491 21.7665 11.6786 21.3646C13.3089 20.9291 15.0384 20.7283 16.8675 20.7283C20.8256 20.7283 23.7192 21.6326 25.5817 23.442C27.4108 25.2509 28.3422 27.9982 28.3422 31.6837V42.5383H28.4082ZM14.905 47.6309C16.0028 47.6309 17.1335 47.4301 18.3306 47.0278C19.528 46.6258 20.5925 45.8887 21.4902 44.8836C22.0226 44.2473 22.4216 43.5438 22.621 42.7395C22.8207 41.9356 22.9537 40.9637 22.9537 39.8247V38.4177C21.945 38.1705 20.9234 37.9804 19.8937 37.8481C18.8568 37.7156 17.8127 37.6484 16.7675 37.647C14.5389 37.647 12.9095 38.0825 11.812 38.9872C10.7146 39.8919 10.1822 41.1649 10.1822 42.8399C10.1822 44.4145 10.5812 45.5872 11.4126 46.3914C12.2111 47.2289 13.3752 47.6309 14.905 47.6309ZM41.612 51.2492C41.0133 51.2492 40.6142 51.1488 40.3482 50.9141C40.0822 50.7133 39.8492 50.2442 39.6498 49.6078L31.8342 23.7099C31.6341 23.0396 31.5344 22.6041 31.5344 22.3697C31.5344 21.8338 31.8004 21.5318 32.3329 21.5318H35.5921C36.2238 21.5318 36.6566 21.6326 36.8892 21.867C37.1553 22.0682 37.355 22.5373 37.5543 23.1736L43.1418 45.3528L48.3302 23.1736C48.4966 22.5037 48.6963 22.0682 48.9619 21.867C49.2283 21.6662 49.6941 21.5322 50.2928 21.5322H52.9533C53.585 21.5322 54.0178 21.6326 54.2834 21.867C54.5498 22.0682 54.7825 22.5373 54.9155 23.1736L60.1707 45.6207L65.9241 23.1736C66.1234 22.5037 66.3565 22.0682 66.5891 21.867C66.8552 21.6662 67.2875 21.5322 67.8863 21.5322H70.9792C71.5116 21.5322 71.811 21.8002 71.811 22.3697C71.811 22.5373 71.7776 22.7049 71.7443 22.9056C71.7109 23.1064 71.6446 23.3748 71.5116 23.7435L63.4958 49.641C63.2965 50.3113 63.0637 50.7469 62.7975 50.9477C62.5314 51.1488 62.0991 51.2828 61.5341 51.2828H58.6738C58.0418 51.2828 57.6094 51.1824 57.343 50.9477C57.077 50.7133 56.8443 50.2778 56.7113 49.6078L51.5558 27.9982L46.434 49.5738C46.268 50.2442 46.0683 50.6797 45.8023 50.9141C45.5363 51.1488 45.0706 51.2492 44.4722 51.2492H41.612ZM84.3498 52.1539C82.6203 52.1539 80.8908 51.9527 79.228 51.5508C77.5648 51.1488 76.2681 50.7129 75.4033 50.211C74.8709 49.909 74.5049 49.5742 74.3722 49.2727C74.2429 48.9769 74.1749 48.6576 74.1725 48.3344V46.6258C74.1725 45.9223 74.4386 45.5872 74.9376 45.5872C75.1413 45.5879 75.3435 45.622 75.5364 45.6879C75.7357 45.7551 76.035 45.8887 76.3678 46.0227C77.5423 46.5435 78.7687 46.9366 80.026 47.1953C81.3289 47.4614 82.6548 47.5961 83.9841 47.5973C86.0792 47.5973 87.7091 47.2289 88.8398 46.4918C89.9706 45.7547 90.5693 44.6829 90.5693 43.309C90.5693 42.3712 90.27 41.6005 89.6712 40.9637C89.0725 40.327 87.9417 39.7579 86.3123 39.2216L81.4895 37.7142C79.0616 36.9435 77.2658 35.8044 76.168 34.2966C75.0706 32.8224 74.5052 31.181 74.5052 29.4388C74.5052 28.0318 74.8046 26.7921 75.4033 25.7197C76.0017 24.6478 76.8001 23.7099 77.7979 22.9728C78.7956 22.2021 79.9264 21.6326 81.2569 21.2307C82.5869 20.8287 83.9837 20.6611 85.4472 20.6611C86.1789 20.6611 86.944 20.6947 87.6757 20.7951C88.4408 20.8955 89.1392 21.0295 89.8376 21.1635C90.5026 21.331 91.1347 21.4986 91.7334 21.6998C92.3319 21.9006 92.7975 22.1015 93.1302 22.3025C93.5959 22.5709 93.9283 22.8389 94.128 23.1404C94.3275 23.4084 94.4273 23.7769 94.4273 24.2459V25.8205C94.4273 26.524 94.1613 26.8927 93.6622 26.8927C93.3962 26.8927 92.9639 26.7584 92.3989 26.4904C90.5025 25.6193 88.3739 25.1838 86.0129 25.1838C84.1171 25.1838 82.6203 25.4853 81.5892 26.122C80.5585 26.7584 80.026 27.7302 80.026 29.1037C80.026 30.0419 80.3587 30.8458 81.0238 31.4826C81.6888 32.1193 82.9196 32.7556 84.6825 33.3251L89.4052 34.8329C91.7998 35.6036 93.5292 36.6755 94.5603 38.0489C95.5914 39.4223 96.0905 40.9973 96.0905 42.7395C96.0905 44.1801 95.7908 45.4868 95.2254 46.6258C94.627 47.7649 93.8286 48.7699 92.7975 49.5742C91.7664 50.4117 90.536 51.0149 89.1059 51.4504C87.609 51.9195 86.0459 52.1539 84.3498 52.1539Z" fill="#191919"/>
<path d="M90.6359 68.4358C79.6939 76.5771 63.7958 80.899 50.1267 80.899C30.9693 80.899 13.7081 73.7627 0.670651 61.9026C-0.360451 60.9647 0.570601 59.6917 1.80102 60.4284C15.9029 68.6706 33.2975 73.6623 51.2908 73.6623C63.4302 73.6623 76.767 71.1162 89.0398 65.8897C90.8689 65.0518 92.4321 67.096 90.6359 68.4358ZM95.1926 63.2093C93.7959 61.4003 85.9465 62.3382 82.3878 62.7737C81.3234 62.9081 81.157 61.9698 82.1218 61.2663C88.3744 56.8437 98.6516 58.1171 99.8487 59.5909C101.046 61.0987 99.516 71.451 93.6625 76.4096C92.7648 77.1803 91.9 76.7783 92.299 75.7733C93.6291 72.4561 96.5894 64.985 95.1926 63.2093Z" fill="#191919"/>
</g>
<defs>
<clipPath id="clip0_2377_7912">
<rect width="100" height="100" fill="white" transform="translate(0.227539 0.780029)"/>
</clipPath>
</defs>
</svg>
