<svg width="101" height="101" viewBox="0 0 101 101" fill="none" xmlns="http://www.w3.org/2000/svg">
<path d="M79.143 48.3573C79.143 67.3264 56.5189 82.1718 51.5827 85.4708C51.1714 85.8831 50.3487 85.8831 49.526 85.4708C44.5899 82.5842 21.5544 67.3264 21.5544 48.3573V25.6769C21.5544 24.8522 22.3771 24.0275 23.1998 24.0275C40.8877 23.6151 37.1856 15.78 50.3487 15.78C63.5118 15.78 59.3983 23.6151 77.0862 24.0275C77.9089 24.0275 78.7316 24.8522 78.7316 25.6769L79.143 48.3573Z" fill="#191919"/>
<path d="M76.6749 48.3573C76.6749 65.6769 55.6962 79.6976 51.1714 82.1718C50.76 82.5842 49.9374 82.5842 49.526 82.1718C45.0012 79.2852 24.0225 65.2646 24.0225 48.3573V27.7388C24.0225 26.9141 24.4339 26.0893 25.2566 25.6769C41.2991 25.2646 37.597 18.2543 49.9374 18.2543C62.2778 18.2543 58.5756 25.6769 74.6182 25.6769C75.4408 25.6769 76.2635 26.5017 76.2635 27.3264L76.6749 48.3573Z" fill="#191919"/>
<path d="M50.3487 40.5223C56.1076 40.5223 61.0437 45.0584 61.8664 50.8316C61.8664 51.6563 63.1004 52.4811 63.9231 52.4811H69.682C70.916 52.4811 71.7387 51.6563 71.7387 50.4192C71.7387 50.4192 71.7387 50.4192 71.7387 50.0068C70.5047 38.0481 59.8097 29.3883 47.8806 30.6254C37.597 31.8625 29.7814 39.6976 28.5473 50.0068C28.5473 51.2439 29.37 52.0687 30.1927 52.0687C30.1927 52.0687 30.1927 52.0687 30.6041 52.0687H36.3629C37.1856 52.0687 38.0083 51.2439 38.4197 50.4192C39.6537 44.646 44.5899 40.5223 50.3487 40.5223Z" fill="#E4E4E4"/>
<path d="M50.3487 59.9037C54.6651 59.9037 58.1643 56.3959 58.1643 52.0687C58.1643 47.7415 54.6651 44.2336 50.3487 44.2336C46.0323 44.2336 42.5331 47.7415 42.5331 52.0687C42.5331 56.3959 46.0323 59.9037 50.3487 59.9037Z" fill="#E4E4E4"/>
</svg>
