<svg width="101" height="101" viewBox="0 0 101 101" fill="none" xmlns="http://www.w3.org/2000/svg">
<path d="M79.143 48.2455C79.143 67.2146 56.5189 82.06 51.5827 85.3589C51.1714 85.7713 50.3487 85.7713 49.526 85.3589C44.5899 82.4723 21.5544 67.2146 21.5544 48.2455V25.5651C21.5544 24.7404 22.3771 23.9156 23.1998 23.9156C40.8877 23.5033 37.1856 15.6682 50.3487 15.6682C63.5118 15.6682 59.3983 23.5033 77.0862 23.9156C77.9089 23.9156 78.7316 24.7404 78.7316 25.5651L79.143 48.2455Z" fill="#E4E4E4"/>
<path d="M76.6749 48.2455C76.6749 65.5651 55.6962 79.5857 51.1714 82.06C50.76 82.4723 49.9374 82.4723 49.526 82.06C45.0012 79.1734 24.0225 65.1527 24.0225 48.2455V27.627C24.0225 26.8022 24.4339 25.9775 25.2566 25.5651C41.2991 25.1528 37.597 18.1424 49.9374 18.1424C62.2778 18.1424 58.5756 25.5651 74.6182 25.5651C75.4408 25.5651 76.2635 26.3899 76.2635 27.2146L76.6749 48.2455Z" fill="#E4E4E4"/>
<path d="M50.3487 40.4105C56.1076 40.4105 61.0437 44.9466 61.8664 50.7198C61.8664 51.5445 63.1004 52.3692 63.9231 52.3692H69.682C70.916 52.3692 71.7387 51.5445 71.7387 50.3074C71.7387 50.3074 71.7387 50.3074 71.7387 49.895C70.5047 37.9363 59.8097 29.2765 47.8806 30.5136C37.597 31.7507 29.7814 39.5857 28.5473 49.895C28.5473 51.1321 29.37 51.9569 30.1927 51.9569C30.1927 51.9569 30.1927 51.9569 30.6041 51.9569H36.3629C37.1856 51.9569 38.0083 51.1321 38.4197 50.3074C39.6537 44.5342 44.5899 40.4105 50.3487 40.4105Z" fill="#191919"/>
<path d="M50.3487 59.7919C54.6651 59.7919 58.1643 56.2841 58.1643 51.9569C58.1643 47.6297 54.6651 44.1218 50.3487 44.1218C46.0323 44.1218 42.5331 47.6297 42.5331 51.9569C42.5331 56.2841 46.0323 59.7919 50.3487 59.7919Z" fill="#191919"/>
</svg>
