<svg width="101" height="101" viewBox="0 0 101 101" fill="none" xmlns="http://www.w3.org/2000/svg">
<path d="M50.973 15.7071V27.1942C50.9856 27.3264 50.9798 27.4599 50.9559 27.5899C50.9493 27.634 50.9407 27.676 50.9303 27.7185C50.9293 27.724 50.9284 27.7294 50.9273 27.7349C50.8352 28.0844 50.6144 28.3867 50.3093 28.5808L35.2163 42.15H50.0017C50.0788 42.1334 50.1569 42.1279 50.2353 42.1279C50.6534 42.1234 51.0527 42.3011 51.329 42.6152C51.3396 42.6262 51.3501 42.6318 51.3603 42.6428C51.3632 42.6466 51.366 42.6482 51.3689 42.6537C51.6441 42.9762 51.763 43.4035 51.6936 43.8216V56.3512H68.8659C68.8895 56.3468 68.9133 56.3456 68.9371 56.3401C69.6558 56.285 70.304 56.7712 70.4524 57.4767C70.4579 57.5042 70.4629 57.5346 70.4667 57.5594C70.4722 57.598 70.4761 57.6411 70.4783 57.6819C70.4793 57.6874 70.4802 57.6984 70.4812 57.7039C70.4832 57.748 70.4832 57.7932 70.4812 57.8378C70.4812 57.8416 70.4812 57.8434 70.4812 57.8489C70.4625 58.3014 70.2311 58.7181 69.8574 58.9739L52.423 74.6536V85.591C70.8617 84.4333 85.2251 69.1433 85.2294 50.6682C85.2134 31.6395 69.9974 16.1113 50.973 15.7071Z" fill="#E4E4E4"/>
<path d="M48.1065 15.7468C29.6408 16.87 15.2382 32.1696 15.2317 50.6694C15.2466 69.7231 30.5005 85.2644 49.5506 85.635V74.1536C49.5302 73.9342 49.5605 73.7132 49.6389 73.507C49.7332 73.2518 49.8982 73.0285 50.1145 72.8633L65.2902 59.2257H50.4934C50.3002 59.2588 50.1024 59.2478 49.9123 59.2037C49.8925 59.1993 49.8721 59.1927 49.8525 59.1872C49.0327 58.9915 48.5561 58.1358 48.8214 57.3358V45.0199H31.8058C30.9783 45.2492 30.1356 44.7063 30.0029 43.8578C29.8804 43.2314 30.1855 42.5993 30.752 42.3054L48.1065 26.7025L48.1065 15.7468Z" fill="#E4E4E4"/>
<path d="M50.2311 15.6682C49.5222 15.6724 48.8136 15.6982 48.1062 15.7454V26.7027L30.7546 42.3055C30.4788 42.4486 30.2567 42.6772 30.1217 42.957C29.9866 43.2368 29.9459 43.553 30.0055 43.8579C30.0368 44.0581 30.1101 44.2492 30.2205 44.419C30.331 44.5889 30.4761 44.7333 30.6464 44.8431C30.8167 44.9528 31.0082 45.0254 31.2085 45.0559C31.4088 45.0863 31.6132 45.074 31.8084 45.0199H48.824V57.3359C48.7613 57.525 48.7386 57.725 48.7573 57.9234C48.776 58.1218 48.8357 58.3142 48.9326 58.4882C49.0296 58.6623 49.1616 58.8143 49.3204 58.9347C49.4792 59.055 49.6613 59.141 49.8551 59.1873C49.8749 59.1932 49.8948 59.1987 49.9149 59.2038C50.1041 59.2503 50.3009 59.2578 50.4931 59.2258H65.2927L50.1171 72.8634C49.9012 73.0278 49.7363 73.25 49.6415 73.5043C49.5624 73.7111 49.5322 73.9333 49.5532 74.1537V85.6351C49.779 85.6483 50.005 85.6594 50.2311 85.6682C50.9637 85.6655 51.6961 85.6397 52.4271 85.591V74.6536L69.8614 58.9739C70.0456 58.8477 70.198 58.6803 70.3062 58.4851C70.4145 58.2898 70.4758 58.072 70.4851 57.8489C70.4852 57.8452 70.4852 57.8415 70.4851 57.8378C70.4872 57.7932 70.4872 57.7485 70.4851 57.7039C70.4842 57.6965 70.4833 57.6892 70.4823 57.6819C70.4802 57.6409 70.4763 57.6 70.4707 57.5594C70.4667 57.5326 70.4619 57.506 70.4564 57.4795C70.4564 57.4786 70.4564 57.4805 70.4564 57.4795C70.3847 57.1385 70.1914 56.8324 69.9126 56.6234C69.6338 56.4143 69.2886 56.3136 68.9411 56.3403C68.9173 56.3433 68.8935 56.3469 68.8699 56.3512H51.6976V43.8218C51.7319 43.6152 51.7206 43.4036 51.6645 43.2019C51.6084 43.0002 51.5089 42.8131 51.3729 42.6539C51.37 42.6502 51.3671 42.6465 51.3641 42.6428C51.3538 42.6335 51.3433 42.6242 51.3327 42.6152C51.1962 42.4601 51.0278 42.3363 50.839 42.2522C50.6503 42.1681 50.4456 42.1259 50.239 42.1281C50.1607 42.1291 50.0826 42.1364 50.0054 42.1501H35.22L50.3131 28.5808C50.6182 28.3867 50.839 28.0847 50.9311 27.7349C50.9321 27.7294 50.9331 27.724 50.934 27.7184C50.9445 27.6762 50.9532 27.6334 50.9599 27.5904C50.9838 27.4599 50.9896 27.3269 50.977 27.1948V15.7077C50.7284 15.6922 50.4799 15.6784 50.2311 15.6682Z" fill="#191919"/>
<path d="M50.9727 15.7051V27.195C50.9854 27.3273 50.9793 27.4606 50.9556 27.5907C50.949 27.6348 50.9402 27.6762 50.9303 27.7187C50.9293 27.7242 50.9284 27.7296 50.9274 27.7352C50.8353 28.0846 50.6145 28.3869 50.3093 28.5811L35.2163 42.1502H38.0902L51.9613 29.6805C52.2665 29.4864 52.4873 29.1844 52.5794 28.8345C52.5804 28.829 52.5814 28.8236 52.5823 28.8181C52.5927 28.774 52.601 28.7325 52.6082 28.6896C52.6319 28.5589 52.6379 28.4289 52.6252 28.2966V15.7813C52.0777 15.7427 51.5271 15.7172 50.9727 15.7051ZM51.887 43.228C51.8125 43.229 51.7383 43.2391 51.6648 43.2501C51.7095 43.4358 51.7253 43.6297 51.6935 43.8225V56.3521H53.3455V44.9219C53.4149 44.5035 53.2959 44.0765 53.0208 43.7542C53.0179 43.7506 53.0153 43.7486 53.012 43.7431C53.0015 43.7321 52.991 43.7267 52.9805 43.7157C52.7043 43.4021 52.3051 43.2236 51.887 43.228ZM70.5888 57.4409C70.5651 57.444 70.5414 57.4463 70.5176 57.4518H70.4407C70.4429 57.4628 70.4501 57.4684 70.4523 57.4794C70.4578 57.507 70.4627 57.5374 70.4666 57.5622C70.4721 57.6007 70.476 57.6438 70.4782 57.6846C70.4792 57.6901 70.48 57.7011 70.481 57.7067C70.483 57.7508 70.483 57.7959 70.481 57.8405C70.481 57.8444 70.481 57.8461 70.481 57.8517C70.4623 58.3042 70.2309 58.7209 69.8572 58.9766L52.4229 74.6564V85.5938C52.9781 85.5607 53.5303 85.5117 54.0778 85.4516V75.759L71.5121 60.0792C71.8857 59.8234 72.1169 59.4064 72.1359 58.9541C72.1359 58.9504 72.1359 58.9486 72.1359 58.9431C72.1379 58.899 72.1379 58.8537 72.1359 58.8091C72.1349 58.8036 72.134 58.7926 72.133 58.787C72.131 58.7485 72.1242 58.7055 72.1187 58.6648C72.1146 58.6372 72.1099 58.6097 72.1043 58.5849C71.956 57.8795 71.3075 57.3858 70.5888 57.4409Z" fill="#E4E4E4"/>
</svg>
