<svg width="101" height="101" viewBox="0 0 101 101" fill="none" xmlns="http://www.w3.org/2000/svg">
<path d="M50.973 15.8189V27.306C50.9856 27.4383 50.9798 27.5717 50.9559 27.7018C50.9493 27.7459 50.9407 27.7878 50.9303 27.8303C50.9293 27.8358 50.9284 27.8412 50.9273 27.8468C50.8352 28.1962 50.6144 28.4985 50.3093 28.6927L35.2163 42.2618H50.0017C50.0788 42.2453 50.1569 42.2397 50.2353 42.2397C50.6534 42.2352 51.0527 42.4129 51.329 42.727C51.3396 42.7381 51.3501 42.7436 51.3603 42.7546C51.3632 42.7584 51.366 42.76 51.3689 42.7656C51.6441 43.088 51.763 43.5153 51.6936 43.9334V56.463H68.8659C68.8895 56.4586 68.9133 56.4574 68.9371 56.4519C69.6558 56.3968 70.304 56.883 70.4524 57.5885C70.4579 57.616 70.4629 57.6464 70.4667 57.6712C70.4722 57.7098 70.4761 57.7529 70.4783 57.7937C70.4793 57.7992 70.4802 57.8102 70.4812 57.8157C70.4832 57.8598 70.4832 57.905 70.4812 57.9496C70.4812 57.9534 70.4812 57.9552 70.4812 57.9607C70.4625 58.4132 70.2311 58.8299 69.8574 59.0857L52.423 74.7654V85.7028C70.8617 84.5451 85.2251 69.2551 85.2294 50.78C85.2134 31.7513 69.9974 16.2231 50.973 15.8189Z" fill="#191919"/>
<path d="M48.1065 15.8586C29.6408 16.9818 15.2382 32.2815 15.2317 50.7813C15.2466 69.8349 30.5005 85.3762 49.5506 85.7468V74.2654C49.5302 74.0461 49.5605 73.825 49.6389 73.6188C49.7332 73.3636 49.8982 73.1404 50.1145 72.9751L65.2902 59.3375H50.4934C50.3002 59.3706 50.1024 59.3596 49.9123 59.3155C49.8925 59.3111 49.8721 59.3045 49.8525 59.299C49.0327 59.1033 48.5561 58.2477 48.8214 57.4476V45.1318H31.8058C30.9783 45.361 30.1356 44.8181 30.0029 43.9696C29.8804 43.3433 30.1855 42.7111 30.752 42.4173L48.1065 26.8144L48.1065 15.8586Z" fill="#191919"/>
<path d="M50.2311 15.78C49.5222 15.7842 48.8136 15.81 48.1062 15.8572V26.8145L30.7546 42.4174C30.4788 42.5605 30.2567 42.789 30.1217 43.0688C29.9866 43.3486 29.9459 43.6648 30.0055 43.9697C30.0368 44.1699 30.1101 44.3611 30.2205 44.5309C30.331 44.7007 30.4761 44.8452 30.6464 44.9549C30.8167 45.0647 31.0082 45.1372 31.2085 45.1677C31.4088 45.1982 31.6132 45.1858 31.8084 45.1317H48.824V57.4477C48.7613 57.6368 48.7386 57.8369 48.7573 58.0352C48.776 58.2336 48.8357 58.426 48.9326 58.6001C49.0296 58.7741 49.1616 58.9261 49.3204 59.0465C49.4792 59.1668 49.6613 59.2529 49.8551 59.2991C49.8749 59.3051 49.8948 59.3105 49.9149 59.3156C50.1041 59.3621 50.3009 59.3696 50.4931 59.3376H65.2927L50.1171 72.9752C49.9012 73.1396 49.7363 73.3618 49.6415 73.6161C49.5624 73.8229 49.5322 74.0452 49.5532 74.2655V85.7469C49.779 85.7601 50.005 85.7712 50.2311 85.78C50.9637 85.7773 51.6961 85.7515 52.4271 85.7028V74.7654L69.8614 59.0857C70.0456 58.9595 70.198 58.7922 70.3062 58.5969C70.4145 58.4016 70.4758 58.1838 70.4851 57.9607C70.4852 57.957 70.4852 57.9533 70.4851 57.9496C70.4872 57.905 70.4872 57.8603 70.4851 57.8157C70.4842 57.8084 70.4833 57.801 70.4823 57.7937C70.4802 57.7528 70.4763 57.7118 70.4707 57.6712C70.4667 57.6445 70.4619 57.6178 70.4564 57.5913C70.4564 57.5904 70.4564 57.5923 70.4564 57.5913C70.3847 57.2503 70.1914 56.9443 69.9126 56.7352C69.6338 56.5261 69.2886 56.4255 68.9411 56.4521C68.9173 56.4552 68.8935 56.4587 68.8699 56.463H51.6976V43.9336C51.7319 43.727 51.7206 43.5155 51.6645 43.3137C51.6084 43.112 51.5089 42.9249 51.3729 42.7657C51.37 42.762 51.3671 42.7583 51.3641 42.7546C51.3538 42.7453 51.3433 42.7361 51.3327 42.727C51.1962 42.5719 51.0278 42.4481 50.839 42.364C50.6503 42.28 50.4456 42.2377 50.239 42.2399C50.1607 42.2409 50.0826 42.2482 50.0054 42.2619H35.22L50.3131 28.6926C50.6182 28.4985 50.839 28.1965 50.9311 27.8467C50.9321 27.8412 50.9331 27.8358 50.934 27.8303C50.9445 27.788 50.9532 27.7453 50.9599 27.7023C50.9838 27.5718 50.9896 27.4387 50.977 27.3066V15.8196C50.7284 15.804 50.4799 15.7902 50.2311 15.78Z" fill="#E4E4E4"/>
<path d="M50.9727 15.8169V27.3069C50.9854 27.4391 50.9793 27.5724 50.9556 27.7025C50.949 27.7466 50.9402 27.788 50.9303 27.8305C50.9293 27.836 50.9284 27.8415 50.9274 27.847C50.8353 28.1964 50.6145 28.4988 50.3093 28.6929L35.2163 42.262H38.0902L51.9613 29.7923C52.2665 29.5983 52.4873 29.2962 52.5794 28.9464C52.5804 28.9409 52.5814 28.9354 52.5823 28.9299C52.5927 28.8858 52.601 28.8444 52.6082 28.8014C52.6319 28.6707 52.6379 28.5407 52.6252 28.4084V15.8931C52.0777 15.8545 51.5271 15.8291 50.9727 15.8169ZM51.887 43.3399C51.8125 43.3408 51.7383 43.3509 51.6648 43.3619C51.7095 43.5476 51.7253 43.7416 51.6935 43.9343V56.4639H53.3455V45.0337C53.4149 44.6153 53.2959 44.1883 53.0208 43.866C53.0179 43.8624 53.0153 43.8604 53.012 43.8549C53.0015 43.8439 52.991 43.8385 52.9805 43.8275C52.7043 43.5139 52.3051 43.3355 51.887 43.3399ZM70.5888 57.5527C70.5651 57.5558 70.5414 57.5581 70.5176 57.5636H70.4407C70.4429 57.5747 70.4501 57.5802 70.4523 57.5912C70.4578 57.6188 70.4627 57.6492 70.4666 57.674C70.4721 57.7126 70.476 57.7557 70.4782 57.7964C70.4792 57.802 70.48 57.813 70.481 57.8185C70.483 57.8626 70.483 57.9077 70.481 57.9524C70.481 57.9562 70.481 57.958 70.481 57.9635C70.4623 58.416 70.2309 58.8327 69.8572 59.0884L52.4229 74.7682V85.7056C52.9781 85.6725 53.5303 85.6235 54.0778 85.5634V75.8708L71.5121 60.191C71.8857 59.9353 72.1169 59.5182 72.1359 59.0659C72.1359 59.0622 72.1359 59.0605 72.1359 59.055C72.1379 59.0109 72.1379 58.9655 72.1359 58.9209C72.1349 58.9154 72.134 58.9044 72.133 58.8989C72.131 58.8603 72.1242 58.8174 72.1187 58.7766C72.1146 58.749 72.1099 58.7215 72.1043 58.6967C71.956 57.9913 71.3075 57.4976 70.5888 57.5527Z" fill="#191919"/>
</svg>
