<svg width="101" height="101" viewBox="0 0 101 101" fill="none" xmlns="http://www.w3.org/2000/svg">
<g clip-path="url(#clip0_2377_7961)">
<path fill-rule="evenodd" clip-rule="evenodd" d="M19.4088 42.8373L19.3767 33.8508H14.3623L14.3944 42.8373L16.9016 46.28L19.4088 42.8373ZM14.3944 58.2387V67.2572H19.4088V58.2387L16.9016 54.796L14.3944 58.2387Z" fill="white"/>
<path fill-rule="evenodd" clip-rule="evenodd" d="M19.4088 58.2387L24.6905 65.5251L28.732 62.5849L23.4503 55.2985L19.4088 53.9941V58.2387ZM14.3943 42.8372L9.08055 35.5508L5.03906 38.491L10.3208 45.7721L14.3943 47.0765V42.8372Z" fill="white"/>
<path fill-rule="evenodd" clip-rule="evenodd" d="M10.3206 45.7774L1.76715 43.0029L0.227539 47.7447L8.78094 50.5513L12.8224 49.2148L10.3206 45.7774ZM20.9428 51.8557L23.45 55.2985L32.0034 58.073L33.5431 53.3312L24.9896 50.5567L20.9428 51.8557Z" fill="white"/>
<path fill-rule="evenodd" clip-rule="evenodd" d="M24.9843 50.5567L33.5377 47.7501L31.9981 43.0083L23.4447 45.7828L20.9375 49.2256L24.9843 50.5567ZM8.78094 50.5567L0.227539 53.3312L1.76715 58.073L10.3206 55.2985L12.8278 51.8557L8.78094 50.5567Z" fill="white"/>
<path fill-rule="evenodd" clip-rule="evenodd" d="M10.3208 55.2985L5.03906 62.5849L9.08055 65.5251L14.3943 58.2387V53.9941L10.3208 55.2985ZM23.4503 45.7774L28.732 38.491L24.6905 35.5508L19.4088 42.8319V47.0765L23.4503 45.7774Z" fill="white"/>
<path fill-rule="evenodd" clip-rule="evenodd" d="M52.2484 42.3667V54.0581C52.2484 56.6295 50.1422 58.7358 47.5708 58.7358V56.3943C48.8752 56.3943 49.9123 55.3572 49.9123 54.0528V42.3667H52.2484ZM94.9513 44.7082H100.228V42.372H87.3655V44.7082H92.6098V58.7411H94.9513V44.7082ZM80.3143 42.3667V54.0581C80.3143 55.3625 79.2772 56.3996 77.9728 56.3996C76.6684 56.3996 75.6313 55.3625 75.6313 54.0581V47.0443C75.6313 44.473 73.525 42.3667 70.9537 42.3667C68.3823 42.3667 66.276 44.473 66.276 47.0443V54.0635C66.276 55.3679 65.2389 56.405 63.9345 56.405C62.6301 56.405 61.593 55.3679 61.593 54.0635V42.3667H59.2515V54.0581C59.2515 56.6295 61.3578 58.7358 63.9292 58.7358C66.5006 58.7358 68.6068 56.6295 68.6068 54.0581V47.0443C68.6068 45.7399 69.6439 44.7028 70.9483 44.7028C72.2527 44.7028 73.2898 45.7399 73.2898 47.0443V54.0635C73.2898 56.6348 75.3961 58.7411 77.9675 58.7411C80.5388 58.7411 82.6451 56.6348 82.6451 54.0635V42.3667H80.3143Z" fill="white"/>
</g>
<defs>
<clipPath id="clip0_2377_7961">
<rect width="100" height="100" fill="white" transform="translate(0.227539 0.553955)"/>
</clipPath>
</defs>
</svg>
