<svg width="101" height="101" viewBox="0 0 101 101" fill="none" xmlns="http://www.w3.org/2000/svg">
<g clip-path="url(#clip0_2377_7916)">
<path fill-rule="evenodd" clip-rule="evenodd" d="M19.4088 42.9491L19.3767 33.9626H14.3623L14.3944 42.9491L16.9016 46.3918L19.4088 42.9491ZM14.3944 58.3505V67.369H19.4088V58.3505L16.9016 54.9078L14.3944 58.3505Z" fill="#191919"/>
<path fill-rule="evenodd" clip-rule="evenodd" d="M19.4088 58.3505L24.6905 65.6369L28.732 62.6967L23.4503 55.4103L19.4088 54.1059V58.3505ZM14.3943 42.949L9.08055 35.6626L5.03906 38.6028L10.3208 45.8839L14.3943 47.1883V42.949Z" fill="#191919"/>
<path fill-rule="evenodd" clip-rule="evenodd" d="M10.3206 45.8893L1.76715 43.1147L0.227539 47.8565L8.78094 50.6631L12.8224 49.3267L10.3206 45.8893ZM20.9428 51.9675L23.45 55.4103L32.0034 58.1848L33.5431 53.443L24.9896 50.6685L20.9428 51.9675Z" fill="#191919"/>
<path fill-rule="evenodd" clip-rule="evenodd" d="M24.9843 50.6685L33.5377 47.8619L31.9981 43.1201L23.4447 45.8946L20.9375 49.3374L24.9843 50.6685ZM8.78094 50.6685L0.227539 53.443L1.76715 58.1848L10.3206 55.4103L12.8278 51.9675L8.78094 50.6685Z" fill="#191919"/>
<path fill-rule="evenodd" clip-rule="evenodd" d="M10.3208 55.4103L5.03906 62.6967L9.08055 65.6369L14.3943 58.3505V54.1059L10.3208 55.4103ZM23.4503 45.8893L28.732 38.6028L24.6905 35.6626L19.4088 42.9437V47.1883L23.4503 45.8893Z" fill="#191919"/>
<path fill-rule="evenodd" clip-rule="evenodd" d="M52.2484 42.4785V54.17C52.2484 56.7413 50.1422 58.8476 47.5708 58.8476V56.5061C48.8752 56.5061 49.9123 55.469 49.9123 54.1646V42.4785H52.2484ZM94.9513 44.82H100.228V42.4839H87.3655V44.82H92.6098V58.8529H94.9513V44.82ZM80.3143 42.4785V54.17C80.3143 55.4743 79.2772 56.5114 77.9728 56.5114C76.6684 56.5114 75.6313 55.4743 75.6313 54.17V47.1562C75.6313 44.5848 73.525 42.4785 70.9537 42.4785C68.3823 42.4785 66.276 44.5848 66.276 47.1562V54.1753C66.276 55.4797 65.2389 56.5168 63.9345 56.5168C62.6301 56.5168 61.593 55.4797 61.593 54.1753V42.4785H59.2515V54.17C59.2515 56.7413 61.3578 58.8476 63.9292 58.8476C66.5006 58.8476 68.6068 56.7413 68.6068 54.17V47.1562C68.6068 45.8518 69.6439 44.8147 70.9483 44.8147C72.2527 44.8147 73.2898 45.8518 73.2898 47.1562V54.1753C73.2898 56.7467 75.3961 58.8529 77.9675 58.8529C80.5388 58.8529 82.6451 56.7467 82.6451 54.1753V42.4785H80.3143Z" fill="#191919"/>
</g>
<defs>
<clipPath id="clip0_2377_7916">
<rect width="100" height="100" fill="white" transform="translate(0.227539 0.665771)"/>
</clipPath>
</defs>
</svg>
