<svg width="101" height="101" viewBox="0 0 101 101" fill="none" xmlns="http://www.w3.org/2000/svg">
<g clip-path="url(#clip0_2377_7973)">
<path d="M27.9865 38.7297C30.8013 38.7297 30.8013 38.7297 31.3568 39.2344C31.4426 39.4006 31.5282 39.5671 31.6037 39.7381C31.7594 40.0565 31.9838 40.3252 32.1994 40.6047C32.2875 40.7238 32.3753 40.8431 32.4627 40.9627C32.7235 41.3173 32.9846 41.6717 33.2457 42.026C33.3322 42.1433 33.4186 42.2606 33.505 42.3779C33.5478 42.4359 33.5905 42.494 33.6346 42.5538C36.0976 45.8964 36.0976 45.8964 36.2274 46.0725C36.3133 46.1892 36.3992 46.3058 36.4852 46.4224C36.7087 46.7257 36.9321 47.029 37.1555 47.3325C37.2246 47.4264 37.2246 47.4264 37.2952 47.5223C37.3826 47.641 37.47 47.7597 37.5574 47.8785C37.5974 47.9328 37.6374 47.9871 37.6786 48.0431C37.7304 48.1135 37.7304 48.1135 37.7832 48.1852C37.9734 48.4416 38.1653 48.6966 38.3568 48.952C38.3935 43.892 38.3935 43.892 38.4309 38.7297C39.3109 38.7297 40.1909 38.7297 41.0976 38.7297C41.0976 43.7164 41.0976 48.7031 41.0976 53.8408C38.4309 53.8408 38.4309 53.8408 37.8105 53.2251C37.6772 53.0167 37.6772 53.0167 37.5961 52.8351C37.3974 52.4263 37.1477 52.0839 36.8707 51.7251C36.7839 51.608 36.6974 51.4906 36.6112 51.373C36.5689 51.3154 36.5266 51.2578 36.483 51.1985C36.239 50.865 35.9978 50.5295 35.7564 50.1941C35.4654 49.7904 35.1711 49.3892 34.8754 48.989C34.4989 48.4796 34.1265 47.9675 33.7564 47.4534C33.4227 46.9904 33.0843 46.531 32.7451 46.072C32.4073 45.6144 32.0734 45.1542 31.7421 44.6918C31.4103 44.23 31.0687 43.7777 30.7272 43.3223C30.7028 46.7934 30.6783 50.2646 30.6531 53.8408C29.7731 53.8408 28.8931 53.8408 27.9865 53.8408C27.9865 48.8542 27.9865 43.8675 27.9865 38.7297Z" fill="white"/>
<path d="M16.8013 39.9149C16.8791 39.9474 16.8791 39.9474 16.9585 39.9806C18.0464 40.4436 19.0159 41.07 19.9124 41.8408C20.0184 41.9319 20.0184 41.9319 20.1265 42.0249C22.4464 44.0626 23.7684 46.9919 23.9772 50.0552C24.1496 52.971 23.1926 56.0096 21.2666 58.2237C21.0674 58.4471 20.861 58.6626 20.6531 58.8779C20.5947 58.941 20.5363 59.0041 20.4761 59.0691C18.5257 61.1196 15.5965 62.2887 12.7969 62.3753C9.40183 62.4436 6.47448 61.2513 3.98647 58.952C1.86152 56.8602 0.683119 53.8665 0.636013 50.9075C0.631574 50.1932 0.664839 49.5068 0.801287 48.8038C0.841487 48.8342 0.881687 48.8645 0.923104 48.8958C0.976099 48.9357 1.02909 48.9757 1.08369 49.0168C1.13612 49.0563 1.18854 49.0958 1.24255 49.1366C1.36459 49.2266 1.4899 49.3123 1.6161 49.3964C1.63898 49.5349 1.63898 49.5349 1.6326 49.7043C1.63109 49.7671 1.62958 49.83 1.62802 49.8947C1.62561 49.9625 1.62321 50.0303 1.62073 50.1001C1.57623 52.8908 2.53066 55.5099 4.46647 57.5409C5.00049 58.0832 5.56456 58.5472 6.20869 58.952C6.25419 58.9808 6.29969 59.0096 6.34657 59.0392C8.51171 60.3866 11.2359 60.88 13.7344 60.3291C15.4016 59.919 16.8956 59.169 18.2087 58.0631C18.2651 58.0167 18.3216 57.9703 18.3797 57.9224C20.2758 56.3122 21.3994 53.7795 21.6054 51.328C21.7978 48.5715 20.8912 45.9494 19.0895 43.8673C18.9941 43.7591 18.8977 43.6518 18.8013 43.5446C18.7355 43.4708 18.7355 43.4708 18.6685 43.3955C17.4995 42.1573 15.9156 41.3859 14.3105 40.8964C14.2629 40.8817 14.2152 40.8669 14.166 40.8518C13.3239 40.6076 12.4841 40.5593 11.6115 40.5677C11.5173 40.5677 11.4231 40.5678 11.326 40.5678C10.8829 40.5699 10.4543 40.5855 10.0145 40.6412C9.64628 40.6753 9.64628 40.6753 9.39388 40.5113C9.32055 40.4109 9.32055 40.4109 9.24573 40.3084C9.19532 40.2425 9.1449 40.1765 9.09295 40.1085C9.04559 40.0446 8.99823 39.9807 8.94944 39.9149C8.85245 39.8144 8.75425 39.715 8.65314 39.6186C9.41318 39.3951 10.1591 39.1848 10.9494 39.1001C11.0316 39.091 11.1137 39.082 11.1983 39.0726C13.097 38.9047 15.0414 39.1747 16.8013 39.9149Z" fill="white"/>
<path d="M50.7272 43.4705C50.9925 43.6766 51.2318 43.8985 51.468 44.1371C51.5196 44.1863 51.5713 44.2355 51.6245 44.2862C52.9174 45.6042 53.0235 47.4314 53.0235 49.1742C50.2613 49.1742 47.4991 49.1742 44.6531 49.1742C45.0761 50.443 45.4341 51.1772 46.5996 51.761C47.6385 52.1724 48.8066 52.0764 49.8383 51.6927C50.2319 51.5154 50.5878 51.3164 50.9124 51.0307C50.9735 50.9802 51.0346 50.9298 51.0976 50.8779C51.3607 50.9656 51.3987 51.0353 51.5522 51.2593C51.6163 51.3526 51.6163 51.3526 51.6816 51.4479C51.7257 51.5134 51.7698 51.5789 51.8152 51.6464C51.8601 51.7113 51.905 51.7763 51.9513 51.8432C52.2828 52.3308 52.2828 52.3308 52.2828 52.5816C50.8338 53.9419 48.9371 54.1246 47.0559 54.0757C45.6681 54.0069 44.4879 53.3401 43.542 52.3594C43.4929 52.3125 43.4437 52.2656 43.393 52.2173C42.331 51.1361 42.0872 49.5783 42.0999 48.1325C42.1449 46.4584 42.789 45.0608 44.0004 43.901C45.8387 42.344 48.7134 42.141 50.7272 43.4705ZM45.2165 45.8212C44.8352 46.3592 44.7266 46.8097 44.6531 47.4705C46.6331 47.4705 48.6131 47.4705 50.6531 47.4705C50.6531 46.6278 50.3783 46.004 49.788 45.4031C49.0678 44.7544 48.2763 44.598 47.3296 44.6299C46.4492 44.686 45.7691 45.1586 45.2165 45.8212Z" fill="white"/>
<path d="M72.7272 42.8779C73.5094 42.8779 74.2917 42.8779 75.0976 42.8779C75.0998 43.1833 75.0998 43.1833 75.102 43.495C75.107 44.1709 75.1128 44.8467 75.1189 45.5226C75.1226 45.932 75.126 46.3414 75.1288 46.7509C75.1316 47.1466 75.135 47.5424 75.1389 47.9382C75.1403 48.0885 75.1414 48.2388 75.1423 48.3892C75.0969 50.0667 75.0969 50.0667 75.8522 51.4936C76.5243 51.8969 77.3177 51.953 78.0762 51.7896C78.7929 51.5694 79.4579 51.1924 79.9865 50.6557C80.0714 50.4858 80.0707 50.3889 80.0723 50.2C80.073 50.1356 80.0737 50.0712 80.0745 50.0049C80.0749 49.9341 80.0753 49.8633 80.0758 49.7903C80.0765 49.7159 80.0772 49.6414 80.078 49.5648C80.0803 49.3179 80.0822 49.071 80.084 48.8241C80.0855 48.6532 80.0871 48.4824 80.0887 48.3115C80.0927 47.8612 80.0964 47.4109 80.1 46.9605C80.1037 46.5013 80.1078 46.042 80.1119 45.5827C80.1199 44.6811 80.1274 43.7795 80.1346 42.8779C80.9168 42.8779 81.6991 42.8779 82.505 42.8779C82.505 46.4957 82.505 50.1134 82.505 53.8408C81.7228 53.8408 80.9405 53.8408 80.1346 53.8408C80.098 53.1808 80.098 53.1808 80.0605 52.5075C79.9949 52.5808 79.9292 52.6542 79.8615 52.7297C78.8056 53.7771 77.4652 54.0839 76.0305 54.0867C75.0364 54.0755 74.2357 53.8395 73.4911 53.1603C72.8277 52.4635 72.7042 51.603 72.7104 50.6817C72.7104 50.5971 72.7104 50.5125 72.7103 50.4253C72.7104 50.1471 72.7116 49.869 72.7127 49.5908C72.713 49.3974 72.7132 49.2039 72.7134 49.0105C72.7138 48.5543 72.7151 48.0981 72.7165 47.6419C72.7182 47.1222 72.719 46.6025 72.7198 46.0828C72.7213 45.0145 72.724 43.9462 72.7272 42.8779Z" fill="white"/>
<path d="M91.7116 43.7147C91.8828 43.8507 92.0481 43.9888 92.2087 44.1371C91.8996 44.7123 91.5774 45.2785 91.2457 45.8408C90.9924 45.7945 90.936 45.7545 90.7318 45.5677C89.8839 44.8139 88.7097 44.5996 87.6115 44.6345C87.0396 44.676 86.6048 44.8145 86.2087 45.2483C86.0409 45.5602 85.9633 45.8056 86.0374 46.1557C86.4656 46.6649 87.1726 46.8096 87.7967 46.952C87.954 46.9899 88.1113 47.0279 88.2686 47.066C88.488 47.118 88.7075 47.1696 88.9272 47.2204C90.017 47.4739 91.2536 47.8191 91.9865 48.7297C92.5403 49.6441 92.6546 50.6014 92.457 51.6516C92.1607 52.5405 91.4886 53.1522 90.6855 53.5955C89.0457 54.3436 86.9791 54.2665 85.3007 53.6829C84.5422 53.3899 83.8412 52.9883 83.2457 52.4334C83.2933 52.1772 83.3947 52.0007 83.5377 51.7841C83.5809 51.7182 83.6241 51.6524 83.6686 51.5845C83.7139 51.5163 83.7592 51.4481 83.8059 51.3779C83.8515 51.3086 83.8971 51.2392 83.9441 51.1678C84.0566 50.9968 84.1695 50.8261 84.2828 50.6557C84.5379 50.7116 84.6645 50.7879 84.8615 50.9612C85.5249 51.4924 86.346 51.8117 87.1717 51.989C87.2435 52.0058 87.3153 52.0226 87.3893 52.0399C88.2467 52.1274 88.9523 52.0704 89.6902 51.6186C89.7391 51.6186 89.788 51.6186 89.8383 51.6186C90.033 51.2549 90.1897 50.8504 90.0744 50.4427C90.0309 50.3648 90.0309 50.3648 89.9865 50.2853C89.962 50.212 89.9376 50.1386 89.9124 50.0631C89.74 49.979 89.74 49.979 89.542 49.9149C89.4649 49.8808 89.4649 49.8808 89.3861 49.8459C88.7602 49.5755 88.1008 49.4413 87.4388 49.2909C86.1163 48.9886 84.7266 48.6544 83.9124 47.4705C83.4906 46.7512 83.487 45.776 83.6815 44.9809C83.8668 44.4975 84.1334 44.1239 84.505 43.7668C84.5454 43.7266 84.5858 43.6864 84.6274 43.645C86.4144 41.9841 89.8402 42.3497 91.7116 43.7147Z" fill="white"/>
<path d="M70.8968 43.7147C71.068 43.8507 71.2333 43.9888 71.3939 44.1371C71.0848 44.7123 70.7626 45.2785 70.4309 45.8408C70.1775 45.7945 70.1212 45.7545 69.917 45.5677C69.069 44.8139 67.8949 44.5996 66.7967 44.6345C66.2247 44.676 65.7899 44.8145 65.3939 45.2483C65.2261 45.5602 65.1485 45.8056 65.2226 46.1557C65.6508 46.6649 66.3578 46.8096 66.9818 46.952C67.1392 46.9899 67.2965 47.0279 67.4538 47.066C67.6732 47.118 67.8927 47.1696 68.1124 47.2204C69.2021 47.4739 70.4388 47.8191 71.1717 48.7297C71.7254 49.6441 71.8398 50.6014 71.6421 51.6516C71.3458 52.5405 70.6738 53.1522 69.8707 53.5955C68.2309 54.3436 66.1642 54.2665 64.4859 53.6829C63.7274 53.3899 63.0264 52.9883 62.4309 52.4334C62.4785 52.1772 62.5799 52.0007 62.7229 51.7841C62.7661 51.7182 62.8093 51.6524 62.8538 51.5845C62.8991 51.5163 62.9444 51.4481 62.9911 51.3779C63.0367 51.3086 63.0823 51.2392 63.1293 51.1678C63.2418 50.9968 63.3547 50.8261 63.468 50.6557C63.7231 50.7116 63.8497 50.7879 64.0467 50.9612C64.7101 51.4924 65.5312 51.8117 66.3568 51.989C66.4286 52.0058 66.5005 52.0226 66.5744 52.0399C67.4319 52.1274 68.1375 52.0704 68.8754 51.6186C68.9242 51.6186 68.9731 51.6186 69.0235 51.6186C69.2182 51.2549 69.3748 50.8504 69.2596 50.4427C69.2161 50.3648 69.2161 50.3648 69.1717 50.2853C69.1472 50.212 69.1228 50.1386 69.0976 50.0631C68.9252 49.979 68.9252 49.979 68.7272 49.9149C68.65 49.8808 68.65 49.8808 68.5713 49.8459C67.9454 49.5755 67.286 49.4413 66.624 49.2909C65.3015 48.9886 63.9118 48.6544 63.0976 47.4705C62.6758 46.7512 62.6722 45.776 62.8667 44.9809C63.0519 44.4975 63.3186 44.1239 63.6902 43.7668C63.7306 43.7266 63.771 43.6864 63.8126 43.645C65.5996 41.9841 69.0254 42.3497 70.8968 43.7147Z" fill="white"/>
<path d="M61.5634 43.7147C61.7346 43.8507 61.9 43.9888 62.0605 44.1371C61.7515 44.7123 61.4293 45.2785 61.0976 45.8408C60.8442 45.7945 60.7879 45.7545 60.5837 45.5677C59.7357 44.8139 58.5616 44.5996 57.4633 44.6345C56.8914 44.676 56.4566 44.8145 56.0605 45.2483C55.8927 45.5602 55.8152 45.8056 55.8893 46.1557C56.3175 46.6649 57.0245 46.8096 57.6485 46.952C57.8058 46.9899 57.9631 47.0279 58.1204 47.066C58.3399 47.118 58.5593 47.1696 58.779 47.2204C59.8688 47.4739 61.1055 47.8191 61.8383 48.7297C62.3921 49.6441 62.5065 50.6014 62.3088 51.6516C62.0125 52.5405 61.3405 53.1522 60.5374 53.5955C58.8975 54.3436 56.8309 54.2665 55.1526 53.6829C54.394 53.3899 53.6931 52.9883 53.0976 52.4334C53.1452 52.1772 53.2465 52.0007 53.3895 51.7841C53.4327 51.7182 53.476 51.6524 53.5205 51.5845C53.5658 51.5163 53.6111 51.4481 53.6578 51.3779C53.7034 51.3086 53.749 51.2392 53.7959 51.1678C53.9085 50.9968 54.0214 50.8261 54.1346 50.6557C54.3897 50.7116 54.5164 50.7879 54.7133 50.9612C55.3768 51.4924 56.1979 51.8117 57.0235 51.989C57.0953 52.0058 57.1671 52.0226 57.2411 52.0399C58.0986 52.1274 58.8042 52.0704 59.542 51.6186C59.5909 51.6186 59.6398 51.6186 59.6902 51.6186C59.8848 51.2549 60.0415 50.8504 59.9263 50.4427C59.8827 50.3648 59.8827 50.3648 59.8383 50.2853C59.8139 50.212 59.7894 50.1386 59.7643 50.0631C59.5919 49.979 59.5919 49.979 59.3939 49.9149C59.3167 49.8808 59.3167 49.8808 59.238 49.8459C58.6121 49.5755 57.9527 49.4413 57.2906 49.2909C55.9681 48.9886 54.5784 48.6544 53.7643 47.4705C53.3425 46.7512 53.3389 45.776 53.5333 44.9809C53.7186 44.4975 53.9853 44.1239 54.3568 43.7668C54.3972 43.7266 54.4376 43.6864 54.4792 43.645C56.2662 41.9841 59.6921 42.3497 61.5634 43.7147Z" fill="white"/>
<path d="M17.5513 43.9057C17.6722 44.0069 17.7925 44.1088 17.9124 44.2112C18.0012 44.2825 18.0012 44.2825 18.0918 44.3553C19.6665 45.6743 20.6452 47.7612 20.8571 49.7847C21.021 52.2875 20.368 54.5313 18.7041 56.4381C17.2375 58.0198 15.2302 59.1501 13.0402 59.2584C10.713 59.3457 8.45023 58.8231 6.69481 57.2066C6.55598 57.0738 6.41944 56.9389 6.28277 56.8038C6.22443 56.7508 6.16609 56.6978 6.10598 56.6432C4.96401 55.581 4.22641 54.0169 3.9124 52.5075C3.89588 52.4351 3.87936 52.3628 3.86234 52.2882C3.7288 51.625 3.75079 50.9584 3.76425 50.2853C3.98425 50.3097 4.20425 50.3342 4.43092 50.3594C4.43571 50.407 4.4405 50.4547 4.44544 50.5038C4.6877 52.8361 5.3953 54.8265 7.26975 56.3513C8.97317 57.6014 11.0057 58.1079 13.1022 57.7925C14.9282 57.4535 16.6797 56.3771 17.7571 54.8603C18.9107 53.1645 19.362 51.1425 18.9852 49.1201C18.6131 47.3453 17.5634 45.6359 16.0554 44.6051C14.9329 43.8772 13.6717 43.3439 12.3204 43.2989C12.2316 43.2958 12.1428 43.2927 12.0513 43.2895C11.9596 43.2866 11.868 43.2837 11.7735 43.2807C11.6801 43.2775 11.5867 43.2743 11.4905 43.271C11.2608 43.2631 11.031 43.2557 10.8013 43.2483C10.728 42.9305 10.6546 42.6127 10.5791 42.2853C13.0576 41.9205 15.543 42.3308 17.5513 43.9057Z" fill="white"/>
<path d="M16.4535 45.9543C17.7415 47.1341 18.4978 48.6808 18.6002 50.4343C18.639 52.1589 18.0943 53.728 16.9026 54.9959C16.8447 55.0548 16.7868 55.1136 16.7272 55.1742C16.6709 55.2315 16.6145 55.2888 16.5565 55.3478C15.2747 56.575 13.6349 57.0066 11.9 56.9745C10.5268 56.9205 9.22982 56.3889 8.2087 55.4705C8.16372 55.4359 8.11875 55.4013 8.07241 55.3657C7.00619 54.5389 6.32168 53.0424 6.09064 51.7413C6.0572 51.4404 6.05232 51.1478 6.05592 50.8455C6.05625 50.7913 6.05659 50.7371 6.05693 50.6813C6.05779 50.5493 6.05912 50.4173 6.06055 50.2853C6.31721 50.212 6.31721 50.212 6.57907 50.1371C6.58161 50.1784 6.58416 50.2198 6.58679 50.2623C6.69902 51.9563 7.12651 53.3758 8.37449 54.5955C9.52394 55.5846 11.0056 56.0149 12.505 55.9149C13.6029 55.7743 14.5356 55.3451 15.3939 54.6557C15.4559 54.6091 15.5178 54.5625 15.5817 54.5145C16.41 53.8108 16.9559 52.6647 17.1717 51.6186C17.1969 51.4972 17.1969 51.4972 17.2226 51.3733C17.3633 49.7129 16.9273 48.2688 15.8661 46.9797C14.9843 46.028 13.6558 45.3831 12.3593 45.3099C11.8642 45.2977 11.3703 45.3068 10.8754 45.3223C10.8754 45.1023 10.8754 44.8823 10.8754 44.6557C12.6198 43.838 15.1096 44.8056 16.4535 45.9543Z" fill="white"/>
<path d="M0.0605469 42.5075C0.380666 42.5513 0.605383 42.6666 0.882306 42.8304C0.925226 42.8557 0.968146 42.8809 1.01237 42.9069C1.15221 42.9892 1.29157 43.0724 1.43092 43.1557C1.52838 43.2134 1.62586 43.2711 1.72336 43.3288C2.53393 43.8095 3.33659 44.3026 4.13462 44.8038C4.42005 44.9829 4.70554 45.1619 4.9911 45.3408C5.06408 45.3866 5.13705 45.4324 5.21224 45.4795C5.75696 45.8202 6.30561 46.154 6.85566 46.4859C8.22287 47.3116 9.5305 48.1597 10.7096 49.2442C10.8658 49.3876 11.0248 49.5266 11.1855 49.6649C11.3811 49.8366 11.575 50.0095 11.7643 50.1881C11.807 50.2281 11.8498 50.2681 11.8939 50.3093C11.9865 50.4334 11.9865 50.4334 11.9865 50.7297C11.4978 50.5799 11.0395 50.3908 10.5791 50.1696C10.5114 50.1371 10.4437 50.1046 10.374 50.0712C8.91624 49.361 7.61082 48.4514 6.33948 47.4511C5.4107 46.7205 4.46543 46.0115 3.5127 45.3125C3.02283 44.9527 2.54011 44.5847 2.06055 44.2112C1.94992 44.1253 1.83929 44.0393 1.72866 43.9534C1.14914 43.5031 1.14914 43.5031 0.89171 43.3017C0.774692 43.211 0.656831 43.1214 0.538411 43.0325C0.477348 42.9864 0.416285 42.9402 0.353371 42.8926C0.297344 42.8508 0.241318 42.8089 0.183594 42.7658C0.142988 42.7295 0.102383 42.6931 0.0605469 42.6557C0.0605469 42.6068 0.0605469 42.5579 0.0605469 42.5075Z" fill="white"/>
<path d="M5.54203 39.989C5.63599 40.0486 5.63599 40.0486 5.73184 40.1094C6.15634 40.523 6.30846 40.9081 6.33369 41.5029C6.31208 42.1015 6.14315 42.5101 5.71159 42.9259C5.28908 43.2567 4.81478 43.3682 4.28277 43.3223C3.76252 43.2188 3.36398 42.9912 3.02351 42.5816C2.72205 42.0678 2.63146 41.5632 2.77351 40.9861C2.95805 40.4407 3.26643 40.1 3.77409 39.8313C4.3561 39.5987 5.01319 39.649 5.54203 39.989Z" fill="white"/>
<path d="M54.3568 55.2483C54.5768 55.2483 54.7968 55.2483 55.0235 55.2483C55.048 55.8594 55.0724 56.4705 55.0976 57.1001C55.3176 56.9168 55.3176 56.9168 55.542 56.7297C55.9972 56.578 56.6051 56.5672 57.0646 56.7176C57.5108 56.9762 57.8093 57.3842 58.0143 57.8501C58.1324 58.5827 58.1475 59.331 57.7643 59.989C57.4484 60.3475 57.1084 60.6326 56.6242 60.6805C56.0667 60.6862 55.6503 60.6753 55.1717 60.3594C55.1472 60.3349 55.1228 60.3105 55.0976 60.2853C55.0731 60.3831 55.0487 60.4808 55.0235 60.5816C54.8035 60.5816 54.5835 60.5816 54.3568 60.5816C54.3568 58.8216 54.3568 57.0616 54.3568 55.2483ZM55.0235 57.7668C54.9818 58.0552 54.9858 58.3461 54.9818 58.6371C54.9782 58.7175 54.9745 58.7979 54.9707 58.8808C54.9578 59.3151 54.9578 59.3151 55.1341 59.6978C55.503 60.0229 55.8362 60.0895 56.3195 60.0839C56.6717 60.0443 56.865 59.8442 57.1161 59.614C57.3655 59.1953 57.4374 58.71 57.3568 58.2297C57.2482 57.8367 57.0084 57.5234 56.6607 57.3102C56.027 57.0581 55.4771 57.3132 55.0235 57.7668Z" fill="white"/>
<path d="M95.3152 56.6233C95.3934 56.6242 95.3934 56.6242 95.4731 56.6251C95.9653 56.6411 96.2733 56.7368 96.6309 57.0689C97.1446 57.6211 97.1717 58.0247 97.1717 58.8038C96.145 58.8038 95.1183 58.8038 94.0605 58.8038C94.364 59.5972 94.364 59.5972 95.005 60.0168C95.4874 60.1095 95.9024 60.0663 96.3198 59.7992C96.3664 59.7655 96.413 59.7318 96.461 59.697C96.5791 59.6186 96.5791 59.6186 96.7272 59.6186C96.8522 59.7483 96.8522 59.7483 96.9494 59.9149C96.9364 60.061 96.9364 60.061 96.8754 60.2112C96.7463 60.3186 96.7463 60.3186 96.5883 60.4103C96.5366 60.4411 96.4848 60.472 96.4315 60.5038C95.9162 60.7734 95.1506 60.7302 94.5883 60.6102C94.073 60.4071 93.7396 60.0089 93.4925 59.5246C93.3874 59.2302 93.3568 58.9737 93.3615 58.6649C93.3621 58.6129 93.3627 58.5609 93.3633 58.5074C93.3847 57.8508 93.5985 57.4472 94.055 56.9896C94.4477 56.7042 94.8377 56.616 95.3152 56.6233ZM94.3707 57.6001C94.1718 57.8689 94.1718 57.8689 94.0605 58.3594C94.8672 58.3594 95.6739 58.3594 96.505 58.3594C96.4316 57.8459 96.4137 57.7342 96.0605 57.3964C95.4365 57.056 94.8918 57.0906 94.3707 57.6001Z" fill="white"/>
<path d="M44.6485 56.6233C44.7267 56.6242 44.7267 56.6242 44.8065 56.6251C45.2986 56.6411 45.6067 56.7368 45.9642 57.0689C46.4779 57.6211 46.505 58.0247 46.505 58.8038C45.4783 58.8038 44.4517 58.8038 43.3939 58.8038C43.6973 59.5972 43.6973 59.5972 44.3383 60.0168C44.8207 60.1095 45.2357 60.0663 45.6531 59.7992C45.6997 59.7655 45.7463 59.7318 45.7943 59.697C45.9124 59.6186 45.9124 59.6186 46.0605 59.6186C46.1855 59.7483 46.1855 59.7483 46.2828 59.9149C46.2697 60.061 46.2697 60.061 46.2087 60.2112C46.0796 60.3186 46.0796 60.3186 45.9217 60.4103C45.8699 60.4411 45.8181 60.472 45.7648 60.5038C45.2496 60.7734 44.484 60.7302 43.9217 60.6102C43.4063 60.4071 43.073 60.0089 42.8259 59.5246C42.7208 59.2302 42.6901 58.9737 42.6948 58.6649C42.6954 58.6129 42.696 58.5609 42.6967 58.5074C42.718 57.8508 42.9319 57.4472 43.3884 56.9896C43.781 56.7042 44.171 56.616 44.6485 56.6233ZM43.7041 57.6001C43.5051 57.8689 43.5051 57.8689 43.3939 58.3594C44.2005 58.3594 45.0072 58.3594 45.8383 58.3594C45.765 57.8459 45.747 57.7342 45.3939 57.3964C44.7698 57.056 44.2252 57.0906 43.7041 57.6001Z" fill="white"/>
<path d="M83.0096 56.7714C83.2725 56.9514 83.4277 57.1748 83.542 57.4705C83.5796 57.7153 83.5767 57.9544 83.571 58.2017C83.5705 58.27 83.5701 58.3383 83.5697 58.4087C83.568 58.6253 83.5643 58.8418 83.5605 59.0584C83.5591 59.206 83.5577 59.3535 83.5565 59.501C83.5532 59.8612 83.5481 60.2214 83.542 60.5816C83.322 60.5816 83.102 60.5816 82.8754 60.5816C82.8509 60.5083 82.8265 60.4349 82.8013 60.3594C82.7249 60.4083 82.6485 60.4571 82.5698 60.5075C82.1311 60.7276 81.6506 60.7173 81.1717 60.6557C80.8284 60.511 80.6027 60.3441 80.3568 60.0631C80.2179 59.6462 80.1872 59.1209 80.3499 58.7072C80.549 58.4098 80.7641 58.2741 81.0976 58.1371C81.729 58.0608 82.2638 58.0824 82.8013 58.4334C82.8502 57.9391 82.8502 57.9391 82.6624 57.5029C82.2907 57.2515 81.9058 57.2708 81.468 57.3223C81.2901 57.403 81.1495 57.4924 80.9954 57.6117C80.8754 57.6927 80.8754 57.6927 80.6531 57.6927C80.5281 57.5446 80.5281 57.5446 80.4309 57.3964C80.534 57.1458 80.6385 57.0381 80.8707 56.901C80.9474 56.8548 80.9474 56.8548 81.0255 56.8076C81.5383 56.5345 82.4725 56.5325 83.0096 56.7714ZM81.0281 58.9288C80.911 59.1838 80.8917 59.4214 80.9494 59.6927C81.1554 59.9633 81.3569 60.1355 81.6902 60.2112C82.1473 60.218 82.4457 60.1253 82.8013 59.8408C82.9236 59.7186 82.8967 59.5783 82.9031 59.4103C82.9012 59.0955 82.9012 59.0955 82.718 58.8408C82.1153 58.5264 81.5788 58.4492 81.0281 58.9288Z" fill="white"/>
<path d="M52.6393 56.7714C52.9021 56.9514 53.0574 57.1748 53.1717 57.4705C53.2093 57.7153 53.2064 57.9544 53.2006 58.2017C53.2002 58.27 53.1998 58.3383 53.1993 58.4087C53.1977 58.6253 53.194 58.8418 53.1902 59.0584C53.1887 59.206 53.1873 59.3535 53.1861 59.501C53.1829 59.8612 53.1778 60.2214 53.1717 60.5816C52.9517 60.5816 52.7317 60.5816 52.505 60.5816C52.4805 60.5083 52.4561 60.4349 52.4309 60.3594C52.3545 60.4083 52.2781 60.4571 52.1994 60.5075C51.7608 60.7276 51.2802 60.7173 50.8013 60.6557C50.458 60.511 50.2324 60.3441 49.9865 60.0631C49.8475 59.6462 49.8169 59.1209 49.9795 58.7072C50.1786 58.4098 50.3937 58.2741 50.7272 58.1371C51.3586 58.0608 51.8935 58.0824 52.4309 58.4334C52.4798 57.9391 52.4798 57.9391 52.292 57.5029C51.9203 57.2515 51.5355 57.2708 51.0976 57.3223C50.9197 57.403 50.7791 57.4924 50.6251 57.6117C50.505 57.6927 50.505 57.6927 50.2828 57.6927C50.1578 57.5446 50.1578 57.5446 50.0605 57.3964C50.1637 57.1458 50.2681 57.0381 50.5004 56.901C50.577 56.8548 50.577 56.8548 50.6552 56.8076C51.1679 56.5345 52.1022 56.5325 52.6393 56.7714ZM50.6578 58.9288C50.5406 59.1838 50.5214 59.4214 50.5791 59.6927C50.785 59.9633 50.9865 60.1355 51.3198 60.2112C51.7769 60.218 52.0754 60.1253 52.4309 59.8408C52.5532 59.7186 52.5264 59.5783 52.5328 59.4103C52.5309 59.0955 52.5309 59.0955 52.3476 58.8408C51.7449 58.5264 51.2085 58.4492 50.6578 58.9288Z" fill="white"/>
<path d="M66.1346 56.7297C66.3791 56.7297 66.6235 56.7297 66.8754 56.7297C67.173 57.2896 67.3985 57.8766 67.63 58.4658C67.6905 58.6197 67.7511 58.7735 67.8119 58.9271C67.8666 59.0652 67.9209 59.2034 67.9752 59.3416C68.0414 59.5347 68.0414 59.5347 68.1346 59.6186C68.5257 58.6653 68.9168 57.712 69.3198 56.7297C69.5643 56.7297 69.8087 56.7297 70.0605 56.7297C70.0087 57.108 69.8541 57.4404 69.7058 57.7888C69.6775 57.856 69.6493 57.9231 69.6202 57.9924C69.5296 58.2074 69.4386 58.4223 69.3476 58.6371C69.2585 58.8481 69.1696 59.0592 69.0807 59.2702C69.0222 59.4089 68.9636 59.5475 68.9049 59.686C68.7689 60.0072 68.6349 60.3289 68.5071 60.6535C68.4844 60.7106 68.4617 60.7677 68.4383 60.8265C68.3969 60.9313 68.3561 61.0363 68.3162 61.1416C68.1636 61.526 67.9636 61.8449 67.6242 62.0903C67.4021 62.1569 67.1991 62.151 66.968 62.1464C66.8813 62.1451 66.7946 62.1437 66.7052 62.1424C66.6391 62.1406 66.5731 62.1389 66.505 62.1371C66.5294 61.9171 66.5539 61.6971 66.5791 61.4705C66.6845 61.4766 66.7899 61.4827 66.8985 61.489C67.1646 61.4935 67.1646 61.4935 67.3846 61.3594C67.4121 61.2983 67.4396 61.2371 67.468 61.1742C67.5125 61.0896 67.5571 61.005 67.603 60.9179C67.7622 60.4855 67.5706 60.1553 67.3904 59.7564C67.3574 59.679 67.3244 59.6016 67.2903 59.5219C67.1847 59.2755 67.0764 59.0304 66.968 58.7853C66.8612 58.5389 66.7549 58.2922 66.6487 58.0455C66.5826 57.8923 66.5159 57.7393 66.4487 57.5865C66.4183 57.5173 66.3879 57.448 66.3566 57.3767C66.3164 57.2856 66.3164 57.2856 66.2753 57.1927C66.2087 57.026 66.2087 57.026 66.1346 56.7297Z" fill="white"/>
<path d="M8.82444 43.077C9.13231 43.3419 9.44953 43.6249 9.48561 44.0477C9.49696 44.5672 9.49769 44.9082 9.17166 45.3223C8.77493 45.6987 8.41763 45.8022 7.88028 45.7902C7.48049 45.7409 7.19628 45.5744 6.92166 45.2853C6.623 44.8258 6.60774 44.4597 6.65314 43.9149C6.78171 43.5065 7.04981 43.2655 7.39388 43.026C7.85588 42.7899 8.37159 42.8463 8.82444 43.077Z" fill="white"/>
<path d="M32.2828 56.7297C32.5028 56.7297 32.7228 56.7297 32.9494 56.7297C32.9497 56.8153 32.95 56.9009 32.9504 56.989C32.952 57.3073 32.956 57.6255 32.9607 57.9437C32.9625 58.0812 32.9635 58.2188 32.9639 58.3564C32.9646 58.5545 32.9676 58.7525 32.9711 58.9505C32.9708 59.0118 32.9706 59.0731 32.9703 59.1362C32.9783 59.4569 32.995 59.5826 33.2006 59.8428C33.4685 60.0454 33.63 60.0326 33.9541 60.0162C34.2898 59.9656 34.5242 59.8033 34.8013 59.6186C34.8263 59.3984 34.8375 59.1929 34.8392 58.9722C34.8405 58.9083 34.8419 58.8444 34.8432 58.7785C34.8472 58.574 34.8497 58.3695 34.8522 58.1649C34.8547 58.0264 34.8572 57.8879 34.8599 57.7494C34.8662 57.4095 34.8711 57.0697 34.8754 56.7297C35.0954 56.7297 35.3154 56.7297 35.542 56.7297C35.542 58.0008 35.542 59.272 35.542 60.5816C35.322 60.5816 35.102 60.5816 34.8754 60.5816C34.8387 60.4349 34.8387 60.4349 34.8013 60.2853C34.7404 60.3254 34.7404 60.3254 34.6783 60.3663C34.126 60.6896 33.5816 60.7575 32.9494 60.6557C32.6213 60.4825 32.435 60.3268 32.2828 59.989C32.2528 59.739 32.2569 59.4914 32.2611 59.2399C32.2614 59.168 32.2617 59.0962 32.262 59.0222C32.2633 58.7935 32.266 58.5649 32.2689 58.3362C32.27 58.1809 32.271 58.0256 32.2719 57.8702C32.2744 57.49 32.2782 57.1099 32.2828 56.7297Z" fill="white"/>
<path d="M91.1948 56.6325C91.2908 56.6297 91.3867 56.627 91.4856 56.6241C91.8682 56.6674 92.0876 56.8044 92.331 57.1009C92.477 57.4244 92.4584 57.7208 92.4526 58.0715C92.4523 58.1433 92.452 58.2151 92.4517 58.2891C92.4504 58.5178 92.4476 58.7464 92.4448 58.9751C92.4437 59.1304 92.4427 59.2858 92.4418 59.4411C92.4393 59.8213 92.4355 60.2014 92.4309 60.5816C92.2354 60.5816 92.0398 60.5816 91.8383 60.5816C91.8361 60.4712 91.8361 60.4712 91.8339 60.3586C91.8282 60.0837 91.8216 59.8089 91.8148 59.534C91.812 59.4154 91.8094 59.2968 91.8071 59.1782C91.8037 59.007 91.7994 58.8358 91.7949 58.6646C91.7941 58.6122 91.7932 58.5598 91.7923 58.5058C91.7809 58.1142 91.7622 57.6969 91.4807 57.4033C91.1862 57.255 90.8995 57.2692 90.5791 57.3223C90.3323 57.4346 90.105 57.5742 89.9124 57.7668C89.9005 57.9749 89.8932 58.1814 89.889 58.3897C89.8874 58.4521 89.8859 58.5145 89.8843 58.5788C89.8794 58.7788 89.8751 58.9788 89.8707 59.1788C89.8675 59.3141 89.8643 59.4494 89.861 59.5846C89.8531 59.9169 89.8456 60.2493 89.8383 60.5816C89.6183 60.5816 89.3983 60.5816 89.1717 60.5816C89.1717 59.3105 89.1717 58.0394 89.1717 56.7297C89.3917 56.7297 89.6117 56.7297 89.8383 56.7297C89.8383 56.852 89.8383 56.9742 89.8383 57.1001C89.8785 57.0742 89.9187 57.0484 89.9601 57.0217C90.0396 56.9711 90.0396 56.9711 90.1207 56.9196C90.1732 56.886 90.2256 56.8525 90.2796 56.818C90.5825 56.6414 90.8499 56.639 91.1948 56.6325Z" fill="white"/>
<path d="M86.7504 56.6325C86.8463 56.6297 86.9423 56.627 87.0412 56.6241C87.4238 56.6674 87.6431 56.8044 87.8865 57.1009C88.0325 57.4244 88.014 57.7208 88.0082 58.0715C88.0079 58.1433 88.0076 58.2151 88.0072 58.2891C88.006 58.5178 88.0032 58.7464 88.0004 58.9751C87.9992 59.1304 87.9982 59.2858 87.9973 59.4411C87.9949 59.8213 87.991 60.2014 87.9865 60.5816C87.7909 60.5816 87.5954 60.5816 87.3939 60.5816C87.3917 60.4712 87.3917 60.4712 87.3894 60.3586C87.3838 60.0837 87.3772 59.8089 87.3704 59.534C87.3675 59.4154 87.365 59.2968 87.3626 59.1782C87.3592 59.007 87.3549 58.8358 87.3505 58.6646C87.3496 58.6122 87.3488 58.5598 87.3479 58.5058C87.3364 58.1142 87.3177 57.6969 87.0362 57.4033C86.7417 57.255 86.4551 57.2692 86.1346 57.3223C85.8879 57.4346 85.6605 57.5742 85.468 57.7668C85.4561 57.9749 85.4487 58.1814 85.4445 58.3897C85.443 58.4521 85.4414 58.5145 85.4398 58.5788C85.435 58.7788 85.4306 58.9788 85.4263 59.1788C85.4231 59.3141 85.4199 59.4494 85.4166 59.5846C85.4086 59.9169 85.4011 60.2493 85.3939 60.5816C85.1739 60.5816 84.9539 60.5816 84.7272 60.5816C84.7272 59.3105 84.7272 58.0394 84.7272 56.7297C84.9472 56.7297 85.1672 56.7297 85.3939 56.7297C85.3939 56.852 85.3939 56.9742 85.3939 57.1001C85.4341 57.0742 85.4743 57.0484 85.5157 57.0217C85.5952 56.9711 85.5952 56.9711 85.6763 56.9196C85.7287 56.886 85.7811 56.8525 85.8351 56.818C86.138 56.6414 86.4055 56.639 86.7504 56.6325Z" fill="white"/>
<path d="M40.5281 56.6325C40.6241 56.6297 40.7201 56.627 40.8189 56.6241C41.2015 56.6674 41.4209 56.8044 41.6643 57.1009C41.8103 57.4244 41.7917 57.7208 41.786 58.0715C41.7856 58.1433 41.7853 58.2151 41.785 58.2891C41.7838 58.5178 41.781 58.7464 41.7781 58.9751C41.777 59.1304 41.776 59.2858 41.7751 59.4411C41.7727 59.8213 41.7688 60.2014 41.7643 60.5816C41.5687 60.5816 41.3731 60.5816 41.1717 60.5816C41.1695 60.4712 41.1695 60.4712 41.1672 60.3586C41.1615 60.0837 41.155 59.8089 41.1481 59.534C41.1453 59.4154 41.1427 59.2968 41.1404 59.1782C41.137 59.007 41.1327 58.8358 41.1283 58.6646C41.1274 58.6122 41.1265 58.5598 41.1257 58.5058C41.1142 58.1142 41.0955 57.6969 40.814 57.4033C40.5195 57.255 40.2329 57.2692 39.9124 57.3223C39.6657 57.4346 39.4383 57.5742 39.2457 57.7668C39.2339 57.9749 39.2265 58.1814 39.2223 58.3897C39.2208 58.4521 39.2192 58.5145 39.2176 58.5788C39.2128 58.7788 39.2084 58.9788 39.2041 59.1788C39.2009 59.3141 39.1976 59.4494 39.1944 59.5846C39.1864 59.9169 39.1789 60.2493 39.1717 60.5816C38.9517 60.5816 38.7317 60.5816 38.505 60.5816C38.505 59.3105 38.505 58.0394 38.505 56.7297C38.725 56.7297 38.945 56.7297 39.1717 56.7297C39.1717 56.852 39.1717 56.9742 39.1717 57.1001C39.2119 57.0742 39.2521 57.0484 39.2935 57.0217C39.373 56.9711 39.373 56.9711 39.4541 56.9196C39.5065 56.886 39.5589 56.8525 39.6129 56.818C39.9158 56.6414 40.1833 56.639 40.5281 56.6325Z" fill="white"/>
<path d="M73.9402 56.6233C73.996 56.6236 74.0517 56.6239 74.1092 56.6243C74.5338 56.6356 74.8154 56.7097 75.1717 56.952C75.245 57.0008 75.3183 57.0497 75.3939 57.1001C75.3537 57.3813 75.2308 57.5054 75.0235 57.6927C74.97 57.6469 74.9166 57.601 74.8615 57.5538C74.4891 57.2724 74.1565 57.19 73.6902 57.2483C73.4356 57.3229 73.4356 57.3229 73.2457 57.4705C73.174 57.6619 73.174 57.6619 73.1717 57.8408C73.4422 58.0872 73.7345 58.1493 74.0791 58.239C75.1473 58.5355 75.1473 58.5355 75.4063 58.9384C75.5591 59.3392 75.5256 59.7828 75.3568 60.1696C74.9262 60.6109 74.545 60.6854 73.9541 60.6927C73.3304 60.687 72.8371 60.5548 72.3568 60.1371C72.4647 59.7956 72.4647 59.7956 72.6404 59.6698C72.8013 59.6186 72.8013 59.6186 72.9494 59.6826C73.0228 59.7357 73.0228 59.7357 73.0976 59.7899C73.4778 60.061 73.8172 60.1014 74.2828 60.0631C74.5323 59.9966 74.5323 59.9966 74.7272 59.9149C74.7839 59.6664 74.7839 59.6664 74.8013 59.3964C74.6338 59.1516 74.4062 59.1074 74.13 59.0307C72.8661 58.6597 72.8661 58.6597 72.5791 58.2853C72.432 57.9911 72.4652 57.6422 72.505 57.3223C72.7754 56.7396 73.359 56.6154 73.9402 56.6233Z" fill="white"/>
<path d="M27.7643 56.7297C28.0087 56.7297 28.2531 56.7297 28.505 56.7297C28.8026 57.2896 29.0282 57.8766 29.2596 58.4658C29.3201 58.6197 29.3807 58.7735 29.4416 58.9271C29.4962 59.0652 29.5505 59.2034 29.6049 59.3416C29.671 59.5347 29.671 59.5347 29.7643 59.6186C30.1554 58.6653 30.5465 57.712 30.9494 56.7297C31.1939 56.7297 31.4383 56.7297 31.6902 56.7297C31.6453 56.9863 31.5792 57.2133 31.4797 57.4538C31.4378 57.5557 31.4378 57.5557 31.395 57.6597C31.3649 57.7321 31.3347 57.8045 31.3036 57.879C31.2726 57.954 31.2417 58.0289 31.2098 58.1061C31.1444 58.2641 31.0789 58.422 31.0133 58.5798C30.9124 58.8223 30.8121 59.0651 30.7119 59.3079C30.6483 59.4612 30.5848 59.6146 30.5212 59.7679C30.491 59.8409 30.4609 59.9139 30.4298 59.9891C30.4018 60.0561 30.3739 60.1231 30.3451 60.1922C30.3205 60.2514 30.2959 60.3107 30.2705 60.3717C30.2087 60.5075 30.2087 60.5075 30.1346 60.5816C29.9974 60.5869 29.8599 60.5878 29.7226 60.5862C29.6476 60.5856 29.5727 60.5849 29.4954 60.5842C29.4085 60.5829 29.4085 60.5829 29.3198 60.5816C29.1099 60.0808 28.9003 59.5798 28.6909 59.0788C28.6196 58.9083 28.5483 58.7379 28.4769 58.5675C28.3743 58.3227 28.2719 58.0777 28.1696 57.8327C28.1376 57.7565 28.1056 57.6803 28.0726 57.6017C28.0429 57.5305 28.0133 57.4594 27.9827 57.3861C27.9566 57.3236 27.9304 57.261 27.9035 57.1966C27.8383 57.026 27.8383 57.026 27.7643 56.7297Z" fill="white"/>
<path d="M78.2041 56.6233C78.2561 56.6237 78.3081 56.6242 78.3617 56.6246C78.8845 56.6404 79.1896 56.7681 79.5791 57.1186C79.6157 57.1614 79.6524 57.2042 79.6902 57.2483C79.6089 57.47 79.566 57.5332 79.3476 57.6371C79.2895 57.6555 79.2315 57.6738 79.1717 57.6927C79.1151 57.6453 79.0586 57.598 79.0004 57.5492C78.6569 57.2856 78.3297 57.283 77.9124 57.3223C77.4969 57.4713 77.2945 57.6999 77.0791 58.077C76.9449 58.5801 76.9708 59.0383 77.2301 59.4933C77.4157 59.7525 77.6135 59.8894 77.9124 59.989C78.4041 60.0471 78.6881 59.9629 79.0976 59.6927C79.1709 59.6683 79.2442 59.6438 79.3198 59.6186C79.5189 59.7621 79.5189 59.7621 79.6902 59.9149C79.5585 60.2502 79.3277 60.4292 79.0102 60.5885C78.5142 60.7479 77.7636 60.7594 77.2828 60.5492C76.8015 60.2487 76.42 59.7992 76.2828 59.2483C76.2173 58.5134 76.2202 57.8486 76.696 57.2491C77.1182 56.7898 77.5793 56.614 78.2041 56.6233Z" fill="white"/>
<path d="M64.4309 55.6186C64.6509 55.6186 64.8709 55.6186 65.0976 55.6186C65.0976 55.9608 65.0976 56.3031 65.0976 56.6557C65.3665 56.6557 65.6354 56.6557 65.9124 56.6557C65.9124 56.8757 65.9124 57.0957 65.9124 57.3223C65.6435 57.3223 65.3746 57.3223 65.0976 57.3223C65.1045 57.6545 65.1124 57.9866 65.1211 58.3188C65.1239 58.4317 65.1265 58.5447 65.1288 58.6576C65.1322 58.8202 65.1365 58.9827 65.141 59.1452C65.1418 59.1956 65.1427 59.2459 65.1436 59.2977C65.1518 59.5637 65.1761 59.762 65.3198 59.989C65.5154 59.9646 65.7109 59.9401 65.9124 59.9149C65.9857 60.086 66.0591 60.2571 66.1346 60.4334C65.8172 60.7253 65.517 60.6962 65.1037 60.6869C64.8754 60.6557 64.8754 60.6557 64.6346 60.489C64.406 60.1297 64.4209 59.7934 64.4237 59.3767C64.4238 59.318 64.4239 59.2592 64.424 59.1986C64.4244 59.0115 64.4253 58.8243 64.4263 58.6371C64.4267 58.51 64.427 58.3829 64.4273 58.2558C64.4281 57.9446 64.4294 57.6335 64.4309 57.3223C64.2354 57.3223 64.0398 57.3223 63.8383 57.3223C63.8383 57.1023 63.8383 56.8823 63.8383 56.6557C64.0339 56.6557 64.2294 56.6557 64.4309 56.6557C64.4309 56.3134 64.4309 55.9712 64.4309 55.6186Z" fill="white"/>
<path d="M60.8013 55.2483C61.0213 55.2483 61.2413 55.2483 61.468 55.2483C61.468 57.0083 61.468 58.7683 61.468 60.5816C61.248 60.5816 61.028 60.5816 60.8013 60.5816C60.8013 58.8216 60.8013 57.0616 60.8013 55.2483Z" fill="white"/>
<path d="M36.7272 55.2483C36.9472 55.2483 37.1672 55.2483 37.3939 55.2483C37.3939 57.0083 37.3939 58.7683 37.3939 60.5816C37.1739 60.5816 36.9539 60.5816 36.7272 60.5816C36.7272 58.8216 36.7272 57.0616 36.7272 55.2483Z" fill="white"/>
<path d="M2.72721 45.7668C3.1063 45.9633 3.33292 46.1765 3.46795 46.5816C3.51144 47.0338 3.42829 47.258 3.17166 47.6186C2.88784 47.8852 2.56259 47.887 2.18873 47.8764C1.85834 47.8183 1.66915 47.6583 1.46795 47.3964C1.28943 47.0542 1.28039 46.7246 1.39388 46.3594C1.70972 45.8243 2.13537 45.6825 2.72721 45.7668Z" fill="white"/>
<path d="M100.061 56.6557C100.061 56.8757 100.061 57.0957 100.061 57.3223C100.011 57.3304 99.9622 57.3386 99.9115 57.3469C99.3986 57.4376 99.3986 57.4376 98.9494 57.6927C98.8302 57.9311 98.8574 58.1926 98.8519 58.4549C98.8504 58.5155 98.8488 58.5761 98.8473 58.6386C98.8424 58.8325 98.8381 59.0265 98.8337 59.2205C98.8305 59.3518 98.8273 59.4832 98.824 59.6146C98.8161 59.9369 98.8086 60.2592 98.8013 60.5816C98.5813 60.5816 98.3613 60.5816 98.1346 60.5816C98.1346 59.3105 98.1346 58.0394 98.1346 56.7297C98.3546 56.7297 98.5746 56.7297 98.8013 56.7297C98.8257 56.852 98.8502 56.9742 98.8754 57.1001C98.9304 57.0543 98.9854 57.0084 99.042 56.9612C99.4013 56.6836 99.5996 56.6379 100.061 56.6557Z" fill="white"/>
<path d="M49.3939 56.6557C49.3939 56.8757 49.3939 57.0957 49.3939 57.3223C49.3447 57.3304 49.2955 57.3386 49.2449 57.3469C48.7319 57.4376 48.7319 57.4376 48.2828 57.6927C48.1635 57.9311 48.1907 58.1926 48.1853 58.4549C48.1837 58.5155 48.1822 58.5761 48.1806 58.6386C48.1757 58.8325 48.1714 59.0265 48.167 59.2205C48.1638 59.3518 48.1606 59.4832 48.1573 59.6146C48.1494 59.9369 48.1419 60.2592 48.1346 60.5816C47.9146 60.5816 47.6946 60.5816 47.468 60.5816C47.468 59.3105 47.468 58.0394 47.468 56.7297C47.688 56.7297 47.908 56.7297 48.1346 56.7297C48.1591 56.852 48.1835 56.9742 48.2087 57.1001C48.2637 57.0543 48.3187 57.0084 48.3754 56.9612C48.7347 56.6836 48.933 56.6379 49.3939 56.6557Z" fill="white"/>
<path d="M62.5791 56.7297C62.7991 56.7297 63.0191 56.7297 63.2457 56.7297C63.2457 58.0008 63.2457 59.272 63.2457 60.5816C63.0257 60.5816 62.8057 60.5816 62.5791 60.5816C62.5791 59.3105 62.5791 58.0394 62.5791 56.7297Z" fill="white"/>
<path d="M58.9494 56.7297C59.1694 56.7297 59.3894 56.7297 59.6161 56.7297C59.6161 58.0008 59.6161 59.272 59.6161 60.5816C59.3961 60.5816 59.1761 60.5816 58.9494 60.5816C58.9494 59.3105 58.9494 58.0394 58.9494 56.7297Z" fill="white"/>
<path d="M62.9124 55.3038C63.1717 55.3223 63.1717 55.3223 63.3198 55.4705C63.3383 55.7297 63.3383 55.7297 63.3198 55.989C63.1717 56.1371 63.1717 56.1371 62.9124 56.1557C62.6531 56.1371 62.6531 56.1371 62.505 55.989C62.4865 55.7297 62.4865 55.7297 62.505 55.4705C62.6531 55.3223 62.6531 55.3223 62.9124 55.3038Z" fill="white"/>
<path d="M59.2828 55.3038C59.542 55.3223 59.542 55.3223 59.6902 55.4705C59.7087 55.7297 59.7087 55.7297 59.6902 55.989C59.542 56.1371 59.542 56.1371 59.2828 56.1557C59.0235 56.1371 59.0235 56.1371 58.8754 55.989C58.8568 55.7297 58.8568 55.7297 58.8754 55.4705C59.0235 55.3223 59.0235 55.3223 59.2828 55.3038Z" fill="white"/>
</g>
<defs>
<clipPath id="clip0_2377_7973">
<rect width="100" height="100" fill="white" transform="translate(0.0605469 0.553955)"/>
</clipPath>
</defs>
</svg>
