<svg width="101" height="101" viewBox="0 0 101 101" fill="none" xmlns="http://www.w3.org/2000/svg">
<g clip-path="url(#clip0_2377_7928)">
<path d="M27.9865 38.8416C30.8013 38.8416 30.8013 38.8416 31.3568 39.3462C31.4426 39.5124 31.5282 39.6789 31.6037 39.8499C31.7594 40.1683 31.9838 40.437 32.1994 40.7166C32.2875 40.8356 32.3753 40.9549 32.4627 41.0745C32.7235 41.4291 32.9846 41.7835 33.2457 42.1378C33.3322 42.2551 33.4186 42.3724 33.505 42.4897C33.5478 42.5478 33.5905 42.6058 33.6346 42.6656C36.0976 46.0082 36.0976 46.0082 36.2274 46.1843C36.3133 46.301 36.3992 46.4176 36.4852 46.5342C36.7087 46.8375 36.9321 47.1409 37.1555 47.4443C37.2246 47.5382 37.2246 47.5382 37.2952 47.6341C37.3826 47.7528 37.47 47.8715 37.5574 47.9903C37.5974 48.0446 37.6374 48.0989 37.6786 48.1549C37.7304 48.2253 37.7304 48.2253 37.7832 48.297C37.9734 48.5534 38.1653 48.8084 38.3568 49.0638C38.3935 44.0038 38.3935 44.0038 38.4309 38.8416C39.3109 38.8416 40.1909 38.8416 41.0976 38.8416C41.0976 43.8282 41.0976 48.8149 41.0976 53.9527C38.4309 53.9527 38.4309 53.9527 37.8105 53.3369C37.6772 53.1285 37.6772 53.1285 37.5961 52.9469C37.3974 52.5381 37.1477 52.1957 36.8707 51.8369C36.7839 51.7198 36.6974 51.6024 36.6112 51.4848C36.5689 51.4272 36.5266 51.3696 36.483 51.3103C36.239 50.9768 35.9978 50.6413 35.7564 50.3059C35.4654 49.9022 35.1711 49.501 34.8754 49.1008C34.4989 48.5914 34.1265 48.0793 33.7564 47.5652C33.4227 47.1022 33.0843 46.6428 32.7451 46.1838C32.4073 45.7263 32.0734 45.266 31.7421 44.8036C31.4103 44.3418 31.0687 43.8895 30.7272 43.4341C30.7028 46.9053 30.6783 50.3764 30.6531 53.9527C29.7731 53.9527 28.8931 53.9527 27.9865 53.9527C27.9865 48.966 27.9865 43.9793 27.9865 38.8416Z" fill="#191919"/>
<path d="M16.8013 40.0267C16.8791 40.0592 16.8791 40.0592 16.9585 40.0924C18.0464 40.5555 19.0159 41.1818 19.9124 41.9527C20.0184 42.0438 20.0184 42.0438 20.1265 42.1367C22.4464 44.1744 23.7684 47.1037 23.9772 50.167C24.1496 53.0828 23.1926 56.1215 21.2666 58.3355C21.0674 58.5589 20.861 58.7744 20.6531 58.9897C20.5947 59.0528 20.5363 59.1159 20.4761 59.181C18.5257 61.2314 15.5965 62.4005 12.7969 62.4871C9.40183 62.5554 6.47448 61.3632 3.98647 59.0638C1.86152 56.972 0.683119 53.9783 0.636013 51.0193C0.631574 50.305 0.664839 49.6186 0.801287 48.9156C0.841487 48.946 0.881687 48.9764 0.923104 49.0076C0.976099 49.0476 1.02909 49.0875 1.08369 49.1286C1.13612 49.1681 1.18854 49.2077 1.24255 49.2484C1.36459 49.3385 1.4899 49.4241 1.6161 49.5082C1.63898 49.6467 1.63898 49.6467 1.6326 49.8161C1.63109 49.8789 1.62958 49.9418 1.62802 50.0065C1.62561 50.0743 1.62321 50.1421 1.62073 50.2119C1.57623 53.0026 2.53066 55.6217 4.46647 57.6527C5.00049 58.195 5.56456 58.659 6.20869 59.0638C6.25419 59.0926 6.29969 59.1214 6.34657 59.1511C8.51171 60.4984 11.2359 60.9918 13.7344 60.4409C15.4016 60.0309 16.8956 59.2809 18.2087 58.1749C18.2651 58.1285 18.3216 58.0821 18.3797 58.0343C20.2758 56.424 21.3994 53.8913 21.6054 51.4399C21.7978 48.6833 20.8912 46.0612 19.0895 43.9791C18.9941 43.8709 18.8977 43.7636 18.8013 43.6564C18.7355 43.5826 18.7355 43.5826 18.6685 43.5074C17.4995 42.2691 15.9156 41.4977 14.3105 41.0082C14.2629 40.9935 14.2152 40.9788 14.166 40.9636C13.3239 40.7194 12.4841 40.6711 11.6115 40.6795C11.5173 40.6796 11.4231 40.6796 11.326 40.6797C10.8829 40.6817 10.4543 40.6973 10.0145 40.753C9.64628 40.7871 9.64628 40.7871 9.39388 40.6231C9.32055 40.5227 9.32055 40.5227 9.24573 40.4203C9.19532 40.3543 9.1449 40.2883 9.09295 40.2203C9.04559 40.1564 8.99823 40.0926 8.94944 40.0267C8.85245 39.9262 8.75425 39.8268 8.65314 39.7304C9.41318 39.507 10.1591 39.2966 10.9494 39.2119C11.0316 39.2029 11.1137 39.1938 11.1983 39.1844C13.097 39.0165 15.0414 39.2865 16.8013 40.0267Z" fill="#191919"/>
<path d="M50.7272 43.5823C50.9925 43.7884 51.2318 44.0103 51.468 44.249C51.5196 44.2981 51.5713 44.3473 51.6245 44.398C52.9174 45.716 53.0235 47.5432 53.0235 49.286C50.2613 49.286 47.4991 49.286 44.6531 49.286C45.0761 50.5548 45.4341 51.2891 46.5996 51.8728C47.6385 52.2842 48.8066 52.1882 49.8383 51.8045C50.2319 51.6272 50.5878 51.4282 50.9124 51.1425C50.9735 51.0921 51.0346 51.0416 51.0976 50.9897C51.3607 51.0774 51.3987 51.1471 51.5522 51.3711C51.6163 51.4645 51.6163 51.4645 51.6816 51.5597C51.7257 51.6252 51.7698 51.6907 51.8152 51.7582C51.8601 51.8231 51.905 51.8881 51.9513 51.955C52.2828 52.4426 52.2828 52.4426 52.2828 52.6934C50.8338 54.0537 48.9371 54.2365 47.0559 54.1875C45.6681 54.1187 44.4879 53.4519 43.542 52.4712C43.4929 52.4243 43.4437 52.3774 43.393 52.3291C42.331 51.248 42.0872 49.6901 42.0999 48.2443C42.1449 46.5702 42.789 45.1726 44.0004 44.0128C45.8387 42.4558 48.7134 42.2529 50.7272 43.5823ZM45.2165 45.933C44.8352 46.471 44.7266 46.9215 44.6531 47.5823C46.6331 47.5823 48.6131 47.5823 50.6531 47.5823C50.6531 46.7396 50.3783 46.1159 49.788 45.5149C49.0678 44.8662 48.2763 44.7099 47.3296 44.7417C46.4492 44.7978 45.7691 45.2704 45.2165 45.933Z" fill="#191919"/>
<path d="M72.7272 42.9897C73.5094 42.9897 74.2917 42.9897 75.0976 42.9897C75.0998 43.2952 75.0998 43.2952 75.102 43.6068C75.107 44.2827 75.1128 44.9585 75.1189 45.6344C75.1226 46.0438 75.126 46.4533 75.1288 46.8627C75.1316 47.2585 75.135 47.6542 75.1389 48.05C75.1403 48.2003 75.1414 48.3506 75.1423 48.501C75.0969 50.1786 75.0969 50.1786 75.8522 51.6054C76.5243 52.0087 77.3177 52.0648 78.0762 51.9014C78.7929 51.6813 79.4579 51.3042 79.9865 50.7675C80.0714 50.5977 80.0707 50.5007 80.0723 50.3119C80.073 50.2475 80.0737 50.1831 80.0745 50.1167C80.0749 50.0459 80.0753 49.9751 80.0758 49.9021C80.0765 49.8277 80.0772 49.7533 80.078 49.6766C80.0803 49.4297 80.0822 49.1828 80.084 48.9359C80.0855 48.765 80.0871 48.5942 80.0887 48.4233C80.0927 47.973 80.0964 47.5227 80.1 47.0724C80.1037 46.6131 80.1078 46.1538 80.1119 45.6946C80.1199 44.7929 80.1274 43.8913 80.1346 42.9897C80.9168 42.9897 81.6991 42.9897 82.505 42.9897C82.505 46.6075 82.505 50.2253 82.505 53.9527C81.7228 53.9527 80.9405 53.9527 80.1346 53.9527C80.098 53.2927 80.098 53.2927 80.0605 52.6193C79.9949 52.6927 79.9292 52.766 79.8615 52.8416C78.8056 53.8889 77.4652 54.1957 76.0305 54.1985C75.0364 54.1874 74.2357 53.9513 73.4911 53.2721C72.8277 52.5754 72.7042 51.7148 72.7104 50.7935C72.7104 50.7089 72.7104 50.6243 72.7103 50.5371C72.7104 50.259 72.7116 49.9808 72.7127 49.7027C72.713 49.5092 72.7132 49.3157 72.7134 49.1223C72.7138 48.6661 72.7151 48.2099 72.7165 47.7537C72.7182 47.234 72.719 46.7143 72.7198 46.1946C72.7213 45.1263 72.724 44.058 72.7272 42.9897Z" fill="#191919"/>
<path d="M91.7116 43.8265C91.8828 43.9625 92.0481 44.1006 92.2087 44.249C91.8996 44.8241 91.5774 45.3903 91.2457 45.9527C90.9924 45.9063 90.936 45.8663 90.7318 45.6795C89.8839 44.9258 88.7097 44.7114 87.6115 44.7464C87.0396 44.7878 86.6048 44.9263 86.2087 45.3601C86.0409 45.6721 85.9633 45.9174 86.0374 46.2675C86.4656 46.7767 87.1726 46.9214 87.7967 47.0638C87.954 47.1017 88.1113 47.1397 88.2686 47.1778C88.488 47.2298 88.7075 47.2814 88.9272 47.3322C90.017 47.5857 91.2536 47.931 91.9865 48.8416C92.5403 49.7559 92.6546 50.7132 92.457 51.7634C92.1607 52.6523 91.4886 53.264 90.6855 53.7073C89.0457 54.4554 86.9791 54.3783 85.3007 53.7947C84.5422 53.5017 83.8412 53.1001 83.2457 52.5453C83.2933 52.289 83.3947 52.1125 83.5377 51.896C83.5809 51.8301 83.6241 51.7642 83.6686 51.6963C83.7139 51.6281 83.7592 51.5599 83.8059 51.4897C83.8515 51.4204 83.8971 51.3511 83.9441 51.2796C84.0566 51.1087 84.1695 50.938 84.2828 50.7675C84.5379 50.8234 84.6645 50.8998 84.8615 51.073C85.5249 51.6042 86.346 51.9235 87.1717 52.1008C87.2435 52.1176 87.3153 52.1344 87.3893 52.1517C88.2467 52.2392 88.9523 52.1822 89.6902 51.7304C89.7391 51.7304 89.788 51.7304 89.8383 51.7304C90.033 51.3667 90.1897 50.9623 90.0744 50.5545C90.0309 50.4766 90.0309 50.4766 89.9865 50.3971C89.962 50.3238 89.9376 50.2504 89.9124 50.1749C89.74 50.0908 89.74 50.0908 89.542 50.0267C89.4649 49.9926 89.4649 49.9926 89.3861 49.9577C88.7602 49.6873 88.1008 49.5531 87.4388 49.4027C86.1163 49.1004 84.7266 48.7662 83.9124 47.5823C83.4906 46.863 83.487 45.8878 83.6815 45.0927C83.8668 44.6093 84.1334 44.2357 84.505 43.8786C84.5454 43.8384 84.5858 43.7982 84.6274 43.7568C86.4144 42.0959 89.8402 42.4615 91.7116 43.8265Z" fill="#191919"/>
<path d="M70.8968 43.8265C71.068 43.9625 71.2333 44.1006 71.3939 44.249C71.0848 44.8241 70.7626 45.3903 70.4309 45.9527C70.1775 45.9063 70.1212 45.8663 69.917 45.6795C69.069 44.9258 67.8949 44.7114 66.7967 44.7464C66.2247 44.7878 65.7899 44.9263 65.3939 45.3601C65.2261 45.6721 65.1485 45.9174 65.2226 46.2675C65.6508 46.7767 66.3578 46.9214 66.9818 47.0638C67.1392 47.1017 67.2965 47.1397 67.4538 47.1778C67.6732 47.2298 67.8927 47.2814 68.1124 47.3322C69.2021 47.5857 70.4388 47.931 71.1717 48.8416C71.7254 49.7559 71.8398 50.7132 71.6421 51.7634C71.3458 52.6523 70.6738 53.264 69.8707 53.7073C68.2309 54.4554 66.1642 54.3783 64.4859 53.7947C63.7274 53.5017 63.0264 53.1001 62.4309 52.5453C62.4785 52.289 62.5799 52.1125 62.7229 51.896C62.7661 51.8301 62.8093 51.7642 62.8538 51.6963C62.8991 51.6281 62.9444 51.5599 62.9911 51.4897C63.0367 51.4204 63.0823 51.3511 63.1293 51.2796C63.2418 51.1087 63.3547 50.938 63.468 50.7675C63.7231 50.8234 63.8497 50.8998 64.0467 51.073C64.7101 51.6042 65.5312 51.9235 66.3568 52.1008C66.4286 52.1176 66.5005 52.1344 66.5744 52.1517C67.4319 52.2392 68.1375 52.1822 68.8754 51.7304C68.9242 51.7304 68.9731 51.7304 69.0235 51.7304C69.2182 51.3667 69.3748 50.9623 69.2596 50.5545C69.2161 50.4766 69.2161 50.4766 69.1717 50.3971C69.1472 50.3238 69.1228 50.2504 69.0976 50.1749C68.9252 50.0908 68.9252 50.0908 68.7272 50.0267C68.65 49.9926 68.65 49.9926 68.5713 49.9577C67.9454 49.6873 67.286 49.5531 66.624 49.4027C65.3015 49.1004 63.9118 48.7662 63.0976 47.5823C62.6758 46.863 62.6722 45.8878 62.8667 45.0927C63.0519 44.6093 63.3186 44.2357 63.6902 43.8786C63.7306 43.8384 63.771 43.7982 63.8126 43.7568C65.5996 42.0959 69.0254 42.4615 70.8968 43.8265Z" fill="#191919"/>
<path d="M61.5634 43.8265C61.7346 43.9625 61.9 44.1006 62.0605 44.249C61.7515 44.8241 61.4293 45.3903 61.0976 45.9527C60.8442 45.9063 60.7879 45.8663 60.5837 45.6795C59.7357 44.9258 58.5616 44.7114 57.4633 44.7464C56.8914 44.7878 56.4566 44.9263 56.0605 45.3601C55.8927 45.6721 55.8152 45.9174 55.8893 46.2675C56.3175 46.7767 57.0245 46.9214 57.6485 47.0638C57.8058 47.1017 57.9631 47.1397 58.1204 47.1778C58.3399 47.2298 58.5593 47.2814 58.779 47.3322C59.8688 47.5857 61.1055 47.931 61.8383 48.8416C62.3921 49.7559 62.5065 50.7132 62.3088 51.7634C62.0125 52.6523 61.3405 53.264 60.5374 53.7073C58.8975 54.4554 56.8309 54.3783 55.1526 53.7947C54.394 53.5017 53.6931 53.1001 53.0976 52.5453C53.1452 52.289 53.2465 52.1125 53.3895 51.896C53.4327 51.8301 53.476 51.7642 53.5205 51.6963C53.5658 51.6281 53.6111 51.5599 53.6578 51.4897C53.7034 51.4204 53.749 51.3511 53.7959 51.2796C53.9085 51.1087 54.0214 50.938 54.1346 50.7675C54.3897 50.8234 54.5164 50.8998 54.7133 51.073C55.3768 51.6042 56.1979 51.9235 57.0235 52.1008C57.0953 52.1176 57.1671 52.1344 57.2411 52.1517C58.0986 52.2392 58.8042 52.1822 59.542 51.7304C59.5909 51.7304 59.6398 51.7304 59.6902 51.7304C59.8848 51.3667 60.0415 50.9623 59.9263 50.5545C59.8827 50.4766 59.8827 50.4766 59.8383 50.3971C59.8139 50.3238 59.7894 50.2504 59.7643 50.1749C59.5919 50.0908 59.5919 50.0908 59.3939 50.0267C59.3167 49.9926 59.3167 49.9926 59.238 49.9577C58.6121 49.6873 57.9527 49.5531 57.2906 49.4027C55.9681 49.1004 54.5784 48.7662 53.7643 47.5823C53.3425 46.863 53.3389 45.8878 53.5333 45.0927C53.7186 44.6093 53.9853 44.2357 54.3568 43.8786C54.3972 43.8384 54.4376 43.7982 54.4792 43.7568C56.2662 42.0959 59.6921 42.4615 61.5634 43.8265Z" fill="#191919"/>
<path d="M17.5513 44.0175C17.6722 44.1187 17.7925 44.2206 17.9124 44.323C18.0012 44.3944 18.0012 44.3944 18.0918 44.4671C19.6665 45.7861 20.6452 47.873 20.8571 49.8965C21.021 52.3993 20.368 54.6431 18.7041 56.5499C17.2375 58.1316 15.2302 59.2619 13.0402 59.3702C10.713 59.4575 8.45023 58.9349 6.69481 57.3184C6.55598 57.1856 6.41944 57.0507 6.28277 56.9156C6.22443 56.8626 6.16609 56.8096 6.10598 56.755C4.96401 55.6928 4.22641 54.1287 3.9124 52.6193C3.89588 52.547 3.87936 52.4746 3.86234 52.4C3.7288 51.7368 3.75079 51.0702 3.76425 50.3971C3.98425 50.4216 4.20425 50.446 4.43092 50.4712C4.43571 50.5188 4.4405 50.5665 4.44544 50.6156C4.6877 52.948 5.3953 54.9383 7.26975 56.4631C8.97317 57.7132 11.0057 58.2198 13.1022 57.9043C14.9282 57.5653 16.6797 56.4889 17.7571 54.9721C18.9107 53.2763 19.362 51.2543 18.9852 49.2319C18.6131 47.4572 17.5634 45.7477 16.0554 44.717C14.9329 43.989 13.6717 43.4558 12.3204 43.4107C12.2316 43.4076 12.1428 43.4045 12.0513 43.4013C11.9596 43.3984 11.868 43.3955 11.7735 43.3925C11.6801 43.3893 11.5867 43.3861 11.4905 43.3828C11.2608 43.375 11.031 43.3675 10.8013 43.3601C10.728 43.0423 10.6546 42.7245 10.5791 42.3971C13.0576 42.0323 15.543 42.4426 17.5513 44.0175Z" fill="#191919"/>
<path d="M16.4535 46.0661C17.7415 47.2459 18.4978 48.7926 18.6002 50.5461C18.639 52.2707 18.0943 53.8398 16.9026 55.1078C16.8447 55.1666 16.7868 55.2254 16.7272 55.286C16.6709 55.3433 16.6145 55.4006 16.5565 55.4596C15.2747 56.6868 13.6349 57.1184 11.9 57.0863C10.5268 57.0324 9.22982 56.5007 8.2087 55.5823C8.16372 55.5477 8.11875 55.5132 8.07241 55.4775C7.00619 54.6507 6.32168 53.1543 6.09064 51.8531C6.0572 51.5522 6.05232 51.2596 6.05592 50.9573C6.05625 50.9031 6.05659 50.8489 6.05693 50.7931C6.05779 50.6611 6.05912 50.5291 6.06055 50.3971C6.31721 50.3238 6.31721 50.3238 6.57907 50.249C6.58161 50.2903 6.58416 50.3316 6.58679 50.3741C6.69902 52.0681 7.12651 53.4876 8.37449 54.7073C9.52394 55.6964 11.0056 56.1267 12.505 56.0267C13.6029 55.8861 14.5356 55.4569 15.3939 54.7675C15.4559 54.7209 15.5178 54.6743 15.5817 54.6263C16.41 53.9226 16.9559 52.7765 17.1717 51.7304C17.1969 51.609 17.1969 51.609 17.2226 51.4851C17.3633 49.8247 16.9273 48.3806 15.8661 47.0916C14.9843 46.1398 13.6558 45.4949 12.3593 45.4217C11.8642 45.4095 11.3703 45.4186 10.8754 45.4341C10.8754 45.2141 10.8754 44.9941 10.8754 44.7675C12.6198 43.9498 15.1096 44.9175 16.4535 46.0661Z" fill="#191919"/>
<path d="M0.0605469 42.6193C0.380666 42.6631 0.605383 42.7784 0.882306 42.9422C0.925226 42.9675 0.968146 42.9927 1.01237 43.0187C1.15221 43.1011 1.29157 43.1842 1.43092 43.2675C1.52838 43.3252 1.62586 43.3829 1.72336 43.4406C2.53393 43.9213 3.33659 44.4144 4.13462 44.9156C4.42005 45.0947 4.70554 45.2738 4.9911 45.4527C5.06408 45.4984 5.13705 45.5442 5.21224 45.5914C5.75696 45.932 6.30561 46.2658 6.85566 46.5977C8.22287 47.4234 9.5305 48.2715 10.7096 49.356C10.8658 49.4994 11.0248 49.6385 11.1855 49.7767C11.3811 49.9484 11.575 50.1213 11.7643 50.2999C11.807 50.3399 11.8498 50.3799 11.8939 50.4211C11.9865 50.5453 11.9865 50.5453 11.9865 50.8416C11.4978 50.6917 11.0395 50.5026 10.5791 50.2814C10.5114 50.2489 10.4437 50.2164 10.374 50.183C8.91624 49.4728 7.61082 48.5632 6.33948 47.5629C5.4107 46.8323 4.46543 46.1233 3.5127 45.4243C3.02283 45.0645 2.54011 44.6965 2.06055 44.323C1.94992 44.2371 1.83929 44.1512 1.72866 44.0652C1.14914 43.6149 1.14914 43.6149 0.89171 43.4135C0.774692 43.3228 0.656831 43.2332 0.538411 43.1443C0.477348 43.0982 0.416285 43.052 0.353371 43.0045C0.297344 42.9626 0.241318 42.9208 0.183594 42.8776C0.142988 42.8413 0.102383 42.8049 0.0605469 42.7675C0.0605469 42.7186 0.0605469 42.6697 0.0605469 42.6193Z" fill="#191919"/>
<path d="M5.54203 40.1008C5.63599 40.1604 5.63599 40.1604 5.73184 40.2212C6.15634 40.6348 6.30846 41.0199 6.33369 41.6147C6.31208 42.2133 6.14315 42.6219 5.71159 43.0377C5.28908 43.3685 4.81478 43.48 4.28277 43.4341C3.76252 43.3307 3.36398 43.103 3.02351 42.6934C2.72205 42.1797 2.63146 41.675 2.77351 41.0979C2.95805 40.5525 3.26643 40.2118 3.77409 39.9431C4.3561 39.7105 5.01319 39.7608 5.54203 40.1008Z" fill="#191919"/>
<path d="M54.3568 55.3601C54.5768 55.3601 54.7968 55.3601 55.0235 55.3601C55.048 55.9712 55.0724 56.5823 55.0976 57.2119C55.3176 57.0286 55.3176 57.0286 55.542 56.8416C55.9972 56.6898 56.6051 56.679 57.0646 56.8294C57.5108 57.0881 57.8093 57.496 58.0143 57.9619C58.1324 58.6945 58.1475 59.4428 57.7643 60.1008C57.4484 60.4593 57.1084 60.7444 56.6242 60.7924C56.0667 60.798 55.6503 60.7871 55.1717 60.4712C55.1472 60.4467 55.1228 60.4223 55.0976 60.3971C55.0731 60.4949 55.0487 60.5927 55.0235 60.6934C54.8035 60.6934 54.5835 60.6934 54.3568 60.6934C54.3568 58.9334 54.3568 57.1734 54.3568 55.3601ZM55.0235 57.8786C54.9818 58.167 54.9858 58.4579 54.9818 58.749C54.9782 58.8294 54.9745 58.9098 54.9707 58.9926C54.9578 59.4269 54.9578 59.4269 55.1341 59.8096C55.503 60.1347 55.8362 60.2013 56.3195 60.1957C56.6717 60.1562 56.865 59.956 57.1161 59.7258C57.3655 59.3072 57.4374 58.8218 57.3568 58.3416C57.2482 57.9485 57.0084 57.6352 56.6607 57.422C56.027 57.17 55.4771 57.425 55.0235 57.8786Z" fill="#191919"/>
<path d="M95.3152 56.7351C95.3934 56.736 95.3934 56.736 95.4731 56.7369C95.9653 56.753 96.2733 56.8486 96.6309 57.1807C97.1446 57.733 97.1717 58.1365 97.1717 58.9156C96.145 58.9156 95.1183 58.9156 94.0605 58.9156C94.364 59.709 94.364 59.709 95.005 60.1286C95.4874 60.2214 95.9024 60.1781 96.3198 59.911C96.3664 59.8773 96.413 59.8436 96.461 59.8089C96.5791 59.7304 96.5791 59.7304 96.7272 59.7304C96.8522 59.8601 96.8522 59.8601 96.9494 60.0267C96.9364 60.1729 96.9364 60.1729 96.8754 60.323C96.7463 60.4304 96.7463 60.4304 96.5883 60.5221C96.5366 60.5529 96.4848 60.5838 96.4315 60.6156C95.9162 60.8852 95.1506 60.842 94.5883 60.722C94.073 60.519 93.7396 60.1207 93.4925 59.6364C93.3874 59.342 93.3568 59.0855 93.3615 58.7767C93.3621 58.7248 93.3627 58.6728 93.3633 58.6192C93.3847 57.9626 93.5985 57.559 94.055 57.1014C94.4477 56.816 94.8377 56.7278 95.3152 56.7351ZM94.3707 57.7119C94.1718 57.9807 94.1718 57.9807 94.0605 58.4712C94.8672 58.4712 95.6739 58.4712 96.505 58.4712C96.4316 57.9577 96.4137 57.846 96.0605 57.5082C95.4365 57.1678 94.8918 57.2024 94.3707 57.7119Z" fill="#191919"/>
<path d="M44.6485 56.7351C44.7267 56.736 44.7267 56.736 44.8065 56.7369C45.2986 56.753 45.6067 56.8486 45.9642 57.1807C46.4779 57.733 46.505 58.1365 46.505 58.9156C45.4783 58.9156 44.4517 58.9156 43.3939 58.9156C43.6973 59.709 43.6973 59.709 44.3383 60.1286C44.8207 60.2214 45.2357 60.1781 45.6531 59.911C45.6997 59.8773 45.7463 59.8436 45.7943 59.8089C45.9124 59.7304 45.9124 59.7304 46.0605 59.7304C46.1855 59.8601 46.1855 59.8601 46.2828 60.0267C46.2697 60.1729 46.2697 60.1729 46.2087 60.323C46.0796 60.4304 46.0796 60.4304 45.9217 60.5221C45.8699 60.5529 45.8181 60.5838 45.7648 60.6156C45.2496 60.8852 44.484 60.842 43.9217 60.722C43.4063 60.519 43.073 60.1207 42.8259 59.6364C42.7208 59.342 42.6901 59.0855 42.6948 58.7767C42.6954 58.7248 42.696 58.6728 42.6967 58.6192C42.718 57.9626 42.9319 57.559 43.3884 57.1014C43.781 56.816 44.171 56.7278 44.6485 56.7351ZM43.7041 57.7119C43.5051 57.9807 43.5051 57.9807 43.3939 58.4712C44.2005 58.4712 45.0072 58.4712 45.8383 58.4712C45.765 57.9577 45.747 57.846 45.3939 57.5082C44.7698 57.1678 44.2252 57.2024 43.7041 57.7119Z" fill="#191919"/>
<path d="M83.0096 56.8832C83.2725 57.0632 83.4277 57.2866 83.542 57.5823C83.5796 57.8271 83.5767 58.0662 83.571 58.3135C83.5705 58.3818 83.5701 58.4501 83.5697 58.5205C83.568 58.7371 83.5643 58.9537 83.5605 59.1703C83.5591 59.3178 83.5577 59.4653 83.5565 59.6128C83.5532 59.9731 83.5481 60.3332 83.542 60.6934C83.322 60.6934 83.102 60.6934 82.8754 60.6934C82.8509 60.6201 82.8265 60.5467 82.8013 60.4712C82.7249 60.5201 82.6485 60.569 82.5698 60.6193C82.1311 60.8395 81.6506 60.8291 81.1717 60.7675C80.8284 60.6228 80.6027 60.4559 80.3568 60.1749C80.2179 59.758 80.1872 59.2327 80.3499 58.819C80.549 58.5216 80.7641 58.3859 81.0976 58.249C81.729 58.1726 82.2638 58.1943 82.8013 58.5453C82.8502 58.0509 82.8502 58.0509 82.6624 57.6147C82.2907 57.3633 81.9058 57.3826 81.468 57.4341C81.2901 57.5148 81.1495 57.6043 80.9954 57.7235C80.8754 57.8045 80.8754 57.8045 80.6531 57.8045C80.5281 57.6564 80.5281 57.6564 80.4309 57.5082C80.534 57.2577 80.6385 57.1499 80.8707 57.0128C80.9474 56.9666 80.9474 56.9666 81.0255 56.9194C81.5383 56.6463 82.4725 56.6443 83.0096 56.8832ZM81.0281 59.0406C80.911 59.2956 80.8917 59.5332 80.9494 59.8045C81.1554 60.0752 81.3569 60.2473 81.6902 60.323C82.1473 60.3298 82.4457 60.2371 82.8013 59.9527C82.9236 59.8304 82.8967 59.6901 82.9031 59.5221C82.9012 59.2073 82.9012 59.2073 82.718 58.9527C82.1153 58.6382 81.5788 58.561 81.0281 59.0406Z" fill="#191919"/>
<path d="M52.6393 56.8832C52.9021 57.0632 53.0574 57.2866 53.1717 57.5823C53.2093 57.8271 53.2064 58.0662 53.2006 58.3135C53.2002 58.3818 53.1998 58.4501 53.1993 58.5205C53.1977 58.7371 53.194 58.9537 53.1902 59.1703C53.1887 59.3178 53.1873 59.4653 53.1861 59.6128C53.1829 59.9731 53.1778 60.3332 53.1717 60.6934C52.9517 60.6934 52.7317 60.6934 52.505 60.6934C52.4805 60.6201 52.4561 60.5467 52.4309 60.4712C52.3545 60.5201 52.2781 60.569 52.1994 60.6193C51.7608 60.8395 51.2802 60.8291 50.8013 60.7675C50.458 60.6228 50.2324 60.4559 49.9865 60.1749C49.8475 59.758 49.8169 59.2327 49.9795 58.819C50.1786 58.5216 50.3937 58.3859 50.7272 58.249C51.3586 58.1726 51.8935 58.1943 52.4309 58.5453C52.4798 58.0509 52.4798 58.0509 52.292 57.6147C51.9203 57.3633 51.5355 57.3826 51.0976 57.4341C50.9197 57.5148 50.7791 57.6043 50.6251 57.7235C50.505 57.8045 50.505 57.8045 50.2828 57.8045C50.1578 57.6564 50.1578 57.6564 50.0605 57.5082C50.1637 57.2577 50.2681 57.1499 50.5004 57.0128C50.577 56.9666 50.577 56.9666 50.6552 56.9194C51.1679 56.6463 52.1022 56.6443 52.6393 56.8832ZM50.6578 59.0406C50.5406 59.2956 50.5214 59.5332 50.5791 59.8045C50.785 60.0752 50.9865 60.2473 51.3198 60.323C51.7769 60.3298 52.0754 60.2371 52.4309 59.9527C52.5532 59.8304 52.5264 59.6901 52.5328 59.5221C52.5309 59.2073 52.5309 59.2073 52.3476 58.9527C51.7449 58.6382 51.2085 58.561 50.6578 59.0406Z" fill="#191919"/>
<path d="M66.1346 56.8416C66.3791 56.8416 66.6235 56.8416 66.8754 56.8416C67.173 57.4015 67.3985 57.9884 67.63 58.5777C67.6905 58.7315 67.7511 58.8853 67.8119 59.039C67.8666 59.177 67.9209 59.3152 67.9752 59.4534C68.0414 59.6465 68.0414 59.6465 68.1346 59.7304C68.5257 58.7771 68.9168 57.8238 69.3198 56.8416C69.5643 56.8416 69.8087 56.8416 70.0605 56.8416C70.0087 57.2198 69.8541 57.5522 69.7058 57.9006C69.6775 57.9678 69.6493 58.035 69.6202 58.1042C69.5296 58.3192 69.4386 58.5341 69.3476 58.749C69.2585 58.96 69.1696 59.171 69.0807 59.3821C69.0222 59.5207 68.9636 59.6593 68.9049 59.7978C68.7689 60.119 68.6349 60.4407 68.5071 60.7653C68.4844 60.8224 68.4617 60.8795 68.4383 60.9383C68.3969 61.0431 68.3561 61.1481 68.3162 61.2534C68.1636 61.6378 67.9636 61.9567 67.6242 62.2021C67.4021 62.2687 67.1991 62.2628 66.968 62.2582C66.8813 62.2569 66.7946 62.2555 66.7052 62.2542C66.6391 62.2524 66.5731 62.2507 66.505 62.249C66.5294 62.029 66.5539 61.809 66.5791 61.5823C66.6845 61.5884 66.7899 61.5945 66.8985 61.6008C67.1646 61.6053 67.1646 61.6053 67.3846 61.4712C67.4121 61.4101 67.4396 61.349 67.468 61.286C67.5125 61.2014 67.5571 61.1168 67.603 61.0297C67.7622 60.5974 67.5706 60.2672 67.3904 59.8682C67.3574 59.7908 67.3244 59.7134 67.2903 59.6337C67.1847 59.3873 67.0764 59.1422 66.968 58.8971C66.8612 58.6507 66.7549 58.404 66.6487 58.1573C66.5826 58.0041 66.5159 57.8511 66.4487 57.6983C66.4183 57.6291 66.3879 57.5598 66.3566 57.4885C66.3164 57.3974 66.3164 57.3974 66.2753 57.3045C66.2087 57.1378 66.2087 57.1378 66.1346 56.8416Z" fill="#191919"/>
<path d="M8.82444 43.1888C9.13231 43.4537 9.44953 43.7367 9.48561 44.1596C9.49696 44.679 9.49769 45.02 9.17166 45.4341C8.77493 45.8105 8.41763 45.914 7.88028 45.902C7.48049 45.8527 7.19628 45.6862 6.92166 45.3971C6.623 44.9376 6.60774 44.5715 6.65314 44.0267C6.78171 43.6183 7.04981 43.3774 7.39388 43.1378C7.85588 42.9017 8.37159 42.9581 8.82444 43.1888Z" fill="#191919"/>
<path d="M32.2828 56.8416C32.5028 56.8416 32.7228 56.8416 32.9494 56.8416C32.9497 56.9271 32.95 57.0127 32.9504 57.1009C32.952 57.4191 32.956 57.7373 32.9607 58.0555C32.9625 58.1931 32.9635 58.3306 32.9639 58.4682C32.9646 58.6663 32.9676 58.8643 32.9711 59.0623C32.9708 59.1236 32.9706 59.1849 32.9703 59.248C32.9783 59.5687 32.995 59.6944 33.2006 59.9546C33.4685 60.1572 33.63 60.1444 33.9541 60.128C34.2898 60.0774 34.5242 59.9152 34.8013 59.7304C34.8263 59.5102 34.8375 59.3047 34.8392 59.084C34.8405 59.0201 34.8419 58.9562 34.8432 58.8904C34.8472 58.6858 34.8497 58.4813 34.8522 58.2767C34.8547 58.1382 34.8572 57.9997 34.8599 57.8612C34.8662 57.5213 34.8711 57.1815 34.8754 56.8416C35.0954 56.8416 35.3154 56.8416 35.542 56.8416C35.542 58.1127 35.542 59.3838 35.542 60.6934C35.322 60.6934 35.102 60.6934 34.8754 60.6934C34.8387 60.5467 34.8387 60.5467 34.8013 60.3971C34.7404 60.4372 34.7404 60.4372 34.6783 60.4781C34.126 60.8015 33.5816 60.8693 32.9494 60.7675C32.6213 60.5944 32.435 60.4386 32.2828 60.1008C32.2528 59.8508 32.2569 59.6032 32.2611 59.3517C32.2614 59.2799 32.2617 59.208 32.262 59.134C32.2633 58.9054 32.266 58.6767 32.2689 58.448C32.27 58.2927 32.271 58.1374 32.2719 57.982C32.2744 57.6019 32.2782 57.2217 32.2828 56.8416Z" fill="#191919"/>
<path d="M91.1948 56.7443C91.2908 56.7416 91.3867 56.7388 91.4856 56.7359C91.8682 56.7792 92.0876 56.9162 92.331 57.2128C92.477 57.5362 92.4584 57.8326 92.4526 58.1833C92.4523 58.2551 92.452 58.3269 92.4517 58.4009C92.4504 58.6296 92.4476 58.8582 92.4448 59.0869C92.4437 59.2423 92.4427 59.3976 92.4418 59.5529C92.4393 59.9331 92.4355 60.3132 92.4309 60.6934C92.2354 60.6934 92.0398 60.6934 91.8383 60.6934C91.8361 60.583 91.8361 60.583 91.8339 60.4704C91.8282 60.1956 91.8216 59.9207 91.8148 59.6459C91.812 59.5273 91.8094 59.4086 91.8071 59.29C91.8037 59.1188 91.7994 58.9476 91.7949 58.7764C91.7941 58.724 91.7932 58.6716 91.7923 58.6176C91.7809 58.2261 91.7622 57.8087 91.4807 57.5152C91.1862 57.3669 90.8995 57.381 90.5791 57.4341C90.3323 57.5464 90.105 57.686 89.9124 57.8786C89.9005 58.0867 89.8932 58.2932 89.889 58.5016C89.8874 58.5639 89.8859 58.6263 89.8843 58.6906C89.8794 58.8906 89.8751 59.0906 89.8707 59.2906C89.8675 59.4259 89.8643 59.5612 89.861 59.6964C89.8531 60.0288 89.8456 60.3611 89.8383 60.6934C89.6183 60.6934 89.3983 60.6934 89.1717 60.6934C89.1717 59.4223 89.1717 58.1512 89.1717 56.8416C89.3917 56.8416 89.6117 56.8416 89.8383 56.8416C89.8383 56.9638 89.8383 57.086 89.8383 57.2119C89.8785 57.186 89.9187 57.1602 89.9601 57.1335C90.0396 57.0829 90.0396 57.0829 90.1207 57.0314C90.1732 56.9979 90.2256 56.9643 90.2796 56.9298C90.5825 56.7532 90.8499 56.7508 91.1948 56.7443Z" fill="#191919"/>
<path d="M86.7504 56.7443C86.8463 56.7416 86.9423 56.7388 87.0412 56.7359C87.4238 56.7792 87.6431 56.9162 87.8865 57.2128C88.0325 57.5362 88.014 57.8326 88.0082 58.1833C88.0079 58.2551 88.0076 58.3269 88.0072 58.4009C88.006 58.6296 88.0032 58.8582 88.0004 59.0869C87.9992 59.2423 87.9982 59.3976 87.9973 59.5529C87.9949 59.9331 87.991 60.3132 87.9865 60.6934C87.7909 60.6934 87.5954 60.6934 87.3939 60.6934C87.3917 60.583 87.3917 60.583 87.3894 60.4704C87.3838 60.1956 87.3772 59.9207 87.3704 59.6459C87.3675 59.5273 87.365 59.4086 87.3626 59.29C87.3592 59.1188 87.3549 58.9476 87.3505 58.7764C87.3496 58.724 87.3488 58.6716 87.3479 58.6176C87.3364 58.2261 87.3177 57.8087 87.0362 57.5152C86.7417 57.3669 86.4551 57.381 86.1346 57.4341C85.8879 57.5464 85.6605 57.686 85.468 57.8786C85.4561 58.0867 85.4487 58.2932 85.4445 58.5016C85.443 58.5639 85.4414 58.6263 85.4398 58.6906C85.435 58.8906 85.4306 59.0906 85.4263 59.2906C85.4231 59.4259 85.4199 59.5612 85.4166 59.6964C85.4086 60.0288 85.4011 60.3611 85.3939 60.6934C85.1739 60.6934 84.9539 60.6934 84.7272 60.6934C84.7272 59.4223 84.7272 58.1512 84.7272 56.8416C84.9472 56.8416 85.1672 56.8416 85.3939 56.8416C85.3939 56.9638 85.3939 57.086 85.3939 57.2119C85.4341 57.186 85.4743 57.1602 85.5157 57.1335C85.5952 57.0829 85.5952 57.0829 85.6763 57.0314C85.7287 56.9979 85.7811 56.9643 85.8351 56.9298C86.138 56.7532 86.4055 56.7508 86.7504 56.7443Z" fill="#191919"/>
<path d="M40.5281 56.7443C40.6241 56.7416 40.7201 56.7388 40.8189 56.7359C41.2015 56.7792 41.4209 56.9162 41.6643 57.2128C41.8103 57.5362 41.7917 57.8326 41.786 58.1833C41.7856 58.2551 41.7853 58.3269 41.785 58.4009C41.7838 58.6296 41.781 58.8582 41.7781 59.0869C41.777 59.2423 41.776 59.3976 41.7751 59.5529C41.7727 59.9331 41.7688 60.3132 41.7643 60.6934C41.5687 60.6934 41.3731 60.6934 41.1717 60.6934C41.1695 60.583 41.1695 60.583 41.1672 60.4704C41.1615 60.1956 41.155 59.9207 41.1481 59.6459C41.1453 59.5273 41.1427 59.4086 41.1404 59.29C41.137 59.1188 41.1327 58.9476 41.1283 58.7764C41.1274 58.724 41.1265 58.6716 41.1257 58.6176C41.1142 58.2261 41.0955 57.8087 40.814 57.5152C40.5195 57.3669 40.2329 57.381 39.9124 57.4341C39.6657 57.5464 39.4383 57.686 39.2457 57.8786C39.2339 58.0867 39.2265 58.2932 39.2223 58.5016C39.2208 58.5639 39.2192 58.6263 39.2176 58.6906C39.2128 58.8906 39.2084 59.0906 39.2041 59.2906C39.2009 59.4259 39.1976 59.5612 39.1944 59.6964C39.1864 60.0288 39.1789 60.3611 39.1717 60.6934C38.9517 60.6934 38.7317 60.6934 38.505 60.6934C38.505 59.4223 38.505 58.1512 38.505 56.8416C38.725 56.8416 38.945 56.8416 39.1717 56.8416C39.1717 56.9638 39.1717 57.086 39.1717 57.2119C39.2119 57.186 39.2521 57.1602 39.2935 57.1335C39.373 57.0829 39.373 57.0829 39.4541 57.0314C39.5065 56.9979 39.5589 56.9643 39.6129 56.9298C39.9158 56.7532 40.1833 56.7508 40.5281 56.7443Z" fill="#191919"/>
<path d="M73.9402 56.7351C73.996 56.7354 74.0517 56.7358 74.1092 56.7361C74.5338 56.7475 74.8154 56.8216 75.1717 57.0638C75.245 57.1127 75.3183 57.1616 75.3939 57.2119C75.3537 57.4931 75.2308 57.6173 75.0235 57.8045C74.97 57.7587 74.9166 57.7128 74.8615 57.6656C74.4891 57.3842 74.1565 57.3018 73.6902 57.3601C73.4356 57.4348 73.4356 57.4348 73.2457 57.5823C73.174 57.7737 73.174 57.7737 73.1717 57.9527C73.4422 58.199 73.7345 58.2611 74.0791 58.3508C75.1473 58.6474 75.1473 58.6474 75.4063 59.0502C75.5591 59.451 75.5256 59.8946 75.3568 60.2814C74.9262 60.7228 74.545 60.7972 73.9541 60.8045C73.3304 60.7988 72.8371 60.6666 72.3568 60.249C72.4647 59.9074 72.4647 59.9074 72.6404 59.7817C72.8013 59.7304 72.8013 59.7304 72.9494 59.7944C73.0228 59.8475 73.0228 59.8475 73.0976 59.9017C73.4778 60.1728 73.8172 60.2132 74.2828 60.1749C74.5323 60.1084 74.5323 60.1084 74.7272 60.0267C74.7839 59.7782 74.7839 59.7782 74.8013 59.5082C74.6338 59.2634 74.4062 59.2192 74.13 59.1425C72.8661 58.7715 72.8661 58.7715 72.5791 58.3971C72.432 58.1029 72.4652 57.754 72.505 57.4341C72.7754 56.8514 73.359 56.7272 73.9402 56.7351Z" fill="#191919"/>
<path d="M27.7643 56.8416C28.0087 56.8416 28.2531 56.8416 28.505 56.8416C28.8026 57.4015 29.0282 57.9884 29.2596 58.5777C29.3201 58.7315 29.3807 58.8853 29.4416 59.039C29.4962 59.177 29.5505 59.3152 29.6049 59.4534C29.671 59.6465 29.671 59.6465 29.7643 59.7304C30.1554 58.7771 30.5465 57.8238 30.9494 56.8416C31.1939 56.8416 31.4383 56.8416 31.6902 56.8416C31.6453 57.0981 31.5792 57.3251 31.4797 57.5656C31.4378 57.6675 31.4378 57.6675 31.395 57.7715C31.3649 57.8439 31.3347 57.9163 31.3036 57.9909C31.2726 58.0658 31.2417 58.1407 31.2098 58.2179C31.1444 58.3759 31.0789 58.5338 31.0133 58.6916C30.9124 58.9341 30.8121 59.1769 30.7119 59.4197C30.6483 59.573 30.5848 59.7264 30.5212 59.8797C30.491 59.9527 30.4609 60.0257 30.4298 60.1009C30.4018 60.1679 30.3739 60.235 30.3451 60.304C30.3205 60.3633 30.2959 60.4225 30.2705 60.4836C30.2087 60.6193 30.2087 60.6193 30.1346 60.6934C29.9974 60.6988 29.8599 60.6996 29.7226 60.698C29.6476 60.6974 29.5727 60.6967 29.4954 60.696C29.4085 60.6947 29.4085 60.6947 29.3198 60.6934C29.1099 60.1926 28.9003 59.6916 28.6909 59.1906C28.6196 59.0201 28.5483 58.8497 28.4769 58.6793C28.3743 58.4345 28.2719 58.1895 28.1696 57.9446C28.1376 57.8683 28.1056 57.7921 28.0726 57.7135C28.0429 57.6424 28.0133 57.5712 27.9827 57.4979C27.9566 57.4354 27.9304 57.3729 27.9035 57.3085C27.8383 57.1378 27.8383 57.1378 27.7643 56.8416Z" fill="#191919"/>
<path d="M78.2041 56.7351C78.2561 56.7355 78.3081 56.736 78.3617 56.7364C78.8845 56.7522 79.1896 56.8799 79.5791 57.2304C79.6157 57.2732 79.6524 57.316 79.6902 57.3601C79.6089 57.5818 79.566 57.645 79.3476 57.749C79.2895 57.7673 79.2315 57.7856 79.1717 57.8045C79.1151 57.7572 79.0586 57.7098 79.0004 57.661C78.6569 57.3974 78.3297 57.3948 77.9124 57.4341C77.4969 57.5831 77.2945 57.8117 77.0791 58.1888C76.9449 58.6919 76.9708 59.1501 77.2301 59.6052C77.4157 59.8643 77.6135 60.0012 77.9124 60.1008C78.4041 60.1589 78.6881 60.0748 79.0976 59.8045C79.1709 59.7801 79.2442 59.7556 79.3198 59.7304C79.5189 59.874 79.5189 59.874 79.6902 60.0267C79.5585 60.362 79.3277 60.541 79.0102 60.7003C78.5142 60.8597 77.7636 60.8712 77.2828 60.661C76.8015 60.3605 76.42 59.911 76.2828 59.3601C76.2173 58.6252 76.2202 57.9604 76.696 57.3609C77.1182 56.9016 77.5793 56.7258 78.2041 56.7351Z" fill="#191919"/>
<path d="M64.4309 55.7304C64.6509 55.7304 64.8709 55.7304 65.0976 55.7304C65.0976 56.0727 65.0976 56.4149 65.0976 56.7675C65.3665 56.7675 65.6354 56.7675 65.9124 56.7675C65.9124 56.9875 65.9124 57.2075 65.9124 57.4341C65.6435 57.4341 65.3746 57.4341 65.0976 57.4341C65.1045 57.7663 65.1124 58.0985 65.1211 58.4306C65.1239 58.5435 65.1265 58.6565 65.1288 58.7694C65.1322 58.932 65.1365 59.0945 65.141 59.2571C65.1418 59.3074 65.1427 59.3577 65.1436 59.4095C65.1518 59.6755 65.1761 59.8739 65.3198 60.1008C65.5154 60.0764 65.7109 60.0519 65.9124 60.0267C65.9857 60.1978 66.0591 60.369 66.1346 60.5453C65.8172 60.8371 65.517 60.808 65.1037 60.7987C64.8754 60.7675 64.8754 60.7675 64.6346 60.6008C64.406 60.2415 64.4209 59.9052 64.4237 59.4885C64.4238 59.4298 64.4239 59.371 64.424 59.3105C64.4244 59.1233 64.4253 58.9361 64.4263 58.749C64.4267 58.6218 64.427 58.4947 64.4273 58.3676C64.4281 58.0564 64.4294 57.7453 64.4309 57.4341C64.2354 57.4341 64.0398 57.4341 63.8383 57.4341C63.8383 57.2141 63.8383 56.9941 63.8383 56.7675C64.0339 56.7675 64.2294 56.7675 64.4309 56.7675C64.4309 56.4253 64.4309 56.083 64.4309 55.7304Z" fill="#191919"/>
<path d="M60.8013 55.3601C61.0213 55.3601 61.2413 55.3601 61.468 55.3601C61.468 57.1201 61.468 58.8801 61.468 60.6934C61.248 60.6934 61.028 60.6934 60.8013 60.6934C60.8013 58.9334 60.8013 57.1734 60.8013 55.3601Z" fill="#191919"/>
<path d="M36.7272 55.3601C36.9472 55.3601 37.1672 55.3601 37.3939 55.3601C37.3939 57.1201 37.3939 58.8801 37.3939 60.6934C37.1739 60.6934 36.9539 60.6934 36.7272 60.6934C36.7272 58.9334 36.7272 57.1734 36.7272 55.3601Z" fill="#191919"/>
<path d="M2.72721 45.8786C3.1063 46.0752 3.33292 46.2883 3.46795 46.6934C3.51144 47.1456 3.42829 47.3698 3.17166 47.7304C2.88784 47.9971 2.56259 47.9988 2.18873 47.9883C1.85834 47.9301 1.66915 47.7701 1.46795 47.5082C1.28943 47.166 1.28039 46.8364 1.39388 46.4712C1.70972 45.9361 2.13537 45.7943 2.72721 45.8786Z" fill="#191919"/>
<path d="M100.061 56.7675C100.061 56.9875 100.061 57.2075 100.061 57.4341C100.011 57.4423 99.9622 57.4504 99.9115 57.4587C99.3986 57.5494 99.3986 57.5494 98.9494 57.8045C98.8302 58.043 98.8574 58.3044 98.8519 58.5667C98.8504 58.6273 98.8488 58.6879 98.8473 58.7504C98.8424 58.9443 98.8381 59.1383 98.8337 59.3323C98.8305 59.4637 98.8273 59.595 98.824 59.7264C98.8161 60.0487 98.8086 60.3711 98.8013 60.6934C98.5813 60.6934 98.3613 60.6934 98.1346 60.6934C98.1346 59.4223 98.1346 58.1512 98.1346 56.8416C98.3546 56.8416 98.5746 56.8416 98.8013 56.8416C98.8257 56.9638 98.8502 57.086 98.8754 57.2119C98.9304 57.1661 98.9854 57.1203 99.042 57.073C99.4013 56.7954 99.5996 56.7498 100.061 56.7675Z" fill="#191919"/>
<path d="M49.3939 56.7675C49.3939 56.9875 49.3939 57.2075 49.3939 57.4341C49.3447 57.4423 49.2955 57.4504 49.2449 57.4587C48.7319 57.5494 48.7319 57.5494 48.2828 57.8045C48.1635 58.043 48.1907 58.3044 48.1853 58.5667C48.1837 58.6273 48.1822 58.6879 48.1806 58.7504C48.1757 58.9443 48.1714 59.1383 48.167 59.3323C48.1638 59.4637 48.1606 59.595 48.1573 59.7264C48.1494 60.0487 48.1419 60.3711 48.1346 60.6934C47.9146 60.6934 47.6946 60.6934 47.468 60.6934C47.468 59.4223 47.468 58.1512 47.468 56.8416C47.688 56.8416 47.908 56.8416 48.1346 56.8416C48.1591 56.9638 48.1835 57.086 48.2087 57.2119C48.2637 57.1661 48.3187 57.1203 48.3754 57.073C48.7347 56.7954 48.933 56.7498 49.3939 56.7675Z" fill="#191919"/>
<path d="M62.5791 56.8416C62.7991 56.8416 63.0191 56.8416 63.2457 56.8416C63.2457 58.1127 63.2457 59.3838 63.2457 60.6934C63.0257 60.6934 62.8057 60.6934 62.5791 60.6934C62.5791 59.4223 62.5791 58.1512 62.5791 56.8416Z" fill="#191919"/>
<path d="M58.9494 56.8416C59.1694 56.8416 59.3894 56.8416 59.6161 56.8416C59.6161 58.1127 59.6161 59.3838 59.6161 60.6934C59.3961 60.6934 59.1761 60.6934 58.9494 60.6934C58.9494 59.4223 58.9494 58.1512 58.9494 56.8416Z" fill="#191919"/>
<path d="M62.9124 55.4156C63.1717 55.4341 63.1717 55.4341 63.3198 55.5823C63.3383 55.8416 63.3383 55.8416 63.3198 56.1008C63.1717 56.249 63.1717 56.249 62.9124 56.2675C62.6531 56.249 62.6531 56.249 62.505 56.1008C62.4865 55.8416 62.4865 55.8416 62.505 55.5823C62.6531 55.4341 62.6531 55.4341 62.9124 55.4156Z" fill="#191919"/>
<path d="M59.2828 55.4156C59.542 55.4341 59.542 55.4341 59.6902 55.5823C59.7087 55.8416 59.7087 55.8416 59.6902 56.1008C59.542 56.249 59.542 56.249 59.2828 56.2675C59.0235 56.249 59.0235 56.249 58.8754 56.1008C58.8568 55.8416 58.8568 55.8416 58.8754 55.5823C59.0235 55.4341 59.0235 55.4341 59.2828 55.4156Z" fill="#191919"/>
</g>
<defs>
<clipPath id="clip0_2377_7928">
<rect width="100" height="100" fill="white" transform="translate(0.0605469 0.665771)"/>
</clipPath>
</defs>
</svg>
