<svg width="101" height="101" viewBox="0 0 101 101" fill="none" xmlns="http://www.w3.org/2000/svg">
<g clip-path="url(#clip0_2377_7977)">
<path d="M89.1169 54.9275V38.4721H92.4668V52.1321H100.796V54.9275H89.1169Z" fill="white"/>
<path d="M72.7181 49.5291L75.9775 49.2122C76.1736 50.3062 76.5697 51.1097 77.1658 51.6228C77.7694 52.1359 78.5805 52.3924 79.599 52.3924C80.6779 52.3924 81.489 52.166 82.0322 51.7133C82.583 51.2531 82.8584 50.7174 82.8584 50.1063C82.8584 49.7139 82.7415 49.382 82.5076 49.1103C82.2812 48.8312 81.8813 48.5898 81.3079 48.386C80.9156 48.2502 80.0215 48.0088 78.6257 47.6617C76.83 47.2166 75.57 46.6696 74.8457 46.0207C73.8272 45.1078 73.3179 43.9949 73.3179 42.6821C73.3179 41.8371 73.5555 41.0486 74.0309 40.3168C74.5138 39.5774 75.2041 39.0153 76.102 38.6305C77.0073 38.2457 78.0976 38.0533 79.3727 38.0533C81.4551 38.0533 83.0206 38.5098 84.0694 39.4227C85.1256 40.3356 85.6802 41.5541 85.733 43.0782L82.3831 43.2253C82.2397 42.3728 81.9304 41.7616 81.4551 41.3919C80.9873 41.0147 80.2818 40.8261 79.3387 40.8261C78.3654 40.8261 77.6034 41.026 77.0526 41.4259C76.698 41.6824 76.5207 42.0257 76.5207 42.4558C76.5207 42.8481 76.6867 43.1838 77.0187 43.463C77.4412 43.8176 78.4673 44.1873 80.097 44.5721C81.7267 44.9569 82.9301 45.3568 83.7072 45.7717C84.4919 46.1792 85.103 46.7413 85.5406 47.458C85.9858 48.1672 86.2083 49.0462 86.2083 50.095C86.2083 51.0456 85.9443 51.9359 85.4161 52.7659C84.888 53.5958 84.141 54.2145 83.1753 54.6219C82.2095 55.0218 81.0061 55.2217 79.5651 55.2217C77.4676 55.2217 75.8567 54.7388 74.7326 53.7731C73.6084 52.7998 72.9369 51.3851 72.7181 49.5291Z" fill="white"/>
<path d="M57.2586 49.5291L60.518 49.2122C60.7141 50.3062 61.1103 51.1097 61.7063 51.6228C62.3099 52.1359 63.121 52.3924 64.1395 52.3924C65.2184 52.3924 66.0295 52.166 66.5728 51.7133C67.1235 51.2531 67.3989 50.7174 67.3989 50.1063C67.3989 49.7139 67.282 49.382 67.0481 49.1103C66.8217 48.8312 66.4219 48.5898 65.8484 48.386C65.4561 48.2502 64.562 48.0088 63.1662 47.6617C61.3706 47.2166 60.1106 46.6696 59.3862 46.0207C58.3677 45.1078 57.8584 43.9949 57.8584 42.6821C57.8584 41.8371 58.0961 41.0486 58.5714 40.3168C59.0543 39.5774 59.7446 39.0153 60.6425 38.6305C61.5479 38.2457 62.6381 38.0533 63.9132 38.0533C65.9956 38.0533 67.5611 38.5098 68.6099 39.4227C69.6662 40.3356 70.2207 41.5541 70.2735 43.0782L66.9236 43.2253C66.7802 42.3728 66.4709 41.7616 65.9956 41.3919C65.5278 41.0147 64.8223 40.8261 63.8792 40.8261C62.9059 40.8261 62.1439 41.026 61.5931 41.4259C61.2385 41.6824 61.0612 42.0257 61.0612 42.4558C61.0612 42.8481 61.2272 43.1838 61.5592 43.463C61.9817 43.8176 63.0078 44.1873 64.6375 44.5721C66.2672 44.9569 67.4706 45.3568 68.2477 45.7717C69.0324 46.1792 69.6435 46.7413 70.0811 47.458C70.5263 48.1672 70.7488 49.0462 70.7488 50.095C70.7488 51.0456 70.4848 51.9359 69.9566 52.7659C69.4285 53.5958 68.6815 54.2145 67.7158 54.6219C66.7501 55.0218 65.5466 55.2217 64.1056 55.2217C62.0081 55.2217 60.3973 54.7388 59.2731 53.7731C58.1489 52.7998 57.4774 51.3851 57.2586 49.5291Z" fill="white"/>
<path d="M45.0472 54.9275V42.9084H46.8806V44.6174C47.7633 43.297 49.0384 42.6368 50.7058 42.6368C51.4302 42.6368 52.0941 42.7689 52.6977 43.0329C53.3088 43.2895 53.7653 43.629 54.0671 44.0515C54.3689 44.474 54.5801 44.9757 54.7009 45.5567C54.7763 45.9339 54.814 46.5941 54.814 47.5372V54.9275H52.7769V47.6165C52.7769 46.7865 52.6977 46.1678 52.5393 45.7604C52.3808 45.3454 52.0979 45.0172 51.6905 44.7758C51.2906 44.5268 50.819 44.4023 50.2758 44.4023C49.4081 44.4023 48.6574 44.6777 48.0236 45.2285C47.3974 45.7793 47.0843 46.8242 47.0843 48.3634V54.9275H45.0472Z" fill="white"/>
<path d="M40.3731 51.0569L42.4781 51.3172C42.1462 52.547 41.5313 53.5015 40.6334 54.1805C39.7356 54.8596 38.5887 55.1991 37.1929 55.1991C35.435 55.1991 34.0392 54.6596 33.0055 53.5807C31.9794 52.4942 31.4664 50.9739 31.4664 49.0198C31.4664 46.9978 31.987 45.4284 33.0282 44.3118C34.0694 43.1952 35.4199 42.6368 37.0798 42.6368C38.6868 42.6368 39.9996 43.1838 41.0182 44.2778C42.0368 45.3719 42.546 46.911 42.546 48.8953C42.546 49.016 42.5423 49.1971 42.5347 49.4386H33.5714C33.6468 50.7589 34.0203 51.7699 34.6918 52.4716C35.3633 53.1733 36.2008 53.5241 37.2043 53.5241C37.9512 53.5241 38.5887 53.3279 39.1169 52.9356C39.645 52.5433 40.0638 51.917 40.3731 51.0569ZM33.6846 47.7636H40.3958C40.3052 46.7526 40.0487 45.9943 39.6262 45.4888C38.9773 44.7041 38.1361 44.3118 37.1024 44.3118C36.1668 44.3118 35.3784 44.6249 34.7371 45.2511C34.1033 45.8774 33.7525 46.7148 33.6846 47.7636Z" fill="white"/>
<path d="M19.2436 59.5336V42.9084H21.0997V44.4702C21.5373 43.8591 22.0315 43.4026 22.5823 43.1008C23.133 42.7915 23.8008 42.6368 24.5854 42.6368C25.6115 42.6368 26.5169 42.9009 27.3016 43.429C28.0863 43.9572 28.6785 44.7041 29.0784 45.6699C29.4783 46.6281 29.6782 47.6806 29.6782 48.8274C29.6782 50.0572 29.4557 51.1663 29.0105 52.1547C28.5729 53.1355 27.9316 53.89 27.0866 54.4182C26.2491 54.9388 25.3663 55.1991 24.4383 55.1991C23.7593 55.1991 23.1481 55.0557 22.6049 54.769C22.0692 54.4823 21.6278 54.1202 21.2808 53.6826V59.5336H19.2436ZM21.0884 48.9859C21.0884 50.5326 21.4015 51.6756 22.0277 52.415C22.6539 53.1544 23.4122 53.5241 24.3025 53.5241C25.2079 53.5241 25.9812 53.1431 26.6226 52.3811C27.2714 51.6115 27.5958 50.4232 27.5958 48.8161C27.5958 47.2845 27.279 46.1377 26.6452 45.3756C26.019 44.6136 25.2682 44.2326 24.393 44.2326C23.5254 44.2326 22.7558 44.64 22.0843 45.4548C21.4203 46.2622 21.0884 47.4392 21.0884 48.9859Z" fill="white"/>
<path d="M0.796387 46.8469C0.796387 44.093 1.53579 41.9389 3.01459 40.3847C4.49338 38.8229 6.40224 38.042 8.74116 38.042C10.2728 38.042 11.6535 38.4079 12.8833 39.1398C14.1131 39.8716 15.0487 40.894 15.69 42.2068C16.3389 43.512 16.6633 44.9946 16.6633 46.6545C16.6633 48.337 16.3238 49.8422 15.6447 51.1701C14.9657 52.498 14.0037 53.5052 12.7588 54.1918C11.5139 54.8709 10.1709 55.2104 8.72984 55.2104C7.16805 55.2104 5.77224 54.8332 4.54243 54.0787C3.31261 53.3242 2.38081 52.2943 1.74704 50.989C1.11327 49.6838 0.796387 48.303 0.796387 46.8469ZM3.05985 46.8808C3.05985 48.8802 3.59554 50.4571 4.66692 51.6115C5.74584 52.7583 7.09637 53.3317 8.71852 53.3317C10.3709 53.3317 11.7289 52.7508 12.7928 51.5888C13.8641 50.4269 14.3998 48.7784 14.3998 46.6432C14.3998 45.2926 14.1697 44.1156 13.7095 43.1122C13.2568 42.1011 12.5891 41.3202 11.7063 40.7695C10.8311 40.2111 9.84648 39.932 8.75248 39.932C7.19823 39.932 5.85901 40.4677 4.73482 41.539C3.61818 42.6029 3.05985 44.3835 3.05985 46.8808Z" fill="white"/>
<path d="M99.4568 61.8641L99.5197 62.2482C99.3973 62.274 99.2878 62.2869 99.1911 62.2869C99.0333 62.2869 98.9109 62.2619 98.8239 62.212C98.737 62.1621 98.6758 62.0968 98.6403 62.0163C98.6049 61.9342 98.5872 61.7627 98.5872 61.5018V60.0258H98.2683V59.6876H98.5872V59.0523L99.0196 58.7914V59.6876H99.4568V60.0258H99.0196V61.5259C99.0196 61.6499 99.0269 61.7296 99.0413 61.7651C99.0574 61.8005 99.0824 61.8287 99.1162 61.8496C99.1517 61.8706 99.2016 61.881 99.266 61.881C99.3143 61.881 99.3779 61.8754 99.4568 61.8641Z" fill="white"/>
<path d="M97.4083 59.2117V58.7116H97.8432V59.2117H97.4083ZM97.4083 62.253V59.6876H97.8432V62.253H97.4083Z" fill="white"/>
<path d="M94.9347 62.253V58.7116H95.3695V60.7312L96.3986 59.6876H96.9614L95.9807 60.6394L97.0605 62.253H96.5242L95.6763 60.9413L95.3695 61.236V62.253H94.9347Z" fill="white"/>
<path d="M93.821 62.253V58.7116H94.2559V62.253H93.821Z" fill="white"/>
<path d="M90.915 60.9703C90.915 60.4952 91.047 60.1433 91.3111 59.9147C91.5318 59.7246 91.8007 59.6296 92.118 59.6296C92.4707 59.6296 92.7589 59.7456 92.9828 59.9775C93.2066 60.2078 93.3186 60.5266 93.3186 60.9341C93.3186 61.2642 93.2687 61.5243 93.1688 61.7143C93.0706 61.9028 92.9264 62.0493 92.7364 62.154C92.548 62.2587 92.3418 62.311 92.118 62.311C91.7589 62.311 91.4682 62.1959 91.2459 61.9656C91.0253 61.7353 90.915 61.4035 90.915 60.9703ZM91.3619 60.9703C91.3619 61.2989 91.4335 61.5452 91.5769 61.7095C91.7202 61.8722 91.9006 61.9535 92.118 61.9535C92.3338 61.9535 92.5134 61.8714 92.6567 61.7071C92.8 61.5428 92.8717 61.2924 92.8717 60.9558C92.8717 60.6386 92.7992 60.3986 92.6543 60.2359C92.5109 60.0717 92.3322 59.9895 92.118 59.9895C91.9006 59.9895 91.7202 60.0709 91.5769 60.2335C91.4335 60.3962 91.3619 60.6418 91.3619 60.9703Z" fill="white"/>
<path d="M88.1611 60.9703C88.1611 60.4952 88.2931 60.1433 88.5573 59.9147C88.7779 59.7246 89.0468 59.6296 89.3641 59.6296C89.7168 59.6296 90.0051 59.7456 90.2289 59.9775C90.4528 60.2078 90.5647 60.5266 90.5647 60.9341C90.5647 61.2642 90.5148 61.5243 90.4149 61.7143C90.3167 61.9028 90.1725 62.0493 89.9825 62.154C89.7941 62.2587 89.588 62.311 89.3641 62.311C89.005 62.311 88.7143 62.1959 88.492 61.9656C88.2714 61.7353 88.1611 61.4035 88.1611 60.9703ZM88.608 60.9703C88.608 61.2989 88.6796 61.5452 88.823 61.7095C88.9663 61.8722 89.1467 61.9535 89.3641 61.9535C89.5799 61.9535 89.7595 61.8714 89.9028 61.7071C90.0461 61.5428 90.1178 61.2924 90.1178 60.9558C90.1178 60.6386 90.0453 60.3986 89.9004 60.2359C89.757 60.0717 89.5783 59.9895 89.3641 59.9895C89.1467 59.9895 88.9663 60.0709 88.823 60.2335C88.6796 60.3962 88.608 60.6418 88.608 60.9703Z" fill="white"/>
<path d="M86.8059 62.253V59.1296H85.6391V58.7116H88.4461V59.1296H87.2745V62.253H86.8059Z" fill="white"/>
<path d="M81.1604 61.1153L81.6025 61.0766C81.6234 61.2538 81.6717 61.3995 81.7474 61.5138C81.8247 61.6266 81.9439 61.7184 82.1049 61.7892C82.266 61.8585 82.4472 61.8931 82.6485 61.8931C82.8272 61.8931 82.9851 61.8665 83.122 61.8134C83.2588 61.7602 83.3603 61.6878 83.4263 61.596C83.494 61.5026 83.5278 61.4011 83.5278 61.2916C83.5278 61.1805 83.4956 61.0839 83.4312 61.0017C83.3667 60.918 83.2605 60.8479 83.1123 60.7916C83.0173 60.7545 82.8071 60.6973 82.4818 60.62C82.1565 60.5411 81.9286 60.467 81.7982 60.3978C81.6291 60.3092 81.5026 60.1997 81.4189 60.0693C81.3368 59.9372 81.2957 59.7899 81.2957 59.6272C81.2957 59.4484 81.3464 59.2817 81.4479 59.1271C81.5493 58.9709 81.6975 58.8526 81.8924 58.772C82.0872 58.6915 82.3038 58.6513 82.5422 58.6513C82.8047 58.6513 83.0358 58.6939 83.2355 58.7793C83.4368 58.863 83.5914 58.987 83.6993 59.1513C83.8072 59.3156 83.8652 59.5016 83.8732 59.7093L83.4239 59.7431C83.3998 59.5193 83.3176 59.3502 83.1775 59.2359C83.039 59.1215 82.8337 59.0643 82.5615 59.0643C82.2781 59.0643 82.0711 59.1167 81.9407 59.2214C81.8118 59.3244 81.7474 59.4492 81.7474 59.5958C81.7474 59.723 81.7933 59.8277 81.8851 59.9098C81.9753 59.992 82.2104 60.0765 82.5905 60.1635C82.9722 60.2488 83.2339 60.3237 83.3756 60.3881C83.5817 60.4832 83.7339 60.6039 83.8322 60.7505C83.9304 60.8954 83.9795 61.0629 83.9795 61.253C83.9795 61.4414 83.9256 61.6193 83.8177 61.7868C83.7098 61.9527 83.5544 62.0823 83.3514 62.1757C83.1501 62.2675 82.9231 62.3134 82.6702 62.3134C82.3497 62.3134 82.0808 62.2667 81.8634 62.1733C81.6476 62.0799 81.4777 61.9398 81.3537 61.753C81.2313 61.5646 81.1669 61.352 81.1604 61.1153Z" fill="white"/>
<path d="M78.5466 62.253V58.7116H79.0153V61.8351H80.7594V62.253H78.5466Z" fill="white"/>
<path d="M76.4426 62.253V59.1296H75.2758V58.7116H78.0828V59.1296H76.9112V62.253H76.4426Z" fill="white"/>
<path d="M73.7829 62.3134L74.8096 58.6513H75.1574L74.1332 62.3134H73.7829Z" fill="white"/>
<path d="M71.3914 62.253V58.7116H71.86V61.8351H73.6041V62.253H71.3914Z" fill="white"/>
<path d="M67.9514 61.1153L68.3935 61.0766C68.4144 61.2538 68.4627 61.3995 68.5384 61.5138C68.6157 61.6266 68.7349 61.7184 68.896 61.7892C69.057 61.8585 69.2382 61.8931 69.4395 61.8931C69.6183 61.8931 69.7761 61.8665 69.913 61.8134C70.0499 61.7602 70.1513 61.6878 70.2173 61.596C70.285 61.5026 70.3188 61.4011 70.3188 61.2916C70.3188 61.1805 70.2866 61.0839 70.2222 61.0017C70.1578 60.918 70.0515 60.8479 69.9033 60.7916C69.8083 60.7545 69.5981 60.6973 69.2728 60.62C68.9475 60.5411 68.7196 60.467 68.5892 60.3978C68.4201 60.3092 68.2936 60.1997 68.2099 60.0693C68.1278 59.9372 68.0867 59.7899 68.0867 59.6272C68.0867 59.4484 68.1374 59.2817 68.2389 59.1271C68.3404 58.9709 68.4885 58.8526 68.6834 58.772C68.8783 58.6915 69.0949 58.6513 69.3332 58.6513C69.5957 58.6513 69.8268 58.6939 70.0265 58.7793C70.2278 58.863 70.3824 58.987 70.4903 59.1513C70.5982 59.3156 70.6562 59.5016 70.6642 59.7093L70.2149 59.7431C70.1908 59.5193 70.1086 59.3502 69.9685 59.2359C69.83 59.1215 69.6247 59.0643 69.3525 59.0643C69.0691 59.0643 68.8621 59.1167 68.7317 59.2214C68.6029 59.3244 68.5384 59.4492 68.5384 59.5958C68.5384 59.723 68.5843 59.8277 68.6761 59.9098C68.7663 59.992 69.0014 60.0765 69.3815 60.1635C69.7632 60.2488 70.0249 60.3237 70.1666 60.3881C70.3728 60.4832 70.5249 60.6039 70.6232 60.7505C70.7214 60.8954 70.7705 61.0629 70.7705 61.253C70.7705 61.4414 70.7166 61.6193 70.6087 61.7868C70.5008 61.9527 70.3454 62.0823 70.1425 62.1757C69.9412 62.2675 69.7141 62.3134 69.4612 62.3134C69.1408 62.3134 68.8718 62.2667 68.6544 62.1733C68.4386 62.0799 68.2687 61.9398 68.1447 61.753C68.0223 61.5646 67.9579 61.352 67.9514 61.1153Z" fill="white"/>
<path d="M64.6516 61.1153L65.0937 61.0766C65.1146 61.2538 65.1629 61.3995 65.2386 61.5138C65.3159 61.6266 65.4351 61.7184 65.5961 61.7892C65.7572 61.8585 65.9384 61.8931 66.1397 61.8931C66.3184 61.8931 66.4762 61.8665 66.6131 61.8134C66.75 61.7602 66.8515 61.6878 66.9175 61.596C66.9852 61.5026 67.019 61.4011 67.019 61.2916C67.019 61.1805 66.9868 61.0839 66.9223 61.0017C66.8579 60.918 66.7516 60.8479 66.6035 60.7916C66.5085 60.7545 66.2983 60.6973 65.973 60.62C65.6477 60.5411 65.4198 60.467 65.2893 60.3978C65.1202 60.3092 64.9938 60.1997 64.9101 60.0693C64.8279 59.9372 64.7869 59.7899 64.7869 59.6272C64.7869 59.4484 64.8376 59.2817 64.9391 59.1271C65.0405 58.9709 65.1887 58.8526 65.3836 58.772C65.5784 58.6915 65.795 58.6513 66.0334 58.6513C66.2959 58.6513 66.527 58.6939 66.7267 58.7793C66.928 58.863 67.0826 58.987 67.1905 59.1513C67.2984 59.3156 67.3564 59.5016 67.3644 59.7093L66.9151 59.7431C66.8909 59.5193 66.8088 59.3502 66.6687 59.2359C66.5302 59.1215 66.3249 59.0643 66.0527 59.0643C65.7693 59.0643 65.5623 59.1167 65.4319 59.2214C65.303 59.3244 65.2386 59.4492 65.2386 59.5958C65.2386 59.723 65.2845 59.8277 65.3763 59.9098C65.4665 59.992 65.7016 60.0765 66.0817 60.1635C66.4634 60.2488 66.7251 60.3237 66.8668 60.3881C67.0729 60.4832 67.2251 60.6039 67.3233 60.7505C67.4216 60.8954 67.4707 61.0629 67.4707 61.253C67.4707 61.4414 67.4168 61.6193 67.3089 61.7868C67.201 61.9527 67.0455 62.0823 66.8426 62.1757C66.6413 62.2675 66.4142 62.3134 66.1614 62.3134C65.8409 62.3134 65.572 62.2667 65.3546 62.1733C65.1388 62.0799 64.9689 61.9398 64.8448 61.753C64.7225 61.5646 64.658 61.352 64.6516 61.1153Z" fill="white"/>
<path d="M62.2891 62.253V61.9293C62.1264 62.1838 61.8872 62.311 61.5716 62.311C61.3671 62.311 61.1786 62.2547 61.0063 62.1419C60.8356 62.0292 60.7028 61.8722 60.6077 61.6709C60.5143 61.4679 60.4676 61.2352 60.4676 60.9727C60.4676 60.7167 60.5103 60.4848 60.5957 60.277C60.681 60.0677 60.809 59.9074 60.9798 59.7963C61.1505 59.6852 61.3413 59.6296 61.5523 59.6296C61.7069 59.6296 61.8446 59.6626 61.9654 59.7287C62.0861 59.7931 62.1844 59.8776 62.2601 59.9823V58.7116H62.6925V62.253H62.2891ZM60.9145 60.9727C60.9145 61.3013 60.9838 61.5469 61.1223 61.7095C61.2608 61.8722 61.4242 61.9535 61.6127 61.9535C61.8027 61.9535 61.9637 61.8762 62.0958 61.7216C62.2295 61.5654 62.2963 61.3278 62.2963 61.009C62.2963 60.6579 62.2287 60.4002 62.0934 60.2359C61.9581 60.0717 61.7914 59.9895 61.5933 59.9895C61.4001 59.9895 61.2382 60.0685 61.1078 60.2263C60.9789 60.3841 60.9145 60.6329 60.9145 60.9727Z" fill="white"/>
<path d="M57.8708 62.253V59.6876H58.2621V60.0524C58.4505 59.7705 58.7227 59.6296 59.0786 59.6296C59.2332 59.6296 59.3749 59.6578 59.5038 59.7142C59.6342 59.7689 59.7316 59.8414 59.7961 59.9316C59.8605 60.0218 59.9056 60.1289 59.9313 60.2529C59.9474 60.3334 59.9555 60.4743 59.9555 60.6756V62.253H59.5207V60.6925C59.5207 60.5154 59.5038 60.3833 59.4699 60.2963C59.4361 60.2078 59.3757 60.1377 59.2888 60.0862C59.2034 60.033 59.1028 60.0065 58.9868 60.0065C58.8016 60.0065 58.6414 60.0652 58.5061 60.1828C58.3724 60.3004 58.3056 60.5234 58.3056 60.8519V62.253H57.8708Z" fill="white"/>
<path d="M56.7909 61.9366C56.6299 62.0735 56.4745 62.1701 56.3247 62.2265C56.1766 62.2828 56.0171 62.311 55.8464 62.311C55.5646 62.311 55.348 62.2426 55.1966 62.1057C55.0452 61.9672 54.9695 61.7908 54.9695 61.5767C54.9695 61.451 54.9977 61.3367 55.0541 61.2336C55.112 61.1289 55.1869 61.0452 55.2787 60.9824C55.3721 60.9196 55.4768 60.8721 55.5928 60.8399C55.6781 60.8173 55.807 60.7956 55.9793 60.7746C56.3304 60.7328 56.5888 60.6828 56.7547 60.6249C56.7563 60.5653 56.7571 60.5274 56.7571 60.5113C56.7571 60.3342 56.7161 60.2094 56.6339 60.1369C56.5228 60.0387 56.3577 59.9895 56.1387 59.9895C55.9342 59.9895 55.7828 60.0258 55.6846 60.0983C55.5879 60.1691 55.5163 60.2955 55.4696 60.4775L55.0444 60.4195C55.0831 60.2376 55.1467 60.091 55.2352 59.9799C55.3238 59.8672 55.4518 59.781 55.6193 59.7214C55.7868 59.6602 55.9809 59.6296 56.2015 59.6296C56.4205 59.6296 56.5985 59.6554 56.7354 59.7069C56.8723 59.7584 56.9729 59.8237 57.0373 59.9026C57.1018 59.9799 57.1469 60.0781 57.1726 60.1973C57.1871 60.2714 57.1944 60.405 57.1944 60.5983V61.1781C57.1944 61.5823 57.2032 61.8384 57.2209 61.9463C57.2403 62.0525 57.2773 62.1548 57.3321 62.253H56.8779C56.8328 62.1629 56.8038 62.0574 56.7909 61.9366ZM56.7547 60.9655C56.5969 61.0299 56.3601 61.0847 56.0445 61.1298C55.8657 61.1555 55.7393 61.1845 55.6652 61.2167C55.5912 61.2489 55.534 61.2964 55.4937 61.3592C55.4535 61.4204 55.4333 61.4889 55.4333 61.5646C55.4333 61.6805 55.4768 61.7772 55.5638 61.8545C55.6524 61.9318 55.7812 61.9704 55.9503 61.9704C56.1178 61.9704 56.2667 61.9342 56.3972 61.8617C56.5276 61.7876 56.6235 61.687 56.6847 61.5597C56.7314 61.4615 56.7547 61.3166 56.7547 61.1249V60.9655Z" fill="white"/>
<path d="M51.2469 63.2411L51.1986 62.8328C51.2936 62.8586 51.3766 62.8715 51.4474 62.8715C51.5441 62.8715 51.6214 62.8554 51.6793 62.8232C51.7373 62.7909 51.7848 62.7458 51.8219 62.6879C51.8493 62.6444 51.8935 62.5365 51.9547 62.3642C51.9628 62.34 51.9757 62.3046 51.9934 62.2579L51.0199 59.6876H51.4885L52.0224 61.1732C52.0916 61.3617 52.1536 61.5597 52.2084 61.7675C52.2583 61.5678 52.3179 61.3729 52.3871 61.1829L52.9355 59.6876H53.3703L52.3944 62.2965C52.2897 62.5784 52.2084 62.7724 52.1504 62.8787C52.0731 63.022 51.9845 63.1267 51.8847 63.1928C51.7848 63.2604 51.6657 63.2942 51.5272 63.2942C51.4434 63.2942 51.35 63.2765 51.2469 63.2411Z" fill="white"/>
<path d="M48.5124 62.253V58.7116H48.9472V59.9823C49.1501 59.7472 49.4062 59.6296 49.7154 59.6296C49.9054 59.6296 50.0705 59.6675 50.2106 59.7431C50.3507 59.8172 50.4506 59.9203 50.5102 60.0524C50.5714 60.1844 50.6019 60.3761 50.6019 60.6273V62.253H50.1671V60.6273C50.1671 60.4099 50.1196 60.2521 50.0246 60.1538C49.9312 60.054 49.7983 60.004 49.626 60.004C49.4972 60.004 49.3756 60.0379 49.2612 60.1055C49.1485 60.1715 49.068 60.2617 49.0197 60.3761C48.9714 60.4904 48.9472 60.6482 48.9472 60.8495V62.253H48.5124Z" fill="white"/>
<path d="M45.7585 63.2362V59.6876H46.1547V60.021C46.2481 59.8905 46.3536 59.7931 46.4711 59.7287C46.5887 59.6626 46.7312 59.6296 46.8987 59.6296C47.1177 59.6296 47.311 59.686 47.4785 59.7987C47.646 59.9114 47.7724 60.0709 47.8577 60.277C47.9431 60.4815 47.9858 60.7062 47.9858 60.951C47.9858 61.2135 47.9383 61.4502 47.8432 61.6612C47.7498 61.8706 47.6129 62.0316 47.4326 62.1443C47.2538 62.2555 47.0654 62.311 46.8673 62.311C46.7224 62.311 46.5919 62.2804 46.476 62.2192C46.3616 62.158 46.2674 62.0807 46.1933 61.9873V63.2362H45.7585ZM46.1523 60.9848C46.1523 61.315 46.2191 61.5589 46.3528 61.7168C46.4864 61.8746 46.6483 61.9535 46.8383 61.9535C47.0316 61.9535 47.1966 61.8722 47.3335 61.7095C47.472 61.5452 47.5413 61.2916 47.5413 60.9486C47.5413 60.6217 47.4736 60.3769 47.3384 60.2142C47.2047 60.0515 47.0444 59.9702 46.8576 59.9702C46.6724 59.9702 46.5082 60.0572 46.3648 60.2311C46.2231 60.4034 46.1523 60.6547 46.1523 60.9848Z" fill="white"/>
<path d="M44.6787 61.9366C44.5176 62.0735 44.3622 62.1701 44.2125 62.2265C44.0643 62.2828 43.9049 62.311 43.7341 62.311C43.4523 62.311 43.2357 62.2426 43.0843 62.1057C42.9329 61.9672 42.8573 61.7908 42.8573 61.5767C42.8573 61.451 42.8854 61.3367 42.9418 61.2336C42.9998 61.1289 43.0747 61.0452 43.1665 60.9824C43.2599 60.9196 43.3645 60.8721 43.4805 60.8399C43.5659 60.8173 43.6947 60.7956 43.867 60.7746C44.2181 60.7328 44.4766 60.6828 44.6424 60.6249C44.6441 60.5653 44.6449 60.5274 44.6449 60.5113C44.6449 60.3342 44.6038 60.2094 44.5217 60.1369C44.4105 60.0387 44.2455 59.9895 44.0264 59.9895C43.8219 59.9895 43.6705 60.0258 43.5723 60.0983C43.4757 60.1691 43.404 60.2955 43.3573 60.4775L42.9321 60.4195C42.9708 60.2376 43.0344 60.091 43.123 59.9799C43.2116 59.8672 43.3396 59.781 43.5071 59.7214C43.6746 59.6602 43.8686 59.6296 44.0893 59.6296C44.3083 59.6296 44.4862 59.6554 44.6231 59.7069C44.76 59.7584 44.8607 59.8237 44.9251 59.9026C44.9895 59.9799 45.0346 60.0781 45.0604 60.1973C45.0749 60.2714 45.0821 60.405 45.0821 60.5983V61.1781C45.0821 61.5823 45.091 61.8384 45.1087 61.9463C45.128 62.0525 45.165 62.1548 45.2198 62.253H44.7656C44.7206 62.1629 44.6916 62.0574 44.6787 61.9366ZM44.6424 60.9655C44.4846 61.0299 44.2479 61.0847 43.9322 61.1298C43.7535 61.1555 43.627 61.1845 43.553 61.2167C43.4789 61.2489 43.4217 61.2964 43.3815 61.3592C43.3412 61.4204 43.3211 61.4889 43.3211 61.5646C43.3211 61.6805 43.3645 61.7772 43.4515 61.8545C43.5401 61.9318 43.6689 61.9704 43.838 61.9704C44.0055 61.9704 44.1545 61.9342 44.2849 61.8617C44.4154 61.7876 44.5112 61.687 44.5724 61.5597C44.6191 61.4615 44.6424 61.3166 44.6424 61.1249V60.9655Z" fill="white"/>
<path d="M41.3523 62.253V59.6876H41.7436V60.0765C41.8435 59.8945 41.9353 59.7745 42.019 59.7166C42.1044 59.6586 42.1978 59.6296 42.2992 59.6296C42.4458 59.6296 42.5947 59.6763 42.7461 59.7697L42.5964 60.1731C42.4901 60.1103 42.3838 60.0789 42.2775 60.0789C42.1825 60.0789 42.0971 60.1079 42.0214 60.1659C41.9457 60.2223 41.8918 60.3012 41.8596 60.4026C41.8113 60.5572 41.7871 60.7263 41.7871 60.9099V62.253H41.3523Z" fill="white"/>
<path d="M38.5235 62.4656L38.9463 62.5284C38.964 62.6589 39.0131 62.7539 39.0936 62.8135C39.2015 62.894 39.3489 62.9343 39.5357 62.9343C39.737 62.9343 39.8924 62.894 40.0019 62.8135C40.1114 62.733 40.1855 62.6202 40.2241 62.4753C40.2467 62.3867 40.2572 62.2007 40.2556 61.9173C40.0655 62.1411 39.8288 62.253 39.5453 62.253C39.1926 62.253 38.9197 62.1258 38.7264 61.8714C38.5332 61.6169 38.4365 61.3117 38.4365 60.9558C38.4365 60.711 38.4808 60.4856 38.5694 60.2794C38.658 60.0717 38.786 59.9114 38.9535 59.7987C39.1226 59.686 39.3207 59.6296 39.5478 59.6296C39.8505 59.6296 40.1001 59.752 40.2966 59.9968V59.6876H40.6976V61.9052C40.6976 62.3046 40.6566 62.5872 40.5744 62.7531C40.4939 62.9206 40.3651 63.0526 40.1879 63.1493C40.0124 63.2459 39.7958 63.2942 39.5381 63.2942C39.2321 63.2942 38.9849 63.225 38.7965 63.0865C38.6081 62.9496 38.5171 62.7426 38.5235 62.4656ZM38.8834 60.9244C38.8834 61.261 38.9503 61.5066 39.0839 61.6612C39.2176 61.8158 39.3851 61.8931 39.5864 61.8931C39.7861 61.8931 39.9536 61.8166 40.0889 61.6636C40.2241 61.509 40.2918 61.2674 40.2918 60.9389C40.2918 60.6249 40.2217 60.3881 40.0816 60.2287C39.9431 60.0693 39.7756 59.9895 39.5792 59.9895C39.3859 59.9895 39.2216 60.0685 39.0864 60.2263C38.9511 60.3825 38.8834 60.6152 38.8834 60.9244Z" fill="white"/>
<path d="M35.6875 60.9703C35.6875 60.4952 35.8195 60.1433 36.0837 59.9147C36.3043 59.7246 36.5732 59.6296 36.8905 59.6296C37.2432 59.6296 37.5315 59.7456 37.7553 59.9775C37.9792 60.2078 38.0911 60.5266 38.0911 60.9341C38.0911 61.2642 38.0412 61.5243 37.9413 61.7143C37.8431 61.9028 37.6989 62.0493 37.5089 62.154C37.3205 62.2587 37.1144 62.311 36.8905 62.311C36.5314 62.311 36.2407 62.1959 36.0184 61.9656C35.7978 61.7353 35.6875 61.4035 35.6875 60.9703ZM36.1344 60.9703C36.1344 61.2989 36.2061 61.5452 36.3494 61.7095C36.4927 61.8722 36.6731 61.9535 36.8905 61.9535C37.1063 61.9535 37.2859 61.8714 37.4292 61.7071C37.5725 61.5428 37.6442 61.2924 37.6442 60.9558C37.6442 60.6386 37.5717 60.3986 37.4268 60.2359C37.2835 60.0717 37.1047 59.9895 36.8905 59.9895C36.6731 59.9895 36.4927 60.0709 36.3494 60.2335C36.2061 60.3962 36.1344 60.6418 36.1344 60.9703Z" fill="white"/>
<path d="M35.4218 61.8641L35.4846 62.2482C35.3622 62.274 35.2527 62.2869 35.156 62.2869C34.9982 62.2869 34.8758 62.2619 34.7888 62.212C34.7019 62.1621 34.6407 62.0968 34.6053 62.0163C34.5698 61.9342 34.5521 61.7627 34.5521 61.5018V60.0258H34.2332V59.6876H34.5521V59.0523L34.9845 58.7914V59.6876H35.4218V60.0258H34.9845V61.5259C34.9845 61.6499 34.9918 61.7296 35.0063 61.7651C35.0224 61.8005 35.0473 61.8287 35.0811 61.8496C35.1166 61.8706 35.1665 61.881 35.2309 61.881C35.2792 61.881 35.3428 61.8754 35.4218 61.8641Z" fill="white"/>
<path d="M31.7185 63.2362V59.6876H32.1147V60.021C32.2081 59.8905 32.3136 59.7931 32.4311 59.7287C32.5487 59.6626 32.6912 59.6296 32.8587 59.6296C33.0777 59.6296 33.271 59.686 33.4385 59.7987C33.606 59.9114 33.7324 60.0709 33.8177 60.277C33.9031 60.4815 33.9458 60.7062 33.9458 60.951C33.9458 61.2135 33.8983 61.4502 33.8032 61.6612C33.7098 61.8706 33.573 62.0316 33.3926 62.1443C33.2138 62.2555 33.0254 62.311 32.8273 62.311C32.6824 62.311 32.5519 62.2804 32.436 62.2192C32.3216 62.158 32.2274 62.0807 32.1533 61.9873V63.2362H31.7185ZM32.1123 60.9848C32.1123 61.315 32.1791 61.5589 32.3128 61.7168C32.4464 61.8746 32.6083 61.9535 32.7983 61.9535C32.9916 61.9535 33.1566 61.8722 33.2935 61.7095C33.432 61.5452 33.5013 61.2916 33.5013 60.9486C33.5013 60.6217 33.4336 60.3769 33.2984 60.2142C33.1647 60.0515 33.0045 59.9702 32.8176 59.9702C32.6324 59.9702 32.4682 60.0572 32.3248 60.2311C32.1831 60.4034 32.1123 60.6547 32.1123 60.9848Z" fill="white"/>
<path d="M29.2255 63.2411L29.1772 62.8328C29.2722 62.8586 29.3552 62.8715 29.426 62.8715C29.5226 62.8715 29.5999 62.8554 29.6579 62.8232C29.7159 62.7909 29.7634 62.7458 29.8005 62.6879C29.8278 62.6444 29.8721 62.5365 29.9333 62.3642C29.9414 62.34 29.9543 62.3046 29.972 62.2579L28.9984 59.6876H29.4671L30.001 61.1732C30.0702 61.3617 30.1322 61.5597 30.187 61.7675C30.2369 61.5678 30.2965 61.3729 30.3657 61.1829L30.9141 59.6876H31.3489L30.373 62.2965C30.2683 62.5784 30.187 62.7724 30.129 62.8787C30.0517 63.022 29.9631 63.1267 29.8633 63.1928C29.7634 63.2604 29.6442 63.2942 29.5057 63.2942C29.422 63.2942 29.3286 63.2765 29.2255 63.2411Z" fill="white"/>
<path d="M27.5925 62.253V59.6876H27.9839V60.0765C28.0837 59.8945 28.1755 59.7745 28.2592 59.7166C28.3446 59.6586 28.438 59.6296 28.5395 59.6296C28.686 59.6296 28.835 59.6763 28.9864 59.7697L28.8366 60.1731C28.7303 60.1103 28.624 60.0789 28.5177 60.0789C28.4227 60.0789 28.3373 60.1079 28.2617 60.1659C28.186 60.2223 28.132 60.3012 28.0998 60.4026C28.0515 60.5572 28.0273 60.7263 28.0273 60.9099V62.253H27.5925Z" fill="white"/>
<path d="M26.6045 61.0114L27.0731 61.1298C26.9749 61.5147 26.7978 61.8086 26.5417 62.0115C26.2872 62.2128 25.9756 62.3134 25.6068 62.3134C25.2251 62.3134 24.9143 62.2361 24.6744 62.0815C24.436 61.9253 24.254 61.6999 24.1284 61.4051C24.0044 61.1104 23.9424 60.794 23.9424 60.4558C23.9424 60.087 24.0125 59.7657 24.1526 59.4919C24.2943 59.2165 24.4948 59.008 24.7541 58.8663C25.015 58.7229 25.3016 58.6513 25.6141 58.6513C25.9684 58.6513 26.2663 58.7414 26.5079 58.9218C26.7494 59.1022 26.9177 59.3558 27.0127 59.6828L26.5513 59.7915C26.4692 59.5338 26.35 59.3462 26.1938 59.2286C26.0376 59.111 25.8411 59.0523 25.6044 59.0523C25.3322 59.0523 25.1044 59.1175 24.9208 59.2479C24.7388 59.3784 24.6107 59.5539 24.5367 59.7745C24.4626 59.9936 24.4255 60.2198 24.4255 60.4534C24.4255 60.7545 24.469 61.0178 24.556 61.2433C24.6446 61.4671 24.7815 61.6346 24.9667 61.7458C25.1519 61.8569 25.3524 61.9124 25.5682 61.9124C25.8307 61.9124 26.0529 61.8367 26.2349 61.6854C26.4169 61.534 26.5401 61.3093 26.6045 61.0114Z" fill="white"/>
</g>
<defs>
<clipPath id="clip0_2377_7977">
<rect width="100" height="100" fill="white" transform="translate(0.796387 0.668213)"/>
</clipPath>
</defs>
</svg>
