<svg width="101" height="101" viewBox="0 0 101 101" fill="none" xmlns="http://www.w3.org/2000/svg">
<g clip-path="url(#clip0_2377_7932)">
<path d="M89.1169 55.0393V38.5839H92.4668V52.2439H100.796V55.0393H89.1169Z" fill="#191919"/>
<path d="M72.7181 49.6409L75.9775 49.324C76.1736 50.418 76.5697 51.2216 77.1658 51.7346C77.7694 52.2477 78.5805 52.5042 79.599 52.5042C80.6779 52.5042 81.489 52.2778 82.0322 51.8252C82.583 51.3649 82.8584 50.8292 82.8584 50.2181C82.8584 49.8258 82.7415 49.4938 82.5076 49.2222C82.2812 48.943 81.8813 48.7016 81.3079 48.4979C80.9156 48.362 80.0215 48.1206 78.6257 47.7735C76.83 47.3284 75.57 46.7814 74.8457 46.1325C73.8272 45.2196 73.3179 44.1067 73.3179 42.7939C73.3179 41.9489 73.5555 41.1604 74.0309 40.4286C74.5138 39.6892 75.2041 39.1271 76.102 38.7423C77.0073 38.3575 78.0976 38.1651 79.3727 38.1651C81.4551 38.1651 83.0206 38.6216 84.0694 39.5345C85.1256 40.4475 85.6802 41.666 85.733 43.19L82.3831 43.3371C82.2397 42.4846 81.9304 41.8734 81.4551 41.5037C80.9873 41.1265 80.2818 40.9379 79.3387 40.9379C78.3654 40.9379 77.6034 41.1378 77.0526 41.5377C76.698 41.7942 76.5207 42.1375 76.5207 42.5676C76.5207 42.9599 76.6867 43.2957 77.0187 43.5748C77.4412 43.9294 78.4673 44.2991 80.097 44.6839C81.7267 45.0687 82.9301 45.4686 83.7072 45.8836C84.4919 46.291 85.103 46.8531 85.5406 47.5698C85.9858 48.2791 86.2083 49.158 86.2083 50.2068C86.2083 51.1574 85.9443 52.0477 85.4161 52.8777C84.888 53.7076 84.141 54.3263 83.1753 54.7337C82.2095 55.1336 81.0061 55.3335 79.5651 55.3335C77.4676 55.3335 75.8567 54.8507 74.7326 53.8849C73.6084 52.9116 72.9369 51.497 72.7181 49.6409Z" fill="#191919"/>
<path d="M57.2586 49.6409L60.518 49.324C60.7141 50.418 61.1103 51.2216 61.7063 51.7346C62.3099 52.2477 63.121 52.5042 64.1395 52.5042C65.2184 52.5042 66.0295 52.2778 66.5728 51.8252C67.1235 51.3649 67.3989 50.8292 67.3989 50.2181C67.3989 49.8258 67.282 49.4938 67.0481 49.2222C66.8217 48.943 66.4219 48.7016 65.8484 48.4979C65.4561 48.362 64.562 48.1206 63.1662 47.7735C61.3706 47.3284 60.1106 46.7814 59.3862 46.1325C58.3677 45.2196 57.8584 44.1067 57.8584 42.7939C57.8584 41.9489 58.0961 41.1604 58.5714 40.4286C59.0543 39.6892 59.7446 39.1271 60.6425 38.7423C61.5479 38.3575 62.6381 38.1651 63.9132 38.1651C65.9956 38.1651 67.5611 38.6216 68.6099 39.5345C69.6662 40.4475 70.2207 41.666 70.2735 43.19L66.9236 43.3371C66.7802 42.4846 66.4709 41.8734 65.9956 41.5037C65.5278 41.1265 64.8223 40.9379 63.8792 40.9379C62.9059 40.9379 62.1439 41.1378 61.5931 41.5377C61.2385 41.7942 61.0612 42.1375 61.0612 42.5676C61.0612 42.9599 61.2272 43.2957 61.5592 43.5748C61.9817 43.9294 63.0078 44.2991 64.6375 44.6839C66.2672 45.0687 67.4706 45.4686 68.2477 45.8836C69.0324 46.291 69.6435 46.8531 70.0811 47.5698C70.5263 48.2791 70.7488 49.158 70.7488 50.2068C70.7488 51.1574 70.4848 52.0477 69.9566 52.8777C69.4285 53.7076 68.6815 54.3263 67.7158 54.7337C66.7501 55.1336 65.5466 55.3335 64.1056 55.3335C62.0081 55.3335 60.3973 54.8507 59.2731 53.8849C58.1489 52.9116 57.4774 51.497 57.2586 49.6409Z" fill="#191919"/>
<path d="M45.0472 55.0393V43.0203H46.8806V44.7292C47.7633 43.4088 49.0384 42.7486 50.7058 42.7486C51.4302 42.7486 52.0941 42.8807 52.6977 43.1448C53.3088 43.4013 53.7653 43.7408 54.0671 44.1633C54.3689 44.5858 54.5801 45.0876 54.7009 45.6685C54.7763 46.0458 54.814 46.7059 54.814 47.6491V55.0393H52.7769V47.7283C52.7769 46.8983 52.6977 46.2797 52.5393 45.8722C52.3808 45.4573 52.0979 45.1291 51.6905 44.8876C51.2906 44.6386 50.819 44.5142 50.2758 44.5142C49.4081 44.5142 48.6574 44.7895 48.0236 45.3403C47.3974 45.8911 47.0843 46.9361 47.0843 48.4752V55.0393H45.0472Z" fill="#191919"/>
<path d="M40.3731 51.1687L42.4781 51.429C42.1462 52.6589 41.5313 53.6133 40.6334 54.2923C39.7356 54.9714 38.5887 55.3109 37.1929 55.3109C35.435 55.3109 34.0392 54.7714 33.0055 53.6925C31.9794 52.6061 31.4664 51.0858 31.4664 49.1316C31.4664 47.1096 31.987 45.5403 33.0282 44.4236C34.0694 43.307 35.4199 42.7486 37.0798 42.7486C38.6868 42.7486 39.9996 43.2957 41.0182 44.3897C42.0368 45.4837 42.546 47.0228 42.546 49.0071C42.546 49.1279 42.5423 49.3089 42.5347 49.5504H33.5714C33.6468 50.8707 34.0203 51.8817 34.6918 52.5834C35.3633 53.2851 36.2008 53.6359 37.2043 53.6359C37.9512 53.6359 38.5887 53.4398 39.1169 53.0474C39.645 52.6551 40.0638 52.0289 40.3731 51.1687ZM33.6846 47.8754H40.3958C40.3052 46.8644 40.0487 46.1061 39.6262 45.6006C38.9773 44.8159 38.1361 44.4236 37.1024 44.4236C36.1668 44.4236 35.3784 44.7367 34.7371 45.363C34.1033 45.9892 33.7525 46.8267 33.6846 47.8754Z" fill="#191919"/>
<path d="M19.2436 59.6454V43.0203H21.0997V44.5821C21.5373 43.9709 22.0315 43.5145 22.5823 43.2127C23.133 42.9033 23.8008 42.7486 24.5854 42.7486C25.6115 42.7486 26.5169 43.0127 27.3016 43.5409C28.0863 44.069 28.6785 44.8159 29.0784 45.7817C29.4783 46.7399 29.6782 47.7924 29.6782 48.9392C29.6782 50.1691 29.4557 51.2781 29.0105 52.2665C28.5729 53.2474 27.9316 54.0019 27.0866 54.53C26.2491 55.0506 25.3663 55.3109 24.4383 55.3109C23.7593 55.3109 23.1481 55.1675 22.6049 54.8808C22.0692 54.5941 21.6278 54.232 21.2808 53.7944V59.6454H19.2436ZM21.0884 49.0977C21.0884 50.6444 21.4015 51.7874 22.0277 52.5268C22.6539 53.2662 23.4122 53.6359 24.3025 53.6359C25.2079 53.6359 25.9812 53.2549 26.6226 52.4929C27.2714 51.7233 27.5958 50.535 27.5958 48.9279C27.5958 47.3963 27.279 46.2495 26.6452 45.4874C26.019 44.7254 25.2682 44.3444 24.393 44.3444C23.5254 44.3444 22.7558 44.7518 22.0843 45.5667C21.4203 46.374 21.0884 47.551 21.0884 49.0977Z" fill="#191919"/>
<path d="M0.796387 46.9587C0.796387 44.2048 1.53579 42.0507 3.01459 40.4965C4.49338 38.9347 6.40224 38.1538 8.74116 38.1538C10.2728 38.1538 11.6535 38.5197 12.8833 39.2516C14.1131 39.9834 15.0487 41.0058 15.69 42.3186C16.3389 43.6239 16.6633 45.1064 16.6633 46.7663C16.6633 48.4488 16.3238 49.954 15.6447 51.2819C14.9657 52.6098 14.0037 53.6171 12.7588 54.3037C11.5139 54.9827 10.1709 55.3222 8.72984 55.3222C7.16805 55.3222 5.77224 54.945 4.54243 54.1905C3.31261 53.436 2.38081 52.4061 1.74704 51.1008C1.11327 49.7956 0.796387 48.4149 0.796387 46.9587ZM3.05985 46.9927C3.05985 48.992 3.59554 50.5689 4.66692 51.7233C5.74584 52.8701 7.09637 53.4435 8.71852 53.4435C10.3709 53.4435 11.7289 52.8626 12.7928 51.7007C13.8641 50.5387 14.3998 48.8902 14.3998 46.755C14.3998 45.4045 14.1697 44.2274 13.7095 43.224C13.2568 42.213 12.5891 41.4321 11.7063 40.8813C10.8311 40.323 9.84648 40.0438 8.75248 40.0438C7.19823 40.0438 5.85901 40.5795 4.73482 41.6509C3.61818 42.7147 3.05985 44.4953 3.05985 46.9927Z" fill="#191919"/>
<path d="M99.4568 61.9759L99.5197 62.36C99.3973 62.3858 99.2878 62.3987 99.1911 62.3987C99.0333 62.3987 98.9109 62.3737 98.8239 62.3238C98.737 62.2739 98.6758 62.2086 98.6403 62.1281C98.6049 62.046 98.5872 61.8745 98.5872 61.6136V60.1376H98.2683V59.7994H98.5872V59.1641L99.0196 58.9032V59.7994H99.4568V60.1376H99.0196V61.6377C99.0196 61.7617 99.0269 61.8415 99.0413 61.8769C99.0574 61.9123 99.0824 61.9405 99.1162 61.9614C99.1517 61.9824 99.2016 61.9928 99.266 61.9928C99.3143 61.9928 99.3779 61.9872 99.4568 61.9759Z" fill="#191919"/>
<path d="M97.4083 59.3235V58.8235H97.8432V59.3235H97.4083ZM97.4083 62.3649V59.7994H97.8432V62.3649H97.4083Z" fill="#191919"/>
<path d="M94.9347 62.3649V58.8235H95.3695V60.843L96.3986 59.7994H96.9614L95.9807 60.7512L97.0605 62.3649H96.5242L95.6763 61.0531L95.3695 61.3479V62.3649H94.9347Z" fill="#191919"/>
<path d="M93.821 62.3649V58.8235H94.2559V62.3649H93.821Z" fill="#191919"/>
<path d="M90.915 61.0821C90.915 60.607 91.047 60.2552 91.3111 60.0265C91.5318 59.8364 91.8007 59.7414 92.118 59.7414C92.4707 59.7414 92.7589 59.8574 92.9828 60.0893C93.2066 60.3196 93.3186 60.6385 93.3186 61.0459C93.3186 61.376 93.2687 61.6361 93.1688 61.8262C93.0706 62.0146 92.9264 62.1611 92.7364 62.2658C92.548 62.3705 92.3418 62.4228 92.118 62.4228C91.7589 62.4228 91.4682 62.3077 91.2459 62.0774C91.0253 61.8471 90.915 61.5153 90.915 61.0821ZM91.3619 61.0821C91.3619 61.4107 91.4335 61.6571 91.5769 61.8213C91.7202 61.984 91.9006 62.0653 92.118 62.0653C92.3338 62.0653 92.5134 61.9832 92.6567 61.8189C92.8 61.6547 92.8717 61.4042 92.8717 61.0676C92.8717 60.7504 92.7992 60.5104 92.6543 60.3478C92.5109 60.1835 92.3322 60.1014 92.118 60.1014C91.9006 60.1014 91.7202 60.1827 91.5769 60.3453C91.4335 60.508 91.3619 60.7536 91.3619 61.0821Z" fill="#191919"/>
<path d="M88.1611 61.0821C88.1611 60.607 88.2931 60.2552 88.5573 60.0265C88.7779 59.8364 89.0468 59.7414 89.3641 59.7414C89.7168 59.7414 90.0051 59.8574 90.2289 60.0893C90.4528 60.3196 90.5647 60.6385 90.5647 61.0459C90.5647 61.376 90.5148 61.6361 90.4149 61.8262C90.3167 62.0146 90.1725 62.1611 89.9825 62.2658C89.7941 62.3705 89.588 62.4228 89.3641 62.4228C89.005 62.4228 88.7143 62.3077 88.492 62.0774C88.2714 61.8471 88.1611 61.5153 88.1611 61.0821ZM88.608 61.0821C88.608 61.4107 88.6796 61.6571 88.823 61.8213C88.9663 61.984 89.1467 62.0653 89.3641 62.0653C89.5799 62.0653 89.7595 61.9832 89.9028 61.8189C90.0461 61.6547 90.1178 61.4042 90.1178 61.0676C90.1178 60.7504 90.0453 60.5104 89.9004 60.3478C89.757 60.1835 89.5783 60.1014 89.3641 60.1014C89.1467 60.1014 88.9663 60.1827 88.823 60.3453C88.6796 60.508 88.608 60.7536 88.608 61.0821Z" fill="#191919"/>
<path d="M86.8059 62.3649V59.2414H85.6391V58.8235H88.4461V59.2414H87.2745V62.3649H86.8059Z" fill="#191919"/>
<path d="M81.1604 61.2271L81.6025 61.1884C81.6234 61.3656 81.6717 61.5113 81.7474 61.6257C81.8247 61.7384 81.9439 61.8302 82.1049 61.9011C82.266 61.9703 82.4472 62.0049 82.6485 62.0049C82.8272 62.0049 82.9851 61.9784 83.122 61.9252C83.2588 61.8721 83.3603 61.7996 83.4263 61.7078C83.494 61.6144 83.5278 61.5129 83.5278 61.4034C83.5278 61.2923 83.4956 61.1957 83.4312 61.1135C83.3667 61.0298 83.2605 60.9597 83.1123 60.9034C83.0173 60.8663 82.8071 60.8092 82.4818 60.7319C82.1565 60.6529 81.9286 60.5789 81.7982 60.5096C81.6291 60.421 81.5026 60.3115 81.4189 60.1811C81.3368 60.049 81.2957 59.9017 81.2957 59.739C81.2957 59.5602 81.3464 59.3936 81.4479 59.239C81.5493 59.0827 81.6975 58.9644 81.8924 58.8839C82.0872 58.8033 82.3038 58.7631 82.5422 58.7631C82.8047 58.7631 83.0358 58.8057 83.2355 58.8911C83.4368 58.9748 83.5914 59.0989 83.6993 59.2631C83.8072 59.4274 83.8652 59.6134 83.8732 59.8211L83.4239 59.855C83.3998 59.6311 83.3176 59.462 83.1775 59.3477C83.039 59.2333 82.8337 59.1762 82.5615 59.1762C82.2781 59.1762 82.0711 59.2285 81.9407 59.3332C81.8118 59.4362 81.7474 59.5611 81.7474 59.7076C81.7474 59.8348 81.7933 59.9395 81.8851 60.0216C81.9753 60.1038 82.2104 60.1883 82.5905 60.2753C82.9722 60.3606 83.2339 60.4355 83.3756 60.5C83.5817 60.595 83.7339 60.7158 83.8322 60.8623C83.9304 61.0072 83.9795 61.1747 83.9795 61.3648C83.9795 61.5532 83.9256 61.7311 83.8177 61.8986C83.7098 62.0645 83.5544 62.1942 83.3514 62.2876C83.1501 62.3794 82.9231 62.4253 82.6702 62.4253C82.3497 62.4253 82.0808 62.3786 81.8634 62.2851C81.6476 62.1917 81.4777 62.0516 81.3537 61.8648C81.2313 61.6764 81.1669 61.4638 81.1604 61.2271Z" fill="#191919"/>
<path d="M78.5466 62.3649V58.8235H79.0153V61.9469H80.7594V62.3649H78.5466Z" fill="#191919"/>
<path d="M76.4426 62.3649V59.2414H75.2758V58.8235H78.0828V59.2414H76.9112V62.3649H76.4426Z" fill="#191919"/>
<path d="M73.7829 62.4253L74.8096 58.7631H75.1574L74.1332 62.4253H73.7829Z" fill="#191919"/>
<path d="M71.3914 62.3649V58.8235H71.86V61.9469H73.6041V62.3649H71.3914Z" fill="#191919"/>
<path d="M67.9514 61.2271L68.3935 61.1884C68.4144 61.3656 68.4627 61.5113 68.5384 61.6257C68.6157 61.7384 68.7349 61.8302 68.896 61.9011C69.057 61.9703 69.2382 62.0049 69.4395 62.0049C69.6183 62.0049 69.7761 61.9784 69.913 61.9252C70.0499 61.8721 70.1513 61.7996 70.2173 61.7078C70.285 61.6144 70.3188 61.5129 70.3188 61.4034C70.3188 61.2923 70.2866 61.1957 70.2222 61.1135C70.1578 61.0298 70.0515 60.9597 69.9033 60.9034C69.8083 60.8663 69.5981 60.8092 69.2728 60.7319C68.9475 60.6529 68.7196 60.5789 68.5892 60.5096C68.4201 60.421 68.2936 60.3115 68.2099 60.1811C68.1278 60.049 68.0867 59.9017 68.0867 59.739C68.0867 59.5602 68.1374 59.3936 68.2389 59.239C68.3404 59.0827 68.4885 58.9644 68.6834 58.8839C68.8783 58.8033 69.0949 58.7631 69.3332 58.7631C69.5957 58.7631 69.8268 58.8057 70.0265 58.8911C70.2278 58.9748 70.3824 59.0989 70.4903 59.2631C70.5982 59.4274 70.6562 59.6134 70.6642 59.8211L70.2149 59.855C70.1908 59.6311 70.1086 59.462 69.9685 59.3477C69.83 59.2333 69.6247 59.1762 69.3525 59.1762C69.0691 59.1762 68.8621 59.2285 68.7317 59.3332C68.6029 59.4362 68.5384 59.5611 68.5384 59.7076C68.5384 59.8348 68.5843 59.9395 68.6761 60.0216C68.7663 60.1038 69.0014 60.1883 69.3815 60.2753C69.7632 60.3606 70.0249 60.4355 70.1666 60.5C70.3728 60.595 70.5249 60.7158 70.6232 60.8623C70.7214 61.0072 70.7705 61.1747 70.7705 61.3648C70.7705 61.5532 70.7166 61.7311 70.6087 61.8986C70.5008 62.0645 70.3454 62.1942 70.1425 62.2876C69.9412 62.3794 69.7141 62.4253 69.4612 62.4253C69.1408 62.4253 68.8718 62.3786 68.6544 62.2851C68.4386 62.1917 68.2687 62.0516 68.1447 61.8648C68.0223 61.6764 67.9579 61.4638 67.9514 61.2271Z" fill="#191919"/>
<path d="M64.6516 61.2271L65.0937 61.1884C65.1146 61.3656 65.1629 61.5113 65.2386 61.6257C65.3159 61.7384 65.4351 61.8302 65.5961 61.9011C65.7572 61.9703 65.9384 62.0049 66.1397 62.0049C66.3184 62.0049 66.4762 61.9784 66.6131 61.9252C66.75 61.8721 66.8515 61.7996 66.9175 61.7078C66.9852 61.6144 67.019 61.5129 67.019 61.4034C67.019 61.2923 66.9868 61.1957 66.9223 61.1135C66.8579 61.0298 66.7516 60.9597 66.6035 60.9034C66.5085 60.8663 66.2983 60.8092 65.973 60.7319C65.6477 60.6529 65.4198 60.5789 65.2893 60.5096C65.1202 60.421 64.9938 60.3115 64.9101 60.1811C64.8279 60.049 64.7869 59.9017 64.7869 59.739C64.7869 59.5602 64.8376 59.3936 64.9391 59.239C65.0405 59.0827 65.1887 58.9644 65.3836 58.8839C65.5784 58.8033 65.795 58.7631 66.0334 58.7631C66.2959 58.7631 66.527 58.8057 66.7267 58.8911C66.928 58.9748 67.0826 59.0989 67.1905 59.2631C67.2984 59.4274 67.3564 59.6134 67.3644 59.8211L66.9151 59.855C66.8909 59.6311 66.8088 59.462 66.6687 59.3477C66.5302 59.2333 66.3249 59.1762 66.0527 59.1762C65.7693 59.1762 65.5623 59.2285 65.4319 59.3332C65.303 59.4362 65.2386 59.5611 65.2386 59.7076C65.2386 59.8348 65.2845 59.9395 65.3763 60.0216C65.4665 60.1038 65.7016 60.1883 66.0817 60.2753C66.4634 60.3606 66.7251 60.4355 66.8668 60.5C67.0729 60.595 67.2251 60.7158 67.3233 60.8623C67.4216 61.0072 67.4707 61.1747 67.4707 61.3648C67.4707 61.5532 67.4168 61.7311 67.3089 61.8986C67.201 62.0645 67.0455 62.1942 66.8426 62.2876C66.6413 62.3794 66.4142 62.4253 66.1614 62.4253C65.8409 62.4253 65.572 62.3786 65.3546 62.2851C65.1388 62.1917 64.9689 62.0516 64.8448 61.8648C64.7225 61.6764 64.658 61.4638 64.6516 61.2271Z" fill="#191919"/>
<path d="M62.2891 62.3649V62.0412C62.1264 62.2956 61.8872 62.4228 61.5716 62.4228C61.3671 62.4228 61.1786 62.3665 61.0063 62.2537C60.8356 62.141 60.7028 61.984 60.6077 61.7827C60.5143 61.5798 60.4676 61.3471 60.4676 61.0845C60.4676 60.8285 60.5103 60.5966 60.5957 60.3888C60.681 60.1795 60.809 60.0192 60.9798 59.9081C61.1505 59.797 61.3413 59.7414 61.5523 59.7414C61.7069 59.7414 61.8446 59.7744 61.9654 59.8405C62.0861 59.9049 62.1844 59.9894 62.2601 60.0941V58.8235H62.6925V62.3649H62.2891ZM60.9145 61.0845C60.9145 61.4131 60.9838 61.6587 61.1223 61.8213C61.2608 61.984 61.4242 62.0653 61.6127 62.0653C61.8027 62.0653 61.9637 61.988 62.0958 61.8334C62.2295 61.6772 62.2963 61.4397 62.2963 61.1208C62.2963 60.7697 62.2287 60.512 62.0934 60.3478C61.9581 60.1835 61.7914 60.1014 61.5933 60.1014C61.4001 60.1014 61.2382 60.1803 61.1078 60.3381C60.9789 60.4959 60.9145 60.7447 60.9145 61.0845Z" fill="#191919"/>
<path d="M57.8708 62.3649V59.7994H58.2621V60.1642C58.4505 59.8823 58.7227 59.7414 59.0786 59.7414C59.2332 59.7414 59.3749 59.7696 59.5038 59.826C59.6342 59.8807 59.7316 59.9532 59.7961 60.0434C59.8605 60.1336 59.9056 60.2407 59.9313 60.3647C59.9474 60.4452 59.9555 60.5861 59.9555 60.7874V62.3649H59.5207V60.8043C59.5207 60.6272 59.5038 60.4951 59.4699 60.4082C59.4361 60.3196 59.3757 60.2495 59.2888 60.198C59.2034 60.1448 59.1028 60.1183 58.9868 60.1183C58.8016 60.1183 58.6414 60.1771 58.5061 60.2946C58.3724 60.4122 58.3056 60.6352 58.3056 60.9638V62.3649H57.8708Z" fill="#191919"/>
<path d="M56.7909 62.0484C56.6299 62.1853 56.4745 62.2819 56.3247 62.3383C56.1766 62.3947 56.0171 62.4228 55.8464 62.4228C55.5646 62.4228 55.348 62.3544 55.1966 62.2175C55.0452 62.079 54.9695 61.9027 54.9695 61.6885C54.9695 61.5629 54.9977 61.4485 55.0541 61.3454C55.112 61.2408 55.1869 61.157 55.2787 61.0942C55.3721 61.0314 55.4768 60.9839 55.5928 60.9517C55.6781 60.9291 55.807 60.9074 55.9793 60.8865C56.3304 60.8446 56.5888 60.7947 56.7547 60.7367C56.7563 60.6771 56.7571 60.6393 56.7571 60.6232C56.7571 60.446 56.7161 60.3212 56.6339 60.2487C56.5228 60.1505 56.3577 60.1014 56.1387 60.1014C55.9342 60.1014 55.7828 60.1376 55.6846 60.2101C55.5879 60.2809 55.5163 60.4074 55.4696 60.5893L55.0444 60.5314C55.0831 60.3494 55.1467 60.2028 55.2352 60.0917C55.3238 59.979 55.4518 59.8928 55.6193 59.8332C55.7868 59.772 55.9809 59.7414 56.2015 59.7414C56.4205 59.7414 56.5985 59.7672 56.7354 59.8187C56.8723 59.8703 56.9729 59.9355 57.0373 60.0144C57.1018 60.0917 57.1469 60.1899 57.1726 60.3091C57.1871 60.3832 57.1944 60.5169 57.1944 60.7101V61.2899C57.1944 61.6941 57.2032 61.9502 57.2209 62.0581C57.2403 62.1644 57.2773 62.2666 57.3321 62.3649H56.8779C56.8328 62.2747 56.8038 62.1692 56.7909 62.0484ZM56.7547 61.0773C56.5969 61.1417 56.3601 61.1965 56.0445 61.2416C55.8657 61.2673 55.7393 61.2963 55.6652 61.3285C55.5912 61.3607 55.534 61.4083 55.4937 61.4711C55.4535 61.5323 55.4333 61.6007 55.4333 61.6764C55.4333 61.7923 55.4768 61.889 55.5638 61.9663C55.6524 62.0436 55.7812 62.0822 55.9503 62.0822C56.1178 62.0822 56.2667 62.046 56.3972 61.9735C56.5276 61.8994 56.6235 61.7988 56.6847 61.6716C56.7314 61.5733 56.7547 61.4284 56.7547 61.2367V61.0773Z" fill="#191919"/>
<path d="M51.2469 63.3529L51.1986 62.9446C51.2936 62.9704 51.3766 62.9833 51.4474 62.9833C51.5441 62.9833 51.6214 62.9672 51.6793 62.935C51.7373 62.9028 51.7848 62.8577 51.8219 62.7997C51.8493 62.7562 51.8935 62.6483 51.9547 62.476C51.9628 62.4518 51.9757 62.4164 51.9934 62.3697L51.0199 59.7994H51.4885L52.0224 61.2851C52.0916 61.4735 52.1536 61.6716 52.2084 61.8793C52.2583 61.6796 52.3179 61.4847 52.3871 61.2947L52.9355 59.7994H53.3703L52.3944 62.4083C52.2897 62.6902 52.2084 62.8842 52.1504 62.9905C52.0731 63.1339 51.9845 63.2385 51.8847 63.3046C51.7848 63.3722 51.6657 63.406 51.5272 63.406C51.4434 63.406 51.35 63.3883 51.2469 63.3529Z" fill="#191919"/>
<path d="M48.5124 62.3649V58.8235H48.9472V60.0941C49.1501 59.859 49.4062 59.7414 49.7154 59.7414C49.9054 59.7414 50.0705 59.7793 50.2106 59.855C50.3507 59.929 50.4506 60.0321 50.5102 60.1642C50.5714 60.2962 50.6019 60.4879 50.6019 60.7391V62.3649H50.1671V60.7391C50.1671 60.5217 50.1196 60.3639 50.0246 60.2656C49.9312 60.1658 49.7983 60.1159 49.626 60.1159C49.4972 60.1159 49.3756 60.1497 49.2612 60.2173C49.1485 60.2833 49.068 60.3735 49.0197 60.4879C48.9714 60.6022 48.9472 60.76 48.9472 60.9613V62.3649H48.5124Z" fill="#191919"/>
<path d="M45.7585 63.348V59.7994H46.1547V60.1328C46.2481 60.0023 46.3536 59.9049 46.4711 59.8405C46.5887 59.7744 46.7312 59.7414 46.8987 59.7414C47.1177 59.7414 47.311 59.7978 47.4785 59.9105C47.646 60.0233 47.7724 60.1827 47.8577 60.3888C47.9431 60.5934 47.9858 60.818 47.9858 61.0628C47.9858 61.3253 47.9383 61.562 47.8432 61.773C47.7498 61.9824 47.6129 62.1434 47.4326 62.2562C47.2538 62.3673 47.0654 62.4228 46.8673 62.4228C46.7224 62.4228 46.5919 62.3922 46.476 62.331C46.3616 62.2698 46.2674 62.1925 46.1933 62.0991V63.348H45.7585ZM46.1523 61.0966C46.1523 61.4268 46.2191 61.6708 46.3528 61.8286C46.4864 61.9864 46.6483 62.0653 46.8383 62.0653C47.0316 62.0653 47.1966 61.984 47.3335 61.8213C47.472 61.6571 47.5413 61.4034 47.5413 61.0604C47.5413 60.7335 47.4736 60.4887 47.3384 60.326C47.2047 60.1634 47.0444 60.082 46.8576 60.082C46.6724 60.082 46.5082 60.169 46.3648 60.3429C46.2231 60.5153 46.1523 60.7665 46.1523 61.0966Z" fill="#191919"/>
<path d="M44.6787 62.0484C44.5176 62.1853 44.3622 62.2819 44.2125 62.3383C44.0643 62.3947 43.9049 62.4228 43.7341 62.4228C43.4523 62.4228 43.2357 62.3544 43.0843 62.2175C42.9329 62.079 42.8573 61.9027 42.8573 61.6885C42.8573 61.5629 42.8854 61.4485 42.9418 61.3454C42.9998 61.2408 43.0747 61.157 43.1665 61.0942C43.2599 61.0314 43.3645 60.9839 43.4805 60.9517C43.5659 60.9291 43.6947 60.9074 43.867 60.8865C44.2181 60.8446 44.4766 60.7947 44.6424 60.7367C44.6441 60.6771 44.6449 60.6393 44.6449 60.6232C44.6449 60.446 44.6038 60.3212 44.5217 60.2487C44.4105 60.1505 44.2455 60.1014 44.0264 60.1014C43.8219 60.1014 43.6705 60.1376 43.5723 60.2101C43.4757 60.2809 43.404 60.4074 43.3573 60.5893L42.9321 60.5314C42.9708 60.3494 43.0344 60.2028 43.123 60.0917C43.2116 59.979 43.3396 59.8928 43.5071 59.8332C43.6746 59.772 43.8686 59.7414 44.0893 59.7414C44.3083 59.7414 44.4862 59.7672 44.6231 59.8187C44.76 59.8703 44.8607 59.9355 44.9251 60.0144C44.9895 60.0917 45.0346 60.1899 45.0604 60.3091C45.0749 60.3832 45.0821 60.5169 45.0821 60.7101V61.2899C45.0821 61.6941 45.091 61.9502 45.1087 62.0581C45.128 62.1644 45.165 62.2666 45.2198 62.3649H44.7656C44.7206 62.2747 44.6916 62.1692 44.6787 62.0484ZM44.6424 61.0773C44.4846 61.1417 44.2479 61.1965 43.9322 61.2416C43.7535 61.2673 43.627 61.2963 43.553 61.3285C43.4789 61.3607 43.4217 61.4083 43.3815 61.4711C43.3412 61.5323 43.3211 61.6007 43.3211 61.6764C43.3211 61.7923 43.3645 61.889 43.4515 61.9663C43.5401 62.0436 43.6689 62.0822 43.838 62.0822C44.0055 62.0822 44.1545 62.046 44.2849 61.9735C44.4154 61.8994 44.5112 61.7988 44.5724 61.6716C44.6191 61.5733 44.6424 61.4284 44.6424 61.2367V61.0773Z" fill="#191919"/>
<path d="M41.3523 62.3649V59.7994H41.7436V60.1883C41.8435 60.0063 41.9353 59.8864 42.019 59.8284C42.1044 59.7704 42.1978 59.7414 42.2992 59.7414C42.4458 59.7414 42.5947 59.7881 42.7461 59.8815L42.5964 60.285C42.4901 60.2221 42.3838 60.1907 42.2775 60.1907C42.1825 60.1907 42.0971 60.2197 42.0214 60.2777C41.9457 60.3341 41.8918 60.413 41.8596 60.5144C41.8113 60.6691 41.7871 60.8381 41.7871 61.0217V62.3649H41.3523Z" fill="#191919"/>
<path d="M38.5235 62.5774L38.9463 62.6403C38.964 62.7707 39.0131 62.8657 39.0936 62.9253C39.2015 63.0058 39.3489 63.0461 39.5357 63.0461C39.737 63.0461 39.8924 63.0058 40.0019 62.9253C40.1114 62.8448 40.1855 62.732 40.2241 62.5871C40.2467 62.4985 40.2572 62.3125 40.2556 62.0291C40.0655 62.2529 39.8288 62.3649 39.5453 62.3649C39.1926 62.3649 38.9197 62.2376 38.7264 61.9832C38.5332 61.7287 38.4365 61.4235 38.4365 61.0676C38.4365 60.8228 38.4808 60.5974 38.5694 60.3912C38.658 60.1835 38.786 60.0233 38.9535 59.9105C39.1226 59.7978 39.3207 59.7414 39.5478 59.7414C39.8505 59.7414 40.1001 59.8638 40.2966 60.1086V59.7994H40.6976V62.017C40.6976 62.4164 40.6566 62.699 40.5744 62.8649C40.4939 63.0324 40.3651 63.1645 40.1879 63.2611C40.0124 63.3577 39.7958 63.406 39.5381 63.406C39.2321 63.406 38.9849 63.3368 38.7965 63.1983C38.6081 63.0614 38.5171 62.8544 38.5235 62.5774ZM38.8834 61.0362C38.8834 61.3728 38.9503 61.6184 39.0839 61.773C39.2176 61.9276 39.3851 62.0049 39.5864 62.0049C39.7861 62.0049 39.9536 61.9284 40.0889 61.7754C40.2241 61.6208 40.2918 61.3793 40.2918 61.0507C40.2918 60.7367 40.2217 60.5 40.0816 60.3405C39.9431 60.1811 39.7756 60.1014 39.5792 60.1014C39.3859 60.1014 39.2216 60.1803 39.0864 60.3381C38.9511 60.4943 38.8834 60.727 38.8834 61.0362Z" fill="#191919"/>
<path d="M35.6875 61.0821C35.6875 60.607 35.8195 60.2552 36.0837 60.0265C36.3043 59.8364 36.5732 59.7414 36.8905 59.7414C37.2432 59.7414 37.5315 59.8574 37.7553 60.0893C37.9792 60.3196 38.0911 60.6385 38.0911 61.0459C38.0911 61.376 38.0412 61.6361 37.9413 61.8262C37.8431 62.0146 37.6989 62.1611 37.5089 62.2658C37.3205 62.3705 37.1144 62.4228 36.8905 62.4228C36.5314 62.4228 36.2407 62.3077 36.0184 62.0774C35.7978 61.8471 35.6875 61.5153 35.6875 61.0821ZM36.1344 61.0821C36.1344 61.4107 36.2061 61.6571 36.3494 61.8213C36.4927 61.984 36.6731 62.0653 36.8905 62.0653C37.1063 62.0653 37.2859 61.9832 37.4292 61.8189C37.5725 61.6547 37.6442 61.4042 37.6442 61.0676C37.6442 60.7504 37.5717 60.5104 37.4268 60.3478C37.2835 60.1835 37.1047 60.1014 36.8905 60.1014C36.6731 60.1014 36.4927 60.1827 36.3494 60.3453C36.2061 60.508 36.1344 60.7536 36.1344 61.0821Z" fill="#191919"/>
<path d="M35.4218 61.9759L35.4846 62.36C35.3622 62.3858 35.2527 62.3987 35.156 62.3987C34.9982 62.3987 34.8758 62.3737 34.7888 62.3238C34.7019 62.2739 34.6407 62.2086 34.6053 62.1281C34.5698 62.046 34.5521 61.8745 34.5521 61.6136V60.1376H34.2332V59.7994H34.5521V59.1641L34.9845 58.9032V59.7994H35.4218V60.1376H34.9845V61.6377C34.9845 61.7617 34.9918 61.8415 35.0063 61.8769C35.0224 61.9123 35.0473 61.9405 35.0811 61.9614C35.1166 61.9824 35.1665 61.9928 35.2309 61.9928C35.2792 61.9928 35.3428 61.9872 35.4218 61.9759Z" fill="#191919"/>
<path d="M31.7185 63.348V59.7994H32.1147V60.1328C32.2081 60.0023 32.3136 59.9049 32.4311 59.8405C32.5487 59.7744 32.6912 59.7414 32.8587 59.7414C33.0777 59.7414 33.271 59.7978 33.4385 59.9105C33.606 60.0233 33.7324 60.1827 33.8177 60.3888C33.9031 60.5934 33.9458 60.818 33.9458 61.0628C33.9458 61.3253 33.8983 61.562 33.8032 61.773C33.7098 61.9824 33.573 62.1434 33.3926 62.2562C33.2138 62.3673 33.0254 62.4228 32.8273 62.4228C32.6824 62.4228 32.5519 62.3922 32.436 62.331C32.3216 62.2698 32.2274 62.1925 32.1533 62.0991V63.348H31.7185ZM32.1123 61.0966C32.1123 61.4268 32.1791 61.6708 32.3128 61.8286C32.4464 61.9864 32.6083 62.0653 32.7983 62.0653C32.9916 62.0653 33.1566 61.984 33.2935 61.8213C33.432 61.6571 33.5013 61.4034 33.5013 61.0604C33.5013 60.7335 33.4336 60.4887 33.2984 60.326C33.1647 60.1634 33.0045 60.082 32.8176 60.082C32.6324 60.082 32.4682 60.169 32.3248 60.3429C32.1831 60.5153 32.1123 60.7665 32.1123 61.0966Z" fill="#191919"/>
<path d="M29.2255 63.3529L29.1772 62.9446C29.2722 62.9704 29.3552 62.9833 29.426 62.9833C29.5226 62.9833 29.5999 62.9672 29.6579 62.935C29.7159 62.9028 29.7634 62.8577 29.8005 62.7997C29.8278 62.7562 29.8721 62.6483 29.9333 62.476C29.9414 62.4518 29.9543 62.4164 29.972 62.3697L28.9984 59.7994H29.4671L30.001 61.2851C30.0702 61.4735 30.1322 61.6716 30.187 61.8793C30.2369 61.6796 30.2965 61.4847 30.3657 61.2947L30.9141 59.7994H31.3489L30.373 62.4083C30.2683 62.6902 30.187 62.8842 30.129 62.9905C30.0517 63.1339 29.9631 63.2385 29.8633 63.3046C29.7634 63.3722 29.6442 63.406 29.5057 63.406C29.422 63.406 29.3286 63.3883 29.2255 63.3529Z" fill="#191919"/>
<path d="M27.5925 62.3649V59.7994H27.9839V60.1883C28.0837 60.0063 28.1755 59.8864 28.2592 59.8284C28.3446 59.7704 28.438 59.7414 28.5395 59.7414C28.686 59.7414 28.835 59.7881 28.9864 59.8815L28.8366 60.285C28.7303 60.2221 28.624 60.1907 28.5177 60.1907C28.4227 60.1907 28.3373 60.2197 28.2617 60.2777C28.186 60.3341 28.132 60.413 28.0998 60.5144C28.0515 60.6691 28.0273 60.8381 28.0273 61.0217V62.3649H27.5925Z" fill="#191919"/>
<path d="M26.6045 61.1232L27.0731 61.2416C26.9749 61.6265 26.7978 61.9204 26.5417 62.1233C26.2872 62.3246 25.9756 62.4253 25.6068 62.4253C25.2251 62.4253 24.9143 62.348 24.6744 62.1933C24.436 62.0371 24.254 61.8117 24.1284 61.517C24.0044 61.2222 23.9424 60.9058 23.9424 60.5676C23.9424 60.1988 24.0125 59.8775 24.1526 59.6037C24.2943 59.3283 24.4948 59.1198 24.7541 58.9781C25.015 58.8347 25.3016 58.7631 25.6141 58.7631C25.9684 58.7631 26.2663 58.8533 26.5079 59.0336C26.7494 59.214 26.9177 59.4676 27.0127 59.7946L26.5513 59.9033C26.4692 59.6456 26.35 59.458 26.1938 59.3404C26.0376 59.2229 25.8411 59.1641 25.6044 59.1641C25.3322 59.1641 25.1044 59.2293 24.9208 59.3597C24.7388 59.4902 24.6107 59.6657 24.5367 59.8864C24.4626 60.1054 24.4255 60.3317 24.4255 60.5652C24.4255 60.8663 24.469 61.1296 24.556 61.3551C24.6446 61.579 24.7815 61.7464 24.9667 61.8576C25.1519 61.9687 25.3524 62.0243 25.5682 62.0243C25.8307 62.0243 26.0529 61.9486 26.2349 61.7972C26.4169 61.6458 26.5401 61.4211 26.6045 61.1232Z" fill="#191919"/>
</g>
<defs>
<clipPath id="clip0_2377_7932">
<rect width="100" height="100" fill="white" transform="translate(0.796387 0.780029)"/>
</clipPath>
</defs>
</svg>
