<svg width="101" height="101" viewBox="0 0 101 101" fill="none" xmlns="http://www.w3.org/2000/svg">
<g clip-path="url(#clip0_2377_7926)">
<path d="M50.1377 42.0662C50.2028 42.0942 50.2679 42.1221 50.335 42.1509C51.9889 42.9133 53.5989 44.4865 54.3588 46.1391C54.3767 46.0515 54.3947 45.9639 54.4132 45.8736C54.7395 44.3166 55.3659 43.0812 56.6669 42.1139C58.258 41.0809 60.3231 40.9094 62.1576 41.2932C63.3846 41.5809 64.4616 42.1823 65.3928 43.0289C65.3542 43.3282 65.2806 43.4749 65.0706 43.6899C65.0197 43.7428 64.9688 43.7957 64.9164 43.8503C64.8628 43.9045 64.8093 43.9588 64.7541 44.0147C64.6497 44.1223 64.5453 44.23 64.4411 44.3378C64.3897 44.3909 64.3383 44.4439 64.2854 44.4986C63.9929 44.8065 63.7157 45.1269 63.4483 45.4567C63.4027 45.5124 63.3571 45.5681 63.3101 45.6254C63.264 45.6828 63.218 45.7401 63.1706 45.7992C63.0231 45.917 63.0231 45.917 62.8576 45.9181C62.5727 45.8135 62.3158 45.6711 62.0511 45.5236C61.2897 45.1129 60.5835 44.737 59.6907 44.8802C59.1907 45.0719 58.9492 45.4079 58.7095 45.8753C58.5755 46.3331 58.6657 46.667 58.8564 47.0862C59.3747 47.9917 60.508 48.3913 61.4233 48.7911C62.4098 49.2224 63.381 49.6595 64.208 50.3602C64.2813 50.4091 64.3546 50.458 64.4301 50.5083C64.4301 50.5572 64.4301 50.6061 64.4301 50.6564C64.479 50.6564 64.5279 50.6564 64.5782 50.6564C65.7808 51.9937 66.0275 53.4305 65.9852 55.1737C66.3518 54.7338 66.3518 54.7338 66.7258 54.2851C67.1244 54.3648 67.1914 54.4225 67.4663 54.697C68.2406 55.4253 69.1824 56.016 70.2804 55.9883C70.9013 55.8745 71.3589 55.5734 71.7152 55.058C71.9607 54.6793 72.0213 54.3676 71.9836 53.9148C71.7919 53.2684 71.2502 52.8472 70.683 52.5263C70.5742 52.4694 70.4645 52.4141 70.3544 52.3597C70.2291 52.2934 70.2291 52.2934 70.1013 52.2257C69.5783 51.9643 69.0218 51.7739 68.4747 51.5695C67.0859 51.037 65.988 50.2871 65.3373 48.9162C64.7343 47.51 64.7037 45.95 65.2262 44.5053C65.7675 43.2333 66.775 42.1854 68.0336 41.6051C68.9103 41.2668 69.803 41.1371 70.7386 41.1451C70.832 41.1458 70.9254 41.1464 71.0217 41.147C72.9227 41.1811 74.4395 41.8356 75.9085 43.0289C75.8707 43.3439 75.6908 43.5035 75.478 43.7278C75.4037 43.8069 75.3293 43.8861 75.255 43.9653C75.197 44.0265 75.197 44.0265 75.1377 44.089C74.9454 44.2924 74.756 44.4985 74.5662 44.7044C74.511 44.7641 74.511 44.7641 74.4547 44.825C74.1213 45.186 73.7922 45.5506 73.4647 45.917C73.253 45.8716 73.0837 45.8064 72.8954 45.7003C72.8441 45.672 72.7928 45.6436 72.74 45.6144C72.6859 45.5844 72.6318 45.5544 72.576 45.5236C71.8013 45.1067 71.0365 44.7333 70.1323 44.8802C69.71 45.0424 69.4599 45.2969 69.2436 45.6948C69.1017 46.1205 69.0926 46.6199 69.2714 47.037C69.7943 47.9134 70.7207 48.27 71.6133 48.657C73.5798 49.5109 74.9501 50.2752 76.0566 52.2116C76.081 48.6436 76.1054 45.0757 76.1306 41.3997C77.852 41.3982 79.5733 41.3966 81.3468 41.3951C82.1635 41.3941 82.1635 41.3941 82.9966 41.393C83.6591 41.3927 83.6591 41.3927 83.9688 41.3926C84.1861 41.3926 84.4033 41.3923 84.6206 41.3919C84.8973 41.3914 85.1739 41.3912 85.4505 41.3913C85.6007 41.3913 85.7508 41.3909 85.9009 41.3905C85.9887 41.3906 86.0765 41.3907 86.1669 41.3908C86.2439 41.3907 86.3208 41.3907 86.4 41.3906C86.5722 41.3997 86.5722 41.3997 86.6463 41.4738C86.6536 41.587 86.6558 41.7006 86.6559 41.8141C86.6562 41.9227 86.6562 41.9227 86.6566 42.0335C86.6564 42.1122 86.6563 42.191 86.6561 42.2721C86.6562 42.3524 86.6563 42.4327 86.6563 42.5154C86.6564 42.6854 86.6562 42.8555 86.6559 43.0256C86.6555 43.2869 86.6559 43.5483 86.6564 43.8096C86.6563 43.9744 86.6563 44.1392 86.6561 44.304C86.6563 44.3828 86.6564 44.4615 86.6566 44.5427C86.6563 44.6151 86.6561 44.6875 86.6559 44.7621C86.6558 44.8582 86.6558 44.8582 86.6557 44.9562C86.6463 45.1024 86.6463 45.1024 86.5722 45.1764C86.3762 45.1835 86.1821 45.1857 85.986 45.1849C85.9246 45.1849 85.8632 45.1849 85.7999 45.1849C85.596 45.1848 85.392 45.1843 85.188 45.1837C85.047 45.1835 84.906 45.1834 84.765 45.1834C84.3931 45.1831 84.0211 45.1823 83.6492 45.1815C83.2034 45.1806 82.7575 45.1803 82.3117 45.1799C81.6337 45.1791 80.9557 45.1777 80.2776 45.1764C80.2776 46.3495 80.2776 47.5225 80.2776 48.731C82.2571 48.731 84.2366 48.731 86.276 48.731C86.2783 49.6452 86.2783 49.6452 86.2806 50.5777C86.2813 50.7704 86.282 50.963 86.2827 51.1615C86.2829 51.3132 86.2831 51.4648 86.2832 51.6165C86.2836 51.6961 86.284 51.7757 86.2844 51.8576C86.2844 51.9328 86.2844 52.008 86.2844 52.0854C86.2846 52.151 86.2847 52.2166 86.2849 52.2843C86.276 52.4337 86.276 52.4337 86.202 52.5078C86.0172 52.5148 85.8345 52.5171 85.6497 52.5162C85.5919 52.5162 85.5341 52.5162 85.4746 52.5162C85.2826 52.5162 85.0907 52.5156 84.8988 52.515C84.7661 52.5149 84.6333 52.5148 84.5006 52.5147C84.1506 52.5144 83.8006 52.5137 83.4506 52.5129C83.031 52.512 82.6114 52.5116 82.1918 52.5112C81.5538 52.5105 80.9157 52.5091 80.2776 52.5078C80.2776 53.6808 80.2776 54.8538 80.2776 56.0624C82.3793 56.0624 84.4809 56.0624 86.6463 56.0624C86.7325 58.0456 86.7325 58.0456 86.7296 58.9042C86.7299 58.9948 86.7302 59.0854 86.7305 59.1787C86.7304 59.2643 86.7303 59.35 86.7302 59.4382C86.73 59.5516 86.73 59.5516 86.7299 59.6674C86.7203 59.8391 86.7203 59.8391 86.6463 59.9132C86.5115 59.9205 86.3764 59.9225 86.2415 59.9226C86.1536 59.9228 86.0658 59.923 85.9753 59.9232C85.878 59.9231 85.7807 59.9229 85.6805 59.9227C85.5778 59.9228 85.475 59.923 85.3723 59.9231C85.0924 59.9235 84.8126 59.9233 84.5328 59.9231C84.2405 59.9229 83.9483 59.9231 83.6561 59.9232C83.1653 59.9233 82.6744 59.9232 82.1836 59.9228C81.6154 59.9224 81.0471 59.9225 80.4788 59.923C79.9918 59.9233 79.5048 59.9233 79.0178 59.9231C78.7265 59.923 78.4353 59.923 78.144 59.9233C77.8702 59.9235 77.5965 59.9233 77.3227 59.9229C77.1737 59.9228 77.0247 59.923 76.8757 59.9232C76.7879 59.923 76.7 59.9228 76.6095 59.9226C76.5327 59.9225 76.4558 59.9225 76.3767 59.9225C76.2047 59.9132 76.2047 59.9132 76.1306 59.8391C76.1216 59.7301 76.1175 59.6206 76.1154 59.5112C76.1139 59.4415 76.1125 59.3718 76.1109 59.3001C76.1097 59.2243 76.1085 59.1486 76.1072 59.0705C76.1057 58.9934 76.1041 58.9162 76.1025 58.8367C76.0977 58.5892 76.0933 58.3417 76.089 58.0942C76.0858 57.9269 76.0825 57.7595 76.0793 57.5922C76.0713 57.181 76.0638 56.7698 76.0566 56.3586C76.0316 56.4092 76.0066 56.4598 75.9808 56.5119C75.9478 56.5785 75.9147 56.645 75.8807 56.7135C75.848 56.7794 75.8154 56.8453 75.7818 56.9132C75.5785 57.309 75.3401 57.6076 75.0198 57.9137C74.9489 57.9882 74.9489 57.9882 74.8766 58.0641C73.732 59.2557 72.1523 60.1029 70.4788 60.1602C68.212 60.191 66.5437 59.4818 64.8143 58.0358C64.6664 57.8989 64.6664 57.8989 64.5042 57.9137C64.4153 58.0199 64.3267 58.1263 64.24 58.2343C63.2942 59.3377 61.6925 60.0373 60.2667 60.155C59.2541 60.2068 58.2801 60.1882 57.3209 59.8391C57.2488 59.8129 57.2488 59.8129 57.1752 59.7861C56.0527 59.3662 55.1158 58.6878 54.2107 57.9137C54.1198 57.838 54.0287 57.7624 53.9376 57.6869C53.8811 57.6396 53.8246 57.5922 53.7664 57.5434C53.8024 57.1956 53.9438 57.0182 54.169 56.7566C54.3428 56.553 54.5065 56.3592 54.655 56.1364C54.7039 56.1364 54.7528 56.1364 54.8031 56.1364C54.8188 56.0979 54.8344 56.0595 54.8506 56.0198C54.9941 55.7636 55.1839 55.5559 55.377 55.3357C55.415 55.2919 55.453 55.2482 55.4922 55.2031C55.5689 55.1146 55.646 55.0265 55.7234 54.9386C55.8035 54.8457 55.8814 54.7509 55.9575 54.6547C56.0144 54.5835 56.0144 54.5835 56.0724 54.511C56.1061 54.4677 56.1397 54.4244 56.1743 54.3798C56.2842 54.2851 56.2842 54.2851 56.5804 54.2851C56.6705 54.3677 56.7598 54.4515 56.8434 54.5408C57.2093 54.9314 57.6084 55.2276 58.0707 55.4931C58.1141 55.5181 58.1575 55.5431 58.2022 55.5688C58.8058 55.9052 59.4501 56.084 60.135 55.9235C60.6997 55.7275 61.1735 55.2979 61.4448 54.7664C61.5934 54.3596 61.5693 54.0085 61.4029 53.6114C60.7988 52.519 59.3233 52.0893 58.2374 51.6562C57.1481 51.2208 56.1348 50.7858 55.3955 49.8418C55.3973 49.9271 55.399 50.0123 55.4007 50.1002C55.4367 52.6648 54.8795 54.9256 53.248 56.951C53.2085 57.0019 53.1689 57.0528 53.1282 57.1052C52.9061 57.3807 52.6656 57.5861 52.3778 57.7911C52.1867 57.9318 52.0081 58.0841 51.8271 58.2377C50.6939 59.1641 49.4139 59.6954 47.9902 59.9872C47.912 60.0039 47.8338 60.0206 47.7532 60.0378C45.2696 60.4808 42.6697 59.9846 40.583 58.5773C40.1663 58.2816 39.774 57.9653 39.3999 57.6175C39.3227 57.5488 39.3227 57.5488 39.244 57.4786C37.7174 56.052 36.8122 53.8632 36.7127 51.7924C36.7036 51.498 36.7027 51.2039 36.705 50.9094C36.7062 50.7305 36.705 50.5518 36.7036 50.3729C36.7001 47.8376 37.6996 45.6037 39.4416 43.774C40.51 42.7337 41.7531 41.9871 43.1767 41.5478C43.2478 41.5258 43.3189 41.5039 43.3922 41.4813C45.6065 40.866 48.0554 41.1415 50.1377 42.0662ZM42.4113 46.475C42.3156 46.5984 42.2246 46.7239 42.1353 46.8519C42.1033 46.8973 42.0713 46.9427 42.0383 46.9895C41.7722 47.3766 41.5662 47.7729 41.3994 48.2127C41.3776 48.2687 41.3558 48.3247 41.3334 48.3825C41.0678 49.1181 41.002 49.8604 41.0059 50.6379C41.0063 50.7224 41.0066 50.8068 41.0069 50.8938C41.0154 51.5304 41.0697 52.1165 41.2513 52.7299C41.2702 52.7942 41.2891 52.8584 41.3085 52.9246C41.7276 54.1223 42.6485 55.2112 43.7627 55.8107C44.9973 56.3702 46.4368 56.4768 47.7313 56.0511C49.1068 55.506 49.9913 54.5388 50.593 53.2084C51.2693 51.5253 51.1875 49.5485 50.5505 47.871C50.0249 46.7403 49.1445 45.8673 47.9948 45.3801C47.8704 45.3352 47.7454 45.292 47.6199 45.2505C47.5575 45.2284 47.495 45.2062 47.4307 45.1834C45.7317 44.6636 43.6041 45.1029 42.4113 46.475ZM65.8371 55.2478C65.9112 55.3959 65.9112 55.3959 65.9112 55.3959L65.8371 55.2478Z" fill="#191919"/>
<path d="M14.9621 33.9943C15.0118 34.01 15.0615 34.0258 15.1126 34.042C16.4462 34.4882 17.7494 35.1697 18.887 35.9938C19.0027 36.0729 19.0027 36.0729 19.1207 36.1537C19.554 36.4551 19.554 36.4551 19.7016 36.5862C19.7016 36.6595 19.7016 36.7328 19.7016 36.8084C19.6045 36.8247 19.6045 36.8247 19.5054 36.8413C18.2833 37.0642 17.1573 37.46 16.0729 38.0673C16.0231 38.0951 15.9733 38.123 15.9219 38.1517C15.1656 38.5824 14.5424 39.0854 13.9254 39.6965C13.8717 39.7456 13.8181 39.7948 13.7628 39.8454C12.8088 40.7357 12.1509 41.9238 11.6297 43.1029C11.742 43.0159 11.742 43.0159 11.8565 42.9271C14.093 41.2546 16.5885 40.1834 19.3708 39.8654C19.4865 39.8522 19.6021 39.8382 19.7176 39.8232C23.2793 39.3772 27.0884 40.5278 29.9264 42.6954C31.5685 43.976 32.8709 45.4621 33.9146 47.2641C33.9826 47.3788 34.0564 47.49 34.1314 47.6003C34.2689 47.8729 34.1764 48.0419 34.0874 48.322C34.0566 48.4081 34.0257 48.4942 33.994 48.5829C33.9753 48.6352 33.9567 48.6875 33.9375 48.7414C33.5153 49.9049 32.9846 51.0837 32.2167 52.0635C32.1678 52.0635 32.1189 52.0635 32.0686 52.0635C32.0411 52.123 32.0411 52.123 32.013 52.1838C31.8957 52.4068 31.7816 52.6062 31.6242 52.804C31.4206 52.8318 31.4206 52.8318 31.254 52.804C31.1662 52.5501 31.0867 52.2954 31.015 52.0366C30.5146 50.2474 29.6777 48.7242 28.3659 47.3981C28.3185 47.3462 28.2712 47.2944 28.2224 47.241C27.3641 46.3216 26.1388 45.5336 24.9594 45.1024C24.9837 45.134 25.0081 45.1656 25.0332 45.1981C26.4683 47.0844 27.46 49.1096 28.0234 51.4155C28.042 51.4909 28.042 51.4909 28.0611 51.5678C28.1345 51.8862 28.1547 52.1817 28.1437 52.5078C28.0948 52.5078 28.046 52.5078 27.9956 52.5078C28.02 52.5567 28.0445 52.6055 28.0697 52.6559C28.0851 52.8176 28.0969 52.9797 28.1067 53.1419C28.1241 53.4255 28.145 53.7012 28.1886 53.9822C28.25 54.5226 28.1788 55.0694 28.1298 55.6088C28.1247 55.6668 28.1196 55.7247 28.1143 55.7845C27.9819 57.2571 27.6534 58.5858 27.181 59.9872C27.1321 59.9872 27.0833 59.9872 27.0329 59.9872C27.0284 60.0572 27.0239 60.1272 27.0193 60.1993C26.9627 60.5911 26.7704 60.9158 26.584 61.26C26.5472 61.3289 26.5104 61.3978 26.4725 61.4688C26.0579 62.2358 25.5806 62.9369 25.0335 63.6159C24.9868 63.6763 24.9401 63.7367 24.892 63.799C23.8033 65.1808 22.4622 66.2659 20.9605 67.1704C20.9036 67.2064 20.8467 67.2424 20.7881 67.2795C20.4028 67.5033 20.1184 67.4947 19.7016 67.3926C19.0689 67.2215 18.5031 66.9549 17.9243 66.6521C17.8009 66.5917 17.6775 66.5315 17.554 66.4716C16.932 66.1591 16.3376 65.8015 15.7582 65.4163C15.6769 65.3625 15.5955 65.3088 15.5117 65.2534C15.4526 65.2018 15.3934 65.1501 15.3324 65.0969C15.3324 64.9992 15.3324 64.9014 15.3324 64.8007C15.404 64.7819 15.4756 64.7631 15.5494 64.7437C15.8013 64.6774 16.0528 64.6096 16.3043 64.5415C16.4159 64.5118 16.528 64.4837 16.6402 64.4562C18.081 64.0781 20.1269 62.9408 20.9605 61.6905C21.0094 61.6905 21.0582 61.6905 21.1086 61.6905C21.1384 61.6263 21.1384 61.6263 21.1688 61.5609C21.2589 61.3901 21.3532 61.2446 21.4789 61.098C21.5277 61.098 21.5766 61.098 21.627 61.098C21.6522 61.0201 21.6522 61.0201 21.6779 60.9407C21.7746 60.7289 21.8945 60.5839 22.0458 60.4093C22.2379 60.1664 22.3718 59.8901 22.5156 59.6169C22.5672 59.5203 22.6189 59.4237 22.6707 59.3271C22.817 59.0537 22.9626 58.78 23.1081 58.5061C22.9853 58.4371 22.9853 58.4371 22.8118 58.4321C22.6376 58.5369 22.4856 58.6417 22.3259 58.7653C22.2322 58.8348 22.1385 58.9041 22.0447 58.9733C21.9986 59.0076 21.9526 59.0418 21.9051 59.0771C20.9177 59.8023 19.8256 60.3474 18.6648 60.7278C18.5674 60.7657 18.4701 60.8042 18.3732 60.8435C17.9648 60.999 17.536 61.0955 17.1133 61.2041C17.0071 61.2335 16.9017 61.2659 16.797 61.3003C16.273 61.4716 15.755 61.5429 15.2074 61.5979C15.1135 61.6074 15.0196 61.6169 14.9229 61.6267C13.5282 61.7545 12.1529 61.6526 10.7842 61.3607C10.6471 61.3317 10.5095 61.3049 10.3717 61.2797C9.16715 61.0476 8.02903 60.6373 6.94952 60.0581C6.73439 59.9438 6.51607 59.8363 6.29782 59.728C6.1744 59.6663 6.05098 59.6046 5.92755 59.5429C5.92755 59.494 5.92755 59.4451 5.92755 59.3948C5.88851 59.3892 5.84947 59.3837 5.80924 59.378C5.55905 59.2975 5.3647 59.15 5.15462 58.9967C5.10947 58.9642 5.06432 58.9316 5.01781 58.8981C4.60982 58.5996 4.22395 58.2777 3.84219 57.9467C3.70843 57.8315 3.57245 57.7188 3.43373 57.6097C3.28116 57.4853 3.15731 57.3642 3.0302 57.2148C2.98648 57.1636 2.94275 57.1123 2.89771 57.0595C2.84673 56.9993 2.79576 56.939 2.74324 56.877C2.67791 56.8014 2.61253 56.7259 2.54711 56.6505C2.04323 56.0663 1.5588 55.4736 1.19129 54.7916C1.13093 54.6851 1.06517 54.5817 0.997475 54.4797C0.740731 54.0866 0.598368 53.7996 0.669729 53.3224C0.674311 53.266 0.678893 53.2095 0.683614 53.1514C0.861079 51.694 1.86679 50.182 2.72646 49.0284C2.88784 48.8098 3.03863 48.5879 3.18756 48.3608C3.26087 48.3852 3.33419 48.4096 3.40972 48.4348C3.46516 48.6339 3.5071 48.8246 3.54394 49.0272C3.64164 49.5121 3.76187 49.9775 3.9281 50.4435C3.94565 50.4934 3.96319 50.5432 3.98127 50.5945C4.09358 50.9018 4.22963 51.1892 4.37938 51.4799C4.47017 51.6683 4.52916 51.865 4.59458 52.0635C4.91045 52.6961 5.3192 53.2335 5.77945 53.7667C5.82345 53.8198 5.86746 53.8728 5.9128 53.9275C6.08066 54.1291 6.22629 54.2868 6.44593 54.4332C6.44593 54.4821 6.44593 54.5309 6.44593 54.5813C6.51237 54.6134 6.51237 54.6134 6.58015 54.6461C6.74215 54.7294 6.74215 54.7294 6.96431 54.8775C6.96431 54.9264 6.96431 54.9753 6.96431 55.0256C7.00555 55.0455 7.04679 55.0653 7.08927 55.0858C7.27624 55.1818 7.45581 55.2792 7.63079 55.3959C7.63079 55.4448 7.63079 55.4936 7.63079 55.544C7.70425 55.5703 7.70425 55.5703 7.77919 55.5972C8.11673 55.7416 8.42718 55.9308 8.74377 56.1159C9.23111 56.4036 9.23111 56.4036 9.77836 56.5067C9.63617 56.2029 9.47966 55.9525 9.26923 55.6921C8.6084 54.8254 7.99084 53.8455 7.62559 52.8147C7.56782 52.6533 7.56782 52.6533 7.45029 52.5541C7.27774 52.3746 7.20661 52.1589 7.12167 51.9292C7.10265 51.8781 7.08363 51.827 7.06403 51.7744C6.71846 50.8033 6.50374 49.7522 6.37188 48.731C6.36367 48.669 6.35546 48.6069 6.347 48.543C5.93047 44.6367 7.15367 40.7135 9.60617 37.6676C9.86415 37.3556 10.1383 37.059 10.4178 36.7663C10.5152 36.6642 10.6112 36.5608 10.7072 36.4575C11.5622 35.5637 12.579 34.841 13.6463 34.2214C13.7788 34.144 13.7788 34.144 13.903 34.051C14.2913 33.7842 14.5449 33.8538 14.9621 33.9943ZM16.5867 45.2505C16.524 45.2807 16.4614 45.3109 16.3968 45.342C14.3187 46.3645 12.2794 48.2792 11.4816 50.5083C11.5032 50.8685 11.6816 51.1918 11.8256 51.5184C11.9954 51.9035 11.9954 51.9035 12.0665 52.0895C12.4 52.9446 13.0258 53.7507 13.7032 54.3591C13.7613 54.4187 13.8193 54.4783 13.8791 54.5396C14.6617 55.3036 15.4851 55.9055 16.4432 56.4326C16.503 56.4668 16.5627 56.501 16.6243 56.5362C16.9872 56.7246 17.2029 56.7375 17.5947 56.6393C17.91 56.5376 18.1942 56.3871 18.4843 56.229C18.5435 56.1981 18.6026 56.1671 18.6635 56.1353C19.063 55.9217 19.4212 55.6774 19.7756 55.3959C19.878 55.3154 19.878 55.3154 19.9825 55.2333C20.041 55.1861 20.0995 55.139 20.1598 55.0904C20.2189 55.0429 20.278 54.9953 20.3388 54.9463C20.3974 54.8992 20.4559 54.852 20.5162 54.8034C20.5816 54.7524 20.6469 54.7013 20.7143 54.6487C20.9018 54.4946 21.0336 54.328 21.1827 54.137C21.2468 54.0743 21.311 54.0117 21.377 53.9472C21.5314 53.7887 21.6187 53.6726 21.701 53.4705C21.7499 53.4705 21.7988 53.4705 21.8491 53.4705C21.9962 53.3055 21.9962 53.3055 22.1454 53.0956C22.1973 53.026 22.2492 52.9564 22.3027 52.8847C22.4526 52.6378 22.511 52.4144 22.5897 52.1375C22.6625 51.998 22.7428 51.8652 22.8249 51.731C23.0824 51.3153 23.0824 51.3153 23.1922 50.8482C23.1357 50.6681 23.055 50.5237 22.9599 50.3602C22.9165 50.2697 22.8739 50.1788 22.8318 50.0877C21.7757 47.8326 20.0973 46.2507 17.9243 45.1024C17.8719 45.0719 17.8195 45.0415 17.7655 45.0101C17.3332 44.8345 16.9752 45.0612 16.5867 45.2505Z" fill="#191919"/>
<path d="M86.3501 52.3597C87.7675 52.3597 89.1848 52.3597 90.6452 52.3597C90.7429 52.604 90.8407 52.8484 90.9414 53.1002C91.4632 54.3099 92.253 55.1445 93.4546 55.6828C95.2303 56.3554 97.0206 56.0785 98.7171 55.3218C99.1989 55.0967 99.672 54.8539 100.14 54.6007C100.346 54.5072 100.346 54.5072 100.642 54.5072C100.642 56.0224 100.642 57.5375 100.642 59.0986C99.0353 59.683 97.3271 60.155 95.6068 60.2094C95.5388 60.2123 95.4709 60.2153 95.4008 60.2183C93.1228 60.2715 90.9869 59.5655 89.3229 57.9904C89.2202 57.8913 89.1181 57.7914 89.016 57.6915C88.9559 57.6351 88.8957 57.5787 88.8338 57.5206C87.7521 56.4851 86.984 55.1019 86.5815 53.6649C86.5664 53.6112 86.5514 53.5576 86.5359 53.5023C86.4339 53.1152 86.3952 52.7657 86.3501 52.3597Z" fill="#191919"/>
<path d="M100.568 42.3624C100.642 42.4365 100.642 42.4365 100.651 42.6168C100.651 42.6969 100.651 42.777 100.651 42.8595C100.651 42.95 100.651 43.0404 100.651 43.1336C100.65 43.233 100.65 43.3324 100.65 43.4318C100.65 43.533 100.649 43.6342 100.649 43.7354C100.649 44.0021 100.648 44.2688 100.648 44.5356C100.647 44.8076 100.646 45.0796 100.646 45.3516C100.645 45.8856 100.644 46.4197 100.642 46.9537C100.363 46.9105 100.141 46.869 99.8938 46.7287C99.8386 46.6981 99.7835 46.6676 99.7266 46.6362C99.6684 46.6035 99.6102 46.5708 99.5502 46.5372C97.8572 45.6214 95.9474 44.9834 94.0054 45.4079C93.1951 45.6593 92.5727 46.0566 91.9782 46.6575C91.9373 46.6959 91.8964 46.7343 91.8543 46.7738C91.3124 47.3303 91.0197 48.178 90.7192 48.8791C89.2774 48.8791 87.8356 48.8791 86.3501 48.8791C86.8092 46.354 88.1053 44.1699 90.2187 42.673C93.1586 40.6759 97.4657 40.6145 100.568 42.3624Z" fill="#191919"/>
<path d="M17.2856 48.2543C17.348 48.2549 17.4105 48.2555 17.4748 48.2562C18.1727 48.2752 18.6145 48.4833 19.1248 48.959C19.6923 49.5686 19.8122 50.2293 19.7985 51.0469C19.7438 51.7076 19.4559 52.219 18.961 52.6559C18.2353 53.1692 17.543 53.2847 16.6654 53.1743C16.0243 52.9761 15.4939 52.6039 15.1475 52.027C14.8014 51.3662 14.7043 50.7142 14.8973 49.9853C15.1523 49.2299 15.6075 48.7493 16.3075 48.3877C16.63 48.2544 16.9403 48.25 17.2856 48.2543Z" fill="#191919"/>
<path d="M76.1306 41.3997C77.852 41.3982 79.5733 41.3966 81.3468 41.3951C81.8913 41.3944 82.4357 41.3937 82.9966 41.393C83.6591 41.3927 83.6591 41.3927 83.9688 41.3926C84.1861 41.3926 84.4033 41.3923 84.6206 41.3919C84.8973 41.3914 85.1739 41.3912 85.4505 41.3913C85.6007 41.3913 85.7508 41.3909 85.9009 41.3905C85.9887 41.3906 86.0765 41.3907 86.1669 41.3908C86.2439 41.3907 86.3208 41.3907 86.4 41.3906C86.5722 41.3997 86.5722 41.3997 86.6463 41.4738C86.6536 41.587 86.6558 41.7006 86.6559 41.8141C86.6561 41.8865 86.6563 41.9589 86.6566 42.0335C86.6563 42.1516 86.6563 42.1516 86.6561 42.2721C86.6562 42.3524 86.6563 42.4327 86.6563 42.5154C86.6564 42.6854 86.6562 42.8555 86.6559 43.0256C86.6555 43.2869 86.6559 43.5483 86.6564 43.8096C86.6563 43.9744 86.6563 44.1392 86.6561 44.304C86.6563 44.3828 86.6564 44.4615 86.6566 44.5427C86.6562 44.6513 86.6562 44.6513 86.6559 44.7621C86.6558 44.8261 86.6557 44.8902 86.6557 44.9562C86.6463 45.1024 86.6463 45.1024 86.5722 45.1764C86.3762 45.1835 86.1821 45.1857 85.986 45.1849C85.9246 45.1849 85.8632 45.1849 85.7999 45.1849C85.596 45.1848 85.392 45.1843 85.188 45.1837C85.047 45.1835 84.906 45.1834 84.765 45.1834C84.3931 45.1831 84.0211 45.1823 83.6492 45.1815C83.2034 45.1806 82.7575 45.1803 82.3117 45.1799C81.6337 45.1791 80.9557 45.1777 80.2776 45.1764C80.2776 46.3495 80.2776 47.5225 80.2776 48.731C82.2571 48.731 84.2366 48.731 86.276 48.731C86.276 49.9529 86.276 51.1748 86.276 52.4337C86.2516 52.4337 86.2271 52.4337 86.202 52.4337C86.202 51.2363 86.202 50.0388 86.202 48.8051C84.1981 48.8051 82.1942 48.8051 80.1295 48.8051C80.128 48.2079 80.1265 47.6107 80.1249 46.9954C80.1242 46.8066 80.1236 46.6179 80.1229 46.4234C80.1227 46.2747 80.1225 46.1261 80.1223 45.9774C80.1219 45.8995 80.1215 45.8215 80.1212 45.7412C80.1211 45.6307 80.1211 45.6307 80.1211 45.5179C80.121 45.4537 80.1208 45.3894 80.1206 45.3231C80.1295 45.1764 80.1295 45.1764 80.2036 45.1024C80.3996 45.0953 80.5938 45.0931 80.7898 45.094C80.8512 45.094 80.9126 45.094 80.9759 45.0939C81.1798 45.094 81.3838 45.0946 81.5878 45.0952C81.7288 45.0953 81.8698 45.0954 82.0108 45.0955C82.3828 45.0958 82.7547 45.0965 83.1266 45.0973C83.5724 45.0982 84.0183 45.0985 84.4641 45.099C85.1421 45.0997 85.8202 45.1011 86.4982 45.1024C86.4982 43.9049 86.4982 42.7075 86.4982 41.4737C83.1013 41.4737 79.7045 41.4737 76.2047 41.4737C76.2047 45.1394 76.2047 48.8051 76.2047 52.5818C75.9825 52.5078 75.9825 52.5078 75.8529 52.2995C75.7614 52.0661 75.7395 51.9917 75.8344 51.7672C75.9077 51.9139 75.981 52.0605 76.0566 52.2116C76.081 48.6436 76.1054 45.0757 76.1306 41.3997Z" fill="#191919"/>
<path d="M76.1306 41.3997C79.5764 41.3997 83.0221 41.3997 86.5722 41.3997C86.5722 41.4241 86.5722 41.4486 86.5722 41.4738C83.1509 41.4738 79.7296 41.4737 76.2047 41.4737C76.2047 45.1394 76.2047 48.8051 76.2047 52.5818C75.9825 52.5078 75.9825 52.5078 75.8529 52.2995C75.7614 52.0661 75.7395 51.9917 75.8344 51.7672C75.9077 51.9139 75.981 52.0605 76.0566 52.2116C76.081 48.6436 76.1054 45.0757 76.1306 41.3997Z" fill="#191919"/>
<path d="M76.2047 41.4737C79.6015 41.4737 82.9984 41.4737 86.4982 41.4737C86.4982 41.4982 86.4982 41.5226 86.4982 41.5478C83.1258 41.5478 79.7533 41.5478 76.2787 41.5478C76.2787 45.2868 76.2787 49.0258 76.2787 52.878C76.2054 52.8536 76.1321 52.8292 76.0566 52.804C76.0566 52.7307 76.0566 52.6574 76.0566 52.5818C76.1054 52.5818 76.1543 52.5818 76.2047 52.5818C76.2047 48.9162 76.2047 45.2505 76.2047 41.4737Z" fill="#191919"/>
<path d="M68.0588 41.6219C68.1076 41.6463 68.1565 41.6707 68.2069 41.6959C68.1091 41.7203 68.0114 41.7448 67.9106 41.77C67.9106 41.8188 67.9106 41.8677 67.9106 41.9181C67.8282 41.9486 67.7457 41.9792 67.6607 42.0106C67.4171 42.1137 67.3474 42.1902 67.2442 42.4365C67.1999 42.4578 67.1556 42.4792 67.1099 42.5012C66.9146 42.6017 66.8133 42.7408 66.6786 42.9109C66.4844 43.1379 66.2532 43.3392 65.9852 43.4732C65.9076 43.6195 65.8333 43.7676 65.7631 43.9175C65.7142 43.9175 65.6653 43.9175 65.615 43.9175C65.6035 43.9954 65.6035 43.9954 65.5918 44.0749C65.5409 44.2878 65.5409 44.2878 65.4345 44.479C65.2891 44.7969 65.2413 45.096 65.1938 45.4403C65.1797 45.5383 65.1797 45.5383 65.1654 45.6383C65.0885 46.2062 65.0192 46.7953 65.1345 47.3622C65.1732 47.5594 65.178 47.7389 65.1753 47.9396C65.1746 48.005 65.1739 48.0704 65.1733 48.1377C65.1724 48.1869 65.1715 48.2361 65.1707 48.2867C64.6628 47.5249 64.8344 46.2856 64.9719 45.429C65.2508 44.0378 66.0554 42.8705 67.2274 42.0749C67.7858 41.7128 67.7858 41.7128 68.0588 41.6219Z" fill="#191919"/>
<path d="M76.2047 55.9883C76.3528 56.1364 76.3528 56.1364 76.3646 56.2753C76.3623 56.3272 76.3599 56.3791 76.3574 56.4326C76.3457 56.6636 76.3457 56.6636 76.4268 56.877C76.4024 57.0725 76.378 57.268 76.3528 57.4694C76.3284 58.227 76.3039 58.9845 76.2787 59.7651C79.6511 59.7651 83.0236 59.7651 86.4982 59.7651C86.4982 59.3496 86.4982 58.9342 86.4982 58.5061C86.5226 58.5061 86.547 58.5061 86.5722 58.5061C86.5722 58.946 86.5722 59.3859 86.5722 59.8391C83.1509 59.8391 79.7296 59.8391 76.2047 59.8391C76.2047 58.5683 76.2047 57.2976 76.2047 55.9883Z" fill="#191919"/>
<path d="M86.3501 52.3597C87.7675 52.3597 89.1848 52.3597 90.6452 52.3597C90.6818 52.543 90.6818 52.543 90.7192 52.7299C90.6704 52.7299 90.6215 52.7299 90.5711 52.7299C90.5711 52.6811 90.5711 52.6322 90.5711 52.5818C89.2515 52.6063 87.9319 52.6307 86.5722 52.6559C86.5478 52.7781 86.5233 52.9003 86.4982 53.0262C86.4737 53.0262 86.4493 53.0262 86.4241 53.0262C86.3997 52.8062 86.3752 52.5863 86.3501 52.3597Z" fill="#191919"/>
<path d="M16.7394 45.1764C16.5222 45.3528 16.2909 45.4853 16.0448 45.6174C14.907 46.23 13.8172 47.0385 13.0547 48.0929C13.0243 48.1324 12.9939 48.1719 12.9627 48.2127C12.9382 48.2127 12.9138 48.2127 12.8886 48.2127C12.8655 48.0507 12.8655 48.0507 12.8886 47.8424C13.0645 47.6341 13.0645 47.6341 13.2589 47.4721C13.3078 47.4721 13.3566 47.4721 13.407 47.4721C13.4314 47.3744 13.4559 47.2766 13.481 47.1759C13.5299 47.1759 13.5788 47.1759 13.6292 47.1759C13.6292 47.127 13.6292 47.0781 13.6292 47.0278C13.7495 46.9253 13.8736 46.8272 13.9994 46.7316C14.0965 46.6502 14.0965 46.6502 14.1956 46.5673C14.5619 46.2608 14.9131 45.996 15.3324 45.7689C15.47 45.6503 15.47 45.6503 15.5546 45.5467C15.6279 45.5712 15.7012 45.5956 15.7767 45.6208C15.7935 45.5749 15.8103 45.5291 15.8276 45.4819C16.0358 45.1449 16.3752 45.1595 16.7394 45.1764Z" fill="#191919"/>
<path d="M37.3264 46.9537C37.4495 47.2561 37.3456 47.5246 37.2616 47.8239C37.1237 48.3239 37.0302 48.7964 37.0302 49.3188C37.0302 49.3937 37.0302 49.4685 37.0302 49.5456C36.9935 49.5823 36.9935 49.5823 36.9561 49.6197C36.9442 49.8493 36.9369 50.0775 36.9327 50.3073C36.9312 50.3762 36.9296 50.4451 36.928 50.5162C36.9232 50.7372 36.9188 50.9583 36.9145 51.1794C36.9113 51.3289 36.908 51.4784 36.9048 51.628C36.8968 51.9953 36.8893 52.3626 36.8821 52.7299C36.8576 52.7299 36.8332 52.7299 36.808 52.7299C36.7505 52.3202 36.7213 51.9219 36.7189 51.5083C36.7185 51.4497 36.7181 51.3911 36.7176 51.3307C36.7169 51.207 36.7165 51.0833 36.7162 50.9597C36.7155 50.7749 36.7132 50.5902 36.7108 50.4055C36.704 49.3834 36.8074 48.3986 37.1551 47.4305C37.1875 47.3387 37.2199 47.247 37.2532 47.1525C37.2774 47.0869 37.3015 47.0213 37.3264 46.9537Z" fill="#191919"/>
<path d="M100.272 42.2883C100.559 42.3531 100.559 42.3531 100.642 42.4365C100.649 42.5773 100.651 42.7185 100.651 42.8595C100.651 42.95 100.651 43.0404 100.651 43.1336C100.65 43.233 100.65 43.3324 100.65 43.4318C100.65 43.533 100.649 43.6342 100.649 43.7354C100.649 44.0021 100.648 44.2688 100.648 44.5356C100.647 44.8076 100.646 45.0796 100.646 45.3516C100.645 45.8856 100.644 46.4197 100.642 46.9537C100.318 46.9074 100.101 46.8425 99.8279 46.6575C99.9528 46.6066 99.9528 46.6066 100.124 46.5835C100.25 46.6538 100.373 46.7276 100.494 46.8056C100.488 46.2385 100.481 45.6714 100.473 45.1043C100.469 44.841 100.466 44.5777 100.463 44.3143C100.46 44.0118 100.455 43.7092 100.451 43.4067C100.45 43.3119 100.449 43.2171 100.448 43.1194C100.447 43.0319 100.445 42.9445 100.444 42.8543C100.443 42.7771 100.442 42.6998 100.441 42.6201C100.438 42.4235 100.438 42.4235 100.272 42.2883Z" fill="#191919"/>
<path d="M41.7696 47.25C41.7941 47.2988 41.8185 47.3477 41.8437 47.3981C41.7777 47.5673 41.7777 47.5673 41.6771 47.773C41.1889 48.8129 41.0804 49.7914 41.0939 50.9295C41.0946 51.04 41.0953 51.1504 41.0959 51.2609C41.0975 51.5284 41.1001 51.7959 41.1031 52.0635C41.0543 52.0635 41.0054 52.0635 40.955 52.0635C40.7535 50.9345 40.7687 49.6814 41.1124 48.5858C41.1735 48.3736 41.1903 48.2095 41.1772 47.9905C41.2505 47.9661 41.3238 47.9416 41.3994 47.9164C41.3994 47.7942 41.3994 47.6721 41.3994 47.5462C41.4727 47.5217 41.546 47.4973 41.6215 47.4721C41.6704 47.3988 41.7193 47.3255 41.7696 47.25Z" fill="#191919"/>
<path d="M20.5162 62.1348C20.565 62.1592 20.6139 62.1837 20.6643 62.2088C20.17 62.6759 19.6763 63.0906 19.1091 63.4678C19.0527 63.5091 18.9963 63.5504 18.9382 63.593C18.555 63.8686 18.2431 63.9861 17.7762 64.0602C17.9316 63.9047 18.0502 63.8464 18.2483 63.7547C19.0763 63.3473 19.8629 62.788 20.5162 62.1348ZM17.7021 64.0602C17.7388 64.1335 17.7388 64.1335 17.7762 64.2083C16.2628 64.7529 16.2628 64.7529 15.5546 64.9488C15.8286 65.2395 16.1136 65.4632 16.4432 65.6894C16.1778 65.6894 16.1022 65.6258 15.8878 65.4765C15.8305 65.4369 15.7732 65.3974 15.7142 65.3567C15.6615 65.3199 15.6088 65.283 15.5546 65.245C15.4812 65.1962 15.4079 65.1473 15.3324 65.0969C15.3324 64.9992 15.3324 64.9014 15.3324 64.8007C15.404 64.7819 15.4756 64.7631 15.5494 64.7437C16.6463 64.463 16.6463 64.463 17.7021 64.0602Z" fill="#191919"/>
<path d="M73.2425 41.4738C73.3158 41.5471 73.3158 41.5471 73.3906 41.6219C73.3058 41.6112 73.2209 41.6005 73.1335 41.5895C73.0202 41.5756 72.9069 41.5617 72.7936 41.5478C72.71 41.5372 72.71 41.5372 72.6248 41.5264C72.2847 41.4852 71.9559 41.4665 71.6133 41.4738C71.6133 41.4249 71.6133 41.376 71.6133 41.3256C70.4861 41.3473 69.3835 41.3714 68.2809 41.6219C68.355 41.4738 68.355 41.4738 68.5783 41.3945C70.0633 41.0011 71.7745 41.0022 73.2425 41.4738Z" fill="#191919"/>
<path d="M14.4437 38.8819C14.5537 38.9552 14.5537 38.9552 14.6659 39.03C14.6317 39.0588 14.5976 39.0876 14.5624 39.1173C13.8018 39.7697 13.1839 40.4617 12.6072 41.2769C12.4847 41.4461 12.3544 41.6084 12.2221 41.77C12.1977 41.6722 12.1733 41.5745 12.1481 41.4738C12.1954 41.4569 12.2428 41.4401 12.2916 41.4228C12.342 41.3908 12.3924 41.3587 12.4443 41.3256C12.4529 41.2722 12.4615 41.2187 12.4703 41.1636C12.5333 40.8907 12.6785 40.7048 12.847 40.4879C12.8772 40.4472 12.9074 40.4065 12.9385 40.3645C13.0166 40.262 13.1003 40.164 13.1848 40.0667C13.2337 40.0667 13.2826 40.0667 13.3329 40.0667C13.3596 40.0039 13.3596 40.0039 13.3867 39.9397C13.5006 39.7355 13.6383 39.5963 13.805 39.4326C13.8907 39.3477 13.8907 39.3477 13.978 39.2611C14.1273 39.1227 14.2783 39.0001 14.4437 38.8819Z" fill="#191919"/>
<path d="M40.1404 43.177C40.1893 43.2014 40.2382 43.2259 40.2886 43.251C40.2251 43.3083 40.1616 43.3656 40.0962 43.4246C39.2298 44.1543 39.2298 44.1543 38.6594 45.1024C38.5483 45.2366 38.5483 45.2366 38.4372 45.3246C38.3883 45.3246 38.3395 45.3246 38.2891 45.3246C38.3048 45.3677 38.3206 45.4108 38.3368 45.4553C38.3632 45.6208 38.3632 45.6208 38.2946 45.7631C38.2607 45.8078 38.2268 45.8524 38.1919 45.8985C38.1419 45.9666 38.1419 45.9666 38.0909 46.0362C38.0424 46.0871 38.0424 46.0871 37.9929 46.1391C37.944 46.1391 37.8951 46.1391 37.8448 46.1391C37.8249 46.2048 37.8051 46.2705 37.7846 46.3382C37.7028 46.5663 37.6057 46.751 37.4745 46.9537C37.4501 46.9049 37.4256 46.856 37.4004 46.8056C37.4774 46.619 37.5588 46.4434 37.6504 46.2641C37.6774 46.211 37.7044 46.1578 37.7323 46.1031C38.3305 44.9542 39.1514 44.0073 40.1404 43.177Z" fill="#191919"/>
<path d="M97.31 59.7651C96.9161 60.1006 96.5058 60.0718 96.008 60.0685C95.9176 60.0683 95.9176 60.0683 95.8253 60.0682C95.6337 60.0678 95.442 60.0668 95.2504 60.0659C95.1201 60.0655 94.9898 60.0652 94.8595 60.0649C94.5408 60.0641 94.2222 60.0628 93.9036 60.0613C93.9036 60.0124 93.9036 59.9635 93.9036 59.9132C93.8058 59.8887 93.7081 59.8643 93.6073 59.8391C93.7786 59.8371 93.9498 59.8357 94.1211 59.8345C94.2165 59.8336 94.3118 59.8328 94.4101 59.8319C94.6441 59.8391 94.6441 59.8391 94.7181 59.9132C94.8596 59.9091 95.0009 59.8997 95.1419 59.888C95.2292 59.8811 95.3165 59.8742 95.4065 59.867C95.4985 59.8593 95.5906 59.8517 95.6855 59.8437C96.7803 59.7538 96.7803 59.7538 97.31 59.7651Z" fill="#191919"/>
<path d="M56.9507 59.4688C57.2883 59.5327 57.6213 59.5957 57.9504 59.6956C58.5939 59.868 59.2605 59.8487 59.9221 59.8437C60.007 59.8434 60.092 59.8431 60.1795 59.8427C60.3869 59.8419 60.5942 59.8407 60.8015 59.8391C60.777 59.888 60.7526 59.9369 60.7274 59.9872C59.7447 60.2283 57.9746 60.2206 57.0988 59.691C57.0499 59.6177 57.001 59.5444 56.9507 59.4688Z" fill="#191919"/>
<path d="M95.4031 41.1683C95.5097 41.169 95.6162 41.1697 95.7228 41.1703C95.9804 41.1719 96.2379 41.1745 96.4954 41.1775C96.4954 41.202 96.4954 41.2264 96.4954 41.2516C96.4061 41.2526 96.4061 41.2526 96.315 41.2537C94.8676 41.2673 94.8676 41.2673 93.4361 41.4599C93.3797 41.4712 93.3234 41.4825 93.2654 41.4942C92.9173 41.5729 92.606 41.696 92.2828 41.8462C92.0711 41.9434 91.8542 42.023 91.6357 42.1032C91.3608 42.2067 91.1048 42.3121 90.8535 42.4642C90.7847 42.5039 90.716 42.5436 90.6452 42.5846C90.5963 42.5601 90.5474 42.5357 90.4971 42.5105C91.1939 42.0706 91.888 41.734 92.677 41.4969C92.7264 41.4819 92.7759 41.4669 92.8268 41.4515C93.6833 41.2052 94.5182 41.1574 95.4031 41.1683Z" fill="#191919"/>
<path d="M75.6863 42.9548C75.7596 42.9793 75.8329 43.0037 75.9085 43.0289C75.8707 43.3439 75.6908 43.5035 75.478 43.7278C75.4037 43.8069 75.3293 43.8861 75.255 43.9653C75.2163 44.0061 75.1776 44.0469 75.1377 44.089C74.9454 44.2924 74.756 44.4985 74.5662 44.7044C74.5294 44.7442 74.4926 44.784 74.4547 44.825C74.1213 45.186 73.7922 45.5506 73.4647 45.917C73.2524 45.8745 73.1787 45.8532 73.0204 45.6948C73.0876 45.7009 73.1548 45.707 73.224 45.7133C73.4671 45.7163 73.4671 45.7163 73.6313 45.5699C73.7677 45.4053 73.7677 45.4053 73.835 45.2135C73.9516 44.9218 74.1301 44.775 74.3996 44.621C74.5944 44.498 74.6388 44.4226 74.7236 44.2137C74.8827 43.9751 74.9996 43.9113 75.242 43.7694C75.4338 43.6118 75.496 43.4956 75.5382 43.251C75.6115 43.251 75.6848 43.251 75.7604 43.251C75.7237 43.1044 75.7237 43.1044 75.6863 42.9548Z" fill="#191919"/>
<path d="M43.9912 59.7651C45.3109 59.7651 46.6305 59.7651 47.9902 59.7651C47.7049 60.0503 47.2461 59.9958 46.8605 59.9975C46.777 59.9973 46.777 59.9973 46.6919 59.9971C46.633 59.9971 46.5742 59.9972 46.5135 59.9973C46.3898 59.9973 46.2661 59.9972 46.1424 59.9969C45.9542 59.9965 45.7661 59.9969 45.5779 59.9973C45.4571 59.9973 45.3363 59.9972 45.2154 59.9971C45.1598 59.9972 45.1042 59.9974 45.0469 59.9975C44.7141 59.996 44.3928 59.9798 44.0653 59.9132C44.0409 59.8643 44.0164 59.8154 43.9912 59.7651Z" fill="#191919"/>
<path d="M46.0833 44.871C46.1431 44.8707 46.203 44.8704 46.2646 44.8701C46.9566 44.8712 47.4909 44.9214 48.1059 45.2551C48.1861 45.297 48.1861 45.297 48.268 45.3397C48.398 45.4078 48.5274 45.4771 48.6566 45.5467C48.6566 45.5956 48.6566 45.6445 48.6566 45.6948C48.4444 45.626 48.2337 45.5548 48.0249 45.4761C47.9569 45.4505 47.8889 45.425 47.8189 45.3986C47.755 45.3742 47.6912 45.3497 47.6254 45.3246C46.9727 45.1122 46.3757 45.0837 45.6899 45.0931C45.5975 45.0938 45.5051 45.0945 45.41 45.0952C45.1839 45.0969 44.9579 45.0993 44.7318 45.1024C45.1795 44.8715 45.5883 44.8686 46.0833 44.871Z" fill="#191919"/>
<path d="M68.2809 59.7651C68.4645 59.7754 68.6481 59.7863 68.8317 59.7975C68.884 59.8004 68.9364 59.8033 68.9904 59.8063C69.3833 59.8307 69.3833 59.8307 69.4658 59.9132C69.5865 59.9092 69.7071 59.8997 69.8274 59.888C69.9016 59.8811 69.9759 59.8742 70.0524 59.867C70.1698 59.8555 70.1698 59.8555 70.2896 59.8437C71.2203 59.7538 71.2203 59.7538 71.6874 59.7651C71.6133 59.8715 71.6133 59.8715 71.4652 59.9872C70.425 60.1623 69.2899 60.1589 68.2809 59.8391C68.2809 59.8147 68.2809 59.7902 68.2809 59.7651Z" fill="#191919"/>
<path d="M64.7263 43.8435C64.7263 44.0656 64.7263 44.0656 64.615 44.1961C64.5647 44.2432 64.5143 44.2902 64.4625 44.3387C64.2576 44.5361 64.061 44.7345 63.8747 44.9497C63.812 45.0215 63.812 45.0215 63.748 45.0949C63.6517 45.2079 63.5575 45.3227 63.4645 45.4385C63.4135 45.5002 63.3626 45.5619 63.3101 45.6254C63.264 45.6828 63.218 45.7401 63.1706 45.7992C63.0231 45.917 63.0231 45.917 62.8377 45.9077C62.5784 45.8168 62.3692 45.6894 62.1344 45.5467C62.3582 45.4748 62.5051 45.4626 62.7269 45.5467C62.7513 45.5956 62.7757 45.6445 62.8009 45.6948C62.8742 45.6948 62.9476 45.6948 63.0231 45.6948C63.0491 45.6291 63.075 45.5635 63.1018 45.4958C63.2376 45.2636 63.2919 45.2033 63.5044 45.0654C63.7671 44.8941 63.8571 44.7239 63.9858 44.4359C64.1822 44.2068 64.391 44.0658 64.6523 43.9175C64.6767 43.8931 64.7011 43.8687 64.7263 43.8435Z" fill="#191919"/>
<path d="M19.1832 36.29C19.4398 36.4366 19.4398 36.4366 19.7016 36.5862C19.7016 36.6595 19.7016 36.7328 19.7016 36.8084C19.598 36.8273 19.598 36.8273 19.4924 36.8465C18.9195 36.9554 18.3744 37.0871 17.8213 37.277C17.6281 37.3267 17.6281 37.3267 17.4059 37.2527C17.4548 37.2527 17.5037 37.2527 17.554 37.2527C17.5784 37.1794 17.6029 37.1061 17.6281 37.0305C17.6781 37.0215 17.7281 37.0126 17.7796 37.0033C17.8787 36.9847 17.8787 36.9847 17.9798 36.9657C18.0778 36.9477 18.0778 36.9477 18.1777 36.9293C18.3687 36.8906 18.3687 36.8906 18.5271 36.7985C18.6648 36.7343 18.6648 36.7343 18.887 36.8084C18.887 36.7595 18.887 36.7106 18.887 36.6602C19.1069 36.6969 19.1069 36.6969 19.3313 36.7343C19.3313 36.6366 19.3313 36.5388 19.3313 36.4381C19.2824 36.4381 19.2336 36.4381 19.1832 36.4381C19.1832 36.3892 19.1832 36.3403 19.1832 36.29Z" fill="#191919"/>
<path d="M52.5074 57.4694C52.2712 58.0417 51.5814 58.5473 51.0264 58.8024C50.953 58.8024 50.8797 58.8024 50.8042 58.8024C50.9083 58.5485 51.0156 58.4439 51.2485 58.3025C51.5898 58.0868 51.8967 57.8421 52.2063 57.5834C52.3593 57.4694 52.3593 57.4694 52.5074 57.4694Z" fill="#191919"/>
<path d="M14.9621 33.9943C15.3101 34.1116 15.6548 34.2363 15.9989 34.3646C15.8357 34.4629 15.7393 34.5157 15.5467 34.5C15.4704 34.4788 15.4704 34.4788 15.3926 34.4571C15.3411 34.4438 15.2897 34.4304 15.2366 34.4166C15.1102 34.3646 15.1102 34.3646 15.0362 34.2165C14.6207 34.2165 14.2053 34.2165 13.7773 34.2165C14.2653 33.8261 14.388 33.8314 14.9621 33.9943Z" fill="#191919"/>
<path d="M54.7291 44.6581C54.8091 44.9067 54.7975 45.0984 54.7617 45.3558C54.7515 45.4317 54.7412 45.5076 54.7306 45.5858C54.7138 45.7039 54.7138 45.7039 54.6967 45.8244C54.6857 45.9043 54.6748 45.9842 54.6635 46.0665C54.6365 46.2636 54.609 46.4606 54.5809 46.6575C54.5076 46.6575 54.4343 46.6575 54.3588 46.6575C54.2944 46.5409 54.2314 46.4235 54.169 46.3058C54.1338 46.2405 54.0986 46.1752 54.0623 46.1079C53.9826 45.9017 53.9837 45.8229 54.0626 45.6208C54.1603 45.7918 54.2581 45.9629 54.3588 46.1391C54.3793 46.0446 54.3998 45.9501 54.421 45.8528C54.4481 45.7291 54.4752 45.6055 54.5023 45.4819C54.5158 45.4196 54.5293 45.3572 54.5432 45.293C54.5563 45.2334 54.5695 45.1737 54.583 45.1122C54.595 45.0572 54.607 45.0021 54.6194 44.9454C54.655 44.8062 54.655 44.8062 54.7291 44.6581Z" fill="#191919"/>
<path d="M7.70485 40.6592C7.72928 40.6592 7.75372 40.6592 7.7789 40.6592C7.7789 40.8302 7.7789 41.0013 7.7789 41.1775C7.70559 41.202 7.63227 41.2264 7.55674 41.2516C7.54528 41.3799 7.54528 41.3799 7.5336 41.5108C7.49244 41.843 7.38896 42.1291 7.26052 42.4365C7.21699 42.5464 7.21699 42.5464 7.17258 42.6586C7.15273 42.7075 7.13287 42.7564 7.11242 42.8067C7.06354 42.8067 7.01466 42.8067 6.96431 42.8067C6.93987 42.88 6.91543 42.9533 6.89025 43.0289C6.93238 42.559 7.08377 42.1562 7.25589 41.7191C7.28258 41.6497 7.30926 41.5803 7.33675 41.5089C7.44907 41.2191 7.56202 40.9355 7.70485 40.6592Z" fill="#191919"/>
<path d="M68.0588 41.6219C68.1076 41.6463 68.1565 41.6707 68.2069 41.6959C68.1091 41.7203 68.0114 41.7448 67.9106 41.77C67.9106 41.8188 67.9106 41.8677 67.9106 41.9181C67.8282 41.9486 67.7457 41.9792 67.6607 42.0106C67.4171 42.1137 67.3474 42.1902 67.2442 42.4365C67.1999 42.4578 67.1556 42.4792 67.1099 42.5012C66.9148 42.6016 66.8135 42.7403 66.6792 42.9106C66.5171 43.0995 66.3283 43.245 66.1334 43.3992C66.1334 43.177 66.1334 43.177 66.2823 43.0063C66.3477 42.9435 66.4131 42.8807 66.4805 42.816C66.5449 42.7535 66.6094 42.6911 66.6757 42.6268C66.7738 42.5326 66.7738 42.5326 66.8739 42.4365C66.9344 42.3727 66.9949 42.3089 67.0573 42.2432C67.2498 42.0609 67.4324 41.9415 67.6653 41.8162C67.7359 41.7775 67.8064 41.7387 67.8791 41.6988C67.968 41.6607 67.968 41.6607 68.0588 41.6219Z" fill="#191919"/>
<path d="M75.9825 55.8402C76.0558 55.8402 76.1291 55.8402 76.2047 55.8402C76.2047 57.1598 76.2047 58.4795 76.2047 59.8391C76.1802 59.8391 76.1558 59.8391 76.1306 59.8391C76.1062 58.6905 76.0817 57.542 76.0566 56.3586C76.0321 56.3586 76.0077 56.3586 75.9825 56.3586C75.9825 56.1875 75.9825 56.0164 75.9825 55.8402Z" fill="#191919"/>
<path d="M69.9842 44.9543C69.8833 45.0138 69.8833 45.0138 69.7805 45.0746C69.4646 45.2845 69.289 45.5588 69.1696 45.917C69.1626 46.0495 69.1599 46.1823 69.1603 46.315C69.1601 46.3843 69.1599 46.4536 69.1597 46.525C69.1692 46.7247 69.199 46.9073 69.2436 47.1018C69.1947 47.1018 69.1459 47.1018 69.0955 47.1018C68.9584 46.8109 68.9311 46.5844 68.9381 46.2641C68.9395 46.185 68.9408 46.1058 68.9422 46.0243C68.9448 45.9345 68.9448 45.9345 68.9474 45.8429C68.9963 45.8429 69.0452 45.8429 69.0955 45.8429C69.1199 45.6963 69.1444 45.5497 69.1696 45.3986C69.2184 45.3986 69.2673 45.3986 69.3177 45.3986C69.3223 45.3406 69.3268 45.2825 69.3316 45.2227C69.3917 45.0283 69.3917 45.0283 69.5676 44.9265C69.762 44.8802 69.762 44.8802 69.9842 44.9543Z" fill="#191919"/>
<path d="M66.7998 42.3624C66.8487 42.3868 66.8976 42.4113 66.9479 42.4365C66.8934 42.4875 66.8389 42.5386 66.7828 42.5912C66.3578 42.9976 66.0067 43.3724 65.7631 43.9175C65.7142 43.9175 65.6653 43.9175 65.615 43.9175C65.6089 43.9649 65.6028 44.0122 65.5965 44.061C65.5191 44.3771 65.3824 44.6604 65.2447 44.9543C65.1408 44.7279 65.1772 44.6402 65.2644 44.4012C65.312 44.301 65.361 44.2015 65.4113 44.1027C65.4376 44.0505 65.4638 43.9983 65.4908 43.9445C65.7733 43.4107 66.1466 43.0045 66.5777 42.5846C66.6223 42.54 66.6668 42.4954 66.7128 42.4495C66.7415 42.4207 66.7702 42.392 66.7998 42.3624Z" fill="#191919"/>
<path d="M76.2047 48.731C76.2291 48.731 76.2536 48.731 76.2787 48.731C76.2787 50.0995 76.2787 51.4681 76.2787 52.878C76.2054 52.8536 76.1321 52.8292 76.0566 52.804C76.0566 52.7307 76.0566 52.6574 76.0566 52.5818C76.1054 52.5818 76.1543 52.5818 76.2047 52.5818C76.2047 51.3111 76.2047 50.0403 76.2047 48.731Z" fill="#191919"/>
<path d="M3.18756 48.3608C3.26087 48.3852 3.33419 48.4096 3.40972 48.4348C3.48262 48.6584 3.48262 48.6584 3.53932 48.9393C3.55879 49.0314 3.57826 49.1235 3.59833 49.2185C3.62765 49.4397 3.63428 49.5627 3.55783 49.7678C3.5227 49.6838 3.48757 49.5998 3.45138 49.5132C3.36261 49.2674 3.36261 49.2674 3.26161 49.1754C3.2586 49.052 3.25845 48.9285 3.26161 48.8051C3.21274 48.8051 3.16386 48.8051 3.11351 48.8051C3.08907 48.8784 3.06463 48.9517 3.03945 49.0272C2.88672 49.0782 2.88672 49.0782 2.74324 49.1013C2.86555 48.8363 3.02337 48.6016 3.18756 48.3608Z" fill="#191919"/>
<path d="M31.4761 44.1397C31.996 44.544 32.3935 45.0402 32.8091 45.5467C32.7847 45.5956 32.7602 45.6445 32.7351 45.6948C32.3879 45.4272 32.3879 45.4272 32.2907 45.3246C32.2907 45.2512 32.2907 45.1779 32.2907 45.1024C32.2464 45.0825 32.2021 45.0627 32.1565 45.0422C31.9946 44.9543 31.8899 44.8731 31.7724 44.7321C31.7724 44.6832 31.7724 44.6344 31.7724 44.584C31.699 44.5596 31.6257 44.5351 31.5502 44.51C31.5258 44.3878 31.5013 44.2656 31.4761 44.1397Z" fill="#191919"/>
<path d="M47.2496 41.3256C48.3286 41.3463 49.3261 41.6531 50.2858 42.1402C50.0422 42.2215 50.0061 42.2132 49.7767 42.131C49.7174 42.1102 49.6581 42.0894 49.5971 42.0679C49.4575 42.015 49.3189 41.9597 49.1811 41.9025C48.5448 41.6416 47.9252 41.5064 47.2496 41.3997C47.2496 41.3753 47.2496 41.3508 47.2496 41.3256Z" fill="#191919"/>
<path d="M33.1794 50.2121C33.2038 50.261 33.2283 50.3099 33.2534 50.3602C33.2042 50.4823 33.2042 50.4823 33.1227 50.6261C33.0934 50.678 33.0641 50.73 33.0339 50.7836C33.0025 50.8378 32.9711 50.8921 32.9387 50.948C32.9084 51.002 32.8782 51.056 32.847 51.1116C32.7049 51.3609 32.5759 51.57 32.3648 51.7672C32.3139 51.6376 32.3139 51.6376 32.2907 51.471C32.3879 51.3044 32.3879 51.3044 32.5129 51.1748C32.5618 51.1748 32.6106 51.1748 32.661 51.1748C32.6366 51.1015 32.6121 51.0282 32.5869 50.9526C32.6529 50.8066 32.6529 50.8066 32.7536 50.6518C32.8023 50.5749 32.8023 50.5749 32.8519 50.4965C32.9572 50.3602 32.9572 50.3602 33.1794 50.2121Z" fill="#191919"/>
<path d="M37.3264 46.9537C37.4448 47.2513 37.3519 47.5103 37.2709 47.8054C37.2431 47.911 37.2153 48.0167 37.1875 48.1224C37.1735 48.1748 37.1595 48.2272 37.145 48.2812C37.0857 48.5046 37.0302 48.7289 36.9746 48.9532C36.9438 49.0766 36.9129 49.2 36.8821 49.3235C36.8576 49.3235 36.8332 49.3235 36.808 49.3235C36.7875 48.8547 36.8574 48.4639 36.9839 48.0136C37.0003 47.9523 37.0167 47.891 37.0337 47.8278C37.1152 47.5284 37.2021 47.2388 37.3264 46.9537Z" fill="#191919"/>
<path d="M56.6545 42.1402C56.7033 42.1647 56.7522 42.1891 56.8026 42.2143C56.642 42.4552 56.5282 42.5136 56.2842 42.6586C56.165 42.7628 56.0493 42.871 55.9371 42.9826C55.8803 43.0382 55.8235 43.0937 55.7649 43.151C55.6083 43.3174 55.6083 43.3174 55.5376 43.527C55.5151 43.5826 55.4927 43.6381 55.4696 43.6954C55.3963 43.7198 55.323 43.7442 55.2474 43.7694C55.2474 43.8427 55.2474 43.916 55.2474 43.9916C55.1986 43.9916 55.1497 43.9916 55.0993 43.9916C55.3297 43.2545 56.0283 42.5577 56.6545 42.1402Z" fill="#191919"/>
<path d="M99.3835 55.0256C99.4324 55.05 99.4813 55.0745 99.5317 55.0997C99.4269 55.1708 99.3219 55.2418 99.2169 55.3126C99.1585 55.3521 99.1001 55.3916 99.0399 55.4323C98.7624 55.6096 98.5223 55.7144 98.1987 55.78C98.1048 55.7999 98.1048 55.7999 98.0089 55.8202C97.8262 55.8404 97.7056 55.8227 97.5322 55.7661C97.61 55.7375 97.6878 55.7089 97.768 55.6794C97.873 55.6405 97.978 55.6015 98.083 55.5625C98.137 55.5424 98.1911 55.5224 98.2467 55.5017C98.5415 55.3913 98.8298 55.2748 99.1151 55.1413C99.2037 55.1031 99.2923 55.0649 99.3835 55.0256Z" fill="#191919"/>
<path d="M12.5183 48.3608C12.5672 48.4341 12.6161 48.5074 12.6665 48.5829C12.5603 48.7513 12.4538 48.9194 12.3471 49.0874C12.3172 49.135 12.2872 49.1826 12.2564 49.2316C12.2271 49.2777 12.1977 49.3237 12.1675 49.3712C12.1407 49.4135 12.1139 49.4557 12.0864 49.4993C11.9943 49.6276 11.8922 49.7332 11.7778 49.8418C11.7778 49.7196 11.7778 49.5975 11.7778 49.4716C11.8267 49.4716 11.8756 49.4716 11.9259 49.4716C11.9336 49.4181 11.9412 49.3647 11.9491 49.3096C12.0419 48.9297 12.2722 48.6578 12.5183 48.3608Z" fill="#191919"/>
<path d="M9.48214 37.8451C9.48214 38.2278 9.24921 38.5694 9.03782 38.8819C8.98894 38.8819 8.94007 38.8819 8.88971 38.8819C8.84083 39.0285 8.79196 39.1751 8.7416 39.3262C8.66829 39.3262 8.59497 39.3262 8.51944 39.3262C8.63566 38.9782 8.82789 38.7116 9.04244 38.419C9.07648 38.3719 9.11051 38.3247 9.14557 38.2761C9.39391 37.9333 9.39391 37.9333 9.48214 37.8451Z" fill="#191919"/>
<path d="M13.9254 46.9537C13.8055 47.2412 13.6174 47.4396 13.407 47.6665C13.3413 47.7377 13.2756 47.8089 13.208 47.8823C13.1031 47.9939 12.9969 48.1044 12.8886 48.2127C12.8655 48.0507 12.8655 48.0507 12.8886 47.8424C13.0645 47.6341 13.0645 47.6341 13.2589 47.4721C13.3078 47.4721 13.3566 47.4721 13.407 47.4721C13.4314 47.3744 13.4559 47.2766 13.481 47.1759C13.5299 47.1759 13.5788 47.1759 13.6292 47.1759C13.6292 47.127 13.6292 47.0781 13.6292 47.0278C13.7773 46.9537 13.7773 46.9537 13.9254 46.9537Z" fill="#191919"/>
<path d="M44.7318 45.1764C44.6497 45.1995 44.6497 45.1995 44.566 45.223C43.8581 45.438 43.2458 45.7453 42.7323 46.2873C42.6835 46.2628 42.6346 46.2384 42.5842 46.2132C42.7394 45.8252 43.0086 45.7218 43.3673 45.5563C43.5545 45.4737 43.5545 45.4737 43.7459 45.3477C44.0746 45.1611 44.3672 45.0648 44.7318 45.1764Z" fill="#191919"/>
<path d="M11.3335 35.8457C11.3824 35.8701 11.4312 35.8945 11.4816 35.9197C11.2649 36.2751 11.0142 36.6441 10.667 36.8824C10.5693 36.858 10.4715 36.8335 10.3708 36.8084C10.6885 36.4907 11.0062 36.173 11.3335 35.8457Z" fill="#191919"/>
<path d="M51.3966 42.8808C51.7953 42.9924 52.0419 43.2629 52.3316 43.5426C52.381 43.5895 52.4305 43.6365 52.4814 43.6848C52.6901 43.8833 52.8967 44.0836 53.0999 44.2878C53.0754 44.3367 53.051 44.3855 53.0258 44.4359C52.9705 44.3788 52.9151 44.3217 52.858 44.2629C52.7844 44.1879 52.7107 44.1129 52.637 44.0379C52.6007 44.0003 52.5643 43.9626 52.5268 43.9239C52.3342 43.7287 52.1648 43.5851 51.915 43.4732C51.7901 43.3513 51.6665 43.228 51.5447 43.1029C51.4959 43.0785 51.447 43.0541 51.3966 43.0289C51.3966 42.98 51.3966 42.9311 51.3966 42.8808Z" fill="#191919"/>
<path d="M65.1707 48.3608C65.3651 48.4344 65.4496 48.4718 65.5392 48.6639C65.555 48.7227 65.5709 48.7815 65.5872 48.8421C65.6598 49.1109 65.6598 49.1109 65.8371 49.3235C65.8904 49.4951 65.9401 49.6679 65.9852 49.8418C65.6936 49.5771 65.5284 49.336 65.3697 48.9763C65.3318 48.892 65.2939 48.8078 65.2548 48.7209C65.1707 48.5089 65.1707 48.5089 65.1707 48.3608Z" fill="#191919"/>
<path d="M56.9507 59.4688C57.377 59.5495 57.7943 59.6387 58.2096 59.7651C58.2096 59.8139 58.2096 59.8628 58.2096 59.9132C57.7819 59.9388 57.4696 59.9352 57.0988 59.691C57.0499 59.6177 57.001 59.5444 56.9507 59.4688Z" fill="#191919"/>
<path d="M6.8162 43.0289C6.84064 43.0289 6.86508 43.0289 6.89025 43.0289C6.89424 43.1986 6.89712 43.3683 6.89951 43.538C6.90123 43.6325 6.90295 43.727 6.90472 43.8244C6.89025 44.0656 6.89025 44.0656 6.74215 44.2137C6.68927 44.3606 6.63949 44.5087 6.59404 44.6581C6.52097 44.4277 6.52233 44.2756 6.57755 44.0413C6.59115 43.9822 6.60476 43.923 6.61877 43.862C6.63352 43.8009 6.64827 43.7398 6.66346 43.6769C6.67793 43.6146 6.69239 43.5524 6.70729 43.4882C6.74299 43.335 6.77952 43.1819 6.8162 43.0289Z" fill="#191919"/>
<path d="M41.4734 42.3624C41.4734 42.4113 41.4734 42.4601 41.4734 42.5105C41.3864 42.5174 41.3864 42.5174 41.2975 42.5244C41.2334 42.5442 41.1692 42.5641 41.1031 42.5846C41.0818 42.6411 41.0604 42.6976 41.0383 42.7558C40.9141 43.0527 40.7201 43.1093 40.4367 43.251C40.3878 43.2022 40.3389 43.1533 40.2886 43.1029C40.4055 43.0069 40.5228 42.9114 40.6403 42.816C40.7056 42.7627 40.7709 42.7094 40.8382 42.6546C41.2254 42.3624 41.2254 42.3624 41.4734 42.3624Z" fill="#191919"/>
<path d="M13.2589 42.0662C13.2589 42.1151 13.2589 42.1639 13.2589 42.2143C13.1856 42.2143 13.1123 42.2143 13.0367 42.2143C13.0328 42.2581 13.0289 42.3019 13.0249 42.3471C12.9333 42.5878 12.7843 42.6383 12.56 42.7558C12.4868 42.7952 12.4136 42.8347 12.3381 42.8753C12.2754 42.9015 12.2127 42.9278 12.1481 42.9548C12.0992 42.9304 12.0503 42.906 12 42.8808C13.0297 42.0662 13.0297 42.0662 13.2589 42.0662Z" fill="#191919"/>
<path d="M23.4783 39.9927C24.1215 40.0229 24.7145 40.1866 25.3297 40.3629C25.3297 40.3874 25.3297 40.4118 25.3297 40.437C25.0853 40.437 24.8409 40.437 24.5891 40.437C24.5891 40.3881 24.5891 40.3392 24.5891 40.2889C24.5021 40.2797 24.415 40.2706 24.3253 40.2611C24.0307 40.2249 23.7614 40.1552 23.4783 40.0667C23.4783 40.0423 23.4783 40.0179 23.4783 39.9927Z" fill="#191919"/>
<path d="M55.1734 49.2494C55.2223 49.2738 55.2711 49.2983 55.3215 49.3235C55.2971 50.2032 55.2726 51.083 55.2474 51.9894C55.223 51.9894 55.1986 51.9894 55.1734 51.9894C55.161 51.6111 55.1491 51.2328 55.1377 50.8545C55.1337 50.7257 55.1296 50.5969 55.1254 50.4681C55.1193 50.2833 55.1138 50.0986 55.1083 49.9139C55.1063 49.8559 55.1043 49.798 55.1022 49.7383C55.0984 49.6001 55.0984 49.4617 55.0993 49.3235C55.1238 49.299 55.1482 49.2746 55.1734 49.2494Z" fill="#191919"/>
<path d="M60.2831 48.3608C60.6659 48.4099 60.9957 48.5769 61.343 48.7357C61.4359 48.7775 61.4359 48.7775 61.5306 48.8203C61.6827 48.8889 61.8346 48.9579 61.9863 49.0272C61.7642 49.1013 61.7642 49.1013 61.6227 49.0515C61.5701 49.0252 61.5175 48.9989 61.4633 48.9717C61.1498 48.8219 60.8397 48.7265 60.5029 48.6428C60.4548 48.623 60.4067 48.6033 60.3572 48.5829C60.3327 48.5096 60.3083 48.4363 60.2831 48.3608Z" fill="#191919"/>
<path d="M26.8848 46.0651C27.0422 46.0327 27.0422 46.0327 27.2551 46.0651C27.3799 46.1896 27.4825 46.3205 27.5863 46.4628C27.7185 46.6039 27.8073 46.6288 27.9956 46.6575C28.02 46.7797 28.0445 46.9019 28.0697 47.0278C27.9292 46.9225 27.7888 46.8171 27.6485 46.7116C27.5347 46.6265 27.4205 46.5418 27.306 46.4576C27.2525 46.4182 27.1991 46.3788 27.144 46.3382C27.0943 46.3018 27.0447 46.2654 26.9936 46.228C26.9577 46.1986 26.9218 46.1693 26.8848 46.1391C26.8848 46.1147 26.8848 46.0903 26.8848 46.0651Z" fill="#191919"/>
<path d="M40.2886 43.177C40.3374 43.2014 40.3863 43.2259 40.4367 43.251C40.3412 43.3529 40.2421 43.4516 40.1404 43.5473C40.0916 43.5473 40.0427 43.5473 39.9923 43.5473C39.9679 43.6206 39.9435 43.6939 39.9183 43.7694C39.7893 43.8941 39.7893 43.8941 39.6313 44.024C39.4661 44.1603 39.3321 44.2794 39.2049 44.4524C39.1715 44.4958 39.1381 44.5393 39.1037 44.584C39.0548 44.584 39.0059 44.584 38.9556 44.584C39.0734 44.292 39.2757 44.0964 39.4971 43.8805C39.5322 43.8455 39.5673 43.8104 39.6034 43.7743C39.8208 43.5596 40.0468 43.3637 40.2886 43.177Z" fill="#191919"/>
<path d="M91.1636 59.2467C91.5986 59.3115 91.5986 59.3115 91.6819 59.3948C91.7941 59.412 91.9069 59.4253 92.0198 59.4364C92.081 59.4426 92.1422 59.4489 92.2052 59.4552C92.2525 59.4597 92.2997 59.4642 92.3484 59.4688C92.3484 59.5177 92.3484 59.5666 92.3484 59.6169C92.3973 59.6169 92.4462 59.6169 92.4965 59.6169C92.4965 59.6658 92.4965 59.7147 92.4965 59.7651C92.5698 59.7895 92.6432 59.8139 92.7187 59.8391C92.324 59.799 92.0093 59.7024 91.6495 59.5383C91.6024 59.5174 91.5553 59.4966 91.5068 59.4751C91.3921 59.4242 91.2778 59.3725 91.1636 59.3207C91.1636 59.2963 91.1636 59.2719 91.1636 59.2467Z" fill="#191919"/>
<path d="M75.9085 56.3586C75.9329 56.4075 75.9573 56.4563 75.9825 56.5067C75.8452 56.8808 75.6174 57.2187 75.3901 57.5434C75.3412 57.519 75.2923 57.4946 75.242 57.4694C75.2713 57.3594 75.3025 57.25 75.3345 57.1408C75.3603 57.0493 75.3603 57.0493 75.3866 56.9559C75.4122 56.9054 75.4378 56.8549 75.4641 56.8029C75.6146 56.7566 75.6146 56.7566 75.7604 56.7288C75.8564 56.5444 75.8564 56.5444 75.9085 56.3586Z" fill="#191919"/>
<path d="M71.2431 48.5829C71.6595 48.7122 72.0631 48.8628 72.465 49.0319C72.599 49.0881 72.599 49.0881 72.7357 49.1456C72.9463 49.2494 72.9463 49.2494 73.0204 49.3975C72.6804 49.3504 72.395 49.2136 72.0901 49.0643C71.6809 48.8584 71.6809 48.8584 71.2431 48.731C71.2431 48.6822 71.2431 48.6333 71.2431 48.5829Z" fill="#191919"/>
<path d="M58.8761 45.3986C58.852 45.4618 58.852 45.4618 58.8275 45.5262C58.6375 46.053 58.6201 46.4751 58.728 47.0278C58.618 46.9462 58.618 46.9462 58.5058 46.8056C58.4815 46.5864 58.4815 46.5864 58.4873 46.3335C58.4884 46.2505 58.4896 46.1674 58.4908 46.0819C58.5041 45.8696 58.5219 45.6772 58.5799 45.4727C58.728 45.3986 58.728 45.3986 58.8761 45.3986Z" fill="#191919"/>
<path d="M56.4323 42.4365C56.5056 42.4609 56.5789 42.4853 56.6545 42.5105C56.3089 42.8561 55.9633 43.2017 55.6177 43.5473C55.5933 43.4739 55.5688 43.4006 55.5436 43.3251C55.8369 43.0318 56.1302 42.7386 56.4323 42.4365Z" fill="#191919"/>
<path d="M71.6874 59.7651C71.6119 59.873 71.6119 59.873 71.4652 59.9872C71.2705 60.0151 71.0912 60.0318 70.8959 60.0381C70.844 60.0407 70.792 60.0432 70.7384 60.0458C70.6105 60.0519 70.4825 60.0567 70.3544 60.0613C70.7582 59.7332 71.1815 59.7547 71.6874 59.7651Z" fill="#191919"/>
<path d="M62.949 58.9505C62.9735 58.9993 62.9979 59.0482 63.0231 59.0986C62.8399 59.2949 62.6842 59.4478 62.4307 59.5429C62.3329 59.5429 62.2352 59.5429 62.1344 59.5429C62.2085 59.3207 62.2085 59.3207 62.3777 59.218C62.4456 59.1863 62.5135 59.1545 62.5834 59.1217C62.6515 59.0894 62.7195 59.057 62.7896 59.0237C62.8685 58.9874 62.8685 58.9874 62.949 58.9505Z" fill="#191919"/>
<path d="M55.5436 55.3218C55.5925 55.3218 55.6414 55.3218 55.6918 55.3218C55.6918 55.4699 55.6918 55.4699 55.5344 55.6319C55.4844 55.6798 55.4844 55.6798 55.4334 55.7285C55.2348 55.9267 55.0574 56.1437 54.8772 56.3586C54.8527 56.2853 54.8283 56.212 54.8031 56.1364C54.923 56.0002 55.0434 55.8645 55.1641 55.7291C55.1982 55.6903 55.2323 55.6514 55.2674 55.6114C55.3564 55.512 55.4498 55.4166 55.5436 55.3218ZM54.655 56.3586C54.7039 56.383 54.7528 56.4075 54.8031 56.4326C54.7054 56.5304 54.6076 56.6281 54.5069 56.7288C54.5069 56.5067 54.5069 56.5067 54.655 56.3586Z" fill="#191919"/>
<path d="M27.9216 51.3229C27.946 51.3229 27.9704 51.3229 27.9956 51.3229C28.0982 51.7269 28.1615 52.0906 28.1437 52.5078C28.0948 52.5078 28.046 52.5078 27.9956 52.5078C28.02 52.5811 28.0445 52.6544 28.0697 52.7299C28.0208 52.7544 27.9719 52.7788 27.9216 52.804C27.9216 52.3152 27.9216 51.8265 27.9216 51.3229Z" fill="#191919"/>
<path d="M76.1306 51.1008C76.1551 51.1008 76.1795 51.1008 76.2047 51.1008C76.2047 51.5895 76.2047 52.0783 76.2047 52.5818C75.9825 52.5078 75.9825 52.5078 75.8529 52.2995C75.7614 52.0661 75.7395 51.9917 75.8344 51.7672C75.9077 51.9139 75.981 52.0605 76.0566 52.2116C76.081 51.845 76.1054 51.4784 76.1306 51.1008Z" fill="#191919"/>
<path d="M6.66809 44.2137C6.69253 44.2137 6.71697 44.2137 6.74215 44.2137C6.73573 44.4329 6.72781 44.6519 6.719 44.871C6.71733 44.9333 6.71566 44.9956 6.71394 45.0599C6.71 45.1494 6.71 45.1494 6.70599 45.2407C6.70405 45.2957 6.70211 45.3508 6.70011 45.4075C6.66809 45.5467 6.66809 45.5467 6.44593 45.6948C6.45445 45.5312 6.46388 45.3677 6.4737 45.2042C6.47886 45.1131 6.48401 45.0221 6.48932 44.9282C6.51861 44.6702 6.57646 44.4559 6.66809 44.2137Z" fill="#191919"/>
<path d="M17.9983 35.4754C18.4364 35.6788 18.8059 35.9149 19.1832 36.2159C19.0351 36.29 19.0351 36.29 18.8453 36.2344C18.6648 36.1419 18.6648 36.1419 18.5908 35.9197C18.493 35.9197 18.3953 35.9197 18.2945 35.9197C18.2701 35.8708 18.2457 35.822 18.2205 35.7716C18.1716 35.7716 18.1227 35.7716 18.0724 35.7716C18.048 35.6739 18.0235 35.5761 17.9983 35.4754Z" fill="#191919"/>
<path d="M66.0593 58.7283C66.34 58.8356 66.6064 58.9617 66.8739 59.0986C66.8739 59.1719 66.8739 59.2452 66.8739 59.3207C66.5401 59.2815 66.3219 59.1581 66.0593 58.9505C66.0593 58.8772 66.0593 58.8038 66.0593 58.7283Z" fill="#191919"/>
<path d="M47.1756 45.1024C47.7605 45.0349 48.1535 45.2649 48.6566 45.5467C48.6566 45.5956 48.6566 45.6445 48.6566 45.6948C48.3665 45.6007 48.0785 45.5008 47.7911 45.3986C47.6876 45.3619 47.6876 45.3619 47.582 45.3246C47.3977 45.2505 47.3977 45.2505 47.1756 45.1024Z" fill="#191919"/>
<path d="M10.2967 36.8824C10.3442 37.0189 10.3442 37.0189 10.3708 37.1786C10.2042 37.3638 10.2042 37.3638 10.0005 37.5489C9.9608 37.6054 9.92109 37.6619 9.88018 37.7201C9.84658 37.7614 9.81297 37.8026 9.77835 37.8451C9.70504 37.8451 9.63173 37.8451 9.55619 37.8451C9.66842 37.5876 9.82111 37.4041 10.0098 37.1971C10.0634 37.138 10.1171 37.0788 10.1723 37.0178C10.2339 36.9508 10.2339 36.9508 10.2967 36.8824Z" fill="#191919"/>
<path d="M18.5167 52.5818C18.5411 52.6551 18.5656 52.7285 18.5908 52.804C17.8939 53.1441 17.8939 53.1441 17.554 53.1002C17.554 53.0269 17.554 52.9536 17.554 52.878C17.6049 52.8691 17.6558 52.8601 17.7082 52.8509C17.8083 52.8322 17.8083 52.8322 17.9104 52.8132C17.9765 52.8012 18.0427 52.7892 18.1109 52.7768C18.3114 52.7365 18.3114 52.7365 18.5167 52.5818Z" fill="#191919"/>
<path d="M25.9221 45.4727C26.3215 45.5046 26.5741 45.5853 26.8848 45.8429C26.8848 45.9162 26.8848 45.9896 26.8848 46.0651C26.535 45.9448 26.2226 45.7607 25.9221 45.5467C25.9221 45.5223 25.9221 45.4978 25.9221 45.4727Z" fill="#191919"/>
<path d="M32.0686 51.9153C32.093 51.9642 32.1174 52.0131 32.1426 52.0635C32.0637 52.1877 31.9831 52.3109 31.9019 52.4337C31.8349 52.5368 31.8349 52.5368 31.7666 52.642C31.7196 52.6955 31.6726 52.7489 31.6242 52.804C31.5265 52.804 31.4287 52.804 31.328 52.804C31.328 52.6818 31.328 52.5596 31.328 52.4337C31.4258 52.4337 31.5235 52.4337 31.6242 52.4337C31.7559 52.3219 31.7559 52.3219 31.8649 52.1745C31.9035 52.1264 31.9421 52.0783 31.9818 52.0287C32.0104 51.9913 32.0391 51.9539 32.0686 51.9153Z" fill="#191919"/>
<path d="M98.643 59.4688C98.643 59.5177 98.643 59.5666 98.643 59.6169C98.2147 59.7659 97.8357 59.7814 97.3841 59.7651C97.4085 59.7162 97.433 59.6673 97.4581 59.6169C97.6494 59.5701 97.6494 59.5701 97.8886 59.5336C98.0061 59.515 98.0061 59.515 98.1261 59.496C98.3468 59.4688 98.3468 59.4688 98.643 59.4688Z" fill="#191919"/>
<path d="M62.1344 45.4727C62.59 45.5161 62.59 45.5161 62.7269 45.5467C62.7513 45.5956 62.7757 45.6445 62.8009 45.6948C62.8742 45.6948 62.9476 45.6948 63.0231 45.6948C63.072 45.6215 63.1208 45.5482 63.1712 45.4727C63.2201 45.4971 63.269 45.5215 63.3193 45.5467C63.2216 45.6689 63.1238 45.7911 63.0231 45.917C62.671 45.8743 62.4328 45.7281 62.1344 45.5467C62.1344 45.5223 62.1344 45.4978 62.1344 45.4727Z" fill="#191919"/>
<path d="M53.248 56.5067C53.2724 56.58 53.2969 56.6533 53.322 56.7288C53.2762 56.7716 53.2304 56.8144 53.1832 56.8584C53.0207 57.0113 53.0207 57.0113 52.9564 57.1871C52.8777 57.3213 52.8777 57.3213 52.6833 57.3768C52.6253 57.3829 52.5672 57.389 52.5074 57.3953C52.9629 56.7698 52.9629 56.7698 53.248 56.5067Z" fill="#191919"/>
<path d="M31.1799 51.7672C31.3883 51.9756 31.3776 52.1446 31.4021 52.4337C31.3697 52.6513 31.3697 52.6513 31.328 52.804C31.2792 52.7796 31.2303 52.7551 31.1799 52.7299C31.0933 52.4353 31.0941 52.1465 31.1059 51.8413C31.1303 51.8169 31.1547 51.7924 31.1799 51.7672Z" fill="#191919"/>
<path d="M17.8502 44.8062C17.8747 44.9039 17.8991 45.0017 17.9243 45.1024C17.8796 45.0953 17.8349 45.0883 17.7889 45.081C17.7297 45.0728 17.6705 45.0646 17.6096 45.0561C17.5511 45.0475 17.4927 45.0389 17.4325 45.0301C17.2323 45.0281 17.137 45.0873 16.9616 45.1764C16.8883 45.152 16.815 45.1276 16.7394 45.1024C16.8372 45.078 16.9349 45.0535 17.0356 45.0283C17.0356 44.9795 17.0356 44.9306 17.0356 44.8802C17.3077 44.7932 17.5665 44.8007 17.8502 44.8062Z" fill="#191919"/>
<path d="M25.4037 40.437C25.8654 40.5547 26.3044 40.6796 26.7367 40.8813C26.7367 40.9058 26.7367 40.9302 26.7367 40.9554C26.2776 40.9928 26.0768 40.8938 25.6999 40.6592C25.5318 40.6028 25.5318 40.6028 25.4037 40.5851C25.4037 40.5362 25.4037 40.4874 25.4037 40.437Z" fill="#191919"/>
<path d="M15.3324 38.2154C15.4057 38.2398 15.479 38.2643 15.5546 38.2894C15.2976 38.5785 14.9953 38.7609 14.6659 38.9559C14.6659 38.8826 14.6659 38.8093 14.6659 38.7338C14.7148 38.7338 14.7637 38.7338 14.814 38.7338C14.8385 38.6604 14.8629 38.5871 14.8881 38.5116C15.101 38.345 15.101 38.345 15.3324 38.2154Z" fill="#191919"/>
<path d="M17.0356 37.2527C17.1578 37.2771 17.28 37.3016 17.4059 37.3267C17.1289 37.5676 16.7903 37.7299 16.4432 37.8451C16.3943 37.8207 16.3455 37.7962 16.2951 37.7711C16.5412 37.4794 16.5412 37.4794 16.795 37.4563C16.8499 37.4624 16.9049 37.4685 16.9616 37.4748C16.986 37.4015 17.0105 37.3282 17.0356 37.2527Z" fill="#191919"/>
<path d="M41.6215 58.9505C41.7561 58.9941 41.8902 59.0391 42.0242 59.0847C42.0989 59.1096 42.1737 59.1345 42.2507 59.1602C42.3119 59.1887 42.3731 59.2173 42.4361 59.2467C42.4606 59.32 42.485 59.3933 42.5102 59.4688C42.5949 59.4826 42.5949 59.4826 42.6814 59.4966C42.8804 59.5429 42.8804 59.5429 43.1026 59.691C42.6586 59.6717 42.3801 59.5141 42.0091 59.2745C41.8412 59.1624 41.8412 59.1624 41.6215 59.0986C41.6215 59.0497 41.6215 59.0008 41.6215 58.9505Z" fill="#191919"/>
<path d="M21.701 53.4705C21.7499 53.4949 21.7988 53.5194 21.8491 53.5445C21.7568 53.662 21.6642 53.7792 21.5714 53.8963C21.5199 53.9616 21.4683 54.0269 21.4152 54.0942C21.2716 54.2672 21.1223 54.4253 20.9605 54.5813C20.9116 54.5568 20.8627 54.5324 20.8124 54.5072C20.8613 54.4339 20.9101 54.3606 20.9605 54.2851C21.0094 54.2851 21.0582 54.2851 21.1086 54.2851C21.133 54.2118 21.1575 54.1384 21.1827 54.0629C21.2315 54.0629 21.2804 54.0629 21.3308 54.0629C21.3506 54.0201 21.3705 53.9774 21.3909 53.9333C21.4801 53.7643 21.5831 53.6205 21.701 53.4705Z" fill="#191919"/>
<path d="M16.3692 48.4348C16.2628 48.7058 16.1441 48.7982 15.8878 48.93C15.829 48.9609 15.7702 48.9917 15.7096 49.0235C15.6086 49.0742 15.5075 49.1248 15.4064 49.1754C15.5139 48.9066 15.6464 48.7937 15.8878 48.6385C15.976 48.5806 15.976 48.5806 16.066 48.5216C16.221 48.4348 16.221 48.4348 16.3692 48.4348Z" fill="#191919"/>
<path d="M18.887 45.4727C19.1411 45.5644 19.3538 45.658 19.5535 45.8429C19.5535 45.9162 19.5535 45.9896 19.5535 46.0651C19.2491 45.9577 19.0031 45.8051 18.7389 45.6208C18.7878 45.5719 18.8366 45.523 18.887 45.4727Z" fill="#191919"/>
<path d="M75.6863 42.9548C75.7596 42.9793 75.8329 43.0037 75.9085 43.0289C75.8729 43.3462 75.6701 43.5302 75.4595 43.7509C75.4245 43.7884 75.3895 43.8259 75.3535 43.8646C75.2674 43.9567 75.1807 44.0483 75.0939 44.1397C75.0939 44.0664 75.0939 43.9931 75.0939 43.9175C75.2173 43.7941 75.3407 43.6707 75.4641 43.5473C75.5279 43.3863 75.5279 43.3863 75.5382 43.251C75.6115 43.251 75.6848 43.251 75.7604 43.251C75.7359 43.1533 75.7115 43.0555 75.6863 42.9548Z" fill="#191919"/>
<path d="M15.7767 40.7332C15.8256 40.7576 15.8745 40.7821 15.9248 40.8073C15.6373 41.0126 15.3817 41.169 15.0362 41.2516C14.8748 41.2177 14.8748 41.2177 14.74 41.1775C14.871 41.1172 15.0022 41.0571 15.1334 40.997C15.2064 40.9635 15.2794 40.93 15.3547 40.8955C15.5546 40.8073 15.5546 40.8073 15.7767 40.7332Z" fill="#191919"/>
<path d="M17.3319 40.3629C17.085 40.4617 16.8382 40.5604 16.5913 40.6592C16.4967 40.7053 16.4967 40.7053 16.4001 40.7523C16.221 40.8073 16.221 40.8073 16.0498 40.7425C16.0086 40.715 15.9673 40.6875 15.9248 40.6592C16.1035 40.5949 16.2824 40.5319 16.4617 40.4694C16.5122 40.4511 16.5627 40.4328 16.6147 40.414C17.0788 40.254 17.0788 40.254 17.3319 40.3629Z" fill="#191919"/>
<path d="M21.9972 60.4315C22.0217 60.5049 22.0461 60.5782 22.0713 60.6537C21.962 60.827 21.962 60.827 21.8029 61.0193C21.7515 61.0826 21.7001 61.1459 21.6472 61.2111C21.4799 61.3931 21.3055 61.5416 21.1086 61.6905C21.21 61.472 21.3217 61.2813 21.4789 61.098C21.5277 61.098 21.5766 61.098 21.627 61.098C21.6568 61.0155 21.6568 61.0155 21.6871 60.9314C21.7708 60.7377 21.8646 60.5943 21.9972 60.4315Z" fill="#191919"/>
<path d="M64.6523 57.6915C64.8356 57.7649 64.8356 57.7649 65.0225 57.8397C65.0225 57.8885 65.0225 57.9374 65.0225 57.9878C65.0668 58.0076 65.1111 58.0275 65.1568 58.0479C65.3167 58.1348 65.4193 58.2243 65.5409 58.358C65.3734 58.3763 65.3734 58.3763 65.1707 58.358C65.0211 58.231 65.0211 58.231 64.8883 58.0664C64.8212 57.9853 64.8212 57.9853 64.7527 57.9024C64.6523 57.7656 64.6523 57.7656 64.6523 57.6915Z" fill="#191919"/>
<path d="M28.0697 47.0278C28.395 47.1165 28.6017 47.2018 28.8102 47.4721C28.8657 47.6758 28.8657 47.6758 28.8843 47.8424C28.578 47.592 28.3057 47.3487 28.0697 47.0278Z" fill="#191919"/>
<path d="M20.3681 46.7316C20.5968 46.757 20.7214 46.7924 20.9049 46.9352C21.0477 47.1188 21.0832 47.2433 21.1086 47.4721C20.5545 47.0167 20.5545 47.0167 20.3681 46.7316Z" fill="#191919"/>
<path d="M11.3335 50.7305C11.4068 50.7305 11.4801 50.7305 11.5556 50.7305C11.7036 51.0356 11.717 51.2823 11.7038 51.6191C11.5057 51.4211 11.4337 51.2124 11.3335 50.9526C11.3335 50.8793 11.3335 50.806 11.3335 50.7305Z" fill="#191919"/>
<path d="M66.7258 50.5824C67.094 50.6928 67.4233 50.8493 67.7625 51.0267C67.7625 51.0756 67.7625 51.1245 67.7625 51.1748C67.8114 51.1992 67.8603 51.2237 67.9106 51.2489C67.6662 51.1977 67.4587 51.1091 67.2349 50.9989C67.1706 50.9678 67.1062 50.9367 67.0399 50.9046C66.8739 50.8045 66.8739 50.8045 66.7258 50.5824Z" fill="#191919"/>
<path d="M42.4361 46.3613C42.4361 46.643 42.3518 46.7151 42.1769 46.9306C42.1048 47.0204 42.1048 47.0204 42.0311 47.112C41.9937 47.1575 41.9563 47.203 41.9177 47.25C41.8437 47.0278 41.8437 47.0278 41.8853 46.8473C42.0236 46.6008 42.1954 46.5026 42.4361 46.3613Z" fill="#191919"/>
<path d="M53.9885 45.6208C54.1618 45.7783 54.263 45.9255 54.3588 46.1391C54.4077 46.0414 54.4565 45.9436 54.5069 45.8429C54.5069 46.0384 54.5069 46.2339 54.5069 46.4354C54.4336 46.4354 54.3603 46.4354 54.2847 46.4354C53.9885 45.954 53.9885 45.954 53.9885 45.6208Z" fill="#191919"/>
<path d="M16.1701 37.7942C16.2114 37.811 16.2526 37.8278 16.2951 37.8451C16.0581 38.0482 15.8504 38.188 15.5546 38.2894C15.5684 38.1552 15.5684 38.1552 15.6286 37.9932C15.9248 37.761 15.9248 37.761 16.1701 37.7942Z" fill="#191919"/>
<path d="M63.9117 58.284C63.8859 58.5251 63.8361 58.5816 63.6479 58.7468C63.5884 58.7896 63.5288 58.8323 63.4674 58.8764C63.3941 58.8275 63.3208 58.7787 63.2453 58.7283C63.3282 58.6538 63.4116 58.5799 63.4952 58.5061C63.5648 58.4443 63.5648 58.4443 63.6358 58.3812C63.7636 58.284 63.7636 58.284 63.9117 58.284Z" fill="#191919"/>
<path d="M11.7038 42.3624C11.7771 42.3624 11.8504 42.3624 11.9259 42.3624C11.8592 42.572 11.7952 42.7728 11.6945 42.9687C11.6136 43.1114 11.6136 43.1114 11.6297 43.3251C11.5808 43.3251 11.532 43.3251 11.4816 43.3251C11.4572 43.2029 11.4327 43.0807 11.4075 42.9548C11.4809 42.9304 11.5542 42.906 11.6297 42.8808C11.6282 42.809 11.6266 42.7372 11.6251 42.6632C11.6297 42.4365 11.6297 42.4365 11.7038 42.3624Z" fill="#191919"/>
<path d="M48.8788 59.5429C48.8544 59.5918 48.8299 59.6406 48.8047 59.691C48.7559 59.691 48.707 59.691 48.6566 59.691C48.6566 59.7399 48.6566 59.7888 48.6566 59.8391C48.4856 59.8391 48.3145 59.8391 48.1383 59.8391C48.1138 59.7902 48.0894 59.7414 48.0642 59.691C48.3473 59.5857 48.5761 59.5251 48.8788 59.5429Z" fill="#191919"/>
<path d="M22.4416 52.4337C22.4904 52.4337 22.5393 52.4337 22.5897 52.4337C22.4212 52.8874 22.2446 53.1819 21.8491 53.4705C21.9267 53.2306 22.0238 53.0575 22.187 52.8688C22.378 52.6702 22.378 52.6702 22.4416 52.4337Z" fill="#191919"/>
<path d="M15.6286 52.5078C16.1285 52.5633 16.1285 52.5633 16.2951 52.7299C16.2951 52.8033 16.2951 52.8766 16.2951 52.9521C15.9726 52.8661 15.8029 52.7983 15.6286 52.5078Z" fill="#191919"/>
<path d="M4.07621 51.0267C4.22441 51.2153 4.36185 51.3935 4.44648 51.6191C4.41871 51.7858 4.41871 51.7858 4.37242 51.9153C4.37242 51.8665 4.37242 51.8176 4.37242 51.7672C4.29911 51.7428 4.2258 51.7184 4.15026 51.6932C4.04079 51.4742 4.07174 51.2679 4.07621 51.0267Z" fill="#191919"/>
<path d="M51.1004 49.9899C51.1249 49.9899 51.1493 49.9899 51.1745 49.9899C51.1933 50.2568 51.2096 50.5237 51.2254 50.7907C51.2308 50.8665 51.2362 50.9423 51.2417 51.0205C51.2458 51.0933 51.2498 51.1661 51.254 51.2411C51.2583 51.3081 51.2626 51.3752 51.2669 51.4444C51.2485 51.6191 51.2485 51.6191 51.0264 51.8413C51.0508 51.2303 51.0752 50.6194 51.1004 49.9899Z" fill="#191919"/>
<path d="M30.0691 42.8808C30.372 43.05 30.6218 43.2479 30.8837 43.4732C30.8104 43.5099 30.8104 43.5099 30.7356 43.5473C30.6623 43.5228 30.589 43.4984 30.5134 43.4732C30.5134 43.4243 30.5134 43.3755 30.5134 43.3251C30.4676 43.3159 30.4218 43.3068 30.3746 43.2973C30.2172 43.251 30.2172 43.251 30.0691 43.1029C30.0691 43.0296 30.0691 42.9563 30.0691 42.8808Z" fill="#191919"/>
<path d="M65.0966 44.9543C65.1455 44.9543 65.1944 44.9543 65.2447 44.9543C65.234 45.0383 65.2233 45.1223 65.2123 45.2088C65.1704 45.5433 65.133 45.8781 65.0966 46.2132C65.0722 46.2132 65.0477 46.2132 65.0225 46.2132C65.0205 46.045 65.0191 45.8769 65.0179 45.7087C65.0166 45.5682 65.0166 45.5682 65.0153 45.4249C65.0225 45.1764 65.0225 45.1764 65.0966 44.9543Z" fill="#191919"/>
<path d="M9.48214 37.8451C9.48214 38.1275 9.40546 38.2708 9.25998 38.5116C9.06096 38.6504 9.06096 38.6504 8.88971 38.7338C8.99411 38.5087 9.11844 38.3195 9.26923 38.1228C9.30914 38.0705 9.34904 38.0182 9.39015 37.9643C9.42051 37.925 9.45086 37.8856 9.48214 37.8451Z" fill="#191919"/>
<path d="M99.4576 59.2467C99.4576 59.2956 99.4576 59.3444 99.4576 59.3948C99.1895 59.4923 99.0062 59.5429 98.7171 59.5429C98.7415 59.4696 98.7659 59.3963 98.7911 59.3207C99.0107 59.2345 99.224 59.2402 99.4576 59.2467Z" fill="#191919"/>
<path d="M0.965944 52.5078C1.05033 52.7609 1.02935 52.8054 0.938173 53.0447C0.833117 53.3378 0.776663 53.6057 0.743782 53.9148C0.719344 53.9148 0.694906 53.9148 0.669728 53.9148C0.642934 53.4325 0.721608 53.0344 0.89189 52.5818C0.916328 52.5574 0.940765 52.533 0.965944 52.5078Z" fill="#191919"/>
<path d="M49.175 46.0651C49.4307 46.1745 49.5934 46.3197 49.786 46.5187C49.8383 46.5723 49.8906 46.626 49.9445 46.6812C50.0035 46.7428 50.0035 46.7428 50.0637 46.8056C50.0392 46.8789 50.0148 46.9523 49.9896 47.0278C49.8536 46.8814 49.7179 46.7348 49.5823 46.5881C49.524 46.5255 49.524 46.5255 49.4646 46.4615C49.175 46.1475 49.175 46.1475 49.175 46.0651Z" fill="#191919"/>
<path d="M15.9989 34.4386C16.3671 34.5491 16.6964 34.7056 17.0356 34.883C16.7567 34.9759 16.6378 34.9104 16.3692 34.8089C16.3692 34.76 16.3692 34.7111 16.3692 34.6608C16.247 34.6608 16.1248 34.6608 15.9989 34.6608C15.9989 34.5875 15.9989 34.5142 15.9989 34.4386Z" fill="#191919"/>
<path d="M56.2842 59.3207C56.7326 59.3063 56.7326 59.3063 56.8766 59.3207C57.0247 59.4688 57.0247 59.4688 57.0988 59.691C56.9906 59.6576 56.8827 59.6235 56.7748 59.5892C56.7147 59.5703 56.6545 59.5514 56.5926 59.5319C56.4323 59.4688 56.4323 59.4688 56.2842 59.3207Z" fill="#191919"/>
<path d="M19.5535 46.0651C19.871 46.1004 20.0175 46.1879 20.2199 46.4354C20.2199 46.4842 20.2199 46.5331 20.2199 46.5835C19.9373 46.4683 19.7614 46.2846 19.5535 46.0651Z" fill="#191919"/>
<path d="M13.9994 41.6219C13.975 41.7196 13.9506 41.8174 13.9254 41.9181C13.7054 41.9669 13.4855 42.0158 13.2589 42.0662C13.7032 41.6219 13.7032 41.6219 13.9994 41.6219Z" fill="#191919"/>
<path d="M12.074 35.2532C12.1229 35.2777 12.1718 35.3021 12.2221 35.3273C12.0407 35.681 12.0407 35.681 11.8519 35.7577C11.7038 35.7716 11.7038 35.7716 11.4816 35.7716C11.6771 35.6005 11.8726 35.4295 12.074 35.2532Z" fill="#191919"/>
<path d="M17.0356 34.957C17.3931 35.0616 17.6811 35.211 17.9983 35.4013C17.9983 35.4258 17.9983 35.4502 17.9983 35.4754C17.8517 35.4754 17.7051 35.4754 17.554 35.4754C17.554 35.4021 17.554 35.3288 17.554 35.2532C17.3341 35.2166 17.3341 35.2166 17.1097 35.1792C17.0853 35.1059 17.0608 35.0325 17.0356 34.957Z" fill="#191919"/>
<path d="M90.2749 58.5061C90.4091 58.5154 90.4091 58.5154 90.5711 58.5802C90.7007 58.807 90.7007 58.807 90.7933 59.0245C90.6174 58.9736 90.6174 58.9736 90.423 58.8764C90.3258 58.682 90.3258 58.682 90.2749 58.5061Z" fill="#191919"/>
<path d="M64.208 57.8397C64.2813 57.8397 64.3546 57.8397 64.4301 57.8397C64.4043 58.0807 64.3545 58.1373 64.1663 58.3025C64.1067 58.3453 64.0472 58.388 63.9858 58.4321C63.9614 58.3588 63.9369 58.2855 63.9117 58.2099C63.9851 58.2099 64.0584 58.2099 64.1339 58.2099C64.1583 58.0877 64.1828 57.9655 64.208 57.8397Z" fill="#191919"/>
<path d="M23.1821 50.5824C23.231 50.6068 23.2799 50.6313 23.3302 50.6564C23.3505 51.0559 23.3569 51.2873 23.1081 51.6191C23.0836 51.5703 23.0592 51.5214 23.034 51.471C23.0569 51.4176 23.0798 51.3641 23.1034 51.309C23.1985 51.0573 23.1926 50.8493 23.1821 50.5824Z" fill="#191919"/>
<path d="M36.8821 49.0272C36.931 49.0272 36.9798 49.0272 37.0302 49.0272C37.0434 49.364 37.03 49.6107 36.8821 49.9159C36.8576 49.9159 36.8332 49.9159 36.808 49.9159C36.7974 49.2811 36.7974 49.2811 36.8821 49.0272Z" fill="#191919"/>
<path d="M13.9254 46.9537C13.815 47.2348 13.6472 47.3692 13.407 47.5462C13.4314 47.424 13.4559 47.3018 13.481 47.1759C13.5299 47.1759 13.5788 47.1759 13.6292 47.1759C13.6292 47.127 13.6292 47.0781 13.6292 47.0278C13.7773 46.9537 13.7773 46.9537 13.9254 46.9537Z" fill="#191919"/>
<path d="M73.835 45.3246C73.835 45.5467 73.835 45.5467 73.6683 45.7504C73.4647 45.917 73.4647 45.917 73.3027 45.9124C73.1685 45.8429 73.1685 45.8429 73.0204 45.6948C73.086 45.7025 73.1517 45.7101 73.2194 45.718C73.5392 45.6878 73.6318 45.5636 73.835 45.3246Z" fill="#191919"/>
<path d="M71.9512 59.6308C72.0854 59.6756 72.2197 59.7203 72.3539 59.7651C72.2477 59.8044 72.1412 59.8428 72.0345 59.8808C71.9456 59.913 71.9456 59.913 71.8549 59.9459C71.6874 59.9872 71.6874 59.9872 71.4652 59.9132C71.7106 59.6132 71.7106 59.6132 71.9512 59.6308Z" fill="#191919"/>
<path d="M49.0463 59.4399C49.1352 59.4451 49.1352 59.4451 49.2259 59.4503C49.2858 59.453 49.3456 59.4557 49.4073 59.4584C49.4756 59.4636 49.4756 59.4636 49.5453 59.4688C49.366 59.6481 49.2638 59.6561 49.0177 59.7003C48.9166 59.7189 48.9166 59.7189 48.8134 59.7379C48.7617 59.7468 48.7099 59.7558 48.6566 59.7651C48.8319 59.4769 48.8319 59.4769 49.0463 59.4399Z" fill="#191919"/>
<path d="M30.4394 49.9899C30.4883 50.0144 30.5371 50.0388 30.5875 50.064C30.5631 50.1373 30.5386 50.2106 30.5134 50.2862C30.5868 50.3106 30.6601 50.335 30.7356 50.3602C30.7356 50.5313 30.7356 50.7023 30.7356 50.8786C30.5164 50.6295 30.4451 50.3831 30.3653 50.064C30.3898 50.0396 30.4142 50.0151 30.4394 49.9899Z" fill="#191919"/>
<path d="M21.7751 48.2867C21.824 48.2867 21.8728 48.2867 21.9232 48.2867C21.9232 48.3356 21.9232 48.3845 21.9232 48.4348C22.0209 48.4593 22.1187 48.4837 22.2194 48.5089C22.2438 48.6799 22.2683 48.851 22.2935 49.0272C22.0464 48.8058 21.912 48.588 21.7751 48.2867Z" fill="#191919"/>
<path d="M74.2052 44.7321C74.2541 44.7566 74.303 44.781 74.3533 44.8062C74.0849 45.2412 74.0849 45.2412 73.835 45.3246C73.8751 45.0435 73.998 44.9193 74.2052 44.7321Z" fill="#191919"/>
<path d="M38.6594 44.8062C38.6838 44.8795 38.7082 44.9528 38.7334 45.0283C38.5135 45.2116 38.5135 45.2116 38.2891 45.3986C38.2891 45.1764 38.2891 45.1764 38.4742 44.9774C38.5353 44.9209 38.5964 44.8644 38.6594 44.8062Z" fill="#191919"/>
<path d="M30.8837 43.5473C30.9688 43.6179 31.0536 43.689 31.1383 43.7602C31.2091 43.8194 31.2091 43.8194 31.2815 43.8799C31.4021 43.9916 31.4021 43.9916 31.4761 44.1397C31.3295 44.0908 31.1829 44.0419 31.0318 43.9916C31.0318 43.9427 31.0318 43.8938 31.0318 43.8435C30.9829 43.819 30.9341 43.7946 30.8837 43.7694C30.8837 43.6961 30.8837 43.6228 30.8837 43.5473Z" fill="#191919"/>
<path d="M51.3966 42.8808C51.725 42.984 51.9057 43.1478 52.1372 43.3992C52.1127 43.448 52.0883 43.4969 52.0631 43.5473C51.9516 43.4645 51.8406 43.3811 51.7299 43.2973C51.668 43.2509 51.6062 43.2045 51.5424 43.1567C51.4943 43.1145 51.4462 43.0724 51.3966 43.0289C51.3966 42.98 51.3966 42.9311 51.3966 42.8808Z" fill="#191919"/>
<path d="M67.3182 59.4688C67.953 59.5323 67.953 59.5323 68.2069 59.691C68.2069 59.7399 68.2069 59.7888 68.2069 59.8391C68.1003 59.8056 67.9939 59.7715 67.8875 59.7373C67.8282 59.7184 67.7689 59.6995 67.7079 59.68C67.5404 59.6169 67.5404 59.6169 67.3182 59.4688Z" fill="#191919"/>
<path d="M54.2847 56.8029C54.3336 56.8273 54.3825 56.8518 54.4328 56.877C54.338 57.0034 54.239 57.1268 54.1366 57.2472C54.0877 57.2472 54.0389 57.2472 53.9885 57.2472C53.9885 57.3205 53.9885 57.3939 53.9885 57.4694C53.9396 57.4694 53.8908 57.4694 53.8404 57.4694C53.9376 57.1779 54.0566 57.0082 54.2847 56.8029Z" fill="#191919"/>
<path d="M49.175 55.0997C49.2239 55.1241 49.2728 55.1485 49.3231 55.1737C49.2276 55.2756 49.1286 55.3742 49.0269 55.4699C48.978 55.4699 48.9292 55.4699 48.8788 55.4699C48.8544 55.5432 48.8299 55.6166 48.8047 55.6921C48.707 55.6677 48.6092 55.6432 48.5085 55.618C48.7285 55.447 48.9484 55.2759 49.175 55.0997Z" fill="#191919"/>
<path d="M65.4669 49.0272C65.812 49.2543 65.9004 49.441 65.9852 49.8418C65.7019 49.5883 65.5615 49.397 65.4669 49.0272Z" fill="#191919"/>
<path d="M14.5919 41.2516C14.6407 41.276 14.6896 41.3005 14.74 41.3256C14.6667 41.3501 14.5933 41.3745 14.5178 41.3997C14.4934 41.473 14.4689 41.5463 14.4437 41.6219C14.2971 41.6219 14.1505 41.6219 13.9994 41.6219C14.1985 41.4551 14.3435 41.3344 14.5919 41.2516Z" fill="#191919"/>
<path d="M72.576 59.5429C72.3534 59.7655 72.1448 59.7351 71.8355 59.7651C72.0676 59.4982 72.2359 59.4295 72.576 59.5429Z" fill="#191919"/>
<path d="M62.0604 59.4688C62.0604 59.5422 62.0604 59.6155 62.0604 59.691C61.8893 59.7154 61.7183 59.7399 61.542 59.7651C61.5665 59.6917 61.5909 59.6184 61.6161 59.5429C61.7716 59.4877 61.8956 59.4688 62.0604 59.4688Z" fill="#191919"/>
<path d="M22.6637 59.3948C22.6882 59.4681 22.7126 59.5414 22.7378 59.6169C22.6478 59.7844 22.6478 59.7844 22.5202 59.9641C22.4783 60.0239 22.4364 60.0838 22.3933 60.1455C22.3603 60.191 22.3274 60.2365 22.2935 60.2834C22.269 60.2101 22.2446 60.1368 22.2194 60.0613C22.3094 59.8938 22.3094 59.8938 22.4369 59.7141C22.4788 59.6543 22.5208 59.5944 22.5639 59.5328C22.5969 59.4872 22.6298 59.4417 22.6637 59.3948Z" fill="#191919"/>
<path d="M23.1081 58.5061C23.1821 58.6542 23.1821 58.6542 23.1297 58.8119C23.1027 58.8714 23.0757 58.9308 23.0479 58.9921C23.0214 59.0518 22.995 59.1114 22.9678 59.1729C22.8859 59.3207 22.8859 59.3207 22.7378 59.3948C22.7855 59.1717 22.86 58.9863 22.9646 58.7838C22.9914 58.7315 23.0182 58.6792 23.0459 58.6253C23.0664 58.586 23.0869 58.5467 23.1081 58.5061Z" fill="#191919"/>
<path d="M89.3122 57.6915C89.5131 57.811 89.7101 57.9321 89.9046 58.0618C89.9046 58.1107 89.9046 58.1596 89.9046 58.2099C89.6243 58.1699 89.4934 58.0531 89.3122 57.8397C89.3122 57.7908 89.3122 57.7419 89.3122 57.6915Z" fill="#191919"/>
<path d="M56.2101 54.5813C56.2834 54.6057 56.3568 54.6302 56.4323 54.6553C56.3743 54.6996 56.3162 54.7439 56.2564 54.7896C56.0512 54.945 56.0512 54.945 55.9139 55.1737C55.865 55.1737 55.8162 55.1737 55.7658 55.1737C55.8726 54.9245 56.0126 54.7656 56.2101 54.5813Z" fill="#191919"/>
<path d="M91.0155 53.4705C91.2186 53.7074 91.3583 53.9152 91.4598 54.211C91.2376 54.137 91.2376 54.137 91.1126 53.9657C91.0155 53.7667 91.0155 53.7667 91.0155 53.4705Z" fill="#191919"/>
<path d="M19.1832 51.9894C19.2076 51.9894 19.2321 51.9894 19.2573 51.9894C19.2758 52.1607 19.2758 52.1607 19.2573 52.3597C19.1091 52.4939 19.1091 52.4939 18.961 52.5818C18.9366 52.4841 18.9122 52.3863 18.887 52.2856C18.9359 52.2856 18.9847 52.2856 19.0351 52.2856C19.084 52.1879 19.1328 52.0901 19.1832 51.9894Z" fill="#191919"/>
<path d="M60.2831 48.3608C60.5562 48.3977 60.6982 48.4423 60.8755 48.657C60.8022 48.6936 60.8022 48.6936 60.7274 48.731C60.577 48.6618 60.4286 48.5879 60.2831 48.5089C60.2831 48.46 60.2831 48.4111 60.2831 48.3608Z" fill="#191919"/>
<path d="M58.8761 45.3986C58.8159 45.6532 58.8159 45.6532 58.728 45.917C58.6547 45.9414 58.5813 45.9659 58.5058 45.991C58.5247 45.8175 58.5497 45.6446 58.5799 45.4727C58.728 45.3986 58.728 45.3986 58.8761 45.3986Z" fill="#191919"/>
<path d="M93.163 59.7651C93.6461 59.7377 93.6461 59.7377 93.8249 59.8761C93.8508 59.9128 93.8768 59.9495 93.9036 59.9872C93.7081 59.9872 93.5126 59.9872 93.3111 59.9872C93.3111 59.9383 93.3111 59.8895 93.3111 59.8391C93.2623 59.8147 93.2134 59.7902 93.163 59.7651Z" fill="#191919"/>
<path d="M100.198 59.0245C100.198 59.0734 100.198 59.1223 100.198 59.1726C99.8682 59.2093 99.8682 59.2093 99.5317 59.2467C99.6691 58.9717 99.9246 59.0171 100.198 59.0245Z" fill="#191919"/>
<path d="M55.5436 58.7283C55.6903 58.7772 55.8369 58.8261 55.988 58.8764C55.988 58.9253 55.988 58.9742 55.988 59.0245C56.0613 59.049 56.1346 59.0734 56.2101 59.0986C56.0019 59.1217 56.0019 59.1217 55.7658 59.0986C55.627 58.9134 55.627 58.9134 55.5436 58.7283Z" fill="#191919"/>
<path d="M51.2485 58.4321C51.2241 58.5298 51.1996 58.6276 51.1745 58.7283C51.0523 58.7527 50.9301 58.7772 50.8042 58.8024C50.9714 58.4321 50.9714 58.4321 51.2485 58.4321Z" fill="#191919"/>
<path d="M19.5535 51.1748C19.5779 51.1748 19.6023 51.1748 19.6275 51.1748C19.6211 51.2937 19.613 51.4125 19.6044 51.5312C19.6001 51.5973 19.5958 51.6635 19.5914 51.7317C19.5488 51.938 19.4927 52.0073 19.3313 52.1375C19.3398 52.0325 19.3493 51.9276 19.3591 51.8228C19.3642 51.7644 19.3694 51.7059 19.3747 51.6457C19.4065 51.4647 19.4636 51.3341 19.5535 51.1748Z" fill="#191919"/>
<path d="M55.1734 49.2494C55.2223 49.2738 55.2711 49.2983 55.3215 49.3235C55.2971 49.6412 55.2726 49.9588 55.2474 50.2862C55.223 50.2862 55.1986 50.2862 55.1734 50.2862C55.159 50.1273 55.1452 49.9684 55.1317 49.8094C55.1201 49.6767 55.1201 49.6767 55.1083 49.5413C55.1053 49.4694 55.1024 49.3975 55.0993 49.3235C55.1238 49.299 55.1482 49.2746 55.1734 49.2494Z" fill="#191919"/>
<path d="M29.847 49.1754C29.9447 49.1998 30.0425 49.2242 30.1432 49.2494C30.2124 49.4723 30.2205 49.5357 30.1432 49.7678C30.0454 49.5723 29.9477 49.3768 29.847 49.1754Z" fill="#191919"/>
<path d="M29.3286 48.4348C29.5119 48.4715 29.5119 48.4715 29.6988 48.5089C29.7233 48.6799 29.7477 48.851 29.7729 49.0272C29.5754 48.8429 29.4354 48.6841 29.3286 48.4348Z" fill="#191919"/>
<path d="M55.3955 43.3992C55.4444 43.3992 55.4933 43.3992 55.5436 43.3992C55.5205 43.5426 55.5205 43.5426 55.4696 43.6954C55.3963 43.7198 55.323 43.7442 55.2474 43.7694C55.2474 43.8427 55.2474 43.916 55.2474 43.9916C55.1986 43.9916 55.1497 43.9916 55.0993 43.9916C55.1826 43.7715 55.2639 43.5965 55.3955 43.3992Z" fill="#191919"/>
<path d="M40.7329 58.4321C40.9828 58.5199 41.1511 58.6006 41.3253 58.8024C41.1542 58.7779 40.9832 58.7535 40.8069 58.7283C40.7825 58.6306 40.7581 58.5328 40.7329 58.4321Z" fill="#191919"/>
<path d="M74.0571 58.4321C74.106 58.4321 74.1549 58.4321 74.2052 58.4321C74.1867 58.5709 74.1867 58.5709 74.1312 58.7283C73.9784 58.8209 73.9784 58.8209 73.835 58.8764C73.8774 58.6641 73.8988 58.5905 74.0571 58.4321Z" fill="#191919"/>
<path d="M53.7664 55.7661C53.7908 55.8395 53.8152 55.9128 53.8404 55.9883C53.7062 56.2244 53.7062 56.2244 53.5442 56.4326C53.4953 56.4326 53.4464 56.4326 53.3961 56.4326C53.507 56.2022 53.633 55.9844 53.7664 55.7661Z" fill="#191919"/>
<path d="M14.2956 46.5835C14.2662 46.7972 14.2371 46.8665 14.0689 47.0093C14.0215 47.0398 13.9742 47.0704 13.9254 47.1018C13.9009 47.0285 13.8765 46.9552 13.8513 46.8797C14.129 46.5835 14.129 46.5835 14.2956 46.5835Z" fill="#191919"/>
<path d="M72.3539 45.3246C72.6305 45.3614 72.7843 45.3893 73.0204 45.5467C73.0204 45.5956 73.0204 45.6445 73.0204 45.6948C72.7408 45.6141 72.5412 45.5535 72.3539 45.3246Z" fill="#191919"/>
<path d="M59.5426 44.9543C59.4738 45.0001 59.4051 45.0459 59.3343 45.0931C59.2174 45.171 59.2174 45.171 59.0982 45.2505C58.9883 45.3238 58.9883 45.3238 58.8761 45.3986C58.9316 45.1811 58.9316 45.1811 59.0242 44.9543C59.2395 44.8501 59.3113 44.8772 59.5426 44.9543Z" fill="#191919"/>
<path d="M10.2967 36.8824C10.3212 36.9802 10.3456 37.0779 10.3708 37.1786C10.2242 37.2519 10.0775 37.3253 9.92646 37.4008C10.0222 37.1872 10.1234 37.04 10.2967 36.8824Z" fill="#191919"/>
<path d="M13.7773 34.2165C13.7773 34.2898 13.7773 34.3631 13.7773 34.4386C13.5818 34.4875 13.3863 34.5364 13.1848 34.5867C13.5432 34.2165 13.5432 34.2165 13.7773 34.2165Z" fill="#191919"/>
<path d="M73.0204 59.3948C72.8262 59.5543 72.6765 59.6466 72.4279 59.691C72.4557 59.5475 72.4557 59.5475 72.502 59.3948C72.6995 59.296 72.8106 59.3451 73.0204 59.3948Z" fill="#191919"/>
<path d="M49.7674 59.3207C49.5592 59.4364 49.5592 59.4364 49.3231 59.5429C49.2498 59.5185 49.1765 59.494 49.101 59.4688C49.3259 59.2439 49.4666 59.2205 49.7674 59.3207Z" fill="#191919"/>
<path d="M63.0971 58.8024C63.1949 58.8024 63.2926 58.8024 63.3934 58.8024C63.3689 58.8757 63.3445 58.949 63.3193 59.0245C63.1295 59.1125 63.1295 59.1125 62.949 59.1726C62.9979 59.0504 63.0468 58.9282 63.0971 58.8024Z" fill="#191919"/>
<path d="M15.4064 52.1375C15.5546 52.2116 15.7027 52.2856 15.8508 52.3597C15.8263 52.433 15.8019 52.5063 15.7767 52.5818C15.6332 52.5263 15.6332 52.5263 15.4805 52.4337C15.425 52.2764 15.425 52.2764 15.4064 52.1375Z" fill="#191919"/>
<path d="M2.07675 49.9899C2.12563 49.9899 2.1745 49.9899 2.22486 49.9899C2.2493 50.0633 2.27374 50.1366 2.29891 50.2121C2.20116 50.2365 2.10341 50.261 2.0027 50.2862C2.0027 50.3595 2.0027 50.4328 2.0027 50.5083C1.95382 50.5083 1.90495 50.5083 1.85459 50.5083C1.99344 50.0733 1.99344 50.0733 2.07675 49.9899Z" fill="#191919"/>
<path d="M43.0285 45.7689C43.0774 45.7933 43.1263 45.8178 43.1767 45.8429C43.03 45.9896 42.8834 46.1362 42.7323 46.2873C42.6835 46.2628 42.6346 46.2384 42.5842 46.2132C42.7786 45.8522 42.7786 45.8522 43.0285 45.7689Z" fill="#191919"/>
<path d="M40.5107 42.8808C40.6727 42.9039 40.6727 42.9039 40.8069 42.9548C40.6847 43.0526 40.5625 43.1503 40.4367 43.251C40.3878 43.2022 40.3389 43.1533 40.2886 43.1029C40.3811 42.9872 40.3811 42.9872 40.5107 42.8808Z" fill="#191919"/>
<path d="M12.1481 41.77C12.1725 41.8188 12.197 41.8677 12.2221 41.9181C12.1529 42.0685 12.079 42.2169 12 42.3624C11.9213 42.2282 11.9213 42.2282 11.8519 42.0662C11.8763 41.9929 11.9007 41.9196 11.9259 41.844C11.9992 41.8196 12.0725 41.7951 12.1481 41.77Z" fill="#191919"/>
<path d="M19.1832 36.29C19.5442 36.4844 19.5442 36.4844 19.6275 36.7343C19.5298 36.7343 19.432 36.7343 19.3313 36.7343C19.3313 36.6366 19.3313 36.5388 19.3313 36.4381C19.2824 36.4381 19.2336 36.4381 19.1832 36.4381C19.1832 36.3892 19.1832 36.3403 19.1832 36.29Z" fill="#191919"/>
</g>
<defs>
<clipPath id="clip0_2377_7926">
<rect width="100" height="100" fill="white" transform="translate(0.651367 0.665771)"/>
</clipPath>
</defs>
</svg>
