<svg width="101" height="101" viewBox="0 0 101 101" fill="none" xmlns="http://www.w3.org/2000/svg">
<g clip-path="url(#clip0_2377_7971)">
<path d="M50.1377 41.9544C50.2028 41.9823 50.2679 42.0103 50.335 42.0391C51.9889 42.8014 53.5989 44.3746 54.3588 46.0273C54.3767 45.9397 54.3947 45.8521 54.4132 45.7618C54.7395 44.2048 55.3659 42.9694 56.6669 42.0021C58.258 40.9691 60.3231 40.7976 62.1576 41.1814C63.3846 41.4691 64.4616 42.0705 65.3928 42.9171C65.3542 43.2163 65.2806 43.3631 65.0706 43.5781C65.0197 43.631 64.9688 43.6839 64.9164 43.7385C64.8628 43.7927 64.8093 43.847 64.7541 43.9029C64.6497 44.0105 64.5453 44.1182 64.4411 44.226C64.3897 44.2791 64.3383 44.3321 64.2854 44.3868C63.9929 44.6947 63.7157 45.0151 63.4483 45.3449C63.4027 45.4006 63.3571 45.4562 63.3101 45.5136C63.264 45.571 63.218 45.6283 63.1706 45.6874C63.0231 45.8052 63.0231 45.8052 62.8576 45.8063C62.5727 45.7017 62.3158 45.5593 62.0511 45.4118C61.2897 45.0011 60.5835 44.6252 59.6907 44.7684C59.1907 44.9601 58.9492 45.2961 58.7095 45.7635C58.5755 46.2213 58.6657 46.5552 58.8564 46.9744C59.3747 47.8799 60.508 48.2795 61.4233 48.6793C62.4098 49.1105 63.381 49.5477 64.208 50.2484C64.2813 50.2973 64.3546 50.3461 64.4301 50.3965C64.4301 50.4454 64.4301 50.4943 64.4301 50.5446C64.479 50.5446 64.5279 50.5446 64.5782 50.5446C65.7808 51.8819 66.0275 53.3187 65.9852 55.0619C66.3518 54.622 66.3518 54.622 66.7258 54.1733C67.1244 54.253 67.1914 54.3107 67.4663 54.5852C68.2406 55.3135 69.1824 55.9042 70.2804 55.8765C70.9013 55.7627 71.3589 55.4616 71.7152 54.9462C71.9607 54.5675 72.0213 54.2558 71.9836 53.803C71.7919 53.1566 71.2502 52.7353 70.683 52.4145C70.5742 52.3576 70.4645 52.3023 70.3544 52.2479C70.2291 52.1816 70.2291 52.1816 70.1013 52.1139C69.5783 51.8525 69.0218 51.6621 68.4747 51.4577C67.0859 50.9252 65.988 50.1752 65.3373 48.8043C64.7343 47.3982 64.7037 45.8382 65.2262 44.3935C65.7675 43.1215 66.775 42.0736 68.0336 41.4933C68.9103 41.155 69.803 41.0253 70.7386 41.0333C70.832 41.0339 70.9254 41.0345 71.0217 41.0352C72.9227 41.0693 74.4395 41.7238 75.9085 42.9171C75.8707 43.2321 75.6908 43.3916 75.478 43.6159C75.4037 43.6951 75.3293 43.7743 75.255 43.8534C75.197 43.9147 75.197 43.9147 75.1377 43.9771C74.9454 44.1806 74.756 44.3867 74.5662 44.5925C74.511 44.6523 74.511 44.6523 74.4547 44.7132C74.1213 45.0742 73.7922 45.4388 73.4647 45.8052C73.253 45.7598 73.0837 45.6946 72.8954 45.5885C72.8441 45.5601 72.7928 45.5318 72.74 45.5026C72.6859 45.4726 72.6318 45.4426 72.576 45.4118C71.8013 44.9949 71.0365 44.6215 70.1323 44.7684C69.71 44.9306 69.4599 45.1851 69.2436 45.583C69.1017 46.0087 69.0926 46.508 69.2714 46.9252C69.7943 47.8016 70.7207 48.1582 71.6133 48.5452C73.5798 49.3991 74.9501 50.1634 76.0566 52.0997C76.081 48.5318 76.1054 44.9639 76.1306 41.2879C77.852 41.2864 79.5733 41.2848 81.3468 41.2833C82.1635 41.2822 82.1635 41.2822 82.9966 41.2812C83.6591 41.2809 83.6591 41.2809 83.9688 41.2808C84.1861 41.2807 84.4033 41.2805 84.6206 41.2801C84.8973 41.2796 85.1739 41.2794 85.4505 41.2795C85.6007 41.2795 85.7508 41.2791 85.9009 41.2787C85.9887 41.2788 86.0765 41.2789 86.1669 41.279C86.2439 41.2789 86.3208 41.2788 86.4 41.2788C86.5722 41.2879 86.5722 41.2879 86.6463 41.3619C86.6536 41.4752 86.6558 41.5888 86.6559 41.7023C86.6562 41.8109 86.6562 41.8109 86.6566 41.9217C86.6564 42.0004 86.6563 42.0792 86.6561 42.1603C86.6562 42.2406 86.6563 42.3208 86.6563 42.4035C86.6564 42.5736 86.6562 42.7437 86.6559 42.9138C86.6555 43.1751 86.6559 43.4365 86.6564 43.6978C86.6563 43.8626 86.6563 44.0274 86.6561 44.1922C86.6563 44.2709 86.6564 44.3497 86.6566 44.4308C86.6563 44.5032 86.6561 44.5756 86.6559 44.6502C86.6558 44.7464 86.6558 44.7464 86.6557 44.8444C86.6463 44.9906 86.6463 44.9906 86.5722 45.0646C86.3762 45.0717 86.1821 45.0739 85.986 45.073C85.9246 45.073 85.8632 45.0731 85.7999 45.0731C85.596 45.073 85.392 45.0724 85.188 45.0719C85.047 45.0717 84.906 45.0716 84.765 45.0715C84.3931 45.0713 84.0211 45.0705 83.6492 45.0697C83.2034 45.0688 82.7575 45.0685 82.3117 45.068C81.6337 45.0673 80.9557 45.0659 80.2776 45.0646C80.2776 46.2376 80.2776 47.4107 80.2776 48.6192C82.2571 48.6192 84.2366 48.6192 86.276 48.6192C86.2783 49.5333 86.2783 49.5333 86.2806 50.4659C86.2813 50.6586 86.282 50.8512 86.2827 51.0497C86.2829 51.2013 86.2831 51.353 86.2832 51.5047C86.2836 51.5843 86.284 51.6638 86.2844 51.7458C86.2844 51.821 86.2844 51.8962 86.2844 51.9736C86.2846 52.0392 86.2847 52.1048 86.2849 52.1724C86.276 52.3219 86.276 52.3219 86.202 52.396C86.0172 52.403 85.8345 52.4053 85.6497 52.4044C85.5919 52.4044 85.5341 52.4044 85.4746 52.4044C85.2826 52.4044 85.0907 52.4038 84.8988 52.4032C84.7661 52.4031 84.6333 52.403 84.5006 52.4029C84.1506 52.4026 83.8006 52.4019 83.4506 52.401C83.031 52.4002 82.6114 52.3998 82.1918 52.3994C81.5538 52.3987 80.9157 52.3972 80.2776 52.396C80.2776 53.569 80.2776 54.742 80.2776 55.9505C82.3793 55.9505 84.4809 55.9505 86.6463 55.9505C86.7325 57.9338 86.7325 57.9338 86.7296 58.7924C86.7299 58.883 86.7302 58.9735 86.7305 59.0669C86.7304 59.1525 86.7303 59.2381 86.7302 59.3264C86.73 59.4398 86.73 59.4398 86.7299 59.5556C86.7203 59.7273 86.7203 59.7273 86.6463 59.8013C86.5115 59.8087 86.3764 59.8107 86.2415 59.8108C86.1536 59.811 86.0658 59.8112 85.9753 59.8114C85.878 59.8112 85.7807 59.8111 85.6805 59.8109C85.5778 59.811 85.475 59.8112 85.3723 59.8113C85.0924 59.8117 84.8126 59.8115 84.5328 59.8113C84.2405 59.8111 83.9483 59.8113 83.6561 59.8114C83.1653 59.8115 82.6744 59.8114 82.1836 59.811C81.6154 59.8106 81.0471 59.8107 80.4788 59.8111C79.9918 59.8115 79.5048 59.8115 79.0178 59.8113C78.7265 59.8112 78.4353 59.8112 78.144 59.8114C77.8702 59.8117 77.5965 59.8115 77.3227 59.8111C77.1737 59.8109 77.0247 59.8112 76.8757 59.8114C76.7879 59.8112 76.7 59.811 76.6095 59.8108C76.5327 59.8107 76.4558 59.8107 76.3767 59.8107C76.2047 59.8013 76.2047 59.8013 76.1306 59.7273C76.1216 59.6182 76.1175 59.5088 76.1154 59.3994C76.1139 59.3297 76.1125 59.26 76.1109 59.1882C76.1097 59.1125 76.1085 59.0367 76.1072 58.9587C76.1057 58.8815 76.1041 58.8044 76.1025 58.7249C76.0977 58.4774 76.0933 58.2299 76.089 57.9824C76.0858 57.8151 76.0825 57.6477 76.0793 57.4804C76.0713 57.0692 76.0638 56.658 76.0566 56.2468C76.0316 56.2974 76.0066 56.348 75.9808 56.4001C75.9478 56.4666 75.9147 56.5332 75.8807 56.6017C75.848 56.6676 75.8154 56.7335 75.7818 56.8014C75.5785 57.1972 75.3401 57.4958 75.0198 57.8019C74.9489 57.8764 74.9489 57.8764 74.8766 57.9523C73.732 59.1439 72.1523 59.9911 70.4788 60.0484C68.212 60.0792 66.5437 59.37 64.8143 57.924C64.6664 57.787 64.6664 57.787 64.5042 57.8019C64.4153 57.9081 64.3267 58.0145 64.24 58.1225C63.2942 59.2259 61.6925 59.9254 60.2667 60.0432C59.2541 60.095 58.2801 60.0764 57.3209 59.7273C57.2488 59.7011 57.2488 59.7011 57.1752 59.6743C56.0527 59.2544 55.1158 58.5759 54.2107 57.8019C54.1198 57.7262 54.0287 57.6506 53.9376 57.5751C53.8811 57.5278 53.8246 57.4804 53.7664 57.4316C53.8024 57.0837 53.9438 56.9064 54.169 56.6448C54.3428 56.4412 54.5065 56.2474 54.655 56.0246C54.7039 56.0246 54.7528 56.0246 54.8031 56.0246C54.8188 55.9861 54.8344 55.9477 54.8506 55.908C54.9941 55.6518 55.1839 55.4441 55.377 55.2239C55.415 55.1801 55.453 55.1364 55.4922 55.0913C55.5689 55.0028 55.646 54.9147 55.7234 54.8268C55.8035 54.7339 55.8814 54.6391 55.9575 54.5428C56.0144 54.4717 56.0144 54.4717 56.0724 54.3992C56.1061 54.3559 56.1397 54.3126 56.1743 54.2679C56.2842 54.1733 56.2842 54.1733 56.5804 54.1733C56.6705 54.2559 56.7598 54.3397 56.8434 54.429C57.2093 54.8196 57.6084 55.1157 58.0707 55.3813C58.1141 55.4062 58.1575 55.4312 58.2022 55.457C58.8058 55.7934 59.4501 55.9722 60.135 55.8117C60.6997 55.6157 61.1735 55.1861 61.4448 54.6546C61.5934 54.2478 61.5693 53.8967 61.4029 53.4995C60.7988 52.4072 59.3233 51.9775 58.2374 51.5443C57.1481 51.109 56.1348 50.674 55.3955 49.73C55.3973 49.8153 55.399 49.9005 55.4007 49.9883C55.4367 52.553 54.8795 54.8138 53.248 56.8392C53.2085 56.8901 53.1689 56.941 53.1282 56.9934C52.9061 57.2689 52.6656 57.4743 52.3778 57.6792C52.1867 57.82 52.0081 57.9723 51.8271 58.1259C50.6939 59.0523 49.4139 59.5836 47.9902 59.8754C47.912 59.8921 47.8338 59.9088 47.7532 59.926C45.2696 60.369 42.6697 59.8728 40.583 58.4655C40.1663 58.1698 39.774 57.8535 39.3999 57.5057C39.3227 57.4369 39.3227 57.4369 39.244 57.3668C37.7174 55.9402 36.8122 53.7514 36.7127 51.6806C36.7036 51.3862 36.7027 51.0921 36.705 50.7976C36.7062 50.6187 36.705 50.44 36.7036 50.2611C36.7001 47.7257 37.6996 45.4919 39.4416 43.6622C40.51 42.6219 41.7531 41.8753 43.1767 41.436C43.2478 41.414 43.3189 41.3921 43.3922 41.3695C45.6065 40.7542 48.0554 41.0297 50.1377 41.9544ZM42.4113 46.3632C42.3156 46.4866 42.2246 46.6121 42.1353 46.7401C42.1033 46.7855 42.0713 46.8309 42.0383 46.8777C41.7722 47.2648 41.5662 47.6611 41.3994 48.1008C41.3776 48.1569 41.3558 48.2129 41.3334 48.2706C41.0678 49.0063 41.002 49.7486 41.0059 50.5261C41.0063 50.6105 41.0066 50.695 41.0069 50.782C41.0154 51.4186 41.0697 52.0047 41.2513 52.6181C41.2702 52.6824 41.2891 52.7466 41.3085 52.8128C41.7276 54.0105 42.6485 55.0994 43.7627 55.6989C44.9973 56.2583 46.4368 56.365 47.7313 55.9393C49.1068 55.3942 49.9913 54.427 50.593 53.0966C51.2693 51.4135 51.1875 49.4367 50.5505 47.7592C50.0249 46.6284 49.1445 45.7555 47.9948 45.2683C47.8704 45.2233 47.7454 45.1801 47.6199 45.1387C47.5575 45.1165 47.495 45.0944 47.4307 45.0716C45.7317 44.5518 43.6041 44.9911 42.4113 46.3632ZM65.8371 55.136C65.9112 55.2841 65.9112 55.2841 65.9112 55.2841L65.8371 55.136Z" fill="white"/>
<path d="M14.9621 33.8825C15.0118 33.8982 15.0615 33.9139 15.1126 33.9301C16.4462 34.3764 17.7494 35.0579 18.887 35.8819C19.0027 35.9611 19.0027 35.9611 19.1207 36.0419C19.554 36.3433 19.554 36.3433 19.7016 36.4744C19.7016 36.5477 19.7016 36.621 19.7016 36.6965C19.6045 36.7129 19.6045 36.7129 19.5054 36.7295C18.2833 36.9524 17.1573 37.3482 16.0729 37.9555C16.0231 37.9833 15.9733 38.0112 15.9219 38.0399C15.1656 38.4706 14.5424 38.9736 13.9254 39.5846C13.8717 39.6338 13.8181 39.683 13.7628 39.7336C12.8088 40.6239 12.1509 41.812 11.6297 42.9911C11.742 42.9041 11.742 42.9041 11.8565 42.8152C14.093 41.1428 16.5885 40.0715 19.3708 39.7536C19.4865 39.7404 19.6021 39.7264 19.7176 39.7114C23.2793 39.2654 27.0884 40.416 29.9264 42.5836C31.5685 43.8641 32.8709 45.3503 33.9146 47.1523C33.9826 47.267 34.0564 47.3782 34.1314 47.4884C34.2689 47.7611 34.1764 47.9301 34.0874 48.2102C34.0566 48.2963 34.0257 48.3824 33.994 48.4711C33.9753 48.5234 33.9567 48.5757 33.9375 48.6296C33.5153 49.7931 32.9846 50.9718 32.2167 51.9516C32.1678 51.9516 32.1189 51.9516 32.0686 51.9516C32.0411 52.0112 32.0411 52.0112 32.013 52.072C31.8957 52.2949 31.7816 52.4944 31.6242 52.6922C31.4206 52.7199 31.4206 52.7199 31.254 52.6922C31.1662 52.4383 31.0867 52.1835 31.015 51.9247C30.5146 50.1356 29.6777 48.6124 28.3659 47.2862C28.3185 47.2344 28.2712 47.1826 28.2224 47.1292C27.3641 46.2098 26.1388 45.4218 24.9594 44.9906C24.9837 45.0222 25.0081 45.0538 25.0332 45.0863C26.4683 46.9726 27.46 48.9978 28.0234 51.3037C28.042 51.3791 28.042 51.3791 28.0611 51.456C28.1345 51.7744 28.1547 52.0699 28.1437 52.396C28.0948 52.396 28.046 52.396 27.9956 52.396C28.02 52.4448 28.0445 52.4937 28.0697 52.5441C28.0851 52.7058 28.0969 52.8679 28.1067 53.03C28.1241 53.3137 28.145 53.5894 28.1886 53.8704C28.25 54.4108 28.1788 54.9576 28.1298 55.497C28.1247 55.5549 28.1196 55.6129 28.1143 55.6727C27.9819 57.1453 27.6534 58.4739 27.181 59.8754C27.1321 59.8754 27.0833 59.8754 27.0329 59.8754C27.0284 59.9454 27.0239 60.0153 27.0193 60.0874C26.9627 60.4793 26.7704 60.804 26.584 61.1482C26.5472 61.2171 26.5104 61.286 26.4725 61.357C26.0579 62.124 25.5806 62.8251 25.0335 63.504C24.9868 63.5645 24.9401 63.6249 24.892 63.6872C23.8033 65.0689 22.4622 66.1541 20.9605 67.0586C20.9036 67.0946 20.8467 67.1306 20.7881 67.1677C20.4028 67.3914 20.1184 67.3829 19.7016 67.2808C19.0689 67.1097 18.5031 66.8431 17.9243 66.5403C17.8009 66.4799 17.6775 66.4197 17.554 66.3597C16.932 66.0473 16.3376 65.6897 15.7582 65.3045C15.6769 65.2507 15.5955 65.197 15.5117 65.1416C15.4526 65.09 15.3934 65.0383 15.3324 64.9851C15.3324 64.8874 15.3324 64.7896 15.3324 64.6889C15.404 64.6701 15.4756 64.6513 15.5494 64.6319C15.8013 64.5655 16.0528 64.4977 16.3043 64.4297C16.4159 64.4 16.528 64.3719 16.6402 64.3444C18.081 63.9663 20.1269 62.829 20.9605 61.5786C21.0094 61.5786 21.0582 61.5786 21.1086 61.5786C21.1384 61.5145 21.1384 61.5145 21.1688 61.449C21.2589 61.2783 21.3532 61.1328 21.4789 60.9862C21.5277 60.9862 21.5766 60.9862 21.627 60.9862C21.6522 60.9083 21.6522 60.9083 21.6779 60.8288C21.7746 60.6171 21.8945 60.4721 22.0458 60.2975C22.2379 60.0546 22.3718 59.7783 22.5156 59.5051C22.5672 59.4085 22.6189 59.3119 22.6707 59.2153C22.817 58.9419 22.9626 58.6682 23.1081 58.3943C22.9853 58.3253 22.9853 58.3253 22.8118 58.3203C22.6376 58.425 22.4856 58.5298 22.3259 58.6535C22.2322 58.723 22.1385 58.7923 22.0447 58.8615C21.9986 58.8958 21.9526 58.93 21.9051 58.9653C20.9177 59.6905 19.8256 60.2356 18.6648 60.6159C18.5674 60.6539 18.4701 60.6923 18.3732 60.7316C17.9648 60.8871 17.536 60.9837 17.1133 61.0923C17.0071 61.1217 16.9017 61.154 16.797 61.1885C16.273 61.3598 15.755 61.4311 15.2074 61.4861C15.1135 61.4956 15.0196 61.5051 14.9229 61.5149C13.5282 61.6427 12.1529 61.5408 10.7842 61.2489C10.6471 61.2198 10.5095 61.1931 10.3717 61.1679C9.16715 60.9357 8.02903 60.5255 6.94952 59.9462C6.73439 59.8319 6.51607 59.7244 6.29782 59.6162C6.1744 59.5545 6.05098 59.4928 5.92755 59.4311C5.92755 59.3822 5.92755 59.3333 5.92755 59.283C5.88851 59.2774 5.84947 59.2719 5.80924 59.2662C5.55905 59.1856 5.3647 59.0382 5.15462 58.8849C5.10947 58.8524 5.06432 58.8198 5.01781 58.7863C4.60982 58.4878 4.22395 58.1659 3.84219 57.8349C3.70843 57.7197 3.57245 57.607 3.43373 57.4979C3.28116 57.3735 3.15731 57.2524 3.0302 57.103C2.98648 57.0517 2.94275 57.0005 2.89771 56.9477C2.84673 56.8874 2.79576 56.8272 2.74324 56.7651C2.67791 56.6896 2.61253 56.6141 2.54711 56.5386C2.04323 55.9545 1.5588 55.3618 1.19129 54.6798C1.13093 54.5733 1.06517 54.4699 0.997475 54.3679C0.740731 53.9747 0.598368 53.6878 0.669729 53.2106C0.674311 53.1541 0.678893 53.0977 0.683614 53.0396C0.861079 51.5822 1.86679 50.0702 2.72646 48.9166C2.88784 48.698 3.03863 48.4761 3.18756 48.2489C3.26087 48.2734 3.33419 48.2978 3.40972 48.323C3.46516 48.5221 3.5071 48.7127 3.54394 48.9154C3.64164 49.4003 3.76187 49.8656 3.9281 50.3317C3.94565 50.3815 3.96319 50.4314 3.98127 50.4827C4.09358 50.79 4.22963 51.0774 4.37938 51.368C4.47017 51.5565 4.52916 51.7532 4.59458 51.9516C4.91045 52.5843 5.3192 53.1217 5.77945 53.6549C5.82345 53.708 5.86746 53.761 5.9128 53.8157C6.08066 54.0173 6.22629 54.1749 6.44593 54.3214C6.44593 54.3702 6.44593 54.4191 6.44593 54.4695C6.51237 54.5015 6.51237 54.5015 6.58015 54.5343C6.74215 54.6176 6.74215 54.6176 6.96431 54.7657C6.96431 54.8146 6.96431 54.8634 6.96431 54.9138C7.00555 54.9336 7.04679 54.9535 7.08927 54.974C7.27624 55.07 7.45581 55.1674 7.63079 55.2841C7.63079 55.3329 7.63079 55.3818 7.63079 55.4322C7.70425 55.4585 7.70425 55.4585 7.77919 55.4854C8.11673 55.6297 8.42718 55.819 8.74377 56.0041C9.23111 56.2918 9.23111 56.2918 9.77836 56.3949C9.63617 56.0911 9.47966 55.8407 9.26923 55.5803C8.6084 54.7136 7.99084 53.7337 7.62559 52.7029C7.56782 52.5415 7.56782 52.5415 7.45029 52.4422C7.27774 52.2628 7.20661 52.0471 7.12167 51.8174C7.10265 51.7663 7.08363 51.7152 7.06403 51.6626C6.71846 50.6915 6.50374 49.6404 6.37188 48.6192C6.36367 48.5572 6.35546 48.4951 6.347 48.4312C5.93047 44.5248 7.15367 40.6017 9.60617 37.5558C9.86415 37.2438 10.1383 36.9471 10.4178 36.6545C10.5152 36.5524 10.6112 36.449 10.7072 36.3457C11.5622 35.4519 12.579 34.7292 13.6463 34.1095C13.7788 34.0322 13.7788 34.0322 13.903 33.9392C14.2913 33.6724 14.5449 33.742 14.9621 33.8825ZM16.5867 45.1387C16.524 45.1689 16.4614 45.1991 16.3968 45.2302C14.3187 46.2527 12.2794 48.1674 11.4816 50.3965C11.5032 50.7567 11.6816 51.08 11.8256 51.4065C11.9954 51.7917 11.9954 51.7917 12.0665 51.9777C12.4 52.8328 13.0258 53.6389 13.7032 54.2473C13.7613 54.3069 13.8193 54.3664 13.8791 54.4278C14.6617 55.1918 15.4851 55.7937 16.4432 56.3208C16.503 56.355 16.5627 56.3892 16.6243 56.4244C16.9872 56.6128 17.2029 56.6257 17.5947 56.5275C17.91 56.4258 18.1942 56.2753 18.4843 56.1172C18.5435 56.0862 18.6026 56.0553 18.6635 56.0234C19.063 55.8098 19.4212 55.5656 19.7756 55.2841C19.878 55.2036 19.878 55.2036 19.9825 55.1215C20.041 55.0743 20.0995 55.0272 20.1598 54.9786C20.2189 54.9311 20.278 54.8835 20.3388 54.8345C20.3974 54.7874 20.4559 54.7402 20.5162 54.6916C20.5816 54.6406 20.6469 54.5895 20.7143 54.5369C20.9018 54.3828 21.0336 54.2161 21.1827 54.0251C21.2468 53.9625 21.311 53.8999 21.377 53.8354C21.5314 53.6769 21.6187 53.5608 21.701 53.3587C21.7499 53.3587 21.7988 53.3587 21.8491 53.3587C21.9962 53.1936 21.9962 53.1936 22.1454 52.9838C22.1973 52.9142 22.2492 52.8446 22.3027 52.7729C22.4526 52.5259 22.511 52.3026 22.5897 52.0257C22.6625 51.8862 22.7428 51.7534 22.8249 51.6191C23.0824 51.2035 23.0824 51.2035 23.1922 50.7364C23.1357 50.5563 23.055 50.4119 22.9599 50.2484C22.9165 50.1579 22.8739 50.067 22.8318 49.9759C21.7757 47.7207 20.0973 46.1389 17.9243 44.9906C17.8719 44.9601 17.8195 44.9297 17.7655 44.8983C17.3332 44.7227 16.9752 44.9494 16.5867 45.1387Z" fill="white"/>
<path d="M86.3501 52.2479C87.7675 52.2479 89.1848 52.2479 90.6452 52.2479C90.7429 52.4922 90.8407 52.7366 90.9414 52.9884C91.4632 54.1981 92.253 55.0327 93.4546 55.571C95.2303 56.2436 97.0206 55.9667 98.7171 55.21C99.1989 54.9849 99.672 54.742 100.14 54.4888C100.346 54.3954 100.346 54.3954 100.642 54.3954C100.642 55.9106 100.642 57.4257 100.642 58.9868C99.0353 59.5712 97.3271 60.0432 95.6068 60.0976C95.5388 60.1005 95.4709 60.1035 95.4008 60.1065C93.1228 60.1597 90.9869 59.4537 89.3229 57.8786C89.2202 57.7794 89.1181 57.6796 89.016 57.5797C88.9559 57.5233 88.8957 57.4669 88.8338 57.4088C87.7521 56.3732 86.984 54.99 86.5815 53.5531C86.5664 53.4994 86.5514 53.4458 86.5359 53.3905C86.4339 53.0034 86.3952 52.6539 86.3501 52.2479Z" fill="white"/>
<path d="M100.568 42.2506C100.642 42.3246 100.642 42.3246 100.651 42.505C100.651 42.5851 100.651 42.6652 100.651 42.7477C100.651 42.8381 100.651 42.9286 100.651 43.0218C100.65 43.1212 100.65 43.2206 100.65 43.32C100.65 43.4212 100.649 43.5224 100.649 43.6235C100.649 43.8903 100.648 44.157 100.648 44.4238C100.647 44.6958 100.646 44.9678 100.646 45.2398C100.645 45.7738 100.644 46.3079 100.642 46.8419C100.363 46.7987 100.141 46.7571 99.8938 46.6169C99.8386 46.5863 99.7835 46.5558 99.7266 46.5243C99.6684 46.4917 99.6102 46.459 99.5502 46.4254C97.8572 45.5096 95.9474 44.8716 94.0054 45.296C93.1951 45.5475 92.5727 45.9447 91.9782 46.5457C91.9373 46.5841 91.8964 46.6225 91.8543 46.662C91.3124 47.2185 91.0197 48.0661 90.7192 48.7673C89.2774 48.7673 87.8356 48.7673 86.3501 48.7673C86.8092 46.2422 88.1053 44.0581 90.2187 42.5612C93.1586 40.5641 97.4657 40.5026 100.568 42.2506Z" fill="white"/>
<path d="M17.2856 48.1425C17.348 48.1431 17.4105 48.1437 17.4748 48.1444C18.1727 48.1634 18.6145 48.3715 19.1248 48.8472C19.6923 49.4568 19.8122 50.1175 19.7985 50.9351C19.7438 51.5957 19.4559 52.1072 18.961 52.5441C18.2353 53.0573 17.543 53.1729 16.6654 53.0624C16.0243 52.8643 15.4939 52.4921 15.1475 51.9152C14.8014 51.2544 14.7043 50.6024 14.8973 49.8735C15.1523 49.1181 15.6075 48.6375 16.3075 48.2758C16.63 48.1426 16.9403 48.1381 17.2856 48.1425Z" fill="white"/>
<path d="M76.1306 41.2879C77.852 41.2864 79.5733 41.2848 81.3468 41.2833C81.8913 41.2826 82.4357 41.2819 82.9966 41.2812C83.6591 41.2809 83.6591 41.2809 83.9688 41.2808C84.1861 41.2807 84.4033 41.2805 84.6206 41.2801C84.8973 41.2796 85.1739 41.2794 85.4505 41.2795C85.6007 41.2795 85.7508 41.2791 85.9009 41.2787C85.9887 41.2788 86.0765 41.2789 86.1669 41.279C86.2439 41.2789 86.3208 41.2788 86.4 41.2788C86.5722 41.2879 86.5722 41.2879 86.6463 41.3619C86.6536 41.4752 86.6558 41.5888 86.6559 41.7023C86.6561 41.7747 86.6563 41.8471 86.6566 41.9217C86.6563 42.0398 86.6563 42.0398 86.6561 42.1603C86.6562 42.2406 86.6563 42.3208 86.6563 42.4035C86.6564 42.5736 86.6562 42.7437 86.6559 42.9138C86.6555 43.1751 86.6559 43.4365 86.6564 43.6978C86.6563 43.8626 86.6563 44.0274 86.6561 44.1922C86.6563 44.2709 86.6564 44.3497 86.6566 44.4308C86.6562 44.5394 86.6562 44.5394 86.6559 44.6502C86.6558 44.7143 86.6557 44.7784 86.6557 44.8444C86.6463 44.9906 86.6463 44.9906 86.5722 45.0646C86.3762 45.0717 86.1821 45.0739 85.986 45.073C85.9246 45.073 85.8632 45.0731 85.7999 45.0731C85.596 45.073 85.392 45.0724 85.188 45.0719C85.047 45.0717 84.906 45.0716 84.765 45.0715C84.3931 45.0713 84.0211 45.0705 83.6492 45.0697C83.2034 45.0688 82.7575 45.0685 82.3117 45.068C81.6337 45.0673 80.9557 45.0659 80.2776 45.0646C80.2776 46.2376 80.2776 47.4107 80.2776 48.6192C82.2571 48.6192 84.2366 48.6192 86.276 48.6192C86.276 49.8411 86.276 51.063 86.276 52.3219C86.2516 52.3219 86.2271 52.3219 86.202 52.3219C86.202 51.1245 86.202 49.927 86.202 48.6933C84.1981 48.6933 82.1942 48.6933 80.1295 48.6933C80.128 48.0961 80.1265 47.4989 80.1249 46.8836C80.1242 46.6948 80.1236 46.506 80.1229 46.3116C80.1227 46.1629 80.1225 46.0143 80.1223 45.8656C80.1219 45.7877 80.1215 45.7097 80.1212 45.6294C80.1211 45.5189 80.1211 45.5189 80.1211 45.4061C80.121 45.3418 80.1208 45.2775 80.1206 45.2113C80.1295 45.0646 80.1295 45.0646 80.2036 44.9906C80.3996 44.9835 80.5938 44.9813 80.7898 44.9822C80.8512 44.9822 80.9126 44.9821 80.9759 44.9821C81.1798 44.9822 81.3838 44.9828 81.5878 44.9833C81.7288 44.9835 81.8698 44.9836 82.0108 44.9837C82.3828 44.9839 82.7547 44.9847 83.1266 44.9855C83.5724 44.9864 84.0183 44.9867 84.4641 44.9872C85.1421 44.9879 85.8202 44.9893 86.4982 44.9906C86.4982 43.7931 86.4982 42.5957 86.4982 41.3619C83.1013 41.3619 79.7045 41.3619 76.2047 41.3619C76.2047 45.0276 76.2047 48.6933 76.2047 52.47C75.9825 52.396 75.9825 52.396 75.8529 52.1877C75.7614 51.9543 75.7395 51.8799 75.8344 51.6554C75.9077 51.802 75.981 51.9487 76.0566 52.0997C76.081 48.5318 76.1054 44.9639 76.1306 41.2879Z" fill="white"/>
<path d="M76.1306 41.2879C79.5764 41.2879 83.0221 41.2879 86.5722 41.2879C86.5722 41.3123 86.5722 41.3368 86.5722 41.3619C83.1509 41.3619 79.7296 41.3619 76.2047 41.3619C76.2047 45.0276 76.2047 48.6933 76.2047 52.47C75.9825 52.396 75.9825 52.396 75.8529 52.1877C75.7614 51.9543 75.7395 51.8799 75.8344 51.6554C75.9077 51.802 75.981 51.9487 76.0566 52.0997C76.081 48.5318 76.1054 44.9639 76.1306 41.2879Z" fill="white"/>
<path d="M76.2047 41.3619C79.6015 41.3619 82.9984 41.3619 86.4982 41.3619C86.4982 41.3864 86.4982 41.4108 86.4982 41.436C83.1258 41.436 79.7533 41.436 76.2787 41.436C76.2787 45.175 76.2787 48.9139 76.2787 52.7662C76.2054 52.7418 76.1321 52.7174 76.0566 52.6922C76.0566 52.6189 76.0566 52.5456 76.0566 52.47C76.1054 52.47 76.1543 52.47 76.2047 52.47C76.2047 48.8043 76.2047 45.1387 76.2047 41.3619Z" fill="white"/>
<path d="M68.0588 41.51C68.1076 41.5345 68.1565 41.5589 68.2069 41.5841C68.1091 41.6085 68.0114 41.633 67.9106 41.6581C67.9106 41.707 67.9106 41.7559 67.9106 41.8063C67.8282 41.8368 67.7457 41.8674 67.6607 41.8988C67.4171 42.0018 67.3474 42.0784 67.2442 42.3246C67.1999 42.346 67.1556 42.3674 67.1099 42.3894C66.9146 42.4899 66.8133 42.629 66.6786 42.799C66.4844 43.0261 66.2532 43.2274 65.9852 43.3614C65.9076 43.5077 65.8333 43.6557 65.7631 43.8057C65.7142 43.8057 65.6653 43.8057 65.615 43.8057C65.6035 43.8836 65.6035 43.8836 65.5918 43.9631C65.5409 44.176 65.5409 44.176 65.4345 44.3672C65.2891 44.6851 65.2413 44.9842 65.1938 45.3284C65.1797 45.4265 65.1797 45.4265 65.1654 45.5265C65.0885 46.0944 65.0192 46.6835 65.1345 47.2504C65.1732 47.4475 65.178 47.6271 65.1753 47.8278C65.1746 47.8932 65.1739 47.9585 65.1733 48.0259C65.1724 48.0751 65.1715 48.1242 65.1707 48.1749C64.6628 47.413 64.8344 46.1738 64.9719 45.3172C65.2508 43.926 66.0554 42.7586 67.2274 41.963C67.7858 41.601 67.7858 41.601 68.0588 41.51Z" fill="white"/>
<path d="M76.2047 55.8765C76.3528 56.0246 76.3528 56.0246 76.3646 56.1635C76.3623 56.2154 76.3599 56.2673 76.3574 56.3208C76.3457 56.5517 76.3457 56.5517 76.4268 56.7651C76.4024 56.9606 76.378 57.1561 76.3528 57.3576C76.3284 58.1151 76.3039 58.8727 76.2787 59.6532C79.6511 59.6532 83.0236 59.6532 86.4982 59.6532C86.4982 59.2378 86.4982 58.8224 86.4982 58.3943C86.5226 58.3943 86.547 58.3943 86.5722 58.3943C86.5722 58.8342 86.5722 59.2741 86.5722 59.7273C83.1509 59.7273 79.7296 59.7273 76.2047 59.7273C76.2047 58.4565 76.2047 57.1858 76.2047 55.8765Z" fill="white"/>
<path d="M86.3501 52.2479C87.7675 52.2479 89.1848 52.2479 90.6452 52.2479C90.6818 52.4311 90.6818 52.4311 90.7192 52.6181C90.6704 52.6181 90.6215 52.6181 90.5711 52.6181C90.5711 52.5692 90.5711 52.5204 90.5711 52.47C89.2515 52.4945 87.9319 52.5189 86.5722 52.5441C86.5478 52.6663 86.5233 52.7884 86.4982 52.9143C86.4737 52.9143 86.4493 52.9143 86.4241 52.9143C86.3997 52.6944 86.3752 52.4745 86.3501 52.2479Z" fill="white"/>
<path d="M16.7394 45.0646C16.5222 45.241 16.2909 45.3735 16.0448 45.5056C14.907 46.1182 13.8172 46.9267 13.0547 47.9811C13.0243 48.0206 12.9939 48.0601 12.9627 48.1008C12.9382 48.1008 12.9138 48.1008 12.8886 48.1008C12.8655 47.9388 12.8655 47.9388 12.8886 47.7306C13.0645 47.5223 13.0645 47.5223 13.2589 47.3603C13.3078 47.3603 13.3566 47.3603 13.407 47.3603C13.4314 47.2625 13.4559 47.1648 13.481 47.0641C13.5299 47.0641 13.5788 47.0641 13.6292 47.0641C13.6292 47.0152 13.6292 46.9663 13.6292 46.916C13.7495 46.8135 13.8736 46.7154 13.9994 46.6198C14.0965 46.5384 14.0965 46.5384 14.1956 46.4555C14.5619 46.1489 14.9131 45.8842 15.3324 45.6571C15.47 45.5384 15.47 45.5384 15.5546 45.4349C15.6279 45.4593 15.7012 45.4838 15.7767 45.509C15.7935 45.4631 15.8103 45.4173 15.8276 45.3701C16.0358 45.0331 16.3752 45.0477 16.7394 45.0646Z" fill="white"/>
<path d="M37.3264 46.8419C37.4495 47.1443 37.3456 47.4128 37.2616 47.7121C37.1237 48.2121 37.0302 48.6846 37.0302 49.207C37.0302 49.2819 37.0302 49.3567 37.0302 49.4338C36.9935 49.4705 36.9935 49.4705 36.9561 49.5079C36.9442 49.7375 36.9369 49.9657 36.9327 50.1955C36.9312 50.2644 36.9296 50.3333 36.928 50.4043C36.9232 50.6254 36.9188 50.8465 36.9145 51.0676C36.9113 51.2171 36.908 51.3666 36.9048 51.5161C36.8968 51.8835 36.8893 52.2508 36.8821 52.6181C36.8576 52.6181 36.8332 52.6181 36.808 52.6181C36.7505 52.2084 36.7213 51.8101 36.7189 51.3965C36.7185 51.3379 36.7181 51.2792 36.7176 51.2188C36.7169 51.0952 36.7165 50.9715 36.7162 50.8479C36.7155 50.6631 36.7132 50.4784 36.7108 50.2937C36.704 49.2716 36.8074 48.2868 37.1551 47.3186C37.1875 47.2269 37.2199 47.1352 37.2532 47.0407C37.2774 46.9751 37.3015 46.9095 37.3264 46.8419Z" fill="white"/>
<path d="M100.272 42.1765C100.559 42.2413 100.559 42.2413 100.642 42.3246C100.649 42.4655 100.651 42.6067 100.651 42.7477C100.651 42.8381 100.651 42.9286 100.651 43.0218C100.65 43.1212 100.65 43.2206 100.65 43.32C100.65 43.4212 100.649 43.5224 100.649 43.6235C100.649 43.8903 100.648 44.157 100.648 44.4238C100.647 44.6958 100.646 44.9678 100.646 45.2398C100.645 45.7738 100.644 46.3079 100.642 46.8419C100.318 46.7956 100.101 46.7307 99.8279 46.5457C99.9528 46.4948 99.9528 46.4948 100.124 46.4717C100.25 46.542 100.373 46.6158 100.494 46.6938C100.488 46.1267 100.481 45.5596 100.473 44.9925C100.469 44.7292 100.466 44.4658 100.463 44.2025C100.46 43.9 100.455 43.5974 100.451 43.2949C100.45 43.2001 100.449 43.1052 100.448 43.0076C100.447 42.9201 100.445 42.8326 100.444 42.7425C100.443 42.6652 100.442 42.5879 100.441 42.5083C100.438 42.3117 100.438 42.3117 100.272 42.1765Z" fill="white"/>
<path d="M41.7696 47.1381C41.7941 47.187 41.8185 47.2359 41.8437 47.2862C41.7777 47.4555 41.7777 47.4555 41.6771 47.6611C41.1889 48.7011 41.0804 49.6795 41.0939 50.8177C41.0946 50.9281 41.0953 51.0386 41.0959 51.149C41.0975 51.4166 41.1001 51.6841 41.1031 51.9516C41.0543 51.9516 41.0054 51.9516 40.955 51.9516C40.7535 50.8227 40.7687 49.5696 41.1124 48.474C41.1735 48.2618 41.1903 48.0977 41.1772 47.8787C41.2505 47.8542 41.3238 47.8298 41.3994 47.8046C41.3994 47.6824 41.3994 47.5602 41.3994 47.4344C41.4727 47.4099 41.546 47.3855 41.6215 47.3603C41.6704 47.287 41.7193 47.2137 41.7696 47.1381Z" fill="white"/>
<path d="M20.5162 62.023C20.565 62.0474 20.6139 62.0718 20.6643 62.097C20.17 62.5641 19.6763 62.9787 19.1091 63.3559C19.0527 63.3973 18.9963 63.4386 18.9382 63.4812C18.555 63.7568 18.2431 63.8743 17.7762 63.9484C17.9316 63.7929 18.0502 63.7345 18.2483 63.6429C19.0763 63.2354 19.8629 62.6762 20.5162 62.023ZM17.7021 63.9484C17.7388 64.0217 17.7388 64.0217 17.7762 64.0965C16.2628 64.6411 16.2628 64.6411 15.5546 64.837C15.8286 65.1277 16.1136 65.3514 16.4432 65.5776C16.1778 65.5776 16.1022 65.514 15.8878 65.3646C15.8305 65.3251 15.7732 65.2856 15.7142 65.2449C15.6615 65.208 15.6088 65.1712 15.5546 65.1332C15.4812 65.0844 15.4079 65.0355 15.3324 64.9851C15.3324 64.8874 15.3324 64.7896 15.3324 64.6889C15.404 64.6701 15.4756 64.6513 15.5494 64.6319C16.6463 64.3512 16.6463 64.3512 17.7021 63.9484Z" fill="white"/>
<path d="M73.2425 41.3619C73.3158 41.4352 73.3158 41.4352 73.3906 41.51C73.3058 41.4993 73.2209 41.4887 73.1335 41.4776C73.0202 41.4637 72.9069 41.4499 72.7936 41.436C72.71 41.4254 72.71 41.4254 72.6248 41.4146C72.2847 41.3734 71.9559 41.3547 71.6133 41.3619C71.6133 41.3131 71.6133 41.2642 71.6133 41.2138C70.4861 41.2355 69.3835 41.2596 68.2809 41.51C68.355 41.3619 68.355 41.3619 68.5783 41.2827C70.0633 40.8892 71.7745 40.8904 73.2425 41.3619Z" fill="white"/>
<path d="M14.4437 38.77C14.5537 38.8434 14.5537 38.8434 14.6659 38.9182C14.6317 38.947 14.5976 38.9758 14.5624 39.0055C13.8018 39.6579 13.1839 40.3499 12.6072 41.1651C12.4847 41.3343 12.3544 41.4966 12.2221 41.6581C12.1977 41.5604 12.1733 41.4626 12.1481 41.3619C12.1954 41.3451 12.2428 41.3283 12.2916 41.311C12.342 41.2789 12.3924 41.2469 12.4443 41.2138C12.4529 41.1604 12.4615 41.1069 12.4703 41.0518C12.5333 40.7789 12.6785 40.593 12.847 40.3761C12.8772 40.3354 12.9074 40.2947 12.9385 40.2527C13.0166 40.1502 13.1003 40.0521 13.1848 39.9549C13.2337 39.9549 13.2826 39.9549 13.3329 39.9549C13.3596 39.892 13.3596 39.892 13.3867 39.8279C13.5006 39.6237 13.6383 39.4845 13.805 39.3208C13.8907 39.2359 13.8907 39.2359 13.978 39.1493C14.1273 39.0109 14.2783 38.8883 14.4437 38.77Z" fill="white"/>
<path d="M40.1404 43.0652C40.1893 43.0896 40.2382 43.114 40.2886 43.1392C40.2251 43.1965 40.1616 43.2538 40.0962 43.3128C39.2298 44.0425 39.2298 44.0425 38.6594 44.9906C38.5483 45.1248 38.5483 45.1248 38.4372 45.2127C38.3883 45.2127 38.3395 45.2127 38.2891 45.2127C38.3048 45.2559 38.3206 45.299 38.3368 45.3435C38.3632 45.509 38.3632 45.509 38.2946 45.6513C38.2607 45.6959 38.2268 45.7406 38.1919 45.7867C38.1419 45.8548 38.1419 45.8548 38.0909 45.9243C38.0424 45.9753 38.0424 45.9753 37.9929 46.0273C37.944 46.0273 37.8951 46.0273 37.8448 46.0273C37.8249 46.093 37.8051 46.1587 37.7846 46.2263C37.7028 46.4545 37.6057 46.6392 37.4745 46.8419C37.4501 46.793 37.4256 46.7442 37.4004 46.6938C37.4774 46.5072 37.5588 46.3316 37.6504 46.1523C37.6774 46.0991 37.7044 46.046 37.7323 45.9912C38.3305 44.8424 39.1514 43.8955 40.1404 43.0652Z" fill="white"/>
<path d="M97.31 59.6532C96.9161 59.9888 96.5058 59.96 96.008 59.9567C95.9176 59.9565 95.9176 59.9565 95.8253 59.9564C95.6337 59.956 95.442 59.955 95.2504 59.9541C95.1201 59.9537 94.9898 59.9534 94.8595 59.9531C94.5408 59.9523 94.2222 59.951 93.9036 59.9495C93.9036 59.9006 93.9036 59.8517 93.9036 59.8013C93.8058 59.7769 93.7081 59.7525 93.6073 59.7273C93.7786 59.7253 93.9498 59.7239 94.1211 59.7227C94.2165 59.7218 94.3118 59.7209 94.4101 59.7201C94.6441 59.7273 94.6441 59.7273 94.7181 59.8013C94.8596 59.7973 95.0009 59.7879 95.1419 59.7762C95.2292 59.7693 95.3165 59.7623 95.4065 59.7552C95.4985 59.7475 95.5906 59.7398 95.6855 59.7319C96.7803 59.642 96.7803 59.642 97.31 59.6532Z" fill="white"/>
<path d="M56.9507 59.357C57.2883 59.4209 57.6213 59.4839 57.9504 59.5838C58.5939 59.7562 59.2605 59.7369 59.9221 59.7319C60.007 59.7316 60.092 59.7313 60.1795 59.7309C60.3869 59.73 60.5942 59.7288 60.8015 59.7273C60.777 59.7762 60.7526 59.825 60.7274 59.8754C59.7447 60.1165 57.9746 60.1088 57.0988 59.5792C57.0499 59.5059 57.001 59.4326 56.9507 59.357Z" fill="white"/>
<path d="M95.4031 41.0565C95.5097 41.0572 95.6162 41.0579 95.7228 41.0585C95.9804 41.0601 96.2379 41.0626 96.4954 41.0657C96.4954 41.0902 96.4954 41.1146 96.4954 41.1398C96.4061 41.1408 96.4061 41.1408 96.315 41.1419C94.8676 41.1555 94.8676 41.1555 93.4361 41.348C93.3797 41.3594 93.3234 41.3707 93.2654 41.3824C92.9173 41.461 92.606 41.5842 92.2828 41.7344C92.0711 41.8316 91.8542 41.9111 91.6357 41.9914C91.3608 42.0949 91.1048 42.2002 90.8535 42.3524C90.7847 42.3921 90.716 42.4318 90.6452 42.4727C90.5963 42.4483 90.5474 42.4239 90.4971 42.3987C91.1939 41.9588 91.888 41.6221 92.677 41.3851C92.7264 41.3701 92.7759 41.3551 92.8268 41.3396C93.6833 41.0934 94.5182 41.0456 95.4031 41.0565Z" fill="white"/>
<path d="M75.6863 42.843C75.7596 42.8674 75.8329 42.8919 75.9085 42.9171C75.8707 43.2321 75.6908 43.3916 75.478 43.6159C75.4037 43.6951 75.3293 43.7743 75.255 43.8534C75.2163 43.8943 75.1776 43.9351 75.1377 43.9771C74.9454 44.1806 74.756 44.3867 74.5662 44.5925C74.5294 44.6324 74.4926 44.6722 74.4547 44.7132C74.1213 45.0742 73.7922 45.4388 73.4647 45.8052C73.2524 45.7627 73.1787 45.7414 73.0204 45.583C73.0876 45.5891 73.1548 45.5952 73.224 45.6015C73.4671 45.6045 73.4671 45.6045 73.6313 45.458C73.7677 45.2935 73.7677 45.2935 73.835 45.1017C73.9516 44.81 74.1301 44.6632 74.3996 44.5092C74.5944 44.3862 74.6388 44.3108 74.7236 44.1019C74.8827 43.8633 74.9996 43.7995 75.242 43.6576C75.4338 43.5 75.496 43.3838 75.5382 43.1392C75.6115 43.1392 75.6848 43.1392 75.7604 43.1392C75.7237 42.9926 75.7237 42.9926 75.6863 42.843Z" fill="white"/>
<path d="M43.9912 59.6532C45.3109 59.6532 46.6305 59.6532 47.9902 59.6532C47.7049 59.9385 47.2461 59.884 46.8605 59.8857C46.777 59.8855 46.777 59.8855 46.6919 59.8852C46.633 59.8853 46.5742 59.8854 46.5135 59.8855C46.3898 59.8855 46.2661 59.8854 46.1424 59.8851C45.9542 59.8847 45.7661 59.8851 45.5779 59.8855C45.4571 59.8855 45.3363 59.8854 45.2154 59.8852C45.1598 59.8854 45.1042 59.8855 45.0469 59.8857C44.7141 59.8842 44.3928 59.868 44.0653 59.8013C44.0409 59.7525 44.0164 59.7036 43.9912 59.6532Z" fill="white"/>
<path d="M46.0833 44.7592C46.1431 44.7589 46.203 44.7586 46.2646 44.7583C46.9566 44.7594 47.4909 44.8096 48.1059 45.1433C48.1861 45.1852 48.1861 45.1852 48.268 45.2279C48.398 45.296 48.5274 45.3653 48.6566 45.4349C48.6566 45.4838 48.6566 45.5326 48.6566 45.583C48.4444 45.5142 48.2337 45.4429 48.0249 45.3643C47.9569 45.3387 47.8889 45.3131 47.8189 45.2868C47.755 45.2624 47.6912 45.2379 47.6254 45.2127C46.9727 45.0004 46.3757 44.9718 45.6899 44.9813C45.5975 44.982 45.5051 44.9827 45.41 44.9833C45.1839 44.9851 44.9579 44.9875 44.7318 44.9906C45.1795 44.7597 45.5883 44.7568 46.0833 44.7592Z" fill="white"/>
<path d="M68.2809 59.6532C68.4645 59.6636 68.6481 59.6745 68.8317 59.6856C68.884 59.6886 68.9364 59.6915 68.9904 59.6945C69.3833 59.7189 69.3833 59.7189 69.4658 59.8013C69.5865 59.7973 69.7071 59.7879 69.8274 59.7762C69.9016 59.7693 69.9759 59.7623 70.0524 59.7552C70.1698 59.7437 70.1698 59.7437 70.2896 59.7319C71.2203 59.642 71.2203 59.642 71.6874 59.6532C71.6133 59.7597 71.6133 59.7597 71.4652 59.8754C70.425 60.0505 69.2899 60.0471 68.2809 59.7273C68.2809 59.7029 68.2809 59.6784 68.2809 59.6532Z" fill="white"/>
<path d="M64.7263 43.7317C64.7263 43.9538 64.7263 43.9538 64.615 44.0843C64.5647 44.1313 64.5143 44.1784 64.4625 44.2269C64.2576 44.4243 64.061 44.6227 63.8747 44.8378C63.812 44.9097 63.812 44.9097 63.748 44.9831C63.6517 45.0961 63.5575 45.2109 63.4645 45.3267C63.4135 45.3884 63.3626 45.45 63.3101 45.5136C63.264 45.571 63.218 45.6283 63.1706 45.6874C63.0231 45.8052 63.0231 45.8052 62.8377 45.7959C62.5784 45.705 62.3692 45.5776 62.1344 45.4349C62.3582 45.363 62.5051 45.3508 62.7269 45.4349C62.7513 45.4838 62.7757 45.5326 62.8009 45.583C62.8742 45.583 62.9476 45.583 63.0231 45.583C63.0491 45.5173 63.075 45.4517 63.1018 45.384C63.2376 45.1518 63.2919 45.0915 63.5044 44.9535C63.7671 44.7823 63.8571 44.6121 63.9858 44.3241C64.1822 44.095 64.391 43.954 64.6523 43.8057C64.6767 43.7813 64.7011 43.7568 64.7263 43.7317Z" fill="white"/>
<path d="M19.1832 36.1782C19.4398 36.3248 19.4398 36.3248 19.7016 36.4744C19.7016 36.5477 19.7016 36.621 19.7016 36.6965C19.598 36.7154 19.598 36.7154 19.4924 36.7347C18.9195 36.8436 18.3744 36.9753 17.8213 37.1652C17.6281 37.2149 17.6281 37.2149 17.4059 37.1409C17.4548 37.1409 17.5037 37.1409 17.554 37.1409C17.5784 37.0675 17.6029 36.9942 17.6281 36.9187C17.6781 36.9097 17.7281 36.9008 17.7796 36.8915C17.8787 36.8729 17.8787 36.8729 17.9798 36.8539C18.0778 36.8359 18.0778 36.8359 18.1777 36.8175C18.3687 36.7788 18.3687 36.7788 18.5271 36.6867C18.6648 36.6225 18.6648 36.6225 18.887 36.6965C18.887 36.6477 18.887 36.5988 18.887 36.5484C19.1069 36.5851 19.1069 36.5851 19.3313 36.6225C19.3313 36.5247 19.3313 36.427 19.3313 36.3263C19.2824 36.3263 19.2336 36.3263 19.1832 36.3263C19.1832 36.2774 19.1832 36.2285 19.1832 36.1782Z" fill="white"/>
<path d="M52.5074 57.3576C52.2712 57.9299 51.5814 58.4355 51.0264 58.6905C50.953 58.6905 50.8797 58.6905 50.8042 58.6905C50.9083 58.4367 51.0156 58.3321 51.2485 58.1907C51.5898 57.9749 51.8967 57.7303 52.2063 57.4715C52.3593 57.3576 52.3593 57.3576 52.5074 57.3576Z" fill="white"/>
<path d="M14.9621 33.8825C15.3101 33.9998 15.6548 34.1245 15.9989 34.2528C15.8357 34.351 15.7393 34.4039 15.5467 34.3881C15.4704 34.3669 15.4704 34.3669 15.3926 34.3453C15.3411 34.332 15.2897 34.3186 15.2366 34.3048C15.1102 34.2528 15.1102 34.2528 15.0362 34.1047C14.6207 34.1047 14.2053 34.1047 13.7773 34.1047C14.2653 33.7143 14.388 33.7196 14.9621 33.8825Z" fill="white"/>
<path d="M54.7291 44.5463C54.8091 44.7949 54.7975 44.9866 54.7617 45.244C54.7515 45.3199 54.7412 45.3958 54.7306 45.4739C54.7138 45.5921 54.7138 45.5921 54.6967 45.7126C54.6857 45.7925 54.6748 45.8724 54.6635 45.9547C54.6365 46.1518 54.609 46.3488 54.5809 46.5457C54.5076 46.5457 54.4343 46.5457 54.3588 46.5457C54.2944 46.429 54.2314 46.3116 54.169 46.1939C54.1338 46.1287 54.0986 46.0634 54.0623 45.9961C53.9826 45.7898 53.9837 45.7111 54.0626 45.509C54.1603 45.68 54.2581 45.8511 54.3588 46.0273C54.3793 45.9328 54.3998 45.8383 54.421 45.7409C54.4481 45.6173 54.4752 45.4937 54.5023 45.3701C54.5158 45.3078 54.5293 45.2454 54.5432 45.1812C54.5563 45.1215 54.5695 45.0619 54.583 45.0004C54.595 44.9453 54.607 44.8903 54.6194 44.8335C54.655 44.6944 54.655 44.6944 54.7291 44.5463Z" fill="white"/>
<path d="M7.70485 40.5473C7.72928 40.5473 7.75372 40.5473 7.7789 40.5473C7.7789 40.7184 7.7789 40.8895 7.7789 41.0657C7.70559 41.0902 7.63227 41.1146 7.55674 41.1398C7.54528 41.2681 7.54528 41.2681 7.5336 41.399C7.49244 41.7311 7.38896 42.0173 7.26052 42.3246C7.21699 42.4346 7.21699 42.4346 7.17258 42.5468C7.15273 42.5957 7.13287 42.6445 7.11242 42.6949C7.06354 42.6949 7.01466 42.6949 6.96431 42.6949C6.93987 42.7682 6.91543 42.8415 6.89025 42.9171C6.93238 42.4471 7.08377 42.0444 7.25589 41.6072C7.28258 41.5379 7.30926 41.4685 7.33675 41.3971C7.44907 41.1073 7.56202 40.8237 7.70485 40.5473Z" fill="white"/>
<path d="M68.0588 41.51C68.1076 41.5345 68.1565 41.5589 68.2069 41.5841C68.1091 41.6085 68.0114 41.633 67.9106 41.6581C67.9106 41.707 67.9106 41.7559 67.9106 41.8063C67.8282 41.8368 67.7457 41.8674 67.6607 41.8988C67.4171 42.0018 67.3474 42.0784 67.2442 42.3246C67.1999 42.346 67.1556 42.3674 67.1099 42.3894C66.9148 42.4898 66.8135 42.6285 66.6792 42.7988C66.5171 42.9876 66.3283 43.1332 66.1334 43.2873C66.1334 43.0652 66.1334 43.0652 66.2823 42.8945C66.3477 42.8317 66.4131 42.7689 66.4805 42.7042C66.5449 42.6417 66.6094 42.5793 66.6757 42.515C66.7738 42.4208 66.7738 42.4208 66.8739 42.3246C66.9344 42.2609 66.9949 42.1971 67.0573 42.1314C67.2498 41.9491 67.4324 41.8297 67.6653 41.7044C67.7359 41.6657 67.8064 41.6269 67.8791 41.587C67.968 41.5489 67.968 41.5489 68.0588 41.51Z" fill="white"/>
<path d="M75.9825 55.7284C76.0558 55.7284 76.1291 55.7284 76.2047 55.7284C76.2047 57.048 76.2047 58.3677 76.2047 59.7273C76.1802 59.7273 76.1558 59.7273 76.1306 59.7273C76.1062 58.5787 76.0817 57.4301 76.0566 56.2468C76.0321 56.2468 76.0077 56.2468 75.9825 56.2468C75.9825 56.0757 75.9825 55.9046 75.9825 55.7284Z" fill="white"/>
<path d="M69.9842 44.8425C69.8833 44.902 69.8833 44.902 69.7805 44.9628C69.4646 45.1727 69.289 45.4469 69.1696 45.8052C69.1626 45.9377 69.1599 46.0705 69.1603 46.2032C69.1601 46.2725 69.1599 46.3418 69.1597 46.4132C69.1692 46.6129 69.199 46.7955 69.2436 46.99C69.1947 46.99 69.1459 46.99 69.0955 46.99C68.9584 46.6991 68.9311 46.4726 68.9381 46.1523C68.9395 46.0732 68.9408 45.994 68.9422 45.9125C68.9448 45.8227 68.9448 45.8227 68.9474 45.7311C68.9963 45.7311 69.0452 45.7311 69.0955 45.7311C69.1199 45.5845 69.1444 45.4379 69.1696 45.2868C69.2184 45.2868 69.2673 45.2868 69.3177 45.2868C69.3223 45.2287 69.3268 45.1707 69.3316 45.1109C69.3917 44.9165 69.3917 44.9165 69.5676 44.8147C69.762 44.7684 69.762 44.7684 69.9842 44.8425Z" fill="white"/>
<path d="M66.7998 42.2506C66.8487 42.275 66.8976 42.2995 66.9479 42.3246C66.8934 42.3757 66.8389 42.4268 66.7828 42.4794C66.3578 42.8858 66.0067 43.2605 65.7631 43.8057C65.7142 43.8057 65.6653 43.8057 65.615 43.8057C65.6089 43.8531 65.6028 43.9004 65.5965 43.9492C65.5191 44.2652 65.3824 44.5486 65.2447 44.8425C65.1408 44.6161 65.1772 44.5283 65.2644 44.2894C65.312 44.1892 65.361 44.0897 65.4113 43.9908C65.4376 43.9387 65.4638 43.8865 65.4908 43.8327C65.7733 43.2988 66.1466 42.8926 66.5777 42.4727C66.6223 42.4282 66.6668 42.3836 66.7128 42.3377C66.7415 42.3089 66.7702 42.2802 66.7998 42.2506Z" fill="white"/>
<path d="M76.2047 48.6192C76.2291 48.6192 76.2536 48.6192 76.2787 48.6192C76.2787 49.9877 76.2787 51.3562 76.2787 52.7662C76.2054 52.7418 76.1321 52.7174 76.0566 52.6922C76.0566 52.6189 76.0566 52.5456 76.0566 52.47C76.1054 52.47 76.1543 52.47 76.2047 52.47C76.2047 51.1993 76.2047 49.9285 76.2047 48.6192Z" fill="white"/>
<path d="M3.18756 48.2489C3.26087 48.2734 3.33419 48.2978 3.40972 48.323C3.48262 48.5466 3.48262 48.5466 3.53932 48.8275C3.55879 48.9196 3.57826 49.0117 3.59833 49.1066C3.62765 49.3279 3.63428 49.4509 3.55783 49.656C3.5227 49.572 3.48757 49.488 3.45138 49.4014C3.36261 49.1556 3.36261 49.1556 3.26161 49.0635C3.2586 48.9402 3.25845 48.8167 3.26161 48.6933C3.21274 48.6933 3.16386 48.6933 3.11351 48.6933C3.08907 48.7666 3.06463 48.8399 3.03945 48.9154C2.88672 48.9663 2.88672 48.9663 2.74324 48.9895C2.86555 48.7245 3.02337 48.4898 3.18756 48.2489Z" fill="white"/>
<path d="M31.4761 44.0279C31.996 44.4322 32.3935 44.9283 32.8091 45.4349C32.7847 45.4838 32.7602 45.5326 32.7351 45.583C32.3879 45.3154 32.3879 45.3154 32.2907 45.2127C32.2907 45.1394 32.2907 45.0661 32.2907 44.9906C32.2464 44.9707 32.2021 44.9509 32.1565 44.9304C31.9946 44.8425 31.8899 44.7613 31.7724 44.6203C31.7724 44.5714 31.7724 44.5226 31.7724 44.4722C31.699 44.4478 31.6257 44.4233 31.5502 44.3981C31.5258 44.276 31.5013 44.1538 31.4761 44.0279Z" fill="white"/>
<path d="M47.2496 41.2138C48.3286 41.2345 49.3261 41.5413 50.2858 42.0284C50.0422 42.1096 50.0061 42.1014 49.7767 42.0192C49.7174 41.9984 49.6581 41.9775 49.5971 41.9561C49.4575 41.9032 49.3189 41.8478 49.1811 41.7906C48.5448 41.5298 47.9252 41.3946 47.2496 41.2879C47.2496 41.2634 47.2496 41.239 47.2496 41.2138Z" fill="white"/>
<path d="M33.1794 50.1003C33.2038 50.1492 33.2283 50.198 33.2534 50.2484C33.2042 50.3705 33.2042 50.3705 33.1227 50.5142C33.0934 50.5662 33.0641 50.6182 33.0339 50.6718C33.0025 50.726 32.9711 50.7803 32.9387 50.8362C32.9084 50.8902 32.8782 50.9442 32.847 50.9998C32.7049 51.2491 32.5759 51.4582 32.3648 51.6554C32.3139 51.5258 32.3139 51.5258 32.2907 51.3592C32.3879 51.1926 32.3879 51.1926 32.5129 51.063C32.5618 51.063 32.6106 51.063 32.661 51.063C32.6366 50.9897 32.6121 50.9164 32.5869 50.8408C32.6529 50.6947 32.6529 50.6947 32.7536 50.54C32.8023 50.4631 32.8023 50.4631 32.8519 50.3846C32.9572 50.2484 32.9572 50.2484 33.1794 50.1003Z" fill="white"/>
<path d="M37.3264 46.8419C37.4448 47.1395 37.3519 47.3985 37.2709 47.6935C37.2431 47.7992 37.2153 47.9049 37.1875 48.0106C37.1735 48.063 37.1595 48.1154 37.145 48.1694C37.0857 48.3928 37.0302 48.617 36.9746 48.8414C36.9438 48.9648 36.9129 49.0882 36.8821 49.2116C36.8576 49.2116 36.8332 49.2116 36.808 49.2116C36.7875 48.7429 36.8574 48.3521 36.9839 47.9018C37.0003 47.8405 37.0167 47.7792 37.0337 47.716C37.1152 47.4166 37.2021 47.127 37.3264 46.8419Z" fill="white"/>
<path d="M56.6545 42.0284C56.7033 42.0529 56.7522 42.0773 56.8026 42.1025C56.642 42.3434 56.5282 42.4017 56.2842 42.5468C56.165 42.651 56.0493 42.7591 55.9371 42.8708C55.8803 42.9263 55.8235 42.9819 55.7649 43.0391C55.6083 43.2056 55.6083 43.2056 55.5376 43.4152C55.5151 43.4708 55.4927 43.5263 55.4696 43.5836C55.3963 43.608 55.323 43.6324 55.2474 43.6576C55.2474 43.7309 55.2474 43.8042 55.2474 43.8798C55.1986 43.8798 55.1497 43.8798 55.0993 43.8798C55.3297 43.1427 56.0283 42.4459 56.6545 42.0284Z" fill="white"/>
<path d="M99.3835 54.9138C99.4324 54.9382 99.4813 54.9627 99.5317 54.9878C99.4269 55.059 99.3219 55.1299 99.2169 55.2008C99.1585 55.2403 99.1001 55.2798 99.0399 55.3205C98.7624 55.4978 98.5223 55.6026 98.1987 55.6682C98.1048 55.6881 98.1048 55.6881 98.0089 55.7084C97.8262 55.7286 97.7056 55.7109 97.5322 55.6543C97.61 55.6257 97.6878 55.5971 97.768 55.5675C97.873 55.5286 97.978 55.4897 98.083 55.4507C98.137 55.4306 98.1911 55.4106 98.2467 55.3899C98.5415 55.2795 98.8298 55.163 99.1151 55.0295C99.2037 54.9913 99.2923 54.9531 99.3835 54.9138Z" fill="white"/>
<path d="M12.5183 48.2489C12.5672 48.3223 12.6161 48.3956 12.6665 48.4711C12.5603 48.6395 12.4538 48.8076 12.3471 48.9756C12.3172 49.0232 12.2872 49.0708 12.2564 49.1198C12.2271 49.1659 12.1977 49.2119 12.1675 49.2594C12.1407 49.3016 12.1139 49.3439 12.0864 49.3875C11.9943 49.5158 11.8922 49.6214 11.7778 49.73C11.7778 49.6078 11.7778 49.4856 11.7778 49.3598C11.8267 49.3598 11.8756 49.3598 11.9259 49.3598C11.9336 49.3063 11.9412 49.2528 11.9491 49.1978C12.0419 48.8178 12.2722 48.546 12.5183 48.2489Z" fill="white"/>
<path d="M9.48214 37.7333C9.48214 38.116 9.24921 38.4576 9.03782 38.77C8.98894 38.77 8.94007 38.77 8.88971 38.77C8.84083 38.9167 8.79196 39.0633 8.7416 39.2144C8.66829 39.2144 8.59497 39.2144 8.51944 39.2144C8.63566 38.8664 8.82789 38.5998 9.04244 38.3072C9.07648 38.2601 9.11051 38.2129 9.14557 38.1643C9.39391 37.8215 9.39391 37.8215 9.48214 37.7333Z" fill="white"/>
<path d="M13.9254 46.8419C13.8055 47.1294 13.6174 47.3278 13.407 47.5547C13.3413 47.6259 13.2756 47.6971 13.208 47.7705C13.1031 47.8821 12.9969 47.9925 12.8886 48.1008C12.8655 47.9388 12.8655 47.9388 12.8886 47.7306C13.0645 47.5223 13.0645 47.5223 13.2589 47.3603C13.3078 47.3603 13.3566 47.3603 13.407 47.3603C13.4314 47.2625 13.4559 47.1648 13.481 47.0641C13.5299 47.0641 13.5788 47.0641 13.6292 47.0641C13.6292 47.0152 13.6292 46.9663 13.6292 46.916C13.7773 46.8419 13.7773 46.8419 13.9254 46.8419Z" fill="white"/>
<path d="M44.7318 45.0646C44.6497 45.0877 44.6497 45.0877 44.566 45.1112C43.8581 45.3262 43.2458 45.6335 42.7323 46.1754C42.6835 46.151 42.6346 46.1266 42.5842 46.1014C42.7394 45.7133 43.0086 45.61 43.3673 45.4444C43.5545 45.3619 43.5545 45.3619 43.7459 45.2359C44.0746 45.0493 44.3672 44.9529 44.7318 45.0646Z" fill="white"/>
<path d="M11.3335 35.7338C11.3824 35.7583 11.4312 35.7827 11.4816 35.8079C11.2649 36.1633 11.0142 36.5323 10.667 36.7706C10.5693 36.7462 10.4715 36.7217 10.3708 36.6965C10.6885 36.3788 11.0062 36.0612 11.3335 35.7338Z" fill="white"/>
<path d="M51.3966 42.769C51.7953 42.8805 52.0419 43.151 52.3316 43.4308C52.381 43.4777 52.4305 43.5247 52.4814 43.573C52.6901 43.7715 52.8967 43.9717 53.0999 44.176C53.0754 44.2249 53.051 44.2737 53.0258 44.3241C52.9705 44.267 52.9151 44.2099 52.858 44.1511C52.7844 44.0761 52.7107 44.001 52.637 43.926C52.6007 43.8884 52.5643 43.8508 52.5268 43.8121C52.3342 43.6169 52.1648 43.4733 51.915 43.3614C51.7901 43.2395 51.6665 43.1161 51.5447 42.9911C51.4959 42.9667 51.447 42.9422 51.3966 42.9171C51.3966 42.8682 51.3966 42.8193 51.3966 42.769Z" fill="white"/>
<path d="M65.1707 48.2489C65.3651 48.3226 65.4496 48.3599 65.5392 48.5521C65.555 48.6109 65.5709 48.6697 65.5872 48.7303C65.6598 48.9991 65.6598 48.9991 65.8371 49.2116C65.8904 49.3833 65.9401 49.5561 65.9852 49.73C65.6936 49.4652 65.5284 49.2242 65.3697 48.8645C65.3318 48.7802 65.2939 48.6959 65.2548 48.6091C65.1707 48.3971 65.1707 48.3971 65.1707 48.2489Z" fill="white"/>
<path d="M56.9507 59.357C57.377 59.4377 57.7943 59.5269 58.2096 59.6532C58.2096 59.7021 58.2096 59.751 58.2096 59.8013C57.7819 59.827 57.4696 59.8234 57.0988 59.5792C57.0499 59.5059 57.001 59.4326 56.9507 59.357Z" fill="white"/>
<path d="M6.8162 42.9171C6.84064 42.9171 6.86508 42.9171 6.89025 42.9171C6.89424 43.0868 6.89712 43.2565 6.89951 43.4262C6.90123 43.5207 6.90295 43.6152 6.90472 43.7126C6.89025 43.9538 6.89025 43.9538 6.74215 44.1019C6.68927 44.2488 6.63949 44.3969 6.59404 44.5463C6.52097 44.3159 6.52233 44.1638 6.57755 43.9295C6.59115 43.8703 6.60476 43.8112 6.61877 43.7502C6.63352 43.6891 6.64827 43.628 6.66346 43.565C6.67793 43.5028 6.69239 43.4406 6.70729 43.3764C6.74299 43.2232 6.77952 43.0701 6.8162 42.9171Z" fill="white"/>
<path d="M41.4734 42.2506C41.4734 42.2995 41.4734 42.3483 41.4734 42.3987C41.3864 42.4056 41.3864 42.4056 41.2975 42.4126C41.2334 42.4324 41.1692 42.4523 41.1031 42.4727C41.0818 42.5293 41.0604 42.5858 41.0383 42.644C40.9141 42.9409 40.7201 42.9975 40.4367 43.1392C40.3878 43.0904 40.3389 43.0415 40.2886 42.9911C40.4055 42.8951 40.5228 42.7996 40.6403 42.7042C40.7056 42.6509 40.7709 42.5976 40.8382 42.5427C41.2254 42.2506 41.2254 42.2506 41.4734 42.2506Z" fill="white"/>
<path d="M13.2589 41.9544C13.2589 42.0032 13.2589 42.0521 13.2589 42.1025C13.1856 42.1025 13.1123 42.1025 13.0367 42.1025C13.0328 42.1463 13.0289 42.1901 13.0249 42.2352C12.9333 42.476 12.7843 42.5265 12.56 42.644C12.4868 42.6834 12.4136 42.7228 12.3381 42.7635C12.2754 42.7897 12.2127 42.816 12.1481 42.843C12.0992 42.8186 12.0503 42.7941 12 42.769C13.0297 41.9544 13.0297 41.9544 13.2589 41.9544Z" fill="white"/>
<path d="M23.4783 39.8809C24.1215 39.9111 24.7145 40.0748 25.3297 40.2511C25.3297 40.2756 25.3297 40.3 25.3297 40.3252C25.0853 40.3252 24.8409 40.3252 24.5891 40.3252C24.5891 40.2763 24.5891 40.2274 24.5891 40.1771C24.5021 40.1679 24.415 40.1587 24.3253 40.1493C24.0307 40.1131 23.7614 40.0434 23.4783 39.9549C23.4783 39.9305 23.4783 39.906 23.4783 39.8809Z" fill="white"/>
<path d="M55.1734 49.1376C55.2223 49.162 55.2711 49.1865 55.3215 49.2116C55.2971 50.0914 55.2726 50.9712 55.2474 51.8776C55.223 51.8776 55.1986 51.8776 55.1734 51.8776C55.161 51.4993 55.1491 51.121 55.1377 50.7426C55.1337 50.6138 55.1296 50.485 55.1254 50.3562C55.1193 50.1715 55.1138 49.9868 55.1083 49.8021C55.1063 49.7441 55.1043 49.6862 55.1022 49.6265C55.0984 49.4883 55.0984 49.3499 55.0993 49.2116C55.1238 49.1872 55.1482 49.1628 55.1734 49.1376Z" fill="white"/>
<path d="M60.2831 48.2489C60.6659 48.2981 60.9957 48.4651 61.343 48.6238C61.4359 48.6657 61.4359 48.6657 61.5306 48.7085C61.6827 48.7771 61.8346 48.8461 61.9863 48.9154C61.7642 48.9895 61.7642 48.9895 61.6227 48.9397C61.5701 48.9134 61.5175 48.887 61.4633 48.8599C61.1498 48.7101 60.8397 48.6147 60.5029 48.531C60.4548 48.5112 60.4067 48.4915 60.3572 48.4711C60.3327 48.3978 60.3083 48.3245 60.2831 48.2489Z" fill="white"/>
<path d="M26.8848 45.9533C27.0422 45.9209 27.0422 45.9209 27.2551 45.9533C27.3799 46.0778 27.4825 46.2087 27.5863 46.351C27.7185 46.4921 27.8073 46.517 27.9956 46.5457C28.02 46.6679 28.0445 46.7901 28.0697 46.916C27.9292 46.8106 27.7888 46.7053 27.6485 46.5998C27.5347 46.5146 27.4205 46.43 27.306 46.3458C27.2525 46.3064 27.1991 46.267 27.144 46.2263C27.0943 46.19 27.0447 46.1536 26.9936 46.1161C26.9577 46.0868 26.9218 46.0575 26.8848 46.0273C26.8848 46.0029 26.8848 45.9785 26.8848 45.9533Z" fill="white"/>
<path d="M40.2886 43.0652C40.3374 43.0896 40.3863 43.114 40.4367 43.1392C40.3412 43.2411 40.2421 43.3397 40.1404 43.4354C40.0916 43.4354 40.0427 43.4354 39.9923 43.4354C39.9679 43.5088 39.9435 43.5821 39.9183 43.6576C39.7893 43.7823 39.7893 43.7823 39.6313 43.9122C39.4661 44.0484 39.3321 44.1675 39.2049 44.3406C39.1715 44.384 39.1381 44.4274 39.1037 44.4722C39.0548 44.4722 39.0059 44.4722 38.9556 44.4722C39.0734 44.1802 39.2757 43.9845 39.4971 43.7687C39.5322 43.7337 39.5673 43.6986 39.6034 43.6625C39.8208 43.4478 40.0468 43.2519 40.2886 43.0652Z" fill="white"/>
<path d="M91.1636 59.1349C91.5986 59.1997 91.5986 59.1997 91.6819 59.283C91.7941 59.3001 91.9069 59.3135 92.0198 59.3246C92.081 59.3308 92.1422 59.337 92.2052 59.3434C92.2525 59.3479 92.2997 59.3524 92.3484 59.357C92.3484 59.4059 92.3484 59.4548 92.3484 59.5051C92.3973 59.5051 92.4462 59.5051 92.4965 59.5051C92.4965 59.554 92.4965 59.6029 92.4965 59.6532C92.5698 59.6777 92.6432 59.7021 92.7187 59.7273C92.324 59.6872 92.0093 59.5905 91.6495 59.4265C91.6024 59.4056 91.5553 59.3847 91.5068 59.3632C91.3921 59.3124 91.2778 59.2607 91.1636 59.2089C91.1636 59.1845 91.1636 59.16 91.1636 59.1349Z" fill="white"/>
<path d="M75.9085 56.2468C75.9329 56.2956 75.9573 56.3445 75.9825 56.3949C75.8452 56.769 75.6174 57.1069 75.3901 57.4316C75.3412 57.4072 75.2923 57.3827 75.242 57.3576C75.2713 57.2476 75.3025 57.1382 75.3345 57.029C75.3603 56.9375 75.3603 56.9375 75.3866 56.8441C75.4122 56.7936 75.4378 56.7431 75.4641 56.6911C75.6146 56.6448 75.6146 56.6448 75.7604 56.617C75.8564 56.4326 75.8564 56.4326 75.9085 56.2468Z" fill="white"/>
<path d="M71.2431 48.4711C71.6595 48.6003 72.0631 48.7509 72.465 48.9201C72.599 48.9763 72.599 48.9763 72.7357 49.0337C72.9463 49.1376 72.9463 49.1376 73.0204 49.2857C72.6804 49.2385 72.395 49.1018 72.0901 48.9525C71.6809 48.7466 71.6809 48.7466 71.2431 48.6192C71.2431 48.5703 71.2431 48.5215 71.2431 48.4711Z" fill="white"/>
<path d="M58.8761 45.2868C58.852 45.3499 58.852 45.3499 58.8275 45.4144C58.6375 45.9412 58.6201 46.3633 58.728 46.916C58.618 46.8344 58.618 46.8344 58.5058 46.6938C58.4815 46.4745 58.4815 46.4745 58.4873 46.2217C58.4884 46.1387 58.4896 46.0556 58.4908 45.9701C58.5041 45.7578 58.5219 45.5653 58.5799 45.3608C58.728 45.2868 58.728 45.2868 58.8761 45.2868Z" fill="white"/>
<path d="M56.4323 42.3246C56.5056 42.3491 56.5789 42.3735 56.6545 42.3987C56.3089 42.7443 55.9633 43.0899 55.6177 43.4354C55.5933 43.3621 55.5688 43.2888 55.5436 43.2133C55.8369 42.92 56.1302 42.6268 56.4323 42.3246Z" fill="white"/>
<path d="M71.6874 59.6532C71.6119 59.7611 71.6119 59.7611 71.4652 59.8754C71.2705 59.9033 71.0912 59.9199 70.8959 59.9263C70.844 59.9288 70.792 59.9314 70.7384 59.934C70.6105 59.9401 70.4825 59.9449 70.3544 59.9495C70.7582 59.6213 71.1815 59.6429 71.6874 59.6532Z" fill="white"/>
<path d="M62.949 58.8386C62.9735 58.8875 62.9979 58.9364 63.0231 58.9868C62.8399 59.1831 62.6842 59.336 62.4307 59.4311C62.3329 59.4311 62.2352 59.4311 62.1344 59.4311C62.2085 59.2089 62.2085 59.2089 62.3777 59.1062C62.4456 59.0744 62.5135 59.0426 62.5834 59.0099C62.6515 58.9775 62.7195 58.9452 62.7896 58.9118C62.8685 58.8756 62.8685 58.8756 62.949 58.8386Z" fill="white"/>
<path d="M55.5436 55.21C55.5925 55.21 55.6414 55.21 55.6918 55.21C55.6918 55.3581 55.6918 55.3581 55.5344 55.5201C55.4844 55.5679 55.4844 55.5679 55.4334 55.6167C55.2348 55.8149 55.0574 56.0319 54.8772 56.2468C54.8527 56.1734 54.8283 56.1001 54.8031 56.0246C54.923 55.8884 55.0434 55.7527 55.1641 55.6173C55.1982 55.5785 55.2323 55.5396 55.2674 55.4996C55.3564 55.4002 55.4498 55.3048 55.5436 55.21ZM54.655 56.2468C54.7039 56.2712 54.7528 56.2956 54.8031 56.3208C54.7054 56.4186 54.6076 56.5163 54.5069 56.617C54.5069 56.3949 54.5069 56.3949 54.655 56.2468Z" fill="white"/>
<path d="M27.9216 51.2111C27.946 51.2111 27.9704 51.2111 27.9956 51.2111C28.0982 51.615 28.1615 51.9788 28.1437 52.396C28.0948 52.396 28.046 52.396 27.9956 52.396C28.02 52.4693 28.0445 52.5426 28.0697 52.6181C28.0208 52.6426 27.9719 52.667 27.9216 52.6922C27.9216 52.2034 27.9216 51.7147 27.9216 51.2111Z" fill="white"/>
<path d="M76.1306 50.9889C76.1551 50.9889 76.1795 50.9889 76.2047 50.9889C76.2047 51.4777 76.2047 51.9664 76.2047 52.47C75.9825 52.396 75.9825 52.396 75.8529 52.1877C75.7614 51.9543 75.7395 51.8799 75.8344 51.6554C75.9077 51.802 75.981 51.9487 76.0566 52.0997C76.081 51.7332 76.1054 51.3666 76.1306 50.9889Z" fill="white"/>
<path d="M6.66809 44.1019C6.69253 44.1019 6.71697 44.1019 6.74215 44.1019C6.73573 44.3211 6.72781 44.5401 6.719 44.7592C6.71733 44.8215 6.71566 44.8838 6.71394 44.9481C6.71 45.0375 6.71 45.0375 6.70599 45.1288C6.70405 45.1839 6.70211 45.239 6.70011 45.2957C6.66809 45.4349 6.66809 45.4349 6.44593 45.583C6.45445 45.4194 6.46388 45.2559 6.4737 45.0924C6.47886 45.0013 6.48401 44.9103 6.48932 44.8164C6.51861 44.5584 6.57646 44.344 6.66809 44.1019Z" fill="white"/>
<path d="M17.9983 35.3636C18.4364 35.567 18.8059 35.8031 19.1832 36.1041C19.0351 36.1782 19.0351 36.1782 18.8453 36.1226C18.6648 36.0301 18.6648 36.0301 18.5908 35.8079C18.493 35.8079 18.3953 35.8079 18.2945 35.8079C18.2701 35.759 18.2457 35.7101 18.2205 35.6598C18.1716 35.6598 18.1227 35.6598 18.0724 35.6598C18.048 35.562 18.0235 35.4643 17.9983 35.3636Z" fill="white"/>
<path d="M66.0593 58.6165C66.34 58.7238 66.6064 58.8499 66.8739 58.9868C66.8739 59.0601 66.8739 59.1334 66.8739 59.2089C66.5401 59.1696 66.3219 59.0463 66.0593 58.8386C66.0593 58.7653 66.0593 58.692 66.0593 58.6165Z" fill="white"/>
<path d="M47.1756 44.9906C47.7605 44.9231 48.1535 45.1531 48.6566 45.4349C48.6566 45.4838 48.6566 45.5326 48.6566 45.583C48.3665 45.4889 48.0785 45.3889 47.7911 45.2868C47.6876 45.2501 47.6876 45.2501 47.582 45.2127C47.3977 45.1387 47.3977 45.1387 47.1756 44.9906Z" fill="white"/>
<path d="M10.2967 36.7706C10.3442 36.9071 10.3442 36.9071 10.3708 37.0668C10.2042 37.2519 10.2042 37.2519 10.0005 37.4371C9.9608 37.4936 9.92109 37.5501 9.88018 37.6083C9.84658 37.6496 9.81297 37.6908 9.77835 37.7333C9.70504 37.7333 9.63173 37.7333 9.55619 37.7333C9.66842 37.4758 9.82111 37.2922 10.0098 37.0853C10.0634 37.0261 10.1171 36.967 10.1723 36.906C10.2339 36.839 10.2339 36.839 10.2967 36.7706Z" fill="white"/>
<path d="M18.5167 52.47C18.5411 52.5433 18.5656 52.6166 18.5908 52.6922C17.8939 53.0323 17.8939 53.0322 17.554 52.9884C17.554 52.9151 17.554 52.8418 17.554 52.7662C17.6049 52.7573 17.6558 52.7483 17.7082 52.739C17.8083 52.7204 17.8083 52.7204 17.9104 52.7014C17.9765 52.6894 18.0427 52.6774 18.1109 52.665C18.3114 52.6246 18.3114 52.6246 18.5167 52.47Z" fill="white"/>
<path d="M25.9221 45.3608C26.3215 45.3928 26.5741 45.4735 26.8848 45.7311C26.8848 45.8044 26.8848 45.8777 26.8848 45.9533C26.535 45.833 26.2226 45.6489 25.9221 45.4349C25.9221 45.4105 25.9221 45.386 25.9221 45.3608Z" fill="white"/>
<path d="M32.0686 51.8035C32.093 51.8524 32.1174 51.9013 32.1426 51.9516C32.0637 52.0759 31.9831 52.1991 31.9019 52.3219C31.8349 52.425 31.8349 52.425 31.7666 52.5302C31.7196 52.5836 31.6726 52.6371 31.6242 52.6922C31.5265 52.6922 31.4287 52.6922 31.328 52.6922C31.328 52.57 31.328 52.4478 31.328 52.3219C31.4258 52.3219 31.5235 52.3219 31.6242 52.3219C31.7559 52.2101 31.7559 52.2101 31.8649 52.0627C31.9035 52.0146 31.9421 51.9665 31.9818 51.9169C32.0104 51.8795 32.0391 51.8421 32.0686 51.8035Z" fill="white"/>
<path d="M98.643 59.357C98.643 59.4059 98.643 59.4548 98.643 59.5051C98.2147 59.6541 97.8357 59.6696 97.3841 59.6532C97.4085 59.6044 97.433 59.5555 97.4581 59.5051C97.6494 59.4583 97.6494 59.4583 97.8886 59.4218C98.0061 59.4032 98.0061 59.4032 98.1261 59.3842C98.3468 59.357 98.3468 59.357 98.643 59.357Z" fill="white"/>
<path d="M62.1344 45.3608C62.59 45.4042 62.59 45.4042 62.7269 45.4349C62.7513 45.4838 62.7757 45.5326 62.8009 45.583C62.8742 45.583 62.9476 45.583 63.0231 45.583C63.072 45.5097 63.1208 45.4364 63.1712 45.3608C63.2201 45.3853 63.269 45.4097 63.3193 45.4349C63.2216 45.5571 63.1238 45.6793 63.0231 45.8052C62.671 45.7625 62.4328 45.6163 62.1344 45.4349C62.1344 45.4105 62.1344 45.386 62.1344 45.3608Z" fill="white"/>
<path d="M53.248 56.3949C53.2724 56.4682 53.2969 56.5415 53.322 56.617C53.2762 56.6598 53.2304 56.7026 53.1832 56.7466C53.0207 56.8995 53.0207 56.8995 52.9564 57.0752C52.8777 57.2095 52.8777 57.2095 52.6833 57.265C52.6253 57.2711 52.5672 57.2772 52.5074 57.2835C52.9629 56.658 52.9629 56.658 53.248 56.3949Z" fill="white"/>
<path d="M31.1799 51.6554C31.3883 51.8638 31.3776 52.0328 31.4021 52.3219C31.3697 52.5394 31.3697 52.5394 31.328 52.6922C31.2792 52.6677 31.2303 52.6433 31.1799 52.6181C31.0933 52.3235 31.0941 52.0347 31.1059 51.7295C31.1303 51.705 31.1547 51.6806 31.1799 51.6554Z" fill="white"/>
<path d="M17.8502 44.6944C17.8747 44.7921 17.8991 44.8899 17.9243 44.9906C17.8796 44.9835 17.8349 44.9764 17.7889 44.9692C17.7297 44.961 17.6705 44.9527 17.6096 44.9443C17.5511 44.9357 17.4927 44.9271 17.4325 44.9183C17.2323 44.9163 17.137 44.9754 16.9616 45.0646C16.8883 45.0402 16.815 45.0158 16.7394 44.9906C16.8372 44.9661 16.9349 44.9417 17.0356 44.9165C17.0356 44.8676 17.0356 44.8188 17.0356 44.7684C17.3077 44.6813 17.5665 44.6889 17.8502 44.6944Z" fill="white"/>
<path d="M25.4037 40.3252C25.8654 40.4429 26.3044 40.5678 26.7367 40.7695C26.7367 40.7939 26.7367 40.8184 26.7367 40.8436C26.2776 40.881 26.0768 40.782 25.6999 40.5473C25.5318 40.491 25.5318 40.491 25.4037 40.4733C25.4037 40.4244 25.4037 40.3755 25.4037 40.3252Z" fill="white"/>
<path d="M15.3324 38.1036C15.4057 38.128 15.479 38.1524 15.5546 38.1776C15.2976 38.4667 14.9953 38.649 14.6659 38.8441C14.6659 38.7708 14.6659 38.6975 14.6659 38.6219C14.7148 38.6219 14.7637 38.6219 14.814 38.6219C14.8385 38.5486 14.8629 38.4753 14.8881 38.3998C15.101 38.2332 15.101 38.2332 15.3324 38.1036Z" fill="white"/>
<path d="M17.0356 37.1409C17.1578 37.1653 17.28 37.1897 17.4059 37.2149C17.1289 37.4558 16.7903 37.618 16.4432 37.7333C16.3943 37.7089 16.3455 37.6844 16.2951 37.6592C16.5412 37.3676 16.5412 37.3676 16.795 37.3445C16.8499 37.3506 16.9049 37.3567 16.9616 37.363C16.986 37.2897 17.0105 37.2164 17.0356 37.1409Z" fill="white"/>
<path d="M41.6215 58.8386C41.7561 58.8823 41.8902 58.9273 42.0242 58.9729C42.0989 58.9978 42.1737 59.0227 42.2507 59.0484C42.3119 59.0769 42.3731 59.1055 42.4361 59.1349C42.4606 59.2082 42.485 59.2815 42.5102 59.357C42.5949 59.3708 42.5949 59.3708 42.6814 59.3848C42.8804 59.4311 42.8804 59.4311 43.1026 59.5792C42.6586 59.5599 42.3801 59.4023 42.0091 59.1626C41.8412 59.0506 41.8412 59.0506 41.6215 58.9868C41.6215 58.9379 41.6215 58.889 41.6215 58.8386Z" fill="white"/>
<path d="M21.701 53.3587C21.7499 53.3831 21.7988 53.4075 21.8491 53.4327C21.7568 53.5501 21.6642 53.6674 21.5714 53.7845C21.5199 53.8498 21.4683 53.9151 21.4152 53.9823C21.2716 54.1554 21.1223 54.3135 20.9605 54.4695C20.9116 54.445 20.8627 54.4206 20.8124 54.3954C20.8613 54.3221 20.9101 54.2488 20.9605 54.1733C21.0094 54.1733 21.0582 54.1733 21.1086 54.1733C21.133 54.0999 21.1575 54.0266 21.1827 53.9511C21.2315 53.9511 21.2804 53.9511 21.3308 53.9511C21.3506 53.9083 21.3705 53.8656 21.3909 53.8215C21.4801 53.6525 21.5831 53.5087 21.701 53.3587Z" fill="white"/>
<path d="M16.3692 48.323C16.2628 48.594 16.1441 48.6864 15.8878 48.8182C15.829 48.8491 15.7702 48.8799 15.7096 48.9117C15.6086 48.9624 15.5075 49.013 15.4064 49.0635C15.5139 48.7948 15.6464 48.6818 15.8878 48.5266C15.976 48.4688 15.976 48.4688 16.066 48.4098C16.221 48.323 16.221 48.323 16.3692 48.323Z" fill="white"/>
<path d="M18.887 45.3608C19.1411 45.4526 19.3538 45.5462 19.5535 45.7311C19.5535 45.8044 19.5535 45.8777 19.5535 45.9533C19.2491 45.8459 19.0031 45.6933 18.7389 45.509C18.7878 45.4601 18.8366 45.4112 18.887 45.3608Z" fill="white"/>
<path d="M75.6863 42.843C75.7596 42.8674 75.8329 42.8919 75.9085 42.9171C75.8729 43.2344 75.6701 43.4184 75.4595 43.6391C75.4245 43.6766 75.3895 43.7141 75.3535 43.7528C75.2674 43.8449 75.1807 43.9365 75.0939 44.0279C75.0939 43.9546 75.0939 43.8812 75.0939 43.8057C75.2173 43.6823 75.3407 43.5589 75.4641 43.4354C75.5279 43.2745 75.5279 43.2745 75.5382 43.1392C75.6115 43.1392 75.6848 43.1392 75.7604 43.1392C75.7359 43.0415 75.7115 42.9437 75.6863 42.843Z" fill="white"/>
<path d="M15.7767 40.6214C15.8256 40.6458 15.8745 40.6703 15.9248 40.6954C15.6373 40.9008 15.3817 41.0571 15.0362 41.1398C14.8748 41.1059 14.8748 41.1059 14.74 41.0657C14.871 41.0054 15.0022 40.9453 15.1334 40.8852C15.2064 40.8517 15.2794 40.8182 15.3547 40.7837C15.5546 40.6954 15.5546 40.6954 15.7767 40.6214Z" fill="white"/>
<path d="M17.3319 40.2511C17.085 40.3499 16.8382 40.4486 16.5913 40.5473C16.4967 40.5934 16.4967 40.5934 16.4001 40.6405C16.221 40.6954 16.221 40.6954 16.0498 40.6307C16.0086 40.6032 15.9673 40.5757 15.9248 40.5473C16.1035 40.4831 16.2824 40.42 16.4617 40.3576C16.5122 40.3393 16.5627 40.321 16.6147 40.3022C17.0788 40.1422 17.0788 40.1422 17.3319 40.2511Z" fill="white"/>
<path d="M21.9972 60.3197C22.0217 60.393 22.0461 60.4664 22.0713 60.5419C21.962 60.7152 21.962 60.7152 21.8029 60.9075C21.7515 60.9708 21.7001 61.0341 21.6472 61.0993C21.4799 61.2813 21.3055 61.4298 21.1086 61.5786C21.21 61.3602 21.3217 61.1695 21.4789 60.9862C21.5277 60.9862 21.5766 60.9862 21.627 60.9862C21.6568 60.9037 21.6568 60.9037 21.6871 60.8196C21.7708 60.6258 21.8646 60.4825 21.9972 60.3197Z" fill="white"/>
<path d="M64.6523 57.5797C64.8356 57.653 64.8356 57.653 65.0225 57.7278C65.0225 57.7767 65.0225 57.8256 65.0225 57.8759C65.0668 57.8958 65.1111 57.9157 65.1568 57.9361C65.3167 58.0229 65.4193 58.1125 65.5409 58.2462C65.3734 58.2644 65.3734 58.2644 65.1707 58.2462C65.0211 58.1192 65.0211 58.1192 64.8883 57.9546C64.8212 57.8734 64.8212 57.8734 64.7527 57.7906C64.6523 57.6538 64.6523 57.6538 64.6523 57.5797Z" fill="white"/>
<path d="M28.0697 46.916C28.395 47.0047 28.6017 47.09 28.8102 47.3603C28.8657 47.5639 28.8657 47.5639 28.8843 47.7306C28.578 47.4802 28.3057 47.2369 28.0697 46.916Z" fill="white"/>
<path d="M20.3681 46.6198C20.5968 46.6452 20.7214 46.6806 20.9049 46.8234C21.0477 47.007 21.0832 47.1315 21.1086 47.3603C20.5545 46.9048 20.5545 46.9048 20.3681 46.6198Z" fill="white"/>
<path d="M11.3335 50.6187C11.4068 50.6187 11.4801 50.6187 11.5556 50.6187C11.7036 50.9238 11.717 51.1705 11.7038 51.5073C11.5057 51.3092 11.4337 51.1005 11.3335 50.8408C11.3335 50.7675 11.3335 50.6942 11.3335 50.6187Z" fill="white"/>
<path d="M66.7258 50.4706C67.094 50.581 67.4233 50.7375 67.7625 50.9149C67.7625 50.9638 67.7625 51.0126 67.7625 51.063C67.8114 51.0874 67.8603 51.1119 67.9106 51.137C67.6662 51.0859 67.4587 50.9973 67.2349 50.8871C67.1706 50.856 67.1062 50.8249 67.0399 50.7928C66.8739 50.6927 66.8739 50.6927 66.7258 50.4706Z" fill="white"/>
<path d="M42.4361 46.2495C42.4361 46.5312 42.3518 46.6032 42.1769 46.8188C42.1048 46.9086 42.1048 46.9086 42.0311 47.0002C41.9937 47.0457 41.9563 47.0912 41.9177 47.1381C41.8437 46.916 41.8437 46.916 41.8853 46.7355C42.0236 46.489 42.1954 46.3908 42.4361 46.2495Z" fill="white"/>
<path d="M53.9885 45.509C54.1618 45.6665 54.263 45.8137 54.3588 46.0273C54.4077 45.9296 54.4565 45.8318 54.5069 45.7311C54.5069 45.9266 54.5069 46.1221 54.5069 46.3235C54.4336 46.3235 54.3603 46.3235 54.2847 46.3235C53.9885 45.8422 53.9885 45.8422 53.9885 45.509Z" fill="white"/>
<path d="M16.1701 37.6824C16.2114 37.6992 16.2526 37.716 16.2951 37.7333C16.0581 37.9364 15.8504 38.0762 15.5546 38.1776C15.5684 38.0434 15.5684 38.0434 15.6286 37.8814C15.9248 37.6492 15.9248 37.6492 16.1701 37.6824Z" fill="white"/>
<path d="M63.9117 58.1722C63.8859 58.4132 63.8361 58.4698 63.6479 58.635C63.5884 58.6778 63.5288 58.7205 63.4674 58.7646C63.3941 58.7157 63.3208 58.6668 63.2453 58.6165C63.3282 58.542 63.4116 58.468 63.4952 58.3943C63.5648 58.3325 63.5648 58.3325 63.6358 58.2694C63.7636 58.1722 63.7636 58.1722 63.9117 58.1722Z" fill="white"/>
<path d="M11.7038 42.2506C11.7771 42.2506 11.8504 42.2506 11.9259 42.2506C11.8592 42.4602 11.7952 42.661 11.6945 42.8569C11.6136 42.9996 11.6136 42.9996 11.6297 43.2133C11.5808 43.2133 11.532 43.2133 11.4816 43.2133C11.4572 43.0911 11.4327 42.9689 11.4075 42.843C11.4809 42.8186 11.5542 42.7941 11.6297 42.769C11.6282 42.6972 11.6266 42.6254 11.6251 42.5514C11.6297 42.3246 11.6297 42.3246 11.7038 42.2506Z" fill="white"/>
<path d="M48.8788 59.4311C48.8544 59.48 48.8299 59.5288 48.8047 59.5792C48.7559 59.5792 48.707 59.5792 48.6566 59.5792C48.6566 59.6281 48.6566 59.6769 48.6566 59.7273C48.4856 59.7273 48.3145 59.7273 48.1383 59.7273C48.1138 59.6784 48.0894 59.6295 48.0642 59.5792C48.3473 59.4738 48.5761 59.4133 48.8788 59.4311Z" fill="white"/>
<path d="M22.4416 52.3219C22.4904 52.3219 22.5393 52.3219 22.5897 52.3219C22.4212 52.7756 22.2446 53.0701 21.8491 53.3587C21.9267 53.1188 22.0238 52.9457 22.187 52.757C22.378 52.5584 22.378 52.5584 22.4416 52.3219Z" fill="white"/>
<path d="M15.6286 52.396C16.1285 52.4515 16.1285 52.4515 16.2951 52.6181C16.2951 52.6914 16.2951 52.7647 16.2951 52.8403C15.9726 52.7543 15.8029 52.6865 15.6286 52.396Z" fill="white"/>
<path d="M4.07621 50.9149C4.22441 51.1035 4.36185 51.2817 4.44648 51.5073C4.41871 51.6739 4.41871 51.6739 4.37242 51.8035C4.37242 51.7547 4.37242 51.7058 4.37242 51.6554C4.29911 51.631 4.2258 51.6065 4.15026 51.5814C4.04079 51.3624 4.07174 51.1561 4.07621 50.9149Z" fill="white"/>
<path d="M51.1004 49.8781C51.1249 49.8781 51.1493 49.8781 51.1745 49.8781C51.1933 50.1449 51.2096 50.4118 51.2254 50.6788C51.2308 50.7547 51.2362 50.8305 51.2417 50.9087C51.2458 50.9815 51.2498 51.0542 51.254 51.1292C51.2583 51.1963 51.2626 51.2634 51.2669 51.3325C51.2485 51.5073 51.2485 51.5073 51.0264 51.7295C51.0508 51.1185 51.0752 50.5076 51.1004 49.8781Z" fill="white"/>
<path d="M30.0691 42.769C30.372 42.9382 30.6218 43.136 30.8837 43.3614C30.8104 43.398 30.8104 43.398 30.7356 43.4354C30.6623 43.411 30.589 43.3866 30.5134 43.3614C30.5134 43.3125 30.5134 43.2636 30.5134 43.2133C30.4676 43.2041 30.4218 43.195 30.3746 43.1855C30.2172 43.1392 30.2172 43.1392 30.0691 42.9911C30.0691 42.9178 30.0691 42.8445 30.0691 42.769Z" fill="white"/>
<path d="M65.0966 44.8425C65.1455 44.8425 65.1944 44.8425 65.2447 44.8425C65.234 44.9265 65.2233 45.0105 65.2123 45.097C65.1704 45.4315 65.133 45.7663 65.0966 46.1014C65.0722 46.1014 65.0477 46.1014 65.0225 46.1014C65.0205 45.9332 65.0191 45.7651 65.0179 45.5969C65.0166 45.4564 65.0166 45.4564 65.0153 45.3131C65.0225 45.0646 65.0225 45.0646 65.0966 44.8425Z" fill="white"/>
<path d="M9.48214 37.7333C9.48214 38.0157 9.40546 38.159 9.25998 38.3998C9.06096 38.5386 9.06096 38.5386 8.88971 38.6219C8.99411 38.3969 9.11844 38.2077 9.26923 38.011C9.30914 37.9587 9.34904 37.9064 9.39015 37.8525C9.42051 37.8131 9.45086 37.7738 9.48214 37.7333Z" fill="white"/>
<path d="M99.4576 59.1349C99.4576 59.1837 99.4576 59.2326 99.4576 59.283C99.1895 59.3804 99.0062 59.4311 98.7171 59.4311C98.7415 59.3578 98.7659 59.2845 98.7911 59.2089C99.0107 59.1226 99.224 59.1284 99.4576 59.1349Z" fill="white"/>
<path d="M0.965944 52.396C1.05033 52.6491 1.02935 52.6936 0.938173 52.9329C0.833117 53.226 0.776663 53.4939 0.743782 53.803C0.719344 53.803 0.694906 53.803 0.669728 53.803C0.642934 53.3207 0.721608 52.9226 0.89189 52.47C0.916328 52.4456 0.940765 52.4211 0.965944 52.396Z" fill="white"/>
<path d="M49.175 45.9533C49.4307 46.0627 49.5934 46.2079 49.786 46.4069C49.8383 46.4605 49.8906 46.5142 49.9445 46.5694C50.0035 46.631 50.0035 46.631 50.0637 46.6938C50.0392 46.7671 50.0148 46.8404 49.9896 46.916C49.8536 46.7696 49.7179 46.623 49.5823 46.4763C49.524 46.4136 49.524 46.4136 49.4646 46.3497C49.175 46.0357 49.175 46.0357 49.175 45.9533Z" fill="white"/>
<path d="M15.9989 34.3268C16.3671 34.4373 16.6964 34.5937 17.0356 34.7711C16.7567 34.8641 16.6378 34.7986 16.3692 34.6971C16.3692 34.6482 16.3692 34.5993 16.3692 34.549C16.247 34.549 16.1248 34.549 15.9989 34.549C15.9989 34.4757 15.9989 34.4024 15.9989 34.3268Z" fill="white"/>
<path d="M56.2842 59.2089C56.7326 59.1945 56.7326 59.1945 56.8766 59.2089C57.0247 59.357 57.0247 59.357 57.0988 59.5792C56.9906 59.5458 56.8827 59.5117 56.7748 59.4774C56.7147 59.4585 56.6545 59.4396 56.5926 59.4201C56.4323 59.357 56.4323 59.357 56.2842 59.2089Z" fill="white"/>
<path d="M19.5535 45.9533C19.871 45.9886 20.0175 46.0761 20.2199 46.3235C20.2199 46.3724 20.2199 46.4213 20.2199 46.4717C19.9373 46.3565 19.7614 46.1728 19.5535 45.9533Z" fill="white"/>
<path d="M13.9994 41.51C13.975 41.6078 13.9506 41.7055 13.9254 41.8063C13.7054 41.8551 13.4855 41.904 13.2589 41.9544C13.7032 41.51 13.7032 41.51 13.9994 41.51Z" fill="white"/>
<path d="M12.074 35.1414C12.1229 35.1658 12.1718 35.1903 12.2221 35.2155C12.0407 35.5692 12.0407 35.5692 11.8519 35.6459C11.7038 35.6598 11.7038 35.6598 11.4816 35.6598C11.6771 35.4887 11.8726 35.3177 12.074 35.1414Z" fill="white"/>
<path d="M17.0356 34.8452C17.3931 34.9498 17.6811 35.0992 17.9983 35.2895C17.9983 35.314 17.9983 35.3384 17.9983 35.3636C17.8517 35.3636 17.7051 35.3636 17.554 35.3636C17.554 35.2903 17.554 35.2169 17.554 35.1414C17.3341 35.1048 17.3341 35.1048 17.1097 35.0674C17.0853 34.994 17.0608 34.9207 17.0356 34.8452Z" fill="white"/>
<path d="M90.2749 58.3943C90.4091 58.4036 90.4091 58.4036 90.5711 58.4684C90.7007 58.6952 90.7007 58.6952 90.7933 58.9127C90.6174 58.8618 90.6174 58.8618 90.423 58.7646C90.3258 58.5702 90.3258 58.5702 90.2749 58.3943Z" fill="white"/>
<path d="M64.208 57.7278C64.2813 57.7278 64.3546 57.7278 64.4301 57.7278C64.4043 57.9689 64.3545 58.0254 64.1663 58.1907C64.1067 58.2334 64.0472 58.2762 63.9858 58.3203C63.9614 58.247 63.9369 58.1736 63.9117 58.0981C63.9851 58.0981 64.0584 58.0981 64.1339 58.0981C64.1583 57.9759 64.1828 57.8537 64.208 57.7278Z" fill="white"/>
<path d="M23.1821 50.4706C23.231 50.495 23.2799 50.5194 23.3302 50.5446C23.3505 50.9441 23.3569 51.1755 23.1081 51.5073C23.0836 51.4584 23.0592 51.4096 23.034 51.3592C23.0569 51.3057 23.0798 51.2523 23.1034 51.1972C23.1985 50.9455 23.1926 50.7375 23.1821 50.4706Z" fill="white"/>
<path d="M36.8821 48.9154C36.931 48.9154 36.9798 48.9154 37.0302 48.9154C37.0434 49.2522 37.03 49.4989 36.8821 49.8041C36.8576 49.8041 36.8332 49.8041 36.808 49.8041C36.7974 49.1693 36.7974 49.1693 36.8821 48.9154Z" fill="white"/>
<path d="M13.9254 46.8419C13.815 47.123 13.6472 47.2574 13.407 47.4344C13.4314 47.3122 13.4559 47.19 13.481 47.0641C13.5299 47.0641 13.5788 47.0641 13.6292 47.0641C13.6292 47.0152 13.6292 46.9663 13.6292 46.916C13.7773 46.8419 13.7773 46.8419 13.9254 46.8419Z" fill="white"/>
<path d="M73.835 45.2127C73.835 45.4349 73.835 45.4349 73.6683 45.6385C73.4647 45.8052 73.4647 45.8052 73.3027 45.8005C73.1685 45.7311 73.1685 45.7311 73.0204 45.583C73.086 45.5906 73.1517 45.5983 73.2194 45.6061C73.5392 45.576 73.6318 45.4518 73.835 45.2127Z" fill="white"/>
<path d="M71.9512 59.519C72.0854 59.5638 72.2197 59.6085 72.3539 59.6532C72.2477 59.6926 72.1412 59.731 72.0345 59.7689C71.9456 59.8012 71.9456 59.8012 71.8549 59.834C71.6874 59.8754 71.6874 59.8754 71.4652 59.8013C71.7106 59.5014 71.7106 59.5014 71.9512 59.519Z" fill="white"/>
<path d="M49.0463 59.3281C49.1352 59.3333 49.1352 59.3333 49.2259 59.3385C49.2858 59.3412 49.3456 59.3439 49.4073 59.3466C49.4756 59.3518 49.4756 59.3518 49.5453 59.357C49.366 59.5363 49.2638 59.5443 49.0177 59.5884C48.9166 59.6071 48.9166 59.6071 48.8134 59.626C48.7617 59.635 48.7099 59.644 48.6566 59.6532C48.8319 59.3651 48.8319 59.3651 49.0463 59.3281Z" fill="white"/>
<path d="M30.4394 49.8781C30.4883 49.9026 30.5371 49.927 30.5875 49.9522C30.5631 50.0255 30.5386 50.0988 30.5134 50.1743C30.5868 50.1988 30.6601 50.2232 30.7356 50.2484C30.7356 50.4195 30.7356 50.5905 30.7356 50.7668C30.5164 50.5176 30.4451 50.2712 30.3653 49.9522C30.3898 49.9277 30.4142 49.9033 30.4394 49.8781Z" fill="white"/>
<path d="M21.7751 48.1749C21.824 48.1749 21.8728 48.1749 21.9232 48.1749C21.9232 48.2238 21.9232 48.2726 21.9232 48.323C22.0209 48.3474 22.1187 48.3719 22.2194 48.3971C22.2438 48.5681 22.2683 48.7392 22.2935 48.9154C22.0464 48.694 21.912 48.4762 21.7751 48.1749Z" fill="white"/>
<path d="M74.2052 44.6203C74.2541 44.6447 74.303 44.6692 74.3533 44.6944C74.0849 45.1294 74.0849 45.1294 73.835 45.2127C73.8751 44.9316 73.998 44.8075 74.2052 44.6203Z" fill="white"/>
<path d="M38.6594 44.6944C38.6838 44.7677 38.7082 44.841 38.7334 44.9165C38.5135 45.0998 38.5135 45.0998 38.2891 45.2868C38.2891 45.0646 38.2891 45.0646 38.4742 44.8656C38.5353 44.8091 38.5964 44.7526 38.6594 44.6944Z" fill="white"/>
<path d="M30.8837 43.4354C30.9688 43.5061 31.0536 43.5771 31.1383 43.6483C31.2091 43.7076 31.2091 43.7076 31.2815 43.7681C31.4021 43.8798 31.4021 43.8798 31.4761 44.0279C31.3295 43.979 31.1829 43.9301 31.0318 43.8798C31.0318 43.8309 31.0318 43.782 31.0318 43.7317C30.9829 43.7072 30.9341 43.6828 30.8837 43.6576C30.8837 43.5843 30.8837 43.511 30.8837 43.4354Z" fill="white"/>
<path d="M51.3966 42.769C51.725 42.8722 51.9057 43.036 52.1372 43.2873C52.1127 43.3362 52.0883 43.3851 52.0631 43.4354C51.9516 43.3527 51.8406 43.2693 51.7299 43.1855C51.668 43.1391 51.6062 43.0927 51.5424 43.0449C51.4943 43.0027 51.4462 42.9605 51.3966 42.9171C51.3966 42.8682 51.3966 42.8193 51.3966 42.769Z" fill="white"/>
<path d="M67.3182 59.357C67.953 59.4205 67.953 59.4205 68.2069 59.5792C68.2069 59.6281 68.2069 59.6769 68.2069 59.7273C68.1003 59.6938 67.9939 59.6597 67.8875 59.6255C67.8282 59.6066 67.7689 59.5877 67.7079 59.5682C67.5404 59.5051 67.5404 59.5051 67.3182 59.357Z" fill="white"/>
<path d="M54.2847 56.6911C54.3336 56.7155 54.3825 56.74 54.4328 56.7651C54.338 56.8916 54.239 57.015 54.1366 57.1354C54.0877 57.1354 54.0389 57.1354 53.9885 57.1354C53.9885 57.2087 53.9885 57.282 53.9885 57.3576C53.9396 57.3576 53.8908 57.3576 53.8404 57.3576C53.9376 57.066 54.0566 56.8964 54.2847 56.6911Z" fill="white"/>
<path d="M49.175 54.9878C49.2239 55.0123 49.2728 55.0367 49.3231 55.0619C49.2276 55.1638 49.1286 55.2624 49.0269 55.3581C48.978 55.3581 48.9292 55.3581 48.8788 55.3581C48.8544 55.4314 48.8299 55.5047 48.8047 55.5803C48.707 55.5558 48.6092 55.5314 48.5085 55.5062C48.7285 55.3352 48.9484 55.1641 49.175 54.9878Z" fill="white"/>
<path d="M65.4669 48.9154C65.812 49.1425 65.9004 49.3291 65.9852 49.73C65.7019 49.4765 65.5615 49.2852 65.4669 48.9154Z" fill="white"/>
<path d="M14.5919 41.1398C14.6407 41.1642 14.6896 41.1886 14.74 41.2138C14.6667 41.2383 14.5933 41.2627 14.5178 41.2879C14.4934 41.3612 14.4689 41.4345 14.4437 41.51C14.2971 41.51 14.1505 41.51 13.9994 41.51C14.1985 41.3432 14.3435 41.2226 14.5919 41.1398Z" fill="white"/>
<path d="M72.576 59.4311C72.3534 59.6537 72.1448 59.6233 71.8355 59.6532C72.0676 59.3864 72.2359 59.3177 72.576 59.4311Z" fill="white"/>
<path d="M62.0604 59.357C62.0604 59.4303 62.0604 59.5037 62.0604 59.5792C61.8893 59.6036 61.7183 59.6281 61.542 59.6532C61.5665 59.5799 61.5909 59.5066 61.6161 59.4311C61.7716 59.3759 61.8956 59.357 62.0604 59.357Z" fill="white"/>
<path d="M22.6637 59.283C22.6882 59.3563 22.7126 59.4296 22.7378 59.5051C22.6478 59.6726 22.6478 59.6726 22.5202 59.8523C22.4783 59.9121 22.4364 59.972 22.3933 60.0336C22.3603 60.0792 22.3274 60.1247 22.2935 60.1716C22.269 60.0983 22.2446 60.025 22.2194 59.9495C22.3094 59.782 22.3094 59.782 22.4369 59.6023C22.4788 59.5425 22.5208 59.4826 22.5639 59.421C22.5969 59.3754 22.6298 59.3299 22.6637 59.283Z" fill="white"/>
<path d="M23.1081 58.3943C23.1821 58.5424 23.1821 58.5424 23.1297 58.7001C23.1027 58.7596 23.0757 58.819 23.0479 58.8803C23.0214 58.94 22.995 58.9996 22.9678 59.0611C22.8859 59.2089 22.8859 59.2089 22.7378 59.283C22.7855 59.0599 22.86 58.8744 22.9646 58.672C22.9914 58.6197 23.0182 58.5674 23.0459 58.5135C23.0664 58.4742 23.0869 58.4348 23.1081 58.3943Z" fill="white"/>
<path d="M89.3122 57.5797C89.5131 57.6992 89.7101 57.8203 89.9046 57.95C89.9046 57.9989 89.9046 58.0478 89.9046 58.0981C89.6243 58.0581 89.4934 57.9413 89.3122 57.7278C89.3122 57.679 89.3122 57.6301 89.3122 57.5797Z" fill="white"/>
<path d="M56.2101 54.4695C56.2834 54.4939 56.3568 54.5183 56.4323 54.5435C56.3743 54.5878 56.3162 54.6321 56.2564 54.6777C56.0512 54.8331 56.0512 54.8331 55.9139 55.0619C55.865 55.0619 55.8162 55.0619 55.7658 55.0619C55.8726 54.8126 56.0126 54.6538 56.2101 54.4695Z" fill="white"/>
<path d="M91.0155 53.3587C91.2186 53.5956 91.3583 53.8034 91.4598 54.0992C91.2376 54.0251 91.2376 54.0251 91.1126 53.8539C91.0155 53.6549 91.0155 53.6549 91.0155 53.3587Z" fill="white"/>
<path d="M19.1832 51.8776C19.2076 51.8776 19.2321 51.8776 19.2573 51.8776C19.2758 52.0488 19.2758 52.0488 19.2573 52.2479C19.1091 52.3821 19.1091 52.3821 18.961 52.47C18.9366 52.3723 18.9122 52.2745 18.887 52.1738C18.9359 52.1738 18.9847 52.1738 19.0351 52.1738C19.084 52.076 19.1328 51.9783 19.1832 51.8776Z" fill="white"/>
<path d="M60.2831 48.2489C60.5562 48.2858 60.6982 48.3305 60.8755 48.5452C60.8022 48.5818 60.8022 48.5818 60.7274 48.6192C60.577 48.55 60.4286 48.4761 60.2831 48.3971C60.2831 48.3482 60.2831 48.2993 60.2831 48.2489Z" fill="white"/>
<path d="M58.8761 45.2868C58.8159 45.5413 58.8159 45.5413 58.728 45.8052C58.6547 45.8296 58.5813 45.854 58.5058 45.8792C58.5247 45.7057 58.5497 45.5328 58.5799 45.3608C58.728 45.2868 58.728 45.2868 58.8761 45.2868Z" fill="white"/>
<path d="M93.163 59.6532C93.6461 59.6259 93.6461 59.6259 93.8249 59.7643C93.8508 59.801 93.8768 59.8376 93.9036 59.8754C93.7081 59.8754 93.5126 59.8754 93.3111 59.8754C93.3111 59.8265 93.3111 59.7777 93.3111 59.7273C93.2623 59.7029 93.2134 59.6784 93.163 59.6532Z" fill="white"/>
<path d="M100.198 58.9127C100.198 58.9616 100.198 59.0105 100.198 59.0608C99.8682 59.0975 99.8682 59.0975 99.5317 59.1349C99.6691 58.8599 99.9246 58.9053 100.198 58.9127Z" fill="white"/>
<path d="M55.5436 58.6165C55.6903 58.6654 55.8369 58.7142 55.988 58.7646C55.988 58.8135 55.988 58.8623 55.988 58.9127C56.0613 58.9371 56.1346 58.9616 56.2101 58.9868C56.0019 59.0099 56.0019 59.0099 55.7658 58.9868C55.627 58.8016 55.627 58.8016 55.5436 58.6165Z" fill="white"/>
<path d="M51.2485 58.3203C51.2241 58.418 51.1996 58.5158 51.1745 58.6165C51.0523 58.6409 50.9301 58.6654 50.8042 58.6905C50.9714 58.3203 50.9714 58.3203 51.2485 58.3203Z" fill="white"/>
<path d="M19.5535 51.063C19.5779 51.063 19.6023 51.063 19.6275 51.063C19.6211 51.1819 19.613 51.3006 19.6044 51.4194C19.6001 51.4855 19.5958 51.5517 19.5914 51.6198C19.5488 51.8262 19.4927 51.8955 19.3313 52.0257C19.3398 51.9207 19.3493 51.8158 19.3591 51.711C19.3642 51.6525 19.3694 51.5941 19.3747 51.5339C19.4065 51.3528 19.4636 51.2223 19.5535 51.063Z" fill="white"/>
<path d="M55.1734 49.1376C55.2223 49.162 55.2711 49.1865 55.3215 49.2116C55.2971 49.5293 55.2726 49.847 55.2474 50.1743C55.223 50.1743 55.1986 50.1743 55.1734 50.1743C55.159 50.0155 55.1452 49.8566 55.1317 49.6976C55.1201 49.5649 55.1201 49.5649 55.1083 49.4295C55.1053 49.3576 55.1024 49.2857 55.0993 49.2116C55.1238 49.1872 55.1482 49.1628 55.1734 49.1376Z" fill="white"/>
<path d="M29.847 49.0635C29.9447 49.088 30.0425 49.1124 30.1432 49.1376C30.2124 49.3605 30.2205 49.4239 30.1432 49.656C30.0454 49.4605 29.9477 49.265 29.847 49.0635Z" fill="white"/>
<path d="M29.3286 48.323C29.5119 48.3597 29.5119 48.3597 29.6988 48.3971C29.7233 48.5681 29.7477 48.7392 29.7729 48.9154C29.5754 48.7311 29.4354 48.5723 29.3286 48.323Z" fill="white"/>
<path d="M55.3955 43.2873C55.4444 43.2873 55.4933 43.2873 55.5436 43.2873C55.5205 43.4308 55.5205 43.4308 55.4696 43.5836C55.3963 43.608 55.323 43.6324 55.2474 43.6576C55.2474 43.7309 55.2474 43.8042 55.2474 43.8798C55.1986 43.8798 55.1497 43.8798 55.0993 43.8798C55.1826 43.6597 55.2639 43.4847 55.3955 43.2873Z" fill="white"/>
<path d="M40.7329 58.3203C40.9828 58.4081 41.1511 58.4888 41.3253 58.6905C41.1542 58.6661 40.9832 58.6417 40.8069 58.6165C40.7825 58.5187 40.7581 58.421 40.7329 58.3203Z" fill="white"/>
<path d="M74.0571 58.3203C74.106 58.3203 74.1549 58.3203 74.2052 58.3203C74.1867 58.4591 74.1867 58.4591 74.1312 58.6165C73.9784 58.7091 73.9784 58.7091 73.835 58.7646C73.8774 58.5523 73.8988 58.4786 74.0571 58.3203Z" fill="white"/>
<path d="M53.7664 55.6543C53.7908 55.7276 53.8152 55.801 53.8404 55.8765C53.7062 56.1125 53.7062 56.1125 53.5442 56.3208C53.4953 56.3208 53.4464 56.3208 53.3961 56.3208C53.507 56.0904 53.633 55.8725 53.7664 55.6543Z" fill="white"/>
<path d="M14.2956 46.4717C14.2662 46.6854 14.2371 46.7547 14.0689 46.8975C14.0215 46.928 13.9742 46.9586 13.9254 46.99C13.9009 46.9167 13.8765 46.8434 13.8513 46.7679C14.129 46.4717 14.129 46.4717 14.2956 46.4717Z" fill="white"/>
<path d="M72.3539 45.2127C72.6305 45.2496 72.7843 45.2775 73.0204 45.4349C73.0204 45.4838 73.0204 45.5326 73.0204 45.583C72.7408 45.5022 72.5412 45.4417 72.3539 45.2127Z" fill="white"/>
<path d="M59.5426 44.8425C59.4738 44.8883 59.4051 44.9341 59.3343 44.9813C59.2174 45.0592 59.2174 45.0592 59.0982 45.1387C58.9883 45.212 58.9883 45.212 58.8761 45.2868C58.9316 45.0693 58.9316 45.0693 59.0242 44.8425C59.2395 44.7383 59.3113 44.7654 59.5426 44.8425Z" fill="white"/>
<path d="M10.2967 36.7706C10.3212 36.8683 10.3456 36.9661 10.3708 37.0668C10.2242 37.1401 10.0775 37.2134 9.92646 37.289C10.0222 37.0754 10.1234 36.9282 10.2967 36.7706Z" fill="white"/>
<path d="M13.7773 34.1047C13.7773 34.178 13.7773 34.2513 13.7773 34.3268C13.5818 34.3757 13.3863 34.4246 13.1848 34.4749C13.5432 34.1047 13.5432 34.1047 13.7773 34.1047Z" fill="white"/>
<path d="M73.0204 59.283C72.8262 59.4425 72.6765 59.5348 72.4279 59.5792C72.4557 59.4357 72.4557 59.4357 72.502 59.283C72.6995 59.1842 72.8106 59.2333 73.0204 59.283Z" fill="white"/>
<path d="M49.7674 59.2089C49.5592 59.3246 49.5592 59.3246 49.3231 59.4311C49.2498 59.4066 49.1765 59.3822 49.101 59.357C49.3259 59.1321 49.4666 59.1086 49.7674 59.2089Z" fill="white"/>
<path d="M63.0971 58.6905C63.1949 58.6905 63.2926 58.6905 63.3934 58.6905C63.3689 58.7639 63.3445 58.8372 63.3193 58.9127C63.1295 59.0006 63.1295 59.0006 62.949 59.0608C62.9979 58.9386 63.0468 58.8164 63.0971 58.6905Z" fill="white"/>
<path d="M15.4064 52.0257C15.5546 52.0997 15.7027 52.1738 15.8508 52.2479C15.8263 52.3212 15.8019 52.3945 15.7767 52.47C15.6332 52.4145 15.6332 52.4145 15.4805 52.3219C15.425 52.1645 15.425 52.1645 15.4064 52.0257Z" fill="white"/>
<path d="M2.07675 49.8781C2.12563 49.8781 2.1745 49.8781 2.22486 49.8781C2.2493 49.9514 2.27374 50.0248 2.29891 50.1003C2.20116 50.1247 2.10341 50.1492 2.0027 50.1743C2.0027 50.2477 2.0027 50.321 2.0027 50.3965C1.95382 50.3965 1.90495 50.3965 1.85459 50.3965C1.99344 49.9614 1.99344 49.9614 2.07675 49.8781Z" fill="white"/>
<path d="M43.0285 45.6571C43.0774 45.6815 43.1263 45.7059 43.1767 45.7311C43.03 45.8777 42.8834 46.0244 42.7323 46.1754C42.6835 46.151 42.6346 46.1266 42.5842 46.1014C42.7786 45.7404 42.7786 45.7404 43.0285 45.6571Z" fill="white"/>
<path d="M40.5107 42.769C40.6727 42.7921 40.6727 42.7921 40.8069 42.843C40.6847 42.9408 40.5625 43.0385 40.4367 43.1392C40.3878 43.0904 40.3389 43.0415 40.2886 42.9911C40.3811 42.8754 40.3811 42.8754 40.5107 42.769Z" fill="white"/>
<path d="M12.1481 41.6581C12.1725 41.707 12.197 41.7559 12.2221 41.8063C12.1529 41.9567 12.079 42.1051 12 42.2506C11.9213 42.1164 11.9213 42.1164 11.8519 41.9544C11.8763 41.8811 11.9007 41.8077 11.9259 41.7322C11.9992 41.7078 12.0725 41.6833 12.1481 41.6581Z" fill="white"/>
<path d="M19.1832 36.1782C19.5442 36.3726 19.5442 36.3726 19.6275 36.6225C19.5298 36.6225 19.432 36.6225 19.3313 36.6225C19.3313 36.5247 19.3313 36.427 19.3313 36.3263C19.2824 36.3263 19.2336 36.3263 19.1832 36.3263C19.1832 36.2774 19.1832 36.2285 19.1832 36.1782Z" fill="white"/>
</g>
<defs>
<clipPath id="clip0_2377_7971">
<rect width="100" height="100" fill="white" transform="translate(0.651367 0.553955)"/>
</clipPath>
</defs>
</svg>
