<svg width="101" height="101" viewBox="0 0 101 101" fill="none" xmlns="http://www.w3.org/2000/svg">
<g clip-path="url(#clip0_2377_7936)">
<path d="M15.6492 55.5639L12.3247 44.7582H9.70012L6.37472 55.5639L3.0796 44.751H0.0605469L4.87288 60.5077H7.32264L11.0127 49.1038L14.6873 60.5077H17.1371L21.9494 44.7582H18.9452L15.6492 55.5639Z" fill="#191919"/>
<path d="M43.3176 47.4848H51.439L42.5002 60.0255V60.5076H55.8438V57.7808H47.3569L56.2807 45.2542V44.7581H43.3176V47.4848Z" fill="#191919"/>
<path d="M36.4281 46.4184C35.0777 45.0093 33.2353 44.2678 31.0676 44.2678C26.4803 44.2678 23.0215 47.8697 23.0215 52.6458C23.0215 57.4214 26.4803 61.0228 31.0676 61.0228C33.2303 61.0228 35.0726 60.2859 36.4281 58.8863V60.6925H39.5114V44.5992H36.4281V46.4184ZM31.3819 58.1212C28.3538 58.1212 26.1549 55.8185 26.1549 52.6459C26.1549 49.4832 28.3537 47.1876 31.3819 47.1876C34.4009 47.1876 36.5927 49.4833 36.5927 52.6459C36.5927 55.8185 34.401 58.1212 31.3819 58.1212Z" fill="#191919"/>
<path d="M70.6421 53.6721C70.6421 56.4994 69.0859 58.1214 66.374 58.1214C63.6521 58.1214 62.0909 56.4994 62.0909 53.6721V44.5994H59.0066V53.9201C59.0066 59.1626 62.9755 61.023 66.374 61.023C69.7656 61.023 73.7254 59.1626 73.7254 53.9201V44.5994H70.6421V53.6721Z" fill="#191919"/>
<path d="M91.5592 50.0667C91.4719 49.4246 91.3062 48.7684 91.0633 48.0978C90.8203 47.4271 90.4679 46.8071 90.0061 46.2383C89.5442 45.6701 88.9438 45.2107 88.2059 44.8603C87.4669 44.5105 86.5523 44.3357 85.4639 44.3357C84.0443 44.3357 82.8344 44.642 81.8334 45.2544C81.2204 45.6291 80.696 46.0949 80.2582 46.6496V40.5371H77.5312V60.5079H80.6226V52.3122C80.6226 51.3789 80.727 50.5868 80.9358 49.9352C81.1457 49.2841 81.4318 48.759 81.7963 48.3604C82.1607 47.9618 82.5864 47.6726 83.0724 47.4929C83.5583 47.3127 84.0734 47.2228 84.6185 47.2228C85.4539 47.2228 86.1326 47.393 86.6527 47.7334C87.1728 48.0738 87.5764 48.5205 87.8625 49.0747C88.1496 49.6289 88.3444 50.2294 88.4459 50.876C88.5483 51.5226 88.5995 52.1515 88.5995 52.764V60.508H91.6908V51.758C91.6908 51.272 91.6466 50.7082 91.5592 50.0667Z" fill="#191919"/>
<path d="M97.5749 60.821C98.9477 60.821 100.061 59.7082 100.061 58.3354C100.061 56.9627 98.9477 55.8499 97.5749 55.8499C96.2022 55.8499 95.0894 56.9627 95.0894 58.3354C95.0894 59.7082 96.2022 60.821 97.5749 60.821Z" fill="#191919"/>
</g>
<defs>
<clipPath id="clip0_2377_7936">
<rect width="100" height="100" fill="white" transform="translate(0.0605469 0.780029)"/>
</clipPath>
</defs>
</svg>
