<svg width="101" height="101" viewBox="0 0 101 101" fill="none" xmlns="http://www.w3.org/2000/svg">
<g clip-path="url(#clip0_2377_7981)">
<path d="M15.6492 55.4521L12.3247 44.6464H9.70012L6.37472 55.4521L3.0796 44.6392H0.0605469L4.87288 60.3959H7.32264L11.0127 48.992L14.6873 60.3959H17.1371L21.9494 44.6464H18.9452L15.6492 55.4521Z" fill="white"/>
<path d="M43.3176 47.373H51.439L42.5002 59.9137V60.3958H55.8438V57.669H47.3569L56.2807 45.1423V44.6462H43.3176V47.373Z" fill="white"/>
<path d="M36.4281 46.3066C35.0777 44.8975 33.2353 44.156 31.0676 44.156C26.4803 44.156 23.0215 47.7579 23.0215 52.534C23.0215 57.3096 26.4803 60.911 31.0676 60.911C33.2303 60.911 35.0726 60.174 36.4281 58.7744V60.5807H39.5114V44.4874H36.4281V46.3066ZM31.3819 58.0094C28.3538 58.0094 26.1549 55.7067 26.1549 52.5341C26.1549 49.3714 28.3537 47.0758 31.3819 47.0758C34.4009 47.0758 36.5927 49.3714 36.5927 52.5341C36.5927 55.7067 34.401 58.0094 31.3819 58.0094Z" fill="white"/>
<path d="M70.6421 53.5603C70.6421 56.3876 69.0859 58.0096 66.374 58.0096C63.6521 58.0096 62.0909 56.3876 62.0909 53.5603V44.4875H59.0066V53.8083C59.0066 59.0508 62.9755 60.9112 66.374 60.9112C69.7656 60.9112 73.7254 59.0508 73.7254 53.8083V44.4875H70.6421V53.5603Z" fill="white"/>
<path d="M91.5592 49.9548C91.4719 49.3128 91.3062 48.6566 91.0633 47.986C90.8203 47.3153 90.4679 46.6953 90.0061 46.1265C89.5442 45.5583 88.9438 45.0989 88.2059 44.7485C87.4669 44.3986 86.5523 44.2239 85.4639 44.2239C84.0443 44.2239 82.8344 44.5302 81.8334 45.1426C81.2204 45.5173 80.696 45.983 80.2582 46.5378V40.4253H77.5312V60.3961H80.6226V52.2003C80.6226 51.2671 80.727 50.4749 80.9358 49.8234C81.1457 49.1722 81.4318 48.6471 81.7963 48.2485C82.1607 47.85 82.5864 47.5608 83.0724 47.3811C83.5583 47.2009 84.0734 47.111 84.6185 47.111C85.4539 47.111 86.1326 47.2812 86.6527 47.6216C87.1728 47.962 87.5764 48.4087 87.8625 48.9629C88.1496 49.5171 88.3444 50.1175 88.4459 50.7641C88.5483 51.4107 88.5995 52.0397 88.5995 52.6522V60.3962H91.6908V51.6461C91.6908 51.1602 91.6466 50.5964 91.5592 49.9548Z" fill="white"/>
<path d="M97.5749 60.7092C98.9477 60.7092 100.061 59.5964 100.061 58.2236C100.061 56.8509 98.9477 55.738 97.5749 55.738C96.2022 55.738 95.0894 56.8509 95.0894 58.2236C95.0894 59.5964 96.2022 60.7092 97.5749 60.7092Z" fill="white"/>
</g>
<defs>
<clipPath id="clip0_2377_7981">
<rect width="100" height="100" fill="white" transform="translate(0.0605469 0.668213)"/>
</clipPath>
</defs>
</svg>
