<svg width="101" height="101" viewBox="0 0 101 101" fill="none" xmlns="http://www.w3.org/2000/svg">
<g clip-path="url(#clip0_2358_6093)">
<path d="M11.7744 43.1748C11.9602 43.1547 12.1366 43.2194 12.3398 43.3975C12.5483 43.5802 12.7713 43.87 13.043 44.2734C13.5129 44.9712 14.1186 45.9944 15.0166 47.2734L15.4189 47.8369C15.6251 48.1198 15.9143 48.3438 16.2373 48.5439C16.5594 48.7435 16.9295 48.927 17.2979 49.1201C18.0417 49.5102 18.8016 49.9507 19.334 50.6924V50.6934C19.3726 50.7494 19.3771 50.8201 19.3496 50.8789L19.3115 50.9326L19.3096 50.9346L1.05566 69.6455C1.01156 69.6912 0.949793 69.7142 0.888672 69.709L0.828125 69.6943C0.749935 69.6625 0.69925 69.5862 0.699219 69.502C0.748422 65.9176 0.908779 61.9939 1.5293 58.4834C2.1313 55.0779 3.16237 52.0857 4.9209 50.166L5.09375 49.9834L11.6875 43.2236L11.6904 43.2207C11.7125 43.1967 11.742 43.1801 11.7744 43.1748Z" fill="#191919" stroke="#DADADA" stroke-width="0.3"/>
<path d="M19.6475 51.1012L19.7021 51.1393L19.7041 51.1412L38.415 69.3961C38.4748 69.4553 38.4927 69.5449 38.4609 69.6227C38.429 69.7004 38.353 69.7506 38.2686 69.7506C34.6848 69.7014 30.7619 69.5409 27.252 68.9205C23.8464 68.3185 20.8542 67.2875 18.9346 65.5289L18.752 65.3571L11.9922 58.7633L11.8877 58.8698L11.9922 58.7623L11.9883 58.7594L11.959 58.7203C11.9516 58.7063 11.9459 58.6913 11.9434 58.6754C11.9236 58.4899 11.9882 58.3139 12.166 58.111C12.3487 57.9025 12.6386 57.6795 13.042 57.4078C13.7398 56.9379 14.763 56.3322 16.042 55.4342L16.6055 55.0319C16.8883 54.8257 17.1124 54.5364 17.3125 54.2135C17.5121 53.8914 17.6955 53.5213 17.8887 53.153C18.2788 52.409 18.719 51.6486 19.4609 51.1158L19.4619 51.1168C19.518 51.0781 19.5886 51.0737 19.6475 51.1012Z" fill="#191919" stroke="#DADADA" stroke-width="0.3"/>
<path d="M19.2998 51.1489C17.3911 55.1997 16.6535 58.2445 16.6562 60.5464C16.658 61.9938 16.9534 63.1458 17.4297 64.0669L11.9189 58.6919C11.6903 58.4685 11.6126 58.0848 11.7656 57.5435C11.9181 57.0044 12.2932 56.3405 12.917 55.6099C14.1159 54.2059 16.2108 52.5808 19.2998 51.1489Z" fill="#191919" stroke="#DADADA" stroke-width="0.3"/>
<path d="M38.3945 31.9877C38.4533 32.0115 38.4975 32.0607 38.5156 32.1195L38.5244 32.181C38.4752 35.7651 38.3148 39.6884 37.6943 43.1986C37.0923 46.6042 36.0613 49.5964 34.3027 51.516L34.1299 51.6986L27.5361 58.4584L27.5332 58.4613C27.5112 58.4853 27.4814 58.5011 27.4492 58.5062C27.2636 58.5264 27.0879 58.4624 26.8848 58.2845C26.6762 58.1018 26.4525 57.8112 26.1807 57.4076C25.7107 56.7098 25.1049 55.6873 24.207 54.4086L23.8037 53.8451C23.5973 53.5622 23.3084 53.3373 22.9854 53.1371C22.6633 52.9376 22.2939 52.754 21.9258 52.5609C21.2278 52.1948 20.5155 51.7848 19.9902 51.1224L19.8877 50.9857C19.8506 50.9302 19.8469 50.861 19.874 50.8031L19.9121 50.7494L19.9141 50.7465L38.167 32.0365V32.0355C38.2112 31.99 38.2729 31.9679 38.334 31.973L38.3945 31.9877Z" fill="#191919" stroke="#DADADA" stroke-width="0.3"/>
<path d="M19.9219 51.1509C23.9733 53.0597 27.0182 53.7981 29.3203 53.7954C30.768 53.7937 31.9197 53.4975 32.8408 53.021L27.4648 58.5327C27.2414 58.7615 26.8578 58.84 26.3164 58.687C25.7773 58.5345 25.1126 58.1587 24.3818 57.5347C22.9777 56.3356 21.3538 54.2403 19.9219 51.1509Z" fill="#191919" stroke="#DADADA" stroke-width="0.3"/>
<path d="M0.948242 31.9283C4.53277 31.9776 8.45705 32.1378 11.9678 32.7584C15.3734 33.3604 18.3655 34.3914 20.2852 36.15L20.4678 36.3229L27.2275 42.9166L27.2305 42.9196C27.2544 42.9417 27.27 42.9713 27.2754 43.0035C27.2955 43.1894 27.2318 43.3657 27.0537 43.569C26.871 43.7775 26.5804 44.0003 26.1768 44.2721C25.479 44.7419 24.4565 45.3479 23.1777 46.2457L22.6143 46.6481C22.3313 46.8543 22.1064 47.1433 21.9062 47.4664C21.7067 47.7885 21.5232 48.1587 21.3301 48.527C20.94 49.2708 20.4997 50.0304 19.7578 50.5631C19.7018 50.6017 19.631 50.6061 19.5723 50.5787L19.5186 50.5406L19.5166 50.5387L0.805664 32.2858L0.804688 32.2848L0.766602 32.236C0.746716 32.2 0.737713 32.1588 0.741211 32.1178L0.755859 32.0573C0.787639 31.9791 0.863868 31.9284 0.948242 31.9283Z" fill="#191919" stroke="#DADADA" stroke-width="0.3"/>
<path d="M27.3057 42.99C27.5345 43.2132 27.6131 43.5969 27.46 44.1384C27.3075 44.6775 26.9316 45.3413 26.3076 46.072C25.1086 47.4762 23.0132 49.1 19.9238 50.532C21.8324 46.481 22.5711 43.4364 22.5684 41.1345C22.5666 39.6864 22.2707 38.5343 21.7939 37.613L27.3057 42.99Z" fill="#191919" stroke="#DADADA" stroke-width="0.3"/>
<path d="M11.7617 43.1492C11.9851 42.9205 12.3688 42.8428 12.9102 42.9958C13.4493 43.1484 14.114 43.5232 14.8447 44.1472C16.2486 45.3461 17.8719 47.4413 19.3037 50.53C15.253 48.6217 12.2081 47.8838 9.90625 47.8865C8.45785 47.8882 7.30512 48.184 6.38379 48.6609L11.7617 43.1492Z" fill="#191919" stroke="#DADADA" stroke-width="0.3"/>
<path d="M19.6119 51.6535C20.0625 51.6535 20.4278 51.2882 20.4278 50.8376C20.4278 50.3869 20.0625 50.0216 19.6119 50.0216C19.1612 50.0216 18.7959 50.3869 18.7959 50.8376C18.7959 51.2882 19.1612 51.6535 19.6119 51.6535Z" fill="#E4E4E4"/>
<path d="M43.758 44.2141C43.679 44.2121 43.6156 44.1485 43.6136 44.0696C43.6123 44.0429 43.6147 44.0161 43.6207 43.99L45.4119 39.3183C45.4422 39.2178 45.5384 39.1518 45.6431 39.1596H46.1339C46.2385 39.1523 46.3344 39.2181 46.3651 39.3183L48.1486 43.99L48.1629 44.0696C48.1612 44.1487 48.0975 44.2124 48.0184 44.2141H47.6507C47.6066 44.2168 47.563 44.2041 47.5276 44.1778C47.5019 44.1537 47.4823 44.124 47.4699 44.091L47.073 43.0659H44.7048L44.3078 44.091C44.2944 44.1252 44.272 44.1551 44.243 44.1778C44.2101 44.2032 44.1693 44.2161 44.1278 44.2141H43.758ZM46.8632 42.4448L45.8885 39.8817L44.9139 42.4448H46.8632ZM49.0145 45.5857C48.9684 45.5864 48.9242 45.5681 48.892 45.5351C48.8624 45.5043 48.8467 45.4626 48.8486 45.4198V40.6277C48.8467 40.585 48.8624 40.5433 48.892 40.5125C48.9242 40.4795 48.9684 40.4612 49.0145 40.4619H49.3466C49.4365 40.4659 49.5085 40.5378 49.5125 40.6277V40.945C49.7877 40.5715 50.233 40.3625 50.6962 40.3894C51.1287 40.3577 51.5503 40.5348 51.8301 40.866C52.0983 41.22 52.243 41.6523 52.2421 42.0964C52.2467 42.1491 52.2492 42.2309 52.2492 42.3418C52.2492 42.4528 52.2467 42.5346 52.2421 42.5873C52.2414 43.0312 52.097 43.4629 51.8301 43.8177C51.5491 44.1473 51.1283 44.3241 50.6962 44.2944C50.2414 44.3156 49.8048 44.1135 49.5267 43.753V45.4282C49.5286 45.471 49.5129 45.5127 49.4833 45.5435C49.4545 45.5773 49.4117 45.5959 49.3674 45.5941L49.0145 45.5857ZM50.5454 43.7012C50.8309 43.7262 51.1101 43.6069 51.2894 43.3832C51.4591 43.1369 51.5494 42.8448 51.5484 42.5459C51.5532 42.4979 51.5556 42.4282 51.5556 42.3367C51.5556 41.427 51.2184 40.9723 50.5441 40.9723C50.2545 40.9531 49.974 41.0773 49.7934 41.3045C49.6269 41.53 49.5339 41.8013 49.5267 42.0815L49.5189 42.3561L49.5267 42.6378C49.5317 42.9097 49.6284 43.1719 49.8013 43.3819C49.9852 43.5991 50.2611 43.7174 50.5454 43.7012ZM54.1899 44.284C53.9628 44.286 53.7381 44.2366 53.5326 44.1396C53.3414 44.0526 53.1752 43.919 53.0489 43.751C52.935 43.588 52.8744 43.3936 52.8754 43.1947C52.871 42.888 53.0159 42.5982 53.2639 42.4177C53.5783 42.1913 53.9469 42.0519 54.3324 42.0135L55.408 41.862V41.6528C55.408 41.1619 55.1274 40.9165 54.5662 40.9165C54.3837 40.9091 54.203 40.9569 54.0481 41.0538C53.923 41.1309 53.8189 41.2377 53.745 41.3647C53.7352 41.4008 53.7152 41.4333 53.6874 41.4585C53.6637 41.4797 53.6324 41.4902 53.6007 41.4877H53.2898C53.2469 41.4907 53.2048 41.4748 53.1744 41.4444C53.144 41.4141 53.1282 41.3719 53.1311 41.3291C53.1464 41.1871 53.2014 41.0525 53.2898 40.9404C53.4165 40.7745 53.5829 40.643 53.7736 40.5578C54.0239 40.4398 54.2987 40.383 54.5753 40.392C55.0003 40.3504 55.4232 40.4893 55.7409 40.7747C55.9784 41.0286 56.1058 41.3662 56.0952 41.7137V44.0534C56.0961 44.0997 56.0778 44.1443 56.0446 44.1765C56.0138 44.2062 55.9721 44.222 55.9294 44.2198H55.5972C55.5518 44.2248 55.5067 44.209 55.4743 44.1767C55.442 44.1446 55.4259 44.0995 55.4307 44.0541V43.7439C55.3108 43.9094 55.1521 44.0428 54.9684 44.1325C54.7249 44.246 54.4582 44.2968 54.1899 44.284ZM54.3414 43.7426C54.6279 43.7531 54.9056 43.6429 55.107 43.4389C55.3224 43.1952 55.4315 42.8756 55.4101 42.5511V42.349L54.5727 42.472C54.3005 42.497 54.0369 42.5808 53.8002 42.7175C53.6429 42.8022 53.5439 42.9651 53.5411 43.1435C53.535 43.3246 53.6258 43.495 53.7794 43.5911C53.9478 43.6953 54.1435 43.7467 54.3414 43.7426ZM58.6434 44.284C58.1972 44.3093 57.7597 44.153 57.4305 43.8508C57.1244 43.515 56.9589 43.0746 56.9681 42.6203L56.961 42.3315L56.9681 42.0427C56.9589 41.5914 57.1245 41.154 57.4305 40.822C57.7575 40.5155 58.1959 40.3564 58.6434 40.3816C58.9478 40.3724 59.25 40.4367 59.5241 40.5694C59.7402 40.6732 59.9247 40.8328 60.0584 41.0318C60.1712 41.1941 60.2384 41.3837 60.2526 41.581C60.2586 41.6243 60.2422 41.6676 60.2092 41.6962C60.1751 41.7255 60.1311 41.7409 60.0862 41.7396H59.7398C59.7012 41.7425 59.6629 41.7321 59.6309 41.7104C59.5984 41.6781 59.5738 41.6386 59.5591 41.5952C59.5015 41.3976 59.3795 41.2248 59.2126 41.1044C59.0445 40.9979 58.8481 40.945 58.6492 40.9528C58.3825 40.9412 58.1235 41.0436 57.9369 41.2345C57.7443 41.4718 57.6442 41.7709 57.6552 42.0764L57.648 42.3353L57.6552 42.5809C57.6427 42.8897 57.7428 43.1925 57.9369 43.433C58.1245 43.6216 58.3836 43.7214 58.6492 43.7076C58.8471 43.7151 59.0428 43.6649 59.2126 43.5632C59.3786 43.4386 59.5001 43.2641 59.5591 43.0652C59.5738 43.0217 59.5984 42.9823 59.6309 42.9499C59.6608 42.9238 59.7001 42.9107 59.7398 42.9136H60.0862C60.1324 42.9128 60.177 42.9311 60.2092 42.9642C60.2422 42.9929 60.2586 43.0362 60.2526 43.0795C60.2368 43.2761 60.1698 43.4651 60.0584 43.628C59.9247 43.8269 59.7402 43.9865 59.5241 44.0904C59.2508 44.2268 58.9488 44.2921 58.6434 44.284ZM61.2842 44.2114C61.2389 44.2164 61.1937 44.2006 61.1614 44.1683C61.1291 44.1362 61.1131 44.0911 61.1178 44.0457V39.2535C61.1159 39.2108 61.1316 39.1692 61.1613 39.1383C61.1935 39.1052 61.2381 39.0869 61.2842 39.0877H61.645C61.7352 39.0911 61.8077 39.1633 61.8114 39.2535V40.9373C61.942 40.7668 62.1099 40.6285 62.3023 40.5332C62.521 40.4301 62.7613 40.3806 63.003 40.3887C63.411 40.3659 63.8072 40.5307 64.0786 40.8362C64.3507 41.1663 64.4894 41.5863 64.4671 42.0135V44.0496C64.4682 44.0958 64.4499 44.1404 64.4166 44.1726C64.3858 44.2023 64.3441 44.218 64.3014 44.216H63.9406C63.8954 44.2208 63.8504 44.2048 63.8183 44.1726C63.786 44.1405 63.7701 44.0955 63.7749 44.0502V42.0466C63.7931 41.7594 63.703 41.4759 63.5223 41.2519C63.3388 41.0565 63.0775 40.9531 62.81 40.9702C62.5369 40.9582 62.2716 41.0633 62.0808 41.2591C61.8925 41.4765 61.7968 41.7589 61.814 42.0459V44.0457C61.815 44.0919 61.7967 44.1365 61.7635 44.1688C61.7326 44.1984 61.6909 44.2142 61.6482 44.2121L61.2842 44.2114ZM67.0128 44.284C66.5699 44.3048 66.1383 44.1407 65.8213 43.8307C65.5123 43.4848 65.3403 43.0381 65.3375 42.5744L65.3304 42.329L65.3375 42.0906C65.3466 41.6311 65.5208 41.1901 65.8284 40.8485C66.5181 40.2149 67.5845 40.2371 68.2471 40.8991C68.5579 41.2866 68.7147 41.7752 68.6875 42.2713V42.3943C68.6883 42.4403 68.67 42.4847 68.6369 42.5167C68.6061 42.5464 68.5645 42.562 68.5217 42.5601H66.0233V42.6249C66.0296 42.9152 66.1283 43.1961 66.305 43.4266C66.4744 43.6386 66.7337 43.7585 67.005 43.7503C67.194 43.7586 67.3816 43.7138 67.5464 43.6209C67.6697 43.5485 67.7777 43.4528 67.8644 43.3392C67.8894 43.3001 67.9212 43.266 67.9583 43.2381C67.9969 43.2209 68.0392 43.2135 68.0813 43.2167H68.4355C68.4748 43.2155 68.5132 43.2283 68.5437 43.253C68.5731 43.2781 68.5892 43.3155 68.5871 43.3541C68.5669 43.5014 68.4954 43.6369 68.385 43.7367C68.229 43.904 68.0395 44.0364 67.8287 44.1254C67.5713 44.2362 67.2931 44.289 67.0128 44.284ZM68.0017 42.0601V42.0389C68.0147 41.7443 67.9167 41.4557 67.7271 41.2299C67.5416 41.0275 67.2797 40.9121 67.005 40.9121C66.7304 40.9121 66.4685 41.0275 66.283 41.2299C66.1026 41.4598 66.0105 41.7468 66.0239 42.0389V42.0601H68.0017Z" fill="#191919"/>
<path d="M42.2567 61.1734C42.056 61.1686 41.8943 61.007 41.8895 60.8062C41.8863 60.7384 41.8925 60.6704 41.9077 60.6042L46.4576 48.7352C46.5349 48.4802 46.7786 48.3127 47.0443 48.3317H48.2915C48.5575 48.3127 48.8013 48.4801 48.879 48.7352L53.4121 60.6042L53.449 60.8062C53.4436 61.0067 53.2823 61.1679 53.0818 61.1734H52.146C52.0344 61.1804 51.9239 61.1478 51.8339 61.0814C51.7689 61.0203 51.7188 60.9448 51.6875 60.8612L50.6786 58.256H44.6612L43.6523 60.8612C43.6181 60.9481 43.561 61.0243 43.4872 61.0814C43.4033 61.1459 43.2994 61.1785 43.1938 61.1734H42.2567ZM50.145 56.6792L47.6686 50.167L45.1929 56.6784L50.145 56.6792ZM55.4449 49.8549C55.3296 49.8672 55.215 49.8269 55.133 49.745C55.0509 49.6631 55.0104 49.5485 55.0226 49.4333V48.4424C55.0196 48.3284 55.0587 48.2172 55.1326 48.1303C55.2143 48.0459 55.3273 47.9989 55.4449 48.0009H56.6007C56.7177 48.0003 56.83 48.0465 56.9127 48.1293C56.9954 48.2119 57.0417 48.3243 57.0412 48.4412V49.432C57.0429 49.5493 56.9959 49.662 56.9116 49.7435C56.8249 49.8173 56.7139 49.8566 56.6001 49.8536L55.4449 49.8549ZM55.5918 61.174C55.4766 61.1862 55.3619 61.1457 55.28 61.0637C55.198 60.9818 55.1574 60.8671 55.1696 60.7518V52.056C55.1643 51.9473 55.2042 51.8411 55.2797 51.7627C55.3614 51.6782 55.4743 51.6313 55.5918 51.6331H56.4719C56.701 51.642 56.8849 51.8256 56.8941 52.0547V60.7498C56.896 60.8674 56.8491 60.9804 56.7646 61.062C56.686 61.1374 56.58 61.1772 56.4713 61.1721L55.5918 61.174ZM60.0349 61.174C59.9197 61.1862 59.8051 61.1457 59.7232 61.0637C59.6414 60.9817 59.601 60.8671 59.6133 60.7518V52.0742C59.6105 51.9603 59.6497 51.8494 59.7234 51.7627C59.8051 51.6782 59.9181 51.6313 60.0355 51.6331H60.8774C60.9944 51.6327 61.1067 51.6788 61.1894 51.7615C61.272 51.8443 61.3183 51.9565 61.3178 52.0735V52.8804C61.8749 52.019 62.8646 51.5383 63.8861 51.6331H64.5984C64.8274 51.6424 65.0108 51.8259 65.02 52.0547V52.8066C65.0242 52.9191 64.9764 53.0273 64.8906 53.0999C64.812 53.1753 64.7059 53.2151 64.5971 53.21H63.4963C62.9171 53.179 62.3516 53.392 61.9369 53.7974C61.5417 54.2174 61.336 54.781 61.3677 55.3567V60.7498C61.3695 60.8674 61.3226 60.9804 61.2381 61.062C61.1512 61.1358 61.04 61.1751 60.926 61.1721L60.0349 61.174ZM67.9575 61.174C67.8423 61.186 67.7279 61.1454 67.6461 61.0634C67.5643 60.9814 67.5238 60.867 67.5359 60.7518V53.1012H65.9765C65.8614 53.1134 65.7469 53.0729 65.6651 52.9911C65.5832 52.9092 65.5428 52.7948 65.5549 52.6796V52.056C65.5497 51.9473 65.5895 51.8411 65.665 51.7627C65.7464 51.6782 65.8593 51.6313 65.9765 51.6331H67.5359V50.7155C67.5359 48.6363 68.5876 47.5969 70.6909 47.5973H71.718C71.9472 47.6063 72.131 47.7899 72.1403 48.0189V48.6426C72.142 48.7599 72.0951 48.8726 72.0107 48.954C71.9322 49.0295 71.8261 49.0693 71.7174 49.0642H70.7272C70.2936 49.0171 69.8637 49.1809 69.5713 49.5046C69.3217 49.8909 69.2058 50.3483 69.241 50.8068V51.6325H73.1667V48.0202C73.1615 47.9115 73.2014 47.8054 73.2768 47.7269C73.3585 47.6424 73.4714 47.5955 73.5889 47.5973H74.4308C74.6599 47.6063 74.8437 47.7899 74.8531 48.0189V60.7498C74.855 60.8674 74.808 60.9804 74.7235 61.062C74.6447 61.1375 74.5385 61.1774 74.4294 61.1721H73.5876C73.4723 61.1845 73.3575 61.144 73.2755 61.062C73.1935 60.98 73.1529 60.8652 73.1654 60.7498V53.1012H69.2397V60.7511C69.2415 60.8687 69.1946 60.9815 69.1101 61.0633C69.0314 61.1388 68.9251 61.1786 68.8162 61.1734L67.9575 61.174ZM81.492 61.3573C80.3341 61.4274 79.1988 61.0156 78.3551 60.2195C77.5947 59.3956 77.1751 58.3139 77.181 57.1927L77.1623 56.4039L77.181 55.6151C77.1777 54.4964 77.6045 53.4193 78.3733 52.6065C80.1667 51.0654 82.8168 51.0654 84.6102 52.6065C85.3786 53.4194 85.8054 54.4965 85.8023 55.6151C85.8145 55.7494 85.8205 56.0124 85.8205 56.4039C85.8205 56.7955 85.8145 57.0584 85.8023 57.1927C85.8078 58.3172 85.381 59.4007 84.6102 60.2195C83.7742 61.0178 82.6456 61.4308 81.492 61.3573ZM81.492 59.9449C82.1751 59.9796 82.8386 59.7111 83.3053 59.2112C83.7959 58.6192 84.0564 57.87 84.039 57.1013C84.0511 56.9792 84.0571 56.747 84.0571 56.4046C84.0571 56.0622 84.0511 55.8299 84.039 55.7078C84.0564 54.9391 83.7959 54.1899 83.3053 53.5979C82.8386 53.098 82.1751 52.8295 81.492 52.8642C80.8031 52.831 80.1336 53.0987 79.6574 53.5979C79.1692 54.19 78.9157 54.9409 78.9451 55.7078L78.927 56.4046L78.9451 57.1013C78.9157 57.8682 79.1692 58.6191 79.6574 59.2112C80.133 59.7092 80.8041 59.9773 81.492 59.9449ZM90.3996 61.1754C90.2681 61.1839 90.138 61.1448 90.0331 61.0653C89.9324 60.9688 89.8568 60.8492 89.8129 60.7169L87.2077 52.2049L87.1714 52.0217C87.1684 51.9186 87.2083 51.8191 87.2815 51.7465C87.3565 51.6771 87.4545 51.638 87.5567 51.6364H88.3636C88.4724 51.6312 88.5784 51.6711 88.6569 51.7465C88.7321 51.7945 88.79 51.8653 88.822 51.9485L90.8588 58.8641L93.0417 52.0217C93.0678 51.9199 93.1257 51.8292 93.2068 51.7627C93.3003 51.6734 93.4263 51.6266 93.5553 51.6331H94.1789C94.3081 51.6266 94.4343 51.6734 94.5279 51.7627C94.6092 51.8292 94.6671 51.9199 94.6931 52.0217L96.8761 58.8641L98.9121 51.9485C98.935 51.8701 98.98 51.7999 99.0417 51.7465C99.1286 51.6726 99.2397 51.6333 99.3538 51.6364H100.179C100.277 51.6353 100.371 51.6752 100.438 51.7465C100.512 51.8191 100.551 51.9187 100.549 52.0217L100.512 52.2049L97.9252 60.7169C97.8812 60.8492 97.8057 60.9688 97.7051 61.0653C97.5927 61.1471 97.455 61.1861 97.3164 61.1754H96.6041C96.3133 61.2052 96.0488 61.005 95.9987 60.7169L93.8707 54.1497L91.7427 60.7169C91.674 61.001 91.4108 61.1945 91.1191 61.1754H90.3996Z" fill="#191919"/>
</g>
<defs>
<clipPath id="clip0_2358_6093">
<rect width="100" height="100" fill="white" transform="translate(0.548828 0.8396)"/>
</clipPath>
</defs>
</svg>
