<svg width="101" height="101" viewBox="0 0 101 101" fill="none" xmlns="http://www.w3.org/2000/svg">
<g clip-path="url(#clip0_2358_6119)">
<path d="M50.7273 15.8396C51.8092 15.8221 51.8092 15.8221 52.1233 15.9796C52.4171 15.9674 52.7109 15.9522 53.0045 15.9358C55.0748 15.886 57.1514 16.7178 58.9638 17.6596C59.2429 17.7997 59.5221 17.9397 59.8014 18.0796C59.8935 17.941 59.9856 17.8024 60.0806 17.6596C60.7303 18.0899 61.0826 18.3823 61.4766 19.0596C61.5658 19.0769 61.6551 19.0942 61.747 19.1121C62.121 19.2257 62.1604 19.3633 62.3491 19.6983C62.47 19.9365 62.47 19.9365 62.5934 20.1796C62.7201 20.0698 62.8468 19.9601 62.9773 19.8471C63.5963 19.335 63.9988 19.1273 64.827 19.1996C64.9191 19.292 65.0113 19.3844 65.1062 19.4796C65.0689 20.2035 64.9153 20.7857 64.6454 21.4538C64.5125 21.8155 64.4557 22.1782 64.4082 22.5596C64.5118 22.4859 64.5118 22.4859 64.6176 22.4108C65.1379 22.2151 65.5387 22.3285 66.0834 22.4196C66.0834 22.9796 66.0834 22.9796 65.874 23.2683C65.2474 24.4989 65.8203 25.9048 66.2099 27.1331C66.2603 27.287 66.3107 27.441 66.3626 27.5996C66.4384 27.5272 66.5141 27.4548 66.5922 27.3803C66.6921 27.2881 66.7919 27.1958 66.8948 27.1008C66.9936 27.0082 67.0924 26.9157 67.1942 26.8203C67.2883 26.754 67.3824 26.6878 67.4794 26.6196C67.6176 26.6658 67.7558 26.712 67.8982 26.7596C68.0023 27.6184 68.0566 28.4146 67.932 29.2725C67.886 29.5941 67.886 29.5941 67.9244 30.0583C67.8866 30.7524 67.6497 31.3723 67.131 31.8532C67.0227 31.9436 67.0227 31.9436 66.9123 32.0358C66.2732 32.615 66.2207 33.5057 66.0834 34.3196C66.2187 34.3225 66.3541 34.3253 66.4935 34.3283C67.635 34.4945 68.7317 35.6984 69.4338 36.5596C69.5008 36.7453 69.5008 36.7453 69.5691 36.9347C69.6771 37.2798 69.6771 37.2798 69.971 37.3646C70.073 37.3761 70.175 37.3877 70.2802 37.3996C71.5547 37.6211 72.685 38.3931 73.461 39.4214C74.3376 40.7335 74.7382 42.0264 74.9969 43.5712C75.0979 44.1525 75.2428 44.6755 75.4629 45.2221C75.8768 46.3016 75.8296 47.1329 75.428 48.2146C75.0284 49.0889 74.5908 49.6299 73.6988 50.0023C73.3958 50.1068 73.0943 50.1992 72.7843 50.2796C72.7843 50.372 72.7843 50.4644 72.7843 50.5596C72.8822 50.5827 72.9801 50.6058 73.0809 50.6296C73.7838 50.9973 74.3179 51.7779 74.5991 52.5196C74.601 52.8143 74.5912 53.1092 74.5729 53.4033C74.5594 54.1617 74.6272 54.5133 75.1139 55.0789C75.8792 56.084 75.8221 57.5487 75.6734 58.7403C75.6586 58.8386 75.6438 58.937 75.6286 59.0383C75.5226 59.5361 75.5226 59.5361 75.8555 59.9396C76.0232 61.1026 75.8433 62.0651 75.1575 63.0196C74.4131 63.869 73.5884 64.3874 72.5051 64.6996C72.4129 64.6996 72.3208 64.6996 72.2259 64.6996C72.2345 64.9248 72.2345 64.9248 72.2433 65.1546C72.2273 65.6356 72.2161 65.8556 71.9467 66.2396C71.4285 66.586 71.0113 66.5803 70.411 66.5196C70.0187 66.3783 69.8991 66.3328 69.713 65.9596C69.431 65.8583 69.431 65.8583 69.1023 65.7758C68.6506 65.6327 68.4896 65.5789 68.1774 65.2071C68.0378 64.8396 68.0378 64.8396 68.0029 64.4896C67.8381 63.9387 67.3939 63.7306 66.921 63.4396C66.9005 63.6093 66.9005 63.6093 66.8796 63.7825C66.6637 65.3295 66.6637 65.3295 66.0834 65.8196C65.2268 66.3357 64.5192 66.5364 63.5181 66.5402C63.3348 66.5412 63.1515 66.5422 62.9627 66.5432C62.7597 66.5436 62.5567 66.544 62.3537 66.5444C62.1397 66.5452 61.9257 66.5462 61.7117 66.5471C61.0082 66.5501 60.3047 66.5515 59.6012 66.5529C59.3581 66.5535 59.1149 66.5541 58.8718 66.5547C57.7274 66.5573 56.583 66.5593 55.4386 66.5605C54.124 66.5618 52.8095 66.5655 51.4949 66.5712C50.4754 66.5754 49.4559 66.5775 48.4363 66.578C47.8293 66.5783 47.2223 66.5795 46.6152 66.5831C41.229 66.613 36.2493 65.8255 32.0207 62.1796C31.8967 62.0762 31.7728 61.9728 31.645 61.8662C30.7769 61.1179 30.0673 60.2858 29.3683 59.3796C29.2131 59.1876 29.2131 59.1876 29.0548 58.9918C27.8785 57.4974 26.9969 55.8529 26.3843 54.0508C26.3527 53.9587 26.3211 53.8665 26.2885 53.7716C25.7157 51.9671 25.5221 50.1589 25.538 48.2758C25.5382 48.1761 25.5384 48.0763 25.5386 47.9736C25.5444 46.352 25.7222 44.8434 26.1575 43.2796C26.2723 42.7957 26.3025 42.3843 26.2796 41.8883C26.2688 40.5509 26.5089 39.2112 27.2743 38.0996C27.3664 38.0996 27.4586 38.0996 27.5535 38.0996C27.5996 38.6078 27.6456 39.116 27.6931 39.6396C27.7591 39.5261 27.8252 39.4125 27.8932 39.2956C29.042 37.3666 30.4745 35.782 32.1046 34.2495C32.3883 33.9446 32.4874 33.6059 32.6315 33.2171C32.9015 32.5384 33.1311 32.1159 33.6959 31.6596C33.742 31.6134 33.7881 31.5672 33.8355 31.5196C34.0681 31.5139 34.301 31.5136 34.5336 31.5196C34.6819 31.8521 34.6819 31.8521 34.8128 32.2196C34.7667 32.312 34.7206 32.4044 34.6732 32.4996C34.7529 32.4595 34.8326 32.4195 34.9147 32.3782C36.6337 31.5202 38.3508 30.7435 40.1689 30.1188C40.3691 30.048 40.3691 30.048 40.5735 29.9757C40.6912 29.9357 40.809 29.8956 40.9303 29.8544C41.4405 29.5947 41.6157 29.2524 41.7928 28.7196C41.8936 27.6778 41.6889 26.7682 41.374 25.7796C41.9781 25.7943 42.2939 25.9468 42.7177 26.3571C43.1549 26.8267 43.4568 27.3087 43.7472 27.8796C44.1645 27.0928 44.2683 26.5079 44.0264 25.6396C43.5784 24.6221 42.8116 23.8399 41.7841 23.4171C41.4095 23.2904 41.178 23.2596 40.772 23.2596C40.3968 23.2596 40.3968 23.2596 40.1661 23.0835C39.978 22.8396 39.978 22.8396 39.9431 22.2971C40.1409 20.9754 41.28 19.7178 42.2716 18.8966C44.7232 17.1404 47.6987 16.0663 50.7273 16.1196C50.7273 16.0272 50.7273 15.9348 50.7273 15.8396ZM48.2145 17.6596C48.2922 17.6971 48.3699 17.7346 48.45 17.7733C49.4303 18.2781 49.4303 18.2781 49.6105 18.6396C49.5324 18.6347 49.4543 18.6298 49.3738 18.6248C46.7411 18.5357 44.1949 19.7472 42.2116 21.4396C42.0023 21.7109 41.8301 21.9847 41.6532 22.2796C41.7596 22.3171 41.8659 22.3546 41.9755 22.3933C43.3748 22.9259 44.478 23.647 45.1531 25.0265C45.8422 26.7948 45.8317 29.1953 45.188 30.9694C44.562 32.3623 43.7756 33.4612 42.3485 34.0833C41.9796 34.2201 41.611 34.3459 41.2344 34.4596C41.2985 34.3731 41.3625 34.2867 41.4285 34.1976C42.2802 33.0187 42.9359 31.9175 42.9183 30.4346C42.9171 30.2967 42.9158 30.1588 42.9145 30.0168C42.9129 29.9121 42.9113 29.8074 42.9096 29.6996C42.7073 29.9559 42.518 30.2113 42.3576 30.4963C41.839 31.41 41.1233 32.0749 40.3706 32.7971C37.8903 35.2267 36.134 37.878 36.0692 41.4596C36.1085 41.6942 36.1528 41.9283 36.2088 42.1596C36.3783 42.1103 36.5478 42.061 36.7225 42.0103C36.9642 41.9404 37.2059 41.8706 37.4477 41.8008C37.5773 41.7634 37.7068 41.7259 37.8403 41.6874C38.5863 41.4734 39.3336 41.2669 40.0843 41.0702C40.2423 41.0286 40.4002 40.987 40.5629 40.9442C40.8685 40.8641 41.1744 40.785 41.4805 40.707C43.8547 40.0833 46.1837 39.0065 47.5165 36.8396C47.7576 36.3313 47.9353 35.8702 47.9353 35.2996C48.0274 35.2996 48.1195 35.2996 48.2145 35.2996C48.3912 35.841 48.3697 36.382 48.3628 36.9446C48.3622 37.0422 48.3615 37.1398 48.3609 37.2404C48.3592 37.4801 48.3567 37.7199 48.3541 37.9596C49.5816 37.0424 50.1284 35.8055 50.4481 34.3196C50.4481 34.1348 50.4481 33.95 50.4481 33.7596C50.8053 34.0711 50.9203 34.2762 51.0065 34.7396C51.0688 35.6756 50.9973 36.5027 50.7273 37.3996C51.8826 36.9372 52.6152 35.551 53.118 34.4727C53.5005 33.5548 53.54 32.4603 53.2488 31.5021C52.473 29.7577 50.6116 28.615 48.9697 27.8123C48.5752 27.5628 48.3469 27.2762 48.0749 26.8996C53.091 28.4527 53.091 28.4527 54.4267 30.7496C54.9423 31.8643 54.9981 33.1151 54.6628 34.2977C54.5327 34.6023 54.3911 34.8782 54.2173 35.1596C54.0748 35.3911 53.9339 35.6238 53.7985 35.8596C53.8446 35.952 53.8906 36.0444 53.9381 36.1396C55.8574 35.2013 57.3596 34.1125 58.161 32.0506C58.6808 30.4958 58.7049 29.3732 57.9865 27.8796C57.7326 27.482 57.4504 27.1215 57.1489 26.7596C57.0084 26.5736 56.8686 26.3871 56.7301 26.1996C56.9144 26.1534 57.0987 26.1072 57.2885 26.0596C56.8243 25.6346 56.5255 25.5925 55.9051 25.6133C55.7437 25.6166 55.5824 25.6198 55.4162 25.6232C55.0803 25.634 54.7444 25.6449 54.4084 25.656C53.3404 25.6773 52.4377 25.5673 51.4253 25.2196C51.4253 25.1272 51.4253 25.0348 51.4253 24.9396C51.6027 24.9418 51.6027 24.9418 51.7836 24.944C52.2254 24.9488 52.6672 24.9523 53.109 24.9549C53.2996 24.9563 53.4902 24.9583 53.6809 24.9607C53.956 24.9641 54.2312 24.9655 54.5063 24.9669C54.7542 24.9691 54.7542 24.9691 55.007 24.9714C55.4859 24.9387 55.865 24.8318 56.3113 24.6596C55.8676 23.6554 54.8932 23.1132 53.9556 22.6208C53.854 22.5671 53.7525 22.5134 53.6478 22.4581C51.7819 21.5092 49.8671 21.1345 47.7869 21.1421C47.6368 21.1415 47.4866 21.141 47.3319 21.1404C47.1867 21.1406 47.0416 21.1408 46.8921 21.141C46.7607 21.1411 46.6293 21.1413 46.494 21.1415C46.1236 21.1594 45.7834 21.2169 45.4224 21.2996C45.9364 20.6628 46.7385 20.4471 47.5165 20.3196C50.1122 20.1489 52.3559 20.3418 54.7261 21.4598C55.0688 21.6232 55.0688 21.6232 55.4737 21.4396C55.4737 21.301 55.4737 21.1624 55.4737 21.0196C55.5659 21.0196 55.658 21.0196 55.7529 21.0196C55.8911 21.2968 55.8911 21.2968 56.0321 21.5796C56.1703 21.5103 56.1703 21.5103 56.3113 21.4396C56.4495 21.7168 56.5877 21.994 56.7301 22.2796C56.8683 22.1872 57.0065 22.0948 57.1489 21.9996C57.2871 22.4154 57.2871 22.4154 57.4281 22.8396C57.6124 22.7934 57.7967 22.7472 57.9865 22.6996C57.9952 22.8151 58.0038 22.9306 58.0127 23.0496C58.1598 23.6848 58.4672 24.1232 58.8241 24.6596C58.9019 24.7982 58.9796 24.9368 59.0597 25.0796C59.1202 25.172 59.1807 25.2644 59.243 25.3596C59.3351 25.3596 59.4272 25.3596 59.5222 25.3596C59.7064 24.9438 59.8907 24.528 60.0806 24.0996C60.1266 24.0996 60.1727 24.0996 60.2202 24.0996C60.2662 24.6078 60.3123 25.116 60.3598 25.6396C60.544 25.5934 60.7283 25.5472 60.9182 25.4996C60.826 26.1464 60.7339 26.7932 60.639 27.4596C60.7772 27.3672 60.9154 27.2748 61.0578 27.1796C61.0578 27.0872 61.0578 26.9948 61.0578 26.8996C61.1499 26.8996 61.242 26.8996 61.337 26.8996C61.3422 26.7664 61.3422 26.7664 61.3476 26.6306C61.364 26.2186 61.381 25.8066 61.398 25.3946C61.4038 25.2467 61.4096 25.0989 61.4156 24.9466C61.4467 24.1976 61.4951 23.4612 61.59 22.7171C61.6818 21.761 61.2937 21.0944 60.7786 20.3196C60.6864 20.3196 60.5943 20.3196 60.4994 20.3196C60.2955 20.6902 60.2202 20.8648 60.2202 21.2996C60.128 21.2996 60.0359 21.2996 59.941 21.2996C59.9626 21.044 59.9626 21.044 59.9846 20.7833C59.9821 20.3079 59.9585 20.2033 59.6618 19.8033C58.6465 18.999 58.6465 18.999 57.4281 18.6396C57.4742 18.8706 57.5203 19.1016 57.5677 19.3396C57.1992 19.201 56.8306 19.0624 56.4509 18.9196C56.497 19.1044 56.5431 19.2892 56.5905 19.4796C56.0261 19.3509 55.7996 19.2624 55.4475 18.7883C55.364 18.6468 55.2805 18.5053 55.1945 18.3596C54.8915 17.9955 54.6807 17.8803 54.2157 17.8067C54.11 17.7891 54.0042 17.7715 53.8953 17.7534C53.7856 17.7368 53.6759 17.7203 53.5629 17.7033C53.4516 17.6852 53.3403 17.667 53.2257 17.6484C52.9515 17.6039 52.677 17.5615 52.4025 17.5196C52.2164 17.9396 52.2164 17.9396 52.4025 18.3596C52.3131 18.3224 52.2236 18.2852 52.1315 18.2469C50.7956 17.6998 49.6608 17.2969 48.2145 17.6596ZM63.431 20.7396C62.5434 22.6605 62.2531 24.5281 62.1746 26.6196C63.3729 25.5117 63.2694 23.7234 63.4 22.1919C63.4453 21.7061 63.5071 21.2233 63.5706 20.7396C63.5245 20.7396 63.4784 20.7396 63.431 20.7396ZM63.9894 25.3596C63.9185 25.5285 63.8476 25.6974 63.7745 25.8714C62.7785 28.2055 62.7785 28.2055 62.035 28.9996C61.9668 29.0748 61.8986 29.1501 61.8283 29.2276C61.6162 29.4196 61.6162 29.4196 61.1974 29.5596C61.2204 29.4239 61.2434 29.2881 61.2672 29.1483C61.3557 28.5383 61.3495 27.9347 61.337 27.3196C61.0414 27.8793 60.8458 28.4643 60.639 29.0614C60.4994 29.4196 60.4994 29.4196 60.2202 29.8396C60.2662 29.9782 60.3123 30.1168 60.3598 30.2596C60.9013 30.0394 61.442 29.8172 61.9826 29.5946C62.1354 29.5325 62.2882 29.4704 62.4456 29.4064C63.7989 28.9177 63.7989 28.9177 64.7397 27.9146C64.7685 27.8106 64.7973 27.7067 64.827 27.5996C64.7545 27.657 64.682 27.7143 64.6072 27.7735C64.0952 28.1703 63.6384 28.5233 63.0122 28.7196C63.0678 28.6533 63.1234 28.5871 63.1807 28.5189C63.7648 27.7877 64.2834 27.0145 64.262 26.0421C64.2258 25.7455 64.2258 25.7455 64.129 25.3596C64.0829 25.3596 64.0369 25.3596 63.9894 25.3596ZM63.1114 31.5578C63.0326 31.6376 62.9538 31.7174 62.8726 31.7996C63.4447 31.6023 63.9134 31.3109 64.4131 30.9765C64.6915 30.8172 64.9329 30.7418 65.2458 30.6796C64.7404 31.9236 63.2492 32.8786 62.1746 33.6196C62.2667 33.6658 62.3588 33.712 62.4538 33.7596C64.1286 33.0167 65.35 31.699 66.223 30.1196C66.2777 30.0209 66.3324 29.9221 66.3888 29.8204C66.5301 29.5428 66.5301 29.5428 66.5022 29.1396C65.2551 29.1396 63.9284 30.7442 63.1114 31.5578ZM60.7786 31.6596C59.5345 32.5051 59.5345 32.5051 58.5449 33.6196C58.5449 33.712 58.5449 33.8044 58.5449 33.8996C59.3501 33.8222 59.9917 33.5053 60.7088 33.1558C60.8245 33.101 60.9402 33.0463 61.0594 32.9898C61.7006 32.6816 62.2925 32.3522 62.8726 31.9396C62.7804 31.8934 62.6883 31.8472 62.5934 31.7996C62.4552 31.8689 62.4552 31.8689 62.3142 31.9396C62.0759 31.9494 61.8372 31.9514 61.5987 31.9483C61.4717 31.9471 61.3446 31.9458 61.2137 31.9445C61.1162 31.9429 61.0187 31.9412 60.9182 31.9396C60.8721 31.8472 60.826 31.7548 60.7786 31.6596ZM34.6732 34.4596C34.0235 35.2366 33.5802 36.0142 33.2771 36.9796C33.2771 36.3328 33.2771 35.686 33.2771 35.0196C32.9935 35.5884 32.8819 36.0989 32.7798 36.7171C32.7618 36.8239 32.7437 36.9308 32.7251 37.0409C32.5976 37.8119 32.4819 38.5786 32.4395 39.3596C32.4285 39.552 32.4285 39.552 32.4172 39.7484C32.3721 41.2432 32.505 42.8441 33.5563 43.9796C33.6485 43.9796 33.7406 43.9796 33.8355 43.9796C33.8255 43.8976 33.8154 43.8157 33.805 43.7313C33.5091 40.9861 33.5068 37.9641 35.092 35.5796C34.9651 37.3061 34.9651 37.3061 34.8738 38.1171C34.7544 39.2903 34.7997 40.4322 34.9524 41.5996C34.9984 41.5996 35.0445 41.5996 35.092 41.5996C35.101 41.518 35.11 41.4364 35.1193 41.3524C35.4671 38.3057 36.2405 35.5389 37.884 32.9196C36.6602 32.9196 35.52 33.6183 34.6732 34.4596ZM62.9947 34.7658C61.5552 35.5035 60.1412 35.9608 58.5311 36.1327C57.2985 36.2659 56.543 36.3801 55.6728 37.3334C53.3162 39.7424 49.4763 40.212 46.3449 40.8132C39.2455 41.8759 39.2455 41.8759 33.6436 45.8783C33.5183 46.0835 33.3959 46.2905 33.2771 46.4996C33.2029 46.6298 33.2029 46.6298 33.1272 46.7626C33.0816 46.8433 33.0361 46.924 32.9892 47.0071C32.7888 47.3571 32.5937 47.6519 32.3523 47.9696C31.7573 48.7958 31.6352 49.7052 31.7415 50.6996C31.8877 51.3663 32.0848 52.0124 32.2999 52.6596C32.3921 52.6596 32.4842 52.6596 32.5791 52.6596C32.6275 52.5074 32.6275 52.5074 32.6767 52.3522C32.9592 51.5125 33.2379 50.9289 33.8355 50.2796C33.8355 50.1872 33.8355 50.0948 33.8355 49.9996C33.9154 49.9615 33.9953 49.9234 34.0777 49.8842C34.398 49.7175 34.6865 49.5256 34.9873 49.3258C36.8614 48.2056 39.1522 47.9336 41.2665 47.5524C44.1243 47.0813 44.1243 47.0813 46.6788 45.7996C46.6788 45.7534 46.6788 45.7072 46.6788 45.6596C45.9168 45.6491 45.1549 45.6415 44.3928 45.6365C44.1343 45.6344 43.8759 45.6316 43.6175 45.6279C41.5666 45.5995 39.8058 45.7598 37.9276 46.6571C37.8111 46.7111 37.6947 46.7651 37.5746 46.8208C36.3622 47.3879 35.1664 47.9893 33.9751 48.5996C33.9291 48.5534 33.883 48.5072 33.8355 48.4596C37.4852 45.2492 41.7491 43.7392 46.609 44.0408C46.7197 44.0474 46.8304 44.054 46.9444 44.0608C47.0549 44.0674 47.1654 44.074 47.2792 44.0807C47.4979 44.0938 47.7166 44.1067 47.9353 44.1196C48.0366 44.1257 48.138 44.1318 48.2425 44.1381C50.1627 44.2398 51.936 43.8667 53.7985 43.4196C53.5682 43.2348 53.3378 43.05 53.1005 42.8596C53.281 42.856 53.4615 42.8523 53.6475 42.8486C56.8646 42.756 59.3892 41.7028 61.6423 39.3333C62.6376 38.1577 64.129 35.908 64.129 34.3196C63.6896 34.3196 63.3795 34.5597 62.9947 34.7658ZM33.2771 34.5996C33.4167 34.8796 33.4167 34.8796 33.4167 34.8796L33.2771 34.5996ZM66.223 34.8796C66.2293 36.1976 66.721 37.3166 67.2002 38.5196C67.4084 39.146 67.4218 39.768 67.2438 40.4008C66.9865 40.7081 66.7504 40.7186 66.3626 40.7596C66.4087 40.6729 66.4547 40.5863 66.5022 40.4971C66.8621 39.3693 66.6363 38.5468 66.1178 37.5155C65.8442 36.8928 65.7513 36.2508 65.6646 35.5796C64.9169 36.4404 64.1894 37.471 64.2686 38.6596C64.4321 39.4583 64.7127 40.1854 65.1062 40.8996C64.4929 40.4349 64.1537 40.0877 63.8498 39.3596C63.1201 39.742 62.5831 40.1546 62.0175 40.7508C61.9131 40.8584 61.9131 40.8584 61.8065 40.9682C61.6688 41.1101 61.5314 41.2523 61.3943 41.3949C59.2226 43.6512 56.6947 44.3333 53.7434 45.0821C49.9714 46.0469 46.1937 47.3256 44.0264 50.8308C43.5695 51.6803 43.2818 52.5653 43.0492 53.4996C43.022 53.6037 42.9949 53.7078 42.9669 53.8151C42.8784 54.4091 42.883 54.9998 42.8834 55.5996C42.8833 55.7949 42.8833 55.7949 42.8832 55.9942C42.8909 57.0064 42.9831 57.9668 43.1888 58.9596C42.1883 57.6102 42.048 56.1453 42.0546 54.5058C42.054 54.3733 42.0535 54.2407 42.0529 54.1041C42.0541 53.2848 42.1067 52.4922 42.2116 51.6796C40.3009 51.5319 38.5685 51.9588 37.0349 53.1288C36.7941 53.3364 36.5683 53.55 36.3484 53.7796C36.3484 52.9718 36.7485 52.5312 37.2787 51.9743C38.3248 51.0287 39.6669 50.7753 40.9994 50.4491C42.1872 50.2032 42.1872 50.2032 43.185 49.5834C43.2603 49.4386 43.2603 49.4386 43.3371 49.2908C43.3906 49.1939 43.444 49.097 43.4991 48.9971C43.6257 48.7432 43.6257 48.7432 43.6076 48.4596C40.5098 48.5831 36.8179 48.8917 34.5565 51.2464C33.8441 52.1312 33.193 53.3309 33.1375 54.4796C33.2771 54.8672 33.4181 55.1955 33.6087 55.5558C33.6596 55.6542 33.7104 55.7526 33.7628 55.8539C35.2405 58.6165 37.8151 60.477 40.6913 61.5704C41.1103 61.7668 41.339 61.986 41.6532 62.3196C41.7453 62.3196 41.8375 62.3196 41.9324 62.3196C41.9324 62.412 41.9324 62.5044 41.9324 62.5996C39.2381 61.8254 36.9059 60.9371 34.6421 59.2336C34.2488 58.9557 33.8477 58.7265 33.4255 58.4958C32.0263 57.6948 30.8606 56.5945 30.0663 55.1796C30.1124 55.1334 30.1585 55.0872 30.2059 55.0396C30.3002 55.1188 30.3945 55.198 30.4917 55.2796C30.6162 55.3823 30.7407 55.485 30.869 55.5908C31.0537 55.7443 31.0537 55.7443 31.242 55.9009C31.5689 56.1358 31.769 56.2418 32.1603 56.2996C32.0717 56.0181 31.9771 55.7386 31.8811 55.4596C31.8518 55.3627 31.8225 55.2657 31.7922 55.1659C31.5163 54.3573 31.1074 53.7284 30.5985 53.0533C29.1556 51.134 28.1727 49.1475 27.2743 46.9196C27.2282 46.9196 27.1822 46.9196 27.1347 46.9196C27.0092 48.4392 27.3537 49.5887 27.885 50.9796C27.9569 51.1743 28.0286 51.3692 28.0999 51.5642C28.373 52.3067 28.6541 53.0457 28.9495 53.7796C28.442 53.2989 28.0615 52.8279 27.6931 52.2396C27.492 52.6429 27.6453 52.908 27.7751 53.3193C28.4901 55.4583 29.4543 57.3599 30.9039 59.0996C31.02 59.2389 31.1361 59.3782 31.2557 59.5218C34.1887 62.931 38.4674 64.8423 42.9037 65.2308C43.6085 65.2786 44.3118 65.279 45.0179 65.2777C45.1793 65.2779 45.3407 65.2782 45.507 65.2784C46.0363 65.279 46.5656 65.2786 47.0949 65.2782C47.4661 65.2783 47.8373 65.2784 48.2084 65.2786C48.9851 65.2788 49.7618 65.2785 50.5385 65.2778C51.4305 65.2771 52.3225 65.2773 53.2146 65.2781C53.9857 65.2787 54.7569 65.2788 55.528 65.2784C55.9862 65.2782 56.4444 65.2782 56.9027 65.2787C59.4672 65.2826 59.4672 65.2826 62.0267 65.141C62.4373 65.1204 62.807 65.1473 63.2129 65.2071C63.9129 65.2984 64.4794 65.1618 65.1062 64.8396C65.4424 64.5331 65.5066 64.3718 65.5948 63.9296C65.5502 63.5567 65.5502 63.5567 65.2545 63.2646C64.6748 62.9324 64.2387 62.8184 63.5706 62.8796C63.0567 63.0352 62.5647 63.2183 62.0677 63.4215C61.6454 63.5694 61.3594 63.6137 60.9182 63.5796C60.9349 62.6083 60.9349 62.6083 61.2454 62.2326C61.5015 62.0172 61.7655 61.818 62.035 61.6196C63.1436 60.7227 63.1436 60.7227 63.6753 59.4321C63.7405 58.9609 63.7405 58.9609 63.5706 58.5396C63.1548 58.3623 63.1548 58.3623 62.6545 58.2158C61.3466 57.7769 60.5407 57.2463 59.8619 56.025C59.5799 55.4255 59.3531 54.8101 59.129 54.1869C58.454 52.3137 57.6443 51.0202 55.8195 50.1024C54.6336 49.5997 53.4353 49.4232 52.1582 49.334C51.8441 49.2996 51.8441 49.2996 51.5649 49.1596C53.1443 48.4161 54.6776 48.4593 56.3113 49.0196C58.0603 49.8205 58.9509 51.1988 59.6618 52.9396C59.79 53.3014 59.9056 53.6667 60.0195 54.0333C60.4418 55.3545 60.9414 56.2133 62.113 56.9728C63.5432 57.6727 65.499 57.6547 67.0083 57.2008C68.0065 56.8012 68.867 56.2496 69.3728 55.2758C69.5903 54.8084 69.5903 54.8084 69.5734 54.4796C69.7116 54.5258 69.8498 54.572 69.9922 54.6196C70.4976 54.6238 71.0014 54.6102 71.5066 54.5971C71.9467 54.6196 71.9467 54.6196 72.2259 54.8996C72.8545 54.8502 72.8545 54.8502 73.3427 54.4796C73.3414 54.123 73.3414 54.123 73.2031 53.7796C72.9308 53.608 72.9308 53.608 72.6447 53.4996C72.5986 53.4072 72.5525 53.3148 72.5051 53.2196C72.7354 53.1272 72.9657 53.0348 73.2031 52.9396C73.0259 52.3917 72.8593 52.1197 72.3655 51.8196C71.9417 51.6779 71.6399 51.6564 71.1963 51.6533C71.0003 51.6503 71.0003 51.6503 70.8004 51.6473C70.3871 51.6815 70.0943 51.8036 69.713 51.9596C69.2154 51.9165 68.7905 51.8378 68.317 51.6796C68.1105 51.6592 67.9032 51.645 67.6959 51.6353C67.5776 51.6294 67.4593 51.6235 67.3374 51.6175C67.2144 51.612 67.0914 51.6065 66.9646 51.6008C66.84 51.5948 66.7154 51.5887 66.587 51.5825C66.2796 51.5677 65.9721 51.5534 65.6646 51.5396C65.6646 51.4472 65.6646 51.3548 65.6646 51.2596C65.5313 51.2491 65.3979 51.2386 65.2605 51.2279C63.9207 51.0912 62.724 50.8798 61.7596 49.8437C61.2642 49.1637 61.0881 48.5962 61.0578 47.7596C61.0968 47.8392 61.1359 47.9187 61.1761 48.0007C62.0354 49.6604 63.1913 50.3845 64.923 51.0321C66.265 51.286 67.4037 51.0267 68.6137 50.4108C69.2875 50.0905 69.9888 50.0304 70.7238 49.9798C71.409 49.9206 71.8346 49.7367 72.3655 49.2996C72.3655 49.2072 72.3655 49.1148 72.3655 49.0196C72.5353 49.034 72.7052 49.0484 72.8802 49.0633C73.3863 49.0642 73.4744 49.0254 73.9098 48.7046C74.2142 48.36 74.2142 48.36 74.1541 48.0439C74.0229 47.715 73.87 47.5457 73.6131 47.3046C73.5367 47.2317 73.4602 47.1588 73.3814 47.0836C73.3225 47.0295 73.2637 46.9754 73.2031 46.9196C73.2491 46.8272 73.2952 46.7348 73.3427 46.6396C73.7112 46.6396 74.0798 46.6396 74.4595 46.6396C74.396 46.4411 74.3319 46.2428 74.2675 46.0446C74.2141 45.8789 74.2141 45.8789 74.1596 45.7099C74.0526 45.3847 74.0526 45.3847 73.8978 45.1236C73.7414 44.7749 73.6873 44.4356 73.6308 44.0592C73.3361 42.1118 72.5291 40.472 70.9296 39.2573C70.4293 38.9112 70.4293 38.9112 69.8526 38.7996C69.7691 38.9353 69.6856 39.071 69.5996 39.2108C69.2942 39.6396 69.2942 39.6396 68.9103 39.7621C68.8067 39.7678 68.703 39.7736 68.5962 39.7796C68.858 38.6946 68.858 38.6946 69.015 38.3796C69.0647 37.3556 68.6996 36.6183 68.0378 35.8596C67.2499 35.0939 67.2499 35.0939 66.223 34.8796ZM31.0435 37.8196C30.112 38.8306 29.4509 39.9743 28.8099 41.1796C28.6911 41.3867 28.6911 41.3867 28.57 41.5979C28.2434 42.2138 28.0288 42.6744 28.2079 43.3671C28.3076 43.6212 28.4168 43.8716 28.5307 44.1196C28.614 44.3104 28.6972 44.5013 28.7805 44.6921C29.4977 46.3048 29.4977 46.3048 30.4851 47.7596C30.5312 47.7596 30.5773 47.7596 30.6247 47.7596C30.6477 47.5316 30.6477 47.5316 30.6711 47.2991C30.6933 47.0967 30.7157 46.8944 30.7381 46.6921C30.748 46.5923 30.7578 46.4925 30.7679 46.3896C30.8421 45.7409 30.9925 45.2548 31.3227 44.6796C31.5385 45.0042 31.7131 45.3105 31.8811 45.6596C31.9733 45.6596 32.0654 45.6596 32.1603 45.6596C32.3907 45.2438 32.621 44.828 32.8583 44.3996C32.7086 44.2465 32.5589 44.0935 32.4046 43.9358C31.2468 42.6125 31.1603 40.9878 31.1744 39.3071C31.175 39.164 31.1757 39.0208 31.1763 38.8734C31.1779 38.5221 31.1802 38.1708 31.1831 37.8196C31.1371 37.8196 31.091 37.8196 31.0435 37.8196ZM35.092 42.1596C35.2316 42.4396 35.2316 42.4396 35.2316 42.4396L35.092 42.1596ZM27.9723 45.7996C28.2852 47.752 29.3011 50.0364 30.7643 51.3996C30.8879 50.313 30.5014 49.7233 29.9093 48.8358C29.7423 48.5764 29.5756 48.3168 29.4092 48.0571C29.3294 47.9336 29.2495 47.8102 29.1673 47.683C28.7809 47.0737 28.4405 46.442 28.1119 45.7996C28.0658 45.7996 28.0198 45.7996 27.9723 45.7996ZM30.6247 47.7596C30.7643 48.0396 30.7643 48.0396 30.7643 48.0396L30.6247 47.7596ZM73.2554 55.6783C72.694 55.9181 72.3939 55.8754 71.8071 55.7396C71.7149 55.6934 71.6228 55.6472 71.5279 55.5996C71.0632 55.4826 71.0632 55.4826 70.5506 55.5996C70.307 55.89 70.1286 56.1975 69.9366 56.5243C69.4606 57.238 68.7114 57.7247 67.8982 57.9796C67.9135 58.6184 67.9405 59.0978 68.3083 59.6333C69.5384 60.5145 71.0819 60.832 72.5836 60.7632C73.0984 60.6673 73.3628 60.4807 73.744 60.1233C74.4363 59.0411 74.4352 57.8275 74.3199 56.5796C74.1778 56.1435 74.0135 55.8465 73.7615 55.4596C73.5708 55.4476 73.5708 55.4476 73.2554 55.6783ZM64.827 58.5396C64.8184 58.7186 64.8097 58.8976 64.8008 59.0821C64.7161 59.8822 64.3764 60.506 63.9894 61.1996C63.9433 61.292 63.8973 61.3844 63.8498 61.4796C63.9558 61.4982 64.0618 61.5167 64.171 61.5359C64.3097 61.5606 64.4485 61.5853 64.5914 61.6108C64.7979 61.6474 64.7979 61.6474 65.0086 61.6846C65.3854 61.7596 65.3854 61.7596 65.8042 61.8996C65.7817 61.801 65.7592 61.7025 65.736 61.601C65.5518 60.5659 65.5853 59.5284 65.9438 58.5396C65.5753 58.5396 65.2067 58.5396 64.827 58.5396ZM66.6418 59.9396C66.5914 60.5717 66.5735 61.0568 66.8512 61.6371C67.4357 62.3112 68.0574 62.926 68.8754 63.2996C68.8706 63.3958 68.8657 63.492 68.8607 63.5911C68.8569 63.7172 68.8531 63.8434 68.8493 63.9733C68.8444 64.0984 68.8395 64.2235 68.8345 64.3523C68.8478 64.6993 68.8478 64.6993 69.039 64.9353C69.3622 65.1687 69.6791 65.2981 70.0533 65.4346C70.1856 65.4844 70.3178 65.5342 70.4541 65.5855C70.838 65.6816 71.0225 65.6748 71.3882 65.5396C71.4843 65.2101 71.4843 65.2101 71.5279 64.8396C71.3038 64.4019 71.3038 64.4019 70.9771 64.3479C70.8767 64.3398 70.7763 64.3317 70.6728 64.3233C70.4943 64.3089 70.3158 64.2944 70.1318 64.2796C70.0858 64.0948 70.0397 63.91 69.9922 63.7196C70.4562 63.5955 70.8773 63.5772 71.3533 63.5883C72.239 63.5936 73.0891 63.5413 73.8138 62.9846C74.1841 62.5955 74.393 62.2534 74.5991 61.7596C74.4485 61.7818 74.2978 61.804 74.1426 61.8268C71.9943 62.0935 69.5148 62.2353 67.6801 60.9196C67.3136 60.6134 66.9656 60.2914 66.6418 59.9396Z" fill="#191919"/>
<path d="M61.4766 72.2596C62.2137 72.2596 62.9508 72.2596 63.7102 72.2596C63.7562 74.9854 63.8023 77.7112 63.8498 80.5196C65.0958 79.1742 65.0958 79.1742 66.3064 77.8017C66.371 77.7284 66.4356 77.6551 66.5022 77.5796C66.5619 77.5066 66.6216 77.4336 66.6831 77.3583C66.9954 77.0975 67.1704 77.1109 67.5727 77.1186C67.6973 77.12 67.8219 77.1213 67.9503 77.1227C68.1448 77.128 68.1448 77.128 68.3432 77.1334C68.4745 77.1353 68.6057 77.1372 68.741 77.1391C69.0651 77.1441 69.389 77.151 69.713 77.1596C69.517 77.6003 69.2833 77.9116 68.9523 78.2605C68.8568 78.3617 68.7614 78.4628 68.663 78.567C68.5632 78.6714 68.4635 78.7758 68.3606 78.8834C68.2636 78.9862 68.1665 79.0889 68.0664 79.1948C67.4617 79.833 66.8471 80.4604 66.223 81.0796C66.7409 81.801 67.2932 82.4812 67.872 83.1534C69.9922 85.6158 69.9922 85.6158 69.9922 85.8396C67.4586 86.1703 67.4586 86.1703 66.6336 85.6629C66.1327 85.1904 65.7781 84.6206 65.4268 84.0319C65.1928 83.6541 64.9263 83.3094 64.6509 82.9613C64.3793 82.6177 64.1152 82.2681 63.8498 81.9196C63.8037 83.2132 63.7576 84.5068 63.7102 85.8396C62.9731 85.8396 62.236 85.8396 61.4766 85.8396C61.4766 81.3582 61.4766 76.8768 61.4766 72.2596Z" fill="#191919"/>
<path d="M31.4619 73.0996C34.1799 73.0996 36.898 73.0996 39.6984 73.0996C39.6984 73.7926 39.6984 74.4856 39.6984 75.1996C37.7635 75.1996 35.8286 75.1996 33.8351 75.1996C33.8351 76.3084 33.8351 77.4172 33.8351 78.5596C35.6779 78.5596 37.5206 78.5596 39.4192 78.5596C39.4192 79.2526 39.4192 79.9456 39.4192 80.6596C37.5764 80.6596 35.7337 80.6596 33.8351 80.6596C33.8351 82.369 33.8351 84.0784 33.8351 85.8396C33.052 85.8396 32.2688 85.8396 31.4619 85.8396C31.4619 81.6354 31.4619 77.4312 31.4619 73.0996Z" fill="#191919"/>
<path d="M57.2148 77.1066C57.9476 77.4258 58.4615 77.9921 58.8235 78.6996C59.0855 79.5667 59.1403 80.3434 59.13 81.2459C59.1296 81.3779 59.1292 81.51 59.1288 81.646C59.1272 82.0639 59.1237 82.4818 59.1202 82.8996C59.1188 83.1846 59.1175 83.4695 59.1164 83.7544C59.1133 84.4495 59.1085 85.1446 59.1027 85.8396C58.3196 85.8396 57.5364 85.8396 56.7295 85.8396C56.7275 85.6652 56.7254 85.4907 56.7233 85.311C56.7152 84.6626 56.7045 84.0142 56.6929 83.3659C56.6882 83.0855 56.6843 82.8051 56.6811 82.5247C56.6765 82.1211 56.6691 81.7177 56.6613 81.3143C56.6605 81.1893 56.6596 81.0642 56.6586 80.9355C56.6429 80.2653 56.6074 79.8022 56.1711 79.2596C55.6293 78.8921 55.1494 78.9859 54.5352 79.0792C54.0154 79.3737 53.7675 79.8451 53.5187 80.3796C53.4253 80.8166 53.4178 81.2376 53.42 81.6834C53.4179 81.803 53.4158 81.9226 53.4136 82.0458C53.4076 82.4238 53.4064 82.8016 53.4053 83.1796C53.402 83.4376 53.3985 83.6955 53.3946 83.9535C53.3853 84.5823 53.3823 85.2107 53.3791 85.8396C52.5959 85.8396 51.8128 85.8396 51.0059 85.8396C51.0059 82.9752 51.0059 80.1108 51.0059 77.1596C51.743 77.1596 52.48 77.1596 53.2395 77.1596C53.2855 77.483 53.3316 77.8064 53.3791 78.1396C53.477 78.0328 53.5749 77.926 53.6757 77.8159C54.6777 76.8766 55.908 76.7779 57.2148 77.1066Z" fill="#191919"/>
<path d="M41.6523 72.2596C42.3894 72.2596 43.1265 72.2596 43.886 72.2596C43.886 76.741 43.886 81.2224 43.886 85.8396C43.1489 85.8396 42.4118 85.8396 41.6523 85.8396C41.6523 81.3582 41.6523 76.8768 41.6523 72.2596Z" fill="#191919"/>
<path d="M46.3994 77.1595C47.1365 77.1595 47.8736 77.1595 48.633 77.1595C48.633 80.0239 48.633 82.8883 48.633 85.8395C47.8959 85.8395 47.1588 85.8395 46.3994 85.8395C46.3994 82.9751 46.3994 80.1107 46.3994 77.1595Z" fill="#191919"/>
<path d="M71.1085 42.7197C71.5482 42.9441 71.8338 43.1295 72.1293 43.5247C72.4172 44.4696 72.3779 45.1517 72.0857 46.0797C71.8128 46.3533 71.3139 46.2518 70.9427 46.2547C70.6676 46.2601 70.6676 46.2601 70.387 46.2656C69.7298 46.2092 69.2978 45.9956 68.7614 45.6247C68.4956 45.2317 68.4806 44.8667 68.4561 44.3997C68.5869 44.0584 68.5869 44.0584 68.7353 43.8397C68.9797 44.2074 69.2081 44.5799 69.4333 44.9597C69.0995 44.4241 69.0759 43.8961 69.0145 43.2797C69.6909 42.723 70.2358 42.5631 71.1085 42.7197ZM70.1313 43.2797C69.9931 43.4183 69.8549 43.5569 69.7125 43.6997C69.8046 43.8845 69.8967 44.0693 69.9917 44.2597C70.1759 44.2597 70.3602 44.2597 70.5501 44.2597C70.5961 44.0287 70.6422 43.7977 70.6897 43.5597C70.5054 43.4673 70.3211 43.3749 70.1313 43.2797ZM71.3877 45.2397C71.3877 45.6597 71.3877 45.6597 71.3877 45.6597V45.2397Z" fill="#191919"/>
<path d="M48.4933 73.2396C48.9244 73.5802 48.9119 73.798 48.9819 74.3509C48.9654 74.8431 48.9117 74.9201 48.5805 75.3309C48.1052 75.7054 47.9146 75.7855 47.3241 75.7334C46.8925 75.6777 46.6969 75.6321 46.3295 75.3834C46.0681 74.9793 46 74.7006 45.9805 74.2196C46.1143 73.7388 46.2813 73.406 46.6785 73.0996C47.3157 72.8811 47.8711 73.0234 48.4933 73.2396Z" fill="#191919"/>
</g>
<defs>
<clipPath id="clip0_2358_6119">
<rect width="50.2564" height="70" fill="white" transform="translate(25.5986 15.8396)"/>
</clipPath>
</defs>
</svg>
