<svg width="101" height="101" viewBox="0 0 101 101" fill="none" xmlns="http://www.w3.org/2000/svg">
<g clip-path="url(#clip0_2358_1812)">
<path d="M28.7297 42.5979C28.7297 43.8378 28.8631 44.8428 29.0958 45.5799C29.3912 46.4092 29.7468 47.2154 30.1598 47.992C30.3262 48.26 30.3925 48.528 30.3925 48.7627C30.3925 49.0975 30.1932 49.4326 29.7608 49.7678L27.6656 51.1748C27.3663 51.376 27.0669 51.4764 26.8005 51.4764C26.4682 51.4764 26.1355 51.3088 25.8027 51.0072C25.3543 50.5225 24.9534 49.9952 24.6057 49.4326C24.273 48.8635 23.9402 48.2264 23.5746 47.4561C20.9801 50.5381 17.7207 52.0792 13.7964 52.0795C11.0028 52.0795 8.77426 51.2752 7.14443 49.6674C5.51499 48.0588 4.68359 45.9147 4.68359 43.2346C4.68359 40.387 5.68135 38.0753 7.7102 36.3331C9.73866 34.5909 12.4329 33.7198 15.8586 33.7198C16.9893 33.7198 18.1534 33.8202 19.3839 33.9878C20.6147 34.1554 21.8784 34.4234 23.2089 34.7249V32.2792C23.2089 29.7328 22.6765 27.9574 21.6454 26.9187C20.5813 25.88 18.7851 25.3773 16.2242 25.3773C15.0601 25.3773 13.8631 25.5117 12.6323 25.8133C11.4015 26.1148 10.2044 26.4832 9.04027 26.9523C8.50824 27.1867 8.10922 27.3207 7.87617 27.3879C7.64311 27.455 7.47714 27.4882 7.34414 27.4882C6.87841 27.4882 6.64575 27.1531 6.64575 26.4496V24.8078C6.64575 24.2719 6.71245 23.8699 6.87841 23.6355C7.04477 23.4008 7.34414 23.1664 7.80986 22.932C8.97384 22.3286 10.3706 21.826 12.0002 21.4242C13.6304 20.9887 15.3599 20.7879 17.189 20.7879C21.1471 20.7879 24.0407 21.6922 25.9032 23.5015C27.7323 25.3105 28.6638 28.0578 28.6638 31.7433V42.5979H28.7297ZM15.2265 47.6905C16.3243 47.6905 17.4551 47.4897 18.6521 47.0873C19.8496 46.6854 20.914 45.9483 21.8117 44.9432C22.3442 44.3069 22.7432 43.6034 22.9425 42.7991C23.1422 41.9952 23.2752 41.0233 23.2752 39.8843V38.4772C22.2666 38.2301 21.245 38.04 20.2153 37.9077C19.1783 37.7752 18.1342 37.708 17.089 37.7065C14.8604 37.7065 13.231 38.1421 12.1336 39.0468C11.0362 39.9514 10.5037 41.2245 10.5037 42.8995C10.5037 44.4741 10.9028 45.6467 11.7342 46.451C12.5326 47.2885 13.6967 47.6905 15.2265 47.6905ZM41.9335 51.3088C41.3348 51.3088 40.9358 51.2084 40.6698 50.9736C40.4037 50.7729 40.1707 50.3037 39.9714 49.6674L32.1557 23.7695C31.9556 23.0992 31.856 22.6637 31.856 22.4293C31.856 21.8934 32.122 21.5914 32.6544 21.5914H35.9137C36.5454 21.5914 36.9781 21.6922 37.2108 21.9266C37.4768 22.1277 37.6765 22.5969 37.8758 23.2332L43.4633 45.4123L48.6518 23.2332C48.8181 22.5633 49.0178 22.1277 49.2835 21.9266C49.5499 21.7258 50.0156 21.5918 50.6143 21.5918H53.2749C53.9066 21.5918 54.3393 21.6922 54.6049 21.9266C54.8713 22.1277 55.104 22.5969 55.237 23.2332L60.4922 45.6803L66.2456 23.2332C66.445 22.5633 66.678 22.1277 66.9107 21.9266C67.1767 21.7258 67.6091 21.5918 68.2078 21.5918H71.3007C71.8331 21.5918 72.1325 21.8598 72.1325 22.4293C72.1325 22.5969 72.0991 22.7644 72.0658 22.9652C72.0324 23.166 71.9661 23.4344 71.8331 23.8031L63.8174 49.7006C63.6181 50.3709 63.3853 50.8065 63.119 51.0072C62.853 51.2084 62.4206 51.3424 61.8556 51.3424H58.9954C58.3633 51.3424 57.9309 51.242 57.6645 51.0072C57.3985 50.7729 57.1658 50.3373 57.0328 49.6674L51.8773 28.0578L46.7555 49.6334C46.5896 50.3037 46.3899 50.7393 46.1238 50.9736C45.8578 51.2084 45.3921 51.3088 44.7938 51.3088H41.9335ZM84.6713 52.2135C82.9418 52.2135 81.2123 52.0123 79.5495 51.6104C77.8863 51.2084 76.5896 50.7725 75.7249 50.2705C75.1925 49.9686 74.8264 49.6338 74.6938 49.3322C74.5644 49.0365 74.4965 48.7172 74.4941 48.394V46.6854C74.4941 45.9819 74.7601 45.6467 75.2592 45.6467C75.4628 45.6475 75.665 45.6815 75.8579 45.7475C76.0572 45.8147 76.3566 45.9483 76.6893 46.0823C77.8639 46.6031 79.0902 46.9962 80.3476 47.2549C81.6504 47.521 82.9763 47.6557 84.3056 47.6569C86.4008 47.6569 88.0306 47.2885 89.1614 46.5514C90.2921 45.8143 90.8909 44.7424 90.8909 43.3686C90.8909 42.4307 90.5915 41.66 89.9928 41.0233C89.394 40.3866 88.2633 39.8175 86.6338 39.2811L81.8111 37.7737C79.3832 37.003 77.5874 35.864 76.4896 34.3562C75.3922 32.882 74.8268 31.2406 74.8268 29.4984C74.8268 28.0914 75.1261 26.8517 75.7249 25.7793C76.3232 24.7074 77.1217 23.7695 78.1194 23.0324C79.1172 22.2617 80.2479 21.6922 81.5784 21.2902C82.9085 20.8883 84.3052 20.7207 85.7687 20.7207C86.5004 20.7207 87.2655 20.7543 87.9973 20.8547C88.7624 20.9551 89.4607 21.0891 90.1591 21.223C90.8242 21.3906 91.4562 21.5582 92.055 21.7594C92.6534 21.9601 93.119 22.1611 93.4518 22.3621C93.9175 22.6305 94.2498 22.8984 94.4495 23.2C94.6491 23.468 94.7489 23.8364 94.7489 24.3054V25.88C94.7489 26.5836 94.4828 26.9523 93.9838 26.9523C93.7178 26.9523 93.2854 26.8179 92.7204 26.55C90.824 25.6789 88.6954 25.2433 86.3345 25.2433C84.4386 25.2433 82.9418 25.5449 81.9107 26.1816C80.88 26.8179 80.3476 27.7898 80.3476 29.1632C80.3476 30.1015 80.6803 30.9054 81.3453 31.5421C82.0104 32.1788 83.2412 32.8152 85.004 33.3847L89.7268 34.8925C92.1213 35.6632 93.8508 36.7351 94.8819 38.1085C95.913 39.4819 96.412 41.0569 96.412 42.7991C96.412 44.2397 96.1123 45.5463 95.5469 46.6854C94.9486 47.8244 94.1501 48.8295 93.119 49.6338C92.0879 50.4713 90.8575 51.0744 89.4274 51.51C87.9306 51.9791 86.3674 52.2135 84.6713 52.2135Z" fill="#191919"/>
<path d="M90.9572 68.4954C80.0152 76.6367 64.1171 80.9586 50.448 80.9586C31.2906 80.9586 14.0294 73.8223 0.99194 61.9622C-0.0391623 61.0243 0.89189 59.7513 2.12231 60.488C16.2242 68.7301 33.6188 73.7219 51.6121 73.7219C63.7514 73.7219 77.0883 71.1758 89.3611 65.9493C91.1902 65.1114 92.7533 67.1555 90.9572 68.4954ZM95.5139 63.2688C94.1172 61.4599 86.2678 62.3977 82.7091 62.8333C81.6447 62.9677 81.4783 62.0294 82.4431 61.3259C88.6956 56.9032 98.9729 58.1767 100.17 59.6505C101.367 61.1583 99.8373 71.5106 93.9838 76.4691C93.0861 77.2398 92.2213 76.8379 92.6203 75.8328C93.9504 72.5156 96.9107 65.0446 95.5139 63.2688Z" fill="#191919"/>
</g>
<defs>
<clipPath id="clip0_2358_1812">
<rect width="100" height="100" fill="white" transform="translate(0.548828 0.8396)"/>
</clipPath>
</defs>
</svg>
