<svg width="101" height="101" viewBox="0 0 101 101" fill="none" xmlns="http://www.w3.org/2000/svg">
<g clip-path="url(#clip0_2358_2042)">
<path d="M10.0946 31.53C9.5899 31.0288 8.88973 30.72 8.1092 30.72C7.33064 30.72 6.63586 31.0288 6.13756 31.53H6.12482C5.62162 32.0279 5.30951 32.7225 5.30951 33.4899C5.30951 34.2617 5.62162 34.952 6.12482 35.445L6.13756 35.4585C6.63586 35.9554 7.33064 36.2598 8.1092 36.2598C8.88973 36.2598 9.5899 35.9554 10.0946 35.4585L10.1004 35.445C10.6056 34.952 10.9138 34.2617 10.9138 33.4899C10.9138 32.7225 10.6056 32.0279 10.1004 31.53H10.0946ZM8.1092 69.448C8.88973 69.448 9.5899 69.1334 10.0946 68.6413L10.1004 68.6268C10.6056 68.1357 10.9138 67.4411 10.9138 66.6776C10.9138 65.9058 10.6056 65.2146 10.1004 64.7143H10.0946C9.5899 64.2082 8.88973 63.9023 8.1092 63.9023C7.33064 63.9023 6.63586 64.2082 6.13756 64.7143H6.12482C5.62162 65.2146 5.30951 65.9058 5.30951 66.6776C5.30951 67.4411 5.62162 68.1357 6.12482 68.6268L6.13756 68.6413C6.63586 69.1334 7.33064 69.448 8.1092 69.448ZM23.3635 61.0553C24.0568 60.875 24.6844 60.4348 25.0681 59.7688L25.1195 59.6713C25.4605 59.0407 25.5228 58.3116 25.3405 57.6644C25.1568 56.9736 24.707 56.3609 24.0352 55.9794L23.9955 55.9532C23.3409 55.5974 22.5962 55.5198 21.9112 55.7045C21.2149 55.8766 20.5893 56.3352 20.2081 56.9955C19.822 57.6518 19.7416 58.4061 19.9263 59.1003C20.1169 59.7833 20.5633 60.4004 21.2311 60.7863H21.235C21.9043 61.1668 22.6608 61.2352 23.3635 61.0553ZM10.9809 47.2455C10.246 46.5203 9.23173 46.0656 8.1092 46.0656C6.98815 46.0656 5.97685 46.5203 5.24336 47.2455C4.51233 47.9697 4.06155 48.9688 4.06155 50.0794C4.06155 51.19 4.51233 52.1934 5.24336 52.9259C5.97685 53.6467 6.98815 54.0971 8.1092 54.0971C9.23173 54.0971 10.246 53.6467 10.9809 52.9259C11.7139 52.1934 12.1647 51.19 12.1647 50.0794C12.1647 48.9688 11.7139 47.9697 10.9809 47.2455ZM9.36598 42.5244C10.9956 42.79 12.4587 43.5623 13.5773 44.6767H13.5856C13.7635 44.8522 13.9364 45.0456 14.0976 45.2386L16.8929 43.6389C16.5171 42.5152 16.4995 41.3406 16.8018 40.2387C17.2001 38.7636 18.1668 37.4431 19.6162 36.6156L19.6632 36.5861C21.0969 35.7838 22.726 35.6166 24.1964 36.0107C25.6859 36.4057 27.0294 37.3665 27.8658 38.798V38.8024C28.6983 40.2261 28.8668 41.8598 28.4699 43.3305C28.0736 44.8052 27.1034 46.1349 25.6555 46.9575L25.2739 47.1805H25.2352C23.8961 47.8112 22.4237 47.9101 21.0714 47.5577C19.9611 47.2668 18.9429 46.6531 18.1453 45.7829L15.3539 47.3783C15.6748 48.2179 15.8522 49.1229 15.8522 50.0794C15.8522 51.031 15.6748 51.9491 15.3539 52.7931L18.1453 54.384C18.9429 53.5003 19.9611 52.9007 21.0714 52.6089C22.5614 52.206 24.2126 52.3771 25.6555 53.2095L25.7482 53.2521V53.2565C27.1421 54.0927 28.078 55.3831 28.4699 56.8408C28.8668 58.3029 28.6983 59.9375 27.8658 61.3641L27.8153 61.4635L27.8095 61.4552C26.9736 62.8305 25.6556 63.7622 24.2008 64.1563C22.7089 64.5456 21.0572 64.3793 19.6162 63.5591V63.548C18.1668 62.719 17.2001 61.3956 16.8018 59.9234C16.4995 58.8264 16.5171 57.6518 16.8929 56.5286L14.0976 54.9328C13.9364 55.1257 13.7635 55.3104 13.5856 55.4859L13.5773 55.4946C12.4587 56.6052 10.9956 57.377 9.36598 57.6339V60.8294C10.5272 61.0694 11.5669 61.6438 12.3813 62.45L12.3857 62.4582C13.4773 63.5334 14.1535 65.0313 14.1535 66.6776C14.1535 68.319 13.4773 69.8081 12.3857 70.8887L12.3813 70.9056C11.2818 71.9857 9.77363 72.6547 8.1092 72.6547C6.45359 72.6547 4.94154 71.9857 3.8445 70.9056H3.84009V70.8887C2.74745 69.8081 2.06982 68.319 2.06982 66.6776C2.06982 65.0313 2.74745 63.5334 3.84009 62.4582V62.45H3.8445C4.65834 61.6438 5.70002 61.0694 6.85684 60.8294V57.6339C5.22768 57.377 3.76708 56.6052 2.65044 55.4946L2.63868 55.4859C1.24422 54.1014 0.371094 52.1934 0.371094 50.0794C0.371094 47.9697 1.24422 46.0617 2.63868 44.6767H2.65044C3.76708 43.5623 5.22768 42.79 6.85684 42.5244V39.3424C5.70002 39.0942 4.65834 38.5198 3.8445 37.718H3.84009V37.7093C2.74745 36.6244 2.06982 35.1366 2.06982 33.4899C2.06982 31.8519 2.74745 30.3511 3.84009 29.2706L3.8445 29.2662C4.94154 28.1818 6.45359 27.5133 8.1092 27.5133C9.77363 27.5133 11.2818 28.1818 12.3813 29.2662V29.2706H12.3857C13.4773 30.3511 14.1535 31.8519 14.1535 33.4899C14.1535 35.1366 13.4773 36.6244 12.3857 37.7093L12.3813 37.718C11.5669 38.5198 10.5272 39.0942 9.36598 39.3424V42.5244ZM25.0681 40.4021L25.0441 40.3672C24.659 39.7244 24.0435 39.2959 23.3635 39.1112C22.6608 38.9265 21.9043 39.0041 21.2311 39.3861H21.235C20.5633 39.7632 20.114 40.3798 19.9263 41.0711C19.7416 41.757 19.822 42.5152 20.2081 43.1759L20.2213 43.1929C20.6079 43.8449 21.2238 44.2821 21.9112 44.4581C22.6021 44.6515 23.3718 44.5696 24.0352 44.1876L24.071 44.1706C24.7241 43.7848 25.1592 43.1759 25.3405 42.5069C25.5257 41.8166 25.4517 41.0624 25.0681 40.4021Z" fill="#191919"/>
<path d="M37.4717 41.3367H40.5908V50.7566L45.0888 45.8343H48.8287L43.3984 51.537L48.8513 58.7658H45.2799L40.5908 52.3088V58.7658H37.4717V41.3367ZM52.4521 52.3558C52.4521 53.9599 53.6182 56.292 56.4277 56.292C58.1661 56.292 59.3102 55.3957 59.9035 54.2212C60.2142 53.6511 60.3572 53.0417 60.4053 52.4077C60.4268 51.794 60.3097 51.156 60.0461 50.5893C59.4993 49.3677 58.2856 48.3085 56.4046 48.3085C53.8823 48.3085 52.4521 50.3319 52.4521 52.3345V52.3558ZM63.4994 58.7658H60.3788V56.9053C59.5483 58.41 57.8094 59.1652 55.9754 59.1652C51.7847 59.1652 49.3334 55.9362 49.3334 52.2874C49.3334 48.214 52.309 45.4354 55.9754 45.4354C58.3562 45.4354 59.808 46.6836 60.3788 47.721V45.8343H63.4994V58.7658ZM67.0311 48.214H65.4147V45.8343H67.0311V45.1057C67.0311 41.2635 69.9842 41.0318 72.2234 41.0061V43.3814C71.436 43.3814 70.1518 43.3814 70.1518 45.1993V45.8343H72.2234V48.214H70.1518V58.7658H67.0311V48.214ZM74.3444 41.3367H77.4626V50.7566L81.9615 45.8343H85.7015L80.2711 51.537L85.723 58.7658H82.1516L77.4626 52.3088V58.7658H74.3444V41.3367ZM89.3248 52.3558C89.3248 53.9599 90.4905 56.292 93.3004 56.292C95.0364 56.292 96.1805 55.3957 96.7748 54.2212C97.0864 53.6511 97.23 53.0417 97.277 52.4077C97.2986 51.794 97.1815 51.156 96.9174 50.5893C96.3716 49.3677 95.1579 48.3085 93.2774 48.3085C90.7545 48.3085 89.3248 50.3319 89.3248 52.3345V52.3558ZM100.371 58.7658H97.2516V56.9053C96.4186 58.41 94.6812 59.1652 92.8482 59.1652C88.6575 59.1652 86.2081 55.9362 86.2081 52.2874C86.2081 48.214 89.1827 45.4354 92.8482 45.4354C95.2275 45.4354 96.6807 46.6836 97.2516 47.721V45.8343H100.371V58.7658Z" fill="#191919"/>
</g>
<defs>
<clipPath id="clip0_2358_2042">
<rect width="100" height="100" fill="white" transform="translate(0.371094 0.0839844)"/>
</clipPath>
</defs>
</svg>
