<svg width="101" height="101" viewBox="0 0 101 101" fill="none" xmlns="http://www.w3.org/2000/svg">
<g clip-path="url(#clip0_2358_2036)">
<path d="M0.548828 60.2041V45.9189H3.80761V47.7288C4.62979 46.2622 6.42028 45.4982 8.03295 45.4982C9.91146 45.4982 11.554 46.3503 12.3182 48.0228C13.4361 46.1443 15.1087 45.4982 16.9572 45.4982C19.5417 45.4982 22.0064 47.1425 22.0064 50.9295V60.2041H18.7195V51.4858C18.7195 49.8133 17.8674 48.5509 15.959 48.5509C14.1684 48.5509 12.9942 49.9594 12.9942 51.72V60.2024H9.64913V51.4858C9.64913 49.8432 8.82343 48.5598 6.88682 48.5598C5.06817 48.5598 3.92205 49.9102 3.92205 51.7288V60.2111L0.548828 60.2041Z" fill="#191919"/>
<path d="M26.1719 60.204V38.9523H29.5785V60.204H26.1719Z" fill="#191919"/>
<path d="M28.21 67.9823C28.9758 68.1953 29.6642 68.3344 31.1255 68.3344C33.842 68.3344 37.0461 66.8027 37.8895 62.5034L41.3718 45.2657H46.5496L47.1817 42.3977H41.9511L42.6553 38.9717C43.194 36.3115 44.6659 34.9629 47.0285 34.9629C47.643 34.9629 47.4704 35.0157 48.0179 35.1196L48.775 32.183C48.0461 31.9647 47.393 31.8344 45.9704 31.8344C44.4686 31.8118 43.0023 32.2921 41.8049 33.1988C40.4793 34.2235 39.6043 35.7287 39.2047 37.6724L38.224 42.3977H33.5937L33.2152 45.2675H37.6518L34.4546 61.2059C34.1025 63.0139 33.0743 65.1759 30.1237 65.1759C29.4547 65.1759 29.6976 65.1249 29.092 65.0263L28.21 67.9823Z" fill="#191919"/>
<path d="M49.6178 60.0878H46.2129L50.8801 38.6459H54.285L49.6178 60.0878Z" fill="#191919"/>
<path d="M66.6039 46.815C63.6322 44.7356 59.5861 45.1445 57.0905 47.7763C54.5949 50.4081 54.4014 54.4702 56.6356 57.3273L58.8662 55.69C57.7589 54.3164 57.5341 52.4309 58.2872 50.8354C59.0403 49.24 60.639 48.2152 62.4032 48.1971V49.94L66.6039 46.815Z" fill="#191919"/>
<path d="M58.1514 58.7692C61.1231 60.8486 65.1691 60.4397 67.6647 57.8079C70.1603 55.1761 70.3538 51.1141 68.1197 48.257L65.889 49.8943C66.9963 51.2679 67.2211 53.1534 66.468 54.7488C65.7149 56.3443 64.1162 57.3691 62.352 57.3872V55.6443L58.1514 58.7692Z" fill="#191919"/>
<path d="M72.3848 45.91H76.1048L76.8618 55.6724L82.1593 45.91L85.691 45.9611L87.0783 55.6724L91.7455 45.91L95.1503 45.9611L88.0871 60.2129H84.6822L83.0413 49.9963L77.6188 60.2129H74.0872L72.3848 45.91Z" fill="#191919"/>
<path d="M97.2027 46.1635H96.498V45.9188H98.1952V46.1688H97.4915V48.2322H97.2027V46.1635Z" fill="#191919"/>
<path d="M98.623 45.9188H98.9754L99.4187 47.1512C99.4758 47.3096 99.5282 47.4716 99.5825 47.6336H99.5991C99.6533 47.4716 99.703 47.3096 99.7573 47.1512L100.197 45.9188H100.549V48.2322H100.275V46.9558C100.275 46.7533 100.297 46.4752 100.312 46.2691H100.297L100.122 46.7973L99.6846 47.9963H99.4933L99.0508 46.7991L98.8751 46.271H98.8613C98.8769 46.4769 98.8999 46.7551 98.8999 46.9576V48.2339H98.6322L98.623 45.9188Z" fill="#191919"/>
</g>
<defs>
<clipPath id="clip0_2358_2036">
<rect width="100" height="100" fill="white" transform="translate(0.548828 0.0839844)"/>
</clipPath>
</defs>
</svg>
