<svg width="101" height="101" viewBox="0 0 101 101" fill="none" xmlns="http://www.w3.org/2000/svg">
<mask id="mask0_2358_2061" style="mask-type:luminance" maskUnits="userSpaceOnUse" x="24" y="15" width="53" height="71">
<path d="M53.4655 18.7562C53.4655 17.1455 54.7714 15.8396 56.3821 15.8396H73.8823C75.4929 15.8396 76.7989 17.1455 76.7989 18.7562V82.9232C76.7989 84.5339 75.4929 85.8396 73.8823 85.8396H27.2155C25.6048 85.8396 24.2988 84.5339 24.2988 82.923V53.7565C24.2988 52.1456 25.6048 50.8399 27.2155 50.8399H38.8824V36.2564C38.8824 34.6455 40.1881 33.3395 41.799 33.3395H53.4655V18.7562Z" fill="white"/>
</mask>
<g mask="url(#mask0_2358_2061)">
<path d="M76.8002 15.8401V85.8401H53.4668V15.8401H76.8002Z" fill="#191919"/>
</g>
<mask id="mask1_2358_2061" style="mask-type:luminance" maskUnits="userSpaceOnUse" x="24" y="15" width="53" height="71">
<path d="M53.4655 18.7562C53.4655 17.1455 54.7714 15.8396 56.3821 15.8396H73.8823C75.4929 15.8396 76.7989 17.1455 76.7989 18.7562V82.9232C76.7989 84.5339 75.4929 85.8396 73.8823 85.8396H27.2155C25.6048 85.8396 24.2988 84.5339 24.2988 82.923V53.7565C24.2988 52.1456 25.6048 50.8399 27.2155 50.8399H38.8824V36.2564C38.8824 34.6455 40.1881 33.3395 41.799 33.3395H53.4655V18.7562Z" fill="white"/>
</mask>
<g mask="url(#mask1_2358_2061)">
<path d="M62.2164 36.5472V86.1307H38.8828V33.6306H59.2996C60.9103 33.6306 62.2162 34.9363 62.2162 36.5472" fill="black" fill-opacity="0.2"/>
</g>
<mask id="mask2_2358_2061" style="mask-type:luminance" maskUnits="userSpaceOnUse" x="24" y="15" width="53" height="71">
<path d="M53.4655 18.7562C53.4655 17.1455 54.7714 15.8396 56.3821 15.8396H73.8823C75.4929 15.8396 76.7989 17.1455 76.7989 18.7562V82.9232C76.7989 84.5339 75.4929 85.8396 73.8823 85.8396H27.2155C25.6048 85.8396 24.2988 84.5339 24.2988 82.923V53.7565C24.2988 52.1456 25.6048 50.8399 27.2155 50.8399H38.8824V36.2564C38.8824 34.6455 40.1881 33.3395 41.799 33.3395H53.4655V18.7562Z" fill="white"/>
</mask>
<g mask="url(#mask2_2358_2061)">
<path d="M62.2164 37.7158V87.299H38.8828V34.799H59.2996C60.9103 34.799 62.2162 36.1049 62.2162 37.7158" fill="black" fill-opacity="0.18"/>
</g>
<mask id="mask3_2358_2061" style="mask-type:luminance" maskUnits="userSpaceOnUse" x="24" y="15" width="53" height="71">
<path d="M53.4655 18.7562C53.4655 17.1455 54.7714 15.8396 56.3821 15.8396H73.8823C75.4929 15.8396 76.7989 17.1455 76.7989 18.7562V82.9232C76.7989 84.5339 75.4929 85.8396 73.8823 85.8396H27.2155C25.6048 85.8396 24.2988 84.5339 24.2988 82.923V53.7565C24.2988 52.1456 25.6048 50.8399 27.2155 50.8399H38.8824V36.2564C38.8824 34.6455 40.1881 33.3395 41.799 33.3395H53.4655V18.7562Z" fill="white"/>
</mask>
<g mask="url(#mask3_2358_2061)">
<path d="M62.2164 36.2561V85.8393H38.8828V33.3392H59.2996C60.9103 33.3392 62.2162 34.6452 62.2162 36.2561" fill="#272727"/>
</g>
<mask id="mask4_2358_2061" style="mask-type:luminance" maskUnits="userSpaceOnUse" x="24" y="15" width="53" height="71">
<path d="M53.4655 18.7562C53.4655 17.1455 54.7714 15.8396 56.3821 15.8396H73.8823C75.4929 15.8396 76.7989 17.1455 76.7989 18.7562V82.9232C76.7989 84.5339 75.4929 85.8396 73.8823 85.8396H27.2155C25.6048 85.8396 24.2988 84.5339 24.2988 82.923V53.7565C24.2988 52.1456 25.6048 50.8399 27.2155 50.8399H38.8824V36.2564C38.8824 34.6455 40.1881 33.3395 41.799 33.3395H53.4655V18.7562Z" fill="white"/>
</mask>
<g mask="url(#mask4_2358_2061)">
<path d="M24.2988 50.8397V85.8396H47.6322V53.7565C47.6322 52.1457 46.3263 50.8399 44.7156 50.8399L24.2988 50.8397Z" fill="#393939"/>
</g>
</svg>
