<svg width="101" height="101" viewBox="0 0 101 101" fill="none" xmlns="http://www.w3.org/2000/svg">
<path fill-rule="evenodd" clip-rule="evenodd" d="M43.6255 26.7597C45.763 26.7597 47.9005 26.7927 50.0352 26.737C50.6015 26.7222 51.6173 27.1905 51.5718 26.0136C51.5371 25.0558 50.6487 25.4024 50.1103 25.3939C47.6991 25.3558 45.2798 25.2641 42.8782 25.4149C41.1692 25.5214 40.6656 24.8726 40.8801 23.3053C40.9541 22.7647 40.883 22.2047 40.8944 21.6538C40.9695 17.9854 41.8561 16.7368 45.4142 15.8319C49.3341 14.836 53.3457 14.869 57.2548 15.7272C60.769 16.4989 62.2287 19.2328 62.0512 21.7619C61.8349 24.8481 62.0022 27.9611 61.9994 31.0627C61.9943 34.9627 59.9791 37.0325 56.0472 37.0866C52.809 37.131 49.5669 37.1663 46.3304 37.0763C42.4731 36.9682 39.6435 40.1722 39.6241 43.8031C39.6241 44.0785 39.6714 44.3631 39.6167 44.6288C39.339 45.9622 40.4488 48.1174 39.0351 48.5135C36.8839 49.1179 34.3651 49.1179 32.4677 47.1983C31.8247 46.5495 31.2829 45.8228 30.9972 44.9828C29.4726 40.5069 29.2318 35.974 30.6671 31.428C31.5617 28.5905 33.9952 26.8257 37.0097 26.7751C39.2144 26.7381 41.4196 26.7677 43.6243 26.7677L43.6255 26.7597ZM47.5534 20.4313C47.4612 19.3484 46.879 18.5579 45.6776 18.5249C44.3636 18.4907 43.6847 19.2852 43.683 20.5782C43.6818 21.7767 44.3346 22.5444 45.5274 22.5791C46.838 22.6173 47.4726 21.8052 47.5534 20.4313Z" fill="#191919"/>
<path fill-rule="evenodd" clip-rule="evenodd" d="M60.1227 48.7005C57.7098 48.7005 55.2956 48.6794 52.8827 48.7175C52.3392 48.7244 51.4275 48.3806 51.399 49.31C51.3672 50.3639 52.3454 50.0896 52.9669 50.0959C55.3799 50.1261 57.7951 50.1517 60.2075 50.0845C61.447 50.0504 61.953 50.2877 62.0457 51.7491C62.4651 58.3649 59.594 58.9368 54.2986 60.1405C51.2607 60.8308 48.0038 60.4649 45.0081 59.1229C42.5308 58.0149 41.0107 56.418 41.2025 53.428C41.3926 50.4766 41.4244 47.4872 41.1974 44.5387C40.9242 40.9801 43.138 38.3628 47.4432 38.3617C50.3399 38.3611 53.256 38.1403 56.1277 38.4043C60.2337 38.7811 63.4531 35.2219 63.5942 31.0835C63.5999 30.9463 63.5646 30.7989 63.5999 30.6714C63.9619 29.3995 62.6746 27.509 64.3967 26.8664C66.9991 25.8961 69.934 26.916 71.2634 28.8907C72.9394 31.3771 73.1659 34.3029 73.4368 37.1597C73.7299 40.2391 72.866 43.1381 71.5724 45.9159C70.6937 47.7996 69.2164 48.7101 67.1579 48.713C64.8132 48.7147 62.4691 48.713 60.1239 48.713L60.1227 48.7005ZM59.4945 54.8467C59.2367 53.671 58.7062 52.8685 57.3404 52.835C55.9199 52.8008 55.5534 53.8633 55.5608 54.812C55.5688 55.8205 55.8499 57.0611 57.3876 56.945C58.6658 56.8471 59.289 56.0555 59.4945 54.8467Z" fill="#191919"/>
<path fill-rule="evenodd" clip-rule="evenodd" d="M22.1675 79.0219C22.1675 80.4913 22.2341 81.8674 22.1362 83.2315C22.0941 83.82 22.7429 84.9275 21.5085 84.9263C20.4204 84.9263 20.1409 84.0601 20.1757 83.0136C20.2422 81.016 20.195 79.0145 20.195 77.0153V72.4636C20.195 69.7206 20.9308 68.7918 23.5544 68.2239C25.9935 67.6935 27.9103 68.5147 28.8959 70.6499C29.8816 72.7857 29.9579 74.9864 28.9716 77.1593C27.9996 79.3002 26.2092 80.0992 23.9158 79.4647C23.3933 79.3224 22.8658 79.1989 22.1675 79.0219ZM22.1675 73.6451C22.1675 74.402 22.2699 75.1737 22.1464 75.9101C21.8608 77.6123 22.9477 78.0317 24.2293 78.3345C25.4967 78.6338 26.3657 78.0949 26.8739 76.9783C27.7282 75.106 27.8716 73.175 27.2228 71.1951C26.6469 69.4355 25.3169 69.2294 23.7644 69.448C22.2312 69.6659 22.0235 70.7085 22.1573 71.9975C22.2142 72.541 22.1675 73.0959 22.1675 73.6451ZM38.6639 78.9309C37.614 79.204 36.7023 79.4954 35.7689 79.6707C33.7259 80.0526 32.2132 78.9309 31.6811 76.8855C31.021 74.3542 31.5798 71.8325 31.5969 69.3068C31.6043 68.1556 32.6696 68.6046 33.4066 67.9877C33.4066 70.6909 33.4169 73.0242 33.4032 75.3558C33.3958 76.527 33.6986 77.4899 34.806 78.1074C36.0285 78.7892 37.0312 78.1398 38.0954 77.7022C38.858 77.3886 38.763 76.7484 38.7641 76.1394C38.7698 73.9359 38.7635 71.7346 38.7709 69.5311C38.7721 68.9876 38.7157 68.3234 39.5182 68.3502C40.2335 68.3735 40.5448 68.7986 40.5329 69.5783C40.4811 73.2245 40.5841 76.8759 40.4361 80.5169C40.324 83.2702 38.3817 84.9519 35.5874 85.0754C35.1691 85.0931 34.7309 85.1318 34.5744 84.6127C34.336 83.8137 34.983 83.9645 35.4081 83.8285C38.4818 82.8508 38.8836 82.2669 38.6639 78.9309ZM51.653 69.4696C52.4663 69.0855 52.9335 68.7338 53.4474 68.6387C56.331 68.1055 58.5408 68.3086 58.5351 72.1927C58.5312 74.1931 58.5363 76.1941 58.5312 78.1939C58.53 78.7539 58.5659 79.2991 57.731 79.3474C56.8506 79.3998 56.6571 78.8962 56.6611 78.2058C56.6714 76.2783 56.7237 74.3508 56.722 72.4238C56.7209 70.9271 56.4153 69.6022 54.5116 69.6068C52.8419 69.6096 51.6593 70.8559 51.6508 72.5757C51.6412 74.4374 51.6418 76.2992 51.6525 78.1609C51.6542 78.8222 51.6684 79.4021 50.7123 79.3474C49.8513 79.2962 49.9571 78.7157 49.9571 78.1814C49.9514 73.2871 49.9753 68.3878 49.9338 63.4901C49.9264 62.6319 50.265 62.0992 51.0265 62.0628C52.1009 62.0133 51.6087 62.9529 51.6246 63.4241C51.6946 65.3425 51.653 67.2655 51.653 69.4696ZM60.7529 73.8579C60.6442 70.0364 62.4568 67.9962 65.7382 68.1146C67.3852 68.1749 68.6207 68.9056 69.418 70.3284C70.8265 72.8449 70.6359 75.3626 69.1118 77.7193C68.0647 79.3378 66.4542 80.1009 64.4908 79.6844C62.5547 79.2746 61.0386 77.5315 60.7643 75.4998C60.6915 74.962 60.7529 74.4048 60.7529 73.8579ZM68.3333 73.9473C68.2468 73.2803 68.2622 72.3504 67.9845 71.5206C67.6049 70.3824 66.9128 69.4662 65.5009 69.4036C64.0765 69.3421 63.3657 70.1747 62.8905 71.3271C62.1444 73.1363 62.1927 74.9529 63.0009 76.7296C63.5199 77.8741 64.3212 78.7118 65.7098 78.4796C67.0773 78.2514 67.8843 77.355 68.1637 76.0251C68.2906 75.4224 68.2701 74.7907 68.3333 73.9473ZM72.321 74.4566C72.321 73.7669 72.3079 73.0783 72.3233 72.3919C72.3551 71.0688 71.9334 69.6028 73.7176 68.9267C75.7606 68.155 77.7855 67.5768 79.8422 68.7713C80.6116 69.2186 80.895 70.0313 80.903 70.8941C80.924 73.3019 80.8922 75.7109 80.9246 78.1188C80.936 78.9588 80.7152 79.3787 79.7711 79.356C78.7364 79.3315 78.9544 78.6258 78.9612 78.0624C78.9857 76.1389 79.1194 74.217 79.083 72.2963C79.0352 69.8777 77.7081 68.8914 75.447 69.485C74.5092 69.732 73.923 70.1872 73.9691 71.3482C74.0607 73.6143 73.9902 75.8885 73.9987 78.1586C74.001 78.8165 74.0106 79.3992 73.0614 79.344C72.1918 79.294 72.3341 78.6924 72.3272 78.1705C72.3113 76.9322 72.3227 75.6933 72.321 74.4566ZM47.5265 69.0934C47.3842 69.2619 47.2647 69.5259 47.1395 69.5282C44.8836 69.5595 45.5096 71.2435 45.4516 72.4927C45.3964 73.6565 45.4516 74.826 45.4351 75.9932C45.418 77.153 45.5187 78.2309 46.9301 78.5388C47.3347 78.6264 47.5191 78.8597 47.4349 79.2638C47.3421 79.71 46.9864 79.6923 46.6342 79.6878C45.0122 79.6593 43.8097 78.5126 43.7619 76.8337C43.713 75.1185 43.7796 73.3992 43.7392 71.6857C43.7181 70.8719 44.1409 69.8333 42.8286 69.5106C42.6846 69.4759 42.6334 69.0678 42.5395 68.8351C44.2901 68.2859 43.5639 66.7761 43.804 65.6305C43.9179 65.0881 44.4329 64.9396 44.9195 64.8935C45.4117 64.8468 45.4157 65.2452 45.4317 65.5781C45.4965 66.8984 44.8131 68.6655 47.2437 68.5693C47.3251 68.5664 47.4201 68.8897 47.5265 69.0934Z" fill="#191919"/>
</svg>
