<svg width="101" height="101" viewBox="0 0 101 101" fill="none" xmlns="http://www.w3.org/2000/svg">
<g clip-path="url(#clip0_2358_2053)">
<path d="M62.0518 45.8558L62.0488 45.8539C62.0488 45.8539 62.0473 45.8529 62.0453 45.8529C61.9778 45.8237 61.905 45.8085 61.8314 45.8082C61.7167 45.8095 61.6045 45.8424 61.5072 45.9033C61.405 45.9662 61.3245 46.059 61.2768 46.1692V46.1719L59.0139 52.3111L57.2697 48.1962L57.2672 48.1944C57.2182 48.0793 57.1303 47.9905 57.0307 47.9287C56.9288 47.8658 56.8115 47.8324 56.6918 47.8324C56.573 47.8324 56.4625 47.8693 56.3646 47.9295C56.2686 47.9912 56.1816 48.0793 56.1328 48.1944L56.1316 48.1964L54.384 52.3138L52.109 46.1774H52.107C52.0683 46.0645 51.9919 45.9684 51.8906 45.9052C51.7919 45.8427 51.6776 45.809 51.5607 45.8082C51.4843 45.8084 51.4085 45.8236 51.3379 45.8529H51.3344L51.3318 45.8558C51.2293 45.9032 51.1426 45.9789 51.0818 46.0741C51.0211 46.1693 50.989 46.2799 50.9893 46.3928C50.9894 46.4649 51.0035 46.5364 51.0316 46.6073H51.0309L53.8295 54.0562V54.0588C53.8512 54.1142 53.8818 54.1693 53.9272 54.2232C53.96 54.2617 54.0082 54.2942 54.0578 54.3211C54.0931 54.3557 54.1384 54.3783 54.1873 54.3856C54.2371 54.4022 54.3033 54.426 54.392 54.426C54.5053 54.426 54.6103 54.3856 54.7045 54.3256C54.7998 54.2634 54.8733 54.173 54.9148 54.067L54.9221 54.0615L56.6916 49.8682L58.4637 54.0445H58.4656C58.5064 54.1558 58.5781 54.243 58.6613 54.3049C58.7492 54.3703 58.8479 54.4108 58.9523 54.426H59.0266C59.0973 54.426 59.166 54.4127 59.2238 54.3903C59.2776 54.3692 59.3282 54.3408 59.3742 54.3059C59.4691 54.2329 59.5429 54.1361 59.5883 54.0253V54.023L62.3689 46.6073C62.3964 46.5365 62.4102 46.4654 62.4104 46.394C62.4097 46.2791 62.3754 46.1668 62.3117 46.0712C62.2479 45.9755 62.1576 45.9006 62.0518 45.8558ZM49.2586 50.1083C49.2586 49.2335 48.9197 48.4413 48.3809 47.8693C47.8389 47.2962 47.1049 46.9459 46.3078 46.9459C45.5103 46.9459 44.7746 47.2962 44.2338 47.8693C43.6937 48.4413 43.3549 49.2335 43.3549 50.1081C43.3549 50.9821 43.6937 51.7669 44.2338 52.3351C44.7748 52.9056 45.5103 53.2506 46.3078 53.2506C47.1049 53.2506 47.8414 52.9058 48.3809 52.3353C48.9199 51.7669 49.2586 50.9821 49.2586 50.1083ZM49.2432 47.0717C49.9916 47.8584 50.4463 48.9379 50.4482 50.1083C50.4463 51.2785 49.9916 52.3568 49.2432 53.1437C48.5004 53.9294 47.4629 54.4262 46.3096 54.4262C45.165 54.4262 44.126 53.9294 43.3805 53.1437C42.6042 52.3235 42.1715 51.237 42.1715 50.1076C42.1715 48.9782 42.6042 47.8917 43.3805 47.0715C44.126 46.2868 45.165 45.79 46.3096 45.79C47.4629 45.79 48.5004 46.287 49.2432 47.0717ZM37.4604 45.8052C36.5326 45.8052 35.6855 46.1637 35.0531 46.7357V46.3938C35.0534 46.2408 34.9949 46.0934 34.8898 45.9822C34.8366 45.9265 34.7727 45.8821 34.7018 45.8517C34.631 45.8212 34.5548 45.8054 34.4777 45.8052C34.3985 45.8045 34.3199 45.8198 34.2466 45.85C34.1733 45.8802 34.1068 45.9247 34.051 45.981C33.9439 46.0917 33.8841 46.2398 33.8844 46.3938V54.0156L33.9088 54.0398L33.9098 54.0435C33.916 54.0687 33.9322 54.0963 33.9494 54.1232C34.0317 54.2671 34.167 54.3731 34.3264 54.4186L34.3498 54.426H34.4777C34.5629 54.426 34.6488 54.408 34.7305 54.3701C34.7984 54.3379 34.8617 54.2859 34.9125 54.2193L34.9145 54.2203C34.9207 54.2141 34.9227 54.2059 34.9299 54.1998C34.9327 54.1983 34.9351 54.196 34.9369 54.1934C34.9686 54.1529 34.9951 54.1117 35.0113 54.073C35.0256 54.033 35.0378 53.9922 35.0477 53.9509L35.0531 53.9292V49.3529C35.0683 48.7211 35.3282 48.12 35.7779 47.6761C36.2243 47.2302 36.8295 46.9798 37.4604 46.9801C38.1273 46.9801 38.7223 47.2462 39.1537 47.6761C39.3747 47.8944 39.5501 48.1546 39.6695 48.4414C39.789 48.7282 39.8501 49.0359 39.8494 49.3466V53.8407C39.8494 54.0048 39.9201 54.1568 40.0271 54.2607C40.1395 54.3667 40.2881 54.4258 40.4426 54.4258C40.597 54.4258 40.7456 54.3667 40.858 54.2607C40.9684 54.1568 41.0355 54.0048 41.0355 53.8407V49.3466C41.0355 47.4067 39.4373 45.8082 37.4604 45.8054M95.8656 49.2747C95.5285 47.9195 94.3279 46.9539 92.9582 46.9568C91.5539 46.9568 90.3697 47.9016 90.0027 49.2747H95.8656ZM97.1637 49.8299V49.8881C97.1637 50.0507 97.0904 50.1972 96.9791 50.2933C96.8686 50.3902 96.7246 50.4406 96.5695 50.4423H89.9203C90.0897 52.0505 91.3852 53.2383 92.9318 53.2506H93.324C93.8357 53.2523 94.3344 53.0771 94.7729 52.7872C95.2123 52.5 95.5918 52.0984 95.8592 51.6565C95.9111 51.567 95.9874 51.4941 96.0791 51.4463C96.1643 51.4004 96.2597 51.3766 96.3564 51.3771C96.4615 51.3771 96.5658 51.4041 96.6572 51.4588L96.6637 51.4615L96.6709 51.467C96.8377 51.5881 96.942 51.7733 96.942 51.9763C96.942 52.0794 96.9148 52.1847 96.8576 52.2797L96.8559 52.2836L96.8539 52.2851C96.4824 52.8708 95.976 53.4051 95.3744 53.7923C94.7719 54.1801 94.0734 54.4262 93.324 54.4262H92.9256C91.7586 54.418 90.7039 53.9294 89.9437 53.1482C89.156 52.3391 88.716 51.2539 88.718 50.1245C88.718 48.9289 89.1891 47.8441 89.9539 47.0592C90.7186 46.2752 91.7811 45.7902 92.9582 45.7902C94.0816 45.7902 95.091 46.2329 95.8383 46.9578C96.5859 47.6826 97.0742 48.689 97.1613 49.8217L97.1637 49.8299ZM69.8896 42.2427C69.7275 42.2427 69.5791 42.3101 69.4723 42.416C69.4171 42.47 69.3733 42.5344 69.3433 42.6055C69.3133 42.6766 69.2977 42.753 69.2975 42.8302V53.8407C69.2975 54.0013 69.365 54.1486 69.4723 54.2529C69.5838 54.3624 69.7334 54.4245 69.8896 54.4262C70.2258 54.4262 70.4977 54.1639 70.4996 53.8407V42.83C70.4977 42.5057 70.2258 42.2425 69.8896 42.2425M31.1426 49.8979C30.6641 49.6744 30.1215 49.5091 29.5799 49.3314C29.0814 49.1643 28.5758 49.0223 28.215 48.8356C28.034 48.7394 27.8928 48.6381 27.8012 48.524C27.7078 48.4101 27.6625 48.294 27.6598 48.136C27.6607 47.9195 27.7242 47.7453 27.8311 47.591C27.9932 47.36 28.265 47.1803 28.5621 47.0643C28.8557 46.948 29.1738 46.8931 29.4012 46.8931C30.0734 46.8941 30.4984 47.1159 30.8246 47.3456C30.9857 47.4616 31.1219 47.579 31.2504 47.6761C31.3166 47.7265 31.3781 47.7722 31.4498 47.8062C31.5176 47.8394 31.5975 47.8666 31.6844 47.8666C31.7396 47.8666 31.7951 47.8566 31.8455 47.8353C31.899 47.8139 31.9453 47.783 31.9898 47.7455C32.0339 47.7048 32.0702 47.6563 32.0967 47.6025C32.1195 47.5489 32.1312 47.4912 32.1311 47.4329C32.1311 47.3286 32.0975 47.2307 32.0494 47.1389C31.9598 46.9773 31.8219 46.823 31.6463 46.6685C31.3853 46.4386 31.0412 46.2194 30.6705 46.0543C30.2988 45.889 29.9004 45.7767 29.5207 45.7767C28.641 45.7767 27.9062 45.9742 27.3725 46.3381C27.0943 46.5284 26.8498 46.7367 26.6768 47.0242C26.501 47.3124 26.4031 47.6681 26.3904 48.1305C26.3898 48.1514 26.3895 48.172 26.3896 48.1925C26.3877 48.6418 26.5336 49.0118 26.7627 49.3017C27.1107 49.7383 27.6273 49.9995 28.1338 50.1847C28.6393 50.3695 29.1447 50.4801 29.4639 50.5859C29.9131 50.734 30.3906 50.8948 30.7385 51.1075C30.9117 51.2163 31.0519 51.3332 31.1473 51.4615C31.2396 51.5936 31.2918 51.7299 31.2939 51.9026V51.9153C31.293 52.1648 31.2189 52.3607 31.0965 52.5285C30.9117 52.7782 30.6043 52.9613 30.2781 53.0771C29.9531 53.1904 29.615 53.2383 29.3975 53.2383C28.6301 53.2383 28.1166 53.0546 27.7441 52.871C27.5574 52.7782 27.4062 52.6866 27.2693 52.6092C27.2051 52.5729 27.1388 52.5403 27.0709 52.5115C27.0034 52.4826 26.9307 52.4675 26.8572 52.4672C26.8064 52.4669 26.7559 52.476 26.7084 52.4942C26.6603 52.5146 26.6162 52.5432 26.5779 52.5787C26.5258 52.6273 26.4823 52.6845 26.4494 52.7477C26.4188 52.8104 26.403 52.8792 26.4031 52.9489C26.4031 53.0638 26.4465 53.1689 26.5084 53.2641C26.6053 53.4014 26.7475 53.5245 26.925 53.6475C27.108 53.7687 27.3266 53.8882 27.5783 54.006C28.1365 54.2672 28.8521 54.4037 29.3959 54.4127H29.3975C30.2432 54.4127 30.973 54.2195 31.5883 53.7706V53.7694H31.5893C32.1908 53.3205 32.565 52.6532 32.565 51.8999C32.565 51.4857 32.4672 51.1347 32.2961 50.8473C32.0379 50.4117 31.6184 50.1245 31.1426 49.8979ZM78.825 50.1083C78.825 49.2253 78.4889 48.4341 77.9516 47.8631C77.415 47.2936 76.6785 46.948 75.873 46.9461C75.0738 46.9461 74.3402 47.2936 73.7982 47.8631C73.2602 48.4341 72.9195 49.2253 72.9195 50.1083C72.9195 50.9901 73.2602 51.7762 73.7982 52.3426C74.3373 52.9093 75.0738 53.2506 75.873 53.2506C76.6803 53.2506 77.4168 52.9093 77.9533 52.3445C78.4889 51.776 78.825 50.9909 78.825 50.1083ZM79.8324 45.9537C79.8887 46.0084 79.9335 46.0738 79.964 46.1461C79.9945 46.2185 80.0102 46.2962 80.0102 46.3747V53.8407C80.009 53.9957 79.9465 54.1439 79.8363 54.2529C79.7246 54.3625 79.5748 54.4246 79.4184 54.4262C79.2555 54.4262 79.1059 54.3569 79.0008 54.2529C78.9455 54.1994 78.9015 54.1353 78.8713 54.0646C78.8412 53.9938 78.8254 53.9177 78.825 53.8407V53.1123C78.0791 53.9107 77.032 54.4262 75.873 54.4262C74.7197 54.4262 73.6814 53.9349 72.9375 53.1482C72.1912 52.3652 71.7344 51.2865 71.7344 50.1083C71.7344 48.9301 72.1912 47.8504 72.9375 47.0666C73.6814 46.2805 74.7197 45.7902 75.873 45.7902C77.0312 45.7902 78.0791 46.2907 78.825 47.0852V46.3747C78.825 46.2106 78.893 46.0588 79.0025 45.9537C79.1153 45.8481 79.2641 45.7896 79.4186 45.7902C79.5752 45.7902 79.7246 45.8503 79.8324 45.9537ZM88.1981 46.7107C88.3158 46.5948 88.3801 46.4411 88.3801 46.2887C88.3795 46.2116 88.363 46.1354 88.3315 46.0651C88.3 45.9947 88.2542 45.9316 88.1971 45.8798H88.1981C88.1971 45.8763 88.1941 45.8763 88.1941 45.8763C88.1936 45.8736 88.1916 45.8726 88.1916 45.8726H88.1898C88.0804 45.7634 87.9324 45.7015 87.7777 45.7003C87.6244 45.7003 87.475 45.7634 87.3609 45.8763L82.7283 50.3517V42.83C82.7283 42.5057 82.4547 42.2425 82.1184 42.2425C81.9564 42.2425 81.8078 42.3099 81.702 42.4158C81.5965 42.5211 81.5262 42.6692 81.5262 42.83V53.8405C81.5262 54.0011 81.5965 54.1484 81.702 54.2527C81.8129 54.3625 81.9623 54.4247 82.1184 54.426C82.4547 54.426 82.7283 54.1637 82.7283 53.8405V52.0237L84.2369 50.5301L87.3121 54.2078C87.3699 54.2922 87.4488 54.3504 87.5266 54.3811C87.6154 54.4143 87.7018 54.426 87.7785 54.426C87.8844 54.426 88.0342 54.4036 88.1656 54.301L88.1729 54.2967L88.1807 54.2885C88.3037 54.1681 88.3736 54.0084 88.3736 53.845C88.3736 53.7075 88.3223 53.5674 88.2271 53.4553V53.4533L85.0967 49.6812L88.1953 46.7105L88.1981 46.7107ZM67.4453 42.2689H67.3131C67.2955 42.2689 67.2787 42.2707 67.2604 42.2713C67.2441 42.2707 67.2268 42.2689 67.2098 42.2689C66.8682 42.2689 66.5365 42.3074 66.2266 42.4096C65.9211 42.5104 65.6396 42.6766 65.4213 42.9288L65.4203 42.9278L65.4195 42.9288V42.9298C65.1939 43.1785 65.0451 43.4758 64.9547 43.8136C64.8641 44.1531 64.8268 44.5356 64.8232 44.9701V45.8121H63.8873C63.5621 45.8136 63.3039 46.0713 63.3039 46.3831C63.3021 46.5445 63.3636 46.7002 63.4752 46.8168C63.5863 46.9303 63.7358 46.9983 63.8943 47.0072H64.8232V53.855L64.8223 53.871C64.8223 54.0318 64.8902 54.1799 65 54.2861C65.1084 54.3903 65.2609 54.4522 65.4268 54.4522C65.58 54.4512 65.7266 54.3894 65.8344 54.2805C65.9422 54.1715 66.0025 54.0243 66.002 53.871V47.0072H67.0084C67.1662 46.9996 67.3155 46.9336 67.4273 46.822C67.5367 46.7136 67.6039 46.561 67.6039 46.3956V46.3733C67.6002 46.065 67.3402 45.8119 67.0148 45.8119H66.002V44.9738C66.0084 44.603 66.0473 44.3254 66.1035 44.1234C66.1578 43.9202 66.2322 43.7929 66.299 43.714C66.3645 43.6438 66.4494 43.5854 66.5881 43.5385C66.7277 43.4938 66.9207 43.4651 67.1818 43.4651H67.2125C67.2277 43.4651 67.2441 43.4623 67.2586 43.4623C67.2768 43.4623 67.2938 43.4651 67.3131 43.4651H67.4453C67.7793 43.4651 68.0488 43.1974 68.0488 42.8669C68.0488 42.5364 67.7793 42.2689 67.4453 42.2689ZM100.193 45.798C100.193 46.5698 99.6721 47.2143 98.8014 47.2143C97.9365 47.2143 97.4215 46.5638 97.4215 45.798C97.4215 45.026 97.9365 44.3817 98.8014 44.3817C99.6721 44.3817 100.193 45.026 100.193 45.798ZM99.9174 45.798C99.9174 45.1416 99.476 44.6429 98.8014 44.6429C98.1389 44.6429 97.6973 45.117 97.6973 45.798C97.6973 46.4481 98.1389 46.9525 98.8014 46.9525C99.4758 46.9525 99.9174 46.4544 99.9174 45.798ZM98.2553 45.1596H98.8502C99.1752 45.1596 99.3898 45.3358 99.3898 45.6093C99.3898 45.7796 99.3039 45.9072 99.1752 45.9863L99.4084 46.3204V46.3874H99.0709L98.8441 46.065H98.5805V46.3874H98.2553V45.1596ZM98.8441 45.4575H98.5805V45.7796H98.8441C98.9668 45.7796 99.0465 45.7249 99.0465 45.6216C99.0465 45.5122 98.9729 45.4575 98.8441 45.4575ZM9.07617 53.0753C9.79238 53.1261 10.3613 53.7083 10.3855 54.4256L10.3863 54.4735V59.979C10.3863 60.7549 9.75117 61.3836 8.97129 61.3836C8.20351 61.3836 7.58008 60.7803 7.55508 60.0262L7.55429 59.979V56.8994L4.85898 58.4406C4.183 58.8303 3.31855 58.5996 2.92617 57.9295C2.54375 57.2719 2.75703 56.4331 3.40078 56.0338L3.44355 56.0084L8.25449 53.2586C8.5033 53.115 8.78993 53.051 9.07617 53.0753ZM14.7678 53.2281L14.8234 53.2586L19.6334 56.0086C19.7941 56.1002 19.935 56.2227 20.0481 56.369C20.1612 56.5154 20.2442 56.6826 20.2924 56.8612C20.3406 57.0398 20.3529 57.2262 20.3288 57.4095C20.3046 57.5929 20.2444 57.7697 20.1516 57.9297C19.7693 58.5855 18.9322 58.8205 18.2625 58.4648L18.2189 58.4407L15.5254 56.8994V59.9792C15.5254 60.7551 14.8922 61.3838 14.1084 61.3838C13.3408 61.3838 12.7189 60.7805 12.6939 60.0264L12.6932 59.9792V54.4735C12.6932 53.7345 13.2693 53.1275 14.0031 53.0753C14.2673 53.0528 14.5326 53.1057 14.7678 53.2281ZM2.27461 46.0904L2.31816 46.1143L7.12558 48.8658C7.44811 49.0483 7.68505 49.3513 7.78437 49.7084C7.81601 49.819 7.83047 49.9292 7.83593 50.0397C7.84013 50.1946 7.81835 50.3491 7.77148 50.4969C7.67246 50.8161 7.4621 51.0892 7.17871 51.2664L7.12558 51.2982L2.31816 54.0515C1.63945 54.4387 0.774411 54.2096 0.384763 53.5397C0.200565 53.2247 0.147095 52.85 0.235814 52.496C0.324533 52.142 0.548381 51.8368 0.859372 51.6459L0.902341 51.6205L3.58867 50.0847L0.902146 48.5447C0.22363 48.1565 -0.00840124 47.2997 0.384763 46.629C0.766013 45.9717 1.60293 45.737 2.27461 46.0904ZM22.6947 46.629C23.0871 47.2999 22.8551 48.1565 22.1766 48.5447L19.4902 50.0847L22.1768 51.6205C22.8553 52.0093 23.0873 52.8661 22.6949 53.5397C22.3035 54.2096 21.4375 54.4387 20.7613 54.0515L15.9504 51.2982C15.6297 51.113 15.4068 50.8229 15.308 50.4969C15.2611 50.3492 15.2396 50.1946 15.2445 50.0397C15.2471 49.9294 15.2638 49.819 15.2945 49.7084C15.3943 49.3524 15.6298 49.0499 15.9504 48.8658L20.7615 46.1143C21.4375 45.7271 22.3035 45.9574 22.6951 46.629M11.8328 47.4587C11.9145 47.4587 12.0266 47.5046 12.0838 47.5628L14.083 49.5424C14.14 49.5988 14.1863 49.7111 14.1863 49.792V50.3757C14.1863 50.4549 14.14 50.567 14.083 50.6227L12.0834 52.6022C12.0262 52.6604 11.9158 52.7081 11.8324 52.7081H11.2445C11.1637 52.7081 11.0514 52.6604 10.9934 52.6022L8.99472 50.6227C8.93769 50.567 8.89121 50.4547 8.89121 50.3757V49.792C8.89121 49.7111 8.93769 49.5988 8.99472 49.5424L10.9934 47.5628C11.0514 47.5046 11.1637 47.4587 11.2445 47.4587H11.8328ZM11.55 49.1481H11.5275C11.4469 49.1481 11.3346 49.195 11.2783 49.2513L10.6994 49.8225C10.6414 49.8817 10.5969 49.9932 10.5969 50.0731V50.0956C10.5969 50.1745 10.6414 50.2851 10.6994 50.3425L11.2783 50.9155C11.3353 50.9722 11.4469 51.0186 11.5275 51.0186H11.55C11.6309 51.0186 11.7434 50.972 11.8002 50.9155L12.3793 50.3425C12.4363 50.2851 12.4852 50.1745 12.4852 50.0956V50.0731C12.4852 49.993 12.4363 49.8817 12.3793 49.8225L11.8002 49.2513C11.7432 49.1948 11.6309 49.1481 11.55 49.1481ZM14.1084 38.7842C14.876 38.7842 15.4994 39.3876 15.5246 40.1395L15.5254 40.1868V43.2674L18.2189 41.7245C18.8959 41.3365 19.7611 41.5666 20.1516 42.2373C20.3349 42.5526 20.3877 42.9272 20.2989 43.281C20.2101 43.6348 19.9865 43.9399 19.676 44.1312L19.6334 44.1566L14.8232 46.9092C14.5746 47.0515 14.2887 47.1154 14.0031 47.0922C13.2853 47.0397 12.7182 46.4567 12.6939 45.7402L12.6932 45.6921V40.1868C12.6932 39.413 13.3248 38.7842 14.1084 38.7842ZM8.97129 38.7842C9.73515 38.7842 10.3603 39.3876 10.3855 40.1395L10.3863 40.1868V45.6919C10.3863 46.4304 9.8082 47.0383 9.07636 47.092C8.81177 47.1134 8.54647 47.0604 8.31035 46.9391L8.25449 46.9088L3.44355 44.1564C3.2829 44.065 3.14195 43.9427 3.02886 43.7965C2.91576 43.6503 2.83276 43.4832 2.78464 43.3047C2.73653 43.1262 2.72427 42.94 2.74856 42.7567C2.77285 42.5735 2.83322 42.3968 2.92617 42.2371C3.31015 41.5807 4.14648 41.3463 4.81543 41.7002L4.85879 41.7243L7.5541 43.2672V40.1866C7.55429 39.4132 8.1873 38.7842 8.97129 38.7842Z" fill="#191919"/>
</g>
<defs>
<clipPath id="clip0_2358_2053">
<rect width="100" height="100" fill="white" transform="translate(0.193359 0.0839844)"/>
</clipPath>
</defs>
</svg>
