<svg width="101" height="101" viewBox="0 0 101 101" fill="none" xmlns="http://www.w3.org/2000/svg">
<g clip-path="url(#clip0_2358_2057)">
<g clip-path="url(#clip1_2358_2057)">
<path d="M10.5023 40.6726V41.631H8.74219V42.2543H10.5023V44.1631H11.1904V42.2543H12.9947V41.631H11.1904V39.7181H10.5023V40.6726Z" fill="#191919"/>
<path d="M4.75039 43.1035V44.4942H2.08594V45.3669H4.75039V48.1913H5.73848V45.3669H8.44277V44.4942H5.73848V41.7128H4.75039V43.1035Z" fill="#191919"/>
<path d="M15.9152 43.1035V44.4942H13.251V45.4099H15.9152V48.1913H16.9434V45.4099H19.6076V44.4942H16.9434V41.7128H15.9152V43.1035Z" fill="#191919"/>
<path d="M10.2467 47.8408V49.3991H7.28223V50.56H10.2467V53.6765H11.4467V50.56H14.4111V49.3991H11.4467V46.2825H10.2467V47.8408Z" fill="#191919"/>
<path d="M18.9635 48.6276V49.6054H17.1592V50.3963H18.9635V52.3481H19.8635V50.3963H21.6678V49.6054H19.8635V47.6538H18.9635V48.6276Z" fill="#191919"/>
<path d="M1.78555 48.7135V49.6485H0.0253906V50.3108H1.78555V52.1806H2.47363V50.3108L4.27793 50.2484V49.6485H2.47363V47.7784H1.78555V48.7135Z" fill="#191919"/>
<path d="M4.75039 53.1156V54.5063H2.08594V55.4219H4.75039V58.2034H5.77852V55.4219H8.44277V54.5063H5.77852V51.7249H4.75039V53.1156Z" fill="#191919"/>
<path d="M15.9152 53.1156V54.5063H13.251V55.379H15.9152V58.2034H16.9434V55.379H19.6076V54.5063H16.9434V51.7249H15.9152V53.1156Z" fill="#191919"/>
<path d="M10.4184 56.6491V57.623H8.61426V58.4138H10.4184V60.3656H11.3186V58.4138H13.1227V57.623H11.3186V55.6711H10.4184V56.6491Z" fill="#191919"/>
<path d="M65.8969 43.871V55.7141H64.5248V43.871H65.8969ZM31.801 45.5345V49.3133H35.4934V50.5601H31.801V54.6311H30.4287V50.5601H26.7363V49.3133H30.4287V45.5345H31.801ZM74.7459 48.1292C74.9939 48.1406 75.31 48.1797 75.4541 48.2147C75.6296 48.262 75.8008 48.3233 75.966 48.3979C76.1102 48.4603 76.3422 48.5965 76.4822 48.7016C76.6262 48.8068 76.8262 49.0018 76.9303 49.1342C77.0342 49.2665 77.1822 49.5081 77.2623 49.6679C77.3424 49.8276 77.4463 50.1082 77.4943 50.2911C77.5422 50.4743 77.5982 50.8444 77.6424 51.6001H72.8977L72.9258 51.7561C72.9377 51.8416 72.9896 52.0248 73.0297 52.1612C73.0738 52.2976 73.1859 52.5117 73.2738 52.6325C73.3617 52.7533 73.4937 52.8974 73.5617 52.9482C73.634 52.9988 73.7779 53.0844 73.8859 53.139C74.0174 53.1994 74.1539 53.2489 74.2939 53.287C74.4139 53.3182 74.734 53.3454 75.0221 53.3454C75.3061 53.3454 75.7141 53.3182 75.9262 53.2832C76.1383 53.2482 76.4381 53.178 76.5902 53.131C76.7422 53.0844 76.9422 53.0104 77.0303 52.9674C77.1182 52.9246 77.2102 52.8857 77.2342 52.8857C77.2611 52.8857 77.277 53.1036 77.2781 54.0078V54.1324L77.0422 54.2376C76.9102 54.296 76.6381 54.3896 76.4301 54.4479C76.2221 54.5025 75.8422 54.5725 75.582 54.5999C75.226 54.6349 74.9859 54.6349 74.6139 54.5999C74.342 54.5725 73.9459 54.5025 73.7338 54.444C73.5219 54.3856 73.2139 54.2688 73.0537 54.183C72.8896 54.0974 72.6137 53.8987 72.4377 53.7389C72.2576 53.5791 72.0336 53.3182 71.9297 53.1584C71.8256 52.9986 71.6977 52.7261 71.6375 52.5547C71.5775 52.3831 71.5057 52.0832 71.4775 51.8922C71.4455 51.6781 71.4375 51.3781 71.4535 51.1444C71.4656 50.9262 71.5176 50.5989 71.5656 50.4159C71.6137 50.2329 71.7297 49.9328 71.8215 49.7496C71.9137 49.5667 72.0855 49.3055 72.1977 49.1692C72.3137 49.0328 72.5416 48.8224 72.7057 48.7016C72.8697 48.5809 73.1457 48.4291 73.3178 48.3589C73.4857 48.2887 73.7779 48.2069 73.9619 48.1719C74.1818 48.133 74.4459 48.1174 74.7459 48.1292ZM88.9998 48.0668V50.1548C88.9998 51.3041 88.9877 52.6793 88.9356 54.1792L88.5916 54.2804C88.4035 54.335 88.0234 54.4207 87.7436 54.4635C87.3875 54.5259 87.0475 54.5491 86.5873 54.5491C86.2232 54.5491 85.8033 54.5297 85.6512 54.5063C85.4992 54.4791 85.1992 54.4052 84.9871 54.339C84.7592 54.2686 84.4631 54.1324 84.2791 54.0156C84.099 53.9025 83.851 53.7037 83.723 53.5675C83.599 53.4351 83.423 53.2014 83.3389 53.0532C83.2549 52.9052 83.1389 52.6325 83.083 52.4533C82.999 52.1924 82.975 51.9898 82.9549 51.5183C82.943 51.1404 82.9549 50.8054 82.9869 50.6225C83.0148 50.4627 83.0869 50.1938 83.1471 50.0224C83.2029 49.851 83.335 49.5783 83.4391 49.4185C83.5391 49.2587 83.7551 49.0056 83.9189 48.8574C84.1031 48.6939 84.3432 48.5265 84.5391 48.4329C84.715 48.3511 84.9711 48.2497 85.1152 48.2109C85.2553 48.1757 85.6033 48.133 85.8873 48.1214C86.2674 48.1058 86.4873 48.1214 86.7232 48.168C86.9033 48.2069 87.1715 48.2927 87.3273 48.3627C87.4795 48.4291 87.6115 48.4875 87.6154 48.4835C87.6228 48.4835 87.6268 48.4049 87.6273 48.3049V48.0668H88.9998ZM46.5307 48.0668V50.6645L46.5301 50.9357C46.5271 52.1549 46.5098 53.3516 46.4666 54.1792L46.1227 54.2804C45.9346 54.335 45.5387 54.4207 45.2426 54.4713C44.7904 54.5453 44.5863 54.5531 43.9344 54.5375C43.3303 54.5219 43.0863 54.4985 42.8182 54.4324C42.6262 54.3818 42.2982 54.261 42.0861 54.1596C41.8621 54.0506 41.5939 53.8793 41.442 53.7507C41.302 53.6259 41.1021 53.4039 41.0061 53.2598C40.9061 53.1116 40.774 52.878 40.718 52.7417C40.6619 52.6053 40.5779 52.3326 40.5379 52.1416C40.482 51.8612 40.4699 51.6547 40.4859 51.164C40.5059 50.6923 40.534 50.4625 40.602 50.2289C40.6539 50.0574 40.7738 49.777 40.866 49.6055C40.9578 49.4343 41.142 49.1732 41.2781 49.029C41.418 48.881 41.6461 48.6861 41.7859 48.5927C41.9262 48.5031 42.1582 48.3823 42.3021 48.3277C42.4869 48.2598 42.6769 48.2064 42.8703 48.168C43.0422 48.1368 43.3623 48.1096 43.5783 48.1096C43.7982 48.1096 44.1104 48.1408 44.2783 48.1719C44.4424 48.2069 44.7023 48.2927 44.8584 48.3627C45.0105 48.4291 45.1426 48.4875 45.1465 48.4835C45.1504 48.4835 45.1584 48.3901 45.1584 48.2771V48.0668H46.5307ZM54.5596 45.1177L54.5598 47.0973C54.5611 48.3184 54.5729 48.3964 54.6355 48.3783C54.6797 48.3627 54.8875 48.3083 55.0996 48.2497C55.3516 48.1835 55.6557 48.1408 55.9797 48.1214C56.3479 48.1058 56.5637 48.1175 56.8359 48.168C57.068 48.2109 57.3438 48.3043 57.5879 48.4213C57.8 48.5225 58.0801 48.6939 58.2121 48.8068C58.34 48.916 58.5441 49.1458 58.6602 49.3173C58.7801 49.4885 58.9281 49.7614 58.9922 49.9288C59.0602 50.0924 59.1441 50.4003 59.1842 50.6145C59.2322 50.895 59.2441 51.1366 59.2281 51.5183C59.2162 51.8027 59.1721 52.1574 59.132 52.3054C59.0961 52.4533 59.0002 52.7067 58.924 52.8664C58.848 53.026 58.6961 53.2716 58.5881 53.4077C58.484 53.5441 58.2721 53.7467 58.1199 53.8597C57.9721 53.9726 57.7 54.1284 57.524 54.2064C57.3479 54.2882 57.0559 54.3896 56.8799 54.4363C56.6039 54.5103 56.4277 54.5219 55.6357 54.5257C54.8877 54.5297 54.6436 54.5143 54.3477 54.4518C54.1022 54.3975 53.8581 54.3378 53.6154 54.2726C53.4154 54.218 53.2395 54.1558 53.2234 54.1402C53.2074 54.1246 53.1875 52.091 53.1795 49.6173L53.1635 45.1177H54.5596ZM95.7443 48.2343L95.7404 50.3223V50.8596C95.7418 52.156 95.7502 52.4054 95.8025 52.6049L95.8084 52.626C95.8133 52.6437 95.8187 52.6614 95.8244 52.6793C95.8764 52.8352 95.9725 53.0182 96.0525 53.1116C96.1285 53.1974 96.2885 53.3144 96.4084 53.3688C96.5244 53.4233 96.7484 53.4857 96.9006 53.5051C97.0647 53.5285 97.2967 53.5285 97.4605 53.5051C97.6127 53.4857 97.8367 53.4233 97.9527 53.3688C98.0727 53.3144 98.2326 53.1976 98.3088 53.1116C98.3889 53.0182 98.4887 52.8351 98.5367 52.6793C98.5432 52.6589 98.549 52.6393 98.5545 52.6186L98.5584 52.6028C98.6084 52.3974 98.6184 52.0265 98.6203 49.7181V49.5319L98.6205 49.4356V48.9229L98.6207 48.8137V48.2343H100.025L100.017 50.4899C100.014 52.3719 100.01 52.6947 99.9545 52.9075L99.9494 52.9265L99.941 52.9539L99.9352 52.9724L99.9291 52.991C99.8811 53.1272 99.7811 53.3338 99.7051 53.4467C99.6289 53.5635 99.4971 53.7233 99.4051 53.8091C99.3172 53.8947 99.125 54.031 98.9852 54.1128C98.8449 54.1946 98.573 54.3078 98.385 54.3662C98.1689 54.4324 97.8809 54.4829 97.6129 54.5025C97.3727 54.5141 96.9887 54.5141 96.7527 54.4987C96.4848 54.4829 96.1926 54.4324 95.9807 54.3662C95.7887 54.3078 95.5205 54.1948 95.3766 54.1128C95.2365 54.031 95.0484 53.8947 94.9566 53.8091C94.8686 53.7235 94.7324 53.5637 94.6564 53.4467C94.5844 53.3338 94.4846 53.1272 94.4365 52.991L94.4332 52.9817L94.4269 52.9636C94.4206 52.9454 94.4149 52.9269 94.4098 52.9083L94.4047 52.8889C94.3512 52.674 94.3467 52.3057 94.3363 50.4899L94.3205 48.2341L95.7443 48.2343ZM86.2514 49.3601C86.0992 49.3601 85.8672 49.3913 85.7393 49.4225C85.6072 49.4575 85.4072 49.5355 85.2912 49.5977C85.1752 49.6599 85.0072 49.7886 84.9152 49.886C84.8232 49.9834 84.7031 50.1548 84.6432 50.2717C84.583 50.3847 84.507 50.5951 84.4711 50.7393C84.4352 50.8794 84.407 51.156 84.407 51.3507C84.407 51.5455 84.4352 51.8222 84.4711 51.9624C84.507 52.1066 84.5752 52.3014 84.6271 52.3987C84.6791 52.4961 84.8111 52.6675 84.9191 52.7767C85.0271 52.8896 85.2031 53.022 85.3072 53.0728C85.4152 53.1272 85.6072 53.2014 85.7393 53.2364C85.8873 53.2792 86.1312 53.3026 86.4152 53.3026C86.6555 53.3026 86.9953 53.2832 87.1633 53.2598C87.3354 53.2364 87.4994 53.2014 87.5234 53.1856C87.5594 53.1662 87.5795 52.6637 87.5914 51.4599L87.6035 49.7576C87.1715 49.5433 86.9314 49.4537 86.7873 49.4185C86.6473 49.3835 86.4072 49.3561 86.2514 49.3601ZM43.2662 49.4225C43.1383 49.4575 42.9381 49.5355 42.8223 49.5977C42.7064 49.6599 42.5381 49.7886 42.4461 49.886C42.3541 49.9834 42.2301 50.1548 42.1742 50.2717C42.1141 50.3847 42.0381 50.5951 42.0021 50.7393C41.966 50.8794 41.9381 51.1366 41.9381 51.3079C41.9381 51.4793 41.9582 51.7327 41.982 51.869C42.0102 52.0052 42.082 52.2312 42.15 52.3675C42.2301 52.5311 42.3582 52.6987 42.5223 52.8469C42.6822 52.991 42.8703 53.1116 43.0342 53.174C43.2342 53.252 43.3943 53.2754 43.8062 53.2948C44.0984 53.3066 44.4664 53.291 44.6625 53.2636C44.8504 53.2364 45.0266 53.2014 45.0545 53.1856C45.0865 53.1662 45.1105 52.6247 45.1307 51.4637L45.1584 49.773C44.8064 49.5861 44.6104 49.5003 44.4904 49.4613C44.3744 49.4185 44.1023 49.3795 43.8904 49.3719C43.6264 49.3601 43.4303 49.3757 43.2662 49.4225ZM55.8717 49.3601C55.7076 49.3639 55.4916 49.3835 55.3996 49.4029C55.3037 49.4225 55.0836 49.4885 54.9035 49.5511L54.5836 49.6601V53.1158C55.2557 53.2872 55.3996 53.299 55.8477 53.2872C56.2877 53.2756 56.4316 53.256 56.6437 53.1782C56.7838 53.1236 56.9797 53.0222 57.0719 52.9482C57.168 52.8782 57.3039 52.7457 57.376 52.6561C57.4478 52.5665 57.5518 52.3795 57.6039 52.2432C57.66 52.1068 57.724 51.8456 57.748 51.6627C57.784 51.4135 57.784 51.242 57.7441 50.977C57.714 50.7498 57.6464 50.5289 57.5439 50.3227C57.4639 50.155 57.3238 49.9486 57.2359 49.8628C57.148 49.7772 56.9879 49.6565 56.8799 49.5979C56.7758 49.5357 56.5719 49.4577 56.4277 49.4227C56.2877 49.3837 56.0357 49.3561 55.8717 49.3601ZM74.2699 49.4187C74.1418 49.4539 73.934 49.5435 73.8059 49.6175C73.6777 49.6914 73.4978 49.8356 73.4018 49.937C73.31 50.042 73.1857 50.2135 73.1297 50.3225C73.0736 50.4315 73.0258 50.5369 73.0258 50.5603C73.0258 50.5861 73.5156 50.6015 74.4227 50.6029H76.098C76.0541 50.2953 76.0141 50.1434 75.982 50.0616C75.9461 49.9836 75.842 49.8356 75.75 49.7382C75.6381 49.6175 75.502 49.5317 75.3461 49.4733C75.2141 49.4305 74.974 49.3837 74.81 49.3719C74.618 49.3643 74.4219 49.3797 74.2699 49.4187Z" fill="#191919"/>
</g>
</g>
<defs>
<clipPath id="clip0_2358_2057">
<rect width="100" height="100" fill="white" transform="translate(0.0253906 0.0839844)"/>
</clipPath>
<clipPath id="clip1_2358_2057">
<rect width="100" height="20.7317" fill="white" transform="translate(0.0253906 39.7181)"/>
</clipPath>
</defs>
</svg>
