<svg width="101" height="101" viewBox="0 0 101 101" fill="none" xmlns="http://www.w3.org/2000/svg">
<path d="M80.3939 58.098C79.9465 57.5609 79.3197 57.2041 78.6296 57.0937C77.9394 56.9833 77.2325 57.1267 76.6399 57.4973L50.3623 76.7926V77.6185C50.7414 77.5736 51.1258 77.6095 51.49 77.7239C51.8543 77.8383 52.1901 78.0285 52.4755 78.2821C52.7609 78.5357 52.9894 78.8468 53.1458 79.1951C53.3022 79.5434 53.3831 79.9208 53.3831 80.3026C53.3831 80.6844 53.3022 81.0618 53.1458 81.4101C52.9894 81.7583 52.7609 82.0695 52.4755 82.3231C52.1901 82.5767 51.8543 82.7669 51.49 82.8813C51.1258 82.9957 50.7414 83.0316 50.3623 82.9867C50.9719 82.9894 51.5655 82.7915 52.0516 82.4236L79.8683 61.8895C80.4103 61.435 80.7642 60.7955 80.8613 60.0949C80.9584 59.3944 80.7918 58.6827 80.3939 58.098Z" fill="#191919"/>
<path d="M50.3624 82.9866C49.7052 82.9088 49.0995 82.5925 48.6599 82.0978C48.2203 81.6031 47.9776 80.9643 47.9776 80.3025C47.9776 79.6408 48.2203 79.002 48.6599 78.5073C49.0995 78.0126 49.7052 77.6963 50.3624 77.6185V76.7926L24.0848 57.4973C23.4946 57.1186 22.7856 56.9705 22.0932 57.0812C21.4008 57.192 20.7734 57.554 20.3308 58.0979C19.935 58.6828 19.7768 59.3964 19.8884 60.0937C20 60.7911 20.3729 61.4197 20.9315 61.8519L48.7482 82.386C49.2227 82.7486 49.8027 82.9464 50.4 82.9491L50.3624 82.9866Z" fill="#191919"/>
<path d="M50.363 74.803C49.2716 74.803 48.2047 75.1266 47.2972 75.733C46.3897 76.3393 45.6825 77.2012 45.2648 78.2095C44.8471 79.2179 44.7378 80.3274 44.9508 81.3979C45.1637 82.4683 45.6893 83.4516 46.461 84.2233C47.2328 84.9951 48.216 85.5206 49.2865 85.7336C50.3569 85.9465 51.4665 85.8372 52.4748 85.4195C53.4831 85.0019 54.345 84.2946 54.9513 83.3871C55.5577 82.4796 55.8813 81.4127 55.8813 80.3213C55.8813 78.8577 55.2999 77.4541 54.2651 76.4193C53.2302 75.3844 51.8266 74.803 50.363 74.803ZM50.363 82.9866C49.8269 82.9865 49.3028 82.827 48.8576 82.5283C48.4123 82.2297 48.066 81.8053 47.8625 81.3092C47.6591 80.8131 47.6078 80.2678 47.7152 79.7425C47.8226 79.2172 48.0837 78.7357 48.4655 78.3592C48.8473 77.9828 49.3324 77.7283 49.8591 77.6283C50.3859 77.5283 50.9305 77.5872 51.4236 77.7976C51.9168 78.0079 52.3363 78.3602 52.6287 78.8096C52.9212 79.259 53.0733 79.7852 53.0659 80.3213C53.0659 80.6745 52.9957 81.0242 52.8595 81.35C52.7232 81.6758 52.5235 81.9713 52.272 82.2193C52.0205 82.4673 51.7222 82.6629 51.3945 82.7946C51.0668 82.9263 50.7162 82.9916 50.363 82.9866Z" fill="#191919"/>
<path d="M27.8391 28.8922C27.0954 28.8825 26.3849 28.5827 25.859 28.0568C25.3331 27.5309 25.0334 26.8204 25.0237 26.0767V19.0193C24.9776 18.6197 25.0165 18.2149 25.1379 17.8315C25.2594 17.448 25.4605 17.0945 25.7281 16.7942C25.9958 16.494 26.3239 16.2537 26.6909 16.0892C27.058 15.9247 27.4557 15.8396 27.8579 15.8396C28.2601 15.8396 28.6578 15.9247 29.0249 16.0892C29.3919 16.2537 29.72 16.494 29.9876 16.7942C30.2553 17.0945 30.4564 17.448 30.5778 17.8315C30.6992 18.2149 30.7382 18.6197 30.6921 19.0193V26.0767C30.6822 26.8269 30.3773 27.543 29.8433 28.0699C29.3094 28.5968 28.5893 28.8923 27.8391 28.8922Z" fill="#191919"/>
<path d="M27.7641 53.856C29.3398 53.856 30.6171 52.5787 30.6171 51.003C30.6171 49.4274 29.3398 48.15 27.7641 48.15C26.1885 48.15 24.9111 49.4274 24.9111 51.003C24.9111 52.5787 26.1885 53.856 27.7641 53.856Z" fill="#191919"/>
<path d="M27.7641 45.5598C29.3398 45.5598 30.6171 44.2824 30.6171 42.7068C30.6171 41.1311 29.3398 39.8538 27.7641 39.8538C26.1885 39.8538 24.9111 41.1311 24.9111 42.7068C24.9111 44.2824 26.1885 45.5598 27.7641 45.5598Z" fill="#191919"/>
<path d="M27.7641 37.226C29.3398 37.226 30.6171 35.9487 30.6171 34.373C30.6171 32.7974 29.3398 31.52 27.7641 31.52C26.1885 31.52 24.9111 32.7974 24.9111 34.373C24.9111 35.9487 26.1885 37.226 27.7641 37.226Z" fill="#191919"/>
<path d="M72.8868 37.1509C72.1366 37.1411 71.4205 36.8361 70.8936 36.3022C70.3666 35.7682 70.0712 35.0481 70.0713 34.2979V27.2405C70.0713 26.4938 70.3679 25.7777 70.8959 25.2497C71.4239 24.7217 72.14 24.425 72.8868 24.425C73.6335 24.425 74.3496 24.7217 74.8776 25.2497C75.4056 25.7777 75.7022 26.4938 75.7022 27.2405V34.2979C75.7072 34.6708 75.638 35.041 75.4988 35.3869C75.3595 35.7328 75.1529 36.0476 74.891 36.3131C74.629 36.5785 74.317 36.7893 73.9729 36.9331C73.6289 37.0769 73.2597 37.151 72.8868 37.1509Z" fill="#191919"/>
<path d="M72.9614 53.8935C74.5371 53.8935 75.8144 52.6162 75.8144 51.0405C75.8144 49.4648 74.5371 48.1875 72.9614 48.1875C71.3857 48.1875 70.1084 49.4648 70.1084 51.0405C70.1084 52.6162 71.3857 53.8935 72.9614 53.8935Z" fill="#191919"/>
<path d="M72.9614 45.4472C74.5371 45.4472 75.8144 44.1699 75.8144 42.5942C75.8144 41.0185 74.5371 39.7412 72.9614 39.7412C71.3857 39.7412 70.1084 41.0185 70.1084 42.5942C70.1084 44.1699 71.3857 45.4472 72.9614 45.4472Z" fill="#191919"/>
<path d="M72.9614 21.8724C74.5371 21.8724 75.8144 20.5951 75.8144 19.0194C75.8144 17.4437 74.5371 16.1664 72.9614 16.1664C71.3857 16.1664 70.1084 17.4437 70.1084 19.0194C70.1084 20.5951 71.3857 21.8724 72.9614 21.8724Z" fill="#191919"/>
<path d="M50.3623 62.2648C49.6187 62.2551 48.9082 61.9554 48.3823 61.4295C47.8563 60.9035 47.5566 60.1931 47.5469 59.4494V52.2793C47.627 51.5839 47.9601 50.9421 48.4828 50.4763C49.0054 50.0105 49.681 49.7531 50.3811 49.7531C51.0812 49.7531 51.7568 50.0105 52.2795 50.4763C52.8021 50.9421 53.1352 51.5839 53.2153 52.2793V59.3743C53.2203 59.7521 53.1502 60.1271 53.009 60.4776C52.8679 60.8281 52.6585 61.1471 52.3931 61.416C52.1277 61.6849 51.8115 61.8984 51.4629 62.0441C51.1143 62.1898 50.7402 62.2649 50.3623 62.2648Z" fill="#191919"/>
<path d="M50.3628 70.5611C51.9384 70.5611 53.2158 69.2838 53.2158 67.7081C53.2158 66.1324 51.9384 64.8551 50.3628 64.8551C48.7871 64.8551 47.5098 66.1324 47.5098 67.7081C47.5098 69.2838 48.7871 70.5611 50.3628 70.5611Z" fill="#191919"/>
<path d="M50.3628 46.8737C51.9384 46.8737 53.2158 45.5964 53.2158 44.0207C53.2158 42.4451 51.9384 41.1677 50.3628 41.1677C48.7871 41.1677 47.5098 42.4451 47.5098 44.0207C47.5098 45.5964 48.7871 46.8737 50.3628 46.8737Z" fill="#191919"/>
<path d="M50.3628 38.54C51.9384 38.54 53.2158 37.2627 53.2158 35.687C53.2158 34.1113 51.9384 32.834 50.3628 32.834C48.7871 32.834 47.5098 34.1113 47.5098 35.687C47.5098 37.2627 48.7871 38.54 50.3628 38.54Z" fill="#191919"/>
<path d="M61.6243 45.5222C60.8806 45.5125 60.1701 45.2127 59.6442 44.6868C59.1183 44.1609 58.8185 43.4504 58.8088 42.7068V35.6493C58.7627 35.2497 58.8017 34.8449 58.9231 34.4615C59.0445 34.078 59.2456 33.7245 59.5133 33.4243C59.7809 33.124 60.109 32.8837 60.4761 32.7192C60.8431 32.5547 61.2408 32.4696 61.643 32.4696C62.0453 32.4696 62.443 32.5547 62.81 32.7192C63.1771 32.8837 63.5052 33.124 63.7728 33.4243C64.0404 33.7245 64.2416 34.078 64.363 34.4615C64.4844 34.8449 64.5233 35.2497 64.4773 35.6493V42.7068C64.4674 43.4569 64.1625 44.173 63.6285 44.6999C63.0945 45.2269 62.3745 45.5223 61.6243 45.5222Z" fill="#191919"/>
<path d="M61.6616 30.1685C63.2373 30.1685 64.5146 28.8912 64.5146 27.3155C64.5146 25.7399 63.2373 24.4625 61.6616 24.4625C60.0859 24.4625 58.8086 25.7399 58.8086 27.3155C58.8086 28.8912 60.0859 30.1685 61.6616 30.1685Z" fill="#191919"/>
<path d="M61.6616 62.0771C63.2373 62.0771 64.5146 60.7998 64.5146 59.2241C64.5146 57.6484 63.2373 56.3711 61.6616 56.3711C60.0859 56.3711 58.8086 57.6484 58.8086 59.2241C58.8086 60.7998 60.0859 62.0771 61.6616 62.0771Z" fill="#191919"/>
<path d="M61.6616 53.7434C63.2373 53.7434 64.5146 52.466 64.5146 50.8904C64.5146 49.3147 63.2373 48.0374 61.6616 48.0374C60.0859 48.0374 58.8086 49.3147 58.8086 50.8904C58.8086 52.466 60.0859 53.7434 61.6616 53.7434Z" fill="#191919"/>
<path d="M39.063 62.0771C40.6386 62.0771 41.916 60.7998 41.916 59.2241C41.916 57.6484 40.6386 56.3711 39.063 56.3711C37.4873 56.3711 36.21 57.6484 36.21 59.2241C36.21 60.7998 37.4873 62.0771 39.063 62.0771Z" fill="#191919"/>
<path d="M39.063 38.5399C40.6386 38.5399 41.916 37.2625 41.916 35.6869C41.916 34.1112 40.6386 32.8339 39.063 32.8339C37.4873 32.8339 36.21 34.1112 36.21 35.6869C36.21 37.2625 37.4873 38.5399 39.063 38.5399Z" fill="#191919"/>
<path d="M39.063 30.1685C40.6386 30.1685 41.916 28.8912 41.916 27.3155C41.916 25.7399 40.6386 24.4625 39.063 24.4625C37.4873 24.4625 36.21 25.7399 36.21 27.3155C36.21 28.8912 37.4873 30.1685 39.063 30.1685Z" fill="#191919"/>
<path d="M39.1001 53.7434C38.3625 53.744 37.6534 53.4589 37.1215 52.948C36.5896 52.4371 36.2762 51.74 36.2471 51.003V43.8705C36.2471 43.1238 36.5437 42.4077 37.0717 41.8797C37.5997 41.3517 38.3158 41.0551 39.0625 41.0551C39.8092 41.0551 40.5254 41.3517 41.0534 41.8797C41.5814 42.4077 41.878 43.1238 41.878 43.8705V51.003C41.8587 51.7302 41.5586 52.4216 41.0408 52.9325C40.5229 53.4434 39.8274 53.734 39.1001 53.7434Z" fill="#191919"/>
</svg>
