<svg width="101" height="101" viewBox="0 0 101 101" fill="none" xmlns="http://www.w3.org/2000/svg">
<g clip-path="url(#clip0_2377_8026)">
<path d="M28.5304 41.793C28.5304 43.0328 28.6638 44.0379 28.8964 44.775C29.1918 45.6043 29.5475 46.4105 29.9605 47.1871C30.1268 47.4551 30.1931 47.723 30.1931 47.9578C30.1931 48.2926 29.9938 48.6277 29.5615 48.9629L27.4663 50.3699C27.1669 50.5711 26.8676 50.6714 26.6012 50.6714C26.2688 50.6714 25.9361 50.5039 25.6034 50.2023C25.1549 49.7175 24.754 49.1902 24.4063 48.6277C24.0736 48.0586 23.7409 47.4215 23.3752 46.6512C20.7807 49.7332 17.5213 51.2743 13.597 51.2746C10.8035 51.2746 8.57492 50.4703 6.94509 48.8625C5.31565 47.2539 4.48425 45.1098 4.48425 42.4297C4.48425 39.5821 5.48201 37.2704 7.51086 35.5282C9.53932 33.786 12.2336 32.9149 15.6592 32.9149C16.79 32.9149 17.9541 33.0153 19.1845 33.1829C20.4153 33.3505 21.6791 33.6184 23.0096 33.92V31.4743C23.0096 28.9278 22.4771 27.1524 21.446 26.1138C20.382 25.0751 18.5858 24.5724 16.0249 24.5724C14.8608 24.5724 13.6637 24.7068 12.4329 25.0083C11.2021 25.3099 10.005 25.6782 8.84093 26.1474C8.3089 26.3817 7.90988 26.5157 7.67682 26.5829C7.44377 26.6501 7.2778 26.6833 7.14479 26.6833C6.67907 26.6833 6.44641 26.3482 6.44641 25.6446V24.0029C6.44641 23.4669 6.51311 23.065 6.67907 22.8306C6.84543 22.5958 7.14479 22.3615 7.61052 22.1271C8.7745 21.5237 10.1713 21.0211 11.8008 20.6193C13.4311 20.1837 15.1606 19.983 16.9897 19.983C20.9478 19.983 23.8414 20.8872 25.7038 22.6966C27.533 24.5056 28.4644 27.2528 28.4644 30.9384V41.793H28.5304ZM15.0272 46.8855C16.125 46.8855 17.2557 46.6848 18.4528 46.2824C19.6502 45.8805 20.7147 45.1434 21.6124 44.1383C22.1448 43.502 22.5438 42.7984 22.7432 41.9942C22.9429 41.1903 23.0759 40.2184 23.0759 39.0793V37.6723C22.0672 37.4252 21.0456 37.235 20.0159 37.1028C18.979 36.9702 17.9349 36.9031 16.8897 36.9016C14.6611 36.9016 13.0316 37.3371 11.9342 38.2418C10.8368 39.1465 10.3044 40.4196 10.3044 42.0945C10.3044 43.6691 10.7034 44.8418 11.5348 45.6461C12.3333 46.4836 13.4974 46.8855 15.0272 46.8855ZM41.7342 50.5039C41.1355 50.5039 40.7364 50.4035 40.4704 50.1687C40.2044 49.9679 39.9713 49.4988 39.772 48.8625L31.9564 22.9646C31.7563 22.2943 31.6566 21.8587 31.6566 21.6244C31.6566 21.0884 31.9226 20.7865 32.4551 20.7865H35.7143C36.346 20.7865 36.7788 20.8872 37.0114 21.1216C37.2775 21.3228 37.4772 21.7919 37.6765 22.4283L43.264 44.6074L48.4524 22.4283C48.6188 21.7583 48.8185 21.3228 49.0841 21.1216C49.3505 20.9208 49.8163 20.7869 50.415 20.7869H53.0755C53.7072 20.7869 54.14 20.8872 54.4056 21.1216C54.672 21.3228 54.9047 21.7919 55.0377 22.4283L60.2928 44.8754L66.0463 22.4283C66.2456 21.7583 66.4787 21.3228 66.7113 21.1216C66.9774 20.9208 67.4097 20.7869 68.0085 20.7869H71.1014C71.6338 20.7869 71.9332 21.0548 71.9332 21.6244C71.9332 21.7919 71.8998 21.9595 71.8665 22.1603C71.8331 22.3611 71.7668 22.6294 71.6338 22.9982L63.618 48.8957C63.4187 49.566 63.1859 50.0015 62.9196 50.2023C62.6536 50.4035 62.2213 50.5375 61.6563 50.5375H58.796C58.1639 50.5375 57.7316 50.4371 57.4652 50.2023C57.1992 49.9679 56.9665 49.5324 56.8335 48.8625L51.678 27.2528L46.5562 48.8285C46.3902 49.4988 46.1905 49.9343 45.9245 50.1687C45.6585 50.4035 45.1928 50.5039 44.5944 50.5039H41.7342ZM84.472 51.4086C82.7425 51.4086 81.013 51.2074 79.3502 50.8054C77.687 50.4035 76.3903 49.9675 75.5255 49.4656C74.9931 49.1636 74.6271 48.8289 74.4944 48.5273C74.3651 48.2315 74.2971 47.9122 74.2947 47.589V45.8805C74.2947 45.1769 74.5607 44.8418 75.0598 44.8418C75.2635 44.8426 75.4657 44.8766 75.6585 44.9426C75.8579 45.0098 76.1572 45.1434 76.4899 45.2773C77.6645 45.7981 78.8909 46.1912 80.1482 46.45C81.451 46.7161 82.777 46.8507 84.1063 46.8519C86.2014 46.8519 87.8313 46.4836 88.962 45.7465C90.0928 45.0094 90.6915 43.9375 90.6915 42.5637C90.6915 41.6258 90.3922 40.8551 89.7934 40.2184C89.1947 39.5817 88.0639 39.0125 86.4345 38.4762L81.6117 36.9688C79.1838 36.1981 77.388 35.059 76.2902 33.5512C75.1928 32.077 74.6274 30.4356 74.6274 28.6935C74.6274 27.2864 74.9268 26.0467 75.5255 24.9743C76.1239 23.9025 76.9223 22.9646 77.9201 22.2275C78.9178 21.4568 80.0486 20.8872 81.379 20.4853C82.7091 20.0833 84.1059 19.9158 85.5694 19.9158C86.3011 19.9158 87.0662 19.9494 87.7979 20.0498C88.563 20.1501 89.2614 20.2841 89.9598 20.4181C90.6248 20.5857 91.2569 20.7533 91.8556 20.9544C92.4541 21.1552 92.9197 21.3561 93.2524 21.5572C93.7181 21.8255 94.0505 22.0935 94.2502 22.3951C94.4497 22.663 94.5495 23.0315 94.5495 23.5005V25.0751C94.5495 25.7786 94.2835 26.1474 93.7844 26.1474C93.5184 26.1474 93.0861 26.013 92.5211 25.745C90.6247 24.8739 88.4961 24.4384 86.1351 24.4384C84.2393 24.4384 82.7425 24.74 81.7114 25.3767C80.6807 26.013 80.1482 26.9849 80.1482 28.3583C80.1482 29.2966 80.4809 30.1005 81.146 30.7372C81.811 31.3739 83.0418 32.0102 84.8047 32.5798L89.5274 34.0876C91.9219 34.8583 93.6514 35.9301 94.6825 37.3036C95.7136 38.677 96.2127 40.252 96.2127 41.9942C96.2127 43.4348 95.9129 44.7414 95.3476 45.8805C94.7492 47.0195 93.9508 48.0246 92.9197 48.8289C91.8886 49.6664 90.6582 50.2695 89.2281 50.705C87.7312 51.1742 86.1681 51.4086 84.472 51.4086Z" fill="#E4E4E4"/>
<path d="M90.7582 67.6904C79.8163 75.8318 63.9181 80.1536 50.249 80.1536C31.0916 80.1536 13.8304 73.0173 0.792965 61.1573C-0.238137 60.2194 0.692915 58.9463 1.92333 59.6831C16.0253 67.9252 33.4198 72.917 51.4131 72.917C63.5525 72.917 76.8893 70.3709 89.1621 65.1444C90.9912 64.3065 92.5544 66.3506 90.7582 67.6904ZM95.315 62.4639C93.9182 60.6549 86.0688 61.5928 82.5101 62.0283C81.4457 62.1627 81.2793 61.2244 82.2441 60.5209C88.4967 56.0983 98.7739 57.3717 99.971 58.8456C101.168 60.3534 99.6383 70.7056 93.7848 75.6642C92.8871 76.4349 92.0223 76.033 92.4214 75.0279C93.7514 71.7107 96.7117 64.2397 95.315 62.4639Z" fill="#E4E4E4"/>
</g>
<defs>
<clipPath id="clip0_2377_8026">
<rect width="100" height="100" fill="white" transform="translate(0.349854 0.034668)"/>
</clipPath>
</defs>
</svg>
