<svg width="101" height="101" viewBox="0 0 101 101" fill="none" xmlns="http://www.w3.org/2000/svg">
<g clip-path="url(#clip0_2377_7904)">
<path d="M28.5304 42.6213C28.5304 43.8612 28.6638 44.8663 28.8964 45.6034C29.1918 46.4326 29.5475 47.2388 29.9605 48.0155C30.1268 48.2834 30.1931 48.5514 30.1931 48.7862C30.1931 49.1209 29.9938 49.4561 29.5615 49.7912L27.4663 51.1983C27.1669 51.3994 26.8676 51.4998 26.6012 51.4998C26.2688 51.4998 25.9361 51.3322 25.6034 51.0307C25.1549 50.5459 24.754 50.0186 24.4063 49.4561C24.0736 48.8869 23.7409 48.2498 23.3752 47.4795C20.7807 50.5615 17.5213 52.1027 13.597 52.1029C10.8035 52.1029 8.57492 51.2986 6.94509 49.6908C5.31565 48.0823 4.48425 45.9381 4.48425 43.2581C4.48425 40.4104 5.48201 38.0987 7.51086 36.3565C9.53932 34.6144 12.2336 33.7433 15.6592 33.7433C16.79 33.7433 17.9541 33.8437 19.1845 34.0112C20.4153 34.1788 21.6791 34.4468 23.0096 34.7484V32.3027C23.0096 29.7562 22.4771 27.9808 21.446 26.9421C20.382 25.9035 18.5858 25.4007 16.0249 25.4007C14.8608 25.4007 13.6637 25.5351 12.4329 25.8367C11.2021 26.1383 10.005 26.5066 8.84093 26.9757C8.3089 27.2101 7.90988 27.3441 7.67682 27.4113C7.44377 27.4785 7.2778 27.5117 7.14479 27.5117C6.67907 27.5117 6.44641 27.1765 6.44641 26.473V24.8312C6.44641 24.2953 6.51311 23.8933 6.67907 23.659C6.84543 23.4242 7.14479 23.1898 7.61052 22.9555C8.7745 22.3521 10.1713 21.8495 11.8008 21.4477C13.4311 21.0121 15.1606 20.8113 16.9897 20.8113C20.9478 20.8113 23.8414 21.7156 25.7038 23.525C27.533 25.334 28.4644 28.0812 28.4644 31.7667V42.6213H28.5304ZM15.0272 47.7139C16.125 47.7139 17.2557 47.5131 18.4528 47.1108C19.6502 46.7088 20.7147 45.9717 21.6124 44.9667C22.1448 44.3303 22.5438 43.6268 22.7432 42.8225C22.9429 42.0186 23.0759 41.0467 23.0759 39.9077V38.5007C22.0672 38.2535 21.0456 38.0634 20.0159 37.9311C18.979 37.7986 17.9349 37.7314 16.8897 37.73C14.6611 37.73 13.0316 38.1655 11.9342 39.0702C10.8368 39.9749 10.3044 41.2479 10.3044 42.9229C10.3044 44.4975 10.7034 45.6702 11.5348 46.4745C12.3333 47.3119 13.4974 47.7139 15.0272 47.7139ZM41.7342 51.3322C41.1355 51.3322 40.7364 51.2318 40.4704 50.9971C40.2044 50.7963 39.9713 50.3272 39.772 49.6908L31.9564 23.793C31.7563 23.1226 31.6566 22.6871 31.6566 22.4527C31.6566 21.9168 31.9226 21.6148 32.4551 21.6148H35.7143C36.346 21.6148 36.7788 21.7156 37.0114 21.95C37.2775 22.1512 37.4772 22.6203 37.6765 23.2566L43.264 45.4358L48.4524 23.2566C48.6188 22.5867 48.8185 22.1512 49.0841 21.95C49.3505 21.7492 49.8163 21.6152 50.415 21.6152H53.0755C53.7072 21.6152 54.14 21.7156 54.4056 21.95C54.672 22.1512 54.9047 22.6203 55.0377 23.2566L60.2928 45.7038L66.0463 23.2566C66.2456 22.5867 66.4787 22.1512 66.7113 21.95C66.9774 21.7492 67.4097 21.6152 68.0085 21.6152H71.1014C71.6338 21.6152 71.9332 21.8832 71.9332 22.4527C71.9332 22.6203 71.8998 22.7879 71.8665 22.9887C71.8331 23.1894 71.7668 23.4578 71.6338 23.8265L63.618 49.724C63.4187 50.3944 63.1859 50.8299 62.9196 51.0307C62.6536 51.2318 62.2213 51.3658 61.6563 51.3658H58.796C58.1639 51.3658 57.7316 51.2654 57.4652 51.0307C57.1992 50.7963 56.9665 50.3608 56.8335 49.6908L51.678 28.0812L46.5562 49.6569C46.3902 50.3272 46.1905 50.7627 45.9245 50.9971C45.6585 51.2318 45.1928 51.3322 44.5944 51.3322H41.7342ZM84.472 52.2369C82.7425 52.2369 81.013 52.0357 79.3502 51.6338C77.687 51.2318 76.3903 50.7959 75.5255 50.294C74.9931 49.992 74.6271 49.6572 74.4944 49.3557C74.3651 49.0599 74.2971 48.7406 74.2947 48.4174V46.7088C74.2947 46.0053 74.5607 45.6702 75.0598 45.6702C75.2635 45.6709 75.4657 45.705 75.6585 45.7709C75.8579 45.8381 76.1572 45.9717 76.4899 46.1057C77.6645 46.6265 78.8909 47.0196 80.1482 47.2784C81.451 47.5444 82.777 47.6791 84.1063 47.6803C86.2014 47.6803 87.8313 47.3119 88.962 46.5748C90.0928 45.8377 90.6915 44.7659 90.6915 43.392C90.6915 42.4542 90.3922 41.6835 89.7934 41.0467C89.1947 40.41 88.0639 39.8409 86.4345 39.3046L81.6117 37.7972C79.1838 37.0265 77.388 35.8874 76.2902 34.3796C75.1928 32.9054 74.6274 31.264 74.6274 29.5218C74.6274 28.1148 74.9268 26.8751 75.5255 25.8027C76.1239 24.7308 76.9223 23.793 77.9201 23.0558C78.9178 22.2851 80.0486 21.7156 81.379 21.3137C82.7091 20.9117 84.1059 20.7441 85.5694 20.7441C86.3011 20.7441 87.0662 20.7777 87.7979 20.8781C88.563 20.9785 89.2614 21.1125 89.9598 21.2465C90.6248 21.4141 91.2569 21.5816 91.8556 21.7828C92.4541 21.9836 92.9197 22.1845 93.2524 22.3855C93.7181 22.6539 94.0505 22.9219 94.2502 23.2234C94.4497 23.4914 94.5495 23.8599 94.5495 24.3289V25.9035C94.5495 26.607 94.2835 26.9757 93.7844 26.9757C93.5184 26.9757 93.0861 26.8414 92.5211 26.5734C90.6247 25.7023 88.4961 25.2668 86.1351 25.2668C84.2393 25.2668 82.7425 25.5683 81.7114 26.205C80.6807 26.8414 80.1482 27.8132 80.1482 29.1867C80.1482 30.1249 80.4809 30.9288 81.146 31.5656C81.811 32.2023 83.0418 32.8386 84.8047 33.4081L89.5274 34.9159C91.9219 35.6866 93.6514 36.7585 94.6825 38.1319C95.7136 39.5054 96.2127 41.0803 96.2127 42.8225C96.2127 44.2631 95.9129 45.5698 95.3476 46.7088C94.7492 47.8479 93.9508 48.853 92.9197 49.6572C91.8886 50.4947 90.6582 51.0979 89.2281 51.5334C87.7312 52.0025 86.1681 52.2369 84.472 52.2369Z" fill="#191919"/>
<path d="M90.7582 68.5188C79.8163 76.6602 63.9181 80.982 50.249 80.982C31.0916 80.982 13.8304 73.8457 0.792965 61.9856C-0.238137 61.0477 0.692915 59.7747 1.92333 60.5114C16.0253 68.7536 33.4198 73.7453 51.4131 73.7453C63.5525 73.7453 76.8893 71.1993 89.1621 65.9727C90.9912 65.1348 92.5544 67.179 90.7582 68.5188ZM95.315 63.2923C93.9182 61.4833 86.0688 62.4212 82.5101 62.8567C81.4457 62.9911 81.2793 62.0528 82.2441 61.3493C88.4967 56.9267 98.7739 58.2001 99.971 59.6739C101.168 61.1817 99.6383 71.534 93.7848 76.4926C92.8871 77.2633 92.0223 76.8613 92.4214 75.8563C93.7514 72.5391 96.7117 65.068 95.315 63.2923Z" fill="#191919"/>
</g>
<defs>
<clipPath id="clip0_2377_7904">
<rect width="100" height="100" fill="white" transform="translate(0.349854 0.863037)"/>
</clipPath>
</defs>
</svg>
