<svg width="101" height="101" viewBox="0 0 101 101" fill="none" xmlns="http://www.w3.org/2000/svg">
<g clip-path="url(#clip0_2377_7811)">
<path d="M50.4148 84.6462C51.546 84.6462 52.6588 84.3347 53.6421 83.741L76.5512 69.9389C78.5992 68.7038 79.8672 66.3839 79.8672 63.8771V36.4963C79.8672 33.9968 78.5992 31.6733 76.5512 30.4345L53.6421 16.6325C51.6717 15.445 49.1505 15.4524 47.1912 16.6325L24.2823 30.4419C22.2343 31.677 20.9589 33.9968 20.9589 36.5037V63.8808C20.9589 65.9918 21.8646 67.9782 23.3803 69.2866V69.2975L47.1912 83.7483C48.1672 84.3347 49.2836 84.6462 50.4148 84.6462ZM50.6551 18.2927C51.376 18.2927 52.2928 18.7361 52.9249 19.1209L75.3867 32.7508C76.773 33.5864 77.5567 36.0052 77.5567 37.7461L77.3238 63.8771C77.3238 65.618 76.1408 67.1829 74.7545 68.0185L52.4259 81.3515C51.1579 82.1174 50.1265 82.1174 48.8548 81.3515L26.2268 67.9855C24.8405 67.1499 23.7241 65.6106 23.7241 63.8771V36.8885C23.7241 35.1513 24.7333 33.3591 26.127 32.5199L48.5221 19.1209C49.1505 18.7398 49.9342 18.2927 50.6551 18.2927Z" fill="#191919"/>
<path fill-rule="evenodd" clip-rule="evenodd" d="M53.3352 19.6046C52.4295 19.0549 51.424 18.78 50.4148 18.78C49.4055 18.78 48.4 19.0586 47.4943 19.6046L26.7443 32.1863C24.8885 33.3114 23.7388 35.4188 23.7388 37.7093V62.6674C23.7388 64.9506 24.8848 67.0653 26.7443 68.1904L47.4943 80.7721C48.4 81.3218 49.4055 81.5967 50.4148 81.5967C51.424 81.5967 52.4295 81.3255 53.3352 80.7721L74.0853 68.1904C75.9411 67.0653 77.0908 64.9506 77.0908 62.6674V37.7093C77.0908 35.4261 75.9448 33.3188 74.0853 32.1863L53.3352 19.6046Z" fill="#191919"/>
<path fill-rule="evenodd" clip-rule="evenodd" d="M50.4149 19.3188C51.0359 19.3188 51.7346 19.6376 52.4961 20.0957L74.1113 33.1209C75.4606 33.9345 76.3515 35.4994 76.3515 37.2696V63.0997C76.3515 64.8662 75.4606 66.4348 74.1113 67.2484L52.4998 80.2736C51.7753 80.7097 51.0655 80.9846 50.4185 80.9846C49.7716 80.9846 49.0618 80.7097 48.3373 80.2736L26.7185 67.2521C25.9754 66.8013 25.4394 66.3615 25.0771 65.7715C24.7148 65.1851 24.4782 64.3715 24.4782 63.1034V37.2732C24.4782 35.5031 25.3691 33.9381 26.7185 33.1245L48.3299 20.0994C49.1025 19.6413 49.7901 19.3188 50.4149 19.3188ZM53.2651 81.5306L74.8765 68.5055C76.6954 67.4097 77.8266 65.35 77.8266 63.1034V37.2732C77.8266 35.0266 76.6954 32.9669 74.8765 31.8711L53.2651 18.846C52.4851 18.3769 51.4832 17.8528 50.4149 17.8528C49.3428 17.8528 48.341 18.3805 47.5683 18.8423H47.5646L25.9495 31.8711C24.1307 32.9669 22.9995 35.0266 22.9995 37.2732V63.1034C22.9995 64.5547 23.2731 65.6505 23.8128 66.5338C24.3525 67.4133 25.1141 67.9997 25.9495 68.5018L47.5609 81.527C48.3816 82.0217 49.3687 82.4542 50.4112 82.4542C51.4536 82.4542 52.4444 82.0254 53.2651 81.5306Z" fill="#E4E4E4"/>
<path d="M33.6134 50.5051L33.5874 58.8485L50.1659 68.4993L66.6809 58.9677V51.3043H67.2722V59.1366C67.2721 59.2409 67.2162 59.3372 67.1253 59.3896L50.3139 69.0927C50.2216 69.146 50.1075 69.1456 50.0154 69.092L33.1416 59.269C33.0509 59.2162 32.9954 59.1196 32.9957 59.0153L33.0221 50.5029L33.6134 50.5051Z" fill="#636363"/>
<path d="M49.9837 29.8684C50.0678 29.834 50.164 29.8395 50.244 29.8852L67.1146 39.5292C67.2062 39.5816 67.2626 39.6786 67.2626 39.7834V43.7647H66.6713V39.9526L50.0964 30.4775L33.6396 39.8939V43.3026H33.0482V39.725L33.0507 39.686C33.0628 39.5966 33.1161 39.5167 33.1962 39.4709L49.9484 29.8852L49.9837 29.8684Z" fill="#636363"/>
<path d="M65.1003 55.2173V57.8908C65.1003 57.9952 65.0444 58.0917 64.9534 58.1442L60.488 60.7204L60.1906 60.2136L64.509 57.7219V55.2173H65.1003Z" fill="#BCBCBC"/>
<path d="M49.9971 32.3825C50.0807 32.3484 50.1765 32.3542 50.2563 32.3993L55.8336 35.5574L55.687 35.8123L55.5401 36.0667L50.1097 32.9916L44.5512 36.1605L44.2566 35.6523L49.9621 32.3997L49.9971 32.3825Z" fill="#DADADA"/>
<path d="M35.7624 55.4453V57.6257L39.314 59.694L39.0144 60.1997L35.3169 58.0465C35.2265 57.9939 35.171 57.8978 35.171 57.7939V55.4453H35.7624Z" fill="#BCBCBC"/>
<path d="M50.0002 35.0401C50.0842 35.0058 50.1805 35.0115 50.2604 35.0573L52.7738 36.495L52.4782 37.0028L50.1124 35.6499L47.8554 36.9413L47.5601 36.4334L49.9648 35.0573L50.0002 35.0401Z" fill="#BCBCBC"/>
<path d="M57.1271 39.4807C55.6251 39.3554 54.1238 39.7299 52.8606 40.5452C51.5974 41.3605 50.6443 42.5699 50.152 43.9823C49.6517 42.5691 48.6926 41.3605 47.4249 40.5458C46.1572 39.7312 44.6527 39.3566 43.1472 39.4807C36.8478 39.9686 36.5034 46.1519 36.5854 48.5165C36.628 50.2079 36.9627 55.5389 49.9748 64.8024L50.0897 64.8804L50.2045 64.8024C63.2789 55.5389 63.6138 50.1135 63.6563 48.3603C63.7809 46.0575 63.4267 39.9686 57.1271 39.4807Z" fill="#E4E4E4"/>
<path d="M42.603 37.4204C43.1935 37.3722 43.729 37.3433 44.2868 37.3879C44.9954 37.4446 45.7252 37.6176 46.6688 37.9888L46.8605 38.0654L46.8774 38.0729C47.9866 38.5797 49.0878 39.134 50.1403 40.4147C50.5024 39.963 50.8644 39.5935 51.2749 39.2679C51.8243 38.8322 52.4432 38.4889 53.2291 38.1284L53.3818 38.06C54.8518 37.4168 56.1305 37.3102 57.6909 37.4129L58.018 37.4373L58.0501 37.4408L58.3667 37.4935C61.5951 38.0805 63.5173 39.9666 64.6083 42.0463C65.7222 44.1698 65.9732 46.496 65.9126 47.8769L65.913 47.8773C65.8802 48.9313 65.8017 51.0589 63.8173 54.2637C61.8449 57.4491 58.0018 61.6806 50.493 67.0004L50.4897 67.0025L50.3583 67.0938C50.199 67.2046 49.9869 67.2045 49.8276 67.0938L49.6962 67.0029L49.6922 66.9996C42.2184 61.6801 38.3931 57.4687 36.4308 54.3124C34.4564 51.1367 34.3794 49.0464 34.3517 48.0251L34.352 48.0247C34.2976 46.6506 34.326 44.337 35.3026 42.2038C36.2956 40.0348 38.2531 38.0892 41.9557 37.4777L41.9915 37.4731L42.603 37.4204ZM44.2124 38.3012C43.5679 38.2497 42.9554 38.309 42.0904 38.3843C38.7145 38.9468 37.0132 40.684 36.1441 42.5825C35.314 44.3959 35.2297 46.3889 35.2665 47.7345L35.2755 47.9947V48.0004C35.3003 48.9144 35.3531 50.8331 37.2174 53.8317C39.0821 56.8309 42.7701 60.9261 50.093 66.1564C57.4502 60.9257 61.1552 56.8114 63.0295 53.7845C64.9035 50.758 64.9595 48.8018 64.9891 47.849L64.9895 47.8429C65.0458 46.5819 64.8119 44.4202 63.7884 42.469C62.7768 40.5405 60.998 38.8189 57.9234 38.3488C56.3606 38.2232 55.2049 38.2918 53.8847 38.8427L53.6172 38.9601C52.8644 39.3055 52.3199 39.6125 51.8522 39.9834C51.3865 40.3527 50.9793 40.7993 50.5186 41.4411C50.4317 41.5622 50.2909 41.634 50.141 41.6337C49.991 41.6333 49.8504 41.5609 49.7641 41.4393C48.7415 39.9975 47.6885 39.4526 46.502 38.91C45.5316 38.5134 44.848 38.3521 44.2124 38.3012Z" fill="#191919"/>
<path d="M54.5589 35.6944C55.7684 35.468 56.6146 35.3738 57.4442 35.4106C58.1682 35.4426 58.8664 35.5739 59.7662 35.7874L60.1648 35.8841L60.1947 35.8927L60.4857 35.9968C63.4565 37.1044 65.3314 39.2043 66.4497 41.409C67.6004 43.6776 67.9582 46.0708 67.8919 47.653C67.8568 48.8456 67.8523 51.1589 65.659 54.7158C63.4743 58.2589 59.1274 63.0221 50.4513 69.1683L50.4477 69.1708L50.2968 69.2749C50.1763 69.358 50.0162 69.358 49.8957 69.2749L49.7448 69.1708C49.7434 69.1698 49.7419 69.1686 49.7405 69.1676C41.1052 63.0212 36.8594 58.2797 34.7678 54.767C33.7206 53.0083 33.2137 51.5582 32.9667 50.3967C32.72 49.2367 32.735 48.3713 32.7205 47.8201L32.7209 47.8198C32.6568 46.25 32.6314 43.8761 33.575 41.6098C34.5285 39.3198 36.4585 37.1692 40.2343 36.0412L40.2567 36.0355L40.6105 35.9567C42.3079 35.59 43.8274 35.442 45.843 35.8443L46.0531 35.888L46.0538 35.8884L46.3405 35.9539C47.6819 36.277 48.6783 36.7614 50.1416 37.7487C51.4684 36.7362 52.573 36.2577 54.5272 35.7019L54.5589 35.6944ZM57.4128 36.106C56.6657 36.0729 55.8845 36.1555 54.7044 36.3758C52.7204 36.941 51.6986 37.4054 50.3741 38.452C50.2529 38.5478 50.0827 38.5538 49.9553 38.4663C48.3164 37.3415 47.345 36.881 45.9044 36.5684V36.5687C43.7804 36.1124 42.2628 36.2909 40.4234 36.7119C36.859 37.7804 35.0962 39.7813 34.2241 41.8757C33.3973 43.8614 33.3604 45.9575 33.4115 47.4966L33.4227 47.7968V47.8019L33.4328 48.2725C33.4458 48.7875 33.481 49.4391 33.6541 50.2531C33.8846 51.337 34.3622 52.7163 35.3725 54.413C37.3918 57.8043 41.5404 62.4664 50.0965 68.5634C58.6944 62.4657 62.9471 57.7793 65.0601 54.3525C67.1664 50.9367 67.1566 48.7592 67.1901 47.6283V47.624L67.197 47.3391C67.2069 45.8684 66.8473 43.7429 65.8222 41.7218C64.7342 39.5769 62.9045 37.5629 59.9799 36.5558C58.8933 36.2888 58.1614 36.1391 57.4128 36.106Z" fill="#BCBCBC"/>
<path d="M62.7606 43.303C63.2859 45.4087 63.1122 47.6261 62.2652 49.6261C60.8579 52.7844 57.8065 55.315 53.3542 57.1786C53.1525 56.9617 52.9065 56.7898 52.6324 56.6747C52.3562 56.5589 52.0595 56.4995 51.7597 56.4988C51.3286 56.4988 50.9067 56.623 50.5458 56.8568C50.1875 57.091 49.9068 57.4249 49.7386 57.8163C49.5696 58.2099 49.5206 58.6442 49.5976 59.0653C49.6789 59.485 49.8805 59.872 50.1783 60.1809C50.4745 60.4895 50.8575 60.7024 51.2774 60.7926C51.6965 60.8879 52.135 60.8538 52.534 60.6948C52.9343 60.5423 53.2801 60.2751 53.5277 59.9281C53.7752 59.5806 53.9135 59.1683 53.9249 58.7432C57.4006 57.3098 60.4442 55.0108 62.7606 52.069C63.5133 50.4594 63.8101 48.6773 63.6201 46.9134C63.5354 45.6713 63.2449 44.4516 62.7606 43.303Z" fill="#191919"/>
<path d="M46.6053 56.1771L45.982 56.8049C41.5986 52.521 40.2075 49.1188 42.0449 47.3494C43.8822 45.5799 47.2648 46.9558 51.612 51.2526L50.9854 51.8803C50.9063 51.9569 50.8437 52.0489 50.8016 52.1504C50.7579 52.253 50.7367 52.3641 50.7393 52.4755C50.7349 52.5873 50.7562 52.6983 50.8016 52.801C50.8437 52.9032 50.9063 52.9963 50.9854 53.074C51.0627 53.1524 51.1554 53.2144 51.2577 53.2561C51.3614 53.3001 51.4729 53.3232 51.5858 53.3243C51.6989 53.3261 51.811 53.3027 51.9139 53.2561C52.0166 53.2151 52.1094 53.1532 52.1862 53.074L53.3674 51.903C53.5188 51.7458 53.6032 51.5367 53.6032 51.3193C53.6032 51.1018 53.5188 50.8927 53.3674 50.7353L52.7768 50.1499C49.8239 47.2225 44.8041 43.6445 41.6216 45.762C40.7253 44.9302 40.1596 43.8073 40.0271 42.5972C39.9234 41.6778 40.1859 40.7547 40.7587 40.0244C39.8423 40.4254 39.0341 41.0349 38.3998 41.8036C38.2686 42.7621 38.3895 43.738 38.7508 44.6366C39.1157 45.5319 39.7107 46.3169 40.4766 46.9135C38.3997 50.0718 41.9727 55.045 44.9288 57.9725L45.5193 58.5743C45.6769 58.7268 45.8882 58.8118 46.1083 58.8118C46.3284 58.8118 46.5397 58.7268 46.6972 58.5743L47.8947 57.3869C48.0462 57.2296 48.1307 57.0207 48.1307 56.803C48.1307 56.5857 48.0462 56.3768 47.8947 56.2192C47.8203 56.1287 47.7275 56.0543 47.6224 56.0015C47.5194 55.9528 47.4082 55.9227 47.2944 55.9136C47.1764 55.9095 47.0589 55.9304 46.9498 55.9755C46.8179 56.0085 46.6984 56.0785 46.6053 56.1771Z" fill="#191919"/>
<path d="M49.9972 27.5175C50.076 27.4853 50.1662 27.4907 50.2412 27.5336L69.1822 38.3584C69.268 38.4075 69.3208 38.4982 69.3208 38.5964V60.3175C69.3208 60.4153 69.2685 60.5059 69.1833 60.5551L50.3113 71.4479C50.2247 71.4978 50.1178 71.4978 50.0315 71.4475L31.0873 60.4213C31.0022 60.3718 30.9501 60.2811 30.9504 60.1833L31.0194 38.5305L31.0219 38.494C31.0334 38.4105 31.0832 38.336 31.158 38.2932L49.9643 27.5336L49.9972 27.5175ZM31.5732 38.6902L31.5053 60.0269L50.1723 70.8917L68.7663 60.1597V38.7553L50.1026 28.0887L31.5732 38.6902Z" fill="#393939"/>
</g>
<defs>
<clipPath id="clip0_2377_7811">
<rect width="66.9118" height="70" fill="white" transform="translate(16.8939 15.0347)"/>
</clipPath>
</defs>
</svg>
