<svg width="101" height="101" viewBox="0 0 101 101" fill="none" xmlns="http://www.w3.org/2000/svg">
<g clip-path="url(#clip0_2377_7794)">
<path d="M50.4148 85.4746C51.546 85.4746 52.6588 85.1631 53.6421 84.5694L76.5512 70.7673C78.5992 69.5322 79.8672 67.2123 79.8672 64.7055V37.3247C79.8672 34.8252 78.5992 32.5017 76.5512 31.2629L53.6421 17.4608C51.6717 16.2734 49.1505 16.2807 47.1912 17.4608L24.2823 31.2702C22.2343 32.5053 20.9589 34.8252 20.9589 37.332V64.7092C20.9589 66.8202 21.8646 68.8065 23.3803 70.1149V70.1259L47.1912 84.5767C48.1672 85.1631 49.2836 85.4746 50.4148 85.4746ZM50.6551 19.121C51.376 19.121 52.2928 19.5645 52.9249 19.9493L75.3867 33.5791C76.773 34.4147 77.5567 36.8336 77.5567 38.5744L77.3238 64.7055C77.3238 66.4463 76.1408 68.0113 74.7545 68.8469L52.4259 82.1798C51.1579 82.9458 50.1265 82.9458 48.8548 82.1798L26.2268 68.8139C24.8405 67.9783 23.7241 66.439 23.7241 64.7055V37.7168C23.7241 35.9797 24.7333 34.1875 26.127 33.3483L48.5221 19.9493C49.1505 19.5681 49.9342 19.121 50.6551 19.121Z" fill="#191919"/>
<path fill-rule="evenodd" clip-rule="evenodd" d="M53.3352 20.433C52.4295 19.8833 51.424 19.6084 50.4148 19.6084C49.4055 19.6084 48.4 19.8869 47.4943 20.433L26.7443 33.0147C24.8885 34.1398 23.7388 36.2471 23.7388 38.5377V63.4958C23.7388 65.779 24.8848 67.8937 26.7443 69.0188L47.4943 81.6005C48.4 82.1502 49.4055 82.4251 50.4148 82.4251C51.424 82.4251 52.4295 82.1539 53.3352 81.6005L74.0853 69.0188C75.9411 67.8937 77.0908 65.779 77.0908 63.4958V38.5377C77.0908 36.2545 75.9448 34.1471 74.0853 33.0147L53.3352 20.433Z" fill="#191919"/>
<path fill-rule="evenodd" clip-rule="evenodd" d="M50.4149 20.1471C51.0359 20.1471 51.7346 20.466 52.4961 20.9241L74.1113 33.9492C75.4606 34.7628 76.3515 36.3278 76.3515 38.0979V63.9281C76.3515 65.6946 75.4606 67.2632 74.1113 68.0768L52.4998 81.1019C51.7753 81.5381 51.0655 81.8129 50.4185 81.8129C49.7716 81.8129 49.0618 81.5381 48.3373 81.1019L26.7185 68.0805C25.9754 67.6297 25.4394 67.1899 25.0771 66.5998C24.7148 66.0134 24.4782 65.1998 24.4782 63.9318V38.1016C24.4782 36.3314 25.3691 34.7665 26.7185 33.9529L48.3299 20.9278C49.1025 20.4697 49.7901 20.1471 50.4149 20.1471ZM53.2651 82.359L74.8765 69.3339C76.6954 68.2381 77.8266 66.1784 77.8266 63.9318V38.1016C77.8266 35.855 76.6954 33.7953 74.8765 32.6995L53.2651 19.6744C52.4851 19.2052 51.4832 18.6812 50.4149 18.6812C49.3428 18.6812 48.341 19.2089 47.5683 19.6707H47.5646L25.9495 32.6995C24.1307 33.7953 22.9995 35.855 22.9995 38.1016V63.9318C22.9995 65.3831 23.2731 66.4789 23.8128 67.3621C24.3525 68.2417 25.1141 68.8281 25.9495 69.3302L47.5609 82.3553C48.3816 82.8501 49.3687 83.2826 50.4112 83.2826C51.4536 83.2826 52.4444 82.8538 53.2651 82.359Z" fill="#393939"/>
<path d="M33.6134 51.3334L33.5874 59.6769L50.1659 69.3277L66.6809 59.7961V52.1326H67.2722V59.965C67.2721 60.0693 67.2162 60.1655 67.1253 60.218L50.3139 69.9211C50.2216 69.9743 50.1075 69.974 50.0154 69.9204L33.1416 60.0974C33.0509 60.0446 32.9954 59.9479 32.9957 59.8437L33.0221 51.3313L33.6134 51.3334Z" fill="#636363"/>
<path d="M49.9837 30.6968C50.0678 30.6624 50.164 30.6678 50.244 30.7136L67.1146 40.3576C67.2062 40.41 67.2626 40.5069 67.2626 40.6117V44.593H66.6713V40.781L50.0964 31.3059L33.6396 40.7223V44.131H33.0482V40.5534L33.0507 40.5144C33.0628 40.4249 33.1161 40.3451 33.1962 40.2993L49.9484 30.7136L49.9837 30.6968Z" fill="#636363"/>
<path d="M65.1003 56.0457V58.7192C65.1003 58.8236 65.0444 58.9201 64.9534 58.9726L60.488 61.5488L60.1906 61.042L64.509 58.5503V56.0457H65.1003Z" fill="#BCBCBC"/>
<path d="M49.9971 33.2109C50.0807 33.1768 50.1765 33.1825 50.2563 33.2277L55.8336 36.3858L55.687 36.6406L55.5401 36.8951L50.1097 33.82L44.5512 36.9889L44.2566 36.4807L49.9621 33.228L49.9971 33.2109Z" fill="#DADADA"/>
<path d="M35.7624 56.2734V58.4538L39.314 60.5221L39.0144 61.0278L35.3169 58.8747C35.2265 58.822 35.171 58.7259 35.171 58.622V56.2734H35.7624Z" fill="#BCBCBC"/>
<path d="M50.0002 35.8685C50.0842 35.8342 50.1805 35.8399 50.2604 35.8856L52.7738 37.3233L52.4782 37.8312L50.1124 36.4783L47.8554 37.7696L47.5601 37.2618L49.9648 35.8856L50.0002 35.8685Z" fill="#BCBCBC"/>
<path d="M57.1271 40.3091C55.6251 40.1837 54.1238 40.5583 52.8606 41.3736C51.5974 42.1888 50.6443 43.3983 50.152 44.8107C49.6517 43.3975 48.6926 42.1889 47.4249 41.3742C46.1572 40.5595 44.6527 40.185 43.1472 40.3091C36.8478 40.797 36.5034 46.9803 36.5854 49.3449C36.628 51.0363 36.9627 56.3673 49.9748 65.6307L50.0897 65.7088L50.2045 65.6307C63.2789 56.3673 63.6138 50.9419 63.6563 49.1887C63.7809 46.8859 63.4267 40.797 57.1271 40.3091Z" fill="#636363"/>
<path d="M42.603 38.2488C43.1935 38.2005 43.729 38.1716 44.2868 38.2162C44.9954 38.2729 45.7252 38.4459 46.6688 38.8172L46.8605 38.8937L46.8774 38.9013C47.9866 39.4081 49.0878 39.9624 50.1403 41.243C50.5024 40.7914 50.8644 40.4219 51.2749 40.0963C51.8243 39.6606 52.4432 39.3172 53.2291 38.9567L53.3818 38.8884C54.8518 38.2452 56.1305 38.1385 57.6909 38.2413L58.018 38.2656L58.0501 38.2692L58.3667 38.3218C61.5951 38.9089 63.5173 40.795 64.6083 42.8747C65.7222 44.9982 65.9732 47.3243 65.9126 48.7053L65.913 48.7056C65.8802 49.7597 65.8017 51.8873 63.8173 55.0921C61.8449 58.2775 58.0018 62.509 50.493 67.8287L50.4897 67.8309L50.3583 67.9221C50.199 68.0329 49.9869 68.0329 49.8276 67.9221L49.6962 67.8312L49.6922 67.828C42.2184 62.5085 38.3931 58.297 36.4308 55.1407C34.4564 51.965 34.3794 49.8748 34.3517 48.8535L34.352 48.8531C34.2976 47.479 34.326 45.1654 35.3026 43.0322C36.2956 40.8632 38.2531 38.9176 41.9557 38.3061L41.9915 38.3014L42.603 38.2488ZM44.2124 39.1296C43.5679 39.0781 42.9554 39.1374 42.0904 39.2126C38.7145 39.7751 37.0132 41.5124 36.1441 43.4108C35.314 45.2243 35.2297 47.2173 35.2665 48.5628L35.2755 48.823V48.8288C35.3003 49.7428 35.3531 51.6615 37.2174 54.6601C39.0821 57.6592 42.7701 61.7544 50.093 66.9848C57.4502 61.7541 61.1552 57.6398 63.0295 54.6128C64.9035 51.5864 64.9595 49.6302 64.9891 48.6774L64.9895 48.6713C65.0458 47.4103 64.8119 45.2486 63.7884 43.2974C62.7768 41.3689 60.998 39.6473 57.9234 39.1772C56.3606 39.0516 55.2049 39.1202 53.8847 39.6711L53.6172 39.7885C52.8644 40.1338 52.3199 40.4408 51.8522 40.8117C51.3865 41.1811 50.9793 41.6277 50.5186 42.2695C50.4317 42.3906 50.2909 42.4624 50.141 42.462C49.991 42.4616 49.8504 42.3893 49.7641 42.2677C48.7415 40.8259 47.6885 40.2809 46.502 39.7384C45.5316 39.3418 44.848 39.1804 44.2124 39.1296Z" fill="#E4E4E4"/>
<path d="M54.5589 36.5227C55.7684 36.2964 56.6146 36.2022 57.4442 36.2389C58.1682 36.271 58.8664 36.4023 59.7662 36.6158L60.1648 36.7124L60.1947 36.721L60.4857 36.8252C63.4565 37.9328 65.3314 40.0326 66.4497 42.2374C67.6004 44.506 67.9582 46.8992 67.8919 48.4813C67.8568 49.674 67.8523 51.9873 65.659 55.5442C63.4743 59.0872 59.1274 63.8505 50.4513 69.9966L50.4477 69.9992L50.2968 70.1033C50.1763 70.1864 50.0162 70.1864 49.8957 70.1033L49.7448 69.9992C49.7434 69.9982 49.7419 69.9969 49.7405 69.9959C41.1052 63.8495 36.8594 59.1081 34.7678 55.5954C33.7206 53.8367 33.2137 52.3866 32.9667 51.225C32.72 50.065 32.735 49.1997 32.7205 48.6485L32.7209 48.6481C32.6568 47.0783 32.6314 44.7044 33.575 42.4382C34.5285 40.1482 36.4585 37.9976 40.2343 36.8696L40.2567 36.8638L40.6105 36.7851C42.3079 36.4184 43.8274 36.2704 45.843 36.6727L46.0531 36.7164L46.0538 36.7167L46.3405 36.7822C47.6819 37.1054 48.6783 37.5898 50.1416 38.5771C51.4684 37.5646 52.573 37.086 54.5272 36.5303L54.5589 36.5227ZM57.4128 36.9343C56.6657 36.9013 55.8845 36.9838 54.7044 37.2042C52.7204 37.7694 51.6986 38.2337 50.3741 39.2804C50.2529 39.3761 50.0827 39.3821 49.9553 39.2947C48.3164 38.1698 47.345 37.7093 45.9044 37.3967V37.3971C43.7804 36.9407 42.2628 37.1193 40.4234 37.5403C36.859 38.6088 35.0962 40.6097 34.2241 42.7041C33.3973 44.6898 33.3604 46.7859 33.4115 48.3249L33.4227 48.6252V48.6302L33.4328 49.1009C33.4458 49.6159 33.481 50.2675 33.6541 51.0815C33.8846 52.1653 34.3622 53.5447 35.3725 55.2414C37.3918 58.6326 41.5404 63.2947 50.0965 69.3918C58.6944 63.2941 62.9471 58.6077 65.0601 55.1809C67.1664 51.7651 67.1566 49.5876 67.1901 48.4566V48.4524L67.197 48.1675C67.2069 46.6967 66.8473 44.5712 65.8222 42.5502C64.7342 40.4052 62.9045 38.3913 59.9799 37.3842C58.8933 37.1172 58.1614 36.9675 57.4128 36.9343Z" fill="#BCBCBC"/>
<path d="M62.7606 44.1313C63.2859 46.237 63.1122 48.4545 62.2652 50.4545C60.8579 53.6128 57.8065 56.1434 53.3542 58.007C53.1525 57.79 52.9065 57.6181 52.6324 57.5031C52.3562 57.3873 52.0595 57.3279 51.7597 57.3272C51.3286 57.3272 50.9067 57.4514 50.5458 57.6852C50.1875 57.9194 49.9068 58.2533 49.7386 58.6447C49.5696 59.0383 49.5206 59.4726 49.5976 59.8937C49.6789 60.3133 49.8805 60.7003 50.1783 61.0093C50.4745 61.3179 50.8575 61.5308 51.2774 61.621C51.6965 61.7163 52.135 61.6822 52.534 61.5231C52.9343 61.3707 53.2801 61.1035 53.5277 60.7564C53.7752 60.409 53.9135 59.9967 53.9249 59.5716C57.4006 58.1382 60.4442 55.8392 62.7606 52.8974C63.5133 51.2877 63.8101 49.5057 63.6201 47.7417C63.5354 46.4997 63.2449 45.2799 62.7606 44.1313Z" fill="#E4E4E4"/>
<path d="M46.6053 57.0054L45.982 57.6332C41.5986 53.3493 40.2075 49.9472 42.0449 48.1777C43.8822 46.4083 47.2648 47.7842 51.612 52.0809L50.9854 52.7087C50.9063 52.7853 50.8437 52.8773 50.8016 52.9788C50.7579 53.0814 50.7367 53.1925 50.7393 53.3039C50.7349 53.4157 50.7562 53.5267 50.8016 53.6293C50.8437 53.7316 50.9063 53.8247 50.9854 53.9024C51.0627 53.9808 51.1554 54.0427 51.2577 54.0845C51.3614 54.1285 51.4729 54.1516 51.5858 54.1527C51.6989 54.1545 51.811 54.131 51.9139 54.0845C52.0166 54.0435 52.1094 53.9815 52.1862 53.9024L53.3674 52.7314C53.5188 52.5742 53.6032 52.3651 53.6032 52.1476C53.6032 51.9302 53.5188 51.721 53.3674 51.5637L52.7768 50.9782C49.8239 48.0508 44.8041 44.4729 41.6216 46.5904C40.7253 45.7586 40.1596 44.6357 40.0271 43.4256C39.9234 42.5062 40.1859 41.5831 40.7587 40.8528C39.8423 41.2538 39.0341 41.8633 38.3998 42.632C38.2686 43.5905 38.3895 44.5664 38.7508 45.465C39.1157 46.3603 39.7107 47.1453 40.4766 47.7418C38.3997 50.9002 41.9727 55.8734 44.9288 58.8009L45.5193 59.4027C45.6769 59.5551 45.8882 59.6402 46.1083 59.6402C46.3284 59.6402 46.5397 59.5551 46.6972 59.4027L47.8947 58.2152C48.0462 58.058 48.1307 57.8491 48.1307 57.6314C48.1307 57.4141 48.0462 57.2052 47.8947 57.0476C47.8203 56.9571 47.7275 56.8827 47.6224 56.8299C47.5194 56.7812 47.4082 56.7511 47.2944 56.7419C47.1764 56.7379 47.0589 56.7588 46.9498 56.8039C46.8179 56.8369 46.6984 56.9069 46.6053 57.0054Z" fill="#E4E4E4"/>
<path d="M49.9972 28.3459C50.076 28.3137 50.1662 28.3191 50.2412 28.362L69.1822 39.1868C69.268 39.2358 69.3208 39.3265 69.3208 39.4248V61.1459C69.3208 61.2437 69.2685 61.3343 69.1833 61.3835L50.3113 72.2763C50.2247 72.3262 50.1178 72.3261 50.0315 72.2759L31.0873 61.2497C31.0022 61.2001 30.9501 61.1094 30.9504 61.0116L31.0194 39.3589L31.0219 39.3224C31.0334 39.2389 31.0832 39.1644 31.158 39.1216L49.9643 28.362L49.9972 28.3459ZM31.5732 39.5185L31.5053 60.8552L50.1723 71.7201L68.7663 60.988V39.5837L50.1026 28.9171L31.5732 39.5185Z" fill="#393939"/>
</g>
<defs>
<clipPath id="clip0_2377_7794">
<rect width="66.9118" height="70" fill="white" transform="translate(16.8939 15.863)"/>
</clipPath>
</defs>
</svg>
