<svg width="101" height="101" viewBox="0 0 101 101" fill="none" xmlns="http://www.w3.org/2000/svg">
<g clip-path="url(#clip0_2377_7828)">
<path d="M14.273 32.3071C14.311 32.3071 14.3491 32.3071 14.3884 32.3071C15.2707 33.8634 16.1267 35.4543 16.7546 37.1321C16.8605 36.9443 16.9079 36.7646 16.953 36.5544C16.9677 36.4859 16.9824 36.4175 16.9976 36.3469C17.0126 36.2755 17.0276 36.2041 17.0431 36.1305C17.0582 36.0611 17.0732 35.9917 17.0887 35.9202C17.176 35.5104 17.2481 35.1025 17.3013 34.6869C17.3113 34.6408 17.3213 34.5948 17.3317 34.5473C17.3698 34.5284 17.4079 34.5094 17.4471 34.4899C17.4165 34.8298 17.3857 35.1698 17.3548 35.5097C17.3444 35.6249 17.334 35.74 17.3236 35.8551C17.3135 35.9669 17.3034 36.0787 17.2932 36.1905C17.2831 36.3023 17.2731 36.4141 17.2632 36.5259C17.2392 36.792 17.2122 37.057 17.1768 37.3218C17.1087 37.8395 17.0781 38.2436 17.274 38.7405C17.3127 38.8524 17.3508 38.9644 17.3885 39.0766C17.4178 39.1627 17.4178 39.1627 17.4477 39.2506C18.6554 43.0381 17.9815 46.964 16.1883 50.4333C15.8705 51.0373 15.5184 51.6144 15.1386 52.1816C15.1122 52.221 15.0858 52.2604 15.0587 52.301C14.7976 52.6884 14.5279 53.0689 14.251 53.4451C13.2078 54.8648 12.1949 56.3443 11.4374 57.9367C11.3892 58.0366 11.3386 58.1353 11.2879 58.234C10.8228 59.1641 10.4365 60.2259 10.2908 61.2572C10.2818 61.3208 10.2818 61.3208 10.2726 61.3856C9.93234 63.91 10.6975 66.3223 11.7279 68.6049C11.7513 68.6567 11.7747 68.7086 11.7988 68.762C11.8196 68.8076 11.8405 68.8532 11.862 68.9002C11.9068 69.0117 11.9068 69.0117 11.9068 69.1266C10.8145 68.6232 9.78541 67.5741 8.90573 66.7715C8.87378 66.7426 8.84182 66.7137 8.8089 66.684C8.07561 66.0202 8.07561 66.0202 7.79071 65.6795C7.67418 65.5422 7.55043 65.4127 7.42686 65.2817C6.78149 64.575 6.23039 63.7949 5.73156 62.9805C5.69676 62.9237 5.69676 62.9237 5.66126 62.8659C4.7563 61.3731 4.12139 59.569 4.10187 57.813C4.10102 57.7493 4.10102 57.7493 4.10015 57.6843C4.073 55.1203 4.74843 52.9091 5.9047 50.6307C5.9268 50.5866 5.94889 50.5425 5.97166 50.4971C6.80163 48.859 7.96268 47.3187 9.13139 45.9076C9.30269 45.7005 9.46893 45.4897 9.63434 45.278C9.83788 45.018 10.0467 44.7637 10.262 44.5133C10.5607 44.1654 10.8456 43.8081 11.1274 43.4466C11.2195 43.329 11.3124 43.2122 11.4054 43.0954C12.202 42.0919 12.9261 41.0478 13.5804 39.9467C13.615 39.8887 13.615 39.8887 13.6503 39.8295C14.9998 37.5332 15.0281 35.2195 14.3884 32.7092C14.3516 32.5746 14.313 32.4409 14.273 32.3071Z" fill="#191919"/>
<path d="M19.2942 42.8188C19.4449 42.9619 19.567 43.0986 19.6747 43.2759C19.7017 43.3202 19.7286 43.3644 19.7564 43.41C19.7848 43.4578 19.8132 43.5056 19.8425 43.5548C19.8876 43.6305 19.8876 43.6305 19.9337 43.7078C21.8463 46.9493 22.9048 50.5716 22.8904 54.3393C22.8903 54.3967 22.8902 54.4542 22.8901 54.5134C22.8872 55.4498 22.8481 56.3676 22.6992 57.2939C22.6844 57.387 22.6844 57.387 22.6692 57.4819C22.3902 59.1676 21.8704 60.78 21.1987 62.3487C22.8592 61.2226 23.8582 59.6091 24.7769 57.8683C24.7959 57.8683 24.8149 57.8683 24.8346 57.8683C24.8433 58.4067 24.8229 58.934 24.766 59.4695C24.7584 59.5414 24.7508 59.6133 24.7429 59.6873C24.4599 62.1827 23.6034 64.5426 21.8335 66.3695C21.7929 66.4136 21.7523 66.4576 21.7104 66.503C19.8738 68.4388 16.9207 69.2505 14.331 69.4139C14.0964 69.4199 13.8622 69.4194 13.6276 69.4175C13.5369 69.4171 13.5369 69.4171 13.4444 69.4167C13.2975 69.416 13.1505 69.4151 13.0036 69.4139C12.4425 68.3123 12.0587 67.1135 11.7916 65.91C11.7734 65.8303 11.7734 65.8303 11.7549 65.7489C11.5784 64.9456 11.5385 64.1515 11.5355 63.3324C11.5352 63.2859 11.5348 63.2394 11.5344 63.1915C11.53 62.2855 11.6309 61.3944 11.8962 60.5249C11.9113 60.4746 11.9263 60.4242 11.9418 60.3723C12.4795 58.6111 13.4729 57.0694 14.7174 55.7206C14.9596 55.4476 15.1805 55.1578 15.4042 54.8697C15.4826 54.7698 15.5622 54.6711 15.6423 54.5726C18.4423 51.1214 19.0722 47.1199 19.2942 42.8188Z" fill="#191919"/>
<path d="M17.3896 34.49C17.4626 34.6353 17.4449 34.7122 17.4283 34.8734C17.4199 34.9571 17.4199 34.9571 17.4113 35.0425C17.4049 35.1031 17.3985 35.1637 17.3918 35.2262C17.3855 35.2885 17.3791 35.3509 17.3726 35.4151C17.3521 35.6154 17.3312 35.8156 17.3102 36.0158C17.2965 36.1492 17.2828 36.2827 17.2692 36.4162C17.2152 36.9423 17.1604 37.4683 17.101 37.9939C17.0629 37.9939 17.0248 37.9939 16.9856 37.9939C16.9869 38.0607 16.9882 38.1274 16.9896 38.1962C16.9894 38.4331 16.9612 38.6577 16.922 38.8916C16.9153 38.932 16.9086 38.9724 16.9016 39.014C16.8796 39.1444 16.857 39.2746 16.8341 39.4048C16.8224 39.4718 16.8224 39.4718 16.8105 39.5401C16.5377 41.0972 16.1466 42.6354 15.2542 43.9677C15.2208 44.0938 15.2208 44.0938 15.1999 44.2359C15.1908 44.2906 15.1817 44.3452 15.1723 44.4016C15.1581 44.4906 15.1581 44.4906 15.1435 44.5814C15.1224 44.7087 15.1012 44.836 15.08 44.9633C15.069 45.03 15.058 45.0967 15.0467 45.1654C14.513 48.3875 13.5495 51.0792 11.604 53.7219C11.3676 54.0444 11.1444 54.3745 10.9258 54.7091C10.8861 54.7696 10.8861 54.7696 10.8455 54.8313C10.4693 55.4049 10.122 55.9798 9.82883 56.5998C9.76742 56.7283 9.70393 56.8556 9.64016 56.983C8.313 59.6588 8.7384 62.0724 9.6706 64.8187C9.70082 64.9068 9.7311 64.995 9.76143 65.0831C9.91441 65.5278 10.0605 65.9707 10.1756 66.427C7.94268 64.6302 6.5164 61.4056 6.17389 58.6289C5.77052 54.672 7.56349 51.0018 10.0024 47.9886C10.1629 47.7941 10.3264 47.6025 10.4914 47.4119C10.6241 47.2571 10.7518 47.0996 10.8789 46.9403C11.2195 46.5236 11.5964 46.14 11.9681 45.751C13.8759 43.7499 15.3008 41.5563 16.2931 38.9704C16.3123 38.9221 16.3315 38.8738 16.3514 38.8241C16.8663 37.5246 17.1214 36.0555 17.3095 34.674C17.3319 34.5474 17.3319 34.5474 17.3896 34.49Z" fill="#191919"/>
<path d="M19.0631 53.675C19.0821 53.675 19.1011 53.675 19.1208 53.675C19.3349 55.3644 19.3349 55.3644 19.3516 55.9727C19.3532 56.0285 19.3548 56.0844 19.3564 56.142C19.392 57.6576 19.281 59.1389 18.9185 60.6133C18.8931 60.7262 18.8758 60.841 18.8597 60.9557C18.8317 61.1456 18.7823 61.3067 18.7168 61.487C18.6934 61.5566 18.6701 61.6262 18.646 61.6979C18.1758 63.0744 17.5233 64.3473 16.6391 65.5078C16.6053 65.5528 16.5714 65.5977 16.5366 65.644C16.5133 65.6749 16.49 65.7058 16.466 65.7376C17.4928 65.6828 18.5856 65.209 19.3516 64.5313C19.4375 64.7879 19.3218 64.9291 19.208 65.1652C18.3055 66.9268 16.6996 67.8976 14.8699 68.5092C13.9479 68.8021 13.9479 68.8021 13.5227 68.782C13.0113 67.7758 12.8068 66.7439 12.8121 65.6191C12.8124 65.5463 12.8128 65.4736 12.8131 65.3986C12.8494 62.58 14.2177 60.3902 15.953 58.2708C17.0149 56.9738 17.9557 55.6251 18.7499 54.1472C18.7865 54.0793 18.7865 54.0793 18.8239 54.01C18.8451 53.9702 18.8663 53.9303 18.8882 53.8893C18.9476 53.7899 18.9476 53.7899 19.0631 53.675Z" fill="#191919"/>
<path d="M72.9666 51.7795C73.4998 51.7795 74.0331 51.7795 74.5825 51.7795C74.5825 53.4855 74.5825 55.1915 74.5825 56.9492C76.487 56.9492 78.3915 56.9492 80.3537 56.9492C80.3537 55.2432 80.3537 53.5372 80.3537 51.7795C80.906 51.7795 81.4583 51.7795 82.0273 51.7795C82.0273 55.8929 82.0273 60.0062 82.0273 64.2442C81.475 64.2442 80.9227 64.2442 80.3537 64.2442C80.3537 62.3297 80.3537 60.4152 80.3537 58.4427C78.4492 58.4427 76.5447 58.4427 74.5825 58.4427C74.5825 60.3572 74.5825 62.2717 74.5825 64.2442C74.0492 64.2442 73.516 64.2442 72.9666 64.2442C72.9666 60.1308 72.9666 56.0175 72.9666 51.7795Z" fill="#191919"/>
<path d="M29.9707 51.7795C30.504 51.7795 31.0372 51.7795 31.5866 51.7795C31.5866 53.4855 31.5866 55.1915 31.5866 56.9492C33.4911 56.9492 35.3956 56.9492 37.3578 56.9492C37.3578 55.2432 37.3578 53.5372 37.3578 51.7795C37.9102 51.7795 38.4625 51.7795 39.0315 51.7795C39.0315 55.8929 39.0315 60.0062 39.0315 64.2442C38.4792 64.2442 37.9269 64.2442 37.3578 64.2442C37.3578 62.3297 37.3578 60.4152 37.3578 58.4427C35.4534 58.4427 33.5489 58.4427 31.5866 58.4427C31.5866 60.3572 31.5866 62.2717 31.5866 64.2442C31.0534 64.2442 30.5201 64.2442 29.9707 64.2442C29.9707 60.1308 29.9707 56.0175 29.9707 51.7795Z" fill="#191919"/>
<path d="M95.5495 52.6555C96.2266 53.2931 96.4905 54.1636 96.5306 55.0716C96.5027 55.9613 96.2236 56.8195 95.5892 57.4661C94.709 58.2129 94.709 58.2129 94.2618 58.2129C94.2618 58.2508 94.2618 58.2887 94.2618 58.3277C94.3043 58.3338 94.3467 58.3399 94.3905 58.3461C94.9153 58.4743 95.2634 58.9868 95.5314 59.4191C95.882 60.0845 96.0312 60.7986 96.1951 61.5265C96.2469 61.7542 96.2991 61.9818 96.352 62.2093C96.3649 62.2645 96.3777 62.3197 96.3909 62.3766C96.5095 62.8749 96.6601 63.3607 96.8255 63.8454C96.8645 63.976 96.8897 64.1105 96.9165 64.2441C96.3642 64.2441 95.8119 64.2441 95.2429 64.2441C95.0915 63.9052 94.9697 63.6169 94.886 63.2647C94.8756 63.2226 94.8652 63.1806 94.8545 63.1372C94.8325 63.0482 94.8107 62.9591 94.7892 62.87C94.7554 62.7307 94.721 62.5915 94.6864 62.4524C94.5913 62.0692 94.4976 61.6858 94.411 61.3005C94.2563 60.6212 94.051 59.7314 93.4441 59.306C93.4092 59.2865 93.3743 59.2669 93.3384 59.2468C93.2798 59.2139 93.2798 59.2139 93.22 59.1804C92.4129 58.7808 91.4271 58.8752 90.5682 58.8447C90.5682 60.6265 90.5682 62.4083 90.5682 64.2441C90.0349 64.2441 89.5017 64.2441 88.9523 64.2441C88.9523 60.1877 88.9523 56.1312 88.9523 51.9518C89.2292 51.8599 89.4463 51.8097 89.7314 51.7759C89.8046 51.767 89.8778 51.758 89.9532 51.7488C91.791 51.5555 94.0407 51.388 95.5495 52.6555ZM90.5682 53.1006C90.5682 54.5792 90.5682 56.0577 90.5682 57.581C92.5435 57.6886 92.5435 57.6886 94.251 56.8845C94.6732 56.4239 94.8739 55.8422 94.8966 55.2259C94.8698 54.6659 94.7246 54.1794 94.3592 53.7468C94.308 53.7042 94.2568 53.6615 94.2041 53.6176C94.1563 53.5753 94.1563 53.5753 94.1076 53.5321C93.4914 53.0215 92.7384 52.9754 91.9713 52.975C91.9004 52.9743 91.8295 52.9736 91.7564 52.9729C91.6866 52.9727 91.6169 52.9726 91.545 52.9725C91.4508 52.9722 91.4508 52.9722 91.3546 52.9718C91.0895 52.9895 90.8287 53.0488 90.5682 53.1006Z" fill="#191919"/>
<path d="M10.6949 42.072C10.6949 42.3087 10.5999 42.386 10.4532 42.571C10.4276 42.6035 10.4019 42.6361 10.3755 42.6696C10.1371 42.9705 9.89362 43.2675 9.64994 43.5642C9.44437 43.8148 9.24244 44.0677 9.04285 44.323C8.8393 44.583 8.63049 44.8372 8.41523 45.0877C8.11854 45.4335 7.83396 45.7873 7.55474 46.1472C7.49005 46.2304 7.4251 46.3134 7.35996 46.3962C5.40941 48.8767 3.76984 51.6351 3.19229 54.7664C3.18463 54.8066 3.17696 54.8467 3.16907 54.8881C2.4412 58.8837 4.26134 62.6836 6.42417 65.9099C6.18353 65.9099 6.1244 65.8106 5.95165 65.6478C5.89419 65.5943 5.83671 65.5408 5.77919 65.4874C5.69851 65.4122 5.69851 65.4122 5.6162 65.3355C5.54204 65.2704 5.46754 65.2058 5.39256 65.1416C4.63934 64.4881 3.8879 63.8054 3.25 63.0379C3.21032 62.9909 3.21032 62.9909 3.16983 62.9431C1.23716 60.6547 0.165314 58.0804 0.376064 55.0587C0.6563 52.32 2.25851 49.8236 4.05797 47.8161C4.10023 47.7683 4.14248 47.7206 4.18602 47.6714C4.3151 47.5268 4.44589 47.3841 4.57738 47.2417C4.60885 47.2075 4.64032 47.1732 4.67274 47.138C5.11299 46.6604 5.55927 46.2021 6.04611 45.7711C6.17899 45.6519 6.30887 45.5295 6.43916 45.4075C6.75652 45.1108 7.07906 44.8262 7.41925 44.5552C7.56268 44.4397 7.70297 44.3213 7.84268 44.2014C8.25806 43.8458 8.69139 43.5183 9.13207 43.1946C9.2545 43.1041 9.37623 43.0129 9.49778 42.9213C9.88934 42.6264 10.2797 42.3337 10.6949 42.072Z" fill="#191919"/>
<path d="M64.1941 51.7795C66.3652 51.7795 68.5363 51.7795 70.7733 51.7795C70.7733 52.2345 70.7733 52.6894 70.7733 53.1581C69.1354 53.1581 67.4975 53.1581 65.81 53.1581C65.81 54.504 65.81 55.8498 65.81 57.2364C67.3146 57.2364 68.8191 57.2364 70.3693 57.2364C70.3693 57.6913 70.3693 58.1463 70.3693 58.615C68.8647 58.615 67.3602 58.615 65.81 58.615C65.81 60.4726 65.81 62.3302 65.81 64.2442C65.2768 64.2442 64.7435 64.2442 64.1941 64.2442C64.1941 60.1308 64.1941 56.0175 64.1941 51.7795Z" fill="#191919"/>
<path d="M49.8234 52.1816C52.2802 52.1816 54.737 52.1816 57.2682 52.1816C57.2682 53.5632 57.2682 53.5632 56.8606 54.3213C56.818 54.405 56.7757 54.4888 56.7337 54.5728C56.6472 54.7451 56.5599 54.9169 56.4719 55.0885C56.2933 55.4398 56.1323 55.7988 55.9712 56.1583C55.6235 56.9334 55.2598 57.7008 54.8931 58.4671C54.5915 59.0976 54.2959 59.7303 54.0075 60.3669C53.6452 61.1667 53.2705 61.9602 52.8916 62.7522C52.8705 62.7963 52.8494 62.8404 52.8277 62.8858C52.7889 62.9667 52.7502 63.0476 52.7113 63.1285C52.5339 63.4989 52.3624 63.8715 52.1896 64.2442C51.6182 64.2442 51.0469 64.2442 50.4582 64.2442C50.7824 63.4699 50.7824 63.4699 50.9506 63.1295C50.9776 63.0744 50.9776 63.0744 51.0052 63.0183C51.0434 62.9405 51.0818 62.8627 51.1202 62.7849C51.4349 62.1475 51.7436 61.5077 52.0417 60.8624C52.3437 60.2091 52.6576 59.5621 52.9747 58.9159C53.2776 58.2984 53.5725 57.6779 53.8608 57.0535C54.175 56.3762 54.5042 55.7062 54.834 55.0363C54.8555 54.9926 54.877 54.949 54.8991 54.9039C54.9389 54.8231 54.9787 54.7423 55.0187 54.6615C55.1791 54.3353 55.3279 54.0062 55.4791 53.6751C53.6127 53.6561 51.7463 53.6372 49.8234 53.6177C49.8234 53.1438 49.8234 52.6699 49.8234 52.1816Z" fill="#191919"/>
<path d="M41.6863 51.7795C42.2195 51.7795 42.7528 51.7795 43.3022 51.7795C43.3022 55.4379 43.3022 59.0963 43.3022 62.8656C45.0163 62.8656 46.7303 62.8656 48.4963 62.8656C48.4963 63.3205 48.4963 63.7755 48.4963 64.2442C46.249 64.2442 44.0017 64.2442 41.6863 64.2442C41.6863 60.1308 41.6863 56.0175 41.6863 51.7795Z" fill="#191919"/>
<path d="M84.682 51.7795C85.2153 51.7795 85.7485 51.7795 86.2979 51.7795C86.2979 55.8929 86.2979 60.0062 86.2979 64.2442C85.7647 64.2442 85.2314 64.2442 84.682 64.2442C84.682 60.1308 84.682 56.0175 84.682 51.7795Z" fill="#191919"/>
<path d="M24.89 42.5923C25.2813 42.8088 25.5015 43.0884 25.6421 43.508C25.681 43.9667 25.6792 44.3822 25.4112 44.7717C25.1445 45.0775 24.8222 45.2483 24.4211 45.3069C24.0167 45.3288 23.6351 45.2196 23.3268 44.9535C22.9736 44.5728 22.8978 44.2106 22.9084 43.699C22.9482 43.3404 23.0693 43.0608 23.3469 42.8237C23.8106 42.5059 24.3443 42.3987 24.89 42.5923ZM23.5211 43.1598C23.2634 43.5089 23.2369 43.7681 23.2759 44.1973C23.3781 44.5147 23.5904 44.6933 23.853 44.8866C24.0809 45 24.3549 44.9692 24.6032 44.944C24.9056 44.7963 25.0902 44.5887 25.2525 44.2978C25.3545 43.9254 25.3291 43.6044 25.1387 43.2664C24.9831 43.049 24.8023 42.9039 24.5455 42.8187C24.1258 42.7774 23.8088 42.831 23.5211 43.1598Z" fill="#191919"/>
<path d="M60.1251 52.4436C60.4907 52.6665 60.7033 52.9697 60.8195 53.3771C60.9106 53.8005 60.8236 54.1867 60.5922 54.5488C60.3215 54.8906 60.002 55.0612 59.571 55.1306C59.2018 55.1489 58.8554 55.0312 58.5488 54.8346C58.2257 54.513 58.0787 54.1668 58.0547 53.7145C58.0659 53.3516 58.1716 53.0235 58.4152 52.7492C58.8804 52.3274 59.5269 52.1753 60.1251 52.4436ZM58.5705 53.1042C58.4231 53.3801 58.4012 53.5903 58.4226 53.9048C58.539 54.2408 58.6806 54.4913 58.9745 54.6982C59.2975 54.8093 59.6282 54.8516 59.9452 54.7011C60.187 54.5319 60.3571 54.3641 60.4425 54.0771C60.4841 53.7061 60.4881 53.3533 60.2915 53.0255C60.1055 52.799 59.8971 52.6694 59.608 52.6137C59.1517 52.5872 58.851 52.7535 58.5705 53.1042Z" fill="#191919"/>
<path d="M99.7635 52.5069C100.028 52.7167 100.22 52.9493 100.322 53.2729C100.367 53.7334 100.397 54.2166 100.091 54.5941C99.7849 54.9306 99.4498 55.0898 98.9983 55.1326C98.5609 55.1129 98.2026 54.9615 97.8982 54.6515C97.612 54.2452 97.5738 53.873 97.6096 53.3878C97.6816 53.0095 97.8879 52.7619 98.1868 52.5262C98.6306 52.2467 99.3107 52.2342 99.7635 52.5069ZM98.1687 53.0109C97.9627 53.3222 97.9064 53.5932 97.9559 53.9622C98.0638 54.3032 98.2452 54.5034 98.533 54.7089C98.7851 54.8344 99.1426 54.8111 99.4068 54.7271C99.7091 54.5695 99.87 54.3355 99.9758 54.0197C100.005 53.6626 100.02 53.3437 99.8027 53.0432C99.5543 52.8005 99.3689 52.6334 99.0128 52.6231C98.6394 52.6274 98.4287 52.7381 98.1687 53.0109Z" fill="#191919"/>
<path d="M23.7383 43.1634C23.8752 43.1574 24.0121 43.1515 24.1531 43.1454C24.1957 43.1428 24.2382 43.1402 24.2821 43.1375C24.508 43.1328 24.5965 43.1574 24.7746 43.2989C24.8925 43.4506 24.8925 43.4506 24.9214 43.5978C24.888 43.7598 24.8289 43.8449 24.7194 43.9675C24.7468 44.028 24.7741 44.0884 24.8023 44.1506C24.8748 44.318 24.9227 44.4757 24.9502 44.6568C24.836 44.6568 24.7217 44.6568 24.604 44.6568C24.5906 44.6202 24.5773 44.5835 24.5636 44.5458C24.5073 44.4038 24.4511 44.2713 24.3731 44.1399C24.2226 44.0703 24.2226 44.0703 24.0846 44.0824C24.0846 44.272 24.0846 44.4615 24.0846 44.6568C23.9703 44.6568 23.856 44.6568 23.7383 44.6568C23.7383 44.164 23.7383 43.6711 23.7383 43.1634ZM24.0846 43.3931C24.0846 43.5258 24.0846 43.6585 24.0846 43.7952C24.2529 43.8048 24.2529 43.8048 24.4308 43.7952C24.4689 43.7573 24.507 43.7194 24.5463 43.6803C24.5279 43.5592 24.5279 43.5592 24.4885 43.4506C24.3552 43.4316 24.2219 43.4127 24.0846 43.3931Z" fill="#191919"/>
<path d="M58.9425 52.9858C59.0806 52.981 59.2187 52.9763 59.3609 52.9714C59.404 52.9693 59.4471 52.9672 59.4915 52.9651C59.6882 52.9618 59.7909 52.973 59.9502 53.0908C60.0695 53.2583 60.0643 53.3587 60.039 53.5602C60.0179 53.5962 59.9968 53.6323 59.975 53.6694C59.9069 53.8291 59.9398 53.8933 60.003 54.052C60.0655 54.2125 60.0967 54.3044 60.0967 54.4792C59.9825 54.4792 59.8682 54.4792 59.7505 54.4792C59.6933 54.3086 59.6362 54.138 59.5773 53.9623C59.4631 53.9433 59.3488 53.9243 59.2311 53.9048C59.2311 54.0944 59.2311 54.2839 59.2311 54.4792C59.1358 54.4792 59.0406 54.4792 58.9425 54.4792C58.9425 53.9864 58.9425 53.4935 58.9425 52.9858ZM59.2311 53.2155C59.2311 53.3482 59.2311 53.4809 59.2311 53.6176C59.47 53.6297 59.47 53.6297 59.6928 53.5602C59.6709 53.3711 59.6709 53.3711 59.5773 53.2155C59.4619 53.2132 59.3465 53.2131 59.2311 53.2155Z" fill="#191919"/>
<path d="M98.4751 52.9858C98.6132 52.981 98.7512 52.9763 98.8935 52.9714C98.9366 52.9693 98.9797 52.9672 99.0241 52.9651C99.2207 52.9618 99.3234 52.9729 99.4826 53.0908C99.6029 53.2594 99.6013 53.3574 99.5716 53.5602C99.4851 53.6966 99.4851 53.6966 99.3985 53.7899C99.4366 53.8278 99.4747 53.8658 99.5139 53.9048C99.5504 54.0417 99.5504 54.0417 99.5788 54.1992C99.5885 54.2515 99.5982 54.3037 99.6081 54.3576C99.6151 54.3977 99.6221 54.4379 99.6293 54.4792C99.5151 54.4792 99.4008 54.4792 99.2831 54.4792C99.2259 54.3086 99.1688 54.138 99.1099 53.9623C98.9957 53.9433 98.8814 53.9243 98.7637 53.9048C98.7637 54.0944 98.7637 54.2839 98.7637 54.4792C98.6684 54.4792 98.5732 54.4792 98.4751 54.4792C98.4751 53.9864 98.4751 53.4935 98.4751 52.9858ZM98.7637 53.2155C98.7637 53.3482 98.7637 53.4809 98.7637 53.6176C98.932 53.6272 98.932 53.6272 99.1099 53.6176C99.148 53.5797 99.1861 53.5418 99.2254 53.5027C99.207 53.3816 99.207 53.3816 99.1676 53.273C99.0343 53.254 98.901 53.2351 98.7637 53.2155Z" fill="#191919"/>
<path d="M9.82907 65.9673C9.86716 66.0052 9.90525 66.0431 9.9445 66.0822C9.98259 66.0632 10.0207 66.0443 10.0599 66.0247C10.098 66.1574 10.1361 66.2901 10.1753 66.4268C10.042 66.3131 9.90872 66.1993 9.77136 66.0822C9.79041 66.0443 9.80945 66.0063 9.82907 65.9673Z" fill="#393939"/>
</g>
<defs>
<clipPath id="clip0_2377_7828">
<rect width="100" height="100" fill="white" transform="translate(0.349854 0.863037)"/>
</clipPath>
</defs>
</svg>
