<svg width="101" height="101" viewBox="0 0 101 101" fill="none" xmlns="http://www.w3.org/2000/svg">
<g clip-path="url(#clip0_2377_7869)">
<path d="M14.273 31.4788C14.311 31.4788 14.3491 31.4788 14.3884 31.4788C15.2707 33.035 16.1267 34.626 16.7546 36.3038C16.8605 36.1159 16.9079 35.9362 16.953 35.726C16.9677 35.6576 16.9824 35.5891 16.9976 35.5186C17.0126 35.4472 17.0276 35.3757 17.0431 35.3022C17.0582 35.2327 17.0732 35.1633 17.0887 35.0918C17.176 34.682 17.2481 34.2741 17.3013 33.8585C17.3113 33.8124 17.3213 33.7664 17.3317 33.7189C17.3698 33.7 17.4079 33.681 17.4471 33.6615C17.4165 34.0015 17.3857 34.3414 17.3548 34.6814C17.3444 34.7965 17.334 34.9116 17.3236 35.0267C17.3135 35.1386 17.3034 35.2504 17.2932 35.3622C17.2831 35.474 17.2731 35.5857 17.2632 35.6976C17.2392 35.9637 17.2122 36.2286 17.1768 36.4935C17.1087 37.0111 17.0781 37.4153 17.274 37.9121C17.3127 38.024 17.3508 38.136 17.3885 38.2482C17.4178 38.3343 17.4178 38.3343 17.4477 38.4222C18.6554 42.2097 17.9815 46.1357 16.1883 49.6049C15.8705 50.2089 15.5184 50.7861 15.1386 51.3532C15.1122 51.3927 15.0858 51.4321 15.0587 51.4727C14.7976 51.86 14.5279 52.2405 14.251 52.6168C13.2078 54.0364 12.1949 55.5159 11.4374 57.1084C11.3892 57.2083 11.3386 57.307 11.2879 57.4056C10.8228 58.3357 10.4365 59.3975 10.2908 60.4289C10.2818 60.4924 10.2818 60.4924 10.2726 60.5572C9.93234 63.0817 10.6975 65.4939 11.7279 67.7765C11.7513 67.8284 11.7747 67.8802 11.7988 67.9336C11.8196 67.9792 11.8405 68.0248 11.862 68.0718C11.9068 68.1834 11.9068 68.1834 11.9068 68.2982C10.8145 67.7948 9.78541 66.7458 8.90573 65.9432C8.87378 65.9143 8.84182 65.8854 8.8089 65.8556C8.07561 65.1918 8.07561 65.1918 7.79071 64.8511C7.67418 64.7138 7.55043 64.5844 7.42686 64.4533C6.78149 63.7467 6.23039 62.9665 5.73156 62.1521C5.69676 62.0954 5.69676 62.0954 5.66126 62.0375C4.7563 60.5448 4.12139 58.7406 4.10187 56.9847C4.10102 56.921 4.10102 56.921 4.10015 56.856C4.073 54.2919 4.74843 52.0807 5.9047 49.8023C5.9268 49.7582 5.94889 49.7141 5.97166 49.6687C6.80163 48.0307 7.96268 46.4903 9.13139 45.0792C9.30269 44.8721 9.46893 44.6614 9.63434 44.4496C9.83788 44.1896 10.0467 43.9354 10.262 43.6849C10.5607 43.337 10.8456 42.9798 11.1274 42.6182C11.2195 42.5007 11.3124 42.3838 11.4054 42.2671C12.202 41.2635 12.9261 40.2194 13.5804 39.1184C13.615 39.0604 13.615 39.0604 13.6503 39.0012C14.9998 36.7048 15.0281 34.3911 14.3884 31.8808C14.3516 31.7462 14.313 31.6125 14.273 31.4788Z" fill="#E4E4E4"/>
<path d="M19.2942 41.9905C19.4449 42.1335 19.567 42.2702 19.6747 42.4475C19.7017 42.4918 19.7286 42.5361 19.7564 42.5817C19.7848 42.6294 19.8132 42.6772 19.8425 42.7264C19.8876 42.8022 19.8876 42.8022 19.9337 42.8794C21.8463 46.1209 22.9048 49.7432 22.8904 53.5109C22.8903 53.5684 22.8902 53.6258 22.8901 53.685C22.8872 54.6214 22.8481 55.5393 22.6992 56.4655C22.6844 56.5586 22.6844 56.5586 22.6692 56.6535C22.3902 58.3392 21.8704 59.9516 21.1987 61.5203C22.8592 60.3943 23.8582 58.7807 24.7769 57.0399C24.7959 57.0399 24.8149 57.0399 24.8346 57.0399C24.8433 57.5783 24.8229 58.1057 24.766 58.6411C24.7584 58.713 24.7508 58.7849 24.7429 58.859C24.4599 61.3543 23.6034 63.7142 21.8335 65.5412C21.7929 65.5852 21.7523 65.6293 21.7104 65.6747C19.8738 67.6104 16.9207 68.4222 14.331 68.5855C14.0964 68.5915 13.8622 68.5911 13.6276 68.5891C13.5369 68.5887 13.5369 68.5887 13.4444 68.5883C13.2975 68.5877 13.1505 68.5867 13.0036 68.5855C12.4425 67.4839 12.0587 66.2852 11.7916 65.0816C11.7734 65.0019 11.7734 65.0019 11.7549 64.9205C11.5784 64.1172 11.5385 63.3232 11.5355 62.504C11.5352 62.4575 11.5348 62.411 11.5344 62.3631C11.53 61.4571 11.6309 60.566 11.8962 59.6966C11.9113 59.6462 11.9263 59.5958 11.9418 59.5439C12.4795 57.7827 13.4729 56.241 14.7174 54.8922C14.9596 54.6192 15.1805 54.3294 15.4042 54.0414C15.4826 53.9415 15.5622 53.8427 15.6423 53.7443C18.4423 50.2931 19.0722 46.2915 19.2942 41.9905Z" fill="#E4E4E4"/>
<path d="M17.3896 33.6616C17.4626 33.8069 17.4449 33.8838 17.4283 34.045C17.4199 34.1287 17.4199 34.1287 17.4113 34.2141C17.4049 34.2748 17.3985 34.3354 17.3918 34.3978C17.3855 34.4602 17.3791 34.5225 17.3726 34.5868C17.3521 34.787 17.3312 34.9872 17.3102 35.1874C17.2965 35.3209 17.2828 35.4543 17.2692 35.5878C17.2152 36.1139 17.1604 36.6399 17.101 37.1655C17.0629 37.1655 17.0248 37.1655 16.9856 37.1655C16.9869 37.2323 16.9882 37.2991 16.9896 37.3679C16.9894 37.6047 16.9612 37.8293 16.922 38.0632C16.9153 38.1036 16.9086 38.144 16.9016 38.1857C16.8796 38.316 16.857 38.4462 16.8341 38.5764C16.8224 38.6434 16.8224 38.6434 16.8105 38.7117C16.5377 40.2688 16.1466 41.8071 15.2542 43.1393C15.2208 43.2655 15.2208 43.2655 15.1999 43.4076C15.1908 43.4622 15.1817 43.5169 15.1723 43.5732C15.1581 43.6622 15.1581 43.6622 15.1435 43.753C15.1224 43.8803 15.1012 44.0076 15.08 44.1349C15.069 44.2016 15.058 44.2683 15.0467 44.337C14.513 47.5591 13.5495 50.2508 11.604 52.8935C11.3676 53.216 11.1444 53.5461 10.9258 53.8807C10.8861 53.9412 10.8861 53.9412 10.8455 54.0029C10.4693 54.5765 10.122 55.1515 9.82883 55.7714C9.76742 55.8999 9.70393 56.0272 9.64016 56.1546C8.313 58.8305 8.7384 61.244 9.6706 63.9903C9.70082 64.0785 9.7311 64.1666 9.76143 64.2548C9.91441 64.6995 10.0605 65.1423 10.1756 65.5986C7.94268 63.8018 6.5164 60.5773 6.17389 57.8005C5.77052 53.8437 7.56349 50.1734 10.0024 47.1602C10.1629 46.9658 10.3264 46.7741 10.4914 46.5835C10.6241 46.4288 10.7518 46.2712 10.8789 46.1119C11.2195 45.6952 11.5964 45.3116 11.9681 44.9226C13.8759 42.9215 15.3008 40.7279 16.2931 38.142C16.3123 38.0937 16.3315 38.0455 16.3514 37.9958C16.8663 36.6962 17.1214 35.2271 17.3095 33.8456C17.3319 33.7191 17.3319 33.7191 17.3896 33.6616Z" fill="#E4E4E4"/>
<path d="M19.0631 52.8467C19.0821 52.8467 19.1011 52.8467 19.1208 52.8467C19.3349 54.5361 19.3349 54.5361 19.3516 55.1443C19.3532 55.2002 19.3548 55.256 19.3564 55.3136C19.392 56.8292 19.281 58.3106 18.9185 59.7849C18.8931 59.8979 18.8758 60.0126 18.8597 60.1273C18.8317 60.3172 18.7823 60.4783 18.7168 60.6586C18.6934 60.7282 18.6701 60.7978 18.646 60.8695C18.1758 62.2461 17.5233 63.519 16.6391 64.6795C16.6053 64.7244 16.5714 64.7694 16.5366 64.8157C16.5133 64.8465 16.49 64.8774 16.466 64.9092C17.4928 64.8545 18.5856 64.3807 19.3516 63.703C19.4375 63.9596 19.3218 64.1007 19.208 64.3368C18.3055 66.0985 16.6996 67.0692 14.8699 67.6809C13.9479 67.9737 13.9479 67.9737 13.5227 67.9536C13.0113 66.9475 12.8068 65.9156 12.8121 64.7908C12.8124 64.718 12.8128 64.6452 12.8131 64.5702C12.8494 61.7516 14.2177 59.5618 15.953 57.4424C17.0149 56.1454 17.9557 54.7967 18.7499 53.3188C18.7865 53.2509 18.7865 53.2509 18.8239 53.1817C18.8451 53.1418 18.8663 53.102 18.8882 53.0609C18.9476 52.9616 18.9476 52.9616 19.0631 52.8467Z" fill="#E4E4E4"/>
<path d="M72.9666 50.9512C73.4998 50.9512 74.0331 50.9512 74.5825 50.9512C74.5825 52.6572 74.5825 54.3631 74.5825 56.1208C76.487 56.1208 78.3915 56.1208 80.3537 56.1208C80.3537 54.4148 80.3537 52.7089 80.3537 50.9512C80.906 50.9512 81.4583 50.9512 82.0273 50.9512C82.0273 55.0645 82.0273 59.1778 82.0273 63.4158C81.475 63.4158 80.9227 63.4158 80.3537 63.4158C80.3537 61.5013 80.3537 59.5868 80.3537 57.6143C78.4492 57.6143 76.5447 57.6143 74.5825 57.6143C74.5825 59.5288 74.5825 61.4433 74.5825 63.4158C74.0492 63.4158 73.516 63.4158 72.9666 63.4158C72.9666 59.3025 72.9666 55.1891 72.9666 50.9512Z" fill="#E4E4E4"/>
<path d="M29.9707 50.9512C30.504 50.9512 31.0372 50.9512 31.5866 50.9512C31.5866 52.6572 31.5866 54.3631 31.5866 56.1208C33.4911 56.1208 35.3956 56.1208 37.3578 56.1208C37.3578 54.4148 37.3578 52.7089 37.3578 50.9512C37.9102 50.9512 38.4625 50.9512 39.0315 50.9512C39.0315 55.0645 39.0315 59.1778 39.0315 63.4158C38.4792 63.4158 37.9269 63.4158 37.3578 63.4158C37.3578 61.5013 37.3578 59.5868 37.3578 57.6143C35.4534 57.6143 33.5489 57.6143 31.5866 57.6143C31.5866 59.5288 31.5866 61.4433 31.5866 63.4158C31.0534 63.4158 30.5201 63.4158 29.9707 63.4158C29.9707 59.3025 29.9707 55.1891 29.9707 50.9512Z" fill="#E4E4E4"/>
<path d="M95.5495 51.8271C96.2266 52.4648 96.4905 53.3353 96.5306 54.2432C96.5027 55.133 96.2236 55.9911 95.5892 56.6378C94.709 57.3845 94.709 57.3845 94.2618 57.3845C94.2618 57.4224 94.2618 57.4603 94.2618 57.4994C94.3043 57.5054 94.3467 57.5115 94.3905 57.5178C94.9153 57.646 95.2634 58.1584 95.5314 58.5907C95.882 59.2562 96.0312 59.9702 96.1951 60.6981C96.2469 60.9258 96.2991 61.1534 96.352 61.3809C96.3649 61.4361 96.3777 61.4913 96.3909 61.5482C96.5095 62.0465 96.6601 62.5323 96.8255 63.017C96.8645 63.1477 96.8897 63.2821 96.9165 63.4158C96.3642 63.4158 95.8119 63.4158 95.2429 63.4158C95.0915 63.0768 94.9697 62.7885 94.886 62.4364C94.8756 62.3943 94.8652 62.3522 94.8545 62.3088C94.8325 62.2198 94.8107 62.1307 94.7892 62.0416C94.7554 61.9023 94.721 61.7632 94.6864 61.6241C94.5913 61.2408 94.4976 60.8574 94.411 60.4722C94.2563 59.7928 94.051 58.9031 93.4441 58.4777C93.4092 58.4581 93.3743 58.4386 93.3384 58.4184C93.2798 58.3855 93.2798 58.3855 93.22 58.352C92.4129 57.9525 91.4271 58.0469 90.5682 58.0163C90.5682 59.7981 90.5682 61.58 90.5682 63.4158C90.0349 63.4158 89.5017 63.4158 88.9523 63.4158C88.9523 59.3593 88.9523 55.3028 88.9523 51.1235C89.2292 51.0316 89.4463 50.9813 89.7314 50.9475C89.8046 50.9386 89.8778 50.9296 89.9532 50.9204C91.791 50.7271 94.0407 50.5597 95.5495 51.8271ZM90.5682 52.2723C90.5682 53.7508 90.5682 55.2293 90.5682 56.7526C92.5435 56.8602 92.5435 56.8602 94.251 56.0562C94.6732 55.5956 94.8739 55.0139 94.8966 54.3976C94.8698 53.8375 94.7246 53.351 94.3592 52.9185C94.308 52.8758 94.2568 52.8332 94.2041 52.7892C94.1563 52.7469 94.1563 52.7469 94.1076 52.7037C93.4914 52.1931 92.7384 52.147 91.9713 52.1466C91.9004 52.1459 91.8295 52.1452 91.7564 52.1445C91.6866 52.1444 91.6169 52.1443 91.545 52.1441C91.4508 52.1438 91.4508 52.1438 91.3546 52.1434C91.0895 52.1611 90.8287 52.2204 90.5682 52.2723Z" fill="#E4E4E4"/>
<path d="M10.6949 41.2437C10.6949 41.4803 10.5999 41.5576 10.4532 41.7427C10.4276 41.7752 10.4019 41.8077 10.3755 41.8412C10.1371 42.1421 9.89362 42.4391 9.64994 42.7359C9.44437 42.9864 9.24244 43.2394 9.04285 43.4946C8.8393 43.7546 8.63049 44.0088 8.41523 44.2593C8.11854 44.6051 7.83396 44.9589 7.55474 45.3189C7.49005 45.402 7.4251 45.485 7.35996 45.5678C5.40941 48.0483 3.76984 50.8068 3.19229 53.938C3.18463 53.9782 3.17696 54.0183 3.16907 54.0597C2.4412 58.0553 4.26134 61.8552 6.42417 65.0815C6.18353 65.0815 6.1244 64.9822 5.95165 64.8195C5.89419 64.766 5.83671 64.7125 5.77919 64.659C5.69851 64.5838 5.69851 64.5838 5.6162 64.5071C5.54204 64.4421 5.46754 64.3774 5.39256 64.3133C4.63934 63.6598 3.8879 62.9771 3.25 62.2095C3.21032 62.1626 3.21032 62.1626 3.16983 62.1147C1.23716 59.8263 0.165314 57.252 0.376064 54.2303C0.6563 51.4916 2.25851 48.9953 4.05797 46.9877C4.10023 46.94 4.14248 46.8922 4.18602 46.843C4.3151 46.6985 4.44589 46.5557 4.57738 46.4133C4.60885 46.3791 4.64032 46.3449 4.67274 46.3096C5.11299 45.832 5.55927 45.3737 6.04611 44.9427C6.17899 44.8235 6.30887 44.7012 6.43916 44.5792C6.75652 44.2824 7.07906 43.9978 7.41925 43.7268C7.56268 43.6114 7.70297 43.4929 7.84268 43.373C8.25806 43.0174 8.69139 42.69 9.13207 42.3662C9.2545 42.2758 9.37623 42.1845 9.49778 42.0929C9.88934 41.7981 10.2797 41.5054 10.6949 41.2437Z" fill="#E4E4E4"/>
<path d="M64.1941 50.9512C66.3652 50.9512 68.5363 50.9512 70.7733 50.9512C70.7733 51.4061 70.7733 51.861 70.7733 52.3297C69.1354 52.3297 67.4975 52.3297 65.81 52.3297C65.81 53.6756 65.81 55.0214 65.81 56.408C67.3146 56.408 68.8191 56.408 70.3693 56.408C70.3693 56.863 70.3693 57.3179 70.3693 57.7866C68.8647 57.7866 67.3602 57.7866 65.81 57.7866C65.81 59.6442 65.81 61.5019 65.81 63.4158C65.2768 63.4158 64.7435 63.4158 64.1941 63.4158C64.1941 59.3025 64.1941 55.1891 64.1941 50.9512Z" fill="#E4E4E4"/>
<path d="M49.8234 51.3533C52.2802 51.3533 54.737 51.3533 57.2682 51.3533C57.2682 52.7349 57.2682 52.7349 56.8606 53.4929C56.818 53.5766 56.7757 53.6605 56.7337 53.7444C56.6472 53.9167 56.5599 54.0885 56.4719 54.2601C56.2933 54.6114 56.1323 54.9704 55.9712 55.33C55.6235 56.1051 55.2598 56.8724 54.8931 57.6387C54.5915 58.2692 54.2959 58.902 54.0075 59.5386C53.6452 60.3383 53.2705 61.1318 52.8916 61.9238C52.8705 61.9679 52.8494 62.012 52.8277 62.0574C52.7889 62.1383 52.7502 62.2192 52.7113 62.3001C52.5339 62.6705 52.3624 63.0431 52.1896 63.4158C51.6182 63.4158 51.0469 63.4158 50.4582 63.4158C50.7824 62.6415 50.7824 62.6415 50.9506 62.3011C50.9776 62.2461 50.9776 62.2461 51.0052 62.1899C51.0434 62.1121 51.0818 62.0343 51.1202 61.9566C51.4349 61.3191 51.7436 60.6794 52.0417 60.034C52.3437 59.3807 52.6576 58.7337 52.9747 58.0876C53.2776 57.47 53.5725 56.8495 53.8608 56.2251C54.175 55.5478 54.5042 54.8778 54.834 54.2079C54.8555 54.1643 54.877 54.1206 54.8991 54.0756C54.9389 53.9947 54.9787 53.9139 55.0187 53.8331C55.1791 53.507 55.3279 53.1778 55.4791 52.8467C53.6127 52.8278 51.7463 52.8088 49.8234 52.7893C49.8234 52.3154 49.8234 51.8415 49.8234 51.3533Z" fill="#E4E4E4"/>
<path d="M41.6863 50.9512C42.2195 50.9512 42.7528 50.9512 43.3022 50.9512C43.3022 54.6096 43.3022 58.268 43.3022 62.0372C45.0163 62.0372 46.7303 62.0372 48.4963 62.0372C48.4963 62.4922 48.4963 62.9471 48.4963 63.4158C46.249 63.4158 44.0017 63.4158 41.6863 63.4158C41.6863 59.3025 41.6863 55.1891 41.6863 50.9512Z" fill="#E4E4E4"/>
<path d="M84.682 50.9512C85.2153 50.9512 85.7485 50.9512 86.2979 50.9512C86.2979 55.0645 86.2979 59.1778 86.2979 63.4158C85.7647 63.4158 85.2314 63.4158 84.682 63.4158C84.682 59.3025 84.682 55.1891 84.682 50.9512Z" fill="#E4E4E4"/>
<path d="M24.89 41.764C25.2813 41.9804 25.5015 42.26 25.6421 42.6797C25.681 43.1383 25.6792 43.5539 25.4112 43.9434C25.1445 44.2491 24.8222 44.4199 24.4211 44.4785C24.0167 44.5005 23.6351 44.3912 23.3268 44.1251C22.9736 43.7444 22.8978 43.3822 22.9084 42.8706C22.9482 42.512 23.0693 42.2324 23.3469 41.9953C23.8106 41.6776 24.3443 41.5703 24.89 41.764ZM23.5211 42.3314C23.2634 42.6805 23.2369 42.9397 23.2759 43.369C23.3781 43.6863 23.5904 43.8649 23.853 44.0582C24.0809 44.1716 24.3549 44.1409 24.6032 44.1157C24.9056 43.968 25.0902 43.7603 25.2525 43.4695C25.3545 43.0971 25.3291 42.776 25.1387 42.438C24.9831 42.2206 24.8023 42.0756 24.5455 41.9904C24.1258 41.949 23.8088 42.0027 23.5211 42.3314Z" fill="#E4E4E4"/>
<path d="M60.1251 51.6153C60.4907 51.8381 60.7033 52.1413 60.8195 52.5487C60.9106 52.9721 60.8236 53.3584 60.5922 53.7204C60.3215 54.0622 60.002 54.2328 59.571 54.3022C59.2018 54.3205 58.8554 54.2029 58.5488 54.0062C58.2257 53.6846 58.0787 53.3384 58.0547 52.8862C58.0659 52.5233 58.1716 52.1951 58.4152 51.9209C58.8804 51.499 59.5269 51.3469 60.1251 51.6153ZM58.5705 52.2758C58.4231 52.5517 58.4012 52.7619 58.4226 53.0764C58.539 53.4125 58.6806 53.6629 58.9745 53.8698C59.2975 53.9809 59.6282 54.0232 59.9452 53.8727C60.187 53.7036 60.3571 53.5358 60.4425 53.2487C60.4841 52.8778 60.4881 52.5249 60.2915 52.1971C60.1055 51.9706 59.8971 51.8411 59.608 51.7854C59.1517 51.7588 58.851 51.9251 58.5705 52.2758Z" fill="#E4E4E4"/>
<path d="M99.7635 51.6785C100.028 51.8883 100.22 52.1209 100.322 52.4446C100.367 52.9051 100.397 53.3882 100.091 53.7657C99.7849 54.1022 99.4498 54.2614 98.9983 54.3042C98.5609 54.2845 98.2026 54.1332 97.8982 53.8231C97.612 53.4168 97.5738 53.0447 97.6096 52.5594C97.6816 52.1811 97.8879 51.9336 98.1868 51.6978C98.6306 51.4184 99.3107 51.4058 99.7635 51.6785ZM98.1687 52.1825C97.9627 52.4938 97.9064 52.7648 97.9559 53.1338C98.0638 53.4748 98.2452 53.675 98.533 53.8806C98.7851 54.006 99.1426 53.9827 99.4068 53.8987C99.7091 53.7411 99.87 53.5072 99.9758 53.1913C100.005 52.8342 100.02 52.5153 99.8027 52.2148C99.5543 51.9722 99.3689 51.8051 99.0128 51.7948C98.6394 51.799 98.4287 51.9097 98.1687 52.1825Z" fill="#E4E4E4"/>
<path d="M23.7383 42.335C23.8752 42.3291 24.0121 42.3231 24.1531 42.317C24.1957 42.3144 24.2382 42.3118 24.2821 42.3091C24.508 42.3044 24.5965 42.3291 24.7746 42.4705C24.8925 42.6222 24.8925 42.6222 24.9214 42.7694C24.888 42.9314 24.8289 43.0165 24.7194 43.1392C24.7468 43.1996 24.7741 43.26 24.8023 43.3223C24.8748 43.4897 24.9227 43.6474 24.9502 43.8285C24.836 43.8285 24.7217 43.8285 24.604 43.8285C24.5906 43.7918 24.5773 43.7551 24.5636 43.7174C24.5073 43.5755 24.4511 43.443 24.3731 43.3115C24.2226 43.2419 24.2226 43.2419 24.0846 43.254C24.0846 43.4436 24.0846 43.6332 24.0846 43.8285C23.9703 43.8285 23.856 43.8285 23.7383 43.8285C23.7383 43.3356 23.7383 42.8428 23.7383 42.335ZM24.0846 42.5648C24.0846 42.6974 24.0846 42.8301 24.0846 42.9668C24.2529 42.9764 24.2529 42.9764 24.4308 42.9668C24.4689 42.9289 24.507 42.891 24.5463 42.852C24.5279 42.7309 24.5279 42.7309 24.4885 42.6222C24.3552 42.6032 24.2219 42.5843 24.0846 42.5648Z" fill="#E4E4E4"/>
<path d="M58.9425 52.1574C59.0806 52.1527 59.2187 52.1479 59.3609 52.143C59.404 52.1409 59.4471 52.1388 59.4915 52.1367C59.6882 52.1334 59.7909 52.1446 59.9502 52.2624C60.0695 52.43 60.0643 52.5303 60.039 52.7318C60.0179 52.7679 59.9968 52.8039 59.975 52.8411C59.9069 53.0007 59.9398 53.0649 60.003 53.2236C60.0655 53.3841 60.0967 53.476 60.0967 53.6509C59.9825 53.6509 59.8682 53.6509 59.7505 53.6509C59.6933 53.4803 59.6362 53.3097 59.5773 53.1339C59.4631 53.1149 59.3488 53.096 59.2311 53.0764C59.2311 53.266 59.2311 53.4556 59.2311 53.6509C59.1358 53.6509 59.0406 53.6509 58.9425 53.6509C58.9425 53.158 58.9425 52.6652 58.9425 52.1574ZM59.2311 52.3872C59.2311 52.5198 59.2311 52.6525 59.2311 52.7892C59.47 52.8013 59.47 52.8013 59.6928 52.7318C59.6709 52.5428 59.6709 52.5428 59.5773 52.3872C59.4619 52.3848 59.3465 52.3847 59.2311 52.3872Z" fill="#E4E4E4"/>
<path d="M98.4751 52.1574C98.6132 52.1527 98.7512 52.1479 98.8935 52.143C98.9366 52.1409 98.9797 52.1389 99.0241 52.1367C99.2207 52.1334 99.3234 52.1445 99.4826 52.2624C99.6029 52.431 99.6013 52.5291 99.5716 52.7318C99.4851 52.8682 99.4851 52.8682 99.3985 52.9616C99.4366 52.9995 99.4747 53.0374 99.5139 53.0764C99.5504 53.2133 99.5504 53.2133 99.5788 53.3708C99.5885 53.4231 99.5982 53.4754 99.6081 53.5292C99.6151 53.5694 99.6221 53.6095 99.6293 53.6509C99.5151 53.6509 99.4008 53.6509 99.2831 53.6509C99.2259 53.4803 99.1688 53.3097 99.1099 53.1339C98.9957 53.1149 98.8814 53.096 98.7637 53.0764C98.7637 53.266 98.7637 53.4556 98.7637 53.6509C98.6684 53.6509 98.5732 53.6509 98.4751 53.6509C98.4751 53.158 98.4751 52.6652 98.4751 52.1574ZM98.7637 52.3872C98.7637 52.5198 98.7637 52.6525 98.7637 52.7892C98.932 52.7988 98.932 52.7988 99.1099 52.7892C99.148 52.7513 99.1861 52.7134 99.2254 52.6744C99.207 52.5533 99.207 52.5533 99.1676 52.4446C99.0343 52.4256 98.901 52.4067 98.7637 52.3872Z" fill="#E4E4E4"/>
<path d="M9.82907 65.1389C9.86716 65.1768 9.90525 65.2147 9.9445 65.2538C9.98259 65.2348 10.0207 65.2159 10.0599 65.1964C10.098 65.329 10.1361 65.4617 10.1753 65.5984C10.042 65.4847 9.90872 65.371 9.77136 65.2538C9.79041 65.2159 9.80945 65.178 9.82907 65.1389Z" fill="#393939"/>
</g>
<defs>
<clipPath id="clip0_2377_7869">
<rect width="100" height="100" fill="white" transform="translate(0.349854 0.034668)"/>
</clipPath>
</defs>
</svg>
