<svg width="101" height="101" viewBox="0 0 101 101" fill="none" xmlns="http://www.w3.org/2000/svg">
<g clip-path="url(#clip0_2377_7897)">
<path d="M89.6552 43.2024C89.6148 43.2023 89.5754 43.2143 89.5419 43.2368L87.7091 44.3071C87.6746 44.3284 87.6462 44.3584 87.6268 44.394C87.6073 44.4296 87.5975 44.4696 87.5981 44.5102V46.6508C87.5981 46.7414 87.6411 46.8102 87.7091 46.8555L89.5419 47.9242C89.5754 47.9467 89.6148 47.9587 89.6552 47.9587C89.6955 47.9587 89.7349 47.9467 89.7684 47.9242L91.5981 46.8555C91.6329 46.8336 91.6615 46.8033 91.6813 46.7674C91.7011 46.7314 91.7115 46.6911 91.7114 46.65V44.5118C91.7118 44.471 91.7016 44.4308 91.6817 44.3952C91.6618 44.3595 91.633 44.3297 91.5981 44.3086L89.7677 43.2375C89.7344 43.2152 89.6952 43.2025 89.6552 43.2024ZM49.7391 56.0023C49.4055 56.0023 49.0735 56.0835 48.7907 56.2429L39.7681 61.4983C39.479 61.6681 39.2394 61.9106 39.073 62.2017C38.9066 62.4928 38.8193 62.8224 38.8197 63.1577V73.6443C38.8197 74.3271 39.1806 74.9646 39.7681 75.3068L42.1431 76.6708C43.2962 77.2396 43.7033 77.238 44.2228 77.238C45.9181 77.238 46.8907 76.1919 46.8907 74.3943V64.0467C46.8897 63.9747 46.8608 63.9059 46.8101 63.8547C46.7594 63.8036 46.6909 63.7741 46.6188 63.7725H45.4673C45.395 63.7737 45.3261 63.803 45.275 63.8542C45.224 63.9054 45.1949 63.9744 45.1939 64.0467V74.3966C45.1939 75.1927 44.3587 75.9904 43.0251 75.3083L40.5603 73.8748C40.4697 73.8294 40.4236 73.7138 40.4236 73.6232V63.1342C40.4236 63.0436 40.4697 62.9311 40.5603 62.885L49.5798 57.653C49.6477 57.6077 49.7618 57.6077 49.8524 57.653L58.8742 62.885C58.964 62.9311 59.0086 63.0209 59.0086 63.135V73.6224C59.0086 73.7357 58.964 73.8287 58.8742 73.874L49.8524 79.1294C49.7844 79.1747 49.6704 79.1747 49.5798 79.1294L47.2743 77.7396C47.2063 77.6942 47.1157 77.6716 47.0478 77.7169C46.4149 78.081 46.304 78.1286 45.6931 78.3333C45.5571 78.3786 45.3314 78.4685 45.7829 78.7185L48.7907 80.5169C49.0844 80.6755 49.4001 80.7661 49.7391 80.7661C50.0782 80.7661 50.4165 80.6762 50.6876 80.563L59.7101 75.3076C59.9997 75.1375 60.2396 74.8945 60.406 74.6028C60.5724 74.3111 60.6595 73.9809 60.6586 73.6451V63.1577C60.6586 62.4749 60.2976 61.8397 59.7101 61.4983L50.6876 56.2429C50.397 56.0835 50.0706 56.0007 49.7391 56.0023ZM63.8249 60.7913C63.3619 60.7931 62.9186 60.9788 62.5923 61.3073C62.2661 61.6359 62.0837 62.0806 62.0851 62.5436C62.0839 63.0065 62.2664 63.451 62.5926 63.7794C62.9188 64.1078 63.362 64.2933 63.8249 64.2952C64.7757 64.2952 65.5655 63.4991 65.5655 62.5436C65.5631 62.0817 65.3793 61.6393 65.0537 61.3116C64.7281 60.984 64.2868 60.7966 63.8249 60.7913ZM63.8015 61.0874C63.9941 61.085 64.1852 61.1209 64.3638 61.1931C64.5424 61.2652 64.7049 61.3722 64.8417 61.5077C64.9786 61.6432 65.0872 61.8045 65.1612 61.9824C65.2351 62.1602 65.273 62.351 65.2726 62.5436C65.2726 63.3405 64.6163 64.0233 63.8023 64.0233C63.0117 64.0233 62.3554 63.3624 62.3554 62.5436C62.3554 61.7249 63.0335 61.0874 63.8015 61.0874ZM63.1695 61.5647V63.5663H63.5554V62.7725H63.8945C64.0304 62.7725 64.0749 62.8178 64.0976 62.9311C64.0976 62.9545 64.1648 63.4545 64.1648 63.5452H64.571C64.5257 63.4545 64.503 63.1811 64.4804 63.0217C64.4585 62.7717 64.4366 62.5897 64.1648 62.567C64.3007 62.521 64.5265 62.453 64.5265 62.0889C64.5265 61.5655 64.0734 61.5655 63.8484 61.5655L63.1695 61.5647ZM63.5093 61.8835H63.8249C63.939 61.8835 64.1187 61.8835 64.1187 62.1561C64.1187 62.2467 64.0749 62.4303 63.8249 62.4303H63.5085L63.5093 61.8835ZM52.2047 63.4538C49.6266 63.4538 48.0891 64.5459 48.0891 66.3889C48.0891 68.3686 49.6266 68.9123 52.0915 69.1631C55.0524 69.4592 55.2789 69.892 55.2789 70.4834C55.2789 71.5068 54.4633 71.9396 52.5641 71.9396C50.1672 71.9396 49.6477 71.3474 49.4665 70.142C49.4665 70.0053 49.3555 69.9154 49.2196 69.9154H48.0438C47.972 69.9162 47.9034 69.9453 47.8528 69.9963C47.8022 70.0473 47.7737 70.1162 47.7735 70.1881C47.7735 71.7349 48.5868 73.5552 52.5446 73.5552C55.3922 73.5552 57.043 72.4162 57.043 70.4146C57.043 68.4576 55.7305 67.935 52.9508 67.5709C50.1462 67.2068 49.8532 67.0022 49.8532 66.3428C49.8532 65.7967 50.1016 65.0694 52.1813 65.0694C54.0352 65.0694 54.7352 65.4795 55.007 66.7303C55.0207 66.7867 55.0524 66.8372 55.0974 66.8738C55.1424 66.9105 55.1982 66.9314 55.2563 66.9334H56.4539C56.5227 66.9334 56.5906 66.8889 56.6367 66.8436C56.6777 66.7827 56.7007 66.7115 56.7031 66.6381C56.5227 64.4545 55.0992 63.4538 52.2047 63.4538Z" fill="#E4E4E4"/>
<path d="M67.593 19.303C67.4968 19.3016 67.402 19.3256 67.318 19.3726C67.2307 19.4238 67.158 19.4965 67.1068 19.5837C67.0555 19.671 67.0273 19.7698 67.025 19.871V34.6591C67.025 34.7951 66.9547 34.9326 66.8196 35.0232C66.7571 35.0567 66.6873 35.0742 66.6164 35.0742C66.5456 35.0742 66.4758 35.0567 66.4133 35.0232L64.018 33.6365C63.8422 33.5361 63.6432 33.4832 63.4407 33.4832C63.2382 33.4832 63.0392 33.5361 62.8633 33.6365L53.2791 39.2107C53.1017 39.3107 52.9539 39.4557 52.8506 39.6312C52.7473 39.8066 52.6922 40.0063 52.6908 40.2099V51.3348C52.6908 51.7441 52.9174 52.1316 53.2791 52.3363L62.8649 57.9105C63.0407 58.0108 63.2395 58.0635 63.4419 58.0635C63.6442 58.0635 63.8431 58.0108 64.0188 57.9105L73.6039 52.3363C73.9656 52.1316 74.1921 51.7441 74.1921 51.3348V23.603C74.1921 23.171 73.9656 22.7827 73.6039 22.5788L67.8852 19.3726C67.7947 19.3272 67.6942 19.3034 67.593 19.303ZM11.0428 33.1826C10.8623 33.1826 10.6818 33.2482 10.524 33.3388L0.938173 38.8927C0.758015 38.9952 0.608501 39.144 0.505081 39.3236C0.401662 39.5033 0.348089 39.7073 0.349898 39.9146L0.373335 54.8378C0.373335 55.0433 0.485053 55.248 0.666301 55.3394C0.750325 55.3945 0.848623 55.4239 0.949111 55.4239C1.0496 55.4239 1.1479 55.3945 1.23192 55.3394L6.9303 52.0637C7.29202 51.859 7.51624 51.4715 7.51624 51.0621V44.0778C7.51624 43.6684 7.7428 43.2809 8.10529 43.0762L10.524 41.6661C10.7045 41.552 10.9092 41.5067 11.1123 41.5067C11.3154 41.5067 11.5193 41.552 11.6779 41.6661L14.0966 43.0762C14.4584 43.2809 14.6849 43.6684 14.6849 44.0778V51.0621C14.6849 51.4715 14.9099 51.859 15.2708 52.0637L20.9239 55.3394C21.0118 55.3955 21.1138 55.4252 21.2181 55.4252C21.3223 55.4252 21.4243 55.3955 21.5122 55.3394C21.6022 55.2905 21.6771 55.2179 21.7289 55.1295C21.7806 55.0411 21.8073 54.9403 21.8059 54.8378V39.9146C21.8059 39.5052 21.5794 39.1177 21.2169 38.9122L11.6545 33.3388C11.4934 33.2534 11.3172 33.2 11.1357 33.1818L11.0428 33.1826ZM89.6881 33.3467C89.4904 33.3467 89.2943 33.3982 89.1131 33.5013L79.5257 39.0724C79.164 39.2771 78.9398 39.6646 78.9398 40.0747V51.1996C78.9398 51.609 79.164 51.9965 79.5257 52.2012L89.0443 57.6597C89.2158 57.7602 89.4109 57.8132 89.6096 57.8132C89.8083 57.8132 90.0034 57.7602 90.1748 57.6597L95.9404 54.4308C96.0302 54.3818 96.105 54.3092 96.1566 54.2208C96.2082 54.1324 96.2348 54.0316 96.2333 53.9293C96.2345 53.8272 96.2078 53.7267 96.1562 53.6386C96.1046 53.5506 96.03 53.4782 95.9404 53.4293L86.31 47.8543C86.2224 47.8029 86.1495 47.7298 86.0982 47.6422C86.0469 47.5545 86.019 47.4551 86.017 47.3535V43.8723C86.0159 43.7703 86.0426 43.6698 86.0942 43.5817C86.1458 43.4936 86.2204 43.4212 86.31 43.3723L89.3178 41.6427C89.4056 41.5866 89.5077 41.5568 89.6119 41.5568C89.7161 41.5568 89.8182 41.5866 89.9061 41.6427L92.9107 43.3716C92.9987 43.4227 93.0721 43.4956 93.1239 43.5833C93.1756 43.671 93.2039 43.7705 93.206 43.8723V46.6028C93.206 46.8082 93.3185 47.0129 93.499 47.1035C93.5869 47.1598 93.6891 47.1896 93.7935 47.1896C93.8979 47.1896 94.0001 47.1598 94.0881 47.1035L99.7841 43.7598C99.9588 43.6579 100.103 43.5114 100.203 43.3352C100.302 43.1591 100.353 42.9597 100.35 42.7575V40.0505C100.35 39.6411 100.123 39.256 99.7841 39.0505L90.2654 33.5006C90.0898 33.4001 89.8912 33.3468 89.6889 33.3459L89.6881 33.3467ZM63.4407 41.6544C63.4915 41.6544 63.543 41.6661 63.5891 41.6895L66.8657 43.6005C66.9563 43.6458 67.0024 43.7583 67.0024 43.8497V47.6715C67.0024 47.7856 66.9563 47.8778 66.8657 47.9231L63.5883 49.834C63.5424 49.8565 63.4919 49.8682 63.4407 49.8682C63.3895 49.8682 63.339 49.8565 63.293 49.834L60.0157 47.9231C59.9251 47.8778 59.879 47.7629 59.879 47.6715V43.8497C59.879 43.7356 59.9259 43.6458 60.0157 43.5997L63.293 41.6895C63.3389 41.6657 63.3891 41.6537 63.4407 41.6544Z" fill="#E4E4E4"/>
<path d="M37.8355 33.5451C37.6601 33.4442 37.4613 33.3911 37.259 33.3911C37.0566 33.3911 36.8578 33.4442 36.6824 33.5451L27.1637 39.074C26.9893 39.1758 26.845 39.3221 26.7456 39.4979C26.6463 39.6737 26.5954 39.8728 26.5981 40.0747V51.1535C26.5981 51.5637 26.8247 51.9504 27.1637 52.1551L36.6824 57.6832C36.8578 57.7841 37.0566 57.8372 37.259 57.8372C37.4613 57.8372 37.6601 57.7841 37.8355 57.6832L47.3534 52.1551C47.7151 51.9504 47.919 51.5637 47.919 51.1535V40.0747C47.919 39.6654 47.6925 39.2779 47.3534 39.074L37.8355 33.5451Z" fill="#E4E4E4"/>
<path d="M47.3755 39.0738L37.8123 33.5449C37.7184 33.4974 37.62 33.4594 37.5185 33.4316L26.8015 51.8815C26.8921 51.9955 27.0046 52.0861 27.1179 52.1549L36.6818 57.683C36.9529 57.8423 37.2693 57.8876 37.5631 57.7962L47.6247 39.2785C47.5586 39.1918 47.4733 39.1218 47.3755 39.0738Z" fill="#E4E4E4"/>
<path d="M47.377 52.1513C47.6489 51.9919 47.852 51.7192 47.9427 51.4232L37.474 33.4054C37.2037 33.36 36.9092 33.3827 36.6607 33.5421L27.1647 39.0475L37.4068 57.8387C37.542 57.8161 37.7006 57.7708 37.8365 57.702L47.377 52.1513Z" fill="#E4E4E4"/>
</g>
<defs>
<clipPath id="clip0_2377_7897">
<rect width="100" height="100" fill="white" transform="translate(0.349854 0.034668)"/>
</clipPath>
</defs>
</svg>
