<svg width="101" height="101" viewBox="0 0 101 101" fill="none" xmlns="http://www.w3.org/2000/svg">
<g clip-path="url(#clip0_2377_7890)">
<path d="M89.6552 44.0308C89.6148 44.0307 89.5754 44.0427 89.5419 44.0651L87.7091 45.1354C87.6746 45.1568 87.6462 45.1867 87.6268 45.2224C87.6073 45.258 87.5975 45.298 87.5981 45.3386V47.4792C87.5981 47.5698 87.6411 47.6385 87.7091 47.6839L89.5419 48.7526C89.5754 48.7751 89.6148 48.7871 89.6552 48.7871C89.6955 48.7871 89.7349 48.7751 89.7684 48.7526L91.5981 47.6839C91.6329 47.662 91.6615 47.6317 91.6813 47.5957C91.7011 47.5598 91.7115 47.5194 91.7114 47.4784V45.3401C91.7118 45.2993 91.7016 45.2591 91.6817 45.2235C91.6618 45.1879 91.633 45.1581 91.5981 45.137L89.7677 44.0659C89.7344 44.0436 89.6952 44.0309 89.6552 44.0308ZM49.7391 56.8306C49.4055 56.8306 49.0735 56.9119 48.7907 57.0713L39.7681 62.3267C39.479 62.4965 39.2394 62.739 39.073 63.0301C38.9066 63.3212 38.8193 63.6507 38.8197 63.986V74.4727C38.8197 75.1555 39.1806 75.793 39.7681 76.1351L42.1431 77.4992C43.2962 78.0679 43.7033 78.0664 44.2228 78.0664C45.9181 78.0664 46.8907 77.0203 46.8907 75.2226V64.8751C46.8897 64.8031 46.8608 64.7343 46.8101 64.6831C46.7594 64.632 46.6909 64.6025 46.6188 64.6009H45.4673C45.395 64.6021 45.3261 64.6314 45.275 64.6826C45.224 64.7338 45.1949 64.8028 45.1939 64.8751V75.225C45.1939 76.0211 44.3587 76.8187 43.0251 76.1367L40.5603 74.7031C40.4697 74.6578 40.4236 74.5422 40.4236 74.4516V63.9626C40.4236 63.872 40.4697 63.7595 40.5603 63.7134L49.5798 58.4814C49.6477 58.4361 49.7618 58.4361 49.8524 58.4814L58.8742 63.7134C58.964 63.7595 59.0086 63.8493 59.0086 63.9634V74.4508C59.0086 74.5641 58.964 74.657 58.8742 74.7023L49.8524 79.9578C49.7844 80.0031 49.6704 80.0031 49.5798 79.9578L47.2743 78.5679C47.2063 78.5226 47.1157 78.5 47.0478 78.5453C46.4149 78.9093 46.304 78.957 45.6931 79.1617C45.5571 79.207 45.3314 79.2968 45.7829 79.5468L48.7907 81.3452C49.0844 81.5038 49.4001 81.5945 49.7391 81.5945C50.0782 81.5945 50.4165 81.5046 50.6876 81.3913L59.7101 76.1359C59.9997 75.9658 60.2396 75.7228 60.406 75.4311C60.5724 75.1395 60.6595 74.8093 60.6586 74.4734V63.986C60.6586 63.3032 60.2976 62.6681 59.7101 62.3267L50.6876 57.0713C50.397 56.9119 50.0706 56.8291 49.7391 56.8306ZM63.8249 61.6197C63.3619 61.6215 62.9186 61.8071 62.5923 62.1357C62.2661 62.4643 62.0837 62.909 62.0851 63.372C62.0839 63.8349 62.2664 64.2793 62.5926 64.6077C62.9188 64.9362 63.362 65.1217 63.8249 65.1235C64.7757 65.1235 65.5655 64.3274 65.5655 63.372C65.5631 62.9101 65.3793 62.4676 65.0537 62.14C64.7281 61.8123 64.2868 61.625 63.8249 61.6197ZM63.8015 61.9157C63.9941 61.9134 64.1852 61.9493 64.3638 62.0215C64.5424 62.0936 64.7049 62.2005 64.8417 62.336C64.9786 62.4715 65.0872 62.6329 65.1612 62.8108C65.2351 62.9886 65.273 63.1794 65.2726 63.372C65.2726 64.1688 64.6163 64.8517 63.8023 64.8517C63.0117 64.8517 62.3554 64.1907 62.3554 63.372C62.3554 62.5532 63.0335 61.9157 63.8015 61.9157ZM63.1695 62.3931V64.3946H63.5554V63.6009H63.8945C64.0304 63.6009 64.0749 63.6462 64.0976 63.7595C64.0976 63.7829 64.1648 64.2829 64.1648 64.3735H64.571C64.5257 64.2829 64.503 64.0095 64.4804 63.8501C64.4585 63.6001 64.4366 63.4181 64.1648 63.3954C64.3007 63.3493 64.5265 63.2814 64.5265 62.9173C64.5265 62.3939 64.0734 62.3939 63.8484 62.3939L63.1695 62.3931ZM63.5093 62.7118H63.8249C63.939 62.7118 64.1187 62.7118 64.1187 62.9845C64.1187 63.0751 64.0749 63.2587 63.8249 63.2587H63.5085L63.5093 62.7118ZM52.2047 64.2821C49.6266 64.2821 48.0891 65.3743 48.0891 67.2173C48.0891 69.1969 49.6266 69.7407 52.0915 69.9914C55.0524 70.2875 55.2789 70.7204 55.2789 71.3118C55.2789 72.3352 54.4633 72.768 52.5641 72.768C50.1672 72.768 49.6477 72.1758 49.4665 70.9703C49.4665 70.8336 49.3555 70.7438 49.2196 70.7438H48.0438C47.972 70.7446 47.9034 70.7737 47.8528 70.8247C47.8022 70.8757 47.7737 70.9446 47.7735 71.0164C47.7735 72.5633 48.5868 74.3836 52.5446 74.3836C55.3922 74.3836 57.043 73.2445 57.043 71.243C57.043 69.286 55.7305 68.7633 52.9508 68.3993C50.1462 68.0352 49.8532 67.8305 49.8532 67.1712C49.8532 66.6251 50.1016 65.8977 52.1813 65.8977C54.0352 65.8977 54.7352 66.3079 55.007 67.5587C55.0207 67.6151 55.0524 67.6655 55.0974 67.7022C55.1424 67.7389 55.1982 67.7598 55.2563 67.7618H56.4539C56.5227 67.7618 56.5906 67.7173 56.6367 67.6719C56.6777 67.611 56.7007 67.5398 56.7031 67.4665C56.5227 65.2829 55.0992 64.2821 52.2047 64.2821Z" fill="#191919"/>
<path d="M67.593 20.1314C67.4968 20.13 67.402 20.154 67.318 20.2009C67.2307 20.2522 67.158 20.3249 67.1068 20.4121C67.0555 20.4993 67.0273 20.5982 67.025 20.6994V35.4875C67.025 35.6234 66.9547 35.7609 66.8196 35.8516C66.7571 35.8851 66.6873 35.9026 66.6164 35.9026C66.5456 35.9026 66.4758 35.8851 66.4133 35.8516L64.018 34.4649C63.8422 34.3644 63.6432 34.3116 63.4407 34.3116C63.2382 34.3116 63.0392 34.3644 62.8633 34.4649L53.2791 40.039C53.1017 40.139 52.9539 40.2841 52.8506 40.4596C52.7473 40.635 52.6922 40.8346 52.6908 41.0382V52.1631C52.6908 52.5725 52.9174 52.96 53.2791 53.1647L62.8649 58.7388C63.0407 58.8391 63.2395 58.8919 63.4419 58.8919C63.6442 58.8919 63.8431 58.8391 64.0188 58.7388L73.6039 53.1647C73.9656 52.96 74.1921 52.5725 74.1921 52.1631V24.4314C74.1921 23.9993 73.9656 23.6111 73.6039 23.4072L67.8852 20.2009C67.7947 20.1556 67.6942 20.1318 67.593 20.1314ZM11.0428 34.011C10.8623 34.011 10.6818 34.0766 10.524 34.1672L0.938173 39.7211C0.758015 39.8236 0.608501 39.9724 0.505081 40.152C0.401662 40.3316 0.348089 40.5356 0.349898 40.7429L0.373335 55.6662C0.373335 55.8717 0.485053 56.0764 0.666301 56.1678C0.750325 56.2229 0.848623 56.2523 0.949111 56.2523C1.0496 56.2523 1.1479 56.2229 1.23192 56.1678L6.9303 52.892C7.29202 52.6873 7.51624 52.2998 7.51624 51.8905V44.9062C7.51624 44.4968 7.7428 44.1093 8.10529 43.9046L10.524 42.4945C10.7045 42.3804 10.9092 42.3351 11.1123 42.3351C11.3154 42.3351 11.5193 42.3804 11.6779 42.4945L14.0966 43.9046C14.4584 44.1093 14.6849 44.4968 14.6849 44.9062V51.8905C14.6849 52.2998 14.9099 52.6873 15.2708 52.892L20.9239 56.1678C21.0118 56.2238 21.1138 56.2536 21.2181 56.2536C21.3223 56.2536 21.4243 56.2238 21.5122 56.1678C21.6022 56.1188 21.6771 56.0463 21.7289 55.9579C21.7806 55.8695 21.8073 55.7686 21.8059 55.6662V40.7429C21.8059 40.3336 21.5794 39.9461 21.2169 39.7406L11.6545 34.1672C11.4934 34.0817 11.3172 34.0284 11.1357 34.0102L11.0428 34.011ZM89.6881 34.175C89.4904 34.175 89.2943 34.2266 89.1131 34.3297L79.5257 39.9007C79.164 40.1054 78.9398 40.4929 78.9398 40.9031V52.028C78.9398 52.4373 79.164 52.8248 79.5257 53.0295L89.0443 58.4881C89.2158 58.5886 89.4109 58.6416 89.6096 58.6416C89.8083 58.6416 90.0034 58.5886 90.1748 58.4881L95.9404 55.2592C96.0302 55.2102 96.105 55.1375 96.1566 55.0492C96.2082 54.9608 96.2348 54.86 96.2333 54.7576C96.2345 54.6556 96.2078 54.5551 96.1562 54.467C96.1046 54.3789 96.03 54.3065 95.9404 54.2576L86.31 48.6827C86.2224 48.6313 86.1495 48.5582 86.0982 48.4705C86.0469 48.3828 86.019 48.2835 86.017 48.1819V44.7007C86.0159 44.5986 86.0426 44.4982 86.0942 44.4101C86.1458 44.322 86.2204 44.2496 86.31 44.2007L89.3178 42.471C89.4056 42.415 89.5077 42.3852 89.6119 42.3852C89.7161 42.3852 89.8182 42.415 89.9061 42.471L92.9107 44.1999C92.9987 44.2511 93.0721 44.324 93.1239 44.4117C93.1756 44.4994 93.2039 44.5989 93.206 44.7007V47.4311C93.206 47.6366 93.3185 47.8413 93.499 47.9319C93.5869 47.9881 93.6891 48.018 93.7935 48.018C93.8979 48.018 94.0001 47.9881 94.0881 47.9319L99.7841 44.5882C99.9588 44.4863 100.103 44.3397 100.203 44.1636C100.302 43.9875 100.353 43.7881 100.35 43.5859V40.8789C100.35 40.4695 100.123 40.0843 99.7841 39.8789L90.2654 34.3289C90.0898 34.2285 89.8912 34.1752 89.6889 34.1742L89.6881 34.175ZM63.4407 42.4828C63.4915 42.4828 63.543 42.4945 63.5891 42.5179L66.8657 44.4288C66.9563 44.4741 67.0024 44.5866 67.0024 44.678V48.4999C67.0024 48.6139 66.9563 48.7061 66.8657 48.7514L63.5883 50.6624C63.5424 50.6849 63.4919 50.6965 63.4407 50.6965C63.3895 50.6965 63.339 50.6849 63.293 50.6624L60.0157 48.7514C59.9251 48.7061 59.879 48.5913 59.879 48.4999V44.678C59.879 44.564 59.9259 44.4741 60.0157 44.428L63.293 42.5179C63.3389 42.4941 63.3891 42.482 63.4407 42.4828Z" fill="#191919"/>
<path d="M37.8355 34.3735C37.6601 34.2726 37.4613 34.2195 37.259 34.2195C37.0566 34.2195 36.8578 34.2726 36.6824 34.3735L27.1637 39.9023C26.9893 40.0041 26.845 40.1504 26.7456 40.3263C26.6463 40.5021 26.5954 40.7012 26.5981 40.9031V51.9819C26.5981 52.3921 26.8247 52.7788 27.1637 52.9835L36.6824 58.5115C36.8578 58.6124 37.0566 58.6655 37.259 58.6655C37.4613 58.6655 37.6601 58.6124 37.8355 58.5115L47.3534 52.9835C47.7151 52.7788 47.919 52.3921 47.919 51.9819V40.9031C47.919 40.4937 47.6925 40.1062 47.3534 39.9023L37.8355 34.3735Z" fill="#191919"/>
<path d="M47.3755 39.9021L37.8123 34.3733C37.7184 34.3257 37.62 34.2878 37.5185 34.26L26.8015 52.7098C26.8921 52.8239 27.0046 52.9145 27.1179 52.9833L36.6818 58.5113C36.9529 58.6707 37.2693 58.716 37.5631 58.6246L47.6247 40.1068C47.5586 40.0202 47.4733 39.9501 47.3755 39.9021Z" fill="#191919"/>
<path d="M47.377 52.9796C47.6489 52.8203 47.852 52.5476 47.9427 52.2515L37.474 34.2337C37.2037 34.1884 36.9092 34.2111 36.6607 34.3705L27.1647 39.8759L37.4068 58.6671C37.542 58.6444 37.7006 58.5991 37.8365 58.5304L47.377 52.9796Z" fill="#191919"/>
</g>
<defs>
<clipPath id="clip0_2377_7890">
<rect width="100" height="100" fill="white" transform="translate(0.349854 0.863037)"/>
</clipPath>
</defs>
</svg>
