<svg width="101" height="101" viewBox="0 0 101 101" fill="none" xmlns="http://www.w3.org/2000/svg">
<path fill-rule="evenodd" clip-rule="evenodd" d="M43.4262 27.5388C45.5637 27.5388 47.7013 27.5718 49.8359 27.516C50.4022 27.5012 51.418 27.9696 51.3725 26.7927C51.3378 25.8349 50.4494 26.1815 49.9111 26.1729C47.4998 26.1348 45.0806 26.0432 42.679 26.194C40.97 26.3004 40.4663 25.6516 40.6809 24.0843C40.7548 23.5437 40.6837 22.9837 40.6951 22.4328C40.7702 18.7644 41.6569 17.5158 45.2149 16.611C49.1348 15.615 53.1464 15.648 57.0555 16.5062C60.5697 17.2779 62.0294 20.0119 61.8519 22.541C61.6356 25.6272 61.8029 28.7401 61.8001 31.8417C61.795 35.7418 59.7798 37.8116 55.8479 37.8656C52.6097 37.91 49.3676 37.9453 46.1311 37.8554C42.2738 37.7473 39.4442 40.9513 39.4249 44.5821C39.4249 44.8576 39.4721 45.1421 39.4175 45.4079C39.1397 46.7413 40.2495 48.8965 38.8358 49.2926C36.6847 49.8969 34.1658 49.8969 32.2685 47.9774C31.6254 47.3286 31.0836 46.6019 30.7979 45.7619C29.2733 41.2859 29.0326 36.753 30.4678 32.2071C31.3624 29.3696 33.7959 27.6048 36.8104 27.5541C39.0151 27.5171 41.2204 27.5467 43.4251 27.5467L43.4262 27.5388ZM47.3541 21.2104C47.2619 20.1274 46.6797 19.3369 45.4784 19.3039C44.1643 19.2698 43.4854 20.0642 43.4837 21.3572C43.4825 22.5558 44.1353 23.3235 45.3281 23.3582C46.6388 23.3963 47.2733 22.5842 47.3541 21.2104Z" fill="#191919"/>
<path fill-rule="evenodd" clip-rule="evenodd" d="M59.9241 49.4794C57.5111 49.4794 55.097 49.4583 52.684 49.4965C52.1405 49.5033 51.2288 49.1596 51.2004 50.0889C51.1685 51.1429 52.1468 50.8686 52.7682 50.8748C55.1812 50.905 57.5965 50.9306 60.0089 50.8634C61.2484 50.8293 61.7543 51.0666 61.847 52.5281C62.2665 59.1438 59.3954 59.7158 54.0999 60.9194C51.0621 61.6097 47.8051 61.2438 44.8094 59.9019C42.3321 58.7938 40.812 57.1969 41.0038 54.2069C41.1939 51.2556 41.2258 48.2661 40.9987 45.3176C40.7255 41.759 42.9393 39.1417 47.2446 39.1406C50.1413 39.14 53.0573 38.9192 55.929 39.1833C60.035 39.56 63.2544 36.0009 63.3956 31.8624C63.4013 31.7252 63.366 31.5778 63.4013 31.4504C63.7632 30.1784 62.4759 28.2879 64.198 27.6454C66.8005 26.6751 69.7353 27.6949 71.0647 29.6697C72.7407 32.1561 72.9672 35.0818 73.2381 37.9387C73.5312 41.018 72.6673 43.917 71.3738 46.6948C70.4951 48.5785 69.0177 49.4891 66.9593 49.4919C64.6146 49.4936 62.2705 49.4919 59.9252 49.4919L59.9241 49.4794ZM59.2958 55.6257C59.038 54.4499 58.5076 53.6475 57.1417 53.6139C55.7213 53.5798 55.3548 54.6423 55.3622 55.5909C55.3701 56.5994 55.6513 57.84 57.189 57.7239C58.4672 57.626 59.0903 56.8344 59.2958 55.6257Z" fill="#191919"/>
<path fill-rule="evenodd" clip-rule="evenodd" d="M21.9684 79.8011C21.9684 81.2705 22.035 82.6466 21.9371 84.0107C21.895 84.5992 22.5438 85.7066 21.3094 85.7055C20.2213 85.7055 19.9418 84.8393 19.9766 83.7928C20.0431 81.7952 19.9959 79.7937 19.9959 77.7945V73.2428C19.9959 70.4998 20.7317 69.571 23.3553 69.003C25.7944 68.4726 27.7112 69.2938 28.6968 71.4291C29.6825 73.5649 29.7588 75.7656 28.7725 77.9384C27.8005 80.0794 26.0101 80.8784 23.7167 80.2439C23.1942 80.1016 22.6667 79.9781 21.9684 79.8011ZM21.9684 74.4243C21.9684 75.1812 22.0708 75.9529 21.9473 76.6893C21.6617 78.3914 22.7486 78.8109 24.0302 79.1136C25.2976 79.413 26.1666 78.874 26.6748 77.7575C27.5291 75.8851 27.6725 73.9542 27.0237 71.9743C26.4478 70.2146 25.1178 70.0086 23.5653 70.2272C22.0321 70.4451 21.8244 71.4877 21.9582 72.7767C22.0151 73.3202 21.9684 73.8751 21.9684 74.4243ZM38.4649 79.71C37.4149 79.9832 36.5032 80.2746 35.5698 80.4499C33.5268 80.8317 32.0141 79.71 31.482 77.6647C30.8219 75.1334 31.3807 72.6117 31.3978 70.086C31.4052 68.9347 32.4705 69.3838 33.2075 68.7668C33.2075 71.4701 33.2178 73.8034 33.2041 76.135C33.1967 77.3062 33.4995 78.2691 34.6069 78.8866C35.8294 79.5683 36.8321 78.919 37.8963 78.4814C38.6589 78.1678 38.5639 77.5275 38.565 76.9186C38.5707 74.7151 38.5644 72.5138 38.5718 70.3102C38.573 69.7668 38.5166 69.1026 39.3191 69.1294C40.0344 69.1527 40.3457 69.5778 40.3338 70.3575C40.282 74.0037 40.385 77.655 40.237 81.2961C40.1249 84.0494 38.1826 85.7311 35.3883 85.8546C34.97 85.8722 34.5318 85.9109 34.3753 85.3919C34.1369 84.5929 34.7839 84.7437 35.209 84.6077C38.2827 83.63 38.6845 83.0461 38.4649 79.71ZM51.454 70.2488C52.2672 69.8646 52.7344 69.5129 53.2483 69.4179C56.1319 68.8847 58.3417 69.0878 58.3361 72.9719C58.3321 74.9723 58.3372 76.9732 58.3321 78.9731C58.3309 79.5331 58.3668 80.0782 57.5319 80.1266C56.6515 80.179 56.458 79.6753 56.462 78.985C56.4723 77.0575 56.5246 75.1299 56.5229 73.203C56.5218 71.7062 56.2162 70.3814 54.3125 70.3859C52.6428 70.3888 51.4602 71.6351 51.4517 73.3549C51.4421 75.2166 51.4427 77.0784 51.4534 78.9401C51.4551 79.6013 51.4693 80.1813 50.5132 80.1266C49.6522 80.0754 49.758 79.4949 49.758 78.9605C49.7523 74.0663 49.7762 69.1669 49.7347 64.2693C49.7273 63.4111 50.0659 62.8784 50.8274 62.842C51.9018 62.7925 51.4096 63.732 51.4255 64.2033C51.4955 66.1217 51.454 68.0447 51.454 70.2488ZM60.5538 74.6371C60.4451 70.8156 62.2577 68.7754 65.5391 68.8938C67.1861 68.9541 68.4216 69.6848 69.2189 71.1076C70.6274 73.6241 70.4368 76.1418 68.9127 78.4984C67.8656 80.1169 66.2551 80.8801 64.2917 80.4635C62.3556 80.0538 60.8395 78.3106 60.5652 76.2789C60.4924 75.7412 60.5538 75.184 60.5538 74.6371ZM68.1342 74.7264C68.0477 74.0595 68.0631 73.1296 67.7854 72.2998C67.4058 71.1616 66.7138 70.2454 65.3018 70.1828C63.8774 70.1213 63.1666 70.9539 62.6914 72.1063C61.9453 73.9155 61.9936 75.732 62.8018 77.5088C63.3208 78.6532 64.1221 79.4909 65.5107 79.2587C66.8782 79.0305 67.6852 78.1342 67.9646 76.8042C68.0915 76.2016 68.071 75.5699 68.1342 74.7264ZM72.1219 75.2358C72.1219 74.546 72.1088 73.8574 72.1242 73.1711C72.156 71.8479 71.7343 70.382 73.5185 69.7059C75.5615 68.9342 77.5864 68.356 79.6431 69.5505C80.4125 69.9978 80.6959 70.8105 80.7039 71.6732C80.7249 74.0811 80.6931 76.4901 80.7255 78.8979C80.7369 79.7379 80.5161 80.1579 79.572 80.1352C78.5373 80.1107 78.7553 79.405 78.7621 78.8416C78.7866 76.918 78.9203 74.9962 78.8839 73.0755C78.8361 70.6568 77.509 69.6706 75.2479 70.2642C74.3101 70.5111 73.7239 70.9664 73.77 72.1274C73.8616 74.3935 73.7911 76.6676 73.7996 78.9378C73.8019 79.5957 73.8115 80.1784 72.8623 80.1232C71.9927 80.0731 72.135 79.4716 72.1282 78.9497C72.1122 77.7114 72.1236 76.4724 72.1219 75.2358ZM47.3274 69.8726C47.1851 70.0411 47.0656 70.3051 46.9404 70.3074C44.6845 70.3387 45.3105 72.0227 45.2525 73.2718C45.1973 74.4356 45.2525 75.6051 45.236 76.7724C45.2189 77.9322 45.3196 79.01 46.731 79.3179C47.1356 79.4056 47.32 79.6389 47.2358 80.043C47.143 80.4891 46.7873 80.4715 46.4351 80.4669C44.8131 80.4385 43.6106 79.2918 43.5628 77.6129C43.5139 75.8977 43.5805 74.1784 43.5401 72.4649C43.519 71.651 43.9419 70.6124 42.6295 70.2898C42.4855 70.255 42.4343 69.847 42.3404 69.6142C44.091 69.0651 43.3648 67.5552 43.6049 66.4096C43.7188 65.8673 44.2338 65.7188 44.7204 65.6727C45.2127 65.626 45.2166 66.0244 45.2326 66.3573C45.2974 67.6776 44.614 69.4446 47.0446 69.3485C47.126 69.3456 47.221 69.6689 47.3274 69.8726Z" fill="#191919"/>
</svg>
