<svg width="101" height="101" viewBox="0 0 101 101" fill="none" xmlns="http://www.w3.org/2000/svg">
<path fill-rule="evenodd" clip-rule="evenodd" d="M43.4262 26.7104C45.5637 26.7104 47.7013 26.7434 49.8359 26.6876C50.4022 26.6728 51.418 27.1412 51.3725 25.9643C51.3378 25.0065 50.4494 25.3531 49.9111 25.3446C47.4998 25.3064 45.0806 25.2148 42.679 25.3656C40.97 25.472 40.4663 24.8233 40.6809 23.256C40.7548 22.7153 40.6837 22.1553 40.6951 21.6045C40.7702 17.936 41.6569 16.6874 45.2149 15.7826C49.1348 14.7867 53.1464 14.8197 57.0555 15.6779C60.5697 16.4496 62.0294 19.1835 61.8519 21.7126C61.6356 24.7988 61.8029 27.9118 61.8001 31.0134C61.795 34.9134 59.7798 36.9832 55.8479 37.0373C52.6097 37.0816 49.3676 37.1169 46.1311 37.027C42.2738 36.9189 39.4442 40.1229 39.4249 43.7538C39.4249 44.0292 39.4721 44.3138 39.4175 44.5795C39.1397 45.9129 40.2495 48.0681 38.8358 48.4642C36.6847 49.0686 34.1658 49.0686 32.2685 47.149C31.6254 46.5002 31.0836 45.7735 30.7979 44.9335C29.2733 40.4575 29.0326 35.9247 30.4678 31.3787C31.3624 28.5412 33.7959 26.7764 36.8104 26.7258C39.0151 26.6888 41.2204 26.7184 43.4251 26.7184L43.4262 26.7104ZM47.3541 20.382C47.2619 19.299 46.6797 18.5086 45.4784 18.4756C44.1643 18.4414 43.4854 19.2359 43.4837 20.5289C43.4825 21.7274 44.1353 22.4951 45.3281 22.5298C46.6388 22.5679 47.2733 21.7558 47.3541 20.382Z" fill="#E4E4E4"/>
<path fill-rule="evenodd" clip-rule="evenodd" d="M59.9241 48.651C57.5111 48.651 55.097 48.63 52.684 48.6681C52.1405 48.6749 51.2288 48.3312 51.2004 49.2605C51.1685 50.3145 52.1468 50.0402 52.7682 50.0465C55.1812 50.0766 57.5965 50.1022 60.0089 50.0351C61.2484 50.0009 61.7543 50.2382 61.847 51.6997C62.2665 58.3155 59.3954 58.8874 54.0999 60.091C51.0621 60.7814 47.8051 60.4154 44.8094 59.0735C42.3321 57.9655 40.812 56.3686 41.0038 53.3785C41.1939 50.4272 41.2258 47.4377 40.9987 44.4892C40.7255 40.9306 42.9393 38.3134 47.2446 38.3122C50.1413 38.3117 53.0573 38.0908 55.929 38.3549C60.035 38.7316 63.2544 35.1725 63.3956 31.034C63.4013 30.8969 63.366 30.7495 63.4013 30.622C63.7632 29.3501 62.4759 27.4595 64.198 26.817C66.8005 25.8467 69.7353 26.8665 71.0647 28.8413C72.7407 31.3277 72.9672 34.2534 73.2381 37.1103C73.5312 40.1897 72.6673 43.0887 71.3738 45.8664C70.4951 47.7501 69.0177 48.6607 66.9593 48.6636C64.6146 48.6653 62.2705 48.6636 59.9252 48.6636L59.9241 48.651ZM59.2958 54.7973C59.038 53.6215 58.5076 52.8191 57.1417 52.7855C55.7213 52.7514 55.3548 53.8139 55.3622 54.7626C55.3701 55.771 55.6513 57.0117 57.189 56.8956C58.4672 56.7977 59.0903 56.0061 59.2958 54.7973Z" fill="#E4E4E4"/>
<path fill-rule="evenodd" clip-rule="evenodd" d="M21.9684 78.9727C21.9684 80.4421 22.035 81.8182 21.9371 83.1824C21.895 83.7708 22.5438 84.8783 21.3094 84.8771C20.2213 84.8771 19.9418 84.011 19.9766 82.9644C20.0431 80.9668 19.9959 78.9653 19.9959 76.9661V72.4144C19.9959 69.6714 20.7317 68.7426 23.3553 68.1747C25.7944 67.6443 27.7112 68.4655 28.6968 70.6007C29.6825 72.7365 29.7588 74.9373 28.7725 77.1101C27.8005 79.251 26.0101 80.05 23.7167 79.4155C23.1942 79.2732 22.6667 79.1497 21.9684 78.9727ZM21.9684 73.5959C21.9684 74.3528 22.0708 75.1245 21.9473 75.8609C21.6617 77.5631 22.7486 77.9825 24.0302 78.2853C25.2976 78.5846 26.1666 78.0457 26.6748 76.9291C27.5291 75.0568 27.6725 73.1258 27.0237 71.1459C26.4478 69.3863 25.1178 69.1803 23.5653 69.3988C22.0321 69.6168 21.8244 70.6593 21.9582 71.9483C22.0151 72.4918 21.9684 73.0467 21.9684 73.5959ZM38.4649 78.8817C37.4149 79.1548 36.5032 79.4462 35.5698 79.6215C33.5268 80.0034 32.0141 78.8817 31.482 76.8363C30.8219 74.305 31.3807 71.7833 31.3978 69.2577C31.4052 68.1064 32.4705 68.5554 33.2075 67.9385C33.2075 70.6417 33.2178 72.975 33.2041 75.3066C33.1967 76.4778 33.4995 77.4407 34.6069 78.0582C35.8294 78.74 36.8321 78.0906 37.8963 77.653C38.6589 77.3394 38.5639 76.6992 38.565 76.0902C38.5707 73.8867 38.5644 71.6854 38.5718 69.4819C38.573 68.9384 38.5166 68.2742 39.3191 68.301C40.0344 68.3243 40.3457 68.7494 40.3338 69.5291C40.282 73.1753 40.385 76.8267 40.237 80.4677C40.1249 83.221 38.1826 84.9027 35.3883 85.0262C34.97 85.0439 34.5318 85.0826 34.3753 84.5635C34.1369 83.7645 34.7839 83.9153 35.209 83.7793C38.2827 82.8016 38.6845 82.2177 38.4649 78.8817ZM51.454 69.4204C52.2672 69.0363 52.7344 68.6846 53.2483 68.5895C56.1319 68.0563 58.3417 68.2595 58.3361 72.1435C58.3321 74.1439 58.3372 76.1449 58.3321 78.1447C58.3309 78.7047 58.3668 79.2499 57.5319 79.2983C56.6515 79.3506 56.458 78.847 56.462 78.1566C56.4723 76.2291 56.5246 74.3016 56.5229 72.3746C56.5218 70.8779 56.2162 69.553 54.3125 69.5576C52.6428 69.5604 51.4602 70.8067 51.4517 72.5266C51.4421 74.3883 51.4427 76.25 51.4534 78.1117C51.4551 78.773 51.4693 79.3529 50.5132 79.2983C49.6522 79.247 49.758 78.6666 49.758 78.1322C49.7523 73.2379 49.7762 68.3386 49.7347 63.4409C49.7273 62.5827 50.0659 62.05 50.8274 62.0136C51.9018 61.9641 51.4096 62.9037 51.4255 63.3749C51.4955 65.2933 51.454 67.2163 51.454 69.4204ZM60.5538 73.8087C60.4451 69.9872 62.2577 67.947 65.5391 68.0654C67.1861 68.1257 68.4216 68.8564 69.2189 70.2792C70.6274 72.7957 70.4368 75.3134 68.9127 77.6701C67.8656 79.2886 66.2551 80.0517 64.2917 79.6352C62.3556 79.2254 60.8395 77.4823 60.5652 75.4506C60.4924 74.9128 60.5538 74.3556 60.5538 73.8087ZM68.1342 73.8981C68.0477 73.2311 68.0631 72.3012 67.7854 71.4714C67.4058 70.3332 66.7138 69.417 65.3018 69.3544C63.8774 69.2929 63.1666 70.1255 62.6914 71.278C61.9453 73.0871 61.9936 74.9037 62.8018 76.6804C63.3208 77.8249 64.1221 78.6626 65.5107 78.4304C66.8782 78.2022 67.6852 77.3058 67.9646 75.9759C68.0915 75.3732 68.071 74.7415 68.1342 73.8981ZM72.1219 74.4074C72.1219 73.7177 72.1088 73.0291 72.1242 72.3427C72.156 71.0196 71.7343 69.5536 73.5185 68.8775C75.5615 68.1058 77.5864 67.5276 79.6431 68.7221C80.4125 69.1694 80.6959 69.9821 80.7039 70.8449C80.7249 73.2527 80.6931 75.6617 80.7255 78.0696C80.7369 78.9096 80.5161 79.3296 79.572 79.3068C78.5373 79.2823 78.7553 78.5766 78.7621 78.0132C78.7866 76.0897 78.9203 74.1678 78.8839 72.2471C78.8361 69.8285 77.509 68.8422 75.2479 69.4358C74.3101 69.6828 73.7239 70.138 73.77 71.299C73.8616 73.5652 73.7911 75.8393 73.7996 78.1094C73.8019 78.7673 73.8115 79.35 72.8623 79.2948C71.9927 79.2448 72.135 78.6432 72.1282 78.1214C72.1122 76.883 72.1236 75.6441 72.1219 74.4074ZM47.3274 69.0442C47.1851 69.2127 47.0656 69.4768 46.9404 69.479C44.6845 69.5103 45.3105 71.1943 45.2525 72.4435C45.1973 73.6073 45.2525 74.7768 45.236 75.944C45.2189 77.1038 45.3196 78.1817 46.731 78.4896C47.1356 78.5772 47.32 78.8105 47.2358 79.2146C47.143 79.6608 46.7873 79.6431 46.4351 79.6386C44.8131 79.6101 43.6106 78.4634 43.5628 76.7845C43.5139 75.0693 43.5805 73.35 43.5401 71.6365C43.519 70.8227 43.9419 69.7841 42.6295 69.4614C42.4855 69.4267 42.4343 69.0186 42.3404 68.7859C44.091 68.2367 43.3648 66.7269 43.6049 65.5813C43.7188 65.0389 44.2338 64.8904 44.7204 64.8443C45.2127 64.7976 45.2166 65.196 45.2326 65.5289C45.2974 66.8492 44.614 68.6163 47.0446 68.5201C47.126 68.5173 47.221 68.8405 47.3274 69.0442Z" fill="#E4E4E4"/>
</svg>
