<svg width="101" height="101" viewBox="0 0 101 101" fill="none" xmlns="http://www.w3.org/2000/svg">
<path d="M50.3499 46.9255C53.0977 46.9255 55.3253 44.6485 55.3253 41.8396C55.3253 39.0307 53.0977 36.7537 50.3499 36.7537C47.6021 36.7537 45.3745 39.0307 45.3745 41.8396C45.3745 44.6485 47.6021 46.9255 50.3499 46.9255Z" fill="#191919"/>
<path d="M50.3498 60.5427C54.2552 64.4255 58.1071 66.7224 61.2101 66.7224C62.2265 66.7224 63.1895 66.5037 63.992 66.0115C66.7739 64.3708 67.7904 60.2693 66.8274 54.4177C66.6669 53.3787 66.4529 52.3396 66.1854 51.2458C67.2554 50.9177 68.2184 50.5896 69.1813 50.2615C74.5847 48.1287 77.5806 45.1755 77.5806 41.949C77.5806 38.6677 74.5847 35.7146 69.1813 33.6365C68.2184 33.2537 67.2554 32.9255 66.1854 32.6521C66.4529 31.5583 66.6669 30.5193 66.8274 29.4802C67.7369 23.5193 66.7204 19.363 63.9385 17.7224C63.136 17.2302 62.173 17.0115 61.1565 17.0115C58.1071 17.0115 54.2017 19.3083 50.2963 23.1912C46.4444 19.3083 42.5925 17.0115 39.4896 17.0115C38.4731 17.0115 37.5102 17.2302 36.7077 17.7224C33.9257 19.363 32.9093 23.4646 33.8722 29.3162C34.0327 30.3552 34.2467 31.3943 34.5142 32.488C33.4443 32.8162 32.4813 33.1443 31.5183 33.4724C26.1149 35.6052 23.119 38.5583 23.119 41.7849C23.119 45.0662 26.1149 48.0193 31.5183 50.0974C32.4813 50.4802 33.4443 50.8083 34.5142 51.0818C34.2467 52.1755 34.0327 53.2146 33.8722 54.2537C32.9628 60.1052 33.9792 64.2615 36.7077 65.8474C37.5102 66.3396 38.4731 66.5583 39.4896 66.5583C42.5925 66.6677 46.4444 64.3708 50.3498 60.5427ZM47.3539 53.1599C48.3169 53.2146 49.3334 53.2146 50.3498 53.2146C51.3663 53.2146 52.3828 53.2146 53.3457 53.1599C52.3828 54.4724 51.3663 55.6755 50.3498 56.824C49.3334 55.6755 48.3169 54.4724 47.3539 53.1599ZM40.7201 47.5271C41.2551 48.4568 41.7365 49.3318 42.325 50.2068C40.6666 49.988 39.1151 49.7146 37.6172 49.3865C38.0986 47.9099 38.6336 46.3787 39.2756 44.8474C39.7036 45.7224 40.1851 46.6521 40.7201 47.5271ZM37.6172 34.3474C39.1151 34.0193 40.6666 33.7458 42.325 33.5271C41.79 34.4021 41.2551 35.2771 40.7201 36.2068C40.1851 37.1365 39.7036 38.0115 39.2756 38.9412C38.5801 37.3552 38.0451 35.824 37.6172 34.3474ZM40.5596 41.8396C41.2551 40.363 42.004 38.8865 42.86 37.4099C43.6625 35.988 44.572 34.5662 45.4815 33.1443C47.0864 33.0349 48.6914 32.9802 50.3498 32.9802C52.0618 32.9802 53.6667 33.0349 55.2182 33.1443C56.1812 34.5662 57.0372 35.988 57.8396 37.4099C58.6956 38.8865 59.4446 40.363 60.1401 41.8396C59.4446 43.3162 58.6956 44.7927 57.8396 46.2693C57.0372 47.6912 56.1277 49.113 55.2182 50.5349C53.6132 50.6443 52.0083 50.699 50.3498 50.699C48.6379 50.699 47.0329 50.6443 45.4815 50.5349C44.5185 49.113 43.6625 47.6912 42.86 46.2693C42.004 44.7927 41.2551 43.3162 40.5596 41.8396ZM61.4775 38.8865L60.0331 36.1521C59.4981 35.2224 59.0166 34.3474 58.4281 33.4724C60.0866 33.6912 61.638 33.9646 63.136 34.2927C62.6545 35.824 62.1195 37.3552 61.4775 38.8865ZM61.4775 44.7927C62.1195 46.324 62.6545 47.8552 63.136 49.3318C61.638 49.6599 60.0866 49.9333 58.4281 50.1521C58.9631 49.2771 59.4981 48.4021 60.0331 47.4724C60.5146 46.6521 60.9961 45.7224 61.4775 44.7927ZM62.708 63.7693C62.28 64.0427 61.745 64.1521 61.1565 64.1521C58.5351 64.1521 55.2717 61.9646 52.0618 58.6833C53.6132 56.988 55.1112 55.074 56.6092 52.9412C59.1236 52.7224 61.531 52.3396 63.778 51.7927C64.0455 52.7771 64.206 53.7615 64.3665 54.7458C65.1154 59.3943 64.527 62.7302 62.708 63.7693ZM65.4899 34.949C71.4818 36.699 75.0662 39.3787 75.0662 41.8396C75.0662 43.9724 72.6053 46.1052 68.2719 47.8005C67.4159 48.1287 66.4529 48.4568 65.4899 48.7302C64.7945 46.488 63.9385 44.1912 62.8685 41.8396C63.9385 39.488 64.848 37.1912 65.4899 34.949ZM61.2101 19.5271C61.7985 19.5271 62.28 19.6365 62.7615 19.9099C64.527 20.949 65.169 24.2302 64.42 28.9333C64.2595 29.863 64.0455 30.8474 63.8315 31.8865C61.5845 31.3943 59.1771 31.0115 56.6627 30.738C55.2182 28.6052 53.6667 26.6912 52.1153 24.9958C55.3252 21.7693 58.5886 19.5271 61.2101 19.5271ZM53.3457 30.5193C52.3828 30.4646 51.3663 30.4646 50.3498 30.4646C49.3334 30.4646 48.3169 30.4646 47.3539 30.5193C48.3169 29.2068 49.3334 28.0037 50.3498 26.8552C51.3663 28.0037 52.3828 29.2615 53.3457 30.5193ZM37.9916 19.9099C38.4196 19.6365 38.9546 19.5271 39.5431 19.5271C42.1645 19.5271 45.4279 21.7146 48.6379 24.9958C47.0864 26.6912 45.5884 28.6052 44.0905 30.738C41.576 30.9568 39.1686 31.3396 36.9217 31.8865C36.6542 30.9021 36.4937 29.9177 36.3332 28.9333C35.5842 24.2849 36.1727 21.0037 37.9916 19.9099ZM35.2097 48.7302C29.2179 46.9802 25.6335 44.3005 25.6335 41.8396C25.6335 39.7068 28.0944 37.574 32.4278 35.8787C33.2838 35.5505 34.2467 35.2224 35.2097 34.949C35.9052 37.1912 36.7612 39.488 37.8311 41.8396C36.7612 44.1912 35.8517 46.5427 35.2097 48.7302ZM36.3332 54.7458C36.4937 53.8162 36.7077 52.8318 36.9217 51.7927C39.1686 52.2849 41.576 52.6677 44.0905 52.9412C45.5349 55.074 47.0864 56.988 48.6379 58.6833C45.4279 61.9099 42.1645 64.1521 39.5431 64.1521C38.9546 64.1521 38.4731 64.0427 37.9916 63.7693C36.1727 62.7302 35.5842 59.3943 36.3332 54.7458ZM34.0862 77.2771C35.2632 75.8005 35.3167 74.1599 34.6747 72.5193C34.0327 70.8787 32.6953 70.113 31.0368 70.0583C29.0574 70.0037 27.0244 70.0583 25.045 70.0583H24.6705V84.2224H26.2754V78.863H28.7899C29.1109 78.863 29.3784 78.9724 29.5389 79.2458L32.7488 84.3318C32.8023 84.4412 32.9628 84.6052 33.0698 84.6052H35.1562C33.8722 82.5818 32.6418 80.6677 31.3578 78.699C32.4813 78.5349 33.4443 78.1521 34.0862 77.2771ZM26.2754 77.1677V71.7537H26.8639C28.0944 71.7537 29.3784 71.699 30.6088 71.8083C32.0533 71.863 33.0698 73.0115 33.0698 74.488C33.0698 75.9646 31.8928 77.113 30.4483 77.1677C29.1644 77.2224 27.8804 77.1677 26.2754 77.1677ZM46.9794 77.8787C46.1234 74.0505 42.6995 73.0662 40.0781 74.2693C38.0451 75.199 37.1357 77.0037 37.0822 79.2458C37.0287 80.9412 37.5102 82.4724 38.7941 83.6208C40.2386 84.9333 42.004 85.0974 43.823 84.7693C44.8395 84.5505 45.7489 84.0583 46.4444 83.2927C46.1769 82.9099 45.9094 82.5271 45.6419 82.199C44.144 83.5115 42.4855 83.949 40.6666 83.074C39.4896 82.4724 38.9011 80.9958 38.7941 79.9021H47.0864V79.1912C47.1399 78.699 47.0864 78.2615 46.9794 77.8787ZM38.9011 78.7537C38.7406 77.113 40.3456 75.363 42.111 75.363C44.144 75.3083 45.428 76.5662 45.4815 78.7537H38.9011ZM55.3252 73.9958C54.5227 73.8318 53.6667 73.7771 52.8643 73.8318C51.5803 73.9412 50.4568 74.5427 49.5473 75.5271C49.8148 75.9099 50.0288 76.2927 50.3498 76.7302C50.4568 76.6208 50.5638 76.5115 50.6708 76.4568C51.5268 75.6365 52.5433 75.199 53.7737 75.3083C54.7367 75.363 55.6462 75.6912 55.9137 76.6755C56.1277 77.4412 56.0742 78.2615 56.1277 79.0818C55.9672 79.0818 55.9137 79.0271 55.8602 78.9724C54.5762 77.8787 53.1318 77.6599 51.5803 78.0427C50.1358 78.4255 49.2264 79.574 49.1194 81.0505C49.0124 82.7458 49.7613 84.0037 51.2058 84.6052C52.1153 84.988 53.1318 84.988 54.0947 84.7693C54.8437 84.6052 55.1647 84.1677 56.2347 83.5662V84.2771H57.7326C57.7326 82.0896 57.7861 79.4099 57.7326 76.8943C57.7326 75.3083 56.8232 74.324 55.3252 73.9958ZM56.0742 80.8865C56.0207 81.0505 56.0742 81.2146 56.0742 81.3787C56.0742 82.5271 55.8067 82.9099 54.7367 83.3474C53.9877 83.6208 53.1853 83.7302 52.3828 83.4568C51.4733 83.1833 50.8313 82.363 50.8313 81.4333C50.7778 80.5037 51.3663 79.574 52.2758 79.3005C53.5062 78.863 54.6297 79.1365 55.6462 79.9021C55.9672 80.1755 56.1812 80.449 56.0742 80.8865ZM64.42 75.4724C65.8109 75.0349 67.0949 75.3083 68.0579 76.5115L68.2184 76.6208C68.5929 76.2927 68.9139 75.9646 69.3418 75.5818C69.1813 75.4177 69.1278 75.3083 69.0209 75.1443C67.4694 73.449 64.42 73.2302 62.5475 74.5974C59.9261 76.5662 59.9796 80.3943 61.2635 82.4177C62.494 84.3318 64.2595 84.988 66.3459 84.7146C67.5764 84.5505 68.5929 83.949 69.3953 82.9099C69.0209 82.5818 68.6464 82.2537 68.2719 81.8708C68.1649 81.9802 68.1114 82.0349 68.0579 82.1443C66.6134 83.7849 64.206 83.6208 62.922 81.8708C62.173 80.8318 62.0125 79.6287 62.2265 78.4255C62.3335 77.0583 63.029 75.9646 64.42 75.4724ZM75.5477 82.9099C75.4407 82.9646 75.3872 83.0193 75.3872 83.0193C74.9592 83.3474 74.5312 83.4021 74.0497 83.238C73.5682 83.0193 73.5147 82.5818 73.4612 82.1443V75.9099C73.4612 75.8005 73.4612 76.0193 73.5147 75.4724H75.5477V73.8318H73.4077V71.0974H71.8028V74.0505H70.4118C70.3048 74.0505 70.1443 74.1599 70.1443 74.2693C70.0908 74.6521 70.1443 74.9255 70.1443 75.4724H71.8563V82.4724C71.8563 83.3474 72.0703 84.113 72.8193 84.5505C73.6217 85.0427 75.1732 84.9333 75.8687 84.3318C75.9757 84.2771 76.0292 84.0583 76.0292 84.0037C75.8687 83.6755 75.7082 83.2927 75.5477 82.9099Z" fill="#191919"/>
</svg>
