<svg width="101" height="101" viewBox="0 0 101 101" fill="none" xmlns="http://www.w3.org/2000/svg">
<path d="M50.3499 46.0972C53.0977 46.0972 55.3253 43.8201 55.3253 41.0112C55.3253 38.2023 53.0977 35.9253 50.3499 35.9253C47.6021 35.9253 45.3745 38.2023 45.3745 41.0112C45.3745 43.8201 47.6021 46.0972 50.3499 46.0972Z" fill="#E4E4E4"/>
<path d="M50.3498 59.7144C54.2552 63.5972 58.1071 65.894 61.2101 65.894C62.2265 65.894 63.1895 65.6753 63.992 65.1831C66.7739 63.5425 67.7904 59.4409 66.8274 53.5894C66.6669 52.5503 66.4529 51.5112 66.1854 50.4175C67.2554 50.0894 68.2184 49.7612 69.1813 49.4331C74.5847 47.3003 77.5806 44.3472 77.5806 41.1206C77.5806 37.8394 74.5847 34.8862 69.1813 32.8081C68.2184 32.4253 67.2554 32.0972 66.1854 31.8237C66.4529 30.73 66.6669 29.6909 66.8274 28.6519C67.7369 22.6909 66.7204 18.5347 63.9385 16.894C63.136 16.4019 62.173 16.1831 61.1565 16.1831C58.1071 16.1831 54.2017 18.48 50.2963 22.3628C46.4444 18.48 42.5925 16.1831 39.4896 16.1831C38.4731 16.1831 37.5102 16.4019 36.7077 16.894C33.9257 18.5347 32.9093 22.6362 33.8722 28.4878C34.0327 29.5269 34.2467 30.5659 34.5142 31.6597C33.4443 31.9878 32.4813 32.3159 31.5183 32.644C26.1149 34.7769 23.119 37.73 23.119 40.9565C23.119 44.2378 26.1149 47.1909 31.5183 49.269C32.4813 49.6519 33.4443 49.98 34.5142 50.2534C34.2467 51.3472 34.0327 52.3862 33.8722 53.4253C32.9628 59.2769 33.9792 63.4331 36.7077 65.019C37.5102 65.5112 38.4731 65.73 39.4896 65.73C42.5925 65.8394 46.4444 63.5425 50.3498 59.7144ZM47.3539 52.3315C48.3169 52.3862 49.3334 52.3862 50.3498 52.3862C51.3663 52.3862 52.3828 52.3862 53.3457 52.3315C52.3828 53.644 51.3663 54.8472 50.3498 55.9956C49.3334 54.8472 48.3169 53.644 47.3539 52.3315ZM40.7201 46.6987C41.2551 47.6284 41.7365 48.5034 42.325 49.3784C40.6666 49.1597 39.1151 48.8862 37.6172 48.5581C38.0986 47.0815 38.6336 45.5503 39.2756 44.019C39.7036 44.894 40.1851 45.8237 40.7201 46.6987ZM37.6172 33.519C39.1151 33.1909 40.6666 32.9175 42.325 32.6987C41.79 33.5737 41.2551 34.4487 40.7201 35.3784C40.1851 36.3081 39.7036 37.1831 39.2756 38.1128C38.5801 36.5269 38.0451 34.9956 37.6172 33.519ZM40.5596 41.0112C41.2551 39.5347 42.004 38.0581 42.86 36.5815C43.6625 35.1597 44.572 33.7378 45.4815 32.3159C47.0864 32.2065 48.6914 32.1519 50.3498 32.1519C52.0618 32.1519 53.6667 32.2065 55.2182 32.3159C56.1812 33.7378 57.0372 35.1597 57.8396 36.5815C58.6956 38.0581 59.4446 39.5347 60.1401 41.0112C59.4446 42.4878 58.6956 43.9644 57.8396 45.4409C57.0372 46.8628 56.1277 48.2847 55.2182 49.7065C53.6132 49.8159 52.0083 49.8706 50.3498 49.8706C48.6379 49.8706 47.0329 49.8159 45.4815 49.7065C44.5185 48.2847 43.6625 46.8628 42.86 45.4409C42.004 43.9644 41.2551 42.4878 40.5596 41.0112ZM61.4775 38.0581L60.0331 35.3237C59.4981 34.394 59.0166 33.519 58.4281 32.644C60.0866 32.8628 61.638 33.1362 63.136 33.4644C62.6545 34.9956 62.1195 36.5269 61.4775 38.0581ZM61.4775 43.9644C62.1195 45.4956 62.6545 47.0269 63.136 48.5034C61.638 48.8315 60.0866 49.105 58.4281 49.3237C58.9631 48.4487 59.4981 47.5737 60.0331 46.644C60.5146 45.8237 60.9961 44.894 61.4775 43.9644ZM62.708 62.9409C62.28 63.2144 61.745 63.3237 61.1565 63.3237C58.5351 63.3237 55.2717 61.1362 52.0618 57.855C53.6132 56.1597 55.1112 54.2456 56.6092 52.1128C59.1236 51.894 61.531 51.5112 63.778 50.9644C64.0455 51.9487 64.206 52.9331 64.3665 53.9175C65.1154 58.5659 64.527 61.9019 62.708 62.9409ZM65.4899 34.1206C71.4818 35.8706 75.0662 38.5503 75.0662 41.0112C75.0662 43.144 72.6053 45.2769 68.2719 46.9722C67.4159 47.3003 66.4529 47.6284 65.4899 47.9019C64.7945 45.6597 63.9385 43.3628 62.8685 41.0112C63.9385 38.6597 64.848 36.3628 65.4899 34.1206ZM61.2101 18.6987C61.7985 18.6987 62.28 18.8081 62.7615 19.0815C64.527 20.1206 65.169 23.4019 64.42 28.105C64.2595 29.0347 64.0455 30.019 63.8315 31.0581C61.5845 30.5659 59.1771 30.1831 56.6627 29.9097C55.2182 27.7769 53.6667 25.8628 52.1153 24.1675C55.3252 20.9409 58.5886 18.6987 61.2101 18.6987ZM53.3457 29.6909C52.3828 29.6362 51.3663 29.6362 50.3498 29.6362C49.3334 29.6362 48.3169 29.6362 47.3539 29.6909C48.3169 28.3784 49.3334 27.1753 50.3498 26.0269C51.3663 27.1753 52.3828 28.4331 53.3457 29.6909ZM37.9916 19.0815C38.4196 18.8081 38.9546 18.6987 39.5431 18.6987C42.1645 18.6987 45.4279 20.8862 48.6379 24.1675C47.0864 25.8628 45.5884 27.7769 44.0905 29.9097C41.576 30.1284 39.1686 30.5112 36.9217 31.0581C36.6542 30.0737 36.4937 29.0894 36.3332 28.105C35.5842 23.4565 36.1727 20.1753 37.9916 19.0815ZM35.2097 47.9019C29.2179 46.1519 25.6335 43.4722 25.6335 41.0112C25.6335 38.8784 28.0944 36.7456 32.4278 35.0503C33.2838 34.7222 34.2467 34.394 35.2097 34.1206C35.9052 36.3628 36.7612 38.6597 37.8311 41.0112C36.7612 43.3628 35.8517 45.7144 35.2097 47.9019ZM36.3332 53.9175C36.4937 52.9878 36.7077 52.0034 36.9217 50.9644C39.1686 51.4565 41.576 51.8394 44.0905 52.1128C45.5349 54.2456 47.0864 56.1597 48.6379 57.855C45.4279 61.0815 42.1645 63.3237 39.5431 63.3237C38.9546 63.3237 38.4731 63.2144 37.9916 62.9409C36.1727 61.9019 35.5842 58.5659 36.3332 53.9175ZM34.0862 76.4487C35.2632 74.9722 35.3167 73.3315 34.6747 71.6909C34.0327 70.0503 32.6953 69.2847 31.0368 69.23C29.0574 69.1753 27.0244 69.23 25.045 69.23H24.6705V83.394H26.2754V78.0347H28.7899C29.1109 78.0347 29.3784 78.144 29.5389 78.4175L32.7488 83.5034C32.8023 83.6128 32.9628 83.7768 33.0698 83.7768H35.1562C33.8722 81.7534 32.6418 79.8394 31.3578 77.8706C32.4813 77.7065 33.4443 77.3237 34.0862 76.4487ZM26.2754 76.3394V70.9253H26.8639C28.0944 70.9253 29.3784 70.8706 30.6088 70.98C32.0533 71.0347 33.0698 72.1831 33.0698 73.6597C33.0698 75.1362 31.8928 76.2847 30.4483 76.3394C29.1644 76.394 27.8804 76.3394 26.2754 76.3394ZM46.9794 77.0503C46.1234 73.2222 42.6995 72.2378 40.0781 73.4409C38.0451 74.3706 37.1357 76.1753 37.0822 78.4175C37.0287 80.1128 37.5102 81.644 38.7941 82.7925C40.2386 84.105 42.004 84.269 43.823 83.9409C44.8395 83.7222 45.7489 83.23 46.4444 82.4644C46.1769 82.0815 45.9094 81.6987 45.6419 81.3706C44.144 82.6831 42.4855 83.1206 40.6666 82.2456C39.4896 81.644 38.9011 80.1675 38.7941 79.0737H47.0864V78.3628C47.1399 77.8706 47.0864 77.4331 46.9794 77.0503ZM38.9011 77.9253C38.7406 76.2847 40.3456 74.5347 42.111 74.5347C44.144 74.48 45.428 75.7378 45.4815 77.9253H38.9011ZM55.3252 73.1675C54.5227 73.0034 53.6667 72.9487 52.8643 73.0034C51.5803 73.1128 50.4568 73.7144 49.5473 74.6987C49.8148 75.0815 50.0288 75.4644 50.3498 75.9019C50.4568 75.7925 50.5638 75.6831 50.6708 75.6284C51.5268 74.8081 52.5433 74.3706 53.7737 74.48C54.7367 74.5347 55.6462 74.8628 55.9137 75.8472C56.1277 76.6128 56.0742 77.4331 56.1277 78.2534C55.9672 78.2534 55.9137 78.1987 55.8602 78.144C54.5762 77.0503 53.1318 76.8315 51.5803 77.2144C50.1358 77.5972 49.2264 78.7456 49.1194 80.2222C49.0124 81.9175 49.7613 83.1753 51.2058 83.7768C52.1153 84.1597 53.1318 84.1597 54.0947 83.9409C54.8437 83.7769 55.1647 83.3394 56.2347 82.7378V83.4487H57.7326C57.7326 81.2612 57.7861 78.5815 57.7326 76.0659C57.7326 74.48 56.8232 73.4956 55.3252 73.1675ZM56.0742 80.0581C56.0207 80.2222 56.0742 80.3862 56.0742 80.5503C56.0742 81.6987 55.8067 82.0815 54.7367 82.519C53.9877 82.7925 53.1853 82.9018 52.3828 82.6284C51.4733 82.355 50.8313 81.5347 50.8313 80.605C50.7778 79.6753 51.3663 78.7456 52.2758 78.4722C53.5062 78.0347 54.6297 78.3081 55.6462 79.0737C55.9672 79.3472 56.1812 79.6206 56.0742 80.0581ZM64.42 74.644C65.8109 74.2065 67.0949 74.48 68.0579 75.6831L68.2184 75.7925C68.5929 75.4644 68.9139 75.1362 69.3418 74.7534C69.1813 74.5894 69.1278 74.48 69.0209 74.3159C67.4694 72.6206 64.42 72.4019 62.5475 73.769C59.9261 75.7378 59.9796 79.5659 61.2635 81.5893C62.494 83.5034 64.2595 84.1597 66.3459 83.8862C67.5764 83.7222 68.5929 83.1206 69.3953 82.0815C69.0209 81.7534 68.6464 81.4253 68.2719 81.0425C68.1649 81.1518 68.1114 81.2065 68.0579 81.3159C66.6134 82.9565 64.206 82.7925 62.922 81.0425C62.173 80.0034 62.0125 78.8003 62.2265 77.5972C62.3335 76.23 63.029 75.1362 64.42 74.644ZM75.5477 82.0815C75.4407 82.1362 75.3872 82.1909 75.3872 82.1909C74.9592 82.519 74.5312 82.5737 74.0497 82.4097C73.5682 82.1909 73.5147 81.7534 73.4612 81.3159V75.0815C73.4612 74.9722 73.4612 75.1909 73.5147 74.644H75.5477V73.0034H73.4077V70.269H71.8028V73.2222H70.4118C70.3048 73.2222 70.1443 73.3315 70.1443 73.4409C70.0908 73.8237 70.1443 74.0972 70.1443 74.644H71.8563V81.644C71.8563 82.519 72.0703 83.2847 72.8193 83.7222C73.6217 84.2143 75.1732 84.105 75.8687 83.5034C75.9757 83.4487 76.0292 83.23 76.0292 83.1753C75.8687 82.8472 75.7082 82.4643 75.5477 82.0815Z" fill="#E4E4E4"/>
</svg>
