<svg width="101" height="101" viewBox="0 0 101 101" fill="none" xmlns="http://www.w3.org/2000/svg">
<g clip-path="url(#clip0_2377_7859)">
<g clip-path="url(#clip1_2377_7859)">
<path d="M26.984 23.1031C27.1111 23.103 27.2382 23.1028 27.3654 23.1027C27.7153 23.1024 28.0652 23.1025 28.4151 23.1026C28.7956 23.1028 29.176 23.1025 29.5565 23.1023C30.2235 23.1019 30.8905 23.1018 31.5575 23.1019C32.2731 23.102 32.9887 23.1019 33.7043 23.1016C33.7495 23.1016 33.7947 23.1016 33.8413 23.1016C34.0254 23.1015 34.2096 23.1015 34.3937 23.1014C36.3143 23.1007 38.2348 23.1005 40.1553 23.1005C40.362 23.1005 40.5687 23.1005 40.7753 23.1005C40.8266 23.1005 40.8779 23.1005 40.9307 23.1005C42.0672 23.1004 43.2036 23.1003 44.34 23.1001C44.8079 23.1001 45.2758 23.1 45.7437 23.0999C45.7954 23.0999 45.8471 23.0999 45.9004 23.0999C48.8626 23.0995 51.8248 23.0992 54.7871 23.0992C54.8979 23.0992 55.0087 23.0992 55.1196 23.0992C55.62 23.0992 56.1205 23.0993 56.6209 23.0993C56.8441 23.0993 57.0673 23.0993 57.2904 23.0993C57.4021 23.0993 57.5138 23.0993 57.6255 23.0993C61.1595 23.0993 64.6934 23.0988 68.2273 23.0979C69.1181 23.0977 70.0089 23.0974 70.8997 23.0972C70.9819 23.0972 70.9819 23.0972 71.0659 23.0972C72.7555 23.0968 74.4451 23.0965 76.1347 23.0964C76.1877 23.0964 76.2407 23.0964 76.2953 23.0964C77.4591 23.0964 78.6229 23.0963 79.7867 23.0964C80.2031 23.0964 80.6195 23.0964 81.0359 23.0964C81.1395 23.0964 81.243 23.0964 81.3466 23.0964C82.9988 23.0964 84.651 23.096 86.3032 23.0954C87.9664 23.0949 89.6296 23.0947 91.2928 23.0952C91.5223 23.0952 91.7519 23.0953 91.9815 23.0953C92.0265 23.0953 92.0714 23.0953 92.1178 23.0954C92.7881 23.0955 93.4584 23.0953 94.1287 23.0948C94.8736 23.0943 95.6185 23.0943 96.3634 23.0948C96.7388 23.0951 97.1142 23.0951 97.4897 23.0946C97.8307 23.0941 98.1716 23.0942 98.5126 23.0949C98.6357 23.095 98.7588 23.0949 98.882 23.0945C99.0482 23.094 99.2144 23.0944 99.3807 23.095C99.4529 23.0945 99.4529 23.0945 99.5266 23.094C99.7673 23.0957 99.9502 23.1056 100.152 23.2451C100.344 23.4745 100.384 23.6872 100.379 23.9853C100.311 24.4347 100.096 24.8537 99.917 25.2677C99.872 25.3737 99.8271 25.4799 99.7824 25.5861C99.6892 25.8071 99.5955 26.0278 99.5015 26.2485C99.2993 26.724 99.1035 27.2022 98.9075 27.6803C98.8454 27.8316 98.783 27.9827 98.7205 28.1337C98.5353 28.5816 98.3517 29.0298 98.1738 29.4806C98.1441 29.5552 98.1144 29.6298 98.0837 29.7067C98.0298 29.8422 97.9767 29.978 97.9245 30.1142C97.7937 30.4413 97.693 30.664 97.3815 30.8516C97.1544 30.9282 96.98 30.9267 96.7403 30.9267C96.6719 30.9269 96.6719 30.9269 96.6021 30.927C96.4479 30.9273 96.2936 30.9271 96.1394 30.9268C96.0278 30.9269 95.9162 30.927 95.8046 30.9272C95.4956 30.9275 95.1867 30.9273 94.8777 30.9272C94.5424 30.927 94.2071 30.9273 93.8718 30.9275C93.2834 30.9278 92.6949 30.9279 92.1065 30.9279C91.2314 30.9277 90.3563 30.928 89.4812 30.9284C88.3684 30.9289 87.2557 30.9292 86.1429 30.9294C86.0987 30.9294 86.0545 30.9294 86.009 30.9294C85.8296 30.9295 85.6501 30.9295 85.4706 30.9295C83.2769 30.9299 81.0831 30.9308 78.8894 30.9321C78.376 30.9324 77.8626 30.9327 77.3492 30.933C77.2552 30.933 77.1611 30.9331 77.0671 30.9331C76.8784 30.9332 76.6897 30.9333 76.5011 30.9334C76.3117 30.9336 76.1223 30.9337 75.9329 30.9338C73.7475 30.935 71.5621 30.9361 69.3767 30.9371C69.2286 30.9372 69.0804 30.9373 68.9322 30.9373C66.6517 30.9384 64.3712 30.9393 62.0907 30.9397C62.0172 30.9397 62.0172 30.9397 61.9423 30.9397C61.1524 30.9398 60.3625 30.94 59.5726 30.9401C57.2958 30.9405 55.0191 30.941 52.7423 30.9424C52.6954 30.9424 52.6486 30.9424 52.6003 30.9425C51.6171 30.9431 50.634 30.9438 49.6509 30.9445C49.1904 30.9448 48.7299 30.9452 48.2694 30.9455C48.2014 30.9455 48.2014 30.9455 48.132 30.9456C46.6744 30.9466 45.2169 30.9468 43.7593 30.9465C42.2486 30.9462 40.7379 30.9468 39.2272 30.9485C38.3572 30.9494 37.4872 30.9496 36.6172 30.9487C36.0349 30.9482 35.4526 30.9487 34.8703 30.9499C34.5393 30.9506 34.2082 30.9509 33.8772 30.95C29.9928 30.9399 26.3414 31.7325 23.4969 34.5894C21.6965 36.4609 20.6148 38.954 20.2707 41.5274C20.2646 41.5705 20.2584 41.6135 20.2521 41.6579C19.8574 44.7294 20.6051 48.092 22.4763 50.5602C22.6749 50.8153 22.6749 50.8153 22.895 51.0507C22.9752 51.1357 22.9752 51.1357 22.9752 51.2691C23.0187 51.2691 23.0622 51.2691 23.1071 51.2691C23.1908 51.3577 23.1908 51.3577 23.2926 51.486C23.5155 51.7518 23.7567 51.9886 24.01 52.2241C24.0652 52.2757 24.0652 52.2757 24.1216 52.3283C24.2713 52.4665 24.42 52.5989 24.5843 52.719C24.6193 52.747 24.6542 52.775 24.6902 52.8038C24.6902 52.8478 24.6902 52.8918 24.6902 52.9372C24.7259 52.9514 24.7616 52.9656 24.7984 52.9802C25.0103 53.1034 25.1655 53.2735 25.3333 53.4501C25.5981 53.7238 25.8666 53.9849 26.1551 54.2334C26.3173 54.3775 26.4666 54.5332 26.6178 54.689C26.7394 54.8098 26.8656 54.9225 26.9948 55.0348C27.18 55.1962 27.3551 55.3632 27.5266 55.5394C27.6941 55.7115 27.8646 55.8745 28.0461 56.0315C28.3258 56.2741 28.582 56.538 28.8392 56.8046C28.9667 56.9434 28.9667 56.9434 29.1097 57.0074C29.1097 57.0514 29.1097 57.0954 29.1097 57.1408C29.1464 57.1559 29.183 57.1711 29.2208 57.1867C29.4175 57.2994 29.5508 57.4434 29.7075 57.6079C29.8785 57.7868 30.0261 57.9367 30.2311 58.0749C30.2311 58.119 30.2311 58.163 30.2311 58.2084C30.2689 58.2246 30.3066 58.2409 30.3455 58.2576C30.5216 58.3569 30.636 58.474 30.7753 58.6212C30.9619 58.8146 31.1493 59.0004 31.3525 59.1759C31.5972 59.3881 31.8228 59.6154 32.0471 59.8494C32.225 60.0247 32.4107 60.1883 32.5982 60.3529C32.8229 60.5529 33.0398 60.761 33.2572 60.9691C33.614 61.3099 33.974 61.6447 34.3456 61.9692C34.4527 62.0784 34.4527 62.0784 34.4527 62.2118C34.509 62.2358 34.509 62.2358 34.5664 62.2603C34.7471 62.3625 34.8662 62.4861 35.0093 62.6372C35.1634 62.7976 35.3053 62.9421 35.4834 63.0751C36.0266 63.5522 36.2822 64.2033 36.3907 64.9102C36.4203 65.4512 36.2188 65.9695 35.8751 66.3779C35.798 66.4584 35.7199 66.5378 35.6401 66.6156C35.5911 66.6651 35.5421 66.7147 35.4917 66.7657C34.7766 67.226 34.0343 67.1874 33.2179 67.1837C33.0783 67.1841 32.9386 67.1846 32.799 67.1851C32.4163 67.1864 32.0336 67.186 31.651 67.1852C31.2379 67.1848 30.8248 67.1859 30.4117 67.1867C29.6497 67.1881 28.8877 67.1882 28.1257 67.1877C27.4219 67.1872 26.7181 67.1872 26.0143 67.1877C25.9198 67.1878 25.8253 67.1878 25.7309 67.1879C25.5885 67.188 25.4462 67.1881 25.3038 67.1882C23.9809 67.189 22.6581 67.1894 21.3352 67.1886C21.2604 67.1885 21.2604 67.1885 21.1842 67.1885C20.7795 67.1883 20.3747 67.188 19.97 67.1877C18.3904 67.1868 16.8107 67.1873 15.231 67.1892C13.4558 67.1913 11.6806 67.1923 9.90538 67.1916C9.7162 67.1916 9.52702 67.1915 9.33784 67.1914C9.29126 67.1914 9.24468 67.1914 9.19669 67.1914C8.49309 67.1911 7.78949 67.1918 7.08589 67.1928C6.28617 67.194 5.48646 67.194 4.68674 67.1925C4.27855 67.1917 3.87039 67.1915 3.4622 67.1927C3.08882 67.1939 2.71547 67.1934 2.34208 67.1918C2.20676 67.1915 2.07142 67.1917 1.9361 67.1926C1.75259 67.1936 1.5692 67.1927 1.3857 67.1912C1.33276 67.192 1.27983 67.1928 1.22529 67.1936C0.846666 67.1873 0.680459 67.0906 0.415802 66.8158C0.270147 66.5211 0.311372 66.1503 0.399182 65.8416C0.470776 65.6561 0.548825 65.475 0.630182 65.2936C0.691659 65.1507 0.753067 65.0076 0.814414 64.8646C0.846673 64.7904 0.878931 64.7162 0.912167 64.6397C1.07229 64.2678 1.22395 63.8923 1.37639 63.5171C1.44334 63.3532 1.51033 63.1894 1.57737 63.0255C1.61331 62.9376 1.64926 62.8497 1.6852 62.7618C2.36396 61.1024 3.04488 59.4439 3.72822 57.7864C3.98256 57.1695 4.23667 56.5525 4.4908 55.9354C4.55265 55.7853 4.6145 55.6351 4.67635 55.485C4.70589 55.4132 4.70589 55.4132 4.73602 55.3401C4.84748 55.0695 4.959 54.7989 5.07058 54.5284C5.41237 53.6996 5.75274 52.8702 6.09275 52.0406C6.11659 51.9824 6.14044 51.9242 6.16501 51.8643C6.41058 51.2651 6.65608 50.6659 6.90142 50.0667C7.02074 49.7752 7.14009 49.4838 7.25947 49.1923C7.28302 49.1348 7.30658 49.0773 7.33085 49.0181C7.62687 48.2956 7.92443 47.5737 8.22418 46.8528C8.5997 45.9495 8.96957 45.0438 9.33894 44.1379C9.77883 43.0591 10.2214 41.9815 10.6655 40.9045C11.0526 39.9658 11.4386 39.0267 11.8233 38.087C12.1752 37.2274 12.529 36.3687 12.8856 35.5112C13.1138 34.9619 13.3397 34.4117 13.5647 33.8611C13.7569 33.3905 13.9498 32.9202 14.1433 32.4501C14.2408 32.2131 14.3382 31.9761 14.4343 31.7385C15.1918 29.8681 16.2232 28.3378 17.6322 26.9149C17.6726 26.8709 17.7131 26.8268 17.7548 26.7814C18.5484 25.9323 19.5341 25.2848 20.5345 24.713C20.5981 24.6765 20.5981 24.6765 20.6629 24.6393C22.6051 23.5445 24.7819 23.1004 26.984 23.1031Z" fill="#E4E4E4"/>
<path d="M32.6496 40.8347C32.7106 40.8344 32.7715 40.8341 32.8342 40.8337C33.0375 40.8329 33.2407 40.8336 33.444 40.8342C33.5915 40.8339 33.739 40.8335 33.8866 40.8331C34.2913 40.8321 34.696 40.8324 35.1008 40.8329C35.4927 40.8332 35.8845 40.8325 36.2764 40.8319C37.1271 40.8306 37.9778 40.8304 38.8285 40.8308C39.5727 40.8311 40.3169 40.8311 41.0612 40.8307C41.161 40.8306 41.2609 40.8306 41.3608 40.8305C41.5112 40.8304 41.6617 40.8304 41.8122 40.8303C43.2107 40.8296 44.6093 40.8293 46.0078 40.8298C46.0605 40.8298 46.1132 40.8298 46.1675 40.8298C46.5955 40.83 47.0234 40.8302 47.4514 40.8304C49.1218 40.831 50.7923 40.8305 52.4627 40.8289C54.3395 40.8272 56.2164 40.8263 58.0932 40.8268C58.2932 40.8269 58.4931 40.8269 58.6931 40.8269C58.7424 40.827 58.7916 40.827 58.8423 40.827C59.5864 40.8271 60.3304 40.8266 61.0745 40.8257C61.9201 40.8247 62.7657 40.8247 63.6114 40.8259C64.0431 40.8264 64.4747 40.8266 64.9064 40.8255C65.3012 40.8246 65.696 40.8249 66.0907 40.8262C66.2339 40.8265 66.3771 40.8263 66.5203 40.8256C66.7142 40.8247 66.9081 40.8255 67.102 40.8267C67.1582 40.826 67.2144 40.8254 67.2723 40.8247C67.5377 40.828 67.6662 40.8393 67.8948 40.988C68.0919 41.1938 68.1526 41.3101 68.1773 41.5977C68.1553 41.929 68.0539 42.1792 67.9251 42.4818C67.9003 42.5418 67.8756 42.6018 67.85 42.6636C67.7685 42.8607 67.6859 43.0572 67.6033 43.2538C67.5459 43.3919 67.4886 43.53 67.4315 43.6682C67.3141 43.9514 67.1964 44.2345 67.0783 44.5175C66.849 45.0676 66.6237 45.6194 66.3983 46.1711C66.2836 46.4518 66.1685 46.7323 66.0534 47.0127C66.0199 47.0944 66.0199 47.0944 65.9856 47.1778C65.727 47.8079 65.4674 48.4376 65.2079 49.0673C64.8365 49.9682 64.467 50.87 64.0985 51.7721C63.3216 53.6737 62.5446 55.5753 61.7614 57.4743C61.1014 59.0752 60.4444 60.6773 59.7949 62.2826C59.207 63.7354 58.609 65.184 58.0111 66.6326C57.8167 67.1036 57.6226 67.5747 57.4285 68.0459C57.4089 68.0933 57.3894 68.1408 57.3692 68.1896C56.7432 69.7093 56.1203 71.2302 55.4983 72.7515C55.2228 73.4254 54.9471 74.0991 54.6704 74.7725C54.631 74.8684 54.631 74.8684 54.5909 74.9663C54.4736 75.2515 54.3551 75.5361 54.2334 75.8195C54.2135 75.8659 54.1936 75.9123 54.1731 75.9601C53.9385 76.4418 53.5473 76.7312 53.0544 76.9198C52.5688 77.0592 52.03 77.0088 51.5306 77.0031C51.3908 77.003 51.251 77.0031 51.1111 77.0033C50.7335 77.0034 50.3559 77.0011 49.9783 76.9983C49.583 76.9958 49.1876 76.9955 48.7922 76.9951C48.0444 76.9938 47.2967 76.9905 46.5489 76.9865C45.6972 76.982 44.8455 76.9798 43.9938 76.9778C42.2426 76.9736 40.4915 76.9666 38.7403 76.9577C38.7308 76.7989 38.7308 76.7989 38.7403 76.6241C38.8725 76.512 38.9855 76.4388 39.1361 76.3572C40.2928 75.7285 41.2799 75.0008 42.2363 74.0885C42.3139 74.0155 42.3139 74.0155 42.393 73.941C44.5513 71.8436 46.08 68.4922 46.1416 65.459C46.1595 63.9576 46.1595 63.9576 45.9303 62.4786C45.9106 62.3962 45.9106 62.3962 45.8906 62.3122C45.3461 60.1055 44.3055 58.1798 42.83 56.4734C42.7732 56.4035 42.7165 56.3335 42.66 56.2634C42.5277 56.1059 42.3999 55.9725 42.2446 55.8396C42.1775 55.7814 42.1775 55.7814 42.1091 55.722C42.0184 55.645 41.9273 55.5683 41.8359 55.4921C41.7939 55.4568 41.7519 55.4214 41.7086 55.385C41.6705 55.3536 41.6325 55.3222 41.5932 55.2899C41.5108 55.2057 41.5108 55.2057 41.5108 55.0722C41.4521 55.0458 41.4521 55.0458 41.3922 55.0188C41.2416 54.9359 41.1497 54.8518 41.0325 54.7261C40.8709 54.5574 40.7061 54.3992 40.5296 54.2465C40.2824 54.0313 40.0537 53.8014 39.8266 53.5647C39.6492 53.3897 39.4639 53.2267 39.2767 53.0624C39.0445 52.8554 38.8205 52.6397 38.596 52.4241C38.2596 52.1025 37.9226 51.7818 37.5818 51.465C37.2655 51.1707 36.9511 50.8743 36.6377 50.5767C36.5938 50.535 36.5498 50.4933 36.5045 50.4503C36.3242 50.2792 36.1439 50.108 35.9638 49.9367C35.8299 49.8094 35.6958 49.6822 35.5617 49.555C35.5214 49.5166 35.481 49.4781 35.4395 49.4385C35.2702 49.2782 35.1029 49.1264 34.9193 48.9824C34.8742 48.9443 34.829 48.9062 34.7825 48.8669C34.7825 48.8229 34.7825 48.7788 34.7825 48.7335C34.7468 48.7193 34.7111 48.7051 34.6743 48.6905C34.4624 48.5674 34.3071 48.3973 34.1394 48.2205C33.8818 47.9507 33.6161 47.698 33.3354 47.4528C33.1071 47.2505 32.8878 47.0389 32.6676 46.8277C32.5694 46.7339 32.4713 46.6402 32.3731 46.5464C32.2995 46.4761 32.2995 46.4761 32.2244 46.4044C31.9974 46.1878 31.7699 45.9717 31.5421 45.7559C31.5031 45.7189 31.4642 45.6819 31.4241 45.6437C31.2352 45.4651 31.0442 45.2926 30.8448 45.126C30.3517 44.7012 30.0232 44.0704 29.9466 43.4211C29.9166 42.7506 30.1329 42.1771 30.5581 41.6654C31.1507 41.058 31.8183 40.8279 32.6496 40.8347Z" fill="#E4E4E4"/>
<path d="M80.1123 40.8418C80.1924 40.8413 80.1924 40.8413 80.2741 40.8407C80.4524 40.8397 80.6308 40.8397 80.8091 40.8396C80.9372 40.8391 81.0653 40.8386 81.1934 40.838C81.5409 40.8365 81.8884 40.8359 82.236 40.8356C82.4531 40.8353 82.6702 40.8349 82.8873 40.8344C83.6448 40.8328 84.4023 40.8319 85.1598 40.8317C85.8659 40.8315 86.5721 40.8295 87.2782 40.8267C87.8846 40.8244 88.4909 40.8233 89.0973 40.8233C89.4594 40.8232 89.8216 40.8226 90.1837 40.8207C90.5241 40.819 90.8646 40.8188 91.205 40.8199C91.3299 40.82 91.4549 40.8196 91.5798 40.8185C91.7504 40.8172 91.9209 40.8179 92.0915 40.8191C92.1408 40.8182 92.1902 40.8173 92.2411 40.8164C92.619 40.8225 92.7726 40.9317 93.028 41.1937C93.1565 41.4536 93.1296 41.7411 93.0489 42.0127C92.9804 42.1882 92.9063 42.3602 92.8301 42.5324C92.7694 42.6743 92.7089 42.8164 92.6485 42.9585C92.6146 43.0376 92.5807 43.1167 92.5459 43.1981C92.3506 43.6577 92.166 44.1218 91.9794 44.585C91.663 45.3694 91.3445 46.1527 91.0161 46.932C90.7256 47.6218 90.4433 48.3148 90.1627 49.0087C89.7597 50.0056 89.3524 51.0007 88.9424 51.9946C88.9146 52.0621 88.8867 52.1296 88.8581 52.1991C88.8302 52.2666 88.8024 52.334 88.7737 52.4035C88.7178 52.5392 88.6618 52.6748 88.6059 52.8104C88.5784 52.8772 88.5508 52.9439 88.5225 53.0127C88.2464 53.6821 87.9718 54.3521 87.6974 55.0222C87.2248 56.176 86.7505 57.329 86.2752 58.4816C86.0958 58.9167 85.9166 59.3519 85.7374 59.7871C85.6136 60.0878 85.4896 60.3885 85.3655 60.6891C84.9686 61.6503 84.5757 62.6131 84.183 63.576C83.8682 64.3477 83.5525 65.1191 83.2348 65.8896C83.1904 65.9974 83.1904 65.9974 83.145 66.1074C83.0022 66.4536 82.8593 66.7998 82.7163 67.1459C82.6639 67.2727 82.6115 67.3996 82.5592 67.5264C82.5343 67.5867 82.5094 67.6471 82.4837 67.7092C82.3383 68.0624 82.1969 68.417 82.0583 68.7731C81.9198 69.1254 81.771 69.4646 81.5917 69.7974C81.5665 69.8447 81.5413 69.892 81.5154 69.9407C81.2876 70.3621 81.0351 70.762 80.7589 71.1527C80.7129 71.2184 80.6669 71.284 80.6195 71.3516C80.3062 71.7867 79.9676 72.1836 79.6032 72.5745C79.4394 72.75 79.4394 72.75 79.3005 72.9311C79.1093 73.1712 78.8799 73.3559 78.648 73.5548C78.5853 73.6108 78.5225 73.6668 78.4579 73.7245C77.9364 74.1867 77.3915 74.5885 76.8011 74.956C76.7572 74.9834 76.7133 75.0108 76.668 75.0391C74.404 76.4312 71.8572 76.978 69.2352 76.9801C69.1076 76.9805 68.98 76.981 68.8524 76.9815C68.5875 76.9823 68.3226 76.9825 68.0576 76.9824C67.7187 76.9824 67.3797 76.9843 67.0407 76.9865C66.7783 76.988 66.516 76.9883 66.2535 76.9882C66.1285 76.9884 66.0034 76.989 65.8784 76.99C65.7042 76.9913 65.53 76.9909 65.3558 76.9901C65.3047 76.9909 65.2536 76.9916 65.201 76.9924C64.8583 76.9884 64.6645 76.9089 64.4 76.6908C64.2284 76.4619 64.2558 76.2361 64.2681 75.9568C64.4418 75.301 64.7388 74.6681 65.0021 74.0444C65.1191 73.7672 65.235 73.4896 65.3511 73.212C65.3756 73.1535 65.4001 73.0949 65.4254 73.0345C65.7129 72.3464 65.9944 71.6558 66.2759 70.9651C66.3289 70.8349 66.382 70.7047 66.4351 70.5745C66.5145 70.3798 66.5939 70.185 66.6732 69.9902C66.9426 69.3293 67.2131 68.6687 67.4838 68.0084C67.5069 67.9519 67.5301 67.8954 67.5539 67.8373C67.893 67.0103 68.2333 66.1838 68.5741 65.3576C68.9674 64.4038 69.3574 63.4486 69.7472 62.4933C70.0574 61.7331 70.3678 60.9729 70.6812 60.214C70.8511 59.8025 71.0201 59.3907 71.1888 58.9788C71.2121 58.9218 71.2355 58.8648 71.2595 58.8061C71.3079 58.6878 71.3564 58.5695 71.4048 58.4513C71.4292 58.3917 71.4536 58.3322 71.4787 58.2709C71.503 58.2114 71.5274 58.1519 71.5525 58.0906C71.8613 57.3366 72.1717 56.5834 72.4846 55.8313C72.8192 55.0268 73.1474 54.2198 73.4741 53.4121C73.8497 52.4835 74.2299 51.5569 74.6119 50.631C75.0538 49.5601 75.4937 48.4884 75.9312 47.4157C76.4053 46.2532 76.8806 45.0912 77.361 43.9313C77.4701 43.6673 77.578 43.4027 77.6845 43.1376C77.7339 43.0147 77.7838 42.8919 77.8337 42.7692C77.8931 42.623 77.9519 42.4765 78.0099 42.3296C78.2101 41.8408 78.4491 41.4155 78.9119 41.1395C78.9731 41.1017 78.9731 41.1017 79.0356 41.0631C79.3933 40.8856 79.7179 40.8405 80.1123 40.8418Z" fill="#E4E4E4"/>
</g>
</g>
<defs>
<clipPath id="clip0_2377_7859">
<rect width="100" height="100" fill="white" transform="translate(0.349854 0.034668)"/>
</clipPath>
<clipPath id="clip1_2377_7859">
<rect width="100" height="53.8462" fill="white" transform="translate(0.349854 23.1116)"/>
</clipPath>
</defs>
</svg>
