<svg width="101" height="101" viewBox="0 0 101 101" fill="none" xmlns="http://www.w3.org/2000/svg">
<g clip-path="url(#clip0_2377_7849)">
<g clip-path="url(#clip1_2377_7849)">
<path d="M26.984 23.9314C27.1111 23.9313 27.2382 23.9312 27.3654 23.9311C27.7153 23.9308 28.0652 23.9309 28.4151 23.931C28.7956 23.9311 29.176 23.9309 29.5565 23.9306C30.2235 23.9303 30.8905 23.9302 31.5575 23.9303C32.2731 23.9303 32.9887 23.9303 33.7043 23.93C33.7495 23.93 33.7947 23.93 33.8413 23.93C34.0254 23.9299 34.2096 23.9298 34.3937 23.9298C36.3143 23.9291 38.2348 23.9289 40.1553 23.9289C40.362 23.9289 40.5687 23.9288 40.7753 23.9288C40.8266 23.9288 40.8779 23.9288 40.9307 23.9288C42.0672 23.9288 43.2036 23.9287 44.34 23.9285C44.8079 23.9284 45.2758 23.9284 45.7437 23.9283C45.7954 23.9283 45.8471 23.9283 45.9004 23.9283C48.8626 23.9279 51.8248 23.9276 54.7871 23.9276C54.8979 23.9276 55.0087 23.9276 55.1196 23.9276C55.62 23.9276 56.1205 23.9276 56.6209 23.9276C56.8441 23.9276 57.0673 23.9276 57.2904 23.9276C57.4021 23.9276 57.5138 23.9276 57.6255 23.9276C61.1595 23.9277 64.6934 23.9272 68.2273 23.9263C69.1181 23.926 70.0089 23.9258 70.8997 23.9256C70.9819 23.9256 70.9819 23.9256 71.0659 23.9255C72.7555 23.9251 74.4451 23.9249 76.1347 23.9248C76.1877 23.9248 76.2407 23.9248 76.2953 23.9248C77.4591 23.9247 78.6229 23.9247 79.7867 23.9247C80.2031 23.9247 80.6195 23.9247 81.0359 23.9247C81.1395 23.9247 81.243 23.9247 81.3466 23.9247C82.9988 23.9248 84.651 23.9244 86.3032 23.9238C87.9664 23.9232 89.6296 23.9231 91.2928 23.9235C91.5223 23.9236 91.7519 23.9236 91.9815 23.9237C92.0265 23.9237 92.0714 23.9237 92.1178 23.9237C92.7881 23.9239 93.4584 23.9236 94.1287 23.9232C94.8736 23.9227 95.6185 23.9226 96.3634 23.9232C96.7388 23.9235 97.1142 23.9235 97.4897 23.923C97.8307 23.9225 98.1716 23.9226 98.5126 23.9232C98.6357 23.9233 98.7588 23.9232 98.882 23.9229C99.0482 23.9224 99.2144 23.9228 99.3807 23.9234C99.4529 23.9229 99.4529 23.9229 99.5266 23.9224C99.7673 23.9241 99.9502 23.934 100.152 24.0735C100.344 24.3029 100.384 24.5156 100.379 24.8136C100.311 25.2631 100.096 25.682 99.917 26.096C99.872 26.2021 99.8271 26.3083 99.7824 26.4145C99.6892 26.6354 99.5955 26.8562 99.5015 27.0768C99.2993 27.5524 99.1035 28.0305 98.9075 28.5087C98.8454 28.6599 98.783 28.811 98.7205 28.9621C98.5353 29.4099 98.3517 29.8582 98.1738 30.309C98.1441 30.3836 98.1144 30.4582 98.0837 30.535C98.0298 30.6706 97.9767 30.8064 97.9245 30.9426C97.7937 31.2696 97.693 31.4923 97.3815 31.68C97.1544 31.7566 96.98 31.7551 96.7403 31.7551C96.6719 31.7553 96.6719 31.7553 96.6021 31.7554C96.4479 31.7557 96.2936 31.7554 96.1394 31.7552C96.0278 31.7553 95.9162 31.7554 95.8046 31.7555C95.4956 31.7558 95.1867 31.7557 94.8777 31.7555C94.5424 31.7554 94.2071 31.7557 93.8718 31.7559C93.2834 31.7562 92.6949 31.7563 92.1065 31.7562C91.2314 31.7561 90.3563 31.7564 89.4812 31.7568C88.3684 31.7572 87.2557 31.7576 86.1429 31.7578C86.0987 31.7578 86.0545 31.7578 86.009 31.7578C85.8296 31.7578 85.6501 31.7579 85.4706 31.7579C83.2769 31.7582 81.0831 31.7592 78.8894 31.7605C78.376 31.7608 77.8626 31.7611 77.3492 31.7613C77.2552 31.7614 77.1611 31.7614 77.0671 31.7615C76.8784 31.7616 76.6897 31.7617 76.5011 31.7618C76.3117 31.7619 76.1223 31.762 75.9329 31.7621C73.7475 31.7634 71.5621 31.7645 69.3767 31.7655C69.2286 31.7656 69.0804 31.7656 68.9322 31.7657C66.6517 31.7668 64.3712 31.7677 62.0907 31.7681C62.0172 31.7681 62.0172 31.7681 61.9423 31.7681C61.1524 31.7682 60.3625 31.7683 59.5726 31.7685C57.2958 31.7688 55.0191 31.7693 52.7423 31.7708C52.6954 31.7708 52.6486 31.7708 52.6003 31.7708C51.6171 31.7715 50.634 31.7721 49.6509 31.7729C49.1904 31.7732 48.7299 31.7735 48.2694 31.7739C48.2014 31.7739 48.2014 31.7739 48.132 31.774C46.6744 31.775 45.2169 31.7752 43.7593 31.7749C42.2486 31.7745 40.7379 31.7751 39.2272 31.7768C38.3572 31.7778 37.4872 31.778 36.6172 31.7771C36.0349 31.7766 35.4526 31.7771 34.8703 31.7783C34.5393 31.779 34.2082 31.7793 33.8772 31.7783C29.9928 31.7683 26.3414 32.5609 23.4969 35.4178C21.6965 37.2893 20.6148 39.7824 20.2707 42.3558C20.2646 42.3988 20.2584 42.4419 20.2521 42.4862C19.8574 45.5578 20.6051 48.9204 22.4763 51.3885C22.6749 51.6437 22.6749 51.6437 22.895 51.8791C22.9752 51.964 22.9752 51.964 22.9752 52.0975C23.0187 52.0975 23.0622 52.0975 23.1071 52.0975C23.1908 52.1861 23.1908 52.1861 23.2926 52.3143C23.5155 52.5802 23.7567 52.8169 24.01 53.0525C24.0652 53.104 24.0652 53.104 24.1216 53.1567C24.2713 53.2948 24.42 53.4273 24.5843 53.5474C24.6193 53.5754 24.6542 53.6033 24.6902 53.6321C24.6902 53.6762 24.6902 53.7202 24.6902 53.7656C24.7259 53.7798 24.7616 53.794 24.7984 53.8086C25.0103 53.9317 25.1655 54.1018 25.3333 54.2785C25.5981 54.5522 25.8666 54.8133 26.1551 55.0617C26.3173 55.2059 26.4666 55.3616 26.6178 55.5173C26.7394 55.6382 26.8656 55.7508 26.9948 55.8632C27.18 56.0246 27.3551 56.1916 27.5266 56.3678C27.6941 56.5399 27.8646 56.7029 28.0461 56.8599C28.3258 57.1024 28.582 57.3663 28.8392 57.6329C28.9667 57.7718 28.9667 57.7718 29.1097 57.8357C29.1097 57.8798 29.1097 57.9238 29.1097 57.9692C29.1464 57.9843 29.183 57.9995 29.2208 58.015C29.4175 58.1278 29.5508 58.2718 29.7075 58.4362C29.8785 58.6152 30.0261 58.765 30.2311 58.9033C30.2311 58.9473 30.2311 58.9914 30.2311 59.0368C30.2689 59.053 30.3066 59.0693 30.3455 59.086C30.5216 59.1852 30.636 59.3024 30.7753 59.4496C30.9619 59.643 31.1493 59.8288 31.3525 60.0043C31.5972 60.2164 31.8228 60.4438 32.0471 60.6777C32.225 60.8531 32.4107 61.0166 32.5982 61.1812C32.8229 61.3812 33.0398 61.5894 33.2572 61.7975C33.614 62.1383 33.974 62.473 34.3456 62.7975C34.4527 62.9067 34.4527 62.9067 34.4527 63.0402C34.509 63.0642 34.509 63.0642 34.5664 63.0887C34.7471 63.1909 34.8662 63.3145 35.0093 63.4656C35.1634 63.626 35.3053 63.7705 35.4834 63.9034C36.0266 64.3806 36.2822 65.0316 36.3907 65.7386C36.4203 66.2796 36.2188 66.7979 35.8751 67.2063C35.798 67.2868 35.7199 67.3662 35.6401 67.444C35.5911 67.4935 35.5421 67.543 35.4917 67.5941C34.7766 68.0544 34.0343 68.0157 33.2179 68.0121C33.0783 68.0124 32.9386 68.0129 32.799 68.0135C32.4163 68.0147 32.0336 68.0143 31.651 68.0136C31.2379 68.0132 30.8248 68.0142 30.4117 68.0151C29.6497 68.0164 28.8877 68.0166 28.1257 68.0161C27.4219 68.0156 26.7181 68.0156 26.0143 68.0161C25.9198 68.0161 25.8253 68.0162 25.7309 68.0162C25.5885 68.0163 25.4462 68.0164 25.3038 68.0165C23.9809 68.0174 22.6581 68.0177 21.3352 68.017C21.2604 68.0169 21.2604 68.0169 21.1842 68.0169C20.7795 68.0166 20.3747 68.0164 19.97 68.0161C18.3904 68.0151 16.8107 68.0157 15.231 68.0176C13.4558 68.0197 11.6806 68.0207 9.90538 68.02C9.7162 68.0199 9.52702 68.0199 9.33784 68.0198C9.29126 68.0198 9.24468 68.0198 9.19669 68.0197C8.49309 68.0195 7.78949 68.0201 7.08589 68.0212C6.28617 68.0224 5.48646 68.0223 4.68674 68.0208C4.27855 68.0201 3.87039 68.0199 3.4622 68.0211C3.08882 68.0222 2.71547 68.0218 2.34208 68.0202C2.20676 68.0198 2.07142 68.0201 1.9361 68.0209C1.75259 68.022 1.5692 68.021 1.3857 68.0196C1.33276 68.0204 1.27983 68.0211 1.22529 68.022C0.846666 68.0157 0.680459 67.919 0.415802 67.6441C0.270147 67.3495 0.311372 66.9787 0.399182 66.67C0.470776 66.4844 0.548825 66.3034 0.630182 66.122C0.691659 65.979 0.753067 65.836 0.814414 65.693C0.846673 65.6188 0.878931 65.5446 0.912167 65.4681C1.07229 65.0961 1.22395 64.7207 1.37639 64.3455C1.44334 64.1816 1.51033 64.0177 1.57737 63.8539C1.61331 63.766 1.64926 63.6781 1.6852 63.5902C2.36396 61.9308 3.04488 60.2723 3.72822 58.6148C3.98256 57.9979 4.23667 57.3808 4.4908 56.7638C4.55265 56.6136 4.6145 56.4635 4.67635 56.3133C4.70589 56.2416 4.70589 56.2416 4.73602 56.1684C4.84748 55.8979 4.959 55.6273 5.07058 55.3568C5.41237 54.528 5.75274 53.6985 6.09275 52.869C6.11659 52.8108 6.14044 52.7526 6.16501 52.6927C6.41058 52.0935 6.65608 51.4943 6.90142 50.895C7.02074 50.6036 7.14009 50.3121 7.25947 50.0207C7.28302 49.9632 7.30658 49.9057 7.33085 49.8464C7.62687 49.1239 7.92443 48.4021 8.22418 47.6812C8.5997 46.7778 8.96957 45.8722 9.33894 44.9662C9.77883 43.8875 10.2214 42.8099 10.6655 41.7329C11.0526 40.7942 11.4386 39.855 11.8233 38.9153C12.1752 38.0558 12.529 37.1971 12.8856 36.3395C13.1138 35.7903 13.3397 35.2401 13.5647 34.6895C13.7569 34.2189 13.9498 33.7486 14.1433 33.2785C14.2408 33.0415 14.3382 32.8044 14.4343 32.5668C15.1918 30.6965 16.2232 29.1661 17.6322 27.7433C17.6726 27.6992 17.7131 27.6552 17.7548 27.6098C18.5484 26.7606 19.5341 26.1131 20.5345 25.5414C20.5981 25.5049 20.5981 25.5049 20.6629 25.4677C22.6051 24.3729 24.7819 23.9287 26.984 23.9314Z" fill="#191919"/>
<path d="M32.6496 41.6631C32.7106 41.6627 32.7715 41.6624 32.8342 41.6621C33.0375 41.6613 33.2407 41.6619 33.444 41.6626C33.5915 41.6623 33.739 41.6619 33.8866 41.6615C34.2913 41.6605 34.696 41.6608 35.1008 41.6613C35.4927 41.6616 35.8845 41.6609 36.2764 41.6603C37.1271 41.659 37.9778 41.6588 38.8285 41.6592C39.5727 41.6595 40.3169 41.6594 41.0612 41.659C41.161 41.659 41.2609 41.6589 41.3608 41.6589C41.5112 41.6588 41.6617 41.6587 41.8122 41.6587C43.2107 41.6579 44.6093 41.6576 46.0078 41.6582C46.0605 41.6582 46.1132 41.6582 46.1675 41.6582C46.5955 41.6584 47.0234 41.6586 47.4514 41.6587C49.1218 41.6594 50.7923 41.6588 52.4627 41.6573C54.3395 41.6556 56.2164 41.6547 58.0932 41.6552C58.2932 41.6552 58.4931 41.6553 58.6931 41.6553C58.7424 41.6553 58.7916 41.6553 58.8423 41.6553C59.5864 41.6555 60.3304 41.655 61.0745 41.6541C61.9201 41.6531 62.7657 41.653 63.6114 41.6542C64.0431 41.6548 64.4747 41.6549 64.9064 41.6539C65.3012 41.653 65.696 41.6533 66.0907 41.6546C66.2339 41.6549 66.3771 41.6547 66.5203 41.654C66.7142 41.6531 66.9081 41.6538 67.102 41.655C67.1582 41.6544 67.2144 41.6537 67.2723 41.6531C67.5377 41.6564 67.6662 41.6677 67.8948 41.8164C68.0919 42.0222 68.1526 42.1385 68.1773 42.4261C68.1553 42.7574 68.0539 43.0076 67.9251 43.3101C67.9003 43.3701 67.8756 43.4302 67.85 43.492C67.7685 43.689 67.6859 43.8856 67.6033 44.0821C67.5459 44.2202 67.4886 44.3584 67.4315 44.4965C67.3141 44.7798 67.1964 45.0629 67.0783 45.3459C66.849 45.896 66.6237 46.4477 66.3983 46.9995C66.2836 47.2801 66.1685 47.5606 66.0534 47.8411C66.0199 47.9228 66.0199 47.9228 65.9856 48.0062C65.727 48.6363 65.4674 49.266 65.2079 49.8957C64.8365 50.7966 64.467 51.6983 64.0985 52.6005C63.3216 54.5021 62.5446 56.4037 61.7614 58.3027C61.1014 59.9035 60.4444 61.5057 59.7949 63.111C59.207 64.5638 58.609 66.0123 58.0111 67.461C57.8167 67.932 57.6226 68.4031 57.4285 68.8742C57.4089 68.9217 57.3894 68.9691 57.3692 69.018C56.7432 70.5376 56.1203 72.0586 55.4983 73.5799C55.2228 74.2537 54.9471 74.9275 54.6704 75.6008C54.631 75.6968 54.631 75.6968 54.5909 75.7946C54.4736 76.0798 54.3551 76.3645 54.2334 76.6478C54.2135 76.6942 54.1936 76.7406 54.1731 76.7885C53.9385 77.2701 53.5473 77.5595 53.0544 77.7481C52.5688 77.8876 52.03 77.8372 51.5306 77.8315C51.3908 77.8314 51.251 77.8314 51.1111 77.8317C50.7335 77.8318 50.3559 77.8294 49.9783 77.8266C49.583 77.8241 49.1876 77.8239 48.7922 77.8234C48.0444 77.8222 47.2967 77.8189 46.5489 77.8149C45.6972 77.8104 44.8455 77.8082 43.9938 77.8062C42.2426 77.802 40.4915 77.795 38.7403 77.786C38.7308 77.6273 38.7308 77.6273 38.7403 77.4524C38.8725 77.3403 38.9855 77.2672 39.1361 77.1855C40.2928 76.5568 41.2799 75.8292 42.2363 74.9169C42.3139 74.8439 42.3139 74.8439 42.393 74.7694C44.5513 72.672 46.08 69.3206 46.1416 66.2874C46.1595 64.786 46.1595 64.786 45.9303 63.307C45.9106 63.2246 45.9106 63.2246 45.8906 63.1406C45.3461 60.9338 44.3055 59.0082 42.83 57.3018C42.7732 57.2319 42.7165 57.1619 42.66 57.0917C42.5277 56.9342 42.3999 56.8009 42.2446 56.6679C42.1775 56.6097 42.1775 56.6097 42.1091 56.5504C42.0184 56.4734 41.9273 56.3967 41.8359 56.3205C41.7939 56.2852 41.7519 56.2498 41.7086 56.2134C41.6705 56.182 41.6325 56.1506 41.5932 56.1182C41.5108 56.0341 41.5108 56.0341 41.5108 55.9006C41.4521 55.8742 41.4521 55.8742 41.3922 55.8472C41.2416 55.7642 41.1497 55.6802 41.0325 55.5545C40.8709 55.3858 40.7061 55.2275 40.5296 55.0749C40.2824 54.8596 40.0537 54.6298 39.8266 54.3931C39.6492 54.2181 39.4639 54.055 39.2767 53.8908C39.0445 53.6838 38.8205 53.468 38.596 53.2525C38.2596 52.9309 37.9226 52.6102 37.5818 52.2934C37.2655 51.999 36.9511 51.7026 36.6377 51.4051C36.5938 51.3634 36.5498 51.3217 36.5045 51.2787C36.3242 51.1076 36.1439 50.9364 35.9638 50.7651C35.8299 50.6377 35.6958 50.5105 35.5617 50.3834C35.5214 50.3449 35.481 50.3065 35.4395 50.2669C35.2702 50.1065 35.1029 49.9548 34.9193 49.8108C34.8742 49.7727 34.829 49.7345 34.7825 49.6953C34.7825 49.6513 34.7825 49.6072 34.7825 49.5618C34.7468 49.5477 34.7111 49.5335 34.6743 49.5188C34.4624 49.3957 34.3071 49.2257 34.1394 49.0489C33.8818 48.779 33.6161 48.5264 33.3354 48.2811C33.1071 48.0789 32.8878 47.8672 32.6676 47.656C32.5694 47.5623 32.4713 47.4685 32.3731 47.3748C32.2995 47.3045 32.2995 47.3045 32.2244 47.2328C31.9974 47.0161 31.7699 46.8 31.5421 46.5843C31.5031 46.5473 31.4642 46.5102 31.4241 46.4721C31.2352 46.2934 31.0442 46.1209 30.8448 45.9543C30.3517 45.5296 30.0232 44.8987 29.9466 44.2495C29.9166 43.5789 30.1329 43.0055 30.5581 42.4938C31.1507 41.8863 31.8183 41.6563 32.6496 41.6631Z" fill="#191919"/>
<path d="M80.1123 41.6702C80.1924 41.6696 80.1924 41.6696 80.2741 41.6691C80.4524 41.6681 80.6308 41.6681 80.8091 41.668C80.9372 41.6675 81.0653 41.6669 81.1934 41.6663C81.5409 41.6649 81.8884 41.6643 82.236 41.6639C82.4531 41.6637 82.6702 41.6633 82.8873 41.6628C83.6448 41.6612 84.4023 41.6603 85.1598 41.6601C85.8659 41.6598 86.5721 41.6578 87.2782 41.655C87.8846 41.6527 88.4909 41.6517 89.0973 41.6516C89.4594 41.6516 89.8216 41.651 90.1837 41.6491C90.5241 41.6474 90.8646 41.6472 91.205 41.6483C91.3299 41.6484 91.4549 41.648 91.5798 41.6469C91.7504 41.6455 91.9209 41.6462 92.0915 41.6474C92.1408 41.6466 92.1902 41.6457 92.2411 41.6448C92.619 41.6509 92.7726 41.7601 93.028 42.0221C93.1565 42.282 93.1296 42.5695 93.0489 42.841C92.9804 43.0165 92.9063 43.1885 92.8301 43.3607C92.7694 43.5027 92.7089 43.6448 92.6485 43.7869C92.6146 43.866 92.5807 43.945 92.5459 44.0265C92.3506 44.4861 92.166 44.9502 91.9794 45.4134C91.663 46.1977 91.3445 46.981 91.0161 47.7603C90.7256 48.4501 90.4433 49.1431 90.1627 49.8371C89.7597 50.834 89.3524 51.829 88.9424 52.823C88.9146 52.8905 88.8867 52.958 88.8581 53.0275C88.8302 53.0949 88.8024 53.1624 88.7737 53.2319C88.7178 53.3675 88.6618 53.5032 88.6059 53.6388C88.5784 53.7055 88.5508 53.7723 88.5225 53.841C88.2464 54.5105 87.9718 55.1805 87.6974 55.8506C87.2248 57.0044 86.7505 58.1574 86.2752 59.31C86.0958 59.7451 85.9166 60.1803 85.7374 60.6155C85.6136 60.9162 85.4896 61.2169 85.3655 61.5174C84.9686 62.4786 84.5757 63.4414 84.183 64.4043C83.8682 65.1761 83.5525 65.9474 83.2348 66.718C83.1904 66.8258 83.1904 66.8258 83.145 66.9358C83.0022 67.282 82.8593 67.6282 82.7163 67.9743C82.6639 68.1011 82.6115 68.228 82.5592 68.3548C82.5343 68.4151 82.5094 68.4754 82.4837 68.5376C82.3383 68.8908 82.1969 69.2454 82.0583 69.6015C81.9198 69.9537 81.771 70.293 81.5917 70.6258C81.5665 70.673 81.5413 70.7203 81.5154 70.769C81.2876 71.1904 81.0351 71.5904 80.7589 71.9811C80.7129 72.0467 80.6669 72.1124 80.6195 72.18C80.3062 72.615 79.9676 73.012 79.6032 73.4029C79.4394 73.5783 79.4394 73.5783 79.3005 73.7594C79.1093 73.9996 78.8799 74.1842 78.648 74.3832C78.5853 74.4392 78.5225 74.4951 78.4579 74.5528C77.9364 75.0151 77.3915 75.4169 76.8011 75.7844C76.7572 75.8118 76.7133 75.8392 76.668 75.8675C74.404 77.2596 71.8572 77.8064 69.2352 77.8085C69.1076 77.8089 68.98 77.8094 68.8524 77.8098C68.5875 77.8106 68.3226 77.8109 68.0576 77.8108C67.7187 77.8108 67.3797 77.8126 67.0407 77.8149C66.7783 77.8164 66.516 77.8167 66.2535 77.8166C66.1285 77.8167 66.0034 77.8173 65.8784 77.8184C65.7042 77.8197 65.53 77.8193 65.3558 77.8185C65.3047 77.8192 65.2536 77.82 65.201 77.8208C64.8583 77.8167 64.6645 77.7373 64.4 77.5192C64.2284 77.2903 64.2558 77.0645 64.2681 76.7852C64.4418 76.1294 64.7388 75.4965 65.0021 74.8727C65.1191 74.5956 65.235 74.318 65.3511 74.0404C65.3756 73.9818 65.4001 73.9232 65.4254 73.8629C65.7129 73.1747 65.9944 72.4841 66.2759 71.7934C66.3289 71.6633 66.382 71.5331 66.4351 71.4029C66.5145 71.2081 66.5939 71.0134 66.6732 70.8186C66.9426 70.1576 67.2131 69.4971 67.4838 68.8367C67.5069 68.7803 67.5301 68.7238 67.5539 68.6656C67.893 67.8387 68.2333 67.0122 68.5741 66.186C68.9674 65.2322 69.3574 64.277 69.7472 63.3217C70.0574 62.5614 70.3678 61.8013 70.6812 61.0424C70.8511 60.6309 71.0201 60.2191 71.1888 59.8071C71.2121 59.7501 71.2355 59.6932 71.2595 59.6345C71.3079 59.5162 71.3564 59.3979 71.4048 59.2796C71.4292 59.2201 71.4536 59.1606 71.4787 59.0992C71.503 59.0397 71.5274 58.9802 71.5525 58.9189C71.8613 58.165 72.1717 57.4118 72.4846 56.6596C72.8192 55.8552 73.1474 55.0482 73.4741 54.2404C73.8497 53.3119 74.2299 52.3852 74.6119 51.4593C75.0538 50.3885 75.4937 49.3168 75.9312 48.2441C76.4053 47.0816 76.8806 45.9196 77.361 44.7597C77.4701 44.4956 77.578 44.2311 77.6845 43.9659C77.7339 43.843 77.7838 43.7203 77.8337 43.5976C77.8931 43.4513 77.9519 43.3048 78.0099 43.158C78.2101 42.6691 78.4491 42.2439 78.9119 41.9679C78.9731 41.9301 78.9731 41.9301 79.0356 41.8915C79.3933 41.7139 79.7179 41.6689 80.1123 41.6702Z" fill="#191919"/>
</g>
</g>
<defs>
<clipPath id="clip0_2377_7849">
<rect width="100" height="100" fill="white" transform="translate(0.349854 0.863037)"/>
</clipPath>
<clipPath id="clip1_2377_7849">
<rect width="100" height="53.8462" fill="white" transform="translate(0.349854 23.9399)"/>
</clipPath>
</defs>
</svg>
