<svg width="101" height="101" viewBox="0 0 101 101" fill="none" xmlns="http://www.w3.org/2000/svg">
<g clip-path="url(#clip0_2377_7716)">
<g clip-path="url(#clip1_2377_7716)">
<mask id="mask0_2377_7716" style="mask-type:luminance" maskUnits="userSpaceOnUse" x="0" y="36" width="101" height="30">
<path d="M100.35 36.1963H0.349854V65.5296H100.35V36.1963Z" fill="white"/>
</mask>
<g mask="url(#mask0_2377_7716)">
<path d="M15.3899 36.1963C23.7199 36.1963 30.4399 42.7505 30.4399 50.863C30.4399 58.9754 23.7199 65.5296 15.3899 65.5296C7.08985 65.5394 0.359854 58.9851 0.349854 50.9019C0.349854 50.8922 0.349854 50.8727 0.349854 50.863C0.349854 42.7505 7.06985 36.1963 15.3899 36.1963ZM15.3899 40.1113C9.30985 40.1016 4.36985 44.8931 4.35985 50.8143C4.35985 50.8337 4.35985 50.8435 4.35985 50.863C4.33985 56.7842 9.25985 61.6049 15.3399 61.6146C15.3599 61.6146 15.3699 61.6146 15.3899 61.6146C21.4699 61.6341 26.4199 56.8426 26.4299 50.9214C26.4299 50.9019 26.4299 50.8824 26.4299 50.863C26.4499 44.9418 21.5299 40.121 15.4499 40.1113C15.4299 40.1113 15.4099 40.1113 15.3899 40.1113ZM40.9799 41.9617C41.1799 41.874 41.3799 42.0591 41.3799 42.1662V46.3636H49.4099C49.4999 46.3636 49.7099 46.5681 49.7099 46.6558L50.3099 49.1002L50.9099 51.5447L50.9999 51.8368L51.0899 51.5447L52.5999 46.646C52.5999 46.4513 52.8099 46.3539 52.9099 46.3539H56.9199C57.0099 46.3539 57.2199 46.5584 57.2199 46.646L58.8199 51.8368L58.9199 51.5447L60.2299 46.646C60.2299 46.4513 60.4199 46.3539 60.5299 46.3539H70.7499C70.8499 46.3539 70.9599 46.5584 70.9599 46.646V59.6669C70.9599 59.8616 70.7499 59.959 70.6599 59.959H65.5399C65.3499 59.959 65.2399 59.7642 65.2399 59.6669V47.3472L61.4399 59.6669C61.4399 59.8421 61.2899 59.9395 61.1899 59.959H56.9299C56.8399 59.959 56.6299 59.7642 56.6299 59.6669L55.8299 57.0276L54.9299 54.1839L53.1099 59.6669C53.1099 59.8616 52.9099 59.959 52.8099 59.959H48.5999C48.4999 59.959 48.2999 59.7642 48.2999 59.6669L44.4899 47.3472V50.4734C44.4899 50.6779 44.2799 50.7656 44.1899 50.7656H41.2699V54.0962C41.2699 55.0799 41.7799 55.4694 42.6799 55.4694C43.0799 55.4694 43.5799 55.372 44.0799 55.1675C44.1699 55.0799 44.3799 55.1675 44.3799 55.372V59.2773C43.4799 59.774 42.1799 60.0661 40.7699 60.0661C37.4699 60.0661 35.6599 58.5956 35.6599 55.372V50.7656H34.3499C34.1599 50.7656 34.0499 50.5708 34.0499 50.4734V46.7629C34.0499 46.5681 34.2599 46.4707 34.3499 46.4707H35.6599V43.8218C35.6599 43.627 35.7499 43.5296 35.9599 43.5296L40.9799 41.9617ZM92.7299 46.0715C97.1399 46.0715 100.35 49.295 100.35 53.0152C100.35 56.7257 97.1399 59.959 92.6299 59.959C88.2099 59.959 85.0098 56.7355 85.0098 53.0152C85.0098 49.295 88.2099 46.0715 92.7299 46.0715ZM77.4799 41.9714C77.6898 41.9714 77.7799 42.0688 77.7799 42.1759V59.5695C77.7799 59.774 77.5899 59.8616 77.4799 59.8616H72.3699C72.1699 59.8616 72.0699 59.6669 72.0699 59.5695V42.2538C72.0699 42.0591 72.2699 41.9617 72.3699 41.9617L77.4799 41.9714ZM84.1999 46.3734C84.4099 46.3734 84.4999 46.5779 84.4999 46.6655V59.4818C84.4999 59.6766 84.2999 59.774 84.1999 59.774H79.0899C78.8899 59.774 78.7899 59.5695 78.7899 59.4818V46.646C78.7899 46.4513 78.9899 46.3539 79.0899 46.3539L84.1999 46.3734ZM11.6799 51.457C13.3799 51.457 14.7899 52.8302 14.7899 54.4858C14.7899 56.1511 13.3899 57.5243 11.6799 57.5243C9.96985 57.5243 8.56985 56.1609 8.56985 54.4955C8.57985 52.8205 9.97985 51.457 11.6799 51.457ZM19.1099 51.457C20.7999 51.457 22.2199 52.8302 22.2199 54.4858C22.2199 56.1511 20.8099 57.5243 19.1099 57.5243C17.4099 57.5243 15.9999 56.1609 15.9999 54.4955C15.9999 52.8205 17.4099 51.457 19.1099 51.457ZM92.7299 50.7753C91.4299 50.7753 90.5299 51.8563 90.5299 53.1224C90.5299 54.3981 91.5299 55.4694 92.7299 55.4694C94.0399 55.4694 94.9399 54.3981 94.9399 53.1224C94.9399 51.7492 93.9299 50.6779 92.7299 50.7753ZM19.1099 44.2211C20.7999 44.2211 22.2199 45.5845 22.2199 47.2499C22.2199 48.9152 20.8099 50.2884 19.1099 50.2884C17.4099 50.2884 15.9999 48.9152 15.9999 47.2596C15.9999 45.5845 17.4099 44.2211 19.1099 44.2211ZM11.6799 44.2211C13.3799 44.2211 14.7899 45.5845 14.7899 47.2499C14.7899 48.9152 13.3899 50.2884 11.6799 50.2884C9.96985 50.2884 8.56985 48.9152 8.56985 47.2596C8.57985 45.5845 9.97985 44.2211 11.6799 44.2211ZM70.8599 41.9617C70.9499 41.9617 71.0599 42.0591 71.1599 42.1662V45.2923C71.1599 45.4871 70.9599 45.5845 70.8599 45.5845H65.5399C65.3499 45.5845 65.2399 45.3897 65.2399 45.2923V42.2636C65.2399 42.0591 65.4499 41.9617 65.5399 41.9617H70.8599ZM84.2999 41.9617C84.4999 41.9617 84.5999 42.0591 84.5999 42.1662V45.2923C84.5999 45.4871 84.3999 45.5845 84.2999 45.5845H78.9799C78.7799 45.5845 78.6799 45.3897 78.6799 45.2923V42.2636C78.6799 42.0591 78.8899 41.9617 78.9799 41.9617H84.2999Z" fill="#191919"/>
</g>
</g>
</g>
<defs>
<clipPath id="clip0_2377_7716">
<rect width="100" height="100" fill="white" transform="translate(0.349854 0.863037)"/>
</clipPath>
<clipPath id="clip1_2377_7716">
<rect width="100" height="29.3333" fill="white" transform="translate(0.349854 36.1963)"/>
</clipPath>
</defs>
</svg>
