<svg width="101" height="101" viewBox="0 0 101 101" fill="none" xmlns="http://www.w3.org/2000/svg">
<g clip-path="url(#clip0_2377_7724)">
<g clip-path="url(#clip1_2377_7724)">
<mask id="mask0_2377_7724" style="mask-type:luminance" maskUnits="userSpaceOnUse" x="0" y="35" width="101" height="30">
<path d="M100.35 35.3679H0.349854V64.7013H100.35V35.3679Z" fill="white"/>
</mask>
<g mask="url(#mask0_2377_7724)">
<path d="M15.3899 35.3679C23.7199 35.3679 30.4399 41.9221 30.4399 50.0346C30.4399 58.147 23.7199 64.7013 15.3899 64.7013C7.08985 64.711 0.359854 58.1568 0.349854 50.0735C0.349854 50.0638 0.349854 50.0443 0.349854 50.0346C0.349854 41.9221 7.06985 35.3679 15.3899 35.3679ZM15.3899 39.2829C9.30985 39.2732 4.36985 44.0647 4.35985 49.9859C4.35985 50.0054 4.35985 50.0151 4.35985 50.0346C4.33985 55.9558 9.25985 60.7765 15.3399 60.7862C15.3599 60.7862 15.3699 60.7862 15.3899 60.7862C21.4699 60.8057 26.4199 56.0142 26.4299 50.093C26.4299 50.0735 26.4299 50.0541 26.4299 50.0346C26.4499 44.1134 21.5299 39.2927 15.4499 39.2829C15.4299 39.2829 15.4099 39.2829 15.3899 39.2829ZM40.9799 41.1333C41.1799 41.0457 41.3799 41.2307 41.3799 41.3378V45.5353H49.4099C49.4999 45.5353 49.7099 45.7398 49.7099 45.8274L50.3099 48.2719L50.9099 50.7163L50.9999 51.0085L51.0899 50.7163L52.5999 45.8177C52.5999 45.6229 52.8099 45.5255 52.9099 45.5255H56.9199C57.0099 45.5255 57.2199 45.73 57.2199 45.8177L58.8199 51.0085L58.9199 50.7163L60.2299 45.8177C60.2299 45.6229 60.4199 45.5255 60.5299 45.5255H70.7499C70.8499 45.5255 70.9599 45.73 70.9599 45.8177V58.8385C70.9599 59.0333 70.7499 59.1306 70.6599 59.1306H65.5399C65.3499 59.1306 65.2399 58.9359 65.2399 58.8385V46.5189L61.4399 58.8385C61.4399 59.0138 61.2899 59.1112 61.1899 59.1306H56.9299C56.8399 59.1306 56.6299 58.9359 56.6299 58.8385L55.8299 56.1993L54.9299 53.3555L53.1099 58.8385C53.1099 59.0333 52.9099 59.1306 52.8099 59.1306H48.5999C48.4999 59.1306 48.2999 58.9359 48.2999 58.8385L44.4899 46.5189V49.645C44.4899 49.8495 44.2799 49.9372 44.1899 49.9372H41.2699V53.2679C41.2699 54.2515 41.7799 54.641 42.6799 54.641C43.0799 54.641 43.5799 54.5437 44.0799 54.3391C44.1699 54.2515 44.3799 54.3391 44.3799 54.5437V58.4489C43.4799 58.9456 42.1799 59.2378 40.7699 59.2378C37.4699 59.2378 35.6599 57.7672 35.6599 54.5437V49.9372H34.3499C34.1599 49.9372 34.0499 49.7424 34.0499 49.645V45.9345C34.0499 45.7398 34.2599 45.6424 34.3499 45.6424H35.6599V42.9934C35.6599 42.7986 35.7499 42.7013 35.9599 42.7013L40.9799 41.1333ZM92.7299 45.2431C97.1399 45.2431 100.35 48.4666 100.35 52.1869C100.35 55.8974 97.1399 59.1306 92.6299 59.1306C88.2099 59.1306 85.0098 55.9071 85.0098 52.1869C85.0098 48.4666 88.2099 45.2431 92.7299 45.2431ZM77.4799 41.143C77.6898 41.143 77.7799 41.2404 77.7799 41.3476V58.7411C77.7799 58.9456 77.5899 59.0333 77.4799 59.0333H72.3699C72.1699 59.0333 72.0699 58.8385 72.0699 58.7411V41.4255C72.0699 41.2307 72.2699 41.1333 72.3699 41.1333L77.4799 41.143ZM84.1999 45.545C84.4099 45.545 84.4999 45.7495 84.4999 45.8372V58.6534C84.4999 58.8482 84.2999 58.9456 84.1999 58.9456H79.0899C78.8899 58.9456 78.7899 58.7411 78.7899 58.6534V45.8177C78.7899 45.6229 78.9899 45.5255 79.0899 45.5255L84.1999 45.545ZM11.6799 50.6287C13.3799 50.6287 14.7899 52.0018 14.7899 53.6574C14.7899 55.3228 13.3899 56.6959 11.6799 56.6959C9.96985 56.6959 8.56985 55.3325 8.56985 53.6672C8.57985 51.9921 9.97985 50.6287 11.6799 50.6287ZM19.1099 50.6287C20.7999 50.6287 22.2199 52.0018 22.2199 53.6574C22.2199 55.3228 20.8099 56.6959 19.1099 56.6959C17.4099 56.6959 15.9999 55.3325 15.9999 53.6672C15.9999 51.9921 17.4099 50.6287 19.1099 50.6287ZM92.7299 49.9469C91.4299 49.9469 90.5299 51.0279 90.5299 52.294C90.5299 53.5698 91.5299 54.641 92.7299 54.641C94.0399 54.641 94.9399 53.5698 94.9399 52.294C94.9399 50.9208 93.9299 49.8495 92.7299 49.9469ZM19.1099 43.3927C20.7999 43.3927 22.2199 44.7561 22.2199 46.4215C22.2199 48.0868 20.8099 49.46 19.1099 49.46C17.4099 49.46 15.9999 48.0868 15.9999 46.4312C15.9999 44.7561 17.4099 43.3927 19.1099 43.3927ZM11.6799 43.3927C13.3799 43.3927 14.7899 44.7561 14.7899 46.4215C14.7899 48.0868 13.3899 49.46 11.6799 49.46C9.96985 49.46 8.56985 48.0868 8.56985 46.4312C8.57985 44.7561 9.97985 43.3927 11.6799 43.3927ZM70.8599 41.1333C70.9499 41.1333 71.0599 41.2307 71.1599 41.3378V44.464C71.1599 44.6588 70.9599 44.7561 70.8599 44.7561H65.5399C65.3499 44.7561 65.2399 44.5614 65.2399 44.464V41.4352C65.2399 41.2307 65.4499 41.1333 65.5399 41.1333H70.8599ZM84.2999 41.1333C84.4999 41.1333 84.5999 41.2307 84.5999 41.3378V44.464C84.5999 44.6588 84.3999 44.7561 84.2999 44.7561H78.9799C78.7799 44.7561 78.6799 44.5614 78.6799 44.464V41.4352C78.6799 41.2307 78.8899 41.1333 78.9799 41.1333H84.2999Z" fill="#E4E4E4"/>
</g>
</g>
</g>
<defs>
<clipPath id="clip0_2377_7724">
<rect width="100" height="100" fill="white" transform="translate(0.349854 0.034668)"/>
</clipPath>
<clipPath id="clip1_2377_7724">
<rect width="100" height="29.3333" fill="white" transform="translate(0.349854 35.3679)"/>
</clipPath>
</defs>
</svg>
