<svg width="101" height="101" viewBox="0 0 101 101" fill="none" xmlns="http://www.w3.org/2000/svg">
<path d="M29.2639 84.0695L27.5953 77.9148L25.9055 84.0695C25.7741 84.5363 25.6685 84.8723 25.5887 85.0777C25.5136 85.2784 25.3798 85.4605 25.1874 85.6239C24.995 85.7826 24.7391 85.8619 24.42 85.8619C24.1618 85.8619 23.9482 85.8129 23.7793 85.7149C23.615 85.6215 23.4812 85.4885 23.378 85.3158C23.2747 85.1384 23.1902 84.9307 23.1245 84.6926C23.0588 84.4499 23.0001 84.2259 22.9485 84.0205L21.2306 77.1098C21.1273 76.7084 21.0757 76.4026 21.0757 76.1926C21.0757 75.9265 21.1696 75.7025 21.3573 75.5204C21.5451 75.3383 21.7774 75.2473 22.0543 75.2473C22.4345 75.2473 22.6903 75.3687 22.8218 75.6114C22.9532 75.8541 23.0682 76.2066 23.1667 76.6687L24.5185 82.6621L26.0323 77.0538C26.1449 76.6244 26.2458 76.2976 26.335 76.0736C26.4242 75.8495 26.5697 75.6558 26.7715 75.4924C26.9734 75.3291 27.248 75.2474 27.5953 75.2474C27.9473 75.2474 28.2196 75.3337 28.412 75.5064C28.6091 75.6745 28.7453 75.8588 28.8204 76.0596C28.8955 76.2603 28.9964 76.5917 29.1231 77.0538L30.6509 82.6621L32.0027 76.6687C32.0684 76.3559 32.1295 76.1108 32.1858 75.9335C32.2468 75.7561 32.3477 75.5974 32.4885 75.4574C32.6341 75.3173 32.8429 75.2473 33.1152 75.2473C33.3874 75.2473 33.6174 75.3383 33.8051 75.5204C33.9976 75.6978 34.0938 75.9218 34.0938 76.1926C34.0938 76.3839 34.0422 76.6897 33.9389 77.1098L32.221 84.0205C32.1036 84.4873 32.0051 84.8303 31.9253 85.0497C31.8502 85.2645 31.7188 85.4535 31.531 85.6169C31.3479 85.7803 31.0874 85.8619 30.7495 85.8619C30.4303 85.8619 30.1745 85.7826 29.9821 85.6239C29.7896 85.4652 29.6558 85.2878 29.5807 85.0917C29.5056 84.891 29.4 84.5502 29.2639 84.0695Z" fill="#191919"/>
<path d="M40.3519 82.4456H36.5923C36.597 82.8797 36.6838 83.2625 36.8528 83.5939C37.0264 83.9253 37.2541 84.1751 37.5357 84.3431C37.822 84.5112 38.1365 84.5952 38.4791 84.5952C38.7091 84.5952 38.918 84.5695 39.1057 84.5182C39.2982 84.4622 39.4836 84.3781 39.662 84.2661C39.8403 84.1494 40.0046 84.0257 40.1548 83.895C40.305 83.7643 40.4998 83.5869 40.7392 83.3629C40.8378 83.2789 40.9786 83.2369 41.1616 83.2369C41.3588 83.2369 41.5184 83.2905 41.6404 83.3979C41.7624 83.5053 41.8234 83.657 41.8234 83.853C41.8234 84.0257 41.7554 84.2288 41.6193 84.4622C41.4832 84.6909 41.2766 84.9126 40.9997 85.1273C40.7275 85.3374 40.3825 85.5124 39.9647 85.6525C39.5517 85.7925 39.0752 85.8625 38.5355 85.8625C37.301 85.8625 36.3411 85.5124 35.6559 84.8123C34.9706 84.1121 34.6279 83.1622 34.6279 81.9626C34.6279 81.3978 34.7124 80.875 34.8814 80.3942C35.0504 79.9088 35.2968 79.4933 35.6206 79.1479C35.9445 78.8025 36.3435 78.5388 36.8175 78.3567C37.2916 78.17 37.8173 78.0767 38.3946 78.0767C39.1456 78.0767 39.7887 78.2354 40.3238 78.5528C40.8636 78.8655 41.2672 79.2716 41.5348 79.7711C41.8023 80.2705 41.9361 80.7793 41.9361 81.2975C41.9361 81.7782 41.7976 82.091 41.5207 82.2357C41.2437 82.3757 40.8541 82.4456 40.3519 82.4456ZM36.5923 81.3604H40.0774C40.0305 80.7069 39.8521 80.2191 39.5424 79.897C39.2373 79.5703 38.8336 79.4069 38.3314 79.4069C37.8526 79.4069 37.4583 79.5726 37.1486 79.904C36.8435 80.2308 36.658 80.7162 36.5923 81.3604Z" fill="#191919"/>
<path d="M45.1264 76.3402V79.26C45.4878 78.8865 45.8563 78.6018 46.2318 78.4057C46.6073 78.205 47.072 78.1047 47.6258 78.1047C48.2642 78.1047 48.8227 78.2564 49.3015 78.5598C49.7849 78.8585 50.1581 79.295 50.421 79.8691C50.6885 80.4386 50.8223 81.1154 50.8223 81.8996C50.8223 82.4784 50.7472 83.0106 50.597 83.496C50.4515 83.9768 50.2379 84.3946 49.9563 84.7493C49.6746 85.1041 49.332 85.3795 48.9283 85.5755C48.5294 85.7669 48.0882 85.8626 47.6047 85.8626C47.309 85.8626 47.0297 85.8276 46.7669 85.7576C46.5087 85.6876 46.2881 85.5965 46.105 85.4845C45.922 85.3678 45.7647 85.2488 45.6333 85.1274C45.5066 85.006 45.3376 84.824 45.1264 84.5813V84.7703C45.1264 85.1297 45.0396 85.4028 44.8659 85.5895C44.6922 85.7716 44.4716 85.8626 44.2041 85.8626C43.9318 85.8626 43.7136 85.7716 43.5493 85.5895C43.3897 85.4028 43.3099 85.1297 43.3099 84.7703V76.4243C43.3099 76.0369 43.3874 75.7452 43.5423 75.5491C43.7019 75.3484 43.9225 75.248 44.2041 75.248C44.4998 75.248 44.7274 75.3437 44.887 75.5351C45.0466 75.7218 45.1264 75.9901 45.1264 76.3402ZM45.2179 82.0186C45.2179 82.7794 45.3916 83.3652 45.7389 83.776C46.091 84.1821 46.551 84.3852 47.1189 84.3852C47.6024 84.3852 48.0178 84.1775 48.3651 83.762C48.7171 83.3419 48.8931 82.7421 48.8931 81.9626C48.8931 81.4585 48.8204 81.0244 48.6749 80.6603C48.5294 80.2962 48.3229 80.0161 48.0553 79.8201C47.7878 79.6193 47.4756 79.519 47.1189 79.519C46.7528 79.519 46.4266 79.6193 46.1403 79.8201C45.854 80.0161 45.6287 80.3032 45.4644 80.6813C45.3001 81.0547 45.2179 81.5004 45.2179 82.0186Z" fill="#191919"/>
<path d="M55.32 81.2972H54.5878V84.595C54.5878 85.0291 54.4916 85.3489 54.2991 85.5543C54.1067 85.7596 53.8556 85.8623 53.5458 85.8623C53.2125 85.8623 52.9543 85.755 52.7713 85.5403C52.5882 85.3255 52.4967 85.0104 52.4967 84.595V76.697C52.4967 76.2488 52.5976 75.9244 52.7995 75.7237C53.0013 75.523 53.3275 75.4226 53.7781 75.4226H57.1786C57.648 75.4226 58.0493 75.4436 58.3826 75.4856C58.7159 75.523 59.0163 75.6023 59.2838 75.7237C59.6077 75.8591 59.894 76.0528 60.1428 76.3048C60.3915 76.5569 60.5793 76.851 60.706 77.1871C60.8374 77.5185 60.9031 77.8709 60.9031 78.2443C60.9031 79.0099 60.6849 79.6213 60.2484 80.0788C59.8166 80.5362 59.1594 80.8607 58.277 81.052C58.6478 81.2481 59.0022 81.5375 59.3402 81.9203C59.6781 82.303 59.9785 82.7115 60.2414 83.1456C60.5089 83.575 60.7154 83.9648 60.8609 84.3149C61.0111 84.6603 61.0862 84.8984 61.0862 85.0291C61.0862 85.1644 61.0416 85.2998 60.9525 85.4351C60.868 85.5658 60.7506 85.6685 60.6004 85.7432C60.4502 85.8226 60.2766 85.8623 60.0794 85.8623C59.8447 85.8623 59.6476 85.8062 59.488 85.6942C59.3284 85.5869 59.1899 85.4491 59.0726 85.2811C58.9599 85.1131 58.8051 84.8657 58.6079 84.5389L57.7701 83.1526C57.4697 82.6438 57.1998 82.2564 56.9604 81.9903C56.7257 81.7242 56.4863 81.5422 56.2422 81.4441C55.9982 81.3461 55.6908 81.2972 55.32 81.2972ZM56.5169 76.9842H54.5878V79.8058H56.4606C56.9628 79.8058 57.3853 79.7638 57.7279 79.6798C58.0705 79.5911 58.331 79.444 58.5094 79.2386C58.6925 79.0286 58.784 78.7415 58.784 78.3774C58.784 78.0927 58.7113 77.8429 58.5657 77.6282C58.4202 77.4088 58.2184 77.2454 57.9603 77.1381C57.7162 77.0354 57.235 76.9842 56.5169 76.9842Z" fill="#191919"/>
<path d="M68.8873 77.139H66.6061V84.5958C66.6061 85.0252 66.5099 85.345 66.3174 85.555C66.125 85.7604 65.8762 85.8631 65.5711 85.8631C65.2614 85.8631 65.0079 85.7581 64.8108 85.548C64.6183 85.338 64.5221 85.0206 64.5221 84.5958V77.139H62.2409C61.8842 77.139 61.619 77.062 61.4454 76.9079C61.2717 76.7492 61.1849 76.5415 61.1849 76.2848C61.1849 76.0187 61.2741 75.8087 61.4524 75.6546C61.6355 75.5006 61.8983 75.4236 62.241 75.4236H68.8874C69.2488 75.4236 69.5163 75.5029 69.69 75.6617C69.8683 75.8204 69.9575 76.0281 69.9575 76.2848C69.9575 76.5415 69.8683 76.7492 69.69 76.9079C69.5116 77.062 69.244 77.139 68.8873 77.139Z" fill="#191919"/>
<path d="M79.6241 82.4456C79.6241 82.7724 79.5419 83.1271 79.3776 83.5099C79.218 83.888 78.9646 84.2614 78.6172 84.6302C78.2699 84.9942 77.8263 85.2907 77.2866 85.5194C76.7468 85.7481 76.1178 85.8625 75.3997 85.8625C74.8552 85.8625 74.36 85.8111 73.9141 85.7084C73.4682 85.6057 73.0622 85.447 72.6961 85.2323C72.3347 85.0129 72.0014 84.7258 71.6963 84.3711C71.4241 84.049 71.1917 83.6896 70.9993 83.2928C70.8068 82.8914 70.6613 82.4643 70.5628 82.0115C70.4689 81.5587 70.4219 81.0779 70.4219 80.5691C70.4219 79.7429 70.5416 79.0031 70.781 78.3496C71.0251 77.6961 71.3724 77.1383 71.823 76.6762C72.2736 76.2094 72.8017 75.8546 73.4072 75.6119C74.0127 75.3692 74.6581 75.2478 75.3434 75.2478C76.1789 75.2478 76.9228 75.4135 77.5752 75.7449C78.2277 76.0764 78.7275 76.4871 79.0749 76.9772C79.4222 77.4627 79.5959 77.9225 79.5959 78.3566C79.5959 78.5947 79.5114 78.8047 79.3424 78.9868C79.1734 79.1688 78.9692 79.2598 78.7299 79.2598C78.4623 79.2598 78.2605 79.1968 78.1244 79.0708C77.9929 78.9448 77.8451 78.7277 77.6808 78.4196C77.4086 77.9108 77.087 77.5304 76.7162 77.2783C76.3501 77.0263 75.8972 76.9003 75.3574 76.9003C74.4985 76.9003 73.8132 77.2247 73.3016 77.8735C72.7946 78.5223 72.5412 79.4442 72.5412 80.6392C72.5412 81.4374 72.6538 82.1026 72.8791 82.6347C73.1044 83.1622 73.4236 83.5566 73.8367 83.818C74.2497 84.0794 74.7332 84.2101 75.287 84.2101C75.8878 84.2101 76.3947 84.0631 76.8078 83.769C77.2255 83.4702 77.54 83.0338 77.7512 82.4596C77.8404 82.1889 77.9507 81.9695 78.0821 81.8015C78.2136 81.6288 78.4248 81.5424 78.7158 81.5424C78.9646 81.5424 79.1781 81.6288 79.3565 81.8015C79.5349 81.9742 79.6241 82.1889 79.6241 82.4456Z" fill="#191919"/>
<path d="M53.4961 58.264C53.4961 65.3362 47.7316 71.0698 40.6201 71.0698C33.5076 71.0698 27.7431 65.3362 27.7431 58.264C27.7431 51.1917 33.5076 45.4581 40.6201 45.4581C47.7316 45.4581 53.4961 51.1917 53.4961 58.264Z" fill="#393939"/>
<path d="M78.964 40.3353C78.964 47.4065 73.1995 53.1411 66.088 53.1411C58.9756 53.1411 53.2111 47.4065 53.2111 40.3353C53.2111 33.263 58.9756 27.5285 66.088 27.5285C73.1995 27.5285 78.964 33.263 78.964 40.3353Z" fill="#393939"/>
<path d="M47.4883 40.0523C47.4883 47.1236 41.7238 52.8582 34.6114 52.8582C27.5008 52.8582 21.7354 47.1236 21.7354 40.0523C21.7354 32.9801 27.5008 27.2455 34.6114 27.2455C41.7238 27.2455 47.4883 32.9801 47.4883 40.0523Z" fill="#393939"/>
<path d="M73.2409 58.264C73.2409 65.3362 67.4764 71.0698 60.363 71.0698C53.2525 71.0698 47.487 65.3362 47.487 58.264C47.487 51.1917 53.2525 45.4581 60.363 45.4581C67.4764 45.4581 73.2409 51.1917 73.2409 58.264Z" fill="#393939"/>
<path d="M63.2263 28.6688C63.2263 35.741 57.4608 41.4746 50.3493 41.4746C43.2378 41.4746 37.4724 35.741 37.4724 28.6688C37.4724 21.5965 43.2378 15.8629 50.3493 15.8629C57.4608 15.8629 63.2263 21.5965 63.2263 28.6688Z" fill="#393939"/>
<path d="M53.2114 40.3352C53.2114 40.6046 53.235 40.8684 53.252 41.134C58.9637 39.8236 63.2264 34.7452 63.2264 28.6671C63.2264 28.3976 63.2028 28.1329 63.1858 27.8673C57.4742 29.1787 53.2114 34.2571 53.2114 40.3352Z" fill="#191919"/>
<path d="M54.9115 46.676C57.1307 50.5341 61.3009 53.1409 66.0903 53.1409C68.0424 53.1409 69.8858 52.6959 71.5443 51.9224C69.3261 48.0643 65.1559 45.4575 60.3655 45.4575C58.4134 45.4575 56.57 45.9025 54.9115 46.676Z" fill="#191919"/>
<path d="M47.488 58.2639C47.488 61.3926 48.6189 64.2557 50.4935 66.4795C52.3662 64.2557 53.497 61.3926 53.497 58.2639C53.497 55.1352 52.3662 52.2722 50.4935 50.0484C48.6189 52.2722 47.488 55.1352 47.488 58.2639Z" fill="#191919"/>
<path d="M29.5126 51.8091C31.0766 52.4812 32.7984 52.8577 34.6107 52.8577C39.3529 52.8577 43.4845 50.3016 45.7197 46.5064C44.1556 45.8343 42.433 45.4588 40.6216 45.4588C35.8793 45.4588 31.7468 48.0149 29.5126 51.8091Z" fill="#191919"/>
<path d="M37.5287 27.5872C37.4985 27.9439 37.473 28.3025 37.473 28.6676C37.473 34.7411 41.7292 39.8148 47.4342 41.1309C47.4635 40.7742 47.489 40.4156 47.489 40.0513C47.489 33.9779 43.2338 28.9023 37.5287 27.5872Z" fill="#191919"/>
<path d="M38.7309 56.6783H36.7166C34.9382 56.6783 33.4921 55.2449 33.4921 53.481V35.349C33.4921 33.5851 34.9382 32.1508 36.7166 32.1508H61.9749C63.7533 32.1508 65.1984 33.5851 65.1984 35.349V53.481C65.1984 55.2449 63.7533 56.6783 61.9749 56.6783H53.3701L36.1058 65.0947L38.7309 56.6783Z" fill="#E4E4E4"/>
</svg>
