<svg width="101" height="101" viewBox="0 0 101 101" fill="none" xmlns="http://www.w3.org/2000/svg">
<path d="M29.2639 83.2411L27.5953 77.0865L25.9055 83.2411C25.7741 83.7079 25.6685 84.044 25.5887 84.2493C25.5136 84.4501 25.3798 84.6321 25.1874 84.7955C24.995 84.9542 24.7391 85.0335 24.42 85.0335C24.1618 85.0335 23.9482 84.9845 23.7793 84.8865C23.615 84.7931 23.4812 84.6601 23.378 84.4874C23.2747 84.31 23.1902 84.1023 23.1245 83.8643C23.0588 83.6216 23.0001 83.3975 22.9485 83.1921L21.2306 76.2814C21.1273 75.88 21.0757 75.5743 21.0757 75.3642C21.0757 75.0981 21.1696 74.8741 21.3573 74.692C21.5451 74.51 21.7774 74.4189 22.0543 74.4189C22.4345 74.4189 22.6903 74.5403 22.8218 74.783C22.9532 75.0258 23.0682 75.3782 23.1667 75.8403L24.5185 81.8337L26.0323 76.2255C26.1449 75.796 26.2458 75.4693 26.335 75.2452C26.4242 75.0212 26.5697 74.8274 26.7715 74.6641C26.9734 74.5007 27.248 74.419 27.5953 74.419C27.9473 74.419 28.2196 74.5053 28.412 74.678C28.6091 74.8461 28.7453 75.0305 28.8204 75.2312C28.8955 75.4319 28.9964 75.7633 29.1231 76.2254L30.6509 81.8337L32.0027 75.8403C32.0684 75.5275 32.1295 75.2825 32.1858 75.1051C32.2468 74.9277 32.3477 74.769 32.4885 74.629C32.6341 74.489 32.8429 74.4189 33.1152 74.4189C33.3874 74.4189 33.6174 74.51 33.8051 74.692C33.9976 74.8694 34.0938 75.0935 34.0938 75.3642C34.0938 75.5556 34.0422 75.8613 33.9389 76.2814L32.221 83.1921C32.1036 83.6589 32.0051 84.002 31.9253 84.2214C31.8502 84.4361 31.7188 84.6251 31.531 84.7885C31.3479 84.9519 31.0874 85.0336 30.7495 85.0336C30.4303 85.0336 30.1745 84.9542 29.9821 84.7955C29.7896 84.6368 29.6558 84.4594 29.5807 84.2634C29.5056 84.0627 29.4 83.7219 29.2639 83.2411Z" fill="#E4E4E4"/>
<path d="M40.3519 81.6173H36.5923C36.597 82.0514 36.6838 82.4341 36.8528 82.7656C37.0264 83.097 37.2541 83.3467 37.5357 83.5148C37.822 83.6828 38.1365 83.7668 38.4791 83.7668C38.7091 83.7668 38.918 83.7411 39.1057 83.6898C39.2982 83.6338 39.4836 83.5498 39.662 83.4377C39.8403 83.321 40.0046 83.1974 40.1548 83.0667C40.305 82.936 40.4998 82.7586 40.7392 82.5345C40.8378 82.4505 40.9786 82.4085 41.1616 82.4085C41.3588 82.4085 41.5184 82.4622 41.6404 82.5695C41.7624 82.6769 41.8234 82.8286 41.8234 83.0246C41.8234 83.1973 41.7554 83.4004 41.6193 83.6338C41.4832 83.8625 41.2766 84.0842 40.9997 84.299C40.7275 84.509 40.3825 84.6841 39.9647 84.8241C39.5517 84.9641 39.0752 85.0342 38.5355 85.0342C37.301 85.0342 36.3411 84.6841 35.6559 83.9839C34.9706 83.2837 34.6279 82.3339 34.6279 81.1342C34.6279 80.5694 34.7124 80.0467 34.8814 79.5659C35.0504 79.0804 35.2968 78.665 35.6206 78.3195C35.9445 77.9741 36.3435 77.7104 36.8175 77.5284C37.2916 77.3416 37.8173 77.2483 38.3946 77.2483C39.1456 77.2483 39.7887 77.407 40.3238 77.7244C40.8636 78.0372 41.2672 78.4433 41.5348 78.9427C41.8023 79.4422 41.9361 79.951 41.9361 80.4691C41.9361 80.9499 41.7976 81.2626 41.5207 81.4073C41.2437 81.5474 40.8541 81.6173 40.3519 81.6173ZM36.5923 80.532H40.0774C40.0305 79.8785 39.8521 79.3907 39.5424 79.0687C39.2373 78.7419 38.8336 78.5785 38.3314 78.5785C37.8526 78.5785 37.4583 78.7442 37.1486 79.0757C36.8435 79.4024 36.658 79.8878 36.5923 80.532Z" fill="#E4E4E4"/>
<path d="M45.1264 75.5118V78.4316C45.4878 78.0582 45.8563 77.7734 46.2318 77.5774C46.6073 77.3767 47.072 77.2763 47.6258 77.2763C48.2642 77.2763 48.8227 77.428 49.3015 77.7314C49.7849 78.0302 50.1581 78.4666 50.421 79.0408C50.6885 79.6102 50.8223 80.2871 50.8223 81.0712C50.8223 81.6501 50.7472 82.1822 50.597 82.6676C50.4515 83.1484 50.2379 83.5662 49.9563 83.921C49.6746 84.2757 49.332 84.5511 48.9283 84.7472C48.5294 84.9385 48.0882 85.0342 47.6047 85.0342C47.309 85.0342 47.0297 84.9992 46.7669 84.9292C46.5087 84.8592 46.2881 84.7682 46.105 84.6561C45.922 84.5394 45.7647 84.4204 45.6333 84.299C45.5066 84.1777 45.3376 83.9956 45.1264 83.7529V83.9419C45.1264 84.3013 45.0396 84.5744 44.8659 84.7611C44.6922 84.9432 44.4716 85.0342 44.2041 85.0342C43.9318 85.0342 43.7136 84.9432 43.5493 84.7611C43.3897 84.5744 43.3099 84.3013 43.3099 83.9419V75.596C43.3099 75.2085 43.3874 74.9168 43.5423 74.7208C43.7019 74.52 43.9225 74.4197 44.2041 74.4197C44.4998 74.4197 44.7274 74.5154 44.887 74.7067C45.0466 74.8934 45.1264 75.1617 45.1264 75.5118ZM45.2179 81.1902C45.2179 81.9511 45.3916 82.5369 45.7389 82.9476C46.091 83.3538 46.551 83.5568 47.1189 83.5568C47.6024 83.5568 48.0178 83.3491 48.3651 82.9337C48.7171 82.5136 48.8931 81.9138 48.8931 81.1342C48.8931 80.6301 48.8204 80.196 48.6749 79.8319C48.5294 79.4678 48.3229 79.1878 48.0553 78.9917C47.7878 78.791 47.4756 78.6906 47.1189 78.6906C46.7528 78.6906 46.4266 78.791 46.1403 78.9917C45.854 79.1878 45.6287 79.4748 45.4644 79.8529C45.3001 80.2263 45.2179 80.6721 45.2179 81.1902Z" fill="#E4E4E4"/>
<path d="M55.32 80.4688H54.5878V83.7667C54.5878 84.2008 54.4916 84.5205 54.2991 84.7259C54.1067 84.9313 53.8556 85.034 53.5458 85.034C53.2125 85.034 52.9543 84.9266 52.7713 84.7119C52.5882 84.4972 52.4967 84.1821 52.4967 83.7666V75.8686C52.4967 75.4205 52.5976 75.0961 52.7995 74.8953C53.0013 74.6946 53.3275 74.5942 53.7781 74.5942H57.1786C57.648 74.5942 58.0493 74.6152 58.3826 74.6573C58.7159 74.6946 59.0163 74.774 59.2838 74.8953C59.6077 75.0307 59.894 75.2244 60.1428 75.4765C60.3915 75.7285 60.5793 76.0226 60.706 76.3587C60.8374 76.6901 60.9031 77.0425 60.9031 77.416C60.9031 78.1815 60.6849 78.793 60.2484 79.2504C59.8166 79.7079 59.1594 80.0323 58.277 80.2237C58.6478 80.4197 59.0022 80.7091 59.3402 81.0919C59.6781 81.4746 59.9785 81.8831 60.2414 82.3172C60.5089 82.7466 60.7154 83.1364 60.8609 83.4865C61.0111 83.8319 61.0862 84.07 61.0862 84.2007C61.0862 84.3361 61.0416 84.4714 60.9525 84.6068C60.868 84.7375 60.7506 84.8402 60.6004 84.9149C60.4502 84.9942 60.2766 85.0339 60.0794 85.0339C59.8447 85.0339 59.6476 84.9779 59.488 84.8658C59.3284 84.7585 59.1899 84.6208 59.0726 84.4527C58.9599 84.2847 58.8051 84.0373 58.6079 83.7105L57.7701 82.3242C57.4697 81.8154 57.1998 81.428 56.9604 81.1619C56.7257 80.8959 56.4863 80.7138 56.2422 80.6158C55.9982 80.5178 55.6908 80.4688 55.32 80.4688ZM56.5169 76.1558H54.5878V78.9774H56.4606C56.9628 78.9774 57.3853 78.9354 57.7279 78.8514C58.0705 78.7627 58.331 78.6157 58.5094 78.4103C58.6925 78.2002 58.784 77.9132 58.784 77.549C58.784 77.2643 58.7113 77.0146 58.5657 76.7999C58.4202 76.5805 58.2184 76.4171 57.9603 76.3097C57.7162 76.207 57.235 76.1558 56.5169 76.1558Z" fill="#E4E4E4"/>
<path d="M68.8873 76.3106H66.6061V83.7674C66.6061 84.1969 66.5099 84.5166 66.3174 84.7266C66.125 84.932 65.8762 85.0347 65.5711 85.0347C65.2614 85.0347 65.0079 84.9297 64.8108 84.7197C64.6183 84.5096 64.5221 84.1922 64.5221 83.7674V76.3106H62.2409C61.8842 76.3106 61.619 76.2336 61.4454 76.0796C61.2717 75.9209 61.1849 75.7132 61.1849 75.4564C61.1849 75.1904 61.2741 74.9803 61.4524 74.8263C61.6355 74.6722 61.8983 74.5952 62.241 74.5952H68.8874C69.2488 74.5952 69.5163 74.6746 69.69 74.8333C69.8683 74.992 69.9575 75.1997 69.9575 75.4564C69.9575 75.7132 69.8683 75.9209 69.69 76.0796C69.5116 76.2336 69.244 76.3106 68.8873 76.3106Z" fill="#E4E4E4"/>
<path d="M79.6241 81.6172C79.6241 81.944 79.5419 82.2987 79.3776 82.6815C79.218 83.0596 78.9646 83.433 78.6172 83.8018C78.2699 84.1659 77.8263 84.4623 77.2866 84.691C76.7468 84.9197 76.1178 85.0341 75.3997 85.0341C74.8552 85.0341 74.36 84.9827 73.9141 84.88C73.4682 84.7774 73.0622 84.6186 72.6961 84.4039C72.3347 84.1845 72.0014 83.8975 71.6963 83.5427C71.4241 83.2206 71.1917 82.8612 70.9993 82.4644C70.8068 82.063 70.6613 81.6359 70.5628 81.1831C70.4689 80.7303 70.4219 80.2496 70.4219 79.7408C70.4219 78.9146 70.5416 78.1747 70.781 77.5212C71.0251 76.8677 71.3724 76.3099 71.823 75.8478C72.2736 75.381 72.8017 75.0263 73.4072 74.7835C74.0127 74.5408 74.6581 74.4194 75.3434 74.4194C76.1789 74.4194 76.9228 74.5851 77.5752 74.9166C78.2277 75.248 78.7275 75.6588 79.0749 76.1489C79.4222 76.6343 79.5959 77.0941 79.5959 77.5282C79.5959 77.7663 79.5114 77.9764 79.3424 78.1584C79.1734 78.3404 78.9692 78.4315 78.7299 78.4315C78.4623 78.4315 78.2605 78.3685 78.1244 78.2424C77.9929 78.1164 77.8451 77.8993 77.6808 77.5913C77.4086 77.0825 77.087 76.702 76.7162 76.45C76.3501 76.1979 75.8972 76.0719 75.3574 76.0719C74.4985 76.0719 73.8132 76.3963 73.3016 77.0451C72.7946 77.694 72.5412 78.6159 72.5412 79.8109C72.5412 80.6091 72.6538 81.2743 72.8791 81.8064C73.1044 82.3338 73.4236 82.7282 73.8367 82.9896C74.2497 83.251 74.7332 83.3817 75.287 83.3817C75.8878 83.3817 76.3947 83.2347 76.8078 82.9406C77.2255 82.6419 77.54 82.2054 77.7512 81.6313C77.8404 81.3605 77.9507 81.1412 78.0821 80.9731C78.2136 80.8004 78.4248 80.7141 78.7158 80.7141C78.9646 80.7141 79.1781 80.8004 79.3565 80.9731C79.5349 81.1458 79.6241 81.3605 79.6241 81.6172Z" fill="#E4E4E4"/>
<path d="M53.4961 57.4356C53.4961 64.5078 47.7316 70.2415 40.6201 70.2415C33.5076 70.2415 27.7431 64.5078 27.7431 57.4356C27.7431 50.3634 33.5076 44.6298 40.6201 44.6298C47.7316 44.6298 53.4961 50.3634 53.4961 57.4356Z" fill="#7C7C7C"/>
<path d="M78.964 39.5069C78.964 46.5782 73.1995 52.3127 66.088 52.3127C58.9756 52.3127 53.2111 46.5782 53.2111 39.5069C53.2111 32.4347 58.9756 26.7001 66.088 26.7001C73.1995 26.7001 78.964 32.4347 78.964 39.5069Z" fill="#7C7C7C"/>
<path d="M47.4883 39.2239C47.4883 46.2952 41.7238 52.0298 34.6114 52.0298C27.5008 52.0298 21.7354 46.2952 21.7354 39.2239C21.7354 32.1517 27.5008 26.4171 34.6114 26.4171C41.7238 26.4171 47.4883 32.1517 47.4883 39.2239Z" fill="#7C7C7C"/>
<path d="M73.2409 57.4356C73.2409 64.5078 67.4764 70.2415 60.363 70.2415C53.2525 70.2415 47.487 64.5078 47.487 57.4356C47.487 50.3634 53.2525 44.6298 60.363 44.6298C67.4764 44.6298 73.2409 50.3634 73.2409 57.4356Z" fill="#7C7C7C"/>
<path d="M63.2263 27.8406C63.2263 34.9129 57.4608 40.6465 50.3493 40.6465C43.2378 40.6465 37.4724 34.9129 37.4724 27.8406C37.4724 20.7684 43.2378 15.0348 50.3493 15.0348C57.4608 15.0348 63.2263 20.7684 63.2263 27.8406Z" fill="#7C7C7C"/>
<path d="M53.2114 39.5068C53.2114 39.7762 53.235 40.04 53.252 40.3057C58.9637 38.9952 63.2264 33.9168 63.2264 27.8387C63.2264 27.5693 63.2028 27.3046 63.1858 27.0389C57.4742 28.3503 53.2114 33.4287 53.2114 39.5068Z" fill="#E4E4E4"/>
<path d="M54.9115 45.8476C57.1307 49.7057 61.3009 52.3125 66.0903 52.3125C68.0424 52.3125 69.8858 51.8676 71.5443 51.0941C69.3261 47.236 65.1559 44.6292 60.3655 44.6292C58.4134 44.6292 56.57 45.0741 54.9115 45.8476Z" fill="#E4E4E4"/>
<path d="M47.488 57.4356C47.488 60.5643 48.6189 63.4273 50.4935 65.6511C52.3662 63.4273 53.497 60.5643 53.497 57.4356C53.497 54.3068 52.3662 51.4438 50.4935 49.22C48.6189 51.4438 47.488 54.3068 47.488 57.4356Z" fill="#E4E4E4"/>
<path d="M29.5126 50.9808C31.0766 51.6529 32.7984 52.0293 34.6107 52.0293C39.3529 52.0293 43.4845 49.4732 45.7197 45.678C44.1556 45.0059 42.433 44.6304 40.6216 44.6304C35.8793 44.6304 31.7468 47.1865 29.5126 50.9808Z" fill="#E4E4E4"/>
<path d="M37.5287 26.7588C37.4985 27.1155 37.473 27.4741 37.473 27.8393C37.473 33.9127 41.7292 38.9864 47.4342 40.3025C47.4635 39.9458 47.489 39.5872 47.489 39.223C47.489 33.1495 43.2338 28.0739 37.5287 26.7588Z" fill="#E4E4E4"/>
<path d="M38.7309 55.8497H36.7166C34.9382 55.8497 33.4921 54.4163 33.4921 52.6524V34.5203C33.4921 32.7565 34.9382 31.3222 36.7166 31.3222H61.9749C63.7533 31.3222 65.1984 32.7565 65.1984 34.5203V52.6524C65.1984 54.4163 63.7533 55.8497 61.9749 55.8497H53.3701L36.1058 64.2661L38.7309 55.8497Z" fill="#191919"/>
</svg>
