<svg width="101" height="101" viewBox="0 0 101 101" fill="none" xmlns="http://www.w3.org/2000/svg">
<g clip-path="url(#clip0_2336_10270)">
<path d="M29.1384 42.6213C29.1384 43.8612 29.2718 44.8663 29.5044 45.6034C29.7999 46.4326 30.1555 47.2388 30.5685 48.0155C30.7349 48.2834 30.8012 48.5514 30.8012 48.7862C30.8012 49.1209 30.6019 49.4561 30.1695 49.7912L28.0743 51.1983C27.775 51.3994 27.4756 51.4998 27.2092 51.4998C26.8769 51.4998 26.5442 51.3322 26.2114 51.0307C25.7629 50.5459 25.3621 50.0186 25.0144 49.4561C24.6817 48.8869 24.3489 48.2498 23.9833 47.4795C21.3888 50.5615 18.1294 52.1027 14.2051 52.1029C11.4115 52.1029 9.18295 51.2986 7.55312 49.6908C5.92368 48.0823 5.09229 45.9381 5.09229 43.2581C5.09229 40.4104 6.09004 38.0987 8.11889 36.3565C10.1474 34.6144 12.8416 33.7433 16.2673 33.7433C17.398 33.7433 18.5621 33.8437 19.7926 34.0112C21.0234 34.1788 22.2871 34.4468 23.6176 34.7484V32.3027C23.6176 29.7562 23.0852 27.9808 22.0541 26.9421C20.99 25.9035 19.1938 25.4007 16.6329 25.4007C15.4688 25.4007 14.2718 25.5351 13.041 25.8367C11.8101 26.1383 10.6131 26.5066 9.44897 26.9757C8.91694 27.2101 8.51791 27.3441 8.28486 27.4113C8.0518 27.4785 7.88583 27.5117 7.75283 27.5117C7.2871 27.5117 7.05444 27.1765 7.05444 26.473V24.8312C7.05444 24.2953 7.12114 23.8933 7.2871 23.659C7.45346 23.4242 7.75283 23.1898 8.21855 22.9555C9.38253 22.3521 10.7793 21.8495 12.4089 21.4477C14.0391 21.0121 15.7686 20.8113 17.5977 20.8113C21.5558 20.8113 24.4494 21.7156 26.3119 23.525C28.141 25.334 29.0725 28.0812 29.0725 31.7667V42.6213H29.1384ZM15.6352 47.7139C16.733 47.7139 17.8637 47.5131 19.0608 47.1108C20.2583 46.7088 21.3227 45.9717 22.2204 44.9667C22.7528 44.3303 23.1519 43.6268 23.3512 42.8225C23.5509 42.0186 23.6839 41.0467 23.6839 39.9077V38.5007C22.6752 38.2535 21.6537 38.0634 20.6239 37.9311C19.587 37.7986 18.5429 37.7314 17.4977 37.73C15.2691 37.73 13.6397 38.1655 12.5423 39.0702C11.4449 39.9749 10.9124 41.2479 10.9124 42.9229C10.9124 44.4975 11.3115 45.6702 12.1429 46.4745C12.9413 47.3119 14.1054 47.7139 15.6352 47.7139ZM42.3422 51.3322C41.7435 51.3322 41.3445 51.2318 41.0784 50.9971C40.8124 50.7963 40.5794 50.3272 40.3801 49.6908L32.5644 23.793C32.3643 23.1226 32.2647 22.6871 32.2647 22.4527C32.2647 21.9168 32.5307 21.6148 33.0631 21.6148H36.3224C36.954 21.6148 37.3868 21.7156 37.6195 21.95C37.8855 22.1512 38.0852 22.6203 38.2845 23.2566L43.872 45.4358L49.0605 23.2566C49.2268 22.5867 49.4265 22.1512 49.6922 21.95C49.9586 21.7492 50.4243 21.6152 51.023 21.6152H53.6836C54.3152 21.6152 54.748 21.7156 55.0136 21.95C55.28 22.1512 55.5127 22.6203 55.6457 23.2566L60.9009 45.7038L66.6543 23.2566C66.8536 22.5867 67.0867 22.1512 67.3194 21.95C67.5854 21.7492 68.0178 21.6152 68.6165 21.6152H71.7094C72.2418 21.6152 72.5412 21.8832 72.5412 22.4527C72.5412 22.6203 72.5078 22.7879 72.4745 22.9887C72.4411 23.1894 72.3748 23.4578 72.2418 23.8265L64.2261 49.724C64.0268 50.3944 63.794 50.8299 63.5277 51.0307C63.2617 51.2318 62.8293 51.3658 62.2643 51.3658H59.4041C58.772 51.3658 58.3396 51.2654 58.0732 51.0307C57.8072 50.7963 57.5745 50.3608 57.4415 49.6908L52.286 28.0812L47.1642 49.6569C46.9983 50.3272 46.7986 50.7627 46.5325 50.9971C46.2665 51.2318 45.8008 51.3322 45.2025 51.3322H42.3422ZM85.08 52.2369C83.3505 52.2369 81.621 52.0357 79.9582 51.6338C78.295 51.2318 76.9983 50.7959 76.1336 50.294C75.6011 49.992 75.2351 49.6572 75.1025 49.3557C74.9731 49.0599 74.9052 48.7406 74.9028 48.4174V46.7088C74.9028 46.0053 75.1688 45.6702 75.6678 45.6702C75.8715 45.6709 76.0737 45.705 76.2666 45.7709C76.4659 45.8381 76.7653 45.9717 77.098 46.1057C78.2726 46.6265 79.4989 47.0196 80.7563 47.2784C82.0591 47.5444 83.385 47.6791 84.7143 47.6803C86.8095 47.6803 88.4393 47.3119 89.5701 46.5748C90.7008 45.8377 91.2996 44.7659 91.2996 43.392C91.2996 42.4542 91.0002 41.6835 90.4015 41.0467C89.8027 40.41 88.672 39.8409 87.0425 39.3046L82.2197 37.7972C79.7919 37.0265 77.9961 35.8874 76.8983 34.3796C75.8009 32.9054 75.2355 31.264 75.2355 29.5218C75.2355 28.1148 75.5348 26.8751 76.1336 25.8027C76.7319 24.7308 77.5303 23.793 78.5281 23.0558C79.5258 22.2851 80.6566 21.7156 81.9871 21.3137C83.3172 20.9117 84.7139 20.7441 86.1774 20.7441C86.9091 20.7441 87.6742 20.7777 88.406 20.8781C89.1711 20.9785 89.8694 21.1125 90.5678 21.2465C91.2329 21.4141 91.8649 21.5816 92.4637 21.7828C93.0621 21.9836 93.5277 22.1845 93.8604 22.3855C94.3262 22.6539 94.6585 22.9219 94.8582 23.2234C95.0578 23.4914 95.1576 23.8599 95.1576 24.3289V25.9035C95.1576 26.607 94.8915 26.9757 94.3925 26.9757C94.1265 26.9757 93.6941 26.8414 93.1291 26.5734C91.2327 25.7023 89.1041 25.2668 86.7432 25.2668C84.8473 25.2668 83.3505 25.5683 82.3194 26.205C81.2887 26.8414 80.7563 27.8132 80.7563 29.1867C80.7563 30.1249 81.089 30.9288 81.754 31.5656C82.4191 32.2023 83.6499 32.8386 85.4127 33.4081L90.1354 34.9159C92.53 35.6866 94.2595 36.7585 95.2906 38.1319C96.3217 39.5054 96.8207 41.0803 96.8207 42.8225C96.8207 44.2631 96.521 45.5698 95.9556 46.7088C95.3573 47.8479 94.5588 48.853 93.5277 49.6572C92.4966 50.4947 91.2662 51.0979 89.8361 51.5334C88.3393 52.0025 86.7761 52.2369 85.08 52.2369Z" fill="#191919"/>
<path d="M91.3663 68.5188C80.4244 76.6602 64.5263 80.982 50.8571 80.982C31.6997 80.982 14.4386 73.8457 1.40112 61.9856C0.370017 61.0477 1.30107 59.7747 2.53149 60.5114C16.6334 68.7536 34.028 73.7453 52.0212 73.7453C64.1606 73.7453 77.4975 71.1993 89.7702 65.9727C91.5994 65.1348 93.1625 67.179 91.3663 68.5188ZM95.9231 63.2923C94.5263 61.4833 86.6769 62.4212 83.1183 62.8567C82.0539 62.9911 81.8875 62.0528 82.8523 61.3493C89.1048 56.9267 99.3821 58.2001 100.579 59.6739C101.777 61.1817 100.246 71.534 94.3929 76.4926C93.4952 77.2633 92.6305 76.8613 93.0295 75.8563C94.3596 72.5391 97.3199 65.068 95.9231 63.2923Z" fill="#191919"/>
</g>
<defs>
<clipPath id="clip0_2336_10270">
<rect width="100" height="100" fill="white" transform="translate(0.958008 0.863098)"/>
</clipPath>
</defs>
</svg>
