<svg width="101" height="101" viewBox="0 0 101 101" fill="none" xmlns="http://www.w3.org/2000/svg">
<g clip-path="url(#clip0_2336_10300)">
<path d="M51.0229 85.4746C52.1541 85.4746 53.2668 85.1631 54.2502 84.5694L77.1592 70.7673C79.2072 69.5322 80.4752 67.2123 80.4752 64.7055V37.3247C80.4752 34.8252 79.2072 32.5017 77.1592 31.2629L54.2502 17.4608C52.2798 16.2734 49.7586 16.2807 47.7993 17.4608L24.8903 31.2702C22.8423 32.5053 21.5669 34.8252 21.5669 37.332V64.7092C21.5669 66.8202 22.4726 68.8065 23.9883 70.1149V70.1259L47.7993 84.5767C48.7752 85.1631 49.8916 85.4746 51.0229 85.4746ZM51.2631 19.121C51.984 19.121 52.9008 19.5645 53.533 19.9493L75.9947 33.5791C77.381 34.4147 78.1647 36.8336 78.1647 38.5744L77.9318 64.7055C77.9318 66.4463 76.7488 68.0113 75.3625 68.8469L53.0339 82.1798C51.7659 82.9458 50.7345 82.9458 49.4628 82.1798L26.8348 68.8139C25.4485 67.9783 24.3321 66.439 24.3321 64.7055V37.7168C24.3321 35.9797 25.3413 34.1875 26.735 33.3483L49.1301 19.9493C49.7586 19.5681 50.5423 19.121 51.2631 19.121Z" fill="#191919"/>
<path fill-rule="evenodd" clip-rule="evenodd" d="M53.9431 20.4329C53.0374 19.8831 52.0319 19.6083 51.0227 19.6083C50.0134 19.6083 49.0079 19.8868 48.1022 20.4329L27.3522 33.0146C25.4964 34.1397 24.3467 36.247 24.3467 38.5376V63.4956C24.3467 65.7789 25.4927 67.8935 27.3522 69.0187L48.1022 81.6004C49.0079 82.1501 50.0134 82.425 51.0227 82.425C52.0319 82.425 53.0374 82.1538 53.9431 81.6004L74.6932 69.0187C76.549 67.8935 77.6987 65.7789 77.6987 63.4956V38.5376C77.6987 36.2544 76.5527 34.147 74.6932 33.0146L53.9431 20.4329Z" fill="#191919"/>
<path fill-rule="evenodd" clip-rule="evenodd" d="M51.0228 20.1471C51.6438 20.1471 52.3425 20.466 53.1041 20.9241L74.7192 33.9492C76.0685 34.7628 76.9595 36.3278 76.9595 38.0979V63.9281C76.9595 65.6946 76.0685 67.2632 74.7192 68.0768L53.1077 81.1019C52.3832 81.5381 51.6734 81.8129 51.0265 81.8129C50.3795 81.8129 49.6697 81.5381 48.9452 81.1019L27.3264 68.0805C26.5833 67.6297 26.0473 67.1899 25.685 66.5998C25.3227 66.0134 25.0861 65.1998 25.0861 63.9318V38.1016C25.0861 36.3314 25.9771 34.7665 27.3264 33.9529L48.9378 20.9278C49.7104 20.4697 50.398 20.1471 51.0228 20.1471ZM53.873 82.359L75.4844 69.3339C77.3033 68.2381 78.4345 66.1784 78.4345 63.9318V38.1016C78.4345 35.855 77.3033 33.7953 75.4844 32.6995L53.873 19.6744C53.093 19.2052 52.0911 18.6812 51.0228 18.6812C49.9507 18.6812 48.9489 19.2089 48.1762 19.6707H48.1725L26.5575 32.6995C24.7386 33.7953 23.6074 35.855 23.6074 38.1016V63.9318C23.6074 65.3831 23.881 66.4789 24.4207 67.3621C24.9604 68.2417 25.722 68.8281 26.5575 69.3302L48.1688 82.3553C48.9895 82.8501 49.9766 83.2826 51.0191 83.2826C52.0616 83.2826 53.0523 82.8538 53.873 82.359Z" fill="#393939"/>
<path d="M34.2212 51.3336L34.1952 59.677L50.7737 69.3278L67.2886 59.7962V52.1328H67.88V59.9651C67.8799 60.0694 67.8239 60.1657 67.7331 60.2181L50.9217 69.9212C50.8294 69.9745 50.7152 69.9741 50.6232 69.9205L33.7494 60.0975C33.6587 60.0447 33.6032 59.948 33.6035 59.8438L33.6299 51.3314L34.2212 51.3336Z" fill="#636363"/>
<path d="M50.5918 30.6969C50.6758 30.6625 50.772 30.668 50.8521 30.7137L67.7226 40.3577C67.8142 40.4101 67.8706 40.507 67.8706 40.6118V44.5932H67.2793V40.7811L50.7044 31.306L34.2476 40.7224V44.1311H33.6562V40.5535L33.6588 40.5145C33.6708 40.4251 33.7242 40.3452 33.8043 40.2994L50.5564 30.7137L50.5918 30.6969Z" fill="#636363"/>
<path d="M65.7081 56.0457V58.7192C65.7081 58.8236 65.6522 58.9201 65.5612 58.9726L61.0958 61.5488L60.7983 61.042L65.1168 58.5503V56.0457H65.7081Z" fill="#BCBCBC"/>
<path d="M50.6052 33.211C50.6889 33.1769 50.7847 33.1826 50.8644 33.2278L56.4417 36.3859L56.2952 36.6408L56.1482 36.8952L50.7179 33.8201L45.1593 36.989L44.8647 36.4808L50.5702 33.2282L50.6052 33.211Z" fill="#DADADA"/>
<path d="M36.3701 56.2736V58.4539L39.9218 60.5222L39.6222 61.0279L35.9247 58.8748C35.8343 58.8221 35.7788 58.726 35.7788 58.6221V56.2736H36.3701Z" fill="#BCBCBC"/>
<path d="M50.6081 35.8683C50.6921 35.8341 50.7884 35.8398 50.8684 35.8855L53.3817 37.3232L53.0861 37.8311L50.7203 36.4782L48.4633 37.7695L48.168 37.2616L50.5727 35.8855L50.6081 35.8683Z" fill="#BCBCBC"/>
<path d="M57.7353 40.3092C56.2333 40.1839 54.7321 40.5584 53.4689 41.3737C52.2057 42.1889 51.2525 43.3984 50.7602 44.8108C50.26 43.3976 49.3008 42.189 48.0332 41.3743C46.7655 40.5597 45.261 40.1851 43.7555 40.3092C37.4561 40.7971 37.1117 46.9804 37.1936 49.345C37.2363 51.0364 37.5709 56.3674 50.5831 65.6308L50.698 65.7089L50.8128 65.6308C63.8872 56.3674 64.2221 50.942 64.2646 49.1888C64.3892 46.886 64.035 40.7971 57.7353 40.3092Z" fill="#636363"/>
<path d="M43.2112 38.2488C43.8017 38.2005 44.3372 38.1716 44.8949 38.2162C45.6036 38.2729 46.3334 38.4459 47.2769 38.8172L47.4686 38.8937L47.4856 38.9013C48.5948 39.4081 49.696 39.9624 50.7484 41.243C51.1105 40.7914 51.4725 40.4219 51.8831 40.0963C52.4325 39.6606 53.0514 39.3172 53.8373 38.9567L53.99 38.8884C55.4599 38.2452 56.7386 38.1385 58.299 38.2413L58.6261 38.2656L58.6582 38.2692L58.9748 38.3218C62.2032 38.9089 64.1254 40.795 65.2164 42.8747C66.3303 44.9982 66.5813 47.3243 66.5208 48.7053L66.5211 48.7056C66.4883 49.7597 66.4098 51.8873 64.4254 55.0921C62.453 58.2775 58.6099 62.509 51.1011 67.8287L51.0979 67.8309L50.9665 67.9221C50.8072 68.0329 50.5951 68.0329 50.4358 67.9221L50.3044 67.8312L50.3004 67.828C42.8266 62.5085 39.0012 58.297 37.0389 55.1407C35.0645 51.965 34.9875 49.8748 34.9598 48.8535L34.9602 48.8531C34.9057 47.479 34.9342 45.1654 35.9107 43.0322C36.9037 40.8632 38.8612 38.9176 42.5639 38.3061L42.5996 38.3014L43.2112 38.2488ZM44.8206 39.1296C44.176 39.0781 43.5636 39.1374 42.6985 39.2126C39.3226 39.7751 37.6214 41.5124 36.7523 43.4108C35.9221 45.2243 35.8379 47.2173 35.8746 48.5628L35.8837 48.823V48.8288C35.9085 49.7428 35.9613 51.6615 37.8256 54.6601C39.6902 57.6592 43.3782 61.7544 50.7011 66.9848C58.0584 61.7541 61.7634 57.6398 63.6377 54.6128C65.5117 51.5864 65.5676 49.6302 65.5973 48.6774L65.5976 48.6713C65.654 47.4103 65.4201 45.2486 64.3966 43.2974C63.3849 41.3689 61.6062 39.6473 58.5315 39.1772C56.9687 39.0516 55.813 39.1202 54.4929 39.6711L54.2253 39.7885C53.4725 40.1338 52.928 40.4408 52.4604 40.8117C51.9947 41.1811 51.5874 41.6277 51.1268 42.2695C51.0398 42.3906 50.8991 42.4624 50.7491 42.462C50.5992 42.4616 50.4585 42.3893 50.3722 42.2677C49.3497 40.8259 48.2966 40.2809 47.1101 39.7384C46.1397 39.3418 45.4562 39.1804 44.8206 39.1296Z" fill="#E4E4E4"/>
<path d="M55.1671 36.5227C56.3766 36.2964 57.2228 36.2022 58.0523 36.2389C58.7764 36.271 59.4746 36.4023 60.3744 36.6158L60.7729 36.7124L60.8029 36.721L61.0939 36.8252C64.0647 37.9328 65.9395 40.0326 67.0578 42.2374C68.2085 44.506 68.5663 46.8992 68.5001 48.4813C68.4649 49.674 68.4605 51.9873 66.2672 55.5442C64.0824 59.0872 59.7356 63.8505 51.0595 69.9966L51.0559 69.9992L50.905 70.1033C50.7844 70.1864 50.6244 70.1864 50.5039 70.1033L50.353 69.9992C50.3515 69.9982 50.3501 69.9969 50.3486 69.9959C41.7133 63.8495 37.4676 59.1081 35.376 55.5954C34.3288 53.8367 33.8219 52.3866 33.5749 51.225C33.3282 50.065 33.3432 49.1997 33.3286 48.6485L33.329 48.6481C33.265 47.0783 33.2395 44.7044 34.1832 42.4382C35.1367 40.1482 37.0666 37.9976 40.8424 36.8696L40.8648 36.8638L41.2186 36.7851C42.916 36.4184 44.4356 36.2704 46.4511 36.6727L46.6613 36.7164L46.662 36.7167L46.9486 36.7822C48.29 37.1054 49.2864 37.5898 50.7497 38.5771C52.0766 37.5646 53.1811 37.086 55.1353 36.5303L55.1671 36.5227ZM58.0209 36.9343C57.2739 36.9013 56.4927 36.9838 55.3126 37.2042C53.3285 37.7694 52.3067 38.2337 50.9822 39.2804C50.861 39.3761 50.6909 39.3821 50.5635 39.2947C48.9245 38.1698 47.9532 37.7093 46.5125 37.3967V37.3971C44.3886 36.9407 42.8709 37.1193 41.0316 37.5403C37.4672 38.6088 35.7043 40.6097 34.8323 42.7041C34.0055 44.6898 33.9685 46.7859 34.0196 48.3249L34.0308 48.6252V48.6302L34.0409 49.1009C34.054 49.6159 34.0891 50.2675 34.2622 51.0815C34.4927 52.1653 34.9704 53.5447 35.9807 55.2414C37.9999 58.6326 42.1486 63.2947 50.7046 69.3918C59.3025 63.2941 63.5552 58.6077 65.6683 55.1809C67.7745 51.7651 67.7648 49.5876 67.7983 48.4566V48.4524L67.8051 48.1675C67.815 46.6967 67.4555 44.5712 66.4304 42.5502C65.3424 40.4052 63.5127 38.3913 60.5881 37.3842C59.5015 37.1172 58.7696 36.9675 58.0209 36.9343Z" fill="#BCBCBC"/>
<path d="M63.3689 44.1315C63.8942 46.2372 63.7204 48.4546 62.8735 50.4546C61.4661 53.6129 58.4148 56.1435 53.9625 58.0071C53.7608 57.7902 53.5147 57.6183 53.2407 57.5032C52.9645 57.3874 52.6678 57.328 52.368 57.3273C51.9368 57.3273 51.515 57.4515 51.154 57.6853C50.7958 57.9195 50.515 58.2534 50.3469 58.6448C50.1779 59.0384 50.1289 59.4727 50.2058 59.8938C50.2872 60.3135 50.4888 60.7005 50.7866 61.0094C51.0828 61.318 51.4657 61.5309 51.8857 61.6211C52.3048 61.7164 52.7432 61.6823 53.1422 61.5232C53.5426 61.3708 53.8884 61.1036 54.1359 60.7565C54.3835 60.4091 54.5217 59.9968 54.5332 59.5717C58.0089 58.1383 61.0525 55.8393 63.3689 52.8975C64.1215 51.2879 64.4184 49.5058 64.2284 47.7419C64.1437 46.4998 63.8532 45.2801 63.3689 44.1315Z" fill="#E4E4E4"/>
<path d="M47.2135 57.0054L46.5901 57.6332C42.2068 53.3493 40.8157 49.9472 42.653 48.1777C44.4903 46.4083 47.873 47.7842 52.2202 52.0809L51.5935 52.7087C51.5144 52.7853 51.4519 52.8773 51.4098 52.9788C51.3661 53.0814 51.3448 53.1925 51.3475 53.3039C51.343 53.4157 51.3643 53.5267 51.4098 53.6293C51.4519 53.7316 51.5144 53.8247 51.5935 53.9024C51.6709 53.9808 51.7635 54.0427 51.8658 54.0845C51.9696 54.1285 52.0811 54.1516 52.1939 54.1527C52.307 54.1545 52.4191 54.131 52.522 54.0845C52.6247 54.0435 52.7176 53.9815 52.7944 53.9024L53.9755 52.7314C54.1269 52.5742 54.2114 52.3651 54.2114 52.1476C54.2114 51.9302 54.1269 51.721 53.9755 51.5637L53.3849 50.9782C50.4321 48.0508 45.4123 44.4729 42.2298 46.5904C41.3335 45.7586 40.7677 44.6357 40.6353 43.4256C40.5315 42.5062 40.794 41.5831 41.3669 40.8528C40.4504 41.2538 39.6422 41.8633 39.0079 42.632C38.8768 43.5905 38.9977 44.5664 39.3589 45.465C39.7238 46.3603 40.3188 47.1453 41.0847 47.7418C39.0079 50.9002 42.5808 55.8734 45.537 58.8009L46.1275 59.4027C46.285 59.5551 46.4964 59.6402 46.7165 59.6402C46.9365 59.6402 47.1478 59.5551 47.3054 59.4027L48.5029 58.2152C48.6543 58.058 48.7388 57.8491 48.7388 57.6314C48.7388 57.4141 48.6543 57.2052 48.5029 57.0476C48.4284 56.9571 48.3357 56.8827 48.2306 56.8299C48.1275 56.7812 48.0163 56.7511 47.9025 56.7419C47.7845 56.7379 47.667 56.7588 47.558 56.8039C47.4261 56.8369 47.3065 56.9069 47.2135 57.0054Z" fill="#E4E4E4"/>
<path d="M50.6053 28.346C50.6842 28.3138 50.7743 28.3192 50.8494 28.3621L69.7903 39.1869C69.8762 39.2359 69.9289 39.3267 69.929 39.4249V61.146C69.929 61.2438 69.8767 61.3344 69.7914 61.3836L50.9194 72.2764C50.8329 72.3263 50.726 72.3263 50.6396 72.276L31.6954 61.2498C31.6104 61.2003 31.5583 61.1095 31.5586 61.0118L31.6275 39.359L31.6301 39.3225C31.6416 39.239 31.6914 39.1645 31.7662 39.1217L50.5725 28.3621L50.6053 28.346ZM32.1813 39.5187L32.1135 60.8554L50.7804 71.7202L69.3744 60.9881V39.5838L50.7107 28.9172L32.1813 39.5187Z" fill="#393939"/>
</g>
<defs>
<clipPath id="clip0_2336_10300">
<rect width="66.9118" height="70" fill="white" transform="translate(17.502 15.863)"/>
</clipPath>
</defs>
</svg>
