<svg width="101" height="101" viewBox="0 0 101 101" fill="none" xmlns="http://www.w3.org/2000/svg">
<g clip-path="url(#clip0_2336_10352)">
<path d="M14.8811 32.3073C14.9192 32.3073 14.9573 32.3073 14.9965 32.3073C15.8789 33.8635 16.7349 35.4544 17.3627 37.1323C17.4687 36.9444 17.516 36.7647 17.5611 36.5545C17.5758 36.486 17.5906 36.4176 17.6057 36.3471C17.6208 36.2756 17.6358 36.2042 17.6513 36.1306C17.6663 36.0612 17.6813 35.9918 17.6968 35.9203C17.7841 35.5105 17.8563 35.1026 17.9094 34.687C17.9195 34.6409 17.9295 34.5949 17.9398 34.5474C17.9779 34.5285 18.016 34.5095 18.0553 34.49C18.0246 34.83 17.9938 35.1699 17.963 35.5099C17.9525 35.625 17.9421 35.7401 17.9318 35.8552C17.9217 35.9671 17.9115 36.0789 17.9014 36.1907C17.8912 36.3024 17.8812 36.4142 17.8713 36.526C17.8473 36.7922 17.8204 37.0571 17.7849 37.322C17.7169 37.8396 17.6862 38.2437 17.8821 38.7406C17.9208 38.8525 17.959 38.9645 17.9967 39.0767C18.0259 39.1628 18.0259 39.1628 18.0558 39.2507C19.2636 43.0382 18.5897 46.9642 16.7964 50.4334C16.4787 51.0374 16.1266 51.6146 15.7468 52.1817C15.7204 52.2211 15.694 52.2606 15.6668 52.3012C15.4058 52.6885 15.1361 53.069 14.8591 53.4452C13.816 54.8649 12.803 56.3444 12.0456 57.9369C11.9974 58.0367 11.9468 58.1355 11.8961 58.2341C11.4309 59.1642 11.0447 60.226 10.899 61.2574C10.89 61.3209 10.89 61.3209 10.8808 61.3857C10.5405 63.9102 11.3057 66.3224 12.3361 68.605C12.3595 68.6569 12.3828 68.7087 12.4069 68.7621C12.4278 68.8077 12.4487 68.8533 12.4702 68.9003C12.5149 69.0119 12.5149 69.0119 12.5149 69.1267C11.4227 68.6233 10.3936 67.5742 9.51388 66.7717C9.48193 66.7428 9.44998 66.7139 9.41706 66.6841C8.68376 66.0203 8.68376 66.0203 8.39887 65.6796C8.28233 65.5423 8.15859 65.4129 8.03501 65.2818C7.38965 64.5751 6.83854 63.795 6.33972 62.9806C6.30492 62.9239 6.30492 62.9239 6.26941 62.866C5.36445 61.3733 4.72955 59.5691 4.71003 57.8132C4.70918 57.7495 4.70918 57.7495 4.70831 57.6845C4.68116 55.1204 5.35659 52.9092 6.51285 50.6308C6.53495 50.5867 6.55705 50.5426 6.57981 50.4972C7.40978 48.8591 8.57084 47.3188 9.73955 45.9077C9.91085 45.7006 10.0771 45.4899 10.2425 45.2781C10.446 45.0181 10.6548 44.7639 10.8701 44.5134C11.1688 44.1655 11.4538 43.8083 11.7356 43.4467C11.8276 43.3292 11.9205 43.2123 12.0135 43.0956C12.8102 42.092 13.5343 41.0479 14.1886 39.9469C14.2231 39.8888 14.2231 39.8888 14.2584 39.8297C15.6079 37.5333 15.6363 35.2196 14.9965 32.7093C14.9597 32.5747 14.9211 32.441 14.8811 32.3073Z" fill="#191919"/>
<path d="M19.9025 42.819C20.0532 42.962 20.1753 43.0987 20.283 43.276C20.31 43.3203 20.3369 43.3646 20.3647 43.4102C20.3931 43.4579 20.4215 43.5057 20.4507 43.5549C20.4959 43.6306 20.4959 43.6306 20.542 43.7079C22.4546 46.9494 23.5131 50.5717 23.4987 54.3394C23.4986 54.3969 23.4985 54.4543 23.4983 54.5135C23.4955 55.4499 23.4564 56.3678 23.3075 57.294C23.2926 57.3871 23.2926 57.3871 23.2775 57.482C22.9985 59.1677 22.4787 60.7801 21.807 62.3488C23.4675 61.2227 24.4665 59.6092 25.3851 57.8684C25.4042 57.8684 25.4232 57.8684 25.4428 57.8684C25.4516 58.4068 25.4312 58.9342 25.3743 59.4696C25.3667 59.5415 25.359 59.6134 25.3512 59.6874C25.0681 62.1828 24.2117 64.5427 22.4418 66.3697C22.4012 66.4137 22.3606 66.4578 22.3187 66.5032C20.4821 68.4389 17.5289 69.2506 14.9392 69.414C14.7047 69.42 14.4705 69.4195 14.2359 69.4176C14.1452 69.4172 14.1452 69.4172 14.0527 69.4168C13.9058 69.4161 13.7588 69.4152 13.6119 69.414C13.0508 68.3124 12.667 67.1137 12.3999 65.9101C12.3817 65.8304 12.3817 65.8304 12.3631 65.749C12.1867 64.9457 12.1468 64.1517 12.1438 63.3325C12.1435 63.286 12.1431 63.2395 12.1427 63.1916C12.1383 62.2856 12.2392 61.3945 12.5045 60.5251C12.5196 60.4747 12.5346 60.4243 12.5501 60.3724C13.0878 58.6112 14.0812 57.0695 15.3256 55.7207C15.5679 55.4477 15.7888 55.1579 16.0125 54.8698C16.0909 54.77 16.1705 54.6712 16.2506 54.5728C19.0505 51.1216 19.6805 47.12 19.9025 42.819Z" fill="#191919"/>
<path d="M17.9976 34.4901C18.0706 34.6354 18.0529 34.7123 18.0363 34.8735C18.0279 34.9572 18.0279 34.9572 18.0194 35.0426C18.0129 35.1032 18.0065 35.1639 17.9999 35.2263C17.9935 35.2887 17.9872 35.351 17.9806 35.4153C17.9602 35.6155 17.9392 35.8157 17.9183 36.0159C17.9046 36.1493 17.8909 36.2828 17.8772 36.4163C17.8233 36.9424 17.7684 37.4684 17.7091 37.994C17.671 37.994 17.6329 37.994 17.5936 37.994C17.5949 38.0608 17.5963 38.1276 17.5976 38.1964C17.5974 38.4332 17.5693 38.6578 17.5301 38.8917C17.5233 38.9321 17.5166 38.9725 17.5096 39.0142C17.4877 39.1445 17.465 39.2747 17.4421 39.4049C17.4305 39.4719 17.4305 39.4719 17.4186 39.5402C17.1458 41.0973 16.7546 42.6356 15.8623 43.9678C15.8288 44.094 15.8288 44.094 15.8079 44.2361C15.7988 44.2907 15.7897 44.3454 15.7803 44.4017C15.7661 44.4907 15.7661 44.4907 15.7516 44.5815C15.7304 44.7088 15.7092 44.8361 15.688 44.9634C15.677 45.0301 15.666 45.0968 15.6547 45.1655C15.121 48.3876 14.1576 51.0793 12.212 53.722C11.9756 54.0445 11.7524 54.3746 11.5339 54.7092C11.4941 54.7697 11.4941 54.7697 11.4535 54.8314C11.0773 55.405 10.7301 55.9799 10.4369 56.5999C10.3755 56.7284 10.312 56.8557 10.2482 56.9831C8.92103 59.659 9.34643 62.0725 10.2786 64.8188C10.3089 64.907 10.3391 64.9951 10.3695 65.0832C10.5224 65.528 10.6685 65.9708 10.7836 66.4271C8.55071 64.6303 7.12443 61.4058 6.78192 58.629C6.37856 54.6722 8.17152 51.0019 10.6105 47.9887C10.7709 47.7943 10.9345 47.6026 11.0994 47.412C11.2322 47.2573 11.3598 47.0997 11.487 46.9404C11.8275 46.5237 12.2045 46.1401 12.5761 45.7511C14.4839 43.75 15.9088 41.5564 16.9011 38.9705C16.9203 38.9222 16.9396 38.874 16.9594 38.8242C17.4744 37.5247 17.7294 36.0556 17.9175 34.6741C17.9399 34.5476 17.9399 34.5476 17.9976 34.4901Z" fill="#191919"/>
<path d="M19.671 53.6753C19.69 53.6753 19.7091 53.6753 19.7287 53.6753C19.9428 55.3647 19.9428 55.3647 19.9595 55.9729C19.9611 56.0288 19.9627 56.0847 19.9643 56.1422C19.9999 57.6578 19.8889 59.1392 19.5264 60.6135C19.501 60.7265 19.4837 60.8412 19.4676 60.9559C19.4396 61.1458 19.3902 61.307 19.3247 61.4872C19.3013 61.5568 19.278 61.6264 19.2539 61.6981C18.7837 63.0747 18.1312 64.3476 17.2471 65.5081C17.2132 65.553 17.1794 65.598 17.1445 65.6443C17.1212 65.6751 17.0979 65.706 17.0739 65.7378C18.1007 65.6831 19.1935 65.2093 19.9595 64.5316C20.0455 64.7882 19.9297 64.9293 19.8159 65.1655C18.9134 66.9271 17.3075 67.8978 15.4778 68.5095C14.5558 68.8023 14.5558 68.8023 14.1306 68.7822C13.6192 67.7761 13.4147 66.7442 13.42 65.6194C13.4203 65.5466 13.4207 65.4738 13.421 65.3988C13.4573 62.5803 14.8256 60.3905 16.5609 58.2711C17.6228 56.974 18.5636 55.6254 19.3578 54.1474C19.3944 54.0795 19.3944 54.0795 19.4318 54.0103C19.453 53.9704 19.4742 53.9306 19.4961 53.8895C19.5555 53.7902 19.5555 53.7902 19.671 53.6753Z" fill="#191919"/>
<path d="M73.5747 51.7797C74.108 51.7797 74.6412 51.7797 75.1906 51.7797C75.1906 53.4857 75.1906 55.1916 75.1906 56.9493C77.0951 56.9493 78.9996 56.9493 80.9619 56.9493C80.9619 55.2433 80.9619 53.5373 80.9619 51.7797C81.5142 51.7797 82.0665 51.7797 82.6355 51.7797C82.6355 55.893 82.6355 60.0063 82.6355 64.2443C82.0832 64.2443 81.5309 64.2443 80.9619 64.2443C80.9619 62.3298 80.9619 60.4153 80.9619 58.4428C79.0574 58.4428 77.1529 58.4428 75.1906 58.4428C75.1906 60.3573 75.1906 62.2718 75.1906 64.2443C74.6574 64.2443 74.1241 64.2443 73.5747 64.2443C73.5747 60.131 73.5747 56.0176 73.5747 51.7797Z" fill="#191919"/>
<path d="M30.5791 51.7797C31.1124 51.7797 31.6456 51.7797 32.195 51.7797C32.195 53.4857 32.195 55.1916 32.195 56.9493C34.0995 56.9493 36.004 56.9493 37.9662 56.9493C37.9662 55.2433 37.9662 53.5373 37.9662 51.7797C38.5186 51.7797 39.0709 51.7797 39.6399 51.7797C39.6399 55.893 39.6399 60.0063 39.6399 64.2443C39.0876 64.2443 38.5353 64.2443 37.9662 64.2443C37.9662 62.3298 37.9662 60.4153 37.9662 58.4428C36.0617 58.4428 34.1572 58.4428 32.195 58.4428C32.195 60.3573 32.195 62.2718 32.195 64.2443C31.6618 64.2443 31.1285 64.2443 30.5791 64.2443C30.5791 60.131 30.5791 56.0176 30.5791 51.7797Z" fill="#191919"/>
<path d="M96.1578 52.6557C96.8349 53.2934 97.0988 54.1639 97.1389 55.0718C97.1109 55.9616 96.8319 56.8197 96.1974 57.4664C95.3173 58.2131 95.3173 58.2131 94.8701 58.2131C94.8701 58.251 94.8701 58.2889 94.8701 58.328C94.9125 58.3341 94.955 58.3401 94.9988 58.3464C95.5236 58.4746 95.8717 58.987 96.1397 59.4194C96.4902 60.0848 96.6395 60.7988 96.8034 61.5267C96.8552 61.7544 96.9074 61.982 96.9603 62.2095C96.9731 62.2647 96.986 62.3199 96.9992 62.3768C97.1178 62.8751 97.2683 63.3609 97.4338 63.8456C97.4728 63.9763 97.498 64.1107 97.5248 64.2444C96.9725 64.2444 96.4202 64.2444 95.8512 64.2444C95.6998 63.9055 95.578 63.6171 95.4943 63.265C95.4839 63.2229 95.4735 63.1808 95.4627 63.1375C95.4408 63.0484 95.419 62.9594 95.3975 62.8702C95.3637 62.7309 95.3293 62.5918 95.2947 62.4527C95.1996 62.0694 95.1059 61.686 95.0193 61.3008C94.8646 60.6214 94.6593 59.7317 94.0524 59.3063C94.0175 59.2867 93.9826 59.2672 93.9467 59.247C93.8881 59.2142 93.8881 59.2142 93.8283 59.1806C93.0211 58.7811 92.0354 58.8755 91.1765 58.845C91.1765 60.6268 91.1765 62.4086 91.1765 64.2444C90.6432 64.2444 90.11 64.2444 89.5605 64.2444C89.5605 60.1879 89.5605 56.1315 89.5605 51.9521C89.8375 51.8602 90.0546 51.8099 90.3397 51.7762C90.4129 51.7672 90.4861 51.7582 90.5615 51.749C92.3993 51.5557 94.6489 51.3883 96.1578 52.6557ZM91.1765 53.1009C91.1765 54.5794 91.1765 56.0579 91.1765 57.5813C93.1518 57.6888 93.1518 57.6888 94.8592 56.8848C95.2814 56.4242 95.4821 55.8425 95.5049 55.2262C95.4781 54.6661 95.3329 54.1796 94.9674 53.7471C94.9163 53.7044 94.8651 53.6618 94.8123 53.6178C94.7646 53.5755 94.7646 53.5755 94.7159 53.5324C94.0997 53.0217 93.3466 52.9756 92.5796 52.9752C92.5087 52.9745 92.4377 52.9738 92.3647 52.9731C92.2949 52.973 92.2252 52.9729 92.1533 52.9728C92.059 52.9724 92.059 52.9724 91.9629 52.972C91.6978 52.9897 91.437 53.049 91.1765 53.1009Z" fill="#191919"/>
<path d="M11.303 42.0721C11.303 42.3088 11.2081 42.3861 11.0613 42.5712C11.0357 42.6037 11.0101 42.6362 10.9837 42.6697C10.7452 42.9706 10.5018 43.2676 10.2581 43.5644C10.0525 43.8149 9.85059 44.0678 9.651 44.3231C9.44745 44.5831 9.23864 44.8373 9.02339 45.0878C8.7267 45.4336 8.44212 45.7874 8.16289 46.1473C8.0982 46.2305 8.03325 46.3135 7.96811 46.3963C6.01756 48.8768 4.37799 51.6353 3.80044 54.7665C3.79278 54.8067 3.78512 54.8468 3.77722 54.8882C3.04936 58.8838 4.8695 62.6837 7.03232 65.91C6.79169 65.91 6.73255 65.8107 6.5598 65.648C6.50235 65.5944 6.44486 65.541 6.38734 65.4875C6.30666 65.4123 6.30666 65.4123 6.22435 65.3356C6.15019 65.2706 6.07569 65.2059 6.00072 65.1418C5.24749 64.4883 4.49606 63.8055 3.85816 63.038C3.81847 62.9911 3.81847 62.9911 3.77798 62.9432C1.84532 60.6548 0.773469 58.0805 0.984219 55.0588C1.26445 52.3201 2.86666 49.8238 4.66612 47.8162C4.70838 47.7685 4.75064 47.7207 4.79417 47.6715C4.92326 47.527 5.05405 47.3842 5.18553 47.2418C5.217 47.2076 5.24847 47.1734 5.28089 47.1381C5.72115 46.6605 6.16742 46.2022 6.65426 45.7712C6.78714 45.652 6.91703 45.5297 7.04731 45.4076C7.36468 45.1109 7.68722 44.8263 8.0274 44.5553C8.17084 44.4399 8.31113 44.3214 8.45083 44.2015C8.86621 43.8459 9.29954 43.5185 9.74022 43.1947C9.86266 43.1043 9.98439 43.013 10.1059 42.9214C10.4975 42.6266 10.8879 42.3338 11.303 42.0721Z" fill="#191919"/>
<path d="M64.8022 51.7797C66.9734 51.7797 69.1445 51.7797 71.3814 51.7797C71.3814 52.2346 71.3814 52.6895 71.3814 53.1582C69.7436 53.1582 68.1057 53.1582 66.4182 53.1582C66.4182 54.5041 66.4182 55.8499 66.4182 57.2365C67.9227 57.2365 69.4273 57.2365 70.9774 57.2365C70.9774 57.6915 70.9774 58.1464 70.9774 58.6151C69.4729 58.6151 67.9683 58.6151 66.4182 58.6151C66.4182 60.4727 66.4182 62.3304 66.4182 64.2443C65.8849 64.2443 65.3517 64.2443 64.8022 64.2443C64.8022 60.131 64.8022 56.0176 64.8022 51.7797Z" fill="#191919"/>
<path d="M50.4316 52.1818C52.8884 52.1818 55.3452 52.1818 57.8765 52.1818C57.8765 53.5633 57.8765 53.5633 57.4689 54.3214C57.4263 54.4051 57.384 54.4889 57.342 54.5729C57.2555 54.7452 57.1682 54.917 57.0802 55.0886C56.9015 55.4399 56.7406 55.7989 56.5795 56.1585C56.2318 56.9336 55.8681 57.7009 55.5013 58.4672C55.1997 59.0977 54.9041 59.7305 54.6158 60.3671C54.2535 61.1668 53.8788 61.9603 53.4998 62.7523C53.4788 62.7964 53.4577 62.8405 53.4359 62.8859C53.3972 62.9668 53.3585 63.0477 53.3196 63.1286C53.1422 63.499 52.9707 63.8716 52.7978 64.2443C52.2265 64.2443 51.6551 64.2443 51.0665 64.2443C51.3906 63.47 51.3906 63.47 51.5588 63.1296C51.5859 63.0746 51.5859 63.0746 51.6135 63.0184C51.6517 62.9406 51.69 62.8628 51.7284 62.7851C52.0432 62.1476 52.3519 61.5079 52.6499 60.8625C52.952 60.2092 53.2659 59.5622 53.583 58.9161C53.8859 58.2985 54.1807 57.678 54.4691 57.0536C54.7833 56.3763 55.1125 55.7063 55.4423 55.0364C55.4638 54.9928 55.4853 54.9491 55.5074 54.9041C55.5472 54.8232 55.587 54.7424 55.6269 54.6616C55.7874 54.3355 55.9362 54.0063 56.0874 53.6752C54.221 53.6563 52.3546 53.6373 50.4316 53.6178C50.4316 53.1439 50.4316 52.67 50.4316 52.1818Z" fill="#191919"/>
<path d="M42.2944 51.7797C42.8277 51.7797 43.361 51.7797 43.9104 51.7797C43.9104 55.4381 43.9104 59.0965 43.9104 62.8657C45.6244 62.8657 47.3385 62.8657 49.1045 62.8657C49.1045 63.3206 49.1045 63.7756 49.1045 64.2443C46.8571 64.2443 44.6098 64.2443 42.2944 64.2443C42.2944 60.131 42.2944 56.0176 42.2944 51.7797Z" fill="#191919"/>
<path d="M85.29 51.7797C85.8233 51.7797 86.3566 51.7797 86.906 51.7797C86.906 55.893 86.906 60.0063 86.906 64.2443C86.3727 64.2443 85.8395 64.2443 85.29 64.2443C85.29 60.131 85.29 56.0176 85.29 51.7797Z" fill="#191919"/>
<path d="M25.4982 42.5926C25.8894 42.809 26.1097 43.0887 26.2502 43.5083C26.2891 43.967 26.2874 44.3825 26.0194 44.772C25.7527 45.0777 25.4303 45.2485 25.0292 45.3071C24.6248 45.3291 24.2433 45.2198 23.935 44.9537C23.5818 44.573 23.506 44.2108 23.5166 43.6992C23.5564 43.3406 23.6775 43.061 23.955 42.8239C24.4188 42.5062 24.9524 42.3989 25.4982 42.5926ZM24.1293 43.16C23.8716 43.5091 23.8451 43.7683 23.884 44.1976C23.9863 44.515 24.1985 44.6935 24.4611 44.8869C24.689 45.0003 24.963 44.9695 25.2114 44.9443C25.5137 44.7966 25.6983 44.5889 25.8607 44.2981C25.9627 43.9257 25.9373 43.6046 25.7468 43.2666C25.5912 43.0492 25.4105 42.9042 25.1537 42.819C24.7339 42.7776 24.417 42.8313 24.1293 43.16Z" fill="#191919"/>
<path d="M60.7335 52.4439C61.0991 52.6667 61.3117 52.9699 61.4279 53.3773C61.519 53.8007 61.432 54.187 61.2006 54.549C60.9299 54.8908 60.6104 55.0614 60.1794 55.1308C59.8102 55.1491 59.4638 55.0315 59.1572 54.8349C58.8341 54.5132 58.6871 54.167 58.6631 53.7148C58.6743 53.3519 58.78 53.0238 59.0236 52.7495C59.4888 52.3276 60.1353 52.1756 60.7335 52.4439ZM59.1789 53.1045C59.0315 53.3803 59.0096 53.5905 59.031 53.905C59.1474 54.2411 59.289 54.4915 59.5829 54.6984C59.9059 54.8095 60.2366 54.8519 60.5536 54.7014C60.7954 54.5322 60.9655 54.3644 61.0509 54.0774C61.0925 53.7064 61.0965 53.3535 60.8999 53.0257C60.7139 52.7992 60.5055 52.6697 60.2164 52.614C59.7601 52.5874 59.4594 52.7537 59.1789 53.1045Z" fill="#191919"/>
<path d="M100.372 52.507C100.637 52.7168 100.828 52.9494 100.93 53.273C100.975 53.7336 101.006 54.2167 100.699 54.5942C100.393 54.9307 100.058 55.0899 99.6065 55.1327C99.169 55.113 98.8108 54.9617 98.5064 54.6516C98.2201 54.2453 98.1819 53.8731 98.2178 53.3879C98.2897 53.0096 98.496 52.7621 98.7949 52.5263C99.2387 52.2469 99.9189 52.2343 100.372 52.507ZM98.7769 53.011C98.5709 53.3223 98.5145 53.5933 98.5641 53.9623C98.6719 54.3033 98.8533 54.5035 99.1412 54.7091C99.3933 54.8345 99.7508 54.8112 100.015 54.7272C100.317 54.5696 100.478 54.3357 100.584 54.0198C100.613 53.6627 100.629 53.3438 100.411 53.0433C100.162 52.8007 99.9771 52.6336 99.6209 52.6232C99.2476 52.6275 99.0369 52.7382 98.7769 53.011Z" fill="#191919"/>
<path d="M24.3467 43.1636C24.4836 43.1577 24.6205 43.1518 24.7615 43.1457C24.8041 43.143 24.8466 43.1404 24.8905 43.1377C25.1164 43.133 25.2049 43.1577 25.383 43.2991C25.5009 43.4508 25.5009 43.4508 25.5298 43.598C25.4964 43.76 25.4373 43.8451 25.3278 43.9678C25.3552 44.0282 25.3825 44.0886 25.4107 44.1509C25.4832 44.3183 25.5311 44.476 25.5586 44.6571C25.4444 44.6571 25.3301 44.6571 25.2124 44.6571C25.199 44.6204 25.1857 44.5838 25.172 44.546C25.1157 44.4041 25.0595 44.2716 24.9815 44.1401C24.831 44.0705 24.831 44.0705 24.693 44.0827C24.693 44.2722 24.693 44.4618 24.693 44.6571C24.5787 44.6571 24.4644 44.6571 24.3467 44.6571C24.3467 44.1642 24.3467 43.6714 24.3467 43.1636ZM24.693 43.3934C24.693 43.5261 24.693 43.6587 24.693 43.7955C24.8613 43.805 24.8613 43.805 25.0392 43.7955C25.0773 43.7575 25.1154 43.7196 25.1546 43.6806C25.1363 43.5595 25.1363 43.5595 25.0969 43.4508C24.9636 43.4319 24.8303 43.4129 24.693 43.3934Z" fill="#191919"/>
<path d="M59.5508 52.986C59.6889 52.9813 59.8269 52.9765 59.9692 52.9716C60.0123 52.9696 60.0554 52.9675 60.0998 52.9653C60.2965 52.962 60.3992 52.9732 60.5585 53.091C60.6778 53.2586 60.6726 53.3589 60.6473 53.5604C60.6262 53.5965 60.6051 53.6325 60.5833 53.6697C60.5152 53.8293 60.5481 53.8935 60.6112 54.0522C60.6738 54.2128 60.705 54.3046 60.705 54.4795C60.5908 54.4795 60.4765 54.4795 60.3588 54.4795C60.3016 54.3089 60.2445 54.1383 60.1856 53.9625C60.0713 53.9435 59.9571 53.9246 59.8393 53.9051C59.8393 54.0946 59.8393 54.2842 59.8393 54.4795C59.7441 54.4795 59.6489 54.4795 59.5508 54.4795C59.5508 53.9866 59.5508 53.4938 59.5508 52.986ZM59.8393 53.2158C59.8393 53.3485 59.8393 53.4811 59.8393 53.6179C60.0783 53.6299 60.0783 53.6299 60.301 53.5604C60.2792 53.3714 60.2792 53.3714 60.1856 53.2158C60.0702 53.2134 59.9547 53.2133 59.8393 53.2158Z" fill="#191919"/>
<path d="M99.083 52.986C99.2211 52.9813 99.3592 52.9765 99.5014 52.9716C99.5445 52.9696 99.5876 52.9675 99.632 52.9653C99.8286 52.962 99.9313 52.9731 100.09 53.091C100.211 53.2596 100.209 53.3577 100.18 53.5604C100.093 53.6968 100.093 53.6968 100.006 53.7902C100.044 53.8281 100.083 53.866 100.122 53.9051C100.158 54.0419 100.158 54.0419 100.187 54.1994C100.196 54.2517 100.206 54.304 100.216 54.3579C100.223 54.398 100.23 54.4381 100.237 54.4795C100.123 54.4795 100.009 54.4795 99.891 54.4795C99.8338 54.3089 99.7767 54.1383 99.7178 53.9625C99.6036 53.9435 99.4893 53.9246 99.3716 53.9051C99.3716 54.0946 99.3716 54.2842 99.3716 54.4795C99.2763 54.4795 99.1811 54.4795 99.083 54.4795C99.083 53.9866 99.083 53.4938 99.083 52.986ZM99.3716 53.2158C99.3716 53.3485 99.3716 53.4811 99.3716 53.6179C99.5399 53.6274 99.5399 53.6274 99.7178 53.6179C99.7559 53.5799 99.794 53.542 99.8333 53.503C99.8149 53.3819 99.8149 53.3819 99.7756 53.2732C99.6422 53.2543 99.5089 53.2353 99.3716 53.2158Z" fill="#191919"/>
<path d="M10.4371 65.9675C10.4752 66.0054 10.5133 66.0434 10.5525 66.0824C10.5906 66.0635 10.6287 66.0445 10.668 66.025C10.706 66.1577 10.7441 66.2903 10.7834 66.4271C10.6501 66.3133 10.5167 66.1996 10.3794 66.0824C10.3984 66.0445 10.4175 66.0066 10.4371 65.9675Z" fill="#393939"/>
</g>
<defs>
<clipPath id="clip0_2336_10352">
<rect width="100" height="100" fill="white" transform="translate(0.958008 0.863037)"/>
</clipPath>
</defs>
</svg>
