<svg width="101" height="101" viewBox="0 0 101 101" fill="none" xmlns="http://www.w3.org/2000/svg">
<g clip-path="url(#clip0_2336_10226)">
<path d="M90.2632 44.0309C90.2229 44.0308 90.1834 44.0428 90.1499 44.0653L88.3171 45.1356C88.2826 45.1569 88.2543 45.1869 88.2348 45.2225C88.2154 45.2581 88.2055 45.2981 88.2062 45.3387V47.4793C88.2062 47.5699 88.2491 47.6387 88.3171 47.684L90.1499 48.7527C90.1834 48.7752 90.2228 48.7872 90.2632 48.7872C90.3035 48.7872 90.343 48.7752 90.3765 48.7527L92.2061 47.684C92.2409 47.6621 92.2695 47.6318 92.2893 47.5959C92.3091 47.5599 92.3195 47.5195 92.3194 47.4785V45.3402C92.3198 45.2995 92.3096 45.2593 92.2898 45.2236C92.2699 45.188 92.2411 45.1582 92.2061 45.1371L90.3757 44.066C90.3424 44.0437 90.3033 44.031 90.2632 44.0309ZM50.3472 56.8308C50.0136 56.8308 49.6815 56.912 49.3987 57.0714L40.3762 62.3268C40.0871 62.4966 39.8474 62.7391 39.6811 63.0302C39.5147 63.3213 39.4273 63.6509 39.4277 63.9862V74.4728C39.4277 75.1556 39.7887 75.7931 40.3762 76.1353L42.7511 77.4993C43.9043 78.0681 44.3113 78.0665 44.8308 78.0665C46.5261 78.0665 47.4988 77.0204 47.4988 75.2228V64.8752C47.4978 64.8032 47.4689 64.7344 47.4182 64.6832C47.3675 64.6321 47.2989 64.6026 47.2269 64.601H46.0753C46.0031 64.6022 45.9341 64.6315 45.883 64.6827C45.832 64.7339 45.8029 64.8029 45.8019 64.8752V75.2251C45.8019 76.0212 44.9667 76.8188 43.6332 76.1368L41.1683 74.7032C41.0777 74.6579 41.0316 74.5423 41.0316 74.4517V63.9627C41.0316 63.8721 41.0777 63.7596 41.1683 63.7135L50.1878 58.4815C50.2558 58.4362 50.3698 58.4362 50.4604 58.4815L59.4822 63.7135C59.5721 63.7596 59.6166 63.8494 59.6166 63.9635V74.4509C59.6166 74.5642 59.5721 74.6572 59.4822 74.7025L50.4604 79.9579C50.3925 80.0032 50.2784 80.0032 50.1878 79.9579L47.8823 78.5681C47.8144 78.5227 47.7238 78.5001 47.6558 78.5454C47.023 78.9095 46.912 78.9571 46.3011 79.1618C46.1652 79.2071 45.9394 79.2969 46.3909 79.5469L49.3987 81.3454C49.6925 81.504 50.0081 81.5946 50.3472 81.5946C50.6862 81.5946 51.0245 81.5047 51.2956 81.3915L60.3182 76.136C60.6077 75.966 60.8476 75.723 61.0141 75.4313C61.1805 75.1396 61.2675 74.8094 61.2666 74.4736V63.9862C61.2666 63.3034 60.9057 62.6682 60.3182 62.3268L51.2956 57.0714C51.005 56.912 50.6786 56.8292 50.3472 56.8308ZM64.433 61.6198C63.9699 61.6216 63.5266 61.8073 63.2004 62.1358C62.8741 62.4644 62.6917 62.9091 62.6931 63.3721C62.6919 63.835 62.8744 64.2795 63.2006 64.6079C63.5268 64.9363 63.9701 65.1218 64.433 65.1236C65.3837 65.1236 66.1736 64.3276 66.1736 63.3721C66.1711 62.9102 65.9873 62.4677 65.6617 62.1401C65.3361 61.8125 64.8948 61.6251 64.433 61.6198ZM64.4095 61.9159C64.6021 61.9135 64.7933 61.9494 64.9719 62.0216C65.1504 62.0937 65.3129 62.2007 65.4498 62.3362C65.5867 62.4717 65.6952 62.633 65.7692 62.8109C65.8432 62.9887 65.881 63.1795 65.8806 63.3721C65.8806 64.169 65.2244 64.8518 64.4103 64.8518C63.6197 64.8518 62.9634 64.1908 62.9634 63.3721C62.9634 62.5534 63.6416 61.9159 64.4095 61.9159ZM63.7775 62.3932V64.3947H64.1634V63.601H64.5025C64.6384 63.601 64.683 63.6463 64.7056 63.7596C64.7056 63.783 64.7728 64.283 64.7728 64.3737H65.1791C65.1337 64.283 65.1111 64.0096 65.0884 63.8502C65.0665 63.6002 65.0447 63.4182 64.7728 63.3955C64.9087 63.3494 65.1345 63.2815 65.1345 62.9174C65.1345 62.394 64.6814 62.394 64.4564 62.394L63.7775 62.3932ZM64.1173 62.712H64.433C64.547 62.712 64.7267 62.712 64.7267 62.9846C64.7267 63.0752 64.683 63.2588 64.433 63.2588H64.1166L64.1173 62.712ZM52.8128 64.2823C50.2347 64.2823 48.6972 65.3744 48.6972 67.2174C48.6972 69.197 50.2347 69.7408 52.6995 69.9916C55.6604 70.2877 55.8869 70.7205 55.8869 71.3119C55.8869 72.3353 55.0713 72.7681 53.1721 72.7681C50.7753 72.7681 50.2558 72.1759 50.0745 70.9705C50.0745 70.8337 49.9636 70.7439 49.8276 70.7439H48.6519C48.58 70.7447 48.5114 70.7738 48.4608 70.8248C48.4102 70.8758 48.3818 70.9447 48.3816 71.0166C48.3816 72.5634 49.1948 74.3837 53.1526 74.3837C56.0002 74.3837 57.651 73.2447 57.651 71.2431C57.651 69.2861 56.3385 68.7635 53.5589 68.3994C50.7542 68.0353 50.4612 67.8307 50.4612 67.1713C50.4612 66.6252 50.7097 65.8979 52.7893 65.8979C54.6432 65.8979 55.3432 66.308 55.6151 67.5588C55.6287 67.6152 55.6605 67.6656 55.7055 67.7023C55.7505 67.739 55.8063 67.7599 55.8643 67.7619H57.0619C57.1307 67.7619 57.1987 67.7174 57.2448 67.6721C57.2858 67.6112 57.3088 67.54 57.3112 67.4666C57.1307 65.283 55.7073 64.2823 52.8128 64.2823Z" fill="#191919"/>
<path d="M68.2011 20.1315C68.105 20.1301 68.0101 20.1541 67.9262 20.2011C67.8389 20.2523 67.7662 20.325 67.7149 20.4122C67.6636 20.4994 67.6355 20.5983 67.6332 20.6995V35.4876C67.6332 35.6236 67.5629 35.7611 67.4277 35.8517C67.3653 35.8852 67.2955 35.9027 67.2246 35.9027C67.1537 35.9027 67.0839 35.8852 67.0215 35.8517L64.6262 34.465C64.4503 34.3646 64.2513 34.3117 64.0488 34.3117C63.8463 34.3117 63.6473 34.3646 63.4715 34.465L53.8872 40.0391C53.7099 40.1392 53.5621 40.2842 53.4588 40.4597C53.3555 40.6351 53.3003 40.8348 53.299 41.0384V52.1632C53.299 52.5726 53.5255 52.9601 53.8872 53.1648L63.4731 58.739C63.6488 58.8393 63.8477 58.892 64.05 58.892C64.2524 58.892 64.4512 58.8393 64.627 58.739L74.212 53.1648C74.5737 52.9601 74.8003 52.5726 74.8003 52.1632V24.4315C74.8003 23.9995 74.5737 23.6112 74.212 23.4073L68.4933 20.2011C68.4029 20.1557 68.3023 20.1319 68.2011 20.1315ZM11.6509 34.0111C11.4705 34.0111 11.29 34.0767 11.1322 34.1673L1.54633 39.7212C1.36617 39.8237 1.21666 39.9725 1.11324 40.1521C1.00982 40.3318 0.956243 40.5358 0.958052 40.743L0.981489 55.6663C0.981489 55.8718 1.09321 56.0765 1.27446 56.1679C1.35848 56.223 1.45678 56.2524 1.55727 56.2524C1.65775 56.2524 1.75605 56.223 1.84007 56.1679L7.53846 52.8921C7.90017 52.6875 8.12439 52.3 8.12439 51.8906V44.9063C8.12439 44.4969 8.35095 44.1094 8.71345 43.9047L11.1322 42.4946C11.3126 42.3805 11.5173 42.3352 11.7204 42.3352C11.9236 42.3352 12.1275 42.3805 12.2861 42.4946L14.7048 43.9047C15.0665 44.1094 15.2931 44.4969 15.2931 44.9063V51.8906C15.2931 52.3 15.5181 52.6875 15.879 52.8921L21.5321 56.1679C21.6199 56.224 21.722 56.2537 21.8262 56.2537C21.9304 56.2537 22.0325 56.224 22.1203 56.1679C22.2103 56.119 22.2853 56.0464 22.337 55.958C22.3888 55.8696 22.4154 55.7688 22.4141 55.6663V40.743C22.4141 40.3337 22.1875 39.9462 21.825 39.7407L12.2626 34.1673C12.1015 34.0818 11.9253 34.0285 11.7439 34.0103L11.6509 34.0111ZM90.2962 34.1751C90.0986 34.1751 89.9025 34.2267 89.7213 34.3298L80.1338 39.9009C79.7721 40.1056 79.5479 40.493 79.5479 40.9032V52.0281C79.5479 52.4375 79.7721 52.825 80.1338 53.0296L89.6525 58.4882C89.8239 58.5887 90.019 58.6417 90.2177 58.6417C90.4164 58.6417 90.6116 58.5887 90.783 58.4882L96.5485 55.2593C96.6384 55.2103 96.7131 55.1377 96.7648 55.0493C96.8164 54.9609 96.8429 54.8601 96.8415 54.7578C96.8426 54.6557 96.816 54.5552 96.7644 54.4671C96.7127 54.379 96.6381 54.3067 96.5485 54.2578L86.9182 48.6828C86.8306 48.6314 86.7576 48.5583 86.7063 48.4706C86.655 48.383 86.6271 48.2836 86.6252 48.182V44.7008C86.6241 44.5987 86.6507 44.4983 86.7023 44.4102C86.7539 44.3221 86.8285 44.2497 86.9182 44.2008L89.9259 42.4712C90.0138 42.4151 90.1159 42.3853 90.2201 42.3853C90.3243 42.3853 90.4264 42.4151 90.5142 42.4712L93.5189 44.2C93.6069 44.2512 93.6803 44.3241 93.732 44.4118C93.7837 44.4995 93.812 44.599 93.8142 44.7008V47.4313C93.8142 47.6367 93.9267 47.8414 94.1071 47.932C94.1951 47.9883 94.2973 48.0181 94.4017 48.0181C94.5061 48.0181 94.6083 47.9883 94.6962 47.932L100.392 44.5883C100.567 44.4864 100.711 44.3399 100.811 44.1637C100.91 43.9876 100.961 43.7882 100.958 43.586V40.879C100.958 40.4696 100.731 40.0845 100.392 39.879L90.8736 34.3291C90.698 34.2286 90.4993 34.1753 90.297 34.1744L90.2962 34.1751ZM64.0488 42.4829C64.0996 42.4829 64.1512 42.4946 64.1973 42.518L67.4738 44.4289C67.5644 44.4743 67.6105 44.5868 67.6105 44.6782V48.5C67.6105 48.6141 67.5644 48.7063 67.4738 48.7516L64.1965 50.6625C64.1505 50.685 64.1 50.6967 64.0488 50.6967C63.9977 50.6967 63.9472 50.685 63.9012 50.6625L60.6239 48.7516C60.5333 48.7063 60.4872 48.5914 60.4872 48.5V44.6782C60.4872 44.5641 60.534 44.4743 60.6239 44.4282L63.9012 42.518C63.947 42.4942 63.9972 42.4822 64.0488 42.4829Z" fill="#191919"/>
<path d="M38.4436 34.3737C38.2682 34.2728 38.0693 34.2197 37.867 34.2197C37.6646 34.2197 37.4658 34.2728 37.2904 34.3737L27.7718 39.9026C27.5973 40.0044 27.4531 40.1507 27.3537 40.3265C27.2543 40.5023 27.2034 40.7014 27.2062 40.9034V51.9822C27.2062 52.3923 27.4327 52.779 27.7718 52.9837L37.2904 58.5118C37.4658 58.6127 37.6646 58.6658 37.867 58.6658C38.0693 58.6658 38.2682 58.6127 38.4436 58.5118L47.9614 52.9837C48.3231 52.779 48.5271 52.3923 48.5271 51.9822V40.9034C48.5271 40.494 48.3005 40.1065 47.9614 39.9026L38.4436 34.3737Z" fill="#191919"/>
<path d="M47.9837 39.9024L38.4205 34.3735C38.3266 34.326 38.2282 34.288 38.1268 34.2603L27.4097 52.7101C27.5003 52.8241 27.6128 52.9148 27.7261 52.9835L37.29 58.5116C37.5611 58.671 37.8775 58.7163 38.1713 58.6249L48.2329 40.1071C48.1668 40.0205 48.0815 39.9504 47.9837 39.9024Z" fill="#191919"/>
<path d="M47.9853 52.9799C48.2571 52.8205 48.4602 52.5479 48.5509 52.2518L38.0822 34.234C37.8119 34.1887 37.5174 34.2113 37.269 34.3707L27.7729 39.8761L38.015 58.6673C38.1502 58.6447 38.3088 58.5994 38.4447 58.5306L47.9853 52.9799Z" fill="#191919"/>
</g>
<defs>
<clipPath id="clip0_2336_10226">
<rect width="100" height="100" fill="white" transform="translate(0.958008 0.863098)"/>
</clipPath>
</defs>
</svg>
