<svg width="101" height="101" viewBox="0 0 101 101" fill="none" xmlns="http://www.w3.org/2000/svg">
<path fill-rule="evenodd" clip-rule="evenodd" d="M44.0347 27.5388C46.1722 27.5388 48.3097 27.5718 50.4444 27.5161C51.0107 27.5013 52.0265 27.9696 51.981 26.7927C51.9463 25.835 51.0579 26.1815 50.5195 26.173C48.1083 26.1349 45.689 26.0432 43.2874 26.1941C41.5784 26.3005 41.0748 25.6517 41.2893 24.0844C41.3633 23.5438 41.2922 22.9838 41.3036 22.4329C41.3787 18.7645 42.2653 17.5159 45.8233 16.611C49.7433 15.6151 53.7549 15.6481 57.664 16.5063C61.1782 17.278 62.6379 20.0119 62.4603 22.541C62.2441 25.6272 62.4114 28.7402 62.4086 31.8418C62.4034 35.7418 60.3883 37.8116 56.4564 37.8657C53.2182 37.9101 49.976 37.9454 46.7396 37.8554C42.8822 37.7473 40.0527 40.9513 40.0333 44.5822C40.0333 44.8576 40.0806 45.1422 40.0259 45.408C39.7482 46.7413 40.8579 48.8965 39.4443 49.2926C37.2931 49.897 34.7743 49.897 32.8769 47.9774C32.2338 47.3287 31.6921 46.6019 31.4064 45.7619C29.8817 41.286 29.641 36.7531 31.0763 32.2071C31.9709 29.3696 34.4044 27.6049 37.4189 27.5542C39.6236 27.5172 41.8288 27.5468 44.0335 27.5468L44.0347 27.5388ZM47.9626 21.2105C47.8704 20.1275 47.2882 19.337 46.0868 19.304C44.7728 19.2698 44.0938 20.0643 44.0921 21.3573C44.091 22.5558 44.7437 23.3235 45.9366 23.3582C47.2472 23.3964 47.8818 22.5843 47.9626 21.2105Z" fill="#191919"/>
<path fill-rule="evenodd" clip-rule="evenodd" d="M60.5324 49.4795C58.1194 49.4795 55.7053 49.4585 53.2923 49.4966C52.7488 49.5034 51.8372 49.1597 51.8087 50.089C51.7768 51.143 52.7551 50.8687 53.3766 50.875C55.7895 50.9051 58.2048 50.9307 60.6172 50.8636C61.8567 50.8294 62.3626 51.0667 62.4554 52.5282C62.8748 59.1439 60.0037 59.7159 54.7082 60.9195C51.6704 61.6099 48.4135 61.2439 45.4177 59.902C42.9404 58.794 41.4204 57.1971 41.6122 54.207C41.8022 51.2557 41.8341 48.2662 41.607 45.3177C41.3339 41.7591 43.5477 39.1419 47.8529 39.1407C50.7496 39.1401 53.6657 38.9193 56.5373 39.1834C60.6434 39.5601 63.8628 36.001 64.0039 31.8625C64.0096 31.7254 63.9743 31.578 64.0096 31.4505C64.3715 30.1786 63.0842 28.288 64.8063 27.6455C67.4088 26.6752 70.3437 27.695 71.6731 29.6698C73.3491 32.1562 73.5756 35.0819 73.8465 37.9388C74.1395 41.0182 73.2757 43.9172 71.9821 46.6949C71.1034 48.5786 69.626 49.4892 67.5676 49.492C65.2229 49.4938 62.8788 49.492 60.5335 49.492L60.5324 49.4795ZM59.9041 55.6258C59.6463 54.45 59.1159 53.6476 57.7501 53.614C56.3296 53.5799 55.9631 54.6424 55.9705 55.5911C55.9785 56.5995 56.2596 57.8401 57.7973 57.724C59.0755 57.6262 59.6987 56.8345 59.9041 55.6258Z" fill="#191919"/>
<path fill-rule="evenodd" clip-rule="evenodd" d="M22.5767 79.8011C22.5767 81.2705 22.6433 82.6466 22.5454 84.0107C22.5033 84.5992 23.152 85.7066 21.9177 85.7055C20.8295 85.7055 20.5501 84.8393 20.5848 83.7928C20.6514 81.7952 20.6042 79.7937 20.6042 77.7945V73.2428C20.6042 70.4998 21.34 69.571 23.9636 69.003C26.4027 68.4726 28.3194 69.2938 29.3051 71.4291C30.2908 73.5649 30.3671 75.7656 29.3808 77.9384C28.4088 80.0794 26.6184 80.8784 24.3249 80.2439C23.8025 80.1016 23.275 79.9781 22.5767 79.8011ZM22.5767 74.4243C22.5767 75.1812 22.6791 75.9529 22.5556 76.6893C22.2699 78.3914 23.3569 78.8109 24.6385 79.1136C25.9059 79.413 26.7749 78.874 27.2831 77.7575C28.1373 75.8851 28.2807 73.9542 27.632 71.9743C27.056 70.2146 25.7261 70.0086 24.1736 70.2272C22.6404 70.4451 22.4327 71.4877 22.5664 72.7767C22.6233 73.3202 22.5767 73.8751 22.5767 74.4243ZM39.0731 79.71C38.0231 79.9832 37.1114 80.2746 36.1781 80.4499C34.1351 80.8317 32.6224 79.71 32.0903 77.6647C31.4301 75.1334 31.989 72.6117 32.0061 70.086C32.0135 68.9347 33.0788 69.3838 33.8158 68.7668C33.8158 71.4701 33.826 73.8034 33.8124 76.135C33.805 77.3062 34.1077 78.2691 35.2152 78.8866C36.4376 79.5683 37.4404 78.919 38.5046 78.4814C39.2672 78.1678 39.1722 77.5275 39.1733 76.9186C39.179 74.7151 39.1727 72.5138 39.1801 70.3102C39.1813 69.7668 39.1249 69.1026 39.9273 69.1294C40.6427 69.1527 40.954 69.5778 40.942 70.3575C40.8903 74.0037 40.9933 77.655 40.8453 81.2961C40.7332 84.0494 38.7909 85.7311 35.9966 85.8546C35.5783 85.8722 35.1401 85.9109 34.9836 85.3919C34.7451 84.5929 35.3922 84.7437 35.8173 84.6077C38.891 83.63 39.2928 83.0461 39.0731 79.71ZM52.0622 70.2488C52.8755 69.8646 53.3427 69.5129 53.8566 69.4179C56.7402 68.8847 58.95 69.0878 58.9443 72.9719C58.9403 74.9723 58.9455 76.9732 58.9403 78.9731C58.9392 79.5331 58.9751 80.0782 58.1402 80.1266C57.2598 80.179 57.0663 79.6753 57.0703 78.985C57.0805 77.0575 57.1329 75.1299 57.1312 73.203C57.13 71.7062 56.8244 70.3814 54.9208 70.3859C53.2511 70.3888 52.0685 71.6351 52.0599 73.3549C52.0504 75.2166 52.0509 77.0784 52.0617 78.9401C52.0634 79.6013 52.0776 80.1813 51.1215 80.1266C50.2605 80.0754 50.3663 79.4949 50.3663 78.9605C50.3606 74.0663 50.3845 69.1669 50.343 64.2693C50.3356 63.4111 50.6742 62.8784 51.4356 62.842C52.5101 62.7925 52.0178 63.732 52.0338 64.2033C52.1038 66.1217 52.0622 68.0447 52.0622 70.2488ZM61.1621 74.6371C61.0534 70.8156 62.866 68.7754 66.1474 68.8938C67.7944 68.9541 69.0299 69.6848 69.8272 71.1076C71.2357 73.6241 71.0451 76.1418 69.521 78.4984C68.4739 80.1169 66.8633 80.8801 64.8999 80.4635C62.9639 80.0538 61.4478 78.3106 61.1735 76.2789C61.1006 75.7412 61.1621 75.184 61.1621 74.6371ZM68.7425 74.7264C68.656 74.0595 68.6714 73.1296 68.3936 72.2998C68.0141 71.1616 67.322 70.2454 65.9101 70.1828C64.4856 70.1213 63.7748 70.9539 63.2996 72.1063C62.5535 73.9155 62.6019 75.732 63.41 77.5088C63.9291 78.6532 64.7304 79.4909 66.119 79.2587C67.4865 79.0305 68.2935 78.1342 68.5729 76.8042C68.6998 76.2016 68.6793 75.5699 68.7425 74.7264ZM72.7302 75.2358C72.7302 74.546 72.7171 73.8574 72.7324 73.1711C72.7643 71.8479 72.3426 70.382 74.1267 69.7059C76.1698 68.9342 78.1946 68.356 80.2514 69.5505C81.0208 69.9978 81.3042 70.8105 81.3122 71.6732C81.3332 74.0811 81.3014 76.4901 81.3338 78.8979C81.3452 79.7379 81.1244 80.1579 80.1802 80.1352C79.1456 80.1107 79.3636 79.405 79.3704 78.8416C79.3949 76.918 79.5286 74.9962 79.4922 73.0755C79.4444 70.6568 78.1173 69.6706 75.8562 70.2641C74.9184 70.5111 74.3322 70.9664 74.3783 72.1274C74.4699 74.3935 74.3993 76.6676 74.4079 78.9378C74.4101 79.5957 74.4198 80.1784 73.4706 80.1232C72.601 80.0731 72.7433 79.4716 72.7364 78.9497C72.7205 77.7114 72.7319 76.4724 72.7302 75.2358ZM47.9357 69.8726C47.7934 70.0411 47.6739 70.3051 47.5487 70.3074C45.2928 70.3387 45.9188 72.0227 45.8608 73.2718C45.8056 74.4356 45.8608 75.6051 45.8443 76.7724C45.8272 77.9322 45.9279 79.0101 47.3393 79.3179C47.7439 79.4056 47.9283 79.6389 47.8441 80.043C47.7513 80.4891 47.3956 80.4715 47.0433 80.4669C45.4214 80.4385 44.2189 79.2918 44.1711 77.6129C44.1222 75.8977 44.1888 74.1784 44.1483 72.4649C44.1273 71.651 44.5501 70.6124 43.2378 70.2898C43.0938 70.255 43.0426 69.847 42.9487 69.6142C44.6992 69.0651 43.9731 67.5552 44.2132 66.4096C44.327 65.8673 44.8421 65.7188 45.3287 65.6727C45.8209 65.626 45.8249 66.0244 45.8408 66.3573C45.9057 67.6776 45.2222 69.4446 47.6529 69.3485C47.7342 69.3456 47.8293 69.6689 47.9357 69.8726Z" fill="#191919"/>
</svg>
