<svg width="101" height="101" viewBox="0 0 101 101" fill="none" xmlns="http://www.w3.org/2000/svg">
<path d="M50.9578 46.9257C53.7056 46.9257 55.9332 44.6486 55.9332 41.8397C55.9332 39.0308 53.7056 36.7538 50.9578 36.7538C48.21 36.7538 45.9824 39.0308 45.9824 41.8397C45.9824 44.6486 48.21 46.9257 50.9578 46.9257Z" fill="#191919"/>
<path d="M50.9579 60.5428C54.8633 64.4256 58.7152 66.7225 61.8181 66.7225C62.8346 66.7225 63.7975 66.5037 64.6 66.0115C67.3819 64.3709 68.3984 60.2693 67.4354 54.4178C67.2749 53.3787 67.0609 52.3397 66.7935 51.2459C67.8634 50.9178 68.8264 50.5897 69.7894 50.2615C75.1927 48.1287 78.1887 45.1756 78.1887 41.949C78.1887 38.6678 75.1927 35.7147 69.7894 33.6365C68.8264 33.2537 67.8634 32.9256 66.7935 32.6522C67.0609 31.5584 67.2749 30.5193 67.4354 29.4803C68.3449 23.5193 67.3284 19.3631 64.5465 17.7225C63.744 17.2303 62.7811 17.0115 61.7646 17.0115C58.7152 17.0115 54.8098 19.3084 50.9044 23.1912C47.0525 19.3084 43.2006 17.0115 40.0976 17.0115C39.0812 17.0115 38.1182 17.2303 37.3157 17.7225C34.5338 19.3631 33.5173 23.4647 34.4803 29.3162C34.6408 30.3553 34.8548 31.3943 35.1223 32.4881C34.0523 32.8162 33.0893 33.1443 32.1263 33.4725C26.723 35.6053 23.7271 38.5584 23.7271 41.785C23.7271 45.0662 26.723 48.0193 32.1263 50.0975C33.0893 50.4803 34.0523 50.8084 35.1223 51.0818C34.8548 52.1756 34.6408 53.2147 34.4803 54.2537C33.5708 60.1053 34.5873 64.2615 37.3157 65.8475C38.1182 66.3397 39.0812 66.5584 40.0976 66.5584C43.2006 66.6678 47.0525 64.3709 50.9579 60.5428ZM47.9619 53.16C48.9249 53.2147 49.9414 53.2147 50.9579 53.2147C51.9743 53.2147 52.9908 53.2147 53.9538 53.16C52.9908 54.4725 51.9743 55.6756 50.9579 56.824C49.9414 55.6756 48.9249 54.4725 47.9619 53.16ZM41.3281 47.5272C41.8631 48.4568 42.3446 49.3318 42.9331 50.2068C41.2746 49.9881 39.7231 49.7147 38.2252 49.3865C38.7067 47.91 39.2417 46.3787 39.8836 44.8475C40.3116 45.7225 40.7931 46.6522 41.3281 47.5272ZM38.2252 34.3475C39.7231 34.0193 41.2746 33.7459 42.9331 33.5272C42.3981 34.4022 41.8631 35.2772 41.3281 36.2068C40.7931 37.1365 40.3116 38.0115 39.8836 38.9412C39.1882 37.3553 38.6532 35.824 38.2252 34.3475ZM41.1676 41.8397C41.8631 40.3631 42.6121 38.8865 43.468 37.41C44.2705 35.9881 45.18 34.5662 46.0895 33.1443C47.6944 33.035 49.2994 32.9803 50.9579 32.9803C52.6698 32.9803 54.2748 33.035 55.8262 33.1443C56.7892 34.5662 57.6452 35.9881 58.4477 37.41C59.3036 38.8865 60.0526 40.3631 60.7481 41.8397C60.0526 43.3162 59.3036 44.7928 58.4477 46.2693C57.6452 47.6912 56.7357 49.1131 55.8262 50.535C54.2213 50.6443 52.6163 50.699 50.9579 50.699C49.2459 50.699 47.6409 50.6443 46.0895 50.535C45.1265 49.1131 44.2705 47.6912 43.468 46.2693C42.6121 44.7928 41.8631 43.3162 41.1676 41.8397ZM62.0856 38.8865L60.6411 36.1522C60.1061 35.2225 59.6246 34.3475 59.0362 33.4725C60.6946 33.6912 62.2461 33.9647 63.744 34.2928C63.2625 35.824 62.7276 37.3553 62.0856 38.8865ZM62.0856 44.7928C62.7276 46.324 63.2625 47.8553 63.744 49.3318C62.2461 49.66 60.6946 49.9334 59.0362 50.1522C59.5711 49.2772 60.1061 48.4022 60.6411 47.4725C61.1226 46.6522 61.6041 45.7225 62.0856 44.7928ZM63.316 63.7693C62.8881 64.0428 62.3531 64.1522 61.7646 64.1522C59.1431 64.1522 55.8797 61.9647 52.6698 58.6834C54.2213 56.9881 55.7192 55.074 57.2172 52.9412C59.7316 52.7225 62.1391 52.3397 64.386 51.7928C64.6535 52.7772 64.814 53.7615 64.9745 54.7459C65.7235 59.3943 65.135 62.7303 63.316 63.7693ZM66.098 34.949C72.0898 36.699 75.6742 39.3787 75.6742 41.8397C75.6742 43.9725 73.2133 46.1053 68.8799 47.8006C68.0239 48.1287 67.061 48.4568 66.098 48.7303C65.4025 46.4881 64.5465 44.1912 63.4765 41.8397C64.5465 39.4881 65.456 37.1912 66.098 34.949ZM61.8181 19.5272C62.4066 19.5272 62.8881 19.6365 63.3695 19.91C65.135 20.949 65.777 24.2303 65.028 28.9334C64.8675 29.8631 64.6535 30.8475 64.4395 31.8865C62.1926 31.3943 59.7851 31.0115 57.2707 30.7381C55.8262 28.6053 54.2748 26.6912 52.7233 24.9959C55.9332 21.7693 59.1967 19.5272 61.8181 19.5272ZM53.9538 30.5193C52.9908 30.4647 51.9743 30.4647 50.9579 30.4647C49.9414 30.4647 48.9249 30.4647 47.9619 30.5193C48.9249 29.2068 49.9414 28.0037 50.9579 26.8553C51.9743 28.0037 52.9908 29.2615 53.9538 30.5193ZM38.5997 19.91C39.0277 19.6365 39.5626 19.5272 40.1511 19.5272C42.7726 19.5272 46.036 21.7147 49.2459 24.9959C47.6944 26.6912 46.1965 28.6053 44.6985 30.7381C42.1841 30.9568 39.7766 31.3397 37.5297 31.8865C37.2622 30.9022 37.1017 29.9178 36.9412 28.9334C36.1922 24.285 36.7807 21.0037 38.5997 19.91ZM35.8177 48.7303C29.8259 46.9803 26.2415 44.3006 26.2415 41.8397C26.2415 39.7068 28.7024 37.574 33.0358 35.8787C33.8918 35.5506 34.8548 35.2225 35.8177 34.949C36.5132 37.1912 37.3692 39.4881 38.4392 41.8397C37.3692 44.1912 36.4597 46.5428 35.8177 48.7303ZM36.9412 54.7459C37.1017 53.8162 37.3157 52.8318 37.5297 51.7928C39.7766 52.285 42.1841 52.6678 44.6985 52.9412C46.143 55.074 47.6944 56.9881 49.2459 58.6834C46.036 61.91 42.7726 64.1522 40.1511 64.1522C39.5626 64.1522 39.0812 64.0428 38.5997 63.7693C36.7807 62.7303 36.1922 59.3943 36.9412 54.7459ZM34.6943 77.2772C35.8712 75.8006 35.9247 74.16 35.2828 72.5193C34.6408 70.8787 33.3033 70.1131 31.6448 70.0584C29.6654 70.0037 27.6325 70.0584 25.653 70.0584H25.2785V84.2225H26.8835V78.8631H29.3979C29.7189 78.8631 29.9864 78.9725 30.1469 79.2459L33.3568 84.3318C33.4103 84.4412 33.5708 84.6053 33.6778 84.6053H35.7642C34.4803 82.5818 33.2498 80.6678 31.9658 78.699C33.0893 78.535 34.0523 78.1522 34.6943 77.2772ZM26.8835 77.1678V71.7537H27.472C28.7024 71.7537 29.9864 71.699 31.2169 71.8084C32.6613 71.8631 33.6778 73.0115 33.6778 74.4881C33.6778 75.9647 32.5008 77.1131 31.0564 77.1678C29.7724 77.2225 28.4884 77.1678 26.8835 77.1678ZM47.5874 77.8787C46.7315 74.0506 43.3076 73.0662 40.6861 74.2693C38.6532 75.199 37.7437 77.0037 37.6902 79.2459C37.6367 80.9412 38.1182 82.4725 39.4022 83.6209C40.8466 84.9334 42.6121 85.0975 44.431 84.7693C45.4475 84.5506 46.357 84.0584 47.0525 83.2928C46.785 82.91 46.5175 82.5272 46.25 82.199C44.752 83.5115 43.0936 83.949 41.2746 83.074C40.0976 82.4725 39.5091 80.9959 39.4022 79.9022H47.6944V79.1912C47.7479 78.699 47.6944 78.2615 47.5874 77.8787ZM39.5091 78.7537C39.3487 77.1131 40.9536 75.3631 42.7191 75.3631C44.752 75.3084 46.036 76.5662 46.0895 78.7537H39.5091ZM55.9332 73.9959C55.1308 73.8318 54.2748 73.7772 53.4723 73.8318C52.1883 73.9412 51.0649 74.5428 50.1554 75.5272C50.4229 75.91 50.6369 76.2928 50.9579 76.7303C51.0649 76.6209 51.1719 76.5115 51.2788 76.4568C52.1348 75.6365 53.1513 75.199 54.3818 75.3084C55.3447 75.3631 56.2542 75.6912 56.5217 76.6756C56.7357 77.4412 56.6822 78.2615 56.7357 79.0818C56.5752 79.0818 56.5217 79.0272 56.4682 78.9725C55.1843 77.8787 53.7398 77.66 52.1883 78.0428C50.7439 78.4256 49.8344 79.574 49.7274 81.0506C49.6204 82.7459 50.3694 84.0037 51.8138 84.6053C52.7233 84.9881 53.7398 84.9881 54.7028 84.7693C55.4517 84.6053 55.7727 84.1678 56.8427 83.5662V84.2772H58.3407C58.3407 82.0897 58.3942 79.41 58.3407 76.8943C58.3407 75.3084 57.4312 74.324 55.9332 73.9959ZM56.6822 80.8865C56.6287 81.0506 56.6822 81.2147 56.6822 81.3787C56.6822 82.5272 56.4147 82.91 55.3447 83.3475C54.5958 83.6209 53.7933 83.7303 52.9908 83.4568C52.0813 83.1834 51.4393 82.3631 51.4393 81.4334C51.3858 80.5037 51.9743 79.574 52.8838 79.3006C54.1143 78.8631 55.2377 79.1365 56.2542 79.9022C56.5752 80.1756 56.7892 80.449 56.6822 80.8865ZM65.028 75.4725C66.419 75.035 67.7029 75.3084 68.6659 76.5115L68.8264 76.6209C69.2009 76.2928 69.5219 75.9647 69.9499 75.5818C69.7894 75.4178 69.7359 75.3084 69.6289 75.1443C68.0774 73.449 65.028 73.2303 63.1556 74.5975C60.5341 76.5662 60.5876 80.3943 61.8716 82.4178C63.102 84.3318 64.8675 84.9881 66.954 84.7147C68.1844 84.5506 69.2009 83.949 70.0034 82.91C69.6289 82.5818 69.2544 82.2537 68.8799 81.8709C68.7729 81.9803 68.7194 82.035 68.6659 82.1443C67.2214 83.785 64.814 83.6209 63.53 81.8709C62.7811 80.8318 62.6206 79.6287 62.8346 78.4256C62.9416 77.0584 63.637 75.9647 65.028 75.4725ZM76.1557 82.91C76.0487 82.9647 75.9952 83.0193 75.9952 83.0193C75.5672 83.3475 75.1392 83.4022 74.6578 83.2381C74.1763 83.0193 74.1228 82.5818 74.0693 82.1443V75.91C74.0693 75.8006 74.0693 76.0193 74.1228 75.4725H76.1557V73.8318H74.0158V71.0975H72.4108V74.0506H71.0198C70.9129 74.0506 70.7524 74.16 70.7524 74.2693C70.6989 74.6522 70.7524 74.9256 70.7524 75.4725H72.4643V82.4725C72.4643 83.3475 72.6783 84.1131 73.4273 84.5506C74.2298 85.0428 75.7812 84.9334 76.4767 84.3318C76.5837 84.2772 76.6372 84.0584 76.6372 84.0037C76.4767 83.6756 76.3162 83.2928 76.1557 82.91Z" fill="#191919"/>
</svg>
