<svg width="101" height="101" viewBox="0 0 101 101" fill="none" xmlns="http://www.w3.org/2000/svg">
<g clip-path="url(#clip0_2336_10592)">
<g clip-path="url(#clip1_2336_10592)">
<path d="M27.592 23.9313C27.7191 23.9312 27.8463 23.9311 27.9734 23.9309C28.3233 23.9306 28.6732 23.9307 29.0231 23.9309C29.4036 23.931 29.7841 23.9307 30.1645 23.9305C30.8315 23.9302 31.4985 23.9301 32.1655 23.9301C32.8811 23.9302 33.5967 23.9301 34.3123 23.9299C34.3575 23.9299 34.4027 23.9299 34.4493 23.9298C34.6335 23.9298 34.8176 23.9297 35.0018 23.9297C36.9223 23.929 38.8428 23.9288 40.7634 23.9287C40.97 23.9287 41.1767 23.9287 41.3834 23.9287C41.4347 23.9287 41.4859 23.9287 41.5388 23.9287C42.6752 23.9287 43.8116 23.9285 44.948 23.9284C45.4159 23.9283 45.8838 23.9282 46.3518 23.9282C46.4035 23.9282 46.4551 23.9282 46.5084 23.9282C49.4706 23.9277 52.4329 23.9275 55.3951 23.9275C55.5059 23.9275 55.6168 23.9275 55.7276 23.9275C56.2281 23.9275 56.7285 23.9275 57.229 23.9275C57.4521 23.9275 57.6753 23.9275 57.8985 23.9275C58.0102 23.9275 58.1219 23.9275 58.2336 23.9275C61.7675 23.9276 65.3014 23.9271 68.8354 23.9262C69.7261 23.9259 70.6169 23.9257 71.5077 23.9255C71.59 23.9254 71.59 23.9254 71.6739 23.9254C73.3635 23.925 75.0531 23.9248 76.7427 23.9247C76.7957 23.9247 76.8487 23.9247 76.9034 23.9247C78.0671 23.9246 79.2309 23.9246 80.3947 23.9246C80.8111 23.9246 81.2275 23.9246 81.6439 23.9246C81.7475 23.9246 81.8511 23.9246 81.9547 23.9246C83.6069 23.9246 85.2591 23.9243 86.9113 23.9237C88.5744 23.9231 90.2376 23.923 91.9008 23.9234C92.1304 23.9235 92.3599 23.9235 92.5895 23.9236C92.6345 23.9236 92.6795 23.9236 92.7258 23.9236C93.3961 23.9237 94.0665 23.9235 94.7367 23.9231C95.4816 23.9226 96.2265 23.9225 96.9714 23.9231C97.3468 23.9233 97.7223 23.9234 98.0977 23.9228C98.4387 23.9224 98.7796 23.9225 99.1206 23.9231C99.2437 23.9232 99.3669 23.9231 99.49 23.9227C99.6562 23.9223 99.8225 23.9227 99.9887 23.9232C100.061 23.9227 100.061 23.9227 100.135 23.9222C100.375 23.924 100.558 23.9338 100.76 24.0733C100.952 24.3028 100.992 24.5155 100.987 24.8135C100.919 25.263 100.704 25.6819 100.525 26.0959C100.48 26.202 100.435 26.3081 100.39 26.4143C100.297 26.6353 100.204 26.8561 100.109 27.0767C99.9073 27.5522 99.7115 28.0304 99.5155 28.5086C99.4534 28.6598 99.391 28.8109 99.3285 28.962C99.1433 29.4098 98.9597 29.858 98.7819 30.3089C98.7521 30.3835 98.7224 30.4581 98.6918 30.5349C98.6379 30.6704 98.5847 30.8063 98.5325 30.9424C98.4017 31.2695 98.3011 31.4922 97.9895 31.6799C97.7624 31.7564 97.5881 31.7549 97.3484 31.755C97.28 31.7551 97.2799 31.7551 97.2102 31.7553C97.0559 31.7555 96.9017 31.7553 96.7474 31.7551C96.6358 31.7552 96.5242 31.7553 96.4126 31.7554C96.1037 31.7557 95.7947 31.7556 95.4857 31.7554C95.1504 31.7553 94.8151 31.7555 94.4798 31.7558C93.8914 31.7561 93.303 31.7562 92.7145 31.7561C91.8394 31.756 90.9643 31.7563 90.0892 31.7566C88.9764 31.7571 87.8637 31.7575 86.7509 31.7577C86.7067 31.7577 86.6626 31.7577 86.617 31.7577C86.4376 31.7577 86.2581 31.7577 86.0787 31.7578C83.8849 31.7581 81.6912 31.7591 79.4974 31.7603C78.984 31.7606 78.4706 31.7609 77.9573 31.7612C77.8632 31.7613 77.7692 31.7613 77.6751 31.7614C77.4865 31.7615 77.2978 31.7616 77.1091 31.7617C76.9197 31.7618 76.7303 31.7619 76.541 31.762C74.3556 31.7632 72.1702 31.7644 69.9848 31.7654C69.8366 31.7655 69.6884 31.7655 69.5402 31.7656C67.2597 31.7667 64.9792 31.7675 62.6988 31.7679C62.6253 31.7679 62.6253 31.7679 62.5503 31.768C61.7604 31.7681 60.9705 31.7682 60.1806 31.7683C57.9039 31.7687 55.6271 31.7692 53.3504 31.7706C53.3035 31.7707 53.2566 31.7707 53.2083 31.7707C52.2252 31.7713 51.2421 31.772 50.2589 31.7727C49.7984 31.7731 49.3379 31.7734 48.8775 31.7737C48.8094 31.7738 48.8094 31.7738 48.7401 31.7738C47.2825 31.7749 45.8249 31.775 44.3673 31.7747C42.8566 31.7744 41.3459 31.775 39.8352 31.7767C38.9652 31.7777 38.0952 31.7779 37.2252 31.777C36.6429 31.7765 36.0606 31.777 35.4784 31.7782C35.1473 31.7789 34.8163 31.7791 34.4852 31.7782C30.6008 31.7682 26.9494 32.5607 24.105 35.4177C22.3045 37.2892 21.2229 39.7823 20.8787 42.3557C20.8726 42.3987 20.8665 42.4418 20.8602 42.4861C20.4654 45.5577 21.2131 48.9203 23.0844 51.3884C23.2829 51.6435 23.2829 51.6435 23.5031 51.8789C23.5832 51.9639 23.5832 51.9639 23.5832 52.0974C23.6267 52.0974 23.6703 52.0974 23.7151 52.0974C23.7989 52.186 23.7989 52.186 23.9006 52.3142C24.1235 52.5801 24.3647 52.8168 24.618 53.0523C24.6733 53.1039 24.6733 53.1039 24.7296 53.1565C24.8793 53.2947 25.028 53.4272 25.1923 53.5473C25.2273 53.5752 25.2622 53.6032 25.2982 53.632C25.2982 53.676 25.2982 53.7201 25.2982 53.7654C25.334 53.7796 25.3697 53.7938 25.4065 53.8085C25.6184 53.9316 25.7735 54.1017 25.9414 54.2784C26.2062 54.5521 26.4747 54.8132 26.7631 55.0616C26.9254 55.2057 27.0746 55.3614 27.2259 55.5172C27.3474 55.638 27.4736 55.7507 27.6028 55.8631C27.7881 56.0245 27.9631 56.1915 28.1347 56.3677C28.3022 56.5398 28.4727 56.7028 28.6541 56.8598C28.9339 57.1023 29.19 57.3662 29.4472 57.6328C29.5747 57.7716 29.5747 57.7716 29.7178 57.8356C29.7178 57.8796 29.7178 57.9237 29.7178 57.9691C29.7544 57.9842 29.7911 57.9993 29.8288 58.0149C30.0255 58.1277 30.1589 58.2716 30.3156 58.4361C30.4866 58.6151 30.6341 58.7649 30.8391 58.9032C30.8391 58.9472 30.8391 58.9913 30.8391 59.0366C30.8769 59.0529 30.9146 59.0691 30.9535 59.0859C31.1297 59.1851 31.244 59.3022 31.3833 59.4495C31.5699 59.6429 31.7574 59.8286 31.9605 60.0041C32.2052 60.2163 32.4308 60.4437 32.6552 60.6776C32.833 60.853 33.0187 61.0165 33.2063 61.1811C33.431 61.3811 33.6478 61.5893 33.8652 61.7973C34.222 62.1382 34.5821 62.4729 34.9536 62.7974C35.0608 62.9066 35.0608 62.9066 35.0608 63.0401C35.117 63.0641 35.117 63.0641 35.1744 63.0885C35.3551 63.1908 35.4742 63.3144 35.6173 63.4654C35.7714 63.6259 35.9134 63.7703 36.0914 63.9033C36.6347 64.3805 36.8902 65.0315 36.9987 65.7385C37.0284 66.2795 36.8268 66.7977 36.4831 67.2061C36.4061 67.2867 36.3279 67.3661 36.2481 67.4438C36.1991 67.4934 36.1502 67.5429 36.0997 67.594C35.3846 68.0542 34.6424 68.0156 33.826 68.012C33.6863 68.0123 33.5466 68.0128 33.407 68.0134C33.0243 68.0146 32.6417 68.0142 32.259 68.0135C31.8459 68.013 31.4328 68.0141 31.0197 68.015C30.2577 68.0163 29.4957 68.0165 28.7337 68.016C28.0299 68.0155 27.3261 68.0155 26.6223 68.0159C26.5278 68.016 26.4334 68.0161 26.3389 68.0161C26.1966 68.0162 26.0542 68.0163 25.9119 68.0164C24.589 68.0173 23.2661 68.0176 21.9432 68.0168C21.8685 68.0168 21.8685 68.0168 21.7922 68.0167C21.3875 68.0165 20.9828 68.0163 20.5781 68.016C18.9984 68.015 17.4187 68.0156 15.839 68.0175C14.0638 68.0196 12.2886 68.0206 10.5134 68.0199C10.3242 68.0198 10.1351 68.0197 9.94587 68.0197C9.89929 68.0197 9.85271 68.0196 9.80472 68.0196C9.10112 68.0194 8.39752 68.02 7.69392 68.0211C6.8942 68.0222 6.09449 68.0222 5.29477 68.0207C4.88659 68.02 4.47842 68.0198 4.07023 68.021C3.69685 68.0221 3.3235 68.0217 2.95012 68.02C2.81479 68.0197 2.67946 68.02 2.54413 68.0208C2.36062 68.0219 2.17723 68.0209 1.99373 68.0194C1.94079 68.0202 1.88786 68.021 1.83332 68.0219C1.4547 68.0155 1.28849 67.9189 1.02383 67.644C0.878179 67.3493 0.919404 66.9786 1.00721 66.6698C1.07881 66.4843 1.15686 66.3032 1.23821 66.1219C1.29969 65.9789 1.3611 65.8359 1.42245 65.6929C1.45471 65.6187 1.48696 65.5444 1.5202 65.468C1.68032 65.096 1.83199 64.7206 1.98442 64.3454C2.05137 64.1815 2.11836 64.0176 2.1854 63.8538C2.22135 63.7659 2.25729 63.678 2.29324 63.5901C2.97199 61.9307 3.65291 60.2722 4.33625 58.6147C4.59059 57.9977 4.8447 57.3807 5.09883 56.7637C5.16068 56.6135 5.22253 56.4634 5.28438 56.3132C5.31392 56.2415 5.31392 56.2415 5.34405 56.1683C5.45551 55.8977 5.56703 55.6272 5.67861 55.3567C6.0204 54.5278 6.36077 53.6984 6.70078 52.8688C6.72463 52.8107 6.74847 52.7525 6.77304 52.6925C7.01862 52.0934 7.26412 51.4942 7.50945 50.8949C7.62877 50.6034 7.74813 50.312 7.8675 50.0206C7.89106 49.9631 7.91461 49.9056 7.93888 49.8463C8.2349 49.1238 8.53246 48.402 8.83221 47.6811C9.20774 46.7777 9.5776 45.872 9.94697 44.9661C10.3869 43.8874 10.8294 42.8097 11.2736 41.7328C11.6607 40.7941 12.0466 39.8549 12.4313 38.9152C12.7832 38.0557 13.137 37.197 13.4936 36.3394C13.7218 35.7902 13.9478 35.24 14.1727 34.6893C14.3649 34.2188 14.5579 33.7485 14.7513 33.2784C14.8488 33.0414 14.9462 32.8043 15.0423 32.5667C15.7998 30.6964 16.8313 29.166 18.2402 27.7431C18.2807 27.6991 18.3211 27.6551 18.3628 27.6097C19.1564 26.7605 20.1422 26.113 21.1426 25.5413C21.2061 25.5048 21.2061 25.5048 21.2709 25.4676C23.2131 24.3728 25.39 23.9286 27.592 23.9313Z" fill="#191919"/>
<path d="M33.258 41.6631C33.319 41.6627 33.3799 41.6624 33.4426 41.6621C33.6459 41.6613 33.8491 41.6619 34.0524 41.6626C34.1999 41.6623 34.3474 41.6619 34.495 41.6615C34.8997 41.6605 35.3044 41.6608 35.7092 41.6613C36.1011 41.6616 36.4929 41.6609 36.8848 41.6603C37.7355 41.659 38.5862 41.6588 39.4368 41.6592C40.1811 41.6595 40.9253 41.6594 41.6696 41.659C41.7694 41.659 41.8693 41.6589 41.9692 41.6589C42.1196 41.6588 42.2701 41.6587 42.4206 41.6587C43.8191 41.6579 45.2177 41.6576 46.6162 41.6582C46.6689 41.6582 46.7216 41.6582 46.7759 41.6582C47.2039 41.6584 47.6318 41.6586 48.0598 41.6587C49.7302 41.6594 51.4007 41.6588 53.0711 41.6573C54.9479 41.6556 56.8248 41.6547 58.7016 41.6552C58.9016 41.6552 59.1015 41.6553 59.3015 41.6553C59.3507 41.6553 59.4 41.6553 59.4507 41.6553C60.1948 41.6555 60.9388 41.655 61.6829 41.6541C62.5285 41.6531 63.3741 41.653 64.2198 41.6542C64.6515 41.6548 65.0831 41.6549 65.5148 41.6539C65.9096 41.653 66.3044 41.6533 66.6991 41.6546C66.8423 41.6549 66.9855 41.6547 67.1287 41.654C67.3226 41.6531 67.5165 41.6538 67.7104 41.655C67.7666 41.6544 67.8228 41.6537 67.8807 41.6531C68.1461 41.6564 68.2746 41.6677 68.5032 41.8164C68.7003 42.0222 68.761 42.1385 68.7857 42.4261C68.7637 42.7574 68.6623 43.0076 68.5335 43.3101C68.5087 43.3701 68.484 43.4302 68.4584 43.492C68.3769 43.689 68.2943 43.8856 68.2117 44.0821C68.1543 44.2202 68.097 44.3584 68.0399 44.4965C67.9225 44.7798 67.8048 45.0629 67.6867 45.3459C67.4574 45.896 67.2321 46.4477 67.0067 46.9995C66.892 47.2801 66.7769 47.5606 66.6618 47.8411C66.6283 47.9228 66.6283 47.9228 66.594 48.0062C66.3354 48.6363 66.0758 49.266 65.8162 49.8957C65.4449 50.7966 65.0754 51.6983 64.7069 52.6005C63.93 54.5021 63.153 56.4037 62.3698 58.3027C61.7098 59.9035 61.0528 61.5057 60.4033 63.111C59.8154 64.5638 59.2174 66.0123 58.6195 67.461C58.4251 67.932 58.231 68.4031 58.0369 68.8742C58.0173 68.9217 57.9978 68.9691 57.9776 69.018C57.3516 70.5376 56.7287 72.0586 56.1067 73.5799C55.8312 74.2537 55.5555 74.9275 55.2788 75.6008C55.2394 75.6968 55.2394 75.6968 55.1993 75.7946C55.082 76.0798 54.9635 76.3645 54.8418 76.6478C54.8219 76.6942 54.802 76.7406 54.7815 76.7885C54.5469 77.2701 54.1557 77.5595 53.6628 77.7481C53.1772 77.8876 52.6384 77.8372 52.139 77.8315C51.9992 77.8314 51.8594 77.8314 51.7195 77.8317C51.3419 77.8318 50.9643 77.8294 50.5867 77.8266C50.1914 77.8241 49.796 77.8239 49.4006 77.8234C48.6528 77.8222 47.9051 77.8189 47.1573 77.8149C46.3056 77.8104 45.4539 77.8082 44.6022 77.8062C42.851 77.802 41.0999 77.795 39.3487 77.786C39.3392 77.6273 39.3392 77.6273 39.3487 77.4524C39.4809 77.3403 39.5939 77.2672 39.7445 77.1855C40.9012 76.5568 41.8883 75.8292 42.8447 74.9169C42.9223 74.8439 42.9223 74.8439 43.0014 74.7694C45.1597 72.672 46.6884 69.3206 46.75 66.2874C46.7679 64.786 46.7679 64.786 46.5387 63.307C46.519 63.2246 46.519 63.2246 46.499 63.1406C45.9545 60.9338 44.9139 59.0082 43.4384 57.3018C43.3816 57.2319 43.3249 57.1619 43.2684 57.0917C43.1361 56.9342 43.0083 56.8009 42.853 56.6679C42.7859 56.6097 42.7859 56.6097 42.7175 56.5504C42.6268 56.4734 42.5357 56.3967 42.4443 56.3205C42.4023 56.2852 42.3603 56.2498 42.317 56.2134C42.2789 56.182 42.2409 56.1506 42.2016 56.1182C42.1192 56.0341 42.1192 56.0341 42.1192 55.9006C42.0605 55.8742 42.0605 55.8742 42.0006 55.8472C41.85 55.7642 41.7581 55.6802 41.6409 55.5545C41.4793 55.3858 41.3145 55.2275 41.138 55.0749C40.8908 54.8596 40.6621 54.6298 40.435 54.3931C40.2576 54.2181 40.0723 54.055 39.8851 53.8908C39.6528 53.6838 39.4289 53.468 39.2044 53.2525C38.868 52.9309 38.531 52.6102 38.1902 52.2934C37.8739 51.999 37.5595 51.7026 37.2461 51.4051C37.2022 51.3634 37.1582 51.3217 37.1129 51.2787C36.9326 51.1076 36.7523 50.9364 36.5722 50.7651C36.4382 50.6377 36.3042 50.5105 36.1701 50.3834C36.1298 50.3449 36.0894 50.3065 36.0479 50.2669C35.8786 50.1065 35.7113 49.9548 35.5277 49.8108C35.4826 49.7727 35.4374 49.7345 35.3909 49.6953C35.3909 49.6513 35.3909 49.6072 35.3909 49.5618C35.3552 49.5477 35.3195 49.5335 35.2827 49.5188C35.0708 49.3957 34.9155 49.2257 34.7478 49.0489C34.4902 48.779 34.2245 48.5264 33.9438 48.2811C33.7155 48.0789 33.4962 47.8672 33.276 47.656C33.1778 47.5623 33.0796 47.4685 32.9815 47.3748C32.9079 47.3045 32.9079 47.3045 32.8328 47.2328C32.6058 47.0161 32.3783 46.8 32.1505 46.5843C32.1115 46.5473 32.0726 46.5102 32.0325 46.4721C31.8436 46.2934 31.6526 46.1209 31.4532 45.9543C30.9601 45.5296 30.6316 44.8987 30.555 44.2495C30.525 43.5789 30.7413 43.0055 31.1664 42.4938C31.7591 41.8863 32.4267 41.6563 33.258 41.6631Z" fill="#191919"/>
<path d="M80.7203 41.6702C80.8004 41.6696 80.8004 41.6696 80.8821 41.6691C81.0605 41.6681 81.2388 41.6681 81.4171 41.668C81.5452 41.6675 81.6733 41.6669 81.8014 41.6663C82.1489 41.6649 82.4965 41.6643 82.844 41.6639C83.0611 41.6637 83.2782 41.6633 83.4954 41.6628C84.2529 41.6612 85.0103 41.6603 85.7678 41.6601C86.474 41.6598 87.1801 41.6578 87.8863 41.655C88.4926 41.6527 89.099 41.6517 89.7054 41.6516C90.0675 41.6516 90.4296 41.651 90.7917 41.6491C91.1322 41.6474 91.4726 41.6472 91.813 41.6483C91.938 41.6484 92.0629 41.648 92.1878 41.6469C92.3584 41.6455 92.5289 41.6462 92.6995 41.6474C92.7489 41.6466 92.7983 41.6457 92.8492 41.6448C93.227 41.6509 93.3807 41.7601 93.636 42.0221C93.7645 42.282 93.7376 42.5695 93.6569 42.841C93.5885 43.0165 93.5144 43.1885 93.4381 43.3607C93.3775 43.5027 93.3169 43.6448 93.2565 43.7869C93.2226 43.866 93.1888 43.945 93.1539 44.0265C92.9587 44.4861 92.7741 44.9502 92.5874 45.4134C92.271 46.1977 91.9525 46.981 91.6242 47.7603C91.3336 48.4501 91.0513 49.1431 90.7708 49.8371C90.3677 50.834 89.9605 51.829 89.5504 52.823C89.5226 52.8905 89.4948 52.958 89.4661 53.0275C89.4383 53.0949 89.4104 53.1624 89.3818 53.2319C89.3258 53.3675 89.2699 53.5032 89.2139 53.6388C89.1864 53.7055 89.1589 53.7723 89.1305 53.841C88.8545 54.5105 88.5798 55.1805 88.3054 55.8506C87.8328 57.0044 87.3585 58.1574 86.8833 59.31C86.7039 59.7451 86.5246 60.1803 86.3454 60.6155C86.2216 60.9162 86.0977 61.2169 85.9735 61.5174C85.5766 62.4786 85.1837 63.4414 84.791 64.4043C84.4762 65.1761 84.1605 65.9474 83.8428 66.718C83.7984 66.8258 83.7984 66.8258 83.753 66.9358C83.6103 67.282 83.4674 67.6282 83.3243 67.9743C83.2719 68.1011 83.2196 68.228 83.1672 68.3548C83.1423 68.4151 83.1174 68.4754 83.0918 68.5376C82.9463 68.8908 82.8049 69.2454 82.6663 69.6015C82.5278 69.9537 82.3791 70.293 82.1997 70.6258C82.1745 70.673 82.1493 70.7203 82.1234 70.769C81.8956 71.1904 81.6431 71.5904 81.3669 71.9811C81.3209 72.0467 81.2749 72.1124 81.2275 72.18C80.9142 72.615 80.5756 73.012 80.2113 73.4029C80.0474 73.5783 80.0474 73.5783 79.9085 73.7594C79.7173 73.9996 79.4879 74.1842 79.2561 74.3832C79.1933 74.4392 79.1306 74.4951 79.0659 74.5528C78.5445 75.0151 77.9995 75.4169 77.4091 75.7844C77.3652 75.8118 77.3213 75.8392 77.2761 75.8675C75.012 77.2596 72.4652 77.8064 69.8432 77.8085C69.7156 77.8089 69.588 77.8094 69.4604 77.8098C69.1955 77.8106 68.9306 77.8109 68.6657 77.8108C68.3267 77.8108 67.9878 77.8126 67.6488 77.8149C67.3864 77.8164 67.124 77.8167 66.8616 77.8166C66.7365 77.8167 66.6115 77.8173 66.4864 77.8184C66.3122 77.8197 66.1381 77.8193 65.9638 77.8185C65.9127 77.8192 65.8616 77.82 65.809 77.8208C65.4664 77.8167 65.2725 77.7373 65.0081 77.5192C64.8364 77.2903 64.8638 77.0645 64.8761 76.7852C65.0498 76.1294 65.3468 75.4965 65.6101 74.8727C65.7271 74.5956 65.8431 74.318 65.9591 74.0404C65.9836 73.9818 66.0081 73.9232 66.0334 73.8629C66.3209 73.1747 66.6025 72.4841 66.8839 71.7934C66.937 71.6633 66.99 71.5331 67.0431 71.4029C67.1225 71.2081 67.2019 71.0134 67.2813 70.8186C67.5507 70.1576 67.8211 69.4971 68.0918 68.8367C68.115 68.7803 68.1381 68.7238 68.162 68.6656C68.501 67.8387 68.8413 67.0122 69.1821 66.186C69.5754 65.2322 69.9655 64.277 70.3552 63.3217C70.6654 62.5614 70.9758 61.8013 71.2892 61.0424C71.4591 60.6309 71.6282 60.2191 71.7968 59.8071C71.8202 59.7501 71.8435 59.6932 71.8675 59.6345C71.916 59.5162 71.9644 59.3979 72.0128 59.2796C72.0372 59.2201 72.0616 59.1606 72.0867 59.0992C72.1111 59.0397 72.1354 58.9802 72.1605 58.9189C72.4693 58.165 72.7797 57.4118 73.0927 56.6596C73.4273 55.8552 73.7554 55.0482 74.0821 54.2404C74.4578 53.3119 74.8379 52.3852 75.22 51.4593C75.6618 50.3885 76.1018 49.3168 76.5392 48.2441C77.0134 47.0816 77.4886 45.9196 77.969 44.7597C78.0782 44.4956 78.186 44.2311 78.2925 43.9659C78.342 43.843 78.3918 43.7203 78.4417 43.5976C78.5012 43.4513 78.56 43.3048 78.618 43.158C78.8181 42.6691 79.0571 42.2439 79.5199 41.9679C79.5812 41.9301 79.5812 41.9301 79.6436 41.8915C80.0013 41.7139 80.3259 41.6689 80.7203 41.6702Z" fill="#191919"/>
</g>
</g>
<defs>
<clipPath id="clip0_2336_10592">
<rect width="100" height="100" fill="white" transform="translate(0.958008 0.863037)"/>
</clipPath>
<clipPath id="clip1_2336_10592">
<rect width="100" height="53.8462" fill="white" transform="translate(0.958008 23.9399)"/>
</clipPath>
</defs>
</svg>
