<svg width="101" height="101" viewBox="0 0 101 101" fill="none" xmlns="http://www.w3.org/2000/svg">
<g clip-path="url(#clip0_2336_10287)">
<g clip-path="url(#clip1_2336_10287)">
<mask id="mask0_2336_10287" style="mask-type:luminance" maskUnits="userSpaceOnUse" x="0" y="36" width="101" height="30">
<path d="M100.958 36.1964H0.958008V65.5297H100.958V36.1964Z" fill="white"/>
</mask>
<g mask="url(#mask0_2336_10287)">
<path d="M15.998 36.1964C24.328 36.1964 31.048 42.7506 31.048 50.8631C31.048 58.9755 24.328 65.5297 15.998 65.5297C7.69801 65.5395 0.968008 58.9853 0.958008 50.902C0.958008 50.8923 0.958008 50.8728 0.958008 50.8631C0.958008 42.7506 7.67801 36.1964 15.998 36.1964ZM15.998 40.1114C9.91801 40.1017 4.97801 44.8932 4.96801 50.8144C4.96801 50.8339 4.96801 50.8436 4.96801 50.8631C4.94801 56.7843 9.86801 61.605 15.948 61.6147C15.968 61.6147 15.978 61.6147 15.998 61.6147C22.078 61.6342 27.028 56.8427 27.038 50.9215C27.038 50.902 27.038 50.8826 27.038 50.8631C27.058 44.9419 22.138 40.1212 16.058 40.1114C16.038 40.1114 16.018 40.1114 15.998 40.1114ZM41.588 41.9618C41.788 41.8741 41.988 42.0592 41.988 42.1663V46.3637H50.018C50.108 46.3637 50.318 46.5683 50.318 46.6559L50.918 49.1004L51.518 51.5448L51.608 51.837L51.698 51.5448L53.208 46.6462C53.208 46.4514 53.418 46.354 53.518 46.354H57.528C57.618 46.354 57.828 46.5585 57.828 46.6462L59.428 51.837L59.528 51.5448L60.838 46.6462C60.838 46.4514 61.028 46.354 61.138 46.354H71.358C71.458 46.354 71.568 46.5585 71.568 46.6462V59.667C71.568 59.8617 71.358 59.9591 71.268 59.9591H66.148C65.958 59.9591 65.848 59.7644 65.848 59.667V47.3474L62.048 59.667C62.048 59.8423 61.898 59.9397 61.798 59.9591H57.538C57.448 59.9591 57.238 59.7644 57.238 59.667L56.438 57.0278L55.538 54.184L53.718 59.667C53.718 59.8617 53.518 59.9591 53.418 59.9591H49.208C49.108 59.9591 48.908 59.7644 48.908 59.667L45.098 47.3474V50.4735C45.098 50.678 44.888 50.7657 44.798 50.7657H41.878V54.0964C41.878 55.08 42.388 55.4695 43.288 55.4695C43.688 55.4695 44.188 55.3722 44.688 55.1676C44.778 55.08 44.988 55.1676 44.988 55.3722V59.2774C44.088 59.7741 42.788 60.0663 41.378 60.0663C38.078 60.0663 36.268 58.5957 36.268 55.3722V50.7657H34.958C34.768 50.7657 34.658 50.5709 34.658 50.4735V46.763C34.658 46.5683 34.868 46.4709 34.958 46.4709H36.268V43.8219C36.268 43.6271 36.358 43.5297 36.568 43.5297L41.588 41.9618ZM93.338 46.0716C97.748 46.0716 100.958 49.2951 100.958 53.0154C100.958 56.7258 97.748 59.9591 93.238 59.9591C88.818 59.9591 85.618 56.7356 85.618 53.0154C85.618 49.2951 88.818 46.0716 93.338 46.0716ZM78.088 41.9715C78.298 41.9715 78.388 42.0689 78.388 42.176V59.5696C78.388 59.7741 78.198 59.8617 78.088 59.8617H72.978C72.778 59.8617 72.678 59.667 72.678 59.5696V42.254C72.678 42.0592 72.878 41.9618 72.978 41.9618L78.088 41.9715ZM84.808 46.3735C85.018 46.3735 85.108 46.578 85.108 46.6656V59.4819C85.108 59.6767 84.908 59.7741 84.808 59.7741H79.698C79.498 59.7741 79.398 59.5696 79.398 59.4819V46.6462C79.398 46.4514 79.598 46.354 79.698 46.354L84.808 46.3735ZM12.288 51.4571C13.988 51.4571 15.398 52.8303 15.398 54.4859C15.398 56.1513 13.998 57.5244 12.288 57.5244C10.578 57.5244 9.17801 56.161 9.17801 54.4957C9.18801 52.8206 10.588 51.4571 12.288 51.4571ZM19.718 51.4571C21.408 51.4571 22.828 52.8303 22.828 54.4859C22.828 56.1513 21.418 57.5244 19.718 57.5244C18.018 57.5244 16.608 56.161 16.608 54.4957C16.608 52.8206 18.018 51.4571 19.718 51.4571ZM93.338 50.7754C92.038 50.7754 91.138 51.8564 91.138 53.1225C91.138 54.3983 92.138 55.4695 93.338 55.4695C94.648 55.4695 95.548 54.3983 95.548 53.1225C95.548 51.7493 94.538 50.678 93.338 50.7754ZM19.718 44.2212C21.408 44.2212 22.828 45.5846 22.828 47.25C22.828 48.9153 21.418 50.2885 19.718 50.2885C18.018 50.2885 16.608 48.9153 16.608 47.2597C16.608 45.5846 18.018 44.2212 19.718 44.2212ZM12.288 44.2212C13.988 44.2212 15.398 45.5846 15.398 47.25C15.398 48.9153 13.998 50.2885 12.288 50.2885C10.578 50.2885 9.17801 48.9153 9.17801 47.2597C9.18801 45.5846 10.588 44.2212 12.288 44.2212ZM71.468 41.9618C71.558 41.9618 71.668 42.0592 71.768 42.1663V45.2925C71.768 45.4872 71.568 45.5846 71.468 45.5846H66.148C65.958 45.5846 65.848 45.3899 65.848 45.2925V42.2637C65.848 42.0592 66.058 41.9618 66.148 41.9618H71.468ZM84.908 41.9618C85.108 41.9618 85.208 42.0592 85.208 42.1663V45.2925C85.208 45.4872 85.008 45.5846 84.908 45.5846H79.588C79.388 45.5846 79.288 45.3899 79.288 45.2925V42.2637C79.288 42.0592 79.498 41.9618 79.588 41.9618H84.908Z" fill="#191919"/>
</g>
</g>
</g>
<defs>
<clipPath id="clip0_2336_10287">
<rect width="100" height="100" fill="white" transform="translate(0.958008 0.863037)"/>
</clipPath>
<clipPath id="clip1_2336_10287">
<rect width="100" height="29.3333" fill="white" transform="translate(0.958008 36.1964)"/>
</clipPath>
</defs>
</svg>
