<svg width="101" height="101" viewBox="0 0 101 101" fill="none" xmlns="http://www.w3.org/2000/svg">
<path d="M29.8723 84.0693L28.2037 77.9147L26.5139 84.0693C26.3825 84.5361 26.2769 84.8722 26.1971 85.0776C26.122 85.2783 25.9882 85.4604 25.7958 85.6237C25.6034 85.7824 25.3475 85.8618 25.0284 85.8618C24.7702 85.8618 24.5566 85.8128 24.3877 85.7147C24.2234 85.6214 24.0896 85.4884 23.9864 85.3157C23.8831 85.1383 23.7986 84.9306 23.7329 84.6925C23.6672 84.4498 23.6085 84.2257 23.5569 84.0204L21.839 77.1097C21.7357 76.7082 21.6841 76.4025 21.6841 76.1924C21.6841 75.9264 21.778 75.7023 21.9657 75.5203C22.1535 75.3382 22.3858 75.2472 22.6627 75.2472C23.0429 75.2472 23.2987 75.3686 23.4302 75.6113C23.5616 75.854 23.6766 76.2064 23.7751 76.6686L25.1269 82.662L26.6407 77.0537C26.7533 76.6243 26.8542 76.2975 26.9434 76.0735C27.0326 75.8494 27.1781 75.6557 27.3799 75.4923C27.5818 75.3289 27.8564 75.2472 28.2037 75.2472C28.5557 75.2472 28.828 75.3336 29.0204 75.5063C29.2175 75.6743 29.3537 75.8587 29.4288 76.0594C29.5039 76.2602 29.6048 76.5916 29.7315 77.0537L31.2593 82.662L32.6111 76.6685C32.6768 76.3558 32.7379 76.1107 32.7942 75.9334C32.8552 75.756 32.9561 75.5973 33.0969 75.4572C33.2425 75.3172 33.4513 75.2472 33.7236 75.2472C33.9958 75.2472 34.2258 75.3382 34.4135 75.5203C34.606 75.6977 34.7022 75.9217 34.7022 76.1924C34.7022 76.3838 34.6506 76.6896 34.5473 77.1097L32.8294 84.0204C32.712 84.4871 32.6135 84.8302 32.5337 85.0496C32.4586 85.2643 32.3272 85.4534 32.1394 85.6168C31.9563 85.7801 31.6958 85.8618 31.3579 85.8618C31.0387 85.8618 30.7829 85.7825 30.5905 85.6238C30.398 85.4651 30.2642 85.2877 30.1891 85.0916C30.114 84.8909 30.0084 84.5501 29.8723 84.0693Z" fill="#191919"/>
<path d="M40.9603 82.4455H37.2007C37.2054 82.8796 37.2922 83.2624 37.4612 83.5938C37.6348 83.9252 37.8625 84.175 38.1441 84.343C38.4304 84.5111 38.7449 84.5951 39.0875 84.5951C39.3175 84.5951 39.5264 84.5694 39.7141 84.518C39.9066 84.462 40.092 84.378 40.2704 84.266C40.4487 84.1493 40.613 84.0256 40.7632 83.8949C40.9134 83.7642 41.1082 83.5868 41.3476 83.3628C41.4462 83.2788 41.587 83.2367 41.77 83.2367C41.9672 83.2367 42.1268 83.2904 42.2488 83.3978C42.3708 83.5051 42.4318 83.6568 42.4318 83.8529C42.4318 84.0256 42.3638 84.2286 42.2277 84.462C42.0916 84.6908 41.885 84.9125 41.6081 85.1272C41.3359 85.3373 40.9909 85.5123 40.5731 85.6524C40.1601 85.7924 39.6836 85.8624 39.1439 85.8624C37.9094 85.8624 36.9495 85.5123 36.2643 84.8122C35.579 84.112 35.2363 83.1621 35.2363 81.9625C35.2363 81.3977 35.3208 80.8749 35.4898 80.3941C35.6588 79.9087 35.9052 79.4932 36.229 79.1478C36.5529 78.8024 36.9519 78.5386 37.4259 78.3566C37.9 78.1699 38.4257 78.0765 39.003 78.0765C39.754 78.0765 40.3971 78.2352 40.9322 78.5527C41.472 78.8654 41.8756 79.2715 42.1432 79.771C42.4107 80.2704 42.5445 80.7792 42.5445 81.2973C42.5445 81.7781 42.406 82.0909 42.1291 82.2356C41.8521 82.3756 41.4625 82.4455 40.9603 82.4455ZM37.2007 81.3602H40.6858C40.6389 80.7067 40.4605 80.219 40.1508 79.8969C39.8457 79.5701 39.442 79.4068 38.9398 79.4068C38.461 79.4068 38.0667 79.5725 37.757 79.9039C37.4519 80.2307 37.2664 80.7161 37.2007 81.3602Z" fill="#191919"/>
<path d="M45.7349 76.34V79.2598C46.0963 78.8864 46.4648 78.6017 46.8403 78.4056C47.2158 78.2049 47.6805 78.1045 48.2343 78.1045C48.8727 78.1045 49.4312 78.2562 49.91 78.5597C50.3935 78.8584 50.7666 79.2948 51.0295 79.869C51.297 80.4385 51.4308 81.1153 51.4308 81.8995C51.4308 82.4783 51.3557 83.0104 51.2055 83.4959C51.06 83.9767 50.8464 84.3945 50.5648 84.7492C50.2832 85.104 49.9405 85.3794 49.5369 85.5754C49.1379 85.7668 48.6967 85.8625 48.2132 85.8625C47.9175 85.8625 47.6382 85.8275 47.3754 85.7575C47.1172 85.6874 46.8966 85.5964 46.7136 85.4844C46.5305 85.3677 46.3733 85.2486 46.2418 85.1273C46.1151 85.0059 45.9461 84.8239 45.7349 84.5811V84.7702C45.7349 85.1296 45.6481 85.4027 45.4744 85.5894C45.3008 85.7714 45.0802 85.8625 44.8126 85.8625C44.5404 85.8625 44.3221 85.7714 44.1578 85.5894C43.9982 85.4027 43.9185 85.1296 43.9185 84.7702V76.4242C43.9185 76.0368 43.9959 75.745 44.1508 75.549C44.3104 75.3483 44.531 75.2479 44.8126 75.2479C45.1083 75.2479 45.336 75.3436 45.4955 75.535C45.6551 75.7217 45.7349 75.9899 45.7349 76.34ZM45.8265 82.0184C45.8265 82.7793 46.0001 83.3651 46.3475 83.7759C46.6995 84.182 47.1595 84.3851 47.7274 84.3851C48.2109 84.3851 48.6263 84.1773 48.9736 83.7619C49.3256 83.3418 49.5017 82.742 49.5017 81.9625C49.5017 81.4584 49.4289 81.0242 49.2834 80.6602C49.1379 80.2961 48.9314 80.016 48.6638 79.82C48.3963 79.6192 48.0842 79.5189 47.7274 79.5189C47.3613 79.5189 47.0351 79.6192 46.7488 79.82C46.4625 80.016 46.2372 80.3031 46.0729 80.6812C45.9086 81.0546 45.8265 81.5003 45.8265 82.0184Z" fill="#191919"/>
<path d="M55.9283 81.2972H55.1961V84.595C55.1961 85.0291 55.0998 85.3489 54.9074 85.5543C54.715 85.7596 54.4638 85.8623 54.154 85.8623C53.8208 85.8623 53.5626 85.755 53.3796 85.5403C53.1965 85.3255 53.105 85.0104 53.105 84.595V76.697C53.105 76.2488 53.2059 75.9244 53.4077 75.7237C53.6096 75.523 53.9358 75.4226 54.3864 75.4226H57.7869C58.2563 75.4226 58.6576 75.4436 58.9909 75.4856C59.3241 75.523 59.6245 75.6023 59.8921 75.7237C60.2159 75.8591 60.5023 76.0528 60.751 76.3048C60.9998 76.5569 61.1875 76.851 61.3143 77.1871C61.4457 77.5185 61.5114 77.8709 61.5114 78.2443C61.5114 79.0099 61.2932 79.6213 60.8567 80.0788C60.4248 80.5362 59.7677 80.8607 58.8853 81.052C59.2561 81.2481 59.6105 81.5375 59.9484 81.9203C60.2864 82.303 60.5868 82.7115 60.8496 83.1456C61.1172 83.575 61.3237 83.9648 61.4692 84.3149C61.6194 84.6603 61.6945 84.8984 61.6945 85.0291C61.6945 85.1644 61.6499 85.2998 61.5607 85.4351C61.4762 85.5658 61.3589 85.6685 61.2087 85.7432C61.0585 85.8226 60.8848 85.8623 60.6877 85.8623C60.453 85.8623 60.2559 85.8062 60.0963 85.6942C59.9367 85.5869 59.7982 85.4491 59.6809 85.2811C59.5682 85.1131 59.4133 84.8657 59.2162 84.5389L58.3783 83.1526C58.0779 82.6438 57.8081 82.2564 57.5687 81.9903C57.334 81.7242 57.0946 81.5422 56.8505 81.4441C56.6065 81.3461 56.2991 81.2972 55.9283 81.2972ZM57.1252 76.9842H55.1961V79.8058H57.0689C57.5711 79.8058 57.9935 79.7638 58.3362 79.6798C58.6788 79.5911 58.9393 79.444 59.1177 79.2386C59.3007 79.0286 59.3923 78.7415 59.3923 78.3774C59.3923 78.0927 59.3195 77.8429 59.174 77.6282C59.0285 77.4088 58.8267 77.2454 58.5685 77.1381C58.3245 77.0354 57.8433 76.9842 57.1252 76.9842Z" fill="#191919"/>
<path d="M69.4958 77.1389H67.2147V84.5957C67.2147 85.0251 67.1185 85.3449 66.926 85.5549C66.7336 85.7603 66.4848 85.863 66.1797 85.863C65.8699 85.863 65.6165 85.7579 65.4193 85.5479C65.2269 85.3379 65.1307 85.0204 65.1307 84.5957V77.1389H62.8495C62.4928 77.1389 62.2276 77.0619 62.0539 76.9078C61.8803 76.7491 61.7935 76.5414 61.7935 76.2847C61.7935 76.0186 61.8826 75.8086 62.061 75.6545C62.2441 75.5005 62.5069 75.4235 62.8495 75.4235H69.4959C69.8573 75.4235 70.1249 75.5028 70.2986 75.6615C70.4769 75.8202 70.5661 76.0279 70.5661 76.2847C70.5661 76.5414 70.4769 76.7491 70.2986 76.9078C70.1202 77.0618 69.8526 77.1389 69.4958 77.1389Z" fill="#191919"/>
<path d="M80.2324 82.4455C80.2324 82.7722 80.1502 83.127 79.986 83.5097C79.8264 83.8878 79.5729 84.2613 79.2256 84.63C78.8782 84.9941 78.4347 85.2905 77.8949 85.5193C77.3551 85.748 76.7262 85.8623 76.008 85.8623C75.4636 85.8623 74.9684 85.811 74.5224 85.7083C74.0765 85.6056 73.6705 85.4469 73.3044 85.2322C72.943 85.0128 72.6097 84.7257 72.3046 84.371C72.0324 84.0489 71.8001 83.6895 71.6076 83.2927C71.4152 82.8913 71.2697 82.4641 71.1711 82.0114C71.0772 81.5586 71.0303 81.0778 71.0303 80.569C71.0303 79.7428 71.15 79.003 71.3894 78.3495C71.6334 77.696 71.9808 77.1382 72.4314 76.676C72.882 76.2093 73.41 75.8545 74.0155 75.6118C74.621 75.3691 75.2664 75.2477 75.9517 75.2477C76.7872 75.2477 77.5311 75.4134 78.1836 75.7448C78.836 76.0762 79.3359 76.487 79.6832 76.9771C80.0305 77.4626 80.2042 77.9224 80.2042 78.3565C80.2042 78.5945 80.1197 78.8046 79.9507 78.9866C79.7818 79.1687 79.5776 79.2597 79.3382 79.2597C79.0707 79.2597 78.8688 79.1967 78.7327 79.0707C78.6013 78.9446 78.4534 78.7276 78.2891 78.4195C78.0169 77.9107 77.6954 77.5303 77.3246 77.2782C76.9585 77.0262 76.5055 76.9001 75.9658 76.9001C75.1068 76.9001 74.4215 77.2245 73.9099 77.8734C73.403 78.5222 73.1495 79.4441 73.1495 80.6391C73.1495 81.4373 73.2622 82.1025 73.4875 82.6346C73.7128 83.1621 74.0319 83.5565 74.445 83.8179C74.858 84.0793 75.3415 84.21 75.8953 84.21C76.4961 84.21 77.0031 84.0629 77.4161 83.7689C77.8339 83.4701 78.1483 83.0337 78.3596 82.4595C78.4487 82.1888 78.5591 81.9694 78.6905 81.8014C78.8219 81.6287 79.0331 81.5423 79.3241 81.5423C79.5729 81.5423 79.7865 81.6287 79.9649 81.8014C80.1432 81.9741 80.2324 82.1888 80.2324 82.4455Z" fill="#191919"/>
<path d="M54.1045 58.264C54.1045 65.3362 48.34 71.0698 41.2285 71.0698C34.1161 71.0698 28.3516 65.3362 28.3516 58.264C28.3516 51.1917 34.1161 45.4581 41.2285 45.4581C48.34 45.4581 54.1045 51.1917 54.1045 58.264Z" fill="#393939"/>
<path d="M79.5723 40.3353C79.5723 47.4065 73.8078 53.1411 66.6963 53.1411C59.5839 53.1411 53.8193 47.4065 53.8193 40.3353C53.8193 33.263 59.5839 27.5285 66.6963 27.5285C73.8078 27.5285 79.5723 33.263 79.5723 40.3353Z" fill="#393939"/>
<path d="M48.0967 40.0523C48.0967 47.1236 42.3322 52.8582 35.2198 52.8582C28.1092 52.8582 22.3438 47.1236 22.3438 40.0523C22.3438 32.9801 28.1092 27.2455 35.2198 27.2455C42.3322 27.2455 48.0967 32.9801 48.0967 40.0523Z" fill="#393939"/>
<path d="M73.8491 58.264C73.8491 65.3362 68.0846 71.0698 60.9712 71.0698C53.8607 71.0698 48.0952 65.3362 48.0952 58.264C48.0952 51.1917 53.8607 45.4581 60.9712 45.4581C68.0846 45.4581 73.8491 51.1917 73.8491 58.264Z" fill="#393939"/>
<path d="M63.8345 28.6689C63.8345 35.7411 58.069 41.4747 50.9575 41.4747C43.846 41.4747 38.0806 35.7411 38.0806 28.6689C38.0806 21.5967 43.846 15.863 50.9575 15.863C58.069 15.863 63.8345 21.5967 63.8345 28.6689Z" fill="#393939"/>
<path d="M53.8198 40.3353C53.8198 40.6047 53.8434 40.8685 53.8604 41.1342C59.5721 39.8237 63.8348 34.7453 63.8348 28.6672C63.8348 28.3978 63.8112 28.1331 63.7942 27.8674C58.0826 29.1788 53.8198 34.2572 53.8198 40.3353Z" fill="#191919"/>
<path d="M55.52 46.6761C57.7392 50.5342 61.9094 53.141 66.6989 53.141C68.6509 53.141 70.4944 52.696 72.1528 51.9225C69.9346 48.0645 65.7644 45.4577 60.974 45.4577C59.022 45.4577 57.1785 45.9026 55.52 46.6761Z" fill="#191919"/>
<path d="M48.0967 58.264C48.0967 61.3928 49.2275 64.2558 51.1021 66.4796C52.9749 64.2558 54.1057 61.3928 54.1057 58.264C54.1057 55.1353 52.9749 52.2723 51.1021 50.0485C49.2275 52.2723 48.0967 55.1353 48.0967 58.264Z" fill="#191919"/>
<path d="M30.1211 51.8091C31.6852 52.4812 33.4069 52.8577 35.2192 52.8577C39.9615 52.8577 44.093 50.3016 46.3282 46.5064C44.7641 45.8343 43.0415 45.4588 41.2301 45.4588C36.4878 45.4588 32.3554 48.0149 30.1211 51.8091Z" fill="#191919"/>
<path d="M38.1372 27.5871C38.107 27.9438 38.0815 28.3024 38.0815 28.6675C38.0815 34.741 42.3377 39.8147 48.0427 41.1307C48.072 40.774 48.0975 40.4154 48.0975 40.0512C48.0975 33.9778 43.8423 28.9022 38.1372 27.5871Z" fill="#191919"/>
<path d="M39.3393 56.6782H37.325C35.5467 56.6782 34.1006 55.2447 34.1006 53.4809V35.3488C34.1006 33.585 35.5467 32.1507 37.325 32.1507H62.5834C64.3617 32.1507 65.8069 33.585 65.8069 35.3488V53.4809C65.8069 55.2447 64.3617 56.6782 62.5834 56.6782H53.9786L36.7143 65.0946L39.3393 56.6782Z" fill="#E4E4E4"/>
</svg>
