<svg width="100" height="101" viewBox="0 0 100 101" fill="none" xmlns="http://www.w3.org/2000/svg">
<g clip-path="url(#clip0_2377_7295)">
<path d="M26.3616 44.0342C29.0149 44.0342 30.3094 45.3535 30.3094 47.4837C30.3094 49.084 29.5926 50.0464 28.1269 50.414C30.0526 50.7384 31.0048 51.7981 31.0048 53.658C31.0048 55.7666 29.5926 57.2048 26.6826 57.2048H21.3011V44.0342H26.3616ZM23.0878 45.7535V49.6787H26.1262C27.8166 49.6787 28.512 48.9002 28.512 47.6242C28.512 46.3483 27.7631 45.7427 26.1262 45.7427L23.0878 45.7535ZM23.0878 51.2899V55.3881H26.736C28.4478 55.3881 29.2181 54.761 29.2181 53.4418C29.2181 52.036 28.4799 51.2791 26.704 51.2791L23.0878 51.2899ZM33.9148 43.3314C34.5246 43.2881 35.0596 43.7531 35.1024 44.3694V44.5316C35.1024 45.1913 34.5674 45.7319 33.9148 45.7319C33.2622 45.7319 32.7273 45.1913 32.7273 44.5316C32.6845 43.9153 33.1445 43.3746 33.7543 43.3314C33.8078 43.3206 33.8613 43.3206 33.9148 43.3314ZM33.0482 47.1809H34.76V57.2048H33.0482V47.1809ZM41.2648 55.5179C41.6285 55.5071 41.9816 55.4638 42.3346 55.3773V57.0426C41.9602 57.1507 41.575 57.2048 41.1899 57.2048C39.0609 57.2048 38.0338 55.9396 38.0338 54.0797V48.7812H36.429V47.1809H38.0338V45.0507H39.6921V47.1809H42.3346V48.7812H39.6921V54.0473C39.6921 54.9232 40.2056 55.5179 41.2648 55.5179ZM49.3743 57.3994C47.93 57.3994 46.8174 56.7398 46.2182 55.4314V57.1939H44.5065V42.9854H46.2289V48.9759C46.8602 47.6567 48.0584 46.9754 49.5776 46.9754C52.2202 46.9754 53.5468 49.2354 53.5468 52.1874C53.5361 55.0205 52.156 57.3994 49.3743 57.3994ZM49.1176 48.5758C47.5877 48.5758 46.2289 49.5598 46.2289 51.7873V52.5875C46.2289 54.815 47.4807 55.799 48.9357 55.799C50.8614 55.799 51.8564 54.5123 51.8564 52.1874C51.835 49.7869 50.8828 48.5758 49.1176 48.5758ZM55.3228 47.1809H57.0345V53.2471C57.0345 55.0529 57.7513 55.8531 59.3775 55.8531C60.9609 55.8531 62.0522 54.7934 62.0522 52.7605V47.1809H63.764V57.2048H62.0522V55.5612C61.4317 56.7182 60.2227 57.4318 58.9175 57.4102C56.6387 57.4102 55.3228 55.8099 55.3228 53.0525V47.1809ZM73.3392 56.9452C72.7401 57.2696 71.8307 57.3994 70.9214 57.3994C67.3908 57.3994 65.7325 55.2368 65.7325 52.155C65.7325 49.1273 67.3801 46.9646 70.9214 46.9646C71.7344 46.943 72.5475 47.1052 73.2857 47.462V49.0624C72.5796 48.7272 71.8093 48.565 71.0283 48.5866C68.45 48.5866 67.4015 50.2302 67.4015 52.1766C67.4015 54.123 68.4714 55.7666 71.0711 55.7666C71.8414 55.7882 72.601 55.6693 73.3285 55.4098L73.3392 56.9452ZM75.2864 57.2048V42.9854H76.9982V51.8738L81.2669 47.1809H83.4922L78.8276 52.1009L83.6848 57.2048H81.3632L76.9982 52.5118V57.2048H75.2864ZM89.3337 57.3994C85.6213 57.3994 83.9951 55.2368 83.9951 52.155C83.9951 49.1273 85.6641 46.9646 88.6811 46.9646C91.7409 46.9646 92.9605 49.1165 92.9605 52.155V52.9335H85.7175C85.9529 54.642 87.0442 55.745 89.3872 55.745C90.4142 55.745 91.4413 55.5612 92.4042 55.2043V56.8047C91.6018 57.248 90.3501 57.3994 89.3337 57.3994ZM85.7068 51.4737H91.238C91.1417 49.6139 90.3073 48.5434 88.5955 48.5434C86.7874 48.5325 85.878 49.722 85.6962 51.4629V51.4737H85.7068ZM98.9196 55.5179C99.2834 55.5071 99.6365 55.4638 99.9895 55.3773V57.0426C99.6151 57.1507 99.2299 57.2048 98.8448 57.2048C96.7157 57.2048 95.6887 55.9396 95.6887 54.0797V48.7812H94.0839V47.1809H95.6887V45.0507H97.3576V47.1809H100V48.7812H97.3576V54.0473C97.3469 54.9232 97.8605 55.5179 98.9196 55.5179Z" fill="#191919"/>
<path d="M0.460025 44.4124C0.203259 44.4124 -1.52588e-05 44.607 -1.52588e-05 44.8665C-1.52588e-05 44.8881 -1.52588e-05 44.9206 0.0106834 44.9422L1.92574 56.6854C1.97923 56.9773 2.2253 57.2044 2.52486 57.2044H11.7043C11.9289 57.2044 12.1215 57.0422 12.1536 56.826L14.0687 44.953C14.1115 44.7043 13.9403 44.4664 13.6942 44.434C13.6728 44.434 13.6407 44.4232 13.6193 44.4232L0.460025 44.4124ZM8.51609 52.9007H5.58466L4.79297 48.7052H9.23289L8.51609 52.9007Z" fill="#191919"/>
<path d="M13.4596 48.7056H9.23369L8.52758 52.9011H5.58546L2.11911 57.0534C2.2261 57.1507 2.36518 57.2048 2.51496 57.2048H11.7051C11.9297 57.2048 12.1223 57.0426 12.1544 56.8263L13.4596 48.7056Z" fill="#191919"/>
</g>
<defs>
<clipPath id="clip0_2377_7295">
<rect width="100" height="100" fill="white" transform="translate(0.000244141 0.197998)"/>
</clipPath>
</defs>
</svg>
