<svg width="101" height="101" viewBox="0 0 101 101" fill="none" xmlns="http://www.w3.org/2000/svg">
<g clip-path="url(#clip0_2377_7309)">
<path d="M19.0461 58.4626C18.0792 58.925 15.8112 59.4929 12.9456 59.4929C4.70013 59.4929 0.445557 54.3223 0.445557 47.4904C0.445557 39.3469 6.26483 34.8533 13.473 34.8533C16.2859 34.8533 18.3956 35.4194 19.3626 35.9152L18.2198 40.1609C17.165 39.7021 15.6354 39.2766 13.684 39.2766C9.44697 39.2766 6.12418 41.861 6.12418 47.2074C6.12418 51.9858 8.95471 54.9939 13.7367 54.9939C15.3893 54.9939 17.165 54.674 18.255 54.2151L19.0461 58.4626Z" fill="#191919"/>
<path d="M28.2417 59.4928C23.1784 59.4928 19.293 56.163 19.293 50.5688C19.293 44.9763 22.9674 41.4021 28.5582 41.4021C33.8324 41.4021 37.3838 45.0484 37.3838 50.2857C37.3838 56.5885 32.8831 59.4928 28.2769 59.4928H28.2417ZM28.3472 55.6303C30.4745 55.6303 31.7755 53.5435 31.7755 50.4281C31.7755 47.8789 30.7909 45.2611 28.3472 45.2611C25.798 45.2611 24.8134 47.8789 24.8134 50.4633C24.8134 53.4028 26.0441 55.6303 28.312 55.6303H28.3472Z" fill="#191919"/>
<path d="M39.3169 47.4904C39.3169 44.9411 39.2818 43.278 39.1763 41.7906H43.7825L43.9934 45.0115H44.1341C45.0131 42.4622 47.1052 41.4021 48.8106 41.4021C49.3028 41.4021 49.549 41.4373 49.9358 41.5076V46.5691C49.4787 46.5006 49.0567 46.4285 48.459 46.4285C46.4723 46.4285 45.1186 47.4534 44.767 49.1553C44.6967 49.5086 44.6615 49.8972 44.6615 50.3578V59.1025H39.2818L39.3169 47.4904Z" fill="#191919"/>
<path d="M58.85 37.0842V41.7906H62.7178V45.7551H58.85V52.0579C58.85 54.1465 59.3775 55.1011 60.9773 55.1011C61.7157 55.1011 62.0673 55.066 62.5596 54.9605L62.5948 59.0304C61.9267 59.2783 60.6257 59.4928 59.1313 59.4928C57.3908 59.4928 55.9492 58.8898 55.0701 58.0037C54.068 56.977 53.5758 55.3121 53.5758 52.8719V45.7551H51.2727V41.7906H53.5758V38.5329L58.85 37.0842Z" fill="#191919"/>
<path d="M67.6049 52.1264C67.7807 54.3926 69.9784 55.4545 72.4924 55.4545C74.3384 55.4545 75.8152 55.2049 77.2744 54.7108L77.9776 58.3606C76.2196 59.1025 74.0571 59.4559 71.7189 59.4559C65.8468 59.4559 62.4713 56.0575 62.4713 50.6057C62.4713 46.2158 65.2315 41.3669 71.2266 41.3669C76.8173 41.3669 78.9446 45.72 78.9446 50.0027C78.9446 50.9239 78.8391 51.7379 78.7512 52.1634L67.6049 52.1264ZM73.9516 48.445C73.9516 47.1704 73.3715 44.9411 70.9453 44.9411C68.6422 44.9411 67.7104 47.028 67.5698 48.445H73.9516Z" fill="#191919"/>
<path d="M84.43 41.7908L86.1177 44.6934C86.6276 45.5777 87.0847 46.4286 87.5418 47.2778H87.6121C88.0692 46.3214 88.4912 45.4704 88.9483 44.5879L90.4778 41.7908H96.3147L90.6184 50.038L96.385 59.1009H90.302L88.5615 55.9873C88.0692 55.1364 87.6121 54.2521 87.2253 53.366H87.1198C86.6979 54.2873 86.2232 55.1364 85.8013 55.9873L84.1839 59.1009H78.2591L84.1487 50.2859L78.3997 41.7908H84.43Z" fill="#191919"/>
<path d="M73.1082 38.0706H77.6616V33.5242H73.1082V38.0706Z" fill="#191919"/>
<path d="M60.3443 38.0706H64.8977V33.5242H60.3443V38.0706Z" fill="#191919"/>
<path d="M47.5804 38.0706H52.1339V33.5242H47.5804V38.0706Z" fill="#191919"/>
<path d="M34.8165 38.0706H39.37V33.5242H34.8165V38.0706Z" fill="#191919"/>
<path d="M86.0118 32.406H90.5653V27.8596H86.0118V32.406Z" fill="#191919"/>
<path d="M91.5677 37.9563H96.1212V33.4099H91.5677V37.9563Z" fill="#191919"/>
<path d="M91.5677 32.406H96.1212V27.8596H91.5677V32.406Z" fill="#191919"/>
<path d="M86.0118 37.9563H90.5653V33.4099H86.0118V37.9563Z" fill="#191919"/>
<path d="M0.709869 70.727H1.48342V65.363H0.709869V70.727Z" fill="#191919"/>
<path d="M3.25913 67.661H3.27671C3.54042 67.3217 3.94478 67.1248 4.33156 67.1248C4.99963 67.1248 5.54464 67.5819 5.54464 68.5488V70.7271H4.84141V68.5418C4.84141 68.0214 4.57769 67.6838 4.13817 67.6838C3.8393 67.6838 3.59316 67.8262 3.25913 68.1954V70.7271H2.57347V67.1968H3.25913V67.661Z" fill="#191919"/>
<path d="M7.33791 67.1969H8.44551V67.8263H7.33791V69.6337C7.33791 70.0503 7.63679 70.1699 7.83018 70.1699C8.07631 70.1699 8.34003 70.082 8.62132 69.9097V70.5619C8.39277 70.6955 8.00599 70.7975 7.77744 70.7975C7.02146 70.7975 6.63468 70.3263 6.63468 69.6899V67.8263H6.01935V67.7472L7.33791 66.4656V67.1969Z" fill="#191919"/>
<path d="M12.0848 70.3807C11.6629 70.6638 11.2761 70.7974 10.6783 70.7974C9.57075 70.7974 8.95541 69.8937 8.95541 68.918C8.95541 67.8491 9.64107 67.1248 10.608 67.1248C11.5398 67.1248 12.1376 67.7629 12.1376 69.0674H9.65865C9.76414 69.7672 10.1685 70.1293 10.8541 70.1293C11.2761 70.1293 11.6629 69.9729 12.0848 69.7056V70.3807ZM11.4519 68.6033C11.4343 68.0688 11.1179 67.7313 10.6256 67.7313C10.0982 67.7313 9.76414 68.046 9.67623 68.6033H11.4519Z" fill="#191919"/>
<path d="M12.9111 70.727H13.6143V65.363H12.9111V70.727Z" fill="#191919"/>
<path d="M14.634 70.727H15.3373V65.363H14.634V70.727Z" fill="#191919"/>
<mask id="mask0_2377_7309" style="mask-type:luminance" maskUnits="userSpaceOnUse" x="0" y="27" width="101" height="46">
<path d="M0.445557 27.8597H100.446V72.48H0.445557V27.8597Z" fill="white"/>
</mask>
<g mask="url(#mask0_2377_7309)">
<path d="M16.7086 66.5428C16.4801 66.5428 16.3043 66.3547 16.3043 66.1261C16.3043 65.8993 16.4801 65.7095 16.7086 65.7095C16.9372 65.7095 17.1306 65.8993 17.1306 66.1261C17.1306 66.3547 16.9372 66.5428 16.7086 66.5428ZM17.0602 70.7271H16.357V67.1968H17.0602V70.7271Z" fill="#191919"/>
<path d="M20.8755 67.7383H20.1546C20.4359 68.0143 20.5238 68.2112 20.5238 68.5101C20.5238 68.8002 20.3656 69.1395 20.1898 69.3048C19.7327 69.8076 18.7657 69.5562 18.7657 69.9728C18.7657 70.1698 19.135 70.2875 19.8382 70.4282C20.5942 70.5776 20.8579 70.9626 20.8579 71.411C20.8579 72.1107 20.2425 72.5361 19.2053 72.5361C18.2383 72.5361 17.5703 72.0878 17.5703 71.4672C17.5703 70.9468 17.8516 70.6409 18.4669 70.4915C18.2208 70.342 18.0977 70.1996 18.0977 70.0432C18.0977 69.8146 18.3262 69.6177 18.6603 69.5404V69.5245C18.3965 69.4138 18.2032 69.2643 18.0801 69.0762C17.957 68.8951 17.8867 68.6754 17.8867 68.4152C17.8867 67.661 18.4669 67.1968 19.4338 67.1968H20.8755V67.7383ZM19.0295 70.9011C18.5548 70.9011 18.2383 71.1209 18.2383 71.4356C18.2383 71.7889 18.5723 71.9771 19.2053 71.9771C19.8206 71.9771 20.1898 71.7889 20.1898 71.4672C20.1898 71.0189 19.469 70.9011 19.0295 70.9011ZM19.2053 67.8016C18.8361 67.8016 18.5196 68.0934 18.5196 68.4398C18.5196 68.8248 18.8009 69.0833 19.2229 69.0833C19.6096 69.0833 19.8909 68.809 19.8909 68.424C19.8909 68.0847 19.5745 67.8016 19.2053 67.8016Z" fill="#191919"/>
</g>
<path d="M24.3738 70.3807C23.9519 70.6638 23.5651 70.7974 22.9674 70.7974C21.8598 70.7974 21.2444 69.8937 21.2444 68.918C21.2444 67.8491 21.9301 67.1248 22.8971 67.1248C23.8288 67.1248 24.4442 67.7629 24.4442 69.0674H21.9477C22.0532 69.7672 22.4575 70.1293 23.1432 70.1293C23.5651 70.1293 23.9695 69.9729 24.3738 69.7056V70.3807ZM23.7409 68.6033C23.7234 68.0688 23.4069 67.7313 22.9146 67.7313C22.3872 67.7313 22.0532 68.046 21.9653 68.6033H23.7409Z" fill="#191919"/>
<path d="M25.8679 67.661H25.8854C26.1492 67.3217 26.5535 67.1248 26.9403 67.1248C27.6084 67.1248 28.1534 67.5819 28.1534 68.5488V70.7271H27.4501V68.5418C27.4501 68.0214 27.1864 67.6838 26.7645 67.6838C26.448 67.6838 26.2019 67.8262 25.8679 68.1954V70.7271H25.1822V67.1968H25.8679V67.661Z" fill="#191919"/>
<path d="M29.9466 67.1969H31.0542V67.8263H29.9466V69.6337C29.9466 70.0503 30.2455 70.1699 30.4389 70.1699C30.7026 70.1699 30.9488 70.082 31.2301 69.9097V70.5619C31.0015 70.6955 30.6147 70.7975 30.3862 70.7975C29.6302 70.7975 29.2434 70.3263 29.2434 69.6899V67.8263H28.6281V67.7472L29.9466 66.4656V67.1969Z" fill="#191919"/>
<path d="M35.6606 65.363C36.821 65.363 37.366 66.0557 37.366 66.9049C37.366 67.747 36.8034 68.408 35.5551 68.408H34.7464V70.727H33.9904V65.363H35.6606ZM34.7464 67.7154H35.6254C36.2056 67.7154 36.5748 67.4095 36.5748 66.8732C36.5748 66.4812 36.3639 66.0557 35.6606 66.0557H34.7464V67.7154Z" fill="#191919"/>
<path d="M38.6843 67.1968V68.0056H38.7019C39.0535 67.385 39.3875 67.1248 39.7216 67.1248C40.0028 67.1248 40.2666 67.2584 40.5654 67.5344L40.1962 68.1392C39.9853 67.9352 39.704 67.7946 39.5457 67.7946C39.0711 67.7946 38.6843 68.2745 38.6843 68.8793V70.7271H37.981V67.1968H38.6843Z" fill="#191919"/>
<path d="M44.4157 68.9268C44.4157 70.0432 43.6421 70.7974 42.4994 70.7974C41.4269 70.7974 40.6358 70.0115 40.6358 68.9268C40.6358 67.9124 41.4445 67.1248 42.4994 67.1248C43.6246 67.1248 44.4157 67.8807 44.4157 68.9268ZM41.3566 68.9268C41.3566 69.674 41.8313 70.1698 42.4994 70.1698C43.2378 70.1698 43.6949 69.6968 43.6949 68.9338C43.6949 68.2499 43.2026 67.7542 42.4994 67.7542C41.8313 67.7542 41.3566 68.2499 41.3566 68.9268Z" fill="#191919"/>
<path d="M47.7916 68.1163C47.3872 67.8491 47.1235 67.77 46.8246 67.77C46.1741 67.77 45.7346 68.2499 45.7346 68.9655C45.7346 69.6968 46.2093 70.1381 46.9301 70.1381C47.229 70.1381 47.5103 70.059 47.8619 69.9008V70.5935C47.6333 70.7042 47.1938 70.7974 46.8246 70.7974C45.7698 70.7974 45.0314 70.066 45.0314 69.0288C45.0314 67.8649 45.6995 67.1248 46.7719 67.1248C47.1762 67.1248 47.4575 67.2197 47.7916 67.3691V68.1163Z" fill="#191919"/>
<path d="M51.5887 70.3807C51.1668 70.6638 50.78 70.7974 50.1823 70.7974C49.0747 70.7974 48.4594 69.8937 48.4594 68.918C48.4594 67.8491 49.145 67.1248 50.1295 67.1248C51.0613 67.1248 51.6591 67.7629 51.6591 69.0674H49.1626C49.2857 69.7672 49.6724 70.1293 50.3581 70.1293C50.78 70.1293 51.1844 69.9729 51.5887 69.7056V70.3807ZM50.9558 68.6033C50.9382 68.0688 50.6394 67.7313 50.1295 67.7313C49.6021 67.7313 49.2857 68.046 49.1802 68.6033H50.9558Z" fill="#191919"/>
<path d="M54.4546 68.1093C54.0678 67.8491 53.6986 67.7383 53.4349 67.7383C53.1536 67.7383 52.9778 67.8719 52.9778 68.0618C52.9778 68.2183 53.2064 68.4082 53.8393 68.7686C54.4194 69.1536 54.6304 69.398 54.6304 69.7601C54.6304 70.3807 54.1382 70.7974 53.4701 70.7974C53.0306 70.7974 52.6965 70.7113 52.2394 70.4757V69.7215C52.6965 70.0361 53.1009 70.1838 53.3822 70.1838C53.681 70.1698 53.9096 70.0361 53.9096 69.783C53.9096 69.296 52.257 69.0358 52.257 68.0847C52.257 67.4869 52.7141 67.1248 53.4173 67.1248C53.7514 67.1248 54.0854 67.2197 54.4546 67.4166V68.1093Z" fill="#191919"/>
<path d="M57.4961 68.1093C57.0917 67.8491 56.7225 67.7383 56.4588 67.7383C56.1775 67.7383 56.0017 67.8719 56.0017 68.0618C56.0017 68.2183 56.2303 68.4082 56.8632 68.7686C57.4433 69.1536 57.6543 69.398 57.6543 69.7601C57.6543 70.3807 57.162 70.7974 56.494 70.7974C56.0544 70.7974 55.7204 70.7113 55.2633 70.4757V69.7215C55.7204 70.0361 56.1424 70.1838 56.4236 70.1838C56.7049 70.1698 56.9335 70.0361 56.9335 69.783C56.9335 69.296 55.2809 69.0358 55.2809 68.0847C55.2809 67.4869 55.738 67.1248 56.4412 67.1248C56.7753 67.1248 57.1269 67.2197 57.4961 67.4166V68.1093Z" fill="#191919"/>
<path d="M62.0321 68.9268C62.0321 70.0432 61.241 70.7974 60.1158 70.7974C59.0258 70.7974 58.2522 70.0115 58.2522 68.9268C58.2522 67.9124 59.0609 67.1248 60.1158 67.1248C61.2234 67.1248 62.0321 67.8807 62.0321 68.9268ZM58.973 68.9268C58.973 69.674 59.4301 70.1698 60.0982 70.1698C60.8542 70.1698 61.3113 69.6968 61.3113 68.9338C61.3113 68.2499 60.8015 67.7542 60.0982 67.7542C59.4477 67.7542 58.973 68.2499 58.973 68.9268Z" fill="#191919"/>
<path d="M63.544 67.1968V68.0056H63.5616C63.9132 67.385 64.2648 67.1248 64.5813 67.1248C64.8802 67.1248 65.1439 67.2584 65.4252 67.5344L65.056 68.1392C64.845 67.9352 64.5813 67.7946 64.4055 67.7946C63.9308 67.7946 63.544 68.2745 63.544 68.8793V70.7271H62.8584V67.1968H63.544Z" fill="#191919"/>
<path d="M67.9743 68.1093C67.5876 67.8491 67.2184 67.7383 66.9547 67.7383C66.6734 67.7383 66.48 67.8719 66.48 68.0618C66.48 68.2183 66.7261 68.4082 67.3414 68.7686C67.9216 69.1536 68.1326 69.398 68.1326 69.7601C68.1326 70.3807 67.6403 70.7974 66.9722 70.7974C66.5327 70.7974 66.1987 70.7113 65.7416 70.4757V69.7215C66.1987 70.0361 66.6206 70.1838 66.9019 70.1838C67.1832 70.1698 67.4293 70.0361 67.4293 69.783C67.4293 69.296 65.7767 69.0358 65.7767 68.0847C65.7767 67.4869 66.2163 67.1248 66.9371 67.1248C67.2711 67.1248 67.6051 67.2197 67.9743 67.4166V68.1093Z" fill="#191919"/>
<path d="M71.8071 67.4481C72.106 67.2284 72.4225 67.1246 72.7741 67.1246C73.6531 67.1246 74.3036 67.8718 74.3036 68.8862C74.3036 70.0817 73.6004 70.7973 72.4225 70.7973C71.9478 70.7973 71.4555 70.6953 71.1039 70.5301V65.363H71.8071V67.4481ZM71.8071 70.0272C72.0005 70.0905 72.2994 70.138 72.5104 70.138C73.1433 70.138 73.5828 69.658 73.5828 68.99C73.5828 68.2428 73.196 67.754 72.5983 67.754C72.317 67.754 72.106 67.849 71.8071 68.1162V70.0272Z" fill="#191919"/>
<path d="M75.4463 72.5361H74.6552L75.8683 69.9728L74.4969 67.1968H75.2881L76.2375 69.1852L77.1517 67.1968H77.9428L75.4463 72.5361Z" fill="#191919"/>
<path d="M85.3618 70.7271H84.5882L83.8674 69.1465H81.5819L80.9138 70.7271H80.1227L82.4258 65.3333H82.9708L85.3618 70.7271ZM81.8808 68.4539H83.5509L82.6895 66.5129L81.8808 68.4539Z" fill="#191919"/>
<path d="M87.3307 65.363C88.4031 65.363 89.0887 65.9379 89.0887 66.8662C89.0887 67.4868 88.7723 67.9509 88.1921 68.1795C88.6844 68.5012 88.9833 68.997 89.3876 69.6651C89.6162 70.036 89.7568 70.2154 90.126 70.727H89.1942L88.491 69.6264C87.7878 68.5258 87.4537 68.3993 87.0669 68.3993H86.7505V70.727H85.9769V65.363H87.3307ZM86.7505 67.7083H87.2428C88.0691 67.7083 88.2976 67.2829 88.2976 66.8346C88.28 66.3317 87.9812 66.0241 87.2428 66.0241H86.7505V67.7083Z" fill="#191919"/>
<path d="M95.6993 70.727H94.9258V66.5515H94.9082L93.2556 68.6278H93.1325L91.4799 66.5515H91.4623V70.727H90.6888V65.363H91.4096L93.1853 67.5659L94.9785 65.363H95.6993V70.727Z" fill="#191919"/>
<path d="M97.1407 67.3218C96.6485 67.3218 96.2617 66.9262 96.2617 66.4375C96.2617 65.9487 96.6485 65.5549 97.1407 65.5549C97.633 65.5549 98.0374 65.9487 98.0374 66.4375C98.0374 66.9262 97.633 67.3218 97.1407 67.3218ZM97.1407 65.7009C96.7364 65.7009 96.4023 66.0296 96.4023 66.4375C96.4023 66.8454 96.7364 67.1759 97.1407 67.1759C97.5451 67.1759 97.8791 66.8454 97.8791 66.4375C97.8791 66.0296 97.5451 65.7009 97.1407 65.7009ZM96.754 65.9769H97.1759C97.422 65.9769 97.4924 66.1228 97.4924 66.2265C97.4924 66.3795 97.3869 66.4902 97.2286 66.499V66.5043C97.299 66.5324 97.3693 66.6151 97.4396 66.7416L97.5627 66.9262H97.3693L97.2814 66.7786C97.1759 66.5641 97.1231 66.5236 97.0001 66.5236H96.9122V66.9262H96.754V65.9769ZM97.1407 66.3918C97.2462 66.3918 97.3341 66.3461 97.3341 66.2476C97.3341 66.1615 97.2638 66.107 97.1583 66.107H96.9122V66.3918H97.1407Z" fill="#191919"/>
<path d="M98.9692 41.8506V42.0141H98.5824V43.1357H98.389V42.0141H97.9846V41.8506H98.9692ZM100.217 43.1357L100.165 42.3604C100.147 42.2602 100.165 42.1372 100.165 42.0123H100.147C100.112 42.1319 100.077 42.2673 100.042 42.3798L99.7778 43.1182H99.6196L99.3559 42.3604C99.3208 42.2567 99.3032 42.1319 99.268 42.0123H99.2504C99.2504 42.1336 99.2504 42.2444 99.2504 42.3604L99.1977 43.1357H99.0219L99.1098 41.8506H99.3735L99.6196 42.5468C99.6548 42.6435 99.6724 42.7507 99.7075 42.8703H99.7251C99.7427 42.7507 99.7779 42.6382 99.813 42.545L100.059 41.8506H100.305L100.411 43.1357H100.217Z" fill="#191919"/>
</g>
<defs>
<clipPath id="clip0_2377_7309">
<rect width="100" height="100" fill="white" transform="translate(0.445557 0.197998)"/>
</clipPath>
</defs>
</svg>
