<svg width="101" height="101" viewBox="0 0 101 101" fill="none" xmlns="http://www.w3.org/2000/svg">
<g clip-path="url(#clip0_2377_7358)">
<path d="M19.0461 58.3906C18.0792 58.853 15.8112 59.4209 12.9456 59.4209C4.70013 59.4209 0.445557 54.2503 0.445557 47.4184C0.445557 39.2749 6.26483 34.7812 13.473 34.7812C16.2859 34.7812 18.3956 35.3474 19.3626 35.8431L18.2198 40.0889C17.165 39.6301 15.6354 39.2046 13.684 39.2046C9.44697 39.2046 6.12418 41.789 6.12418 47.1353C6.12418 51.9138 8.95471 54.9219 13.7367 54.9219C15.3893 54.9219 17.165 54.6019 18.255 54.1431L19.0461 58.3906Z" fill="#E4E4E4"/>
<path d="M28.2417 59.4208C23.1784 59.4208 19.293 56.091 19.293 50.4968C19.293 44.9043 22.9674 41.3301 28.5582 41.3301C33.8324 41.3301 37.3838 44.9764 37.3838 50.2137C37.3838 56.5164 32.8831 59.4208 28.2769 59.4208H28.2417ZM28.3472 55.5583C30.4745 55.5583 31.7755 53.4714 31.7755 50.3561C31.7755 47.8069 30.7909 45.1891 28.3472 45.1891C25.798 45.1891 24.8134 47.8069 24.8134 50.3913C24.8134 53.3308 26.0441 55.5583 28.312 55.5583H28.3472Z" fill="#E4E4E4"/>
<path d="M39.3169 47.4183C39.3169 44.8691 39.2818 43.206 39.1763 41.7186H43.7825L43.9934 44.9394H44.1341C45.0131 42.3902 47.1052 41.3301 48.8106 41.3301C49.3028 41.3301 49.549 41.3652 49.9358 41.4356V46.4971C49.4787 46.4285 49.0567 46.3565 48.459 46.3565C46.4723 46.3565 45.1186 47.3814 44.767 49.0832C44.6967 49.4366 44.6615 49.8252 44.6615 50.2858V59.0305H39.2818L39.3169 47.4183Z" fill="#E4E4E4"/>
<path d="M58.85 37.0122V41.7186H62.7178V45.6831H58.85V51.9858C58.85 54.0745 59.3775 55.0291 60.9773 55.0291C61.7157 55.0291 62.0673 54.9939 62.5596 54.8885L62.5948 58.9584C61.9267 59.2063 60.6257 59.4208 59.1313 59.4208C57.3908 59.4208 55.9492 58.8178 55.0701 57.9317C54.068 56.905 53.5758 55.2401 53.5758 52.7998V45.6831H51.2727V41.7186H53.5758V38.4609L58.85 37.0122Z" fill="#E4E4E4"/>
<path d="M67.6049 52.0544C67.7807 54.3206 69.9784 55.3825 72.4924 55.3825C74.3384 55.3825 75.8152 55.1328 77.2744 54.6388L77.9776 58.2886C76.2196 59.0305 74.0571 59.3839 71.7189 59.3839C65.8468 59.3839 62.4713 55.9855 62.4713 50.5337C62.4713 46.1437 65.2315 41.2949 71.2266 41.2949C76.8173 41.2949 78.9446 45.6479 78.9446 49.9307C78.9446 50.8519 78.8391 51.6659 78.7512 52.0913L67.6049 52.0544ZM73.9516 48.373C73.9516 47.0984 73.3715 44.8691 70.9453 44.8691C68.6422 44.8691 67.7104 46.956 67.5698 48.373H73.9516Z" fill="#E4E4E4"/>
<path d="M84.43 41.7188L86.1177 44.6214C86.6276 45.5057 87.0847 46.3566 87.5418 47.2057H87.6121C88.0692 46.2493 88.4912 45.3984 88.9483 44.5159L90.4778 41.7188H96.3147L90.6184 49.9659L96.385 59.0289H90.302L88.5615 55.9153C88.0692 55.0644 87.6121 54.1801 87.2253 53.294H87.1198C86.6979 54.2152 86.2232 55.0644 85.8013 55.9153L84.1839 59.0289H78.2591L84.1487 50.2138L78.3997 41.7188H84.43Z" fill="#E4E4E4"/>
<path d="M73.1082 37.9986H77.6616V33.4521H73.1082V37.9986Z" fill="#E4E4E4"/>
<path d="M60.3443 37.9986H64.8977V33.4521H60.3443V37.9986Z" fill="#E4E4E4"/>
<path d="M47.5804 37.9986H52.1339V33.4521H47.5804V37.9986Z" fill="#E4E4E4"/>
<path d="M34.8165 37.9986H39.37V33.4521H34.8165V37.9986Z" fill="#E4E4E4"/>
<path d="M86.0118 32.334H90.5653V27.7876H86.0118V32.334Z" fill="#E4E4E4"/>
<path d="M91.5677 37.8843H96.1212V33.3379H91.5677V37.8843Z" fill="#E4E4E4"/>
<path d="M91.5677 32.334H96.1212V27.7876H91.5677V32.334Z" fill="#E4E4E4"/>
<path d="M86.0118 37.8843H90.5653V33.3379H86.0118V37.8843Z" fill="#E4E4E4"/>
<path d="M0.709869 70.6549H1.48342V65.291H0.709869V70.6549Z" fill="#E4E4E4"/>
<path d="M3.25913 67.589H3.27671C3.54042 67.2496 3.94478 67.0527 4.33156 67.0527C4.99963 67.0527 5.54464 67.5098 5.54464 68.4768V70.6551H4.84141V68.4698C4.84141 67.9494 4.57769 67.6118 4.13817 67.6118C3.8393 67.6118 3.59316 67.7542 3.25913 68.1234V70.6551H2.57347V67.1248H3.25913V67.589Z" fill="#E4E4E4"/>
<path d="M7.33791 67.1249H8.44551V67.7543H7.33791V69.5616C7.33791 69.9783 7.63679 70.0978 7.83018 70.0978C8.07631 70.0978 8.34003 70.0099 8.62132 69.8376V70.4899C8.39277 70.6235 8.00599 70.7255 7.77744 70.7255C7.02146 70.7255 6.63468 70.2543 6.63468 69.6179V67.7543H6.01935V67.6752L7.33791 66.3936V67.1249Z" fill="#E4E4E4"/>
<path d="M12.0848 70.3087C11.6629 70.5918 11.2761 70.7254 10.6783 70.7254C9.57075 70.7254 8.95541 69.8217 8.95541 68.846C8.95541 67.7771 9.64107 67.0527 10.608 67.0527C11.5398 67.0527 12.1376 67.6909 12.1376 68.9954H9.65865C9.76414 69.6951 10.1685 70.0573 10.8541 70.0573C11.2761 70.0573 11.6629 69.9008 12.0848 69.6336V70.3087ZM11.4519 68.5313C11.4343 67.9968 11.1179 67.6593 10.6256 67.6593C10.0982 67.6593 9.76414 67.974 9.67623 68.5313H11.4519Z" fill="#E4E4E4"/>
<path d="M12.9111 70.6549H13.6143V65.291H12.9111V70.6549Z" fill="#E4E4E4"/>
<path d="M14.634 70.6549H15.3373V65.291H14.634V70.6549Z" fill="#E4E4E4"/>
<mask id="mask0_2377_7358" style="mask-type:luminance" maskUnits="userSpaceOnUse" x="0" y="27" width="101" height="46">
<path d="M0.445557 27.7877H100.446V72.408H0.445557V27.7877Z" fill="white"/>
</mask>
<g mask="url(#mask0_2377_7358)">
<path d="M16.7086 66.4708C16.4801 66.4708 16.3043 66.2827 16.3043 66.0541C16.3043 65.8273 16.4801 65.6374 16.7086 65.6374C16.9372 65.6374 17.1306 65.8273 17.1306 66.0541C17.1306 66.2827 16.9372 66.4708 16.7086 66.4708ZM17.0602 70.655H16.357V67.1248H17.0602V70.655Z" fill="#E4E4E4"/>
<path d="M20.8755 67.6663H20.1546C20.4359 67.9423 20.5238 68.1392 20.5238 68.4381C20.5238 68.7282 20.3656 69.0675 20.1898 69.2327C19.7327 69.7356 18.7657 69.4842 18.7657 69.9008C18.7657 70.0977 19.135 70.2155 19.8382 70.3562C20.5942 70.5056 20.8579 70.8906 20.8579 71.3389C20.8579 72.0387 20.2425 72.4641 19.2053 72.4641C18.2383 72.4641 17.5703 72.0158 17.5703 71.3952C17.5703 70.8748 17.8516 70.5689 18.4669 70.4195C18.2208 70.27 18.0977 70.1276 18.0977 69.9711C18.0977 69.7426 18.3262 69.5457 18.6603 69.4683V69.4525C18.3965 69.3418 18.2032 69.1923 18.0801 69.0042C17.957 68.8231 17.8867 68.6034 17.8867 68.3432C17.8867 67.5889 18.4669 67.1248 19.4338 67.1248H20.8755V67.6663ZM19.0295 70.8291C18.5548 70.8291 18.2383 71.0489 18.2383 71.3635C18.2383 71.7169 18.5723 71.905 19.2053 71.905C19.8206 71.905 20.1898 71.7169 20.1898 71.3952C20.1898 70.9469 19.469 70.8291 19.0295 70.8291ZM19.2053 67.7296C18.8361 67.7296 18.5196 68.0214 18.5196 68.3678C18.5196 68.7528 18.8009 69.0112 19.2229 69.0112C19.6096 69.0112 19.8909 68.737 19.8909 68.3519C19.8909 68.0126 19.5745 67.7296 19.2053 67.7296Z" fill="#E4E4E4"/>
</g>
<path d="M24.3738 70.3087C23.9519 70.5918 23.5651 70.7254 22.9674 70.7254C21.8598 70.7254 21.2444 69.8217 21.2444 68.846C21.2444 67.7771 21.9301 67.0527 22.8971 67.0527C23.8288 67.0527 24.4442 67.6909 24.4442 68.9954H21.9477C22.0532 69.6951 22.4575 70.0573 23.1432 70.0573C23.5651 70.0573 23.9695 69.9008 24.3738 69.6336V70.3087ZM23.7409 68.5313C23.7234 67.9968 23.4069 67.6593 22.9146 67.6593C22.3872 67.6593 22.0532 67.974 21.9653 68.5313H23.7409Z" fill="#E4E4E4"/>
<path d="M25.8679 67.589H25.8854C26.1492 67.2496 26.5535 67.0527 26.9403 67.0527C27.6084 67.0527 28.1534 67.5098 28.1534 68.4768V70.6551H27.4501V68.4698C27.4501 67.9494 27.1864 67.6118 26.7645 67.6118C26.448 67.6118 26.2019 67.7542 25.8679 68.1234V70.6551H25.1822V67.1248H25.8679V67.589Z" fill="#E4E4E4"/>
<path d="M29.9466 67.1249H31.0542V67.7543H29.9466V69.5616C29.9466 69.9783 30.2455 70.0978 30.4389 70.0978C30.7026 70.0978 30.9488 70.0099 31.2301 69.8376V70.4899C31.0015 70.6235 30.6147 70.7255 30.3862 70.7255C29.6302 70.7255 29.2434 70.2543 29.2434 69.6179V67.7543H28.6281V67.6752L29.9466 66.3936V67.1249Z" fill="#E4E4E4"/>
<path d="M35.6606 65.291C36.821 65.291 37.366 65.9837 37.366 66.8329C37.366 67.675 36.8034 68.336 35.5551 68.336H34.7464V70.6549H33.9904V65.291H35.6606ZM34.7464 67.6433H35.6254C36.2056 67.6433 36.5748 67.3374 36.5748 66.8012C36.5748 66.4092 36.3639 65.9837 35.6606 65.9837H34.7464V67.6433Z" fill="#E4E4E4"/>
<path d="M38.6843 67.1248V67.9335H38.7019C39.0535 67.3129 39.3875 67.0527 39.7216 67.0527C40.0028 67.0527 40.2666 67.1863 40.5654 67.4624L40.1962 68.0672C39.9853 67.8632 39.704 67.7226 39.5457 67.7226C39.0711 67.7226 38.6843 68.2025 38.6843 68.8073V70.6551H37.981V67.1248H38.6843Z" fill="#E4E4E4"/>
<path d="M44.4157 68.8548C44.4157 69.9712 43.6421 70.7254 42.4994 70.7254C41.4269 70.7254 40.6358 69.9395 40.6358 68.8548C40.6358 67.8404 41.4445 67.0527 42.4994 67.0527C43.6246 67.0527 44.4157 67.8087 44.4157 68.8548ZM41.3566 68.8548C41.3566 69.602 41.8313 70.0977 42.4994 70.0977C43.2378 70.0977 43.6949 69.6248 43.6949 68.8618C43.6949 68.1779 43.2026 67.6821 42.4994 67.6821C41.8313 67.6821 41.3566 68.1779 41.3566 68.8548Z" fill="#E4E4E4"/>
<path d="M47.7916 68.0443C47.3872 67.7771 47.1235 67.698 46.8246 67.698C46.1741 67.698 45.7346 68.1779 45.7346 68.8935C45.7346 69.6248 46.2093 70.0661 46.9301 70.0661C47.229 70.0661 47.5103 69.987 47.8619 69.8288V70.5214C47.6333 70.6322 47.1938 70.7254 46.8246 70.7254C45.7698 70.7254 45.0314 69.994 45.0314 68.9567C45.0314 67.7929 45.6995 67.0527 46.7719 67.0527C47.1762 67.0527 47.4575 67.1477 47.7916 67.2971V68.0443Z" fill="#E4E4E4"/>
<path d="M51.5887 70.3087C51.1668 70.5918 50.78 70.7254 50.1823 70.7254C49.0747 70.7254 48.4594 69.8217 48.4594 68.846C48.4594 67.7771 49.145 67.0527 50.1295 67.0527C51.0613 67.0527 51.6591 67.6909 51.6591 68.9954H49.1626C49.2857 69.6951 49.6724 70.0573 50.3581 70.0573C50.78 70.0573 51.1844 69.9008 51.5887 69.6336V70.3087ZM50.9558 68.5313C50.9382 67.9968 50.6394 67.6593 50.1295 67.6593C49.6021 67.6593 49.2857 67.974 49.1802 68.5313H50.9558Z" fill="#E4E4E4"/>
<path d="M54.4546 68.0373C54.0678 67.7771 53.6986 67.6663 53.4349 67.6663C53.1536 67.6663 52.9778 67.7999 52.9778 67.9898C52.9778 68.1463 53.2064 68.3361 53.8393 68.6965C54.4194 69.0816 54.6304 69.3259 54.6304 69.6881C54.6304 70.3087 54.1382 70.7254 53.4701 70.7254C53.0306 70.7254 52.6965 70.6392 52.2394 70.4037V69.6494C52.6965 69.9641 53.1009 70.1118 53.3822 70.1118C53.681 70.0977 53.9096 69.9641 53.9096 69.711C53.9096 69.224 52.257 68.9638 52.257 68.0127C52.257 67.4149 52.7141 67.0527 53.4173 67.0527C53.7514 67.0527 54.0854 67.1477 54.4546 67.3446V68.0373Z" fill="#E4E4E4"/>
<path d="M57.4961 68.0373C57.0917 67.7771 56.7225 67.6663 56.4588 67.6663C56.1775 67.6663 56.0017 67.7999 56.0017 67.9898C56.0017 68.1463 56.2303 68.3361 56.8632 68.6965C57.4433 69.0816 57.6543 69.3259 57.6543 69.6881C57.6543 70.3087 57.162 70.7254 56.494 70.7254C56.0544 70.7254 55.7204 70.6392 55.2633 70.4037V69.6494C55.7204 69.9641 56.1424 70.1118 56.4236 70.1118C56.7049 70.0977 56.9335 69.9641 56.9335 69.711C56.9335 69.224 55.2809 68.9638 55.2809 68.0127C55.2809 67.4149 55.738 67.0527 56.4412 67.0527C56.7753 67.0527 57.1269 67.1477 57.4961 67.3446V68.0373Z" fill="#E4E4E4"/>
<path d="M62.0321 68.8548C62.0321 69.9712 61.241 70.7254 60.1158 70.7254C59.0258 70.7254 58.2522 69.9395 58.2522 68.8548C58.2522 67.8404 59.0609 67.0527 60.1158 67.0527C61.2234 67.0527 62.0321 67.8087 62.0321 68.8548ZM58.973 68.8548C58.973 69.602 59.4301 70.0977 60.0982 70.0977C60.8542 70.0977 61.3113 69.6248 61.3113 68.8618C61.3113 68.1779 60.8015 67.6821 60.0982 67.6821C59.4477 67.6821 58.973 68.1779 58.973 68.8548Z" fill="#E4E4E4"/>
<path d="M63.544 67.1248V67.9335H63.5616C63.9132 67.3129 64.2648 67.0527 64.5813 67.0527C64.8802 67.0527 65.1439 67.1863 65.4252 67.4624L65.056 68.0672C64.845 67.8632 64.5813 67.7226 64.4055 67.7226C63.9308 67.7226 63.544 68.2025 63.544 68.8073V70.6551H62.8584V67.1248H63.544Z" fill="#E4E4E4"/>
<path d="M67.9743 68.0373C67.5876 67.7771 67.2184 67.6663 66.9547 67.6663C66.6734 67.6663 66.48 67.7999 66.48 67.9898C66.48 68.1463 66.7261 68.3361 67.3414 68.6965C67.9216 69.0816 68.1326 69.3259 68.1326 69.6881C68.1326 70.3087 67.6403 70.7254 66.9722 70.7254C66.5327 70.7254 66.1987 70.6392 65.7416 70.4037V69.6494C66.1987 69.9641 66.6206 70.1118 66.9019 70.1118C67.1832 70.0977 67.4293 69.9641 67.4293 69.711C67.4293 69.224 65.7767 68.9638 65.7767 68.0127C65.7767 67.4149 66.2163 67.0527 66.9371 67.0527C67.2711 67.0527 67.6051 67.1477 67.9743 67.3446V68.0373Z" fill="#E4E4E4"/>
<path d="M71.8071 67.3761C72.106 67.1563 72.4225 67.0526 72.7741 67.0526C73.6531 67.0526 74.3036 67.7998 74.3036 68.8142C74.3036 70.0097 73.6004 70.7253 72.4225 70.7253C71.9478 70.7253 71.4555 70.6233 71.1039 70.458V65.291H71.8071V67.3761ZM71.8071 69.9552C72.0005 70.0185 72.2994 70.066 72.5104 70.066C73.1433 70.066 73.5828 69.586 73.5828 68.918C73.5828 68.1708 73.196 67.682 72.5983 67.682C72.317 67.682 72.106 67.777 71.8071 68.0442V69.9552Z" fill="#E4E4E4"/>
<path d="M75.4463 72.4641H74.6552L75.8683 69.9008L74.4969 67.1248H75.2881L76.2375 69.1132L77.1517 67.1248H77.9428L75.4463 72.4641Z" fill="#E4E4E4"/>
<path d="M85.3618 70.655H84.5882L83.8674 69.0745H81.5819L80.9138 70.655H80.1227L82.4258 65.2612H82.9708L85.3618 70.655ZM81.8808 68.3818H83.5509L82.6895 66.4409L81.8808 68.3818Z" fill="#E4E4E4"/>
<path d="M87.3307 65.291C88.4031 65.291 89.0887 65.8659 89.0887 66.7942C89.0887 67.4148 88.7723 67.8789 88.1921 68.1075C88.6844 68.4292 88.9833 68.925 89.3876 69.5931C89.6162 69.964 89.7568 70.1433 90.126 70.6549H89.1942L88.491 69.5544C87.7878 68.4538 87.4537 68.3272 87.0669 68.3272H86.7505V70.6549H85.9769V65.291H87.3307ZM86.7505 67.6363H87.2428C88.0691 67.6363 88.2976 67.2108 88.2976 66.7625C88.28 66.2597 87.9812 65.9521 87.2428 65.9521H86.7505V67.6363Z" fill="#E4E4E4"/>
<path d="M95.6993 70.6549H94.9258V66.4795H94.9082L93.2556 68.5558H93.1325L91.4799 66.4795H91.4623V70.6549H90.6888V65.291H91.4096L93.1853 67.4939L94.9785 65.291H95.6993V70.6549Z" fill="#E4E4E4"/>
<path d="M97.1407 67.2498C96.6485 67.2498 96.2617 66.8542 96.2617 66.3655C96.2617 65.8767 96.6485 65.4829 97.1407 65.4829C97.633 65.4829 98.0374 65.8767 98.0374 66.3655C98.0374 66.8542 97.633 67.2498 97.1407 67.2498ZM97.1407 65.6288C96.7364 65.6288 96.4023 65.9576 96.4023 66.3655C96.4023 66.7733 96.7364 67.1039 97.1407 67.1039C97.5451 67.1039 97.8791 66.7733 97.8791 66.3655C97.8791 65.9576 97.5451 65.6288 97.1407 65.6288ZM96.754 65.9049H97.1759C97.422 65.9049 97.4924 66.0508 97.4924 66.1545C97.4924 66.3075 97.3869 66.4182 97.2286 66.427V66.4323C97.299 66.4604 97.3693 66.543 97.4396 66.6696L97.5627 66.8542H97.3693L97.2814 66.7065C97.1759 66.4921 97.1231 66.4516 97.0001 66.4516H96.9122V66.8542H96.754V65.9049ZM97.1407 66.3198C97.2462 66.3198 97.3341 66.274 97.3341 66.1756C97.3341 66.0895 97.2638 66.035 97.1583 66.035H96.9122V66.3198H97.1407Z" fill="#E4E4E4"/>
<path d="M98.9692 41.7786V41.9421H98.5824V43.0637H98.389V41.9421H97.9846V41.7786H98.9692ZM100.217 43.0637L100.165 42.2884C100.147 42.1882 100.165 42.0651 100.165 41.9403H100.147C100.112 42.0599 100.077 42.1952 100.042 42.3077L99.7778 43.0461H99.6196L99.3559 42.2884C99.3208 42.1847 99.3032 42.0599 99.268 41.9403H99.2504C99.2504 42.0616 99.2504 42.1724 99.2504 42.2884L99.1977 43.0637H99.0219L99.1098 41.7786H99.3735L99.6196 42.4748C99.6548 42.5715 99.6724 42.6787 99.7075 42.7983H99.7251C99.7427 42.6787 99.7779 42.5662 99.813 42.473L100.059 41.7786H100.305L100.411 43.0637H100.217Z" fill="#E4E4E4"/>
</g>
<defs>
<clipPath id="clip0_2377_7358">
<rect width="100" height="100" fill="white" transform="translate(0.445557 0.125977)"/>
</clipPath>
</defs>
</svg>
