<svg width="100" height="101" viewBox="0 0 100 101" fill="none" xmlns="http://www.w3.org/2000/svg">
<g clip-path="url(#clip0_2377_7302)">
<path d="M26.3616 43.9622C29.0149 43.9622 30.3094 45.2814 30.3094 47.4116C30.3094 49.012 29.5926 49.9744 28.1269 50.342C30.0526 50.6664 31.0048 51.7261 31.0048 53.586C31.0048 55.6946 29.5926 57.1327 26.6826 57.1327H21.3011V43.9622H26.3616ZM23.0878 45.6815V49.6067H26.1262C27.8166 49.6067 28.512 48.8282 28.512 47.5522C28.512 46.2762 27.7631 45.6707 26.1262 45.6707L23.0878 45.6815ZM23.0878 51.2179V55.3161H26.736C28.4478 55.3161 29.2181 54.6889 29.2181 53.3697C29.2181 51.964 28.4799 51.2071 26.704 51.2071L23.0878 51.2179ZM33.9148 43.2594C34.5246 43.2161 35.0596 43.6811 35.1024 44.2974V44.4596C35.1024 45.1192 34.5674 45.6599 33.9148 45.6599C33.2622 45.6599 32.7273 45.1192 32.7273 44.4596C32.6845 43.8433 33.1445 43.3026 33.7543 43.2594C33.8078 43.2485 33.8613 43.2485 33.9148 43.2594ZM33.0482 47.1089H34.76V57.1327H33.0482V47.1089ZM41.2648 55.4459C41.6285 55.4351 41.9816 55.3918 42.3346 55.3053V56.9705C41.9602 57.0787 41.575 57.1327 41.1899 57.1327C39.0609 57.1327 38.0338 55.8676 38.0338 54.0077V48.7092H36.429V47.1089H38.0338V44.9787H39.6921V47.1089H42.3346V48.7092H39.6921V53.9753C39.6921 54.8511 40.2056 55.4459 41.2648 55.4459ZM49.3743 57.3274C47.93 57.3274 46.8174 56.6678 46.2182 55.3594V57.1219H44.5065V42.9133H46.2289V48.9039C46.8602 47.5847 48.0584 46.9034 49.5776 46.9034C52.2202 46.9034 53.5468 49.1634 53.5468 52.1154C53.5361 54.9485 52.156 57.3274 49.3743 57.3274ZM49.1176 48.5038C47.5877 48.5038 46.2289 49.4878 46.2289 51.7153V52.5155C46.2289 54.743 47.4807 55.727 48.9357 55.727C50.8614 55.727 51.8564 54.4402 51.8564 52.1154C51.835 49.7149 50.8828 48.5038 49.1176 48.5038ZM55.3228 47.1089H57.0345V53.1751C57.0345 54.9809 57.7513 55.7811 59.3775 55.7811C60.9609 55.7811 62.0522 54.7214 62.0522 52.6885V47.1089H63.764V57.1327H62.0522V55.4891C61.4317 56.6461 60.2227 57.3598 58.9175 57.3382C56.6387 57.3382 55.3228 55.7378 55.3228 52.9805V47.1089ZM73.3392 56.8732C72.7401 57.1976 71.8307 57.3274 70.9214 57.3274C67.3908 57.3274 65.7325 55.1647 65.7325 52.083C65.7325 49.0553 67.3801 46.8926 70.9214 46.8926C71.7344 46.871 72.5475 47.0332 73.2857 47.39V48.9904C72.5796 48.6552 71.8093 48.493 71.0283 48.5146C68.45 48.5146 67.4015 50.1582 67.4015 52.1046C67.4015 54.051 68.4714 55.6946 71.0711 55.6946C71.8414 55.7162 72.601 55.5973 73.3285 55.3377L73.3392 56.8732ZM75.2864 57.1327V42.9133H76.9982V51.8018L81.2669 47.1089H83.4922L78.8276 52.0289L83.6848 57.1327H81.3632L76.9982 52.4398V57.1327H75.2864ZM89.3337 57.3274C85.6213 57.3274 83.9951 55.1647 83.9951 52.083C83.9951 49.0553 85.6641 46.8926 88.6811 46.8926C91.7409 46.8926 92.9605 49.0444 92.9605 52.083V52.8615H85.7175C85.9529 54.57 87.0442 55.673 89.3872 55.673C90.4142 55.673 91.4413 55.4891 92.4042 55.1323V56.7327C91.6018 57.176 90.3501 57.3274 89.3337 57.3274ZM85.7068 51.4017H91.238C91.1417 49.5418 90.3073 48.4713 88.5955 48.4713C86.7874 48.4605 85.878 49.65 85.6962 51.3909V51.4017H85.7068ZM98.9196 55.4459C99.2834 55.4351 99.6365 55.3918 99.9895 55.3053V56.9705C99.6151 57.0787 99.2299 57.1327 98.8448 57.1327C96.7157 57.1327 95.6887 55.8676 95.6887 54.0077V48.7092H94.0839V47.1089H95.6887V44.9787H97.3576V47.1089H100V48.7092H97.3576V53.9753C97.3469 54.8511 97.8605 55.4459 98.9196 55.4459Z" fill="#E4E4E4"/>
<path d="M0.460025 44.3403C0.203259 44.3403 -1.52588e-05 44.535 -1.52588e-05 44.7945C-1.52588e-05 44.8161 -1.52588e-05 44.8486 0.0106834 44.8702L1.92574 56.6134C1.97923 56.9053 2.2253 57.1324 2.52486 57.1324H11.7043C11.9289 57.1324 12.1215 56.9702 12.1536 56.7539L14.0687 44.881C14.1115 44.6323 13.9403 44.3944 13.6942 44.362C13.6728 44.362 13.6407 44.3511 13.6193 44.3511L0.460025 44.3403ZM8.51609 52.8287H5.58466L4.79297 48.6332H9.23289L8.51609 52.8287Z" fill="#E4E4E4"/>
<path d="M13.4596 48.6335H9.23369L8.52758 52.8291H5.58546L2.11911 56.9814C2.2261 57.0787 2.36518 57.1328 2.51496 57.1328H11.7051C11.9297 57.1328 12.1223 56.9706 12.1544 56.7543L13.4596 48.6335Z" fill="#E4E4E4"/>
</g>
<defs>
<clipPath id="clip0_2377_7302">
<rect width="100" height="100" fill="white" transform="translate(0.000244141 0.125977)"/>
</clipPath>
</defs>
</svg>
