<svg width="101" height="101" viewBox="0 0 101 101" fill="none" xmlns="http://www.w3.org/2000/svg">
<path d="M81.5239 35.7059C81.5235 34.5291 81.2717 33.489 80.7625 32.5964C80.2627 31.7186 79.5136 30.9829 78.5093 30.4012C70.218 25.6203 61.9182 20.854 53.6295 16.0682C51.3949 14.7781 49.2284 14.825 47.0101 16.1339C43.7099 18.0802 27.1868 27.5467 22.2629 30.3985C20.2353 31.5724 19.2485 33.3688 19.248 35.7034C19.2449 45.3185 19.248 54.9331 19.2449 64.5481C19.2449 65.6989 19.4865 66.719 19.973 67.5983C20.4732 68.5026 21.2326 69.2585 22.2602 69.8533C27.1844 72.7052 43.7096 82.1711 47.0091 84.1177C49.2282 85.427 51.3949 85.474 53.6303 84.1833C61.9192 79.3973 70.2192 74.6313 78.512 69.8504C79.5397 69.2558 80.299 68.4994 80.7992 67.5958C81.285 66.7166 81.5271 65.6967 81.5271 64.5452C81.5271 64.5452 81.5271 45.3209 81.5239 35.7059Z" fill="#7C7C7C"/>
<path d="M50.4804 50.0305L19.9719 67.5965C20.4723 68.5008 21.2316 69.2568 22.2593 69.8516C27.1835 72.7034 43.7087 82.1694 47.0082 84.1159C49.2272 85.4253 51.394 85.4723 53.6293 84.1816C61.9182 79.3956 70.2183 74.6296 78.5111 69.8487C79.5387 69.2541 80.298 68.4977 80.7982 67.5941L50.4804 50.0305Z" fill="#393939"/>
<path d="M41.4454 55.2338C43.2207 58.3328 46.5579 60.4231 50.3863 60.4231C54.2384 60.4231 57.5945 58.3065 59.3608 55.1739L50.4817 50.0305L41.4454 55.2338Z" fill="#393939"/>
<path d="M81.5232 35.7062C81.5227 34.5294 81.2709 33.4893 80.7617 32.5967L50.4807 50.0325L80.7985 67.5961C81.2843 66.7169 81.5259 65.697 81.5264 64.5455C81.5264 64.5455 81.5264 45.3212 81.5232 35.7062Z" fill="#636363"/>
<path d="M79.8575 51.2867H77.4883V53.6563H75.1187V51.2867H72.7498V48.918H75.1187V46.5488H77.4883V48.918H79.8575V51.2867ZM50.3866 29.4419C57.9614 29.4419 64.5845 33.5146 68.1881 39.5893L68.2961 39.7739L59.2942 44.9577C57.5101 41.8901 54.1904 39.8258 50.3866 39.8258C44.6985 39.8258 40.0874 44.4368 40.0874 50.1247C40.0855 51.9175 40.5538 53.6793 41.4457 55.2345C43.221 58.3336 46.5582 60.4239 50.3866 60.4239C54.1963 60.4239 57.5211 58.3535 59.3024 55.2776L59.3611 55.1747L68.3499 60.3825C64.7857 66.61 58.0762 70.8078 50.3866 70.8078C42.711 70.8078 36.012 66.6268 32.443 60.4176C30.7005 57.3864 29.7035 53.8721 29.7035 50.1247C29.7035 38.7022 38.9634 29.4419 50.3866 29.4419ZM68.8438 46.5486V48.9177H71.2127V51.2867H68.8438V53.6563H66.4746V51.2867H64.1055V48.918H66.4746V46.5488L68.8438 46.5486Z" fill="#E4E4E4"/>
</svg>
