<svg width="101" height="101" viewBox="0 0 101 101" fill="none" xmlns="http://www.w3.org/2000/svg">
<path d="M81.5239 35.7779C81.5235 34.6011 81.2717 33.561 80.7625 32.6684C80.2627 31.7906 79.5136 31.0549 78.5093 30.4732C70.218 25.6923 61.9182 20.926 53.6295 16.1403C51.3949 14.8501 49.2284 14.897 47.0101 16.2059C43.7099 18.1523 27.1868 27.6187 22.2629 30.4705C20.2353 31.6444 19.2485 33.4409 19.248 35.7755C19.2449 45.3905 19.248 55.0051 19.2449 64.6202C19.2449 65.7709 19.4865 66.791 19.973 67.6703C20.4732 68.5746 21.2326 69.3305 22.2602 69.9254C27.1844 72.7772 43.7096 82.2431 47.0091 84.1897C49.2282 85.4991 51.3949 85.546 53.6303 84.2554C61.9192 79.4694 70.2192 74.7033 78.512 69.9224C79.5397 69.3278 80.299 68.5714 80.7992 67.6679C81.285 66.7886 81.5271 65.7687 81.5271 64.6172C81.5271 64.6172 81.5271 45.393 81.5239 35.7779Z" fill="#393939"/>
<path d="M50.4804 50.1025L19.9719 67.6686C20.4723 68.5729 21.2316 69.3288 22.2593 69.9236C27.1835 72.7755 43.7087 82.2414 47.0082 84.188C49.2272 85.4973 51.394 85.5443 53.6293 84.2536C61.9182 79.4676 70.2183 74.7016 78.5111 69.9207C79.5387 69.3261 80.298 68.5697 80.7982 67.6661L50.4804 50.1025Z" fill="#191919"/>
<path d="M41.4454 55.3058C43.2207 58.4048 46.5579 60.4952 50.3863 60.4952C54.2384 60.4952 57.5945 58.3785 59.3608 55.2459L50.4817 50.1025L41.4454 55.3058Z" fill="#191919"/>
<path d="M81.5232 35.7782C81.5227 34.6014 81.2709 33.5613 80.7617 32.6687L50.4807 50.1046L80.7985 67.6682C81.2843 66.7889 81.5259 65.769 81.5264 64.6175C81.5264 64.6175 81.5264 45.3933 81.5232 35.7782Z" fill="#272727"/>
<path d="M79.8575 51.3587H77.4883V53.7283H75.1187V51.3587H72.7498V48.99H75.1187V46.6208H77.4883V48.99H79.8575V51.3587ZM50.3866 29.5139C57.9614 29.5139 64.5845 33.5866 68.1881 39.6613L68.2961 39.846L59.2942 45.0297C57.5101 41.9621 54.1904 39.8978 50.3866 39.8978C44.6985 39.8978 40.0874 44.5089 40.0874 50.1967C40.0855 51.9895 40.5538 53.7514 41.4457 55.3065C43.221 58.4056 46.5582 60.4959 50.3866 60.4959C54.1963 60.4959 57.5211 58.4255 59.3024 55.3496L59.3611 55.2467L68.3499 60.4546C64.7857 66.6821 58.0762 70.8798 50.3866 70.8798C42.711 70.8798 36.012 66.6988 32.443 60.4896C30.7005 57.4584 29.7035 53.9441 29.7035 50.1967C29.7035 38.7743 38.9634 29.5139 50.3866 29.5139ZM68.8438 46.6206V48.9898H71.2127V51.3587H68.8438V53.7283H66.4746V51.3587H64.1055V48.99H66.4746V46.6208L68.8438 46.6206Z" fill="#E4E4E4"/>
</svg>
