<svg width="101" height="101" viewBox="0 0 101 101" fill="none" xmlns="http://www.w3.org/2000/svg">
<g clip-path="url(#clip0_2377_7228)">
<g clip-path="url(#clip1_2377_7228)">
<path d="M97.9911 36.1351C97.9911 35.315 97.1827 34.3406 95.7839 34.3406H6.00087C4.60208 34.3406 3.79362 35.315 3.79362 36.1351V65.7211C3.79362 66.5412 4.60208 67.516 6.00087 67.516H95.7839C97.1827 67.516 97.9911 66.5412 97.9911 65.7211V36.1351ZM100.892 65.7211C100.892 68.509 98.4255 70.4594 95.7839 70.4594H6.00087C3.35921 70.4594 0.892242 68.509 0.892242 65.7211V36.1351C0.892242 33.3472 3.35921 31.3967 6.00087 31.3967H95.7839C98.4255 31.3967 100.892 33.3472 100.892 36.1351V65.7211Z" fill="#E4E4E4"/>
<path d="M86.0296 42.1182C85.9526 41.3304 85.6221 40.7184 85.0382 40.2821C84.4543 39.8459 83.6618 39.6278 82.6608 39.6278C81.9806 39.6278 81.4063 39.7255 80.9379 39.9208C80.4695 40.1096 80.1101 40.3733 79.8599 40.7119C79.6161 41.0504 79.4941 41.4345 79.4941 41.8642C79.4813 42.2223 79.5551 42.5348 79.7155 42.8018C79.8824 43.0687 80.1101 43.2998 80.3989 43.4952C80.6877 43.684 81.0213 43.85 81.3999 43.9932C81.7785 44.13 82.1828 44.2471 82.6127 44.3448L84.3837 44.7745C85.2435 44.9698 86.0328 45.2303 86.7515 45.5558C87.4701 45.8813 88.0926 46.2817 88.6187 46.757C89.1449 47.2323 89.5524 47.7922 89.8411 48.4368C90.1363 49.0813 90.2871 49.8203 90.2935 50.6536C90.2871 51.8777 89.9791 52.9389 89.3695 53.8374C88.7663 54.7293 87.8937 55.4227 86.7515 55.9175C85.6157 56.4058 84.2457 56.65 82.6415 56.65C81.0502 56.65 79.6642 56.4026 78.4835 55.9078C77.3092 55.4129 76.3916 54.6805 75.7307 53.7104C75.0762 52.7338 74.7329 51.5261 74.7008 50.0872H78.7338C78.7787 50.7578 78.968 51.3177 79.3016 51.767C79.6417 52.2097 80.0941 52.545 80.6588 52.7729C81.2299 52.9942 81.8747 53.1049 82.5934 53.1049C83.2993 53.1049 83.9121 53.0007 84.4318 52.7924C84.958 52.5841 85.3655 52.2943 85.6542 51.9232C85.943 51.5521 86.0873 51.1257 86.0873 50.6439C86.0873 50.1946 85.9558 49.817 85.6927 49.511C85.436 49.205 85.0574 48.9446 84.5569 48.7297C84.0629 48.5149 83.4565 48.3196 82.7378 48.1438L80.5914 47.5969C78.9295 47.1867 77.6172 46.5454 76.6547 45.673C75.6922 44.8006 75.2142 43.6254 75.2206 42.1475C75.2142 40.9365 75.5318 39.8785 76.1735 38.9735C76.8216 38.0685 77.7103 37.3621 78.8396 36.8543C79.969 36.3464 81.2523 36.0925 82.6897 36.0925C84.1527 36.0925 85.4296 36.3464 86.5205 36.8543C87.6177 37.3621 88.4712 38.0685 89.0807 38.9735C89.6903 39.8785 90.0048 40.9267 90.024 42.1182H86.0296Z" fill="#E4E4E4"/>
<path d="M72.2488 46.3664C72.2488 48.5474 71.8414 50.403 71.0264 51.933C70.2179 53.463 69.1143 54.6317 67.7154 55.439C66.323 56.2398 64.7573 56.6402 63.0183 56.6402C61.2666 56.6402 59.6945 56.2365 58.302 55.4292C56.9096 54.6219 55.8091 53.4532 55.0006 51.9232C54.1921 50.3932 53.7879 48.5409 53.7879 46.3664C53.7879 44.1853 54.1921 42.3298 55.0006 40.7997C55.8091 39.2697 56.9096 38.1043 58.302 37.3035C59.6945 36.4962 61.2666 36.0925 63.0183 36.0925C64.7573 36.0925 66.323 36.4962 67.7154 37.3035C69.1143 38.1043 70.2179 39.2697 71.0264 40.7997C71.8414 42.3298 72.2488 44.1853 72.2488 46.3664ZM68.0234 46.3664C68.0234 44.9536 67.8149 43.7621 67.3978 42.792C66.9871 41.8219 66.4064 41.0862 65.6556 40.5849C64.9049 40.0836 64.0258 39.8329 63.0183 39.8329C62.0109 39.8329 61.1318 40.0836 60.3811 40.5849C59.6303 41.0862 59.0464 41.8219 58.6293 42.792C58.2186 43.7621 58.0133 44.9536 58.0133 46.3664C58.0133 47.7792 58.2186 48.9706 58.6293 49.9407C59.0464 50.9108 59.6303 51.6465 60.3811 52.1478C61.1318 52.6492 62.0109 52.8998 63.0183 52.8998C64.0258 52.8998 64.9049 52.6492 65.6556 52.1478C66.4064 51.6465 66.9871 50.9108 67.3978 49.9407C67.8149 48.9706 68.0234 47.7792 68.0234 46.3664Z" fill="#E4E4E4"/>
<path d="M36.1787 39.8524V36.366H52.3682V39.8524H46.3332V56.3667H42.2137V39.8524H36.1787Z" fill="#E4E4E4"/>
<path d="M19.1423 56.3667V36.366H26.9194C28.4081 36.366 29.6786 36.6362 30.7309 37.1765C31.7897 37.7104 32.595 38.4689 33.1468 39.452C33.7051 40.4286 33.9842 41.5778 33.9842 42.8994C33.9842 44.2276 33.7019 45.3702 33.1372 46.3273C32.5725 47.2779 31.7544 48.007 30.6828 48.5149C29.6176 49.0227 28.3279 49.2766 26.8135 49.2766H21.6063V45.8781H26.1398C26.9354 45.8781 27.5964 45.7674 28.1225 45.546C28.6487 45.3246 29.0401 44.9926 29.2968 44.5499C29.5599 44.1072 29.6914 43.557 29.6914 42.8994C29.6914 42.2353 29.5599 41.6754 29.2968 41.2197C29.0401 40.7639 28.6455 40.4189 28.1129 40.1845C27.5867 39.9436 26.9226 39.8231 26.1205 39.8231H23.31V56.3667H19.1423ZM29.7877 47.2648L34.6869 56.3667H30.0861L25.2927 47.2648H29.7877Z" fill="#E4E4E4"/>
<path d="M13.1485 41.7306L13.4525 39.893C14.1166 40.1292 14.6233 40.5033 14.9725 41.0152C15.3175 41.5228 15.49 42.1594 15.49 42.925C15.49 44.137 15.0997 45.0339 14.3192 45.6158C13.694 46.0752 12.9049 46.3049 11.9519 46.3049C10.8135 46.3049 9.92301 46.003 9.2805 45.3993C8.63368 44.7955 8.31027 44.032 8.31027 43.1088C8.31027 42.0719 8.64878 41.2537 9.32578 40.6543C9.99848 40.0549 11.0312 39.7683 12.4241 39.7945V44.4148C12.9631 44.4017 13.3835 44.2529 13.6854 43.9685C13.9829 43.6841 14.1317 43.3297 14.1317 42.9053C14.1317 42.6166 14.054 42.3738 13.8988 42.1769C13.7436 41.98 13.4935 41.8312 13.1485 41.7306ZM11.3115 41.6256C10.7854 41.6387 10.3866 41.7765 10.1149 42.039C9.83893 42.3016 9.70094 42.621 9.70094 42.9972C9.70094 43.3998 9.8454 43.7323 10.1343 43.9948C10.4232 44.2573 10.8156 44.3864 11.3115 44.382V41.6256Z" fill="#E4E4E4"/>
<path d="M13.1485 49.2123L13.4525 47.3747C14.1166 47.6109 14.6233 47.985 14.9725 48.4969C15.3175 49.0045 15.49 49.6411 15.49 50.4067C15.49 51.6187 15.0997 52.5156 14.3192 53.0975C13.694 53.5569 12.9049 53.7866 11.9519 53.7866C10.8135 53.7866 9.92301 53.4847 9.2805 52.8809C8.63368 52.2772 8.31027 51.5137 8.31027 50.5905C8.31027 49.5535 8.64878 48.7354 9.32578 48.136C9.99848 47.5366 11.0312 47.25 12.4241 47.2762V51.8965C12.9631 51.8834 13.3835 51.7346 13.6854 51.4502C13.9829 51.1658 14.1317 50.8114 14.1317 50.387C14.1317 50.0983 14.054 49.8554 13.8988 49.6586C13.7436 49.4617 13.4935 49.3129 13.1485 49.2123ZM11.3115 49.1073C10.7854 49.1204 10.3866 49.2582 10.1149 49.5207C9.83893 49.7833 9.70094 50.1026 9.70094 50.4789C9.70094 50.8814 9.8454 51.214 10.1343 51.4765C10.4232 51.739 10.8156 51.8681 11.3115 51.8637V49.1073Z" fill="#E4E4E4"/>
<path d="M15.3348 56.7203V58.5645H8.46551V56.8515H9.44221C8.98081 56.5584 8.6768 56.2959 8.53019 56.064C8.38358 55.8277 8.31027 55.5608 8.31027 55.2633C8.31027 54.8433 8.42454 54.4386 8.65309 54.0492L10.2378 54.6201C10.0394 54.9308 9.94026 55.2196 9.94026 55.4865C9.94026 55.7446 10.0114 55.9634 10.1537 56.1427C10.2917 56.3221 10.544 56.4643 10.9105 56.5693C11.277 56.67 12.0446 56.7203 13.2132 56.7203H15.3348Z" fill="#E4E4E4"/>
<path d="M8.46551 63.7688V62.745H7.94805C7.37022 62.745 6.93901 62.6837 6.65441 62.5612C6.36981 62.4343 6.13911 62.2046 5.96231 61.8721C5.7812 61.5352 5.69064 61.1108 5.69064 60.5989C5.69064 60.0739 5.76826 59.5598 5.9235 59.0566L7.19127 59.306C7.12228 59.5992 7.08778 59.8814 7.08778 60.1526C7.08778 60.4195 7.1503 60.612 7.27536 60.7302C7.3961 60.8439 7.63111 60.9008 7.98039 60.9008H8.46551V59.5226H9.89498V60.9008H15.3348V62.745H9.89498V63.7688H8.46551Z" fill="#E4E4E4"/>
<path d="M94.5485 61.1943H19.813V64.0906H94.5485V61.1943Z" fill="#E4E4E4"/>
</g>
</g>
<defs>
<clipPath id="clip0_2377_7228">
<rect width="100" height="100" fill="white" transform="translate(0.892334 0.927979)"/>
</clipPath>
<clipPath id="clip1_2377_7228">
<rect width="100" height="39.0625" fill="white" transform="translate(0.892334 31.3967)"/>
</clipPath>
</defs>
</svg>
