<svg width="101" height="100" viewBox="0 0 101 100" fill="none" xmlns="http://www.w3.org/2000/svg">
<g clip-path="url(#clip0_2377_7213)">
<g clip-path="url(#clip1_2377_7213)">
<path d="M97.9911 35.2071C97.9911 34.387 97.1827 33.4126 95.7839 33.4126H6.00087C4.60208 33.4126 3.79362 34.387 3.79362 35.2071V64.7931C3.79362 65.6132 4.60208 66.588 6.00087 66.588H95.7839C97.1827 66.588 97.9911 65.6132 97.9911 64.7931V35.2071ZM100.892 64.7931C100.892 67.581 98.4255 69.5315 95.7839 69.5315H6.00087C3.35921 69.5315 0.892242 67.581 0.892242 64.7931V35.2071C0.892242 32.4192 3.35921 30.4688 6.00087 30.4688H95.7839C98.4255 30.4688 100.892 32.4192 100.892 35.2071V64.7931Z" fill="#191919"/>
<path d="M86.0296 41.1902C85.9526 40.4024 85.6221 39.7904 85.0382 39.3542C84.4543 38.918 83.6618 38.6998 82.6608 38.6998C81.9806 38.6998 81.4063 38.7975 80.9379 38.9928C80.4695 39.1816 80.1101 39.4453 79.8599 39.7839C79.6161 40.1224 79.4941 40.5066 79.4941 40.9363C79.4813 41.2943 79.5551 41.6069 79.7155 41.8738C79.8824 42.1407 80.1101 42.3719 80.3989 42.5672C80.6877 42.756 81.0213 42.922 81.3999 43.0653C81.7785 43.202 82.1828 43.3192 82.6127 43.4168L84.3837 43.8465C85.2435 44.0419 86.0328 44.3023 86.7515 44.6278C87.4701 44.9533 88.0926 45.3538 88.6187 45.829C89.1449 46.3043 89.5524 46.8642 89.8411 47.5088C90.1363 48.1533 90.2871 48.8923 90.2935 49.7257C90.2871 50.9497 89.9791 52.0109 89.3695 52.9094C88.7663 53.8013 87.8937 54.4947 86.7515 54.9895C85.6157 55.4778 84.2457 55.722 82.6415 55.722C81.0502 55.722 79.6642 55.4746 78.4835 54.9798C77.3092 54.485 76.3916 53.7525 75.7307 52.7824C75.0762 51.8058 74.7329 50.5981 74.7008 49.1592H78.7338C78.7787 49.8298 78.968 50.3898 79.3016 50.839C79.6417 51.2817 80.0941 51.617 80.6588 51.8449C81.2299 52.0663 81.8747 52.1769 82.5934 52.1769C83.2993 52.1769 83.9121 52.0728 84.4318 51.8644C84.958 51.6561 85.3655 51.3664 85.6542 50.9952C85.943 50.6241 86.0873 50.1977 86.0873 49.7159C86.0873 49.2667 85.9558 48.889 85.6927 48.583C85.436 48.277 85.0574 48.0166 84.5569 47.8018C84.0629 47.5869 83.4565 47.3916 82.7378 47.2158L80.5914 46.6689C78.9295 46.2587 77.6172 45.6174 76.6547 44.745C75.6922 43.8726 75.2142 42.6974 75.2206 41.2195C75.2142 40.0085 75.5318 38.9505 76.1735 38.0455C76.8216 37.1405 77.7103 36.4341 78.8396 35.9263C79.969 35.4185 81.2523 35.1646 82.6897 35.1646C84.1527 35.1646 85.4296 35.4185 86.5205 35.9263C87.6177 36.4341 88.4712 37.1405 89.0807 38.0455C89.6903 38.9505 90.0048 39.9987 90.024 41.1902H86.0296Z" fill="#191919"/>
<path d="M72.2488 45.4384C72.2488 47.6195 71.8414 49.475 71.0264 51.005C70.2179 52.535 69.1143 53.7037 67.7154 54.511C66.323 55.3118 64.7573 55.7122 63.0183 55.7122C61.2666 55.7122 59.6945 55.3086 58.302 54.5012C56.9096 53.6939 55.8091 52.5253 55.0006 50.9952C54.1921 49.4652 53.7879 47.613 53.7879 45.4384C53.7879 43.2573 54.1921 41.4018 55.0006 39.8718C55.8091 38.3418 56.9096 37.1763 58.302 36.3755C59.6945 35.5682 61.2666 35.1646 63.0183 35.1646C64.7573 35.1646 66.323 35.5682 67.7154 36.3755C69.1143 37.1763 70.2179 38.3418 71.0264 39.8718C71.8414 41.4018 72.2488 43.2573 72.2488 45.4384ZM68.0234 45.4384C68.0234 44.0256 67.8149 42.8341 67.3978 41.864C66.9871 40.8939 66.4064 40.1582 65.6556 39.6569C64.9049 39.1556 64.0258 38.9049 63.0183 38.9049C62.0109 38.9049 61.1318 39.1556 60.3811 39.6569C59.6303 40.1582 59.0464 40.8939 58.6293 41.864C58.2186 42.8341 58.0133 44.0256 58.0133 45.4384C58.0133 46.8512 58.2186 48.0427 58.6293 49.0127C59.0464 49.9828 59.6303 50.7185 60.3811 51.2199C61.1318 51.7212 62.0109 51.9718 63.0183 51.9718C64.0258 51.9718 64.9049 51.7212 65.6556 51.2199C66.4064 50.7185 66.9871 49.9828 67.3978 49.0127C67.8149 48.0427 68.0234 46.8512 68.0234 45.4384Z" fill="#191919"/>
<path d="M36.1787 38.9245V35.438H52.3682V38.9245H46.3332V55.4388H42.2137V38.9245H36.1787Z" fill="#191919"/>
<path d="M19.1423 55.4388V35.438H26.9194C28.4081 35.438 29.6786 35.7082 30.7309 36.2486C31.7897 36.7824 32.595 37.5409 33.1468 38.524C33.7051 39.5006 33.9842 40.6498 33.9842 41.9714C33.9842 43.2996 33.7019 44.4422 33.1372 45.3993C32.5725 46.3499 31.7544 47.0791 30.6828 47.5869C29.6176 48.0947 28.3279 48.3486 26.8135 48.3486H21.6063V44.9501H26.1398C26.9354 44.9501 27.5964 44.8394 28.1225 44.618C28.6487 44.3967 29.0401 44.0646 29.2968 43.6219C29.5599 43.1792 29.6914 42.629 29.6914 41.9714C29.6914 41.3074 29.5599 40.7474 29.2968 40.2917C29.0401 39.8359 28.6455 39.4909 28.1129 39.2565C27.5867 39.0156 26.9226 38.8952 26.1205 38.8952H23.31V55.4388H19.1423ZM29.7877 46.3369L34.6869 55.4388H30.0861L25.2927 46.3369H29.7877Z" fill="#191919"/>
<path d="M13.1485 40.8026L13.4525 38.965C14.1166 39.2013 14.6233 39.5753 14.9725 40.0873C15.3175 40.5948 15.49 41.2314 15.49 41.9971C15.49 43.209 15.0997 44.1059 14.3192 44.6878C13.694 45.1473 12.9049 45.377 11.9519 45.377C10.8135 45.377 9.92301 45.0751 9.2805 44.4713C8.63368 43.8675 8.31027 43.104 8.31027 42.1808C8.31027 41.1439 8.64878 40.3257 9.32578 39.7263C9.99848 39.1269 11.0312 38.8403 12.4241 38.8666V43.4868C12.9631 43.4737 13.3835 43.325 13.6854 43.0406C13.9829 42.7562 14.1317 42.4018 14.1317 41.9774C14.1317 41.6886 14.054 41.4458 13.8988 41.2489C13.7436 41.052 13.4935 40.9032 13.1485 40.8026ZM11.3115 40.6976C10.7854 40.7107 10.3866 40.8486 10.1149 41.1111C9.83893 41.3736 9.70094 41.693 9.70094 42.0693C9.70094 42.4718 9.8454 42.8043 10.1343 43.0668C10.4232 43.3293 10.8156 43.4584 11.3115 43.454V40.6976Z" fill="#191919"/>
<path d="M13.1485 48.2843L13.4525 46.4467C14.1166 46.683 14.6233 47.057 14.9725 47.5689C15.3175 48.0765 15.49 48.7131 15.49 49.4787C15.49 50.6907 15.0997 51.5876 14.3192 52.1695C13.694 52.6289 12.9049 52.8586 11.9519 52.8586C10.8135 52.8586 9.92301 52.5567 9.2805 51.953C8.63368 51.3492 8.31027 50.5857 8.31027 49.6625C8.31027 48.6256 8.64878 47.8074 9.32578 47.208C9.99848 46.6086 11.0312 46.322 12.4241 46.3482V50.9685C12.9631 50.9554 13.3835 50.8066 13.6854 50.5222C13.9829 50.2379 14.1317 49.8835 14.1317 49.4591C14.1317 49.1703 14.054 48.9275 13.8988 48.7306C13.7436 48.5337 13.4935 48.3849 13.1485 48.2843ZM11.3115 48.1793C10.7854 48.1924 10.3866 48.3302 10.1149 48.5928C9.83893 48.8553 9.70094 49.1747 9.70094 49.5509C9.70094 49.9535 9.8454 50.286 10.1343 50.5485C10.4232 50.811 10.8156 50.9401 11.3115 50.9357V48.1793Z" fill="#191919"/>
<path d="M15.3348 55.7923V57.6365H8.46551V55.9236H9.44221C8.98081 55.6304 8.6768 55.3679 8.53019 55.136C8.38358 54.8997 8.31027 54.6329 8.31027 54.3353C8.31027 53.9153 8.42454 53.5106 8.65309 53.1212L10.2378 53.6922C10.0394 54.0028 9.94026 54.2916 9.94026 54.5585C9.94026 54.8166 10.0114 55.0354 10.1537 55.2148C10.2917 55.3941 10.544 55.5363 10.9105 55.6414C11.277 55.742 12.0446 55.7923 13.2132 55.7923H15.3348Z" fill="#191919"/>
<path d="M8.46551 62.8408V61.817H7.94805C7.37022 61.817 6.93901 61.7558 6.65441 61.6332C6.36981 61.5064 6.13911 61.2767 5.96231 60.9441C5.7812 60.6072 5.69064 60.1828 5.69064 59.6709C5.69064 59.1459 5.76826 58.6318 5.9235 58.1287L7.19127 58.378C7.12228 58.6712 7.08778 58.9534 7.08778 59.2247C7.08778 59.4916 7.1503 59.6841 7.27536 59.8022C7.3961 59.916 7.63111 59.9728 7.98039 59.9728H8.46551V58.5946H9.89498V59.9728H15.3348V61.817H9.89498V62.8408H8.46551Z" fill="#191919"/>
<path d="M94.5485 60.2664H19.813V63.1626H94.5485V60.2664Z" fill="#191919"/>
</g>
</g>
<defs>
<clipPath id="clip0_2377_7213">
<rect width="100" height="100" fill="white" transform="translate(0.892334)"/>
</clipPath>
<clipPath id="clip1_2377_7213">
<rect width="100" height="39.0625" fill="white" transform="translate(0.892334 30.4688)"/>
</clipPath>
</defs>
</svg>
