<svg width="100" height="101" viewBox="0 0 100 101" fill="none" xmlns="http://www.w3.org/2000/svg">
<path d="M59.9304 43.4609C57.7378 43.4609 56.105 44.537 56.105 47.127C56.105 49.0783 57.1811 50.4332 59.8121 50.4332C62.0424 50.4332 63.5573 49.1194 63.5573 47.0459C63.5573 44.6964 62.2018 43.4609 59.9304 43.4609ZM55.5468 61.7488C55.0277 62.3851 54.5106 63.0618 54.5106 63.8595C54.5106 65.4521 56.5422 65.9314 59.333 65.9314C61.6443 65.9314 64.7932 65.7693 64.7932 63.621C64.7932 62.344 63.2783 62.2653 61.3642 62.1454L55.5468 61.7488ZM67.3435 43.5811C68.0596 44.4974 68.8181 45.7729 68.8181 47.6051C68.8181 52.027 65.3507 54.6162 60.33 54.6162C59.0533 54.6162 57.8976 54.4573 57.1811 54.2583L55.8652 56.369L59.7706 56.6079C66.6662 57.0473 70.7298 57.247 70.7298 62.5433C70.7298 67.1257 66.7057 69.7138 59.7706 69.7138C52.5573 69.7138 49.8072 67.8811 49.8072 64.7343C49.8072 62.9416 50.6044 61.9872 51.9995 60.6703C50.684 60.1146 50.246 59.1192 50.246 58.0427C50.246 57.1655 50.684 56.3694 51.4024 55.6117C52.1193 54.8559 52.9162 54.0982 53.8728 53.2218C51.9203 52.2655 50.445 50.194 50.445 47.2453C50.445 42.6648 53.4744 39.5187 59.5708 39.5187C61.2851 39.5187 62.3217 39.6761 63.2384 39.9169H71.0107V43.3019L67.3435 43.5811ZM78.0222 36.3417C75.7501 36.3417 74.435 35.0259 74.435 32.7543C74.435 30.4858 75.7497 29.2495 78.0222 29.2495C80.3335 29.2495 81.649 30.4858 81.649 32.7543C81.649 35.0259 80.3339 36.3417 78.0222 36.3417ZM72.8801 60.2826V57.1369L74.9133 56.8589C75.4715 56.7786 75.5507 56.6596 75.5507 56.0608V44.3482C75.5507 43.9112 75.4316 43.6308 75.0316 43.5126L72.8801 42.7548L73.3181 39.5289H81.5687V56.0608C81.5687 56.6991 81.6071 56.7786 82.2069 56.8593L84.2393 57.1373V60.2826H72.8801ZM99.9998 58.7382C98.2855 59.5742 95.7748 60.3312 93.5022 60.3312C88.7597 60.3312 86.967 58.421 86.967 53.9169V43.4805C86.967 43.2416 86.967 43.0822 86.647 43.0822H83.8577V39.5355C87.3658 39.1361 88.7597 37.3833 89.1981 33.0409H92.9847V38.6995C92.9847 38.9775 92.9847 39.0977 93.304 39.0977H98.9229V43.0814H92.9847V52.6023C92.9847 54.9526 93.5434 55.8682 95.6944 55.8682C96.8117 55.8682 97.9662 55.5901 98.9225 55.2314L99.9998 58.7382Z" fill="#E4E4E4"/>
<path d="M40.9489 48.2843L22.7263 30.0701C22.4767 29.8205 22.1804 29.6226 21.8543 29.4875C21.5282 29.3525 21.1787 29.283 20.8257 29.283C20.4727 29.283 20.1232 29.3525 19.7971 29.4875C19.471 29.6226 19.1747 29.8205 18.9251 30.0701L15.1412 33.8529L19.9413 38.6507C20.5056 38.4591 21.1122 38.4292 21.6926 38.5644C22.273 38.6995 22.8039 38.9943 23.2254 39.4155C23.6489 39.8395 23.9445 40.3741 24.0786 40.9581C24.2127 41.5421 24.1799 42.152 23.9838 42.7182L28.6092 47.3425C29.7284 46.9572 31.02 47.2066 31.9136 48.1014C32.2107 48.3982 32.4465 48.7506 32.6073 49.1384C32.7681 49.5263 32.8509 49.9421 32.8509 50.3619C32.8509 50.7818 32.7681 51.1975 32.6073 51.5854C32.4465 51.9733 32.2107 52.3256 31.9136 52.6224C31.3909 53.1454 30.7031 53.4711 29.9672 53.5442C29.2312 53.6172 28.4927 53.4331 27.8773 53.0232C27.262 52.6132 26.8077 52.0027 26.592 51.2956C26.3762 50.5885 26.4122 49.8286 26.6939 49.145L22.38 44.8328L22.3796 56.1812C22.6921 56.3361 22.9777 56.5403 23.2254 56.7858C23.5224 57.0827 23.7581 57.4352 23.9189 57.8231C24.0796 58.211 24.1624 58.6268 24.1624 59.0467C24.1624 59.4666 24.0796 59.8824 23.9189 60.2703C23.7581 60.6582 23.5224 61.0107 23.2254 61.3076C21.9757 62.5568 19.9503 62.5568 18.7026 61.3076C18.3299 60.9352 18.0549 60.4766 17.9022 59.9724C17.7496 59.4683 17.7239 58.9342 17.8275 58.4177C17.931 57.9012 18.1607 57.4184 18.496 57.012C18.8313 56.6056 19.2618 56.2883 19.7494 56.0884V44.6343C19.3574 44.4738 19.0015 44.2366 18.7026 43.9364C17.7562 42.9915 17.5286 41.6033 18.0135 40.4415L13.282 35.711L0.787516 48.1997C0.537843 48.4493 0.339792 48.7456 0.204669 49.0716C0.0695468 49.3977 0 49.7472 0 50.1001C0 50.4531 0.0695468 50.8026 0.204669 51.1286C0.339792 51.4547 0.537843 51.751 0.787516 52.0006L19.0101 70.2152C19.2597 70.4647 19.556 70.6627 19.8821 70.7977C20.2082 70.9328 20.5577 71.0023 20.9107 71.0023C21.2637 71.0023 21.6132 70.9328 21.9393 70.7977C22.2654 70.6627 22.5617 70.4647 22.8113 70.2152L40.9489 52.0855C41.453 51.5813 41.7361 50.8977 41.7361 50.1849C41.7361 49.4721 41.453 48.7885 40.9489 48.2843Z" fill="#E4E4E4"/>
</svg>
