<svg width="100" height="101" viewBox="0 0 100 101" fill="none" xmlns="http://www.w3.org/2000/svg">
<path d="M59.9304 43.5329C57.7378 43.5329 56.105 44.609 56.105 47.199C56.105 49.1503 57.1811 50.5053 59.8121 50.5053C62.0424 50.5053 63.5573 49.1914 63.5573 47.118C63.5573 44.7684 62.2018 43.5329 59.9304 43.5329ZM55.5468 61.8208C55.0277 62.4571 54.5106 63.1338 54.5106 63.9315C54.5106 65.5241 56.5422 66.0034 59.333 66.0034C61.6443 66.0034 64.7932 65.8413 64.7932 63.693C64.7932 62.416 63.2783 62.3373 61.3642 62.2175L55.5468 61.8208ZM67.3435 43.6531C68.0596 44.5695 68.8181 45.8449 68.8181 47.6772C68.8181 52.099 65.3507 54.6883 60.33 54.6883C59.0533 54.6883 57.8976 54.5293 57.1811 54.3304L55.8652 56.441L59.7706 56.6799C66.6662 57.1193 70.7298 57.319 70.7298 62.6153C70.7298 67.1978 66.7057 69.7858 59.7706 69.7858C52.5573 69.7858 49.8072 67.9532 49.8072 64.8063C49.8072 63.0136 50.6044 62.0593 51.9995 60.7423C50.684 60.1867 50.246 59.1912 50.246 58.1147C50.246 57.2375 50.684 56.4414 51.4024 55.6837C52.1193 54.9279 52.9162 54.1702 53.8728 53.2938C51.9203 52.3375 50.445 50.266 50.445 47.3173C50.445 42.7368 53.4744 39.5907 59.5708 39.5907C61.2851 39.5907 62.3217 39.7481 63.2384 39.989H71.0107V43.3739L67.3435 43.6531ZM78.0222 36.4137C75.7501 36.4137 74.435 35.0979 74.435 32.8263C74.435 30.5578 75.7497 29.3215 78.0222 29.3215C80.3335 29.3215 81.649 30.5578 81.649 32.8263C81.649 35.0979 80.3339 36.4137 78.0222 36.4137ZM72.8801 60.3546V57.209L74.9133 56.9309C75.4715 56.8507 75.5507 56.7316 75.5507 56.1329V44.4203C75.5507 43.9832 75.4316 43.7029 75.0316 43.5846L72.8801 42.8269L73.3181 39.6009H81.5687V56.1329C81.5687 56.7712 81.6071 56.8507 82.2069 56.9313L84.2393 57.2094V60.3546H72.8801ZM99.9998 58.8102C98.2855 59.6462 95.7748 60.4032 93.5022 60.4032C88.7597 60.4032 86.967 58.493 86.967 53.9889V43.5525C86.967 43.3136 86.967 43.1542 86.647 43.1542H83.8577V39.6076C87.3658 39.2081 88.7597 37.4553 89.1981 33.113H92.9847V38.7715C92.9847 39.0495 92.9847 39.1698 93.304 39.1698H98.9229V43.1534H92.9847V52.6743C92.9847 55.0246 93.5434 55.9402 95.6944 55.9402C96.8117 55.9402 97.9662 55.6622 98.9225 55.3035L99.9998 58.8102Z" fill="#191919"/>
<path d="M40.9489 48.3563L22.7263 30.1421C22.4767 29.8925 22.1804 29.6946 21.8543 29.5595C21.5282 29.4245 21.1787 29.355 20.8257 29.355C20.4727 29.355 20.1232 29.4245 19.7971 29.5595C19.471 29.6946 19.1747 29.8925 18.9251 30.1421L15.1412 33.9249L19.9413 38.7227C20.5056 38.5311 21.1122 38.5012 21.6926 38.6364C22.273 38.7715 22.8039 39.0664 23.2254 39.4875C23.6489 39.9116 23.9445 40.4461 24.0786 41.0301C24.2127 41.6141 24.1799 42.224 23.9838 42.7902L28.6092 47.4146C29.7284 47.0292 31.02 47.2787 31.9136 48.1735C32.2107 48.4702 32.4465 48.8226 32.6073 49.2105C32.7681 49.5983 32.8509 50.0141 32.8509 50.4339C32.8509 50.8538 32.7681 51.2696 32.6073 51.6574C32.4465 52.0453 32.2107 52.3977 31.9136 52.6944C31.3909 53.2174 30.7031 53.5431 29.9672 53.6162C29.2312 53.6893 28.4927 53.5051 27.8773 53.0952C27.262 52.6852 26.8077 52.0747 26.592 51.3676C26.3762 50.6605 26.4122 49.9006 26.6939 49.2171L22.38 44.9048L22.3796 56.2532C22.6921 56.4081 22.9777 56.6123 23.2254 56.8579C23.5224 57.1547 23.7581 57.5072 23.9189 57.8951C24.0796 58.2831 24.1624 58.6988 24.1624 59.1187C24.1624 59.5386 24.0796 59.9544 23.9189 60.3423C23.7581 60.7303 23.5224 61.0827 23.2254 61.3796C21.9757 62.6288 19.9503 62.6288 18.7026 61.3796C18.3299 61.0073 18.0549 60.5486 17.9022 60.0445C17.7496 59.5403 17.7239 59.0062 17.8275 58.4897C17.931 57.9733 18.1607 57.4904 18.496 57.084C18.8313 56.6776 19.2618 56.3604 19.7494 56.1604V44.7063C19.3574 44.5458 19.0015 44.3086 18.7026 44.0085C17.7562 43.0635 17.5286 41.6753 18.0135 40.5135L13.282 35.783L0.787516 48.2718C0.537843 48.5213 0.339792 48.8176 0.204669 49.1437C0.0695468 49.4697 0 49.8192 0 50.1722C0 50.5251 0.0695468 50.8746 0.204669 51.2007C0.339792 51.5267 0.537843 51.823 0.787516 52.0726L19.0101 70.2872C19.2597 70.5368 19.556 70.7347 19.8821 70.8698C20.2082 71.0048 20.5577 71.0743 20.9107 71.0743C21.2637 71.0743 21.6132 71.0048 21.9393 70.8698C22.2654 70.7347 22.5617 70.5368 22.8113 70.2872L40.9489 52.1575C41.453 51.6534 41.7361 50.9697 41.7361 50.2569C41.7361 49.5441 41.453 48.8605 40.9489 48.3563Z" fill="#191919"/>
</svg>
