<svg width="100" height="101" viewBox="0 0 100 101" fill="none" xmlns="http://www.w3.org/2000/svg">
<path d="M70.6136 44.319C70.6136 55.9885 61.3612 65.4576 49.9417 65.4576C38.5221 65.4576 29.27 55.9885 29.27 44.319C29.27 32.6493 38.5223 23.1802 49.9417 23.1802C61.3614 23.1802 70.6137 32.6493 70.6137 44.319" fill="#E4E4E4"/>
<path d="M30.1204 49.5533C30.1204 49.5533 28.62 27.5147 48.9418 26.8809L47.5248 24.5137L36.5053 28.2146L33.3546 31.8322L30.6039 37.1002L29.0367 43.2351L29.5036 47.3363" fill="#636363"/>
<path d="M35.788 29.8984C32.1705 33.616 29.9199 38.7341 29.9199 44.4021C29.9199 50.0701 32.1705 55.1881 35.788 58.9056C39.4222 62.6232 44.4069 64.9071 49.9416 64.9071C55.4762 64.9071 60.4609 62.6232 64.0951 58.9058C67.7127 55.1881 69.9632 50.0701 69.9632 44.4021C69.9632 38.7339 67.7127 33.616 64.0951 29.8984C60.461 26.1975 55.4763 23.8971 49.9416 23.8971C44.4236 23.8971 39.4224 26.1808 35.788 29.8984ZM34.8711 59.7892C31.0203 55.8549 28.6363 50.4036 28.6363 44.4021C28.6363 38.4006 31.0203 32.9491 34.8711 28.9982C38.7221 25.0639 44.0568 22.6133 49.9417 22.6133C55.8266 22.6133 61.1611 25.0639 65.0121 28.9982C68.8631 32.9325 71.247 38.3838 71.247 44.4021C71.247 50.4034 68.8629 55.8549 65.0121 59.7892C61.1611 63.7401 55.8265 66.1741 49.9416 66.1741C44.0566 66.1741 38.7221 63.7401 34.8711 59.7892Z" fill="#191919"/>
<path d="M58.6439 44.4353L55.4931 44.9021L51.2421 45.3856L48.4914 45.4523L45.8074 45.369L43.7568 44.7356L41.9396 42.7681L40.5226 38.7505L40.2059 37.8836L38.3222 37.2502L37.2217 35.4331L36.4383 32.8323L37.3052 30.5486L39.3558 29.8316L41.0062 30.6152L41.7896 32.3491L42.7399 32.1989L43.0566 31.7989L42.7399 29.9817L42.6565 27.6977L43.1233 24.547L43.1066 22.7466L44.5403 20.4461L47.0576 18.6289L51.4588 16.7451L56.3434 17.4619L60.5944 20.5294L62.5616 23.6801L63.8284 25.964L64.1453 31.6321L63.195 36.5166L61.4612 40.8511L59.8276 43.1683" fill="#E4E4E4"/>
<path d="M55.9766 58.0557L44.7238 58.5224V60.4061L45.674 67.0246L45.2071 67.5747L37.3385 64.8907L36.7884 63.9404L36.0048 55.0382L34.1544 49.7035L33.7543 48.4365L40.0559 44.1022L42.0232 43.3186L43.7569 45.4523L45.2572 46.7862L46.9911 47.3362L47.7745 47.5698L48.7248 51.6708L49.4417 52.5377L51.2587 51.9041L49.9917 54.3546L56.8268 57.5888L55.9766 58.0557Z" fill="#393939"/>
<path d="M37.306 30.5819L39.3565 29.8652L41.0069 30.6486L41.7903 32.3825L42.7406 32.2324L42.9741 31.2822L42.5072 29.465L42.974 25.1306L42.5739 22.7633L43.9909 21.113L47.0583 18.679L46.1914 17.4954L41.857 19.6291L40.04 21.0463L39.023 23.2467L37.456 25.3806L36.9893 27.8979L37.306 30.5819Z" fill="#393939"/>
<path d="M40.5402 23.1793C40.5402 23.1793 41.7236 20.2619 46.4416 18.8449C51.1593 17.4279 46.6751 17.828 46.6751 17.828L41.5568 19.7952L39.5899 21.7623L38.723 23.3293L40.5402 23.1793ZM38.1729 30.0311C38.1729 30.0311 36.5224 24.513 42.8239 23.7295L42.5906 22.7793L38.2562 23.7962L36.9893 27.8974L37.306 30.5812L38.1729 30.0311Z" fill="#E4E4E4"/>
<path d="M40.689 37.3509L41.7224 36.3505C41.7224 36.3505 42.1893 36.4006 42.2727 36.9507C42.356 37.5007 42.5894 42.4688 45.9736 45.1361C46.2903 45.3861 43.4563 44.7359 43.4563 44.7359L40.9388 40.8016M55.1759 35.8503C55.1759 35.8503 55.3592 33.4664 56.0094 33.6499C56.6596 33.8332 56.6596 34.4832 56.6596 34.4832C56.6596 34.4832 55.0926 35.4836 55.1759 35.8503ZM61.7109 27.115C61.7109 27.115 60.4105 27.3816 60.2939 28.532C60.1771 29.6822 61.7109 28.7653 61.9442 28.682M52.1919 27.1983C52.1919 27.1983 50.458 27.4317 50.458 28.532C50.458 29.6323 52.4252 29.5488 52.9753 29.082M41.4891 32.3162C41.4891 32.3162 38.5052 30.499 38.1885 32.2329C37.8718 33.9668 37.1715 35.2168 38.6552 37.034L37.6383 36.7173L36.6882 34.2833L36.3713 31.916L38.1885 30.0323L40.2389 30.1823L41.4225 31.1326L41.4891 32.3162ZM42.9062 27.3483C42.9062 27.3483 44.2398 20.4132 51.0082 19.0795C56.5761 17.9792 59.5103 19.313 60.6106 20.5798C60.6106 20.5798 55.6426 14.6785 50.9247 16.4789C46.207 18.2961 42.7394 21.5968 42.8227 23.7141C42.9561 27.3482 42.9061 27.3482 42.9061 27.3482M61.1606 21.3634C61.1606 21.3634 58.8769 21.2801 58.7934 23.3305C58.7934 23.3305 58.7934 23.6474 58.9436 23.9641C58.9436 23.9641 60.7606 21.9135 61.8609 23.0138" fill="#BCBCBC"/>
<path d="M51.1753 24.1806C51.1753 24.1806 50.7753 21.0465 48.108 22.8635C46.3741 24.0472 46.5408 25.6975 46.841 26.0144C47.1577 26.3311 47.0744 26.9645 47.3077 26.5312C47.5411 26.0979 47.4744 24.6807 48.3413 24.2805C49.1915 23.8805 50.6253 23.4472 51.1753 24.1806Z" fill="#DADADA"/>
<path d="M43.7738 45.452L36.3715 48.7526C36.3715 48.7526 39.4391 60.9557 37.8719 64.74L36.7717 64.3399L36.6884 59.6887L34.6378 50.8866L33.7709 48.4525L41.4895 43.2512L43.7738 45.452ZM44.5238 52.2035L45.574 53.4873V58.205H44.3238C44.3238 58.205 44.1738 54.9043 44.1738 54.5043C44.1738 54.1042 44.3238 52.687 44.3238 52.687M44.5572 58.9219L41.0063 59.072L42.0233 59.7889L44.5404 60.1891" fill="#7C7C7C"/>
<path d="M56.6763 58.1385L59.5934 58.0552L60.3103 65.2902L57.3263 65.6904L56.6763 58.1385Z" fill="#393939"/>
<path d="M57.4598 58.1374L61.8609 57.9039C61.8609 57.9039 63.6781 53.3361 63.6781 53.1028C63.6781 52.8692 65.2451 46.4845 65.2451 46.4845L61.6942 42.7835L60.9773 42.1501L59.0936 44.0339V51.3524L57.4598 58.1374Z" fill="#393939"/>
<path d="M59.4269 57.5883L56.6763 58.1386L57.0765 60.3392C58.0933 60.8059 59.8271 59.5556 59.8271 59.5556M59.5103 43.8017L65.0284 47.9027L65.1784 46.0188L61.0108 42.168L59.5103 43.8017Z" fill="#7C7C7C"/>
<path d="M47.2904 73.6428L45.6566 67.0245L44.8398 62.14L44.7064 58.5223L52.0914 58.1223H56.676L56.2593 66.391L56.976 72.7759L56.8927 73.9595L50.9078 74.4264L47.2904 73.6428Z" fill="#E4E4E4"/>
<path d="M55.6594 58.0545C55.6594 58.0545 55.2593 66.24 56.443 72.0747C56.443 72.0747 54.0757 73.5751 50.6247 73.9585L57.2432 73.7251L58.0266 73.2584L57.0765 60.3551L56.8264 57.5876" fill="#E4E4E4"/>
<path d="M60.4277 64.6731L63.495 63.8062L69.3133 63.4894L70.1802 60.8055L68.613 56.1543L66.796 55.9209L64.2786 56.7045L61.8779 57.8881L60.5943 57.6546L59.594 58.0548" fill="#E4E4E4"/>
<path d="M60.3777 63.0898C60.3777 63.0898 62.4283 62.1395 62.745 62.2228L61.8781 57.8885L62.8951 57.4883C62.8951 57.4883 63.612 61.5894 63.612 62.0562C63.612 62.0562 68.013 62.2895 68.413 62.2895C68.413 62.2895 69.3633 60.4723 69.1299 58.5886L69.9969 61.1059L70.0802 62.5229L68.8132 64.4066L67.3962 64.7235L65.029 64.6402L64.2454 63.6232L61.4947 64.0232L60.6277 64.3401" fill="#E4E4E4"/>
<path d="M57.2769 57.5053L55.5431 53.1043L53.726 50.5035C53.726 50.5035 54.1262 49.4033 54.6763 49.4033H56.4935L58.2274 50.0367L58.0772 52.9542L57.2769 57.5053Z" fill="#E4E4E4"/>
<path d="M57.6263 56.0049C57.6263 56.0049 55.4257 51.7539 55.4257 51.1203C55.4257 51.1203 55.8259 50.1701 56.3759 50.4036C56.9262 50.637 58.1098 51.2705 58.1098 51.2705V49.77L55.4257 49.22L53.6086 49.4533L56.676 56.7218L57.3094 56.8052" fill="#E4E4E4"/>
<path d="M47.9907 45.6186L45.8069 45.3851L43.7563 44.7517V45.4686L44.7565 46.5689L47.9074 47.9859" fill="#E4E4E4"/>
<path d="M44.475 45.8528C44.475 45.8528 46.9088 46.8698 47.7092 46.6364L47.7924 47.5867L45.5919 47.1198L44.2583 46.1695L44.475 45.8528Z" fill="#E4E4E4"/>
<path d="M60.4275 49.6708C59.0938 49.6373 57.8767 49.4707 56.8265 49.1706C56.8932 48.7371 56.7598 48.3205 56.8766 48.0036C57.1766 47.7869 57.66 47.7869 58.1101 47.737C57.7267 47.5535 57.1766 47.4702 56.7432 47.5869C56.7264 47.2869 56.5931 47.1034 56.5096 46.87C57.26 46.6032 59.0271 44.8529 60.0273 45.4196C60.5108 45.703 60.7109 47.2701 60.7442 48.0537C60.7774 48.6871 60.6775 49.3206 60.4275 49.6708Z" fill="#E4E4E4"/>
<path d="M60.4275 49.6708C59.0938 49.6373 57.8767 49.4707 56.8265 49.1706C56.8932 48.7371 56.7598 48.3205 56.8766 48.0036C57.1766 47.7869 57.66 47.7869 58.1101 47.737C57.7267 47.5535 57.1766 47.4702 56.7432 47.5869C56.7264 47.2869 56.5931 47.1034 56.5096 46.87C57.26 46.6032 59.0271 44.8529 60.0273 45.4196C60.5108 45.703 60.7109 47.2701 60.7442 48.0537C60.7774 48.6871 60.6775 49.3206 60.4275 49.6708Z" fill="#191919" stroke="#E4E4E4" stroke-width="2"/>
<path d="M54.0418 47.4863C54.0418 47.5865 54.0418 47.6863 54.025 47.7864C53.6084 48.0532 52.9414 48.0532 52.4746 48.2866C53.1416 48.3198 53.6751 48.4865 54.1418 48.7032C54.125 48.9534 54.125 49.2202 54.1085 49.4702C53.3416 49.987 52.6415 50.7706 51.7413 51.2706C51.3078 51.5042 49.8241 52.1043 49.374 51.9875C49.1238 51.9208 49.0906 51.6041 48.9906 51.304C48.7739 50.6706 48.2737 49.6369 48.2236 48.67C48.1736 47.4531 48.0403 45.4025 49.3572 45.6525C50.4241 45.8526 51.6578 46.3361 52.4746 46.7862C52.9914 47.0863 53.2749 47.4196 54.0418 47.4863Z" fill="#E4E4E4"/>
<path d="M54.0418 47.4863C54.0418 47.5865 54.0418 47.6863 54.025 47.7864C53.6084 48.0532 52.9414 48.0532 52.4746 48.2866C53.1416 48.3198 53.6751 48.4865 54.1418 48.7032C54.125 48.9534 54.125 49.2202 54.1085 49.4702C53.3416 49.987 52.6415 50.7706 51.7413 51.2706C51.3078 51.5042 49.8241 52.1043 49.374 51.9875C49.1238 51.9208 49.0906 51.6041 48.9906 51.304C48.7739 50.6706 48.2737 49.6369 48.2236 48.67C48.1736 47.4531 48.0403 45.4025 49.3572 45.6525C50.4241 45.8526 51.6578 46.3361 52.4746 46.7862C52.9914 47.0863 53.2749 47.4196 54.0418 47.4863Z" fill="#191919" stroke="#E4E4E4" stroke-width="2"/>
<path d="M54.7933 48.9367C54.6766 48.2697 54.5432 48.0865 54.5932 47.5029C56.377 46.3192 56.6939 49.5368 54.7933 48.9367Z" fill="#E4E4E4"/>
<path d="M54.7933 48.9367C54.6766 48.2697 54.5432 48.0865 54.5932 47.5029C56.377 46.3192 56.6939 49.5368 54.7933 48.9367Z" fill="#191919" stroke="#E4E4E4" stroke-width="2"/>
<path d="M57.3601 49.4706C57.3601 49.4706 56.81 48.687 57.21 48.4537C57.6101 48.2203 57.9936 48.4537 58.227 48.0536C58.4605 47.6534 58.227 47.4202 58.3103 46.9533C58.3937 46.4866 58.7771 46.4033 59.1773 46.3199C59.5773 46.2364 60.6776 46.0864 60.8276 46.47L60.3609 45.0528L59.4106 44.7361L56.4266 46.47L56.2766 47.3369V49.0706M49.0914 52.0713C48.9914 50.8376 48.8915 49.6207 48.7913 48.387C48.6247 46.5533 49.2248 46.8698 50.8251 46.8698C51.0753 46.8698 52.3254 47.1534 52.4089 47.3369C52.8424 48.2203 51.692 48.0202 52.9089 48.687C53.9259 49.2373 55.7431 48.3537 55.3263 47.1034C55.0928 46.8199 54.126 47.02 53.7759 46.8366L51.9254 45.8865C51.142 45.4863 49.3414 44.8861 48.5079 45.453C46.3906 46.8866 48.6413 50.4876 49.3915 51.9879" fill="#636363"/>
<path d="M51.1763 24.18C49.0257 23.6799 47.9588 25.0803 47.3086 26.5305C46.7251 26.3973 46.9585 25.5971 47.1087 25.197C47.4919 24.1468 49.0425 22.7296 50.3093 22.9297C50.8428 22.9964 51.5763 23.4966 51.1763 24.18ZM61.6289 26.6139H61.7288C62.2124 27.6142 62.629 28.6812 63.246 29.5814C62.8293 30.5483 60.1452 31.3818 60.1784 29.6814C60.7619 29.4314 61.7623 29.6313 62.2791 29.298C61.979 28.4811 61.5622 27.7807 61.6289 26.6139ZM52.2599 26.6475C52.7267 27.4976 52.8765 28.3812 53.5267 29.0147C53.827 29.298 54.3937 29.6481 54.1104 30.4482C54.0437 30.6317 53.5602 31.0485 53.2767 31.1318C52.2599 31.4319 49.8758 31.1985 50.6761 29.9148C51.5262 29.9482 52.66 30.465 53.2935 29.8481C52.81 29.0813 51.9431 27.5475 52.2599 26.6475ZM61.2455 35.216C59.7117 36.1997 57.9945 37.2834 55.4607 37.0332C54.9273 36.5665 54.7105 35.5161 55.244 34.8328C55.5106 35.2995 55.3439 36.1664 56.1109 36.2997C57.5445 36.5498 59.2115 35.4161 60.2451 35.0329C60.8785 33.9492 60.1952 33.5658 59.6117 32.8655C58.4281 31.4485 56.8611 29.6814 56.911 27.5643C57.3945 27.2142 57.4278 28.0977 57.4945 28.2478C58.1112 29.6814 59.6618 31.5319 60.7786 32.7656C61.062 33.0656 61.5121 33.3657 61.5622 33.5658C61.7122 34.1325 61.1788 34.8324 61.2455 35.216ZM40.9402 34.1826C40.4568 33.8991 40.3402 32.6989 39.7734 32.6654C38.9565 32.6155 39.1065 34.2326 39.1065 35.1827C38.5565 34.6827 38.4563 33.1155 38.8565 32.3155C38.3898 32.0819 38.1895 32.5655 37.9229 32.7321C38.273 30.315 41.4736 31.6152 40.9402 34.1826ZM62.2124 36.233C61.4955 37.6001 60.4785 39.1004 58.378 39.1505C58.328 38.717 58.2947 38.0335 58.378 37.7667C59.9951 37.6001 60.9953 36.7832 62.2124 36.233ZM52.1432 37.1165C53.4768 37.8168 55.9441 37.9001 57.7779 37.8501C57.8779 38.2503 57.8779 38.7503 57.8779 39.2338C55.5274 39.3338 52.7599 38.7503 52.1432 37.1165ZM51.8932 38.4169C52.8266 40.7508 56.0108 40.4842 58.6947 40.4175C58.5781 40.7175 58.328 41.0843 57.9946 41.2009C57.1277 41.551 54.7604 41.8178 53.5602 41.1843C52.81 40.7842 52.3098 39.8672 51.8932 39.3338C51.7097 39.0838 50.7095 38.4336 51.8932 38.4169Z" fill="#191919"/>
<path d="M61.1277 51.2693C60.044 53.1364 58.994 55.0536 57.7104 56.6873C58.2436 55.1036 58.477 52.4363 58.5605 50.4025C59.6941 49.8689 60.661 50.519 61.1277 51.2693Z" fill="#7C7C7C"/>
<path d="M66.9789 57.9724C65.762 58.2224 64.9117 59.406 63.7115 59.3227C64.3783 58.4057 65.5119 58.0057 66.9789 57.9724ZM67.5124 59.8728C66.5122 59.9729 65.3452 60.1396 64.345 60.0563C64.8284 59.3227 66.6622 59.5893 67.5124 59.8728ZM67.8625 61.5233C66.7456 61.54 65.3618 61.5233 64.295 61.4398C64.9284 60.7564 67.1456 61.1898 67.8625 61.5233Z" fill="#191919"/>
<path d="M59.028 66.0233C59.1947 67.4236 59.7449 68.8408 59.6782 70.3744C59.0613 70.5743 58.7113 70.7578 57.8776 70.7578C57.8277 69.4574 57.6443 67.4571 57.6943 66.2067C58.0944 66.24 58.6945 65.9233 59.028 66.0233Z" fill="#E4E4E4"/>
<path d="M57.2254 45.351C56.6586 45.7176 56.1918 46.1677 55.6416 46.5679C54.4413 46.6346 53.7911 46.4846 52.9244 45.8011C52.941 45.751 53.0243 45.7677 53.0243 45.701C54.3079 46.2678 55.9417 45.4678 57.2254 45.351Z" fill="#E4E4E4"/>
<path d="M50.5255 54.0699C50.8756 52.5528 52.2593 51.7527 53.5095 50.9192C54.7931 52.5529 55.5767 54.6534 56.4436 56.6872C54.3931 56.0704 52.3092 55.0869 50.5255 54.0699Z" fill="#7C7C7C"/>
<path d="M57.6929 66.2239C57.6428 67.4742 57.8095 69.4581 57.8762 70.7749C58.7099 70.7749 59.0599 70.5916 59.6768 70.3915C59.7435 68.8578 59.1933 67.4408 59.0266 66.0404C58.6931 65.9238 58.0929 66.2405 57.6929 66.2239ZM44.8229 59.1555C45.3732 64.1733 46.1566 68.3742 47.6069 72.8255C50.8245 73.8091 54.6921 73.8924 57.5429 73.0088C57.0261 70.5083 57.2428 67.4576 56.9427 64.7734C56.7092 62.7563 56.826 60.7392 56.5093 58.6886C53.0583 57.9719 48.1906 58.5219 44.8229 59.1555ZM57.3261 58.722C57.2927 60.8726 57.4261 63.0063 57.5929 65.1568C58.4263 65.0402 58.9765 64.9569 59.7435 64.7734C59.4933 62.7062 59.5268 60.3558 59.01 58.5219C58.4265 58.5387 57.9095 58.5221 57.3261 58.722ZM61.5105 58.3717C61.1104 58.2884 60.6603 58.3717 60.2936 58.3717C60.4769 60.1222 60.8937 62.056 61.0437 63.9065C61.6272 63.9231 61.9439 63.6397 62.4275 63.5564C62.4607 61.9393 62.2941 59.7054 61.5105 58.3717ZM67.8621 64.1731C69.0958 63.8731 69.8626 62.3727 69.5125 60.8223C69.2791 59.7887 68.8791 57.8216 68.4288 57.1546C68.1121 56.6713 67.2285 56.0211 66.5118 56.4712C65.3614 57.2047 63.3443 57.4214 62.5108 58.305C62.9275 59.7054 63.0609 61.6059 63.2275 63.3729C64.6613 63.4564 66.4117 62.973 67.6121 63.4897C66.7784 63.7565 65.7116 63.7565 64.9947 64.1565C65.5948 64.4399 66.9619 64.39 67.8621 64.1733M56.4259 56.6881C55.559 54.6543 54.7756 52.5538 53.4918 50.9201C52.2415 51.7534 50.8745 52.5538 50.5078 54.0708C52.3082 55.0878 54.3922 56.0713 56.4259 56.6881ZM58.5597 50.4033C58.4764 52.4371 58.243 55.1044 57.7095 56.6881C58.9932 55.0377 60.0436 53.1372 61.1271 51.2701C60.6603 50.5199 59.6934 49.8697 58.5599 50.4031M56.1427 49.553C55.6591 49.5028 55.2425 50.1197 54.6089 49.8529C54.4589 50.0196 54.3255 50.1864 54.1754 50.3531C55.5758 52.0533 56.226 54.4542 57.3097 56.4379C57.8932 54.5209 57.8265 52.4369 57.9599 50.3531C57.1596 50.3863 56.7095 49.6029 56.1427 49.5528M54.5923 47.5021C54.5422 48.0856 54.6756 48.2691 54.7922 48.9359C56.6927 49.536 56.376 46.3185 54.5923 47.5021ZM52.475 46.802C51.6581 46.3517 50.4246 45.8684 49.3576 45.6684C48.0407 45.4182 48.1739 47.4688 48.224 48.6859C48.2741 49.6526 48.7742 50.6696 48.991 51.3198C49.0909 51.6199 49.1242 51.9366 49.3744 52.0033C49.8245 52.1034 51.3248 51.5199 51.7416 51.2864C52.6418 50.803 53.3419 50.0196 54.1089 49.486C54.1255 49.236 54.1255 48.9692 54.1422 48.7192C53.6754 48.4856 53.1586 48.3358 52.475 48.3025C52.9253 48.069 53.6087 48.069 54.0254 47.8023C54.0254 47.7022 54.0254 47.6022 54.0422 47.5021C53.2752 47.4188 52.9918 47.0854 52.475 46.802ZM44.6398 45.385C43.9563 46.0851 46.5568 47.0187 47.3739 47.0688C47.3739 46.6353 47.6239 46.2187 47.5738 45.9018C46.5903 45.7351 45.3067 45.8517 44.6398 45.385ZM53.042 45.7017C53.042 45.7684 52.9585 45.7518 52.9419 45.8018C53.8255 46.4853 54.4755 46.6352 55.6591 46.5686C56.1927 46.1852 56.6761 45.7185 57.243 45.3515C55.9426 45.4683 54.3088 46.2686 53.0419 45.7017M60.7437 48.036C60.7104 47.2691 60.5101 45.6854 60.0268 45.402C59.0266 44.8185 57.2594 46.5856 56.5093 46.8524C56.5926 47.0858 56.726 47.2691 56.7426 47.5691C57.1929 47.4525 57.7262 47.5359 58.1096 47.7192C57.6595 47.7692 57.1761 47.7692 56.876 47.986C56.7759 48.3027 56.9093 48.7195 56.826 49.153C57.8762 49.453 59.0933 49.6031 60.427 49.653C60.677 49.3196 60.7769 48.6861 60.7437 48.036ZM43.4893 46.0522C43.2725 45.9021 41.8223 44.0182 41.6222 44.1015C39.0049 45.1353 36.5543 46.9191 34.3703 48.6194C36.4542 53.1039 37.3045 58.5886 37.4545 63.8732C39.8386 64.9902 41.9389 66.6073 45.1897 66.7739C44.8063 64.1234 44.473 61.7393 44.2562 59.2387C43.4394 58.8887 42.2724 59.2555 41.5056 59.1387C41.5056 58.2219 42.6724 58.7387 42.7724 58.1219C42.8392 57.655 42.1222 57.6217 42.3557 56.8882C42.9558 57.1049 43.2725 57.5883 43.9061 57.7718C44.4896 56.5048 43.9061 54.2543 43.9894 53.1872C44.0062 52.9873 44.0894 52.0869 44.5395 52.237C44.9397 52.3704 44.5229 54.6543 44.5563 55.6545C44.5896 56.5881 44.4395 57.4717 44.8229 58.0552C47.9572 57.6217 51.1413 57.3549 54.542 57.2549C53.7919 56.9382 52.9083 56.6382 51.9414 56.0879C51.408 55.7879 49.7576 55.1711 49.6076 54.6709C49.3574 53.8707 50.241 53.454 50.391 52.7704C48.8073 53.6373 48.5073 51.9371 48.1239 50.7533C47.7904 49.6696 47.5904 48.8529 47.5071 48.236C46.1234 47.5359 44.6563 46.8857 43.4893 46.0522ZM59.3599 44.3183C61.5439 43.2682 61.9439 48.2694 61.077 49.8865C61.2104 50.3699 61.6605 50.5533 61.844 50.9866C60.6269 53.1706 59.2768 55.2044 58.0262 57.3549C58.9433 56.7714 60.2769 57.2549 61.3604 56.8215C61.7606 56.6714 62.0441 55.7546 62.3441 55.0211C63.1775 53.0206 64.0444 50.4865 64.428 48.5863C64.5113 48.1528 64.7613 47.2024 64.6946 46.819C64.5946 46.1189 63.661 45.6021 63.1775 45.1852C62.2941 44.385 61.7438 43.7017 60.8102 42.9513C60.4602 43.5016 59.66 43.8682 59.3599 44.3185M38.5047 24.9636C37.4711 26.114 37.6879 28.2479 37.8046 29.7815C39.6884 28.598 42.1724 29.8816 42.1556 31.8821C43.0558 31.8653 42.4891 30.7652 42.3224 30.0483C41.7888 27.7311 43.2226 25.2304 42.389 23.1133C40.772 23.2465 39.455 23.8966 38.5047 24.9636ZM45.9399 18.3122C43.5894 18.9791 40.5719 20.6961 39.605 22.8132C40.3552 22.6966 40.872 22.3299 41.6055 22.2798C41.889 22.2632 42.2557 22.3966 42.5724 22.3132C43.2058 22.1466 43.7561 20.7128 44.2394 20.1793C44.7063 19.6625 45.273 19.4292 45.6566 18.9624C45.9066 18.8457 46.2732 18.8457 46.29 18.4789C46.1901 18.3621 46.0733 18.279 45.9399 18.3122ZM58.1929 18.9456C55.7425 17.5621 51.6081 16.5285 49.0074 17.8287C46.9068 18.8789 44.0729 20.6126 43.1059 22.7968C44.0061 24.9137 42.8392 26.8475 42.7557 28.998C42.7225 30.1484 43.2893 31.1321 43.3392 32.3825C43.0225 32.8993 42.0889 32.9492 41.4389 32.9159C41.2221 31.8154 40.8387 30.5819 39.705 30.4485C38.1047 30.2652 36.9211 31.5989 36.8544 32.9826C36.771 34.6163 38.1047 37.3169 40.0051 37.1336C40.7386 37.0669 40.9221 36.3334 41.7221 36.3334C42.1556 37.2003 41.0555 37.467 40.9387 38.0837C40.9053 38.2506 41.022 38.8673 41.1054 39.1674C41.4555 40.5844 42.2223 42.4349 42.9725 43.5186C43.9394 44.9021 45.8233 45.1022 47.8571 45.2356C48.2238 44.452 49.5575 44.5187 50.4243 44.7188C49.3742 44.3022 48.4073 43.3018 47.6071 42.4182C46.6901 41.4013 45.7566 40.3178 45.7065 38.9841C47.457 41.4013 48.8907 43.5186 52.0582 44.5856C54.4587 45.3857 57.2594 44.2187 59.1099 42.9184C59.8767 42.3848 60.3268 41.518 60.8771 40.7511C62.9108 37.8171 63.8611 33.6493 63.661 29.5984C63.5777 27.9313 63.5777 26.2642 63.0108 25.1472C62.4275 23.9802 60.4436 22.9134 59.2766 23.9802C59.0599 22.83 60.2435 22.1298 61.6271 22.5466C60.6437 21.263 59.6101 19.7459 58.1929 18.9456ZM62.7608 56.6385C64.678 55.6882 68.2455 54.0878 69.4291 56.6385C69.8794 57.5886 70.396 59.1725 70.6128 60.156C70.9295 61.5231 70.2626 64.4238 68.8456 64.8737C67.5953 65.2739 66.145 65.2573 64.6447 64.9572C64.4612 64.8072 64.2779 64.557 64.1279 64.2902C63.061 64.257 62.0441 64.3405 61.2104 64.7906C61.2937 65.5906 60.7603 65.7074 60.2435 65.8742C59.8767 67.3578 60.9937 69.2916 60.727 70.6252C60.5436 71.5921 59.3599 71.7422 58.4932 71.9089C58.4597 72.4425 58.5264 72.8926 58.5931 73.3427C58.3932 74.0762 57.5094 74.4929 56.6593 74.593C53.8754 74.9263 49.6576 75.0764 46.9903 74.1095C46.24 72.2758 45.6566 70.0585 45.0397 67.9747C42.439 68.258 40.3219 66.8576 38.3381 65.9241C37.6546 65.6074 36.7043 65.424 36.4375 64.8739C36.1875 64.3405 36.2875 63.3235 36.2208 62.3732C36.0708 59.9226 35.9207 57.5554 35.2873 55.0547C35.0039 53.9211 34.4871 52.9376 34.137 51.8541C33.8036 50.8537 33.2368 49.6034 33.0867 48.6031C32.87 47.1195 34.2704 47.036 35.1539 46.3858C36.5377 45.3857 37.6212 44.8354 39.1215 43.9352C39.5718 43.6686 40.9053 43.0017 41.0553 42.6849C41.3555 42.0683 40.5387 41.2013 40.3219 40.7178C39.9718 39.951 39.7883 39.3008 39.7384 38.5505C38.4881 38.3505 37.5212 37.6004 36.9545 36.7669C36.0041 35.3665 35.3372 32.7825 36.1709 30.8321C36.2376 30.682 36.5543 30.3652 36.6044 30.1318C36.7043 29.6651 36.4209 29.0481 36.4043 28.5481C36.3209 25.9974 36.8377 23.7968 38.5548 23.03C39.2549 20.246 41.7554 19.3292 44.1062 17.9455C44.9898 17.4287 45.9567 17.0953 46.9569 16.7284C50.541 15.4115 56.0592 15.6615 59.0432 17.912C60.3102 18.8623 62.3273 20.8794 63.0442 22.3465C64.9612 26.1975 64.8114 32.6491 63.4777 37.3504C63.2942 37.9838 63.0442 38.9006 62.6775 39.6676C62.4275 40.201 61.6439 41.2512 61.7272 41.718C61.8273 42.2015 63.5278 43.4851 63.8945 43.8353C64.5447 44.4687 65.7949 45.3023 65.8949 46.1026C66.0116 46.9527 65.5283 48.1197 65.2783 48.9366C64.4779 51.6706 63.6778 54.1879 62.7608 56.6385Z" fill="#191919"/>
<path d="M50.0088 37.7001C50.1087 37.5667 50.6754 37.3501 51.4757 37.7335C51.4757 37.7335 50.5254 37.8836 50.6087 39.4674L50.2087 39.3839C50.2255 39.4007 49.8087 37.9669 50.0088 37.7001Z" fill="#DADADA"/>
<path d="M56.9092 51.2364C56.9092 51.4698 56.7092 51.6699 56.4757 51.6699C56.2423 51.6699 56.0422 51.4698 56.0422 51.2364C56.0422 51.0031 56.2423 50.803 56.4757 50.803C56.7259 50.803 56.9092 51.0029 56.9092 51.2364ZM57.3426 53.2536C57.3426 53.4871 57.1427 53.6871 56.9092 53.6871C56.6758 53.6871 56.4757 53.4871 56.4757 53.2536C56.4757 53.02 56.6758 52.8201 56.9092 52.8201C57.1593 52.8201 57.3426 53.0036 57.3426 53.2536Z" fill="#191919"/>
<path d="M34.6381 78.7595C34.5047 78.7763 34.388 78.793 34.2879 78.8096C34.188 78.8264 34.088 78.8428 33.9544 78.8763C33.8044 78.9095 33.7211 78.9762 33.6878 79.0762C33.6544 79.1763 33.6211 79.2763 33.6211 79.4097V83.4772C33.6212 83.8349 33.5414 84.1881 33.3876 84.511C33.2377 84.8277 33.0376 85.0777 32.771 85.2944C32.5042 85.4945 32.2041 85.6612 31.8706 85.7613C31.5373 85.8613 31.1871 85.928 30.8205 85.928C30.1703 85.928 29.6534 85.778 29.2533 85.4613C28.8533 85.1446 28.6532 84.7277 28.6532 84.1777C28.6532 83.8608 28.7365 83.594 28.92 83.3773C29.1033 83.1605 29.3535 83.0606 29.6702 83.0606C29.9702 83.0606 30.2036 83.1439 30.3869 83.3274C30.5704 83.5107 30.6537 83.7274 30.6537 83.9776C30.6537 84.1943 30.5704 84.411 30.4202 84.5942C30.2703 84.7776 30.0868 84.9611 29.8869 85.1111V85.1778C29.9202 85.2445 29.9869 85.3112 30.0868 85.3611C30.187 85.4112 30.3036 85.4278 30.4037 85.4278C30.8204 85.4278 31.1539 85.2778 31.3872 84.9777C31.6206 84.6777 31.7374 84.2276 31.7374 83.6274V79.4598C31.7374 79.343 31.7206 79.2262 31.6873 79.1429C31.6539 79.0596 31.5539 78.9929 31.4039 78.9262C31.3039 78.8763 31.1703 78.8428 31.0205 78.8096C30.8704 78.7761 30.7537 78.7595 30.6537 78.7429V78.3428H34.588V78.7595H34.6381ZM40.8062 84.4944C40.6895 84.6943 40.5394 84.8778 40.3728 85.0611C40.2061 85.2444 40.006 85.3778 39.7893 85.5113C39.5559 85.6446 39.3225 85.7446 39.0892 85.8112C38.8556 85.8779 38.5724 85.9114 38.2723 85.9114C37.7555 85.9114 37.322 85.8447 36.9386 85.6946C36.5719 85.5446 36.2552 85.3611 36.0216 85.1111C35.7716 84.861 35.605 84.5777 35.4716 84.2442C35.3501 83.8958 35.2881 83.5295 35.2881 83.1605C35.2881 82.8106 35.3548 82.4604 35.4882 82.1437C35.6216 81.827 35.8049 81.527 36.0384 81.2768C36.2719 81.0268 36.5719 80.8267 36.9386 80.6767C37.3196 80.521 37.7274 80.4416 38.1389 80.4431C38.6223 80.4431 39.0225 80.51 39.3392 80.6266C39.6559 80.7432 39.906 80.91 40.106 81.1101C40.3061 81.3101 40.4395 81.5436 40.5394 81.8102C40.6228 82.077 40.6728 82.3605 40.6728 82.6604V82.9939H37.1554C37.1554 83.7108 37.2886 84.2442 37.572 84.611C37.8388 84.9777 38.2889 85.1612 38.8724 85.1612C39.2058 85.1612 39.4892 85.0777 39.756 84.8944C40.0224 84.7142 40.2493 84.4817 40.4228 84.2109L40.8062 84.4944ZM38.8224 82.5105C38.8224 82.3106 38.8056 82.0938 38.7891 81.8771C38.7723 81.6604 38.739 81.4769 38.6723 81.3435C38.6056 81.1768 38.5389 81.0601 38.4223 80.9767C38.3222 80.8934 38.1888 80.8601 38.0389 80.8601C37.7721 80.8601 37.5554 80.9934 37.4054 81.26C37.2387 81.527 37.1554 81.9603 37.1386 82.5438L38.8224 82.5105ZM48.1581 85.7279H45.024V85.3445C45.0907 85.3445 45.174 85.3277 45.2574 85.3112C45.3573 85.2944 45.424 85.2778 45.4741 85.2612C45.5408 85.2277 45.5907 85.1612 45.6241 85.0945C45.6574 85.0278 45.6742 84.911 45.6742 84.7776V82.3438C45.6742 81.9937 45.6075 81.7269 45.4741 81.5436C45.3407 81.3601 45.1574 81.2768 44.8906 81.2768C44.7572 81.2768 44.6238 81.2936 44.5072 81.3435C44.3904 81.3768 44.2737 81.4435 44.1571 81.527C44.0571 81.5935 43.9738 81.6602 43.9071 81.7437C43.8403 81.8102 43.7903 81.8769 43.757 81.9436V84.7276C43.757 84.8443 43.7737 84.9444 43.8069 85.0278C43.8404 85.1111 43.9071 85.1778 43.9738 85.2111C44.0343 85.2518 44.1022 85.2801 44.1737 85.2944L44.4239 85.3445V85.7279H41.2563V85.3445C41.3397 85.3445 41.423 85.3277 41.5231 85.3112C41.6065 85.2944 41.6898 85.2778 41.7565 85.2612C41.8731 85.2277 41.9398 85.1612 41.9899 85.0777C42.0231 84.9944 42.0566 84.8944 42.0566 84.761V81.7269C42.0566 81.6269 42.0231 81.5102 41.9732 81.4102C41.9232 81.3102 41.8398 81.2267 41.7565 81.1602C41.6898 81.1268 41.6231 81.0767 41.523 81.0601C41.4209 81.0261 41.3139 81.0092 41.2063 81.0102V80.6266L43.6903 80.4934L43.7737 80.5767V81.3269H43.7905C43.912 81.2268 44.0288 81.1211 44.1404 81.0102C44.2631 80.9038 44.3911 80.8035 44.5238 80.7099C44.6572 80.6266 44.8239 80.5599 45.024 80.4932C45.2239 80.4267 45.4575 80.4099 45.6908 80.4099C46.2575 80.4099 46.6744 80.5767 46.9576 80.8934C47.2412 81.2101 47.3745 81.6436 47.3745 82.177V84.7279C47.3745 84.8612 47.3911 84.9612 47.4245 85.028C47.458 85.1113 47.5413 85.1614 47.6413 85.2113C47.6913 85.2281 47.758 85.2613 47.8412 85.278C47.9247 85.2948 48.008 85.3114 48.1248 85.328V85.7281L48.1581 85.7279ZM55.3266 85.7279H52.876C52.6175 85.2661 52.3394 84.8156 52.0423 84.3776C51.7923 84.0108 51.5589 83.6607 51.3422 83.3606L51.0421 83.6274V84.761C51.0421 84.8778 51.0589 84.9945 51.0922 85.0611C51.1255 85.1444 51.1922 85.1945 51.3089 85.2445C51.3755 85.2778 51.4422 85.2944 51.5257 85.3112C51.609 85.3279 51.6923 85.3445 51.7757 85.3445V85.7279H48.5415V85.3445C48.6248 85.3445 48.7081 85.3277 48.8083 85.3112C48.8916 85.2944 48.9749 85.2778 49.0416 85.2612C49.1584 85.2277 49.2249 85.1612 49.2752 85.0777C49.3084 84.9944 49.3417 84.8944 49.3417 84.761V78.9596C49.3417 78.8428 49.3084 78.726 49.2584 78.6094C49.2083 78.4929 49.1416 78.3927 49.0416 78.326C48.9749 78.2928 48.875 78.2427 48.7416 78.2261C48.6082 78.1928 48.4916 78.176 48.3748 78.176V77.7926L50.9588 77.6592L51.0421 77.7425V83.1105C51.2921 82.8773 51.5922 82.6105 51.9091 82.3104C52.2258 82.0103 52.4924 81.7603 52.6759 81.5602C52.7926 81.4435 52.8592 81.3603 52.8592 81.2934C52.876 81.2267 52.876 81.1935 52.876 81.1768C52.876 81.1101 52.8259 81.0601 52.7091 81.0268C52.5925 80.9934 52.4425 80.9435 52.2091 80.91V80.5433H54.843V80.91C54.4929 81.0102 54.2263 81.0935 54.0428 81.1768C53.8595 81.2602 53.6594 81.3768 53.4427 81.5102C53.301 81.6062 53.162 81.7063 53.026 81.8102C52.8926 81.9104 52.7426 82.0438 52.5591 82.1936C52.8926 82.6938 53.2093 83.1439 53.4927 83.5607C53.7762 83.9774 54.0762 84.4277 54.3929 84.8944C54.4929 85.0611 54.6265 85.1612 54.793 85.2277C54.9598 85.2778 55.1098 85.3112 55.2765 85.3279V85.7279H55.3266ZM58.6608 85.7279H55.3765V85.3445C55.4598 85.3445 55.5599 85.3277 55.6433 85.3112C55.7266 85.2944 55.8099 85.2778 55.86 85.2612C55.9766 85.2277 56.0433 85.1612 56.0934 85.0777C56.1434 84.9944 56.1601 84.8944 56.1601 84.761V81.7269C56.1601 81.6103 56.1266 81.4935 56.0767 81.4102C56.0332 81.3196 55.9636 81.2442 55.8768 81.1935C55.8099 81.1602 55.7266 81.1101 55.5932 81.0767C55.4598 81.0433 55.3432 81.0102 55.2432 81.0102V80.6266L57.7938 80.4934L57.8772 80.5767V84.7109C57.8772 84.8277 57.9106 84.9277 57.9605 85.0278C58.0106 85.1111 58.0939 85.1778 58.1772 85.2111C58.2511 85.2489 58.3296 85.2769 58.4108 85.2944C58.4939 85.3112 58.5774 85.3279 58.6774 85.3445V85.7279H58.6608ZM57.9106 78.6429C57.9106 78.9095 57.8105 79.1263 57.6104 79.3097C57.4104 79.493 57.1602 79.593 56.8936 79.593C56.6102 79.593 56.3768 79.493 56.1601 79.3097C55.9601 79.1263 55.86 78.8929 55.86 78.6427C55.86 78.3761 55.96 78.1593 56.1601 77.9592C56.36 77.7759 56.6102 77.676 56.8936 77.676C57.177 77.676 57.4104 77.7759 57.6104 77.9592C57.8105 78.1427 57.9106 78.3761 57.9106 78.6429ZM66.0126 85.7279H62.8783V85.3445C62.9449 85.3445 63.0284 85.3277 63.1117 85.3112C63.2117 85.2944 63.2784 85.2778 63.3284 85.2612C63.395 85.2277 63.445 85.1612 63.4785 85.0945C63.5117 85.0278 63.5284 84.911 63.5284 84.7776V82.3438C63.5284 81.9937 63.4617 81.7269 63.3284 81.5436C63.195 81.3601 63.0116 81.2768 62.7449 81.2768C62.6115 81.2768 62.4781 81.2936 62.3615 81.3435C62.2448 81.3936 62.128 81.4435 62.0114 81.527C61.9113 81.5935 61.8279 81.6602 61.7612 81.7437C61.6947 81.8102 61.6447 81.8769 61.6112 81.9436V84.7276C61.6112 84.8443 61.6279 84.9444 61.6613 85.0278C61.6947 85.1111 61.7612 85.1778 61.8279 85.2111C61.878 85.2445 61.9447 85.2778 62.028 85.2944L62.278 85.3445V85.7279H59.1107V85.3445C59.194 85.3445 59.2774 85.3277 59.3773 85.3112C59.4607 85.2944 59.5442 85.2778 59.6109 85.2612C59.7275 85.2277 59.794 85.1612 59.8442 85.0777C59.8775 84.9944 59.9109 84.8944 59.9109 84.761V81.7269C59.9109 81.6269 59.8775 81.5102 59.8274 81.4102C59.7775 81.3102 59.6942 81.2267 59.6107 81.1602C59.5442 81.1268 59.4775 81.0767 59.3773 81.0601C59.2752 81.0261 59.1682 81.0092 59.0606 81.0102V80.6266L61.5447 80.4934L61.628 80.5767V81.3269H61.6446C61.7662 81.2268 61.8831 81.1211 61.9948 81.0102C62.1175 80.9038 62.2454 80.8035 62.3782 80.7099C62.5116 80.6266 62.6782 80.5599 62.8783 80.4932C63.0783 80.4267 63.3118 80.4099 63.5452 80.4099C64.1119 80.4099 64.5287 80.5767 64.812 80.8934C65.0954 81.2101 65.2288 81.6436 65.2288 82.177V84.7279C65.2288 84.8612 65.2455 84.9612 65.2789 85.028C65.3121 85.1113 65.3955 85.1614 65.4956 85.2113C65.5455 85.2281 65.6122 85.2613 65.6955 85.278C65.779 85.2948 65.8624 85.3114 65.979 85.328V85.7281L66.0126 85.7279ZM68.8965 85.9114C68.5631 85.9114 68.2298 85.8613 67.9129 85.7613C67.5962 85.6612 67.3462 85.5612 67.1628 85.4445L67.0127 85.7946H66.6127L66.546 83.8608H66.9294C66.9795 84.0108 67.0628 84.1941 67.1962 84.3942C67.3128 84.5942 67.4628 84.761 67.6129 84.9277C67.7849 85.0836 67.9752 85.218 68.1797 85.3279C68.3965 85.4278 68.6132 85.4945 68.8466 85.4945C69.1633 85.4945 69.3966 85.4278 69.5467 85.3112C69.6967 85.1945 69.7802 84.9944 69.7802 84.7444C69.7802 84.6111 69.7468 84.4944 69.6801 84.3942C69.6134 84.3109 69.5134 84.2276 69.3966 84.1609C69.2634 84.0942 69.1134 84.0275 68.9465 83.9776C68.7799 83.9275 68.5798 83.8774 68.3464 83.7941C68.113 83.7274 67.9129 83.6607 67.7463 83.5774C67.5796 83.5107 67.3961 83.3941 67.2295 83.244C67.0794 83.1106 66.946 82.944 66.8627 82.7605C66.7627 82.5772 66.7293 82.3438 66.7293 82.077C66.7293 81.5935 66.9294 81.1935 67.3462 80.8934C67.7631 80.5933 68.2965 80.4431 68.9633 80.4431C69.28 80.4431 69.5635 80.4767 69.8303 80.5433C70.0969 80.61 70.3136 80.6767 70.4969 80.76L70.6137 80.4599H71.0137L71.0971 82.2271H70.7303C70.6137 81.8603 70.397 81.5602 70.1137 81.2934C69.8135 81.0268 69.4967 80.8935 69.1633 80.8934C68.8966 80.8934 68.6799 80.9435 68.5299 81.0601C68.3798 81.1768 68.2963 81.3269 68.2963 81.527C68.2963 81.7936 68.4131 81.9771 68.6298 82.0937C68.8466 82.2103 69.1633 82.3272 69.5635 82.4272C70.1802 82.5938 70.6303 82.8106 70.9304 83.0774C71.2139 83.3606 71.3639 83.7108 71.3639 84.1274C71.3639 84.6943 71.1471 85.1444 70.697 85.4446C70.1969 85.7445 69.6132 85.9114 68.8965 85.9114Z" fill="#E4E4E4"/>
</svg>
