<svg width="100" height="100" viewBox="0 0 100 100" fill="none" xmlns="http://www.w3.org/2000/svg">
<path d="M70.6136 43.391C70.6136 55.0605 61.3612 64.5296 49.9417 64.5296C38.5221 64.5296 29.27 55.0605 29.27 43.391C29.27 31.7213 38.5223 22.2522 49.9417 22.2522C61.3614 22.2522 70.6137 31.7213 70.6137 43.391" fill="#E4E4E4"/>
<path d="M30.1204 48.6254C30.1204 48.6254 28.62 26.5867 48.9418 25.953L47.5248 23.5857L36.5053 27.2866L33.3546 30.9042L30.6039 36.1722L29.0367 42.3071L29.5036 46.4083" fill="#636363"/>
<path d="M35.788 28.9704C32.1705 32.688 29.9199 37.8061 29.9199 43.4741C29.9199 49.1421 32.1705 54.2601 35.788 57.9777C39.4222 61.6952 44.4069 63.9792 49.9416 63.9792C55.4762 63.9792 60.4609 61.6952 64.0951 57.9778C67.7127 54.2601 69.9632 49.1421 69.9632 43.4741C69.9632 37.8059 67.7127 32.688 64.0951 28.9704C60.461 25.2695 55.4763 22.9691 49.9416 22.9691C44.4236 22.9691 39.4224 25.2528 35.788 28.9704ZM34.8711 58.8612C31.0203 54.9269 28.6363 49.4756 28.6363 43.4741C28.6363 37.4726 31.0203 32.0212 34.8711 28.0702C38.7221 24.1359 44.0568 21.6853 49.9417 21.6853C55.8266 21.6853 61.1611 24.1359 65.0121 28.0702C68.8631 32.0045 71.247 37.4558 71.247 43.4741C71.247 49.4755 68.8629 54.9269 65.0121 58.8612C61.1611 62.8122 55.8265 65.2461 49.9416 65.2461C44.0566 65.2461 38.7221 62.8122 34.8711 58.8612Z" fill="#191919"/>
<path d="M58.6439 43.5073L55.4931 43.9741L51.2421 44.4576L48.4914 44.5243L45.8074 44.441L43.7568 43.8076L41.9396 41.8402L40.5226 37.8225L40.2059 36.9556L38.3222 36.3222L37.2217 34.5051L36.4383 31.9043L37.3052 29.6206L39.3558 28.9037L41.0062 29.6873L41.7896 31.4211L42.7399 31.2709L43.0566 30.8709L42.7399 29.0537L42.6565 26.7698L43.1233 23.6191L43.1066 21.8187L44.5403 19.5181L47.0576 17.7009L51.4588 15.8171L56.3434 16.5339L60.5944 19.6014L62.5616 22.7521L63.8284 25.0361L64.1453 30.7041L63.195 35.5886L61.4612 39.9232L59.8276 42.2404" fill="#E4E4E4"/>
<path d="M55.9766 57.1277L44.7238 57.5944V59.4782L45.674 66.0966L45.2071 66.6467L37.3385 63.9627L36.7884 63.0124L36.0048 54.1102L34.1544 48.7755L33.7543 47.5086L40.0559 43.1742L42.0232 42.3906L43.7569 44.5244L45.2572 45.8582L46.9911 46.4083L47.7745 46.6418L48.7248 50.7428L49.4417 51.6097L51.2587 50.9761L49.9917 53.4266L56.8268 56.6608L55.9766 57.1277Z" fill="#393939"/>
<path d="M37.306 29.6539L39.3565 28.9372L41.0069 29.7206L41.7903 31.4545L42.7406 31.3045L42.9741 30.3542L42.5072 28.537L42.974 24.2026L42.5739 21.8354L43.9909 20.185L47.0583 17.751L46.1914 16.5674L41.857 18.7011L40.04 20.1183L39.023 22.3187L37.456 24.4526L36.9893 26.9699L37.306 29.6539Z" fill="#393939"/>
<path d="M40.5402 22.2513C40.5402 22.2513 41.7236 19.334 46.4416 17.917C51.1593 16.5 46.6751 16.9 46.6751 16.9L41.5568 18.8672L39.5899 20.8343L38.723 22.4013L40.5402 22.2513ZM38.1729 29.1031C38.1729 29.1031 36.5224 23.585 42.8239 22.8015L42.5906 21.8513L38.2562 22.8682L36.9893 26.9694L37.306 29.6532L38.1729 29.1031Z" fill="#E4E4E4"/>
<path d="M40.689 36.4229L41.7224 35.4225C41.7224 35.4225 42.1893 35.4726 42.2727 36.0227C42.356 36.5727 42.5894 41.5408 45.9736 44.2082C46.2903 44.4582 43.4563 43.808 43.4563 43.808L40.9388 39.8736M55.1759 34.9224C55.1759 34.9224 55.3592 32.5385 56.0094 32.7219C56.6596 32.9052 56.6596 33.5553 56.6596 33.5553C56.6596 33.5553 55.0926 34.5556 55.1759 34.9224ZM61.7109 26.187C61.7109 26.187 60.4105 26.4536 60.2939 27.604C60.1771 28.7542 61.7109 27.8374 61.9442 27.754M52.1919 26.2703C52.1919 26.2703 50.458 26.5037 50.458 27.604C50.458 28.7043 52.4252 28.6208 52.9753 28.1541M41.4891 31.3883C41.4891 31.3883 38.5052 29.5711 38.1885 31.3049C37.8718 33.0388 37.1715 34.2888 38.6552 36.106L37.6383 35.7893L36.6882 33.3553L36.3713 30.9881L38.1885 29.1043L40.2389 29.2544L41.4225 30.2046L41.4891 31.3883ZM42.9062 26.4204C42.9062 26.4204 44.2398 19.4852 51.0082 18.1515C56.5761 17.0512 59.5103 18.3851 60.6106 19.6519C60.6106 19.6519 55.6426 13.7505 50.9247 15.5509C46.207 17.3681 42.7394 20.6688 42.8227 22.7861C42.9561 26.4202 42.9061 26.4202 42.9061 26.4202M61.1606 20.4355C61.1606 20.4355 58.8769 20.3521 58.7934 22.4025C58.7934 22.4025 58.7934 22.7194 58.9436 23.0361C58.9436 23.0361 60.7606 20.9855 61.8609 22.0858" fill="#BCBCBC"/>
<path d="M51.1753 23.2526C51.1753 23.2526 50.7753 20.1185 48.108 21.9355C46.3741 23.1192 46.5408 24.7695 46.841 25.0864C47.1577 25.4031 47.0744 26.0365 47.3077 25.6032C47.5411 25.1699 47.4744 23.7527 48.3413 23.3525C49.1915 22.9525 50.6253 22.5192 51.1753 23.2526Z" fill="#DADADA"/>
<path d="M43.7738 44.524L36.3715 47.8246C36.3715 47.8246 39.4391 60.0277 37.8719 63.812L36.7717 63.412L36.6884 58.7607L34.6378 49.9587L33.7709 47.5245L41.4895 42.3232L43.7738 44.524ZM44.5238 51.2755L45.574 52.5593V57.277H44.3238C44.3238 57.277 44.1738 53.9763 44.1738 53.5763C44.1738 53.1762 44.3238 51.7591 44.3238 51.7591M44.5572 57.9939L41.0063 58.144L42.0233 58.8609L44.5404 59.2611" fill="#7C7C7C"/>
<path d="M56.6763 57.2105L59.5934 57.1272L60.3103 64.3622L57.3263 64.7625L56.6763 57.2105Z" fill="#393939"/>
<path d="M57.4598 57.2094L61.8609 56.9759C61.8609 56.9759 63.6781 52.4082 63.6781 52.1748C63.6781 51.9413 65.2451 45.5565 65.2451 45.5565L61.6942 41.8556L60.9773 41.2222L59.0936 43.1059V50.4245L57.4598 57.2094Z" fill="#393939"/>
<path d="M59.4269 56.6604L56.6763 57.2106L57.0765 59.4112C58.0933 59.8779 59.8271 58.6276 59.8271 58.6276M59.5103 42.8737L65.0284 46.9747L65.1784 45.0908L61.0108 41.24L59.5103 42.8737Z" fill="#7C7C7C"/>
<path d="M47.2904 72.7148L45.6566 66.0966L44.8398 61.212L44.7064 57.5944L52.0914 57.1943H56.676L56.2593 65.463L56.976 71.8479L56.8927 73.0315L50.9078 73.4984L47.2904 72.7148Z" fill="#E4E4E4"/>
<path d="M55.6594 57.1266C55.6594 57.1266 55.2593 65.3121 56.443 71.1467C56.443 71.1467 54.0757 72.6471 50.6247 73.0305L57.2432 72.7971L58.0266 72.3304L57.0765 59.4271L56.8264 56.6597" fill="#E4E4E4"/>
<path d="M60.4277 63.7451L63.495 62.8782L69.3133 62.5615L70.1802 59.8775L68.613 55.2263L66.796 54.9929L64.2786 55.7765L61.8779 56.9602L60.5943 56.7266L59.594 57.1268" fill="#E4E4E4"/>
<path d="M60.3777 62.1618C60.3777 62.1618 62.4283 61.2115 62.745 61.2948L61.8781 56.9605L62.8951 56.5603C62.8951 56.5603 63.612 60.6614 63.612 61.1282C63.612 61.1282 68.013 61.3615 68.413 61.3615C68.413 61.3615 69.3633 59.5443 69.1299 57.6606L69.9969 60.1779L70.0802 61.5949L68.8132 63.4787L67.3962 63.7955L65.029 63.7122L64.2454 62.6952L61.4947 63.0953L60.6277 63.4121" fill="#E4E4E4"/>
<path d="M57.2769 56.5773L55.5431 52.1763L53.726 49.5755C53.726 49.5755 54.1262 48.4753 54.6763 48.4753H56.4935L58.2274 49.1087L58.0772 52.0262L57.2769 56.5773Z" fill="#E4E4E4"/>
<path d="M57.6263 55.0769C57.6263 55.0769 55.4257 50.8259 55.4257 50.1924C55.4257 50.1924 55.8259 49.2421 56.3759 49.4756C56.9262 49.709 58.1098 50.3426 58.1098 50.3426V48.8421L55.4257 48.292L53.6086 48.5254L56.676 55.7938L57.3094 55.8772" fill="#E4E4E4"/>
<path d="M47.9907 44.6907L45.8069 44.4571L43.7563 43.8237V44.5406L44.7565 45.6409L47.9074 47.0579" fill="#E4E4E4"/>
<path d="M44.475 44.9248C44.475 44.9248 46.9088 45.9418 47.7092 45.7084L47.7924 46.6587L45.5919 46.1918L44.2583 45.2415L44.475 44.9248Z" fill="#E4E4E4"/>
<path d="M60.4275 48.7428C59.0938 48.7094 57.8767 48.5427 56.8265 48.2426C56.8932 47.8092 56.7598 47.3925 56.8766 47.0756C57.1766 46.8589 57.66 46.8589 58.1101 46.809C57.7267 46.6255 57.1766 46.5422 56.7432 46.659C56.7264 46.3589 56.5931 46.1754 56.5096 45.9421C57.26 45.6753 59.0271 43.9249 60.0273 44.4916C60.5108 44.7751 60.7109 46.3421 60.7442 47.1257C60.7774 47.7591 60.6775 48.3927 60.4275 48.7428Z" fill="#E4E4E4"/>
<path d="M60.4275 48.7428C59.0938 48.7094 57.8767 48.5427 56.8265 48.2426C56.8932 47.8092 56.7598 47.3925 56.8766 47.0756C57.1766 46.8589 57.66 46.8589 58.1101 46.809C57.7267 46.6255 57.1766 46.5422 56.7432 46.659C56.7264 46.3589 56.5931 46.1754 56.5096 45.9421C57.26 45.6753 59.0271 43.9249 60.0273 44.4916C60.5108 44.7751 60.7109 46.3421 60.7442 47.1257C60.7774 47.7591 60.6775 48.3927 60.4275 48.7428Z" fill="#191919" stroke="#E4E4E4" stroke-width="2"/>
<path d="M54.0418 46.5581C54.0418 46.6583 54.0418 46.758 54.025 46.8582C53.6084 47.125 52.9414 47.125 52.4746 47.3584C53.1416 47.3916 53.6751 47.5583 54.1418 47.775C54.125 48.0252 54.125 48.292 54.1085 48.542C53.3416 49.0588 52.6415 49.8424 51.7413 50.3424C51.3078 50.5759 49.8241 51.1761 49.374 51.0593C49.1238 50.9926 49.0906 50.6759 48.9906 50.3758C48.7739 49.7424 48.2737 48.7087 48.2236 47.7418C48.1736 46.5249 48.0403 44.4743 49.3572 44.7243C50.4241 44.9244 51.6578 45.4079 52.4746 45.858C52.9914 46.1581 53.2749 46.4914 54.0418 46.5581Z" fill="#E4E4E4"/>
<path d="M54.0418 46.5581C54.0418 46.6583 54.0418 46.758 54.025 46.8582C53.6084 47.125 52.9414 47.125 52.4746 47.3584C53.1416 47.3916 53.6751 47.5583 54.1418 47.775C54.125 48.0252 54.125 48.292 54.1085 48.542C53.3416 49.0588 52.6415 49.8424 51.7413 50.3424C51.3078 50.5759 49.8241 51.1761 49.374 51.0593C49.1238 50.9926 49.0906 50.6759 48.9906 50.3758C48.7739 49.7424 48.2737 48.7087 48.2236 47.7418C48.1736 46.5249 48.0403 44.4743 49.3572 44.7243C50.4241 44.9244 51.6578 45.4079 52.4746 45.858C52.9914 46.1581 53.2749 46.4914 54.0418 46.5581Z" fill="#191919" stroke="#E4E4E4" stroke-width="2"/>
<path d="M54.7933 48.0087C54.6766 47.3417 54.5432 47.1586 54.5932 46.5749C56.377 45.3912 56.6939 48.6088 54.7933 48.0087Z" fill="#E4E4E4"/>
<path d="M54.7933 48.0087C54.6766 47.3417 54.5432 47.1586 54.5932 46.5749C56.377 45.3912 56.6939 48.6088 54.7933 48.0087Z" fill="#191919" stroke="#E4E4E4" stroke-width="2"/>
<path d="M57.3601 48.5427C57.3601 48.5427 56.81 47.759 57.21 47.5257C57.6101 47.2923 57.9936 47.5257 58.227 47.1256C58.4605 46.7254 58.227 46.4922 58.3103 46.0253C58.3937 45.5586 58.7771 45.4753 59.1773 45.3919C59.5773 45.3084 60.6776 45.1584 60.8276 45.542L60.3609 44.1248L59.4106 43.8081L56.4266 45.542L56.2766 46.4089V48.1426M49.0914 51.1433C48.9914 49.9096 48.8915 48.6927 48.7913 47.459C48.6247 45.6253 49.2248 45.9418 50.8251 45.9418C51.0753 45.9418 52.3254 46.2254 52.4089 46.4089C52.8424 47.2923 51.692 47.0922 52.9089 47.759C53.9259 48.3093 55.7431 47.4257 55.3263 46.1754C55.0928 45.8919 54.126 46.092 53.7759 45.9086L51.9254 44.9585C51.142 44.5583 49.3414 43.9581 48.5079 44.525C46.3906 45.9586 48.6413 49.5596 49.3915 51.06" fill="#636363"/>
<path d="M51.1763 23.2521C49.0257 22.7519 47.9588 24.1523 47.3086 25.6025C46.7251 25.4693 46.9585 24.6691 47.1087 24.269C47.4919 23.2188 49.0425 21.8016 50.3093 22.0017C50.8428 22.0684 51.5763 22.5686 51.1763 23.2521ZM61.6289 25.6859H61.7288C62.2124 26.6862 62.629 27.7532 63.246 28.6535C62.8293 29.6204 60.1452 30.4539 60.1784 28.7534C60.7619 28.5034 61.7623 28.7033 62.2791 28.37C61.979 27.5531 61.5622 26.8527 61.6289 25.6859ZM52.2599 25.7195C52.7267 26.5696 52.8765 27.4532 53.5267 28.0867C53.827 28.37 54.3937 28.7201 54.1104 29.5202C54.0437 29.7037 53.5602 30.1205 53.2767 30.2039C52.2599 30.5039 49.8758 30.2706 50.6761 28.9868C51.5262 29.0202 52.66 29.537 53.2935 28.9201C52.81 28.1533 51.9431 26.6195 52.2599 25.7195ZM61.2455 34.288C59.7117 35.2717 57.9945 36.3554 55.4607 36.1052C54.9273 35.6385 54.7105 34.5881 55.244 33.9048C55.5106 34.3715 55.3439 35.2385 56.1109 35.3717C57.5445 35.6219 59.2115 34.4881 60.2451 34.1049C60.8785 33.0212 60.1952 32.6378 59.6117 31.9376C58.4281 30.5206 56.8611 28.7534 56.911 26.6363C57.3945 26.2862 57.4278 27.1697 57.4945 27.3198C58.1112 28.7534 59.6618 30.6039 60.7786 31.8376C61.062 32.1377 61.5121 32.4377 61.5622 32.6378C61.7122 33.2045 61.1788 33.9045 61.2455 34.288ZM40.9402 33.2546C40.4568 32.9712 40.3402 31.7709 39.7734 31.7375C38.9565 31.6876 39.1065 33.3047 39.1065 34.2548C38.5565 33.7548 38.4563 32.1876 38.8565 31.3875C38.3898 31.154 38.1895 31.6375 37.9229 31.8042C38.273 29.387 41.4736 30.6872 40.9402 33.2546ZM62.2124 35.305C61.4955 36.6721 60.4785 38.1724 58.378 38.2225C58.328 37.789 58.2947 37.1056 58.378 36.8388C59.9951 36.6721 60.9953 35.8552 62.2124 35.305ZM52.1432 36.1886C53.4768 36.8888 55.9441 36.9722 57.7779 36.9221C57.8779 37.3223 57.8779 37.8223 57.8779 38.3058C55.5274 38.4058 52.7599 37.8223 52.1432 36.1886ZM51.8932 37.489C52.8266 39.8228 56.0108 39.5562 58.6947 39.4895C58.5781 39.7895 58.328 40.1563 57.9946 40.2729C57.1277 40.623 54.7604 40.8898 53.5602 40.2563C52.81 39.8562 52.3098 38.9392 51.8932 38.4058C51.7097 38.1558 50.7095 37.5056 51.8932 37.489Z" fill="#191919"/>
<path d="M61.1277 50.3413C60.044 52.2084 58.994 54.1256 57.7104 55.7593C58.2436 54.1757 58.477 51.5083 58.5605 49.4745C59.6941 48.9409 60.661 49.591 61.1277 50.3413Z" fill="#7C7C7C"/>
<path d="M66.9789 57.0442C65.762 57.2942 64.9117 58.4778 63.7115 58.3945C64.3783 57.4775 65.5119 57.0775 66.9789 57.0442ZM67.5124 58.9446C66.5122 59.0447 65.3452 59.2114 64.345 59.128C64.8284 58.3945 66.6622 58.6611 67.5124 58.9446ZM67.8625 60.5951C66.7456 60.6117 65.3618 60.5951 64.295 60.5116C64.9284 59.8281 67.1456 60.2616 67.8625 60.5951Z" fill="#191919"/>
<path d="M59.028 65.0953C59.1947 66.4957 59.7449 67.9128 59.6782 69.4464C59.0613 69.6464 58.7113 69.8298 57.8776 69.8298C57.8277 68.5294 57.6443 66.5291 57.6943 65.2787C58.0944 65.312 58.6945 64.9953 59.028 65.0953Z" fill="#E4E4E4"/>
<path d="M57.2254 44.423C56.6586 44.7896 56.1918 45.2397 55.6416 45.6399C54.4413 45.7066 53.7911 45.5566 52.9244 44.8731C52.941 44.8231 53.0243 44.8397 53.0243 44.773C54.3079 45.3399 55.9417 44.5398 57.2254 44.423Z" fill="#E4E4E4"/>
<path d="M50.5255 53.1419C50.8756 51.6248 52.2593 50.8247 53.5095 49.9912C54.7931 51.6249 55.5767 53.7254 56.4436 55.7592C54.3931 55.1424 52.3092 54.1589 50.5255 53.1419Z" fill="#7C7C7C"/>
<path d="M57.6929 65.2959C57.6428 66.5462 57.8095 68.5301 57.8762 69.847C58.7099 69.847 59.0599 69.6637 59.6768 69.4636C59.7435 67.9298 59.1933 66.5128 59.0266 65.1124C58.6931 64.9958 58.0929 65.3125 57.6929 65.2959ZM44.8229 58.2275C45.3732 63.2453 46.1566 67.4463 47.6069 71.8975C50.8245 72.8811 54.6921 72.9644 57.5429 72.0808C57.0261 69.5803 57.2428 66.5296 56.9427 63.8455C56.7092 61.8283 56.826 59.8112 56.5093 57.7606C53.0583 57.0439 48.1906 57.5939 44.8229 58.2275ZM57.3261 57.794C57.2927 59.9446 57.4261 62.0783 57.5929 64.2289C58.4263 64.1123 58.9765 64.0289 59.7435 63.8455C59.4933 61.7782 59.5268 59.4278 59.01 57.5939C58.4265 57.6107 57.9095 57.5941 57.3261 57.794ZM61.5105 57.4437C61.1104 57.3604 60.6603 57.4437 60.2936 57.4437C60.4769 59.1942 60.8937 61.128 61.0437 62.9785C61.6272 62.9952 61.9439 62.7117 62.4275 62.6284C62.4607 61.0113 62.2941 58.7774 61.5105 57.4437ZM67.8621 63.2452C69.0958 62.9451 69.8626 61.4447 69.5125 59.8943C69.2791 58.8607 68.8791 56.8937 68.4288 56.2267C68.1121 55.7433 67.2285 55.0931 66.5118 55.5432C65.3614 56.2767 63.3443 56.4935 62.5108 57.377C62.9275 58.7774 63.0609 60.6779 63.2275 62.4449C64.6613 62.5284 66.4117 62.0451 67.6121 62.5617C66.7784 62.8285 65.7116 62.8285 64.9947 63.2285C65.5948 63.512 66.9619 63.4621 67.8621 63.2453M56.4259 55.7601C55.559 53.7263 54.7756 51.6259 53.4918 49.9921C52.2415 50.8255 50.8745 51.6259 50.5078 53.1428C52.3082 54.1598 54.3922 55.1433 56.4259 55.7601ZM58.5597 49.4753C58.4764 51.5091 58.243 54.1764 57.7095 55.7601C58.9932 54.1097 60.0436 52.2092 61.1271 50.3421C60.6603 49.5919 59.6934 48.9417 58.5599 49.4752M56.1427 48.625C55.6591 48.5748 55.2425 49.1917 54.6089 48.9249C54.4589 49.0916 54.3255 49.2584 54.1754 49.4251C55.5758 51.1254 56.226 53.5262 57.3097 55.5099C57.8932 53.5929 57.8265 51.5089 57.9599 49.4251C57.1596 49.4584 56.7095 48.6749 56.1427 48.6248M54.5923 46.5741C54.5422 47.1576 54.6756 47.3411 54.7922 48.0079C56.6927 48.608 56.376 45.3905 54.5923 46.5741ZM52.475 45.874C51.6581 45.4237 50.4246 44.9404 49.3576 44.7404C48.0407 44.4903 48.1739 46.5408 48.224 47.7579C48.2741 48.7246 48.7742 49.7416 48.991 50.3918C49.0909 50.6919 49.1242 51.0086 49.3744 51.0753C49.8245 51.1754 51.3248 50.5919 51.7416 50.3584C52.6418 49.875 53.3419 49.0916 54.1089 48.558C54.1255 48.308 54.1255 48.0412 54.1422 47.7912C53.6754 47.5576 53.1586 47.4078 52.475 47.3745C52.9253 47.141 53.6087 47.141 54.0254 46.8743C54.0254 46.7742 54.0254 46.6742 54.0422 46.5741C53.2752 46.4908 52.9918 46.1574 52.475 45.874ZM44.6398 44.457C43.9563 45.1571 46.5568 46.0907 47.3739 46.1408C47.3739 45.7073 47.6239 45.2907 47.5738 44.9738C46.5903 44.8071 45.3067 44.9237 44.6398 44.457ZM53.042 44.7737C53.042 44.8404 52.9585 44.8238 52.9419 44.8738C53.8255 45.5573 54.4755 45.7072 55.6591 45.6406C56.1927 45.2572 56.6761 44.7905 57.243 44.4236C55.9426 44.5403 54.3088 45.3406 53.0419 44.7737M60.7437 47.108C60.7104 46.3411 60.5101 44.7574 60.0268 44.474C59.0266 43.8905 57.2594 45.6576 56.5093 45.9244C56.5926 46.1578 56.726 46.3411 56.7426 46.6411C57.1929 46.5245 57.7262 46.6079 58.1096 46.7912C57.6595 46.8412 57.1761 46.8412 56.876 47.058C56.7759 47.3747 56.9093 47.7915 56.826 48.225C57.8762 48.5251 59.0933 48.6751 60.427 48.725C60.677 48.3917 60.7769 47.7581 60.7437 47.108ZM43.4893 45.1242C43.2725 44.9741 41.8223 43.0902 41.6222 43.1736C39.0049 44.2073 36.5543 45.9911 34.3703 47.6914C36.4542 52.1759 37.3045 57.6606 37.4545 62.9453C39.8386 64.0622 41.9389 65.6793 45.1897 65.846C44.8063 63.1954 44.473 60.8113 44.2562 58.3107C43.4394 57.9607 42.2724 58.3275 41.5056 58.2107C41.5056 57.2939 42.6724 57.8107 42.7724 57.1939C42.8392 56.727 42.1222 56.6937 42.3557 55.9602C42.9558 56.1769 43.2725 56.6603 43.9061 56.8438C44.4896 55.5768 43.9061 53.3263 43.9894 52.2593C44.0062 52.0593 44.0894 51.159 44.5395 51.309C44.9397 51.4424 44.5229 53.7263 44.5563 54.7265C44.5896 55.6601 44.4395 56.5437 44.8229 57.1272C47.9572 56.6937 51.1413 56.4269 54.542 56.327C53.7919 56.0103 52.9083 55.7102 51.9414 55.16C51.408 54.8599 49.7576 54.2431 49.6076 53.743C49.3574 52.9427 50.241 52.5261 50.391 51.8424C48.8073 52.7094 48.5073 51.0091 48.1239 49.8253C47.7904 48.7416 47.5904 47.9249 47.5071 47.308C46.1234 46.6079 44.6563 45.9577 43.4893 45.1242ZM59.3599 43.3903C61.5439 42.3402 61.9439 47.3414 61.077 48.9585C61.2104 49.4419 61.6605 49.6254 61.844 50.0587C60.6269 52.2426 59.2768 54.2764 58.0262 56.4269C58.9433 55.8434 60.2769 56.327 61.3604 55.8935C61.7606 55.7435 62.0441 54.8266 62.3441 54.0931C63.1775 52.0926 64.0444 49.5585 64.428 47.6583C64.5113 47.2248 64.7613 46.2744 64.6946 45.891C64.5946 45.1909 63.661 44.6741 63.1775 44.2572C62.2941 43.457 61.7438 42.7737 60.8102 42.0234C60.4602 42.5736 59.66 42.9402 59.3599 43.3905M38.5047 24.0356C37.4711 25.186 37.6879 27.3199 37.8046 28.8535C39.6884 27.67 42.1724 28.9536 42.1556 30.9541C43.0558 30.9373 42.4891 29.8372 42.3224 29.1203C41.7888 26.8031 43.2226 24.3024 42.389 22.1853C40.772 22.3186 39.455 22.9686 38.5047 24.0356ZM45.9399 17.3842C43.5894 18.0511 40.5719 19.7682 39.605 21.8853C40.3552 21.7687 40.872 21.4019 41.6055 21.3518C41.889 21.3352 42.2557 21.4686 42.5724 21.3853C43.2058 21.2186 43.7561 19.7848 44.2394 19.2514C44.7063 18.7345 45.273 18.5012 45.6566 18.0344C45.9066 17.9177 46.2732 17.9177 46.29 17.5509C46.1901 17.4341 46.0733 17.351 45.9399 17.3842ZM58.1929 18.0176C55.7425 16.6341 51.6081 15.6005 49.0074 16.9007C46.9068 17.9509 44.0729 19.6847 43.1059 21.8688C44.0061 23.9857 42.8392 25.9195 42.7557 28.0701C42.7225 29.2204 43.2893 30.2041 43.3392 31.4545C43.0225 31.9713 42.0889 32.0212 41.4389 31.9879C41.2221 30.8874 40.8387 29.6539 39.705 29.5205C38.1047 29.3372 36.9211 30.6709 36.8544 32.0546C36.771 33.6884 38.1047 36.389 40.0051 36.2057C40.7386 36.139 40.9221 35.4054 41.7221 35.4054C42.1556 36.2724 41.0555 36.539 40.9387 37.1558C40.9053 37.3226 41.022 37.9394 41.1054 38.2394C41.4555 39.6564 42.2223 41.5069 42.9725 42.5906C43.9394 43.9741 45.8233 44.1742 47.8571 44.3076C48.2238 43.524 49.5575 43.5907 50.4243 43.7908C49.3742 43.3742 48.4073 42.3738 47.6071 41.4903C46.6901 40.4733 45.7566 39.3898 45.7065 38.0561C47.457 40.4733 48.8907 42.5906 52.0582 43.6576C54.4587 44.4577 57.2594 43.2907 59.1099 41.9904C59.8767 41.4568 60.3268 40.5901 60.8771 39.8231C62.9108 36.8891 63.8611 32.7213 63.661 28.6704C63.5777 27.0034 63.5777 25.3362 63.0108 24.2193C62.4275 23.0523 60.4436 21.9854 59.2766 23.0523C59.0599 21.9021 60.2435 21.2018 61.6271 21.6186C60.6437 20.335 59.6101 18.8179 58.1929 18.0176ZM62.7608 55.7105C64.678 54.7603 68.2455 53.1598 69.4291 55.7105C69.8794 56.6606 70.396 58.2445 70.6128 59.228C70.9295 60.5951 70.2626 63.4958 68.8456 63.9458C67.5953 64.346 66.145 64.3293 64.6447 64.0293C64.4612 63.8792 64.2779 63.6291 64.1279 63.3623C63.061 63.329 62.0441 63.4125 61.2104 63.8626C61.2937 64.6627 60.7603 64.7794 60.2435 64.9463C59.8767 66.4298 60.9937 68.3636 60.727 69.6973C60.5436 70.6642 59.3599 70.8142 58.4932 70.9809C58.4597 71.5145 58.5264 71.9646 58.5931 72.4147C58.3932 73.1482 57.5094 73.5649 56.6593 73.665C53.8754 73.9983 49.6576 74.1484 46.9903 73.1815C46.24 71.3478 45.6566 69.1306 45.0397 67.0467C42.439 67.33 40.3219 65.9296 38.3381 64.9962C37.6546 64.6795 36.7043 64.496 36.4375 63.9459C36.1875 63.4125 36.2875 62.3955 36.2208 61.4452C36.0708 58.9946 35.9207 56.6274 35.2873 54.1267C35.0039 52.9931 34.4871 52.0096 34.137 50.9261C33.8036 49.9258 33.2368 48.6754 33.0867 47.6751C32.87 46.1915 34.2704 46.108 35.1539 45.4578C36.5377 44.4577 37.6212 43.9074 39.1215 43.0072C39.5718 42.7406 40.9053 42.0738 41.0553 41.7569C41.3555 41.1403 40.5387 40.2734 40.3219 39.7898C39.9718 39.023 39.7883 38.3728 39.7384 37.6225C38.4881 37.4226 37.5212 36.6724 36.9545 35.8389C36.0041 34.4385 35.3372 31.8545 36.1709 29.9041C36.2376 29.754 36.5543 29.4372 36.6044 29.2038C36.7043 28.7371 36.4209 28.1201 36.4043 27.6201C36.3209 25.0694 36.8377 22.8688 38.5548 22.102C39.2549 19.3181 41.7554 18.4012 44.1062 17.0175C44.9898 16.5007 45.9567 16.1673 46.9569 15.8004C50.541 14.4835 56.0592 14.7335 59.0432 16.984C60.3102 17.9343 62.3273 19.9515 63.0442 21.4185C64.9612 25.2695 64.8114 31.7211 63.4777 36.4224C63.2942 37.0558 63.0442 37.9726 62.6775 38.7396C62.4275 39.273 61.6439 40.3233 61.7272 40.79C61.8273 41.2735 63.5278 42.5571 63.8945 42.9073C64.5447 43.5407 65.7949 44.3743 65.8949 45.1746C66.0116 46.0247 65.5283 47.1917 65.2783 48.0086C64.4779 50.7426 63.6778 53.2599 62.7608 55.7105Z" fill="#191919"/>
<path d="M50.0088 36.7721C50.1087 36.6387 50.6754 36.4221 51.4757 36.8056C51.4757 36.8056 50.5254 36.9556 50.6087 38.5394L50.2087 38.4559C50.2255 38.4727 49.8087 37.0389 50.0088 36.7721Z" fill="#DADADA"/>
<path d="M56.9092 50.3085C56.9092 50.5418 56.7092 50.7419 56.4757 50.7419C56.2423 50.7419 56.0422 50.5418 56.0422 50.3085C56.0422 50.0751 56.2423 49.875 56.4757 49.875C56.7259 49.875 56.9092 50.0749 56.9092 50.3085ZM57.3426 52.3256C57.3426 52.5591 57.1427 52.7591 56.9092 52.7591C56.6758 52.7591 56.4757 52.5591 56.4757 52.3256C56.4757 52.0921 56.6758 51.8921 56.9092 51.8921C57.1593 51.8921 57.3426 52.0756 57.3426 52.3256Z" fill="#191919"/>
<path d="M34.6381 77.8315C34.5047 77.8483 34.388 77.865 34.2879 77.8816C34.188 77.8984 34.088 77.9148 33.9544 77.9483C33.8044 77.9815 33.7211 78.0482 33.6878 78.1482C33.6544 78.2483 33.6211 78.3483 33.6211 78.4817V82.5492C33.6212 82.9069 33.5414 83.2601 33.3876 83.583C33.2377 83.8997 33.0376 84.1497 32.771 84.3665C32.5042 84.5666 32.2041 84.7332 31.8706 84.8334C31.5373 84.9333 31.1871 85 30.8205 85C30.1703 85 29.6534 84.85 29.2533 84.5333C28.8533 84.2166 28.6532 83.7998 28.6532 83.2497C28.6532 82.9328 28.7365 82.666 28.92 82.4493C29.1033 82.2325 29.3535 82.1326 29.6702 82.1326C29.9702 82.1326 30.2036 82.2159 30.3869 82.3994C30.5704 82.5827 30.6537 82.7994 30.6537 83.0496C30.6537 83.2663 30.5704 83.4831 30.4202 83.6662C30.2703 83.8497 30.0868 84.0331 29.8869 84.1832V84.2499C29.9202 84.3166 29.9869 84.3833 30.0868 84.4332C30.187 84.4832 30.3036 84.4999 30.4037 84.4999C30.8204 84.4999 31.1539 84.3498 31.3872 84.0498C31.6206 83.7497 31.7374 83.2996 31.7374 82.6995V78.5318C31.7374 78.415 31.7206 78.2982 31.6873 78.2149C31.6539 78.1316 31.5539 78.0649 31.4039 77.9982C31.3039 77.9483 31.1703 77.9148 31.0205 77.8816C30.8704 77.8481 30.7537 77.8315 30.6537 77.8149V77.4148H34.588V77.8315H34.6381ZM40.8062 83.5664C40.6895 83.7663 40.5394 83.9498 40.3728 84.1331C40.2061 84.3164 40.006 84.4498 39.7893 84.5834C39.5559 84.7166 39.3225 84.8166 39.0892 84.8833C38.8556 84.95 38.5724 84.9834 38.2723 84.9834C37.7555 84.9834 37.322 84.9167 36.9386 84.7667C36.5719 84.6166 36.2552 84.4332 36.0216 84.1832C35.7716 83.933 35.605 83.6497 35.4716 83.3162C35.3501 82.9678 35.2881 82.6015 35.2881 82.2326C35.2881 81.8826 35.3548 81.5324 35.4882 81.2157C35.6216 80.899 35.8049 80.599 36.0384 80.3488C36.2719 80.0988 36.5719 79.8988 36.9386 79.7487C37.3196 79.593 37.7274 79.5136 38.1389 79.5151C38.6223 79.5151 39.0225 79.582 39.3392 79.6986C39.6559 79.8152 39.906 79.982 40.106 80.1821C40.3061 80.3821 40.4395 80.6156 40.5394 80.8822C40.6228 81.149 40.6728 81.4325 40.6728 81.7324V82.0659H37.1554C37.1554 82.7828 37.2886 83.3162 37.572 83.683C37.8388 84.0498 38.2889 84.2332 38.8724 84.2332C39.2058 84.2332 39.4892 84.1497 39.756 83.9664C40.0224 83.7862 40.2493 83.5537 40.4228 83.283L40.8062 83.5664ZM38.8224 81.5825C38.8224 81.3826 38.8056 81.1658 38.7891 80.9491C38.7723 80.7324 38.739 80.5489 38.6723 80.4155C38.6056 80.2488 38.5389 80.1321 38.4223 80.0487C38.3222 79.9654 38.1888 79.9321 38.0389 79.9321C37.7721 79.9321 37.5554 80.0654 37.4054 80.332C37.2387 80.599 37.1554 81.0323 37.1386 81.6158L38.8224 81.5825ZM48.1581 84.7999H45.024V84.4165C45.0907 84.4165 45.174 84.3997 45.2574 84.3833C45.3573 84.3665 45.424 84.3498 45.4741 84.3332C45.5408 84.2998 45.5907 84.2332 45.6241 84.1665C45.6574 84.0998 45.6742 83.9831 45.6742 83.8497V81.4158C45.6742 81.0657 45.6075 80.799 45.4741 80.6156C45.3407 80.4321 45.1574 80.3488 44.8906 80.3488C44.7572 80.3488 44.6238 80.3656 44.5072 80.4155C44.3904 80.4488 44.2737 80.5155 44.1571 80.599C44.0571 80.6655 43.9738 80.7322 43.9071 80.8157C43.8403 80.8822 43.7903 80.9489 43.757 81.0156V83.7996C43.757 83.9163 43.7737 84.0164 43.8069 84.0998C43.8404 84.1832 43.9071 84.2499 43.9738 84.2831C44.0343 84.3238 44.1022 84.3521 44.1737 84.3665L44.4239 84.4165V84.7999H41.2563V84.4165C41.3397 84.4165 41.423 84.3997 41.5231 84.3833C41.6065 84.3665 41.6898 84.3498 41.7565 84.3332C41.8731 84.2998 41.9398 84.2332 41.9899 84.1497C42.0231 84.0664 42.0566 83.9664 42.0566 83.833V80.7989C42.0566 80.6989 42.0231 80.5822 41.9732 80.4822C41.9232 80.3822 41.8398 80.2987 41.7565 80.2322C41.6898 80.1988 41.6231 80.1487 41.523 80.1321C41.4209 80.0981 41.3139 80.0812 41.2063 80.0822V79.6986L43.6903 79.5654L43.7737 79.6487V80.3989H43.7905C43.912 80.2988 44.0288 80.1932 44.1404 80.0822C44.2631 79.9758 44.3911 79.8756 44.5238 79.7819C44.6572 79.6986 44.8239 79.6319 45.024 79.5652C45.2239 79.4987 45.4575 79.4819 45.6908 79.4819C46.2575 79.4819 46.6744 79.6487 46.9576 79.9654C47.2412 80.2821 47.3745 80.7156 47.3745 81.249V83.7999C47.3745 83.9332 47.3911 84.0332 47.4245 84.1C47.458 84.1833 47.5413 84.2334 47.6413 84.2833C47.6913 84.3001 47.758 84.3334 47.8412 84.35C47.9247 84.3668 48.008 84.3834 48.1248 84.4001V84.8001L48.1581 84.7999ZM55.3266 84.7999H52.876C52.6175 84.3381 52.3394 83.8876 52.0423 83.4496C51.7923 83.0829 51.5589 82.7327 51.3422 82.4326L51.0421 82.6995V83.833C51.0421 83.9498 51.0589 84.0666 51.0922 84.1331C51.1255 84.2164 51.1922 84.2665 51.3089 84.3166C51.3755 84.3498 51.4422 84.3665 51.5257 84.3833C51.609 84.3999 51.6923 84.4165 51.7757 84.4165V84.7999H48.5415V84.4165C48.6248 84.4165 48.7081 84.3997 48.8083 84.3833C48.8916 84.3665 48.9749 84.3498 49.0416 84.3332C49.1584 84.2998 49.2249 84.2332 49.2752 84.1497C49.3084 84.0664 49.3417 83.9664 49.3417 83.833V78.0316C49.3417 77.9148 49.3084 77.7981 49.2584 77.6815C49.2083 77.5649 49.1416 77.4647 49.0416 77.398C48.9749 77.3648 48.875 77.3147 48.7416 77.2981C48.6082 77.2648 48.4916 77.248 48.3748 77.248V76.8646L50.9588 76.7312L51.0421 76.8145V82.1825C51.2921 81.9493 51.5922 81.6825 51.9091 81.3824C52.2258 81.0823 52.4924 80.8323 52.6759 80.6322C52.7926 80.5155 52.8592 80.4323 52.8592 80.3654C52.876 80.2987 52.876 80.2655 52.876 80.2488C52.876 80.1821 52.8259 80.1321 52.7091 80.0988C52.5925 80.0654 52.4425 80.0155 52.2091 79.982V79.6153H54.843V79.982C54.4929 80.0822 54.2263 80.1655 54.0428 80.2488C53.8595 80.3322 53.6594 80.4488 53.4427 80.5822C53.301 80.6783 53.162 80.7783 53.026 80.8822C52.8926 80.9824 52.7426 81.1158 52.5591 81.2656C52.8926 81.7658 53.2093 82.2159 53.4927 82.6328C53.7762 83.0494 54.0762 83.4997 54.3929 83.9664C54.4929 84.1331 54.6265 84.2332 54.793 84.2998C54.9598 84.3498 55.1098 84.3833 55.2765 84.3999V84.7999H55.3266ZM58.6608 84.7999H55.3765V84.4165C55.4598 84.4165 55.5599 84.3997 55.6433 84.3833C55.7266 84.3665 55.8099 84.3498 55.86 84.3332C55.9766 84.2998 56.0433 84.2332 56.0934 84.1497C56.1434 84.0664 56.1601 83.9664 56.1601 83.833V80.7989C56.1601 80.6823 56.1266 80.5655 56.0767 80.4822C56.0332 80.3917 55.9636 80.3162 55.8768 80.2655C55.8099 80.2322 55.7266 80.1821 55.5932 80.1487C55.4598 80.1153 55.3432 80.0822 55.2432 80.0822V79.6986L57.7938 79.5654L57.8772 79.6487V83.783C57.8772 83.8997 57.9106 83.9997 57.9605 84.0998C58.0106 84.1832 58.0939 84.2499 58.1772 84.2831C58.2511 84.3209 58.3296 84.3489 58.4108 84.3665C58.4939 84.3833 58.5774 84.3999 58.6774 84.4165V84.7999H58.6608ZM57.9106 77.7149C57.9106 77.9815 57.8105 78.1983 57.6104 78.3817C57.4104 78.565 57.1602 78.665 56.8936 78.665C56.6102 78.665 56.3768 78.565 56.1601 78.3817C55.9601 78.1983 55.86 77.9649 55.86 77.7147C55.86 77.4481 55.96 77.2314 56.1601 77.0313C56.36 76.848 56.6102 76.748 56.8936 76.748C57.177 76.748 57.4104 76.848 57.6104 77.0313C57.8105 77.2147 57.9106 77.4481 57.9106 77.7149ZM66.0126 84.7999H62.8783V84.4165C62.9449 84.4165 63.0284 84.3997 63.1117 84.3833C63.2117 84.3665 63.2784 84.3498 63.3284 84.3332C63.395 84.2998 63.445 84.2332 63.4785 84.1665C63.5117 84.0998 63.5284 83.9831 63.5284 83.8497V81.4158C63.5284 81.0657 63.4617 80.799 63.3284 80.6156C63.195 80.4321 63.0116 80.3488 62.7449 80.3488C62.6115 80.3488 62.4781 80.3656 62.3615 80.4155C62.2448 80.4656 62.128 80.5155 62.0114 80.599C61.9113 80.6655 61.8279 80.7322 61.7612 80.8157C61.6947 80.8822 61.6447 80.9489 61.6112 81.0156V83.7996C61.6112 83.9163 61.6279 84.0164 61.6613 84.0998C61.6947 84.1832 61.7612 84.2499 61.8279 84.2831C61.878 84.3166 61.9447 84.3498 62.028 84.3665L62.278 84.4165V84.7999H59.1107V84.4165C59.194 84.4165 59.2774 84.3997 59.3773 84.3833C59.4607 84.3665 59.5442 84.3498 59.6109 84.3332C59.7275 84.2998 59.794 84.2332 59.8442 84.1497C59.8775 84.0664 59.9109 83.9664 59.9109 83.833V80.7989C59.9109 80.6989 59.8775 80.5822 59.8274 80.4822C59.7775 80.3822 59.6942 80.2987 59.6107 80.2322C59.5442 80.1988 59.4775 80.1487 59.3773 80.1321C59.2752 80.0981 59.1682 80.0812 59.0606 80.0822V79.6986L61.5447 79.5654L61.628 79.6487V80.3989H61.6446C61.7662 80.2988 61.8831 80.1932 61.9948 80.0822C62.1175 79.9758 62.2454 79.8756 62.3782 79.7819C62.5116 79.6986 62.6782 79.6319 62.8783 79.5652C63.0783 79.4987 63.3118 79.4819 63.5452 79.4819C64.1119 79.4819 64.5287 79.6487 64.812 79.9654C65.0954 80.2821 65.2288 80.7156 65.2288 81.249V83.7999C65.2288 83.9332 65.2455 84.0332 65.2789 84.1C65.3121 84.1833 65.3955 84.2334 65.4956 84.2833C65.5455 84.3001 65.6122 84.3334 65.6955 84.35C65.779 84.3668 65.8624 84.3834 65.979 84.4001V84.8001L66.0126 84.7999ZM68.8965 84.9834C68.5631 84.9834 68.2298 84.9333 67.9129 84.8334C67.5962 84.7332 67.3462 84.6333 67.1628 84.5165L67.0127 84.8666H66.6127L66.546 82.9328H66.9294C66.9795 83.0829 67.0628 83.2662 67.1962 83.4663C67.3128 83.6662 67.4628 83.833 67.6129 83.9997C67.7849 84.1556 67.9752 84.29 68.1797 84.3999C68.3965 84.4999 68.6132 84.5666 68.8466 84.5666C69.1633 84.5666 69.3966 84.4999 69.5467 84.3833C69.6967 84.2665 69.7802 84.0664 69.7802 83.8164C69.7802 83.6831 69.7468 83.5664 69.6801 83.4663C69.6134 83.3829 69.5134 83.2996 69.3966 83.2329C69.2634 83.1662 69.1134 83.0995 68.9465 83.0496C68.7799 82.9995 68.5798 82.9495 68.3464 82.8661C68.113 82.7994 67.9129 82.7327 67.7463 82.6494C67.5796 82.5827 67.3961 82.4661 67.2295 82.316C67.0794 82.1826 66.946 82.016 66.8627 81.8325C66.7627 81.6492 66.7293 81.4158 66.7293 81.149C66.7293 80.6655 66.9294 80.2655 67.3462 79.9654C67.7631 79.6653 68.2965 79.5151 68.9633 79.5151C69.28 79.5151 69.5635 79.5487 69.8303 79.6153C70.0969 79.682 70.3136 79.7487 70.4969 79.832L70.6137 79.5319H71.0137L71.0971 81.2991H70.7303C70.6137 80.9323 70.397 80.6322 70.1137 80.3654C69.8135 80.0989 69.4967 79.9655 69.1633 79.9654C68.8966 79.9654 68.6799 80.0155 68.5299 80.1321C68.3798 80.2488 68.2963 80.3989 68.2963 80.599C68.2963 80.8656 68.4131 81.0491 68.6298 81.1657C68.8466 81.2823 69.1633 81.3992 69.5635 81.4992C70.1802 81.6658 70.6303 81.8826 70.9304 82.1494C71.2139 82.4327 71.3639 82.7828 71.3639 83.1995C71.3639 83.7663 71.1471 84.2164 70.697 84.5167C70.1969 84.8166 69.6132 84.9834 68.8965 84.9834Z" fill="#191919"/>
</svg>
