<svg width="101" height="101" viewBox="0 0 101 101" fill="none" xmlns="http://www.w3.org/2000/svg">
<g clip-path="url(#clip0_2377_7421)">
<path d="M55.3415 43.6396C55.333 43.4864 55.3388 43.3319 55.3228 43.1794C55.303 42.9894 55.2013 42.9382 55.0382 43.0283C54.9901 43.0549 54.9403 43.0886 54.9072 43.1316C54.5862 43.5455 54.1355 43.5854 53.6609 43.5854C52.3754 43.5861 51.0899 43.6018 49.8044 43.6018C47.4149 43.6018 45.0258 43.5908 42.6363 43.5939C42.1569 43.5946 41.7114 43.5519 41.4139 43.1115C41.3989 43.0893 41.3736 43.0726 41.3507 43.0569C41.1873 42.9437 41.0942 42.974 41.0519 43.1644C41.0307 43.2589 41.0294 43.3582 41.0222 43.4557C40.9543 44.3748 40.8851 45.2939 40.8202 46.213C40.7916 46.617 40.7721 47.0212 40.7476 47.4255C40.7401 47.549 40.7691 47.6503 40.9059 47.6804C41.0331 47.7083 41.1222 47.6469 41.1819 47.5405C41.2088 47.4924 41.2269 47.4388 41.2453 47.3863C41.4248 46.8711 41.667 46.3843 41.9058 45.8951C42.3712 44.9422 43.1309 44.4564 44.1787 44.3499C44.9313 44.2735 45.6832 44.2496 46.4375 44.2363C47.0342 44.2257 47.024 44.2114 47.0233 44.8374C47.0212 48.595 47.025 52.3526 47.0202 56.1098C47.0192 56.9614 46.9946 57.8133 46.9759 58.6648C46.968 59.0299 46.923 59.3884 46.7012 59.6982C46.2035 60.1912 45.5832 60.3959 44.9036 60.4665C44.7521 60.4822 44.6024 60.5235 44.454 60.561C44.2418 60.6145 44.2326 60.7773 44.2407 60.9571C44.25 61.1604 44.3663 61.2181 44.5447 61.2136C44.6286 61.2116 44.7126 61.214 44.7962 61.214C47.0608 61.214 49.3251 61.214 51.5898 61.2136C51.6737 61.2136 51.7576 61.2102 51.8412 61.2133C52.0159 61.2194 52.0913 61.1123 52.1271 60.9642C52.1673 60.7957 52.1209 60.6545 51.9596 60.5777C51.8869 60.5429 51.7985 60.5402 51.7167 60.5252C51.2244 60.4337 50.7297 60.3662 50.2544 60.183C49.7151 59.9749 49.4786 59.5621 49.4025 59.0384C49.3428 58.6256 49.3104 58.2056 49.3091 57.7884C49.2975 54.1696 49.2951 50.5506 49.2913 46.9319C49.2907 46.1632 49.2964 45.3949 49.2951 44.6263C49.2947 44.4734 49.3033 44.3421 49.5059 44.3441C50.5107 44.3533 51.5191 44.2926 52.516 44.4632C52.8869 44.5266 53.2512 44.6338 53.563 44.8637C53.6214 44.9067 53.6811 44.9374 53.7558 44.919C53.9939 45.0616 54.1243 45.296 54.26 45.5218C54.5275 45.966 54.7107 46.4501 54.9014 46.9298C54.9789 47.1243 55.0447 47.3232 55.1215 47.518C55.1593 47.6149 55.2286 47.6879 55.3422 47.6763C55.4756 47.6626 55.5329 47.565 55.5421 47.4453C55.5507 47.3348 55.5428 47.2225 55.5363 47.1113C55.4725 45.9537 55.4063 44.7968 55.3415 43.6396Z" fill="#E4E4E4"/>
<path d="M86.0506 60.6064C85.892 60.5594 85.7323 60.5157 85.5754 60.4638C85.0869 60.3035 84.6086 60.1254 84.2879 59.6867C84.2149 59.4151 84.0279 59.2022 83.9092 58.9532C83.4066 57.8993 83.0447 56.7899 82.6066 55.7108C82.4408 55.3024 82.3702 54.8544 82.1071 54.486C81.8898 53.8982 81.6776 53.3086 81.4538 52.7235C81.1215 51.8556 80.8336 50.971 80.4604 50.1188C80.4576 50.0921 80.4474 50.0662 80.4266 50.0403C80.387 49.9076 80.3556 49.7718 80.3061 49.6428C79.9578 48.735 79.6054 47.8285 79.2554 46.9214C78.8255 45.8078 78.4007 44.6925 77.963 43.5821C77.9081 43.4429 77.891 43.2334 77.6543 43.2467C77.4673 43.2365 77.3684 43.3702 77.3141 43.5067C77.0825 44.0866 76.7966 44.6458 76.6393 45.2544C76.6536 45.264 76.6676 45.2736 76.682 45.2828C76.6799 45.2841 76.6782 45.2855 76.6762 45.2869C76.6639 45.2759 76.6516 45.2654 76.6393 45.2544C76.5029 45.4581 76.4295 45.6857 76.3831 45.9238C76.217 46.3431 76.0508 46.762 75.8847 47.181C75.8492 47.239 75.8042 47.2932 75.7799 47.3557C75.5026 48.0779 75.2283 48.8012 74.9533 49.5244C74.969 49.5374 74.9843 49.55 75 49.563C74.9993 49.5637 74.9987 49.564 74.9976 49.5644C74.983 49.5511 74.968 49.5377 74.953 49.5244C74.8912 49.5978 74.8775 49.6865 74.87 49.7776C74.7455 49.9884 74.6531 50.2109 74.6285 50.4572C74.3767 51.0999 74.1246 51.7427 73.8728 52.3851C73.2529 53.6918 72.8101 55.0683 72.2745 56.4084C72.281 56.4136 72.2871 56.4183 72.2936 56.4234C72.2929 56.4234 72.2922 56.4235 72.2915 56.4238C72.2912 56.4238 72.2745 56.4084 72.2745 56.4084C72.225 56.4579 72.2015 56.5166 72.2114 56.5869C72.0019 57.0993 71.8016 57.6162 71.5805 58.1235C71.2599 58.8597 70.9644 59.6157 70.2715 60.1077C69.9051 60.2383 69.551 60.4018 69.1726 60.5024C69.0293 60.5406 68.8744 60.5904 68.8383 60.777C68.784 61.0575 68.9079 61.197 69.2395 61.1974C70.9119 61.1997 72.5842 61.1987 74.2566 61.1977C74.3665 61.1977 74.4821 61.2151 74.5698 61.1213C74.7384 60.7378 74.7117 60.6586 74.3685 60.5304C74.3041 60.5061 74.2379 60.4836 74.1707 60.4696C73.721 60.3775 73.2959 60.2203 72.8944 59.9992C72.8626 59.9739 72.8309 59.949 72.7992 59.9238C72.6655 59.731 72.633 59.5198 72.6556 59.2879C72.6989 58.843 72.777 58.4073 72.8899 57.9737C72.9735 57.6527 73.1397 57.35 73.1277 57.0055C73.1946 56.9386 73.213 56.8543 73.2154 56.7639C73.5003 56.1123 73.6531 55.4153 73.9066 54.7524C74.0516 54.3724 74.0598 54.3512 74.4743 54.3516C75.9696 54.3522 77.4649 54.354 78.9603 54.356C79.6668 54.357 79.6668 54.358 79.9315 54.9872C80.1038 55.7213 80.4474 56.3951 80.6831 57.1068C80.9496 57.9116 81.2996 58.6877 81.4606 59.5287C81.5087 59.7791 81.4333 59.932 81.2587 60.0701C81.126 60.1752 80.9711 60.2291 80.8066 60.2748C80.4999 60.3605 80.1816 60.4185 79.8971 60.5693C79.6747 60.6873 79.618 60.905 79.7432 61.0902C79.8401 61.2338 79.9878 61.1997 80.1233 61.1994C82.0198 61.1967 83.9163 61.1922 85.8129 61.1878C85.8825 61.1878 85.9534 61.1926 86.0213 61.1813C86.1898 61.1537 86.2397 61.0138 86.2649 60.8773C86.296 60.7228 86.2431 60.6024 86.0506 60.6064ZM74.7124 50.4575C74.7124 50.4592 74.7131 50.4613 74.7131 50.463C74.7131 50.463 74.7131 50.463 74.7131 50.4633C74.7094 50.4613 74.7056 50.4596 74.7019 50.4579L74.7124 50.4575ZM75.2307 51.057V51.0566C75.232 51.0559 75.2327 51.0546 75.2337 51.0535C75.2835 51.015 75.3081 50.9655 75.305 50.9041C75.3344 50.898 75.3613 50.8847 75.3855 50.8642C75.6418 50.507 75.6902 50.0642 75.8789 49.6783C75.9386 49.5569 75.9911 49.42 75.9096 49.2809C76.0505 49.2297 76.0778 49.0895 76.1296 48.9714C76.2528 48.6903 76.3408 48.3955 76.4541 48.1103C76.4793 48.0199 76.4906 47.9268 76.5182 47.8374C76.5254 47.8142 76.5322 47.7906 76.537 47.7675C76.7007 47.7364 76.6717 47.5494 76.7389 47.4413C76.8014 47.3407 76.7758 47.1769 76.9095 47.1274C77.2207 48.2471 77.6778 49.315 78.0934 50.3961C78.3062 50.9505 78.4236 51.5475 78.7689 52.0484C78.7886 52.0634 78.8095 52.074 78.832 52.0791C78.8258 52.15 78.8327 52.2162 78.8804 52.2698L78.8808 52.2701C78.8845 52.2742 78.8883 52.2783 78.8924 52.2821C78.8985 52.2879 78.9046 52.2933 78.9122 52.2984C78.9145 52.3005 78.9173 52.3022 78.92 52.3042C78.9203 52.3073 78.9207 52.3104 78.9214 52.3135C78.9087 52.3213 78.8975 52.3332 78.8872 52.3479C78.8197 52.555 78.9258 52.7307 78.9954 52.9088C79.0933 53.1578 79.0299 53.2803 78.7518 53.2793C78.5011 53.2779 78.2506 53.2796 77.9995 53.28C77.0521 53.28 76.1044 53.2824 75.157 53.2786C74.6595 53.2766 74.6544 53.2663 74.7616 52.7921C74.7834 52.6952 74.8005 52.6011 74.7561 52.5072C74.7486 52.4956 74.7404 52.4861 74.7322 52.4796C75.1027 52.091 75.1952 51.5974 75.2511 51.0907C75.2443 51.0805 75.2368 51.0723 75.2286 51.0655C75.229 51.0627 75.2296 51.06 75.2307 51.057ZM70.3855 60.1247C70.3814 60.1295 70.3769 60.1339 70.3725 60.1387C70.3725 60.1387 70.3725 60.1387 70.3721 60.1387C70.3701 60.1326 70.3677 60.1268 70.365 60.1217C70.3722 60.123 70.379 60.1237 70.3855 60.1247C70.3858 60.1247 70.3858 60.1247 70.3855 60.1247ZM80.4102 50.233C80.4071 50.2293 80.4044 50.2255 80.402 50.2218C80.4051 50.2221 80.4081 50.2221 80.4112 50.2221C80.4105 50.2259 80.4105 50.2296 80.4102 50.233ZM72.2936 56.5947C72.2936 56.595 72.2936 56.5951 72.2936 56.5954L72.2963 56.5951C72.295 56.5988 72.2939 56.6029 72.2926 56.6067V56.607V56.6073C72.2851 56.6009 72.2769 56.5957 72.2677 56.5923C72.2762 56.5933 72.285 56.594 72.2936 56.5947ZM72.8538 60.0476C72.8531 60.049 72.8527 60.0507 72.8524 60.0521L72.8521 60.0517C72.8517 60.0514 72.8517 60.0514 72.8514 60.051C72.8517 60.05 72.8527 60.049 72.8538 60.0476Z" fill="#E4E4E4"/>
<path d="M43.4383 60.5907C43.4182 60.6136 43.4076 60.6378 43.4059 60.6631C43.4025 60.6562 43.3994 60.6501 43.3957 60.6433C43.4097 60.6255 43.424 60.6081 43.4383 60.5907C43.38 60.5662 43.3217 60.5416 43.263 60.5167C43.2521 60.5286 43.2411 60.5409 43.2302 60.5529C43.2411 60.5409 43.2521 60.5286 43.2633 60.5167C43.1593 60.4386 43.0399 60.4341 42.9174 60.4437C42.8338 60.4147 42.7601 60.355 42.6649 60.3635C42.2586 60.1728 41.8721 59.9551 41.5909 59.5908C41.3791 59.1814 41.1638 58.7737 40.9922 58.3448C40.8046 57.8645 40.6746 57.3606 40.4054 56.914C40.2362 56.4029 40.0782 55.8871 39.8101 55.4156C39.7585 55.2706 39.707 55.1256 39.6555 54.9806C39.6692 54.8837 39.6385 54.7985 39.5852 54.7193C39.4317 54.2751 39.3154 53.8162 39.0909 53.3993C39.0817 53.3738 39.0677 53.3482 39.0482 53.3229L39.0476 53.3216C39.0687 53.2427 39.0459 53.1844 38.9688 53.151C38.5914 52.1104 38.2216 51.0672 37.7965 50.0443C37.6993 49.6643 37.5516 49.3027 37.3916 48.9455C37.3967 48.8489 37.3905 48.7558 37.3069 48.6882C37.3056 48.663 37.2971 48.6408 37.281 48.6214C37.2933 48.5497 37.2694 48.4934 37.2094 48.4525V48.4521C37.1412 48.0895 37.003 47.7541 36.8256 47.4341C36.8211 47.4116 36.8085 47.3891 36.7877 47.3659C36.7096 47.1571 36.6342 46.9473 36.5533 46.7395C36.1432 45.6891 35.7318 44.6393 35.32 43.5899C35.2654 43.4507 35.2422 43.2746 35.0495 43.2559C34.8472 43.2364 34.74 43.3896 34.6759 43.5397C34.5783 43.7676 34.4562 43.9907 34.4289 44.2449C34.3777 44.293 34.3457 44.3493 34.3535 44.4223C33.7636 45.919 33.1693 47.414 32.5863 48.9137C32.3 49.65 31.9868 50.3763 31.7569 51.1337C31.6631 51.2251 31.6314 51.3476 31.5853 51.4643C31.2885 52.2159 30.9828 52.964 30.6932 53.7187C30.3387 54.6415 29.9972 55.5691 29.6499 56.4947C29.5738 56.5636 29.5503 56.6503 29.5632 56.7492C29.5107 56.8621 29.4581 56.9751 29.4056 57.088C29.1238 57.7065 28.8342 58.322 28.564 58.9456C28.4654 59.1732 28.2685 59.3506 28.2344 59.6085C28.2344 59.6085 28.2344 59.6085 28.2347 59.6085C28.1477 59.7156 28.0614 59.8231 27.9748 59.9302C27.9748 59.9302 27.9748 59.9302 27.9744 59.9306C27.9744 59.9306 27.9748 59.9306 27.9748 59.9302C27.5654 60.1646 27.144 60.3741 26.6923 60.5153C26.6899 60.516 26.6879 60.5167 26.6855 60.5177C26.1376 60.545 25.6095 60.428 25.0838 60.2953C24.2708 60.0899 23.8504 59.628 23.7488 58.7928C23.67 58.1453 23.612 57.495 23.6167 56.841C23.6236 56.7161 23.6382 56.5909 23.6359 56.4661C23.6144 55.3644 23.6352 54.2628 23.5632 53.1609C23.5096 52.34 23.5396 51.5141 23.5246 50.6902C23.5202 50.4411 23.5622 50.1876 23.4721 49.944C23.4564 49.956 23.4407 49.9676 23.425 49.9792C23.424 49.9734 23.4226 49.9679 23.4216 49.9621C23.4383 49.956 23.4554 49.9502 23.4721 49.944C23.4434 48.7868 23.4683 47.6292 23.3991 46.4713C23.3442 45.5529 23.3851 44.6291 23.3762 43.7076C23.3725 43.3268 23.4475 42.9594 23.5308 42.592C23.614 42.2245 23.8515 41.9765 24.1681 41.8049C24.338 41.7128 24.5266 41.6483 24.7136 41.5958C25.0623 41.4982 25.415 41.4242 25.7787 41.3873C26.0677 41.358 26.1874 41.1823 26.1673 40.9384C26.1455 40.6774 26.1001 40.6432 25.7313 40.6429C24.3762 40.6415 23.0214 40.6422 21.6663 40.6426C21.5827 40.6426 21.4985 40.6422 21.4156 40.6511C21.2702 40.6664 21.1918 40.7521 21.1788 40.8974C20.5548 42.2164 19.9267 43.5332 19.3079 44.8546C18.7773 45.9869 18.2578 47.1243 17.733 48.2594C17.7283 48.2665 17.7249 48.2737 17.7218 48.2809C17.3059 49.0775 16.9317 49.8939 16.5693 50.7161C16.2473 51.3814 15.8996 52.0347 15.6557 52.7351C15.0907 53.9326 14.5261 55.1301 13.9611 56.3275C13.8325 56.3961 13.8741 56.5947 13.7223 56.6455C13.6319 56.6343 13.6217 56.5534 13.594 56.4957C13.1829 55.6299 12.7852 54.7572 12.3624 53.8971C12.0322 53.2254 11.7668 52.5215 11.3748 51.8798C11.1667 51.4428 10.9685 51.0006 10.7453 50.5714C10.6525 50.3927 10.6331 50.1682 10.4455 50.0426C10.4455 50.0426 10.4455 50.0423 10.4451 50.0423C9.77268 48.6179 9.10059 47.1932 8.4285 45.7689V45.7685C8.4766 45.6311 8.39063 45.5267 8.33843 45.4158C7.64041 43.9406 6.9342 42.4695 6.24915 40.9882C6.13042 40.7313 5.98849 40.6392 5.71113 40.6436C4.67774 40.6596 3.64402 40.6535 2.61064 40.6555C2.24764 40.6562 1.8843 40.6576 1.5213 40.6555C1.34799 40.6545 1.21562 40.6992 1.20641 40.9032C1.12009 41.1465 1.23984 41.2758 1.45887 41.3355C1.59192 41.3716 1.73077 41.387 1.86724 41.4105C2.54138 41.5286 3.20051 41.6821 3.71771 42.1781C3.92207 42.4709 4.03738 42.7977 4.07423 43.1498C4.14826 43.858 4.18033 44.5683 4.14826 45.2807C4.08105 46.7712 4.00668 48.2618 3.93469 49.7523C3.83678 51.7723 3.76889 53.7941 3.5792 55.8083C3.48913 56.7656 3.38644 57.7226 3.15002 58.6597C2.98797 59.3022 2.65635 59.8054 2.05454 60.1107C1.95595 60.0977 1.85939 60.0899 1.80788 60.2025C1.73214 60.1854 1.67142 60.2049 1.63321 60.2765H1.63286C1.62638 60.2833 1.6199 60.2888 1.61308 60.2936C1.61956 60.2878 1.62638 60.283 1.63286 60.2765C1.51175 60.2666 1.38449 60.2352 1.30193 60.3666C1.11634 60.3273 0.944737 60.4038 0.773473 60.4454C0.402969 60.5351 0.338491 60.8892 0.624385 61.1949C0.624385 61.1949 0.624385 61.1949 0.624385 61.1953C0.666007 61.1994 0.707626 61.2069 0.749589 61.2069C3.00058 61.2075 5.25193 61.2079 7.50292 61.2082C7.55887 61.2082 7.61482 61.2079 7.67077 61.2052C7.83726 61.197 7.91607 61.1073 7.93859 60.9428C7.9843 60.6098 7.89389 60.503 7.54352 60.4437C6.85403 60.3263 6.17204 60.1817 5.58251 59.7709C5.2352 59.454 5.06667 59.0456 5.00697 58.5929C4.8647 57.5121 4.81626 56.4258 4.82035 55.3354C4.82718 53.5481 4.88279 51.7635 4.96739 49.9775C5.03529 48.5422 5.03665 47.1022 5.0868 45.6645C5.09874 45.322 5.11171 44.9798 5.12399 44.6372C5.34404 44.9869 5.50404 45.351 5.6678 45.7136C6.03626 46.5276 6.39038 47.3485 6.78238 48.1505C6.99492 48.5855 7.12321 49.0638 7.42923 49.4521V49.4528C7.40705 49.5336 7.42821 49.5937 7.51247 49.6223C7.59231 49.7987 7.67043 49.9758 7.75231 50.1511C8.11565 50.9276 8.48001 51.7034 8.84437 52.4792C8.82732 52.5792 8.89111 52.6519 8.92966 52.7331C8.91841 52.8197 8.94604 52.8978 8.98118 52.9749C9.4264 53.9513 9.87196 54.9274 10.3158 55.9045C10.702 56.7543 11.0729 57.611 11.4768 58.4523C11.6614 58.8368 11.7586 59.2667 12.0462 59.6003C12.1813 59.8896 12.3205 60.1769 12.4498 60.4686C12.518 60.6225 12.6142 60.7245 12.7916 60.7228C12.9612 60.7214 13.0332 60.5924 13.0888 60.4672C13.4378 59.6819 13.8434 58.9217 14.1481 58.1166C14.3774 57.7829 14.5162 57.4039 14.6841 57.0399C15.6803 54.879 16.6751 52.7174 17.6703 50.5557C17.7549 50.5145 17.7713 50.4264 17.8054 50.3528C18.3761 49.1147 18.95 47.8783 19.5115 46.6361C19.6538 46.3209 19.8486 46.0278 19.9281 45.6846C20.2113 45.0903 20.4538 44.4762 20.7677 43.8969C20.8707 43.9498 20.8629 44.0095 20.8625 44.0617C20.855 45.7662 20.8649 47.4703 20.9065 49.1744C20.9321 50.2217 20.9485 51.2698 20.9448 52.3179C20.9369 54.6357 21.0427 56.9553 20.8482 59.2704C20.7291 59.4901 20.6097 59.7098 20.4907 59.9299C20.2621 60.0936 20.0195 60.2339 19.7456 60.3007C19.3795 60.3901 19.0141 60.4833 18.6375 60.5266C18.401 60.5539 18.3215 60.6579 18.3386 60.8445C18.3563 61.0356 18.4478 61.1107 18.6822 61.1124C19.4372 61.1175 20.1918 61.1212 20.9468 61.1229C24.5123 61.1322 28.0775 61.1397 31.643 61.1526C31.7982 61.1533 31.9156 61.1478 31.9582 60.9657C32.0015 60.7804 31.9347 60.6634 31.7648 60.6054C31.6198 60.5559 31.4676 60.528 31.3212 60.4812C30.9122 60.3509 30.4697 60.2902 30.1647 59.9384C30.177 59.861 30.1517 59.805 30.0736 59.7788L30.0733 59.7781C30.0995 59.4328 30.0535 59.0858 30.1316 58.7403C30.4349 57.3967 30.845 56.0853 31.3113 54.7909C31.4519 54.4013 31.3533 54.4027 31.8674 54.4024C33.593 54.4017 35.319 54.4 37.0446 54.3986C37.048 54.4003 37.0507 54.4024 37.0541 54.4044C37.2165 54.635 37.2667 54.9127 37.3742 55.1666C37.3503 55.2669 37.3864 55.3528 37.4383 55.4347C37.5703 55.7977 37.6983 56.1624 37.8368 56.5227C37.8996 56.6854 37.8818 56.8874 38.0568 56.999C38.1643 57.2828 38.2718 57.5667 38.3792 57.8508C38.3553 58.0102 38.4314 58.1439 38.4816 58.2872C38.6675 58.8208 38.8787 59.3509 38.803 59.936C38.6225 60.0913 38.4226 60.2158 38.1895 60.2694C38.0401 60.3038 37.8931 60.3348 37.7675 60.4283H37.7672C37.6259 60.4293 37.4915 60.4604 37.3656 60.5242C37.2316 60.5921 37.0552 60.6368 37.0627 60.8251C37.0692 60.9913 37.1804 61.1001 37.3516 61.1328C37.4915 61.2222 37.6488 61.1946 37.8003 61.1959C38.5256 61.2014 39.2509 61.2038 39.9762 61.2048C41.0642 61.2065 42.1521 61.2058 43.2405 61.2065C43.4001 61.2065 43.5523 61.1987 43.597 60.9988C43.6342 60.8251 43.6635 60.6596 43.4383 60.5907ZM32.1738 52.2227C32.1759 52.2206 32.1779 52.2189 32.18 52.2169C32.1909 52.2073 32.2018 52.1981 32.2124 52.1882C32.2137 52.1862 32.2144 52.1834 32.2154 52.1814C32.327 52.0582 32.3625 51.9074 32.3533 51.7403C32.3703 51.7355 32.3867 51.7276 32.402 51.7167C32.5283 51.5158 32.6924 51.3254 32.603 51.059C32.736 51.0736 32.7906 50.9679 32.8237 50.8734C33.0547 50.2084 33.3819 49.5766 33.5173 48.8789C33.5156 48.8595 33.5125 48.8407 33.5078 48.8226C33.8035 48.5091 34.1679 47.5013 34.1075 47.1335C34.1259 47.1247 34.1423 47.1131 34.1567 47.097C34.1573 47.0953 34.1877 47.0786 34.1877 47.0786C34.1877 47.0786 34.2222 47.0793 34.2225 47.0769C34.2402 47.0936 34.2529 47.1155 34.2614 47.1383C34.2801 47.2007 34.2918 47.2669 34.3105 47.33C34.7093 48.4999 35.1784 49.6448 35.6117 50.8027C35.8 51.3063 35.9399 51.8344 36.2258 52.2998C36.2452 52.3148 36.2661 52.3254 36.2882 52.3305C36.2807 52.4178 36.2882 52.5 36.3691 52.5594L36.3708 52.5611C36.3708 52.5618 36.3708 52.5625 36.3711 52.5632C36.366 52.5662 36.3616 52.57 36.3568 52.5744C36.2927 52.6812 36.3172 52.7948 36.367 52.8883C36.5451 53.223 36.3793 53.325 36.0771 53.3475C34.899 53.3724 33.72 53.3857 32.5402 53.3424C32.4386 53.3202 32.3369 53.3062 32.2328 53.3185C32.1687 53.3243 32.1121 53.3625 32.0452 53.3567C32.0182 53.3475 31.9947 53.3325 31.9735 53.314C31.9568 53.2915 31.9445 53.2656 31.934 53.24C31.9278 53.2015 31.9244 53.1619 31.9179 53.123C32.1875 52.9002 32.2226 52.5877 32.2045 52.2551C32.195 52.2428 32.184 52.2336 32.1724 52.2274C32.1735 52.2254 32.1735 52.2244 32.1738 52.2227ZM29.6785 56.5186C29.6782 56.5189 29.6779 56.5189 29.6772 56.5189C29.6765 56.5183 29.6495 56.494 29.6492 56.4937C29.6591 56.5022 29.669 56.5104 29.6785 56.5186Z" fill="#E4E4E4"/>
<path d="M69.1296 57.1155C69.1627 56.9589 69.1269 56.8395 68.9713 56.774C68.8195 56.7102 68.6929 56.7522 68.6104 56.888C68.5258 57.0272 68.3968 57.1514 68.4227 57.3376C68.2354 57.6791 68.054 58.0237 67.8595 58.3608C67.5258 58.9401 67.2062 59.5334 66.5733 59.8568C66.3212 59.8882 66.1148 60.0444 65.8753 60.112C64.6399 60.46 63.3851 60.4105 62.1361 60.2467C61.6479 60.1826 61.2505 59.8875 61.1154 59.3672C61.0314 59.0448 60.9564 58.719 60.9564 58.3789C60.9564 54.6646 60.9485 50.9507 60.9509 47.2365C60.9513 46.6793 60.9434 46.1209 61.0434 45.5661C61.1246 45.1151 61.3163 44.7501 61.7066 44.4997C61.7093 44.4997 61.7121 44.4986 61.7148 44.4966C62.1699 44.3202 62.6458 44.2315 63.1252 44.1506C63.3899 44.1063 63.496 43.991 63.4776 43.817C63.4595 43.6447 63.3459 43.5744 63.0627 43.5659C62.4486 43.5478 61.8349 43.5232 61.2208 43.5171C60.3822 43.5086 59.5436 43.5151 58.705 43.5151C57.9924 43.5151 57.2793 43.5157 56.5666 43.5133C56.3691 43.5127 56.248 43.587 56.2313 43.7989C56.2149 44.0033 56.3067 44.1237 56.5042 44.1489C57.0596 44.2199 57.5908 44.3731 58.1039 44.5935C58.3042 44.7409 58.4239 44.951 58.4901 45.1779C58.5836 45.4982 58.6624 45.8237 58.6675 46.1638C58.7207 49.5574 58.7006 52.9513 58.6962 56.3452C58.6952 57.0712 58.6856 57.7975 58.661 58.5232C58.645 58.9974 58.6194 59.4774 58.2827 59.8653C57.8596 60.2075 57.3721 60.3904 56.8362 60.4613C56.7123 60.4777 56.5898 60.5132 56.4708 60.5528C56.2575 60.6237 56.2101 60.7298 56.2337 60.9744C56.2538 61.1839 56.3841 61.2184 56.5547 61.2122C56.6106 61.2102 56.6666 61.2109 56.7225 61.2109C59.8551 61.2095 62.9873 61.2088 66.1199 61.2068C66.6791 61.2064 67.2386 61.1914 67.7977 61.2013C68.0574 61.2057 68.2453 61.1058 68.3235 60.8731C68.4156 60.5988 68.5251 60.3225 68.506 60.0219C68.5097 59.9963 68.5131 59.9707 68.5159 59.9451C68.6083 59.8479 68.608 59.7288 68.5947 59.607C68.6537 59.3491 68.7165 59.0919 68.7714 58.8329C68.8929 58.2608 69.0089 57.6877 69.1296 57.1155Z" fill="#E4E4E4"/>
<path d="M97.5762 51.8763C97.482 51.7627 97.3326 51.7709 97.2132 51.7129C96.914 51.4669 96.5111 51.5054 96.1767 51.3574C96.2146 51.2346 96.3118 51.2479 96.3862 51.2189C97.2299 50.8937 97.9852 50.4427 98.5342 49.7007C99.4065 48.6386 99.571 47.4541 99.1254 46.1751C98.9712 45.7326 98.7952 45.2925 98.3803 45.0114C98.2957 44.9305 98.2107 44.8493 98.1261 44.7681C98.0637 44.5382 97.8542 44.4652 97.6796 44.3628C96.7922 43.8422 95.8113 43.6362 94.8022 43.5976C93.7036 43.5556 92.6051 43.4918 91.5025 43.5505C90.654 43.5956 89.8011 43.5587 88.9502 43.5597C88.4064 43.5604 87.8622 43.5604 87.3184 43.5676C87.1772 43.5693 86.9923 43.5127 86.966 43.7487C86.9101 43.9838 87.0291 44.0756 87.2437 44.1186C87.5583 44.1813 87.8735 44.2383 88.1809 44.3379C88.6336 44.484 88.8977 44.7828 89.0427 45.2297C89.1839 45.6654 89.1873 46.1123 89.1938 46.5562C89.2508 50.3973 89.246 54.2388 89.1958 58.08C89.188 58.6787 89.1883 59.284 88.8908 59.8349C88.681 60.0867 88.4142 60.2372 88.1024 60.3426C87.7582 60.4589 87.401 60.5009 87.0527 60.5892C86.7463 60.6667 86.7187 60.7131 86.8647 61.0041C86.8681 61.0143 86.8729 61.0246 86.8807 61.0358L86.8824 61.0382C86.9363 61.1795 87.0615 61.1457 87.1659 61.1467C87.8592 61.1552 88.5534 61.1815 89.246 61.1573C89.6878 61.1416 90.1327 61.1935 90.5724 61.1129C91.1841 61.1689 91.7959 61.1174 92.4069 61.1051C93.4502 61.0839 94.4955 61.0659 95.5251 60.8615C95.7967 60.8912 96.0566 60.8687 96.2852 60.6981L96.2828 60.694C96.29 60.6872 96.2975 60.6817 96.3054 60.6769C96.2978 60.6824 96.2903 60.6875 96.2828 60.694C96.4077 60.7182 96.5312 60.7366 96.6165 60.6077C96.7161 60.6281 96.8052 60.6145 96.8713 60.5282C96.9256 60.5275 96.9849 60.5411 97.033 60.5234C97.5949 60.3184 98.1217 60.0465 98.5983 59.6824C99.0845 59.3113 99.5321 58.9056 99.7999 58.3393C100.158 57.7023 100.421 57.0316 100.441 56.293C100.46 55.5581 100.451 54.8222 100.06 54.1576C99.5785 53.0188 98.6863 52.329 97.5762 51.8763ZM96.5336 59.516C96.4558 59.5013 96.4022 59.5504 96.3473 59.5907C95.1802 60.4487 93.8623 60.4586 92.5096 60.2723C92.47 60.2007 92.4096 60.1829 92.3335 60.2044L92.3287 60.2024C91.963 59.9963 91.6894 59.7176 91.615 59.286C91.5652 58.9977 91.5045 58.7125 91.5052 58.4164C91.5082 57.1172 91.4994 55.8184 91.4967 54.5196C91.4953 53.7796 91.4967 53.0396 91.5014 52.299C91.5031 51.9895 91.5086 51.9786 91.7952 51.9807C92.5205 51.9855 93.2455 51.9401 93.9701 52.0441C95.0529 52.2004 96.0137 52.5873 96.7687 53.4088C96.8502 53.4975 96.9031 53.6278 97.0477 53.6435C97.654 54.4173 97.8624 55.3268 97.8423 56.2742C97.8164 57.5058 97.4933 58.6467 96.5336 59.516ZM96.6462 46.8356C96.697 47.8874 96.7721 48.943 96.2388 49.9183C96.2129 49.9661 96.2497 49.905 96.2364 49.9589C96.2395 49.9842 96.2473 50.006 96.2607 50.0244C95.9768 50.092 95.8216 50.3015 95.6943 50.5413C95.6851 50.5297 95.6718 50.5198 95.6541 50.5116C95.5534 50.4823 95.4569 50.5045 95.3699 50.5502C94.3263 51.1039 93.1888 51.0732 92.0575 51.093C91.7593 51.0984 91.6225 50.9804 91.6273 50.675C91.6614 48.598 91.5547 46.5197 91.688 44.444C91.7559 44.4908 91.8337 44.484 91.9118 44.4771C92.4696 44.4294 93.0292 44.4451 93.5876 44.4577C94.9247 44.487 95.9161 45.0626 96.4534 46.3273C96.5029 46.445 96.5189 46.6046 96.697 46.6128C96.6424 46.6773 96.6421 46.7558 96.6462 46.8356Z" fill="#E4E4E4"/>
</g>
<defs>
<clipPath id="clip0_2377_7421">
<rect width="100" height="100" fill="white" transform="translate(0.446289 0.927979)"/>
</clipPath>
</defs>
</svg>
