<svg width="101" height="100" viewBox="0 0 101 100" fill="none" xmlns="http://www.w3.org/2000/svg">
<g clip-path="url(#clip0_2377_7206)">
<path d="M55.3415 42.7116C55.333 42.5585 55.3388 42.4039 55.3228 42.2514C55.303 42.0614 55.2013 42.0102 55.0382 42.1003C54.9901 42.1269 54.9403 42.1607 54.9072 42.2037C54.5862 42.6175 54.1355 42.6574 53.6609 42.6574C52.3754 42.6581 51.0899 42.6738 49.8044 42.6738C47.4149 42.6738 45.0258 42.6629 42.6363 42.6659C42.1569 42.6666 41.7114 42.624 41.4139 42.1835C41.3989 42.1614 41.3736 42.1446 41.3507 42.1289C41.1873 42.0157 41.0942 42.046 41.0519 42.2364C41.0307 42.3309 41.0294 42.4302 41.0222 42.5278C40.9543 43.4469 40.8851 44.3659 40.8202 45.285C40.7916 45.689 40.7721 46.0933 40.7476 46.4975C40.7401 46.621 40.7691 46.7224 40.9059 46.7524C41.0331 46.7804 41.1222 46.719 41.1819 46.6125C41.2088 46.5644 41.2269 46.5108 41.2453 46.4583C41.4248 45.9431 41.667 45.4563 41.9058 44.9671C42.3712 44.0142 43.1309 43.5284 44.1787 43.4219C44.9313 43.3455 45.6832 43.3216 46.4375 43.3083C47.0342 43.2978 47.024 43.2834 47.0233 43.9095C47.0212 47.667 47.025 51.4246 47.0202 55.1818C47.0192 56.0334 46.9946 56.8853 46.9759 57.7368C46.968 58.1019 46.923 58.4604 46.7012 58.7702C46.2035 59.2632 45.5832 59.4679 44.9036 59.5385C44.7521 59.5542 44.6024 59.5955 44.454 59.633C44.2418 59.6866 44.2326 59.8493 44.2407 60.0291C44.25 60.2324 44.3663 60.2901 44.5447 60.2857C44.6286 60.2836 44.7126 60.286 44.7962 60.286C47.0608 60.286 49.3251 60.286 51.5898 60.2857C51.6737 60.2857 51.7576 60.2822 51.8412 60.2853C52.0159 60.2915 52.0913 60.1843 52.1271 60.0363C52.1673 59.8677 52.1209 59.7265 51.9596 59.6497C51.8869 59.6149 51.7985 59.6122 51.7167 59.5972C51.2244 59.5058 50.7297 59.4382 50.2544 59.255C49.7151 59.0469 49.4786 58.6341 49.4025 58.1104C49.3428 57.6976 49.3104 57.2776 49.3091 56.8604C49.2975 53.2417 49.2951 49.6226 49.2913 46.0039C49.2907 45.2352 49.2964 44.4669 49.2951 43.6983C49.2947 43.5454 49.3033 43.4141 49.5059 43.4161C50.5107 43.4254 51.5191 43.3646 52.516 43.5352C52.8869 43.5987 53.2512 43.7058 53.563 43.9357C53.6214 43.9787 53.6811 44.0094 53.7558 43.991C53.9939 44.1336 54.1243 44.368 54.26 44.5938C54.5275 45.038 54.7107 45.5222 54.9014 46.0018C54.9789 46.1963 55.0447 46.3952 55.1215 46.59C55.1593 46.6869 55.2286 46.7599 55.3422 46.7483C55.4756 46.7346 55.5329 46.6371 55.5421 46.5173C55.5507 46.4068 55.5428 46.2945 55.5363 46.1833C55.4725 45.0258 55.4063 43.8689 55.3415 42.7116Z" fill="#191919"/>
<path d="M86.0506 59.6785C85.892 59.6314 85.7323 59.5877 85.5754 59.5359C85.0869 59.3755 84.6086 59.1974 84.2879 58.7587C84.2149 58.4871 84.0279 58.2742 83.9092 58.0252C83.4066 56.9713 83.0447 55.8619 82.6066 54.7828C82.4408 54.3744 82.3702 53.9265 82.1071 53.558C81.8898 52.9702 81.6776 52.3806 81.4538 51.7956C81.1215 50.9276 80.8336 50.043 80.4604 49.1908C80.4576 49.1642 80.4474 49.1382 80.4266 49.1123C80.387 48.9796 80.3556 48.8438 80.3061 48.7148C79.9578 47.807 79.6054 46.9005 79.2554 45.9934C78.8255 44.8798 78.4007 43.7646 77.963 42.6541C77.9081 42.5149 77.891 42.3054 77.6543 42.3187C77.4673 42.3085 77.3684 42.4422 77.3141 42.5787C77.0825 43.1587 76.7966 43.7178 76.6393 44.3265C76.6536 44.336 76.6676 44.3456 76.682 44.3548C76.6799 44.3561 76.6782 44.3575 76.6762 44.3589C76.6639 44.348 76.6516 44.3374 76.6393 44.3265C76.5029 44.5301 76.4295 44.7577 76.3831 44.9958C76.217 45.4151 76.0508 45.8341 75.8847 46.253C75.8492 46.311 75.8042 46.3653 75.7799 46.4277C75.5026 47.1499 75.2283 47.8732 74.9533 48.5965C74.969 48.6094 74.9843 48.6221 75 48.635C74.9993 48.6357 74.9987 48.636 74.9976 48.6364C74.983 48.6231 74.968 48.6098 74.953 48.5965C74.8912 48.6698 74.8775 48.7585 74.87 48.8496C74.7455 49.0604 74.6531 49.2829 74.6285 49.5292C74.3767 50.172 74.1246 50.8147 73.8728 51.4571C73.2529 52.7638 72.8101 54.1404 72.2745 55.4805C72.281 55.4856 72.2871 55.4904 72.2936 55.4955C72.2929 55.4955 72.2922 55.4955 72.2915 55.4958C72.2912 55.4958 72.2745 55.4805 72.2745 55.4805C72.225 55.5299 72.2015 55.5886 72.2114 55.6589C72.0019 56.1713 71.8016 56.6882 71.5805 57.1955C71.2599 57.9317 70.9644 58.6877 70.2715 59.1797C69.9051 59.3104 69.551 59.4738 69.1726 59.5744C69.0293 59.6126 68.8744 59.6624 68.8383 59.8491C68.784 60.1295 68.9079 60.269 69.2395 60.2694C70.9119 60.2718 72.5842 60.2707 74.2566 60.2697C74.3665 60.2697 74.4821 60.2871 74.5698 60.1933C74.7384 59.8098 74.7117 59.7307 74.3685 59.6024C74.3041 59.5782 74.2379 59.5557 74.1707 59.5417C73.721 59.4495 73.2959 59.2923 72.8944 59.0712C72.8626 59.046 72.8309 59.0211 72.7992 58.9958C72.6655 58.8031 72.633 58.5919 72.6556 58.3599C72.6989 57.915 72.777 57.4793 72.8899 57.0457C72.9735 56.7247 73.1397 56.4221 73.1277 56.0775C73.1946 56.0106 73.213 55.9264 73.2154 55.8359C73.5003 55.1843 73.6531 54.4873 73.9066 53.8244C74.0516 53.4444 74.0598 53.4232 74.4743 53.4236C75.9696 53.4243 77.4649 53.426 78.9603 53.428C79.6668 53.429 79.6668 53.4301 79.9315 54.0592C80.1038 54.7934 80.4474 55.4672 80.6831 56.1788C80.9496 56.9836 81.2996 57.7598 81.4606 58.6007C81.5087 58.8512 81.4333 59.004 81.2587 59.1422C81.126 59.2472 80.9711 59.3011 80.8066 59.3469C80.4999 59.4325 80.1816 59.4905 79.8971 59.6413C79.6747 59.7593 79.618 59.977 79.7432 60.1622C79.8401 60.3059 79.9878 60.2718 80.1233 60.2714C82.0198 60.2687 83.9163 60.2643 85.8129 60.2598C85.8825 60.2598 85.9534 60.2646 86.0213 60.2533C86.1898 60.2257 86.2397 60.0858 86.2649 59.9494C86.296 59.7948 86.2431 59.6744 86.0506 59.6785ZM74.7124 49.5295C74.7124 49.5313 74.7131 49.5333 74.7131 49.535C74.7131 49.535 74.7131 49.535 74.7131 49.5353C74.7094 49.5333 74.7056 49.5316 74.7019 49.5299L74.7124 49.5295ZM75.2307 50.129V50.1286C75.232 50.1279 75.2327 50.1266 75.2337 50.1256C75.2835 50.087 75.3081 50.0375 75.305 49.9761C75.3344 49.97 75.3613 49.9567 75.3855 49.9362C75.6418 49.579 75.6902 49.1362 75.8789 48.7503C75.9386 48.6289 75.9911 48.4921 75.9096 48.3529C76.0505 48.3017 76.0778 48.1615 76.1296 48.0434C76.2528 47.7623 76.3408 47.4676 76.4541 47.1823C76.4793 47.0919 76.4906 46.9988 76.5182 46.9094C76.5254 46.8862 76.5322 46.8627 76.537 46.8395C76.7007 46.8084 76.6717 46.6215 76.7389 46.5133C76.8014 46.4127 76.7758 46.2489 76.9095 46.1995C77.2207 47.3192 77.6778 48.387 78.0934 49.4681C78.3062 50.0225 78.4236 50.6196 78.7689 51.1204C78.7886 51.1354 78.8095 51.146 78.832 51.1511C78.8258 51.2221 78.8327 51.2882 78.8804 51.3418L78.8808 51.3421C78.8845 51.3462 78.8883 51.3503 78.8924 51.3541C78.8985 51.3599 78.9046 51.3653 78.9122 51.3705C78.9145 51.3725 78.9173 51.3742 78.92 51.3763C78.9203 51.3793 78.9207 51.3824 78.9214 51.3855C78.9087 51.3933 78.8975 51.4053 78.8872 51.4199C78.8197 51.627 78.9258 51.8027 78.9954 51.9808C79.0933 52.2299 79.0299 52.3523 78.7518 52.3513C78.5011 52.3499 78.2506 52.3517 77.9995 52.352C77.0521 52.352 76.1044 52.3544 75.157 52.3506C74.6595 52.3486 74.6544 52.3383 74.7616 51.8641C74.7834 51.7672 74.8005 51.6731 74.7561 51.5793C74.7486 51.5677 74.7404 51.5581 74.7322 51.5516C75.1027 51.163 75.1952 50.6694 75.2511 50.1627C75.2443 50.1525 75.2368 50.1443 75.2286 50.1375C75.229 50.1348 75.2296 50.132 75.2307 50.129ZM70.3855 59.1968C70.3814 59.2015 70.3769 59.206 70.3725 59.2107C70.3725 59.2107 70.3725 59.2107 70.3721 59.2107C70.3701 59.2046 70.3677 59.1988 70.365 59.1937C70.3722 59.195 70.379 59.1957 70.3855 59.1968C70.3858 59.1968 70.3858 59.1968 70.3855 59.1968ZM80.4102 49.3051C80.4071 49.3013 80.4044 49.2976 80.402 49.2938C80.4051 49.2941 80.4081 49.2941 80.4112 49.2941C80.4105 49.2979 80.4105 49.3016 80.4102 49.3051ZM72.2936 55.6667C72.2936 55.6671 72.2936 55.6671 72.2936 55.6674L72.2963 55.6671C72.295 55.6708 72.2939 55.6749 72.2926 55.6787V55.679V55.6794C72.2851 55.6729 72.2769 55.6678 72.2677 55.6643C72.2762 55.6654 72.285 55.666 72.2936 55.6667ZM72.8538 59.1196C72.8531 59.121 72.8527 59.1227 72.8524 59.1241L72.8521 59.1237C72.8517 59.1234 72.8517 59.1234 72.8514 59.1231C72.8517 59.122 72.8527 59.121 72.8538 59.1196Z" fill="#191919"/>
<path d="M43.4383 59.6627C43.4182 59.6856 43.4076 59.7098 43.4059 59.7351C43.4025 59.7283 43.3994 59.7221 43.3957 59.7153C43.4097 59.6975 43.424 59.6801 43.4383 59.6627C43.38 59.6382 43.3217 59.6136 43.263 59.5887C43.2521 59.6007 43.2411 59.6129 43.2302 59.6249C43.2411 59.6129 43.2521 59.6007 43.2633 59.5887C43.1593 59.5106 43.0399 59.5062 42.9174 59.5157C42.8338 59.4867 42.7601 59.427 42.6649 59.4355C42.2586 59.2448 41.8721 59.0272 41.5909 58.6628C41.3791 58.2534 41.1638 57.8457 40.9922 57.4169C40.8046 56.9365 40.6746 56.4326 40.4054 55.986C40.2362 55.475 40.0782 54.9591 39.8101 54.4876C39.7585 54.3426 39.707 54.1977 39.6555 54.0527C39.6692 53.9558 39.6385 53.8705 39.5852 53.7913C39.4317 53.3471 39.3154 52.8883 39.0909 52.4714C39.0817 52.4458 39.0677 52.4202 39.0482 52.3949L39.0476 52.3936C39.0687 52.3148 39.0459 52.2564 38.9688 52.223C38.5914 51.1824 38.2216 50.1392 37.7965 49.1164C37.6993 48.7363 37.5516 48.3747 37.3916 48.0175C37.3967 47.9209 37.3905 47.8278 37.3069 47.7602C37.3056 47.735 37.2971 47.7128 37.281 47.6934C37.2933 47.6217 37.2694 47.5654 37.2094 47.5245V47.5242C37.1412 47.1615 37.003 46.8261 36.8256 46.5061C36.8211 46.4836 36.8085 46.4611 36.7877 46.4379C36.7096 46.2291 36.6342 46.0193 36.5533 45.8115C36.1432 44.7611 35.7318 43.7113 35.32 42.6619C35.2654 42.5227 35.2422 42.3467 35.0495 42.3279C34.8472 42.3084 34.74 42.4616 34.6759 42.6117C34.5783 42.8396 34.4562 43.0628 34.4289 43.3169C34.3777 43.365 34.3457 43.4213 34.3535 43.4943C33.7636 44.991 33.1693 46.486 32.5863 47.9857C32.3 48.722 31.9868 49.4483 31.7569 50.2057C31.6631 50.2971 31.6314 50.4196 31.5853 50.5363C31.2885 51.2879 30.9828 52.036 30.6932 52.7907C30.3387 53.7135 29.9972 54.6412 29.6499 55.5667C29.5738 55.6357 29.5503 55.7223 29.5632 55.8212C29.5107 55.9342 29.4581 56.0471 29.4056 56.16C29.1238 56.7786 28.8342 57.394 28.564 58.0177C28.4654 58.2452 28.2685 58.4226 28.2344 58.6805C28.2344 58.6805 28.2344 58.6805 28.2347 58.6805C28.1477 58.7877 28.0614 58.8951 27.9748 59.0023C27.9748 59.0023 27.9748 59.0023 27.9744 59.0026C27.9744 59.0026 27.9748 59.0026 27.9748 59.0023C27.5654 59.2366 27.144 59.4461 26.6923 59.5873C26.6899 59.588 26.6879 59.5887 26.6855 59.5897C26.1376 59.617 25.6095 59.5 25.0838 59.3673C24.2708 59.1619 23.8504 58.7 23.7488 57.8648C23.67 57.2173 23.612 56.567 23.6167 55.913C23.6236 55.7882 23.6382 55.6629 23.6359 55.5381C23.6144 54.4365 23.6352 53.3349 23.5632 52.2329C23.5096 51.4121 23.5396 50.5861 23.5246 49.7622C23.5202 49.5131 23.5622 49.2597 23.4721 49.0161C23.4564 49.028 23.4407 49.0396 23.425 49.0512C23.424 49.0454 23.4226 49.0399 23.4216 49.0341C23.4383 49.028 23.4554 49.0222 23.4721 49.0161C23.4434 47.8588 23.4683 46.7013 23.3991 45.5434C23.3442 44.6249 23.3851 43.7011 23.3762 42.7796C23.3725 42.3989 23.4475 42.0314 23.5308 41.664C23.614 41.2966 23.8515 41.0485 24.1681 40.8769C24.338 40.7848 24.5266 40.7203 24.7136 40.6678C25.0623 40.5702 25.415 40.4962 25.7787 40.4593C26.0677 40.43 26.1874 40.2543 26.1673 40.0104C26.1455 39.7494 26.1001 39.7153 25.7313 39.7149C24.3762 39.7136 23.0214 39.7142 21.6663 39.7146C21.5827 39.7146 21.4985 39.7142 21.4156 39.7231C21.2702 39.7385 21.1918 39.8241 21.1788 39.9694C20.5548 41.2884 19.9267 42.6053 19.3079 43.9266C18.7773 45.0589 18.2578 46.1963 17.733 47.3314C17.7283 47.3386 17.7249 47.3457 17.7218 47.3529C17.3059 48.1495 16.9317 48.9659 16.5693 49.7881C16.2473 50.4534 15.8996 51.1067 15.6557 51.8071C15.0907 53.0046 14.5261 54.2021 13.9611 55.3996C13.8325 55.4681 13.8741 55.6667 13.7223 55.7175C13.6319 55.7063 13.6217 55.6254 13.594 55.5678C13.1829 54.7019 12.7852 53.8292 12.3624 52.9691C12.0322 52.2974 11.7668 51.5935 11.3748 50.9518C11.1667 50.5148 10.9685 50.0726 10.7453 49.6435C10.6525 49.4647 10.6331 49.2402 10.4455 49.1147C10.4455 49.1147 10.4455 49.1143 10.4451 49.1143C9.77268 47.69 9.10059 46.2653 8.4285 44.8409V44.8406C8.4766 44.7031 8.39063 44.5987 8.33843 44.4878C7.64041 43.0126 6.9342 41.5415 6.24915 40.0602C6.13042 39.8033 5.98849 39.7112 5.71113 39.7156C4.67774 39.7316 3.64402 39.7255 2.61064 39.7276C2.24764 39.7282 1.8843 39.7296 1.5213 39.7276C1.34799 39.7265 1.21562 39.7712 1.20641 39.9752C1.12009 40.2185 1.23984 40.3478 1.45887 40.4075C1.59192 40.4437 1.73077 40.459 1.86724 40.4825C2.54138 40.6006 3.20051 40.7541 3.71771 41.2502C3.92207 41.5429 4.03738 41.8697 4.07423 42.2218C4.14826 42.9301 4.18033 43.6404 4.14826 44.3527C4.08105 45.8432 4.00668 47.3338 3.93469 48.8243C3.83678 50.8444 3.76889 52.8661 3.5792 54.8803C3.48913 55.8376 3.38644 56.7946 3.15002 57.7318C2.98797 58.3742 2.65635 58.8774 2.05454 59.1827C1.95595 59.1698 1.85939 59.1619 1.80788 59.2745C1.73214 59.2574 1.67142 59.2769 1.63321 59.3485H1.63286C1.62638 59.3554 1.6199 59.3608 1.61308 59.3656C1.61956 59.3598 1.62638 59.355 1.63286 59.3485C1.51175 59.3386 1.38449 59.3073 1.30193 59.4386C1.11634 59.3994 0.944737 59.4758 0.773473 59.5174C0.402969 59.6071 0.338491 59.9613 0.624385 60.2669C0.624385 60.2669 0.624385 60.2669 0.624385 60.2673C0.666007 60.2714 0.707626 60.2789 0.749589 60.2789C3.00058 60.2796 5.25193 60.2799 7.50292 60.2803C7.55887 60.2803 7.61482 60.2799 7.67077 60.2772C7.83726 60.269 7.91607 60.1793 7.93859 60.0148C7.9843 59.6819 7.89389 59.5751 7.54352 59.5157C6.85403 59.3983 6.17204 59.2537 5.58251 58.8429C5.2352 58.526 5.06667 58.1176 5.00697 57.6649C4.8647 56.5841 4.81626 55.4978 4.82035 54.4075C4.82718 52.6201 4.88279 50.8355 4.96739 49.0495C5.03529 47.6142 5.03665 46.1742 5.0868 44.7365C5.09874 44.394 5.11171 44.0518 5.12399 43.7093C5.34404 44.059 5.50404 44.423 5.6678 44.7856C6.03626 45.5997 6.39038 46.4205 6.78238 47.2226C6.99492 47.6575 7.12321 48.1359 7.42923 48.5241V48.5248C7.40705 48.6056 7.42821 48.6657 7.51247 48.6943C7.59231 48.8707 7.67043 49.0478 7.75231 49.2231C8.11565 49.9996 8.48001 50.7754 8.84437 51.5512C8.82732 51.6512 8.89111 51.7239 8.92966 51.8051C8.91841 51.8917 8.94604 51.9699 8.98118 52.047C9.4264 53.0234 9.87196 53.9994 10.3158 54.9765C10.702 55.8264 11.0729 56.683 11.4768 57.5243C11.6614 57.9088 11.7586 58.3387 12.0462 58.6724C12.1813 58.9617 12.3205 59.2489 12.4498 59.5406C12.518 59.6945 12.6142 59.7965 12.7916 59.7948C12.9612 59.7934 13.0332 59.6645 13.0888 59.5392C13.4378 58.7539 13.8434 57.9938 14.1481 57.1886C14.3774 56.855 14.5162 56.4759 14.6841 56.1119C15.6803 53.951 16.6751 51.7894 17.6703 49.6278C17.7549 49.5865 17.7713 49.4985 17.8054 49.4248C18.3761 48.1867 18.95 46.9503 19.5115 45.7081C19.6538 45.3929 19.8486 45.0998 19.9281 44.7566C20.2113 44.1623 20.4538 43.5482 20.7677 42.9689C20.8707 43.0218 20.8629 43.0815 20.8625 43.1337C20.855 44.8382 20.8649 46.5423 20.9065 48.2464C20.9321 49.2938 20.9485 50.3418 20.9448 51.3899C20.9369 53.7077 21.0427 56.0273 20.8482 58.3424C20.7291 58.5622 20.6097 58.7819 20.4907 59.0019C20.2621 59.1657 20.0195 59.3059 19.7456 59.3728C19.3795 59.4621 19.0141 59.5553 18.6375 59.5986C18.401 59.6259 18.3215 59.73 18.3386 59.9166C18.3563 60.1076 18.4478 60.1827 18.6822 60.1844C19.4372 60.1895 20.1918 60.1933 20.9468 60.195C24.5123 60.2042 28.0775 60.2117 31.643 60.2246C31.7982 60.2253 31.9156 60.2199 31.9582 60.0377C32.0015 59.8524 31.9347 59.7354 31.7648 59.6774C31.6198 59.6279 31.4676 59.6 31.3212 59.5532C30.9122 59.4229 30.4697 59.3622 30.1647 59.0104C30.177 58.933 30.1517 58.877 30.0736 58.8508L30.0733 58.8501C30.0995 58.5048 30.0535 58.1579 30.1316 57.8123C30.4349 56.4688 30.845 55.1573 31.3113 53.863C31.4519 53.4734 31.3533 53.4747 31.8674 53.4744C33.593 53.4737 35.319 53.472 37.0446 53.4706C37.048 53.4723 37.0507 53.4744 37.0541 53.4764C37.2165 53.7071 37.2667 53.9848 37.3742 54.2386C37.3503 54.3389 37.3864 54.4249 37.4383 54.5067C37.5703 54.8697 37.6983 55.2344 37.8368 55.5947C37.8996 55.7574 37.8818 55.9594 38.0568 56.071C38.1643 56.3548 38.2718 56.6387 38.3792 56.9229C38.3553 57.0822 38.4314 57.2159 38.4816 57.3592C38.6675 57.8928 38.8787 58.423 38.803 59.0081C38.6225 59.1633 38.4226 59.2878 38.1895 59.3414C38.0401 59.3758 37.8931 59.4069 37.7675 59.5003H37.7672C37.6259 59.5014 37.4915 59.5324 37.3656 59.5962C37.2316 59.6641 37.0552 59.7088 37.0627 59.8971C37.0692 60.0633 37.1804 60.1721 37.3516 60.2049C37.4915 60.2942 37.6488 60.2666 37.8003 60.268C38.5256 60.2734 39.2509 60.2758 39.9762 60.2768C41.0642 60.2785 42.1521 60.2779 43.2405 60.2785C43.4001 60.2785 43.5523 60.2707 43.597 60.0708C43.6342 59.8971 43.6635 59.7317 43.4383 59.6627ZM32.1738 51.2947C32.1759 51.2926 32.1779 51.2909 32.18 51.2889C32.1909 51.2793 32.2018 51.2701 32.2124 51.2602C32.2137 51.2582 32.2144 51.2555 32.2154 51.2534C32.327 51.1303 32.3625 50.9795 32.3533 50.8123C32.3703 50.8075 32.3867 50.7997 32.402 50.7887C32.5283 50.5878 32.6924 50.3974 32.603 50.131C32.736 50.1457 32.7906 50.0399 32.8237 49.9454C33.0547 49.2805 33.3819 48.6486 33.5173 47.951C33.5156 47.9315 33.5125 47.9127 33.5078 47.8947C33.8035 47.5811 34.1679 46.5733 34.1075 46.2056C34.1259 46.1967 34.1423 46.1851 34.1567 46.1691C34.1573 46.1673 34.1877 46.1506 34.1877 46.1506C34.1877 46.1506 34.2222 46.1513 34.2225 46.1489C34.2402 46.1656 34.2529 46.1875 34.2614 46.2103C34.2801 46.2728 34.2918 46.339 34.3105 46.4021C34.7093 47.5719 35.1784 48.7169 35.6117 49.8748C35.8 50.3783 35.9399 50.9064 36.2258 51.3718C36.2452 51.3868 36.2661 51.3974 36.2882 51.4025C36.2807 51.4898 36.2882 51.5721 36.3691 51.6314L36.3708 51.6331C36.3708 51.6338 36.3708 51.6345 36.3711 51.6352C36.366 51.6382 36.3616 51.642 36.3568 51.6464C36.2927 51.7532 36.3172 51.8668 36.367 51.9603C36.5451 52.295 36.3793 52.397 36.0771 52.4195C34.899 52.4444 33.72 52.4577 32.5402 52.4144C32.4386 52.3922 32.3369 52.3782 32.2328 52.3905C32.1687 52.3963 32.1121 52.4345 32.0452 52.4287C32.0182 52.4195 31.9947 52.4045 31.9735 52.3861C31.9568 52.3636 31.9445 52.3376 31.934 52.312C31.9278 52.2735 31.9244 52.2339 31.9179 52.195C32.1875 51.9722 32.2226 51.6597 32.2045 51.3271C32.195 51.3148 32.184 51.3056 32.1724 51.2995C32.1735 51.2974 32.1735 51.2964 32.1738 51.2947ZM29.6785 55.5906C29.6782 55.591 29.6779 55.591 29.6772 55.591C29.6765 55.5903 29.6495 55.5661 29.6492 55.5657C29.6591 55.5742 29.669 55.5824 29.6785 55.5906Z" fill="#191919"/>
<path d="M69.1296 56.1876C69.1627 56.031 69.1269 55.9115 68.9713 55.846C68.8195 55.7822 68.6929 55.8242 68.6104 55.96C68.5258 56.0992 68.3968 56.2234 68.4227 56.4096C68.2354 56.7512 68.054 57.0957 67.8595 57.4328C67.5258 58.0121 67.2062 58.6054 66.5733 58.9288C66.3212 58.9602 66.1148 59.1164 65.8753 59.184C64.6399 59.532 63.3851 59.4825 62.1361 59.3188C61.6479 59.2546 61.2505 58.9595 61.1154 58.4392C61.0314 58.1168 60.9564 57.791 60.9564 57.4509C60.9564 53.7366 60.9485 50.0227 60.9509 46.3085C60.9513 45.7514 60.9434 45.1929 61.0434 44.6381C61.1246 44.1871 61.3163 43.8221 61.7066 43.5717C61.7093 43.5717 61.7121 43.5706 61.7148 43.5686C62.1699 43.3922 62.6458 43.3035 63.1252 43.2227C63.3899 43.1783 63.496 43.063 63.4776 42.889C63.4595 42.7167 63.3459 42.6464 63.0627 42.6379C62.4486 42.6198 61.8349 42.5953 61.2208 42.5891C60.3822 42.5806 59.5436 42.5871 58.705 42.5871C57.9924 42.5871 57.2793 42.5878 56.5666 42.5854C56.3691 42.5847 56.248 42.6591 56.2313 42.8709C56.2149 43.0753 56.3067 43.1957 56.5042 43.221C57.0596 43.2919 57.5908 43.4451 58.1039 43.6655C58.3042 43.8129 58.4239 44.023 58.4901 44.2499C58.5836 44.5703 58.6624 44.8957 58.6675 45.2359C58.7207 48.6294 58.7006 52.0233 58.6962 55.4172C58.6952 56.1432 58.6856 56.8695 58.661 57.5952C58.645 58.0694 58.6194 58.5494 58.2827 58.9373C57.8596 59.2795 57.3721 59.4624 56.8362 59.5333C56.7123 59.5497 56.5898 59.5852 56.4708 59.6248C56.2575 59.6957 56.2101 59.8018 56.2337 60.0465C56.2538 60.2559 56.3841 60.2904 56.5547 60.2842C56.6106 60.2822 56.6666 60.2829 56.7225 60.2829C59.8551 60.2815 62.9873 60.2808 66.1199 60.2788C66.6791 60.2784 67.2386 60.2634 67.7977 60.2733C68.0574 60.2778 68.2453 60.1778 68.3235 59.9451C68.4156 59.6708 68.5251 59.3945 68.506 59.0939C68.5097 59.0683 68.5131 59.0427 68.5159 59.0172C68.6083 58.9199 68.608 58.8009 68.5947 58.6791C68.6537 58.4212 68.7165 58.1639 68.7714 57.905C68.8929 57.3328 69.0089 56.7597 69.1296 56.1876Z" fill="#191919"/>
<path d="M97.5762 50.9483C97.482 50.8347 97.3326 50.8429 97.2132 50.7849C96.914 50.5389 96.5111 50.5775 96.1767 50.4294C96.2146 50.3066 96.3118 50.3199 96.3862 50.2909C97.2299 49.9657 97.9852 49.5147 98.5342 48.7727C99.4065 47.7107 99.571 46.5261 99.1254 45.2471C98.9712 44.8046 98.7952 44.3645 98.3803 44.0834C98.2957 44.0026 98.2107 43.9214 98.1261 43.8402C98.0637 43.6102 97.8542 43.5372 97.6796 43.4349C96.7922 42.9142 95.8113 42.7082 94.8022 42.6696C93.7036 42.6277 92.6051 42.5639 91.5025 42.6225C90.654 42.6676 89.8011 42.6307 88.9502 42.6318C88.4064 42.6324 87.8622 42.6324 87.3184 42.6396C87.1772 42.6413 86.9923 42.5847 86.966 42.8208C86.9101 43.0558 87.0291 43.1476 87.2437 43.1906C87.5583 43.2534 87.8735 43.3103 88.1809 43.41C88.6336 43.556 88.8977 43.8548 89.0427 44.3018C89.1839 44.7374 89.1873 45.1843 89.1938 45.6282C89.2508 49.4694 89.246 53.3109 89.1958 57.152C89.188 57.7508 89.1883 58.356 88.8908 58.907C88.681 59.1587 88.4142 59.3092 88.1024 59.4146C87.7582 59.5309 87.401 59.5729 87.0527 59.6613C86.7463 59.7387 86.7187 59.7851 86.8647 60.0761C86.8681 60.0864 86.8729 60.0966 86.8807 60.1079L86.8824 60.1102C86.9363 60.2515 87.0615 60.2177 87.1659 60.2187C87.8592 60.2273 88.5534 60.2535 89.246 60.2293C89.6878 60.2136 90.1327 60.2655 90.5724 60.185C91.1841 60.2409 91.7959 60.1894 92.4069 60.1771C93.4502 60.156 94.4955 60.1379 95.5251 59.9335C95.7967 59.9632 96.0566 59.9407 96.2852 59.7701L96.2828 59.766C96.29 59.7592 96.2975 59.7537 96.3054 59.7489C96.2978 59.7544 96.2903 59.7595 96.2828 59.766C96.4077 59.7902 96.5312 59.8086 96.6165 59.6797C96.7161 59.7002 96.8052 59.6865 96.8713 59.6002C96.9256 59.5995 96.9849 59.6132 97.033 59.5954C97.5949 59.3904 98.1217 59.1185 98.5983 58.7545C99.0845 58.3833 99.5321 57.9776 99.7999 57.4113C100.158 56.7743 100.421 56.1036 100.441 55.365C100.46 54.6301 100.451 53.8942 100.06 53.2297C99.5785 52.0909 98.6863 51.401 97.5762 50.9483ZM96.5336 58.588C96.4558 58.5733 96.4022 58.6224 96.3473 58.6627C95.1802 59.5207 93.8623 59.5306 92.5096 59.3443C92.47 59.2727 92.4096 59.2549 92.3335 59.2764L92.3287 59.2744C91.963 59.0683 91.6894 58.7896 91.615 58.358C91.5652 58.0697 91.5045 57.7845 91.5052 57.4884C91.5082 56.1893 91.4994 54.8904 91.4967 53.5916C91.4953 52.8516 91.4967 52.1117 91.5014 51.371C91.5031 51.0616 91.5086 51.0506 91.7952 51.0527C92.5205 51.0575 93.2455 51.0121 93.9701 51.1162C95.0529 51.2724 96.0137 51.6593 96.7687 52.4808C96.8502 52.5695 96.9031 52.6998 97.0477 52.7155C97.654 53.4893 97.8624 54.3988 97.8423 55.3462C97.8164 56.5778 97.4933 57.7187 96.5336 58.588ZM96.6462 45.9076C96.697 46.9594 96.7721 48.015 96.2388 48.9904C96.2129 49.0381 96.2497 48.9771 96.2364 49.031C96.2395 49.0562 96.2473 49.078 96.2607 49.0965C95.9768 49.164 95.8216 49.3735 95.6943 49.6133C95.6851 49.6017 95.6718 49.5918 95.6541 49.5836C95.5534 49.5543 95.4569 49.5765 95.3699 49.6222C94.3263 50.1759 93.1888 50.1452 92.0575 50.165C91.7593 50.1704 91.6225 50.0524 91.6273 49.7471C91.6614 47.6701 91.5547 45.5917 91.688 43.5161C91.7559 43.5628 91.8337 43.556 91.9118 43.5491C92.4696 43.5014 93.0292 43.5171 93.5876 43.5297C94.9247 43.559 95.9161 44.1346 96.4534 45.3993C96.5029 45.517 96.5189 45.6766 96.697 45.6848C96.6424 45.7493 96.6421 45.8278 96.6462 45.9076Z" fill="#191919"/>
</g>
<defs>
<clipPath id="clip0_2377_7206">
<rect width="100" height="100" fill="white" transform="translate(0.446289)"/>
</clipPath>
</defs>
</svg>
