<svg width="100" height="101" viewBox="0 0 100 101" fill="none" xmlns="http://www.w3.org/2000/svg">
<path d="M19.5187 15.928H80.4813V76.0845H19.5187V15.928Z" fill="#191919"/>
<mask id="mask0_2377_7519" style="mask-type:luminance" maskUnits="userSpaceOnUse" x="19" y="15" width="62" height="62">
<path d="M19.5187 15.928H80.4813V76.0845H19.5187V15.928Z" fill="white"/>
</mask>
<g mask="url(#mask0_2377_7519)">
<path d="M69.6073 5.23028L79.519 7.88673L58.5399 72.4379L89.1464 11.8133L98.0317 16.9428L61.0608 73.8661L106.316 23.228L113.573 30.4831L63.1278 75.8956L119.946 38.6984L125.076 47.5835L64.5977 78.3941L129.107 57.1683L131.763 67.081L65.3732 81.1863L133.176 77.3804V87.6402L56.4538 83.6153L56.4014 83.812L56.4261 83.8418L56.3811 83.8845L56.3299 84.0788L56.2124 84.0544L56.1655 84.1012L56.0511 84.3011L56.067 84.3341L56.0137 84.3641L55.9133 84.5372L55.8087 84.4859L55.751 84.518L55.5876 84.6803L55.5939 84.7177L55.5331 84.7316L55.3931 84.8726L55.3055 84.7946L55.2393 84.8096L55.0417 84.9259L55.0374 84.9633H54.9776L54.8024 85.0637L54.7373 84.9633H54.6731L54.4488 85.0242L54.437 85.0574L54.3784 85.0424L54.184 85.0937L54.1477 84.9794L54.0836 84.9633H53.8528L53.8325 84.9943L53.778 84.9633H53.5793L53.573 84.8458L53.5152 84.8096L53.2931 84.7509L53.2663 84.7764L53.2204 84.7316L53.027 84.6803L53.0517 84.5639L53.0046 84.518L52.8049 84.3994L52.774 84.4195L52.7419 84.3641L52.5677 84.2658L52.6222 84.1591L52.5901 84.1012L52.4268 83.9369L52.3893 83.9454L52.3733 83.8845L52.2591 83.7691L-24.4223 88.076V77.8151L43.3606 81.3732L-23.1208 67.4985L-20.4663 57.5891L44.0858 78.5682L-16.5392 47.9585L-11.4076 39.0755L45.5146 76.0462L-5.12402 30.7907L2.13251 23.5355L47.5441 73.9781L10.3468 17.1586L19.2316 12.0302L50.0437 72.5085L28.8173 7.9968L38.728 5.34229L52.8359 71.7329L49.0289 3.93018H59.2909L55.7339 71.7115L69.6073 5.23028Z" fill="#E4E4E4"/>
</g>
<path fill-rule="evenodd" clip-rule="evenodd" d="M19.5187 84.789V85.6222C19.5187 85.7332 19.5187 85.7194 19.618 85.7194H21.4093C21.498 85.7194 21.5075 85.7131 21.5075 85.6222V84.789H19.5187ZM28.0544 84.789C28.7711 85.4994 29.771 85.9299 30.9006 85.9095C31.9789 85.8904 32.9243 85.4641 33.6079 84.789H28.0544ZM36.3525 84.789V85.6222C36.3525 85.7332 36.3525 85.7194 36.4525 85.7194H41.1278C41.2181 85.7194 41.2181 85.7131 41.2181 85.6222V84.789H36.3525ZM42.7734 84.789C42.6453 85.0539 42.523 85.3145 42.4039 85.5668C42.3612 85.6778 42.3713 85.7194 42.4589 85.7194H44.2956C44.4394 85.7194 44.4607 85.6884 44.4932 85.6019C44.5883 85.3743 44.7063 85.0646 44.8238 84.789H42.7734ZM47.6122 84.789C47.717 85.0507 47.8536 85.3819 47.9647 85.6328C47.9988 85.7129 48.0438 85.7194 48.0992 85.7194H50.165C50.2654 85.7194 50.2762 85.7131 50.2098 85.5668C50.0817 85.3126 49.9536 85.0528 49.8222 84.789H47.6122ZM51.6726 84.789V85.6222C51.6726 85.7332 51.6726 85.7194 51.7623 85.7194H53.5749C53.6541 85.7194 53.6636 85.7131 53.6636 85.6222V84.789H51.6726ZM55.7176 84.789C55.866 85.0422 56.0103 85.2944 56.1181 85.4994C56.2164 85.6991 56.2612 85.7194 56.3489 85.7194H58.3057C58.4274 85.7194 58.4617 85.6436 58.3292 85.4214C58.199 85.213 58.0696 84.9995 57.9426 84.789H55.7176ZM60.4614 84.789V85.6222C60.4614 85.7332 60.4614 85.7194 60.563 85.7194H62.3949C62.4964 85.7194 62.5061 85.7131 62.5061 85.6222V84.789H60.4614ZM65.3131 84.789C66.0138 85.4813 66.9858 85.9095 68.0902 85.9095C69.1949 85.9095 70.1647 85.4812 70.8653 84.789H65.3131ZM74.1459 84.789C74.1501 85.0528 74.1554 85.3263 74.1598 85.6104C74.1598 85.6543 74.1961 85.7194 74.2729 85.7194H75.9415C76.0419 85.7194 76.0419 85.7194 76.0419 85.6222V84.789H74.1459ZM78.9431 84.789C79.4239 85.1885 79.9012 85.573 80.319 85.8881C80.4429 85.9758 80.4514 85.9095 80.4514 85.7759C80.4568 85.4576 80.4611 85.1255 80.4642 84.7888H78.9431V84.789Z" fill="#E4E4E4"/>
<path fill-rule="evenodd" clip-rule="evenodd" d="M21.5075 84.7891V83.8417C21.5075 83.8417 22.7573 83.831 23.0777 83.7969C24.4935 83.6334 25.5661 82.9124 25.5661 81.0987C25.5661 79.3971 24.5817 78.2253 22.9339 78.2253H19.618C19.5737 78.2253 19.5187 78.2135 19.5187 78.3257V81.9852V84.7891H21.5075ZM33.6079 84.7891C34.3407 84.0649 34.7761 83.0479 34.7567 81.9287C34.7177 79.7623 32.9968 78.033 30.7644 78.0725C28.5319 78.112 26.8704 79.8982 26.9077 82.0632C26.9269 83.1345 27.3553 84.0937 28.0546 84.7891H33.6079ZM41.2181 84.7891V84.0212C41.2181 83.9314 41.2053 83.9081 41.1188 83.9081L38.3419 83.9637V78.3257C38.3419 78.2371 38.332 78.2253 38.2432 78.2253H36.4523C36.3524 78.2253 36.3524 78.2135 36.3524 78.3257V81.9852V84.7891H41.2181ZM44.8238 84.7891C44.8425 84.7411 44.8623 84.6941 44.881 84.6481H47.5568C47.5739 84.6929 47.5921 84.7389 47.6122 84.7891H49.8224C48.6868 82.499 47.3795 79.836 46.4288 77.9839C46.418 77.9592 46.1746 77.9497 46.1629 77.9839C45.2602 79.6695 43.8781 82.4669 42.7734 84.7891H44.8238ZM53.6636 84.7891V83.533L54.9347 83.5106C54.9347 83.5106 55.3459 84.1569 55.7176 84.7891H57.9426C57.447 83.9582 56.9983 83.1753 56.7697 82.8131C57.4436 82.4948 57.7993 81.7749 57.7993 80.7591C57.7993 79.3971 56.8913 78.2255 55.1877 78.2255H51.762C51.7288 78.2255 51.6722 78.2137 51.6722 78.3259V81.9854V84.7893L53.6636 84.7891ZM62.5059 84.7891V81.9852V78.3257C62.5059 78.2371 62.4963 78.2253 62.3947 78.2253H60.5628C60.4613 78.2253 60.4613 78.2135 60.4613 78.3257V81.9852V84.7891H62.5059ZM70.8655 84.7891C71.5833 84.081 72.0149 83.0908 72.0149 81.9949C72.0149 79.8285 70.3219 78.0725 68.0904 78.0725C65.8559 78.0725 64.1638 79.8287 64.1638 81.9949C64.1638 83.0908 64.5975 84.081 65.3132 84.7891H70.8655ZM76.0419 84.7891V82.2395C76.0419 82.2395 77.5062 83.5865 78.943 84.7891H80.464C80.4864 82.6732 80.4897 80.2152 80.4513 78.3578C80.4513 78.2487 80.4513 78.2253 80.3412 78.2253H78.6609C78.5723 78.2253 78.5723 78.2371 78.5723 78.3578V81.6787C78.5723 81.6787 75.8623 79.1663 74.2815 78.0383C74.2281 78.0051 74.1598 77.9934 74.1598 78.1131C74.1202 80.7388 74.1086 82.4254 74.1459 84.7891H76.0419ZM68.0904 79.961C69.2611 79.961 69.947 80.8572 69.947 81.9949C69.947 83.1345 69.2613 84.0212 68.0904 84.0212C66.8952 84.0212 66.2328 83.1345 66.2328 81.9949C66.2328 80.8571 66.8951 79.961 68.0904 79.961ZM53.6636 82.0407V79.8733H54.7583C55.3993 79.8733 55.6973 80.3156 55.6973 80.903C55.6973 81.5419 55.3651 81.9851 54.7691 82.0086L53.6636 82.0407ZM45.4333 83.2125L46.1862 81.5322L46.9714 83.2125H45.4333ZM30.8322 79.961C32.004 79.961 32.6888 80.8572 32.6888 81.9949C32.6888 83.1345 32.004 84.0212 30.8322 84.0212C29.638 84.0212 28.9753 83.1345 28.9753 81.9949C28.9753 80.8571 29.638 79.961 30.8322 79.961ZM22.415 79.8733C23.089 79.8733 23.5201 80.2964 23.5201 81.0344C23.5201 81.6656 23.2108 82.1506 22.4374 82.1849L21.5075 82.217V79.8733H22.415Z" fill="#E4E4E4"/>
</svg>
