<svg width="100" height="100" viewBox="0 0 100 100" fill="none" xmlns="http://www.w3.org/2000/svg">
<path d="M19.5187 15H80.4813V75.1565H19.5187V15Z" fill="#E4E4E4"/>
<mask id="mask0_2377_7508" style="mask-type:luminance" maskUnits="userSpaceOnUse" x="19" y="15" width="62" height="61">
<path d="M19.5187 15H80.4813V75.1565H19.5187V15Z" fill="white"/>
</mask>
<g mask="url(#mask0_2377_7508)">
<path d="M69.6073 4.30206L79.519 6.95851L58.5399 71.5097L89.1464 10.8851L98.0317 16.0146L61.0608 72.9379L106.316 22.2998L113.573 29.5549L63.1278 74.9674L119.946 37.7702L125.076 46.6552L64.5977 77.4659L129.107 56.2401L131.763 66.1527L65.3732 80.2581L133.176 76.4522V86.712L56.4538 82.6871L56.4014 82.8837L56.4261 82.9136L56.3811 82.9563L56.3299 83.1506L56.2124 83.1261L56.1655 83.173L56.0511 83.3729L56.067 83.4059L56.0137 83.4359L55.9133 83.609L55.8087 83.5577L55.751 83.5898L55.5876 83.7521L55.5939 83.7895L55.5331 83.8033L55.3931 83.9444L55.3055 83.8663L55.2393 83.8813L55.0417 83.9977L55.0374 84.0351H54.9776L54.8024 84.1355L54.7373 84.0351H54.6731L54.4488 84.096L54.437 84.1292L54.3784 84.1142L54.184 84.1655L54.1477 84.0512L54.0836 84.0351H53.8528L53.8325 84.066L53.778 84.0351H53.5793L53.573 83.9176L53.5152 83.8813L53.2931 83.8227L53.2663 83.8481L53.2204 83.8033L53.027 83.7521L53.0517 83.6357L53.0046 83.5898L52.8049 83.4712L52.774 83.4913L52.7419 83.4359L52.5677 83.3376L52.6222 83.2309L52.5901 83.173L52.4268 83.0086L52.3893 83.0172L52.3733 82.9563L52.2591 82.8409L-24.4223 87.1478V76.8869L43.3606 80.445L-23.1208 66.5703L-20.4663 56.6609L44.0858 77.64L-16.5392 47.0303L-11.4076 38.1473L45.5146 75.1179L-5.12402 29.8625L2.13251 22.6073L47.5441 73.0499L10.3468 16.2304L19.2316 11.102L50.0437 71.5802L28.8173 7.06858L38.728 4.41406L52.8359 70.8047L49.0289 3.00195H59.2909L55.7339 70.7833L69.6073 4.30206Z" fill="#191919"/>
</g>
<path fill-rule="evenodd" clip-rule="evenodd" d="M19.5187 83.861V84.6942C19.5187 84.8053 19.5187 84.7914 19.618 84.7914H21.4093C21.498 84.7914 21.5075 84.7851 21.5075 84.6942V83.861H19.5187ZM28.0544 83.861C28.7711 84.5714 29.771 85.0019 30.9006 84.9816C31.9789 84.9624 32.9243 84.5361 33.6079 83.861H28.0544ZM36.3525 83.861V84.6942C36.3525 84.8053 36.3525 84.7914 36.4525 84.7914H41.1278C41.2181 84.7914 41.2181 84.7851 41.2181 84.6942V83.861H36.3525ZM42.7734 83.861C42.6453 84.126 42.523 84.3866 42.4039 84.6388C42.3612 84.7498 42.3713 84.7914 42.4589 84.7914H44.2956C44.4394 84.7914 44.4607 84.7604 44.4932 84.6739C44.5883 84.4463 44.7063 84.1366 44.8238 83.861H42.7734ZM47.6122 83.861C47.717 84.1227 47.8536 84.4539 47.9647 84.7049C47.9988 84.7849 48.0438 84.7914 48.0992 84.7914H50.165C50.2654 84.7914 50.2762 84.7851 50.2098 84.6388C50.0817 84.3846 49.9536 84.1248 49.8222 83.861H47.6122ZM51.6726 83.861V84.6942C51.6726 84.8053 51.6726 84.7914 51.7623 84.7914H53.5749C53.6541 84.7914 53.6636 84.7851 53.6636 84.6942V83.861H51.6726ZM55.7176 83.861C55.866 84.1142 56.0103 84.3664 56.1181 84.5714C56.2164 84.7711 56.2612 84.7914 56.3489 84.7914H58.3057C58.4274 84.7914 58.4617 84.7156 58.3292 84.4934C58.199 84.285 58.0696 84.0715 57.9426 83.861H55.7176ZM60.4614 83.861V84.6942C60.4614 84.8053 60.4614 84.7914 60.563 84.7914H62.3949C62.4964 84.7914 62.5061 84.7851 62.5061 84.6942V83.861H60.4614ZM65.3131 83.861C66.0138 84.5534 66.9858 84.9816 68.0902 84.9816C69.1949 84.9816 70.1647 84.5532 70.8653 83.861H65.3131ZM74.1459 83.861C74.1501 84.1248 74.1554 84.3983 74.1598 84.6824C74.1598 84.7263 74.1961 84.7914 74.2729 84.7914H75.9415C76.0419 84.7914 76.0419 84.7914 76.0419 84.6942V83.861H74.1459ZM78.9431 83.861C79.4239 84.2605 79.9012 84.6451 80.319 84.9601C80.4429 85.0478 80.4514 84.9816 80.4514 84.848C80.4568 84.5297 80.4611 84.1975 80.4642 83.8608H78.9431V83.861Z" fill="#191919"/>
<path fill-rule="evenodd" clip-rule="evenodd" d="M21.5075 83.8612V82.9137C21.5075 82.9137 22.7573 82.9031 23.0777 82.8689C24.4935 82.7055 25.5661 81.9844 25.5661 80.1707C25.5661 78.4691 24.5817 77.2973 22.9339 77.2973H19.618C19.5737 77.2973 19.5187 77.2856 19.5187 77.3977V81.0573V83.8612H21.5075ZM33.6079 83.8612C34.3407 83.1369 34.7761 82.12 34.7567 81.0007C34.7177 78.8343 32.9968 77.105 30.7644 77.1445C28.5319 77.184 26.8704 78.9702 26.9077 81.1353C26.9269 82.2065 27.3553 83.1657 28.0546 83.8612H33.6079ZM41.2181 83.8612V83.0932C41.2181 83.0035 41.2053 82.9801 41.1188 82.9801L38.3419 83.0357V77.3977C38.3419 77.3091 38.332 77.2973 38.2432 77.2973H36.4523C36.3524 77.2973 36.3524 77.2856 36.3524 77.3977V81.0573V83.8612H41.2181ZM44.8238 83.8612C44.8425 83.8131 44.8623 83.7661 44.881 83.7202H47.5568C47.5739 83.765 47.5921 83.8109 47.6122 83.8612H49.8224C48.6868 81.571 47.3795 78.908 46.4288 77.0559C46.418 77.0312 46.1746 77.0217 46.1629 77.0559C45.2602 78.7415 43.8781 81.539 42.7734 83.8612H44.8238ZM53.6636 83.8612V82.6051L54.9347 82.5827C54.9347 82.5827 55.3459 83.2289 55.7176 83.8612H57.9426C57.447 83.0302 56.9983 82.2473 56.7697 81.8851C57.4436 81.5668 57.7993 80.8469 57.7993 79.8311C57.7993 78.4691 56.8913 77.2975 55.1877 77.2975H51.762C51.7288 77.2975 51.6722 77.2857 51.6722 77.3979V81.0574V83.8613L53.6636 83.8612ZM62.5059 83.8612V81.0573V77.3977C62.5059 77.3091 62.4963 77.2973 62.3947 77.2973H60.5628C60.4613 77.2973 60.4613 77.2856 60.4613 77.3977V81.0573V83.8612H62.5059ZM70.8655 83.8612C71.5833 83.153 72.0149 82.1628 72.0149 81.0669C72.0149 78.9006 70.3219 77.1445 68.0904 77.1445C65.8559 77.1445 64.1638 78.9007 64.1638 81.0669C64.1638 82.1628 64.5975 83.153 65.3132 83.8612H70.8655ZM76.0419 83.8612V81.3116C76.0419 81.3116 77.5062 82.6586 78.943 83.8612H80.464C80.4864 81.7453 80.4897 79.2872 80.4513 77.4298C80.4513 77.3207 80.4513 77.2973 80.3412 77.2973H78.6609C78.5723 77.2973 78.5723 77.3091 78.5723 77.4298V80.7507C78.5723 80.7507 75.8623 78.2383 74.2815 77.1104C74.2281 77.0772 74.1598 77.0654 74.1598 77.1851C74.1202 79.8108 74.1086 81.4974 74.1459 83.8612H76.0419ZM68.0904 79.033C69.2611 79.033 69.947 79.9293 69.947 81.0669C69.947 82.2065 69.2613 83.0932 68.0904 83.0932C66.8952 83.0932 66.2328 82.2065 66.2328 81.0669C66.2328 79.9291 66.8951 79.033 68.0904 79.033ZM53.6636 81.1127V78.9454H54.7583C55.3993 78.9454 55.6973 79.3876 55.6973 79.975C55.6973 80.6139 55.3651 81.0571 54.7691 81.0806L53.6636 81.1127ZM45.4333 82.2845L46.1862 80.6042L46.9714 82.2845H45.4333ZM30.8322 79.033C32.004 79.033 32.6888 79.9293 32.6888 81.0669C32.6888 82.2065 32.004 83.0932 30.8322 83.0932C29.638 83.0932 28.9753 82.2065 28.9753 81.0669C28.9753 79.9291 29.638 79.033 30.8322 79.033ZM22.415 78.9454C23.089 78.9454 23.5201 79.3684 23.5201 80.1064C23.5201 80.7377 23.2108 81.2226 22.4374 81.2569L21.5075 81.289V78.9454H22.415Z" fill="#191919"/>
</svg>
