<svg width="101" height="101" viewBox="0 0 101 101" fill="none" xmlns="http://www.w3.org/2000/svg">
<g clip-path="url(#clip0_2377_7854)">
<g clip-path="url(#clip1_2377_7854)">
<path d="M27.4649 23.2664C27.592 23.2663 27.7192 23.2662 27.8463 23.266C28.1962 23.2657 28.5461 23.2658 28.8961 23.266C29.2765 23.2661 29.657 23.2658 30.0375 23.2656C30.7045 23.2652 31.3715 23.2651 32.0385 23.2652C32.754 23.2653 33.4696 23.2652 34.1852 23.265C34.2304 23.265 34.2757 23.2649 34.3222 23.2649C34.5064 23.2649 34.6906 23.2648 34.8747 23.2647C36.7952 23.2641 38.7158 23.2639 40.6363 23.2638C40.843 23.2638 41.0496 23.2638 41.2563 23.2638C41.3076 23.2638 41.3589 23.2638 41.4117 23.2638C42.5481 23.2638 43.6845 23.2636 44.821 23.2635C45.2889 23.2634 45.7568 23.2633 46.2247 23.2633C46.2764 23.2633 46.3281 23.2632 46.3813 23.2632C49.3436 23.2628 52.3058 23.2625 55.268 23.2626C55.3789 23.2626 55.4897 23.2626 55.6005 23.2626C56.101 23.2626 56.6014 23.2626 57.1019 23.2626C57.3251 23.2626 57.5482 23.2626 57.7714 23.2626C57.8831 23.2626 57.9948 23.2626 58.1065 23.2626C61.6404 23.2626 65.1744 23.2622 68.7083 23.2612C69.5991 23.261 70.4898 23.2608 71.3806 23.2605C71.4629 23.2605 71.4629 23.2605 71.5468 23.2605C73.2364 23.2601 74.926 23.2598 76.6156 23.2598C76.6686 23.2598 76.7216 23.2598 76.7763 23.2597C77.9401 23.2597 79.1039 23.2597 80.2677 23.2597C80.6841 23.2597 81.1004 23.2597 81.5168 23.2597C81.6204 23.2597 81.724 23.2597 81.8276 23.2597C83.4798 23.2597 85.132 23.2593 86.7842 23.2588C88.4474 23.2582 90.1106 23.258 91.7737 23.2585C92.0033 23.2585 92.2328 23.2586 92.4624 23.2587C92.5074 23.2587 92.5524 23.2587 92.5988 23.2587C93.2691 23.2588 93.9394 23.2586 94.6097 23.2582C95.3546 23.2577 96.0994 23.2576 96.8443 23.2582C97.2198 23.2584 97.5952 23.2585 97.9706 23.2579C98.3116 23.2574 98.6526 23.2576 98.9935 23.2582C99.1167 23.2583 99.2398 23.2582 99.3629 23.2578C99.5292 23.2574 99.6954 23.2577 99.8616 23.2583C99.9338 23.2578 99.9338 23.2578 100.008 23.2573C100.248 23.2591 100.431 23.2689 100.633 23.4084C100.825 23.6379 100.865 23.8506 100.86 24.1486C100.792 24.598 100.577 25.017 100.398 25.431C100.353 25.5371 100.308 25.6432 100.263 25.7494C100.17 25.9704 100.076 26.1912 99.9824 26.4118C99.7802 26.8873 99.5845 27.3655 99.3884 27.8436C99.3263 27.9949 99.2639 28.146 99.2014 28.2971C99.0163 28.7449 98.8327 29.1931 98.6548 29.644C98.6251 29.7186 98.5953 29.7932 98.5647 29.87C98.5108 30.0055 98.4576 30.1413 98.4054 30.2775C98.2746 30.6046 98.174 30.8273 97.8625 31.0149C97.6353 31.0915 97.461 31.09 97.2213 31.0901C97.1529 31.0902 97.1529 31.0902 97.0831 31.0904C96.9288 31.0906 96.7746 31.0904 96.6204 31.0902C96.5088 31.0902 96.3971 31.0904 96.2855 31.0905C95.9766 31.0908 95.6676 31.0907 95.3587 31.0905C95.0234 31.0904 94.6881 31.0906 94.3528 31.0908C93.7643 31.0912 93.1759 31.0913 92.5874 31.0912C91.7123 31.0911 90.8372 31.0914 89.9621 31.0917C88.8494 31.0922 87.7366 31.0926 86.6238 31.0927C86.5797 31.0928 86.5355 31.0928 86.49 31.0928C86.3105 31.0928 86.1311 31.0928 85.9516 31.0928C83.7578 31.0932 81.5641 31.0942 79.3703 31.0954C78.8569 31.0957 78.3436 31.096 77.8302 31.0963C77.7361 31.0964 77.6421 31.0964 77.5481 31.0965C77.3594 31.0966 77.1707 31.0967 76.982 31.0968C76.7926 31.0969 76.6033 31.097 76.4139 31.0971C74.2285 31.0983 72.0431 31.0994 69.8577 31.1005C69.7095 31.1005 69.5613 31.1006 69.4131 31.1007C67.1327 31.1017 64.8522 31.1026 62.5717 31.103C62.4982 31.103 62.4982 31.103 62.4232 31.103C61.6333 31.1032 60.8435 31.1033 60.0536 31.1034C57.7768 31.1038 55.5 31.1043 53.2233 31.1057C53.1764 31.1057 53.1295 31.1058 53.0812 31.1058C52.0981 31.1064 51.115 31.1071 50.1318 31.1078C49.6714 31.1082 49.2109 31.1085 48.7504 31.1088C48.6824 31.1089 48.6824 31.1089 48.613 31.1089C47.1554 31.11 45.6978 31.1101 44.2402 31.1098C42.7295 31.1095 41.2188 31.1101 39.7081 31.1118C38.8381 31.1127 37.9681 31.1129 37.0981 31.1121C36.5158 31.1116 35.9336 31.112 35.3513 31.1133C35.0202 31.1139 34.6892 31.1142 34.3582 31.1133C30.4738 31.1033 26.8224 31.8958 23.9779 34.7528C22.1774 36.6242 21.0958 39.1174 20.7516 41.6908C20.7455 41.7338 20.7394 41.7768 20.7331 41.8212C20.3384 44.8927 21.086 48.2554 22.9573 50.7235C23.1559 50.9786 23.1559 50.9786 23.376 51.214C23.4561 51.299 23.4561 51.299 23.4561 51.4324C23.4997 51.4324 23.5432 51.4324 23.588 51.4324C23.6718 51.5211 23.6718 51.5211 23.7736 51.6493C23.9964 51.9152 24.2376 52.1519 24.4909 52.3874C24.5462 52.439 24.5462 52.439 24.6026 52.4916C24.7522 52.6298 24.9009 52.7622 25.0653 52.8824C25.1002 52.9103 25.1352 52.9383 25.1712 52.9671C25.1712 53.0111 25.1712 53.0552 25.1712 53.1005C25.2069 53.1147 25.2426 53.1289 25.2794 53.1435C25.4913 53.2667 25.6465 53.4368 25.8143 53.6135C26.0791 53.8872 26.3476 54.1483 26.636 54.3967C26.7983 54.5408 26.9475 54.6965 27.0988 54.8523C27.2204 54.9731 27.3465 55.0858 27.4757 55.1982C27.661 55.3595 27.8361 55.5265 28.0076 55.7028C28.1751 55.8749 28.3456 56.0379 28.527 56.1949C28.8068 56.4374 29.0629 56.7013 29.3201 56.9679C29.4476 57.1067 29.4476 57.1067 29.5907 57.1707C29.5907 57.2147 29.5907 57.2588 29.5907 57.3041C29.6273 57.3193 29.664 57.3344 29.7017 57.35C29.8984 57.4627 30.0318 57.6067 30.1885 57.7712C30.3595 57.9502 30.507 58.1 30.7121 58.2383C30.7121 58.2823 30.7121 58.3263 30.7121 58.3717C30.7498 58.388 30.7876 58.4042 30.8265 58.421C31.0026 58.5202 31.117 58.6373 31.2563 58.7846C31.4429 58.978 31.6303 59.1637 31.8334 59.3392C32.0782 59.5514 32.3037 59.7788 32.5281 60.0127C32.706 60.1881 32.8917 60.3516 33.0792 60.5162C33.3039 60.7162 33.5208 60.9244 33.7381 61.1324C34.095 61.4733 34.455 61.808 34.8265 62.1325C34.9337 62.2417 34.9337 62.2417 34.9337 62.3751C34.9899 62.3991 34.9899 62.3991 35.0473 62.4236C35.228 62.5258 35.3471 62.6494 35.4903 62.8005C35.6444 62.961 35.7863 63.1054 35.9644 63.2384C36.5076 63.7156 36.7631 64.3666 36.8716 65.0736C36.9013 65.6145 36.6997 66.1328 36.356 66.5412C36.279 66.6218 36.2008 66.7012 36.121 66.7789C36.0721 66.8285 36.0231 66.878 35.9726 66.9291C35.2576 67.3893 34.5153 67.3507 33.6989 67.3471C33.5592 67.3474 33.4196 67.3479 33.2799 67.3485C32.8973 67.3497 32.5146 67.3493 32.1319 67.3486C31.7188 67.3481 31.3058 67.3492 30.8927 67.35C30.1307 67.3514 29.3687 67.3515 28.6066 67.351C27.9028 67.3506 27.199 67.3506 26.4952 67.351C26.4008 67.3511 26.3063 67.3511 26.2118 67.3512C26.0695 67.3513 25.9271 67.3514 25.7848 67.3515C24.4619 67.3524 23.139 67.3527 21.8161 67.3519C21.7414 67.3519 21.7414 67.3519 21.6651 67.3518C21.2604 67.3516 20.8557 67.3513 20.451 67.3511C18.8713 67.3501 17.2916 67.3507 15.712 67.3525C13.9367 67.3546 12.1615 67.3556 10.3863 67.355C10.1972 67.3549 10.008 67.3548 9.8188 67.3548C9.77222 67.3547 9.72564 67.3547 9.67765 67.3547C8.97404 67.3545 8.27044 67.3551 7.56684 67.3561C6.76712 67.3573 5.96742 67.3573 5.1677 67.3558C4.75951 67.355 4.35134 67.3548 3.94316 67.3561C3.56977 67.3572 3.19642 67.3568 2.82304 67.3551C2.68771 67.3548 2.55238 67.355 2.41706 67.3559C2.23355 67.357 2.05016 67.356 1.86666 67.3545C1.81372 67.3553 1.76078 67.3561 1.70624 67.3569C1.32762 67.3506 1.16142 67.254 0.896759 66.9791C0.751104 66.6844 0.792329 66.3137 0.880139 66.0049C0.951733 65.8194 1.02978 65.6383 1.11114 65.457C1.17262 65.314 1.23402 65.171 1.29537 65.0279C1.32763 64.9537 1.35989 64.8795 1.39312 64.8031C1.55324 64.4311 1.70491 64.0557 1.85735 63.6804C1.9243 63.5166 1.99129 63.3527 2.05833 63.1889C2.09427 63.101 2.13022 63.0131 2.16616 62.9252C2.84491 61.2657 3.52584 59.6072 4.20917 57.9497C4.46352 57.3328 4.71762 56.7158 4.97176 56.0988C5.0336 55.9486 5.09545 55.7984 5.1573 55.6483C5.18684 55.5766 5.18684 55.5766 5.21698 55.5034C5.32844 55.2328 5.43995 54.9623 5.55154 54.6917C5.89333 53.8629 6.2337 53.0335 6.5737 52.2039C6.59755 52.1457 6.6214 52.0876 6.64597 52.0276C6.89154 51.4285 7.13704 50.8293 7.38237 50.23C7.50169 49.9385 7.62105 49.6471 7.74043 49.3557C7.76398 49.2981 7.78754 49.2406 7.81181 49.1814C8.10782 48.4589 8.40539 47.7371 8.70514 47.0161C9.08066 46.1128 9.45053 45.2071 9.8199 44.3012C10.2598 43.2224 10.7024 42.1448 11.1465 41.0678C11.5336 40.1292 11.9195 39.19 12.3042 38.2503C12.6562 37.3908 13.01 36.5321 13.3665 35.6745C13.5948 35.1252 13.8207 34.5751 14.0456 34.0244C14.2379 33.5538 14.4308 33.0835 14.6243 32.6135C14.7218 32.3765 14.8192 32.1394 14.9152 31.9018C15.6727 30.0315 16.7042 28.5011 18.1131 27.0782C18.1536 27.0342 18.1941 26.9902 18.2358 26.9448C19.0294 26.0956 20.0151 25.4481 21.0155 24.8763C21.079 24.8399 21.079 24.8399 21.1438 24.8027C23.086 23.7079 25.2629 23.2637 27.4649 23.2664Z" fill="#191919"/>
<path d="M33.1307 40.998C33.1916 40.9977 33.2525 40.9974 33.3152 40.9971C33.5185 40.9963 33.7217 40.9969 33.925 40.9975C34.0725 40.9972 34.22 40.9969 34.3676 40.9964C34.7723 40.9955 35.1771 40.9958 35.5818 40.9962C35.9737 40.9965 36.3656 40.9959 36.7574 40.9952C37.6081 40.9939 38.4588 40.9938 39.3095 40.9941C40.0537 40.9944 40.798 40.9944 41.5422 40.994C41.6421 40.994 41.7419 40.9939 41.8418 40.9939C41.9922 40.9938 42.1427 40.9937 42.2932 40.9936C43.6917 40.9929 45.0903 40.9926 46.4888 40.9931C46.5415 40.9931 46.5942 40.9932 46.6485 40.9932C47.0765 40.9933 47.5044 40.9935 47.9324 40.9937C49.6029 40.9944 51.2733 40.9938 52.9438 40.9923C54.8206 40.9905 56.6974 40.9897 58.5742 40.9901C58.7742 40.9902 58.9741 40.9902 59.1741 40.9903C59.2234 40.9903 59.2726 40.9903 59.3233 40.9903C60.0674 40.9905 60.8114 40.9899 61.5555 40.9891C62.4011 40.9881 63.2468 40.988 64.0924 40.9892C64.5241 40.9898 64.9558 40.9899 65.3874 40.9889C65.7822 40.988 66.177 40.9883 66.5718 40.9896C66.715 40.9898 66.8581 40.9896 67.0013 40.9889C67.1953 40.9881 67.3891 40.9888 67.583 40.99C67.6392 40.9893 67.6954 40.9887 67.7533 40.988C68.0187 40.9914 68.1472 41.0026 68.3759 41.1514C68.573 41.3572 68.6337 41.4735 68.6583 41.761C68.6363 42.0923 68.5349 42.3425 68.4061 42.6451C68.3813 42.7051 68.3566 42.7651 68.3311 42.827C68.2496 43.024 68.1669 43.2205 68.0843 43.4171C68.0269 43.5552 67.9697 43.6933 67.9125 43.8315C67.7951 44.1148 67.6774 44.3979 67.5593 44.6808C67.33 45.2309 67.1047 45.7827 66.8793 46.3344C66.7646 46.6151 66.6495 46.8956 66.5344 47.1761C66.5009 47.2578 66.5009 47.2578 66.4667 47.3411C66.208 47.9712 65.9485 48.6009 65.6889 49.2306C65.3175 50.1316 64.948 51.0333 64.5795 51.9354C63.8026 53.837 63.0256 55.7387 62.2424 57.6376C61.5824 59.2385 60.9254 60.8406 60.2759 62.4459C59.688 63.8987 59.09 65.3473 58.4921 66.7959C58.2977 67.2669 58.1036 67.7381 57.9095 68.2092C57.8899 68.2566 57.8704 68.3041 57.8502 68.353C57.2242 69.8726 56.6013 71.3936 55.9793 72.9149C55.7038 73.5887 55.4281 74.2625 55.1514 74.9358C55.1121 75.0317 55.1121 75.0317 55.0719 75.1296C54.9546 75.4148 54.8361 75.6995 54.7144 75.9828C54.6945 76.0292 54.6746 76.0756 54.6541 76.1234C54.4196 76.6051 54.0283 76.8945 53.5354 77.0831C53.0499 77.2225 52.511 77.1721 52.0117 77.1664C51.8718 77.1663 51.732 77.1664 51.5921 77.1666C51.2145 77.1667 50.837 77.1644 50.4594 77.1616C50.064 77.1591 49.6686 77.1589 49.2733 77.1584C48.5255 77.1571 47.7777 77.1539 47.0299 77.1498C46.1782 77.1454 45.3265 77.1432 44.4748 77.1411C42.7237 77.137 40.9725 77.1299 39.2213 77.121C39.2118 76.9623 39.2118 76.9623 39.2213 76.7874C39.3536 76.6753 39.4665 76.6021 39.6171 76.5205C40.7738 75.8918 41.7609 75.1642 42.7174 74.2519C42.7949 74.1789 42.7949 74.1789 42.874 74.1044C45.0323 72.0069 46.5611 68.6555 46.6226 65.6223C46.6405 64.121 46.6405 64.121 46.4113 62.6419C46.3916 62.5596 46.3916 62.5596 46.3716 62.4755C45.8271 60.2688 44.7865 58.3432 43.311 56.6368C43.2542 56.5668 43.1975 56.4968 43.141 56.4267C43.0087 56.2692 42.8809 56.1358 42.7256 56.0029C42.6585 55.9447 42.6585 55.9447 42.5901 55.8853C42.4994 55.8083 42.4083 55.7317 42.3169 55.6555C42.2749 55.6201 42.2329 55.5848 42.1897 55.5483C42.1516 55.5169 42.1135 55.4856 42.0742 55.4532C41.9918 55.369 41.9918 55.369 41.9918 55.2356C41.9331 55.2091 41.9331 55.2091 41.8732 55.1821C41.7226 55.0992 41.6307 55.0151 41.5135 54.8894C41.3519 54.7207 41.1871 54.5625 41.0106 54.4099C40.7634 54.1946 40.5347 53.9648 40.3077 53.728C40.1302 53.5531 39.9449 53.39 39.7578 53.2257C39.5255 53.0188 39.3016 52.803 39.077 52.5875C38.7406 52.2659 38.4036 51.9452 38.0628 51.6283C37.7465 51.334 37.4321 51.0376 37.1188 50.7401C37.0748 50.6983 37.0308 50.6566 36.9856 50.6137C36.8052 50.4425 36.6249 50.2714 36.4448 50.1C36.3109 49.9727 36.1768 49.8455 36.0427 49.7183C36.0024 49.6799 35.9621 49.6415 35.9205 49.6019C35.7512 49.4415 35.5839 49.2897 35.4004 49.1457C35.3552 49.1076 35.3101 49.0695 35.2635 49.0303C35.2635 48.9862 35.2635 48.9422 35.2635 48.8968C35.2278 48.8826 35.1921 48.8684 35.1553 48.8538C34.9435 48.7307 34.7881 48.5607 34.6204 48.3839C34.3628 48.114 34.0971 47.8614 33.8164 47.6161C33.5881 47.4139 33.3688 47.2022 33.1486 46.991C33.0504 46.8972 32.9523 46.8035 32.8541 46.7098C32.7805 46.6395 32.7805 46.6395 32.7054 46.5678C32.4785 46.3511 32.251 46.135 32.0231 45.9193C31.9842 45.8822 31.9452 45.8452 31.9051 45.807C31.7162 45.6284 31.5252 45.4559 31.3259 45.2893C30.8327 44.8646 30.5043 44.2337 30.4276 43.5844C30.3976 42.9139 30.6139 42.3404 31.0391 41.8288C31.6317 41.2213 32.2994 40.9913 33.1307 40.998Z" fill="#191919"/>
<path d="M80.5932 41.0051C80.6733 41.0046 80.6733 41.0046 80.755 41.0041C80.9333 41.0031 81.1117 41.003 81.29 41.003C81.4181 41.0025 81.5462 41.0019 81.6743 41.0013C82.0218 40.9998 82.3693 40.9992 82.7169 40.9989C82.934 40.9987 83.1511 40.9982 83.3682 40.9978C84.1257 40.9961 84.8832 40.9953 85.6407 40.995C86.3468 40.9948 87.053 40.9928 87.7591 40.99C88.3655 40.9877 88.9718 40.9867 89.5782 40.9866C89.9403 40.9866 90.3025 40.986 90.6646 40.9841C91.005 40.9823 91.3455 40.9822 91.6859 40.9832C91.8108 40.9834 91.9358 40.9829 92.0607 40.9819C92.2313 40.9805 92.4018 40.9812 92.5723 40.9824C92.6217 40.9815 92.6711 40.9806 92.722 40.9797C93.0999 40.9859 93.2535 41.095 93.5089 41.357C93.6374 41.617 93.6105 41.9045 93.5298 42.176C93.4613 42.3515 93.3872 42.5235 93.311 42.6957C93.2503 42.8377 93.1898 42.9797 93.1293 43.1218C93.0955 43.2009 93.0616 43.28 93.0268 43.3615C92.8315 43.821 92.6469 44.2851 92.4602 44.7483C92.1439 45.5327 91.8254 46.316 91.497 47.0953C91.2065 47.7851 90.9242 48.4781 90.6436 49.1721C90.2406 50.1689 89.8333 51.164 89.4233 52.158C89.3955 52.2254 89.3676 52.2929 89.339 52.3624C89.3111 52.4299 89.2833 52.4974 89.2546 52.5669C89.1987 52.7025 89.1427 52.8381 89.0868 52.9738C89.0593 53.0405 89.0317 53.1072 89.0034 53.176C88.7273 53.8454 88.4527 54.5154 88.1783 55.1856C87.7057 56.3393 87.2313 57.4923 86.7561 58.6449C86.5767 59.0801 86.3975 59.5152 86.2183 59.9504C86.0945 60.2512 85.9705 60.5518 85.8464 60.8524C85.4495 61.8136 85.0566 62.7764 84.6639 63.7393C84.3491 64.5111 84.0334 65.2824 83.7157 66.053C83.6712 66.1608 83.6712 66.1608 83.6259 66.2708C83.4831 66.617 83.3402 66.9631 83.1972 67.3092C83.1448 67.4361 83.0924 67.5629 83.0401 67.6898C83.0152 67.7501 82.9903 67.8104 82.9646 67.8725C82.8192 68.2258 82.6778 68.5804 82.5392 68.9364C82.4007 69.2887 82.2519 69.6279 82.0725 69.9607C82.0474 70.008 82.0222 70.0553 81.9963 70.104C81.7685 70.5254 81.516 70.9253 81.2398 71.3161C81.1938 71.3817 81.1478 71.4473 81.1004 71.5149C80.7871 71.95 80.4485 72.3469 80.0841 72.7379C79.9203 72.9133 79.9203 72.9133 79.7814 73.0944C79.5902 73.3346 79.3608 73.5192 79.1289 73.7181C79.0662 73.7741 79.0034 73.8301 78.9388 73.8878C78.4173 74.35 77.8724 74.7518 77.282 75.1193C77.2381 75.1467 77.1942 75.1742 77.1489 75.2024C74.8849 76.5946 72.3381 77.1413 69.7161 77.1435C69.5885 77.1439 69.4609 77.1443 69.3333 77.1448C69.0684 77.1456 68.8035 77.1458 68.5385 77.1458C68.1996 77.1457 67.8606 77.1476 67.5216 77.1499C67.2592 77.1514 66.9968 77.1516 66.7344 77.1516C66.6094 77.1517 66.4843 77.1523 66.3593 77.1533C66.1851 77.1546 66.0109 77.1543 65.8367 77.1535C65.7856 77.1542 65.7345 77.155 65.6819 77.1557C65.3392 77.1517 65.1454 77.0722 64.8809 76.8541C64.7093 76.6252 64.7367 76.3994 64.749 76.1202C64.9226 75.4643 65.2197 74.8315 65.483 74.2077C65.5999 73.9305 65.7159 73.6529 65.832 73.3754C65.8565 73.3168 65.881 73.2582 65.9063 73.1978C66.1937 72.5097 66.4753 71.8191 66.7567 71.1284C66.8098 70.9982 66.8629 70.868 66.916 70.7379C66.9954 70.5431 67.0747 70.3483 67.1541 70.1535C67.4235 69.4926 67.694 68.8321 67.9647 68.1717C67.9878 68.1152 68.011 68.0588 68.0348 68.0006C68.3739 67.1736 68.7142 66.3472 69.055 65.5209C69.4483 64.5671 69.8383 63.612 70.2281 62.6567C70.5383 61.8964 70.8487 61.1363 71.1621 60.3773C71.332 59.9659 71.501 59.554 71.6697 59.1421C71.693 59.0851 71.7164 59.0281 71.7404 58.9694C71.7888 58.8512 71.8373 58.7329 71.8857 58.6146C71.9101 58.5551 71.9345 58.4955 71.9596 58.4342C71.9839 58.3747 72.0083 58.3152 72.0334 58.2539C72.3422 57.5 72.6526 56.7468 72.9655 55.9946C73.3001 55.1902 73.6283 54.3832 73.955 53.5754C74.3306 52.6468 74.7108 51.7202 75.0928 50.7943C75.5347 49.7234 75.9746 48.6518 76.4121 47.579C76.8862 46.4165 77.3615 45.2545 77.8419 44.0947C77.951 43.8306 78.0588 43.5661 78.1654 43.3009C78.2148 43.178 78.2647 43.0553 78.3146 42.9325C78.374 42.7863 78.4328 42.6398 78.4908 42.493C78.691 42.0041 78.93 41.5788 79.3928 41.3028C79.454 41.265 79.454 41.265 79.5165 41.2265C79.8742 41.0489 80.1988 41.0038 80.5932 41.0051Z" fill="#191919"/>
</g>
</g>
<defs>
<clipPath id="clip0_2377_7854">
<rect width="100" height="100" fill="white" transform="translate(0.830811 0.197998)"/>
</clipPath>
<clipPath id="clip1_2377_7854">
<rect width="100" height="53.8462" fill="white" transform="translate(0.830811 23.2749)"/>
</clipPath>
</defs>
</svg>
