<svg width="101" height="101" viewBox="0 0 101 101" fill="none" xmlns="http://www.w3.org/2000/svg">
<g clip-path="url(#clip0_2377_7864)">
<g clip-path="url(#clip1_2377_7864)">
<path d="M26.96 23.1944C27.0872 23.1943 27.2143 23.1942 27.3414 23.194C27.6913 23.1937 28.0413 23.1938 28.3912 23.194C28.7717 23.1941 29.1521 23.1938 29.5326 23.1936C30.1996 23.1932 30.8666 23.1931 31.5336 23.1932C32.2492 23.1933 32.9648 23.1932 33.6803 23.193C33.7256 23.1929 33.7708 23.1929 33.8174 23.1929C34.0015 23.1928 34.1857 23.1928 34.3698 23.1927C36.2903 23.192 38.2109 23.1918 40.1314 23.1918C40.3381 23.1918 40.5447 23.1918 40.7514 23.1918C40.8027 23.1918 40.854 23.1918 40.9068 23.1918C42.0432 23.1918 43.1797 23.1916 44.3161 23.1914C44.784 23.1914 45.2519 23.1913 45.7198 23.1912C45.7715 23.1912 45.8232 23.1912 45.8765 23.1912C48.8387 23.1908 51.8009 23.1905 54.7631 23.1905C54.874 23.1906 54.9848 23.1906 55.0957 23.1906C55.5961 23.1906 56.0966 23.1906 56.597 23.1906C56.8202 23.1906 57.0433 23.1906 57.2665 23.1906C57.3782 23.1906 57.4899 23.1906 57.6016 23.1906C61.1355 23.1906 64.6695 23.1901 68.2034 23.1892C69.0942 23.189 69.985 23.1887 70.8757 23.1885C70.958 23.1885 70.958 23.1885 71.0419 23.1885C72.7315 23.1881 74.4211 23.1878 76.1107 23.1877C76.1637 23.1877 76.2168 23.1877 76.2714 23.1877C77.4352 23.1877 78.599 23.1877 79.7628 23.1877C80.1792 23.1877 80.5956 23.1877 81.0119 23.1877C81.1155 23.1877 81.2191 23.1877 81.3227 23.1877C82.9749 23.1877 84.6271 23.1873 86.2793 23.1867C87.9425 23.1862 89.6057 23.186 91.2689 23.1865C91.4984 23.1865 91.728 23.1866 91.9575 23.1866C92.0025 23.1866 92.0475 23.1867 92.0939 23.1867C92.7642 23.1868 93.4345 23.1866 94.1048 23.1861C94.8497 23.1856 95.5946 23.1856 96.3394 23.1861C96.7149 23.1864 97.0903 23.1864 97.4658 23.1859C97.8067 23.1854 98.1477 23.1855 98.4886 23.1862C98.6118 23.1863 98.7349 23.1862 98.858 23.1858C99.0243 23.1854 99.1905 23.1857 99.3568 23.1863C99.429 23.1858 99.429 23.1858 99.5026 23.1853C99.7434 23.1871 99.9263 23.1969 100.128 23.3364C100.32 23.5658 100.36 23.7786 100.355 24.0766C100.287 24.526 100.072 24.945 99.893 25.359C99.8481 25.4651 99.8032 25.5712 99.7585 25.6774C99.6653 25.8984 99.5716 26.1192 99.4775 26.3398C99.2754 26.8153 99.0796 27.2935 98.8836 27.7716C98.8214 27.9229 98.7591 28.074 98.6966 28.225C98.5114 28.6729 98.3278 29.1211 98.1499 29.5719C98.1202 29.6465 98.0904 29.7211 98.0598 29.798C98.0059 29.9335 97.9528 30.0693 97.9005 30.2055C97.7697 30.5326 97.6691 30.7553 97.3576 30.9429C97.1304 31.0195 96.9561 31.018 96.7164 31.018C96.648 31.0182 96.648 31.0182 96.5782 31.0183C96.424 31.0186 96.2697 31.0184 96.1155 31.0181C96.0039 31.0182 95.8923 31.0183 95.7807 31.0185C95.4717 31.0188 95.1627 31.0187 94.8538 31.0185C94.5185 31.0183 94.1832 31.0186 93.8479 31.0188C93.2594 31.0192 92.671 31.0192 92.0826 31.0192C91.2075 31.0191 90.3323 31.0193 89.4572 31.0197C88.3445 31.0202 87.2317 31.0205 86.119 31.0207C86.0748 31.0207 86.0306 31.0207 85.9851 31.0207C85.8056 31.0208 85.6262 31.0208 85.4467 31.0208C83.253 31.0212 81.0592 31.0221 78.8654 31.0234C78.3521 31.0237 77.8387 31.024 77.3253 31.0243C77.2313 31.0243 77.1372 31.0244 77.0432 31.0244C76.8545 31.0245 76.6658 31.0246 76.4771 31.0248C76.2878 31.0249 76.0984 31.025 75.909 31.0251C73.7236 31.0263 71.5382 31.0274 69.3528 31.0284C69.2046 31.0285 69.0564 31.0286 68.9083 31.0287C66.6278 31.0297 64.3473 31.0306 62.0668 31.031C61.9933 31.031 61.9933 31.031 61.9183 31.031C61.1285 31.0312 60.3386 31.0313 59.5487 31.0314C57.2719 31.0318 54.9952 31.0323 52.7184 31.0337C52.6715 31.0337 52.6246 31.0338 52.5763 31.0338C51.5932 31.0344 50.6101 31.0351 49.627 31.0358C49.1665 31.0361 48.706 31.0365 48.2455 31.0368C48.1775 31.0369 48.1775 31.0369 48.1081 31.0369C46.6505 31.0379 45.1929 31.0381 43.7353 31.0378C42.2246 31.0375 40.714 31.0381 39.2033 31.0398C38.3332 31.0407 37.4632 31.0409 36.5932 31.0401C36.011 31.0395 35.4287 31.04 34.8464 31.0413C34.5154 31.0419 34.1843 31.0422 33.8533 31.0413C29.9689 31.0312 26.3175 31.8238 23.473 34.6808C21.6725 36.5522 20.5909 39.0453 20.2468 41.6187C20.2406 41.6618 20.2345 41.7048 20.2282 41.7492C19.8335 44.8207 20.5812 48.1834 22.4524 50.6515C22.651 50.9066 22.651 50.9066 22.8711 51.142C22.9512 51.227 22.9512 51.227 22.9512 51.3604C22.9948 51.3604 23.0383 51.3604 23.0832 51.3604C23.1669 51.449 23.1669 51.449 23.2687 51.5773C23.4916 51.8431 23.7328 52.0799 23.986 52.3154C24.0413 52.367 24.0413 52.367 24.0977 52.4196C24.2474 52.5578 24.396 52.6902 24.5604 52.8104C24.5953 52.8383 24.6303 52.8663 24.6663 52.8951C24.6663 52.9391 24.6663 52.9831 24.6663 53.0285C24.702 53.0427 24.7377 53.0569 24.7745 53.0715C24.9864 53.1947 25.1416 53.3648 25.3094 53.5415C25.5742 53.8151 25.8427 54.0762 26.1311 54.3247C26.2934 54.4688 26.4426 54.6245 26.5939 54.7803C26.7155 54.9011 26.8416 55.0138 26.9709 55.1261C27.1561 55.2875 27.3312 55.4545 27.5027 55.6307C27.6702 55.8028 27.8407 55.9658 28.0222 56.1228C28.3019 56.3654 28.558 56.6293 28.8153 56.8959C28.9427 57.0347 28.9427 57.0347 29.0858 57.0987C29.0858 57.1427 29.0858 57.1867 29.0858 57.2321C29.1225 57.2473 29.1591 57.2624 29.1969 57.278C29.3935 57.3907 29.5269 57.5347 29.6836 57.6992C29.8546 57.8781 30.0022 58.028 30.2072 58.1662C30.2072 58.2103 30.2072 58.2543 30.2072 58.2997C30.2449 58.316 30.2827 58.3322 30.3216 58.349C30.4977 58.4482 30.6121 58.5653 30.7514 58.7126C30.938 58.9059 31.1254 59.0917 31.3286 59.2672C31.5733 59.4794 31.7989 59.7067 32.0232 59.9407C32.2011 60.1161 32.3868 60.2796 32.5743 60.4442C32.799 60.6442 33.0159 60.8523 33.2332 61.0604C33.5901 61.4012 33.9501 61.736 34.3216 62.0605C34.4288 62.1697 34.4288 62.1697 34.4288 62.3031C34.4851 62.3271 34.4851 62.3271 34.5424 62.3516C34.7232 62.4538 34.8422 62.5774 34.9854 62.7285C35.1395 62.889 35.2814 63.0334 35.4595 63.1664C36.0027 63.6436 36.2583 64.2946 36.3667 65.0015C36.3964 65.5425 36.1948 66.0608 35.8511 66.4692C35.7741 66.5497 35.6959 66.6292 35.6161 66.7069C35.5672 66.7564 35.5182 66.806 35.4677 66.857C34.7527 67.3173 34.0104 67.2787 33.194 67.275C33.0543 67.2754 32.9147 67.2759 32.775 67.2764C32.3924 67.2777 32.0097 67.2773 31.627 67.2766C31.214 67.2761 30.8009 67.2772 30.3878 67.278C29.6258 67.2794 28.8638 67.2795 28.1018 67.279C27.398 67.2785 26.6941 67.2785 25.9903 67.279C25.8959 67.2791 25.8014 67.2791 25.7069 67.2792C25.5646 67.2793 25.4222 67.2794 25.2799 67.2795C23.957 67.2803 22.6341 67.2807 21.3113 67.2799C21.2365 67.2799 21.2365 67.2799 21.1602 67.2798C20.7555 67.2796 20.3508 67.2793 19.9461 67.2791C18.3664 67.2781 16.7868 67.2787 15.2071 67.2805C13.4319 67.2826 11.6567 67.2836 9.88146 67.2829C9.69228 67.2829 9.50309 67.2828 9.31392 67.2827C9.26733 67.2827 9.22075 67.2827 9.17276 67.2827C8.46916 67.2825 7.76556 67.2831 7.06196 67.2841C6.26224 67.2853 5.46253 67.2853 4.66282 67.2838C4.25463 67.283 3.84646 67.2828 3.43828 67.2841C3.06489 67.2852 2.69154 67.2848 2.31816 67.2831C2.18283 67.2828 2.0475 67.283 1.91217 67.2839C1.72867 67.2849 1.54528 67.284 1.36177 67.2825C1.30884 67.2833 1.2559 67.2841 1.20136 67.2849C0.82274 67.2786 0.656533 67.1819 0.391876 66.9071C0.246221 66.6124 0.287446 66.2416 0.375256 65.9329C0.44685 65.7474 0.524899 65.5663 0.606256 65.3849C0.667733 65.242 0.729141 65.099 0.790489 64.9559C0.822747 64.8817 0.855006 64.8075 0.888241 64.7311C1.04836 64.3591 1.20003 63.9837 1.35246 63.6084C1.41942 63.4445 1.48641 63.2807 1.55344 63.1168C1.58939 63.0289 1.62533 62.941 1.66128 62.8531C2.34003 61.1937 3.02095 59.5352 3.70429 57.8777C3.95864 57.2608 4.21274 56.6438 4.46687 56.0267C4.52872 55.8766 4.59057 55.7264 4.65242 55.5763C4.68196 55.5046 4.68196 55.5046 4.7121 55.4314C4.82355 55.1608 4.93507 54.8902 5.04665 54.6197C5.38844 53.7909 5.72881 52.9615 6.06882 52.1319C6.09267 52.0737 6.11652 52.0155 6.14109 51.9556C6.38666 51.3564 6.63216 50.7572 6.87749 50.158C6.99681 49.8665 7.11617 49.5751 7.23554 49.2836C7.2591 49.2261 7.28265 49.1686 7.30692 49.1094C7.60294 48.3869 7.90051 47.6651 8.20025 46.9441C8.57578 46.0408 8.94564 45.1351 9.31501 44.2292C9.75491 43.1504 10.1975 42.0728 10.6416 40.9958C11.0287 40.0571 11.4147 39.118 11.7994 38.1783C12.1513 37.3187 12.5051 36.4601 12.8617 35.6025C13.0899 35.0532 13.3158 34.503 13.5407 33.9524C13.733 33.4818 13.9259 33.0115 14.1194 32.5414C14.2169 32.3044 14.3143 32.0674 14.4103 31.8298C15.1678 29.9594 16.1993 28.4291 17.6082 27.0062C17.6487 26.9622 17.6892 26.9181 17.7309 26.8728C18.5245 26.0236 19.5102 25.3761 20.5106 24.8043C20.5741 24.7679 20.5741 24.7679 20.6389 24.7307C22.5811 23.6358 24.758 23.1917 26.96 23.1944Z" fill="#E4E4E4"/>
<path d="M32.6258 40.926C32.6867 40.9257 32.7476 40.9254 32.8104 40.925C33.0136 40.9243 33.2168 40.9249 33.4201 40.9255C33.5676 40.9252 33.7152 40.9249 33.8627 40.9244C34.2674 40.9234 34.6722 40.9237 35.0769 40.9242C35.4688 40.9245 35.8607 40.9238 36.2525 40.9232C37.1032 40.9219 37.9539 40.9218 38.8046 40.9221C39.5488 40.9224 40.2931 40.9224 41.0373 40.922C41.1372 40.9219 41.237 40.9219 41.3369 40.9218C41.4874 40.9218 41.6378 40.9217 41.7883 40.9216C43.1868 40.9209 44.5854 40.9206 45.9839 40.9211C46.0366 40.9211 46.0893 40.9211 46.1436 40.9212C46.5716 40.9213 46.9996 40.9215 47.4275 40.9217C49.098 40.9223 50.7684 40.9218 52.4389 40.9202C54.3157 40.9185 56.1925 40.9176 58.0693 40.9181C58.2693 40.9182 58.4693 40.9182 58.6692 40.9183C58.7185 40.9183 58.7677 40.9183 58.8185 40.9183C59.5625 40.9184 60.3066 40.9179 61.0506 40.917C61.8962 40.916 62.7419 40.916 63.5875 40.9172C64.0192 40.9178 64.4509 40.9179 64.8826 40.9169C65.2773 40.9159 65.6721 40.9162 66.0669 40.9175C66.2101 40.9178 66.3533 40.9176 66.4964 40.9169C66.6904 40.916 66.8842 40.9168 67.0782 40.918C67.1344 40.9173 67.1906 40.9167 67.2485 40.916C67.5138 40.9194 67.6423 40.9306 67.871 41.0793C68.0681 41.2851 68.1288 41.4015 68.1535 41.689C68.1314 42.0203 68.03 42.2705 67.9012 42.5731C67.8765 42.6331 67.8517 42.6931 67.8262 42.7549C67.7447 42.952 67.662 43.1485 67.5794 43.3451C67.522 43.4832 67.4648 43.6213 67.4076 43.7595C67.2902 44.0427 67.1725 44.3258 67.0544 44.6088C66.8251 45.1589 66.5998 45.7107 66.3744 46.2624C66.2597 46.5431 66.1446 46.8236 66.0295 47.104C65.996 47.1858 65.996 47.1858 65.9618 47.2691C65.7031 47.8992 65.4436 48.5289 65.184 49.1586C64.8126 50.0595 64.4431 50.9613 64.0746 51.8634C63.2977 53.765 62.5207 55.6666 61.7375 57.5656C61.0775 59.1665 60.4205 60.7686 59.771 62.3739C59.1831 63.8267 58.5851 65.2753 57.9872 66.7239C57.7929 67.1949 57.5987 67.666 57.4046 68.1372C57.385 68.1846 57.3655 68.2321 57.3454 68.281C56.7193 69.8006 56.0964 71.3215 55.4745 72.8429C55.1989 73.5167 54.9233 74.1904 54.6465 74.8638C54.6072 74.9597 54.6072 74.9597 54.567 75.0576C54.4497 75.3428 54.3312 75.6274 54.2095 75.9108C54.1896 75.9572 54.1697 76.0036 54.1492 76.0514C53.9147 76.5331 53.5234 76.8225 53.0305 77.0111C52.545 77.1505 52.0061 77.1001 51.5068 77.0944C51.3669 77.0943 51.2271 77.0944 51.0872 77.0946C50.7096 77.0947 50.3321 77.0924 49.9545 77.0896C49.5591 77.0871 49.1637 77.0868 48.7684 77.0864C48.0206 77.0851 47.2728 77.0818 46.525 77.0778C45.6734 77.0733 44.8217 77.0711 43.97 77.0691C42.2188 77.0649 40.4676 77.0579 38.7164 77.049C38.7069 76.8902 38.7069 76.8902 38.7164 76.7154C38.8487 76.6033 38.9616 76.5301 39.1122 76.4485C40.269 75.8198 41.256 75.0921 42.2125 74.1799C42.29 74.1068 42.29 74.1068 42.3691 74.0323C44.5274 71.9349 46.0562 68.5835 46.1177 65.5503C46.1356 64.0489 46.1356 64.0489 45.9064 62.5699C45.8868 62.4875 45.8868 62.4875 45.8667 62.4035C45.3222 60.1968 44.2817 58.2712 42.8061 56.5648C42.7493 56.4948 42.6927 56.4248 42.6361 56.3547C42.5038 56.1972 42.376 56.0638 42.2207 55.9309C42.1536 55.8727 42.1536 55.8727 42.0852 55.8133C41.9945 55.7363 41.9034 55.6597 41.8121 55.5834C41.7701 55.5481 41.7281 55.5127 41.6848 55.4763C41.6467 55.4449 41.6086 55.4135 41.5693 55.3812C41.4869 55.297 41.4869 55.297 41.4869 55.1636C41.4282 55.1371 41.4282 55.1371 41.3684 55.1101C41.2177 55.0272 41.1258 54.9431 41.0087 54.8174C40.847 54.6487 40.6823 54.4905 40.5057 54.3378C40.2585 54.1226 40.0298 53.8928 39.8028 53.656C39.6253 53.481 39.44 53.318 39.2529 53.1537C39.0206 52.9467 38.7967 52.731 38.5721 52.5154C38.2358 52.1938 37.8987 51.8731 37.558 51.5563C37.2416 51.262 36.9273 50.9656 36.6139 50.668C36.5699 50.6263 36.526 50.5846 36.4807 50.5417C36.3004 50.3705 36.1201 50.1993 35.9399 50.028C35.806 49.9007 35.6719 49.7735 35.5378 49.6463C35.4975 49.6079 35.4572 49.5694 35.4156 49.5298C35.2463 49.3695 35.079 49.2177 34.8955 49.0737C34.8503 49.0356 34.8052 48.9975 34.7587 48.9582C34.7587 48.9142 34.7587 48.8702 34.7587 48.8248C34.7229 48.8106 34.6872 48.7964 34.6504 48.7818C34.4386 48.6587 34.2832 48.4886 34.1155 48.3118C33.8579 48.042 33.5922 47.7894 33.3116 47.5441C33.0833 47.3418 32.8639 47.1302 32.6437 46.919C32.5456 46.8252 32.4474 46.7315 32.3492 46.6378C32.2756 46.5675 32.2756 46.5675 32.2006 46.4957C31.9736 46.2791 31.7461 46.063 31.5182 45.8472C31.4793 45.8102 31.4403 45.7732 31.4002 45.735C31.2114 45.5564 31.0203 45.3839 30.821 45.2173C30.3278 44.7926 29.9994 44.1617 29.9227 43.5124C29.8927 42.8419 30.109 42.2684 30.5342 41.7567C31.1268 41.1493 31.7945 40.9192 32.6258 40.926Z" fill="#E4E4E4"/>
<path d="M80.0883 40.9331C80.1684 40.9326 80.1684 40.9326 80.2501 40.932C80.4284 40.9311 80.6068 40.931 80.7851 40.931C80.9132 40.9304 81.0413 40.9299 81.1694 40.9293C81.5169 40.9278 81.8644 40.9272 82.212 40.9269C82.4291 40.9266 82.6462 40.9262 82.8634 40.9257C83.6208 40.9241 84.3783 40.9232 85.1358 40.923C85.8419 40.9228 86.5481 40.9208 87.2542 40.918C87.8606 40.9157 88.467 40.9146 89.0733 40.9146C89.4355 40.9145 89.7976 40.9139 90.1597 40.912C90.5002 40.9103 90.8406 40.9102 91.181 40.9112C91.306 40.9113 91.4309 40.9109 91.5558 40.9098C91.7264 40.9085 91.8969 40.9092 92.0675 40.9104C92.1169 40.9095 92.1663 40.9086 92.2171 40.9077C92.595 40.9138 92.7486 41.023 93.004 41.285C93.1325 41.5449 93.1056 41.8324 93.0249 42.104C92.9564 42.2795 92.8824 42.4515 92.8061 42.6237C92.7454 42.7657 92.6849 42.9077 92.6245 43.0498C92.5906 43.1289 92.5568 43.208 92.5219 43.2894C92.3267 43.749 92.142 44.2131 91.9554 44.6763C91.639 45.4607 91.3205 46.244 90.9921 47.0233C90.7016 47.7131 90.4193 48.4061 90.1387 49.1001C89.7357 50.0969 89.3284 51.092 88.9184 52.0859C88.8906 52.1534 88.8628 52.2209 88.8341 52.2904C88.8062 52.3579 88.7784 52.4253 88.7497 52.4949C88.6938 52.6305 88.6379 52.7661 88.5819 52.9017C88.5544 52.9685 88.5269 53.0352 88.4985 53.104C88.2224 53.7734 87.9478 54.4434 87.6734 55.1135C87.2008 56.2673 86.7265 57.4203 86.2512 58.5729C86.0718 59.008 85.8926 59.4432 85.7134 59.8784C85.5896 60.1791 85.4656 60.4798 85.3415 60.7804C84.9446 61.7416 84.5517 62.7044 84.159 63.6673C83.8442 64.439 83.5285 65.2104 83.2108 65.9809C83.1664 66.0887 83.1664 66.0887 83.121 66.1987C82.9782 66.545 82.8353 66.8911 82.6923 67.2372C82.6399 67.3641 82.5876 67.4909 82.5352 67.6178C82.5103 67.6781 82.4854 67.7384 82.4597 67.8005C82.3143 68.1537 82.1729 68.5083 82.0343 68.8644C81.8958 69.2167 81.7471 69.5559 81.5677 69.8887C81.5425 69.936 81.5173 69.9833 81.4914 70.032C81.2636 70.4534 81.0111 70.8533 80.7349 71.244C80.6889 71.3097 80.6429 71.3753 80.5955 71.4429C80.2822 71.878 79.9436 72.2749 79.5792 72.6658C79.4154 72.8413 79.4154 72.8413 79.2765 73.0224C79.0853 73.2625 78.8559 73.4472 78.6241 73.6461C78.5613 73.7021 78.4986 73.7581 78.4339 73.8158C77.9125 74.278 77.3675 74.6798 76.7771 75.0473C76.7332 75.0747 76.6893 75.1021 76.644 75.1304C74.38 76.5225 71.8332 77.0693 69.2112 77.0714C69.0836 77.0719 68.956 77.0723 68.8284 77.0728C68.5635 77.0736 68.2986 77.0738 68.0337 77.0737C67.6947 77.0737 67.3557 77.0756 67.0168 77.0778C66.7544 77.0793 66.492 77.0796 66.2296 77.0795C66.1045 77.0797 65.9795 77.0803 65.8544 77.0813C65.6802 77.0826 65.506 77.0822 65.3318 77.0814C65.2807 77.0822 65.2296 77.0829 65.177 77.0837C64.8344 77.0797 64.6405 77.0002 64.376 76.7821C64.2044 76.5532 64.2318 76.3274 64.2441 76.0482C64.4178 75.3923 64.7148 74.7594 64.9781 74.1357C65.0951 73.8585 65.211 73.5809 65.3271 73.3034C65.3516 73.2448 65.3761 73.1862 65.4014 73.1258C65.6889 72.4377 65.9704 71.7471 66.2519 71.0564C66.3049 70.9262 66.358 70.796 66.4111 70.6658C66.4905 70.4711 66.5699 70.2763 66.6492 70.0815C66.9186 69.4206 67.1891 68.7601 67.4598 68.0997C67.483 68.0432 67.5061 67.9867 67.5299 67.9286C67.869 67.1016 68.2093 66.2751 68.5501 65.4489C68.9434 64.4951 69.3334 63.5399 69.7232 62.5846C70.0334 61.8244 70.3438 61.0642 70.6572 60.3053C70.8271 59.8938 70.9961 59.482 71.1648 59.0701C71.1882 59.0131 71.2115 58.9561 71.2355 58.8974C71.284 58.7791 71.3324 58.6608 71.3808 58.5426C71.4052 58.483 71.4296 58.4235 71.4547 58.3622C71.4791 58.3027 71.5034 58.2432 71.5285 58.1819C71.8373 57.4279 72.1477 56.6747 72.4606 55.9226C72.7953 55.1181 73.1234 54.3111 73.4501 53.5034C73.8257 52.5748 74.2059 51.6482 74.5879 50.7223C75.0298 49.6514 75.4698 48.5798 75.9072 47.507C76.3814 46.3445 76.8566 45.1825 77.337 44.0226C77.4461 43.7586 77.554 43.494 77.6605 43.2289C77.7099 43.106 77.7598 42.9832 77.8097 42.8605C77.8691 42.7143 77.928 42.5678 77.9859 42.421C78.1861 41.9321 78.4251 41.5068 78.8879 41.2308C78.9491 41.193 78.9491 41.193 79.0116 41.1544C79.3693 40.9769 79.6939 40.9318 80.0883 40.9331Z" fill="#E4E4E4"/>
</g>
</g>
<defs>
<clipPath id="clip0_2377_7864">
<rect width="100" height="100" fill="white" transform="translate(0.325928 0.125977)"/>
</clipPath>
<clipPath id="clip1_2377_7864">
<rect width="100" height="53.8462" fill="white" transform="translate(0.325928 23.2029)"/>
</clipPath>
</defs>
</svg>
