<svg width="101" height="101" viewBox="0 0 101 101" fill="none" xmlns="http://www.w3.org/2000/svg">
<g clip-path="url(#clip0_2336_10634)">
<path d="M28.9567 41.793C28.9567 43.0328 29.0901 44.0379 29.3228 44.775C29.6182 45.6043 29.9739 46.4105 30.3869 47.1871C30.5532 47.4551 30.6195 47.723 30.6195 47.9578C30.6195 48.2926 30.4202 48.6277 29.9878 48.9629L27.8927 50.3699C27.5933 50.5711 27.294 50.6714 27.0275 50.6714C26.6952 50.6714 26.3625 50.5039 26.0298 50.2023C25.5813 49.7175 25.1804 49.1902 24.8327 48.6277C24.5 48.0586 24.1673 47.4215 23.8016 46.6512C21.2071 49.7332 17.9477 51.2743 14.0234 51.2746C11.2299 51.2746 9.00131 50.4703 7.37148 48.8625C5.74204 47.2539 4.91064 45.1098 4.91064 42.4297C4.91064 39.5821 5.9084 37.2704 7.93725 35.5282C9.96571 33.786 12.66 32.9149 16.0856 32.9149C17.2164 32.9149 18.3805 33.0153 19.6109 33.1829C20.8417 33.3505 22.1055 33.6184 23.436 33.92V31.4743C23.436 28.9278 22.9035 27.1524 21.8724 26.1138C20.8084 25.0751 19.0122 24.5724 16.4513 24.5724C15.2872 24.5724 14.0901 24.7068 12.8593 25.0083C11.6285 25.3099 10.4314 25.6782 9.26733 26.1474C8.7353 26.3817 8.33627 26.5157 8.10322 26.5829C7.87016 26.6501 7.70419 26.6833 7.57119 26.6833C7.10546 26.6833 6.8728 26.3482 6.8728 25.6446V24.0029C6.8728 23.4669 6.9395 23.065 7.10546 22.8306C7.27182 22.5958 7.57119 22.3615 8.03691 22.1271C9.20089 21.5237 10.5977 21.0211 12.2272 20.6193C13.8575 20.1837 15.5869 19.983 17.4161 19.983C21.3741 19.983 24.2677 20.8872 26.1302 22.6966C27.9594 24.5056 28.8908 27.2528 28.8908 30.9384V41.793H28.9567ZM15.4535 46.8855C16.5513 46.8855 17.6821 46.6848 18.8792 46.2824C20.0766 45.8805 21.1411 45.1434 22.0388 44.1383C22.5712 43.502 22.9702 42.7984 23.1695 41.9942C23.3693 41.1903 23.5023 40.2184 23.5023 39.0793V37.6723C22.4936 37.4252 21.472 37.235 20.4423 37.1028C19.4054 36.9702 18.3613 36.9031 17.316 36.9016C15.0875 36.9016 13.458 37.3371 12.3606 38.2418C11.2632 39.1465 10.7308 40.4196 10.7308 42.0945C10.7308 43.6691 11.1298 44.8418 11.9612 45.6461C12.7597 46.4836 13.9238 46.8855 15.4535 46.8855ZM42.1606 50.5039C41.5619 50.5039 41.1628 50.4035 40.8968 50.1687C40.6308 49.9679 40.3977 49.4988 40.1984 48.8625L32.3828 22.9646C32.1827 22.2943 32.083 21.8587 32.083 21.6244C32.083 21.0884 32.349 20.7865 32.8814 20.7865H36.1407C36.7724 20.7865 37.2052 20.8872 37.4378 21.1216C37.7038 21.3228 37.9036 21.7919 38.1029 22.4283L43.6904 44.6074L48.8788 22.4283C49.0452 21.7583 49.2449 21.3228 49.5105 21.1216C49.7769 20.9208 50.2426 20.7869 50.8414 20.7869H53.5019C54.1336 20.7869 54.5664 20.8872 54.832 21.1216C55.0984 21.3228 55.3311 21.7919 55.4641 22.4283L60.7192 44.8754L66.4727 22.4283C66.672 21.7583 66.9051 21.3228 67.1377 21.1216C67.4037 20.9208 67.8361 20.7869 68.4348 20.7869H71.5278C72.0602 20.7869 72.3596 21.0548 72.3596 21.6244C72.3596 21.7919 72.3262 21.9595 72.2928 22.1603C72.2595 22.3611 72.1932 22.6294 72.0602 22.9982L64.0444 48.8957C63.8451 49.566 63.6123 50.0015 63.346 50.2023C63.08 50.4035 62.6477 50.5375 62.0827 50.5375H59.2224C58.5903 50.5375 58.158 50.4371 57.8916 50.2023C57.6255 49.9679 57.3929 49.5324 57.2599 48.8625L52.1044 27.2528L46.9826 48.8285C46.8166 49.4988 46.6169 49.9343 46.3509 50.1687C46.0849 50.4035 45.6192 50.5039 45.0208 50.5039H42.1606ZM84.8983 51.4086C83.1689 51.4086 81.4394 51.2074 79.7766 50.8054C78.1134 50.4035 76.8167 49.9675 75.9519 49.4656C75.4195 49.1636 75.0534 48.8289 74.9208 48.5273C74.7915 48.2315 74.7235 47.9122 74.7211 47.589V45.8805C74.7211 45.1769 74.9871 44.8418 75.4862 44.8418C75.6899 44.8426 75.8921 44.8766 76.0849 44.9426C76.2842 45.0098 76.5836 45.1434 76.9163 45.2773C78.0909 45.7981 79.3173 46.1912 80.5746 46.45C81.8774 46.7161 83.2033 46.8507 84.5327 46.8519C86.6278 46.8519 88.2577 46.4836 89.3884 45.7465C90.5192 45.0094 91.1179 43.9375 91.1179 42.5637C91.1179 41.6258 90.8186 40.8551 90.2198 40.2184C89.6211 39.5817 88.4903 39.0125 86.8609 38.4762L82.0381 36.9688C79.6102 36.1981 77.8144 35.059 76.7166 33.5512C75.6192 32.077 75.0538 30.4356 75.0538 28.6935C75.0538 27.2864 75.3532 26.0467 75.9519 24.9743C76.5503 23.9025 77.3487 22.9646 78.3465 22.2275C79.3442 21.4568 80.475 20.8872 81.8054 20.4853C83.1355 20.0833 84.5323 19.9158 85.9958 19.9158C86.7275 19.9158 87.4926 19.9494 88.2243 20.0498C88.9894 20.1501 89.6878 20.2841 90.3862 20.4181C91.0512 20.5857 91.6833 20.7533 92.282 20.9544C92.8805 21.1552 93.3461 21.3561 93.6788 21.5572C94.1445 21.8255 94.4768 22.0935 94.6766 22.3951C94.8761 22.663 94.9759 23.0315 94.9759 23.5005V25.0751C94.9759 25.7786 94.7099 26.1474 94.2108 26.1474C93.9448 26.1474 93.5124 26.013 92.9475 25.745C91.0511 24.8739 88.9224 24.4384 86.5615 24.4384C84.6657 24.4384 83.1689 24.74 82.1378 25.3767C81.107 26.013 80.5746 26.9849 80.5746 28.3583C80.5746 29.2966 80.9073 30.1005 81.5724 30.7372C82.2374 31.3739 83.4682 32.0102 85.2311 32.5798L89.9538 34.0876C92.3483 34.8583 94.0778 35.9301 95.1089 37.3036C96.14 38.677 96.6391 40.252 96.6391 41.9942C96.6391 43.4348 96.3393 44.7414 95.774 45.8805C95.1756 47.0195 94.3772 48.0246 93.3461 48.8289C92.315 49.6664 91.0846 50.2695 89.6544 50.705C88.1576 51.1742 86.5945 51.4086 84.8983 51.4086Z" fill="#E4E4E4"/>
<path d="M91.1847 67.6904C80.2428 75.8318 64.3447 80.1536 50.6755 80.1536C31.5181 80.1536 14.257 73.0173 1.21948 61.1573C0.188377 60.2194 1.11943 58.9463 2.34985 59.6831C16.4518 67.9252 33.8463 72.917 51.8396 72.917C63.979 72.917 77.3158 70.3709 89.5886 65.1444C91.4178 64.3065 92.9809 66.3506 91.1847 67.6904ZM95.7415 62.4639C94.3447 60.6549 86.4953 61.5928 82.9367 62.0283C81.8722 62.1627 81.7059 61.2244 82.6707 60.5209C88.9232 56.0983 99.2005 57.3717 100.398 58.8456C101.595 60.3534 100.065 70.7056 94.2113 75.6642C93.3136 76.4349 92.4489 76.033 92.8479 75.0279C94.178 71.7107 97.1383 64.2397 95.7415 62.4639Z" fill="#E4E4E4"/>
</g>
<defs>
<clipPath id="clip0_2336_10634">
<rect width="100" height="100" fill="white" transform="translate(0.776367 0.034668)"/>
</clipPath>
</defs>
</svg>
