<svg width="101" height="101" viewBox="0 0 101 101" fill="none" xmlns="http://www.w3.org/2000/svg">
<g clip-path="url(#clip0_2336_10811)">
<path d="M72.5016 60.0313C70.2817 59.889 68.9912 58.6262 68.6497 56.264C68.5586 55.6354 68.5586 55.6191 68.5489 51.5395L68.5399 47.5908H70.5045L70.5118 51.4102C70.5192 54.8523 70.5232 55.2565 70.5566 55.498C70.6899 56.4811 70.9558 57.1422 71.4096 57.6163C71.7722 57.996 72.1967 58.218 72.7846 58.3359C73.0611 58.392 73.8507 58.392 74.1036 58.3359C74.6709 58.2197 75.191 57.9379 75.5982 57.526C76.0787 57.0462 76.4341 56.3656 76.6065 55.5964L76.6634 55.337L76.6699 51.4859L76.6764 47.6331H78.6825V59.7443H76.6975V58.7831C76.6975 58.131 76.6902 57.8252 76.6748 57.8301C76.6299 57.8828 76.5919 57.941 76.5617 58.0033C76.1998 58.6462 75.6686 59.1775 75.0257 59.5394C74.2776 59.95 73.527 60.0964 72.5016 60.0313ZM95.0261 60.0216C94.2176 59.9546 93.436 59.6995 92.7436 59.2767C91.3222 58.3985 90.4814 56.9511 90.2358 54.9605C90.1504 54.2709 90.1399 53.3455 90.2114 52.7601C90.37 51.4509 90.8847 50.1661 91.6182 49.2497C91.8052 49.0139 92.2321 48.5886 92.4671 48.4007C93.1009 47.8944 93.8426 47.5408 94.635 47.3672C95.0952 47.2672 95.9052 47.22 96.3939 47.2648C97.6217 47.3786 98.7455 47.9559 99.5099 48.8642C100.287 49.7872 100.713 51.0768 100.769 52.6649C100.777 52.9882 100.779 53.3117 100.773 53.635L100.762 54.1522L96.4638 54.1571L92.1654 54.1628V54.3547C92.1654 54.9377 92.3069 55.6021 92.5525 56.168C92.7639 56.6551 93.129 57.1869 93.4266 57.4447C94.0383 57.9728 94.8008 58.2949 95.6059 58.3652C95.91 58.3936 96.6842 58.3635 97.0297 58.3107C98.0177 58.1586 98.9569 57.7716 99.714 57.2048C99.8034 57.1373 99.8888 57.0747 99.9043 57.0658C99.9262 57.0519 99.9319 57.2259 99.9311 57.9602V58.871L99.727 58.997C98.8497 59.5323 97.8673 59.8723 96.8468 59.9939C96.5362 60.0322 95.3977 60.0492 95.0261 60.0216ZM98.7667 52.3332C98.7667 51.3566 98.3544 50.271 97.7714 49.7124C97.3552 49.3138 96.8239 49.0566 96.2532 48.9773C95.9702 48.9334 95.3742 48.9504 95.0757 49.0098C94.4663 49.1265 93.9061 49.424 93.4681 49.8636C92.9868 50.3409 92.6224 50.9231 92.4037 51.5647C92.3224 51.8005 92.2281 52.1868 92.198 52.4015L92.1841 52.5039H98.7667V52.3332ZM40.4592 59.7166L43.7028 51.2053L46.9376 42.7208H49.016L49.1022 42.9404C49.3657 43.6161 55.5774 59.7256 55.5774 59.7337C55.5774 59.7394 55.0797 59.7435 54.4715 59.7435H53.3656L52.4711 57.3626L51.575 54.9816H44.3656L44.3347 55.0629C44.3176 55.1068 43.9346 56.1786 43.4841 57.4431L42.6661 59.7435H41.5577C40.6811 59.7435 40.4518 59.7386 40.4592 59.7166ZM50.9172 53.165C50.9172 53.161 50.3154 51.5298 49.5787 49.5383C48.2012 45.8157 48.124 45.5913 48.015 44.9936C47.9638 44.7139 47.9378 44.7057 47.9077 44.9611C47.8656 45.2383 47.8031 45.512 47.7207 45.7799C47.6841 45.893 47.0636 47.5933 46.3415 49.5595C45.8999 50.7561 45.4622 51.9542 45.0283 53.1536C45.0283 53.1634 46.3537 53.1715 47.9727 53.1715C49.5917 53.1715 50.9172 53.1683 50.9172 53.165ZM56.2458 59.4345V59.1239L59.8375 54.192L63.4292 49.2602L60.1766 49.2497L56.9256 49.2391L56.9199 48.4146L56.9142 47.5908H66.3208V48.147L62.7291 53.1057C60.7531 55.833 59.1366 58.0692 59.1366 58.0741C59.1366 58.0789 60.7336 58.0846 62.6852 58.0846H66.2346V59.7435H56.2458V59.4345ZM82.6011 59.7297C82.5929 59.7215 82.5872 56.9869 82.5872 53.6529V47.59H84.5502V48.8398C84.5502 49.5278 84.5583 50.0897 84.5681 50.0897C84.5787 50.0897 84.6266 49.9774 84.6746 49.84C84.902 49.1989 85.2779 48.6207 85.7716 48.1527C86.196 47.7412 86.7379 47.4721 87.3223 47.3827C87.4906 47.3558 87.6329 47.3501 87.9695 47.3591C88.3924 47.3705 88.6127 47.4014 88.8697 47.4851L88.951 47.5111V49.5473L88.7193 49.4318C88.3176 49.2283 87.8681 49.1383 87.419 49.1716C87.1027 49.1879 86.8954 49.2285 86.6425 49.3229C86.1293 49.5121 85.694 49.8673 85.4057 50.332C84.9655 51.0498 84.6854 51.8542 84.5844 52.6901C84.5681 52.8341 84.5592 54.0091 84.5551 56.3241L84.5494 59.7451H83.5826C83.0507 59.7451 82.6092 59.7378 82.6011 59.7297Z" fill="#E4E4E4"/>
<path d="M11.9526 34.2406H21.873L11.5749 64.7527C11.4692 65.0663 11.2677 65.3389 10.9988 65.5319C10.73 65.725 10.4073 65.8288 10.0763 65.8288H2.35606C2.10532 65.8287 1.85818 65.769 1.63508 65.6546C1.41198 65.5402 1.21931 65.3743 1.07301 65.1706C0.926644 64.967 0.830921 64.7315 0.793775 64.4835C0.756628 64.2355 0.779128 63.9823 0.859408 63.7447L10.454 35.3164C10.5599 35.0028 10.7614 34.7303 11.0302 34.5373C11.2991 34.3442 11.6216 34.2403 11.9526 34.2401V34.2406Z" fill="#E4E4E4"/>
<path d="M26.3682 54.7068H10.6377C10.4914 54.7064 10.3484 54.7502 10.2273 54.8323C10.1063 54.9145 10.0128 55.0312 9.95906 55.1673C9.90533 55.3034 9.89386 55.4525 9.92614 55.5952C9.95842 55.7378 10.033 55.8675 10.14 55.9672L20.2484 65.4023C20.5431 65.6764 20.9306 65.8289 21.3331 65.8292H30.2405L26.3682 54.7068Z" fill="#E4E4E4"/>
<path d="M11.9526 34.2401C11.618 34.2387 11.2916 34.3444 11.0214 34.5417C10.7511 34.7391 10.5511 35.0177 10.4506 35.3369L0.871321 63.7184C0.785863 63.9568 0.759067 64.2123 0.7932 64.4633C0.827333 64.7143 0.92139 64.9533 1.06742 65.1603C1.21345 65.3672 1.40716 65.5359 1.63217 65.6522C1.85719 65.7685 2.10689 65.8289 2.36017 65.8283H10.2799C10.5749 65.7756 10.8506 65.6456 11.0788 65.4515C11.3071 65.2574 11.4797 65.0062 11.579 64.7235L13.4892 59.0936L20.3129 65.4579C20.5988 65.6944 20.9574 65.8252 21.3285 65.8283H30.203L26.3107 54.7056L14.9644 54.7083L21.9088 34.2401H11.9526Z" fill="#E4E4E4"/>
<path d="M24.6238 35.3144C24.5181 35.0013 24.3168 34.7293 24.0483 34.5366C23.7798 34.3439 23.4577 34.2402 23.1272 34.2401H12.0713C12.4017 34.2402 12.7238 34.3439 12.9923 34.5366C13.2607 34.7294 13.4619 35.0014 13.5677 35.3144L23.1625 63.744C23.2429 63.9816 23.2654 64.2349 23.2284 64.483C23.1913 64.731 23.0957 64.9667 22.9495 65.1705C22.8032 65.3742 22.6105 65.5402 22.3874 65.6547C22.1642 65.7692 21.917 65.8288 21.6661 65.8288H32.7225C32.9732 65.8286 33.2203 65.7687 33.4434 65.6542C33.6664 65.5396 33.8589 65.3737 34.0051 65.17C34.1513 64.9663 34.2469 64.7307 34.284 64.4827C34.3212 64.2348 34.2988 63.9816 34.2187 63.744L24.6238 35.3144Z" fill="#E4E4E4"/>
</g>
<defs>
<clipPath id="clip0_2336_10811">
<rect width="100" height="100" fill="white" transform="translate(0.776367 0.034668)"/>
</clipPath>
</defs>
</svg>
