<svg width="101" height="101" viewBox="0 0 101 101" fill="none" xmlns="http://www.w3.org/2000/svg">
<g clip-path="url(#clip0_2336_10806)">
<path d="M25.7691 50.9262C25.739 51.2586 25.6939 51.591 25.6336 51.9234C25.5734 52.2558 25.4981 52.5731 25.4078 52.9055C25.3175 53.2077 25.2121 53.4948 25.0766 53.7819C24.911 54.1445 24.6701 54.4769 24.384 54.7489C24.098 55.0209 23.7667 55.2475 23.4054 55.4137C23.1344 55.5497 22.8483 55.6404 22.5623 55.7159C22.2762 55.7915 21.9751 55.8368 21.689 55.867C21.3879 55.8972 21.1019 55.9123 20.7857 55.9123H14.8989V44.0513H19.9125C20.3943 44.0513 20.8911 44.0815 21.3879 44.1268C21.8697 44.1721 22.3515 44.2779 22.8182 44.4441C23.2699 44.6103 23.6914 44.837 24.0678 45.1241C24.4442 45.4111 24.7604 45.804 25.0163 46.2724C25.2873 46.8012 25.4831 47.4207 25.6186 48.1007C25.739 48.7353 25.8143 49.3699 25.8143 50.0196C25.8143 50.2764 25.7992 50.5937 25.7691 50.9262ZM22.8784 48.5237C22.7731 48.01 22.6074 47.5567 22.3665 47.179C22.0805 46.7257 21.7192 46.4386 21.2825 46.3026C20.8309 46.1817 20.3491 46.1062 19.8824 46.1213H17.3831V53.8272H19.8824C20.1985 53.8272 20.5147 53.797 20.8309 53.7366C21.1771 53.6761 21.4783 53.5855 21.7192 53.4495C21.9751 53.2984 22.1859 53.0868 22.3515 52.8149C22.5171 52.5278 22.6526 52.2256 22.7429 51.8932C22.8333 51.5608 22.9086 51.2284 22.9387 50.8808C22.9838 50.5786 22.9989 50.2764 22.9989 49.9743C23.029 49.4907 22.9688 49.0072 22.8784 48.5237ZM30.1804 55.8821C29.8643 55.8821 29.5331 55.8821 29.2169 55.867C28.9007 55.867 28.5845 55.8217 28.2684 55.731C27.7264 55.595 27.3048 55.2777 27.0188 54.8093C26.7327 54.3561 26.5972 53.8423 26.5972 53.3135C26.5972 52.8904 26.6875 52.4825 26.8531 52.0896C27.0188 51.6968 27.2898 51.3492 27.621 51.0924C27.7866 50.9715 27.9673 50.8808 28.178 50.8204C28.4039 50.76 28.6147 50.7146 28.8405 50.6844C29.0663 50.6542 29.2922 50.6391 29.518 50.624C29.7438 50.624 29.9546 50.6089 30.1353 50.6089H33.0561V50.4729C33.0561 50.1707 33.0109 49.9138 32.9356 49.7325C32.8604 49.5512 32.7399 49.4152 32.5743 49.3094C32.3936 49.2037 32.1979 49.1432 32.0022 49.113C31.7613 49.0828 31.5054 49.0677 31.2645 49.0677H27.2596V47.2243H31.2645C31.4301 47.2243 31.5957 47.2243 31.7462 47.2394C31.9119 47.2394 32.0624 47.2545 32.228 47.2545C32.9658 47.2847 33.583 47.4358 34.0949 47.7229C34.6068 48.01 34.9832 48.5237 35.2241 49.2641C35.3144 49.5512 35.3747 49.8383 35.3897 50.1405C35.4048 50.4275 35.4198 50.7146 35.4198 51.0319V55.8972L30.1804 55.8821ZM33.0711 52.4825H29.9245C29.6686 52.4825 29.4578 52.5429 29.2922 52.6789C29.1266 52.8149 29.0362 53.0113 29.0362 53.2833C29.0362 53.4646 29.0814 53.6157 29.1567 53.7214C29.2319 53.8272 29.3373 53.9028 29.4578 53.9481C29.5933 53.9934 29.7288 54.0236 29.8793 54.0387C30.0299 54.0539 30.1804 54.0539 30.331 54.0539H33.0862C33.0711 54.0388 33.0711 52.4825 33.0711 52.4825ZM40.6592 55.8972C40.072 55.8972 39.5451 55.7915 39.0784 55.5799C38.6116 55.3684 38.2654 54.9755 38.0395 54.3863C37.9492 54.1143 37.889 53.8121 37.8589 53.525C37.8287 53.2379 37.8287 52.9357 37.8287 52.6487V49.0828H36.3232V47.2243H37.8287V44.0513H40.1925V47.2243H42.3756V49.0677H40.1774V52.2105C40.1774 52.4069 40.1774 52.6336 40.1925 52.9206C40.1925 53.2077 40.2678 53.4344 40.3732 53.6006C40.4785 53.7366 40.614 53.8574 40.7797 53.9179C40.9453 53.9783 41.1259 54.0236 41.3066 54.0387C41.5023 54.0539 41.683 54.0539 41.8787 54.0539C42.0744 54.0388 42.2401 54.0387 42.3756 54.0387V55.8821L40.6592 55.8972ZM46.6363 55.8821C46.3201 55.8821 45.9889 55.8821 45.6728 55.867C45.3566 55.867 45.0404 55.8217 44.7242 55.731C44.1822 55.595 43.7607 55.2777 43.4897 54.8093C43.2036 54.3561 43.0681 53.8423 43.0681 53.3135C43.0681 52.8904 43.1584 52.4825 43.3241 52.0896C43.4897 51.6968 43.7607 51.3492 44.0919 51.0924C44.2575 50.9715 44.4382 50.8808 44.649 50.8204C44.8597 50.76 45.0856 50.6995 45.3114 50.6693C45.5373 50.6391 45.7631 50.624 45.9889 50.6089C46.2148 50.6089 46.4255 50.6089 46.6062 50.5937H49.527V50.4578C49.527 50.1556 49.4818 49.8987 49.4066 49.7174C49.3313 49.5361 49.2108 49.4001 49.0452 49.2943C48.8646 49.1886 48.6688 49.1281 48.4731 49.0979C48.2322 49.0677 47.9763 49.0526 47.7354 49.0526H43.7306V47.2243H47.7354C47.901 47.2243 48.0666 47.2243 48.2172 47.2394C48.3828 47.2394 48.5333 47.2545 48.6989 47.2545C49.4367 47.2847 50.054 47.4358 50.5658 47.7229C51.0777 48.01 51.4541 48.5237 51.695 49.2641C51.7854 49.5512 51.8456 49.8383 51.8606 50.1405C51.8757 50.4275 51.8908 50.7146 51.8908 51.0319V55.8972C51.8757 55.8821 46.6363 55.8821 46.6363 55.8821ZM49.512 52.4825H46.3653C46.1094 52.4825 45.9136 52.5429 45.733 52.6789C45.5674 52.8149 45.477 53.0113 45.477 53.2833C45.477 53.4797 45.5222 53.6157 45.5975 53.7214C45.6728 53.8272 45.7781 53.9028 45.8986 53.9481C46.0341 53.9934 46.1696 54.0236 46.3201 54.0387C46.4707 54.0539 46.6213 54.0539 46.7718 54.0539H49.527C49.512 54.0388 49.512 52.4825 49.512 52.4825Z" fill="#E4E4E4"/>
<path d="M61.6612 55.8972C61.5708 55.6253 61.5106 55.3533 61.4805 55.0662C61.4504 54.7791 61.4203 54.492 61.3902 54.2201C61.3299 53.6761 61.2396 53.2228 61.1041 52.8602C60.9686 52.4976 60.7729 52.2105 60.532 51.9989C60.2911 51.7874 59.9749 51.6363 59.5985 51.5457C59.2221 51.455 58.7554 51.4097 58.2134 51.4097H56.1959V55.8972H53.6816V44.0513H59.448C59.8846 44.0513 60.3363 44.0664 60.7879 44.0966C61.2245 44.1268 61.6612 44.2024 62.0827 44.3232C62.7753 44.5197 63.3173 44.8974 63.7087 45.4565C64.1002 46.0155 64.2959 46.6501 64.2959 47.3603C64.2959 48.1762 64.1303 48.8864 63.784 49.5059C63.4377 50.1102 62.8656 50.5484 62.0526 50.8053C62.3086 50.8959 62.5344 50.9866 62.7151 51.0773C62.8957 51.1679 63.0613 51.2737 63.1968 51.3946C63.3474 51.5154 63.4678 51.6665 63.5732 51.8327C63.6937 52.0443 63.7991 52.2558 63.8894 52.4825C64.055 52.8602 64.1453 53.2682 64.1604 53.6912C64.1755 54.0992 64.2056 54.5223 64.2658 54.9302C64.311 55.2626 64.3712 55.5799 64.4766 55.8821H61.6612V55.8972ZM61.3902 46.8768C61.3149 46.6955 61.1794 46.5293 61.0138 46.4084C60.8331 46.2875 60.6374 46.212 60.4416 46.1817C60.2008 46.1364 59.9599 46.1213 59.719 46.1213H56.1959V49.3245H59.719C60.2911 49.3245 60.7428 49.2037 61.0589 48.977C61.3751 48.7353 61.5407 48.2971 61.5407 47.6625C61.5257 47.3301 61.4805 47.0732 61.3902 46.8768ZM73.9315 53.5401C73.7208 54.0539 73.3895 54.5223 72.983 54.9C72.5615 55.2777 72.0646 55.5648 71.5377 55.731C70.9806 55.9123 70.3633 56.0181 69.6858 56.0181C68.2405 56.0181 67.1264 55.6253 66.3435 54.8396C65.5606 54.0539 65.1541 52.9357 65.1541 51.4852C65.1541 50.8053 65.2595 50.2009 65.4853 49.657C65.7111 49.113 66.0273 48.6446 66.4188 48.282C66.8403 47.9042 67.3221 47.602 67.8641 47.4207C68.4513 47.2092 69.0686 47.1185 69.7009 47.1185C71.1462 47.1185 72.2604 47.5114 73.0734 48.3122C73.8864 49.113 74.2778 50.2311 74.2929 51.6968C74.2778 52.3767 74.1724 52.9962 73.9315 53.5401ZM71.7334 50.5333C71.6732 50.2311 71.5527 49.9591 71.3871 49.7023C71.2215 49.4605 70.9957 49.2792 70.7247 49.1432C70.4537 49.0072 70.1074 48.9468 69.7159 48.9468C69.2944 48.9468 68.9481 49.0223 68.6771 49.1583C68.4212 49.2943 68.1953 49.4907 68.0297 49.7325C67.8641 49.9743 67.7587 50.2462 67.6985 50.5786C67.6383 50.9262 67.5931 51.2737 67.6082 51.6212C67.6082 51.9536 67.6383 52.3011 67.7286 52.6335C67.8039 52.9206 67.9243 53.1926 68.105 53.4344C68.2857 53.661 68.5115 53.8574 68.7674 53.9632C69.0384 54.0841 69.3847 54.1596 69.7762 54.1596C70.1676 54.1596 70.5139 54.0841 70.7849 53.9481C71.0408 53.8121 71.2667 53.6308 71.4323 53.389C71.5979 53.1624 71.7033 52.8753 71.7786 52.558C71.8388 52.2256 71.8689 51.8932 71.8689 51.5457C71.8539 51.2132 71.8087 50.8657 71.7334 50.5333ZM83.9436 53.6157C83.6425 54.2805 83.1607 54.8245 82.4982 55.2475C82.0164 55.5497 81.5347 55.7461 81.0378 55.8066C80.5109 55.867 79.9839 55.8972 79.472 55.8972H75.6178V44.0513H77.9815V47.2243H80.0893C81.4443 47.2243 82.5133 47.5869 83.2661 48.2971C84.0188 49.0072 84.4103 50.0649 84.4103 51.4399C84.3952 52.2256 84.2447 52.9509 83.9436 53.6157ZM81.4895 49.7174C81.1282 49.2943 80.541 49.0828 79.743 49.0828H77.9665V54.0387H79.743C80.5109 54.0387 81.083 53.797 81.4594 53.3135C81.8358 52.83 82.0315 52.2256 82.0315 51.5003C82.0315 50.7448 81.8508 50.1556 81.4895 49.7174ZM93.9255 53.5401C93.7147 54.0539 93.3835 54.5223 92.9619 54.9C92.5554 55.2626 92.0736 55.5497 91.5166 55.731C90.9595 55.9275 90.3422 56.0181 89.6647 56.0181C88.2194 56.0181 87.1053 55.6253 86.3224 54.8396C85.5395 54.0539 85.133 52.9357 85.133 51.4852C85.133 50.8053 85.2384 50.2009 85.4642 49.657C85.69 49.113 86.0062 48.6597 86.3977 48.282C86.8192 47.9042 87.301 47.602 87.843 47.4207C88.4001 47.2243 89.0173 47.1185 89.6798 47.1185C91.1251 47.1185 92.2393 47.5114 93.0523 48.3122C93.8653 49.113 94.2567 50.2311 94.2567 51.6968C94.2718 52.3767 94.1513 52.9962 93.9255 53.5401ZM91.7274 50.5333C91.6671 50.2311 91.5467 49.9591 91.3811 49.7023C91.2155 49.4605 90.9896 49.2792 90.7186 49.1432C90.4476 49.0072 90.1014 48.9468 89.7099 48.9468C89.2883 48.9468 88.9421 49.0223 88.6711 49.1583C88.4151 49.2943 88.1893 49.4907 88.0237 49.7325C87.8581 49.9894 87.7376 50.2764 87.6924 50.5786C87.6322 50.9262 87.5871 51.2737 87.6021 51.6212C87.6021 51.9536 87.6322 52.3011 87.7075 52.6335C87.7828 52.9206 87.9032 53.1926 88.0839 53.4344C88.2645 53.661 88.4904 53.8574 88.7463 53.9632C89.0173 54.0992 89.3636 54.1596 89.7551 54.1596C90.1616 54.1596 90.4928 54.0841 90.7638 53.9481C91.0197 53.8121 91.2456 53.6308 91.4112 53.389C91.5768 53.1322 91.6973 52.8602 91.7575 52.558C91.8177 52.2256 91.8478 51.8932 91.8478 51.5457C91.8327 51.2132 91.8026 50.8657 91.7274 50.5333ZM99.0595 55.8972C98.4723 55.8972 97.9454 55.7915 97.4636 55.5799C96.9969 55.3684 96.6506 54.9755 96.4247 54.3863C96.3344 54.1143 96.2742 53.8121 96.2441 53.525C96.214 53.2379 96.214 52.9357 96.214 52.6487V49.0979H94.7084V47.2243H96.214V44.0513H98.5777V47.2243H100.776V49.0828H98.5777V52.2256C98.5777 52.422 98.5777 52.6487 98.5928 52.9357C98.5928 53.2228 98.653 53.4495 98.7734 53.6157C98.8788 53.7517 99.0143 53.8574 99.1799 53.933C99.3455 53.9934 99.5262 54.0387 99.7069 54.0539C99.9026 54.069 100.083 54.069 100.279 54.069C100.475 54.0539 100.625 54.0539 100.776 54.0539V55.8972H99.0595Z" fill="#E4E4E4"/>
<path d="M7.70198 47.2244C7.43098 47.2244 7.20515 47.5568 7.20515 47.9648C7.20515 48.3727 7.43098 48.7051 7.70198 48.7051C7.97299 48.7051 8.19882 48.3727 8.19882 47.9648C8.19882 47.5568 7.97299 47.2244 7.70198 47.2244ZM4.32951 47.2244C4.05851 47.2244 3.83267 47.5568 3.83267 47.9648C3.83267 48.3727 4.05851 48.7051 4.32951 48.7051C4.60051 48.7051 4.82635 48.3727 4.82635 47.9648C4.81129 47.5568 4.60051 47.2244 4.32951 47.2244ZM10.8787 46.3178H10.8336V45.4112C10.8336 44.7011 10.2614 44.1118 9.53878 44.1118H2.47766C1.77004 44.1118 1.18287 44.686 1.18287 45.4112V46.3027H1.1377C0.926924 46.348 0.776367 46.5143 0.776367 46.7258V48.1763C0.776367 48.3878 0.926924 48.5692 1.1377 48.5994H1.18287V50.0499C1.18287 50.7601 1.75499 51.3493 2.47766 51.3493H4.49512V51.6969H4.31445L3.68212 51.9537V52.0444H3.44122V52.3012C2.94439 52.3315 2.56799 52.7394 2.55294 53.238V53.5251H2.47766L2.17655 53.8273V54.6584L2.47766 54.9605H3.11L3.2455 54.8246V54.4015H3.50145V53.7064C3.50145 53.6007 3.41111 53.51 3.30572 53.51H3.18528V53.2229C3.18528 53.0567 3.30572 52.9207 3.47134 52.8905V53.2229H3.74234V54.2202L4.07356 54.5979V55.1116C3.81762 55.1116 3.54661 55.1419 3.17022 55.4592V55.9729H5.88025V54.9605H6.21147V55.9729H8.92149V55.4592C8.56016 55.1419 8.2741 55.1116 8.01815 55.1116V54.5979L8.36443 54.2202V53.2683H8.62038V52.9359C8.78599 52.951 8.90644 53.1021 8.90644 53.2683V53.5553H8.78599C8.6806 53.5553 8.59027 53.646 8.59027 53.7518V54.4468H8.83116V54.8699L8.96666 55.0059H9.599L9.90011 54.7037V53.8727L9.599 53.5705H9.50867V53.2834C9.50867 52.7848 9.11722 52.3768 8.62038 52.3466V52.1048H8.37949V52.0142L7.74715 51.7573H7.58154V51.4098H9.55383C10.2614 51.4098 10.8486 50.8356 10.8486 50.1103V48.6598H10.8938C11.1046 48.6145 11.2551 48.4483 11.2551 48.2368V46.7862C11.2401 46.5294 11.0895 46.348 10.8787 46.3178ZM10.5023 49.7779C10.5023 50.3521 10.0356 50.8054 9.4635 50.8205H2.55294C1.98082 50.8205 1.52915 50.3521 1.52915 49.7779V45.6379C1.52915 45.0637 1.99588 44.6104 2.56799 44.6104H9.47855C10.0507 44.6104 10.5023 45.0788 10.5174 45.6379V49.7779H10.5023Z" fill="#E4E4E4"/>
</g>
<defs>
<clipPath id="clip0_2336_10806">
<rect width="100" height="100" fill="white" transform="translate(0.776367 0.034668)"/>
</clipPath>
</defs>
</svg>
