<svg width="101" height="101" viewBox="0 0 101 101" fill="none" xmlns="http://www.w3.org/2000/svg">
<g clip-path="url(#clip0_2336_10784)">
<path d="M28.2369 43.1899L28.997 43.7403C30.3193 44.8067 31.0795 46.0108 31.2447 47.3868C32.666 47.1116 34.4838 47.3181 35.2771 47.8685L36.0043 48.3157L35.872 48.5911C35.6406 49.1069 35.5746 49.2446 35.5416 49.3134C34.2525 51.8935 31.7074 51.9278 30.5176 51.8935C27.5097 59.4273 21.0976 63.5898 12.4375 63.5898C8.43825 63.5898 5.39743 62.3169 3.34801 59.8056C0.637856 56.5034 0.637856 52.203 0.869106 50.8271L0.935317 50.5517H24.8324C26.0883 50.5517 27.047 50.2079 27.5097 49.9325C27.0138 49.1757 26.8486 48.3157 26.8156 47.8341C26.7164 46.4581 27.047 45.0132 27.7082 43.9812L28.2369 43.1899ZM48.9428 44.7874C49.2094 44.7874 49.4352 44.8768 49.6201 45.0556C49.805 45.2343 49.8974 45.4601 49.8974 45.7327V54.2411C49.8974 55.6591 49.4004 56.859 48.4064 57.8407C47.4004 58.8346 46.2006 59.3316 44.8068 59.3316C43.4008 59.3316 42.201 58.8346 41.2072 57.8407C40.2133 56.8468 39.7164 55.647 39.7164 54.2411C39.7164 52.8353 40.2133 51.6354 41.2072 50.6415C42.201 49.6475 43.4008 49.1506 44.8068 49.1507C46.0128 49.1507 47.0764 49.5233 47.9974 50.2687V45.7327C47.9974 45.4601 48.0868 45.2343 48.2656 45.0556C48.4444 44.8768 48.6701 44.7874 48.9428 44.7874ZM56.0697 49.1507C57.4636 49.1507 58.6635 49.6476 59.6693 50.6413C60.1665 51.1384 60.5377 51.6869 60.783 52.2866C61.0284 52.8866 61.1542 53.5381 61.1603 54.2411C61.1603 55.6591 60.6634 56.859 59.6695 57.8407C58.6637 58.8346 57.4638 59.3316 56.0699 59.3316C54.6639 59.3316 53.464 58.8346 52.4703 57.8407C51.4763 56.8468 50.9793 55.647 50.9793 54.2411C50.9793 52.8353 51.4762 51.6354 52.4701 50.6415C53.464 49.6475 54.6638 49.1506 56.0697 49.1507ZM67.3146 49.1507C68.5933 49.1507 69.6993 49.5628 70.6326 50.387C70.8507 50.5808 70.9598 50.8201 70.9598 51.105C70.9598 51.3778 70.8704 51.605 70.6916 51.7866C70.5128 51.9685 70.2871 52.0595 70.0144 52.0595C69.7892 52.0613 69.5705 51.9841 69.3963 51.8413C69.0873 51.5806 68.7631 51.3837 68.4236 51.2505C68.0842 51.1173 67.7145 51.0506 67.3146 51.0505C66.8723 51.0505 66.4572 51.1338 66.0693 51.3005C65.6899 51.4613 65.3444 51.6926 65.0512 51.9821C64.7586 52.2721 64.5254 52.6165 64.3648 52.9958C64.1982 53.3834 64.1148 53.7985 64.1148 54.2411C64.1148 54.6834 64.1982 55.0985 64.3648 55.4864C64.5254 55.8658 64.7586 56.2101 65.0512 56.5001C65.3444 56.7896 65.6899 57.0209 66.0693 57.1817C66.4572 57.3484 66.8723 57.4317 67.3146 57.4317C67.7146 57.4317 68.0843 57.3666 68.4236 57.2364C68.7631 57.106 69.0842 56.9105 69.3871 56.6499C69.5569 56.5227 69.7569 56.456 69.9871 56.4499C70.2598 56.4499 70.4855 56.5393 70.6642 56.7181C70.843 56.8968 70.9324 57.1226 70.9324 57.3954C70.9324 57.6621 70.8325 57.8954 70.6326 58.0952C69.6933 58.9194 68.5873 59.3316 67.3146 59.3316C65.9086 59.3316 64.7088 58.8346 63.715 57.8407C62.7211 56.8468 62.2242 55.647 62.2242 54.2411C62.2242 52.8353 62.7211 51.6354 63.715 50.6415C64.7089 49.6476 65.9088 49.1507 67.3146 49.1507ZM72.9873 44.7874C73.2478 44.7874 73.4705 44.8799 73.6553 45.0647C73.8402 45.2494 73.9326 45.4751 73.9326 45.7419V52.8321L79.3685 49.296C79.52 49.1991 79.6896 49.1507 79.8775 49.1507C80.0109 49.1507 80.1351 49.1749 80.2502 49.2233C80.3654 49.2718 80.4654 49.3399 80.5502 49.4278C80.635 49.5157 80.7031 49.6173 80.7547 49.7325C80.8062 49.8478 80.832 49.9689 80.832 50.0958C80.832 50.4353 80.7108 50.6868 80.4684 50.8505L76.6598 53.3232L80.5684 57.7226C80.7441 57.9164 80.832 58.1377 80.832 58.3862C80.832 58.5135 80.8062 58.6346 80.7547 58.7497C80.7048 58.8624 80.6356 58.9656 80.5502 59.0544C80.4654 59.1423 80.3654 59.2104 80.2502 59.2587C80.1321 59.3076 80.0054 59.3324 79.8775 59.3316C79.623 59.3316 79.4109 59.2497 79.2412 59.086L75.0416 54.3683L73.9326 55.0956V58.3771C73.9326 58.6376 73.8402 58.8618 73.6553 59.0497C73.4704 59.2376 73.2477 59.3316 72.9873 59.3316C72.7206 59.3316 72.4949 59.2376 72.31 59.0497C72.1251 58.8618 72.0326 58.6376 72.0326 58.3771V45.7419C72.0326 45.4752 72.1251 45.2494 72.31 45.0646C72.4949 44.8797 72.7206 44.7874 72.9873 44.7874ZM86.95 49.1505C88.3438 49.1505 89.5436 49.6474 90.5496 50.6411C91.0465 51.132 91.4192 51.6789 91.6678 52.2819C91.9162 52.8848 92.0404 53.5378 92.0404 54.2409C92.0404 54.5136 91.948 54.7393 91.7631 54.9181C91.5782 55.0968 91.3525 55.1862 91.0859 55.1862H83.8867C83.9868 55.5137 84.1404 55.8224 84.3412 56.0997C84.5372 56.3716 84.7749 56.6109 85.0455 56.8087C85.3171 57.0068 85.6176 57.1616 85.9365 57.2679C86.2607 57.377 86.5986 57.4316 86.95 57.4316C87.35 57.4316 87.7166 57.3709 88.0498 57.2497C88.3831 57.1286 88.6923 56.9468 88.9771 56.7042C89.1526 56.5554 89.3741 56.4719 89.6041 56.4679C89.8769 56.4679 90.1027 56.5573 90.2814 56.736C90.4602 56.9148 90.5496 57.1406 90.5496 57.4134C90.5496 57.6799 90.4587 57.9071 90.277 58.095C89.3376 58.9192 88.2286 59.3314 86.95 59.3314C85.544 59.3314 84.3441 58.8344 83.3504 57.8405C82.3565 56.8467 81.8596 55.6468 81.8596 54.2409C81.8596 52.8351 82.3565 51.6352 83.3504 50.6413C84.3443 49.6474 85.5441 49.1505 86.95 49.1505ZM98.1766 49.1505C98.4432 49.1505 98.7296 49.1687 99.0356 49.205C99.3415 49.2414 99.6234 49.3065 99.8811 49.4003C100.139 49.4942 100.352 49.623 100.522 49.7866C100.692 49.9503 100.776 50.1624 100.776 50.423C100.776 50.5564 100.751 50.6807 100.699 50.7958C100.649 50.9085 100.58 51.0115 100.495 51.1003C100.41 51.1882 100.31 51.2564 100.195 51.3048C100.076 51.3537 99.9497 51.3784 99.8219 51.3774C99.7066 51.3774 99.5733 51.3441 99.4219 51.2774C99.0401 51.126 98.625 51.0503 98.1766 51.0503C97.7342 51.0503 97.3191 51.1336 96.9313 51.3003C96.5435 51.467 96.2056 51.6942 95.9176 51.9819C95.6298 52.2698 95.4026 52.6077 95.2359 52.9956C95.0693 53.3832 94.9859 53.7983 94.9859 54.2409V58.386C94.9859 58.6466 94.8935 58.8692 94.7086 59.054C94.5237 59.2388 94.301 59.3312 94.0406 59.3314C93.774 59.3314 93.5482 59.2389 93.3635 59.054C93.1787 58.8691 93.0863 58.6465 93.0861 58.386V50.096C93.0861 49.8353 93.1786 49.6127 93.3635 49.428C93.5484 49.2431 93.7741 49.1507 94.0406 49.1507C94.3012 49.1507 94.5238 49.2431 94.7086 49.428C94.8935 49.6127 94.9859 49.8353 94.9859 50.096V50.2776C95.4307 49.9197 95.9313 49.6372 96.4676 49.4415C97.0008 49.2475 97.5704 49.1505 98.1766 49.1505ZM44.8068 51.0503C44.3584 51.0503 43.9402 51.1351 43.5523 51.3048C43.1644 51.4745 42.8281 51.7032 42.5433 51.9911C42.2586 52.279 42.0329 52.6169 41.8662 53.0048C41.6995 53.3927 41.6162 53.8047 41.6162 54.2409C41.6162 54.6771 41.6995 55.0892 41.8662 55.4773C42.0329 55.8653 42.2586 56.2031 42.5433 56.4907C42.8281 56.7784 43.1644 57.0071 43.5523 57.1771C43.9402 57.3466 44.3584 57.4314 44.8068 57.4316C45.2491 57.4316 45.6642 57.3467 46.0521 57.1771C46.4309 57.0133 46.775 56.7788 47.0658 56.486C47.3544 56.1939 47.5857 55.8501 47.7474 55.4726C47.9141 55.0878 47.9974 54.6773 47.9974 54.2409C47.9974 53.8046 47.9141 53.394 47.7474 53.0091C47.5857 52.6316 47.3544 52.2878 47.0658 51.9956C46.7749 51.7029 46.4309 51.4685 46.0521 51.3048C45.6644 51.1351 45.2493 51.0503 44.8068 51.0503ZM56.0699 51.0503C55.6215 51.0503 55.2033 51.1351 54.8154 51.3048C54.4275 51.4745 54.0912 51.7032 53.8064 51.9911C53.5217 52.279 53.2959 52.6169 53.1291 53.0048C52.9623 53.3927 52.879 53.8047 52.8791 54.2409C52.8792 54.6771 52.9625 55.0892 53.1291 55.4773C53.2959 55.865 53.5217 56.2028 53.8064 56.4907C54.0912 56.7786 54.4275 57.0074 54.8154 57.1771C55.2033 57.3467 55.6215 57.4316 56.0699 57.4316C56.5122 57.4316 56.9273 57.3467 57.3152 57.1771C57.694 57.0133 58.0381 56.7788 58.3289 56.486C58.6175 56.1939 58.8488 55.8501 59.0105 55.4726C59.1772 55.0878 59.2605 54.6773 59.2605 54.2409C59.2605 53.8046 59.1772 53.394 59.0105 53.0091C58.8488 52.6316 58.6175 52.2878 58.3289 51.9956C58.038 51.7029 57.694 51.4685 57.3152 51.3048C56.9273 51.1351 56.5122 51.0503 56.0699 51.0503ZM86.95 51.0503C86.6046 51.0503 86.2682 51.1048 85.941 51.2138C85.6194 51.32 85.3158 51.4748 85.041 51.6728C84.7683 51.8697 84.5289 52.1091 84.332 52.3819C84.1319 52.6584 83.9812 52.9675 83.8867 53.2954H90.0133C89.9128 52.9672 89.7576 52.6584 89.5543 52.3819C89.3557 52.1107 89.1166 51.8716 88.8453 51.673C88.5738 51.475 88.2733 51.3202 87.9545 51.214C87.6309 51.1049 87.2915 51.0496 86.95 51.0503ZM7.14919 46.4233V49.8636H3.51344V46.4237L7.14919 46.4233ZM11.4461 46.4233V49.8636H7.81032V46.4237L11.4461 46.4233ZM15.7429 46.4233V49.8636H12.107V46.4237L15.7429 46.4233ZM20.0398 46.4233V49.8636H16.4039V46.4237L20.0398 46.4233ZM24.3367 46.4233V49.8636H20.7008V46.4237L24.3367 46.4233ZM20.0398 42.2954V45.7355H16.4039V42.2956L20.0398 42.2954ZM15.7429 42.2954V45.7355H12.107V42.2956L15.7429 42.2954ZM11.4461 42.2954V45.7355H7.81032V42.2956L11.4461 42.2954ZM20.0398 38.1675V41.6075H16.4039V38.1675H20.0398Z" fill="#E4E4E4"/>
</g>
<defs>
<clipPath id="clip0_2336_10784">
<rect width="100" height="100" fill="white" transform="translate(0.776367 0.878662)"/>
</clipPath>
</defs>
</svg>
