<svg width="101" height="101" viewBox="0 0 101 101" fill="none" xmlns="http://www.w3.org/2000/svg">
<path d="M26.8982 71.8914L24.2683 72.3087V85.2654C24.5273 85.3674 24.7962 85.4424 25.0706 85.4891C25.3911 85.5536 25.7123 85.6181 26.0328 85.6504C26.3856 85.6819 26.7053 85.7142 27.0581 85.7457C27.4116 85.778 27.7321 85.8103 28.0526 85.8103C28.7504 85.8264 29.4456 85.7179 30.1053 85.4898C30.6647 85.2545 31.1757 84.9175 31.6124 84.4961C32.0324 84.0577 32.35 83.5317 32.5424 82.9559C32.7684 82.3068 32.8772 81.6227 32.8636 80.9355C32.8598 80.2773 32.7845 79.6215 32.6392 78.9795C32.5008 78.415 32.2377 77.8888 31.8691 77.4394C31.5223 77.0234 31.083 76.6941 30.5864 76.4779C30.0424 76.2338 29.451 76.1134 28.8549 76.1252C28.5103 76.1224 28.1663 76.1544 27.8282 76.2205C27.5084 76.2824 27.1965 76.3795 26.8982 76.5102V71.8914ZM6.46903 71.8914L3.83984 72.3094V85.5536H6.46903V81.5126C6.78905 81.768 7.07956 82.0582 7.33516 82.378C7.65067 82.7195 7.93995 83.0843 8.20055 83.4693C8.47873 83.8281 8.73585 84.2028 8.97061 84.5914C9.19576 84.9434 9.41944 85.2661 9.61232 85.5859H12.6265C12.4351 85.2008 12.1777 84.7843 11.8888 84.3024C11.5976 83.8129 11.2768 83.3417 10.928 82.8914C10.5742 82.4351 10.2106 81.9864 9.83747 81.5456C9.49726 81.1388 9.13284 80.7528 8.74619 80.3898C9.40486 79.7332 10.0463 79.0594 10.6699 78.3694C11.2786 77.7284 11.8888 77.0221 12.4982 76.3173H9.38791C9.22803 76.5095 9.00361 76.7647 8.77846 77.0214C8.55331 77.2781 8.29736 77.5678 8.04068 77.8883C7.77447 78.1884 7.50728 78.4876 7.23909 78.7859C6.9626 79.0631 6.71545 79.3404 6.46903 79.6168V71.8914ZM75.87 73.5913L73.2409 74.0086V81.7701C73.2398 82.3192 73.2934 82.867 73.4007 83.4055C73.5045 83.8735 73.7126 84.3119 74.0094 84.6882C74.3158 85.0399 74.7007 85.3145 75.133 85.4898C75.7082 85.697 76.3171 85.795 76.9283 85.7787C77.4128 85.7929 77.8972 85.7498 78.3716 85.6504C78.7349 85.5818 79.0897 85.474 79.4299 85.3292L79.0449 83.2772C78.7737 83.3753 78.4948 83.4503 78.211 83.5016C77.9239 83.5384 77.635 83.5597 77.3456 83.5654C76.7677 83.5654 76.3511 83.4055 76.1583 83.0843C75.947 82.6796 75.8476 82.226 75.87 81.7701V78.4992H79.0133V76.3181H75.87V73.5913ZM94.4071 76.0607C93.285 76.0607 92.3866 76.3173 91.7449 76.8307C91.4305 77.0696 91.1788 77.3812 91.0112 77.7387C90.8436 78.0962 90.7652 78.489 90.7827 78.8835C90.7726 79.277 90.8381 79.6689 90.9756 80.0378C91.0991 80.3495 91.2842 80.6331 91.5198 80.8717C91.766 81.1069 92.0479 81.3017 92.3551 81.4488C92.6748 81.6087 93.0599 81.7693 93.4772 81.9299C93.8909 82.0688 94.2885 82.2517 94.6631 82.4756C94.9197 82.6355 95.0481 82.7953 95.0481 83.0197C95.0582 83.1289 95.0363 83.2385 94.9851 83.3354C94.9339 83.4323 94.8557 83.5122 94.7599 83.5654C94.4294 83.6755 94.0805 83.7191 93.7331 83.6937C93.2914 83.7006 92.8502 83.6575 92.4182 83.5654C91.949 83.4604 91.4882 83.3212 91.0394 83.1488L90.5906 85.2976C90.9519 85.4523 91.3278 85.5702 91.7126 85.6497C92.3828 85.8212 93.0739 85.897 93.7654 85.8748C95.0481 85.8748 96.0095 85.6504 96.6835 85.1693C97.0179 84.9378 97.2876 84.6248 97.4673 84.2599C97.647 83.8951 97.7306 83.4905 97.7103 83.0843C97.7217 82.7374 97.6784 82.3909 97.5819 82.0575C97.5092 81.7542 97.3539 81.477 97.1331 81.2567C96.9001 80.9685 96.604 80.7377 96.2677 80.582C95.8028 80.3328 95.3198 80.1188 94.8229 79.9417C94.5347 79.8134 94.3103 79.7496 94.1181 79.6535C93.9575 79.5567 93.7969 79.4606 93.7009 79.3968C93.6001 79.338 93.5213 79.2479 93.4764 79.1401C93.4402 79.0475 93.4187 78.9498 93.4126 78.8505C93.4126 78.4016 93.7969 78.1772 94.6315 78.1772C95.0308 78.1662 95.4298 78.2096 95.8174 78.3063C96.1709 78.4016 96.4914 78.4984 96.8119 78.5952L97.2614 76.5418C96.8678 76.3915 96.4592 76.284 96.0426 76.2213C95.5034 76.1182 94.956 76.065 94.4071 76.0607ZM38.8927 76.0929C38.3209 76.0866 37.7537 76.1956 37.225 76.4134C36.6898 76.6119 36.2072 76.9302 35.814 77.3441C35.3892 77.7904 35.0521 78.3126 34.8203 78.8835C34.5496 79.5668 34.4187 80.2975 34.4352 81.0323C34.4377 81.6821 34.5239 82.3289 34.6919 82.9567C34.8882 83.5231 35.1928 84.046 35.5888 84.4961C36.0317 84.9252 36.5548 85.2629 37.1282 85.4898C37.8227 85.7608 38.564 85.8917 39.3093 85.8748C39.6305 85.8748 39.9826 85.8425 40.3038 85.8103C40.6159 85.7874 40.9263 85.7445 41.233 85.6819C41.5062 85.6624 41.7758 85.6082 42.0353 85.5206C42.292 85.4253 42.4841 85.3614 42.6125 85.2969L42.2605 83.1481C41.8874 83.2943 41.5004 83.402 41.1054 83.4693C40.6408 83.561 40.1679 83.604 39.6943 83.5977C39.0602 83.6281 38.4323 83.4599 37.8983 83.1166C37.6835 82.9724 37.5031 82.7826 37.37 82.5608C37.2369 82.3389 37.1544 82.0905 37.1282 81.8331H43.0936C43.0936 81.6733 43.1258 81.5134 43.1258 81.3528C43.1514 81.1829 43.1619 81.0111 43.1574 80.8394C43.1574 79.2993 42.7731 78.1134 42.0038 77.3118C41.5996 76.902 41.1138 76.5817 40.5778 76.3717C40.0419 76.1617 39.4678 76.0667 38.8927 76.0929ZM67.0188 76.0929C66.447 76.0866 65.8798 76.1956 65.3511 76.4134C64.8159 76.6119 64.3332 76.9302 63.9401 77.3441C63.515 77.7903 63.1776 78.3125 62.9456 78.8835C62.675 79.5668 62.544 80.2975 62.5606 81.0323C62.563 81.6821 62.6493 82.3289 62.8172 82.9567C63.014 83.5232 63.3191 84.0461 63.7156 84.4961C64.1585 84.9252 64.6816 85.2629 65.255 85.4898C65.9493 85.7608 66.6903 85.8916 67.4354 85.8748C67.7559 85.8748 68.1086 85.8425 68.4298 85.8103C68.7422 85.7874 69.0529 85.7445 69.3598 85.6819C69.6327 85.6624 69.9021 85.6081 70.1614 85.5206C70.4181 85.4253 70.6102 85.3614 70.7385 85.2969L70.3865 83.1481C70.0137 83.2943 69.6269 83.4019 69.2322 83.4693C68.7671 83.5611 68.2937 83.6041 67.8197 83.5977C67.1858 83.6279 66.5582 83.4598 66.0243 83.1166C65.8096 82.9724 65.6292 82.7826 65.4961 82.5608C65.363 82.3389 65.2804 82.0905 65.2543 81.8331H71.2196C71.2196 81.6733 71.2519 81.5134 71.2519 81.3528C71.2774 81.1829 71.288 81.0111 71.2835 80.8394C71.2835 79.3007 70.8992 78.1134 70.1298 77.3118C69.7257 76.902 69.2398 76.5817 68.7039 76.3717C68.1679 76.1617 67.5938 76.0667 67.0188 76.0929ZM84.8181 76.0929C84.246 76.0865 83.6786 76.1955 83.1496 76.4134C82.6144 76.6119 82.1318 76.9302 81.7386 77.3441C81.3138 77.7904 80.9767 78.3126 80.7449 78.8835C80.4742 79.5668 80.3433 80.2975 80.3598 81.0323C80.3467 81.6831 80.4333 82.3321 80.6165 82.9567C80.8132 83.5232 81.1184 84.0461 81.5149 84.4961C81.9576 84.9251 82.4804 85.2628 83.0536 85.4898C83.748 85.7608 84.4893 85.8917 85.2346 85.8748C85.5551 85.8748 85.9079 85.8425 86.2291 85.8103C86.5413 85.7874 86.8516 85.7445 87.1583 85.6819C87.4315 85.6624 87.7011 85.6082 87.9606 85.5206C88.2173 85.4253 88.4095 85.3614 88.5378 85.2969L88.1851 83.1481C87.8122 83.2943 87.4254 83.4019 87.0307 83.4693C86.5659 83.561 86.0927 83.604 85.6189 83.5977C84.985 83.6279 84.3574 83.4598 83.8236 83.1166C83.6088 82.9724 83.4285 82.7826 83.2954 82.5608C83.1623 82.3389 83.0797 82.0905 83.0536 81.8331H89.0189C89.0189 81.6733 89.0512 81.5134 89.0512 81.3528C89.0767 81.1829 89.0873 81.0111 89.0827 80.8394C89.0827 79.3007 88.6984 78.1134 87.9284 77.3118C87.5243 76.9021 87.0386 76.5818 86.5028 76.3718C85.9669 76.1619 85.393 76.0668 84.8181 76.0929ZM48.9629 76.1259C48.2402 76.1141 47.5188 76.1892 46.814 76.3496C46.2494 76.4646 45.6924 76.6145 45.1463 76.7984V85.6181H47.7762V78.5307C47.9456 78.49 48.117 78.4579 48.2896 78.4346C48.4913 78.4025 48.6944 78.381 48.8983 78.3701C49.243 78.3678 49.5869 78.4002 49.9251 78.4669C50.2072 78.4959 50.4862 78.5496 50.7589 78.6275L51.2078 76.4457C51.0794 76.4141 50.8865 76.3503 50.6944 76.3181C50.4911 76.2884 50.2882 76.2561 50.0857 76.2213C49.8843 76.1859 49.6806 76.1645 49.4762 76.1575C49.3064 76.1319 49.1346 76.1214 48.9629 76.1259ZM56.5637 76.1259C55.2323 76.1256 53.9066 76.2979 52.6195 76.6386L52.6188 85.6504H55.2172V78.4984C55.407 78.4595 55.5999 78.4381 55.7936 78.4346C55.9957 78.4088 56.1994 78.398 56.4031 78.4024C57.0125 78.4024 57.4291 78.563 57.6535 78.9157C57.8786 79.2678 57.9747 79.8779 57.9747 80.7125V85.6189H60.6046V80.3898C60.6107 79.8072 60.546 79.226 60.4117 78.659C60.2907 78.1715 60.0727 77.7133 59.7708 77.3118C59.4435 76.9112 59.0098 76.611 58.5196 76.4457C57.8961 76.2074 57.2306 76.0986 56.5637 76.1259ZM13.7809 76.3181V81.4811C13.7782 82.0635 13.843 82.6443 13.9738 83.2119C14.0625 83.7153 14.2806 84.187 14.6066 84.5807C14.9327 84.9744 15.3555 85.2766 15.8336 85.4575C16.4687 85.6948 17.1444 85.804 17.8218 85.7787C18.563 85.7909 19.3037 85.7369 20.0352 85.6174C20.62 85.5412 21.1986 85.4235 21.7667 85.2654L21.799 76.3181H19.1691V83.4686C18.9769 83.5016 18.8163 83.5016 18.5919 83.5331C18.3901 83.5589 18.1866 83.5697 17.9832 83.5654C17.373 83.5654 16.956 83.373 16.732 82.9882C16.5076 82.6039 16.4115 81.9945 16.4115 81.1606V76.3181H13.7809ZM38.9243 78.2095C39.1688 78.1963 39.413 78.2419 39.6362 78.3424C39.8595 78.4429 40.0555 78.5955 40.2077 78.7874C40.3346 78.9625 40.432 79.1572 40.4959 79.3638C40.5683 79.5597 40.6103 79.7654 40.6206 79.974H37.1605C37.1989 79.7566 37.2525 79.5421 37.3211 79.3323C37.3889 79.1207 37.4978 78.9245 37.6416 78.7551C37.7771 78.5851 37.9538 78.4526 38.155 78.3701C38.3974 78.2635 38.6594 78.2092 38.9243 78.2095ZM67.0496 78.2095C67.2943 78.1961 67.5386 78.2417 67.762 78.3422C67.9854 78.4428 68.1815 78.5954 68.3338 78.7874C68.4607 78.9625 68.558 79.1572 68.622 79.3638C68.6943 79.5597 68.7364 79.7654 68.7467 79.974H65.2866C65.3249 79.7566 65.3786 79.5421 65.4472 79.3323C65.5149 79.1207 65.6239 78.9245 65.7677 78.7551C65.9032 78.5851 66.0799 78.4526 66.281 78.3701C66.5235 78.2635 66.7855 78.2085 67.0504 78.2087L67.0496 78.2095ZM84.8181 78.2095C85.0626 78.1963 85.3068 78.2419 85.5301 78.3424C85.7534 78.4429 85.9493 78.5955 86.1015 78.7874C86.2282 78.9625 86.3253 79.1573 86.389 79.3638C86.4613 79.5597 86.5034 79.7654 86.5137 79.974H83.0536C83.0922 79.7566 83.1461 79.5421 83.2149 79.3323C83.2825 79.1207 83.3911 78.9246 83.5347 78.7551C83.6702 78.5851 83.8469 78.4526 84.048 78.3701C84.2907 78.2634 84.553 78.2091 84.8181 78.2095ZM28.3415 78.3386C29.5919 78.3386 30.2021 79.1717 30.2021 80.8717C30.2305 81.565 30.0396 82.2497 29.6565 82.8283C29.4612 83.0714 29.2113 83.2649 28.9271 83.3931C28.6429 83.5213 28.3325 83.5806 28.021 83.5661C27.7959 83.5661 27.5715 83.5331 27.3793 83.5331C27.1864 83.5016 27.0266 83.5016 26.8982 83.4693V78.6906C27.0987 78.5748 27.3149 78.4883 27.5399 78.4339C27.8025 78.3708 28.0715 78.3388 28.3415 78.3386Z" fill="#E4E4E4"/>
<path d="M50.6297 15.8834C50.1465 15.9076 49.673 16.0273 49.237 16.2354L30.2306 25.3169C29.7385 25.5519 29.3062 25.8937 28.9656 26.3172C28.6251 26.7406 28.3852 27.2347 28.2637 27.7628L23.5751 48.1619C23.4669 48.6318 23.4548 49.1185 23.5396 49.5932C23.6244 50.0678 23.8043 50.5208 24.0687 50.9253C24.1327 51.0239 24.2014 51.1193 24.2748 51.2113L37.4302 67.5702C37.7708 67.9935 38.2031 68.3353 38.6951 68.5702C39.1871 68.8051 39.7261 68.927 40.2721 68.927L61.3694 68.9218C61.9152 68.922 62.4539 68.8004 62.9458 68.5659C63.4376 68.3314 63.8699 67.9901 64.2106 67.5673L77.3616 51.2084C77.7024 50.7849 77.9425 50.2907 78.0642 49.7625C78.1858 49.2343 78.1858 48.6857 78.0642 48.1575L73.3676 27.7584C73.2461 27.2305 73.0062 26.7366 72.6658 26.3133C72.3254 25.89 71.8933 25.5482 71.4014 25.3132L52.3921 16.2354C51.8436 15.9736 51.2376 15.8525 50.6297 15.8834Z" fill="#E4E4E4"/>
<path d="M50.8184 22.8253C50.1898 22.8253 49.6809 23.3915 49.6809 24.0897L49.6831 24.1212C49.6823 24.2165 49.6779 24.3302 49.6809 24.4131C49.6955 24.8157 49.7836 25.1245 49.8364 25.4948C49.9317 26.2884 50.0124 26.9469 49.9625 27.5586C49.9148 27.7889 49.7447 28.0001 49.5936 28.1468L49.5665 28.6279C48.8744 28.6842 48.1872 28.7896 47.5101 28.9432C44.6643 29.5859 42.0755 31.0646 40.0765 33.1895C39.9383 33.0945 39.8014 32.9977 39.6658 32.8991C39.4626 32.9262 39.2573 32.9893 38.9903 32.8331C38.4806 32.4906 38.0171 32.0176 37.4561 31.447C37.1994 31.1749 37.0131 30.916 36.708 30.6527C36.6383 30.5933 36.532 30.5127 36.455 30.4511C36.2297 30.2694 35.9521 30.1645 35.6629 30.1518C35.4909 30.143 35.3191 30.1747 35.1616 30.2444C35.004 30.314 34.865 30.4198 34.7557 30.553C34.3641 31.0444 34.4895 31.7954 35.0344 32.2303L35.052 32.2427C35.1268 32.3036 35.2192 32.3813 35.2882 32.4319C35.6123 32.6718 35.9079 32.7942 36.2313 32.9842C36.9112 33.4044 37.4759 33.7528 37.9232 34.1723C38.0978 34.3593 38.1286 34.6871 38.1513 34.8294L38.5158 35.155C36.504 38.1731 35.6774 41.8279 36.1947 45.418L35.7179 45.5566C35.5933 45.7179 35.4151 45.9739 35.2295 46.0494C34.6443 46.2343 33.9857 46.3017 33.1907 46.3853C32.8167 46.4161 32.494 46.3978 32.0987 46.4726C32.0114 46.4895 31.8904 46.521 31.7951 46.543L31.7848 46.5452L31.7679 46.5503C31.0976 46.7117 30.6671 47.3277 30.8057 47.9364C30.9443 48.5429 31.5993 48.9118 32.274 48.7674L32.2908 48.7652L32.3128 48.7578C32.4067 48.7373 32.5248 48.7138 32.6062 48.6918C32.9956 48.5877 33.278 48.4351 33.6278 48.3009C34.3803 48.0296 35.0036 47.8052 35.6109 47.7172C35.8646 47.6974 36.1316 47.8734 36.2651 47.9482L36.7608 47.8631C37.902 51.401 40.2935 54.2604 43.3217 56.055L43.1149 56.5508C43.1897 56.7437 43.2718 57.004 43.2161 57.194C42.9961 57.766 42.6169 58.371 42.1864 59.045C41.9781 59.356 41.7647 59.5973 41.5762 59.9544C41.5315 60.0388 41.4736 60.17 41.4303 60.2602C41.1384 60.8858 41.3526 61.606 41.9143 61.8766C42.479 62.148 43.1809 61.862 43.4845 61.2349L43.4874 61.232V61.2298C43.5307 61.1403 43.5916 61.0244 43.6282 60.9401C43.7896 60.5712 43.8431 60.2544 43.9561 59.8972C44.2568 59.1418 44.4225 58.3483 44.8369 57.854C44.9505 57.7183 45.1354 57.6663 45.3275 57.6149L45.5849 57.1485C48.3096 58.1978 51.285 58.4117 54.1318 57.7631C54.7952 57.6125 55.4472 57.416 56.0833 57.1749C56.1567 57.3032 56.2909 57.5504 56.3268 57.6127C56.5219 57.6758 56.7346 57.7081 56.9077 57.9648C57.2179 58.4943 57.4298 59.1213 57.688 59.8782C57.8017 60.2353 57.8574 60.5514 58.018 60.921C58.0547 61.0046 58.1163 61.1234 58.1596 61.2122C58.4624 61.8414 59.1665 62.1289 59.7327 61.8568C60.2937 61.5855 60.5086 60.8653 60.2167 60.2404C60.1727 60.1502 60.1126 60.019 60.0678 59.9339C59.8793 59.5775 59.6659 59.3384 59.4576 59.0274C59.0271 58.3527 58.67 57.7939 58.4492 57.2211C58.3568 56.9255 58.4639 56.7422 58.5365 56.5501C58.4932 56.5009 58.4008 56.2222 58.3466 56.091C61.4703 54.2377 63.8043 51.3016 64.9052 47.8404C65.0519 47.8638 65.3086 47.9093 65.3915 47.9254C65.5623 47.8125 65.7193 47.6658 66.028 47.69C66.6353 47.778 67.2587 48.0032 68.0119 48.2731C68.3617 48.4073 68.6433 48.5628 69.0327 48.6669C69.1149 48.6889 69.2329 48.7094 69.3261 48.73L69.3481 48.7373L69.3657 48.7402C70.0404 48.8854 70.6953 48.5158 70.8339 47.9086C70.9725 47.3013 70.542 46.6853 69.871 46.5225C69.7734 46.5005 69.6356 46.4638 69.541 46.4455C69.1449 46.3707 68.8222 46.389 68.4489 46.3575C67.654 46.2746 66.9954 46.2071 66.4101 46.0223C66.1711 45.9299 66.0009 45.6461 65.9188 45.5287L65.4589 45.3953C65.6973 43.6718 65.6335 41.8787 65.2213 40.0841C64.8184 38.3246 64.0958 36.6541 63.0894 35.1557C63.2067 35.0494 63.4297 34.8528 63.4927 34.7942C63.5111 34.5903 63.4957 34.3761 63.7069 34.1503C64.1542 33.73 64.7182 33.3817 65.3988 32.9622C65.7215 32.7715 66.02 32.649 66.3441 32.4099C66.4175 32.3557 66.5172 32.2706 66.5942 32.2083C67.1399 31.7726 67.266 31.0224 66.8736 30.531C66.482 30.0396 65.723 29.9934 65.1773 30.4283C65.0996 30.4899 64.994 30.5706 64.9243 30.6307C64.6192 30.8933 64.4307 31.1529 64.1733 31.4257C63.6123 31.9956 63.1488 32.4708 62.6398 32.8133C62.4191 32.9416 62.0956 32.8976 61.949 32.8888L61.5163 33.1969C59.0491 30.6102 55.6902 28.9564 52.0732 28.6352C52.0625 28.4659 52.0535 28.2965 52.046 28.127C51.8979 27.9854 51.719 27.8644 51.6742 27.5586C51.6243 26.9469 51.7072 26.2884 51.8033 25.4948C51.8561 25.1237 51.9434 24.8157 51.9588 24.4131C51.9617 24.3214 51.9566 24.1887 51.9558 24.0897C51.9558 23.3915 51.4469 22.8253 50.8184 22.8253ZM49.3941 31.6494L49.056 37.617L49.0318 37.6294C49.0209 37.8878 48.9105 38.1319 48.7238 38.3107C48.5372 38.4896 48.2886 38.5895 48.03 38.5894C47.8178 38.5898 47.611 38.5225 47.4397 38.3973L47.4301 38.4024L42.537 34.9335C44.0955 33.4032 46.0502 32.3382 48.1811 31.8584C48.5815 31.7676 48.9864 31.6978 49.3941 31.6494ZM52.2455 31.6494C54.8162 31.9674 57.211 33.1219 59.0609 34.935L54.1993 38.3819L54.1824 38.3746C53.9735 38.5269 53.714 38.5928 53.4577 38.5586C53.2015 38.5245 52.9683 38.3929 52.8066 38.1912C52.6737 38.0256 52.5971 37.8218 52.588 37.6096L52.5829 37.6074L52.2455 31.6494ZM40.7622 37.1623L45.23 41.1592L45.2248 41.1834C45.6282 41.534 45.6876 42.142 45.3517 42.5637C45.2189 42.7304 45.0366 42.8506 44.831 42.9069L44.8266 42.9259L39.0989 44.579C38.8139 41.9906 39.3992 39.3811 40.7622 37.1623ZM60.8423 37.1652C61.5236 38.2705 62.019 39.48 62.309 40.7456C62.6046 42.0327 62.6787 43.3176 62.5569 44.5592L56.8006 42.9017L56.7955 42.8775C56.5465 42.8085 56.3337 42.6463 56.2012 42.4245C56.0687 42.2027 56.0268 41.9384 56.0841 41.6865C56.1307 41.4798 56.2419 41.2933 56.4016 41.1541L56.3994 41.1416L60.8423 37.1652ZM49.9016 41.4672H51.7322L52.8696 42.89L52.4619 44.6641L50.8184 45.4539L49.1704 44.6619L48.7619 42.8871L49.9016 41.4672ZM55.7702 46.334C55.8476 46.3309 55.9251 46.3365 56.0012 46.3509L56.0107 46.3391L61.9343 47.3402C61.0599 49.7981 59.3913 51.8946 57.1922 53.2982L54.8923 47.7436L54.8997 47.734C54.8356 47.5852 54.8084 47.4232 54.8205 47.2616C54.8326 47.1001 54.8836 46.9439 54.9691 46.8063C55.0546 46.6687 55.1721 46.5538 55.3116 46.4715C55.4511 46.3891 55.6084 46.3424 55.7702 46.334ZM45.8203 46.3582C45.985 46.3607 46.1465 46.4037 46.2907 46.4834C46.4348 46.5631 46.5571 46.677 46.6467 46.8152C46.7364 46.9533 46.7907 47.1114 46.8047 47.2755C46.8188 47.4396 46.7923 47.6046 46.7275 47.756L46.7444 47.778L44.4694 53.2762C42.2851 51.8784 40.6231 49.7988 39.7413 47.36L45.6143 46.3626L45.6238 46.3751C45.6886 46.3631 45.7544 46.3575 45.8203 46.3582ZM50.7817 48.7674C50.944 48.7616 51.1051 48.7959 51.2511 48.8671C51.4498 48.9624 51.6038 49.1135 51.7006 49.2947H51.7226L54.618 54.5259C54.238 54.6532 53.8518 54.7609 53.4608 54.8486C51.3316 55.3368 49.1086 55.2225 47.0407 54.5186L49.9288 49.2969H49.9339C50.0167 49.1423 50.1385 49.0121 50.2873 48.9192C50.436 48.8263 50.6065 48.774 50.7817 48.7674Z" fill="#191919"/>
</svg>
