<svg width="101" height="101" viewBox="0 0 101 101" fill="none" xmlns="http://www.w3.org/2000/svg">
<g clip-path="url(#clip0_2336_10748)">
<g clip-path="url(#clip1_2336_10748)">
<path d="M0.776367 61.486V46.5541H4.02644V48.4459C4.84642 46.9129 6.63213 46.1143 8.24049 46.1143C10.114 46.1143 11.7521 47.0049 12.5143 48.7532C13.6292 46.7896 15.2973 46.1143 17.1409 46.1143C19.7185 46.1143 22.1766 47.833 22.1766 51.7915V61.486H18.8985V52.373C18.8985 50.6247 18.0487 49.3052 16.1454 49.3052C14.3596 49.3052 13.1885 50.7774 13.1885 52.6177V61.4842H9.85235V52.373C9.85235 50.656 9.02886 49.3144 7.09742 49.3144C5.28363 49.3144 4.14058 50.726 4.14058 52.6269V61.4933L0.776367 61.486Z" fill="#E4E4E4"/>
<path d="M26.3311 61.486V39.2721H29.7286V61.486H26.3311Z" fill="#E4E4E4"/>
<path d="M28.3643 69.6163C29.128 69.839 29.8146 69.9844 31.272 69.9844C33.9812 69.9844 37.1768 68.3833 38.0179 63.8894L41.491 45.8713H46.6549L47.2853 42.8735H42.0687L42.771 39.2924C43.3083 36.5118 44.7762 35.1021 47.1325 35.1021C47.7454 35.1021 47.5732 35.1573 48.1193 35.2659L48.8743 32.1963C48.1474 31.9682 47.496 31.832 46.0773 31.832C44.5795 31.8084 43.1171 32.3104 41.9229 33.2582C40.6008 34.3292 39.7281 35.9026 39.3296 37.9343L38.3515 42.8735H33.7336L33.3561 45.8732H37.7809L34.5922 62.5331C34.241 64.4231 33.2156 66.683 30.2729 66.683C29.6056 66.683 29.8479 66.6296 29.244 66.5265L28.3643 69.6163Z" fill="#E4E4E4"/>
<path d="M49.7136 61.3645H46.3179L50.9726 38.9519H54.3684L49.7136 61.3645Z" fill="#E4E4E4"/>
<path d="M66.6541 47.4908C63.6904 45.3172 59.6551 45.7446 57.1662 48.4956C54.6772 51.2465 54.4843 55.4925 56.7125 58.479L58.9371 56.7675C57.8328 55.3317 57.6086 53.3609 58.3597 51.6932C59.1108 50.0255 60.7052 48.9543 62.4647 48.9354V50.7572L66.6541 47.4908Z" fill="#E4E4E4"/>
<path d="M58.2241 59.9861C61.1879 62.1597 65.2231 61.7323 67.712 58.9813C70.201 56.2303 70.3939 51.9844 68.1658 48.9979L65.9411 50.7094C67.0454 52.1451 67.2696 54.116 66.5185 55.7837C65.7674 57.4514 64.173 58.5225 62.4136 58.5415V56.7197L58.2241 59.9861Z" fill="#E4E4E4"/>
<path d="M72.4204 46.5449H76.1305L76.8855 56.7493L82.1688 46.5449L85.691 46.5983L87.0747 56.7493L91.7294 46.5449L95.1251 46.5983L88.0808 61.4953H84.685L83.0485 50.8162L77.6405 61.4953H74.1183L72.4204 46.5449Z" fill="#E4E4E4"/>
<path d="M97.1725 46.8098H96.4697V46.5541H98.1624V46.8153H97.4606V48.9722H97.1725V46.8098Z" fill="#E4E4E4"/>
<path d="M98.5874 46.5541H98.9388L99.381 47.8422C99.4379 48.0078 99.4902 48.1772 99.5443 48.3465H99.5608C99.6149 48.1772 99.6645 48.0078 99.7186 47.8422L100.157 46.5541H100.509V48.9722H100.235V47.638C100.235 47.4264 100.257 47.1356 100.272 46.9202H100.257L100.082 47.4723L99.6461 48.7256H99.4553L99.014 47.4742L98.8388 46.9222H98.825C98.8406 47.1374 98.8636 47.4282 98.8636 47.6398V48.974H98.5966L98.5874 46.5541Z" fill="#E4E4E4"/>
</g>
</g>
<defs>
<clipPath id="clip0_2336_10748">
<rect width="100" height="100" fill="white" transform="translate(0.776367 0.878662)"/>
</clipPath>
<clipPath id="clip1_2336_10748">
<rect width="100" height="38.4615" fill="white" transform="translate(0.776367 31.6479)"/>
</clipPath>
</defs>
</svg>
