<svg width="101" height="101" viewBox="0 0 101 101" fill="none" xmlns="http://www.w3.org/2000/svg">
<path fill-rule="evenodd" clip-rule="evenodd" d="M43.1687 68.9591L43.1705 85.8837H47.9494V68.9595L43.1687 68.9591ZM5.56787 68.9365V85.8837H10.3902V73.015L14.126 73.0164C15.3635 73.0164 16.2446 73.3243 16.841 73.9604C17.5974 74.7661 17.9057 76.065 17.9057 78.4418V85.8837H22.5779V76.5203C22.5779 69.8376 18.318 68.936 14.1504 68.936L5.56787 68.9365ZM50.8646 68.9595V85.8837H58.6175C62.7481 85.8837 64.0958 85.1964 65.5539 83.6565C66.5848 82.5751 67.2507 80.2014 67.2507 77.6076C67.2507 75.2291 66.6869 73.1064 65.7036 71.7848C63.9326 69.4216 61.3813 68.9595 57.5731 68.9595H50.8646ZM55.606 72.6443H57.6613C60.6426 72.6443 62.5713 73.9835 62.5713 77.4575C62.5713 80.9325 60.6426 82.2712 57.6613 82.2712H55.606V72.6443ZM36.2771 68.9595L32.288 82.373L28.4654 68.9604L23.3058 68.9595L28.7647 85.8837H35.654L41.1559 68.9595H36.2775H36.2771ZM69.4747 85.8837H74.2554V68.9609L69.4738 68.9595L69.4747 85.8837ZM82.8741 68.9654L76.1995 85.8778H80.9128L81.969 82.8884H89.8675L90.8666 85.8778H95.9846L89.2589 68.9641L82.8741 68.9654ZM85.977 72.0511L88.8723 79.974H82.9903L85.977 72.0511Z" fill="#E4E4E4"/>
<path fill-rule="evenodd" clip-rule="evenodd" d="M36.8498 29.3152V25.2493C37.2492 25.2209 37.6491 25.2004 38.0493 25.1878C49.1696 24.8383 56.4654 34.7428 56.4654 34.7428C56.4654 34.7428 48.5859 45.6868 40.1371 45.6868C38.92 45.6868 37.8313 45.491 36.8498 45.1614V32.8322C41.1788 33.3548 42.0492 35.2673 44.6524 39.6058L50.4409 34.7252C50.4409 34.7252 46.2159 29.1832 39.0928 29.1832C38.3174 29.1832 37.5768 29.2374 36.8498 29.3152ZM36.8498 15.8841V21.9574C37.2486 21.9258 37.6482 21.9004 38.0493 21.886C53.514 21.3651 63.5889 34.5688 63.5889 34.5688C63.5889 34.5688 52.0161 48.6405 39.9604 48.6405C38.8558 48.6405 37.8219 48.5388 36.8498 48.3665V52.1204C37.6808 52.2262 38.5416 52.2886 39.4404 52.2886C50.6597 52.2886 58.773 46.5594 66.6299 39.7781C67.9315 40.8211 73.2647 43.3584 74.3611 44.4702C66.8908 50.7238 49.482 55.7641 39.6127 55.7641C38.69 55.7606 37.7679 55.7126 36.8498 55.6203V60.8965H79.4917V15.8837H36.8503L36.8498 15.8841ZM36.8498 45.1614V48.3665C26.4728 46.516 23.5928 35.7303 23.5928 35.7303C23.5928 35.7303 28.5751 30.2099 36.8498 29.3152V32.8322C36.8435 32.8322 36.8389 32.8304 36.8335 32.8304C32.4914 32.3086 29.0987 36.3659 29.0987 36.3659C29.0987 36.3659 30.9994 43.1956 36.8498 45.1614ZM18.4197 35.2623C18.4197 35.2623 24.5694 26.1874 36.8498 25.2493V21.9574C23.2483 23.0488 11.4697 34.5683 11.4697 34.5683C11.4697 34.5683 18.1398 53.8548 36.8498 55.6203L36.8503 52.1209C23.1203 50.3929 18.4197 35.2623 18.4197 35.2623Z" fill="#E4E4E4"/>
</svg>
