<svg width="101" height="100" viewBox="0 0 101 100" fill="none" xmlns="http://www.w3.org/2000/svg">
<g clip-path="url(#clip0_2374_8216)">
<path d="M2.75729 43.0277C3.15143 43.3985 3.45573 43.8373 3.77258 44.2737C4.04093 44.6387 4.31758 44.9976 4.59271 45.3575C4.71939 45.5236 4.84606 45.6897 4.97272 45.8558C5.03668 45.9396 5.10064 46.0235 5.16654 46.1099C5.41805 46.4396 5.66932 46.7696 5.9206 47.0996C6.41494 47.7487 6.90971 48.3974 7.4055 49.0454C7.55055 49.2351 7.69558 49.4248 7.84061 49.6144C7.9498 49.7572 8.05904 49.8999 8.16832 50.0426C9.03255 51.1712 9.88522 52.3074 10.724 53.455C11.253 52.8366 11.7324 52.1963 12.1975 51.5295C12.5456 51.0311 12.9022 50.5397 13.2641 50.0512C13.6787 49.4912 14.0902 48.9291 14.4972 48.3635C15.0582 47.5844 15.627 46.8113 16.1976 46.0392C16.3661 45.8109 16.5341 45.5823 16.7019 45.3536C16.7581 45.2772 16.8142 45.2008 16.8721 45.122C16.9782 44.9776 17.0842 44.8332 17.1901 44.6886C18.4993 42.9079 18.4993 42.9079 19.134 42.7266C19.5059 42.7266 19.6888 42.7957 19.9977 42.9993C20.4059 43.4356 20.3748 43.9145 20.3742 44.4847C20.3745 44.5618 20.3747 44.639 20.375 44.7185C20.3758 44.9774 20.3759 45.2363 20.3761 45.4953C20.3765 45.6808 20.3769 45.8662 20.3774 46.0517C20.3786 46.5559 20.3792 47.0601 20.3796 47.5643C20.3799 47.8792 20.3803 48.1941 20.3807 48.509C20.3819 49.4939 20.3828 50.4789 20.3831 51.4639C20.3835 52.6014 20.3851 53.739 20.3878 54.8765C20.3897 55.7555 20.3907 56.6345 20.3908 57.5135C20.3909 58.0387 20.3914 58.5638 20.393 59.0889C20.3945 59.5828 20.3947 60.0767 20.3939 60.5705C20.3939 60.7518 20.3943 60.9331 20.3952 61.1144C20.3963 61.3618 20.3958 61.6092 20.3948 61.8567C20.3959 61.9643 20.3959 61.9643 20.397 62.0741C20.3924 62.5874 20.2803 62.9516 19.9523 63.3481C19.6356 63.5987 19.2917 63.5735 18.9067 63.5469C18.5726 63.3951 18.3695 63.2243 18.1794 62.9105C18.07 62.5831 18.0759 62.2664 18.0741 61.9232C18.0736 61.8605 18.0732 61.7979 18.0727 61.7333C18.0713 61.5233 18.0705 61.3134 18.0698 61.1034C18.0689 60.9529 18.068 60.8023 18.0671 60.6518C18.0646 60.2431 18.0627 59.8343 18.0609 59.4256C18.0589 58.9985 18.0564 58.5714 18.054 58.1442C18.0494 57.3354 18.0453 56.5266 18.0414 55.7177C18.0369 54.7969 18.0319 53.8761 18.0269 52.9552C18.0165 51.061 18.0068 49.1667 17.9975 47.2725C17.7644 47.5773 17.5315 47.8823 17.2986 48.1874C17.233 48.2731 17.1674 48.3588 17.0999 48.4472C16.755 48.8991 16.4153 49.3532 16.0882 49.8182C15.7076 50.359 15.3086 50.8845 14.9063 51.4093C14.5025 51.9362 14.101 52.4633 13.7187 53.0061C13.1834 53.7649 12.6234 54.5051 12.0633 55.2457C11.9584 55.3854 11.8544 55.5256 11.7513 55.6666C11.7033 55.7319 11.6553 55.7973 11.6059 55.8647C11.5638 55.9226 11.5217 55.9806 11.4783 56.0403C11.3058 56.2486 11.1718 56.319 10.9059 56.3644C10.6104 56.3871 10.6104 56.3871 10.2694 56.2734C9.69792 55.7711 9.25406 55.1221 8.79663 54.5176C8.50338 54.1301 8.20437 53.7472 7.90556 53.364C7.46787 52.8021 7.03235 52.2385 6.5986 51.6735C6.30845 51.2963 6.01587 50.921 5.72351 50.5456C5.01042 49.6293 4.30064 48.7111 3.60468 47.7818C3.55464 47.715 3.5046 47.6482 3.45305 47.5795C3.33096 47.4165 3.2089 47.2536 3.08687 47.0907C3.08667 47.2123 3.08667 47.2123 3.08646 47.3364C3.0831 49.3093 3.07773 51.2822 3.07015 53.2551C3.06653 54.2091 3.06358 55.1632 3.06223 56.1172C3.06105 56.9487 3.0586 57.7802 3.05463 58.6117C3.05257 59.052 3.05114 59.4923 3.05124 59.9327C3.05131 60.3471 3.04968 60.7614 3.04676 61.1758C3.04598 61.328 3.04583 61.4801 3.04634 61.6322C3.04694 61.84 3.04531 62.0476 3.04313 62.2553C3.0428 62.3715 3.04246 62.4877 3.04212 62.6075C2.98802 62.9625 2.88043 63.1109 2.63227 63.3651C2.31529 63.5946 2.01424 63.5799 1.63217 63.5469C1.29103 63.4288 1.13226 63.3455 0.936816 63.0399C0.785719 62.6573 0.775841 62.3489 0.779264 61.9419C0.778839 61.8638 0.778413 61.7858 0.777975 61.7054C0.776889 61.4445 0.777748 61.1836 0.778607 60.9227C0.778237 60.7354 0.777751 60.5481 0.777158 60.3608C0.775915 59.8525 0.776397 59.3442 0.777262 58.8359C0.777952 58.304 0.777312 57.772 0.776884 57.2401C0.776387 56.3467 0.777041 55.4534 0.77834 54.5601C0.779825 53.5273 0.779344 52.4945 0.777842 51.4617C0.776604 50.575 0.77643 49.6882 0.777143 48.8015C0.777569 48.2719 0.777625 47.7423 0.776724 47.2127C0.775936 46.7148 0.776483 46.2169 0.778059 45.719C0.77842 45.5362 0.778316 45.3535 0.777715 45.1708C0.77697 44.9213 0.777904 44.6719 0.779264 44.4225C0.778656 44.3502 0.778047 44.2779 0.77742 44.2033C0.782044 43.7661 0.850023 43.4713 1.08666 43.0902C1.57885 42.6298 2.21888 42.603 2.75729 43.0277Z" fill="#E4E4E4"/>
<path d="M50.8192 42.9085C51.6484 43.6614 52.3236 44.6012 52.9968 45.4923C53.3509 45.959 53.7173 46.4133 54.0923 46.8634C54.5657 47.432 55.0197 48.012 55.4656 48.6022C55.8151 49.0626 56.1772 49.5105 56.5471 49.9547C57.0205 50.5232 57.4745 51.1032 57.9204 51.6935C58.2699 52.1538 58.632 52.6018 59.0019 53.0459C59.4235 53.5522 59.8321 54.0658 60.2293 54.5915C60.6322 55.1248 61.0466 55.6458 61.4737 56.1599C61.9153 56.6914 62.3463 57.2283 62.7641 57.7788C63.0028 58.0929 63.2432 58.4058 63.4839 58.7184C63.5253 58.7722 63.5667 58.826 63.6094 58.8814C63.7101 59.0122 63.8108 59.143 63.9115 59.2738C63.9118 59.1522 63.9118 59.1522 63.9121 59.028C63.9175 57.0552 63.9244 55.0823 63.9329 53.1094C63.937 52.1554 63.9406 51.2013 63.943 50.2472C63.9451 49.4158 63.9481 48.5843 63.9523 47.7528C63.9545 47.3125 63.9562 46.8721 63.9567 46.4318C63.9573 46.0174 63.9591 45.603 63.9619 45.1886C63.9627 45.0365 63.963 44.8844 63.9628 44.7322C63.9627 44.5245 63.9642 44.3169 63.9661 44.1092C63.9666 43.993 63.967 43.8767 63.9674 43.757C64.005 43.4315 64.0808 43.26 64.2752 42.9994C64.556 42.8057 64.8582 42.7206 65.1989 42.7348C65.5187 42.7975 65.6802 42.8604 65.9194 43.0918C66.1546 43.4582 66.1443 43.7336 66.1397 44.1602C66.1403 44.2405 66.1408 44.3207 66.1414 44.4034C66.1429 44.6724 66.1417 44.9412 66.1406 45.2102C66.1411 45.403 66.1417 45.5958 66.1425 45.7886C66.1442 46.3123 66.1435 46.836 66.1424 47.3597C66.1415 47.9075 66.1423 48.4553 66.1429 49.0031C66.1435 49.923 66.1427 50.8429 66.1409 51.7628C66.139 52.8268 66.1396 53.8907 66.1416 54.9546C66.1433 55.8677 66.1435 56.7808 66.1425 57.6938C66.142 58.2393 66.1419 58.7848 66.1431 59.3304C66.1441 59.8432 66.1434 60.356 66.1413 60.8688C66.1408 61.0572 66.141 61.2455 66.1418 61.4339C66.1428 61.6907 66.1415 61.9475 66.1397 62.2043C66.1405 62.2791 66.1413 62.3539 66.1422 62.4309C66.1373 62.7868 66.1173 62.963 65.9259 63.2729C65.6699 63.5121 65.5032 63.5435 65.1559 63.5697C64.6652 63.5365 64.3802 63.3808 64.0351 63.0306C63.955 62.9346 63.8759 62.8377 63.7978 62.7401C63.7548 62.6878 63.7118 62.6355 63.6674 62.5816C63.3436 62.1853 63.0309 61.7806 62.7215 61.373C62.4143 60.9693 62.0961 60.5755 61.7749 60.183C61.3428 59.6547 60.9233 59.1191 60.5095 58.5763C60.2469 58.2349 59.9738 57.9022 59.7008 57.5691C59.2927 57.0708 58.8961 56.5656 58.5075 56.0519C58.0513 55.4491 57.5778 54.8633 57.0946 54.282C56.7047 53.812 56.331 53.3328 55.9614 52.8467C55.6942 52.498 55.4159 52.1585 55.1378 51.8185C54.7057 51.2901 54.2862 50.7546 53.8724 50.2118C53.565 49.8121 53.2435 49.4239 52.9239 49.0339C52.5491 48.5743 52.1857 48.1069 51.8268 47.6348C51.7731 47.5645 51.7195 47.4941 51.6642 47.4217C51.534 47.2508 51.4038 47.0799 51.2738 46.9089C51.2737 47.0318 51.2737 47.0318 51.2736 47.1573C51.2723 49.1514 51.2684 51.1456 51.2618 53.1397C51.2586 54.1041 51.2563 55.0684 51.256 56.0328C51.2557 56.8733 51.2539 57.7138 51.2501 58.5543C51.2482 58.9993 51.247 59.4444 51.2478 59.8894C51.2484 60.3084 51.247 60.7273 51.244 61.1463C51.2432 61.3 51.2432 61.4537 51.2441 61.6074C51.2451 61.8175 51.2434 62.0274 51.241 62.2375C51.2406 62.4137 51.2406 62.4137 51.2402 62.5935C51.1644 63.0128 51.0302 63.1595 50.7283 63.4561C50.3186 63.5926 49.9698 63.6121 49.5691 63.439C49.3264 63.2435 49.2255 63.1025 49.0917 62.8197C49.0659 62.5521 49.0549 62.3042 49.0571 62.0369C49.0567 61.9582 49.0562 61.8795 49.0558 61.7984C49.0547 61.5347 49.0556 61.271 49.0564 61.0073C49.0561 60.8183 49.0556 60.6292 49.055 60.4401C49.0537 59.9265 49.0542 59.413 49.0551 58.8994C49.0558 58.3621 49.0551 57.8248 49.0547 57.2875C49.0542 56.3851 49.0549 55.4827 49.0562 54.5803C49.0577 53.5369 49.0572 52.4935 49.0557 51.4501C49.0544 50.5545 49.0543 49.6589 49.055 48.7633C49.0554 48.2283 49.0555 47.6933 49.0546 47.1583C49.0538 46.6552 49.0543 46.1522 49.0559 45.6491C49.0563 45.4645 49.0561 45.2798 49.0555 45.0952C49.0548 44.8432 49.0557 44.5912 49.0571 44.3392C49.0565 44.2661 49.0559 44.193 49.0553 44.1177C49.0598 43.6802 49.1198 43.3769 49.3645 42.9994C49.8532 42.6866 50.2865 42.66 50.8192 42.9085Z" fill="#E4E4E4"/>
<path d="M31.4327 42.7869C31.5132 42.7859 31.5937 42.7848 31.6766 42.7837C31.9427 42.7806 32.2087 42.7789 32.4748 42.7775C32.6114 42.7766 32.6114 42.7766 32.7507 42.7756C33.2326 42.7724 33.7145 42.7702 34.1963 42.769C34.6933 42.7675 35.1901 42.7622 35.687 42.756C36.0698 42.7519 36.4526 42.7507 36.8354 42.7502C37.0186 42.7495 37.2017 42.7477 37.3848 42.7448C38.997 42.7211 38.997 42.7211 39.405 43.0646C39.5149 43.1923 39.6218 43.3225 39.727 43.4541C39.8613 43.5911 39.9989 43.724 40.1369 43.8572C40.4109 44.1224 40.679 44.3935 40.9484 44.6634C41.0654 44.7803 41.1823 44.8972 41.2993 45.014C41.543 45.2576 41.7865 45.5013 42.0299 45.7451C42.3422 46.058 42.655 46.3704 42.9679 46.6828C43.2088 46.9234 43.4495 47.1642 43.6902 47.4051C43.8055 47.5205 43.9209 47.6358 44.0363 47.751C44.1969 47.9114 44.3572 48.072 44.5175 48.2328C44.5892 48.3042 44.5892 48.3042 44.6624 48.3772C45.0986 48.8159 45.1064 49.0921 45.1117 49.6945C45.1127 49.7758 45.1137 49.8572 45.1148 49.9409C45.1249 50.7924 45.1292 51.644 45.1331 52.4955C45.1351 52.8995 45.1389 53.3033 45.1442 53.7072C45.1507 54.195 45.154 54.6826 45.1552 55.1704C45.1561 55.3561 45.1581 55.5417 45.1613 55.7274C45.1877 57.3639 45.1877 57.3639 44.8443 57.7716C44.7166 57.8809 44.5864 57.9873 44.4548 58.092C44.3181 58.2261 44.1855 58.3638 44.0527 58.5018C43.7883 58.7759 43.5179 59.044 43.2487 59.3134C43.132 59.4303 43.0154 59.5473 42.8987 59.6643C42.6556 59.908 42.4122 60.1515 42.1688 60.3949C41.8566 60.7071 41.545 61.0199 41.2336 61.3328C40.9935 61.5739 40.753 61.8146 40.5124 62.0551C40.3973 62.1704 40.2823 62.2858 40.1675 62.4013C40.0076 62.5621 39.8471 62.7223 39.6865 62.8824C39.6155 62.9542 39.6155 62.9542 39.543 63.0274C39.0965 63.4701 38.7403 63.4703 38.1368 63.4723C38.0579 63.4729 37.9791 63.4735 37.8979 63.4741C37.6368 63.4759 37.3757 63.477 37.1145 63.4779C36.9807 63.4784 36.9807 63.4784 36.8441 63.479C36.3718 63.4809 35.8995 63.4822 35.4271 63.483C34.9397 63.484 34.4523 63.4872 33.9649 63.4908C33.5897 63.4932 33.2145 63.4939 32.8394 63.4942C32.6597 63.4947 32.4801 63.4957 32.3004 63.4974C32.0486 63.4996 31.7969 63.4996 31.5451 63.4989C31.4344 63.5007 31.4344 63.5007 31.3215 63.5025C30.5238 63.4952 30.068 63.1128 29.5279 62.5632C29.4757 62.5112 29.4236 62.4593 29.3699 62.4058C29.1994 62.2356 29.0299 62.0644 28.8605 61.8932C28.7416 61.774 28.6227 61.6549 28.5037 61.5359C28.2553 61.2871 28.0074 61.0378 27.7598 60.7882C27.4424 60.4682 27.1241 60.149 26.8056 59.8301C26.5604 59.5845 26.3155 59.3387 26.0707 59.0928C25.9534 58.975 25.836 58.8572 25.7186 58.7395C25.555 58.5752 25.3917 58.4106 25.2284 58.2459C25.1799 58.1973 25.1314 58.1487 25.0814 58.0986C24.6014 57.613 24.5158 57.3123 24.5129 56.6433C24.5113 56.5186 24.5113 56.5186 24.5097 56.3914C24.5066 56.116 24.5049 55.8405 24.5035 55.5651C24.5028 55.471 24.5022 55.3768 24.5016 55.2798C24.4983 54.7815 24.4962 54.2831 24.4949 53.7847C24.4934 53.2705 24.4881 52.7565 24.4819 52.2424C24.4778 51.8465 24.4766 51.4507 24.4761 51.0548C24.4754 50.8654 24.4736 50.6759 24.4708 50.4864C24.467 50.2207 24.4673 49.9552 24.4685 49.6894C24.4665 49.6117 24.4645 49.534 24.4624 49.4539C24.4709 48.9097 24.6292 48.6423 25.008 48.2561C25.0648 48.2016 25.1215 48.1471 25.18 48.0909C25.2693 47.9979 25.3585 47.9048 25.4474 47.8114C25.536 47.722 25.6249 47.6328 25.7139 47.5439C25.7631 47.4944 25.8122 47.4449 25.8629 47.394C26.0227 47.2332 26.1829 47.0729 26.3432 46.9125C26.4555 46.7999 26.5679 46.6872 26.6803 46.5745C26.9145 46.3398 27.1489 46.1052 27.3834 45.8708C27.6837 45.5704 27.9835 45.2694 28.2831 44.9683C28.5143 44.736 28.746 44.5041 28.9778 44.2724C29.0885 44.1615 29.1991 44.0506 29.3096 43.9394C29.4636 43.7845 29.6182 43.6302 29.7729 43.476C29.8182 43.4302 29.8635 43.3843 29.9102 43.3371C30.4075 42.8443 30.7425 42.7901 31.4327 42.7869ZM26.4529 49.7275C25.6099 51.8576 25.6099 54.4163 26.4529 56.5464C27.4135 58.7137 29.3477 60.6682 31.5671 61.536C33.7989 62.3208 36.5127 62.2974 38.6675 61.2769C40.6967 60.2413 42.4928 58.3999 43.241 56.224C43.9514 53.9406 43.9107 51.2004 42.8127 49.0444C41.7162 47.0371 39.8581 45.2993 37.6555 44.6016C33.1274 43.3047 28.3856 45.367 26.4529 49.7275Z" fill="#E4E4E4"/>
<path d="M78.7593 42.7039C78.8284 42.7015 78.8974 42.6992 78.9685 42.6968C79.257 42.7364 79.4095 42.8208 79.6401 42.9994C79.8021 43.2483 79.8021 43.2483 79.9583 43.5733C79.9886 43.6361 80.0188 43.6988 80.05 43.7635C80.4601 44.6287 80.8316 45.512 81.2092 46.3918C81.5486 47.1824 81.8944 47.9702 82.2409 48.7578C82.8177 50.0688 83.3924 51.3805 83.9644 52.6936C83.9961 52.7664 84.0279 52.8392 84.0605 52.9142C84.3162 53.501 84.5717 54.0879 84.8272 54.6748C85.019 55.1155 85.2109 55.5561 85.4029 55.9967C85.4664 56.1426 85.53 56.2885 85.5935 56.4344C85.9711 57.3016 86.3503 58.1679 86.7318 59.0334C86.8075 59.2053 86.8832 59.3772 86.9589 59.5491C87.1038 59.8781 87.249 60.2069 87.3945 60.5356C87.4604 60.6853 87.5264 60.8349 87.5923 60.9846C87.6222 61.052 87.6522 61.1195 87.683 61.189C88.1694 62.2953 88.1694 62.2953 88.0046 62.9106C87.8119 63.2208 87.6323 63.4286 87.2773 63.547C86.8704 63.5854 86.5766 63.5727 86.2372 63.3305C84.8642 61.9055 83.8821 58.1403 83.2769 56.7281C80.2465 56.6981 77.2162 56.6681 74.0941 56.6372C74.0041 56.9072 73.914 57.1772 73.8213 57.4554C73.7519 57.6328 73.6802 57.8093 73.6056 57.9846C73.5652 58.0799 73.5248 58.1752 73.4832 58.2734C73.4403 58.3737 73.3974 58.474 73.3532 58.5774C73.3083 58.683 73.2633 58.7887 73.217 58.8975C73.1223 59.12 73.0274 59.3425 72.9323 59.5648C72.8115 59.8472 72.6914 60.1297 72.5713 60.4124C72.4553 60.6854 72.3388 60.9582 72.2224 61.231C72.1586 61.3812 72.1586 61.3812 72.0935 61.5345C71.3933 63.1689 71.3933 63.1689 71.0597 63.4674C70.6521 63.6033 70.3281 63.6122 69.9345 63.4333C69.5812 63.1585 69.5812 63.1585 69.4572 62.9106C69.3839 62.3131 69.51 61.858 69.7609 61.3216C69.809 61.2138 69.809 61.2138 69.8581 61.1038C69.9637 60.8682 70.0713 60.6336 70.1789 60.3989C70.2539 60.2324 70.3287 60.0658 70.4033 59.8991C70.5574 59.5554 70.712 59.212 70.8671 58.8688C71.1754 58.1849 71.4742 57.4969 71.7725 56.8085C71.9309 56.4433 72.09 56.0784 72.2491 55.7134C72.2808 55.6406 72.3126 55.5677 72.3453 55.4926C72.7892 54.4745 73.2363 53.4576 73.6832 52.4407C73.7513 52.2855 73.8195 52.1303 73.8877 51.9751C73.9209 51.8995 73.9542 51.8239 73.9884 51.746C74.2717 51.1009 74.5542 50.4556 74.8364 49.81C75.0737 49.2672 75.3112 48.7245 75.5488 48.1817C75.5981 48.069 75.5981 48.069 75.6484 47.954C75.8667 47.4553 76.0852 46.9566 76.3038 46.458C76.3751 46.2952 76.4464 46.1324 76.5177 45.9696C76.7106 45.5289 76.9045 45.0885 77.0995 44.6486C77.1803 44.4655 77.2596 44.2818 77.3387 44.098C77.4076 43.9415 77.4076 43.9415 77.4779 43.7818C77.5355 43.6489 77.5355 43.6489 77.5943 43.5133C77.8758 43.016 78.1866 42.7154 78.7593 42.7039ZM78.64 46.1815C77.8222 48.0349 77.0076 49.8897 76.2073 51.7507C76.1362 51.916 76.065 52.0813 75.9937 52.2465C75.8934 52.4787 75.7937 52.7111 75.694 52.9436C75.6648 53.0111 75.6356 53.0786 75.6055 53.1481C75.4082 53.6105 75.2544 54.0654 75.0942 54.546C77.4944 54.546 79.8947 54.546 82.3677 54.546C82.1389 53.8575 82.1389 53.8575 81.8705 53.1918C81.8269 53.0919 81.7832 52.9919 81.7383 52.889C81.691 52.7814 81.6436 52.6737 81.5949 52.5629C81.5174 52.3858 81.4402 52.2087 81.3629 52.0316C81.3067 51.9027 81.2504 51.7739 81.1941 51.645C80.7537 50.6369 80.3195 49.626 79.8839 48.6157C79.7751 48.3634 79.6662 48.1112 79.5574 47.8589C79.5091 47.747 79.5091 47.747 79.4599 47.6327C79.2505 47.1475 79.0374 46.664 78.8218 46.1815C78.7618 46.1815 78.7018 46.1815 78.64 46.1815Z" fill="#E4E4E4"/>
<path d="M32.0552 45.7497C32.362 45.8179 32.362 45.8179 32.4529 45.9088C32.4566 46.0603 32.4568 46.2119 32.4529 46.3634C32.5038 46.3768 32.5547 46.3901 32.6071 46.4039C33.2125 46.5733 33.7687 46.8117 34.3352 47.0808C34.9633 47.2921 35.4929 46.9744 36.067 46.7214C36.2217 46.6538 36.3765 46.5864 36.5315 46.5193C36.5994 46.4894 36.6674 46.4595 36.7374 46.4287C36.908 46.3634 36.908 46.3634 37.0898 46.3634C37.0992 46.2922 37.1085 46.2209 37.1182 46.1475C37.1807 45.9088 37.1807 45.9088 37.4535 45.727C37.7143 45.6944 37.8487 45.6822 38.0617 45.8428C38.1808 45.9997 38.1808 45.9997 38.1322 46.3577C38.1217 46.4302 38.1113 46.5026 38.1005 46.5772C38.0645 47.3953 38.5149 48.3606 38.9991 49.0001C39.596 49.4782 40.4611 49.8367 41.2354 49.8103C41.3744 49.7934 41.5131 49.7729 41.6508 49.7472C41.8176 49.7274 41.8176 49.7274 42.0505 49.824C42.2379 50.0765 42.2259 50.2391 42.1812 50.5457C42.0676 50.7161 42.0676 50.7161 41.9085 50.8184C41.7885 50.8184 41.6685 50.8184 41.5448 50.8184C41.5378 50.8762 41.5307 50.934 41.5235 50.9935C41.4617 51.2416 41.3851 51.434 41.2763 51.6633C40.8057 52.538 40.8057 52.538 40.7834 53.4835C40.8505 53.6279 40.9232 53.7698 40.9993 53.9097C41.072 54.0767 41.1445 54.2438 41.2152 54.4117C41.2861 54.5787 41.3605 54.7441 41.4351 54.9094C41.5448 55.1825 41.5448 55.1825 41.5448 55.4553C41.6329 55.4665 41.7211 55.4778 41.8119 55.4894C41.9038 55.5081 41.9957 55.5269 42.0903 55.5462C42.2159 55.7974 42.1986 55.996 42.1812 56.2736C41.9994 56.4554 41.9994 56.4554 41.6812 56.4724C41.363 56.4554 41.363 56.4554 41.1811 56.3645C40.3587 56.5236 39.3489 56.8473 38.8058 57.5092C38.289 58.3742 38.0251 59.1868 38.1808 60.1831C38.0388 60.4217 38.0388 60.4217 37.8171 60.5467C37.5387 60.5581 37.5387 60.5581 37.2716 60.4558C37.2413 60.3729 37.2109 60.2901 37.1797 60.2047C36.9025 59.7533 36.5027 59.6473 36.0215 59.4614C35.9327 59.4241 35.8438 59.3867 35.7523 59.3483C35.0533 59.069 34.6282 59.0698 33.9286 59.3509C33.7754 59.4173 33.6226 59.4844 33.4701 59.5523C33.3162 59.6199 33.1622 59.6873 33.008 59.7544C32.9407 59.7843 32.8733 59.8142 32.8039 59.845C32.6348 59.9103 32.6348 59.9103 32.4529 59.9103C32.4361 60.0172 32.4361 60.0172 32.4189 60.1262C32.362 60.3649 32.362 60.3649 32.1802 60.5467C31.6843 60.5054 31.6843 60.5054 31.4528 60.274C31.4331 59.9652 31.4455 59.7505 31.5438 59.4557C31.401 58.6207 31.0752 57.5901 30.368 57.0823C29.731 56.7537 29.0554 56.5389 28.3616 56.3645C28.3166 56.4095 28.3166 56.4095 28.2707 56.4554C27.9582 56.4724 27.9582 56.4724 27.6343 56.4554C27.4524 56.2736 27.4524 56.2736 27.4297 55.9553C27.4524 55.6371 27.4524 55.6371 27.6343 55.4553C27.6925 55.4454 27.7508 55.4355 27.8108 55.4253C28.0853 55.3359 28.1332 55.1874 28.2643 54.935C28.8464 53.7479 28.8464 53.7479 28.7828 52.4646C28.4323 51.4408 28.4323 51.4408 27.6911 50.7126C27.6123 50.6875 27.5336 50.6624 27.4524 50.6366C27.4191 50.048 27.4191 50.048 27.5643 49.8395C27.7252 49.7274 27.7252 49.7274 27.9155 49.7348C27.9877 49.7501 28.0599 49.7653 28.1343 49.781C28.7158 49.8587 29.1177 49.6637 29.6345 49.4149C29.8029 49.3371 29.9715 49.2596 30.1402 49.1822C30.2135 49.1474 30.2867 49.1125 30.3622 49.0766C30.5437 49.0001 30.5437 49.0001 30.7255 49.0001C30.7328 48.9424 30.74 48.8847 30.7475 48.8253C30.8081 48.579 30.8834 48.3815 30.9876 48.152C31.0205 48.0792 31.0535 48.0064 31.0874 47.9314C31.1563 47.781 31.2264 47.6311 31.2976 47.4818C31.5102 47.0057 31.5755 46.6872 31.4585 46.1742C31.4528 45.9997 31.4528 45.9997 31.5655 45.8388C31.7256 45.727 31.7256 45.727 32.0552 45.7497ZM32.6348 46.7271C32.7677 46.8848 32.9014 47.0417 33.0368 47.1973C33.148 47.3261 33.2558 47.4579 33.3621 47.5908C33.5432 47.7558 33.5432 47.7558 33.8224 47.7215C34.0931 47.6351 34.1771 47.5662 34.3622 47.3635C34.1086 47.2571 33.8547 47.1511 33.6008 47.0453C33.5286 47.0149 33.4564 46.9846 33.382 46.9533C33.3129 46.9246 33.2437 46.8959 33.1725 46.8663C33.1087 46.8396 33.0449 46.813 32.9791 46.7855C32.8169 46.7168 32.8169 46.7168 32.6348 46.7271ZM35.8908 47.0851C35.8313 47.1115 35.7718 47.1379 35.7106 47.1652C35.5638 47.2305 35.4176 47.2969 35.2714 47.3635C35.2714 47.4235 35.2714 47.4835 35.2714 47.5454C35.5725 47.6913 35.5725 47.6913 35.8993 47.7101C36.1531 47.6117 36.2891 47.4633 36.4761 47.2669C36.5724 47.1669 36.5724 47.1669 36.6707 47.0648C36.719 47.0134 36.7673 46.9619 36.817 46.9089C36.4449 46.7849 36.2288 46.9302 35.8908 47.0851ZM37.7262 46.9089C37.7262 47.449 37.7262 47.989 37.7262 48.5455C37.9963 48.6355 38.2663 48.7255 38.5445 48.8182C38.4574 48.5852 38.3703 48.3522 38.2831 48.1193C38.2586 48.0537 38.2341 47.9881 38.2089 47.9206C38.082 47.5818 37.9533 47.2441 37.8171 46.9089C37.7871 46.9089 37.7571 46.9089 37.7262 46.9089ZM32.4529 46.9998C32.4716 47.0557 32.4902 47.1117 32.5094 47.1693C32.6118 47.4765 32.7142 47.7837 32.8166 48.0909C32.9966 48.0309 33.1767 47.9709 33.3621 47.909C32.9538 47.4062 32.9538 47.4062 32.4529 46.9998ZM37.4535 46.9998C37.3035 47.3899 37.1534 47.7799 36.9989 48.1818C37.2548 48.3888 37.2548 48.3888 37.5444 48.3636C37.5444 47.9136 37.5444 47.4635 37.5444 46.9998C37.5144 46.9998 37.4844 46.9998 37.4535 46.9998ZM31.7256 47.0908C31.6168 47.3442 31.509 47.5981 31.4017 47.8522C31.3706 47.9244 31.3395 47.9966 31.3074 48.071C31.2639 48.1747 31.2639 48.1747 31.2195 48.2805C31.1924 48.3443 31.1652 48.4081 31.1373 48.4739C31.0669 48.6436 31.0669 48.6436 31.1801 48.8182C31.3901 48.7282 31.6001 48.6382 31.8165 48.5455C31.8165 48.0654 31.8165 47.5854 31.8165 47.0908C31.7865 47.0908 31.7565 47.0908 31.7256 47.0908ZM32.0893 47.0908C32.0893 47.5108 32.0893 47.9309 32.0893 48.3636C32.2393 48.3336 32.3893 48.3036 32.5439 48.2727C32.4901 47.8321 32.3639 47.4901 32.1802 47.0908C32.1502 47.0908 32.1202 47.0908 32.0893 47.0908ZM36.9989 47.0908C36.7589 47.3308 36.5188 47.5708 36.2715 47.8181C36.3015 47.8781 36.3315 47.9381 36.3624 47.9999C36.5465 48.0592 36.5465 48.0592 36.7261 48.0909C36.7897 47.9759 36.852 47.8602 36.9136 47.7442C36.9485 47.6799 36.9833 47.6156 37.0191 47.5493C37.1173 47.3502 37.1173 47.3502 36.9989 47.0908ZM33.9076 47.909C34.0357 48.2014 34.1898 48.3929 34.4191 48.6137C34.4765 48.6694 34.5339 48.7252 34.5931 48.7827C34.6369 48.8244 34.6808 48.8661 34.7259 48.9091C34.8264 48.824 34.9268 48.7388 35.0271 48.6534C35.083 48.606 35.1389 48.5585 35.1965 48.5096C35.4245 48.3091 35.4245 48.3091 35.6351 48.0909C35.6351 48.0309 35.6351 47.9709 35.6351 47.909C34.944 47.5838 34.5988 47.5838 33.9076 47.909ZM32.9985 48.3636C33.1745 48.9278 33.3854 49.4645 33.6349 50.0002C33.7354 49.9151 33.8358 49.8298 33.9361 49.7445C33.992 49.697 34.0479 49.6495 34.1055 49.6006C34.2581 49.4663 34.4021 49.3273 34.5441 49.1819C34.4105 48.8729 34.2367 48.6682 33.9986 48.4318C33.9348 48.3676 33.871 48.3034 33.8054 48.2372C33.4885 47.9652 33.3143 48.1642 32.9985 48.3636ZM35.9988 48.0909C35.6687 48.4209 35.3387 48.7509 34.9987 49.091C35.0831 49.1904 35.1674 49.2897 35.2544 49.3921C35.3018 49.448 35.3493 49.504 35.3982 49.5615C35.5987 49.7896 35.5987 49.7896 35.8169 50.0002C35.8769 50.0002 35.9369 50.0002 35.9988 50.0002C36.2088 49.4601 36.4188 48.92 36.6352 48.3636C36.4252 48.2736 36.2152 48.1836 35.9988 48.0909ZM36.908 48.4545C36.6095 49.0195 36.3679 49.5708 36.1806 50.182C36.6307 50.182 37.0807 50.182 37.5444 50.182C37.5444 49.7019 37.5444 49.2219 37.5444 48.7273C37.3344 48.6373 37.1243 48.5473 36.908 48.4545ZM32.6348 48.4545C32.4548 48.5446 32.2747 48.6346 32.0893 48.7273C32.0893 49.2074 32.0893 49.6874 32.0893 50.182C32.5393 50.182 32.9894 50.182 33.4531 50.182C33.3515 49.9108 33.2491 49.64 33.1462 49.3694C33.1174 49.2921 33.0885 49.2148 33.0588 49.1352C33.0307 49.0616 33.0026 48.9881 32.9736 48.9123C32.9479 48.8442 32.9222 48.7762 32.8957 48.706C32.8283 48.5284 32.8283 48.5284 32.6348 48.4545ZM37.7262 48.8182C37.7262 49.2683 37.7262 49.7183 37.7262 50.182C38.1763 50.182 38.6263 50.182 39.09 50.182C39.0506 50.0526 39.0113 49.9232 38.9707 49.7899C38.9485 49.7171 38.9264 49.6443 38.9036 49.5694C38.7756 49.2645 38.6437 49.1326 38.3389 49.0047C38.2661 48.9825 38.1933 48.9604 38.1183 48.9375C37.9889 48.8982 37.8595 48.8588 37.7262 48.8182ZM30.8164 49.2728C30.6054 49.5564 30.5437 49.8277 30.5437 50.182C30.9637 50.182 31.3837 50.182 31.8165 50.182C31.8165 49.732 31.8165 49.2819 31.8165 48.8182C31.4805 48.8182 31.0878 49.095 30.8164 49.2728ZM34.7259 49.3637C34.6044 49.4828 34.4833 49.6022 34.3622 49.7217C34.2947 49.7882 34.2272 49.8546 34.1577 49.9231C33.9881 50.0635 33.9881 50.0635 33.9986 50.182C34.5386 50.182 35.0787 50.182 35.6351 50.182C35.5113 50.0301 35.5113 50.0301 35.3851 49.8751C35.3387 49.8182 35.2922 49.7612 35.2444 49.7025C35.0821 49.538 34.9369 49.4545 34.7259 49.3637ZM29.8152 49.5939C29.7464 49.6226 29.6775 49.6513 29.6066 49.6809C29.5352 49.7112 29.4637 49.7416 29.3901 49.7729C29.2814 49.8184 29.2814 49.8184 29.1705 49.8648C28.9916 49.9398 28.8129 50.0154 28.6344 50.0911C28.6344 50.1211 28.6344 50.1511 28.6344 50.182C29.1444 50.182 29.6545 50.182 30.18 50.182C30.4663 49.711 30.4663 49.711 30.4527 49.4546C30.182 49.4546 30.0591 49.4912 29.8152 49.5939ZM39.1809 49.4546C39.2284 49.7058 39.2817 49.9389 39.3628 50.182C39.8728 50.182 40.3829 50.182 40.9084 50.182C40.5942 49.9463 40.3508 49.8123 39.9935 49.6649C39.8987 49.6252 39.8039 49.5854 39.7062 49.5445C39.4555 49.4394 39.4555 49.4394 39.1809 49.4546ZM28.6344 50.3638C28.9531 50.6029 29.1092 50.6889 29.4754 50.79C29.5565 50.8129 29.6376 50.8357 29.7211 50.8593C29.7825 50.8758 29.8439 50.8923 29.9072 50.9093C29.9672 50.7293 30.0272 50.5493 30.0891 50.3638C29.609 50.3638 29.129 50.3638 28.6344 50.3638ZM30.3618 50.3638C30.1631 50.779 30.1631 50.779 30.18 51.0912C30.4185 51.1977 30.6571 51.3037 30.896 51.4094C30.9638 51.4398 31.0317 51.4701 31.1016 51.5014C31.1666 51.5301 31.2317 51.5588 31.2987 51.5884C31.3587 51.6151 31.4187 51.6417 31.4805 51.6692C31.6355 51.7384 31.6355 51.7384 31.8165 51.7276C31.8165 51.2776 31.8165 50.8275 31.8165 50.3638C31.3365 50.3638 30.8564 50.3638 30.3618 50.3638ZM32.0893 50.3638C32.0893 50.7539 32.0893 51.1439 32.0893 51.5458C32.5344 51.1808 32.9062 50.809 33.2712 50.3638C32.8812 50.3638 32.4911 50.3638 32.0893 50.3638ZM33.8167 50.3638C34.2591 51.5505 34.2591 51.5505 34.7259 52.7277C34.9947 52.5933 35.0159 52.4074 35.1244 52.1307C35.1648 52.0285 35.2053 51.9262 35.2469 51.8208C35.2888 51.7132 35.3306 51.6055 35.3737 51.4946C35.4163 51.3866 35.4588 51.2786 35.5026 51.1674C35.608 50.8997 35.7125 50.6318 35.8169 50.3638C35.1569 50.3638 34.4968 50.3638 33.8167 50.3638ZM36.2715 50.3638C36.6439 50.8088 37.0228 51.2464 37.4535 51.6367C37.4835 51.6367 37.5135 51.6367 37.5444 51.6367C37.5444 51.2167 37.5444 50.7966 37.5444 50.3638C37.1243 50.3638 36.7043 50.3638 36.2715 50.3638ZM37.7262 50.3638C37.7262 50.8139 37.7262 51.2639 37.7262 51.7276C38.3127 51.5384 38.8838 51.3256 39.4537 51.0912C39.3755 50.6973 39.3755 50.6973 39.1809 50.3638C38.9358 50.3572 38.693 50.3554 38.4479 50.3582C38.3444 50.3588 38.3444 50.3588 38.2389 50.3594C38.068 50.3605 37.8971 50.3621 37.7262 50.3638ZM39.5446 50.3638C39.5746 50.5139 39.6046 50.6639 39.6355 50.8184C39.9978 50.9392 40.1265 50.8395 40.4708 50.6877C40.619 50.6232 40.619 50.6232 40.7702 50.5574C40.8458 50.5235 40.9214 50.4897 40.9993 50.4548C40.9993 50.4248 40.9993 50.3947 40.9993 50.3638C40.5193 50.3638 40.0392 50.3638 39.5446 50.3638ZM33.4168 50.6625C33.364 50.7158 33.3111 50.7692 33.2567 50.8241C33.1995 50.8815 33.1424 50.939 33.0835 50.9981C32.9936 51.0892 32.9936 51.0892 32.9019 51.1821C32.8114 51.2732 32.8114 51.2732 32.7191 51.3661C32.5696 51.5167 32.4203 51.6675 32.2711 51.8185C32.5859 52.1696 32.9799 52.2998 33.4076 52.4777C33.4865 52.5119 33.5653 52.5461 33.6466 52.5814C33.7604 52.6292 33.7604 52.6292 33.8764 52.678C33.9456 52.7072 34.0148 52.7364 34.0861 52.7665C34.287 52.8418 34.287 52.8418 34.5441 52.7277C34.244 52.0076 33.944 51.2876 33.6349 50.5457C33.5263 50.5354 33.5263 50.5354 33.4168 50.6625ZM35.9988 50.5457C35.5487 51.6258 35.5487 51.6258 35.0896 52.7277C35.2711 52.8449 35.2711 52.8449 35.4757 52.7538C35.5585 52.7191 35.6414 52.6843 35.7267 52.6485C35.8164 52.6113 35.906 52.5741 35.9984 52.5358C36.1392 52.4761 36.1392 52.4761 36.2829 52.4152C36.3775 52.3758 36.4721 52.3363 36.5695 52.2957C36.8038 52.1979 37.0378 52.0994 37.2716 52.0004C37.2993 51.7344 37.2993 51.7344 37.1646 51.5882C37.0912 51.516 37.0912 51.516 37.0163 51.4424C36.9634 51.39 36.9104 51.3375 36.8559 51.2835C36.772 51.2024 36.772 51.2024 36.6863 51.1196C36.6307 51.0645 36.5751 51.0093 36.5178 50.9525C36.2912 50.6826 36.2912 50.6826 35.9988 50.5457ZM40.306 50.9548C40.2149 50.997 40.1237 51.0392 40.0297 51.0827C39.9597 51.1155 39.8896 51.1483 39.8174 51.1821C39.8774 51.3621 39.9374 51.5421 39.9992 51.7276C40.3753 51.4202 40.7096 51.1216 40.9993 50.7275C40.7339 50.7275 40.5456 50.8434 40.306 50.9548ZM28.7253 50.8184C28.8078 50.9213 28.8914 51.0235 28.9753 51.1253C29.0217 51.1822 29.0681 51.2392 29.1159 51.2979C29.2782 51.4624 29.4235 51.5459 29.6345 51.6367C29.6645 51.4867 29.6945 51.3367 29.7254 51.1821C29.6102 51.1208 29.4946 51.0604 29.3788 51.0003C29.3144 50.9665 29.2501 50.9328 29.1838 50.898C28.9899 50.8005 28.9899 50.8005 28.7253 50.8184ZM41.0902 51.0003C40.7902 51.3003 40.4902 51.6003 40.181 51.9095C40.271 52.1795 40.3611 52.4495 40.4538 52.7277C40.702 52.4795 40.7981 52.1847 40.9254 51.864C40.9514 51.8013 40.9773 51.7386 41.0041 51.674C41.0689 51.5122 41.1256 51.3473 41.1811 51.1821C41.1511 51.1221 41.1211 51.0621 41.0902 51.0003ZM28.4525 51.0912C28.6286 51.6553 28.8395 52.1921 29.089 52.7277C29.3129 52.5038 29.3615 52.2998 29.4526 52.0004C29.3033 51.8486 29.1536 51.6971 29.0037 51.5458C28.9204 51.4614 28.8371 51.377 28.7512 51.2901C28.5804 51.0807 28.5804 51.0807 28.4525 51.0912ZM29.9981 51.273C29.8013 51.6745 29.8013 51.6745 29.8245 51.9109C29.9428 52.1689 30.1178 52.3276 30.322 52.5232C30.3972 52.5958 30.4723 52.6685 30.5497 52.7433C30.6077 52.7982 30.6657 52.853 30.7255 52.9096C30.826 52.8245 30.9264 52.7392 31.0267 52.6538C31.0826 52.6064 31.1385 52.5589 31.1961 52.51C31.4241 52.3095 31.4241 52.3095 31.6347 52.0913C31.6347 52.0313 31.6347 51.9713 31.6347 51.9095C31.0946 51.6994 30.5546 51.4894 29.9981 51.273ZM38.6127 51.6367C38.5536 51.6627 38.4945 51.6887 38.4337 51.7155C38.2885 51.7796 38.1437 51.8444 37.999 51.9095C37.9694 52.1884 37.9694 52.1884 38.1581 52.368C38.2594 52.4645 38.2594 52.4645 38.3627 52.5629C38.4302 52.628 38.4977 52.693 38.5672 52.76C38.6197 52.8094 38.6722 52.8587 38.7263 52.9096C39.0284 52.7766 39.2439 52.6088 39.4821 52.3811C39.5474 52.3205 39.6127 52.2599 39.6799 52.1975C39.8434 52.0074 39.8434 52.0074 39.7985 51.7606C39.7326 51.5474 39.7326 51.5474 39.6355 51.3639C39.2356 51.3639 38.9682 51.4763 38.6127 51.6367ZM32.0893 52.1822C32.0893 52.8123 32.0893 53.4423 32.0893 54.0915C33.2759 53.6491 33.2759 53.6491 34.4532 53.1823C34.2488 52.978 34.0889 52.9125 33.8224 52.8037C33.7336 52.7674 33.6447 52.7311 33.5532 52.6936C33.4601 52.6561 33.3671 52.6186 33.2712 52.58C33.1782 52.5418 33.0851 52.5036 32.9892 52.4642C32.5526 52.2635 32.5526 52.2635 32.0893 52.1822ZM39.7005 52.3811C39.6172 52.4655 39.5339 52.5499 39.448 52.6368C39.3227 52.7634 39.3227 52.7634 39.1948 52.8925C39.1302 52.9581 39.0656 53.0238 38.9991 53.0914C39.3065 53.4675 39.6051 53.8018 39.9992 54.0915C40.3058 53.4833 40.3058 53.4833 40.306 52.8225C40.2147 52.6008 40.117 52.391 39.9992 52.1822C39.8713 52.1717 39.8713 52.1717 39.7005 52.3811ZM29.6345 52.2731C29.3596 52.7282 29.3596 52.7282 29.2765 53.2391C29.3803 53.5022 29.5011 53.7513 29.6345 54.0006C29.7353 53.9177 29.8356 53.8343 29.9356 53.7506C29.9915 53.7041 30.0474 53.6577 30.105 53.6099C30.2763 53.45 30.4087 53.2824 30.5437 53.0914C30.4094 52.9547 30.2749 52.8184 30.1402 52.6823C30.0653 52.6063 29.9904 52.5304 29.9133 52.4521C29.7577 52.2627 29.7577 52.2627 29.6345 52.2731ZM36.8675 52.3811C36.7696 52.4221 36.6717 52.4631 36.5709 52.5054C36.4171 52.5704 36.4171 52.5704 36.2602 52.6368C36.1569 52.6802 36.0537 52.7235 35.9473 52.7682C35.6916 52.8757 35.436 52.9834 35.1805 53.0914C35.5672 53.3492 35.987 53.5119 36.4136 53.6937C36.5019 53.7319 36.5902 53.7701 36.6812 53.8095C36.7655 53.8456 36.8498 53.8817 36.9367 53.9189C37.014 53.952 37.0913 53.9851 37.171 54.0193C37.3568 54.1022 37.3568 54.1022 37.5444 54.0915C37.5444 53.4614 37.5444 52.8314 37.5444 52.1822C37.2878 52.1822 37.1039 52.2815 36.8675 52.3811ZM37.7262 52.2731C37.7262 52.8432 37.7262 53.4132 37.7262 54.0006C38.2461 53.5767 38.2461 53.5767 38.6354 53.0914C38.5012 52.9547 38.3667 52.8184 38.232 52.6823C38.1571 52.6063 38.0822 52.5304 38.005 52.4521C37.8494 52.2627 37.8494 52.2627 37.7262 52.2731ZM31.5576 52.5232C31.4579 52.6244 31.4579 52.6244 31.3562 52.7277C31.2562 52.829 31.2562 52.829 31.1542 52.9323C31.077 53.011 31.077 53.011 30.9982 53.0914C31.083 53.194 31.1684 53.2962 31.254 53.3982C31.3252 53.4837 31.3252 53.4837 31.3978 53.5709C31.5512 53.748 31.5512 53.748 31.8165 53.9097C31.8165 53.3996 31.8165 52.8896 31.8165 52.364C31.698 52.3536 31.698 52.3536 31.5576 52.5232ZM30.2595 53.7847C30.1749 53.8627 30.0903 53.9408 30.0031 54.0212C29.7831 54.2618 29.7831 54.2618 29.8341 54.5766C29.8582 54.6566 29.8823 54.7365 29.9072 54.8189C30.1852 54.9417 30.2909 54.9027 30.5848 54.7993C30.7004 54.7482 30.8155 54.6959 30.9301 54.6427C31.0187 54.6031 31.0187 54.6031 31.1091 54.5626C31.2544 54.4974 31.3991 54.431 31.5438 54.3643C31.573 54.0859 31.573 54.0859 31.3878 53.9058C31.3212 53.8414 31.2545 53.7771 31.1858 53.7108C31.1193 53.6457 31.0529 53.5807 30.9844 53.5137C30.6593 53.2244 30.5381 53.5216 30.2595 53.7847ZM38.5296 53.5431C38.4557 53.6191 38.3819 53.695 38.3058 53.7733C38.2315 53.8492 38.1572 53.9252 38.0807 54.0034C38.0237 54.0625 37.9668 54.1216 37.9081 54.1824C38.0565 54.4792 38.374 54.5336 38.6695 54.6484C38.7319 54.6736 38.7942 54.6988 38.8585 54.7247C39.1301 54.832 39.3409 54.9098 39.6355 54.9098C39.6955 54.6997 39.7555 54.4897 39.8174 54.2733C39.6702 54.1213 39.5223 53.9699 39.3741 53.8187C39.2919 53.7344 39.2096 53.65 39.1248 53.563C38.8457 53.3068 38.8096 53.2884 38.5296 53.5431ZM33.816 53.6341C33.7264 53.671 33.6367 53.7079 33.5443 53.7459C33.4504 53.785 33.3566 53.824 33.2598 53.8642C33.1653 53.9032 33.0707 53.9423 32.9732 53.9825C32.7391 54.0791 32.505 54.1761 32.2711 54.2733C32.3876 54.5296 32.5084 54.7145 32.7094 54.9112C32.7823 54.9833 32.7823 54.9833 32.8568 55.0568C32.9073 55.1058 32.9578 55.1548 33.0098 55.2053C33.061 55.2557 33.1123 55.306 33.165 55.358C33.2909 55.4817 33.4174 55.6049 33.544 55.728C33.7831 55.3693 33.9341 54.9881 34.1008 54.5916C34.1347 54.5127 34.1686 54.4338 34.2035 54.3525C34.2355 54.2767 34.2675 54.2009 34.3004 54.1228C34.3444 54.0189 34.3444 54.0189 34.3893 53.913C34.468 53.7175 34.468 53.7175 34.4532 53.4551C34.2094 53.4551 34.0414 53.5408 33.816 53.6341ZM35.0896 53.4551C35.3722 54.2228 35.654 54.9855 35.9988 55.728C36.4797 55.3272 36.9251 54.9029 37.3626 54.4552C37.1596 54.2285 36.9745 54.114 36.6949 53.9967C36.619 53.9647 36.5432 53.9328 36.4651 53.8999C36.3862 53.8675 36.3073 53.8351 36.2261 53.8017C36.1472 53.7682 36.0683 53.7348 35.9871 53.7003C35.5531 53.5118 35.5531 53.5118 35.0896 53.4551ZM29.089 53.546C28.9993 53.7332 28.9104 53.9208 28.8219 54.1085C28.7723 54.213 28.7227 54.3174 28.6717 54.425C28.5621 54.6838 28.4936 54.9062 28.4525 55.1825C28.8286 54.8751 29.1629 54.5765 29.4526 54.1824C29.3626 53.9724 29.2726 53.7624 29.1799 53.546C29.1499 53.546 29.1199 53.546 29.089 53.546ZM34.7259 53.546C34.4259 54.2961 34.1258 55.0461 33.8167 55.819C34.4468 55.819 35.0769 55.819 35.726 55.819C35.5574 55.2569 35.4028 54.7533 35.1748 54.2222C35.1288 54.1133 35.0827 54.0044 35.0352 53.8923C34.9352 53.6279 34.9352 53.6279 34.7259 53.546ZM40.4538 53.546C40.2459 53.8841 40.2459 53.8841 40.1924 54.2648C40.3043 54.5327 40.478 54.6871 40.6868 54.887C40.7619 54.9597 40.837 55.0324 40.9144 55.1072C40.9724 55.1621 41.0304 55.2169 41.0902 55.2734C41.2034 55.0988 41.2034 55.0988 41.133 54.9291C41.0923 54.8334 41.0923 54.8334 41.0508 54.7357C41.0218 54.6666 40.9928 54.5974 40.9629 54.5262C40.9318 54.454 40.9007 54.3818 40.8686 54.3074C40.8378 54.2345 40.8071 54.1616 40.7754 54.0865C40.6991 53.9061 40.622 53.726 40.5447 53.546C40.5147 53.546 40.4847 53.546 40.4538 53.546ZM30.9471 54.7961C30.8836 54.8191 30.8202 54.8421 30.7548 54.8657C30.4044 54.994 30.4044 54.994 30.1718 55.2692C30.1691 55.4952 30.1691 55.4952 30.3618 55.819C30.8419 55.819 31.3219 55.819 31.8165 55.819C31.8165 55.3989 31.8165 54.9789 31.8165 54.5461C31.508 54.5461 31.2316 54.6862 30.9471 54.7961ZM37.7262 54.5461C37.7262 54.9661 37.7262 55.3862 37.7262 55.819C38.2363 55.819 38.7463 55.819 39.2718 55.819C39.3319 55.6089 39.3919 55.3989 39.4537 55.1825C39.2172 55.0758 38.9804 54.9699 38.7434 54.8643C38.6763 54.834 38.6092 54.8036 38.5401 54.7723C38.4753 54.7436 38.4106 54.7149 38.3438 54.6853C38.2843 54.6587 38.2248 54.632 38.1635 54.6045C37.9852 54.5309 37.9852 54.5309 37.7262 54.5461ZM39.9992 54.5461C39.9392 54.7261 39.8792 54.9061 39.8174 55.0916C39.9475 55.1552 40.0784 55.2175 40.2094 55.2791C40.2822 55.3139 40.355 55.3487 40.43 55.3846C40.6466 55.4823 40.6466 55.4823 40.9084 55.3644C40.7742 55.2277 40.6396 55.0914 40.5049 54.9552C40.43 54.8793 40.3551 54.8033 40.278 54.7251C40.1224 54.5356 40.1224 54.5356 39.9992 54.5461ZM29.2758 54.7961C29.2104 54.8636 29.145 54.9311 29.0776 55.0007C29.0117 55.0682 28.9459 55.1357 28.878 55.2053C28.8276 55.2578 28.7772 55.3103 28.7253 55.3644C28.8153 55.4094 28.8153 55.4094 28.9071 55.4553C29.1112 55.3855 29.1112 55.3855 29.3276 55.2791C29.4391 55.2273 29.4391 55.2273 29.5528 55.1744C29.6097 55.147 29.6667 55.1197 29.7254 55.0916C29.6954 54.9416 29.6654 54.7916 29.6345 54.637C29.4355 54.6167 29.4355 54.6167 29.2758 54.7961ZM37.0577 55.0204C37.0064 55.072 36.9551 55.1237 36.9023 55.1768C36.8507 55.2281 36.799 55.2794 36.7458 55.3322C36.4841 55.5414 36.4841 55.5414 36.3624 55.819C36.7525 55.819 37.1425 55.819 37.5444 55.819C37.5444 55.4289 37.5444 55.0389 37.5444 54.637C37.3357 54.637 37.198 54.8804 37.0577 55.0204ZM32.0893 54.7279C32.0893 55.088 32.0893 55.448 32.0893 55.819C32.4493 55.819 32.8093 55.819 33.1803 55.819C32.8409 55.4068 32.5089 55.0576 32.0893 54.7279ZM29.2083 55.5462C29.0981 55.5968 29.0981 55.5968 28.9856 55.6485C28.9017 55.6879 28.9017 55.6879 28.8162 55.728C28.8162 55.758 28.8162 55.788 28.8162 55.819C29.2362 55.819 29.6563 55.819 30.0891 55.819C30.0291 55.6689 29.969 55.5189 29.9072 55.3644C29.613 55.3644 29.4719 55.4239 29.2083 55.5462ZM39.7264 55.3644C39.6664 55.5144 39.6064 55.6644 39.5446 55.819C39.9646 55.819 40.3847 55.819 40.8175 55.819C40.6039 55.6054 40.4577 55.5706 40.1697 55.4894C40.0869 55.4657 40.0042 55.442 39.9189 55.4176C39.8554 55.4001 39.7919 55.3825 39.7264 55.3644ZM28.7253 56.0917C28.9733 56.3397 29.2681 56.4323 29.589 56.5577C29.6517 56.5829 29.7144 56.6081 29.779 56.634C30.1058 56.7716 30.1058 56.7716 30.4527 56.8191C30.3745 56.4252 30.3745 56.4252 30.18 56.0917C29.9348 56.0851 29.692 56.0833 29.4469 56.086C29.3435 56.0866 29.3435 56.0866 29.2379 56.0873C29.067 56.0883 28.8962 56.09 28.7253 56.0917ZM30.5437 56.0917C30.6251 56.499 30.6839 56.7492 30.9073 57.0918C31.2292 57.2643 31.4506 57.3646 31.8165 57.3646C31.8165 56.9445 31.8165 56.5245 31.8165 56.0917C31.3965 56.0917 30.9764 56.0917 30.5437 56.0917ZM32.0893 56.0917C32.0893 56.5718 32.0893 57.0518 32.0893 57.5464C32.2993 57.6364 32.5093 57.7264 32.7257 57.8192C32.8324 57.5827 32.9384 57.3459 33.0439 57.1089C33.0743 57.0418 33.1046 56.9747 33.1359 56.9055C33.179 56.8084 33.179 56.8084 33.2229 56.7093C33.2496 56.6498 33.2762 56.5903 33.3037 56.529C33.3773 56.3507 33.3773 56.3507 33.3621 56.0917C32.9421 56.0917 32.522 56.0917 32.0893 56.0917ZM33.9986 56.0917C34.0811 56.193 34.1636 56.2942 34.2486 56.3986C34.295 56.4555 34.3414 56.5125 34.3892 56.5712C34.5515 56.7357 34.6968 56.8192 34.9077 56.91C35.0292 56.7909 35.1504 56.6715 35.2714 56.552C35.3389 56.4855 35.4064 56.4191 35.476 56.3506C35.6455 56.2102 35.6455 56.2102 35.6351 56.0917C35.095 56.0917 34.555 56.0917 33.9986 56.0917ZM36.1806 56.0917C36.2695 56.3304 36.3586 56.5691 36.4477 56.8077C36.4856 56.9095 36.4856 56.9095 36.5242 57.0133C36.658 57.3761 36.658 57.3761 36.817 57.7282C37.1925 57.6767 37.1925 57.6767 37.5444 57.5464C37.5444 57.0664 37.5444 56.5863 37.5444 56.0917C37.0943 56.0917 36.6443 56.0917 36.1806 56.0917ZM37.7262 56.0917C37.7262 56.5418 37.7262 56.9918 37.7262 57.4555C38.381 57.3045 38.381 57.3045 38.8737 56.8919C38.9914 56.6241 39.09 56.3863 39.09 56.0917C38.64 56.0917 38.1899 56.0917 37.7262 56.0917ZM39.3628 56.0917C39.2728 56.3617 39.1827 56.6318 39.09 56.91C39.6901 56.67 40.2901 56.4299 40.9084 56.1826C40.9084 56.1526 40.9084 56.1226 40.9084 56.0917C40.3983 56.0917 39.8883 56.0917 39.3628 56.0917ZM33.6349 56.2736C33.5258 56.5099 33.4181 56.7466 33.311 56.9839C33.2799 57.0509 33.2488 57.118 33.2167 57.1872C33.1877 57.2519 33.1587 57.3167 33.1288 57.3834C33.1017 57.4429 33.0745 57.5024 33.0466 57.5637C32.976 57.7471 32.976 57.7471 33.0894 58.001C33.2694 58.061 33.4494 58.121 33.6349 58.1828C33.9349 57.8828 34.235 57.5828 34.5441 57.2737C34.3868 56.9591 34.2808 56.806 34.0383 56.569C33.982 56.5132 33.9256 56.4575 33.8675 56.4C33.7462 56.2635 33.7462 56.2635 33.6349 56.2736ZM35.6202 56.4525C35.5463 56.5285 35.4725 56.6044 35.3964 56.6827C35.3221 56.7586 35.2478 56.8346 35.1713 56.9128C35.1143 56.9719 35.0574 57.031 34.9987 57.0918C35.3331 57.5033 35.6725 57.855 36.0897 58.1828C36.2697 58.0928 36.4497 58.0028 36.6352 57.9101C36.5463 57.6714 36.4573 57.4327 36.3681 57.1941C36.3429 57.1262 36.3176 57.0584 36.2916 56.9885C36.1578 56.6257 36.1578 56.6257 35.9988 56.2736C35.795 56.2532 35.795 56.2532 35.6202 56.4525ZM34.538 57.5436C34.4631 57.6195 34.3883 57.6955 34.3111 57.7737C34.236 57.8497 34.1608 57.9256 34.0834 58.0038C33.9964 58.0924 33.9964 58.0924 33.9076 58.1828C34.1368 58.4233 34.3099 58.5467 34.635 58.6374C34.9983 58.6072 35.3026 58.5114 35.6351 58.3647C35.5075 58.0749 35.3553 57.8808 35.1294 57.6601C35.073 57.6043 35.0166 57.5485 34.9585 57.491C34.7415 57.2973 34.7594 57.3327 34.538 57.5436ZM31.0892 57.4555C31.2762 58.0422 31.4914 58.6134 31.7256 59.1829C31.7556 59.1829 31.7856 59.1829 31.8165 59.1829C31.8165 58.7029 31.8165 58.2228 31.8165 57.7282C31.3455 57.4419 31.3455 57.4419 31.0892 57.4555ZM38.3627 57.4555C38.0476 57.5905 38.0476 57.5905 37.7262 57.7282C37.7262 58.2683 37.7262 58.8084 37.7262 59.3648C37.8725 59.1454 37.9674 58.9677 38.065 58.7273C38.0932 58.6584 38.1213 58.5896 38.1503 58.5186C38.1791 58.4472 38.2079 58.3758 38.2376 58.3022C38.2672 58.2297 38.2967 58.1572 38.3271 58.0825C38.3999 57.9039 38.4722 57.7252 38.5445 57.5464C38.4845 57.5164 38.4245 57.4864 38.3627 57.4555ZM32.0893 57.8192C32.0893 58.2692 32.0893 58.7193 32.0893 59.1829C32.4243 58.8479 32.5439 58.4676 32.5439 58.001C32.3188 57.911 32.3188 57.911 32.0893 57.8192ZM36.9989 58.001C37.1391 58.4302 37.2787 58.8572 37.4535 59.2739C37.4835 59.2739 37.5135 59.2739 37.5444 59.2739C37.5444 58.7938 37.5444 58.3138 37.5444 57.8192C37.3549 57.8192 37.1718 57.9301 36.9989 58.001ZM32.8166 58.1828C32.7533 58.3302 32.6909 58.4781 32.6291 58.6261C32.5943 58.7083 32.5595 58.7906 32.5236 58.8754C32.4255 59.0903 32.4255 59.0903 32.5439 59.2739C32.8139 59.0038 33.0839 58.7338 33.3621 58.4556C33.3321 58.3956 33.3021 58.3356 33.2712 58.2738C33.0414 58.2142 33.0414 58.2142 32.8166 58.1828ZM36.5443 58.1828C36.4543 58.2729 36.3643 58.3629 36.2715 58.4556C36.5416 58.7256 36.8116 58.9957 37.0898 59.2739C37.1198 59.2139 37.1498 59.1539 37.1807 59.092C37.0903 58.8667 37.0903 58.8667 36.9591 58.6261C36.9161 58.5433 36.8731 58.4606 36.8288 58.3753C36.778 58.2801 36.778 58.2801 36.7261 58.1828C36.6661 58.1828 36.6061 58.1828 36.5443 58.1828ZM33.6349 58.4556C33.3049 58.7856 32.9748 59.1157 32.6348 59.4557C32.8094 59.5689 32.8094 59.5689 32.9791 59.4985C33.0429 59.4714 33.1067 59.4442 33.1725 59.4163C33.2416 59.3873 33.3108 59.3583 33.382 59.3284C33.4542 59.2973 33.5264 59.2661 33.6008 59.2341C33.7101 59.1879 33.7101 59.1879 33.8217 59.1409C34.0021 59.0646 34.1822 58.9875 34.3622 58.9102C34.3622 58.8502 34.3622 58.7902 34.3622 58.7284C34.1222 58.6383 33.8822 58.5483 33.6349 58.4556ZM35.2714 58.7284C35.2714 58.7884 35.2714 58.8484 35.2714 58.9102C35.4946 59.0039 35.7181 59.0965 35.9419 59.1886C36.0055 59.2154 36.069 59.2422 36.1344 59.2698C36.2993 59.3371 36.4671 59.397 36.6352 59.4557C36.6952 59.4257 36.7552 59.3957 36.817 59.3648C36.6872 59.2276 36.5563 59.0914 36.425 58.9557C36.3522 58.8797 36.2794 58.8038 36.2044 58.7255C35.8686 58.4332 35.6466 58.5661 35.2714 58.7284Z" fill="#E4E4E4"/>
<path d="M2.62979 42.9359C3.06431 43.2954 3.06431 43.2954 3.17779 43.6359C3.16989 43.8318 3.15589 44.0275 3.13881 44.2228C3.07228 45.079 3.07369 45.9331 3.07397 46.7914C3.07369 46.9673 3.07337 47.1433 3.07301 47.3192C3.0723 47.6951 3.07183 48.0711 3.07153 48.447C3.07099 49.0415 3.06948 49.636 3.06777 50.2305C3.0672 50.4346 3.06662 50.6387 3.06605 50.8429C3.06576 50.945 3.06547 51.0472 3.06518 51.1524C3.06136 52.5346 3.05835 53.9167 3.05723 55.2988C3.05647 56.2341 3.05443 57.1694 3.05093 58.1047C3.04913 58.5989 3.048 59.093 3.04846 59.5872C3.04888 60.0509 3.04763 60.5147 3.04509 60.9784C3.04446 61.1486 3.04446 61.3187 3.04511 61.4889C3.04592 61.721 3.0445 61.953 3.04252 62.1852C3.04329 62.2526 3.04406 62.32 3.04485 62.3895C3.03789 62.8311 2.9436 63.0536 2.63227 63.3652C2.31529 63.5948 2.01424 63.58 1.63217 63.5471C1.29103 63.429 1.13226 63.3456 0.936816 63.0401C0.785719 62.6574 0.775841 62.349 0.779264 61.942C0.778839 61.864 0.778413 61.7859 0.777975 61.7055C0.776889 61.4446 0.777748 61.1837 0.778607 60.9228C0.778237 60.7355 0.777751 60.5482 0.777158 60.3609C0.775915 59.8526 0.776397 59.3443 0.777262 58.836C0.777952 58.3041 0.777312 57.7721 0.776884 57.2402C0.776387 56.3469 0.777041 55.4535 0.77834 54.5602C0.779825 53.5274 0.779344 52.4946 0.777842 51.4618C0.776604 50.5751 0.77643 49.6884 0.777143 48.8016C0.777569 48.272 0.777625 47.7424 0.776724 47.2128C0.775936 46.7149 0.776483 46.217 0.778059 45.7191C0.77842 45.5364 0.778316 45.3536 0.777715 45.1709C0.77697 44.9214 0.777904 44.6721 0.779264 44.4226C0.778656 44.3503 0.778047 44.278 0.77742 44.2035C0.782044 43.7662 0.850023 43.4714 1.08666 43.0904C1.52828 42.6772 2.10263 42.5883 2.62979 42.9359Z" fill="#E4E4E4"/>
<path d="M93.5962 42.7835C93.6989 42.8021 93.6989 42.8021 93.8036 42.8211C94.096 42.9478 94.1982 43.0937 94.369 43.3631C94.4043 43.6386 94.4186 43.8809 94.4158 44.1562C94.4168 44.2759 94.4168 44.2759 94.4178 44.3981C94.4194 44.6655 94.4185 44.9329 94.4175 45.2004C94.4182 45.3922 94.419 45.584 94.4199 45.7757C94.422 46.2966 94.4217 46.8175 94.4209 47.3384C94.4204 47.7731 94.4211 48.2079 94.4218 48.6426C94.4233 49.6681 94.423 50.6935 94.4215 51.719C94.4199 52.7773 94.4214 53.8355 94.4243 54.8938C94.4267 55.8021 94.4274 56.7105 94.4266 57.6188C94.4262 58.1615 94.4264 58.7041 94.4282 59.2467C94.4299 59.7569 94.4294 60.2671 94.4271 60.7773C94.4267 60.9646 94.427 61.1519 94.4281 61.3392C94.4296 61.5948 94.4282 61.8503 94.4262 62.106C94.4278 62.2172 94.4278 62.2172 94.4294 62.3307C94.4234 62.6998 94.3879 62.9337 94.1552 63.228C93.8681 63.5001 93.7258 63.5408 93.3348 63.5698C92.9144 63.5408 92.7097 63.4049 92.3916 63.1436C92.108 62.7891 92.1738 62.3077 92.1742 61.8764C92.174 61.7989 92.1737 61.7213 92.1734 61.6415C92.1726 61.3813 92.1725 61.1211 92.1723 60.8609C92.1719 60.6745 92.1715 60.4881 92.171 60.3017C92.1698 59.7951 92.1692 59.2885 92.1688 58.7819C92.1685 58.4654 92.1682 58.149 92.1678 57.8326C92.1665 56.8429 92.1656 55.8532 92.1653 54.8634C92.1649 53.7204 92.1633 52.5773 92.1606 51.4343C92.1587 50.551 92.1578 49.6678 92.1576 48.7845C92.1575 48.2568 92.157 47.7292 92.1554 47.2015C92.1539 46.7052 92.1537 46.209 92.1545 45.7127C92.1546 45.5306 92.1542 45.3484 92.1533 45.1663C92.1521 44.9176 92.1526 44.669 92.1536 44.4204C92.1529 44.3483 92.1521 44.2762 92.1514 44.2019C92.1553 43.765 92.2233 43.4711 92.4598 43.0903C92.8113 42.7615 93.1292 42.6891 93.5962 42.7835Z" fill="#E4E4E4"/>
<path d="M78.7309 42.7268C78.9804 45.2049 78.5548 46.9701 77.449 49.1849C77.0311 50.0238 76.6668 50.8839 76.3032 51.7475C76.1349 52.1469 75.9643 52.5453 75.7938 52.9438C75.7651 53.0113 75.7364 53.0787 75.7068 53.1482C75.5071 53.6163 75.302 54.0817 75.0942 54.5462C75.0342 54.5462 74.9742 54.5462 74.9123 54.5462C74.9034 54.6073 74.8945 54.6684 74.8853 54.7313C74.7916 55.1264 74.6161 55.4816 74.4467 55.8488C74.2778 56.2231 74.1343 56.599 74.0021 56.9879C73.6598 57.9601 73.235 58.8992 72.8226 59.8432C72.6787 60.1727 72.5355 60.5026 72.3924 60.8324C72.3004 61.0439 72.2083 61.2553 72.1162 61.4667C72.0738 61.5644 72.0314 61.662 71.9876 61.7626C71.3574 63.2037 71.3574 63.2037 71.0653 63.4563C70.6581 63.6078 70.3318 63.6141 69.9345 63.4335C69.5812 63.1587 69.5812 63.1587 69.4572 62.9108C69.3839 62.3133 69.51 61.8582 69.7609 61.3218C69.809 61.214 69.809 61.214 69.8581 61.104C69.9637 60.8684 70.0713 60.6338 70.1789 60.3991C70.2539 60.2326 70.3287 60.0659 70.4033 59.8993C70.5574 59.5556 70.712 59.2122 70.8671 58.869C71.1754 58.1851 71.4742 57.4971 71.7725 56.8087C71.9309 56.4435 72.09 56.0786 72.2491 55.7136C72.2808 55.6408 72.3126 55.5679 72.3453 55.4928C72.7892 54.4746 73.2363 53.4578 73.6832 52.4409C73.7513 52.2857 73.8195 52.1305 73.8877 51.9753C73.9209 51.8997 73.9542 51.8241 73.9884 51.7462C74.2717 51.1011 74.5542 50.4558 74.8364 49.8102C75.0737 49.2674 75.3112 48.7247 75.5488 48.1819C75.5981 48.0692 75.5981 48.0692 75.6484 47.9542C75.8667 47.4555 76.0852 46.9568 76.3038 46.4582C76.3751 46.2954 76.4464 46.1326 76.5177 45.9698C76.7106 45.529 76.9045 45.0887 77.0995 44.6488C77.1803 44.4657 77.2596 44.282 77.3387 44.0982C77.4076 43.9417 77.4076 43.9417 77.4779 43.782C77.5355 43.6491 77.5355 43.6491 77.5943 43.5135C77.8742 43.019 78.1581 42.7268 78.7309 42.7268Z" fill="#E4E4E4"/>
<path d="M50.8192 42.9085C51.243 43.2375 51.243 43.2375 51.3154 43.5328C51.331 43.7419 51.3319 43.9466 51.3281 44.1562C51.3284 44.236 51.3287 44.3159 51.3291 44.3981C51.3296 44.6656 51.3269 44.933 51.3243 45.2005C51.324 45.3922 51.3239 45.584 51.324 45.7758C51.3236 46.2967 51.3204 46.8176 51.3165 47.3385C51.3128 47.8834 51.3113 48.4283 51.3095 48.9733C51.306 49.8885 51.3007 50.8038 51.2942 51.719C51.2868 52.7773 51.2826 53.8355 51.2802 54.8938C51.278 55.8022 51.274 56.7105 51.2686 57.6189C51.2653 58.1615 51.2627 58.7041 51.2617 59.2467C51.2606 59.757 51.2573 60.2671 51.2523 60.7774C51.2508 60.9646 51.2501 61.1519 51.2502 61.3392C51.2502 61.5949 51.2475 61.8504 51.244 62.106C51.2447 62.1801 51.2454 62.2543 51.246 62.3307C51.238 62.6994 51.2012 62.9341 50.9688 63.228C50.6818 63.5002 50.5395 63.5408 50.1487 63.5698C49.7917 63.5452 49.6406 63.4967 49.3645 63.2743C49.0586 62.8817 49.0531 62.516 49.0571 62.037C49.0567 61.9583 49.0562 61.8795 49.0558 61.7984C49.0547 61.5347 49.0556 61.2711 49.0564 61.0074C49.0561 60.8183 49.0556 60.6292 49.055 60.4402C49.0537 59.9266 49.0542 59.413 49.0551 58.8994C49.0558 58.3622 49.0551 57.8249 49.0547 57.2876C49.0542 56.3852 49.0549 55.4827 49.0562 54.5803C49.0577 53.5369 49.0572 52.4935 49.0557 51.4502C49.0544 50.5545 49.0543 49.6589 49.055 48.7633C49.0554 48.2283 49.0555 47.6933 49.0546 47.1583C49.0538 46.6553 49.0543 46.1523 49.0559 45.6492C49.0563 45.4646 49.0561 45.2799 49.0555 45.0953C49.0548 44.8432 49.0557 44.5913 49.0571 44.3392C49.0565 44.2661 49.0559 44.193 49.0553 44.1177C49.0598 43.6802 49.1198 43.377 49.3645 42.9994C49.8532 42.6867 50.2865 42.6601 50.8192 42.9085Z" fill="#E4E4E4"/>
<path d="M32.0552 45.7497C32.362 45.8179 32.362 45.8179 32.4529 45.9088C32.4566 46.0603 32.4568 46.2119 32.4529 46.3634C32.5038 46.3768 32.5547 46.3901 32.6071 46.4039C33.2125 46.5733 33.7687 46.8117 34.3352 47.0808C34.9633 47.2921 35.4929 46.9744 36.067 46.7214C36.2217 46.6538 36.3765 46.5864 36.5315 46.5193C36.5994 46.4894 36.6674 46.4595 36.7374 46.4287C36.908 46.3634 36.908 46.3634 37.0898 46.3634C37.0992 46.2922 37.1085 46.2209 37.1182 46.1475C37.1807 45.9088 37.1807 45.9088 37.4535 45.727C37.7143 45.6944 37.8487 45.6822 38.0617 45.8428C38.1808 45.9997 38.1808 45.9997 38.1322 46.3577C38.1217 46.4302 38.1113 46.5026 38.1005 46.5772C38.0645 47.3953 38.5149 48.3606 38.9991 49.0001C39.596 49.4782 40.4611 49.8367 41.2354 49.8103C41.3744 49.7934 41.5131 49.7729 41.6508 49.7472C41.8176 49.7274 41.8176 49.7274 42.0505 49.824C42.2379 50.0765 42.2259 50.2391 42.1812 50.5457C42.0676 50.7161 42.0676 50.7161 41.9085 50.8184C41.7885 50.8184 41.6685 50.8184 41.5448 50.8184C41.5378 50.8762 41.5307 50.934 41.5235 50.9935C41.4617 51.2416 41.3851 51.434 41.2763 51.6633C40.8057 52.538 40.8057 52.538 40.7834 53.4835C40.8505 53.6279 40.9232 53.7698 40.9993 53.9097C41.072 54.0767 41.1445 54.2438 41.2152 54.4117C41.2861 54.5787 41.3605 54.7441 41.4351 54.9094C41.5448 55.1825 41.5448 55.1825 41.5448 55.4553C41.6329 55.4665 41.7211 55.4778 41.8119 55.4894C41.9038 55.5081 41.9957 55.5269 42.0903 55.5462C42.2159 55.7974 42.1986 55.996 42.1812 56.2736C41.9994 56.4554 41.9994 56.4554 41.6812 56.4724C41.363 56.4554 41.363 56.4554 41.1811 56.3645C40.3587 56.5236 39.3489 56.8473 38.8058 57.5092C38.289 58.3742 38.0251 59.1868 38.1808 60.1831C38.0388 60.4217 38.0388 60.4217 37.8171 60.5467C37.5387 60.5581 37.5387 60.5581 37.2716 60.4558C37.2413 60.3729 37.2109 60.2901 37.1797 60.2047C36.9025 59.7533 36.5027 59.6473 36.0215 59.4614C35.9327 59.4241 35.8438 59.3867 35.7523 59.3483C35.0533 59.069 34.6282 59.0698 33.9286 59.3509C33.7754 59.4173 33.6226 59.4844 33.4701 59.5523C33.3162 59.6199 33.1622 59.6873 33.008 59.7544C32.9407 59.7843 32.8733 59.8142 32.8039 59.845C32.6348 59.9103 32.6348 59.9103 32.4529 59.9103C32.4361 60.0172 32.4361 60.0172 32.4189 60.1262C32.362 60.3649 32.362 60.3649 32.1802 60.5467C31.6843 60.5054 31.6843 60.5054 31.4528 60.274C31.4331 59.9652 31.4455 59.7505 31.5438 59.4557C31.401 58.6207 31.0752 57.5901 30.368 57.0823C29.731 56.7537 29.0554 56.5389 28.3616 56.3645C28.3166 56.4095 28.3166 56.4095 28.2707 56.4554C27.9582 56.4724 27.9582 56.4724 27.6343 56.4554C27.4524 56.2736 27.4524 56.2736 27.4297 55.9553C27.4524 55.6371 27.4524 55.6371 27.6343 55.4553C27.6925 55.4454 27.7508 55.4355 27.8108 55.4253C28.0853 55.3359 28.1332 55.1874 28.2643 54.935C28.8464 53.7479 28.8464 53.7479 28.7828 52.4646C28.4323 51.4408 28.4323 51.4408 27.6911 50.7126C27.6123 50.6875 27.5336 50.6624 27.4524 50.6366C27.4191 50.048 27.4191 50.048 27.5643 49.8395C27.7252 49.7274 27.7252 49.7274 27.9155 49.7348C27.9877 49.7501 28.0599 49.7653 28.1343 49.781C28.7158 49.8587 29.1177 49.6637 29.6345 49.4149C29.8029 49.3371 29.9715 49.2596 30.1402 49.1822C30.2135 49.1474 30.2867 49.1125 30.3622 49.0766C30.5437 49.0001 30.5437 49.0001 30.7255 49.0001C30.7328 48.9424 30.74 48.8847 30.7475 48.8253C30.8081 48.579 30.8834 48.3815 30.9876 48.152C31.0205 48.0792 31.0535 48.0064 31.0874 47.9314C31.1563 47.781 31.2264 47.6311 31.2976 47.4818C31.5102 47.0057 31.5755 46.6872 31.4585 46.1742C31.4528 45.9997 31.4528 45.9997 31.5655 45.8388C31.7256 45.727 31.7256 45.727 32.0552 45.7497ZM32.0495 46.5712C31.7214 46.7907 31.6357 47.0646 31.521 47.426C31.499 47.4893 31.477 47.5525 31.4543 47.6176C31.3181 48.0138 31.2013 48.4147 31.0892 48.8182C31.4492 48.6832 31.4492 48.6832 31.8165 48.5455C31.7256 48.8182 31.7256 48.8182 31.5274 48.9219C31.4061 48.9718 31.4061 48.9718 31.2824 49.0228C30.9615 49.174 30.7659 49.2708 30.6232 49.6024C30.5322 49.9004 30.5322 49.9004 30.5437 50.182C30.4086 50.137 30.4086 50.137 30.2709 50.0911C30.3309 49.8811 30.3909 49.671 30.4527 49.4546C30.0159 49.5227 29.6186 49.671 29.2083 49.8297C29.1381 49.8543 29.068 49.8789 28.9957 49.9043C28.6412 50.043 28.4865 50.124 28.2895 50.4601C28.2622 50.9796 28.4492 51.3493 28.6685 51.8129C28.7083 51.901 28.7482 51.9892 28.7892 52.0801C28.8874 52.2968 28.9873 52.5126 29.089 52.7277C29.291 52.5257 29.355 52.3563 29.4526 52.0913C29.5435 52.364 29.5435 52.364 29.4072 52.6709C29.2647 53.0152 29.245 53.1139 29.3617 53.4551C29.3955 53.5338 29.4292 53.6126 29.464 53.6937C29.5435 53.9097 29.5435 53.9097 29.4526 54.1824C29.3626 53.9724 29.2726 53.7624 29.1799 53.546C28.8438 53.714 28.758 54.1444 28.6173 54.4779C28.5827 54.5561 28.548 54.6343 28.5124 54.7148C28.4801 54.7909 28.4478 54.8669 28.4145 54.9453C28.3847 55.0147 28.3549 55.0841 28.3242 55.1556C28.2364 55.498 28.3432 55.7638 28.4525 56.0917C28.6311 56.1971 28.6311 56.1971 28.8528 56.2775C28.9337 56.3094 29.0146 56.3413 29.098 56.3742C29.1832 56.4066 29.2683 56.439 29.356 56.4724C29.4832 56.5226 29.4832 56.5226 29.613 56.5738C30.0214 56.7506 30.0214 56.7506 30.4527 56.8191C30.3927 56.609 30.3327 56.399 30.2709 56.1826C30.4059 56.1376 30.4059 56.1376 30.5437 56.0917C30.553 56.1555 30.5624 56.2192 30.5721 56.2849C30.6467 56.597 30.7312 56.8218 30.9073 57.0918C31.2292 57.2643 31.4506 57.3646 31.8165 57.3646C31.7715 57.4996 31.7715 57.4996 31.7256 57.6373C31.5156 57.5773 31.3056 57.5173 31.0892 57.4555C31.1493 57.6421 31.2101 57.8286 31.2735 58.0141C31.3377 58.2025 31.3991 58.3919 31.4589 58.5817C31.6507 59.2249 31.6507 59.2249 32.0893 59.7C32.6187 59.8449 33.1826 59.4163 33.6349 59.1829C33.8754 59.0839 34.1169 58.9968 34.3622 58.9102C34.3622 58.8502 34.3622 58.7902 34.3622 58.7284C34.1522 58.6383 33.9422 58.5483 33.7258 58.4556C33.9986 58.3647 33.9986 58.3647 34.2997 58.5011C34.8399 58.7208 35.2819 58.5252 35.8169 58.3647C35.8469 58.4247 35.8769 58.4847 35.9079 58.5465C35.5928 58.6365 35.5928 58.6365 35.2714 58.7284C35.2714 58.7884 35.2714 58.8484 35.2714 58.9102C35.5942 59.0529 35.9185 59.1921 36.2431 59.3307C36.3805 59.3915 36.3805 59.3915 36.5207 59.4536C36.6538 59.5098 36.6538 59.5098 36.7897 59.5672C36.8711 59.6025 36.9525 59.6377 37.0364 59.674C37.3385 59.7439 37.4631 59.7079 37.7262 59.5466C37.8622 59.3417 37.8622 59.3417 37.9496 59.0913C37.9851 59.0017 38.0205 58.912 38.0571 58.8196C38.0923 58.7258 38.1275 58.6319 38.1638 58.5352C38.2008 58.4406 38.2377 58.346 38.2758 58.2485C38.3669 58.015 38.4563 57.781 38.5445 57.5464C38.4845 57.5164 38.4245 57.4864 38.3627 57.4555C38.1481 57.5406 37.9357 57.6313 37.7262 57.7282C37.7712 57.5932 37.7712 57.5932 37.8171 57.4555C38.0121 57.3781 38.0121 57.3781 38.2547 57.3078C38.5403 57.2031 38.6899 57.1432 38.8673 56.8929C38.9853 56.6253 39.09 56.3866 39.09 56.0917C39.18 56.0917 39.27 56.0917 39.3628 56.0917C39.2728 56.3617 39.1827 56.6318 39.09 56.91C39.4363 56.7909 39.7803 56.6663 40.1242 56.5406C40.2715 56.4901 40.2715 56.4901 40.4218 56.4385C40.98 56.2379 40.98 56.2379 41.363 55.8076C41.363 55.2969 41.1811 54.9173 40.9652 54.4609C40.9254 54.3727 40.8855 54.2845 40.8445 54.1936C40.7462 53.9769 40.6463 53.7611 40.5447 53.546C40.3863 53.7548 40.2357 53.9641 40.0901 54.1824C40.1319 53.8899 40.1785 53.643 40.2947 53.3698C40.3884 52.9873 40.2604 52.8019 40.0901 52.455C40.0276 52.1879 40.0276 52.1879 39.9992 52.0004C40.2944 52.148 40.3357 52.4326 40.4538 52.7277C40.7403 52.4412 40.8616 52.0787 41.022 51.7106C41.0574 51.6343 41.0928 51.5581 41.1293 51.4795C41.2871 51.1159 41.3654 50.8704 41.347 50.4697C41.1005 50.0421 40.7736 49.9446 40.3231 49.7785C40.2438 49.7467 40.1645 49.7149 40.0828 49.6821C39.6449 49.5063 39.6449 49.5063 39.1809 49.4546C39.2284 49.7058 39.2817 49.9389 39.3628 50.182C39.2728 50.182 39.1827 50.182 39.09 50.182C39.0735 50.1261 39.057 50.0702 39.0399 50.0126C39.0171 49.9391 38.9942 49.8656 38.9707 49.7899C38.9485 49.7171 38.9264 49.6443 38.9036 49.5694C38.7756 49.2645 38.6437 49.1326 38.3389 49.0047C38.2661 48.9825 38.1933 48.9604 38.1183 48.9375C38.0448 48.9147 37.9713 48.8918 37.8956 48.8683C37.8397 48.8518 37.7838 48.8352 37.7262 48.8182C37.7262 48.7282 37.7262 48.6382 37.7262 48.5455C37.9963 48.6355 38.2663 48.7255 38.5445 48.8182C38.4595 48.589 38.3742 48.3598 38.2888 48.1306C38.2532 48.0346 38.2532 48.0346 38.2169 47.9366C38.1689 47.808 38.1201 47.6797 38.0705 47.5517C38.0238 47.4289 37.9799 47.3049 37.9392 47.18C37.8376 46.893 37.7515 46.7443 37.4982 46.5715C37.0038 46.5306 36.6335 46.736 36.192 46.943C36.1034 46.9829 36.0148 47.0227 35.9235 47.0638C35.7054 47.1621 35.4881 47.2621 35.2714 47.3635C35.2714 47.4235 35.2714 47.4835 35.2714 47.5454C35.4814 47.6054 35.6915 47.6654 35.9079 47.7272C35.8779 47.7872 35.8478 47.8472 35.8169 47.909C35.7653 47.8883 35.7136 47.8675 35.6603 47.8462C34.974 47.5907 34.5042 47.6575 33.8167 47.909C33.8167 47.849 33.8167 47.789 33.8167 47.7272C33.9967 47.6372 34.1768 47.5472 34.3622 47.4544C34.0658 47.158 33.6777 47.0438 33.2939 46.8862C33.2126 46.8508 33.1313 46.8154 33.0475 46.7789C32.6896 46.6322 32.4389 46.5389 32.0495 46.5712Z" fill="#E4E4E4"/>
<path d="M97.3694 36.4532C97.6119 36.6034 97.6969 36.6617 97.824 36.9078C97.8809 37.3275 97.8666 37.741 97.8524 38.1636C97.8503 38.2786 97.8483 38.3937 97.8462 38.5122C97.8408 38.7958 97.8334 39.0791 97.824 39.3626C97.8932 39.3612 97.9624 39.3597 98.0338 39.3583C98.3483 39.3526 98.6629 39.349 98.9775 39.3455C99.0865 39.3433 99.1954 39.341 99.3076 39.3386C99.4128 39.3377 99.518 39.3369 99.6264 39.336C99.723 39.3345 99.8197 39.3331 99.9193 39.3316C100.226 39.367 100.395 39.4528 100.642 39.6353C100.785 39.9203 100.811 40.2383 100.733 40.5445C100.491 40.7835 100.342 40.8988 100.002 40.9495C99.9014 40.9476 99.8009 40.9457 99.6974 40.9437C99.5881 40.9426 99.4788 40.9414 99.3662 40.9402C99.253 40.9371 99.1397 40.9341 99.023 40.9309C98.9079 40.9293 98.7929 40.9277 98.6744 40.926C98.3909 40.9217 98.1075 40.9157 97.824 40.9082C97.8254 41.0169 97.8254 41.0169 97.8269 41.1278C97.8307 41.4561 97.833 41.7845 97.8353 42.1129C97.8369 42.2269 97.8384 42.341 97.84 42.4584C97.8408 42.6228 97.8408 42.6228 97.8417 42.7905C97.8432 42.9419 97.8432 42.9419 97.8446 43.0964C97.8242 43.3602 97.7842 43.5065 97.6421 43.7267C97.3537 43.9597 97.0729 43.9129 96.7241 43.8794C96.4774 43.7913 96.4113 43.6786 96.2784 43.4539C96.2474 43.179 96.2474 43.179 96.2517 42.8615C96.2526 42.7479 96.2535 42.6342 96.2544 42.517C96.2567 42.3987 96.259 42.2803 96.2613 42.1583C96.2632 41.9787 96.2632 41.9787 96.265 41.7954C96.2683 41.4996 96.2728 41.2039 96.2784 40.9082C96.2064 40.9101 96.1344 40.912 96.0602 40.914C95.7333 40.9216 95.4064 40.9263 95.0794 40.9309C94.9661 40.934 94.8528 40.937 94.7361 40.9402C94.6268 40.9413 94.5175 40.9425 94.4049 40.9437C94.3045 40.9456 94.204 40.9475 94.1005 40.9495C93.7603 40.8988 93.6114 40.7838 93.369 40.5445C93.3086 40.3428 93.3086 40.3428 93.3121 40.1354C93.311 40.067 93.3098 39.9985 93.3086 39.928C93.3989 39.6264 93.5642 39.5337 93.8236 39.3626C94.1005 39.3213 94.1005 39.3213 94.4049 39.3271C94.5142 39.3282 94.6235 39.3294 94.7361 39.3306C94.8494 39.3337 94.9627 39.3367 95.0794 39.3399C95.1944 39.3415 95.3094 39.3431 95.428 39.3448C95.7115 39.3491 95.9949 39.3551 96.2784 39.3626C96.276 39.2874 96.2736 39.2122 96.2712 39.1347C96.2617 38.794 96.2558 38.4533 96.25 38.1125C96.2461 37.9941 96.2423 37.8757 96.2384 37.7538C96.2369 37.6401 96.2355 37.5264 96.234 37.4093C96.2316 37.3045 96.2292 37.1998 96.2268 37.0918C96.2784 36.8169 96.2784 36.8169 96.4886 36.6012C96.8123 36.4051 96.9969 36.3933 97.3694 36.4532Z" fill="#E4E4E4"/>
<path d="M29.9988 55.1825C30.0588 55.1825 30.1188 55.1825 30.1807 55.1825C30.2949 55.4467 30.3625 55.6185 30.3625 55.9098C30.2725 55.9098 30.1825 55.9098 30.0897 55.9098C29.9598 55.6958 29.9 55.5934 29.942 55.3416C29.9607 55.2891 29.9795 55.2366 29.9988 55.1825Z" fill="#E4E4E4"/>
<path d="M29.7258 51.1821C29.8158 51.1821 29.9058 51.1821 29.9985 51.1821C29.919 51.7049 29.919 51.7049 29.8167 51.9095C29.7267 51.8795 29.6367 51.8495 29.5439 51.8186C29.604 51.6085 29.664 51.3985 29.7258 51.1821Z" fill="#E4E4E4"/>
<path d="M39.8182 54.3643C39.8782 54.3643 39.9382 54.3643 40 54.3643C39.97 54.5743 39.94 54.7843 39.9091 55.0007C39.7891 55.0007 39.6691 55.0007 39.5454 55.0007C39.6354 54.7907 39.7254 54.5806 39.8182 54.3643Z" fill="#E4E4E4"/>
<path d="M30.0896 50.3639C30.1796 50.3639 30.2696 50.3639 30.3624 50.3639C30.3171 50.6992 30.2623 50.8735 29.9987 51.0912C29.9141 50.8543 29.8942 50.7601 29.993 50.523C30.0249 50.4705 30.0568 50.418 30.0896 50.3639Z" fill="#E4E4E4"/>
<path d="M36.9082 48.1818C37.1182 48.2418 37.3282 48.3018 37.5446 48.3636C37.5146 48.4836 37.4846 48.6036 37.4537 48.7273C37.2737 48.6373 37.0937 48.5473 36.9082 48.4545C36.9082 48.3645 36.9082 48.2745 36.9082 48.1818Z" fill="#E4E4E4"/>
<path d="M36.7273 57.91C36.7273 58 36.7273 58.0901 36.7273 58.1828C36.5133 58.3128 36.4109 58.3725 36.1591 58.3305C36.1066 58.3118 36.0541 58.293 36 58.2737C36.2206 58.0321 36.3854 57.91 36.7273 57.91Z" fill="#E4E4E4"/>
<path d="M32.9078 57.91C33.1178 57.97 33.3279 58.03 33.5442 58.0919C33.5142 58.1819 33.4842 58.2719 33.4533 58.3646C33.2433 58.3046 33.0333 58.2446 32.8169 58.1828C32.8469 58.0928 32.8769 58.0028 32.9078 57.91Z" fill="#E4E4E4"/>
<path d="M37.5446 57.5464C37.5146 57.6664 37.4846 57.7864 37.4537 57.9101C37.2737 57.9401 37.0937 57.9701 36.9082 58.001C36.9082 57.911 36.9082 57.821 36.9082 57.7282C37.3401 57.5464 37.3401 57.5464 37.5446 57.5464Z" fill="#E4E4E4"/>
<path d="M39.4548 55.1825C39.5448 55.2125 39.6348 55.2425 39.7275 55.2734C39.6537 55.5405 39.6537 55.5405 39.5457 55.8189C39.4557 55.8489 39.3657 55.8789 39.2729 55.9098C39.3525 55.3871 39.3525 55.3871 39.4548 55.1825Z" fill="#E4E4E4"/>
<path d="M29.6349 54.3643C29.6949 54.3643 29.7549 54.3643 29.8167 54.3643C29.8767 54.5743 29.9367 54.7843 29.9985 55.0007C29.9085 55.0307 29.8185 55.0607 29.7258 55.0916C29.6658 54.8816 29.6058 54.6716 29.5439 54.4552C29.5739 54.4252 29.604 54.3952 29.6349 54.3643Z" fill="#E4E4E4"/>
<path d="M39.1816 50.3639C39.3017 50.3639 39.4217 50.3639 39.5453 50.3639C39.6053 50.5739 39.6653 50.7839 39.7272 51.0003C39.5567 50.989 39.5567 50.989 39.3635 50.9094C39.2498 50.631 39.2498 50.631 39.1816 50.3639Z" fill="#E4E4E4"/>
<path d="M32.0898 57.5464C32.4049 57.6814 32.4049 57.6814 32.7263 57.8191C32.6963 57.9092 32.6663 57.9992 32.6354 58.0919C32.4553 58.0019 32.2753 57.9119 32.0898 57.8191C32.0898 57.7291 32.0898 57.6391 32.0898 57.5464Z" fill="#E4E4E4"/>
<path d="M39.6363 51.1821C39.7263 51.2121 39.8163 51.2421 39.9091 51.273C39.9391 51.4531 39.9691 51.6331 40 51.8186C39.91 51.8636 39.91 51.8636 39.8182 51.9095C39.7282 51.6995 39.6381 51.4894 39.5454 51.273C39.5754 51.243 39.6054 51.213 39.6363 51.1821Z" fill="#E4E4E4"/>
<path d="M32.5444 48.1818C32.6044 48.2118 32.6644 48.2418 32.7263 48.2727C32.6963 48.3627 32.6663 48.4527 32.6354 48.5454C32.3569 48.6534 32.3569 48.6534 32.0898 48.7273C32.0898 48.6073 32.0898 48.4872 32.0898 48.3636C32.3058 48.267 32.3058 48.267 32.5444 48.1818Z" fill="#E4E4E4"/>
<path d="M36.0909 47.9091C36.3609 47.9541 36.3609 47.9541 36.6364 48C36.6364 48.12 36.6364 48.24 36.6364 48.3637C36.4264 48.2736 36.2164 48.1836 36 48.0909C36.03 48.0309 36.06 47.9709 36.0909 47.9091Z" fill="#E4E4E4"/>
<path d="M33.5446 47.9091C33.5146 47.9991 33.4846 48.0891 33.4537 48.1818C33.1753 48.2898 33.1753 48.2898 32.9082 48.3637C32.9423 48.1875 32.9423 48.1875 32.9991 48C33.181 47.9091 33.181 47.9091 33.5446 47.9091Z" fill="#E4E4E4"/>
</g>
<defs>
<clipPath id="clip0_2374_8216">
<rect width="100" height="100" fill="white" transform="translate(0.776367 -0.00439453)"/>
</clipPath>
</defs>
</svg>
