<svg width="101" height="101" viewBox="0 0 101 101" fill="none" xmlns="http://www.w3.org/2000/svg">
<g clip-path="url(#clip0_2336_10768)">
<path d="M25.1854 50.1309C25.1372 50.1309 25.089 50.1309 25.0407 50.1309L20.7474 42.3162C20.8439 42.1714 20.8439 42.0267 20.8439 41.8338C20.8439 41.2549 20.3615 40.8207 19.8309 40.8207C19.5414 40.8207 19.252 40.9655 19.1073 41.1584L10.6172 39.4218C10.5689 38.8912 10.1348 38.5052 9.60415 38.5052C9.02528 38.5052 8.59113 38.9876 8.59113 39.5183C8.59113 39.7112 8.63937 39.8559 8.68761 40.0007L2.07883 49.5038C1.98235 49.5038 1.88587 49.4556 1.78939 49.4556C1.21052 49.4556 0.776367 49.938 0.776367 50.4686C0.776367 51.0475 1.25876 51.4816 1.78939 51.4816H1.83763L5.40734 60.3094C5.3591 60.4541 5.31086 60.5988 5.31086 60.7436C5.31086 61.3224 5.79325 61.7566 6.32388 61.7566C6.61332 61.7566 6.90275 61.6119 7.04747 61.4189L17.7566 62.4802C17.8531 62.9143 18.2872 63.252 18.7696 63.252C19.3485 63.252 19.7826 62.7696 19.7826 62.239C19.7826 61.9978 19.6862 61.7566 19.5414 61.5636L24.9442 52.157C24.9925 52.157 25.0407 52.157 25.1372 52.157C25.7161 52.157 26.1502 51.6746 26.1502 51.1439C26.1985 50.6133 25.7643 50.1309 25.1854 50.1309ZM19.0108 42.4609C19.1555 42.6056 19.3002 42.7503 19.4932 42.7985L17.8531 55.0513C17.7566 55.0513 17.6601 55.0996 17.5636 55.1478L8.63937 47.4295C8.63937 47.333 8.68761 47.2366 8.68761 47.1401C8.68761 47.0918 8.68761 46.9954 8.68761 46.9471L19.0108 42.4609ZM24.1724 51.4816L18.6731 55.2443C18.6249 55.196 18.5767 55.196 18.5284 55.1478L20.2168 42.7985L24.4136 50.5168C24.2689 50.7098 24.1724 50.951 24.1724 51.1922C24.1242 51.2887 24.1724 51.3851 24.1724 51.4816ZM7.52986 46.1271C7.04747 46.2235 6.66156 46.6094 6.66156 47.1401V47.1883L2.99537 49.3591L8.68761 41.2066L7.52986 46.1271ZM7.91578 48.1531C8.0605 48.1049 8.20521 48.0566 8.30169 48.0084L17.1295 55.6784C17.0812 55.7749 17.0812 55.9196 17.0812 56.0643V56.1126L7.19219 60.1647C7.04747 59.9717 6.80628 59.7788 6.56508 59.7305L7.91578 48.1531ZM17.3224 56.7397C17.4672 56.8844 17.6601 56.9809 17.8531 57.0291L18.3355 61.3224C18.1425 61.4189 17.9495 61.6119 17.8531 61.8048L7.48163 60.7918L17.3224 56.7397ZM18.5767 56.9809C18.9143 56.8362 19.1555 56.4503 19.1555 56.0643C19.1555 55.9679 19.1555 55.8714 19.1073 55.8231L24.1242 52.3982L19.059 61.1777L18.5767 56.9809ZM18.8179 41.7855L8.34993 46.3682C8.30169 46.32 8.25345 46.32 8.25345 46.2718L9.60415 40.5795H9.65239C10.0383 40.5795 10.3277 40.3866 10.5207 40.0971L18.8179 41.7855ZM2.85066 50.4686C2.85066 50.4203 2.85066 50.3239 2.85066 50.2756L6.99923 47.8154C7.09571 47.9119 7.19219 47.9601 7.28867 48.0084L5.93797 59.5858L2.56122 51.2404C2.70594 51.0475 2.85066 50.8063 2.85066 50.4686Z" fill="#E4E4E4"/>
<path d="M37.8242 54.9547V47.5741C37.8242 44.0044 40.5256 42.6537 44.0471 42.6537C47.5203 42.6537 50.27 44.0044 50.27 47.5741V54.9547C50.27 58.5244 47.5203 59.8751 44.0471 59.8751C40.5256 59.8751 37.8242 58.5244 37.8242 54.9547ZM48.7263 47.5741C48.7263 44.9692 46.9897 43.8114 44.0471 43.8114C41.1045 43.8114 39.3679 45.0174 39.3679 47.5741V54.9547C39.3679 57.5596 41.1045 58.7174 44.0471 58.7174C46.9897 58.7174 48.7263 57.5114 48.7263 54.9547V47.5741Z" fill="#E4E4E4"/>
<path d="M65.5614 58.8622L56.4924 45.4517V59.1999C56.4924 59.5375 56.1065 59.7305 55.7206 59.7305C55.3346 59.7305 54.9487 59.5858 54.9487 59.1999V43.1844C54.9487 42.7985 55.3346 42.702 55.7206 42.702C56.2994 42.702 56.6853 43.2809 56.9748 43.6668L65.899 56.9809V43.1844C65.899 42.8467 66.285 42.702 66.6709 42.702C67.0568 42.702 67.4427 42.8467 67.4427 43.1844V59.1999C67.4427 59.5375 67.0568 59.7305 66.6709 59.7305C66.1885 59.7305 65.8508 59.2481 65.5614 58.8622Z" fill="#E4E4E4"/>
<path d="M82.9281 58.8622L73.8591 45.4517V59.1999C73.8591 59.5375 73.4732 59.7305 73.0873 59.7305C72.7013 59.7305 72.3154 59.5858 72.3154 59.1999V43.1844C72.3154 42.7985 72.7013 42.702 73.0873 42.702C73.6661 42.702 74.052 43.2809 74.3415 43.6668L83.2657 56.9809V43.1844C83.2657 42.8467 83.6517 42.702 84.0376 42.702C84.4235 42.702 84.8094 42.8467 84.8094 43.1844V59.1999C84.8094 59.5375 84.4235 59.7305 84.0376 59.7305C83.6034 59.7305 83.2175 59.2481 82.9281 58.8622Z" fill="#E4E4E4"/>
<path d="M94.4086 52.3015L89.8259 58.9586C89.6329 59.2962 89.3435 59.7304 88.9093 59.7304C88.5234 59.7304 88.041 59.4892 88.041 59.1515C88.041 59.055 88.0892 58.9586 88.1857 58.8621L93.492 51.192L88.2822 43.5702C88.1375 43.4255 88.0893 43.2808 88.0893 43.1361C88.0893 42.8466 88.4752 42.6537 88.9576 42.6537C89.3917 42.6537 89.6811 43.0878 89.9223 43.4738L94.4086 50.0825L98.8949 43.4738C99.136 43.1361 99.4255 42.6537 99.8596 42.6537C100.342 42.6537 100.728 42.8466 100.728 43.1361C100.728 43.2808 100.68 43.4255 100.535 43.5702L95.2769 51.192L100.631 58.8621C100.68 58.9586 100.776 59.055 100.776 59.1515C100.776 59.4892 100.342 59.7304 99.9079 59.7304C99.4255 59.7304 99.1843 59.248 98.9913 58.9586L94.4086 52.3015Z" fill="#E4E4E4"/>
</g>
<defs>
<clipPath id="clip0_2336_10768">
<rect width="100" height="100" fill="white" transform="translate(0.776367 0.878662)"/>
</clipPath>
</defs>
</svg>
