<svg width="101" height="101" viewBox="0 0 101 101" fill="none" xmlns="http://www.w3.org/2000/svg">
<g clip-path="url(#clip0_2336_10794)">
<path d="M43.9527 39.723C41.4235 38.2707 39.4468 36.0289 38.3292 33.3454C37.2116 30.6618 37.0155 27.6865 37.7714 24.8808C38.5273 22.0751 40.1928 19.5959 42.5098 17.8276C44.8268 16.0594 47.6656 15.101 50.5861 15.101C53.5065 15.101 56.3454 16.0594 58.6624 17.8276C60.9793 19.5959 62.6449 22.0751 63.4008 24.8808C64.1566 27.6865 63.9606 30.6618 62.843 33.3454C61.7253 36.0289 59.7486 38.2707 57.2195 39.723L53.225 32.8419C54.2312 32.2642 55.0176 31.3723 55.4622 30.3047C55.9068 29.2371 55.9849 28.0534 55.6841 26.9373C55.3834 25.8211 54.7208 24.8348 53.7991 24.1313C52.8773 23.4278 51.7479 23.0466 50.5861 23.0466C49.4242 23.0466 48.2949 23.4278 47.3731 24.1313C46.4513 24.8348 45.7887 25.8211 45.488 26.9373C45.1873 28.0534 45.2653 29.2371 45.7099 30.3047C46.1546 31.3723 46.9409 32.2642 47.9471 32.8419L43.9527 39.723Z" fill="#E4E4E4"/>
<path d="M72.3622 42.9173C74.8914 44.3697 76.8681 46.6115 77.9857 49.295C79.1033 51.9786 79.2994 54.9539 78.5435 57.7596C77.7877 60.5653 76.1221 63.0445 73.8051 64.8127C71.4882 66.581 68.6493 67.5394 65.7289 67.5394C62.8084 67.5394 59.9695 66.581 57.6526 64.8127C55.3356 63.0445 53.67 60.5653 52.9142 57.7596C52.1583 54.9539 52.3544 51.9786 53.472 49.295C54.5896 46.6115 56.5663 44.3697 59.0955 42.9173L63.0899 49.7984C62.0837 50.3762 61.2973 51.2681 60.8527 52.3357C60.4081 53.4033 60.3301 54.5869 60.6308 55.7031C60.9315 56.8193 61.5941 57.8056 62.5159 58.5091C63.4376 59.2125 64.567 59.5938 65.7289 59.5938C66.8907 59.5938 68.0201 59.2125 68.9418 58.5091C69.8636 57.8056 70.5262 56.8193 70.8269 55.7031C71.1276 54.5869 71.0496 53.4033 70.605 52.3357C70.1604 51.2681 69.374 50.3762 68.3678 49.7984L72.3622 42.9173Z" fill="#E4E4E4"/>
<path d="M48.9958 54.3445C48.9958 57.2492 48.0321 60.0727 46.2542 62.3771C44.4764 64.6815 41.9836 66.3381 39.1627 67.0898C36.3417 67.8416 33.3502 67.6466 30.652 66.5351C27.9539 65.4235 25.6999 63.4575 24.2397 60.942C22.7794 58.4265 22.1946 55.502 22.5758 52.6222C22.957 49.7424 24.2829 47.0682 26.348 45.0143C28.4131 42.9604 31.1019 41.6416 33.9974 41.2625C36.8928 40.8833 39.8332 41.4651 42.3624 42.9174L38.368 49.7985C37.3618 49.2207 36.192 48.9893 35.0401 49.1401C33.8882 49.2909 32.8185 49.8156 31.997 50.6327C31.1754 51.4498 30.6479 52.5137 30.4963 53.6594C30.3446 54.805 30.5773 55.9685 31.1582 56.9692C31.7391 57.9699 32.6358 58.7521 33.7092 59.1943C34.7827 59.6365 35.9728 59.7141 37.095 59.415C38.2173 59.1159 39.209 58.4569 39.9163 57.5401C40.6235 56.6234 41.0069 55.5001 41.0069 54.3445L48.9958 54.3445Z" fill="#E4E4E4"/>
<path fill-rule="evenodd" clip-rule="evenodd" d="M26.2507 70.7031C27.3735 70.6027 28.5088 70.6036 29.6259 70.7628C30.3145 70.884 31.045 71.0612 31.5621 71.5603C32.104 72.1618 32.2374 72.9973 32.3564 73.7674C32.5516 75.3654 32.5288 76.9861 32.3564 78.585C32.2412 79.3655 32.1278 80.2085 31.6135 80.8432C31.0526 81.4096 30.224 81.5706 29.464 81.69C28.3421 81.8292 27.204 81.8614 26.0774 81.7497C25.3145 81.672 24.5183 81.5384 23.8688 81.1055C23.4488 80.8403 23.2231 80.3724 23.0697 79.9187C22.7621 78.9733 22.7231 77.9693 22.6812 76.9842C22.6764 75.6827 22.7012 74.3679 22.9564 73.0873C23.0945 72.4896 23.2621 71.8322 23.7697 71.4334C24.485 70.9172 25.3945 70.7921 26.2507 70.7031ZM26.4364 72.4867C27.3878 72.411 28.3593 72.3882 29.3002 72.572C29.665 72.6449 30.0954 72.8211 30.164 73.2341C30.4497 74.3963 30.3831 75.6069 30.3945 76.7947C30.3593 77.6396 30.3793 78.513 30.0945 79.3219C29.8459 79.8533 29.1688 79.8969 28.6583 79.9746C27.6345 80.0323 26.5716 80.0835 25.5783 79.7813C25.1202 79.661 24.9754 79.1723 24.905 78.7621C24.7145 77.5468 24.7764 76.3107 24.8002 75.0859C24.8507 74.3992 24.8421 73.6869 25.0907 73.0342C25.3754 72.5966 25.964 72.5578 26.4364 72.4867Z" fill="#E4E4E4"/>
<path fill-rule="evenodd" clip-rule="evenodd" d="M36.4688 74.4049C37.1507 73.9739 37.9974 73.9038 38.7841 73.9749C39.5183 74.0374 40.3336 74.2856 40.7269 74.9581C41.1964 75.8021 41.2231 76.7995 41.2555 77.741C41.2345 78.7091 41.2164 79.7198 40.8145 80.6197C40.585 81.1662 40.0574 81.5243 39.4926 81.6654C38.6279 81.8766 37.6774 81.8994 36.8441 81.5565C36.3936 81.3812 36.0822 81.0004 35.8241 80.6102C35.8241 82.085 35.8241 83.5599 35.8241 85.0347H33.9193C33.9203 81.3727 33.9174 77.7098 33.9203 74.0478C34.5364 74.045 35.1526 74.045 35.7679 74.0478C35.7469 74.4248 35.726 74.8009 35.7155 75.1788C35.9441 74.9013 36.1564 74.5963 36.4688 74.4049ZM37.0888 75.3938C37.6222 75.3531 38.186 75.3417 38.685 75.5605C39.0012 75.696 39.1679 76.0285 39.2241 76.3505C39.3898 77.1812 39.3688 78.0394 39.3098 78.8806C39.2507 79.3883 39.1688 80.0456 38.6069 80.2427C37.9574 80.4539 37.2164 80.4672 36.5745 80.2199C35.9774 79.9699 35.9079 79.2509 35.8488 78.693C35.8136 77.8367 35.7707 76.9558 36.0136 76.1241C36.1422 75.6524 36.6355 75.4289 37.0888 75.3938Z" fill="#E4E4E4"/>
<path fill-rule="evenodd" clip-rule="evenodd" d="M43.5346 74.4191C44.4708 73.9408 45.567 73.9237 46.5946 73.972C47.4498 74.0431 48.4879 74.1852 48.9594 74.9988C49.4908 75.9811 49.4041 77.1367 49.4784 78.2147C47.7413 78.2147 46.0041 78.2147 44.2679 78.2147C44.3289 78.7707 44.2565 79.3703 44.5384 79.8799C44.7794 80.2825 45.2908 80.3649 45.7232 80.3885C46.2575 80.3923 46.8327 80.4359 47.3251 80.1887C47.607 79.9689 47.6089 79.5787 47.6451 79.2566C48.2546 79.2557 48.8641 79.2557 49.4737 79.2566C49.4508 79.8894 49.3689 80.5979 48.8584 81.0431C48.0917 81.727 46.9946 81.798 46.0137 81.817C45.1479 81.7914 44.2337 81.7478 43.4584 81.3235C42.8308 80.955 42.6308 80.1982 42.5203 79.5313C42.3803 78.5405 42.3451 77.5308 42.4641 76.5362C42.5613 75.7509 42.7737 74.8274 43.5346 74.4191ZM44.6479 75.6249C45.1679 75.3105 45.8117 75.3739 46.3956 75.3825C46.7575 75.4213 47.1984 75.4421 47.4337 75.7604C47.6737 76.1535 47.6308 76.6347 47.6327 77.0761C46.5117 77.078 45.3917 77.0808 44.2717 77.0751C44.2889 76.5845 44.2498 75.9858 44.6479 75.6249Z" fill="#E4E4E4"/>
<path fill-rule="evenodd" clip-rule="evenodd" d="M53.5346 74.4144C54.1937 73.9597 55.0451 73.8962 55.8204 73.9853C56.4804 74.0544 57.1794 74.3045 57.5689 74.8709C57.9146 75.3408 58.0108 75.9394 58.0156 76.5087C58.0127 78.2459 58.0165 79.9822 58.0146 81.7194C57.4108 81.7203 56.808 81.7203 56.2061 81.7194C56.2032 80.0759 56.208 78.4334 56.2032 76.791C56.1851 76.432 56.1994 76.0171 55.928 75.7405C55.6385 75.4289 55.1842 75.3682 54.7794 75.3711C54.2899 75.3682 53.7604 75.4516 53.3832 75.7879C53.0146 76.1004 52.8746 76.6044 52.8727 77.0704C52.8699 78.6201 52.8737 80.1697 52.8708 81.7184C52.268 81.7203 51.6651 81.7203 51.0632 81.7194C51.0623 79.1619 51.0623 76.6044 51.0632 74.0468C51.6556 74.045 52.2489 74.0459 52.8413 74.0468C52.8385 74.4958 52.7937 74.942 52.7804 75.391C52.9746 75.0282 53.1785 74.6455 53.5346 74.4144Z" fill="#E4E4E4"/>
<path fill-rule="evenodd" clip-rule="evenodd" d="M61.2896 71.0536C62.2877 70.7202 63.3515 70.6728 64.3953 70.6359C65.4067 70.6406 66.4639 70.6501 67.4086 71.0555C67.8886 71.2544 68.221 71.6901 68.3829 72.1713C68.6467 72.8903 68.6544 73.6689 68.6601 74.4257C67.9639 74.4257 67.2677 74.4276 66.5725 74.4248C66.561 73.8924 66.602 73.2957 66.2706 72.8429C65.9353 72.5019 65.4115 72.5028 64.9667 72.4508C64.062 72.4337 63.1201 72.3759 62.2534 72.6866C61.941 72.7851 61.7791 73.0958 61.7163 73.3951C61.5382 74.1984 61.5372 75.0272 61.5382 75.8466C61.5486 76.9415 61.5315 78.0526 61.7667 79.1296C61.8286 79.5237 62.1934 79.7662 62.5591 79.8533C63.4048 80.0627 64.2877 80.0323 65.1515 79.9812C65.602 79.9225 66.1506 79.8931 66.4334 79.482C66.7353 78.9913 66.6848 78.388 66.6686 77.8367C67.3715 77.8338 68.0734 77.8348 68.7763 77.8367C68.7677 78.7072 68.7525 79.6061 68.4344 80.4302C68.2706 80.8612 67.9325 81.2268 67.4944 81.3916C66.6344 81.7345 65.6915 81.7563 64.7791 81.8112C63.721 81.8292 62.6496 81.8037 61.6153 81.5583C61.0086 81.4011 60.3458 81.1245 60.0648 80.5249C59.7058 79.7321 59.6401 78.8502 59.5477 77.9968C59.4706 76.8696 59.421 75.7405 59.4486 74.6114C59.5029 73.6973 59.5867 72.734 60.0829 71.9374C60.3467 71.4941 60.8096 71.2165 61.2896 71.0536Z" fill="#E4E4E4"/>
<path fill-rule="evenodd" clip-rule="evenodd" d="M69.1191 70.7344C69.8449 70.7353 70.5706 70.7145 71.2953 70.7448C72.001 72.9717 72.7763 75.1759 73.4887 77.4C73.7658 78.2544 73.962 79.1334 74.2487 79.985C74.5696 79.0662 74.7753 78.1114 75.0896 77.1907C75.7858 75.0395 76.501 72.895 77.1963 70.7439C77.9125 70.7135 78.6306 70.7401 79.3477 70.7306V70.9664C78.1687 74.5403 77.0172 78.1237 75.862 81.7061C74.7839 81.7279 73.7039 81.7307 72.6258 81.7042C71.4772 78.0413 70.2734 74.3954 69.1191 70.7344Z" fill="#E4E4E4"/>
</g>
<defs>
<clipPath id="clip0_2336_10794">
<rect width="57.1429" height="70" fill="white" transform="translate(22.2051 15.0347)"/>
</clipPath>
</defs>
</svg>
