<svg width="101" height="101" viewBox="0 0 101 101" fill="none" xmlns="http://www.w3.org/2000/svg">
<path fill-rule="evenodd" clip-rule="evenodd" d="M43.853 26.7104C45.9905 26.7104 48.1281 26.7434 50.2628 26.6876C50.829 26.6728 51.8449 27.1412 51.7993 25.9643C51.7646 25.0065 50.8763 25.3531 50.3379 25.3446C47.9266 25.3064 45.5074 25.2148 43.1058 25.3656C41.3968 25.472 40.8931 24.8233 41.1077 23.256C41.1817 22.7153 41.1105 22.1553 41.1219 21.6045C41.197 17.936 42.0837 16.6874 45.6417 15.7826C49.5616 14.7867 53.5732 14.8197 57.4823 15.6779C60.9965 16.4496 62.4563 19.1835 62.2787 21.7126C62.0624 24.7988 62.2298 27.9118 62.2269 31.0134C62.2218 34.9134 60.2066 36.9832 56.2747 37.0373C53.0366 37.0817 49.7944 37.1169 46.5579 37.027C42.7006 36.9189 39.871 40.1229 39.8517 43.7538C39.8517 44.0292 39.8989 44.3138 39.8443 44.5795C39.5666 45.9129 40.6763 48.0681 39.2627 48.4642C37.1115 49.0686 34.5926 49.0686 32.6953 47.149C32.0522 46.5002 31.5104 45.7735 31.2247 44.9335C29.7001 40.4575 29.4594 35.9247 30.8946 31.3787C31.7893 28.5412 34.2227 26.7764 37.2372 26.7258C39.4419 26.6888 41.6472 26.7184 43.8519 26.7184L43.853 26.7104ZM47.7809 20.382C47.6887 19.299 47.1065 18.5086 45.9052 18.4756C44.5911 18.4414 43.9122 19.2359 43.9105 20.5289C43.9094 21.7274 44.5621 22.4951 45.7549 22.5298C47.0656 22.5679 47.7001 21.7558 47.7809 20.382Z" fill="#E4E4E4"/>
<path fill-rule="evenodd" clip-rule="evenodd" d="M60.3508 48.6512C57.9378 48.6512 55.5237 48.6301 53.1107 48.6682C52.5672 48.6751 51.6555 48.3313 51.6271 49.2607C51.5952 50.3146 52.5735 50.0403 53.1949 50.0466C55.6079 50.0767 58.0232 50.1024 60.4356 50.0352C61.6751 50.0011 62.181 50.2384 62.2737 51.6998C62.6932 58.3156 59.8221 58.8875 54.5266 60.0912C51.4888 60.7815 48.2318 60.4156 45.2361 59.0736C42.7588 57.9656 41.2387 56.3687 41.4305 53.3787C41.6206 50.4273 41.6525 47.4378 41.4254 44.4893C41.1522 40.9308 43.366 38.3135 47.6713 38.3123C50.568 38.3118 53.484 38.091 56.3557 38.355C60.4617 38.7318 63.6811 35.1726 63.8223 31.0341C63.828 30.897 63.7927 30.7496 63.828 30.6221C64.1899 29.3502 62.9026 27.4596 64.6247 26.8171C67.2272 25.8468 70.162 26.8666 71.4914 28.8414C73.1674 31.3278 73.3939 34.2535 73.6648 37.1104C73.9579 40.1898 73.094 43.0888 71.8005 45.8666C70.9218 47.7503 69.4444 48.6608 67.386 48.6637C65.0413 48.6654 62.6972 48.6637 60.3519 48.6637L60.3508 48.6512ZM59.7225 54.7974C59.4647 53.6217 58.9343 52.8192 57.5684 52.7857C56.148 52.7515 55.7815 53.814 55.7889 54.7627C55.7968 55.7711 56.078 57.0118 57.6157 56.8957C58.8939 56.7978 59.517 56.0062 59.7225 54.7974Z" fill="#E4E4E4"/>
<path fill-rule="evenodd" clip-rule="evenodd" d="M22.395 78.9726C22.395 80.442 22.4616 81.8181 22.3637 83.1822C22.3216 83.7707 22.9704 84.8781 21.736 84.877C20.6479 84.877 20.3685 84.0108 20.4032 82.9643C20.4698 80.9667 20.4225 78.9652 20.4225 76.966V72.4143C20.4225 69.6713 21.1584 68.7425 23.7819 68.1745C26.2211 67.6441 28.1378 68.4653 29.1235 70.6006C30.1092 72.7364 30.1854 74.9371 29.1992 77.1099C28.2272 79.2509 26.4368 80.0499 24.1433 79.4154C23.6209 79.2731 23.0933 79.1496 22.395 78.9726ZM22.395 73.5958C22.395 74.3527 22.4975 75.1244 22.374 75.8608C22.0883 77.5629 23.1753 77.9824 24.4569 78.2851C25.7243 78.5845 26.5933 78.0455 27.1015 76.929C27.9557 75.0566 28.0991 73.1257 27.4503 71.1458C26.8744 69.3861 25.5444 69.1801 23.9919 69.3987C22.4588 69.6166 22.2511 70.6592 22.3848 71.9482C22.4417 72.4917 22.395 73.0466 22.395 73.5958ZM38.8915 78.8816C37.8415 79.1547 36.9298 79.4461 35.9965 79.6214C33.9534 80.0032 32.4408 78.8816 31.9086 76.8362C31.2485 74.3049 31.8073 71.7832 31.8244 69.2575C31.8318 68.1062 32.8972 68.5553 33.6342 67.9384C33.6342 70.6416 33.6444 72.9749 33.6307 75.3065C33.6233 76.4777 33.9261 77.4406 35.0336 78.0581C36.256 78.7398 37.2587 78.0905 38.323 77.6529C39.0855 77.3393 38.9905 76.6991 38.9916 76.0901C38.9973 73.8866 38.9911 71.6853 38.9985 69.4818C38.9996 68.9383 38.9433 68.2741 39.7457 68.3009C40.4611 68.3242 40.7724 68.7493 40.7604 69.529C40.7086 73.1752 40.8116 76.8265 40.6637 80.4676C40.5515 83.2209 38.6092 84.9026 35.8149 85.0261C35.3967 85.0437 34.9584 85.0824 34.8019 84.5634C34.5635 83.7644 35.2106 83.9152 35.6357 83.7792C38.7094 82.8015 39.1112 82.2176 38.8915 78.8816ZM51.8806 69.4203C52.6938 69.0362 53.1611 68.6844 53.675 68.5894C56.5586 68.0562 58.7684 68.2593 58.7627 72.1434C58.7587 74.1438 58.7638 76.1448 58.7587 78.1446C58.7576 78.7046 58.7934 79.2498 57.9586 79.2981C57.0782 79.3505 56.8847 78.8468 56.8886 78.1565C56.8989 76.229 56.9512 74.3014 56.9495 72.3745C56.9484 70.8778 56.6428 69.5529 54.7392 69.5574C53.0694 69.5603 51.8868 70.8066 51.8783 72.5264C51.8687 74.3881 51.8693 76.2499 51.88 78.1116C51.8817 78.7729 51.896 79.3528 50.9399 79.2981C50.0788 79.2469 50.1847 78.6664 50.1847 78.132C50.179 73.2378 50.2029 68.3384 50.1613 63.4408C50.1539 62.5826 50.4926 62.0499 51.254 62.0135C52.3285 61.964 51.8362 62.9035 51.8521 63.3748C51.9221 65.2932 51.8806 67.2162 51.8806 69.4203ZM60.9805 73.8086C60.8718 69.9871 62.6843 67.9469 65.9658 68.0653C67.6127 68.1256 68.8482 68.8563 69.6456 70.2791C71.0541 72.7956 70.8634 75.3133 69.3394 77.6699C68.2922 79.2885 66.6817 80.0516 64.7183 79.635C62.7822 79.2253 61.2662 77.4821 60.9918 75.4505C60.919 74.9127 60.9805 74.3555 60.9805 73.8086ZM68.5609 73.898C68.4744 73.231 68.4897 72.3011 68.212 71.4713C67.8324 70.3331 67.1404 69.4169 65.7285 69.3543C64.304 69.2928 63.5932 70.1254 63.118 71.2778C62.3719 73.087 62.4203 74.9036 63.2284 76.6803C63.7474 77.8247 64.5487 78.6624 65.9373 78.4303C67.3049 78.202 68.1118 77.3057 68.3913 75.9757C68.5182 75.3731 68.4977 74.7414 68.5609 73.898ZM72.5485 74.4073C72.5485 73.7176 72.5354 73.0289 72.5508 72.3426C72.5827 71.0195 72.161 69.5535 73.9451 68.8774C75.9882 68.1057 78.013 67.5275 80.0697 68.722C80.8392 69.1693 81.1226 69.982 81.1305 70.8447C81.1516 73.2526 81.1197 75.6616 81.1522 78.0694C81.1635 78.9094 80.9427 79.3294 79.9986 79.3067C78.964 79.2822 79.1819 78.5765 79.1888 78.0131C79.2132 76.0896 79.347 74.1677 79.3106 72.247C79.2627 69.8283 77.9356 68.8421 75.6746 69.4357C74.7367 69.6826 74.1505 70.1379 74.1966 71.2989C74.2883 73.565 74.2177 75.8392 74.2262 78.1093C74.2285 78.7672 74.2382 79.3499 73.2889 79.2947C72.4193 79.2446 72.5616 78.6431 72.5548 78.1212C72.5389 76.8829 72.5502 75.644 72.5485 74.4073ZM47.7541 69.0441C47.6118 69.2126 47.4923 69.4766 47.3671 69.4789C45.1112 69.5102 45.7372 71.1942 45.6791 72.4433C45.6239 73.6071 45.6791 74.7766 45.6626 75.9439C45.6455 77.1037 45.7463 78.1816 47.1576 78.4894C47.5623 78.5771 47.7467 78.8104 47.6624 79.2145C47.5697 79.6606 47.214 79.643 46.8617 79.6384C45.2398 79.61 44.0373 78.4633 43.9895 76.7844C43.9405 75.0692 44.0071 73.3499 43.9667 71.6364C43.9456 70.8225 44.3685 69.7839 43.0561 69.4613C42.9122 69.4266 42.8609 69.0185 42.767 68.7857C44.5176 68.2366 43.7914 66.7267 44.0316 65.5812C44.1454 65.0388 44.6604 64.8903 45.147 64.8442C45.6393 64.7975 45.6433 65.1959 45.6592 65.5288C45.7241 66.8491 45.0406 68.6162 47.4712 68.52C47.5526 68.5171 47.6476 68.8404 47.7541 69.0441Z" fill="#E4E4E4"/>
</svg>
