<svg width="101" height="101" viewBox="0 0 101 101" fill="none" xmlns="http://www.w3.org/2000/svg">
<g clip-path="url(#clip0_2336_10759)">
<path d="M28.3382 37.7154C25.9124 41.8738 27.2985 47.0718 31.457 49.4976L61.2589 67.1708C65.4174 69.5966 70.6154 68.2104 73.0411 64.052C75.4669 59.8936 74.0807 54.6956 69.9223 52.2698L40.1203 34.5966C35.9619 32.1708 30.7639 33.557 28.3382 37.7154Z" fill="#7C7C7C"/>
<path d="M28.1648 46.2055C30.5906 50.3639 35.7886 51.75 39.947 49.3243L69.9222 31.9976C74.0806 29.5718 75.4668 24.3738 73.041 20.2154C70.6153 16.057 65.4173 14.6708 61.2589 17.0966L31.2836 34.4233C27.1252 36.849 25.7391 42.0471 28.1648 46.2055Z" fill="#E4E4E4"/>
<path d="M73.2143 55.5619C70.7886 51.4035 65.5906 50.0174 61.4321 52.4431L31.2836 69.5966C27.1252 72.0223 25.7391 77.2204 28.1648 81.3788C30.5906 85.5372 35.7886 86.9233 39.947 84.4976L69.9222 67.1709C74.0807 64.9184 75.6401 59.5471 73.2143 55.5619Z" fill="#E4E4E4"/>
</g>
<defs>
<clipPath id="clip0_2336_10759">
<rect width="47.995" height="70" fill="white" transform="translate(26.7788 15.8837)"/>
</clipPath>
</defs>
</svg>
