<svg width="101" height="101" viewBox="0 0 101 101" fill="none" xmlns="http://www.w3.org/2000/svg">
<g clip-path="url(#clip0_2336_10792)">
<path d="M13.2806 47.5942C10.987 47.3219 10.8171 44.2416 7.87796 44.5139C6.45085 44.5139 5.12567 45.1095 5.12567 46.4199C5.12567 48.394 8.16678 48.5812 10.0016 49.0747C13.1277 50.0278 16.1518 50.6744 16.1518 54.0781C16.1518 58.4007 12.7709 59.8983 8.3027 59.8983C4.56502 59.8983 0.776367 58.5709 0.776367 55.1332C0.776367 54.1802 1.6938 53.4314 2.57725 53.4314C3.69855 53.4314 4.08931 53.9079 4.48007 54.6907C5.34653 56.2224 6.31493 57.0392 8.72744 57.0392C10.2565 57.0392 11.8195 56.4606 11.8195 55.1332C11.8195 53.2442 9.89971 52.8358 7.91194 52.3763C4.39512 51.3892 1.371 50.8787 1.01422 46.9645C0.640451 40.2934 14.5208 40.0381 15.3193 45.8923C15.3024 46.9475 14.317 47.5942 13.2806 47.5942ZM29.7944 41.7399C34.6703 41.7399 37.4396 45.8243 37.4396 50.8616C37.4396 55.916 34.7553 59.9834 29.7944 59.9834C27.0421 59.9834 25.3261 58.8091 24.0859 57.0052V63.6763C24.0859 65.6845 23.4403 66.6545 21.9792 66.6545C20.1953 66.6545 19.8725 65.5143 19.8725 63.6763V44.2756C19.8725 42.6929 20.5351 41.7229 21.9792 41.7229C23.3384 41.7229 24.0859 42.795 24.0859 44.2756V44.8202C25.4621 43.0843 27.0421 41.7399 29.7944 41.7399ZM28.6391 56.5117C31.4933 56.5117 32.7675 53.8739 32.7675 50.7936C32.7675 47.7814 31.4763 45.0755 28.6391 45.0755C25.6659 45.0755 24.2898 47.5261 24.2898 50.7936C24.2898 53.976 25.6829 56.5117 28.6391 56.5117ZM40.7526 46.505C40.7526 42.9993 44.7791 41.7399 48.6867 41.7399C54.1743 41.7399 56.4339 43.3396 56.4339 48.6493V53.7547C56.4339 54.963 57.1814 57.3796 57.1814 58.1114C57.1814 59.2176 56.162 59.9153 55.0747 59.9153C53.8684 59.9153 52.968 58.4858 52.3224 57.4647C50.5385 58.8942 48.6527 59.9153 45.7645 59.9153C42.5704 59.9153 40.056 58.0263 40.056 54.912C40.056 52.155 42.0268 50.5723 44.4053 50.0278C44.4053 50.0448 52.0506 48.2238 52.0506 48.2068C52.0506 45.8583 51.2181 44.8202 48.7546 44.8202C46.58 44.8202 45.4757 45.4158 44.6262 46.7262C43.9466 47.7133 44.0315 48.3089 42.7234 48.3089C41.67 48.2919 40.7526 47.5771 40.7526 46.505ZM47.2765 57.0392C50.6235 57.0392 52.0336 55.2694 52.0336 51.7466V50.9978C51.1331 51.3041 47.4974 52.2061 46.512 52.3592C45.4587 52.5635 44.4053 53.3463 44.4053 54.5886C44.4393 55.9501 45.8324 57.0392 47.2765 57.0392ZM71.8603 35.0858C76.5834 35.0858 81.6972 37.9108 81.6972 42.4036C81.6972 43.5609 80.8307 44.5139 79.6924 44.5139C78.1464 44.5139 77.9255 43.68 77.2459 42.5057C76.1077 40.4125 74.7655 39.017 71.8433 39.017C67.3241 38.983 65.3024 42.8631 65.3024 47.6963C65.3024 52.5635 66.9843 56.0692 71.6564 56.0692C74.7655 56.0692 76.4814 54.2653 77.3649 51.9338C77.7216 50.8616 78.3673 49.8235 79.7094 49.8235C80.7628 49.8235 81.8161 50.8957 81.8161 52.0529C81.8161 56.818 76.9571 60.1195 71.9622 60.1195C66.4916 60.1195 63.3995 57.8051 61.7006 53.959C60.8681 52.121 60.3414 50.215 60.3414 47.5942C60.3075 40.2083 64.6058 35.0858 71.8603 35.0858ZM98.8735 41.7399C100.08 41.7399 100.776 42.5227 100.776 43.7481C100.776 44.2416 100.386 45.2286 100.233 45.7562L94.4223 61.0555C93.1311 64.3741 92.1627 66.6715 87.7624 66.6715C85.6727 66.6715 83.8549 66.4843 83.8549 64.6634C83.8549 63.6082 84.6534 63.0807 85.7577 63.0807C85.9615 63.0807 86.3013 63.1828 86.5052 63.1828C86.828 63.1828 87.0489 63.2849 87.2527 63.2849C89.4614 63.2849 89.7672 61.0215 90.5487 59.4558L84.9422 45.552C84.6194 44.8032 84.3985 44.2926 84.3985 43.8502C84.3985 42.6249 85.3499 41.7399 86.6241 41.7399C88.0512 41.7399 88.6119 42.8631 88.9687 44.0884L92.6724 55.1162L96.3761 44.9223C96.9367 43.3396 96.9877 41.7399 98.8735 41.7399Z" fill="#E4E4E4"/>
</g>
<defs>
<clipPath id="clip0_2336_10792">
<rect width="100" height="100" fill="white" transform="translate(0.776367 0.878662)"/>
</clipPath>
</defs>
</svg>
