<svg width="101" height="101" viewBox="0 0 101 101" fill="none" xmlns="http://www.w3.org/2000/svg">
<path d="M41.5033 15.0351C41.4427 15.025 41.3842 15.046 41.3236 15.0436C41.1943 15.0386 41.0669 15.0351 40.9412 15.0636C40.8609 15.082 40.792 15.1204 40.7158 15.1521C40.6059 15.1971 40.502 15.2432 40.4048 15.3147C40.3782 15.3342 40.3445 15.339 40.3192 15.3604C40.2752 15.3975 40.2553 15.4529 40.2164 15.4945C40.166 15.5476 40.1025 15.5838 40.0595 15.6457C40.032 15.6856 40.0283 15.7326 40.0053 15.7741C39.9628 15.85 39.9337 15.9259 39.9054 16.0081C39.8671 16.1196 39.8388 16.227 39.8284 16.342C39.8239 16.3881 39.7998 16.4292 39.7998 16.4761V27.8698C29.1055 28.6248 20.6306 37.5441 20.6306 48.4258C20.6306 59.8008 29.8844 69.056 41.2608 69.056C45.1721 69.056 48.8212 67.9413 51.9411 66.0428L67.2954 84.5045C67.5847 84.8507 68.0003 85.0324 68.4196 85.0324C68.7498 85.0324 69.081 84.9178 69.3527 84.6928C69.9736 84.1785 70.0567 83.2592 69.541 82.6383L54.3466 64.3622C57.8738 61.461 60.4169 57.412 61.4173 52.7944L80.1643 44.9817C80.7078 44.7553 81.0631 44.2237 81.0631 43.6349V22.8649C81.0631 22.7601 81.0301 22.6643 81.0089 22.5653C80.9951 22.4993 80.9978 22.4324 80.9747 22.3684C80.9127 22.1967 80.8191 22.0417 80.7008 21.9061C80.6946 21.8991 80.6928 21.8902 80.6865 21.8833C80.6545 21.848 80.6097 21.8349 80.5752 21.8034C80.48 21.7161 80.3808 21.635 80.2642 21.5751C80.1986 21.5415 80.1308 21.5241 80.0616 21.5009C79.9877 21.4759 79.921 21.437 79.8419 21.4239L41.5033 15.0351ZM47.4898 18.9956L76.3807 23.8094L66.8988 32.3896L47.4898 18.9956ZM42.7217 19.2553L66.1911 35.4513C66.4424 35.6237 66.7322 35.711 67.0215 35.711C67.375 35.711 67.7255 35.5814 68.003 35.3286L78.1412 26.1549V42.6591L61.8397 49.453C61.8567 49.1104 61.891 48.7726 61.891 48.4258C61.891 37.5434 53.4168 28.6238 42.7217 27.8698V19.2553ZM39.7998 30.7917V59.6084C39.7998 60.0963 40.0443 60.5522 40.4504 60.8239C40.6944 60.9861 40.9759 61.0693 41.2608 61.0693C41.4507 61.0693 41.6431 61.0325 41.8258 60.958L57.9761 54.2268C55.567 61.1474 48.9923 66.1341 41.2608 66.1341C31.4958 66.1341 23.5525 58.1908 23.5525 48.4258C23.5525 39.1545 30.7181 31.5393 39.7998 30.7917ZM42.7217 30.7917C43.66 30.8688 44.5752 31.0243 45.4667 31.2425V35.2373L42.7217 35.2744V30.7917ZM48.3886 32.2269C49.4169 32.6811 50.3956 33.226 51.3105 33.8591V35.1546L48.3886 35.1945V32.2269ZM55.5593 38.0194C56.5337 39.3545 57.3227 40.8278 57.8962 42.408L54.2324 42.4479V38.0365L55.5593 38.0194ZM51.3105 38.0765V42.4821L48.3886 42.5164V38.1193L51.3105 38.0765ZM45.4667 38.1592V42.5478L42.7217 42.5792V38.1963L45.4667 38.1592ZM58.6781 45.3127C58.8587 46.3254 58.9691 47.362 58.9691 48.4258C58.9691 48.8609 58.9345 49.2882 58.9035 49.7156L54.2324 49.7641V45.3727L58.6324 45.3213C58.6486 45.3211 58.662 45.3134 58.6781 45.3127ZM51.3105 45.404V49.7955L48.3886 49.8268V45.4383L51.3105 45.404ZM45.4667 45.4697V49.8554L42.7217 49.8839V45.5011L45.4667 45.4697ZM51.3105 52.7174V53.8388L48.3886 55.0572V52.7488L51.3105 52.7174ZM45.4667 52.7773V55.7306C45.4667 55.9082 45.5087 56.0726 45.5666 56.2299L42.7217 57.4169V52.8058L45.4667 52.7773Z" fill="#191919"/>
</svg>
