<svg width="101" height="101" viewBox="0 0 101 101" fill="none" xmlns="http://www.w3.org/2000/svg">
<g clip-path="url(#clip0_2336_9460)">
<path d="M50.0694 15.0324C51.9855 14.9803 53.7815 14.9932 55.6486 15.4881C55.7878 15.5224 55.9271 15.5567 56.0663 15.591C58.7725 16.2922 61.6392 17.8199 63.5336 19.9069C64.1192 20.5481 64.4998 20.878 65.3968 21.001C66.2825 21.1342 67.0277 21.6005 67.7216 22.1418C67.7844 22.1894 67.8473 22.2369 67.912 22.286C69.0826 23.2316 69.8809 24.6697 70.0996 26.1522C70.2258 27.6408 69.9229 28.9946 69.0935 30.2538C69.0403 30.3121 68.9872 30.3705 68.9324 30.4306C68.4171 31.0083 68.3648 31.4548 68.379 32.2134C68.3794 32.8978 68.3559 33.5093 68.1789 34.173C67.6707 34.3376 67.1906 34.401 66.6588 34.4401C66.5729 34.4469 66.4871 34.4538 66.3986 34.4608C66.213 34.4755 66.0275 34.4899 65.8419 34.5041C65.5482 34.5265 65.2545 34.5497 64.9608 34.5732C64.2318 34.6312 63.5027 34.688 62.7736 34.7446C62.1565 34.7925 61.5396 34.8411 60.9226 34.8904C60.6334 34.9133 60.3442 34.9353 60.0549 34.9573C59.8776 34.9714 59.7003 34.9856 59.523 34.9998C59.4427 35.0056 59.3624 35.0115 59.2797 35.0176C58.8907 35.0496 58.5654 35.0924 58.2096 35.2668C58.2056 35.4186 58.2058 35.5706 58.2096 35.7225C58.3648 35.8772 58.5692 35.8493 58.7824 35.8694C58.8894 35.8795 58.9964 35.8896 59.1066 35.9C59.2284 35.911 59.3501 35.922 59.4718 35.9329C59.5347 35.9387 59.5976 35.9445 59.6624 35.9504C61.9865 36.1633 64.315 36.3296 66.6422 36.506C67.1633 36.5455 67.6844 36.5855 68.2054 36.6257C68.4013 36.6408 68.5971 36.6556 68.7929 36.6703C71.63 36.883 71.63 36.883 71.8374 37.0897C71.8545 37.403 71.8545 37.403 71.8374 37.7277C71.5722 37.992 71.2577 38.0111 70.9013 38.0823C70.8216 38.0988 70.7418 38.1153 70.6596 38.1323C70.3892 38.188 70.1187 38.2427 69.8481 38.2974C69.6553 38.3368 69.4626 38.3763 69.2699 38.4159C67.2314 38.8327 65.1904 39.2375 63.1495 39.6419C62.9532 39.6808 62.7569 39.7197 62.5606 39.7587C62.4322 39.7841 62.3038 39.8095 62.1754 39.8349C61.4842 39.9715 60.7938 40.1109 60.1047 40.2575C59.9827 40.2833 59.8608 40.3091 59.7388 40.3349C59.5122 40.383 59.2858 40.4318 59.0595 40.4813C58.3207 40.638 57.6849 40.7652 56.963 40.4724C56.8632 40.4329 56.7634 40.3933 56.6605 40.3526C56.5511 40.3079 56.4416 40.2632 56.3289 40.2171C56.1467 40.1445 55.9644 40.0724 55.782 40.0003C55.6445 39.9459 55.5071 39.8914 55.3697 39.8368C54.3584 39.4359 53.3402 39.053 52.3231 38.6672C51.8723 38.4963 51.4216 38.3251 50.971 38.1538C50.7668 38.0762 50.5627 37.9986 50.3585 37.9211C50.2668 37.8863 50.1752 37.8515 50.0808 37.8156C50.001 37.7853 49.9212 37.755 49.839 37.7238C49.682 37.6634 49.5261 37.6 49.3713 37.5342C49.1504 37.4384 49.1504 37.4384 48.8804 37.4543C48.7351 37.6528 48.6103 37.8468 48.486 38.0581C48.4059 38.1908 48.3256 38.3233 48.2452 38.4558C48.2013 38.5284 48.1574 38.6009 48.1122 38.6757C47.9517 38.9355 47.7854 39.191 47.6178 39.4463C47.559 39.5363 47.5002 39.6263 47.4397 39.719C47.3225 39.8979 47.2047 40.0765 47.0863 40.2546C47.0328 40.3368 46.9794 40.419 46.9244 40.5037C46.8519 40.6137 46.8519 40.6137 46.778 40.7259C46.6532 40.9274 46.6532 40.9274 46.7768 41.1913C46.9638 41.3217 47.1441 41.4343 47.3427 41.5444C47.3995 41.5764 47.4563 41.6083 47.5147 41.6411C48.5299 42.1941 49.7207 42.6489 50.8926 42.4673C51.1191 42.3375 51.2935 42.1875 51.4875 42.0134C51.7681 41.787 52.0615 41.6338 52.3846 41.4761C52.4917 41.4237 52.5989 41.3713 52.7093 41.3173C53.4321 40.9998 54.2861 40.9646 55.0423 41.1934C55.6736 41.4835 56.199 41.8686 56.5632 42.4673C56.6958 42.8578 56.7016 43.1562 56.5632 43.544C56.1517 43.9926 55.7034 44.1659 55.1066 44.2083C54.8257 44.1946 54.674 44.1027 54.4596 43.9256C54.4068 43.8617 54.354 43.7978 54.2996 43.7319C53.9878 43.4731 53.6681 43.4635 53.2706 43.4699C52.9999 43.515 52.9999 43.515 52.8133 43.6522C52.7207 43.8764 52.7082 43.9798 52.7929 44.2094C52.828 44.2755 52.863 44.3417 52.899 44.4098C53.0756 44.7844 53.1605 45.0559 53.0877 45.4751C52.8511 45.8109 52.7155 45.9142 52.3103 45.9935C51.969 45.9267 51.8395 45.8446 51.6355 45.5654C51.5149 45.3522 51.4257 45.1357 51.3367 44.9076C51.3046 44.826 51.2726 44.7444 51.2396 44.6603C51.2156 44.5983 51.1917 44.5363 51.167 44.4725C51.1119 44.4739 51.0568 44.4754 51 44.4768C48.4339 44.5344 45.6335 44.1949 43.6857 42.3481C42.8702 41.5417 42.8702 41.5417 42.8125 40.9723C42.9523 39.5144 44.128 38.0586 44.9351 36.8776C45.0817 36.6625 45.2262 36.4461 45.3706 36.2295C45.443 36.1213 45.5154 36.013 45.5878 35.9048C45.1908 35.8318 44.865 35.7843 44.4731 35.8991C43.1739 36.8486 42.3542 39.0779 41.8379 40.5532C41.7672 41.2102 41.9494 41.745 42.3523 42.2622C43.0679 43.0282 44.0321 43.6188 44.9647 44.0851C45.4772 44.3497 45.7699 44.606 46.0451 45.1105C46.1033 45.2136 46.1033 45.2136 46.1627 45.3188C46.9636 46.898 47.1619 48.7424 47.1427 50.4881C47.358 50.4063 47.358 50.4063 47.4342 50.1179C47.6523 49.5881 48.0341 49.0979 48.5603 48.8475C48.9838 48.7269 49.3271 48.6701 49.7379 48.8532C49.9648 49.1228 49.984 49.3197 49.978 49.6678C49.7004 50.0367 49.3852 50.2048 48.9719 50.397C48.7579 50.5724 48.7579 50.5724 48.7547 50.8812C48.794 51.267 48.8835 51.4027 49.1548 51.673C49.4557 51.8229 49.7456 51.8234 50.0694 51.7642C50.4282 51.5819 50.7574 51.3601 51.0344 51.0674C51.2648 50.8527 51.5024 50.8632 51.8072 50.8527C52.331 51.0469 52.4845 51.4734 52.7218 51.9465C52.7883 52.5613 52.7962 53.099 52.4182 53.6099C51.7785 54.2741 51.083 54.4979 50.1838 54.527C49.0071 54.502 47.9589 54.1111 47.0798 53.325C46.6062 52.823 46.3403 52.2236 46.0519 51.6067C45.5367 50.5206 44.9864 49.5024 44.2159 48.5741C44.1637 48.5062 44.1114 48.4383 44.0576 48.3683C43.4657 47.6314 42.7267 47.1812 41.7929 47.0242C41.5138 47.0247 41.3526 47.0762 41.1062 47.2069C40.7859 47.8267 40.7892 48.5758 40.7975 49.2577C40.7964 49.3447 40.7954 49.4318 40.7943 49.5215C40.798 50.4267 41.0249 51.2347 41.4377 52.0376C41.4851 52.1305 41.4851 52.1305 41.5335 52.2252C42.864 54.7398 45.8602 56.0977 48.4615 56.94C49.5573 57.272 50.6723 57.4579 51.8072 57.5975C51.9041 57.6096 52.001 57.6217 52.1009 57.6342C52.3386 57.6595 52.5746 57.6767 52.8133 57.6887C52.8995 57.6935 52.9857 57.6983 53.0745 57.7033C57.3869 57.8236 62.0341 56.1495 65.2203 53.2496C65.6914 52.8008 66.0751 52.2997 66.4411 51.7642C66.5211 51.6477 66.5211 51.6477 66.6026 51.5288C67.548 50.0561 67.8381 48.36 67.5876 46.6419C67.3847 45.8798 66.9192 45.181 66.2582 44.7459C65.3829 44.3018 64.4349 44.2386 63.4858 44.4839C62.6965 44.7586 62.0999 45.2123 61.7137 45.9536C61.4735 46.6374 61.4458 47.2467 61.6851 47.9361C61.9752 48.5141 62.4522 48.8289 63.057 49.0298C63.649 49.0741 64.2022 49.1149 64.7033 48.7564C65.0351 48.3916 65.1025 48.0392 65.0946 47.5604C65.0813 47.3724 65.0813 47.3724 64.9206 47.2012C64.6232 47.0842 64.4612 47.1213 64.1546 47.2069C64.0188 47.2802 64.0188 47.2802 63.8802 47.355C63.551 47.5054 63.3995 47.4953 63.057 47.3892C62.8855 47.2866 62.8855 47.2866 62.7826 47.1157C62.7333 46.7431 62.7588 46.5282 62.9198 46.1872C63.2796 45.7839 63.7882 45.5274 64.3293 45.4502C65.0217 45.4176 65.5594 45.6445 66.0828 46.0946C66.5578 46.5929 66.756 47.1027 66.847 47.7765C66.7241 48.8263 66.3684 49.669 65.5379 50.3343C64.9632 50.767 64.3418 50.9023 63.6344 50.8926C63.527 50.8916 63.527 50.8916 63.4175 50.8905C62.17 50.8557 61.1337 50.3815 60.2735 49.4845C59.4801 48.4808 59.3876 47.3387 59.49 46.1131C59.6298 45.3399 59.9274 44.7273 60.4046 44.1079C60.4839 43.9895 60.4839 43.9895 60.5647 43.8687C61.476 42.91 62.8516 42.3879 64.1546 42.285C64.2133 42.2801 64.272 42.2751 64.3325 42.2701C65.7609 42.2105 67.1486 42.6687 68.2246 43.6066C68.3637 43.7414 68.5012 43.878 68.6362 44.0168C68.6886 44.0681 68.7409 44.1195 68.7948 44.1724C69.9026 45.3418 70.1507 47.0246 70.1246 48.5666C70.0227 51.1571 68.8548 53.6701 67.2643 55.6834C67.2083 55.7548 67.2083 55.7548 67.1513 55.8276C65.6752 57.6892 63.8981 59.1956 61.868 60.423C61.7702 60.4835 61.6723 60.544 61.5715 60.6064C57.2478 63.1866 51.8809 63.8672 46.9597 63.0663C46.8809 63.0541 46.8021 63.0419 46.7209 63.0293C42.9494 62.4299 39.405 60.5432 36.6245 57.9621C36.4973 57.8515 36.3696 57.7413 36.2415 57.6317C35.6473 57.1129 35.1353 56.5588 34.6406 55.9444C34.5068 55.7791 34.371 55.6153 34.2326 55.4538C33.5871 54.6965 33.0438 53.8773 32.5088 53.0402C32.474 52.9863 32.4392 52.9324 32.4033 52.8769C30.5551 49.9787 29.8362 46.4504 29.8335 43.0597C29.8334 42.99 29.8334 42.9202 29.8333 42.8484C29.84 38.0595 31.2537 33.521 34.338 29.798C34.3809 29.746 34.4238 29.694 34.468 29.6404C37.5534 25.923 41.9912 23.3363 46.7768 22.5064C46.8934 22.4975 46.8934 22.4975 47.0123 22.4886C47.5646 22.4336 47.9409 22.1932 48.3717 21.8626C48.4269 21.8242 48.4822 21.7858 48.5391 21.7462C49.1018 21.2773 49.1258 20.595 49.215 19.9141C49.2597 19.5812 49.3126 19.2497 49.3649 18.918C49.407 18.6499 49.4482 18.3817 49.4891 18.1134C49.5096 17.9789 49.5096 17.9789 49.5305 17.8416C49.5585 17.657 49.5864 17.4724 49.6143 17.2878C49.6552 17.0169 49.6967 16.7462 49.7383 16.4754C49.7505 16.3934 49.7626 16.3114 49.7752 16.2268C49.8394 15.8117 49.92 15.4276 50.0694 15.0324ZM49.2463 24.147C48.0872 25.5322 47.7509 27.1263 47.8744 28.8866C48.026 30.2453 48.7328 31.4101 49.7036 32.3501C49.7596 32.4078 49.8156 32.4655 49.8733 32.5249C50.9645 33.5752 52.5212 33.9907 54.0023 33.9907C55.4132 33.8936 56.644 33.4019 57.7522 32.5324C57.7522 32.4722 57.7522 32.4121 57.7522 32.3501C57.8042 32.3304 57.8562 32.3106 57.9098 32.2903C58.7074 31.8213 59.2773 30.6345 59.5072 29.7731C59.9056 28.1659 59.829 26.648 59.0327 25.1496C58.0654 23.5992 56.7573 22.6373 54.9859 22.1799C52.7935 21.8483 50.7416 22.5201 49.2463 24.147ZM66.4411 23.7824C66.5037 24.2432 66.696 24.6421 66.8813 25.0641C67.1655 25.7224 67.4212 26.3774 67.6301 27.0637C68.1005 26.7866 68.444 26.5165 68.5969 25.9635C68.6829 25.4399 68.627 24.976 68.3618 24.5116C68.066 24.1843 67.7779 23.9226 67.3557 23.7824C67.1977 23.7762 67.0394 23.7747 66.8813 23.7767C66.7989 23.7775 66.7165 23.7784 66.6315 23.7792C66.5373 23.7808 66.5373 23.7808 66.4411 23.7824Z" fill="#191919"/>
<path d="M40.4007 70.4083C40.5844 70.4091 40.768 70.4064 40.9517 70.4036C41.1267 70.4037 41.1267 70.4037 41.3052 70.4038C41.4117 70.4036 41.5182 70.4034 41.6279 70.4033C42.1629 70.4844 42.4971 70.7946 42.8154 71.2123C42.908 71.332 42.908 71.332 43.0026 71.4541C43.1052 71.5882 43.1052 71.5882 43.2098 71.725C43.3749 71.9363 43.541 72.1468 43.7071 72.3573C43.7499 72.4118 43.7927 72.4662 43.8368 72.5222C44.1681 72.9429 44.5062 73.3576 44.8472 73.7705C45.0272 73.9893 45.205 74.2096 45.382 74.4309C45.7089 74.8396 46.0397 75.2449 46.371 75.65C46.7361 76.0969 47.0987 76.5452 47.4506 77.0026C47.6924 77.3122 47.9436 77.6142 48.1941 77.9169C48.3317 78.1052 48.3317 78.1052 48.3317 78.2875C48.4222 78.2875 48.5128 78.2875 48.6061 78.2875C48.6051 78.1463 48.6051 78.1463 48.6042 78.0022C48.5986 77.1156 48.5945 76.2291 48.5918 75.3426C48.5904 74.8868 48.5885 74.431 48.5854 73.9752C48.5824 73.5355 48.5807 73.0958 48.58 72.6561C48.5795 72.4882 48.5785 72.3203 48.577 72.1524C48.5751 71.9175 48.5748 71.6827 48.5749 71.4479C48.5739 71.3782 48.5729 71.3084 48.5719 71.2365C48.5747 70.7696 48.5747 70.7696 48.7257 70.5426C48.9892 70.3832 49.2787 70.4101 49.5778 70.4127C49.6458 70.4124 49.7138 70.4121 49.7838 70.4119C49.9275 70.4117 50.0711 70.4122 50.2147 70.4133C50.4345 70.4148 50.6542 70.4133 50.874 70.4116C51.0136 70.4118 51.1532 70.4121 51.2927 70.4127C51.3585 70.4121 51.4242 70.4116 51.492 70.411C51.943 70.4173 51.943 70.4173 52.1447 70.5528C52.3182 70.7984 52.2988 70.9848 52.2988 71.2835C52.2994 71.4009 52.3 71.5184 52.3007 71.6394C52.3 71.7698 52.2993 71.9003 52.2986 72.0307C52.2988 72.1678 52.2991 72.305 52.2996 72.4421C52.3005 72.8148 52.2996 73.1874 52.2984 73.5601C52.2973 73.9496 52.2977 74.3392 52.2979 74.7287C52.298 75.3829 52.297 76.037 52.2953 76.6911C52.2933 77.4481 52.293 78.2051 52.2936 78.9621C52.2941 79.6895 52.2936 80.4169 52.2926 81.1443C52.2921 81.4543 52.2921 81.7642 52.2923 82.0742C52.2924 82.4389 52.2917 82.8036 52.2902 83.1683C52.2898 83.3024 52.2898 83.4365 52.29 83.5707C52.2903 83.7532 52.2894 83.9357 52.2884 84.1182C52.2881 84.2717 52.2881 84.2717 52.2878 84.4283C52.2645 84.6677 52.2645 84.6677 52.0816 84.85C51.6843 84.8908 51.2857 84.8878 50.8866 84.8888C50.6888 84.8899 50.4912 84.8944 50.2935 84.899C50.1669 84.8998 50.0403 84.9005 49.9137 84.9009C49.7416 84.9028 49.7416 84.9028 49.566 84.9047C49.0083 84.8093 48.698 84.4262 48.3602 83.9898C48.298 83.9103 48.2357 83.8307 48.1716 83.7488C48.0697 83.6171 48.0697 83.6171 47.9658 83.4828C47.8081 83.2812 47.6497 83.0801 47.4914 82.879C47.4495 82.8257 47.4077 82.7725 47.3645 82.7176C46.931 82.1674 46.4876 81.6253 46.044 81.0831C45.7723 80.7508 45.5036 80.4162 45.2355 80.0809C45.0787 79.8862 44.921 79.6925 44.7625 79.4991C44.6876 79.4077 44.6876 79.4077 44.6112 79.3144C44.5081 79.1886 44.405 79.0628 44.3019 78.9371C44.0563 78.6365 43.8141 78.3343 43.5799 78.0248C43.5385 77.97 43.497 77.9152 43.4543 77.8588C43.3424 77.7099 43.2314 77.5603 43.1205 77.4106C42.9493 77.1722 42.9493 77.1722 42.661 77.1026C42.6614 77.197 42.6618 77.2914 42.6623 77.3886C42.666 78.2765 42.6687 79.1644 42.6705 80.0523C42.6715 80.5088 42.6728 80.9653 42.6748 81.4218C42.6768 81.8621 42.6779 82.3024 42.6784 82.7427C42.6787 82.9109 42.6794 83.0792 42.6804 83.2474C42.6817 83.4825 42.6819 83.7175 42.6818 83.9526C42.6825 84.0227 42.6831 84.0928 42.6838 84.165C42.6819 84.6469 42.6819 84.6469 42.4781 84.85C42.231 84.8682 41.9935 84.8755 41.7464 84.8742C41.674 84.8744 41.6016 84.8746 41.527 84.8748C41.3739 84.8749 41.2207 84.8745 41.0676 84.8738C40.8327 84.8728 40.5979 84.8738 40.3631 84.8749C40.2144 84.8748 40.0658 84.8746 39.9172 84.8742C39.8114 84.8748 39.8114 84.8748 39.7035 84.8754C39.2065 84.871 39.2065 84.871 39.0026 84.6677C38.9793 84.4283 38.9793 84.4283 38.9787 84.1182C38.9781 84.001 38.9774 83.8838 38.9767 83.7631C38.977 83.6325 38.9772 83.5019 38.9774 83.3712C38.977 83.2343 38.9766 83.0973 38.976 82.9603C38.9748 82.5876 38.9747 82.215 38.975 81.8423C38.9751 81.5315 38.9746 81.2207 38.9742 80.91C38.9732 80.1769 38.9731 79.4439 38.9737 78.7109C38.9742 77.954 38.9731 77.197 38.9712 76.4401C38.9696 75.7909 38.969 75.1417 38.9693 74.4925C38.9695 74.1044 38.9692 73.7164 38.968 73.3284C38.9668 72.9635 38.967 72.5987 38.9682 72.2338C38.9684 72.0997 38.9681 71.9657 38.9674 71.8316C38.9664 71.6489 38.9673 71.4662 38.9683 71.2835C38.9683 71.1811 38.9683 71.0788 38.9683 70.9733C39.0026 70.7224 39.0026 70.7224 39.1253 70.5529C39.4748 70.3134 39.9919 70.4057 40.4007 70.4083Z" fill="#191919"/>
<path d="M35.7464 71.8859C36.7374 72.7341 36.7374 72.7341 36.8075 73.2745C36.1102 73.8432 35.3649 74.3322 34.6124 74.824C34.5219 74.8841 34.4313 74.9443 34.338 75.0063C34.0465 75.0575 34.0465 75.0575 33.6978 75.0063C33.5028 74.8618 33.3339 74.701 33.1583 74.5338C32.8536 74.2713 32.5197 74.1359 32.1429 74.0037C32.0848 73.9831 32.0267 73.9625 31.9668 73.9413C30.8959 73.621 29.8381 73.8435 28.8517 74.317C27.9504 74.8331 27.367 75.62 27.0786 76.6138C26.8575 77.7921 26.9809 78.8569 27.6256 79.8908C28.2052 80.6869 29.055 81.2962 30.0393 81.4776C31.3212 81.5594 32.3316 81.4387 33.3319 80.5662C33.4649 80.4505 33.4649 80.4505 33.6006 80.3326C33.8011 80.0965 33.8636 79.9612 33.8807 79.6547C33.6985 79.4732 33.3364 79.5467 33.0865 79.5443C32.9417 79.5418 32.797 79.5392 32.6522 79.5365C32.423 79.5327 32.1938 79.5294 31.9645 79.527C31.744 79.5245 31.5235 79.5203 31.303 79.5158C31.1998 79.5154 31.1998 79.5154 31.0945 79.5149C30.9013 79.5104 30.9013 79.5104 30.5881 79.4724C30.2917 79.0294 30.3714 78.5405 30.3709 78.0198C30.3686 77.911 30.3664 77.8023 30.3641 77.6903C30.3637 77.5857 30.3634 77.4812 30.363 77.3736C30.3623 77.2779 30.3615 77.1823 30.3607 77.0838C30.4179 76.7561 30.5091 76.6675 30.771 76.4646C31.0521 76.4183 31.0521 76.4183 31.3861 76.4174C31.4471 76.4168 31.5081 76.4161 31.571 76.4155C31.7721 76.4139 31.9732 76.4149 32.1744 76.4162C32.3145 76.4159 32.4546 76.4156 32.5947 76.4151C32.8881 76.4146 33.1814 76.4154 33.4748 76.4171C33.8507 76.4191 34.2264 76.4179 34.6023 76.4158C34.8915 76.4144 35.1807 76.4149 35.4699 76.4158C35.6085 76.416 35.7471 76.4158 35.8856 76.4149C36.0794 76.414 36.2731 76.4154 36.4668 76.4174C36.6321 76.4179 36.6321 76.4179 36.8008 76.4183C37.138 76.4738 37.2473 76.5572 37.4477 76.8292C37.478 77.0772 37.4867 77.2847 37.4763 77.5313C37.4746 77.6001 37.473 77.669 37.4712 77.7399C37.4672 77.8861 37.4622 78.0323 37.4563 78.1785C37.4479 78.3969 37.4431 78.6151 37.4388 78.8337C37.3914 80.5524 37.0166 81.9496 35.8243 83.2436C35.0703 83.9398 34.1168 84.43 33.149 84.7589C33.0803 84.7825 33.0116 84.8062 32.9408 84.8306C32.2683 85.0399 31.6282 85.0775 30.926 85.073C30.7436 85.0722 30.5613 85.0749 30.3789 85.0777C28.4002 85.0767 26.6969 84.2139 25.2719 82.879C23.8754 81.4387 23.2125 79.6604 23.2254 77.678C23.2255 77.6134 23.2257 77.5489 23.2258 77.4824C23.2307 76.499 23.3012 75.6341 23.7284 74.7328C23.7682 74.6447 23.8079 74.5566 23.8488 74.4658C24.7705 72.6184 26.3679 71.2656 28.3055 70.5633C30.8587 69.713 33.651 70.2177 35.7464 71.8859Z" fill="#191919"/>
<path d="M63.9717 71.5428C64.7757 72.2841 65.3593 73.1883 65.4519 74.2957C65.4579 74.4936 65.4579 74.4936 65.4351 74.824C65.2057 75.0526 65.0636 75.0297 64.7504 75.034C64.6822 75.0339 64.6139 75.0338 64.5437 75.0337C64.4735 75.0341 64.4034 75.0345 64.3311 75.0349C64.1826 75.0354 64.0342 75.0355 63.8857 75.0351C63.6585 75.0348 63.4313 75.0369 63.2041 75.0392C63.0599 75.0394 62.9158 75.0395 62.7716 75.0394C62.7036 75.0403 62.6355 75.0411 62.5654 75.042C62.0959 75.0378 62.0959 75.0378 61.8762 74.8839C61.7766 74.7329 61.7766 74.7329 61.6565 74.4708C61.3997 73.9968 61.0646 73.7536 60.5704 73.5651C59.8039 73.3408 58.9321 73.3702 58.2096 73.7303C58.0085 73.9513 57.9406 74.0664 57.8837 74.3626C57.954 74.7437 58.1783 74.8872 58.484 75.0974C58.7553 75.2355 58.7553 75.2355 59.0556 75.3424C59.1123 75.3641 59.169 75.3859 59.2274 75.4083C59.4364 75.4882 59.6461 75.5663 59.8559 75.6443C63.1434 76.8685 63.1434 76.8685 64.2461 77.8318C64.311 77.888 64.376 77.9441 64.4429 78.002C65.1445 78.6504 65.6005 79.5137 65.6455 80.4797C65.6473 80.6091 65.6476 80.7386 65.6466 80.8681C65.6461 80.9363 65.6455 81.0044 65.645 81.0746C65.62 82.2147 65.1955 83.0276 64.3775 83.819C63.8696 84.2545 63.3192 84.5327 62.6912 84.7589C62.6253 84.7834 62.5594 84.8079 62.4915 84.8331C61.7237 85.0826 60.9597 85.077 60.1606 85.073C59.9262 85.0722 59.6919 85.0748 59.4575 85.0777C57.7008 85.0853 56.1457 84.6674 54.8398 83.4209C54.1591 82.691 53.7936 81.9168 53.783 80.9169C53.8194 80.7485 53.8194 80.7485 54.0938 80.5662C54.3209 80.5451 54.5375 80.5341 54.7647 80.5324C54.8303 80.5316 54.8958 80.5307 54.9633 80.5299C55.1018 80.5286 55.2404 80.5277 55.3789 80.5274C55.5901 80.5263 55.8011 80.5218 56.0123 80.5172C56.1472 80.5164 56.282 80.5157 56.4168 80.5153C56.4796 80.5135 56.5424 80.5117 56.6071 80.5099C56.9588 80.5132 57.1002 80.5564 57.3748 80.7826C57.5693 81.0219 57.5693 81.0219 57.718 81.2555C58.2288 81.778 58.8972 81.8621 59.6015 81.8802C59.7161 81.8812 59.7161 81.8812 59.833 81.8821C59.9065 81.883 59.9801 81.884 60.0558 81.8849C60.6175 81.8767 61.0217 81.7541 61.5022 81.4549C61.6197 81.2806 61.6197 81.2806 61.5937 80.9821C61.4803 80.5795 61.4027 80.5067 61.0449 80.2928C60.3578 79.9556 59.653 79.6925 58.9298 79.444C57.5852 78.9697 56.2972 78.4802 55.1913 77.5584C55.1306 77.5092 55.0699 77.4599 55.0073 77.4092C54.3295 76.8041 53.9497 75.9442 53.8891 75.049C53.8649 73.7595 54.0982 72.7006 55.0084 71.7251C57.377 69.6329 61.4899 69.6108 63.9717 71.5428Z" fill="#191919"/>
<path d="M77.1761 71.6239C77.9318 72.3096 78.3997 73.08 78.4813 74.0984C78.5253 75.1361 78.5286 76.0672 77.8739 76.9203C77.8237 76.9883 77.7734 77.0562 77.7217 77.1261C77.5766 77.3077 77.5766 77.3077 77.3251 77.5584C77.2648 77.5584 77.2044 77.5584 77.1422 77.5584C77.1831 77.6025 77.224 77.6467 77.2662 77.6922C78.1013 78.615 78.4561 79.3289 78.4627 80.5776C78.4672 80.7249 78.4672 80.7249 78.4718 80.8752C78.478 81.8165 78.1566 82.6934 77.508 83.3917C76.1032 84.709 74.4079 85.1056 72.5405 85.0836C72.4704 85.0832 72.4004 85.0829 72.3282 85.0825C71.253 85.0748 70.2783 84.9949 69.2765 84.5766C69.1724 84.5338 69.0683 84.4911 68.961 84.447C67.8315 83.932 67.0351 83.1169 66.5841 81.9562C66.3691 81.2987 66.3691 81.2987 66.4412 80.9308C66.5819 80.7371 66.5819 80.7371 66.807 80.5662C67.0594 80.5288 67.2747 80.5128 67.5269 80.5146C67.5964 80.514 67.6658 80.5134 67.7374 80.5128C67.884 80.5122 68.0306 80.5125 68.1772 80.5136C68.4009 80.5149 68.6242 80.5118 68.8479 80.5083C68.9907 80.5082 69.1334 80.5084 69.2761 80.5089C69.3426 80.5077 69.4091 80.5064 69.4777 80.5052C69.8369 80.5117 69.9915 80.5525 70.2722 80.783C70.3966 80.9368 70.5168 81.0942 70.6313 81.2555C71.0096 81.6756 71.552 81.8954 72.1125 81.9519C72.802 81.9671 73.577 81.8325 74.124 81.3865C74.4021 80.9755 74.4836 80.5942 74.3983 80.1105C74.2243 79.7429 74.0919 79.5966 73.7352 79.3984C72.9278 79.1436 72.0737 79.1738 71.2341 79.1598C71.1393 79.157 71.0444 79.1542 70.9467 79.1513C70.8609 79.1495 70.775 79.1477 70.6865 79.1458C70.4655 79.1078 70.4655 79.1078 70.3005 79.0019C70.1448 78.7636 70.1556 78.5819 70.1546 78.2989C70.1543 78.1941 70.1539 78.0893 70.1536 77.9813C70.1546 77.8718 70.1557 77.7623 70.1568 77.6495C70.1557 77.54 70.1547 77.4305 70.1536 77.3177C70.1539 77.2129 70.1543 77.1081 70.1546 77.0001C70.155 76.904 70.1553 76.8079 70.1556 76.7089C70.1911 76.4646 70.1911 76.4646 70.2955 76.2969C70.5414 76.1439 70.7382 76.1544 71.0268 76.1509C71.1938 76.1473 71.1938 76.1473 71.3642 76.1437C71.4807 76.1424 71.5973 76.1412 71.7174 76.1399C73.1369 76.1564 73.1369 76.1564 74.3069 75.462C74.476 75.125 74.4287 74.7369 74.3983 74.3683C74.2712 74.0039 74.0949 73.8807 73.7638 73.7075C73.0985 73.3958 72.3217 73.335 71.6066 73.5148C71.4367 73.5794 71.2707 73.6541 71.1057 73.7302C71.0152 73.7603 70.9246 73.7904 70.8313 73.8214C70.732 73.9884 70.732 73.9884 70.6484 74.186C70.5718 74.3141 70.4937 74.4414 70.414 74.5676C70.3743 74.631 70.3346 74.6943 70.2936 74.7596C70.1911 74.9151 70.1911 74.9151 70.0996 75.0063C69.8523 75.0189 69.6075 75.0257 69.3601 75.028C69.2857 75.0287 69.2114 75.0295 69.1348 75.0302C68.9772 75.0315 68.8196 75.0325 68.662 75.0332C68.4206 75.0348 68.1794 75.0388 67.9381 75.0428C67.7852 75.0437 67.6323 75.0445 67.4794 75.0451C67.4071 75.0467 67.3347 75.0483 67.2602 75.0499C66.7612 75.048 66.7612 75.048 66.5327 74.8394C66.3025 74.3424 66.459 73.8207 66.6205 73.3244C66.7809 72.9325 67.007 72.6066 67.2643 72.2719C67.3349 72.1774 67.3349 72.1774 67.4069 72.0811C69.5507 69.4169 74.6944 69.6519 77.1761 71.6239Z" fill="#191919"/>
<path d="M53.74 25.3689C54.3051 25.8094 54.5712 26.3145 54.6768 27.0192C54.71 27.6778 54.5505 28.2982 54.112 28.8025C53.5014 29.365 52.9191 29.5865 52.0873 29.5616C51.355 29.4648 50.8256 29.0877 50.3749 28.5181C49.996 27.9665 50.0041 27.3468 50.0694 26.6991C50.2305 26.0409 50.6111 25.6151 51.167 25.2407C51.9959 24.7746 52.9587 24.8555 53.74 25.3689Z" fill="#191919"/>
</g>
<defs>
<clipPath id="clip0_2336_9460">
<rect width="55.1515" height="70" fill="white" transform="translate(23.2711 15.0323)"/>
</clipPath>
</defs>
</svg>
