<svg width="101" height="101" viewBox="0 0 101 101" fill="none" xmlns="http://www.w3.org/2000/svg">
<g clip-path="url(#clip0_2336_9380)">
<g clip-path="url(#clip1_2336_9380)">
<path fill-rule="evenodd" clip-rule="evenodd" d="M49.912 59.147H50.5243L53.6777 63.517V59.147H54.2241V64.4492H53.7106L50.4519 59.9403V64.4492H49.912V59.147ZM55.5737 59.147H59.0628V59.6825H56.1267V61.4411H58.9904V61.97H56.1267V63.9402H59.0891V64.4558H55.5737V59.147ZM59.9121 59.6891V59.1602H64.4479V59.6891H62.4598V64.4625H61.887V59.6891H59.9121ZM65.126 59.147H65.7119L67.101 63.5303L68.523 59.147H69.0101L70.4255 63.5303L71.8278 59.147H72.3742L70.6757 64.4955H70.1754L68.7402 60.066L67.3248 64.4955H66.8377L65.126 59.147ZM72.8745 61.7981C72.8745 59.9139 73.8357 59.061 75.5276 59.061C77.2261 59.061 78.2004 59.9139 78.2004 61.7981C78.2004 63.6955 77.2261 64.5352 75.5276 64.5352C73.8357 64.5484 72.8745 63.6955 72.8745 61.7981ZM77.6277 61.8113C77.6277 60.3701 76.9627 59.6032 75.5276 59.6032C74.099 59.6032 73.4407 60.3701 73.4407 61.8113C73.4407 63.246 74.099 64.0327 75.5276 64.0327C76.9627 64.0195 77.6277 63.246 77.6277 61.8113ZM81.4657 62.2873H79.8857V64.4492H79.3261V59.147H81.6039C82.8284 59.147 83.388 59.6362 83.388 60.694C83.388 61.613 82.9535 62.1485 82.0385 62.2741L83.3156 64.4492H82.7165L81.4657 62.2873ZM81.6369 61.7717C82.3874 61.7717 82.8482 61.5469 82.8482 60.7072C82.8482 59.8874 82.4005 59.6759 81.6105 59.6759H79.8857V61.7849H81.6369V61.7717ZM86.2122 61.646L85.1523 62.803V64.4691H84.6125V59.1602H85.1523V62.0956L87.8251 59.1602H88.4769L86.5875 61.2295L88.7402 64.4558H88.1017L86.2122 61.646ZM89.2011 63.9203L89.4973 63.484C90.1359 63.8873 90.7481 64.0129 91.3867 64.0129C92.4861 64.0129 92.9601 63.7088 92.9601 62.9815C92.9601 62.2278 92.3347 62.1154 91.3867 61.9502C90.2478 61.7518 89.4841 61.5601 89.4841 60.4825C89.4841 59.4643 90.1359 59.061 91.3867 59.061C92.2228 59.061 92.8087 59.2395 93.2234 59.537L92.9206 59.9932C92.5388 59.742 91.9726 59.5767 91.3735 59.5767C90.4255 59.5767 90.024 59.8412 90.024 60.4692C90.024 61.137 90.5835 61.2626 91.5118 61.4477C92.6704 61.6593 93.4999 61.8246 93.4999 62.9683C93.4999 64.0129 92.835 64.5352 91.3867 64.5352C90.5967 64.522 89.8857 64.3633 89.2011 63.9203Z" fill="#191919"/>
<path fill-rule="evenodd" clip-rule="evenodd" d="M100.801 37.2835V38.9628C100.274 38.89 99.6882 38.8636 99.0365 38.8636C92.9008 38.8636 93.0391 41.713 93.0391 45.2699V56.8463H91.2879V45.2699C91.2879 40.5495 91.6105 37.2174 99.0365 37.2174C99.675 37.2174 100.261 37.2438 100.801 37.2835ZM46.6599 45.1311V56.8463H44.8627V45.1046C44.8627 41.7263 44.9022 38.8768 38.727 38.8768C32.598 38.8768 32.7363 41.7263 32.7363 45.2831V56.8595H30.9851V45.2699C30.9851 40.5495 31.3011 37.2174 38.727 37.2174C46.1991 37.2174 46.6599 40.5627 46.6599 45.1311ZM49.912 37.6339H51.6237V56.8463H49.912V37.6339ZM54.8363 37.6339H63.7896C68.2399 37.6339 70.2478 39.8487 70.2478 43.789C70.2478 47.7558 68.253 50.1689 63.7633 50.1689H56.548V56.8397H54.8363V37.6339ZM63.8225 48.4566C66.9232 48.4566 68.4506 46.9492 68.4506 43.8749C68.4506 40.8205 66.7981 39.366 63.7369 39.366H56.548V48.4566H63.8225ZM72.2491 47.174C72.2491 41.5015 73.862 37.1447 81.0773 37.1447C88.5493 37.1447 88.7995 42.1758 88.76 47.4913H73.9739C74.0134 52.1655 75.1721 55.6562 81.2353 55.6562C84.4611 55.6562 85.9357 54.7769 87.5026 53.62L88.4901 54.9158C86.7389 56.2182 84.6652 57.2363 81.2353 57.2363C73.6513 57.2363 72.2491 52.8398 72.2491 47.174ZM74.0134 45.8715H87.0615C86.8771 42.0304 86.6401 38.7644 81.0641 38.7644C75.6987 38.7644 74.2241 41.6866 74.0134 45.8715Z" fill="#191919"/>
<path d="M12.3479 49.316V37.6074H14.1385V49.3623C14.1385 52.7406 14.1122 55.5901 20.2741 55.5901C26.4032 55.5901 26.2649 52.7406 26.2649 49.1772V37.6074H28.0227V49.1772C28.0227 53.8976 27.7001 57.2363 20.2741 57.2363C12.8021 57.2363 12.3479 53.8976 12.3479 49.316ZM0.91272 61.018V59.3585C1.12338 59.3718 1.34063 59.3718 1.57763 59.3718C7.71325 59.3718 7.575 56.5223 7.575 52.9654V37.6074H9.32615V52.9654C9.32615 57.6793 9.01015 61.018 1.57763 61.018C1.34063 61.018 1.13655 61.018 0.91272 61.018Z" fill="#191919"/>
<path fill-rule="evenodd" clip-rule="evenodd" d="M96.8772 56.9388C96.2122 56.9388 95.6724 56.3967 95.6724 55.7289C95.6724 55.0546 96.2122 54.5125 96.8772 54.5125C97.5487 54.5125 98.0885 55.0546 98.0885 55.7289C98.0885 56.3967 97.5487 56.9388 96.8772 56.9388ZM97.9371 55.7289C97.9371 55.1405 97.4631 54.6645 96.8772 54.6645C96.2978 54.6645 95.8238 55.1405 95.8238 55.7289C95.8238 56.3107 96.2978 56.7867 96.8772 56.7867C97.4631 56.7867 97.9371 56.3107 97.9371 55.7289ZM96.9627 55.881H96.5743V56.4099H96.39V55.0149H97.0022C97.3512 55.0149 97.4894 55.1537 97.4894 55.4314C97.4894 55.6562 97.3907 55.8083 97.1602 55.8545L97.4762 56.3967H97.2853L96.9627 55.881ZM97.0022 55.7157C97.1997 55.7157 97.2919 55.6562 97.2919 55.4513C97.2919 55.2529 97.18 55.2 96.9891 55.2H96.5546V55.7025H97.0022V55.7157Z" fill="#191919"/>
</g>
</g>
<defs>
<clipPath id="clip0_2336_9380">
<rect width="100" height="100" fill="white" transform="translate(0.846863 0.863098)"/>
</clipPath>
<clipPath id="clip1_2336_9380">
<rect width="100" height="27.4368" fill="white" transform="translate(0.846863 37.1447)"/>
</clipPath>
</defs>
</svg>
