<svg width="101" height="101" viewBox="0 0 101 101" fill="none" xmlns="http://www.w3.org/2000/svg">
<g clip-path="url(#clip0_2336_9405)">
<g clip-path="url(#clip1_2336_9405)">
<path d="M0.846863 56.372V41.5768H4.50303V53.2634H10.2206V56.372H0.846863Z" fill="#191919"/>
<path d="M28.8127 44.3115V48.3055H32.1577C33.4607 48.3055 34.1219 47.6365 34.1219 46.3183C34.1219 44.9805 33.4801 44.3312 32.1577 44.3312H28.8127V44.3115ZM25.1565 56.372V41.5768H32.4688C36.0083 41.5768 37.778 43.1901 37.778 46.4364C37.778 47.4004 37.5058 48.2268 36.9612 48.935C36.4167 49.6433 35.6777 50.1549 34.7636 50.4303L38.1087 56.372H34.0246L31.1464 51.0402H28.8127V56.372H25.1565Z" fill="#191919"/>
<path d="M46.0433 51.7682V51.0009L43.8846 51.6305C42.8539 51.9256 42.3482 52.3978 42.3482 53.0667C42.3482 53.8931 42.8539 54.3062 43.8457 54.3062C44.5069 54.3062 45.032 54.0898 45.4404 53.657C45.8294 53.2045 46.0433 52.5749 46.0433 51.7682ZM49.116 48.2268V54.0701C49.116 55.1129 49.2133 55.8802 49.4078 56.3721H46.4517C46.335 56.0179 46.2767 55.6441 46.2572 55.2309H46.2183C45.9655 55.6441 45.4793 55.9982 44.7987 56.2737C44.1763 56.5295 43.554 56.6672 42.9317 56.6672C41.8426 56.6672 40.9869 56.3917 40.3257 55.8212C39.6256 55.2309 39.2755 54.4046 39.2755 53.3815C39.2755 52.1224 39.7812 51.1583 40.773 50.5091C41.6287 49.9582 42.99 49.545 44.8764 49.2892L46.0433 49.1318V48.2071C46.0433 47.4202 45.5377 47.0267 44.5264 47.0267C44.0013 47.0267 43.6123 47.1447 43.3595 47.3611C43.1067 47.5776 42.9317 47.9711 42.8539 48.5023H39.7423C39.8006 46.1807 41.3175 45.0396 44.2541 45.0396C45.8488 45.0396 47.0351 45.256 47.813 45.7085C48.6882 46.2003 49.116 47.0464 49.116 48.2268Z" fill="#191919"/>
<path d="M17.1829 47.4989C16.3078 47.4989 15.6465 47.8137 15.1992 48.4629C14.7908 49.0532 14.5769 49.8402 14.5769 50.8436C14.5769 51.8469 14.7908 52.6339 15.1992 53.2242C15.6465 53.8734 16.3078 54.1882 17.1829 54.1882C18.9332 54.1882 19.7889 53.0274 19.7889 50.7058C19.7889 49.7615 19.575 48.9941 19.1666 48.4236C18.7193 47.8137 18.058 47.4989 17.1829 47.4989ZM17.1829 45.0199C18.9332 45.0199 20.3334 45.5314 21.403 46.5545C22.4727 47.5776 22.9978 49.0138 22.9978 50.8436C22.9978 52.6733 22.4727 54.1095 21.403 55.1326C20.3334 56.1557 18.9332 56.6672 17.1829 56.6672C15.4326 56.6672 14.0324 56.1557 12.9628 55.1326C11.8931 54.1095 11.368 52.6733 11.368 50.8436C11.368 49.0138 11.8931 47.5776 12.9628 46.5545C14.0518 45.5314 15.4521 45.0199 17.1829 45.0199Z" fill="#191919"/>
<path d="M17.0857 42.8164C18.6804 42.8164 20.1779 43.2886 21.4225 44.1149L22.0449 43.2099C20.6057 42.2655 18.9138 41.7146 17.0857 41.7146C15.3354 41.7146 13.7018 42.2261 12.3016 43.0918L12.9239 43.9968C14.1491 43.2295 15.5688 42.8164 17.0857 42.8164Z" fill="#191919"/>
<path d="M10.3568 40.2586L11.1931 41.4588C12.9045 40.357 14.927 39.7274 17.0857 39.7274C19.3416 39.7274 21.4225 40.416 23.1728 41.5768L24.0091 40.3767C22.0254 39.0388 19.6334 38.2518 17.0857 38.2518C14.6159 38.2518 12.3016 38.9995 10.3568 40.2586Z" fill="#191919"/>
<path d="M17.0857 36.5795C20.0029 36.5795 22.7061 37.4649 24.9815 38.9995L26.0316 37.4845C23.484 35.7335 20.3918 34.7301 17.0857 34.7301C13.8768 34.7301 10.8625 35.6942 8.3537 37.3468L9.40387 38.8617C11.6209 37.4255 14.2463 36.5795 17.0857 36.5795Z" fill="#191919"/>
<path d="M17.2996 58.9101C15.7049 58.9101 14.2074 58.4379 12.9628 57.6116L12.3405 58.5166C13.7796 59.461 15.4715 60.0119 17.3191 60.0119C19.0694 60.0119 20.703 59.5003 22.1032 58.6346L21.4809 57.7296C20.2362 58.4969 18.8165 58.9101 17.2996 58.9101Z" fill="#191919"/>
<path d="M24.0285 61.4677L23.1922 60.2676C21.4808 61.3694 19.4583 61.9989 17.2996 61.9989C15.0437 61.9989 12.9628 61.3103 11.2125 60.1495L10.3762 61.3497C12.3599 62.6875 14.7325 63.4745 17.2996 63.4745C19.7695 63.4745 22.0837 62.7269 24.0285 61.4677Z" fill="#191919"/>
<path d="M17.2996 65.1469C14.3825 65.1469 11.6793 64.2615 9.40387 62.7269L8.3537 64.2419C10.9013 65.9732 13.9935 66.9963 17.2996 66.9963C20.5085 66.9963 23.5229 66.0322 26.0316 64.3796L24.9815 62.8646C22.7644 64.3009 20.1195 65.1469 17.2996 65.1469Z" fill="#191919"/>
<path fill-rule="evenodd" clip-rule="evenodd" d="M51.3525 41.4982H54.9114V49.8205L60.5901 41.4982C60.5901 41.4982 62.4766 41.4982 63.4295 41.4982C63.4295 44.2526 63.4295 49.8205 63.4295 49.8205L69.1082 41.4982H73.3673L63.4295 56.2737H59.8706V49.0925L54.9114 56.2737H51.3719V41.4982H51.3525Z" fill="#191919"/>
<path fill-rule="evenodd" clip-rule="evenodd" d="M94.9348 41.4982V56.2737H91.1425L86.0277 48.522V56.2737H82.5272V41.4982H86.1639L91.3953 49.6237V41.4982H94.9348Z" fill="#191919"/>
<path fill-rule="evenodd" clip-rule="evenodd" d="M79.9406 41.4982V56.2737H76.4789V54.1489H71.6753L70.2167 56.2934H66.1522L76.3428 41.5178H79.9406V41.4982ZM73.7368 51.0993H76.4789V47.0267L73.7368 51.0993Z" fill="#191919"/>
<path d="M100.847 43.6624C100.847 44.7838 99.9717 45.6692 98.8437 45.6692C97.7157 45.6692 96.8406 44.7838 96.8406 43.6624C96.8406 42.5606 97.7352 41.6949 98.8437 41.6949C99.9717 41.6752 100.847 42.5606 100.847 43.6624ZM97.3268 43.6624C97.3268 44.5477 97.9685 45.2363 98.8437 45.2363C99.6994 45.2363 100.341 44.528 100.341 43.6624C100.341 42.777 99.7188 42.0687 98.8437 42.0687C97.9685 42.0687 97.3268 42.777 97.3268 43.6624ZM98.5325 44.6854H98.0852V42.718C98.2603 42.6786 98.5131 42.659 98.8437 42.659C99.2132 42.659 99.3882 42.718 99.5244 42.7967C99.641 42.8754 99.7188 43.0328 99.7188 43.2295C99.7188 43.4459 99.5438 43.623 99.3104 43.682V43.7017C99.5049 43.7804 99.6021 43.9181 99.6605 44.1739C99.7188 44.469 99.7577 44.5871 99.7966 44.6658H99.3104C99.2521 44.5871 99.2132 44.41 99.1548 44.1936C99.116 43.9771 98.9993 43.8788 98.7464 43.8788H98.5325V44.6854ZM98.552 43.564H98.7659C99.0187 43.564 99.2132 43.4853 99.2132 43.2689C99.2132 43.0918 99.0771 42.9737 98.8048 42.9737C98.6881 42.9737 98.6103 42.9934 98.552 42.9934V43.564Z" fill="#191919"/>
</g>
</g>
<defs>
<clipPath id="clip0_2336_9405">
<rect width="100" height="100" fill="white" transform="translate(0.846863 0.863098)"/>
</clipPath>
<clipPath id="clip1_2336_9405">
<rect width="100" height="32.6203" fill="white" transform="translate(0.846863 34.553)"/>
</clipPath>
</defs>
</svg>
