<svg width="101" height="101" viewBox="0 0 101 101" fill="none" xmlns="http://www.w3.org/2000/svg">
<g clip-path="url(#clip0_2336_9389)">
<path d="M3.46225 62.2221C2.58579 62.235 1.7151 62.0782 0.898145 61.7606V60.4272C1.73117 60.6928 2.59116 60.8648 3.46225 60.94C4.28276 60.94 5.15455 60.7862 5.15455 59.7606C5.15455 58.9913 4.59045 58.7862 3.8725 58.5811L3.15456 58.4272C2.28276 58.1708 0.846863 57.8118 0.846863 56.0682C0.846863 54.1195 2.43661 53.658 4.07763 53.658C4.87248 53.6278 5.66321 53.786 6.38532 54.1195V55.4016C5.64084 55.0757 4.83892 54.9014 4.02635 54.8888C3.00071 54.8888 2.33404 55.0939 2.33404 55.9657C2.33404 56.7349 2.94943 56.94 3.66738 57.0939L4.43661 57.3503C5.41096 57.6067 6.59045 58.1708 6.59045 59.7093C6.64173 61.658 5.20584 62.2221 3.46225 62.2221ZM12.1802 62.2221C13.7187 62.2221 16.0263 61.7606 16.0263 57.9144C16.0263 54.1195 13.6674 53.6067 12.1802 53.6067C10.5905 53.6067 8.33404 54.2221 8.33404 57.9144C8.33404 61.7093 10.5392 62.2221 12.1802 62.2221ZM12.1802 54.7862C13.052 54.7862 14.4879 54.9913 14.4879 57.9144C14.4879 60.7349 12.9494 61.0426 12.1802 61.0426C11.5648 61.0426 9.8725 60.8375 9.8725 57.9144C9.8725 55.0426 11.3084 54.7862 12.1802 54.7862ZM18.0264 62.0682H19.5648V51.0426H18.0264V62.0682ZM28.6417 62.0682V56.4785C28.6417 54.3247 27.411 53.658 25.5648 53.658C24.4979 53.6701 23.4406 53.8608 22.4366 54.2221V55.5041C23.3625 55.1818 24.3293 54.9919 25.3084 54.94C26.3853 54.94 27.0007 55.1964 27.0007 56.2734V56.9913H25.1546C23.8212 56.9913 21.6674 57.4529 21.6674 59.7093C21.6674 61.8118 23.052 62.2734 24.334 62.2734C25.3739 62.2688 26.3626 61.8211 27.052 61.0426L27.2058 62.1195L28.6417 62.0682ZM27.1033 59.9144C27.1033 59.9144 25.9751 60.9913 24.8469 60.9913C24.0263 60.9913 23.3597 60.6836 23.3597 59.6067C23.3597 58.2734 24.1802 57.9144 25.6161 57.8631H27.1033V59.9144ZM34.2828 55.0426C34.7234 55.0363 35.1604 55.1237 35.5648 55.299V53.8631C35.2135 53.6963 34.8242 53.6255 34.4366 53.658C33.5917 53.6657 32.8294 54.1671 32.4879 54.94L32.2828 53.8118H31.1033V62.0682H32.6417V56.017C32.6417 56.017 33.3597 55.0426 34.2828 55.0426ZM50.0776 53.7606H48.334L47.3597 58.5298C47.1033 59.7605 46.8469 61.3503 46.8469 61.3503C46.8469 61.3503 46.4879 59.6067 46.1802 58.5298L44.7443 53.7606H42.4879L41.052 58.5298C40.7443 59.6067 40.3853 61.3503 40.3853 61.3503C40.3853 61.3503 40.1289 59.658 39.8725 58.5298L38.8469 53.7606H37.052L39.3084 62.0682H41.4622L42.7443 57.658C43.052 56.5298 43.6161 54.5811 43.6161 54.5811C43.6161 54.5811 44.1289 56.5298 44.4366 57.7093L45.7187 62.1195H47.8725L50.0776 53.7606ZM52.0263 62.0682H53.5648V53.7093H52.0263V62.0682ZM63.3597 62.0682V56.4272C63.3597 54.3247 62.1802 53.658 60.693 53.658C59.5284 53.7312 58.4241 54.2018 57.5648 54.9913L57.2571 53.8118H56.0776V62.0682H57.6161V56.017C58.4069 55.425 59.3493 55.0694 60.334 54.9913C61.411 54.9913 61.8212 55.4016 61.8212 56.4272V62.0682H63.3597ZM72.693 62.0682V51.0426H71.1545V54.4272C70.562 53.8647 69.7655 53.5684 68.9494 53.6067C67.8212 53.6067 65.2058 54.1195 65.2058 57.9144C65.2058 61.6067 67.3597 62.2221 68.6417 62.2221C69.6627 62.2494 70.6418 61.8163 71.3084 61.0426L71.4622 62.0682H72.693ZM71.1545 60.017C70.5403 60.5656 69.7686 60.9065 68.9494 60.9913C67.9751 60.9913 66.7443 60.6836 66.7443 57.9144C66.7443 55.299 67.9238 54.8888 69.1033 54.8888C69.8608 54.9191 70.585 55.2088 71.1545 55.7093V60.017ZM77.5135 62.2221C79.2571 62.2221 80.6417 61.7093 80.6417 59.7093C80.6417 58.1708 79.411 57.6067 78.4879 57.3503L77.6674 57.1452C76.9494 56.94 76.334 56.7862 76.334 56.017C76.334 55.1452 77.0007 54.94 78.0263 54.94C78.8389 54.9527 79.6408 55.127 80.3853 55.4529V54.1708C79.6632 53.8373 78.8725 53.6791 78.0776 53.7093C76.4366 53.7093 74.8469 54.1708 74.8469 56.1195C74.8469 57.8631 76.2828 58.2221 77.1545 58.4785L77.8212 58.6836C78.5392 58.8888 79.1033 59.0426 79.1033 59.8631C79.1033 60.8888 78.2828 61.0426 77.411 61.0426C76.5399 60.9673 75.6799 60.7953 74.8469 60.5298V61.8631C74.8981 61.7606 75.9751 62.2221 77.5135 62.2221Z" fill="#191919"/>
<path d="M87.9238 48.7349C86.7956 49.0426 85.6674 49.299 84.5392 49.658C82.2147 47.564 79.2903 46.2543 76.1802 45.9144C80.7854 42.6074 86.3055 40.8151 91.9751 40.7862L90.0263 42.5811C90.0263 42.5811 98.2827 42.2734 100.334 39.4529C100.272 39.7499 100.187 40.0415 100.078 40.3247C99.49 42.0001 98.4412 43.4755 97.052 44.5811C95.7547 45.5958 94.3221 46.4243 92.7956 47.0426C91.2774 47.705 89.7187 48.2703 88.1289 48.7349C88.0776 48.6836 87.975 48.7349 87.9238 48.7349ZM100.847 48.4785C95.6111 48.2412 90.3734 48.9003 85.3597 50.4272C86.4191 51.5329 87.3013 52.7957 87.975 54.1708C92.1289 51.8631 97.8725 48.8888 100.847 48.4785ZM88.4879 55.3503C88.9813 56.6161 89.2921 57.9457 89.4109 59.299L96.6417 51.8631L88.4879 55.3503Z" fill="#191919"/>
</g>
<defs>
<clipPath id="clip0_2336_9389">
<rect width="100" height="100" fill="white" transform="translate(0.846863 0.863098)"/>
</clipPath>
</defs>
</svg>
