<svg width="101" height="101" viewBox="0 0 101 101" fill="none" xmlns="http://www.w3.org/2000/svg">
<g clip-path="url(#clip0_2336_9432)">
<g clip-path="url(#clip1_2336_9432)">
<path d="M50.1547 36.5023C50.9631 36.3452 51.7858 36.2493 52.6098 36.2457C52.8915 36.2437 53.1407 36.4933 53.1412 36.7741C53.1494 36.9715 53.0219 37.1337 52.9272 37.2949C52.0091 38.8011 51.592 40.5736 51.5611 42.3263C51.5232 43.977 51.8013 45.6227 52.2776 47.2001C52.4223 47.6593 52.5673 48.1194 52.759 48.5614C68.7868 48.5609 84.8143 48.5619 100.842 48.5614C100.843 48.9251 100.842 49.2887 100.843 49.6524H52.4525C52.2024 49.6726 51.96 49.5155 51.8751 49.2807C51.1769 47.64 50.73 45.8934 50.5469 44.12C50.3068 41.8359 50.5888 39.4517 51.6315 37.3838C49.8958 37.5363 48.1838 38.0985 46.7499 39.0992C45.3307 40.0827 44.1972 41.4435 43.377 42.9547C42.8158 43.9589 42.382 45.0307 42.0524 46.1319C41.7556 47.1188 41.5311 48.1296 41.4153 49.1545C41.3895 49.3923 41.1897 49.599 40.9511 49.6267C40.809 49.6428 40.6654 49.6343 40.5234 49.6357C27.3496 49.6352 14.1762 49.6357 1.00247 49.6352C1.00196 49.2721 1.00247 48.9084 1.00196 48.5448C14.1323 48.5436 27.2626 48.5458 40.3929 48.5436C40.6983 46.5136 41.3242 44.5295 42.2697 42.7056C43.0761 41.1736 44.147 39.7593 45.5055 38.6738C46.8451 37.5812 48.463 36.8457 50.1547 36.5023ZM43.3074 51.7814C44.0643 51.2843 44.989 51.1222 45.8813 51.1212C46.7601 51.1207 47.6706 51.2484 48.4412 51.6965C49.1176 52.0909 49.6263 52.7451 49.8831 53.4805C50.0379 53.916 50.107 54.377 50.1237 54.8373C49.381 54.8737 48.6388 54.9099 47.8966 54.9458C47.8157 54.4584 47.6701 53.9432 47.2939 53.5982C46.9274 53.2688 46.4132 53.181 45.9363 53.1723C45.37 53.1633 44.7619 53.2648 44.3189 53.6437C43.9726 53.93 43.9049 54.469 44.1177 54.8543C44.2689 55.1371 44.5587 55.3048 44.8418 55.4332C45.6957 55.816 46.626 55.9716 47.5068 56.2777C48.0751 56.4747 48.6499 56.6934 49.1313 57.0627C49.7263 57.5168 50.1521 58.1836 50.3179 58.9129C50.5267 59.8388 50.4812 60.8444 50.0646 61.7087C49.7572 62.3831 49.2319 62.9609 48.568 63.2983C47.791 63.6999 46.9001 63.815 46.035 63.8191C45.138 63.8202 44.2113 63.6757 43.4291 63.2135C42.7446 62.8133 42.2298 62.1648 41.9214 61.4415C41.6702 60.8611 41.5368 60.2357 41.4689 59.609C42.1909 59.5307 42.9129 59.4529 43.6354 59.3746C43.7462 60.0176 43.9469 60.6884 44.4292 61.1541C44.8266 61.5416 45.3894 61.7117 45.9349 61.7234C46.4466 61.7355 46.9846 61.6728 47.4283 61.3991C47.897 61.1036 48.2333 60.5702 48.2096 60.0055C48.2141 59.6393 48.0432 59.2716 47.7394 59.0604C47.3106 58.7533 46.7863 58.6336 46.2898 58.4826C45.3449 58.2052 44.3661 57.9835 43.5086 57.4809C42.827 57.0925 42.3062 56.4425 42.0519 55.7034C41.8663 55.1549 41.8249 54.5609 41.9119 53.9896C42.0551 53.1082 42.5485 52.2687 43.3074 51.7814ZM0.850952 51.3297C1.34995 51.3283 1.84901 51.3297 2.3475 51.3292C2.78737 53.429 3.22423 55.5293 3.66262 57.629C3.95476 59.0443 4.27183 60.4551 4.49423 61.883C4.66618 61.096 4.82797 60.3065 5.014 59.5226C5.70612 56.7915 6.39784 54.0603 7.09002 51.3291C7.67698 51.3291 8.264 51.3286 8.8509 51.3296C9.36466 53.3482 9.8783 55.3665 10.3915 57.385C10.7752 58.8659 11.0902 60.3656 11.2894 61.883C11.4735 60.9006 11.6818 59.9236 11.8977 58.9478C12.4554 56.4081 13.0115 53.8685 13.5703 51.3292C14.0596 51.3292 14.5485 51.3287 15.0375 51.3297C14.0283 55.4207 13.0212 59.5121 12.0115 63.6034C11.5428 63.6034 11.0737 63.6034 10.6049 63.603C10.0032 61.1854 9.40257 58.7675 8.80096 56.3501C8.51228 55.1711 8.20538 53.9961 7.93286 52.8132C7.71648 53.8754 7.43886 54.9231 7.17798 55.9747L5.26835 63.603C4.77185 63.604 4.27534 63.6034 3.7789 63.6034C2.80258 59.5121 1.82727 55.4207 0.850952 51.3297ZM16.6403 51.3292H18.1004C18.1004 55.4207 18.1004 59.5121 18.0999 63.603C17.6135 63.6034 17.1271 63.6034 16.6402 63.603C16.6397 59.5121 16.6403 55.4207 16.6403 51.3292ZM20.6911 51.3292C22.0785 51.3287 23.4653 51.3292 24.8527 51.3292C25.5438 51.3308 26.239 51.3116 26.9241 51.4198C27.4171 51.4955 27.9171 51.6384 28.3159 51.9497C28.8929 52.3961 29.2452 53.0796 29.4106 53.7792C29.6249 54.7582 29.5051 55.8543 28.9034 56.6795C28.3407 57.4979 27.3492 57.8741 26.4017 58.0185C26.7172 58.1938 27.0317 58.3812 27.288 58.6378C27.8943 59.2525 28.3483 59.994 28.7694 60.7421C29.3175 61.6957 29.8661 62.6489 30.4132 63.6035C29.8014 63.6041 29.1896 63.6035 28.5784 63.6035C28.0055 62.6121 27.4473 61.6124 26.867 60.6249C26.5135 60.0415 26.1667 59.4485 25.7258 58.9247C25.4533 58.5975 25.0919 58.3378 24.6798 58.2196C24.4057 58.1523 24.1211 58.1574 23.841 58.1523C23.2767 58.1513 22.7125 58.1513 22.1483 58.1523C22.1478 59.9691 22.1487 61.7867 22.1478 63.6034C21.6618 63.6034 21.1765 63.604 20.6912 63.603C20.6906 59.5121 20.6906 55.4207 20.6911 51.3292ZM22.1482 52.6866C22.1482 54.0403 22.1477 55.3934 22.1482 56.7471C23.2347 56.7461 24.3213 56.7511 25.4078 56.7446C26.0065 56.7279 26.6434 56.683 27.1632 56.3541C28.1906 55.6803 28.2998 53.9982 27.3741 53.1917C26.9206 52.7961 26.2926 52.6971 25.7097 52.6875C24.5225 52.6844 23.3354 52.687 22.1482 52.6866ZM31.8349 51.3292H39.8142V52.7774C37.6411 52.7774 35.4681 52.7769 33.2956 52.7774C33.2951 54.0301 33.2951 55.2827 33.2956 56.5349C35.3296 56.5355 37.3637 56.5349 39.3976 56.5355C39.3981 57.0158 39.3976 57.4961 39.3976 57.976C37.3636 57.977 35.3295 57.976 33.2956 57.9765C33.2951 59.3697 33.2945 60.7628 33.2956 62.1558C35.5536 62.1553 37.8115 62.1553 40.0695 62.1558C40.0701 62.6382 40.0701 63.1207 40.0695 63.6034H31.8349C31.8344 59.5121 31.8349 55.4207 31.8349 51.3292ZM52.3353 51.3292C53.0781 51.3292 53.8202 51.3287 54.5631 51.3297C54.5631 52.9401 54.5625 54.5508 54.5631 56.1613C56.0182 56.1618 57.4732 56.1613 58.9284 56.1618C58.9294 54.5509 58.9284 52.9402 58.9294 51.3294C59.6716 51.3294 60.4138 51.3288 61.156 51.3299C61.1565 55.4208 61.1565 59.5122 61.156 63.6032C60.4138 63.6037 59.6716 63.6037 58.9294 63.6037C58.9284 61.8146 58.9294 60.0255 58.9284 58.2364C57.4732 58.2359 56.0182 58.2359 54.5631 58.2364C54.562 60.0255 54.5635 61.8146 54.5625 63.6037C53.8197 63.6037 53.0776 63.6042 52.3353 63.6032C52.3348 59.5121 52.3353 55.4207 52.3353 51.3292ZM66.6427 51.3297C67.4279 51.3283 68.213 51.3297 68.9983 51.3292C70.4717 55.4203 71.9444 59.5115 73.4166 63.603C72.6091 63.604 71.8018 63.603 70.9943 63.6034C70.6723 62.6747 70.3512 61.7457 70.0311 60.8163C68.5602 60.8142 67.0895 60.8148 65.6187 60.8158C65.3159 61.7452 65.0124 62.6745 64.7081 63.6034C63.9204 63.6034 63.1332 63.604 62.346 63.603C63.7775 59.5116 65.2114 55.4211 66.6427 51.3297ZM66.3049 58.7473C67.3081 58.7478 68.3116 58.7478 69.3148 58.7473C68.8086 57.2295 68.3016 55.7116 67.795 54.1942C67.2969 55.7116 66.8009 57.2295 66.3049 58.7473ZM74.6144 51.3292C76.127 51.3287 77.6399 51.3297 79.1526 51.3292C79.8043 51.3297 80.4596 51.3454 81.1043 51.454C81.5173 51.5242 81.9319 51.6429 82.2833 51.8788C82.9664 52.3334 83.3849 53.1052 83.5493 53.8952C83.6934 54.6326 83.6646 55.4129 83.42 56.1262C83.1748 56.8344 82.6636 57.4552 81.986 57.7876C81.5922 57.9922 81.1604 58.1094 80.7256 58.1861C81.1923 58.4972 81.6336 58.8574 81.984 59.2984C82.4537 59.9106 82.8304 60.5869 83.2122 61.2556C83.6521 62.038 84.0934 62.82 84.5323 63.6029C83.645 63.6039 82.7571 63.6029 81.8698 63.6033C81.1039 62.3481 80.3626 61.0773 79.5785 59.8332C79.2691 59.3675 78.9596 58.8381 78.4151 58.6189C77.9109 58.4461 77.3665 58.4866 76.8422 58.4785C76.8411 60.1868 76.8422 61.8951 76.8417 63.6029C76.0989 63.6033 75.3568 63.6033 74.6145 63.6029C74.6139 59.5121 74.6144 55.4207 74.6144 51.3292ZM76.8421 53.4073C76.8415 54.4443 76.8421 55.4813 76.8415 56.5183C77.612 56.5163 78.3825 56.5242 79.153 56.5112C79.5681 56.492 79.9889 56.492 80.3958 56.397C80.8574 56.2799 81.1981 55.8646 81.2907 55.407C81.3812 54.9444 81.3652 54.428 81.1073 54.019C80.8655 53.6326 80.404 53.4296 79.9575 53.4274C78.9196 53.3937 77.8805 53.4114 76.8421 53.4073ZM85.7734 51.3297C86.5167 51.3292 87.2598 51.3292 88.0032 51.3297C88.0042 53.1456 88.0026 54.9611 88.0042 56.7769C89.5047 54.9615 91.0028 53.1436 92.5045 51.3287C93.5026 51.3297 94.5006 51.3287 95.4987 51.3292C94.1133 52.9224 92.7289 54.516 91.3442 56.1092C92.8029 58.608 94.265 61.1047 95.7237 63.6031C94.7631 63.6041 93.803 63.6035 92.8428 63.6035C91.83 61.6847 90.8208 59.7632 89.8082 57.8443C89.4249 58.2782 89.041 58.7116 88.6604 59.1475C88.4465 59.403 88.2028 59.6374 88.0077 59.9051C87.9975 61.1375 88.0071 62.3705 88.0032 63.6031C87.2598 63.6035 86.5167 63.6035 85.7734 63.6031C85.7729 59.5121 85.7729 55.4207 85.7734 51.3297Z" fill="#191919"/>
</g>
</g>
<defs>
<clipPath id="clip0_2336_9432">
<rect width="100" height="100" fill="white" transform="translate(0.846863 0.0323486)"/>
</clipPath>
<clipPath id="clip1_2336_9432">
<rect width="100" height="27.5735" fill="white" transform="translate(0.846863 36.2456)"/>
</clipPath>
</defs>
</svg>
