<svg width="101" height="101" viewBox="0 0 101 101" fill="none" xmlns="http://www.w3.org/2000/svg">
<path d="M64.9204 25.9991C72.9617 28.1656 73.4604 31.5378 74.5874 34.8331C69.8187 39.7751 39.2095 71.338 39.2095 71.338C39.2095 71.338 58.2862 73.3978 80.3117 69.5828C80.3099 69.6335 80.3082 69.6668 80.3064 69.7158C83.7977 64.2698 85.8469 57.8105 85.8469 50.8631C85.8469 31.5326 70.1774 15.8631 50.847 15.8631C40.9875 15.8631 32.0957 19.9546 25.7345 26.5153C35.9527 24.8301 55.9045 23.5683 64.9204 25.9991Z" fill="#191919"/>
<path d="M34.6139 74.1118C31.1454 73.5046 27.2429 70.3826 26.3767 64.8333C28.8914 62.6651 61.3661 28.9461 61.3661 28.9461C49.1021 28.2041 35.8704 28.1324 22.4514 30.4581C18.3109 36.2069 15.8469 43.2401 15.8469 50.8631C15.8469 70.1936 31.5164 85.8631 50.8469 85.8631C61.6496 85.8631 71.3026 80.9631 77.7234 73.2718C70.9474 74.1906 49.5466 76.7088 34.6139 74.1118Z" fill="#191919"/>
</svg>
