<svg width="100" height="100" viewBox="0 0 100 100" fill="none" xmlns="http://www.w3.org/2000/svg">
<rect width="100" height="100" fill="white"/>
<path d="M39.1005 50.85C39.1005 51.475 39.1505 51.975 39.2755 52.4C39.4005 52.7 39.5755 53.1 39.8005 53.55C39.9005 53.65 39.9255 53.8 39.9255 53.925C39.9255 54.1 39.8255 54.25 39.6005 54.425L38.5505 55.125C38.4005 55.225 38.2505 55.275 38.1255 55.275C37.9505 55.275 37.8005 55.175 37.6255 55.025C37.4005 54.775 37.2005 54.525 37.0255 54.25C36.8755 53.975 36.7005 53.65 36.5255 53.275C35.2255 54.8 33.6005 55.575 31.6255 55.575C30.2255 55.575 29.1255 55.175 28.3005 54.375C27.5005 53.575 27.0755 52.5 27.0755 51.15C27.0755 49.775 27.5755 48.65 28.5755 47.75C29.6005 46.9 30.9505 46.45 32.6505 46.45C33.2255 46.45 33.7505 46.5 34.4255 46.6C35.0005 46.675 35.6755 46.8 36.3255 46.95V45.75C36.3255 44.475 36.0755 43.65 35.5505 43.075C35.0005 42.55 34.1255 42.325 32.8505 42.325C32.2505 42.325 31.6505 42.4 31.0505 42.525C30.4255 42.675 29.8255 42.85 29.2505 43.1C28.9755 43.2 28.7505 43.275 28.6755 43.3C28.5505 43.35 28.4755 43.35 28.4005 43.35C28.1755 43.35 28.0505 43.2 28.0505 42.85V42.025C28.0505 41.775 28.0755 41.575 28.1755 41.45C28.2505 41.325 28.4005 41.225 28.6255 41.15C29.2255 40.8 29.9005 40.55 30.7255 40.35C31.5741 40.1281 32.4483 40.0188 33.3255 40.025C35.3005 40.025 36.7505 40.475 37.6755 41.375C38.6005 42.275 39.0505 43.65 39.0505 45.475V50.85H39.1005ZM32.3505 53.4C32.9005 53.4 33.4505 53.3 34.0505 53.1C34.6505 52.9 35.1755 52.525 35.6255 52.025C35.9005 51.7 36.1005 51.35 36.2505 50.95C36.2505 50.55 36.3755 50.075 36.3755 49.5V48.825C35.8755 48.65 35.3755 48.65 34.8255 48.525C34.3105 48.4687 33.7933 48.4354 33.2755 48.425C32.1505 48.425 31.3505 48.65 30.8005 49.1C30.2505 49.55 30.0005 50.175 30.0005 51C30.0005 51.8 30.1755 52.4 30.6005 52.775C31.0005 53.2 31.5755 53.4 32.3505 53.4ZM45.7005 55.175C45.4584 55.1822 45.2183 55.1308 45.0005 55.025C44.9255 54.9 44.8005 54.675 44.7005 54.375L40.8005 41.525C40.7005 41.15 40.6505 40.975 40.6505 40.85C40.6505 40.575 40.7755 40.425 41.0505 40.425H42.6755C43.0005 40.425 43.2255 40.475 43.3255 40.6C43.4755 40.7 43.5755 40.925 43.6755 41.25L46.4505 52.25L49.0505 41.25C49.1255 40.925 49.2255 40.7 49.3755 40.6C49.5005 40.5 49.7255 40.425 50.0005 40.425H51.3755C51.6755 40.425 51.9005 40.475 52.0255 40.6C52.1505 40.7 52.2754 40.925 52.3504 41.25L55.0005 52.4L57.8505 41.25C57.9505 40.925 58.0755 40.7 58.1754 40.6C58.3255 40.5 58.5254 40.425 58.8255 40.425H60.3755C60.6504 40.425 60.8004 40.575 60.8004 40.85C60.8004 40.925 60.7754 41.025 60.7504 41.15C60.7504 41.15 60.7005 41.35 60.6505 41.525L56.6254 54.375C56.5254 54.725 56.4254 54.9 56.2505 55.025C56.1504 55.125 55.9255 55.2 55.6504 55.2H54.2254C53.9004 55.2 53.7505 55.15 53.5505 55.025C53.3823 54.8468 53.277 54.6186 53.2505 54.375L50.6755 43.65L48.1005 54.35C48.0254 54.675 47.9255 54.9 47.8005 55.025C47.594 55.1375 47.3601 55.1895 47.1255 55.175H45.7005ZM67.0754 55.625C66.2505 55.625 65.3254 55.525 64.5004 55.325C63.6754 55.125 63.0255 54.9 62.6005 54.675C62.3833 54.5706 62.201 54.4056 62.0755 54.2C62.0075 54.0598 61.9733 53.9057 61.9755 53.75V52.9C61.9755 52.55 62.1005 52.4 62.3505 52.4H62.6504C62.7504 52.4 62.9004 52.525 63.0754 52.6C63.6254 52.85 64.2504 53.05 64.9004 53.175C65.5754 53.3 66.2505 53.375 66.8755 53.375C67.9254 53.375 68.7504 53.2 69.3004 52.825C69.8754 52.4 70.1754 51.925 70.1754 51.25C70.1754 50.775 70.0004 50.4 69.7254 50.075C69.4254 49.775 68.8504 49.475 68.0504 49.225L65.6255 48.475C64.4254 48.075 63.5255 47.525 62.9755 46.775C62.4387 46.0807 62.1484 45.2275 62.1505 44.35C62.1505 43.65 62.3005 43.05 62.6005 42.525C62.9005 41.975 63.3004 41.525 63.7505 41.15C64.3004 40.775 64.8504 40.5 65.5254 40.3C66.1754 40.1 66.8754 40 67.6254 40C67.9754 40 68.3504 40.025 68.7505 40.075C69.1004 40.125 69.4504 40.2 69.8004 40.25C70.1504 40.35 70.4504 40.425 70.7504 40.525C71.0504 40.625 71.2505 40.725 71.4504 40.825C71.6754 40.95 71.8504 41.075 71.9505 41.225C72.0504 41.375 72.1004 41.55 72.1004 41.775V42.575C72.1004 42.925 71.9754 43.1 71.7254 43.1C71.6004 43.1 71.3755 43.025 71.0755 42.9C70.1504 42.475 69.0754 42.25 67.9004 42.25C66.9504 42.25 66.2505 42.4 65.6754 42.725C65.1754 43.025 64.9004 43.525 64.9004 44.2C64.9004 44.675 65.0754 45.075 65.4004 45.375C65.7254 45.7 66.3504 46 67.2254 46.3L69.6004 47.05C70.8004 47.4 71.6505 47.95 72.1754 48.65C72.6754 49.325 72.9254 50.1 72.9254 50.975C72.9254 51.675 72.7754 52.325 72.5005 52.9C72.2004 53.45 71.8004 53.95 71.2505 54.35C70.7754 54.775 70.1505 55.075 69.4505 55.3C68.7505 55.525 67.9004 55.625 67.0754 55.625ZM70.2004 63.725C64.7254 67.75 56.7754 69.9 50.0005 69.9C40.3755 69.9 31.7505 66.35 25.2255 60.475C24.7005 60 25.1755 59.375 25.8005 59.75C32.8505 63.825 41.5255 66.3 50.5254 66.3C56.6005 66.3 63.2755 65.05 69.4004 62.4C70.3255 62.025 71.1004 63.05 70.2004 63.725ZM72.5005 61.15C71.7754 60.225 67.8504 60.7 66.0755 60.9C65.5504 60.975 65.4754 60.5 65.9504 60.15C69.0754 57.975 74.2254 58.65 74.8004 59.325C75.4004 60.075 74.6504 65.225 71.7254 67.675C71.2505 68.05 70.8254 67.85 71.0254 67.4C71.7004 65.7 73.1754 62 72.5005 61.15Z" fill="#191919"/>
</svg>
