<svg width="101" height="101" viewBox="0 0 101 101" fill="none" xmlns="http://www.w3.org/2000/svg">
<path d="M41.5033 15.2043C41.4427 15.1942 41.3842 15.2152 41.3236 15.2128C41.1943 15.2078 41.0669 15.2043 40.9412 15.2328C40.8609 15.2512 40.792 15.2896 40.7158 15.3213C40.6059 15.3663 40.502 15.4124 40.4048 15.4839C40.3782 15.5034 40.3445 15.5082 40.3192 15.5296C40.2752 15.5667 40.2553 15.6221 40.2164 15.6637C40.166 15.7168 40.1025 15.753 40.0595 15.8149C40.032 15.8548 40.0283 15.9018 40.0053 15.9433C39.9628 16.0191 39.9337 16.0951 39.9054 16.1773C39.8671 16.2888 39.8388 16.3962 39.8284 16.5111C39.8239 16.5573 39.7998 16.5984 39.7998 16.6453V28.039C29.1055 28.794 20.6306 37.7133 20.6306 48.595C20.6306 59.97 29.8844 69.2252 41.2608 69.2252C45.1721 69.2252 48.8212 68.1105 51.9411 66.212L67.2954 84.6737C67.5847 85.0199 68.0003 85.2015 68.4196 85.2015C68.7498 85.2015 69.081 85.087 69.3527 84.862C69.9736 84.3477 70.0568 83.4284 69.541 82.8075L54.3466 64.5314C57.8738 61.6302 60.4169 57.5812 61.4173 52.9636L80.1643 45.1509C80.7078 44.9245 81.0631 44.3929 81.0631 43.8041V23.0341C81.0631 22.9293 81.0301 22.8335 81.0089 22.7345C80.9951 22.6685 80.9978 22.6016 80.9747 22.5376C80.9127 22.3659 80.8191 22.2109 80.7008 22.0753C80.6946 22.0683 80.6928 22.0594 80.6865 22.0525C80.6545 22.0172 80.6098 22.004 80.5752 21.9726C80.48 21.8853 80.3809 21.8042 80.2642 21.7443C80.1986 21.7107 80.1308 21.6933 80.0616 21.6701C79.9877 21.6451 79.921 21.6062 79.8419 21.5931L41.5033 15.2043ZM47.4898 19.1648L76.3807 23.9785L66.8988 32.5588L47.4898 19.1648ZM42.7217 19.4245L66.1911 35.6205C66.4424 35.7929 66.7322 35.8802 67.0215 35.8802C67.375 35.8802 67.7255 35.7506 68.003 35.4978L78.1412 26.3241V42.8282L61.8397 49.6222C61.8567 49.2796 61.891 48.9418 61.891 48.595C61.891 37.7126 53.4168 28.793 42.7217 28.039V19.4245ZM39.7998 30.9609V59.7776C39.7998 60.2655 40.0443 60.7214 40.4504 60.9931C40.6944 61.1553 40.9759 61.2385 41.2608 61.2385C41.4507 61.2385 41.6431 61.2017 41.8258 61.1272L57.9761 54.396C55.567 61.3166 48.9923 66.3033 41.2608 66.3033C31.4958 66.3033 23.5525 58.36 23.5525 48.595C23.5525 39.3237 30.7181 31.7085 39.7998 30.9609ZM42.7217 30.9609C43.66 31.038 44.5752 31.1934 45.4667 31.4117V35.4065L42.7217 35.4436V30.9609ZM48.3886 32.3961C49.4169 32.8503 50.3956 33.3952 51.3105 34.0283V35.3237L48.3886 35.3637V32.3961ZM55.5593 38.1886C56.5337 39.5237 57.3227 40.997 57.8962 42.5771L54.2324 42.6171V38.2057L55.5593 38.1886ZM51.3105 38.2456V42.6513L48.3886 42.6856V38.2885L51.3105 38.2456ZM45.4667 38.3284V42.717L42.7217 42.7483V38.3655L45.4667 38.3284ZM58.6781 45.4819C58.8587 46.4946 58.9691 47.5312 58.9691 48.595C58.9691 49.0301 58.9345 49.4574 58.9035 49.8848L54.2324 49.9333V45.5418L58.6324 45.4905C58.6486 45.4903 58.662 45.4826 58.6781 45.4819ZM51.3105 45.5732V49.9646L48.3886 49.996V45.6075L51.3105 45.5732ZM45.4667 45.6389V50.0246L42.7217 50.0531V45.6703L45.4667 45.6389ZM51.3105 52.8866V54.0079L48.3886 55.2264V52.9179L51.3105 52.8866ZM45.4667 52.9465V55.8998C45.4667 56.0773 45.5087 56.2418 45.5666 56.3991L42.7217 57.5861V52.975L45.4667 52.9465Z" fill="#E4E4E4"/>
</svg>
