<svg width="101" height="101" viewBox="0 0 101 101" fill="none" xmlns="http://www.w3.org/2000/svg">
<g clip-path="url(#clip0_2336_9512)">
<path d="M50.0694 15.2016C51.9855 15.1495 53.7815 15.1624 55.6486 15.6573C55.7878 15.6916 55.9271 15.7259 56.0663 15.7602C58.7725 16.4614 61.6392 17.9891 63.5336 20.0761C64.1192 20.7173 64.4998 21.0472 65.3968 21.1702C66.2825 21.3034 67.0277 21.7697 67.7216 22.311C67.7844 22.3586 67.8473 22.4061 67.912 22.4552C69.0826 23.4008 69.8809 24.8389 70.0996 26.3214C70.2258 27.81 69.9229 29.1638 69.0935 30.4229C69.0403 30.4813 68.9872 30.5396 68.9324 30.5998C68.4171 31.1775 68.3648 31.624 68.379 32.3826C68.3794 33.067 68.3559 33.6785 68.1789 34.3422C67.6707 34.5068 67.1906 34.5702 66.6588 34.6092C66.5729 34.6161 66.4871 34.6229 66.3986 34.63C66.213 34.6447 66.0275 34.6591 65.8419 34.6733C65.5482 34.6957 65.2545 34.7189 64.9608 34.7424C64.2318 34.8004 63.5027 34.8571 62.7736 34.9138C62.1565 34.9617 61.5396 35.0103 60.9226 35.0596C60.6334 35.0825 60.3442 35.1045 60.0549 35.1265C59.8776 35.1406 59.7003 35.1548 59.523 35.1689C59.4427 35.1748 59.3624 35.1807 59.2797 35.1867C58.8907 35.2188 58.5654 35.2616 58.2096 35.436C58.2056 35.5878 58.2058 35.7398 58.2096 35.8917C58.3648 36.0464 58.5692 36.0185 58.7824 36.0385C58.8894 36.0487 58.9964 36.0588 59.1066 36.0692C59.2284 36.0802 59.3501 36.0912 59.4718 36.1021C59.5347 36.1079 59.5976 36.1137 59.6624 36.1196C61.9865 36.3325 64.315 36.4988 66.6422 36.6752C67.1633 36.7147 67.6844 36.7547 68.2054 36.7949C68.4013 36.8099 68.5971 36.8248 68.7929 36.8395C71.63 37.0522 71.63 37.0522 71.8374 37.2589C71.8545 37.5722 71.8545 37.5722 71.8374 37.8969C71.5722 38.1612 71.2577 38.1803 70.9013 38.2515C70.8216 38.268 70.7418 38.2845 70.6596 38.3015C70.3892 38.3572 70.1187 38.4119 69.8481 38.4666C69.6553 38.506 69.4626 38.5455 69.2699 38.585C67.2314 39.0018 65.1904 39.4066 63.1495 39.8111C62.9532 39.85 62.7569 39.8889 62.5606 39.9279C62.4322 39.9533 62.3038 39.9787 62.1754 40.0041C61.4842 40.1407 60.7938 40.2801 60.1047 40.4267C59.9827 40.4525 59.8608 40.4783 59.7388 40.5041C59.5122 40.5522 59.2858 40.601 59.0595 40.6504C58.3207 40.8072 57.6849 40.9344 56.963 40.6416C56.8632 40.6021 56.7634 40.5625 56.6605 40.5218C56.5511 40.4771 56.4416 40.4324 56.3289 40.3863C56.1467 40.3137 55.9644 40.2415 55.782 40.1694C55.6445 40.1151 55.5071 40.0606 55.3697 40.006C54.3584 39.6051 53.3402 39.2222 52.3231 38.8364C51.8723 38.6655 51.4216 38.4943 50.971 38.323C50.7668 38.2454 50.5627 38.1678 50.3585 38.0903C50.2668 38.0555 50.1752 38.0207 50.0808 37.9848C50.001 37.9545 49.9212 37.9242 49.839 37.893C49.682 37.8326 49.5261 37.7692 49.3713 37.7034C49.1504 37.6076 49.1504 37.6076 48.8804 37.6235C48.7351 37.822 48.6103 38.016 48.486 38.2273C48.4059 38.36 48.3256 38.4925 48.2452 38.625C48.2013 38.6976 48.1574 38.7701 48.1122 38.8449C47.9517 39.1047 47.7854 39.3602 47.6178 39.6155C47.559 39.7055 47.5002 39.7955 47.4397 39.8882C47.3225 40.0671 47.2047 40.2457 47.0863 40.4238C47.0328 40.506 46.9794 40.5882 46.9244 40.6729C46.8519 40.7829 46.8519 40.7829 46.778 40.895C46.6532 41.0966 46.6532 41.0966 46.7768 41.3604C46.9638 41.4909 47.1441 41.6035 47.3427 41.7136C47.3995 41.7455 47.4563 41.7775 47.5147 41.8103C48.5299 42.3633 49.7207 42.8181 50.8926 42.6365C51.1191 42.5067 51.2935 42.3566 51.4875 42.1825C51.7681 41.9562 52.0615 41.803 52.3846 41.6453C52.4917 41.5929 52.5989 41.5405 52.7093 41.4865C53.4321 41.1689 54.2861 41.1338 55.0423 41.3626C55.6736 41.6527 56.199 42.0378 56.5632 42.6365C56.6958 43.0269 56.7016 43.3254 56.5632 43.7132C56.1517 44.1618 55.7034 44.3351 55.1066 44.3775C54.8257 44.3638 54.674 44.2719 54.4596 44.0948C54.4068 44.0309 54.354 43.967 54.2996 43.9011C53.9878 43.6422 53.6681 43.6327 53.2706 43.6391C52.9999 43.6842 52.9999 43.6842 52.8133 43.8214C52.7207 44.0456 52.7082 44.149 52.7929 44.3786C52.828 44.4447 52.863 44.5109 52.899 44.579C53.0756 44.9536 53.1605 45.2251 53.0877 45.6443C52.8511 45.98 52.7155 46.0834 52.3103 46.1627C51.969 46.0959 51.8395 46.0138 51.6355 45.7346C51.5149 45.5214 51.4257 45.3049 51.3367 45.0768C51.3046 44.9952 51.2726 44.9136 51.2396 44.8295C51.2156 44.7675 51.1917 44.7055 51.167 44.6417C51.1119 44.6431 51.0568 44.6446 51 44.646C48.4339 44.7035 45.6335 44.3641 43.6857 42.5173C42.8702 41.7109 42.8702 41.7109 42.8125 41.1415C42.9523 39.6835 44.128 38.2278 44.9351 37.0468C45.0817 36.8317 45.2262 36.6152 45.3706 36.3987C45.443 36.2905 45.5154 36.1822 45.5878 36.074C45.1908 36.001 44.865 35.9534 44.4731 36.0683C43.1739 37.0178 42.3542 39.2471 41.8379 40.7224C41.7672 41.3794 41.9494 41.9142 42.3523 42.4314C43.0679 43.1974 44.0321 43.788 44.9647 44.2543C45.4772 44.5189 45.7699 44.7752 46.0451 45.2797C46.1033 45.3828 46.1033 45.3828 46.1627 45.488C46.9636 47.0672 47.1619 48.9116 47.1427 50.6573C47.358 50.5755 47.358 50.5755 47.4342 50.287C47.6523 49.7573 48.0341 49.2671 48.5603 49.0167C48.9838 48.8961 49.3271 48.8392 49.7379 49.0224C49.9648 49.292 49.984 49.4889 49.978 49.837C49.7004 50.2059 49.3852 50.374 48.9719 50.5662C48.7579 50.7416 48.7579 50.7416 48.7547 51.0504C48.794 51.4362 48.8835 51.5718 49.1548 51.8422C49.4557 51.9921 49.7456 51.9926 50.0694 51.9334C50.4282 51.7511 50.7574 51.5293 51.0344 51.2366C51.2648 51.0219 51.5024 51.0324 51.8072 51.0219C52.331 51.2161 52.4845 51.6426 52.7218 52.1157C52.7883 52.7304 52.7962 53.2682 52.4182 53.7791C51.7785 54.4432 51.083 54.6671 50.1838 54.6962C49.0071 54.6712 47.9589 54.2803 47.0798 53.4942C46.6062 52.9922 46.3403 52.3927 46.0519 51.7759C45.5367 50.6898 44.9864 49.6716 44.2159 48.7433C44.1637 48.6754 44.1114 48.6074 44.0576 48.5375C43.4657 47.8006 42.7267 47.3504 41.7929 47.1934C41.5138 47.1939 41.3526 47.2454 41.1062 47.3761C40.7859 47.9959 40.7892 48.745 40.7975 49.4269C40.7964 49.5139 40.7954 49.601 40.7943 49.6907C40.798 50.5958 41.0249 51.4039 41.4377 52.2068C41.4851 52.2997 41.4851 52.2997 41.5335 52.3944C42.864 54.909 45.8602 56.2669 48.4615 57.1092C49.5573 57.4412 50.6723 57.6271 51.8072 57.7667C51.9041 57.7788 52.001 57.7909 52.1009 57.8034C52.3386 57.8287 52.5746 57.8459 52.8133 57.8578C52.8995 57.8627 52.9857 57.8675 53.0745 57.8724C57.3869 57.9928 62.0341 56.3187 65.2203 53.4188C65.6914 52.9699 66.0751 52.4689 66.4411 51.9334C66.5211 51.8169 66.5211 51.8169 66.6026 51.698C67.548 50.2253 67.8381 48.5292 67.5876 46.811C67.3847 46.049 66.9192 45.3501 66.2582 44.9151C65.3829 44.471 64.4349 44.4078 63.4858 44.6531C62.6965 44.9278 62.0999 45.3815 61.7137 46.1228C61.4735 46.8066 61.4458 47.4159 61.6851 48.1052C61.9752 48.6833 62.4522 48.9981 63.057 49.199C63.649 49.2433 64.2022 49.2841 64.7033 48.9256C65.0351 48.5608 65.1025 48.2084 65.0946 47.7296C65.0813 47.5416 65.0813 47.5416 64.9206 47.3704C64.6232 47.2534 64.4612 47.2905 64.1546 47.3761C64.0188 47.4494 64.0188 47.4494 63.8802 47.5242C63.551 47.6745 63.3995 47.6645 63.057 47.5584C62.8855 47.4558 62.8855 47.4558 62.7826 47.2849C62.7333 46.9123 62.7588 46.6974 62.9198 46.3564C63.2796 45.9531 63.7882 45.6966 64.3293 45.6194C65.0217 45.5868 65.5594 45.8136 66.0828 46.2638C66.5578 46.7621 66.756 47.2719 66.847 47.9457C66.7241 48.9955 66.3684 49.8382 65.5379 50.5035C64.9632 50.9362 64.3418 51.0714 63.6344 51.0618C63.527 51.0607 63.527 51.0607 63.4175 51.0597C62.17 51.0249 61.1337 50.5507 60.2735 49.6537C59.4801 48.65 59.3876 47.5079 59.49 46.2823C59.6298 45.5091 59.9274 44.8964 60.4046 44.2771C60.4839 44.1587 60.4839 44.1587 60.5647 44.0379C61.476 43.0792 62.8516 42.5571 64.1546 42.4542C64.2133 42.4493 64.272 42.4443 64.3325 42.4392C65.7609 42.3797 67.1486 42.8379 68.2246 43.7758C68.3637 43.9106 68.5012 44.0471 68.6362 44.186C68.6886 44.2373 68.7409 44.2887 68.7948 44.3416C69.9026 45.5109 70.1507 47.1938 70.1246 48.7358C70.0227 51.3263 68.8548 53.8393 67.2643 55.8526C67.2083 55.924 67.2083 55.924 67.1513 55.9968C65.6752 57.8584 63.8981 59.3648 61.868 60.5922C61.7702 60.6527 61.6723 60.7132 61.5715 60.7756C57.2478 63.3557 51.8809 64.0364 46.9597 63.2355C46.8809 63.2232 46.8021 63.211 46.7209 63.1985C42.9494 62.5991 39.405 60.7124 36.6245 58.1313C36.4973 58.0207 36.3696 57.9105 36.2415 57.8009C35.6473 57.2821 35.1353 56.728 34.6406 56.1136C34.5068 55.9483 34.371 55.7845 34.2326 55.623C33.5871 54.8657 33.0438 54.0465 32.5088 53.2094C32.474 53.1555 32.4392 53.1016 32.4033 53.0461C30.5551 50.1479 29.8362 46.6196 29.8335 43.2289C29.8334 43.1592 29.8334 43.0894 29.8333 43.0176C29.84 38.2287 31.2537 33.6902 34.338 29.9672C34.3809 29.9152 34.4238 29.8632 34.468 29.8096C37.5534 26.0922 41.9912 23.5055 46.7768 22.6756C46.8934 22.6667 46.8934 22.6667 47.0123 22.6577C47.5646 22.6028 47.9409 22.3624 48.3717 22.0318C48.4269 21.9934 48.4822 21.955 48.5391 21.9154C49.1018 21.4465 49.1258 20.7642 49.215 20.0833C49.2597 19.7504 49.3126 19.4189 49.3649 19.0871C49.407 18.8191 49.4482 18.5508 49.4891 18.2826C49.5096 18.148 49.5096 18.148 49.5305 18.0108C49.5585 17.8262 49.5864 17.6416 49.6143 17.457C49.6552 17.1861 49.6967 16.9154 49.7383 16.6446C49.7505 16.5626 49.7626 16.4805 49.7752 16.396C49.8394 15.9809 49.92 15.5968 50.0694 15.2016ZM49.2463 24.3162C48.0872 25.7014 47.7509 27.2955 47.8744 29.0558C48.026 30.4145 48.7328 31.5793 49.7036 32.5193C49.7596 32.577 49.8156 32.6347 49.8733 32.6941C50.9645 33.7444 52.5212 34.1599 54.0023 34.1599C55.4132 34.0628 56.644 33.5711 57.7522 32.7016C57.7522 32.6414 57.7522 32.5813 57.7522 32.5193C57.8042 32.4996 57.8562 32.4798 57.9098 32.4595C58.7074 31.9905 59.2773 30.8037 59.5072 29.9423C59.9056 28.3351 59.829 26.8172 59.0327 25.3188C58.0654 23.7684 56.7573 22.8065 54.9859 22.3491C52.7935 22.0175 50.7416 22.6893 49.2463 24.3162ZM66.4411 23.9516C66.5037 24.4123 66.696 24.8113 66.8813 25.2333C67.1655 25.8916 67.4212 26.5466 67.6301 27.2328C68.1005 26.9558 68.444 26.6857 68.5969 26.1327C68.6829 25.6091 68.627 25.1452 68.3618 24.6808C68.066 24.3535 67.7779 24.0918 67.3557 23.9516C67.1977 23.9454 67.0394 23.9438 66.8813 23.9459C66.7989 23.9467 66.7165 23.9475 66.6315 23.9484C66.5373 23.95 66.5373 23.95 66.4411 23.9516Z" fill="#E4E4E4"/>
<path d="M40.4007 70.5775C40.5844 70.5783 40.768 70.5755 40.9517 70.5728C41.1267 70.5729 41.1267 70.5729 41.3052 70.573C41.4117 70.5728 41.5182 70.5726 41.6279 70.5724C42.1629 70.6536 42.4971 70.9638 42.8154 71.3815C42.908 71.5012 42.908 71.5012 43.0026 71.6233C43.1052 71.7574 43.1052 71.7574 43.2098 71.8942C43.3749 72.1055 43.541 72.316 43.7071 72.5265C43.7499 72.5809 43.7927 72.6354 43.8368 72.6914C44.1681 73.112 44.5062 73.5268 44.8472 73.9397C45.0272 74.1585 45.205 74.3788 45.382 74.6001C45.7089 75.0087 46.0397 75.414 46.371 75.8192C46.7361 76.2661 47.0987 76.7144 47.4506 77.1718C47.6924 77.4813 47.9436 77.7834 48.1941 78.0861C48.3317 78.2744 48.3317 78.2744 48.3317 78.4567C48.4222 78.4567 48.5128 78.4567 48.6061 78.4567C48.6051 78.3155 48.6051 78.3155 48.6042 78.1714C48.5986 77.2848 48.5945 76.3983 48.5918 75.5118C48.5904 75.056 48.5885 74.6002 48.5854 74.1444C48.5824 73.7047 48.5807 73.265 48.58 72.8253C48.5795 72.6574 48.5785 72.4895 48.577 72.3215C48.5751 72.0867 48.5748 71.8519 48.5749 71.6171C48.5739 71.5473 48.5729 71.4776 48.5719 71.4057C48.5747 70.9388 48.5747 70.9388 48.7257 70.7118C48.9892 70.5524 49.2787 70.5793 49.5778 70.5819C49.6458 70.5816 49.7138 70.5813 49.7838 70.5811C49.9275 70.5809 50.0711 70.5814 50.2147 70.5825C50.4345 70.584 50.6542 70.5825 50.874 70.5808C51.0136 70.581 51.1532 70.5813 51.2927 70.5819C51.3585 70.5813 51.4242 70.5807 51.492 70.5802C51.943 70.5865 51.943 70.5865 52.1447 70.722C52.3182 70.9676 52.2988 71.154 52.2988 71.4527C52.2994 71.5701 52.3 71.6876 52.3007 71.8086C52.3 71.939 52.2993 72.0695 52.2986 72.1999C52.2988 72.337 52.2991 72.4742 52.2996 72.6113C52.3005 72.984 52.2996 73.3566 52.2984 73.7293C52.2973 74.1188 52.2977 74.5084 52.2979 74.8979C52.298 75.5521 52.297 76.2062 52.2953 76.8603C52.2933 77.6173 52.293 78.3743 52.2936 79.1313C52.2941 79.8587 52.2936 80.5861 52.2926 81.3135C52.2921 81.6235 52.2921 81.9334 52.2923 82.2434C52.2924 82.6081 52.2917 82.9728 52.2902 83.3375C52.2898 83.4716 52.2898 83.6057 52.29 83.7398C52.2903 83.9224 52.2894 84.1049 52.2884 84.2874C52.2881 84.4409 52.2881 84.4409 52.2878 84.5975C52.2645 84.8369 52.2645 84.8369 52.0816 85.0192C51.6843 85.0599 51.2857 85.057 50.8866 85.058C50.6888 85.0591 50.4912 85.0636 50.2935 85.0682C50.1669 85.069 50.0403 85.0697 49.9137 85.0701C49.7416 85.072 49.7416 85.072 49.566 85.0738C49.0083 84.9785 48.698 84.5954 48.3602 84.159C48.298 84.0795 48.2357 83.9999 48.1716 83.918C48.0697 83.7863 48.0697 83.7863 47.9658 83.652C47.8081 83.4504 47.6497 83.2493 47.4914 83.0482C47.4495 82.9949 47.4077 82.9417 47.3645 82.8868C46.931 82.3366 46.4876 81.7945 46.044 81.2523C45.7723 80.92 45.5036 80.5854 45.2355 80.2501C45.0787 80.0554 44.921 79.8616 44.7625 79.6683C44.6876 79.5769 44.6876 79.5769 44.6112 79.4835C44.5081 79.3578 44.405 79.232 44.3019 79.1063C44.0563 78.8057 43.8141 78.5035 43.5799 78.194C43.5385 78.1392 43.497 78.0844 43.4543 78.028C43.3424 77.8791 43.2314 77.7294 43.1205 77.5798C42.9493 77.3414 42.9493 77.3414 42.661 77.2718C42.6614 77.3662 42.6618 77.4606 42.6623 77.5578C42.666 78.4457 42.6687 79.3336 42.6705 80.2215C42.6715 80.678 42.6728 81.1345 42.6748 81.591C42.6768 82.0313 42.6779 82.4716 42.6784 82.9118C42.6787 83.0801 42.6794 83.2484 42.6804 83.4166C42.6817 83.6517 42.6819 83.8867 42.6818 84.1218C42.6825 84.1919 42.6831 84.2619 42.6838 84.3341C42.6819 84.8161 42.6819 84.8161 42.4781 85.0192C42.231 85.0374 41.9935 85.0447 41.7464 85.0434C41.674 85.0436 41.6016 85.0438 41.527 85.044C41.3739 85.0441 41.2207 85.0437 41.0676 85.043C40.8327 85.042 40.5979 85.043 40.3631 85.0441C40.2144 85.044 40.0658 85.0438 39.9172 85.0434C39.8114 85.044 39.8114 85.044 39.7035 85.0445C39.2065 85.0402 39.2065 85.0402 39.0026 84.8369C38.9793 84.5975 38.9793 84.5975 38.9787 84.2874C38.9781 84.1702 38.9774 84.053 38.9767 83.9323C38.977 83.8017 38.9772 83.671 38.9774 83.5404C38.977 83.4035 38.9766 83.2665 38.976 83.1295C38.9748 82.7568 38.9747 82.3842 38.975 82.0115C38.9751 81.7007 38.9746 81.3899 38.9742 81.0791C38.9732 80.3461 38.9731 79.6131 38.9737 78.8801C38.9742 78.1232 38.9731 77.3662 38.9712 76.6093C38.9696 75.9601 38.969 75.3109 38.9693 74.6617C38.9695 74.2736 38.9692 73.8856 38.968 73.4976C38.9668 73.1327 38.967 72.7679 38.9682 72.403C38.9684 72.2689 38.9681 72.1348 38.9674 72.0008C38.9664 71.8181 38.9673 71.6354 38.9683 71.4527C38.9683 71.3503 38.9683 71.248 38.9683 71.1425C39.0026 70.8916 39.0026 70.8916 39.1253 70.7221C39.4748 70.4826 39.9919 70.5749 40.4007 70.5775Z" fill="#E4E4E4"/>
<path d="M35.7464 72.0551C36.7374 72.9033 36.7374 72.9033 36.8075 73.4437C36.1102 74.0124 35.3649 74.5013 34.6124 74.9932C34.5219 75.0533 34.4313 75.1135 34.338 75.1754C34.0465 75.2267 34.0465 75.2267 33.6978 75.1754C33.5028 75.031 33.3339 74.8702 33.1583 74.703C32.8536 74.4405 32.5197 74.3051 32.1429 74.1728C32.0848 74.1523 32.0267 74.1317 31.9668 74.1105C30.8959 73.7902 29.8381 74.0127 28.8517 74.4862C27.9504 75.0023 27.367 75.7892 27.0786 76.783C26.8575 77.9613 26.9809 79.0261 27.6256 80.0599C28.2052 80.8561 29.055 81.4653 30.0393 81.6468C31.3212 81.7286 32.3316 81.6079 33.3319 80.7353C33.4649 80.6197 33.4649 80.6197 33.6006 80.5018C33.8011 80.2657 33.8636 80.1304 33.8807 79.8239C33.6985 79.6423 33.3364 79.7159 33.0865 79.7135C32.9417 79.711 32.797 79.7083 32.6522 79.7057C32.423 79.7019 32.1938 79.6986 31.9645 79.6962C31.744 79.6936 31.5235 79.6895 31.303 79.685C31.1998 79.6846 31.1998 79.6846 31.0945 79.6841C30.9013 79.6796 30.9013 79.6796 30.5881 79.6416C30.2917 79.1986 30.3714 78.7097 30.3709 78.189C30.3686 78.0802 30.3664 77.9715 30.3641 77.8594C30.3637 77.7549 30.3634 77.6504 30.363 77.5427C30.3623 77.4471 30.3615 77.3515 30.3607 77.253C30.4179 76.9253 30.5091 76.8367 30.771 76.6338C31.0521 76.5875 31.0521 76.5875 31.3861 76.5866C31.4471 76.586 31.5081 76.5853 31.571 76.5847C31.7721 76.5831 31.9732 76.5841 32.1744 76.5854C32.3145 76.5851 32.4546 76.5848 32.5947 76.5843C32.8881 76.5838 33.1814 76.5845 33.4748 76.5863C33.8507 76.5883 34.2264 76.5871 34.6023 76.5849C34.8915 76.5836 35.1807 76.5841 35.4699 76.585C35.6085 76.5852 35.7471 76.5849 35.8856 76.5841C36.0794 76.5832 36.2731 76.5846 36.4668 76.5866C36.6321 76.587 36.6321 76.587 36.8008 76.5875C37.138 76.643 37.2473 76.7264 37.4477 76.9984C37.478 77.2464 37.4867 77.4539 37.4763 77.7005C37.4746 77.7693 37.473 77.8382 37.4712 77.9091C37.4672 78.0553 37.4622 78.2015 37.4563 78.3477C37.4479 78.5661 37.4431 78.7843 37.4388 79.0029C37.3914 80.7216 37.0166 82.1188 35.8243 83.4128C35.0703 84.109 34.1168 84.5992 33.149 84.9281C33.0803 84.9517 33.0116 84.9754 32.9408 84.9998C32.2683 85.2091 31.6282 85.2467 30.926 85.2421C30.7436 85.2414 30.5613 85.2441 30.3789 85.2469C28.4002 85.2459 26.6969 84.3831 25.2719 83.0482C23.8754 81.6079 23.2125 79.8296 23.2254 77.8472C23.2255 77.7826 23.2257 77.7181 23.2258 77.6516C23.2307 76.6682 23.3012 75.8033 23.7284 74.902C23.7682 74.8139 23.8079 74.7258 23.8488 74.635C24.7705 72.7876 26.3679 71.4348 28.3055 70.7324C30.8587 69.8822 33.651 70.3869 35.7464 72.0551Z" fill="#E4E4E4"/>
<path d="M63.9717 71.712C64.7757 72.4533 65.3593 73.3575 65.4519 74.4648C65.4579 74.6628 65.4579 74.6628 65.4351 74.9932C65.2057 75.2218 65.0636 75.1989 64.7504 75.2032C64.6822 75.2031 64.6139 75.203 64.5437 75.2029C64.4735 75.2033 64.4034 75.2037 64.3311 75.2041C64.1826 75.2046 64.0342 75.2047 63.8857 75.2043C63.6585 75.204 63.4313 75.2061 63.2041 75.2084C63.0599 75.2086 62.9158 75.2087 62.7716 75.2086C62.7036 75.2094 62.6355 75.2103 62.5654 75.2111C62.0959 75.2069 62.0959 75.2069 61.8762 75.0531C61.7766 74.9021 61.7766 74.9021 61.6565 74.64C61.3997 74.166 61.0646 73.9228 60.5704 73.7342C59.8039 73.5099 58.9321 73.5394 58.2096 73.8995C58.0085 74.1205 57.9406 74.2356 57.8837 74.5318C57.954 74.9129 58.1783 75.0564 58.484 75.2666C58.7553 75.4047 58.7553 75.4047 59.0556 75.5116C59.1123 75.5333 59.169 75.5551 59.2274 75.5775C59.4364 75.6574 59.6461 75.7355 59.8559 75.8135C63.1434 77.0377 63.1434 77.0377 64.2461 78.001C64.311 78.0572 64.376 78.1133 64.4429 78.1712C65.1445 78.8196 65.6005 79.6829 65.6455 80.6489C65.6473 80.7783 65.6476 80.9078 65.6466 81.0373C65.6461 81.1055 65.6455 81.1736 65.645 81.2438C65.62 82.3839 65.1955 83.1968 64.3775 83.9882C63.8696 84.4237 63.3192 84.7019 62.6912 84.9281C62.6253 84.9526 62.5594 84.977 62.4915 85.0023C61.7237 85.2518 60.9597 85.2462 60.1606 85.2422C59.9262 85.2414 59.6919 85.244 59.4575 85.2469C57.7008 85.2545 56.1457 84.8365 54.8398 83.5901C54.1591 82.8601 53.7936 82.086 53.783 81.0861C53.8194 80.9177 53.8194 80.9177 54.0938 80.7354C54.3209 80.7143 54.5375 80.7033 54.7647 80.7016C54.8303 80.7007 54.8958 80.6999 54.9633 80.6991C55.1018 80.6977 55.2404 80.6969 55.3789 80.6966C55.5901 80.6955 55.8011 80.691 56.0123 80.6864C56.1472 80.6856 56.282 80.6849 56.4168 80.6845C56.4796 80.6827 56.5424 80.6809 56.6071 80.6791C56.9588 80.6824 57.1002 80.7256 57.3748 80.9518C57.5693 81.1911 57.5693 81.1911 57.718 81.4247C58.2288 81.9472 58.8972 82.0313 59.6015 82.0494C59.7161 82.0504 59.7161 82.0504 59.833 82.0513C59.9065 82.0522 59.9801 82.0531 60.0558 82.0541C60.6175 82.0459 61.0217 81.9233 61.5022 81.6241C61.6197 81.4498 61.6197 81.4498 61.5937 81.1512C61.4803 80.7487 61.4027 80.6759 61.0449 80.462C60.3578 80.1248 59.653 79.8617 58.9298 79.6132C57.5852 79.1389 56.2972 78.6494 55.1913 77.7276C55.1306 77.6783 55.0699 77.6291 55.0073 77.5784C54.3295 76.9732 53.9497 76.1134 53.8891 75.2182C53.8649 73.9287 54.0982 72.8697 55.0084 71.8942C57.377 69.8021 61.4899 69.78 63.9717 71.712Z" fill="#E4E4E4"/>
<path d="M77.1761 71.7931C77.9318 72.4788 78.3997 73.2492 78.4813 74.2676C78.5253 75.3053 78.5286 76.2364 77.8739 77.0895C77.8237 77.1574 77.7734 77.2254 77.7217 77.2953C77.5766 77.4769 77.5766 77.4769 77.3251 77.7276C77.2648 77.7276 77.2044 77.7276 77.1422 77.7276C77.1831 77.7717 77.224 77.8159 77.2662 77.8614C78.1013 78.7841 78.4561 79.4981 78.4627 80.7468C78.4672 80.8941 78.4672 80.8941 78.4718 81.0444C78.478 81.9857 78.1566 82.8626 77.508 83.5609C76.1032 84.8782 74.4079 85.2748 72.5405 85.2528C72.4704 85.2524 72.4004 85.2521 72.3282 85.2517C71.253 85.244 70.2783 85.1641 69.2765 84.7458C69.1724 84.703 69.0683 84.6603 68.961 84.6162C67.8315 84.1012 67.0351 83.2861 66.5841 82.1253C66.3691 81.4679 66.3691 81.4679 66.4412 81.1C66.5819 80.9063 66.5819 80.9063 66.807 80.7354C67.0594 80.698 67.2747 80.682 67.5269 80.6837C67.5964 80.6832 67.6658 80.6826 67.7374 80.682C67.884 80.6814 68.0306 80.6817 68.1772 80.6828C68.4009 80.6841 68.6242 80.681 68.8479 80.6775C68.9907 80.6774 69.1334 80.6776 69.2761 80.678C69.3426 80.6768 69.4091 80.6756 69.4777 80.6744C69.8369 80.6809 69.9915 80.7217 70.2722 80.9522C70.3966 81.106 70.5168 81.2634 70.6313 81.4247C71.0096 81.8448 71.552 82.0646 72.1125 82.1211C72.802 82.1363 73.577 82.0017 74.124 81.5557C74.4021 81.1447 74.4836 80.7634 74.3983 80.2796C74.2243 79.9121 74.0919 79.7658 73.7352 79.5676C72.9278 79.3127 72.0737 79.343 71.2341 79.329C71.1393 79.3262 71.0444 79.3234 70.9467 79.3205C70.8609 79.3187 70.775 79.3169 70.6865 79.315C70.4655 79.277 70.4655 79.277 70.3005 79.1711C70.1448 78.9328 70.1556 78.7511 70.1546 78.4681C70.1543 78.3633 70.1539 78.2585 70.1536 78.1505C70.1546 78.041 70.1557 77.9315 70.1568 77.8187C70.1557 77.7092 70.1547 77.5997 70.1536 77.4869C70.1539 77.3821 70.1543 77.2773 70.1546 77.1693C70.155 77.0732 70.1553 76.9771 70.1556 76.8781C70.1911 76.6338 70.1911 76.6338 70.2955 76.4661C70.5414 76.3131 70.7382 76.3236 71.0268 76.3201C71.1938 76.3165 71.1938 76.3165 71.3642 76.3128C71.4807 76.3116 71.5973 76.3104 71.7174 76.3091C73.1369 76.3256 73.1369 76.3256 74.3069 75.6312C74.476 75.2942 74.4287 74.906 74.3983 74.5375C74.2712 74.1731 74.0949 74.0499 73.7638 73.8766C73.0985 73.565 72.3217 73.5042 71.6066 73.684C71.4367 73.7486 71.2707 73.8233 71.1057 73.8994C71.0152 73.9295 70.9246 73.9596 70.8313 73.9906C70.732 74.1576 70.732 74.1576 70.6484 74.3552C70.5718 74.4833 70.4937 74.6106 70.414 74.7368C70.3743 74.8002 70.3346 74.8635 70.2936 74.9287C70.1911 75.0843 70.1911 75.0843 70.0996 75.1755C69.8523 75.1881 69.6075 75.1949 69.3601 75.1972C69.2857 75.1979 69.2114 75.1987 69.1348 75.1994C68.9772 75.2007 68.8196 75.2017 68.662 75.2024C68.4206 75.2039 68.1794 75.2079 67.9381 75.212C67.7852 75.2129 67.6323 75.2137 67.4794 75.2143C67.4071 75.2159 67.3347 75.2175 67.2602 75.2191C66.7612 75.2171 66.7612 75.2171 66.5327 75.0086C66.3025 74.5116 66.459 73.9899 66.6205 73.4935C66.7809 73.1017 67.007 72.7758 67.2643 72.4411C67.3349 72.3466 67.3349 72.3466 67.4069 72.2503C69.5507 69.5861 74.6944 69.8211 77.1761 71.7931Z" fill="#E4E4E4"/>
<path d="M53.74 25.5381C54.3051 25.9786 54.5712 26.4836 54.6768 27.1883C54.71 27.847 54.5505 28.4674 54.112 28.9717C53.5014 29.5341 52.9191 29.7557 52.0873 29.7308C51.355 29.634 50.8256 29.2569 50.3749 28.6873C49.996 28.1357 50.0041 27.516 50.0694 26.8683C50.2305 26.2101 50.6111 25.7843 51.167 25.4099C51.9959 24.9438 52.9587 25.0247 53.74 25.5381Z" fill="#E4E4E4"/>
</g>
<defs>
<clipPath id="clip0_2336_9512">
<rect width="55.1515" height="70" fill="white" transform="translate(23.2711 15.2015)"/>
</clipPath>
</defs>
</svg>
