<svg width="101" height="101" viewBox="0 0 101 101" fill="none" xmlns="http://www.w3.org/2000/svg">
<g clip-path="url(#clip0_2336_9463)">
<g clip-path="url(#clip1_2336_9463)">
<path fill-rule="evenodd" clip-rule="evenodd" d="M49.912 58.3163H50.5243L53.6777 62.6864V58.3163H54.2241V63.6185H53.7106L50.4519 59.1096V63.6185H49.912V58.3163ZM55.5737 58.3163H59.0628V58.8518H56.1267V60.6104H58.9904V61.1393H56.1267V63.1095H59.0891V63.6252H55.5737V58.3163ZM59.9121 58.8584V58.3295H64.4479V58.8584H62.4598V63.6318H61.887V58.8584H59.9121ZM65.126 58.3163H65.7119L67.101 62.6996L68.523 58.3163H69.0101L70.4255 62.6996L71.8278 58.3163H72.3742L70.6757 63.6648H70.1754L68.7402 59.2353L67.3248 63.6648H66.8377L65.126 58.3163ZM72.8745 60.9674C72.8745 59.0832 73.8357 58.2303 75.5276 58.2303C77.2261 58.2303 78.2004 59.0832 78.2004 60.9674C78.2004 62.8649 77.2261 63.7045 75.5276 63.7045C73.8357 63.7177 72.8745 62.8649 72.8745 60.9674ZM77.6277 60.9806C77.6277 59.5394 76.9627 58.7725 75.5276 58.7725C74.099 58.7725 73.4407 59.5394 73.4407 60.9806C73.4407 62.4153 74.099 63.202 75.5276 63.202C76.9627 63.1888 77.6277 62.4153 77.6277 60.9806ZM81.4657 61.4567H79.8857V63.6185H79.3261V58.3163H81.6039C82.8284 58.3163 83.388 58.8055 83.388 59.8633C83.388 60.7823 82.9535 61.3178 82.0385 61.4434L83.3156 63.6185H82.7165L81.4657 61.4567ZM81.6369 60.941C82.3874 60.941 82.8482 60.7162 82.8482 59.8766C82.8482 59.0568 82.4005 58.8452 81.6105 58.8452H79.8857V60.9542H81.6369V60.941ZM86.2122 60.8154L85.1523 61.9723V63.6384H84.6125V58.3295H85.1523V61.2649L87.8251 58.3295H88.4769L86.5875 60.3988L88.7402 63.6252H88.1017L86.2122 60.8154ZM89.2011 63.0896L89.4973 62.6533C90.1359 63.0566 90.7481 63.1822 91.3867 63.1822C92.4861 63.1822 92.9601 62.8781 92.9601 62.1508C92.9601 61.3972 92.3347 61.2848 91.3867 61.1195C90.2478 60.9211 89.4841 60.7294 89.4841 59.6518C89.4841 58.6336 90.1359 58.2303 91.3867 58.2303C92.2228 58.2303 92.8087 58.4089 93.2234 58.7064L92.9206 59.1625C92.5388 58.9113 91.9726 58.746 91.3735 58.746C90.4255 58.746 90.024 59.0105 90.024 59.6385C90.024 60.3063 90.5835 60.4319 91.5118 60.617C92.6704 60.8286 93.4999 60.9939 93.4999 62.1376C93.4999 63.1822 92.835 63.7045 91.3867 63.7045C90.5967 63.6913 89.8857 63.5326 89.2011 63.0896Z" fill="#E4E4E4"/>
<path fill-rule="evenodd" clip-rule="evenodd" d="M100.801 36.4528V38.1321C100.274 38.0593 99.6882 38.0329 99.0365 38.0329C92.9008 38.0329 93.0391 40.8824 93.0391 44.4392V56.0156H91.2879V44.4392C91.2879 39.7188 91.6105 36.3867 99.0365 36.3867C99.675 36.3867 100.261 36.4131 100.801 36.4528ZM46.6599 44.3004V56.0156H44.8627V44.2739C44.8627 40.8956 44.9022 38.0461 38.727 38.0461C32.598 38.0461 32.7363 40.8956 32.7363 44.4525V56.0288H30.9851V44.4392C30.9851 39.7188 31.3011 36.3867 38.727 36.3867C46.1991 36.3867 46.6599 39.732 46.6599 44.3004ZM49.912 36.8032H51.6237V56.0156H49.912V36.8032ZM54.8363 36.8032H63.7896C68.2399 36.8032 70.2478 39.018 70.2478 42.9583C70.2478 46.9251 68.253 49.3382 63.7633 49.3382H56.548V56.009H54.8363V36.8032ZM63.8225 47.6259C66.9232 47.6259 68.4506 46.1185 68.4506 43.0443C68.4506 39.9898 66.7981 38.5354 63.7369 38.5354H56.548V47.6259H63.8225ZM72.2491 46.3433C72.2491 40.6708 73.862 36.314 81.0773 36.314C88.5493 36.314 88.7995 41.3452 88.76 46.6606H73.9739C74.0134 51.3348 75.1721 54.8256 81.2353 54.8256C84.4611 54.8256 85.9357 53.9463 87.5026 52.7893L88.4901 54.0851C86.7389 55.3875 84.6652 56.4057 81.2353 56.4057C73.6513 56.4057 72.2491 52.0091 72.2491 46.3433ZM74.0134 45.0409H87.0615C86.8771 41.1997 86.6401 37.9337 81.0641 37.9337C75.6987 37.9337 74.2241 40.8559 74.0134 45.0409Z" fill="#E4E4E4"/>
<path d="M12.3479 48.4853V36.7767H14.1385V48.5316C14.1385 51.91 14.1122 54.7594 20.2741 54.7594C26.4032 54.7594 26.2649 51.91 26.2649 48.3465V36.7767H28.0227V48.3465C28.0227 53.0669 27.7001 56.4056 20.2741 56.4056C12.8021 56.4056 12.3479 53.0669 12.3479 48.4853ZM0.91272 60.1873V58.5279C1.12338 58.5411 1.34063 58.5411 1.57763 58.5411C7.71325 58.5411 7.575 55.6916 7.575 52.1347V36.7767H9.32615V52.1347C9.32615 56.8486 9.01015 60.1873 1.57763 60.1873C1.34063 60.1873 1.13655 60.1873 0.91272 60.1873Z" fill="#E4E4E4"/>
<path fill-rule="evenodd" clip-rule="evenodd" d="M96.8772 56.1081C96.2122 56.1081 95.6724 55.566 95.6724 54.8982C95.6724 54.2239 96.2122 53.6818 96.8772 53.6818C97.5487 53.6818 98.0885 54.2239 98.0885 54.8982C98.0885 55.566 97.5487 56.1081 96.8772 56.1081ZM97.9371 54.8982C97.9371 54.3098 97.4631 53.8338 96.8772 53.8338C96.2978 53.8338 95.8238 54.3098 95.8238 54.8982C95.8238 55.48 96.2978 55.956 96.8772 55.956C97.4631 55.956 97.9371 55.48 97.9371 54.8982ZM96.9627 55.0503H96.5743V55.5792H96.39V54.1842H97.0022C97.3512 54.1842 97.4894 54.3231 97.4894 54.6007C97.4894 54.8255 97.3907 54.9776 97.1602 55.0239L97.4762 55.566H97.2853L96.9627 55.0503ZM97.0022 54.885C97.1997 54.885 97.2919 54.8255 97.2919 54.6206C97.2919 54.4222 97.18 54.3693 96.9891 54.3693H96.5546V54.8718H97.0022V54.885Z" fill="#E4E4E4"/>
</g>
</g>
<defs>
<clipPath id="clip0_2336_9463">
<rect width="100" height="100" fill="white" transform="translate(0.846863 0.0323486)"/>
</clipPath>
<clipPath id="clip1_2336_9463">
<rect width="100" height="27.4368" fill="white" transform="translate(0.846863 36.314)"/>
</clipPath>
</defs>
</svg>
