<svg width="101" height="101" viewBox="0 0 101 101" fill="none" xmlns="http://www.w3.org/2000/svg">
<g clip-path="url(#clip0_2336_9482)">
<g clip-path="url(#clip1_2336_9482)">
<path d="M0.846863 55.5412V40.746H4.50303V52.4326H10.2206V55.5412H0.846863Z" fill="#E4E4E4"/>
<path d="M28.8127 43.4807V47.4747H32.1577C33.4607 47.4747 34.1219 46.8057 34.1219 45.4875C34.1219 44.1497 33.4801 43.5004 32.1577 43.5004H28.8127V43.4807ZM25.1565 55.5412V40.746H32.4688C36.0083 40.746 37.778 42.3593 37.778 45.6056C37.778 46.5696 37.5058 47.396 36.9612 48.1042C36.4167 48.8125 35.6777 49.3241 34.7636 49.5995L38.1087 55.5412H34.0246L31.1464 50.2094H28.8127V55.5412H25.1565Z" fill="#E4E4E4"/>
<path d="M46.0433 50.9374V50.1701L43.8846 50.7997C42.8539 51.0948 42.3482 51.567 42.3482 52.2359C42.3482 53.0623 42.8539 53.4754 43.8457 53.4754C44.5069 53.4754 45.032 53.259 45.4404 52.8262C45.8294 52.3737 46.0433 51.7441 46.0433 50.9374ZM49.116 47.396V53.2393C49.116 54.2821 49.2133 55.0494 49.4078 55.5413H46.4517C46.335 55.1871 46.2767 54.8133 46.2572 54.4001H46.2183C45.9655 54.8133 45.4793 55.1674 44.7987 55.4429C44.1763 55.6986 43.554 55.8364 42.9317 55.8364C41.8426 55.8364 40.9869 55.5609 40.3257 54.9904C39.6256 54.4001 39.2755 53.5738 39.2755 52.5507C39.2755 51.2916 39.7812 50.3275 40.773 49.6783C41.6287 49.1274 42.99 48.7142 44.8764 48.4584L46.0433 48.301V47.3763C46.0433 46.5894 45.5377 46.1959 44.5264 46.1959C44.0013 46.1959 43.6123 46.3139 43.3595 46.5303C43.1067 46.7468 42.9317 47.1402 42.8539 47.6715H39.7423C39.8006 45.3499 41.3175 44.2087 44.2541 44.2087C45.8488 44.2087 47.0351 44.4252 47.813 44.8777C48.6882 45.3695 49.116 46.2155 49.116 47.396Z" fill="#E4E4E4"/>
<path d="M17.1829 46.6681C16.3078 46.6681 15.6465 46.9829 15.1992 47.6321C14.7908 48.2224 14.5769 49.0093 14.5769 50.0127C14.5769 51.0161 14.7908 51.8031 15.1992 52.3934C15.6465 53.0426 16.3078 53.3574 17.1829 53.3574C18.9332 53.3574 19.7889 52.1966 19.7889 49.875C19.7889 48.9306 19.575 48.1633 19.1666 47.5928C18.7193 46.9829 18.058 46.6681 17.1829 46.6681ZM17.1829 44.1891C18.9332 44.1891 20.3334 44.7006 21.403 45.7237C22.4727 46.7468 22.9978 48.183 22.9978 50.0127C22.9978 51.8425 22.4727 53.2787 21.403 54.3018C20.3334 55.3249 18.9332 55.8364 17.1829 55.8364C15.4326 55.8364 14.0324 55.3249 12.9628 54.3018C11.8931 53.2787 11.368 51.8425 11.368 50.0127C11.368 48.183 11.8931 46.7468 12.9628 45.7237C14.0518 44.7006 15.4521 44.1891 17.1829 44.1891Z" fill="#E4E4E4"/>
<path d="M17.0857 41.9856C18.6804 41.9856 20.1779 42.4577 21.4225 43.2841L22.0449 42.3791C20.6057 41.4347 18.9138 40.8838 17.0857 40.8838C15.3354 40.8838 13.7018 41.3953 12.3016 42.261L12.9239 43.166C14.1491 42.3987 15.5688 41.9856 17.0857 41.9856Z" fill="#E4E4E4"/>
<path d="M10.3568 39.4278L11.1931 40.628C12.9045 39.5262 14.927 38.8966 17.0857 38.8966C19.3416 38.8966 21.4225 39.5852 23.1728 40.746L24.0091 39.5459C22.0254 38.208 19.6334 37.421 17.0857 37.421C14.6159 37.421 12.3016 38.1687 10.3568 39.4278Z" fill="#E4E4E4"/>
<path d="M17.0857 35.7487C20.0029 35.7487 22.7061 36.634 24.9815 38.1687L26.0316 36.6537C23.484 34.9027 20.3918 33.8993 17.0857 33.8993C13.8768 33.8993 10.8625 34.8633 8.3537 36.516L9.40387 38.0309C11.6209 36.5947 14.2463 35.7487 17.0857 35.7487Z" fill="#E4E4E4"/>
<path d="M17.2996 58.0793C15.7049 58.0793 14.2074 57.6071 12.9628 56.7808L12.3405 57.6858C13.7796 58.6302 15.4715 59.1811 17.3191 59.1811C19.0694 59.1811 20.703 58.6695 22.1032 57.8038L21.4809 56.8988C20.2362 57.6661 18.8165 58.0793 17.2996 58.0793Z" fill="#E4E4E4"/>
<path d="M24.0285 60.6369L23.1922 59.4368C21.4808 60.5385 19.4583 61.1681 17.2996 61.1681C15.0437 61.1681 12.9628 60.4795 11.2125 59.3187L10.3762 60.5189C12.3599 61.8567 14.7325 62.6437 17.2996 62.6437C19.7695 62.6437 22.0837 61.8961 24.0285 60.6369Z" fill="#E4E4E4"/>
<path d="M17.2996 64.3161C14.3825 64.3161 11.6793 63.4307 9.40387 61.8961L8.3537 63.4111C10.9013 65.1424 13.9935 66.1655 17.2996 66.1655C20.5085 66.1655 23.5229 65.2014 26.0316 63.5488L24.9815 62.0338C22.7644 63.4701 20.1195 64.3161 17.2996 64.3161Z" fill="#E4E4E4"/>
<path fill-rule="evenodd" clip-rule="evenodd" d="M51.3525 40.6674H54.9114V48.9897L60.5901 40.6674C60.5901 40.6674 62.4766 40.6674 63.4295 40.6674C63.4295 43.4218 63.4295 48.9897 63.4295 48.9897L69.1082 40.6674H73.3673L63.4295 55.4429H59.8706V48.2617L54.9114 55.4429H51.3719V40.6674H51.3525Z" fill="#E4E4E4"/>
<path fill-rule="evenodd" clip-rule="evenodd" d="M94.9348 40.6674V55.4429H91.1425L86.0277 47.6912V55.4429H82.5272V40.6674H86.1639L91.3953 48.7929V40.6674H94.9348Z" fill="#E4E4E4"/>
<path fill-rule="evenodd" clip-rule="evenodd" d="M79.9406 40.6674V55.4429H76.4789V53.3181H71.6753L70.2167 55.4626H66.1522L76.3428 40.687H79.9406V40.6674ZM73.7368 50.2685H76.4789V46.1959L73.7368 50.2685Z" fill="#E4E4E4"/>
<path d="M100.847 42.8315C100.847 43.953 99.9717 44.8383 98.8437 44.8383C97.7157 44.8383 96.8406 43.953 96.8406 42.8315C96.8406 41.7298 97.7352 40.8641 98.8437 40.8641C99.9717 40.8444 100.847 41.7298 100.847 42.8315ZM97.3268 42.8315C97.3268 43.7169 97.9685 44.4055 98.8437 44.4055C99.6994 44.4055 100.341 43.6972 100.341 42.8315C100.341 41.9462 99.7188 41.2379 98.8437 41.2379C97.9685 41.2379 97.3268 41.9462 97.3268 42.8315ZM98.5325 43.8546H98.0852V41.8872C98.2603 41.8478 98.5131 41.8281 98.8437 41.8281C99.2132 41.8281 99.3882 41.8872 99.5244 41.9659C99.641 42.0446 99.7188 42.202 99.7188 42.3987C99.7188 42.6151 99.5438 42.7922 99.3104 42.8512V42.8709C99.5049 42.9496 99.6021 43.0873 99.6605 43.3431C99.7188 43.6382 99.7577 43.7562 99.7966 43.8349H99.3104C99.2521 43.7562 99.2132 43.5792 99.1548 43.3628C99.116 43.1463 98.9993 43.048 98.7464 43.048H98.5325V43.8546ZM98.552 42.7332H98.7659C99.0187 42.7332 99.2132 42.6545 99.2132 42.4381C99.2132 42.261 99.0771 42.1429 98.8048 42.1429C98.6881 42.1429 98.6103 42.1626 98.552 42.1626V42.7332Z" fill="#E4E4E4"/>
</g>
</g>
<defs>
<clipPath id="clip0_2336_9482">
<rect width="100" height="100" fill="white" transform="translate(0.846863 0.0323486)"/>
</clipPath>
<clipPath id="clip1_2336_9482">
<rect width="100" height="32.6203" fill="white" transform="translate(0.846863 33.7222)"/>
</clipPath>
</defs>
</svg>
