<svg width="101" height="101" viewBox="0 0 101 101" fill="none" xmlns="http://www.w3.org/2000/svg">
<g clip-path="url(#clip0_2336_9478)">
<path d="M3.46225 61.3913C2.58579 61.4042 1.7151 61.2474 0.898145 60.9297V59.5964C1.73117 59.862 2.59116 60.034 3.46225 60.1092C4.28276 60.1092 5.15455 59.9554 5.15455 58.9297C5.15455 58.1605 4.59045 57.9554 3.8725 57.7503L3.15456 57.5964C2.28276 57.34 0.846863 56.981 0.846863 55.2374C0.846863 53.2887 2.43661 52.8272 4.07763 52.8272C4.87248 52.797 5.66321 52.9552 6.38532 53.2887V54.5708C5.64084 54.2449 4.83892 54.0706 4.02635 54.0579C3.00071 54.0579 2.33404 54.2631 2.33404 55.1349C2.33404 55.9041 2.94943 56.1092 3.66738 56.2631L4.43661 56.5195C5.41096 56.7759 6.59045 57.34 6.59045 58.8785C6.64173 60.8272 5.20584 61.3913 3.46225 61.3913ZM12.1802 61.3913C13.7187 61.3913 16.0263 60.9297 16.0263 57.0836C16.0263 53.2887 13.6674 52.7759 12.1802 52.7759C10.5905 52.7759 8.33404 53.3913 8.33404 57.0836C8.33404 60.8785 10.5392 61.3913 12.1802 61.3913ZM12.1802 53.9554C13.052 53.9554 14.4879 54.1605 14.4879 57.0836C14.4879 59.9041 12.9494 60.2118 12.1802 60.2118C11.5648 60.2118 9.8725 60.0067 9.8725 57.0836C9.8725 54.2118 11.3084 53.9554 12.1802 53.9554ZM18.0264 61.2374H19.5648V50.2118H18.0264V61.2374ZM28.6417 61.2374V55.6477C28.6417 53.4938 27.411 52.8272 25.5648 52.8272C24.4979 52.8393 23.4406 53.03 22.4366 53.3913V54.6733C23.3625 54.351 24.3293 54.1611 25.3084 54.1092C26.3853 54.1092 27.0007 54.3656 27.0007 55.4426V56.1605H25.1546C23.8212 56.1605 21.6674 56.622 21.6674 58.8785C21.6674 60.981 23.052 61.4426 24.334 61.4426C25.3739 61.438 26.3626 60.9903 27.052 60.2118L27.2058 61.2887L28.6417 61.2374ZM27.1033 59.0836C27.1033 59.0836 25.9751 60.1605 24.8469 60.1605C24.0263 60.1605 23.3597 59.8528 23.3597 58.7759C23.3597 57.4426 24.1802 57.0836 25.6161 57.0323H27.1033V59.0836ZM34.2828 54.2118C34.7234 54.2055 35.1604 54.2929 35.5648 54.4682V53.0323C35.2135 52.8655 34.8242 52.7947 34.4366 52.8272C33.5917 52.8349 32.8294 53.3363 32.4879 54.1092L32.2828 52.981H31.1033V61.2374H32.6417V55.1862C32.6417 55.1862 33.3597 54.2118 34.2828 54.2118ZM50.0776 52.9297H48.334L47.3597 57.699C47.1033 58.9297 46.8469 60.5195 46.8469 60.5195C46.8469 60.5195 46.4879 58.7759 46.1802 57.699L44.7443 52.9297H42.4879L41.052 57.699C40.7443 58.7759 40.3853 60.5195 40.3853 60.5195C40.3853 60.5195 40.1289 58.8272 39.8725 57.699L38.8469 52.9297H37.052L39.3084 61.2374H41.4622L42.7443 56.8272C43.052 55.699 43.6161 53.7503 43.6161 53.7503C43.6161 53.7503 44.1289 55.699 44.4366 56.8785L45.7187 61.2887H47.8725L50.0776 52.9297ZM52.0263 61.2374H53.5648V52.8785H52.0263V61.2374ZM63.3597 61.2374V55.5964C63.3597 53.4938 62.1802 52.8272 60.693 52.8272C59.5284 52.9004 58.4241 53.371 57.5648 54.1605L57.2571 52.981H56.0776V61.2374H57.6161V55.1862C58.4069 54.5942 59.3493 54.2386 60.334 54.1605C61.411 54.1605 61.8212 54.5708 61.8212 55.5964V61.2374H63.3597ZM72.693 61.2374V50.2118H71.1545V53.5964C70.562 53.0339 69.7655 52.7376 68.9494 52.7759C67.8212 52.7759 65.2058 53.2887 65.2058 57.0836C65.2058 60.7759 67.3597 61.3913 68.6417 61.3913C69.6627 61.4186 70.6418 60.9855 71.3084 60.2118L71.4622 61.2374H72.693ZM71.1545 59.1862C70.5403 59.7348 69.7686 60.0757 68.9494 60.1605C67.9751 60.1605 66.7443 59.8528 66.7443 57.0836C66.7443 54.4682 67.9238 54.0579 69.1033 54.0579C69.8608 54.0883 70.585 54.378 71.1545 54.8785V59.1862ZM77.5135 61.3913C79.2571 61.3913 80.6417 60.8785 80.6417 58.8785C80.6417 57.34 79.411 56.7759 78.4879 56.5195L77.6674 56.3144C76.9494 56.1092 76.334 55.9554 76.334 55.1862C76.334 54.3144 77.0007 54.1092 78.0263 54.1092C78.8389 54.1219 79.6408 54.2962 80.3853 54.622V53.34C79.6632 53.0065 78.8725 52.8483 78.0776 52.8785C76.4366 52.8785 74.8469 53.34 74.8469 55.2887C74.8469 57.0323 76.2828 57.3913 77.1545 57.6477L77.8212 57.8528C78.5392 58.0579 79.1033 58.2118 79.1033 59.0323C79.1033 60.0579 78.2828 60.2118 77.411 60.2118C76.5399 60.1365 75.6799 59.9645 74.8469 59.699V61.0323C74.8981 60.9297 75.9751 61.3913 77.5135 61.3913Z" fill="#E4E4E4"/>
<path d="M87.9238 47.9041C86.7956 48.2118 85.6674 48.4682 84.5392 48.8272C82.2147 46.7332 79.2903 45.4235 76.1802 45.0836C80.7854 41.7766 86.3055 39.9843 91.9751 39.9554L90.0263 41.7503C90.0263 41.7503 98.2827 41.4426 100.334 38.6221C100.272 38.9191 100.187 39.2107 100.078 39.4939C99.49 41.1693 98.4412 42.6447 97.052 43.7503C95.7547 44.765 94.3221 45.5935 92.7956 46.2118C91.2774 46.8742 89.7187 47.4395 88.1289 47.9041C88.0776 47.8528 87.975 47.9041 87.9238 47.9041ZM100.847 47.6477C95.6111 47.4104 90.3734 48.0695 85.3597 49.5964C86.4191 50.7021 87.3013 51.9649 87.975 53.34C92.1289 51.0323 97.8725 48.058 100.847 47.6477ZM88.4879 54.5195C88.9813 55.7853 89.2921 57.1149 89.4109 58.4682L96.6417 51.0323L88.4879 54.5195Z" fill="#E4E4E4"/>
</g>
<defs>
<clipPath id="clip0_2336_9478">
<rect width="100" height="100" fill="white" transform="translate(0.846863 0.0323486)"/>
</clipPath>
</defs>
</svg>
