<svg width="101" height="101" viewBox="0 0 101 101" fill="none" xmlns="http://www.w3.org/2000/svg">
<g clip-path="url(#clip0_2336_9506)">
<g clip-path="url(#clip1_2336_9506)">
<path d="M50.1547 36.6715C50.9631 36.5144 51.7858 36.4184 52.6098 36.4149C52.8915 36.4129 53.1407 36.6625 53.1412 36.9433C53.1494 37.1407 53.0219 37.3029 52.9272 37.4641C52.0091 38.9702 51.592 40.7428 51.5611 42.4954C51.5232 44.1462 51.8013 45.7919 52.2776 47.3693C52.4223 47.8285 52.5673 48.2886 52.759 48.7306C68.7868 48.7301 84.8143 48.7311 100.842 48.7306C100.843 49.0943 100.842 49.4579 100.843 49.8216H52.4525C52.2024 49.8418 51.96 49.6847 51.8751 49.4499C51.1769 47.8092 50.73 46.0625 50.5469 44.2892C50.3068 42.0051 50.5888 39.6209 51.6315 37.553C49.8958 37.7055 48.1838 38.2677 46.7499 39.2684C45.3307 40.2518 44.1972 41.6126 43.377 43.1239C42.8158 44.128 42.382 45.1999 42.0524 46.3011C41.7556 47.288 41.5311 48.2988 41.4153 49.3237C41.3895 49.5615 41.1897 49.7681 40.9511 49.7959C40.809 49.812 40.6654 49.8035 40.5234 49.8049C27.3496 49.8044 14.1762 49.8049 1.00247 49.8044C1.00196 49.4413 1.00247 49.0776 1.00196 48.714C14.1323 48.7128 27.2626 48.715 40.3929 48.7128C40.6983 46.6828 41.3242 44.6987 42.2697 42.8748C43.0761 41.3428 44.147 39.9285 45.5055 38.843C46.8451 37.7504 48.463 37.0149 50.1547 36.6715ZM43.3074 51.9506C44.0643 51.4535 44.989 51.2914 45.8813 51.2904C46.7601 51.2898 47.6706 51.4176 48.4412 51.8656C49.1176 52.2601 49.6263 52.9143 49.8831 53.6497C50.0379 54.0852 50.107 54.5462 50.1237 55.0064C49.381 55.0429 48.6388 55.0791 47.8966 55.115C47.8157 54.6276 47.6701 54.1124 47.2939 53.7674C46.9274 53.438 46.4132 53.3502 45.9363 53.3415C45.37 53.3325 44.7619 53.434 44.3189 53.8128C43.9726 54.0992 43.9049 54.6382 44.1177 55.0235C44.2689 55.3063 44.5587 55.474 44.8418 55.6024C45.6957 55.9852 46.626 56.1408 47.5068 56.4469C48.0751 56.6439 48.6499 56.8626 49.1313 57.2319C49.7263 57.686 50.1521 58.3528 50.3179 59.0821C50.5267 60.008 50.4812 61.0136 50.0646 61.8779C49.7572 62.5523 49.2319 63.1301 48.568 63.4675C47.791 63.8691 46.9001 63.9841 46.035 63.9883C45.138 63.9894 44.2113 63.8448 43.4291 63.3827C42.7446 62.9825 42.2298 62.334 41.9214 61.6107C41.6702 61.0303 41.5368 60.4049 41.4689 59.7782C42.1909 59.6999 42.9129 59.6221 43.6354 59.5438C43.7462 60.1868 43.9469 60.8576 44.4292 61.3233C44.8266 61.7108 45.3894 61.8809 45.9349 61.8926C46.4466 61.9047 46.9846 61.842 47.4283 61.5682C47.897 61.2728 48.2333 60.7394 48.2096 60.1747C48.2141 59.8085 48.0432 59.4408 47.7394 59.2296C47.3106 58.9225 46.7863 58.8028 46.2898 58.6518C45.3449 58.3744 44.3661 58.1527 43.5086 57.6501C42.827 57.2617 42.3062 56.6117 42.0519 55.8726C41.8663 55.3241 41.8249 54.7301 41.9119 54.1587C42.0551 53.2774 42.5485 52.4379 43.3074 51.9506ZM0.850952 51.4989C1.34995 51.4975 1.84901 51.4989 2.3475 51.4984C2.78737 53.5982 3.22423 55.6985 3.66262 57.7982C3.95476 59.2135 4.27183 60.6243 4.49423 62.0522C4.66618 61.2652 4.82797 60.4757 5.014 59.6917C5.70612 56.9607 6.39784 54.2295 7.09002 51.4983C7.67698 51.4983 8.264 51.4978 8.8509 51.4988C9.36466 53.5173 9.8783 55.5356 10.3915 57.5542C10.7752 59.0351 11.0902 60.5348 11.2894 62.0522C11.4735 61.0698 11.6818 60.0928 11.8977 59.117C12.4554 56.5773 13.0115 54.0376 13.5703 51.4984C14.0596 51.4984 14.5485 51.4979 15.0375 51.4989C14.0283 55.5898 13.0212 59.6813 12.0115 63.7726C11.5428 63.7726 11.0737 63.7726 10.6049 63.7722C10.0032 61.3546 9.40257 58.9367 8.80096 56.5193C8.51228 55.3403 8.20538 54.1653 7.93286 52.9824C7.71648 54.0446 7.43886 55.0923 7.17798 56.1439L5.26835 63.7722C4.77185 63.7732 4.27534 63.7726 3.7789 63.7726C2.80258 59.6813 1.82727 55.5898 0.850952 51.4989ZM16.6403 51.4984H18.1004C18.1004 55.5898 18.1004 59.6813 18.0999 63.7722C17.6135 63.7726 17.1271 63.7726 16.6402 63.7722C16.6397 59.6813 16.6403 55.5898 16.6403 51.4984ZM20.6911 51.4984C22.0785 51.4979 23.4653 51.4984 24.8527 51.4984C25.5438 51.5 26.239 51.4808 26.9241 51.589C27.4171 51.6647 27.9171 51.8076 28.3159 52.1188C28.8929 52.5653 29.2452 53.2488 29.4106 53.9483C29.6249 54.9274 29.5051 56.0235 28.9034 56.8486C28.3407 57.667 27.3492 58.0433 26.4017 58.1877C26.7172 58.363 27.0317 58.5504 27.288 58.807C27.8943 59.4217 28.3483 60.1632 28.7694 60.9113C29.3175 61.8649 29.8661 62.8181 30.4132 63.7727C29.8014 63.7733 29.1896 63.7727 28.5784 63.7727C28.0055 62.7812 27.4473 61.7816 26.867 60.7941C26.5135 60.2107 26.1667 59.6177 25.7258 59.0939C25.4533 58.7667 25.0919 58.507 24.6798 58.3888C24.4057 58.3215 24.1211 58.3266 23.841 58.3215C23.2767 58.3205 22.7125 58.3205 22.1483 58.3215C22.1478 60.1383 22.1487 61.9559 22.1478 63.7726C21.6618 63.7726 21.1765 63.7732 20.6912 63.7722C20.6906 59.6813 20.6906 55.5898 20.6911 51.4984ZM22.1482 52.8558C22.1482 54.2095 22.1477 55.5626 22.1482 56.9163C23.2347 56.9153 24.3213 56.9203 25.4078 56.9138C26.0065 56.8971 26.6434 56.8522 27.1632 56.5233C28.1906 55.8495 28.2998 54.1674 27.3741 53.3609C26.9206 52.9653 26.2926 52.8663 25.7097 52.8567C24.5225 52.8536 23.3354 52.8562 22.1482 52.8558ZM31.8349 51.4984H39.8142V52.9466C37.6411 52.9466 35.4681 52.9461 33.2956 52.9466C33.2951 54.1993 33.2951 55.4519 33.2956 56.7041C35.3296 56.7046 37.3637 56.7041 39.3976 56.7046C39.3981 57.185 39.3976 57.6653 39.3976 58.1452C37.3636 58.1462 35.3295 58.1452 33.2956 58.1457C33.2951 59.5388 33.2945 60.932 33.2956 62.325C35.5536 62.3244 37.8115 62.3244 40.0695 62.325C40.0701 62.8074 40.0701 63.2899 40.0695 63.7726H31.8349C31.8344 59.6813 31.8349 55.5898 31.8349 51.4984ZM52.3353 51.4984C53.0781 51.4984 53.8202 51.4979 54.5631 51.4989C54.5631 53.1093 54.5625 54.72 54.5631 56.3305C56.0182 56.331 57.4732 56.3305 58.9284 56.331C58.9294 54.7201 58.9284 53.1094 58.9294 51.4985C59.6716 51.4985 60.4138 51.498 61.156 51.4991C61.1565 55.59 61.1565 59.6814 61.156 63.7724C60.4138 63.7728 59.6716 63.7728 58.9294 63.7728C58.9284 61.9838 58.9294 60.1947 58.9284 58.4056C57.4732 58.405 56.0182 58.405 54.5631 58.4056C54.562 60.1947 54.5635 61.9838 54.5625 63.7728C53.8197 63.7728 53.0776 63.7734 52.3353 63.7724C52.3348 59.6813 52.3353 55.5898 52.3353 51.4984ZM66.6427 51.4989C67.4279 51.4975 68.213 51.4989 68.9983 51.4984C70.4717 55.5895 71.9444 59.6807 73.4166 63.7722C72.6091 63.7732 71.8018 63.7722 70.9943 63.7726C70.6723 62.8439 70.3512 61.9149 70.0311 60.9855C68.5602 60.9834 67.0895 60.9839 65.6187 60.985C65.3159 61.9144 65.0124 62.8437 64.7081 63.7726C63.9204 63.7726 63.1332 63.7732 62.346 63.7722C63.7775 59.6807 65.2114 55.5903 66.6427 51.4989ZM66.3049 58.9165C67.3081 58.917 68.3116 58.917 69.3148 58.9165C68.8086 57.3987 68.3016 55.8807 67.795 54.3634C67.2969 55.8807 66.8009 57.3987 66.3049 58.9165ZM74.6144 51.4984C76.127 51.4979 77.6399 51.4989 79.1526 51.4984C79.8043 51.4989 80.4596 51.5146 81.1043 51.6232C81.5173 51.6934 81.9319 51.8121 82.2833 52.048C82.9664 52.5026 83.3849 53.2744 83.5493 54.0643C83.6934 54.8018 83.6646 55.5821 83.42 56.2954C83.1748 57.0036 82.6636 57.6244 81.986 57.9568C81.5922 58.1614 81.1604 58.2786 80.7256 58.3553C81.1923 58.6664 81.6336 59.0266 81.984 59.4676C82.4537 60.0798 82.8304 60.7561 83.2122 61.4248C83.6521 62.2072 84.0934 62.9891 84.5323 63.7721C83.645 63.7731 82.7571 63.7721 81.8698 63.7725C81.1039 62.5173 80.3626 61.2464 79.5785 60.0024C79.2691 59.5367 78.9596 59.0073 78.4151 58.7881C77.9109 58.6153 77.3665 58.6558 76.8422 58.6476C76.8411 60.356 76.8422 62.0643 76.8417 63.7721C76.0989 63.7725 75.3568 63.7725 74.6145 63.7721C74.6139 59.6813 74.6144 55.5898 74.6144 51.4984ZM76.8421 53.5765C76.8415 54.6135 76.8421 55.6505 76.8415 56.6875C77.612 56.6855 78.3825 56.6934 79.153 56.6804C79.5681 56.6612 79.9889 56.6612 80.3958 56.5662C80.8574 56.4491 81.1981 56.0338 81.2907 55.5762C81.3812 55.1135 81.3652 54.5972 81.1073 54.1882C80.8655 53.8018 80.404 53.5988 79.9575 53.5966C78.9196 53.5629 77.8805 53.5806 76.8421 53.5765ZM85.7734 51.4989C86.5167 51.4984 87.2598 51.4984 88.0032 51.4989C88.0042 53.3148 88.0026 55.1303 88.0042 56.9461C89.5047 55.1307 91.0028 53.3128 92.5045 51.4979C93.5026 51.4989 94.5006 51.4979 95.4987 51.4984C94.1133 53.0916 92.7289 54.6852 91.3442 56.2784C92.8029 58.7771 94.265 61.2739 95.7237 63.7723C94.7631 63.7733 93.803 63.7727 92.8428 63.7727C91.83 61.8539 90.8208 59.9324 89.8082 58.0135C89.4249 58.4473 89.041 58.8808 88.6604 59.3167C88.4465 59.5722 88.2028 59.8066 88.0077 60.0743C87.9975 61.3067 88.0071 62.5397 88.0032 63.7723C87.2598 63.7727 86.5167 63.7727 85.7734 63.7723C85.7729 59.6813 85.7729 55.5898 85.7734 51.4989Z" fill="#E4E4E4"/>
</g>
</g>
<defs>
<clipPath id="clip0_2336_9506">
<rect width="100" height="100" fill="white" transform="translate(0.846863 0.201538)"/>
</clipPath>
<clipPath id="clip1_2336_9506">
<rect width="100" height="27.5735" fill="white" transform="translate(0.846863 36.4148)"/>
</clipPath>
</defs>
</svg>
