<svg width="101" height="101" viewBox="0 0 101 101" fill="none" xmlns="http://www.w3.org/2000/svg">
<path d="M64.9204 25.1683C72.9617 27.3348 73.4604 30.7071 74.5874 34.0023C69.8187 38.9443 39.2095 70.5073 39.2095 70.5073C39.2095 70.5073 58.2862 72.567 80.3117 68.752C80.3099 68.8028 80.3082 68.836 80.3064 68.885C83.7977 63.439 85.8469 56.9798 85.8469 50.0323C85.8469 30.7018 70.1774 15.0323 50.847 15.0323C40.9875 15.0323 32.0957 19.1238 25.7345 25.6846C35.9527 23.9993 55.9045 22.7376 64.9204 25.1683Z" fill="#E4E4E4"/>
<path d="M34.6139 73.2811C31.1454 72.6739 27.2429 69.5519 26.3767 64.0027C28.8914 61.8344 61.3661 28.1155 61.3661 28.1155C49.1021 27.3735 35.8704 27.3017 22.4514 29.6274C18.3109 35.3762 15.8469 42.4094 15.8469 50.0324C15.8469 69.3629 31.5164 85.0324 50.8469 85.0324C61.6496 85.0324 71.3026 80.1324 77.7234 72.4411C70.9474 73.3599 49.5466 75.8781 34.6139 73.2811Z" fill="#E4E4E4"/>
</svg>
