<svg width="101" height="101" viewBox="0 0 101 101" fill="none" xmlns="http://www.w3.org/2000/svg">
<g clip-path="url(#clip0_2358_6252)">
<path d="M28.5871 42.6141C28.5871 43.854 28.7205 44.8591 28.9532 45.5962C29.2486 46.4254 29.6042 47.2316 30.0172 48.0083C30.1836 48.2762 30.2499 48.5442 30.2499 48.779C30.2499 49.1137 30.0506 49.4489 29.6182 49.784L27.5231 51.1911C27.2237 51.3922 26.9243 51.4926 26.6579 51.4926C26.3256 51.4926 25.9929 51.325 25.6602 51.0235C25.2117 50.5387 24.8108 50.0114 24.4631 49.4489C24.1304 48.8797 23.7977 48.2426 23.432 47.4723C20.8375 50.5543 17.5781 52.0955 13.6538 52.0957C10.8602 52.0957 8.63168 51.2914 7.00185 49.6836C5.37241 48.0751 4.54102 45.9309 4.54102 43.2509C4.54102 40.4032 5.53877 38.0915 7.56762 36.3493C9.59608 34.6072 12.2904 33.7361 15.716 33.7361C16.8468 33.7361 18.0109 33.8365 19.2413 34.004C20.4721 34.1716 21.7359 34.4396 23.0663 34.7412V32.2955C23.0663 29.749 22.5339 27.9736 21.5028 26.9349C20.4387 25.8963 18.6426 25.3935 16.0817 25.3935C14.9176 25.3935 13.7205 25.5279 12.4897 25.8295C11.2589 26.131 10.0618 26.4994 8.8977 26.9685C8.36567 27.2029 7.96664 27.3369 7.73359 27.4041C7.50053 27.4713 7.33456 27.5045 7.20156 27.5045C6.73583 27.5045 6.50317 27.1693 6.50317 26.4658V24.824C6.50317 24.2881 6.56987 23.8861 6.73583 23.6518C6.90219 23.417 7.20156 23.1826 7.66728 22.9483C8.83126 22.3449 10.228 21.8423 11.8576 21.4404C13.4878 21.0049 15.2173 20.8041 17.0465 20.8041C21.0045 20.8041 23.8981 21.7084 25.7606 23.5178C27.5898 25.3268 28.5212 28.074 28.5212 31.7595V42.6141H28.5871ZM15.0839 47.7067C16.1817 47.7067 17.3125 47.5059 18.5095 47.1036C19.707 46.7016 20.7715 45.9645 21.6692 44.9594C22.2016 44.3231 22.6006 43.6196 22.7999 42.8153C22.9996 42.0114 23.1326 41.0395 23.1326 39.9005V38.4935C22.124 38.2463 21.1024 38.0562 20.0727 37.9239C19.0358 37.7914 17.9916 37.7242 16.9464 37.7228C14.7179 37.7228 13.0884 38.1583 11.991 39.063C10.8936 39.9677 10.3612 41.2407 10.3612 42.9157C10.3612 44.4903 10.7602 45.663 11.5916 46.4673C12.39 47.3047 13.5541 47.7067 15.0839 47.7067ZM41.791 51.325C41.1922 51.325 40.7932 51.2246 40.5272 50.9899C40.2612 50.7891 40.0281 50.32 39.8288 49.6836L32.0131 23.7857C31.813 23.1154 31.7134 22.6799 31.7134 22.4455C31.7134 21.9096 31.9794 21.6076 32.5118 21.6076H35.7711C36.4028 21.6076 36.8355 21.7084 37.0682 21.9428C37.3342 22.144 37.5339 22.6131 37.7332 23.2494L43.3207 45.4286L48.5092 23.2494C48.6756 22.5795 48.8753 22.144 49.1409 21.9428C49.4073 21.742 49.873 21.608 50.4717 21.608H53.1323C53.764 21.608 54.1967 21.7084 54.4624 21.9428C54.7288 22.144 54.9614 22.6131 55.0944 23.2494L60.3496 45.6966L66.1031 23.2494C66.3024 22.5795 66.5354 22.144 66.7681 21.9428C67.0341 21.742 67.4665 21.608 68.0652 21.608H71.1581C71.6906 21.608 71.9899 21.876 71.9899 22.4455C71.9899 22.6131 71.9566 22.7807 71.9232 22.9815C71.8899 23.1822 71.8236 23.4506 71.6906 23.8193L63.6748 49.7168C63.4755 50.3871 63.2427 50.8227 62.9764 51.0235C62.7104 51.2246 62.278 51.3586 61.713 51.3586H58.8528C58.2207 51.3586 57.7883 51.2582 57.5219 51.0235C57.2559 50.7891 57.0233 50.3536 56.8902 49.6836L51.7347 28.074L46.613 49.6497C46.447 50.32 46.2473 50.7555 45.9813 50.9899C45.7153 51.2246 45.2495 51.325 44.6512 51.325H41.791ZM84.5287 52.2297C82.7992 52.2297 81.0697 52.0285 79.407 51.6266C77.7438 51.2246 76.447 50.7887 75.5823 50.2868C75.0499 49.9848 74.6838 49.65 74.5512 49.3485C74.4219 49.0527 74.3539 48.7334 74.3515 48.4102V46.7016C74.3515 45.9981 74.6175 45.663 75.1166 45.663C75.3203 45.6637 75.5225 45.6978 75.7153 45.7637C75.9146 45.8309 76.214 45.9645 76.5467 46.0985C77.7213 46.6193 78.9476 47.0124 80.205 47.2712C81.5078 47.5372 82.8337 47.6719 84.163 47.6731C86.2582 47.6731 87.888 47.3047 89.0188 46.5676C90.1496 45.8305 90.7483 44.7587 90.7483 43.3848C90.7483 42.447 90.4489 41.6763 89.8502 41.0395C89.2515 40.4028 88.1207 39.8337 86.4913 39.2974L81.6685 37.79C79.2406 37.0193 77.4448 35.8802 76.347 34.3724C75.2496 32.8982 74.6842 31.2568 74.6842 29.5146C74.6842 28.1076 74.9836 26.8679 75.5823 25.7955C76.1806 24.7236 76.9791 23.7857 77.9768 23.0486C78.9746 22.2779 80.1053 21.7084 81.4358 21.3065C82.7659 20.9045 84.1627 20.7369 85.6261 20.7369C86.3579 20.7369 87.123 20.7705 87.8547 20.8709C88.6198 20.9713 89.3182 21.1053 90.0165 21.2393C90.6816 21.4069 91.3137 21.5744 91.9124 21.7756C92.5109 21.9764 92.9765 22.1773 93.3092 22.3783C93.7749 22.6467 94.1072 22.9147 94.3069 23.2162C94.5065 23.4842 94.6063 23.8527 94.6063 24.3217V25.8963C94.6063 26.5998 94.3403 26.9685 93.8412 26.9685C93.5752 26.9685 93.1428 26.8342 92.5778 26.5662C90.6815 25.6951 88.5528 25.2596 86.1919 25.2596C84.2961 25.2596 82.7992 25.5611 81.7681 26.1978C80.7374 26.8342 80.205 27.806 80.205 29.1795C80.205 30.1177 80.5377 30.9216 81.2027 31.5584C81.8678 32.1951 83.0986 32.8314 84.8614 33.4009L89.5842 34.9087C91.9787 35.6794 93.7082 36.7513 94.7393 38.1247C95.7704 39.4981 96.2695 41.0731 96.2695 42.8153C96.2695 44.2559 95.9697 45.5626 95.4043 46.7016C94.806 47.8407 94.0076 48.8458 92.9765 49.65C91.9454 50.4875 90.7149 51.0907 89.2848 51.5262C87.788 51.9953 86.2249 52.2297 84.5287 52.2297Z" fill="#191919"/>
<path d="M90.8151 68.5116C79.8731 76.653 63.975 80.9748 50.3059 80.9748C31.1485 80.9748 13.8873 73.8385 0.84985 61.9784C-0.181252 61.0405 0.7498 59.7675 1.98022 60.5042C16.0821 68.7464 33.4767 73.7381 51.47 73.7381C63.6094 73.7381 76.9462 71.192 89.219 65.9655C91.0481 65.1276 92.6113 67.1718 90.8151 68.5116ZM95.3718 63.2851C93.9751 61.4761 86.1257 62.414 82.567 62.8495C81.5026 62.9839 81.3362 62.0456 82.301 61.3421C88.5536 56.9195 98.8308 58.1929 100.028 59.6667C101.225 61.1745 99.6952 71.5268 93.8417 76.4854C92.944 77.2561 92.0792 76.8541 92.4782 75.8491C93.8083 72.5319 96.7686 65.0608 95.3718 63.2851Z" fill="#191919"/>
</g>
<defs>
<clipPath id="clip0_2358_6252">
<rect width="100" height="100" fill="white" transform="translate(0.406738 0.855835)"/>
</clipPath>
</defs>
</svg>
