<svg width="101" height="101" viewBox="0 0 101 101" fill="none" xmlns="http://www.w3.org/2000/svg">
<g clip-path="url(#clip0_2358_6367)">
<path d="M27.5689 43.1671L28.3291 43.7175C29.6513 44.7839 30.4115 45.988 30.5767 47.364C31.998 47.0888 33.8158 47.2952 34.6092 47.8456L35.3363 48.2929L35.2041 48.5683C34.9726 49.0841 34.9066 49.2218 34.8736 49.2906C33.5845 51.8706 31.0394 51.905 29.8496 51.8706C26.8418 59.4044 20.4297 63.5669 11.7695 63.5669C7.77028 63.5669 4.72946 62.2941 2.68004 59.7827C-0.0301126 56.4806 -0.0301125 52.1802 0.201138 50.8042L0.267349 50.5288H24.1644C25.4203 50.5288 26.3791 50.1851 26.8418 49.9097C26.3459 49.1529 26.1806 48.2929 26.1476 47.8113C26.0484 46.4353 26.3791 44.9904 27.0402 43.9583L27.5689 43.1671ZM48.2748 44.7646C48.5415 44.7646 48.7672 44.854 48.9521 45.0327C49.137 45.2115 49.2295 45.4372 49.2295 45.7099V54.2183C49.2295 55.6363 48.7325 56.8361 47.7385 57.8179C46.7325 58.8118 45.5326 59.3087 44.1388 59.3087C42.7329 59.3087 41.533 58.8118 40.5392 57.8179C39.5454 56.824 39.0484 55.6242 39.0484 54.2183C39.0484 52.8124 39.5454 51.6126 40.5392 50.6187C41.533 49.6247 42.7329 49.1277 44.1388 49.1279C45.3448 49.1279 46.4084 49.5005 47.3295 50.2458V45.7099C47.3295 45.4372 47.4189 45.2115 47.5976 45.0327C47.7764 44.854 48.0021 44.7646 48.2748 44.7646ZM55.4017 49.1279C56.7956 49.1279 57.9955 49.6247 59.0014 50.6185C59.4985 51.1156 59.8697 51.6641 60.115 52.2638C60.3605 52.8638 60.4862 53.5153 60.4924 54.2183C60.4924 55.6363 59.9954 56.8361 59.0015 57.8179C57.9957 58.8118 56.7958 59.3087 55.4019 59.3087C53.9959 59.3087 52.7961 58.8118 51.8023 57.8179C50.8083 56.824 50.3113 55.6242 50.3113 54.2183C50.3113 52.8124 50.8083 51.6126 51.8021 50.6187C52.796 49.6247 53.9959 49.1277 55.4017 49.1279ZM66.6467 49.1279C67.9253 49.1279 69.0313 49.54 69.9646 50.3642C70.1827 50.5579 70.2918 50.7973 70.2918 51.0822C70.2918 51.3549 70.2024 51.5822 70.0236 51.7638C69.8448 51.9457 69.6191 52.0367 69.3465 52.0367C69.1212 52.0385 68.9025 51.9613 68.7283 51.8185C68.4193 51.5578 68.0951 51.3609 67.7557 51.2277C67.4162 51.0945 67.0465 51.0278 66.6467 51.0277C66.2044 51.0277 65.7892 51.111 65.4014 51.2777C65.0219 51.4385 64.6765 51.6698 64.3832 51.9593C64.0906 52.2493 63.8575 52.5936 63.6969 52.973C63.5302 53.3606 63.4469 53.7757 63.4469 54.2183C63.4469 54.6606 63.5302 55.0757 63.6969 55.4636C63.8575 55.843 64.0906 56.1873 64.3832 56.4773C64.6765 56.7668 65.0219 56.9981 65.4014 57.1589C65.7892 57.3256 66.2044 57.4089 66.6467 57.4089C67.0467 57.4089 67.4163 57.3438 67.7557 57.2136C68.0951 57.0831 68.4163 56.8876 68.7191 56.6271C68.8889 56.4999 69.0889 56.4332 69.3191 56.4271C69.5918 56.4271 69.8175 56.5165 69.9963 56.6952C70.1751 56.874 70.2644 57.0998 70.2644 57.3726C70.2644 57.6393 70.1645 57.8725 69.9646 58.0724C69.0253 58.8966 67.9193 59.3087 66.6467 59.3087C65.2407 59.3087 64.0408 58.8118 63.0471 57.8179C62.0532 56.824 61.5562 55.6242 61.5562 54.2183C61.5562 52.8124 62.0532 51.6126 63.0471 50.6187C64.0409 49.6248 65.2408 49.1279 66.6467 49.1279ZM72.3193 44.7646C72.5799 44.7646 72.8025 44.857 72.9873 45.0419C73.1722 45.2266 73.2646 45.4523 73.2646 45.7191V52.8093L78.7006 49.2732C78.852 49.1763 79.0217 49.1279 79.2096 49.1279C79.3429 49.1279 79.4671 49.1521 79.5822 49.2005C79.6975 49.249 79.7975 49.3171 79.8822 49.405C79.967 49.4929 80.0352 49.5945 80.0867 49.7097C80.1383 49.8249 80.1641 49.946 80.1641 50.073C80.1641 50.4124 80.0428 50.664 79.8004 50.8277L75.9918 53.3003L79.9004 57.6997C80.0762 57.8936 80.1641 58.1148 80.1641 58.3634C80.1641 58.4906 80.1383 58.6118 80.0867 58.7269C80.0369 58.8396 79.9677 58.9427 79.8822 59.0316C79.7975 59.1195 79.6975 59.1876 79.5822 59.2359C79.4641 59.2848 79.3374 59.3096 79.2096 59.3087C78.955 59.3087 78.7429 59.2269 78.5732 59.0632L74.3736 54.3454L73.2646 55.0728V58.3542C73.2646 58.6148 73.1722 58.839 72.9873 59.0269C72.8024 59.2148 72.5797 59.3087 72.3193 59.3087C72.0527 59.3087 71.8269 59.2148 71.642 59.0269C71.4571 58.839 71.3646 58.6148 71.3646 58.3542V45.7191C71.3646 45.4524 71.4571 45.2266 71.642 45.0417C71.8269 44.8568 72.0527 44.7646 72.3193 44.7646ZM86.282 49.1277C87.6758 49.1277 88.8756 49.6245 89.8816 50.6183C90.3785 51.1092 90.7512 51.6561 90.9998 52.2591C91.2482 52.862 91.3725 53.515 91.3725 54.2181C91.3725 54.4908 91.28 54.7165 91.0951 54.8952C90.9102 55.074 90.6845 55.1634 90.418 55.1634H83.2187C83.3188 55.4909 83.4724 55.7995 83.6732 56.0769C83.8692 56.3488 84.1069 56.5881 84.3775 56.7859C84.6491 56.9839 84.9497 57.1388 85.2685 57.2451C85.5928 57.3542 85.9306 57.4087 86.282 57.4087C86.682 57.4087 87.0486 57.3481 87.3818 57.2269C87.7152 57.1058 88.0243 56.924 88.3092 56.6814C88.4846 56.5326 88.7061 56.4491 88.9361 56.4451C89.2089 56.4451 89.4347 56.5344 89.6135 56.7132C89.7923 56.892 89.8816 57.1178 89.8816 57.3906C89.8816 57.6571 89.7908 57.8843 89.609 58.0722C88.6697 58.8964 87.5607 59.3085 86.282 59.3085C84.876 59.3085 83.6762 58.8116 82.6824 57.8177C81.6885 56.8238 81.1916 55.624 81.1916 54.2181C81.1916 52.8122 81.6885 51.6124 82.6824 50.6185C83.6763 49.6246 84.8762 49.1277 86.282 49.1277ZM97.5086 49.1277C97.7753 49.1277 98.0616 49.1458 98.3676 49.1822C98.6736 49.2186 98.9554 49.2837 99.2131 49.3775C99.4706 49.4714 99.6842 49.6001 99.8537 49.7638C100.024 49.9275 100.109 50.1396 100.108 50.4001C100.108 50.5336 100.083 50.6579 100.031 50.773C99.9812 50.8856 99.912 50.9887 99.8266 51.0775C99.7418 51.1654 99.6418 51.2335 99.5266 51.282C99.4084 51.3308 99.2817 51.3555 99.1539 51.3546C99.0387 51.3546 98.9053 51.3213 98.7539 51.2546C98.3721 51.1032 97.957 51.0275 97.5086 51.0275C97.0663 51.0275 96.6512 51.1108 96.2633 51.2775C95.8755 51.4441 95.5376 51.6714 95.2496 51.9591C94.9618 52.247 94.7346 52.5849 94.568 52.9728C94.4013 53.3604 94.318 53.7755 94.318 54.2181V58.3632C94.318 58.6238 94.2255 58.8464 94.0406 59.0312C93.8557 59.216 93.6331 59.3084 93.3727 59.3085C93.106 59.3085 92.8803 59.2161 92.6955 59.0312C92.5107 58.8463 92.4183 58.6236 92.4182 58.3632V50.0732C92.4182 49.8125 92.5106 49.5898 92.6955 49.4052C92.8804 49.2203 93.1061 49.1279 93.3727 49.1279C93.6332 49.1279 93.8559 49.2203 94.0406 49.4052C94.2255 49.5898 94.318 49.8125 94.318 50.0732V50.2548C94.7627 49.8969 95.2633 49.6144 95.7996 49.4187C96.3328 49.2247 96.9025 49.1277 97.5086 49.1277ZM44.1388 51.0275C43.6904 51.0275 43.2722 51.1123 42.8844 51.282C42.4965 51.4516 42.1601 51.6804 41.8754 51.9683C41.5906 52.2562 41.3649 52.5941 41.1982 52.982C41.0316 53.3699 40.9482 53.7819 40.9482 54.2181C40.9482 54.6543 41.0316 55.0664 41.1982 55.4544C41.3649 55.8424 41.5906 56.1803 41.8754 56.4679C42.1601 56.7555 42.4965 56.9843 42.8844 57.1542C43.2722 57.3238 43.6904 57.4086 44.1388 57.4087C44.5812 57.4087 44.9963 57.3239 45.3842 57.1542C45.7629 56.9905 46.107 56.756 46.3978 56.4632C46.6865 56.171 46.9177 55.8272 47.0795 55.4497C47.2461 55.065 47.3295 54.6544 47.3295 54.2181C47.3295 53.7818 47.2461 53.3712 47.0795 52.9863C46.9177 52.6088 46.6865 52.265 46.3978 51.9728C46.107 51.6801 45.7629 51.4456 45.3842 51.282C44.9964 51.1123 44.5813 51.0275 44.1388 51.0275ZM55.4019 51.0275C54.9535 51.0275 54.5353 51.1123 54.1474 51.282C53.7596 51.4516 53.4232 51.6804 53.1385 51.9683C52.8537 52.2562 52.6279 52.5941 52.4611 52.982C52.2943 53.3699 52.211 53.7819 52.2111 54.2181C52.2112 54.6543 52.2946 55.0664 52.4611 55.4544C52.6279 55.8422 52.8537 56.18 53.1385 56.4679C53.4232 56.7558 53.7596 56.9846 54.1474 57.1542C54.5353 57.3239 54.9535 57.4087 55.4019 57.4087C55.8443 57.4087 56.2594 57.3239 56.6473 57.1542C57.026 56.9905 57.3701 56.756 57.6609 56.4632C57.9496 56.171 58.1808 55.8272 58.3426 55.4497C58.5092 55.065 58.5926 54.6544 58.5926 54.2181C58.5926 53.7818 58.5092 53.3712 58.3426 52.9863C58.1808 52.6088 57.9496 52.265 57.6609 51.9728C57.3701 51.6801 57.026 51.4456 56.6473 51.282C56.2594 51.1123 55.8443 51.0275 55.4019 51.0275ZM86.282 51.0275C85.9366 51.0275 85.6003 51.082 85.273 51.1909C84.9514 51.2971 84.6479 51.4519 84.373 51.6499C84.1003 51.8469 83.8609 52.0863 83.6641 52.3591C83.4639 52.6355 83.3132 52.9446 83.2187 53.2726H89.3453C89.2449 52.9444 89.0897 52.6356 88.8863 52.3591C88.6877 52.0879 88.4486 51.8487 88.1773 51.6501C87.9058 51.4522 87.6053 51.2973 87.2865 51.1911C86.9629 51.0821 86.6236 51.0268 86.282 51.0275ZM6.48122 46.4005V49.8408H2.84547V46.4009L6.48122 46.4005ZM10.7781 46.4005V49.8408H7.14235V46.4009L10.7781 46.4005ZM15.075 46.4005V49.8408H11.439V46.4009L15.075 46.4005ZM19.3718 46.4005V49.8408H15.7359V46.4009L19.3718 46.4005ZM23.6687 46.4005V49.8408H20.0328V46.4009L23.6687 46.4005ZM19.3718 42.2726V45.7126H15.7359V42.2728L19.3718 42.2726ZM15.075 42.2726V45.7126H11.439V42.2728L15.075 42.2726ZM10.7781 42.2726V45.7126H7.14235V42.2728L10.7781 42.2726ZM19.3718 38.1447V41.5847H15.7359V38.1447H19.3718Z" fill="#191919"/>
</g>
<defs>
<clipPath id="clip0_2358_6367">
<rect width="100" height="100" fill="white" transform="translate(0.108398 0.855835)"/>
</clipPath>
</defs>
</svg>
