<svg width="101" height="101" viewBox="0 0 101 101" fill="none" xmlns="http://www.w3.org/2000/svg">
<g clip-path="url(#clip0_2358_6300)">
<path fill-rule="evenodd" clip-rule="evenodd" d="M50.5001 19.9324L76.6262 35.0163V65.1841L50.5001 80.268L24.374 65.1841V35.0163L50.5001 19.9324ZM27.3054 36.7087V58.8678L46.4958 25.6292L27.3054 36.7087ZM50.5001 24.5562L28.3784 62.8722H72.6219L50.5001 24.5562ZM69.6905 65.8036H31.3098L50.5001 76.8831L69.6905 65.8036ZM73.6948 58.8678L54.5045 25.6292L73.6948 36.7087V58.8678Z" fill="#191919"/>
<path d="M50.5002 27.7988C53.91 27.7988 56.6742 25.0346 56.6742 21.6248C56.6742 18.215 53.91 15.4508 50.5002 15.4508C47.0904 15.4508 44.3262 18.215 44.3262 21.6248C44.3262 25.0346 47.0904 27.7988 50.5002 27.7988Z" fill="#191919"/>
<path d="M75.1603 42.0366C78.5701 42.0366 81.3343 39.2724 81.3343 35.8626C81.3343 32.4528 78.5701 29.6886 75.1603 29.6886C71.7505 29.6886 68.9863 32.4528 68.9863 35.8626C68.9863 39.2724 71.7505 42.0366 75.1603 42.0366Z" fill="#191919"/>
<path d="M75.1603 70.5119C78.5701 70.5119 81.3343 67.7477 81.3343 64.3379C81.3343 60.9281 78.5701 58.1639 75.1603 58.1639C71.7505 58.1639 68.9863 60.9281 68.9863 64.3379C68.9863 67.7477 71.7505 70.5119 75.1603 70.5119Z" fill="#191919"/>
<path d="M50.5002 84.7496C53.91 84.7496 56.6742 81.9854 56.6742 78.5756C56.6742 75.1658 53.91 72.4016 50.5002 72.4016C47.0904 72.4016 44.3262 75.1658 44.3262 78.5756C44.3262 81.9854 47.0904 84.7496 50.5002 84.7496Z" fill="#191919"/>
<path d="M25.8361 70.5119C29.2459 70.5119 32.0101 67.7477 32.0101 64.3379C32.0101 60.9281 29.2459 58.1639 25.8361 58.1639C22.4263 58.1639 19.6621 60.9281 19.6621 64.3379C19.6621 67.7477 22.4263 70.5119 25.8361 70.5119Z" fill="#191919"/>
<path d="M25.8361 42.0366C29.2459 42.0366 32.0101 39.2724 32.0101 35.8626C32.0101 32.4528 29.2459 29.6886 25.8361 29.6886C22.4263 29.6886 19.6621 32.4528 19.6621 35.8626C19.6621 39.2724 22.4263 42.0366 25.8361 42.0366Z" fill="#191919"/>
</g>
<defs>
<clipPath id="clip0_2358_6300">
<rect width="70" height="70" fill="white" transform="translate(15.5 15.1002)"/>
</clipPath>
</defs>
</svg>
