<svg width="101" height="101" viewBox="0 0 101 101" fill="none" xmlns="http://www.w3.org/2000/svg">
<path d="M47.7656 15.1191C47.6117 15.1327 47.1221 15.1806 46.6814 15.2148C36.5182 16.1111 26.9984 21.4749 20.969 29.7191C17.6116 34.3029 15.4642 39.5026 14.6528 45.0101C14.366 46.9326 14.3311 47.5004 14.3311 50.1071C14.3311 52.7137 14.366 53.2816 14.6528 55.2041C16.5973 68.3468 26.1591 79.3892 39.1272 83.4805C41.4494 84.2125 43.8976 84.712 46.6814 85.013C47.7656 85.1293 52.4521 85.1293 53.5362 85.013C58.3416 84.493 62.4125 83.33 66.4274 81.3254C67.043 81.0175 67.1619 80.9354 67.0779 80.867C67.022 80.8259 64.399 77.3846 61.2514 73.2249L55.5297 65.6649L48.3602 55.2862C44.4152 49.5803 41.1696 44.9143 41.1417 44.9143C41.1137 44.9074 41.0857 49.5187 41.0717 55.1493C41.0507 65.0081 41.0437 65.4049 40.9178 65.6375C40.736 65.9728 40.5961 66.1096 40.3023 66.2601C40.0785 66.3696 39.8826 66.3901 38.8264 66.3901H37.6163L37.2946 66.1917C37.0847 66.0617 36.9309 65.8907 36.8259 65.6923L36.6791 65.3844L36.693 51.667L36.714 37.9427L36.9309 37.6759C37.0428 37.5322 37.2806 37.3475 37.4485 37.2585C37.7352 37.1217 37.8472 37.108 39.0572 37.108C40.4842 37.108 40.722 37.1627 41.0927 37.5596C41.1976 37.669 45.0797 43.3886 49.7241 50.2781C54.3686 57.1676 60.7198 66.5748 63.8394 71.1929L69.5051 79.5876L69.7919 79.4029C72.3309 77.7882 75.0169 75.4895 77.1433 73.0949C81.6688 68.0116 84.5856 61.8131 85.5649 55.2041C85.8516 53.2816 85.8866 52.7137 85.8866 50.1071C85.8866 47.5004 85.8516 46.9326 85.5649 45.0101C83.6203 31.8673 74.0586 20.825 61.0905 16.7337C58.8032 16.0085 56.3691 15.509 53.6411 15.208C52.9697 15.1396 48.3462 15.0643 47.7656 15.1191ZM62.4125 36.287C62.7482 36.4512 63.021 36.7659 63.1189 37.0943C63.1749 37.2722 63.1889 41.0761 63.1749 49.6487L63.1539 61.9499L60.9366 58.6249L58.7123 55.2999V46.3579C58.7123 40.5767 58.7403 37.3269 58.7822 37.1696C58.8941 36.7864 59.139 36.4854 59.4747 36.3075C59.7615 36.1639 59.8664 36.1502 60.9646 36.1502C61.9998 36.1502 62.1816 36.1639 62.4125 36.287Z" fill="#191919"/>
</svg>
