<svg width="101" height="101" viewBox="0 0 101 101" fill="none" xmlns="http://www.w3.org/2000/svg">
<g clip-path="url(#clip0_2358_6284)">
<path d="M90.1362 43.2681C90.0959 43.268 90.0565 43.28 90.023 43.3024L88.1902 44.3727C88.1557 44.3941 88.1273 44.4241 88.1079 44.4597C88.0884 44.4953 88.0785 44.5353 88.0792 44.5759V46.7165C88.0792 46.8071 88.1222 46.8758 88.1902 46.9212L90.023 47.9899C90.0564 48.0124 90.0959 48.0244 90.1362 48.0244C90.1766 48.0244 90.216 48.0124 90.2495 47.9899L92.0792 46.9212C92.1139 46.8993 92.1425 46.869 92.1624 46.8331C92.1822 46.7971 92.1925 46.7567 92.1925 46.7157V44.5774C92.1929 44.5366 92.1827 44.4964 92.1628 44.4608C92.1429 44.4252 92.1141 44.3954 92.0792 44.3743L90.2487 43.3032C90.2154 43.2809 90.1763 43.2682 90.1362 43.2681ZM50.2202 56.0679C49.8866 56.0679 49.5546 56.1492 49.2718 56.3086L40.2492 61.564C39.9601 61.7338 39.7205 61.9763 39.5541 62.2674C39.3877 62.5585 39.3004 62.8881 39.3008 63.2233V73.71C39.3008 74.3928 39.6617 75.0303 40.2492 75.3724L42.6242 76.7365C43.7773 77.3052 44.1843 77.3037 44.7039 77.3037C46.3992 77.3037 47.3718 76.2576 47.3718 74.46V64.1124C47.3708 64.0404 47.3419 63.9716 47.2912 63.9204C47.2405 63.8693 47.1719 63.8398 47.0999 63.8382H45.9484C45.8761 63.8394 45.8071 63.8687 45.7561 63.9199C45.7051 63.9711 45.6759 64.0401 45.6749 64.1124V74.4623C45.6749 75.2584 44.8398 76.056 43.5062 75.374L41.0414 73.9404C40.9508 73.8951 40.9047 73.7795 40.9047 73.6889V63.1999C40.9047 63.1093 40.9508 62.9968 41.0414 62.9507L50.0608 57.7187C50.1288 57.6734 50.2429 57.6734 50.3335 57.7187L59.3553 62.9507C59.4451 62.9968 59.4897 63.0866 59.4897 63.2007V73.6881C59.4897 73.8014 59.4451 73.8943 59.3553 73.9396L50.3335 79.1951C50.2655 79.2404 50.1515 79.2404 50.0608 79.1951L47.7554 77.8052C47.6874 77.7599 47.5968 77.7373 47.5288 77.7826C46.896 78.1466 46.7851 78.1943 46.1742 78.399C46.0382 78.4443 45.8124 78.5341 46.264 78.7841L49.2718 80.5826C49.5655 80.7411 49.8812 80.8318 50.2202 80.8318C50.5593 80.8318 50.8975 80.7419 51.1686 80.6286L60.1912 75.3732C60.4808 75.2031 60.7207 74.9601 60.8871 74.6684C61.0535 74.3768 61.1406 74.0466 61.1396 73.7107V63.2233C61.1396 62.5405 60.7787 61.9054 60.1912 61.564L51.1686 56.3086C50.878 56.1492 50.5516 56.0664 50.2202 56.0679ZM64.306 60.857C63.843 60.8588 63.3996 61.0444 63.0734 61.373C62.7472 61.7016 62.5647 62.1463 62.5662 62.6093C62.5649 63.0722 62.7475 63.5166 63.0737 63.8451C63.3999 64.1735 63.8431 64.359 64.306 64.3608C65.2568 64.3608 66.0466 63.5647 66.0466 62.6093C66.0442 62.1474 65.8604 61.7049 65.5348 61.3773C65.2092 61.0496 64.7679 60.8623 64.306 60.857ZM64.2826 61.1531C64.4752 61.1507 64.6663 61.1866 64.8449 61.2588C65.0235 61.3309 65.1859 61.4378 65.3228 61.5734C65.4597 61.7089 65.5683 61.8702 65.6423 62.0481C65.7162 62.2259 65.7541 62.4167 65.7536 62.6093C65.7536 63.4062 65.0974 64.089 64.2834 64.089C63.4927 64.089 62.8365 63.428 62.8365 62.6093C62.8365 61.7905 63.5146 61.1531 64.2826 61.1531ZM63.6506 61.6304V63.6319H64.0365V62.8382H64.3755C64.5115 62.8382 64.556 62.8835 64.5787 62.9968C64.5787 63.0202 64.6458 63.5202 64.6458 63.6108H65.0521C65.0068 63.5202 64.9841 63.2468 64.9615 63.0874C64.9396 62.8374 64.9177 62.6554 64.6458 62.6327C64.7818 62.5866 65.0076 62.5187 65.0076 62.1546C65.0076 61.6312 64.5544 61.6312 64.3294 61.6312L63.6506 61.6304ZM63.9904 61.9491H64.306C64.4201 61.9491 64.5998 61.9491 64.5998 62.2218C64.5998 62.3124 64.556 62.496 64.306 62.496H63.9896L63.9904 61.9491ZM52.6858 63.5194C50.1077 63.5194 48.5702 64.6116 48.5702 66.4546C48.5702 68.4342 50.1077 68.978 52.5725 69.2288C55.5334 69.5248 55.76 69.9577 55.76 70.5491C55.76 71.5725 54.9444 72.0053 53.0452 72.0053C50.6483 72.0053 50.1288 71.4131 49.9476 70.2076C49.9476 70.0709 49.8366 69.9811 49.7007 69.9811H48.5249C48.4531 69.9819 48.3844 70.011 48.3339 70.062C48.2833 70.113 48.2548 70.1819 48.2546 70.2537C48.2546 71.8006 49.0679 73.6209 53.0256 73.6209C55.8733 73.6209 57.524 72.4818 57.524 70.4803C57.524 68.5233 56.2116 68.0006 53.4319 67.6366C50.6272 67.2725 50.3343 67.0678 50.3343 66.4085C50.3343 65.8624 50.5827 65.135 52.6624 65.135C54.5163 65.135 55.2163 65.5452 55.4881 66.796C55.5018 66.8524 55.5335 66.9028 55.5785 66.9395C55.6235 66.9762 55.6793 66.9971 55.7373 66.9991H56.935C57.0037 66.9991 57.0717 66.9546 57.1178 66.9092C57.1588 66.8484 57.1818 66.7771 57.1842 66.7038C57.0037 64.5202 55.5803 63.5194 52.6858 63.5194Z" fill="#191919"/>
<path d="M68.0742 19.3687C67.978 19.3673 67.8832 19.3913 67.7992 19.4382C67.7119 19.4895 67.6392 19.5622 67.588 19.6494C67.5367 19.7366 67.5085 19.8355 67.5062 19.9367V34.7248C67.5062 34.8607 67.4359 34.9982 67.3008 35.0889C67.2383 35.1224 67.1685 35.1399 67.0976 35.1399C67.0268 35.1399 66.957 35.1224 66.8945 35.0889L64.4992 33.7022C64.3234 33.6017 64.1244 33.5489 63.9219 33.5489C63.7194 33.5489 63.5204 33.6017 63.3446 33.7022L53.7603 39.2763C53.5829 39.3763 53.4351 39.5214 53.3318 39.6969C53.2285 39.8723 53.1734 40.0719 53.172 40.2755V51.4004C53.172 51.8098 53.3986 52.1973 53.7603 52.402L63.3461 57.9762C63.5219 58.0764 63.7207 58.1292 63.9231 58.1292C64.1254 58.1292 64.3243 58.0764 64.5 57.9762L74.0851 52.402C74.4468 52.1973 74.6733 51.8098 74.6733 51.4004V23.6687C74.6733 23.2366 74.4468 22.8484 74.0851 22.6445L68.3664 19.4382C68.2759 19.3929 68.1754 19.3691 68.0742 19.3687ZM11.524 33.2483C11.3435 33.2483 11.163 33.3139 11.0052 33.4045L1.41937 38.9584C1.23922 39.0609 1.0897 39.2097 0.986283 39.3893C0.882863 39.569 0.82929 39.773 0.831099 39.9802L0.854536 54.9035C0.854536 55.109 0.966254 55.3137 1.1475 55.4051C1.23153 55.4602 1.32982 55.4896 1.43031 55.4896C1.5308 55.4896 1.6291 55.4602 1.71312 55.4051L7.4115 52.1293C7.77322 51.9246 7.99744 51.5372 7.99744 51.1278V44.1435C7.99744 43.7341 8.224 43.3466 8.58649 43.1419L11.0052 41.7318C11.1857 41.6177 11.3904 41.5724 11.5935 41.5724C11.7966 41.5724 12.0005 41.6177 12.1591 41.7318L14.5778 43.1419C14.9396 43.3466 15.1661 43.7341 15.1661 44.1435V51.1278C15.1661 51.5372 15.3911 51.9246 15.752 52.1293L21.4051 55.4051C21.493 55.4611 21.595 55.4909 21.6993 55.4909C21.8035 55.4909 21.9055 55.4611 21.9934 55.4051C22.0834 55.3561 22.1583 55.2836 22.2101 55.1952C22.2618 55.1068 22.2885 55.0059 22.2871 54.9035V39.9802C22.2871 39.5709 22.0606 39.1834 21.6981 38.9779L12.1357 33.4045C11.9746 33.319 11.7984 33.2657 11.6169 33.2475L11.524 33.2483ZM90.1693 33.4123C89.9716 33.4123 89.7755 33.4639 89.5943 33.567L80.0069 39.1381C79.6452 39.3427 79.421 39.7302 79.421 40.1404V51.2653C79.421 51.6746 79.6452 52.0621 80.0069 52.2668L89.5256 57.7254C89.697 57.8259 89.8921 57.8789 90.0908 57.8789C90.2895 57.8789 90.4846 57.8259 90.656 57.7254L96.4216 54.4965C96.5114 54.4475 96.5862 54.3748 96.6378 54.2865C96.6894 54.1981 96.716 54.0973 96.7145 53.9949C96.7157 53.8929 96.689 53.7924 96.6374 53.7043C96.5858 53.6162 96.5112 53.5439 96.4216 53.4949L86.7912 47.92C86.7036 47.8686 86.6307 47.7955 86.5794 47.7078C86.5281 47.6202 86.5002 47.5208 86.4982 47.4192V43.938C86.4971 43.8359 86.5238 43.7355 86.5754 43.6474C86.627 43.5593 86.7016 43.4869 86.7912 43.438L89.799 41.7083C89.8868 41.6523 89.9889 41.6225 90.0931 41.6225C90.1973 41.6225 90.2994 41.6523 90.3873 41.7083L93.3919 43.4372C93.4799 43.4884 93.5533 43.5613 93.6051 43.649C93.6568 43.7367 93.6851 43.8362 93.6872 43.938V46.6684C93.6872 46.8739 93.7997 47.0786 93.9802 47.1692C94.0681 47.2254 94.1703 47.2553 94.2747 47.2553C94.3791 47.2553 94.4813 47.2254 94.5693 47.1692L100.265 43.8255C100.44 43.7236 100.584 43.577 100.684 43.4009C100.783 43.2248 100.834 43.0254 100.831 42.8232V40.1162C100.831 39.7068 100.604 39.3216 100.265 39.1162L90.7466 33.5662C90.571 33.4658 90.3724 33.4125 90.1701 33.4115L90.1693 33.4123ZM63.9219 41.7201C63.9727 41.7201 64.0242 41.7318 64.0703 41.7552L67.3469 43.6661C67.4375 43.7114 67.4836 43.8239 67.4836 43.9153V47.7372C67.4836 47.8512 67.4375 47.9434 67.3469 47.9887L64.0695 49.8997C64.0236 49.9222 63.9731 49.9339 63.9219 49.9339C63.8707 49.9339 63.8202 49.9222 63.7742 49.8997L60.4969 47.9887C60.4063 47.9434 60.3602 47.8286 60.3602 47.7372V43.9153C60.3602 43.8013 60.4071 43.7114 60.4969 43.6654L63.7742 41.7552C63.8201 41.7314 63.8703 41.7193 63.9219 41.7201Z" fill="#191919"/>
<path d="M38.3166 33.6109C38.1412 33.51 37.9424 33.4569 37.74 33.4569C37.5377 33.4569 37.3389 33.51 37.1635 33.6109L27.6448 39.1398C27.4704 39.2416 27.3261 39.3879 27.2267 39.5637C27.1273 39.7395 27.0764 39.9386 27.0792 40.1405V51.2193C27.0792 51.6295 27.3058 52.0162 27.6448 52.2209L37.1635 57.749C37.3389 57.8499 37.5377 57.903 37.74 57.903C37.9424 57.903 38.1412 57.8499 38.3166 57.749L47.8345 52.2209C48.1962 52.0162 48.4001 51.6295 48.4001 51.2193V40.1405C48.4001 39.7312 48.1735 39.3437 47.8345 39.1398L38.3166 33.6109Z" fill="#191919"/>
<path d="M47.8567 39.1396L38.2935 33.6107C38.1997 33.5632 38.1013 33.5252 37.9998 33.4974L27.2827 51.9473C27.3733 52.0613 27.4858 52.1519 27.5991 52.2207L37.1631 57.7488C37.4342 57.9081 37.7506 57.9534 38.0443 57.862L48.106 39.3443C48.0399 39.2576 47.9545 39.1876 47.8567 39.1396Z" fill="#191919"/>
<path d="M47.8583 52.2171C48.1302 52.0577 48.3333 51.785 48.4239 51.489L37.9553 33.4712C37.685 33.4258 37.3904 33.4485 37.142 33.6079L27.646 39.1133L37.8881 57.9045C38.0232 57.8819 38.1818 57.8365 38.3178 57.7678L47.8583 52.2171Z" fill="#191919"/>
</g>
<defs>
<clipPath id="clip0_2358_6284">
<rect width="100" height="100" fill="white" transform="translate(0.831055 0.10022)"/>
</clipPath>
</defs>
</svg>
