<svg width="101" height="101" viewBox="0 0 101 101" fill="none" xmlns="http://www.w3.org/2000/svg">
<g clip-path="url(#clip0_2358_6342)">
<path d="M77.5215 44.2014H72.0261C71.6615 44.2014 71.3229 44.4619 71.2708 44.8525L69.057 58.7866C69.031 58.9168 69.083 59.0471 69.1612 59.1512C69.2393 59.2554 69.3695 59.3075 69.4998 59.3075H72.3126C72.573 59.3075 72.8074 59.1252 72.8335 58.8647L73.4586 54.9059C73.5107 54.5413 73.8492 54.2548 74.2139 54.2808H75.9589C79.5791 54.2808 81.6627 52.5358 82.2096 49.1239C82.444 47.6133 82.2096 46.4413 81.5064 45.6078C80.7511 44.6963 79.3707 44.2014 77.5215 44.2014ZM78.1466 49.3062C77.8341 51.2596 76.3495 51.2596 74.891 51.2596H74.0576L74.6306 47.6133C74.6566 47.3789 74.865 47.2226 75.0733 47.2226H75.464C76.4537 47.2226 77.3913 47.2226 77.8862 47.7696C78.1727 48.1082 78.2768 48.603 78.1466 49.3062ZM38.2981 44.2014H32.8027C32.4381 44.2014 32.0995 44.4619 32.0474 44.8525L29.8076 58.7866C29.7815 58.9168 29.8336 59.0471 29.9117 59.1512C29.9899 59.2554 30.1201 59.3075 30.2503 59.3075H32.8808C33.2455 59.3075 33.584 59.0471 33.6361 58.6824L34.2352 54.9319C34.2873 54.5673 34.6258 54.2808 34.9905 54.3069H36.7355C40.3557 54.3069 42.4393 52.5619 42.9862 49.15C43.2206 47.6394 42.9862 46.4673 42.283 45.6339C41.5277 44.6963 40.1473 44.2014 38.2981 44.2014ZM38.9493 49.3062C38.6367 51.2596 37.1522 51.2596 35.6937 51.2596H34.8602L35.4332 47.6133C35.4593 47.3789 35.6676 47.2226 35.876 47.2226H36.2667C37.2564 47.2226 38.194 47.2226 38.6888 47.7696C38.9493 48.1082 39.0534 48.603 38.9493 49.3062ZM54.7324 49.2281H52.1019C51.8675 49.2281 51.6852 49.3844 51.6591 49.6188L51.5549 50.348L51.3726 50.0876C50.7996 49.2802 49.5234 48.9937 48.2733 48.9937C45.3563 48.9937 42.882 51.1815 42.3872 54.2287C42.1267 55.7654 42.4914 57.1979 43.3769 58.2136C44.1843 59.1512 45.3302 59.5419 46.6846 59.5419C48.0389 59.568 49.3672 59.021 50.3308 58.0573L50.1746 58.7866C50.1485 58.9168 50.2006 59.0471 50.2787 59.1512C50.3569 59.2554 50.4871 59.3075 50.6173 59.3075H52.9874C53.352 59.3075 53.6906 59.0471 53.7427 58.6824L55.1751 49.775C55.2012 49.6448 55.1491 49.5146 55.071 49.4104C54.9928 49.3062 54.8626 49.2281 54.7324 49.2281ZM51.0601 54.3069C50.8257 55.7654 49.5755 56.8332 48.091 56.7811C47.4138 56.8332 46.7887 56.5728 46.3199 56.0779C45.9293 55.557 45.773 54.9059 45.9032 54.2548C46.1116 52.7963 47.3878 51.7284 48.8463 51.7545C49.4974 51.7024 50.1485 51.9628 50.5913 52.4577C51.0601 52.9786 51.2163 53.6557 51.0601 54.3069ZM93.9558 49.2281H91.3253C91.0909 49.2281 90.9086 49.3844 90.8825 49.6188L90.7783 50.348L90.596 50.0876C90.023 49.2802 88.7468 48.9937 87.4967 48.9937C84.5797 48.9937 82.1054 51.1815 81.6106 54.2287C81.3501 55.7654 81.7148 57.1979 82.6003 58.2136C83.4077 59.1512 84.5536 59.5419 85.908 59.5419C87.2623 59.568 88.5906 59.021 89.5542 58.0573L89.45 58.7866C89.424 58.9168 89.4761 59.0471 89.5542 59.1512C89.6324 59.2554 89.7626 59.3075 89.8928 59.3075H92.2629C92.6275 59.3075 92.9661 59.021 93.0182 58.6564L94.4506 49.749C94.4767 49.6188 94.4246 49.4885 94.3465 49.3844C94.2162 49.2802 94.086 49.2281 93.9558 49.2281ZM90.2835 54.3069C90.0491 55.7654 88.7989 56.8332 87.3144 56.7811C86.6372 56.8332 86.0121 56.5728 85.5433 56.0779C85.1527 55.557 84.9964 54.9059 85.1266 54.2548C85.335 52.7963 86.6112 51.7284 88.0697 51.7545C88.7208 51.7024 89.3719 51.9628 89.8147 52.4577C90.2835 52.9786 90.4397 53.6557 90.2835 54.3069ZM68.7705 49.2281H66.1139C65.8535 49.2281 65.6191 49.3583 65.4889 49.5667L61.8426 54.8799L60.306 49.775C60.2018 49.4625 59.9153 49.2281 59.5767 49.2281H56.9722C56.816 49.2281 56.6857 49.3062 56.6076 49.4104C56.5295 49.5406 56.5034 49.6709 56.5555 49.8271L59.4725 58.2657L56.6857 62.0943C56.5816 62.2245 56.5816 62.4069 56.6597 62.5631C56.7378 62.7194 56.8941 62.7975 57.0764 62.7975H59.733C59.9934 62.7975 60.2278 62.6673 60.3581 62.485L69.1612 49.9313C69.2654 49.8011 69.2654 49.6188 69.1872 49.4625C69.083 49.3323 68.9268 49.2281 68.7705 49.2281ZM97.0551 44.5921L94.7892 58.7606C94.7632 58.8908 94.8153 59.021 94.8934 59.1252C94.9715 59.2294 95.1018 59.2815 95.232 59.2815H97.4979C97.8625 59.2815 98.2011 59.021 98.2532 58.6564L100.493 44.7484C100.519 44.6181 100.467 44.4879 100.389 44.3837C100.311 44.2796 100.18 44.2275 100.05 44.2275H97.4979C97.2895 44.2014 97.1072 44.3577 97.0551 44.5921Z" fill="#191919"/>
<path d="M8.55434 43.8367C8.73665 43.7325 8.97106 43.7065 9.17941 43.7065H15.0916C15.7687 43.7065 16.4459 43.7586 17.1231 43.8628C17.3054 43.8888 17.4616 43.9149 17.644 43.967C17.8263 43.993 17.9825 44.0451 18.1388 44.0972L18.3732 44.1753C18.4513 44.2014 18.5295 44.2274 18.6076 44.2534C18.7378 42.6647 18.269 41.5448 17.4877 40.6853C16.3417 39.4351 14.3363 38.8882 11.7318 38.8882H4.69972C4.17882 38.8882 3.71002 39.2789 3.63188 39.7737L0.506511 59.4637C0.480466 59.646 0.532556 59.8283 0.662779 59.9846C0.793003 60.1409 0.975317 60.219 1.15763 60.193H5.29874L7.74695 44.9306C7.82509 44.4358 8.11158 44.019 8.55434 43.8367Z" fill="#191919"/>
<path d="M18.061 45.0608L17.8526 45.0087C17.7224 44.9566 17.5661 44.9306 17.4098 44.9045C17.2536 44.8785 17.0973 44.8524 16.941 44.8264C16.316 44.7222 15.6909 44.6962 15.0658 44.6962H9.57038C9.44015 44.6962 9.28389 44.7222 9.15366 44.7743C8.86717 44.9045 8.68486 45.165 8.63277 45.4775L7.64307 51.7023C7.74725 51.6762 7.87747 51.6762 7.98165 51.6762H10.1955C11.2633 51.7023 12.3051 51.546 13.3469 51.2855C15.6909 50.6084 17.2536 49.1238 18.061 46.7277C18.2172 46.2328 18.3475 45.738 18.4516 45.2431C18.3475 45.165 18.1912 45.1129 18.061 45.0608Z" fill="#191919"/>
<path d="M20.0925 46.2069C19.8841 45.9985 19.6757 45.8162 19.4153 45.6599C18.8163 48.5769 16.9671 52.6921 10.1434 52.6921H8.45045C7.92955 52.6921 7.46075 53.0827 7.38261 53.5776C7.38261 53.5776 6.05433 61.7818 6.00224 62.1985C5.9762 62.3547 6.02829 62.511 6.13247 62.6412C6.23665 62.7715 6.39291 62.8235 6.54918 62.8235H9.96104C10.4299 62.8235 10.8205 62.485 10.8987 62.0422L11.7321 56.9634C11.8102 56.5207 12.2009 56.1821 12.6697 56.1821H13.2427C17.0452 56.1821 20.0143 54.6454 20.8998 50.2438C20.9259 50.1136 20.9519 49.9834 20.978 49.8532C21.1342 48.3425 20.8998 47.1184 20.0925 46.2069Z" fill="#191919"/>
</g>
<defs>
<clipPath id="clip0_2358_6342">
<rect width="100" height="100" fill="white" transform="translate(0.5 0.855835)"/>
</clipPath>
</defs>
</svg>
