<svg width="101" height="101" viewBox="0 0 101 101" fill="none" xmlns="http://www.w3.org/2000/svg">
<path fill-rule="evenodd" clip-rule="evenodd" d="M43.4829 26.776C45.6204 26.776 47.758 26.809 49.8927 26.7532C50.4589 26.7384 51.4747 27.2068 51.4292 26.0299C51.3945 25.0721 50.5061 25.4187 49.9678 25.4101C47.5565 25.372 45.1373 25.2804 42.7357 25.4312C41.0267 25.5376 40.523 24.8888 40.7376 23.3215C40.8115 22.7809 40.7404 22.2209 40.7518 21.67C40.8269 18.0016 41.7136 16.753 45.2716 15.8481C49.1915 14.8522 53.2031 14.8852 57.1122 15.7434C60.6264 16.5151 62.0862 19.2491 61.9086 21.7781C61.6923 24.8644 61.8597 27.9773 61.8568 31.0789C61.8517 34.9789 59.8365 37.0487 55.9046 37.1028C52.6664 37.1472 49.4243 37.1825 46.1878 37.0926C42.3305 36.9844 39.5009 40.1885 39.4816 43.8193C39.4816 44.0948 39.5288 44.3793 39.4742 44.6451C39.1964 45.9785 40.3062 48.1336 38.8926 48.5297C36.7414 49.1341 34.2225 49.1341 32.3252 47.2146C31.6821 46.5658 31.1403 45.839 30.8546 44.9991C29.33 40.5231 29.0893 35.9902 30.5245 31.4443C31.4192 28.6067 33.8526 26.842 36.8671 26.7913C39.0718 26.7543 41.2771 26.7839 43.4818 26.7839L43.4829 26.776ZM47.4108 20.4476C47.3186 19.3646 46.7364 18.5741 45.5351 18.5411C44.221 18.507 43.5421 19.3014 43.5404 20.5944C43.5392 21.7929 44.192 22.5606 45.3848 22.5954C46.6955 22.6335 47.33 21.8214 47.4108 20.4476Z" fill="#191919"/>
<path fill-rule="evenodd" clip-rule="evenodd" d="M59.9811 48.7167C57.5682 48.7167 55.154 48.6956 52.7411 48.7338C52.1976 48.7406 51.2859 48.3969 51.2574 49.3262C51.2256 50.3802 52.2038 50.1059 52.8253 50.1121C55.2383 50.1423 57.6535 50.1679 60.0659 50.1007C61.3054 50.0666 61.8114 50.3039 61.9041 51.7654C62.3235 58.3811 59.4524 58.9531 54.157 60.1567C51.1191 60.847 47.8622 60.4811 44.8665 59.1392C42.3892 58.0311 40.8691 56.4342 41.0609 53.4442C41.251 50.4929 41.2828 47.5034 41.0558 44.5549C40.7826 40.9963 42.9964 38.379 47.3016 38.3779C50.1983 38.3773 53.1144 38.1565 55.9861 38.4206C60.0921 38.7973 63.3115 35.2382 63.4526 31.0997C63.4583 30.9625 63.423 30.8152 63.4583 30.6877C63.8203 29.4157 62.533 27.5252 64.2551 26.8827C66.8575 25.9124 69.7924 26.9322 71.1218 28.907C72.7978 31.3934 73.0243 34.3191 73.2952 37.176C73.5883 40.2554 72.7244 43.1543 71.4308 45.9321C70.5521 47.8158 69.0748 48.7264 67.0163 48.7292C64.6716 48.7309 62.3275 48.7292 59.9823 48.7292L59.9811 48.7167ZM59.3529 54.863C59.095 53.6872 58.5646 52.8848 57.1988 52.8512C55.7783 52.8171 55.4118 53.8796 55.4192 54.8282C55.4272 55.8367 55.7083 57.0773 57.246 56.9612C58.5242 56.8633 59.1474 56.0717 59.3529 54.863Z" fill="#191919"/>
<path fill-rule="evenodd" clip-rule="evenodd" d="M22.0254 79.0382C22.0254 80.5076 22.092 81.8837 21.9941 83.2478C21.952 83.8362 22.6008 84.9437 21.3664 84.9426C20.2783 84.9426 19.9988 84.0764 20.0336 83.0298C20.1001 81.0323 20.0529 79.0308 20.0529 77.0315V72.4799C20.0529 69.7368 20.7888 68.808 23.4123 68.2401C25.8515 67.7097 27.7682 68.5309 28.7539 70.6662C29.7395 72.802 29.8158 75.0027 28.8295 77.1755C27.8575 79.3164 26.0671 80.1155 23.7737 79.4809C23.2512 79.3386 22.7237 79.2151 22.0254 79.0382ZM22.0254 73.6613C22.0254 74.4182 22.1278 75.1899 22.0043 75.9263C21.7187 77.6285 22.8056 78.0479 24.0872 78.3507C25.3546 78.65 26.2236 78.1111 26.7318 76.9945C27.5861 75.1222 27.7295 73.1912 27.0807 71.2113C26.5048 69.4517 25.1748 69.2457 23.6223 69.4642C22.0891 69.6822 21.8814 70.7248 22.0152 72.0138C22.0721 72.5573 22.0254 73.1121 22.0254 73.6613ZM38.5219 78.9471C37.4719 79.2203 36.5602 79.5116 35.6269 79.6869C33.5838 80.0688 32.0711 78.9471 31.539 76.9018C30.8789 74.3704 31.4377 71.8487 31.4548 69.3231C31.4622 68.1718 32.5275 68.6208 33.2645 68.0039C33.2645 70.7071 33.2748 73.0404 33.2611 75.372C33.2537 76.5432 33.5565 77.5061 34.6639 78.1236C35.8864 78.8054 36.8891 78.1561 37.9533 77.7184C38.7159 77.4048 38.6209 76.7646 38.622 76.1557C38.6277 73.9521 38.6215 71.7509 38.6288 69.5473C38.63 69.0038 38.5736 68.3397 39.3761 68.3664C40.0914 68.3898 40.4027 68.8149 40.3908 69.5945C40.339 73.2408 40.442 76.8921 40.294 80.5332C40.1819 83.2865 38.2396 84.9682 35.4453 85.0917C35.027 85.1093 34.5888 85.148 34.4323 84.629C34.1939 83.83 34.8409 83.9808 35.266 83.8448C38.3397 82.867 38.7415 82.2832 38.5219 78.9471ZM51.511 69.4858C52.3242 69.1017 52.7914 68.75 53.3053 68.655C56.1889 68.1217 58.3987 68.3249 58.3931 72.209C58.3891 74.2094 58.3942 76.2103 58.3891 78.2101C58.3879 78.7701 58.4238 79.3153 57.5889 79.3637C56.7085 79.416 56.515 78.9124 56.519 78.2221C56.5293 76.2945 56.5816 74.367 56.5799 72.44C56.5788 70.9433 56.2732 69.6184 54.3695 69.623C52.6998 69.6258 51.5172 70.8722 51.5087 72.592C51.4991 74.4537 51.4997 76.3154 51.5104 78.1771C51.5121 78.8384 51.5263 79.4183 50.5702 79.3637C49.7092 79.3125 49.815 78.732 49.815 78.1976C49.8094 73.3034 49.8333 68.404 49.7917 63.5063C49.7843 62.6481 50.1229 62.1155 50.8844 62.079C51.9588 62.0295 51.4666 62.9691 51.4825 63.4403C51.5525 65.3587 51.511 67.2817 51.511 69.4858ZM60.6108 73.8742C60.5021 70.0527 62.3147 68.0124 65.5961 68.1308C67.2431 68.1911 68.4786 68.9219 69.2759 70.3446C70.6844 72.8612 70.4938 75.3789 68.9698 77.7355C67.9226 79.354 66.3121 80.1172 64.3487 79.7006C62.4126 79.2908 60.8965 77.5477 60.6222 75.516C60.5494 74.9782 60.6108 74.4211 60.6108 73.8742ZM68.1912 73.9635C68.1047 73.2965 68.1201 72.3666 67.8424 71.5369C67.4628 70.3987 66.7708 69.4824 65.3588 69.4198C63.9344 69.3584 63.2236 70.191 62.7484 71.3434C62.0023 73.1525 62.0507 74.9691 62.8588 76.7458C63.3778 77.8903 64.1791 78.728 65.5677 78.4958C66.9352 78.2676 67.7422 77.3713 68.0216 76.0413C68.1485 75.4386 68.1281 74.8069 68.1912 73.9635ZM72.1789 74.4729C72.1789 73.7831 72.1658 73.0945 72.1812 72.4082C72.213 71.085 71.7913 69.619 73.5755 68.9429C75.6185 68.1712 77.6434 67.593 79.7001 68.7876C80.4695 69.2349 80.7529 70.0475 80.7609 70.9103C80.782 73.3182 80.7501 75.7271 80.7825 78.135C80.7939 78.975 80.5731 79.395 79.629 79.3722C78.5943 79.3477 78.8123 78.6421 78.8191 78.0787C78.8436 76.1551 78.9773 74.2333 78.9409 72.3126C78.8931 69.8939 77.566 68.9076 75.305 69.5012C74.3671 69.7482 73.7809 70.2035 73.827 71.3644C73.9186 73.6306 73.8481 75.9047 73.8566 78.1748C73.8589 78.8327 73.8685 79.4155 72.9193 79.3603C72.0497 79.3102 72.192 78.7086 72.1852 78.1868C72.1692 76.9484 72.1806 75.7095 72.1789 74.4729ZM47.3844 69.1097C47.2422 69.2781 47.1226 69.5422 46.9974 69.5445C44.7415 69.5758 45.3675 71.2597 45.3095 72.5089C45.2543 73.6727 45.3095 74.8422 45.293 76.0094C45.2759 77.1692 45.3766 78.2471 46.788 78.555C47.1926 78.6426 47.377 78.876 47.2928 79.28C47.2 79.7262 46.8444 79.7086 46.4921 79.704C44.8701 79.6755 43.6676 78.5288 43.6198 76.85C43.5709 75.1347 43.6375 73.4155 43.5971 71.7019C43.576 70.8881 43.9989 69.8495 42.6865 69.5268C42.5425 69.4921 42.4913 69.0841 42.3974 68.8513C44.148 68.3021 43.4218 66.7923 43.662 65.6467C43.7758 65.1044 44.2908 64.9558 44.7774 64.9097C45.2697 64.8631 45.2736 65.2614 45.2896 65.5943C45.3545 66.9147 44.671 68.6817 47.1016 68.5855C47.183 68.5827 47.278 68.9059 47.3844 69.1097Z" fill="#191919"/>
</svg>
