<svg width="101" height="101" viewBox="0 0 101 101" fill="none" xmlns="http://www.w3.org/2000/svg">
<path d="M50.2231 45.9368C53.0556 45.9368 55.3519 43.5895 55.3519 40.694C55.3519 37.7985 53.0556 35.4512 50.2231 35.4512C47.3905 35.4512 45.0942 37.7985 45.0942 40.694C45.0942 43.5895 47.3905 45.9368 50.2231 45.9368Z" fill="#191919"/>
<path d="M50.223 59.9741C54.2489 63.9767 58.2196 66.3444 61.4182 66.3444C62.466 66.3444 63.4587 66.1189 64.2859 65.6115C67.1537 63.9203 68.2015 59.6922 67.2088 53.6602C67.0434 52.5891 66.8228 51.518 66.547 50.3905C67.65 50.0522 68.6427 49.714 69.6353 49.3757C75.2054 47.1771 78.2937 44.1329 78.2937 40.8069C78.2937 37.4244 75.2054 34.3802 69.6353 32.238C68.6427 31.8434 67.65 31.5051 66.547 31.2232C66.8228 30.0958 67.0434 29.0246 67.2088 27.9535C68.1463 21.8087 67.0985 17.5243 64.2308 15.8331C63.4036 15.3257 62.4109 15.1002 61.363 15.1002C58.2196 15.1002 54.1937 17.4679 50.1679 21.4705C46.1972 17.4679 42.2265 15.1002 39.0278 15.1002C37.98 15.1002 36.9873 15.3257 36.1601 15.8331C33.2924 17.5243 32.2446 21.7524 33.2372 27.7844C33.4027 28.8555 33.6233 29.9266 33.899 31.0541C32.796 31.3924 31.8034 31.7306 30.8107 32.0689C25.2407 34.2674 22.1523 37.3117 22.1523 40.6377C22.1523 44.0202 25.2407 47.0644 30.8107 49.2066C31.8034 49.6012 32.796 49.9395 33.899 50.2213C33.6233 51.3488 33.4027 52.4199 33.2372 53.4911C32.2997 59.5231 33.3475 63.8075 36.1601 65.4424C36.9873 65.9498 37.98 66.1752 39.0278 66.1752C42.2265 66.288 46.1972 63.9203 50.223 59.9741ZM47.1347 52.3636C48.1274 52.4199 49.1752 52.4199 50.223 52.4199C51.2708 52.4199 52.3187 52.4199 53.3113 52.3636C52.3187 53.7165 51.2708 54.9568 50.223 56.1406C49.1752 54.9568 48.1274 53.7165 47.1347 52.3636ZM40.2963 46.557C40.8477 47.5154 41.3441 48.4174 41.9507 49.3194C40.2411 49.0939 38.6418 48.812 37.0976 48.4737C37.594 46.9516 38.1455 45.3732 38.8072 43.7947C39.2484 44.6967 39.7448 45.655 40.2963 46.557ZM37.0976 32.9708C38.6418 32.6326 40.2411 32.3507 41.9507 32.1252C41.3992 33.0272 40.8477 33.9292 40.2963 34.8876C39.7448 35.8459 39.2484 36.7479 38.8072 37.7063C38.0903 36.0714 37.5388 34.4929 37.0976 32.9708ZM40.1308 40.6941C40.8477 39.172 41.6198 37.6499 42.5022 36.1278C43.3294 34.6621 44.267 33.1963 45.2045 31.7306C46.859 31.6179 48.5134 31.5615 50.223 31.5615C51.9878 31.5615 53.6422 31.6179 55.2415 31.7306C56.2342 33.1963 57.1166 34.6621 57.9438 36.1278C58.8262 37.6499 59.5983 39.172 60.3152 40.6941C59.5983 42.2162 58.8262 43.7383 57.9438 45.2604C57.1166 46.7261 56.1791 48.1919 55.2415 49.6576C53.5871 49.7704 51.9326 49.8267 50.223 49.8267C48.4583 49.8267 46.8038 49.7704 45.2045 49.6576C44.2118 48.1919 43.3294 46.7261 42.5022 45.2604C41.6198 43.7383 40.8477 42.2162 40.1308 40.6941ZM61.6939 37.6499L60.2049 34.8312C59.6534 33.8728 59.1571 32.9708 58.5505 32.0689C60.2601 32.2944 61.8594 32.5762 63.4036 32.9145C62.9072 34.4929 62.3557 36.0714 61.6939 37.6499ZM61.6939 43.7383C62.3557 45.3168 62.9072 46.8953 63.4036 48.4174C61.8594 48.7556 60.2601 49.0375 58.5505 49.263C59.102 48.361 59.6534 47.459 60.2049 46.5007C60.7013 45.655 61.1976 44.6967 61.6939 43.7383ZM62.9624 63.3002C62.5212 63.582 61.9697 63.6948 61.363 63.6948C58.6608 63.6948 55.2967 61.4398 51.9878 58.0574C53.5871 56.3098 55.1313 54.3367 56.6754 52.1381C59.2674 51.9126 61.7491 51.518 64.0653 50.9542C64.3411 51.9689 64.5065 52.9837 64.672 53.9984C65.444 58.7902 64.8374 62.2291 62.9624 63.3002ZM65.8301 33.591C72.0067 35.3949 75.7017 38.1573 75.7017 40.6941C75.7017 42.8927 73.1649 45.0913 68.6978 46.8389C67.8154 47.1771 66.8228 47.5154 65.8301 47.7973C65.1132 45.4859 64.2308 43.1182 63.1278 40.6941C64.2308 38.27 65.1683 35.9023 65.8301 33.591ZM61.4182 17.6934C62.0248 17.6934 62.5212 17.8062 63.0175 18.0881C64.8374 19.1592 65.4992 22.5416 64.7271 27.3898C64.5617 28.3482 64.3411 29.3629 64.1205 30.434C61.8042 29.9266 59.3226 29.532 56.7306 29.2501C55.2416 27.0516 53.6422 25.0785 52.0429 23.3309C55.3518 20.0048 58.7159 17.6934 61.4182 17.6934ZM53.3113 29.0246C52.3187 28.9683 51.2708 28.9683 50.223 28.9683C49.1752 28.9683 48.1274 28.9683 47.1347 29.0246C48.1274 27.6717 49.1752 26.4314 50.223 25.2476C51.2708 26.4314 52.3187 27.728 53.3113 29.0246ZM37.4837 18.0881C37.9249 17.8062 38.4764 17.6934 39.083 17.6934C41.7853 17.6934 45.1493 19.9484 48.4583 23.3309C46.8589 25.0785 45.3148 27.0516 43.7706 29.2501C41.1786 29.4756 38.6969 29.8703 36.3807 30.434C36.105 29.4193 35.9395 28.4045 35.7741 27.3898C35.002 22.598 35.6086 19.2155 37.4837 18.0881ZM34.6159 47.7973C28.4393 45.9933 24.7443 43.2309 24.7443 40.6941C24.7443 38.4955 27.2812 36.2969 31.7482 34.5493C32.6306 34.2111 33.6233 33.8728 34.6159 33.591C35.3329 35.9023 36.2153 38.27 37.3182 40.6941C36.2153 43.1182 35.2777 45.5423 34.6159 47.7973ZM35.7741 53.9984C35.9395 53.0401 36.1601 52.0253 36.3807 50.9542C38.6969 51.4616 41.1786 51.8562 43.7706 52.1381C45.2596 54.3367 46.8589 56.3098 48.4583 58.0574C45.1493 61.3834 41.7853 63.6948 39.083 63.6948C38.4764 63.6948 37.98 63.582 37.4837 63.3002C35.6086 62.2291 35.002 58.7902 35.7741 53.9984ZM33.4578 77.2246C34.6711 75.7025 34.7262 74.0113 34.0645 72.32C33.4027 70.6288 32.024 69.8396 30.3143 69.7832C28.2738 69.7268 26.1782 69.7832 24.1377 69.7832H23.7517V84.3841H25.4061V78.8594H27.9981C28.329 78.8594 28.6047 78.9722 28.7702 79.2541L32.0791 84.4969C32.1343 84.6096 32.2997 84.7787 32.41 84.7787H34.5608C33.2372 82.6929 31.9688 80.7198 30.6452 78.6903C31.8034 78.5212 32.796 78.1266 33.4578 77.2246ZM25.4061 77.1118V71.5308H26.0128C27.2812 71.5308 28.6047 71.4744 29.8732 71.5872C31.3622 71.6435 32.41 72.8274 32.41 74.3495C32.41 75.8716 31.1967 77.0555 29.7077 77.1118C28.3841 77.1682 27.0606 77.1118 25.4061 77.1118ZM46.7487 77.8447C45.8663 73.8985 42.3368 72.8838 39.6345 74.124C37.5388 75.0824 36.6013 76.9427 36.5461 79.2541C36.491 81.0017 36.9873 82.5801 38.3109 83.764C39.7999 85.117 41.6198 85.2861 43.4949 84.9479C44.5427 84.7224 45.4802 84.215 46.1972 83.4258C45.9214 83.0311 45.6457 82.6365 45.3699 82.2983C43.8258 83.6513 42.1162 84.1022 40.2411 83.2003C39.0278 82.5801 38.4212 81.058 38.3109 79.9306H46.859V79.1977C46.9141 78.6903 46.8589 78.2393 46.7487 77.8447ZM38.4212 78.7467C38.2558 77.0555 39.9102 75.2515 41.7301 75.2515C43.8258 75.1951 45.1493 76.4917 45.2045 78.7467H38.4212ZM55.3518 73.8421C54.5246 73.673 53.6422 73.6166 52.815 73.673C51.4914 73.7858 50.3333 74.4059 49.3958 75.4206C49.6715 75.8152 49.8921 76.2099 50.223 76.6609C50.3333 76.5481 50.4436 76.4354 50.5539 76.379C51.4363 75.5334 52.4841 75.0824 53.7525 75.1951C54.7452 75.2515 55.6827 75.5897 55.9585 76.6045C56.1791 77.3937 56.1239 78.2393 56.1791 79.0849C56.0136 79.0849 55.9585 79.0286 55.9033 78.9722C54.5798 77.8447 53.0908 77.6192 51.4914 78.0138C50.0024 78.4085 49.0649 79.5923 48.9546 81.1144C48.8443 82.862 49.6164 84.1586 51.1054 84.7787C52.0429 85.1734 53.0908 85.1734 54.0834 84.9479C54.8555 84.7787 55.1864 84.3277 56.2894 83.7076V84.4405H57.8335C57.8335 82.1855 57.8887 79.4232 57.8335 76.83C57.8335 75.1951 56.896 74.1804 55.3518 73.8421ZM56.1239 80.9453C56.0688 81.1144 56.1239 81.2835 56.1239 81.4527C56.1239 82.6365 55.8482 83.0311 54.7452 83.4821C53.9731 83.764 53.1459 83.8767 52.3187 83.5949C51.3811 83.313 50.7194 82.4674 50.7194 81.509C50.6642 80.5507 51.2708 79.5923 52.2084 79.3104C53.4768 78.8594 54.6349 79.1413 55.6827 79.9306C56.0136 80.2124 56.2342 80.4943 56.1239 80.9453ZM64.7271 75.3642C66.161 74.9133 67.4846 75.1951 68.4772 76.4354L68.6427 76.5481C69.0287 76.2099 69.3596 75.8716 69.8008 75.477C69.6354 75.3079 69.5802 75.1951 69.4699 75.026C67.8706 73.2784 64.7271 73.0529 62.7969 74.4623C60.0946 76.4917 60.1498 80.4379 61.4733 82.5238C62.7418 84.4969 64.5617 85.1734 66.7125 84.8915C67.9809 84.7224 69.0287 84.1022 69.8559 83.0311C69.4699 82.6929 69.0839 82.3546 68.6978 81.96C68.5875 82.0728 68.5324 82.1291 68.4772 82.2419C66.9882 83.9331 64.5065 83.764 63.183 81.96C62.4109 80.8889 62.2454 79.6487 62.466 78.4085C62.5763 76.9991 63.2933 75.8716 64.7271 75.3642ZM76.198 83.0311C76.0877 83.0875 76.0326 83.1439 76.0326 83.1439C75.5914 83.4821 75.1502 83.5385 74.6539 83.3694C74.1575 83.1439 74.1024 82.6929 74.0472 82.2419V75.8152C74.0472 75.7025 74.0472 75.928 74.1024 75.3642H76.198V73.673H73.9921V70.8543H72.3376V73.8985H70.9038C70.7935 73.8985 70.628 74.0113 70.628 74.124C70.5729 74.5186 70.628 74.8005 70.628 75.3642H72.3928V82.5801C72.3928 83.4821 72.6134 84.2714 73.3855 84.7224C74.2127 85.2297 75.812 85.117 76.5289 84.4969C76.6392 84.4405 76.6944 84.215 76.6944 84.1586C76.5289 83.8204 76.3635 83.4258 76.198 83.0311Z" fill="#191919"/>
</svg>
