<svg width="101" height="101" viewBox="0 0 101 101" fill="none" xmlns="http://www.w3.org/2000/svg">
<g clip-path="url(#clip0_2358_6351)">
<path d="M26.2744 15.9574C32.5541 15.9575 38.1728 18.9441 41.6982 23.5795L42 23.2494C45.1993 20.0827 49.5614 18.1371 54.3643 18.1371C60.9745 18.1371 66.7033 21.8012 69.7881 27.2611C72.5263 26.0397 75.4928 25.409 78.4922 25.4105C90.3905 25.4108 100.049 35.1214 100.049 47.1039C100.049 59.0862 90.3904 68.797 78.4922 68.7972C77.0379 68.7972 75.6196 68.6509 74.2314 68.3754C71.5322 73.1757 66.3729 76.4369 60.4971 76.4369C58.1048 76.4416 55.743 75.9001 53.5928 74.8539C50.8569 81.2665 44.4855 85.7738 37.0674 85.7738C29.3187 85.7738 22.7449 80.9006 20.2109 74.0482C19.0833 74.2857 17.9338 74.4053 16.7812 74.4047C7.56357 74.4047 0.108398 66.8553 0.108398 57.5844C0.108496 51.3551 3.46482 45.9319 8.44434 43.0004C7.3879 40.572 6.84489 37.9524 6.84766 35.3051C6.84766 24.605 15.5511 15.9574 26.2744 15.9574ZM58.4053 40.3109C57.3575 40.3109 56.531 40.6064 55.9512 41.1898C55.3755 41.7688 54.9835 42.6506 54.7871 43.8109L54.7168 44.2025H53.4014C53.4014 44.2025 53.241 44.1961 53.207 44.3705L52.9912 45.5726C52.9762 45.6876 53.0256 45.7598 53.1797 45.7592H54.46L53.1611 52.9935C53.0594 53.576 52.9433 54.0552 52.8145 54.4183C52.6874 54.7767 52.5629 55.0457 52.4102 55.2406C52.2622 55.4293 52.1218 55.5678 51.8799 55.6488C51.6801 55.7159 51.4502 55.7474 51.1982 55.7474C51.058 55.7474 50.8711 55.7232 50.7334 55.6957C50.5959 55.6686 50.524 55.6383 50.4209 55.5951C50.4147 55.5928 50.2698 55.541 50.2119 55.6879C50.1638 55.8106 49.8228 56.7464 49.7822 56.8627C49.7412 56.9768 49.7985 57.067 49.8711 57.0931C50.0414 57.1539 50.1685 57.1929 50.4004 57.2474C50.7227 57.3233 50.9946 57.3285 51.249 57.3285C51.782 57.3285 52.2681 57.2538 52.6709 57.1088C53.0763 56.9626 53.43 56.7075 53.7422 56.3627C54.0796 55.9908 54.2911 55.6009 54.4941 55.0697C54.695 54.5431 54.8669 53.8891 55.0039 53.1273L56.3086 45.7592H58.2168C58.2168 45.7592 58.3775 45.7648 58.4111 45.5912L58.627 44.389C58.642 44.2741 58.5931 44.2019 58.4385 44.2025H56.5859C56.5952 44.1596 56.6792 43.5102 56.8916 42.8988C56.9822 42.6377 57.1532 42.4273 57.2979 42.2826C57.4329 42.1447 57.5996 42.0409 57.7832 41.9808C57.9845 41.9187 58.1946 41.8891 58.4053 41.892C58.5796 41.892 58.7506 41.9127 58.8809 41.9398C59.0604 41.9779 59.1307 41.9982 59.1777 42.0121C59.366 42.0693 59.3917 42.0134 59.4287 41.9222L59.8711 40.7084C59.9165 40.578 59.8058 40.5233 59.7646 40.5072C59.5768 40.4506 59.3857 40.4051 59.1924 40.3715C58.9323 40.3281 58.6689 40.3081 58.4053 40.3109ZM18.0947 43.9984C16.2182 43.9984 14.9073 45.1308 14.9072 46.7504V46.7855C14.9073 48.4929 16.3537 49.0502 17.7051 49.4349L17.9229 49.5023C18.9069 49.8042 19.7587 50.0665 19.7588 50.7552V50.7894C19.7588 51.4234 19.2041 51.8969 18.3154 51.8969C17.9696 51.8968 16.8681 51.8906 15.6748 51.1381C15.5306 51.0542 15.4481 50.9939 15.3369 50.9261C15.2781 50.8906 15.1312 50.8261 15.0674 51.0179L14.6641 52.139L14.6484 52.1976C14.6229 52.314 14.6902 52.3432 14.708 52.3685C14.8957 52.5041 15.0864 52.603 15.2773 52.7133C16.2981 53.2518 17.2605 53.4095 18.2666 53.4095C20.3157 53.4095 21.5898 52.3203 21.5898 50.5687V50.5345C21.5897 48.9152 20.1506 48.3251 18.8066 47.9037L18.6299 47.847C17.613 47.5181 16.7357 47.2313 16.7354 46.5648V46.5306C16.7354 45.959 17.2497 45.5375 18.043 45.5375C18.9243 45.5375 19.9745 45.8301 20.6465 46.2006C20.6492 46.2023 20.8461 46.3274 20.918 46.1371C20.9574 46.0331 21.3001 45.1188 21.3369 45.016C21.3758 44.9087 21.3074 44.8273 21.2373 44.7855C20.4661 44.3165 19.4005 43.9974 18.2988 43.9974L18.0947 43.9984ZM48.0938 43.9955C46.2173 43.9955 44.9063 45.1279 44.9062 46.7474V46.7826C44.9064 48.4901 46.3537 49.0473 47.7051 49.432L47.9219 49.4994C48.9096 49.8013 49.7577 50.0636 49.7578 50.7523V50.7865C49.7578 51.4204 49.2032 51.8939 48.3145 51.8939C47.968 51.8939 46.8635 51.8877 45.6738 51.1351C45.5297 51.0513 45.4452 50.9935 45.3359 50.9232C45.2988 50.8998 45.1255 50.8318 45.0664 51.015L44.6631 52.1361L44.6504 52.1947C44.6248 52.3113 44.6926 52.3403 44.7109 52.3656C44.8978 52.5011 45.0884 52.6001 45.2793 52.7103C46.3001 53.2489 47.2625 53.4066 48.2686 53.4066C50.3177 53.4066 51.5928 52.3174 51.5928 50.5658V50.5316C51.5927 48.9121 50.1563 48.3221 48.8086 47.9008L48.6328 47.8441C47.6158 47.5151 46.7387 47.2285 46.7383 46.5619V46.5277C46.7383 45.9562 47.252 45.5347 48.0449 45.5345C48.9263 45.5345 49.9737 45.8272 50.6494 46.1976C50.6573 46.2026 50.8497 46.3219 50.9209 46.1342C50.9599 46.0303 51.3026 45.1164 51.3359 45.0131C51.3752 44.9057 51.3061 44.8244 51.2363 44.7826C50.4652 44.3137 49.4004 43.9945 48.2988 43.9945L48.0938 43.9955ZM62.9365 44.0267C62.2388 44.0267 61.6257 44.151 61.1006 44.3939C60.5791 44.6372 60.134 44.9723 59.7852 45.39C59.437 45.8077 59.1758 46.3064 59.0068 46.8744C58.8398 47.4387 58.7549 48.0544 58.7549 48.7103C58.7549 49.3662 58.8398 49.982 59.0068 50.5463C59.1747 51.1142 59.4363 51.6129 59.7852 52.0306C60.1344 52.4484 60.5791 52.7817 61.1006 53.0199C61.6257 53.2573 62.2426 53.3783 62.9365 53.3783C63.6306 53.3783 64.2481 53.2574 64.7695 53.0199C65.2908 52.7825 65.7352 52.4482 66.084 52.0306C66.4325 51.6129 66.6934 51.1142 66.8623 50.5463C67.029 49.982 67.1143 49.3662 67.1143 48.7103C67.1143 48.0581 67.029 47.4387 66.8623 46.8744L66.7988 46.6644C66.6312 46.1829 66.3931 45.7555 66.0879 45.39C65.7386 44.9723 65.2976 44.6358 64.7725 44.3939C64.251 44.1503 63.6342 44.0267 62.9365 44.0267ZM39.8018 44.0209C39.0784 44.0209 38.4211 44.1429 37.8887 44.391C37.3563 44.6408 36.9082 44.9807 36.5557 45.4056C36.2042 45.8307 35.9385 46.3333 35.7695 46.9086C35.601 47.4764 35.5166 48.0993 35.5166 48.7513C35.5166 49.4183 35.6041 50.0383 35.7793 50.599C35.9548 51.163 36.2382 51.6575 36.6162 52.0677C36.9981 52.4818 37.4868 52.8044 38.0742 53.0316C38.6581 53.257 39.3635 53.374 40.1787 53.3715C41.8533 53.366 42.7348 52.9939 43.0947 52.7924C43.1586 52.7564 43.2195 52.6944 43.1436 52.516L42.7656 51.4574C42.7086 51.3033 42.5543 51.3533 42.5469 51.3558C42.1319 51.5105 41.5441 51.7892 40.167 51.7855C39.271 51.7841 38.6022 51.519 38.1836 51.1039C37.7577 50.6789 37.5448 50.0593 37.5117 49.1801L43.3145 49.184C43.3206 49.1838 43.467 49.1792 43.4824 49.0336C43.4891 48.9697 43.6812 47.8447 43.3096 46.5453L43.3057 46.5443C43.1602 45.9985 42.7985 45.4456 42.5635 45.1927C42.1889 44.7933 41.8255 44.5107 41.4619 44.3568C40.937 44.1341 40.3721 44.0199 39.8018 44.0209ZM86.1846 44.0209C85.4611 44.0209 84.803 44.1429 84.2705 44.391C83.7382 44.6409 83.29 44.9807 82.9375 45.4056C82.5853 45.8307 82.3213 46.3333 82.1523 46.9086C81.9834 47.4765 81.8975 48.0992 81.8975 48.7513C81.8975 49.4183 81.9861 50.0383 82.1602 50.599C82.336 51.163 82.6193 51.6575 83.001 52.0677C83.3828 52.4818 83.8715 52.8044 84.459 53.0316C85.0429 53.257 85.7519 53.374 86.5635 53.3715C88.2381 53.366 89.1196 52.9939 89.4795 52.7924C89.5437 52.7564 89.6039 52.6944 89.5283 52.516L89.1504 51.4574C89.0943 51.3046 88.9425 51.3525 88.9326 51.3558C88.5177 51.5105 87.9297 51.7892 86.5527 51.7855C85.6531 51.7841 84.988 51.519 84.5693 51.1039C84.1434 50.6789 83.9306 50.0593 83.8975 49.1801L89.7002 49.184C89.7093 49.1837 89.8529 49.1776 89.8682 49.0336C89.8749 48.9695 90.0665 47.8445 89.6953 46.5453L89.6875 46.5443C89.5417 45.9987 89.1813 45.4457 88.9463 45.1927C88.5717 44.7933 88.2073 44.5107 87.8438 44.3568C87.3191 44.1343 86.7547 44.0199 86.1846 44.0209ZM78.7363 44.0033C78.0168 44.0033 77.3781 44.1263 76.8311 44.3695C76.2839 44.6125 75.8204 44.9488 75.4531 45.3666C75.0861 45.7842 74.8073 46.2823 74.6201 46.85C74.4347 47.4143 74.3408 48.0339 74.3408 48.6898C74.3408 50.1042 74.723 51.2511 75.4795 52.0902C76.2359 52.9329 77.374 53.3577 78.8574 53.3578C79.7349 53.3578 80.6349 53.1815 81.2812 52.9261C81.2812 52.9261 81.4049 52.8665 81.3516 52.723L80.9287 51.5648L80.9023 51.5131C80.8343 51.4142 80.7112 51.4605 80.709 51.4613C80.4604 51.5562 80.1949 51.6439 79.9121 51.6879C79.6271 51.7326 79.3098 51.7552 78.9756 51.7552C78.1495 51.7552 77.4886 51.5096 77.0186 51.0228C76.5448 50.5355 76.2805 49.7505 76.2842 48.6879C76.2868 47.7207 76.521 46.9948 76.9414 46.4379C77.3564 45.8885 77.9954 45.6029 78.8398 45.6029C79.5449 45.6029 80.0849 45.6841 80.6504 45.8607C80.6504 45.8607 80.7843 45.9194 80.8486 45.7435C80.9988 45.3295 81.1093 45.0319 81.2705 44.5775C81.3158 44.4477 81.2049 44.3931 81.1641 44.3773C80.9423 44.2908 80.4181 44.149 80.0215 44.0892C79.6507 44.0328 79.2209 44.0033 78.7363 44.0033ZM26.5449 44.0082C26.1116 44.0082 25.4099 44.0668 24.9912 44.1508C24.9753 44.1538 23.7242 44.3972 23.2061 44.8021C23.2017 44.8049 23.0931 44.8763 23.1543 45.0326L23.5654 46.1312C23.6165 46.2738 23.7559 46.225 23.7559 46.225C23.7585 46.2239 23.801 46.2074 23.8506 46.1781C24.9633 45.5735 26.374 45.5912 26.374 45.5912C26.9983 45.5912 27.4835 45.7179 27.8066 45.9652C28.1226 46.2074 28.2832 46.5738 28.2832 47.3431V47.5873C27.7953 47.5166 27.343 47.4753 27.3291 47.474L27.3232 47.4603C27.0882 47.4431 26.7834 47.4349 26.4199 47.4349C25.9242 47.4349 25.4431 47.4967 24.9951 47.6176C24.5435 47.7392 24.1359 47.9276 23.7871 48.1781C23.4373 48.4271 23.1487 48.7535 22.9453 49.1312C22.7402 49.5122 22.6357 49.9597 22.6357 50.4652C22.6358 50.9779 22.7252 51.421 22.9014 51.7836C23.0741 52.1434 23.3345 52.4547 23.6582 52.6888C23.9802 52.9226 24.3779 53.096 24.8369 53.1986C25.2922 53.3023 25.8066 53.3549 26.3721 53.3549C26.9669 53.3548 27.5581 53.3047 28.1309 53.2084C28.6188 53.1244 29.105 53.0298 29.5889 52.9252C29.7785 52.8816 29.9885 52.8247 29.9961 52.8226C30.1348 52.7875 30.1294 52.6432 30.1289 52.6342L30.125 47.3568C30.125 46.199 29.8149 45.3383 29.2031 44.807C28.5935 44.2757 27.7016 44.0082 26.5449 44.0082ZM32.1816 40.4974C32.0846 40.4976 32.0158 40.5752 32.0156 40.6713V53.0092C32.0157 53.1057 32.0846 53.1848 32.1816 53.1849H33.7178C33.8147 53.1849 33.8837 53.1058 33.8838 53.0092V40.6713C33.8836 40.5751 33.8146 40.4974 33.7178 40.4974H32.1816ZM72.9062 44.1088C72.1791 44.0633 71.7747 44.1863 71.4111 44.349C71.0521 44.5106 70.6548 44.7703 70.4346 45.0707L70.4336 44.3666C70.4335 44.27 70.3651 44.1919 70.2676 44.1918H68.7842C68.688 44.1918 68.6183 44.27 68.6182 44.3666V52.9779C68.6183 53.0243 68.6362 53.0691 68.6689 53.1019C68.7019 53.1348 68.7473 53.1536 68.7939 53.1537H70.3145C70.3609 53.1535 70.4057 53.1347 70.4385 53.1019C70.4712 53.0691 70.4893 53.0243 70.4893 52.9779V48.6547C70.4893 48.0757 70.5532 47.4999 70.6807 47.1371C70.8063 46.7783 70.9771 46.4917 71.1875 46.2865C71.3882 46.0885 71.6338 45.9413 71.9033 45.8578C72.1565 45.7853 72.4193 45.7493 72.6826 45.7494C72.9805 45.7494 73.3067 45.8241 73.3174 45.8265C73.429 45.839 73.4915 45.7707 73.5293 45.6703C73.6289 45.4057 73.9108 44.6149 73.9658 44.4574L73.9756 44.4203C73.9757 44.3993 73.971 44.3782 73.9629 44.3588C73.9548 44.3395 73.9427 44.3216 73.9277 44.307C73.9127 44.2924 73.8945 44.2814 73.875 44.2738C73.7756 44.2364 73.2841 44.1322 72.9062 44.1088ZM26.709 48.8988C27.2352 48.9082 27.7601 48.953 28.2803 49.0326V51.6595H28.2812C28.2731 51.6613 27.5421 51.818 26.7168 51.8676C25.5381 51.9382 25.0168 51.5286 25.0205 51.5297L25.0166 51.5277C24.7897 51.347 24.7579 51.3025 24.6826 51.1849C24.5678 51.008 24.5088 50.7563 24.5088 50.434C24.5088 49.9283 24.6785 49.5623 25.0273 49.3168C25.0237 49.3175 25.5265 48.8841 26.709 48.8988ZM62.9404 45.5951C63.7041 45.5951 64.2476 45.8582 64.6074 46.3978C64.9717 46.9438 65.1543 47.7209 65.1543 48.7103L65.1455 49.0677C65.1051 49.8875 64.9242 50.5455 64.6074 51.0297C64.2461 51.5756 63.7005 51.8431 62.9404 51.8431C62.1803 51.8431 61.6365 51.5781 61.2803 51.0336C60.9215 50.4839 60.7402 49.6997 60.7402 48.7103C60.7402 47.7209 60.9226 46.9438 61.2803 46.3978C61.6358 45.8556 62.1766 45.5951 62.9404 45.5951ZM39.666 45.5511C40.4262 45.5511 40.9292 45.8501 41.2891 46.391C41.5274 46.7483 41.6316 47.223 41.6709 47.7543L37.54 47.7533C37.6219 47.204 37.7731 46.7463 38.0098 46.391C38.3652 45.8487 38.9059 45.5512 39.666 45.5511ZM86.0479 45.5511C86.808 45.5511 87.312 45.8501 87.6719 46.391C87.9104 46.7482 88.0148 47.2231 88.0537 47.7543L83.9219 47.7533C84.0038 47.2041 84.1546 46.7463 84.3916 46.391C84.7466 45.8488 85.2879 45.5513 86.0479 45.5511Z" fill="#191919"/>
</g>
<defs>
<clipPath id="clip0_2358_6351">
<rect width="100" height="100" fill="white" transform="translate(0.108398 0.855835)"/>
</clipPath>
</defs>
</svg>
