<svg width="101" height="101" viewBox="0 0 101 101" fill="none" xmlns="http://www.w3.org/2000/svg">
<g clip-path="url(#clip0_2358_6313)">
<path opacity="0.7" d="M75.2478 47.9961V60.3469H71.1523V50.1051L75.2478 47.9961Z" fill="#191919"/>
<path opacity="0.7" d="M20.4395 60.6575L30.0091 55.6972L28.8289 52.6682L22.5285 55.5802L20.4395 60.6575Z" fill="#191919"/>
<path opacity="0.5" d="M71.1533 50.0944L81.5363 44.8278L79.782 41.8871L71.1533 46.0668V50.0944Z" fill="#191919"/>
<path opacity="0.7" d="M41.9119 47.0186V60.3468H38.0063V41.3649L41.9119 47.0186Z" fill="#191919"/>
<path opacity="0.5" d="M26.3578 46.2816L20.4405 60.6574L17.3965 58.0602L24.4469 41.3649L26.3578 46.2816Z" fill="#191919"/>
<path d="M24.4473 41.3649H28.4816L35.9429 60.3468H31.8131L24.4473 41.3649Z" fill="#191919"/>
<path d="M42.516 41.3649L51.1168 54.3336V60.3468L38.0063 41.3649H42.516Z" fill="#191919"/>
<path d="M62.5482 41.3649H58.4839V60.35H62.5482V41.3649Z" fill="#191919"/>
<path d="M71.153 44.8277H64.8955V41.3649H79.4684L81.5349 44.8277H75.2474H71.153Z" fill="#191919"/>
<path opacity="0.5" d="M93.5363 53.1436V60.3458H89.502V53.1436" fill="#191919"/>
<path d="M89.502 53.1435L96.3281 41.3649H100.615L93.5363 53.1435H89.502Z" fill="#191919"/>
<path opacity="0.7" d="M89.502 53.1435L82.4849 41.3649H86.899L91.6522 49.4371L89.502 53.1435Z" fill="#191919"/>
<path d="M2.25327 43.5557C2.25327 46.1985 3.92923 47.7715 7.28543 48.6011L10.8412 49.404C14.0172 50.1145 15.9506 51.8789 15.9506 54.7536C15.9753 56.0054 15.5569 57.2285 14.7661 58.2165C14.7661 55.3481 13.2425 53.7986 9.56761 52.8669L6.07621 52.0937C3.28009 51.4726 1.12237 50.022 1.12237 46.8994C1.1095 45.6934 1.50649 44.5171 2.25327 43.5557Z" fill="#191919"/>
<path opacity="0.7" d="M51.1167 53.3584V41.3649H55.0223V60.3468H51.1167V53.3584Z" fill="#191919"/>
<path opacity="0.7" d="M12.5825 54.0497C14.0986 54.9941 14.7638 56.3161 14.7638 58.2124C13.5085 59.7779 11.3025 60.6574 8.7102 60.6574C4.34649 60.6574 1.29285 58.5655 0.614746 54.9314H4.80464C5.34434 56.6 6.77244 57.3732 8.67908 57.3732C11.0063 57.3732 12.5535 56.164 12.5846 54.0422" fill="#191919"/>
<path opacity="0.7" d="M4.4325 47.4738C3.74045 47.0729 3.17178 46.4975 2.78766 45.8073C2.40462 45.117 2.22007 44.3396 2.25333 43.5558C3.4647 42.003 5.57198 41.0543 8.14064 41.0543C12.5859 41.0543 15.1578 43.3409 15.7919 46.5592H11.7608C11.3166 45.2904 10.2029 44.3024 8.1739 44.3024C6.00546 44.3024 4.52692 45.5318 4.44109 47.4738" fill="#191919"/>
</g>
<defs>
<clipPath id="clip0_2358_6313">
<rect width="100" height="100" fill="white" transform="translate(0.614746 0.855835)"/>
</clipPath>
</defs>
</svg>
