<svg width="101" height="101" viewBox="0 0 101 101" fill="none" xmlns="http://www.w3.org/2000/svg">
<g clip-path="url(#clip0_2358_6260)">
<path fill-rule="evenodd" clip-rule="evenodd" d="M22.1856 41.115H7.66016V48.4807H14.8074C15.062 48.4807 15.2686 48.6896 15.2686 48.9472V56.0758H22.6468V41.5823C22.647 41.4584 22.5985 41.3396 22.512 41.2519C22.4255 41.1642 22.3081 41.115 22.1856 41.115Z" fill="#191919"/>
<path opacity="0.405" fill-rule="evenodd" clip-rule="evenodd" d="M7.65955 41.115V48.4807H0.845361C0.751725 48.4805 0.66745 48.4232 0.631975 48.3356C0.5965 48.248 0.616841 48.1473 0.68348 48.0808L7.65955 41.115ZM15.6617 63.0493C15.5954 63.1152 15.4964 63.1345 15.4106 63.0981C15.3249 63.0618 15.269 62.9771 15.2688 62.883V56.0758H22.647L15.6617 63.0484V63.0493Z" fill="#191919"/>
<path opacity="0.405" fill-rule="evenodd" clip-rule="evenodd" d="M7.66016 48.4807H15.0392C15.1657 48.4807 15.2694 48.5847 15.2694 48.7135V56.0758H8.12219C7.86748 56.0758 7.661 55.867 7.661 55.6094V48.4807H7.66016Z" fill="#191919"/>
<path fill-rule="evenodd" clip-rule="evenodd" d="M97.0494 40.6503C97.4617 41.063 97.9482 41.2686 98.5097 41.2686C99.0889 41.2686 99.5847 41.063 99.997 40.6503C100.409 40.2376 100.615 39.7516 100.615 39.1896C100.615 38.6286 100.409 38.1374 99.997 37.7162C99.6097 37.3055 99.0708 37.0766 98.5097 37.0843C97.9482 37.0843 97.4617 37.2949 97.0494 37.7153C96.6371 38.1374 96.4314 38.6277 96.4314 39.1905C96.4314 39.7516 96.6371 40.2376 97.0494 40.6503ZM52.3129 46.0327C52.3129 46.0753 52.2775 46.1111 52.2345 46.1111H49.3383V51.5855C49.3383 52.0417 49.453 52.3751 49.6806 52.5857C49.9083 52.7964 50.2421 52.914 50.6806 52.9405C51.0819 52.9652 51.5709 52.9635 52.1485 52.9362L52.2302 52.9319C52.2515 52.9308 52.2724 52.9385 52.2878 52.9534C52.3033 52.9682 52.3121 52.9888 52.312 53.0104V55.9361C52.3123 55.9763 52.2824 56.0101 52.2429 56.0145L52.1898 56.0205C49.9217 56.2618 48.3173 56.0375 47.378 55.3485C46.4219 54.6468 45.9447 53.3924 45.9447 51.5855V46.1111H43.7323C43.6895 46.1111 43.6548 46.076 43.6548 46.0327V42.9262C43.6548 42.8836 43.6893 42.8478 43.7323 42.8478H45.9439V40.6759C45.9439 40.6128 45.981 40.5565 46.0374 40.531L49.2295 39.1265C49.2536 39.1155 49.2815 39.1176 49.3037 39.1321C49.3258 39.1466 49.3392 39.1715 49.3391 39.1982V42.8478H52.2345C52.2766 42.8478 52.312 42.8827 52.312 42.9262V46.0327H52.3129ZM58.4677 45.1117C58.7831 44.2692 59.305 43.6374 60.0326 43.2161C60.7504 42.8028 61.5622 42.5854 62.3883 42.5851C62.4313 42.5851 62.4667 42.6201 62.4667 42.6644V46.233C62.4667 46.2692 62.4515 46.3036 62.425 46.3278C62.3985 46.352 62.3631 46.3637 62.3276 46.3601C61.3487 46.2714 60.4693 46.4872 59.6903 47.0065C58.875 47.5496 58.4677 48.4535 58.4677 49.7172V55.9284C58.4677 55.9493 58.4594 55.9694 58.4447 55.9842C58.43 55.9989 58.41 56.0071 58.3893 56.0068H55.15C55.1072 56.0068 55.0724 55.9717 55.0724 55.9284V42.9254C55.0724 42.8827 55.107 42.8469 55.15 42.8469H58.3893C58.4315 42.8469 58.4669 42.8819 58.4669 42.9254V45.11L58.4677 45.1117ZM74.5176 42.8478C74.4968 42.8475 74.4769 42.8557 74.4622 42.8704C74.4474 42.8852 74.4392 42.9053 74.4392 42.9262V44.4014C73.4223 43.1198 71.9924 42.4794 70.1501 42.4794C68.3964 42.4794 66.8914 43.1505 65.6377 44.4927C64.3831 45.8348 63.7558 47.4797 63.7558 49.4273C63.7558 51.3749 64.3831 53.0198 65.6377 54.3619C66.8914 55.7041 68.3964 56.3752 70.1501 56.3752C71.9924 56.3752 73.4215 55.7348 74.4392 54.454V55.9284C74.4392 55.971 74.4746 56.0068 74.5176 56.0068H77.756C77.799 56.0068 77.8344 55.9719 77.8344 55.9284V42.9254C77.8344 42.9044 77.8262 42.8843 77.8114 42.8696C77.7967 42.8549 77.7768 42.8467 77.756 42.8469H74.5176V42.8478ZM68.1772 52.1116C68.861 52.7964 69.7286 53.1383 70.7825 53.1383C71.8347 53.1383 72.7074 52.7913 73.4004 52.098C74.0935 51.4056 74.4392 50.5154 74.4392 49.4273C74.4392 48.3392 74.0935 47.449 73.4004 46.7558C72.7074 46.0634 71.8347 45.7163 70.7817 45.7163C69.7294 45.7163 68.861 46.0634 68.1764 46.7566C67.4934 47.449 67.1503 48.3392 67.1503 49.4273C67.1503 50.5154 67.4926 51.4099 68.1772 52.1116ZM92.9231 44.4927C91.6685 43.1505 90.1551 42.4794 88.3837 42.4794C86.5415 42.4794 85.1208 43.1198 84.1208 44.4006V42.9262C84.1208 42.8829 84.0861 42.8478 84.0433 42.8478H80.804C80.7611 42.8478 80.7264 42.8829 80.7264 42.9262V61.1913C80.7264 61.2348 80.761 61.2706 80.804 61.2706H84.0433C84.0854 61.2706 84.1208 61.2348 84.1208 61.1913V54.454C85.1208 55.7348 86.5415 56.3752 88.3837 56.3752C90.1551 56.3752 91.6685 55.7041 92.9231 54.3619C94.1769 53.0198 94.8041 51.3749 94.8041 49.4273C94.8041 47.4797 94.1769 45.8348 92.9231 44.4927ZM85.1469 52.1116C85.8315 52.7964 86.6991 53.1383 87.7522 53.1383C88.8044 53.1383 89.6771 52.7913 90.3701 52.098C91.0632 51.4056 91.4097 50.5154 91.4097 49.4273C91.4097 48.3392 91.0632 47.449 90.3701 46.7558C89.6771 46.0634 88.8044 45.7163 87.7522 45.7163C86.6991 45.7163 85.8315 46.0634 85.1469 46.7566C84.4631 47.449 84.1208 48.3392 84.1208 49.4273C84.1208 50.5154 84.4631 51.4099 85.1469 52.1116ZM96.9035 56.0068C96.8607 56.0068 96.826 55.9717 96.826 55.9284V42.9254C96.826 42.8827 96.8605 42.8469 96.9035 42.8469H100.143C100.186 42.8469 100.22 42.8819 100.22 42.9254V55.9292C100.22 55.9726 100.186 56.0077 100.143 56.0077H96.9035V56.0068ZM36.3794 47.4405C35.914 47.2213 35.6821 46.9357 35.6821 46.5852C35.6821 46.2518 35.8263 45.9883 36.1163 45.7956C36.4055 45.6029 36.7697 45.5057 37.2082 45.5057C38.0488 45.5057 38.6837 45.834 39.1136 46.4897C39.1432 46.5357 39.2011 46.5536 39.2511 46.5323L42.116 45.2644C42.1361 45.2553 42.1514 45.238 42.1581 45.2169C42.1649 45.1958 42.1624 45.1727 42.1514 45.1535C42.1185 45.0979 42.0847 45.0428 42.0503 44.9881C41.5604 44.2164 40.9255 43.6408 40.1288 43.2034C39.2519 42.7207 38.2781 42.4794 37.2082 42.4794C35.7867 42.4794 34.5987 42.852 33.6417 43.5982C32.6865 44.3434 32.2084 45.3658 32.2084 46.6637C32.2084 47.524 32.4411 48.2386 32.9057 48.8091C33.3547 49.3676 33.9395 49.7984 34.6029 50.0592C35.269 50.3218 35.9359 50.5418 36.6028 50.7166C37.2689 50.8923 37.8355 51.0901 38.3 51.3092C38.7646 51.5284 38.9973 51.8132 38.9973 52.1645C38.9973 52.9192 38.3919 53.2961 37.182 53.2961C36.0295 53.2961 35.231 52.8697 34.7867 52.0187C34.7497 51.9442 34.6618 51.9118 34.586 51.9445L31.7295 53.2108C31.7103 53.2193 31.6953 53.2354 31.6879 53.2553C31.6806 53.2753 31.6816 53.2973 31.6907 53.3165L31.7228 53.3822C32.721 55.3775 34.5405 56.3752 37.182 56.3752C38.6904 56.3752 39.9492 56.0111 40.9576 55.2837C41.9668 54.5547 42.471 53.5152 42.471 52.1645C42.471 51.2692 42.2383 50.5239 41.7737 49.927C41.3357 49.351 40.7482 48.9094 40.0765 48.6513C39.4228 48.401 38.755 48.19 38.0766 48.0195C37.4097 47.8523 36.8439 47.6596 36.3794 47.4396V47.4405Z" fill="#191919"/>
</g>
<defs>
<clipPath id="clip0_2358_6260">
<rect width="100" height="100" fill="white" transform="translate(0.614746 0.10022)"/>
</clipPath>
</defs>
</svg>
