<svg width="101" height="101" viewBox="0 0 101 101" fill="none" xmlns="http://www.w3.org/2000/svg">
<g clip-path="url(#clip0_2358_6339)">
<path fill-rule="evenodd" clip-rule="evenodd" d="M100.831 51.5535C100.831 44.4085 97.3868 38.7706 90.8035 38.7706C84.1924 38.7706 80.1924 44.4085 80.1924 51.4976C80.1924 59.8986 84.9146 64.1409 91.6924 64.1409C94.9979 64.1409 97.4979 63.3873 99.3868 62.3268V56.7447C97.4979 57.6937 95.3313 58.2798 92.5813 58.2798C89.8868 58.2798 87.4979 57.3309 87.1924 54.0375H100.776C100.776 53.6746 100.831 52.2233 100.831 51.5535ZM87.109 48.902C87.109 45.7482 89.0257 44.4364 90.7757 44.4364C92.4702 44.4364 94.2757 45.7482 94.2757 48.902H87.109Z" fill="#191919"/>
<path fill-rule="evenodd" clip-rule="evenodd" d="M69.4694 38.7706C66.7472 38.7706 64.9972 40.0545 64.025 40.9476L63.6638 39.2172H57.5527V71.7604L64.4972 70.2811L64.525 62.3826C65.525 63.1082 66.9972 64.1409 69.4416 64.1409C74.4138 64.1409 78.9416 60.1219 78.9416 51.2744C78.9138 43.1804 74.3305 38.7706 69.4694 38.7706ZM67.8027 58.0007C66.1638 58.0007 65.1916 57.4146 64.525 56.6889L64.4972 46.3343C65.2194 45.5249 66.2194 44.9667 67.8027 44.9667C70.3305 44.9667 72.0805 47.8135 72.0805 51.4697C72.0805 55.2097 70.3583 58.0007 67.8027 58.0007Z" fill="#191919"/>
<path fill-rule="evenodd" clip-rule="evenodd" d="M47.998 37.1241L54.9703 35.6169V29.9512L47.998 31.4304V37.1241Z" fill="#191919"/>
<path d="M54.9703 39.2452H47.998V63.6666H54.9703V39.2452Z" fill="#191919"/>
<path fill-rule="evenodd" clip-rule="evenodd" d="M40.526 41.3105L40.0815 39.2452H34.0815V63.6665H41.026V47.1158C42.6649 44.9667 45.4427 45.3575 46.3038 45.6645V39.2452C45.4149 38.9102 42.1649 38.2962 40.526 41.3105Z" fill="#191919"/>
<path fill-rule="evenodd" clip-rule="evenodd" d="M26.6361 33.1886L19.8583 34.6399L19.8306 56.9959C19.8306 61.1266 22.9139 64.1688 27.025 64.1688C29.3028 64.1688 30.9695 63.7502 31.8861 63.2478V57.582C30.9972 57.9449 26.6083 59.2287 26.6083 55.098V45.1899H31.8861V39.2451H26.6083L26.6361 33.1886Z" fill="#191919"/>
<path fill-rule="evenodd" clip-rule="evenodd" d="M7.85883 46.3343C7.85883 45.2458 8.74772 44.8271 10.2199 44.8271C12.3311 44.8271 14.9977 45.4691 17.1088 46.6134V40.0545C14.8033 39.1335 12.5255 38.7706 10.2199 38.7706C4.58106 38.7706 0.831055 41.7291 0.831055 46.6692C0.831055 54.3724 11.3866 53.1443 11.3866 56.4656C11.3866 57.7495 10.2755 58.1682 8.71994 58.1682C6.41439 58.1682 3.46994 57.2192 1.13661 55.9353V62.5779C3.71994 63.6944 6.33106 64.1688 8.71994 64.1688C14.4977 64.1688 18.4699 61.2941 18.4699 56.2982C18.4422 47.981 7.85883 49.4602 7.85883 46.3343Z" fill="#191919"/>
</g>
<defs>
<clipPath id="clip0_2358_6339">
<rect width="100" height="100" fill="white" transform="translate(0.831055 0.855835)"/>
</clipPath>
</defs>
</svg>
