<svg width="101" height="101" viewBox="0 0 101 101" fill="none" xmlns="http://www.w3.org/2000/svg">
<g clip-path="url(#clip0_2358_6311)">
<g clip-path="url(#clip1_2358_6311)">
<path d="M100.403 58.6057L98.0522 58.9236C98.0522 58.9236 97.8955 57.9698 97.1118 57.3338C96.3281 56.6979 93.6635 56.8569 93.6635 58.4467C93.6635 59.8775 94.7607 59.7185 96.955 60.1955C98.9927 60.6724 100.717 61.3083 100.717 64.17C100.717 65.7598 99.6196 67.6676 96.1713 67.6676C90.5287 67.6676 90.9989 63.3751 90.9989 63.3751H93.5068C93.5068 63.3751 93.6635 64.8059 94.604 65.1239C95.7011 65.6008 97.582 65.4418 97.8955 64.488C98.209 63.5341 98.209 62.4212 95.2309 62.1033C92.2529 61.6263 90.9989 60.3545 90.9989 58.2877C91.1557 56.38 92.2529 54.7902 96.1713 54.7902C100.09 54.9491 100.403 58.6057 100.403 58.6057ZM89.5883 58.6057L87.2372 58.9236C87.2372 58.9236 87.0804 57.9698 86.2967 57.3338C85.513 56.6979 82.8485 56.8569 82.8485 58.4467C82.8485 59.8775 83.9456 59.7185 86.14 60.1955C88.1776 60.6724 89.9018 61.3083 89.9018 64.17C89.9018 65.7598 88.8046 67.6676 85.3563 67.6676C79.7137 67.6676 80.1839 63.3751 80.1839 63.3751H82.8485C82.8485 63.3751 83.0052 64.8059 83.9456 65.1239C85.0428 65.6008 86.9237 65.4418 87.2372 64.488C87.5507 63.5341 87.5507 62.4212 84.5726 62.1033C81.908 61.7853 80.4974 60.6724 80.4974 58.9236V58.2877C80.6541 56.38 81.7513 54.7902 85.513 54.7902C89.118 54.9491 89.5883 58.6057 89.5883 58.6057ZM76.2654 63.0571H78.93V63.2161C78.7732 64.17 78.303 67.5086 73.7576 67.5086C69.6823 67.5086 68.2717 64.329 68.2717 60.9904C68.2717 57.4928 70.3093 54.9491 74.071 54.9491C78.303 54.9491 78.6165 59.0826 78.6165 59.0826L76.1087 59.4006C76.1087 59.4006 75.9519 57.1749 73.7576 57.1749C71.5632 57.1749 70.7795 58.9236 70.7795 60.9904C70.7795 63.0571 71.4065 65.4418 73.6008 65.4418C75.7952 65.4418 76.2654 63.0571 76.2654 63.0571ZM62.9425 55.2671V67.3496H60.7481V66.2367C60.7481 66.2367 59.9644 67.6676 58.0836 67.6676C56.046 67.6676 54.6353 66.7137 54.4786 63.0571C54.4786 59.2416 56.8297 58.2877 58.397 58.2877C59.8077 58.2877 60.7481 59.4006 60.7481 59.4006V55.2671H62.9425ZM60.7481 62.8982C60.7481 61.6263 60.5914 60.1955 58.7105 60.1955C56.8297 60.1955 56.8297 62.4212 56.8297 63.0571C56.8297 63.852 56.9864 65.6008 58.7105 65.6008C60.4347 65.6008 60.7481 64.17 60.7481 62.8982ZM52.7544 61.3084V67.1906H50.4033V61.4673C50.4033 60.6724 49.9331 60.0365 48.9927 60.0365C48.0522 60.0365 47.1118 60.8314 47.1118 61.6263V67.1906H44.7607V58.2877H47.1118V59.5596C47.1118 59.5596 47.8955 57.9698 50.2466 58.1287C52.9112 58.4467 52.7544 60.9904 52.7544 61.3084ZM40.5287 58.4467H42.8798V67.3496H40.5287V58.4467ZM40.5287 55.2671H42.8798V57.3338H40.5287V55.2671ZM39.5883 58.4467L37.0804 67.3496H34.7293L33.1619 61.4673L31.5945 67.3496H29.4002L26.8923 58.4467H29.4002L30.6541 64.17L32.3782 58.4467H34.4159L35.8265 64.329L37.0804 58.4467H39.5883ZM23.4441 55.1081H25.7952V67.1906H23.4441V55.1081ZM19.2121 58.4467H21.5632V67.3496H19.2121V58.4467ZM19.2121 55.2671H21.5632V57.3338H19.2121V55.2671ZM17.3312 61.6263V67.1906H15.1369V66.0778C15.1369 66.0778 14.5099 66.8727 13.5695 67.1906C12.1588 67.6676 10.1212 67.3496 9.49423 65.7598C9.02401 64.488 9.49423 63.0571 10.7481 62.4212C12.3155 61.6263 14.9801 61.7853 14.9801 61.7853C14.9801 61.7853 15.1369 61.1494 14.8234 60.6724C14.6666 60.1955 14.1964 60.0365 13.5695 60.0365C12.0021 60.0365 12.0021 61.1494 12.0021 61.1494L9.80771 60.9904C9.80771 60.9904 9.80771 59.8775 10.9049 59.0826C11.5318 58.6057 12.3155 58.4467 13.7262 58.4467C15.4503 58.4467 17.3312 59.0826 17.3312 61.6263ZM13.7262 65.6008C15.2936 65.2829 15.1369 63.3751 15.1369 63.3751H14.5099C14.0397 63.3751 13.4127 63.3751 12.9425 63.5341C12.1588 63.6931 11.8453 64.011 11.6886 64.329C11.5318 64.8059 11.6886 65.2829 12.1588 65.6008C12.4723 65.7598 12.9425 65.7598 13.7262 65.6008ZM10.4347 55.1081V57.4928H6.82965V67.3496H4.16507V57.3338H0.716797V55.1081H10.4347Z" fill="#191919"/>
<path d="M68.2717 36.1895C68.2717 36.1895 66.0774 39.5281 62.3156 38.8922C58.5539 38.2562 57.9269 32.533 51.1871 32.533C42.8799 32.533 41.9395 39.6871 41.9395 39.6871C41.9395 39.6871 44.2906 36.1895 47.8956 36.8254C51.5006 37.4613 52.9112 43.1846 60.278 43.1846C67.6448 43.1846 68.2717 36.1895 68.2717 36.1895Z" fill="#191919"/>
<path d="M59.4944 46.8412C59.4944 46.8412 57.3 50.1798 53.5383 49.5439C49.7765 48.908 49.1496 43.1847 42.4098 43.1847C34.1025 43.1847 33.1621 50.3388 33.1621 50.3388C33.1621 50.3388 35.5132 46.8412 39.1182 47.4772C42.5665 48.1131 44.1339 53.8364 51.5007 53.8364C58.8674 53.8364 59.4944 46.8412 59.4944 46.8412Z" fill="#191919"/>
</g>
</g>
<defs>
<clipPath id="clip0_2358_6311">
<rect width="100" height="100" fill="white" transform="translate(0.716797 0.10022)"/>
</clipPath>
<clipPath id="clip1_2358_6311">
<rect width="100" height="35.1351" fill="white" transform="translate(0.716797 32.5327)"/>
</clipPath>
</defs>
</svg>
