<svg width="101" height="101" viewBox="0 0 101 101" fill="none" xmlns="http://www.w3.org/2000/svg">
<g clip-path="url(#clip0_2336_10630)">
<path d="M28.9567 42.5382C28.9567 43.7781 29.0901 44.7831 29.3228 45.5202C29.6182 46.3495 29.9739 47.1557 30.3869 47.9323C30.5532 48.2003 30.6195 48.4683 30.6195 48.703C30.6195 49.0378 30.4202 49.3729 29.9878 49.7081L27.8927 51.1151C27.5933 51.3163 27.294 51.4167 27.0275 51.4167C26.6952 51.4167 26.3625 51.2491 26.0298 50.9475C25.5813 50.4628 25.1804 49.9355 24.8327 49.3729C24.5 48.8038 24.1673 48.1667 23.8016 47.3964C21.2071 50.4784 17.9477 52.0195 14.0234 52.0198C11.2299 52.0198 9.00131 51.2155 7.37148 49.6077C5.74204 47.9991 4.91064 45.855 4.91064 43.1749C4.91064 40.3273 5.9084 38.0156 7.93725 36.2734C9.96571 34.5312 12.66 33.6602 16.0856 33.6602C17.2164 33.6602 18.3805 33.7605 19.6109 33.9281C20.8417 34.0957 22.1055 34.3637 23.436 34.6652V32.2195C23.436 29.6731 22.9035 27.8977 21.8724 26.859C20.8084 25.8204 19.0122 25.3176 16.4513 25.3176C15.2872 25.3176 14.0901 25.452 12.8593 25.7536C11.6285 26.0551 10.4314 26.4235 9.26733 26.8926C8.7353 27.127 8.33627 27.261 8.10322 27.3282C7.87016 27.3953 7.70419 27.4285 7.57119 27.4285C7.10546 27.4285 6.8728 27.0934 6.8728 26.3899V24.7481C6.8728 24.2122 6.9395 23.8102 7.10546 23.5758C7.27182 23.3411 7.57119 23.1067 8.03691 22.8723C9.20089 22.2689 10.5977 21.7663 12.2272 21.3645C13.8575 20.929 15.5869 20.7282 17.4161 20.7282C21.3741 20.7282 24.2677 21.6325 26.1302 23.4419C27.9594 25.2508 28.8908 27.9981 28.8908 31.6836V42.5382H28.9567ZM15.4535 47.6308C16.5513 47.6308 17.6821 47.43 18.8792 47.0276C20.0766 46.6257 21.1411 45.8886 22.0388 44.8835C22.5712 44.2472 22.9702 43.5437 23.1695 42.7394C23.3693 41.9355 23.5023 40.9636 23.5023 39.8246V38.4175C22.4936 38.1704 21.472 37.9803 20.4423 37.848C19.4054 37.7155 18.3613 37.6483 17.316 37.6468C15.0875 37.6468 13.458 38.0824 12.3606 38.9871C11.2632 39.8918 10.7308 41.1648 10.7308 42.8398C10.7308 44.4144 11.1298 45.587 11.9612 46.3913C12.7597 47.2288 13.9238 47.6308 15.4535 47.6308ZM42.1606 51.2491C41.5619 51.2491 41.1628 51.1487 40.8968 50.9139C40.6308 50.7132 40.3977 50.244 40.1984 49.6077L32.3828 23.7098C32.1827 23.0395 32.083 22.604 32.083 22.3696C32.083 21.8337 32.349 21.5317 32.8814 21.5317H36.1407C36.7724 21.5317 37.2052 21.6325 37.4378 21.8669C37.7038 22.068 37.9036 22.5372 38.1029 23.1735L43.6904 45.3527L48.8788 23.1735C49.0452 22.5036 49.2449 22.068 49.5105 21.8669C49.7769 21.6661 50.2426 21.5321 50.8414 21.5321H53.5019C54.1336 21.5321 54.5664 21.6325 54.832 21.8669C55.0984 22.068 55.3311 22.5372 55.4641 23.1735L60.7192 45.6206L66.4727 23.1735C66.672 22.5036 66.9051 22.068 67.1377 21.8669C67.4037 21.6661 67.8361 21.5321 68.4348 21.5321H71.5278C72.0602 21.5321 72.3596 21.8001 72.3596 22.3696C72.3596 22.5372 72.3262 22.7047 72.2928 22.9055C72.2595 23.1063 72.1932 23.3747 72.0602 23.7434L64.0444 49.6409C63.8451 50.3112 63.6123 50.7468 63.346 50.9475C63.08 51.1487 62.6477 51.2827 62.0827 51.2827H59.2224C58.5903 51.2827 58.158 51.1823 57.8916 50.9475C57.6255 50.7132 57.3929 50.2776 57.2599 49.6077L52.1044 27.9981L46.9826 49.5737C46.8166 50.244 46.6169 50.6796 46.3509 50.9139C46.0849 51.1487 45.6192 51.2491 45.0208 51.2491H42.1606ZM84.8983 52.1538C83.1689 52.1538 81.4394 51.9526 79.7766 51.5507C78.1134 51.1487 76.8167 50.7128 75.9519 50.2108C75.4195 49.9089 75.0534 49.5741 74.9208 49.2726C74.7915 48.9768 74.7235 48.6575 74.7211 48.3343V46.6257C74.7211 45.9222 74.9871 45.587 75.4862 45.587C75.6899 45.5878 75.8921 45.6218 76.0849 45.6878C76.2842 45.755 76.5836 45.8886 76.9163 46.0226C78.0909 46.5434 79.3173 46.9365 80.5746 47.1952C81.8774 47.4613 83.2033 47.596 84.5327 47.5972C86.6278 47.5972 88.2577 47.2288 89.3884 46.4917C90.5192 45.7546 91.1179 44.6827 91.1179 43.3089C91.1179 42.371 90.8186 41.6003 90.2198 40.9636C89.6211 40.3269 88.4903 39.7578 86.8609 39.2214L82.0381 37.714C79.6102 36.9433 77.8144 35.8043 76.7166 34.2965C75.6192 32.8223 75.0538 31.1809 75.0538 29.4387C75.0538 28.0317 75.3532 26.792 75.9519 25.7196C76.5503 24.6477 77.3487 23.7098 78.3465 22.9727C79.3442 22.202 80.475 21.6325 81.8054 21.2305C83.1355 20.8286 84.5323 20.661 85.9958 20.661C86.7275 20.661 87.4926 20.6946 88.2243 20.795C88.9894 20.8954 89.6878 21.0294 90.3862 21.1633C91.0512 21.3309 91.6833 21.4985 92.282 21.6997C92.8805 21.9005 93.3461 22.1014 93.6788 22.3024C94.1445 22.5708 94.4768 22.8387 94.6766 23.1403C94.8761 23.4083 94.9759 23.7767 94.9759 24.2458V25.8204C94.9759 26.5239 94.7099 26.8926 94.2108 26.8926C93.9448 26.8926 93.5124 26.7582 92.9475 26.4903C91.0511 25.6192 88.9224 25.1836 86.5615 25.1836C84.6657 25.1836 83.1689 25.4852 82.1378 26.1219C81.107 26.7582 80.5746 27.7301 80.5746 29.1035C80.5746 30.0418 80.9073 30.8457 81.5724 31.4824C82.2374 32.1191 83.4682 32.7555 85.2311 33.325L89.9538 34.8328C92.3483 35.6035 94.0778 36.6754 95.1089 38.0488C96.14 39.4222 96.6391 40.9972 96.6391 42.7394C96.6391 44.18 96.3393 45.4866 95.774 46.6257C95.1756 47.7648 94.3772 48.7698 93.3461 49.5741C92.315 50.4116 91.0846 51.0147 89.6544 51.4503C88.1576 51.9194 86.5945 52.1538 84.8983 52.1538Z" fill="#191919"/>
<path d="M91.1847 68.4357C80.2428 76.577 64.3447 80.8989 50.6755 80.8989C31.5181 80.8989 14.257 73.7626 1.21948 61.9025C0.188377 60.9646 1.11943 59.6916 2.34985 60.4283C16.4518 68.6704 33.8463 73.6622 51.8396 73.6622C63.979 73.6622 77.3158 71.1161 89.5886 65.8896C91.4178 65.0517 92.9809 67.0958 91.1847 68.4357ZM95.7415 63.2091C94.3447 61.4002 86.4953 62.338 82.9367 62.7736C81.8722 62.908 81.7059 61.9697 82.6707 61.2662C88.9232 56.8435 99.2005 58.117 100.398 59.5908C101.595 61.0986 100.065 71.4509 94.2113 76.4095C93.3136 77.1802 92.4489 76.7782 92.8479 75.7731C94.178 72.456 97.1383 64.9849 95.7415 63.2091Z" fill="#191919"/>
</g>
<defs>
<clipPath id="clip0_2336_10630">
<rect width="100" height="100" fill="white" transform="translate(0.776367 0.779968)"/>
</clipPath>
</defs>
</svg>
