<svg width="101" height="101" viewBox="0 0 101 101" fill="none" xmlns="http://www.w3.org/2000/svg">
<g clip-path="url(#clip0_2336_10648)">
<path d="M72.5016 60.7767C70.2817 60.6344 68.9912 59.3716 68.6497 57.0093C68.5586 56.3808 68.5586 56.3645 68.5489 52.2849L68.5399 48.3362H70.5045L70.5118 52.1556C70.5192 55.5977 70.5232 56.0018 70.5566 56.2433C70.6899 57.2264 70.9558 57.8875 71.4096 58.3616C71.7722 58.7414 72.1967 58.9634 72.7846 59.0813C73.0611 59.1374 73.8507 59.1374 74.1036 59.0813C74.6709 58.9651 75.191 58.6832 75.5982 58.2714C76.0787 57.7916 76.4341 57.111 76.6065 56.3417L76.6634 56.0823L76.6699 52.2312L76.6764 48.3785H78.6825V60.4897H76.6975V59.5285C76.6975 58.8763 76.6902 58.5706 76.6748 58.5755C76.6299 58.6282 76.5919 58.6864 76.5617 58.7487C76.1998 59.3915 75.6686 59.9228 75.0257 60.2847C74.2776 60.6954 73.527 60.8417 72.5016 60.7767ZM95.0261 60.7669C94.2176 60.7 93.436 60.4449 92.7436 60.0221C91.3222 59.1439 90.4814 57.6965 90.2358 55.7058C90.1504 55.0163 90.1399 54.0909 90.2114 53.5054C90.37 52.1962 90.8847 50.9115 91.6182 49.995C91.8052 49.7592 92.2321 49.3339 92.4671 49.1461C93.1009 48.6398 93.8426 48.2862 94.635 48.1126C95.0952 48.0126 95.9052 47.9654 96.3939 48.0101C97.6217 48.124 98.7455 48.7013 99.5099 49.6096C100.287 50.5325 100.713 51.8222 100.769 53.4103C100.777 53.7336 100.779 54.057 100.773 54.3804L100.762 54.8976L96.4638 54.9024L92.1654 54.9081V55.1C92.1654 55.6831 92.3069 56.3474 92.5525 56.9134C92.7639 57.4005 93.129 57.9323 93.4266 58.19C94.0383 58.7182 94.8008 59.0403 95.6059 59.1105C95.91 59.139 96.6842 59.1089 97.0297 59.0561C98.0177 58.904 98.9569 58.5169 99.714 57.9502C99.8034 57.8827 99.8888 57.8201 99.9043 57.8111C99.9262 57.7973 99.9319 57.9713 99.9311 58.7056V59.6163L99.727 59.7424C98.8497 60.2777 97.8673 60.6177 96.8468 60.7393C96.5362 60.7775 95.3977 60.7946 95.0261 60.7669ZM98.7667 53.0785C98.7667 52.1019 98.3544 51.0164 97.7714 50.4577C97.3552 50.0592 96.8239 49.8019 96.2532 49.7226C95.9702 49.6787 95.3742 49.6958 95.0757 49.7551C94.4663 49.8719 93.9061 50.1694 93.4681 50.609C92.9868 51.0862 92.6224 51.6685 92.4037 52.3101C92.3224 52.5459 92.2281 52.9322 92.198 53.1468L92.1841 53.2493H98.7667V53.0785ZM40.4592 60.462L43.7028 51.9507L46.9376 43.4662H49.016L49.1022 43.6857C49.3657 44.3615 55.5774 60.471 55.5774 60.4791C55.5774 60.4848 55.0797 60.4888 54.4715 60.4888H53.3656L52.4711 58.1079L51.575 55.727H44.3656L44.3347 55.8083C44.3176 55.8522 43.9346 56.924 43.4841 58.1884L42.6661 60.4888H41.5577C40.6811 60.4888 40.4518 60.484 40.4592 60.462ZM50.9172 53.9104C50.9172 53.9063 50.3154 52.2751 49.5787 50.2837C48.2012 46.5611 48.124 46.3366 48.015 45.739C47.9638 45.4592 47.9378 45.4511 47.9077 45.7064C47.8656 45.9836 47.8031 46.2573 47.7207 46.5253C47.6841 46.6383 47.0636 48.3386 46.3415 50.3048C45.8999 51.5015 45.4622 52.6995 45.0283 53.899C45.0283 53.9088 46.3537 53.9169 47.9727 53.9169C49.5917 53.9169 50.9172 53.9136 50.9172 53.9104ZM56.2458 60.1798V59.8692L59.8375 54.9374L63.4292 50.0056L60.1766 49.995L56.9256 49.9845L56.9199 49.1599L56.9142 48.3362H66.3208V48.8924L62.7291 53.851C60.7531 56.5784 59.1366 58.8145 59.1366 58.8194C59.1366 58.8243 60.7336 58.83 62.6852 58.83H66.2346V60.4888H56.2458V60.1798ZM82.6011 60.475C82.5929 60.4669 82.5872 57.7322 82.5872 54.3983V48.3354H84.5502V49.5852C84.5502 50.2731 84.5583 50.835 84.5681 50.835C84.5787 50.835 84.6266 50.7228 84.6746 50.5854C84.902 49.9443 85.2779 49.3661 85.7716 48.8981C86.196 48.4866 86.7379 48.2174 87.3223 48.128C87.4906 48.1012 87.6329 48.0955 87.9695 48.1044C88.3924 48.1158 88.6127 48.1467 88.8697 48.2305L88.951 48.2565V50.2926L88.7193 50.1772C88.3176 49.9736 87.8681 49.8837 87.419 49.917C87.1027 49.9332 86.8954 49.9739 86.6425 50.0682C86.1293 50.2575 85.694 50.6126 85.4057 51.0773C84.9655 51.7952 84.6854 52.5995 84.5844 53.4355C84.5681 53.5794 84.5592 54.7544 84.5551 57.0695L84.5494 60.4905H83.5826C83.0507 60.4905 82.6092 60.4831 82.6011 60.475Z" fill="#191919"/>
<path d="M11.9526 34.986H21.873L11.5749 65.4981C11.4692 65.8117 11.2677 66.0843 10.9988 66.2773C10.73 66.4703 10.4073 66.5742 10.0763 66.5741H2.35606C2.10532 66.5741 1.85818 66.5144 1.63508 66.4C1.41198 66.2855 1.21931 66.1196 1.07301 65.916C0.926644 65.7124 0.830921 65.4768 0.793775 65.2289C0.756628 64.9809 0.779128 64.7276 0.859408 64.4901L10.454 36.0618C10.5599 35.7482 10.7614 35.4757 11.0302 35.2826C11.2991 35.0895 11.6216 34.9856 11.9526 34.9855V34.986Z" fill="#393939"/>
<path d="M26.3682 55.4522H10.6377C10.4914 55.4518 10.3484 55.4956 10.2273 55.5777C10.1063 55.6599 10.0128 55.7766 9.95906 55.9126C9.90533 56.0487 9.89386 56.1978 9.92614 56.3405C9.95842 56.4832 10.033 56.6128 10.14 56.7125L20.2484 66.1476C20.5431 66.4218 20.9306 66.5743 21.3331 66.5745H30.2405L26.3682 55.4522Z" fill="#191919"/>
<path d="M11.9526 34.9855C11.618 34.9841 11.2916 35.0898 11.0214 35.2871C10.7511 35.4844 10.5511 35.7631 10.4506 36.0823L0.871321 64.4638C0.785863 64.7022 0.759067 64.9577 0.7932 65.2086C0.827333 65.4596 0.92139 65.6987 1.06742 65.9056C1.21345 66.1126 1.40716 66.2813 1.63217 66.3976C1.85719 66.5139 2.10689 66.5742 2.36017 66.5736H10.2799C10.5749 66.521 10.8506 66.391 11.0788 66.1969C11.3071 66.0028 11.4797 65.7515 11.579 65.4688L13.4892 59.839L20.3129 66.2033C20.5988 66.4398 20.9574 66.5706 21.3285 66.5736H30.203L26.3107 55.4509L14.9644 55.4536L21.9088 34.9855H11.9526Z" fill="#191919"/>
<path d="M24.6238 36.0598C24.5181 35.7467 24.3168 35.4747 24.0483 35.2819C23.7798 35.0892 23.4577 34.9855 23.1272 34.9855H12.0713C12.4017 34.9856 12.7238 35.0893 12.9923 35.282C13.2607 35.4747 13.4619 35.7467 13.5677 36.0598L23.1625 64.4893C23.2429 64.7269 23.2654 64.9803 23.2284 65.2283C23.1913 65.4764 23.0957 65.7121 22.9495 65.9158C22.8032 66.1196 22.6105 66.2856 22.3874 66.4001C22.1642 66.5145 21.917 66.5742 21.6661 66.5741H32.7225C32.9732 66.5739 33.2203 66.5141 33.4434 66.3995C33.6664 66.285 33.8589 66.119 34.0051 65.9153C34.1513 65.7116 34.2469 65.4761 34.284 65.2281C34.3212 64.9802 34.2988 64.7269 34.2187 64.4893L24.6238 36.0598Z" fill="#191919"/>
</g>
<defs>
<clipPath id="clip0_2336_10648">
<rect width="100" height="100" fill="white" transform="translate(0.776367 0.779968)"/>
</clipPath>
</defs>
</svg>
