<svg width="101" height="101" viewBox="0 0 101 101" fill="none" xmlns="http://www.w3.org/2000/svg">
<g clip-path="url(#clip0_2336_10643)">
<path d="M25.7691 51.6714C25.739 52.0038 25.6939 52.3362 25.6336 52.6686C25.5734 53.001 25.4981 53.3184 25.4078 53.6508C25.3175 53.953 25.2121 54.24 25.0766 54.5271C24.911 54.8898 24.6701 55.2222 24.384 55.4941C24.098 55.7661 23.7667 55.9928 23.4054 56.159C23.1344 56.295 22.8483 56.3856 22.5623 56.4612C22.2762 56.5367 21.9751 56.582 21.689 56.6123C21.3879 56.6425 21.1019 56.6576 20.7857 56.6576H14.8989V44.7965H19.9125C20.3943 44.7965 20.8911 44.8267 21.3879 44.8721C21.8697 44.9174 22.3515 45.0232 22.8182 45.1894C23.2699 45.3556 23.6914 45.5822 24.0678 45.8693C24.4442 46.1564 24.7604 46.5492 25.0163 47.0176C25.2873 47.5465 25.4831 48.166 25.6186 48.8459C25.739 49.4805 25.8143 50.1151 25.8143 50.7648C25.8143 51.0217 25.7992 51.339 25.7691 51.6714ZM22.8784 49.269C22.7731 48.7552 22.6074 48.3019 22.3665 47.9242C22.0805 47.4709 21.7192 47.1838 21.2825 47.0478C20.8309 46.927 20.3491 46.8514 19.8824 46.8665H17.3831V54.5725H19.8824C20.1985 54.5725 20.5147 54.5422 20.8309 54.4818C21.1771 54.4214 21.4783 54.3307 21.7192 54.1947C21.9751 54.0436 22.1859 53.8321 22.3515 53.5601C22.5171 53.273 22.6526 52.9708 22.7429 52.6384C22.8333 52.306 22.9086 51.9736 22.9387 51.6261C22.9838 51.3239 22.9989 51.0217 22.9989 50.7195C23.029 50.236 22.9688 49.7525 22.8784 49.269ZM30.1804 56.6274C29.8643 56.6274 29.5331 56.6274 29.2169 56.6123C28.9007 56.6123 28.5845 56.5669 28.2684 56.4763C27.7264 56.3403 27.3048 56.023 27.0188 55.5546C26.7327 55.1013 26.5972 54.5876 26.5972 54.0587C26.5972 53.6357 26.6875 53.2277 26.8531 52.8348C27.0188 52.442 27.2898 52.0945 27.621 51.8376C27.7866 51.7167 27.9673 51.6261 28.178 51.5656C28.4039 51.5052 28.6147 51.4599 28.8405 51.4296C29.0663 51.3994 29.2922 51.3843 29.518 51.3692C29.7438 51.3692 29.9546 51.3541 30.1353 51.3541H33.0561V51.2181C33.0561 50.9159 33.0109 50.6591 32.9356 50.4777C32.8604 50.2964 32.7399 50.1604 32.5743 50.0547C32.3936 49.9489 32.1979 49.8885 32.0022 49.8582C31.7613 49.828 31.5054 49.8129 31.2645 49.8129H27.2596V47.9695H31.2645C31.4301 47.9695 31.5957 47.9695 31.7462 47.9846C31.9119 47.9846 32.0624 47.9998 32.228 47.9998C32.9658 48.03 33.583 48.1811 34.0949 48.4682C34.6068 48.7552 34.9832 49.269 35.2241 50.0093C35.3144 50.2964 35.3747 50.5835 35.3897 50.8857C35.4048 51.1728 35.4198 51.4599 35.4198 51.7772V56.6425L30.1804 56.6274ZM33.0711 53.2277H29.9245C29.6686 53.2277 29.4578 53.2881 29.2922 53.4241C29.1266 53.5601 29.0362 53.7565 29.0362 54.0285C29.0362 54.2098 29.0814 54.3609 29.1567 54.4667C29.2319 54.5725 29.3373 54.648 29.4578 54.6933C29.5933 54.7387 29.7288 54.7689 29.8793 54.784C30.0299 54.7991 30.1804 54.7991 30.331 54.7991H33.0862C33.0711 54.784 33.0711 53.2277 33.0711 53.2277ZM40.6592 56.6425C40.072 56.6425 39.5451 56.5367 39.0784 56.3252C38.6116 56.1136 38.2654 55.7208 38.0395 55.1315C37.9492 54.8595 37.889 54.5573 37.8589 54.2703C37.8287 53.9832 37.8287 53.681 37.8287 53.3939V49.828H36.3232V47.9695H37.8287V44.7965H40.1925V47.9695H42.3756V49.8129H40.1774V52.9557C40.1774 53.1521 40.1774 53.3788 40.1925 53.6659C40.1925 53.953 40.2678 54.1796 40.3732 54.3458C40.4785 54.4818 40.614 54.6027 40.7797 54.6631C40.9453 54.7235 41.1259 54.7689 41.3066 54.784C41.5023 54.7991 41.683 54.7991 41.8787 54.7991C42.0744 54.784 42.2401 54.784 42.3756 54.784V56.6274L40.6592 56.6425ZM46.6363 56.6274C46.3201 56.6274 45.9889 56.6274 45.6728 56.6123C45.3566 56.6123 45.0404 56.5669 44.7242 56.4763C44.1822 56.3403 43.7607 56.023 43.4897 55.5546C43.2036 55.1013 43.0681 54.5876 43.0681 54.0587C43.0681 53.6357 43.1584 53.2277 43.3241 52.8348C43.4897 52.442 43.7607 52.0945 44.0919 51.8376C44.2575 51.7167 44.4382 51.6261 44.649 51.5656C44.8597 51.5052 45.0856 51.4448 45.3114 51.4145C45.5373 51.3843 45.7631 51.3692 45.9889 51.3541C46.2148 51.3541 46.4255 51.3541 46.6062 51.339H49.527V51.203C49.527 50.9008 49.4818 50.6439 49.4066 50.4626C49.3313 50.2813 49.2108 50.1453 49.0452 50.0396C48.8646 49.9338 48.6688 49.8734 48.4731 49.8431C48.2322 49.8129 47.9763 49.7978 47.7354 49.7978H43.7306V47.9695H47.7354C47.901 47.9695 48.0666 47.9695 48.2172 47.9846C48.3828 47.9846 48.5333 47.9998 48.6989 47.9998C49.4367 48.03 50.054 48.1811 50.5658 48.4682C51.0777 48.7552 51.4541 49.269 51.695 50.0093C51.7854 50.2964 51.8456 50.5835 51.8606 50.8857C51.8757 51.1728 51.8908 51.4599 51.8908 51.7772V56.6425C51.8757 56.6274 46.6363 56.6274 46.6363 56.6274ZM49.512 53.2277H46.3653C46.1094 53.2277 45.9136 53.2881 45.733 53.4241C45.5674 53.5601 45.477 53.7565 45.477 54.0285C45.477 54.2249 45.5222 54.3609 45.5975 54.4667C45.6728 54.5725 45.7781 54.648 45.8986 54.6933C46.0341 54.7387 46.1696 54.7689 46.3201 54.784C46.4707 54.7991 46.6213 54.7991 46.7718 54.7991H49.527C49.512 54.784 49.512 53.2277 49.512 53.2277Z" fill="#191919"/>
<path d="M61.6612 56.6425C61.5708 56.3705 61.5106 56.0985 61.4805 55.8114C61.4504 55.5244 61.4203 55.2373 61.3902 54.9653C61.3299 54.4214 61.2396 53.9681 61.1041 53.6054C60.9686 53.2428 60.7729 52.9557 60.532 52.7442C60.2911 52.5326 59.9749 52.3816 59.5985 52.2909C59.2221 52.2002 58.7554 52.1549 58.2134 52.1549H56.1959V56.6425H53.6816V44.7965H59.448C59.8846 44.7965 60.3363 44.8116 60.7879 44.8418C61.2245 44.8721 61.6612 44.9476 62.0827 45.0685C62.7753 45.2649 63.3173 45.6426 63.7087 46.2017C64.1002 46.7608 64.2959 47.3954 64.2959 48.1055C64.2959 48.9214 64.1303 49.6316 63.784 50.2511C63.4377 50.8555 62.8656 51.2937 62.0526 51.5505C62.3086 51.6412 62.5344 51.7318 62.7151 51.8225C62.8957 51.9132 63.0613 52.0189 63.1968 52.1398C63.3474 52.2607 63.4678 52.4118 63.5732 52.578C63.6937 52.7895 63.7991 53.001 63.8894 53.2277C64.055 53.6054 64.1453 54.0134 64.1604 54.4365C64.1755 54.8444 64.2056 55.2675 64.2658 55.6755C64.311 56.0079 64.3712 56.3252 64.4766 56.6274H61.6612V56.6425ZM61.3902 47.622C61.3149 47.4407 61.1794 47.2745 61.0138 47.1536C60.8331 47.0327 60.6374 46.9572 60.4416 46.927C60.2008 46.8816 59.9599 46.8665 59.719 46.8665H56.1959V50.0698H59.719C60.2911 50.0698 60.7428 49.9489 61.0589 49.7223C61.3751 49.4805 61.5407 49.0423 61.5407 48.4077C61.5257 48.0753 61.4805 47.8184 61.3902 47.622ZM73.9315 54.2854C73.7208 54.7991 73.3895 55.2675 72.983 55.6452C72.5615 56.023 72.0646 56.3101 71.5377 56.4763C70.9806 56.6576 70.3633 56.7634 69.6858 56.7634C68.2405 56.7634 67.1264 56.3705 66.3435 55.5848C65.5606 54.7991 65.1541 53.681 65.1541 52.2305C65.1541 51.5505 65.2595 50.9461 65.4853 50.4022C65.7111 49.8582 66.0273 49.3898 66.4188 49.0272C66.8403 48.6495 67.3221 48.3473 67.8641 48.166C68.4513 47.9544 69.0686 47.8638 69.7009 47.8638C71.1462 47.8638 72.2604 48.2566 73.0734 49.0574C73.8864 49.8582 74.2778 50.9764 74.2929 52.442C74.2778 53.1219 74.1724 53.7414 73.9315 54.2854ZM71.7334 51.2785C71.6732 50.9764 71.5527 50.7044 71.3871 50.4475C71.2215 50.2058 70.9957 50.0244 70.7247 49.8885C70.4537 49.7525 70.1074 49.692 69.7159 49.692C69.2944 49.692 68.9481 49.7676 68.6771 49.9036C68.4212 50.0396 68.1953 50.236 68.0297 50.4777C67.8641 50.7195 67.7587 50.9915 67.6985 51.3239C67.6383 51.6714 67.5931 52.0189 67.6082 52.3664C67.6082 52.6989 67.6383 53.0464 67.7286 53.3788C67.8039 53.6659 67.9243 53.9378 68.105 54.1796C68.2857 54.4062 68.5115 54.6027 68.7674 54.7084C69.0384 54.8293 69.3847 54.9049 69.7762 54.9049C70.1676 54.9049 70.5139 54.8293 70.7849 54.6933C71.0408 54.5573 71.2667 54.376 71.4323 54.1343C71.5979 53.9076 71.7033 53.6205 71.7786 53.3032C71.8388 52.9708 71.8689 52.6384 71.8689 52.2909C71.8539 51.9585 71.8087 51.611 71.7334 51.2785ZM83.9436 54.3609C83.6425 55.0257 83.1607 55.5697 82.4982 55.9928C82.0164 56.295 81.5347 56.4914 81.0378 56.5518C80.5109 56.6123 79.9839 56.6425 79.472 56.6425H75.6178V44.7965H77.9815V47.9695H80.0893C81.4443 47.9695 82.5133 48.3322 83.2661 49.0423C84.0188 49.7525 84.4103 50.8101 84.4103 52.1851C84.3952 52.9708 84.2447 53.6961 83.9436 54.3609ZM81.4895 50.4626C81.1282 50.0396 80.541 49.828 79.743 49.828H77.9665V54.784H79.743C80.5109 54.784 81.083 54.5422 81.4594 54.0587C81.8358 53.5752 82.0315 52.9708 82.0315 52.2456C82.0315 51.4901 81.8508 50.9008 81.4895 50.4626ZM93.9255 54.2854C93.7147 54.7991 93.3835 55.2675 92.9619 55.6452C92.5554 56.0079 92.0736 56.295 91.5166 56.4763C90.9595 56.6727 90.3422 56.7634 89.6647 56.7634C88.2194 56.7634 87.1053 56.3705 86.3224 55.5848C85.5395 54.7991 85.133 53.681 85.133 52.2305C85.133 51.5505 85.2384 50.9461 85.4642 50.4022C85.69 49.8582 86.0062 49.405 86.3977 49.0272C86.8192 48.6495 87.301 48.3473 87.843 48.166C88.4001 47.9695 89.0173 47.8638 89.6798 47.8638C91.1251 47.8638 92.2393 48.2566 93.0523 49.0574C93.8653 49.8582 94.2567 50.9764 94.2567 52.442C94.2718 53.1219 94.1513 53.7414 93.9255 54.2854ZM91.7274 51.2785C91.6671 50.9764 91.5467 50.7044 91.3811 50.4475C91.2155 50.2058 90.9896 50.0244 90.7186 49.8885C90.4476 49.7525 90.1014 49.692 89.7099 49.692C89.2883 49.692 88.9421 49.7676 88.6711 49.9036C88.4151 50.0396 88.1893 50.236 88.0237 50.4777C87.8581 50.7346 87.7376 51.0217 87.6924 51.3239C87.6322 51.6714 87.5871 52.0189 87.6021 52.3664C87.6021 52.6989 87.6322 53.0464 87.7075 53.3788C87.7828 53.6659 87.9032 53.9378 88.0839 54.1796C88.2645 54.4062 88.4904 54.6027 88.7463 54.7084C89.0173 54.8444 89.3636 54.9049 89.7551 54.9049C90.1616 54.9049 90.4928 54.8293 90.7638 54.6933C91.0197 54.5573 91.2456 54.376 91.4112 54.1343C91.5768 53.8774 91.6973 53.6054 91.7575 53.3032C91.8177 52.9708 91.8478 52.6384 91.8478 52.2909C91.8327 51.9585 91.8026 51.611 91.7274 51.2785ZM99.0595 56.6425C98.4723 56.6425 97.9454 56.5367 97.4636 56.3252C96.9969 56.1136 96.6506 55.7208 96.4247 55.1315C96.3344 54.8595 96.2742 54.5573 96.2441 54.2703C96.214 53.9832 96.214 53.681 96.214 53.3939V49.8431H94.7084V47.9695H96.214V44.7965H98.5777V47.9695H100.776V49.828H98.5777V52.9708C98.5777 53.1673 98.5777 53.3939 98.5928 53.681C98.5928 53.9681 98.653 54.1947 98.7734 54.3609C98.8788 54.4969 99.0143 54.6027 99.1799 54.6782C99.3455 54.7387 99.5262 54.784 99.7069 54.7991C99.9026 54.8142 100.083 54.8142 100.279 54.8142C100.475 54.7991 100.625 54.7991 100.776 54.7991V56.6425H99.0595Z" fill="#191919"/>
<path d="M7.70198 47.9696C7.43098 47.9696 7.20515 48.3021 7.20515 48.71C7.20515 49.118 7.43098 49.4504 7.70198 49.4504C7.97299 49.4504 8.19882 49.118 8.19882 48.71C8.19882 48.3021 7.97299 47.9696 7.70198 47.9696ZM4.32951 47.9696C4.05851 47.9696 3.83267 48.3021 3.83267 48.71C3.83267 49.118 4.05851 49.4504 4.32951 49.4504C4.60051 49.4504 4.82635 49.118 4.82635 48.71C4.81129 48.3021 4.60051 47.9696 4.32951 47.9696ZM10.8787 47.0631H10.8336V46.1565C10.8336 45.4463 10.2614 44.8571 9.53878 44.8571H2.47766C1.77004 44.8571 1.18287 45.4312 1.18287 46.1565V47.048H1.1377C0.926924 47.0933 0.776367 47.2595 0.776367 47.471V48.9216C0.776367 49.1331 0.926924 49.3144 1.1377 49.3446H1.18287V50.7952C1.18287 51.5053 1.75499 52.0946 2.47766 52.0946H4.49512V52.4421H4.31445L3.68212 52.699V52.7896H3.44122V53.0465C2.94439 53.0767 2.56799 53.4847 2.55294 53.9833V54.2704H2.47766L2.17655 54.5726V55.4036L2.47766 55.7058H3.11L3.2455 55.5698V55.1467H3.50145V54.4517C3.50145 54.3459 3.41111 54.2553 3.30572 54.2553H3.18528V53.9682C3.18528 53.802 3.30572 53.666 3.47134 53.6358V53.9682H3.74234V54.9654L4.07356 55.3432V55.8569C3.81762 55.8569 3.54661 55.8871 3.17022 56.2044V56.7181H5.88025V55.7058H6.21147V56.7181H8.92149V56.2044C8.56016 55.8871 8.2741 55.8569 8.01815 55.8569V55.3432L8.36443 54.9654V54.0135H8.62038V53.6811C8.78599 53.6962 8.90644 53.8473 8.90644 54.0135V54.3006H8.78599C8.6806 54.3006 8.59027 54.3912 8.59027 54.497V55.1921H8.83116V55.6151L8.96666 55.7511H9.599L9.90011 55.4489V54.6179L9.599 54.3157H9.50867V54.0286C9.50867 53.53 9.11722 53.122 8.62038 53.0918V52.8501H8.37949V52.7594L7.74715 52.5025H7.58154V52.155H9.55383C10.2614 52.155 10.8486 51.5809 10.8486 50.8556V49.4051H10.8938C11.1046 49.3597 11.2551 49.1935 11.2551 48.982V47.5315C11.2401 47.2746 11.0895 47.0933 10.8787 47.0631ZM10.5023 50.5232C10.5023 51.0973 10.0356 51.5506 9.4635 51.5657H2.55294C1.98082 51.5657 1.52915 51.0973 1.52915 50.5232V46.3831C1.52915 45.809 1.99588 45.3557 2.56799 45.3557H9.47855C10.0507 45.3557 10.5023 45.8241 10.5174 46.3831V50.5232H10.5023Z" fill="#191919"/>
</g>
<defs>
<clipPath id="clip0_2336_10643">
<rect width="100" height="100" fill="white" transform="translate(0.776367 0.779968)"/>
</clipPath>
</defs>
</svg>
