<svg width="101" height="101" viewBox="0 0 101 101" fill="none" xmlns="http://www.w3.org/2000/svg">
<g clip-path="url(#clip0_2336_10669)">
<path d="M28.2369 42.9353L28.997 43.4857C30.3193 44.5521 31.0795 45.7562 31.2447 47.1322C32.666 46.857 34.4838 47.0634 35.2771 47.6138L36.0043 48.0611L35.872 48.3365C35.6406 48.8523 35.5746 48.99 35.5416 49.0587C34.2525 51.6388 31.7074 51.6732 30.5176 51.6388C27.5097 59.1726 21.0976 63.3351 12.4375 63.3351C8.43825 63.3351 5.39743 62.0623 3.34801 59.5509C0.637856 56.2488 0.637856 51.9484 0.869106 50.5724L0.935317 50.297H24.8324C26.0883 50.297 27.047 49.9533 27.5097 49.6779C27.0138 48.921 26.8486 48.0611 26.8156 47.5794C26.7164 46.2035 27.047 44.7585 27.7082 43.7265L28.2369 42.9353ZM48.9428 44.5328C49.2094 44.5328 49.4352 44.6222 49.6201 44.8009C49.805 44.9797 49.8974 45.2054 49.8974 45.4781V53.9865C49.8974 55.4044 49.4004 56.6043 48.4064 57.5861C47.4004 58.58 46.2006 59.0769 44.8068 59.0769C43.4008 59.0769 42.201 58.58 41.2072 57.5861C40.2133 56.5922 39.7164 55.3923 39.7164 53.9865C39.7164 52.5806 40.2133 51.3808 41.2072 50.3869C42.201 49.3929 43.4008 48.8959 44.8068 48.896C46.0128 48.896 47.0764 49.2687 47.9974 50.014V45.4781C47.9974 45.2054 48.0868 44.9797 48.2656 44.8009C48.4444 44.6222 48.6701 44.5328 48.9428 44.5328ZM56.0697 48.896C57.4636 48.896 58.6635 49.3929 59.6693 50.3867C60.1665 50.8838 60.5377 51.4322 60.783 52.032C61.0284 52.632 61.1542 53.2835 61.1603 53.9865C61.1603 55.4044 60.6634 56.6043 59.6695 57.5861C58.6637 58.58 57.4638 59.0769 56.0699 59.0769C54.6639 59.0769 53.464 58.58 52.4703 57.5861C51.4763 56.5922 50.9793 55.3923 50.9793 53.9865C50.9793 52.5806 51.4762 51.3808 52.4701 50.3869C53.464 49.3929 54.6638 48.8959 56.0697 48.896ZM67.3146 48.896C68.5933 48.896 69.6993 49.3082 70.6326 50.1324C70.8507 50.3261 70.9598 50.5655 70.9598 50.8503C70.9598 51.1231 70.8704 51.3503 70.6916 51.532C70.5128 51.7139 70.2871 51.8048 70.0144 51.8048C69.7892 51.8067 69.5705 51.7295 69.3963 51.5867C69.0873 51.326 68.7631 51.1291 68.4236 50.9959C68.0842 50.8627 67.7145 50.796 67.3146 50.7959C66.8723 50.7959 66.4572 50.8792 66.0693 51.0459C65.6899 51.2067 65.3444 51.438 65.0512 51.7275C64.7586 52.0175 64.5254 52.3618 64.3648 52.7412C64.1982 53.1288 64.1148 53.5439 64.1148 53.9865C64.1148 54.4288 64.1982 54.8439 64.3648 55.2318C64.5254 55.6111 64.7586 55.9555 65.0512 56.2455C65.3444 56.535 65.6899 56.7663 66.0693 56.9271C66.4572 57.0938 66.8723 57.1771 67.3146 57.1771C67.7146 57.1771 68.0843 57.112 68.4236 56.9818C68.7631 56.8513 69.0842 56.6558 69.3871 56.3953C69.5569 56.2681 69.7569 56.2014 69.9871 56.1953C70.2598 56.1953 70.4855 56.2847 70.6642 56.4634C70.843 56.6422 70.9324 56.868 70.9324 57.1408C70.9324 57.4074 70.8325 57.6407 70.6326 57.8406C69.6933 58.6648 68.5873 59.0769 67.3146 59.0769C65.9086 59.0769 64.7088 58.58 63.715 57.5861C62.7211 56.5922 62.2242 55.3923 62.2242 53.9865C62.2242 52.5806 62.7211 51.3808 63.715 50.3869C64.7089 49.393 65.9088 48.896 67.3146 48.896ZM72.9873 44.5328C73.2478 44.5328 73.4705 44.6252 73.6553 44.8101C73.8402 44.9947 73.9326 45.2205 73.9326 45.4873V52.5775L79.3685 49.0414C79.52 48.9445 79.6896 48.896 79.8775 48.896C80.0109 48.896 80.1351 48.9203 80.2502 48.9687C80.3654 49.0171 80.4654 49.0853 80.5502 49.1732C80.635 49.2611 80.7031 49.3627 80.7547 49.4779C80.8062 49.5931 80.832 49.7142 80.832 49.8412C80.832 50.1806 80.7108 50.4322 80.4684 50.5959L76.6598 53.0685L80.5684 57.4679C80.7441 57.6618 80.832 57.883 80.832 58.1316C80.832 58.2588 80.8062 58.38 80.7547 58.4951C80.7048 58.6078 80.6356 58.7109 80.5502 58.7998C80.4654 58.8877 80.3654 58.9558 80.2502 59.0041C80.1321 59.053 80.0054 59.0778 79.8775 59.0769C79.623 59.0769 79.4109 58.9951 79.2412 58.8314L75.0416 54.1136L73.9326 54.841V58.1224C73.9326 58.383 73.8402 58.6072 73.6553 58.7951C73.4704 58.983 73.2477 59.0769 72.9873 59.0769C72.7206 59.0769 72.4949 58.983 72.31 58.7951C72.1251 58.6072 72.0326 58.383 72.0326 58.1224V45.4873C72.0326 45.2206 72.1251 44.9948 72.31 44.8099C72.4949 44.625 72.7206 44.5328 72.9873 44.5328ZM86.95 48.8959C88.3438 48.8959 89.5436 49.3927 90.5496 50.3865C91.0465 50.8774 91.4192 51.4243 91.6678 52.0273C91.9162 52.6302 92.0404 53.2832 92.0404 53.9863C92.0404 54.2589 91.948 54.4847 91.7631 54.6634C91.5782 54.8422 91.3525 54.9316 91.0859 54.9316H83.8867C83.9868 55.2591 84.1404 55.5677 84.3412 55.8451C84.5372 56.117 84.7749 56.3563 85.0455 56.5541C85.3171 56.7521 85.6176 56.907 85.9365 57.0132C86.2607 57.1224 86.5986 57.1769 86.95 57.1769C87.35 57.1769 87.7166 57.1163 88.0498 56.9951C88.3831 56.874 88.6923 56.6921 88.9771 56.4496C89.1526 56.3008 89.3741 56.2173 89.6041 56.2132C89.8769 56.2132 90.1027 56.3026 90.2814 56.4814C90.4602 56.6602 90.5496 56.886 90.5496 57.1587C90.5496 57.4253 90.4587 57.6525 90.277 57.8404C89.3376 58.6646 88.2286 59.0767 86.95 59.0767C85.544 59.0767 84.3441 58.5798 83.3504 57.5859C82.3565 56.592 81.8596 55.3921 81.8596 53.9863C81.8596 52.5804 82.3565 51.3806 83.3504 50.3867C84.3443 49.3928 85.5441 48.8959 86.95 48.8959ZM98.1766 48.8959C98.4432 48.8959 98.7296 48.914 99.0356 48.9503C99.3415 48.9868 99.6234 49.0519 99.8811 49.1457C100.139 49.2395 100.352 49.3683 100.522 49.532C100.692 49.6957 100.776 49.9078 100.776 50.1683C100.776 50.3018 100.751 50.4261 100.699 50.5412C100.649 50.6538 100.58 50.7569 100.495 50.8457C100.41 50.9336 100.31 51.0017 100.195 51.0502C100.076 51.099 99.9497 51.1237 99.8219 51.1228C99.7066 51.1228 99.5733 51.0895 99.4219 51.0228C99.0401 50.8714 98.625 50.7957 98.1766 50.7957C97.7342 50.7957 97.3191 50.879 96.9313 51.0457C96.5435 51.2123 96.2056 51.4395 95.9176 51.7273C95.6298 52.0152 95.4026 52.3531 95.2359 52.741C95.0693 53.1286 94.9859 53.5437 94.9859 53.9863V58.1314C94.9859 58.392 94.8935 58.6146 94.7086 58.7994C94.5237 58.9841 94.301 59.0766 94.0406 59.0767C93.774 59.0767 93.5482 58.9843 93.3635 58.7994C93.1787 58.6145 93.0863 58.3918 93.0861 58.1314V49.8414C93.0861 49.5807 93.1786 49.358 93.3635 49.1734C93.5484 48.9885 93.7741 48.896 94.0406 48.896C94.3012 48.896 94.5238 48.9885 94.7086 49.1734C94.8935 49.358 94.9859 49.5807 94.9859 49.8414V50.023C95.4307 49.6651 95.9313 49.3826 96.4676 49.1869C97.0008 48.9929 97.5704 48.8959 98.1766 48.8959ZM44.8068 50.7957C44.3584 50.7957 43.9402 50.8805 43.5523 51.0502C43.1644 51.2198 42.8281 51.4486 42.5433 51.7365C42.2586 52.0244 42.0329 52.3623 41.8662 52.7502C41.6995 53.138 41.6162 53.5501 41.6162 53.9863C41.6162 54.4225 41.6995 54.8346 41.8662 55.2226C42.0329 55.6106 42.2586 55.9485 42.5433 56.2361C42.8281 56.5237 43.1644 56.7525 43.5523 56.9224C43.9402 57.092 44.3584 57.1768 44.8068 57.1769C45.2491 57.1769 45.6642 57.0921 46.0521 56.9224C46.4309 56.7587 46.775 56.5242 47.0658 56.2314C47.3544 55.9392 47.5857 55.5954 47.7474 55.2179C47.9141 54.8332 47.9974 54.4226 47.9974 53.9863C47.9974 53.55 47.9141 53.1393 47.7474 52.7544C47.5857 52.3769 47.3544 52.0332 47.0658 51.741C46.7749 51.4483 46.4309 51.2138 46.0521 51.0502C45.6644 50.8805 45.2493 50.7957 44.8068 50.7957ZM56.0699 50.7957C55.6215 50.7957 55.2033 50.8805 54.8154 51.0502C54.4275 51.2198 54.0912 51.4486 53.8064 51.7365C53.5217 52.0244 53.2959 52.3623 53.1291 52.7502C52.9623 53.138 52.879 53.5501 52.8791 53.9863C52.8792 54.4225 52.9625 54.8346 53.1291 55.2226C53.2959 55.6104 53.5217 55.9482 53.8064 56.2361C54.0912 56.524 54.4275 56.7528 54.8154 56.9224C55.2033 57.0921 55.6215 57.1769 56.0699 57.1769C56.5122 57.1769 56.9273 57.0921 57.3152 56.9224C57.694 56.7587 58.0381 56.5242 58.3289 56.2314C58.6175 55.9392 58.8488 55.5954 59.0105 55.2179C59.1772 54.8332 59.2605 54.4226 59.2605 53.9863C59.2605 53.55 59.1772 53.1393 59.0105 52.7544C58.8488 52.3769 58.6175 52.0332 58.3289 51.741C58.038 51.4483 57.694 51.2138 57.3152 51.0502C56.9273 50.8805 56.5122 50.7957 56.0699 50.7957ZM86.95 50.7957C86.6046 50.7957 86.2682 50.8502 85.941 50.9591C85.6194 51.0653 85.3158 51.2201 85.041 51.4181C84.7683 51.6151 84.5289 51.8545 84.332 52.1273C84.1319 52.4037 83.9812 52.7128 83.8867 53.0408H90.0133C89.9128 52.7126 89.7576 52.4038 89.5543 52.1273C89.3557 51.856 89.1166 51.6169 88.8453 51.4183C88.5738 51.2203 88.2733 51.0655 87.9545 50.9593C87.6309 50.8503 87.2915 50.795 86.95 50.7957ZM7.14919 46.1687V49.6089H3.51344V46.1691L7.14919 46.1687ZM11.4461 46.1687V49.6089H7.81032V46.1691L11.4461 46.1687ZM15.7429 46.1687V49.6089H12.107V46.1691L15.7429 46.1687ZM20.0398 46.1687V49.6089H16.4039V46.1691L20.0398 46.1687ZM24.3367 46.1687V49.6089H20.7008V46.1691L24.3367 46.1687ZM20.0398 42.0408V45.4808H16.4039V42.041L20.0398 42.0408ZM15.7429 42.0408V45.4808H12.107V42.041L15.7429 42.0408ZM11.4461 42.0408V45.4808H7.81032V42.041L11.4461 42.0408ZM20.0398 37.9128V41.3529H16.4039V37.9128H20.0398Z" fill="#191919"/>
</g>
<defs>
<clipPath id="clip0_2336_10669">
<rect width="100" height="100" fill="white" transform="translate(0.776367 0.624023)"/>
</clipPath>
</defs>
</svg>
