<svg width="101" height="101" viewBox="0 0 101 101" fill="none" xmlns="http://www.w3.org/2000/svg">
<path d="M26.8982 71.6367L24.2683 72.054V85.0107C24.5273 85.1128 24.7962 85.1877 25.0706 85.2344C25.3911 85.299 25.7123 85.3635 26.0328 85.3958C26.3856 85.4273 26.7053 85.4596 27.0581 85.4911C27.4116 85.5234 27.7321 85.5556 28.0526 85.5556C28.7504 85.5718 29.4456 85.4632 30.1053 85.2352C30.6647 84.9998 31.1757 84.6629 31.6124 84.2414C32.0324 83.8031 32.35 83.2771 32.5424 82.7013C32.7684 82.0522 32.8772 81.368 32.8636 80.6808C32.8598 80.0227 32.7845 79.3668 32.6392 78.7249C32.5008 78.1604 32.2377 77.6341 31.8691 77.1848C31.5223 76.7687 31.083 76.4395 30.5864 76.2233C30.0424 75.9792 29.451 75.8587 28.8549 75.8706C28.5103 75.8678 28.1663 75.8997 27.8282 75.9659C27.5084 76.0277 27.1965 76.1249 26.8982 76.2556V71.6367ZM6.46903 71.6367L3.83984 72.0547V85.299H6.46903V81.258C6.78905 81.5133 7.07956 81.8036 7.33516 82.1234C7.65067 82.4649 7.93995 82.8297 8.20055 83.2147C8.47873 83.5735 8.73585 83.9481 8.97061 84.3368C9.19576 84.6888 9.41944 85.0115 9.61232 85.3312H12.6265C12.4351 84.9462 12.1777 84.5296 11.8888 84.0478C11.5976 83.5583 11.2768 83.087 10.928 82.6368C10.5742 82.1804 10.2106 81.7317 9.83747 81.291C9.49726 80.8842 9.13284 80.4982 8.74619 80.1352C9.40486 79.4785 10.0463 78.8048 10.6699 78.1147C11.2786 77.4737 11.8888 76.7675 12.4982 76.0627H9.38791C9.22803 76.2548 9.00361 76.5101 8.77846 76.7668C8.55331 77.0234 8.29736 77.3131 8.04068 77.6336C7.77447 77.9337 7.50728 78.2329 7.23909 78.5313C6.9626 78.8085 6.71545 79.0857 6.46903 79.3622V71.6367ZM75.87 73.3367L73.2409 73.754V81.5154C73.2398 82.0645 73.2934 82.6124 73.4007 83.1509C73.5045 83.6188 73.7126 84.0573 74.0094 84.4336C74.3158 84.7853 74.7007 85.0599 75.133 85.2352C75.7082 85.4423 76.3171 85.5403 76.9283 85.5241C77.4128 85.5383 77.8972 85.4952 78.3716 85.3958C78.7349 85.3271 79.0897 85.2194 79.4299 85.0745L79.0449 83.0225C78.7737 83.1206 78.4948 83.1957 78.211 83.2469C77.9239 83.2837 77.635 83.305 77.3456 83.3107C76.7677 83.3107 76.3511 83.1509 76.1583 82.8296C75.947 82.425 75.8476 81.9713 75.87 81.5154V78.2445H79.0133V76.0634H75.87V73.3367ZM94.4071 75.806C93.285 75.806 92.3866 76.0627 91.7449 76.5761C91.4305 76.815 91.1788 77.1265 91.0112 77.484C90.8436 77.8415 90.7652 78.2344 90.7827 78.6288C90.7726 79.0224 90.8381 79.4142 90.9756 79.7832C91.0991 80.0949 91.2842 80.3785 91.5198 80.617C91.766 80.8523 92.0479 81.0471 92.3551 81.1942C92.6748 81.3541 93.0599 81.5147 93.4772 81.6753C93.8909 81.8141 94.2885 81.9971 94.6631 82.2209C94.9197 82.3808 95.0481 82.5407 95.0481 82.7651C95.0582 82.8742 95.0363 82.9839 94.9851 83.0808C94.9339 83.1777 94.8557 83.2576 94.7599 83.3107C94.4294 83.4208 94.0805 83.4645 93.7331 83.4391C93.2914 83.446 92.8502 83.4029 92.4182 83.3107C91.949 83.2058 91.4882 83.0666 91.0394 82.8942L90.5906 85.043C90.9519 85.1976 91.3278 85.3156 91.7126 85.395C92.3828 85.5665 93.0739 85.6423 93.7654 85.6202C95.0481 85.6202 96.0095 85.3958 96.6835 84.9147C97.0179 84.6831 97.2876 84.3702 97.4673 84.0053C97.647 83.6405 97.7306 83.2358 97.7103 82.8296C97.7217 82.4828 97.6784 82.1363 97.5819 81.8029C97.5092 81.4996 97.3539 81.2224 97.1331 81.002C96.9001 80.7139 96.604 80.483 96.2677 80.3273C95.8028 80.0781 95.3198 79.8641 94.8229 79.6871C94.5347 79.5587 94.3103 79.4949 94.1181 79.3989C93.9575 79.3021 93.7969 79.206 93.7009 79.1422C93.6001 79.0834 93.5213 78.9932 93.4764 78.8855C93.4402 78.7929 93.4187 78.6951 93.4126 78.5958C93.4126 78.147 93.7969 77.9226 94.6315 77.9226C95.0308 77.9116 95.4298 77.955 95.8174 78.0516C96.1709 78.147 96.4914 78.2438 96.8119 78.3406L97.2614 76.2871C96.8678 76.1368 96.4592 76.0294 96.0426 75.9666C95.5034 75.8636 94.956 75.8103 94.4071 75.806ZM38.8927 75.8383C38.3209 75.8319 37.7537 75.9409 37.225 76.1588C36.6898 76.3573 36.2072 76.6756 35.814 77.0894C35.3892 77.5357 35.0521 78.0579 34.8203 78.6288C34.5496 79.3122 34.4187 80.0428 34.4352 80.7776C34.4377 81.4275 34.5239 82.0743 34.6919 82.702C34.8882 83.2685 35.1928 83.7913 35.5888 84.2414C36.0317 84.6706 36.5548 85.0083 37.1282 85.2352C37.8227 85.5062 38.564 85.6371 39.3093 85.6202C39.6305 85.6202 39.9826 85.5879 40.3038 85.5556C40.6159 85.5327 40.9263 85.4899 41.233 85.4273C41.5062 85.4078 41.7758 85.3536 42.0353 85.266C42.292 85.1706 42.4841 85.1068 42.6125 85.0423L42.2605 82.8935C41.8874 83.0397 41.5004 83.1473 41.1054 83.2147C40.6408 83.3063 40.1679 83.3493 39.6943 83.343C39.0602 83.3734 38.4323 83.2053 37.8983 82.8619C37.6835 82.7177 37.5031 82.528 37.37 82.3061C37.2369 82.0843 37.1544 81.8359 37.1282 81.5785H43.0936C43.0936 81.4186 43.1258 81.2587 43.1258 81.0981C43.1514 80.9283 43.1619 80.7565 43.1574 80.5848C43.1574 79.0446 42.7731 77.8588 42.0038 77.0572C41.5996 76.6473 41.1138 76.327 40.5778 76.1171C40.0419 75.9071 39.4678 75.8121 38.8927 75.8383ZM67.0188 75.8383C66.447 75.8319 65.8798 75.9409 65.3511 76.1588C64.8159 76.3573 64.3332 76.6756 63.9401 77.0894C63.515 77.5357 63.1776 78.0579 62.9456 78.6288C62.675 79.3122 62.544 80.0428 62.5606 80.7776C62.563 81.4275 62.6493 82.0743 62.8172 82.702C63.014 83.2686 63.3191 83.7915 63.7156 84.2414C64.1585 84.6706 64.6816 85.0083 65.255 85.2352C65.9493 85.5061 66.6903 85.637 67.4354 85.6202C67.7559 85.6202 68.1086 85.5879 68.4298 85.5556C68.7422 85.5328 69.0529 85.4899 69.3598 85.4273C69.6327 85.4077 69.9021 85.3535 70.1614 85.266C70.4181 85.1706 70.6102 85.1068 70.7385 85.0423L70.3865 82.8935C70.0137 83.0396 69.6269 83.1473 69.2322 83.2147C68.7671 83.3064 68.2937 83.3494 67.8197 83.343C67.1858 83.3733 66.5582 83.2051 66.0243 82.8619C65.8096 82.7177 65.6292 82.528 65.4961 82.3061C65.363 82.0843 65.2804 81.8359 65.2543 81.5785H71.2196C71.2196 81.4186 71.2519 81.2587 71.2519 81.0981C71.2774 80.9283 71.288 80.7565 71.2835 80.5848C71.2835 79.0461 70.8992 77.8588 70.1298 77.0572C69.7257 76.6473 69.2398 76.327 68.7039 76.1171C68.1679 75.9071 67.5938 75.8121 67.0188 75.8383ZM84.8181 75.8383C84.246 75.8318 83.6786 75.9408 83.1496 76.1588C82.6144 76.3573 82.1318 76.6756 81.7386 77.0894C81.3138 77.5357 80.9767 78.0579 80.7449 78.6288C80.4742 79.3122 80.3433 80.0428 80.3598 80.7776C80.3467 81.4284 80.4333 82.0774 80.6165 82.702C80.8132 83.2686 81.1184 83.7915 81.5149 84.2414C81.9576 84.6705 82.4804 85.0082 83.0536 85.2352C83.748 85.5062 84.4893 85.6371 85.2346 85.6202C85.5551 85.6202 85.9079 85.5879 86.2291 85.5556C86.5413 85.5327 86.8516 85.4899 87.1583 85.4273C87.4315 85.4078 87.7011 85.3536 87.9606 85.266C88.2173 85.1706 88.4095 85.1068 88.5378 85.0423L88.1851 82.8935C87.8122 83.0396 87.4254 83.1473 87.0307 83.2147C86.5659 83.3064 86.0927 83.3494 85.6189 83.343C84.985 83.3733 84.3574 83.2051 83.8236 82.8619C83.6088 82.7177 83.4285 82.528 83.2954 82.3061C83.1623 82.0843 83.0797 81.8359 83.0536 81.5785H89.0189C89.0189 81.4186 89.0512 81.2587 89.0512 81.0981C89.0767 80.9283 89.0873 80.7565 89.0827 80.5848C89.0827 79.0461 88.6984 77.8588 87.9284 77.0572C87.5243 76.6474 87.0386 76.3272 86.5028 76.1172C85.9669 75.9072 85.393 75.8122 84.8181 75.8383ZM48.9629 75.8713C48.2402 75.8595 47.5188 75.9346 46.814 76.095C46.2494 76.21 45.6924 76.3599 45.1463 76.5438V85.3635H47.7762V78.2761C47.9456 78.2353 48.117 78.2033 48.2896 78.18C48.4913 78.1479 48.6944 78.1264 48.8983 78.1154C49.243 78.1132 49.5869 78.1456 49.9251 78.2123C50.2072 78.2413 50.4862 78.295 50.7589 78.3729L51.2078 76.191C51.0794 76.1595 50.8865 76.0957 50.6944 76.0634C50.4911 76.0338 50.2882 76.0015 50.0857 75.9666C49.8843 75.9312 49.6806 75.9099 49.4762 75.9028C49.3064 75.8773 49.1346 75.8667 48.9629 75.8713ZM56.5637 75.8713C55.2323 75.871 53.9066 76.0433 52.6195 76.3839L52.6188 85.3958H55.2172V78.2438C55.407 78.2049 55.5999 78.1835 55.7936 78.18C55.9957 78.1541 56.1994 78.1433 56.4031 78.1477C57.0125 78.1477 57.4291 78.3083 57.6535 78.6611C57.8786 79.0131 57.9747 79.6233 57.9747 80.4579V85.3642H60.6046V80.1352C60.6107 79.5526 60.546 78.9714 60.4117 78.4044C60.2907 77.9168 60.0727 77.4586 59.7708 77.0572C59.4435 76.6565 59.0098 76.3563 58.5196 76.191C57.8961 75.9527 57.2306 75.8439 56.5637 75.8713ZM13.7809 76.0634V81.2265C13.7782 81.8089 13.843 82.3897 13.9738 82.9573C14.0625 83.4607 14.2806 83.9324 14.6066 84.3261C14.9327 84.7198 15.3555 85.0219 15.8336 85.2029C16.4687 85.4402 17.1444 85.5494 17.8218 85.5241C18.563 85.5362 19.3037 85.4822 20.0352 85.3628C20.62 85.2865 21.1986 85.1689 21.7667 85.0107L21.799 76.0634H19.1691V83.2139C18.9769 83.2469 18.8163 83.2469 18.5919 83.2785C18.3901 83.3043 18.1866 83.3151 17.9832 83.3107C17.373 83.3107 16.956 83.1184 16.732 82.7336C16.5076 82.3493 16.4115 81.7398 16.4115 80.906V76.0634H13.7809ZM38.9243 77.9548C39.1688 77.9416 39.413 77.9872 39.6362 78.0878C39.8595 78.1883 40.0555 78.3409 40.2077 78.5327C40.3346 78.7079 40.432 78.9026 40.4959 79.1092C40.5683 79.3051 40.6103 79.5108 40.6206 79.7194H37.1605C37.1989 79.5019 37.2525 79.2875 37.3211 79.0776C37.3889 78.866 37.4978 78.6699 37.6416 78.5005C37.7771 78.3305 37.9538 78.198 38.155 78.1154C38.3974 78.0088 38.6594 77.9546 38.9243 77.9548ZM67.0496 77.9548C67.2943 77.9415 67.5386 77.987 67.762 78.0876C67.9854 78.1881 68.1815 78.3408 68.3338 78.5327C68.4607 78.7079 68.558 78.9026 68.622 79.1092C68.6943 79.3051 68.7364 79.5108 68.7467 79.7194H65.2866C65.3249 79.5019 65.3786 79.2875 65.4472 79.0776C65.5149 78.866 65.6239 78.6699 65.7677 78.5005C65.9032 78.3305 66.0799 78.198 66.281 78.1154C66.5235 78.0088 66.7855 77.9539 67.0504 77.9541L67.0496 77.9548ZM84.8181 77.9548C85.0626 77.9416 85.3068 77.9872 85.5301 78.0878C85.7534 78.1883 85.9493 78.3409 86.1015 78.5327C86.2282 78.7079 86.3253 78.9026 86.389 79.1092C86.4613 79.3051 86.5034 79.5108 86.5137 79.7194H83.0536C83.0922 79.5019 83.1461 79.2875 83.2149 79.0776C83.2825 78.8661 83.3911 78.6699 83.5347 78.5005C83.6702 78.3305 83.8469 78.198 84.048 78.1154C84.2907 78.0087 84.553 77.9545 84.8181 77.9548ZM28.3415 78.0839C29.5919 78.0839 30.2021 78.917 30.2021 80.617C30.2305 81.3104 30.0396 81.9951 29.6565 82.5737C29.4612 82.8167 29.2113 83.0102 28.9271 83.1384C28.6429 83.2667 28.3325 83.3259 28.021 83.3115C27.7959 83.3115 27.5715 83.2785 27.3793 83.2785C27.1864 83.2469 27.0266 83.2469 26.8982 83.2147V78.4359C27.0987 78.3201 27.3149 78.2337 27.5399 78.1792C27.8025 78.1162 28.0715 78.0842 28.3415 78.0839Z" fill="#191919"/>
<path d="M50.6297 15.6287C50.1465 15.653 49.673 15.7727 49.237 15.9808L30.2306 25.0623C29.7385 25.2972 29.3062 25.6391 28.9656 26.0625C28.6251 26.486 28.3852 26.9801 28.2637 27.5081L23.5751 47.9072C23.4669 48.3772 23.4548 48.8639 23.5396 49.3385C23.6244 49.8132 23.8043 50.2662 24.0687 50.6706C24.1327 50.7692 24.2014 50.8647 24.2748 50.9567L37.4302 67.3156C37.7708 67.7389 38.2031 68.0807 38.6951 68.3156C39.1871 68.5505 39.7261 68.6724 40.2721 68.6723L61.3694 68.6672C61.9152 68.6674 62.4539 68.5458 62.9458 68.3113C63.4376 68.0768 63.8699 67.7354 64.2106 67.3126L77.3616 50.9537C77.7024 50.5302 77.9425 50.036 78.0642 49.5078C78.1858 48.9796 78.1858 48.431 78.0642 47.9028L73.3676 27.5037C73.2461 26.9759 73.0062 26.482 72.6658 26.0587C72.3254 25.6354 71.8933 25.2936 71.4014 25.0586L52.3921 15.9808C51.8436 15.7189 51.2376 15.5979 50.6297 15.6287Z" fill="#191919"/>
<path d="M50.8184 22.5707C50.1898 22.5707 49.6809 23.1369 49.6809 23.835L49.6831 23.8666C49.6823 23.9619 49.6779 24.0756 49.6809 24.1585C49.6955 24.5611 49.7836 24.8698 49.8364 25.2402C49.9317 26.0337 50.0124 26.6923 49.9625 27.3039C49.9148 27.5342 49.7447 27.7454 49.5936 27.8921L49.5665 28.3732C48.8744 28.4295 48.1872 28.5349 47.5101 28.6886C44.6643 29.3312 42.0755 30.81 40.0765 32.9349C39.9383 32.8399 39.8014 32.7431 39.6658 32.6445C39.4626 32.6716 39.2573 32.7347 38.9903 32.5785C38.4806 32.236 38.0171 31.7629 37.4561 31.1924C37.1994 30.9203 37.0131 30.6614 36.708 30.3981C36.6383 30.3387 36.532 30.258 36.455 30.1964C36.2297 30.0147 35.9521 29.9099 35.6629 29.8972C35.4909 29.8884 35.3191 29.92 35.1616 29.9897C35.004 30.0594 34.865 30.1651 34.7557 30.2984C34.3641 30.7897 34.4895 31.5407 35.0344 31.9756L35.052 31.9881C35.1268 32.049 35.2192 32.1267 35.2882 32.1773C35.6123 32.4171 35.9079 32.5396 36.2313 32.7295C36.9112 33.1498 37.4759 33.4981 37.9232 33.9176C38.0978 34.1046 38.1286 34.4325 38.1513 34.5747L38.5158 34.9004C36.504 37.9185 35.6774 41.5732 36.1947 45.1634L35.7179 45.302C35.5933 45.4633 35.4151 45.7193 35.2295 45.7948C34.6443 45.9796 33.9857 46.0471 33.1907 46.1307C32.8167 46.1615 32.494 46.1432 32.0987 46.218C32.0114 46.2348 31.8904 46.2664 31.7951 46.2884L31.7848 46.2906L31.7679 46.2957C31.0976 46.457 30.6671 47.0731 30.8057 47.6818C30.9443 48.2883 31.5993 48.6572 32.274 48.5127L32.2908 48.5105L32.3128 48.5032C32.4067 48.4827 32.5248 48.4592 32.6062 48.4372C32.9956 48.333 33.278 48.1805 33.6278 48.0463C34.3803 47.7749 35.0036 47.5505 35.6109 47.4625C35.8646 47.4427 36.1316 47.6187 36.2651 47.6935L36.7608 47.6085C37.902 51.1463 40.2935 54.0058 43.3217 55.8004L43.1149 56.2961C43.1897 56.489 43.2718 56.7494 43.2161 56.9393C42.9961 57.5114 42.6169 58.1164 42.1864 58.7904C41.9781 59.1013 41.7647 59.3426 41.5762 59.6998C41.5315 59.7841 41.4736 59.9154 41.4303 60.0056C41.1384 60.6312 41.3526 61.3514 41.9143 61.622C42.479 61.8933 43.1809 61.6073 43.4845 60.9803L43.4874 60.9773V60.9751C43.5307 60.8857 43.5916 60.7698 43.6282 60.6855C43.7896 60.3166 43.8431 59.9997 43.9561 59.6426C44.2568 58.8872 44.4225 58.0937 44.8369 57.5994C44.9505 57.4637 45.1354 57.4116 45.3275 57.3603L45.5849 56.8939C48.3096 57.9431 51.285 58.1571 54.1318 57.5084C54.7952 57.3579 55.4472 57.1613 56.0833 56.9203C56.1567 57.0486 56.2909 57.2958 56.3268 57.3581C56.5219 57.4212 56.7346 57.4534 56.9077 57.7101C57.2179 58.2396 57.4298 58.8667 57.688 59.6235C57.8017 59.9807 57.8574 60.2968 58.018 60.6664C58.0547 60.75 58.1163 60.8688 58.1596 60.9575C58.4624 61.5868 59.1665 61.8743 59.7327 61.6022C60.2937 61.3308 60.5086 60.6107 60.2167 59.9858C60.1727 59.8956 60.1126 59.7643 60.0678 59.6793C59.8793 59.3228 59.6659 59.0837 59.4576 58.7728C59.0271 58.0981 58.67 57.5392 58.4492 56.9665C58.3568 56.6709 58.4639 56.4876 58.5365 56.2954C58.4932 56.2463 58.4008 55.9676 58.3466 55.8363C61.4703 53.9831 63.8043 51.0469 64.9052 47.5857C65.0519 47.6092 65.3086 47.6547 65.3915 47.6708C65.5623 47.5579 65.7193 47.4112 66.028 47.4354C66.6353 47.5234 67.2587 47.7485 68.0119 48.0184C68.3617 48.1526 68.6433 48.3081 69.0327 48.4123C69.1149 48.4343 69.2329 48.4548 69.3261 48.4753L69.3481 48.4827L69.3657 48.4856C70.0404 48.6308 70.6953 48.2612 70.8339 47.6539C70.9725 47.0467 70.542 46.4306 69.871 46.2678C69.7734 46.2458 69.6356 46.2092 69.541 46.1908C69.1449 46.116 68.8222 46.1344 68.4489 46.1028C67.654 46.0199 66.9954 45.9525 66.4101 45.7677C66.1711 45.6753 66.0009 45.3914 65.9188 45.2741L65.4589 45.1406C65.6973 43.4172 65.6335 41.624 65.2213 39.8294C64.8184 38.07 64.0958 36.3995 63.0894 34.9011C63.2067 34.7948 63.4297 34.5982 63.4927 34.5395C63.5111 34.3357 63.4957 34.1215 63.7069 33.8956C64.1542 33.4754 64.7182 33.127 65.3988 32.7075C65.7215 32.5169 66.02 32.3944 66.3441 32.1553C66.4175 32.101 66.5172 32.016 66.5942 31.9536C67.1399 31.518 67.266 30.7677 66.8736 30.2764C66.482 29.785 65.723 29.7388 65.1773 30.1737C65.0996 30.2353 64.994 30.316 64.9243 30.3761C64.6192 30.6387 64.4307 30.8983 64.1733 31.1711C63.6123 31.7409 63.1488 32.2162 62.6398 32.5587C62.4191 32.687 62.0956 32.643 61.949 32.6342L61.5163 32.9422C59.0491 30.3556 55.6902 28.7018 52.0732 28.3806C52.0625 28.2112 52.0535 28.0418 52.046 27.8723C51.8979 27.7308 51.719 27.6098 51.6742 27.3039C51.6243 26.6923 51.7072 26.0337 51.8033 25.2402C51.8561 24.8691 51.9434 24.5611 51.9588 24.1585C51.9617 24.0668 51.9566 23.934 51.9558 23.835C51.9558 23.1369 51.4469 22.5707 50.8184 22.5707ZM49.3941 31.3948L49.056 37.3623L49.0318 37.3748C49.0209 37.6331 48.9105 37.8772 48.7238 38.0561C48.5372 38.235 48.2886 38.3348 48.03 38.3348C47.8178 38.3352 47.611 38.2679 47.4397 38.1427L47.4301 38.1478L42.537 34.6789C44.0955 33.1485 46.0502 32.0835 48.1811 31.6038C48.5815 31.5129 48.9864 31.4432 49.3941 31.3948ZM52.2455 31.3948C54.8162 31.7128 57.211 32.8672 59.0609 34.6803L54.1993 38.1273L54.1824 38.1199C53.9735 38.2722 53.714 38.3382 53.4577 38.304C53.2015 38.2699 52.9683 38.1383 52.8066 37.9366C52.6737 37.7709 52.5971 37.5672 52.588 37.355L52.5829 37.3528L52.2455 31.3948ZM40.7622 36.9076L45.23 40.9046L45.2248 40.9288C45.6282 41.2793 45.6876 41.8873 45.3517 42.309C45.2189 42.4758 45.0366 42.596 44.831 42.6522L44.8266 42.6713L39.0989 44.3244C38.8139 41.736 39.3992 39.1264 40.7622 36.9076ZM60.8423 36.9106C61.5236 38.0159 62.019 39.2254 62.309 40.491C62.6046 41.778 62.6787 43.0629 62.5569 44.3046L56.8006 42.6471L56.7955 42.6229C56.5465 42.5539 56.3337 42.3917 56.2012 42.1699C56.0687 41.9481 56.0268 41.6838 56.0841 41.4319C56.1307 41.2252 56.2419 41.0387 56.4016 40.8995L56.3994 40.887L60.8423 36.9106ZM49.9016 41.2126H51.7322L52.8696 42.6354L52.4619 44.4094L50.8184 45.1993L49.1704 44.4072L48.7619 42.6324L49.9016 41.2126ZM55.7702 46.0794C55.8476 46.0762 55.9251 46.0819 56.0012 46.0962L56.0107 46.0845L61.9343 47.0856C61.0599 49.5435 59.3913 51.6399 57.1922 53.0436L54.8923 47.4889L54.8997 47.4794C54.8356 47.3306 54.8084 47.1685 54.8205 47.007C54.8326 46.8455 54.8836 46.6892 54.9691 46.5517C55.0546 46.4141 55.1721 46.2992 55.3116 46.2168C55.4511 46.1345 55.6084 46.0878 55.7702 46.0794ZM45.8203 46.1036C45.985 46.106 46.1465 46.149 46.2907 46.2287C46.4348 46.3084 46.5571 46.4224 46.6467 46.5605C46.7364 46.6987 46.7907 46.8568 46.8047 47.0209C46.8188 47.1849 46.7923 47.35 46.7275 47.5014L46.7444 47.5234L44.4694 53.0216C42.2851 51.6238 40.6231 49.5442 39.7413 47.1054L45.6143 46.108L45.6238 46.1204C45.6886 46.1085 45.7544 46.1029 45.8203 46.1036ZM50.7817 48.5127C50.944 48.507 51.1051 48.5412 51.2511 48.6125C51.4498 48.7078 51.6038 48.8589 51.7006 49.04H51.7226L54.618 54.2713C54.238 54.3985 53.8518 54.5062 53.4608 54.594C51.3316 55.0822 49.1086 54.9679 47.0407 54.2639L49.9288 49.0422H49.9339C50.0167 48.8877 50.1385 48.7575 50.2873 48.6646C50.436 48.5717 50.6065 48.5193 50.7817 48.5127Z" fill="#E4E4E4"/>
</svg>
