<svg width="101" height="101" viewBox="0 0 101 101" fill="none" xmlns="http://www.w3.org/2000/svg">
<g clip-path="url(#clip0_2336_10653)">
<g clip-path="url(#clip1_2336_10653)">
<path d="M0.776367 61.2314V46.2994H4.02644V48.1913C4.84642 46.6583 6.63213 45.8596 8.24049 45.8596C10.114 45.8596 11.7521 46.7503 12.5143 48.4986C13.6292 46.535 15.2973 45.8596 17.1409 45.8596C19.7185 45.8596 22.1766 47.5784 22.1766 51.5368V61.2314H18.8985V52.1184C18.8985 50.3701 18.0487 49.0506 16.1454 49.0506C14.3596 49.0506 13.1885 50.5228 13.1885 52.3631V61.2295H9.85235V52.1184C9.85235 50.4014 9.02886 49.0598 7.09742 49.0598C5.28363 49.0598 4.14058 50.4713 4.14058 52.3723V61.2387L0.776367 61.2314Z" fill="#191919"/>
<path d="M26.3311 61.2313V39.0175H29.7286V61.2313H26.3311Z" fill="#191919"/>
<path d="M28.3643 69.3617C29.128 69.5844 29.8146 69.7298 31.272 69.7298C33.9812 69.7298 37.1768 68.1287 38.0179 63.6348L41.491 45.6167H46.6549L47.2853 42.6189H42.0687L42.771 39.0378C43.3083 36.2571 44.7762 34.8475 47.1325 34.8475C47.7454 34.8475 47.5732 34.9027 48.1193 35.0113L48.8743 31.9417C48.1474 31.7135 47.496 31.5773 46.0773 31.5773C44.5795 31.5537 43.1171 32.0558 41.9229 33.0035C40.6008 34.0746 39.7281 35.648 39.3296 37.6797L38.3515 42.6189H33.7336L33.3561 45.6186H37.7809L34.5922 62.2785C34.241 64.1684 33.2156 66.4283 30.2729 66.4283C29.6056 66.4283 29.8479 66.375 29.244 66.2719L28.3643 69.3617Z" fill="#191919"/>
<path d="M49.7136 61.1099H46.3179L50.9726 38.6973H54.3684L49.7136 61.1099Z" fill="#191919"/>
<path d="M66.6541 47.2361C63.6904 45.0626 59.6551 45.49 57.1662 48.2409C54.6772 50.9919 54.4843 55.2379 56.7125 58.2243L58.9371 56.5129C57.8328 55.0771 57.6086 53.1062 58.3597 51.4385C59.1108 49.7709 60.7052 48.6997 62.4647 48.6808V50.5026L66.6541 47.2361Z" fill="#191919"/>
<path d="M58.2241 59.7315C61.1879 61.905 65.2231 61.4776 67.712 58.7267C70.201 55.9757 70.3939 51.7297 68.1658 48.7433L65.9411 50.4547C67.0454 51.8905 67.2696 53.8614 66.5185 55.5291C65.7674 57.1967 64.173 58.2679 62.4136 58.2868V56.465L58.2241 59.7315Z" fill="#191919"/>
<path d="M72.4204 46.2903H76.1305L76.8855 56.4946L82.1688 46.2903L85.691 46.3436L87.0747 56.4946L91.7294 46.2903L95.1251 46.3436L88.0808 61.2407H84.685L83.0485 50.5615L77.6405 61.2407H74.1183L72.4204 46.2903Z" fill="#191919"/>
<path d="M97.1725 46.5552H96.4697V46.2994H98.1624V46.5607H97.4606V48.7175H97.1725V46.5552Z" fill="#191919"/>
<path d="M98.5874 46.2994H98.9388L99.381 47.5876C99.4379 47.7532 99.4902 47.9225 99.5443 48.0918H99.5608C99.6149 47.9225 99.6645 47.7532 99.7186 47.5876L100.157 46.2994H100.509V48.7175H100.235V47.3834C100.235 47.1717 100.257 46.881 100.272 46.6656H100.257L100.082 47.2177L99.6461 48.471H99.4553L99.014 47.2195L98.8388 46.6675H98.825C98.8406 46.8828 98.8636 47.1736 98.8636 47.3852V48.7193H98.5966L98.5874 46.2994Z" fill="#191919"/>
</g>
</g>
<defs>
<clipPath id="clip0_2336_10653">
<rect width="100" height="100" fill="white" transform="translate(0.776367 0.624023)"/>
</clipPath>
<clipPath id="clip1_2336_10653">
<rect width="100" height="38.4615" fill="white" transform="translate(0.776367 31.3933)"/>
</clipPath>
</defs>
</svg>
