<svg width="101" height="101" viewBox="0 0 101 101" fill="none" xmlns="http://www.w3.org/2000/svg">
<g clip-path="url(#clip0_2357_2)">
<path d="M2.75729 43.661C3.15143 44.0318 3.45573 44.4706 3.77258 44.907C4.04093 45.272 4.31758 45.6309 4.59271 45.9908C4.71939 46.1569 4.84606 46.323 4.97272 46.4891C5.03668 46.5729 5.10064 46.6568 5.16654 46.7432C5.41805 47.0729 5.66932 47.4029 5.9206 47.7329C6.41494 48.382 6.90971 49.0307 7.4055 49.6787C7.55055 49.8684 7.69558 50.0581 7.84061 50.2477C7.9498 50.3905 8.05904 50.5332 8.16832 50.6759C9.03255 51.8045 9.88522 52.9407 10.724 54.0883C11.253 53.4699 11.7324 52.8296 12.1975 52.1628C12.5456 51.6644 12.9022 51.173 13.2641 50.6845C13.6787 50.1245 14.0902 49.5624 14.4972 48.9968C15.0582 48.2177 15.627 47.4446 16.1976 46.6725C16.3661 46.4442 16.5341 46.2156 16.7019 45.9869C16.7581 45.9105 16.8142 45.8341 16.8721 45.7553C16.9782 45.6109 17.0842 45.4665 17.1901 45.3219C18.4993 43.5412 18.4993 43.5412 19.134 43.3599C19.5059 43.3599 19.6888 43.429 19.9977 43.6326C20.4059 44.0689 20.3748 44.5478 20.3742 45.118C20.3745 45.1951 20.3747 45.2723 20.375 45.3518C20.3758 45.6107 20.3759 45.8696 20.3761 46.1286C20.3765 46.3141 20.3769 46.4995 20.3774 46.685C20.3786 47.1892 20.3792 47.6934 20.3796 48.1976C20.3799 48.5125 20.3803 48.8274 20.3807 49.1423C20.3819 50.1272 20.3828 51.1122 20.3831 52.0972C20.3835 53.2347 20.3851 54.3723 20.3878 55.5098C20.3897 56.3888 20.3907 57.2678 20.3908 58.1468C20.3909 58.672 20.3914 59.1971 20.393 59.7222C20.3945 60.2161 20.3947 60.71 20.3939 61.2038C20.3939 61.3851 20.3943 61.5664 20.3952 61.7477C20.3963 61.9951 20.3958 62.2425 20.3948 62.49C20.3959 62.5976 20.3959 62.5976 20.397 62.7074C20.3924 63.2207 20.2803 63.5849 19.9523 63.9814C19.6356 64.232 19.2917 64.2068 18.9067 64.1802C18.5726 64.0284 18.3695 63.8576 18.1794 63.5438C18.07 63.2164 18.0759 62.8997 18.0741 62.5565C18.0736 62.4938 18.0732 62.4312 18.0727 62.3666C18.0713 62.1566 18.0705 61.9467 18.0698 61.7367C18.0689 61.5862 18.068 61.4356 18.0671 61.2851C18.0646 60.8764 18.0627 60.4676 18.0609 60.0589C18.0589 59.6318 18.0564 59.2047 18.054 58.7775C18.0494 57.9687 18.0453 57.1599 18.0414 56.351C18.0369 55.4302 18.0319 54.5094 18.0269 53.5885C18.0165 51.6943 18.0068 49.8 17.9975 47.9058C17.7644 48.2106 17.5315 48.5156 17.2986 48.8207C17.233 48.9064 17.1674 48.9921 17.0999 49.0805C16.755 49.5324 16.4153 49.9865 16.0882 50.4515C15.7076 50.9923 15.3086 51.5178 14.9063 52.0426C14.5025 52.5695 14.101 53.0966 13.7187 53.6394C13.1834 54.3982 12.6234 55.1384 12.0633 55.879C11.9584 56.0187 11.8544 56.1589 11.7513 56.2999C11.7033 56.3652 11.6553 56.4306 11.6059 56.498C11.5638 56.5559 11.5217 56.6139 11.4783 56.6736C11.3058 56.8819 11.1718 56.9523 10.9059 56.9977C10.6104 57.0204 10.6104 57.0204 10.2694 56.9067C9.69792 56.4044 9.25406 55.7554 8.79663 55.1509C8.50338 54.7634 8.20437 54.3805 7.90556 53.9973C7.46787 53.4354 7.03235 52.8718 6.5986 52.3068C6.30845 51.9296 6.01587 51.5543 5.72351 51.1789C5.01042 50.2626 4.30064 49.3444 3.60468 48.4151C3.55464 48.3483 3.5046 48.2815 3.45305 48.2128C3.33096 48.0498 3.2089 47.8869 3.08687 47.724C3.08667 47.8456 3.08667 47.8456 3.08646 47.9697C3.0831 49.9426 3.07773 51.9155 3.07015 53.8884C3.06653 54.8424 3.06358 55.7965 3.06223 56.7505C3.06105 57.582 3.0586 58.4135 3.05463 59.245C3.05257 59.6853 3.05114 60.1256 3.05124 60.566C3.05131 60.9804 3.04968 61.3947 3.04676 61.8091C3.04598 61.9613 3.04583 62.1134 3.04634 62.2655C3.04694 62.4733 3.04531 62.6809 3.04313 62.8886C3.0428 63.0048 3.04246 63.121 3.04212 63.2408C2.98802 63.5958 2.88043 63.7442 2.63227 63.9984C2.31529 64.2279 2.01424 64.2132 1.63217 64.1802C1.29103 64.0621 1.13226 63.9788 0.936816 63.6732C0.785719 63.2906 0.775841 62.9822 0.779264 62.5752C0.778839 62.4971 0.778413 62.4191 0.777975 62.3387C0.776889 62.0778 0.777748 61.8169 0.778607 61.556C0.778237 61.3687 0.777751 61.1814 0.777158 60.9941C0.775915 60.4858 0.776397 59.9775 0.777262 59.4692C0.777952 58.9373 0.777312 58.4053 0.776884 57.8734C0.776387 56.98 0.777041 56.0867 0.77834 55.1934C0.779825 54.1606 0.779344 53.1278 0.777842 52.095C0.776604 51.2083 0.77643 50.3215 0.777143 49.4348C0.777569 48.9052 0.777625 48.3756 0.776724 47.846C0.775936 47.3481 0.776483 46.8502 0.778059 46.3523C0.77842 46.1695 0.778316 45.9868 0.777715 45.8041C0.77697 45.5546 0.777904 45.3052 0.779264 45.0558C0.778656 44.9835 0.778047 44.9112 0.77742 44.8366C0.782044 44.3994 0.850023 44.1046 1.08666 43.7235C1.57885 43.2631 2.21888 43.2363 2.75729 43.661Z" fill="#191919"/>
<path d="M50.8192 43.5418C51.6484 44.2947 52.3236 45.2345 52.9968 46.1256C53.3509 46.5923 53.7173 47.0466 54.0923 47.4967C54.5657 48.0653 55.0197 48.6453 55.4656 49.2355C55.8151 49.6959 56.1772 50.1438 56.5471 50.588C57.0205 51.1565 57.4745 51.7365 57.9204 52.3268C58.2699 52.7871 58.632 53.2351 59.0019 53.6792C59.4235 54.1856 59.8321 54.6991 60.2293 55.2248C60.6322 55.7581 61.0466 56.2791 61.4737 56.7932C61.9153 57.3247 62.3463 57.8616 62.7641 58.4121C63.0028 58.7263 63.2432 59.0391 63.4839 59.3517C63.5253 59.4055 63.5667 59.4593 63.6094 59.5147C63.7101 59.6455 63.8108 59.7763 63.9115 59.9071C63.9118 59.7855 63.9118 59.7855 63.9121 59.6613C63.9175 57.6885 63.9244 55.7156 63.9329 53.7427C63.937 52.7887 63.9406 51.8346 63.943 50.8805C63.9451 50.0491 63.9481 49.2176 63.9523 48.3861C63.9545 47.9458 63.9562 47.5054 63.9567 47.0651C63.9573 46.6507 63.9591 46.2363 63.9619 45.8219C63.9627 45.6698 63.963 45.5177 63.9628 45.3655C63.9627 45.1578 63.9642 44.9502 63.9661 44.7425C63.9666 44.6263 63.967 44.51 63.9674 44.3903C64.005 44.0648 64.0808 43.8933 64.2752 43.6327C64.556 43.439 64.8582 43.3539 65.1989 43.3681C65.5187 43.4308 65.6802 43.4937 65.9194 43.7251C66.1546 44.0915 66.1443 44.367 66.1397 44.7935C66.1403 44.8738 66.1408 44.954 66.1414 45.0367C66.1429 45.3057 66.1417 45.5745 66.1406 45.8435C66.1411 46.0363 66.1417 46.2291 66.1425 46.4219C66.1442 46.9456 66.1435 47.4693 66.1424 47.993C66.1415 48.5408 66.1423 49.0886 66.1429 49.6364C66.1435 50.5563 66.1427 51.4762 66.1409 52.3961C66.139 53.4601 66.1396 54.524 66.1416 55.588C66.1433 56.501 66.1435 57.4141 66.1425 58.3271C66.142 58.8726 66.1419 59.4181 66.1431 59.9637C66.1441 60.4765 66.1434 60.9893 66.1413 61.5021C66.1408 61.6905 66.141 61.8788 66.1418 62.0672C66.1428 62.324 66.1415 62.5808 66.1397 62.8376C66.1405 62.9124 66.1413 62.9872 66.1422 63.0642C66.1373 63.4201 66.1173 63.5963 65.9258 63.9062C65.6699 64.1454 65.5032 64.1768 65.1559 64.203C64.6652 64.1698 64.3802 64.0141 64.0351 63.6639C63.955 63.5679 63.8759 63.471 63.7978 63.3734C63.7548 63.3211 63.7118 63.2688 63.6674 63.2149C63.3436 62.8186 63.0309 62.4139 62.7215 62.0063C62.4143 61.6026 62.0961 61.2088 61.7749 60.8163C61.3428 60.288 60.9233 59.7524 60.5095 59.2096C60.2469 58.8682 59.9738 58.5355 59.7008 58.2024C59.2927 57.7041 58.8961 57.1989 58.5075 56.6852C58.0513 56.0824 57.5778 55.4966 57.0946 54.9153C56.7047 54.4453 56.331 53.9661 55.9614 53.48C55.6942 53.1313 55.4159 52.7918 55.1378 52.4518C54.7057 51.9234 54.2862 51.3879 53.8724 50.8451C53.565 50.4454 53.2435 50.0572 52.9239 49.6672C52.5491 49.2076 52.1857 48.7402 51.8268 48.2681C51.7731 48.1978 51.7195 48.1274 51.6642 48.055C51.534 47.8841 51.4038 47.7132 51.2738 47.5422C51.2737 47.6651 51.2737 47.6651 51.2736 47.7906C51.2723 49.7847 51.2684 51.7789 51.2618 53.773C51.2586 54.7374 51.2563 55.7017 51.256 56.6661C51.2557 57.5066 51.2539 58.3471 51.2501 59.1876C51.2482 59.6326 51.247 60.0777 51.2478 60.5227C51.2484 60.9417 51.247 61.3606 51.244 61.7796C51.2432 61.9333 51.2432 62.087 51.2441 62.2407C51.2451 62.4508 51.2434 62.6607 51.241 62.8708C51.2406 63.047 51.2406 63.047 51.2402 63.2268C51.1644 63.6461 51.0302 63.7928 50.7283 64.0894C50.3186 64.2259 49.9698 64.2454 49.5691 64.0723C49.3264 63.8768 49.2255 63.7358 49.0917 63.453C49.0659 63.1854 49.0549 62.9375 49.0571 62.6702C49.0567 62.5915 49.0562 62.5128 49.0558 62.4317C49.0547 62.168 49.0556 61.9043 49.0564 61.6406C49.0561 61.4516 49.0556 61.2625 49.055 61.0734C49.0537 60.5598 49.0542 60.0463 49.0551 59.5327C49.0558 58.9954 49.0551 58.4581 49.0547 57.9208C49.0542 57.0184 49.0549 56.116 49.0562 55.2136C49.0577 54.1702 49.0572 53.1268 49.0557 52.0834C49.0544 51.1878 49.0543 50.2922 49.055 49.3966C49.0554 48.8616 49.0555 48.3266 49.0546 47.7916C49.0538 47.2885 49.0543 46.7855 49.0559 46.2824C49.0563 46.0978 49.0561 45.9131 49.0555 45.7285C49.0548 45.4765 49.0557 45.2245 49.0571 44.9725C49.0565 44.8994 49.0559 44.8263 49.0553 44.751C49.0598 44.3135 49.1198 44.0102 49.3645 43.6327C49.8532 43.3199 50.2865 43.2933 50.8192 43.5418Z" fill="#191919"/>
<path d="M31.4327 43.4202C31.5132 43.4192 31.5937 43.4181 31.6766 43.417C31.9427 43.4139 32.2087 43.4122 32.4748 43.4108C32.6114 43.4099 32.6114 43.4099 32.7507 43.4089C33.2326 43.4057 33.7145 43.4035 34.1963 43.4023C34.6933 43.4008 35.1901 43.3955 35.687 43.3893C36.0698 43.3852 36.4526 43.384 36.8354 43.3835C37.0186 43.3828 37.2017 43.381 37.3848 43.3781C38.997 43.3544 38.997 43.3544 39.405 43.6979C39.5149 43.8256 39.6218 43.9558 39.727 44.0874C39.8613 44.2244 39.9989 44.3573 40.1369 44.4905C40.4109 44.7557 40.679 45.0268 40.9484 45.2967C41.0654 45.4136 41.1823 45.5305 41.2993 45.6473C41.543 45.8909 41.7865 46.1346 42.0299 46.3784C42.3422 46.6913 42.655 47.0037 42.9679 47.3161C43.2088 47.5567 43.4495 47.7975 43.6902 48.0384C43.8055 48.1538 43.9209 48.2691 44.0363 48.3843C44.1969 48.5447 44.3572 48.7053 44.5175 48.8661C44.5892 48.9375 44.5892 48.9375 44.6624 49.0105C45.0986 49.4492 45.1064 49.7254 45.1117 50.3278C45.1127 50.4091 45.1137 50.4905 45.1148 50.5742C45.1249 51.4257 45.1292 52.2773 45.1331 53.1288C45.1351 53.5328 45.1389 53.9366 45.1442 54.3405C45.1507 54.8283 45.154 55.3159 45.1552 55.8037C45.1561 55.9894 45.1581 56.175 45.1613 56.3607C45.1877 57.9972 45.1877 57.9972 44.8443 58.4049C44.7166 58.5142 44.5864 58.6206 44.4548 58.7253C44.3181 58.8594 44.1855 58.9971 44.0527 59.1351C43.7883 59.4092 43.5179 59.6773 43.2487 59.9467C43.132 60.0636 43.0154 60.1806 42.8987 60.2976C42.6556 60.5413 42.4122 60.7848 42.1688 61.0282C41.8566 61.3404 41.545 61.6532 41.2336 61.9661C40.9935 62.2072 40.753 62.4479 40.5124 62.6884C40.3973 62.8037 40.2823 62.9191 40.1675 63.0346C40.0076 63.1954 39.8471 63.3556 39.6865 63.5157C39.6155 63.5875 39.6155 63.5875 39.543 63.6607C39.0965 64.1034 38.7403 64.1036 38.1368 64.1056C38.0579 64.1062 37.9791 64.1068 37.8979 64.1074C37.6368 64.1092 37.3757 64.1103 37.1145 64.1112C36.9807 64.1117 36.9807 64.1117 36.8441 64.1123C36.3718 64.1142 35.8995 64.1155 35.4271 64.1163C34.9397 64.1173 34.4523 64.1205 33.9649 64.1241C33.5897 64.1265 33.2145 64.1272 32.8394 64.1275C32.6597 64.128 32.4801 64.129 32.3004 64.1307C32.0486 64.1329 31.7969 64.1329 31.5451 64.1322C31.4344 64.134 31.4344 64.134 31.3215 64.1358C30.5238 64.1285 30.068 63.7461 29.5279 63.1965C29.4757 63.1445 29.4236 63.0926 29.3699 63.0391C29.1994 62.8689 29.0299 62.6977 28.8605 62.5265C28.7416 62.4073 28.6227 62.2882 28.5037 62.1692C28.2553 61.9204 28.0074 61.6711 27.7598 61.4215C27.4424 61.1015 27.1241 60.7823 26.8056 60.4634C26.5604 60.2178 26.3155 59.972 26.0707 59.7261C25.9534 59.6083 25.836 59.4905 25.7186 59.3728C25.555 59.2085 25.3917 59.0439 25.2284 58.8792C25.1799 58.8306 25.1314 58.782 25.0814 58.7319C24.6014 58.2463 24.5158 57.9456 24.5129 57.2766C24.5113 57.1519 24.5113 57.1519 24.5097 57.0247C24.5066 56.7493 24.5049 56.4738 24.5035 56.1984C24.5028 56.1043 24.5022 56.0101 24.5016 55.9131C24.4983 55.4148 24.4962 54.9164 24.4949 54.418C24.4934 53.9038 24.4881 53.3898 24.4819 52.8757C24.4778 52.4798 24.4766 52.084 24.4761 51.6881C24.4754 51.4987 24.4736 51.3092 24.4708 51.1197C24.467 50.854 24.4673 50.5885 24.4685 50.3227C24.4665 50.245 24.4645 50.1673 24.4624 50.0872C24.4709 49.543 24.6292 49.2756 25.008 48.8894C25.0648 48.8349 25.1215 48.7804 25.18 48.7242C25.2693 48.6312 25.3585 48.5381 25.4474 48.4447C25.536 48.3553 25.6249 48.2661 25.7139 48.1772C25.7631 48.1277 25.8122 48.0782 25.8629 48.0273C26.0227 47.8666 26.1829 47.7062 26.3432 47.5459C26.4555 47.4332 26.5679 47.3205 26.6803 47.2078C26.9145 46.9731 27.1489 46.7385 27.3834 46.5041C27.6837 46.2037 27.9835 45.9027 28.2831 45.6016C28.5143 45.3693 28.746 45.1374 28.9778 44.9057C29.0885 44.7948 29.1991 44.6839 29.3096 44.5727C29.4636 44.4178 29.6182 44.2635 29.7729 44.1093C29.8182 44.0635 29.8635 44.0177 29.9102 43.9705C30.4075 43.4776 30.7425 43.4234 31.4327 43.4202ZM26.4529 50.3608C25.6099 52.4909 25.6099 55.0496 26.4529 57.1797C27.4135 59.347 29.3477 61.3015 31.5671 62.1693C33.7989 62.9541 36.5127 62.9307 38.6675 61.9102C40.6967 60.8746 42.4928 59.0332 43.241 56.8573C43.9514 54.5739 43.9107 51.8337 42.8127 49.6777C41.7162 47.6704 39.8581 45.9326 37.6555 45.2349C33.1274 43.938 28.3856 46.0003 26.4529 50.3608Z" fill="#191919"/>
<path d="M78.7593 43.3372C78.8284 43.3348 78.8974 43.3325 78.9685 43.3301C79.257 43.3697 79.4095 43.4541 79.6401 43.6327C79.8021 43.8816 79.8021 43.8816 79.9583 44.2066C79.9886 44.2694 80.0188 44.3321 80.05 44.3968C80.4601 45.262 80.8316 46.1453 81.2092 47.0251C81.5486 47.8157 81.8944 48.6035 82.2409 49.3911C82.8176 50.7021 83.3924 52.0138 83.9644 53.3269C83.9961 53.3997 84.0279 53.4725 84.0605 53.5475C84.3162 54.1343 84.5717 54.7212 84.8272 55.3081C85.019 55.7488 85.2109 56.1894 85.4029 56.63C85.4664 56.7759 85.53 56.9218 85.5935 57.0677C85.9711 57.9349 86.3503 58.8012 86.7318 59.6667C86.8075 59.8386 86.8832 60.0105 86.9589 60.1824C87.1038 60.5114 87.249 60.8402 87.3945 61.1689C87.4604 61.3186 87.5264 61.4682 87.5923 61.6179C87.6222 61.6853 87.6522 61.7528 87.683 61.8223C88.1694 62.9286 88.1694 62.9286 88.0046 63.5439C87.8119 63.8541 87.6323 64.0619 87.2773 64.1803C86.8704 64.2187 86.5766 64.206 86.2372 63.9638C84.8642 62.5388 83.8821 58.7736 83.2769 57.3614C80.2465 57.3314 77.2162 57.3014 74.0941 57.2705C74.0041 57.5405 73.914 57.8105 73.8213 58.0887C73.7519 58.2661 73.6802 58.4426 73.6056 58.6179C73.5652 58.7132 73.5248 58.8085 73.4832 58.9067C73.4403 59.007 73.3974 59.1073 73.3532 59.2107C73.3083 59.3163 73.2633 59.422 73.217 59.5308C73.1223 59.7533 73.0274 59.9758 72.9323 60.1981C72.8115 60.4805 72.6914 60.763 72.5713 61.0457C72.4553 61.3187 72.3388 61.5915 72.2224 61.8643C72.1586 62.0145 72.1586 62.0145 72.0935 62.1678C71.3933 63.8022 71.3933 63.8022 71.0597 64.1007C70.6521 64.2366 70.3281 64.2455 69.9345 64.0666C69.5812 63.7918 69.5812 63.7918 69.4572 63.5439C69.3839 62.9464 69.51 62.4913 69.7609 61.9549C69.809 61.8471 69.809 61.8471 69.8581 61.7371C69.9637 61.5015 70.0713 61.2669 70.1789 61.0322C70.2539 60.8657 70.3287 60.6991 70.4033 60.5324C70.5574 60.1887 70.712 59.8453 70.8671 59.5021C71.1754 58.8182 71.4742 58.1302 71.7725 57.4418C71.9309 57.0766 72.09 56.7117 72.2491 56.3467C72.2808 56.2739 72.3126 56.201 72.3453 56.126C72.7892 55.1078 73.2363 54.0909 73.6832 53.074C73.7513 52.9188 73.8195 52.7636 73.8877 52.6084C73.9209 52.5328 73.9542 52.4572 73.9884 52.3793C74.2717 51.7342 74.5542 51.0889 74.8364 50.4433C75.0737 49.9005 75.3112 49.3578 75.5488 48.815C75.5981 48.7023 75.5981 48.7023 75.6484 48.5873C75.8667 48.0886 76.0852 47.5899 76.3038 47.0913C76.3751 46.9285 76.4464 46.7657 76.5177 46.603C76.7106 46.1622 76.9045 45.7218 77.0995 45.2819C77.1803 45.0988 77.2596 44.9151 77.3387 44.7313C77.4076 44.5748 77.4076 44.5748 77.4779 44.4151C77.5355 44.2822 77.5355 44.2822 77.5943 44.1466C77.8758 43.6493 78.1866 43.3487 78.7593 43.3372ZM78.64 46.8148C77.8222 48.6682 77.0076 50.523 76.2073 52.384C76.1362 52.5493 76.065 52.7146 75.9937 52.8798C75.8934 53.112 75.7937 53.3444 75.694 53.5769C75.6648 53.6444 75.6356 53.7119 75.6055 53.7814C75.4082 54.2438 75.2544 54.6987 75.0942 55.1793C77.4944 55.1793 79.8947 55.1793 82.3677 55.1793C82.1389 54.4908 82.1389 54.4908 81.8705 53.8251C81.8269 53.7252 81.7832 53.6252 81.7383 53.5223C81.691 53.4147 81.6436 53.307 81.5949 53.1962C81.5174 53.0191 81.4402 52.842 81.3629 52.6649C81.3067 52.536 81.2504 52.4072 81.1941 52.2783C80.7537 51.2702 80.3195 50.2593 79.8839 49.249C79.7751 48.9967 79.6662 48.7445 79.5574 48.4922C79.5091 48.3803 79.5091 48.3803 79.4599 48.266C79.2505 47.7808 79.0374 47.2973 78.8218 46.8148C78.7618 46.8148 78.7018 46.8148 78.64 46.8148Z" fill="#191919"/>
<path d="M32.0552 46.383C32.362 46.4512 32.362 46.4512 32.4529 46.5421C32.4566 46.6936 32.4568 46.8452 32.4529 46.9967C32.5038 47.0101 32.5547 47.0234 32.6071 47.0372C33.2125 47.2066 33.7687 47.445 34.3352 47.7141C34.9633 47.9254 35.4929 47.6077 36.067 47.3547C36.2217 47.2871 36.3765 47.2197 36.5315 47.1526C36.5994 47.1227 36.6674 47.0928 36.7374 47.062C36.908 46.9967 36.908 46.9967 37.0898 46.9967C37.0992 46.9255 37.1085 46.8542 37.1182 46.7808C37.1807 46.5421 37.1807 46.5421 37.4535 46.3603C37.7143 46.3277 37.8487 46.3155 38.0617 46.4761C38.1808 46.633 38.1808 46.633 38.1322 46.991C38.1217 47.0635 38.1113 47.1359 38.1005 47.2105C38.0645 48.0286 38.5149 48.9939 38.9991 49.6334C39.596 50.1115 40.4611 50.47 41.2354 50.4436C41.3744 50.4267 41.5131 50.4062 41.6508 50.3805C41.8176 50.3607 41.8176 50.3607 42.0505 50.4573C42.2379 50.7098 42.2259 50.8724 42.1812 51.179C42.0676 51.3494 42.0676 51.3494 41.9085 51.4517C41.7885 51.4517 41.6685 51.4517 41.5448 51.4517C41.5378 51.5095 41.5307 51.5673 41.5235 51.6268C41.4617 51.8749 41.3851 52.0673 41.2763 52.2966C40.8057 53.1713 40.8057 53.1713 40.7834 54.1168C40.8505 54.2612 40.9232 54.4031 40.9993 54.543C41.072 54.71 41.1445 54.8771 41.2152 55.045C41.2861 55.212 41.3605 55.3774 41.4351 55.5427C41.5448 55.8158 41.5448 55.8158 41.5448 56.0886C41.6329 56.0998 41.7211 56.1111 41.8119 56.1227C41.9038 56.1414 41.9957 56.1602 42.0903 56.1795C42.2159 56.4307 42.1986 56.6293 42.1812 56.9069C41.9994 57.0887 41.9994 57.0887 41.6812 57.1057C41.363 57.0887 41.363 57.0887 41.1811 56.9978C40.3587 57.1569 39.3489 57.4806 38.8058 58.1425C38.289 59.0075 38.0251 59.8201 38.1808 60.8164C38.0388 61.055 38.0388 61.055 37.8171 61.18C37.5387 61.1914 37.5387 61.1914 37.2716 61.0891C37.2413 61.0063 37.2109 60.9234 37.1797 60.838C36.9025 60.3866 36.5027 60.2806 36.0215 60.0947C35.9327 60.0574 35.8438 60.02 35.7523 59.9816C35.0533 59.7023 34.6282 59.7031 33.9286 59.9842C33.7754 60.0506 33.6226 60.1177 33.4701 60.1856C33.3162 60.2532 33.1622 60.3206 33.008 60.3877C32.9407 60.4176 32.8733 60.4475 32.8039 60.4783C32.6348 60.5436 32.6348 60.5436 32.4529 60.5436C32.4361 60.6505 32.4361 60.6505 32.4189 60.7595C32.362 60.9982 32.362 60.9982 32.1802 61.18C31.6843 61.1387 31.6843 61.1387 31.4528 60.9073C31.4331 60.5985 31.4455 60.3838 31.5438 60.089C31.401 59.254 31.0752 58.2234 30.368 57.7156C29.731 57.387 29.0554 57.1722 28.3616 56.9978C28.3166 57.0428 28.3166 57.0428 28.2707 57.0887C27.9582 57.1057 27.9582 57.1057 27.6343 57.0887C27.4524 56.9069 27.4524 56.9069 27.4297 56.5886C27.4524 56.2704 27.4524 56.2704 27.6343 56.0886C27.6925 56.0787 27.7508 56.0688 27.8108 56.0586C28.0853 55.9692 28.1332 55.8207 28.2643 55.5683C28.8464 54.3812 28.8464 54.3812 28.7828 53.0979C28.4323 52.0741 28.4323 52.0741 27.6911 51.3459C27.6123 51.3208 27.5336 51.2957 27.4524 51.2699C27.4191 50.6813 27.4191 50.6813 27.5643 50.4728C27.7252 50.3607 27.7252 50.3607 27.9155 50.3681C27.9877 50.3834 28.0599 50.3986 28.1343 50.4143C28.7158 50.492 29.1177 50.297 29.6345 50.0482C29.8029 49.9704 29.9715 49.8929 30.1402 49.8155C30.2135 49.7807 30.2867 49.7458 30.3622 49.7099C30.5437 49.6334 30.5437 49.6334 30.7255 49.6334C30.7328 49.5757 30.74 49.518 30.7475 49.4586C30.8081 49.2123 30.8834 49.0148 30.9876 48.7853C31.0205 48.7125 31.0535 48.6397 31.0874 48.5647C31.1563 48.4143 31.2264 48.2644 31.2976 48.1151C31.5102 47.639 31.5755 47.3205 31.4585 46.8075C31.4528 46.633 31.4528 46.633 31.5655 46.4721C31.7256 46.3603 31.7256 46.3603 32.0552 46.383ZM32.6348 47.3604C32.7677 47.5181 32.9014 47.675 33.0368 47.8306C33.148 47.9594 33.2558 48.0912 33.3621 48.2241C33.5432 48.3891 33.5432 48.3891 33.8224 48.3548C34.0931 48.2684 34.1771 48.1995 34.3622 47.9968C34.1086 47.8904 33.8547 47.7844 33.6008 47.6786C33.5286 47.6482 33.4564 47.6179 33.382 47.5866C33.3129 47.5579 33.2437 47.5292 33.1725 47.4996C33.1087 47.4729 33.0449 47.4463 32.9791 47.4188C32.8169 47.3501 32.8169 47.3501 32.6348 47.3604ZM35.8908 47.7184C35.8313 47.7448 35.7718 47.7712 35.7106 47.7985C35.5638 47.8638 35.4176 47.9302 35.2714 47.9968C35.2714 48.0568 35.2714 48.1168 35.2714 48.1787C35.5725 48.3246 35.5725 48.3246 35.8993 48.3434C36.1531 48.245 36.2891 48.0966 36.4761 47.9002C36.5724 47.8002 36.5724 47.8002 36.6707 47.6981C36.719 47.6467 36.7673 47.5952 36.817 47.5422C36.4449 47.4182 36.2288 47.5635 35.8908 47.7184ZM37.7262 47.5422C37.7262 48.0823 37.7262 48.6223 37.7262 49.1788C37.9963 49.2688 38.2663 49.3588 38.5445 49.4515C38.4574 49.2185 38.3703 48.9855 38.2831 48.7526C38.2586 48.687 38.2341 48.6214 38.2089 48.5539C38.082 48.2151 37.9533 47.8774 37.8171 47.5422C37.7871 47.5422 37.7571 47.5422 37.7262 47.5422ZM32.4529 47.6331C32.4716 47.689 32.4902 47.745 32.5094 47.8026C32.6118 48.1098 32.7142 48.417 32.8166 48.7242C32.9966 48.6642 33.1767 48.6042 33.3621 48.5423C32.9538 48.0395 32.9538 48.0395 32.4529 47.6331ZM37.4535 47.6331C37.3035 48.0232 37.1534 48.4132 36.9989 48.8151C37.2548 49.0221 37.2548 49.0221 37.5444 48.9969C37.5444 48.5469 37.5444 48.0968 37.5444 47.6331C37.5144 47.6331 37.4844 47.6331 37.4535 47.6331ZM31.7256 47.7241C31.6168 47.9775 31.509 48.2314 31.4017 48.4855C31.3706 48.5577 31.3395 48.6299 31.3074 48.7043C31.2639 48.808 31.2639 48.808 31.2195 48.9138C31.1924 48.9776 31.1652 49.0414 31.1373 49.1072C31.0669 49.2769 31.0669 49.2769 31.1801 49.4515C31.3901 49.3615 31.6001 49.2715 31.8165 49.1788C31.8165 48.6987 31.8165 48.2187 31.8165 47.7241C31.7865 47.7241 31.7565 47.7241 31.7256 47.7241ZM32.0893 47.7241C32.0893 48.1441 32.0893 48.5642 32.0893 48.9969C32.2393 48.9669 32.3893 48.9369 32.5439 48.906C32.4901 48.4654 32.3639 48.1234 32.1802 47.7241C32.1502 47.7241 32.1202 47.7241 32.0893 47.7241ZM36.9989 47.7241C36.7589 47.9641 36.5188 48.2041 36.2715 48.4514C36.3015 48.5114 36.3315 48.5714 36.3624 48.6333C36.5465 48.6925 36.5465 48.6925 36.7261 48.7242C36.7897 48.6092 36.852 48.4935 36.9136 48.3775C36.9485 48.3132 36.9833 48.2489 37.0191 48.1826C37.1173 47.9835 37.1173 47.9835 36.9989 47.7241ZM33.9076 48.5423C34.0357 48.8347 34.1898 49.0262 34.4191 49.247C34.4765 49.3027 34.5339 49.3585 34.5931 49.416C34.6369 49.4577 34.6808 49.4994 34.7259 49.5424C34.8264 49.4573 34.9268 49.3721 35.0271 49.2867C35.083 49.2393 35.1389 49.1918 35.1965 49.1429C35.4245 48.9424 35.4245 48.9424 35.6351 48.7242C35.6351 48.6642 35.6351 48.6042 35.6351 48.5423C34.944 48.2171 34.5988 48.2171 33.9076 48.5423ZM32.9985 48.9969C33.1745 49.5611 33.3854 50.0978 33.6349 50.6335C33.7354 50.5484 33.8358 50.4631 33.9361 50.3778C33.992 50.3303 34.0479 50.2828 34.1055 50.2339C34.2581 50.0996 34.4021 49.9606 34.5441 49.8152C34.4105 49.5062 34.2367 49.3015 33.9986 49.0651C33.9348 49.0009 33.871 48.9367 33.8054 48.8705C33.4885 48.5985 33.3143 48.7975 32.9985 48.9969ZM35.9988 48.7242C35.6687 49.0542 35.3387 49.3842 34.9987 49.7243C35.0831 49.8237 35.1674 49.923 35.2544 50.0254C35.3018 50.0813 35.3493 50.1373 35.3982 50.1949C35.5987 50.4229 35.5987 50.4229 35.8169 50.6335C35.8769 50.6335 35.9369 50.6335 35.9988 50.6335C36.2088 50.0934 36.4188 49.5533 36.6352 48.9969C36.4252 48.9069 36.2152 48.8169 35.9988 48.7242ZM36.908 49.0878C36.6095 49.6528 36.3679 50.2041 36.1806 50.8153C36.6307 50.8153 37.0807 50.8153 37.5444 50.8153C37.5444 50.3352 37.5444 49.8552 37.5444 49.3606C37.3344 49.2706 37.1243 49.1806 36.908 49.0878ZM32.6348 49.0878C32.4548 49.1779 32.2747 49.2679 32.0893 49.3606C32.0893 49.8407 32.0893 50.3207 32.0893 50.8153C32.5393 50.8153 32.9894 50.8153 33.4531 50.8153C33.3515 50.5441 33.2491 50.2733 33.1462 50.0027C33.1174 49.9254 33.0885 49.8481 33.0588 49.7685C33.0307 49.6949 33.0026 49.6214 32.9736 49.5456C32.9479 49.4775 32.9222 49.4095 32.8957 49.3393C32.8283 49.1617 32.8283 49.1617 32.6348 49.0878ZM37.7262 49.4515C37.7262 49.9016 37.7262 50.3516 37.7262 50.8153C38.1763 50.8153 38.6263 50.8153 39.09 50.8153C39.0506 50.6859 39.0113 50.5565 38.9707 50.4232C38.9485 50.3504 38.9264 50.2777 38.9036 50.2027C38.7756 49.8978 38.6437 49.7659 38.3389 49.638C38.2661 49.6158 38.1933 49.5937 38.1183 49.5708C37.9889 49.5315 37.8595 49.4921 37.7262 49.4515ZM30.8164 49.9061C30.6054 50.1897 30.5437 50.461 30.5437 50.8153C30.9637 50.8153 31.3837 50.8153 31.8165 50.8153C31.8165 50.3653 31.8165 49.9152 31.8165 49.4515C31.4805 49.4515 31.0878 49.7283 30.8164 49.9061ZM34.7259 49.997C34.6044 50.1161 34.4833 50.2355 34.3622 50.355C34.2947 50.4215 34.2272 50.4879 34.1577 50.5564C33.9881 50.6968 33.9881 50.6968 33.9986 50.8153C34.5386 50.8153 35.0787 50.8153 35.6351 50.8153C35.5113 50.6634 35.5113 50.6634 35.3851 50.5084C35.3387 50.4515 35.2923 50.3945 35.2444 50.3358C35.0821 50.1713 34.9369 50.0878 34.7259 49.997ZM29.8152 50.2272C29.7464 50.2559 29.6775 50.2846 29.6066 50.3142C29.5352 50.3445 29.4637 50.3749 29.3901 50.4062C29.2814 50.4517 29.2814 50.4517 29.1705 50.4981C28.9916 50.5731 28.8129 50.6487 28.6344 50.7244C28.6344 50.7544 28.6344 50.7844 28.6344 50.8153C29.1444 50.8153 29.6545 50.8153 30.18 50.8153C30.4663 50.3443 30.4663 50.3443 30.4527 50.0879C30.182 50.0879 30.0591 50.1245 29.8152 50.2272ZM39.1809 50.0879C39.2284 50.3391 39.2817 50.5722 39.3628 50.8153C39.8728 50.8153 40.3829 50.8153 40.9084 50.8153C40.5942 50.5796 40.3508 50.4456 39.9935 50.2982C39.8987 50.2585 39.8039 50.2187 39.7062 50.1778C39.4555 50.0727 39.4555 50.0727 39.1809 50.0879ZM28.6344 50.9971C28.9531 51.2362 29.1092 51.3222 29.4754 51.4233C29.5565 51.4462 29.6376 51.469 29.7211 51.4926C29.7825 51.5091 29.8439 51.5256 29.9072 51.5426C29.9672 51.3626 30.0272 51.1826 30.0891 50.9971C29.609 50.9971 29.129 50.9971 28.6344 50.9971ZM30.3618 50.9971C30.1631 51.4123 30.1631 51.4123 30.18 51.7245C30.4185 51.831 30.6571 51.937 30.896 52.0427C30.9638 52.0731 31.0317 52.1034 31.1016 52.1347C31.1666 52.1634 31.2317 52.1921 31.2987 52.2217C31.3587 52.2484 31.4187 52.275 31.4805 52.3025C31.6355 52.3717 31.6355 52.3717 31.8165 52.3609C31.8165 51.9109 31.8165 51.4608 31.8165 50.9971C31.3365 50.9971 30.8564 50.9971 30.3618 50.9971ZM32.0893 50.9971C32.0893 51.3872 32.0893 51.7772 32.0893 52.1791C32.5344 51.8141 32.9062 51.4423 33.2712 50.9971C32.8812 50.9971 32.4911 50.9971 32.0893 50.9971ZM33.8167 50.9971C34.2591 52.1838 34.2591 52.1838 34.7259 53.361C34.9947 53.2266 35.0159 53.0407 35.1244 52.764C35.1648 52.6618 35.2053 52.5595 35.2469 52.4541C35.2888 52.3465 35.3306 52.2388 35.3737 52.1279C35.4163 52.0199 35.4588 51.9119 35.5026 51.8007C35.608 51.533 35.7125 51.2651 35.8169 50.9971C35.1569 50.9971 34.4968 50.9971 33.8167 50.9971ZM36.2715 50.9971C36.6439 51.4421 37.0228 51.8797 37.4535 52.27C37.4835 52.27 37.5135 52.27 37.5444 52.27C37.5444 51.85 37.5444 51.4299 37.5444 50.9971C37.1243 50.9971 36.7043 50.9971 36.2715 50.9971ZM37.7262 50.9971C37.7262 51.4472 37.7262 51.8972 37.7262 52.3609C38.3127 52.1717 38.8838 51.9589 39.4537 51.7245C39.3755 51.3306 39.3755 51.3306 39.1809 50.9971C38.9358 50.9905 38.693 50.9887 38.4479 50.9915C38.3444 50.9921 38.3444 50.9921 38.2389 50.9927C38.068 50.9938 37.8971 50.9954 37.7262 50.9971ZM39.5446 50.9971C39.5746 51.1472 39.6046 51.2972 39.6355 51.4517C39.9978 51.5725 40.1265 51.4728 40.4708 51.321C40.619 51.2565 40.619 51.2565 40.7702 51.1907C40.8458 51.1568 40.9214 51.123 40.9993 51.0881C40.9993 51.0581 40.9993 51.028 40.9993 50.9971C40.5192 50.9971 40.0392 50.9971 39.5446 50.9971ZM33.4168 51.2958C33.364 51.3491 33.3111 51.4025 33.2567 51.4574C33.1995 51.5148 33.1424 51.5723 33.0835 51.6314C32.9936 51.7225 32.9936 51.7225 32.9019 51.8154C32.8114 51.9065 32.8114 51.9065 32.7191 51.9994C32.5696 52.15 32.4203 52.3008 32.2711 52.4518C32.5859 52.8029 32.9799 52.9331 33.4076 53.111C33.4865 53.1452 33.5653 53.1794 33.6466 53.2147C33.7604 53.2625 33.7604 53.2625 33.8764 53.3113C33.9456 53.3405 34.0148 53.3697 34.0861 53.3998C34.287 53.4751 34.287 53.4751 34.5441 53.361C34.244 52.6409 33.944 51.9209 33.6349 51.179C33.5263 51.1687 33.5263 51.1687 33.4168 51.2958ZM35.9988 51.179C35.5487 52.2591 35.5487 52.2591 35.0896 53.361C35.2711 53.4782 35.2711 53.4782 35.4757 53.3871C35.5585 53.3524 35.6414 53.3176 35.7267 53.2818C35.8164 53.2446 35.906 53.2074 35.9984 53.1691C36.1392 53.1094 36.1392 53.1094 36.2829 53.0485C36.3775 53.0091 36.4721 52.9696 36.5695 52.929C36.8038 52.8312 37.0378 52.7327 37.2716 52.6337C37.2993 52.3677 37.2993 52.3677 37.1646 52.2215C37.0912 52.1493 37.0912 52.1493 37.0163 52.0757C36.9634 52.0233 36.9104 51.9708 36.8559 51.9168C36.772 51.8357 36.772 51.8357 36.6863 51.7529C36.6307 51.6978 36.5751 51.6426 36.5178 51.5858C36.2912 51.3159 36.2912 51.3159 35.9988 51.179ZM40.306 51.5881C40.2149 51.6303 40.1237 51.6725 40.0297 51.716C39.9597 51.7488 39.8896 51.7816 39.8174 51.8154C39.8774 51.9954 39.9374 52.1754 39.9992 52.3609C40.3753 52.0535 40.7096 51.7549 40.9993 51.3608C40.7339 51.3608 40.5456 51.4767 40.306 51.5881ZM28.7253 51.4517C28.8078 51.5546 28.8914 51.6568 28.9753 51.7586C29.0217 51.8155 29.0681 51.8725 29.1159 51.9312C29.2782 52.0957 29.4235 52.1792 29.6345 52.27C29.6645 52.12 29.6945 51.97 29.7254 51.8154C29.6102 51.7541 29.4946 51.6937 29.3788 51.6336C29.3144 51.5998 29.2501 51.5661 29.1838 51.5313C28.9899 51.4338 28.9899 51.4338 28.7253 51.4517ZM41.0902 51.6336C40.7902 51.9336 40.4902 52.2336 40.181 52.5428C40.271 52.8128 40.3611 53.0828 40.4538 53.361C40.702 53.1128 40.7981 52.818 40.9254 52.4973C40.9514 52.4346 40.9773 52.3719 41.0041 52.3073C41.0689 52.1455 41.1256 51.9806 41.1811 51.8154C41.1511 51.7554 41.1211 51.6954 41.0902 51.6336ZM28.4525 51.7245C28.6286 52.2886 28.8395 52.8254 29.089 53.361C29.3129 53.1371 29.3615 52.9331 29.4526 52.6337C29.3033 52.4819 29.1536 52.3304 29.0037 52.1791C28.9204 52.0947 28.8371 52.0103 28.7512 51.9234C28.5804 51.714 28.5804 51.714 28.4525 51.7245ZM29.9981 51.9063C29.8013 52.3078 29.8013 52.3078 29.8245 52.5442C29.9428 52.8022 30.1178 52.9609 30.322 53.1565C30.3972 53.2291 30.4723 53.3018 30.5497 53.3766C30.6077 53.4315 30.6657 53.4863 30.7255 53.5429C30.826 53.4578 30.9264 53.3725 31.0267 53.2872C31.0826 53.2397 31.1385 53.1922 31.1961 53.1433C31.4241 52.9428 31.4241 52.9428 31.6347 52.7246C31.6347 52.6646 31.6347 52.6046 31.6347 52.5428C31.0946 52.3327 30.5546 52.1227 29.9981 51.9063ZM38.6127 52.27C38.5536 52.296 38.4945 52.322 38.4337 52.3488C38.2885 52.4129 38.1437 52.4777 37.999 52.5428C37.9694 52.8217 37.9694 52.8217 38.1581 53.0013C38.2594 53.0978 38.2594 53.0978 38.3627 53.1962C38.4302 53.2613 38.4977 53.3263 38.5672 53.3933C38.6197 53.4427 38.6722 53.492 38.7263 53.5429C39.0284 53.4099 39.2439 53.2421 39.4821 53.0144C39.5474 52.9538 39.6127 52.8932 39.6799 52.8308C39.8434 52.6407 39.8434 52.6407 39.7985 52.3939C39.7326 52.1807 39.7326 52.1807 39.6355 51.9972C39.2356 51.9972 38.9682 52.1096 38.6127 52.27ZM32.0893 52.8155C32.0893 53.4456 32.0893 54.0756 32.0893 54.7248C33.2759 54.2824 33.2759 54.2824 34.4532 53.8156C34.2488 53.6113 34.0889 53.5458 33.8224 53.437C33.7336 53.4007 33.6447 53.3644 33.5532 53.3269C33.4601 53.2894 33.3671 53.2519 33.2712 53.2133C33.1782 53.1751 33.0851 53.1369 32.9892 53.0975C32.5526 52.8968 32.5526 52.8968 32.0893 52.8155ZM39.7005 53.0144C39.6172 53.0988 39.5339 53.1832 39.448 53.2701C39.3227 53.3967 39.3227 53.3967 39.1948 53.5258C39.1302 53.5914 39.0656 53.6571 38.9991 53.7247C39.3065 54.1008 39.6051 54.4351 39.9992 54.7248C40.3058 54.1166 40.3058 54.1166 40.306 53.4558C40.2147 53.2341 40.117 53.0243 39.9992 52.8155C39.8713 52.805 39.8713 52.805 39.7005 53.0144ZM29.6345 52.9064C29.3596 53.3615 29.3596 53.3615 29.2765 53.8724C29.3803 54.1355 29.5011 54.3846 29.6345 54.6339C29.7353 54.551 29.8356 54.4676 29.9356 54.3839C29.9915 54.3374 30.0474 54.291 30.105 54.2432C30.2763 54.0833 30.4087 53.9157 30.5437 53.7247C30.4094 53.588 30.2749 53.4517 30.1402 53.3156C30.0653 53.2396 29.9904 53.1637 29.9133 53.0854C29.7577 52.896 29.7577 52.896 29.6345 52.9064ZM36.8675 53.0144C36.7696 53.0554 36.6717 53.0964 36.5709 53.1387C36.4171 53.2037 36.4171 53.2037 36.2602 53.2701C36.1569 53.3135 36.0537 53.3568 35.9473 53.4015C35.6916 53.509 35.436 53.6167 35.1805 53.7247C35.5672 53.9825 35.987 54.1452 36.4136 54.327C36.5019 54.3652 36.5902 54.4034 36.6812 54.4428C36.7655 54.4789 36.8498 54.515 36.9367 54.5522C37.014 54.5853 37.0913 54.6184 37.171 54.6526C37.3568 54.7355 37.3568 54.7355 37.5444 54.7248C37.5444 54.0947 37.5444 53.4647 37.5444 52.8155C37.2878 52.8155 37.1039 52.9148 36.8675 53.0144ZM37.7262 52.9064C37.7262 53.4765 37.7262 54.0465 37.7262 54.6339C38.2461 54.21 38.2461 54.21 38.6354 53.7247C38.5012 53.588 38.3667 53.4517 38.232 53.3156C38.1571 53.2396 38.0822 53.1637 38.005 53.0854C37.8494 52.896 37.8494 52.896 37.7262 52.9064ZM31.5576 53.1565C31.4579 53.2577 31.4579 53.2577 31.3562 53.361C31.2562 53.4623 31.2562 53.4623 31.1542 53.5656C31.077 53.6443 31.077 53.6443 30.9982 53.7247C31.083 53.8273 31.1684 53.9295 31.254 54.0315C31.3252 54.117 31.3252 54.117 31.3978 54.2042C31.5512 54.3813 31.5512 54.3813 31.8165 54.543C31.8165 54.0329 31.8165 53.5229 31.8165 52.9973C31.698 52.9869 31.698 52.9869 31.5576 53.1565ZM30.2595 54.418C30.1749 54.496 30.0903 54.5741 30.0031 54.6545C29.7831 54.8951 29.7831 54.8951 29.8341 55.2099C29.8582 55.2899 29.8823 55.3698 29.9072 55.4522C30.1852 55.575 30.2909 55.536 30.5848 55.4326C30.7004 55.3815 30.8155 55.3292 30.9301 55.276C31.0187 55.2364 31.0187 55.2364 31.1091 55.1959C31.2544 55.1307 31.3991 55.0643 31.5438 54.9976C31.573 54.7192 31.573 54.7192 31.3878 54.5391C31.3212 54.4747 31.2545 54.4104 31.1858 54.3441C31.1193 54.279 31.0529 54.214 30.9844 54.147C30.6593 53.8577 30.5381 54.1549 30.2595 54.418ZM38.5296 54.1764C38.4557 54.2524 38.3819 54.3283 38.3058 54.4066C38.2315 54.4825 38.1572 54.5585 38.0807 54.6367C38.0237 54.6958 37.9668 54.7549 37.9081 54.8157C38.0565 55.1125 38.374 55.1669 38.6695 55.2817C38.7319 55.3069 38.7942 55.3321 38.8584 55.358C39.1301 55.4653 39.3409 55.5431 39.6355 55.5431C39.6955 55.333 39.7555 55.123 39.8174 54.9066C39.6702 54.7546 39.5223 54.6032 39.3741 54.452C39.2919 54.3677 39.2096 54.2833 39.1248 54.1963C38.8457 53.9401 38.8096 53.9217 38.5296 54.1764ZM33.816 54.2674C33.7264 54.3043 33.6367 54.3412 33.5443 54.3792C33.4504 54.4183 33.3566 54.4573 33.2598 54.4975C33.1653 54.5365 33.0707 54.5756 32.9732 54.6158C32.7391 54.7124 32.505 54.8094 32.2711 54.9066C32.3876 55.1629 32.5084 55.3478 32.7094 55.5445C32.7823 55.6166 32.7823 55.6166 32.8568 55.6901C32.9073 55.7391 32.9578 55.7881 33.0098 55.8386C33.061 55.889 33.1123 55.9393 33.165 55.9913C33.2909 56.115 33.4174 56.2382 33.544 56.3613C33.7831 56.0026 33.9341 55.6214 34.1008 55.2249C34.1347 55.146 34.1686 55.0671 34.2035 54.9858C34.2355 54.91 34.2675 54.8342 34.3004 54.7561C34.3444 54.6522 34.3444 54.6522 34.3893 54.5463C34.468 54.3508 34.468 54.3508 34.4532 54.0884C34.2094 54.0884 34.0414 54.1741 33.816 54.2674ZM35.0896 54.0884C35.3722 54.8561 35.654 55.6188 35.9988 56.3613C36.4797 55.9605 36.9251 55.5362 37.3626 55.0885C37.1596 54.8618 36.9745 54.7473 36.6949 54.63C36.619 54.598 36.5432 54.5661 36.4651 54.5332C36.3862 54.5008 36.3073 54.4684 36.2261 54.435C36.1472 54.4015 36.0683 54.3681 35.9871 54.3336C35.5531 54.1451 35.5531 54.1451 35.0896 54.0884ZM29.089 54.1793C28.9993 54.3665 28.9104 54.5541 28.8219 54.7418C28.7723 54.8463 28.7227 54.9507 28.6717 55.0583C28.5621 55.3171 28.4936 55.5395 28.4525 55.8158C28.8286 55.5084 29.1629 55.2098 29.4526 54.8157C29.3626 54.6057 29.2726 54.3957 29.1799 54.1793C29.1499 54.1793 29.1199 54.1793 29.089 54.1793ZM34.7259 54.1793C34.4259 54.9294 34.1258 55.6794 33.8167 56.4523C34.4468 56.4523 35.0769 56.4523 35.726 56.4523C35.5574 55.8902 35.4028 55.3866 35.1748 54.8555C35.1288 54.7466 35.0827 54.6377 35.0352 54.5256C34.9352 54.2612 34.9352 54.2612 34.7259 54.1793ZM40.4538 54.1793C40.2459 54.5174 40.2459 54.5174 40.1924 54.8981C40.3043 55.166 40.478 55.3204 40.6868 55.5203C40.7619 55.593 40.837 55.6657 40.9144 55.7405C40.9724 55.7954 41.0304 55.8502 41.0902 55.9067C41.2034 55.7321 41.2034 55.7321 41.133 55.5624C41.0923 55.4667 41.0923 55.4667 41.0508 55.369C41.0218 55.2999 40.9928 55.2308 40.9629 55.1595C40.9318 55.0873 40.9007 55.0151 40.8686 54.9407C40.8378 54.8678 40.8071 54.7949 40.7754 54.7198C40.6991 54.5394 40.622 54.3593 40.5447 54.1793C40.5147 54.1793 40.4847 54.1793 40.4538 54.1793ZM30.9471 55.4294C30.8836 55.4524 30.8202 55.4754 30.7548 55.499C30.4044 55.6273 30.4044 55.6273 30.1718 55.9025C30.1691 56.1285 30.1691 56.1285 30.3618 56.4523C30.8419 56.4523 31.3219 56.4523 31.8165 56.4523C31.8165 56.0322 31.8165 55.6122 31.8165 55.1794C31.508 55.1794 31.2316 55.3195 30.9471 55.4294ZM37.7262 55.1794C37.7262 55.5994 37.7262 56.0195 37.7262 56.4523C38.2363 56.4523 38.7463 56.4523 39.2718 56.4523C39.3319 56.2422 39.3919 56.0322 39.4537 55.8158C39.2172 55.7091 38.9804 55.6032 38.7434 55.4976C38.6763 55.4673 38.6092 55.4369 38.5401 55.4056C38.4753 55.3769 38.4106 55.3482 38.3438 55.3186C38.2843 55.292 38.2248 55.2653 38.1635 55.2378C37.9852 55.1642 37.9852 55.1642 37.7262 55.1794ZM39.9992 55.1794C39.9392 55.3594 39.8792 55.5394 39.8174 55.7249C39.9475 55.7885 40.0784 55.8508 40.2094 55.9124C40.2822 55.9472 40.355 55.982 40.43 56.0179C40.6466 56.1156 40.6466 56.1156 40.9084 55.9977C40.7742 55.861 40.6396 55.7247 40.5049 55.5885C40.43 55.5126 40.3551 55.4366 40.278 55.3584C40.1224 55.1689 40.1224 55.1689 39.9992 55.1794ZM29.2758 55.4294C29.2104 55.4969 29.145 55.5644 29.0776 55.634C29.0117 55.7015 28.9459 55.769 28.878 55.8386C28.8276 55.8911 28.7772 55.9436 28.7253 55.9977C28.8153 56.0427 28.8153 56.0427 28.9071 56.0886C29.1112 56.0188 29.1112 56.0188 29.3276 55.9124C29.4391 55.8606 29.4391 55.8606 29.5528 55.8077C29.6097 55.7804 29.6667 55.753 29.7254 55.7249C29.6954 55.5749 29.6654 55.4249 29.6345 55.2703C29.4355 55.25 29.4355 55.25 29.2758 55.4294ZM37.0577 55.6537C37.0064 55.7053 36.9551 55.757 36.9023 55.8101C36.8507 55.8614 36.799 55.9127 36.7458 55.9655C36.4841 56.1747 36.4841 56.1747 36.3624 56.4523C36.7525 56.4523 37.1425 56.4523 37.5444 56.4523C37.5444 56.0622 37.5444 55.6722 37.5444 55.2703C37.3357 55.2703 37.198 55.5137 37.0577 55.6537ZM32.0893 55.3612C32.0893 55.7213 32.0893 56.0813 32.0893 56.4523C32.4493 56.4523 32.8093 56.4523 33.1803 56.4523C32.8409 56.0401 32.5089 55.6909 32.0893 55.3612ZM29.2083 56.1795C29.0981 56.2301 29.0981 56.2301 28.9856 56.2818C28.9017 56.3212 28.9017 56.3212 28.8162 56.3613C28.8162 56.3913 28.8162 56.4213 28.8162 56.4523C29.2362 56.4523 29.6563 56.4523 30.0891 56.4523C30.0291 56.3022 29.969 56.1522 29.9072 55.9977C29.613 55.9977 29.4719 56.0572 29.2083 56.1795ZM39.7264 55.9977C39.6664 56.1477 39.6064 56.2977 39.5446 56.4523C39.9646 56.4523 40.3847 56.4523 40.8175 56.4523C40.6039 56.2387 40.4577 56.2039 40.1697 56.1227C40.0869 56.099 40.0042 56.0753 39.9189 56.0509C39.8554 56.0334 39.7919 56.0158 39.7264 55.9977ZM28.7253 56.725C28.9733 56.973 29.2681 57.0656 29.589 57.191C29.6517 57.2162 29.7144 57.2414 29.779 57.2673C30.1058 57.4049 30.1058 57.4049 30.4527 57.4524C30.3745 57.0585 30.3745 57.0585 30.18 56.725C29.9348 56.7184 29.692 56.7166 29.4469 56.7193C29.3435 56.7199 29.3435 56.7199 29.2379 56.7206C29.067 56.7216 28.8962 56.7233 28.7253 56.725ZM30.5437 56.725C30.6251 57.1323 30.6839 57.3825 30.9073 57.7251C31.2292 57.8976 31.4506 57.9979 31.8165 57.9979C31.8165 57.5778 31.8165 57.1578 31.8165 56.725C31.3965 56.725 30.9764 56.725 30.5437 56.725ZM32.0893 56.725C32.0893 57.2051 32.0893 57.6851 32.0893 58.1797C32.2993 58.2697 32.5093 58.3597 32.7257 58.4525C32.8324 58.216 32.9384 57.9792 33.0439 57.7422C33.0743 57.6751 33.1046 57.608 33.1359 57.5388C33.179 57.4417 33.179 57.4417 33.2229 57.3426C33.2496 57.2831 33.2762 57.2236 33.3037 57.1623C33.3773 56.984 33.3773 56.984 33.3621 56.725C32.9421 56.725 32.522 56.725 32.0893 56.725ZM33.9986 56.725C34.0811 56.8263 34.1636 56.9275 34.2486 57.0319C34.295 57.0888 34.3414 57.1458 34.3892 57.2045C34.5515 57.369 34.6968 57.4525 34.9077 57.5433C35.0292 57.4242 35.1504 57.3048 35.2714 57.1853C35.3389 57.1188 35.4064 57.0524 35.476 56.9839C35.6455 56.8435 35.6455 56.8435 35.6351 56.725C35.095 56.725 34.555 56.725 33.9986 56.725ZM36.1806 56.725C36.2695 56.9637 36.3586 57.2024 36.4477 57.441C36.4856 57.5428 36.4856 57.5428 36.5242 57.6466C36.658 58.0094 36.658 58.0094 36.817 58.3616C37.1925 58.31 37.1925 58.31 37.5444 58.1797C37.5444 57.6997 37.5444 57.2196 37.5444 56.725C37.0943 56.725 36.6443 56.725 36.1806 56.725ZM37.7262 56.725C37.7262 57.1751 37.7262 57.6251 37.7262 58.0888C38.381 57.9378 38.381 57.9378 38.8737 57.5252C38.9914 57.2574 39.09 57.0196 39.09 56.725C38.64 56.725 38.1899 56.725 37.7262 56.725ZM39.3628 56.725C39.2728 56.995 39.1827 57.2651 39.09 57.5433C39.6901 57.3033 40.2901 57.0632 40.9084 56.8159C40.9084 56.7859 40.9084 56.7559 40.9084 56.725C40.3983 56.725 39.8883 56.725 39.3628 56.725ZM33.6349 56.9069C33.5258 57.1432 33.4181 57.3799 33.311 57.6172C33.2799 57.6842 33.2488 57.7513 33.2167 57.8205C33.1877 57.8852 33.1587 57.95 33.1288 58.0167C33.1017 58.0762 33.0745 58.1357 33.0466 58.197C32.976 58.3804 32.976 58.3804 33.0894 58.6343C33.2694 58.6943 33.4494 58.7543 33.6349 58.8161C33.9349 58.5161 34.235 58.2161 34.5441 57.907C34.3868 57.5924 34.2808 57.4393 34.0383 57.2023C33.982 57.1465 33.9256 57.0908 33.8675 57.0333C33.7462 56.8968 33.7462 56.8968 33.6349 56.9069ZM35.6202 57.0858C35.5463 57.1618 35.4725 57.2377 35.3964 57.316C35.3221 57.3919 35.2478 57.4679 35.1713 57.5461C35.1143 57.6052 35.0574 57.6643 34.9987 57.7251C35.3331 58.1366 35.6725 58.4883 36.0897 58.8161C36.2697 58.7261 36.4497 58.6361 36.6352 58.5434C36.5463 58.3047 36.4573 58.066 36.3681 57.8274C36.3429 57.7595 36.3176 57.6917 36.2916 57.6218C36.1578 57.259 36.1578 57.259 35.9988 56.9069C35.795 56.8865 35.795 56.8865 35.6202 57.0858ZM34.538 58.1769C34.4631 58.2528 34.3883 58.3288 34.3111 58.407C34.236 58.483 34.1608 58.5589 34.0834 58.6371C33.9964 58.7258 33.9964 58.7258 33.9076 58.8161C34.1368 59.0566 34.3099 59.18 34.635 59.2707C34.9983 59.2405 35.3026 59.1447 35.6351 58.998C35.5075 58.7082 35.3553 58.5141 35.1294 58.2934C35.073 58.2376 35.0166 58.1818 34.9585 58.1243C34.7415 57.9306 34.7594 57.966 34.538 58.1769ZM31.0892 58.0888C31.2762 58.6755 31.4914 59.2467 31.7256 59.8162C31.7556 59.8162 31.7856 59.8162 31.8165 59.8162C31.8165 59.3362 31.8165 58.8561 31.8165 58.3616C31.3455 58.0752 31.3455 58.0752 31.0892 58.0888ZM38.3627 58.0888C38.0476 58.2238 38.0476 58.2238 37.7262 58.3616C37.7262 58.9016 37.7262 59.4417 37.7262 59.9981C37.8725 59.7787 37.9674 59.601 38.065 59.3606C38.0932 59.2917 38.1213 59.2229 38.1503 59.1519C38.1791 59.0805 38.2079 59.0091 38.2376 58.9355C38.2672 58.863 38.2967 58.7905 38.3271 58.7158C38.3999 58.5372 38.4722 58.3585 38.5445 58.1797C38.4845 58.1497 38.4245 58.1197 38.3627 58.0888ZM32.0893 58.4525C32.0893 58.9025 32.0893 59.3526 32.0893 59.8162C32.4243 59.4812 32.5439 59.1009 32.5439 58.6343C32.3188 58.5443 32.3188 58.5443 32.0893 58.4525ZM36.9989 58.6343C37.1391 59.0635 37.2787 59.4905 37.4535 59.9072C37.4835 59.9072 37.5135 59.9072 37.5444 59.9072C37.5444 59.4271 37.5444 58.9471 37.5444 58.4525C37.3549 58.4525 37.1718 58.5634 36.9989 58.6343ZM32.8166 58.8161C32.7533 58.9635 32.6909 59.1114 32.6291 59.2594C32.5943 59.3416 32.5595 59.4239 32.5236 59.5087C32.4255 59.7236 32.4255 59.7236 32.5439 59.9072C32.8139 59.6371 33.0839 59.3671 33.3621 59.0889C33.3321 59.0289 33.3021 58.9689 33.2712 58.9071C33.0414 58.8475 33.0414 58.8475 32.8166 58.8161ZM36.5443 58.8161C36.4543 58.9062 36.3643 58.9962 36.2715 59.0889C36.5416 59.3589 36.8116 59.629 37.0898 59.9072C37.1198 59.8472 37.1498 59.7872 37.1807 59.7253C37.0903 59.5 37.0903 59.5 36.9591 59.2594C36.9161 59.1766 36.8731 59.0939 36.8288 59.0086C36.778 58.9134 36.778 58.9134 36.7261 58.8161C36.6661 58.8161 36.6061 58.8161 36.5443 58.8161ZM33.6349 59.0889C33.3049 59.4189 32.9748 59.749 32.6348 60.089C32.8094 60.2022 32.8094 60.2022 32.9791 60.1318C33.0429 60.1047 33.1067 60.0775 33.1725 60.0496C33.2416 60.0206 33.3108 59.9916 33.382 59.9617C33.4542 59.9306 33.5264 59.8995 33.6008 59.8674C33.7101 59.8212 33.7101 59.8212 33.8217 59.7742C34.0021 59.6979 34.1822 59.6208 34.3622 59.5435C34.3622 59.4835 34.3622 59.4235 34.3622 59.3617C34.1222 59.2716 33.8822 59.1816 33.6349 59.0889ZM35.2714 59.3617C35.2714 59.4217 35.2714 59.4817 35.2714 59.5435C35.4946 59.6372 35.7181 59.7298 35.9419 59.8219C36.0055 59.8487 36.069 59.8755 36.1344 59.9031C36.2993 59.9704 36.4671 60.0303 36.6352 60.089C36.6952 60.059 36.7552 60.029 36.817 59.9981C36.6872 59.8609 36.5563 59.7247 36.425 59.589C36.3522 59.513 36.2794 59.4371 36.2044 59.3588C35.8686 59.0665 35.6466 59.1994 35.2714 59.3617Z" fill="#191919"/>
<path d="M2.62979 43.5692C3.06431 43.9287 3.06431 43.9287 3.17779 44.2692C3.16989 44.4651 3.15589 44.6608 3.13881 44.8561C3.07228 45.7123 3.07369 46.5664 3.07397 47.4247C3.07369 47.6006 3.07337 47.7766 3.07301 47.9525C3.0723 48.3284 3.07183 48.7044 3.07153 49.0803C3.07099 49.6748 3.06948 50.2693 3.06777 50.8638C3.0672 51.0679 3.06662 51.272 3.06605 51.4762C3.06576 51.5783 3.06547 51.6805 3.06518 51.7857C3.06136 53.1679 3.05835 54.55 3.05723 55.9321C3.05647 56.8674 3.05443 57.8027 3.05093 58.738C3.04913 59.2322 3.048 59.7263 3.04846 60.2205C3.04888 60.6842 3.04763 61.148 3.04509 61.6117C3.04446 61.7819 3.04446 61.952 3.04511 62.1222C3.04592 62.3543 3.0445 62.5863 3.04252 62.8185C3.04329 62.8859 3.04406 62.9533 3.04485 63.0228C3.03789 63.4644 2.9436 63.6869 2.63227 63.9985C2.31529 64.2281 2.01424 64.2133 1.63217 64.1804C1.29103 64.0623 1.13226 63.9789 0.936816 63.6734C0.785719 63.2907 0.775841 62.9823 0.779264 62.5753C0.778839 62.4973 0.778413 62.4192 0.777975 62.3388C0.776889 62.0779 0.777748 61.817 0.778607 61.5561C0.778237 61.3688 0.777751 61.1815 0.777158 60.9942C0.775915 60.4859 0.776397 59.9776 0.777262 59.4693C0.777952 58.9374 0.777312 58.4054 0.776884 57.8735C0.776387 56.9802 0.777041 56.0868 0.77834 55.1935C0.779825 54.1607 0.779344 53.1279 0.777842 52.0951C0.776604 51.2084 0.77643 50.3217 0.777143 49.4349C0.777569 48.9053 0.777625 48.3757 0.776724 47.8461C0.775936 47.3482 0.776483 46.8503 0.778059 46.3524C0.77842 46.1697 0.778316 45.9869 0.777715 45.8042C0.77697 45.5547 0.777904 45.3054 0.779264 45.0559C0.778656 44.9836 0.778047 44.9113 0.77742 44.8368C0.782044 44.3995 0.850023 44.1047 1.08666 43.7237C1.52828 43.3105 2.10263 43.2216 2.62979 43.5692Z" fill="#191919"/>
<path d="M93.5962 43.4168C93.6989 43.4354 93.6989 43.4354 93.8036 43.4544C94.096 43.5811 94.1982 43.727 94.369 43.9964C94.4043 44.2719 94.4186 44.5142 94.4158 44.7895C94.4168 44.9092 94.4168 44.9092 94.4178 45.0314C94.4194 45.2988 94.4185 45.5663 94.4175 45.8337C94.4182 46.0255 94.419 46.2173 94.4199 46.409C94.422 46.9299 94.4217 47.4508 94.4209 47.9717C94.4204 48.4064 94.4211 48.8412 94.4218 49.2759C94.4233 50.3014 94.423 51.3268 94.4215 52.3523C94.4199 53.4106 94.4214 54.4688 94.4243 55.5271C94.4267 56.4354 94.4274 57.3438 94.4266 58.2521C94.4262 58.7948 94.4264 59.3374 94.4282 59.88C94.4299 60.3902 94.4294 60.9004 94.4271 61.4106C94.4267 61.5979 94.427 61.7852 94.4281 61.9725C94.4296 62.2281 94.4282 62.4836 94.4262 62.7393C94.4278 62.8505 94.4278 62.8505 94.4294 62.964C94.4234 63.3331 94.3879 63.567 94.1552 63.8613C93.8681 64.1334 93.7258 64.1741 93.3348 64.2031C92.9144 64.1741 92.7097 64.0382 92.3916 63.7769C92.108 63.4224 92.1738 62.941 92.1742 62.5097C92.174 62.4322 92.1737 62.3546 92.1734 62.2748C92.1726 62.0146 92.1725 61.7544 92.1723 61.4942C92.1719 61.3078 92.1715 61.1214 92.171 60.935C92.1698 60.4284 92.1692 59.9218 92.1688 59.4152C92.1685 59.0988 92.1682 58.7823 92.1678 58.4659C92.1665 57.4762 92.1656 56.4865 92.1653 55.4967C92.1649 54.3537 92.1633 53.2106 92.1606 52.0676C92.1587 51.1843 92.1578 50.3011 92.1576 49.4178C92.1575 48.8901 92.157 48.3625 92.1554 47.8348C92.1539 47.3385 92.1537 46.8423 92.1545 46.346C92.1546 46.1639 92.1542 45.9817 92.1533 45.7996C92.1521 45.5509 92.1526 45.3023 92.1536 45.0537C92.1529 44.9816 92.1521 44.9095 92.1514 44.8352C92.1553 44.3983 92.2233 44.1044 92.4598 43.7236C92.8113 43.3948 93.1292 43.3224 93.5962 43.4168Z" fill="#191919"/>
<path d="M78.7309 43.3601C78.9804 45.8382 78.5548 47.6034 77.449 49.8182C77.0311 50.6572 76.6668 51.5172 76.3032 52.3808C76.1349 52.7802 75.9643 53.1786 75.7938 53.5771C75.7651 53.6446 75.7364 53.712 75.7068 53.7815C75.5071 54.2496 75.302 54.715 75.0942 55.1795C75.0342 55.1795 74.9742 55.1795 74.9123 55.1795C74.9034 55.2406 74.8945 55.3017 74.8853 55.3646C74.7916 55.7597 74.6161 56.1149 74.4467 56.4821C74.2778 56.8564 74.1343 57.2323 74.0021 57.6212C73.6598 58.5934 73.235 59.5325 72.8226 60.4765C72.6787 60.806 72.5355 61.1359 72.3924 61.4657C72.3004 61.6772 72.2083 61.8886 72.1162 62.1C72.0738 62.1977 72.0314 62.2953 71.9876 62.3959C71.3574 63.837 71.3574 63.837 71.0653 64.0896C70.6581 64.2411 70.3318 64.2474 69.9345 64.0668C69.5812 63.792 69.5812 63.792 69.4572 63.5441C69.3839 62.9466 69.51 62.4915 69.7609 61.9551C69.809 61.8473 69.809 61.8473 69.8581 61.7373C69.9637 61.5017 70.0713 61.2671 70.1789 61.0324C70.2539 60.8659 70.3287 60.6992 70.4033 60.5326C70.5574 60.1889 70.712 59.8455 70.8671 59.5023C71.1754 58.8184 71.4742 58.1304 71.7725 57.442C71.9309 57.0768 72.09 56.7119 72.2491 56.3469C72.2808 56.2741 72.3126 56.2012 72.3453 56.1261C72.7892 55.1079 73.2363 54.0911 73.6832 53.0742C73.7513 52.919 73.8195 52.7638 73.8877 52.6086C73.9209 52.533 73.9542 52.4574 73.9884 52.3795C74.2717 51.7344 74.5542 51.0891 74.8364 50.4435C75.0737 49.9007 75.3112 49.358 75.5488 48.8152C75.5981 48.7025 75.5981 48.7025 75.6484 48.5875C75.8667 48.0888 76.0852 47.5901 76.3038 47.0915C76.3751 46.9287 76.4464 46.7659 76.5177 46.6031C76.7106 46.1623 76.9045 45.722 77.0995 45.2821C77.1803 45.099 77.2596 44.9153 77.3387 44.7315C77.4076 44.575 77.4076 44.575 77.4779 44.4153C77.5355 44.2824 77.5355 44.2824 77.5943 44.1468C77.8742 43.6523 78.1581 43.3601 78.7309 43.3601Z" fill="#191919"/>
<path d="M50.8192 43.5418C51.243 43.8708 51.243 43.8708 51.3154 44.1661C51.331 44.3752 51.3319 44.5799 51.3281 44.7895C51.3284 44.8693 51.3287 44.9492 51.3291 45.0314C51.3296 45.2989 51.3269 45.5663 51.3243 45.8338C51.324 46.0255 51.3239 46.2173 51.324 46.4091C51.3236 46.93 51.3204 47.4509 51.3165 47.9718C51.3128 48.5167 51.3113 49.0616 51.3095 49.6066C51.306 50.5218 51.3007 51.4371 51.2942 52.3523C51.2868 53.4106 51.2826 54.4688 51.2802 55.5271C51.278 56.4355 51.274 57.3438 51.2686 58.2522C51.2653 58.7948 51.2627 59.3374 51.2617 59.88C51.2606 60.3903 51.2573 60.9004 51.2523 61.4107C51.2508 61.5979 51.2501 61.7852 51.2502 61.9725C51.2502 62.2282 51.2475 62.4837 51.244 62.7393C51.2447 62.8134 51.2454 62.8876 51.246 62.964C51.238 63.3327 51.2012 63.5674 50.9688 63.8613C50.6818 64.1335 50.5395 64.1741 50.1487 64.2031C49.7917 64.1785 49.6406 64.13 49.3645 63.9076C49.0586 63.515 49.0531 63.1493 49.0571 62.6703C49.0567 62.5916 49.0562 62.5128 49.0558 62.4317C49.0547 62.168 49.0556 61.9044 49.0564 61.6407C49.0561 61.4516 49.0556 61.2625 49.055 61.0735C49.0537 60.5599 49.0542 60.0463 49.0551 59.5327C49.0558 58.9955 49.0551 58.4582 49.0547 57.9209C49.0542 57.0185 49.0549 56.116 49.0562 55.2136C49.0577 54.1702 49.0572 53.1268 49.0557 52.0835C49.0544 51.1878 49.0543 50.2922 49.055 49.3966C49.0554 48.8616 49.0555 48.3266 49.0546 47.7916C49.0538 47.2886 49.0543 46.7856 49.0559 46.2825C49.0563 46.0979 49.0561 45.9132 49.0555 45.7286C49.0548 45.4765 49.0557 45.2246 49.0571 44.9725C49.0565 44.8994 49.0559 44.8263 49.0553 44.751C49.0598 44.3135 49.1198 44.0103 49.3645 43.6327C49.8532 43.32 50.2865 43.2934 50.8192 43.5418Z" fill="#191919"/>
<path d="M32.0552 46.383C32.362 46.4512 32.362 46.4512 32.4529 46.5421C32.4566 46.6936 32.4568 46.8452 32.4529 46.9967C32.5038 47.0101 32.5547 47.0234 32.6071 47.0372C33.2125 47.2066 33.7687 47.445 34.3352 47.7141C34.9633 47.9254 35.4929 47.6077 36.067 47.3547C36.2217 47.2871 36.3765 47.2197 36.5315 47.1526C36.5994 47.1227 36.6674 47.0928 36.7374 47.062C36.908 46.9967 36.908 46.9967 37.0898 46.9967C37.0992 46.9255 37.1085 46.8542 37.1182 46.7808C37.1807 46.5421 37.1807 46.5421 37.4535 46.3603C37.7143 46.3277 37.8487 46.3155 38.0617 46.4761C38.1808 46.633 38.1808 46.633 38.1322 46.991C38.1217 47.0635 38.1113 47.1359 38.1005 47.2105C38.0645 48.0286 38.5149 48.9939 38.9991 49.6334C39.596 50.1115 40.4611 50.47 41.2354 50.4436C41.3744 50.4267 41.5131 50.4062 41.6508 50.3805C41.8176 50.3607 41.8176 50.3607 42.0505 50.4573C42.2379 50.7098 42.2259 50.8724 42.1812 51.179C42.0676 51.3494 42.0676 51.3494 41.9085 51.4517C41.7885 51.4517 41.6685 51.4517 41.5448 51.4517C41.5378 51.5095 41.5307 51.5673 41.5235 51.6268C41.4617 51.8749 41.3851 52.0673 41.2763 52.2966C40.8057 53.1713 40.8057 53.1713 40.7834 54.1168C40.8505 54.2612 40.9232 54.4031 40.9993 54.543C41.072 54.71 41.1445 54.8771 41.2152 55.045C41.2861 55.212 41.3605 55.3774 41.4351 55.5427C41.5448 55.8158 41.5448 55.8158 41.5448 56.0886C41.6329 56.0998 41.7211 56.1111 41.8119 56.1227C41.9038 56.1414 41.9957 56.1602 42.0903 56.1795C42.2159 56.4307 42.1986 56.6293 42.1812 56.9069C41.9994 57.0887 41.9994 57.0887 41.6812 57.1057C41.363 57.0887 41.363 57.0887 41.1811 56.9978C40.3587 57.1569 39.3489 57.4806 38.8058 58.1425C38.289 59.0075 38.0251 59.8201 38.1808 60.8164C38.0388 61.055 38.0388 61.055 37.8171 61.18C37.5387 61.1914 37.5387 61.1914 37.2716 61.0891C37.2413 61.0063 37.2109 60.9234 37.1797 60.838C36.9025 60.3866 36.5027 60.2806 36.0215 60.0947C35.9327 60.0574 35.8438 60.02 35.7523 59.9816C35.0533 59.7023 34.6282 59.7031 33.9286 59.9842C33.7754 60.0506 33.6226 60.1177 33.4701 60.1856C33.3162 60.2532 33.1622 60.3206 33.008 60.3877C32.9407 60.4176 32.8733 60.4475 32.8039 60.4783C32.6348 60.5436 32.6348 60.5436 32.4529 60.5436C32.4361 60.6505 32.4361 60.6505 32.4189 60.7595C32.362 60.9982 32.362 60.9982 32.1802 61.18C31.6843 61.1387 31.6843 61.1387 31.4528 60.9073C31.4331 60.5985 31.4455 60.3838 31.5438 60.089C31.401 59.254 31.0752 58.2234 30.368 57.7156C29.731 57.387 29.0554 57.1722 28.3616 56.9978C28.3166 57.0428 28.3166 57.0428 28.2707 57.0887C27.9582 57.1057 27.9582 57.1057 27.6343 57.0887C27.4524 56.9069 27.4524 56.9069 27.4297 56.5886C27.4524 56.2704 27.4524 56.2704 27.6343 56.0886C27.6925 56.0787 27.7508 56.0688 27.8108 56.0586C28.0853 55.9692 28.1332 55.8207 28.2643 55.5683C28.8464 54.3812 28.8464 54.3812 28.7828 53.0979C28.4323 52.0741 28.4323 52.0741 27.6911 51.3459C27.6123 51.3208 27.5336 51.2957 27.4524 51.2699C27.4191 50.6813 27.4191 50.6813 27.5643 50.4728C27.7252 50.3607 27.7252 50.3607 27.9155 50.3681C27.9877 50.3834 28.0599 50.3986 28.1343 50.4143C28.7158 50.492 29.1177 50.297 29.6345 50.0482C29.8029 49.9704 29.9715 49.8929 30.1402 49.8155C30.2135 49.7807 30.2867 49.7458 30.3622 49.7099C30.5437 49.6334 30.5437 49.6334 30.7255 49.6334C30.7328 49.5757 30.74 49.518 30.7475 49.4586C30.8081 49.2123 30.8834 49.0148 30.9876 48.7853C31.0205 48.7125 31.0535 48.6397 31.0874 48.5647C31.1563 48.4143 31.2264 48.2644 31.2976 48.1151C31.5102 47.639 31.5755 47.3205 31.4585 46.8075C31.4528 46.633 31.4528 46.633 31.5655 46.4721C31.7256 46.3603 31.7256 46.3603 32.0552 46.383ZM32.0495 47.2045C31.7214 47.424 31.6357 47.6979 31.521 48.0593C31.499 48.1226 31.477 48.1858 31.4543 48.2509C31.3181 48.6471 31.2013 49.048 31.0892 49.4515C31.4492 49.3165 31.4492 49.3165 31.8165 49.1788C31.7256 49.4515 31.7256 49.4515 31.5274 49.5552C31.4061 49.6052 31.4061 49.6052 31.2824 49.6561C30.9615 49.8073 30.7659 49.9041 30.6232 50.2357C30.5322 50.5337 30.5322 50.5337 30.5437 50.8153C30.4086 50.7703 30.4086 50.7703 30.2709 50.7244C30.3309 50.5144 30.3909 50.3043 30.4527 50.0879C30.0159 50.156 29.6186 50.3043 29.2083 50.463C29.1381 50.4876 29.068 50.5122 28.9957 50.5376C28.6412 50.6763 28.4865 50.7573 28.2895 51.0934C28.2622 51.6129 28.4492 51.9826 28.6685 52.4462C28.7083 52.5343 28.7482 52.6225 28.7892 52.7134C28.8874 52.9301 28.9873 53.1459 29.089 53.361C29.291 53.159 29.355 52.9896 29.4526 52.7246C29.5435 52.9973 29.5435 52.9973 29.4072 53.3042C29.2647 53.6485 29.245 53.7472 29.3617 54.0884C29.3955 54.1671 29.4292 54.2459 29.464 54.327C29.5435 54.543 29.5435 54.543 29.4526 54.8157C29.3626 54.6057 29.2726 54.3957 29.1799 54.1793C28.8438 54.3473 28.758 54.7777 28.6173 55.1112C28.5827 55.1894 28.548 55.2676 28.5124 55.3481C28.4801 55.4242 28.4478 55.5002 28.4145 55.5786C28.3847 55.648 28.3549 55.7174 28.3242 55.7889C28.2364 56.1313 28.3432 56.3971 28.4525 56.725C28.6311 56.8304 28.6311 56.8304 28.8528 56.9108C28.9337 56.9427 29.0146 56.9746 29.098 57.0075C29.1832 57.0399 29.2683 57.0723 29.356 57.1057C29.4832 57.1559 29.4832 57.1559 29.613 57.2071C30.0214 57.3839 30.0214 57.3839 30.4527 57.4524C30.3927 57.2423 30.3327 57.0323 30.2709 56.8159C30.4059 56.7709 30.4059 56.7709 30.5437 56.725C30.553 56.7888 30.5624 56.8525 30.5721 56.9182C30.6467 57.2303 30.7312 57.4551 30.9073 57.7251C31.2292 57.8976 31.4506 57.9979 31.8165 57.9979C31.7715 58.1329 31.7715 58.1329 31.7256 58.2706C31.5156 58.2106 31.3056 58.1506 31.0892 58.0888C31.1493 58.2754 31.2101 58.4619 31.2735 58.6474C31.3377 58.8358 31.3991 59.0252 31.4589 59.215C31.6507 59.8582 31.6507 59.8582 32.0893 60.3333C32.6187 60.4782 33.1826 60.0496 33.6349 59.8162C33.8754 59.7172 34.1169 59.6301 34.3622 59.5435C34.3622 59.4835 34.3622 59.4235 34.3622 59.3617C34.1522 59.2716 33.9422 59.1816 33.7258 59.0889C33.9986 58.998 33.9986 58.998 34.2997 59.1344C34.8399 59.3541 35.2819 59.1585 35.8169 58.998C35.8469 59.058 35.8769 59.118 35.9079 59.1798C35.5928 59.2698 35.5928 59.2698 35.2714 59.3617C35.2714 59.4217 35.2714 59.4817 35.2714 59.5435C35.5942 59.6862 35.9185 59.8254 36.2431 59.964C36.3805 60.0248 36.3805 60.0248 36.5207 60.0869C36.6538 60.1431 36.6538 60.1431 36.7897 60.2005C36.8711 60.2358 36.9525 60.271 37.0364 60.3073C37.3385 60.3772 37.4631 60.3412 37.7262 60.1799C37.8622 59.975 37.8622 59.975 37.9496 59.7246C37.9851 59.635 38.0205 59.5453 38.0571 59.4529C38.0923 59.3591 38.1275 59.2652 38.1638 59.1685C38.2008 59.0739 38.2377 58.9793 38.2758 58.8818C38.3669 58.6483 38.4563 58.4143 38.5445 58.1797C38.4845 58.1497 38.4245 58.1197 38.3627 58.0888C38.1481 58.1739 37.9357 58.2646 37.7262 58.3616C37.7712 58.2265 37.7712 58.2265 37.8171 58.0888C38.0121 58.0114 38.0121 58.0114 38.2547 57.9411C38.5403 57.8364 38.6899 57.7765 38.8673 57.5262C38.9853 57.2586 39.09 57.0199 39.09 56.725C39.18 56.725 39.27 56.725 39.3628 56.725C39.2728 56.995 39.1827 57.2651 39.09 57.5433C39.4363 57.4242 39.7803 57.2996 40.1242 57.1739C40.2715 57.1234 40.2715 57.1234 40.4218 57.0718C40.98 56.8712 40.98 56.8712 41.363 56.4409C41.363 55.9302 41.1811 55.5506 40.9652 55.0942C40.9254 55.006 40.8855 54.9178 40.8445 54.8269C40.7462 54.6102 40.6463 54.3944 40.5447 54.1793C40.3863 54.3882 40.2357 54.5974 40.0901 54.8157C40.1319 54.5232 40.1785 54.2763 40.2947 54.0031C40.3884 53.6206 40.2604 53.4352 40.0901 53.0883C40.0276 52.8212 40.0276 52.8212 39.9992 52.6337C40.2944 52.7813 40.3357 53.0659 40.4538 53.361C40.7403 53.0745 40.8616 52.712 41.022 52.3439C41.0574 52.2676 41.0928 52.1914 41.1293 52.1128C41.2871 51.7492 41.3654 51.5037 41.347 51.103C41.1005 50.6754 40.7736 50.5779 40.3231 50.4118C40.2438 50.38 40.1645 50.3482 40.0828 50.3154C39.6449 50.1396 39.6449 50.1396 39.1809 50.0879C39.2284 50.3391 39.2817 50.5722 39.3628 50.8153C39.2728 50.8153 39.1827 50.8153 39.09 50.8153C39.0735 50.7594 39.057 50.7035 39.0399 50.6459C39.0171 50.5724 38.9942 50.4989 38.9707 50.4232C38.9485 50.3504 38.9264 50.2777 38.9036 50.2027C38.7756 49.8978 38.6437 49.7659 38.3389 49.638C38.2661 49.6158 38.1933 49.5937 38.1183 49.5708C38.0448 49.548 37.9713 49.5251 37.8956 49.5016C37.8397 49.4851 37.7838 49.4685 37.7262 49.4515C37.7262 49.3615 37.7262 49.2715 37.7262 49.1788C37.9963 49.2688 38.2663 49.3588 38.5445 49.4515C38.4595 49.2223 38.3742 48.9931 38.2888 48.7639C38.2532 48.6679 38.2532 48.6679 38.2169 48.5699C38.1689 48.4413 38.1201 48.313 38.0705 48.185C38.0238 48.0622 37.9799 47.9382 37.9392 47.8133C37.8376 47.5263 37.7515 47.3776 37.4982 47.2048C37.0038 47.1639 36.6335 47.3693 36.192 47.5763C36.1034 47.6162 36.0148 47.656 35.9235 47.6971C35.7054 47.7954 35.4881 47.8954 35.2714 47.9968C35.2714 48.0568 35.2714 48.1168 35.2714 48.1787C35.4814 48.2387 35.6915 48.2987 35.9079 48.3605C35.8779 48.4205 35.8478 48.4805 35.8169 48.5423C35.7653 48.5216 35.7136 48.5008 35.6603 48.4795C34.974 48.224 34.5042 48.2908 33.8167 48.5423C33.8167 48.4823 33.8167 48.4223 33.8167 48.3605C33.9967 48.2705 34.1768 48.1805 34.3622 48.0877C34.0658 47.7913 33.6777 47.6771 33.2939 47.5195C33.2126 47.4841 33.1313 47.4487 33.0475 47.4122C32.6896 47.2655 32.4389 47.1722 32.0495 47.2045Z" fill="#191919"/>
<path d="M97.3694 37.0865C97.6119 37.2367 97.6969 37.295 97.824 37.5411C97.8809 37.9608 97.8666 38.3743 97.8524 38.7969C97.8503 38.9119 97.8483 39.027 97.8462 39.1455C97.8408 39.4291 97.8334 39.7124 97.824 39.9959C97.8932 39.9945 97.9624 39.993 98.0338 39.9916C98.3483 39.9859 98.6629 39.9823 98.9775 39.9788C99.0865 39.9766 99.1954 39.9743 99.3076 39.9719C99.4128 39.971 99.518 39.9702 99.6264 39.9693C99.723 39.9678 99.8197 39.9664 99.9193 39.9649C100.226 40.0003 100.395 40.0861 100.642 40.2686C100.785 40.5536 100.811 40.8716 100.733 41.1778C100.491 41.4168 100.342 41.5321 100.002 41.5828C99.9014 41.5809 99.8009 41.579 99.6974 41.577C99.5881 41.5759 99.4788 41.5747 99.3662 41.5735C99.253 41.5704 99.1397 41.5674 99.023 41.5642C98.9079 41.5626 98.7929 41.561 98.6744 41.5593C98.3909 41.555 98.1075 41.549 97.824 41.5415C97.8254 41.6502 97.8254 41.6502 97.8269 41.7611C97.8307 42.0894 97.833 42.4178 97.8353 42.7462C97.8369 42.8602 97.8384 42.9743 97.84 43.0917C97.8408 43.2561 97.8408 43.2561 97.8417 43.4238C97.8432 43.5752 97.8432 43.5752 97.8446 43.7297C97.8242 43.9935 97.7842 44.1398 97.6421 44.36C97.3537 44.593 97.0729 44.5462 96.7241 44.5127C96.4774 44.4246 96.4113 44.3119 96.2784 44.0872C96.2474 43.8123 96.2474 43.8123 96.2517 43.4948C96.2526 43.3812 96.2535 43.2675 96.2544 43.1503C96.2567 43.032 96.259 42.9136 96.2613 42.7916C96.2632 42.612 96.2632 42.612 96.265 42.4287C96.2683 42.1329 96.2728 41.8372 96.2784 41.5415C96.2064 41.5434 96.1344 41.5453 96.0602 41.5473C95.7333 41.5549 95.4064 41.5596 95.0794 41.5642C94.9661 41.5673 94.8528 41.5703 94.7361 41.5735C94.6268 41.5746 94.5175 41.5758 94.4049 41.577C94.3045 41.5789 94.204 41.5808 94.1005 41.5828C93.7603 41.5321 93.6114 41.4171 93.369 41.1778C93.3086 40.9761 93.3086 40.9761 93.3121 40.7687C93.311 40.7003 93.3098 40.6318 93.3086 40.5613C93.3989 40.2597 93.5642 40.167 93.8236 39.9959C94.1005 39.9546 94.1005 39.9546 94.4049 39.9604C94.5142 39.9616 94.6235 39.9627 94.7361 39.9639C94.8494 39.967 94.9627 39.97 95.0794 39.9732C95.1944 39.9748 95.3094 39.9764 95.428 39.9781C95.7115 39.9824 95.9949 39.9884 96.2784 39.9959C96.276 39.9207 96.2736 39.8455 96.2712 39.768C96.2617 39.4273 96.2558 39.0866 96.25 38.7458C96.2461 38.6274 96.2423 38.509 96.2384 38.3871C96.2369 38.2734 96.2355 38.1597 96.234 38.0426C96.2316 37.9378 96.2292 37.8331 96.2268 37.7251C96.2784 37.4502 96.2784 37.4502 96.4886 37.2345C96.8123 37.0384 96.9969 37.0266 97.3694 37.0865Z" fill="#191919"/>
<path d="M29.9988 55.8158C30.0588 55.8158 30.1188 55.8158 30.1807 55.8158C30.2949 56.08 30.3625 56.2518 30.3625 56.5431C30.2725 56.5431 30.1825 56.5431 30.0897 56.5431C29.9598 56.3291 29.9 56.2267 29.942 55.9749C29.9607 55.9224 29.9795 55.8699 29.9988 55.8158Z" fill="#191919"/>
<path d="M29.7258 51.8154C29.8158 51.8154 29.9058 51.8154 29.9985 51.8154C29.919 52.3382 29.919 52.3382 29.8167 52.5428C29.7267 52.5128 29.6367 52.4828 29.5439 52.4519C29.604 52.2418 29.664 52.0318 29.7258 51.8154Z" fill="#191919"/>
<path d="M39.8182 54.9976C39.8782 54.9976 39.9382 54.9976 40 54.9976C39.97 55.2076 39.94 55.4176 39.9091 55.634C39.7891 55.634 39.6691 55.634 39.5454 55.634C39.6354 55.424 39.7254 55.2139 39.8182 54.9976Z" fill="#191919"/>
<path d="M30.0896 50.9972C30.1796 50.9972 30.2696 50.9972 30.3624 50.9972C30.3171 51.3325 30.2623 51.5068 29.9987 51.7245C29.9141 51.4876 29.8942 51.3934 29.993 51.1563C30.0249 51.1038 30.0568 51.0513 30.0896 50.9972Z" fill="#191919"/>
<path d="M36.9082 48.8151C37.1182 48.8751 37.3282 48.9351 37.5446 48.9969C37.5146 49.1169 37.4846 49.2369 37.4537 49.3606C37.2737 49.2706 37.0937 49.1806 36.9082 49.0878C36.9082 48.9978 36.9082 48.9078 36.9082 48.8151Z" fill="#191919"/>
<path d="M36.7273 58.5433C36.7273 58.6333 36.7273 58.7234 36.7273 58.8161C36.5133 58.9461 36.4109 59.0058 36.1591 58.9638C36.1066 58.9451 36.0541 58.9263 36 58.907C36.2206 58.6654 36.3854 58.5433 36.7273 58.5433Z" fill="#191919"/>
<path d="M32.9078 58.5433C33.1178 58.6033 33.3279 58.6633 33.5442 58.7252C33.5142 58.8152 33.4842 58.9052 33.4533 58.9979C33.2433 58.9379 33.0333 58.8779 32.8169 58.8161C32.8469 58.7261 32.8769 58.6361 32.9078 58.5433Z" fill="#191919"/>
<path d="M37.5446 58.1797C37.5146 58.2997 37.4846 58.4197 37.4537 58.5434C37.2737 58.5734 37.0937 58.6034 36.9082 58.6343C36.9082 58.5443 36.9082 58.4543 36.9082 58.3615C37.3401 58.1797 37.3401 58.1797 37.5446 58.1797Z" fill="#191919"/>
<path d="M39.4548 55.8158C39.5448 55.8458 39.6348 55.8758 39.7275 55.9067C39.6537 56.1738 39.6537 56.1738 39.5457 56.4522C39.4557 56.4822 39.3657 56.5122 39.2729 56.5431C39.3525 56.0204 39.3525 56.0204 39.4548 55.8158Z" fill="#191919"/>
<path d="M29.6349 54.9976C29.6949 54.9976 29.7549 54.9976 29.8167 54.9976C29.8767 55.2076 29.9367 55.4176 29.9985 55.634C29.9085 55.664 29.8185 55.694 29.7258 55.7249C29.6658 55.5149 29.6058 55.3049 29.5439 55.0885C29.5739 55.0585 29.604 55.0285 29.6349 54.9976Z" fill="#191919"/>
<path d="M39.1816 50.9972C39.3017 50.9972 39.4217 50.9972 39.5453 50.9972C39.6053 51.2072 39.6653 51.4172 39.7272 51.6336C39.5567 51.6223 39.5567 51.6223 39.3635 51.5427C39.2498 51.2643 39.2498 51.2643 39.1816 50.9972Z" fill="#191919"/>
<path d="M32.0898 58.1797C32.4049 58.3147 32.4049 58.3147 32.7263 58.4524C32.6963 58.5425 32.6663 58.6325 32.6354 58.7252C32.4553 58.6352 32.2753 58.5452 32.0898 58.4524C32.0898 58.3624 32.0898 58.2724 32.0898 58.1797Z" fill="#191919"/>
<path d="M39.6363 51.8154C39.7263 51.8454 39.8163 51.8754 39.9091 51.9063C39.9391 52.0864 39.9691 52.2664 40 52.4519C39.91 52.4969 39.91 52.4969 39.8182 52.5428C39.7282 52.3328 39.6381 52.1227 39.5454 51.9063C39.5754 51.8763 39.6054 51.8463 39.6363 51.8154Z" fill="#191919"/>
<path d="M32.5444 48.8151C32.6044 48.8451 32.6644 48.8751 32.7263 48.906C32.6963 48.996 32.6663 49.086 32.6354 49.1787C32.3569 49.2867 32.3569 49.2867 32.0898 49.3606C32.0898 49.2406 32.0898 49.1206 32.0898 48.9969C32.3058 48.9003 32.3058 48.9003 32.5444 48.8151Z" fill="#191919"/>
<path d="M36.0909 48.5424C36.3609 48.5874 36.3609 48.5874 36.6364 48.6333C36.6364 48.7533 36.6364 48.8733 36.6364 48.997C36.4264 48.9069 36.2164 48.8169 36 48.7242C36.03 48.6642 36.06 48.6042 36.0909 48.5424Z" fill="#191919"/>
<path d="M33.5446 48.5424C33.5146 48.6324 33.4846 48.7224 33.4537 48.8151C33.1753 48.9231 33.1753 48.9231 32.9082 48.997C32.9423 48.8208 32.9423 48.8208 32.9991 48.6333C33.181 48.5424 33.181 48.5424 33.5446 48.5424Z" fill="#191919"/>
</g>
<defs>
<clipPath id="clip0_2357_2">
<rect width="100" height="100" fill="white" transform="translate(0.776367 0.628906)"/>
</clipPath>
</defs>
</svg>
