<svg width="101" height="101" viewBox="0 0 101 101" fill="none" xmlns="http://www.w3.org/2000/svg">
<path fill-rule="evenodd" clip-rule="evenodd" d="M43.1687 68.7045L43.1705 85.629H47.9494V68.7049L43.1687 68.7045ZM5.56787 68.6818V85.629H10.3902V72.7604L14.126 72.7618C15.3635 72.7618 16.2446 73.0696 16.841 73.7058C17.5974 74.5115 17.9057 75.8104 17.9057 78.1872V85.629H22.5779V76.2657C22.5779 69.5829 18.318 68.6814 14.1504 68.6814L5.56787 68.6818ZM50.8646 68.7049V85.629H58.6175C62.7481 85.629 64.0958 84.9418 65.5539 83.4019C66.5848 82.3204 67.2507 79.9468 67.2507 77.353C67.2507 74.9744 66.6869 72.8517 65.7036 71.5302C63.9326 69.167 61.3813 68.7049 57.5731 68.7049H50.8646ZM55.606 72.3897H57.6613C60.6426 72.3897 62.5713 73.7288 62.5713 77.2029C62.5713 80.6779 60.6426 82.0166 57.6613 82.0166H55.606V72.3897ZM36.2771 68.7049L32.288 82.1183L28.4654 68.7058L23.3058 68.7049L28.7647 85.629H35.654L41.1559 68.7049H36.2775H36.2771ZM69.4747 85.629H74.2554V68.7063L69.4738 68.7049L69.4747 85.629ZM82.8741 68.7108L76.1995 85.6231H80.9128L81.969 82.6337H89.8675L90.8666 85.6231H95.9846L89.2589 68.7094L82.8741 68.7108ZM85.977 71.7965L88.8723 79.7194H82.9903L85.977 71.7965Z" fill="#191919"/>
<path fill-rule="evenodd" clip-rule="evenodd" d="M36.8498 29.0604V24.9945C37.2492 24.9662 37.6491 24.9457 38.0493 24.933C49.1696 24.5835 56.4654 34.4881 56.4654 34.4881C56.4654 34.4881 48.5859 45.432 40.1371 45.432C38.92 45.432 37.8313 45.2363 36.8498 44.9067V32.5774C41.1788 33.1001 42.0492 35.0125 44.6524 39.3511L50.4409 34.4705C50.4409 34.4705 46.2159 28.9284 39.0928 28.9284C38.3174 28.9284 37.5768 28.9826 36.8498 29.0604ZM36.8498 15.6294V21.7027C37.2486 21.671 37.6482 21.6457 38.0493 21.6312C53.514 21.1104 63.5889 34.314 63.5889 34.314C63.5889 34.314 52.0161 48.3857 39.9604 48.3857C38.8558 48.3857 37.8219 48.284 36.8498 48.1117V51.8657C37.6808 51.9715 38.5416 52.0339 39.4404 52.0339C50.6597 52.0339 58.773 46.3046 66.6299 39.5233C67.9315 40.5664 73.2647 43.1036 74.3611 44.2154C66.8908 50.4691 49.482 55.5093 39.6127 55.5093C38.69 55.5058 37.7679 55.4579 36.8498 55.3655V60.6417H79.4917V15.6289H36.8503L36.8498 15.6294ZM36.8498 44.9067V48.1117C26.4728 46.2612 23.5928 35.4755 23.5928 35.4755C23.5928 35.4755 28.5751 29.9552 36.8498 29.0604V32.5774C36.8435 32.5774 36.8389 32.5756 36.8335 32.5756C32.4914 32.0539 29.0987 36.1112 29.0987 36.1112C29.0987 36.1112 30.9994 42.9409 36.8498 44.9067ZM18.4197 35.0076C18.4197 35.0076 24.5694 25.9327 36.8498 24.9945V21.7027C23.2483 22.7941 11.4697 34.3136 11.4697 34.3136C11.4697 34.3136 18.1398 53.6 36.8498 55.3655L36.8503 51.8661C23.1203 50.1381 18.4197 35.0076 18.4197 35.0076Z" fill="#191919"/>
</svg>
