<svg width="101" height="101" viewBox="0 0 101 101" fill="none" xmlns="http://www.w3.org/2000/svg">
<g clip-path="url(#clip0_2336_10658)">
<path d="M25.1854 49.8763C25.1372 49.8763 25.089 49.8763 25.0407 49.8763L20.7474 42.0615C20.8439 41.9168 20.8439 41.7721 20.8439 41.5791C20.8439 41.0002 20.3615 40.5661 19.8309 40.5661C19.5414 40.5661 19.252 40.7108 19.1073 40.9038L10.6172 39.1672C10.5689 38.6365 10.1348 38.2506 9.60415 38.2506C9.02528 38.2506 8.59113 38.733 8.59113 39.2636C8.59113 39.4566 8.63937 39.6013 8.68761 39.746L2.07883 49.2492C1.98235 49.2492 1.88587 49.2009 1.78939 49.2009C1.21052 49.2009 0.776367 49.6833 0.776367 50.2139C0.776367 50.7928 1.25876 51.227 1.78939 51.227H1.83763L5.40734 60.0548C5.3591 60.1995 5.31086 60.3442 5.31086 60.4889C5.31086 61.0678 5.79325 61.5019 6.32388 61.5019C6.61332 61.5019 6.90275 61.3572 7.04747 61.1643L17.7566 62.2255C17.8531 62.6597 18.2872 62.9974 18.7696 62.9974C19.3485 62.9974 19.7826 62.515 19.7826 61.9843C19.7826 61.7431 19.6862 61.5019 19.5414 61.309L24.9442 51.9023C24.9925 51.9023 25.0407 51.9023 25.1372 51.9023C25.7161 51.9023 26.1502 51.4199 26.1502 50.8893C26.1985 50.3587 25.7643 49.8763 25.1854 49.8763ZM19.0108 42.2062C19.1555 42.3509 19.3002 42.4957 19.4932 42.5439L17.8531 54.7967C17.7566 54.7967 17.6601 54.8449 17.5636 54.8932L8.63937 47.1749C8.63937 47.0784 8.68761 46.9819 8.68761 46.8854C8.68761 46.8372 8.68761 46.7407 8.68761 46.6925L19.0108 42.2062ZM24.1724 51.227L18.6731 54.9896C18.6249 54.9414 18.5767 54.9414 18.5284 54.8932L20.2168 42.5439L24.4136 50.2622C24.2689 50.4551 24.1724 50.6963 24.1724 50.9375C24.1242 51.034 24.1724 51.1305 24.1724 51.227ZM7.52986 45.8724C7.04747 45.9689 6.66156 46.3548 6.66156 46.8854V46.9337L2.99537 49.1044L8.68761 40.952L7.52986 45.8724ZM7.91578 47.8985C8.0605 47.8502 8.20521 47.802 8.30169 47.7537L17.1295 55.4238C17.0812 55.5203 17.0812 55.665 17.0812 55.8097V55.8579L7.19219 59.91C7.04747 59.7171 6.80628 59.5241 6.56508 59.4759L7.91578 47.8985ZM17.3224 56.4851C17.4672 56.6298 17.6601 56.7262 17.8531 56.7745L18.3355 61.0678C18.1425 61.1643 17.9495 61.3572 17.8531 61.5502L7.48163 60.5372L17.3224 56.4851ZM18.5767 56.7262C18.9143 56.5815 19.1555 56.1956 19.1555 55.8097C19.1555 55.7132 19.1555 55.6167 19.1073 55.5685L24.1242 52.1435L19.059 60.9231L18.5767 56.7262ZM18.8179 41.5309L8.34993 46.1136C8.30169 46.0654 8.25345 46.0654 8.25345 46.0171L9.60415 40.3249H9.65239C10.0383 40.3249 10.3277 40.1319 10.5207 39.8425L18.8179 41.5309ZM2.85066 50.2139C2.85066 50.1657 2.85066 50.0692 2.85066 50.021L6.99923 47.5608C7.09571 47.6573 7.19219 47.7055 7.28867 47.7537L5.93797 59.3312L2.56122 50.9858C2.70594 50.7928 2.85066 50.5516 2.85066 50.2139Z" fill="#191919"/>
<path d="M37.8242 54.7001V47.3195C37.8242 43.7497 40.5256 42.399 44.0471 42.399C47.5203 42.399 50.27 43.7497 50.27 47.3195V54.7001C50.27 58.2698 47.5203 59.6205 44.0471 59.6205C40.5256 59.6205 37.8242 58.2698 37.8242 54.7001ZM48.7263 47.3195C48.7263 44.7145 46.9897 43.5568 44.0471 43.5568C41.1045 43.5568 39.3679 44.7628 39.3679 47.3195V54.7001C39.3679 57.305 41.1045 58.4627 44.0471 58.4627C46.9897 58.4627 48.7263 57.2567 48.7263 54.7001V47.3195Z" fill="#191919"/>
<path d="M65.5614 58.6075L56.4924 45.197V58.9452C56.4924 59.2829 56.1065 59.4758 55.7206 59.4758C55.3346 59.4758 54.9487 59.3311 54.9487 58.9452V42.9298C54.9487 42.5439 55.3346 42.4474 55.7206 42.4474C56.2994 42.4474 56.6853 43.0263 56.9748 43.4122L65.899 56.7262V42.9298C65.899 42.5921 66.285 42.4474 66.6709 42.4474C67.0568 42.4474 67.4427 42.5921 67.4427 42.9298V58.9452C67.4427 59.2829 67.0568 59.4758 66.6709 59.4758C66.1885 59.4758 65.8508 58.9935 65.5614 58.6075Z" fill="#191919"/>
<path d="M82.9281 58.6075L73.8591 45.197V58.9452C73.8591 59.2829 73.4732 59.4758 73.0873 59.4758C72.7013 59.4758 72.3154 59.3311 72.3154 58.9452V42.9298C72.3154 42.5439 72.7013 42.4474 73.0873 42.4474C73.6661 42.4474 74.052 43.0263 74.3415 43.4122L83.2657 56.7262V42.9298C83.2657 42.5921 83.6517 42.4474 84.0376 42.4474C84.4235 42.4474 84.8094 42.5921 84.8094 42.9298V58.9452C84.8094 59.2829 84.4235 59.4758 84.0376 59.4758C83.6034 59.4758 83.2175 58.9935 82.9281 58.6075Z" fill="#191919"/>
<path d="M94.4086 52.0469L89.8259 58.7039C89.6329 59.0416 89.3435 59.4757 88.9093 59.4757C88.5234 59.4757 88.041 59.2346 88.041 58.8969C88.041 58.8004 88.0892 58.7039 88.1857 58.6074L93.492 50.9374L88.2822 43.3156C88.1375 43.1709 88.0893 43.0262 88.0893 42.8814C88.0893 42.592 88.4752 42.399 88.9576 42.399C89.3917 42.399 89.6811 42.8332 89.9223 43.2191L94.4086 49.8279L98.8949 43.2191C99.136 42.8814 99.4255 42.399 99.8596 42.399C100.342 42.399 100.728 42.592 100.728 42.8814C100.728 43.0262 100.68 43.1709 100.535 43.3156L95.2769 50.9374L100.631 58.6074C100.68 58.7039 100.776 58.8004 100.776 58.8969C100.776 59.2346 100.342 59.4757 99.9079 59.4757C99.4255 59.4757 99.1843 58.9934 98.9913 58.7039L94.4086 52.0469Z" fill="#191919"/>
<path d="M20.2168 42.5438L24.4136 50.2621C24.2689 50.4551 24.1724 50.6963 24.1724 50.9375C24.1724 51.0339 24.1724 51.1304 24.2207 51.2269L18.7214 54.9896C18.6731 54.9413 18.6249 54.9413 18.5767 54.8931L20.2168 42.5438Z" fill="#E4E4E4"/>
<path d="M18.5767 56.7263C18.9143 56.5816 19.1555 56.1957 19.1555 55.8097C19.1555 55.7133 19.1555 55.6168 19.1073 55.5685L24.1242 52.1436L19.0591 60.9231L18.5767 56.7263Z" fill="#E4E4E4"/>
<path d="M17.3223 56.4851C17.467 56.6298 17.6599 56.7263 17.8529 56.7745L18.3353 61.0678C18.1423 61.1643 17.9494 61.3573 17.8529 61.5502L7.48145 60.5372L17.3223 56.4851Z" fill="#E4E4E4"/>
<path d="M7.91613 47.8984C8.06085 47.8501 8.20556 47.8019 8.30204 47.7537L17.1298 55.4237C17.0816 55.5202 17.0816 55.6649 17.0816 55.8096V55.8579L7.19254 59.91C7.04782 59.717 6.80663 59.524 6.56543 59.4758L7.91613 47.8984Z" fill="#E4E4E4"/>
<path d="M2.85096 50.214C2.85096 50.1657 2.85096 50.0692 2.85096 50.021L6.99954 47.5608C7.09601 47.6573 7.19249 47.7055 7.28897 47.7537L5.93827 59.3312L2.56152 50.9858C2.70624 50.7928 2.85096 50.5516 2.85096 50.214Z" fill="#E4E4E4"/>
<path d="M7.52961 45.8724C7.04722 45.9689 6.6613 46.3548 6.6613 46.8855V46.9337L2.99512 49.1045L8.68735 40.952L7.52961 45.8724Z" fill="#E4E4E4"/>
<path d="M18.8183 41.5309L8.35038 46.1136C8.30215 46.0654 8.25391 46.0654 8.25391 46.0172L9.60461 40.3249H9.65285C10.0388 40.3249 10.3282 40.132 10.5212 39.8425L18.8183 41.5309Z" fill="#E4E4E4"/>
<path d="M19.0106 42.2063C19.1553 42.351 19.3 42.4957 19.493 42.544L17.8529 54.7967C17.7564 54.7967 17.6599 54.845 17.5634 54.8932L8.63916 47.1749C8.63916 47.0785 8.6874 46.982 8.6874 46.8855C8.6874 46.8373 8.6874 46.7408 8.6874 46.6926L19.0106 42.2063Z" fill="#E4E4E4"/>
</g>
<defs>
<clipPath id="clip0_2336_10658">
<rect width="100" height="100" fill="white" transform="translate(0.776367 0.624023)"/>
</clipPath>
</defs>
</svg>
