<svg width="101" height="101" viewBox="0 0 101 101" fill="none" xmlns="http://www.w3.org/2000/svg">
<g clip-path="url(#clip0_2336_10638)">
<path d="M43.9527 40.4684C41.4235 39.0161 39.4468 36.7743 38.3292 34.0907C37.2116 31.4072 37.0155 28.4318 37.7714 25.6261C38.5273 22.8205 40.1928 20.3412 42.5098 18.573C44.8268 16.8048 47.6656 15.8463 50.5861 15.8463C53.5065 15.8463 56.3454 16.8048 58.6624 18.573C60.9793 20.3412 62.6449 22.8205 63.4008 25.6261C64.1566 28.4318 63.9606 31.4072 62.843 34.0907C61.7253 36.7743 59.7486 39.0161 57.2195 40.4684L53.225 33.5873C54.2312 33.0095 55.0176 32.1177 55.4622 31.0501C55.9068 29.9825 55.9849 28.7988 55.6841 27.6826C55.3834 26.5664 54.7208 25.5801 53.7991 24.8767C52.8773 24.1732 51.7479 23.7919 50.5861 23.7919C49.4242 23.7919 48.2949 24.1732 47.3731 24.8767C46.4513 25.5801 45.7887 26.5664 45.488 27.6826C45.1873 28.7988 45.2653 29.9825 45.7099 31.0501C46.1546 32.1177 46.9409 33.0095 47.9471 33.5873L43.9527 40.4684Z" fill="#191919"/>
<path d="M72.3622 43.6627C74.8914 45.115 76.8681 47.3568 77.9857 50.0404C79.1033 52.7239 79.2994 55.6993 78.5435 58.505C77.7877 61.3106 76.1221 63.7899 73.8051 65.5581C71.4882 67.3263 68.6493 68.2848 65.7289 68.2848C62.8084 68.2848 59.9695 67.3263 57.6526 65.5581C55.3356 63.7899 53.67 61.3106 52.9142 58.505C52.1583 55.6993 52.3544 52.7239 53.472 50.0404C54.5896 47.3568 56.5663 45.115 59.0955 43.6627L63.0899 50.5438C62.0837 51.1216 61.2973 52.0134 60.8527 53.081C60.4081 54.1486 60.3301 55.3323 60.6308 56.4485C60.9315 57.5647 61.5941 58.551 62.5159 59.2544C63.4376 59.9579 64.567 60.3392 65.7289 60.3392C66.8907 60.3392 68.0201 59.9579 68.9418 59.2544C69.8636 58.551 70.5262 57.5647 70.8269 56.4485C71.1276 55.3323 71.0496 54.1486 70.605 53.081C70.1604 52.0134 69.374 51.1216 68.3678 50.5438L72.3622 43.6627Z" fill="#191919"/>
<path d="M48.9958 55.0899C48.9958 57.9945 48.0321 60.818 46.2542 63.1225C44.4764 65.4269 41.9836 67.0834 39.1627 67.8352C36.3417 68.587 33.3502 68.392 30.652 67.2804C27.9539 66.1689 25.6999 64.2029 24.2397 61.6874C22.7794 59.1718 22.1946 56.2474 22.5758 53.3676C22.957 50.4878 24.2829 47.8136 26.348 45.7597C28.4131 43.7058 31.1019 42.387 33.9974 42.0078C36.8928 41.6287 39.8332 42.2104 42.3624 43.6627L38.368 50.5438C37.3618 49.9661 36.192 49.7346 35.0401 49.8855C33.8882 50.0363 32.8185 50.5609 31.997 51.378C31.1754 52.1952 30.6479 53.259 30.4963 54.4047C30.3446 55.5504 30.5773 56.7138 31.1582 57.7146C31.7391 58.7153 32.6358 59.4974 33.7092 59.9396C34.7827 60.3819 35.9728 60.4594 37.095 60.1604C38.2173 59.8613 39.209 59.2022 39.9163 58.2855C40.6235 57.3687 41.0069 56.2454 41.0069 55.0899L48.9958 55.0899Z" fill="#191919"/>
<path fill-rule="evenodd" clip-rule="evenodd" d="M26.2507 71.4485C27.3735 71.3481 28.5088 71.349 29.6259 71.5081C30.3145 71.6294 31.045 71.8065 31.5621 72.3057C32.104 72.9072 32.2374 73.7426 32.3564 74.5127C32.5516 76.1107 32.5288 77.7314 32.3564 79.3303C32.2412 80.1108 32.1278 80.9539 31.6135 81.5885C31.0526 82.155 30.224 82.316 29.464 82.4353C28.3421 82.5746 27.204 82.6068 26.0774 82.495C25.3145 82.4173 24.5183 82.2838 23.8688 81.8509C23.4488 81.5857 23.2231 81.1177 23.0697 80.664C22.7621 79.7187 22.7231 78.7146 22.6812 77.7295C22.6764 76.428 22.7012 75.1133 22.9564 73.8326C23.0945 73.2349 23.2621 72.5776 23.7697 72.1788C24.485 71.6625 25.3945 71.5375 26.2507 71.4485ZM26.4364 73.2321C27.3878 73.1563 28.3593 73.1336 29.3002 73.3173C29.665 73.3903 30.0954 73.5665 30.164 73.9795C30.4497 75.1417 30.3831 76.3523 30.3945 77.5401C30.3593 78.385 30.3793 79.2583 30.0945 80.0673C29.8459 80.5987 29.1688 80.6422 28.6583 80.7199C27.6345 80.7777 26.5716 80.8288 25.5783 80.5267C25.1202 80.4064 24.9754 79.9176 24.905 79.5075C24.7145 78.2922 24.7764 77.056 24.8002 75.8313C24.8507 75.1445 24.8421 74.4322 25.0907 73.7796C25.3754 73.342 25.964 73.3031 26.4364 73.2321Z" fill="#191919"/>
<path fill-rule="evenodd" clip-rule="evenodd" d="M36.4688 75.1503C37.1507 74.7193 37.9974 74.6492 38.7841 74.7202C39.5183 74.7827 40.3336 75.0309 40.7269 75.7035C41.1964 76.5474 41.2231 77.5449 41.2555 78.4864C41.2345 79.4545 41.2164 80.4652 40.8145 81.365C40.585 81.9116 40.0574 82.2696 39.4926 82.4108C38.6279 82.622 37.6774 82.6447 36.8441 82.3018C36.3936 82.1266 36.0822 81.7458 35.8241 81.3555C35.8241 82.8304 35.8241 84.3052 35.8241 85.78H33.9193C33.9203 82.1181 33.9174 78.4551 33.9203 74.7932C34.5364 74.7903 35.1526 74.7903 35.7679 74.7932C35.7469 75.1702 35.726 75.5462 35.7155 75.9242C35.9441 75.6466 36.1564 75.3416 36.4688 75.1503ZM37.0888 76.1392C37.6222 76.0984 38.186 76.0871 38.685 76.3059C39.0012 76.4413 39.1679 76.7738 39.2241 77.0959C39.3898 77.9266 39.3688 78.7848 39.3098 79.6259C39.2507 80.1336 39.1688 80.791 38.6069 80.988C37.9574 81.1993 37.2164 81.2125 36.5745 80.9653C35.9774 80.7152 35.9079 79.9963 35.8488 79.4384C35.8136 78.5821 35.7707 77.7012 36.0136 76.8695C36.1422 76.3978 36.6355 76.1742 37.0888 76.1392Z" fill="#191919"/>
<path fill-rule="evenodd" clip-rule="evenodd" d="M43.5346 75.1645C44.4708 74.6861 45.567 74.6691 46.5946 74.7174C47.4498 74.7884 48.4879 74.9305 48.9594 75.7442C49.4908 76.7265 49.4041 77.8821 49.4784 78.96C47.7413 78.96 46.0041 78.96 44.2679 78.96C44.3289 79.516 44.2565 80.1156 44.5384 80.6252C44.7794 81.0278 45.2908 81.1102 45.7232 81.1339C46.2575 81.1377 46.8327 81.1813 47.3251 80.934C47.607 80.7143 47.6089 80.324 47.6451 80.002C48.2546 80.001 48.8641 80.001 49.4737 80.002C49.4508 80.6347 49.3689 81.3432 48.8584 81.7884C48.0917 82.4723 46.9946 82.5434 46.0137 82.5623C45.1479 82.5367 44.2337 82.4932 43.4584 82.0688C42.8308 81.7003 42.6308 80.9435 42.5203 80.2767C42.3803 79.2859 42.3451 78.2761 42.4641 77.2815C42.5613 76.4963 42.7737 75.5727 43.5346 75.1645ZM44.6479 76.3703C45.1679 76.0558 45.8117 76.1193 46.3956 76.1278C46.7575 76.1666 47.1984 76.1875 47.4337 76.5058C47.6737 76.8989 47.6308 77.38 47.6327 77.8215C46.5117 77.8233 45.3917 77.8262 44.2717 77.8205C44.2889 77.3298 44.2498 76.7312 44.6479 76.3703Z" fill="#191919"/>
<path fill-rule="evenodd" clip-rule="evenodd" d="M53.5346 75.1597C54.1937 74.7051 55.0451 74.6416 55.8204 74.7306C56.4804 74.7998 57.1794 75.0499 57.5689 75.6163C57.9146 76.0861 58.0108 76.6848 58.0156 77.254C58.0127 78.9913 58.0165 80.7275 58.0146 82.4647C57.4108 82.4657 56.808 82.4657 56.2061 82.4647C56.2032 80.8213 56.208 79.1788 56.2032 77.5363C56.1851 77.1773 56.1994 76.7624 55.928 76.4859C55.6385 76.1742 55.1842 76.1136 54.7794 76.1164C54.2899 76.1136 53.7604 76.1969 53.3832 76.5332C53.0146 76.8458 52.8746 77.3497 52.8727 77.8158C52.8699 79.3654 52.8737 80.9151 52.8708 82.4638C52.268 82.4657 51.6651 82.4657 51.0632 82.4647C51.0623 79.9072 51.0623 77.3497 51.0632 74.7922C51.6556 74.7903 52.2489 74.7913 52.8413 74.7922C52.8385 75.2412 52.7937 75.6873 52.7804 76.1363C52.9746 75.7735 53.1785 75.3909 53.5346 75.1597Z" fill="#191919"/>
<path fill-rule="evenodd" clip-rule="evenodd" d="M61.2896 71.799C62.2877 71.4655 63.3515 71.4182 64.3953 71.3812C65.4067 71.386 66.4639 71.3954 67.4086 71.8008C67.8886 71.9998 68.221 72.4355 68.3829 72.9167C68.6467 73.6356 68.6544 74.4142 68.6601 75.1711C67.9639 75.1711 67.2677 75.173 66.5725 75.1701C66.561 74.6378 66.602 74.041 66.2706 73.5883C65.9353 73.2473 65.4115 73.2482 64.9667 73.1961C64.062 73.1791 63.1201 73.1213 62.2534 73.432C61.941 73.5305 61.7791 73.8412 61.7163 74.1405C61.5382 74.9437 61.5372 75.7726 61.5382 76.5919C61.5486 77.6869 61.5315 78.798 61.7667 79.875C61.8286 80.269 62.1934 80.5115 62.5591 80.5987C63.4048 80.808 64.2877 80.7777 65.1515 80.7266C65.602 80.6678 66.1506 80.6385 66.4334 80.2274C66.7353 79.7367 66.6848 79.1333 66.6686 78.582C67.3715 78.5792 68.0734 78.5801 68.7763 78.582C68.7677 79.4525 68.7525 80.3515 68.4344 81.1755C68.2706 81.6065 67.9325 81.9722 67.4944 82.137C66.6344 82.4799 65.6915 82.5017 64.7791 82.5566C63.721 82.5746 62.6496 82.549 61.6153 82.3037C61.0086 82.1464 60.3458 81.8699 60.0648 81.2703C59.7058 80.4774 59.6401 79.5956 59.5477 78.7421C59.4706 77.6149 59.421 76.4858 59.4486 75.3567C59.5029 74.4427 59.5867 73.4793 60.0829 72.6827C60.3467 72.2394 60.8096 71.9619 61.2896 71.799Z" fill="#191919"/>
<path fill-rule="evenodd" clip-rule="evenodd" d="M69.1191 71.4797C69.8449 71.4807 70.5706 71.4598 71.2953 71.4902C72.001 73.7171 72.7763 75.9213 73.4887 78.1454C73.7658 78.9998 73.962 79.8788 74.2487 80.7304C74.5696 79.8115 74.7753 78.8567 75.0896 77.936C75.7858 75.7849 76.501 73.6404 77.1963 71.4892C77.9125 71.4589 78.6306 71.4854 79.3477 71.476V71.7118C78.1687 75.2857 77.0172 78.869 75.862 82.4515C74.7839 82.4732 73.7039 82.4761 72.6258 82.4496C71.4772 78.7866 70.2734 75.1408 69.1191 71.4797Z" fill="#191919"/>
</g>
<defs>
<clipPath id="clip0_2336_10638">
<rect width="57.1429" height="70" fill="white" transform="translate(22.2051 15.78)"/>
</clipPath>
</defs>
</svg>
