<svg width="101" height="101" viewBox="0 0 101 101" fill="none" xmlns="http://www.w3.org/2000/svg">
<path fill-rule="evenodd" clip-rule="evenodd" d="M43.853 27.4558C45.9905 27.4558 48.1281 27.4888 50.2628 27.433C50.829 27.4182 51.8449 27.8866 51.7993 26.7097C51.7646 25.7519 50.8763 26.0985 50.3379 26.0899C47.9266 26.0518 45.5074 25.9602 43.1058 26.111C41.3968 26.2174 40.8931 25.5686 41.1077 24.0013C41.1817 23.4607 41.1105 22.9007 41.1219 22.3498C41.197 18.6814 42.0837 17.4328 45.6417 16.5279C49.5616 15.532 53.5732 15.565 57.4823 16.4232C60.9965 17.1949 62.4563 19.9289 62.2787 22.4579C62.0624 25.5442 62.2298 28.6571 62.2269 31.7587C62.2218 35.6587 60.2066 37.7286 56.2747 37.7826C53.0366 37.827 49.7944 37.8623 46.5579 37.7724C42.7006 37.6643 39.871 40.8683 39.8517 44.4991C39.8517 44.7746 39.8989 45.0591 39.8443 45.3249C39.5666 46.6583 40.6763 48.8135 39.2627 49.2095C37.1115 49.8139 34.5926 49.8139 32.6953 47.8944C32.0522 47.2456 31.5104 46.5188 31.2247 45.6789C29.7001 41.2029 29.4594 36.67 30.8946 32.1241C31.7893 29.2866 34.2227 27.5218 37.2372 27.4711C39.4419 27.4341 41.6472 27.4637 43.8519 27.4637L43.853 27.4558ZM47.7809 21.1274C47.6887 20.0444 47.1065 19.2539 45.9052 19.2209C44.5911 19.1868 43.9122 19.9812 43.9105 21.2742C43.9094 22.4727 44.5621 23.2405 45.7549 23.2752C47.0656 23.3133 47.7001 22.5012 47.7809 21.1274Z" fill="#191919"/>
<path fill-rule="evenodd" clip-rule="evenodd" d="M60.3508 49.3965C57.9378 49.3965 55.5237 49.3755 53.1107 49.4136C52.5672 49.4204 51.6555 49.0767 51.6271 50.006C51.5952 51.06 52.5735 50.7857 53.1949 50.7919C55.6079 50.8221 58.0232 50.8477 60.4356 50.7806C61.6751 50.7464 62.181 50.9837 62.2737 52.4452C62.6932 59.0609 59.8221 59.6329 54.5266 60.8365C51.4888 61.5268 48.2318 61.1609 45.2361 59.819C42.7588 58.7109 41.2387 57.1141 41.4305 54.124C41.6206 51.1727 41.6525 48.1832 41.4254 45.2347C41.1522 41.6761 43.366 39.0588 47.6713 39.0577C50.568 39.0571 53.484 38.8363 56.3557 39.1004C60.4617 39.4771 63.6811 35.918 63.8223 31.7795C63.828 31.6424 63.7927 31.495 63.828 31.3675C64.1899 30.0955 62.9026 28.205 64.6247 27.5625C67.2272 26.5922 70.162 27.612 71.4914 29.5868C73.1674 32.0732 73.3939 34.9989 73.6648 37.8558C73.9579 40.9352 73.094 43.8341 71.8005 46.6119C70.9218 48.4956 69.4444 49.4062 67.386 49.409C65.0413 49.4107 62.6972 49.409 60.3519 49.409L60.3508 49.3965ZM59.7225 55.5428C59.4647 54.367 58.9343 53.5646 57.5684 53.531C56.148 53.4969 55.7815 54.5594 55.7889 55.5081C55.7968 56.5165 56.078 57.7571 57.6157 57.641C58.8939 57.5432 59.517 56.7515 59.7225 55.5428Z" fill="#191919"/>
<path fill-rule="evenodd" clip-rule="evenodd" d="M22.395 79.718C22.395 81.1874 22.4616 82.5635 22.3637 83.9276C22.3216 84.516 22.9704 85.6235 21.736 85.6224C20.6479 85.6224 20.3685 84.7562 20.4032 83.7096C20.4698 81.7121 20.4225 79.7106 20.4225 77.7113V73.1597C20.4225 70.4166 21.1584 69.4879 23.7819 68.9199C26.2211 68.3895 28.1378 69.2107 29.1235 71.346C30.1092 73.4818 30.1854 75.6825 29.1992 77.8553C28.2272 79.9963 26.4368 80.7953 24.1433 80.1607C23.6209 80.0185 23.0933 79.895 22.395 79.718ZM22.395 74.3411C22.395 75.098 22.4975 75.8697 22.374 76.6061C22.0883 78.3083 23.1753 78.7277 24.4569 79.0305C25.7243 79.3298 26.5933 78.7909 27.1015 77.6743C27.9557 75.802 28.0991 73.8711 27.4503 71.8912C26.8744 70.1315 25.5444 69.9255 23.9919 70.144C22.4588 70.362 22.2511 71.4046 22.3848 72.6936C22.4417 73.2371 22.395 73.7919 22.395 74.3411ZM38.8915 79.6269C37.8415 79.9001 36.9298 80.1915 35.9965 80.3667C33.9534 80.7486 32.4408 79.6269 31.9086 77.5816C31.2485 75.0502 31.8073 72.5285 31.8244 70.0029C31.8318 68.8516 32.8972 69.3006 33.6342 68.6837C33.6342 71.3869 33.6444 73.7202 33.6307 76.0518C33.6233 77.223 33.9261 78.186 35.0336 78.8034C36.256 79.4852 37.2587 78.8359 38.323 78.3982C39.0855 78.0847 38.9905 77.4444 38.9916 76.8355C38.9973 74.6319 38.9911 72.4307 38.9985 70.2271C38.9996 69.6836 38.9433 69.0195 39.7457 69.0462C40.4611 69.0696 40.7724 69.4947 40.7604 70.2743C40.7086 73.9206 40.8116 77.5719 40.6637 81.213C40.5515 83.9663 38.6092 85.648 35.8149 85.7715C35.3967 85.7891 34.9584 85.8278 34.8019 85.3088C34.5635 84.5098 35.2106 84.6606 35.6357 84.5246C38.7094 83.5469 39.1112 82.963 38.8915 79.6269ZM51.8806 70.1657C52.6938 69.7815 53.1611 69.4298 53.675 69.3348C56.5586 68.8015 58.7684 69.0047 58.7627 72.8888C58.7587 74.8892 58.7638 76.8901 58.7587 78.8899C58.7576 79.4499 58.7934 79.9951 57.9586 80.0435C57.0782 80.0958 56.8847 79.5922 56.8886 78.9019C56.8989 76.9743 56.9512 75.0468 56.9495 73.1198C56.9484 71.6231 56.6428 70.2983 54.7392 70.3028C53.0694 70.3057 51.8868 71.552 51.8783 73.2718C51.8687 75.1335 51.8693 76.9952 51.88 78.8569C51.8817 79.5182 51.896 80.0981 50.9399 80.0435C50.0788 79.9923 50.1847 79.4118 50.1847 78.8774C50.179 73.9832 50.2029 69.0838 50.1613 64.1861C50.1539 63.3279 50.4926 62.7953 51.254 62.7588C52.3285 62.7093 51.8362 63.6489 51.8521 64.1201C51.9221 66.0386 51.8806 67.9615 51.8806 70.1657ZM60.9805 74.554C60.8718 70.7325 62.6843 68.6923 65.9658 68.8106C67.6127 68.871 68.8482 69.6017 69.6456 71.0244C71.0541 73.541 70.8634 76.0587 69.3394 78.4153C68.2922 80.0338 66.6817 80.797 64.7183 80.3804C62.7822 79.9706 61.2662 78.2275 60.9918 76.1958C60.919 75.658 60.9805 75.1009 60.9805 74.554ZM68.5609 74.6433C68.4744 73.9763 68.4897 73.0464 68.212 72.2167C67.8324 71.0785 67.1404 70.1622 65.7285 70.0996C64.304 70.0382 63.5932 70.8708 63.118 72.0232C62.3719 73.8324 62.4203 75.6489 63.2284 77.4256C63.7474 78.5701 64.5487 79.4078 65.9373 79.1756C67.3049 78.9474 68.1118 78.0511 68.3913 76.7211C68.5182 76.1184 68.4977 75.4867 68.5609 74.6433ZM72.5485 75.1527C72.5485 74.4629 72.5354 73.7743 72.5508 73.088C72.5827 71.7648 72.161 70.2988 73.9451 69.6227C75.9882 68.851 78.013 68.2728 80.0697 69.4674C80.8392 69.9147 81.1226 70.7274 81.1305 71.5901C81.1516 73.998 81.1197 76.407 81.1522 78.8148C81.1635 79.6548 80.9427 80.0748 79.9986 80.052C78.964 80.0276 79.1819 79.3219 79.1888 78.7585C79.2132 76.8349 79.347 74.9131 79.3106 72.9924C79.2627 70.5737 77.9356 69.5875 75.6746 70.181C74.7367 70.428 74.1505 70.8833 74.1966 72.0442C74.2883 74.3104 74.2177 76.5845 74.2262 78.8546C74.2285 79.5125 74.2382 80.0953 73.2889 80.0401C72.4193 79.99 72.5616 79.3885 72.5548 78.8666C72.5389 77.6282 72.5502 76.3893 72.5485 75.1527ZM47.7541 69.7895C47.6118 69.9579 47.4923 70.222 47.3671 70.2243C45.1112 70.2556 45.7372 71.9395 45.6791 73.1887C45.6239 74.3525 45.6791 75.522 45.6626 76.6892C45.6455 77.849 45.7463 78.9269 47.1576 79.2348C47.5623 79.3224 47.7467 79.5558 47.6624 79.9598C47.5697 80.406 47.214 80.3884 46.8617 80.3838C45.2398 80.3554 44.0373 79.2086 43.9895 77.5298C43.9405 75.8145 44.0071 74.0953 43.9667 72.3817C43.9456 71.5679 44.3685 70.5293 43.0561 70.2066C42.9122 70.1719 42.8609 69.7639 42.767 69.5311C44.5176 68.9819 43.7914 67.4721 44.0316 66.3265C44.1454 65.7842 44.6604 65.6356 45.147 65.5895C45.6393 65.5429 45.6433 65.9412 45.6592 66.2742C45.7241 67.5945 45.0406 69.3615 47.4712 69.2653C47.5526 69.2625 47.6476 69.5857 47.7541 69.7895Z" fill="#191919"/>
</svg>
