<svg width="101" height="101" viewBox="0 0 101 101" fill="none" xmlns="http://www.w3.org/2000/svg">
<g clip-path="url(#clip0_2336_10697)">
<path d="M28.3382 37.4606C25.9124 41.619 27.2985 46.8171 31.457 49.2428L61.2589 66.9161C65.4174 69.3418 70.6154 67.9557 73.0411 63.7973C75.4669 59.6388 74.0807 54.4408 69.9223 52.0151L40.1203 34.3418C35.9619 31.9161 30.7639 33.3022 28.3382 37.4606Z" fill="#191919"/>
<path d="M28.1648 45.9507C30.5906 50.1091 35.7886 51.4953 39.947 49.0695L69.9222 31.7428C74.0806 29.3171 75.4668 24.119 73.041 19.9606C70.6153 15.8022 65.4173 14.4161 61.2589 16.8418L31.2836 34.1685C27.1252 36.5943 25.7391 41.7923 28.1648 45.9507Z" fill="#393939"/>
<path d="M73.2143 55.3072C70.7886 51.1488 65.5906 49.7626 61.4321 52.1884L31.2836 69.3418C27.1252 71.7676 25.7391 76.9656 28.1648 81.124C30.5906 85.2824 35.7886 86.6686 39.947 84.2428L69.9222 66.9161C74.0807 64.6636 75.6401 59.2923 73.2143 55.3072Z" fill="#393939"/>
</g>
<defs>
<clipPath id="clip0_2336_10697">
<rect width="47.995" height="70" fill="white" transform="translate(26.7788 15.6289)"/>
</clipPath>
</defs>
</svg>
