<svg width="101" height="101" viewBox="0 0 101 101" fill="none" xmlns="http://www.w3.org/2000/svg">
<g clip-path="url(#clip0_2336_10688)">
<path d="M13.2806 47.3395C10.987 47.0672 10.8171 43.9869 7.87796 44.2592C6.45085 44.2592 5.12567 44.8549 5.12567 46.1653C5.12567 48.1394 8.16678 48.3266 10.0016 48.8201C13.1277 49.7731 16.1518 50.4198 16.1518 53.8234C16.1518 58.146 12.7709 59.6437 8.3027 59.6437C4.56502 59.6437 0.776367 58.3162 0.776367 54.8786C0.776367 53.9255 1.6938 53.1768 2.57725 53.1768C3.69855 53.1768 4.08931 53.6533 4.48007 54.4361C5.34653 55.9677 6.31493 56.7846 8.72744 56.7846C10.2565 56.7846 11.8195 56.206 11.8195 54.8786C11.8195 52.9895 9.89971 52.5811 7.91194 52.1216C4.39512 51.1346 1.371 50.624 1.01422 46.7098C0.640451 40.0387 14.5208 39.7835 15.3193 45.6377C15.3024 46.6928 14.317 47.3395 13.2806 47.3395ZM29.7944 41.4853C34.6703 41.4853 37.4396 45.5696 37.4396 50.607C37.4396 55.6614 34.7553 59.7287 29.7944 59.7287C27.0421 59.7287 25.3261 58.5545 24.0859 56.7506V63.4217C24.0859 65.4298 23.4403 66.3999 21.9792 66.3999C20.1953 66.3999 19.8725 65.2596 19.8725 63.4217V44.021C19.8725 42.4383 20.5351 41.4683 21.9792 41.4683C23.3384 41.4683 24.0859 42.5404 24.0859 44.021V44.5656C25.4621 42.8297 27.0421 41.4853 29.7944 41.4853ZM28.6391 56.257C31.4933 56.257 32.7675 53.6192 32.7675 50.5389C32.7675 47.5267 31.4763 44.8208 28.6391 44.8208C25.6659 44.8208 24.2898 47.2714 24.2898 50.5389C24.2898 53.7213 25.6829 56.257 28.6391 56.257ZM40.7526 46.2504C40.7526 42.7446 44.7791 41.4853 48.6867 41.4853C54.1743 41.4853 56.4339 43.085 56.4339 48.3946V53.5001C56.4339 54.7084 57.1814 57.125 57.1814 57.8567C57.1814 58.9629 56.162 59.6607 55.0747 59.6607C53.8684 59.6607 52.968 58.2311 52.3224 57.2101C50.5385 58.6396 48.6527 59.6607 45.7645 59.6607C42.5704 59.6607 40.056 57.7717 40.056 54.6573C40.056 51.9004 42.0268 50.3177 44.4053 49.7731C44.4053 49.7901 52.0506 47.9692 52.0506 47.9522C52.0506 45.6037 51.2181 44.5656 48.7546 44.5656C46.58 44.5656 45.4757 45.1612 44.6262 46.4716C43.9466 47.4586 44.0315 48.0543 42.7234 48.0543C41.67 48.0373 40.7526 47.3225 40.7526 46.2504ZM47.2765 56.7846C50.6235 56.7846 52.0336 55.0147 52.0336 51.492V50.7432C51.1331 51.0495 47.4974 51.9514 46.512 52.1046C45.4587 52.3088 44.4053 53.0917 44.4053 54.334C44.4393 55.6954 45.8324 56.7846 47.2765 56.7846ZM71.8603 34.8312C76.5834 34.8312 81.6972 37.6562 81.6972 42.149C81.6972 43.3062 80.8307 44.2592 79.6924 44.2592C78.1464 44.2592 77.9255 43.4253 77.2459 42.2511C76.1077 40.1579 74.7655 38.7624 71.8433 38.7624C67.3241 38.7283 65.3024 42.6085 65.3024 47.4416C65.3024 52.3088 66.9843 55.8146 71.6564 55.8146C74.7655 55.8146 76.4814 54.0106 77.3649 51.6792C77.7216 50.607 78.3673 49.5689 79.7094 49.5689C80.7628 49.5689 81.8161 50.641 81.8161 51.7983C81.8161 56.5634 76.9571 59.8649 71.9622 59.8649C66.4916 59.8649 63.3995 57.5504 61.7006 53.7043C60.8681 51.8664 60.3414 49.9603 60.3414 47.3395C60.3075 39.9536 64.6058 34.8312 71.8603 34.8312ZM98.8735 41.4853C100.08 41.4853 100.776 42.2681 100.776 43.4934C100.776 43.9869 100.386 44.974 100.233 45.5016L94.4223 60.8009C93.1311 64.1194 92.1627 66.4169 87.7624 66.4169C85.6727 66.4169 83.8549 66.2297 83.8549 64.4087C83.8549 63.3536 84.6534 62.826 85.7577 62.826C85.9615 62.826 86.3013 62.9282 86.5052 62.9282C86.828 62.9282 87.0489 63.0303 87.2527 63.0303C89.4614 63.0303 89.7672 60.7668 90.5487 59.2012L84.9422 45.2973C84.6194 44.5485 84.3985 44.038 84.3985 43.5955C84.3985 42.3702 85.3499 41.4853 86.6241 41.4853C88.0512 41.4853 88.6119 42.6085 88.9687 43.8338L92.6724 54.8615L96.3761 44.6677C96.9367 43.085 96.9877 41.4853 98.8735 41.4853Z" fill="#191919"/>
</g>
<defs>
<clipPath id="clip0_2336_10688">
<rect width="100" height="100" fill="white" transform="translate(0.776367 0.624023)"/>
</clipPath>
</defs>
</svg>
